<?xml version="1.0" encoding="UTF-8"?>
<svg version="1.1" xmlns="http://www.w3.org/2000/svg" width="701" height="698">
<path d="M0 0 C3.95877528 4.08319393 4.39361757 8.15775603 4.4296875 13.59765625 C3.97028474 16.42242216 3.11993899 19.06534998 2.2421875 21.78515625 C-5.22079601 47.71837387 -5.87977803 75.78570316 -7.5703125 102.59765625 C-7.64549606 103.78956573 -7.64549606 103.78956573 -7.72219849 105.0055542 C-8.2745657 113.9168978 -8.7260066 122.7903603 -8.6328125 131.72265625 C-8.62604492 133.03169922 -8.62604492 133.03169922 -8.61914062 134.3671875 C-8.60772933 136.44404284 -8.5898231 138.5208612 -8.5703125 140.59765625 C-8.30516846 139.99107178 -8.04002441 139.3844873 -7.7668457 138.75952148 C-0.89606858 123.14837799 6.7941445 108.29822056 15.4296875 93.59765625 C16.56272137 91.65117051 17.69553355 89.7045557 18.828125 87.7578125 C44.14779562 44.40613297 74.9945893 10.38577646 125.28955078 -3.17333984 C166.1502072 -13.41043576 204.35157684 -4.43183071 240.4296875 16.59765625 C250.00955755 22.70836626 258.60713472 30.37394692 266.4296875 38.59765625 C267.0484375 39.20996094 267.6671875 39.82226562 268.3046875 40.453125 C276.10283216 48.54370008 281.70683687 57.98463885 287.4296875 67.59765625 C287.88021484 68.35143555 288.33074219 69.10521484 288.79492188 69.88183594 C315.64520268 115.25439566 322.6447855 168.72772866 309.80419922 220.10009766 C306.82378729 231.22767097 303.09462983 242.06181497 298.4296875 252.59765625 C298.10629395 253.32807129 297.78290039 254.05848633 297.44970703 254.81103516 C291.6243749 267.81143838 285.33067423 281.37092783 276.4296875 292.59765625 C299.82932177 292.09492973 327.07533929 286.17539819 344.6796875 269.91015625 C360.98283848 252.63282753 373.48197222 231.41098322 386.4296875 211.59765625 C387.1201416 210.54191406 387.8105957 209.48617187 388.52197266 208.3984375 C394.06823463 199.88226043 399.45675576 191.28641049 404.625 182.53515625 C404.98355072 181.92803802 405.34210144 181.3209198 405.71151733 180.69540405 C407.46025022 177.72924939 409.19922584 174.75809628 410.92724609 171.77978516 C420.75895162 154.9459133 420.75895162 154.9459133 426.6171875 151.66015625 C427.27074219 151.27988281 427.92429687 150.89960938 428.59765625 150.5078125 C433.89247657 147.87733673 439.25636206 147.77328689 444.92578125 149.24609375 C458.88079302 154.34043502 467.79766795 165.27891807 474.12182617 178.35375977 C478.85200991 188.61013172 482.06037645 200.20937275 478.5625 211.36279297 C475.17578592 220.54698195 470.8385219 229.24926072 466.4296875 237.97265625 C466.0572995 238.71377655 465.6849115 239.45489685 465.30123901 240.21847534 C459.17005288 252.41063757 452.74181644 264.38520733 445.84814453 276.16650391 C444.5031723 278.4717076 443.18015906 280.788038 441.86328125 283.109375 C410.76617198 337.53240984 369.25014191 377.2759311 307.93798828 394.2890625 C286.54644768 399.98587757 264.81251836 402.82289765 242.6796875 402.66015625 C241.49375 402.65564453 240.3078125 402.65113281 239.0859375 402.64648438 C236.20046522 402.63484941 233.31510537 402.61850465 230.4296875 402.59765625 C230.13344482 403.21012207 229.83720215 403.82258789 229.53198242 404.45361328 C210.09616127 442.25768446 152.10155359 469.19493976 114.09667969 481.75 C79.82846889 492.64154411 38.64268659 496.75915578 5.6171875 479.78515625 C-0.1995275 476.43640279 -5.81232024 472.35564851 -10.5703125 467.59765625 C-10.7557138 478.69426764 -10.35783245 489.56610482 -9.0703125 500.59765625 C-8.98484161 501.34753815 -8.89937073 502.09742004 -8.81130981 502.87002563 C-4.74596496 538.16732643 1.91550953 573.11066115 8.83618164 607.94018555 C9.06737701 609.11067444 9.29857239 610.28116333 9.53677368 611.48712158 C9.96811439 613.66737281 10.40340612 615.84684804 10.84359741 618.02532959 C14.16067873 634.7990331 14.16067873 634.7990331 12.2421875 639.51953125 C-5.8521153 660.26558533 -47.48927041 669.69722014 -73.55322266 671.84326172 C-94.75410551 672.9724277 -117.11863512 669.09811294 -134.08886719 655.36914062 C-136.10711242 652.95576102 -136.78266921 650.60243327 -137.734375 647.60546875 C-138.12963379 646.36297363 -138.52489258 645.12047852 -138.93212891 643.84033203 C-139.35463902 642.46821876 -139.77565382 641.09564431 -140.1953125 639.72265625 C-140.52145538 638.66591705 -140.52145538 638.66591705 -140.85418701 637.58782959 C-160.69806881 573.02885079 -169.75500002 505.37965255 -174.2578125 438.16015625 C-174.31875092 437.2516391 -174.37968933 436.34312195 -174.44247437 435.40707397 C-175.88811607 413.5374222 -176.7301416 391.69525645 -176.73828125 369.77734375 C-176.74151634 367.6573993 -176.74488182 365.53745504 -176.74836731 363.41751099 C-176.75429531 358.99903856 -176.75621424 354.58058548 -176.75561523 350.16210938 C-176.75553472 345.74181968 -176.76236865 341.32163527 -176.77612305 336.90136719 C-176.86938314 306.41206811 -176.25411255 276.04235045 -174.5703125 245.59765625 C-174.53136745 244.8893869 -174.49242241 244.18111755 -174.45229721 243.4513855 C-173.98905246 235.09809853 -173.43758287 226.75336873 -172.8203125 218.41015625 C-172.73761108 217.27462311 -172.65490967 216.13908997 -172.56970215 214.96914673 C-168.40289672 158.21898404 -161.95861473 101.61552708 -152.2578125 45.53515625 C-152.09291321 44.57684906 -151.92801392 43.61854187 -151.75811768 42.63119507 C-148.64625758 24.69316764 -145.90069741 10.00494775 -130.3828125 -1.5625 C-116.87201584 -10.40081282 -101.55055691 -15.46397842 -85.5703125 -17.40234375 C-84.72855469 -17.51320313 -83.88679688 -17.6240625 -83.01953125 -17.73828125 C-56.14852784 -20.75566251 -21.01182643 -18.76429276 0 0 Z M-136.5703125 12.59765625 C-140.5875029 18.00095612 -142.49741372 22.89467394 -143.5625 29.5 C-143.71399002 30.35361618 -143.86548004 31.20723236 -144.02156067 32.0867157 C-144.51471919 34.90001355 -144.98097983 37.71696792 -145.4453125 40.53515625 C-145.78691098 42.537701 -146.12912743 44.54014043 -146.47192383 46.54248047 C-157.33887223 110.73820084 -164.45774648 175.54826555 -168.3203125 240.53515625 C-168.37938782 241.52895294 -168.43846313 242.52274963 -168.49932861 243.54666138 C-169.85527229 266.70824012 -170.73025815 289.83643456 -170.73828125 313.0390625 C-170.74151406 315.30647297 -170.74487942 317.57388325 -170.74836731 319.84129333 C-170.75429391 324.56143678 -170.75621416 329.2815621 -170.75561523 334.00170898 C-170.75553438 338.7471908 -170.76242396 343.49257525 -170.77612305 348.23803711 C-170.85896941 377.42046165 -170.51344012 406.4741078 -168.5703125 435.59765625 C-168.49225372 436.7800589 -168.41419495 437.96246155 -168.33377075 439.18069458 C-167.88173267 445.82666637 -167.34815677 452.46265741 -166.7578125 459.09765625 C-166.67416443 460.0583905 -166.59051636 461.01912476 -166.5043335 462.00897217 C-161.59872978 518.05005094 -152.56815659 573.34525086 -137.5703125 627.59765625 C-137.26738281 628.70915039 -136.96445313 629.82064453 -136.65234375 630.96582031 C-135.80170085 634.04057866 -134.91399643 637.10136537 -134.0078125 640.16015625 C-133.76345459 641.04050537 -133.51909668 641.92085449 -133.26733398 642.82788086 C-131.16217379 649.61461572 -127.83529327 653.1245224 -121.73168945 656.66381836 C-119.85049204 657.62387602 -117.95697929 658.47233994 -116.0078125 659.28515625 C-115.3072876 659.57914307 -114.6067627 659.87312988 -113.88500977 660.17602539 C-83.05880311 672.66898981 -48.56031284 663.31801603 -19.0402832 651.24926758 C-10.77964342 647.75178639 -2.72249595 644.09714392 4.4296875 638.59765625 C4.97828934 638.19056931 5.52689117 637.78348236 6.09211731 637.36405945 C7.69994283 635.61860091 7.69994283 635.61860091 7.38334656 632.97688293 C7.09050529 631.41788521 7.09050529 631.41788521 6.79174805 629.82739258 C6.58085541 628.66084137 6.36996277 627.49429016 6.15267944 626.29238892 C5.9140921 625.07312714 5.67550476 623.85386536 5.4296875 622.59765625 C5.21615631 621.44292816 5.00262512 620.28820007 4.78262329 619.09848022 C4.08666575 615.36899318 3.36372527 611.64542868 2.63671875 607.921875 C2.08467985 605.06615677 1.53513223 602.20996047 0.9855957 599.35375977 C0.8437919 598.61758801 0.70198811 597.88141624 0.55588722 597.12293625 C-3.95342554 573.69701796 -8.3543635 550.27736409 -11.7578125 526.66015625 C-11.89383881 525.72714691 -12.02986511 524.79413757 -12.17001343 523.83285522 C-14.83748814 505.37477072 -16.69411001 486.87156541 -17.1953125 468.22265625 C-17.23398438 466.98644531 -17.27265625 465.75023437 -17.3125 464.4765625 C-17.40426788 461.51704852 -17.49028138 458.55750652 -17.5703125 455.59765625 C-11.76806641 455.4140625 -11.76806641 455.4140625 -9.98828125 457.06640625 C-9.58222656 457.73671875 -9.17617187 458.40703125 -8.7578125 459.09765625 C1.38826743 473.88641543 17.6986514 479.61635189 34.578125 483.28125 C86.17963843 492.33962706 140.89804163 469.85447636 182.4675293 440.78613281 C198.49112893 429.33210538 216.71602292 415.42263654 227.4296875 398.59765625 C227.4296875 397.93765625 227.4296875 397.27765625 227.4296875 396.59765625 C228.20231934 396.6133667 228.97495117 396.62907715 229.77099609 396.64526367 C287.05813168 397.64755595 346.76108774 384.25861715 389.4296875 343.59765625 C393.4927744 339.67420558 397.32674129 335.6956554 400.8671875 331.28515625 C401.63289062 330.33253906 402.39859375 329.37992187 403.1875 328.3984375 C403.92742188 327.47417969 404.66734375 326.54992187 405.4296875 325.59765625 C406.06648437 324.82808594 406.70328125 324.05851562 407.359375 323.265625 C424.69481873 302.15378793 438.22019294 278.29901339 451.01660156 254.25195312 C452.42451451 251.60737304 453.84481427 248.9696992 455.265625 246.33203125 C458.05575605 241.12145788 460.76426109 235.8729993 463.4296875 230.59765625 C464.14729248 229.18806641 464.14729248 229.18806641 464.87939453 227.75 C471.7538334 214.08846051 475.94924555 204.24678181 471.8046875 188.97265625 C466.99685674 175.05172468 458.82646667 162.53939077 445.4296875 155.59765625 C440.2498677 154.00537768 435.40165447 153.91740724 430.3671875 156.03515625 C422.00831315 160.7877006 417.61625034 172.26628325 412.9296875 180.28515625 C353.16677306 281.92212673 353.16677306 281.92212673 311.28515625 293.40234375 C296.29318071 297.25218107 280.81368381 299.13800117 265.4296875 300.59765625 C267.04486333 295.85307725 269.66289882 292.037053 272.4296875 287.91015625 C302.93276215 241.39573492 317.32645159 184.80444337 306.46484375 129.515625 C299.6962068 97.50573655 283.19052133 66.0061961 261.4296875 41.59765625 C260.83414062 40.91960937 260.23859375 40.2415625 259.625 39.54296875 C235.3331325 13.58299017 196.62202543 0.1468598 161.98828125 -2.68359375 C123.84194002 -3.82941627 85.00658132 16.64813933 57.87890625 42.11328125 C43.17569469 57.0275437 32.96486181 75.68451011 22.4296875 93.59765625 C21.88344727 94.5220752 21.33720703 95.44649414 20.77441406 96.39892578 C10.54553983 113.75847473 0.7712716 131.46059132 -6.1953125 150.41015625 C-6.5140332 151.27439209 -6.83275391 152.13862793 -7.16113281 153.02905273 C-9.2995594 159.12663351 -10.57715129 165.21815443 -11.5703125 171.59765625 C-13.2203125 171.59765625 -14.8703125 171.59765625 -16.5703125 171.59765625 C-11.63815109 49.88466673 -11.63815109 49.88466673 -3.40234375 18.91015625 C-1.53997414 12.14688171 -1.53997414 12.14688171 -2.8828125 5.53515625 C-13.49927967 -6.06888926 -30.6550727 -9.12362656 -45.5703125 -11.40234375 C-46.405625 -11.53511719 -47.2409375 -11.66789063 -48.1015625 -11.8046875 C-78.21245391 -15.67457319 -115.22615799 -10.87426444 -136.5703125 12.59765625 Z " fill="#000000" transform="translate(221.5703125,26.40234375)"/>
<path d="M0 0 C5.93618115 4.66146436 7.84196159 10.30426553 8.85546875 17.64453125 C9.75971346 32.83630192 7.84230038 48.04790452 6.37382889 63.14912415 C6.1657792 65.29208412 5.96005008 67.4352564 5.75485229 69.57849121 C-2.63847729 157.0705616 -2.63847729 157.0705616 -16.14453125 196.64453125 C-17.10157959 196.39711182 -18.05862793 196.14969238 -19.04467773 195.89477539 C-58.97537565 185.677053 -97.97887965 182.02823167 -139.14453125 182.64453125 C-138.70264868 175.80390109 -137.55761072 169.68511442 -135.33203125 163.20703125 C-135.0270874 162.31072998 -134.72214355 161.41442871 -134.40795898 160.4909668 C-130.09482445 148.21544455 -124.61533629 136.43704829 -119.14453125 124.64453125 C-118.83328308 123.97196289 -118.52203491 123.29939453 -118.20135498 122.60644531 C-110.69636877 106.39209119 -103.10609386 90.2264098 -94.94921875 74.32739258 C-92.79477747 70.10062474 -90.80881825 65.90653294 -89.10546875 61.4765625 C-87.3378279 56.93718239 -85.15266201 52.92137503 -82.51953125 48.83203125 C-82.08568115 48.15043945 -81.65183105 47.46884766 -81.20483398 46.76660156 C-68.21757759 26.66365012 -49.19740365 1.70332356 -25.3125 -4.953125 C-16.1954906 -6.64511053 -7.87287992 -4.97611901 0 0 Z M-50.14453125 18.64453125 C-55.14453125 23.64453125 -55.14453125 23.64453125 -56.71337891 25.15844727 C-73.74644056 41.7684624 -83.4806111 63.00175214 -93.50585938 84.20263672 C-95.17321143 87.70477159 -96.8654782 91.19374598 -98.56640625 94.6796875 C-108.88225196 115.82645183 -119.08188878 137.05123894 -127.39453125 159.08203125 C-127.9510437 160.55603394 -127.9510437 160.55603394 -128.51879883 162.05981445 C-130.18911769 166.60935699 -131.43242582 170.83259632 -132.14453125 175.64453125 C-131.33636963 175.66435059 -130.52820801 175.68416992 -129.69555664 175.70458984 C-92.37818966 176.65961896 -56.39819303 180.16507006 -20.14453125 189.64453125 C-7.80108306 150.38186094 -3.93886959 109.32173125 -0.03768921 68.53745651 C0.16556551 66.41957264 0.37136263 64.3019484 0.57763672 62.18435669 C5.4097745 32.87630159 5.4097745 32.87630159 -2.33203125 5.76953125 C-7.66618734 1.73927998 -13.10019924 0.02541487 -19.80078125 0.30078125 C-31.64625755 2.03811777 -42.27783174 10.02862227 -50.14453125 18.64453125 Z " fill="#000000" transform="translate(410.14453125,128.35546875)"/>
<path d="M0 0 C6.517904 4.68956663 12.55343845 10.81246164 14 19 C14.7992898 30.25557271 13.99078008 38.31915226 6.75 47.25 C2.47095723 51.8603235 -2.66218838 55.94186102 -9 57 C-11.59373914 57.06898242 -14.15810197 57.09434752 -16.75 57.0625 C-17.44738281 57.05798828 -18.14476562 57.05347656 -18.86328125 57.04882812 C-20.57555803 57.0371002 -22.28779033 57.01916653 -24 57 C-24 57.99 -24 58.98 -24 60 C-24.99 60 -25.98 60 -27 60 C-27 58.35 -27 56.7 -27 55 C-27.72058594 54.92007813 -28.44117188 54.84015625 -29.18359375 54.7578125 C-35.53953979 53.04761343 -41.26737675 46.77224933 -44.5625 41.1875 C-47.98323368 33.60239488 -48.29008021 24.37792472 -46.3515625 16.296875 C-42.8581449 7.75740977 -36.29102985 0.98311331 -28 -3 C-19.23447434 -5.98563756 -7.6962579 -5.12579848 0 0 Z " fill="#000000" transform="translate(165,53)"/>
<path d="M0 0 C0.72014282 0.13249146 1.44028564 0.26498291 2.18225098 0.40148926 C29.08607877 5.36202626 29.08607877 5.36202626 34 7 C32.4529351 11.64119471 28.7687732 13.63076934 25 16.6015625 C23.20237383 18.03872717 21.43777601 19.52122849 19.75 21.0859375 C7.46665106 32.18482065 -13.39371324 38.97334746 -29.78125 38.41015625 C-42.64051093 37.46235028 -59.68165245 31.37088993 -68.3125 21.6875 C-71.32783709 17.82148847 -72.35977759 15.26418588 -72.27734375 10.2265625 C-71.59698482 4.76452604 -69.21901949 0.99045333 -65 -2.4375 C-47.04269574 -11.79026264 -19.07790017 -3.52746165 0 0 Z M-64.8125 5.75 C-66.57098729 9.08187066 -66.51262487 11.28346973 -66 15 C-60.65304438 24.35717234 -47.6584055 28.16162073 -37.85546875 31.078125 C-25.62266889 34.00309031 -15.45540314 31.57248404 -4 27 C-2.18435547 26.33097656 -2.18435547 26.33097656 -0.33203125 25.6484375 C7.96577743 22.40894403 14.72816247 18.39983421 21 12 C21 11.34 21 10.68 21 10 C15.86379628 9.03471932 10.72664472 8.07469749 5.58862305 7.11914062 C3.84780595 6.79467117 2.10723693 6.46886733 0.36694336 6.14160156 C-14.95116472 3.26255675 -29.9776492 0.64131538 -45.625 0.6875 C-47.32076172 0.66333008 -47.32076172 0.66333008 -49.05078125 0.63867188 C-50.14003906 0.63802734 -51.22929687 0.63738281 -52.3515625 0.63671875 C-53.31916504 0.63373779 -54.28676758 0.63075684 -55.28369141 0.62768555 C-59.29945508 1.17811154 -61.93245295 2.96926491 -64.8125 5.75 Z " fill="#000000" transform="translate(315,389)"/>
<path d="M0 0 C41.68561397 0.16574797 84.72976033 23.57663888 114 52 C116.47674435 54.56196566 118.75522266 57.23351534 121 60 C121.75925781 60.91007812 122.51851562 61.82015625 123.30078125 62.7578125 C145.91079622 90.47892073 154.97120221 124.86976464 157 160 C157.7425 159.175 158.485 158.35 159.25 157.5 C162 155 162 155 166 155 C165.45575015 159.01268958 163.47927799 160.98416846 160.6875 163.8125 C159.51767578 165.02873047 159.51767578 165.02873047 158.32421875 166.26953125 C156 168 156 168 154.00390625 168.03515625 C151.2733066 166.62461257 149.41043884 164.80661961 147.25 162.625 C146.45078125 161.83351562 145.6515625 161.04203125 144.828125 160.2265625 C143 158 143 158 143 155 C146.77639718 155.51032394 148.44722581 156.20766929 151 159 C153.57485065 122.37990184 136.80177528 86.17764298 113.47265625 59.0625 C85.04005624 26.76472215 42.16739457 8.8622443 0 4 C0 2.68 0 1.36 0 0 Z " fill="#000000" transform="translate(401,0)"/>
<path d="M0 0 C0.99 0 1.98 0 3 0 C2.76925781 0.91394531 2.53851563 1.82789063 2.30078125 2.76953125 C-2.55090789 22.41381842 -5.97740041 42.21734338 -8.25 62.3125 C-8.33290283 63.04353943 -8.41580566 63.77457886 -8.5012207 64.527771 C-10.09499843 78.74562987 -11.09446295 92.94983102 -11.5625 107.25 C-11.6251001 109.16147827 -11.6251001 109.16147827 -11.68896484 111.11157227 C-11.9888021 120.74981013 -12.18990921 130.35888105 -12 140 C-11.98211426 141.00885254 -11.96422852 142.01770508 -11.94580078 143.05712891 C-12.91095375 212.79175939 -12.91095375 212.79175939 3 279 C3.66 278.01 4.32 277.02 5 276 C5.99 276 6.98 276 8 276 C7.38545304 279.99455527 5.29353263 282.74466336 3 286 C-1.38462134 285.49890042 -3.8000997 284.01704885 -7 281 C-7 280.34 -7 279.68 -7 279 C-5.35 279.33 -3.7 279.66 -2 280 C-3.05302993 272.42934141 -4.16680061 264.87266834 -5.3671875 257.32421875 C-8.16360842 239.61059734 -10.60197608 221.91658516 -12.3125 204.0625 C-12.43392365 202.80486343 -12.43392365 202.80486343 -12.55780029 201.52182007 C-12.79008551 199.08923607 -13.01598274 196.65617195 -13.23828125 194.22265625 C-13.30156113 193.5405307 -13.364841 192.85840515 -13.43003845 192.15560913 C-14.61757219 178.65707648 -15.16716313 165.18383745 -15.203125 151.63671875 C-15.20595238 150.89186533 -15.20877975 150.14701191 -15.21169281 149.37958717 C-15.22653523 145.42175597 -15.23585323 141.46395968 -15.24023438 137.50610352 C-15.24457221 134.32759833 -15.25830168 131.14937178 -15.28125 127.97094727 C-15.40476863 110.47817483 -15.11170903 93.12556328 -13.62890625 75.6875 C-13.56749199 74.96130148 -13.50607773 74.23510296 -13.44280243 73.48689842 C-8.56214819 17.12429638 -8.56214819 17.12429638 0 0 Z " fill="#000000" transform="translate(32,202)"/>
<path d="M0 0 C-1.34154168 3.97629296 -3.00086609 6.37649586 -5.96484375 9.328125 C-6.75963135 10.12379883 -7.55441895 10.91947266 -8.37329102 11.73925781 C-9.21947998 12.56780273 -10.06566895 13.39634766 -10.9375 14.25 C-11.79980225 15.10174805 -12.66210449 15.95349609 -13.55053711 16.83105469 C-19.44043238 22.59862435 -25.36778022 28.08845465 -32 33 C-32.75410156 33.57105469 -33.50820313 34.14210938 -34.28515625 34.73046875 C-67.51163133 58.97081868 -108.76673845 69.60180053 -148.05142212 79.668396 C-151.61456098 80.58545389 -151.61456098 80.58545389 -155 82 C-154.01 82.66 -153.02 83.32 -152 84 C-152 84.99 -152 85.98 -152 87 C-155.91211733 85.84414715 -158.8745041 84.64465038 -162 82 C-161.38479725 78.00118212 -159.39731331 75.19641774 -157 72 C-156.34 72 -155.68 72 -155 72 C-155.33 73.65 -155.66 75.3 -156 77 C-146.9810277 75.41625418 -138.18869725 73.00996142 -129.375 70.5625 C-128.59187439 70.34513184 -127.80874878 70.12776367 -127.00189209 69.90380859 C-80.7695051 57.00033266 -35.61696604 40.00299847 -4.515625 1.4765625 C-3 0 -3 0 0 0 Z " fill="#000000" transform="translate(467,455)"/>
<path d="M0 0 C73.3467571 -0.82662145 73.3467571 -0.82662145 97 11 C97 9.02 97 7.04 97 5 C97.99 5 98.98 5 100 5 C102 12.625 102 12.625 102 16 C97.73383684 17.13764351 94.43513689 18 90 18 C90 17.01 90 16.02 90 15 C91.32 14.67 92.64 14.34 94 14 C65.67723238 1.26153035 30.40371548 3.60551441 0 3 C0 2.01 0 1.02 0 0 Z " fill="#000000" transform="translate(286,288)"/>
<path d="M0 0 C1.31626692 3.61973402 2 6.09567131 2 10 C-1 9 -1 9 -3 6 C-3.27038086 6.53665283 -3.54076172 7.07330566 -3.81933594 7.6262207 C-13.02480399 25.79602447 -23.00205652 43.25207839 -36 59 C-37.12341797 60.37091797 -37.12341797 60.37091797 -38.26953125 61.76953125 C-43.04157482 67.34387986 -48.29517502 72.79233762 -55 76 C-57.29296875 75.67578125 -57.29296875 75.67578125 -59 75 C-56.93712783 72.83588257 -54.81708539 71.09350453 -52.375 69.375 C-30.95748117 53.34111978 -18.40039873 27.01740191 -6 4 C-7.98 4 -9.96 4 -12 4 C-11.67 3.01 -11.34 2.02 -11 1 C-6.95637513 -0.8380113 -4.26550147 -1.25455926 0 0 Z " fill="#000000" transform="translate(593,213)"/>
<path d="M0 0 C0.99 0 1.98 0 3 0 C3 3.3 3 6.6 3 10 C3.66 10 4.32 10 5 10 C5 10.99 5 11.98 5 13 C4.34 13 3.68 13 3 13 C3 13.99 3 14.98 3 16 C2.01 16 1.02 16 0 16 C0 15.01 0 14.02 0 13 C-2.31 13 -4.62 13 -7 13 C-5.68122033 8.0845485 -3.62482608 3.63558224 0 0 Z M-1 6 C-1.66 7.32 -2.32 8.64 -3 10 C-2.01 10 -1.02 10 0 10 C-0.33 8.68 -0.66 7.36 -1 6 Z " fill="#000000" transform="translate(345,272)"/>
<path d="M0 0 C2.64 0 5.28 0 8 0 C8 0.66 8 1.32 8 2 C6.02 2 4.04 2 2 2 C2 2.99 2 3.98 2 5 C4.97 5.495 4.97 5.495 8 6 C8.33 8.31 8.66 10.62 9 13 C7.3125 14.5625 7.3125 14.5625 5 16 C2.25 15.6875 2.25 15.6875 0 15 C-0.33 13.68 -0.66 12.36 -1 11 C1.97 11.495 1.97 11.495 5 12 C5.33 10.68 5.66 9.36 6 8 C3.69 8 1.38 8 -1 8 C-0.67 5.36 -0.34 2.72 0 0 Z " fill="#000000" transform="translate(562,229)"/>
<path d="M0 0 C1.77201559 1.77201559 1 4.60574059 1 7 C1.226875 7.886875 1.45375 8.77375 1.6875 9.6875 C2 12 2 12 1 13.875 C-2.10259257 15.62020832 -4.6273707 14.69997967 -8 14 C-8.33 12.68 -8.66 11.36 -9 10 C-8.01 10 -7.02 10 -6 10 C-6 10.66 -6 11.32 -6 12 C-4.35 12 -2.7 12 -1 12 C-1.33 11.01 -1.66 10.02 -2 9 C-2.99 8.67 -3.98 8.34 -5 8 C-5 7.34 -5 6.68 -5 6 C-3.68 5.67 -2.36 5.34 -1 5 C-1.33 4.34 -1.66 3.68 -2 3 C-3.98 3.33 -5.96 3.66 -8 4 C-7.625 2.0625 -7.625 2.0625 -7 0 C-4.31633121 -1.3418344 -2.84719317 -0.73004953 0 0 Z " fill="#000000" transform="translate(443,507)"/>
<path d="M0 0 C3.0625 0.1875 3.0625 0.1875 5.0625 2.1875 C4.90004442 5.92397845 4.47466356 7.71288742 2 10.5625 C1.360625 11.09875 0.72125 11.635 0.0625 12.1875 C1.7125 12.5175 3.3625 12.8475 5.0625 13.1875 C5.0625 13.8475 5.0625 14.5075 5.0625 15.1875 C1.7625 15.1875 -1.5375 15.1875 -4.9375 15.1875 C-2.9375 11.1875 -2.9375 11.1875 -0.8125 8.625 C1.36735538 6.30372611 1.36735538 6.30372611 1.0625 3.1875 C0.4025 3.1875 -0.2575 3.1875 -0.9375 3.1875 C-1.2675 3.8475 -1.5975 4.5075 -1.9375 5.1875 C-2.9275 5.1875 -3.9175 5.1875 -4.9375 5.1875 C-3.82120474 0.24390669 -3.82120474 0.24390669 0 0 Z " fill="#000000" transform="translate(533.9375,25.8125)"/>
<path d="M0 0 C0 5.28 0 10.56 0 16 C-0.99 16 -1.98 16 -3 16 C-3.33 12.37 -3.66 8.74 -4 5 C-4.66 5 -5.32 5 -6 5 C-6 4.01 -6 3.02 -6 2 C-3 0 -3 0 0 0 Z " fill="#000000" transform="translate(427,506)"/>
<path d="M0 0 C0 5.28 0 10.56 0 16 C-0.99 16 -1.98 16 -3 16 C-3.33 12.37 -3.66 8.74 -4 5 C-4.66 5 -5.32 5 -6 5 C-6 4.01 -6 3.02 -6 2 C-3 0 -3 0 0 0 Z " fill="#000000" transform="translate(331,272)"/>
<path d="M0 0 C0 4.95 0 9.9 0 15 C-0.99 15 -1.98 15 -3 15 C-3 11.37 -3 7.74 -3 4 C-3.99 4.33 -4.98 4.66 -6 5 C-5.625 3.0625 -5.625 3.0625 -5 1 C-3 0 -3 0 0 0 Z " fill="#000000" transform="translate(7,360)"/>
<path d="M0 0 C0 4.95 0 9.9 0 15 C-0.99 15 -1.98 15 -3 15 C-3 11.37 -3 7.74 -3 4 C-3.99 4.33 -4.98 4.66 -6 5 C-5.625 3.0625 -5.625 3.0625 -5 1 C-3 0 -3 0 0 0 Z " fill="#000000" transform="translate(553,229)"/>
<path d="M0 0 C0 4.95 0 9.9 0 15 C-0.99 15 -1.98 15 -3 15 C-3 11.37 -3 7.74 -3 4 C-3.99 4.33 -4.98 4.66 -6 5 C-5.625 3.0625 -5.625 3.0625 -5 1 C-3 0 -3 0 0 0 Z " fill="#000000" transform="translate(521,26)"/>
<path d="M0 0 C0.99 0.33 1.98 0.66 3 1 C2.52433594 1.79664063 2.52433594 1.79664063 2.0390625 2.609375 C0.7629651 5.54535848 0.58292979 8.06174329 0.375 11.25 C0.30023438 12.32765625 0.22546875 13.4053125 0.1484375 14.515625 C0.09945312 15.33546875 0.05046875 16.1553125 0 17 C-0.99 17 -1.98 17 -3 17 C-3.55353075 5.47835991 -3.55353075 5.47835991 0 0 Z " fill="#000000" transform="translate(145,355)"/>
<path d="M0 0 C0.99 0.33 1.98 0.66 3 1 C2.67 2.32 2.34 3.64 2 5 C2.99 5.33 3.98 5.66 5 6 C4.67 6.99 4.34 7.98 4 9 C3.34 8.67 2.68 8.34 2 8 C2 9.65 2 11.3 2 13 C1.01 13 0.02 13 -1 13 C-1.2236337 11.58566794 -1.42826476 10.16832382 -1.625 8.75 C-1.74101562 7.96109375 -1.85703125 7.1721875 -1.9765625 6.359375 C-2.00319395 3.67847541 -1.36592084 2.27305911 0 0 Z " fill="#000000" transform="translate(144,419)"/>
<path d="M0 0 C0.99 0.33 1.98 0.66 3 1 C1.6062718 5.43458973 -0.60582235 7.87378374 -4 11 C-5 8 -5 8 -4.00390625 5.95703125 C-3.52824219 5.24933594 -3.05257812 4.54164063 -2.5625 3.8125 C-2.08941406 3.09707031 -1.61632812 2.38164062 -1.12890625 1.64453125 C-0.75636719 1.10183594 -0.38382813 0.55914062 0 0 Z " fill="#000000" transform="translate(610,312)"/>
<path d="M0 0 C4.66154042 1.49835228 5.86610751 4.88463591 8 9 C6.68 9 5.36 9 4 9 C2.515625 7.25 2.515625 7.25 1.25 5 C0.82203125 4.2575 0.3940625 3.515 -0.046875 2.75 C-0.36140625 2.1725 -0.6759375 1.595 -1 1 C-0.67 0.67 -0.34 0.34 0 0 Z " fill="#000000" transform="translate(446,94)"/>
<path d="M0 0 C-1.49835228 4.66154042 -4.88463591 5.86610751 -9 8 C-9 6.68 -9 5.36 -9 4 C-4 0 -4 0 0 0 Z " fill="#000000" transform="translate(185,375)"/>
<path d="M0 0 C3.63 0 7.26 0 11 0 C11 0.99 11 1.98 11 3 C7.37 3 3.74 3 0 3 C0 2.01 0 1.02 0 0 Z " fill="#000000" transform="translate(372,365)"/>
<path d="M0 0 C3.96 0.33 7.92 0.66 12 1 C11.67 1.99 11.34 2.98 11 4 C7.37 3.67 3.74 3.34 0 3 C0 2.01 0 1.02 0 0 Z " fill="#000000" transform="translate(309,359)"/>
<path d="M0 0 C0 0.99 0 1.98 0 3 C-4.95 4.485 -4.95 4.485 -10 6 C-10.33 5.01 -10.66 4.02 -11 3 C-4.5 0 -4.5 0 0 0 Z " fill="#000000" transform="translate(220,357)"/>
<path d="M0 0 C0 0.99 0 1.98 0 3 C-3.3 3.66 -6.6 4.32 -10 5 C-10 3.68 -10 2.36 -10 1 C-6.61981469 -0.04005702 -3.5219721 -0.08004482 0 0 Z " fill="#000000" transform="translate(239,352)"/>
<path d="M0 0 C0.99 0.33 1.98 0.66 3 1 C3 1.66 3 2.32 3 3 C1.3203125 4.2890625 1.3203125 4.2890625 -0.875 5.625 C-1.95394531 6.29402344 -1.95394531 6.29402344 -3.0546875 6.9765625 C-5 8 -5 8 -7 8 C-6.875 6.25 -6.875 6.25 -6 4 C-3.125 1.6875 -3.125 1.6875 0 0 Z " fill="#000000" transform="translate(582,342)"/>
<path d="M0 0 C0.99 0.33 1.98 0.66 3 1 C1.47291037 4.43595166 -0.59927045 7.11912454 -3 10 C-3.99 9.67 -4.98 9.34 -6 9 C-4.16172132 5.84866512 -2.24027294 2.88035092 0 0 Z " fill="#000000" transform="translate(182,310)"/>
<path d="M0 0 C2.34191563 2.1290142 3.83554954 4.04408729 5 7 C5 8.32 5 9.64 5 11 C4.01 11 3.02 11 2 11 C-1.07692308 4.6 -1.07692308 4.6 -0.6875 1.5625 C-0.460625 1.046875 -0.23375 0.53125 0 0 Z " fill="#000000" transform="translate(458,111)"/>
<path d="M0 0 C0 0.99 0 1.98 0 3 C-1.28913487 3.67154933 -2.58140204 4.33708859 -3.875 5 C-4.59429687 5.37125 -5.31359375 5.7425 -6.0546875 6.125 C-8 7 -8 7 -10 7 C-9.875 5.1875 -9.875 5.1875 -9 3 C-5.79116175 1.04679411 -3.7794561 0 0 0 Z " fill="#000000" transform="translate(365,69)"/>
<path d="M0 0 C0.99 0 1.98 0 3 0 C3 3.63 3 7.26 3 11 C2.01 11 1.02 11 0 11 C0 7.37 0 3.74 0 0 Z " fill="#000000" transform="translate(146,600)"/>
<path d="M0 0 C0.99 0 1.98 0 3 0 C3 3.63 3 7.26 3 11 C2.01 11 1.02 11 0 11 C0 7.37 0 3.74 0 0 Z " fill="#000000" transform="translate(146,580)"/>
<path d="M0 0 C0.99 0 1.98 0 3 0 C3 3.63 3 7.26 3 11 C2.01 11 1.02 11 0 11 C0 7.37 0 3.74 0 0 Z " fill="#000000" transform="translate(145,540)"/>
<path d="M0 0 C0.99 0 1.98 0 3 0 C3 3.63 3 7.26 3 11 C2.01 11 1.02 11 0 11 C0 7.37 0 3.74 0 0 Z " fill="#000000" transform="translate(144,461)"/>
<path d="M0 0 C0 0.99 0 1.98 0 3 C-4.95 4.485 -4.95 4.485 -10 6 C-10 4.68 -10 3.36 -10 2 C-3.375 0 -3.375 0 0 0 Z " fill="#000000" transform="translate(345,446)"/>
<path d="M0 0 C0.99 0 1.98 0 3 0 C3 3.63 3 7.26 3 11 C2.01 11 1.02 11 0 11 C0 7.37 0 3.74 0 0 Z " fill="#000000" transform="translate(143,401)"/>
<path d="M0 0 C3.63 0 7.26 0 11 0 C11 0.99 11 1.98 11 3 C7.37 3 3.74 3 0 3 C0 2.01 0 1.02 0 0 Z " fill="#000000" transform="translate(476,366)"/>
<path d="M0 0 C3.63 0 7.26 0 11 0 C11 0.99 11 1.98 11 3 C7.37 3 3.74 3 0 3 C0 2.01 0 1.02 0 0 Z " fill="#000000" transform="translate(455,366)"/>
<path d="M0 0 C3.63 0 7.26 0 11 0 C11 0.99 11 1.98 11 3 C7.37 3 3.74 3 0 3 C0 2.01 0 1.02 0 0 Z " fill="#000000" transform="translate(434,366)"/>
<path d="M0 0 C3.63 0 7.26 0 11 0 C11 0.99 11 1.98 11 3 C7.37 3 3.74 3 0 3 C0 2.01 0 1.02 0 0 Z " fill="#000000" transform="translate(413,366)"/>
<path d="M0 0 C3.96 0 7.92 0 12 0 C12 0.99 12 1.98 12 3 C10.56260487 3.02712066 9.12506137 3.04645067 7.6875 3.0625 C6.48673828 3.07990234 6.48673828 3.07990234 5.26171875 3.09765625 C3 3 3 3 0 2 C0 1.34 0 0.68 0 0 Z " fill="#000000" transform="translate(392,366)"/>
<path d="M0 0 C-1.47559669 4.42679007 -3.90057368 4.91432696 -8 7 C-8.66 7 -9.32 7 -10 7 C-9.8125 5.1875 -9.8125 5.1875 -9 3 C-5.65188866 0.46629412 -4.29875783 0 0 0 Z " fill="#000000" transform="translate(202,365)"/>
<path d="M0 0 C0 0.99 0 1.98 0 3 C-2.75078884 3.91692961 -4.35948913 4.10886083 -7.1875 4.0625 C-9.0746875 4.0315625 -9.0746875 4.0315625 -11 4 C-11 3.01 -11 2.02 -11 1 C-3.375 0 -3.375 0 0 0 Z " fill="#000000" transform="translate(528,363)"/>
<path d="M0 0 C0 0.99 0 1.98 0 3 C-3.87684087 4.19287411 -6.91621923 5 -11 5 C-11 4.01 -11 3.02 -11 2 C-3.375 0 -3.375 0 0 0 Z " fill="#000000" transform="translate(548,359)"/>
<path d="M0 0 C-0.21484375 1.890625 -0.21484375 1.890625 -1 4 C-3.06640625 5.046875 -3.06640625 5.046875 -5.5625 5.75 C-6.80193359 6.11351562 -6.80193359 6.11351562 -8.06640625 6.484375 C-9.02353516 6.73960937 -9.02353516 6.73960937 -10 7 C-10.33 6.01 -10.66 5.02 -11 4 C-9.5437455 3.32880451 -8.08492133 2.66318193 -6.625 2 C-5.81289063 1.62875 -5.00078125 1.2575 -4.1640625 0.875 C-2 0 -2 0 0 0 Z " fill="#000000" transform="translate(567,352)"/>
<path d="M0 0 C7.42857143 -0.14285714 7.42857143 -0.14285714 11 1 C11 1.99 11 2.98 11 4 C7.37 3.67 3.74 3.34 0 3 C0 2.01 0 1.02 0 0 Z " fill="#000000" transform="translate(248,350)"/>
<path d="M0 0 C0.99 0 1.98 0 3 0 C3 3.63 3 7.26 3 11 C2.01 11 1.02 11 0 11 C0 7.37 0 3.74 0 0 Z " fill="#000000" transform="translate(142,341)"/>
<path d="M0 0 C0.66 0.33 1.32 0.66 2 1 C1.42647107 4.87132028 -0.48704352 7.08172796 -3 10 C-3.99 9.67 -4.98 9.34 -6 9 C-4.47291037 5.56404834 -2.40072955 2.88087546 0 0 Z " fill="#000000" transform="translate(170,325)"/>
<path d="M0 0 C0.99 0 1.98 0 3 0 C2.34 3.3 1.68 6.6 1 10 C0.01 10.33 -0.98 10.66 -2 11 C-1.125 3.375 -1.125 3.375 0 0 Z " fill="#000000" transform="translate(450,310)"/>
<path d="M0 0 C0.99 0 1.98 0 3 0 C2.85892253 1.45880109 2.71197585 2.91703551 2.5625 4.375 C2.48128906 5.18710937 2.40007812 5.99921875 2.31640625 6.8359375 C2 9 2 9 1 11 C0.01 11 -0.98 11 -2 11 C-1.34 7.37 -0.68 3.74 0 0 Z " fill="#000000" transform="translate(459,271)"/>
<path d="M0 0 C0.99 0 1.98 0 3 0 C3 3.63 3 7.26 3 11 C2.01 11 1.02 11 0 11 C0 7.37 0 3.74 0 0 Z " fill="#000000" transform="translate(140,222)"/>
<path d="M0 0 C0.99 0 1.98 0 3 0 C3 3.63 3 7.26 3 11 C2.01 11 1.02 11 0 11 C0 7.37 0 3.74 0 0 Z " fill="#000000" transform="translate(139,182)"/>
<path d="M0 0 C0.99 0 1.98 0 3 0 C3 3.63 3 7.26 3 11 C2.01 11 1.02 11 0 11 C0 7.37 0 3.74 0 0 Z " fill="#000000" transform="translate(471,171)"/>
<path d="M0 0 C0.99 0 1.98 0 3 0 C3 3.63 3 7.26 3 11 C2.01 11 1.02 11 0 11 C0 7.37 0 3.74 0 0 Z " fill="#000000" transform="translate(139,162)"/>
<path d="M0 0 C0.66 0 1.32 0 2 0 C2.33 3.63 2.66 7.26 3 11 C2.01 11.33 1.02 11.66 0 12 C-0.19401633 10.18818595 -0.38004375 8.37551468 -0.5625 6.5625 C-0.66691406 5.55316406 -0.77132813 4.54382813 -0.87890625 3.50390625 C-0.91886719 2.67761719 -0.95882813 1.85132813 -1 1 C-0.67 0.67 -0.34 0.34 0 0 Z " fill="#000000" transform="translate(470,150)"/>
<path d="M0 0 C0.99 0 1.98 0 3 0 C3 3.63 3 7.26 3 11 C2.01 11 1.02 11 0 11 C0 7.37 0 3.74 0 0 Z " fill="#000000" transform="translate(138,122)"/>
<path d="M0 0 C3.3 0.33 6.6 0.66 10 1 C10.33 2.32 10.66 3.64 11 5 C7.37 4.34 3.74 3.68 0 3 C0 2.01 0 1.02 0 0 Z " fill="#000000" transform="translate(394,64)"/>
<path d="M0 0 C0 0.99 0 1.98 0 3 C-3.63 3.33 -7.26 3.66 -11 4 C-11 3.01 -11 2.02 -11 1 C-7.26562152 0.12132271 -3.83225427 -0.08912219 0 0 Z " fill="#000000" transform="translate(385,64)"/>
<path d="M0 0 C0.99 0 1.98 0 3 0 C3 3.63 3 7.26 3 11 C2.01 10.67 1.02 10.34 0 10 C0 6.7 0 3.4 0 0 Z " fill="#000000" transform="translate(144,481)"/>
<path d="M0 0 C3.3 0 6.6 0 10 0 C10.33 0.99 10.66 1.98 11 3 C7.37 3 3.74 3 0 3 C0 2.01 0 1.02 0 0 Z " fill="#000000" transform="translate(275,455)"/>
<path d="M0 0 C0.66 0.99 1.32 1.98 2 3 C-1.87684087 4.19287411 -4.91621923 5 -9 5 C-9 4.01 -9 3.02 -9 2 C-6.03 1.34 -3.06 0.68 0 0 Z " fill="#000000" transform="translate(324,451)"/>
<path d="M0 0 C3.63 0.33 7.26 0.66 11 1 C10.67 1.99 10.34 2.98 10 4 C6.7 3.67 3.4 3.34 0 3 C0 2.01 0 1.02 0 0 Z " fill="#000000" transform="translate(235,451)"/>
<path d="M0 0 C4.95 0.99 4.95 0.99 10 2 C10.33 2.99 10.66 3.98 11 5 C7.7 4.67 4.4 4.34 1 4 C0.67 2.68 0.34 1.36 0 0 Z " fill="#000000" transform="translate(215,446)"/>
<path d="M0 0 C-0.21484375 1.890625 -0.21484375 1.890625 -1 4 C-3.06640625 5.046875 -3.06640625 5.046875 -5.5625 5.75 C-6.80193359 6.11351562 -6.80193359 6.11351562 -8.06640625 6.484375 C-9.02353516 6.73960937 -9.02353516 6.73960937 -10 7 C-9.71484375 5.109375 -9.71484375 5.109375 -9 3 C-3.10714286 0 -3.10714286 0 0 0 Z " fill="#000000" transform="translate(363,438)"/>
<path d="M0 0 C3.3 0.99 6.6 1.98 10 3 C10 3.99 10 4.98 10 6 C8.54096742 5.69078116 7.08279278 5.37751201 5.625 5.0625 C4.81289062 4.88847656 4.00078125 4.71445312 3.1640625 4.53515625 C1 4 1 4 -1 3 C-0.67 2.01 -0.34 1.02 0 0 Z " fill="#000000" transform="translate(177,435)"/>
<path d="M0 0 C0.53625 0.2475 1.0725 0.495 1.625 0.75 C-0.63240623 3.08524782 -2.6555761 4.93705073 -5.375 6.75 C-6.365 6.75 -7.355 6.75 -8.375 6.75 C-8.375 5.76 -8.375 4.77 -8.375 3.75 C-3.35945596 -0.35362694 -3.35945596 -0.35362694 0 0 Z " fill="#000000" transform="translate(379.375,428.25)"/>
<path d="M0 0 C0.99 0.33 1.98 0.66 3 1 C1.02 3.97 -0.96 6.94 -3 10 C-3.66 9.67 -4.32 9.34 -5 9 C-3.7508258 5.54074837 -2.32472205 2.85306797 0 0 Z " fill="#000000" transform="translate(154,402)"/>
<path d="M0 0 C0.99 0.33 1.98 0.66 3 1 C-0.75 6.75 -0.75 6.75 -3 9 C-3.99 9 -4.98 9 -6 9 C-4.47291037 5.56404834 -2.40072955 2.88087546 0 0 Z " fill="#000000" transform="translate(407,400)"/>
<path d="M0 0 C0.99 0.33 1.98 0.66 3 1 C1.02 3.97 -0.96 6.94 -3 10 C-3.66 9.67 -4.32 9.34 -5 9 C-3.7508258 5.54074837 -2.32472205 2.85306797 0 0 Z " fill="#000000" transform="translate(419,384)"/>
<path d="M0 0 C0.66 0.33 1.32 0.66 2 1 C1.49701212 5.40114397 -0.08772731 7.71195019 -3 11 C-3.66 10.34 -4.32 9.68 -5 9 C-3.35 6.03 -1.7 3.06 0 0 Z " fill="#000000" transform="translate(429,366)"/>
<path d="M0 0 C3.63 0.33 7.26 0.66 11 1 C11 1.99 11 2.98 11 4 C9.741875 4.020625 8.48375 4.04125 7.1875 4.0625 C6.47980469 4.07410156 5.77210938 4.08570313 5.04296875 4.09765625 C3 4 3 4 0 3 C0 2.01 0 1.02 0 0 Z " fill="#000000" transform="translate(330,361)"/>
<path d="M0 0 C3.3 0.33 6.6 0.66 10 1 C10.33 1.99 10.66 2.98 11 4 C3.57142857 4.14285714 3.57142857 4.14285714 0 3 C0 2.01 0 1.02 0 0 Z " fill="#000000" transform="translate(268,353)"/>
<path d="M0 0 C0.66 0.33 1.32 0.66 2 1 C0.64978174 5.41889613 -1.26115668 7.34345343 -5 10 C-5 4.69520066 -3.4637943 3.81017373 0 0 Z " fill="#000000" transform="translate(158,340)"/>
<path d="M0 0 C0.66 0.33 1.32 0.66 2 1 C0.4169423 5.2742558 -2.50568404 7.26531794 -6 10 C-6 6 -6 6 -4.6875 4.296875 C-4.130625 3.78640625 -3.57375 3.2759375 -3 2.75 C-2.1646875 1.96882813 -2.1646875 1.96882813 -1.3125 1.171875 C-0.879375 0.78515625 -0.44625 0.3984375 0 0 Z " fill="#000000" transform="translate(598,328)"/>
<path d="M0 0 C0.99 0.33 1.98 0.66 3 1 C2.01 4.3 1.02 7.6 0 11 C-0.99 11 -1.98 11 -3 11 C-2.01 7.37 -1.02 3.74 0 0 Z " fill="#000000" transform="translate(444,329)"/>
<path d="M0 0 C0.66 0 1.32 0 2 0 C2 3.63 2 7.26 2 11 C1.01 11 0.02 11 -1 11 C-1.02688151 9.35425434 -1.04634123 7.70838587 -1.0625 6.0625 C-1.07410156 5.14597656 -1.08570313 4.22945313 -1.09765625 3.28515625 C-1 1 -1 1 0 0 Z " fill="#000000" transform="translate(142,301)"/>
<path d="M0 0 C0.99 0 1.98 0 3 0 C2.34 3.63 1.68 7.26 1 11 C0.01 10.67 -0.98 10.34 -2 10 C-1.34 6.7 -0.68 3.4 0 0 Z " fill="#000000" transform="translate(455,291)"/>
<path d="M0 0 C0.66 0.33 1.32 0.66 2 1 C0.64978174 5.41889613 -1.26115668 7.34345343 -5 10 C-5 4.69520066 -3.4637943 3.81017373 0 0 Z " fill="#000000" transform="translate(207,280)"/>
<path d="M0 0 C0.99 0 1.98 0 3 0 C2.01 3.3 1.02 6.6 0 10 C-0.99 10 -1.98 10 -3 10 C-2.39009109 6.44219804 -1.4216319 3.3171411 0 0 Z " fill="#000000" transform="translate(628,276)"/>
<path d="M0 0 C0.66 0.33 1.32 0.66 2 1 C1.34 4.3 0.68 7.6 0 11 C-0.99 11 -1.98 11 -3 11 C-2.53199289 6.94393835 -2.12046792 3.53411321 0 0 Z " fill="#000000" transform="translate(635,256)"/>
<path d="M0 0 C0.99 0.33 1.98 0.66 3 1 C0.03 4.96 0.03 4.96 -3 9 C-3.99 8.67 -4.98 8.34 -6 8 C-2.25 2.25 -2.25 2.25 0 0 Z " fill="#000000" transform="translate(231,251)"/>
<path d="M0 0 C0.99 0 1.98 0 3 0 C3 3.63 3 7.26 3 11 C2.01 10.67 1.02 10.34 0 10 C0 6.7 0 3.4 0 0 Z " fill="#000000" transform="translate(140,242)"/>
<path d="M0 0 C0.66 0 1.32 0 2 0 C2.125 7.625 2.125 7.625 1 11 C0.01 11 -0.98 11 -2 11 C-1.85957123 9.35369672 -1.71250671 7.70795821 -1.5625 6.0625 C-1.48128906 5.14597656 -1.40007812 4.22945312 -1.31640625 3.28515625 C-1 1 -1 1 0 0 Z " fill="#000000" transform="translate(466,231)"/>
<path d="M0 0 C0.99 0 1.98 0 3 0 C2.67 3.63 2.34 7.26 2 11 C1.01 11 0.02 11 -1 11 C-0.67 7.37 -0.34 3.74 0 0 Z " fill="#000000" transform="translate(468,211)"/>
<path d="M0 0 C0.99 0 1.98 0 3 0 C2.67 3.63 2.34 7.26 2 11 C1.01 11 0.02 11 -1 11 C-0.67 7.37 -0.34 3.74 0 0 Z " fill="#000000" transform="translate(470,191)"/>
<path d="M0 0 C0.99 0 1.98 0 3 0 C1.8905928 3.48670834 0.73662334 6.77484237 -1 10 C-1.99 9.67 -2.98 9.34 -4 9 C-2.94124926 5.59687262 -1.99097846 2.98646769 0 0 Z " fill="#000000" transform="translate(279,169)"/>
<path d="M0 0 C0.99 0.33 1.98 0.66 3 1 C1.50163895 4.11198065 -0.19933758 7.0534615 -2 10 C-2.99 9.67 -3.98 9.34 -5 9 C-4.3566152 7.686298 -3.71021785 6.37407102 -3.0625 5.0625 C-2.70285156 4.33160156 -2.34320313 3.60070312 -1.97265625 2.84765625 C-1 1 -1 1 0 0 Z " fill="#000000" transform="translate(289,152)"/>
<path d="M0 0 C2.3129482 2.3129482 2.49580975 3.47904875 3.125 6.625 C3.29257812 7.44226563 3.46015625 8.25953125 3.6328125 9.1015625 C3.81457031 10.04128906 3.81457031 10.04128906 4 11 C2.68 10.67 1.36 10.34 0 10 C-0.66 7.03 -1.32 4.06 -2 1 C-1.34 0.67 -0.68 0.34 0 0 Z " fill="#000000" transform="translate(466,130)"/>
<path d="M0 0 C0.99 0.33 1.98 0.66 3 1 C1.63029745 3.95012857 0.17390875 6.5652222 -2 9 C-2.99 9 -3.98 9 -5 9 C-3.7508258 5.54074837 -2.32472205 2.85306797 0 0 Z " fill="#000000" transform="translate(311,123)"/>
<path d="M0 0 C4.41889613 1.35021826 6.34345343 3.26115668 9 7 C3.69520066 7 2.81017373 5.4637943 -1 2 C-0.67 1.34 -0.34 0.68 0 0 Z " fill="#000000" transform="translate(432,80)"/>
<path d="M0 0 C3.48670834 1.1094072 6.77484237 2.26337666 10 4 C10 4.99 10 5.98 10 7 C6.33118845 6.29445932 3.29549466 4.72264494 0 3 C0 2.01 0 1.02 0 0 Z " fill="#000000" transform="translate(414,69)"/>
<path d="M0 0 C0 0.66 0 1.32 0 2 C-2.75078884 2.91692961 -4.35948913 3.10886083 -7.1875 3.0625 C-9.0746875 3.0315625 -9.0746875 3.0315625 -11 3 C-11 2.01 -11 1.02 -11 0 C-9.54263913 -0.19491452 -8.08405407 -0.38069358 -6.625 -0.5625 C-5.81289063 -0.66691406 -5.00078125 -0.77132813 -4.1640625 -0.87890625 C-2 -1 -2 -1 0 0 Z " fill="#000000" transform="translate(306,455)"/>
<path d="M0 0 C1.45792884 -0.05399736 2.91642712 -0.09279177 4.375 -0.125 C5.18710937 -0.14820313 5.99921875 -0.17140625 6.8359375 -0.1953125 C9 0 9 0 11 2 C10 3 10 3 7.71484375 3.09765625 C6.34005859 3.08025391 6.34005859 3.08025391 4.9375 3.0625 C4.01839844 3.05347656 3.09929687 3.04445313 2.15234375 3.03515625 C1.44207031 3.02355469 0.73179687 3.01195312 0 3 C0 2.01 0 1.02 0 0 Z " fill="#000000" transform="translate(255,454)"/>
<path d="M0 0 C3.3 0.99 6.6 1.98 10 3 C10 3.99 10 4.98 10 6 C6.37 5.01 2.74 4.02 -1 3 C-0.67 2.01 -0.34 1.02 0 0 Z " fill="#000000" transform="translate(196,441)"/>
<path d="M0 0 C4.455 0.99 4.455 0.99 9 2 C9 3.32 9 4.64 9 6 C4.05 4.02 4.05 4.02 -1 2 C-0.67 1.34 -0.34 0.68 0 0 Z " fill="#000000" transform="translate(158,429)"/>
<path d="M0 0 C0.99 0.33 1.98 0.66 3 1 C2.07038578 2.15224028 1.1309875 3.29659176 0.1875 4.4375 C-0.59560547 5.39462891 -0.59560547 5.39462891 -1.39453125 6.37109375 C-3 8 -3 8 -6 9 C-5.52797514 4.75177626 -3.03344482 2.80010291 0 0 Z " fill="#000000" transform="translate(167,387)"/>
<path d="M0 0 C0 0.99 0 1.98 0 3 C-3.63 3.33 -7.26 3.66 -11 4 C-11 3.01 -11 2.02 -11 1 C-3.375 0 -3.375 0 0 0 Z " fill="#000000" transform="translate(507,365)"/>
<path d="M0 0 C3.63 0.33 7.26 0.66 11 1 C11 1.99 11 2.98 11 4 C7.37 3.67 3.74 3.34 0 3 C0 2.01 0 1.02 0 0 Z " fill="#000000" transform="translate(351,363)"/>
<path d="M0 0 C1.45880109 0.14107747 2.91703551 0.28802415 4.375 0.4375 C5.59316406 0.55931641 5.59316406 0.55931641 6.8359375 0.68359375 C9 1 9 1 11 2 C10.67 2.99 10.34 3.98 10 5 C6.7 4.34 3.4 3.68 0 3 C0 2.01 0 1.02 0 0 Z " fill="#000000" transform="translate(289,356)"/>
<path d="M0 0 C0.99 0.33 1.98 0.66 3 1 C2.01 3.97 1.02 6.94 0 10 C-0.99 10 -1.98 10 -3 10 C-2.39009109 6.44219804 -1.4216319 3.3171411 0 0 Z " fill="#000000" transform="translate(437,348)"/>
<path d="M0 0 C0.99 0 1.98 0 3 0 C1.8905928 3.48670834 0.73662334 6.77484237 -1 10 C-1.99 10 -2.98 10 -4 10 C-3.29445932 6.33118845 -1.72264494 3.29549466 0 0 Z " fill="#000000" transform="translate(620,295)"/>
<path d="M0 0 C0.99 0 1.98 0 3 0 C2.42647107 3.87132028 0.51295648 6.08172796 -2 9 C-2.99 8.67 -3.98 8.34 -5 8 C-3.38731308 5.28775382 -1.75098126 2.62647188 0 0 Z " fill="#000000" transform="translate(218,266)"/>
<path d="M0 0 C0.66 0 1.32 0 2 0 C2.14285714 7.42857143 2.14285714 7.42857143 1 11 C0.01 11 -0.98 11 -2 11 C-1.85957123 9.35369672 -1.71250671 7.70795821 -1.5625 6.0625 C-1.48128906 5.14597656 -1.40007812 4.22945312 -1.31640625 3.28515625 C-1 1 -1 1 0 0 Z " fill="#000000" transform="translate(463,251)"/>
<path d="M0 0 C0.66 0 1.32 0 2 0 C1.43454163 3.95820859 0.19097652 6.6659053 -2 10 C-2.99 9.34 -3.98 8.68 -5 8 C-4.21718695 6.66144944 -3.42348123 5.32926356 -2.625 4 C-2.18414062 3.2575 -1.74328125 2.515 -1.2890625 1.75 C-0.86367187 1.1725 -0.43828125 0.595 0 0 Z " fill="#000000" transform="translate(252,219)"/>
<path d="M0 0 C0.99 0.33 1.98 0.66 3 1 C2.40844669 2.31823302 1.80128537 3.62947051 1.1875 4.9375 C0.68283203 6.03384766 0.68283203 6.03384766 0.16796875 7.15234375 C-1 9 -1 9 -4 10 C-3.43454163 6.04179141 -2.19097652 3.3340947 0 0 Z " fill="#000000" transform="translate(261,202)"/>
<path d="M0 0 C0.99 0.33 1.98 0.66 3 1 C1.80100302 4.0831351 0.52299523 7.06279492 -1 10 C-1.99 10 -2.98 10 -4 10 C-3.29445932 6.33118845 -1.72264494 3.29549466 0 0 Z " fill="#000000" transform="translate(270,185)"/>
<path d="M0 0 C0.99 0 1.98 0 3 0 C1.7508258 3.45925163 0.32472205 6.14693203 -2 9 C-2.99 8.67 -3.98 8.34 -5 8 C-3.63029745 5.04987143 -2.17390875 2.4347778 0 0 Z " fill="#000000" transform="translate(322,109)"/>
<path d="M0 0 C0.66 0.33 1.32 0.66 2 1 C0.44499019 4.81684226 -2.03595495 7.19195732 -5 10 C-5.66 9.01 -6.32 8.02 -7 7 C-4.69 4.69 -2.38 2.38 0 0 Z " fill="#000000" transform="translate(346,79)"/>
<path d="M0 0 C0.99 0 1.98 0 3 0 C3 3.3 3 6.6 3 10 C2.01 10 1.02 10 0 10 C0 6.7 0 3.4 0 0 Z " fill="#000000" transform="translate(145,521)"/>
<path d="M0 0 C-1.44126786 3.36295835 -3.20592655 5.62927102 -6 8 C-6.99 8 -7.98 8 -9 8 C-7.13554727 3.64961029 -5.02378599 0 0 0 Z " fill="#000000" transform="translate(396,415)"/>
<path d="M0 0 C0.99 0 1.98 0 3 0 C1.44499019 3.81684226 -1.03595495 6.19195732 -4 9 C-4 4.32165993 -3.1782099 3.2690159 0 0 Z " fill="#000000" transform="translate(194,296)"/>
<path d="M0 0 C0.99 0 1.98 0 3 0 C3 3.3 3 6.6 3 10 C2.01 10 1.02 10 0 10 C0 6.7 0 3.4 0 0 Z " fill="#000000" transform="translate(141,282)"/>
<path d="M0 0 C0.66 0.33 1.32 0.66 2 1 C1.42676569 4.86933162 -0.38953552 7.15222057 -3 10 C-3.66 10 -4.32 10 -5 10 C-4.38545304 6.00544473 -2.29353263 3.25533664 0 0 Z " fill="#000000" transform="translate(243,235)"/>
<path d="M0 0 C0.99 0.33 1.98 0.66 3 1 C1.35 3.64 -0.3 6.28 -2 9 C-2.99 8.67 -3.98 8.34 -5 8 C-3.62845496 5.04590299 -2.01136276 2.55991624 0 0 Z " fill="#000000" transform="translate(300,138)"/>
<path d="M0 0 C0.99 0.33 1.98 0.66 3 1 C1.62845496 3.95409701 0.01136276 6.44008376 -2 9 C-2.99 8.67 -3.98 8.34 -5 8 C-3.35 5.36 -1.7 2.72 0 0 Z " fill="#000000" transform="translate(333,94)"/>
<path d="M0 0 C0.99 0 1.98 0 3 0 C3 3.63 3 7.26 3 11 C2.34 11 1.68 11 1 11 C-0.17571451 7.32589215 -0.07366746 3.83070817 0 0 Z " fill="#000000" transform="translate(146,620)"/>
<path d="M0 0 C0.66 0 1.32 0 2 0 C2.33 3.63 2.66 7.26 3 11 C2.01 11 1.02 11 0 11 C0 7.37 0 3.74 0 0 Z " fill="#000000" transform="translate(139,142)"/>
<path d="M0 0 C0.66 0 1.32 0 2 0 C2 3.63 2 7.26 2 11 C1.34 11 0.68 11 0 11 C-0.19406478 9.35492782 -0.38007935 7.70890406 -0.5625 6.0625 C-0.66691406 5.14597656 -0.77132812 4.22945312 -0.87890625 3.28515625 C-0.91886719 2.53105469 -0.95882812 1.77695312 -1 1 C-0.67 0.67 -0.34 0.34 0 0 Z " fill="#000000" transform="translate(146,560)"/>
<path d="M0 0 C0.99 0 1.98 0 3 0 C3.33 3.63 3.66 7.26 4 11 C3.01 11 2.02 11 1 11 C0.67 7.37 0.34 3.74 0 0 Z " fill="#000000" transform="translate(142,381)"/>
<path d="M0 0 C0.66 0 1.32 0 2 0 C2.33 3.3 2.66 6.6 3 10 C2.01 10.33 1.02 10.66 0 11 C0 7.37 0 3.74 0 0 Z " fill="#000000" transform="translate(140,202)"/>
<path d="M0 0 C0.99 0 1.98 0 3 0 C3 3.63 3 7.26 3 11 C2.34 11 1.68 11 1 11 C0.67 7.37 0.34 3.74 0 0 Z " fill="#000000" transform="translate(143,441)"/>
<path d="M0 0 C0.66 0 1.32 0 2 0 C2.33 3.63 2.66 7.26 3 11 C2.01 11 1.02 11 0 11 C-0.19406478 9.35492782 -0.38007935 7.70890406 -0.5625 6.0625 C-0.66691406 5.14597656 -0.77132812 4.22945313 -0.87890625 3.28515625 C-0.91886719 2.53105469 -0.95882812 1.77695312 -1 1 C-0.67 0.67 -0.34 0.34 0 0 Z " fill="#000000" transform="translate(142,321)"/>
<path d="M0 0 C0.99 0 1.98 0 3 0 C3 3.3 3 6.6 3 10 C2.34 10 1.68 10 1 10 C0.67 6.7 0.34 3.4 0 0 Z " fill="#000000" transform="translate(144,501)"/>
<path d="M0 0 C0.66 0 1.32 0 2 0 C2.33 3.3 2.66 6.6 3 10 C2.01 10.33 1.02 10.66 0 11 C0 7.37 0 3.74 0 0 Z " fill="#000000" transform="translate(141,262)"/>
<path d="M0 0 C0.99 0 1.98 0 3 0 C3 1.98 3 3.96 3 6 C2.01 6 1.02 6 0 6 C0 4.02 0 2.04 0 0 Z " fill="#000000" transform="translate(147,640)"/>
<path d="M0 0 C0.99 0.33 1.98 0.66 3 1 C2.67 2.98 2.34 4.96 2 7 C1.01 6.67 0.02 6.34 -1 6 C-0.67 4.02 -0.34 2.04 0 0 Z " fill="#000000" transform="translate(638,241)"/>
<path d="M0 0 C1.32 0 2.64 0 4 0 C3.67 0.99 3.34 1.98 3 3 C2.01 2.67 1.02 2.34 0 2 C0 1.34 0 0.68 0 0 Z " fill="#000000" transform="translate(429,519)"/>
<path d="M0 0 C1.32 0 2.64 0 4 0 C3.67 0.99 3.34 1.98 3 3 C2.01 2.67 1.02 2.34 0 2 C0 1.34 0 0.68 0 0 Z " fill="#000000" transform="translate(333,285)"/>
<path d="M0 0 C0.99 0.33 1.98 0.66 3 1 C2.67 1.99 2.34 2.98 2 4 C1.01 3.01 0.02 2.02 -1 1 C-0.67 0.67 -0.34 0.34 0 0 Z " fill="#000000" transform="translate(556,241)"/>
<path d="M0 0 C0.99 0.33 1.98 0.66 3 1 C2.67 1.99 2.34 2.98 2 4 C1.01 3.01 0.02 2.02 -1 1 C-0.67 0.67 -0.34 0.34 0 0 Z " fill="#000000" transform="translate(524,38)"/>
</svg>
