<?xml version="1.0" encoding="UTF-8"?>
<svg version="1.1" xmlns="http://www.w3.org/2000/svg" width="431" height="707">
<path d="M0 0 C6.23571566 5.08420635 11.95380498 11.03237007 14 19 C13.56738281 21.54418945 13.56738281 21.54418945 12.703125 24.17578125 C11.08673908 29.55416638 10.14043388 34.73989985 9.5 40.3125 C9.37890869 41.35768799 9.25781738 42.40287598 9.13305664 43.47973633 C5.12136757 80.47872059 4.12586663 117.82707955 3 155 C2.9720636 155.92113586 2.9441272 156.84227173 2.91534424 157.7913208 C2.37807727 175.75631483 2.03866472 193.72327738 1.7856617 211.69433784 C1.75397741 213.94026824 1.72182147 216.18619147 1.68955994 218.43211365 C1.5934402 225.15365691 1.49954063 231.87517831 1.41892147 238.59692764 C1.38459209 241.39112925 1.34648685 244.18527121 1.30755424 246.97941208 C1.28175194 248.92695771 1.26095115 250.87456755 1.24024963 252.82217407 C1.21510536 254.57296768 1.21510536 254.57296768 1.18945312 256.35913086 C1.17692505 257.38050644 1.16439697 258.40188202 1.15148926 259.45420837 C1 262 1 262 0 265 C0.58265625 265.01417969 1.1653125 265.02835937 1.765625 265.04296875 C9.27773942 265.47999427 15.25624123 267.76333382 22 271 C23.00804687 271.48339844 24.01609375 271.96679688 25.0546875 272.46484375 C50.27000992 285.32402937 70.82357694 305.79489243 90.6875 325.5625 C91.34669434 326.21702148 92.00588867 326.87154297 92.68505859 327.54589844 C96.34093105 331.21405478 99.75009276 334.96713231 103 339 C137.50573231 319.68164987 160.4299666 260.42276229 171.6875 224.6875 C173.41110473 219.60475321 175.2102764 217.11643578 180.03515625 214.69921875 C192.17863029 210.37778365 204.51257403 213.04855375 215.8359375 218.3203125 C225.61991452 223.33562845 236.92799712 230.85599424 242 241 C242.68315384 248.81456497 241.3559119 256.45447277 240 264.125 C239.67104736 265.99961914 239.67104736 265.99961914 239.33544922 267.91210938 C231.98266344 308.7243731 220.72408243 350.84897425 192 382 C191.18789063 382.88300781 190.37578125 383.76601563 189.5390625 384.67578125 C175.40533346 399.38126308 158.21083104 409.22281708 140 418 C138.66536289 418.66405272 137.33138404 419.32944891 136 420 C136.70125 420.53367187 137.4025 421.06734375 138.125 421.6171875 C166.94368089 444.2492494 172.12608712 480.55263794 176.45703125 514.9375 C181.17160114 556.72006385 181.31280833 618.65514145 154.5 654.125 C153.35813841 655.43864607 152.19257627 656.73221622 151 658 C150.46890625 658.6084375 149.9378125 659.216875 149.390625 659.84375 C122.74339262 688.77503087 69.80583531 693.46322191 33 695 C31.46088622 695.13483257 29.92182692 695.27028799 28.3828125 695.40625 C14.08499457 696.3809086 4.25868881 691.97652554 -8 685 C-8.92135742 684.49178711 -9.84271484 683.98357422 -10.79199219 683.45996094 C-23.68141528 676.33580348 -35.67026393 668.41320199 -47 659 C-47.81331787 658.32541748 -47.81331787 658.32541748 -48.64306641 657.63720703 C-55.62935668 651.75928648 -61.49058536 645.2652777 -67 638 C-67.59296875 637.22269531 -68.1859375 636.44539062 -68.796875 635.64453125 C-79.3914751 621.13770497 -86.05940201 605.24069552 -92.57519531 588.60400391 C-93.98470892 585.03867837 -95.43562492 581.49296842 -96.8984375 577.94921875 C-117.06217317 528.70963695 -122.59908118 474.53103958 -128.25 422 C-128.37496857 420.84260315 -128.49993713 419.6852063 -128.62869263 418.49273682 C-129.46763471 410.66627841 -130.2540041 402.83584442 -131 395 C-131.10204742 393.95078369 -131.20409485 392.90156738 -131.30923462 391.82055664 C-132.99473752 374.10619779 -133.29009054 356.46718559 -133.198246 338.69002914 C-133.18727534 336.4542137 -133.17931843 334.21840535 -133.17221069 331.98257446 C-133.1452769 323.69183863 -133.10204188 315.40134637 -133.04191494 307.11078548 C-133.01111741 302.82695301 -132.98868994 298.54319233 -132.97363281 294.25927734 C-132.8101882 254.18309548 -130.00425609 214.23218039 -127.16113281 174.27362061 C-127.00694843 172.09804399 -126.85462844 169.92234682 -126.703125 167.74658203 C-117.09762356 29.96309458 -117.09762356 29.96309458 -94.3125 8.3125 C-70.76300532 -11.15508227 -25.85476979 -18.39745109 0 0 Z M-94 16 C-104.45048852 28.45311517 -106.14094467 43.25282434 -108.4375 58.8125 C-108.74188102 60.83742395 -109.04640825 62.86232593 -109.35107422 64.88720703 C-110.11275021 69.98331915 -110.85606597 75.08191617 -111.59185791 80.18182373 C-111.96413845 82.75237993 -112.34280965 85.3218841 -112.72412109 87.89111328 C-117.47230116 120.08747946 -119.72102709 152.55356435 -122 185 C-122.04902214 185.69703789 -122.09804428 186.39407578 -122.14855194 187.11223602 C-124.61026749 222.19279107 -126.72621537 257.25060493 -126.97137451 292.42730713 C-126.9977006 295.71301617 -127.03175364 298.99851416 -127.06889725 302.28411198 C-127.48822277 339.42776566 -127.81453376 376.3012003 -123.3293457 413.23919678 C-122.85221589 417.23882852 -122.41141008 421.24231804 -121.9670105 425.24569702 C-114.05655363 500.7577023 -114.05655363 500.7577023 -92.21289062 573.05419922 C-90.82017886 576.43673951 -89.49233779 579.84274483 -88.171875 583.25390625 C-71.4001073 626.44573318 -47.94487618 656.97134221 -6.25292969 678.78564453 C-3.99435929 680.00304041 -1.80082961 681.30006404 0.3984375 682.62109375 C12.16813819 689.46148066 21.61612442 690.13553819 35 689 C36.75183594 688.87455811 36.75183594 688.87455811 38.5390625 688.74658203 C74.08353584 686.16629612 120.81760133 681.45395004 147 654 C161.78059839 636.14160146 166.61797163 608.32491481 170 586 C170.11714355 585.23961426 170.23428711 584.47922852 170.35498047 583.69580078 C176.69488473 540.20198505 174.83945171 478.29098586 149.12890625 441.30859375 C142.37882714 432.41261424 133.83353747 424.40420701 124 419 C123.34 419 122.68 419 122 419 C122 418.34 122 417.68 122 417 C122.54962402 416.89695557 123.09924805 416.79391113 123.66552734 416.68774414 C129.32651946 415.54073393 134.37615536 413.82880243 139.625 411.4375 C140.40061279 411.08671387 141.17622559 410.73592773 141.9753418 410.37451172 C166.11266822 399.20535321 189.56225192 381.31086838 203 358 C203.42974121 357.25830566 203.85948242 356.51661133 204.30224609 355.75244141 C219.70018833 328.72934879 227.29272356 299.23905608 232.9375 268.875 C233.09324493 268.04436035 233.24898987 267.2137207 233.40945435 266.35791016 C233.85400204 263.96676667 234.28682048 261.57383883 234.71484375 259.1796875 C234.91114883 258.11861282 234.91114883 258.11861282 235.11141968 257.03610229 C236.69515082 248.66072953 236.69515082 248.66072953 234.75 240.71484375 C233.88375 239.83505859 233.88375 239.83505859 233 238.9375 C232.34902344 238.27621094 231.69804687 237.61492187 231.02734375 236.93359375 C230.35832031 236.29550781 229.68929688 235.65742188 229 235 C228.44441406 234.41347656 227.88882812 233.82695312 227.31640625 233.22265625 C218.78102002 224.83934817 206.16645764 218.93467543 194.25 218.6875 C193.07953125 218.65011719 191.9090625 218.61273438 190.703125 218.57421875 C186.10458584 219.10295374 182.61565447 220.03067756 179 223 C177.16452359 225.91168906 176.20561503 228.97636858 175.1875 232.25 C174.52683993 234.15879532 173.85855483 236.0649646 173.18359375 237.96875 C172.65934814 239.45761719 172.65934814 239.45761719 172.12451172 240.9765625 C169.0840936 249.15123423 165.1921204 256.9968394 161.47070312 264.87792969 C159.97145041 268.06060626 158.49309524 271.25247427 157.015625 274.4453125 C148.70421481 292.25971358 139.5070326 308.79074504 127 324 C126.53480957 324.57733887 126.06961914 325.15467773 125.59033203 325.74951172 C110.74347691 344.12826155 110.74347691 344.12826155 101 349 C100.76990234 348.28884033 100.53980469 347.57768066 100.30273438 346.8449707 C98.7311399 343.41285105 96.74179658 341.23055439 94.15625 338.48046875 C93.67176392 337.96316696 93.18727783 337.44586517 92.68811035 336.91288757 C87.58063873 331.48984586 82.36105101 326.17493959 77.09326172 320.90795898 C75.49546107 319.30795481 73.90588449 317.70006385 72.31640625 316.09179688 C65.85744626 309.59808388 59.19289026 303.68293238 52 298 C50.41489388 296.68964154 48.83130759 295.37743992 47.25 294.0625 C36.31301971 285.38893901 24.92369003 278.32063028 12 273 C11.09378906 272.608125 10.18757812 272.21625 9.25390625 271.8125 C6.07268346 271.01814905 3.55773138 270.91795307 0.29663086 270.94921875 C-0.69494522 270.95655029 -1.6865213 270.96388184 -2.70814514 270.97143555 C-3.46445724 270.98086182 -4.22076935 270.99028809 -5 271 C-2.59905691 63.7998071 -2.59905691 63.7998071 6.546875 23.8984375 C7.17390875 19.88758366 6.74269356 17.32190111 4.7578125 13.7890625 C-2.4818088 4.19396633 -12.0781787 -1.21059516 -23.765625 -3.5546875 C-46.23812721 -6.64872766 -77.45022769 -0.54977231 -94 16 Z " fill="#000000" transform="translate(177,10)"/>
<path d="M0 0 C6.517904 4.68956663 12.55343845 10.81246164 14 19 C14.7992898 30.25557271 13.99078008 38.31915226 6.75 47.25 C2.45124584 51.88156093 -2.65002091 55.89365156 -9 57 C-11.08234592 57.06743348 -13.16668557 57.08514472 -15.25 57.0625 C-16.32765625 57.05347656 -17.4053125 57.04445312 -18.515625 57.03515625 C-19.33546875 57.02355469 -20.1553125 57.01195312 -21 57 C-21.33 59.97 -21.66 62.94 -22 66 C-22.99 66 -23.98 66 -25 66 C-24.67 62.7 -24.34 59.4 -24 56 C-24.825 55.95875 -25.65 55.9175 -26.5 55.875 C-33.88541769 54.02864558 -39.75138353 48.16777345 -44 42 C-48.15815386 34.23811279 -48.421544 24.82156113 -46.34375 16.3125 C-42.89898422 7.75997805 -36.27701855 0.97638211 -28 -3 C-19.23447434 -5.98563756 -7.6962579 -5.12579848 0 0 Z " fill="#000000" transform="translate(147,41)"/>
<path d="M0 0 C0.65436035 0.33249756 1.3087207 0.66499512 1.98291016 1.00756836 C21.09221983 10.68638765 40.19740014 17.77746135 61.6875 11 C63.14736328 10.443125 63.14736328 10.443125 64.63671875 9.875 C67 9 67 9 70 9 C73.26007091 23.24340504 73.95639142 36.48671474 71.99879456 50.99234009 C70.49125086 62.16349751 69.56922674 73.3202151 68.97265625 84.5703125 C68.93423615 85.28374628 68.89581604 85.99718006 68.85623169 86.73223305 C68.50088078 93.35930754 68.16474798 99.98728021 67.84594727 106.61621094 C67.66809722 110.29630969 67.47432346 113.97531179 67.27142143 117.65410995 C67.1643947 119.67767575 67.07488455 121.70214484 66.98609924 123.72659302 C66.2721822 136.55474013 64.15153956 153.68782689 54.02734375 162.76953125 C50.89783058 164.66894676 48.57966484 164.43960796 45 164 C23.64236304 150.04054136 15.77326788 94.31258912 11 71.5625 C8.53466327 59.38742338 6.34895254 47.15513656 4.17773438 34.92477417 C3.81245495 32.8680001 3.44498108 30.81161441 3.07519531 28.75564575 C2.55395832 25.84513884 2.04480646 22.9327656 1.5390625 20.01953125 C1.38313629 19.15700745 1.22721008 18.29448364 1.06655884 17.40582275 C0.07009167 11.55822183 -0.17474523 5.92709602 0 0 Z M7 11 C7.57343807 18.74611424 8.6325499 26.3014267 10.0390625 33.9375 C10.24033249 35.04733246 10.44160248 36.15716492 10.64897156 37.30062866 C11.29990132 40.86856461 11.96060209 44.43454844 12.625 48 C12.85230804 49.2208429 13.07961609 50.44168579 13.31381226 51.69952393 C16.55099443 69.00099351 19.81393176 86.15890186 25 103 C25.23114502 103.75323547 25.46229004 104.50647095 25.70043945 105.28253174 C27.61692616 111.51294517 29.5785814 117.72825913 31.5625 123.9375 C31.836315 124.8000238 32.11013 125.66254761 32.39224243 126.5512085 C37.06625997 143.82131454 37.06625997 143.82131454 47 158 C49.47987426 157.86169932 50.59393769 157.40960355 52.34375 155.64453125 C59.16412606 144.83792188 60.60582961 132.5475911 61.16015625 120.0390625 C61.23528487 118.63674136 61.31210337 117.23450987 61.39048767 115.83236694 C61.59190971 112.16969617 61.77575994 108.50639162 61.95404053 104.8425293 C62.27288096 98.32361503 62.61713623 91.80606922 62.97265625 85.2890625 C63.01030972 84.58693319 63.04796318 83.88480389 63.08675766 83.16139793 C63.64091504 72.99427103 64.54517635 62.91985257 66.00978088 52.83792114 C67.69799044 41.03293626 67.96214274 28.7886802 66 17 C65.38898438 17.144375 64.77796875 17.28875 64.1484375 17.4375 C44.11850368 21.49990911 25.6549421 19.10679057 7 11 Z " fill="#000000" transform="translate(180,449)"/>
<path d="M0 0 C1.32 0.33 2.64 0.66 4 1 C3.97494385 1.69109863 3.9498877 2.38219727 3.92407227 3.09423828 C3.80311123 6.43780986 3.68281196 9.781405 3.5625 13.125 C3.52318359 14.20910156 3.48386719 15.29320312 3.44335938 16.41015625 C3.37750235 18.24402102 3.31186235 20.07789509 3.24900818 21.91186523 C3.09609795 26.37157223 2.92718569 30.83031661 2.74829102 35.2890625 C1.93249509 56.44400862 1.79833303 77.58127375 1.8125 98.75 C1.81290031 100.09609093 1.81290031 100.09609093 1.81330872 101.46937561 C1.82443023 131.35322743 2.16248424 161.16333027 4 191 C4.06552063 192.07199646 4.13104126 193.14399292 4.19854736 194.24847412 C9.51098106 280.14605706 17.93402873 372.8949953 88 494 C97.07791932 501.70343633 108.07654371 509.05286677 120 511 C119.505 510.236875 119.01 509.47375 118.5 508.6875 C117 506 117 506 117 503 C120.93332492 503.52328048 122.40549853 505.18930761 124.8125 508.25 C125.43769531 509.01828125 126.06289062 509.7865625 126.70703125 510.578125 C128 513 128 513 128.00390625 515.55859375 C126.67468572 518.79113396 125.01683528 519.88880088 122.125 521.8125 C121.24070312 522.41707031 120.35640625 523.02164063 119.4453125 523.64453125 C117 525 117 525 114 525 C114.347111 521.76029736 114.97614982 521.02001516 117.55078125 518.859375 C118.35902344 518.24578125 119.16726562 517.6321875 120 517 C119.05640625 516.64808594 118.1128125 516.29617188 117.140625 515.93359375 C97.73985001 508.54742159 82.4439403 497.72942251 70 481 C69.24847656 480.05898438 68.49695313 479.11796875 67.72265625 478.1484375 C53.8420326 460.01588861 44.62584312 438.38086857 37 417 C36.67370605 416.11505859 36.34741211 415.23011719 36.01123047 414.31835938 C10.34148036 344.45587323 3.62730034 267.00168937 -0.6875 193.25 C-0.74843842 192.21680634 -0.80937683 191.18361267 -0.87216187 190.11911011 C-2.54537006 161.30556111 -3.20531221 132.50542843 -3.18867874 103.64865875 C-3.1874788 101.3341101 -3.18803991 99.01956589 -3.18869019 96.70501709 C-3.18741575 75.49496876 -2.88441015 54.32065182 -2.0625 33.125 C-2.01902435 32.00083679 -1.97554871 30.87667358 -1.93075562 29.71844482 C-1.8051846 26.56459389 -1.67267887 23.41116335 -1.53515625 20.2578125 C-1.49655487 19.3568988 -1.45795349 18.45598511 -1.41818237 17.527771 C-1.1426725 11.66073728 -0.63896173 5.83838297 0 0 Z " fill="#000000" transform="translate(29,182)"/>
<path d="M0 0 C11.84392869 -0.57309332 20.92259953 2.69021347 29.80078125 10.60546875 C35.47027428 16.50956149 39.10008974 23.90327632 42.93896484 31.05908203 C44.01122428 33.02053222 45.13565531 34.94475067 46.26953125 36.87109375 C48 40 48 40 48 42 C17.43125257 42.83767647 17.43125257 42.83767647 6 33 C1.76426058 28.78655394 -2.35344503 24.40198719 -5 19 C-4.9609375 16.640625 -4.9609375 16.640625 -4.375 14.25 C-4.16875 13.39148438 -3.9625 12.53296875 -3.75 11.6484375 C-2.63614659 7.71514265 -1.3925013 3.8433036 0 0 Z M5 6 C1.61089741 11.90732018 1.61089741 11.90732018 1.6015625 18.45703125 C6.08508007 26.94678872 13.04720613 31.91555688 22 35 C25.66379672 35.91446466 29.04211294 36.10792635 32.8125 36.0625 C34.27623047 36.04896484 34.27623047 36.04896484 35.76953125 36.03515625 C36.50558594 36.02355469 37.24164063 36.01195312 38 36 C33.86816907 25.02858486 27.52293646 14.34908541 17 8.5625 C13.04470063 6.78104572 9.30720723 6.30765766 5 6 Z " fill="#000000" transform="translate(153,347)"/>
<path d="M0 0 C1.203125 1.5234375 1.203125 1.5234375 2.25 3.375 C2.60578125 3.98085938 2.9615625 4.58671875 3.328125 5.2109375 C4 7 4 7 3 10 C1.68 8.68 0.36 7.36 -1 6 C-1.25056152 6.81339844 -1.50112305 7.62679688 -1.75927734 8.46484375 C-14.18620639 48.54662125 -28.36216554 84.39141136 -62.30078125 111.12890625 C-62.86152344 111.41636719 -63.42226563 111.70382812 -64 112 C-64.99 111.67 -65.98 111.34 -67 111 C-67 110.34 -67 109.68 -67 109 C-65.59321977 107.75185669 -64.12120296 106.5769161 -62.625 105.4375 C-31.75309484 81.27119907 -14.55608799 45.93398452 -6 8 C-6 7.01 -6 6.02 -6 5 C-7.98 5.99 -7.98 5.99 -10 7 C-10 5.68 -10 4.36 -10 3 C-3.375 -1.125 -3.375 -1.125 0 0 Z " fill="#000000" transform="translate(424,302)"/>
<path d="M0 0 C0 0.99 0 1.98 0 3 C-1.98 3.99 -1.98 3.99 -4 5 C-3.05640625 5.4846875 -2.1128125 5.969375 -1.140625 6.46875 C17.878213 16.34827743 34.77851698 29.006713 50.79296875 43.1875 C53.4604301 45.54872951 56.19499986 47.80248576 59 50 C58.67 50.99 58.34 51.98 58 53 C54.43821015 51.47584736 52.09678156 49.35813741 49.3125 46.6875 C42.60071212 40.485808 35.41210705 35.00339088 28.08398438 29.55322266 C26.16649527 28.12409125 24.26239619 26.6787625 22.359375 25.23046875 C14.07574418 19.02330237 5.3763486 14.35939324 -4 10 C-3.67 11.65 -3.34 13.3 -3 15 C-3.99 15 -4.98 15 -6 15 C-9.95623216 8.7659372 -9.95623216 8.7659372 -10.125 5.8125 C-7.7913613 2.05274876 -4.36886461 0 0 0 Z " fill="#000000" transform="translate(217,268)"/>
<path d="M0 0 C0.59425781 0.19335938 1.18851563 0.38671875 1.80078125 0.5859375 C14.70685571 4.65520072 14.70685571 4.65520072 28 4 C27.34 3.67 26.68 3.34 26 3 C26 2.01 26 1.02 26 0 C29.63 0.66 33.26 1.32 37 2 C37.17835515 6.54805635 36.99785435 9.8794254 35 14 C34.34 14 33.68 14 33 14 C33.33 11.69 33.66 9.38 34 7 C33.01 7.33 32.02 7.66 31 8 C20.89398332 8.67080198 11.27107401 8.66675274 2 4 C0.1796875 2.36328125 0.1796875 2.36328125 -1 1 C-0.67 0.67 -0.34 0.34 0 0 Z " fill="#000000" transform="translate(199,472)"/>
<path d="M0 0 C1.4540625 0.0309375 1.4540625 0.0309375 2.9375 0.0625 C5.0625 4.6875 5.0625 4.6875 3.9375 8.0625 C4.26300502 9.73071323 4.59596063 11.39749557 4.9375 13.0625 C4.6075 13.7225 4.2775 14.3825 3.9375 15.0625 C1.125 15.9375 1.125 15.9375 -2.0625 16.0625 C-4.4375 14.125 -4.4375 14.125 -6.0625 12.0625 C-2.43923261 10.8547442 -1.42103631 11.51938872 1.9375 13.0625 C1.9375 11.7425 1.9375 10.4225 1.9375 9.0625 C0.6175 9.0625 -0.7025 9.0625 -2.0625 9.0625 C-2.0625 8.0725 -2.0625 7.0825 -2.0625 6.0625 C-0.7425 6.0625 0.5775 6.0625 1.9375 6.0625 C1.6075 5.0725 1.2775 4.0825 0.9375 3.0625 C-1.0425 3.7225 -3.0225 4.3825 -5.0625 5.0625 C-3.9375 0.08035714 -3.9375 0.08035714 0 0 Z " fill="#000000" transform="translate(228.0625,487.9375)"/>
<path d="M0 0 C3.0625 0.1875 3.0625 0.1875 5.0625 2.1875 C4.90004442 5.92397845 4.47466356 7.71288742 2 10.5625 C1.360625 11.09875 0.72125 11.635 0.0625 12.1875 C1.7125 12.5175 3.3625 12.8475 5.0625 13.1875 C5.0625 13.8475 5.0625 14.5075 5.0625 15.1875 C1.7625 15.1875 -1.5375 15.1875 -4.9375 15.1875 C-2.9375 11.1875 -2.9375 11.1875 -0.8125 8.625 C1.36735538 6.30372611 1.36735538 6.30372611 1.0625 3.1875 C0.4025 3.1875 -0.2575 3.1875 -0.9375 3.1875 C-1.2675 3.8475 -1.5975 4.5075 -1.9375 5.1875 C-2.9275 5.1875 -3.9175 5.1875 -4.9375 5.1875 C-3.82120474 0.24390669 -3.82120474 0.24390669 0 0 Z " fill="#000000" transform="translate(254.9375,258.8125)"/>
<path d="M0 0 C0.99 0 1.98 0 3 0 C3 3.3 3 6.6 3 10 C3.66 10 4.32 10 5 10 C5 10.66 5 11.32 5 12 C4.34 12 3.68 12 3 12 C3 12.99 3 13.98 3 15 C2.34 15 1.68 15 1 15 C1 14.01 1 13.02 1 12 C-1.31 12 -3.62 12 -6 12 C-5.56629155 7.2292071 -3.35665609 3.36635741 0 0 Z M0 4 C-0.99 5.98 -1.98 7.96 -3 10 C-1.68 10 -0.36 10 1 10 C1 8.02 1 6.04 1 4 C0.67 4 0.34 4 0 4 Z " fill="#000000" transform="translate(425,371)"/>
<path d="M0 0 C0 4.95 0 9.9 0 15 C-0.99 15 -1.98 15 -3 15 C-3 11.37 -3 7.74 -3 4 C-3.99 4.33 -4.98 4.66 -6 5 C-5.625 3.0625 -5.625 3.0625 -5 1 C-3 0 -3 0 0 0 Z " fill="#000000" transform="translate(215,488)"/>
<path d="M0 0 C0 4.95 0 9.9 0 15 C-0.99 15 -1.98 15 -3 15 C-3 11.37 -3 7.74 -3 4 C-3.99 4.33 -4.98 4.66 -6 5 C-5.625 3.0625 -5.625 3.0625 -5 1 C-3 0 -3 0 0 0 Z " fill="#000000" transform="translate(7,432)"/>
<path d="M0 0 C0 4.95 0 9.9 0 15 C-0.99 15 -1.98 15 -3 15 C-3 11.37 -3 7.74 -3 4 C-3.99 4.33 -4.98 4.66 -6 5 C-5.625 3.0625 -5.625 3.0625 -5 1 C-3 0 -3 0 0 0 Z " fill="#000000" transform="translate(411,371)"/>
<path d="M0 0 C0 4.95 0 9.9 0 15 C-0.99 15 -1.98 15 -3 15 C-3 11.37 -3 7.74 -3 4 C-3.99 4.33 -4.98 4.66 -6 5 C-5.625 3.0625 -5.625 3.0625 -5 1 C-3 0 -3 0 0 0 Z " fill="#000000" transform="translate(242,259)"/>
<path d="M0 0 C0.99 0 1.98 0 3 0 C3 1.32 3 2.64 3 4 C4.65 4.33 6.3 4.66 8 5 C7.67 5.99 7.34 6.98 7 8 C5.68 7.67 4.36 7.34 3 7 C2.67 8.32 2.34 9.64 2 11 C1.34 10.67 0.68 10.34 0 10 C0 6.7 0 3.4 0 0 Z " fill="#000000" transform="translate(108,297)"/>
<path d="M0 0 C0 4.95 0 9.9 0 15 C-0.66 15 -1.32 15 -2 15 C-2.33 11.37 -2.66 7.74 -3 4 C-3.99 4.33 -4.98 4.66 -6 5 C-6 4.01 -6 3.02 -6 2 C-3 0 -3 0 0 0 Z " fill="#000000" transform="translate(19,432)"/>
<path d="M0 0 C0.103125 0.763125 0.20625 1.52625 0.3125 2.3125 C1.04364039 5.17059424 1.76951913 6.15742885 4 8 C2.6875 9.5 2.6875 9.5 1 11 C0.01 11 -0.98 11 -2 11 C-2.33 7.7 -2.66 4.4 -3 1 C-1 0 -1 0 0 0 Z " fill="#000000" transform="translate(111,388)"/>
<path d="M0 0 C0.99 0 1.98 0 3 0 C3.67154933 1.28913487 4.33708859 2.58140204 5 3.875 C5.37125 4.59429688 5.7425 5.31359375 6.125 6.0546875 C7 8 7 8 7 10 C6.01 10.33 5.02 10.66 4 11 C3.32591692 9.73308493 2.66099503 8.46129251 2 7.1875 C1.62875 6.47980469 1.2575 5.77210938 0.875 5.04296875 C0 3 0 3 0 0 Z " fill="#000000" transform="translate(150,601)"/>
<path d="M0 0 C0.99 0.33 1.98 0.66 3 1 C3 4.63 3 8.26 3 12 C2.01 12 1.02 12 0 12 C0 8.04 0 4.08 0 0 Z " fill="#000000" transform="translate(291,521)"/>
<path d="M0 0 C0.99 0.33 1.98 0.66 3 1 C-0.34969325 6.90184049 -0.34969325 6.90184049 -3 9 C-3.99 9 -4.98 9 -6 9 C-4.68775452 5.06326356 -3.08089673 2.77280706 0 0 Z " fill="#000000" transform="translate(327,369)"/>
<path d="M0 0 C0.66 0.33 1.32 0.66 2 1 C1 4 1 4 -1.06640625 5.16796875 C-1.89011719 5.50441406 -2.71382812 5.84085938 -3.5625 6.1875 C-4.38878906 6.53167969 -5.21507812 6.87585938 -6.06640625 7.23046875 C-6.70449219 7.48441406 -7.34257812 7.73835937 -8 8 C-8.33 7.01 -8.66 6.02 -9 5 C-7.54735962 4.1361871 -6.0876837 3.28419546 -4.625 2.4375 C-3.40683594 1.72400391 -3.40683594 1.72400391 -2.1640625 0.99609375 C-1.44992188 0.66738281 -0.73578125 0.33867188 0 0 Z " fill="#000000" transform="translate(250,652)"/>
<path d="M0 0 C3.59391114 1.33488128 6.75490696 2.96022723 10 5 C9.67 5.99 9.34 6.98 9 8 C7.67968405 7.43457996 6.3688699 6.84693528 5.0625 6.25 C3.96615234 5.76273438 3.96615234 5.76273438 2.84765625 5.265625 C1 4 1 4 0.24609375 1.859375 C0.16488281 1.24578125 0.08367187 0.6321875 0 0 Z " fill="#000000" transform="translate(183,650)"/>
<path d="M0 0 C3 2 6 4 9 6 C8.67 6.99 8.34 7.98 8 9 C4.56404834 7.47291037 1.88087546 5.40072955 -1 3 C-0.67 2.01 -0.34 1.02 0 0 Z " fill="#000000" transform="translate(216,343)"/>
<path d="M0 0 C1.45880109 0.14107747 2.91703551 0.28802415 4.375 0.4375 C5.59316406 0.55931641 5.59316406 0.55931641 6.8359375 0.68359375 C9 1 9 1 11 2 C11 2.99 11 3.98 11 5 C7.37 4.34 3.74 3.68 0 3 C0 2.01 0 1.02 0 0 Z " fill="#000000" transform="translate(124,304)"/>
<path d="M0 0 C0.99 0 1.98 0 3 0 C2.43768609 3.93619738 1.38314183 6.79192446 -1 10 C-1.99 10 -2.98 10 -4 10 C-2.8905928 6.51329166 -1.73662334 3.22515763 0 0 Z " fill="#000000" transform="translate(275,622)"/>
<path d="M0 0 C0.99 0.33 1.98 0.66 3 1 C2.67 4.63 2.34 8.26 2 12 C1.01 12 0.02 12 -1 12 C-1.08159574 7.83861737 -0.98248524 4.0527516 0 0 Z " fill="#000000" transform="translate(290,562)"/>
<path d="M0 0 C0.99 0 1.98 0 3 0 C4.19287411 3.87684087 5 6.91621923 5 11 C4.01 11 3.02 11 2 11 C1.34 7.37 0.68 3.74 0 0 Z " fill="#000000" transform="translate(122,506)"/>
<path d="M0 0 C0.99 0 1.98 0 3 0 C3 3.63 3 7.26 3 11 C2.01 11 1.02 11 0 11 C0 7.37 0 3.74 0 0 Z " fill="#000000" transform="translate(290,501)"/>
<path d="M0 0 C0.99 0 1.98 0 3 0 C3.33 3.63 3.66 7.26 4 11 C3.01 11 2.02 11 1 11 C0.67 7.37 0.34 3.74 0 0 Z " fill="#000000" transform="translate(116,467)"/>
<path d="M0 0 C0.99 0 1.98 0 3 0 C4.17571451 3.67410785 4.07366746 7.16929183 4 11 C3.01 11 2.02 11 1 11 C0.67 7.37 0.34 3.74 0 0 Z " fill="#000000" transform="translate(113,447)"/>
<path d="M0 0 C0.99 0 1.98 0 3 0 C4.19287411 3.87684087 5 6.91621923 5 11 C4.01 11 3.02 11 2 11 C1.34 7.37 0.68 3.74 0 0 Z " fill="#000000" transform="translate(280,442)"/>
<path d="M0 0 C3.63 0 7.26 0 11 0 C11 0.99 11 1.98 11 3 C7.37 3 3.74 3 0 3 C0 2.01 0 1.02 0 0 Z " fill="#000000" transform="translate(196,422)"/>
<path d="M0 0 C0 0.99 0 1.98 0 3 C-4.12168689 4.62950412 -6.70700357 5.26264601 -11 4 C-10 2 -10 2 -7.1875 0.875 C-4 0 -4 0 0 0 Z " fill="#000000" transform="translate(265,413)"/>
<path d="M0 0 C0.66 0.33 1.32 0.66 2 1 C1 4 1 4 -0.84765625 5.16796875 C-1.57855469 5.50441406 -2.30945313 5.84085937 -3.0625 6.1875 C-3.79597656 6.53167969 -4.52945312 6.87585938 -5.28515625 7.23046875 C-6.13400391 7.61138672 -6.13400391 7.61138672 -7 8 C-7 6.68 -7 5.36 -7 4 C-1.7265625 0.77734375 -1.7265625 0.77734375 0 0 Z " fill="#000000" transform="translate(298,395)"/>
<path d="M0 0 C4.04131267 1.34710422 4.90288434 3.38428334 7 7 C7 7.99 7 8.98 7 10 C6.01 10 5.02 10 4 10 C1.09677182 6.35022743 0 4.74147821 0 0 Z " fill="#000000" transform="translate(256,387)"/>
<path d="M0 0 C0.99 0.33 1.98 0.66 3 1 C3 1.66 3 2.32 3 3 C0.25 5.6875 0.25 5.6875 -3 8 C-5.375 7.8125 -5.375 7.8125 -7 7 C-4.66666667 4.66666667 -2.33333333 2.33333333 0 0 Z " fill="#000000" transform="translate(313,383)"/>
<path d="M0 0 C3.99500618 1.3697164 6.80009492 3.25722422 10 6 C9.67 6.66 9.34 7.32 9 8 C5.00499382 6.6302836 2.19990508 4.74277578 -1 2 C-0.67 1.34 -0.34 0.68 0 0 Z " fill="#000000" transform="translate(199,332)"/>
<path d="M0 0 C0.99 0 1.98 0 3 0 C3 3.63 3 7.26 3 11 C2.01 11 1.02 11 0 11 C0 7.37 0 3.74 0 0 Z " fill="#000000" transform="translate(107,277)"/>
<path d="M0 0 C0.99 0 1.98 0 3 0 C3 3.63 3 7.26 3 11 C2.01 11 1.02 11 0 11 C0 7.37 0 3.74 0 0 Z " fill="#000000" transform="translate(107,237)"/>
<path d="M0 0 C0.99 0 1.98 0 3 0 C3.14285714 7.42857143 3.14285714 7.42857143 2 11 C1.01 11 0.02 11 -1 11 C-0.67 7.37 -0.34 3.74 0 0 Z " fill="#000000" transform="translate(112,176)"/>
<path d="M0 0 C0 0.99 0 1.98 0 3 C-3.63 3.33 -7.26 3.66 -11 4 C-11 3.01 -11 2.02 -11 1 C-7.27569643 0.30710631 -3.78916254 -0.11144596 0 0 Z " fill="#000000" transform="translate(233,660)"/>
<path d="M0 0 C3.3 0.66 6.6 1.32 10 2 C10 2.99 10 3.98 10 5 C8.54119891 4.85892253 7.08296449 4.71197585 5.625 4.5625 C4.40683594 4.44068359 4.40683594 4.44068359 3.1640625 4.31640625 C1 4 1 4 -1 3 C-0.67 2.01 -0.34 1.02 0 0 Z " fill="#000000" transform="translate(202,658)"/>
<path d="M0 0 C3.13506611 0.33589994 4.025249 1.02665172 6.25 3.375 C8 6 8 6 8 9 C4.20620942 7.50958227 2.31656242 5.30937488 0 2 C0 1.34 0 0.68 0 0 Z " fill="#000000" transform="translate(169,636)"/>
<path d="M0 0 C0.99 0 1.98 0 3 0 C4.32 2.97 5.64 5.94 7 9 C6.01 9.33 5.02 9.66 4 10 C0 3.375 0 3.375 0 0 Z " fill="#000000" transform="translate(159,619)"/>
<path d="M0 0 C0.99 0 1.98 0 3 0 C2.85892253 1.45880109 2.71197585 2.91703551 2.5625 4.375 C2.48128906 5.18710937 2.40007812 5.99921875 2.31640625 6.8359375 C2 9 2 9 1 11 C0.01 10.67 -0.98 10.34 -2 10 C-1.34 6.7 -0.68 3.4 0 0 Z " fill="#000000" transform="translate(287,583)"/>
<path d="M0 0 C0.99 0 1.98 0 3 0 C3.99 3.3 4.98 6.6 6 10 C5.01 10 4.02 10 3 10 C0 3.375 0 3.375 0 0 Z " fill="#000000" transform="translate(143,583)"/>
<path d="M0 0 C0.99 0 1.98 0 3 0 C3 3.3 3 6.6 3 10 C2.01 10.33 1.02 10.66 0 11 C0 7.37 0 3.74 0 0 Z " fill="#000000" transform="translate(291,542)"/>
<path d="M0 0 C0.99 0 1.98 0 3 0 C3.33 3.63 3.66 7.26 4 11 C3.01 11 2.02 11 1 11 C-0.17571451 7.32589215 -0.07366746 3.83070817 0 0 Z " fill="#000000" transform="translate(288,481)"/>
<path d="M0 0 C0.99 0 1.98 0 3 0 C3.99 3.3 4.98 6.6 6 10 C5.01 10.33 4.02 10.66 3 11 C0 4.5 0 4.5 0 0 Z " fill="#000000" transform="translate(274,423)"/>
<path d="M0 0 C0 0.99 0 1.98 0 3 C-3.63 3.33 -7.26 3.66 -11 4 C-11 3.01 -11 2.02 -11 1 C-7.26513121 0.4254048 -3.78706732 0 0 0 Z " fill="#000000" transform="translate(227,421)"/>
<path d="M0 0 C0 0.99 0 1.98 0 3 C-3.3 3.66 -6.6 4.32 -10 5 C-10.33 4.01 -10.66 3.02 -11 2 C-3.375 0 -3.375 0 0 0 Z " fill="#000000" transform="translate(246,418)"/>
<path d="M0 0 C3.3 0.66 6.6 1.32 10 2 C10 2.99 10 3.98 10 5 C6.37 4.34 2.74 3.68 -1 3 C-0.67 2.01 -0.34 1.02 0 0 Z " fill="#000000" transform="translate(158,416)"/>
<path d="M0 0 C0 0.99 0 1.98 0 3 C-1.28913487 3.67154933 -2.58140204 4.33708859 -3.875 5 C-4.59429687 5.37125 -5.31359375 5.7425 -6.0546875 6.125 C-8 7 -8 7 -10 7 C-9.9375 5.1875 -9.9375 5.1875 -9 3 C-3.10714286 0 -3.10714286 0 0 0 Z " fill="#000000" transform="translate(283,405)"/>
<path d="M0 0 C0.99 0 1.98 0 3 0 C6 6.625 6 6.625 6 10 C5.01 10 4.02 10 3 10 C0 3.375 0 3.375 0 0 Z " fill="#000000" transform="translate(266,405)"/>
<path d="M0 0 C3.0831351 1.19899698 6.06279492 2.47700477 9 4 C9 4.99 9 5.98 9 7 C5.04179141 6.43454163 2.3340947 5.19097652 -1 3 C-0.67 2.01 -0.34 1.02 0 0 Z " fill="#000000" transform="translate(122,401)"/>
<path d="M0 0 C3.73884332 2.65654657 5.64978174 4.58110387 7 9 C6.01 9 5.02 9 4 9 C1.25 6.1875 1.25 6.1875 -1 3 C-0.67 2.01 -0.34 1.02 0 0 Z " fill="#000000" transform="translate(245,371)"/>
<path d="M0 0 C0.99 0.33 1.98 0.66 3 1 C1.80100302 4.0831351 0.52299523 7.06279492 -1 10 C-1.99 10 -2.98 10 -4 10 C-3.43454163 6.04179141 -2.19097652 3.3340947 0 0 Z " fill="#000000" transform="translate(349,337)"/>
<path d="M0 0 C3.93619738 0.56231391 6.79192446 1.61685817 10 4 C10 4.99 10 5.98 10 7 C6.66666667 5.66666667 3.33333333 4.33333333 0 3 C0 2.01 0 1.02 0 0 Z " fill="#000000" transform="translate(181,323)"/>
<path d="M0 0 C0.66 0.33 1.32 0.66 2 1 C1.49287967 4.71888239 0.88391785 7.73454239 -1 11 C-1.99 10.67 -2.98 10.34 -4 10 C-3.52449439 8.51965236 -3.04448784 7.04074979 -2.5625 5.5625 C-2.29566406 4.73878906 -2.02882813 3.91507812 -1.75390625 3.06640625 C-1 1 -1 1 0 0 Z " fill="#000000" transform="translate(358,319)"/>
<path d="M0 0 C3.3 0.99 6.6 1.98 10 3 C10 3.99 10 4.98 10 6 C6.1936543 5.32829194 2.64793184 4.27253436 -1 3 C-0.67 2.01 -0.34 1.02 0 0 Z " fill="#000000" transform="translate(163,315)"/>
<path d="M0 0 C0.99 0.33 1.98 0.66 3 1 C2.34 4.3 1.68 7.6 1 11 C0.01 11 -0.98 11 -2 11 C-1 3.57142857 -1 3.57142857 0 0 Z " fill="#000000" transform="translate(370,282)"/>
<path d="M0 0 C0.99 0 1.98 0 3 0 C3 3.3 3 6.6 3 10 C2.01 10.33 1.02 10.66 0 11 C0 7.37 0 3.74 0 0 Z " fill="#000000" transform="translate(107,257)"/>
<path d="M0 0 C0.99 0.33 1.98 0.66 3 1 C2.67 3.97 2.34 6.94 2 10 C0.68 10.33 -0.64 10.66 -2 11 C-1.85892253 9.54119891 -1.71197585 8.08296449 -1.5625 6.625 C-1.48128906 5.81289062 -1.40007812 5.00078125 -1.31640625 4.1640625 C-1 2 -1 2 0 0 Z " fill="#000000" transform="translate(115,156)"/>
<path d="M0 0 C0.99 0.33 1.98 0.66 3 1 C2.67 4.3 2.34 7.6 2 11 C1.01 11 0.02 11 -1 11 C-0.67 7.37 -0.34 3.74 0 0 Z " fill="#000000" transform="translate(120,116)"/>
<path d="M0 0 C0.66 0 1.32 0 2 0 C1.52797514 4.24822374 -0.96655518 6.19989709 -4 9 C-4.99 8.67 -5.98 8.34 -7 8 C-6.02133662 6.85373678 -5.04205413 5.70800212 -4.0625 4.5625 C-3.51722656 3.92441406 -2.97195313 3.28632812 -2.41015625 2.62890625 C-1.63204305 1.73008851 -0.84063472 0.84063472 0 0 Z " fill="#000000" transform="translate(265,639)"/>
<path d="M0 0 C0.99 0.33 1.98 0.66 3 1 C1.68 4.3 0.36 7.6 -1 11 C-1.66 10.67 -2.32 10.34 -3 10 C-2.69201674 8.51988629 -2.378482 7.04092675 -2.0625 5.5625 C-1.88847656 4.73878906 -1.71445312 3.91507813 -1.53515625 3.06640625 C-1 1 -1 1 0 0 Z " fill="#000000" transform="translate(283,603)"/>
<path d="M0 0 C0.99 0 1.98 0 3 0 C3.66 3.3 4.32 6.6 5 10 C4.01 10 3.02 10 2 10 C0.68373308 6.38026598 0 3.90432869 0 0 Z " fill="#000000" transform="translate(137,564)"/>
<path d="M0 0 C0.99 0 1.98 0 3 0 C4.62950412 4.12168689 5.26264601 6.70700357 4 11 C3.34 10.67 2.68 10.34 2 10 C1.3671875 7.71484375 1.3671875 7.71484375 0.875 4.9375 C0.70742187 4.01839844 0.53984375 3.09929688 0.3671875 2.15234375 C0.24601563 1.44207031 0.12484375 0.73179687 0 0 Z " fill="#000000" transform="translate(131,545)"/>
<path d="M0 0 C0.66 0.33 1.32 0.66 2 1 C2.4140625 3.28515625 2.4140625 3.28515625 2.625 6.0625 C2.69976562 6.98160156 2.77453125 7.90070313 2.8515625 8.84765625 C2.92503906 9.91306641 2.92503906 9.91306641 3 11 C2.01 11 1.02 11 0 11 C-0.19406478 9.35492782 -0.38007935 7.70890406 -0.5625 6.0625 C-0.66691406 5.14597656 -0.77132813 4.22945313 -0.87890625 3.28515625 C-0.91886719 2.53105469 -0.95882813 1.77695312 -1 1 C-0.67 0.67 -0.34 0.34 0 0 Z " fill="#000000" transform="translate(286,461)"/>
<path d="M0 0 C0.99 0 1.98 0 3 0 C3.33 3.3 3.66 6.6 4 10 C3.01 10.33 2.02 10.66 1 11 C0.67 7.37 0.34 3.74 0 0 Z " fill="#000000" transform="translate(111,428)"/>
<path d="M0 0 C4.455 0.99 4.455 0.99 9 2 C9.33 3.32 9.66 4.64 10 6 C6.7 5.01 3.4 4.02 0 3 C0 2.01 0 1.02 0 0 Z " fill="#000000" transform="translate(139,410)"/>
<path d="M0 0 C0.66 0 1.32 0 2 0 C3.20272819 2.40545638 3.10071472 3.94996953 3.0625 6.625 C3.05347656 7.44226563 3.04445313 8.25953125 3.03515625 9.1015625 C3.02355469 9.72804688 3.01195313 10.35453125 3 11 C2.01 11 1.02 11 0 11 C0 7.37 0 3.74 0 0 Z " fill="#000000" transform="translate(110,408)"/>
<path d="M0 0 C1.15224028 0.92961422 2.29659176 1.8690125 3.4375 2.8125 C4.07558594 3.33457031 4.71367187 3.85664063 5.37109375 4.39453125 C7 6 7 6 8 9 C3.75177626 8.52797514 1.80010291 6.03344482 -1 3 C-0.67 2.01 -0.34 1.02 0 0 Z " fill="#000000" transform="translate(231,356)"/>
<path d="M0 0 C0.99 0.33 1.98 0.66 3 1 C2.24266726 2.3410477 1.46867264 3.67269781 0.6875 5 C0.25824219 5.7425 -0.17101562 6.485 -0.61328125 7.25 C-1.07089844 7.8275 -1.52851563 8.405 -2 9 C-2.99 9 -3.98 9 -5 9 C-4.42647107 5.12867972 -2.51295648 2.91827204 0 0 Z " fill="#000000" transform="translate(339,354)"/>
<path d="M0 0 C3.46941546 0.45822468 6.67395049 0.89131683 10 2 C10 2.99 10 3.98 10 5 C6.7 4.34 3.4 3.68 0 3 C0 2.01 0 1.02 0 0 Z " fill="#000000" transform="translate(144,309)"/>
<path d="M0 0 C0.66 0.33 1.32 0.66 2 1 C2 4.3 2 7.6 2 11 C1.01 11 0.02 11 -1 11 C-1.02688151 9.35425434 -1.04634123 7.70838587 -1.0625 6.0625 C-1.07410156 5.14597656 -1.08570312 4.22945312 -1.09765625 3.28515625 C-1 1 -1 1 0 0 Z " fill="#000000" transform="translate(109,216)"/>
<path d="M0 0 C0.99 0.33 1.98 0.66 3 1 C2.67 4.3 2.34 7.6 2 11 C1.01 11 0.02 11 -1 11 C-0.67 7.37 -0.34 3.74 0 0 Z " fill="#000000" transform="translate(110,196)"/>
<path d="M0 0 C0.66 0.33 1.32 0.66 2 1 C1.67 4.3 1.34 7.6 1 11 C0.01 11 -0.98 11 -2 11 C-1.85957123 9.35369672 -1.71250671 7.70795821 -1.5625 6.0625 C-1.48128906 5.14597656 -1.40007812 4.22945312 -1.31640625 3.28515625 C-1 1 -1 1 0 0 Z " fill="#000000" transform="translate(118,136)"/>
<path d="M0 0 C0.99 0 1.98 0 3 0 C3.33 3.3 3.66 6.6 4 10 C3.01 10 2.02 10 1 10 C0.67 6.7 0.34 3.4 0 0 Z " fill="#000000" transform="translate(119,487)"/>
<path d="M0 0 C3.3 0.33 6.6 0.66 10 1 C10 1.99 10 2.98 10 4 C6.7 3.67 3.4 3.34 0 3 C0 2.01 0 1.02 0 0 Z " fill="#000000" transform="translate(177,420)"/>
<path d="M0 0 C0.99 0 1.98 0 3 0 C3 3.3 3 6.6 3 10 C2.01 10 1.02 10 0 10 C0 6.7 0 3.4 0 0 Z " fill="#000000" transform="translate(108,370)"/>
<path d="M0 0 C0.99 0 1.98 0 3 0 C3 3.3 3 6.6 3 10 C2.01 10 1.02 10 0 10 C0 6.7 0 3.4 0 0 Z " fill="#000000" transform="translate(107,352)"/>
<path d="M0 0 C0.99 0 1.98 0 3 0 C3 3.3 3 6.6 3 10 C2.01 10 1.02 10 0 10 C0 6.7 0 3.4 0 0 Z " fill="#000000" transform="translate(107,334)"/>
<path d="M0 0 C0.66 0 1.32 0 2 0 C1.53199289 4.05606165 1.12046792 7.46588679 -1 11 C-1.66 10.67 -2.32 10.34 -3 10 C-2.69201674 8.51988629 -2.378482 7.04092675 -2.0625 5.5625 C-1.88847656 4.73878906 -1.71445312 3.91507812 -1.53515625 3.06640625 C-1 1 -1 1 0 0 Z " fill="#000000" transform="translate(365,301)"/>
<path d="M0 0 C2.39763185 2.39763185 2.34280586 3.33273498 2.625 6.625 C2.69976562 7.44226563 2.77453125 8.25953125 2.8515625 9.1015625 C2.90054688 9.72804688 2.94953125 10.35453125 3 11 C2.01 10.67 1.02 10.34 0 10 C-0.19412181 8.52168779 -0.38012131 7.04230684 -0.5625 5.5625 C-0.66691406 4.73878906 -0.77132812 3.91507813 -0.87890625 3.06640625 C-0.91886719 2.38449219 -0.95882812 1.70257812 -1 1 C-0.67 0.67 -0.34 0.34 0 0 Z " fill="#000000" transform="translate(128,525)"/>
<path d="M0 0 C0.99 0 1.98 0 3 0 C3 2.97 3 5.94 3 9 C2.01 9.33 1.02 9.66 0 10 C0 6.7 0 3.4 0 0 Z " fill="#000000" transform="translate(108,316)"/>
<path d="M0 0 C0.66 0 1.32 0 2 0 C2 1.65 2 3.3 2 5 C1.01 5.33 0.02 5.66 -1 6 C-1.042721 4.33388095 -1.04063832 2.66617115 -1 1 C-0.67 0.67 -0.34 0.34 0 0 Z " fill="#000000" transform="translate(374,268)"/>
<path d="M0 0 C0.99 0.33 1.98 0.66 3 1 C2.67 1.99 2.34 2.98 2 4 C1.01 3.01 0.02 2.02 -1 1 C-0.67 0.67 -0.34 0.34 0 0 Z " fill="#000000" transform="translate(218,500)"/>
<path d="M0 0 C0.99 0.33 1.98 0.66 3 1 C2.67 1.99 2.34 2.98 2 4 C1.01 3.01 0.02 2.02 -1 1 C-0.67 0.67 -0.34 0.34 0 0 Z " fill="#000000" transform="translate(10,444)"/>
<path d="M0 0 C0.99 0.33 1.98 0.66 3 1 C2.67 1.99 2.34 2.98 2 4 C1.01 3.01 0.02 2.02 -1 1 C-0.67 0.67 -0.34 0.34 0 0 Z " fill="#000000" transform="translate(414,383)"/>
<path d="M0 0 C0.99 0.33 1.98 0.66 3 1 C2.67 1.99 2.34 2.98 2 4 C1.01 3.01 0.02 2.02 -1 1 C-0.67 0.67 -0.34 0.34 0 0 Z " fill="#000000" transform="translate(245,271)"/>
</svg>
