<?xml version="1.0" encoding="UTF-8"?>
<svg version="1.1" xmlns="http://www.w3.org/2000/svg" width="574" height="752">
<path d="M0 0 C-0.18393311 1.0677063 -0.18393311 1.0677063 -0.37158203 2.15698242 C-15.87748375 93.48185627 -16.28504162 188.53415661 -21 397 C-18.13409251 394.15912732 -15.27172303 391.31473864 -12.41235352 388.46728516 C-11.44257727 387.50248541 -10.4718993 386.53859105 -9.50024414 385.57568359 C-4.30649406 380.42746923 0.78359589 375.25598097 5.53979492 369.69873047 C7.49836807 367.42022321 9.56531716 365.24954838 11.625 363.0625 C35.89389513 336.39622161 55.62171066 304.66805792 59.390625 268.22265625 C60.29354535 263.4475967 62.11565112 262.69526249 66 260 C69.92777582 258.03611209 73.73331497 258.28626179 78 259 C88.28994082 262.56970352 97.00998591 268.72020938 105 276 C105.96292969 276.84433594 106.92585937 277.68867188 107.91796875 278.55859375 C121.14440762 290.25981391 132.20688023 303.31032034 142 318 C139.37817348 365.90919785 111.4621453 424.9323065 78 459 C77.06201602 459.97609765 76.12450816 460.95265308 75.1875 461.9296875 C69.99267254 467.25733726 64.61051988 472.13696305 58.7890625 476.76953125 C55.95174421 479.03859111 53.19819637 481.3885779 50.4375 483.75 C36.83022922 495.07770222 22.10434301 504.80124432 7 514 C6.35111816 514.39541992 5.70223633 514.79083984 5.03369141 515.19824219 C-4.54458572 521 -4.54458572 521 -7 521 C-7.06151245 521.98987915 -7.06151245 521.98987915 -7.12426758 522.99975586 C-7.65343294 530.07415575 -8.9085285 536.70308288 -10.6875 543.5625 C-11.09005005 545.13112793 -11.09005005 545.13112793 -11.50073242 546.73144531 C-23.98008822 594.46014783 -50.69905905 640.19305557 -94.17797852 665.80249023 C-97.40712167 667.62636176 -100.68827446 669.33183905 -104 671 C-105.04414063 671.54011719 -106.08828125 672.08023438 -107.1640625 672.63671875 C-141.55587608 688.89389118 -185.76263625 692.52587182 -221.80664062 679.83349609 C-239.3438069 673.16921674 -254.06490093 663.42760814 -268 651 C-269.09441406 650.03320312 -269.09441406 650.03320312 -270.2109375 649.046875 C-285.98415464 634.23936503 -299.42316071 611.96475329 -300.46630859 590.07202148 C-300.8740497 565.75233302 -288.20108574 546.18472309 -272 529 C-271.4225 528.35804688 -270.845 527.71609375 -270.25 527.0546875 C-257.79795447 513.76879963 -241.57281082 504.1329748 -226 495 C-225.03924561 494.43055664 -225.03924561 494.43055664 -224.05908203 493.84960938 C-194.72426498 476.65475444 -152.40793559 458.94020732 -118 460 C-118.144375 458.948125 -118.28875 457.89625 -118.4375 456.8125 C-122.66457984 422.26627635 -120.02596446 386.55219718 -117 352 C-117.44988281 353.05574219 -117.89976562 354.11148437 -118.36328125 355.19921875 C-131.83655622 386.40932758 -149.33702795 414.51826672 -173 439 C-173.54454834 439.56936279 -174.08909668 440.13872559 -174.65014648 440.7253418 C-178.68571768 444.86757507 -182.9195147 448.49437438 -187.5625 451.9375 C-188.25794922 452.45328613 -188.95339844 452.96907227 -189.66992188 453.50048828 C-222.19952201 477.23170476 -257.26936279 476.5325017 -295.8125 470.75 C-329.18825033 465.22409393 -361.48536919 451.16187473 -382.22705078 423.35498047 C-412.19016852 381.02573902 -418.03272753 323.25334189 -418.203125 272.91796875 C-418.21015127 271.50726289 -418.21723805 270.09655733 -418.22438049 268.68585205 C-418.24382247 264.18639681 -418.24881742 259.68699299 -418.25 255.1875 C-418.25044186 254.41828846 -418.25088371 253.64907692 -418.25133896 252.85655594 C-418.2587282 228.30011704 -417.75218202 203.93529807 -415.25323486 179.48620605 C-414.98855237 176.88760958 -414.73379598 174.28815556 -414.47998047 171.68847656 C-410.75618347 133.96561856 -404.93121083 96.55074563 -396.75390625 59.53417969 C-396.0714974 56.33516722 -395.4724713 53.13525656 -394.90625 49.9140625 C-392.55481875 37.41595164 -387.8631782 30.8819868 -378 23 C-376.83091908 22.01694612 -375.66294287 21.03257692 -374.49609375 20.046875 C-355.55582534 4.36130316 -332.98705401 -8.12339217 -307.83203125 -7.3828125 C-297.26827904 -6.32751411 -288.82271554 -2.94386444 -281.39170837 4.64175415 C-279.47119646 7.89605609 -279.82607503 10.66482919 -280.14672852 14.29443359 C-280.19846316 15.02964422 -280.25019781 15.76485485 -280.30350018 16.52234459 C-280.48020895 18.9824085 -280.67982472 21.44009106 -280.87890625 23.8984375 C-281.00851525 25.65281495 -281.13646803 27.40731544 -281.26287842 29.16192627 C-281.53672694 32.92840712 -281.81977737 36.6940365 -282.11001587 40.45928955 C-282.80099861 49.44249527 -283.43977423 58.42946432 -284.07868004 67.41650009 C-284.22472839 69.46997587 -284.37129956 71.52341453 -284.51838112 73.57681656 C-285.98611443 94.0962561 -287.16402449 114.62457398 -288.18964767 135.17047882 C-288.31057812 137.58660193 -288.43325431 140.00263039 -288.556427 142.41864014 C-289.07453849 152.6108417 -289.55961297 162.80413682 -290 173 C-290.05441254 174.25800415 -290.10882507 175.5160083 -290.16488647 176.81213379 C-290.99506076 196.71331552 -291.18776789 216.59769494 -291.18530273 236.51318359 C-291.18522132 239.837783 -291.19221428 243.16224504 -291.20581055 246.48681641 C-294.12248847 307.84947123 -294.12248847 307.84947123 -274 363 C-267.80831548 368.60557846 -260.98989458 368.44217043 -253.03515625 368.12304688 C-241.76868276 367.44186854 -232.22586523 365.30250373 -224 357 C-201.29463562 330.23519168 -191.68639421 293.38659057 -181.35421181 260.59256554 C-179.58115603 254.97257321 -177.79706726 249.35749414 -175.96025085 243.75798035 C-162.39456641 202.29343091 -154.84000288 160.53108988 -148.03293145 117.52250308 C-145.74988994 103.10273686 -143.3991266 88.69386526 -141.04293656 74.28589779 C-140.223653 69.26768352 -139.4185702 64.24746314 -138.62544751 59.22505075 C-130.00477455 4.73213262 -130.00477455 4.73213262 -109.375 -11.75 C-77.23699953 -34.74010521 -29.79266039 -20.5755447 0 0 Z M-112.421875 -0.98046875 C-124.85753847 14.62567328 -128.22387908 32.37402356 -131.3203125 51.55078125 C-131.70298919 53.84309519 -132.08698158 56.13518982 -132.47219849 58.42707825 C-134.81338628 72.43264873 -137.04189626 86.45684411 -139.27952576 100.47926331 C-147.60064944 152.62131767 -156.02343832 203.64187731 -172.92327881 253.76379395 C-174.68116308 259.04731189 -176.33192132 264.36365517 -177.98828125 269.6796875 C-183.54753815 287.41916106 -189.28866795 305.05911373 -197 322 C-197.4017041 322.89783203 -197.8034082 323.79566406 -198.21728516 324.72070312 C-215.78057865 363.77423473 -215.78057865 363.77423473 -234 371 C-246.04071793 374.42991315 -261.20419877 376.86730615 -272.82421875 371.37109375 C-283.12638888 364.87906194 -287.45420281 352.39299351 -290.1875 341.0625 C-293.57149114 325.81649421 -295.12393334 310.38551468 -296.0703125 294.81640625 C-296.11374535 294.10638521 -296.15717819 293.39636417 -296.20192719 292.66482735 C-297.1306004 277.1434035 -297.31920828 261.65207705 -297.25815201 246.10666656 C-297.24977875 243.87862743 -297.24442747 241.65059583 -297.23959351 239.42254639 C-297.13138347 195.43395358 -295.0729994 151.59545694 -292.5625 107.6875 C-292.48453878 106.32321743 -292.48453878 106.32321743 -292.40500259 104.9313736 C-291.41779922 87.70029758 -290.40680663 70.47164851 -289.17138672 53.25634766 C-289.06728753 51.799778 -289.06728753 51.799778 -288.96108532 50.31378269 C-288.62728918 45.65776605 -288.2872871 41.00234103 -287.93641663 36.34757996 C-285.52768295 19.80194728 -285.52768295 19.80194728 -289.3125 4.875 C-291.0135165 3.83349304 -291.0135165 3.83349304 -293 3 C-294.13115234 2.42185547 -294.13115234 2.42185547 -295.28515625 1.83203125 C-307.87831839 -3.73327268 -322.46745344 -1.80770293 -335 3 C-348.20963021 8.53838768 -360.39028368 16.20673481 -371.203125 25.59765625 C-374 28 -374 28 -377.109375 30.18359375 C-389.01620385 39.20827993 -390.07321807 54.04303923 -392.5949707 67.8348999 C-393.13687221 70.73165579 -393.72503785 73.61808393 -394.31546021 76.50527954 C-400.550034 106.99852037 -404.93764193 137.80968406 -408.25 168.75 C-408.32713226 169.4596994 -408.40426453 170.1693988 -408.48373413 170.90060425 C-409.05907836 176.26147065 -409.55030243 181.62719651 -410 187 C-410.08720306 188.0351474 -410.17440613 189.0702948 -410.26425171 190.1368103 C-411.85690224 209.65654393 -412.34719425 229.06506476 -412.31567383 248.6394043 C-412.3110439 251.74957753 -412.31798854 254.85935942 -412.33618164 257.96948242 C-412.67524089 316.60736374 -409.44070159 388.07737079 -366 432.375 C-361.06539714 437.24382903 -355.88370336 441.34084498 -350 445 C-348.68515625 445.85658203 -348.68515625 445.85658203 -347.34375 446.73046875 C-322.43397105 462.23064714 -290.89208452 467.17010044 -262 468 C-260.64189209 468.04084717 -260.64189209 468.04084717 -259.25634766 468.08251953 C-227.73723601 468.89331693 -203.56415831 459.55970205 -180.4140625 437.734375 C-170.22058923 427.89321072 -161.08165432 417.63813106 -153 406 C-152.29786377 404.99235596 -152.29786377 404.99235596 -151.58154297 403.96435547 C-130.14947835 372.83059481 -114.47988975 337.08560721 -107 300 C-105.35 300 -103.7 300 -102 300 C-102.13051758 300.54487061 -102.26103516 301.08974121 -102.39550781 301.65112305 C-108.17500041 326.11781039 -111.42478518 350.92047723 -113 376 C-113.04236786 376.65321228 -113.08473572 377.30642456 -113.12838745 377.97943115 C-113.91232795 390.29929447 -114.18632881 402.58936892 -114.18530273 414.93310547 C-114.18749306 417.86570696 -114.20575771 420.79793295 -114.22460938 423.73046875 C-114.74381653 444.63616796 -114.74381653 444.63616796 -111 465 C-111.8765625 465.01417969 -112.753125 465.02835937 -113.65625 465.04296875 C-147.25914565 466.30649227 -181.22270394 479.02954621 -211 494 C-212.14275391 494.5573584 -212.14275391 494.5573584 -213.30859375 495.12597656 C-245.90852794 511.03369846 -279.55550158 535.57392114 -292.03125 570.921875 C-297.09298602 588.26300764 -293.24326903 603.80427164 -285.01953125 619.47265625 C-275.04211764 637.24569033 -260.32356299 652.29470136 -243 663 C-242.43023437 663.35497559 -241.86046875 663.70995117 -241.2734375 664.07568359 C-208.93305786 683.77177243 -171.6172614 684.27361056 -135.79492188 675.64160156 C-111.69861087 669.58101425 -92.51158384 659.56824125 -74 643 C-73.15566406 642.27683594 -72.31132812 641.55367187 -71.44140625 640.80859375 C-41.87906524 615.33413126 -20.02858636 573.07563407 -15.09375 534.5078125 C-13.03282808 519.22293121 -13.03282808 519.22293121 -9.36572266 515.21289062 C-5.17158773 512.08391606 -0.43306538 510.21258612 4.37207031 508.21826172 C9.19737072 505.9813378 13.49720001 502.93604705 17.875 499.9375 C18.76678955 499.33518555 19.6585791 498.73287109 20.57739258 498.11230469 C27.21088607 493.60802733 33.69237755 488.95322499 40 484 C40.81984375 483.360625 41.6396875 482.72125 42.484375 482.0625 C45.01103254 480.06692334 47.50695029 478.03737144 50 476 C51.37285156 474.90751953 51.37285156 474.90751953 52.7734375 473.79296875 C99.28210797 435.83280712 121.40535573 383.31622103 135 326 C135.27972656 324.92621094 135.55945313 323.85242188 135.84765625 322.74609375 C136.05142187 319.07308781 135.0023695 317.80616745 132.75 314.9375 C131.62851563 313.50277344 131.62851563 313.50277344 130.484375 312.0390625 C129.25460937 310.53472656 129.25460937 310.53472656 128 309 C126.80117187 307.49566406 126.80117187 307.49566406 125.578125 305.9609375 C104.08352365 279.44540131 104.08352365 279.44540131 74.57421875 264.56640625 C70.88681223 264.45180678 69.09838703 264.93440864 66 267 C65.20235693 269.35069166 65.20235693 269.35069166 64.7890625 272.13671875 C64.50421997 273.70401733 64.50421997 273.70401733 64.21362305 275.30297852 C64.01937744 276.41987061 63.82513184 277.5367627 63.625 278.6875 C60.61050522 294.70320809 55.81266858 308.70697332 48 323 C47.65984863 323.62374512 47.31969727 324.24749023 46.96923828 324.89013672 C31.8437206 352.20229477 9.22537732 374.97737978 -12.75 396.8125 C-14.14086209 398.1983298 -15.53148839 399.58439629 -16.921875 400.97070312 C-20.27854932 404.31652557 -23.63835845 407.65916861 -27 411 C-28.01159119 319.16311851 -24.13321725 227.19757 -8.39306641 14.87548828 C-7.85288524 10.92377783 -7.41642035 6.96650904 -7 3 C-35.69468756 -15.7619111 -85.32595847 -30.77282357 -112.421875 -0.98046875 Z " fill="#000000" transform="translate(432,23)"/>
<path d="M0 0 C6.517904 4.68956663 12.55343845 10.81246164 14 19 C14.7992898 30.25557271 13.99078008 38.31915226 6.75 47.25 C-0.91024915 55.5033007 -9.0534899 57.71498881 -20.09765625 58.18359375 C-28.50722958 57.78794816 -34.99740841 52.83329473 -40.56640625 46.796875 C-47.40185131 38.22928718 -47.77001036 29.60414261 -47 19 C-44.975542 10.56069317 -38.97795811 3.7193806 -31.8125 -0.9375 C-22.69451393 -6.41571974 -8.7703344 -5.84114609 0 0 Z " fill="#000000" transform="translate(101,65)"/>
<path d="M0 0 C-3.43903515 19.60250037 -13.78495182 40.05357758 -30 52 C-36.82382881 55.29389221 -43.49721162 54.75321769 -50.5625 52.375 C-60.07097592 48.54743554 -68.67234807 42.85749078 -72.875 33.1875 C-74.80209629 27.24465815 -74.99518541 21.51165842 -72.6875 15.6875 C-60.74067732 3.74067732 -37.97507069 4.55756105 -22.27783203 3.08935547 C-16.05687518 2.49458698 -9.99501396 1.7406162 -3.890625 0.38696289 C-2 0 -2 0 0 0 Z M-26.89306641 9.54418945 C-28.52942156 9.72108836 -30.16613939 9.89466841 -31.80322266 10.06469727 C-51.38051147 11.18416209 -51.38051147 11.18416209 -68 20 C-68.64627194 27.3675001 -66.98743948 31.98900884 -62.59765625 37.8828125 C-56.99130847 44.21565522 -48.7482863 48.03745692 -40.3125 48.6875 C-33.61171747 48.19248724 -29.09468132 44.29877848 -24.71484375 39.4921875 C-20.25650731 33.87911898 -16.73890369 27.99977477 -13.5 21.625 C-13.16154053 20.95936035 -12.82308105 20.2937207 -12.47436523 19.60791016 C-10.60335345 15.75158196 -9.47481934 12.26018467 -9 8 C-14.97548284 8 -20.95576493 8.89734907 -26.89306641 9.54418945 Z " fill="#000000" transform="translate(312,574)"/>
<path d="M0 0 C1.32 0 2.64 0 4 0 C4.52787109 1.8871875 4.52787109 1.8871875 5.06640625 3.8125 C8.25507986 14.96847457 11.91164846 25.56820805 17 36 C17.30663574 36.63244629 17.61327148 37.26489258 17.92919922 37.91650391 C24.72783181 51.74285727 33.34309166 63.86371516 44 75 C44.74507812 75.81984375 45.49015625 76.6396875 46.2578125 77.484375 C63.74503653 96.06815764 89.44396954 107.23903875 114.8203125 108.22265625 C133.04205192 108.66031859 149.71817449 105.59833784 167 100 C164.69 98.68 162.38 97.36 160 96 C160 95.01 160 94.02 160 93 C165.96564796 93.50771472 170.63809899 95.38592128 176 98 C175.49228528 103.96564796 173.61407872 108.63809899 171 114 C169.68 114 168.36 114 167 114 C167.61118369 110.43476181 168.62022499 107.33726069 170 104 C169.01902344 104.32613281 168.03804687 104.65226562 167.02734375 104.98828125 C135.31700067 115.33265694 102.18942908 117.05052734 71.61450195 101.99560547 C45.6616238 88.63643638 27.23705471 66.59463488 14 41 C13.68579102 40.39752441 13.37158203 39.79504883 13.04785156 39.17431641 C9.00438713 31.30962704 5.89715764 23.24436626 3.0625 14.875 C2.60206299 13.52305542 2.60206299 13.52305542 2.13232422 12.14379883 C1.85275879 11.28939209 1.57319336 10.43498535 1.28515625 9.5546875 C1.03644775 8.79655762 0.78773926 8.03842773 0.53149414 7.25732422 C-0.05373334 4.77178757 -0.09226395 2.54469034 0 0 Z " fill="#000000" transform="translate(16,406)"/>
<path d="M0 0 C3.13659662 1.42701017 5.62380533 3.14759785 8.25 5.375 C8.95640625 5.96023438 9.6628125 6.54546875 10.390625 7.1484375 C12 9 12 9 12 13 C8.62189888 12.39676766 6.67744188 11.09807945 4 9 C7.50358634 27.42037061 13.51769294 41.45396091 29.234375 52.58203125 C64.25354535 75.18427355 112.26549257 67.33664013 150.4375 59.25 C152.29275532 58.83820779 154.14745223 58.42380642 156 58 C156.33 59.32 156.66 60.64 157 62 C148.1233226 64.63635916 139.24854703 66.61024616 130.125 68.1875 C129.16327881 68.35411133 128.20155762 68.52072266 127.21069336 68.69238281 C118.52648371 70.15287149 109.99870575 71.15341472 101.1875 71.203125 C100.37490723 71.20882507 99.56231445 71.21452515 98.72509766 71.22039795 C97.01417309 71.22977838 95.30323103 71.23635395 93.59228516 71.24023438 C91.03384021 71.24987252 88.47622376 71.28093487 85.91796875 71.3125 C62.04725499 71.46628423 34.88410106 66.56612046 17.0546875 49.30859375 C6.58886886 37.54947053 1.14137711 24.66081768 -1 9 C-1.928125 9.845625 -2.85625 10.69125 -3.8125 11.5625 C-5.39453125 13.00390625 -5.39453125 13.00390625 -7 14 C-7.99 13.67 -8.98 13.34 -10 13 C-9.48223379 8.89552608 -7.35372556 7.04300477 -4.4375 4.25 C-3.61121094 3.45078125 -2.78492188 2.6515625 -1.93359375 1.828125 C-1.29550781 1.22484375 -0.65742188 0.6215625 0 0 Z " fill="#000000" transform="translate(139,653)"/>
<path d="M0 0 C0.66 0.33 1.32 0.66 2 1 C2.19300215 8.98314068 1.58262324 16.80682712 0.828125 24.75 C0.7038014 26.1020142 0.58011622 27.45408724 0.45701599 28.80621338 C0.1939169 31.69551978 -0.07066655 34.58468355 -0.33633423 37.47375488 C-2.64755414 62.68981207 -4.67018721 87.911409 -6.18830872 113.18804932 C-6.30979247 115.20504678 -6.43349644 117.22191012 -6.55725098 119.23876953 C-7.45298305 133.96037334 -8.1502403 148.68063429 -8.60546875 163.421875 C-8.62660547 164.09154549 -8.6477422 164.76121597 -8.66951942 165.4511795 C-9.08999469 179.05352481 -9.25363889 192.65416329 -8.5625 206.25 C-8.52318359 207.14589844 -8.48386719 208.04179687 -8.44335938 208.96484375 C-8.40146484 209.82722656 -8.35957031 210.68960938 -8.31640625 211.578125 C-8.27974854 212.33512695 -8.24309082 213.09212891 -8.20532227 213.87207031 C-8.00009388 215.99902707 -7.57276061 217.94423493 -7 220 C-6.34 219.01 -5.68 218.02 -5 217 C-4.01 217 -3.02 217 -2 217 C-3.15585285 220.91211733 -4.35534962 223.8745041 -7 227 C-10.93619738 226.43768609 -13.79192446 225.38314183 -17 223 C-17 222.01 -17 221.02 -17 220 C-14.83125748 220.50603992 -13.00032373 220.99983813 -11 222 C-11.16008545 221.11352783 -11.3201709 220.22705566 -11.48510742 219.3137207 C-12.29826679 213.56510457 -12.20227484 207.77553912 -12.23828125 201.98046875 C-12.25297203 200.03558311 -12.25297203 200.03558311 -12.26795959 198.05140686 C-12.29587936 193.76344821 -12.30672881 189.47554008 -12.3125 185.1875 C-12.31365059 184.44749252 -12.31480118 183.70748505 -12.31598663 182.9450531 C-12.37786996 125.45873724 -7.21278143 68.20990712 -2 11 C-1.9122934 9.9888916 -1.82458679 8.9777832 -1.73422241 7.93603516 C-1.65136993 7.02515137 -1.56851746 6.11426758 -1.4831543 5.17578125 C-1.4133989 4.38727783 -1.34364349 3.59877441 -1.27177429 2.78637695 C-1 1 -1 1 0 0 Z " fill="#000000" transform="translate(440,82)"/>
<path d="M0 0 C2.88417214 1.79017581 4.17791215 4.20609312 5.8125 7.125 C5.8125 8.115 5.8125 9.105 5.8125 10.125 C4.8225 10.125 3.8325 10.125 2.8125 10.125 C2.1525 9.135 1.4925 8.145 0.8125 7.125 C0.64758057 7.65005127 0.48266113 8.17510254 0.31274414 8.71606445 C-1.47814537 14.40667855 -3.29033727 20.09024005 -5.11376953 25.77050781 C-5.83249447 28.01591043 -6.5469813 30.26267382 -7.25732422 32.51074219 C-15.35610771 58.08930871 -24.44986302 79.60499822 -43.1875 99.125 C-43.8475 98.795 -44.5075 98.465 -45.1875 98.125 C-43.59578029 94.39932638 -41.23481554 91.7697993 -38.5625 88.75 C-33.11236866 82.37852519 -29.03867197 75.55712244 -25.1875 68.125 C-24.62675781 67.07957031 -24.06601562 66.03414063 -23.48828125 64.95703125 C-14.1295754 46.34869537 -8.36318663 25.22845649 -3.1875 5.125 C-4.1775 5.785 -5.1675 6.445 -6.1875 7.125 C-7.1775 7.125 -8.1675 7.125 -9.1875 7.125 C-9.1875 6.135 -9.1875 5.145 -9.1875 4.125 C-2.9534372 0.16876784 -2.9534372 0.16876784 0 0 Z " fill="#000000" transform="translate(471.1875,298.875)"/>
<path d="M0 0 C1.4540625 0.0309375 1.4540625 0.0309375 2.9375 0.0625 C5.0625 4.6875 5.0625 4.6875 3.9375 8.0625 C4.26300502 9.73071323 4.59596063 11.39749557 4.9375 13.0625 C4.6075 13.7225 4.2775 14.3825 3.9375 15.0625 C1.125 15.9375 1.125 15.9375 -2.0625 16.0625 C-4.4375 14.125 -4.4375 14.125 -6.0625 12.0625 C-2.43923261 10.8547442 -1.42103631 11.51938872 1.9375 13.0625 C1.9375 11.7425 1.9375 10.4225 1.9375 9.0625 C0.6175 9.0625 -0.7025 9.0625 -2.0625 9.0625 C-2.0625 8.0725 -2.0625 7.0825 -2.0625 6.0625 C-0.7425 6.0625 0.5775 6.0625 1.9375 6.0625 C1.6075 5.0725 1.2775 4.0825 0.9375 3.0625 C-1.0425 3.7225 -3.0225 4.3825 -5.0625 5.0625 C-3.9375 0.08035714 -3.9375 0.08035714 0 0 Z " fill="#000000" transform="translate(188.0625,731.9375)"/>
<path d="M0 0 C3.0625 0.1875 3.0625 0.1875 5.0625 2.1875 C4.90004442 5.92397845 4.47466356 7.71288742 2 10.5625 C1.360625 11.09875 0.72125 11.635 0.0625 12.1875 C1.7125 12.5175 3.3625 12.8475 5.0625 13.1875 C5.0625 13.8475 5.0625 14.5075 5.0625 15.1875 C1.7625 15.1875 -1.5375 15.1875 -4.9375 15.1875 C-2.9375 11.1875 -2.9375 11.1875 -0.8125 8.625 C1.36735538 6.30372611 1.36735538 6.30372611 1.0625 3.1875 C0.4025 3.1875 -0.2575 3.1875 -0.9375 3.1875 C-1.2675 3.8475 -1.5975 4.5075 -1.9375 5.1875 C-2.9275 5.1875 -3.9175 5.1875 -4.9375 5.1875 C-3.82120474 0.24390669 -3.82120474 0.24390669 0 0 Z " fill="#000000" transform="translate(461.9375,185.8125)"/>
<path d="M0 0 C0.99 0 1.98 0 3 0 C3 3.3 3 6.6 3 10 C3.66 10 4.32 10 5 10 C5 10.66 5 11.32 5 12 C4.34 12 3.68 12 3 12 C3 12.99 3 13.98 3 15 C2.34 15 1.68 15 1 15 C1 14.01 1 13.02 1 12 C-1.31 12 -3.62 12 -6 12 C-5.56629155 7.2292071 -3.35665609 3.36635741 0 0 Z M0 4 C-0.99 5.98 -1.98 7.96 -3 10 C-1.68 10 -0.36 10 1 10 C1 8.02 1 6.04 1 4 C0.67 4 0.34 4 0 4 Z " fill="#000000" transform="translate(443,328)"/>
<path d="M0 0 C1.65 0 3.3 0 5 0 C5.33 3.63 5.66 7.26 6 11 C5.01 11.33 4.02 11.66 3 12 C2.67 10.35 2.34 8.7 2 7 C1.34 8.65 0.68 10.3 0 12 C-0.66 11.67 -1.32 11.34 -2 11 C-1.85892253 9.54119891 -1.71197585 8.08296449 -1.5625 6.625 C-1.48128906 5.81289062 -1.40007812 5.00078125 -1.31640625 4.1640625 C-1 2 -1 2 0 0 Z " fill="#000000" transform="translate(353,76)"/>
<path d="M0 0 C0 4.95 0 9.9 0 15 C-0.99 15 -1.98 15 -3 15 C-3 11.37 -3 7.74 -3 4 C-3.99 4.33 -4.98 4.66 -6 5 C-5.625 3.0625 -5.625 3.0625 -5 1 C-3 0 -3 0 0 0 Z " fill="#000000" transform="translate(175,732)"/>
<path d="M0 0 C0 4.95 0 9.9 0 15 C-0.99 15 -1.98 15 -3 15 C-3 11.37 -3 7.74 -3 4 C-3.99 4.33 -4.98 4.66 -6 5 C-5.625 3.0625 -5.625 3.0625 -5 1 C-3 0 -3 0 0 0 Z " fill="#000000" transform="translate(7,469)"/>
<path d="M0 0 C0 4.95 0 9.9 0 15 C-0.99 15 -1.98 15 -3 15 C-3 11.37 -3 7.74 -3 4 C-3.99 4.33 -4.98 4.66 -6 5 C-5.625 3.0625 -5.625 3.0625 -5 1 C-3 0 -3 0 0 0 Z " fill="#000000" transform="translate(429,328)"/>
<path d="M0 0 C0 4.95 0 9.9 0 15 C-0.99 15 -1.98 15 -3 15 C-3 11.37 -3 7.74 -3 4 C-3.99 4.33 -4.98 4.66 -6 5 C-5.625 3.0625 -5.625 3.0625 -5 1 C-3 0 -3 0 0 0 Z " fill="#000000" transform="translate(449,186)"/>
<path d="M0 0 C0 4.95 0 9.9 0 15 C-0.66 15 -1.32 15 -2 15 C-2.33 11.37 -2.66 7.74 -3 4 C-3.99 4.33 -4.98 4.66 -6 5 C-6 4.01 -6 3.02 -6 2 C-3 0 -3 0 0 0 Z " fill="#000000" transform="translate(19,469)"/>
<path d="M0 0 C0.99 0.33 1.98 0.66 3 1 C1.64458676 5.06623972 -0.57009469 6.53046818 -4 9 C-4.99 8.67 -5.98 8.34 -7 8 C-5.64458676 3.93376028 -3.42990531 2.46953182 0 0 Z " fill="#000000" transform="translate(225,422)"/>
<path d="M0 0 C0.99 0 1.98 0 3 0 C3 3.96 3 7.92 3 12 C2.01 12 1.02 12 0 12 C0 8.04 0 4.08 0 0 Z " fill="#000000" transform="translate(361,322)"/>
<path d="M0 0 C0.66 0.33 1.32 0.66 2 1 C0.50164772 5.66154042 -2.88463591 6.86610751 -7 9 C-7 7.68 -7 6.36 -7 5 C-5.46875 3.515625 -5.46875 3.515625 -3.5 2.25 C-2.8503125 1.82203125 -2.200625 1.3940625 -1.53125 0.953125 C-1.0259375 0.63859375 -0.520625 0.3240625 0 0 Z " fill="#000000" transform="translate(218,565)"/>
<path d="M0 0 C0.99 0.33 1.98 0.66 3 1 C1.625 3 1.625 3 0 5 C-0.66 5 -1.32 5 -2 5 C-2.66 6.32 -3.32 7.64 -4 9 C-4.99 8.67 -5.98 8.34 -7 8 C-3.375 2.25 -3.375 2.25 0 0 Z " fill="#000000" transform="translate(462,435)"/>
<path d="M0 0 C0.515625 0.2475 1.03125 0.495 1.5625 0.75 C-0.91335238 3.40269897 -3.02776101 5.43010103 -6.4375 6.75 C-7.4275 6.75 -8.4175 6.75 -9.4375 6.75 C-9.4375 5.76 -9.4375 4.77 -9.4375 3.75 C-3.0375 -0.31153846 -3.0375 -0.31153846 0 0 Z " fill="#000000" transform="translate(210.4375,435.25)"/>
<path d="M0 0 C-0.50522222 4.37859255 -3.17827222 6.81651224 -6 10 C-6.99 9.67 -7.98 9.34 -9 9 C-7.45665977 5.21180126 -4.44676575 0 0 0 Z " fill="#000000" transform="translate(242,407)"/>
<path d="M0 0 C0.99 0.33 1.98 0.66 3 1 C1.6062718 5.43458973 -0.60582235 7.87378374 -4 11 C-4.65234375 9.234375 -4.65234375 9.234375 -5 7 C-4.00390625 5.078125 -4.00390625 5.078125 -2.5625 3.25 C-2.08941406 2.63640625 -1.61632812 2.0228125 -1.12890625 1.390625 C-0.75636719 0.93171875 -0.38382813 0.4728125 0 0 Z " fill="#000000" transform="translate(252,390)"/>
<path d="M0 0 C0.99 0 1.98 0 3 0 C1.86059291 3.85645478 0.82205934 7.06505829 -2 10 C-2.99 10 -3.98 10 -5 10 C-3.66786942 6.4134946 -2.23083941 3.12317517 0 0 Z " fill="#000000" transform="translate(263,373)"/>
<path d="M0 0 C-1.49835228 4.66154042 -4.88463591 5.86610751 -9 8 C-9 6.68 -9 5.36 -9 4 C-4 0 -4 0 0 0 Z " fill="#000000" transform="translate(298,653)"/>
<path d="M0 0 C0.66 0 1.32 0 2 0 C2.99 3.63 3.98 7.26 5 11 C3.68 10.67 2.36 10.34 1 10 C0.63883954 8.5225254 0.28624952 7.04295325 -0.0625 5.5625 C-0.25972656 4.73878906 -0.45695313 3.91507813 -0.66015625 3.06640625 C-0.82837891 2.04353516 -0.82837891 2.04353516 -1 1 C-0.67 0.67 -0.34 0.34 0 0 Z " fill="#000000" transform="translate(190,615)"/>
<path d="M0 0 C0.99 0.33 1.98 0.66 3 1 C1.02 3.97 -0.96 6.94 -3 10 C-3.99 9.67 -4.98 9.34 -6 9 C-4.47291037 5.56404834 -2.40072955 2.88087546 0 0 Z " fill="#000000" transform="translate(202,578)"/>
<path d="M0 0 C0 0.66 0 1.32 0 2 C-4.95 3.485 -4.95 3.485 -10 5 C-10.33 4.01 -10.66 3.02 -11 2 C-9.73392393 1.46770674 -8.46189588 0.94955456 -7.1875 0.4375 C-6.47980469 0.14746094 -5.77210938 -0.14257812 -5.04296875 -0.44140625 C-3 -1 -3 -1 0 0 Z " fill="#000000" transform="translate(295,537)"/>
<path d="M0 0 C0 0.66 0 1.32 0 2 C-6.5 5 -6.5 5 -11 5 C-11 4.01 -11 3.02 -11 2 C-9.54494642 1.47007308 -8.08581873 0.9513211 -6.625 0.4375 C-5.81289063 0.14746094 -5.00078125 -0.14257812 -4.1640625 -0.44140625 C-2 -1 -2 -1 0 0 Z " fill="#000000" transform="translate(314,530)"/>
<path d="M0 0 C0 0.66 0 1.32 0 2 C-3.3 3.32 -6.6 4.64 -10 6 C-10 4.68 -10 3.36 -10 2 C-3.375 -1.125 -3.375 -1.125 0 0 Z " fill="#000000" transform="translate(351,515)"/>
<path d="M0 0 C0.66 0.33 1.32 0.66 2 1 C0.52440331 5.42679007 -1.90057368 5.91432696 -6 8 C-6.66 8 -7.32 8 -8 8 C-7.9375 6.25 -7.9375 6.25 -7 4 C-4.74876994 2.27481113 -2.59865097 1.23093993 0 0 Z " fill="#000000" transform="translate(402,486)"/>
<path d="M0 0 C0.66 0.99 1.32 1.98 2 3 C-0.52475462 4.26237731 -2.31200466 4.09856404 -5.125 4.0625 C-6.03507813 4.05347656 -6.94515625 4.04445313 -7.8828125 4.03515625 C-8.58148438 4.02355469 -9.28015625 4.01195312 -10 4 C-10 3.01 -10 2.02 -10 1 C-6.7 0.67 -3.4 0.34 0 0 Z " fill="#000000" transform="translate(171,448)"/>
<path d="M0 0 C2.61885488 2.36944013 4.41866551 4.83733102 6 8 C5.67 8.99 5.34 9.98 5 11 C4.34 11 3.68 11 3 11 C-1.06153846 4.6 -1.06153846 4.6 -0.75 1.5625 C-0.5025 1.046875 -0.255 0.53125 0 0 Z " fill="#000000" transform="translate(96,407)"/>
<path d="M0 0 C0.99 0 1.98 0 3 0 C3.66 3.3 4.32 6.6 5 10 C4.01 10.33 3.02 10.66 2 11 C0.80712589 7.12315913 0 4.08378077 0 0 Z " fill="#000000" transform="translate(82,370)"/>
<path d="M0 0 C0.99 0.33 1.98 0.66 3 1 C2.01 4.3 1.02 7.6 0 11 C-0.99 11 -1.98 11 -3 11 C-2.69217504 9.35328588 -2.37860766 7.70764424 -2.0625 6.0625 C-1.88847656 5.14597656 -1.71445312 4.22945313 -1.53515625 3.28515625 C-1 1 -1 1 0 0 Z " fill="#000000" transform="translate(293,296)"/>
<path d="M0 0 C0.99 0 1.98 0 3 0 C2 7.42857143 2 7.42857143 1 11 C0.01 11 -0.98 11 -2 11 C-1.125 3.375 -1.125 3.375 0 0 Z " fill="#000000" transform="translate(304,256)"/>
<path d="M0 0 C0.99 0.33 1.98 0.66 3 1 C2.34 4.63 1.68 8.26 1 12 C0.01 11.67 -0.98 11.34 -2 11 C-1.34 7.37 -0.68 3.74 0 0 Z " fill="#000000" transform="translate(348,96)"/>
<path d="M0 0 C0 0.99 0 1.98 0 3 C-3.87684087 4.19287411 -6.91621923 5 -11 5 C-11 4.01 -11 3.02 -11 2 C-3.375 0 -3.375 0 0 0 Z " fill="#000000" transform="translate(280,662)"/>
<path d="M0 0 C4.2742558 1.5830577 6.26531794 4.50568404 9 8 C8.01 8.33 7.02 8.66 6 9 C2.8291869 7.0371157 1.25841636 5.87464 0.1875 2.25 C0.125625 1.5075 0.06375 0.765 0 0 Z " fill="#000000" transform="translate(197,634)"/>
<path d="M0 0 C0.99 0 1.98 0 3 0 C1.66511872 3.59391114 0.03977277 6.75490696 -2 10 C-2.99 9.67 -3.98 9.34 -5 9 C-3.35 6.03 -1.7 3.06 0 0 Z " fill="#000000" transform="translate(321,622)"/>
<path d="M0 0 C0.99 0.33 1.98 0.66 3 1 C2.34 4.3 1.68 7.6 1 11 C0.01 11 -0.98 11 -2 11 C-1.85892253 9.54119891 -1.71197585 8.08296449 -1.5625 6.625 C-1.48128906 5.81289063 -1.40007812 5.00078125 -1.31640625 4.1640625 C-1 2 -1 2 0 0 Z " fill="#000000" transform="translate(191,595)"/>
<path d="M0 0 C0.99 0.33 1.98 0.66 3 1 C2.34 3.97 1.68 6.94 1 10 C-0.32 10.33 -1.64 10.66 -3 11 C-2.01 7.37 -1.02 3.74 0 0 Z " fill="#000000" transform="translate(343,565)"/>
<path d="M0 0 C0 0.66 0 1.32 0 2 C-6.5 5 -6.5 5 -11 5 C-11 4.01 -11 3.02 -11 2 C-9.54494642 1.47007308 -8.08581873 0.9513211 -6.625 0.4375 C-5.81289062 0.14746094 -5.00078125 -0.14257812 -4.1640625 -0.44140625 C-2 -1 -2 -1 0 0 Z " fill="#000000" transform="translate(257,549)"/>
<path d="M0 0 C0 0.66 0 1.32 0 2 C-1.45706726 2.50367757 -2.91570096 3.00282556 -4.375 3.5 C-5.59316406 3.91765625 -5.59316406 3.91765625 -6.8359375 4.34375 C-9 5 -9 5 -11 5 C-11 4.01 -11 3.02 -11 2 C-9.54494642 1.47007308 -8.08581873 0.9513211 -6.625 0.4375 C-5.81289063 0.14746094 -5.00078125 -0.14257812 -4.1640625 -0.44140625 C-2 -1 -2 -1 0 0 Z " fill="#000000" transform="translate(276,543)"/>
<path d="M0 0 C0.99 0 1.98 0 3 0 C2.34 3.63 1.68 7.26 1 11 C0.01 11 -0.98 11 -2 11 C-1.85892253 9.54119891 -1.71197585 8.08296449 -1.5625 6.625 C-1.48128906 5.81289063 -1.40007812 5.00078125 -1.31640625 4.1640625 C-1 2 -1 2 0 0 Z " fill="#000000" transform="translate(352,526)"/>
<path d="M0 0 C0 0.99 0 1.98 0 3 C-6.625 6 -6.625 6 -10 6 C-10 5.01 -10 4.02 -10 3 C-3.375 0 -3.375 0 0 0 Z " fill="#000000" transform="translate(332,522)"/>
<path d="M0 0 C-1 3 -1 3 -3.8125 4.75 C-6.96403086 5.98589446 -7.96929372 6.28222189 -11 5 C-7.56138316 1.21752148 -5.17193751 0 0 0 Z " fill="#000000" transform="translate(369,506)"/>
<path d="M0 0 C0.99 0 1.98 0 3 0 C2.67 3.63 2.34 7.26 2 11 C1.01 11 0.02 11 -1 11 C-1.14285714 3.57142857 -1.14285714 3.57142857 0 0 Z " fill="#000000" transform="translate(355,506)"/>
<path d="M0 0 C0.33 0.99 0.66 1.98 1 3 C-5.5 7 -5.5 7 -10 7 C-8.60449526 2.81348579 -4.64858615 0 0 0 Z " fill="#000000" transform="translate(386,496)"/>
<path d="M0 0 C0.66 0.99 1.32 1.98 2 3 C0.90241493 3.84198307 -0.20335317 4.67330671 -1.3125 5.5 C-1.92738281 5.9640625 -2.54226563 6.428125 -3.17578125 6.90625 C-5 8 -5 8 -8 8 C-8 7.01 -8 6.02 -8 5 C-6.25 3.61328125 -6.25 3.61328125 -4 2.3125 C-3.2575 1.87550781 -2.515 1.43851562 -1.75 0.98828125 C-1.1725 0.66214844 -0.595 0.33601563 0 0 Z " fill="#000000" transform="translate(419,475)"/>
<path d="M0 0 C0 0.99 0 1.98 0 3 C-5.445 4.485 -5.445 4.485 -11 6 C-10.67 4.68 -10.34 3.36 -10 2 C-3.375 0 -3.375 0 0 0 Z " fill="#000000" transform="translate(193,444)"/>
<path d="M0 0 C0.99 0 1.98 0 3 0 C3 3.63 3 7.26 3 11 C2.01 11 1.02 11 0 11 C0 7.37 0 3.74 0 0 Z " fill="#000000" transform="translate(361,425)"/>
<path d="M0 0 C0.99 0 1.98 0 3 0 C1.68775452 3.93673644 0.08089673 6.22719294 -3 9 C-3.99 8.67 -4.98 8.34 -6 8 C-5.07456291 6.65826597 -4.13422595 5.32679841 -3.1875 4 C-2.66542969 3.2575 -2.14335937 2.515 -1.60546875 1.75 C-0.81076172 0.88375 -0.81076172 0.88375 0 0 Z " fill="#000000" transform="translate(475,421)"/>
<path d="M0 0 C0.99 0 1.98 0 3 0 C1.6062718 4.43458973 -0.60582235 6.87378374 -4 10 C-5 7 -5 7 -4.109375 5.17578125 C-3.66078125 4.56089844 -3.2121875 3.94601562 -2.75 3.3125 C-2.31171875 2.68988281 -1.8734375 2.06726563 -1.421875 1.42578125 C-0.95265625 0.95527344 -0.4834375 0.48476563 0 0 Z " fill="#000000" transform="translate(487,405)"/>
<path d="M0 0 C0.99 0 1.98 0 3 0 C6.07692308 6.4 6.07692308 6.4 5.6875 9.4375 C5.460625 9.953125 5.23375 10.46875 5 11 C1.19015156 8.22920113 0.93159248 4.37131855 0 0 Z " fill="#000000" transform="translate(87,389)"/>
<path d="M0 0 C0.99 0 1.98 0 3 0 C3 3.63 3 7.26 3 11 C2.01 11 1.02 11 0 11 C0 7.37 0 3.74 0 0 Z " fill="#000000" transform="translate(362,384)"/>
<path d="M0 0 C0.66 0.33 1.32 0.66 2 1 C1.43454163 4.95820859 0.19097652 7.6659053 -2 11 C-2.99 10.67 -3.98 10.34 -5 10 C-3.35 6.7 -1.7 3.4 0 0 Z " fill="#000000" transform="translate(518,353)"/>
<path d="M0 0 C0.66 0 1.32 0 2 0 C2.66 3.63 3.32 7.26 4 11 C2.68 10.67 1.36 10.34 0 10 C-0.19412181 8.52168779 -0.38012131 7.04230684 -0.5625 5.5625 C-0.66691406 4.73878906 -0.77132812 3.91507812 -0.87890625 3.06640625 C-0.91886719 2.38449219 -0.95882812 1.70257813 -1 1 C-0.67 0.67 -0.34 0.34 0 0 Z " fill="#000000" transform="translate(79,350)"/>
<path d="M0 0 C0.99 0 1.98 0 3 0 C3 3.63 3 7.26 3 11 C2.01 11 1.02 11 0 11 C0 7.37 0 3.74 0 0 Z " fill="#000000" transform="translate(361,343)"/>
<path d="M0 0 C0.99 0.33 1.98 0.66 3 1 C2.01 4.3 1.02 7.6 0 11 C-0.99 11 -1.98 11 -3 11 C-2.32829194 7.1936543 -1.27253436 3.64793184 0 0 Z " fill="#000000" transform="translate(281,335)"/>
<path d="M0 0 C0.99 0 1.98 0 3 0 C2.01 3.63 1.02 7.26 0 11 C-0.99 10.67 -1.98 10.34 -3 10 C-2.69201674 8.51988629 -2.378482 7.04092675 -2.0625 5.5625 C-1.88847656 4.73878906 -1.71445312 3.91507812 -1.53515625 3.06640625 C-1 1 -1 1 0 0 Z " fill="#000000" transform="translate(287,316)"/>
<path d="M0 0 C0.99 0 1.98 0 3 0 C3.33 3.63 3.66 7.26 4 11 C3.01 11 2.02 11 1 11 C0.67 7.37 0.34 3.74 0 0 Z " fill="#000000" transform="translate(73,311)"/>
<path d="M0 0 C0.99 0 1.98 0 3 0 C3 3.63 3 7.26 3 11 C2.01 11 1.02 11 0 11 C0 7.37 0 3.74 0 0 Z " fill="#000000" transform="translate(361,302)"/>
<path d="M0 0 C0.99 0 1.98 0 3 0 C3 3.63 3 7.26 3 11 C2.01 11 1.02 11 0 11 C0 7.37 0 3.74 0 0 Z " fill="#000000" transform="translate(72,291)"/>
<path d="M0 0 C0.99 0 1.98 0 3 0 C3 3.96 3 7.92 3 12 C2.34 12 1.68 12 1 12 C0.03929566 9.11788698 -0.10581883 7.30149956 -0.0625 4.3125 C-0.05347656 3.50425781 -0.04445313 2.69601562 -0.03515625 1.86328125 C-0.02355469 1.24839844 -0.01195312 0.63351562 0 0 Z " fill="#000000" transform="translate(360,281)"/>
<path d="M0 0 C0.66 0 1.32 0 2 0 C1.125 7.625 1.125 7.625 0 11 C-0.99 11 -1.98 11 -3 11 C-2.53199289 6.94393835 -2.12046792 3.53411321 0 0 Z " fill="#000000" transform="translate(299,276)"/>
<path d="M0 0 C0.99 0 1.98 0 3 0 C3 3.63 3 7.26 3 11 C2.01 11 1.02 11 0 11 C0 7.37 0 3.74 0 0 Z " fill="#000000" transform="translate(71,271)"/>
<path d="M0 0 C0.99 0 1.98 0 3 0 C3 3.63 3 7.26 3 11 C2.01 11 1.02 11 0 11 C0 7.37 0 3.74 0 0 Z " fill="#000000" transform="translate(360,261)"/>
<path d="M0 0 C0.99 0 1.98 0 3 0 C3 3.63 3 7.26 3 11 C2.01 11 1.02 11 0 11 C0 7.37 0 3.74 0 0 Z " fill="#000000" transform="translate(70,231)"/>
<path d="M0 0 C0.99 0 1.98 0 3 0 C3 3.63 3 7.26 3 11 C2.01 11 1.02 11 0 11 C0 7.37 0 3.74 0 0 Z " fill="#000000" transform="translate(359,220)"/>
<path d="M0 0 C0.99 0 1.98 0 3 0 C3 3.63 3 7.26 3 11 C2.01 11 1.02 11 0 11 C0 7.37 0 3.74 0 0 Z " fill="#000000" transform="translate(71,191)"/>
<path d="M0 0 C0.99 0 1.98 0 3 0 C3 3.63 3 7.26 3 11 C2.01 11 1.02 11 0 11 C0 7.37 0 3.74 0 0 Z " fill="#000000" transform="translate(358,179)"/>
<path d="M0 0 C0.99 0.33 1.98 0.66 3 1 C2.71758359 2.46015291 2.42373386 3.91809793 2.125 5.375 C1.96257812 6.18710938 1.80015625 6.99921875 1.6328125 7.8359375 C1 10 1 10 -1 12 C-1.66 11.34 -2.32 10.68 -3 10 C-2.01 6.7 -1.02 3.4 0 0 Z " fill="#000000" transform="translate(327,176)"/>
<path d="M0 0 C0.99 0 1.98 0 3 0 C3 3.63 3 7.26 3 11 C2.01 11 1.02 11 0 11 C0 7.37 0 3.74 0 0 Z " fill="#000000" transform="translate(72,171)"/>
<path d="M0 0 C0.66 0.33 1.32 0.66 2 1 C1 8.42857143 1 8.42857143 0 12 C-0.99 11.67 -1.98 11.34 -3 11 C-2.69217504 9.35328588 -2.37860766 7.70764424 -2.0625 6.0625 C-1.88847656 5.14597656 -1.71445312 4.22945312 -1.53515625 3.28515625 C-1 1 -1 1 0 0 Z " fill="#000000" transform="translate(333,156)"/>
<path d="M0 0 C0.99 0 1.98 0 3 0 C3 3.63 3 7.26 3 11 C2.01 11 1.02 11 0 11 C0 7.37 0 3.74 0 0 Z " fill="#000000" transform="translate(357,138)"/>
<path d="M0 0 C0.99 0.33 1.98 0.66 3 1 C2.34 4.3 1.68 7.6 1 11 C0.01 11 -0.98 11 -2 11 C-1 3.57142857 -1 3.57142857 0 0 Z " fill="#000000" transform="translate(343,116)"/>
<path d="M0 0 C0.99 0 1.98 0 3 0 C3 3.63 3 7.26 3 11 C2.01 11 1.02 11 0 11 C0 7.37 0 3.74 0 0 Z " fill="#000000" transform="translate(356,97)"/>
<path d="M0 0 C3.63 0.33 7.26 0.66 11 1 C11 1.99 11 2.98 11 4 C9.741875 4.020625 8.48375 4.04125 7.1875 4.0625 C6.47980469 4.07410156 5.77210938 4.08570313 5.04296875 4.09765625 C3 4 3 4 0 3 C0 2.01 0 1.02 0 0 Z " fill="#000000" transform="translate(249,663)"/>
<path d="M0 0 C3.55780196 0.60990891 6.6828589 1.5783681 10 3 C10 3.99 10 4.98 10 6 C6.44219804 5.39009109 3.3171411 4.4216319 0 3 C0 2.01 0 1.02 0 0 Z " fill="#000000" transform="translate(230,657)"/>
<path d="M0 0 C3.45925163 1.2491742 6.14693203 2.67527795 9 5 C8.67 5.99 8.34 6.98 8 8 C5.03 6.35 2.06 4.7 -1 3 C-0.67 2.01 -0.34 1.02 0 0 Z " fill="#000000" transform="translate(213,647)"/>
<path d="M0 0 C0.99 0 1.98 0 3 0 C1.8905928 3.48670834 0.73662334 6.77484237 -1 10 C-1.99 10 -2.98 10 -4 10 C-3.52449439 8.51965236 -3.04448784 7.04074979 -2.5625 5.5625 C-2.29566406 4.73878906 -2.02882813 3.91507813 -1.75390625 3.06640625 C-1 1 -1 1 0 0 Z " fill="#000000" transform="translate(330,604)"/>
<path d="M0 0 C0.99 0 1.98 0 3 0 C2.32829194 3.8063457 1.27253436 7.35206816 0 11 C-0.99 10.67 -1.98 10.34 -3 10 C-2.01 6.7 -1.02 3.4 0 0 Z " fill="#000000" transform="translate(337,585)"/>
<path d="M0 0 C0 0.66 0 1.32 0 2 C-3.3 3.32 -6.6 4.64 -10 6 C-10.33 5.01 -10.66 4.02 -11 3 C-9.73581754 2.30034557 -8.46334598 1.61565237 -7.1875 0.9375 C-6.47980469 0.55464844 -5.77210938 0.17179688 -5.04296875 -0.22265625 C-3 -1 -3 -1 0 0 Z " fill="#000000" transform="translate(238,557)"/>
<path d="M0 0 C0.99 0 1.98 0 3 0 C2.34 3.63 1.68 7.26 1 11 C0.01 10.67 -0.98 10.34 -2 10 C-1.125 2.25 -1.125 2.25 0 0 Z " fill="#000000" transform="translate(348,546)"/>
<path d="M0 0 C-0.17625835 2.37948772 -0.69719773 3.70225849 -2.40234375 5.37890625 C-3.90649092 6.62115486 -5.45129851 7.81376056 -7 9 C-7.66 8.67 -8.32 8.34 -9 8 C-7.47364599 4.11473526 -4.49771687 0 0 0 Z " fill="#000000" transform="translate(436,463)"/>
<path d="M0 0 C4.95 0.99 4.95 0.99 10 2 C10.33 2.99 10.66 3.98 11 5 C9.54119891 4.85892253 8.08296449 4.71197585 6.625 4.5625 C5.40683594 4.44068359 5.40683594 4.44068359 4.1640625 4.31640625 C2 4 2 4 0 3 C0 2.01 0 1.02 0 0 Z " fill="#000000" transform="translate(141,445)"/>
<path d="M0 0 C3.66881155 0.70554068 6.70450534 2.27735506 10 4 C10 4.99 10 5.98 10 7 C5.94718288 5.77472971 2.55639236 4.30119506 -1 2 C-0.67 1.34 -0.34 0.68 0 0 Z " fill="#000000" transform="translate(122,437)"/>
<path d="M0 0 C3.43595166 1.52708963 6.11912454 3.59927045 9 6 C8.67 6.99 8.34 7.98 8 9 C4.63704165 7.55873214 2.37072898 5.79407345 0 3 C0 2.01 0 1.02 0 0 Z " fill="#000000" transform="translate(106,424)"/>
<path d="M0 0 C0.99 0.33 1.98 0.66 3 1 C0.525 5.455 0.525 5.455 -2 10 C-2.99 9.67 -3.98 9.34 -5 9 C-4.3566152 7.686298 -3.71021785 6.37407102 -3.0625 5.0625 C-2.70285156 4.33160156 -2.34320313 3.60070312 -1.97265625 2.84765625 C-1 1 -1 1 0 0 Z " fill="#000000" transform="translate(498,388)"/>
<path d="M0 0 C0.99 0.33 1.98 0.66 3 1 C1.68 3.64 0.36 6.28 -1 9 C-2.32 9 -3.64 9 -5 9 C-3.35 6.03 -1.7 3.06 0 0 Z " fill="#000000" transform="translate(508,371)"/>
<path d="M0 0 C0.99 0.33 1.98 0.66 3 1 C2.34 3.97 1.68 6.94 1 10 C-0.32 10.33 -1.64 10.66 -3 11 C-2.01 7.37 -1.02 3.74 0 0 Z " fill="#000000" transform="translate(310,236)"/>
<path d="M0 0 C0.99 0.33 1.98 0.66 3 1 C2.01 4.3 1.02 7.6 0 11 C-0.99 11 -1.98 11 -3 11 C-2.69078116 9.54096742 -2.37751201 8.08279278 -2.0625 6.625 C-1.88847656 5.81289062 -1.71445312 5.00078125 -1.53515625 4.1640625 C-1 2 -1 2 0 0 Z " fill="#000000" transform="translate(316,216)"/>
<path d="M0 0 C0.66 0.33 1.32 0.66 2 1 C1.34 4.3 0.68 7.6 0 11 C-0.99 11 -1.98 11 -3 11 C-2.69217504 9.35328588 -2.37860766 7.70764424 -2.0625 6.0625 C-1.88847656 5.14597656 -1.71445312 4.22945312 -1.53515625 3.28515625 C-1 1 -1 1 0 0 Z " fill="#000000" transform="translate(322,196)"/>
<path d="M0 0 C0.66 0 1.32 0 2 0 C2 3.63 2 7.26 2 11 C1.01 11 0.02 11 -1 11 C-1.02688151 9.35425434 -1.04634123 7.70838587 -1.0625 6.0625 C-1.07410156 5.14597656 -1.08570312 4.22945312 -1.09765625 3.28515625 C-1 1 -1 1 0 0 Z " fill="#000000" transform="translate(74,151)"/>
<path d="M0 0 C0.99 0.33 1.98 0.66 3 1 C2.01 4.63 1.02 8.26 0 12 C-0.99 11.34 -1.98 10.68 -3 10 C-2.01 6.7 -1.02 3.4 0 0 Z " fill="#000000" transform="translate(338,136)"/>
<path d="M0 0 C0.66 0.33 1.32 0.66 2 1 C1.82374165 3.37948772 1.30280227 4.70225849 -0.40234375 6.37890625 C-1.90649092 7.62115486 -3.45129851 8.81376056 -5 10 C-5 4.69520066 -3.4637943 3.81017373 0 0 Z " fill="#000000" transform="translate(310,638)"/>
<path d="M0 0 C0.66 0 1.32 0 2 0 C2.0270043 1.45823212 2.04639787 2.91660675 2.0625 4.375 C2.07410156 5.18710937 2.08570313 5.99921875 2.09765625 6.8359375 C2 9 2 9 1 11 C0.01 10.67 -0.98 10.34 -2 10 C-1.85950482 8.52031676 -1.71245174 7.04125484 -1.5625 5.5625 C-1.48128906 4.73878906 -1.40007812 3.91507812 -1.31640625 3.06640625 C-1 1 -1 1 0 0 Z " fill="#000000" transform="translate(358,486)"/>
<path d="M0 0 C0.66 0 1.32 0 2 0 C2 3.3 2 6.6 2 10 C1.01 10.33 0.02 10.66 -1 11 C-1.02688151 9.35425434 -1.04634123 7.70838587 -1.0625 6.0625 C-1.07410156 5.14597656 -1.08570313 4.22945313 -1.09765625 3.28515625 C-1 1 -1 1 0 0 Z " fill="#000000" transform="translate(360,466)"/>
<path d="M0 0 C-1.5830577 4.2742558 -4.50568404 6.26531794 -8 9 C-8 5 -8 5 -5.6875 2.25 C-3 0 -3 0 0 0 Z " fill="#000000" transform="translate(451,450)"/>
<path d="M0 0 C0.99 0 1.98 0 3 0 C4.1577506 3.47325181 4.06866652 6.36067448 4 10 C3.01 10 2.02 10 1 10 C0.67 6.7 0.34 3.4 0 0 Z " fill="#000000" transform="translate(75,331)"/>
<path d="M0 0 C0.99 0.66 1.98 1.32 3 2 C1.35 4.97 -0.3 7.94 -2 11 C-2.66 11 -3.32 11 -4 11 C-3.39301257 6.87248551 -1.96189209 3.6678852 0 0 Z " fill="#000000" transform="translate(273,354)"/>
<path d="M0 0 C0.99 0 1.98 0 3 0 C3.125 7.625 3.125 7.625 2 11 C1.34 11 0.68 11 0 11 C0 7.37 0 3.74 0 0 Z " fill="#000000" transform="translate(71,211)"/>
<path d="M0 0 C0.66 0 1.32 0 2 0 C2.33 3.63 2.66 7.26 3 11 C2.01 11.33 1.02 11.66 0 12 C-0.19401633 10.18818595 -0.38004375 8.37551468 -0.5625 6.5625 C-0.66691406 5.55316406 -0.77132813 4.54382813 -0.87890625 3.50390625 C-0.91886719 2.67761719 -0.95882813 1.85132813 -1 1 C-0.67 0.67 -0.34 0.34 0 0 Z " fill="#000000" transform="translate(359,199)"/>
<path d="M0 0 C0.66 0 1.32 0 2 0 C2.33 3.63 2.66 7.26 3 11 C2.01 11.33 1.02 11.66 0 12 C-0.19401633 10.18818595 -0.38004375 8.37551468 -0.5625 6.5625 C-0.66691406 5.55316406 -0.77132813 4.54382813 -0.87890625 3.50390625 C-0.91886719 2.67761719 -0.95882813 1.85132813 -1 1 C-0.67 0.67 -0.34 0.34 0 0 Z " fill="#000000" transform="translate(358,158)"/>
<path d="M0 0 C0.99 0.33 1.98 0.66 3 1 C2.67 4.3 2.34 7.6 2 11 C1.01 11 0.02 11 -1 11 C-0.67 7.37 -0.34 3.74 0 0 Z " fill="#000000" transform="translate(361,445)"/>
<path d="M0 0 C0.66 0 1.32 0 2 0 C2.33 3.63 2.66 7.26 3 11 C2.01 11.33 1.02 11.66 0 12 C-0.19401633 10.18818595 -0.38004375 8.37551468 -0.5625 6.5625 C-0.66691406 5.55316406 -0.77132813 4.54382813 -0.87890625 3.50390625 C-0.91886719 2.67761719 -0.95882813 1.85132813 -1 1 C-0.67 0.67 -0.34 0.34 0 0 Z " fill="#000000" transform="translate(360,240)"/>
<path d="M0 0 C0.99 0 1.98 0 3 0 C2.67 3.3 2.34 6.6 2 10 C1.01 10 0.02 10 -1 10 C-0.67 6.7 -0.34 3.4 0 0 Z " fill="#000000" transform="translate(75,132)"/>
<path d="M0 0 C0.66 0 1.32 0 2 0 C2.33 3.63 2.66 7.26 3 11 C2.01 11.33 1.02 11.66 0 12 C-0.19401633 10.18818595 -0.38004375 8.37551468 -0.5625 6.5625 C-0.66691406 5.55316406 -0.77132813 4.54382813 -0.87890625 3.50390625 C-0.91886719 2.67761719 -0.95882813 1.85132812 -1 1 C-0.67 0.67 -0.34 0.34 0 0 Z " fill="#000000" transform="translate(357,117)"/>
<path d="M0 0 C0.99 0.33 1.98 0.66 3 1 C2.67 4.63 2.34 8.26 2 12 C1.34 12 0.68 12 0 12 C0 8.04 0 4.08 0 0 Z " fill="#000000" transform="translate(362,404)"/>
<path d="M0 0 C0.66 0 1.32 0 2 0 C2.33 3.63 2.66 7.26 3 11 C2.01 11.33 1.02 11.66 0 12 C0 8.04 0 4.08 0 0 Z " fill="#000000" transform="translate(362,363)"/>
<path d="M0 0 C0.99 0 1.98 0 3 0 C3.33 3.63 3.66 7.26 4 11 C3.01 11 2.02 11 1 11 C0.67 7.37 0.34 3.74 0 0 Z " fill="#000000" transform="translate(70,251)"/>
<path d="M0 0 C0.99 0 1.98 0 3 0 C3 1.98 3 3.96 3 6 C2.01 6 1.02 6 0 6 C0 4.02 0 2.04 0 0 Z " fill="#000000" transform="translate(355,61)"/>
<path d="M0 0 C0.66 0.33 1.32 0.66 2 1 C1.34 2.65 0.68 4.3 0 6 C-0.66 6 -1.32 6 -2 6 C-1.125 1.125 -1.125 1.125 0 0 Z " fill="#000000" transform="translate(525,340)"/>
<path d="M0 0 C0.99 0.33 1.98 0.66 3 1 C2.67 1.99 2.34 2.98 2 4 C1.01 3.01 0.02 2.02 -1 1 C-0.67 0.67 -0.34 0.34 0 0 Z " fill="#000000" transform="translate(178,744)"/>
<path d="M0 0 C0.99 0.33 1.98 0.66 3 1 C2.67 1.99 2.34 2.98 2 4 C1.01 3.01 0.02 2.02 -1 1 C-0.67 0.67 -0.34 0.34 0 0 Z " fill="#000000" transform="translate(10,481)"/>
<path d="M0 0 C0.99 0.33 1.98 0.66 3 1 C2.67 1.99 2.34 2.98 2 4 C1.01 3.01 0.02 2.02 -1 1 C-0.67 0.67 -0.34 0.34 0 0 Z " fill="#000000" transform="translate(432,340)"/>
<path d="M0 0 C0.99 0.33 1.98 0.66 3 1 C2.67 1.99 2.34 2.98 2 4 C1.01 3.01 0.02 2.02 -1 1 C-0.67 0.67 -0.34 0.34 0 0 Z " fill="#000000" transform="translate(452,198)"/>
</svg>
