<svg width="695" height="730" viewBox="0 0 695 730" fill="none" xmlns="http://www.w3.org/2000/svg">
<path d="M78.1569 47.7644C137.054 -25.3963 195.874 7.31128 217.922 32.8102L211.02 124.261C208.719 129.783 204.693 231.242 202.967 281.281V392.862L212.745 351.451C216.004 339.564 227.814 307.623 248.98 274.954C270.146 242.285 311.865 221.08 330.078 214.562C354.043 207.085 414.742 199.723 465.817 230.091C516.891 260.46 532.728 306.013 534.261 324.993C538.096 348.191 543.464 404.021 534.261 441.751C525.059 479.482 509.338 505.786 502.627 514.222C534.376 511.921 562.636 497.159 572.797 490.065C609.608 458.431 612.484 440.026 621.111 425.072C628.013 413.108 633.956 385.96 636.065 373.882C668.734 345.814 686.488 372.54 691.281 389.411C692.431 391.904 691.856 405.861 680.353 441.751C668.849 477.641 642.584 508.47 630.889 519.398C621.111 529.368 592.238 552.183 554.967 563.686C517.697 575.189 483.839 576.531 471.569 575.764C449.482 608.434 405.233 639.991 385.869 651.686C367.656 662.039 319.84 682.86 274.288 683.32C228.735 683.78 205.46 668.557 199.516 660.888C185.712 676.533 150.436 670.474 134.523 665.49C129.346 664.339 114.622 656.747 97.1372 635.581C79.6523 614.415 69.5294 565.028 66.6536 542.98L57.451 453.255L54 311.764C54.5752 282.431 55.9556 222.154 56.8758 215.712C57.7961 209.27 62.244 148.61 64.3529 119.085C69.4144 76.7527 75.6645 53.8995 78.1569 47.7644Z" stroke="black" stroke-width="5"/>
<path d="M278.889 340.523C262.784 358.468 225.398 453.83 208.719 499.268C234.946 481.783 328.161 497.734 371.49 507.895C384.91 459.773 404.849 350.416 377.242 297.961C342.732 232.392 299.019 318.092 278.889 340.523Z" stroke="black" stroke-width="5"/>
<path d="M274.863 553.333C290.047 554.714 332.954 560.81 352.51 563.686C347.333 570.013 332.149 587.038 312.823 604.523C293.498 622.008 267.961 623.312 257.608 621.778C244.187 620.627 217.346 611.195 217.346 582.667C217.346 547.007 255.882 551.608 274.863 553.333Z" stroke="black" stroke-width="5"/>
<path d="M140 42.5V626.5" stroke="black" stroke-width="2" stroke-dasharray="10 10"/>
<path d="M142 536.502C204 431.005 280 171.648 443 259.5C550 317.17 481 773.5 142 617.999M142 562.5C187 519 285.5 505.5 354.5 536.502C407.667 546.835 514 562.5 585 519C600.5 509.504 659 432.5 659 401.5" stroke="black" stroke-width="2" stroke-dasharray="10 10"/>
<path d="M37.5464 524.891C38.0386 525.142 38.6407 524.946 38.8912 524.454L42.9739 516.433C43.2244 515.941 43.0285 515.339 42.5363 515.088C42.0441 514.838 41.442 515.033 41.1915 515.526L37.5624 522.655L30.4329 519.026C29.9407 518.776 29.3386 518.972 29.0881 519.464C28.8376 519.956 29.0335 520.558 29.5257 520.809L37.5464 524.891ZM26.3248 155.991C25.8243 210.324 25.7576 293.926 27.184 368.153C27.8971 405.266 28.9837 440.043 30.5767 467.649C31.3732 481.452 32.2967 493.472 33.3648 503.099C34.43 512.701 35.6463 519.998 37.0491 524.309L38.9509 523.691C37.6181 519.594 36.4179 512.481 35.3526 502.878C34.29 493.3 33.3688 481.32 32.5734 467.534C30.9826 439.965 29.8966 405.217 29.1836 368.115C27.7577 293.913 27.8244 210.33 28.3247 156.009L26.3248 155.991Z" fill="black"/>
<path d="M227.125 700.485C226.858 700.002 227.032 699.393 227.515 699.125L235.387 694.763C235.871 694.495 236.479 694.67 236.747 695.153C237.015 695.636 236.84 696.245 236.357 696.513L229.359 700.39L233.237 707.388C233.505 707.871 233.33 708.479 232.847 708.747C232.364 709.015 231.755 708.84 231.488 708.357L227.125 700.485ZM446.387 632.963C430.187 664.097 390.708 685.446 347.882 696.841C305.02 708.246 258.451 709.776 227.724 700.961L228.276 699.039C258.549 707.724 304.73 706.254 347.368 694.909C390.042 683.554 428.813 662.404 444.613 632.039L446.387 632.963Z" fill="black"/>
<path d="M298 469.371L297.526 470.252L297.593 470.288L297.665 470.314L298 469.371ZM349.816 473.889C350.135 473.438 350.029 472.814 349.578 472.495L342.236 467.29C341.785 466.971 341.161 467.077 340.841 467.528C340.522 467.979 340.628 468.603 341.079 468.922L347.606 473.548L342.98 480.075C342.66 480.526 342.767 481.15 343.217 481.469C343.668 481.788 344.292 481.682 344.612 481.232L349.816 473.889ZM247.103 468.397C256.051 467.475 266.696 466.86 276.121 467.028C280.834 467.111 285.223 467.391 288.934 467.92C292.667 468.453 295.622 469.227 297.526 470.252L298.474 468.491C296.252 467.295 293.013 466.482 289.216 465.94C285.396 465.395 280.918 465.113 276.157 465.028C266.633 464.858 255.904 465.479 246.897 466.407L247.103 468.397ZM297.665 470.314C306.125 473.322 317.741 474.524 327.806 474.878C337.868 475.233 346.545 474.743 349.168 474.296L348.832 472.325C346.413 472.737 337.898 473.233 327.876 472.88C317.855 472.527 306.493 471.33 298.335 468.429L297.665 470.314Z" fill="black"/>
<path d="M6.61932 320.455V335H4.85795V322.301H4.77273L1.22159 324.659V322.869L4.85795 320.455H6.61932Z" fill="black"/>
<path d="M470.506 175V173.722L475.307 168.466C475.87 167.85 476.334 167.315 476.699 166.861C477.063 166.402 477.333 165.971 477.509 165.568C477.688 165.161 477.778 164.735 477.778 164.29C477.778 163.778 477.655 163.336 477.409 162.962C477.168 162.588 476.836 162.299 476.415 162.095C475.993 161.892 475.52 161.79 474.994 161.79C474.436 161.79 473.948 161.906 473.531 162.138C473.119 162.365 472.8 162.685 472.572 163.097C472.35 163.509 472.239 163.991 472.239 164.545H470.562C470.562 163.693 470.759 162.945 471.152 162.301C471.545 161.657 472.08 161.155 472.757 160.795C473.439 160.436 474.204 160.256 475.051 160.256C475.903 160.256 476.659 160.436 477.317 160.795C477.975 161.155 478.491 161.641 478.865 162.251C479.239 162.862 479.426 163.542 479.426 164.29C479.426 164.825 479.329 165.348 479.135 165.859C478.946 166.366 478.614 166.932 478.141 167.557C477.672 168.177 477.021 168.935 476.188 169.83L472.92 173.324V173.438H479.682V175H470.506ZM483.865 175.114C483.515 175.114 483.214 174.988 482.963 174.737C482.712 174.486 482.587 174.186 482.587 173.835C482.587 173.485 482.712 173.184 482.963 172.933C483.214 172.682 483.515 172.557 483.865 172.557C484.215 172.557 484.516 172.682 484.767 172.933C485.018 173.184 485.143 173.485 485.143 173.835C485.143 174.067 485.084 174.28 484.966 174.474C484.852 174.669 484.698 174.825 484.504 174.943C484.315 175.057 484.102 175.114 483.865 175.114ZM491.498 160.455V175H489.737V162.301H489.652L486.1 164.659V162.869L489.737 160.455H491.498Z" fill="black"/>
<path d="M338.506 725V723.722L343.307 718.466C343.87 717.85 344.334 717.315 344.699 716.861C345.063 716.402 345.333 715.971 345.509 715.568C345.688 715.161 345.778 714.735 345.778 714.29C345.778 713.778 345.655 713.336 345.409 712.962C345.168 712.588 344.836 712.299 344.415 712.095C343.993 711.892 343.52 711.79 342.994 711.79C342.436 711.79 341.948 711.906 341.531 712.138C341.119 712.365 340.8 712.685 340.572 713.097C340.35 713.509 340.239 713.991 340.239 714.545H338.562C338.562 713.693 338.759 712.945 339.152 712.301C339.545 711.657 340.08 711.155 340.757 710.795C341.439 710.436 342.204 710.256 343.051 710.256C343.903 710.256 344.659 710.436 345.317 710.795C345.975 711.155 346.491 711.641 346.865 712.251C347.239 712.862 347.426 713.542 347.426 714.29C347.426 714.825 347.329 715.348 347.135 715.859C346.946 716.366 346.614 716.932 346.141 717.557C345.672 718.177 345.021 718.935 344.188 719.83L340.92 723.324V723.438H347.682V725H338.506ZM351.865 725.114C351.515 725.114 351.214 724.988 350.963 724.737C350.712 724.486 350.587 724.186 350.587 723.835C350.587 723.485 350.712 723.184 350.963 722.933C351.214 722.682 351.515 722.557 351.865 722.557C352.215 722.557 352.516 722.682 352.767 722.933C353.018 723.184 353.143 723.485 353.143 723.835C353.143 724.067 353.084 724.28 352.966 724.474C352.852 724.669 352.698 724.825 352.504 724.943C352.315 725.057 352.102 725.114 351.865 725.114ZM356.123 725V723.722L360.924 718.466C361.487 717.85 361.951 717.315 362.316 716.861C362.681 716.402 362.951 715.971 363.126 715.568C363.306 715.161 363.396 714.735 363.396 714.29C363.396 713.778 363.272 713.336 363.026 712.962C362.785 712.588 362.453 712.299 362.032 712.095C361.611 711.892 361.137 711.79 360.612 711.79C360.053 711.79 359.565 711.906 359.148 712.138C358.737 712.365 358.417 712.685 358.19 713.097C357.967 713.509 357.856 713.991 357.856 714.545H356.18C356.18 713.693 356.376 712.945 356.769 712.301C357.162 711.657 357.697 711.155 358.374 710.795C359.056 710.436 359.821 710.256 360.668 710.256C361.521 710.256 362.276 710.436 362.934 710.795C363.592 711.155 364.108 711.641 364.482 712.251C364.856 712.862 365.043 713.542 365.043 714.29C365.043 714.825 364.946 715.348 364.752 715.859C364.563 716.366 364.231 716.932 363.758 717.557C363.289 718.177 362.638 718.935 361.805 719.83L358.538 723.324V723.438H365.299V725H356.123Z" fill="black"/>
<path d="M558.506 427V425.722L563.307 420.466C563.87 419.85 564.334 419.315 564.699 418.861C565.063 418.402 565.333 417.971 565.509 417.568C565.688 417.161 565.778 416.735 565.778 416.29C565.778 415.778 565.655 415.336 565.409 414.962C565.168 414.588 564.836 414.299 564.415 414.095C563.993 413.892 563.52 413.79 562.994 413.79C562.436 413.79 561.948 413.906 561.531 414.138C561.119 414.365 560.8 414.685 560.572 415.097C560.35 415.509 560.239 415.991 560.239 416.545H558.562C558.562 415.693 558.759 414.945 559.152 414.301C559.545 413.657 560.08 413.155 560.757 412.795C561.439 412.436 562.204 412.256 563.051 412.256C563.903 412.256 564.659 412.436 565.317 412.795C565.975 413.155 566.491 413.641 566.865 414.251C567.239 414.862 567.426 415.542 567.426 416.29C567.426 416.825 567.329 417.348 567.135 417.859C566.946 418.366 566.614 418.932 566.141 419.557C565.672 420.177 565.021 420.935 564.188 421.83L560.92 425.324V425.438H567.682V427H558.506ZM571.865 427.114C571.515 427.114 571.214 426.988 570.963 426.737C570.712 426.486 570.587 426.186 570.587 425.835C570.587 425.485 570.712 425.184 570.963 424.933C571.214 424.682 571.515 424.557 571.865 424.557C572.215 424.557 572.516 424.682 572.767 424.933C573.018 425.184 573.143 425.485 573.143 425.835C573.143 426.067 573.084 426.28 572.966 426.474C572.852 426.669 572.698 426.825 572.504 426.943C572.315 427.057 572.102 427.114 571.865 427.114ZM575.782 424.017V422.568L582.174 412.455H583.225V414.699H582.515L577.685 422.341V422.455H586.293V424.017H575.782ZM582.629 427V423.577V422.902V412.455H584.305V427H582.629Z" fill="black"/>
<path d="M286.506 453V451.722L291.307 446.466C291.87 445.85 292.334 445.315 292.699 444.861C293.063 444.402 293.333 443.971 293.509 443.568C293.688 443.161 293.778 442.735 293.778 442.29C293.778 441.778 293.655 441.336 293.409 440.962C293.168 440.588 292.836 440.299 292.415 440.095C291.993 439.892 291.52 439.79 290.994 439.79C290.436 439.79 289.948 439.906 289.531 440.138C289.119 440.365 288.8 440.685 288.572 441.097C288.35 441.509 288.239 441.991 288.239 442.545H286.562C286.562 441.693 286.759 440.945 287.152 440.301C287.545 439.657 288.08 439.155 288.757 438.795C289.439 438.436 290.204 438.256 291.051 438.256C291.903 438.256 292.659 438.436 293.317 438.795C293.975 439.155 294.491 439.641 294.865 440.251C295.239 440.862 295.426 441.542 295.426 442.29C295.426 442.825 295.329 443.348 295.135 443.859C294.946 444.366 294.614 444.932 294.141 445.557C293.672 446.177 293.021 446.935 292.188 447.83L288.92 451.324V451.438H295.682V453H286.506ZM299.865 453.114C299.515 453.114 299.214 452.988 298.963 452.737C298.712 452.486 298.587 452.186 298.587 451.835C298.587 451.485 298.712 451.184 298.963 450.933C299.214 450.682 299.515 450.557 299.865 450.557C300.215 450.557 300.516 450.682 300.767 450.933C301.018 451.184 301.143 451.485 301.143 451.835C301.143 452.067 301.084 452.28 300.966 452.474C300.852 452.669 300.698 452.825 300.504 452.943C300.315 453.057 300.102 453.114 299.865 453.114ZM308.491 453.199C307.553 453.199 306.718 453.038 305.984 452.716C305.254 452.394 304.674 451.946 304.244 451.374C303.817 450.796 303.585 450.126 303.548 449.364H305.337C305.375 449.832 305.536 450.237 305.82 450.578C306.104 450.914 306.476 451.175 306.935 451.359C307.395 451.544 307.904 451.636 308.462 451.636C309.087 451.636 309.641 451.527 310.124 451.31C310.607 451.092 310.986 450.789 311.261 450.401C311.535 450.012 311.673 449.562 311.673 449.051C311.673 448.516 311.54 448.045 311.275 447.638C311.01 447.226 310.621 446.904 310.11 446.672C309.599 446.44 308.974 446.324 308.235 446.324H307.07V444.761H308.235C308.813 444.761 309.319 444.657 309.755 444.449C310.195 444.241 310.539 443.947 310.785 443.568C311.036 443.189 311.161 442.744 311.161 442.233C311.161 441.741 311.052 441.312 310.835 440.947C310.617 440.583 310.309 440.299 309.911 440.095C309.518 439.892 309.054 439.79 308.519 439.79C308.017 439.79 307.544 439.882 307.099 440.067C306.658 440.247 306.299 440.509 306.019 440.855C305.74 441.196 305.588 441.608 305.565 442.091H303.86C303.888 441.329 304.118 440.661 304.549 440.088C304.98 439.51 305.543 439.061 306.239 438.739C306.94 438.417 307.71 438.256 308.548 438.256C309.447 438.256 310.219 438.438 310.863 438.803C311.507 439.162 312.002 439.638 312.347 440.23C312.693 440.822 312.866 441.461 312.866 442.148C312.866 442.967 312.65 443.665 312.219 444.243C311.793 444.821 311.213 445.221 310.479 445.443V445.557C311.398 445.708 312.115 446.099 312.631 446.729C313.147 447.354 313.406 448.128 313.406 449.051C313.406 449.842 313.19 450.552 312.759 451.182C312.333 451.807 311.751 452.299 311.012 452.659C310.273 453.019 309.433 453.199 308.491 453.199Z" fill="black"/>
<path d="M608.705 396.134C608.361 395.702 607.732 395.632 607.3 395.976L600.266 401.591C599.835 401.936 599.764 402.565 600.109 402.996C600.453 403.428 601.082 403.499 601.514 403.154L607.766 398.163L612.757 404.415C613.102 404.847 613.731 404.917 614.163 404.573C614.594 404.228 614.665 403.599 614.32 403.167L608.705 396.134ZM557.93 473.484C572.903 466.548 603.904 441.57 608.918 396.869L606.93 396.646C602.012 440.494 571.588 464.954 557.09 471.669L557.93 473.484Z" fill="black"/>
<path d="M546.414 296.917C547.176 297.24 548.057 296.885 548.381 296.122L553.657 283.696C553.98 282.933 553.625 282.053 552.862 281.729C552.1 281.405 551.219 281.761 550.895 282.523L546.206 293.569L535.16 288.879C534.397 288.555 533.517 288.911 533.193 289.674C532.869 290.436 533.225 291.317 533.987 291.641L546.414 296.917ZM341.288 191.47C362.969 187.234 401.307 181.801 440.582 193.208C479.767 204.59 520.032 232.776 545.609 296.098L548.391 294.974C522.468 230.796 481.483 201.965 441.418 190.327C401.443 178.716 362.531 184.263 340.712 188.526L341.288 191.47Z" fill="black"/>
<circle cx="142.5" cy="66.5" r="30.5" fill="black"/>
</svg>
