<?xml version="1.0" encoding="UTF-8"?>
<svg version="1.1" xmlns="http://www.w3.org/2000/svg" width="576" height="749">
<path d="M0 0 C1.96484375 1.68359375 1.96484375 1.68359375 3 3 C-1.63713005 8.71340221 -6.314329 14.36952697 -11.125 19.9375 C-18.53552176 28.60755934 -25.24065924 37.82055936 -32 47 C-32.54382324 47.7331543 -33.08764648 48.46630859 -33.64794922 49.22167969 C-69.32865385 97.36672521 -101.94206659 149.94875882 -121 207 C-105.54649471 207.24865328 -90.14558465 206.51957985 -74.71351862 205.78842545 C-71.07185045 205.61693612 -67.42994383 205.45067043 -63.78805542 205.28393555 C-55.34822478 204.89671737 -46.9086863 204.50335149 -38.46916962 204.10935974 C-27.7057455 203.60722659 -16.94217654 203.10826115 -6.17837894 202.61419773 C-1.86799851 202.41615349 2.4422376 202.21528365 6.75237727 202.0120697 C8.79009779 201.91639552 10.8278725 201.8219887 12.86567688 201.7281189 C15.33273454 201.61444295 17.79970438 201.49883489 20.26655579 201.38076782 C27.51658573 201.05089348 34.74273863 200.93487949 42 201 C41.49365445 209.0576854 40.1023848 216.47523467 37.9375 224.25 C37.62731934 225.37607666 37.31713867 226.50215332 36.99755859 227.66235352 C21.0089111 284.58848412 21.0089111 284.58848412 3 296 C-0.33077049 296.61523914 -0.33077049 296.61523914 -4.02352905 296.60127258 C-4.70652529 296.60554471 -5.38952153 296.60981683 -6.09321463 296.61421841 C-8.36929994 296.6224186 -10.64351972 296.59501684 -12.91943359 296.56762695 C-14.55576535 296.56621582 -16.19210026 296.56700974 -17.82843018 296.56983948 C-22.26209626 296.57127251 -26.69508429 296.54190136 -31.12859297 296.50696969 C-35.76502502 296.47568718 -40.40147308 296.47277396 -45.03799438 296.46684265 C-53.81402098 296.45130977 -62.58973569 296.41028883 -71.36562502 296.3600952 C-81.3582748 296.30418445 -91.35093956 296.27671088 -101.34370685 296.25161803 C-121.89597856 296.19937249 -142.44796962 296.11144098 -163 296 C-163.14751426 296.7753626 -163.29502851 297.55072519 -163.4470129 298.34958363 C-164.01092179 301.05234715 -164.84242224 303.39341646 -165.87915039 305.94995117 C-166.26850266 306.91678329 -166.65785492 307.88361542 -167.05900574 308.87974548 C-167.48426041 309.92360916 -167.90951508 310.96747284 -168.34765625 312.04296875 C-169.26419352 314.31541623 -170.18069595 316.58787777 -171.09716797 318.86035156 C-171.5807074 320.05470825 -172.06424683 321.24906494 -172.56243896 322.47961426 C-175.09957746 328.75097219 -177.61976601 335.02911148 -180.13671875 341.30859375 C-180.38956886 341.93923862 -180.64241898 342.5698835 -180.90293121 343.21963882 C-187.8525868 360.5623939 -194.50844956 378.01273856 -201.06549072 395.50714111 C-201.99604051 397.98943782 -202.92829394 400.47108931 -203.86083984 402.95263672 C-216.03014912 435.3577199 -227.90243141 467.87396803 -239.69897461 500.4163208 C-240.92111495 503.78271085 -242.14805372 507.14730294 -243.37695312 510.51123047 C-245.09167085 515.20791107 -246.79046866 519.90998974 -248.4743042 524.61782837 C-249.06318179 526.25702464 -249.65740752 527.894312 -250.25762939 529.52938843 C-253.61097837 538.67861188 -255.90800208 547.13910651 -256 557 C-243.17590441 557.38986144 -231.43460824 545.84178684 -222 538 C-221.1656543 537.3201001 -221.1656543 537.3201001 -220.31445312 536.62646484 C-206.80036698 525.60783276 -193.79265903 513.37566497 -183.05078125 499.609375 C-181.14569077 497.18537416 -179.15782678 494.8554915 -177.1328125 492.53149414 C-170.43978832 484.81631849 -164.50372628 476.61609833 -158.61425781 468.27880859 C-157.06397339 466.09030969 -155.49926063 463.91297277 -153.9296875 461.73828125 C-146.51767642 451.42455693 -139.65040721 440.81856966 -133 430 C-132.60216309 429.35353516 -132.20432617 428.70707031 -131.79443359 428.04101562 C-122.65434032 413.12844039 -113.92635265 397.9330785 -105.85351562 382.41650391 C-104.91140671 380.60625705 -103.95622958 378.80282774 -103 377 C-102.50628906 376.0615625 -102.01257813 375.123125 -101.50390625 374.15625 C-99.79357016 371.70402787 -98.85050544 370.86643061 -96 370 C-77.5225489 369.97298618 -58.11412578 382.51537756 -45.12890625 394.73046875 C-37.55634482 402.80323607 -35.59236802 409.12973692 -35.73828125 420.05078125 C-38.00222719 454.21271179 -62.84861257 485.15914077 -81.30401611 512.48657227 C-83.74435954 516.10313189 -86.17908004 519.72346572 -88.61407471 523.34362793 C-119.90103663 569.85522876 -119.90103663 569.85522876 -128 580.125 C-128.90262573 581.27681763 -128.90262573 581.27681763 -129.82348633 582.4519043 C-134.47110848 588.36688983 -139.1772897 594.22645338 -144 600 C-144.41813965 600.50305664 -144.8362793 601.00611328 -145.26708984 601.52441406 C-151.12723612 608.5668518 -157.13911744 615.43295541 -163.37109375 622.1484375 C-165.84974149 624.83701528 -168.27080685 627.56833042 -170.6875 630.3125 C-174.53963525 634.58437582 -178.54859142 638.36322828 -183 642 C-183.75313477 642.62165039 -183.75313477 642.62165039 -184.52148438 643.25585938 C-209.61955683 663.92314552 -235.12838442 681.08508148 -267 689 C-268.05985107 689.26369385 -268.05985107 689.26369385 -269.14111328 689.53271484 C-290.1803655 694.53977897 -308.86037567 689.01298752 -327.26318359 678.10009766 C-331.88049311 675.17549874 -335.9614266 671.66289216 -340 668 C-340.63164062 667.46117187 -341.26328125 666.92234375 -341.9140625 666.3671875 C-355.65019366 653.88549755 -362.59559819 635.09209412 -364 617 C-365.42887865 580.75174827 -358.8400949 546.26537167 -349.875 511.3125 C-349.56280518 510.09167725 -349.25061035 508.87085449 -348.92895508 507.61303711 C-346.64874687 498.94206553 -343.91987998 490.47152328 -341 482 C-341.36125977 482.62229492 -341.72251953 483.24458984 -342.09472656 483.88574219 C-363.84530107 521.32750815 -363.84530107 521.32750815 -375.10546875 538.5546875 C-378.34204499 543.50947375 -381.51541973 548.50376276 -384.6875 553.5 C-390.5184666 562.67656344 -396.35514137 571.84947802 -402.23339844 580.99584961 C-405.23703794 585.66952146 -408.22699162 590.34771116 -411.140625 595.078125 C-418.66867383 607.22449047 -425.75411773 615.7707537 -440 620 C-463.86902856 624.99888646 -488.08243973 620.33008148 -509 608 C-520.2885702 600.33317941 -528.30314178 591.20982816 -532.60546875 578.1640625 C-537.75315286 549.92825065 -517.99209171 523.13769026 -503 501 C-499.90332425 496.55406567 -496.66972408 492.21673478 -493.40820312 487.89111328 C-491.33878884 485.11204202 -489.33202376 482.28925187 -487.31860352 479.46948242 C-481.24031242 470.96569753 -474.93181821 462.67249346 -468.48046875 454.44921875 C-465.0521665 450.07887533 -461.67763991 445.66906285 -458.3125 441.25 C-453.05016408 434.34901665 -447.71720332 427.50769391 -442.33837891 420.69726562 C-440.98661619 418.98302731 -439.63911597 417.26552571 -438.29296875 415.546875 C-434.09598875 410.1900844 -429.88456696 404.84701107 -425.61889648 399.54467773 C-420.26202666 392.88514043 -415.02833051 386.1442798 -409.8581543 379.33886719 C-406.28575635 374.6481951 -402.64163539 370.02464018 -398.9375 365.4375 C-393.28263822 358.42365323 -387.87157546 351.24376175 -382.5 344.01171875 C-381.00862585 342.01156852 -379.50636793 340.0201264 -378 338.03125 C-372.85832634 331.23647722 -367.79796044 324.39277999 -362.875 317.4375 C-362.43285156 316.81431885 -361.99070312 316.1911377 -361.53515625 315.54907227 C-358.2117462 310.82195246 -355.00227763 306.02153486 -351.80126953 301.21118164 C-351.33866226 300.51660103 -350.87605499 299.82202042 -350.39942932 299.10639191 C-349.26597306 297.40446979 -348.13294347 295.70226352 -347 294 C-348.12313662 294.00194823 -348.12313662 294.00194823 -349.26896286 294.00393581 C-367.47974182 294.03312493 -385.69012741 294.02381201 -403.90085983 293.97153378 C-412.70745176 293.94718289 -421.51369934 293.9359108 -430.3203125 293.95532227 C-437.9953349 293.97220642 -445.66987577 293.96465907 -453.34483457 293.92765242 C-457.40965398 293.90890937 -461.47365881 293.90248344 -465.53847504 293.92530632 C-469.36384442 293.94639896 -473.18772035 293.93484926 -477.01295853 293.89815521 C-478.41741461 293.89045554 -479.82199469 293.89472839 -481.22636795 293.91181374 C-491.85977988 294.03127815 -491.85977988 294.03127815 -494.7042923 291.45854378 C-495.80499268 289.5796051 -495.80499268 289.5796051 -497 286 C-497.32226562 285.28714844 -497.64453125 284.57429688 -497.9765625 283.83984375 C-505.39193386 262.08510969 -505.0337004 232.65663562 -495.45703125 211.59375 C-491.75878175 205.01027099 -486.75331322 199.11161588 -479.38473511 196.92926979 C-475.0710423 195.90252048 -470.97822499 195.71002319 -466.55908203 195.7215271 C-465.74778682 195.7157347 -464.9364916 195.7099423 -464.10061169 195.70397437 C-461.40297076 195.68707316 -458.70550194 195.68410644 -456.0078125 195.68115234 C-454.06576625 195.67184734 -452.12372398 195.66167782 -450.1816864 195.65071106 C-444.92407178 195.62346154 -439.66648388 195.60827659 -434.40881729 195.59528303 C-428.90882561 195.57963041 -423.40888832 195.55284697 -417.90893555 195.5272522 C-407.50046967 195.48050216 -397.09199352 195.44373976 -386.68347645 195.41057932 C-374.83100392 195.37233127 -362.97858607 195.32292812 -351.12615967 195.27259517 C-326.75081366 195.16933145 -302.37543251 195.08005296 -278 195 C-277.74831055 194.37708572 -277.49662109 193.75417145 -277.23730469 193.11238098 C-276.0776689 190.2469559 -274.91386335 187.38324166 -273.75 184.51953125 C-273.35425781 183.53988403 -272.95851563 182.56023682 -272.55078125 181.55090332 C-269.39772304 173.80555798 -265.8984269 166.32813528 -262.00927734 158.92871094 C-260.97528096 156.95276236 -259.96506564 154.96586507 -258.95703125 152.9765625 C-243.48657105 122.74614789 -223.3141719 94.50449522 -200.32421875 69.54296875 C-198.39894094 67.43648833 -196.53405819 65.2998352 -194.6875 63.125 C-187.08189127 54.40986717 -178.79353038 46.33522515 -169.71875 39.1640625 C-166.88911442 36.91173763 -164.17208056 34.55396395 -161.4375 32.1875 C-117.21823571 -4.65235279 -54.9188076 -24.3147023 0 0 Z M-95 2 C-95.66676758 2.2057666 -96.33353516 2.4115332 -97.02050781 2.62353516 C-139.72292398 16.2618766 -178.88128684 50.10979189 -206 85 C-207.57988537 86.85710546 -209.1634403 88.71109329 -210.75 90.5625 C-234.11746898 118.60346277 -253.5975297 151.44969313 -267.6875 185.0625 C-268.32075195 186.56985718 -268.32075195 186.56985718 -268.96679688 188.10766602 C-270.87980402 192.79237781 -272.21096255 196.9872456 -273 202 C-274.03883331 201.99631283 -275.07766663 201.99262566 -276.14797974 201.98882675 C-301.4283664 201.9000174 -326.70873283 201.83429168 -351.98924255 201.79275131 C-364.21472722 201.77212861 -376.44010883 201.74401341 -388.66552734 201.69824219 C-399.32155298 201.65836571 -409.97750397 201.63256507 -420.63360214 201.62364602 C-426.2756245 201.6184327 -431.91743331 201.60618522 -437.55938721 201.57707977 C-442.87155274 201.54989806 -448.18341705 201.54156068 -453.49564552 201.54756927 C-455.4434962 201.54647028 -457.39135711 201.53853295 -459.33914757 201.5231781 C-462.0035654 201.50320702 -464.66685356 201.50808661 -467.33129883 201.51898193 C-468.0978586 201.50733057 -468.86441837 201.4956792 -469.65420723 201.48367476 C-475.98082268 201.55335993 -481.21014162 203.49470718 -485.953125 207.75390625 C-494.9676867 220.3254185 -496.38490771 235.17622751 -496.3125 250.25 C-496.30730347 252.01682129 -496.30730347 252.01682129 -496.30200195 253.81933594 C-496.1531879 265.79352312 -494.75493578 275.90514984 -490 287 C-439.18 287 -388.36 287 -336 287 C-341.63080887 297.13545597 -341.63080887 297.13545597 -344.3125 301.05859375 C-345.20279907 302.36485718 -345.20279907 302.36485718 -346.11108398 303.69750977 C-346.73442627 304.60170654 -347.35776855 305.50590332 -348 306.4375 C-348.66008057 307.39906006 -349.32016113 308.36062012 -350.00024414 309.35131836 C-361.19515737 325.59905266 -372.9817067 341.35453453 -385 357 C-385.95077534 358.24199271 -386.90132596 359.48415751 -387.8515625 360.7265625 C-393.37756996 367.94285298 -398.98339191 375.09512395 -404.60888672 382.23388672 C-406.90874237 385.15371048 -409.20415945 388.07701893 -411.5 391 C-412.4166451 392.16668361 -413.33331177 393.33335027 -414.25 394.5 C-414.930625 395.36625 -414.930625 395.36625 -415.625 396.25 C-430.75 415.5 -430.75 415.5 -432.12426758 417.24902344 C-433.04343313 418.41890016 -433.96254095 419.58882223 -434.8815918 420.75878906 C-437.13456094 423.62671157 -439.38843723 426.4939099 -441.64453125 429.359375 C-457.28190256 449.22593793 -472.69005865 469.2163342 -487.40625 489.77832031 C-488.94074372 491.91739703 -490.48525677 494.04891427 -492.03125 496.1796875 C-519.14314564 532.24313262 -519.14314564 532.24313262 -527 575 C-524.80515508 583.42285664 -520.33938638 590.09284451 -514 596 C-513.505 596.52335938 -513.01 597.04671875 -512.5 597.5859375 C-499.29707563 610.61203699 -477.27126019 616.06023121 -459.25 616.1875 C-445.89666275 616.03594888 -434.01777316 613.18934354 -424 604 C-421.50264145 600.83320278 -419.44313906 597.45817476 -417.375 594 C-416.15142718 592.01668919 -414.92745792 590.03362292 -413.703125 588.05078125 C-412.77983398 586.53798584 -412.77983398 586.53798584 -411.83789062 584.99462891 C-408.99080414 580.35563277 -406.05698609 575.77311621 -403.125 571.1875 C-401.96332007 569.36212017 -400.80186526 567.53659706 -399.640625 565.7109375 C-396.41309322 560.64388897 -393.17452373 555.58396519 -389.93334961 550.52563477 C-387.23235899 546.30932145 -384.53533219 542.0904786 -381.83837891 537.87158203 C-380.20261379 535.3164865 -378.56103296 532.76524754 -376.91796875 530.21484375 C-368.63312115 517.29655078 -360.92243024 504.0475868 -353.20556641 490.78613281 C-350.00124392 485.28175567 -346.77693391 479.78910615 -343.55361938 474.2958374 C-341.80316545 471.3122831 -340.053962 468.32799592 -338.3046875 465.34375 C-337.95692764 464.75052948 -337.60916779 464.15730896 -337.25086975 463.54611206 C-334.98457583 459.68009464 -332.71889964 455.81371568 -330.45355225 451.94714355 C-328.88786704 449.27482555 -327.32199261 446.60261845 -325.75610352 443.93041992 C-325.01007786 442.65720065 -324.2641448 441.38392711 -323.51831055 440.1105957 C-322.48379611 438.34442604 -321.44896191 436.5784441 -320.4140625 434.8125 C-319.8257666 433.80832031 -319.2374707 432.80414063 -318.63134766 431.76953125 C-317.54119608 429.91878605 -316.425966 428.08259256 -315.28662109 426.26171875 C-313.83517977 424.14394492 -313.83517977 424.14394492 -314 422 C-311.525 423.485 -311.525 423.485 -309 425 C-309.44988281 425.86496094 -309.89976562 426.72992188 -310.36328125 427.62109375 C-325.64423023 457.37702594 -338.11968208 488.47441986 -346 521 C-346.29890137 522.20833496 -346.59780273 523.41666992 -346.90576172 524.66162109 C-352.95880266 549.20602182 -358.17102334 573.62029959 -358.24023438 598.97460938 C-358.24988949 601.10066646 -358.28099164 603.22573277 -358.3125 605.3515625 C-358.48622435 627.87597431 -352.56529989 646.03481526 -336.875 662.625 C-323.51393954 675.54376329 -305.17807714 685.19353996 -286.4140625 686.12890625 C-251.26864816 684.2995708 -221.01045625 664.58606968 -194.55517578 643.24658203 C-193.12009116 642.09626145 -191.66816603 640.9670348 -190.21484375 639.83984375 C-179.11674971 631.09539557 -169.07262389 620.81964993 -160 610 C-159.10433687 608.96617056 -158.20703955 607.93375584 -157.30859375 606.90234375 C-151.3595187 600.05514903 -145.59437818 593.09870987 -140.04980469 585.91992188 C-138.02186741 583.30229865 -135.96992912 580.70640869 -133.89794922 578.12353516 C-124.6927102 566.57878323 -116.51719143 554.51481445 -108.5 542.125 C-106.07745759 538.39546579 -103.65003202 534.66915492 -101.21875 530.9453125 C-100.62422531 530.03406616 -100.02970062 529.12281982 -99.41716003 528.18395996 C-94.14414821 520.14066608 -88.64092931 512.27028972 -83.09814453 504.41162109 C-79.35165986 499.09458113 -75.72884205 493.70625242 -72.1875 488.25 C-71.56351318 487.28884277 -70.93952637 486.32768555 -70.29663086 485.33740234 C-56.40236947 463.76174603 -39.10417766 436.70591711 -42 410 C-46.23058664 397.1642201 -60.66889432 388.67443137 -72.19140625 382.85644531 C-79.89957229 379.20630405 -87.5286547 376.87666427 -96 376 C-96.35078613 376.69222656 -96.70157227 377.38445312 -97.06298828 378.09765625 C-118.52413802 420.31084097 -143.25000698 461.814133 -174 498 C-174.90763576 499.08196106 -175.81518255 500.16399676 -176.72265625 501.24609375 C-225.95574071 559.63116583 -225.95574071 559.63116583 -251.51171875 563.3671875 C-255.66051041 563.48744233 -257.45313871 563.3645742 -261 561 C-265.66635114 547.00094657 -256.4506504 529.18262904 -251.75 516.125 C-251.00203675 514.03226069 -250.25440648 511.93940236 -249.50708008 509.84643555 C-247.01915822 502.89239527 -244.51139355 495.94559267 -242 489 C-241.55388367 487.76538025 -241.10776733 486.5307605 -240.64813232 485.25872803 C-182.01100129 323.02200257 -182.01100129 323.02200257 -166 291 C-165.14577926 291.00129882 -164.29155851 291.00259764 -163.41145229 291.00393581 C-142.62097774 291.03314441 -121.8308322 291.02377569 -101.04039669 290.97153378 C-90.98622813 290.94719891 -80.93236092 290.93589419 -70.87817383 290.95532227 C-62.11433119 290.97222384 -53.35091006 290.96461819 -44.58712298 290.92765242 C-39.94711986 290.90893486 -35.30782954 290.90244335 -30.66782951 290.92530632 C-26.29834508 290.94644898 -21.93016521 290.9347678 -17.56079483 290.89815521 C-15.95925253 290.89047595 -14.3576012 290.8946815 -12.75613213 290.91181374 C-2.90888457 291.28741714 -2.90888457 291.28741714 5.35960388 286.65992737 C6.81933675 284.87512065 6.81933675 284.87512065 8 283 C8.42428819 282.39294188 8.84857637 281.78588377 9.28572178 281.16042995 C10.44516033 279.44511045 11.44788431 277.693366 12.4375 275.875 C13.00090088 274.85128296 13.00090088 274.85128296 13.57568359 273.80688477 C23.39825737 255.33953848 35 228.15786626 35 207 C-0.63419521 208.35436761 -36.26011367 209.86236204 -71.88439941 211.45513916 C-78.36364383 211.74452669 -84.84295825 212.03233861 -91.32226562 212.3203125 C-103.8815765 212.87873109 -116.44081364 213.43878835 -129 214 C-128.20423418 211.27536333 -127.40708139 208.5511453 -126.60913086 205.82714844 C-126.27336155 204.67670547 -126.27336155 204.67670547 -125.93080902 203.50302124 C-124.32118932 198.013751 -122.60708542 192.59498219 -120.5625 187.25 C-120.23813965 186.40131348 -119.9137793 185.55262695 -119.57958984 184.67822266 C-114.49476416 171.77940167 -108.21430201 159.38295091 -102 147 C-101.53803223 146.07880371 -101.07606445 145.15760742 -100.60009766 144.20849609 C-76.53128405 96.58060501 -45.07769055 51.11775837 -10.77734375 10.3046875 C-9.19613324 8.25432661 -8.0481574 6.35699644 -7 4 C-36.08628273 -7.27952303 -65.37153198 -7.16083705 -95 2 Z " fill="#000000" transform="translate(533,57)"/>
<path d="M0 0 C6.517904 4.68956663 12.55343845 10.81246164 14 19 C14.7992898 30.25557271 13.99078008 38.31915226 6.75 47.25 C1.33164802 53.0878373 -4.3711544 56.67129269 -12.35546875 57.23828125 C-23.57071698 57.45549809 -30.8402179 55.69919895 -39.20703125 47.93359375 C-46.38318634 40.19460297 -47.48473506 33.10670258 -47.2734375 22.765625 C-46.64352117 14.09077723 -42.28194806 7.82507911 -36 2 C-25.82502277 -5.66451556 -10.93235165 -7.28107507 0 0 Z " fill="#000000" transform="translate(103,576)"/>
<path d="M0 0 C1.32 0.66 2.64 1.32 4 2 C3.62415771 2.81114258 3.24831543 3.62228516 2.86108398 4.45800781 C-25.80426659 58.38176899 -25.80426659 58.38176899 -40 116 C-38.68 114.68 -37.36 113.36 -36 112 C-34.515 112.495 -34.515 112.495 -33 113 C-33.51776621 117.10447392 -35.64627444 118.95699523 -38.5625 121.75 C-39.38878906 122.54921875 -40.21507812 123.3484375 -41.06640625 124.171875 C-41.70449219 124.77515625 -42.34257812 125.3784375 -43 126 C-46.47775179 124.48446596 -48.9557984 122.4226544 -51.75 119.875 C-52.54921875 119.15054688 -53.3484375 118.42609375 -54.171875 117.6796875 C-54.77515625 117.12539063 -55.3784375 116.57109375 -56 116 C-55.67 115.01 -55.34 114.02 -55 113 C-51.11466942 113.57560453 -48.96953157 115.53770185 -46 118 C-45.63261719 116.32164062 -45.63261719 116.32164062 -45.2578125 114.609375 C-36.20345059 75.04657445 -18.22961452 36.15382244 0 0 Z " fill="#000000" transform="translate(375,381)"/>
<path d="M0 0 C0.50806447 1.72681437 1.00610467 3.45657979 1.5 5.1875 C1.7784375 6.15042969 2.056875 7.11335938 2.34375 8.10546875 C2.96677608 10.85345876 3.12302812 13.19598416 3 16 C1.68 15.67 0.36 15.34 -1 15 C-1.99 11.535 -1.99 11.535 -3 8 C-3.68964844 8.94359375 -4.37929688 9.8871875 -5.08984375 10.859375 C-7.56907702 14.24878524 -10.05439498 17.6336852 -12.54248047 21.01660156 C-13.81345652 22.74615088 -15.08086478 24.47832089 -16.34765625 26.2109375 C-21.92021594 33.75563718 -27.84982219 40.92533097 -34 48 C-34.72832031 48.84175781 -35.45664062 49.68351563 -36.20703125 50.55078125 C-48.10587502 64.03908096 -60.91591997 75.96371561 -75.5 86.5 C-76.10005859 86.9340918 -76.70011719 87.36818359 -77.31835938 87.81542969 C-79.86949207 89.62623938 -82.01310442 91.00436814 -85 92 C-85.66 90.68 -86.32 89.36 -87 88 C-86.33355469 87.59910156 -85.66710937 87.19820312 -84.98046875 86.78515625 C-77.82665002 82.37280092 -71.36709399 77.4788797 -65 72 C-64.23558594 71.34773437 -63.47117187 70.69546875 -62.68359375 70.0234375 C-50.53141151 59.37228623 -38.80759019 47.85427615 -29 35 C-27.95255028 33.65698448 -26.90430865 32.31458638 -25.85546875 30.97265625 C-14.71397494 18.75980863 -14.71397494 18.75980863 -8 5 C-12.455 5.495 -12.455 5.495 -17 6 C-16.67 4.68 -16.34 3.36 -16 2 C-14.08654673 1.46748234 -12.1690705 0.94940517 -10.25 0.4375 C-9.18265625 0.14746094 -8.1153125 -0.14257812 -7.015625 -0.44140625 C-4.15664073 -0.97098494 -2.68402617 -0.98370862 0 0 Z " fill="#000000" transform="translate(391,464)"/>
<path d="M0 0 C3.81684226 1.55500981 6.19195732 4.03595495 9 7 C7.4422692 10.82352106 5.08404742 13.29205593 2 16 C1.01 16 0.02 16 -1 16 C-0.625 14.0625 -0.625 14.0625 0 12 C0.66 11.67 1.32 11.34 2 11 C-34.70470281 9.82054297 -71.1200283 40.93083293 -96.28125 64.46875 C-98.76927988 66.78519161 -101.31082129 69.01883151 -103.875 71.25 C-113.45982887 79.87634599 -122.3628211 89.32651462 -129.44921875 100.12109375 C-130.21685547 101.05115234 -130.21685547 101.05115234 -131 102 C-131.99 102 -132.98 102 -134 102 C-131.2372586 85.75508056 -103.28684358 64.12351899 -91 54 C-90.46745605 53.55366211 -89.93491211 53.10732422 -89.38623047 52.64746094 C-64.75996283 32.0279785 -31.15646676 4.95061199 3 7 C2.505 6.401875 2.01 5.80375 1.5 5.1875 C0 3 0 3 0 0 Z " fill="#000000" transform="translate(427,16)"/>
<path d="M0 0 C3.40498516 1.56445264 4.0335053 3.62940897 5.3125 7.0625 C5.3125 8.3825 5.3125 9.7025 5.3125 11.0625 C4.3225 10.7325 3.3325 10.4025 2.3125 10.0625 C1.625 8 1.625 8 1.3125 6.0625 C0.6525 6.0625 -0.0075 6.0625 -0.6875 6.0625 C-0.93886719 6.91457031 -1.19023437 7.76664062 -1.44921875 8.64453125 C-2.7686491 12.28649199 -4.48694362 15.46363291 -6.5 18.75 C-6.89034424 19.39227539 -7.28068848 20.03455078 -7.68286133 20.69628906 C-26.41472825 51.11066822 -48.98177312 79.53431785 -71.6875 107.0625 C-73.33469807 109.06137615 -74.98055164 111.06136109 -76.625 113.0625 C-77.35589844 113.949375 -78.08679688 114.83625 -78.83984375 115.75 C-80.78895442 118.12150021 -80.78895442 118.12150021 -82.6875 121.0625 C-83.6775 120.7325 -84.6675 120.4025 -85.6875 120.0625 C-84.3560435 117.184082 -82.85451678 114.87053749 -80.81640625 112.4453125 C-80.24792969 111.763479 -79.67945313 111.08164551 -79.09375 110.37915039 C-78.4853125 109.65590576 -77.876875 108.93266113 -77.25 108.1875 C-75.96885628 106.64812984 -74.6889219 105.10775245 -73.41015625 103.56640625 C-72.77609863 102.80215332 -72.14204102 102.03790039 -71.48876953 101.25048828 C-67.61739451 96.54795874 -63.88007267 91.74109743 -60.14306641 86.93164062 C-58.5633191 84.90303523 -56.975355 82.88102574 -55.38671875 80.859375 C-26.85948429 44.71170444 -26.85948429 44.71170444 -3.6875 5.0625 C-5.6675 5.3925 -7.6475 5.7225 -9.6875 6.0625 C-8.6875 3.0625 -8.6875 3.0625 -5.9375 1.3125 C-2.6875 0.0625 -2.6875 0.0625 0 0 Z " fill="#000000" transform="translate(136.6875,375.9375)"/>
<path d="M0 0 C0.99 0.33 1.98 0.66 3 1 C1.66224486 3.89620795 0.14626036 6.21482634 -1.90625 8.65234375 C-2.76669922 9.68270752 -2.76669922 9.68270752 -3.64453125 10.73388672 C-4.25683594 11.4610791 -4.86914062 12.18827148 -5.5 12.9375 C-11.51410146 20.16575178 -17.35667899 27.47689951 -23 35 C-23.54688477 35.72477539 -24.09376953 36.44955078 -24.65722656 37.19628906 C-31.93502956 46.85895378 -38.94077559 56.51867082 -45 67 C-44.34 67 -43.68 67 -43 67 C-42.34 67 -41.68 67 -41 67 C-41.125 68.8125 -41.125 68.8125 -42 71 C-44.73501643 72.76256614 -46.84708148 73.93218126 -50.125 74.125 C-53.31461148 72.21123311 -54.37864903 69.30060733 -56 66 C-56 65.34 -56 64.68 -56 64 C-54.125 64.3125 -54.125 64.3125 -52 65 C-51.34 65.99 -50.68 66.98 -50 68 C-49.51273437 67.13761719 -49.02546875 66.27523437 -48.5234375 65.38671875 C-39.53371429 49.78933184 -28.54669551 35.68153337 -17.12109375 21.80859375 C-13.98461275 17.99798 -10.91967121 14.13419264 -7.875 10.25 C-7.20078003 9.39088013 -7.20078003 9.39088013 -6.51293945 8.5144043 C-4.31004855 5.69952871 -2.13125502 2.8695329 0 0 Z " fill="#000000" transform="translate(507,131)"/>
<path d="M0 0 C3.36573933 1.44245971 5.75010389 3.083468 8 6 C8.09766173 9.80880762 7.02188638 10.97597836 4.4375 13.8125 C3.633125 14.534375 2.82875 15.25625 2 16 C1.01 15.67 0.02 15.34 -1 15 C0.875 11.125 0.875 11.125 2 10 C-50.47 9.505 -50.47 9.505 -104 9 C-104 8.34 -104 7.68 -104 7 C-69.02 6.67 -34.04 6.34 2 6 C1.01 5.01 0.02 4.02 -1 3 C-0.67 2.01 -0.34 1.02 0 0 Z " fill="#000000" transform="translate(224,210)"/>
<path d="M0 0 C1.4540625 0.0309375 1.4540625 0.0309375 2.9375 0.0625 C5.0625 4.6875 5.0625 4.6875 3.9375 8.0625 C4.26300502 9.73071323 4.59596063 11.39749557 4.9375 13.0625 C4.6075 13.7225 4.2775 14.3825 3.9375 15.0625 C1.125 15.9375 1.125 15.9375 -2.0625 16.0625 C-4.4375 14.125 -4.4375 14.125 -6.0625 12.0625 C-2.43923261 10.8547442 -1.42103631 11.51938872 1.9375 13.0625 C1.9375 11.7425 1.9375 10.4225 1.9375 9.0625 C0.6175 9.0625 -0.7025 9.0625 -2.0625 9.0625 C-2.0625 8.0725 -2.0625 7.0825 -2.0625 6.0625 C-0.7425 6.0625 0.5775 6.0625 1.9375 6.0625 C1.6075 5.0725 1.2775 4.0825 0.9375 3.0625 C-1.0425 3.7225 -3.0225 4.3825 -5.0625 5.0625 C-3.9375 0.08035714 -3.9375 0.08035714 0 0 Z " fill="#000000" transform="translate(534.0625,168.9375)"/>
<path d="M0 0 C3.0625 0.1875 3.0625 0.1875 5.0625 2.1875 C4.90004442 5.92397845 4.47466356 7.71288742 2 10.5625 C1.360625 11.09875 0.72125 11.635 0.0625 12.1875 C1.7125 12.5175 3.3625 12.8475 5.0625 13.1875 C5.0625 13.8475 5.0625 14.5075 5.0625 15.1875 C1.7625 15.1875 -1.5375 15.1875 -4.9375 15.1875 C-2.9375 11.1875 -2.9375 11.1875 -0.8125 8.625 C1.36735538 6.30372611 1.36735538 6.30372611 1.0625 3.1875 C0.4025 3.1875 -0.2575 3.1875 -0.9375 3.1875 C-1.2675 3.8475 -1.5975 4.5075 -1.9375 5.1875 C-2.9275 5.1875 -3.9175 5.1875 -4.9375 5.1875 C-3.82120474 0.24390669 -3.82120474 0.24390669 0 0 Z " fill="#000000" transform="translate(333.9375,21.8125)"/>
<path d="M0 0 C2.875 -0.125 2.875 -0.125 6 0 C6.66 0.66 7.32 1.32 8 2 C7.83754442 5.73647845 7.41216356 7.52538742 4.9375 10.375 C4.298125 10.91125 3.65875 11.4475 3 12 C4.65 12.33 6.3 12.66 8 13 C8 13.66 8 14.32 8 15 C4.7 15 1.4 15 -2 15 C0 11 0 11 2.125 8.4375 C4.30485538 6.11622611 4.30485538 6.11622611 4 3 C3.34 3 2.68 3 2 3 C1.67 3.66 1.34 4.32 1 5 C0.01 5 -0.98 5 -2 5 C-1.34 3.35 -0.68 1.7 0 0 Z " fill="#000000" transform="translate(165,186)"/>
<path d="M0 0 C0.99 0 1.98 0 3 0 C3 3.3 3 6.6 3 10 C3.66 10 4.32 10 5 10 C5 10.66 5 11.32 5 12 C4.34 12 3.68 12 3 12 C3 12.99 3 13.98 3 15 C2.34 15 1.68 15 1 15 C1 14.01 1 13.02 1 12 C-1.31 12 -3.62 12 -6 12 C-5.56629155 7.2292071 -3.35665609 3.36635741 0 0 Z M0 4 C-0.99 5.98 -1.98 7.96 -3 10 C-1.68 10 -0.36 10 1 10 C1 8.02 1 6.04 1 4 C0.67 4 0.34 4 0 4 Z " fill="#000000" transform="translate(397,423)"/>
<path d="M0 0 C2.475 0.99 2.475 0.99 5 2 C3.8905928 5.48670834 2.73662334 8.77484237 1 12 C-2 12 -2 12 -3.6875 10.5 C-4.120625 10.005 -4.55375 9.51 -5 9 C-3.7508258 5.54074837 -2.32472205 2.85306797 0 0 Z " fill="#000000" transform="translate(432,95)"/>
<path d="M0 0 C4.62 0 9.24 0 14 0 C14 3.39593478 13.47834052 4.06619881 11.5 6.6875 C11.0359375 7.31011719 10.571875 7.93273437 10.09375 8.57421875 C9.7328125 9.04472656 9.371875 9.51523437 9 10 C8.34 9.67 7.68 9.34 7 9 C7.66 7.35 8.32 5.7 9 4 C6.03 3.67 3.06 3.34 0 3 C0 2.01 0 1.02 0 0 Z " fill="#000000" transform="translate(273,301)"/>
<path d="M0 0 C0.99 0 1.98 0 3 0 C2.67 1.65 2.34 3.3 2 5 C2.99 5.33 3.98 5.66 5 6 C5 6.99 5 7.98 5 9 C-1.4 11.21538462 -1.4 11.21538462 -4.4375 10.125 C-4.953125 9.75375 -5.46875 9.3825 -6 9 C-6 8.01 -6 7.02 -6 6 C-5.38125 5.938125 -4.7625 5.87625 -4.125 5.8125 C-1.72238859 5.171081 -1.72238859 5.171081 -0.75 2.4375 C-0.5025 1.633125 -0.255 0.82875 0 0 Z " fill="#000000" transform="translate(339,295)"/>
<path d="M0 0 C0 4.95 0 9.9 0 15 C-0.99 15 -1.98 15 -3 15 C-3 11.37 -3 7.74 -3 4 C-3.99 4.33 -4.98 4.66 -6 5 C-5.625 3.0625 -5.625 3.0625 -5 1 C-3 0 -3 0 0 0 Z " fill="#000000" transform="translate(383,423)"/>
<path d="M0 0 C0 4.95 0 9.9 0 15 C-0.99 15 -1.98 15 -3 15 C-3 11.37 -3 7.74 -3 4 C-3.99 4.33 -4.98 4.66 -6 5 C-5.625 3.0625 -5.625 3.0625 -5 1 C-3 0 -3 0 0 0 Z " fill="#000000" transform="translate(63,423)"/>
<path d="M0 0 C0 4.95 0 9.9 0 15 C-0.99 15 -1.98 15 -3 15 C-3 11.37 -3 7.74 -3 4 C-3.99 4.33 -4.98 4.66 -6 5 C-5.625 3.0625 -5.625 3.0625 -5 1 C-3 0 -3 0 0 0 Z " fill="#000000" transform="translate(521,169)"/>
<path d="M0 0 C0 4.95 0 9.9 0 15 C-0.99 15 -1.98 15 -3 15 C-3 11.37 -3 7.74 -3 4 C-3.99 4.33 -4.98 4.66 -6 5 C-5.625 3.0625 -5.625 3.0625 -5 1 C-3 0 -3 0 0 0 Z " fill="#000000" transform="translate(321,22)"/>
<path d="M0 0 C0 4.95 0 9.9 0 15 C-0.66 15 -1.32 15 -2 15 C-2.33 11.37 -2.66 7.74 -3 4 C-3.99 4.33 -4.98 4.66 -6 5 C-6 4.01 -6 3.02 -6 2 C-3 0 -3 0 0 0 Z " fill="#000000" transform="translate(75,423)"/>
<path d="M0 0 C1.75 0.0625 1.75 0.0625 4 1 C5.76735287 3.25409924 6.7699101 5.35758466 8 8 C7.67 8.99 7.34 9.98 7 11 C6.34 11 5.68 11 5 11 C4.16151196 9.54462432 3.32936066 8.08559627 2.5 6.625 C1.80390625 5.40683594 1.80390625 5.40683594 1.09375 4.1640625 C0 2 0 2 0 0 Z " fill="#000000" transform="translate(226,672)"/>
<path d="M0 0 C0.99 0.33 1.98 0.66 3 1 C1.16172132 4.15133488 -0.75972706 7.11964908 -3 10 C-3.99 9.67 -4.98 9.34 -6 9 C-4.47291037 5.56404834 -2.40072955 2.88087546 0 0 Z " fill="#000000" transform="translate(333,641)"/>
<path d="M0 0 C0 0.66 0 1.32 0 2 C-3.9813783 3.3271261 -7.85045227 3.06915913 -12 3 C-12 2.01 -12 1.02 -12 0 C-3.42857143 -1.28571429 -3.42857143 -1.28571429 0 0 Z " fill="#000000" transform="translate(271,695)"/>
<path d="M0 0 C3.3 1.65 6.6 3.3 10 5 C9.67 5.99 9.34 6.98 9 8 C5.08788267 6.84414715 2.1254959 5.64465038 -1 3 C-0.67 2.01 -0.34 1.02 0 0 Z " fill="#000000" transform="translate(240,688)"/>
<path d="M0 0 C0.66 0.33 1.32 0.66 2 1 C0.52440331 5.42679007 -1.90057368 5.91432696 -6 8 C-6.66 8 -7.32 8 -8 8 C-8.33 7.01 -8.66 6.02 -9 5 C-7.54735962 4.1361871 -6.0876837 3.28419546 -4.625 2.4375 C-3.40683594 1.72400391 -3.40683594 1.72400391 -2.1640625 0.99609375 C-1.44992187 0.66738281 -0.73578125 0.33867188 0 0 Z " fill="#000000" transform="translate(288,685)"/>
<path d="M0 0 C0.66 0.33 1.32 0.66 2 1 C0.51218185 4.78717347 -1.61988409 6.77407001 -5 9 C-5.99 8.67 -6.98 8.34 -8 8 C-3.375 2.25 -3.375 2.25 0 0 Z " fill="#000000" transform="translate(305,672)"/>
<path d="M0 0 C0.99 0 1.98 0 3 0 C3.66 3.63 4.32 7.26 5 11 C4.01 11 3.02 11 2 11 C0.80712589 7.12315913 0 4.08378077 0 0 Z " fill="#000000" transform="translate(220,652)"/>
<path d="M0 0 C0.99 0.33 1.98 0.66 3 1 C1.44499019 4.81684226 -1.03595495 7.19195732 -4 10 C-4.33 9.01 -4.66 8.02 -5 7 C-4.00390625 5.17578125 -4.00390625 5.17578125 -2.5625 3.3125 C-2.08941406 2.68988281 -1.61632812 2.06726563 -1.12890625 1.42578125 C-0.75636719 0.95527344 -0.38382812 0.48476563 0 0 Z " fill="#000000" transform="translate(427,516)"/>
<path d="M0 0 C0.99 0.33 1.98 0.66 3 1 C1.8905928 4.48670834 0.73662334 7.77484237 -1 11 C-1.99 10.67 -2.98 10.34 -4 10 C-2.8905928 6.51329166 -1.73662334 3.22515763 0 0 Z " fill="#000000" transform="translate(399,168)"/>
<path d="M0 0 C0.99 0 1.98 0 3 0 C2.49477778 4.37859255 -0.17827222 6.81651224 -3 10 C-3.66 9.67 -4.32 9.34 -5 9 C-3.76067171 5.56801397 -2.49698489 2.69674368 0 0 Z " fill="#000000" transform="translate(356,610)"/>
<path d="M0 0 C0.99 0 1.98 0 3 0 C1.76067171 3.43198603 0.49698489 6.30325632 -2 9 C-2.99 9 -3.98 9 -5 9 C-4.42636089 5.12793601 -2.65894107 2.81534937 0 0 Z " fill="#000000" transform="translate(380,579)"/>
<path d="M0 0 C0.99 0.33 1.98 0.66 3 1 C1.02 3.97 -0.96 6.94 -3 10 C-3.99 9.34 -4.98 8.68 -6 8 C-4.02 5.36 -2.04 2.72 0 0 Z " fill="#000000" transform="translate(392,563)"/>
<path d="M0 0 C0.99 0 1.98 0 3 0 C2.34 3.3 1.68 6.6 1 10 C0.01 10.33 -0.98 10.66 -2 11 C-1.125 3.375 -1.125 3.375 0 0 Z " fill="#000000" transform="translate(235,554)"/>
<path d="M0 0 C0.99 0.33 1.98 0.66 3 1 C1.76067171 4.43198603 0.49698489 7.30325632 -2 10 C-2.99 10 -3.98 10 -5 10 C-3.66511872 6.40608886 -2.03977277 3.24509304 0 0 Z " fill="#000000" transform="translate(122,543)"/>
<path d="M0 0 C0.99 0.66 1.98 1.32 3 2 C2.24266726 3.3410477 1.46867264 4.67269781 0.6875 6 C0.25824219 6.7425 -0.17101562 7.485 -0.61328125 8.25 C-1.07089844 8.8275 -1.52851563 9.405 -2 10 C-2.99 10 -3.98 10 -5 10 C-4.38545304 6.00544473 -2.29353263 3.25533664 0 0 Z " fill="#000000" transform="translate(133,527)"/>
<path d="M0 0 C0.99 0.33 1.98 0.66 3 1 C1.4722133 4.43752007 -0.50181056 7.18953688 -3 10 C-3.66 10 -4.32 10 -5 10 C-4.38545304 6.00544473 -2.29353263 3.25533664 0 0 Z " fill="#000000" transform="translate(439,500)"/>
<path d="M0 0 C0.99 0 1.98 0 3 0 C1.6302836 3.99500618 -0.25722422 6.80009492 -3 10 C-3.66 9.67 -4.32 9.34 -5 9 C-3.76067171 5.56801397 -2.49698489 2.69674368 0 0 Z " fill="#000000" transform="translate(154,495)"/>
<path d="M0 0 C0.99 0.33 1.98 0.66 3 1 C1.76067171 4.43198603 0.49698489 7.30325632 -2 10 C-2.99 10 -3.98 10 -5 10 C-3.66511872 6.40608886 -2.03977277 3.24509304 0 0 Z " fill="#000000" transform="translate(165,478)"/>
<path d="M0 0 C0.99 0 1.98 0 3 0 C2.44894091 3.9492568 1.61064629 7.34920174 0 11 C-0.99 10.67 -1.98 10.34 -3 10 C-2.01 6.7 -1.02 3.4 0 0 Z " fill="#000000" transform="translate(268,460)"/>
<path d="M0 0 C0.99 0 1.98 0 3 0 C1.6302836 3.99500618 -0.25722422 6.80009492 -3 10 C-3.66 9.67 -4.32 9.34 -5 9 C-3.76067171 5.56801397 -2.49698489 2.69674368 0 0 Z " fill="#000000" transform="translate(197,430)"/>
<path d="M0 0 C0.99 0 1.98 0 3 0 C2.38545304 3.99455527 0.29353263 6.74466336 -2 10 C-2.99 9.34 -3.98 8.68 -5 8 C-4.24266726 6.6589523 -3.46867264 5.32730219 -2.6875 4 C-2.25824219 3.2575 -1.82898438 2.515 -1.38671875 1.75 C-0.70029297 0.88375 -0.70029297 0.88375 0 0 Z " fill="#000000" transform="translate(229,381)"/>
<path d="M0 0 C0.99 0.33 1.98 0.66 3 1 C1.49901406 4.11743233 -0.02431822 7.15501823 -2 10 C-2.99 10 -3.98 10 -5 10 C-4.38545304 6.00544473 -2.29353263 3.25533664 0 0 Z " fill="#000000" transform="translate(251,348)"/>
<path d="M0 0 C3.63 0 7.26 0 11 0 C11 0.99 11 1.98 11 3 C7.37 3 3.74 3 0 3 C0 2.01 0 1.02 0 0 Z " fill="#000000" transform="translate(493,301)"/>
<path d="M0 0 C3.63 0 7.26 0 11 0 C11 0.99 11 1.98 11 3 C7.37 3 3.74 3 0 3 C0 2.01 0 1.02 0 0 Z " fill="#000000" transform="translate(473,301)"/>
<path d="M0 0 C3.63 0 7.26 0 11 0 C11 0.99 11 1.98 11 3 C7.37 3 3.74 3 0 3 C0 2.01 0 1.02 0 0 Z " fill="#000000" transform="translate(453,301)"/>
<path d="M0 0 C3.63 0 7.26 0 11 0 C11 0.99 11 1.98 11 3 C7.37 3 3.74 3 0 3 C0 2.01 0 1.02 0 0 Z " fill="#000000" transform="translate(433,301)"/>
<path d="M0 0 C3.63 0 7.26 0 11 0 C11 0.99 11 1.98 11 3 C7.37 3 3.74 3 0 3 C0 2.01 0 1.02 0 0 Z " fill="#000000" transform="translate(413,301)"/>
<path d="M0 0 C3.63 0 7.26 0 11 0 C11 0.99 11 1.98 11 3 C7.37 3 3.74 3 0 3 C0 2.01 0 1.02 0 0 Z " fill="#000000" transform="translate(393,301)"/>
<path d="M0 0 C3.63 0 7.26 0 11 0 C11 0.99 11 1.98 11 3 C7.37 3 3.74 3 0 3 C0 2.01 0 1.02 0 0 Z " fill="#000000" transform="translate(373,301)"/>
<path d="M0 0 C3.63 0 7.26 0 11 0 C11 0.99 11 1.98 11 3 C7.37 3 3.74 3 0 3 C0 2.01 0 1.02 0 0 Z " fill="#000000" transform="translate(353,301)"/>
<path d="M0 0 C3.63 0 7.26 0 11 0 C11 0.99 11 1.98 11 3 C7.37 3 3.74 3 0 3 C0 2.01 0 1.02 0 0 Z " fill="#000000" transform="translate(313,301)"/>
<path d="M0 0 C3.63 0 7.26 0 11 0 C11 0.99 11 1.98 11 3 C7.37 3 3.74 3 0 3 C0 2.01 0 1.02 0 0 Z " fill="#000000" transform="translate(293,301)"/>
<path d="M0 0 C3.63 0 7.26 0 11 0 C11 0.99 11 1.98 11 3 C7.37 3 3.74 3 0 3 C0 2.01 0 1.02 0 0 Z " fill="#000000" transform="translate(253,301)"/>
<path d="M0 0 C3.63 0 7.26 0 11 0 C11 0.99 11 1.98 11 3 C7.37 3 3.74 3 0 3 C0 2.01 0 1.02 0 0 Z " fill="#000000" transform="translate(233,301)"/>
<path d="M0 0 C3.63 0 7.26 0 11 0 C11 0.99 11 1.98 11 3 C7.37 3 3.74 3 0 3 C0 2.01 0 1.02 0 0 Z " fill="#000000" transform="translate(213,301)"/>
<path d="M0 0 C3.63 0 7.26 0 11 0 C11 0.99 11 1.98 11 3 C7.37 3 3.74 3 0 3 C0 2.01 0 1.02 0 0 Z " fill="#000000" transform="translate(193,301)"/>
<path d="M0 0 C3.63 0 7.26 0 11 0 C11 0.99 11 1.98 11 3 C7.37 3 3.74 3 0 3 C0 2.01 0 1.02 0 0 Z " fill="#000000" transform="translate(173,301)"/>
<path d="M0 0 C3.63 0 7.26 0 11 0 C11 0.99 11 1.98 11 3 C7.37 3 3.74 3 0 3 C0 2.01 0 1.02 0 0 Z " fill="#000000" transform="translate(153,301)"/>
<path d="M0 0 C3.63 0 7.26 0 11 0 C11 0.99 11 1.98 11 3 C7.37 3 3.74 3 0 3 C0 2.01 0 1.02 0 0 Z " fill="#000000" transform="translate(133,301)"/>
<path d="M0 0 C0.99 0.33 1.98 0.66 3 1 C1.50163895 4.11198065 -0.19933758 7.0534615 -2 10 C-2.99 9.67 -3.98 9.34 -5 9 C-3.7508258 5.54074837 -2.32472205 2.85306797 0 0 Z " fill="#000000" transform="translate(296,285)"/>
<path d="M0 0 C0.99 0.33 1.98 0.66 3 1 C1.68 3.97 0.36 6.94 -1 10 C-1.99 10 -2.98 10 -4 10 C-3.43454163 6.04179141 -2.19097652 3.3340947 0 0 Z " fill="#000000" transform="translate(348,277)"/>
<path d="M0 0 C0.99 0 1.98 0 3 0 C2.43454163 3.95820859 1.19097652 6.6659053 -1 10 C-1.99 9.67 -2.98 9.34 -4 9 C-2.68 6.03 -1.36 3.06 0 0 Z " fill="#000000" transform="translate(390,187)"/>
<path d="M0 0 C0.99 0.33 1.98 0.66 3 1 C1.76067171 4.43198603 0.49698489 7.30325632 -2 10 C-2.99 10 -3.98 10 -5 10 C-4.38545304 6.00544473 -2.29353263 3.25533664 0 0 Z " fill="#000000" transform="translate(398,142)"/>
<path d="M0 0 C0.99 0 1.98 0 3 0 C2.43454163 3.95820859 1.19097652 6.6659053 -1 10 C-1.99 9.67 -2.98 9.34 -4 9 C-2.68 6.03 -1.36 3.06 0 0 Z " fill="#000000" transform="translate(416,133)"/>
<path d="M0 0 C0.66 0.33 1.32 0.66 2 1 C0.4169423 5.2742558 -2.50568404 7.26531794 -6 10 C-6 6 -6 6 -4.6875 4.296875 C-4.130625 3.78640625 -3.57375 3.2759375 -3 2.75 C-2.1646875 1.96882812 -2.1646875 1.96882812 -1.3125 1.171875 C-0.879375 0.78515625 -0.44625 0.3984375 0 0 Z " fill="#000000" transform="translate(320,657)"/>
<path d="M0 0 C0.99 0.33 1.98 0.66 3 1 C3 4.3 3 7.6 3 11 C2.01 11 1.02 11 0 11 C0 7.37 0 3.74 0 0 Z " fill="#000000" transform="translate(219,632)"/>
<path d="M0 0 C0.99 0.33 1.98 0.66 3 1 C1.44499019 4.81684226 -1.03595495 7.19195732 -4 10 C-4 5.28093812 -2.71245796 3.72962969 0 0 Z " fill="#000000" transform="translate(368,594)"/>
<path d="M0 0 C0.99 0 1.98 0 3 0 C2.34 3.63 1.68 7.26 1 11 C0.01 10.67 -0.98 10.34 -2 10 C-1.34 6.7 -0.68 3.4 0 0 Z " fill="#000000" transform="translate(225,593)"/>
<path d="M0 0 C0.99 0.66 1.98 1.32 3 2 C2.01 4.97 1.02 7.94 0 11 C-0.99 11 -1.98 11 -3 11 C-2.01 7.37 -1.02 3.74 0 0 Z " fill="#000000" transform="translate(230,573)"/>
<path d="M0 0 C0.66 0.33 1.32 0.66 2 1 C0.7508258 4.45925163 -0.67527795 7.14693203 -3 10 C-3.99 9.67 -4.98 9.34 -6 9 C-2.25 2.25 -2.25 2.25 0 0 Z " fill="#000000" transform="translate(404,547)"/>
<path d="M0 0 C0.99 0 1.98 0 3 0 C1.76067171 3.43198603 0.49698489 6.30325632 -2 9 C-2.99 9 -3.98 9 -5 9 C-3.76067171 5.56801397 -2.49698489 2.69674368 0 0 Z " fill="#000000" transform="translate(415,532)"/>
<path d="M0 0 C0.99 0.33 1.98 0.66 3 1 C2.01 4.3 1.02 7.6 0 11 C-0.99 11 -1.98 11 -3 11 C-2.01 7.37 -1.02 3.74 0 0 Z " fill="#000000" transform="translate(254,497)"/>
<path d="M0 0 C0.99 0 1.98 0 3 0 C2.39009109 3.55780196 1.4216319 6.6828589 0 10 C-0.99 10 -1.98 10 -3 10 C-2.39009109 6.44219804 -1.4216319 3.3171411 0 0 Z " fill="#000000" transform="translate(261,479)"/>
<path d="M0 0 C0.99 0 1.98 0 3 0 C2.38545304 3.99455527 0.29353263 6.74466336 -2 10 C-2.66 9.67 -3.32 9.34 -4 9 C-3.3543999 5.51375944 -2.07639763 2.87501211 0 0 Z " fill="#000000" transform="translate(186,446)"/>
<path d="M0 0 C0.99 0.66 1.98 1.32 3 2 C1.68 4.97 0.36 7.94 -1 11 C-1.99 10.67 -2.98 10.34 -4 10 C-2.68 6.7 -1.36 3.4 0 0 Z " fill="#000000" transform="translate(276,441)"/>
<path d="M0 0 C0.99 0 1.98 0 3 0 C2.39301257 4.12751449 0.96189209 7.3321148 -1 11 C-1.66 10.67 -2.32 10.34 -3 10 C-2.39009109 6.44219804 -1.4216319 3.3171411 0 0 Z " fill="#000000" transform="translate(283,423)"/>
<path d="M0 0 C0.99 0.33 1.98 0.66 3 1 C2.57742724 2.4835001 2.13643678 3.96176424 1.6875 5.4375 C1.44386719 6.26121094 1.20023437 7.08492188 0.94921875 7.93359375 C0.63597656 8.61550781 0.32273437 9.29742187 0 10 C-0.99 10.33 -1.98 10.66 -3 11 C-2.44894091 7.0507432 -1.61064629 3.65079826 0 0 Z " fill="#000000" transform="translate(291,404)"/>
<path d="M0 0 C0.99 0.33 1.98 0.66 3 1 C1.68 4.3 0.36 7.6 -1 11 C-1.99 10.67 -2.98 10.34 -4 10 C-2.68 6.7 -1.36 3.4 0 0 Z " fill="#000000" transform="translate(299,386)"/>
<path d="M0 0 C0.99 0 1.98 0 3 0 C1.6302836 3.99500618 -0.25722422 6.80009492 -3 10 C-3.66 9.67 -4.32 9.34 -5 9 C-3.76067171 5.56801397 -2.49698489 2.69674368 0 0 Z " fill="#000000" transform="translate(240,365)"/>
<path d="M0 0 C0.99 0.33 1.98 0.66 3 1 C1.68 3.97 0.36 6.94 -1 10 C-1.99 10 -2.98 10 -4 10 C-3.52449439 8.51965236 -3.04448784 7.04074979 -2.5625 5.5625 C-2.29566406 4.73878906 -2.02882813 3.91507812 -1.75390625 3.06640625 C-1 1 -1 1 0 0 Z " fill="#000000" transform="translate(315,350)"/>
<path d="M0 0 C0.99 0.66 1.98 1.32 3 2 C1.68 4.97 0.36 7.94 -1 11 C-1.99 10.67 -2.98 10.34 -4 10 C-2.68 6.7 -1.36 3.4 0 0 Z " fill="#000000" transform="translate(323,331)"/>
<path d="M0 0 C0.99 0.33 1.98 0.66 3 1 C1.84414715 4.91211733 0.64465038 7.8745041 -2 11 C-2.66 10.34 -3.32 9.68 -4 9 C-2.68 6.03 -1.36 3.06 0 0 Z " fill="#000000" transform="translate(331,313)"/>
<path d="M0 0 C0.66 0.33 1.32 0.66 2 1 C0.7508258 4.45925163 -0.67527795 7.14693203 -3 10 C-3.99 9.67 -4.98 9.34 -6 9 C-2.25 2.25 -2.25 2.25 0 0 Z " fill="#000000" transform="translate(308,269)"/>
<path d="M0 0 C0.99 0 1.98 0 3 0 C2.60404157 1.48484412 2.18249294 2.9628831 1.75 4.4375 C1.51796875 5.26121094 1.2859375 6.08492188 1.046875 6.93359375 C0 9 0 9 -2.109375 9.78515625 C-2.73328125 9.85605469 -3.3571875 9.92695313 -4 10 C-2.8905928 6.51329166 -1.73662334 3.22515763 0 0 Z " fill="#000000" transform="translate(356,259)"/>
<path d="M0 0 C0.99 0.66 1.98 1.32 3 2 C2.04956626 3.33897583 1.08940853 4.67105427 0.125 6 C-0.40867187 6.7425 -0.94234375 7.485 -1.4921875 8.25 C-1.98976563 8.8275 -2.48734375 9.405 -3 10 C-3.66 10 -4.32 10 -5 10 C-4.38545304 6.00544473 -2.29353263 3.25533664 0 0 Z " fill="#000000" transform="translate(319,253)"/>
<path d="M0 0 C0.99 0 1.98 0 3 0 C1.76067171 3.43198603 0.49698489 6.30325632 -2 9 C-2.99 9 -3.98 9 -5 9 C-3.76067171 5.56801397 -2.49698489 2.69674368 0 0 Z " fill="#000000" transform="translate(330,238)"/>
<path d="M0 0 C0.99 0 1.98 0 3 0 C2.38545304 3.99455527 0.29353263 6.74466336 -2 10 C-2.99 9.01 -3.98 8.02 -5 7 C-4.24172908 5.82512964 -3.46792245 4.66027408 -2.6875 3.5 C-2.25824219 2.8503125 -1.82898438 2.200625 -1.38671875 1.53125 C-0.70029297 0.77328125 -0.70029297 0.77328125 0 0 Z " fill="#000000" transform="translate(341,222)"/>
<path d="M0 0 C0.99 0.33 1.98 0.66 3 1 C1.02 3.97 -0.96 6.94 -3 10 C-3.66 9.67 -4.32 9.34 -5 9 C-4.42647107 5.12867972 -2.51295648 2.91827204 0 0 Z " fill="#000000" transform="translate(353,206)"/>
<path d="M0 0 C0.99 0.33 1.98 0.66 3 1 C-0.625 7.75 -0.625 7.75 -4 10 C-4 5.28093812 -2.71245796 3.72962969 0 0 Z " fill="#000000" transform="translate(364,190)"/>
<path d="M0 0 C0.66 0.33 1.32 0.66 2 1 C0.7508258 4.45925163 -0.67527795 7.14693203 -3 10 C-3.99 9.67 -4.98 9.34 -6 9 C-2.25 2.25 -2.25 2.25 0 0 Z " fill="#000000" transform="translate(376,174)"/>
<path d="M0 0 C0.99 0.66 1.98 1.32 3 2 C2.04956626 3.33897583 1.08940853 4.67105427 0.125 6 C-0.40867187 6.7425 -0.94234375 7.485 -1.4921875 8.25 C-1.98976563 8.8275 -2.48734375 9.405 -3 10 C-3.66 10 -4.32 10 -5 10 C-4.49701212 5.59885603 -2.91227269 3.28804981 0 0 Z " fill="#000000" transform="translate(387,158)"/>
<path d="M0 0 C0.99 0 1.98 0 3 0 C1.76067171 3.43198603 0.49698489 6.30325632 -2 9 C-2.99 9 -3.98 9 -5 9 C-3.76067171 5.56801397 -2.49698489 2.69674368 0 0 Z " fill="#000000" transform="translate(409,127)"/>
<path d="M0 0 C0.66 0 1.32 0 2 0 C1.38545304 3.99455527 -0.70646737 6.74466336 -3 10 C-3.99 9.34 -4.98 8.68 -6 8 C-5.04956626 6.66102417 -4.08940853 5.32894573 -3.125 4 C-2.59132813 3.2575 -2.05765625 2.515 -1.5078125 1.75 C-1.01023437 1.1725 -0.51265625 0.595 0 0 Z " fill="#000000" transform="translate(421,111)"/>
<path d="M0 0 C0.99 0 1.98 0 3 0 C2.42647107 3.87132028 0.51295648 6.08172796 -2 9 C-2.99 8.67 -3.98 8.34 -5 8 C-4.24266726 6.6589523 -3.46867264 5.32730219 -2.6875 4 C-2.25824219 3.2575 -1.82898438 2.515 -1.38671875 1.75 C-0.70029297 0.88375 -0.70029297 0.88375 0 0 Z " fill="#000000" transform="translate(344,626)"/>
<path d="M0 0 C0.99 0.33 1.98 0.66 3 1 C2.67 4.3 2.34 7.6 2 11 C1.01 11 0.02 11 -1 11 C-0.67 7.37 -0.34 3.74 0 0 Z " fill="#000000" transform="translate(221,612)"/>
<path d="M0 0 C0.99 0.33 1.98 0.66 3 1 C2.01 4.3 1.02 7.6 0 11 C-0.99 10.67 -1.98 10.34 -3 10 C-2.01 6.7 -1.02 3.4 0 0 Z " fill="#000000" transform="translate(241,535)"/>
<path d="M0 0 C0.66 0 1.32 0 2 0 C1.53199289 4.05606165 1.12046792 7.46588679 -1 11 C-1.66 11 -2.32 11 -3 11 C-2.53199289 6.94393835 -2.12046792 3.53411321 0 0 Z " fill="#000000" transform="translate(248,516)"/>
<path d="M0 0 C0.99 0.66 1.98 1.32 3 2 C2.24266726 3.3410477 1.46867264 4.67269781 0.6875 6 C0.25824219 6.7425 -0.17101562 7.485 -0.61328125 8.25 C-1.07089844 8.8275 -1.52851563 9.405 -2 10 C-2.99 10 -3.98 10 -5 10 C-3.66511872 6.40608886 -2.03977277 3.24509304 0 0 Z " fill="#000000" transform="translate(208,413)"/>
<path d="M0 0 C0.99 0.33 1.98 0.66 3 1 C1.68 3.97 0.36 6.94 -1 10 C-1.99 10 -2.98 10 -4 10 C-3.52449439 8.51965236 -3.04448784 7.04074979 -2.5625 5.5625 C-2.29566406 4.73878906 -2.02882813 3.91507812 -1.75390625 3.06640625 C-1 1 -1 1 0 0 Z " fill="#000000" transform="translate(307,368)"/>
<path d="M0 0 C0.99 0 1.98 0 3 0 C1.7508258 3.45925163 0.32472205 6.14693203 -2 9 C-2.99 8.67 -3.98 8.34 -5 8 C-1.125 1.125 -1.125 1.125 0 0 Z " fill="#000000" transform="translate(262,333)"/>
<path d="M0 0 C0.99 0 1.98 0 3 0 C2.42647107 3.87132028 0.51295648 6.08172796 -2 9 C-2.99 8.67 -3.98 8.34 -5 8 C-4.24266726 6.6589523 -3.46867264 5.32730219 -2.6875 4 C-2.25824219 3.2575 -1.82898438 2.515 -1.38671875 1.75 C-0.70029297 0.88375 -0.70029297 0.88375 0 0 Z " fill="#000000" transform="translate(273,317)"/>
<path d="M0 0 C0.99 0.33 1.98 0.66 3 1 C1.68 3.97 0.36 6.94 -1 10 C-1.99 10 -2.98 10 -4 10 C-3.43454163 6.04179141 -2.19097652 3.3340947 0 0 Z " fill="#000000" transform="translate(382,205)"/>
<path d="M0 0 C0.99 0 1.98 0 3 0 C1.6302836 3.99500618 -0.25722422 6.80009492 -3 10 C-3.66 9.34 -4.32 8.68 -5 8 C-4.24266726 6.6589523 -3.46867264 5.32730219 -2.6875 4 C-2.25824219 3.2575 -1.82898438 2.515 -1.38671875 1.75 C-0.70029297 0.88375 -0.70029297 0.88375 0 0 Z " fill="#000000" transform="translate(111,560)"/>
<path d="M0 0 C0.66 0.33 1.32 0.66 2 1 C0.68775452 4.93673644 -0.91910327 7.22719294 -4 10 C-4.33 9.01 -4.66 8.02 -5 7 C-4.00390625 5.17578125 -4.00390625 5.17578125 -2.5625 3.3125 C-2.08941406 2.68988281 -1.61632812 2.06726563 -1.12890625 1.42578125 C-0.75636719 0.95527344 -0.38382813 0.48476563 0 0 Z " fill="#000000" transform="translate(219,397)"/>
<path d="M0 0 C3.3 0 6.6 0 10 0 C10 0.99 10 1.98 10 3 C6.7 3 3.4 3 0 3 C0 2.01 0 1.02 0 0 Z " fill="#000000" transform="translate(113,301)"/>
<path d="M0 0 C3.3 0 6.6 0 10 0 C10 0.99 10 1.98 10 3 C6.7 3 3.4 3 0 3 C0 2.01 0 1.02 0 0 Z " fill="#000000" transform="translate(93,301)"/>
<path d="M0 0 C0.99 0.33 1.98 0.66 3 1 C1.68 3.97 0.36 6.94 -1 10 C-1.99 10 -2.98 10 -4 10 C-3.43454163 6.04179141 -2.19097652 3.3340947 0 0 Z " fill="#000000" transform="translate(365,241)"/>
<path d="M0 0 C0.99 0 1.98 0 3 0 C2.01 2.97 1.02 5.94 0 9 C-1.32 9 -2.64 9 -4 9 C-2.68 6.03 -1.36 3.06 0 0 Z " fill="#000000" transform="translate(373,223)"/>
<path d="M0 0 C0.66 0.33 1.32 0.66 2 1 C0.80100302 4.0831351 -0.47700477 7.06279492 -2 10 C-2.99 9.67 -3.98 9.34 -5 9 C-3.7508258 5.54074837 -2.32472205 2.85306797 0 0 Z " fill="#000000" transform="translate(176,462)"/>
<path d="M0 0 C0.99 0.33 1.98 0.66 3 1 C0.525 5.455 0.525 5.455 -2 10 C-2.66 10 -3.32 10 -4 10 C-3.43454163 6.04179141 -2.19097652 3.3340947 0 0 Z " fill="#000000" transform="translate(408,151)"/>
<path d="M0 0 C0.99 0 1.98 0 3 0 C1.8905928 3.48670834 0.73662334 6.77484237 -1 10 C-1.99 9.67 -2.98 9.34 -4 9 C-2.68 6.03 -1.36 3.06 0 0 Z " fill="#000000" transform="translate(425,115)"/>
<path d="M0 0 C0.66 0.33 1.32 0.66 2 1 C0.68775452 4.93673644 -0.91910327 7.22719294 -4 10 C-4.33 9.01 -4.66 8.02 -5 7 C-4.00390625 5.17578125 -4.00390625 5.17578125 -2.5625 3.3125 C-2.08941406 2.68988281 -1.61632812 2.06726563 -1.12890625 1.42578125 C-0.75636719 0.95527344 -0.38382813 0.48476563 0 0 Z " fill="#000000" transform="translate(144,511)"/>
<path d="M0 0 C1.98 0 3.96 0 6 0 C6 0.99 6 1.98 6 3 C4.02 3 2.04 3 0 3 C0 2.01 0 1.02 0 0 Z " fill="#000000" transform="translate(513,301)"/>
<path d="M0 0 C0.66 0.33 1.32 0.66 2 1 C1.34 2.65 0.68 4.3 0 6 C-0.99 5.67 -1.98 5.34 -3 5 C-1.125 1.125 -1.125 1.125 0 0 Z " fill="#000000" transform="translate(441,83)"/>
<path d="M0 0 C0.99 0.33 1.98 0.66 3 1 C2.01 2.32 1.02 3.64 0 5 C-0.99 4.67 -1.98 4.34 -3 4 C-2.01 2.68 -1.02 1.36 0 0 Z " fill="#000000" transform="translate(448,489)"/>
<path d="M0 0 C1.65 0 3.3 0 5 0 C5 0.99 5 1.98 5 3 C3.35 3 1.7 3 0 3 C0 2.01 0 1.02 0 0 Z " fill="#000000" transform="translate(78,301)"/>
<path d="M0 0 C0.99 0.33 1.98 0.66 3 1 C2.67 1.99 2.34 2.98 2 4 C1.01 3.01 0.02 2.02 -1 1 C-0.67 0.67 -0.34 0.34 0 0 Z " fill="#000000" transform="translate(386,435)"/>
<path d="M0 0 C0.99 0.33 1.98 0.66 3 1 C2.67 1.99 2.34 2.98 2 4 C1.01 3.01 0.02 2.02 -1 1 C-0.67 0.67 -0.34 0.34 0 0 Z " fill="#000000" transform="translate(66,435)"/>
<path d="M0 0 C0.99 0.33 1.98 0.66 3 1 C2.67 1.99 2.34 2.98 2 4 C1.01 3.01 0.02 2.02 -1 1 C-0.67 0.67 -0.34 0.34 0 0 Z " fill="#000000" transform="translate(524,181)"/>
<path d="M0 0 C0.99 0.33 1.98 0.66 3 1 C2.67 1.99 2.34 2.98 2 4 C1.01 3.01 0.02 2.02 -1 1 C-0.67 0.67 -0.34 0.34 0 0 Z " fill="#000000" transform="translate(324,34)"/>
</svg>
