<svg width="658" height="506" viewBox="0 0 658 506" fill="none" xmlns="http://www.w3.org/2000/svg">
<path d="M351.105 3C408.598 3 434.15 44.5223 439.739 65.2834L544.543 3H588.261L537.357 183.862C510.527 260.039 503.42 324.997 503.221 347.954C507.053 399.218 557.918 364.124 582.872 340.169L654.737 283.874V361.729C651.144 365.122 632.818 382.45 588.261 424.611C543.705 466.772 503.819 488.092 489.446 493.482C418.539 520.791 380.85 482.103 370.868 459.346C352.662 435.87 351.305 378.896 352.902 353.344C316.969 448.686 240.512 488.891 206.775 497.075C106.164 526.78 58.6526 437.587 47.4736 389.277C41.0855 360.73 35.0169 288.306 61.8467 226.981C95.3839 150.324 145.091 87.442 201.984 53.9047C258.878 20.3675 279.24 3 351.105 3Z" stroke="black" stroke-width="5"/>
<path d="M270.856 125.171C351.824 24.5594 380.052 83.2495 384.044 125.171C379.732 214.763 338.33 293.057 318.167 321.005C208.453 442.218 200.587 335.178 210.369 266.507C216.118 222.429 253.089 153.917 270.856 125.171Z" stroke="black" stroke-width="5"/>
<path d="M619.328 348.836C563.661 411.669 444.028 516.136 410.828 431.336L528.828 50.8359" stroke="black" stroke-width="2" stroke-dasharray="10 10"/>
<path d="M487.828 183.502C451.112 85.2164 353.275 -38.1757 217.739 101.68C142.798 179.01 71.8804 313.716 125.697 431.458C137.042 456.278 180.017 511.783 294.692 390.05L478.775 207.949" stroke="black" stroke-width="2" stroke-dasharray="10 10"/>
<path d="M31.6193 163.455V178H29.858V165.301H29.7727L26.2216 167.659V165.869L29.858 163.455H31.6193Z" fill="black"/>
<path d="M570.506 206V204.722L575.307 199.466C575.87 198.85 576.334 198.315 576.699 197.861C577.063 197.402 577.333 196.971 577.509 196.568C577.688 196.161 577.778 195.735 577.778 195.29C577.778 194.778 577.655 194.336 577.409 193.962C577.168 193.588 576.836 193.299 576.415 193.095C575.993 192.892 575.52 192.79 574.994 192.79C574.436 192.79 573.948 192.906 573.531 193.138C573.119 193.365 572.8 193.685 572.572 194.097C572.35 194.509 572.239 194.991 572.239 195.545H570.562C570.562 194.693 570.759 193.945 571.152 193.301C571.545 192.657 572.08 192.155 572.757 191.795C573.439 191.436 574.204 191.256 575.051 191.256C575.903 191.256 576.659 191.436 577.317 191.795C577.975 192.155 578.491 192.641 578.865 193.251C579.239 193.862 579.426 194.542 579.426 195.29C579.426 195.825 579.329 196.348 579.135 196.859C578.946 197.366 578.614 197.932 578.141 198.557C577.672 199.177 577.021 199.935 576.188 200.83L572.92 204.324V204.438H579.682V206H570.506Z" fill="black"/>
<path d="M16.201 427.386C16.9666 427.703 17.8437 427.338 18.16 426.573L23.3145 414.095C23.6308 413.33 23.2665 412.453 22.5008 412.136C21.7351 411.82 20.858 412.184 20.5417 412.95L15.96 424.041L4.86913 419.459C4.10346 419.143 3.22635 419.507 2.91005 420.273C2.59375 421.039 2.95803 421.916 3.7237 422.232L16.201 427.386ZM161.702 37.6133C135.007 48.6203 109.315 70.7029 86.6129 99.4532C63.8995 128.218 44.1111 163.742 29.2523 201.767C-0.43804 277.746 -10.5748 364.062 15.3884 426.575L18.1589 425.425C-7.37783 363.938 2.48638 278.504 32.0465 202.858C46.813 165.07 66.4623 129.813 88.9674 101.312C111.484 72.7971 136.791 51.1297 162.846 40.3867L161.702 37.6133Z" fill="black"/>
<path d="M546.052 318.808C546.372 318.044 546.011 317.165 545.247 316.846L532.79 311.642C532.026 311.322 531.147 311.683 530.828 312.448C530.508 313.212 530.869 314.091 531.634 314.41L542.706 319.036L538.08 330.108C537.76 330.873 538.121 331.751 538.886 332.071C539.65 332.39 540.529 332.029 540.848 331.265L546.052 318.808ZM586.106 98.4477C570.41 138.082 545.498 198.795 531.609 246.679C524.681 270.567 520.419 291.504 521.54 305.074C522.098 311.83 524.025 317.2 528.104 319.985C532.234 322.803 537.991 322.594 545.238 319.618L544.098 316.843C537.179 319.684 532.667 319.466 529.796 317.507C526.874 315.513 525.068 311.334 524.53 304.827C523.46 291.872 527.556 271.425 534.49 247.515C548.329 199.805 573.167 139.267 588.895 99.5523L586.106 98.4477Z" fill="black"/>
<circle cx="484.5" cy="187.5" r="30.5" fill="black"/>
</svg>
