<?xml version="1.0" encoding="UTF-8"?>
<svg version="1.1" xmlns="http://www.w3.org/2000/svg" width="625" height="579">
<path d="M0 0 C14.63978614 12.27259937 21.75543328 29.83148469 23.9375 48.4375 C24.09465706 51.54300714 24.12748087 54.64085012 24.125 57.75 C24.12564453 58.58869629 24.12628906 59.42739258 24.12695312 60.29150391 C24.08249999 65.49959223 23.71879854 70.37177911 22.375 75.4296875 C21.83580882 77.90418988 21.71336505 79.90560517 21.9375 82.4375 C23.26413399 84.43318854 23.26413399 84.43318854 25.19140625 86.14453125 C25.88169922 86.81419922 26.57199219 87.48386719 27.28320312 88.17382812 C28.01474609 88.85896484 28.74628906 89.54410156 29.5 90.25 C30.92045843 91.60807782 32.3384415 92.96874953 33.75390625 94.33203125 C34.45338379 95.00508301 35.15286133 95.67813477 35.87353516 96.37158203 C38.51048633 99.01102854 40.9478804 101.78986814 43.36108398 104.63354492 C44.98048282 106.48668693 46.67984078 108.21574828 48.4375 109.9375 C51.40465801 112.85880788 54.13808971 115.91741673 56.85546875 119.0703125 C59.497964 122.07472549 62.21590173 125.00484072 64.9375 127.9375 C69.35261903 132.70372193 73.70672398 137.50597432 77.9375 142.4375 C78.35435059 142.9226709 78.77120117 143.4078418 79.20068359 143.90771484 C81.72334773 146.84424671 84.24221658 149.78397368 86.7578125 152.7265625 C88.82720698 155.1457138 90.90527307 157.55688733 92.9921875 159.9609375 C98.91302569 166.79488729 104.62343198 173.74822476 110.16796875 180.890625 C112.49677825 183.88775905 114.87427123 186.84207064 117.26513672 189.78979492 C181.9375 269.72109298 181.9375 269.72109298 181.9375 299.4375 C183.35351714 299.91858275 184.77034437 300.39728141 186.1875 300.875 C186.97640625 301.14183594 187.7653125 301.40867187 188.578125 301.68359375 C189.74601563 302.05677734 189.74601563 302.05677734 190.9375 302.4375 C191.52917969 302.62828125 192.12085938 302.8190625 192.73046875 303.015625 C207.04732586 305.75229857 219.3062427 302.40093706 231.25 294.41015625 C242.62979636 286.0572534 251.71540599 275.3016799 260.53125 264.375 C263.23529387 261.07395943 266.01879525 257.85001355 268.8125 254.625 C273.76088765 248.89339176 278.48275053 243.01688683 283.12890625 237.0390625 C286.17397058 233.12134713 289.27140118 229.24641623 292.375 225.375 C292.87128906 224.75568604 293.36757813 224.13637207 293.87890625 223.49829102 C294.81023601 222.33651439 295.74310335 221.17596817 296.67773438 220.0168457 C297.80512352 218.60345803 298.90271424 217.16642091 299.99609375 215.7265625 C306.91934717 207.5635313 317.33828515 202.79563856 327.8125 201.5 C339.75111268 200.87165196 349.95865252 205.26073218 359.125 212.625 C368.1709387 220.95157976 373.13723381 233.61881604 374.23510742 245.71704102 C374.55711691 255.51383688 372.61136062 262.4667283 368.25 271.375 C367.65386421 272.63691083 367.05924746 273.89954027 366.46606445 275.1628418 C364.67285671 278.94632002 362.81469863 282.69512787 360.9375 286.4375 C360.39834961 287.51870117 359.85919922 288.59990234 359.30371094 289.71386719 C339.19339986 329.51945477 311.694663 367.30960754 272.9375 390.4375 C272.36483398 390.78409668 271.79216797 391.13069336 271.20214844 391.48779297 C253.80061729 401.87698529 234.20221716 407.83557233 213.9375 407.8125 C212.76082764 407.81378906 211.58415527 407.81507813 210.37182617 407.81640625 C200.47848778 407.6976241 191.4086904 406.21076359 181.9375 403.4375 C181.42703125 404.406875 180.9165625 405.37625 180.390625 406.375 C172.26187824 421.49191744 162.26683621 434.67892772 150.33398438 446.99414062 C149.02817534 448.34378102 147.73994773 449.71037002 146.453125 451.078125 C139.84280629 457.9476719 132.55247231 463.73953526 124.9375 469.4375 C124.10605469 470.06398438 123.27460938 470.69046875 122.41796875 471.3359375 C84.62289035 498.76473375 40.84411105 509.14078778 -5.16308594 501.94238281 C-29.66123811 497.67645332 -53.06412224 487.54111854 -72.0625 471.4375 C-72.57119629 471.01243164 -73.07989258 470.58736328 -73.60400391 470.14941406 C-99.48168613 448.34818448 -114.02237689 416.5071618 -117.78515625 383.1796875 C-118.68633068 371.02017893 -117.97639949 359.47969973 -116.0625 347.4375 C-115.72708214 345.10446541 -115.39348114 342.77116815 -115.0625 340.4375 C-115.43310547 341.25387939 -115.80371094 342.07025879 -116.18554688 342.91137695 C-123.34672749 358.68328561 -130.51429261 374.452327 -137.70556641 390.21054077 C-138.39666422 391.7254674 -139.08726439 393.24062114 -139.77734375 394.75601196 C-141.85760442 399.32346659 -143.95211099 403.883882 -146.0625 408.4375 C-146.45904785 409.30213867 -146.8555957 410.16677734 -147.26416016 411.05761719 C-152.04446277 421.12898812 -160.99654754 426.37495392 -171.0625 430.4375 C-189.02181456 436.42393819 -207.41952663 438.42529962 -224.9765625 430.046875 C-227.45083193 428.6265995 -229.75651504 427.11534646 -232.0625 425.4375 C-232.69542969 424.98632812 -233.32835937 424.53515625 -233.98046875 424.0703125 C-243.19500842 416.8695464 -249.15902701 405.89425255 -251.0625 394.4375 C-252.1660774 382.19203542 -248.05947378 371.51923676 -242.57226562 360.79174805 C-242.02378967 359.69552628 -241.47531372 358.5993045 -240.91021729 357.46986389 C-239.41825539 354.49356996 -237.9159186 351.5229785 -236.40867805 348.55442405 C-234.81661592 345.41205364 -233.23885149 342.26251892 -231.6595459 339.11372375 C-228.6612224 333.14080676 -225.65108529 327.17393126 -222.63621283 321.20935327 C-218.25063651 312.53177773 -213.88227344 303.84554245 -209.51461029 295.15894032 C-208.86012606 293.85732672 -208.20563847 292.55571481 -207.55114746 291.25410461 C-207.23046216 290.61628376 -206.90977687 289.97846291 -206.57937384 289.32131416 C-204.41571415 285.01910046 -202.24631253 280.71982472 -200.0748291 276.42155457 C-193.2812443 262.95841361 -186.6440618 249.43373386 -180.1886034 235.80521774 C-178.53354847 232.32533931 -176.85173878 228.85867991 -175.1640625 225.39453125 C-167.54342714 209.73624807 -160.06487292 194.02289486 -152.79296875 178.19873047 C-151.58870169 175.57867099 -150.37986804 172.96077617 -149.16796875 170.34423828 C-139.38287499 149.21531753 -129.85347306 128.00151002 -121.0625 106.4375 C-120.3804248 104.7980542 -120.3804248 104.7980542 -119.68457031 103.12548828 C-114.50835856 90.53507928 -112.42127921 80.19275877 -112.95703125 66.59375 C-113.64556916 46.95038287 -105.51651182 25.86835179 -92.6875 11.1875 C-91.16234341 9.58825708 -89.62115088 8.00411673 -88.0625 6.4375 C-87.39863281 5.73882813 -86.73476562 5.04015625 -86.05078125 4.3203125 C-63.44255456 -17.81421801 -24.84522764 -18.37709793 0 0 Z M-90.05078125 16.63671875 C-100.72504585 31.49778228 -107.85586993 49.92093777 -106.82836914 68.35839844 C-106.0963804 82.73430219 -109.67490528 94.24998225 -115.0625 107.4375 C-115.31940613 108.06827454 -115.57631226 108.69904907 -115.84100342 109.34893799 C-125.22918361 132.34009828 -135.5909539 154.92377107 -146.0625 177.4375 C-146.3935675 178.14948547 -146.72463501 178.86147095 -147.06573486 179.59503174 C-155.67929243 198.10606738 -164.48168887 216.52183512 -173.41900635 234.8785553 C-176.3662663 240.93254847 -179.28892462 246.99666825 -182.17260742 253.08129883 C-187.70199765 264.74734102 -193.46727035 276.28913762 -199.26174927 287.82501221 C-203.72695367 296.71614739 -208.14681602 305.61798882 -212.375 314.625 C-215.84206017 322.00500597 -219.49498845 329.28030924 -223.22265625 336.53125 C-223.68853653 337.43756668 -224.15441681 338.34388336 -224.63441467 339.27766418 C-226.98652469 343.84797528 -229.34661699 348.41399639 -231.71606445 352.9753418 C-244.16407756 375.54842888 -244.16407756 375.54842888 -243.5 400.5 C-239.52363716 411.38267723 -231.29335704 419.85101166 -221.125 425.25 C-206.52652037 431.9639755 -189.94068657 430.7754183 -175.0625 425.4375 C-170.18674732 423.48646591 -165.52755354 421.20966821 -161.0625 418.4375 C-160.50385254 418.11152832 -159.94520508 417.78555664 -159.36962891 417.44970703 C-152.90454032 412.9359327 -150.49226975 405.44286519 -147.55541992 398.43212891 C-146.19362732 395.18217588 -144.7915336 391.950137 -143.39099121 388.71673584 C-142.66974895 387.0514295 -141.95044029 385.38528444 -141.23303223 383.71832275 C-137.84896016 375.87419849 -134.23110091 368.15154947 -130.5625 360.4375 C-125.22566373 349.17683181 -120.09066185 337.83917416 -115.0625 326.4375 C-110.0071706 314.97690882 -104.84789308 303.57716259 -99.5 292.25 C-94.46150112 281.57699051 -89.49565557 270.87574125 -84.625 260.125 C-84.31714569 259.44555328 -84.00929138 258.76610657 -83.69210815 258.06607056 C-82.43937326 255.30079215 -81.18678453 252.53544768 -79.93461609 249.76991272 C-76.6643083 242.55073048 -73.3676945 235.34363908 -70.0692749 228.13726807 C-64.68941204 216.38245525 -59.31590307 204.62473128 -53.96020508 192.85888672 C-53.33561909 191.48711611 -52.71064017 190.11552431 -52.08520508 188.74414062 C-47.64926269 179.016047 -43.32465515 169.24296257 -39.0625 159.4375 C-34.74633165 162.26418619 -30.83189291 165.23343223 -27.0625 168.75 C-26.50852539 169.2648999 -25.95455078 169.7797998 -25.38378906 170.31030273 C-15.95033965 179.20073426 -7.22654828 188.77102924 0.86328125 198.89453125 C2.97837596 201.48761347 5.18268096 203.965349 7.4375 206.4375 C12.14213572 211.6125993 16.54268139 216.99891197 20.9375 222.4375 C21.93667657 223.65692517 22.93672565 224.87563577 23.9375 226.09375 C30.14859589 233.66911098 36.20793642 241.33720979 42.12524414 249.14428711 C45.7142785 253.87023739 49.38924925 258.51446346 53.125 263.125 C58.70180546 270.01838485 63.87127913 277.16321384 68.9375 284.4375 C63.49226572 282.99738399 58.07364543 281.51402946 52.7109375 279.7890625 C38.62161862 275.26193026 24.5232898 271.93070935 9.9375 269.4375 C9.17840332 269.30472656 8.41930664 269.17195313 7.63720703 269.03515625 C-2.03890735 267.41068244 -11.70968329 267.21944851 -21.5 267.125 C-22.6856958 267.10719482 -23.8713916 267.08938965 -25.09301758 267.07104492 C-47.469925 267.09153804 -67.33899663 280.49324599 -82.875 295.6875 C-89.4150006 302.30749042 -94.65851303 309.24837961 -99.0625 317.4375 C-99.38686035 318.04062012 -99.7112207 318.64374023 -100.04541016 319.26513672 C-115.68775895 349.06792759 -114.35050551 380.91974027 -105.04296875 412.2890625 C-99.29488566 430.72032349 -89.32645956 445.53843372 -76.0625 459.4375 C-75.47597656 460.09878906 -74.88945312 460.76007813 -74.28515625 461.44140625 C-51.98135414 485.59979146 -15.58813352 496.917864 16.35668945 498.56201172 C43.03665436 499.43127699 67.94959141 494.13680064 91.9375 482.4375 C92.87021729 481.98552246 92.87021729 481.98552246 93.82177734 481.52441406 C109.34179799 473.89558727 123.04473556 463.89866256 135.9375 452.4375 C136.92878906 451.56867188 137.92007812 450.69984375 138.94140625 449.8046875 C144.36768936 444.97640293 149.34535271 440.05940153 153.9375 434.4375 C154.37175293 433.9209082 154.80600586 433.40431641 155.25341797 432.87207031 C164.66875518 421.66678092 174.14975727 409.83092236 177.9375 395.4375 C179.00226563 395.77523438 180.06703125 396.11296875 181.1640625 396.4609375 C211.67664009 405.9370691 238.01307517 401.95439412 266.06640625 387.3046875 C279.51778324 380.08764988 290.93880162 370.94237927 301.9375 360.4375 C302.79214844 359.63570313 303.64679687 358.83390625 304.52734375 358.0078125 C311.42327881 351.36244064 317.2005424 344.07282752 322.9375 336.4375 C323.44152344 335.77782227 323.94554687 335.11814453 324.46484375 334.43847656 C341.95431784 311.48626774 371.49534644 272.42981298 367.9375 242.4375 C365.3560884 229.66023362 359.49657764 220.12631765 348.9375 212.4375 C340.64349643 207.77128011 332.46680925 206.07330318 323.125 208.5625 C309.13484743 213.16229259 301.42416763 223.02203078 292.81079102 234.40405273 C288.9167159 239.53391367 284.77397236 244.42652141 280.58984375 249.3203125 C278.16397724 252.15937125 275.79335076 255.03992955 273.4375 257.9375 C269.69074914 262.54065105 265.87542628 267.07992378 262.0234375 271.5949707 C259.08468594 275.04831162 256.24849775 278.56607607 253.4375 282.125 C242.91975506 294.95515695 228.01138812 307.85560685 210.85302734 309.65625 C200.78356225 310.35627799 192.32652348 309.33536732 182.9375 305.4375 C181.88046875 305.24929688 180.8234375 305.06109375 179.734375 304.8671875 C176.9375 303.4375 176.9375 303.4375 176.23730469 301.60351562 C175.92248787 300.03819515 175.64093976 298.46594457 175.38671875 296.88964844 C174.67672675 293.01401817 173.07628203 289.62512236 171.4375 286.0625 C171.0871167 285.29139893 170.7367334 284.52029785 170.37573242 283.72583008 C159.85642531 260.90057044 146.72529583 239.72485141 131.9375 219.4375 C131.38449219 218.67195801 130.83148438 217.90641602 130.26171875 217.11767578 C122.59768986 206.51043489 114.65350623 196.20552484 106.31835938 186.11816406 C104.45530455 183.8506129 102.63312664 181.55168653 100.8125 179.25 C96.45713457 173.79212574 91.94010781 168.47370937 87.40820312 163.16259766 C85.9200451 161.41702584 84.43642806 159.66766685 82.953125 157.91796875 C77.22859124 151.18289564 71.38473675 144.58639961 65.3828125 138.09765625 C63.38589207 135.92528754 61.42921266 133.73210837 59.5 131.5 C54.96913592 126.27871854 50.24052004 121.2373648 45.54003906 116.16943359 C43.93620199 114.43609719 42.33829626 112.69748461 40.7421875 110.95703125 C36.09514573 105.89396585 31.43601388 100.87125077 26.52734375 96.05859375 C24.07101201 93.55398031 21.79620728 90.89860664 19.515625 88.234375 C17.99702777 86.40679247 17.99702777 86.40679247 16.1875 85.00390625 C14.9375 83.4375 14.9375 83.4375 15.046875 81.16796875 C15.25828125 80.32878906 15.4696875 79.48960938 15.6875 78.625 C20.52740215 58.6138661 18.87977541 36.46770844 8.1875 18.49609375 C-0.32211397 6.16058479 -11.09765089 -2.30883823 -25.8125 -5.9375 C-50.3623426 -9.75106778 -73.70045445 -2.56579487 -90.05078125 16.63671875 Z M-37.0625 167.4375 C-45.56414136 185.819599 -54.00932501 204.22137778 -62.1875 222.75 C-67.22035938 234.14871044 -72.36979583 245.48131689 -77.6875 256.75 C-82.54407854 267.05169191 -87.38068159 277.36147964 -92.10760498 287.72348022 C-92.74022138 289.10745244 -93.37564551 290.49014495 -94.01397705 291.87149048 C-94.89194891 293.77292983 -95.75980145 295.67865928 -96.625 297.5859375 C-97.12128906 298.67052246 -97.61757812 299.75510742 -98.12890625 300.87255859 C-98.59103516 302.14220459 -98.59103516 302.14220459 -99.0625 303.4375 C-98.7325 304.0975 -98.4025 304.7575 -98.0625 305.4375 C-97.34964844 304.58027344 -96.63679687 303.72304688 -95.90234375 302.83984375 C-80.62106384 284.54459972 -59.73315475 265.85430051 -35.0625 262.4375 C-9.30956641 260.94418282 15.00665904 264.87738916 39.96777344 270.75830078 C44.27329554 271.74300668 48.60007806 272.60608994 52.9375 273.4375 C51.68777546 270.81343552 50.344958 268.47424967 48.609375 266.14453125 C47.91509399 265.21229736 47.91509399 265.21229736 47.20678711 264.26123047 C46.70542236 263.59752441 46.20405762 262.93381836 45.6875 262.25 C45.16099854 261.5502002 44.63449707 260.85040039 44.09204102 260.12939453 C39.57608653 254.17825979 34.86355036 248.40365301 30.08544922 242.66210938 C26.41521482 238.24931858 22.82960943 233.78552308 19.3125 229.25 C14.22992808 222.7168587 8.87946322 216.44095282 3.45361328 210.19189453 C1.93700965 208.43693259 0.43337008 206.6716989 -1.06640625 204.90234375 C-10.23895977 194.08964496 -19.74954211 183.67910019 -29.75 173.625 C-30.36278809 173.00753906 -30.97557617 172.39007813 -31.60693359 171.75390625 C-33.95962091 168.81984909 -33.95962091 168.81984909 -37.0625 167.4375 Z M-100.0625 305.4375 C-99.0625 307.4375 -99.0625 307.4375 -99.0625 307.4375 Z M-101.0625 307.4375 C-100.0625 309.4375 -100.0625 309.4375 -100.0625 309.4375 Z M-114.0625 336.4375 C-113.0625 338.4375 -113.0625 338.4375 -113.0625 338.4375 Z " fill="#000000" transform="translate(251.0625,12.5625)"/>
<path d="M0 0 C6.517904 4.68956663 12.55343845 10.81246164 14 19 C14.7992898 30.25557271 13.99078008 38.31915226 6.75 47.25 C1.33164802 53.0878373 -4.3711544 56.67129269 -12.35546875 57.23828125 C-23.57071698 57.45549809 -30.8402179 55.69919895 -39.20703125 47.93359375 C-46.38318634 40.19460297 -47.48473506 33.10670258 -47.2734375 22.765625 C-46.64352117 14.09077723 -42.28194806 7.82507911 -36 2 C-25.82502277 -5.66451556 -10.93235165 -7.28107507 0 0 Z " fill="#000000" transform="translate(83,363)"/>
<path d="M0 0 C0.85412476 0.22279633 1.70824951 0.44559265 2.58825684 0.67514038 C8.51716769 2.24295884 8.51716769 2.24295884 10.7578125 3.36328125 C9.12975581 9.51371765 4.44254384 12.6991808 -0.75512695 15.92089844 C-3.67984666 17.56910875 -6.6331735 19.13748619 -9.6171875 20.67578125 C-10.70555908 21.2382959 -11.79393066 21.80081055 -12.9152832 22.38037109 C-24.31663874 28.12401571 -36.06037161 32.57826557 -48.2421875 36.36328125 C-48.94375977 36.58226074 -49.64533203 36.80124023 -50.36816406 37.02685547 C-62.0635155 40.51077414 -79.03550208 42.3095332 -90.328125 36.703125 C-95.53085555 33.06121362 -99.59142344 27.98971646 -100.7265625 21.6640625 C-101.62595302 11.54591918 -100.85202133 3.44000334 -94.2421875 -4.63671875 C-73.45287902 -26.03747748 -23.71388653 -6.20951074 0 0 Z M-90.8359375 0.5625 C-94.84481 5.69608395 -95.83149381 11.99877313 -95.2421875 18.36328125 C-94.18986232 23.9119049 -92.62136385 26.78031878 -88.2421875 30.36328125 C-83.20375277 33.46443407 -79.17942277 33.87523235 -73.4296875 33.80078125 C-72.594375 33.79248291 -71.7590625 33.78418457 -70.8984375 33.77563477 C-47.88976366 33.1643037 -18.4947259 22.4450922 -0.2421875 8.36328125 C-0.2421875 7.70328125 -0.2421875 7.04328125 -0.2421875 6.36328125 C-46.89670118 -9.81203555 -46.89670118 -9.81203555 -90.8359375 0.5625 Z " fill="#000000" transform="translate(314.2421875,376.63671875)"/>
<path d="M0 0 C0.99 0.99 1.98 1.98 3 3 C-24.11354731 31.76606599 -61.12510956 47.09775274 -100.48828125 48.28515625 C-128.97619031 48.77533105 -157.37153958 45.28649913 -183 32 C-183 33.98 -183 35.96 -183 38 C-183.99 38 -184.98 38 -186 38 C-186.66 34.37 -187.32 30.74 -188 27 C-179.375 23.875 -179.375 23.875 -176 25 C-177.63412443 26.70840281 -178.86906094 27.93453047 -181 29 C-170.90985657 33.36769904 -160.90712022 37.33826557 -150.1875 39.875 C-149.39061768 40.06537842 -148.59373535 40.25575684 -147.77270508 40.4519043 C-134.97408304 43.31255984 -122.15899146 44.41487899 -109.0625 44.375 C-108.35033325 44.37412384 -107.6381665 44.37324768 -106.90441895 44.37234497 C-70.43710099 44.22565137 -33.52748621 32.92344478 -7 7 C-6.45472656 6.47019531 -5.90945313 5.94039063 -5.34765625 5.39453125 C-4.21739806 4.2773775 -3.10630608 3.14087815 -2 2 C-1.34 1.34 -0.68 0.68 0 0 Z " fill="#000000" transform="translate(392,490)"/>
<path d="M0 0 C4.09302326 5.11627907 4.09302326 5.11627907 3.75 8.375 C3.37875 9.179375 3.37875 9.179375 3 10 C1.68 8.68 0.36 7.36 -1 6 C-1.22026855 6.8029248 -1.44053711 7.60584961 -1.66748047 8.43310547 C-14.04446635 53.18752279 -31.48517169 97.34157373 -62 133 C-62.639375 133.78503906 -63.27875 134.57007813 -63.9375 135.37890625 C-69.32210723 141.86596539 -69.32210723 141.86596539 -74 143 C-74 140 -74 140 -71.98046875 137.828125 C-71.05878906 136.97734375 -70.13710937 136.1265625 -69.1875 135.25 C-58.03650092 124.53771687 -49.83523172 111.23648761 -42 98 C-41.38342529 96.95851807 -41.38342529 96.95851807 -40.75439453 95.89599609 C-24.21049259 67.65960586 -12.79232922 36.73826614 -5 5 C-6.98 5.66 -8.96 6.32 -11 7 C-10.9375 5.25 -10.9375 5.25 -10 3 C-6.69928831 0.41203839 -4.20321079 -1.40107026 0 0 Z " fill="#000000" transform="translate(76,145)"/>
<path d="M0 0 C0.66 0 1.32 0 2 0 C3.66786461 1.92113294 5.21465279 3.8510218 6.75 5.875 C7.23315674 6.50140381 7.71631348 7.12780762 8.21411133 7.77319336 C9.26496562 9.1356217 10.31344958 10.49988076 11.35986328 11.86572266 C12.98862951 13.98520381 14.63039859 16.09384053 16.27734375 18.19921875 C28.37884391 33.67275151 40.48997752 49.16082427 51.76513672 65.25146484 C53.10112735 67.14319376 54.45739037 69.01928224 55.81640625 70.89453125 C64.54158774 82.99595369 73.4793752 95.54573944 80 109 C80.99 107.35 81.98 105.7 83 104 C83.66 104.33 84.32 104.66 85 105 C84.43454163 108.95820859 83.19097652 111.6659053 81 115 C76.87248551 114.39301257 73.6678852 112.96189209 70 111 C70.33 110.34 70.66 109.68 71 109 C72.65 109.33 74.3 109.66 76 110 C72.16198457 102.71807815 68.04432575 95.75743437 63.4375 88.9375 C62.83035156 88.03338379 62.22320312 87.12926758 61.59765625 86.19775391 C56.12471586 78.09479315 50.45487999 70.14538089 44.66503906 62.26660156 C42.92492357 59.89779918 41.19270324 57.52334945 39.4609375 55.1484375 C32.91596993 46.19465105 26.24933801 37.36232257 19.33984375 28.68701172 C17.93867081 26.92277976 16.54626882 25.15193775 15.15625 23.37890625 C14.68437256 22.7770752 14.21249512 22.17524414 13.72631836 21.55517578 C12.79655539 20.3680462 11.86765636 19.18023939 10.93969727 17.99169922 C8.82810339 15.29429842 6.6933461 12.6330678 4.49609375 10.00390625 C3.75488281 9.11574219 3.01367188 8.22757813 2.25 7.3125 C1.59515625 6.54550781 0.9403125 5.77851562 0.265625 4.98828125 C-0.36085938 4.00408203 -0.36085938 4.00408203 -1 3 C-0.67 2.01 -0.34 1.02 0 0 Z " fill="#000000" transform="translate(338,120)"/>
<path d="M0 0 C3.18961148 1.91376689 4.25364903 4.82439267 5.875 8.125 C5.875 8.785 5.875 9.445 5.875 10.125 C3.00775314 9.55155063 2.0135485 9.2635485 -0.125 7.125 C-0.74375 8.75695312 -0.74375 8.75695312 -1.375 10.421875 C-8.2037138 27.98285685 -17.80270564 44.25763503 -35.125 53.125 C-41.11354022 55.67893627 -46.84236253 55.07769503 -53.125 54.125 C-53.125 53.135 -53.125 52.145 -53.125 51.125 C-52.53074219 51.17140625 -51.93648438 51.2178125 -51.32421875 51.265625 C-41.59297225 51.68938068 -34.1677534 49.27453672 -26.8125 42.8125 C-25.22894662 41.27134096 -23.66417272 39.71048411 -22.125 38.125 C-21.57199219 37.58101563 -21.01898438 37.03703125 -20.44921875 36.4765625 C-12.35837554 27.88413063 -7.26703957 15.99785388 -3.125 5.125 C-5.105 5.785 -7.085 6.445 -9.125 7.125 C-9 5.3125 -9 5.3125 -8.125 3.125 C-5.38998357 1.36243386 -3.27791852 0.19281874 0 0 Z " fill="#000000" transform="translate(494.125,248.875)"/>
<path d="M0 0 C1.4540625 0.0309375 1.4540625 0.0309375 2.9375 0.0625 C5.0625 4.6875 5.0625 4.6875 3.9375 8.0625 C4.26300502 9.73071323 4.59596063 11.39749557 4.9375 13.0625 C4.6075 13.7225 4.2775 14.3825 3.9375 15.0625 C1.125 15.9375 1.125 15.9375 -2.0625 16.0625 C-4.4375 14.125 -4.4375 14.125 -6.0625 12.0625 C-2.43923261 10.8547442 -1.42103631 11.51938872 1.9375 13.0625 C1.9375 11.7425 1.9375 10.4225 1.9375 9.0625 C0.6175 9.0625 -0.7025 9.0625 -2.0625 9.0625 C-2.0625 8.0725 -2.0625 7.0825 -2.0625 6.0625 C-0.7425 6.0625 0.5775 6.0625 1.9375 6.0625 C1.6075 5.0725 1.2775 4.0825 0.9375 3.0625 C-1.0425 3.7225 -3.0225 4.3825 -5.0625 5.0625 C-3.9375 0.08035714 -3.9375 0.08035714 0 0 Z " fill="#000000" transform="translate(304.0625,558.9375)"/>
<path d="M0 0 C3.0625 0.1875 3.0625 0.1875 5.0625 2.1875 C4.90004442 5.92397845 4.47466356 7.71288742 2 10.5625 C1.360625 11.09875 0.72125 11.635 0.0625 12.1875 C1.7125 12.5175 3.3625 12.8475 5.0625 13.1875 C5.0625 13.8475 5.0625 14.5075 5.0625 15.1875 C1.7625 15.1875 -1.5375 15.1875 -4.9375 15.1875 C-2.9375 11.1875 -2.9375 11.1875 -0.8125 8.625 C1.36735538 6.30372611 1.36735538 6.30372611 1.0625 3.1875 C0.4025 3.1875 -0.2575 3.1875 -0.9375 3.1875 C-1.2675 3.8475 -1.5975 4.5075 -1.9375 5.1875 C-2.9275 5.1875 -3.9175 5.1875 -4.9375 5.1875 C-3.82120474 0.24390669 -3.82120474 0.24390669 0 0 Z " fill="#000000" transform="translate(401.9375,142.8125)"/>
<path d="M0 0 C0.99 0 1.98 0 3 0 C3 3.3 3 6.6 3 10 C3.66 10 4.32 10 5 10 C5 10.66 5 11.32 5 12 C4.34 12 3.68 12 3 12 C3 12.99 3 13.98 3 15 C2.34 15 1.68 15 1 15 C1 14.01 1 13.02 1 12 C-1.31 12 -3.62 12 -6 12 C-5.56629155 7.2292071 -3.35665609 3.36635741 0 0 Z M0 4 C-0.99 5.98 -1.98 7.96 -3 10 C-1.68 10 -0.36 10 1 10 C1 8.02 1 6.04 1 4 C0.67 4 0.34 4 0 4 Z " fill="#000000" transform="translate(464,260)"/>
<path d="M0 0 C3.3 0.99 6.6 1.98 10 3 C10 6 10 9 10 12 C9.01 12.33 8.02 12.66 7 13 C6.74476563 12.16855469 6.74476563 12.16855469 6.484375 11.3203125 C5.09174014 6.74877023 5.09174014 6.74877023 1.8125 3.5 C1.214375 3.335 0.61625 3.17 0 3 C0 2.01 0 1.02 0 0 Z " fill="#000000" transform="translate(367,340)"/>
<path d="M0 0 C0 4.95 0 9.9 0 15 C-0.99 15 -1.98 15 -3 15 C-3 11.37 -3 7.74 -3 4 C-3.99 4.33 -4.98 4.66 -6 5 C-5.625 3.0625 -5.625 3.0625 -5 1 C-3 0 -3 0 0 0 Z " fill="#000000" transform="translate(291,559)"/>
<path d="M0 0 C0 4.95 0 9.9 0 15 C-0.99 15 -1.98 15 -3 15 C-3 11.37 -3 7.74 -3 4 C-3.99 4.33 -4.98 4.66 -6 5 C-5.625 3.0625 -5.625 3.0625 -5 1 C-3 0 -3 0 0 0 Z " fill="#000000" transform="translate(450,260)"/>
<path d="M0 0 C0 4.95 0 9.9 0 15 C-0.99 15 -1.98 15 -3 15 C-3 11.37 -3 7.74 -3 4 C-3.99 4.33 -4.98 4.66 -6 5 C-5.625 3.0625 -5.625 3.0625 -5 1 C-3 0 -3 0 0 0 Z " fill="#000000" transform="translate(17,192)"/>
<path d="M0 0 C0 4.95 0 9.9 0 15 C-0.99 15 -1.98 15 -3 15 C-3 11.37 -3 7.74 -3 4 C-3.99 4.33 -4.98 4.66 -6 5 C-5.625 3.0625 -5.625 3.0625 -5 1 C-3 0 -3 0 0 0 Z " fill="#000000" transform="translate(389,143)"/>
<path d="M0 0 C0 4.95 0 9.9 0 15 C-0.66 15 -1.32 15 -2 15 C-2.33 11.37 -2.66 7.74 -3 4 C-3.99 4.33 -4.98 4.66 -6 5 C-6 4.01 -6 3.02 -6 2 C-3 0 -3 0 0 0 Z " fill="#000000" transform="translate(29,192)"/>
<path d="M0 0 C3.34998521 1.11666174 3.79340222 1.74694925 5.6875 4.5625 C6.12449219 5.20316406 6.56148437 5.84382813 7.01171875 6.50390625 C7.33785156 6.99761719 7.66398438 7.49132812 8 8 C7.67 8.66 7.34 9.32 7 10 C3.21282653 8.51218185 1.22592999 6.38011591 -1 3 C-0.67 2.01 -0.34 1.02 0 0 Z " fill="#000000" transform="translate(186,430)"/>
<path d="M0 0 C0.66 0 1.32 0 2 0 C3.32421875 1.64453125 3.32421875 1.64453125 4.6875 3.8125 C5.14511719 4.52019531 5.60273438 5.22789062 6.07421875 5.95703125 C7 8 7 8 6 11 C5.34 11 4.68 11 4 11 C2.67578125 9.35546875 2.67578125 9.35546875 1.3125 7.1875 C0.85488281 6.47980469 0.39726562 5.77210938 -0.07421875 5.04296875 C-1 3 -1 3 0 0 Z " fill="#000000" transform="translate(329,249)"/>
<path d="M0 0 C1.75 0.125 1.75 0.125 4 1 C8 6.11111111 8 6.11111111 8 10 C7.01 10 6.02 10 5 10 C3.61328125 8.3203125 3.61328125 8.3203125 2.3125 6.125 C1.87550781 5.40570313 1.43851562 4.68640625 0.98828125 3.9453125 C0 2 0 2 0 0 Z " fill="#000000" transform="translate(294,198)"/>
<path d="M0 0 C0.66 0 1.32 0 2 0 C3.32421875 1.64453125 3.32421875 1.64453125 4.6875 3.8125 C5.14511719 4.52019531 5.60273438 5.22789063 6.07421875 5.95703125 C7 8 7 8 6 11 C5.34 11 4.68 11 4 11 C2.67578125 9.35546875 2.67578125 9.35546875 1.3125 7.1875 C0.85488281 6.47980469 0.39726562 5.77210937 -0.07421875 5.04296875 C-1 3 -1 3 0 0 Z " fill="#000000" transform="translate(239,111)"/>
<path d="M0 0 C4.05606165 0.46800711 7.46588679 0.87953208 11 3 C10.67 3.99 10.34 4.98 10 6 C6.7 5.01 3.4 4.02 0 3 C0 2.01 0 1.02 0 0 Z " fill="#000000" transform="translate(405,354)"/>
<path d="M0 0 C2.72957339 2.35735884 3.88893396 4.58133526 5 8 C5 8.99 5 9.98 5 11 C4.01 11 3.02 11 2 11 C0.68 7.7 -0.64 4.4 -2 1 C-1.34 0.67 -0.68 0.34 0 0 Z " fill="#000000" transform="translate(359,303)"/>
<path d="M0 0 C-2.77079887 3.80984844 -6.62868145 4.06840752 -11 5 C-10.67578125 3.08203125 -10.67578125 3.08203125 -10 1 C-6.36961463 -0.69417984 -3.80522763 -1.46354909 0 0 Z " fill="#000000" transform="translate(325,460)"/>
<path d="M0 0 C0.99 0.33 1.98 0.66 3 1 C2.40606618 2.29640378 1.79942011 3.58698839 1.1875 4.875 C0.85105469 5.59429687 0.51460938 6.31359375 0.16796875 7.0546875 C-1 9 -1 9 -4 11 C-5 8 -5 8 -4.00390625 5.95703125 C-3.52824219 5.24933594 -3.05257813 4.54164063 -2.5625 3.8125 C-2.08941406 3.09707031 -1.61632812 2.38164062 -1.12890625 1.64453125 C-0.75636719 1.10183594 -0.38382812 0.55914062 0 0 Z " fill="#000000" transform="translate(369,421)"/>
<path d="M0 0 C0.99 0.33 1.98 0.66 3 1 C2.34 3.97 1.68 6.94 1 10 C-0.32 10.33 -1.64 10.66 -3 11 C-2.01 7.37 -1.02 3.74 0 0 Z " fill="#000000" transform="translate(376,402)"/>
<path d="M0 0 C0.66 0 1.32 0 2 0 C5 6.5 5 6.5 5 11 C4.01 11 3.02 11 2 11 C1.01 7.7 0.02 4.4 -1 1 C-0.67 0.67 -0.34 0.34 0 0 Z " fill="#000000" transform="translate(366,322)"/>
<path d="M0 0 C5.445 1.485 5.445 1.485 11 3 C10.67 3.99 10.34 4.98 10 6 C5.545 5.01 5.545 5.01 1 4 C0.67 2.68 0.34 1.36 0 0 Z " fill="#000000" transform="translate(309,321)"/>
<path d="M0 0 C0.66 0 1.32 0 2 0 C3.2890625 1.6796875 3.2890625 1.6796875 4.625 3.875 C5.29402344 4.95394531 5.29402344 4.95394531 5.9765625 6.0546875 C7 8 7 8 7 10 C5.25 9.875 5.25 9.875 3 9 C0.6875 6.125 0.6875 6.125 -1 3 C-0.67 2.01 -0.34 1.02 0 0 Z " fill="#000000" transform="translate(318,232)"/>
<path d="M0 0 C1.75 0.125 1.75 0.125 4 1 C6.3125 3.875 6.3125 3.875 8 7 C7.67 7.99 7.34 8.98 7 10 C6.34 10 5.68 10 5 10 C3.7109375 8.3203125 3.7109375 8.3203125 2.375 6.125 C1.92898438 5.40570313 1.48296875 4.68640625 1.0234375 3.9453125 C0 2 0 2 0 0 Z " fill="#000000" transform="translate(283,181)"/>
<path d="M0 0 C3.33557632 2.9905167 5.15083921 5.93184627 7 10 C6.01 10.33 5.02 10.66 4 11 C3.13341385 9.73760288 2.28207941 8.46472499 1.4375 7.1875 C0.72400391 6.12595703 0.72400391 6.12595703 -0.00390625 5.04296875 C-1 3 -1 3 0 0 Z " fill="#000000" transform="translate(273,163)"/>
<path d="M0 0 C4.04131267 1.34710422 4.90288434 3.38428334 7 7 C7 7.99 7 8.98 7 10 C6.01 10 5.02 10 4 10 C2.35 7.03 0.7 4.06 -1 1 C-0.67 0.67 -0.34 0.34 0 0 Z " fill="#000000" transform="translate(261,146)"/>
<path d="M0 0 C4.04131267 1.34710422 4.90288434 3.38428334 7 7 C7 7.99 7 8.98 7 10 C6.01 10 5.02 10 4 10 C2.35 7.03 0.7 4.06 -1 1 C-0.67 0.67 -0.34 0.34 0 0 Z " fill="#000000" transform="translate(250,129)"/>
<path d="M0 0 C3.82601307 1.45124634 5.22329124 3.35774704 7 7 C7 7.99 7 8.98 7 10 C6.01 10 5.02 10 4 10 C2.35 7.03 0.7 4.06 -1 1 C-0.67 0.67 -0.34 0.34 0 0 Z " fill="#000000" transform="translate(228,94)"/>
<path d="M0 0 C4.42679007 1.47559669 4.91432696 3.90057368 7 8 C7 8.66 7 9.32 7 10 C5.140625 9.75390625 5.140625 9.75390625 3 9 C1.734375 7.15234375 1.734375 7.15234375 0.75 4.9375 C0.41484375 4.20402344 0.0796875 3.47054687 -0.265625 2.71484375 C-0.50796875 2.14894531 -0.7503125 1.58304687 -1 1 C-0.67 0.67 -0.34 0.34 0 0 Z " fill="#000000" transform="translate(218,76)"/>
<path d="M0 0 C0 0.99 0 1.98 0 3 C-3.3 3.66 -6.6 4.32 -10 5 C-10 3.68 -10 2.36 -10 1 C-6.59437148 0.22157062 -3.49234244 -0.09978121 0 0 Z " fill="#000000" transform="translate(305,465)"/>
<path d="M0 0 C4.455 0.99 4.455 0.99 9 2 C9.33 3.32 9.66 4.64 10 6 C8.54096742 5.69078116 7.08279278 5.37751201 5.625 5.0625 C4.81289062 4.88847656 4.00078125 4.71445312 3.1640625 4.53515625 C1 4 1 4 -1 3 C-0.67 2.01 -0.34 1.02 0 0 Z " fill="#000000" transform="translate(235,463)"/>
<path d="M0 0 C0 0.99 0 1.98 0 3 C-6.625 7 -6.625 7 -10 7 C-10 6.01 -10 5.02 -10 4 C-3.375 0 -3.375 0 0 0 Z " fill="#000000" transform="translate(343,450)"/>
<path d="M0 0 C4.37859255 0.50522222 6.81651224 3.17827222 10 6 C9.67 6.66 9.34 7.32 9 8 C5.56801397 6.76067171 2.69674368 5.49698489 0 3 C0 2.01 0 1.02 0 0 Z " fill="#000000" transform="translate(199,445)"/>
<path d="M0 0 C0.66 0.33 1.32 0.66 2 1 C1.66410006 4.13506611 0.97334828 5.025249 -1.375 7.25 C-4 9 -4 9 -7 9 C-5.44499019 5.18315774 -2.96404505 2.80804268 0 0 Z " fill="#000000" transform="translate(357,437)"/>
<path d="M0 0 C0.99 0.33 1.98 0.66 3 1 C3.73046875 3.06640625 3.73046875 3.06640625 4.1875 5.5625 C4.34605469 6.38878906 4.50460938 7.21507812 4.66796875 8.06640625 C4.77753906 8.70449219 4.88710937 9.34257812 5 10 C3.68 10 2.36 10 1 10 C0.67 6.7 0.34 3.4 0 0 Z " fill="#000000" transform="translate(170,394)"/>
<path d="M0 0 C0.99 0 1.98 0 3 0 C4.28317892 3.84953676 4.06643637 6.94738135 4 11 C3.01 11 2.02 11 1 11 C0.67 7.37 0.34 3.74 0 0 Z " fill="#000000" transform="translate(376,362)"/>
<path d="M0 0 C3.8063457 0.67170806 7.35206816 1.72746564 11 3 C10.67 3.99 10.34 4.98 10 6 C6.7 5.01 3.4 4.02 0 3 C0 2.01 0 1.02 0 0 Z " fill="#000000" transform="translate(386,347)"/>
<path d="M0 0 C3.3 0.99 6.6 1.98 10 3 C10 3.99 10 4.98 10 6 C6.0507432 5.44894091 2.65079826 4.61064629 -1 3 C-0.67 2.01 -0.34 1.02 0 0 Z " fill="#000000" transform="translate(348,333)"/>
<path d="M0 0 C0.99 0.33 1.98 0.66 3 1 C3 1.66 3 2.32 3 3 C0.03 4.65 -2.94 6.3 -6 8 C-6 6.68 -6 5.36 -6 4 C-3.1875 1.6875 -3.1875 1.6875 0 0 Z " fill="#000000" transform="translate(200,327)"/>
<path d="M0 0 C0 0.99 0 1.98 0 3 C-6.625 6 -6.625 6 -10 6 C-10 5.01 -10 4.02 -10 3 C-3.375 0 -3.375 0 0 0 Z " fill="#000000" transform="translate(220,319)"/>
<path d="M0 0 C3.3 0.33 6.6 0.66 10 1 C10.33 2.32 10.66 3.64 11 5 C7.7 4.34 4.4 3.68 1 3 C0.67 2.01 0.34 1.02 0 0 Z " fill="#000000" transform="translate(289,317)"/>
<path d="M0 0 C0.99 0 1.98 0 3 0 C2.60404157 1.48484412 2.18249294 2.9628831 1.75 4.4375 C1.51796875 5.26121094 1.2859375 6.08492188 1.046875 6.93359375 C0 9 0 9 -2.109375 9.78515625 C-2.73328125 9.85605469 -3.3571875 9.92695313 -4 10 C-3.52449439 8.51965236 -3.04448784 7.04074979 -2.5625 5.5625 C-2.29566406 4.73878906 -2.02882813 3.91507812 -1.75390625 3.06640625 C-1 1 -1 1 0 0 Z " fill="#000000" transform="translate(102,294)"/>
<path d="M0 0 C3 1 3 1 4.16796875 3.06640625 C4.50441406 3.89011719 4.84085937 4.71382813 5.1875 5.5625 C5.53167969 6.38878906 5.87585938 7.21507812 6.23046875 8.06640625 C6.48441406 8.70449219 6.73835938 9.34257812 7 10 C5.68 10 4.36 10 3 10 C1.68 7.03 0.36 4.06 -1 1 C-0.67 0.67 -0.34 0.34 0 0 Z " fill="#000000" transform="translate(349,285)"/>
<path d="M0 0 C0.99 0 1.98 0 3 0 C3.67154933 1.28913487 4.33708859 2.58140204 5 3.875 C5.37125 4.59429687 5.7425 5.31359375 6.125 6.0546875 C7 8 7 8 7 10 C6.01 10 5.02 10 4 10 C0 3.375 0 3.375 0 0 Z " fill="#000000" transform="translate(339,267)"/>
<path d="M0 0 C4.66154042 1.49835228 5.86610751 4.88463591 8 9 C6.68 9 5.36 9 4 9 C0 4 0 4 0 0 Z " fill="#000000" transform="translate(306,215)"/>
<path d="M0 0 C0.99 0 1.98 0 3 0 C2.60404157 1.48484412 2.18249294 2.9628831 1.75 4.4375 C1.51796875 5.26121094 1.2859375 6.08492187 1.046875 6.93359375 C0 9 0 9 -2.109375 9.78515625 C-2.73328125 9.85605469 -3.3571875 9.92695313 -4 10 C-3.52449439 8.51965236 -3.04448784 7.04074979 -2.5625 5.5625 C-2.29566406 4.73878906 -2.02882812 3.91507813 -1.75390625 3.06640625 C-1 1 -1 1 0 0 Z " fill="#000000" transform="translate(173,129)"/>
<path d="M0 0 C0.99 0.33 1.98 0.66 3 1 C1.68 4.3 0.36 7.6 -1 11 C-1.99 10.67 -2.98 10.34 -4 10 C-3.52449439 8.51965236 -3.04448784 7.04074979 -2.5625 5.5625 C-2.29566406 4.73878906 -2.02882812 3.91507812 -1.75390625 3.06640625 C-1 1 -1 1 0 0 Z " fill="#000000" transform="translate(189,92)"/>
<path d="M0 0 C0.99 0 1.98 0 3 0 C3.50615298 1.26839526 4.00469099 2.53983102 4.5 3.8125 C4.91765625 4.87404297 4.91765625 4.87404297 5.34375 5.95703125 C6 8 6 8 6 11 C5.01 11 4.02 11 3 11 C2.01 7.37 1.02 3.74 0 0 Z " fill="#000000" transform="translate(209,57)"/>
<path d="M0 0 C0.66 0.33 1.32 0.66 2 1 C1.39009109 4.55780196 0.4216319 7.6828589 -1 11 C-1.99 11 -2.98 11 -4 11 C-3.39301257 6.87248551 -1.96189209 3.6678852 0 0 Z " fill="#000000" transform="translate(205,55)"/>
<path d="M0 0 C3.63 0.33 7.26 0.66 11 1 C11 1.99 11 2.98 11 4 C9.54176788 4.0270043 8.08339325 4.04639787 6.625 4.0625 C5.81289063 4.07410156 5.00078125 4.08570313 4.1640625 4.09765625 C2 4 2 4 0 3 C0 2.01 0 1.02 0 0 Z " fill="#000000" transform="translate(254,467)"/>
<path d="M0 0 C1.890625 0.21484375 1.890625 0.21484375 4 1 C5.046875 3.06640625 5.046875 3.06640625 5.75 5.5625 C5.99234375 6.38878906 6.2346875 7.21507812 6.484375 8.06640625 C6.65453125 8.70449219 6.8246875 9.34257812 7 10 C6.01 10 5.02 10 4 10 C3.32845067 8.71086513 2.66291141 7.41859796 2 6.125 C1.62875 5.40570313 1.2575 4.68640625 0.875 3.9453125 C0 2 0 2 0 0 Z " fill="#000000" transform="translate(175,413)"/>
<path d="M0 0 C0.99 0 1.98 0 3 0 C3 3.3 3 6.6 3 10 C2.01 10.33 1.02 10.66 0 11 C0 7.37 0 3.74 0 0 Z " fill="#000000" transform="translate(378,382)"/>
<path d="M0 0 C0 0.99 0 1.98 0 3 C-3.63 3.33 -7.26 3.66 -11 4 C-10.67 3.01 -10.34 2.02 -10 1 C-6.59437148 0.22157062 -3.49234244 -0.09978121 0 0 Z " fill="#000000" transform="translate(475,367)"/>
<path d="M0 0 C3.3 0.66 6.6 1.32 10 2 C10 2.99 10 3.98 10 5 C6.37 4.34 2.74 3.68 -1 3 C-0.67 2.01 -0.34 1.02 0 0 Z " fill="#000000" transform="translate(445,365)"/>
<path d="M0 0 C0 0.99 0 1.98 0 3 C-4.95 4.485 -4.95 4.485 -10 6 C-9.67 4.68 -9.34 3.36 -9 2 C-5.82254537 0.61849799 -3.46877176 0 0 0 Z " fill="#000000" transform="translate(494,362)"/>
<path d="M0 0 C1.46015291 0.28241641 2.91809793 0.57626614 4.375 0.875 C5.18710937 1.03742188 5.99921875 1.19984375 6.8359375 1.3671875 C9 2 9 2 11 4 C10.67 4.33 10.34 4.66 10 5 C2.60550459 4.40366972 2.60550459 4.40366972 -1 2 C-0.67 1.34 -0.34 0.68 0 0 Z " fill="#000000" transform="translate(425,360)"/>
<path d="M0 0 C0.66 0.33 1.32 0.66 2 1 C1.34 3.97 0.68 6.94 0 10 C-1.32 10 -2.64 10 -4 10 C-3.52449439 8.51965236 -3.04448784 7.04074979 -2.5625 5.5625 C-2.29566406 4.73878906 -2.02882812 3.91507812 -1.75390625 3.06640625 C-1 1 -1 1 0 0 Z " fill="#000000" transform="translate(174,355)"/>
<path d="M0 0 C0.66 0.99 1.32 1.98 2 3 C0.71186658 3.83878455 -0.58063256 4.67086783 -1.875 5.5 C-2.59429687 5.9640625 -3.31359375 6.428125 -4.0546875 6.90625 C-6 8 -6 8 -8 8 C-7.9375 6.25 -7.9375 6.25 -7 4 C-4.75835678 2.40498463 -2.46433357 1.25456982 0 0 Z " fill="#000000" transform="translate(510,353)"/>
<path d="M0 0 C0.99 0 1.98 0 3 0 C2.60404157 1.48484412 2.18249294 2.9628831 1.75 4.4375 C1.51796875 5.26121094 1.2859375 6.08492188 1.046875 6.93359375 C0.52867188 7.95646484 0.52867188 7.95646484 0 9 C-1.32 9.33 -2.64 9.66 -4 10 C-2.68 6.7 -1.36 3.4 0 0 Z " fill="#000000" transform="translate(78,349)"/>
<path d="M0 0 C-0.33589994 3.13506611 -1.02665172 4.025249 -3.375 6.25 C-6 8 -6 8 -9 8 C-7.47364599 4.11473526 -4.49771687 0 0 0 Z " fill="#000000" transform="translate(527,342)"/>
<path d="M0 0 C0.99 0.33 1.98 0.66 3 1 C2.01 3.97 1.02 6.94 0 10 C-1.32 10 -2.64 10 -4 10 C-2.68 6.7 -1.36 3.4 0 0 Z " fill="#000000" transform="translate(86,330)"/>
<path d="M0 0 C3.3 0.99 6.6 1.98 10 3 C10 3.99 10 4.98 10 6 C6.37 5.01 2.74 4.02 -1 3 C-0.67 2.01 -0.34 1.02 0 0 Z " fill="#000000" transform="translate(329,327)"/>
<path d="M0 0 C3.3 0.33 6.6 0.66 10 1 C10.33 1.99 10.66 2.98 11 4 C9.741875 4.020625 8.48375 4.04125 7.1875 4.0625 C6.47980469 4.07410156 5.77210938 4.08570313 5.04296875 4.09765625 C3 4 3 4 0 3 C0 2.01 0 1.02 0 0 Z " fill="#000000" transform="translate(269,313)"/>
<path d="M0 0 C3.3 0 6.6 0 10 0 C10.33 0.99 10.66 1.98 11 3 C7.37 3 3.74 3 0 3 C0 2.01 0 1.02 0 0 Z " fill="#000000" transform="translate(249,312)"/>
<path d="M0 0 C0.66 0.33 1.32 0.66 2 1 C1.43454163 4.95820859 0.19097652 7.6659053 -2 11 C-2.66 10.67 -3.32 10.34 -4 10 C-3.43454163 6.04179141 -2.19097652 3.3340947 0 0 Z " fill="#000000" transform="translate(570,279)"/>
<path d="M0 0 C0.99 0.66 1.98 1.32 3 2 C1.68 4.97 0.36 7.94 -1 11 C-1.99 10.67 -2.98 10.34 -4 10 C-2.8905928 6.51329166 -1.73662334 3.22515763 0 0 Z " fill="#000000" transform="translate(110,275)"/>
<path d="M0 0 C0.66 0 1.32 0 2 0 C1.44894091 3.9492568 0.61064629 7.34920174 -1 11 C-1.99 10.67 -2.98 10.34 -4 10 C-3.52449439 8.51965236 -3.04448784 7.04074979 -2.5625 5.5625 C-2.29566406 4.73878906 -2.02882813 3.91507812 -1.75390625 3.06640625 C-1 1 -1 1 0 0 Z " fill="#000000" transform="translate(118,257)"/>
<path d="M0 0 C0.99 0 1.98 0 3 0 C2.49287967 3.71888239 1.88391785 6.73454239 0 10 C-0.99 10 -1.98 10 -3 10 C-2.39009109 6.44219804 -1.4216319 3.3171411 0 0 Z " fill="#000000" transform="translate(125,239)"/>
<path d="M0 0 C0.66 0.33 1.32 0.66 2 1 C1.39009109 4.55780196 0.4216319 7.6828589 -1 11 C-1.99 11 -2.98 11 -4 11 C-3.39301257 6.87248551 -1.96189209 3.6678852 0 0 Z " fill="#000000" transform="translate(134,220)"/>
<path d="M0 0 C0.99 0 1.98 0 3 0 C2.39009109 3.55780196 1.4216319 6.6828589 0 10 C-0.99 10 -1.98 10 -3 10 C-2.49287967 6.28111761 -1.88391785 3.26545761 0 0 Z " fill="#000000" transform="translate(149,184)"/>
<path d="M0 0 C0.99 0.33 1.98 0.66 3 1 C2.01 3.97 1.02 6.94 0 10 C-1.32 10 -2.64 10 -4 10 C-2.68 6.7 -1.36 3.4 0 0 Z " fill="#000000" transform="translate(157,165)"/>
<path d="M0 0 C0.99 0.33 1.98 0.66 3 1 C1.68 3.97 0.36 6.94 -1 10 C-1.99 10 -2.98 10 -4 10 C-3.52449439 8.51965236 -3.04448784 7.04074979 -2.5625 5.5625 C-2.29566406 4.73878906 -2.02882812 3.91507812 -1.75390625 3.06640625 C-1 1 -1 1 0 0 Z " fill="#000000" transform="translate(181,111)"/>
<path d="M0 0 C1.22589844 0.01353516 1.22589844 0.01353516 2.4765625 0.02734375 C3.41628906 0.04474609 3.41628906 0.04474609 4.375 0.0625 C4.375 1.0525 4.375 2.0425 4.375 3.0625 C0.745 3.0625 -2.885 3.0625 -6.625 3.0625 C-6.625 2.4025 -6.625 1.7425 -6.625 1.0625 C-4.21954362 -0.14022819 -2.67503047 -0.03821472 0 0 Z " fill="#000000" transform="translate(280.625,467.9375)"/>
<path d="M0 0 C0.66 0.33 1.32 0.66 2 1 C0.44499019 4.81684226 -2.03595495 7.19195732 -5 10 C-5.33 9.01 -5.66 8.02 -6 7 C-4.78515625 5.17578125 -4.78515625 5.17578125 -3.0625 3.3125 C-2.49660156 2.68988281 -1.93070313 2.06726563 -1.34765625 1.42578125 C-0.90292969 0.95527344 -0.45820313 0.48476563 0 0 Z " fill="#000000" transform="translate(185,339)"/>
<path d="M0 0 C0 0.99 0 1.98 0 3 C-3.3 3.66 -6.6 4.32 -10 5 C-9.67 3.68 -9.34 2.36 -9 1 C-5.92677456 0.08941469 -3.19902639 -0.08886184 0 0 Z " fill="#000000" transform="translate(239,314)"/>
<path d="M0 0 C0.99 0.33 1.98 0.66 3 1 C-0.625 7.75 -0.625 7.75 -4 10 C-4 5.28093812 -2.71245796 3.72962969 0 0 Z " fill="#000000" transform="translate(550,313)"/>
<path d="M0 0 C0.99 0.33 1.98 0.66 3 1 C1.68 4.3 0.36 7.6 -1 11 C-1.99 10.34 -2.98 9.68 -4 9 C-2.68 6.03 -1.36 3.06 0 0 Z " fill="#000000" transform="translate(94,312)"/>
<path d="M0 0 C0.99 0 1.98 0 3 0 C2.38545304 3.99455527 0.29353263 6.74466336 -2 10 C-2.66 9.67 -3.32 9.34 -4 9 C-2.80100302 5.9168649 -1.52299523 2.93720508 0 0 Z " fill="#000000" transform="translate(560,297)"/>
<path d="M0 0 C0.99 0.33 1.98 0.66 3 1 C2.01 3.97 1.02 6.94 0 10 C-0.99 10 -1.98 10 -3 10 C-2.39009109 6.44219804 -1.4216319 3.3171411 0 0 Z " fill="#000000" transform="translate(141,202)"/>
<path d="M0 0 C0.99 0.33 1.98 0.66 3 1 C1.68 4.3 0.36 7.6 -1 11 C-1.99 10.34 -2.98 9.68 -4 9 C-2.68 6.03 -1.36 3.06 0 0 Z " fill="#000000" transform="translate(165,147)"/>
<path d="M0 0 C0.66 0 1.32 0 2 0 C1.49287967 3.71888239 0.88391785 6.73454239 -1 10 C-1.99 10 -2.98 10 -4 10 C-3.52449439 8.51965236 -3.04448784 7.04074979 -2.5625 5.5625 C-2.29566406 4.73878906 -2.02882812 3.91507812 -1.75390625 3.06640625 C-1 1 -1 1 0 0 Z " fill="#000000" transform="translate(197,74)"/>
<path d="M0 0 C2.97 0.99 5.94 1.98 9 3 C9 4.32 9 5.64 9 7 C4.545 5.02 4.545 5.02 0 3 C0 2.01 0 1.02 0 0 Z " fill="#000000" transform="translate(216,456)"/>
<path d="M0 0 C0.66 0.33 1.32 0.66 2 1 C0.55746343 4.36591866 -1.33264727 6.51047079 -4 9 C-4.99 8.67 -5.98 8.34 -7 8 C-6.02133662 6.85373678 -5.04205413 5.70800212 -4.0625 4.5625 C-3.51722656 3.92441406 -2.97195313 3.28632813 -2.41015625 2.62890625 C-1.63204305 1.73008851 -0.84063472 0.84063472 0 0 Z " fill="#000000" transform="translate(539,328)"/>
<path d="M0 0 C0.99 0.33 1.98 0.66 3 1 C2.67 3.97 2.34 6.94 2 10 C1.01 10 0.02 10 -1 10 C-1.125 2.25 -1.125 2.25 0 0 Z " fill="#000000" transform="translate(169,375)"/>
<path d="M0 0 C0.99 0 1.98 0 3 0 C2.67 1.98 2.34 3.96 2 6 C1.01 6 0.02 6 -1 6 C-0.67 4.02 -0.34 2.04 0 0 Z " fill="#000000" transform="translate(210,42)"/>
<path d="M0 0 C0.66 0.33 1.32 0.66 2 1 C1.67 2.65 1.34 4.3 1 6 C0.01 6 -0.98 6 -2 6 C-1.125 1.125 -1.125 1.125 0 0 Z " fill="#000000" transform="translate(576,266)"/>
<path d="M0 0 C0.99 0.33 1.98 0.66 3 1 C2.67 1.99 2.34 2.98 2 4 C1.01 3.01 0.02 2.02 -1 1 C-0.67 0.67 -0.34 0.34 0 0 Z " fill="#000000" transform="translate(294,571)"/>
<path d="M0 0 C0.99 0.33 1.98 0.66 3 1 C2.67 1.99 2.34 2.98 2 4 C1.01 3.01 0.02 2.02 -1 1 C-0.67 0.67 -0.34 0.34 0 0 Z " fill="#000000" transform="translate(453,272)"/>
<path d="M0 0 C0.99 0.33 1.98 0.66 3 1 C2.67 1.99 2.34 2.98 2 4 C1.01 3.01 0.02 2.02 -1 1 C-0.67 0.67 -0.34 0.34 0 0 Z " fill="#000000" transform="translate(20,204)"/>
<path d="M0 0 C0.99 0.33 1.98 0.66 3 1 C2.67 1.99 2.34 2.98 2 4 C1.01 3.01 0.02 2.02 -1 1 C-0.67 0.67 -0.34 0.34 0 0 Z " fill="#000000" transform="translate(392,155)"/>
</svg>
