<?xml version="1.0" encoding="UTF-8"?>
<svg version="1.1" xmlns="http://www.w3.org/2000/svg" width="884" height="603">
<path d="M0 0 C2.51741854 2.22739336 4.97681946 4.50191461 7.41796875 6.8125 C8.59552734 7.91078125 8.59552734 7.91078125 9.796875 9.03125 C17.49015392 16.42512889 22.90415788 24.47863127 27.73046875 33.9375 C28.23719116 34.92278687 28.23719116 34.92278687 28.75415039 35.92797852 C37.61853591 53.89232548 34.28485515 77.5446428 31.3984375 96.79296875 C31.29162281 97.52497498 31.18480812 98.2569812 31.07475662 99.01116943 C28.33734735 117.68588699 24.59339417 136.16654461 20.83251953 154.65679932 C19.39123516 161.75088575 17.96579915 168.84816113 16.54281998 175.94593811 C16.05554785 178.36741486 15.56277224 180.78771491 15.06906128 183.20788574 C11.31608413 201.73973906 8.24132702 220.05231644 8.23046875 239 C8.21822266 240.13630859 8.20597656 241.27261719 8.19335938 242.44335938 C7.84541885 252.28428937 7.84541885 252.28428937 12.1953125 260.671875 C19.57709778 264.46006709 29.46547273 264.74717981 37.41796875 262.8125 C55.10428799 256.59336204 65.87027136 242.24271296 75.41796875 226.8125 C75.89057129 226.05001953 76.36317383 225.28753906 76.85009766 224.50195312 C87.19091767 207.58375009 95.58853008 189.58017088 103.14453125 171.265625 C111.30776902 151.52924842 111.30776902 151.52924842 119.41796875 144.8125 C119.96195313 144.35230469 120.5059375 143.89210937 121.06640625 143.41796875 C126.95912179 139.00622669 134.27281235 137.90228899 141.41796875 138.8125 C156.70222793 142.69982603 168.8757933 153.35365986 176.87890625 166.76171875 C185.45836767 183.7682146 183.82610905 197.11096588 178.41796875 214.8125 C178.2284967 215.4375946 178.03902466 216.06268921 177.84381104 216.70672607 C169.50908105 244.13529394 159.89756629 271.70768847 142.41796875 294.8125 C142.00015137 295.38387695 141.58233398 295.95525391 141.15185547 296.54394531 C119.39603539 326.26518957 87.35841765 349.19509608 50.609375 355.27734375 C48.20583898 355.55807676 45.83560116 355.71738004 43.41796875 355.8125 C42.56976562 355.8640625 41.7215625 355.915625 40.84765625 355.96875 C12.19430618 356.92652215 -13.33612643 345.46670426 -36.58203125 329.8125 C-37.7144501 329.05670153 -38.84724836 328.30147114 -39.98046875 327.546875 C-40.83898437 326.97453125 -41.6975 326.4021875 -42.58203125 325.8125 C-43.0203125 327.03839844 -43.45859375 328.26429688 -43.91015625 329.52734375 C-59.21305339 371.45043295 -82.3020745 410.91964612 -112.58203125 443.8125 C-113.10087891 444.38194336 -113.61972656 444.95138672 -114.15429688 445.53808594 C-129.7135654 462.44401593 -149.55697157 474.2908543 -171.58203125 480.8125 C-172.57517334 481.10664795 -172.57517334 481.10664795 -173.58837891 481.40673828 C-194.6686764 487.3815248 -217.55842887 486.57944103 -238.58203125 480.8125 C-239.85433594 480.47347656 -241.12664062 480.13445312 -242.4375 479.78515625 C-260.14104836 474.45321939 -276.03984442 465.0708478 -290.58203125 453.8125 C-291.18660156 453.3469873 -291.79117187 452.88147461 -292.4140625 452.40185547 C-322.86761634 428.64166864 -333.53954007 393.6768883 -338.58203125 356.8125 C-339.46329442 349.6195621 -339.84979931 342.42534348 -340.14453125 335.1875 C-340.18771484 334.18332031 -340.23089844 333.17914063 -340.27539062 332.14453125 C-340.38012984 329.70061617 -340.48230381 327.25662383 -340.58203125 324.8125 C-340.77200684 325.56942139 -340.96198242 326.32634277 -341.15771484 327.10620117 C-351.66068009 368.58512237 -364.60903213 411.02940857 -394.58203125 442.8125 C-395.19433594 443.48925781 -395.80664062 444.16601562 -396.4375 444.86328125 C-410.91459629 460.26641781 -431.25562851 469.85859018 -451.58203125 474.8125 C-452.22317871 474.97476074 -452.86432617 475.13702148 -453.52490234 475.30419922 C-477.66017063 481.08592356 -506.40938893 479.40965125 -530.58203125 474.8125 C-531.69368652 474.60318848 -532.8053418 474.39387695 -533.95068359 474.17822266 C-563.9947497 468.38901423 -594.04217038 460.69056875 -616.58203125 438.8125 C-617.25621094 438.21179688 -617.93039062 437.61109375 -618.625 436.9921875 C-659.76656093 399.05326305 -677.64526637 316.39366575 -686.58203125 263.8125 C-686.9083252 261.90380127 -686.9083252 261.90380127 -687.24121094 259.95654297 C-694.3354028 217.46115313 -697.32322695 174.32213782 -699.45635986 131.33197021 C-699.5673251 129.10733003 -699.68276845 126.88299245 -699.80029297 124.65869141 C-700.19605378 116.90198946 -700.40737524 109.15367415 -700.5333252 101.38824463 C-700.59129203 98.32275782 -700.6684029 95.25794567 -700.74511719 92.19287109 C-700.90102305 85.774413 -701.00568711 79.35635117 -701.08584595 72.93652344 C-701.12447572 70.34529542 -701.1766685 67.75422829 -701.24349976 65.16357422 C-701.63090607 49.52418556 -701.15727157 37.19318608 -692.58203125 23.8125 C-692.20828369 23.20383591 -691.83453613 22.59517181 -691.44946289 21.96806335 C-680.3251258 3.86071358 -664.12629414 -9.55119031 -643.33203125 -14.9375 C-609.43330981 -22.99078741 -574.0113708 -11.67412819 -544.671875 5.26953125 C-542.58203125 6.8125 -542.58203125 6.8125 -541.58203125 9.8125 C-541.90704938 11.81386811 -542.24234096 13.81356988 -542.58203125 15.8125 C-542.76568352 18.93236082 -542.79284213 22.05106818 -542.8203125 25.17578125 C-542.83019699 26.09763718 -542.84008148 27.0194931 -542.8502655 27.96928406 C-543.19533735 68.97024877 -539.07894253 109.30408469 -534.58203125 150 C-534.49792999 150.76119141 -534.41382874 151.52238281 -534.32717896 152.30664062 C-532.52269225 168.6045528 -530.62888602 184.88944625 -528.5 201.1484375 C-528.27080872 202.92476814 -528.27080872 202.92476814 -528.0369873 204.73698425 C-522.52699673 245.92555858 -509.08100744 301.76844156 -484.20703125 335.6875 C-482.52477213 336.99964792 -482.52477213 336.99964792 -479.89453125 337.4375 C-473.53031701 336.23670486 -470.15882771 331.94816103 -466.421875 326.88671875 C-456.27864295 311.60097833 -450.50456396 293.5009112 -445.35546875 276.05078125 C-444.9686952 274.74979387 -444.58184201 273.44883016 -444.19491577 272.14788818 C-439.70454599 256.99866375 -435.44343387 241.78429814 -431.20703125 226.5625 C-430.79023579 225.06651435 -430.37342655 223.57053255 -429.956604 222.07455444 C-417.98284177 179.08000485 -406.51538955 136.0944164 -398.33203125 92.1875 C-398.21053711 91.537883 -398.08904297 90.88826599 -397.96386719 90.21896362 C-396.44481708 81.97896128 -395.30650881 73.74603017 -394.421875 65.4140625 C-394.32421844 64.53124603 -394.22656189 63.64842957 -394.12594604 62.73886108 C-393.64882386 58.4252084 -393.2088546 54.11521359 -392.84472656 49.79052734 C-392.00583951 41.21786272 -390.83975114 35.25565964 -383.86694336 29.49609375 C-383.11292236 28.94050781 -382.35890137 28.38492188 -381.58203125 27.8125 C-380.52601793 26.89886195 -379.47223309 25.98263396 -378.421875 25.0625 C-355.85539654 7.56816407 -330.13298653 -2.04227379 -301.3984375 1.24609375 C-275.92903582 4.76700381 -252.73270352 17.83428067 -234.58203125 35.8125 C-233.02882566 38.91891119 -233.3016324 42.24724743 -233.1875 45.6640625 C-233.12122094 47.36932104 -233.05446371 49.07456104 -232.98730469 50.77978516 C-232.95245972 51.69624817 -232.91761475 52.61271118 -232.88171387 53.5569458 C-229.62061634 197.96255355 -229.62061634 197.96255355 -190.05078125 357.50390625 C-186.06883476 361.06937364 -182.39020318 362.61524488 -177.14453125 363.1875 C-171.52432129 362.59589895 -168.26828443 359.89189054 -164.70703125 355.6875 C-154.89534432 341.63430257 -150.75947142 324.36614754 -146.44091797 308.04931641 C-145.6784162 305.17573811 -144.8864737 302.31235816 -144.0859375 299.44921875 C-143.68608587 297.94603239 -143.28870085 296.4421863 -142.89453125 294.9375 C-142.39373047 293.05417969 -142.39373047 293.05417969 -141.8828125 291.1328125 C-141.51677229 287.09210886 -142.58606938 285.27216725 -144.58203125 281.8125 C-144.58203125 280.8225 -144.58203125 279.8325 -144.58203125 278.8125 C-145.24203125 278.8125 -145.90203125 278.8125 -146.58203125 278.8125 C-146.69667725 279.5240625 -146.81132324 280.235625 -146.92944336 280.96875 C-147.62734815 284.0099752 -148.68341399 286.49658916 -150.0234375 289.3125 C-150.52077393 290.35865479 -151.01811035 291.40480957 -151.53051758 292.48266602 C-152.06314209 293.58151123 -152.5957666 294.68035645 -153.14453125 295.8125 C-153.68811279 296.93648193 -154.23169434 298.06046387 -154.79174805 299.21850586 C-167.31843673 324.81877877 -167.31843673 324.81877877 -177.58203125 331.875 C-181.40983373 333.07118828 -183.72050696 332.86564299 -187.58203125 331.8125 C-202.26439813 321.87296879 -204.18287688 293.75922975 -207.29418945 277.6875 C-207.58203125 275.8125 -207.58203125 275.8125 -207.58203125 272.8125 C-206.26203125 272.4825 -204.94203125 272.1525 -203.58203125 271.8125 C-203.36587158 272.83496826 -203.14971191 273.85743652 -202.92700195 274.91088867 C-202.10829883 278.76935239 -201.27546568 282.62466037 -200.4387207 286.47924805 C-200.08112633 288.1356688 -199.72717258 289.79288047 -199.37719727 291.45092773 C-195.83819482 310.37825538 -195.83819482 310.37825538 -186.58203125 326.8125 C-184.24869792 328.14583333 -184.24869792 328.14583333 -181.58203125 327.8125 C-165.07449235 319.91759009 -156.85116632 293.60791853 -150.58203125 277.8125 C-151.69578125 278.3075 -151.69578125 278.3075 -152.83203125 278.8125 C-155.58203125 279.8125 -155.58203125 279.8125 -159.58203125 279.8125 C-159.58203125 278.4925 -159.58203125 277.1725 -159.58203125 275.8125 C-157.67163073 274.9444092 -155.75342388 274.09348217 -153.83203125 273.25 C-152.7646875 272.77433594 -151.69734375 272.29867188 -150.59765625 271.80859375 C-147.58203125 270.8125 -147.58203125 270.8125 -145.44140625 270.72265625 C-142.29553617 272.56655909 -141.2115613 275.61163739 -139.58203125 278.8125 C-138.67044734 274.9392235 -137.78011929 271.06171309 -136.90869141 267.17919922 C-136.60972356 265.86083182 -136.30511251 264.54373032 -135.99462891 263.22802734 C-135.54777544 261.32997774 -135.12326446 259.42671245 -134.69921875 257.5234375 C-134.43737793 256.38181152 -134.17553711 255.24018555 -133.90576172 254.06396484 C-133.41364835 249.12130582 -135.18330472 245.34612528 -137.39453125 241.01953125 C-163.99153175 187.69014524 -181.95197561 114.78731815 -163.90039062 56.11254883 C-153.55518774 25.53009544 -133.94319931 -4.59758784 -104.41162109 -19.33544922 C-68.99525054 -35.82906187 -28.65638891 -24.27772736 0 0 Z M-133.07421875 11.6796875 C-148.75813124 30.64998666 -159.50755368 55.49592094 -162.58203125 79.8125 C-162.67629395 80.54637939 -162.77055664 81.28025879 -162.86767578 82.03637695 C-168.87548059 134.45689204 -155.94359713 192.09459821 -131.30395508 238.35351562 C-130.55601685 239.8162793 -130.55601685 239.8162793 -129.79296875 241.30859375 C-129.34228027 242.15607178 -128.8915918 243.0035498 -128.42724609 243.87670898 C-126.41918182 250.85157117 -129.07376428 258.70410227 -130.62109375 265.62109375 C-130.82263565 266.53726974 -131.02417755 267.45344574 -131.23182678 268.39738464 C-131.8840185 271.34967712 -132.5444852 274.300015 -133.20703125 277.25 C-133.43234528 278.2573822 -133.6576593 279.2647644 -133.88980103 280.30267334 C-150.64440298 355.05923695 -150.64440298 355.05923695 -166.3515625 366.05078125 C-171.32895337 368.9076269 -175.91461391 369.77471008 -181.58203125 368.8125 C-191.5569723 365.62312244 -196.73387894 359.97149786 -201.6015625 350.875 C-235.59695883 283.30813076 -230.6435293 181.77523166 -235.89453125 107.125 C-235.97611481 105.97415924 -236.05769836 104.82331848 -236.14175415 103.63760376 C-236.96367278 91.90916409 -237.64892704 80.1932153 -238.01953125 68.44140625 C-238.05330368 67.47264053 -238.08707611 66.50387482 -238.12187195 65.50575256 C-238.27765979 61.03603813 -238.40485456 56.57099081 -238.46020508 52.09887695 C-238.43540281 43.09567941 -238.43540281 43.09567941 -242.7578125 35.53125 C-244.63749309 34.05261664 -244.63749309 34.05261664 -246.58203125 32.8125 C-247.63323384 31.96306588 -248.68279532 31.11159561 -249.73046875 30.2578125 C-272.95660227 13.55524191 -299.11172304 3.17010205 -328.15625 7.390625 C-349.15828245 11.14181237 -366.29972178 22.3570319 -381.58203125 36.8125 C-382.09910645 37.22387207 -382.61618164 37.63524414 -383.14892578 38.05908203 C-385.18972089 40.55601397 -385.23635715 42.65921504 -385.60546875 45.84765625 C-385.76241211 47.10594238 -385.91935547 48.36422852 -386.08105469 49.66064453 C-386.16141968 50.33637512 -386.24178467 51.01210571 -386.32458496 51.70831299 C-386.76797116 55.33224357 -387.29052256 58.94470997 -387.80859375 62.55859375 C-387.91797775 63.32686493 -388.02736176 64.09513611 -388.14006042 64.88668823 C-396.17359293 121.00066736 -410.57767785 175.69940361 -425.95703125 230.1875 C-426.16557236 230.92671692 -426.37411346 231.66593384 -426.588974 232.42755127 C-429.54564512 242.90110796 -432.54079776 253.3631808 -435.58203125 263.8125 C-435.78137142 264.49768204 -435.98071159 265.18286407 -436.18609238 265.8888092 C-437.37989027 269.98677448 -438.58259202 274.08198639 -439.7963295 278.17409134 C-440.34308278 280.02017422 -440.88513617 281.86764711 -441.42697144 283.71517944 C-455.36456718 330.3506613 -455.36456718 330.3506613 -471.95703125 341.25 C-476.4855267 343.20193769 -478.69387299 343.43321851 -483.58203125 342.8125 C-493.9208005 338.05666615 -497.79933107 325.36280392 -501.83203125 315.5 C-502.11204987 314.82166107 -502.39206848 314.14332214 -502.68057251 313.44442749 C-510.89255158 293.53214111 -518.04236986 273.41539577 -523.89453125 252.6875 C-524.19645889 251.63267929 -524.19645889 251.63267929 -524.50448608 250.55654907 C-531.58451274 225.64669604 -534.90111727 200.21702723 -537.79949951 174.55553818 C-538.08562406 172.03079729 -538.37549525 169.50651264 -538.66650391 166.98233032 C-541.99316511 138.10750507 -545.05234957 109.20506544 -547.38699341 80.230896 C-547.5084285 78.7251465 -547.63252424 77.2196062 -547.76071167 75.7144165 C-548.90684197 62.1004416 -548.69392135 48.46280494 -548.64453125 34.8125 C-548.63950452 32.38020926 -548.63494369 29.94791751 -548.63085938 27.515625 C-548.61995068 21.61456094 -548.60330624 15.71353532 -548.58203125 9.8125 C-560.13751787 3.43046171 -560.13751787 3.43046171 -572.20703125 -1.875 C-572.93575439 -2.15553223 -573.66447754 -2.43606445 -574.4152832 -2.72509766 C-599.81590326 -12.11094632 -629.44764528 -16.03409128 -654.8125 -4.625 C-659.42265598 -2.23214048 -663.51660455 0.58887112 -667.58203125 3.8125 C-668.41605469 4.46992187 -669.25007812 5.12734375 -670.109375 5.8046875 C-676.41209321 11.10712839 -681.08055545 16.99287105 -685.42149353 23.97367859 C-686.49098804 25.668246 -687.61198637 27.33001543 -688.73730469 28.98803711 C-696.77995967 41.86418918 -695.55428279 55.62418874 -695.20703125 70.3125 C-695.17647762 72.35703453 -695.15204149 74.40157653 -695.12845612 76.44620228 C-695.02664169 85.23742468 -694.81720894 94.02390111 -694.58203125 102.8125 C-694.55371216 103.95003723 -694.52539307 105.08757446 -694.49621582 106.25958252 C-692.57897401 182.89591804 -688.07160947 264.17258099 -661.58203125 336.8125 C-661.3236145 337.52162537 -661.06519775 338.23075073 -660.7989502 338.96136475 C-644.63339174 385.99332066 -644.63339174 385.99332066 -618.58203125 427.8125 C-617.875625 428.68132812 -617.16921875 429.55015625 -616.44140625 430.4453125 C-600.89152474 448.73600046 -578.02520997 457.83106125 -555.20703125 463.375 C-553.40141724 463.81996826 -553.40141724 463.81996826 -551.55932617 464.27392578 C-534.71240396 468.33617831 -517.41449722 471.91414018 -500.0234375 472.015625 C-499.23541245 472.02132507 -498.44738739 472.02702515 -497.63548279 472.03289795 C-495.97583323 472.04227664 -494.31616566 472.04885324 -492.65649414 472.05273438 C-490.18145027 472.06235647 -487.70726886 472.09341356 -485.23242188 472.125 C-470.43618322 472.22473045 -455.99848161 470.56992232 -441.95703125 465.6875 C-441.0858667 465.389646 -440.21470215 465.09179199 -439.31713867 464.78491211 C-426.68675955 460.27513535 -415.66181809 453.64744181 -405.58203125 444.8125 C-404.79957031 444.18472656 -404.01710938 443.55695313 -403.2109375 442.91015625 C-357.4184022 404.73749883 -342.8739576 325.72056895 -337.79589844 269.78173828 C-337.29240629 262.79147396 -337.33785062 255.81234485 -337.58203125 248.8125 C-335.60203125 248.8125 -333.62203125 248.8125 -331.58203125 248.8125 C-331.61961548 249.52199295 -331.65719971 250.2314859 -331.69592285 250.96247864 C-332.05407766 257.74045011 -332.40734136 264.51866192 -332.75548553 271.29715443 C-332.93451266 274.77970541 -333.11524957 278.26214786 -333.30029297 281.74438477 C-336.08574812 334.25267325 -337.82139755 394.57546222 -301.06640625 436.6953125 C-280.02281171 458.8099882 -247.49148887 477.1968535 -216.52441406 478.98950195 C-201.42646336 479.27512041 -187.05675128 479.47649758 -172.58203125 474.8125 C-171.90430664 474.59819336 -171.22658203 474.38388672 -170.52832031 474.16308594 C-147.28403997 466.60566966 -127.11056697 452.75792374 -111.58203125 433.8125 C-110.61726449 432.66009179 -109.65241253 431.50775491 -108.6875 430.35546875 C-80.67852701 396.65571653 -58.48677046 357.77546318 -45.58203125 315.8125 C-42.11724997 317.33381776 -39.61424728 319.3973441 -36.76953125 321.875 C-13.10264556 341.45596917 17.10270131 351.78174021 47.77734375 349.5703125 C79.37135586 346.00324662 110.71474686 325.21840725 130.41796875 300.8125 C137.89465415 291.31682952 144.63126209 281.42564094 150.41796875 270.8125 C150.99514648 269.7603833 150.99514648 269.7603833 151.58398438 268.68701172 C157.96504084 256.80477441 162.49199893 244.38994552 166.73046875 231.625 C166.9792276 230.87666901 167.22798645 230.12833801 167.48428345 229.35733032 C170.2547873 220.96996808 172.84204399 212.53717524 175.23828125 204.03515625 C175.45015579 203.29054642 175.66203033 202.54593658 175.88032532 201.77876282 C179.02679773 190.398063 177.44285 181.35278387 171.875 170.921875 C164.52053245 158.87199224 155.39226736 148.7998332 141.41796875 144.8125 C134.13816773 143.58629238 128.39254444 145.68152071 122.41796875 149.8125 C115.79732523 156.45856781 112.20542376 164.01066903 108.79296875 172.625 C107.76567653 175.1104539 106.73434822 177.59370293 105.6953125 180.07421875 C105.43067703 180.7086792 105.16604156 181.34313965 104.89338684 181.99682617 C92.42121947 211.71342637 76.70561383 247.14798494 48.41796875 264.8125 C47.69738281 265.26882813 46.97679687 265.72515625 46.234375 266.1953125 C36.93948872 270.93388197 23.99431709 270.00684249 13.9765625 268.1875 C9.56255508 266.71397144 7.11850185 265.0392475 4.85546875 260.9375 C-8.60334455 229.12575947 10.02341021 177.09726798 16.609375 145.109375 C24.92060067 105.10280824 24.92060067 105.10280824 27.98046875 64.4375 C27.99529297 63.2501123 28.01011719 62.06272461 28.02539062 60.83935547 C27.77214582 39.69039963 16.27481981 23.65135887 1.84375 9.2421875 C-18.01275812 -9.14924074 -43.96396125 -21.74437345 -71.40234375 -21.40234375 C-96.95858099 -19.67557096 -116.29820455 -7.19990215 -133.07421875 11.6796875 Z " fill="#000000" transform="translate(700.58203125,77.1875)"/>
<path d="M0 0 C6.517904 4.68956663 12.55343845 10.81246164 14 19 C14.7992898 30.25557271 13.99078008 38.31915226 6.75 47.25 C0.90940443 53.48910103 -4.44322816 56.54160151 -13 57 C-13 57.66 -13 58.32 -13 59 C-13.99 59 -14.98 59 -16 59 C-16 58.34 -16 57.68 -16 57 C-17.134375 57.0825 -18.26875 57.165 -19.4375 57.25 C-27.37090992 57.20802429 -33.53528303 53.1977912 -39.20703125 47.93359375 C-46.38318634 40.19460297 -47.48473506 33.10670258 -47.2734375 22.765625 C-46.64352117 14.09077723 -42.28194806 7.82507911 -36 2 C-25.82502277 -5.66451556 -10.93235165 -7.28107507 0 0 Z " fill="#000000" transform="translate(86,118)"/>
<path d="M0 0 C3.28418504 3.06277931 5.69883925 6.33177541 8.1875 10.0625 C35.75894328 50.42691246 77.86437032 76.91189556 125.64453125 86.08984375 C167.75681462 93.52557221 211.06435458 83.59323375 249 65 C246.69 64.01 244.38 63.02 242 62 C242 60.68 242 59.36 242 58 C243.73017508 58.45451184 245.45909877 58.91378857 247.1875 59.375 C248.15042969 59.63023437 249.11335937 59.88546875 250.10546875 60.1484375 C252.82210207 60.94766296 255.39137175 61.9031362 258 63 C256.90301833 68.69139902 255.45946923 73.74567937 253 79 C252.01 79 251.02 79 250 79 C250.45822468 75.53058454 250.89131683 72.32604951 252 69 C251.08605469 69.47308594 250.17210937 69.94617188 249.23046875 70.43359375 C229.02852175 80.57089235 207.22403348 87.09846668 185 91 C184.27264648 91.12987305 183.54529297 91.25974609 182.79589844 91.39355469 C136.8001556 99.20167651 88.62420944 86.88545945 50.75 60.125 C30.17654765 45.13298898 10.57357305 26.37303399 -2 4 C-2 3.01 -2 2.02 -2 1 C-1.34 0.67 -0.68 0.34 0 0 Z " fill="#000000" transform="translate(40,491)"/>
<path d="M0 0 C5.890686 3.27002648 9.75842408 8.06853065 11.875 14.4375 C14.31075696 31.85599452 3.80711887 49.1666433 -3.125 64.4375 C-4.03241862 66.45650643 -4.93871373 68.47601829 -5.84375 70.49609375 C-7.928682 75.14725069 -10.02363601 79.79374502 -12.125 84.4375 C-21.92557991 75.75453008 -26.49639418 58.94812811 -27.33203125 46.30517578 C-27.47250435 42.78481967 -27.53770686 39.27303249 -27.5625 35.75 C-27.57273193 34.63399414 -27.58296387 33.51798828 -27.59350586 32.36816406 C-27.48990541 22.52394786 -26.85521427 11.15745166 -20.125 3.4375 C-14.1089558 -1.99161306 -7.46959191 -3.3548647 0 0 Z M-16.125 7.4375 C-19.6485274 13.49071854 -20.94463918 19.53044248 -21.5 26.4375 C-21.57814941 27.34814209 -21.65629883 28.25878418 -21.73681641 29.19702148 C-22.82285454 44.34474311 -19.77886244 57.40380572 -14.125 71.4375 C-11.21616037 69.98308018 -10.83859701 68.01304706 -9.515625 65.06640625 C-8.75813965 63.38115845 -8.75813965 63.38115845 -7.98535156 61.66186523 C-7.44747039 60.44172664 -6.91070797 59.22109431 -6.375 58 C-6.10554565 57.38891388 -5.83609131 56.77782776 -5.55847168 56.14822388 C4.791002 35.46706052 4.791002 35.46706052 5.20703125 13.42578125 C2.83874204 8.49270721 -0.29499602 6.51939827 -5.125 4.4375 C-9.73984984 3.79142102 -12.58695253 4.36498509 -16.125 7.4375 Z " fill="#000000" transform="translate(649.125,167.5625)"/>
<path d="M0 0 C3.59559882 3.05985567 6.9563941 6.32951041 10.31103516 9.64941406 C11.03806641 10.31585938 11.76509766 10.98230469 12.51416016 11.66894531 C21.81563276 20.3661884 29.06799344 32.0843767 34.31103516 43.64941406 C34.31103516 44.63941406 34.31103516 45.62941406 34.31103516 46.64941406 C33.32103516 46.97941406 32.33103516 47.30941406 31.31103516 47.64941406 C30.87404297 46.8646167 30.87404297 46.8646167 30.42822266 46.06396484 C25.00027496 36.36662904 19.69133148 27.02013976 12.31103516 18.64941406 C11.79798828 17.99457031 11.28494141 17.33972656 10.75634766 16.66503906 C-2.78084992 -0.17227135 -25.33592539 -11.76313073 -46.68896484 -14.35058594 C-59.31474576 -15.02850735 -71.45218462 -14.72152428 -83.68896484 -11.35058594 C-84.87103516 -11.03347656 -86.05310547 -10.71636719 -87.27099609 -10.38964844 C-109.36955173 -3.7530215 -130.62215328 10.13835886 -146.68896484 26.64941406 C-144.04896484 26.97941406 -141.40896484 27.30941406 -138.68896484 27.64941406 C-138.68896484 28.96941406 -138.68896484 30.28941406 -138.68896484 31.64941406 C-141.33486498 31.67626085 -143.9804958 31.69617763 -146.62646484 31.71191406 C-147.38121094 31.72029297 -148.13595703 31.72867188 -148.91357422 31.73730469 C-150.83890798 31.74593847 -152.76432065 31.70165739 -154.68896484 31.64941406 C-155.68896484 30.64941406 -155.68896484 30.64941406 -155.78662109 27.05175781 C-155.77994705 25.56344539 -155.76798667 24.07514974 -155.75146484 22.58691406 C-155.74695313 21.82830078 -155.74244141 21.0696875 -155.73779297 20.28808594 C-155.72597164 18.40849535 -155.70803562 16.52894508 -155.68896484 14.64941406 C-154.36896484 14.64941406 -153.04896484 14.64941406 -151.68896484 14.64941406 C-151.35896484 17.61941406 -151.02896484 20.58941406 -150.68896484 23.64941406 C-149.69896484 22.62589844 -148.70896484 21.60238281 -147.68896484 20.54785156 C-143.92139728 16.78595805 -139.92807366 13.48794791 -135.68896484 10.27441406 C-134.94984863 9.71351074 -134.21073242 9.15260742 -133.44921875 8.57470703 C-94.75899864 -20.33748439 -40.78840786 -32.61657593 0 0 Z " fill="#000000" transform="translate(698.68896484375,49.3505859375)"/>
<path d="M0 0 C2.88417214 1.79017581 4.17791215 4.20609312 5.8125 7.125 C5.8125 8.115 5.8125 9.105 5.8125 10.125 C4.8225 10.125 3.8325 10.125 2.8125 10.125 C1.8225 8.145 1.8225 8.145 0.8125 6.125 C0.58175781 6.85912109 0.35101562 7.59324219 0.11328125 8.34960938 C-15.97855929 59.13749347 -15.97855929 59.13749347 -37.3125 70.625 C-45.0802315 73.6775822 -54.79884372 73.57006956 -62.4375 70.25 C-64.81611679 69.00537493 -66.94592359 67.61938427 -69.1875 66.125 C-68.8575 65.135 -68.5275 64.145 -68.1875 63.125 C-67.15302734 63.64900391 -67.15302734 63.64900391 -66.09765625 64.18359375 C-57.19000147 68.49690258 -50.31467833 70.57846968 -40.73046875 67.25 C-23.73551261 59.73149406 -16.06560612 42.18252155 -9.59667969 25.80541992 C-7.14008827 19.36642766 -5.14211466 12.97189139 -4.1875 6.125 C-5.8375 6.455 -7.4875 6.785 -9.1875 7.125 C-9.1875 6.135 -9.1875 5.145 -9.1875 4.125 C-2.9534372 0.16876784 -2.9534372 0.16876784 0 0 Z " fill="#000000" transform="translate(785.1875,253.875)"/>
<path d="M0 0 C1.4540625 0.0309375 1.4540625 0.0309375 2.9375 0.0625 C5.0625 4.6875 5.0625 4.6875 3.9375 8.0625 C4.26300502 9.73071323 4.59596063 11.39749557 4.9375 13.0625 C4.6075 13.7225 4.2775 14.3825 3.9375 15.0625 C1.125 15.9375 1.125 15.9375 -2.0625 16.0625 C-4.4375 14.125 -4.4375 14.125 -6.0625 12.0625 C-2.43923261 10.8547442 -1.42103631 11.51938872 1.9375 13.0625 C1.9375 11.7425 1.9375 10.4225 1.9375 9.0625 C0.6175 9.0625 -0.7025 9.0625 -2.0625 9.0625 C-2.0625 8.0725 -2.0625 7.0825 -2.0625 6.0625 C-0.7425 6.0625 0.5775 6.0625 1.9375 6.0625 C1.6075 5.0725 1.2775 4.0825 0.9375 3.0625 C-1.0425 3.7225 -3.0225 4.3825 -5.0625 5.0625 C-3.9375 0.08035714 -3.9375 0.08035714 0 0 Z " fill="#000000" transform="translate(641.0625,3.9375)"/>
<path d="M0 0 C3.0625 0.1875 3.0625 0.1875 5.0625 2.1875 C4.90004442 5.92397845 4.47466356 7.71288742 2 10.5625 C1.360625 11.09875 0.72125 11.635 0.0625 12.1875 C1.7125 12.5175 3.3625 12.8475 5.0625 13.1875 C5.0625 13.8475 5.0625 14.5075 5.0625 15.1875 C1.7625 15.1875 -1.5375 15.1875 -4.9375 15.1875 C-2.9375 11.1875 -2.9375 11.1875 -0.8125 8.625 C1.36735538 6.30372611 1.36735538 6.30372611 1.0625 3.1875 C0.4025 3.1875 -0.2575 3.1875 -0.9375 3.1875 C-1.2675 3.8475 -1.5975 4.5075 -1.9375 5.1875 C-2.9275 5.1875 -3.9175 5.1875 -4.9375 5.1875 C-3.82120474 0.24390669 -3.82120474 0.24390669 0 0 Z " fill="#000000" transform="translate(531.9375,334.8125)"/>
<path d="M0 0 C0.99 0 1.98 0 3 0 C3 3.3 3 6.6 3 10 C3.66 10 4.32 10 5 10 C5 10.66 5 11.32 5 12 C4.34 12 3.68 12 3 12 C3 12.99 3 13.98 3 15 C2.34 15 1.68 15 1 15 C1 14.01 1 13.02 1 12 C-1.31 12 -3.62 12 -6 12 C-5.56629155 7.2292071 -3.35665609 3.36635741 0 0 Z M0 4 C-0.99 5.98 -1.98 7.96 -3 10 C-1.68 10 -0.36 10 1 10 C1 8.02 1 6.04 1 4 C0.67 4 0.34 4 0 4 Z " fill="#000000" transform="translate(752,287)"/>
<path d="M0 0 C5.75 4.75 5.75 4.75 8 7 C6.68 9.97 5.36 12.94 4 16 C3.01 16 2.02 16 1 16 C1.6496875 14.205625 1.6496875 14.205625 2.3125 12.375 C3.00017517 9.74592893 3.2990995 8.56959984 2.01953125 6.1328125 C0.49178277 4.28739828 0.49178277 4.28739828 -2 2 C-1.34 1.34 -0.68 0.68 0 0 Z " fill="#000000" transform="translate(637,318)"/>
<path d="M0 0 C0 4.95 0 9.9 0 15 C-0.99 15 -1.98 15 -3 15 C-3 11.37 -3 7.74 -3 4 C-3.99 4.33 -4.98 4.66 -6 5 C-5.625 3.0625 -5.625 3.0625 -5 1 C-3 0 -3 0 0 0 Z " fill="#000000" transform="translate(134,583)"/>
<path d="M0 0 C0 4.95 0 9.9 0 15 C-0.99 15 -1.98 15 -3 15 C-3 11.37 -3 7.74 -3 4 C-3.99 4.33 -4.98 4.66 -6 5 C-5.625 3.0625 -5.625 3.0625 -5 1 C-3 0 -3 0 0 0 Z " fill="#000000" transform="translate(519,335)"/>
<path d="M0 0 C0 4.95 0 9.9 0 15 C-0.99 15 -1.98 15 -3 15 C-3 11.37 -3 7.74 -3 4 C-3.99 4.33 -4.98 4.66 -6 5 C-5.625 3.0625 -5.625 3.0625 -5 1 C-3 0 -3 0 0 0 Z " fill="#000000" transform="translate(738,287)"/>
<path d="M0 0 C0 4.95 0 9.9 0 15 C-0.99 15 -1.98 15 -3 15 C-3 11.37 -3 7.74 -3 4 C-3.99 4.33 -4.98 4.66 -6 5 C-5.625 3.0625 -5.625 3.0625 -5 1 C-3 0 -3 0 0 0 Z " fill="#000000" transform="translate(628,4)"/>
<path d="M0 0 C0 4.95 0 9.9 0 15 C-0.66 15 -1.32 15 -2 15 C-2.33 11.37 -2.66 7.74 -3 4 C-3.99 4.33 -4.98 4.66 -6 5 C-6 4.01 -6 3.02 -6 2 C-3 0 -3 0 0 0 Z " fill="#000000" transform="translate(146,583)"/>
<path d="M0 0 C0.99 0.33 1.98 0.66 3 1 C2.74379316 2.6065676 2.46944129 4.2102483 2.1875 5.8125 C2.03667969 6.70582031 1.88585937 7.59914063 1.73046875 8.51953125 C0.94604607 11.18321256 0.11372201 12.25690322 -2 14 C-3.25127906 10.45332822 -2.72285053 8.27746562 -1.5625 4.75 C-1.27503906 3.85796875 -0.98757813 2.9659375 -0.69140625 2.046875 C-0.46324219 1.37140625 -0.23507812 0.6959375 0 0 Z " fill="#000000" transform="translate(840,266)"/>
<path d="M0 0 C-0.50522222 4.37859255 -3.17827222 6.81651224 -6 10 C-6.99 9.67 -7.98 9.34 -9 9 C-7.45665977 5.21180126 -4.44676575 0 0 0 Z " fill="#000000" transform="translate(803,342)"/>
<path d="M0 0 C-2.54782974 2.97246802 -5.45340883 4.41535288 -9 6 C-9.66 6 -10.32 6 -11 6 C-11.33 5.01 -11.66 4.02 -12 3 C-10.75823305 2.29773859 -9.50614401 1.61370891 -8.25 0.9375 C-7.20585938 0.36322266 -7.20585938 0.36322266 -6.140625 -0.22265625 C-3.63859372 -1.1312406 -2.4667645 -0.88336837 0 0 Z " fill="#000000" transform="translate(531,491)"/>
<path d="M0 0 C0.99 0 1.98 0 3 0 C4.60546875 1.96875 4.60546875 1.96875 6.1875 4.5 C6.71730469 5.3353125 7.24710937 6.170625 7.79296875 7.03125 C8.19128906 7.6809375 8.58960938 8.330625 9 9 C7.68 9 6.36 9 5 9 C0 3.88636364 0 3.88636364 0 0 Z " fill="#000000" transform="translate(447,470)"/>
<path d="M0 0 C3.48670834 1.1094072 6.77484237 2.26337666 10 4 C9.67 4.99 9.34 5.98 9 7 C5.51329166 5.8905928 2.22515763 4.73662334 -1 3 C-0.67 2.01 -0.34 1.02 0 0 Z " fill="#000000" transform="translate(177,481)"/>
<path d="M0 0 C2.96404505 2.80804268 5.44499019 5.18315774 7 9 C5.68 9 4.36 9 3 9 C1.515625 7.46875 1.515625 7.46875 0.25 5.5 C-0.17796875 4.8503125 -0.6059375 4.200625 -1.046875 3.53125 C-1.51867187 2.77328125 -1.51867187 2.77328125 -2 2 C-1.34 1.34 -0.68 0.68 0 0 Z " fill="#000000" transform="translate(148,455)"/>
<path d="M0 0 C0 0.99 0 1.98 0 3 C-6.5 6 -6.5 6 -11 6 C-11 5.01 -11 4.02 -11 3 C-9.54293274 2.49632243 -8.08429904 1.99717444 -6.625 1.5 C-5.81289063 1.2215625 -5.00078125 0.943125 -4.1640625 0.65625 C-2 0 -2 0 0 0 Z " fill="#000000" transform="translate(770,367)"/>
<path d="M0 0 C0.66 0.33 1.32 0.66 2 1 C2 1.99 2 2.98 2 4 C-0.97 5.65 -3.94 7.3 -7 9 C-7 7.68 -7 6.36 -7 5 C-5.46875 3.515625 -5.46875 3.515625 -3.5 2.25 C-2.8503125 1.82203125 -2.200625 1.3940625 -1.53125 0.953125 C-1.0259375 0.63859375 -0.520625 0.3240625 0 0 Z " fill="#000000" transform="translate(786,356)"/>
<path d="M0 0 C0.99 0 1.98 0 3 0 C2.39301257 4.12751449 0.96189209 7.3321148 -1 11 C-1.99 10.67 -2.98 10.34 -4 10 C-2.68 6.7 -1.36 3.4 0 0 Z " fill="#000000" transform="translate(832,288)"/>
<path d="M0 0 C0.99 0 1.98 0 3 0 C3.99 3.3 4.98 6.6 6 10 C5.01 10.33 4.02 10.66 3 11 C2.49384702 9.73160474 1.99530901 8.46016898 1.5 7.1875 C1.2215625 6.47980469 0.943125 5.77210938 0.65625 5.04296875 C0 3 0 3 0 0 Z " fill="#000000" transform="translate(596,249)"/>
<path d="M0 0 C7.42857143 1 7.42857143 1 11 2 C11 2.99 11 3.98 11 5 C3.375 4.125 3.375 4.125 0 3 C0 2.01 0 1.02 0 0 Z " fill="#000000" transform="translate(479,496)"/>
<path d="M0 0 C4.455 2.97 4.455 2.97 9 6 C8.67 6.99 8.34 7.98 8 9 C0.28571429 5 0.28571429 5 -1 1 C-0.67 0.67 -0.34 0.34 0 0 Z " fill="#000000" transform="translate(462,485)"/>
<path d="M0 0 C0.99 0.33 1.98 0.66 3 1 C3 1.66 3 2.32 3 3 C1.03125 4.5078125 1.03125 4.5078125 -1.5 6.125 C-2.3353125 6.66382813 -3.170625 7.20265625 -4.03125 7.7578125 C-4.6809375 8.16773438 -5.330625 8.57765625 -6 9 C-6 5 -6 5 -3.1875 2.1875 C-2.135625 1.465625 -1.08375 0.74375 0 0 Z " fill="#000000" transform="translate(545,478)"/>
<path d="M0 0 C0.99 0.33 1.98 0.66 3 1 C-1 8.71428571 -1 8.71428571 -5 10 C-5 6.60406522 -4.47834052 5.93380119 -2.5 3.3125 C-2.0359375 2.68988281 -1.571875 2.06726563 -1.09375 1.42578125 C-0.7328125 0.95527344 -0.371875 0.48476563 0 0 Z " fill="#000000" transform="translate(587,432)"/>
<path d="M0 0 C0.99 0 1.98 0 3 0 C3.99 3.3 4.98 6.6 6 10 C5.01 10.33 4.02 10.66 3 11 C2.49384702 9.73160474 1.99530901 8.46016898 1.5 7.1875 C1.2215625 6.47980469 0.943125 5.77210938 0.65625 5.04296875 C0 3 0 3 0 0 Z " fill="#000000" transform="translate(123,401)"/>
<path d="M0 0 C0.66 0 1.32 0 2 0 C2.99 3.63 3.98 7.26 5 11 C3.68 10.67 2.36 10.34 1 10 C0.63883954 8.5225254 0.28624952 7.04295325 -0.0625 5.5625 C-0.25972656 4.73878906 -0.45695312 3.91507812 -0.66015625 3.06640625 C-0.82837891 2.04353516 -0.82837891 2.04353516 -1 1 C-0.67 0.67 -0.34 0.34 0 0 Z " fill="#000000" transform="translate(118,381)"/>
<path d="M0 0 C0 0.99 0 1.98 0 3 C-3.63 3.66 -7.26 4.32 -11 5 C-11 4.01 -11 3.02 -11 2 C-7.17679443 0.57741188 -4.08718695 -0.24042276 0 0 Z " fill="#000000" transform="translate(750,374)"/>
<path d="M0 0 C4.95 1.98 4.95 1.98 10 4 C10 4.99 10 5.98 10 7 C5.87248551 6.39301257 2.6678852 4.96189209 -1 3 C-0.67 2.01 -0.34 1.02 0 0 Z " fill="#000000" transform="translate(700,368)"/>
<path d="M0 0 C0.99 0 1.98 0 3 0 C2.71758359 1.46015291 2.42373386 2.91809793 2.125 4.375 C1.96257812 5.18710937 1.80015625 5.99921875 1.6328125 6.8359375 C1 9 1 9 -1 11 C-1.66 10.67 -2.32 10.34 -3 10 C-2.01 6.7 -1.02 3.4 0 0 Z " fill="#000000" transform="translate(306,362)"/>
<path d="M0 0 C0.99 0.33 1.98 0.66 3 1 C3.66 4.3 4.32 7.6 5 11 C4.01 11 3.02 11 2 11 C1.01 7.7 0.02 4.4 -1 1 C-0.67 0.67 -0.34 0.34 0 0 Z " fill="#000000" transform="translate(112,362)"/>
<path d="M0 0 C0.99 0.33 1.98 0.66 3 1 C0.525 5.455 0.525 5.455 -2 10 C-2.99 10 -3.98 10 -5 10 C-4.38545304 6.00544473 -2.29353263 3.25533664 0 0 Z " fill="#000000" transform="translate(813,325)"/>
<path d="M0 0 C0.99 0 1.98 0 3 0 C2.71758359 1.46015291 2.42373386 2.91809793 2.125 4.375 C1.96257812 5.18710937 1.80015625 5.99921875 1.6328125 6.8359375 C1 9 1 9 -1 11 C-1.66 10.67 -2.32 10.34 -3 10 C-2.01 6.7 -1.02 3.4 0 0 Z " fill="#000000" transform="translate(326,304)"/>
<path d="M0 0 C4.42679007 1.47559669 4.91432696 3.90057368 7 8 C7 8.66 7 9.32 7 10 C5.140625 9.75390625 5.140625 9.75390625 3 9 C1.734375 7.15234375 1.734375 7.15234375 0.75 4.9375 C0.41484375 4.20402344 0.0796875 3.47054688 -0.265625 2.71484375 C-0.50796875 2.14894531 -0.7503125 1.58304687 -1 1 C-0.67 0.67 -0.34 0.34 0 0 Z " fill="#000000" transform="translate(612,286)"/>
<path d="M0 0 C0.99 0 1.98 0 3 0 C2.71758359 1.46015291 2.42373386 2.91809793 2.125 4.375 C1.96257812 5.18710938 1.80015625 5.99921875 1.6328125 6.8359375 C1 9 1 9 -1 11 C-1.66 10.67 -2.32 10.34 -3 10 C-2.01 6.7 -1.02 3.4 0 0 Z " fill="#000000" transform="translate(346,246)"/>
<path d="M0 0 C0.99 0 1.98 0 3 0 C3.33 3.63 3.66 7.26 4 11 C3.01 11 2.02 11 1 11 C0.67 7.37 0.34 3.74 0 0 Z " fill="#000000" transform="translate(79,225)"/>
<path d="M0 0 C0.66 0 1.32 0 2 0 C2.33 3.63 2.66 7.26 3 11 C2.01 11.33 1.02 11.66 0 12 C-1.17661508 8.32307787 -1.14475933 4.8361222 -1 1 C-0.67 0.67 -0.34 0.34 0 0 Z " fill="#000000" transform="translate(393,190)"/>
<path d="M0 0 C0 0.99 0 1.98 0 3 C-3.3 3.66 -6.6 4.32 -10 5 C-10.33 4.01 -10.66 3.02 -11 2 C-3.375 0 -3.375 0 0 0 Z " fill="#000000" transform="translate(511,497)"/>
<path d="M0 0 C0 0.99 0 1.98 0 3 C-3.72965139 5.03435531 -5.66905042 6 -10 6 C-10 5.01 -10 4.02 -10 3 C-3.375 0 -3.375 0 0 0 Z " fill="#000000" transform="translate(244,483)"/>
<path d="M0 0 C0.99 0 1.98 0 3 0 C1.68775452 3.93673644 0.08089673 6.22719294 -3 9 C-3.99 8.67 -4.98 8.34 -6 8 C-5.07456291 6.65826597 -4.13422595 5.32679841 -3.1875 4 C-2.66542969 3.2575 -2.14335938 2.515 -1.60546875 1.75 C-0.81076172 0.88375 -0.81076172 0.88375 0 0 Z " fill="#000000" transform="translate(574,449)"/>
<path d="M0 0 C2.34191563 2.1290142 3.83554954 4.04408729 5 7 C5 8.32 5 9.64 5 11 C2 10 2 10 0.25 7.1875 C-0.98589446 4.03596914 -1.28222189 3.03070628 0 0 Z " fill="#000000" transform="translate(138,438)"/>
<path d="M0 0 C0.99 0.33 1.98 0.66 3 1 C1.68 4.3 0.36 7.6 -1 11 C-1.99 10.67 -2.98 10.34 -4 10 C-2.8905928 6.51329166 -1.73662334 3.22515763 0 0 Z " fill="#000000" transform="translate(279,438)"/>
<path d="M0 0 C0.99 0.33 1.98 0.66 3 1 C4.52160014 4.6037898 5 7.05220686 5 11 C4.01 11 3.02 11 2 11 C0.80712589 7.12315913 0 4.08378077 0 0 Z " fill="#000000" transform="translate(430,433)"/>
<path d="M0 0 C0.99 0 1.98 0 3 0 C1.84414715 3.91211733 0.64465038 6.8745041 -2 10 C-2.99 9.67 -3.98 9.34 -5 9 C-3.35 6.03 -1.7 3.06 0 0 Z " fill="#000000" transform="translate(598,415)"/>
<path d="M0 0 C0.99 0.33 1.98 0.66 3 1 C3.66 4.3 4.32 7.6 5 11 C3.68 10.67 2.36 10.34 1 10 C0.67 6.7 0.34 3.4 0 0 Z " fill="#000000" transform="translate(425,413)"/>
<path d="M0 0 C0.99 0.33 1.98 0.66 3 1 C1.35 4.3 -0.3 7.6 -2 11 C-2.66 10.67 -3.32 10.34 -4 10 C-3.43454163 6.04179141 -2.19097652 3.3340947 0 0 Z " fill="#000000" transform="translate(608,397)"/>
<path d="M0 0 C0.99 0 1.98 0 3 0 C4.19287411 3.87684087 5 6.91621923 5 11 C4.01 11 3.02 11 2 11 C1.34 7.37 0.68 3.74 0 0 Z " fill="#000000" transform="translate(420,393)"/>
<path d="M0 0 C3.63 0.33 7.26 0.66 11 1 C11 1.99 11 2.98 11 4 C3.57142857 4.14285714 3.57142857 4.14285714 0 3 C0 2.01 0 1.02 0 0 Z " fill="#000000" transform="translate(719,375)"/>
<path d="M0 0 C0.99 0 1.98 0 3 0 C3.33 3.63 3.66 7.26 4 11 C3.01 11 2.02 11 1 11 C0.67 7.37 0.34 3.74 0 0 Z " fill="#000000" transform="translate(417,373)"/>
<path d="M0 0 C0.99 0 1.98 0 3 0 C3.66 3.63 4.32 7.26 5 11 C4.01 11 3.02 11 2 11 C0 3.375 0 3.375 0 0 Z " fill="#000000" transform="translate(413,353)"/>
<path d="M0 0 C4.37859255 0.50522222 6.81651224 3.17827222 10 6 C9.67 6.66 9.34 7.32 9 8 C5.56801397 6.76067171 2.69674368 5.49698489 0 3 C0 2.01 0 1.02 0 0 Z " fill="#000000" transform="translate(665,347)"/>
<path d="M0 0 C0.99 0 1.98 0 3 0 C4.62950412 4.12168689 5.26264601 6.70700357 4 11 C3.34 10.67 2.68 10.34 2 10 C1.3671875 7.71484375 1.3671875 7.71484375 0.875 4.9375 C0.70742187 4.01839844 0.53984375 3.09929687 0.3671875 2.15234375 C0.24601562 1.44207031 0.12484375 0.73179687 0 0 Z " fill="#000000" transform="translate(106,343)"/>
<path d="M0 0 C0.99 0.33 1.98 0.66 3 1 C1.68 4.3 0.36 7.6 -1 11 C-1.99 10.67 -2.98 10.34 -4 10 C-2.8905928 6.51329166 -1.73662334 3.22515763 0 0 Z " fill="#000000" transform="translate(634,342)"/>
<path d="M0 0 C0.66 0 1.32 0 2 0 C3.19287411 3.87684087 4 6.91621923 4 11 C3.01 11 2.02 11 1 11 C0.63890458 9.35567294 0.28629924 7.7094792 -0.0625 6.0625 C-0.25972656 5.14597656 -0.45695312 4.22945313 -0.66015625 3.28515625 C-0.77230469 2.53105469 -0.88445312 1.77695312 -1 1 C-0.67 0.67 -0.34 0.34 0 0 Z " fill="#000000" transform="translate(102,323)"/>
<path d="M0 0 C0.99 0 1.98 0 3 0 C4.17571451 3.67410785 4.07366746 7.16929183 4 11 C3.01 11 2.02 11 1 11 C0.67 7.37 0.34 3.74 0 0 Z " fill="#000000" transform="translate(407,312)"/>
<path d="M0 0 C0.99 0 1.98 0 3 0 C1.77472971 4.05281712 0.30119506 7.44360764 -2 11 C-2.66 10.67 -3.32 10.34 -4 10 C-3.43768609 6.06380262 -2.38314183 3.20807554 0 0 Z " fill="#000000" transform="translate(823,307)"/>
<path d="M0 0 C0.99 0 1.98 0 3 0 C3.335939 1.4577353 3.66866624 2.91621106 4 4.375 C4.185625 5.18710937 4.37125 5.99921875 4.5625 6.8359375 C5 9 5 9 5 11 C4.01 11 3.02 11 2 11 C1.664061 9.5422647 1.33133376 8.08378894 1 6.625 C0.814375 5.81289063 0.62875 5.00078125 0.4375 4.1640625 C0 2 0 2 0 0 Z " fill="#000000" transform="translate(404,292)"/>
<path d="M0 0 C0.99 0.33 1.98 0.66 3 1 C2.01 4.3 1.02 7.6 0 11 C-0.99 11 -1.98 11 -3 11 C-2.69078116 9.54096742 -2.37751201 8.08279278 -2.0625 6.625 C-1.88847656 5.81289063 -1.71445312 5.00078125 -1.53515625 4.1640625 C-1 2 -1 2 0 0 Z " fill="#000000" transform="translate(333,284)"/>
<path d="M0 0 C0.99 0 1.98 0 3 0 C3.33 3.63 3.66 7.26 4 11 C3.01 11 2.02 11 1 11 C-0.17571451 7.32589215 -0.07366746 3.83070817 0 0 Z " fill="#000000" transform="translate(402,272)"/>
<path d="M0 0 C0.99 0 1.98 0 3 0 C6.07692308 6.4 6.07692308 6.4 5.6875 9.4375 C5.460625 9.953125 5.23375 10.46875 5 11 C2.27042661 8.64264116 1.11106604 6.41866474 0 3 C0 2.01 0 1.02 0 0 Z " fill="#000000" transform="translate(603,268)"/>
<path d="M0 0 C0.99 0.33 1.98 0.66 3 1 C2.01 4.3 1.02 7.6 0 11 C-0.99 11 -1.98 11 -3 11 C-2.69078116 9.54096742 -2.37751201 8.08279278 -2.0625 6.625 C-1.88847656 5.81289062 -1.71445312 5.00078125 -1.53515625 4.1640625 C-1 2 -1 2 0 0 Z " fill="#000000" transform="translate(353,226)"/>
<path d="M0 0 C0.99 0 1.98 0 3 0 C4.17571451 3.67410785 4.07366746 7.16929183 4 11 C3.01 11 2.02 11 1 11 C0.67 7.37 0.34 3.74 0 0 Z " fill="#000000" transform="translate(394,211)"/>
<path d="M0 0 C0.66 0 1.32 0 2 0 C2.66 3.63 3.32 7.26 4 11 C2.68 10.67 1.36 10.34 0 10 C-0.19412181 8.52168779 -0.38012131 7.04230684 -0.5625 5.5625 C-0.66691406 4.73878906 -0.77132812 3.91507813 -0.87890625 3.06640625 C-0.91886719 2.38449219 -0.95882812 1.70257813 -1 1 C-0.67 0.67 -0.34 0.34 0 0 Z " fill="#000000" transform="translate(76,205)"/>
<path d="M0 0 C0.99 0 1.98 0 3 0 C2.71758359 1.46015291 2.42373386 2.91809793 2.125 4.375 C1.96257812 5.18710938 1.80015625 5.99921875 1.6328125 6.8359375 C1 9 1 9 -1 11 C-1.66 10.67 -2.32 10.34 -3 10 C-2.01 6.7 -1.02 3.4 0 0 Z " fill="#000000" transform="translate(366,188)"/>
<path d="M0 0 C0.99 0 1.98 0 3 0 C4.28317892 3.84953676 4.06643637 6.94738135 4 11 C3.01 11 2.02 11 1 11 C0.67 7.37 0.34 3.74 0 0 Z " fill="#000000" transform="translate(389,170)"/>
<path d="M0 0 C0.99 0 1.98 0 3 0 C3 3.63 3 7.26 3 11 C2.01 11 1.02 11 0 11 C0 7.37 0 3.74 0 0 Z " fill="#000000" transform="translate(585,169)"/>
<path d="M0 0 C0.99 0.33 1.98 0.66 3 1 C2.01 4.3 1.02 7.6 0 11 C-0.99 11 -1.98 11 -3 11 C-2.69078116 9.54096742 -2.37751201 8.08279278 -2.0625 6.625 C-1.88847656 5.81289062 -1.71445312 5.00078125 -1.53515625 4.1640625 C-1 2 -1 2 0 0 Z " fill="#000000" transform="translate(373,168)"/>
<path d="M0 0 C0.99 0 1.98 0 3 0 C3.33 3.63 3.66 7.26 4 11 C3.01 11 2.02 11 1 11 C-0.17571451 7.32589215 -0.07366746 3.83070817 0 0 Z " fill="#000000" transform="translate(387,150)"/>
<path d="M0 0 C3.45925163 1.2491742 6.14693203 2.67527795 9 5 C8.67 5.99 8.34 6.98 8 8 C5.03 6.35 2.06 4.7 -1 3 C-0.67 2.01 -0.34 1.02 0 0 Z " fill="#000000" transform="translate(650,102)"/>
<path d="M0 0 C3.63 0.66 7.26 1.32 11 2 C11 2.99 11 3.98 11 5 C9.54119891 4.85892253 8.08296449 4.71197585 6.625 4.5625 C5.40683594 4.44068359 5.40683594 4.44068359 4.1640625 4.31640625 C2 4 2 4 0 3 C0 2.01 0 1.02 0 0 Z " fill="#000000" transform="translate(195,488)"/>
<path d="M0 0 C3.81684226 1.55500981 6.19195732 4.03595495 9 7 C8.01 7.33 7.02 7.66 6 8 C4.17578125 7.00390625 4.17578125 7.00390625 2.3125 5.5625 C1.68988281 5.08941406 1.06726563 4.61632812 0.42578125 4.12890625 C-0.04472656 3.75636719 -0.51523438 3.38382812 -1 3 C-0.67 2.01 -0.34 1.02 0 0 Z " fill="#000000" transform="translate(161,470)"/>
<path d="M0 0 C0.66 0.33 1.32 0.66 2 1 C0.55873214 4.36295835 -1.20592655 6.62927102 -4 9 C-4.99 9 -5.98 9 -7 9 C-7 6 -7 6 -5.46875 4.39453125 C-4.49421875 3.61142578 -4.49421875 3.61142578 -3.5 2.8125 C-2.8503125 2.28269531 -2.200625 1.75289063 -1.53125 1.20703125 C-1.0259375 0.80871094 -0.520625 0.41039062 0 0 Z " fill="#000000" transform="translate(561,464)"/>
<path d="M0 0 C0.66 0.33 1.32 0.66 2 1 C1.42647107 4.87132028 -0.48704352 7.08172796 -3 10 C-3.99 9.67 -4.98 9.34 -6 9 C-4.02 6.03 -2.04 3.06 0 0 Z " fill="#000000" transform="translate(270,455)"/>
<path d="M0 0 C0.66 0 1.32 0 2 0 C6 6.5 6 6.5 6 11 C3 10 3 10 1.83203125 7.93359375 C1.49558594 7.10988281 1.15914063 6.28617187 0.8125 5.4375 C0.46832031 4.61121094 0.12414062 3.78492188 -0.23046875 2.93359375 C-0.48441406 2.29550781 -0.73835938 1.65742188 -1 1 C-0.67 0.67 -0.34 0.34 0 0 Z " fill="#000000" transform="translate(437,452)"/>
<path d="M0 0 C0.99 0 1.98 0 3 0 C2.49287967 3.71888239 1.88391785 6.73454239 0 10 C-0.99 10 -1.98 10 -3 10 C-2.01 6.7 -1.02 3.4 0 0 Z " fill="#000000" transform="translate(286,420)"/>
<path d="M0 0 C1.890625 0.21484375 1.890625 0.21484375 4 1 C5.046875 3.06640625 5.046875 3.06640625 5.75 5.5625 C5.99234375 6.38878906 6.2346875 7.21507812 6.484375 8.06640625 C6.65453125 8.70449219 6.8246875 9.34257812 7 10 C5.109375 9.78515625 5.109375 9.78515625 3 9 C1.953125 6.93359375 1.953125 6.93359375 1.25 4.4375 C1.00765625 3.61121094 0.7653125 2.78492188 0.515625 1.93359375 C0.34546875 1.29550781 0.1753125 0.65742188 0 0 Z " fill="#000000" transform="translate(129,420)"/>
<path d="M0 0 C0.99 0.33 1.98 0.66 3 1 C2.01 4.3 1.02 7.6 0 11 C-0.99 11 -1.98 11 -3 11 C-2.69078116 9.54096742 -2.37751201 8.08279278 -2.0625 6.625 C-1.88847656 5.81289063 -1.71445312 5.00078125 -1.53515625 4.1640625 C-1 2 -1 2 0 0 Z " fill="#000000" transform="translate(293,400)"/>
<path d="M0 0 C0.66 0 1.32 0 2 0 C1.53199289 4.05606165 1.12046792 7.46588679 -1 11 C-1.99 10.67 -2.98 10.34 -4 10 C-2.68 6.7 -1.36 3.4 0 0 Z " fill="#000000" transform="translate(300,381)"/>
<path d="M0 0 C0.99 0.66 1.98 1.32 3 2 C1.68 4.97 0.36 7.94 -1 11 C-1.99 11 -2.98 11 -4 11 C-3.39301257 6.87248551 -1.96189209 3.6678852 0 0 Z " fill="#000000" transform="translate(626,360)"/>
<path d="M0 0 C3.59391114 1.33488128 6.75490696 2.96022723 10 5 C9.67 5.66 9.34 6.32 9 7 C5.00544473 6.38545304 2.25533664 4.29353263 -1 2 C-0.67 1.34 -0.34 0.68 0 0 Z " fill="#000000" transform="translate(682,359)"/>
<path d="M0 0 C0.99 0.33 1.98 0.66 3 1 C2.01 4.3 1.02 7.6 0 11 C-0.99 11 -1.98 11 -3 11 C-2.69078116 9.54096742 -2.37751201 8.08279278 -2.0625 6.625 C-1.88847656 5.81289063 -1.71445312 5.00078125 -1.53515625 4.1640625 C-1 2 -1 2 0 0 Z " fill="#000000" transform="translate(313,342)"/>
<path d="M0 0 C0.99 0 1.98 0 3 0 C4.28317892 3.84953676 4.06643637 6.94738135 4 11 C3.01 10.67 2.02 10.34 1 10 C0.67 6.7 0.34 3.4 0 0 Z " fill="#000000" transform="translate(410,333)"/>
<path d="M0 0 C0.99 0 1.98 0 3 0 C2.44894091 3.9492568 1.61064629 7.34920174 0 11 C-0.99 10.67 -1.98 10.34 -3 10 C-2.01 6.7 -1.02 3.4 0 0 Z " fill="#000000" transform="translate(649,305)"/>
<path d="M0 0 C0.99 0 1.98 0 3 0 C3.66 3.3 4.32 6.6 5 10 C4.01 10.33 3.02 10.66 2 11 C1.34 7.37 0.68 3.74 0 0 Z " fill="#000000" transform="translate(96,304)"/>
<path d="M0 0 C3.78717347 1.48781815 5.77407001 3.61988409 8 7 C7.67 7.99 7.34 8.98 7 10 C4.09197539 7.78071806 2.04687238 6.07030857 0 3 C0 2.01 0 1.02 0 0 Z " fill="#000000" transform="translate(623,303)"/>
<path d="M0 0 C0.99 0 1.98 0 3 0 C2.01 3.3 1.02 6.6 0 10 C-0.99 10 -1.98 10 -3 10 C-2.69201674 8.51988629 -2.378482 7.04092675 -2.0625 5.5625 C-1.88847656 4.73878906 -1.71445312 3.91507812 -1.53515625 3.06640625 C-1 1 -1 1 0 0 Z " fill="#000000" transform="translate(657,286)"/>
<path d="M0 0 C0.66 0 1.32 0 2 0 C3.42258812 3.82320557 4.24042276 6.91281305 4 11 C3.01 11 2.02 11 1 11 C0.63890458 9.35567294 0.28629924 7.7094792 -0.0625 6.0625 C-0.25972656 5.14597656 -0.45695312 4.22945313 -0.66015625 3.28515625 C-0.77230469 2.53105469 -0.88445312 1.77695312 -1 1 C-0.67 0.67 -0.34 0.34 0 0 Z " fill="#000000" transform="translate(92,284)"/>
<path d="M0 0 C0.99 0 1.98 0 3 0 C2.01 3.3 1.02 6.6 0 10 C-0.99 10 -1.98 10 -3 10 C-2.69201674 8.51988629 -2.378482 7.04092675 -2.0625 5.5625 C-1.88847656 4.73878906 -1.71445312 3.91507812 -1.53515625 3.06640625 C-1 1 -1 1 0 0 Z " fill="#000000" transform="translate(664,267)"/>
<path d="M0 0 C0.99 0 1.98 0 3 0 C3.66 3.3 4.32 6.6 5 10 C4.01 10.33 3.02 10.66 2 11 C0.80712589 7.12315913 0 4.08378077 0 0 Z " fill="#000000" transform="translate(87,265)"/>
<path d="M0 0 C0.66 0 1.32 0 2 0 C2.33 3.63 2.66 7.26 3 11 C2.01 11 1.02 11 0 11 C-0.19406478 9.35492782 -0.38007935 7.70890406 -0.5625 6.0625 C-0.66691406 5.14597656 -0.77132813 4.22945312 -0.87890625 3.28515625 C-0.91886719 2.53105469 -0.95882813 1.77695313 -1 1 C-0.67 0.67 -0.34 0.34 0 0 Z " fill="#000000" transform="translate(400,251)"/>
<path d="M0 0 C0.99 0 1.98 0 3 0 C3.33 3.63 3.66 7.26 4 11 C3.01 10.67 2.02 10.34 1 10 C0.67 6.7 0.34 3.4 0 0 Z " fill="#000000" transform="translate(83,245)"/>
<path d="M0 0 C0.99 0 1.98 0 3 0 C3.33 3.63 3.66 7.26 4 11 C3.01 11 2.02 11 1 11 C-0.28317892 7.15046324 -0.06643637 4.05261865 0 0 Z " fill="#000000" transform="translate(397,231)"/>
<path d="M0 0 C0.66 0.33 1.32 0.66 2 1 C1.34 4.3 0.68 7.6 0 11 C-0.99 11 -1.98 11 -3 11 C-2.53199289 6.94393835 -2.12046792 3.53411321 0 0 Z " fill="#000000" transform="translate(677,228)"/>
<path d="M0 0 C0.66 0 1.32 0 2 0 C2.66 3.63 3.32 7.26 4 11 C3.01 11 2.02 11 1 11 C0.63890458 9.35567294 0.28629924 7.7094792 -0.0625 6.0625 C-0.25972656 5.14597656 -0.45695313 4.22945312 -0.66015625 3.28515625 C-0.77230469 2.53105469 -0.88445313 1.77695313 -1 1 C-0.67 0.67 -0.34 0.34 0 0 Z " fill="#000000" transform="translate(592,229)"/>
<path d="M0 0 C0.99 0 1.98 0 3 0 C2.67 3.63 2.34 7.26 2 11 C1.01 11 0.02 11 -1 11 C-0.67 7.37 -0.34 3.74 0 0 Z " fill="#000000" transform="translate(685,189)"/>
<path d="M0 0 C0.99 0 1.98 0 3 0 C3.33 3.3 3.66 6.6 4 10 C3.01 10.33 2.02 10.66 1 11 C0.67 7.37 0.34 3.74 0 0 Z " fill="#000000" transform="translate(72,186)"/>
<path d="M0 0 C0.99 0.33 1.98 0.66 3 1 C2.67 4.3 2.34 7.6 2 11 C1.01 11 0.02 11 -1 11 C-1.14285714 3.57142857 -1.14285714 3.57142857 0 0 Z " fill="#000000" transform="translate(587,149)"/>
<path d="M0 0 C0.99 0.33 1.98 0.66 3 1 C3.94921875 3.06640625 3.94921875 3.06640625 4.6875 5.5625 C4.93886719 6.38878906 5.19023438 7.21507812 5.44921875 8.06640625 C5.63097656 8.70449219 5.81273437 9.34257812 6 10 C4.109375 9.75390625 4.109375 9.75390625 2 9 C0.953125 7.15234375 0.953125 7.15234375 0.25 4.9375 C0.00765625 4.20402344 -0.2346875 3.47054687 -0.484375 2.71484375 C-0.65453125 2.14894531 -0.8246875 1.58304688 -1 1 C-0.67 0.67 -0.34 0.34 0 0 Z " fill="#000000" transform="translate(674,132)"/>
<path d="M0 0 C0.99 0.33 1.98 0.66 3 1 C0.03 4.96 0.03 4.96 -3 9 C-3.99 8.67 -4.98 8.34 -6 8 C-4.26440562 4.942048 -2.61527381 2.36620011 0 0 Z " fill="#000000" transform="translate(605,115)"/>
<path d="M0 0 C0 0.66 0 1.32 0 2 C-6.625 6 -6.625 6 -10 6 C-8.20404732 1.26521567 -5.07984355 -1.69328118 0 0 Z " fill="#000000" transform="translate(623,104)"/>
<path d="M0 0 C0.66 0.99 1.32 1.98 2 3 C-0.40545638 4.20272819 -1.94996953 4.10071472 -4.625 4.0625 C-5.85089844 4.04896484 -5.85089844 4.04896484 -7.1015625 4.03515625 C-8.04128906 4.01775391 -8.04128906 4.01775391 -9 4 C-9 3.01 -9 2.02 -9 1 C-4.545 0.505 -4.545 0.505 0 0 Z " fill="#000000" transform="translate(224,489)"/>
<path d="M0 0 C0.99 0.33 1.98 0.66 3 1 C2.07347299 2.17539996 1.13336613 3.34010577 0.1875 4.5 C-0.33457031 5.1496875 -0.85664063 5.799375 -1.39453125 6.46875 C-3 8 -3 8 -6 8 C-6 7.01 -6 6.02 -6 5 C-3.1875 2.25 -3.1875 2.25 0 0 Z " fill="#000000" transform="translate(257,471)"/>
<path d="M0 0 C0.66 0 1.32 0 2 0 C1.53199289 4.05606165 1.12046792 7.46588679 -1 11 C-1.66 11 -2.32 11 -3 11 C-2.53199289 6.94393835 -2.12046792 3.53411321 0 0 Z " fill="#000000" transform="translate(320,323)"/>
<path d="M0 0 C0.66 0 1.32 0 2 0 C1.53199289 4.05606165 1.12046792 7.46588679 -1 11 C-1.66 11 -2.32 11 -3 11 C-2.53199289 6.94393835 -2.12046792 3.53411321 0 0 Z " fill="#000000" transform="translate(340,265)"/>
<path d="M0 0 C0.99 0 1.98 0 3 0 C2.71758359 1.46015291 2.42373386 2.91809793 2.125 4.375 C1.96257813 5.18710938 1.80015625 5.99921875 1.6328125 6.8359375 C1 9 1 9 -1 11 C-1.66 10.34 -2.32 9.68 -3 9 C-2.01 6.03 -1.02 3.06 0 0 Z " fill="#000000" transform="translate(670,248)"/>
<path d="M0 0 C0.99 0.33 1.98 0.66 3 1 C3.33 3.97 3.66 6.94 4 10 C3.01 10.33 2.02 10.66 1 11 C-0.17571451 7.32589215 -0.07366746 3.83070817 0 0 Z " fill="#000000" transform="translate(588,210)"/>
<path d="M0 0 C0.66 0 1.32 0 2 0 C1.85892253 1.45880109 1.71197585 2.91703551 1.5625 4.375 C1.48128906 5.18710938 1.40007813 5.99921875 1.31640625 6.8359375 C1 9 1 9 0 11 C-0.99 10.67 -1.98 10.34 -3 10 C-2.69201674 8.51988629 -2.378482 7.04092675 -2.0625 5.5625 C-1.88847656 4.73878906 -1.71445312 3.91507813 -1.53515625 3.06640625 C-1 1 -1 1 0 0 Z " fill="#000000" transform="translate(682,209)"/>
<path d="M0 0 C0.66 0 1.32 0 2 0 C1.53199289 4.05606165 1.12046792 7.46588679 -1 11 C-1.66 11 -2.32 11 -3 11 C-2.53199289 6.94393835 -2.12046792 3.53411321 0 0 Z " fill="#000000" transform="translate(360,207)"/>
<path d="M0 0 C0.99 0 1.98 0 3 0 C3 3.3 3 6.6 3 10 C2.01 10 1.02 10 0 10 C0 6.7 0 3.4 0 0 Z " fill="#000000" transform="translate(586,190)"/>
<path d="M0 0 C2.56616632 3.84924948 2.55097676 6.4349304 3 11 C2.01 11 1.02 11 0 11 C-0.66 7.7 -1.32 4.4 -2 1 C-1.34 0.67 -0.68 0.34 0 0 Z " fill="#000000" transform="translate(682,150)"/>
<path d="M0 0 C0.66 0 1.32 0 2 0 C1.53199289 4.05606165 1.12046792 7.46588679 -1 11 C-1.66 11 -2.32 11 -3 11 C-2.53199289 6.94393835 -2.12046792 3.53411321 0 0 Z " fill="#000000" transform="translate(380,149)"/>
<path d="M0 0 C3.80881639 1.44472346 5.29742886 3.32603071 7 7 C6.67 7.99 6.34 8.98 6 10 C2.46413986 6.82679218 0.41421969 4.83256305 0 0 Z " fill="#000000" transform="translate(664,115)"/>
<path d="M0 0 C1.17539996 0.92652701 2.34010577 1.86663387 3.5 2.8125 C4.1496875 3.33457031 4.799375 3.85664063 5.46875 4.39453125 C7 6 7 6 7 9 C3.63408134 7.55746343 1.48952921 5.66735273 -1 3 C-0.67 2.01 -0.34 1.02 0 0 Z " fill="#000000" transform="translate(651,333)"/>
<path d="M0 0 C0.66 0.33 1.32 0.66 2 1 C1.01 3.97 0.02 6.94 -1 10 C-1.99 10 -2.98 10 -4 10 C-3.5205537 5.78087253 -2.83374881 3.20336822 0 0 Z " fill="#000000" transform="translate(593,130)"/>
<path d="M0 0 C0.99 0.33 1.98 0.66 3 1 C1.68 3.97 0.36 6.94 -1 10 C-1.99 10 -2.98 10 -4 10 C-2.8905928 6.51329166 -1.73662334 3.22515763 0 0 Z " fill="#000000" transform="translate(617,379)"/>
<path d="M0 0 C0.99 0 1.98 0 3 0 C3.33 3.3 3.66 6.6 4 10 C3.01 10 2.02 10 1 10 C0.67 6.7 0.34 3.4 0 0 Z " fill="#000000" transform="translate(684,170)"/>
<path d="M0 0 C3.3 0 6.6 0 10 0 C10 0.99 10 1.98 10 3 C6.7 3 3.4 3 0 3 C0 2.01 0 1.02 0 0 Z " fill="#000000" transform="translate(631,99)"/>
<path d="M0 0 C0.99 0.33 1.98 0.66 3 1 C3 2.65 3 4.3 3 6 C2.01 6.33 1.02 6.66 0 7 C-0.66 6.67 -1.32 6.34 -2 6 C-1.34 4.02 -0.68 2.04 0 0 Z " fill="#000000" transform="translate(385,134)"/>
<path d="M0 0 C0.66 0.33 1.32 0.66 2 1 C1.67 3.64 1.34 6.28 1 9 C0.01 8.67 -0.98 8.34 -2 8 C-1.125 1.125 -1.125 1.125 0 0 Z " fill="#000000" transform="translate(846,245)"/>
<path d="M0 0 C0.99 0.33 1.98 0.66 3 1 C2.67 1.99 2.34 2.98 2 4 C1.01 3.01 0.02 2.02 -1 1 C-0.67 0.67 -0.34 0.34 0 0 Z " fill="#000000" transform="translate(137,595)"/>
<path d="M0 0 C0.99 0.33 1.98 0.66 3 1 C2.67 1.99 2.34 2.98 2 4 C1.01 3.01 0.02 2.02 -1 1 C-0.67 0.67 -0.34 0.34 0 0 Z " fill="#000000" transform="translate(522,347)"/>
<path d="M0 0 C0.99 0.33 1.98 0.66 3 1 C2.67 1.99 2.34 2.98 2 4 C1.01 3.01 0.02 2.02 -1 1 C-0.67 0.67 -0.34 0.34 0 0 Z " fill="#000000" transform="translate(741,299)"/>
<path d="M0 0 C0.99 0.33 1.98 0.66 3 1 C2.67 1.99 2.34 2.98 2 4 C1.01 3.01 0.02 2.02 -1 1 C-0.67 0.67 -0.34 0.34 0 0 Z " fill="#000000" transform="translate(631,16)"/>
</svg>
