<?xml version="1.0" encoding="UTF-8"?>
<svg version="1.1" xmlns="http://www.w3.org/2000/svg" width="587" height="584">
<path d="M0 0 C4.2125514 3.8289215 8.76123401 8.45688283 9.16110325 14.39065742 C9.09810236 15.72229833 9.09810236 15.72229833 9.03382874 17.08084106 C8.9907405 18.09420469 8.94765226 19.10756832 8.90325832 20.15163994 C8.81591474 21.79771831 8.81591474 21.79771831 8.72680664 23.47705078 C8.67361047 24.63066668 8.6204143 25.78428257 8.56560612 26.97285652 C8.3909903 30.64942381 8.19834144 34.32464079 8 38 C7.93899487 39.14646751 7.87798973 40.29293503 7.81513596 41.47414398 C7.43485044 48.51956539 7.02282944 55.56285158 6.59789848 62.60570908 C6.36405641 66.48389931 6.1338823 70.36229341 5.90455627 74.24075317 C5.3360256 83.84877639 4.76206307 93.4564739 4.18664551 103.06408691 C3.6966446 111.2465472 3.20949718 119.42916668 2.72633553 127.61203384 C2.50085147 131.41200797 2.27128889 135.21172152 2.04161072 139.01144409 C1.90309112 141.35250577 1.76477952 143.69357976 1.62670898 146.03466797 C1.56282486 147.07276611 1.49894073 148.11086426 1.43312073 149.18041992 C1.02940273 156.12727088 0.93045483 163.0421054 1 170 C1.32162109 168.84814209 1.64324219 167.69628418 1.97460938 166.50952148 C15.48343659 118.22999619 30.55364655 69.49925091 67 33 C68.25490234 31.72769531 68.25490234 31.72769531 69.53515625 30.4296875 C77.20921255 23.04499984 85.86403844 17.41015709 95 12 C95.66161133 11.60474121 96.32322266 11.20948242 97.00488281 10.80224609 C123.37647058 -4.61325426 159.96064476 -4.08204684 189 3 C217.04802358 10.65210602 242.29697728 28.22977105 257.12890625 53.56640625 C268.88220562 75.1345694 274.18567183 96.57361272 276.1875 120.9375 C276.27161133 121.948125 276.35572266 122.95875 276.44238281 124 C277.86868375 143.53600069 276.76063283 163.20315316 276.08203125 182.75 C276.03258578 184.18474224 275.98316995 185.6194855 275.93378258 187.05422974 C275.6997654 193.8380723 275.46237403 200.6217869 275.22094709 207.40536976 C274.97604151 214.28998876 274.73843341 221.17475905 274.51342773 228.06005859 C273.39763462 262.12347024 271.88115428 296.04130358 268.67915344 329.9810791 C264.07746503 365.20233021 264.07746503 365.20233021 271.6875 398.875 C273.95024347 401.34267253 273.95024347 401.34267253 277.75 401.625 C284.88000651 401.02973044 290.42662753 397.35939047 295.21875 392.21875 C308.71814059 375.40371962 314.34020831 354.52184308 320.08374023 334.1574707 C322.94721359 324.09920352 326.27776098 314.27326293 329.91918945 304.47094727 C330.80960353 302.07030915 331.68753302 299.66536087 332.56445312 297.25976562 C347.95282502 255.38767942 347.95282502 255.38767942 363.625 247.71484375 C373.25929604 243.71489049 385.18681422 241.78917781 395.375 245 C405.80393065 249.94358401 412.88197356 260.29042894 416.69921875 270.953125 C425.44476217 330.46825167 392.1279771 416.40331778 358 465 C357.21058026 466.15209905 356.42153469 467.30445455 355.6328125 468.45703125 C348.25173698 479.13421377 340.11119374 488.77394408 330 497 C329.51047852 497.4125 329.02095703 497.825 328.51660156 498.25 C313.10168668 511.22322185 296.75056954 519.70164124 276 518 C247.16941643 514.38865342 220.68003031 501.21704455 200 481 C199.32195312 480.37222656 198.64390625 479.74445313 197.9453125 479.09765625 C170.0197899 452.72355157 169.18548964 409.68209052 168 374 C167.66622066 360.36176014 167.7085155 346.71577625 167.73925781 333.07446289 C167.75072022 327.93828083 167.7438199 322.8023044 167.7323904 317.66612911 C167.6829318 291.60890648 168.2955098 266.06593943 172.11709595 240.24719238 C180.21386144 187.0503073 180.21386144 187.0503073 175 134 C174.7215625 132.7625 174.443125 131.525 174.15625 130.25 C172.62920787 124.352458 171.15085802 119.65984215 166.015625 116.078125 C156.33241771 110.89873506 144.30379534 110.3283567 133.671875 112.76171875 C120.12965465 117.44229491 112.43687558 127.00016143 106.1875 139.5 C105.67743408 140.50281006 105.16736816 141.50562012 104.6418457 142.53881836 C98.97097353 153.8305952 93.84099974 165.33093072 89 177 C88.720495 177.67224609 88.44098999 178.34449219 88.15301514 179.03710938 C77.81366971 203.96062159 68.89669259 229.20220545 61 255 C60.76367859 255.76826111 60.52735718 256.53652222 60.28387451 257.32806396 C58.90924018 261.80365928 57.55934257 266.2856826 56.24111938 270.77822876 C55.67010232 272.72150825 55.08972213 274.66202981 54.50854492 276.60229492 C46.89565135 303.22449715 42.54853951 330.93513228 37.8125 358.1875 C37.6826836 358.93228481 37.5528672 359.67706963 37.41911697 360.44442368 C32.80058468 386.96753711 29.17630718 413.32700826 27.47062683 440.20664978 C27.29086929 443.02247868 27.10398391 445.83776848 26.91625977 448.65307617 C26.67939169 452.2108952 26.47775254 455.76810088 26.30053711 459.3293457 C26.20253286 460.93055496 26.10370042 462.53171381 26.00390625 464.1328125 C25.97684601 464.85789505 25.94978577 465.5829776 25.92190552 466.33003235 C25.65734396 470.13844281 25.09291701 471.88764103 22.63256836 474.86279297 C9.5256755 485.5034069 -8.5911377 488.26527482 -25 489 C-26.40958984 489.07927734 -26.40958984 489.07927734 -27.84765625 489.16015625 C-44.34390435 489.67080727 -59.7537108 485.63014851 -72.375 474.625 C-73.93567393 473.10257788 -75.47841331 471.56148844 -77 470 C-77.69609375 469.33613281 -78.3921875 468.67226563 -79.109375 467.98828125 C-83.41242257 463.61018052 -86.43859811 458.84783705 -89.25 453.4375 C-89.56727051 452.84380615 -89.88454102 452.2501123 -90.21142578 451.63842773 C-96.51557592 438.79989181 -97.93543662 423.95989721 -99.5 409.9375 C-99.60261139 409.04449188 -99.70522278 408.15148376 -99.8109436 407.23141479 C-101.47961763 392.69517243 -102.90495975 378.1375427 -104.1875 363.5625 C-104.26613281 362.69495087 -104.34476562 361.82740173 -104.42578125 360.93356323 C-107.61548374 325.33028312 -108.33972938 289.5106449 -109.06445312 253.78955078 C-109.14525987 249.8997488 -109.23339525 246.01012585 -109.32128811 242.12047863 C-110.16956491 204.34903438 -110.38719089 166.6689429 -108.88305664 128.91235352 C-108.7503943 125.57990823 -108.62552686 122.247322 -108.50805664 118.91430664 C-107.90224962 101.72900886 -107.14256456 84.58640892 -105.546875 67.4609375 C-105.37287422 65.57634071 -105.37287422 65.57634071 -105.19535828 63.65367126 C-100.5959642 17.39314134 -100.5959642 17.39314134 -86.58984375 4.83984375 C-64.11032461 -12.46453429 -24.17084013 -16.00646746 0 0 Z M-85.75390625 12.7734375 C-90.50475195 18.41729931 -92.33842373 24.92756162 -94 32 C-94.16741699 32.71220703 -94.33483398 33.42441406 -94.50732422 34.15820312 C-100.73599444 61.64623133 -101.60230913 90.09499147 -102.59769058 118.16034317 C-102.68934439 120.73939939 -102.78350276 123.31835565 -102.87802124 125.89730835 C-103.92263626 154.61311315 -104.50465959 183.2649235 -104 212 C-103.98658821 212.77750107 -103.97317642 213.55500214 -103.95935822 214.35606384 C-103.72950728 227.65468075 -103.4693338 240.95257118 -103.18722153 254.25017929 C-103.14627335 256.18323897 -103.10567796 258.11630616 -103.06546402 260.04938126 C-102.30352253 296.62450306 -101.0337294 333.12637789 -97.625 369.5625 C-97.46259323 371.33451782 -97.46259323 371.33451782 -97.29690552 373.14233398 C-94.75804034 427.2083205 -94.75804034 427.2083205 -67.25 471.3125 C-50.64550175 483.84953976 -32.28211113 484.46199976 -12.4375 481.8125 C-1.65991709 480.24224329 10.9754313 478.0245687 19 470 C19.22039907 468.28007486 19.37742117 466.55198518 19.5090332 464.82299805 C19.59615067 463.71220383 19.68326813 462.60140961 19.77302551 461.45695496 C19.9105146 459.62781303 19.9105146 459.62781303 20.05078125 457.76171875 C20.25692855 455.15818467 20.46331756 452.55466973 20.66992188 449.95117188 C20.99000373 445.86516109 21.30595278 441.77885125 21.61694336 437.69213867 C24.61861906 398.53974173 31.50690267 360.02371488 38.39318848 321.40527344 C38.7630994 319.32942652 39.13156012 317.25331963 39.49743652 315.17675781 C47.14575969 271.77118295 61.48933139 228.39222357 78.25 187.6875 C78.56471252 186.91781891 78.87942505 186.14813782 79.20367432 185.35513306 C106.76289297 117.9849961 106.76289297 117.9849961 126 109 C138.04316768 104.00094926 152.20018857 104.52665543 164.32421875 108.875 C171.17638269 111.7559098 175.03451013 115.24028066 178 122 C179.67636346 127.27271412 180.90852591 132.57931776 182 138 C182.22816406 139.09441406 182.45632813 140.18882812 182.69140625 141.31640625 C188.53544809 175.93111563 181.81212117 213.74559958 177.06982422 248.10351562 C175.65553502 258.40620222 174.46872743 268.60356728 174 279 C173.94553711 280.18432617 173.89107422 281.36865234 173.83496094 282.58886719 C172.59784627 312.38337724 172.72159175 342.07986411 173.875 371.875 C173.91420563 372.92210144 173.95341125 373.96920288 173.99380493 375.04803467 C174.40645968 385.84111466 174.95483705 396.60334475 175.95703125 407.359375 C176.0706752 408.59202591 176.0706752 408.59202591 176.18661499 409.84957886 C179.07316281 438.80335663 188.65754235 464.86946141 211.4609375 484.046875 C233.48073626 500.98518174 260.7098794 513.60361111 289 512 C303.18056514 510.06547985 314.53334505 502.33747226 325 493 C325.53157715 492.52868652 326.0631543 492.05737305 326.61083984 491.57177734 C339.29599278 480.27849315 348.85058611 468.29419246 358 454 C358.60545654 453.06824951 358.60545654 453.06824951 359.22314453 452.11767578 C388.86196733 406.28882299 418.02097997 328.45597102 411 273 C408.7045972 264.33956722 401.71548089 255.92281873 394.1640625 251.2421875 C385.71885967 247.92666342 375.63787065 249.2591899 367.4296875 252.7421875 C356.45779726 258.42216926 350.93750199 267.02167134 346.4375 278.25 C345.81403687 279.7812854 345.81403687 279.7812854 345.17797852 281.34350586 C336.56480861 302.80471989 328.7761828 324.52144775 322.50756836 346.78323364 C316.77796495 367.12544449 309.05954028 391.96804048 290.17578125 403.84375 C283.5674563 407.35553489 277.89982302 408.17730506 270.6875 406 C264.19573109 401.16891616 262.72356988 392.9161985 261.58642578 385.26757812 C260.78327617 379.05096183 260.7682415 372.85428592 260.77734375 366.59375 C260.77897018 365.31869095 260.78059662 364.0436319 260.78227234 362.72993469 C260.8735536 350.9931058 261.81150007 339.41914276 262.96566772 327.7467041 C265.46368298 302.1119902 266.79755918 276.48590421 267.6875 250.75 C267.71693947 249.89913315 267.74637894 249.0482663 267.77671051 248.1716156 C268.06679172 239.74009836 268.34451878 231.30820892 268.61349297 222.87599373 C268.918109 213.33653575 269.259339 203.79902023 269.625 194.26171875 C269.72181658 191.70800992 269.81857934 189.15429904 269.9152832 186.60058594 C270.04809362 183.0968287 270.18144799 179.59310199 270.31771851 176.08947754 C271.50316476 147.83901397 271.50316476 147.83901397 270.1875 119.625 C270.05275269 118.13915405 270.05275269 118.13915405 269.9152832 116.62329102 C268.56060897 102.53992 266.17865601 89.25241494 261 76 C260.58041016 74.92250488 260.58041016 74.92250488 260.15234375 73.82324219 C249.1927231 46.26999676 229.20407305 25.36592752 201.890625 13.56640625 C175.46371197 2.69297155 139.20324204 0.35735225 112 10 C98.84861403 15.49451436 86.82715327 23.81724373 76 33 C74.89785156 33.88365234 74.89785156 33.88365234 73.7734375 34.78515625 C56.67288539 49.01547435 45.20819537 70.58902327 35 90 C34.59426758 90.75603516 34.18853516 91.51207031 33.77050781 92.29101562 C15.92456141 125.88838022 7.01680314 165.85540895 -0.0625 203 C-0.20892944 203.76091949 -0.35535889 204.52183899 -0.50622559 205.30581665 C-2.32739782 214.87453086 -3.54347367 224.25562394 -4 234 C-5.98 234 -7.96 234 -10 234 C-9.95170831 233.44408865 -9.90341661 232.8881773 -9.85366154 232.31542015 C-8.16575668 212.63898064 -6.97103658 192.94123386 -5.81085277 173.22828722 C-5.59572983 169.5785647 -5.3789371 165.92894207 -5.16216379 162.27931726 C-4.64966387 153.65053978 -4.13974228 145.02161276 -3.6315918 136.39257812 C-3.11235252 127.57588534 -2.58907691 118.75943886 -2.06374353 109.94310725 C-1.60798347 102.29226817 -1.15460361 94.64129051 -0.70307738 86.9902004 C-0.43549963 82.45628774 -0.16715103 77.92242478 0.10344124 73.38869095 C0.63709524 64.43430565 1.15701186 55.47955392 1.63745135 46.52213943 C1.83032441 42.95680224 2.03508527 39.39310204 2.27164841 35.83037567 C2.52047733 32.06022721 2.7388053 28.28945122 2.95092773 24.51708984 C3.03209115 23.43620905 3.11325457 22.35532825 3.19687748 21.2416935 C3.44040121 16.36645735 3.48547407 12.99496346 0.64173889 8.89834595 C-6.89951803 0.62456405 -16.83325629 -2.51867639 -27.78369141 -3.1640625 C-48.86005957 -3.96608063 -70.10274158 -3.05201631 -85.75390625 12.7734375 Z M-1 175 C0 178 0 178 0 178 Z " fill="#000000" transform="translate(170,9)"/>
<path d="M0 0 C6.517904 4.68956663 12.55343845 10.81246164 14 19 C14.7992898 30.25557271 13.99078008 38.31915226 6.75 47.25 C1.33164802 53.0878373 -4.3711544 56.67129269 -12.35546875 57.23828125 C-23.57071698 57.45549809 -30.8402179 55.69919895 -39.20703125 47.93359375 C-46.38318634 40.19460297 -47.48473506 33.10670258 -47.2734375 22.765625 C-46.64352117 14.09077723 -42.28194806 7.82507911 -36 2 C-25.82502277 -5.66451556 -10.93235165 -7.28107507 0 0 Z " fill="#000000" transform="translate(135,44)"/>
<path d="M0 0 C0.99 0 1.98 0 3 0 C4.54296875 2.2734375 4.54296875 2.2734375 6.1875 5.375 C9.58858942 11.46682473 13.49634981 16.69179629 18 22 C18.51433594 22.63679688 19.02867187 23.27359375 19.55859375 23.9296875 C37.79311805 46.16691226 66.82142956 59.20558003 95 62 C129.26887585 64.58760389 166.21111805 51.8492014 194 32 C194 31.67 194 31.34 194 31 C191.36 30.34 188.72 29.68 186 29 C186.33 28.01 186.66 27.02 187 26 C192.63281599 25.7603057 197.54538831 26.61470179 203 28 C202.85848172 30.0836309 202.71162064 32.16689938 202.5625 34.25 C202.44068359 35.99023438 202.44068359 35.99023438 202.31640625 37.765625 C202.06752213 40.30977376 201.71885058 42.55953248 201 45 C199.68 45 198.36 45 197 45 C197 42.03 197 39.06 197 36 C195.52466797 36.90878906 195.52466797 36.90878906 194.01953125 37.8359375 C171.65503029 51.41829411 148.08666294 62.28606735 122 66 C121.11570312 66.13019531 120.23140625 66.26039063 119.3203125 66.39453125 C89.16678181 70.10193256 59.62741798 62.04423078 35.1015625 44.42578125 C29.76841602 40.25464275 24.87332236 35.69282894 20 31 C19.36707031 30.43023437 18.73414063 29.86046875 18.08203125 29.2734375 C13.92266518 25.42034304 10.61143203 20.98083544 7.25 16.4375 C6.77747803 15.79973633 6.30495605 15.16197266 5.81811523 14.50488281 C3.15686365 10.83215571 0.72132991 7.22453151 -1 3 C-0.67 2.01 -0.34 1.02 0 0 Z " fill="#000000" transform="translate(338,481)"/>
<path d="M0 0 C6.27015849 2.99877145 8.65800617 10.29655779 10.91015625 16.51171875 C15.5598096 32.51680693 15.21411639 50.43440079 16 67 C17.65 65.35 19.3 63.7 21 62 C22.485 62.495 22.485 62.495 24 63 C23.46968389 66.98186504 21.62243552 68.68498817 18.6875 71.3125 C17.90761719 72.03050781 17.12773437 72.74851562 16.32421875 73.48828125 C14 75 14 75 12.00390625 75.015625 C9.21762101 73.60347264 7.40570299 71.68830753 5.25 69.4375 C4.05117188 68.19806641 4.05117188 68.19806641 2.828125 66.93359375 C2.22484375 66.29550781 1.6215625 65.65742188 1 65 C1.495 63.515 1.495 63.515 2 62 C5.82426669 62.54632381 7.39231585 64.26083597 10 67 C11.72001733 34.6941409 11.72001733 34.6941409 0 6 C-3.6954659 3.78272046 -5.40330139 3.88683302 -9.625 4.6875 C-31.88990225 14.48405699 -46.63338151 46.68142776 -57 67 C-58.32 66.34 -59.64 65.68 -61 65 C-52.21329168 47.64041919 -42.91275443 30.66693993 -30 16 C-29.35804688 15.20335937 -28.71609375 14.40671875 -28.0546875 13.5859375 C-20.70648705 4.69074748 -12.10338332 -2.40873254 0 0 Z " fill="#000000" transform="translate(317,150)"/>
<path d="M0 0 C0.99 0.33 1.98 0.66 3 1 C2.89042969 2.17304687 2.78085937 3.34609375 2.66796875 4.5546875 C-0.13754594 35.30965156 -2.46806891 66.11445161 -3 97 C-3.01659668 97.89541504 -3.03319336 98.79083008 -3.05029297 99.71337891 C-3.13754068 105.14535651 -3.10892462 110.56857439 -3 116 C-2.98211426 116.96164063 -2.96422852 117.92328125 -2.94580078 118.9140625 C-2.29666045 149.46630218 -0.29208706 180.49768132 9.046875 209.76171875 C10 213 10 213 10 216 C10.66 216 11.32 216 12 216 C12.33 214.35 12.66 212.7 13 211 C13.99 211.33 14.98 211.66 16 212 C15.01 214.97 14.02 217.94 13 221 C8.06729471 222.6442351 5.45975807 221.18615592 1 219 C1.33 218.01 1.66 217.02 2 216 C3.65 216.33 5.3 216.66 7 217 C6.61328125 215.73929688 6.2265625 214.47859375 5.828125 213.1796875 C-4.50559828 178.78604977 -6.57199508 143.7627794 -6.38631821 108.06519699 C-6.37479862 105.6451954 -6.36874097 103.22522992 -6.36392212 100.8052063 C-6.30438178 75.45258898 -5.6396223 50.23337434 -3 25 C-2.92785278 24.30773315 -2.85570557 23.61546631 -2.78137207 22.90222168 C-1.97489449 15.25085037 -1.06065476 7.62016503 0 0 Z " fill="#000000" transform="translate(39,121)"/>
<path d="M0 0 C3.0625 0.1875 3.0625 0.1875 5.0625 2.1875 C4.90004442 5.92397845 4.47466356 7.71288742 2 10.5625 C1.360625 11.09875 0.72125 11.635 0.0625 12.1875 C1.7125 12.5175 3.3625 12.8475 5.0625 13.1875 C5.0625 13.8475 5.0625 14.5075 5.0625 15.1875 C1.7625 15.1875 -1.5375 15.1875 -4.9375 15.1875 C-2.9375 11.1875 -2.9375 11.1875 -0.8125 8.625 C1.36735538 6.30372611 1.36735538 6.30372611 1.0625 3.1875 C0.4025 3.1875 -0.2575 3.1875 -0.9375 3.1875 C-1.2675 3.8475 -1.5975 4.5075 -1.9375 5.1875 C-2.9275 5.1875 -3.9175 5.1875 -4.9375 5.1875 C-3.82120474 0.24390669 -3.82120474 0.24390669 0 0 Z " fill="#000000" transform="translate(432.9375,563.8125)"/>
<path d="M0 0 C3.0625 0.1875 3.0625 0.1875 5.0625 2.1875 C4.90004442 5.92397845 4.47466356 7.71288742 2 10.5625 C1.360625 11.09875 0.72125 11.635 0.0625 12.1875 C1.7125 12.5175 3.3625 12.8475 5.0625 13.1875 C5.0625 13.8475 5.0625 14.5075 5.0625 15.1875 C1.7625 15.1875 -1.5375 15.1875 -4.9375 15.1875 C-2.9375 11.1875 -2.9375 11.1875 -0.8125 8.625 C1.36735538 6.30372611 1.36735538 6.30372611 1.0625 3.1875 C0.4025 3.1875 -0.2575 3.1875 -0.9375 3.1875 C-1.2675 3.8475 -1.5975 4.5075 -1.9375 5.1875 C-2.9275 5.1875 -3.9175 5.1875 -4.9375 5.1875 C-3.82120474 0.24390669 -3.82120474 0.24390669 0 0 Z " fill="#000000" transform="translate(300.9375,226.8125)"/>
<path d="M0 0 C0 4.95 0 9.9 0 15 C-0.99 15 -1.98 15 -3 15 C-3 11.37 -3 7.74 -3 4 C-3.99 4.33 -4.98 4.66 -6 5 C-5.625 3.0625 -5.625 3.0625 -5 1 C-3 0 -3 0 0 0 Z " fill="#000000" transform="translate(420,564)"/>
<path d="M0 0 C0 4.95 0 9.9 0 15 C-0.99 15 -1.98 15 -3 15 C-3 11.37 -3 7.74 -3 4 C-3.99 4.33 -4.98 4.66 -6 5 C-5.625 3.0625 -5.625 3.0625 -5 1 C-3 0 -3 0 0 0 Z " fill="#000000" transform="translate(288,227)"/>
<path d="M0 0 C0 4.95 0 9.9 0 15 C-0.99 15 -1.98 15 -3 15 C-3 11.37 -3 7.74 -3 4 C-3.99 4.33 -4.98 4.66 -6 5 C-5.625 3.0625 -5.625 3.0625 -5 1 C-3 0 -3 0 0 0 Z " fill="#000000" transform="translate(7,217)"/>
<path d="M0 0 C0 4.95 0 9.9 0 15 C-0.66 15 -1.32 15 -2 15 C-2.33 11.37 -2.66 7.74 -3 4 C-3.99 4.33 -4.98 4.66 -6 5 C-6 4.01 -6 3.02 -6 2 C-3 0 -3 0 0 0 Z " fill="#000000" transform="translate(19,217)"/>
<path d="M0 0 C0.99 0.33 1.98 0.66 3 1 C1.8905928 4.48670834 0.73662334 7.77484237 -1 11 C-1.99 10.67 -2.98 10.34 -4 10 C-2.8905928 6.51329166 -1.73662334 3.22515763 0 0 Z " fill="#000000" transform="translate(521,412)"/>
<path d="M0 0 C0.99 0.33 1.98 0.66 3 1 C2.01 4.3 1.02 7.6 0 11 C-0.99 11 -1.98 11 -3 11 C-2.69078116 9.54096742 -2.37751201 8.08279278 -2.0625 6.625 C-1.88847656 5.81289063 -1.71445313 5.00078125 -1.53515625 4.1640625 C-1 2 -1 2 0 0 Z " fill="#000000" transform="translate(173,288)"/>
<path d="M0 0 C-2.77079887 3.80984844 -6.62868145 4.06840752 -11 5 C-10.67578125 3.08203125 -10.67578125 3.08203125 -10 1 C-6.36961463 -0.69417984 -3.80522763 -1.46354909 0 0 Z " fill="#000000" transform="translate(471,472)"/>
<path d="M0 0 C0.66 0.33 1.32 0.66 2 1 C0.61172854 4.35498935 -0.85585774 6.15050455 -4 8 C-5.32 8 -6.64 8 -8 8 C-6.49776416 3.79373966 -3.71449966 2.26099979 0 0 Z " fill="#000000" transform="translate(486,460)"/>
<path d="M0 0 C0.99 0.33 1.98 0.66 3 1 C1.68 4.3 0.36 7.6 -1 11 C-1.99 10.67 -2.98 10.34 -4 10 C-3.52449439 8.51965236 -3.04448784 7.04074979 -2.5625 5.5625 C-2.29566406 4.73878906 -2.02882813 3.91507812 -1.75390625 3.06640625 C-1 1 -1 1 0 0 Z " fill="#000000" transform="translate(124,423)"/>
<path d="M0 0 C0.99 0.33 1.98 0.66 3 1 C1.68 4.3 0.36 7.6 -1 11 C-1.99 11 -2.98 11 -4 11 C-3.5247412 9.35303396 -3.04468109 7.70745272 -2.5625 6.0625 C-2.29566406 5.14597656 -2.02882812 4.22945312 -1.75390625 3.28515625 C-1 1 -1 1 0 0 Z " fill="#000000" transform="translate(214,172)"/>
<path d="M0 0 C0.99 0 1.98 0 3 0 C1.8905928 3.48670834 0.73662334 6.77484237 -1 10 C-1.99 10 -2.98 10 -4 10 C-3.43768609 6.06380262 -2.38314183 3.20807554 0 0 Z " fill="#000000" transform="translate(238,116)"/>
<path d="M0 0 C0.66 0 1.32 0 2 0 C3.32 3.3 4.64 6.6 6 10 C5.01 10.33 4.02 10.66 3 11 C2.30034557 9.73581754 1.61565237 8.46334598 0.9375 7.1875 C0.55464844 6.47980469 0.17179687 5.77210937 -0.22265625 5.04296875 C-1 3 -1 3 0 0 Z " fill="#000000" transform="translate(369,94)"/>
<path d="M0 0 C3.63 0 7.26 0 11 0 C11 0.99 11 1.98 11 3 C7.37 3 3.74 3 0 3 C0 2.01 0 1.02 0 0 Z " fill="#000000" transform="translate(440,476)"/>
<path d="M0 0 C0.66 0 1.32 0 2 0 C1.44894091 3.9492568 0.61064629 7.34920174 -1 11 C-1.99 10.67 -2.98 10.34 -4 10 C-3.52449439 8.51965236 -3.04448784 7.04074979 -2.5625 5.5625 C-2.29566406 4.73878906 -2.02882812 3.91507812 -1.75390625 3.06640625 C-1 1 -1 1 0 0 Z " fill="#000000" transform="translate(132,404)"/>
<path d="M0 0 C0.99 0.33 1.98 0.66 3 1 C2.01 4.3 1.02 7.6 0 11 C-0.99 11 -1.98 11 -3 11 C-2.69078116 9.54096742 -2.37751201 8.08279278 -2.0625 6.625 C-1.88847656 5.81289063 -1.71445313 5.00078125 -1.53515625 4.1640625 C-1 2 -1 2 0 0 Z " fill="#000000" transform="translate(153,346)"/>
<path d="M0 0 C0.99 0.33 1.98 0.66 3 1 C1.68 4.3 0.36 7.6 -1 11 C-1.66 11 -2.32 11 -3 11 C-2.53199289 6.94393835 -2.12046792 3.53411321 0 0 Z " fill="#000000" transform="translate(160,327)"/>
<path d="M0 0 C0.99 0 1.98 0 3 0 C3 3.63 3 7.26 3 11 C2.01 11 1.02 11 0 11 C0 7.37 0 3.74 0 0 Z " fill="#000000" transform="translate(389,309)"/>
<path d="M0 0 C0.99 0 1.98 0 3 0 C3 3.63 3 7.26 3 11 C2.01 11 1.02 11 0 11 C0 7.37 0 3.74 0 0 Z " fill="#000000" transform="translate(389,290)"/>
<path d="M0 0 C0.99 0 1.98 0 3 0 C3 3.63 3 7.26 3 11 C2.01 11 1.02 11 0 11 C0 7.37 0 3.74 0 0 Z " fill="#000000" transform="translate(391,231)"/>
<path d="M0 0 C0.99 0.33 1.98 0.66 3 1 C2.01 4.3 1.02 7.6 0 11 C-0.99 11 -1.98 11 -3 11 C-2.44894091 7.0507432 -1.61064629 3.65079826 0 0 Z " fill="#000000" transform="translate(193,230)"/>
<path d="M0 0 C0.99 0 1.98 0 3 0 C3 3.63 3 7.26 3 11 C2.01 11 1.02 11 0 11 C0 7.37 0 3.74 0 0 Z " fill="#000000" transform="translate(391,211)"/>
<path d="M0 0 C0.99 0.33 1.98 0.66 3 1 C2.57742724 2.4835001 2.13643678 3.96176424 1.6875 5.4375 C1.44386719 6.26121094 1.20023438 7.08492187 0.94921875 7.93359375 C0.63597656 8.61550781 0.32273438 9.29742187 0 10 C-0.99 10.33 -1.98 10.66 -3 11 C-2.44894091 7.0507432 -1.61064629 3.65079826 0 0 Z " fill="#000000" transform="translate(221,153)"/>
<path d="M0 0 C0.99 0 1.98 0 3 0 C3.33 3.63 3.66 7.26 4 11 C3.01 11 2.02 11 1 11 C0.67 7.37 0.34 3.74 0 0 Z " fill="#000000" transform="translate(386,151)"/>
<path d="M0 0 C0.99 0.33 1.98 0.66 3 1 C2.01 3.97 1.02 6.94 0 10 C-1.32 10 -2.64 10 -4 10 C-2.68 6.7 -1.36 3.4 0 0 Z " fill="#000000" transform="translate(229,134)"/>
<path d="M0 0 C0.99 0 1.98 0 3 0 C3.66 3.3 4.32 6.6 5 10 C4.01 10.33 3.02 10.66 2 11 C0.80712589 7.12315913 0 4.08378077 0 0 Z " fill="#000000" transform="translate(382,132)"/>
<path d="M0 0 C0.99 0 1.98 0 3 0 C3.99 3.3 4.98 6.6 6 10 C4.68 9.67 3.36 9.34 2 9 C1.34 6.03 0.68 3.06 0 0 Z " fill="#000000" transform="translate(376,113)"/>
<path d="M0 0 C0.99 0.33 1.98 0.66 3 1 C0.525 5.455 0.525 5.455 -2 10 C-2.99 9.67 -3.98 9.34 -5 9 C-4.3566152 7.686298 -3.71021785 6.37407102 -3.0625 5.0625 C-2.70285156 4.33160156 -2.34320313 3.60070312 -1.97265625 2.84765625 C-1 1 -1 1 0 0 Z " fill="#000000" transform="translate(248,98)"/>
<path d="M0 0 C3.80881639 1.44472346 5.29742886 3.32603071 7 7 C6.67 7.99 6.34 8.98 6 10 C3.03595495 7.19195732 0.55500981 4.81684226 -1 1 C-0.67 0.67 -0.34 0.34 0 0 Z " fill="#000000" transform="translate(358,78)"/>
<path d="M0 0 C0.66 0.33 1.32 0.66 2 1 C0.65289578 5.04131267 -1.38428334 5.90288434 -5 8 C-5.99 8 -6.98 8 -8 8 C-6.49776416 3.79373966 -3.71449966 2.26099979 0 0 Z " fill="#000000" transform="translate(277,69)"/>
<path d="M0 0 C0 0.99 0 1.98 0 3 C-2.97 4.32 -5.94 5.64 -9 7 C-9 5.68 -9 4.36 -9 3 C-3.375 0 -3.375 0 0 0 Z " fill="#000000" transform="translate(296,60)"/>
<path d="M0 0 C7.625 0.875 7.625 0.875 11 2 C11 2.99 11 3.98 11 5 C7.7 4.34 4.4 3.68 1 3 C0.67 2.01 0.34 1.02 0 0 Z " fill="#000000" transform="translate(420,473)"/>
<path d="M0 0 C0.99 0.33 1.98 0.66 3 1 C1.4169423 5.2742558 -1.50568404 7.26531794 -5 10 C-5 4.69520066 -3.4637943 3.81017373 0 0 Z " fill="#000000" transform="translate(500,446)"/>
<path d="M0 0 C0.66 0.33 1.32 0.66 2 1 C1.3543999 4.48624056 0.07639763 7.12498789 -2 10 C-2.99 10 -3.98 10 -5 10 C-4.38545304 6.00544473 -2.29353263 3.25533664 0 0 Z " fill="#000000" transform="translate(512,430)"/>
<path d="M0 0 C0.99 0 1.98 0 3 0 C2.01 3.3 1.02 6.6 0 10 C-0.99 10 -1.98 10 -3 10 C-2.49287967 6.28111761 -1.88391785 3.26545761 0 0 Z " fill="#000000" transform="translate(139,385)"/>
<path d="M0 0 C0.99 0.33 1.98 0.66 3 1 C2.34 4.3 1.68 7.6 1 11 C0.01 11 -0.98 11 -2 11 C-1.125 3.375 -1.125 3.375 0 0 Z " fill="#000000" transform="translate(534,374)"/>
<path d="M0 0 C0.99 0 1.98 0 3 0 C2.01 3.3 1.02 6.6 0 10 C-0.99 10 -1.98 10 -3 10 C-2.39009109 6.44219804 -1.4216319 3.3171411 0 0 Z " fill="#000000" transform="translate(146,366)"/>
<path d="M0 0 C0.99 0.33 1.98 0.66 3 1 C1.68 4.3 0.36 7.6 -1 11 C-1.66 11 -2.32 11 -3 11 C-2.53199289 6.94393835 -2.12046792 3.53411321 0 0 Z " fill="#000000" transform="translate(180,269)"/>
<path d="M0 0 C0.99 0.33 1.98 0.66 3 1 C2.01 4.3 1.02 7.6 0 11 C-0.99 11 -1.98 11 -3 11 C-2.01 7.37 -1.02 3.74 0 0 Z " fill="#000000" transform="translate(186,249)"/>
<path d="M0 0 C0.66 0 1.32 0 2 0 C1.56179109 4.55737263 1.14958831 7.57653445 -2 11 C-2.66 10.34 -3.32 9.68 -4 9 C-2.68 6.03 -1.36 3.06 0 0 Z " fill="#000000" transform="translate(200,211)"/>
<path d="M0 0 C0.66 0.33 1.32 0.66 2 1 C1.34 3.97 0.68 6.94 0 10 C-1.32 10.33 -2.64 10.66 -4 11 C-3.5247412 9.35303396 -3.04468109 7.70745272 -2.5625 6.0625 C-2.29566406 5.14597656 -2.02882812 4.22945312 -1.75390625 3.28515625 C-1 1 -1 1 0 0 Z " fill="#000000" transform="translate(207,191)"/>
<path d="M0 0 C0.99 0.33 1.98 0.66 3 1 C2.09827532 2.17825358 1.17798498 3.34231577 0.25 4.5 C-0.51570313 5.47453125 -0.51570313 5.47453125 -1.296875 6.46875 C-3 8 -3 8 -7 8 C-6.02133662 6.85373678 -5.04205413 5.70800212 -4.0625 4.5625 C-3.51722656 3.92441406 -2.97195313 3.28632812 -2.41015625 2.62890625 C-1.63204305 1.73008851 -0.84063472 0.84063472 0 0 Z " fill="#000000" transform="translate(261,82)"/>
<path d="M0 0 C7.71428571 4 7.71428571 4 9 8 C5.60406522 8 4.93380119 7.47834052 2.3125 5.5 C1.68988281 5.0359375 1.06726563 4.571875 0.42578125 4.09375 C-0.04472656 3.7328125 -0.51523437 3.371875 -1 3 C-0.67 2.01 -0.34 1.02 0 0 Z " fill="#000000" transform="translate(343,64)"/>
<path d="M0 0 C3.3 0.66 6.6 1.32 10 2 C10 2.99 10 3.98 10 5 C6.37 4.34 2.74 3.68 -1 3 C-0.67 2.01 -0.34 1.02 0 0 Z " fill="#000000" transform="translate(325,57)"/>
<path d="M0 0 C3.14027363 0.33645789 4.05098295 1.05236086 6.3125 3.375 C6.869375 4.24125 7.42625 5.1075 8 6 C7.67 6.99 7.34 7.98 7 9 C3.46352496 7.32482761 2.2088437 6.50719183 0.6875 2.8125 C0.460625 1.884375 0.23375 0.95625 0 0 Z " fill="#000000" transform="translate(404,462)"/>
<path d="M0 0 C0.99 0 1.98 0 3 0 C2.34 2.97 1.68 5.94 1 9 C-0.32 9.33 -1.64 9.66 -3 10 C-2.01 6.7 -1.02 3.4 0 0 Z " fill="#000000" transform="translate(528,394)"/>
<path d="M0 0 C0.66 0 1.32 0 2 0 C2 3.63 2 7.26 2 11 C1.01 10.67 0.02 10.34 -1 10 C-1.02689216 8.52093108 -1.04634621 7.04172517 -1.0625 5.5625 C-1.07410156 4.73878906 -1.08570313 3.91507812 -1.09765625 3.06640625 C-1 1 -1 1 0 0 Z " fill="#000000" transform="translate(391,386)"/>
<path d="M0 0 C0.99 0 1.98 0 3 0 C2.67 3.3 2.34 6.6 2 10 C1.01 10 0.02 10 -1 10 C-0.67 6.7 -0.34 3.4 0 0 Z " fill="#000000" transform="translate(538,355)"/>
<path d="M0 0 C0.99 0.33 1.98 0.66 3 1 C2.34 4.3 1.68 7.6 1 11 C0.01 10.67 -0.98 10.34 -2 10 C-1.34 6.7 -0.68 3.4 0 0 Z " fill="#000000" transform="translate(542,335)"/>
<path d="M0 0 C0.99 0 1.98 0 3 0 C2.71758359 1.46015291 2.42373386 2.91809793 2.125 4.375 C1.96257812 5.18710937 1.80015625 5.99921875 1.6328125 6.8359375 C1 9 1 9 -1 11 C-1.66 10.34 -2.32 9.68 -3 9 C-2.01 6.03 -1.02 3.06 0 0 Z " fill="#000000" transform="translate(166,308)"/>
<path d="M0 0 C0.66 0.33 1.32 0.66 2 1 C2 4.3 2 7.6 2 11 C1.01 11 0.02 11 -1 11 C-1.02688151 9.35425434 -1.04634123 7.70838587 -1.0625 6.0625 C-1.07410156 5.14597656 -1.08570313 4.22945313 -1.09765625 3.28515625 C-1 1 -1 1 0 0 Z " fill="#000000" transform="translate(390,270)"/>
<path d="M0 0 C0.99 0 1.98 0 3 0 C3.33 3.63 3.66 7.26 4 11 C3.01 11 2.02 11 1 11 C0.67 7.37 0.34 3.74 0 0 Z " fill="#000000" transform="translate(390,191)"/>
<path d="M0 0 C0.99 0.33 1.98 0.66 3 1 C3 4.3 3 7.6 3 11 C2.01 10.67 1.02 10.34 0 10 C0 6.7 0 3.4 0 0 Z " fill="#000000" transform="translate(389,171)"/>
<path d="M0 0 C0.99 0 1.98 0 3 0 C3.99 3.3 4.98 6.6 6 10 C5.01 10 4.02 10 3 10 C2.01 6.7 1.02 3.4 0 0 Z " fill="#000000" transform="translate(397,444)"/>
<path d="M0 0 C0.99 0 1.98 0 3 0 C3.66 3.3 4.32 6.6 5 10 C4.01 10 3.02 10 2 10 C1.34 6.7 0.68 3.4 0 0 Z " fill="#000000" transform="translate(393,425)"/>
<path d="M0 0 C0.99 0 1.98 0 3 0 C3.33 3.3 3.66 6.6 4 10 C3.01 10 2.02 10 1 10 C0.67 6.7 0.34 3.4 0 0 Z " fill="#000000" transform="translate(391,406)"/>
<path d="M0 0 C0.99 0 1.98 0 3 0 C3 3.3 3 6.6 3 10 C2.01 10 1.02 10 0 10 C0 6.7 0 3.4 0 0 Z " fill="#000000" transform="translate(389,348)"/>
<path d="M0 0 C0.99 0 1.98 0 3 0 C3 3.3 3 6.6 3 10 C2.01 10 1.02 10 0 10 C0 6.7 0 3.4 0 0 Z " fill="#000000" transform="translate(389,329)"/>
<path d="M0 0 C0 0.99 0 1.98 0 3 C-3.3 3.33 -6.6 3.66 -10 4 C-10 3.01 -10 2.02 -10 1 C-6.61981469 -0.04005702 -3.5219721 -0.08004482 0 0 Z " fill="#000000" transform="translate(315,56)"/>
<path d="M0 0 C0.66 0 1.32 0 2 0 C3.17571451 3.67410785 3.07366746 7.16929183 3 11 C2.01 11 1.02 11 0 11 C0 7.37 0 3.74 0 0 Z " fill="#000000" transform="translate(390,367)"/>
<path d="M0 0 C0.66 0 1.32 0 2 0 C2 3.3 2 6.6 2 10 C1.01 10 0.02 10 -1 10 C-1.02689216 8.52093108 -1.04634621 7.04172517 -1.0625 5.5625 C-1.07410156 4.73878906 -1.08570313 3.91507813 -1.09765625 3.06640625 C-1 1 -1 1 0 0 Z " fill="#000000" transform="translate(391,251)"/>
<path d="M0 0 C0.66 0 1.32 0 2 0 C2 3.63 2 7.26 2 11 C1.34 11 0.68 11 0 11 C0 7.37 0 3.74 0 0 Z " fill="#000000" transform="translate(114,422)"/>
<path d="M0 0 C0.66 0 1.32 0 2 0 C2 3.63 2 7.26 2 11 C1.34 11 0.68 11 0 11 C0 7.37 0 3.74 0 0 Z " fill="#000000" transform="translate(114,402)"/>
<path d="M0 0 C0.66 0 1.32 0 2 0 C2 3.63 2 7.26 2 11 C1.34 11 0.68 11 0 11 C0 7.37 0 3.74 0 0 Z " fill="#000000" transform="translate(114,363)"/>
<path d="M0 0 C0.66 0 1.32 0 2 0 C2 3.63 2 7.26 2 11 C1.34 11 0.68 11 0 11 C0 7.37 0 3.74 0 0 Z " fill="#000000" transform="translate(114,343)"/>
<path d="M0 0 C0.66 0 1.32 0 2 0 C2 3.63 2 7.26 2 11 C1.34 11 0.68 11 0 11 C0 7.37 0 3.74 0 0 Z " fill="#000000" transform="translate(114,323)"/>
<path d="M0 0 C0.66 0 1.32 0 2 0 C2 3.63 2 7.26 2 11 C1.34 11 0.68 11 0 11 C0 7.37 0 3.74 0 0 Z " fill="#000000" transform="translate(114,284)"/>
<path d="M0 0 C0.66 0 1.32 0 2 0 C2 3.63 2 7.26 2 11 C1.34 11 0.68 11 0 11 C0 7.37 0 3.74 0 0 Z " fill="#000000" transform="translate(114,264)"/>
<path d="M0 0 C0.66 0 1.32 0 2 0 C2 3.63 2 7.26 2 11 C1.34 11 0.68 11 0 11 C0 7.37 0 3.74 0 0 Z " fill="#000000" transform="translate(114,225)"/>
<path d="M0 0 C0.66 0 1.32 0 2 0 C2 3.63 2 7.26 2 11 C1.34 11 0.68 11 0 11 C0 7.37 0 3.74 0 0 Z " fill="#000000" transform="translate(114,205)"/>
<path d="M0 0 C0.66 0 1.32 0 2 0 C2 3.63 2 7.26 2 11 C1.34 11 0.68 11 0 11 C0 7.37 0 3.74 0 0 Z " fill="#000000" transform="translate(114,166)"/>
<path d="M0 0 C0.66 0 1.32 0 2 0 C2 3.63 2 7.26 2 11 C1.34 11 0.68 11 0 11 C0 7.37 0 3.74 0 0 Z " fill="#000000" transform="translate(114,146)"/>
<path d="M0 0 C0.66 0 1.32 0 2 0 C2 3.63 2 7.26 2 11 C1.34 11 0.68 11 0 11 C0 7.37 0 3.74 0 0 Z " fill="#000000" transform="translate(114,126)"/>
<path d="M0 0 C1.32 0 2.64 0 4 0 C3.67 1.65 3.34 3.3 3 5 C2.01 5.33 1.02 5.66 0 6 C0 4.02 0 2.04 0 0 Z " fill="#000000" transform="translate(114,442)"/>
<path d="M0 0 C0.66 0 1.32 0 2 0 C2 3.3 2 6.6 2 10 C1.34 10 0.68 10 0 10 C0 6.7 0 3.4 0 0 Z " fill="#000000" transform="translate(114,383)"/>
<path d="M0 0 C0.66 0 1.32 0 2 0 C2 3.3 2 6.6 2 10 C1.34 10 0.68 10 0 10 C0 6.7 0 3.4 0 0 Z " fill="#000000" transform="translate(114,304)"/>
<path d="M0 0 C0.66 0 1.32 0 2 0 C2 3.3 2 6.6 2 10 C1.34 10 0.68 10 0 10 C0 6.7 0 3.4 0 0 Z " fill="#000000" transform="translate(114,245)"/>
<path d="M0 0 C0.66 0 1.32 0 2 0 C2 3.3 2 6.6 2 10 C1.34 10 0.68 10 0 10 C0 6.7 0 3.4 0 0 Z " fill="#000000" transform="translate(114,186)"/>
<path d="M0 0 C0.66 0 1.32 0 2 0 C2 3.3 2 6.6 2 10 C1.34 10 0.68 10 0 10 C0 6.7 0 3.4 0 0 Z " fill="#000000" transform="translate(114,107)"/>
<path d="M0 0 C0.66 0.33 1.32 0.66 2 1 C2 2.98 2 4.96 2 7 C1.01 6.67 0.02 6.34 -1 6 C-1.042721 4.33388095 -1.04063832 2.66617115 -1 1 C-0.67 0.67 -0.34 0.34 0 0 Z " fill="#000000" transform="translate(544,319)"/>
<path d="M0 0 C0.99 0.33 1.98 0.66 3 1 C2.67 1.99 2.34 2.98 2 4 C1.01 3.01 0.02 2.02 -1 1 C-0.67 0.67 -0.34 0.34 0 0 Z " fill="#000000" transform="translate(423,576)"/>
<path d="M0 0 C0.99 0.33 1.98 0.66 3 1 C2.67 1.99 2.34 2.98 2 4 C1.01 3.01 0.02 2.02 -1 1 C-0.67 0.67 -0.34 0.34 0 0 Z " fill="#000000" transform="translate(291,239)"/>
<path d="M0 0 C0.99 0.33 1.98 0.66 3 1 C2.67 1.99 2.34 2.98 2 4 C1.01 3.01 0.02 2.02 -1 1 C-0.67 0.67 -0.34 0.34 0 0 Z " fill="#000000" transform="translate(10,229)"/>
</svg>
