<?xml version="1.0" standalone="no"?>
<!DOCTYPE svg PUBLIC "-//W3C//DTD SVG 20010904//EN"
 "http://www.w3.org/TR/2001/REC-SVG-20010904/DTD/svg10.dtd">
<svg version="1.0" xmlns="http://www.w3.org/2000/svg"
 width="558.000000pt" height="772.000000pt" viewBox="0 0 558.000000 772.000000"
 preserveAspectRatio="xMidYMid meet">

<g transform="translate(0.000000,772.000000) scale(0.100000,-0.100000)"
fill="#000000" stroke="none">
<path d="M3649 7659 l-24 -20 23 6 c21 6 22 4 22 -54 0 -34 4 -61 10 -61 12 0
13 137 1 144 -5 3 -20 -3 -32 -15z"/>
<path d="M3798 7669 c-10 -5 -18 -17 -18 -26 0 -15 2 -15 13 1 14 19 48 19 54
0 2 -6 -15 -34 -37 -63 l-40 -51 50 0 c32 0 49 4 45 10 -3 6 -17 10 -31 10
l-25 0 25 33 c28 37 33 66 14 85 -14 14 -27 15 -50 1z"/>
<path d="M3720 7540 c0 -5 5 -10 10 -10 6 0 10 5 10 10 0 6 -4 10 -10 10 -5 0
-10 -4 -10 -10z"/>
<path d="M3180 7420 c-409 -57 -803 -274 -1020 -561 -86 -115 -162 -279 -129
-279 8 0 26 31 41 68 65 160 227 348 403 468 182 124 414 220 630 260 136 26
377 26 495 1 419 -90 677 -394 729 -860 13 -111 14 -326 3 -344 -5 -8 -16 -1
-36 23 -20 25 -33 60 -46 122 -59 291 -202 584 -360 740 -138 137 -251 182
-472 189 -289 10 -549 -42 -787 -158 -116 -57 -132 -68 -226 -162 -192 -192
-320 -428 -471 -872 -163 -479 -232 -793 -293 -1340 -11 -99 -34 -304 -51
-455 -17 -151 -45 -383 -63 -515 l-32 -240 -695 -1235 c-382 -679 -709 -1264
-727 -1300 -42 -84 -64 -184 -65 -290 -3 -276 146 -442 442 -496 271 -49 556
49 701 241 121 160 277 459 533 1019 85 187 160 344 166 350 7 7 8 -3 4 -34
-7 -57 11 -247 31 -324 45 -172 96 -249 299 -452 308 -308 524 -449 793 -516
116 -29 378 -32 523 -5 232 43 553 137 675 199 86 43 298 185 416 279 131 104
311 279 411 399 262 313 407 622 533 1135 42 168 46 199 41 265 -17 228 -117
420 -254 487 -51 25 -68 28 -157 28 -91 0 -106 -3 -165 -31 -116 -55 -149 -95
-367 -436 -110 -172 -291 -461 -403 -642 -211 -342 -266 -419 -339 -480 -61
-51 -163 -110 -246 -143 -61 -24 -83 -27 -180 -27 -130 0 -224 23 -350 85
-169 82 -240 161 -350 384 -79 161 -149 344 -191 502 -22 83 -27 126 -31 278
l-6 180 86 53 c168 102 318 235 521 462 270 301 559 683 648 855 53 104 156
360 223 555 136 399 241 888 252 1177 l6 152 31 -39 c17 -22 35 -39 40 -39 12
-1 116 88 116 100 0 16 -20 10 -54 -16 -18 -14 -35 -25 -37 -25 -2 0 -4 82 -5
183 0 196 -14 291 -61 441 -50 159 -123 276 -246 392 -118 113 -244 179 -431
225 -93 23 -340 34 -446 19z m441 -248 c222 -72 403 -301 524 -664 64 -191 79
-289 72 -473 -16 -430 -228 -1215 -457 -1690 -114 -237 -609 -858 -883 -1110
-110 -100 -223 -184 -319 -237 l-77 -43 -1 -50 c0 -134 21 -347 44 -440 47
-192 149 -451 237 -607 100 -175 175 -247 345 -328 133 -64 220 -84 359 -84
111 0 126 2 200 32 88 35 205 103 266 156 69 59 131 145 314 442 380 615 626
993 674 1036 133 118 327 131 443 29 81 -72 150 -238 163 -395 6 -62 1 -93
-35 -241 -77 -318 -158 -552 -256 -735 -193 -359 -501 -686 -894 -949 -67 -45
-150 -96 -183 -113 -118 -59 -394 -141 -637 -190 -93 -18 -147 -22 -285 -22
-152 0 -181 3 -270 27 -252 67 -492 231 -794 542 -119 123 -134 143 -180 237
-67 136 -81 211 -82 430 0 95 -4 196 -7 223 l-7 50 -77 -155 c-42 -85 -133
-280 -202 -434 -219 -481 -384 -797 -500 -954 -135 -183 -394 -273 -655 -228
-179 31 -303 111 -363 234 -30 60 -33 77 -37 174 -4 130 15 225 63 318 18 36
345 619 725 1295 l693 1230 23 170 c44 313 64 478 100 815 38 353 72 617 106
803 55 305 203 791 335 1097 103 238 198 387 333 520 110 110 207 167 383 224
198 65 345 86 573 82 130 -3 172 -7 226 -24z"/>
<path d="M3110 6750 c0 -5 23 -10 50 -10 28 0 50 5 50 10 0 6 -22 10 -50 10
-27 0 -50 -4 -50 -10z"/>
<path d="M3300 6743 c0 -10 92 -35 99 -27 10 9 -16 22 -56 29 -25 4 -43 3 -43
-2z"/>
<path d="M2961 6726 c-19 -7 -37 -18 -39 -26 -3 -9 1 -11 14 -6 11 5 31 13 47
18 15 5 27 14 27 19 0 11 -6 11 -49 -5z"/>
<path d="M3490 6685 c0 -5 75 -45 85 -45 17 0 0 19 -30 33 -36 17 -55 21 -55
12z"/>
<path d="M2785 6625 c-23 -20 -34 -34 -25 -34 20 0 85 54 74 62 -6 3 -28 -10
-49 -28z"/>
<path d="M3650 6573 c1 -15 60 -77 66 -70 8 8 -43 77 -57 77 -5 0 -9 -3 -9 -7z"/>
<path d="M2646 6486 c-14 -19 -22 -37 -17 -40 8 -5 61 54 61 68 0 16 -20 2
-44 -28z"/>
<path d="M3767 6365 c16 -49 38 -62 27 -17 -9 36 -23 62 -34 62 -5 0 -2 -20 7
-45z"/>
<path d="M2542 6331 c-24 -42 -26 -51 -14 -51 13 0 53 78 44 84 -5 3 -19 -12
-30 -33z"/>
<path d="M3800 6170 c0 -27 5 -50 10 -50 6 0 10 23 10 50 0 28 -4 50 -10 50
-5 0 -10 -22 -10 -50z"/>
<path d="M2452 6155 c-13 -26 -17 -47 -12 -50 6 -4 15 6 20 20 6 15 15 35 20
45 6 10 6 21 2 24 -5 3 -18 -15 -30 -39z"/>
<path d="M3795 5980 c-8 -48 6 -80 16 -35 10 46 10 75 0 75 -5 0 -12 -18 -16
-40z"/>
<path d="M2390 6006 c0 -2 -7 -20 -15 -39 -9 -23 -11 -38 -5 -42 6 -3 14 4 19
17 19 52 22 68 12 68 -6 0 -11 -2 -11 -4z"/>
<path d="M2965 5927 c-60 -29 -101 -71 -150 -152 -143 -238 -229 -937 -131
-1070 13 -18 19 -14 107 66 169 152 315 303 366 379 118 177 183 351 183 494
0 154 -42 232 -150 276 -85 34 -164 36 -225 7z m218 -61 c53 -23 60 -30 84
-82 24 -52 25 -64 20 -158 -10 -193 -115 -409 -290 -593 -111 -117 -285 -265
-293 -251 -5 7 -10 62 -12 123 -10 251 76 692 163 841 88 149 183 184 328 120z"/>
<path d="M2326 5818 c-3 -7 -9 -28 -15 -45 -11 -38 4 -47 18 -10 20 52 22 67
11 67 -6 0 -12 -6 -14 -12z"/>
<path d="M3765 5784 c-6 -41 -2 -64 9 -53 10 10 18 99 8 99 -5 0 -13 -21 -17
-46z"/>
<path d="M2263 5595 c-6 -25 -7 -45 -2 -45 11 0 16 11 24 53 10 53 -9 47 -22
-8z"/>
<path d="M3730 5638 c0 -2 -7 -25 -15 -51 -11 -36 -11 -47 -2 -44 15 5 39 85
26 92 -5 4 -9 5 -9 3z"/>
<path d="M2227 5444 c-14 -50 -18 -84 -9 -84 13 0 33 83 23 93 -5 5 -11 1 -14
-9z"/>
<path d="M3657 5408 c-10 -24 -13 -46 -8 -51 5 -5 15 12 25 39 19 55 18 54 8
54 -5 0 -16 -19 -25 -42z"/>
<path d="M2185 5245 c-3 -14 -7 -36 -10 -50 -6 -28 11 -35 18 -7 14 51 16 71
7 77 -5 3 -12 -6 -15 -20z"/>
<path d="M3585 5224 c-17 -41 -19 -54 -7 -54 4 0 14 17 22 38 8 20 16 40 18
45 2 4 -1 7 -7 7 -6 0 -18 -16 -26 -36z"/>
<path d="M3510 5054 c-6 -14 -15 -34 -20 -45 -7 -13 -7 -19 -1 -19 9 0 51 70
51 85 0 16 -22 1 -30 -21z"/>
<path d="M2146 5029 c-6 -38 -2 -59 9 -48 10 11 17 89 8 89 -6 0 -13 -19 -17
-41z"/>
<path d="M3413 4860 c-13 -22 -19 -41 -13 -45 8 -5 50 62 50 80 0 16 -18 0
-37 -35z"/>
<path d="M2115 4834 c-6 -42 -2 -64 10 -52 11 10 17 98 7 98 -5 0 -13 -21 -17
-46z"/>
<path d="M3321 4694 c-22 -37 -26 -54 -13 -54 7 0 52 73 52 84 0 17 -21 1 -39
-30z"/>
<path d="M2097 4683 c-4 -3 -7 -27 -7 -52 0 -53 17 -45 21 11 3 37 -2 53 -14
41z"/>
<path d="M3220 4525 c-12 -19 -20 -41 -18 -47 4 -11 58 62 58 77 0 16 -21 0
-40 -30z"/>
<path d="M2067 4448 c-6 -47 -1 -61 13 -38 12 19 13 80 1 80 -4 0 -11 -19 -14
-42z"/>
<path d="M3111 4356 c-22 -36 -25 -46 -13 -46 7 0 52 65 52 75 0 16 -21 0 -39
-29z"/>
<path d="M2046 4253 c-6 -45 -2 -63 10 -50 4 3 9 26 11 52 7 60 -12 59 -21 -2z"/>
<path d="M2994 4195 c-15 -20 -24 -39 -20 -43 7 -6 36 24 57 61 18 32 -9 18
-37 -18z"/>
<path d="M2028 4053 c-5 -52 -2 -66 13 -58 12 8 12 105 0 105 -5 0 -11 -21
-13 -47z"/>
<path d="M2870 4040 c-19 -24 -26 -40 -18 -40 17 0 71 67 59 74 -5 4 -24 -12
-41 -34z"/>
<path d="M2740 3893 c-21 -23 -28 -39 -21 -41 7 -2 13 -2 14 0 1 1 15 17 30
34 16 18 24 35 19 38 -6 3 -25 -11 -42 -31z"/>
<path d="M2010 3840 c0 -27 5 -50 10 -50 6 0 10 15 10 34 0 19 3 41 6 50 4 11
1 16 -10 16 -13 0 -16 -11 -16 -50z"/>
<path d="M2624 3730 c-15 -22 -24 -43 -20 -47 3 -3 7 -4 9 -2 2 2 15 21 30 41
15 20 23 39 17 43 -5 3 -21 -13 -36 -35z"/>
<path d="M2000 3630 c0 -27 5 -50 10 -50 6 0 10 23 10 50 0 28 -4 50 -10 50
-5 0 -10 -22 -10 -50z"/>
<path d="M2507 3563 c-15 -20 -24 -39 -21 -42 6 -6 64 58 64 71 0 18 -18 6
-43 -29z"/>
<path d="M1997 3473 c-11 -10 -8 -103 3 -103 6 0 10 25 10 55 0 56 -1 60 -13
48z"/>
<path d="M2396 3403 c-26 -37 -27 -55 -4 -35 21 17 50 72 39 72 -6 0 -22 -17
-35 -37z"/>
<path d="M1990 3220 c0 -27 5 -50 10 -50 6 0 10 23 10 50 0 28 -4 50 -10 50
-5 0 -10 -22 -10 -50z"/>
<path d="M2281 3241 c-32 -44 -24 -61 9 -21 17 19 30 38 30 42 0 17 -20 7 -39
-21z"/>
<path d="M2166 3073 c-26 -37 -27 -55 -4 -35 21 17 50 72 39 72 -6 0 -22 -17
-35 -37z"/>
<path d="M1990 3016 c0 -25 5 -48 11 -51 16 -10 18 -4 12 48 -7 59 -23 62 -23
3z"/>
<path d="M2056 2917 c-15 -20 -26 -42 -24 -48 2 -6 16 5 32 25 15 20 26 42 24
48 -2 6 -17 -5 -32 -25z"/>
<path d="M2007 2853 c-9 -14 3 -103 14 -103 10 0 10 54 0 90 -4 15 -10 20 -14
13z"/>
<path d="M1935 2744 c-26 -34 -28 -57 -3 -36 20 16 50 72 40 72 -5 0 -22 -16
-37 -36z"/>
<path d="M5005 2659 c-6 -19 0 -38 9 -28 10 12 16 49 7 49 -5 0 -13 -9 -16
-21z"/>
<path d="M2026 2603 c7 -52 11 -60 20 -50 10 9 -6 97 -17 97 -6 0 -8 -18 -3
-47z"/>
<path d="M1826 2587 c-15 -20 -26 -42 -24 -48 2 -6 16 5 32 25 15 20 26 42 24
48 -2 6 -17 -5 -32 -25z"/>
<path d="M4961 2508 c-18 -50 -21 -67 -13 -72 5 -3 16 17 24 44 16 49 6 72
-11 28z"/>
<path d="M1705 2414 c-26 -34 -28 -57 -3 -36 20 16 50 72 40 72 -5 0 -22 -16
-37 -36z"/>
<path d="M2056 2442 c-6 -10 -3 -34 11 -84 9 -34 22 -18 16 20 -9 54 -18 78
-27 64z"/>
<path d="M4887 2295 c-20 -57 -5 -68 17 -12 18 49 19 57 7 57 -5 0 -16 -20
-24 -45z"/>
<path d="M1593 2255 c-13 -19 -23 -40 -23 -47 1 -16 59 53 60 70 0 22 -14 13
-37 -23z"/>
<path d="M2102 2198 c11 -43 24 -66 32 -57 8 8 -20 93 -32 97 -7 2 -7 -10 0
-40z"/>
<path d="M4811 2108 c-18 -43 -19 -60 -1 -42 17 17 41 84 30 84 -6 0 -19 -19
-29 -42z"/>
<path d="M1477 2088 c-28 -39 -30 -61 -5 -40 20 17 49 70 41 75 -5 3 -21 -13
-36 -35z"/>
<path d="M2167 1995 c8 -25 19 -45 24 -45 13 0 11 15 -5 55 -22 52 -38 43 -19
-10z"/>
<path d="M4722 1925 c-16 -32 -18 -45 -9 -45 13 0 47 59 47 80 0 23 -18 7 -38
-35z"/>
<path d="M1362 1924 c-32 -50 -22 -67 11 -19 15 22 27 43 27 47 0 18 -16 6
-38 -28z"/>
<path d="M2252 1805 c20 -42 38 -58 38 -36 0 16 -41 81 -51 81 -5 0 1 -20 13
-45z"/>
<path d="M1246 1758 c-27 -38 -30 -62 -4 -40 21 17 49 70 41 75 -5 3 -21 -13
-37 -35z"/>
<path d="M4627 1753 c-22 -38 -23 -43 -9 -43 12 0 55 80 43 80 -7 0 -22 -17
-34 -37z"/>
<path d="M2340 1663 c0 -15 46 -73 58 -73 8 0 2 15 -14 40 -24 36 -44 51 -44
33z"/>
<path d="M1132 1594 c-32 -50 -22 -67 11 -19 15 22 27 43 27 47 0 18 -16 6
-38 -28z"/>
<path d="M4515 1584 c-26 -34 -28 -57 -3 -36 20 16 50 72 40 72 -5 0 -22 -16
-37 -36z"/>
<path d="M2470 1503 c0 -14 54 -63 69 -63 10 0 3 12 -19 35 -32 33 -50 43 -50
28z"/>
<path d="M1016 1428 c-31 -43 -27 -68 5 -28 30 38 40 58 31 63 -4 3 -20 -13
-36 -35z"/>
<path d="M4387 1424 c-16 -19 -26 -38 -22 -42 7 -7 65 56 65 70 0 17 -16 7
-43 -28z"/>
<path d="M2617 1374 c-3 -3 10 -20 29 -36 32 -28 55 -33 40 -9 -11 17 -63 51
-69 45z"/>
<path d="M4248 1284 c-48 -44 -32 -54 17 -10 21 18 34 35 29 38 -5 4 -26 -9
-46 -28z"/>
<path d="M902 1264 c-32 -50 -22 -67 11 -19 15 22 27 43 27 47 0 18 -16 6 -38
-28z"/>
<path d="M2770 1250 c0 -12 72 -61 79 -54 6 6 -59 63 -71 64 -5 0 -8 -4 -8
-10z"/>
<path d="M4083 1157 c-18 -12 -33 -25 -33 -29 0 -16 26 -6 60 22 41 34 21 39
-27 7z"/>
<path d="M2930 1146 c0 -7 67 -46 79 -46 22 0 10 17 -24 33 -35 17 -55 21 -55
13z"/>
<path d="M794 1114 c-18 -23 -22 -24 -59 -13 -127 36 -283 -40 -347 -169 -32
-65 -32 -186 -1 -253 27 -60 92 -125 152 -152 65 -30 187 -30 252 0 213 97
239 385 49 525 -38 28 -39 30 -24 53 21 32 2 40 -22 9z"/>
<path d="M3940 1065 c-14 -8 -33 -14 -42 -15 -10 0 -18 -7 -18 -15 0 -14 4
-13 38 0 20 9 41 20 46 25 16 16 2 19 -24 5z"/>
<path d="M3110 1062 c0 -8 69 -42 85 -42 15 0 2 22 -17 29 -50 19 -68 22 -68
13z"/>
<path d="M3755 1013 c-52 -9 -65 -14 -65 -24 0 -11 69 -2 84 12 13 12 5 16
-19 12z"/>
<path d="M3300 1002 c0 -11 78 -28 87 -18 10 10 0 15 -45 22 -27 4 -42 3 -42
-4z"/>
<path d="M3490 980 c0 -5 23 -10 50 -10 28 0 50 5 50 10 0 6 -22 10 -50 10
-27 0 -50 -4 -50 -10z"/>
<path d="M1701 1346 c-19 -7 -37 -18 -39 -26 -3 -8 1 -11 9 -8 63 24 65 30
-75 -249 -75 -147 -173 -341 -220 -430 -49 -96 -79 -163 -71 -163 7 0 109 191
226 425 209 415 214 424 227 395 6 -17 17 -30 22 -30 13 0 13 -2 -6 53 -17 50
-21 52 -73 33z"/>
<path d="M1509 799 l-24 -20 23 6 c21 6 22 4 22 -54 0 -34 4 -61 10 -61 12 0
13 137 1 144 -5 3 -20 -3 -32 -15z"/>
<path d="M1630 799 c-24 -20 -24 -20 -2 -14 21 6 22 4 22 -54 0 -34 4 -61 10
-61 12 0 14 136 2 144 -4 2 -19 -4 -32 -15z"/>
<path d="M1580 680 c0 -5 5 -10 10 -10 6 0 10 5 10 10 0 6 -4 10 -10 10 -5 0
-10 -4 -10 -10z"/>
<path d="M4180 645 c0 -8 14 -17 38 -21 75 -13 71 -19 -74 -91 -294 -145 -546
-201 -849 -190 -285 12 -554 95 -768 237 -41 28 -64 37 -70 31 -13 -13 -17 -8
58 -58 139 -94 343 -175 533 -214 128 -26 366 -35 502 -20 213 25 442 98 649
207 102 54 103 54 97 28 -18 -71 -19 -84 -3 -84 18 0 53 138 39 152 -9 9 -114
37 -139 38 -7 0 -13 -7 -13 -15z"/>
<path d="M3379 179 l-24 -20 23 6 c21 6 22 4 22 -54 0 -34 4 -61 10 -61 12 0
13 137 1 144 -5 3 -20 -3 -32 -15z"/>
<path d="M3515 180 c-10 -11 -13 -20 -7 -20 6 0 14 5 17 10 3 6 15 10 26 10
27 0 26 -40 -2 -47 -20 -5 -20 -6 3 -17 12 -6 24 -19 26 -27 4 -24 -27 -32
-54 -14 -25 16 -33 8 -12 -13 19 -19 66 -15 78 7 11 22 4 51 -13 51 -7 0 -7 4
1 12 18 18 14 46 -7 58 -27 14 -35 13 -56 -10z"/>
<path d="M3450 60 c0 -5 5 -10 10 -10 6 0 10 5 10 10 0 6 -4 10 -10 10 -5 0
-10 -4 -10 -10z"/>
</g>
</svg>
