<?xml version="1.0" standalone="no"?>
<!DOCTYPE svg PUBLIC "-//W3C//DTD SVG 20010904//EN"
 "http://www.w3.org/TR/2001/REC-SVG-20010904/DTD/svg10.dtd">
<svg version="1.0" xmlns="http://www.w3.org/2000/svg"
 width="738.000000pt" height="563.000000pt" viewBox="0 0 738.000000 563.000000"
 preserveAspectRatio="xMidYMid meet">

<g transform="translate(0.000000,563.000000) scale(0.100000,-0.100000)"
fill="#000000" stroke="none">
<path d="M1141 5619 c-216 -26 -392 -115 -451 -230 -29 -56 -75 -221 -99 -354
-16 -94 -27 -241 -47 -685 -22 -489 -25 -628 -21 -1035 5 -431 26 -939 57
-1340 28 -366 126 -879 192 -1008 47 -92 174 -194 304 -243 114 -43 353 -28
479 30 62 28 128 85 144 124 6 15 51 236 101 492 105 536 98 503 280 1180 110
407 152 581 200 831 108 565 151 744 211 878 90 203 139 261 224 261 74 0 156
-56 196 -133 11 -21 36 -99 56 -175 35 -133 36 -143 37 -322 1 -140 -7 -266
-32 -520 -59 -603 -80 -744 -157 -1044 -65 -252 -79 -339 -78 -506 0 -170 14
-218 88 -312 86 -110 204 -177 351 -200 154 -24 418 23 507 91 76 58 92 91
108 224 13 111 48 298 95 504 70 313 206 863 249 1008 114 386 353 1030 418
1126 40 58 71 74 147 74 86 0 112 -21 140 -112 44 -141 38 -240 -80 -1318 -47
-431 -60 -607 -60 -816 0 -213 5 -251 57 -444 94 -350 216 -647 325 -790 101
-133 322 -296 461 -341 68 -22 106 -27 227 -31 233 -8 447 37 669 142 62 30
107 45 134 45 39 0 40 0 22 -20 -28 -31 -174 -126 -260 -169 -87 -43 -205 -82
-305 -102 -107 -21 -337 -16 -454 11 -272 61 -534 198 -763 400 -51 45 -98 78
-104 75 -14 -9 15 -40 126 -133 230 -193 498 -326 762 -379 117 -23 358 -23
461 1 173 38 342 114 477 212 37 27 75 55 85 62 17 12 18 9 16 -39 -2 -78 21
-75 29 4 10 92 7 101 -39 107 l-39 5 55 38 c62 42 156 134 193 189 45 67 152
291 218 458 119 301 210 608 276 933 45 217 48 269 21 358 -18 63 -30 82 -75
126 -44 42 -63 53 -111 64 -91 20 -228 16 -294 -10 -102 -38 -117 -63 -234
-371 -223 -588 -249 -647 -388 -870 -74 -119 -119 -175 -159 -195 -42 -22
-143 -18 -218 8 -55 19 -66 27 -73 52 -10 40 -28 448 -28 653 0 178 74 1468
90 1572 18 110 24 473 11 624 -24 289 -71 488 -153 656 -45 92 -63 116 -142
195 -170 168 -338 237 -581 237 -130 0 -248 -20 -400 -69 -222 -72 -311 -139
-439 -331 -107 -160 -280 -528 -407 -867 l-49 -130 5 75 c3 41 8 179 11 305 5
186 4 246 -9 312 -20 105 -72 232 -139 342 -73 118 -245 291 -348 348 -224
125 -486 147 -751 62 -101 -32 -315 -143 -419 -216 -144 -104 -210 -173 -258
-273 -55 -114 -82 -221 -138 -542 -48 -282 -91 -476 -93 -423 -1 17 24 338 55
714 l55 684 -28 40 c-85 121 -295 190 -502 166z m244 -63 c74 -19 150 -61 196
-107 40 -40 41 -41 35 -97 -5 -45 -146 -1774 -146 -1788 0 -2 11 -4 24 -4 22
0 26 6 32 48 4 26 35 160 69 297 35 138 82 363 105 500 65 388 108 533 188
642 39 52 186 166 308 239 306 183 593 229 862 138 206 -69 399 -249 516 -481
76 -152 89 -208 94 -408 3 -128 -2 -255 -17 -439 -12 -143 -21 -295 -21 -338
0 -77 1 -79 23 -76 16 2 23 11 25 33 12 137 101 402 250 746 205 474 352 698
511 779 84 42 259 98 364 116 137 24 337 15 440 -18 151 -50 304 -165 386
-291 82 -127 144 -323 178 -567 24 -176 24 -601 0 -800 -9 -80 -33 -426 -53
-770 -33 -571 -36 -653 -30 -945 7 -347 18 -497 41 -531 8 -13 40 -31 77 -43
172 -57 243 -49 328 38 124 126 270 405 424 811 64 168 133 347 153 398 54
142 95 177 232 196 64 9 195 -12 234 -38 71 -48 114 -157 102 -260 -29 -265
-168 -771 -312 -1136 -100 -253 -192 -428 -269 -510 -144 -152 -377 -272 -645
-332 -86 -19 -133 -23 -269 -23 -182 0 -238 10 -335 56 -65 32 -184 117 -277
199 -146 128 -264 379 -395 840 l-56 195 -4 196 c-6 212 4 373 43 734 67 632
124 1206 124 1260 0 33 -5 89 -10 125 -28 178 -87 250 -202 250 -107 0 -168
-41 -223 -150 -97 -193 -313 -793 -424 -1175 -23 -82 -196 -797 -240 -995 -37
-165 -67 -333 -81 -447 -16 -123 -40 -162 -130 -208 -121 -61 -393 -80 -519
-36 -126 44 -215 121 -273 236 -30 58 -31 64 -31 200 -1 167 8 223 78 505 83
331 99 439 156 1035 52 536 50 657 -11 890 -38 144 -53 177 -103 232 -107 117
-261 124 -344 16 -44 -57 -67 -98 -117 -212 -59 -132 -103 -311 -196 -791 -71
-371 -80 -408 -335 -1361 -39 -146 -100 -424 -160 -730 -53 -272 -103 -504
-111 -517 -25 -38 -94 -81 -168 -105 -59 -18 -94 -22 -212 -22 l-140 0 -87 43
c-106 52 -184 122 -220 196 -69 140 -158 617 -186 991 -56 738 -68 1673 -31
2455 23 502 23 509 51 642 37 179 75 284 122 335 57 62 173 118 298 142 70 14
258 12 314 -3z"/>
<path d="M970 5194 c-93 -33 -169 -112 -196 -201 -50 -166 50 -343 216 -383
l50 -12 0 -49 c0 -27 5 -49 10 -49 6 0 10 22 10 49 l0 48 46 7 c102 13 195 82
237 175 30 64 30 187 1 251 -26 57 -92 122 -151 151 -60 29 -162 35 -223 13z"/>
<path d="M2630 5030 c0 -5 23 -10 50 -10 28 0 50 5 50 10 0 6 -22 10 -50 10
-27 0 -50 -4 -50 -10z"/>
<path d="M2830 5011 c0 -5 12 -14 28 -19 15 -5 35 -13 45 -17 33 -13 17 11
-18 28 -40 19 -55 21 -55 8z"/>
<path d="M2482 4989 c-24 -10 -41 -23 -37 -29 4 -6 22 -2 48 11 50 26 50 26
40 32 -4 2 -27 -4 -51 -14z"/>
<path d="M4700 4941 c-14 -4 -20 -10 -14 -13 14 -9 94 3 94 13 0 10 -44 10
-80 0z"/>
<path d="M4880 4933 c0 -5 23 -15 50 -25 56 -18 69 -5 15 18 -38 15 -65 18
-65 7z"/>
<path d="M2990 4912 c0 -14 66 -73 73 -65 4 4 -7 22 -25 40 -31 32 -48 41 -48
25z"/>
<path d="M2315 4885 c-22 -21 -33 -45 -21 -45 6 0 66 60 66 66 0 12 -24 1 -45
-21z"/>
<path d="M4538 4879 c-32 -17 -51 -39 -32 -39 11 0 84 45 84 53 0 11 -11 8
-52 -14z"/>
<path d="M5060 4842 c0 -4 16 -23 35 -42 23 -22 35 -29 35 -19 0 8 -13 27 -28
42 -29 27 -42 33 -42 19z"/>
<path d="M4385 4755 c-38 -50 -26 -66 13 -17 18 22 28 43 23 46 -5 3 -21 -10
-36 -29z"/>
<path d="M3117 4764 c-7 -7 34 -84 46 -84 11 0 9 7 -13 50 -22 42 -23 44 -33
34z"/>
<path d="M2207 4725 c-19 -39 -21 -55 -9 -55 9 0 42 64 42 80 0 21 -17 8 -33
-25z"/>
<path d="M5180 4685 c0 -15 42 -85 50 -85 14 0 13 5 -10 50 -17 34 -40 53 -40
35z"/>
<path d="M4280 4580 c-22 -43 -24 -50 -12 -50 4 0 18 20 30 45 27 55 10 60
-18 5z"/>
<path d="M3204 4565 c12 -48 26 -76 35 -70 12 7 -17 95 -31 95 -6 0 -8 -11 -4
-25z"/>
<path d="M2125 4544 c-17 -42 -19 -54 -6 -54 5 0 14 12 19 28 5 15 13 35 17
45 4 10 3 17 -4 17 -6 0 -18 -16 -26 -36z"/>
<path d="M5267 4504 c-8 -13 15 -94 26 -94 5 0 6 17 2 38 -8 44 -20 68 -28 56z"/>
<path d="M4196 4400 c-19 -47 -19 -50 -7 -50 5 0 16 18 25 40 19 47 19 50 7
50 -5 0 -16 -18 -25 -40z"/>
<path d="M1040 4350 c0 -27 5 -50 10 -50 6 0 10 23 10 50 0 28 -4 50 -10 50
-5 0 -10 -22 -10 -50z"/>
<path d="M2061 4378 c-19 -51 -22 -68 -13 -68 6 0 17 20 25 45 16 45 4 66 -12
23z"/>
<path d="M3265 4368 c11 -55 16 -68 26 -68 11 0 11 2 -2 56 -13 51 -34 61 -24
12z"/>
<path d="M5315 4268 c8 -47 25 -75 25 -41 0 37 -12 83 -22 83 -6 0 -7 -17 -3
-42z"/>
<path d="M4137 4253 c-19 -31 -35 -84 -25 -81 14 5 51 88 38 88 -5 0 -11 -3
-13 -7z"/>
<path d="M1990 4175 c-14 -41 -7 -72 7 -35 20 50 24 70 14 70 -5 0 -15 -16
-21 -35z"/>
<path d="M3307 4203 c-8 -14 7 -86 19 -90 8 -3 9 9 3 43 -10 51 -14 60 -22 47z"/>
<path d="M1050 4150 c0 -27 5 -50 10 -50 6 0 10 23 10 50 0 28 -4 50 -10 50
-5 0 -10 -22 -10 -50z"/>
<path d="M5340 4073 c0 -36 14 -73 24 -63 8 8 -6 100 -15 100 -5 0 -9 -17 -9
-37z"/>
<path d="M4049 4035 c-9 -25 -13 -48 -8 -51 9 -5 23 24 35 71 11 43 -10 27
-27 -20z"/>
<path d="M1930 3989 c-13 -49 -7 -75 9 -36 19 49 24 77 12 77 -5 0 -15 -18
-21 -41z"/>
<path d="M3336 3963 c7 -52 11 -60 20 -50 10 9 -6 97 -17 97 -6 0 -8 -18 -3
-47z"/>
<path d="M1058 3994 c-12 -11 -9 -82 3 -89 18 -12 22 2 13 50 -5 26 -12 43
-16 39z"/>
<path d="M5350 3873 c0 -40 14 -72 26 -61 9 10 -5 98 -17 98 -5 0 -9 -17 -9
-37z"/>
<path d="M3982 3851 c-14 -46 -15 -51 -4 -51 5 0 14 17 20 39 14 46 15 51 4
51 -5 0 -14 -17 -20 -39z"/>
<path d="M1871 3799 c-8 -26 -9 -45 -3 -51 6 -6 14 8 21 36 13 54 13 56 3 56
-5 0 -14 -19 -21 -41z"/>
<path d="M3353 3769 c3 -22 8 -43 11 -46 12 -13 16 6 10 46 -9 54 -28 54 -21
0z"/>
<path d="M1060 3750 c0 -27 5 -50 10 -50 6 0 10 23 10 50 0 28 -4 50 -10 50
-5 0 -10 -22 -10 -50z"/>
<path d="M3916 3670 c-18 -46 -20 -60 -7 -60 5 0 16 21 25 47 19 55 19 53 7
53 -5 0 -16 -18 -25 -40z"/>
<path d="M5360 3660 c0 -27 5 -50 10 -50 6 0 10 23 10 50 0 28 -4 50 -10 50
-5 0 -10 -22 -10 -50z"/>
<path d="M1827 3643 c-13 -22 -24 -83 -16 -89 5 -3 9 -4 9 -2 0 2 7 24 15 51
8 26 10 47 5 47 -5 0 -11 -3 -13 -7z"/>
<path d="M3366 3612 c-10 -16 2 -92 15 -92 10 0 10 43 0 80 -5 17 -9 21 -15
12z"/>
<path d="M1066 3592 c-7 -12 6 -92 15 -92 12 0 11 87 0 95 -5 3 -12 2 -15 -3z"/>
<path d="M3848 3475 c-13 -35 -14 -45 -4 -45 7 0 18 17 24 39 14 45 15 51 4
51 -4 0 -15 -20 -24 -45z"/>
<path d="M5350 3460 c0 -27 5 -50 10 -50 6 0 10 23 10 50 0 28 -4 50 -10 50
-5 0 -10 -22 -10 -50z"/>
<path d="M1766 3433 c-4 -16 -9 -36 -12 -45 -3 -10 -1 -18 5 -18 9 0 31 59 31
83 0 19 -19 4 -24 -20z"/>
<path d="M3370 3370 c0 -27 5 -50 10 -50 6 0 10 23 10 50 0 28 -4 50 -10 50
-5 0 -10 -22 -10 -50z"/>
<path d="M1070 3351 c0 -28 5 -53 10 -56 6 -4 10 15 10 49 0 31 -4 56 -10 56
-5 0 -10 -22 -10 -49z"/>
<path d="M3786 3293 c-19 -55 -19 -53 -7 -53 13 0 42 88 31 95 -4 3 -15 -16
-24 -42z"/>
<path d="M5338 3263 c-5 -54 -4 -58 11 -48 13 8 15 95 2 95 -5 0 -11 -21 -13
-47z"/>
<path d="M1711 3233 c-13 -46 -13 -53 -2 -53 5 0 12 12 15 28 4 15 9 35 12 45
3 9 1 17 -5 17 -5 0 -15 -17 -20 -37z"/>
<path d="M3370 3170 c0 -27 5 -50 10 -50 6 0 10 23 10 50 0 28 -4 50 -10 50
-5 0 -10 -22 -10 -50z"/>
<path d="M1080 3145 c0 -35 4 -54 10 -50 6 3 10 26 10 50 0 24 -4 47 -10 50
-6 4 -10 -15 -10 -50z"/>
<path d="M3730 3126 c-18 -47 -22 -76 -12 -76 11 0 38 88 29 97 -4 3 -11 -6
-17 -21z"/>
<path d="M5318 3060 c-2 -30 1 -49 7 -47 13 5 19 97 7 97 -6 0 -12 -23 -14
-50z"/>
<path d="M1666 3072 c-2 -4 -7 -24 -11 -45 -8 -43 9 -52 19 -9 4 15 9 35 12
45 5 17 -10 24 -20 9z"/>
<path d="M3367 3013 c-11 -10 -8 -83 3 -83 6 0 10 6 10 14 0 7 3 28 6 45 6 29
-3 40 -19 24z"/>
<path d="M1087 2993 c-11 -10 -8 -91 3 -98 6 -4 10 15 10 49 0 57 -1 61 -13
49z"/>
<path d="M3661 2920 c-15 -51 -2 -77 15 -29 7 18 13 42 13 52 2 32 -16 18 -28
-23z"/>
<path d="M5296 2863 c-6 -43 -2 -63 9 -51 11 10 17 98 8 98 -6 0 -13 -21 -17
-47z"/>
<path d="M1616 2882 c-11 -18 -18 -82 -8 -82 5 0 12 12 15 28 3 15 9 35 12 45
7 16 -9 25 -19 9z"/>
<path d="M3356 2783 c-6 -49 -1 -67 14 -43 12 19 13 90 1 90 -4 0 -11 -21 -15
-47z"/>
<path d="M1090 2740 c0 -27 5 -50 10 -50 6 0 10 23 10 50 0 28 -4 50 -10 50
-5 0 -10 -22 -10 -50z"/>
<path d="M3602 2731 c-14 -46 -15 -51 -4 -51 5 0 14 17 20 39 14 46 15 51 4
51 -5 0 -14 -17 -20 -39z"/>
<path d="M5276 2698 c-11 -33 -14 -88 -6 -88 9 0 14 16 23 73 4 27 -10 39 -17
15z"/>
<path d="M1566 2692 c-2 -4 -7 -24 -11 -45 -10 -53 9 -47 22 8 9 39 3 60 -11
37z"/>
<path d="M3346 2614 c-10 -25 -7 -84 4 -84 6 0 10 8 10 19 0 10 3 33 6 50 7
32 -9 44 -20 15z"/>
<path d="M1091 2558 c1 -44 13 -76 23 -59 10 15 -3 91 -15 91 -5 0 -9 -15 -8
-32z"/>
<path d="M3541 2543 c-13 -46 -13 -53 -3 -53 5 0 14 17 20 39 14 47 15 51 2
51 -5 0 -14 -17 -19 -37z"/>
<path d="M1516 2502 c-2 -4 -7 -24 -11 -45 -10 -53 9 -47 22 8 9 39 3 60 -11
37z"/>
<path d="M5248 2500 c-4 -8 -9 -32 -13 -52 -7 -42 11 -54 21 -14 7 30 0 87 -8
66z"/>
<path d="M6947 2488 c-8 -30 9 -47 18 -18 4 12 3 26 -3 32 -6 6 -11 1 -15 -14z"/>
<path d="M3330 2379 c0 -31 4 -48 10 -44 6 3 10 26 10 51 0 24 -4 44 -10 44
-5 0 -10 -23 -10 -51z"/>
<path d="M3492 2383 c-5 -10 -13 -33 -17 -50 -10 -50 11 -40 25 12 13 48 9 70
-8 38z"/>
<path d="M1100 2340 c0 -27 5 -50 10 -50 6 0 10 23 10 50 0 28 -4 50 -10 50
-5 0 -10 -22 -10 -50z"/>
<path d="M6913 2310 c-8 -38 -7 -50 2 -50 7 0 15 17 19 38 8 50 8 62 -3 62 -4
0 -13 -22 -18 -50z"/>
<path d="M1466 2308 c-3 -7 -9 -28 -15 -45 -8 -26 -7 -33 3 -33 7 0 17 20 23
45 6 25 6 45 1 45 -5 0 -10 -6 -12 -12z"/>
<path d="M5210 2298 c0 -7 -3 -30 -6 -50 -5 -31 -4 -38 10 -38 13 0 16 10 16
50 0 28 -4 50 -10 50 -5 0 -10 -6 -10 -12z"/>
<path d="M3310 2185 c0 -25 4 -45 9 -45 5 0 11 20 13 45 2 31 -1 45 -9 45 -9
0 -13 -16 -13 -45z"/>
<path d="M3421 2166 c-13 -54 -13 -56 -3 -56 9 0 32 66 32 89 0 28 -19 7 -29
-33z"/>
<path d="M1104 2174 c3 -9 6 -31 6 -50 0 -19 5 -34 10 -34 6 0 10 23 10 50 0
39 -3 50 -16 50 -11 0 -14 -5 -10 -16z"/>
<path d="M6872 2118 c-14 -55 2 -75 17 -22 13 47 14 64 2 64 -5 0 -13 -19 -19
-42z"/>
<path d="M1416 2118 c-3 -7 -9 -28 -15 -45 -8 -26 -7 -33 3 -33 7 0 17 20 23
45 6 25 6 45 1 45 -5 0 -10 -6 -12 -12z"/>
<path d="M5210 2045 c0 -30 5 -55 10 -55 6 0 10 25 10 55 0 30 -4 55 -10 55
-5 0 -10 -25 -10 -55z"/>
<path d="M3297 2033 c-11 -10 -8 -93 3 -93 6 0 10 15 10 34 0 19 3 41 6 50 6
16 -7 22 -19 9z"/>
<path d="M3363 1978 c-6 -23 -9 -47 -5 -52 6 -11 30 47 31 77 2 33 -15 17 -26
-25z"/>
<path d="M1110 1940 c0 -27 5 -50 10 -50 6 0 10 23 10 50 0 28 -4 50 -10 50
-5 0 -10 -22 -10 -50z"/>
<path d="M6826 1934 c-4 -19 -10 -42 -13 -50 -3 -8 0 -14 5 -14 10 0 32 60 32
88 0 27 -18 10 -24 -24z"/>
<path d="M1353 1895 c-13 -59 5 -56 22 3 10 33 10 42 1 42 -7 0 -17 -20 -23
-45z"/>
<path d="M5212 1840 c3 -28 8 -53 12 -57 13 -13 17 6 10 56 -9 67 -28 68 -22
1z"/>
<path d="M3270 1800 c0 -22 0 -43 0 -47 0 -5 3 -8 8 -8 4 0 12 -3 18 -7 6 -4
17 12 27 43 18 57 1 65 -19 8 l-12 -34 -1 43 c-1 53 -21 56 -21 2z"/>
<path d="M1120 1740 c0 -27 5 -50 10 -50 6 0 10 23 10 50 0 28 -4 50 -10 50
-5 0 -10 -22 -10 -50z"/>
<path d="M6766 1733 c-19 -55 -19 -53 -7 -53 13 0 42 88 31 95 -4 3 -15 -16
-24 -42z"/>
<path d="M1306 1723 c-4 -16 -9 -36 -12 -45 -3 -10 -1 -18 4 -18 10 0 32 52
32 76 0 25 -18 15 -24 -13z"/>
<path d="M5234 1623 c6 -48 12 -61 22 -51 9 10 -7 98 -18 98 -7 0 -8 -17 -4
-47z"/>
<path d="M3250 1619 c0 -20 4 -29 9 -23 15 15 17 47 4 51 -9 3 -13 -6 -13 -28z"/>
<path d="M1120 1547 c0 -43 6 -60 19 -53 10 6 0 96 -10 96 -5 0 -9 -19 -9 -43z"/>
<path d="M6697 1549 c-21 -54 -9 -75 14 -23 20 44 23 64 11 64 -5 0 -16 -19
-25 -41z"/>
<path d="M1251 1523 c-13 -46 -13 -53 -3 -53 5 0 14 17 20 39 14 47 15 51 2
51 -5 0 -14 -17 -19 -37z"/>
<path d="M5271 1419 c11 -48 16 -59 29 -59 12 0 -14 93 -27 97 -8 3 -8 -8 -2
-38z"/>
<path d="M6610 1361 c-26 -52 -10 -62 18 -12 25 43 26 51 12 51 -5 0 -19 -18
-30 -39z"/>
<path d="M1130 1340 c0 -27 5 -50 10 -50 6 0 10 23 10 50 0 28 -4 50 -10 50
-5 0 -10 -22 -10 -50z"/>
<path d="M1197 1343 c-3 -16 -9 -36 -12 -45 -4 -10 -3 -18 3 -18 6 0 17 20 25
45 13 36 13 45 3 45 -8 0 -16 -12 -19 -27z"/>
<path d="M5330 1245 c0 -20 32 -85 42 -85 13 0 9 18 -12 60 -22 42 -30 49 -30
25z"/>
<path d="M6506 1190 c-16 -25 -21 -40 -14 -40 11 0 58 61 58 75 0 16 -21 0
-44 -35z"/>
<path d="M1130 1165 c0 -30 25 -34 33 -6 5 22 0 31 -20 31 -7 0 -13 -11 -13
-25z"/>
<path d="M6380 1045 c-19 -19 -30 -38 -26 -42 3 -4 23 9 42 29 20 19 32 38 27
41 -6 4 -25 -9 -43 -28z"/>
<path d="M5430 1061 c0 -6 16 -22 35 -37 25 -19 39 -24 46 -17 8 8 5 13 -9 17
-11 4 -27 15 -37 26 -19 21 -35 26 -35 11z"/>
<path d="M5606 951 c16 -16 83 -40 88 -32 3 4 -11 15 -30 24 -38 18 -74 23
-58 8z"/>
<path d="M6213 932 c-32 -15 -44 -32 -23 -32 16 0 80 33 80 42 0 11 -20 8 -57
-10z"/>
<path d="M5790 891 c0 -5 8 -12 18 -14 50 -14 71 -16 76 -8 4 5 -8 12 -26 16
-18 4 -41 9 -50 11 -10 3 -18 1 -18 -5z"/>
<path d="M5990 870 c0 -5 20 -10 44 -10 25 0 48 5 51 10 4 6 -13 10 -44 10
-28 0 -51 -4 -51 -10z"/>
<path d="M235 4403 c-10 -142 1 -1246 15 -1483 24 -431 58 -723 104 -893 l23
-87 -21 6 c-12 4 -27 9 -33 11 -7 3 -13 1 -13 -5 0 -8 74 -42 92 -42 5 0 38
84 38 97 0 2 -4 3 -10 3 -5 0 -12 -11 -16 -25 -10 -42 -21 -29 -42 53 -83 312
-129 1101 -120 2030 4 429 -2 555 -17 335z"/>
<path d="M2684 4265 c-57 -24 -128 -132 -193 -298 -35 -86 -37 -97 -18 -97 6
0 23 28 36 63 37 98 111 235 146 273 21 22 42 34 59 34 23 0 31 -8 51 -52 13
-29 31 -96 40 -148 22 -139 22 -137 -24 -101 -39 31 -61 39 -61 22 0 -15 109
-103 124 -99 18 4 96 96 96 114 0 23 -13 16 -51 -28 l-36 -41 -7 64 c-10 91
-35 198 -57 240 -29 58 -59 74 -105 54z"/>
<path d="M4551 4064 c-34 -29 -82 -115 -112 -203 -22 -64 -23 -71 -6 -71 6 0
27 41 46 90 36 96 82 170 106 170 21 0 43 -48 54 -121 17 -104 17 -105 -29
-68 -28 22 -44 29 -51 22 -11 -11 89 -103 113 -103 23 1 101 98 94 117 -6 14
-14 9 -44 -26 l-38 -44 -12 83 c-13 91 -36 146 -68 167 -19 12 -25 11 -53 -13z"/>
<path d="M4449 3619 l-24 -20 23 6 c21 6 22 4 22 -54 0 -34 4 -61 10 -61 12 0
13 137 1 144 -5 3 -20 -3 -32 -15z"/>
<path d="M4585 3620 c-10 -11 -13 -20 -7 -20 6 0 14 5 17 10 3 6 15 10 26 10
27 0 26 -40 -2 -47 -20 -5 -20 -6 3 -17 12 -6 24 -19 26 -27 4 -24 -27 -32
-54 -14 -25 16 -33 8 -12 -13 19 -19 66 -15 78 7 11 22 4 51 -13 51 -7 0 -7 4
1 12 18 18 14 46 -7 58 -27 14 -35 13 -56 -10z"/>
<path d="M2499 3549 l-24 -20 23 6 c21 6 22 4 22 -54 0 -34 4 -61 10 -61 12 0
13 137 1 144 -5 3 -20 -3 -32 -15z"/>
<path d="M2648 3559 c-10 -5 -18 -17 -18 -26 0 -15 2 -15 13 1 14 19 48 19 54
0 2 -6 -15 -34 -37 -63 l-40 -51 50 0 c32 0 49 4 45 10 -3 6 -17 10 -31 10
l-25 0 25 33 c28 37 33 66 14 85 -14 14 -27 15 -50 1z"/>
<path d="M29 3499 l-24 -20 23 6 c21 6 22 4 22 -54 0 -34 4 -61 10 -61 12 0
13 137 1 144 -5 3 -20 -3 -32 -15z"/>
<path d="M150 3499 c-24 -20 -24 -20 -2 -14 21 6 22 4 22 -54 0 -34 4 -61 10
-61 12 0 14 136 2 144 -4 2 -19 -4 -32 -15z"/>
<path d="M4520 3500 c0 -5 5 -10 10 -10 6 0 10 5 10 10 0 6 -4 10 -10 10 -5 0
-10 -4 -10 -10z"/>
<path d="M2570 3430 c0 -5 5 -10 10 -10 6 0 10 5 10 10 0 6 -4 10 -10 10 -5 0
-10 -4 -10 -10z"/>
<path d="M100 3380 c0 -5 5 -10 10 -10 6 0 10 5 10 10 0 6 -4 10 -10 10 -5 0
-10 -4 -10 -10z"/>
<path d="M5579 179 l-24 -20 23 6 c21 6 22 4 22 -54 0 -34 4 -61 10 -61 12 0
13 137 1 144 -5 3 -20 -3 -32 -15z"/>
<path d="M5735 148 c-19 -29 -35 -56 -35 -60 0 -5 16 -8 35 -8 24 0 35 -5 35
-15 0 -8 5 -15 10 -15 6 0 10 7 10 15 0 8 5 15 12 15 9 0 9 3 0 12 -7 7 -12
31 -12 54 0 24 -4 45 -10 49 -5 3 -25 -18 -45 -47z m35 -13 c0 -28 -4 -35 -20
-35 -11 0 -20 3 -20 6 0 7 33 64 37 64 2 0 3 -16 3 -35z"/>
<path d="M5650 60 c0 -5 5 -10 10 -10 6 0 10 5 10 10 0 6 -4 10 -10 10 -5 0
-10 -4 -10 -10z"/>
</g>
</svg>
