<svg width="1027" height="686" viewBox="0 0 1027 686" fill="none" xmlns="http://www.w3.org/2000/svg">
<path d="M265.943 241.999C267.342 228.935 246.308 212.45 235.616 205.84C223.952 193.243 221.814 174.153 222.202 166.182C222.397 156.268 229.317 131.423 255.445 111.361C281.572 91.2986 310.266 97.1696 321.347 102.613C336.705 108.056 373.369 118.942 397.163 118.942C420.958 118.942 449.846 108.056 461.316 102.613C434.294 125.552 375.002 178.313 354.006 205.84C333.011 233.368 312.21 300.513 304.434 330.645C294.52 381.967 274.691 485.078 274.691 486.944C274.691 489.277 250.196 600.086 210.538 618.165C170.88 636.244 152.218 628.079 134.722 610.583C117.226 593.087 116.059 538.266 114.893 517.271C113.726 496.275 95.0639 493.943 79.3174 498.608C63.5709 503.274 14.5818 546.431 5.83373 567.426C-2.91433 588.422 9.91615 604.168 26.2459 628.079C42.5756 651.991 88.6487 677.068 138.221 681.734C187.793 686.4 209.372 680.568 256.028 667.737C302.684 654.907 327.179 626.33 355.756 597.17C384.333 568.009 405.911 519.02 415.826 494.526C423.758 474.93 436.238 422.597 441.487 398.88L461.316 282.24C465.981 255.218 477.179 194.176 484.644 166.182C492.109 138.188 506.806 109.806 513.221 99.1136C517.692 92.8927 530.95 75.7854 548.213 57.1229C569.792 33.7948 562.793 33.2115 556.961 22.1307C552.296 13.266 534.799 7.16178 526.635 5.21777C524.302 3.85696 515.204 3.93472 497.474 15.1322C479.745 26.3297 458.594 26.7963 450.235 25.6299C435.655 26.2131 423.408 20.9645 383.75 7.55086C344.092 -5.86282 298.602 13.9661 281.689 20.9645C264.776 27.963 215.787 68.7873 194.792 95.6146C173.796 122.442 162.716 144.604 153.967 170.265C146.969 190.793 147.941 225.086 149.302 239.666C151.635 254.829 162.132 278.157 174.963 293.321C185.227 305.451 204.901 306.54 213.454 305.568C226.285 299.736 230.95 297.986 243.781 285.156C256.611 272.325 264.193 258.328 265.943 241.999Z" stroke="black" stroke-width="5"/>
<path d="M201 260.999C166.833 168.166 212 -17.0011 491 56.9992C474 113.499 391 391 303 591.999C257.5 672 108.5 697 41 559" stroke="black" stroke-width="2" stroke-dasharray="10 10"/>
<path d="M581.574 147.248C617.138 144.911 628.625 159.686 629.923 167.366L624.406 263.74L618.241 443.507C619.431 426.85 622.524 389.188 625.38 371.795C628.949 350.054 642.253 305.599 648.419 288.077C654.584 270.554 673.729 237.132 686.059 221.881C698.39 206.63 710.396 197.868 730.839 186.511C751.282 175.154 786.327 178.074 797.684 180.021C809.041 181.968 834.676 189.432 854.145 208.576C873.615 227.721 877.509 240.377 884.648 259.197C890.359 274.253 888.758 314.144 887.243 332.207L878.807 477.254C877.184 518.248 880.299 600.171 905.739 599.912C937.539 599.587 959.28 526.901 963.823 515.544C967.457 506.459 979.399 461.138 984.915 439.614C984.915 431.826 988.744 416.575 1004.06 417.873C1019.38 419.171 1023.64 436.801 1023.85 445.454C1024.61 442.21 1024.05 445.519 1015.74 484.718C1007.43 523.916 991.729 562.055 984.915 576.224C978.858 590.502 961.097 621.977 938.513 633.659C910.282 648.261 897.627 649.234 866.801 644.367C835.974 639.5 818.127 622.951 798.658 589.528C783.082 562.79 775.943 520.844 774.321 503.214C773.564 476.497 773.088 416.38 777.241 389.642C782.433 356.22 784.705 292.944 783.407 267.634C782.109 242.323 773.023 230.317 758.096 229.668C743.17 229.019 732.786 240.377 719.157 254.654C705.529 268.932 680.543 335.777 677.298 343.564C674.702 349.795 663.021 391.805 657.504 412.032C648.743 436.044 637.386 511.001 633.817 531.12C630.961 547.215 627.868 591.042 626.678 610.944C623.217 617.759 608.831 631.322 578.978 631.063C541.661 630.738 536.794 607.375 532.576 591.8C528.357 576.224 523.165 518.14 520.894 485.042C519.077 458.564 517.541 369.307 517 327.989L520.245 244.595C520.461 231.399 522.711 199.101 529.98 175.478C537.248 151.856 567.404 146.815 581.574 147.248Z" stroke="black" stroke-width="5"/>
<path d="M569 197V591C619 485.5 670.746 274.5 713 230.5C773.5 167.5 861.5 197 844.5 420C844.5 546 844.5 578.5 861.5 610.5C893.5 635.5 981.8 631.6 999 464" stroke="black" stroke-width="2" stroke-dasharray="10 10"/>
</svg>
