<svg width="2953" height="848" viewBox="0 0 2953 848" fill="none" xmlns="http://www.w3.org/2000/svg">
<path d="M108.694 183.971C52.6936 172.47 -63.3063 340.97 52.6936 561.471C109.193 657.97 312.693 783.47 475.193 592.971C530.193 600.47 636.093 550.971 673.693 458.971C678.027 397.971 687.893 274.371 692.693 267.971L779.693 262.971C684.193 486.47 762.693 778.47 993.193 619.971C1114.69 729.97 1238.99 581.171 1264.19 515.971C1264.19 774.47 1467.79 625.471 1532.19 551.471C1534.86 578.471 1546.39 632.271 1571.19 631.471C1585.36 632.637 1617.49 630.771 1632.69 613.971C1643.53 534.471 1670.79 366.471 1693.19 330.471C1724.69 234.471 1805.69 170.971 1789.69 330.471C1777.86 414.637 1772.19 593.871 1844.19 637.471C1883.69 654.971 1970.69 662.271 2002.69 551.471C2061.19 600.304 2189.59 645.971 2235.19 437.971C2235.36 486.304 2233.99 586.071 2227.19 598.471C2151.69 621.637 2026.69 676.47 2044.19 767.471C2056.77 832.847 2154.19 883.97 2255.69 805.471C2293.69 782.47 2364.19 672.47 2371.19 598.471L2462.19 542.971C2511.69 692.97 2705.39 655.271 2812.19 564.471C2858.53 519.971 2950.99 406.371 2950.19 307.971C2947.03 290.471 2928.89 264.271 2881.69 299.471C2867.53 354.471 2822.89 474.471 2757.69 514.471C2726.69 538.471 2651.89 577.771 2600.69 542.971C2591.03 537.971 2570.89 518.971 2567.69 482.971C2627.19 448.137 2754.89 353.671 2789.69 254.471C2792.86 198.971 2764.69 102.371 2626.69 159.971C2565.53 188.471 2445.09 291.771 2452.69 476.971L2364.19 530.971V192.971C2350.19 173.804 2306.29 143.971 2242.69 177.971C2234.86 190.137 2220.79 218.471 2227.19 234.471C2192.53 188.637 2095.29 122.571 1983.69 224.971C1948.69 269.637 1897.09 390.371 1970.69 515.971C1946.53 577.804 1895.89 664.371 1886.69 515.971C1887.36 475.637 1890.39 373.271 1897.19 286.471C1902.01 224.971 1789.69 109.97 1693.19 224.971C1668.36 264.971 1620.09 363.571 1625.69 437.971L1638.69 170.971C1621.03 154.471 1576.19 132.771 1538.19 177.971C1531.03 249.971 1519.79 408.871 1532.19 468.471C1481.86 518.971 1389.19 587.571 1421.19 457.971L1499.19 162.471H1455.19L1351.69 224.971C1337.36 180.637 1268.29 116.971 1106.69 216.971C1044.69 257.137 928.893 381.671 961.693 558.471C940.86 585.304 896.793 618.871 887.193 538.471C890.693 461.471 900.993 302.071 914.193 280.471C914.193 251.304 896.693 193.471 826.693 195.471C787.36 192.637 703.793 189.971 684.193 201.971C679.527 178.637 654.993 141.271 594.193 178.471C580.027 199.137 566.493 245.971 625.693 267.971L607.193 458.971C587.36 485.971 538.893 537.571 503.693 527.971C537.36 440.304 578.793 231.871 475.193 99.4706C360.169 -47.5298 141.193 -32.0302 108.694 183.971Z" stroke="black" stroke-width="5"/>
<path d="M153.193 392.47C167.36 514.636 236.593 724.57 400.193 586.97C335.027 576.97 194.393 524.07 153.193 392.47Z" stroke="black" stroke-width="5"/>
<path d="M360.692 104.969C467.892 257.769 448.359 450.636 425.192 527.969C211.192 483.969 175.692 270.636 184.692 169.469C214.292 19.8695 314.359 64.1361 360.692 104.969Z" stroke="black" stroke-width="5"/>
<path d="M644.695 203.969C636.194 194.97 609.194 207.469 625.695 226.469C634.815 236.97 661.699 221.97 644.695 203.969Z" stroke="black" stroke-width="5"/>
<path d="M1130.69 396.97C1229.49 157.37 1282.53 225.803 1296.69 289.97C1292.29 362.37 1254.53 438.47 1236.19 467.47C1104.99 609.47 1111.19 479.636 1130.69 396.97Z" stroke="black" stroke-width="5"/>
<path d="M2168.69 482.969C2197.49 451.769 2203.69 335.302 2203.19 280.969C2144.39 212.169 2113.69 236.665 2087.69 255.97C2025.69 330.97 2058.69 423.97 2070.19 478.97C2104.69 565.97 2148.19 518.802 2168.69 482.969Z" stroke="black" stroke-width="5"/>
<path d="M2557.69 411.969C2613.03 374.469 2714.99 284.569 2680.19 224.969C2647.19 214.969 2576.49 238.369 2557.69 411.969Z" stroke="black" stroke-width="5"/>
<path d="M2221.19 659.97C2171.36 679.97 2083.39 731.77 2130.19 778.97C2151.36 789.303 2199.19 779.97 2221.19 659.97Z" stroke="black" stroke-width="5"/>
<path d="M142.999 204.5C78.4995 343.667 23.5995 628.4 319.999 654C399.666 637 541.7 523.3 472.5 204.5C388 81 203.799 -91.8999 142.999 204.5ZM142.999 204.5C153.333 337 240.6 593.7 507 560.5C546.5 552.5 630.7 515.2 651.5 430L667 238M667 238C670.167 211.167 663.9 164.6 613.5 193C600.667 216.833 593.4 259.2 667 238ZM667 238C713.667 241.5 814.5 246.4 844.5 238C815.167 425.167 803.1 755.8 989.5 581L1041.5 535M1041.5 535C1060 573.667 1138.7 609.7 1305.5 444.5L1354.5 385M1041.5 535C1030.3 411 1085.5 317.667 1114.5 286.5C1267.3 124.9 1355.75 250.5 1380.88 333.5M1354.5 385C1264.5 586 1384 658.5 1577 494.5M1354.5 385L1380.88 333.5M1577 494.5V204.5M1577 494.5L1586.5 585.74M1587 590.5L1586.5 585.74M1586.5 585.74C1625.34 431.16 1721.5 142 1795.5 222C1809.33 231 1836 264.2 1832 325C1831.17 493.833 1862.2 772.2 1993 535L2018 488.5M2018 488.5C1998 315.667 2022.1 41 2278.5 325M2018 488.5C2117.6 663.7 2233.17 452.5 2278.5 325M2278.5 325C2294.17 478.5 2291.7 790.6 2156.5 811C2128.33 816.5 2078.3 805.1 2103.5 715.5C2186.17 658.167 2380.2 532.5 2495 488.5C2586 430.667 2758.8 292.4 2722 202C2689.5 150 2488.3 187.8 2517.5 499C2536.5 544.333 2597.5 625 2689.5 585C2747 563.167 2871.4 479.1 2909 317.5M2278.5 325V222M1438 222L1380.88 333.5" stroke="black" stroke-width="3" stroke-dasharray="10 10"/>
</svg>
