<?xml version="1.0" encoding="UTF-8"?>
<svg version="1.1" xmlns="http://www.w3.org/2000/svg" width="1268" height="899">
<path d="M0 0 C13.08071662 11.09813683 13.08071662 11.09813683 13.81730902 18.6880877 C13.8207265 20.19861518 13.8207265 20.19861518 13.82421303 21.73965836 C13.83167852 22.90410988 13.83914401 24.06856141 13.84683573 25.26829934 C13.844901 26.54844281 13.84296626 27.82858628 13.8409729 29.14752197 C13.84597484 30.52041127 13.85185033 31.89329762 13.85852563 33.2661798 C13.87435208 37.04247995 13.87775776 40.81870576 13.87917423 44.59503508 C13.88286367 48.66591741 13.89801685 52.73675874 13.91178894 56.80761719 C13.93407995 63.86189598 13.94908215 70.91616021 13.95915604 77.97046661 C13.97373174 88.16984726 13.99926543 98.36917721 14.02748732 108.56852815 C14.0729755 125.115659 14.10958193 141.66279714 14.140625 158.20996094 C14.17080225 174.2854948 14.20514872 190.36101081 14.24511719 206.43652344 C14.24757874 207.42715508 14.25004028 208.41778671 14.25257643 209.43843749 C14.26495087 214.40806678 14.27740743 219.37769586 14.28990483 224.34732485 C14.39350295 265.58569175 14.4826962 306.82408062 14.5625 348.0625 C15.81712973 346.97088305 17.07085717 345.87822902 18.32421875 344.78515625 C19.02248779 344.17679932 19.72075684 343.56844238 20.44018555 342.94165039 C40.6990459 325.00394785 54.65334741 300.51460425 67.5625 277.0625 C68.32549877 275.70311262 69.08851816 274.34373681 69.8515625 272.984375 C85.8461495 244.06275492 97.51954258 212.59805632 107.9375 181.3125 C108.3223909 180.16027451 108.3223909 180.16027451 108.71505737 178.98477173 C111.05844673 171.95292133 113.37789309 164.93526751 115.296875 157.7734375 C118.84576719 144.63869195 118.84576719 144.63869195 124.5625 141 C127 139.90234375 127 139.90234375 129.5625 139.0625 C130.50609375 138.70285156 131.4496875 138.34320313 132.421875 137.97265625 C139.1860706 136.01238563 146.87446299 135.75119795 153.55078125 138.125 C164.88959952 144.45684389 169.98907426 156.01641551 173.4375 168.0625 C176.06697551 177.58396922 173.19798218 187.67649106 170.875 197 C170.6066333 198.09046631 170.3382666 199.18093262 170.06176758 200.30444336 C159.92892529 240.8743179 143.89623606 280.8294685 119.5625 315.0625 C118.77708431 316.1847143 117.99194342 317.30712096 117.20703125 318.4296875 C96.9769856 347.20183624 73.42902663 374.42583943 45.5625 396.0625 C44.9845166 396.51302734 44.4065332 396.96355469 43.81103516 397.42773438 C35.01623274 404.25219126 25.98261966 410.60292408 16.59765625 416.58984375 C15.94804932 417.01040039 15.29844238 417.43095703 14.62915039 417.86425781 C12.5625 419.0625 12.5625 419.0625 10.16577148 420.01855469 C6.3077488 421.65455905 4.09258506 422.80958195 2.41772461 426.76831055 C1.58393158 430.31439107 1.01225391 433.83089372 0.5 437.4375 C0.04076681 440.17388632 -0.44863593 442.90479104 -0.93359375 445.63671875 C-1.11426392 446.68751366 -1.11426392 446.68751366 -1.29858398 447.75953674 C-9.36066668 494.19487876 -27.55330923 544.9576002 -55.4375 583.0625 C-55.87384766 583.66433105 -56.31019531 584.26616211 -56.75976562 584.88623047 C-71.55819306 605.23657131 -87.8777035 624.30997435 -108.4375 639.0625 C-109.03385254 639.49256348 -109.63020508 639.92262695 -110.24462891 640.36572266 C-119.49183162 646.9589315 -129.10681463 652.35966731 -139.4375 657.0625 C-141.22220703 657.88041016 -141.22220703 657.88041016 -143.04296875 658.71484375 C-156.90048493 664.65377925 -172.3142811 668.75653892 -187.4375 669.0625 C-188.35015625 669.10117187 -189.2628125 669.13984375 -190.203125 669.1796875 C-223.19754301 669.9570429 -259.66258422 663.65977595 -284.36401367 640.14501953 C-285.73583022 638.79828147 -287.08717009 637.43078112 -288.4375 636.0625 C-289.17613281 635.32257812 -289.91476562 634.58265625 -290.67578125 633.8203125 C-308.99457286 614.39883634 -315.90873124 587.19730236 -315.4375 561.0625 C-314.53308628 538.87190889 -307.01186153 522.84711541 -291.4375 507.0625 C-290.90253906 506.5048999 -290.36757813 505.9472998 -289.81640625 505.37280273 C-285.64007079 501.0786823 -281.22056133 497.34936043 -276.4375 493.75 C-275.69185791 493.18659912 -274.94621582 492.62319824 -274.17797852 492.04272461 C-240.74852809 466.99814855 -202.81029804 448.77074362 -164.25 433.125 C-163.48570679 432.8140741 -162.72141357 432.50314819 -161.93395996 432.18280029 C-153.68389178 428.83608291 -145.39494493 425.62020888 -137.01171875 422.62109375 C-136.29474319 422.36207779 -135.57776764 422.10306183 -134.83906555 421.8361969 C-131.90482585 420.80358881 -129.57259358 420.0625 -126.4375 420.0625 C-126.44910156 419.11439453 -126.46070313 418.16628906 -126.47265625 417.18945312 C-126.55957953 406.10940989 -126.31526652 395.04325067 -126 383.96875 C-125.97802551 383.19299622 -125.95605103 382.41724243 -125.93341064 381.61798096 C-125.72528541 374.30244479 -125.50968639 366.9871319 -125.29199219 359.671875 C-125.1491254 354.85427395 -125.01001798 350.03657747 -124.875 345.21875 C-124.85318665 344.4407605 -124.83137329 343.662771 -124.80889893 342.86120605 C-124.41645327 328.5922844 -124.31722704 314.33705006 -124.4375 300.0625 C-124.60902588 300.63149017 -124.78055176 301.20048035 -124.95727539 301.78671265 C-131.96296973 324.91262159 -142.09700405 346.56659825 -156.4375 366.0625 C-156.86144043 366.65708008 -157.28538086 367.25166016 -157.72216797 367.86425781 C-169.06296095 383.71908745 -183.57960242 399.08221094 -200.4375 409.0625 C-201.05657227 409.42907715 -201.67564453 409.7956543 -202.31347656 410.17333984 C-227.23143537 424.52212928 -259.53908257 425.81008256 -286.99511719 418.74267578 C-306.84531371 413.21462225 -325.25831909 403.79961541 -341.4375 391.0625 C-342.22036377 390.45100098 -342.22036377 390.45100098 -343.01904297 389.82714844 C-364.08376049 373.18228927 -382.35895795 352.57872465 -395.4375 329.0625 C-395.4375 328.4025 -395.4375 327.7425 -395.4375 327.0625 C-401.86882147 332.55835653 -408.00990827 338.18111581 -413.50878906 344.62231445 C-420.92675693 353.13238695 -429.05237507 361.02229217 -437.00244141 369.0324707 C-439.11273785 371.16044511 -441.21421577 373.29655577 -443.30810547 375.44067383 C-455.75871642 388.18260951 -468.0590951 399.8234589 -483.4375 409.0625 C-484.52391533 409.72271652 -484.52391533 409.72271652 -485.63227844 410.39627075 C-506.98576713 423.31183242 -531.56850116 433.00833684 -556.90234375 427.18359375 C-564.69150908 424.98126574 -571.19066991 421.13946918 -577.4375 416.0625 C-578.26765625 415.44503906 -579.0978125 414.82757812 -579.953125 414.19140625 C-582.66244453 411.86974093 -584.5180519 409.48084945 -586.5625 406.5625 C-587.22507812 405.6240625 -587.88765625 404.685625 -588.5703125 403.71875 C-589.18648437 402.8421875 -589.80265625 401.965625 -590.4375 401.0625 C-591.43178374 399.72489856 -592.42950418 398.38979884 -593.4375 397.0625 C-593.85410889 397.45405273 -594.27071777 397.84560547 -594.69995117 398.24902344 C-602.29341672 405.38332015 -609.89498424 412.50750777 -617.56225586 419.5625 C-621.13228102 422.84994178 -624.6837658 426.15638126 -628.22314453 429.47680664 C-629.52516476 430.69354665 -630.83209537 431.90505479 -632.14404297 433.11108398 C-634.77357869 435.53116663 -637.30533464 437.91401509 -639.68359375 440.5859375 C-648.12945209 449.72853667 -663.026642 450.04041752 -674.8125 450.9375 C-687.78429543 451.44645374 -699.97349685 449.88830899 -710.375 441.5 C-717.4740435 434.11699476 -719.01836862 424.5096441 -718.91455078 414.62817383 C-718.4713884 403.37510421 -715.89830426 392.62067373 -707.80859375 384.38671875 C-706.84050781 383.51660156 -705.87242187 382.64648438 -704.875 381.75 C-704.3497876 381.2763501 -703.8245752 380.8027002 -703.28344727 380.31469727 C-699.021348 376.50278823 -694.60645013 372.8936062 -690.15234375 369.30859375 C-687.33076505 366.9741941 -684.63159288 364.54259402 -681.9375 362.0625 C-678.38079756 358.78831577 -674.76588189 355.65607567 -671 352.625 C-666.46433557 348.96678985 -662.1804883 345.11507035 -657.91821289 341.14868164 C-653.83088994 337.36759442 -649.55706756 333.86560034 -645.21875 330.375 C-642.19730664 327.86278867 -639.31309922 325.23847543 -636.4375 322.5625 C-631.82748361 318.2729224 -627.05966764 314.25839103 -622.15234375 310.30859375 C-619.33076505 307.9741941 -616.63159288 305.54259402 -613.9375 303.0625 C-610.38079756 299.78831577 -606.76588189 296.65607567 -603 293.625 C-598.41006022 289.92026289 -594.040316 286.04012257 -589.72924805 282.01904297 C-586.25866339 278.78440094 -582.6887926 275.72649186 -578.9609375 272.79296875 C-574.84399392 268.11654309 -574.21102732 260.12329538 -572.84643555 254.1784668 C-572.59392532 253.08896729 -572.3414151 251.99946777 -572.08125305 250.87695312 C-571.24276765 247.25585127 -570.40845998 243.63380055 -569.57421875 240.01171875 C-568.98068288 237.44394213 -568.38691305 234.87621957 -567.79292297 232.30854797 C-566.53929254 226.88754101 -565.28782867 221.46603766 -564.0378418 216.04418945 C-562.32624084 208.62011346 -560.61053669 201.19699064 -558.89404655 193.7740438 C-550.67332422 158.21911313 -542.53079248 122.64665388 -534.4375 87.0625 C-521.65133092 85.10061356 -508.86431569 83.14434803 -496.07619381 81.19522858 C-490.13801637 80.28997286 -484.20014631 79.38279289 -478.26293945 78.47119141 C-472.53186846 77.59131294 -466.80004207 76.71652049 -461.06765938 75.8452301 C-458.88216113 75.51213626 -456.69693996 75.17721917 -454.51200676 74.84043884 C-451.44874365 74.36859538 -448.38455436 73.90327818 -445.32006836 73.43945312 C-444.41951218 73.29919205 -443.51895599 73.15893097 -442.59111023 73.01441956 C-437.81106272 72.29844077 -433.27090283 71.91818647 -428.4375 72.0625 C-436.02984177 101.18589412 -443.73558893 130.27782248 -451.51591873 159.35152817 C-452.38882267 162.61416472 -453.26113548 165.87695879 -454.13327026 169.13980103 C-460.2470605 192.01200654 -466.37573069 214.87999717 -472.5703125 237.73046875 C-472.80633997 238.6014986 -473.04236744 239.47252846 -473.28554726 240.36995316 C-475.48795089 248.49760371 -477.69223031 256.62472384 -479.90776825 264.74880505 C-480.69655222 267.64332434 -481.48278724 270.53853202 -482.26847458 273.4338932 C-482.79356609 275.36521126 -483.3221943 277.29556671 -483.85098267 279.22587585 C-486.43116379 288.74219093 -488.79558567 297.91129335 -488.75 307.8125 C-488.76611328 308.52792969 -488.78222656 309.24335937 -488.79882812 309.98046875 C-488.80398175 315.59792004 -487.27789624 319.25347416 -484.25 323.875 C-480.53083611 326.31169358 -476.47184928 326.3370517 -472.20721436 325.76150513 C-464.14390139 323.76915749 -459.13987502 318.99517426 -453.328125 313.3046875 C-452.30640698 312.3182533 -451.28457456 311.33193758 -450.26263428 310.34573364 C-448.13519344 308.28242283 -446.02368931 306.20412444 -443.91992188 304.11669922 C-441.77181581 301.9904245 -439.59700781 299.89921609 -437.390625 297.83349609 C-424.33468729 286.82234579 -424.33468729 286.82234579 -417.44091797 272.296875 C-417.63535343 268.65663643 -418.57902028 265.38432067 -419.81176758 261.96905518 C-420.80819205 258.93303184 -421.01213186 255.87466045 -421.2890625 252.703125 C-421.48314697 250.90548706 -421.48314697 250.90548706 -421.68115234 249.0715332 C-428.24012617 184.41819132 -420.38700946 112.68497733 -380.4375 59.0625 C-380.03740723 58.52399414 -379.63731445 57.98548828 -379.22509766 57.43066406 C-350.5682396 19.15690475 -312.56946851 0.16416722 -265.4375 -6.9375 C-226.1529301 -12.12752695 -186.42932694 -3.00538438 -154.3125 20.375 C-144.41740898 28.04336615 -135.59369029 36.5675411 -127.4375 46.0625 C-127.251875 44.78632813 -127.251875 44.78632813 -127.0625 43.484375 C-124.46296994 28.21213587 -118.93438038 9.87149043 -108.4375 -1.9375 C-78.45679773 -21.4992253 -28.40274479 -21.80542549 0 0 Z M-65.3125 -8.8125 C-66.20799561 -8.68488281 -67.10349121 -8.55726563 -68.02612305 -8.42578125 C-77.01186451 -7.02944939 -85.66963601 -4.62652281 -94.26098633 -1.66479492 C-96.4375 -0.9375 -96.4375 -0.9375 -98.60424805 -0.3918457 C-102.87157515 0.81888896 -104.90966133 2.18823369 -107.23046875 6.01953125 C-108.0576964 7.62336715 -108.85482758 9.24299828 -109.625 10.875 C-110.04716797 11.72578125 -110.46933594 12.5765625 -110.90429688 13.453125 C-117.13253157 26.25614222 -125.2435139 43.6444583 -120.4375 58.0625 C-123.1953125 58.375 -123.1953125 58.375 -126.4375 58.0625 C-128.4296875 56 -128.4296875 56 -130.3125 53.0625 C-139.47710047 39.74800641 -151.75624547 28.5928143 -165.4375 20.0625 C-166.05560547 19.67513672 -166.67371094 19.28777344 -167.31054688 18.88867188 C-202.03942863 -2.51278115 -243.46788213 -7.02166361 -282.890625 2.31640625 C-325.87968734 13.12240006 -357.57516897 33.62508763 -381.5625 71.3125 C-382.88053819 73.55177752 -384.17008221 75.79519788 -385.4375 78.0625 C-385.85209473 78.79355957 -386.26668945 79.52461914 -386.69384766 80.27783203 C-402.29285362 108.02374296 -410.82780785 137.69354494 -415.4375 169.0625 C-415.55609375 169.82369141 -415.6746875 170.58488281 -415.796875 171.36914062 C-420.43476343 202.15036441 -418.31738543 235.3073867 -413.3359375 265.89453125 C-413.18044434 266.96751465 -413.02495117 268.04049805 -412.86474609 269.14599609 C-412.61269348 270.86657928 -412.32533831 272.58366807 -411.95947266 274.28369141 C-411.47195144 277.74535462 -412.23252145 279.78899665 -414.28515625 282.52783203 C-416.89653783 285.34975884 -419.63065366 288.0016962 -422.4375 290.625 C-423.83935547 291.9852832 -423.83935547 291.9852832 -425.26953125 293.37304688 C-429.24279527 297.20460707 -433.26657419 300.95081183 -437.4609375 304.5390625 C-443.13608008 309.43434277 -448.26820313 314.91871892 -453.45214844 320.32397461 C-454.80507771 321.73156528 -456.17193182 323.12572967 -457.5390625 324.51953125 C-458.73523193 325.7566687 -458.73523193 325.7566687 -459.95556641 327.01879883 C-464.67348057 330.90367582 -469.48092063 331.35540599 -475.4375 331.375 C-476.613125 331.39175781 -477.78875 331.40851563 -479 331.42578125 C-483.91646907 330.90619986 -487.20358772 329.29641228 -490.6875 325.8125 C-496.26654538 317.04542868 -495.76094572 304.71609416 -493.6328125 294.80786133 C-493.26533184 293.27179408 -492.88697087 291.73830463 -492.5 290.20703125 C-492.28306992 289.32355515 -492.06613983 288.44007904 -491.84263611 287.52983093 C-488.30062959 273.27548712 -484.46619521 259.09277044 -480.67508316 244.90314865 C-479.75933643 241.4737284 -478.84576828 238.04372924 -477.93216991 234.61373615 C-472.81313273 215.39604075 -467.66971511 196.18488361 -462.515625 176.9765625 C-462.1515344 175.61963948 -462.1515344 175.61963948 -461.78008842 174.23530388 C-459.43313452 165.48923247 -457.08497999 156.74348667 -454.73225689 147.99896526 C-448.55562998 125.04053796 -442.46461504 102.06063474 -436.4375 79.0625 C-446.66031935 79.70451052 -456.70618034 81.19997675 -466.8203125 82.75 C-468.56953155 83.01547093 -470.31878968 83.28068452 -472.06808472 83.5456543 C-475.70757086 84.09785016 -479.34661413 84.65285337 -482.98535156 85.20996094 C-487.65413565 85.92457807 -492.32391062 86.63246877 -496.99402046 87.33836365 C-500.59394405 87.88316858 -504.19336181 88.43125557 -507.79262924 88.9803772 C-509.51571846 89.24289542 -511.23895701 89.50443537 -512.96234512 89.76498413 C-515.35839191 90.12777328 -517.75373051 90.49491805 -520.14892578 90.86328125 C-520.86159103 90.97032379 -521.57425629 91.07736633 -522.30851746 91.18765259 C-525.98653628 91.74034512 -525.98653628 91.74034512 -529.4375 93.0625 C-530.16635186 95.42829078 -530.76635803 97.73885165 -531.31494141 100.14819336 C-531.49460323 100.90716227 -531.67426506 101.66613117 -531.85937119 102.44809914 C-532.46923959 105.03514014 -533.06665147 107.62489969 -533.6640625 110.21484375 C-534.10136395 112.08370701 -534.53925779 113.95243174 -534.97769165 115.82102966 C-536.47775366 122.23175624 -537.95795566 128.64701268 -539.4375 135.0625 C-539.98948841 137.45161165 -540.54153227 139.84071049 -541.09362793 142.22979736 C-544.88265776 158.63642165 -548.64626053 175.04882502 -552.40230012 191.4630264 C-554.91087503 202.42558751 -557.42282973 213.38737466 -559.93492663 224.34912914 C-561.21914758 229.95336826 -562.50190185 235.55794222 -563.78344154 241.16279507 C-564.30055602 243.41735802 -564.82031151 245.67131721 -565.34297752 247.92459965 C-566.45117083 252.70533592 -567.53724551 257.48418759 -568.51275635 262.29391479 C-568.76066138 263.46892375 -568.76066138 263.46892375 -569.0135746 264.66767025 C-569.43510759 266.67638066 -569.83660908 268.68926803 -570.23599243 270.70249939 C-572.10774356 275.93682757 -575.75311445 279.38400003 -580.22265625 282.65625 C-580.76164551 283.05972656 -581.30063477 283.46320313 -581.85595703 283.87890625 C-582.37786621 284.26949219 -582.89977539 284.66007812 -583.4375 285.0625 C-585.27617672 286.55594535 -587.10973432 288.05572074 -588.9375 289.5625 C-589.8346875 290.284375 -590.731875 291.00625 -591.65625 291.75 C-594.67769188 294.2622101 -597.56191773 296.88650827 -600.4375 299.5625 C-605.02510113 303.83168152 -609.77192728 307.82008517 -614.65625 311.75 C-617.67769336 314.26221133 -620.56190078 316.88652457 -623.4375 319.5625 C-628.04751639 323.8520776 -632.81533236 327.86660897 -637.72265625 331.81640625 C-640.54423495 334.1508059 -643.24340712 336.58240598 -645.9375 339.0625 C-649.49420244 342.33668423 -653.10911811 345.46892433 -656.875 348.5 C-661.41066443 352.15821015 -665.6945117 356.00992965 -669.95678711 359.97631836 C-674.04277479 363.75617035 -678.31483339 367.2573624 -682.65234375 370.74609375 C-686.22944337 373.72115696 -689.63552541 376.85806937 -693.01196289 380.05786133 C-696.12612287 382.97887935 -699.34136129 385.36977452 -702.875 387.75 C-709.3415113 392.87322635 -711.20339268 400.21697951 -712.4375 408.0625 C-713.44372199 416.84546237 -713.97269118 426.66151403 -708.4375 434.0625 C-701.79010938 441.53346114 -694.32909488 444.48328376 -684.4375 445.0625 C-677.96209733 445.30925685 -671.77099418 444.73362267 -665.375 443.75 C-664.52873047 443.63205078 -663.68246094 443.51410156 -662.81054688 443.39257812 C-655.03511693 442.22356591 -648.39150832 440.81190916 -642.9375 434.8125 C-639.66212343 431.25997618 -636.21963819 428.08759991 -632.56982422 424.93212891 C-629.04247251 421.83933529 -625.65267118 418.60358103 -622.25 415.375 C-593.23318966 387.96034483 -593.23318966 387.96034483 -589.4375 386.0625 C-589.39625 386.84625 -589.355 387.63 -589.3125 388.4375 C-586.66368084 399.41117938 -577.78207161 409.67146428 -568.3125 415.5 C-551.96516707 424.71945544 -535.67784147 424.01365918 -518 419.1875 C-501.49743264 414.02365452 -485.9865743 404.67864055 -472.4375 394.0625 C-471.51839844 393.36382813 -470.59929687 392.66515625 -469.65234375 391.9453125 C-463.6599794 387.29964843 -458.04555252 382.30845372 -453.12686157 376.5201416 C-447.55411383 369.97695006 -441.46540786 363.96364459 -435.37890625 357.90625 C-434.22283837 356.75205106 -433.06699394 355.59762828 -431.91136169 354.44299316 C-428.8936667 351.42908592 -425.87297913 348.41819597 -422.85162354 345.40795898 C-419.75926853 342.32589926 -416.66980132 339.24094767 -413.58007812 336.15625 C-407.53534888 330.12219196 -401.48744994 324.09132357 -395.4375 318.0625 C-393.25071543 320.9134534 -391.37665067 323.81684903 -389.5847168 326.93383789 C-376.98772926 348.75103777 -360.22739683 368.50189563 -340.4375 384.0625 C-339.4990625 384.80628906 -338.560625 385.55007813 -337.59375 386.31640625 C-322.72595991 397.80696983 -306.702206 406.46774227 -288.6875 411.875 C-288.0392627 412.0699707 -287.39102539 412.26494141 -286.72314453 412.46582031 C-262.69953921 419.26122277 -230.80292114 419.50187364 -208.4375 407.0625 C-190.19264243 395.87141636 -175.22874331 381.10045653 -162.4375 364.0625 C-161.80972656 363.22976563 -161.18195312 362.39703125 -160.53515625 361.5390625 C-139.05596345 331.92304608 -123.14013963 292.91914263 -122.4375 256.0625 C-120.4575 256.0625 -118.4775 256.0625 -116.4375 256.0625 C-116.45811493 256.76428784 -116.47872986 257.46607569 -116.49996948 258.18912983 C-117.00520209 275.39793108 -117.50600924 292.60685569 -118.00210571 309.81592274 C-118.2421332 318.13865662 -118.48356784 326.4613449 -118.72851562 334.78393555 C-118.94242396 342.05202783 -119.15348814 349.32019668 -119.36136818 356.58846396 C-119.47116444 360.42409198 -119.58222695 364.2596723 -119.69671631 368.09516335 C-120.25270415 386.75625039 -120.57064171 405.39159741 -120.4375 424.0625 C-121.19134507 424.26560571 -121.94519014 424.46871141 -122.72187901 424.67797184 C-124.20636492 425.0799285 -124.20636492 425.0799285 -125.72084045 425.49000549 C-126.70156053 425.7549862 -127.6822806 426.01996691 -128.69271946 426.29297733 C-131.81359671 427.16794192 -134.83812621 428.1975832 -137.87109375 429.33984375 C-138.9993457 429.76418701 -140.12759766 430.18853027 -141.29003906 430.62573242 C-143.06459473 431.30599487 -143.06459473 431.30599487 -144.875 432 C-145.81249084 432.35839462 -145.81249084 432.35839462 -146.7689209 432.72402954 C-193.35010194 450.56733122 -240.91158365 471.81851651 -279.4375 504.0625 C-280.39785156 504.85785156 -281.35820313 505.65320313 -282.34765625 506.47265625 C-297.71449746 519.7646497 -307.54537304 534.91773357 -309.27734375 555.41796875 C-310.86839199 581.68966776 -304.66093904 607.72873337 -287.4375 628.0625 C-286.91800781 628.72636719 -286.39851563 629.39023437 -285.86328125 630.07421875 C-268.44609913 651.53994683 -240.08754569 659.05252715 -213.91015625 662.53125 C-210.74573008 662.82447868 -207.61445459 662.97516104 -204.4375 663.0625 C-203.71804199 663.08828125 -202.99858398 663.1140625 -202.25732422 663.140625 C-169.63305653 664.20874099 -139.74713125 654.39945966 -113.4375 635.0625 C-112.85693848 634.63743164 -112.27637695 634.21236328 -111.67822266 633.77441406 C-96.96766645 622.87983106 -83.84377402 610.37580563 -72.4375 596.0625 C-71.9415332 595.44149414 -71.44556641 594.82048828 -70.93457031 594.18066406 C-35.8480763 549.80988262 -1.06368072 476.51896036 -2.4375 419.0625 C-1.60605469 418.82015625 -0.77460937 418.5778125 0.08203125 418.328125 C20.04716761 411.06807541 37.94149356 395.05204423 53.5625 381.0625 C54.52929688 380.2065625 55.49609375 379.350625 56.4921875 378.46875 C68.1732366 367.9589714 79.84058326 357.0329644 89.54296875 344.640625 C91.72368228 341.85673539 94.01209825 339.18563649 96.3125 336.5 C130.69836765 295.15192422 167.34911131 230.81243487 168.5625 175.0625 C166.86344402 163.63781324 162.66029653 152.41844361 153.2734375 145.18359375 C148.71083147 142.19394094 144.53975749 141.54775556 139.24072266 142.42700195 C133.79927649 143.71816735 129.0530964 145.69829683 124.5625 149.0625 C122.11199174 153.08543617 121.13484499 157.25281694 120.0625 161.8125 C119.53141933 163.75744862 119.00008512 165.70234772 118.45854187 167.64440918 C118.07940311 169.0073106 117.70555129 170.37169278 117.33674622 171.73742676 C115.18815864 179.64388774 112.49893439 187.34801761 109.75 195.0625 C109.49718262 195.77547241 109.24436523 196.48844482 108.98388672 197.22302246 C91.6392445 246.00001075 69.93193408 299.65564004 33.75390625 337.75 C31.77996131 339.83302211 29.9517761 341.97636675 28.125 344.1875 C22.26440063 350.93691065 14.97889401 356.15878156 7.5625 361.0625 C7.56762622 359.97635546 7.56762622 359.97635546 7.57285601 358.86826861 C7.77428624 315.94643869 7.9286927 273.02466023 8.02208797 230.10245232 C8.03334424 224.9480208 8.04499315 219.79359024 8.05688477 214.63916016 C8.05924556 213.61301178 8.06160635 212.5868634 8.06403869 211.52961962 C8.1031939 194.91725334 8.17415122 178.30516753 8.25687516 161.69296761 C8.34105786 144.64556975 8.39103298 127.59831872 8.40929645 110.55072153 C8.42164184 100.03241307 8.46062293 89.51489741 8.5337482 78.99683301 C8.58134567 71.78283592 8.59569575 64.56924829 8.5840124 57.35510559 C8.57825099 53.19342549 8.58704006 49.03312994 8.63534927 44.87169647 C8.67930504 41.05733502 8.68126561 37.24528225 8.65059005 33.43081217 C8.6450148 31.40602184 8.6837 29.38125685 8.72423178 27.35686457 C8.6025472 19.08450744 6.86175866 14.91252491 0.90823978 9.11480844 C0.13414565 8.43754665 -0.63994847 7.76028487 -1.4375 7.0625 C-2.18932019 6.38833593 -2.94114038 5.71417186 -3.71574301 5.01957858 C-20.46852556 -9.48439745 -44.20574776 -11.82688212 -65.3125 -8.8125 Z " fill="#000000" transform="translate(1093.4375,229.9375)"/>
<path d="M0 0 C0.8962207 0.04543945 1.79244141 0.09087891 2.71582031 0.13769531 C42.77700355 2.46596055 83.53749876 15.17975434 114 42 C114.85078125 42.74121094 115.7015625 43.48242188 116.578125 44.24609375 C119.08483855 46.46445835 121.55082175 48.71835511 124 51 C124.75023437 51.69609375 125.50046875 52.3921875 126.2734375 53.109375 C163.55970015 88.95651874 182.22822105 146.96864366 184.09928894 197.69163513 C184.14648407 200.42768379 184.16469616 203.16198823 184.16796875 205.8984375 C184.17129715 206.89525543 184.17462555 207.89207336 184.17805481 208.9190979 C184.18307933 211.01149032 184.18546453 213.10389062 184.18530273 215.19628906 C184.18748974 218.36016286 184.20569528 221.52368759 184.22460938 224.6875 C184.26732646 239.3198671 182.92486011 252.65919154 179.0625 266.8125 C178.61342285 268.45980103 178.61342285 268.45980103 178.15527344 270.14038086 C163.952611 320.89401279 141.5617929 372.27875294 105 411 C103.95380771 412.22531703 102.91209828 413.45447636 101.875 414.6875 C92.82740098 425.03963656 82.8768889 434.59940569 72 443 C70.56527344 444.16015625 70.56527344 444.16015625 69.1015625 445.34375 C26.45013307 479.29299862 -27.68381387 498.15877335 -82 500 C-83.7015625 500.061875 -83.7015625 500.061875 -85.4375 500.125 C-115.50358554 500.66189438 -146.72462373 496.13258857 -174 483 C-190.95608818 516.91217636 -169.71294985 597.65178759 -166.20727539 635.69618225 C-165.17325725 647.18905333 -166.03069884 656.20445663 -173.01953125 665.76171875 C-183.36441441 677.88208099 -196.27100017 683.47783873 -212 685 C-230.56225358 686.14383617 -257.90338311 684.5728004 -273.1953125 672.76171875 C-321.66876676 625.44239435 -317.23215666 503.67959125 -320.1875 441.9375 C-320.22442963 441.17074951 -320.26135925 440.40399902 -320.29940796 439.61401367 C-320.57510855 433.74408444 -320.79479387 427.87277607 -321 422 C-321.04236786 420.81977264 -321.08473572 419.63954529 -321.12838745 418.42355347 C-322.00616561 393.34459649 -322.2027674 368.28041763 -322.1875 343.1875 C-322.18723312 342.19866444 -322.18696625 341.20982887 -322.18669128 340.19102859 C-322.15718731 252.70900188 -318.91667949 164.63388971 -306 78 C-305.89451843 77.28956543 -305.78903687 76.57913086 -305.68035889 75.84716797 C-304.9681004 71.07948516 -304.2147802 66.32002207 -303.4375 61.5625 C-303.251875 60.38308838 -303.06625 59.20367676 -302.875 57.98852539 C-300.34361822 43.25304654 -291.73134571 35.58550999 -280 27 C-258.36455244 12.32268633 -234.01471447 6.42782662 -208.125 11.125 C-196.04424494 13.96517751 -184.6050606 18.55815382 -174 25 C-173.19175781 25.4021875 -172.38351563 25.804375 -171.55078125 26.21875 C-169.08466011 27.63042144 -167.70307122 28.71966993 -166 31 C-165.63806152 33.79483032 -165.63806152 33.79483032 -165.72460938 37.13525391 C-165.75490234 38.3884845 -165.78519531 39.64171509 -165.81640625 40.93292236 C-166.11609004 48.07627799 -166.5817073 55.20509676 -167.09375 62.3359375 C-167.20627252 63.95257693 -167.31836574 65.5692463 -167.43005371 67.1859436 C-167.72171632 71.3913793 -168.01911375 75.59638938 -168.31781006 79.80133057 C-168.6229691 84.11209815 -168.92256092 88.42325248 -169.22265625 92.734375 C-169.80973275 101.15663278 -170.40288341 109.5784481 -171 118 C-170.723909 117.43668976 -170.44781799 116.87337952 -170.1633606 116.29299927 C-168.88701051 113.69561469 -167.60371068 111.10172131 -166.3203125 108.5078125 C-165.88630127 107.62198486 -165.45229004 106.73615723 -165.00512695 105.82348633 C-157.06261562 89.81332678 -146.19213544 76.00494447 -134 63 C-133.31043213 62.25943359 -133.31043213 62.25943359 -132.60693359 61.50390625 C-123.8825243 52.20868705 -114.34738832 44.4247691 -104 37 C-103.38431152 36.5555957 -102.76862305 36.11119141 -102.13427734 35.65332031 C-83.61996513 22.42953761 -63.35861124 12.691152 -42 5 C-41.1857959 4.69916504 -40.3715918 4.39833008 -39.53271484 4.08837891 C-26.45044526 -0.6286639 -13.78450703 -0.71637458 0 0 Z M-44 12 C-44.85400391 12.33209473 -45.70800781 12.66418945 -46.58789062 13.00634766 C-70.205325 22.32695506 -92.59775352 34.50962306 -112 51 C-113.08400227 51.8887936 -114.16868823 52.77675373 -115.25390625 53.6640625 C-142.92415566 76.52978187 -161.70215456 106.06280808 -172.40136719 140.17382812 C-173.16207105 142.49440925 -174.05216886 144.75000831 -175 147 C-176.65 147 -178.3 147 -180 147 C-179.67 146.34 -179.34 145.68 -179 145 C-178.70015422 141.95635845 -178.45362151 138.92569422 -178.24389648 135.87548828 C-178.17547546 134.92886826 -178.10705444 133.98224823 -178.03656006 133.00694275 C-177.81042687 129.86169062 -177.59057989 126.71603498 -177.37109375 123.5703125 C-177.21583283 121.38229618 -177.0603168 119.19429795 -176.90455627 117.00631714 C-176.5782034 112.40804853 -176.25494868 107.80957507 -175.93383789 103.2109375 C-175.52379481 97.34218322 -175.10620879 91.47399558 -174.68624783 85.60594368 C-174.36316985 81.07973583 -174.04415933 76.5532481 -173.72633553 72.02666855 C-173.57408075 69.86503244 -173.42059153 67.7034829 -173.2658062 65.54202652 C-172.80081221 59.03021188 -172.37016021 52.51791251 -172 46 C-171.88496628 44.04861115 -171.88496628 44.04861115 -171.76760864 42.05780029 C-171.73094086 40.98797913 -171.69427307 39.91815796 -171.65649414 38.81591797 C-171.6235878 37.95175262 -171.59068146 37.08758728 -171.55677795 36.19723511 C-172.17115874 33.15149527 -173.60463293 32.08560774 -176 30.1875 C-177.96188783 29.05617228 -179.96801948 27.99998071 -182 27 C-182.87615967 26.55382324 -182.87615967 26.55382324 -183.77001953 26.09863281 C-204.31517339 15.76939076 -227.79398885 12.02711721 -250.16796875 18.6171875 C-262.93141849 23.05578547 -273.81066766 29.14675229 -284 38 C-285.44439453 39.2065625 -285.44439453 39.2065625 -286.91796875 40.4375 C-287.81128906 41.241875 -288.70460938 42.04625 -289.625 42.875 C-290.40101563 43.57367188 -291.17703125 44.27234375 -291.9765625 44.9921875 C-297.98323301 53.92102204 -298.28374318 66.93630656 -299.875 77.4375 C-300.00283875 78.27535034 -300.13067749 79.11320068 -300.26239014 79.97644043 C-307.5930781 128.34743658 -311.22840655 177.16582268 -313.6875 226 C-313.74834778 227.19932159 -313.80919556 228.39864319 -313.87188721 229.63430786 C-315.70803709 266.34688368 -316.20488325 302.99683239 -316.1875 339.75 C-316.18738041 340.87267902 -316.18726082 341.99535805 -316.1871376 343.15205765 C-316.1826045 376.83772256 -316.01089657 410.46404348 -314.15820312 444.10772705 C-313.99645269 447.06485202 -313.84323767 450.02233082 -313.69140625 452.97998047 C-312.19668368 567.09544707 -312.19668368 567.09544707 -269.47265625 668.1328125 C-253.99299284 679.822037 -225.65874233 680.85055693 -207.0703125 678.50390625 C-196.18600995 676.39611462 -186.51244205 672.39921138 -179 664 C-177.0512084 661.11400327 -175.44344013 658.16661671 -174 655 C-173.4800219 653.85985191 -173.4800219 653.85985191 -172.94953918 652.69667053 C-169.9830822 644.27199754 -172.24345071 633.53757242 -173.01978874 624.82542419 C-173.21353725 622.64959263 -173.4008084 620.47328084 -173.58656311 618.29675293 C-173.85364923 615.17122317 -174.12286965 612.04588905 -174.39373779 608.92068481 C-176.50603987 584.48595567 -178.47890352 560.04998182 -179.875 535.5625 C-179.93611969 534.53416046 -179.99723938 533.50582092 -180.06021118 532.44631958 C-180.73172798 521.01689796 -181.11994333 509.60191545 -181.1953125 498.15234375 C-181.20787079 497.08689835 -181.22042908 496.02145294 -181.23336792 494.92372131 C-181.23653611 488.38117219 -180.5552585 482.35731612 -179 476 C-176 475 -176 475 -172.7265625 476.44140625 C-171.35781836 477.14541926 -169.990753 477.85270173 -168.625 478.5625 C-147.74742445 488.82256835 -123.15902569 493.38921251 -100 494 C-99.29004883 494.02578125 -98.58009766 494.0515625 -97.84863281 494.078125 C-53.70506136 495.551419 -9.87923285 484.73231405 29 464 C29.64888184 463.65888184 30.29776367 463.31776367 30.96630859 462.96630859 C49.18592371 453.33382554 65.39231148 441.06036623 80.58984375 427.1875 C82.92581254 425.06733383 85.30326875 423.0030269 87.6875 420.9375 C91.14963259 417.8634173 94.22360895 414.63797612 97.20703125 411.1015625 C99.13819529 408.83801946 101.15961373 406.67715618 103.1875 404.5 C141.88436421 361.41618164 175.23869505 293.18581945 178.5625 234.9375 C178.60568359 234.27556641 178.64886719 233.61363281 178.69335938 232.93164062 C181.38964804 187.09473327 172.81209836 138.60617052 151 98 C150.49855469 97.0203125 149.99710937 96.040625 149.48046875 95.03125 C143.39825491 83.36948462 135.52006643 72.98064925 127 63 C126.319375 62.195625 125.63875 61.39125 124.9375 60.5625 C104.42816329 36.84857943 75.01142354 20.98883816 45 13 C44.28344238 12.80712402 43.56688477 12.61424805 42.82861328 12.41552734 C14.88122704 5.09186913 -16.66151448 1.18531271 -44 12 Z " fill="#000000" transform="translate(322,0)"/>
<path d="M0 0 C19.6823713 16.85885564 26.86398376 39.81332963 28.79885864 64.7411499 C29.39311267 74.07379913 29.33646151 83.42986518 29.3046875 92.77734375 C29.30286469 93.89530334 29.30104187 95.01326294 29.29916382 96.1651001 C29.25151685 113.56477784 28.62439951 130.55368918 25.9921875 147.77734375 C25.82058105 148.94700684 25.64897461 150.11666992 25.47216797 151.32177734 C18.857694 195.56604694 5.51323295 237.5357779 -16.0078125 276.77734375 C-21.17486734 276.21123216 -25.16817348 273.68287401 -29.6328125 271.21484375 C-77.90710726 245.32163481 -136.46495554 236.52036679 -189.93164062 249.32836914 C-192.60887261 249.90732371 -195.30534643 250.33299077 -198.0078125 250.77734375 C-198.10069661 237.2770812 -198.17167106 223.7768953 -198.21506119 210.27637768 C-198.23589151 204.00680908 -198.26412622 197.73745992 -198.30957031 191.46801758 C-198.35319003 185.41202464 -198.37698384 179.35624212 -198.38732147 173.30010414 C-198.3946839 170.99535118 -198.40906072 168.69060909 -198.43073273 166.38594627 C-198.4599805 163.14531385 -198.46375952 159.90553913 -198.46191406 156.66479492 C-198.47629517 155.72251541 -198.49067627 154.7802359 -198.50549316 153.80940247 C-198.32864191 124.90782578 -167.8120094 94.31281938 -151.0078125 72.77734375 C-150.58467773 72.23335938 -150.16154297 71.689375 -149.72558594 71.12890625 C-143.8620759 63.59444776 -137.89890695 56.14748097 -131.85546875 48.7565918 C-128.71240975 44.90494138 -125.6269234 41.01710786 -122.59033203 37.08105469 C-104.23237051 13.34485943 -74.1198571 -7.90311187 -43.7578125 -11.83984375 C-27.81056553 -13.46779188 -13.00228242 -9.60818013 0 0 Z M-103.0078125 24.77734375 C-103.55945068 25.21353027 -104.11108887 25.6497168 -104.67944336 26.09912109 C-107.98973495 28.76381985 -110.68431434 31.5763197 -113.3203125 34.90234375 C-114.09375 35.86914062 -114.8671875 36.8359375 -115.6640625 37.83203125 C-116.82421875 39.28996094 -116.82421875 39.28996094 -118.0078125 40.77734375 C-119.44276093 42.52943657 -120.88025491 44.27944776 -122.3203125 46.02734375 C-131.84969119 57.68720745 -141.18057205 69.48194519 -150.27197266 81.48681641 C-151.45704868 83.05058339 -152.64432152 84.61268736 -153.83349609 86.17333984 C-180.52179018 117.82160835 -180.52179018 117.82160835 -192.34838867 155.58984375 C-192.34882675 156.53710831 -192.34926483 157.48437286 -192.34971619 158.46034241 C-192.34763963 161.56622512 -192.32436211 164.67155628 -192.30078125 167.77734375 C-192.29518127 169.94067083 -192.29091307 172.10400173 -192.28791809 174.26733398 C-192.27650103 179.94238921 -192.24706082 185.61721162 -192.21380615 191.29217529 C-192.18303755 197.09058483 -192.16939826 202.88903224 -192.15429688 208.6875 C-192.12218815 220.05088316 -192.0710298 231.41409404 -192.0078125 242.77734375 C-190.66894989 242.57118187 -190.66894989 242.57118187 -189.30303955 242.3608551 C-188.13214783 242.18062302 -186.9612561 242.00039093 -185.75488281 241.81469727 C-184.59418274 241.63600601 -183.43348267 241.45731476 -182.23760986 241.27320862 C-130.49572117 233.3293713 -76.91281921 239.65942646 -30.20483398 264.16381836 C-26.54763396 266.07780718 -22.95923193 267.58104245 -19.0078125 268.77734375 C10.34001072 224.31982652 23.10341831 160.46623428 23.16015625 107.71484375 C23.16348465 106.60286621 23.16681305 105.49088867 23.17024231 104.34521484 C23.17527059 102.00570077 23.17765192 99.66617963 23.17749023 97.32666016 C23.17966481 93.81400206 23.19783247 90.30166479 23.21679688 86.7890625 C23.24358634 76.35318465 23.13532879 65.98700332 22.12109375 55.59375 C22.045457 54.81132935 21.96982025 54.02890869 21.89189148 53.22277832 C19.75220697 34.0457101 9.5946393 16.27113825 -5.0078125 3.77734375 C-37.85904251 -19.71819616 -76.09683691 3.0269307 -103.0078125 24.77734375 Z " fill="#000000" transform="translate(340.0078125,83.22265625)"/>
<path d="M0 0 C0.9590625 0.38929688 1.918125 0.77859375 2.90625 1.1796875 C33.64472858 15.14421137 56.79198369 45.62134374 75 73 C75.55743896 73.79841309 76.11487793 74.59682617 76.68920898 75.41943359 C78.24636727 78.48502552 78.17558146 79.67216185 77.50390625 83.00390625 C77.29266113 84.05980957 77.08141602 85.11571289 76.86376953 86.20361328 C74.98229076 94.47297305 73.00572928 102.71277836 70.9375 110.9375 C70.69356506 111.91120544 70.44963013 112.88491089 70.19830322 113.88812256 C66.03249655 130.46337993 61.40240886 146.78065498 56 163 C55.45545166 164.66385742 55.45545166 164.66385742 54.89990234 166.36132812 C49.77377961 181.9816439 43.81923376 197.04544026 37 212 C36.31342266 213.53759105 35.62720331 215.07534202 34.94140625 216.61328125 C21.96375712 245.34232924 1.77544058 279.30609652 -29.0234375 291.1640625 C-36.08373193 293.28017316 -44.28785906 294.78755183 -51.19140625 291.34375 C-72.69412216 275.36765006 -79.52885694 240.60358221 -83.38085938 215.98486328 C-89.46326254 172.98162925 -87.9256958 128.91174717 -83 85.875 C-82.91641235 85.14165436 -82.83282471 84.40830872 -82.7467041 83.65274048 C-79.5707581 56.18080759 -70.92705589 23.679937 -48.72265625 5.09375 C-33.82109883 -6.01767986 -17.00712429 -6.96941433 0 0 Z M-53.84375 19.265625 C-59.73880836 26.74124249 -63.59406267 34.9942893 -67.1875 43.75 C-67.50855713 44.52263184 -67.82961426 45.29526367 -68.16040039 46.09130859 C-73.23092386 58.93069662 -75.63795586 72.27014354 -77.125 85.9375 C-77.20649292 86.66166107 -77.28798584 87.38582214 -77.37194824 88.13192749 C-83.97103204 147.02595415 -92.0666686 230.09397482 -53.81640625 279.83984375 C-49.86939921 284.42416568 -47.81662719 286.74394298 -41.5625 287.3125 C-26.4464982 286.98149266 -14.01380659 276.69962062 -3.88183594 266.42089844 C7.64026759 254.2042739 16.41376172 239.90102925 24 225 C24.4729248 224.0733252 24.94584961 223.14665039 25.43310547 222.19189453 C33.35589091 206.51390616 40.08155105 190.53355034 46 174 C46.40428223 172.87625977 46.80856445 171.75251953 47.22509766 170.59472656 C54.30434491 150.7010036 59.97171903 130.4706827 65.17428589 110.01460266 C66.39496396 105.23972316 67.72013454 100.51661858 69.15625 95.80078125 C72.31665557 85.75208943 72.31665557 85.75208943 70.4140625 75.75 C68.45797702 72.39310758 66.09613924 69.51976779 63.48291016 66.65576172 C61.60610345 64.56018992 59.97628833 62.32821486 58.31982422 60.05761719 C40.74046142 36.22094953 17.16794706 8.93092679 -13 2 C-30.84579114 0.43553717 -42.24218597 5.83641732 -53.84375 19.265625 Z " fill="#000000" transform="translate(895,291)"/>
<path d="M0 0 C-3.14928846 34.37973234 -16.99072625 75.7308202 -38 103 C-38.69351563 103.92296875 -39.38703125 104.8459375 -40.1015625 105.796875 C-50.47554066 119.06676933 -62.32312126 129.08359959 -79 133 C-87.51086372 133.69494858 -96.7284384 134.42659838 -103.6328125 128.62890625 C-112.01219491 119.84950307 -114.51078018 108.67170016 -114.2734375 96.94921875 C-112.89560003 77.04930896 -97.38316598 60.04571083 -83.015625 47.484375 C-25.37735849 0 -25.37735849 0 0 0 Z M-9 9 C-45.99036019 26.872608 -91.04055278 49.95755927 -107.3125 90.25 C-109.49232078 102.13993155 -108.0741969 111.83573174 -101.625 122 C-98.08730596 126.0430789 -95.01336605 126.79263535 -89.73828125 127.3359375 C-73.35928472 127.52269915 -63.12645402 120.98528776 -51.4375 109.9375 C-45.29300678 103.59169147 -40.53716486 96.55548375 -36 89 C-35.6484082 88.41798828 -35.29681641 87.83597656 -34.93457031 87.23632812 C-22.93003216 66.99518342 -15.90731683 43.66603618 -10.0625 21 C-9.83852539 20.14446533 -9.61455078 19.28893066 -9.38378906 18.4074707 C-9.18624023 17.61300537 -8.98869141 16.81854004 -8.78515625 16 C-8.60863525 15.29875 -8.43211426 14.5975 -8.25024414 13.875 C-7.83057935 11.7766782 -7.83057935 11.7766782 -9 9 Z " fill="#000000" transform="translate(968,707)"/>
<path d="M0 0 C-1.11545495 3.34636485 -1.77672622 3.86407644 -4.515625 5.8984375 C-5.26118652 6.45370117 -6.00674805 7.00896484 -6.77490234 7.58105469 C-7.59168457 8.17305664 -8.4084668 8.76505859 -9.25 9.375 C-10.09900879 9.9927832 -10.94801758 10.61056641 -11.82275391 11.24707031 C-38.15934128 30.16008331 -72.16094661 51.80803756 -106.20703125 46.5 C-118.59558292 43.70104609 -129.19260845 38.18389504 -136.16650391 27.15527344 C-142.9313926 15.37277682 -147.8769305 2.81778356 -146 -11 C-143.86018032 -16.9059023 -139.64319274 -21.31567048 -134 -24 C-94.57098291 -38.48651295 -36.69690352 -15.39231231 0 0 Z M-137 -15 C-140.98078482 -9.49605103 -140.78080106 -4.56616512 -140 2 C-136.9667694 14.87437878 -131.32443608 27.43724617 -120 35 C-104.97228986 43.11623164 -89.49009077 42.35169816 -73.43603516 37.77050781 C-51.99574143 30.98903186 -26.76750473 18.38770916 -11 2 C-74.23890519 -23.33549779 -74.23890519 -23.33549779 -137 -15 Z " fill="#000000" transform="translate(305,402)"/>
<path d="M0 0 C8.59141827 6.0564945 15.03149395 13.21087097 17.73828125 23.6328125 C19.79229869 36.3473502 18.36099655 48.2421056 11.4609375 59.30859375 C4.17856683 69.32638226 -5.24160795 76.85868466 -17.6953125 79.30859375 C-31.06767322 80.90529354 -46.51080251 78.28665364 -57.7890625 70.55859375 C-65.97688704 63.78514777 -71.25268387 56.16150308 -72.7890625 45.55859375 C-73.99295511 31.89335655 -69.97898134 19.78768664 -61.78515625 8.89453125 C-45.30982131 -10.61650942 -21.53021246 -13.97025113 0 0 Z M-58.7890625 14.55859375 C-65.23739686 24.97724014 -68.92145303 36.18629048 -66.13671875 48.42578125 C-63.27835271 57.28303568 -59.032913 63.00890891 -50.80566406 67.50073242 C-39.03131814 73.50577457 -26.49821796 75.81429035 -13.6015625 71.99609375 C-3.22511828 68.12186001 4.31849713 60.80221798 9.53125 51.1015625 C13.43470573 41.99804862 13.99590557 30.61339663 10.7734375 21.18359375 C5.57940839 10.29999211 -3.48347181 3.4153893 -14.4765625 -0.75390625 C-32.3056677 -6.26226788 -47.23333277 0.64623936 -58.7890625 14.55859375 Z " fill="#000000" transform="translate(639.7890625,172.44140625)"/>
<path d="M0 0 C0.8971875 0.309375 0.8971875 0.309375 1.8125 0.625 C0.4706656 4.65050319 -1.6102573 5.50785636 -5.1875 7.625 C-5.8475 7.625 -6.5075 7.625 -7.1875 7.625 C-7.1875 9.275 -7.1875 10.925 -7.1875 12.625 C-8.5075 12.625 -9.8275 12.625 -11.1875 12.625 C-10.8575 8.995 -10.5275 5.365 -10.1875 1.625 C-8.5375 1.625 -6.8875 1.625 -5.1875 1.625 C-2.1875 -0.375 -2.1875 -0.375 0 0 Z " fill="#000000" transform="translate(1032.1875,655.375)"/>
<path d="M0 0 C0.99 0 1.98 0 3 0 C3.99 3.3 4.98 6.6 6 10 C2.29847322 10.92538169 1.36541838 11.08174162 -2 10 C-2 6.09567131 -1.31626692 3.61973402 0 0 Z " fill="#000000" transform="translate(719,491)"/>
<path d="M0 0 C0.99 0.33 1.98 0.66 3 1 C2.34 4.3 1.68 7.6 1 11 C-0.65 11 -2.3 11 -4 11 C-5 8 -5 8 -4.00390625 5.95703125 C-3.52824219 5.24933594 -3.05257812 4.54164063 -2.5625 3.8125 C-2.08941406 3.09707031 -1.61632812 2.38164063 -1.12890625 1.64453125 C-0.75636719 1.10183594 -0.38382813 0.55914063 0 0 Z " fill="#000000" transform="translate(543,532)"/>
<path d="M0 0 C1.98 0.495 1.98 0.495 4 1 C4 4.3 4 7.6 4 11 C2.68 11.33 1.36 11.66 0 12 C-1 11 -1 11 -1.1328125 8.75 C-1.13023438 7.8425 -1.12765625 6.935 -1.125 6 C-1.12757812 5.0925 -1.13015625 4.185 -1.1328125 3.25 C-1 1 -1 1 0 0 Z " fill="#000000" transform="translate(75,386)"/>
<path d="M0 0 C2.475 0.99 2.475 0.99 5 2 C5.33 4.64 5.66 7.28 6 10 C3.03 9.505 3.03 9.505 0 9 C0 8.01 0 7.02 0 6 C-0.94978897 3.84971696 -0.94978897 3.84971696 -2 2 C-1.34 1.34 -0.68 0.68 0 0 Z " fill="#000000" transform="translate(1037,354)"/>
<path d="M0 0 C-0.0625 1.75 -0.0625 1.75 -1 4 C-3.70049044 6.00840495 -6.55126733 8 -10 8 C-10.33 6.68 -10.66 5.36 -11 4 C-9.73760288 3.13341385 -8.46472499 2.28207941 -7.1875 1.4375 C-6.47980469 0.96183594 -5.77210938 0.48617187 -5.04296875 -0.00390625 C-3 -1 -3 -1 0 0 Z " fill="#000000" transform="translate(463,624)"/>
<path d="M0 0 C1.32 0 2.64 0 4 0 C4 3.96 4 7.92 4 12 C2.68 12 1.36 12 0 12 C0 8.04 0 4.08 0 0 Z " fill="#000000" transform="translate(76,128)"/>
<path d="M0 0 C0.33 0.99 0.66 1.98 1 3 C-0.26538369 3.84158536 -1.53753779 4.67299748 -2.8125 5.5 C-3.87404297 6.19609375 -3.87404297 6.19609375 -4.95703125 6.90625 C-7 8 -7 8 -10 8 C-10.33 7.01 -10.66 6.02 -11 5 C-9.92570402 4.15504811 -8.84010798 3.32445142 -7.75 2.5 C-7.14671875 2.0359375 -6.5434375 1.571875 -5.921875 1.09375 C-4 0 -4 0 0 0 Z " fill="#000000" transform="translate(944,837)"/>
<path d="M0 0 C1.32 0.66 2.64 1.32 4 2 C1.68462045 5.72114571 -0.28579473 8.61229661 -4 11 C-4.66 9.68 -5.32 8.36 -6 7 C-4.02 4.69 -2.04 2.38 0 0 Z " fill="#000000" transform="translate(972,809)"/>
<path d="M0 0 C0.59296875 0.22558594 1.1859375 0.45117188 1.796875 0.68359375 C0.2138173 4.95784955 -2.70880904 6.94891169 -6.203125 9.68359375 C-6.863125 8.36359375 -7.523125 7.04359375 -8.203125 5.68359375 C-7.30284912 4.64827649 -6.38219465 3.6306521 -5.453125 2.62109375 C-4.68742187 1.76837891 -4.68742187 1.76837891 -3.90625 0.8984375 C-2.203125 -0.31640625 -2.203125 -0.31640625 0 0 Z " fill="#000000" transform="translate(494.203125,598.31640625)"/>
<path d="M0 0 C1.32 0.99 2.64 1.98 4 3 C2.02 5.64 0.04 8.28 -2 11 C-3.32 10.67 -4.64 10.34 -6 10 C-4.34832443 6.4213696 -2.21713508 3.25179812 0 0 Z " fill="#000000" transform="translate(520,566)"/>
<path d="M0 0 C0.99 0.33 1.98 0.66 3 1 C2.52797514 5.24822374 0.03344482 7.19989709 -3 10 C-4.32 9.34 -5.64 8.68 -7 8 C-4.69 5.36 -2.38 2.72 0 0 Z " fill="#000000" transform="translate(87,369)"/>
<path d="M0 0 C1.32 0 2.64 0 4 0 C4 3.63 4 7.26 4 11 C2.68 11.33 1.36 11.66 0 12 C0 8.04 0 4.08 0 0 Z " fill="#000000" transform="translate(77,107)"/>
<path d="M0 0 C0.66 1.32 1.32 2.64 2 4 C0.73308493 4.67408308 -0.53870749 5.33900497 -1.8125 6 C-2.52019531 6.37125 -3.22789062 6.7425 -3.95703125 7.125 C-6 8 -6 8 -9 8 C-9 6.68 -9 5.36 -9 4 C-6.03 2.68 -3.06 1.36 0 0 Z " fill="#000000" transform="translate(924,846)"/>
<path d="M0 0 C0.99 0.33 1.98 0.66 3 1 C2.61479436 3.53910197 2.29902057 4.72751123 0.37109375 6.484375 C-0.26699219 6.90203125 -0.90507813 7.3196875 -1.5625 7.75 C-2.20316406 8.17796875 -2.84382812 8.6059375 -3.50390625 9.046875 C-4.24447266 9.51867187 -4.24447266 9.51867187 -5 10 C-5.66 8.68 -6.32 7.36 -7 6 C-5.90716423 4.96704564 -4.80029421 3.94892165 -3.6875 2.9375 C-3.07261719 2.36902344 -2.45773437 1.80054688 -1.82421875 1.21484375 C-0.92123047 0.61349609 -0.92123047 0.61349609 0 0 Z " fill="#000000" transform="translate(958,824)"/>
<path d="M0 0 C0.66 1.32 1.32 2.64 2 4 C0.71186658 4.83878455 -0.58063256 5.67086783 -1.875 6.5 C-2.59429688 6.9640625 -3.31359375 7.428125 -4.0546875 7.90625 C-6 9 -6 9 -8 9 C-8.33 7.68 -8.66 6.36 -9 5 C-6.03 3.35 -3.06 1.7 0 0 Z " fill="#000000" transform="translate(997,675)"/>
<path d="M0 0 C0.66 0.33 1.32 0.66 2 1 C1.61479436 3.53910197 1.29902057 4.72751123 -0.62890625 6.484375 C-1.26699219 6.90203125 -1.90507813 7.3196875 -2.5625 7.75 C-3.20316406 8.17796875 -3.84382813 8.6059375 -4.50390625 9.046875 C-5.24447266 9.51867187 -5.24447266 9.51867187 -6 10 C-6.66 8.68 -7.32 7.36 -8 6 C-5.36 4.02 -2.72 2.04 0 0 Z " fill="#000000" transform="translate(1098,608)"/>
<path d="M0 0 C0.99 0.33 1.98 0.66 3 1 C2.875 2.75 2.875 2.75 2 5 C-0.875 7.3125 -0.875 7.3125 -4 9 C-4.99 8.67 -5.98 8.34 -7 8 C-6.875 6.25 -6.875 6.25 -6 4 C-3.125 1.6875 -3.125 1.6875 0 0 Z " fill="#000000" transform="translate(635,573)"/>
<path d="M0 0 C0.69965443 1.26418246 1.38434763 2.53665402 2.0625 3.8125 C2.63677734 4.87404297 2.63677734 4.87404297 3.22265625 5.95703125 C4 8 4 8 3 11 C1.109375 10.78515625 1.109375 10.78515625 -1 10 C-2.046875 7.93359375 -2.046875 7.93359375 -2.75 5.4375 C-2.99234375 4.61121094 -3.2346875 3.78492188 -3.484375 2.93359375 C-3.65453125 2.29550781 -3.8246875 1.65742187 -4 1 C-2 0 -2 0 0 0 Z " fill="#000000" transform="translate(548,571)"/>
<path d="M0 0 C0.99 0.33 1.98 0.66 3 1 C2.52797514 5.24822374 0.03344482 7.19989709 -3 10 C-3.99 9.67 -4.98 9.34 -6 9 C-5.52797514 4.75177626 -3.03344482 2.80010291 0 0 Z " fill="#000000" transform="translate(1158,555)"/>
<path d="M0 0 C0.99 0.33 1.98 0.66 3 1 C2.82374165 3.37948772 2.30280227 4.70225849 0.59765625 6.37890625 C-0.90649092 7.62115486 -2.45129851 8.81376056 -4 10 C-4.99 9.34 -5.98 8.68 -7 8 C-7 6 -7 6 -5.57421875 4.45703125 C-4.95160156 3.91433594 -4.32898438 3.37164063 -3.6875 2.8125 C-3.07261719 2.26207031 -2.45773437 1.71164062 -1.82421875 1.14453125 C-1.22222656 0.76683594 -0.62023437 0.38914062 0 0 Z " fill="#000000" transform="translate(666,548)"/>
<path d="M0 0 C0.5775 0.2475 1.155 0.495 1.75 0.75 C0.31036361 4.10915158 -1.37416589 6.46624938 -4.25 8.75 C-6.5 8.5 -6.5 8.5 -8.25 7.75 C-6.64613593 4.0076505 -4.56199942 -0.50688882 0 0 Z " fill="#000000" transform="translate(682.25,535.25)"/>
<path d="M0 0 C1.32 0.33 2.64 0.66 4 1 C4 4.63 4 8.26 4 12 C2.68 11.67 1.36 11.34 0 11 C0 7.37 0 3.74 0 0 Z " fill="#000000" transform="translate(1039,454)"/>
<path d="M0 0 C3.78717347 1.48781815 5.77407001 3.61988409 8 7 C7.67 7.99 7.34 8.98 7 10 C3.90001254 9.66785849 2.9454988 8.9454988 0.6875 6.6875 C-1 4 -1 4 -0.75 1.6875 C-0.5025 1.130625 -0.255 0.57375 0 0 Z " fill="#000000" transform="translate(90,423)"/>
<path d="M0 0 C0.33 0.99 0.66 1.98 1 3 C-3.455 5.97 -3.455 5.97 -8 9 C-8.66 7.68 -9.32 6.36 -10 5 C-8.90241493 4.15801693 -7.79664683 3.32669329 -6.6875 2.5 C-6.07261719 2.0359375 -5.45773437 1.571875 -4.82421875 1.09375 C-3 0 -3 0 0 0 Z " fill="#000000" transform="translate(336,417)"/>
<path d="M0 0 C0 0.99 0 1.98 0 3 C-6.4 7.06153846 -6.4 7.06153846 -9.4375 6.75 C-9.953125 6.5025 -10.46875 6.255 -11 6 C-9.90648447 2.82880497 -8.9873012 1.99216457 -6.0625 0.1875 C-3 -1 -3 -1 0 0 Z " fill="#000000" transform="translate(107,359)"/>
<path d="M0 0 C0 1.32 0 2.64 0 4 C-4.95 5.485 -4.95 5.485 -10 7 C-10.33 5.68 -10.66 4.36 -11 3 C-4.5 0 -4.5 0 0 0 Z " fill="#000000" transform="translate(126,351)"/>
<path d="M0 0 C3.99455527 0.61454696 6.74466336 2.70646737 10 5 C9.67 6.32 9.34 7.64 9 9 C4.56541027 7.6062718 2.12621626 5.39417765 -1 2 C-0.67 1.34 -0.34 0.68 0 0 Z " fill="#000000" transform="translate(1002,332)"/>
<path d="M0 0 C3.99455527 0.61454696 6.74466336 2.70646737 10 5 C9.34 6.32 8.68 7.64 8 9 C5.03 7.02 2.06 5.04 -1 3 C-0.67 2.01 -0.34 1.02 0 0 Z " fill="#000000" transform="translate(969,309)"/>
<path d="M0 0 C1.32 0.33 2.64 0.66 4 1 C2.4169423 5.2742558 -0.50568404 7.26531794 -4 10 C-4.66 9.01 -5.32 8.02 -6 7 C-4.02 4.69 -2.04 2.38 0 0 Z " fill="#000000" transform="translate(774,291)"/>
<path d="M0 0 C2.475 0.495 2.475 0.495 5 1 C4.67 3.97 4.34 6.94 4 10 C2.68 10.33 1.36 10.66 0 11 C0 7.37 0 3.74 0 0 Z " fill="#000000" transform="translate(74,275)"/>
<path d="M0 0 C1.32 0.33 2.64 0.66 4 1 C2.7508258 4.45925163 1.32472205 7.14693203 -1 10 C-2.32 9.67 -3.64 9.34 -5 9 C-3.7508258 5.54074837 -2.32472205 2.85306797 0 0 Z " fill="#000000" transform="translate(117,208)"/>
<path d="M0 0 C0 0.99 0 1.98 0 3 C-2.97 4.32 -5.94 5.64 -9 7 C-9.66 5.68 -10.32 4.36 -11 3 C-9.73581754 2.30034557 -8.46334598 1.61565237 -7.1875 0.9375 C-6.47980469 0.55464844 -5.77210938 0.17179688 -5.04296875 -0.22265625 C-3 -1 -3 -1 0 0 Z " fill="#000000" transform="translate(871,737)"/>
<path d="M0 0 C0 0.99 0 1.98 0 3 C-4.95 4.485 -4.95 4.485 -10 6 C-10.33 4.68 -10.66 3.36 -11 2 C-3.57142857 -1.57142857 -3.57142857 -1.57142857 0 0 Z " fill="#000000" transform="translate(890,730)"/>
<path d="M0 0 C0.33 1.32 0.66 2.64 1 4 C-5.5 7 -5.5 7 -10 7 C-10 5.68 -10 4.36 -10 3 C-3.375 0 -3.375 0 0 0 Z " fill="#000000" transform="translate(908,721)"/>
<path d="M0 0 C0.99 0.66 1.98 1.32 3 2 C3 2.66 3 3.32 3 4 C-1.95 6.475 -1.95 6.475 -7 9 C-7.33 7.68 -7.66 6.36 -8 5 C-4.04 2.525 -4.04 2.525 0 0 Z " fill="#000000" transform="translate(1014,665)"/>
<path d="M0 0 C0.33 0.99 0.66 1.98 1 3 C-0.4562545 3.67119549 -1.91507867 4.33681807 -3.375 5 C-4.59316406 5.556875 -4.59316406 5.556875 -5.8359375 6.125 C-8 7 -8 7 -10 7 C-10.33 5.68 -10.66 4.36 -11 3 C-9.73160474 2.49384702 -8.46016898 1.99530901 -7.1875 1.5 C-6.12595703 1.08234375 -6.12595703 1.08234375 -5.04296875 0.65625 C-3 0 -3 0 0 0 Z " fill="#000000" transform="translate(444,633)"/>
<path d="M0 0 C1.98 0.495 1.98 0.495 4 1 C3.67 4.63 3.34 8.26 3 12 C1.68 11.67 0.36 11.34 -1 11 C-0.67 7.37 -0.34 3.74 0 0 Z " fill="#000000" transform="translate(1028,616)"/>
<path d="M0 0 C0.66 0.33 1.32 0.66 2 1 C1.61479436 3.53910197 1.29902057 4.72751123 -0.62890625 6.484375 C-1.26699219 6.90203125 -1.90507812 7.3196875 -2.5625 7.75 C-3.20316406 8.17796875 -3.84382813 8.6059375 -4.50390625 9.046875 C-5.24447266 9.51867187 -5.24447266 9.51867187 -6 10 C-6.66 8.68 -7.32 7.36 -8 6 C-5.36 4.02 -2.72 2.04 0 0 Z " fill="#000000" transform="translate(478,611)"/>
<path d="M0 0 C0.53625 0.391875 1.0725 0.78375 1.625 1.1875 C-0.74444013 3.80635488 -3.21233102 5.60616551 -6.375 7.1875 C-7.365 6.8575 -8.355 6.5275 -9.375 6.1875 C-9.25 4.375 -9.25 4.375 -8.375 2.1875 C-3.36630435 -1.15163043 -3.36630435 -1.15163043 0 0 Z " fill="#000000" transform="translate(620.375,584.8125)"/>
<path d="M0 0 C0.99 0.33 1.98 0.66 3 1 C1.68775452 4.93673644 0.08089673 7.22719294 -3 10 C-3.99 9.67 -4.98 9.34 -6 9 C-5.52797514 4.75177626 -3.03344482 2.80010291 0 0 Z " fill="#000000" transform="translate(507,583)"/>
<path d="M0 0 C0.99 0.66 1.98 1.32 3 2 C1.55746343 5.36591866 -0.33264727 7.51047079 -3 10 C-4.32 9.34 -5.64 8.68 -7 8 C-6.02133662 6.85373678 -5.04205413 5.70800212 -4.0625 4.5625 C-3.51722656 3.92441406 -2.97195313 3.28632812 -2.41015625 2.62890625 C-1.63204305 1.73008851 -0.84063472 0.84063472 0 0 Z " fill="#000000" transform="translate(920,549)"/>
<path d="M0 0 C1.32 0.33 2.64 0.66 4 1 C2.34832443 4.5786304 0.21713508 7.74820188 -2 11 C-2.99 10.34 -3.98 9.68 -5 9 C-3.7508258 5.54074837 -2.32472205 2.85306797 0 0 Z " fill="#000000" transform="translate(1197,509)"/>
<path d="M0 0 C0.99 0.66 1.98 1.32 3 2 C1.55746343 5.36591866 -0.33264727 7.51047079 -3 10 C-4.32 9.34 -5.64 8.68 -7 8 C-6.02133662 6.85373678 -5.04205413 5.70800212 -4.0625 4.5625 C-3.51722656 3.92441406 -2.97195313 3.28632813 -2.41015625 2.62890625 C-1.63204305 1.73008851 -0.84063472 0.84063472 0 0 Z " fill="#000000" transform="translate(709,506)"/>
<path d="M0 0 C1.32 0.33 2.64 0.66 4 1 C2.66511872 4.59391114 1.03977277 7.75490696 -1 11 C-2.32 10.34 -3.64 9.68 -5 9 C-3.35 6.03 -1.7 3.06 0 0 Z " fill="#000000" transform="translate(1208,492)"/>
<path d="M0 0 C0 1.32 0 2.64 0 4 C-3.3 4.66 -6.6 5.32 -10 6 C-10.33 4.68 -10.66 3.36 -11 2 C-7.17679443 0.57741188 -4.08718695 -0.24042276 0 0 Z " fill="#000000" transform="translate(246,460)"/>
<path d="M0 0 C0.33 0.99 0.66 1.98 1 3 C-2.3 4.32 -5.6 5.64 -9 7 C-9.66 5.68 -10.32 4.36 -11 3 C-4.5 0 -4.5 0 0 0 Z " fill="#000000" transform="translate(265,454)"/>
<path d="M0 0 C0.66 0.33 1.32 0.66 2 1 C1.78515625 2.890625 1.78515625 2.890625 1 5 C-1.06640625 6.046875 -1.06640625 6.046875 -3.5625 6.75 C-4.80193359 7.11351562 -4.80193359 7.11351562 -6.06640625 7.484375 C-7.02353516 7.73960937 -7.02353516 7.73960937 -8 8 C-8.33 6.68 -8.66 5.36 -9 4 C-7.54618103 3.30300448 -6.08677047 2.61766134 -4.625 1.9375 C-3.40683594 1.36322266 -3.40683594 1.36322266 -2.1640625 0.77734375 C-1.44992187 0.52082031 -0.73578125 0.26429688 0 0 Z " fill="#000000" transform="translate(282,446)"/>
<path d="M0 0 C0.99 0 1.98 0 3 0 C3.33 0.99 3.66 1.98 4 3 C1.69 4.98 -0.62 6.96 -3 9 C-4.32 8.34 -5.64 7.68 -7 7 C-4.66666667 4.66666667 -2.33333333 2.33333333 0 0 Z " fill="#000000" transform="translate(349,405)"/>
<path d="M0 0 C1.32 3.3 2.64 6.6 4 10 C2.68 10.33 1.36 10.66 0 11 C-0.67154933 9.71086513 -1.33708859 8.41859796 -2 7.125 C-2.37125 6.40570313 -2.7425 5.68640625 -3.125 4.9453125 C-4 3 -4 3 -4 1 C-2 0 -2 0 0 0 Z " fill="#000000" transform="translate(83,405)"/>
<path d="M0 0 C1.45880109 0.14107747 2.91703551 0.28802415 4.375 0.4375 C5.59316406 0.55931641 5.59316406 0.55931641 6.8359375 0.68359375 C9 1 9 1 11 2 C11 3.32 11 4.64 11 6 C7.37 5.34 3.74 4.68 0 4 C0 2.68 0 1.36 0 0 Z " fill="#000000" transform="translate(236,350)"/>
<path d="M0 0 C1.32 0.66 2.64 1.32 4 2 C2.35 4.97 0.7 7.94 -1 11 C-2.32 10.67 -3.64 10.34 -5 10 C-3.66511872 6.40608886 -2.03977277 3.24509304 0 0 Z " fill="#000000" transform="translate(749,322)"/>
<path d="M0 0 C3.45925163 1.2491742 6.14693203 2.67527795 9 5 C8.67 6.32 8.34 7.64 8 9 C4.54074837 7.7508258 1.85306797 6.32472205 -1 4 C-0.67 2.68 -0.34 1.36 0 0 Z " fill="#000000" transform="translate(986,320)"/>
<path d="M0 0 C1.32 0.66 2.64 1.32 4 2 C2.02 4.64 0.04 7.28 -2 10 C-3.32 9.67 -4.64 9.34 -6 9 C-2.25 2.25 -2.25 2.25 0 0 Z " fill="#000000" transform="translate(761,306)"/>
<path d="M0 0 C0.33 1.32 0.66 2.64 1 4 C-0.26418246 4.69965443 -1.53665402 5.38434763 -2.8125 6.0625 C-3.52019531 6.44535156 -4.22789062 6.82820313 -4.95703125 7.22265625 C-7 8 -7 8 -10 7 C-10 6.01 -10 5.02 -10 4 C-8.71086513 3.32845067 -7.41859796 2.66291141 -6.125 2 C-5.40570312 1.62875 -4.68640625 1.2575 -3.9453125 0.875 C-2 0 -2 0 0 0 Z " fill="#000000" transform="translate(810,267)"/>
<path d="M0 0 C3.96 0 7.92 0 12 0 C11.67 1.32 11.34 2.64 11 4 C7.7 4 4.4 4 1 4 C0.67 2.68 0.34 1.36 0 0 Z " fill="#000000" transform="translate(838,259)"/>
<path d="M0 0 C0.50615298 1.26839526 1.00469099 2.53983102 1.5 3.8125 C1.91765625 4.87404297 1.91765625 4.87404297 2.34375 5.95703125 C3 8 3 8 3 11 C1.68 11 0.36 11 -1 11 C-1.99 7.7 -2.98 4.4 -4 1 C-2 0 -2 0 0 0 Z " fill="#000000" transform="translate(427,135)"/>
<path d="M0 0 C1.890625 0.21484375 1.890625 0.21484375 4 1 C5.046875 3.06640625 5.046875 3.06640625 5.75 5.5625 C5.99234375 6.38878906 6.2346875 7.21507813 6.484375 8.06640625 C6.65453125 8.70449219 6.8246875 9.34257813 7 10 C4.6875 9.875 4.6875 9.875 2 9 C0.125 6.125 0.125 6.125 -1 3 C-0.67 2.01 -0.34 1.02 0 0 Z " fill="#000000" transform="translate(409,99)"/>
<path d="M0 0 C0.8353125 0.37125 0.8353125 0.37125 1.6875 0.75 C0.19968185 4.53717347 -1.93238409 6.52407001 -5.3125 8.75 C-6.3025 8.42 -7.2925 8.09 -8.3125 7.75 C-7.98035849 4.65001254 -7.2579988 3.6954988 -5 1.4375 C-2.3125 -0.25 -2.3125 -0.25 0 0 Z " fill="#000000" transform="translate(237.3125,76.25)"/>
<path d="M0 0 C0.33 1.32 0.66 2.64 1 4 C-1.31 5.65 -3.62 7.3 -6 9 C-7.32 8.34 -8.64 7.68 -10 7 C-3.18421053 0 -3.18421053 0 0 0 Z " fill="#000000" transform="translate(254,64)"/>
<path d="M0 0 C2.64 1.98 5.28 3.96 8 6 C7.67 7.32 7.34 8.64 7 10 C3.56404834 8.47291037 0.88087546 6.40072955 -2 4 C-1.34 2.68 -0.68 1.36 0 0 Z " fill="#000000" transform="translate(374,52)"/>
<path d="M0 0 C7.42857143 -0.14285714 7.42857143 -0.14285714 11 1 C11 2.32 11 3.64 11 5 C9.37419034 4.88601335 7.74932843 4.75844341 6.125 4.625 C5.22007812 4.55539062 4.31515625 4.48578125 3.3828125 4.4140625 C1 4 1 4 -1 2 C-0.67 1.34 -0.34 0.68 0 0 Z " fill="#000000" transform="translate(854,856)"/>
<path d="M0 0 C-0.33 1.32 -0.66 2.64 -1 4 C-4.3 4.66 -7.6 5.32 -11 6 C-10.67 4.35 -10.34 2.7 -10 1 C-6.59437148 0.22157062 -3.49234244 -0.09978121 0 0 Z " fill="#000000" transform="translate(906,854)"/>
<path d="M0 0 C2.97 1.65 5.94 3.3 9 5 C8.67 5.99 8.34 6.98 8 8 C3.78087253 7.5205537 1.20336822 6.83374881 -2 4 C-1.34 2.68 -0.68 1.36 0 0 Z " fill="#000000" transform="translate(836,848)"/>
<path d="M0 0 C2.61724095 2.36797991 4.32861729 4.89600354 6 8 C6 8.66 6 9.32 6 10 C4.68 10.33 3.36 10.66 2 11 C-2 4.375 -2 4.375 -2 1 C-1.34 0.67 -0.68 0.34 0 0 Z " fill="#000000" transform="translate(825,832)"/>
<path d="M0 0 C0.99 0.33 1.98 0.66 3 1 C2.43454163 4.95820859 1.19097652 7.6659053 -1 11 C-2.32 10.67 -3.64 10.34 -5 10 C-3.66511872 6.40608886 -2.03977277 3.24509304 0 0 Z " fill="#000000" transform="translate(983,792)"/>
<path d="M0 0 C0.99 0.99 1.98 1.98 3 3 C0.36 5.31 -2.28 7.62 -5 10 C-5.99 9.01 -6.98 8.02 -8 7 C-5.42215154 4.35247996 -3.08351902 2.05567935 0 0 Z " fill="#000000" transform="translate(852,746)"/>
<path d="M0 0 C0 1.32 0 2.64 0 4 C-2.97 5.32 -5.94 6.64 -9 8 C-9.66 6.68 -10.32 5.36 -11 4 C-9.73308493 3.32591692 -8.46129251 2.66099503 -7.1875 2 C-6.47980469 1.62875 -5.77210938 1.2575 -5.04296875 0.875 C-3 0 -3 0 0 0 Z " fill="#000000" transform="translate(945,704)"/>
<path d="M0 0 C1.32 0.33 2.64 0.66 4 1 C3.34 4.63 2.68 8.26 2 12 C0.68 11.67 -0.64 11.34 -2 11 C-1.125 3.375 -1.125 3.375 0 0 Z " fill="#000000" transform="translate(1015,696)"/>
<path d="M0 0 C0.33 0.99 0.66 1.98 1 3 C-3.95 5.475 -3.95 5.475 -9 8 C-9.33 6.68 -9.66 5.36 -10 4 C-3.375 0 -3.375 0 0 0 Z " fill="#000000" transform="translate(963,695)"/>
<path d="M0 0 C0.66 0.33 1.32 0.66 2 1 C1.875 2.8125 1.875 2.8125 1 5 C-2.20883825 6.95320589 -4.2205439 8 -8 8 C-8.33 7.01 -8.66 6.02 -9 5 C-7.54735962 4.1361871 -6.0876837 3.28419546 -4.625 2.4375 C-3.40683594 1.72400391 -3.40683594 1.72400391 -2.1640625 0.99609375 C-1.44992187 0.66738281 -0.73578125 0.33867188 0 0 Z " fill="#000000" transform="translate(979,685)"/>
<path d="M0 0 C0.58265625 0.21527344 1.1653125 0.43054688 1.765625 0.65234375 C0.31437866 4.47835682 -1.59212204 5.87563499 -5.234375 7.65234375 C-6.224375 7.65234375 -7.214375 7.65234375 -8.234375 7.65234375 C-8.564375 6.66234375 -8.894375 5.67234375 -9.234375 4.65234375 C-8.16330383 3.78285058 -7.07691556 2.9322017 -5.984375 2.08984375 C-5.38109375 1.61417969 -4.7778125 1.13851562 -4.15625 0.6484375 C-2.234375 -0.34765625 -2.234375 -0.34765625 0 0 Z " fill="#000000" transform="translate(1049.234375,644.34765625)"/>
<path d="M0 0 C0.99 0.66 1.98 1.32 3 2 C3 2.66 3 3.32 3 4 C1.3203125 5.2890625 1.3203125 5.2890625 -0.875 6.625 C-1.95394531 7.29402344 -1.95394531 7.29402344 -3.0546875 7.9765625 C-5 9 -5 9 -7 9 C-7.33 8.01 -7.66 7.02 -8 6 C-5.36 4.02 -2.72 2.04 0 0 Z " fill="#000000" transform="translate(1065,632)"/>
<path d="M0 0 C0.99 0.33 1.98 0.66 3 1 C3 1.99 3 2.98 3 4 C1.57421875 5.421875 1.57421875 5.421875 -0.3125 6.75 C-0.92738281 7.19859375 -1.54226563 7.6471875 -2.17578125 8.109375 C-4 9 -4 9 -7 8 C-5.51218185 4.21282653 -3.38011591 2.22592999 0 0 Z " fill="#000000" transform="translate(1113,596)"/>
<path d="M0 0 C3.11198065 1.49836105 6.0534615 3.19933758 9 5 C8.67 6.32 8.34 7.64 8 9 C3.56541027 7.6062718 1.12621626 5.39417765 -2 2 C-1.34 1.34 -0.68 0.68 0 0 Z " fill="#000000" transform="translate(556,588)"/>
<path d="M0 0 C0.99 0 1.98 0 3 0 C3.33 0.99 3.66 1.98 4 3 C1.69 4.98 -0.62 6.96 -3 9 C-4.32 8.34 -5.64 7.68 -7 7 C-4.66666667 4.66666667 -2.33333333 2.33333333 0 0 Z " fill="#000000" transform="translate(1128,583)"/>
<path d="M0 0 C0.99 0.99 1.98 1.98 3 3 C0.69 5.31 -1.62 7.62 -4 10 C-4.99 9.67 -5.98 9.34 -7 9 C-6.82374165 6.62051228 -6.30280227 5.29774151 -4.59765625 3.62109375 C-3.09350908 2.37884514 -1.54870149 1.18623944 0 0 Z " fill="#000000" transform="translate(1144,569)"/>
<path d="M0 0 C0.99 0.33 1.98 0.66 3 1 C2.875 2.75 2.875 2.75 2 5 C-0.875 7.3125 -0.875 7.3125 -4 9 C-4.99 8.67 -5.98 8.34 -7 8 C-5.51218185 4.21282653 -3.38011591 2.22592999 0 0 Z " fill="#000000" transform="translate(651,561)"/>
<path d="M0 0 C2.37948772 0.17625835 3.70225849 0.69719773 5.37890625 2.40234375 C6.62115486 3.90649092 7.81376056 5.45129851 9 7 C7.02 7.99 7.02 7.99 5 9 C3.02 7.02 1.04 5.04 -1 3 C-0.67 2.01 -0.34 1.02 0 0 Z " fill="#000000" transform="translate(762,555)"/>
<path d="M0 0 C1.32 0 2.64 0 4 0 C4.33 3.63 4.66 7.26 5 11 C3.68 11 2.36 11 1 11 C-0.28317892 7.15046324 -0.06643637 4.05261865 0 0 Z " fill="#000000" transform="translate(82,548)"/>
<path d="M0 0 C0.99 0.33 1.98 0.66 3 1 C2.42647107 4.87132028 0.51295648 7.08172796 -2 10 C-3.32 9.67 -4.64 9.34 -6 9 C-4.47291037 5.56404834 -2.40072955 2.88087546 0 0 Z " fill="#000000" transform="translate(1185,525)"/>
<path d="M0 0 C1.32 0.66 2.64 1.32 4 2 C2.35 5.3 0.7 8.6 -1 12 C-1.99 11.34 -2.98 10.68 -4 10 C-2.8905928 6.51329166 -1.73662334 3.22515763 0 0 Z " fill="#000000" transform="translate(552,514)"/>
<path d="M0 0 C4 6.625 4 6.625 4 10 C3.01 10.33 2.02 10.66 1 11 C0.16121545 9.71186658 -0.67086783 8.41936744 -1.5 7.125 C-1.9640625 6.40570312 -2.428125 5.68640625 -2.90625 4.9453125 C-4 3 -4 3 -4 1 C-2 0 -2 0 0 0 Z " fill="#000000" transform="translate(730,508)"/>
<path d="M0 0 C0.33 1.32 0.66 2.64 1 4 C-2.67410785 5.17571451 -6.16929183 5.07366746 -10 5 C-10.33 4.01 -10.66 3.02 -11 2 C-7.12315913 0.80712589 -4.08378077 0 0 0 Z " fill="#000000" transform="translate(226,464)"/>
<path d="M0 0 C1.32 0.33 2.64 0.66 4 1 C3.49287967 4.71888239 2.88391785 7.73454239 1 11 C-0.32 11 -1.64 11 -3 11 C-2.01 7.37 -1.02 3.74 0 0 Z " fill="#000000" transform="translate(575,459)"/>
<path d="M0 0 C1.32 0 2.64 0 4 0 C4 3.63 4 7.26 4 11 C2.68 11 1.36 11 0 11 C0 7.37 0 3.74 0 0 Z " fill="#000000" transform="translate(716,453)"/>
<path d="M0 0 C3.59391114 1.33488128 6.75490696 2.96022723 10 5 C9.67 5.99 9.34 6.98 9 8 C5.04179141 7.43454163 2.3340947 6.19097652 -1 4 C-0.67 2.68 -0.34 1.36 0 0 Z " fill="#000000" transform="translate(119,450)"/>
<path d="M0 0 C1.32 0 2.64 0 4 0 C4 3.63 4 7.26 4 11 C2.68 11 1.36 11 0 11 C0 7.37 0 3.74 0 0 Z " fill="#000000" transform="translate(76,447)"/>
<path d="M0 0 C0 1.32 0 2.64 0 4 C-2.97 5.32 -5.94 6.64 -9 8 C-9.66 6.68 -10.32 5.36 -11 4 C-9.73308493 3.32591692 -8.46129251 2.66099503 -7.1875 2 C-6.47980469 1.62875 -5.77210938 1.2575 -5.04296875 0.875 C-3 0 -3 0 0 0 Z " fill="#000000" transform="translate(302,438)"/>
<path d="M0 0 C3.43595166 1.52708963 6.11912454 3.59927045 9 6 C8.67 6.99 8.34 7.98 8 9 C4.12867972 8.42647107 1.91827204 6.51295648 -1 4 C-0.67 2.68 -0.34 1.36 0 0 Z " fill="#000000" transform="translate(103,438)"/>
<path d="M0 0 C1.32 0 2.64 0 4 0 C4 3.63 4 7.26 4 11 C2.68 11 1.36 11 0 11 C0 7.37 0 3.74 0 0 Z " fill="#000000" transform="translate(716,434)"/>
<path d="M0 0 C-1.45124634 3.82601307 -3.35774704 5.22329124 -7 7 C-7.99 7 -8.98 7 -10 7 C-10.33 6.01 -10.66 5.02 -11 4 C-9.73760288 3.13341385 -8.46472499 2.28207941 -7.1875 1.4375 C-6.47980469 0.96183594 -5.77210938 0.48617188 -5.04296875 -0.00390625 C-3 -1 -3 -1 0 0 Z " fill="#000000" transform="translate(320,429)"/>
<path d="M0 0 C1.32 0 2.64 0 4 0 C4 3.63 4 7.26 4 11 C2.68 11 1.36 11 0 11 C0 7.37 0 3.74 0 0 Z " fill="#000000" transform="translate(75,427)"/>
<path d="M0 0 C1.32 0.33 2.64 0.66 4 1 C3.34 4.3 2.68 7.6 2 11 C0.68 11 -0.64 11 -2 11 C-1 3.57142857 -1 3.57142857 0 0 Z " fill="#000000" transform="translate(587,421)"/>
<path d="M0 0 C0.99 0.66 1.98 1.32 3 2 C1.64458676 6.06623972 -0.57009469 7.53046818 -4 10 C-4.99 9.67 -5.98 9.34 -7 9 C-6.82374165 6.62051228 -6.30280227 5.29774151 -4.59765625 3.62109375 C-3.09350908 2.37884514 -1.54870149 1.18623944 0 0 Z " fill="#000000" transform="translate(365,391)"/>
<path d="M0 0 C1.32 0.33 2.64 0.66 4 1 C3.34 4.3 2.68 7.6 2 11 C0.68 11 -0.64 11 -2 11 C-2.28571429 3.57142857 -2.28571429 3.57142857 0 0 Z " fill="#000000" transform="translate(721,376)"/>
<path d="M0 0 C1.32 0 2.64 0 4 0 C4 3.63 4 7.26 4 11 C2.68 11 1.36 11 0 11 C0 7.37 0 3.74 0 0 Z " fill="#000000" transform="translate(1039,373)"/>
<path d="M0 0 C3.9492568 0.55105909 7.34920174 1.38935371 11 3 C10.67 4.32 10.34 5.64 10 7 C8.35153231 6.55123384 6.70626545 6.09069512 5.0625 5.625 C4.14597656 5.36976563 3.22945313 5.11453125 2.28515625 4.8515625 C0 4 0 4 -1 2 C-0.67 1.34 -0.34 0.68 0 0 Z " fill="#000000" transform="translate(295,368)"/>
<path d="M0 0 C1.32 0.33 2.64 0.66 4 1 C2.47291037 4.43595166 0.40072955 7.11912454 -2 10 C-2.99 9.67 -3.98 9.34 -5 9 C-4.42647107 5.12867972 -2.51295648 2.91827204 0 0 Z " fill="#000000" transform="translate(391,362)"/>
<path d="M0 0 C4.55737263 0.43820891 7.57653445 0.85041169 11 4 C10.01 5.485 10.01 5.485 9 7 C4.05 5.02 4.05 5.02 -1 3 C-0.67 2.01 -0.34 1.02 0 0 Z " fill="#000000" transform="translate(276,361)"/>
<path d="M0 0 C1.32 0.33 2.64 0.66 4 1 C2.8905928 4.48670834 1.73662334 7.77484237 0 11 C-1.32 10.34 -2.64 9.68 -4 9 C-2.68 6.03 -1.36 3.06 0 0 Z " fill="#000000" transform="translate(729,358)"/>
<path d="M0 0 C0 0.99 0 1.98 0 3 C-3.63 3.66 -7.26 4.32 -11 5 C-11.33 3.68 -11.66 2.36 -12 1 C-10.56496445 0.63597631 -9.12683494 0.28413409 -7.6875 -0.0625 C-6.88699219 -0.25972656 -6.08648437 -0.45695312 -5.26171875 -0.66015625 C-3 -1 -3 -1 0 0 Z " fill="#000000" transform="translate(146,347)"/>
<path d="M0 0 C3.99455527 0.61454696 6.74466336 2.70646737 10 5 C9.67 5.99 9.34 6.98 9 8 C5.00544473 7.38545304 2.25533664 5.29353263 -1 3 C-0.67 2.01 -0.34 1.02 0 0 Z " fill="#000000" transform="translate(952,298)"/>
<path d="M0 0 C3.99500618 1.3697164 6.80009492 3.25722422 10 6 C9.01 6.99 8.02 7.98 7 9 C4.36 7.35 1.72 5.7 -1 4 C-0.67 2.68 -0.34 1.36 0 0 Z " fill="#000000" transform="translate(935,287)"/>
<path d="M0 0 C3.95820859 0.56545837 6.6659053 1.80902348 10 4 C9.34 5.32 8.68 6.64 8 8 C5.03 6.35 2.06 4.7 -1 3 C-0.67 2.01 -0.34 1.02 0 0 Z " fill="#000000" transform="translate(917,278)"/>
<path d="M0 0 C0.66 1.32 1.32 2.64 2 4 C-0.64 5.98 -3.28 7.96 -6 10 C-6.66 8.68 -7.32 7.36 -8 6 C-5.36 4.02 -2.72 2.04 0 0 Z " fill="#000000" transform="translate(791,277)"/>
<path d="M0 0 C1.46015291 0.28241641 2.91809793 0.57626614 4.375 0.875 C5.18710937 1.03742188 5.99921875 1.19984375 6.8359375 1.3671875 C9 2 9 2 11 4 C10.01 5.485 10.01 5.485 9 7 C5.7 6.01 2.4 5.02 -1 4 C-0.67 2.68 -0.34 1.36 0 0 Z " fill="#000000" transform="translate(879,263)"/>
<path d="M0 0 C0.33 1.32 0.66 2.64 1 4 C-2.63 4.66 -6.26 5.32 -10 6 C-10.33 4.68 -10.66 3.36 -11 2 C-3.375 0 -3.375 0 0 0 Z " fill="#000000" transform="translate(829,261)"/>
<path d="M0 0 C1.32 0 2.64 0 4 0 C4 3.63 4 7.26 4 11 C2.68 11 1.36 11 0 11 C0 7.37 0 3.74 0 0 Z " fill="#000000" transform="translate(74,254)"/>
<path d="M0 0 C0.99 0.33 1.98 0.66 3 1 C2.38545304 4.99455527 0.29353263 7.74466336 -2 11 C-2.99 10.34 -3.98 9.68 -5 9 C-3.7508258 5.54074837 -2.32472205 2.85306797 0 0 Z " fill="#000000" transform="translate(96,241)"/>
<path d="M0 0 C1.32 0 2.64 0 4 0 C4 3.63 4 7.26 4 11 C2.68 11 1.36 11 0 11 C0 7.37 0 3.74 0 0 Z " fill="#000000" transform="translate(74,233)"/>
<path d="M0 0 C1.32 0.66 2.64 1.32 4 2 C2.35 4.97 0.7 7.94 -1 11 C-2.32 10.34 -3.64 9.68 -5 9 C-3.35 6.03 -1.7 3.06 0 0 Z " fill="#000000" transform="translate(106,224)"/>
<path d="M0 0 C1.32 0 2.64 0 4 0 C4 3.63 4 7.26 4 11 C2.68 11 1.36 11 0 11 C0 7.37 0 3.74 0 0 Z " fill="#000000" transform="translate(440,213)"/>
<path d="M0 0 C1.32 0 2.64 0 4 0 C4 3.63 4 7.26 4 11 C2.68 11 1.36 11 0 11 C0 7.37 0 3.74 0 0 Z " fill="#000000" transform="translate(74,212)"/>
<path d="M0 0 C1.32 0 2.64 0 4 0 C5.28317892 3.84953676 5.06643637 6.94738135 5 11 C3.68 11 2.36 11 1 11 C0.67 7.37 0.34 3.74 0 0 Z " fill="#000000" transform="translate(438,193)"/>
<path d="M0 0 C1.32 0 2.64 0 4 0 C4 3.63 4 7.26 4 11 C2.68 11 1.36 11 0 11 C0 7.37 0 3.74 0 0 Z " fill="#000000" transform="translate(75,191)"/>
<path d="M0 0 C1.32 0 2.64 0 4 0 C4 3.63 4 7.26 4 11 C2.68 11 1.36 11 0 11 C0 7.37 0 3.74 0 0 Z " fill="#000000" transform="translate(75,170)"/>
<path d="M0 0 C1.32 0.66 2.64 1.32 4 2 C2.02 4.64 0.04 7.28 -2 10 C-3.32 9.34 -4.64 8.68 -6 8 C-4.02 5.36 -2.04 2.72 0 0 Z " fill="#000000" transform="translate(165,145)"/>
<path d="M0 0 C1.32 0.33 2.64 0.66 4 1 C2.55746343 4.36591866 0.66735273 6.51047079 -2 9 C-3.32 8.34 -4.64 7.68 -6 7 C-4.02 4.69 -2.04 2.38 0 0 Z " fill="#000000" transform="translate(191,116)"/>
<path d="M0 0 C1.32 0.33 2.64 0.66 4 1 C2.55746343 4.36591866 0.66735273 6.51047079 -2 9 C-3.32 8.34 -4.64 7.68 -6 7 C-4.02 4.69 -2.04 2.38 0 0 Z " fill="#000000" transform="translate(205,102)"/>
<path d="M0 0 C0.99 0.99 1.98 1.98 3 3 C1.88121617 4.17262904 0.75476949 5.33795138 -0.375 6.5 C-1.00148437 7.1496875 -1.62796875 7.799375 -2.2734375 8.46875 C-4 10 -4 10 -6 10 C-6.33 8.68 -6.66 7.36 -7 6 C-4.69 4.02 -2.38 2.04 0 0 Z " fill="#000000" transform="translate(221,88)"/>
<path d="M0 0 C0.33 1.32 0.66 2.64 1 4 C-5.625 8 -5.625 8 -9 8 C-9.33 7.01 -9.66 6.02 -10 5 C-8.71186658 4.16121545 -7.41936744 3.32913217 -6.125 2.5 C-5.40570313 2.0359375 -4.68640625 1.571875 -3.9453125 1.09375 C-2 0 -2 0 0 0 Z " fill="#000000" transform="translate(271,54)"/>
<path d="M0 0 C0 1.32 0 2.64 0 4 C-3.3 4.66 -6.6 5.32 -10 6 C-10.33 4.68 -10.66 3.36 -11 2 C-7.17679443 0.57741188 -4.08718695 -0.24042276 0 0 Z " fill="#000000" transform="translate(308,40)"/>
<path d="M0 0 C1.32 0 2.64 0 4 0 C4.66 3.3 5.32 6.6 6 10 C4.68 10.33 3.36 10.66 2 11 C1.34 7.37 0.68 3.74 0 0 Z " fill="#000000" transform="translate(817,814)"/>
<path d="M0 0 C1.32 0.33 2.64 0.66 4 1 C2.68 3.97 1.36 6.94 0 10 C-1.32 10 -2.64 10 -4 10 C-3.52449439 8.51965236 -3.04448784 7.04074979 -2.5625 5.5625 C-2.29566406 4.73878906 -2.02882813 3.91507813 -1.75390625 3.06640625 C-1 1 -1 1 0 0 Z " fill="#000000" transform="translate(825,776)"/>
<path d="M0 0 C1.32 0.33 2.64 0.66 4 1 C3.01 3.97 2.02 6.94 1 10 C-0.32 10 -1.64 10 -3 10 C-2.39009109 6.44219804 -1.4216319 3.3171411 0 0 Z " fill="#000000" transform="translate(991,774)"/>
<path d="M0 0 C1.32 0.33 2.64 0.66 4 1 C3.01 4.3 2.02 7.6 1 11 C-0.32 10.67 -1.64 10.34 -3 10 C-2.01 6.7 -1.02 3.4 0 0 Z " fill="#000000" transform="translate(1005,736)"/>
<path d="M0 0 C1.32 0.33 2.64 0.66 4 1 C3.34 4.3 2.68 7.6 2 11 C0.68 11 -0.64 11 -2 11 C-1 3.57142857 -1 3.57142857 0 0 Z " fill="#000000" transform="translate(1010,716)"/>
<path d="M0 0 C-1 3 -1 3 -3.8125 4.75 C-6.96403086 5.98589446 -7.96929372 6.28222189 -11 5 C-10 2 -10 2 -7.1875 0.25 C-4.03596914 -0.98589446 -3.03070628 -1.28222189 0 0 Z " fill="#000000" transform="translate(927,714)"/>
<path d="M0 0 C1.32 0 2.64 0 4 0 C3.34 3.63 2.68 7.26 2 11 C0.68 10.67 -0.64 10.34 -2 10 C-1.34 6.7 -0.68 3.4 0 0 Z " fill="#000000" transform="translate(1019,677)"/>
<path d="M0 0 C0.53625 0.268125 1.0725 0.53625 1.625 0.8125 C0.12664772 5.47404042 -3.25963591 6.67860751 -7.375 8.8125 C-7.705 7.4925 -8.035 6.1725 -8.375 4.8125 C-2.95961538 -0.23365385 -2.95961538 -0.23365385 0 0 Z " fill="#000000" transform="translate(1082.375,621.1875)"/>
<path d="M0 0 C3.3 0 6.6 0 10 0 C10.33 1.32 10.66 2.64 11 4 C7.37 4 3.74 4 0 4 C0 2.68 0 1.36 0 0 Z " fill="#000000" transform="translate(573,597)"/>
<path d="M0 0 C0.99 0 1.98 0 3 0 C3.05422947 1.4370809 3.09289723 2.87475462 3.125 4.3125 C3.14820313 5.11300781 3.17140625 5.91351562 3.1953125 6.73828125 C3 9 3 9 1 12 C0.01 11.34 -0.98 10.68 -2 10 C-1.85950482 8.52031676 -1.71245174 7.04125484 -1.5625 5.5625 C-1.48128906 4.73878906 -1.40007812 3.91507813 -1.31640625 3.06640625 C-1 1 -1 1 0 0 Z " fill="#000000" transform="translate(1031,596)"/>
<path d="M0 0 C3.63 0 7.26 0 11 0 C11 1.32 11 2.64 11 4 C7.7 4 4.4 4 1 4 C0.67 2.68 0.34 1.36 0 0 Z " fill="#000000" transform="translate(828,592)"/>
<path d="M0 0 C-0.33 1.32 -0.66 2.64 -1 4 C-3.97 4.66 -6.94 5.32 -10 6 C-10.33 4.68 -10.66 3.36 -11 2 C-9.54494642 1.47007308 -8.08581873 0.9513211 -6.625 0.4375 C-5.81289063 0.14746094 -5.00078125 -0.14257812 -4.1640625 -0.44140625 C-2 -1 -2 -1 0 0 Z " fill="#000000" transform="translate(603,593)"/>
<path d="M0 0 C0.99 0 1.98 0 3 0 C3.66 3.63 4.32 7.26 5 11 C3.68 11 2.36 11 1 11 C0.63890458 9.35567294 0.28629924 7.7094792 -0.0625 6.0625 C-0.25972656 5.14597656 -0.45695312 4.22945312 -0.66015625 3.28515625 C-0.77230469 2.53105469 -0.88445312 1.77695312 -1 1 C-0.67 0.67 -0.34 0.34 0 0 Z " fill="#000000" transform="translate(88,588)"/>
<path d="M0 0 C0.66 1.32 1.32 2.64 2 4 C-3.29230769 7.07692308 -3.29230769 7.07692308 -6.875 6.6875 C-7.57625 6.460625 -8.2775 6.23375 -9 6 C-8 3 -8 3 -6.15234375 2.05078125 C-5.42144531 1.80714844 -4.69054687 1.56351563 -3.9375 1.3125 C-3.20402344 1.06113281 -2.47054687 0.80976562 -1.71484375 0.55078125 C-0.86599609 0.27814453 -0.86599609 0.27814453 0 0 Z " fill="#000000" transform="translate(875,584)"/>
<path d="M0 0 C0.99 0 1.98 0 3 0 C3 3.63 3 7.26 3 11 C1.68 11 0.36 11 -1 11 C-1.02688151 9.35425434 -1.04634123 7.70838587 -1.0625 6.0625 C-1.07410156 5.14597656 -1.08570313 4.22945312 -1.09765625 3.28515625 C-1 1 -1 1 0 0 Z " fill="#000000" transform="translate(1033,576)"/>
<path d="M0 0 C3.99455527 0.61454696 6.74466336 2.70646737 10 5 C9.67 5.99 9.34 6.98 9 8 C4.16743695 7.58578031 2.17320782 5.53586014 -1 2 C-0.67 1.34 -0.34 0.68 0 0 Z " fill="#000000" transform="translate(776,568)"/>
<path d="M0 0 C0.99 0 1.98 0 3 0 C3.33 3.63 3.66 7.26 4 11 C2.68 11 1.36 11 0 11 C-0.19406478 9.35492782 -0.38007935 7.70890406 -0.5625 6.0625 C-0.66691406 5.14597656 -0.77132812 4.22945312 -0.87890625 3.28515625 C-0.91886719 2.53105469 -0.95882812 1.77695312 -1 1 C-0.67 0.67 -0.34 0.34 0 0 Z " fill="#000000" transform="translate(85,568)"/>
<path d="M0 0 C0.99 0.33 1.98 0.66 3 1 C2.65120368 4.25543229 1.97866739 5.01873107 -0.5625 7.25 C-1.7690625 8.11625 -1.7690625 8.11625 -3 9 C-4.32 8.34 -5.64 7.68 -7 7 C-4.66666667 4.66666667 -2.33333333 2.33333333 0 0 Z " fill="#000000" transform="translate(906,563)"/>
<path d="M0 0 C1.32 0 2.64 0 4 0 C4.0270043 1.45823212 4.04639787 2.91660675 4.0625 4.375 C4.07410156 5.18710937 4.08570313 5.99921875 4.09765625 6.8359375 C4 9 4 9 3 11 C1.68 10.67 0.36 10.34 -1 10 C-0.67 6.7 -0.34 3.4 0 0 Z " fill="#000000" transform="translate(1034,556)"/>
<path d="M0 0 C1.32 0 2.64 0 4 0 C4.66 3.3 5.32 6.6 6 10 C4.68 10.33 3.36 10.66 2 11 C0.33657163 9.33657163 0.63951903 7.2174291 0.4375 4.9375 C0.35371094 4.01839844 0.26992188 3.09929688 0.18359375 2.15234375 C0.09271484 1.08693359 0.09271484 1.08693359 0 0 Z " fill="#000000" transform="translate(540,552)"/>
<path d="M0 0 C1.32 0 2.64 0 4 0 C4.33 3.63 4.66 7.26 5 11 C3.68 11 2.36 11 1 11 C-0.17571451 7.32589215 -0.07366746 3.83070817 0 0 Z " fill="#000000" transform="translate(80,528)"/>
<path d="M0 0 C1.32 0.33 2.64 0.66 4 1 C4 4.3 4 7.6 4 11 C2.68 11 1.36 11 0 11 C0 7.37 0 3.74 0 0 Z " fill="#000000" transform="translate(79,508)"/>
<path d="M0 0 C0.99 0.33 1.98 0.66 3 1 C1.79157144 5.43090471 0.48331435 7.98112756 -3 11 C-3.66 10.67 -4.32 10.34 -5 10 C-4.38545304 6.00544473 -2.29353263 3.25533664 0 0 Z " fill="#000000" transform="translate(954,502)"/>
<path d="M0 0 C0.99 0.33 1.98 0.66 3 1 C2.39301257 5.12751449 0.96189209 8.3321148 -1 12 C-1.99 11.67 -2.98 11.34 -4 11 C-3.39301257 6.87248551 -1.96189209 3.6678852 0 0 Z " fill="#000000" transform="translate(561,496)"/>
<path d="M0 0 C1.32 0.33 2.64 0.66 4 1 C3.01 4.3 2.02 7.6 1 11 C-0.32 10.67 -1.64 10.34 -3 10 C-2.01 6.7 -1.02 3.4 0 0 Z " fill="#000000" transform="translate(568,478)"/>
<path d="M0 0 C0.99 0.33 1.98 0.66 3 1 C2.49701212 5.40114397 0.91227269 7.71195019 -2 11 C-2.99 10.01 -3.98 9.02 -5 8 C-3.35 5.36 -1.7 2.72 0 0 Z " fill="#000000" transform="translate(973,469)"/>
<path d="M0 0 C3.3 0 6.6 0 10 0 C10.33 1.32 10.66 2.64 11 4 C7.37 4 3.74 4 0 4 C0 2.68 0 1.36 0 0 Z " fill="#000000" transform="translate(196,467)"/>
<path d="M0 0 C3.3 0 6.6 0 10 0 C10 1.32 10 2.64 10 4 C6.37 4 2.74 4 -1 4 C-0.67 2.68 -0.34 1.36 0 0 Z " fill="#000000" transform="translate(176,467)"/>
<path d="M0 0 C4.455 0.99 4.455 0.99 9 2 C9.33 3.32 9.66 4.64 10 6 C8.741875 5.87625 7.48375 5.7525 6.1875 5.625 C5.12595703 5.52058594 5.12595703 5.52058594 4.04296875 5.4140625 C2 5 2 5 -1 3 C-0.67 2.01 -0.34 1.02 0 0 Z " fill="#000000" transform="translate(137,459)"/>
<path d="M0 0 C1.32 0.33 2.64 0.66 4 1 C3.34 4.63 2.68 8.26 2 12 C0.68 11.67 -0.64 11.34 -2 11 C-1.34 7.37 -0.68 3.74 0 0 Z " fill="#000000" transform="translate(1231,436)"/>
<path d="M0 0 C1.32 0 2.64 0 4 0 C3.67 3.63 3.34 7.26 3 11 C1.68 11 0.36 11 -1 11 C-1.14285714 3.57142857 -1.14285714 3.57142857 0 0 Z " fill="#000000" transform="translate(1234,417)"/>
<path d="M0 0 C1.32 0 2.64 0 4 0 C3.125 7.625 3.125 7.625 2 11 C0.68 10.67 -0.64 10.34 -2 10 C-1.34 6.7 -0.68 3.4 0 0 Z " fill="#000000" transform="translate(592,402)"/>
<path d="M0 0 C3.95820859 0.56545837 6.6659053 1.80902348 10 4 C9.67 4.99 9.34 5.98 9 7 C5.04179141 6.43454163 2.3340947 5.19097652 -1 3 C-0.67 2.01 -0.34 1.02 0 0 Z " fill="#000000" transform="translate(314,376)"/>
<path d="M0 0 C1.32 0 2.64 0 4 0 C3.34 3.63 2.68 7.26 2 11 C0.68 10.67 -0.64 10.34 -2 10 C-1.34 6.7 -0.68 3.4 0 0 Z " fill="#000000" transform="translate(601,363)"/>
<path d="M0 0 C7.625 0.875 7.625 0.875 11 2 C10.67 3.32 10.34 4.64 10 6 C5.545 5.01 5.545 5.01 1 4 C0.67 2.68 0.34 1.36 0 0 Z " fill="#000000" transform="translate(256,355)"/>
<path d="M0 0 C1.45880109 0.14107747 2.91703551 0.28802415 4.375 0.4375 C5.59316406 0.55931641 5.59316406 0.55931641 6.8359375 0.68359375 C9 1 9 1 11 2 C11 3.32 11 4.64 11 6 C7.37 5.34 3.74 4.68 0 4 C0 2.68 0 1.36 0 0 Z " fill="#000000" transform="translate(216,346)"/>
<path d="M0 0 C2.97 1.98 5.94 3.96 9 6 C8.67 6.99 8.34 7.98 8 9 C4.40608886 7.66511872 1.24509304 6.03977277 -2 4 C-1.34 2.68 -0.68 1.36 0 0 Z " fill="#000000" transform="translate(1020,343)"/>
<path d="M0 0 C3.63 0.33 7.26 0.66 11 1 C11 2.32 11 3.64 11 5 C7.37 4.67 3.74 4.34 0 4 C0 2.68 0 1.36 0 0 Z " fill="#000000" transform="translate(196,344)"/>
<path d="M0 0 C3.63 0 7.26 0 11 0 C11 1.32 11 2.64 11 4 C7.7 4 4.4 4 1 4 C0.67 2.68 0.34 1.36 0 0 Z " fill="#000000" transform="translate(175,344)"/>
<path d="M0 0 C0 1.32 0 2.64 0 4 C-3.63 4.33 -7.26 4.66 -11 5 C-11 3.68 -11 2.36 -11 1 C-7.32589215 -0.17571451 -3.83070817 -0.07366746 0 0 Z " fill="#000000" transform="translate(166,344)"/>
<path d="M0 0 C1.32 0.66 2.64 1.32 4 2 C2.68 4.97 1.36 7.94 0 11 C-1.32 10.67 -2.64 10.34 -4 10 C-2.8905928 6.51329166 -1.73662334 3.22515763 0 0 Z " fill="#000000" transform="translate(422,310)"/>
<path d="M0 0 C1.32 0.33 2.64 0.66 4 1 C3.01 4.3 2.02 7.6 1 11 C-0.32 10.67 -1.64 10.34 -3 10 C-2.39009109 6.44219804 -1.4216319 3.3171411 0 0 Z " fill="#000000" transform="translate(429,292)"/>
<path d="M0 0 C4.95 1.98 4.95 1.98 10 4 C9.67 5.32 9.34 6.64 9 8 C7.51515588 7.60404157 6.0371169 7.18249294 4.5625 6.75 C3.73878906 6.51796875 2.91507813 6.2859375 2.06640625 6.046875 C0 5 0 5 -0.84765625 2.953125 C-0.89792969 2.30859375 -0.94820312 1.6640625 -1 1 C-0.67 0.67 -0.34 0.34 0 0 Z " fill="#000000" transform="translate(899,269)"/>
<path d="M0 0 C1.45880109 0.14107747 2.91703551 0.28802415 4.375 0.4375 C5.59316406 0.55931641 5.59316406 0.55931641 6.8359375 0.68359375 C9 1 9 1 11 2 C10.67 3.32 10.34 4.64 10 6 C6.7 5.34 3.4 4.68 0 4 C0 2.68 0 1.36 0 0 Z " fill="#000000" transform="translate(859,259)"/>
<path d="M0 0 C1.32 0 2.64 0 4 0 C3.67 3.3 3.34 6.6 3 10 C1.68 10.33 0.36 10.66 -1 11 C-1.14285714 3.57142857 -1.14285714 3.57142857 0 0 Z " fill="#000000" transform="translate(438,253)"/>
<path d="M0 0 C1.32 0 2.64 0 4 0 C4.14285714 7.42857143 4.14285714 7.42857143 3 11 C1.68 11 0.36 11 -1 11 C-0.67 7.37 -0.34 3.74 0 0 Z " fill="#000000" transform="translate(440,233)"/>
<path d="M0 0 C1.32 0.33 2.64 0.66 4 1 C2.7508258 4.45925163 1.32472205 7.14693203 -1 10 C-2.32 9.34 -3.64 8.68 -5 8 C-3.35 5.36 -1.7 2.72 0 0 Z " fill="#000000" transform="translate(128,192)"/>
<path d="M0 0 C1.32 0.33 2.64 0.66 4 1 C2.44499019 4.81684226 -0.03595495 7.19195732 -3 10 C-3.66 9.67 -4.32 9.34 -5 9 C-3.7508258 5.54074837 -2.32472205 2.85306797 0 0 Z " fill="#000000" transform="translate(140,176)"/>
<path d="M0 0 C0.66 3.63 1.32 7.26 2 11 C0.68 11 -0.64 11 -2 11 C-2.66 7.7 -3.32 4.4 -4 1 C-2 0 -2 0 0 0 Z " fill="#000000" transform="translate(438,173)"/>
<path d="M0 0 C0.99 0.33 1.98 0.66 3 1 C1.7508258 4.45925163 0.32472205 7.14693203 -2 10 C-3.32 9.67 -4.64 9.34 -6 9 C-4.68775452 5.06326356 -3.08089673 2.77280706 0 0 Z " fill="#000000" transform="translate(153,160)"/>
<path d="M0 0 C0.99 0 1.98 0 3 0 C4.19287411 3.87684087 5 6.91621923 5 11 C3.68 11 2.36 11 1 11 C0.63890458 9.35567294 0.28629924 7.7094792 -0.0625 6.0625 C-0.25972656 5.14597656 -0.45695312 4.22945312 -0.66015625 3.28515625 C-0.77230469 2.53105469 -0.88445312 1.77695313 -1 1 C-0.67 0.67 -0.34 0.34 0 0 Z " fill="#000000" transform="translate(430,154)"/>
<path d="M0 0 C1.953125 0.15234375 1.953125 0.15234375 4 1 C5.046875 3.06640625 5.046875 3.06640625 5.75 5.5625 C5.99234375 6.38878906 6.2346875 7.21507813 6.484375 8.06640625 C6.65453125 8.70449219 6.8246875 9.34257813 7 10 C5.68 10.33 4.36 10.66 3 11 C1.68 7.7 0.36 4.4 -1 1 C-0.67 0.67 -0.34 0.34 0 0 Z " fill="#000000" transform="translate(417,117)"/>
<path d="M0 0 C1.8125 0.0625 1.8125 0.0625 4 1 C8 6.22222222 8 6.22222222 8 9 C6.68 9.33 5.36 9.66 4 10 C2.35 7.03 0.7 4.06 -1 1 C-0.67 0.67 -0.34 0.34 0 0 Z " fill="#000000" transform="translate(399,82)"/>
<path d="M0 0 C4.20626034 1.50223584 5.73900021 4.28550034 8 8 C6.02 8.99 6.02 8.99 4 10 C2.02 7.36 0.04 4.72 -2 2 C-1.34 1.34 -0.68 0.68 0 0 Z " fill="#000000" transform="translate(388,66)"/>
<path d="M0 0 C0.33 0.99 0.66 1.98 1 3 C-0.26418246 3.69965443 -1.53665402 4.38434763 -2.8125 5.0625 C-3.52019531 5.44535156 -4.22789062 5.82820313 -4.95703125 6.22265625 C-7 7 -7 7 -10 6 C-10 5.01 -10 4.02 -10 3 C-6.27034861 0.96564469 -4.33094958 0 0 0 Z " fill="#000000" transform="translate(289,46)"/>
<path d="M0 0 C3.95820859 0.56545837 6.6659053 1.80902348 10 4 C9.67 4.99 9.34 5.98 9 7 C5.04179141 6.43454163 2.3340947 5.19097652 -1 3 C-0.67 2.01 -0.34 1.02 0 0 Z " fill="#000000" transform="translate(356,43)"/>
<path d="M0 0 C0 1.32 0 2.64 0 4 C-3.63 4.33 -7.26 4.66 -11 5 C-11 3.68 -11 2.36 -11 1 C-7.32589215 -0.17571451 -3.83070817 -0.07366746 0 0 Z " fill="#000000" transform="translate(328,37)"/>
<path d="M0 0 C0 0.99 0 1.98 0 3 C-3.63 3.33 -7.26 3.66 -11 4 C-11.33 2.68 -11.66 1.36 -12 0 C-7.6835078 -0.76173392 -4.25566547 -1.16063604 0 0 Z " fill="#000000" transform="translate(886,858)"/>
<path d="M0 0 C1.98 0.495 1.98 0.495 4 1 C3.67 4.3 3.34 7.6 3 11 C1.68 11 0.36 11 -1 11 C-0.67 7.37 -0.34 3.74 0 0 Z " fill="#000000" transform="translate(818,794)"/>
<path d="M0 0 C1.32 0.33 2.64 0.66 4 1 C2.44499019 4.81684226 -0.03595495 7.19195732 -3 10 C-3.66 8.68 -4.32 7.36 -5 6 C-3.35 4.02 -1.7 2.04 0 0 Z " fill="#000000" transform="translate(836,760)"/>
<path d="M0 0 C0.99 0.33 1.98 0.66 3 1 C2.34 3.97 1.68 6.94 1 10 C-0.32 10.33 -1.64 10.66 -3 11 C-3.33 10.34 -3.66 9.68 -4 9 C-3.22265625 6.8359375 -3.22265625 6.8359375 -2.0625 4.375 C-1.68222656 3.55773437 -1.30195312 2.74046875 -0.91015625 1.8984375 C-0.60980469 1.27195312 -0.30945313 0.64546875 0 0 Z " fill="#000000" transform="translate(999,755)"/>
<path d="M0 0 C1.32 0 2.64 0 4 0 C3.67 3.63 3.34 7.26 3 11 C1.68 10.67 0.36 10.34 -1 10 C-0.67 6.7 -0.34 3.4 0 0 Z " fill="#000000" transform="translate(1025,637)"/>
<path d="M0 0 C4.455 0.99 4.455 0.99 9 2 C9 3.32 9 4.64 9 6 C5.53058454 5.54177532 2.32604951 5.10868317 -1 4 C-0.67 2.68 -0.34 1.36 0 0 Z " fill="#000000" transform="translate(810,587)"/>
<path d="M0 0 C2.97 1.65 5.94 3.3 9 5 C8.67 5.99 8.34 6.98 8 8 C3.59885603 7.49701212 1.28804981 5.91227269 -2 3 C-1.34 2.01 -0.68 1.02 0 0 Z " fill="#000000" transform="translate(793,578)"/>
<path d="M0 0 C0.99 0.33 1.98 0.66 3 1 C1.6302836 4.99500618 -0.25722422 7.80009492 -3 11 C-3.66 10.67 -4.32 10.34 -5 10 C-4.49701212 5.59885603 -2.91227269 3.28804981 0 0 Z " fill="#000000" transform="translate(532,550)"/>
<path d="M0 0 C0.99 0.66 1.98 1.32 3 2 C1.44499019 5.81684226 -1.03595495 8.19195732 -4 11 C-4.66 9.68 -5.32 8.36 -6 7 C-4.02 4.69 -2.04 2.38 0 0 Z " fill="#000000" transform="translate(1172,540)"/>
<path d="M0 0 C3.73884332 2.65654657 5.64978174 4.58110387 7 9 C3 9 3 9 0.25 6.5 C-0.4925 5.675 -1.235 4.85 -2 4 C-1.34 2.68 -0.68 1.36 0 0 Z " fill="#000000" transform="translate(750,540)"/>
<path d="M0 0 C1.32 0 2.64 0 4 0 C3.67 3.63 3.34 7.26 3 11 C1.68 11 0.36 11 -1 11 C-1.14285714 3.57142857 -1.14285714 3.57142857 0 0 Z " fill="#000000" transform="translate(1036,536)"/>
<path d="M0 0 C0.99 0.33 1.98 0.66 3 1 C2.42647107 4.87132028 0.51295648 7.08172796 -2 10 C-3.32 9.67 -4.64 9.34 -6 9 C-4.02 6.03 -2.04 3.06 0 0 Z " fill="#000000" transform="translate(932,534)"/>
<path d="M0 0 C4.02550319 1.3418344 4.88285636 3.4227573 7 7 C7 7.66 7 8.32 7 9 C5.68 9.33 4.36 9.66 3 10 C1.35 7.03 -0.3 4.06 -2 1 C-1.34 0.67 -0.68 0.34 0 0 Z " fill="#000000" transform="translate(738,525)"/>
<path d="M0 0 C1.32 0.33 2.64 0.66 4 1 C1.525 5.455 1.525 5.455 -1 10 C-2.32 9.67 -3.64 9.34 -5 9 C-3.7508258 5.54074837 -2.32472205 2.85306797 0 0 Z " fill="#000000" transform="translate(943,519)"/>
<path d="M0 0 C1.32 0 2.64 0 4 0 C4.14285714 7.42857143 4.14285714 7.42857143 3 11 C1.68 11 0.36 11 -1 11 C-0.67 7.37 -0.34 3.74 0 0 Z " fill="#000000" transform="translate(1037,515)"/>
<path d="M0 0 C1.32 0 2.64 0 4 0 C5.17571451 3.67410785 5.07366746 7.16929183 5 11 C3.68 11 2.36 11 1 11 C0.67 7.37 0.34 3.74 0 0 Z " fill="#000000" transform="translate(77,488)"/>
<path d="M0 0 C1.32 0.33 2.64 0.66 4 1 C2.68 3.64 1.36 6.28 0 9 C-1.32 9 -2.64 9 -4 9 C-3.35455571 5.51460083 -1.89865603 2.97180943 0 0 Z " fill="#000000" transform="translate(963,486)"/>
<path d="M0 0 C1.32 0 2.64 0 4 0 C4.33 3.63 4.66 7.26 5 11 C3.68 11 2.36 11 1 11 C0.67 7.37 0.34 3.74 0 0 Z " fill="#000000" transform="translate(716,472)"/>
<path d="M0 0 C3.63 0.66 7.26 1.32 11 2 C10.67 3.32 10.34 4.64 10 6 C6.7 5.34 3.4 4.68 0 4 C0 2.68 0 1.36 0 0 Z " fill="#000000" transform="translate(156,464)"/>
<path d="M0 0 C0.99 0 1.98 0 3 0 C2.53199289 4.05606165 2.12046792 7.46588679 0 11 C-1.32 10.34 -2.64 9.68 -4 9 C-2.68 6.03 -1.36 3.06 0 0 Z " fill="#000000" transform="translate(1226,456)"/>
<path d="M0 0 C1.32 0.33 2.64 0.66 4 1 C2.66511872 4.59391114 1.03977277 7.75490696 -1 11 C-1.99 10.34 -2.98 9.68 -4 9 C-2.80100302 5.9168649 -1.52299523 2.93720508 0 0 Z " fill="#000000" transform="translate(992,436)"/>
<path d="M0 0 C1.32 0.66 2.64 1.32 4 2 C2.35 4.97 0.7 7.94 -1 11 C-1.99 10.67 -2.98 10.34 -4 10 C-3.43454163 6.04179141 -2.19097652 3.3340947 0 0 Z " fill="#000000" transform="translate(1002,419)"/>
<path d="M0 0 C0.99 0.33 1.98 0.66 3 1 C2.38545304 4.99455527 0.29353263 7.74466336 -2 11 C-2.99 10.67 -3.98 10.34 -5 10 C-3.84414715 6.08788267 -2.64465038 3.1254959 0 0 Z " fill="#000000" transform="translate(1022,386)"/>
<path d="M0 0 C4.12751449 0.60698743 7.3321148 2.03810791 11 4 C10.34 5.32 9.68 6.64 9 8 C7.67968405 7.43457996 6.3688699 6.84693528 5.0625 6.25 C3.96615234 5.76273437 3.96615234 5.76273437 2.84765625 5.265625 C1 4 1 4 0.24609375 1.859375 C0.16488281 1.24578125 0.08367187 0.6321875 0 0 Z " fill="#000000" transform="translate(332,385)"/>
<path d="M0 0 C1.32 0.33 2.64 0.66 4 1 C3.34 4.3 2.68 7.6 2 11 C0.68 11 -0.64 11 -2 11 C-1.125 3.375 -1.125 3.375 0 0 Z " fill="#000000" transform="translate(597,382)"/>
<path d="M0 0 C0.99 0.99 1.98 1.98 3 3 C1.02 5.31 -0.96 7.62 -3 10 C-4.32 9.34 -5.64 8.68 -7 8 C-6.02133662 6.85373678 -5.04205413 5.70800212 -4.0625 4.5625 C-3.51722656 3.92441406 -2.97195313 3.28632813 -2.41015625 2.62890625 C-1.63204305 1.73008851 -0.84063472 0.84063472 0 0 Z " fill="#000000" transform="translate(379,377)"/>
<path d="M0 0 C1.32 0 2.64 0 4 0 C4 3.3 4 6.6 4 10 C2.68 10.33 1.36 10.66 0 11 C0 7.37 0 3.74 0 0 Z " fill="#000000" transform="translate(74,368)"/>
<path d="M0 0 C0.99 0.33 1.98 0.66 3 1 C1.84414715 4.91211733 0.64465038 7.8745041 -2 11 C-2.99 10.01 -3.98 9.02 -5 8 C-3.35 5.36 -1.7 2.72 0 0 Z " fill="#000000" transform="translate(739,340)"/>
<path d="M0 0 C1.32 0.66 2.64 1.32 4 2 C2.68 4.64 1.36 7.28 0 10 C-1.32 10 -2.64 10 -4 10 C-3.29445932 6.33118845 -1.72264494 3.29549466 0 0 Z " fill="#000000" transform="translate(413,328)"/>
<path d="M0 0 C1.32 0 2.64 0 4 0 C3.125 7.625 3.125 7.625 2 11 C0.68 10.67 -0.64 10.34 -2 10 C-1.34 6.7 -0.68 3.4 0 0 Z " fill="#000000" transform="translate(434,273)"/>
<path d="M0 0 C0.99 0.33 1.98 0.66 3 1 C1.79157144 5.43090471 0.48331435 7.98112756 -3 11 C-3.66 10.01 -4.32 9.02 -5 8 C-3.35 5.36 -1.7 2.72 0 0 Z " fill="#000000" transform="translate(86,258)"/>
<path d="M0 0 C1.32 0.66 2.64 1.32 4 2 C3.07347299 3.17539996 2.13336613 4.34010577 1.1875 5.5 C0.66542969 6.1496875 0.14335937 6.799375 -0.39453125 7.46875 C-2 9 -2 9 -5 9 C-5 4.61031544 -2.87194899 3.23094261 0 0 Z " fill="#000000" transform="translate(178,130)"/>
<path d="M0 0 C3.3 0.33 6.6 0.66 10 1 C10 2.32 10 3.64 10 5 C6.7 4.67 3.4 4.34 0 4 C0 2.68 0 1.36 0 0 Z " fill="#000000" transform="translate(337,38)"/>
<path d="M0 0 C0.33 0.99 0.66 1.98 1 3 C-0.09758507 3.84198307 -1.20335317 4.67330671 -2.3125 5.5 C-2.92738281 5.9640625 -3.54226563 6.428125 -4.17578125 6.90625 C-6 8 -6 8 -9 8 C-9 6.68 -9 5.36 -9 4 C-2.25 0 -2.25 0 0 0 Z " fill="#000000" transform="translate(893,575)"/>
<path d="M0 0 C1.32 0 2.64 0 4 0 C4.125 7.625 4.125 7.625 3 11 C2.01 11 1.02 11 0 11 C0 7.37 0 3.74 0 0 Z " fill="#000000" transform="translate(1038,495)"/>
<path d="M0 0 C0.99 0.33 1.98 0.66 3 1 C2.5289356 5.14536674 2.0080208 7.9919792 -1 11 C-1.99 11 -2.98 11 -4 11 C-3.39301257 6.87248551 -1.96189209 3.6678852 0 0 Z " fill="#000000" transform="translate(1218,474)"/>
<path d="M0 0 C1.32 0 2.64 0 4 0 C3.67 3.63 3.34 7.26 3 11 C1.68 11 0.36 11 -1 11 C-0.67 7.37 -0.34 3.74 0 0 Z " fill="#000000" transform="translate(1039,475)"/>
<path d="M0 0 C0.99 0 1.98 0 3 0 C3.33 3.63 3.66 7.26 4 11 C2.68 11 1.36 11 0 11 C-0.19406478 9.35492782 -0.38007935 7.70890406 -0.5625 6.0625 C-0.66691406 5.14597656 -0.77132812 4.22945313 -0.87890625 3.28515625 C-0.91886719 2.53105469 -0.95882812 1.77695312 -1 1 C-0.67 0.67 -0.34 0.34 0 0 Z " fill="#000000" transform="translate(77,467)"/>
<path d="M0 0 C1.32 0.33 2.64 0.66 4 1 C2.80100302 4.0831351 1.52299523 7.06279492 0 10 C-1.32 9.67 -2.64 9.34 -4 9 C-2.80100302 5.9168649 -1.52299523 2.93720508 0 0 Z " fill="#000000" transform="translate(982,453)"/>
<path d="M0 0 C0.99 0.33 1.98 0.66 3 1 C2.54177532 4.46941546 2.10868317 7.67395049 1 11 C-0.32 11 -1.64 11 -3 11 C-2.69217504 9.35328588 -2.37860766 7.70764424 -2.0625 6.0625 C-1.88847656 5.14597656 -1.71445312 4.22945313 -1.53515625 3.28515625 C-1 1 -1 1 0 0 Z " fill="#000000" transform="translate(582,440)"/>
<path d="M0 0 C0.99 0 1.98 0 3 0 C3 3.63 3 7.26 3 11 C1.68 11 0.36 11 -1 11 C-1.125 3.375 -1.125 3.375 0 0 Z " fill="#000000" transform="translate(1040,434)"/>
<path d="M0 0 C0.99 0.33 1.98 0.66 3 1 C2.35455571 4.48539917 0.89865603 7.02819057 -1 10 C-2.32 9.67 -3.64 9.34 -5 9 C-4.3566152 7.686298 -3.71021785 6.37407102 -3.0625 5.0625 C-2.70285156 4.33160156 -2.34320312 3.60070312 -1.97265625 2.84765625 C-1 1 -1 1 0 0 Z " fill="#000000" transform="translate(1012,403)"/>
<path d="M0 0 C0.99 0 1.98 0 3 0 C2.49701212 4.40114397 0.91227269 6.71195019 -2 10 C-2.99 9.67 -3.98 9.34 -5 9 C-3.76067171 5.56801397 -2.49698489 2.69674368 0 0 Z " fill="#000000" transform="translate(403,346)"/>
<path d="M0 0 C0.33 1.32 0.66 2.64 1 4 C-5.625 6 -5.625 6 -9 6 C-9 4.68 -9 3.36 -9 2 C-6.03 1.34 -3.06 0.68 0 0 Z " fill="#000000" transform="translate(857,590)"/>
<path d="M0 0 C1.32 0 2.64 0 4 0 C4 3.3 4 6.6 4 10 C2.68 10 1.36 10 0 10 C0 6.7 0 3.4 0 0 Z " fill="#000000" transform="translate(717,415)"/>
<path d="M0 0 C0.99 0 1.98 0 3 0 C4.17571451 3.67410785 4.07366746 7.16929183 4 11 C2.68 11 1.36 11 0 11 C0 7.37 0 3.74 0 0 Z " fill="#000000" transform="translate(75,407)"/>
<path d="M0 0 C1.32 0.33 2.64 0.66 4 1 C2.7508258 4.45925163 1.32472205 7.14693203 -1 10 C-1.99 9.67 -2.98 9.34 -4 9 C-2.94124926 5.59687262 -1.99097846 2.98646769 0 0 Z " fill="#000000" transform="translate(1031,370)"/>
<path d="M0 0 C1.32 0 2.64 0 4 0 C4 3.3 4 6.6 4 10 C2.68 10 1.36 10 0 10 C0 6.7 0 3.4 0 0 Z " fill="#000000" transform="translate(74,350)"/>
<path d="M0 0 C1.32 0 2.64 0 4 0 C3.67 3.96 3.34 7.92 3 12 C2.01 11.67 1.02 11.34 0 11 C0 7.37 0 3.74 0 0 Z " fill="#000000" transform="translate(76,149)"/>
<path d="M0 0 C1.32 0 2.64 0 4 0 C4.125 7.75 4.125 7.75 3 10 C2.01 10 1.02 10 0 10 C0 6.7 0 3.4 0 0 Z " fill="#000000" transform="translate(718,396)"/>
<path d="M0 0 C0.99 0 1.98 0 3 0 C4.60725635 3.21451269 4.05748185 6.43612536 4 10 C2.68 10 1.36 10 0 10 C0 6.7 0 3.4 0 0 Z " fill="#000000" transform="translate(74,331)"/>
<path d="M0 0 C0.99 0.33 1.98 0.66 3 1 C1.55746343 4.36591866 -0.33264727 6.51047079 -3 9 C-3.99 8.67 -4.98 8.34 -6 8 C-4.55746343 4.63408134 -2.66735273 2.48952921 0 0 Z " fill="#000000" transform="translate(695,521)"/>
<path d="M0 0 C1.32 0 2.64 0 4 0 C4 3.63 4 7.26 4 11 C3.01 11 2.02 11 1 11 C0.67 7.37 0.34 3.74 0 0 Z " fill="#000000" transform="translate(1039,394)"/>
<path d="M0 0 C0.99 0 1.98 0 3 0 C3 3.63 3 7.26 3 11 C2.01 11 1.02 11 0 11 C0 7.37 0 3.74 0 0 Z " fill="#000000" transform="translate(1040,414)"/>
<path d="M0 0 C0.99 0 1.98 0 3 0 C3 3.63 3 7.26 3 11 C2.01 11 1.02 11 0 11 C0 7.37 0 3.74 0 0 Z " fill="#000000" transform="translate(1039,323)"/>
<path d="M0 0 C0.99 0 1.98 0 3 0 C3 3.63 3 7.26 3 11 C2.01 11 1.02 11 0 11 C0 7.37 0 3.74 0 0 Z " fill="#000000" transform="translate(1039,303)"/>
<path d="M0 0 C0.99 0 1.98 0 3 0 C3 3.63 3 7.26 3 11 C2.01 11 1.02 11 0 11 C0 7.37 0 3.74 0 0 Z " fill="#000000" transform="translate(1039,283)"/>
<path d="M0 0 C0.99 0 1.98 0 3 0 C3 3.3 3 6.6 3 10 C2.01 10 1.02 10 0 10 C0 6.7 0 3.4 0 0 Z " fill="#000000" transform="translate(74,313)"/>
<path d="M0 0 C0.99 0 1.98 0 3 0 C3 3.3 3 6.6 3 10 C2.01 10 1.02 10 0 10 C0 6.7 0 3.4 0 0 Z " fill="#000000" transform="translate(74,294)"/>
<path d="M0 0 C1.2065625 0.0309375 1.2065625 0.0309375 2.4375 0.0625 C2.7675 1.3825 3.0975 2.7025 3.4375 4.0625 C1.4575 4.0625 -0.5225 4.0625 -2.5625 4.0625 C-2.8925 3.0725 -3.2225 2.0825 -3.5625 1.0625 C-2.5625 0.0625 -2.5625 0.0625 0 0 Z " fill="#000000" transform="translate(421.5625,638.9375)"/>
<path d="M0 0 C0.99 0 1.98 0 3 0 C3 2.64 3 5.28 3 8 C2.01 8 1.02 8 0 8 C0 5.36 0 2.72 0 0 Z " fill="#000000" transform="translate(1039,343)"/>
<path d="M0 0 C0.99 0 1.98 0 3 0 C3.33 1.98 3.66 3.96 4 6 C2.68 6 1.36 6 0 6 C-0.38218767 4.34385343 -0.71395102 2.67542976 -1 1 C-0.67 0.67 -0.34 0.34 0 0 Z " fill="#000000" transform="translate(92,608)"/>
<path d="M0 0 C0.66 0.33 1.32 0.66 2 1 C2 2.65 2 4.3 2 6 C0.68 6.33 -0.64 6.66 -2 7 C-2 5.02 -2 3.04 -2 1 C-1.34 0.67 -0.68 0.34 0 0 Z " fill="#000000" transform="translate(1236,401)"/>
<path d="M0 0 C1.65 0.99 3.3 1.98 5 3 C4.67 3.99 4.34 4.98 4 6 C2.02 5.34 0.04 4.68 -2 4 C-1.34 2.68 -0.68 1.36 0 0 Z " fill="#000000" transform="translate(351,394)"/>
<path d="M0 0 C0.99 0 1.98 0 3 0 C3 1.98 3 3.96 3 6 C1.68 6 0.36 6 -1 6 C-1.042721 4.33388095 -1.04063832 2.66617115 -1 1 C-0.67 0.67 -0.34 0.34 0 0 Z " fill="#000000" transform="translate(604,348)"/>
<path d="M0 0 C0.99 0 1.98 0 3 0 C3 1.98 3 3.96 3 6 C1.68 5.67 0.36 5.34 -1 5 C-0.67 3.35 -0.34 1.7 0 0 Z " fill="#000000" transform="translate(78,92)"/>
<path d="M0 0 C0.99 0 1.98 0 3 0 C3 1.65 3 3.3 3 5 C2.01 5 1.02 5 0 5 C0 3.35 0 1.7 0 0 Z " fill="#000000" transform="translate(1039,268)"/>
</svg>
