<svg width="1071" height="688" viewBox="0 0 1071 688" fill="none" xmlns="http://www.w3.org/2000/svg">
<path d="M109.934 179.516C-140.07 244.016 75.9293 932.016 471.934 591.016C501.601 588.516 562.434 579.716 568.434 564.516C570.434 585.35 577.834 628.916 591.434 636.516C609.101 642.683 649.334 648.616 668.934 623.016C681.267 526.683 710.769 368.516 743.434 307.516C773.601 251.183 828.434 181.515 828.434 346.516C822.43 431.016 803.534 583.716 875.934 636.516C905.767 658.35 977.134 681.716 1023.93 600.516C1039.27 567.016 1069.63 491.116 1068.43 455.516C1066.1 441.516 1053.93 418.816 1023.93 440.016C1015.1 492.683 989.034 600.516 955.434 610.516C938.767 615.683 910.434 578.016 930.434 386.016C971.43 218.016 790.43 77.5156 697.434 282.516C685.767 315.016 662.134 395.116 660.934 455.516L668.934 179.516C662.267 163.85 632.834 141.916 568.434 179.516C560.767 276.683 550.034 477.716 568.434 504.516C548.267 513.683 505.934 530.916 497.934 526.516C528.767 465.516 569.634 299.516 486.434 123.516C436.434 46.0161 299.034 -73.1839 149.434 70.0161C125.929 92.5156 105.534 151.117 109.934 179.516ZM422.43 526.516C441.596 457.35 458.63 279.916 373.43 123.516C311.93 48.0156 191.43 18.5156 177.93 210.516C181.596 300.849 235.63 490.516 422.43 526.516ZM149.43 386.016C170.763 444.349 250.43 565.416 398.43 583.016C376.596 608.516 317.43 651.316 255.43 618.516C224.763 599.516 160.63 526.417 149.43 386.016Z" stroke="black" stroke-width="5"/>
<path d="M133.57 237.501C22.5003 393.5 133.57 781 405.5 610C548.497 541.001 474.996 -55.4998 237.998 45.5004C44.9957 153.001 112.996 563.5 494.998 563.5C522.998 564.5 609.95 474.8 634.75 416L621 222L630.5 614C661.5 345 836 59.5 867.5 303C825.5 559.5 956 810.5 1052 460.5" stroke="black" stroke-width="3" stroke-dasharray="10 10"/>
</svg>
