<svg width="1590" height="702" viewBox="0 0 1590 702" fill="none" xmlns="http://www.w3.org/2000/svg">
<path d="M63.5752 166.146C308.575 -166.356 570.575 89.1445 455.075 232.646C415.476 275.846 372.575 255.979 356.075 240.646C370.475 223.846 382.075 172.313 386.075 148.646C372.875 27.4459 285.575 68.8127 243.575 104.646C62.7748 339.846 179.575 529.979 260.575 595.646C428.975 681.246 537.408 487.646 570.575 380.146C661.5 122 930.075 179.145 930.075 261.646L1035.57 202.646H1077.57L1002.07 478.146C961.675 632.946 1060.57 559.979 1115.07 504.146C1139.47 486.546 1223.24 350.479 1262.07 284.646H1100.07C1084.47 249.446 1093.57 235.313 1100.07 232.646L1300.07 228.646C1399.27 3.44592 1511.74 4.81274 1555.57 33.6461C1475.97 91.2461 1430.41 187.646 1417.57 228.646H1586.07C1572.07 271.446 1554.57 286.813 1547.57 289.146H1391.57C1293.97 490.346 1297.24 577.313 1311.07 595.646C1366.27 582.846 1441.74 462.646 1472.57 404.146C1506.57 395.346 1514.07 419.813 1513.57 433.146C1441.97 619.946 1329.07 687.646 1281.57 698.146C1175.57 708.146 1211.07 535.313 1242.07 447.646C1229.27 466.846 1131.74 569.646 1084.57 618.646C889.375 785.446 841.908 647.813 842.575 558.146C679.775 794.146 571.075 676.146 537.075 587.646C400.275 728.446 232.742 690.313 166.075 653.646C-48.3248 523.646 -15.9248 284.646 63.5752 166.146Z" stroke="black" stroke-width="5"/>
<path d="M754.074 337.144C834.474 223.944 868.907 278.644 876.074 320.144C861.274 484.144 778.574 554.811 739.074 569.645C656.274 556.845 714.574 409.311 754.074 337.144Z" stroke="black" stroke-width="5"/>
<path d="M409 210.503C519.999 59.5028 210.499 -82.499 118 190.003C24.9995 497.003 207.499 878 611 497.003M611 497.003C611 359.503 730.499 148.903 906.499 288.503C920.999 302.17 952.299 335.503 961.499 359.503C955.108 377.975 948.901 397.6 943.306 417.503M611 497.003C604.499 673.503 744.499 683.003 943.306 417.503M1482 59.5034C1406.8 138.303 1230.67 384.003 1152 497.003C892.977 756.025 898.271 577.72 943.306 417.503M1131 261.003H1329.25M1527.5 261.003H1329.25M1329.25 261.003C1264.83 500.17 1205.2 871.703 1482 444.503" stroke="black" stroke-width="3" stroke-dasharray="10 10"/>
</svg>
