<svg width="1601" height="735" viewBox="0 0 1601 735" fill="none" xmlns="http://www.w3.org/2000/svg">
<path d="M52.0379 719.107C-19.4629 661.606 4.03794 246.607 19.0379 90.6068C67.8382 25.4068 125.038 55.1066 147.538 78.1064V428.107C217.138 376.907 326.871 158.44 373.038 55.6064C414.638 44.0064 442.371 74.1067 451.038 90.6068C427.438 209.807 289.538 365.274 223.538 428.107C247.138 488.107 314.704 558.44 345.538 586.106C481.138 641.306 549.038 430.773 566.038 318.606L662.538 302.106C656.138 311.306 626.204 432.607 612.038 492.107C584.038 583.307 623.704 558.773 647.038 535.106L819.538 269.107H702.5C678.9 229.507 698.167 211.94 708 208.107H859.538C945.538 -7.89323 1062.37 -11.5599 1110.04 13.6068C1028.84 93.2068 987.538 176.44 977.038 208.107H1143.04C1136.64 236.907 1114.7 260.773 1104.54 269.107H951.038C924.238 298.307 886.204 429.94 870.538 492.107C841.738 578.907 875.871 582.273 896.538 573.107C931.738 567.507 1043.87 507.44 1095.54 478.107C1077.14 324.907 1186.2 210.273 1243.04 172.107C1391.04 90.9068 1432.04 178.607 1434.04 232.607C1422.44 317.407 1280.87 437.273 1211.54 486.607C1224.34 563.007 1297.2 557.44 1332.04 545.107C1459.54 499.963 1501.04 351.606 1531.04 289.607C1569.84 264.407 1591.54 289.44 1597.54 305.107C1490.04 714.106 1134.04 693.606 1110.04 545.107C714.037 838.307 738.038 589.273 799.538 428.107C794.738 434.907 738.037 545.107 691.538 599.607C584.037 698.607 510.204 652.94 502.038 620.107C484.438 651.707 436.704 673.607 415.038 680.607C270.238 709.807 176.371 583.773 147.538 517.107C140.338 547.907 150.538 650.94 156.538 698.607C102.138 747.007 64.2045 732.44 52.0379 719.107Z" stroke="black" stroke-width="5"/>
<path d="M617.961 255.215C585.46 255.215 561.462 188.728 617.961 176.215C662.462 171.215 688.962 255.227 617.961 255.215Z" stroke="black" stroke-width="5"/>
<path d="M1199.04 410.606C1255.2 374.273 1358.54 285.606 1322.54 221.606C1289.54 215.773 1218.64 245.406 1199.04 410.606Z" stroke="black" stroke-width="5"/>
<path d="M93.9632 118C91.0819 228.026 87.4625 412.684 88.0668 542M93.9632 684.5C90.0785 669.824 88.4062 614.644 88.0668 542M88.0668 542C108.171 526.018 135.058 502.484 164.963 473.214M397.463 150.5C346.241 275.935 244.836 395.036 164.963 473.214M164.963 473.214C225.463 575.309 382.063 740.5 524.463 584.5C531.024 570.387 539.252 552.26 547.963 532.454M607.463 371C605.356 396.582 574.434 472.266 547.963 532.454M547.963 532.454C553.963 621.803 612.763 720.9 799.963 402.5C816.869 377.015 838.85 344.494 863.084 309.5M1064.46 52C1026.48 80.4115 934.891 205.811 863.084 309.5M736.463 253H1103.96M863.084 309.5C807.21 493.469 777.163 795.618 1103.96 532.454C1187.3 489.803 1434.96 309.5 1391.46 232C1334.46 150.5 1119.46 220.5 1167.96 525.5C1189.96 628 1381.96 721 1578.96 341" stroke="black" stroke-width="3" stroke-dasharray="10 10"/>
</svg>
