<svg width="1611" height="825" viewBox="0 0 1611 825" fill="none" xmlns="http://www.w3.org/2000/svg">
<path d="M61.8705 643.011C-39.7295 436.611 12.8705 134.345 51.8705 9.01145C117.471 -10.9886 168.87 23.6781 186.37 43.5114V76.0114C327.37 -109.488 584.37 159.511 526.37 335.011C545.17 326.611 589.87 325.845 609.87 326.511C622.388 283.311 654.753 274.178 669.37 275.011C693.77 133.011 811.87 138.845 867.87 159.511C1023.47 252.711 993.37 445.345 958.87 530.011C1003.27 529.211 1030.7 492.011 1038.87 473.511C983.27 354.311 1032.04 248.845 1063.37 211.011C1184.17 103.411 1280.37 168.845 1313.37 215.011C1313.37 196.211 1321.37 174.511 1325.37 166.011C1389.37 126.811 1433.7 155.678 1447.87 175.011V513.011C1515.07 456.611 1549.87 349.845 1558.87 303.511C1596.47 281.911 1607.2 315.511 1607.87 335.011C1599.07 449.411 1492.2 548.345 1439.87 583.511C1434.67 667.911 1379.37 761.012 1333.87 793.011C1193.47 861.411 1138.7 792.845 1128.87 750.011C1098.07 658.411 1239.04 596.511 1313.37 577.011C1317.77 558.211 1319.2 459.511 1319.37 412.511C1307.77 489.311 1277.2 531.511 1263.37 543.011C1178.97 616.611 1094.87 553.678 1063.37 513.011C1023.77 565.011 962.537 577.345 936.87 577.011C899.67 631.811 839.037 647.178 813.37 648.011C616.17 652.011 585.537 466.345 594.87 373.011C580.47 373.811 543.203 391.678 526.37 400.511C436.37 696.512 285.531 643.605 227.87 663.511C143.87 692.512 90.5371 662.011 61.8705 643.011Z" stroke="black" stroke-width="5"/>
<path d="M202.87 473.012C166.47 208.612 256.037 109.512 305.37 93.0117C376.57 143.412 377.37 297.678 368.87 368.512C295.67 371.312 227.703 439.345 202.87 473.012Z" stroke="black" stroke-width="5"/>
<path d="M342.871 462.012C314.704 475.012 256.871 516.412 250.871 578.012C275.204 567.012 327.671 528.412 342.871 462.012Z" stroke="black" stroke-width="5"/>
<path d="M703.371 432.512C712.204 521.845 760.771 675.612 884.371 576.012C834.871 566.512 729.371 524.512 703.371 432.512Z" stroke="black" stroke-width="5"/>
<path d="M832.869 201.012C928.869 277.512 919.702 476.512 900.369 531.512C792.769 511.911 743.202 411.678 731.869 364.012C692.269 188.812 782.702 182.345 832.869 201.012Z" stroke="black" stroke-width="5"/>
<path d="M1150.37 341.012C1172.37 143.412 1264.87 228.345 1308.37 295.512L1286.37 384.012C1189.57 629.612 1155.37 457.679 1150.37 341.012Z" stroke="black" stroke-width="5"/>
<path d="M1306.87 643.512C1259.2 661.678 1173.07 710.212 1209.87 759.012C1228.7 774.178 1274.47 772.312 1306.87 643.512Z" stroke="black" stroke-width="5"/>
<path d="M108 85C107.483 134.835 107.883 203.962 110.143 276M149.5 605.5C125.407 559.669 114.43 412.602 110.143 276M149.5 605.5C425.901 717.899 452 402 430.5 230C292.5 -90.8003 159.429 127 110.143 276M149.5 605.5C201.667 511.5 378.5 329.2 668.5 352M668.5 352C658 488.167 689.4 724.9 899 582.5C956 505 1019.5 315.601 817.5 178.001C779.516 169.28 704.623 184.833 676.716 302M668.5 352C670.357 333.57 673.153 316.957 676.716 302M676.716 302C723.311 438.333 864 667.5 1054 493.5C1067.5 479.667 1096.3 449.8 1103.5 441M1103.5 441C1083.33 288.5 1108.8 48.7002 1372 297.5M1103.5 441C1220 694 1290 389.5 1372 297.5M1372 297.5V186.501M1372 297.5C1380.17 440.833 1368.2 736.5 1255 784.5C1220.17 799.667 1123.5 739.5 1188 686C1367 571.5 1597.4 502.6 1579 335" stroke="black" stroke-width="3" stroke-dasharray="10 10"/>
</svg>
