<svg width="1084" height="688" viewBox="0 0 1084 688" fill="none" xmlns="http://www.w3.org/2000/svg">
<path d="M4.7549 441.697C61.1549 -37.1034 449.588 -29.8034 636.755 33.6966V76.6963C557.555 124.696 500.755 360.03 482.255 471.696C472.655 729.696 659.922 447.863 754.755 274.696H599.755C570.155 249.496 587.422 222.863 599.755 212.696H796.255C887.455 -10.9037 1004.26 -11.137 1051.26 16.6963C943.255 128.696 915.255 194.03 914.755 212.696H1080.76C1078.35 228.296 1055.09 260.53 1043.76 274.696H887.755C868.555 298.696 821.755 450.363 800.755 523.196C785.955 583.996 815.588 574.196 832.255 561.696C867.055 553.696 936.422 443.03 966.755 388.696C997.955 380.696 1008.42 403.03 1009.75 415.196C1008.55 449.196 927.922 561.363 887.755 613.196C668.555 802.796 695.088 571.863 735.755 432.696C471.355 809.896 352.588 675.863 326.255 561.696C117.055 830.096 -13.8556 599.696 4.7549 441.697Z" stroke="black" stroke-width="5"/>
<path d="M333.756 479.5C330.956 320.3 438.922 160.167 493.256 100C254.055 20.4002 167.922 319.834 154.756 479.5C184.756 637.9 286.589 545.5 333.756 479.5Z" stroke="black" stroke-width="5"/>
<path d="M390.508 480.002C296.5 545.5 195.5 693 104.008 574.001C-55 293 316.007 -32.4982 559.008 67.5006C493.015 125.501 419.178 366.668 390.508 480.002ZM390.508 480.002C349.5 828 655.762 543 851.586 241M958.508 57.5003C923.396 124.418 887.474 185.655 851.586 241M625.5 241H851.586M1035.5 241H851.586M851.586 241C803.224 344.167 699 574.6 769 635C826 650.5 914.4 552.4 980 424" stroke="black" stroke-width="3" stroke-dasharray="10 10"/>
</svg>
