<?xml version="1.0" standalone="no"?>
<!DOCTYPE svg PUBLIC "-//W3C//DTD SVG 20010904//EN"
 "http://www.w3.org/TR/2001/REC-SVG-20010904/DTD/svg10.dtd">
<svg version="1.0" xmlns="http://www.w3.org/2000/svg"
 width="969.000000pt" height="704.000000pt" viewBox="0 0 969.000000 704.000000"
 preserveAspectRatio="xMidYMid meet">

<g transform="translate(0.000000,704.000000) scale(0.100000,-0.100000)"
fill="#000000" stroke="none">
<path d="M1255 7030 c-320 -34 -554 -154 -633 -327 -40 -89 -84 -242 -121
-428 -29 -144 -32 -178 -66 -906 -55 -1188 -50 -1732 30 -3069 39 -639 159
-1342 270 -1575 65 -135 209 -257 392 -333 83 -33 96 -36 223 -40 212 -7 389
31 507 107 63 41 108 88 129 136 9 21 19 200 34 635 23 649 27 703 96 1290 79
673 129 1012 163 1113 11 30 19 70 19 88 1 79 186 869 262 1119 23 74 71 205
107 290 210 499 404 790 527 790 42 0 108 -42 140 -89 52 -75 76 -163 116
-441 83 -567 85 -595 83 -1165 -3 -535 -17 -1124 -33 -1335 -5 -69 -14 -237
-20 -375 -14 -325 -28 -577 -41 -747 l-12 -137 30 -63 c61 -131 185 -254 318
-318 150 -72 296 -92 510 -70 276 28 445 109 509 243 21 46 26 79 40 272 43
575 105 1138 161 1464 14 79 59 288 101 465 191 815 336 1315 434 1491 21 39
56 104 78 146 101 191 264 390 359 438 59 29 123 28 161 -4 63 -53 101 -201
102 -392 0 -61 -31 -502 -70 -980 -90 -1133 -90 -1130 -97 -1608 -8 -594 5
-739 102 -1092 136 -500 261 -793 424 -996 76 -94 129 -134 319 -242 236 -133
347 -174 527 -195 523 -59 993 126 1276 503 155 206 376 686 529 1146 84 253
120 388 209 786 63 283 68 315 60 368 -32 203 -158 328 -334 331 -59 1 -77 -3
-116 -26 -81 -48 -118 -121 -144 -286 -28 -176 -141 -596 -270 -1005 -79 -252
-204 -529 -353 -782 -191 -323 -434 -446 -561 -283 -35 44 -99 188 -126 283
-52 181 -67 356 -80 940 -6 251 -3 335 49 1216 31 521 63 993 72 1050 21 143
30 553 15 716 -39 421 -160 742 -362 966 -117 131 -316 258 -496 316 -149 48
-211 56 -428 56 -181 -1 -211 -3 -313 -28 -129 -30 -279 -94 -384 -163 -96
-63 -267 -236 -350 -354 -81 -114 -201 -345 -262 -501 -66 -172 -172 -530
-226 -768 -16 -68 -31 -125 -33 -127 -2 -2 -7 51 -11 118 -26 474 -97 983
-166 1188 -27 83 -102 223 -183 345 -208 313 -447 452 -847 495 -173 19 -342
-16 -525 -107 -219 -110 -449 -307 -635 -546 -82 -106 -245 -479 -366 -840
-101 -300 -129 -432 -190 -884 -15 -117 -30 -211 -31 -209 -2 2 17 563 41
1247 25 684 46 1281 48 1326 2 78 0 85 -28 125 -44 62 -157 144 -244 177 -122
47 -272 66 -415 51z m309 -70 c103 -26 209 -83 273 -148 l53 -52 0 -70 c0 -38
-25 -748 -55 -1577 -30 -829 -55 -1544 -56 -1588 -2 -78 -2 -80 22 -83 l24 -3
28 233 c46 383 116 894 142 1039 31 174 97 402 181 627 64 172 193 482 236
566 55 108 265 340 425 466 152 121 321 209 479 251 216 56 555 -1 766 -127
93 -57 213 -169 282 -267 87 -123 196 -319 222 -402 81 -255 143 -776 179
-1501 l7 -131 24 5 c21 4 24 10 24 52 0 189 184 907 311 1215 177 429 412 717
700 857 189 92 359 124 609 115 289 -11 493 -82 700 -246 323 -256 480 -692
480 -1335 0 -165 -20 -437 -35 -485 -2 -9 -30 -443 -61 -966 -53 -907 -55
-964 -49 -1250 14 -672 33 -835 127 -1077 67 -176 156 -258 278 -258 141 0
316 145 452 375 92 157 175 322 256 510 101 235 315 963 367 1250 31 170 44
211 86 259 47 53 90 70 156 60 107 -15 182 -74 229 -177 46 -103 44 -147 -20
-437 -82 -367 -129 -548 -203 -775 -146 -446 -365 -930 -521 -1148 -133 -186
-352 -349 -580 -431 -147 -52 -260 -69 -467 -70 -280 -1 -378 22 -599 137
-201 106 -295 166 -357 229 -176 178 -320 499 -469 1048 -84 306 -100 453
-100 910 0 456 12 655 110 1870 63 787 69 925 45 1064 -33 191 -98 276 -210
276 -76 0 -145 -38 -235 -128 -95 -96 -146 -167 -261 -368 -100 -174 -137
-258 -205 -468 -122 -379 -361 -1350 -418 -1696 -52 -317 -107 -823 -147
-1340 -19 -253 -24 -290 -45 -331 -58 -117 -211 -184 -475 -210 -203 -19 -334
-1 -479 68 -98 46 -229 175 -278 274 l-34 67 11 123 c13 157 28 414 41 734 6
138 15 309 20 380 18 241 31 777 33 1330 2 610 4 584 -78 1165 -42 296 -49
325 -90 416 -67 148 -182 215 -291 169 -122 -51 -311 -352 -496 -790 -126
-295 -218 -639 -375 -1385 -79 -380 -105 -553 -188 -1250 -67 -568 -75 -677
-98 -1321 l-22 -596 -28 -37 c-91 -119 -314 -185 -584 -173 -121 5 -122 5
-225 54 -172 83 -282 180 -330 292 -103 241 -215 869 -252 1416 -53 771 -59
961 -63 1795 -4 793 -4 833 27 1480 19 427 36 697 46 755 36 203 95 418 140
506 60 120 245 222 478 264 115 21 319 19 410 -5z"/>
<path d="M3300 6330 c0 -5 23 -10 50 -10 28 0 50 5 50 10 0 6 -22 10 -50 10
-27 0 -50 -4 -50 -10z"/>
<path d="M3500 6322 c0 -5 23 -15 50 -24 57 -18 68 -5 15 18 -38 16 -65 18
-65 6z"/>
<path d="M3142 6289 c-24 -10 -41 -23 -37 -28 6 -11 88 22 93 38 5 15 -6 13
-56 -10z"/>
<path d="M3690 6241 c0 -12 66 -61 82 -61 7 1 -5 16 -27 35 -41 35 -55 42 -55
26z"/>
<path d="M2960 6180 c-21 -17 -29 -29 -20 -29 8 0 31 13 50 29 22 18 29 30 20
30 -9 0 -31 -13 -50 -30z"/>
<path d="M6280 6186 c0 -13 11 -16 50 -16 28 0 50 5 50 10 0 6 -15 10 -34 10
-19 0 -41 3 -50 6 -11 4 -16 1 -16 -10z"/>
<path d="M6098 6183 c-32 -8 -20 -26 13 -19 17 3 40 6 50 6 11 0 19 5 19 10 0
10 -49 12 -82 3z"/>
<path d="M6480 6152 c0 -12 88 -47 96 -39 3 3 -7 12 -23 20 -43 22 -73 30 -73
19z"/>
<path d="M5921 6130 c-24 -11 -41 -23 -38 -27 9 -8 97 26 97 38 0 13 -9 11
-59 -11z"/>
<path d="M1060 6095 c0 -14 5 -25 10 -25 6 0 10 11 10 25 0 14 -4 25 -10 25
-5 0 -10 -11 -10 -25z"/>
<path d="M3840 6103 c1 -14 60 -77 66 -71 7 8 -44 78 -57 78 -5 0 -9 -3 -9 -7z"/>
<path d="M2810 6045 c-23 -24 -29 -35 -18 -35 9 0 28 16 42 35 15 19 23 35 18
35 -4 0 -23 -16 -42 -35z"/>
<path d="M5747 6034 c-34 -22 -48 -44 -29 -44 12 1 77 58 71 64 -3 3 -22 -6
-42 -20z"/>
<path d="M6695 6025 c21 -18 43 -31 49 -28 11 8 -54 62 -74 62 -9 0 2 -14 25
-34z"/>
<path d="M1066 5962 c-7 -12 6 -92 15 -92 12 0 11 87 0 95 -5 3 -12 2 -15 -3z"/>
<path d="M3960 5934 c0 -11 45 -84 53 -84 11 0 9 7 -13 50 -17 34 -40 53 -40
34z"/>
<path d="M2683 5897 c-25 -36 -28 -47 -14 -47 4 0 20 18 35 40 16 25 22 40 14
40 -7 0 -23 -15 -35 -33z"/>
<path d="M5591 5893 c-17 -21 -27 -39 -22 -41 10 -3 70 57 71 71 0 17 -21 4
-49 -30z"/>
<path d="M6810 5923 c0 -5 29 -47 57 -82 2 -2 6 -1 9 2 8 8 -45 87 -57 87 -5
0 -9 -3 -9 -7z"/>
<path d="M1070 5720 c0 -27 5 -50 10 -50 6 0 10 23 10 50 0 28 -4 50 -10 50
-5 0 -10 -22 -10 -50z"/>
<path d="M5492 5725 c-12 -24 -18 -46 -13 -49 4 -3 17 15 29 39 12 24 18 46
13 49 -4 3 -17 -15 -29 -39z"/>
<path d="M2591 5718 c-18 -43 -19 -60 -1 -42 17 17 41 84 30 84 -6 0 -19 -19
-29 -42z"/>
<path d="M4054 5744 c5 -11 13 -31 18 -46 5 -16 16 -28 24 -28 10 0 10 9 -5
42 -17 41 -53 72 -37 32z"/>
<path d="M6927 5754 c-8 -9 31 -84 43 -84 14 0 13 5 -10 50 -22 42 -23 44 -33
34z"/>
<path d="M5415 5557 c-20 -49 -21 -52 -11 -55 13 -5 47 76 35 83 -5 4 -16 -9
-24 -28z"/>
<path d="M2519 5535 c-12 -33 -13 -45 -4 -45 6 0 17 17 23 39 14 45 15 51 4
51 -4 0 -14 -20 -23 -45z"/>
<path d="M1080 5520 c0 -27 5 -50 10 -50 6 0 10 23 10 50 0 28 -4 50 -10 50
-5 0 -10 -22 -10 -50z"/>
<path d="M4138 5520 c9 -27 19 -50 24 -50 10 0 10 3 -3 56 -6 24 -17 44 -24
44 -10 0 -10 -11 3 -50z"/>
<path d="M7018 5520 c9 -27 19 -50 24 -50 10 0 10 3 -3 56 -6 24 -17 44 -24
44 -10 0 -10 -11 3 -50z"/>
<path d="M2456 5353 c-19 -55 -19 -53 -7 -53 13 0 42 88 31 95 -4 3 -15 -16
-24 -42z"/>
<path d="M5342 5373 c-5 -16 -13 -36 -17 -45 -4 -11 -3 -18 4 -18 10 0 41 61
41 81 0 20 -19 7 -28 -18z"/>
<path d="M1087 5373 c-4 -3 -7 -26 -7 -50 0 -30 4 -43 14 -43 10 0 12 11 8 48
-5 53 -6 55 -15 45z"/>
<path d="M4188 5375 c-9 -10 15 -95 28 -95 9 0 9 10 2 43 -11 44 -21 61 -30
52z"/>
<path d="M7064 5339 c3 -17 6 -38 6 -45 0 -8 5 -14 10 -14 11 0 13 33 4 68
-10 34 -27 27 -20 -9z"/>
<path d="M5270 5175 c-7 -25 -10 -48 -7 -51 7 -7 37 61 37 82 0 30 -18 11 -30
-31z"/>
<path d="M2400 5186 c-18 -47 -22 -76 -12 -76 11 0 38 88 29 97 -4 3 -11 -6
-17 -21z"/>
<path d="M1090 5130 c0 -27 5 -50 10 -50 6 0 10 23 10 50 0 28 -4 50 -10 50
-5 0 -10 -22 -10 -50z"/>
<path d="M4235 5148 c11 -55 16 -68 26 -68 6 0 8 8 5 18 -2 9 -7 32 -11 50 -4
17 -11 32 -17 32 -6 0 -7 -13 -3 -32z"/>
<path d="M7097 5172 c-10 -15 2 -102 14 -102 10 0 11 20 1 75 -5 25 -10 35
-15 27z"/>
<path d="M5211 5008 c-19 -50 -21 -67 -12 -72 5 -3 16 15 25 41 19 55 19 53 6
53 -6 0 -14 -10 -19 -22z"/>
<path d="M2342 4999 c-19 -51 -22 -68 -14 -73 5 -3 15 15 22 39 13 48 7 74 -8
34z"/>
<path d="M1090 4968 c0 -34 14 -88 22 -88 14 0 5 93 -9 98 -7 2 -13 -2 -13
-10z"/>
<path d="M4275 4933 c7 -50 11 -60 21 -51 9 10 -7 98 -18 98 -7 0 -8 -18 -3
-47z"/>
<path d="M7104 4954 c3 -9 6 -31 6 -50 0 -19 5 -34 10 -34 6 0 10 23 10 50 0
39 -3 50 -16 50 -11 0 -14 -5 -10 -16z"/>
<path d="M5142 4801 c-14 -47 -15 -51 -2 -51 8 0 30 60 30 83 0 22 -18 2 -28
-32z"/>
<path d="M2287 4823 c-3 -5 -10 -25 -15 -46 -8 -29 -8 -37 1 -34 14 4 40 87
27 87 -5 0 -11 -3 -13 -7z"/>
<path d="M1100 4736 c0 -25 5 -48 10 -51 6 -4 10 13 10 44 0 28 -4 51 -10 51
-5 0 -10 -20 -10 -44z"/>
<path d="M4304 4723 c6 -47 12 -61 21 -51 9 9 -7 98 -18 98 -6 0 -7 -18 -3
-47z"/>
<path d="M7106 4748 c-9 -34 -7 -76 3 -83 13 -8 26 84 14 96 -7 7 -12 2 -17
-13z"/>
<path d="M5082 4611 c-14 -46 -15 -51 -4 -51 5 0 14 17 20 39 14 46 15 51 4
51 -5 0 -14 -17 -20 -39z"/>
<path d="M2221 4603 c-13 -46 -13 -53 -3 -53 5 0 14 17 20 39 14 47 15 51 2
51 -5 0 -14 -17 -19 -37z"/>
<path d="M1110 4541 c0 -28 5 -51 10 -51 6 0 10 20 10 44 0 25 -4 48 -10 51
-6 4 -10 -13 -10 -44z"/>
<path d="M4325 4523 c7 -51 11 -60 21 -50 10 10 -6 97 -18 97 -7 0 -8 -16 -3
-47z"/>
<path d="M7097 4553 c-11 -10 -8 -93 3 -93 6 0 10 15 10 34 0 19 3 41 6 50 6
16 -7 22 -19 9z"/>
<path d="M5030 4446 c-18 -47 -22 -76 -12 -76 11 0 38 88 29 97 -4 3 -11 -6
-17 -21z"/>
<path d="M2176 4448 c-2 -7 -9 -28 -15 -47 -14 -42 -14 -44 1 -39 15 5 39 86
27 94 -5 3 -11 -1 -13 -8z"/>
<path d="M1110 4340 c0 -27 5 -50 10 -50 6 0 10 23 10 50 0 28 -4 50 -10 50
-5 0 -10 -22 -10 -50z"/>
<path d="M4340 4321 c0 -28 5 -53 10 -56 6 -4 10 15 10 49 0 31 -4 56 -10 56
-5 0 -10 -22 -10 -49z"/>
<path d="M7075 4348 c-11 -36 -10 -88 2 -88 8 0 13 13 13 34 0 19 3 41 6 50 3
9 1 16 -5 16 -7 0 -13 -6 -16 -12z"/>
<path d="M4971 4257 c-19 -49 -24 -77 -12 -77 12 0 34 75 28 93 -3 7 -10 -1
-16 -16z"/>
<path d="M2111 4226 c-13 -54 -13 -56 -2 -56 12 0 32 83 22 93 -5 5 -13 -12
-20 -37z"/>
<path d="M1120 4140 c0 -27 5 -50 10 -50 6 0 10 23 10 50 0 28 -4 50 -10 50
-5 0 -10 -22 -10 -50z"/>
<path d="M4350 4110 c0 -27 5 -50 10 -50 6 0 10 23 10 50 0 28 -4 50 -10 50
-5 0 -10 -22 -10 -50z"/>
<path d="M7050 4153 c-1 -5 -5 -27 -9 -50 -5 -25 -5 -43 1 -43 10 0 14 11 23
63 4 23 2 37 -5 37 -5 0 -10 -3 -10 -7z"/>
<path d="M4906 4043 c-19 -56 -19 -56 -4 -51 14 5 39 86 28 93 -5 3 -15 -16
-24 -42z"/>
<path d="M2061 4048 c-13 -38 -15 -76 -2 -62 14 14 30 83 21 89 -4 3 -13 -9
-19 -27z"/>
<path d="M1125 3987 c-9 -22 3 -87 15 -87 12 0 12 57 0 85 -7 18 -8 19 -15 2z"/>
<path d="M4360 3910 c0 -27 5 -50 10 -50 6 0 10 23 10 50 0 28 -4 50 -10 50
-5 0 -10 -22 -10 -50z"/>
<path d="M7016 3952 c-12 -20 -18 -92 -8 -92 6 0 14 20 18 45 6 44 2 66 -10
47z"/>
<path d="M4852 3861 c-14 -46 -15 -61 -3 -61 5 0 14 20 20 44 13 54 13 56 3
56 -5 0 -14 -17 -20 -39z"/>
<path d="M2013 3870 c-17 -43 -24 -80 -14 -80 13 0 34 65 28 87 -3 15 -6 14
-14 -7z"/>
<path d="M1130 3750 c0 -27 5 -50 10 -50 6 0 10 23 10 50 0 28 -4 50 -10 50
-5 0 -10 -22 -10 -50z"/>
<path d="M4357 3754 c-10 -11 -8 -94 2 -94 5 0 11 19 13 43 5 41 -2 64 -15 51z"/>
<path d="M6975 3735 c-3 -14 -7 -36 -10 -50 -3 -14 -1 -25 5 -25 5 0 12 11 15
25 3 14 7 36 10 50 3 14 1 25 -5 25 -5 0 -12 -11 -15 -25z"/>
<path d="M4807 3700 c-8 -22 -27 -82 -27 -86 0 -2 4 -4 9 -4 13 0 34 65 28 87
-3 15 -5 15 -10 3z"/>
<path d="M1961 3677 c-19 -49 -24 -77 -12 -77 12 0 34 75 28 93 -3 7 -10 -1
-16 -16z"/>
<path d="M1140 3550 c0 -27 5 -50 10 -50 6 0 10 23 10 50 0 28 -4 50 -10 50
-5 0 -10 -22 -10 -50z"/>
<path d="M4350 3509 c0 -31 4 -48 10 -44 6 3 10 26 10 51 0 24 -4 44 -10 44
-5 0 -10 -23 -10 -51z"/>
<path d="M6947 3553 c-8 -13 -12 -82 -5 -89 7 -6 12 12 21 69 4 25 -6 37 -16
20z"/>
<path d="M4741 3476 c-13 -54 -13 -56 -2 -56 5 0 14 20 20 44 13 54 13 56 2
56 -5 0 -14 -20 -20 -44z"/>
<path d="M1901 3466 c-13 -54 -13 -56 -2 -56 5 0 14 20 20 44 13 54 13 56 2
56 -5 0 -14 -20 -20 -44z"/>
<path d="M1140 3356 c0 -25 5 -48 10 -51 6 -4 10 13 10 44 0 28 -4 51 -10 51
-5 0 -10 -20 -10 -44z"/>
<path d="M4347 3363 c-11 -10 -8 -93 3 -93 6 0 10 23 10 50 0 51 -1 55 -13 43z"/>
<path d="M6914 3325 c-6 -41 -1 -66 10 -54 11 11 17 99 8 99 -6 0 -14 -20 -18
-45z"/>
<path d="M4691 3298 c-13 -38 -15 -76 -2 -62 14 14 30 83 21 89 -4 3 -13 -9
-19 -27z"/>
<path d="M1852 3281 c-14 -46 -15 -61 -3 -61 5 0 14 20 20 44 13 54 13 56 3
56 -5 0 -14 -17 -20 -39z"/>
<path d="M1150 3161 c0 -28 5 -51 10 -51 6 0 10 20 10 44 0 25 -4 48 -10 51
-6 4 -10 -13 -10 -44z"/>
<path d="M4336 3154 c-9 -24 -7 -84 3 -84 7 0 21 54 21 88 0 17 -17 15 -24 -4z"/>
<path d="M6896 3163 c-9 -10 -7 -93 3 -93 5 0 11 21 13 46 3 44 -2 61 -16 47z"/>
<path d="M4646 3129 c-2 -8 -9 -29 -15 -48 -12 -36 -9 -47 7 -37 12 7 27 85
18 93 -3 3 -7 0 -10 -8z"/>
<path d="M1801 3093 c-13 -46 -14 -63 -2 -63 5 0 11 12 15 28 3 15 8 37 12 50
4 13 2 22 -4 22 -6 0 -16 -17 -21 -37z"/>
<path d="M1153 2965 c2 -26 7 -49 11 -52 13 -13 18 8 12 52 -9 60 -30 60 -23
0z"/>
<path d="M4330 2919 c0 -31 4 -48 10 -44 6 3 10 26 10 51 0 24 -4 44 -10 44
-5 0 -10 -23 -10 -51z"/>
<path d="M6876 2954 c-10 -25 -7 -84 4 -84 6 0 10 12 10 28 0 15 3 37 6 50 7
25 -11 31 -20 6z"/>
<path d="M1751 2903 c-13 -46 -14 -63 -2 -63 5 0 11 12 15 28 3 15 8 37 12 50
4 13 2 22 -4 22 -6 0 -16 -17 -21 -37z"/>
<path d="M4586 2913 c-4 -16 -9 -36 -12 -45 -3 -10 -1 -18 5 -18 9 0 31 59 31
83 0 19 -19 4 -24 -20z"/>
<path d="M9196 2814 c-8 -22 -7 -34 3 -34 12 0 21 39 11 45 -4 3 -11 -2 -14
-11z"/>
<path d="M1160 2760 c0 -27 5 -50 10 -50 6 0 10 23 10 50 0 28 -4 50 -10 50
-5 0 -10 -22 -10 -50z"/>
<path d="M4327 2773 c-11 -10 -8 -93 3 -93 6 0 10 23 10 50 0 51 -1 55 -13 43z"/>
<path d="M6858 2724 c-3 -44 2 -61 16 -47 9 10 7 93 -3 93 -5 0 -11 -21 -13
-46z"/>
<path d="M1701 2714 c-13 -47 -14 -64 -2 -64 5 0 13 19 19 42 14 55 -2 75 -17
22z"/>
<path d="M4536 2723 c-4 -16 -9 -36 -12 -45 -3 -10 -1 -18 5 -18 9 0 31 59 31
83 0 19 -19 4 -24 -20z"/>
<path d="M9141 2659 c-13 -38 -14 -59 -3 -59 8 0 32 65 32 84 0 19 -20 2 -29
-25z"/>
<path d="M1168 2565 c2 -25 8 -45 13 -45 5 0 9 20 9 45 0 29 -4 45 -13 45 -8
0 -11 -14 -9 -45z"/>
<path d="M4315 2534 c-7 -48 0 -68 15 -44 12 19 13 90 1 90 -5 0 -12 -21 -16
-46z"/>
<path d="M6848 2524 c-3 -44 2 -61 16 -47 9 10 7 93 -3 93 -5 0 -11 -21 -13
-46z"/>
<path d="M1652 2522 c-14 -47 -15 -62 -3 -62 12 0 32 83 22 93 -4 4 -13 -10
-19 -31z"/>
<path d="M4482 2518 c-6 -24 -7 -47 -3 -51 5 -5 13 12 20 37 13 54 13 56 2 56
-5 0 -13 -19 -19 -42z"/>
<path d="M9080 2475 c-14 -41 -7 -72 7 -35 20 50 24 70 14 70 -5 0 -15 -16
-21 -35z"/>
<path d="M1170 2370 c0 -27 5 -50 10 -50 6 0 10 23 10 50 0 28 -4 50 -10 50
-5 0 -10 -22 -10 -50z"/>
<path d="M4310 2329 c0 -31 4 -48 10 -44 6 3 10 26 10 51 0 24 -4 44 -10 44
-5 0 -10 -23 -10 -51z"/>
<path d="M6847 2373 c-11 -10 -8 -103 3 -103 6 0 10 25 10 55 0 56 -1 60 -13
48z"/>
<path d="M1601 2326 c-13 -54 -13 -56 -2 -56 12 0 32 83 22 93 -5 5 -13 -12
-20 -37z"/>
<path d="M4431 2326 c-13 -54 -13 -56 -1 -56 9 0 30 61 30 88 0 29 -19 8 -29
-32z"/>
<path d="M9017 2285 c-16 -45 -4 -66 12 -22 19 50 22 67 13 67 -6 0 -17 -20
-25 -45z"/>
<path d="M1180 2170 c0 -27 5 -50 10 -50 6 0 10 23 10 50 0 28 -4 50 -10 50
-5 0 -10 -22 -10 -50z"/>
<path d="M4307 2183 c-11 -10 -8 -93 3 -93 6 0 10 23 10 50 0 51 -1 55 -13 43z"/>
<path d="M4386 2144 c-4 -19 -10 -42 -13 -50 -3 -8 0 -14 5 -14 10 0 32 60 32
88 0 27 -18 10 -24 -24z"/>
<path d="M6840 2130 c0 -27 5 -50 10 -50 6 0 10 23 10 50 0 28 -4 50 -10 50
-5 0 -10 -22 -10 -50z"/>
<path d="M1552 2131 c-14 -47 -15 -51 -2 -51 8 0 30 60 30 83 0 22 -18 2 -28
-32z"/>
<path d="M8961 2128 c-19 -53 -22 -68 -11 -68 6 0 14 10 19 23 19 52 22 67 11
67 -6 0 -14 -10 -19 -22z"/>
<path d="M1180 1983 c0 -42 13 -72 24 -55 9 14 -4 92 -15 92 -5 0 -9 -17 -9
-37z"/>
<path d="M4298 1948 c-5 -47 -2 -61 13 -53 12 8 12 95 0 95 -5 0 -11 -19 -13
-42z"/>
<path d="M4346 1982 c-11 -18 -18 -92 -9 -92 12 0 33 89 22 95 -4 3 -10 1 -13
-3z"/>
<path d="M1502 1938 c-6 -23 -9 -44 -6 -47 9 -9 23 15 29 52 10 52 -10 48 -23
-5z"/>
<path d="M6840 1943 c0 -39 14 -72 25 -61 9 9 -6 98 -16 98 -5 0 -9 -17 -9
-37z"/>
<path d="M8901 1948 c-19 -51 -22 -68 -13 -68 6 0 17 20 25 45 16 45 4 66 -12
23z"/>
<path d="M1190 1780 c0 -27 5 -50 10 -50 6 0 10 23 10 50 0 28 -4 50 -10 50
-5 0 -10 -22 -10 -50z"/>
<path d="M1453 1745 c-13 -59 5 -56 22 3 10 33 10 42 1 42 -7 0 -17 -20 -23
-45z"/>
<path d="M4290 1765 c0 -28 15 -34 24 -9 10 25 7 34 -9 34 -9 0 -15 -9 -15
-25z"/>
<path d="M8835 1754 c-17 -42 -19 -54 -6 -54 5 0 16 20 24 45 19 54 4 61 -18
9z"/>
<path d="M6854 1749 c3 -17 6 -40 6 -50 0 -11 5 -19 10 -19 11 0 13 42 4 78
-10 34 -27 27 -20 -9z"/>
<path d="M1197 1623 c-7 -14 5 -93 14 -93 12 0 12 87 0 95 -5 3 -11 2 -14 -2z"/>
<path d="M8771 1569 c-7 -23 -10 -44 -7 -47 8 -7 9 -5 28 46 13 32 13 42 4 42
-7 0 -18 -18 -25 -41z"/>
<path d="M1416 1592 c-2 -4 -7 -24 -11 -45 -8 -43 9 -52 19 -9 4 15 9 35 12
45 5 17 -10 24 -20 9z"/>
<path d="M6874 1558 c3 -13 6 -35 6 -50 0 -16 5 -28 10 -28 11 0 13 42 4 78
-4 12 -11 22 -16 22 -6 0 -8 -10 -4 -22z"/>
<path d="M1200 1380 c0 -27 5 -50 10 -50 6 0 10 23 10 50 0 28 -4 50 -10 50
-5 0 -10 -22 -10 -50z"/>
<path d="M8712 1391 c-14 -46 -15 -51 -4 -51 5 0 14 17 20 39 14 46 15 51 4
51 -5 0 -14 -17 -20 -39z"/>
<path d="M1360 1369 c-7 -26 -8 -45 -2 -51 6 -6 14 8 21 36 13 54 13 56 1 56
-5 0 -14 -19 -20 -41z"/>
<path d="M6907 1383 c-4 -6 -5 -17 -3 -25 2 -7 7 -25 10 -40 9 -40 27 -35 19
5 -10 51 -19 72 -26 60z"/>
<path d="M8650 1215 c-16 -50 -5 -68 14 -23 18 42 20 58 7 58 -5 0 -15 -16
-21 -35z"/>
<path d="M1210 1180 c0 -27 5 -50 10 -50 6 0 10 23 10 50 0 28 -4 50 -10 50
-5 0 -10 -22 -10 -50z"/>
<path d="M1313 1175 c-13 -55 2 -71 16 -18 13 46 14 63 3 63 -5 0 -13 -20 -19
-45z"/>
<path d="M6951 1173 c1 -30 25 -88 31 -77 8 12 -13 94 -24 94 -4 0 -8 -8 -7
-17z"/>
<path d="M8572 1035 c-12 -24 -17 -47 -12 -50 9 -6 23 14 40 59 16 44 -6 37
-28 -9z"/>
<path d="M1217 1033 c-4 -3 -7 -26 -7 -50 0 -31 4 -43 15 -43 12 0 13 9 8 48
-7 53 -7 55 -16 45z"/>
<path d="M1276 1022 c-3 -5 -8 -28 -12 -50 -10 -61 11 -53 23 8 9 44 3 65 -11
42z"/>
<path d="M7010 995 c0 -15 42 -85 50 -85 14 0 13 5 -10 50 -17 34 -40 53 -40
35z"/>
<path d="M8476 863 c-26 -37 -27 -55 -4 -35 21 17 50 72 39 72 -6 0 -22 -17
-35 -37z"/>
<path d="M1220 815 c0 -28 15 -34 24 -9 10 25 7 34 -9 34 -9 0 -15 -9 -15 -25z"/>
<path d="M7110 822 c0 -13 66 -73 73 -66 3 3 -9 21 -27 40 -33 34 -46 41 -46
26z"/>
<path d="M8356 713 c-16 -18 -26 -36 -23 -39 8 -9 23 3 47 36 29 41 11 44 -24
3z"/>
<path d="M7260 691 c0 -13 54 -51 72 -51 7 0 -3 14 -22 30 -37 31 -50 36 -50
21z"/>
<path d="M8208 593 c-33 -22 -49 -43 -33 -43 15 0 84 54 79 61 -6 11 -2 13
-46 -18z"/>
<path d="M7420 590 c0 -10 22 -24 64 -40 42 -15 31 7 -14 30 -45 23 -50 24
-50 10z"/>
<path d="M7600 515 c0 -6 33 -19 73 -29 42 -10 32 12 -10 23 -42 12 -63 14
-63 6z"/>
<path d="M8023 509 c-18 -5 -33 -14 -33 -20 0 -6 8 -8 18 -5 9 3 29 8 45 12
15 3 27 10 27 15 0 11 -14 10 -57 -2z"/>
<path d="M7795 480 c-4 -6 13 -10 44 -10 28 0 51 5 51 10 0 6 -20 10 -44 10
-25 0 -48 -4 -51 -10z"/>
<path d="M215 6348 c-12 -349 -9 -2192 4 -2683 41 -1569 118 -2506 246 -2991
27 -105 30 -124 16 -119 -34 15 -51 17 -51 7 0 -13 88 -48 97 -39 16 17 41 87
32 93 -5 3 -14 -8 -20 -25 -6 -17 -15 -29 -19 -26 -23 14 -89 329 -125 588
-120 892 -170 2176 -164 4260 2 642 1 1167 -2 1167 -4 0 -10 -105 -14 -232z"/>
<path d="M3176 5330 c-81 -75 -165 -221 -282 -490 -84 -196 -97 -233 -140
-405 -111 -450 -210 -1202 -319 -2440 -77 -874 -96 -1082 -105 -1140 -13 -80
-13 -102 0 -89 13 13 33 176 65 534 80 918 99 1117 130 1430 85 831 173 1422
266 1770 52 196 228 588 332 738 99 144 155 149 194 17 15 -55 17 -117 15
-690 -4 -1084 -31 -1972 -72 -2445 -14 -150 -40 -330 -50 -330 -4 0 -13 12
-20 28 -7 15 -15 22 -17 15 -4 -12 33 -93 43 -93 14 0 84 42 84 50 0 13 -6 13
-39 -4 l-28 -15 13 67 c61 325 101 1344 106 2692 3 699 1 732 -45 802 -35 51
-74 50 -131 -2z"/>
<path d="M5863 5159 c-67 -43 -177 -220 -240 -389 -33 -87 -114 -359 -147
-493 -98 -397 -187 -969 -311 -1987 -36 -294 -72 -576 -80 -627 -18 -109 -17
-103 -6 -103 13 0 28 87 65 393 20 155 56 449 81 652 97 787 186 1330 275
1685 48 190 127 442 168 539 98 226 217 363 281 324 29 -17 59 -92 71 -181 9
-63 11 -178 7 -412 -8 -438 -27 -655 -147 -1685 -133 -1144 -143 -1329 -81
-1515 172 -513 764 -1062 1356 -1259 216 -72 301 -85 540 -85 179 0 224 3 308
22 212 47 394 125 580 248 135 90 196 153 299 309 389 591 656 1325 733 2015
8 74 15 139 15 144 0 5 11 -1 25 -14 39 -36 43 -14 5 25 -19 19 -38 35 -42 35
-15 0 -83 -69 -69 -70 8 0 25 10 38 22 l24 22 -6 -59 c-39 -381 -95 -650 -202
-980 -137 -422 -376 -909 -597 -1215 -60 -84 -89 -113 -167 -170 -523 -386
-1151 -424 -1764 -109 -482 248 -921 716 -1059 1130 -57 172 -46 381 84 1494
113 968 137 1238 149 1635 8 309 0 480 -29 572 -32 103 -86 133 -157 87z"/>
<path d="M29 3199 l-24 -20 23 6 c21 6 22 4 22 -54 0 -34 4 -61 10 -61 12 0
13 137 1 144 -5 3 -20 -3 -32 -15z"/>
<path d="M150 3199 c-24 -20 -24 -20 -2 -14 21 6 22 4 22 -54 0 -34 4 -61 10
-61 12 0 14 136 2 144 -4 2 -19 -4 -32 -15z"/>
<path d="M2619 3079 l-24 -20 23 6 c21 6 22 4 22 -54 0 -34 4 -61 10 -61 12 0
13 137 1 144 -5 3 -20 -3 -32 -15z"/>
<path d="M2768 3089 c-10 -5 -18 -17 -18 -26 0 -15 2 -15 13 1 14 19 48 19 54
0 2 -6 -15 -34 -37 -63 l-40 -51 50 0 c32 0 49 4 45 10 -3 6 -17 10 -31 10
l-25 0 25 33 c28 37 33 66 14 85 -14 14 -27 15 -50 1z"/>
<path d="M100 3080 c0 -5 5 -10 10 -10 6 0 10 5 10 10 0 6 -4 10 -10 10 -5 0
-10 -4 -10 -10z"/>
<path d="M2690 2960 c0 -5 5 -10 10 -10 6 0 10 5 10 10 0 6 -4 10 -10 10 -5 0
-10 -4 -10 -10z"/>
<path d="M5289 2769 l-24 -20 23 6 c21 6 22 4 22 -54 0 -34 4 -61 10 -61 12 0
13 137 1 144 -5 3 -20 -3 -32 -15z"/>
<path d="M5425 2770 c-10 -11 -13 -20 -7 -20 6 0 14 5 17 10 3 6 15 10 26 10
27 0 26 -40 -2 -47 -20 -5 -20 -6 3 -17 12 -6 24 -19 26 -27 4 -24 -27 -32
-54 -14 -25 16 -33 8 -12 -13 19 -19 66 -15 78 7 11 22 4 51 -13 51 -7 0 -7 4
1 12 18 18 14 46 -7 58 -27 14 -35 13 -56 -10z"/>
<path d="M5360 2650 c0 -5 5 -10 10 -10 6 0 10 5 10 10 0 6 -4 10 -10 10 -5 0
-10 -4 -10 -10z"/>
</g>
</svg>
