<?xml version="1.0" encoding="UTF-8"?>
<svg version="1.1" xmlns="http://www.w3.org/2000/svg" width="687" height="709">
<path d="M0 0 C0.80824219 0.67546875 1.61648438 1.3509375 2.44921875 2.046875 C14.06253743 12.03761069 22.71078588 23.60169822 30 37 C30.52787109 37.96510498 30.52787109 37.96510498 31.06640625 38.94970703 C52.00961824 77.73522186 55.09216786 121.41425116 43.03417969 163.59765625 C32.95542129 196.82976259 14.61046871 224.82841522 -8.58984375 250.23828125 C-10.93420642 252.92460931 -13.13971274 255.68276513 -15.34326172 258.48388672 C-27.99614588 274.48503793 -42.35058326 288.22818196 -59 300 C-59.59780273 300.43183594 -60.19560547 300.86367188 -60.81152344 301.30859375 C-91.71622247 323.53920078 -140.12984936 348 -179 348 C-171.47667077 358.35045004 -163.85097851 368.57271881 -155.80078125 378.51953125 C-153.12624944 381.82714263 -150.52083418 385.18338836 -147.9375 388.5625 C-144.57233434 392.96222673 -141.17765003 397.3362577 -137.75 401.6875 C-136.83197764 402.85542661 -135.91401043 404.02339658 -134.99609375 405.19140625 C-133.42567814 407.18920341 -131.85342117 409.18547811 -130.27783203 411.17919922 C-118.32204937 426.31715395 -118.32204937 426.31715395 -113.8125 433.3125 C-107.65943268 442.81820016 -99.87846527 451.14113159 -92.265625 459.48828125 C-90.39786458 461.55891909 -88.57164153 463.65478881 -86.75 465.765625 C-82.91321778 470.15659771 -78.87464785 474.31753872 -74.75 478.4375 C-74.00419678 479.18249756 -73.25839355 479.92749512 -72.48999023 480.69506836 C-66.92360288 486.20010817 -61.19743136 491.21152362 -55 496 C-54.22011719 496.64710938 -53.44023437 497.29421875 -52.63671875 497.9609375 C-29.54328601 517.08577706 -3.55676424 530.22418336 27 528 C36.86569187 526.07739858 45.23442787 520.27299004 52 513 C52.67804688 512.35289062 53.35609375 511.70578125 54.0546875 511.0390625 C59.52933286 505.78561493 63.94843965 500.40790717 68 494 C68.36706055 493.42314453 68.73412109 492.84628906 69.11230469 492.25195312 C93.49968984 453.54372018 110.3681487 404.06999483 117.625 358.875 C119.23321519 349.51070901 122.58991209 341.10150842 130.19140625 335.0859375 C136.26988172 331.43622653 142.06959046 331.30165516 149 332 C158.9106448 334.58605888 166.82495216 342.40415783 172 351 C178.28220709 363.42858267 178.42373336 372.27118829 175.5625 385.75 C175.36051498 386.72459167 175.36051498 386.72459167 175.15444946 387.71887207 C164.54621462 438.83035859 145.04344659 486.41747334 117.89697266 530.88964844 C116.15002224 533.75401758 114.4232758 536.62963462 112.69921875 539.5078125 C106.9538213 548.98487947 100.95959133 557.25297936 93 565 C92.21367188 565.78375 91.42734375 566.5675 90.6171875 567.375 C79.35512013 578.07953928 65.99129981 585.49704986 52 592 C51.3704541 592.3000293 50.7409082 592.60005859 50.09228516 592.90917969 C41.863288 596.81800662 33.47527038 599.99359169 24.8125 602.8125 C23.49548096 603.24767944 23.49548096 603.24767944 22.15185547 603.69165039 C9.82704779 607.56787214 -2.42456276 608.37839182 -15.25 608.3125 C-15.98989166 608.31067719 -16.72978333 608.30885437 -17.49209595 608.30697632 C-60.10578863 608.13146546 -102.0251032 598.11391895 -137 573 C-138.12433577 572.21129184 -139.24937169 571.42358111 -140.375 570.63671875 C-152.30647045 562.25244222 -163.79830352 553.33731509 -175 544 C-176.00933594 543.17757812 -177.01867187 542.35515625 -178.05859375 541.5078125 C-185.75211038 535.15420389 -192.88007462 528.30128956 -199.9375 521.25 C-200.82550293 520.36280273 -201.71350586 519.47560547 -202.62841797 518.56152344 C-207.61788302 513.52967101 -212.39760078 508.38641551 -217 503 C-217.96096438 501.90512944 -218.92315386 500.81133262 -219.88671875 499.71875 C-248.39960541 467.08806151 -270.16879843 429.05653736 -284 388 C-284.08059685 401.22302738 -283.8371807 414.41978746 -283.44921875 427.63671875 C-283.39006131 429.7054214 -283.3309969 431.77412671 -283.27201843 433.84283447 C-283.1144239 439.32840898 -282.95242415 444.81384375 -282.78862762 450.2992363 C-282.68710106 453.70086645 -282.58648092 457.10252266 -282.48590088 460.50418091 C-281.65953457 488.32534263 -280.7372957 516.13697542 -279.375 543.9375 C-279.28174942 545.84201431 -279.28174942 545.84201431 -279.18661499 547.78500366 C-278.6902571 557.79130532 -278.19147521 567.79483832 -277.43359375 577.78515625 C-275.91474086 598.07559327 -274.67829913 617.74341137 -287 635 C-287.43957031 635.63421875 -287.87914062 636.2684375 -288.33203125 636.921875 C-296.0943863 647.03306948 -309.64437237 653.0375536 -322 655 C-343.78495726 656.73708873 -364.17786701 654.35826495 -381.875 640.796875 C-384.36764719 638.62340824 -386.69705185 636.37248655 -389 634 C-389.69480469 633.31421875 -390.38960937 632.6284375 -391.10546875 631.921875 C-407.16606495 615.14678419 -411.5847723 592.99305079 -414.5625 570.8125 C-414.85683779 568.69852035 -415.15152326 566.58458908 -415.4465332 564.47070312 C-422.13877894 515.86256582 -426.04595899 466.94967184 -428.1875 417.9375 C-428.24289444 416.67944046 -428.24289444 416.67944046 -428.29940796 415.39596558 C-428.57686805 408.93197111 -428.79582441 402.46668477 -429 396 C-429.04236786 394.69376678 -429.08473572 393.38753357 -429.12838745 392.04171753 C-430.03130082 363.75764124 -430.20087581 335.48440598 -430.1875 307.1875 C-430.18738041 306.06038605 -430.18726082 304.93327209 -430.1871376 303.77200317 C-430.18157593 262.1523247 -429.61424037 220.58866302 -428 179 C-427.96010075 177.96591633 -427.96010075 177.96591633 -427.91939545 176.91094208 C-426.69278089 145.20778941 -425.00356965 113.5342215 -422.9375 81.875 C-422.85550354 80.61666351 -422.77350708 79.35832703 -422.68902588 78.06185913 C-421.89055294 65.92236546 -421.0324275 53.79030912 -419.95703125 41.671875 C-419.84088722 40.34154739 -419.84088722 40.34154739 -419.72239685 38.98434448 C-418.08875242 21.26542785 -411.39919416 6.70345729 -398.375 -5.625 C-376.64026413 -23.52667199 -349.12513225 -26.29838385 -322.01708984 -23.71582031 C-307.77166727 -21.69507773 -294.23952918 -15.86779013 -284.35124207 -5.2255249 C-282.53621117 -2.23612977 -282.60141512 -0.06604082 -282.56762695 3.42089844 C-282.54783279 4.72194519 -282.52803864 6.02299194 -282.50764465 7.36346436 C-282.50087534 8.77876643 -282.49442842 10.19407008 -282.48828125 11.609375 C-282.47143164 13.06098958 -282.45328102 14.51258959 -282.43388367 15.96417236 C-282.38640758 19.7781316 -282.35658305 23.59203177 -282.33044434 27.40618896 C-282.30062654 31.3008592 -282.25410045 35.195326 -282.20898438 39.08984375 C-282.1229786 46.7264615 -282.05562152 54.36309409 -282 62 C-281.3412085 60.98969727 -280.68241699 59.97939453 -280.00366211 58.93847656 C-279.11596367 57.58903413 -278.22801058 56.23975919 -277.33984375 54.890625 C-276.90845093 54.22756348 -276.47705811 53.56450195 -276.03259277 52.88134766 C-271.66853074 46.27343208 -266.52649492 40.65138746 -261 35 C-260.14921875 34.08734375 -259.2984375 33.1746875 -258.421875 32.234375 C-241.66517703 14.67496096 -219.90758744 2.07801621 -198 -8 C-196.95271729 -8.48629883 -196.95271729 -8.48629883 -195.88427734 -8.98242188 C-136.83463532 -36.05948678 -52.77063784 -45.85707169 0 0 Z M-262 44 C-271.62063992 55.03284395 -278.39252819 67.53503634 -284 81 C-285.65 81 -287.3 81 -289 81 C-288.9800145 79.99046265 -288.96002899 78.98092529 -288.93943787 77.9407959 C-288.75666427 68.40755733 -288.62192466 58.874676 -288.53369045 49.34008026 C-288.48680089 44.43854015 -288.4232499 39.53841884 -288.32104492 34.63769531 C-288.22295216 29.90430357 -288.16938046 25.17227251 -288.14610481 20.4379425 C-288.12952795 18.63571251 -288.09715409 16.83355361 -288.04842949 15.03190613 C-287.51384038 5.11546575 -287.51384038 5.11546575 -290.94993591 -3.86540222 C-293.20965077 -5.91557307 -295.35579903 -7.49082114 -298 -9 C-299.06605469 -9.65613281 -300.13210938 -10.31226563 -301.23046875 -10.98828125 C-312.42305762 -16.00055024 -323.77353501 -18.38676038 -336 -19 C-336.69867188 -19.04125 -337.39734375 -19.0825 -338.1171875 -19.125 C-360.62229319 -19.80439942 -381.69293176 -12.52234894 -398.375 2.5625 C-408.35827089 13.08941435 -412.79300956 26.81309821 -413.9296875 41.00390625 C-414.00479553 41.88588181 -414.07990356 42.76785736 -414.1572876 43.67655945 C-414.40534279 46.6378895 -414.64126106 49.60000712 -414.875 52.5625 C-414.95893005 53.60587524 -415.04286011 54.64925049 -415.1293335 55.72424316 C-418.44223726 97.19872804 -420.62047948 138.80011085 -422.1875 180.375 C-422.22433899 181.34618774 -422.26117798 182.31737549 -422.2991333 183.31799316 C-422.52246687 189.32800154 -422.71673766 195.33852536 -422.89285278 201.35009766 C-422.96911273 203.94784479 -423.04761806 206.54546087 -423.12838745 209.14306641 C-424.09290296 240.51006632 -424.20044118 271.87006352 -424.1875 303.25 C-424.18738041 304.53780491 -424.18726082 305.82560982 -424.1871376 307.15243912 C-424.18256332 346.14015282 -423.99621909 385.05599189 -422 424 C-421.8917237 426.18570762 -421.78348851 428.37141728 -421.67529297 430.55712891 C-419.37282425 476.25701005 -415.15487705 521.65918446 -409 567 C-408.85144562 568.10266205 -408.85144562 568.10266205 -408.69989014 569.2276001 C-405.06842745 596.08832704 -398.41462549 620.5025757 -375.9453125 637.99609375 C-359.33184997 649.29941773 -339.34988209 651.28388093 -319.77441406 648.70703125 C-307.67118225 646.38261089 -297.11573136 638.89733544 -290 629 C-280.91754068 614.07881682 -281.74935682 598.07734565 -283.03491211 581.24371338 C-284.61069406 560.22687813 -285.6466252 539.18164642 -286.5 518.125 C-286.54534315 517.01073072 -286.54534315 517.01073072 -286.59160233 515.87395096 C-288.75891598 462.27611034 -289.7721105 408.62587709 -291 355 C-289.35 355 -287.7 355 -286 355 C-285.84349976 355.84087158 -285.84349976 355.84087158 -285.68383789 356.69873047 C-274.69118709 414.34468007 -243.91370743 464.71768811 -204.46484375 507.31640625 C-202.35183852 509.6169365 -200.28894966 511.94659183 -198.25 514.3125 C-193.36464644 519.92891597 -188.09795174 525.03515595 -182.453125 529.8828125 C-180.57137176 531.50687341 -178.71152288 533.1474446 -176.859375 534.8046875 C-166.69909583 543.83588975 -155.98520724 552.00144367 -145 560 C-144.2383252 560.5563916 -143.47665039 561.1127832 -142.69189453 561.68603516 C-104.26494285 589.64597557 -63.07189718 602.11234407 -15.4375 602.375 C-14.68104187 602.38294586 -13.92458374 602.39089172 -13.14520264 602.39907837 C1.28030905 602.51573887 14.46964606 600.31785745 28.125 595.4375 C29.0951001 595.09380371 30.0652002 594.75010742 31.06469727 594.39599609 C86.42494559 574.24948243 113.34269629 533.75498323 138 482 C151.92841438 451.82176885 161.94859439 420.46060006 169 388 C169.29390625 386.68056396 169.29390625 386.68056396 169.59375 385.33447266 C172.35824051 372.80025236 172.4848429 362.84698037 165.49609375 351.57421875 C160.96725237 345.32210595 155.4017635 340.4672545 148 338 C143.03139685 337.47833943 139.14481021 337.4275949 134.625 339.6875 C126.22266521 347.08955684 123.80593028 356.70428522 121.75 367.375 C114.86502557 400.65871619 103.92330994 433.99074461 90 465 C89.5889502 465.92232422 89.17790039 466.84464844 88.75439453 467.79492188 C77.86874027 492.02304732 62.82109623 519.82348153 37.36328125 531.17578125 C17.87709337 538.43631988 -3.01178057 533.61899218 -21.27661133 525.34350586 C-50.07833097 511.67146909 -75.016425 488.6694726 -96 465 C-96.75410156 464.18402344 -97.50820313 463.36804688 -98.28515625 462.52734375 C-106.84917279 453.2383311 -114.47795062 443.21265944 -121.8515625 432.96484375 C-129.54004159 422.3547426 -137.51978727 411.97074521 -145.65429688 401.70019531 C-181.52923375 356.37489408 -181.52923375 356.37489408 -190 343 C-189.32839844 342.98582031 -188.65679687 342.97164063 -187.96484375 342.95703125 C-131.27232686 340.25042077 -68.7570832 308.54266272 -30.28613281 267.15625 C-24.76098498 260.99471479 -19.6233692 254.56364369 -14.6171875 247.9765625 C-12.98481069 245.98143529 -11.25042679 244.26648084 -9.375 242.5 C1.11713406 232.27271593 9.45039606 219.49541475 17 207 C17.36013184 206.42056641 17.72026367 205.84113281 18.09130859 205.24414062 C29.06510585 187.50421628 36.80341614 167.41816162 41 147 C41.16081055 146.22978516 41.32162109 145.45957031 41.48730469 144.66601562 C49.28395102 105.66670842 41.37221774 64.27084529 19.63183594 30.89990234 C0.068168 2.32081217 -27.93622757 -16.02765563 -62.08227539 -22.4987793 C-65.38107498 -23.07130437 -68.68041516 -23.56321252 -72 -24 C-72.99277954 -24.13921875 -72.99277954 -24.13921875 -74.00561523 -24.28125 C-140.56086882 -32.82081742 -215.97870166 -4.37158761 -262 44 Z " fill="#000000" transform="translate(509,54)"/>
<path d="M0 0 C0.84691406 0.42410156 1.69382812 0.84820312 2.56640625 1.28515625 C16.66459711 9.01225628 25.52865882 21.8084671 29.99609375 37.0546875 C35.0025328 55.79055487 33.06066999 74.52550594 28 93 C27.80841309 93.70527832 27.61682617 94.41055664 27.41943359 95.13720703 C15.69492646 136.83182428 -12.3604915 174.1588898 -42 205 C-42.54624023 205.57347168 -43.09248047 206.14694336 -43.65527344 206.73779297 C-51.8733357 215.32855115 -60.45259881 222.9255587 -70 230 C-71.11980911 230.85023745 -72.2396009 231.7004977 -73.359375 232.55078125 C-97.12194741 250.32027542 -124.98212589 262.39367988 -154.9375 262.3125 C-156.12279297 262.32861328 -157.30808594 262.34472656 -158.52929688 262.36132812 C-167.86164708 262.36644735 -176.61989635 261.30946023 -185 257 C-185.21081773 237.94521575 -185.36922955 218.89067015 -185.46630955 199.83495903 C-185.5125963 190.98576605 -185.57563036 182.13730024 -185.67895508 173.28857422 C-185.76903495 165.57041631 -185.8268117 157.85278532 -185.84679645 150.13411629 C-185.85846795 146.05181914 -185.88563263 141.97102857 -185.95157051 137.88921738 C-186.01330471 134.03589911 -186.03137901 130.18468704 -186.01796913 126.33092117 C-186.02041701 124.92730958 -186.03794093 123.5236172 -186.07284927 122.12043762 C-186.34682437 110.52516485 -182.78963386 103.90513972 -176 95 C-175.31521356 94.08249403 -174.63042711 93.16498806 -173.92488956 92.21967888 C-160.73741655 74.89703979 -144.48382404 60.79519966 -127 48 C-126.36642578 47.53625977 -125.73285156 47.07251953 -125.08007812 46.59472656 C-97.74159181 26.79240499 -67.29386236 10.56519879 -36 -2 C-34.4840625 -2.61488281 -34.4840625 -2.61488281 -32.9375 -3.2421875 C-22.33242835 -5.97807034 -9.68364718 -5.03800769 0 0 Z M-43.5625 7.8125 C-44.63459717 8.29533447 -45.70669434 8.77816895 -46.8112793 9.27563477 C-92.84534859 30.22088547 -143.58719185 58.26957248 -173 101 C-173.50100534 101.66699606 -174.00201069 102.33399212 -174.51819801 103.02120018 C-179.54201601 110.3233387 -179.82630778 116.47755134 -179.68115234 125.17041016 C-179.67945645 126.57088141 -179.68041662 127.97135799 -179.68380737 129.37182617 C-179.68551724 133.14431797 -179.65043453 136.91564711 -179.60836363 140.6878705 C-179.57065864 144.64092268 -179.56731581 148.59400643 -179.56021118 152.54721069 C-179.54161997 160.01990169 -179.49246156 167.49206115 -179.43211424 174.9645189 C-179.36486975 183.47720998 -179.33201522 191.98992747 -179.30194163 200.50281835 C-179.23935654 218.00218549 -179.13393429 235.5010364 -179 253 C-177.42061933 253.49169933 -175.83975922 253.97864806 -174.25830078 254.46362305 C-172.93803391 254.87115059 -172.93803391 254.87115059 -171.59109497 255.28691101 C-145.49880971 262.46770582 -115.90791729 251.02221291 -93.3359375 238.546875 C-80.92405683 231.42392496 -69.62974299 222.5404087 -59 213 C-58.40525879 212.46697266 -57.81051758 211.93394531 -57.19775391 211.38476562 C-51.03701494 205.83187764 -44.91826499 200.29862975 -39.60546875 193.91015625 C-38.4804625 192.57164517 -37.31187338 191.26913259 -36.11328125 189.99609375 C-4.38187945 156.27048185 28.47541354 105.53574254 27.1875 57.48046875 C25.89954789 40.44193567 20.89742644 23.88634712 8 12 C-8.96926605 -0.82351213 -24.64049276 -0.85442922 -43.5625 7.8125 Z " fill="#000000" transform="translate(405,90)"/>
<path d="M0 0 C47.89364447 4.9692869 96.98290891 25.77865717 132 59 C132.74999268 59.70116943 132.74999268 59.70116943 133.51513672 60.41650391 C158.95741691 84.32714181 174.89180932 116.77880935 176 152 C176.03996094 153.03511719 176.07992187 154.07023438 176.12109375 155.13671875 C176.97887671 198.58090258 160.40094163 239.95194825 139 277 C142.3 276.67 145.6 276.34 149 276 C148.67 277.32 148.34 278.64 148 280 C146.08654673 280.53251766 144.1690705 281.05059483 142.25 281.5625 C141.18265625 281.85253906 140.1153125 282.14257812 139.015625 282.44140625 C134.49106962 283.27950394 134.49106962 283.27950394 132 282 C129.52380958 277.09381675 128.56919577 271.45685357 129 266 C130.32 266.33 131.64 266.66 133 267 C133.99 270.465 133.99 270.465 135 274 C161.35444133 228.58064366 180.17178813 174.95999974 166.40820312 122.34545898 C155.51003222 84.00980287 126.75952768 55.32296339 92.83105469 36.04101562 C91.08035798 35.04568619 89.34065444 34.03109478 87.6015625 33.015625 C60.13778631 17.58653725 29.62075868 10.14941864 -1 4 C-0.67 2.68 -0.34 1.36 0 0 Z " fill="#000000" transform="translate(418,0)"/>
<path d="M0 0 C0.99 0 1.98 0 3 0 C3.06279382 13.39688637 2.97510508 26.78831494 2.78125 40.18359375 C2.77022121 40.94656706 2.75919243 41.70954037 2.74782944 42.49563408 C2.70171329 45.67041073 2.65521582 48.84518153 2.60827446 52.0199461 C1.27750174 142.2283711 0.75160577 233.00934284 10 344.3125 C10.07772644 345.08426575 10.15545288 345.85603149 10.23553467 346.65118408 C11.19712951 356.05782473 12.45072968 365.38210989 14.03491211 374.70539856 C14.67106158 378.51725187 15.17058216 382.11780195 15 386 C15.66 386 16.32 386 17 386 C17.99 384.02 17.99 384.02 19 382 C19.66 382 20.32 382 21 382 C20.49701212 386.40114397 18.91227269 388.71195019 16 392 C11.61537866 391.49890042 9.1999003 390.01704885 6 387 C6 386.34 6 385.68 6 385 C7.65 385.33 9.3 385.66 11 386 C10.5235548 380.66831559 9.93399039 375.36855783 9.16796875 370.0703125 C4.40606144 336.74674943 2.28921988 303.05027899 0.8125 269.4375 C0.77566101 268.59999207 0.73882202 267.76248413 0.7008667 266.89959717 C0.43084878 260.60089496 0.2144668 254.30079693 0 248 C-0.06107437 246.2606144 -0.06107437 246.2606144 -0.12338257 244.48608971 C-0.94432711 220.65937166 -1.15064443 196.85602529 -1.1343255 173.01641393 C-1.13173179 168.0128495 -1.13415813 163.00928658 -1.13571167 158.00572205 C-1.13751229 149.62287052 -1.13518205 141.2400279 -1.13037109 132.85717773 C-1.12492007 123.24978361 -1.12670584 113.6424107 -1.1321975 104.03501707 C-1.13677453 95.68404718 -1.13735735 87.33308357 -1.13475883 78.98211282 C-1.13322263 74.03870608 -1.13292755 69.09530921 -1.13629532 64.15190315 C-1.14895804 42.74428926 -1.00736306 21.38788606 0 0 Z " fill="#000000" transform="translate(46,148)"/>
<path d="M0 0 C1.00696568 2.10084209 2.0053589 4.20579489 3 6.3125 C3.556875 7.48425781 4.11375 8.65601563 4.6875 9.86328125 C6 13 6 13 6 16 C4.68 16 3.36 16 2 16 C1.01 13.69 0.02 11.38 -1 9 C-1.26627197 9.49814209 -1.53254395 9.99628418 -1.80688477 10.50952148 C-11.80531325 29.11860433 -11.80531325 29.11860433 -18 36 C-18.58910156 36.69222656 -19.17820312 37.38445313 -19.78515625 38.09765625 C-26.24214305 45.19106065 -35.13707235 50.41855752 -44.8125 51.23828125 C-63.07159441 51.66343173 -77.34120129 42.77556395 -90.28662109 30.67480469 C-93.10212693 27.92268585 -95.7423129 25.04379725 -98.3125 22.0625 C-98.77462891 21.53132568 -99.23675781 21.00015137 -99.71289062 20.45288086 C-102.25167715 17.38194058 -103.6107518 14.98795794 -104 11 C-103.01 10.67 -102.02 10.34 -101 10 C-100.59910156 10.53367187 -100.19820313 11.06734375 -99.78515625 11.6171875 C-88.35293442 26.60091589 -74.30064394 41.85808521 -55 46 C-44.56334848 46.94596693 -35.89871298 45.0537065 -27.3125 38.9375 C-17.30907119 30.49766219 -11.80450423 18.46120858 -6 7 C-6.76699219 7.32742188 -7.53398438 7.65484375 -8.32421875 7.9921875 C-11.09718753 9.03660494 -13.06773447 9.16755803 -16 9 C-16 8.01 -16 7.02 -16 6 C-13.89915791 4.99303432 -11.79420511 3.9946411 -9.6875 3 C-8.51574219 2.443125 -7.34398437 1.88625 -6.13671875 1.3125 C-3 0 -3 0 0 0 Z " fill="#000000" transform="translate(566,496)"/>
<path d="M0 0 C3.0625 0.1875 3.0625 0.1875 5.0625 2.1875 C4.90004442 5.92397845 4.47466356 7.71288742 2 10.5625 C1.360625 11.09875 0.72125 11.635 0.0625 12.1875 C1.7125 12.5175 3.3625 12.8475 5.0625 13.1875 C5.0625 13.8475 5.0625 14.5075 5.0625 15.1875 C1.7625 15.1875 -1.5375 15.1875 -4.9375 15.1875 C-2.9375 11.1875 -2.9375 11.1875 -0.8125 8.625 C1.36735538 6.30372611 1.36735538 6.30372611 1.0625 3.1875 C0.4025 3.1875 -0.2575 3.1875 -0.9375 3.1875 C-1.2675 3.8475 -1.5975 4.5075 -1.9375 5.1875 C-2.9275 5.1875 -3.9175 5.1875 -4.9375 5.1875 C-3.82120474 0.24390669 -3.82120474 0.24390669 0 0 Z " fill="#000000" transform="translate(524.9375,487.8125)"/>
<path d="M0 0 C3.0625 0.1875 3.0625 0.1875 5.0625 2.1875 C4.90004442 5.92397845 4.47466356 7.71288742 2 10.5625 C1.360625 11.09875 0.72125 11.635 0.0625 12.1875 C1.7125 12.5175 3.3625 12.8475 5.0625 13.1875 C5.0625 13.8475 5.0625 14.5075 5.0625 15.1875 C1.7625 15.1875 -1.5375 15.1875 -4.9375 15.1875 C-2.9375 11.1875 -2.9375 11.1875 -0.8125 8.625 C1.36735538 6.30372611 1.36735538 6.30372611 1.0625 3.1875 C0.4025 3.1875 -0.2575 3.1875 -0.9375 3.1875 C-1.2675 3.8475 -1.5975 4.5075 -1.9375 5.1875 C-2.9275 5.1875 -3.9175 5.1875 -4.9375 5.1875 C-3.82120474 0.24390669 -3.82120474 0.24390669 0 0 Z " fill="#000000" transform="translate(625.9375,139.8125)"/>
<path d="M0 0 C0 4.95 0 9.9 0 15 C-0.99 15 -1.98 15 -3 15 C-3 11.37 -3 7.74 -3 4 C-3.99 4.33 -4.98 4.66 -6 5 C-5.625 3.0625 -5.625 3.0625 -5 1 C-3 0 -3 0 0 0 Z " fill="#000000" transform="translate(512,488)"/>
<path d="M0 0 C0 4.95 0 9.9 0 15 C-0.99 15 -1.98 15 -3 15 C-3 11.37 -3 7.74 -3 4 C-3.99 4.33 -4.98 4.66 -6 5 C-5.625 3.0625 -5.625 3.0625 -5 1 C-3 0 -3 0 0 0 Z " fill="#000000" transform="translate(7,354)"/>
<path d="M0 0 C0 4.95 0 9.9 0 15 C-0.99 15 -1.98 15 -3 15 C-3 11.37 -3 7.74 -3 4 C-3.99 4.33 -4.98 4.66 -6 5 C-5.625 3.0625 -5.625 3.0625 -5 1 C-3 0 -3 0 0 0 Z " fill="#000000" transform="translate(613,140)"/>
<path d="M0 0 C0.33 2.31 0.66 4.62 1 7 C0.01 7 -0.98 7 -2 7 C-2 5.68 -2 4.36 -2 3 C-2.7425 3.33 -3.485 3.66 -4.25 4 C-7 5 -7 5 -11 5 C-11 4.01 -11 3.02 -11 2 C-7.12315913 0.80712589 -4.08378077 0 0 0 Z " fill="#000000" transform="translate(266,379)"/>
<path d="M0 0 C3.36295835 1.44126786 5.62927102 3.20592655 8 6 C8 6.99 8 7.98 8 9 C5.62051228 8.82374165 4.29774151 8.30280227 2.62109375 6.59765625 C1.37884514 5.09350908 0.18623944 3.54870149 -1 2 C-0.67 1.34 -0.34 0.68 0 0 Z " fill="#000000" transform="translate(362,546)"/>
<path d="M0 0 C0.99 0.33 1.98 0.66 3 1 C1.51218185 4.78717347 -0.61988409 6.77407001 -4 9 C-4.99 8.67 -5.98 8.34 -7 8 C-6.02133662 6.85373678 -5.04205413 5.70800212 -4.0625 4.5625 C-3.51722656 3.92441406 -2.97195313 3.28632813 -2.41015625 2.62890625 C-1.63204305 1.73008851 -0.84063472 0.84063472 0 0 Z " fill="#000000" transform="translate(457,289)"/>
<path d="M0 0 C-0.38520564 2.53910197 -0.70097943 3.72751123 -2.62890625 5.484375 C-3.26699219 5.90203125 -3.90507813 6.3196875 -4.5625 6.75 C-5.20316406 7.17796875 -5.84382812 7.6059375 -6.50390625 8.046875 C-7.24447266 8.51867187 -7.24447266 8.51867187 -8 9 C-8 5 -8 5 -5.6875 2.25 C-3 0 -3 0 0 0 Z " fill="#000000" transform="translate(579,592)"/>
<path d="M0 0 C0.66 0.33 1.32 0.66 2 1 C0.47291037 4.43595166 -1.59927045 7.11912454 -4 10 C-4.99 9.67 -5.98 9.34 -7 9 C-5.44499019 5.18315774 -2.96404505 2.80804268 0 0 Z " fill="#000000" transform="translate(591,577)"/>
<path d="M0 0 C4.2742558 1.5830577 6.26531794 4.50568404 9 8 C3.69520066 8 2.81017373 6.4637943 -1 3 C-0.67 2.01 -0.34 1.02 0 0 Z " fill="#000000" transform="translate(376,560)"/>
<path d="M0 0 C4.42679007 1.47559669 4.91432696 3.90057368 7 8 C7 8.66 7 9.32 7 10 C5.25 9.875 5.25 9.875 3 9 C0.6875 6.125 0.6875 6.125 -1 3 C-0.67 2.01 -0.34 1.02 0 0 Z " fill="#000000" transform="translate(488,108)"/>
<path d="M0 0 C0.66 0.99 1.32 1.98 2 3 C0.73308493 3.67408308 -0.53870749 4.33900497 -1.8125 5 C-2.52019531 5.37125 -3.22789062 5.7425 -3.95703125 6.125 C-6 7 -6 7 -9 7 C-9 6.01 -9 5.02 -9 4 C-6.03 2.68 -3.06 1.36 0 0 Z " fill="#000000" transform="translate(545,614)"/>
<path d="M0 0 C3.95820859 0.56545837 6.6659053 1.80902348 10 4 C9.67 4.99 9.34 5.98 9 7 C5.7 5.35 2.4 3.7 -1 2 C-0.67 1.34 -0.34 0.68 0 0 Z " fill="#000000" transform="translate(440,608)"/>
<path d="M0 0 C0.66 0.33 1.32 0.66 2 1 C0.65289578 5.04131267 -1.38428334 5.90288434 -5 8 C-5.99 8 -6.98 8 -8 8 C-8 7.01 -8 6.02 -8 5 C-6.3203125 3.578125 -6.3203125 3.578125 -4.125 2.25 C-3.40570312 1.80140625 -2.68640625 1.3528125 -1.9453125 0.890625 C-1.30335938 0.59671875 -0.66140625 0.3028125 0 0 Z " fill="#000000" transform="translate(562,604)"/>
<path d="M0 0 C1.15224028 0.92961422 2.29659176 1.8690125 3.4375 2.8125 C4.07558594 3.33457031 4.71367187 3.85664062 5.37109375 4.39453125 C7 6 7 6 8 9 C7.01 9.33 6.02 9.66 5 10 C3.96704564 8.90716423 2.94892165 7.80029421 1.9375 6.6875 C1.36902344 6.07261719 0.80054688 5.45773437 0.21484375 4.82421875 C-0.38650391 3.92123047 -0.38650391 3.92123047 -1 3 C-0.67 2.01 -0.34 1.02 0 0 Z " fill="#000000" transform="translate(349,531)"/>
<path d="M0 0 C0.66 0.33 1.32 0.66 2 1 C1.43454163 4.95820859 0.19097652 7.6659053 -2 11 C-2.99 10.67 -3.98 10.34 -5 10 C-3.35 6.7 -1.7 3.4 0 0 Z " fill="#000000" transform="translate(632,509)"/>
<path d="M0 0 C0 0.99 0 1.98 0 3 C-6.625 7 -6.625 7 -10 7 C-10 6.01 -10 5.02 -10 4 C-3.375 0 -3.375 0 0 0 Z " fill="#000000" transform="translate(428,314)"/>
<path d="M0 0 C0.33 0.99 0.66 1.98 1 3 C-3.455 5.97 -3.455 5.97 -8 9 C-8 7.68 -8 6.36 -8 5 C-2.77272727 0 -2.77272727 0 0 0 Z " fill="#000000" transform="translate(444,302)"/>
<path d="M0 0 C0.99 0.33 1.98 0.66 3 1 C2.07456291 2.34173403 1.13422595 3.67320159 0.1875 5 C-0.33457031 5.7425 -0.85664063 6.485 -1.39453125 7.25 C-1.92433594 7.8275 -2.45414062 8.405 -3 9 C-3.99 9 -4.98 9 -6 9 C-5.52797514 4.75177626 -3.03344482 2.80010291 0 0 Z " fill="#000000" transform="translate(471,275)"/>
<path d="M0 0 C0.99 0.33 1.98 0.66 3 1 C1.6062718 5.43458973 -0.60582235 7.87378374 -4 11 C-5 8 -5 8 -4.00390625 5.95703125 C-3.52824219 5.24933594 -3.05257812 4.54164063 -2.5625 3.8125 C-2.08941406 3.09707031 -1.61632812 2.38164062 -1.12890625 1.64453125 C-0.75636719 1.10183594 -0.38382813 0.55914062 0 0 Z " fill="#000000" transform="translate(188,211)"/>
<path d="M0 0 C0.99 0.33 1.98 0.66 3 1 C1.03681826 4.53372712 -1.04070881 7.24479785 -4 10 C-4.66 9.67 -5.32 9.34 -6 9 C-4.47291037 5.56404834 -2.40072955 2.88087546 0 0 Z " fill="#000000" transform="translate(225,163)"/>
<path d="M0 0 C0.66 0.33 1.32 0.66 2 1 C0.68775452 4.93673644 -0.91910327 7.22719294 -4 10 C-4.99 9.67 -5.98 9.34 -7 9 C-6.02180976 7.68677212 -5.0424189 6.37443848 -4.0625 5.0625 C-3.51722656 4.33160156 -2.97195312 3.60070312 -2.41015625 2.84765625 C-1 1 -1 1 0 0 Z " fill="#000000" transform="translate(239,147)"/>
<path d="M0 0 C0.66 0.33 1.32 0.66 2 1 C0.51218185 4.78717347 -1.61988409 6.77407001 -5 9 C-5.99 8.67 -6.98 8.34 -8 8 C-5.58443874 4.80800833 -3.31996462 2.25283313 0 0 Z " fill="#000000" transform="translate(283,104)"/>
<path d="M0 0 C0.66 0.33 1.32 0.66 2 1 C1 4 1 4 -1.8125 5.75 C-4.96403086 6.98589446 -5.96929372 7.28222189 -9 6 C-6.45368965 3.02930459 -3.57769851 1.5224249 0 0 Z " fill="#000000" transform="translate(334,71)"/>
<path d="M0 0 C3.91211733 1.15585285 6.8745041 2.35534962 10 5 C9.67 5.66 9.34 6.32 9 7 C5.51329166 5.8905928 2.22515763 4.73662334 -1 3 C-0.67 2.01 -0.34 1.02 0 0 Z " fill="#000000" transform="translate(443,70)"/>
<path d="M0 0 C0.99 0 1.98 0 3 0 C3 3.63 3 7.26 3 11 C2.01 11 1.02 11 0 11 C0 7.37 0 3.74 0 0 Z " fill="#000000" transform="translate(150,634)"/>
<path d="M0 0 C3.63 0 7.26 0 11 0 C11 0.99 11 1.98 11 3 C7.37 3 3.74 3 0 3 C0 2.01 0 1.02 0 0 Z " fill="#000000" transform="translate(497,624)"/>
<path d="M0 0 C0 0.66 0 1.32 0 2 C-3.87684087 3.19287411 -6.91621923 4 -11 4 C-11 3.01 -11 2.02 -11 1 C-3.375 -1.125 -3.375 -1.125 0 0 Z " fill="#000000" transform="translate(528,622)"/>
<path d="M0 0 C3.63 0.66 7.26 1.32 11 2 C11 2.99 11 3.98 11 5 C7.7 4.67 4.4 4.34 1 4 C0.67 2.68 0.34 1.36 0 0 Z " fill="#000000" transform="translate(477,621)"/>
<path d="M0 0 C0.99 0 1.98 0 3 0 C3 3.63 3 7.26 3 11 C2.01 11 1.02 11 0 11 C0 7.37 0 3.74 0 0 Z " fill="#000000" transform="translate(150,614)"/>
<path d="M0 0 C0.99 0 1.98 0 3 0 C3 3.63 3 7.26 3 11 C2.01 11 1.02 11 0 11 C0 7.37 0 3.74 0 0 Z " fill="#000000" transform="translate(150,593)"/>
<path d="M0 0 C0.99 0 1.98 0 3 0 C3 3.63 3 7.26 3 11 C2.01 11 1.02 11 0 11 C0 7.37 0 3.74 0 0 Z " fill="#000000" transform="translate(150,573)"/>
<path d="M0 0 C0.66 0.33 1.32 0.66 2 1 C0.76067171 4.43198603 -0.50301511 7.30325632 -3 10 C-3.99 10 -4.98 10 -6 10 C-4.6302836 6.00499382 -2.74277578 3.19990508 0 0 Z " fill="#000000" transform="translate(603,561)"/>
<path d="M0 0 C0.99 0 1.98 0 3 0 C3 3.63 3 7.26 3 11 C2.01 11 1.02 11 0 11 C0 7.37 0 3.74 0 0 Z " fill="#000000" transform="translate(150,553)"/>
<path d="M0 0 C0.99 0.33 1.98 0.66 3 1 C1.68 3.64 0.36 6.28 -1 9 C-2.32 9 -3.64 9 -5 9 C-3.35 6.03 -1.7 3.06 0 0 Z " fill="#000000" transform="translate(613,545)"/>
<path d="M0 0 C0.99 0 1.98 0 3 0 C3 3.63 3 7.26 3 11 C2.01 11 1.02 11 0 11 C0 7.37 0 3.74 0 0 Z " fill="#000000" transform="translate(150,533)"/>
<path d="M0 0 C0.99 0.66 1.98 1.32 3 2 C1.35 4.97 -0.3 7.94 -2 11 C-2.66 10.67 -3.32 10.34 -4 10 C-3.43454163 6.04179141 -2.19097652 3.3340947 0 0 Z " fill="#000000" transform="translate(623,527)"/>
<path d="M0 0 C0.99 0 1.98 0 3 0 C3 3.63 3 7.26 3 11 C2.01 11 1.02 11 0 11 C0 7.37 0 3.74 0 0 Z " fill="#000000" transform="translate(150,513)"/>
<path d="M0 0 C0.99 0 1.98 0 3 0 C3 3.63 3 7.26 3 11 C2.01 11 1.02 11 0 11 C0 7.37 0 3.74 0 0 Z " fill="#000000" transform="translate(150,492)"/>
<path d="M0 0 C0.99 0 1.98 0 3 0 C4.65 2.97 6.3 5.94 8 9 C7.01 9.33 6.02 9.66 5 10 C4.15801693 8.90241493 3.32669329 7.79664683 2.5 6.6875 C2.0359375 6.07261719 1.571875 5.45773437 1.09375 4.82421875 C0 3 0 3 0 0 Z " fill="#000000" transform="translate(312,484)"/>
<path d="M0 0 C0.99 0 1.98 0 3 0 C3 3.63 3 7.26 3 11 C2.01 11 1.02 11 0 11 C0 7.37 0 3.74 0 0 Z " fill="#000000" transform="translate(150,472)"/>
<path d="M0 0 C0.99 0 1.98 0 3 0 C7 6.625 7 6.625 7 10 C3.17398693 8.54875366 1.77670876 6.64225296 0 3 C0 2.01 0 1.02 0 0 Z " fill="#000000" transform="translate(301,467)"/>
<path d="M0 0 C0.99 0 1.98 0 3 0 C2.01 3.3 1.02 6.6 0 10 C-0.99 10 -1.98 10 -3 10 C-2.69201674 8.51988629 -2.378482 7.04092675 -2.0625 5.5625 C-1.88847656 4.73878906 -1.71445312 3.91507812 -1.53515625 3.06640625 C-1 1 -1 1 0 0 Z " fill="#000000" transform="translate(653,454)"/>
<path d="M0 0 C0.99 0 1.98 0 3 0 C3 3.63 3 7.26 3 11 C2.01 11 1.02 11 0 11 C0 7.37 0 3.74 0 0 Z " fill="#000000" transform="translate(150,452)"/>
<path d="M0 0 C0.99 0 1.98 0 3 0 C6.22265625 5.17578125 6.22265625 5.17578125 7 7 C6.67 7.99 6.34 8.98 6 10 C5.34 10 4.68 10 4 10 C0 3.375 0 3.375 0 0 Z " fill="#000000" transform="translate(291,450)"/>
<path d="M0 0 C0.99 0 1.98 0 3 0 C3 3.63 3 7.26 3 11 C2.01 11 1.02 11 0 11 C0 7.37 0 3.74 0 0 Z " fill="#000000" transform="translate(150,432)"/>
<path d="M0 0 C0.99 0 1.98 0 3 0 C3 3.63 3 7.26 3 11 C2.01 11 1.02 11 0 11 C0 7.37 0 3.74 0 0 Z " fill="#000000" transform="translate(150,412)"/>
<path d="M0 0 C0.99 0 1.98 0 3 0 C3.99 3.3 4.98 6.6 6 10 C5.01 10.33 4.02 10.66 3 11 C2.49384702 9.73160474 1.99530901 8.46016898 1.5 7.1875 C1.2215625 6.47980469 0.943125 5.77210938 0.65625 5.04296875 C0 3 0 3 0 0 Z " fill="#000000" transform="translate(266,395)"/>
<path d="M0 0 C0.99 0 1.98 0 3 0 C3 3.63 3 7.26 3 11 C2.01 11 1.02 11 0 11 C0 7.37 0 3.74 0 0 Z " fill="#000000" transform="translate(150,391)"/>
<path d="M0 0 C0.99 0 1.98 0 3 0 C3 3.63 3 7.26 3 11 C2.01 11 1.02 11 0 11 C0 7.37 0 3.74 0 0 Z " fill="#000000" transform="translate(150,371)"/>
<path d="M0 0 C0.66 0.33 1.32 0.66 2 1 C1.67 1.99 1.34 2.98 1 4 C-1.06640625 4.94921875 -1.06640625 4.94921875 -3.5625 5.6875 C-4.38878906 5.93886719 -5.21507812 6.19023437 -6.06640625 6.44921875 C-6.70449219 6.63097656 -7.34257812 6.81273437 -8 7 C-8.33 6.01 -8.66 5.02 -9 4 C-7.54618103 3.30300448 -6.08677047 2.61766134 -4.625 1.9375 C-3.40683594 1.36322266 -3.40683594 1.36322266 -2.1640625 0.77734375 C-1.44992187 0.52082031 -0.73578125 0.26429688 0 0 Z " fill="#000000" transform="translate(337,352)"/>
<path d="M0 0 C0.99 0 1.98 0 3 0 C3 3.63 3 7.26 3 11 C2.01 11 1.02 11 0 11 C0 7.37 0 3.74 0 0 Z " fill="#000000" transform="translate(150,351)"/>
<path d="M0 0 C0.66 0.99 1.32 1.98 2 3 C-1.3 4.32 -4.6 5.64 -8 7 C-8 5.68 -8 4.36 -8 3 C-5.36 2.01 -2.72 1.02 0 0 Z " fill="#000000" transform="translate(373,337)"/>
<path d="M0 0 C0.99 0 1.98 0 3 0 C3 3.63 3 7.26 3 11 C2.01 11 1.02 11 0 11 C0 7.37 0 3.74 0 0 Z " fill="#000000" transform="translate(150,331)"/>
<path d="M0 0 C-2.6598561 3.44216672 -5.90288286 3.99504674 -10 5 C-10.33 4.01 -10.66 3.02 -11 2 C-3.57142857 -1.57142857 -3.57142857 -1.57142857 0 0 Z " fill="#000000" transform="translate(393,331)"/>
<path d="M0 0 C0.99 0 1.98 0 3 0 C3 3.63 3 7.26 3 11 C2.01 11 1.02 11 0 11 C0 7.37 0 3.74 0 0 Z " fill="#000000" transform="translate(150,310)"/>
<path d="M0 0 C0.99 0 1.98 0 3 0 C3 3.63 3 7.26 3 11 C2.01 11 1.02 11 0 11 C0 7.37 0 3.74 0 0 Z " fill="#000000" transform="translate(150,290)"/>
<path d="M0 0 C0.99 0 1.98 0 3 0 C3 3.63 3 7.26 3 11 C2.01 11 1.02 11 0 11 C0 7.37 0 3.74 0 0 Z " fill="#000000" transform="translate(150,270)"/>
<path d="M0 0 C0.99 0 1.98 0 3 0 C3 3.63 3 7.26 3 11 C2.01 11 1.02 11 0 11 C0 7.37 0 3.74 0 0 Z " fill="#000000" transform="translate(150,250)"/>
<path d="M0 0 C0.99 0 1.98 0 3 0 C3 3.63 3 7.26 3 11 C2.01 11 1.02 11 0 11 C0 7.37 0 3.74 0 0 Z " fill="#000000" transform="translate(150,230)"/>
<path d="M0 0 C0.66 0.33 1.32 0.66 2 1 C0.79157144 5.43090471 -0.51668565 7.98112756 -4 11 C-4.66 10.34 -5.32 9.68 -6 9 C-4.02 6.03 -2.04 3.06 0 0 Z " fill="#000000" transform="translate(177,228)"/>
<path d="M0 0 C0.99 0 1.98 0 3 0 C3 3.63 3 7.26 3 11 C2.01 11 1.02 11 0 11 C0 7.37 0 3.74 0 0 Z " fill="#000000" transform="translate(150,209)"/>
<path d="M0 0 C0.99 0 1.98 0 3 0 C2.125 7.625 2.125 7.625 1 11 C0.01 11 -0.98 11 -2 11 C-1.34 7.37 -0.68 3.74 0 0 Z " fill="#000000" transform="translate(506,204)"/>
<path d="M0 0 C0.99 0.33 1.98 0.66 3 1 C-1 8.71428571 -1 8.71428571 -5 10 C-4.49701212 5.59885603 -2.91227269 3.28804981 0 0 Z " fill="#000000" transform="translate(200,195)"/>
<path d="M0 0 C0.99 0 1.98 0 3 0 C3 3.63 3 7.26 3 11 C2.01 11 1.02 11 0 11 C0 7.37 0 3.74 0 0 Z " fill="#000000" transform="translate(150,189)"/>
<path d="M0 0 C0.99 0 1.98 0 3 0 C1.6062718 4.43458973 -0.60582235 6.87378374 -4 10 C-5 7 -5 7 -4.109375 5.17578125 C-3.66078125 4.56089844 -3.2121875 3.94601563 -2.75 3.3125 C-2.31171875 2.68988281 -1.8734375 2.06726563 -1.421875 1.42578125 C-0.95265625 0.95527344 -0.4834375 0.48476562 0 0 Z " fill="#000000" transform="translate(212,179)"/>
<path d="M0 0 C0.99 0 1.98 0 3 0 C3 3.63 3 7.26 3 11 C2.01 11 1.02 11 0 11 C0 7.37 0 3.74 0 0 Z " fill="#000000" transform="translate(150,169)"/>
<path d="M0 0 C0.99 0 1.98 0 3 0 C3 3.63 3 7.26 3 11 C2.01 11 1.02 11 0 11 C0 7.37 0 3.74 0 0 Z " fill="#000000" transform="translate(508,164)"/>
<path d="M0 0 C0.99 0 1.98 0 3 0 C3 3.63 3 7.26 3 11 C2.01 11 1.02 11 0 11 C0 7.37 0 3.74 0 0 Z " fill="#000000" transform="translate(150,149)"/>
<path d="M0 0 C0.99 0 1.98 0 3 0 C3.66 3.3 4.32 6.6 5 10 C4.01 10.33 3.02 10.66 2 11 C1.34 7.37 0.68 3.74 0 0 Z " fill="#000000" transform="translate(504,145)"/>
<path d="M0 0 C0.66 0.33 1.32 0.66 2 1 C0.47291037 4.43595166 -1.59927045 7.11912454 -4 10 C-4.99 9.67 -5.98 9.34 -7 9 C-5.44499019 5.18315774 -2.96404505 2.80804268 0 0 Z " fill="#000000" transform="translate(253,132)"/>
<path d="M0 0 C0.99 0 1.98 0 3 0 C3 3.63 3 7.26 3 11 C2.01 11 1.02 11 0 11 C0 7.37 0 3.74 0 0 Z " fill="#000000" transform="translate(150,129)"/>
<path d="M0 0 C0.99 0 1.98 0 3 0 C3 3.63 3 7.26 3 11 C2.01 11 1.02 11 0 11 C0 7.37 0 3.74 0 0 Z " fill="#000000" transform="translate(150,108)"/>
<path d="M0 0 C0.99 0.33 1.98 0.66 3 1 C3 1.66 3 2.32 3 3 C1.57421875 4.2890625 1.57421875 4.2890625 -0.3125 5.625 C-0.92738281 6.07101563 -1.54226563 6.51703125 -2.17578125 6.9765625 C-4 8 -4 8 -7 8 C-5.51218185 4.21282653 -3.38011591 2.22592999 0 0 Z " fill="#000000" transform="translate(298,92)"/>
<path d="M0 0 C0.99 0 1.98 0 3 0 C3 3.63 3 7.26 3 11 C2.01 11 1.02 11 0 11 C0 7.37 0 3.74 0 0 Z " fill="#000000" transform="translate(150,88)"/>
<path d="M0 0 C0.99 0.33 1.98 0.66 3 1 C3 1.66 3 2.32 3 3 C0.03 4.65 -2.94 6.3 -6 8 C-6 6.68 -6 5.36 -6 4 C-3.1875 1.6875 -3.1875 1.6875 0 0 Z " fill="#000000" transform="translate(315,81)"/>
<path d="M0 0 C0 0.99 0 1.98 0 3 C-3.87684087 4.19287411 -6.91621923 5 -11 5 C-10.67 4.01 -10.34 3.02 -10 2 C-6.3962102 0.47839986 -3.94779314 0 0 0 Z " fill="#000000" transform="translate(355,65)"/>
<path d="M0 0 C0 0.99 0 1.98 0 3 C-3.63 3.33 -7.26 3.66 -11 4 C-11 3.01 -11 2.02 -11 1 C-7.27569643 0.30710631 -3.78916254 -0.11144596 0 0 Z " fill="#000000" transform="translate(375,61)"/>
<path d="M0 0 C3.0831351 1.19899698 6.06279492 2.47700477 9 4 C9 4.99 9 5.98 9 7 C4.16743695 6.58578031 2.17320782 4.53586014 -1 1 C-0.67 0.67 -0.34 0.34 0 0 Z " fill="#000000" transform="translate(423,598)"/>
<path d="M0 0 C3.81684226 1.55500981 6.19195732 4.03595495 9 7 C8.01 7.33 7.02 7.66 6 8 C4.17578125 6.78515625 4.17578125 6.78515625 2.3125 5.0625 C1.68988281 4.49660156 1.06726563 3.93070313 0.42578125 3.34765625 C-0.04472656 2.90292969 -0.51523437 2.45820312 -1 2 C-0.67 1.34 -0.34 0.68 0 0 Z " fill="#000000" transform="translate(391,574)"/>
<path d="M0 0 C4.04648443 1.34882814 4.95502599 3.34826069 7 7 C6.67 7.99 6.34 8.98 6 10 C3.03595495 7.19195732 0.55500981 4.81684226 -1 1 C-0.67 0.67 -0.34 0.34 0 0 Z " fill="#000000" transform="translate(324,500)"/>
<path d="M0 0 C0.66 0.33 1.32 0.66 2 1 C1.49287967 4.71888239 0.88391785 7.73454239 -1 11 C-1.99 10.67 -2.98 10.34 -4 10 C-3.52449439 8.51965236 -3.04448784 7.04074979 -2.5625 5.5625 C-2.29566406 4.73878906 -2.02882813 3.91507812 -1.75390625 3.06640625 C-1 1 -1 1 0 0 Z " fill="#000000" transform="translate(647,472)"/>
<path d="M0 0 C0.99 0 1.98 0 3 0 C6 6.625 6 6.625 6 10 C5.01 10 4.02 10 3 10 C0 3.375 0 3.375 0 0 Z " fill="#000000" transform="translate(273,414)"/>
<path d="M0 0 C-1.41519715 2.0343459 -2.54982123 2.90410393 -4.98046875 3.421875 C-6.98176954 3.66273952 -8.9909944 3.83532741 -11 4 C-11 3.01 -11 2.02 -11 1 C-3.57142857 -1.42857143 -3.57142857 -1.42857143 0 0 Z " fill="#000000" transform="translate(210,396)"/>
<path d="M0 0 C0 0.99 0 1.98 0 3 C-4.12168689 4.62950412 -6.70700357 5.26264601 -11 4 C-10 2 -10 2 -6.625 0.875 C-3 0 -3 0 0 0 Z " fill="#000000" transform="translate(247,384)"/>
<path d="M0 0 C0.66 0.99 1.32 1.98 2 3 C0.54293274 3.50367757 -0.91570096 4.00282556 -2.375 4.5 C-3.59316406 4.91765625 -3.59316406 4.91765625 -4.8359375 5.34375 C-7 6 -7 6 -9 6 C-9 5.01 -9 4.02 -9 3 C-6.03 2.01 -3.06 1.02 0 0 Z " fill="#000000" transform="translate(283,373)"/>
<path d="M0 0 C0 0.99 0 1.98 0 3 C-6.625 6 -6.625 6 -10 6 C-10 5.01 -10 4.02 -10 3 C-3.375 0 -3.375 0 0 0 Z " fill="#000000" transform="translate(321,360)"/>
<path d="M0 0 C0 0.66 0 1.32 0 2 C-6.4 5.07692308 -6.4 5.07692308 -9.4375 4.6875 C-9.953125 4.460625 -10.46875 4.23375 -11 4 C-7.84441727 0.34616736 -4.73375145 -1.57791715 0 0 Z " fill="#000000" transform="translate(357,346)"/>
<path d="M0 0 C-0.24609375 1.890625 -0.24609375 1.890625 -1 4 C-2.84765625 5.046875 -2.84765625 5.046875 -5.0625 5.75 C-6.16271484 6.11351562 -6.16271484 6.11351562 -7.28515625 6.484375 C-8.13400391 6.73960937 -8.13400391 6.73960937 -9 7 C-9 5.68 -9 4.36 -9 3 C-2.25 0 -2.25 0 0 0 Z " fill="#000000" transform="translate(410,322)"/>
<path d="M0 0 C0.99 0.33 1.98 0.66 3 1 C-0.625 7.75 -0.625 7.75 -4 10 C-4 5.28093812 -2.71245796 3.72962969 0 0 Z " fill="#000000" transform="translate(483,259)"/>
<path d="M0 0 C0.66 0.33 1.32 0.66 2 1 C1.38545304 4.99455527 -0.70646737 7.74466336 -3 11 C-3.66 10.67 -4.32 10.34 -5 10 C-3.84414715 6.08788267 -2.64465038 3.1254959 0 0 Z " fill="#000000" transform="translate(166,245)"/>
<path d="M0 0 C0.99 0 1.98 0 3 0 C1.8905928 3.48670834 0.73662334 6.77484237 -1 10 C-1.99 10 -2.98 10 -4 10 C-3.43768609 6.06380262 -2.38314183 3.20807554 0 0 Z " fill="#000000" transform="translate(493,242)"/>
<path d="M0 0 C0.99 0.33 1.98 0.66 3 1 C2.57742724 2.4835001 2.13643678 3.96176424 1.6875 5.4375 C1.44386719 6.26121094 1.20023437 7.08492187 0.94921875 7.93359375 C0.63597656 8.61550781 0.32273437 9.29742187 0 10 C-0.99 10.33 -1.98 10.66 -3 11 C-2.44894091 7.0507432 -1.61064629 3.65079826 0 0 Z " fill="#000000" transform="translate(501,223)"/>
<path d="M0 0 C0.66 0 1.32 0 2 0 C2 3.63 2 7.26 2 11 C1.01 11 0.02 11 -1 11 C-1.02688151 9.35425434 -1.04634123 7.70838587 -1.0625 6.0625 C-1.07410156 5.14597656 -1.08570313 4.22945312 -1.09765625 3.28515625 C-1 1 -1 1 0 0 Z " fill="#000000" transform="translate(509,184)"/>
<path d="M0 0 C1.890625 0.21484375 1.890625 0.21484375 4 1 C5.046875 3.06640625 5.046875 3.06640625 5.75 5.5625 C5.99234375 6.38878906 6.2346875 7.21507812 6.484375 8.06640625 C6.65453125 8.70449219 6.8246875 9.34257812 7 10 C5.109375 9.78515625 5.109375 9.78515625 3 9 C1.953125 6.93359375 1.953125 6.93359375 1.25 4.4375 C1.00765625 3.61121094 0.7653125 2.78492188 0.515625 1.93359375 C0.34546875 1.29550781 0.1753125 0.65742187 0 0 Z " fill="#000000" transform="translate(497,126)"/>
<path d="M0 0 C0.99 0.33 1.98 0.66 3 1 C2.09827532 2.17825358 1.17798498 3.34231577 0.25 4.5 C-0.51570313 5.47453125 -0.51570313 5.47453125 -1.296875 6.46875 C-3 8 -3 8 -7 8 C-6.02133662 6.85373678 -5.04205413 5.70800212 -4.0625 4.5625 C-3.51722656 3.92441406 -2.97195313 3.28632812 -2.41015625 2.62890625 C-1.63204305 1.73008851 -0.84063472 0.84063472 0 0 Z " fill="#000000" transform="translate(267,118)"/>
<path d="M0 0 C3.45925163 1.2491742 6.14693203 2.67527795 9 5 C8.67 5.99 8.34 6.98 8 8 C4.18315774 6.44499019 1.80804268 3.96404505 -1 1 C-0.67 0.67 -0.34 0.34 0 0 Z " fill="#000000" transform="translate(460,80)"/>
<path d="M0 0 C3.3 0.99 6.6 1.98 10 3 C10 3.99 10 4.98 10 6 C6.37 5.01 2.74 4.02 -1 3 C-0.67 2.01 -0.34 1.02 0 0 Z " fill="#000000" transform="translate(424,63)"/>
<path d="M0 0 C1.46015291 0.28241641 2.91809793 0.57626614 4.375 0.875 C5.18710937 1.03742187 5.99921875 1.19984375 6.8359375 1.3671875 C9 2 9 2 11 4 C10.34 4.66 9.68 5.32 9 6 C6.03 5.01 3.06 4.02 0 3 C0 2.01 0 1.02 0 0 Z " fill="#000000" transform="translate(458,616)"/>
<path d="M0 0 C1.3410477 0.75733274 2.67269781 1.53132736 4 2.3125 C5.11375 2.95638672 5.11375 2.95638672 6.25 3.61328125 C6.8275 4.07089844 7.405 4.52851562 8 5 C8 5.99 8 6.98 8 8 C4.12867972 7.42647107 1.91827204 5.51295648 -1 3 C-0.67 2.01 -0.34 1.02 0 0 Z " fill="#000000" transform="translate(407,586)"/>
<path d="M0 0 C4.20626034 1.50223584 5.73900021 4.28550034 8 8 C4 8 4 8 2.515625 6.6875 C1.34375 5.125 0.171875 3.5625 -1 2 C-0.67 1.34 -0.34 0.68 0 0 Z " fill="#000000" transform="translate(336,516)"/>
<path d="M0 0 C0.99 0.33 1.98 0.66 3 1 C2.01 3.97 1.02 6.94 0 10 C-0.99 10 -1.98 10 -3 10 C-2.39009109 6.44219804 -1.4216319 3.3171411 0 0 Z " fill="#000000" transform="translate(639,491)"/>
<path d="M0 0 C0.66 0 1.32 0 2 0 C6 6.625 6 6.625 6 10 C5.01 10 4.02 10 3 10 C1.68 7.03 0.36 4.06 -1 1 C-0.67 0.67 -0.34 0.34 0 0 Z " fill="#000000" transform="translate(282,432)"/>
<path d="M0 0 C0 0.99 0 1.98 0 3 C-3.3 3.66 -6.6 4.32 -10 5 C-10 4.01 -10 3.02 -10 2 C-6.38026598 0.68373308 -3.90432869 0 0 0 Z " fill="#000000" transform="translate(228,390)"/>
<path d="M0 0 C3.63 0.33 7.26 0.66 11 1 C10.67 1.99 10.34 2.98 10 4 C6.7 3.67 3.4 3.34 0 3 C0 2.01 0 1.02 0 0 Z " fill="#000000" transform="translate(404,60)"/>
<path d="M0 0 C0 0.66 0 1.32 0 2 C-3.50776784 3.60355101 -6.14354879 4.22036864 -10 4 C-10 3.01 -10 2.02 -10 1 C-8.71073008 0.63720544 -7.41846728 0.28503302 -6.125 -0.0625 C-5.40570313 -0.25972656 -4.68640625 -0.45695312 -3.9453125 -0.66015625 C-2 -1 -2 -1 0 0 Z " fill="#000000" transform="translate(191,401)"/>
<path d="M0 0 C-1 3 -1 3 -3.3125 4.1875 C-6 5 -6 5 -10 5 C-10 4.01 -10 3.02 -10 2 C-6.38026598 0.68373308 -3.90432869 0 0 0 Z " fill="#000000" transform="translate(303,368)"/>
<path d="M0 0 C3.36295835 1.44126786 5.62927102 3.20592655 8 6 C8 6.99 8 7.98 8 9 C4.63704165 7.55873214 2.37072898 5.79407345 0 3 C0 2.01 0 1.02 0 0 Z " fill="#000000" transform="translate(475,93)"/>
<path d="M0 0 C0 0.99 0 1.98 0 3 C-4.455 3.495 -4.455 3.495 -9 4 C-9 3.01 -9 2.02 -9 1 C-5.846632 0.29925156 -3.27275026 0 0 0 Z " fill="#000000" transform="translate(174,404)"/>
<path d="M0 0 C3.63 0 7.26 0 11 0 C11 0.66 11 1.32 11 2 C7.37 2.33 3.74 2.66 0 3 C0 2.01 0 1.02 0 0 Z " fill="#000000" transform="translate(384,60)"/>
<path d="M0 0 C0.99 0 1.98 0 3 0 C3 1.98 3 3.96 3 6 C2.01 6 1.02 6 0 6 C0 4.02 0 2.04 0 0 Z " fill="#000000" transform="translate(150,654)"/>
<path d="M0 0 C0.99 0 1.98 0 3 0 C2.67 1.98 2.34 3.96 2 6 C1.01 6 0.02 6 -1 6 C-0.67 4.02 -0.34 2.04 0 0 Z " fill="#000000" transform="translate(657,439)"/>
<path d="M0 0 C0.99 0 1.98 0 3 0 C3 1.98 3 3.96 3 6 C2.01 6 1.02 6 0 6 C0 4.02 0 2.04 0 0 Z " fill="#000000" transform="translate(150,73)"/>
<path d="M0 0 C0.99 0.33 1.98 0.66 3 1 C1.515 3.475 1.515 3.475 0 6 C-0.66 5.67 -1.32 5.34 -2 5 C-1.34 3.35 -0.68 1.7 0 0 Z " fill="#000000" transform="translate(155,263)"/>
<path d="M0 0 C1.32 0 2.64 0 4 0 C4 0.99 4 1.98 4 3 C2.35 2.67 0.7 2.34 -1 2 C-0.67 1.34 -0.34 0.68 0 0 Z " fill="#000000" transform="translate(154,407)"/>
<path d="M0 0 C0.99 0.33 1.98 0.66 3 1 C2.67 1.99 2.34 2.98 2 4 C1.01 3.01 0.02 2.02 -1 1 C-0.67 0.67 -0.34 0.34 0 0 Z " fill="#000000" transform="translate(515,500)"/>
<path d="M0 0 C0.99 0.33 1.98 0.66 3 1 C2.67 1.99 2.34 2.98 2 4 C1.01 3.01 0.02 2.02 -1 1 C-0.67 0.67 -0.34 0.34 0 0 Z " fill="#000000" transform="translate(616,152)"/>
</svg>
