<svg width="764" height="810" viewBox="0 0 764 810" fill="none" xmlns="http://www.w3.org/2000/svg">
<path d="M147.619 790.455V805H145.858V792.301H145.773L142.222 794.659V792.869L145.858 790.455H147.619ZM152.193 805.114C151.843 805.114 151.542 804.988 151.291 804.737C151.04 804.486 150.915 804.186 150.915 803.835C150.915 803.485 151.04 803.184 151.291 802.933C151.542 802.682 151.843 802.557 152.193 802.557C152.544 802.557 152.844 802.682 153.095 802.933C153.346 803.184 153.472 803.485 153.472 803.835C153.472 804.067 153.412 804.28 153.294 804.474C153.18 804.669 153.027 804.825 152.832 804.943C152.643 805.057 152.43 805.114 152.193 805.114ZM159.826 790.455V805H158.065V792.301H157.98L154.429 794.659V792.869L158.065 790.455H159.826Z" fill="black"/>
<path d="M19.707 127.499C78.5908 64.0189 130.413 92.1922 148.964 114.214C139.629 139.706 144.656 518.142 177.329 626.575C210.002 735.007 235.854 621.189 253.806 541.48C268.168 477.714 272.476 311.451 272.836 236.29C310.176 165.342 380.55 194.999 411.069 218.697C406.186 392.763 459.301 552.372 486.469 610.418C535.012 715.26 574.675 586.361 588.438 508.807C596.194 479.796 608.425 348.073 613.572 285.839C577.38 253.381 564.263 193.324 562.228 167.353C558.207 72.5642 606.989 51.2607 631.883 52.4576C683.586 45.8511 698.666 112.419 699.743 146.528V258.91C705.775 263.506 733.135 266.33 746.06 267.168C746.635 304.222 713.985 311.57 697.589 310.613C688.397 404.827 671.737 481.998 664.556 508.807C658.572 541.959 638.131 619.178 604.236 662.839C570.342 706.499 520.937 708.318 500.472 703.77C481.442 702.813 432.396 689.336 388.449 643.091C344.501 596.846 324.658 507.73 320.23 468.953C320.23 542.199 297.729 626.575 286.479 659.607C273.554 691.682 230.396 750.087 161.172 727.108C91.9473 704.129 55.492 632.798 45.9174 600.005C34.3082 572.119 9.72545 483.028 4.26793 349.749C-1.18959 216.471 12.2867 146.049 19.707 127.499Z" stroke="black" stroke-width="5"/>
<path d="M517.619 513.455V528H515.858V515.301H515.773L512.222 517.659V515.869L515.858 513.455H517.619ZM522.193 528.114C521.843 528.114 521.542 527.988 521.291 527.737C521.04 527.486 520.915 527.186 520.915 526.835C520.915 526.485 521.04 526.184 521.291 525.933C521.542 525.682 521.843 525.557 522.193 525.557C522.544 525.557 522.844 525.682 523.095 525.933C523.346 526.184 523.472 526.485 523.472 526.835C523.472 527.067 523.412 527.28 523.294 527.474C523.18 527.669 523.027 527.825 522.832 527.943C522.643 528.057 522.43 528.114 522.193 528.114ZM526.451 528V526.722L531.252 521.466C531.816 520.85 532.28 520.315 532.644 519.861C533.009 519.402 533.279 518.971 533.454 518.568C533.634 518.161 533.724 517.735 533.724 517.29C533.724 516.778 533.601 516.336 533.354 515.962C533.113 515.588 532.781 515.299 532.36 515.095C531.939 514.892 531.465 514.79 530.94 514.79C530.381 514.79 529.893 514.906 529.477 515.138C529.065 515.365 528.745 515.685 528.518 516.097C528.295 516.509 528.184 516.991 528.184 517.545H526.508C526.508 516.693 526.704 515.945 527.097 515.301C527.49 514.657 528.025 514.155 528.702 513.795C529.384 513.436 530.149 513.256 530.996 513.256C531.849 513.256 532.604 513.436 533.262 513.795C533.92 514.155 534.436 514.641 534.81 515.251C535.184 515.862 535.371 516.542 535.371 517.29C535.371 517.825 535.274 518.348 535.08 518.859C534.891 519.366 534.559 519.932 534.086 520.557C533.617 521.177 532.966 521.935 532.133 522.83L528.866 526.324V526.438H535.627V528H526.451Z" fill="black"/>
<path d="M632.619 4.45455V19H630.858V6.30114H630.773L627.222 8.65909V6.86932L630.858 4.45455H632.619ZM637.193 19.1136C636.843 19.1136 636.542 18.9882 636.291 18.7372C636.04 18.4863 635.915 18.1856 635.915 17.8352C635.915 17.4848 636.04 17.1842 636.291 16.9332C636.542 16.6823 636.843 16.5568 637.193 16.5568C637.544 16.5568 637.844 16.6823 638.095 16.9332C638.346 17.1842 638.472 17.4848 638.472 17.8352C638.472 18.0672 638.412 18.2803 638.294 18.4744C638.18 18.6686 638.027 18.8248 637.832 18.9432C637.643 19.0568 637.43 19.1136 637.193 19.1136ZM645.819 19.1989C644.881 19.1989 644.046 19.0379 643.312 18.7159C642.583 18.3939 642.003 17.9465 641.572 17.3736C641.146 16.7959 640.914 16.1259 640.876 15.3636H642.665C642.703 15.8324 642.864 16.2372 643.148 16.5781C643.433 16.9143 643.804 17.1747 644.263 17.3594C644.723 17.544 645.232 17.6364 645.79 17.6364C646.415 17.6364 646.969 17.5275 647.452 17.3097C647.935 17.0919 648.314 16.7888 648.589 16.4006C648.863 16.0123 649.001 15.5625 649.001 15.0511C649.001 14.5161 648.868 14.045 648.603 13.6378C648.338 13.2259 647.95 12.9039 647.438 12.6719C646.927 12.4399 646.302 12.3239 645.563 12.3239H644.398V10.7614H645.563C646.141 10.7614 646.647 10.6572 647.083 10.4489C647.523 10.2405 647.867 9.94697 648.113 9.56818C648.364 9.18939 648.489 8.74432 648.489 8.23295C648.489 7.74053 648.38 7.31203 648.163 6.94744C647.945 6.58286 647.637 6.29877 647.239 6.09517C646.846 5.89157 646.382 5.78977 645.847 5.78977C645.345 5.78977 644.872 5.8821 644.427 6.06676C643.987 6.24669 643.627 6.50947 643.347 6.85511C643.068 7.19602 642.916 7.60795 642.893 8.09091H641.188C641.217 7.3286 641.446 6.66098 641.877 6.08807C642.308 5.51042 642.871 5.06061 643.567 4.73864C644.268 4.41667 645.038 4.25568 645.876 4.25568C646.775 4.25568 647.547 4.43797 648.191 4.80256C648.835 5.1624 649.33 5.63826 649.675 6.23011C650.021 6.82197 650.194 7.46117 650.194 8.14773C650.194 8.96686 649.978 9.66525 649.548 10.2429C649.121 10.8205 648.541 11.2206 647.808 11.4432V11.5568C648.726 11.7083 649.443 12.099 649.96 12.7287C650.476 13.3537 650.734 14.1278 650.734 15.0511C650.734 15.8419 650.518 16.5521 650.087 17.1818C649.661 17.8068 649.079 18.2992 648.34 18.6591C647.602 19.0189 646.761 19.1989 645.819 19.1989Z" fill="black"/>
<path d="M725.619 335.455V350H723.858V337.301H723.773L720.222 339.659V337.869L723.858 335.455H725.619ZM730.193 350.114C729.843 350.114 729.542 349.988 729.291 349.737C729.04 349.486 728.915 349.186 728.915 348.835C728.915 348.485 729.04 348.184 729.291 347.933C729.542 347.682 729.843 347.557 730.193 347.557C730.544 347.557 730.844 347.682 731.095 347.933C731.346 348.184 731.472 348.485 731.472 348.835C731.472 349.067 731.412 349.28 731.294 349.474C731.18 349.669 731.027 349.825 730.832 349.943C730.643 350.057 730.43 350.114 730.193 350.114ZM734.11 347.017V345.568L740.502 335.455H741.553V337.699H740.843L736.013 345.341V345.455H744.621V347.017H734.11ZM740.957 350V346.577V345.902V335.455H742.633V350H740.957Z" fill="black"/>
<path d="M757.815 298.921C757.495 298.47 756.871 298.365 756.421 298.685L749.085 303.899C748.635 304.219 748.529 304.844 748.849 305.294C749.169 305.744 749.794 305.849 750.244 305.529L756.764 300.894L761.399 307.415C761.719 307.865 762.344 307.971 762.794 307.651C763.244 307.331 763.349 306.706 763.029 306.256L757.815 298.921ZM703.437 332.998C711.469 333.505 723.81 332.47 734.787 327.692C745.792 322.901 755.514 314.295 757.986 299.667L756.014 299.333C753.686 313.105 744.575 321.249 733.988 325.858C723.373 330.48 711.364 331.495 703.563 331.002L703.437 332.998Z" fill="black"/>
<path d="M61.4999 161.001C60.1666 303.334 73.4999 602.401 137.5 660.001C170.333 706.668 246.3 750.701 287.5 553.501L336.5 246C357.167 339.833 409.598 573 437.5 615.001C468.833 662.168 524 723 599.5 620.5C608.5 601 640.5 403.666 661 306.5C675.333 231.666 694.9 71.5004 636.5 77.5004C612 80.6671 554.5 112 599.5 205.001C612.08 231 644.5 259.5 665.816 279.001L713.5 286.5" stroke="black" stroke-width="2" stroke-dasharray="10 10"/>
<path d="M297.999 710.047C298.025 709.219 297.375 708.526 296.547 708.501L283.053 708.081C282.225 708.055 281.533 708.706 281.507 709.534C281.481 710.362 282.132 711.054 282.96 711.079L294.954 711.453L294.581 723.447C294.555 724.275 295.206 724.967 296.034 724.993C296.862 725.019 297.554 724.368 297.579 723.54L297.999 710.047ZM28.4231 633.385C28.1806 633.284 28.1044 633.153 28.2138 633.278C28.2853 633.359 28.3971 633.505 28.5531 633.739C28.863 634.205 29.2646 634.891 29.766 635.805C30.766 637.63 32.0856 640.22 33.745 643.459C37.0539 649.919 41.6589 658.851 47.5632 668.989C59.3636 689.252 76.3944 714.405 98.7509 734.369C121.117 754.34 148.904 769.196 182.166 768.64C215.423 768.085 253.857 752.128 297.527 711.093L295.473 708.907C252.143 749.622 214.389 765.102 182.116 765.641C149.846 766.179 122.758 751.785 100.749 732.131C78.7306 712.47 61.8864 687.623 50.1556 667.48C44.2942 657.415 39.7196 648.542 36.4151 642.092C34.7679 638.876 33.4225 636.235 32.3966 634.363C31.8851 633.43 31.4335 632.652 31.0497 632.076C30.8589 631.79 30.6638 631.521 30.4681 631.298C30.3104 631.119 30.0069 630.795 29.5769 630.615L28.4231 633.385Z" fill="black"/>
<path d="M575.733 489.145C575.261 488.465 574.326 488.295 573.645 488.767L562.551 496.458C561.87 496.93 561.7 497.865 562.172 498.546C562.644 499.227 563.579 499.396 564.26 498.924L574.122 492.087L580.958 501.949C581.43 502.63 582.365 502.8 583.046 502.328C583.727 501.856 583.896 500.921 583.424 500.24L575.733 489.145ZM473.072 511.459C478.216 527.477 485.139 544.866 493.13 559.282C497.126 566.49 501.407 572.988 505.89 578.209C510.363 583.417 515.105 587.434 520.043 589.565C525.035 591.719 530.211 591.932 535.361 589.543C540.447 587.184 545.35 582.36 550.04 574.765C559.412 559.59 568.269 532.804 575.976 490.267L573.024 489.733C565.331 532.196 556.55 558.515 547.488 573.188C542.961 580.518 538.447 584.804 534.098 586.822C529.812 588.81 525.533 588.666 521.232 586.81C516.876 584.931 512.486 581.284 508.166 576.254C503.858 571.237 499.688 564.924 495.754 557.827C487.886 543.634 481.034 526.44 475.928 510.541L473.072 511.459Z" fill="black"/>
<path d="M552.594 89.5224C552.882 90.299 553.746 90.6947 554.522 90.4062L567.178 85.7057C567.954 85.4173 568.35 84.5539 568.061 83.7773C567.773 83.0007 566.91 82.605 566.133 82.8934L554.884 87.0717L550.706 75.8226C550.417 75.046 549.554 74.6503 548.777 74.9387C548.001 75.2272 547.605 76.0905 547.893 76.8671L552.594 89.5224ZM724.657 88.045C706.407 65.945 675.874 39.2543 643.628 31.4423C627.449 27.5227 610.785 28.3457 595.073 36.9469C579.384 45.536 564.824 61.7843 552.636 88.3751L555.364 89.6251C567.376 63.4159 581.562 47.7642 596.514 39.5783C611.445 31.4045 627.317 30.5775 642.922 34.3579C674.243 41.9459 704.259 68.0552 722.343 89.9552L724.657 88.045Z" fill="black"/>
</svg>
