<?xml version="1.0" encoding="UTF-8"?>
<svg version="1.1" xmlns="http://www.w3.org/2000/svg" width="689" height="756">
<path d="M0 0 C1.70943283 0.00090637 1.70943283 0.00090637 3.45339966 0.00183105 C23.03145806 0.02985855 42.49223476 0.5007784 62 2.1875 C63.09939911 2.28224609 63.09939911 2.28224609 64.2210083 2.37890625 C100.5031446 5.55528403 136.27753398 11.34429855 171.25 21.6875 C172.14235352 21.94781006 173.03470703 22.20812012 173.95410156 22.47631836 C181.28114042 24.7239223 188.10446085 27.86125577 195 31.1875 C195.24903435 37.25206104 195.42948993 43.31358823 195.54931641 49.38208008 C195.5993069 51.44152722 195.66732829 53.50062482 195.75439453 55.55883789 C196.54987105 74.86084174 196.54987105 74.86084174 190.3671875 81.5859375 C188.60007778 83.14503226 186.8124266 84.68132502 185 86.1875 C183.79934125 87.5841115 182.6377518 89.01595015 181.53125 90.48828125 C181.02851562 91.14731445 180.52578125 91.80634766 180.0078125 92.48535156 C179.51023437 93.15018555 179.01265625 93.81501953 178.5 94.5 C177.95085938 95.22799805 177.40171875 95.95599609 176.8359375 96.70605469 C175.21656874 98.86113322 173.60713985 101.02329349 172 103.1875 C171.5565625 103.77901855 171.113125 104.37053711 170.65625 104.97998047 C157.26433048 122.89690404 146.34542618 142.39782867 136 162.1875 C135.52852539 163.0851709 135.05705078 163.9828418 134.57128906 164.90771484 C115.54251465 201.35139672 101.68127453 240.08779616 88.21722412 278.84300232 C86.3051731 284.33711345 84.34346588 289.81188967 82.35351562 295.27832031 C80.90062839 299.27311733 79.4702684 303.27578517 78.04296875 307.27978516 C77.35551276 309.19635839 76.66036966 311.11019423 75.95703125 313.02099609 C63.35854033 347.37998456 55.97223878 383.70665912 48.4375 419.4375 C48.06593277 421.19420013 48.06593277 421.19420013 47.68685913 422.98638916 C41.26744003 453.02336184 41.26744003 453.02336184 37.75 483.5 C37.67628174 484.5813623 37.60256348 485.66272461 37.52661133 486.77685547 C34.89890297 524.86279387 34.89890297 524.86279387 49.25 558.6875 C53.42595499 562.90500678 57.79570271 566.33595917 63 569.1875 C63.59941406 569.52652344 64.19882812 569.86554687 64.81640625 570.21484375 C78.99553099 576.86035146 96.34767013 570.0672088 110 565.1875 C126.76186234 558.81603186 141.17391189 546.34809227 155 535.1875 C155.64324219 534.6704248 156.28648437 534.15334961 156.94921875 533.62060547 C169.58480369 523.45653606 181.99155863 513.08936145 194 502.1875 C195.47443416 500.8489352 196.95327822 499.51520385 198.4375 498.1875 C199.36369141 497.3521875 199.36369141 497.3521875 200.30859375 496.5 C202 495.1875 202 495.1875 205 494.1875 C205.256158 503.36736616 205.45095407 512.54598205 205.56993389 521.72865677 C205.62707423 525.99390124 205.7044092 530.2566816 205.82983398 534.52050781 C205.95037136 538.64453616 206.01532831 542.76621333 206.04364967 546.89186859 C206.06379889 548.4564997 206.10314832 550.02101828 206.16303062 551.58463287 C206.43683572 559.03834077 206.41541829 565.34951434 201.34548664 571.26126003 C199.00135812 573.70202887 196.53316497 575.94187248 194 578.1875 C192.74294539 579.47008533 191.49546103 580.76222268 190.26367188 582.0690918 C189.16801423 583.17759267 188.06971935 584.28349332 186.96875 585.38671875 C186.36671753 585.99207962 185.76468506 586.59744049 185.14440918 587.22114563 C183.89231712 588.47822032 182.63894477 589.73402112 181.38427734 590.98852539 C179.49677187 592.87823189 177.61745383 594.77583938 175.73828125 596.67382812 C169.50873124 602.93153152 163.24588547 608.89029004 156.29931641 614.35571289 C154.06759247 616.13365138 151.96692344 617.99826974 149.875 619.9375 C116.63477039 649.74724328 74.82378107 673.71946395 31 683.1875 C29.89785156 683.43242188 28.79570313 683.67734375 27.66015625 683.9296875 C-5.72031 689.95385075 -40.84135908 682.80222652 -68.875 663.8125 C-100.81193915 640.70750451 -111.23586197 600.80828782 -119 564.1875 C-119.67804688 565.19167969 -120.35609375 566.19585938 -121.0546875 567.23046875 C-140.05627953 595.2199515 -162.29203283 622.22531212 -189 643.1875 C-190.96256282 644.82828761 -192.92073651 646.47433619 -194.875 648.125 C-215.64583285 665.37173267 -236.51064699 676.98197203 -263 683.1875 C-264.06516846 683.43741699 -264.06516846 683.43741699 -265.15185547 683.69238281 C-285.93786349 688.30512891 -310.34824456 688.44092602 -331 683.1875 C-331.99628418 682.93806641 -331.99628418 682.93806641 -333.01269531 682.68359375 C-348.22743271 678.72409582 -362.84535298 672.24916673 -375 662.1875 C-375.82628906 661.51203125 -376.65257812 660.8365625 -377.50390625 660.140625 C-422.36743456 621.66611246 -441.63392046 554.6723104 -446.5625 498.0703125 C-447.13976431 490.19473658 -447.19910461 482.32938733 -447.1875 474.4375 C-447.18689575 473.67293488 -447.1862915 472.90836975 -447.18566895 472.12063599 C-447.06282357 414.46645436 -432.26530238 356.91795187 -415 302.1875 C-414.68240723 301.16366211 -414.36481445 300.13982422 -414.03759766 299.08496094 C-398.69739487 249.83099762 -375.4966125 203.11003588 -344 162.1875 C-343.51047852 161.54635254 -343.02095703 160.90520508 -342.51660156 160.24462891 C-337.53346884 153.72941501 -332.38212699 147.36845201 -327.0625 141.125 C-326.63308105 140.6199292 -326.20366211 140.1148584 -325.76123047 139.59448242 C-316.66645965 129.04527138 -307.00939759 119.01019844 -297.16333008 109.16552734 C-295.42955057 107.42954044 -293.70398462 105.6856489 -291.97851562 103.94140625 C-285.29412674 97.22352267 -278.44963263 91.05856895 -271 85.1875 C-269.82567856 84.21152404 -268.65456959 83.23165523 -267.48828125 82.24609375 C-204.92153842 30.22737456 -124.08996717 6.38035027 -44 1.1875 C-43.365177 1.14513214 -42.730354 1.10276428 -42.07629395 1.05911255 C-28.05206557 0.14540049 -14.05083575 -0.01384357 0 0 Z M-57 8.1875 C-58.25780273 8.31640625 -59.51560547 8.4453125 -60.81152344 8.578125 C-132.94758739 16.11462092 -202.67817407 38.61486821 -260 84.1875 C-261.36898437 85.2703125 -261.36898437 85.2703125 -262.765625 86.375 C-268.42988548 90.93172352 -273.85985099 95.7003328 -279.19921875 100.6328125 C-281.38296146 102.62467823 -283.59089275 104.56586297 -285.828125 106.49609375 C-290.07980783 110.20548798 -294.08549167 114.12484711 -298.0625 118.125 C-298.73087891 118.78951172 -299.39925781 119.45402344 -300.08789062 120.13867188 C-304.02939078 124.08783286 -307.78128554 128.14774507 -311.42553711 132.37231445 C-313.47788901 134.73845438 -315.61402781 137.02185396 -317.75 139.3125 C-322.97655872 145.05069474 -327.74281652 151.0785664 -332.47558594 157.22607422 C-334.08184051 159.29280215 -335.71402398 161.33689291 -337.3515625 163.37890625 C-345.98369709 174.20042023 -353.71589329 185.41882046 -361 197.1875 C-361.4429541 197.90228516 -361.8859082 198.61707031 -362.34228516 199.35351562 C-369.87496684 211.61184817 -376.51491747 224.35088463 -383 237.1875 C-383.41137207 237.99944824 -383.82274414 238.81139648 -384.24658203 239.64794922 C-420.8159101 312.46434103 -442.63774023 403.86088833 -427 566.6875 C-414.02516372 605.47766324 -392.14796354 648.96353696 -354.3125 668.3125 C-321.45124455 684.50964494 -282.75048017 684.02534643 -248.3125 673.0625 C-235.08466084 668.56198811 -221.99493196 662.42792557 -211.3671875 653.234375 C-209.11110951 651.28357489 -206.78057842 649.47242677 -204.3984375 647.67895508 C-194.6406293 640.33025029 -185.04628531 632.57452793 -176.5703125 623.7578125 C-174.79397233 621.98147233 -172.91585411 620.37446946 -171 618.75 C-167.66763814 615.87002378 -164.79762589 612.81310602 -161.95703125 609.453125 C-159.67300285 606.80894043 -157.27347453 604.29078634 -154.875 601.75 C-142.37283013 588.2871302 -131.60682173 572.91237808 -122.0625 557.25 C-121.68448242 556.63495605 -121.30646484 556.01991211 -120.91699219 555.38623047 C-118.74645952 551.75579158 -117.1837031 548.24679598 -116 544.1875 C-115.34 544.1875 -114.68 544.1875 -114 544.1875 C-113.98582031 545.05246094 -113.97164063 545.91742187 -113.95703125 546.80859375 C-112.9908278 572.32158763 -106.18731104 598.2573136 -95 621.1875 C-94.52409424 622.16807373 -94.52409424 622.16807373 -94.03857422 623.16845703 C-89.88463563 631.61086635 -85.17979989 639.04759991 -79 646.1875 C-78.2575 647.198125 -77.515 648.20875 -76.75 649.25 C-64.63413423 663.43831649 -44.50338171 671.36673845 -27 676.1875 C-25.77667969 676.5278125 -24.55335938 676.868125 -23.29296875 677.21875 C-4.67341293 681.50184271 16.47831514 680.7496569 35 676.1875 C36.13332764 675.91341309 36.13332764 675.91341309 37.28955078 675.63378906 C64.30896511 668.85528306 92.53943268 655.70352426 115 639.1875 C115.5873291 638.76033691 116.1746582 638.33317383 116.77978516 637.89306641 C127.13733811 630.34336287 137.14622132 622.3808423 147 614.1875 C147.58990723 613.69813965 148.17981445 613.2087793 148.78759766 612.70458984 C166.19455218 598.202884 183.3831338 582.53284789 198 565.1875 C198.33 564.8575 198.66 564.5275 199 564.1875 C199.09370624 562.40758076 199.11744271 560.62393261 199.11352539 558.84155273 C199.11344986 557.7004454 199.11337433 556.55933807 199.11329651 555.38365173 C199.10813522 554.1420076 199.10297394 552.90036346 199.09765625 551.62109375 C199.0962413 550.35733414 199.09482635 549.09357452 199.09336853 547.79151917 C199.08870582 544.42625111 199.0797148 541.0610501 199.06866455 537.69580078 C199.05844846 534.2640033 199.05387049 530.83219891 199.04882812 527.40039062 C199.0377738 520.66274176 199.0210171 513.92512475 199 507.1875 C197.71955128 508.13964967 196.440227 509.09331161 195.16137695 510.04760742 C194.44883255 510.57851486 193.73628815 511.1094223 193.00215149 511.65641785 C190.60999104 513.48574704 188.39229603 515.44965553 186.1875 517.5 C181.9330545 521.38000265 177.56842971 525.0694558 173.08984375 528.6875 C170.84039335 530.50753572 168.60526208 532.33968882 166.37890625 534.1875 C139.19297797 556.66448602 107.38758324 581.43414507 70 578.1875 C58.39894437 575.89647392 47.6707128 567.83464633 41 558.1875 C28.49930499 538.05332737 30.25067699 509.15229999 31.75 486.5625 C31.811875 485.45132812 31.87375 484.34015625 31.9375 483.1953125 C33.39412247 461.15175919 37.97345108 439.4724206 42.6875 417.9375 C43.22115626 415.47756674 43.75468311 413.01760541 44.28808594 410.55761719 C59.77220878 339.4054309 59.77220878 339.4054309 72.328125 305.5 C75.4557916 297.02378106 78.38411496 288.4793157 81.33718872 279.94107056 C100.48811693 224.64552932 121.51747622 169.80600097 153 120.1875 C153.97646484 118.64642578 153.97646484 118.64642578 154.97265625 117.07421875 C164.98502718 101.70491051 175.99270304 86.19479696 189 73.1875 C189.17532289 70.31861419 189.23137614 67.54757355 189.1953125 64.6796875 C189.1924826 63.83906769 189.18965271 62.99844788 189.18673706 62.13235474 C189.1755243 59.44225954 189.15041803 56.7524949 189.125 54.0625 C189.1149716 52.24089022 189.10584551 50.41927523 189.09765625 48.59765625 C189.07558142 44.12747642 189.04104434 39.65754429 189 35.1875 C152.13556209 16.09525643 103.88189788 11.76261546 63 8.1875 C61.8445166 8.08308594 60.6890332 7.97867188 59.49853516 7.87109375 C21.12701499 4.55678451 -18.68001223 4.14340608 -57 8.1875 Z " fill="#000000" transform="translate(484,44.8125)"/>
<path d="M0 0 C-3.45472695 3.51136182 -7.01426879 6.83919905 -10.6875 10.125 C-21.89327308 20.33458966 -30.986326 31.87042209 -40 44 C-40.50869629 44.67853027 -41.01739258 45.35706055 -41.54150391 46.05615234 C-58.91187352 69.28220786 -74.26930017 94.03808659 -89 119 C-89.76328613 120.29236572 -89.76328613 120.29236572 -90.54199219 121.61083984 C-132.07296213 192.5291358 -152.45518187 279.34056382 -162.73828125 360.02734375 C-162.84914566 360.88913742 -162.96001007 361.75093109 -163.07423401 362.63883972 C-163.57810022 366.57649769 -164.06211083 370.51352619 -164.48779297 374.46044922 C-164.56644089 375.14571182 -164.64508881 375.83097443 -164.72612 376.53700256 C-164.93216197 378.33909827 -165.12430359 380.14276872 -165.31518555 381.9465332 C-166.5648481 387.51855799 -170.10184835 391.01752893 -174 395 C-175.69041194 396.87237516 -177.37784392 398.74744437 -179.0625 400.625 C-180.22458984 401.88183594 -180.22458984 401.88183594 -181.41015625 403.1640625 C-183.36086813 405.30013614 -185.25399367 407.45806253 -187.13671875 409.65234375 C-191.3361912 414.46469992 -195.8077181 418.99379457 -200.32324219 423.50854492 C-201.73919947 424.92668284 -203.14698289 426.35296665 -204.5546875 427.77929688 C-209.95173003 433.18761456 -215.49337442 438.21959199 -221.47045898 442.98071289 C-224.1296078 445.10346358 -226.72168682 447.29461789 -229.3125 449.5 C-245.66508481 462.83293137 -265.23308686 474.85528311 -287 473 C-303.12250968 470.69678433 -316.34772032 461.58000288 -326.1875 448.875 C-357.1365981 404.01128723 -347.64301234 343.68249512 -338.47906494 293.54577637 C-328.23706099 239.11922713 -309.52369854 189.27429266 -286.7890625 138.96826172 C-285.25889865 135.58138203 -283.75328393 132.18405843 -282.25 128.78515625 C-270.25221184 102.11348439 -251.37820503 78.1247281 -231.5625 56.78125 C-229.4534211 54.49212778 -227.40021288 52.17524836 -225.375 49.8125 C-219.13608821 42.63551794 -212.27852714 36.10793599 -205 30 C-204.47083984 29.54641113 -203.94167969 29.09282227 -203.39648438 28.62548828 C-175.22566272 4.54174485 -143.84314621 -10.10754969 -107 -15 C-105.90042969 -15.15082031 -104.80085937 -15.30164063 -103.66796875 -15.45703125 C-68.92462065 -19.1848583 -32.17151685 -13.24709517 0 0 Z M-228 61 C-230.40406079 63.69105075 -232.65624774 66.48820466 -234.8828125 69.328125 C-236.79529731 71.74166672 -238.78842489 74.05876907 -240.82104492 76.37109375 C-248.65891581 85.35586767 -255.36237974 95.11126039 -262 105 C-262.47937012 105.70125 -262.95874023 106.4025 -263.45263672 107.125 C-273.3195445 121.67842249 -280.05083114 137.87819033 -287.0847168 153.91949463 C-288.23565563 156.53566242 -289.40042481 159.14553212 -290.56565857 161.75535583 C-301.73098908 186.79531069 -312.7349375 212.52241673 -320 239 C-320.25910156 239.93650391 -320.51820313 240.87300781 -320.78515625 241.83789062 C-337.22106605 302.19208035 -356.32022791 379.26887844 -326 438 C-317.85828393 452.01179284 -306.46493491 461.6775041 -290.9375 466.4375 C-271.23221759 469.25254034 -254.48944231 460.94355994 -238.96777344 449.41210938 C-236.26307566 447.33259312 -233.62355914 445.18059993 -231 443 C-230.17749756 442.32179199 -230.17749756 442.32179199 -229.33837891 441.62988281 C-214.80553863 429.58970323 -201.20043642 416.63974991 -188.51611328 402.66894531 C-187.13155515 401.14481659 -185.73624744 399.63047079 -184.33984375 398.1171875 C-174.06969032 387.00868935 -174.06969032 387.00868935 -170.01953125 372.91796875 C-169.82692952 371.20257899 -169.63378994 369.48724955 -169.44018555 367.77197266 C-169.28759781 366.40821503 -169.28759781 366.40821503 -169.13192749 365.01690674 C-164.49359177 323.93171919 -158.14056806 282.94178339 -145.16748047 243.5703125 C-144.08952436 240.27377756 -143.03795885 236.97040983 -141.99595642 233.66241455 C-121.77825753 169.48902601 -94.99935807 111.16259013 -56 56 C-55.49645996 55.28392578 -54.99291992 54.56785156 -54.47412109 53.83007812 C-41.6698088 35.66536317 -27.90255169 18.56419953 -12 3 C-15.10316645 -0.10316645 -18.96670458 -0.69212414 -23.125 -1.875 C-24.04917725 -2.13821045 -24.97335449 -2.4014209 -25.92553711 -2.67260742 C-106.0596333 -24.61257177 -172.85850611 2.65189169 -228 61 Z " fill="#000000" transform="translate(540,141)"/>
<path d="M0 0 C3.56808976 0.02095947 7.13621133 0.02969742 10.7043457 0.03967285 C17.62759595 0.06072474 24.55072743 0.09456548 31.47387695 0.1373291 C31.80387695 1.1273291 32.13387695 2.1173291 32.47387695 3.1373291 C31.53519775 3.13209229 30.59651855 3.12685547 29.62939453 3.12145996 C-38.60471544 2.77694543 -104.77526346 9.17635311 -170.52612305 28.1373291 C-171.61038574 28.44605957 -172.69464844 28.75479004 -173.81176758 29.07287598 C-206.74446946 38.52647512 -238.99342321 51.21377675 -269.39379883 67.03430176 C-271.87621192 68.31842614 -274.37116523 69.57666649 -276.8659668 70.83654785 C-290.19159253 77.61706234 -302.96373484 85.03319289 -315.52612305 93.1373291 C-316.13520508 93.52904297 -316.74428711 93.92075684 -317.37182617 94.32434082 C-335.00276533 105.71930716 -351.64050992 118.43334018 -367.52612305 132.1373291 C-368.26604492 132.77541504 -369.0059668 133.41350098 -369.76831055 134.07092285 C-371.69778579 135.74855896 -373.61269422 137.44141742 -375.52612305 139.1373291 C-376.24687012 139.77323975 -376.96761719 140.40915039 -377.71020508 141.06433105 C-384.08881999 146.74138969 -390.18960196 152.64952138 -396.21362305 158.6998291 C-397.11145508 159.59379395 -398.00928711 160.48775879 -398.93432617 161.40881348 C-404.00779168 166.48971264 -408.872941 171.67023658 -413.52612305 177.1373291 C-414.37174805 178.10154785 -415.21737305 179.0657666 -416.08862305 180.0592041 C-475.43863756 248.92043889 -517.92725733 343.83118756 -525.2097168 519.75061035 C-522.52731342 554.7552616 -517.1446342 589.60277581 -506.52612305 623.1373291 C-506.22625488 624.09316895 -505.92638672 625.04900879 -505.61743164 626.03381348 C-491.44791111 670.54304242 -466.64802388 714.89023684 -424.08081055 737.55529785 C-403.51643283 748.02609106 -382.01562556 752.56964952 -359.02612305 752.4498291 C-358.27945374 752.44767395 -357.53278442 752.4455188 -356.76348877 752.44329834 C-299.25921052 752.17787746 -244.93204435 726.09678908 -196.52612305 697.1373291 C-194.94553174 696.19699317 -193.36481379 695.25687006 -191.78393555 694.3170166 C-185.08570018 690.33824094 -185.08570018 690.33824094 -178.52612305 686.1373291 C-179.84612305 685.4773291 -181.16612305 684.8173291 -182.52612305 684.1373291 C-182.52612305 683.1473291 -182.52612305 682.1573291 -182.52612305 681.1373291 C-178.89612305 681.7973291 -175.26612305 682.4573291 -171.52612305 683.1373291 C-171.85612305 686.7673291 -172.18612305 690.3973291 -172.52612305 694.1373291 C-173.51612305 694.4673291 -174.50612305 694.7973291 -175.52612305 695.1373291 C-175.52612305 693.1573291 -175.52612305 691.1773291 -175.52612305 689.1373291 C-176.02200928 689.43800293 -176.51789551 689.73867676 -177.02880859 690.04846191 C-239.34185757 727.77419755 -317.65423459 771.78242276 -393.52612305 753.1373291 C-416.06472246 747.48010347 -436.49403424 736.95572987 -453.52612305 721.1373291 C-454.09717773 720.61010254 -454.66823242 720.08287598 -455.2565918 719.53967285 C-515.33702836 663.43807314 -527.63136845 570.08757004 -530.45581055 492.32714844 C-530.92605253 477.68188646 -530.68402907 463.02753971 -530.15112305 448.3873291 C-530.12042725 447.49618408 -530.08973145 446.60503906 -530.05810547 445.68688965 C-529.42264541 431.35812042 -527.22975349 417.25208918 -524.46362305 403.1998291 C-524.23878235 402.05071548 -524.23878235 402.05071548 -524.00939941 400.87838745 C-512.75331607 343.78359796 -492.74872827 288.0041235 -462.52612305 238.1373291 C-462.03934082 237.33150391 -461.55255859 236.52567871 -461.05102539 235.69543457 C-445.29179835 209.77968428 -426.59940795 185.88408 -405.96166992 163.69055176 C-404.4462589 162.05091826 -402.94606578 160.39828487 -401.44799805 158.74279785 C-396.61883933 153.42330776 -391.83016226 148.28599304 -386.30737305 143.6685791 C-384.50177566 142.11639889 -382.86531815 140.47635232 -381.21362305 138.7623291 C-377.5601784 135.05115508 -373.57466259 131.83029515 -369.51831055 128.57092285 C-366.99918696 126.52207951 -364.5350708 124.42515583 -362.08374023 122.29626465 C-348.78028978 110.79649517 -334.33500316 100.60001781 -319.52612305 91.1373291 C-318.75606934 90.64410156 -317.98601562 90.15087402 -317.19262695 89.6427002 C-303.95259512 81.20448348 -290.42928621 73.42818829 -276.52612305 66.1373291 C-275.13731934 65.40498047 -275.13731934 65.40498047 -273.72045898 64.65783691 C-247.98011403 51.16971833 -221.06389445 40.36063631 -193.52612305 31.1373291 C-191.82335205 30.56571045 -191.82335205 30.56571045 -190.08618164 29.98254395 C-152.88443033 17.64155309 -114.48889297 9.44652374 -75.65112305 4.3873291 C-74.88270081 4.28609741 -74.11427856 4.18486572 -73.3225708 4.08056641 C-48.88622794 0.90009431 -24.61276148 -0.16068795 0 0 Z " fill="#000000" transform="translate(530.526123046875,-0.1373291015625)"/>
<path d="M0 0 C0.99 0 1.98 0 3 0 C0.84409233 7.02721462 -1.9773934 13.5719122 -5.06491089 20.2371521 C-14.83916931 41.3837754 -23.82682171 62.8739206 -32.87615967 84.33752441 C-33.88371808 86.72451802 -34.89421573 89.11022604 -35.90673828 91.49511719 C-55.30169434 137.18763055 -73.99937373 183.36092337 -91 230 C-91.45028564 231.23317963 -91.45028564 231.23317963 -91.90966797 232.49127197 C-124.91630563 311.35080859 -124.91630563 311.35080859 -118 393 C-115.175608 398.24759195 -111.8016144 402.01696086 -106.25390625 404.375 C-95.31675094 407.40783336 -84.88146484 403.18018873 -75.25 398.125 C-66.82613855 393.28907954 -59.66171788 387.07805963 -52.296875 380.796875 C-49.37278967 378.3074969 -46.41434139 375.86371177 -43.4375 373.4375 C-37.39767851 368.51045187 -37.39767851 368.51045187 -31.375 363.5625 C-30.37210938 362.73878906 -29.36921875 361.91507813 -28.3359375 361.06640625 C-25.95332381 359.21798998 -25.95332381 359.21798998 -25 357 C-26.65 357 -28.3 357 -30 357 C-30 356.01 -30 355.02 -30 354 C-26.37 354.33 -22.74 354.66 -19 355 C-19 358.63 -19 362.26 -19 366 C-19.99 366.33 -20.98 366.66 -22 367 C-22 365.02 -22 363.04 -22 361 C-28.07869141 365.91257509 -34.07981744 370.89835835 -40 376 C-45.92238353 381.09776828 -51.90034178 386.11439895 -58 391 C-58.64839844 391.52980469 -59.29679688 392.05960938 -59.96484375 392.60546875 C-71.65403224 401.82337003 -86.13023152 410.08696598 -101.4375 409.375 C-108.78247736 408.30012526 -113.86597522 405.09415035 -118.44140625 399.29296875 C-129.78476902 382.60486362 -132.01703148 357.51215722 -128.6550293 337.94042969 C-111.29833493 247.57597913 -68.84092518 159.20079635 -33 75 C-32.69122925 74.2741571 -32.3824585 73.54831421 -32.06433105 72.80047607 C-24.70885076 55.51331605 -17.26886868 38.26270566 -9.77999878 21.03292847 C-9.01328036 19.26852599 -8.24726261 17.50381887 -7.48196411 15.73880005 C-6.42008634 13.29094999 -5.35506452 10.84449379 -4.2890625 8.3984375 C-3.97002457 7.66172318 -3.65098663 6.92500885 -3.32228088 6.16596985 C-1.1145562 1.1145562 -1.1145562 1.1145562 0 0 Z " fill="#000000" transform="translate(679,170)"/>
<path d="M0 0 C2.875 -0.125 2.875 -0.125 6 0 C6.66 0.66 7.32 1.32 8 2 C7.83754442 5.73647845 7.41216356 7.52538742 4.9375 10.375 C4.298125 10.91125 3.65875 11.4475 3 12 C4.65 12.33 6.3 12.66 8 13 C8 13.66 8 14.32 8 15 C4.7 15 1.4 15 -2 15 C0 11 0 11 2.125 8.4375 C4.30485538 6.11622611 4.30485538 6.11622611 4 3 C3.34 3 2.68 3 2 3 C1.67 3.66 1.34 4.32 1 5 C0.01 5 -0.98 5 -2 5 C-1.34 3.35 -0.68 1.7 0 0 Z " fill="#000000" transform="translate(610,358)"/>
<path d="M0 0 C0 4.95 0 9.9 0 15 C-0.99 15 -1.98 15 -3 15 C-3 11.37 -3 7.74 -3 4 C-3.99 4.33 -4.98 4.66 -6 5 C-5.625 3.0625 -5.625 3.0625 -5 1 C-3 0 -3 0 0 0 Z " fill="#000000" transform="translate(17,322)"/>
<path d="M0 0 C0.99 0 1.98 0 3 0 C2.67 3.63 2.34 7.26 2 11 C1.01 11 0.02 11 -1 11 C-1 10.34 -1 9.68 -1 9 C-1.99 9 -2.98 9 -4 9 C-4 6 -4 6 -2.5625 4.5 C-2.046875 4.005 -1.53125 3.51 -1 3 C-0.67 2.01 -0.34 1.02 0 0 Z " fill="#000000" transform="translate(457,491)"/>
<path d="M0 0 C0.99 0.33 1.98 0.66 3 1 C1.55746343 4.36591866 -0.33264727 6.51047079 -3 9 C-3.99 8.67 -4.98 8.34 -6 8 C-4.55746343 4.63408134 -2.66735273 2.48952921 0 0 Z " fill="#000000" transform="translate(238,174)"/>
<path d="M0 0 C-0.21484375 1.890625 -0.21484375 1.890625 -1 4 C-3.06640625 5.046875 -3.06640625 5.046875 -5.5625 5.75 C-6.80193359 6.11351562 -6.80193359 6.11351562 -8.06640625 6.484375 C-9.02353516 6.73960937 -9.02353516 6.73960937 -10 7 C-10 5.68 -10 4.36 -10 3 C-8.70990357 2.49596232 -7.41786211 1.99690074 -6.125 1.5 C-5.04605469 1.08234375 -5.04605469 1.08234375 -3.9453125 0.65625 C-2 0 -2 0 0 0 Z " fill="#000000" transform="translate(542,672)"/>
<path d="M0 0 C1.75 0.125 1.75 0.125 4 1 C6.3125 3.875 6.3125 3.875 8 7 C7.67 7.99 7.34 8.98 7 10 C2.57320993 8.52440331 2.08567304 6.09942632 0 2 C0 1.34 0 0.68 0 0 Z " fill="#000000" transform="translate(120,645)"/>
<path d="M0 0 C0.66 0.99 1.32 1.98 2 3 C0.73760288 3.86658615 -0.53527501 4.71792059 -1.8125 5.5625 C-2.87404297 6.27599609 -2.87404297 6.27599609 -3.95703125 7.00390625 C-6 8 -6 8 -9 7 C-6.19195732 4.03595495 -3.81684226 1.55500981 0 0 Z " fill="#000000" transform="translate(613,633)"/>
<path d="M0 0 C-3.12621626 3.39417765 -5.56541027 5.6062718 -10 7 C-10.33 6.01 -10.66 5.02 -11 4 C-9.73760288 3.13341385 -8.46472499 2.28207941 -7.1875 1.4375 C-6.47980469 0.96183594 -5.77210938 0.48617187 -5.04296875 -0.00390625 C-3 -1 -3 -1 0 0 Z " fill="#000000" transform="translate(632,623)"/>
<path d="M0 0 C0.99 0 1.98 0 3 0 C3 3.63 3 7.26 3 11 C2.01 11.33 1.02 11.66 0 12 C0 8.04 0 4.08 0 0 Z " fill="#000000" transform="translate(453,596)"/>
<path d="M0 0 C0.99 0.33 1.98 0.66 3 1 C1.65396518 5.03810445 -0.65336723 6.47295076 -4 9 C-4.66 9 -5.32 9 -6 9 C-6.33 8.01 -6.66 7.02 -7 6 C-5.90716423 4.96704564 -4.80029421 3.94892165 -3.6875 2.9375 C-3.07261719 2.36902344 -2.45773437 1.80054688 -1.82421875 1.21484375 C-0.92123047 0.61349609 -0.92123047 0.61349609 0 0 Z " fill="#000000" transform="translate(354,581)"/>
<path d="M0 0 C0 0.99 0 1.98 0 3 C-3.87684087 4.19287411 -6.91621923 5 -11 5 C-11 4.01 -11 3.02 -11 2 C-7.12315913 0.80712589 -4.08378077 0 0 0 Z " fill="#000000" transform="translate(395,89)"/>
<path d="M0 0 C0 0.66 0 1.32 0 2 C-3.63 2.66 -7.26 3.32 -11 4 C-11.33 3.01 -11.66 2.02 -12 1 C-7.58774263 -0.47075246 -4.51718381 -1.36884358 0 0 Z " fill="#000000" transform="translate(523,680)"/>
<path d="M0 0 C0.66 0.33 1.32 0.66 2 1 C1.67 1.99 1.34 2.98 1 4 C-1.06640625 4.94921875 -1.06640625 4.94921875 -3.5625 5.6875 C-4.38878906 5.93886719 -5.21507812 6.19023438 -6.06640625 6.44921875 C-6.70449219 6.63097656 -7.34257813 6.81273437 -8 7 C-8.33 6.01 -8.66 5.02 -9 4 C-7.54618103 3.30300448 -6.08677047 2.61766134 -4.625 1.9375 C-3.40683594 1.36322266 -3.40683594 1.36322266 -2.1640625 0.77734375 C-1.44992187 0.52082031 -0.73578125 0.26429688 0 0 Z " fill="#000000" transform="translate(559,664)"/>
<path d="M0 0 C3.36591427 2.72478774 4.44226276 6.06856792 6 10 C4.68 10 3.36 10 2 10 C-1.07692308 4.58461538 -1.07692308 4.58461538 -0.6875 1.625 C-0.460625 1.08875 -0.23375 0.5525 0 0 Z " fill="#000000" transform="translate(461,658)"/>
<path d="M0 0 C-3.12621626 3.39417765 -5.56541027 5.6062718 -10 7 C-10.33 6.01 -10.66 5.02 -11 4 C-9.73760288 3.13341385 -8.46472499 2.28207941 -7.1875 1.4375 C-6.47980469 0.96183594 -5.77210938 0.48617187 -5.04296875 -0.00390625 C-3 -1 -3 -1 0 0 Z " fill="#000000" transform="translate(266,657)"/>
<path d="M0 0 C0.515625 0.2475 1.03125 0.495 1.5625 0.75 C-0.80800084 3.37002725 -3.31026017 5.10819909 -6.4375 6.75 C-7.4275 6.75 -8.4175 6.75 -9.4375 6.75 C-9.4375 5.76 -9.4375 4.77 -9.4375 3.75 C-3.0375 -0.31153846 -3.0375 -0.31153846 0 0 Z " fill="#000000" transform="translate(578.4375,655.25)"/>
<path d="M0 0 C0.66 0.33 1.32 0.66 2 1 C0.54875366 4.82601307 -1.35774704 6.22329124 -5 8 C-5.99 8 -6.98 8 -8 8 C-8 7.01 -8 6.02 -8 5 C-6.3203125 3.578125 -6.3203125 3.578125 -4.125 2.25 C-3.40570312 1.80140625 -2.68640625 1.3528125 -1.9453125 0.890625 C-1.30335938 0.59671875 -0.66140625 0.3028125 0 0 Z " fill="#000000" transform="translate(595,644)"/>
<path d="M0 0 C0.66 0 1.32 0 2 0 C2.36402369 1.43503555 2.71586591 2.87316506 3.0625 4.3125 C3.25972656 5.11300781 3.45695312 5.91351562 3.66015625 6.73828125 C4 9 4 9 3 12 C2.34 12 1.68 12 1 12 C0.63896464 10.18885568 0.28634496 8.37603177 -0.0625 6.5625 C-0.25972656 5.55316406 -0.45695312 4.54382813 -0.66015625 3.50390625 C-0.77230469 2.67761719 -0.88445312 1.85132813 -1 1 C-0.67 0.67 -0.34 0.34 0 0 Z " fill="#000000" transform="translate(456,638)"/>
<path d="M0 0 C0.66 0 1.32 0 2 0 C3.26237731 2.52475462 3.09856404 4.31200466 3.0625 7.125 C3.05347656 8.03507813 3.04445313 8.94515625 3.03515625 9.8828125 C3.02355469 10.58148437 3.01195312 11.28015625 3 12 C2.01 12 1.02 12 0 12 C0 8.04 0 4.08 0 0 Z " fill="#000000" transform="translate(454,617)"/>
<path d="M0 0 C0 0.99 0 1.98 0 3 C-1.42578125 4.421875 -1.42578125 4.421875 -3.3125 5.75 C-3.92738281 6.19859375 -4.54226563 6.6471875 -5.17578125 7.109375 C-7 8 -7 8 -10 7 C-10 6.34 -10 5.68 -10 5 C-8.57421875 3.7109375 -8.57421875 3.7109375 -6.6875 2.375 C-6.07261719 1.92898438 -5.45773437 1.48296875 -4.82421875 1.0234375 C-3 0 -3 0 0 0 Z " fill="#000000" transform="translate(648,610)"/>
<path d="M0 0 C0.66 0.33 1.32 0.66 2 1 C0.51218185 4.78717347 -1.61988409 6.77407001 -5 9 C-5.99 8.67 -6.98 8.34 -8 8 C-3.375 2.25 -3.375 2.25 0 0 Z " fill="#000000" transform="translate(370,568)"/>
<path d="M0 0 C0.99 0.33 1.98 0.66 3 1 C1.35 4.3 -0.3 7.6 -2 11 C-2.66 10.67 -3.32 10.34 -4 10 C-3.43454163 6.04179141 -2.19097652 3.3340947 0 0 Z " fill="#000000" transform="translate(157,285)"/>
<path d="M0 0 C2.16874252 0.50603992 3.99967627 0.99983813 6 2 C5.75 3.875 5.75 3.875 5 6 C2.9375 7.25 2.9375 7.25 1 8 C0.40267181 5.23735711 0 2.83967231 0 0 Z " fill="#000000" transform="translate(614,120)"/>
<path d="M0 0 C4.43090471 1.20842856 6.98112756 2.51668565 10 6 C7 7 7 7 4.95703125 6.22265625 C4.24933594 5.83980469 3.54164063 5.45695312 2.8125 5.0625 C2.09707031 4.68222656 1.38164063 4.30195312 0.64453125 3.91015625 C0.10183594 3.60980469 -0.44085937 3.30945313 -1 3 C-0.67 2.01 -0.34 1.02 0 0 Z " fill="#000000" transform="translate(597,110)"/>
<path d="M0 0 C0 0.99 0 1.98 0 3 C-3.63 3.66 -7.26 4.32 -11 5 C-11 4.01 -11 3.02 -11 2 C-7.12315913 0.80712589 -4.08378077 0 0 0 Z " fill="#000000" transform="translate(213,682)"/>
<path d="M0 0 C3.63 0 7.26 0 11 0 C11 0.99 11 1.98 11 3 C7.37 3 3.74 3 0 3 C0 2.01 0 1.02 0 0 Z " fill="#000000" transform="translate(491,682)"/>
<path d="M0 0 C0.66 0.33 1.32 0.66 2 1 C2 1.66 2 2.32 2 3 C-4.4 7.06153846 -4.4 7.06153846 -7.4375 6.75 C-7.953125 6.5025 -8.46875 6.255 -9 6 C-6.45368965 3.02930459 -3.57769851 1.5224249 0 0 Z " fill="#000000" transform="translate(247,666)"/>
<path d="M0 0 C-0.0625 1.75 -0.0625 1.75 -1 4 C-3.24164322 5.59501537 -5.53566643 6.74543018 -8 8 C-8 6.68 -8 5.36 -8 4 C-3.88888889 0 -3.88888889 0 0 0 Z " fill="#000000" transform="translate(281,645)"/>
<path d="M0 0 C0.99 0 1.98 0 3 0 C6.07692308 6.4 6.07692308 6.4 5.6875 9.4375 C5.460625 9.953125 5.23375 10.46875 5 11 C2.27042661 8.64264116 1.11106604 6.41866474 0 3 C0 2.01 0 1.02 0 0 Z " fill="#000000" transform="translate(112,627)"/>
<path d="M0 0 C0.99 0.33 1.98 0.66 3 1 C-1.43076923 6.78461538 -1.43076923 6.78461538 -4.3125 7.875 C-5.1478125 7.936875 -5.1478125 7.936875 -6 8 C-6 7.01 -6 6.02 -6 5 C-3.1875 2.25 -3.1875 2.25 0 0 Z " fill="#000000" transform="translate(324,607)"/>
<path d="M0 0 C0.99 0 1.98 0 3 0 C3 3.63 3 7.26 3 11 C2.01 11 1.02 11 0 11 C0 7.37 0 3.74 0 0 Z " fill="#000000" transform="translate(453,575)"/>
<path d="M0 0 C-1.49041773 3.79379058 -3.69062512 5.68343758 -7 8 C-7.66 8 -8.32 8 -9 8 C-8.66410006 4.86493389 -7.97334828 3.974751 -5.625 1.75 C-3 0 -3 0 0 0 Z " fill="#000000" transform="translate(387,556)"/>
<path d="M0 0 C0.99 0 1.98 0 3 0 C3.33 3.63 3.66 7.26 4 11 C3.01 11 2.02 11 1 11 C-0.17571451 7.32589215 -0.07366746 3.83070817 0 0 Z " fill="#000000" transform="translate(95,551)"/>
<path d="M0 0 C0.99 0.33 1.98 0.66 3 1 C1.49776416 5.20626034 -1.28550034 6.73900021 -5 9 C-5 5 -5 5 -2.5 2.25 C-1.675 1.5075 -0.85 0.765 0 0 Z " fill="#000000" transform="translate(414,530)"/>
<path d="M0 0 C0.99 0 1.98 0 3 0 C3 3.63 3 7.26 3 11 C2.01 11 1.02 11 0 11 C0 7.37 0 3.74 0 0 Z " fill="#000000" transform="translate(93,492)"/>
<path d="M0 0 C0.99 0 1.98 0 3 0 C2.34 3.63 1.68 7.26 1 11 C0.01 11 -0.98 11 -2 11 C-1.34 7.37 -0.68 3.74 0 0 Z " fill="#000000" transform="translate(475,414)"/>
<path d="M0 0 C0.99 0 1.98 0 3 0 C2 7.42857143 2 7.42857143 1 11 C0.01 10.67 -0.98 10.34 -2 10 C-1.34 6.7 -0.68 3.4 0 0 Z " fill="#000000" transform="translate(489,357)"/>
<path d="M0 0 C0.99 0.33 1.98 0.66 3 1 C2.01 4.3 1.02 7.6 0 11 C-0.99 10.67 -1.98 10.34 -3 10 C-2.01 6.7 -1.02 3.4 0 0 Z " fill="#000000" transform="translate(132,339)"/>
<path d="M0 0 C0.99 0.33 1.98 0.66 3 1 C1.68 4.3 0.36 7.6 -1 11 C-1.99 10.67 -2.98 10.34 -4 10 C-3.52449439 8.51965236 -3.04448784 7.04074979 -2.5625 5.5625 C-2.29566406 4.73878906 -2.02882812 3.91507812 -1.75390625 3.06640625 C-1 1 -1 1 0 0 Z " fill="#000000" transform="translate(140,321)"/>
<path d="M0 0 C0.99 0 1.98 0 3 0 C2.29445932 3.66881155 0.72264494 6.70450534 -1 10 C-1.99 10 -2.98 10 -4 10 C-3.43768609 6.06380262 -2.38314183 3.20807554 0 0 Z " fill="#000000" transform="translate(166,268)"/>
<path d="M0 0 C0.99 0.33 1.98 0.66 3 1 C1.4722133 4.43752007 -0.50181056 7.18953688 -3 10 C-3.66 10 -4.32 10 -5 10 C-4.38545304 6.00544473 -2.29353263 3.25533664 0 0 Z " fill="#000000" transform="translate(199,218)"/>
<path d="M0 0 C0.99 0 1.98 0 3 0 C2.42636089 3.87206399 0.65894107 6.18465063 -2 9 C-2.99 9 -3.98 9 -5 9 C-4.42636089 5.12793601 -2.65894107 2.81534937 0 0 Z " fill="#000000" transform="translate(211,203)"/>
<path d="M0 0 C0.556875 0.268125 1.11375 0.53625 1.6875 0.8125 C-1.12054268 3.77654505 -3.49565774 6.25749019 -7.3125 7.8125 C-7.3125 4.8125 -7.3125 4.8125 -5.0625 2.0625 C-2.3125 -0.1875 -2.3125 -0.1875 0 0 Z " fill="#000000" transform="translate(254.3125,161.1875)"/>
<path d="M0 0 C0.99 0 1.98 0 3 0 C1.47291037 3.43595166 -0.59927045 6.11912454 -3 9 C-3.99 8.67 -4.98 8.34 -6 8 C-2.25 2.25 -2.25 2.25 0 0 Z " fill="#000000" transform="translate(593,148)"/>
<path d="M0 0 C0.99 0.33 1.98 0.66 3 1 C1.65117186 5.04648443 -0.34826069 5.95502599 -4 8 C-4.99 7.67 -5.98 7.34 -7 7 C-4.66666667 4.66666667 -2.33333333 2.33333333 0 0 Z " fill="#000000" transform="translate(268,148)"/>
<path d="M0 0 C0.66 0.33 1.32 0.66 2 1 C0.54875366 4.82601307 -1.35774704 6.22329124 -5 8 C-5.99 8 -6.98 8 -8 8 C-6.49776416 3.79373966 -3.71449966 2.26099979 0 0 Z " fill="#000000" transform="translate(285,136)"/>
<path d="M0 0 C-0.33 1.32 -0.66 2.64 -1 4 C-3.97 4.66 -6.94 5.32 -10 6 C-10 5.01 -10 4.02 -10 3 C-8.70990357 2.49596232 -7.41786211 1.99690074 -6.125 1.5 C-5.04605469 1.08234375 -5.04605469 1.08234375 -3.9453125 0.65625 C-2 0 -2 0 0 0 Z " fill="#000000" transform="translate(357,100)"/>
<path d="M0 0 C7.42857143 -0.14285714 7.42857143 -0.14285714 11 1 C11 1.99 11 2.98 11 4 C7.37 3.67 3.74 3.34 0 3 C0 2.01 0 1.02 0 0 Z " fill="#000000" transform="translate(502,83)"/>
<path d="M0 0 C2.97 1.65 5.94 3.3 9 5 C9 5.99 9 6.98 9 8 C5.08788267 6.84414715 2.1254959 5.64465038 -1 3 C-0.67 2.01 -0.34 1.02 0 0 Z " fill="#000000" transform="translate(473,674)"/>
<path d="M0 0 C3.59391114 1.33488128 6.75490696 2.96022723 10 5 C9.67 5.66 9.34 6.32 9 7 C5.2241456 6.47557578 2.77627845 5.67345333 0 3 C0 2.01 0 1.02 0 0 Z " fill="#000000" transform="translate(146,674)"/>
<path d="M0 0 C0.99 0.33 1.98 0.66 3 1 C0.34345343 4.73884332 -1.58110387 6.64978174 -6 8 C-6 7.01 -6 6.02 -6 5 C-3.1875 2.25 -3.1875 2.25 0 0 Z " fill="#000000" transform="translate(294,633)"/>
<path d="M0 0 C0.99 0.33 1.98 0.66 3 1 C1.02 3.31 -0.96 5.62 -3 8 C-4.32 7.67 -5.64 7.34 -7 7 C-4.66666667 4.66666667 -2.33333333 2.33333333 0 0 Z " fill="#000000" transform="translate(339,594)"/>
<path d="M0 0 C0.66 0 1.32 0 2 0 C2.66 3.63 3.32 7.26 4 11 C3.01 11 2.02 11 1 11 C0.63890458 9.35567294 0.28629924 7.7094792 -0.0625 6.0625 C-0.25972656 5.14597656 -0.45695312 4.22945312 -0.66015625 3.28515625 C-0.77230469 2.53105469 -0.88445312 1.77695312 -1 1 C-0.67 0.67 -0.34 0.34 0 0 Z " fill="#000000" transform="translate(98,570)"/>
<path d="M0 0 C0.99 0.33 1.98 0.66 3 1 C3 1.66 3 2.32 3 3 C-2.35714286 8 -2.35714286 8 -6 8 C-5.66354211 4.85972637 -4.94763914 3.94901705 -2.625 1.6875 C-1.75875 1.130625 -0.8925 0.57375 0 0 Z " fill="#000000" transform="translate(399,543)"/>
<path d="M0 0 C0.66 0.33 1.32 0.66 2 1 C0.49776416 5.20626034 -2.28550034 6.73900021 -6 9 C-6 5 -6 5 -4.6875 3.515625 C-3.125 2.34375 -1.5625 1.171875 0 0 Z " fill="#000000" transform="translate(430,517)"/>
<path d="M0 0 C0.99 0 1.98 0 3 0 C3 3.3 3 6.6 3 10 C2.01 10.33 1.02 10.66 0 11 C0 7.37 0 3.74 0 0 Z " fill="#000000" transform="translate(93,512)"/>
<path d="M0 0 C0.99 0.33 1.98 0.66 3 1 C3.125 8.625 3.125 8.625 2 12 C1.34 12 0.68 12 0 12 C0 8.04 0 4.08 0 0 Z " fill="#000000" transform="translate(456,511)"/>
<path d="M0 0 C-1.49041773 3.79379058 -3.69062512 5.68343758 -7 8 C-7.66 8 -8.32 8 -9 8 C-8.66410006 4.86493389 -7.97334828 3.974751 -5.625 1.75 C-3 0 -3 0 0 0 Z " fill="#000000" transform="translate(447,505)"/>
<path d="M0 0 C0.99 0 1.98 0 3 0 C2.67 3.3 2.34 6.6 2 10 C1.01 10.33 0.02 10.66 -1 11 C-0.67 7.37 -0.34 3.74 0 0 Z " fill="#000000" transform="translate(98,453)"/>
<path d="M0 0 C0.99 0.33 1.98 0.66 3 1 C2.125 8.75 2.125 8.75 1 11 C0.01 11 -0.98 11 -2 11 C-1.34 7.37 -0.68 3.74 0 0 Z " fill="#000000" transform="translate(466,452)"/>
<path d="M0 0 C0.99 0.33 1.98 0.66 3 1 C2.34 4.3 1.68 7.6 1 11 C0.01 11 -0.98 11 -2 11 C-1.85892253 9.54119891 -1.71197585 8.08296449 -1.5625 6.625 C-1.48128906 5.81289063 -1.40007812 5.00078125 -1.31640625 4.1640625 C-1 2 -1 2 0 0 Z " fill="#000000" transform="translate(471,433)"/>
<path d="M0 0 C0.99 0.33 1.98 0.66 3 1 C2.34 3.97 1.68 6.94 1 10 C-0.32 10.33 -1.64 10.66 -3 11 C-2.01 7.37 -1.02 3.74 0 0 Z " fill="#000000" transform="translate(113,395)"/>
<path d="M0 0 C0.99 0 1.98 0 3 0 C2.125 7.625 2.125 7.625 1 11 C0.01 10.67 -0.98 10.34 -2 10 C-1.34 6.7 -0.68 3.4 0 0 Z " fill="#000000" transform="translate(484,376)"/>
<path d="M0 0 C0.99 0 1.98 0 3 0 C2.71758359 1.46015291 2.42373386 2.91809793 2.125 4.375 C1.96257812 5.18710937 1.80015625 5.99921875 1.6328125 6.8359375 C1 9 1 9 -1 11 C-1.66 10.67 -2.32 10.34 -3 10 C-2.01 6.7 -1.02 3.4 0 0 Z " fill="#000000" transform="translate(125,358)"/>
<path d="M0 0 C0.66 0 1.32 0 2 0 C1.125 7.625 1.125 7.625 0 11 C-0.99 10.67 -1.98 10.34 -3 10 C-2.69201674 8.51988629 -2.378482 7.04092675 -2.0625 5.5625 C-1.88847656 4.73878906 -1.71445312 3.91507812 -1.53515625 3.06640625 C-1 1 -1 1 0 0 Z " fill="#000000" transform="translate(495,338)"/>
<path d="M0 0 C0.99 0.33 1.98 0.66 3 1 C2.745504 2.48206495 2.47088238 3.96068615 2.1875 5.4375 C2.03667969 6.26121094 1.88585937 7.08492188 1.73046875 7.93359375 C1.48941406 8.61550781 1.24835938 9.29742187 1 10 C0.01 10.33 -0.98 10.66 -2 11 C-1.125 3.375 -1.125 3.375 0 0 Z " fill="#000000" transform="translate(500,319)"/>
<path d="M0 0 C0.99 0 1.98 0 3 0 C2.54177532 3.46941546 2.10868317 6.67395049 1 10 C0.01 10 -0.98 10 -2 10 C-1.54177532 6.53058454 -1.10868317 3.32604951 0 0 Z " fill="#000000" transform="translate(506,301)"/>
<path d="M0 0 C0.66 0.33 1.32 0.66 2 1 C1.39009109 4.55780196 0.4216319 7.6828589 -1 11 C-1.99 10.67 -2.98 10.34 -4 10 C-3.52449439 8.51965236 -3.04448784 7.04074979 -2.5625 5.5625 C-2.29566406 4.73878906 -2.02882813 3.91507812 -1.75390625 3.06640625 C-1 1 -1 1 0 0 Z " fill="#000000" transform="translate(514,282)"/>
<path d="M0 0 C0.66 0.33 1.32 0.66 2 1 C0.7508258 4.45925163 -0.67527795 7.14693203 -3 10 C-3.99 9.67 -4.98 9.34 -6 9 C-4.02 6.03 -2.04 3.06 0 0 Z " fill="#000000" transform="translate(188,234)"/>
<path d="M0 0 C0.99 0.66 1.98 1.32 3 2 C2.04956626 3.33897583 1.08940853 4.67105427 0.125 6 C-0.40867187 6.7425 -0.94234375 7.485 -1.4921875 8.25 C-1.98976563 8.8275 -2.48734375 9.405 -3 10 C-3.66 10 -4.32 10 -5 10 C-4.38545304 6.00544473 -2.29353263 3.25533664 0 0 Z " fill="#000000" transform="translate(569,178)"/>
<path d="M0 0 C-2.25740623 2.33524782 -4.2805761 4.18705073 -7 6 C-7.99 6 -8.98 6 -10 6 C-10 5.01 -10 4.02 -10 3 C-3.375 -1.125 -3.375 -1.125 0 0 Z " fill="#000000" transform="translate(304,127)"/>
<path d="M0 0 C0.66 0.33 1.32 0.66 2 1 C2 1.66 2 2.32 2 3 C-4.625 7 -4.625 7 -8 7 C-8 6.01 -8 5.02 -8 4 C-6.71349294 3.30289269 -5.42059335 2.61757124 -4.125 1.9375 C-3.40570313 1.55464844 -2.68640625 1.17179687 -1.9453125 0.77734375 C-1.30335938 0.52082031 -0.66140625 0.26429687 0 0 Z " fill="#000000" transform="translate(319,116)"/>
<path d="M0 0 C-2.12121657 2.33333823 -4.01594365 3.9148886 -7 5 C-9.25 4.625 -9.25 4.625 -11 4 C-7.64918101 0.31409911 -4.96535219 -1.77334007 0 0 Z " fill="#000000" transform="translate(339,109)"/>
<path d="M0 0 C0 0.99 0 1.98 0 3 C-3.3 3.66 -6.6 4.32 -10 5 C-10.33 4.01 -10.66 3.02 -11 2 C-3.375 0 -3.375 0 0 0 Z " fill="#000000" transform="translate(414,85)"/>
<path d="M0 0 C7.42857143 -0.14285714 7.42857143 -0.14285714 11 1 C11 1.99 11 2.98 11 4 C7.37 3.67 3.74 3.34 0 3 C0 2.01 0 1.02 0 0 Z " fill="#000000" transform="translate(482,81)"/>
<path d="M0 0 C3.63 0 7.26 0 11 0 C11 0.99 11 1.98 11 3 C7.7 3 4.4 3 1 3 C0.67 2.01 0.34 1.02 0 0 Z " fill="#000000" transform="translate(462,81)"/>
<path d="M0 0 C3.3 0.66 6.6 1.32 10 2 C10 2.99 10 3.98 10 5 C6.7 4.34 3.4 3.68 0 3 C0 2.01 0 1.02 0 0 Z " fill="#000000" transform="translate(164,683)"/>
<path d="M0 0 C0 0.99 0 1.98 0 3 C-6.625 6 -6.625 6 -10 6 C-10 5.01 -10 4.02 -10 3 C-8.70990357 2.49596232 -7.41786211 1.99690074 -6.125 1.5 C-5.04605469 1.08234375 -5.04605469 1.08234375 -3.9453125 0.65625 C-2 0 -2 0 0 0 Z " fill="#000000" transform="translate(231,675)"/>
<path d="M0 0 C3.36591866 1.44253657 5.51047079 3.33264727 8 6 C7.67 6.99 7.34 7.98 7 9 C3.65001479 7.88333826 3.20659778 7.25305075 1.3125 4.4375 C0.87550781 3.79683594 0.43851563 3.15617188 -0.01171875 2.49609375 C-0.50091797 1.75552734 -0.50091797 1.75552734 -1 1 C-0.67 0.67 -0.34 0.34 0 0 Z " fill="#000000" transform="translate(132,661)"/>
<path d="M0 0 C0.99 0.33 1.98 0.66 3 1 C3 1.66 3 2.32 3 3 C-2.35714286 8 -2.35714286 8 -6 8 C-6 7.01 -6 6.02 -6 5 C-3.1875 2.25 -3.1875 2.25 0 0 Z " fill="#000000" transform="translate(309,620)"/>
<path d="M0 0 C0.99 0 1.98 0 3 0 C3.66 3.3 4.32 6.6 5 10 C4.01 10 3.02 10 2 10 C0.68373308 6.38026598 0 3.90432869 0 0 Z " fill="#000000" transform="translate(106,609)"/>
<path d="M0 0 C0.99 0 1.98 0 3 0 C3.66 3.3 4.32 6.6 5 10 C3.68 9.67 2.36 9.34 1 9 C0.67 6.03 0.34 3.06 0 0 Z " fill="#000000" transform="translate(101,590)"/>
<path d="M0 0 C0.99 0 1.98 0 3 0 C2.67 3.63 2.34 7.26 2 11 C1.01 11 0.02 11 -1 11 C-0.67 7.37 -0.34 3.74 0 0 Z " fill="#000000" transform="translate(454,554)"/>
<path d="M0 0 C0.66 0 1.32 0 2 0 C3.17571451 3.67410785 3.07366746 7.16929183 3 11 C2.01 11 1.02 11 0 11 C-0.19406478 9.35492782 -0.38007935 7.70890406 -0.5625 6.0625 C-0.66691406 5.14597656 -0.77132812 4.22945312 -0.87890625 3.28515625 C-0.91886719 2.53105469 -0.95882812 1.77695312 -1 1 C-0.67 0.67 -0.34 0.34 0 0 Z " fill="#000000" transform="translate(94,531)"/>
<path d="M0 0 C0.99 0 1.98 0 3 0 C2.34 3.3 1.68 6.6 1 10 C0.01 10 -0.98 10 -2 10 C-1.125 2.25 -1.125 2.25 0 0 Z " fill="#000000" transform="translate(103,434)"/>
<path d="M0 0 C0.99 0.66 1.98 1.32 3 2 C2.01 4.97 1.02 7.94 0 11 C-0.99 10.67 -1.98 10.34 -3 10 C-2.01 6.7 -1.02 3.4 0 0 Z " fill="#000000" transform="translate(108,414)"/>
<path d="M0 0 C0.66 0 1.32 0 2 0 C1.67 3.3 1.34 6.6 1 10 C0.01 10.33 -0.98 10.66 -2 11 C-1.85957123 9.35369672 -1.71250671 7.70795821 -1.5625 6.0625 C-1.48128906 5.14597656 -1.40007812 4.22945313 -1.31640625 3.28515625 C-1 1 -1 1 0 0 Z " fill="#000000" transform="translate(480,395)"/>
<path d="M0 0 C0.99 0 1.98 0 3 0 C2.01 3.3 1.02 6.6 0 10 C-0.99 10 -1.98 10 -3 10 C-2.69201674 8.51988629 -2.378482 7.04092675 -2.0625 5.5625 C-1.88847656 4.73878906 -1.71445313 3.91507812 -1.53515625 3.06640625 C-1 1 -1 1 0 0 Z " fill="#000000" transform="translate(119,377)"/>
<path d="M0 0 C0.99 0.33 1.98 0.66 3 1 C1.68 3.97 0.36 6.94 -1 10 C-1.99 9.67 -2.98 9.34 -4 9 C-2.68 6.03 -1.36 3.06 0 0 Z " fill="#000000" transform="translate(521,264)"/>
<path d="M0 0 C0.99 0 1.98 0 3 0 C2.38545304 3.99455527 0.29353263 6.74466336 -2 10 C-2.66 9.67 -3.32 9.34 -4 9 C-2.80100302 5.9168649 -1.52299523 2.93720508 0 0 Z " fill="#000000" transform="translate(176,251)"/>
<path d="M0 0 C0.66 0.33 1.32 0.66 2 1 C0.94124926 4.40312738 -0.00902154 7.01353231 -2 10 C-2.99 10 -3.98 10 -5 10 C-3.84414715 6.08788267 -2.64465038 3.1254959 0 0 Z " fill="#000000" transform="translate(548,211)"/>
<path d="M0 0 C0.66 0 1.32 0 2 0 C1.58578031 4.83256305 -0.46413986 6.82679218 -4 10 C-4.33 9.01 -4.66 8.02 -5 7 C-4.07421875 5.17578125 -4.07421875 5.17578125 -2.6875 3.3125 C-2.23761719 2.68988281 -1.78773438 2.06726563 -1.32421875 1.42578125 C-0.88722656 0.95527344 -0.45023438 0.48476562 0 0 Z " fill="#000000" transform="translate(558,195)"/>
<path d="M0 0 C0.99 0 1.98 0 3 0 C2.42647107 3.87132028 0.51295648 6.08172796 -2 9 C-2.99 8.67 -3.98 8.34 -5 8 C-4.24266726 6.6589523 -3.46867264 5.32730219 -2.6875 4 C-2.25824219 3.2575 -1.82898438 2.515 -1.38671875 1.75 C-0.70029297 0.88375 -0.70029297 0.88375 0 0 Z " fill="#000000" transform="translate(580,163)"/>
<path d="M0 0 C0.99 0.33 1.98 0.66 3 1 C1.55746343 4.36591866 -0.33264727 6.51047079 -3 9 C-3.99 8.67 -4.98 8.34 -6 8 C-4.02 5.36 -2.04 2.72 0 0 Z " fill="#000000" transform="translate(606,133)"/>
<path d="M0 0 C2.97 0.99 5.94 1.98 9 3 C9 3.99 9 4.98 9 6 C5.7 5.01 2.4 4.02 -1 3 C-0.67 2.01 -0.34 1.02 0 0 Z " fill="#000000" transform="translate(579,102)"/>
<path d="M0 0 C5.445 1.485 5.445 1.485 11 3 C10.67 3.99 10.34 4.98 10 6 C6.7 5.01 3.4 4.02 0 3 C0 2.01 0 1.02 0 0 Z " fill="#000000" transform="translate(560,95)"/>
<path d="M0 0 C0 0.66 0 1.32 0 2 C-4.95 3.485 -4.95 3.485 -10 5 C-10.33 4.01 -10.66 3.02 -11 2 C-9.73392393 1.46770674 -8.46189588 0.94955456 -7.1875 0.4375 C-6.47980469 0.14746094 -5.77210938 -0.14257812 -5.04296875 -0.44140625 C-3 -1 -3 -1 0 0 Z " fill="#000000" transform="translate(376,95)"/>
<path d="M0 0 C1.258125 0.12375 2.51625 0.2475 3.8125 0.375 C4.87404297 0.47941406 4.87404297 0.47941406 5.95703125 0.5859375 C8 1 8 1 11 3 C10.67 3.66 10.34 4.32 10 5 C6.7 4.34 3.4 3.68 0 3 C0 2.01 0 1.02 0 0 Z " fill="#000000" transform="translate(541,90)"/>
<path d="M0 0 C3.3 0.33 6.6 0.66 10 1 C10 1.99 10 2.98 10 4 C6.7 3.67 3.4 3.34 0 3 C0 2.01 0 1.02 0 0 Z " fill="#000000" transform="translate(522,86)"/>
<path d="M0 0 C0 0.66 0 1.32 0 2 C-2.40545638 3.20272819 -3.94996953 3.10071472 -6.625 3.0625 C-7.85089844 3.04896484 -7.85089844 3.04896484 -9.1015625 3.03515625 C-10.04128906 3.01775391 -10.04128906 3.01775391 -11 3 C-10.67 2.01 -10.34 1.02 -10 0 C-2.25 -1.125 -2.25 -1.125 0 0 Z " fill="#000000" transform="translate(434,83)"/>
<path d="M0 0 C3.3 0 6.6 0 10 0 C10.33 0.66 10.66 1.32 11 2 C8.59454362 3.20272819 7.05003047 3.10071472 4.375 3.0625 C3.14910156 3.04896484 3.14910156 3.04896484 1.8984375 3.03515625 C0.95871094 3.01775391 0.95871094 3.01775391 0 3 C0 2.01 0 1.02 0 0 Z " fill="#000000" transform="translate(183,686)"/>
<path d="M0 0 C0.99 0 1.98 0 3 0 C3.125 7.625 3.125 7.625 2 11 C1.34 11 0.68 11 0 11 C0 7.37 0 3.74 0 0 Z " fill="#000000" transform="translate(455,533)"/>
<path d="M0 0 C0.66 0.33 1.32 0.66 2 1 C1.67 4.3 1.34 7.6 1 11 C0.01 11 -0.98 11 -2 11 C-1.85957123 9.35369672 -1.71250671 7.70795821 -1.5625 6.0625 C-1.48128906 5.14597656 -1.40007812 4.22945313 -1.31640625 3.28515625 C-1 1 -1 1 0 0 Z " fill="#000000" transform="translate(95,472)"/>
<path d="M0 0 C0.99 0 1.98 0 3 0 C2.34 3.3 1.68 6.6 1 10 C0.01 10 -0.98 10 -2 10 C-1.125 2.25 -1.125 2.25 0 0 Z " fill="#000000" transform="translate(462,472)"/>
<path d="M0 0 C0.99 0.33 1.98 0.66 3 1 C1.68 3.97 0.36 6.94 -1 10 C-1.99 10 -2.98 10 -4 10 C-2.8905928 6.51329166 -1.73662334 3.22515763 0 0 Z " fill="#000000" transform="translate(148,303)"/>
<path d="M0 0 C0.99 0.33 1.98 0.66 3 1 C1.68 3.97 0.36 6.94 -1 10 C-1.99 10 -2.98 10 -4 10 C-2.8905928 6.51329166 -1.73662334 3.22515763 0 0 Z " fill="#000000" transform="translate(529,246)"/>
<path d="M0 0 C0.66 0.33 1.32 0.66 2 1 C0.55746343 4.36591866 -1.33264727 6.51047079 -4 9 C-4.99 8.67 -5.98 8.34 -7 8 C-6.02133662 6.85373678 -5.04205413 5.70800212 -4.0625 4.5625 C-3.51722656 3.92441406 -2.97195312 3.28632813 -2.41015625 2.62890625 C-1.63204305 1.73008851 -0.84063472 0.84063472 0 0 Z " fill="#000000" transform="translate(225,188)"/>
<path d="M0 0 C0.99 0.33 1.98 0.66 3 1 C0.525 5.455 0.525 5.455 -2 10 C-2.66 9.67 -3.32 9.34 -4 9 C-3.35455571 5.51460083 -1.89865603 2.97180943 0 0 Z " fill="#000000" transform="translate(538,229)"/>
<path d="M0 0 C2.97 0 5.94 0 9 0 C9 0.99 9 1.98 9 3 C5.7 3 2.4 3 -1 3 C-0.67 2.01 -0.34 1.02 0 0 Z " fill="#000000" transform="translate(444,81)"/>
<path d="M0 0 C0.99 0.99 1.98 1.98 3 3 C-0.75 6 -0.75 6 -3 6 C-2.42655063 3.13275314 -2.1385485 2.1385485 0 0 Z " fill="#000000" transform="translate(658,600)"/>
</svg>
