<?xml version="1.0" encoding="UTF-8"?>
<svg version="1.1" xmlns="http://www.w3.org/2000/svg" width="757" height="506">
<path d="M0 0 C7.39105971 5.62603053 13.68485748 12.08956908 16.3671875 21.1796875 C17.57973828 32.72137457 14.94525714 40.08086296 8.07519531 49.11694336 C5.34694985 52.41181842 2.24169501 55.21255187 -0.9453125 58.0546875 C-6.88668511 63.47595458 -12.3701364 69.09030749 -17.6328125 75.1796875 C-19.12932795 76.84948368 -20.62939043 78.51610707 -22.1328125 80.1796875 C-22.8753125 81.00597656 -23.6178125 81.83226563 -24.3828125 82.68359375 C-25.87763939 84.34191733 -27.3776183 85.99561191 -28.8828125 87.64453125 C-32.7355899 91.87857308 -36.47145565 96.16447182 -40.0703125 100.6171875 C-43.14617838 104.42056253 -46.32034416 108.08051402 -49.6328125 111.6796875 C-54.05028948 116.49013022 -58.20220838 121.45939138 -62.30029297 126.54248047 C-63.81502854 128.40356818 -65.34953035 130.24725956 -66.88671875 132.08984375 C-73.63929583 140.19556736 -80.16481392 148.41155684 -86.44140625 156.890625 C-89.42187144 160.91439489 -92.46226091 164.89043432 -95.50854492 168.86450195 C-101.72045898 176.96978093 -107.82449048 185.13403502 -113.76708984 193.4387207 C-117.82845021 199.10272266 -121.9965786 204.67948966 -126.1953125 210.2421875 C-128.68030026 213.55036092 -131.15921469 216.86298962 -133.6328125 220.1796875 C-134.14666504 220.86788574 -134.66051758 221.55608398 -135.18994141 222.26513672 C-144.04229213 234.20915985 -151.67325919 246.87673581 -159.29888916 259.62030029 C-161.86206604 263.90259015 -164.44517125 268.17222337 -167.04296875 272.43359375 C-167.40350342 273.02507202 -167.76403809 273.61655029 -168.13549805 274.22595215 C-168.49442139 274.81477173 -168.85334473 275.40359131 -169.22314453 276.01025391 C-176.62552499 288.15409934 -183.95523922 300.33860789 -191.12402344 312.62207031 C-192.5937137 315.11340933 -194.09726496 317.5811103 -195.609375 320.046875 C-210.35839522 344.45443811 -228.50277645 379.50120516 -229.6328125 408.1796875 C-229.69202881 409.45851807 -229.69202881 409.45851807 -229.75244141 410.76318359 C-229.87378266 413.6938495 -229.94966769 416.62211424 -230.0078125 419.5546875 C-230.04757202 420.94723755 -230.04757202 420.94723755 -230.08813477 422.36791992 C-230.10070668 428.43578289 -229.18751647 433.15549778 -225.6328125 438.1796875 C-221.38032686 441.49870069 -217.00628486 441.76607899 -211.76953125 441.5703125 C-178.69684795 437.45167199 -141.39381657 410.13920961 -116.6328125 389.1796875 C-116.11283691 388.74462891 -115.59286133 388.30957031 -115.05712891 387.86132812 C-100.53809854 375.71144022 -86.92940555 362.64506664 -73.6328125 349.1796875 C-70.43842749 345.97419158 -67.22778325 342.78531849 -64.015625 339.59765625 C-62.2629521 337.85423577 -60.51034994 336.11074415 -58.7578125 334.3671875 C-57.44876953 333.07071289 -57.44876953 333.07071289 -56.11328125 331.74804688 C-51.68547476 327.33688627 -47.4013009 322.87688462 -43.33105469 318.1340332 C-40.22117073 314.55516301 -36.95030394 311.12614903 -33.6953125 307.6796875 C-33.03080078 306.97199219 -32.36628906 306.26429688 -31.68164062 305.53515625 C-27.67827345 301.28716043 -23.60696626 297.12275983 -19.44726562 293.02758789 C-16.95782219 290.49225455 -14.66296838 287.80660353 -12.34765625 285.11328125 C-10.16154936 282.64830878 -7.82710495 280.36088203 -5.47631836 278.05444336 C-3.698192 276.24617527 -2.03584564 274.38357247 -0.3828125 272.4609375 C3.86630656 267.57332647 8.30861783 262.88069301 12.76171875 258.1796875 C17.07613558 253.60622701 21.26056727 248.94040593 25.3671875 244.1796875 C25.86089844 243.60814941 26.35460937 243.03661133 26.86328125 242.44775391 C29.86099321 238.96856012 32.84299172 235.47588609 35.82519531 231.98339844 C37.29199322 230.26764434 38.76292783 228.55551657 40.234375 226.84375 C45.20294215 221.04213491 49.98145677 215.14578452 54.59594727 209.05883789 C58.0343015 204.54884174 61.65177096 200.21370184 65.34082031 195.9074707 C68.16576157 192.60955526 70.91085803 189.26406257 73.6171875 185.8671875 C78.11091035 180.33520378 82.96578027 175.17273911 87.87597656 170.01245117 C91.59477334 166.10101402 95.20436809 162.12001168 98.74169922 158.04370117 C100.99081063 155.46455344 103.29897167 152.94701389 105.6171875 150.4296875 C106.5703377 149.39325234 107.52346195 148.35679332 108.4765625 147.3203125 C109.19489258 146.54010742 109.19489258 146.54010742 109.92773438 145.74414062 C112.24461077 143.22607008 114.55566037 140.70266753 116.8671875 138.1796875 C117.78513416 137.17836516 118.70310293 136.1770631 119.62109375 135.17578125 C121.44202581 133.18936868 123.26228606 131.20234363 125.08203125 129.21484375 C130.33726951 123.47636519 135.6058316 117.75051058 140.88647461 112.03540039 C144.67429428 107.93442656 148.44898049 103.82162454 152.21826172 99.70361328 C155.1200775 96.53505967 158.03203964 93.37612857 160.94970703 90.22216797 C165.72396705 85.06101001 170.46730566 79.87580998 175.15625 74.63671875 C176.70377519 72.91694253 178.26199734 71.20675934 179.828125 69.50390625 C183.81492452 65.16749508 187.67982718 60.82381547 191.3046875 56.1796875 C196.53235589 49.67560456 202.49978096 43.91563989 208.45288086 38.08007812 C212.66567247 33.93998761 216.69351072 29.7408234 220.54394531 25.26293945 C235.38259977 8.3081673 249.22151262 -5.11752331 272.6484375 -7.09765625 C287.19228325 -7.5305088 300.60575575 -3.00627114 311.7421875 6.4296875 C320.49920454 14.80657679 324.29228312 23.56972139 324.7421875 35.4921875 C324.34967841 49.78606004 316.85105941 58.22568961 308.19677734 68.89404297 C305.43706638 72.34165627 302.80739664 75.88108673 300.1796875 79.4296875 C295.14119274 86.19172476 289.97094345 92.83900477 284.73486328 99.44873047 C283.33474646 101.22074551 281.94175598 102.99814532 280.55078125 104.77734375 C274.91300028 111.98709486 269.21621619 119.13919 263.3671875 126.1796875 C262.92342773 126.71513184 262.47966797 127.25057617 262.02246094 127.80224609 C252.92551362 138.75693213 252.92551362 138.75693213 248.7421875 142.8046875 C244.70384665 146.71950263 241.27157526 151.09044785 237.75244141 155.46923828 C235.62269731 158.0989505 233.45974918 160.70095198 231.30102539 163.30688477 C224.52208897 171.49668905 217.88937574 179.78464011 211.3671875 188.1796875 C210.26704209 189.59253747 209.16677591 191.00529342 208.06640625 192.41796875 C205.09703827 196.23185501 202.130855 200.04820629 199.16552734 203.86523438 C196.81495821 206.89040345 194.46294216 209.91444526 192.1105957 212.93823242 C190.94600979 214.43551057 189.78178589 215.93307036 188.61791992 217.4309082 C185.70839269 221.17462704 182.79352844 224.91393646 179.8671875 228.64453125 C176.34499462 233.13926258 172.84675879 237.65188545 169.3671875 242.1796875 C168.83222656 242.87481445 168.29726563 243.56994141 167.74609375 244.28613281 C135.7456988 286.12527999 103.73994333 333.45230513 91.3671875 385.1796875 C90.99787109 386.70529297 90.99787109 386.70529297 90.62109375 388.26171875 C89.33654421 394.59587684 89.14249088 400.92395188 89.0546875 407.3671875 C89.03688232 408.19911621 89.01907715 409.03104492 89.00073242 409.88818359 C89.00817996 415.65945055 89.66509555 420.99965597 92.3671875 426.1796875 C96.57008341 429.80407535 100.54128892 429.7474078 105.88671875 429.578125 C131.55966063 426.63913502 156.60273912 408.73379885 176.3671875 393.1796875 C177.4824407 392.3194922 178.59835591 391.46015469 179.71484375 390.6015625 C186.41679278 385.42142486 192.93223889 380.06250283 199.33203125 374.51367188 C202.74614666 371.55502702 206.20800836 368.6829087 209.7421875 365.8671875 C215.2569718 361.3981697 220.39541459 356.56086617 225.53466797 351.6706543 C229.47833513 347.92123933 233.50054791 344.29508214 237.6105957 340.72900391 C239.6178687 338.95858633 241.50835623 337.1049056 243.3671875 335.1796875 C245.80159682 332.65833499 248.33386995 330.33400797 250.9921875 328.0546875 C256.03314751 323.67652038 260.68389695 318.933937 265.3671875 314.1796875 C270.59123669 308.87648605 275.8158874 303.67115114 281.46875 298.82421875 C284.68780429 296.03569641 287.76849063 293.10041457 290.8671875 290.1796875 C295.29687157 286.02397088 299.74319335 281.91166504 304.34765625 277.94921875 C307.0620503 275.57084253 309.71287875 273.12456396 312.3671875 270.6796875 C316.32300551 267.0379304 320.31280593 263.4446906 324.375 259.921875 C326.72739385 257.86468351 329.04753716 255.77371835 331.3671875 253.6796875 C334.30397215 251.02854756 337.25321292 248.39678579 340.2421875 245.8046875 C343.5571415 242.91489794 346.81357893 239.96424853 350.0546875 236.9921875 C350.5609668 236.5293335 351.06724609 236.06647949 351.58886719 235.58959961 C354.31229727 233.09283852 357.00927426 230.57315097 359.67578125 228.015625 C370.97448976 217.24332604 380.52641416 210.60109128 396.7265625 210.87109375 C402.32762252 211.34586171 405.94649744 212.7153252 409.8828125 216.72265625 C415.09383375 223.26638121 415.57875841 230.50241802 415.73046875 238.56640625 C414.94982956 244.18197205 410.99159602 247.93915138 407.2421875 251.9296875 C406.73083252 252.47971436 406.21947754 253.02974121 405.69262695 253.59643555 C400.40681524 259.23105322 394.92896862 264.67577765 389.41943359 270.09082031 C386.12651072 273.34261075 382.93542603 276.61851951 379.91796875 280.12890625 C375.25934289 285.5397992 370.12693636 290.46624315 365.0390625 295.46875 C361.5258735 298.94609014 358.08993486 302.42971649 354.8671875 306.1796875 C350.22916738 311.57646207 345.10965847 316.48323114 340.0390625 321.46875 C335.88119137 325.58419387 331.91860997 329.77530682 328.10498047 334.21044922 C325.02673938 337.69866116 321.7276879 340.96326907 318.4296875 344.2421875 C317.76517578 344.91056641 317.10066406 345.57894531 316.41601562 346.26757812 C311.89774 350.77708891 307.20053802 355.01251153 302.3671875 359.1796875 C300.69666288 360.67538977 299.02937918 362.17473016 297.3671875 363.6796875 C293.75042405 366.94359598 290.10329142 370.16759699 286.4296875 373.3671875 C284.05754321 375.45179914 281.71162685 377.56397394 279.3671875 379.6796875 C275.75042405 382.94359598 272.10329142 386.16759699 268.4296875 389.3671875 C266.05754321 391.45179914 263.71162685 393.56397394 261.3671875 395.6796875 C257.75042405 398.94359598 254.10329142 402.16759699 250.4296875 405.3671875 C248.05754321 407.45179914 245.71162685 409.56397394 243.3671875 411.6796875 C238.04384057 416.47876542 232.67855411 421.220467 227.21484375 425.859375 C226.03635294 426.86185529 224.85797142 427.86446405 223.6796875 428.8671875 C222.77089844 429.63832886 222.77089844 429.63832886 221.84375 430.42504883 C218.34498469 433.41481036 214.97269525 436.488723 211.66772461 439.69042969 C192.43469874 458.16334069 166.68384067 471.31454611 141.3671875 479.1796875 C140.71057129 479.38916016 140.05395508 479.59863281 139.37744141 479.81445312 C110.86473942 488.68089983 81.23775994 485.98162221 54.82543945 472.21020508 C52.99357798 471.22053565 51.17732226 470.20848755 49.3671875 469.1796875 C47.84158203 468.3134375 47.84158203 468.3134375 46.28515625 467.4296875 C29.09707543 457.04472119 17.38429901 441.88360649 11.4921875 422.6796875 C4.26398685 389.41254717 19.71486348 353.41225561 33.19921875 323.75976562 C35.00454304 319.77174993 36.74649095 315.75656258 38.4921875 311.7421875 C39.0568378 310.45162425 39.62188747 309.16123558 40.1875 307.87109375 C40.57679688 306.98292969 40.96609375 306.09476562 41.3671875 305.1796875 C34.31103349 312.79699081 27.29311398 320.44341496 20.3671875 328.1796875 C15.52247811 333.58306608 10.65509675 338.96333173 5.7421875 344.3046875 C2.76500469 347.54185966 -0.19234106 350.79106479 -3.0703125 354.1171875 C-6.18245545 357.70927539 -9.40157085 361.19517032 -12.6328125 364.6796875 C-16.45825148 368.80571346 -20.23736961 372.95830734 -23.91796875 377.21484375 C-26.75934532 380.47045289 -29.67414688 383.65999781 -32.57421875 386.86328125 C-34.17454569 388.66402864 -35.70084002 390.4802273 -37.1953125 392.3671875 C-40.37629854 396.03755601 -43.92652821 399.05194515 -47.6328125 402.1796875 C-48.55964844 402.98277344 -49.48648437 403.78585937 -50.44140625 404.61328125 C-103.28956798 450.23376661 -171.4751574 501.0730506 -244.84814453 496.02734375 C-259.00857235 494.65573819 -269.37381027 491.60713673 -278.70263672 480.57055664 C-298.25384355 456.43025637 -305.12568696 424.49908248 -302.1640625 394.0078125 C-297.51198495 352.39963088 -278.24162967 312.52252513 -256.6328125 277.1796875 C-260.07757288 279.81745856 -263.01921542 282.54867156 -265.8828125 285.8046875 C-266.66269531 286.68382812 -267.44257813 287.56296875 -268.24609375 288.46875 C-269.03371094 289.36335938 -269.82132812 290.25796875 -270.6328125 291.1796875 C-273.60359095 294.54067327 -276.60028268 297.87428148 -279.6328125 301.1796875 C-280.78716797 302.45199219 -280.78716797 302.45199219 -281.96484375 303.75 C-292.12192967 314.48139611 -303.28442691 321.20540245 -318.2421875 322.14453125 C-327.16689895 322.23706858 -333.87868885 320.61686957 -340.5078125 314.4296875 C-342.63317571 310.17896108 -342.30411621 306.32785937 -340.9296875 301.9296875 C-337.49889679 294.14640112 -331.70570289 288.14176924 -326.11230469 281.86523438 C-324.00538697 279.46487795 -322.00712443 276.98243367 -320.0078125 274.4921875 C-316.20255272 269.80086542 -312.17691559 265.35641295 -308.0859375 260.9140625 C-305.75564982 258.31660808 -303.56034082 255.65563036 -301.3828125 252.9296875 C-296.50317564 246.87789587 -291.18768779 241.27409155 -285.859375 235.62109375 C-282.94106574 232.52195264 -280.1132026 229.35892852 -277.3359375 226.1328125 C-275.13915345 223.61356474 -272.88591631 221.14865754 -270.6328125 218.6796875 C-267.78757022 215.56061739 -264.9608167 212.43213359 -262.1953125 209.2421875 C-258.76512674 205.29301383 -255.22277732 201.44946445 -251.67993164 197.60180664 C-249.12740797 194.8249238 -246.60305504 192.02996735 -244.1328125 189.1796875 C-241.19437185 185.78917906 -238.17164948 182.48001768 -235.1328125 179.1796875 C-231.49113361 175.22379567 -227.8978175 171.23407126 -224.375 167.171875 C-222.31780851 164.81948115 -220.22684335 162.49933784 -218.1328125 160.1796875 C-215.44297819 157.19906029 -212.76970886 154.20723517 -210.1328125 151.1796875 C-202.64329411 142.593306 -194.92467777 134.21801372 -187.18554688 125.85742188 C-184.6451477 123.11251258 -182.10748913 120.36507531 -179.5703125 117.6171875 C-179.07297607 117.07860107 -178.57563965 116.54001465 -178.06323242 115.98510742 C-174.74545805 112.39026561 -171.43649287 108.78748228 -168.1328125 105.1796875 C-161.81345951 98.27861773 -155.4627177 91.4066562 -149.11230469 84.53417969 C-143.32167992 78.26689899 -137.53927072 71.9924318 -131.77709961 65.69897461 C-127.9006657 61.4670447 -124.00799546 57.25025826 -120.11328125 53.03515625 C-116.77814046 49.42424155 -113.45217751 45.80510597 -110.1328125 42.1796875 C-105.33404383 36.93909729 -100.51823058 31.71446135 -95.6953125 26.49609375 C-93.58772688 24.21536562 -91.48403696 21.93112091 -89.3828125 19.64453125 C-88.84906006 19.06437256 -88.31530762 18.48421387 -87.76538086 17.88647461 C-86.7523252 16.78520387 -85.74005918 15.68320598 -84.72875977 14.58032227 C-63.16264041 -8.84513921 -27.98349093 -19.34763616 0 0 Z M-82.76586914 21.05883789 C-85.72699358 24.42267835 -88.80437898 27.67349666 -91.8828125 30.9296875 C-98.18989331 37.6292089 -104.43093556 44.38272792 -110.6328125 51.1796875 C-112.44471458 53.15940685 -114.25702765 55.13873599 -116.0703125 57.1171875 C-116.52253174 57.61065674 -116.97475098 58.10412598 -117.44067383 58.61254883 C-123.32752699 65.03277109 -129.24180229 71.42769507 -135.15332031 77.82519531 C-140.94394508 84.09247601 -146.72635428 90.3669432 -152.48852539 96.66040039 C-156.3649593 100.8923303 -160.25762954 105.10911674 -164.15234375 109.32421875 C-167.48748454 112.93513345 -170.81344749 116.55426903 -174.1328125 120.1796875 C-177.93655638 124.33364121 -181.74928068 128.47912954 -185.5703125 132.6171875 C-186.31317505 133.42192505 -186.31317505 133.42192505 -187.07104492 134.24291992 C-189.64870066 137.03437118 -192.22898 139.82335006 -194.8125 142.609375 C-199.5827118 147.75765932 -204.33281846 152.91448758 -208.92578125 158.22265625 C-210.96914681 160.565279 -213.04962109 162.87242172 -215.1328125 165.1796875 C-217.78395244 168.11647215 -220.41571421 171.06571292 -223.0078125 174.0546875 C-226.45997328 178.02065826 -230.02032131 181.88486396 -233.58105469 185.75292969 C-236.73979215 189.1899317 -239.83919586 192.66990071 -242.8984375 196.1953125 C-246.42781964 200.23343441 -250.03915476 204.19883431 -253.6328125 208.1796875 C-255.13309929 209.84609601 -256.63310122 211.51276103 -258.1328125 213.1796875 C-261.1328125 216.51302083 -264.1328125 219.84635417 -267.1328125 223.1796875 C-267.87273437 224.00210938 -268.61265625 224.82453125 -269.375 225.671875 C-270.89989494 227.36561644 -272.42596652 229.05829919 -273.953125 230.75 C-277.94837257 235.17863036 -281.91394861 239.62850529 -285.828125 244.12890625 C-287.86239391 246.44057547 -289.9350356 248.7150018 -292.0078125 250.9921875 C-295.11810101 254.43346955 -298.09759562 257.94290048 -301.0078125 261.5546875 C-304.2523745 265.5679959 -307.62068227 269.40343242 -311.1328125 273.1796875 C-327.48102477 289.07016313 -327.48102477 289.07016313 -335.6328125 308.7421875 C-334.95483255 312.26642103 -334.95483255 312.26642103 -332.3828125 314.0546875 C-322.68526637 316.96395134 -313.04117463 317.17801336 -303.8359375 312.87109375 C-293.46485739 307.26909841 -285.02129845 299.32808031 -277.47265625 290.33984375 C-275.09862607 287.55250046 -272.6163096 284.86899697 -270.1328125 282.1796875 C-267.09340801 278.87989391 -264.07123878 275.57017936 -261.1328125 272.1796875 C-257.72536331 268.24801536 -254.20151577 264.42607506 -250.67749023 260.59936523 C-248.14541134 257.84495322 -245.64245982 255.07226251 -243.1953125 252.2421875 C-235.04671637 242.86545367 -226.50379911 233.87403943 -217.6328125 225.1796875 C-216.1478125 226.1696875 -216.1478125 226.1696875 -214.6328125 227.1796875 C-215.20890081 230.91173784 -216.70668831 232.58025232 -219.3203125 235.2421875 C-260.97566072 280.39078486 -298.60509904 351.96569499 -296.76464844 414.54101562 C-295.60145319 437.82215313 -287.60161733 461.8591925 -271.6328125 479.1796875 C-270.71242188 480.19869141 -270.71242188 480.19869141 -269.7734375 481.23828125 C-259.54072356 491.40756927 -242.6197606 490.43361919 -229.12255859 490.4284668 C-219.39945515 490.32649672 -210.12305602 489.26447703 -200.6328125 487.1796875 C-199.89933594 487.01871582 -199.16585937 486.85774414 -198.41015625 486.69189453 C-159.70926085 477.81014142 -125.33134682 453.02413592 -93.6328125 430.1796875 C-92.82618164 429.59977051 -92.01955078 429.01985352 -91.18847656 428.42236328 C-80.63634828 420.81164601 -70.38762027 412.90807712 -60.36962891 404.60791016 C-58.78724067 403.30667721 -57.18559379 402.02895405 -55.58203125 400.75390625 C-45.86886804 393.01909594 -37.48663994 384.44601017 -29.75390625 374.7421875 C-27.18761136 371.64183861 -24.40190965 368.86169259 -21.51953125 366.05859375 C-19.08150395 363.63066181 -16.85612766 361.05255729 -14.61328125 358.4453125 C-12.16675523 355.64652534 -9.65206306 352.91277252 -7.1328125 350.1796875 C-4.1133836 346.90129113 -1.1107869 343.61387306 1.8046875 340.2421875 C5.42930839 336.05858893 9.20103817 332.0153414 12.96459961 327.95727539 C15.64119788 325.06604622 18.29029929 322.16079346 20.8671875 319.1796875 C23.95616057 315.60616964 27.15560963 312.14257636 30.3671875 308.6796875 C34.14409093 304.60687365 37.86701146 300.50311874 41.5 296.30078125 C45.70760478 291.52101264 50.05171961 286.86193115 54.3671875 282.1796875 C55.6871875 282.5096875 57.0071875 282.8396875 58.3671875 283.1796875 C57.75507517 288.14439498 55.56439556 292.06600179 53.28125 296.43359375 C52.42851784 298.09567924 51.5764955 299.75812905 50.72509766 301.42089844 C50.27837708 302.28936401 49.83165649 303.15782959 49.37139893 304.0526123 C37.45086378 327.29863176 26.94316349 350.80528786 20.3671875 376.1796875 C20.15980957 376.95538086 19.95243164 377.73107422 19.73876953 378.53027344 C14.60542531 398.14654694 13.60249362 417.99681429 23.4296875 436.3046875 C37.41860573 458.65719301 60.36146374 470.96110121 85.3671875 477.1796875 C120.43030235 484.76449792 157.07361757 469.84045102 186.35302734 451.48046875 C195.47213445 445.59118358 203.43246675 438.55736858 211.3671875 431.1796875 C215.03433666 427.89740746 218.76416524 424.68921246 222.515625 421.50390625 C229.0973728 415.90743343 235.56350668 410.2235839 241.88671875 404.3359375 C245.34088124 401.11999311 248.84154342 397.97450795 252.41015625 394.88671875 C254.752779 392.84335319 257.05992172 390.76287891 259.3671875 388.6796875 C262.98395095 385.41577902 266.63108358 382.19177801 270.3046875 378.9921875 C272.67683179 376.90757586 275.02274815 374.79540106 277.3671875 372.6796875 C280.98395095 369.41577902 284.63108358 366.19177801 288.3046875 362.9921875 C290.67683179 360.90757586 293.02274815 358.79540106 295.3671875 356.6796875 C306.8426121 346.33241524 306.8426121 346.33241524 310.9296875 343.2421875 C313.0492692 341.44869529 314.67166711 339.71977129 316.45703125 337.61328125 C321.25077756 332.08414841 326.48040577 327.0180333 331.6953125 321.890625 C335.19811677 318.42356363 338.62482471 314.95164148 341.8359375 311.2109375 C346.68014779 305.57424119 352.04649822 300.45581612 357.33984375 295.24609375 C361.6019113 291.0250734 365.67377309 286.74000359 369.58007812 282.18945312 C373.71774914 277.536269 378.25726982 273.25420388 382.6953125 268.890625 C386.26050218 265.36181481 389.73285006 261.82346026 392.99609375 258.01171875 C395.17167406 255.47322779 397.39711063 253.16402084 399.89453125 250.94140625 C406.34972536 245.44096441 406.34972536 245.44096441 410.30859375 238.1796875 C410.36846208 235.30600781 410.07757331 232.96058806 409.3671875 230.1796875 C409.08101562 229.03113281 409.08101562 229.03113281 408.7890625 227.859375 C407.48745517 223.75779841 405.92571083 220.61446662 402.3671875 218.1796875 C395.02609955 215.2913906 388.58544782 216.36765403 381.30859375 218.89453125 C372.51511977 222.73393538 365.90487161 230.57698588 359.28125 237.29296875 C356.82685407 239.71230188 354.24459898 241.95246542 351.6328125 244.19921875 C348.83402392 246.64574601 346.10032296 249.16049028 343.3671875 251.6796875 C339.40880098 255.32408217 335.41541344 258.91883028 331.3515625 262.4453125 C327.31345488 265.97468215 323.34744561 269.58539381 319.3671875 273.1796875 C309.875 281.75142045 309.875 281.75142045 305.4921875 285.5546875 C300.56172765 289.85151396 295.76406966 294.29279756 290.95361328 298.72265625 C289.36508235 300.18162095 287.77132254 301.63464527 286.17578125 303.0859375 C281.38317899 307.44988465 276.64514171 311.83551365 272.11010742 316.46972656 C270.38535306 318.16186545 268.59842628 319.72439706 266.7578125 321.2890625 C261.89137099 325.5218179 257.38926196 330.08502757 252.8671875 334.6796875 C247.80170214 339.82648081 242.72006148 344.85312601 237.23876953 349.55761719 C234.26288468 352.13676915 231.41869935 354.85282075 228.5546875 357.5546875 C223.51287107 362.27716182 218.34354183 366.746209 212.94921875 371.06640625 C210.32296982 373.21587776 207.81085297 375.45428838 205.3046875 377.7421875 C200.48785897 382.1156574 195.48876299 386.17033972 190.3671875 390.1796875 C189.02178954 391.25477563 187.67676866 392.33033576 186.33203125 393.40625 C162.29025994 412.52389863 128.75379595 438.12392463 96.3671875 435.1796875 C92.24753969 434.17829619 89.48910742 432.78525032 87.03515625 429.2734375 C77.45143164 411.12193081 84.31767141 385.33997196 89.90625 366.92578125 C96.7519394 345.79217491 107.10597519 326.24225743 118.3671875 307.1796875 C118.82706055 306.39674316 119.28693359 305.61379883 119.76074219 304.80712891 C134.70025739 279.48525973 151.59380247 255.29514604 169.77441406 232.20898438 C171.99333853 229.38193039 174.18116209 226.53227147 176.3671875 223.6796875 C185.83805333 211.34734497 195.41197171 199.09484382 205.03173828 186.87841797 C206.41588834 185.1177386 207.79624761 183.35414203 209.17578125 181.58984375 C214.11714441 175.27450308 219.10092802 169.00263707 224.19921875 162.8125 C225.64033123 161.06239224 227.07528153 159.30719138 228.50390625 157.546875 C244.54080142 137.79586946 244.54080142 137.79586946 251.1171875 131.4296875 C254.40603523 128.24312451 257.19309017 124.76188506 260.015625 121.16015625 C261.77148803 118.93470194 263.5444045 116.73275972 265.34375 114.54296875 C271.40593547 107.1627172 277.301745 99.69749928 282.99609375 92.02954102 C286.14100014 87.79867203 289.34409454 83.62453592 292.6171875 79.4921875 C294.5365238 77.05678129 296.45214829 74.61847355 298.3671875 72.1796875 C299.01864746 71.35178711 299.67010742 70.52388672 300.34130859 69.67089844 C302.50589778 66.91073729 304.65629684 64.13996936 306.8046875 61.3671875 C307.49143555 60.49553955 308.17818359 59.6238916 308.88574219 58.72583008 C316.25440729 49.16566939 319.81352753 41.43630099 318.3671875 29.1796875 C315.75564838 18.20813264 307.75642236 10.0238558 298.3671875 4.1796875 C294.77200384 2.56990377 291.14567162 1.28645608 287.3671875 0.1796875 C286.41779297 -0.11035156 286.41779297 -0.11035156 285.44921875 -0.40625 C271.77899864 -3.12490541 257.58675116 0.51602647 246.03962708 7.95509338 C243.28299104 9.9735581 241.08936404 12.48309294 238.85546875 15.04296875 C234.4685118 19.92872952 229.97618172 24.66637839 225.31640625 29.29296875 C224.72139313 29.88464844 224.12638 30.47632813 223.51333618 31.0859375 C221.69581557 32.89008251 219.87571367 34.69158132 218.0546875 36.4921875 C207.35786797 47.00455092 207.35786797 47.00455092 197.3671875 58.1796875 C196.4403893 59.27367912 195.51331308 60.36743528 194.5859375 61.4609375 C194.14403076 61.98478027 193.70212402 62.50862305 193.24682617 63.04833984 C187.59972171 69.72573358 181.73256143 76.16041207 175.70703125 82.49804688 C172.07519209 86.32332095 168.55944718 90.22331786 165.10180664 94.20654297 C162.30342697 97.38972446 159.39783354 100.46968059 156.4921875 103.5546875 C152.57745648 107.72875402 148.67904936 111.91097328 144.8671875 116.1796875 C141.0937463 120.40368884 137.23884978 124.54602534 133.3671875 128.6796875 C128.73397769 133.62709644 124.15069581 138.61072635 119.6328125 143.6640625 C116.94339427 146.65024412 114.22080323 149.60435279 111.4921875 152.5546875 C110.98647217 153.10165283 110.48075684 153.64861816 109.9597168 154.2121582 C108.93654658 155.31870629 107.91335319 156.42523296 106.89013672 157.53173828 C97.88974201 167.26992593 97.88974201 167.26992593 89.1015625 177.19921875 C87.09454212 179.49101905 85.04315899 181.73965502 82.9921875 183.9921875 C79.07780003 188.33046803 75.3542869 192.79372435 71.6796875 197.3359375 C69.29419674 200.2694464 66.86514581 203.16258075 64.4296875 206.0546875 C61.00928979 210.14440803 57.71092257 214.30562339 54.4921875 218.5546875 C46.96988312 228.45771326 38.72466899 237.75556657 30.37109375 246.9609375 C28.55406768 248.97277143 26.76774358 251.00629184 24.9921875 253.0546875 C21.57832869 256.97430317 18.06619998 260.80136155 14.54638672 264.62548828 C11.71245378 267.7059339 8.90398462 270.80637148 6.1171875 273.9296875 C0.32170388 280.38398275 -5.63703341 286.68524367 -11.58300781 293.00048828 C-13.68323964 295.23329787 -15.77948367 297.46979614 -17.875 299.70703125 C-19.27338442 301.19796645 -20.67182053 302.68885318 -22.0703125 304.1796875 C-22.70783447 304.8610376 -23.34535645 305.5423877 -24.00219727 306.24438477 C-27.16937916 309.61592756 -30.37517667 312.9304404 -33.66796875 316.1796875 C-36.92644165 319.41598853 -39.97221964 322.78155415 -42.97021484 326.25878906 C-52.47130722 337.23596891 -62.82118706 347.47129483 -73.0703125 357.7421875 C-73.63207184 358.30653503 -74.19383118 358.87088257 -74.77261353 359.45233154 C-80.33604638 365.03597217 -85.90131156 370.57045875 -91.90014648 375.69213867 C-94.66045835 378.06195411 -97.29214995 380.56651012 -99.9453125 383.0546875 C-105.64730947 388.35152517 -111.52628076 393.35106759 -117.6328125 398.1796875 C-118.591875 398.95699219 -119.5509375 399.73429687 -120.5390625 400.53515625 C-144.94422563 419.91753959 -185.370938 448.49456524 -217.8359375 447.52734375 C-223.49353266 446.82409519 -227.65312576 444.53471838 -231.5078125 440.3671875 C-235.80010522 433.92874842 -235.96426777 427.69821456 -235.8828125 420.1796875 C-235.86939819 418.78266602 -235.86939819 418.78266602 -235.85571289 417.35742188 C-235.40540829 390.27381689 -224.23834958 366.61394413 -213.6328125 342.1796875 C-213.26575195 341.31859375 -212.89869141 340.4575 -212.52050781 339.5703125 C-207.15885417 327.03571083 -200.07976638 315.49841892 -193.04408264 303.84675598 C-190.24541274 299.20927013 -187.4777304 294.5541277 -184.72265625 289.890625 C-169.76142661 264.57348491 -169.76142661 264.57348491 -163 253.9375 C-161.17316455 251.06003816 -159.40073356 248.15312016 -157.640625 245.234375 C-150.25523592 233.03340278 -142.2557372 221.53333097 -133.6328125 210.1796875 C-132.11842054 208.16603501 -130.60746055 206.14984609 -129.09692383 204.13330078 C-128.12014671 202.82995402 -127.14211667 201.52754532 -126.1628418 200.22607422 C-122.36477747 195.17574275 -118.62046548 190.08731999 -114.8828125 184.9921875 C-109.16307144 177.20260419 -103.33896924 169.49737148 -97.46508789 161.82348633 C-93.87688163 157.13416972 -90.31907941 152.42582718 -86.80444336 147.68115234 C-81.82987236 140.97255997 -76.65702563 134.51128785 -71.20703125 128.18359375 C-68.84331438 125.42532627 -66.54156286 122.62921663 -64.2578125 119.8046875 C-56.33527682 110.07899406 -48.03118729 100.66571204 -39.609375 91.37109375 C-37.76324689 89.32429954 -35.94287966 87.25837193 -34.1328125 85.1796875 C-29.26138047 79.58988761 -24.273861 74.10433852 -19.3046875 68.6015625 C-18.54671875 67.76109375 -17.78875 66.920625 -17.0078125 66.0546875 C-16.26402344 65.23097656 -15.52023437 64.40726562 -14.75390625 63.55859375 C-12.82573246 61.3960563 -10.94624635 59.19991917 -9.0703125 56.9921875 C-6.12863974 53.60004978 -2.89898453 50.74135455 0.51171875 47.83203125 C5.52426075 43.36823069 9.89332749 38.27106415 10.6875 31.4140625 C10.98882166 23.41899435 9.748543 18.27782803 4.671875 12.125 C-4.13617424 2.67506863 -15.41465372 -2.84998 -28.26953125 -4.203125 C-50.52636825 -4.90083149 -68.50982345 4.64491507 -82.76586914 21.05883789 Z M-254.6328125 272.1796875 C-254.6328125 275.1796875 -254.6328125 275.1796875 -254.6328125 275.1796875 Z " fill="#000000" transform="translate(341.6328125,9.8203125)"/>
<path d="M0 0 C1.17571451 3.67410785 1.07366746 7.16929183 1 11 C0.01 10.67 -0.98 10.34 -2 10 C-2.6875 7.9375 -2.6875 7.9375 -3 6 C-3.70382812 7.00675781 -4.40765625 8.01351562 -5.1328125 9.05078125 C-24.84663153 37.16499051 -45.56829179 64.66688957 -67.31713867 91.24121094 C-70.77359054 95.46886749 -74.15385782 99.74727317 -77.5 104.0625 C-81.91530022 109.74000809 -86.55879641 115.188189 -91.2980957 120.59692383 C-94.50351107 124.25786322 -97.6320132 127.96162748 -100.6875 131.75 C-104.47025226 136.42484558 -108.47780417 140.84726364 -112.55078125 145.26953125 C-114.86060582 147.84459883 -117.03243013 150.48254363 -119.1875 153.1875 C-123.69027665 158.77383253 -128.56366783 163.9706212 -133.50854492 169.16674805 C-137.20290039 173.05294181 -140.78382907 177.01040124 -144.29833984 181.05981445 C-147.51656527 184.72914551 -150.87423983 188.2676585 -154.21378994 191.82614231 C-157.31174177 195.12808289 -160.40566387 198.4335408 -163.48756409 201.75047302 C-172.13862943 211.04671777 -180.97789767 220.12671158 -189.96484375 229.09765625 C-191.33686061 230.47034976 -192.70872927 231.84319142 -194.08045959 233.21617126 C-196.92157212 236.05873982 -199.76443849 238.89953856 -202.60864258 241.73901367 C-206.2350973 245.35972839 -209.85698275 248.98497568 -213.47759151 252.61153507 C-216.29575948 255.43332859 -219.11631938 258.25272155 -221.93759346 261.07140923 C-223.27423811 262.40739239 -224.61015589 263.74410323 -225.94529533 265.08159065 C-238.46758161 277.62109883 -238.46758161 277.62109883 -244.5236969 282.74388123 C-246.46045114 284.39177682 -248.23450084 286.1714473 -250 288 C-253.06117253 291.10246002 -256.23142268 293.98106424 -259.53515625 296.8203125 C-262.91984976 299.81343291 -266.20550434 302.90826114 -269.5 306 C-273.95667687 310.17884816 -278.42489352 314.32150674 -283.05859375 318.3046875 C-285.51709816 320.45155051 -287.910289 322.66537132 -290.3125 324.875 C-294.82903837 328.99906676 -299.49133016 332.87936865 -304.25 336.71875 C-307.08099578 339.06718968 -309.79383598 341.50909902 -312.5 344 C-316.86769492 348.01605847 -321.36849236 351.79385454 -325.984375 355.51953125 C-329.54670981 358.44969007 -333.02454253 361.46780951 -336.5 364.5 C-341.59326895 368.93738505 -346.73035329 373.29961194 -351.984375 377.546875 C-354.38464202 379.49942382 -356.76640077 381.46924297 -359.140625 383.453125 C-359.88006348 384.06873291 -360.61950195 384.68434082 -361.38134766 385.31860352 C-362.83170872 386.52671167 -364.27948724 387.73793001 -365.72412109 388.95288086 C-374.10846752 395.91670607 -382.15994062 401.92391342 -393.1875 403.4375 C-397.01709871 402.84178464 -399.04790477 401.49288042 -402 399 C-404.89559612 394.35053925 -405.54683859 390.25254488 -405.5 384.875 C-405.49427979 384.09656738 -405.48855957 383.31813477 -405.48266602 382.51611328 C-403.94765667 330.57387794 -355.81815808 280.54935038 -325.89892578 241.48095703 C-324.12644226 239.16519751 -322.35738098 236.8468797 -320.58984375 234.52734375 C-309.62759978 220.14898164 -298.51140728 205.89129462 -287.32666016 191.68554688 C-285.51029811 189.37782447 -283.69600891 187.06847668 -281.88183594 184.7590332 C-280.96205766 183.58818471 -280.04213622 182.41744866 -279.12207031 181.24682617 C-276.84104052 178.34454359 -274.56153702 175.44108704 -272.28515625 172.53515625 C-267.05509493 165.86231939 -261.786497 159.22245764 -256.48291016 152.60791016 C-251.73497767 146.6810536 -247.04193285 140.71206408 -242.35888672 134.73388672 C-240.07546692 131.82033167 -237.78745595 128.91038646 -235.5 126 C-234.57941982 124.82813071 -233.65884689 123.65625571 -232.73828125 122.484375 C-230.94521476 120.20217473 -229.150882 117.92097944 -227.35546875 115.640625 C-221.07482849 107.66073482 -214.83030595 99.65327048 -208.6015625 91.6328125 C-206.24770122 88.60242275 -203.88828473 85.57651092 -201.5234375 82.5546875 C-189.04575194 66.5957171 -176.93095301 50.37095423 -165 34 C-164.01 34.33 -163.02 34.66 -162 35 C-163.52953036 39.77753307 -166.22067089 43.02311127 -169.375 46.8125 C-173.74612971 52.16530982 -178.00044512 57.57978001 -182.125 63.125 C-183.13010597 64.47403461 -184.13531295 65.82299396 -185.140625 67.171875 C-185.62337891 67.81962891 -186.10613281 68.46738281 -186.60351562 69.13476562 C-190.34570116 74.13306939 -194.17386505 79.06584406 -198 84 C-198.53383301 84.68852051 -199.06766602 85.37704102 -199.61767578 86.08642578 C-206.93838549 95.52297144 -214.28916243 104.93536128 -221.67773438 114.31884766 C-223.02154921 116.02739805 -224.36270038 117.73800761 -225.703125 119.44921875 C-230.93665675 126.12761353 -236.20942851 132.77246072 -241.51708984 139.39208984 C-246.26502233 145.3189464 -250.95806715 151.28793592 -255.64111328 157.26611328 C-257.92453303 160.17966827 -260.21250803 163.08964193 -262.5 166 C-263.41668823 167.16664973 -264.3333549 168.33331639 -265.25 169.5 C-281.75 190.5 -281.75 190.5 -283.12426758 192.24902344 C-284.04343313 193.41890016 -284.96254095 194.58882223 -285.8815918 195.75878906 C-288.13456094 198.62671157 -290.38843723 201.4939099 -292.64453125 204.359375 C-295.43385556 207.90298679 -298.21796511 211.4506634 -301 215 C-301.52964355 215.67514648 -302.05928711 216.35029297 -302.60498047 217.04589844 C-309.92948621 226.3913262 -317.14956984 235.80644698 -324.24853516 245.32446289 C-327.48555881 249.66123923 -330.74286085 253.97959322 -334.046875 258.265625 C-341.70070666 268.19912661 -349.04847244 278.24888229 -356.05078125 288.65234375 C-358.64077529 292.49672222 -361.33245524 296.25454517 -364.0625 300 C-381.29262426 323.8622156 -405.89233054 358.11234202 -401.67578125 389.40625 C-400.91940042 392.74642776 -399.90681164 395.13978254 -398 398 C-391.0861093 399.85193501 -386.19000688 398.42947109 -380 395 C-376.48513228 392.53459515 -373.2542556 389.79647041 -370 387 C-368.23190437 385.55913401 -366.46099364 384.1217166 -364.6875 382.6875 C-360.0274384 378.86874712 -355.4250792 374.98601718 -350.83447266 371.08447266 C-347.44103984 368.20492259 -344.01759017 365.36817528 -340.5625 362.5625 C-334.55426535 357.66883642 -328.68540867 352.61973208 -322.81591797 347.56152344 C-320.99699352 345.9974147 -319.17319921 344.43918924 -317.34765625 342.8828125 C-311.2351607 337.66875232 -305.17777424 332.41045643 -299.2265625 327.01171875 C-297.16895609 325.15265331 -295.09153237 323.32071642 -293 321.5 C-289.15028266 318.14502545 -285.35347002 314.73361928 -281.5625 311.3125 C-279.08734669 309.07882507 -276.60631688 306.85182284 -274.125 304.625 C-265.74194279 297.07633729 -257.44591639 289.43455944 -249.1875 281.75 C-248.57753174 281.18385986 -247.96756348 280.61771973 -247.33911133 280.03442383 C-244.35115573 277.24791257 -241.41749703 274.42696839 -238.55078125 271.515625 C-236.28466529 269.22913605 -233.9647425 267.08268242 -231.50878906 265.00268555 C-225.85243273 260.078763 -220.60251662 254.74674902 -215.30859375 249.44140625 C-214.19350989 248.32699782 -213.07827778 247.21273771 -211.96290588 246.09861755 C-209.63746238 243.77463979 -207.31381489 241.44888536 -204.99145508 239.12182617 C-202.03412097 236.15879549 -199.07231872 233.2002783 -196.10914516 230.24308872 C-193.80889402 227.94647368 -191.51105769 225.64745434 -189.21391487 223.34773064 C-188.12354703 222.25670194 -187.0324532 221.16639823 -185.94058037 220.07687569 C-180.58418711 214.72948777 -175.28624454 209.37218986 -170.38124084 203.60142517 C-167.65586846 200.44159974 -164.61205871 197.59595191 -161.625 194.6875 C-158.91693056 191.91495272 -156.38903544 189.03289965 -153.8515625 186.10546875 C-150.21335287 181.96834852 -146.39373185 177.9991561 -142.60546875 174 C-138.83736882 170.00565804 -135.16694898 165.94620278 -131.56738281 161.79931641 C-129.62031046 159.56412587 -127.62505531 157.37529997 -125.625 155.1875 C-122.49577173 151.72469918 -119.49499651 148.19320997 -116.5625 144.5625 C-113.48663412 140.75912497 -110.31246834 137.09917348 -107 133.5 C-102.94016355 129.08359856 -99.10676179 124.53836478 -95.33984375 119.87109375 C-92.81266253 116.77012849 -90.22370221 113.728379 -87.625 110.6875 C-83.3760545 105.69896434 -79.28564786 100.60669933 -75.26171875 95.43554688 C-71.77888738 90.96673085 -68.21501344 86.5704754 -64.625 82.1875 C-58.50364381 74.69229361 -52.60982195 67.03959586 -46.76708984 59.32617188 C-44.87974855 56.8417027 -42.98186098 54.36555589 -41.08203125 51.890625 C-32.52426241 40.72983814 -24.16678812 29.44954289 -16 18 C-14.9910793 16.58970503 -13.98196818 15.17954626 -12.97265625 13.76953125 C-10.64475147 10.51563768 -8.32099582 7.25882483 -6 4 C-7.98 4 -9.96 4 -12 4 C-11.67 3.01 -11.34 2.02 -11 1 C-7.50970582 -0.47666292 -3.72563614 -0.07164685 0 0 Z " fill="#000000" transform="translate(534,24)"/>
<path d="M0 0 C1.19287411 3.87684087 2 6.91621923 2 11 C1.01 11 0.02 11 -1 11 C-1.99 9.02 -1.99 9.02 -3 7 C-3.34667725 7.42708252 -3.69335449 7.85416504 -4.05053711 8.29418945 C-6.8851606 11.78580454 -9.72103689 15.27639324 -12.55859375 18.765625 C-14.51294307 21.16885313 -16.46397438 23.57451609 -18.41015625 25.984375 C-23.69301054 32.50154104 -29.16085854 38.84417936 -34.671875 45.16796875 C-36.82221615 47.63736458 -38.95829919 50.11764334 -41.078125 52.61328125 C-47.01014051 59.59672334 -53.08363193 66.4078753 -59.328125 73.11328125 C-61.99842945 75.99830316 -64.58934259 78.93706368 -67.16015625 81.91015625 C-70.03984905 85.18114489 -73.00354253 88.37503091 -75.95556641 91.58056641 C-78.48754824 94.33491097 -80.99042801 97.1075121 -83.4375 99.9375 C-87.98838475 105.18350796 -92.74299661 110.24360309 -97.46240234 115.33740234 C-99.83708085 117.90513188 -102.20046193 120.48314593 -104.5625 123.0625 C-105.01278564 123.55403564 -105.46307129 124.04557129 -105.92700195 124.55200195 C-107.28486894 126.03448408 -108.64247978 127.51720033 -110 129 C-121.33714331 141.38339734 -132.71920887 153.72063825 -144.2109375 165.9609375 C-147.81481736 169.80029292 -151.40870337 173.64887715 -155 177.5 C-156.72916859 179.35301478 -158.45853243 181.20584708 -160.18798828 183.05859375 C-161.44440562 184.404731 -162.7005733 185.7511013 -163.95654297 187.09765625 C-165.94893581 189.23295108 -167.94304682 191.36662968 -169.9375 193.5 C-170.54013672 194.14646484 -171.14277344 194.79292969 -171.76367188 195.45898438 C-174.70612249 198.60346372 -177.6821555 201.69995812 -180.73828125 204.734375 C-183.01629515 206.99681871 -185.19094231 209.28365617 -187.25 211.75 C-190.18279697 215.15838567 -193.30074446 218.34397765 -196.5 221.5 C-199.5323035 224.49176468 -202.50154369 227.49152087 -205.25 230.75 C-209.42651643 235.66174671 -214.07264635 240.12157025 -218.67089844 244.63378906 C-222.02058424 247.93878947 -225.15613984 251.23458516 -228 255 C-228.99 254.67 -229.98 254.34 -231 254 C-229.6124182 250.86120619 -228.00476592 248.77745205 -225.55078125 246.390625 C-224.86693359 245.71773437 -224.18308594 245.04484375 -223.47851562 244.3515625 C-222.76373047 243.65804687 -222.04894531 242.96453125 -221.3125 242.25 C-216.54996842 237.60664206 -211.97914143 232.91017456 -207.64135742 227.86621094 C-205.2197419 225.11285246 -202.62432462 222.55826014 -200 220 C-196.07680574 216.13016603 -192.3457321 212.19181189 -188.7734375 207.9921875 C-185.80550085 204.65816175 -182.58444731 201.57739515 -179.41015625 198.44140625 C-176.73145468 195.72797273 -174.25391882 192.89222977 -171.77734375 189.99609375 C-169.05144841 186.9347036 -166.10858642 184.10034836 -163.19140625 181.22265625 C-160.57898932 178.5729856 -158.16697379 175.78827197 -155.74609375 172.96484375 C-153.34790999 170.26621639 -150.78388476 167.75685425 -148.1875 165.25 C-146.29344277 163.30182685 -144.51049805 161.31285673 -142.73046875 159.26171875 C-139.03321423 155.00549682 -135.19259292 150.90173672 -131.3125 146.8125 C-124.48782635 139.59022659 -117.71823289 132.32127202 -111 125 C-110.53787109 124.49662109 -110.07574219 123.99324219 -109.59960938 123.47460938 C-106.85064484 120.47958368 -104.10419016 117.48226819 -101.35888672 114.48388672 C-99.53205051 112.48900521 -97.70419937 110.49505531 -95.8762207 108.5012207 C-94.96184816 107.50379711 -94.04762187 106.50623942 -93.13354492 105.50854492 C-90.79494313 102.95624259 -88.45409299 100.40606063 -86.109375 97.859375 C-81.61652002 92.97590332 -77.15575483 88.07294502 -72.80859375 83.05859375 C-70.5698875 80.5104335 -68.28589788 78.00589407 -66 75.5 C-60.98086479 69.99100925 -56.05879564 64.41276483 -51.21875 58.74609375 C-50.1875417 57.53902687 -49.15629052 56.33199663 -48.125 55.125 C-47.60526611 54.51640137 -47.08553223 53.90780273 -46.55004883 53.28076172 C-43.52094405 49.74357043 -40.44843697 46.25598946 -37.3125 42.8125 C-33.51859462 38.63034936 -29.93550285 34.30904715 -26.38671875 29.91796875 C-24.24374865 27.29800367 -22.06051912 24.72225684 -19.85620117 22.15429688 C-14.56468567 15.98404923 -9.66243055 9.66634052 -5 3 C-6.98 3.33 -8.96 3.66 -11 4 C-11 3.01 -11 2.02 -11 1 C-7.32589215 -0.17571451 -3.83070817 -0.07366746 0 0 Z " fill="#000000" transform="translate(233,11)"/>
<path d="M0 0 C3.0625 0.1875 3.0625 0.1875 5.0625 2.1875 C4.90004442 5.92397845 4.47466356 7.71288742 2 10.5625 C1.360625 11.09875 0.72125 11.635 0.0625 12.1875 C1.7125 12.5175 3.3625 12.8475 5.0625 13.1875 C5.0625 13.8475 5.0625 14.5075 5.0625 15.1875 C1.7625 15.1875 -1.5375 15.1875 -4.9375 15.1875 C-2.9375 11.1875 -2.9375 11.1875 -0.8125 8.625 C1.36735538 6.30372611 1.36735538 6.30372611 1.0625 3.1875 C0.4025 3.1875 -0.2575 3.1875 -0.9375 3.1875 C-1.2675 3.8475 -1.5975 4.5075 -1.9375 5.1875 C-2.9275 5.1875 -3.9175 5.1875 -4.9375 5.1875 C-3.82120474 0.24390669 -3.82120474 0.24390669 0 0 Z " fill="#000000" transform="translate(276.9375,204.8125)"/>
<path d="M0 0 C1.65 0.99 3.3 1.98 5 3 C3.6302836 6.99500618 1.74277578 9.80009492 -1 13 C-1.66 12.67 -2.32 12.34 -3 12 C-3 11.01 -3 10.02 -3 9 C-3.99 9 -4.98 9 -6 9 C-4.47291037 5.56404834 -2.40072955 2.88087546 0 0 Z " fill="#000000" transform="translate(290,41)"/>
<path d="M0 0 C1.32 0.99 2.64 1.98 4 3 C2.02 5.64 0.04 8.28 -2 11 C-4.475 10.01 -4.475 10.01 -7 9 C-5.44499019 5.18315774 -2.96404505 2.80804268 0 0 Z " fill="#000000" transform="translate(603,53)"/>
<path d="M0 0 C0 4.95 0 9.9 0 15 C-0.99 15 -1.98 15 -3 15 C-3 11.37 -3 7.74 -3 4 C-3.99 4.33 -4.98 4.66 -6 5 C-5.625 3.0625 -5.625 3.0625 -5 1 C-3 0 -3 0 0 0 Z " fill="#000000" transform="translate(264,205)"/>
<path d="M0 0 C0.99 0.33 1.98 0.66 3 1 C1.56036361 4.35915158 -0.12416589 6.71624938 -3 9 C-5.1328125 8.60546875 -5.1328125 8.60546875 -7 8 C-6.02133662 6.85373678 -5.04205413 5.70800212 -4.0625 4.5625 C-3.51722656 3.92441406 -2.97195313 3.28632813 -2.41015625 2.62890625 C-1.63204305 1.73008851 -0.84063472 0.84063472 0 0 Z " fill="#000000" transform="translate(301,359)"/>
<path d="M0 0 C0.99 0.33 1.98 0.66 3 1 C1.55873214 4.36295835 -0.20592655 6.62927102 -3 9 C-3.99 9 -4.98 9 -6 9 C-5.52797514 4.75177626 -3.03344482 2.80010291 0 0 Z " fill="#000000" transform="translate(375,288)"/>
<path d="M0 0 C0.66 0.33 1.32 0.66 2 1 C1.82374165 3.37948772 1.30280227 4.70225849 -0.40234375 6.37890625 C-1.90649092 7.62115486 -3.45129851 8.81376056 -5 10 C-5.66 9.01 -6.32 8.02 -7 7 C-4.69 4.69 -2.38 2.38 0 0 Z " fill="#000000" transform="translate(83,251)"/>
<path d="M0 0 C0.99 0.33 1.98 0.66 3 1 C1.51218185 4.78717347 -0.61988409 6.77407001 -4 9 C-4.99 8.67 -5.98 8.34 -7 8 C-6.02133662 6.85373678 -5.04205413 5.70800212 -4.0625 4.5625 C-3.51722656 3.92441406 -2.97195313 3.28632813 -2.41015625 2.62890625 C-1.63204305 1.73008851 -0.84063472 0.84063472 0 0 Z " fill="#000000" transform="translate(420,245)"/>
<path d="M0 0 C0.66 0.33 1.32 0.66 2 1 C0.68775452 4.93673644 -0.91910327 7.22719294 -4 10 C-4.99 9.67 -5.98 9.34 -7 9 C-5.03681826 5.46627288 -2.95929119 2.75520215 0 0 Z " fill="#000000" transform="translate(477,186)"/>
<path d="M0 0 C0.99 0.99 1.98 1.98 3 3 C0.69 5.31 -1.62 7.62 -4 10 C-4.66 9.67 -5.32 9.34 -6 9 C-5.52797514 4.75177626 -3.03344482 2.80010291 0 0 Z " fill="#000000" transform="translate(152,181)"/>
<path d="M0 0 C0.66 0.33 1.32 0.66 2 1 C0.55873214 4.36295835 -1.20592655 6.62927102 -4 9 C-4.99 9 -5.98 9 -7 9 C-6.82374165 6.62051228 -6.30280227 5.29774151 -4.59765625 3.62109375 C-3.09350908 2.37884514 -1.54870149 1.18623944 0 0 Z " fill="#000000" transform="translate(257,402)"/>
<path d="M0 0 C0.99 0.99 1.98 1.98 3 3 C2.07213211 4.00894372 1.13231567 5.00690907 0.1875 6 C-0.59560547 6.8353125 -0.59560547 6.8353125 -1.39453125 7.6875 C-3 9 -3 9 -6 9 C-5.52797514 4.75177626 -3.03344482 2.80010291 0 0 Z " fill="#000000" transform="translate(221,111)"/>
<path d="M0 0 C-0.17625835 2.37948772 -0.69719773 3.70225849 -2.40234375 5.37890625 C-3.90649092 6.62115486 -5.45129851 7.81376056 -7 9 C-7.66 8.01 -8.32 7.02 -9 6 C-8.07213211 4.99105628 -7.13231567 3.99309093 -6.1875 3 C-5.66542969 2.443125 -5.14335937 1.88625 -4.60546875 1.3125 C-3 0 -3 0 0 0 Z " fill="#000000" transform="translate(237,98)"/>
<path d="M0 0 C0.99 0 1.98 0 3 0 C2.52797514 4.24822374 0.03344482 6.19989709 -3 9 C-3.99 8.67 -4.98 8.34 -6 8 C-2.25 2.25 -2.25 2.25 0 0 Z " fill="#000000" transform="translate(574,83)"/>
<path d="M0 0 C0.99 0.33 1.98 0.66 3 1 C1.8905928 4.48670834 0.73662334 7.77484237 -1 11 C-1.99 10.67 -2.98 10.34 -4 10 C-2.8905928 6.51329166 -1.73662334 3.22515763 0 0 Z " fill="#000000" transform="translate(404,358)"/>
<path d="M0 0 C0.99 0.33 1.98 0.66 3 1 C2.09827532 2.17825358 1.17798498 3.34231577 0.25 4.5 C-0.51570313 5.47453125 -0.51570313 5.47453125 -1.296875 6.46875 C-3 8 -3 8 -7 8 C-5.51218185 4.21282653 -3.38011591 2.22592999 0 0 Z " fill="#000000" transform="translate(331,331)"/>
<path d="M0 0 C0.66 0.33 1.32 0.66 2 1 C1.61479436 3.53910197 1.29902057 4.72751123 -0.62890625 6.484375 C-1.26699219 6.90203125 -1.90507812 7.3196875 -2.5625 7.75 C-3.20316406 8.17796875 -3.84382813 8.6059375 -4.50390625 9.046875 C-5.24447266 9.51867187 -5.24447266 9.51867187 -6 10 C-6 6 -6 6 -4.6875 4.296875 C-4.130625 3.78640625 -3.57375 3.2759375 -3 2.75 C-2.1646875 1.96882813 -2.1646875 1.96882813 -1.3125 1.171875 C-0.879375 0.78515625 -0.44625 0.3984375 0 0 Z " fill="#000000" transform="translate(346,316)"/>
<path d="M0 0 C0.99 0.33 1.98 0.66 3 1 C1.66511872 4.59391114 0.03977277 7.75490696 -2 11 C-2.99 10.34 -3.98 9.68 -5 9 C-3.35 6.03 -1.7 3.06 0 0 Z " fill="#000000" transform="translate(433,305)"/>
<path d="M0 0 C0.99 0.33 1.98 0.66 3 1 C2.07038578 2.15224028 1.1309875 3.29659176 0.1875 4.4375 C-0.59560547 5.39462891 -0.59560547 5.39462891 -1.39453125 6.37109375 C-3 8 -3 8 -6 9 C-6 5 -6 5 -3.1875 2.1875 C-2.135625 1.465625 -1.08375 0.74375 0 0 Z " fill="#000000" transform="translate(703,273)"/>
<path d="M0 0 C0.99 0.99 1.98 1.98 3 3 C2.07213211 4.00894372 1.13231567 5.00690907 0.1875 6 C-0.59560547 6.8353125 -0.59560547 6.8353125 -1.39453125 7.6875 C-3 9 -3 9 -6 9 C-4.68775452 5.06326356 -3.08089673 2.77280706 0 0 Z " fill="#000000" transform="translate(69,265)"/>
<path d="M0 0 C0.99 0 1.98 0 3 0 C2.52797514 4.24822374 0.03344482 6.19989709 -3 9 C-3.99 8.67 -4.98 8.34 -6 8 C-5.07456291 6.65826597 -4.13422595 5.32679841 -3.1875 4 C-2.66542969 3.2575 -2.14335937 2.515 -1.60546875 1.75 C-0.81076172 0.88375 -0.81076172 0.88375 0 0 Z " fill="#000000" transform="translate(490,172)"/>
<path d="M0 0 C-1.52708963 3.43595166 -3.59927045 6.11912454 -6 9 C-6.99 8.67 -7.98 8.34 -9 8 C-7.13554727 3.64961029 -5.02378599 0 0 0 Z " fill="#000000" transform="translate(563,98)"/>
<path d="M0 0 C0.33 0.99 0.66 1.98 1 3 C-0.26839526 3.50615298 -1.53983102 4.00469099 -2.8125 4.5 C-3.87404297 4.91765625 -3.87404297 4.91765625 -4.95703125 5.34375 C-7 6 -7 6 -10 6 C-10 5.01 -10 4.02 -10 3 C-8.70990357 2.49596232 -7.41786211 1.99690074 -6.125 1.5 C-5.04605469 1.08234375 -5.04605469 1.08234375 -3.9453125 0.65625 C-2 0 -2 0 0 0 Z " fill="#000000" transform="translate(145,478)"/>
<path d="M0 0 C0.66 0.33 1.32 0.66 2 1 C0.55527654 4.80881639 -1.32603071 6.29742886 -5 8 C-5.99 7.67 -6.98 7.34 -8 7 C-8 6.34 -8 5.68 -8 5 C-6.3203125 3.67578125 -6.3203125 3.67578125 -4.125 2.3125 C-3.40570313 1.85488281 -2.68640625 1.39726562 -1.9453125 0.92578125 C-1.30335938 0.62027344 -0.66140625 0.31476563 0 0 Z " fill="#000000" transform="translate(195,451)"/>
<path d="M0 0 C0.99 0.33 1.98 0.66 3 1 C3 1.66 3 2.32 3 3 C1.57421875 4.32421875 1.57421875 4.32421875 -0.3125 5.6875 C-0.92738281 6.14511719 -1.54226562 6.60273438 -2.17578125 7.07421875 C-2.77777344 7.37972656 -3.37976563 7.68523437 -4 8 C-4.99 7.67 -5.98 7.34 -7 7 C-7 6.34 -7 5.68 -7 5 C-5.57421875 3.67578125 -5.57421875 3.67578125 -3.6875 2.3125 C-3.07261719 1.85488281 -2.45773438 1.39726562 -1.82421875 0.92578125 C-1.22222656 0.62027344 -0.62023437 0.31476563 0 0 Z " fill="#000000" transform="translate(226,429)"/>
<path d="M0 0 C-0.38520564 2.53910197 -0.70097943 3.72751123 -2.62890625 5.484375 C-3.26699219 5.90203125 -3.90507813 6.3196875 -4.5625 6.75 C-5.20316406 7.17796875 -5.84382812 7.6059375 -6.50390625 8.046875 C-7.24447266 8.51867187 -7.24447266 8.51867187 -8 9 C-8 5 -8 5 -5.6875 2.25 C-3 0 -3 0 0 0 Z " fill="#000000" transform="translate(559,405)"/>
<path d="M0 0 C0.66 0.33 1.32 0.66 2 1 C0.55746343 4.36591866 -1.33264727 6.51047079 -4 9 C-4.99 8.67 -5.98 8.34 -7 8 C-5.50902342 4.2047869 -3.24299151 2.38957269 0 0 Z " fill="#000000" transform="translate(601,365)"/>
<path d="M0 0 C0.66 0.33 1.32 0.66 2 1 C0.8905928 4.48670834 -0.26337666 7.77484237 -2 11 C-2.99 10.67 -3.98 10.34 -5 10 C-3.84414715 6.08788267 -2.64465038 3.1254959 0 0 Z " fill="#000000" transform="translate(414,340)"/>
<path d="M0 0 C-0.17625835 2.37948772 -0.69719773 3.70225849 -2.40234375 5.37890625 C-3.90649092 6.62115486 -5.45129851 7.81376056 -7 9 C-7.66 8.67 -8.32 8.34 -9 8 C-7.47364599 4.11473526 -4.49771687 0 0 0 Z " fill="#000000" transform="translate(632,339)"/>
<path d="M0 0 C0.99 0.33 1.98 0.66 3 1 C1.50958227 4.79379058 -0.69062512 6.68343758 -4 9 C-4.66 9 -5.32 9 -6 9 C-5.52797514 4.75177626 -3.03344482 2.80010291 0 0 Z " fill="#000000" transform="translate(688,286)"/>
<path d="M0 0 C0.99 0 1.98 0 3 0 C1.66511872 3.59391114 0.03977277 6.75490696 -2 10 C-2.99 9.67 -3.98 9.34 -5 9 C-3.76067171 5.56801397 -2.49698489 2.69674368 0 0 Z " fill="#000000" transform="translate(476,237)"/>
<path d="M0 0 C0.99 0.66 1.98 1.32 3 2 C0.69 4.64 -1.62 7.28 -4 10 C-4.99 9.01 -5.98 8.02 -7 7 C-4.69 4.69 -2.38 2.38 0 0 Z " fill="#000000" transform="translate(463,201)"/>
<path d="M0 0 C0.99 0.33 1.98 0.66 3 1 C0.525 5.455 0.525 5.455 -2 10 C-2.99 10 -3.98 10 -5 10 C-4.38545304 6.00544473 -2.29353263 3.25533664 0 0 Z " fill="#000000" transform="translate(510,186)"/>
<path d="M0 0 C0.66 0.33 1.32 0.66 2 1 C0.6302836 4.99500618 -1.25722422 7.80009492 -4 11 C-4.66 10.67 -5.32 10.34 -6 10 C-4.6302836 6.00499382 -2.74277578 3.19990508 0 0 Z " fill="#000000" transform="translate(522,169)"/>
<path d="M0 0 C0.99 0 1.98 0 3 0 C1.66511872 3.59391114 0.03977277 6.75490696 -2 10 C-2.99 9.67 -3.98 9.34 -5 9 C-3.76067171 5.56801397 -2.49698489 2.69674368 0 0 Z " fill="#000000" transform="translate(227,143)"/>
<path d="M0 0 C0.66 0.33 1.32 0.66 2 1 C0.47291037 4.43595166 -1.59927045 7.11912454 -4 10 C-4.99 9.67 -5.98 9.34 -7 9 C-5.44499019 5.18315774 -2.96404505 2.80804268 0 0 Z " fill="#000000" transform="translate(547,112)"/>
<path d="M0 0 C0.99 0.33 1.98 0.66 3 1 C1.49901406 4.11743233 -0.02431822 7.15501823 -2 10 C-2.99 10 -3.98 10 -5 10 C-4.38545304 6.00544473 -2.29353263 3.25533664 0 0 Z " fill="#000000" transform="translate(568,103)"/>
<path d="M0 0 C4.24846075 0.47205119 6.26819288 2.88877522 9 6 C9 6.66 9 7.32 9 8 C4.75153925 7.52794881 2.73180712 5.11122478 0 2 C0 1.34 0 0.68 0 0 Z " fill="#000000" transform="translate(81,471)"/>
<path d="M0 0 C0.66 0.99 1.32 1.98 2 3 C0.71186658 3.83878455 -0.58063256 4.67086783 -1.875 5.5 C-2.59429687 5.9640625 -3.31359375 6.428125 -4.0546875 6.90625 C-6 8 -6 8 -8 8 C-8.33 7.01 -8.66 6.02 -9 5 C-6.03 3.35 -3.06 1.7 0 0 Z " fill="#000000" transform="translate(179,461)"/>
<path d="M0 0 C1.17539996 0.92652701 2.34010577 1.86663387 3.5 2.8125 C4.1496875 3.33457031 4.799375 3.85664063 5.46875 4.39453125 C7 6 7 6 7 9 C4.62051228 8.82374165 3.29774151 8.30280227 1.62109375 6.59765625 C0.37884514 5.09350908 -0.81376056 3.54870149 -2 2 C-1.34 1.34 -0.68 0.68 0 0 Z " fill="#000000" transform="translate(402,449)"/>
<path d="M0 0 C0.66 0.33 1.32 0.66 2 1 C0.49776416 5.20626034 -2.28550034 6.73900021 -6 9 C-6.33 7.68 -6.66 6.36 -7 5 C-4.69 3.35 -2.38 1.7 0 0 Z " fill="#000000" transform="translate(528,431)"/>
<path d="M0 0 C0.66 0.33 1.32 0.66 2 1 C0.55873214 4.36295835 -1.20592655 6.62927102 -4 9 C-4.99 9 -5.98 9 -7 9 C-6.82374165 6.62051228 -6.30280227 5.29774151 -4.59765625 3.62109375 C-3.09350908 2.37884514 -1.54870149 1.18623944 0 0 Z " fill="#000000" transform="translate(242,416)"/>
<path d="M0 0 C0.99 0.99 1.98 1.98 3 3 C1.90716423 4.03295436 0.80029421 5.05107835 -0.3125 6.0625 C-0.92738281 6.63097656 -1.54226563 7.19945312 -2.17578125 7.78515625 C-2.77777344 8.18605469 -3.37976563 8.58695312 -4 9 C-4.99 8.67 -5.98 8.34 -7 8 C-6.02133662 6.85373678 -5.04205413 5.70800212 -4.0625 4.5625 C-3.51722656 3.92441406 -2.97195313 3.28632813 -2.41015625 2.62890625 C-1.63204305 1.73008851 -0.84063472 0.84063472 0 0 Z " fill="#000000" transform="translate(586,378)"/>
<path d="M0 0 C0.99 0.33 1.98 0.66 3 1 C1.68 3.97 0.36 6.94 -1 10 C-1.99 10 -2.98 10 -4 10 C-3.43454163 6.04179141 -2.19097652 3.3340947 0 0 Z " fill="#000000" transform="translate(83,379)"/>
<path d="M0 0 C0.99 0 1.98 0 3 0 C1.84414715 3.91211733 0.64465038 6.8745041 -2 10 C-2.99 9.67 -3.98 9.34 -5 9 C-3.35 6.03 -1.7 3.06 0 0 Z " fill="#000000" transform="translate(423,323)"/>
<path d="M0 0 C0.556875 0.268125 1.11375 0.53625 1.6875 0.8125 C-1.12054268 3.77654505 -3.49565774 6.25749019 -7.3125 7.8125 C-7.3125 4.8125 -7.3125 4.8125 -5.0625 2.0625 C-2.3125 -0.1875 -2.3125 -0.1875 0 0 Z " fill="#000000" transform="translate(660.3125,313.1875)"/>
<path d="M0 0 C0.99 0.33 1.98 0.66 3 1 C0.525 5.455 0.525 5.455 -2 10 C-2.99 9.67 -3.98 9.34 -5 9 C-3.7508258 5.54074837 -2.32472205 2.85306797 0 0 Z " fill="#000000" transform="translate(444,288)"/>
<path d="M0 0 C0.66 0.33 1.32 0.66 2 1 C0.4169423 5.2742558 -2.50568404 7.26531794 -6 10 C-6.33 8.68 -6.66 7.36 -7 6 C-4.69 4.02 -2.38 2.04 0 0 Z " fill="#000000" transform="translate(406,259)"/>
<path d="M0 0 C0.66 0.33 1.32 0.66 2 1 C0.79157144 5.43090471 -0.51668565 7.98112756 -4 11 C-4.65234375 9.234375 -4.65234375 9.234375 -5 7 C-4.00390625 5.078125 -4.00390625 5.078125 -2.5625 3.25 C-2.08941406 2.63640625 -1.61632812 2.0228125 -1.12890625 1.390625 C-0.75636719 0.93171875 -0.38382813 0.4728125 0 0 Z " fill="#000000" transform="translate(153,259)"/>
<path d="M0 0 C0.99 0 1.98 0 3 0 C1.66511872 3.59391114 0.03977277 6.75490696 -2 10 C-2.99 9.67 -3.98 9.34 -5 9 C-4.3566152 7.686298 -3.71021785 6.37407102 -3.0625 5.0625 C-2.70285156 4.33160156 -2.34320313 3.60070312 -1.97265625 2.84765625 C-1 1 -1 1 0 0 Z " fill="#000000" transform="translate(465,254)"/>
<path d="M0 0 C0.99 0.33 1.98 0.66 3 1 C1.6302836 4.99500618 -0.25722422 7.80009492 -3 11 C-3.66 10.67 -4.32 10.34 -5 10 C-3.66511872 6.40608886 -2.03977277 3.24509304 0 0 Z " fill="#000000" transform="translate(163,242)"/>
<path d="M0 0 C0.99 0.33 1.98 0.66 3 1 C1.7508258 4.45925163 0.32472205 7.14693203 -2 10 C-2.99 9.67 -3.98 9.34 -5 9 C-3.35 6.03 -1.7 3.06 0 0 Z " fill="#000000" transform="translate(184,209)"/>
<path d="M0 0 C-1.55500981 3.81684226 -4.03595495 6.19195732 -7 9 C-7.66 8.01 -8.32 7.02 -9 6 C-8.07213211 4.99105628 -7.13231567 3.99309093 -6.1875 3 C-5.66542969 2.443125 -5.14335937 1.88625 -4.60546875 1.3125 C-3 0 -3 0 0 0 Z " fill="#000000" transform="translate(168,168)"/>
<path d="M0 0 C0.99 0.33 1.98 0.66 3 1 C0.525 5.455 0.525 5.455 -2 10 C-2.99 9.67 -3.98 9.34 -5 9 C-3.7508258 5.54074837 -2.32472205 2.85306797 0 0 Z " fill="#000000" transform="translate(238,126)"/>
<path d="M0 0 C0.99 0 1.98 0 3 0 C1.6062718 4.43458973 -0.60582235 6.87378374 -4 10 C-4 5.25852179 -2.90322818 3.64977257 0 0 Z " fill="#000000" transform="translate(556,120)"/>
<path d="M0 0 C0.99 0.33 1.98 0.66 3 1 C1.02 3.97 -0.96 6.94 -3 10 C-3.99 9.34 -4.98 8.68 -6 8 C-4.02 5.36 -2.04 2.72 0 0 Z " fill="#000000" transform="translate(580,87)"/>
<path d="M0 0 C0.99 0.33 1.98 0.66 3 1 C1.47291037 4.43595166 -0.59927045 7.11912454 -3 10 C-3.99 9.67 -4.98 9.34 -6 9 C-4.02 6.03 -2.04 3.06 0 0 Z " fill="#000000" transform="translate(592,70)"/>
<path d="M0 0 C0.99 0.33 1.98 0.66 3 1 C1.55746343 4.36591866 -0.33264727 6.51047079 -3 9 C-3.99 8.67 -4.98 8.34 -6 8 C-4.02 5.36 -2.04 2.72 0 0 Z " fill="#000000" transform="translate(588,68)"/>
<path d="M0 0 C0.99 0.33 1.98 0.66 3 1 C1.7508258 4.45925163 0.32472205 7.14693203 -2 10 C-2.99 9.67 -3.98 9.34 -5 9 C-3.35 6.03 -1.7 3.06 0 0 Z " fill="#000000" transform="translate(281,60)"/>
<path d="M0 0 C0 0.66 0 1.32 0 2 C-2.75078884 2.91692961 -4.35948913 3.10886083 -7.1875 3.0625 C-9.0746875 3.0315625 -9.0746875 3.0315625 -11 3 C-11 2.01 -11 1.02 -11 0 C-3.375 -1.125 -3.375 -1.125 0 0 Z " fill="#000000" transform="translate(127,484)"/>
<path d="M0 0 C-2.6598561 3.44216672 -5.90288286 3.99504674 -10 5 C-10.33 4.01 -10.66 3.02 -11 2 C-3.57142857 -1.57142857 -3.57142857 -1.57142857 0 0 Z " fill="#000000" transform="translate(164,472)"/>
<path d="M0 0 C0.99 0 1.98 0 3 0 C6 6.625 6 6.625 6 10 C5.01 10 4.02 10 3 10 C0 3.375 0 3.375 0 0 Z " fill="#000000" transform="translate(72,454)"/>
<path d="M0 0 C0.66 0.33 1.32 0.66 2 1 C1 4 1 4 -1.875 5.75 C-5 7 -5 7 -8 6 C-8 5.34 -8 4.68 -8 4 C-6.71349294 3.30289269 -5.42059335 2.61757124 -4.125 1.9375 C-3.40570313 1.55464844 -2.68640625 1.17179687 -1.9453125 0.77734375 C-1.30335938 0.52082031 -0.66140625 0.26429688 0 0 Z " fill="#000000" transform="translate(496,452)"/>
<path d="M0 0 C0.66 0.33 1.32 0.66 2 1 C0.55527654 4.80881639 -1.32603071 6.29742886 -5 8 C-5.99 7.67 -6.98 7.34 -8 7 C-5.42215154 4.35247996 -3.08351902 2.05567935 0 0 Z " fill="#000000" transform="translate(211,440)"/>
<path d="M0 0 C0.99 0 1.98 0 3 0 C3.33 3.3 3.66 6.6 4 10 C3.01 10.33 2.02 10.66 1 11 C0.67 7.37 0.34 3.74 0 0 Z " fill="#000000" transform="translate(68,435)"/>
<path d="M0 0 C0.99 0 1.98 0 3 0 C6.22265625 5.17578125 6.22265625 5.17578125 7 7 C6.67 7.99 6.34 8.98 6 10 C5.34 10 4.68 10 4 10 C0 3.375 0 3.375 0 0 Z " fill="#000000" transform="translate(390,434)"/>
<path d="M0 0 C0.99 0 1.98 0 3 0 C2.34 3.3 1.68 6.6 1 10 C0.01 10 -0.98 10 -2 10 C-1.54177532 6.53058454 -1.10868317 3.32604951 0 0 Z " fill="#000000" transform="translate(388,396)"/>
<path d="M0 0 C-1.44126786 3.36295835 -3.20592655 5.62927102 -6 8 C-6.99 8 -7.98 8 -9 8 C-8.66410006 4.86493389 -7.97334828 3.974751 -5.625 1.75 C-3 0 -3 0 0 0 Z " fill="#000000" transform="translate(574,392)"/>
<path d="M0 0 C0.99 0.33 1.98 0.66 3 1 C3 3 3 3 1.5390625 4.5078125 C0.90742188 5.04148437 0.27578125 5.57515625 -0.375 6.125 C-1.00148438 6.66382813 -1.62796875 7.20265625 -2.2734375 7.7578125 C-4 9 -4 9 -6 9 C-5.52797514 4.75177626 -3.03344482 2.80010291 0 0 Z " fill="#000000" transform="translate(271,388)"/>
<path d="M0 0 C0.99 0.33 1.98 0.66 3 1 C2.09827532 2.17825358 1.17798498 3.34231577 0.25 4.5 C-0.51570313 5.47453125 -0.51570313 5.47453125 -1.296875 6.46875 C-3 8 -3 8 -7 8 C-6.02133662 6.85373678 -5.04205413 5.70800212 -4.0625 4.5625 C-3.51722656 3.92441406 -2.97195313 3.28632813 -2.41015625 2.62890625 C-1.63204305 1.73008851 -0.84063472 0.84063472 0 0 Z " fill="#000000" transform="translate(286,374)"/>
<path d="M0 0 C0.99 0.33 1.98 0.66 3 1 C3 3 3 3 1.5390625 4.5078125 C0.90742187 5.04148437 0.27578125 5.57515625 -0.375 6.125 C-1.00148438 6.66382813 -1.62796875 7.20265625 -2.2734375 7.7578125 C-4 9 -4 9 -6 9 C-5.52797514 4.75177626 -3.03344482 2.80010291 0 0 Z " fill="#000000" transform="translate(615,352)"/>
<path d="M0 0 C0.99 0.33 1.98 0.66 3 1 C2.09827532 2.17825358 1.17798498 3.34231577 0.25 4.5 C-0.51570313 5.47453125 -0.51570313 5.47453125 -1.296875 6.46875 C-3 8 -3 8 -7 8 C-6.02133662 6.85373678 -5.04205413 5.70800212 -4.0625 4.5625 C-3.51722656 3.92441406 -2.97195313 3.28632813 -2.41015625 2.62890625 C-1.63204305 1.73008851 -0.84063472 0.84063472 0 0 Z " fill="#000000" transform="translate(316,345)"/>
<path d="M0 0 C0.99 0.33 1.98 0.66 3 1 C1.80100302 4.0831351 0.52299523 7.06279492 -1 10 C-1.99 10 -2.98 10 -4 10 C-3.29445932 6.33118845 -1.72264494 3.29549466 0 0 Z " fill="#000000" transform="translate(111,327)"/>
<path d="M0 0 C0.66 0 1.32 0 2 0 C1.43768609 3.93619738 0.38314183 6.79192446 -2 10 C-2.99 10 -3.98 10 -5 10 C-4.38479725 6.00118212 -2.39731331 3.19641774 0 0 Z " fill="#000000" transform="translate(122,310)"/>
<path d="M0 0 C0.66 0.33 1.32 0.66 2 1 C0.55746343 4.36591866 -1.33264727 6.51047079 -4 9 C-4.99 8.67 -5.98 8.34 -7 8 C-5.61918777 3.8575633 -3.40174442 2.67796901 0 0 Z " fill="#000000" transform="translate(674,299)"/>
<path d="M0 0 C0.66 0.33 1.32 0.66 2 1 C0.4169423 5.2742558 -2.50568404 7.26531794 -6 10 C-6 6 -6 6 -4.6875 4.296875 C-4.130625 3.78640625 -3.57375 3.2759375 -3 2.75 C-2.1646875 1.96882813 -2.1646875 1.96882813 -1.3125 1.171875 C-0.879375 0.78515625 -0.44625 0.3984375 0 0 Z " fill="#000000" transform="translate(56,279)"/>
<path d="M0 0 C0.99 0.33 1.98 0.66 3 1 C1.68 3.64 0.36 6.28 -1 9 C-2.32 9 -3.64 9 -5 9 C-3.35 6.03 -1.7 3.06 0 0 Z " fill="#000000" transform="translate(142,276)"/>
<path d="M0 0 C-1.55603771 3.81936528 -3.95604931 6.26044438 -7 9 C-7.66 9 -8.32 9 -9 9 C-8.44706396 4.02357564 -5.06735917 0 0 0 Z " fill="#000000" transform="translate(393,274)"/>
<path d="M0 0 C-0.50522222 4.37859255 -3.17827222 6.81651224 -6 10 C-6.99 9.01 -7.98 8.02 -9 7 C-7.88121617 5.82737096 -6.75476949 4.66204862 -5.625 3.5 C-4.68527344 2.52546875 -4.68527344 2.52546875 -3.7265625 1.53125 C-2 0 -2 0 0 0 Z " fill="#000000" transform="translate(451,216)"/>
<path d="M0 0 C0.99 0.66 1.98 1.32 3 2 C2.24266726 3.3410477 1.46867264 4.67269781 0.6875 6 C0.25824219 6.7425 -0.17101562 7.485 -0.61328125 8.25 C-1.07089844 8.8275 -1.52851563 9.405 -2 10 C-2.99 10 -3.98 10 -5 10 C-3.66511872 6.40608886 -2.03977277 3.24509304 0 0 Z " fill="#000000" transform="translate(195,192)"/>
<path d="M0 0 C0.99 0.33 1.98 0.66 3 1 C1.7508258 4.45925163 0.32472205 7.14693203 -2 10 C-2.99 9.67 -3.98 9.34 -5 9 C-3.35 6.03 -1.7 3.06 0 0 Z " fill="#000000" transform="translate(216,159)"/>
<path d="M0 0 C0.99 0 1.98 0 3 0 C2.52797514 4.24822374 0.03344482 6.19989709 -3 9 C-3.99 8.67 -4.98 8.34 -6 8 C-5.07456291 6.65826597 -4.13422595 5.32679841 -3.1875 4 C-2.66542969 3.2575 -2.14335937 2.515 -1.60546875 1.75 C-0.81076172 0.88375 -0.81076172 0.88375 0 0 Z " fill="#000000" transform="translate(504,157)"/>
<path d="M0 0 C0.99 0.33 1.98 0.66 3 1 C1.02 3.97 -0.96 6.94 -3 10 C-3.66 9.67 -4.32 9.34 -5 9 C-3.7508258 5.54074837 -2.32472205 2.85306797 0 0 Z " fill="#000000" transform="translate(533,153)"/>
<path d="M0 0 C0.66 0.33 1.32 0.66 2 1 C0.4169423 5.2742558 -2.50568404 7.26531794 -6 10 C-6 6 -6 6 -4.6875 4.296875 C-4.130625 3.78640625 -3.57375 3.2759375 -3 2.75 C-2.1646875 1.96882812 -2.1646875 1.96882812 -1.3125 1.171875 C-0.879375 0.78515625 -0.44625 0.3984375 0 0 Z " fill="#000000" transform="translate(194,139)"/>
<path d="M0 0 C0.66 0.33 1.32 0.66 2 1 C0.7508258 4.45925163 -0.67527795 7.14693203 -3 10 C-3.99 9.67 -4.98 9.34 -6 9 C-4.02 6.03 -2.04 3.06 0 0 Z " fill="#000000" transform="translate(545,136)"/>
<path d="M0 0 C0.66 0.33 1.32 0.66 2 1 C0.4169423 5.2742558 -2.50568404 7.26531794 -6 10 C-6 6 -6 6 -4.6875 4.296875 C-4.130625 3.78640625 -3.57375 3.2759375 -3 2.75 C-2.1646875 1.96882812 -2.1646875 1.96882812 -1.3125 1.171875 C-0.879375 0.78515625 -0.44625 0.3984375 0 0 Z " fill="#000000" transform="translate(533,127)"/>
<path d="M0 0 C0.66 0.33 1.32 0.66 2 1 C0.4169423 5.2742558 -2.50568404 7.26531794 -6 10 C-6 6 -6 6 -4.6875 4.296875 C-4.130625 3.78640625 -3.57375 3.2759375 -3 2.75 C-2.1646875 1.96882813 -2.1646875 1.96882813 -1.3125 1.171875 C-0.879375 0.78515625 -0.44625 0.3984375 0 0 Z " fill="#000000" transform="translate(263,69)"/>
<path d="M0 0 C7.75 0.875 7.75 0.875 10 2 C10 2.99 10 3.98 10 5 C6.7 4.34 3.4 3.68 0 3 C0 2.01 0 1.02 0 0 Z " fill="#000000" transform="translate(97,482)"/>
<path d="M0 0 C3.3 0.33 6.6 0.66 10 1 C10 1.99 10 2.98 10 4 C8.741875 4.020625 7.48375 4.04125 6.1875 4.0625 C5.47980469 4.07410156 4.77210938 4.08570313 4.04296875 4.09765625 C2 4 2 4 -1 3 C-0.67 2.01 -0.34 1.02 0 0 Z " fill="#000000" transform="translate(434,467)"/>
<path d="M0 0 C0 0.66 0 1.32 0 2 C-3.3 2.66 -6.6 3.32 -10 4 C-10.33 3.01 -10.66 2.02 -11 1 C-3.375 -1.125 -3.375 -1.125 0 0 Z " fill="#000000" transform="translate(463,467)"/>
<path d="M0 0 C-1 3 -1 3 -3.3125 4.1875 C-6 5 -6 5 -10 5 C-10 4.01 -10 3.02 -10 2 C-8.71211992 1.46987262 -7.41953322 0.9511671 -6.125 0.4375 C-5.40570313 0.14746094 -4.68640625 -0.14257812 -3.9453125 -0.44140625 C-2 -1 -2 -1 0 0 Z " fill="#000000" transform="translate(481,461)"/>
<path d="M0 0 C0.53625 0.2475 1.0725 0.495 1.625 0.75 C-1.39387244 4.23331435 -3.94409529 5.54157144 -8.375 6.75 C-8.375 5.76 -8.375 4.77 -8.375 3.75 C-3.35945596 -0.35362694 -3.35945596 -0.35362694 0 0 Z " fill="#000000" transform="translate(513.375,443.25)"/>
<path d="M0 0 C0.99 0 1.98 0 3 0 C2.39009109 3.55780196 1.4216319 6.6828589 0 10 C-0.99 10 -1.98 10 -3 10 C-2.39009109 6.44219804 -1.4216319 3.3171411 0 0 Z " fill="#000000" transform="translate(74,397)"/>
<path d="M0 0 C0.99 0 1.98 0 3 0 C2.39009109 3.55780196 1.4216319 6.6828589 0 10 C-0.99 10 -1.98 10 -3 10 C-2.39009109 6.44219804 -1.4216319 3.3171411 0 0 Z " fill="#000000" transform="translate(395,377)"/>
<path d="M0 0 C0.99 0.33 1.98 0.66 3 1 C1.66511872 4.59391114 0.03977277 7.75490696 -2 11 C-2.66 10.67 -3.32 10.34 -4 10 C-3.29445932 6.33118845 -1.72264494 3.29549466 0 0 Z " fill="#000000" transform="translate(92,361)"/>
<path d="M0 0 C0.66 0.33 1.32 0.66 2 1 C0.94124926 4.40312738 -0.00902154 7.01353231 -2 10 C-2.99 10 -3.98 10 -5 10 C-3.84414715 6.08788267 -2.64465038 3.1254959 0 0 Z " fill="#000000" transform="translate(102,344)"/>
<path d="M0 0 C0.66 0.33 1.32 0.66 2 1 C0.55873214 4.36295835 -1.20592655 6.62927102 -4 9 C-4.99 9 -5.98 9 -7 9 C-5.44499019 5.18315774 -2.96404505 2.80804268 0 0 Z " fill="#000000" transform="translate(361,302)"/>
<path d="M0 0 C0.99 0 1.98 0 3 0 C1.79157144 4.43090471 0.48331435 6.98112756 -3 10 C-3.75 8.375 -3.75 8.375 -4 6 C-2.25 2.75 -2.25 2.75 0 0 Z " fill="#000000" transform="translate(454,271)"/>
<path d="M0 0 C0.99 0.33 1.98 0.66 3 1 C3 1.66 3 2.32 3 3 C1.25 4.5078125 1.25 4.5078125 -1 6.125 C-1.7425 6.66382813 -2.485 7.20265625 -3.25 7.7578125 C-3.8275 8.16773438 -4.405 8.57765625 -5 9 C-5 5 -5 5 -2.5 2.25 C-1.675 1.5075 -0.85 0.765 0 0 Z " fill="#000000" transform="translate(717,260)"/>
<path d="M0 0 C0.66 0 1.32 0 2 0 C1.52797514 4.24822374 -0.96655518 6.19989709 -4 9 C-4.99 8.67 -5.98 8.34 -7 8 C-6.02133662 6.85373678 -5.04205413 5.70800212 -4.0625 4.5625 C-3.51722656 3.92441406 -2.97195313 3.28632813 -2.41015625 2.62890625 C-1.63204305 1.73008851 -0.84063472 0.84063472 0 0 Z " fill="#000000" transform="translate(435,231)"/>
<path d="M0 0 C0.99 0 1.98 0 3 0 C2.38545304 3.99455527 0.29353263 6.74466336 -2 10 C-2.66 9.67 -3.32 9.34 -4 9 C-2.80100302 5.9168649 -1.52299523 2.93720508 0 0 Z " fill="#000000" transform="translate(173,226)"/>
<path d="M0 0 C0.66 0.33 1.32 0.66 2 1 C0.55873214 4.36295835 -1.20592655 6.62927102 -4 9 C-4.99 9 -5.98 9 -7 9 C-5.44499019 5.18315774 -2.96404505 2.80804268 0 0 Z " fill="#000000" transform="translate(111,223)"/>
<path d="M0 0 C0.99 0 1.98 0 3 0 C1.66511872 3.59391114 0.03977277 6.75490696 -2 10 C-2.99 9.67 -3.98 9.34 -5 9 C-3.35 6.03 -1.7 3.06 0 0 Z " fill="#000000" transform="translate(487,220)"/>
<path d="M0 0 C-1.5830577 4.2742558 -4.50568404 6.26531794 -8 9 C-8 5 -8 5 -5.6875 2.25 C-3 0 -3 0 0 0 Z " fill="#000000" transform="translate(127,210)"/>
<path d="M0 0 C0.99 0 1.98 0 3 0 C2.38545304 3.99455527 0.29353263 6.74466336 -2 10 C-2.66 9.67 -3.32 9.34 -4 9 C-2.80100302 5.9168649 -1.52299523 2.93720508 0 0 Z " fill="#000000" transform="translate(205,176)"/>
<path d="M0 0 C0.66 0.33 1.32 0.66 2 1 C0.55873214 4.36295835 -1.20592655 6.62927102 -4 9 C-4.99 9 -5.98 9 -7 9 C-5.44499019 5.18315774 -2.96404505 2.80804268 0 0 Z " fill="#000000" transform="translate(180,153)"/>
<path d="M0 0 C0.66 0 1.32 0 2 0 C1.52797514 4.24822374 -0.96655518 6.19989709 -4 9 C-4.99 8.67 -5.98 8.34 -7 8 C-6.02133662 6.85373678 -5.04205413 5.70800212 -4.0625 4.5625 C-3.51722656 3.92441406 -2.97195313 3.28632813 -2.41015625 2.62890625 C-1.63204305 1.73008851 -0.84063472 0.84063472 0 0 Z " fill="#000000" transform="translate(519,142)"/>
<path d="M0 0 C0.99 0 1.98 0 3 0 C2.38545304 3.99455527 0.29353263 6.74466336 -2 10 C-2.66 9.67 -3.32 9.34 -4 9 C-2.94124926 5.59687262 -1.99097846 2.98646769 0 0 Z " fill="#000000" transform="translate(248,110)"/>
<path d="M0 0 C0.66 0.33 1.32 0.66 2 1 C0.7580393 4.43927579 -0.55740284 7.25207819 -3 10 C-3.66 10 -4.32 10 -5 10 C-4.49701212 5.59885603 -2.91227269 3.28804981 0 0 Z " fill="#000000" transform="translate(260,93)"/>
<path d="M0 0 C-1.5830577 4.2742558 -4.50568404 6.26531794 -8 9 C-8 5 -8 5 -5.6875 2.25 C-3 0 -3 0 0 0 Z " fill="#000000" transform="translate(279,56)"/>
<path d="M0 0 C4.455 1.98 4.455 1.98 9 4 C9 4.99 9 5.98 9 7 C5.51329166 5.8905928 2.22515763 4.73662334 -1 3 C-0.67 2.01 -0.34 1.02 0 0 Z " fill="#000000" transform="translate(416,461)"/>
<path d="M0 0 C0.99 0.33 1.98 0.66 3 1 C2.07347299 2.17539996 1.13336613 3.34010577 0.1875 4.5 C-0.33457031 5.1496875 -0.85664062 5.799375 -1.39453125 6.46875 C-3 8 -3 8 -6 8 C-4.55746343 4.63408134 -2.66735273 2.48952921 0 0 Z " fill="#000000" transform="translate(542,418)"/>
<path d="M0 0 C0.99 0.33 1.98 0.66 3 1 C2.07347299 2.17539996 1.13336613 3.34010577 0.1875 4.5 C-0.33457031 5.1496875 -0.85664062 5.799375 -1.39453125 6.46875 C-3 8 -3 8 -6 8 C-6 7.01 -6 6.02 -6 5 C-3.1875 2.25 -3.1875 2.25 0 0 Z " fill="#000000" transform="translate(644,326)"/>
<path d="M0 0 C0.66 0 1.32 0 2 0 C1.43454163 3.95820859 0.19097652 6.6659053 -2 10 C-2.99 9.67 -3.98 9.34 -5 9 C-4.3566152 7.686298 -3.71021785 6.37407102 -3.0625 5.0625 C-2.70285156 4.33160156 -2.34320313 3.60070312 -1.97265625 2.84765625 C-1 1 -1 1 0 0 Z " fill="#000000" transform="translate(132,293)"/>
<path d="M0 0 C0.66 0 1.32 0 2 0 C1.38479725 3.99881788 -0.60268669 6.80358226 -3 10 C-3.66 10 -4.32 10 -5 10 C-4.49890042 5.61537866 -3.01704885 3.1999003 0 0 Z " fill="#000000" transform="translate(499,203)"/>
<path d="M0 0 C0.66 0 1.32 0 2 0 C2 3.3 2 6.6 2 10 C1.01 10 0.02 10 -1 10 C-1.02689216 8.52093108 -1.04634621 7.04172517 -1.0625 5.5625 C-1.07410156 4.73878906 -1.08570312 3.91507812 -1.09765625 3.06640625 C-1 1 -1 1 0 0 Z " fill="#000000" transform="translate(68,416)"/>
<path d="M0 0 C-1.44253657 3.36591866 -3.33264727 5.51047079 -6 8 C-6.99 7.67 -7.98 7.34 -9 7 C-8.07347299 5.82460004 -7.13336613 4.65989423 -6.1875 3.5 C-5.66542969 2.8503125 -5.14335938 2.200625 -4.60546875 1.53125 C-3 0 -3 0 0 0 Z " fill="#000000" transform="translate(99,238)"/>
<path d="M0 0 C0.99 0.33 1.98 0.66 3 1 C2.07347299 2.17539996 1.13336613 3.34010577 0.1875 4.5 C-0.33457031 5.1496875 -0.85664063 5.799375 -1.39453125 6.46875 C-3 8 -3 8 -6 8 C-4.55746343 4.63408134 -2.66735273 2.48952921 0 0 Z " fill="#000000" transform="translate(138,196)"/>
<path d="M0 0 C0.99 0.33 1.98 0.66 3 1 C2.07347299 2.17539996 1.13336613 3.34010577 0.1875 4.5 C-0.33457031 5.1496875 -0.85664063 5.799375 -1.39453125 6.46875 C-3 8 -3 8 -6 8 C-4.55746343 4.63408134 -2.66735273 2.48952921 0 0 Z " fill="#000000" transform="translate(207,126)"/>
<path d="M0 0 C-1.44253657 3.36591866 -3.33264727 5.51047079 -6 8 C-6.99 7.67 -7.98 7.34 -9 7 C-8.07347299 5.82460004 -7.13336613 4.65989423 -6.1875 3.5 C-5.66542969 2.8503125 -5.14335937 2.200625 -4.60546875 1.53125 C-3 0 -3 0 0 0 Z " fill="#000000" transform="translate(251,84)"/>
<path d="M0 0 C0.66 0.33 1.32 0.66 2 1 C0.7580393 4.43927579 -0.55740284 7.25207819 -3 10 C-3.66 10 -4.32 10 -5 10 C-4.38545304 6.00544473 -2.29353263 3.25533664 0 0 Z " fill="#000000" transform="translate(271,76)"/>
<path d="M0 0 C0.66 0 1.32 0 2 0 C2.66 3.3 3.32 6.6 4 10 C3.01 10 2.02 10 1 10 C-0.1577506 6.52674819 -0.06866652 3.63932552 0 0 Z " fill="#000000" transform="translate(385,416)"/>
<path d="M0 0 C0.99 0.33 1.98 0.66 3 1 C1.515 3.475 1.515 3.475 0 6 C-0.99 5.67 -1.98 5.34 -3 5 C-1.125 1.125 -1.125 1.125 0 0 Z " fill="#000000" transform="translate(613,42)"/>
<path d="M0 0 C0.99 0.33 1.98 0.66 3 1 C2.34 2.65 1.68 4.3 1 6 C0.01 5.67 -0.98 5.34 -2 5 C-1.125 1.125 -1.125 1.125 0 0 Z " fill="#000000" transform="translate(300,31)"/>
<path d="M0 0 C0.66 0.33 1.32 0.66 2 1 C1.34 2.32 0.68 3.64 0 5 C-1.32 5 -2.64 5 -4 5 C-2.68 3.35 -1.36 1.7 0 0 Z " fill="#000000" transform="translate(42,293)"/>
<path d="M0 0 C0.99 0.33 1.98 0.66 3 1 C2.67 1.99 2.34 2.98 2 4 C-0.0625 4.6875 -0.0625 4.6875 -2 5 C-2 2 -2 2 0 0 Z " fill="#000000" transform="translate(728,250)"/>
<path d="M0 0 C0.99 0.33 1.98 0.66 3 1 C2.67 1.99 2.34 2.98 2 4 C1.01 3.01 0.02 2.02 -1 1 C-0.67 0.67 -0.34 0.34 0 0 Z " fill="#000000" transform="translate(267,217)"/>
</svg>
