<?xml version="1.0" encoding="UTF-8"?>
<svg version="1.1" xmlns="http://www.w3.org/2000/svg" width="712" height="763">
<path d="M0 0 C22.90608078 20.18190702 34.86450632 51.04256844 37 81 C39.02699642 120.77134242 24.76945519 158.07094485 0 189 C-1.11181641 190.39992188 -1.11181641 190.39992188 -2.24609375 191.828125 C-6.62465558 197.26148768 -11.17855855 202.50362229 -15.87890625 207.66015625 C-17.80786335 209.78804815 -19.69036353 211.94720859 -21.5625 214.125 C-22.70335127 215.42106913 -23.84913531 216.71281421 -25 218 C-25.55558594 218.62261719 -26.11117188 219.24523437 -26.68359375 219.88671875 C-41.80695751 235.92073667 -62.67466787 246.0538289 -82 256 C-82 256.33 -82 256.66 -82 257 C-81.39341553 257.08975098 -80.78683105 257.17950195 -80.16186523 257.27197266 C-31.53914606 264.59524819 14.60267581 282.09474486 51 316 C52.39144666 317.21338219 53.78708639 318.42197803 55.1875 319.625 C82.69538772 343.79029579 98.47012516 378.73666509 102 415 C102.13924841 417.87967976 102.16368648 420.75397298 102.16796875 423.63671875 C102.17129715 424.43801712 102.17462555 425.23931549 102.17805481 426.06489563 C102.1830866 427.75150993 102.1854643 429.43813406 102.18530273 431.12475586 C102.18747936 433.66342187 102.20564814 436.20164551 102.22460938 438.74023438 C102.25565822 448.04089896 101.8217896 456.84770065 100 466 C125.88705558 455.36603622 146.63929316 439.48947842 162 416 C162.58177002 415.12867432 162.58177002 415.12867432 163.17529297 414.23974609 C175.41365894 395.75134668 181.74672232 374.37093821 187 353 C186.0409375 352.5359375 186.0409375 352.5359375 185.0625 352.0625 C183 351 183 351 182 350 C181.84144531 351.258125 181.68289063 352.51625 181.51953125 353.8125 C176.94488442 388.1966808 161.67745323 417.22775197 134.5703125 439.1953125 C131.82780066 441.12090592 129.02996736 442.57777042 126 444 C126 442.68 126 441.36 126 440 C128.16015625 438.0703125 128.16015625 438.0703125 131.0625 436.125 C155.30789958 419.29912731 170.01161596 392.94015769 176.375 364.4375 C177.15798281 359.93534886 177.14710261 355.56018102 177 351 C176.34 351.66 175.68 352.32 175 353 C174.01 353 173.02 353 172 353 C173.55500981 349.18315774 176.03595495 346.80804268 179 344 C182.36591866 345.44253657 184.51047079 347.33264727 187 350 C187.268125 349.35933594 187.53625 348.71867187 187.8125 348.05859375 C191.42946245 340.07510098 195.79518041 335.41387791 203.375 331.0625 C209.51560773 329.2626667 215.2750878 328.886499 221.1875 331.625 C231.18339578 337.40575901 236.92822504 346.01639493 242.5 355.9375 C243.0053125 356.83339844 243.510625 357.72929687 244.03125 358.65234375 C246.44821947 367.00453261 243.48670508 376.23795987 241.375 384.4375 C241.10776123 385.480271 240.84052246 386.52304199 240.56518555 387.59741211 C232.32426861 418.9682976 218.56429019 445.78651514 197 470 C196.31357422 470.77899658 196.31357422 470.77899658 195.61328125 471.57373047 C180.84643524 488.28984151 163.56034906 502.26677405 144 513 C143.15163574 513.46792969 142.30327148 513.93585937 141.42919922 514.41796875 C119.97583038 526.15752982 97.63379795 536.68525143 73 539 C72.72414063 539.73863281 72.44828125 540.47726562 72.1640625 541.23828125 C56.14184058 579.25073394 9.89704814 604.66481884 -24.51464844 622.69238281 C-26.05019339 623.50027856 -27.58067672 624.31798321 -29.10253906 625.15136719 C-51.80859865 637.57500544 -79.78528147 642.45817138 -105 647 C-105.9497168 647.17789063 -106.89943359 647.35578125 -107.87792969 647.5390625 C-158.19580937 656.68446869 -221.22356267 650.59580185 -264.3125 621.78515625 C-271.23308691 616.76243437 -278.06648968 611.17879322 -284 605 C-284 604.34 -284 603.68 -284 603 C-284.60585938 603.33773437 -285.21171875 603.67546875 -285.8359375 604.0234375 C-304.71181746 614.0712136 -326.47811969 609.96743226 -346.19116211 604.1184082 C-354.5606596 601.39844629 -361.12253828 596.51286299 -367 590 C-367.52980469 589.45085938 -368.05960938 588.90171875 -368.60546875 588.3359375 C-382.99063038 572.90285019 -387.4190013 552.90614453 -391.89453125 532.93359375 C-392.15715067 531.76581327 -392.41977009 530.5980328 -392.69034767 529.39486504 C-398.74206163 502.10465119 -401.73259256 474.65433842 -404.32843018 446.85681152 C-404.93736478 440.42216446 -405.58759722 433.99167735 -406.23242188 427.56054688 C-408.82086141 401.55155495 -411.06347831 375.78168035 -411.53515625 349.640625 C-411.57837203 347.36610549 -411.62178769 345.09158977 -411.66539001 342.81707764 C-411.75593309 338.04980465 -411.84385592 333.28249239 -411.92993164 328.51513672 C-412.01665994 323.72177034 -412.10674902 318.92848925 -412.20043945 314.13525391 C-413.08740165 268.75340029 -413.23205829 223.44318142 -412.25 178.0625 C-412.21862064 176.58750219 -412.21862064 176.58750219 -412.18660736 175.08270645 C-411.54657315 145.19888378 -410.38333266 115.51162529 -407.53222656 85.74560547 C-406.94802248 79.57659666 -406.46881067 73.40075348 -405.9921875 67.22265625 C-405.74277832 64.07064127 -405.49151292 60.91878184 -405.23919678 57.76699829 C-405.08356712 55.80403533 -404.93125001 53.84080597 -404.78277588 51.87728882 C-403.01902324 28.82027317 -398.58601825 5.84130232 -380.76953125 -10.52734375 C-380.18558594 -11.01332031 -379.60164063 -11.49929687 -379 -12 C-378.40574219 -12.49628906 -377.81148437 -12.99257812 -377.19921875 -13.50390625 C-358.11125669 -27.69941978 -327.70676317 -33.35706663 -304.5 -30.25 C-290.2583062 -27.8370116 -277.81805399 -21.71208209 -268 -11 C-267.54471924 -10.5064502 -267.08943848 -10.01290039 -266.62036133 -9.50439453 C-261.43100404 -2.79726382 -262.21671965 5.43183555 -262.1875 13.5 C-262.16432495 15.00524408 -262.1389534 16.51045602 -262.11132812 18.015625 C-262.04886468 21.67705844 -262.01622309 25.33803572 -262 29 C-261.3397583 28.33033203 -260.6795166 27.66066406 -259.99926758 26.97070312 C-259.11907959 26.08318359 -258.2388916 25.19566406 -257.33203125 24.28125 C-256.0322937 22.96737305 -256.0322937 22.96737305 -254.70629883 21.62695312 C-250.38533814 17.43267825 -245.72925141 13.71949233 -241 10 C-240.02546875 9.20851562 -239.0509375 8.41703125 -238.046875 7.6015625 C-173.61430316 -43.71784773 -65.27397436 -56.53720289 0 0 Z M-259.5625 35.4375 C-260.27809082 36.14841797 -260.99368164 36.85933594 -261.73095703 37.59179688 C-262.39853027 38.26146484 -263.06610352 38.93113281 -263.75390625 39.62109375 C-264.35533447 40.2236499 -264.9567627 40.82620605 -265.57641602 41.44702148 C-267.09480288 42.96066578 -267.09480288 42.96066578 -268 45 C-267.9969838 44.43116592 -267.99396759 43.86233185 -267.99085999 43.27626038 C-267.96617615 37.32151822 -267.99059543 31.36837275 -268.04272461 25.41381836 C-268.05581289 23.19575792 -268.05664602 20.97758825 -268.04467773 18.75952148 C-268.0295827 15.55865487 -268.05947969 12.36077866 -268.09765625 9.16015625 C-268.07627342 7.68773216 -268.07627342 7.68773216 -268.05445862 6.18556213 C-268.21191986 -1.4103665 -270.76137521 -5.59297311 -276 -11 C-287.91071656 -21.86591686 -303.72461486 -25.55045485 -319.4609375 -25.25 C-332.06304372 -24.35978499 -344.14164858 -21.25304625 -356 -17 C-357.24136719 -16.55785156 -358.48273438 -16.11570312 -359.76171875 -15.66015625 C-368.02971183 -12.43340435 -373.87549634 -8.38887072 -380 -2 C-380.95132813 -1.09507813 -380.95132813 -1.09507813 -381.921875 -0.171875 C-395.52723672 13.67428958 -397.31147905 34.12773636 -398.97265625 52.44921875 C-399.14250053 54.26890224 -399.31241941 56.08857876 -399.48240662 57.9082489 C-400.0293661 63.83292699 -400.54808263 69.75992043 -401.0625 75.6875 C-401.15163666 76.70507637 -401.24077332 77.72265274 -401.33261108 78.77106476 C-405.22432545 123.31670917 -406.6153977 167.75394893 -406.9621582 212.45330811 C-406.99399216 216.47831737 -407.03996032 220.50302511 -407.09179688 224.52783203 C-407.23956523 236.28770825 -407.24867523 248.03860027 -407.11149597 259.79866028 C-407.02617161 267.43726811 -406.99459452 275.073788 -407.00439453 282.71289062 C-407.05185274 335.5987437 -404.97640679 387.97459103 -399.47887802 440.56311417 C-399.06875822 444.4890287 -398.67100605 448.41615668 -398.27334595 452.34335327 C-395.57315737 478.73867478 -392.13278182 504.78441413 -386.43359375 530.71484375 C-386.20809404 531.74906527 -385.98259434 532.78328678 -385.75026131 533.84884834 C-380.79590623 556.25380352 -373.6134184 580.80450084 -353.5 594.375 C-338.14372789 602.74235457 -314.37069346 607.37869101 -297.5 602.75 C-293.10451322 601.22207956 -288.17780933 599.35561866 -286 595 C-282.68883313 596.10372229 -282.1179796 596.80591035 -280 599.4375 C-267.01372297 614.54782649 -250.72582757 624.50557441 -232 631 C-230.95658447 631.37632568 -230.95658447 631.37632568 -229.89208984 631.76025391 C-172.25096792 652.53980777 -96.72934029 649.22605132 -40.703125 624.16796875 C-37.43671129 622.60491198 -34.26097788 620.89629625 -31.09472656 619.140625 C-28.76001828 617.86932464 -26.39663228 616.66662255 -24.0234375 615.46875 C0.389598 603.08741841 23.37347219 588.18423986 43 569 C43.77085937 568.29101562 44.54171875 567.58203125 45.3359375 566.8515625 C50.33611714 562.1402019 54.55910565 556.92499749 58.75 551.5 C59.29333984 550.79979736 59.83667969 550.09959473 60.39648438 549.37817383 C63.16298993 545.72480417 65.37587309 542.26185004 67.31640625 538.10546875 C68.66922935 535.60142184 69.41296489 534.29388073 71.97314453 533.01220703 C74.38268203 532.41959528 76.72127561 532.08351108 79.1875 531.8125 C80.99494052 531.529964 82.80094346 531.23809321 84.60546875 530.9375 C85.51216309 530.79054688 86.41885742 530.64359375 87.35302734 530.4921875 C117.66196307 524.85643631 148.98321771 505.97148494 172 486 C173.22589844 484.94039062 173.22589844 484.94039062 174.4765625 483.859375 C185.88281149 473.79290763 195.97116717 463.23172154 205 451 C205.40347656 450.45730469 205.80695312 449.91460938 206.22265625 449.35546875 C221.67897487 428.38996726 229.9492588 404.72976716 236.31640625 379.66943359 C236.72831387 378.06093433 237.15384456 376.45571282 237.60546875 374.85791016 C239.76035043 367.23278843 239.09519606 362.14923566 235.29858398 355.11132812 C230.57835376 347.16476735 224.69515834 339.63069111 216 336 C208.25078973 335.13897664 204.04628837 337.66718443 198.03125 342.2734375 C193.78341925 346.61358372 192.9180206 352.26212242 191.58642578 358.01730347 C190.79900717 361.40075583 189.93326399 364.76406497 189.0703125 368.12890625 C188.89880676 368.80200333 188.72730103 369.4751004 188.55059814 370.16859436 C183.72852515 388.84468804 176.22734732 406.28171375 165 422 C164.41863281 422.84691406 163.83726562 423.69382812 163.23828125 424.56640625 C145.6489065 449.64821243 121.21275596 466.26975109 92 475 C92.19335938 474.34 92.38671875 473.68 92.5859375 473 C99.30414985 447.45748967 98.48282204 419.46750138 92 394 C91.79246094 393.1754834 91.58492187 392.3509668 91.37109375 391.50146484 C85.00198596 366.88791431 73.60865293 347.1463689 56 329 C55.09121094 328.05125 54.18242188 327.1025 53.24609375 326.125 C38.19928826 310.7143315 21.03224533 298.87754308 2 289 C1.20239258 288.58218262 0.40478516 288.16436523 -0.41699219 287.73388672 C-21.72713981 276.69660619 -44.47522964 269.54611987 -68 265 C-69.18207031 264.76667969 -70.36414063 264.53335937 -71.58203125 264.29296875 C-80.97125995 262.65133002 -90.49258778 262.38150123 -100 262 C-100 260.35 -100 258.7 -100 257 C-98.45119141 256.34257813 -98.45119141 256.34257813 -96.87109375 255.671875 C-68.05349898 243.25788441 -40.36622289 228.45489642 -20 204 C-19.29875 203.16210938 -18.5975 202.32421875 -17.875 201.4609375 C-16.38570063 199.65782148 -14.90824673 197.84487072 -13.44140625 196.0234375 C-11.69722441 193.86344271 -9.93720747 191.72716751 -8.15234375 189.6015625 C18.31912602 157.77975169 34.39929853 119.11751916 30.77294922 77.38720703 C27.36681448 46.52774643 13.53667982 18.28044892 -10.75292969 -1.421875 C-81.63992954 -55.55231846 -190.63233228 -30.6705085 -259.5625 35.4375 Z " fill="#000000" transform="translate(467,84)"/>
<path d="M0 0 C9.52266162 7.91589673 16.67375773 19.20195481 20.2734375 31.03515625 C20.49644531 31.75058594 20.71945312 32.46601563 20.94921875 33.203125 C28.37705322 62.56075649 18.37018785 103.52884449 5.2734375 130.03515625 C4.66556396 131.26951416 4.66556396 131.26951416 4.04541016 132.52880859 C-12.77842372 166.345152 -35.72396373 192.4998239 -68.96337891 211.02685547 C-70.62770111 211.978621 -72.24760122 213.00687837 -73.86328125 214.0390625 C-82.30708682 219.01394918 -89.95206149 219.90363096 -99.57348633 220.76757812 C-109.80619204 221.75261376 -119.69505513 223.70608805 -129.7265625 225.91015625 C-130.4898587 226.07546844 -131.25315491 226.24078064 -132.0395813 226.41110229 C-141.41842924 228.45022378 -150.68194136 230.75562109 -159.89086914 233.4670105 C-163.34808482 234.46751105 -166.09372205 235.03515625 -169.7265625 235.03515625 C-170.03048963 211.08727595 -170.25960727 187.13968539 -170.40012074 163.19026375 C-170.46710379 152.06954537 -170.55839093 140.95002647 -170.70727539 129.83007812 C-170.83701013 120.13575647 -170.92075594 110.44230354 -170.94971293 100.7471379 C-170.96663653 95.61489851 -171.00628557 90.48514386 -171.10105324 85.35370255 C-171.18962455 80.51838143 -171.21645318 75.6865554 -171.19696236 70.85050011 C-171.20052486 69.08069379 -171.22620534 67.31076488 -171.27623367 65.54166222 C-171.62539663 52.55208707 -171.62539663 52.55208707 -168.4600656 48.35639715 C-164.96036249 44.90009913 -160.95953477 42.49368156 -156.7265625 40.03515625 C-155.05450152 38.8478096 -153.39237536 37.64604984 -151.75 36.41796875 C-150.20377178 35.32740732 -148.65425435 34.24149522 -147.1015625 33.16015625 C-146.25529297 32.57065186 -145.40902344 31.98114746 -144.53710938 31.3737793 C-106.57964501 5.12832022 -44.4955232 -32.06482546 0 0 Z M-137.37071514 33.95158958 C-141.37810588 36.86065293 -145.21783395 39.3485659 -149.75141907 41.35684204 C-155.60274803 44.23703903 -160.26068118 47.39807455 -163.7265625 53.03515625 C-167.04275335 64.83817929 -166.0015951 77.66044219 -165.65304732 89.79226255 C-165.53351013 94.65907072 -165.5230539 99.52614594 -165.50056458 104.39419556 C-165.44172417 113.59333622 -165.28612972 122.78813897 -165.09492427 131.98537695 C-164.88185852 142.46372555 -164.77791805 152.94229183 -164.68271101 163.42227054 C-164.48460393 184.96231195 -164.15085492 206.49845991 -163.7265625 228.03515625 C-162.67216476 227.77528427 -161.61776703 227.51541229 -160.53141785 227.24766541 C-156.56020477 226.269814 -152.58795423 225.2962336 -148.61540222 224.32383728 C-146.90725797 223.90511236 -145.19938437 223.48528156 -143.49180603 223.06425476 C-112.97952572 215.54368924 -112.97952572 215.54368924 -99.00390625 214.7109375 C-74.92388479 213.21204229 -54.00235271 195.80221622 -36.7265625 180.03515625 C-36.21254883 179.5664209 -35.69853516 179.09768555 -35.16894531 178.61474609 C-6.30296137 151.90874029 8.68523135 114.11948558 14.2734375 76.03515625 C14.50371025 74.55986523 14.73415699 73.08460134 14.96484375 71.609375 C17.74432486 52.26962883 18.3171828 31.91181191 6.10009766 15.45458984 C-2.72236872 4.42397459 -13.59185885 -3.44749056 -27.7265625 -5.96484375 C-67.63645533 -8.46298949 -106.02535791 11.1678209 -137.37071514 33.95158958 Z " fill="#000000" transform="translate(366.7265625,125.96484375)"/>
<path d="M0 0 C13.84740281 5.89353568 26.45606453 12.97545886 37.85717773 22.88623047 C38.74920898 23.63388672 39.64124023 24.38154297 40.56030273 25.15185547 C71.3668806 51.82794245 83.2861327 93.92005251 86.54467773 133.19873047 C87.25830815 145.91027228 87.0450165 158.3341044 84.85717773 170.88623047 C82.95319904 172.79020916 80.16617114 172.04888994 77.6322937 172.07009888 C66.54649916 172.05255786 55.73415311 171.33013586 44.73217773 170.01123047 C43.83940125 169.90796448 42.94662476 169.80469849 42.02679443 169.69830322 C18.90898171 167.01265531 -4.08442661 163.38547082 -27.07870483 159.81552124 C-51.63020448 156.00443947 -75.59006024 152.69126594 -100.47070312 152.59106445 C-102.45515063 152.57953924 -104.439567 152.55907891 -106.42382812 152.52954102 C-121.22806025 152.31033698 -135.53079724 152.16345683 -148.14282227 160.88623047 C-148.80282227 160.88623047 -149.46282227 160.88623047 -150.14282227 160.88623047 C-150.14282227 118.31623047 -150.14282227 75.74623047 -150.14282227 31.88623047 C-138.26282227 28.58623047 -126.38282227 25.28623047 -114.14282227 21.88623047 C-107.21989653 19.77729117 -100.32352899 17.65597338 -93.45532227 15.38623047 C-92.63380676 15.1171991 -91.81229126 14.84816772 -90.96588135 14.57098389 C-72.85856934 8.63066786 -54.66566215 2.45364931 -38.01000977 -6.93408203 C-26.94831514 -11.48535148 -10.39492966 -4.22279296 0 0 Z M-41.26782227 1.76123047 C-72.18785308 16.93889185 -106.55461794 26.46960073 -139.79321289 35.21289062 C-142.13672159 35.80671916 -142.13672159 35.80671916 -144.14282227 36.88623047 C-144.14282227 74.50623047 -144.14282227 112.12623047 -144.14282227 150.88623047 C-140.51282227 149.89623047 -136.88282227 148.90623047 -133.14282227 147.88623047 C-127.41202802 146.94684515 -121.80044237 146.71366872 -116.01000977 146.68310547 C-115.13804962 146.6774054 -114.26608948 146.67170532 -113.3677063 146.66583252 C-111.51704093 146.65642065 -109.66635909 146.64986377 -107.81567383 146.64599609 C-105.10146543 146.63652242 -102.38809565 146.60556652 -99.67407227 146.57373047 C-74.46568964 146.41616921 -49.62998835 150.03803566 -24.80648804 154.10183716 C-17.85884574 155.23884371 -10.9053743 156.33939941 -3.95141602 157.43701172 C-3.26683886 157.5452294 -2.5822617 157.65344707 -1.87693977 157.76494408 C10.44577709 159.70870307 22.78639124 161.43880913 35.16967773 162.94873047 C35.96871521 163.04659851 36.76775269 163.14446655 37.59100342 163.24530029 C54.76703045 165.36149936 54.76703045 165.36149936 72.04467773 165.94873047 C72.80586914 165.94421875 73.56706055 165.93970703 74.35131836 165.93505859 C76.18664069 165.92351569 78.02192126 165.90559425 79.85717773 165.88623047 C85.04079813 124.60411875 75.3703381 77.57213617 49.98217773 44.07373047 C41.32273788 33.09282377 31.47491163 24.50962849 19.85717773 16.88623047 C18.91487305 16.25974609 17.97256836 15.63326172 17.00170898 14.98779297 C1.33549391 5.22126679 -23.70043515 -7.25769908 -41.26782227 1.76123047 Z " fill="#000000" transform="translate(347.142822265625,394.11376953125)"/>
<path d="M0 0 C23.88498592 4.66581429 47.89576973 8.46532429 71.94641113 12.1652832 C73.38229026 12.38675647 74.81816322 12.60826975 76.25402832 12.82983398 C79.15129625 13.27625853 82.0487155 13.7216451 84.94641113 14.1652832 C83.0431023 18.33472782 80.22496877 21.04393899 76.88391113 24.1027832 C76.26540283 24.67053467 75.64689453 25.23828613 75.00964355 25.82324219 C41.36335 56.21168678 4.67138564 74.08050132 -41.05358887 72.1652832 C-63.04311949 70.45315636 -86.52845639 63.46523745 -102.05358887 47.1652832 C-103.05325684 46.15981445 -103.05325684 46.15981445 -104.07312012 45.1340332 C-110.86857036 37.92370284 -114.46358144 29.50974121 -114.25280762 19.5871582 C-113.49682202 10.39674502 -108.95663322 4.12085088 -102.05358887 -1.8347168 C-73.60464794 -19.55836558 -30.44149252 -5.95089374 0 0 Z M-101.05358887 5.1652832 C-105.58429629 10.58305545 -108.45936324 15.63500262 -108.32702637 22.8605957 C-107.08524231 33.32706132 -100.24880621 41.6662881 -92.49108887 48.2902832 C-69.53869859 65.65126412 -37.27171739 69.27865991 -9.45593262 65.51293945 C18.5806256 60.8530867 43.730691 44.39914929 64.94641113 26.1652832 C65.75465332 25.47950195 66.56289551 24.7937207 67.39562988 24.0871582 C70.21845464 21.67842663 70.21845464 21.67842663 72.94641113 19.1652832 C72.94641113 18.8352832 72.94641113 18.5052832 72.94641113 18.1652832 C71.80841064 17.99512695 70.67041016 17.8249707 69.4979248 17.6496582 C43.63804516 13.76839175 17.90867821 9.43672097 -7.7784729 4.54374695 C-15.59090657 3.05696205 -23.41267506 1.62802146 -31.24108887 0.2277832 C-32.34460693 0.02846191 -33.448125 -0.17085937 -34.58508301 -0.3762207 C-45.14114217 -2.25922514 -55.13226412 -3.04260272 -65.86608887 -3.0847168 C-67.16868652 -3.1053418 -68.47128418 -3.1259668 -69.81335449 -3.1472168 C-80.81139 -3.19145223 -92.13161049 -1.90300258 -101.05358887 5.1652832 Z " fill="#000000" transform="translate(334.0535888671875,605.834716796875)"/>
<path d="M0 0 C1.12124268 0.53995605 1.12124268 0.53995605 2.26513672 1.09082031 C11.94013174 5.81450663 20.66227126 11.13234448 29 18 C29.85271484 18.69464355 29.85271484 18.69464355 30.72265625 19.40332031 C62.02891186 45.01291926 80.38128989 80.43370563 84.6875 120.625 C88.44187334 172.71693007 67.17153132 222.10755304 34.15234375 261.515625 C31.18801725 264.93724325 28.17444047 268.31033615 25.125 271.65625 C23.17505276 273.80692711 21.26973871 275.98824971 19.375 278.1875 C16.52441102 281.47100553 13.51247794 284.53729705 10.3828125 287.5546875 C8.89145515 288.97109777 8.89145515 288.97109777 8 291 C8.95664551 291.35771484 8.95664551 291.35771484 9.93261719 291.72265625 C14.07380151 293.4471609 18.06282115 295.44001084 22.078125 297.4375 C22.9629657 297.87707031 23.8478064 298.31664062 24.75946045 298.76953125 C26.63610169 299.70313358 28.51216666 300.63789504 30.38769531 301.57373047 C33.19571669 302.97295095 36.00789524 304.3635478 38.8203125 305.75390625 C53.29616033 312.94859946 67.65029655 320.49375128 80.8125 329.9375 C81.51060791 330.43491699 82.20871582 330.93233398 82.92797852 331.44482422 C89.43479132 336.16713745 95.25098053 341.3840982 101 347 C101.85980469 347.79792969 102.71960938 348.59585937 103.60546875 349.41796875 C126.49499371 371.17188937 137.17610655 401.65444991 143 432 C143.680625 431.2575 143.680625 431.2575 144.375 430.5 C146 429 146 429 148 429 C147.38545304 432.99455527 145.29353263 435.74466336 143 439 C138.60249328 438.49259538 136.13051078 435.91706686 133 433 C133 432.34 133 431.68 133 431 C135.16874252 431.50603992 136.99967627 431.99983813 139 433 C130.12855817 390.60820187 112.63886262 355.27769239 75.40625 330.79296875 C59.85409188 320.82551257 43.39396523 312.48212789 26.95429993 304.1022644 C26.29133408 303.7642984 25.62836823 303.4263324 24.9453125 303.078125 C23.9656678 302.57878952 23.9656678 302.57878952 22.9662323 302.06936646 C15.92868057 298.47110267 8.96083816 294.74400182 2 291 C4.28854673 288.09590702 6.40837101 285.48169259 9.3125 283.1875 C12.58771898 280.45352483 15.31891307 277.48453602 18.07421875 274.234375 C20.19192394 271.77732151 22.40605319 269.42842067 24.625 267.0625 C52.87619671 235.94337878 74.69352151 196.08160852 80 154 C80.11085938 153.16210938 80.22171875 152.32421875 80.3359375 151.4609375 C84.67654613 112.63008732 73.80556204 73.74275354 49.42944336 43.20483398 C22.91556216 11.06032893 -14.68263412 -7.01175962 -55.81640625 -11.56640625 C-113.18485023 -16.98937575 -169.43357864 6.60565841 -213.375 42.3125 C-214.02210938 42.86550781 -214.66921875 43.41851562 -215.3359375 43.98828125 C-215.88507813 44.32214844 -216.43421875 44.65601563 -217 45 C-217.99 44.67 -218.98 44.34 -220 44 C-165.70279536 -11.15906503 -70.70455343 -34.33107534 0 0 Z " fill="#000000" transform="translate(440,39)"/>
<path d="M0 0 C0.99 0 1.98 0 3 0 C2.99907821 0.6306005 2.99815641 1.261201 2.99720669 1.91091061 C2.86495619 94.03573633 2.78208366 186.16242288 15.59082031 515.52490234 C16.11907138 520.01125417 16.57871236 524.50245157 17 529 C17.66 529 18.32 529 19 529 C19.33 527.68 19.66 526.36 20 525 C20.99 525 21.98 525 23 525 C22.39301257 529.12751449 20.96189209 532.3321148 19 536 C14.87248551 535.39301257 11.6678852 533.96189209 8 532 C8 531.01 8 530.02 8 529 C12.75 529.875 12.75 529.875 15 531 C14.80664062 530.31719971 14.61328125 529.63439941 14.4140625 528.9309082 C12.13296011 520.42406193 10.92668061 511.92434598 10 503.1875 C9.91662384 502.41459625 9.83324768 501.6416925 9.74734497 500.84536743 C3.0929003 438.5167362 2.22339101 375.37190333 0.91796875 312.74609375 C0.89633746 311.71521102 0.87470616 310.68432829 0.85241938 309.62220669 C-0.35473663 251.53016374 -0.23587614 193.43524097 -0.14405459 135.33409375 C-0.12789566 124.99242523 -0.11717171 114.65076048 -0.10986328 104.30908203 C-0.10933783 103.56769652 -0.10881239 102.826311 -0.10827102 102.06245926 C-0.10565864 98.33861644 -0.10313177 94.61477356 -0.10064721 90.89093065 C-0.08032476 60.59393338 -0.04532477 30.29697088 0 0 Z " fill="#000000" transform="translate(31,112)"/>
<path d="M0 0 C0.99 0.33 1.98 0.66 3 1 C-1.36477361 7.22284451 -6.28684983 12.60167128 -11.6875 17.9375 C-12.48623535 18.73091797 -13.2849707 19.52433594 -14.10791016 20.34179688 C-19.81792045 25.96047475 -25.68473008 31.07195527 -32 36 C-33.85690747 37.58011808 -35.71091476 39.16364866 -37.5625 40.75 C-97.0320966 90.20607841 -174.36867442 118.63863868 -251.90234375 112.5390625 C-290.83524635 108.71153421 -327.39921975 94.55802992 -361 75 C-361.33 76.65 -361.66 78.3 -362 80 C-362.99 79.67 -363.98 79.34 -365 79 C-365.33 75.7 -365.66 72.4 -366 69 C-362.17010894 67.19769832 -359.21878192 66.80377759 -355 67 C-355.33 67.99 -355.66 68.98 -356 70 C-357.32 70 -358.64 70 -360 70 C-360 70.66 -360 71.32 -360 72 C-359.28803467 72.27005859 -358.57606934 72.54011719 -357.8425293 72.81835938 C-354.95024428 74.02068348 -352.2688297 75.40676127 -349.51953125 76.90625 C-319.80891096 92.8761845 -289.50847638 103.45616429 -256 108 C-255.23381348 108.1045752 -254.46762695 108.20915039 -253.67822266 108.31689453 C-245.44448135 109.28935627 -237.15453199 109.2436759 -228.875 109.25 C-228.07865143 109.25067474 -227.28230286 109.25134949 -226.46182251 109.25204468 C-159.69628398 109.16259034 -94.70272445 81.24909278 -43 40 C-41.98292969 39.19691406 -40.96585937 38.39382813 -39.91796875 37.56640625 C-33.97436232 32.79621568 -28.34740693 27.73314547 -22.76953125 22.546875 C-20.55388098 20.50935176 -18.30761123 18.55517586 -16 16.625 C-10.17357237 11.60094058 -5.14538315 5.70279966 0 0 Z " fill="#000000" transform="translate(546,642)"/>
<path d="M0 0 C0.80052795 -0.00749268 1.60105591 -0.01498535 2.42584229 -0.02270508 C17.66458078 -0.13978505 31.38600341 1.4287866 44.98828125 8.7890625 C64.84659218 19.26909127 86.58875966 21.57020456 108.75 21.5 C109.99394531 21.50386719 111.23789062 21.50773438 112.51953125 21.51171875 C113.71707031 21.51042969 114.91460937 21.50914062 116.1484375 21.5078125 C117.76371338 21.50612061 117.76371338 21.50612061 119.41162109 21.50439453 C122.17726638 21.38363394 124.68372606 21.00190559 127.375 20.375 C126.385 19.715 125.395 19.055 124.375 18.375 C124.375 17.715 124.375 17.055 124.375 16.375 C128.33320859 16.94045837 131.0409053 18.18402348 134.375 20.375 C133.76801257 24.50251449 132.33689209 27.7071148 130.375 31.375 C129.385 31.045 128.395 30.715 127.375 30.375 C128.365 27.9 128.365 27.9 129.375 25.375 C128.47072266 25.39071045 127.56644531 25.4064209 126.63476562 25.42260742 C97.60485837 25.85849744 68.28342637 26.13269555 42.29980469 11.55029297 C36.8375041 8.50405962 31.55438708 6.50402341 25.375 5.375 C24.51511475 5.20444092 23.65522949 5.03388184 22.76928711 4.8581543 C18.70893474 4.28019002 14.76719223 4.21281826 10.671875 4.20703125 C9.83521301 4.20370285 8.99855103 4.20037445 8.13653564 4.19694519 C6.36479233 4.19189558 4.59303956 4.18953626 2.82128906 4.18969727 C0.174959 4.18754071 -2.47093274 4.16944802 -5.1171875 4.15039062 C-15.1392188 4.11839045 -24.891928 4.64757924 -34.83105469 5.9440918 C-38.14299287 6.32025466 -41.2973717 6.45737671 -44.625 6.375 C-44.625 5.385 -44.625 4.395 -44.625 3.375 C-29.73690496 0.95165639 -15.05683125 0.04870253 0 0 Z " fill="#000000" transform="translate(279.625,520.625)"/>
<path d="M0 0 C0 0.99 0 1.98 0 3 C-2.31 3.66 -4.62 4.32 -7 5 C-7.33 6.32 -7.66 7.64 -8 9 C-14.32427599 10.35991738 -20.56025419 11.37679879 -27 12 C-27 12.66 -27 13.32 -27 14 C-30.3 14.66 -33.6 15.32 -37 16 C-37 15.01 -37 14.02 -37 13 C-27.95987945 8.96158549 -20.07807489 6.03753473 -10 6 C-10 5.01 -10 4.02 -10 3 C-3.375 0 -3.375 0 0 0 Z " fill="#000000" transform="translate(254,375)"/>
<path d="M0 0 C-0.020625 1.051875 -0.04125 2.10375 -0.0625 3.1875 C-0.01103198 6.32704904 0.26517187 8.96883396 1 12 C-1.32902796 14.15650737 -2.39060303 15.01450945 -5.625 14.9375 C-8 14 -8 14 -9.3125 11.9375 C-9.539375 11.298125 -9.76625 10.65875 -10 10 C-9.01 10 -8.02 10 -7 10 C-7 10.66 -7 11.32 -7 12 C-5.68 11.67 -4.36 11.34 -3 11 C-3 10.34 -3 9.68 -3 9 C-3.99 8.67 -4.98 8.34 -6 8 C-6 7.01 -6 6.02 -6 5 C-5.01 4.67 -4.02 4.34 -3 4 C-3 3.34 -3 2.68 -3 2 C-3.99 2 -4.98 2 -6 2 C-6.33 2.66 -6.66 3.32 -7 4 C-7.99 3.67 -8.98 3.34 -10 3 C-9.67 2.01 -9.34 1.02 -9 0 C-5.93109813 -1.53445094 -3.29905734 -0.54984289 0 0 Z " fill="#000000" transform="translate(337,501)"/>
<path d="M0 0 C0.99 0 1.98 0 3 0 C3 3.3 3 6.6 3 10 C3.66 10 4.32 10 5 10 C5 10.66 5 11.32 5 12 C4.34 12 3.68 12 3 12 C3 12.99 3 13.98 3 15 C2.01 15 1.02 15 0 15 C0 14.01 0 13.02 0 12 C-2.31 12 -4.62 12 -7 12 C-5.52410328 7.57230983 -3.26930159 3.3663135 0 0 Z M-1 5 C-1.66 6.65 -2.32 8.3 -3 10 C-2.01 10 -1.02 10 0 10 C0 8.35 0 6.7 0 5 C-0.33 5 -0.66 5 -1 5 Z " fill="#000000" transform="translate(627,465)"/>
<path d="M0 0 C2.875 -0.125 2.875 -0.125 6 0 C6.66 0.66 7.32 1.32 8 2 C7.83754442 5.73647845 7.41216356 7.52538742 4.9375 10.375 C4.298125 10.91125 3.65875 11.4475 3 12 C4.65 12.33 6.3 12.66 8 13 C8 13.66 8 14.32 8 15 C4.7 15 1.4 15 -2 15 C0 11 0 11 2.125 8.4375 C4.30485538 6.11622611 4.30485538 6.11622611 4 3 C3.34 3 2.68 3 2 3 C1.67 3.66 1.34 4.32 1 5 C0.01 5 -0.98 5 -2 5 C-1.34 3.35 -0.68 1.7 0 0 Z " fill="#000000" transform="translate(440,743)"/>
<path d="M0 0 C2.875 -0.125 2.875 -0.125 6 0 C6.66 0.66 7.32 1.32 8 2 C7.83754442 5.73647845 7.41216356 7.52538742 4.9375 10.375 C4.298125 10.91125 3.65875 11.4475 3 12 C4.65 12.33 6.3 12.66 8 13 C8 13.66 8 14.32 8 15 C4.7 15 1.4 15 -2 15 C0 11 0 11 2.125 8.4375 C4.30485538 6.11622611 4.30485538 6.11622611 4 3 C3.34 3 2.68 3 2 3 C1.67 3.66 1.34 4.32 1 5 C0.01 5 -0.98 5 -2 5 C-1.34 3.35 -0.68 1.7 0 0 Z " fill="#000000" transform="translate(312,500)"/>
<path d="M0 0 C2.875 -0.125 2.875 -0.125 6 0 C6.66 0.66 7.32 1.32 8 2 C7.83754442 5.73647845 7.41216356 7.52538742 4.9375 10.375 C4.298125 10.91125 3.65875 11.4475 3 12 C4.65 12.33 6.3 12.66 8 13 C8 13.66 8 14.32 8 15 C4.7 15 1.4 15 -2 15 C0 11 0 11 2.125 8.4375 C4.30485538 6.11622611 4.30485538 6.11622611 4 3 C3.34 3 2.68 3 2 3 C1.67 3.66 1.34 4.32 1 5 C0.01 5 -0.98 5 -2 5 C-1.34 3.35 -0.68 1.7 0 0 Z " fill="#000000" transform="translate(605,465)"/>
<path d="M0 0 C2.875 -0.125 2.875 -0.125 6 0 C6.66 0.66 7.32 1.32 8 2 C7.83754442 5.73647845 7.41216356 7.52538742 4.9375 10.375 C4.298125 10.91125 3.65875 11.4475 3 12 C4.65 12.33 6.3 12.66 8 13 C8 13.66 8 14.32 8 15 C4.7 15 1.4 15 -2 15 C0 11 0 11 2.125 8.4375 C4.30485538 6.11622611 4.30485538 6.11622611 4 3 C3.34 3 2.68 3 2 3 C1.67 3.66 1.34 4.32 1 5 C0.01 5 -0.98 5 -2 5 C-1.34 3.35 -0.68 1.7 0 0 Z " fill="#000000" transform="translate(403,4)"/>
<path d="M0 0 C2.33944736 0.28730055 4.6739143 0.61936779 7 1 C7.36630156 4.93774177 7.30233203 6.56539771 5 9.875 C4.34 10.57625 3.68 11.2775 3 12 C4.65 12.33 6.3 12.66 8 13 C8 13.66 8 14.32 8 15 C4.7 15 1.4 15 -2 15 C-0.66837689 11.00513068 1.05840921 8.94159079 4 6 C4 5.01 4 4.02 4 3 C2.02 3.66 0.04 4.32 -2 5 C-1.125 1.125 -1.125 1.125 0 0 Z " fill="#000000" transform="translate(458,743)"/>
<path d="M0 0 C-0.33 0.99 -0.66 1.98 -1 3 C-3.49498445 4.07222472 -5.85850745 4.94510667 -8.4375 5.75 C-9.13166016 5.98332031 -9.82582031 6.21664063 -10.54101562 6.45703125 C-15.73025977 8.13487011 -15.73025977 8.13487011 -18 7 C-18 6.34 -18 5.68 -18 5 C-15.75267898 4.15875684 -13.50261215 3.32685168 -11.25 2.5 C-10.61578125 2.26152344 -9.9815625 2.02304687 -9.328125 1.77734375 C-5.96713393 0.55198242 -3.63128413 0 0 0 Z " fill="#000000" transform="translate(215,389)"/>
<path d="M0 0 C0 4.95 0 9.9 0 15 C-0.99 15 -1.98 15 -3 15 C-3 11.37 -3 7.74 -3 4 C-3.99 4.33 -4.98 4.66 -6 5 C-5.625 3.0625 -5.625 3.0625 -5 1 C-3 0 -3 0 0 0 Z " fill="#000000" transform="translate(7,395)"/>
<path d="M0 0 C0 4.95 0 9.9 0 15 C-0.99 15 -1.98 15 -3 15 C-3 11.37 -3 7.74 -3 4 C-3.99 4.33 -4.98 4.66 -6 5 C-5.625 3.0625 -5.625 3.0625 -5 1 C-3 0 -3 0 0 0 Z " fill="#000000" transform="translate(423,4)"/>
<path d="M0 0 C0 0.66 0 1.32 0 2 C-1.725227 2.67679658 -3.45538939 3.34102 -5.1875 4 C-6.15042969 4.37125 -7.11335937 4.7425 -8.10546875 5.125 C-10.92182358 5.97636772 -13.08164439 6.17072647 -16 6 C-15.67 5.01 -15.34 4.02 -15 3 C-12.12890625 1.796875 -12.12890625 1.796875 -8.5625 0.75 C-7.38816406 0.39421875 -6.21382812 0.0384375 -5.00390625 -0.328125 C-2 -1 -2 -1 0 0 Z " fill="#000000" transform="translate(194,396)"/>
<path d="M0 0 C0 0.99 0 1.98 0 3 C-6.435 4.98 -6.435 4.98 -13 7 C-12.67 5.68 -12.34 4.36 -12 3 C-10.0390625 1.953125 -10.0390625 1.953125 -7.625 1.25 C-6.83351562 1.00765625 -6.04203125 0.7653125 -5.2265625 0.515625 C-3 0 -3 0 0 0 Z " fill="#000000" transform="translate(172,402)"/>
<path d="M0 0 C0.33 0.99 0.66 1.98 1 3 C-0.4562545 3.67119549 -1.91507867 4.33681807 -3.375 5 C-4.59316406 5.556875 -4.59316406 5.556875 -5.8359375 6.125 C-8 7 -8 7 -10 7 C-9.9375 5.1875 -9.9375 5.1875 -9 3 C-3.10714286 0 -3.10714286 0 0 0 Z " fill="#000000" transform="translate(410,675)"/>
<path d="M0 0 C0 0.66 0 1.32 0 2 C-1.26418246 2.69965443 -2.53665402 3.38434763 -3.8125 4.0625 C-4.52019531 4.44535156 -5.22789062 4.82820312 -5.95703125 5.22265625 C-8 6 -8 6 -11 5 C-11 4.34 -11 3.68 -11 3 C-9.73581754 2.30034557 -8.46334598 1.61565237 -7.1875 0.9375 C-6.47980469 0.55464844 -5.77210938 0.17179688 -5.04296875 -0.22265625 C-3 -1 -3 -1 0 0 Z " fill="#000000" transform="translate(429,667)"/>
<path d="M0 0 C0 0.99 0 1.98 0 3 C-4.95 4.485 -4.95 4.485 -10 6 C-10 4.68 -10 3.36 -10 2 C-6.38026598 0.68373308 -3.90432869 0 0 0 Z " fill="#000000" transform="translate(304,92)"/>
<path d="M0 0 C3.99500618 1.3697164 6.80009492 3.25722422 10 6 C9.67 6.66 9.34 7.32 9 8 C4.56541027 6.6062718 2.12621626 4.39417765 -1 1 C-0.67 0.67 -0.34 0.34 0 0 Z " fill="#000000" transform="translate(187,658)"/>
<path d="M0 0 C0.66 0.33 1.32 0.66 2 1 C0.65289578 5.04131267 -1.38428334 5.90288434 -5 8 C-5.99 8 -6.98 8 -8 8 C-8 7.01 -8 6.02 -8 5 C-6.3203125 3.578125 -6.3203125 3.578125 -4.125 2.25 C-3.40570313 1.80140625 -2.68640625 1.3528125 -1.9453125 0.890625 C-1.30335938 0.59671875 -0.66140625 0.3028125 0 0 Z " fill="#000000" transform="translate(444,655)"/>
<path d="M0 0 C-0.38520564 2.53910197 -0.70097943 3.72751123 -2.62890625 5.484375 C-3.26699219 5.90203125 -3.90507812 6.3196875 -4.5625 6.75 C-5.20316406 7.17796875 -5.84382813 7.6059375 -6.50390625 8.046875 C-7.24447266 8.51867187 -7.24447266 8.51867187 -8 9 C-8.66 8.01 -9.32 7.02 -10 6 C-8.71283353 4.99421411 -7.42011342 3.99553202 -6.125 3 C-5.40570313 2.443125 -4.68640625 1.88625 -3.9453125 1.3125 C-2 0 -2 0 0 0 Z " fill="#000000" transform="translate(462,643)"/>
<path d="M0 0 C1.34173403 0.92543709 2.67320159 1.86577405 4 2.8125 C5.11375 3.59560547 5.11375 3.59560547 6.25 4.39453125 C7.11625 5.18923828 7.11625 5.18923828 8 6 C8 6.99 8 7.98 8 9 C3.75177626 8.52797514 1.80010291 6.03344482 -1 3 C-0.67 2.01 -0.34 1.02 0 0 Z " fill="#000000" transform="translate(156,632)"/>
<path d="M0 0 C0 0.66 0 1.32 0 2 C-1.28913487 2.67154933 -2.58140204 3.33708859 -3.875 4 C-4.59429687 4.37125 -5.31359375 4.7425 -6.0546875 5.125 C-8 6 -8 6 -10 6 C-10.33 5.01 -10.66 4.02 -11 3 C-9.73581754 2.30034557 -8.46334598 1.61565237 -7.1875 0.9375 C-6.47980469 0.55464844 -5.77210938 0.17179687 -5.04296875 -0.22265625 C-3 -1 -3 -1 0 0 Z " fill="#000000" transform="translate(309,352)"/>
<path d="M0 0 C0.66 0.99 1.32 1.98 2 3 C0.71186658 3.83878455 -0.58063256 4.67086783 -1.875 5.5 C-2.59429687 5.9640625 -3.31359375 6.428125 -4.0546875 6.90625 C-6 8 -6 8 -8 8 C-8.33 7.01 -8.66 6.02 -9 5 C-6.03 3.35 -3.06 1.7 0 0 Z " fill="#000000" transform="translate(342,332)"/>
<path d="M0 0 C-3.12621626 3.39417765 -5.56541027 5.6062718 -10 7 C-10.33 6.01 -10.66 5.02 -11 4 C-9.73760288 3.13341385 -8.46472499 2.28207941 -7.1875 1.4375 C-6.47980469 0.96183594 -5.77210938 0.48617188 -5.04296875 -0.00390625 C-3 -1 -3 -1 0 0 Z " fill="#000000" transform="translate(361,323)"/>
<path d="M0 0 C0.66 0.33 1.32 0.66 2 1 C0.64978174 5.41889613 -1.26115668 7.34345343 -5 10 C-5.66 9.34 -6.32 8.68 -7 8 C-4.69 5.36 -2.38 2.72 0 0 Z " fill="#000000" transform="translate(418,270)"/>
<path d="M0 0 C0.99 0 1.98 0 3 0 C2.38545304 3.99455527 0.29353263 6.74466336 -2 10 C-2.99 9.67 -3.98 9.34 -5 9 C-3.49901406 5.88256767 -1.97568178 2.84498177 0 0 Z " fill="#000000" transform="translate(429,255)"/>
<path d="M0 0 C0.66 0.33 1.32 0.66 2 1 C0.51218185 4.78717347 -1.61988409 6.77407001 -5 9 C-5.99 8.67 -6.98 8.34 -8 8 C-5.58443874 4.80800833 -3.31996462 2.25283313 0 0 Z " fill="#000000" transform="translate(163,172)"/>
<path d="M0 0 C0.515625 0.2475 1.03125 0.495 1.5625 0.75 C-0.80694013 3.36885488 -3.27483102 5.16866551 -6.4375 6.75 C-7.4275 6.42 -8.4175 6.09 -9.4375 5.75 C-9.4375 5.09 -9.4375 4.43 -9.4375 3.75 C-3.0375 -0.31153846 -3.0375 -0.31153846 0 0 Z " fill="#000000" transform="translate(247.4375,116.25)"/>
<path d="M0 0 C0.53625 0.226875 1.0725 0.45375 1.625 0.6875 C-1.09978774 4.05341427 -4.44356792 5.12976276 -8.375 6.6875 C-8.375 5.3675 -8.375 4.0475 -8.375 2.6875 C-2.95961538 -0.38942308 -2.95961538 -0.38942308 0 0 Z " fill="#000000" transform="translate(265.375,107.3125)"/>
<path d="M0 0 C3.63 0 7.26 0 11 0 C11 0.99 11 1.98 11 3 C7.37 3 3.74 3 0 3 C0 2.01 0 1.02 0 0 Z " fill="#000000" transform="translate(321,696)"/>
<path d="M0 0 C0 0.99 0 1.98 0 3 C-3.63 3.66 -7.26 4.32 -11 5 C-11 4.01 -11 3.02 -11 2 C-7.12315913 0.80712589 -4.08378077 0 0 0 Z " fill="#000000" transform="translate(372,689)"/>
<path d="M0 0 C3.99455527 0.61454696 6.74466336 2.70646737 10 5 C9.67 5.99 9.34 6.98 9 8 C5.56247993 6.4722133 2.81046312 4.49818944 0 2 C0 1.34 0 0.68 0 0 Z " fill="#000000" transform="translate(170,646)"/>
<path d="M0 0 C0.99 0.33 1.98 0.66 3 1 C2.07456291 2.34173403 1.13422595 3.67320159 0.1875 5 C-0.33457031 5.7425 -0.85664063 6.485 -1.39453125 7.25 C-1.92433594 7.8275 -2.45414062 8.405 -3 9 C-3.99 9 -4.98 9 -6 9 C-4.47291037 5.56404834 -2.40072955 2.88087546 0 0 Z " fill="#000000" transform="translate(488,614)"/>
<path d="M0 0 C0.99 0 1.98 0 3 0 C3 3.63 3 7.26 3 11 C2.01 11 1.02 11 0 11 C0 7.37 0 3.74 0 0 Z " fill="#000000" transform="translate(140,609)"/>
<path d="M0 0 C0.99 0 1.98 0 3 0 C2.43454163 3.95820859 1.19097652 6.6659053 -1 10 C-1.99 9.67 -2.98 9.34 -4 9 C-2.80100302 5.9168649 -1.52299523 2.93720508 0 0 Z " fill="#000000" transform="translate(498,597)"/>
<path d="M0 0 C0.99 0 1.98 0 3 0 C3 3.63 3 7.26 3 11 C2.01 11 1.02 11 0 11 C0 7.37 0 3.74 0 0 Z " fill="#000000" transform="translate(140,589)"/>
<path d="M0 0 C0.99 0 1.98 0 3 0 C3 3.63 3 7.26 3 11 C2.01 11 1.02 11 0 11 C0 7.37 0 3.74 0 0 Z " fill="#000000" transform="translate(140,569)"/>
<path d="M0 0 C0.99 0 1.98 0 3 0 C3 3.63 3 7.26 3 11 C2.01 11 1.02 11 0 11 C0 7.37 0 3.74 0 0 Z " fill="#000000" transform="translate(139,470)"/>
<path d="M0 0 C2.3129482 2.3129482 2.49580975 3.47904875 3.125 6.625 C3.29257812 7.44226563 3.46015625 8.25953125 3.6328125 9.1015625 C3.81457031 10.04128906 3.81457031 10.04128906 4 11 C3.01 11 2.02 11 1 11 C0.01 7.7 -0.98 4.4 -2 1 C-1.34 0.67 -0.68 0.34 0 0 Z " fill="#000000" transform="translate(495,458)"/>
<path d="M0 0 C0.99 0 1.98 0 3 0 C3 3.63 3 7.26 3 11 C2.01 11 1.02 11 0 11 C0 7.37 0 3.74 0 0 Z " fill="#000000" transform="translate(139,450)"/>
<path d="M0 0 C0.99 0 1.98 0 3 0 C6.07692308 6.4 6.07692308 6.4 5.6875 9.4375 C5.460625 9.953125 5.23375 10.46875 5 11 C2.27042661 8.64264116 1.11106604 6.41866474 0 3 C0 2.01 0 1.02 0 0 Z " fill="#000000" transform="translate(486,440)"/>
<path d="M0 0 C0.99 0 1.98 0 3 0 C3 3.63 3 7.26 3 11 C2.01 11 1.02 11 0 11 C0 7.37 0 3.74 0 0 Z " fill="#000000" transform="translate(139,430)"/>
<path d="M0 0 C0.99 0 1.98 0 3 0 C3 3.63 3 7.26 3 11 C2.01 11 1.02 11 0 11 C0 7.37 0 3.74 0 0 Z " fill="#000000" transform="translate(139,410)"/>
<path d="M0 0 C0.99 0 1.98 0 3 0 C3 3.63 3 7.26 3 11 C2.01 11 1.02 11 0 11 C0 7.37 0 3.74 0 0 Z " fill="#000000" transform="translate(139,390)"/>
<path d="M0 0 C3.95820859 0.56545837 6.6659053 1.80902348 10 4 C9.67 4.99 9.34 5.98 9 7 C5.40608886 5.66511872 2.24509304 4.03977277 -1 2 C-0.67 1.34 -0.34 0.68 0 0 Z " fill="#000000" transform="translate(433,382)"/>
<path d="M0 0 C0 0.99 0 1.98 0 3 C-3.3 3.66 -6.6 4.32 -10 5 C-10.33 4.01 -10.66 3.02 -11 2 C-3.375 0 -3.375 0 0 0 Z " fill="#000000" transform="translate(266,376)"/>
<path d="M0 0 C0 0.99 0 1.98 0 3 C-3.63 3.66 -7.26 4.32 -11 5 C-11 4.01 -11 3.02 -11 2 C-7.12315913 0.80712589 -4.08378077 0 0 0 Z " fill="#000000" transform="translate(286,372)"/>
<path d="M0 0 C3.63 0 7.26 0 11 0 C11 0.99 11 1.98 11 3 C7.37 3 3.74 3 0 3 C0 2.01 0 1.02 0 0 Z " fill="#000000" transform="translate(335,365)"/>
<path d="M0 0 C-1 3 -1 3 -3.8125 4.75 C-6.96403086 5.98589446 -7.96929372 6.28222189 -11 5 C-7.56138316 1.21752148 -5.17193751 0 0 0 Z " fill="#000000" transform="translate(291,360)"/>
<path d="M0 0 C-0.125 1.8125 -0.125 1.8125 -1 4 C-3.875 5.8125 -3.875 5.8125 -7 7 C-7.99 6.67 -8.98 6.34 -10 6 C-10 5.34 -10 4.68 -10 4 C-8.71086513 3.32845067 -7.41859796 2.66291141 -6.125 2 C-5.40570313 1.62875 -4.68640625 1.2575 -3.9453125 0.875 C-2 0 -2 0 0 0 Z " fill="#000000" transform="translate(326,342)"/>
<path d="M0 0 C0.8353125 0.37125 0.8353125 0.37125 1.6875 0.75 C-1.12054268 3.71404505 -3.49565774 6.19499019 -7.3125 7.75 C-7.3125 3.75 -7.3125 3.75 -5.0625 1.4375 C-2.3125 -0.25 -2.3125 -0.25 0 0 Z " fill="#000000" transform="translate(375.3125,311.25)"/>
<path d="M0 0 C0.99 0 1.98 0 3 0 C3 3.63 3 7.26 3 11 C2.01 11 1.02 11 0 11 C0 7.37 0 3.74 0 0 Z " fill="#000000" transform="translate(138,291)"/>
<path d="M0 0 C0.99 0 1.98 0 3 0 C3 3.63 3 7.26 3 11 C2.01 11 1.02 11 0 11 C0 7.37 0 3.74 0 0 Z " fill="#000000" transform="translate(138,271)"/>
<path d="M0 0 C0.99 0 1.98 0 3 0 C3 3.63 3 7.26 3 11 C2.01 11 1.02 11 0 11 C0 7.37 0 3.74 0 0 Z " fill="#000000" transform="translate(138,251)"/>
<path d="M0 0 C0.99 0 1.98 0 3 0 C3 3.63 3 7.26 3 11 C2.01 11 1.02 11 0 11 C0 7.37 0 3.74 0 0 Z " fill="#000000" transform="translate(137,211)"/>
<path d="M0 0 C0.99 0 1.98 0 3 0 C3 3.63 3 7.26 3 11 C2.01 11 1.02 11 0 11 C0 7.37 0 3.74 0 0 Z " fill="#000000" transform="translate(137,191)"/>
<path d="M0 0 C0.99 0 1.98 0 3 0 C3 3.63 3 7.26 3 11 C2.01 11 1.02 11 0 11 C0 7.37 0 3.74 0 0 Z " fill="#000000" transform="translate(137,171)"/>
<path d="M0 0 C0.99 0.33 1.98 0.66 3 1 C0.78071806 3.90802461 -0.92969143 5.95312762 -4 8 C-4.99 8 -5.98 8 -7 8 C-5.51218185 4.21282653 -3.38011591 2.22592999 0 0 Z " fill="#000000" transform="translate(178,160)"/>
<path d="M0 0 C0.99 0 1.98 0 3 0 C3 3.63 3 7.26 3 11 C2.01 11 1.02 11 0 11 C0 7.37 0 3.74 0 0 Z " fill="#000000" transform="translate(137,151)"/>
<path d="M0 0 C0.99 0.33 1.98 0.66 3 1 C3 1.66 3 2.32 3 3 C1.57421875 4.32421875 1.57421875 4.32421875 -0.3125 5.6875 C-0.92738281 6.14511719 -1.54226562 6.60273438 -2.17578125 7.07421875 C-2.77777344 7.37972656 -3.37976563 7.68523437 -4 8 C-4.99 7.67 -5.98 7.34 -7 7 C-7 6.34 -7 5.68 -7 5 C-5.57421875 3.67578125 -5.57421875 3.67578125 -3.6875 2.3125 C-3.07261719 1.85488281 -2.45773438 1.39726562 -1.82421875 0.92578125 C-1.22222656 0.62027344 -0.62023437 0.31476563 0 0 Z " fill="#000000" transform="translate(194,148)"/>
<path d="M0 0 C0.66 0.99 1.32 1.98 2 3 C0.90241493 3.84198307 -0.20335317 4.67330671 -1.3125 5.5 C-1.92738281 5.9640625 -2.54226562 6.428125 -3.17578125 6.90625 C-5 8 -5 8 -8 8 C-8 7.01 -8 6.02 -8 5 C-6.25 3.61328125 -6.25 3.61328125 -4 2.3125 C-3.2575 1.87550781 -2.515 1.43851563 -1.75 0.98828125 C-1.1725 0.66214844 -0.595 0.33601562 0 0 Z " fill="#000000" transform="translate(212,136)"/>
<path d="M0 0 C4.24822374 0.47202486 6.19989709 2.96655518 9 6 C8.67 6.99 8.34 7.98 8 9 C7.34 9 6.68 9 6 9 C4.64613064 7.34997172 3.31321858 5.6825613 2 4 C1.34 3.67 0.68 3.34 0 3 C0 2.01 0 1.02 0 0 Z " fill="#000000" transform="translate(427,109)"/>
<path d="M0 0 C-0.33 0.99 -0.66 1.98 -1 3 C-3.06640625 3.94921875 -3.06640625 3.94921875 -5.5625 4.6875 C-6.38878906 4.93886719 -7.21507812 5.19023438 -8.06640625 5.44921875 C-8.70449219 5.63097656 -9.34257812 5.81273438 -10 6 C-10.33 5.01 -10.66 4.02 -11 3 C-4.5 0 -4.5 0 0 0 Z " fill="#000000" transform="translate(285,99)"/>
<path d="M0 0 C-0.33 0.99 -0.66 1.98 -1 3 C-4.3 3.66 -7.6 4.32 -11 5 C-10.67 3.68 -10.34 2.36 -10 1 C-8.71073008 0.63720544 -7.41846728 0.28503302 -6.125 -0.0625 C-5.40570313 -0.25972656 -4.68640625 -0.45695312 -3.9453125 -0.66015625 C-2 -1 -2 -1 0 0 Z " fill="#000000" transform="translate(324,87)"/>
<path d="M0 0 C1.4370809 -0.05422947 2.87475462 -0.09289723 4.3125 -0.125 C5.11300781 -0.14820313 5.91351563 -0.17140625 6.73828125 -0.1953125 C9 0 9 0 12 2 C11.34 2.66 10.68 3.32 10 4 C7.8359375 3.9765625 7.8359375 3.9765625 5.375 3.625 C4.55773437 3.51414062 3.74046875 3.40328125 2.8984375 3.2890625 C2.27195312 3.19367187 1.64546875 3.09828125 1 3 C0.67 2.01 0.34 1.02 0 0 Z " fill="#000000" transform="translate(280,695)"/>
<path d="M0 0 C0 0.99 0 1.98 0 3 C-2.75078884 3.91692961 -4.35948913 4.10886083 -7.1875 4.0625 C-9.0746875 4.0315625 -9.0746875 4.0315625 -11 4 C-10.67 3.01 -10.34 2.02 -10 1 C-3.375 0 -3.375 0 0 0 Z " fill="#000000" transform="translate(352,693)"/>
<path d="M0 0 C7.75 0.875 7.75 0.875 10 2 C10 2.99 10 3.98 10 5 C6.37 4.34 2.74 3.68 -1 3 C-0.67 2.01 -0.34 1.02 0 0 Z " fill="#000000" transform="translate(261,691)"/>
<path d="M0 0 C5.445 1.485 5.445 1.485 11 3 C10.67 3.99 10.34 4.98 10 6 C6.7 5.01 3.4 4.02 0 3 C0 2.01 0 1.02 0 0 Z " fill="#000000" transform="translate(241,685)"/>
<path d="M0 0 C-1 2 -1 2 -3.28515625 2.8515625 C-4.65994141 3.23441406 -4.65994141 3.23441406 -6.0625 3.625 C-6.98160156 3.88539063 -7.90070313 4.14578125 -8.84765625 4.4140625 C-9.55792969 4.60742188 -10.26820313 4.80078125 -11 5 C-10.67578125 3.08203125 -10.67578125 3.08203125 -10 1 C-6.36961463 -0.69417984 -3.80522763 -1.46354909 0 0 Z " fill="#000000" transform="translate(392,684)"/>
<path d="M0 0 C4.12751449 0.60698743 7.3321148 2.03810791 11 4 C10.67 4.66 10.34 5.32 10 6 C6.44219804 5.39009109 3.3171411 4.4216319 0 3 C0 2.01 0 1.02 0 0 Z " fill="#000000" transform="translate(222,678)"/>
<path d="M0 0 C3.95820859 0.56545837 6.6659053 1.80902348 10 4 C9.67 4.99 9.34 5.98 9 7 C7.68176698 6.40844669 6.37052949 5.80128537 5.0625 5.1875 C4.33160156 4.85105469 3.60070312 4.51460937 2.84765625 4.16796875 C1 3 1 3 0 0 Z " fill="#000000" transform="translate(204,669)"/>
<path d="M0 0 C0.99 0.33 1.98 0.66 3 1 C2.01 4.3 1.02 7.6 0 11 C-0.99 10.67 -1.98 10.34 -3 10 C-2.69201674 8.51988629 -2.378482 7.04092675 -2.0625 5.5625 C-1.88847656 4.73878906 -1.71445312 3.91507813 -1.53515625 3.06640625 C-1 1 -1 1 0 0 Z " fill="#000000" transform="translate(506,578)"/>
<path d="M0 0 C0.99 0 1.98 0 3 0 C3 3.3 3 6.6 3 10 C2.01 10.33 1.02 10.66 0 11 C0 7.37 0 3.74 0 0 Z " fill="#000000" transform="translate(140,510)"/>
<path d="M0 0 C0.99 0 1.98 0 3 0 C3.66 3.3 4.32 6.6 5 10 C4.01 10.33 3.02 10.66 2 11 C0.80712589 7.12315913 0 4.08378077 0 0 Z " fill="#000000" transform="translate(499,478)"/>
<path d="M0 0 C0.66 0 1.32 0 2 0 C6 6.625 6 6.625 6 10 C2.19118361 8.55527654 0.70257114 6.67396929 -1 3 C-0.67 2.01 -0.34 1.02 0 0 Z " fill="#000000" transform="translate(477,422)"/>
<path d="M0 0 C5.78461538 4.43076923 5.78461538 4.43076923 6.875 7.3125 C6.936875 8.1478125 6.936875 8.1478125 7 9 C6.01 9 5.02 9 4 9 C1.25 6.1875 1.25 6.1875 -1 3 C-0.67 2.01 -0.34 1.02 0 0 Z " fill="#000000" transform="translate(465,406)"/>
<path d="M0 0 C3.72114571 2.31537955 6.61229661 4.28579473 9 8 C3.69520066 8 2.81017373 6.4637943 -1 3 C-0.67 2.01 -0.34 1.02 0 0 Z " fill="#000000" transform="translate(450,392)"/>
<path d="M0 0 C4.05606165 0.46800711 7.46588679 0.87953208 11 3 C10.67 3.99 10.34 4.98 10 6 C5.05 4.02 5.05 4.02 0 2 C0 1.34 0 0.68 0 0 Z " fill="#000000" transform="translate(414,374)"/>
<path d="M0 0 C-0.33 0.99 -0.66 1.98 -1 3 C-4.3 3.33 -7.6 3.66 -11 4 C-11 3.01 -11 2.02 -11 1 C-7.32589215 -0.17571451 -3.83070817 -0.07366746 0 0 Z " fill="#000000" transform="translate(306,369)"/>
<path d="M0 0 C-1 2 -1 2 -3.06640625 2.8515625 C-4.30197266 3.23441406 -4.30197266 3.23441406 -5.5625 3.625 C-6.38878906 3.88539063 -7.21507812 4.14578125 -8.06640625 4.4140625 C-8.70449219 4.60742188 -9.34257812 4.80078125 -10 5 C-10.33 4.01 -10.66 3.02 -11 2 C-3.57142857 -1.57142857 -3.57142857 -1.57142857 0 0 Z " fill="#000000" transform="translate(273,369)"/>
<path d="M0 0 C0 0.99 0 1.98 0 3 C-3.63 3.33 -7.26 3.66 -11 4 C-11 3.01 -11 2.02 -11 1 C-7.27569643 0.30710631 -3.78916254 -0.11144596 0 0 Z " fill="#000000" transform="translate(326,366)"/>
<path d="M0 0 C0.66 0.33 1.32 0.66 2 1 C0.49776416 5.20626034 -2.28550034 6.73900021 -6 9 C-6 5 -6 5 -4.6875 3.515625 C-3.125 2.34375 -1.5625 1.171875 0 0 Z " fill="#000000" transform="translate(390,298)"/>
<path d="M0 0 C0.99 0 1.98 0 3 0 C2.43454163 3.95820859 1.19097652 6.6659053 -1 10 C-1.99 9.67 -2.98 9.34 -4 9 C-2.68 6.03 -1.36 3.06 0 0 Z " fill="#000000" transform="translate(439,238)"/>
<path d="M0 0 C0.99 0.33 1.98 0.66 3 1 C3.73046875 3.06640625 3.73046875 3.06640625 4.1875 5.5625 C4.34605469 6.38878906 4.50460937 7.21507812 4.66796875 8.06640625 C4.77753906 8.70449219 4.88710938 9.34257812 5 10 C4.01 10.33 3.02 10.66 2 11 C1.01 7.7 0.02 4.4 -1 1 C-0.67 0.67 -0.34 0.34 0 0 Z " fill="#000000" transform="translate(449,142)"/>
<path d="M0 0 C0.99 0.33 1.98 0.66 3 1 C3 4.3 3 7.6 3 11 C2.01 11 1.02 11 0 11 C0 7.37 0 3.74 0 0 Z " fill="#000000" transform="translate(137,131)"/>
<path d="M0 0 C-2.25740623 2.33524782 -4.2805761 4.18705073 -7 6 C-7.99 6 -8.98 6 -10 6 C-10 5.01 -10 4.02 -10 3 C-3.375 -1.125 -3.375 -1.125 0 0 Z " fill="#000000" transform="translate(231,127)"/>
<path d="M0 0 C2.39489543 0.74324341 3.70777616 1.47057354 4.93359375 3.69140625 C5.67219923 5.44073501 6.34049685 7.21934149 7 9 C5.68 9 4.36 9 3 9 C1.68 6.36 0.36 3.72 -1 1 C-0.67 0.67 -0.34 0.34 0 0 Z " fill="#000000" transform="translate(441,124)"/>
<path d="M0 0 C0.99 0.33 1.98 0.66 3 1 C3 4.3 3 7.6 3 11 C2.01 11 1.02 11 0 11 C0 7.37 0 3.74 0 0 Z " fill="#000000" transform="translate(137,111)"/>
<path d="M0 0 C4.38462134 0.50109958 6.8000997 1.98295115 10 5 C10 5.66 10 6.32 10 7 C5.61537866 6.49890042 3.1999003 5.01704885 0 2 C0 1.34 0 0.68 0 0 Z " fill="#000000" transform="translate(411,97)"/>
<path d="M0 0 C3.3 0.99 6.6 1.98 10 3 C10 3.99 10 4.98 10 6 C6.0507432 5.44894091 2.65079826 4.61064629 -1 3 C-0.67 2.01 -0.34 1.02 0 0 Z " fill="#000000" transform="translate(393,88)"/>
<path d="M0 0 C7.42857143 -0.14285714 7.42857143 -0.14285714 11 1 C11 1.99 11 2.98 11 4 C7.7 3.67 4.4 3.34 1 3 C0.67 2.01 0.34 1.02 0 0 Z " fill="#000000" transform="translate(373,84)"/>
<path d="M0 0 C0 0.66 0 1.32 0 2 C-3.67410785 3.17571451 -7.16929183 3.07366746 -11 3 C-11 2.01 -11 1.02 -11 0 C-3.375 -1.125 -3.375 -1.125 0 0 Z " fill="#000000" transform="translate(344,84)"/>
<path d="M0 0 C0.66 0.33 1.32 0.66 2 1 C0.55873214 4.36295835 -1.20592655 6.62927102 -4 9 C-4.99 9 -5.98 9 -7 9 C-5.44499019 5.18315774 -2.96404505 2.80804268 0 0 Z " fill="#000000" transform="translate(475,629)"/>
<path d="M0 0 C0.99 0 1.98 0 3 0 C3.33 3.3 3.66 6.6 4 10 C3.01 10.33 2.02 10.66 1 11 C0.67 7.37 0.34 3.74 0 0 Z " fill="#000000" transform="translate(503,498)"/>
<path d="M0 0 C4.95 0.99 4.95 0.99 10 2 C10 2.99 10 3.98 10 5 C2.25 4.125 2.25 4.125 0 3 C0 2.01 0 1.02 0 0 Z " fill="#000000" transform="translate(395,368)"/>
<path d="M0 0 C0.99 0.33 1.98 0.66 3 1 C2.07038578 2.15224028 1.1309875 3.29659176 0.1875 4.4375 C-0.59560547 5.39462891 -0.59560547 5.39462891 -1.39453125 6.37109375 C-3 8 -3 8 -6 9 C-5.52797514 4.75177626 -3.03344482 2.80010291 0 0 Z " fill="#000000" transform="translate(404,285)"/>
<path d="M0 0 C0.99 0 1.98 0 3 0 C2.39009109 3.55780196 1.4216319 6.6828589 0 10 C-0.99 10 -1.98 10 -3 10 C-2.01 6.7 -1.02 3.4 0 0 Z " fill="#000000" transform="translate(447,220)"/>
<path d="M0 0 C0.99 0 1.98 0 3 0 C2.25 7.625 2.25 7.625 0 11 C-0.66 10.67 -1.32 10.34 -2 10 C-1.34 6.7 -0.68 3.4 0 0 Z " fill="#000000" transform="translate(452,201)"/>
<path d="M0 0 C0.99 0 1.98 0 3 0 C3.0270043 1.45823212 3.04639787 2.91660675 3.0625 4.375 C3.07410156 5.18710938 3.08570313 5.99921875 3.09765625 6.8359375 C3 9 3 9 2 11 C1.34 11 0.68 11 0 11 C0 7.37 0 3.74 0 0 Z " fill="#000000" transform="translate(454,181)"/>
<path d="M0 0 C0.66 0 1.32 0 2 0 C2.33 3.63 2.66 7.26 3 11 C2.01 11 1.02 11 0 11 C-1.16461426 7.50615721 -1.13568319 4.66344611 -1 1 C-0.67 0.67 -0.34 0.34 0 0 Z " fill="#000000" transform="translate(454,161)"/>
<path d="M0 0 C0.99 0 1.98 0 3 0 C3 3.3 3 6.6 3 10 C2.01 10 1.02 10 0 10 C0 6.7 0 3.4 0 0 Z " fill="#000000" transform="translate(140,550)"/>
<path d="M0 0 C0.99 0 1.98 0 3 0 C3 3.3 3 6.6 3 10 C2.01 10 1.02 10 0 10 C0 6.7 0 3.4 0 0 Z " fill="#000000" transform="translate(507,538)"/>
<path d="M0 0 C0.99 0 1.98 0 3 0 C3 3.3 3 6.6 3 10 C2.01 10 1.02 10 0 10 C0 6.7 0 3.4 0 0 Z " fill="#000000" transform="translate(140,530)"/>
<path d="M0 0 C0.99 0 1.98 0 3 0 C4.60725635 3.21451269 4.05748185 6.43612536 4 10 C3.01 10 2.02 10 1 10 C0.67 6.7 0.34 3.4 0 0 Z " fill="#000000" transform="translate(505,518)"/>
<path d="M0 0 C3.3 0 6.6 0 10 0 C10.33 0.99 10.66 1.98 11 3 C9.54176788 3.0270043 8.08339325 3.04639787 6.625 3.0625 C5.81289063 3.07410156 5.00078125 3.08570313 4.1640625 3.09765625 C2 3 2 3 0 2 C0 1.34 0 0.68 0 0 Z " fill="#000000" transform="translate(375,366)"/>
<path d="M0 0 C3.63 0 7.26 0 11 0 C11 0.99 11 1.98 11 3 C9.741875 3.020625 8.48375 3.04125 7.1875 3.0625 C6.47980469 3.07410156 5.77210938 3.08570313 5.04296875 3.09765625 C3 3 3 3 0 2 C0 1.34 0 0.68 0 0 Z " fill="#000000" transform="translate(355,365)"/>
<path d="M0 0 C0.66 0 1.32 0 2 0 C2 3.63 2 7.26 2 11 C1.34 11 0.68 11 0 11 C-1.62651522 7.74696956 -1.11453156 4.60774398 -1 1 C-0.67 0.67 -0.34 0.34 0 0 Z " fill="#000000" transform="translate(139,350)"/>
<path d="M0 0 C0.99 0 1.98 0 3 0 C3 3.3 3 6.6 3 10 C2.01 10 1.02 10 0 10 C0 6.7 0 3.4 0 0 Z " fill="#000000" transform="translate(138,331)"/>
<path d="M0 0 C0.99 0 1.98 0 3 0 C3 3.3 3 6.6 3 10 C2.01 10 1.02 10 0 10 C0 6.7 0 3.4 0 0 Z " fill="#000000" transform="translate(138,311)"/>
<path d="M0 0 C3.63 0.33 7.26 0.66 11 1 C11 1.99 11 2.98 11 4 C7.37 3.67 3.74 3.34 0 3 C0 2.01 0 1.02 0 0 Z " fill="#000000" transform="translate(301,696)"/>
<path d="M0 0 C0.66 0 1.32 0 2 0 C2.33 3.63 2.66 7.26 3 11 C2.01 11 1.02 11 0 11 C0 7.37 0 3.74 0 0 Z " fill="#000000" transform="translate(139,370)"/>
<path d="M0 0 C0.66 0 1.32 0 2 0 C2 3.63 2 7.26 2 11 C1.01 11 0.02 11 -1 11 C-0.67 7.37 -0.34 3.74 0 0 Z " fill="#000000" transform="translate(508,558)"/>
<path d="M0 0 C0.99 0 1.98 0 3 0 C3 3.63 3 7.26 3 11 C2.34 11 1.68 11 1 11 C0.67 7.37 0.34 3.74 0 0 Z " fill="#000000" transform="translate(139,490)"/>
<path d="M0 0 C3.63 0 7.26 0 11 0 C11 0.99 11 1.98 11 3 C7.37 2.67 3.74 2.34 0 2 C0 1.34 0 0.68 0 0 Z " fill="#000000" transform="translate(353,83)"/>
<path d="M0 0 C0.66 0 1.32 0 2 0 C1.43697042 3.94120709 0.3208055 6.7508723 -2 10 C-2.66 10 -3.32 10 -4 10 C-2.8905928 6.51329166 -1.73662334 3.22515763 0 0 Z " fill="#000000" transform="translate(671,488)"/>
<path d="M0 0 C0.66 0 1.32 0 2 0 C2.33 3.63 2.66 7.26 3 11 C2.01 11 1.02 11 0 11 C0 7.37 0 3.74 0 0 Z " fill="#000000" transform="translate(138,231)"/>
<path d="M0 0 C4.95 0.99 4.95 0.99 10 2 C10 2.99 10 3.98 10 5 C8.51793505 4.745504 7.03931385 4.47088238 5.5625 4.1875 C4.73878906 4.03667969 3.91507812 3.88585937 3.06640625 3.73046875 C2.38449219 3.48941406 1.70257813 3.24835937 1 3 C0.67 2.01 0.34 1.02 0 0 Z " fill="#000000" transform="translate(381,590)"/>
<path d="M0 0 C-3.36423277 2.96052484 -6.69159287 3.92289822 -11 5 C-11 4.34 -11 3.68 -11 3 C-9.73581754 2.30034557 -8.46334598 1.61565237 -7.1875 0.9375 C-6.47980469 0.55464844 -5.77210938 0.17179688 -5.04296875 -0.22265625 C-3 -1 -3 -1 0 0 Z " fill="#000000" transform="translate(588,569)"/>
<path d="M0 0 C-1 3 -1 3 -3.875 4.75 C-7 6 -7 6 -10 5 C-8.71186658 4.16121545 -7.41936744 3.32913217 -6.125 2.5 C-5.40570312 2.0359375 -4.68640625 1.571875 -3.9453125 1.09375 C-2 0 -2 0 0 0 Z " fill="#000000" transform="translate(605,559)"/>
<path d="M0 0 C-1.450954 3.82524236 -3.38181932 5.19090966 -7 7 C-7.66 7 -8.32 7 -9 7 C-7.68534669 3.05604006 -4.38536841 0 0 0 Z " fill="#000000" transform="translate(622,548)"/>
<path d="M0 0 C0.66 0.66 1.32 1.32 2 2 C0.02 4.64 -1.96 7.28 -4 10 C-4.33 9.01 -4.66 8.02 -5 7 C-4.00390625 5.17578125 -4.00390625 5.17578125 -2.5625 3.3125 C-2.08941406 2.68988281 -1.61632812 2.06726563 -1.12890625 1.42578125 C-0.75636719 0.95527344 -0.38382813 0.48476563 0 0 Z " fill="#000000" transform="translate(662,505)"/>
<path d="M0 0 C0.66 0 1.32 0 2 0 C2 3.63 2 7.26 2 11 C1.34 11 0.68 11 0 11 C0 7.37 0 3.74 0 0 Z " fill="#000000" transform="translate(141,629)"/>
<path d="M0 0 C0 0.99 0 1.98 0 3 C-3.3 3.33 -6.6 3.66 -10 4 C-10 3.34 -10 2.68 -10 2 C-6.7 1.34 -3.4 0.68 0 0 Z " fill="#000000" transform="translate(510,591)"/>
<path d="M0 0 C0 0.66 0 1.32 0 2 C-3.82320557 3.42258812 -6.91281305 4.24042276 -11 4 C-11 3.34 -11 2.68 -11 2 C-9.5422647 1.664061 -8.08378894 1.33133376 -6.625 1 C-5.40683594 0.7215625 -5.40683594 0.7215625 -4.1640625 0.4375 C-2 0 -2 0 0 0 Z " fill="#000000" transform="translate(531,587)"/>
<path d="M0 0 C0 0.66 0 1.32 0 2 C-4.95 3.485 -4.95 3.485 -10 5 C-10.33 4.34 -10.66 3.68 -11 3 C-9.54293274 2.49632243 -8.08429904 1.99717444 -6.625 1.5 C-5.81289063 1.2215625 -5.00078125 0.943125 -4.1640625 0.65625 C-2 0 -2 0 0 0 Z " fill="#000000" transform="translate(550,582)"/>
<path d="M0 0 C3.63 0 7.26 0 11 0 C11 0.66 11 1.32 11 2 C7.37 2 3.74 2 0 2 C0 1.34 0 0.68 0 0 Z " fill="#000000" transform="translate(281,580)"/>
<path d="M0 0 C3.63 0 7.26 0 11 0 C11 0.66 11 1.32 11 2 C7.37 2 3.74 2 0 2 C0 1.34 0 0.68 0 0 Z " fill="#000000" transform="translate(261,579)"/>
<path d="M0 0 C3.63 0 7.26 0 11 0 C11 0.66 11 1.32 11 2 C7.37 2 3.74 2 0 2 C0 1.34 0 0.68 0 0 Z " fill="#000000" transform="translate(221,578)"/>
<path d="M0 0 C3.63 0 7.26 0 11 0 C11 0.66 11 1.32 11 2 C7.37 2 3.74 2 0 2 C0 1.34 0 0.68 0 0 Z " fill="#000000" transform="translate(201,578)"/>
<path d="M0 0 C0 0.66 0 1.32 0 2 C-4.95 3.485 -4.95 3.485 -10 5 C-9.67 4.01 -9.34 3.02 -9 2 C-5.82757352 0.68964993 -3.44118336 0 0 0 Z " fill="#000000" transform="translate(569,576)"/>
<path d="M0 0 C0.99 0.33 1.98 0.66 3 1 C-0.96 4.465 -0.96 4.465 -5 8 C-5 5 -5 5 -2.5 2.3125 C-1.675 1.549375 -0.85 0.78625 0 0 Z " fill="#000000" transform="translate(635,536)"/>
<path d="M0 0 C0.66 0.66 1.32 1.32 2 2 C1.04882866 3.1725131 0.08882991 4.33787015 -0.875 5.5 C-1.40867187 6.1496875 -1.94234375 6.799375 -2.4921875 7.46875 C-2.98976563 7.9740625 -3.48734375 8.479375 -4 9 C-4.66 9 -5.32 9 -6 9 C-4.47291037 5.56404834 -2.40072955 2.88087546 0 0 Z " fill="#000000" transform="translate(650,521)"/>
<path d="M0 0 C3.63 0.33 7.26 0.66 11 1 C11 1.66 11 2.32 11 3 C7.37 2.67 3.74 2.34 0 2 C0 1.34 0 0.68 0 0 Z " fill="#000000" transform="translate(361,587)"/>
<path d="M0 0 C1.69141656 0.08963062 3.37959602 0.24577676 5.0625 0.4375 C6.44115234 0.59025391 6.44115234 0.59025391 7.84765625 0.74609375 C8.55792969 0.82988281 9.26820313 0.91367187 10 1 C10 1.66 10 2.32 10 3 C8.741875 3.04125 7.48375 3.0825 6.1875 3.125 C5.47980469 3.14820313 4.77210938 3.17140625 4.04296875 3.1953125 C2 3 2 3 -1 1 C-0.67 0.67 -0.34 0.34 0 0 Z " fill="#000000" transform="translate(342,584)"/>
<path d="M0 0 C3.3 0 6.6 0 10 0 C10 0.66 10 1.32 10 2 C6.37 2 2.74 2 -1 2 C-0.67 1.34 -0.34 0.68 0 0 Z " fill="#000000" transform="translate(162,579)"/>
<path d="M0 0 C0.66 0 1.32 0 2 0 C1.71758359 1.46015291 1.42373386 2.91809793 1.125 4.375 C0.96257813 5.18710937 0.80015625 5.99921875 0.6328125 6.8359375 C0 9 0 9 -2 11 C-3 9 -3 9 -2.44140625 6.8359375 C-2.15136719 6.02382813 -1.86132812 5.21171875 -1.5625 4.375 C-1.27503906 3.55773437 -0.98757813 2.74046875 -0.69140625 1.8984375 C-0.46324219 1.27195312 -0.23507812 0.64546875 0 0 Z " fill="#000000" transform="translate(678,469)"/>
<path d="M0 0 C0 0.99 0 1.98 0 3 C-1.98 3.33 -3.96 3.66 -6 4 C-6.33 3.01 -6.66 2.02 -7 1 C-4 0 -4 0 0 0 Z " fill="#000000" transform="translate(151,409)"/>
<path d="M0 0 C3.3 0 6.6 0 10 0 C10 0.66 10 1.32 10 2 C6.7 2 3.4 2 0 2 C0 1.34 0 0.68 0 0 Z " fill="#000000" transform="translate(421,597)"/>
<path d="M0 0 C0 0.99 0 1.98 0 3 C-3.3 3 -6.6 3 -10 3 C-6.99382731 -0.00617269 -4.17618402 0.40414684 0 0 Z " fill="#000000" transform="translate(490,594)"/>
<path d="M0 0 C7.42857143 -0.28571429 7.42857143 -0.28571429 11 2 C8.00468461 2.99843846 6.82744268 3.00732761 3.8125 2.5625 C2.554375 2.376875 1.29625 2.19125 0 2 C0 1.34 0 0.68 0 0 Z " fill="#000000" transform="translate(401,595)"/>
<path d="M0 0 C2.97 0 5.94 0 9 0 C9.33 0.66 9.66 1.32 10 2 C6.37 2 2.74 2 -1 2 C-0.67 1.34 -0.34 0.68 0 0 Z " fill="#000000" transform="translate(302,581)"/>
<path d="M0 0 C0.33 0.66 0.66 1.32 1 2 C-2.21451269 3.60725635 -5.43612536 3.05748185 -9 3 C-9 2.34 -9 1.68 -9 1 C-4.545 0.505 -4.545 0.505 0 0 Z " fill="#000000" transform="translate(470,596)"/>
<path d="M0 0 C3.3 0.33 6.6 0.66 10 1 C10 1.66 10 2.32 10 3 C2.25 3.125 2.25 3.125 0 2 C0 1.34 0 0.68 0 0 Z " fill="#000000" transform="translate(322,582)"/>
<path d="M0 0 C0 0.66 0 1.32 0 2 C-3.63 2.33 -7.26 2.66 -11 3 C-11 2.34 -11 1.68 -11 1 C-7.26562152 0.12132271 -3.83225427 -0.08912219 0 0 Z " fill="#000000" transform="translate(192,578)"/>
<path d="M0 0 C0.99 0 1.98 0 3 0 C3 1.98 3 3.96 3 6 C2.01 6 1.02 6 0 6 C0 4.02 0 2.04 0 0 Z " fill="#000000" transform="translate(141,649)"/>
<path d="M0 0 C1.65 1.65 3.3 3.3 5 5 C3.68 5 2.36 5 1 5 C0.34 3.68 -0.32 2.36 -1 1 C-0.67 0.67 -0.34 0.34 0 0 Z " fill="#000000" transform="translate(145,621)"/>
<path d="M0 0 C3.63 0.33 7.26 0.66 11 1 C11 1.33 11 1.66 11 2 C7.37 2 3.74 2 0 2 C0 1.34 0 0.68 0 0 Z " fill="#000000" transform="translate(241,578)"/>
<path d="M0 0 C0.99 0.33 1.98 0.66 3 1 C1.6875 3 1.6875 3 0 5 C-0.99 5 -1.98 5 -3 5 C-1.125 1.125 -1.125 1.125 0 0 Z " fill="#000000" transform="translate(147,186)"/>
<path d="M0 0 C0 0.66 0 1.32 0 2 C-3.3 2 -6.6 2 -10 2 C-10 1.67 -10 1.34 -10 1 C-6.56484998 0.37542727 -3.50935186 0 0 0 Z " fill="#000000" transform="translate(451,597)"/>
<path d="M0 0 C0.99 0.33 1.98 0.66 3 1 C2.67 1.99 2.34 2.98 2 4 C1.01 3.67 0.02 3.34 -1 3 C-0.67 2.01 -0.34 1.02 0 0 Z " fill="#000000" transform="translate(451,755)"/>
<path d="M0 0 C1.65 0 3.3 0 5 0 C5 0.66 5 1.32 5 2 C3.02 2 1.04 2 -1 2 C-0.67 1.34 -0.34 0.68 0 0 Z " fill="#000000" transform="translate(147,580)"/>
<path d="M0 0 C0.99 0.33 1.98 0.66 3 1 C2.67 1.99 2.34 2.98 2 4 C1.01 3.67 0.02 3.34 -1 3 C-0.67 2.01 -0.34 1.02 0 0 Z " fill="#000000" transform="translate(323,512)"/>
<path d="M0 0 C0.99 0.33 1.98 0.66 3 1 C2.67 1.99 2.34 2.98 2 4 C1.01 3.67 0.02 3.34 -1 3 C-0.67 2.01 -0.34 1.02 0 0 Z " fill="#000000" transform="translate(616,477)"/>
<path d="M0 0 C0.99 0.33 1.98 0.66 3 1 C2.67 1.99 2.34 2.98 2 4 C1.01 3.67 0.02 3.34 -1 3 C-0.67 2.01 -0.34 1.02 0 0 Z " fill="#000000" transform="translate(414,16)"/>
<path d="M0 0 C0.66 0 1.32 0 2 0 C2 1.65 2 3.3 2 5 C1.34 5 0.68 5 0 5 C0 3.35 0 1.7 0 0 Z " fill="#000000" transform="translate(681,455)"/>
<path d="M0 0 C0.66 0 1.32 0 2 0 C2 1.65 2 3.3 2 5 C1.34 5 0.68 5 0 5 C0 3.35 0 1.7 0 0 Z " fill="#000000" transform="translate(137,97)"/>
</svg>
