<?xml version="1.0" standalone="no"?>
<!DOCTYPE svg PUBLIC "-//W3C//DTD SVG 20010904//EN"
 "http://www.w3.org/TR/2001/REC-SVG-20010904/DTD/svg10.dtd">
<svg version="1.0" xmlns="http://www.w3.org/2000/svg"
 width="798.000000pt" height="750.000000pt" viewBox="0 0 798.000000 750.000000"
 preserveAspectRatio="xMidYMid meet">

<g transform="translate(0.000000,750.000000) scale(0.100000,-0.100000)"
fill="#000000" stroke="none">
<path d="M6559 7439 l-24 -20 23 6 c21 6 22 4 22 -54 0 -34 4 -61 10 -61 12 0
13 137 1 144 -5 3 -20 -3 -32 -15z"/>
<path d="M6695 7440 c-10 -11 -13 -20 -7 -20 6 0 14 5 17 10 3 6 15 10 26 10
27 0 26 -40 -2 -47 -20 -5 -20 -6 3 -17 12 -6 24 -19 26 -27 4 -24 -27 -32
-54 -14 -25 16 -33 8 -12 -13 19 -19 66 -15 78 7 11 22 4 51 -13 51 -7 0 -7 4
1 12 18 18 14 46 -7 58 -27 14 -35 13 -56 -10z"/>
<path d="M6630 7320 c0 -5 5 -10 10 -10 6 0 10 5 10 10 0 6 -4 10 -10 10 -5 0
-10 -4 -10 -10z"/>
<path d="M6549 7254 c-238 -43 -453 -156 -578 -304 -161 -191 -234 -427 -234
-755 -1 -209 12 -309 68 -542 91 -374 219 -705 348 -892 l30 -44 -37 7 c-22 4
-36 3 -36 -3 0 -10 15 -15 73 -24 31 -5 32 -3 41 61 7 50 -9 57 -22 10 l-8
-33 -29 45 c-45 71 -112 201 -155 299 -92 213 -203 600 -236 826 -22 150 -22
420 0 549 87 516 445 796 1020 796 157 0 322 -21 405 -52 125 -47 239 -214
295 -430 53 -204 61 -295 61 -663 -1 -326 -7 -419 -41 -648 -5 -31 -4 -39 5
-32 30 29 61 375 61 690 0 502 -73 821 -230 997 -70 79 -142 114 -285 138
-139 24 -397 26 -516 4z"/>
<path d="M6620 7090 c-243 -19 -436 -162 -558 -413 -84 -171 -123 -375 -124
-637 -1 -183 12 -280 67 -495 77 -303 202 -553 376 -754 l68 -79 -24 -278
c-54 -602 -109 -1135 -151 -1464 -114 -898 -362 -1654 -593 -1815 -57 -39
-132 -45 -188 -17 -115 59 -225 241 -377 623 -305 771 -533 1770 -611 2679
-20 244 -37 657 -33 830 l3 144 -50 38 c-122 93 -335 188 -499 225 -110 24
-284 22 -381 -6 -190 -53 -349 -181 -463 -370 l-39 -66 -6 -425 c-16 -1017
-74 -1967 -148 -2430 -26 -164 -75 -387 -154 -695 -169 -661 -301 -886 -431
-732 -71 84 -171 358 -223 607 -138 670 -230 1852 -262 3385 -14 686 0 1371
31 1475 11 35 10 36 -56 97 -157 148 -357 223 -559 210 -114 -8 -186 -27 -302
-82 -122 -57 -219 -126 -331 -233 -92 -87 -92 -87 -116 -172 -146 -521 -183
-1717 -85 -2784 66 -721 191 -1359 364 -1850 76 -216 128 -331 217 -481 270
-452 634 -747 1056 -856 120 -32 320 -32 437 -1 276 74 547 308 702 608 126
244 319 1071 363 1559 17 186 18 186 56 25 129 -550 333 -1002 580 -1284 171
-196 431 -390 674 -504 272 -127 579 -184 816 -151 270 37 513 168 692 373
245 279 488 852 626 1476 19 85 50 223 70 305 97 419 192 978 251 1480 14 121
28 238 31 261 l5 41 62 6 c248 23 397 169 423 414 l6 61 -58 6 c-160 17 -344
46 -377 60 l-37 15 0 597 c0 656 -3 705 -61 911 -56 199 -154 369 -263 455
-122 96 -223 123 -416 108z m294 -89 c193 -95 327 -341 381 -699 12 -77 15
-222 15 -704 l0 -608 23 -14 c44 -29 286 -75 396 -76 l43 0 -4 -59 c-6 -79
-55 -179 -111 -225 -84 -67 -193 -106 -302 -106 l-61 0 -22 -202 c-95 -860
-298 -1895 -482 -2448 -276 -834 -599 -1208 -1110 -1285 -121 -19 -189 -19
-330 1 -366 49 -708 222 -1031 522 -273 253 -500 698 -649 1276 -40 155 -83
367 -95 469 -7 51 -10 57 -30 57 -22 0 -23 -4 -29 -117 -24 -439 -87 -855
-197 -1298 -105 -421 -164 -575 -282 -742 -151 -212 -340 -355 -554 -419 -77
-23 -106 -27 -223 -27 -112 0 -151 4 -230 25 -437 117 -830 470 -1084 976
-230 458 -423 1315 -501 2222 -32 376 -36 486 -42 990 -8 736 20 1181 98 1570
40 199 50 220 137 300 146 136 316 238 462 277 88 24 263 23 350 0 95 -26 200
-81 277 -146 57 -48 68 -62 67 -87 -1 -16 -8 -96 -15 -179 -17 -192 -17 -1323
0 -1790 47 -1320 128 -2282 242 -2850 87 -437 217 -724 339 -748 46 -10 113
24 152 77 83 113 183 381 271 731 68 264 133 563 156 705 75 463 133 1416 148
2413 l6 438 36 62 c20 34 79 105 131 158 104 105 184 153 310 185 77 20 236
22 328 5 140 -27 311 -97 450 -186 l72 -47 0 -181 c0 -876 137 -1814 395
-2718 147 -512 339 -1009 469 -1213 118 -184 256 -254 385 -196 165 75 344
428 480 950 54 206 126 563 156 774 45 317 129 1123 181 1733 l16 191 -61 63
c-161 165 -306 447 -386 754 -51 193 -65 298 -65 484 0 328 59 555 196 747 57
81 127 143 212 187 107 57 157 67 312 64 131 -2 138 -3 204 -36z"/>
<path d="M6683 6823 c-40 -8 -26 -26 15 -19 20 3 43 6 50 6 7 0 10 5 7 10 -6
10 -31 11 -72 3z"/>
<path d="M6860 6781 c0 -10 64 -61 76 -61 4 0 -7 16 -26 35 -34 35 -50 43 -50
26z"/>
<path d="M6507 6759 c-21 -11 -35 -24 -32 -29 6 -10 85 29 85 43 0 11 -11 8
-53 -14z"/>
<path d="M6350 6645 c-19 -19 -30 -38 -26 -42 3 -4 23 9 42 29 20 19 32 38 27
41 -6 4 -25 -9 -43 -28z"/>
<path d="M6994 6598 c7 -18 16 -41 19 -51 4 -10 11 -16 16 -12 13 8 -20 95
-36 95 -9 0 -9 -7 1 -32z"/>
<path d="M6232 6485 c-12 -25 -18 -45 -13 -45 10 0 51 65 51 81 0 22 -18 6
-38 -36z"/>
<path d="M7054 6405 c3 -22 6 -48 6 -57 0 -10 5 -18 11 -18 15 0 4 90 -12 105
-9 7 -10 -1 -5 -30z"/>
<path d="M6175 6325 c-3 -14 -7 -36 -10 -50 -3 -14 -1 -25 5 -25 12 0 16 10
25 63 7 42 -11 53 -20 12z"/>
<path d="M6610 6251 c-53 -17 -109 -52 -132 -83 -57 -81 -1 -308 134 -542 47
-82 136 -206 148 -206 4 0 10 17 13 38 4 20 38 143 76 274 78 264 105 380 95
412 -12 39 -67 86 -118 101 -52 16 -173 19 -216 6z m227 -64 c57 -30 64 -51
48 -136 -12 -62 -141 -510 -150 -519 -5 -5 -82 122 -123 203 -51 103 -100 243
-108 309 -10 83 22 127 116 157 42 14 181 4 217 -14z"/>
<path d="M7080 6180 c0 -27 5 -50 10 -50 6 0 10 23 10 50 0 28 -4 50 -10 50
-5 0 -10 -22 -10 -50z"/>
<path d="M6160 6106 c0 -25 5 -48 10 -51 6 -4 10 13 10 44 0 28 -4 51 -10 51
-5 0 -10 -20 -10 -44z"/>
<path d="M7090 5970 c0 -27 5 -50 10 -50 6 0 10 23 10 50 0 28 -4 50 -10 50
-5 0 -10 -22 -10 -50z"/>
<path d="M942 5958 c2 -13 8 -23 13 -23 6 0 11 10 13 23 2 15 -2 22 -13 22
-11 0 -15 -7 -13 -22z"/>
<path d="M6185 5928 c11 -55 16 -68 26 -68 11 0 11 2 -2 56 -13 51 -34 61 -24
12z"/>
<path d="M940 5786 c0 -25 5 -48 10 -51 6 -4 10 13 10 44 0 28 -4 51 -10 51
-5 0 -10 -20 -10 -44z"/>
<path d="M7090 5766 c0 -31 5 -56 10 -56 6 0 10 22 10 49 0 28 -4 53 -10 56
-6 4 -10 -15 -10 -49z"/>
<path d="M6237 5764 c-8 -8 25 -94 36 -94 9 0 4 30 -13 75 -10 26 -13 29 -23
19z"/>
<path d="M946 5633 c-3 -3 -6 -26 -6 -50 0 -32 4 -43 15 -43 11 0 15 12 15 44
0 43 -10 63 -24 49z"/>
<path d="M7077 5563 c-6 -52 0 -73 14 -52 11 18 12 99 0 99 -4 0 -11 -21 -14
-47z"/>
<path d="M6310 5575 c0 -17 42 -85 50 -80 9 6 -30 85 -42 85 -5 0 -8 -2 -8 -5z"/>
<path d="M950 5390 c0 -27 5 -50 10 -50 6 0 10 23 10 50 0 28 -4 50 -10 50 -5
0 -10 -22 -10 -50z"/>
<path d="M6410 5403 c0 -11 44 -73 53 -73 12 0 8 12 -15 47 -21 31 -38 42 -38
26z"/>
<path d="M7058 5350 c-2 -35 1 -50 10 -50 8 0 12 17 12 50 0 65 -17 65 -22 0z"/>
<path d="M6536 5251 c-7 -11 48 -75 61 -70 7 2 -3 20 -22 41 -19 20 -37 33
-39 29z"/>
<path d="M950 5196 c0 -25 5 -48 10 -51 6 -4 10 13 10 44 0 28 -4 51 -10 51
-5 0 -10 -20 -10 -44z"/>
<path d="M7036 5143 c-6 -43 -2 -63 9 -51 11 10 17 98 8 98 -6 0 -13 -21 -17
-47z"/>
<path d="M3690 5105 c0 -16 6 -25 15 -25 9 0 15 9 15 25 0 16 -6 25 -15 25 -9
0 -15 -9 -15 -25z"/>
<path d="M6670 5102 c0 -14 66 -73 73 -65 4 4 -7 22 -25 40 -31 32 -48 41 -48
25z"/>
<path d="M959 5045 c-8 -7 3 -95 12 -95 12 0 12 87 0 94 -4 3 -10 4 -12 1z"/>
<path d="M3665 4944 c-6 -41 -2 -64 9 -53 10 10 18 99 8 99 -5 0 -13 -21 -17
-46z"/>
<path d="M7018 4980 c-12 -29 -17 -90 -8 -95 5 -3 12 10 15 28 8 40 2 91 -7
67z"/>
<path d="M3735 4948 c11 -58 17 -70 26 -61 10 10 -10 93 -23 93 -5 0 -7 -14
-3 -32z"/>
<path d="M6810 4961 c0 -12 70 -64 77 -58 5 6 -57 66 -69 67 -5 0 -8 -4 -8 -9z"/>
<path d="M960 4807 c0 -43 6 -60 19 -53 10 6 0 96 -10 96 -5 0 -9 -19 -9 -43z"/>
<path d="M6960 4830 c0 -4 8 -14 18 -22 22 -20 82 -34 82 -19 0 6 -6 11 -13
11 -7 0 -29 9 -50 19 -20 10 -37 16 -37 11z"/>
<path d="M3636 4768 c-9 -35 -7 -68 4 -68 6 0 10 6 10 14 0 7 3 28 6 45 7 36
-10 43 -20 9z"/>
<path d="M3778 4784 c-3 -5 -1 -28 4 -51 11 -54 33 -59 23 -5 -8 43 -20 68
-27 56z"/>
<path d="M6976 4733 c-6 -43 -2 -63 9 -51 11 10 17 98 8 98 -6 0 -13 -21 -17
-47z"/>
<path d="M7180 4771 c0 -10 99 -30 113 -23 17 8 -9 20 -60 26 -32 4 -53 3 -53
-3z"/>
<path d="M7420 4730 c0 -5 14 -10 31 -10 17 0 28 4 24 10 -3 6 -17 10 -31 10
-13 0 -24 -4 -24 -10z"/>
<path d="M970 4606 c0 -25 5 -48 10 -51 6 -4 10 13 10 44 0 28 -4 51 -10 51
-5 0 -10 -20 -10 -44z"/>
<path d="M3606 4578 c-9 -35 -7 -68 4 -68 6 0 10 6 10 14 0 7 3 28 6 45 7 36
-10 43 -20 9z"/>
<path d="M3825 4548 c7 -41 20 -67 29 -57 8 7 -17 99 -27 99 -5 0 -6 -18 -2
-42z"/>
<path d="M6942 4534 c-10 -47 -9 -64 4 -51 11 11 23 82 15 90 -5 5 -14 -13
-19 -39z"/>
<path d="M980 4410 c0 -27 5 -50 10 -50 6 0 10 23 10 50 0 28 -4 50 -10 50 -5
0 -10 -22 -10 -50z"/>
<path d="M3576 4388 c-9 -35 -7 -83 3 -72 13 14 25 94 13 94 -5 0 -12 -10 -16
-22z"/>
<path d="M3863 4376 c3 -8 9 -31 13 -50 6 -34 24 -51 24 -23 0 27 -22 87 -32
87 -5 0 -8 -6 -5 -14z"/>
<path d="M6906 4363 c-14 -50 -17 -83 -7 -83 10 0 15 13 26 68 7 33 -10 47
-19 15z"/>
<path d="M990 4216 c0 -25 5 -48 10 -51 6 -4 10 13 10 44 0 28 -4 51 -10 51
-5 0 -10 -20 -10 -44z"/>
<path d="M3546 4198 c-9 -36 -7 -78 4 -78 6 0 10 12 10 28 0 15 3 37 6 50 4
12 2 22 -4 22 -5 0 -12 -10 -16 -22z"/>
<path d="M3914 4161 c7 -48 13 -61 26 -61 10 0 -8 82 -22 95 -7 7 -9 -3 -4
-34z"/>
<path d="M6865 4153 c-4 -16 -8 -36 -10 -45 -4 -24 12 -33 19 -11 14 52 17 83
7 83 -6 0 -13 -12 -16 -27z"/>
<path d="M1001 4033 c1 -16 4 -39 8 -53 11 -39 24 -6 16 40 -8 45 -26 54 -24
13z"/>
<path d="M3520 4025 c-1 -6 -5 -29 -9 -52 -6 -32 -5 -43 4 -43 15 0 26 80 14
95 -6 5 -9 5 -9 0z"/>
<path d="M3953 3986 c3 -8 9 -31 13 -50 9 -52 27 -46 19 7 -8 49 -12 57 -27
57 -5 0 -8 -6 -5 -14z"/>
<path d="M6824 3945 c-6 -41 -1 -66 10 -54 11 11 17 99 8 99 -6 0 -14 -20 -18
-45z"/>
<path d="M1020 3821 c0 -28 5 -51 10 -51 6 0 10 20 10 44 0 25 -4 48 -10 51
-6 4 -10 -13 -10 -44z"/>
<path d="M3485 3818 c-9 -30 -11 -78 -3 -78 10 0 14 11 22 58 5 30 -10 47 -19
20z"/>
<path d="M4000 3794 c0 -24 24 -94 31 -87 10 10 -10 93 -22 93 -5 0 -9 -3 -9
-6z"/>
<path d="M6786 3743 c-6 -43 -2 -63 9 -51 11 10 17 98 8 98 -6 0 -13 -21 -17
-47z"/>
<path d="M1035 3623 c7 -51 11 -60 21 -50 10 10 -6 97 -18 97 -7 0 -8 -16 -3
-47z"/>
<path d="M3457 3633 c-8 -13 -12 -82 -5 -89 4 -3 9 5 13 20 3 14 7 37 10 51 5
23 -8 35 -18 18z"/>
<path d="M4054 3568 c7 -41 20 -67 30 -57 2 2 -1 25 -7 52 -13 59 -32 63 -23
5z"/>
<path d="M6757 3573 c-14 -52 -16 -72 -7 -78 5 -3 12 6 15 20 3 14 7 36 10 50
6 28 -11 35 -18 8z"/>
<path d="M1058 3474 c-11 -10 -10 -66 2 -84 15 -24 19 -8 12 44 -4 26 -10 44
-14 40z"/>
<path d="M3425 3438 c-2 -7 -6 -30 -10 -50 -7 -43 11 -54 20 -13 3 14 7 36 10
50 5 25 -12 36 -20 13z"/>
<path d="M4102 3368 c15 -61 32 -74 24 -19 -7 48 -13 61 -26 61 -4 0 -3 -19 2
-42z"/>
<path d="M6720 3376 c-12 -33 -13 -76 -1 -76 10 0 26 89 17 97 -3 3 -10 -6
-16 -21z"/>
<path d="M1073 3235 c2 -26 7 -49 11 -52 12 -13 16 5 10 50 -9 61 -28 62 -21
2z"/>
<path d="M3396 3248 c-12 -38 -16 -88 -7 -88 10 0 14 12 26 72 4 21 -13 35
-19 16z"/>
<path d="M4148 3215 c-8 -8 14 -95 25 -95 5 0 6 16 2 38 -8 42 -19 65 -27 57z"/>
<path d="M6687 3193 c-12 -20 -18 -93 -8 -93 6 0 11 3 11 8 1 4 5 26 9 50 7
37 1 56 -12 35z"/>
<path d="M1095 3038 c8 -46 12 -55 21 -45 9 9 -7 87 -18 87 -6 0 -7 -16 -3
-42z"/>
<path d="M3357 3018 c-6 -47 -1 -61 13 -38 12 19 13 80 1 80 -4 0 -11 -19 -14
-42z"/>
<path d="M4193 3006 c3 -8 9 -31 13 -50 9 -52 28 -46 20 6 -4 22 -9 45 -12 50
-9 14 -26 9 -21 -6z"/>
<path d="M6642 2958 c-9 -44 -6 -66 8 -51 12 13 21 93 11 93 -6 0 -14 -19 -19
-42z"/>
<path d="M1122 2846 c2 -27 8 -51 15 -53 8 -3 10 9 6 39 -8 63 -25 74 -21 14z"/>
<path d="M3327 2828 c-6 -48 4 -75 14 -38 10 36 10 80 0 80 -4 0 -11 -19 -14
-42z"/>
<path d="M4255 2773 c8 -26 15 -49 15 -51 0 -2 4 -1 9 3 13 7 -11 87 -26 92
-9 3 -9 -8 2 -44z"/>
<path d="M6617 2803 c-11 -19 -18 -93 -8 -93 5 0 13 20 17 45 6 43 2 66 -9 48z"/>
<path d="M1144 2668 c3 -13 6 -33 6 -45 0 -13 5 -23 10 -23 11 0 14 49 4 74
-9 25 -27 19 -20 -6z"/>
<path d="M3296 2633 c-6 -43 -2 -63 9 -51 11 10 17 98 8 98 -6 0 -13 -21 -17
-47z"/>
<path d="M4300 2618 c0 -28 22 -88 32 -88 6 0 8 9 4 23 -4 12 -9 34 -12 50 -6
27 -24 38 -24 15z"/>
<path d="M6575 2585 c-3 -14 -7 -36 -10 -50 -6 -28 11 -35 19 -7 14 51 17 82
7 82 -6 0 -13 -11 -16 -25z"/>
<path d="M1175 2463 c9 -53 13 -63 25 -63 6 0 8 11 5 25 -3 14 -7 36 -10 50
-9 41 -27 30 -20 -12z"/>
<path d="M3266 2443 c-6 -43 -2 -63 9 -51 11 10 17 98 8 98 -6 0 -13 -21 -17
-47z"/>
<path d="M4357 2434 c-8 -13 13 -94 24 -94 12 0 10 28 -5 69 -7 19 -15 30 -19
25z"/>
<path d="M6536 2379 c-9 -46 -8 -75 3 -63 13 14 25 94 13 94 -5 0 -12 -14 -16
-31z"/>
<path d="M1210 2293 c0 -37 12 -83 22 -83 6 0 7 17 3 43 -8 46 -25 74 -25 40z"/>
<path d="M3246 2292 c-12 -20 -18 -92 -8 -92 6 0 14 20 18 45 6 44 2 66 -10
47z"/>
<path d="M4410 2229 c0 -23 23 -89 32 -89 10 0 10 2 -3 56 -10 40 -29 61 -29
33z"/>
<path d="M6508 2215 c-3 -5 -9 -29 -13 -52 -8 -52 11 -60 20 -9 8 38 3 77 -7
61z"/>
<path d="M1253 2065 c12 -50 33 -63 23 -14 -3 17 -6 38 -6 45 0 8 -6 14 -14
14 -11 0 -11 -9 -3 -45z"/>
<path d="M3206 2069 c-9 -47 -8 -75 3 -63 15 14 26 94 14 94 -6 0 -13 -14 -17
-31z"/>
<path d="M4470 2039 c0 -7 5 -29 12 -50 12 -42 34 -55 24 -14 -15 57 -36 96
-36 64z"/>
<path d="M6466 2003 c-14 -52 -17 -83 -7 -83 6 0 13 11 16 25 3 14 7 36 10 50
6 28 -11 35 -19 8z"/>
<path d="M1290 1914 c0 -24 24 -94 31 -87 10 10 -10 93 -22 93 -5 0 -9 -3 -9
-6z"/>
<path d="M3161 1866 c-13 -54 -13 -56 -1 -56 9 0 30 61 30 88 0 29 -19 8 -29
-32z"/>
<path d="M4534 1835 c12 -47 26 -75 37 -75 6 0 8 6 5 13 -2 6 -10 29 -17 50
-13 41 -35 52 -25 12z"/>
<path d="M6426 1803 c-14 -50 -17 -83 -7 -83 10 0 15 13 26 68 7 33 -10 47
-19 15z"/>
<path d="M1340 1724 c0 -19 24 -84 32 -84 10 0 10 7 -3 53 -5 20 -14 37 -19
37 -6 0 -10 -3 -10 -6z"/>
<path d="M3116 1693 c-3 -16 -8 -38 -12 -50 -4 -14 -2 -23 4 -23 10 0 32 60
32 88 0 23 -18 12 -24 -15z"/>
<path d="M4600 1663 c0 -18 34 -93 41 -93 12 0 11 8 -7 57 -14 37 -34 58 -34
36z"/>
<path d="M6387 1614 c-14 -50 -18 -84 -9 -84 13 0 33 83 23 93 -5 5 -11 1 -14
-9z"/>
<path d="M1400 1531 c0 -20 31 -81 41 -81 7 0 8 7 4 18 -4 9 -12 29 -17 45 -9
25 -28 38 -28 18z"/>
<path d="M3056 1483 c-19 -55 -19 -53 -7 -53 13 0 42 88 31 95 -4 3 -15 -16
-24 -42z"/>
<path d="M4687 1483 c-7 -12 47 -95 56 -87 4 4 -3 23 -15 43 -28 48 -35 54
-41 44z"/>
<path d="M6325 1393 c-11 -21 -21 -41 -23 -45 -2 -5 1 -8 6 -8 12 0 36 36 46
68 12 36 -9 25 -29 -15z"/>
<path d="M1470 1355 c0 -20 35 -85 46 -85 10 0 9 11 -8 45 -18 38 -38 58 -38
40z"/>
<path d="M2988 1295 c-21 -56 -6 -70 16 -15 18 45 20 60 8 60 -4 0 -15 -20
-24 -45z"/>
<path d="M4800 1303 c1 -15 59 -78 65 -71 8 8 -43 78 -56 78 -5 0 -9 -3 -9 -7z"/>
<path d="M6195 1224 c-15 -19 -24 -38 -21 -42 6 -6 65 57 66 71 1 17 -20 4
-45 -29z"/>
<path d="M1560 1175 c0 -10 45 -75 53 -75 11 0 8 10 -14 46 -18 29 -39 45 -39
29z"/>
<path d="M2912 1123 c-25 -48 -26 -53 -12 -53 14 0 42 58 38 78 -3 12 -11 4
-26 -25z"/>
<path d="M4930 1142 c0 -14 69 -76 77 -69 3 4 -9 23 -27 42 -33 34 -50 43 -50
27z"/>
<path d="M6050 1075 c-18 -19 -31 -37 -28 -40 7 -7 78 53 78 66 0 17 -16 9
-50 -26z"/>
<path d="M1680 1019 c0 -19 57 -75 67 -65 4 3 -10 23 -30 44 -24 24 -37 31
-37 21z"/>
<path d="M5080 1001 c0 -12 79 -65 87 -57 3 3 4 7 2 9 -65 52 -89 65 -89 48z"/>
<path d="M2813 945 c-25 -38 -27 -45 -14 -45 9 0 51 61 51 74 0 16 -17 3 -37
-29z"/>
<path d="M5888 953 c-33 -22 -49 -43 -33 -43 11 0 85 53 85 61 0 14 -12 10
-52 -18z"/>
<path d="M5255 890 c-3 -4 13 -15 35 -24 45 -18 60 -20 60 -8 0 12 -89 42 -95
32z"/>
<path d="M1807 873 c-8 -12 60 -79 70 -69 4 3 -9 23 -29 42 -19 20 -38 32 -41
27z"/>
<path d="M5706 866 c-22 -7 -42 -18 -44 -24 -5 -15 -5 -15 51 4 26 9 47 20 47
25 0 11 -4 10 -54 -5z"/>
<path d="M5450 830 c0 -5 25 -10 56 -10 34 0 53 4 49 10 -3 6 -28 10 -56 10
-27 0 -49 -4 -49 -10z"/>
<path d="M2692 787 c-18 -18 -29 -36 -25 -40 7 -8 73 51 73 65 0 16 -17 7 -48
-25z"/>
<path d="M1950 731 c0 -13 78 -62 84 -52 3 5 -12 20 -34 35 -43 28 -50 31 -50
17z"/>
<path d="M2536 662 c-21 -14 -33 -28 -27 -30 14 -5 73 29 79 46 6 18 -9 14
-52 -16z"/>
<path d="M2120 631 c0 -9 53 -31 76 -31 28 0 13 17 -25 28 -46 14 -51 15 -51
3z"/>
<path d="M2338 603 c-31 -5 -38 -23 -9 -23 34 0 81 12 81 21 0 9 -22 10 -72 2z"/>
<path d="M90 6023 c0 -10 -7 -74 -15 -143 -86 -739 -92 -1614 -14 -2370 158
-1556 642 -2685 1401 -3266 113 -87 294 -199 346 -215 21 -6 112 -13 204 -16
183 -6 298 7 458 54 385 111 723 380 962 765 55 89 188 354 188 375 0 24 16
13 27 -18 7 -17 16 -28 22 -25 9 6 -15 76 -32 93 -9 9 -97 -26 -97 -39 0 -10
17 -8 53 7 14 6 11 -7 -16 -71 -110 -256 -241 -455 -422 -642 -222 -230 -481
-380 -774 -448 -132 -31 -374 -43 -502 -25 -75 11 -95 19 -188 74 -306 183
-575 446 -801 782 -441 655 -726 1615 -824 2775 -30 352 -38 619 -33 1095 5
476 18 712 57 1065 23 202 23 210 10 210 -5 0 -10 -8 -10 -17z"/>
<path d="M4690 5156 c0 -35 73 -568 126 -921 181 -1207 368 -2102 506 -2430
43 -100 95 -182 161 -252 153 -162 283 -145 376 50 44 91 60 169 150 712 120
727 189 1313 207 1753 6 161 8 171 24 157 37 -34 41 -12 5 26 l-40 40 -32 -37
c-39 -44 -44 -68 -8 -34 14 13 28 21 31 17 10 -10 -14 -443 -37 -672 -40 -408
-116 -944 -210 -1485 -74 -423 -90 -476 -164 -559 -67 -73 -137 -76 -232 -8
-142 101 -249 335 -362 798 -143 582 -361 1859 -472 2767 -7 56 -17 102 -21
102 -4 0 -8 -11 -8 -24z"/>
<path d="M7863 4574 c-39 -30 -44 -54 -7 -29 14 9 28 14 31 12 11 -12 -38 -99
-79 -140 -81 -81 -239 -137 -384 -137 -34 0 -54 -4 -54 -11 0 -9 26 -10 93 -6
207 12 368 103 428 242 13 30 27 55 30 55 3 0 12 -11 19 -25 13 -24 30 -34 30
-17 0 15 -51 82 -63 82 -7 0 -27 -12 -44 -26z"/>
<path d="M7559 4219 l-24 -20 23 6 c21 6 22 4 22 -54 0 -34 4 -61 10 -61 12 0
13 137 1 144 -5 3 -20 -3 -32 -15z"/>
<path d="M7715 4188 c-19 -29 -35 -56 -35 -60 0 -5 16 -8 35 -8 24 0 35 -5 35
-15 0 -8 5 -15 10 -15 6 0 10 7 10 15 0 8 5 15 12 15 9 0 9 3 0 12 -7 7 -12
31 -12 54 0 24 -4 45 -10 49 -5 3 -25 -18 -45 -47z m35 -13 c0 -28 -4 -35 -20
-35 -11 0 -20 3 -20 6 0 7 33 64 37 64 2 0 3 -16 3 -35z"/>
<path d="M7630 4100 c0 -5 5 -10 10 -10 6 0 10 5 10 10 0 6 -4 10 -10 10 -5 0
-10 -4 -10 -10z"/>
<path d="M5009 3419 l-24 -20 23 6 c21 6 22 4 22 -54 0 -34 4 -61 10 -61 12 0
13 137 1 144 -5 3 -20 -3 -32 -15z"/>
<path d="M5158 3429 c-10 -5 -18 -17 -18 -26 0 -15 2 -15 13 1 14 19 48 19 54
0 2 -6 -15 -34 -37 -63 l-40 -51 50 0 c32 0 49 4 45 10 -3 6 -17 10 -31 10
l-25 0 25 33 c28 37 33 66 14 85 -14 14 -27 15 -50 1z"/>
<path d="M5080 3300 c0 -5 5 -10 10 -10 6 0 10 5 10 10 0 6 -4 10 -10 10 -5 0
-10 -4 -10 -10z"/>
</g>
</svg>
