<?xml version="1.0" encoding="UTF-8"?>
<svg version="1.1" xmlns="http://www.w3.org/2000/svg" width="647" height="742">
<path d="M0 0 C0.99 7.92 1.98 15.84 3 24 C-1.95 26.97 -1.95 26.97 -7 30 C-20.51424861 40.04543451 -31.63279698 52.82361938 -42 66 C-42.75120117 66.95036133 -42.75120117 66.95036133 -43.51757812 67.91992188 C-52.60110169 79.42714831 -61.37606255 91.14546914 -70 103 C-70.55574707 103.76344727 -71.11149414 104.52689453 -71.68408203 105.31347656 C-77.51547464 113.33399484 -83.29246899 121.39087804 -89 129.5 C-93.0928906 135.31507994 -97.21412433 141.10833732 -101.375 146.875 C-101.90963867 147.61661377 -102.44427734 148.35822754 -102.99511719 149.12231445 C-105.83635372 153.050828 -108.70633049 156.95478217 -111.6171875 160.83203125 C-118.27022728 169.70809906 -124.59255604 178.57634154 -130.02050781 188.25976562 C-130.9487435 189.90893411 -131.90714918 191.54101492 -132.8671875 193.171875 C-170.1137792 259.01024871 -184.60037568 341.94861399 -194 416 C-194.20133545 417.53865723 -194.20133545 417.53865723 -194.40673828 419.10839844 C-199.78128442 460.84995089 -194.53197609 505.01937659 -169.41796875 539.90234375 C-156.82829872 556.03095172 -140.06463133 572.69334276 -119 576 C-97.20379319 577.49726195 -70.6110385 572.75029518 -52 561 C-61.54391505 545.13439202 -72.70950087 530.27138958 -91.00390625 524.3515625 C-97.18890651 523.26222782 -103.72127086 523.56136799 -109.8125 525 C-119.06560885 527.07448731 -130.46231968 527.75899926 -139 523 C-142.52651413 520.4618083 -144.61342509 518.44414773 -145.75390625 514.18359375 C-146.85647402 499.92021702 -135.70056598 484.3386355 -127 474 C-110.22360991 454.75865785 -85.53099286 441.69036269 -60 439 C-31.33908925 437.46595829 -7.82393201 445.34582105 14 464 C14.78246094 464.66 15.56492187 465.32 16.37109375 466 C21.36963828 470.31577538 25.79205073 474.9125758 30 480 C36.3601466 470.59167254 42.52729025 461.07288328 48.60717773 451.48120117 C54.16310102 442.72279596 59.81248653 434.02723902 65.47705078 425.33886719 C69.2253945 419.58235344 72.94980582 413.8103031 76.67919922 408.04150391 C78.40598931 405.37248011 80.1363303 402.70576698 81.86669922 400.0390625 C83.2206272 397.94885798 84.569311 395.85532686 85.91796875 393.76171875 C88.21019311 390.2072865 90.5331371 386.67420695 92.86328125 383.14453125 C128.90071006 328.22402166 147.98476212 261.2106661 157.8125 196.6875 C158.00739014 195.40907227 158.20228027 194.13064453 158.40307617 192.81347656 C160.84362356 176.06415796 162.35770732 159.47047198 162.31567383 142.53564453 C162.31249213 139.86840636 162.33619439 137.20226069 162.36132812 134.53515625 C162.43600138 114.08830278 160.30750567 89.31365064 145.72265625 73.53515625 C139.99913549 68.43460374 133.68239616 65.77286829 126 66 C107.64715777 67.84499472 91.66092359 83.6307291 80.4453125 97.05859375 C77.8612766 100.29941798 75.41384488 103.63123809 73 107 C72.60490234 107.54543457 72.20980469 108.09086914 71.80273438 108.65283203 C54.72878624 132.45436284 40.92301003 160.48978599 34 189 C33.75765625 189.96164063 33.5153125 190.92328125 33.265625 191.9140625 C30.52832622 204.45385017 30.56761607 217.89943627 36.8125 229.3125 C42.74478759 236.60073904 48.8675701 239.64881088 57.9375 240.8125 C64.83524575 241.87435573 68.82972872 244.37039964 73.375 249.57421875 C77.6679421 256.20741054 76.93836828 265.43885195 76 273 C74.81312111 278.20966309 73.04469679 283.07642032 71 288 C70.72704102 288.6801416 70.45408203 289.3602832 70.17285156 290.06103516 C66.88486495 298.21697445 63.46136553 306.03438738 58 313 C57.42894531 313.74507813 56.85789062 314.49015625 56.26953125 315.2578125 C45.61800795 328.21533568 30.62493223 334.75140122 14.17285156 336.6015625 C-8.14535218 338.5711306 -30.50050292 333.21861414 -47.9375 318.75 C-66.07618982 302.88243161 -75.19348488 279.45901964 -77.18438721 255.8097229 C-77.4706296 250.7278718 -77.4809067 245.65078348 -77.4375 240.5625 C-77.43412628 239.78519531 -77.43075256 239.00789062 -77.42727661 238.20703125 C-77.2351562 207.37975866 -70.34019009 176.64117087 -59 148 C-58.70013184 147.24074219 -58.40026367 146.48148438 -58.09130859 145.69921875 C-48.06432406 120.79878546 -31.81521005 98.73788736 -15 78 C-14.24332031 77.04996094 -13.48664063 76.09992188 -12.70703125 75.12109375 C-7.53300233 68.68331971 -2.04400937 62.57990509 3.57958984 56.53808594 C5.02101589 54.97724302 6.44425331 53.4015289 7.86328125 51.8203125 C12.95420814 46.15963656 18.13500676 40.86846341 24 36 C24.96550781 35.15824219 25.93101562 34.31648438 26.92578125 33.44921875 C57.3362547 6.99827333 88.67890893 -3.76602581 129 -2 C153.27637722 -0.07937334 174.81415589 8.98626087 191.125 27.5625 C209.91010864 51.1627789 218.21290125 82.53783231 222 112 C222.1403064 113.02383789 222.1403064 113.02383789 222.28344727 114.06835938 C231.85392977 193.94010898 205.26783118 287.52179905 115.90087891 452.27905273 C114.12968074 454.93049305 112.36344562 457.58518975 110.59765625 460.24023438 C100.26982791 475.73876411 89.76641424 491.13397464 78.625 506.0625 C77.46849492 507.62220673 76.31224371 509.18210172 75.15625 510.7421875 C74.61871094 511.46631836 74.08117187 512.19044922 73.52734375 512.93652344 C70.32083499 517.26859059 67.15951805 521.63358531 64 526 C66.70584407 531.03605331 69.67473071 535.27180435 73.4375 539.5625 C74.37390161 540.64695956 75.31010061 541.73159412 76.24609375 542.81640625 C76.93602417 543.60809204 76.93602417 543.60809204 77.63989258 544.41577148 C78.9701787 545.96526469 80.25469589 547.54521007 81.5390625 549.1328125 C92.75474344 562.19997093 110.63916421 573.68593659 127.98828125 575.2734375 C157.04968002 576.16132982 181.60624639 555.28111594 203 538 C203.93070313 537.25234375 204.86140625 536.5046875 205.8203125 535.734375 C216.85535283 526.79052307 227.56413613 517.51277564 237.953125 507.828125 C241.55682183 504.4704454 245.23223873 501.19442971 248.90625 497.9140625 C250.66824716 496.30328151 252.34681982 494.65796077 254 492.9375 C256 491 256 491 258 491 C258.25594173 500.4579203 258.45084747 509.91463247 258.56993389 519.3752718 C258.62711975 523.76941854 258.7045431 528.16118079 258.82983398 532.55395508 C258.95020174 536.80116502 259.01529431 541.04609681 259.04364967 545.29488182 C259.0638284 546.90777629 259.10323715 548.52055903 259.16303062 550.13247108 C259.63437442 563.37726742 259.63437442 563.37726742 255.60977173 568.39926147 C252.97382636 571.22736286 250.05315965 573.62990477 247 576 C245.74409369 577.09744401 244.49242201 578.19981335 243.25 579.3125 C242.62609375 579.84488281 242.0021875 580.37726562 241.359375 580.92578125 C238.00318796 583.87633642 234.75801121 586.94183996 231.5 590 C227.04337583 594.17890039 222.57510327 598.3215095 217.94140625 602.3046875 C215.48290184 604.45155051 213.089711 606.66537132 210.6875 608.875 C206.17096163 612.99906676 201.50866984 616.87936865 196.75 620.71875 C193.91900422 623.06718968 191.20616402 625.50909902 188.5 628 C183.16520669 632.8914795 177.67130189 637.50428205 172 642 C171.40509766 642.47808105 170.81019531 642.95616211 170.19726562 643.44873047 C140.30459511 667.39460329 106.76784214 686.28097226 67.27734375 682.46484375 C38.72756692 678.41547135 14.96353593 655.13781537 -3 634 C-3.87723233 632.98665715 -4.7548675 631.97366296 -5.6328125 630.9609375 C-11.15553251 624.55397508 -16.32561171 618.06741984 -21 611 C-24.87406248 614.24340115 -28.61435169 617.57245238 -32.27734375 621.05371094 C-70.6641713 657.30532987 -122.33134047 684.20301511 -175.875 684.25 C-176.91195007 684.25101212 -176.91195007 684.25101212 -177.96984863 684.25204468 C-188.91766695 684.23509612 -199.32940853 683.54610637 -210 681 C-211.11810059 680.75056641 -211.11810059 680.75056641 -212.25878906 680.49609375 C-255.3952287 670.7863491 -293.55173043 645.00395871 -317.51464844 607.63818359 C-362.19060758 535.97817177 -354.783109 450.9794437 -336.71813965 372.36717224 C-325.99674512 326.33133038 -313.03885587 278.50217285 -292 236 C-291.50838379 235.00436035 -291.01676758 234.0087207 -290.51025391 232.98291016 C-281.79944825 215.49022247 -272.1870931 198.6620337 -262 182 C-261.50918945 181.19320801 -261.01837891 180.38641602 -260.51269531 179.55517578 C-243.11793697 151.08243775 -224.57846214 122.49483783 -203 97 C-202.14261334 95.96926194 -201.28587495 94.9379844 -200.4296875 93.90625 C-190.92678723 82.49968543 -180.83951564 71.74754711 -170.38516235 61.20993042 C-168.98088139 59.79374902 -167.58058509 58.37361992 -166.18041992 56.95336914 C-160.09837977 50.8636738 -153.73503524 45.35182467 -147 40 C-145.74481238 38.96405979 -144.49186422 37.92539399 -143.2421875 36.8828125 C-107.64458526 7.55494806 -46.41460787 -15.47153596 0 0 Z M-156.22265625 56.44140625 C-158.48930455 58.5295281 -160.78332891 60.56006496 -163.125 62.5625 C-169.96674829 68.50813573 -176.28689216 75.00580133 -182.171875 81.89453125 C-184.3102087 84.35727028 -186.53084599 86.73487343 -188.75 89.125 C-193.98917026 94.87781441 -198.78637292 100.91189009 -203.52294922 107.08154297 C-205.04871129 109.06326831 -206.58797319 111.03396072 -208.12890625 113.00390625 C-232.46476781 144.26547595 -253.75267032 178.4069064 -273 213 C-273.56895996 214.01755371 -274.13791992 215.03510742 -274.72412109 216.08349609 C-312.17760551 283.32789737 -333.3919526 363.81206746 -343 440 C-343.11714355 440.89235352 -343.23428711 441.78470703 -343.35498047 442.70410156 C-347.7793519 477.50740374 -345.51764814 513.02693775 -337 547 C-336.81211914 547.76070801 -336.62423828 548.52141602 -336.43066406 549.30517578 C-329.60830317 576.29667311 -316.16057593 601.97507307 -298 623 C-297.15566406 623.9796875 -296.31132812 624.959375 -295.44140625 625.96875 C-280.85774674 642.55240835 -263.10761717 654.97953902 -243 664 C-242.32163086 664.30534668 -241.64326172 664.61069336 -240.94433594 664.92529297 C-220.90425037 673.74877211 -199.52302598 678.22878804 -177.6875 678.25 C-176.97135529 678.25100708 -176.25521057 678.25201416 -175.5173645 678.25305176 C-164.40552282 678.24247986 -153.83515993 677.57767451 -143 675 C-141.79988281 674.73316406 -140.59976563 674.46632813 -139.36328125 674.19140625 C-93.66106685 663.07465139 -55.51486916 636.09780506 -23 603 C-22.34 602.34 -21.68 601.68 -21 601 C-19.89205078 602.50626953 -19.89205078 602.50626953 -18.76171875 604.04296875 C-12.14657982 612.98258331 -5.31730492 621.62624528 2 630 C2.72445313 630.83660156 3.44890625 631.67320312 4.1953125 632.53515625 C6.42375828 635.06374325 8.69600631 637.53998784 11 640 C11.73162354 640.78262207 11.73162354 640.78262207 12.47802734 641.58105469 C29.918083 660.07210177 48.80859117 675.44819688 75 677 C75.70640625 677.04253906 76.4128125 677.08507812 77.140625 677.12890625 C113.09505831 678.15813621 144.73659062 656.68123604 171.0625 634.46875 C173.86878682 632.11027491 176.7096336 629.80174448 179.5625 627.5 C184.27910282 623.65634088 188.76092086 619.60243721 193.234375 615.48046875 C196.00517601 612.99535768 198.85051362 610.64555667 201.75 608.3125 C205.51443267 605.27425576 208.98207422 602.13673701 212.34375 598.6640625 C214.68551333 596.31125312 217.19457261 594.1752333 219.70703125 592.0078125 C222.46905971 589.5892731 225.1739428 587.11104979 227.875 584.625 C243.25189021 570.48377434 243.25189021 570.48377434 245.97125244 568.7252655 C249.47622927 566.23879412 251.66949919 564.36258278 252.70513916 560.09286499 C252.92556249 556.50689477 252.89944609 553.00102547 252.78125 549.41015625 C252.76993042 548.11049423 252.75861084 546.81083221 252.74694824 545.4717865 C252.71657558 542.03630774 252.63815774 538.60358714 252.54931641 535.16918945 C252.46709318 531.6567923 252.43086012 528.14394399 252.390625 524.63085938 C252.30513635 517.75278169 252.16882068 510.87652366 252 504 C250.89812127 504.93894467 249.79704192 505.87882748 248.69628906 506.8190918 C248.08303772 507.34238571 247.46978638 507.86567963 246.83795166 508.40483093 C244.07474273 510.80303623 241.41683739 513.30838068 238.75 515.8125 C233.92852694 520.3008128 228.98522207 524.55764524 223.84375 528.6796875 C221.82891087 530.32366338 219.85866247 531.98091071 217.90625 533.6953125 C161.88276475 582.87407348 161.88276475 582.87407348 128.25390625 581.34375 C105.19949736 578.90823021 85.13252491 563.79108343 70.63964844 546.36425781 C67.65581027 542.65098958 64.82279668 538.8363682 62 535 C61.41605469 534.26136719 60.83210938 533.52273438 60.23046875 532.76171875 C56.9405583 528.52924442 56.9405583 528.52924442 57.21777344 526.06103516 C58.10020302 523.73598193 59.20485012 522.07088538 60.703125 520.0859375 C61.26451172 519.33449463 61.82589844 518.58305176 62.40429688 517.80883789 C63.31791992 516.60408813 63.31791992 516.60408813 64.25 515.375 C65.53718159 513.6528841 66.82362343 511.93021507 68.109375 510.20703125 C68.76228516 509.3351416 69.41519531 508.46325195 70.08789062 507.56494141 C99.4732077 468.14689478 127.05945191 426.96128705 151 384 C151.54188965 383.03126953 152.0837793 382.06253906 152.64208984 381.06445312 C187.08876663 319.27041466 207.99681189 246.19142947 216 176 C216.1023999 175.16823242 216.2047998 174.33646484 216.31030273 173.47949219 C221.39279461 126.95619732 216.6957644 70.83513581 187 32.6875 C185.68303906 31.11117582 184.35070172 29.54751055 183 28 C182.17048828 27.04480469 182.17048828 27.04480469 181.32421875 26.0703125 C167.88400787 11.63571848 146.42871277 4.60730041 127.08081055 3.89208984 C91.54131858 3.23350491 64.76163079 10.35561959 37 33 C36.40912598 33.47663086 35.81825195 33.95326172 35.20947266 34.44433594 C22.41755045 44.83042156 10.72940929 56.50696333 0 69 C-0.45737549 69.5249707 -0.91475098 70.04994141 -1.38598633 70.59082031 C-12.69155804 83.56929799 -22.67559724 97.33536993 -32.25 111.625 C-32.62609406 112.18382874 -33.00218811 112.74265747 -33.38967896 113.31842041 C-41.31757584 125.12434028 -48.74467912 136.92544324 -53.5625 150.375 C-53.9347168 151.39609863 -54.30693359 152.41719727 -54.69042969 153.46923828 C-69.55593846 194.96931346 -81.41746713 245.68310425 -63 288 C-54.72774784 305.18517989 -42.22432416 318.73101106 -24.25 325.9375 C-16.27898147 328.72544038 -8.41916472 330.39657864 0 331 C0.73476563 331.05414063 1.46953125 331.10828125 2.2265625 331.1640625 C18.53779106 331.76414114 34.77682129 326.87294385 47 316 C47.60328125 315.50113281 48.2065625 315.00226563 48.828125 314.48828125 C60.20877723 304.3123377 69.19088416 283.75207601 70.23828125 268.5390625 C70.26277344 267.24742187 70.28726562 265.95578125 70.3125 264.625 C70.34988281 263.33851563 70.38726562 262.05203125 70.42578125 260.7265625 C69.80815822 255.32094443 67.4749333 252.32743997 63.5 248.75 C60.13321717 247.06660858 57.92039938 246.57541479 54.25 246.0625 C45.19955579 244.75035381 38.24868925 241.45738587 32.46875 234.24609375 C24.08120871 221.41940162 24.55027347 204.86432811 27.45800781 190.33642578 C31.46695116 172.28752208 38.92878564 155.54791328 47 139 C47.37882324 138.21641113 47.75764648 137.43282227 48.14794922 136.62548828 C56.30513632 119.92658764 66.67969864 103.92828187 79 90 C79.763125 89.09378906 80.52625 88.18757813 81.3125 87.25390625 C90.82174291 76.26646372 105.04394573 63.45461959 120 61 C131.20439484 60.20434449 139.28327177 60.99047342 148.1875 68.1875 C162.1339447 81.24845615 167.08196408 102.51279419 168.11373901 121.04266357 C168.17975822 123.19024635 168.2162988 125.33589017 168.23828125 127.484375 C168.24812042 128.28479721 168.25795959 129.08521942 168.26809692 129.90989685 C169.03424951 208.92946912 148.67527197 291.45639674 104 377 C103.4745459 377.81162598 102.9490918 378.62325195 102.40771484 379.45947266 C99.29617948 384.26169914 96.16674245 389.05188843 93.02734375 393.8359375 C88.97104111 400.02739579 84.98040019 406.25956263 81 412.5 C75.27050558 421.47724776 69.48315105 430.41403132 63.65112305 439.32495117 C58.98978864 446.45689693 54.39289828 453.62836341 49.8125 460.8125 C43.33823522 470.96396453 36.7315029 481.01748718 30 491 C29.39414062 490.17757813 28.78828125 489.35515625 28.1640625 488.5078125 C12.0928804 466.9649686 -9.44052496 449.53601829 -36.68554688 445.28125 C-61.6053604 442.2530195 -87.60446865 449.12742611 -107.6875 464.375 C-109.13488758 465.57147185 -110.57220658 466.78021246 -112 468 C-113.19882812 468.96486328 -113.19882812 468.96486328 -114.421875 469.94921875 C-126.50717692 480.10162301 -137.1890043 495.38319841 -140.078125 511.12890625 C-140.1543983 513.34224619 -140.1543983 513.34224619 -137.9375 515.9375 C-130.33509822 521.27535657 -121.18970532 521.0213454 -112.25390625 519.546875 C-111.46886719 519.36640625 -110.68382812 519.1859375 -109.875 519 C-97.12249141 516.08151545 -86.67909344 518.49544104 -75.5625 525 C-61.13783002 534.6986385 -51.4823138 548.55922516 -44 564 C-59.36774065 572.89711301 -77.51138264 578.33068472 -95 581 C-95.7115625 581.12890625 -96.423125 581.2578125 -97.15625 581.390625 C-117.13138884 584.60696091 -133.60041303 579.55243093 -149.8125 568.125 C-151.55999053 566.77336425 -153.28946413 565.39810923 -155 564 C-156.31677734 562.94619141 -156.31677734 562.94619141 -157.66015625 561.87109375 C-184.7009252 538.87671325 -198.26263302 502.82421586 -201.53295898 468.23046875 C-204.15000324 434.9413907 -198.54843512 401.73097032 -193 369 C-192.8749408 368.26046082 -192.74988159 367.52092163 -192.62103271 366.75897217 C-180.83748668 297.58148071 -162.73578872 220.68322321 -120.57519531 163.15185547 C-118.97399662 160.96447709 -117.38745272 158.76715314 -115.8046875 156.56640625 C-112.00016391 151.27857821 -108.1772155 146.00416975 -104.35449219 140.72949219 C-102.71467044 138.46608998 -101.07573003 136.20205453 -99.4375 133.9375 C-98.89802734 133.19177734 -98.35855469 132.44605469 -97.80273438 131.67773438 C-94.18423951 126.66583596 -90.6137282 121.62220408 -87.0625 116.5625 C-80.52780397 107.26203685 -73.77882645 98.12338296 -67 89 C-66.56558594 88.41347656 -66.13117188 87.82695313 -65.68359375 87.22265625 C-59.61073521 79.02529934 -53.35283102 70.98121665 -47 63 C-45.8553125 61.55947266 -45.8553125 61.55947266 -44.6875 60.08984375 C-39.07531094 53.12471626 -33.14718859 46.49165229 -27 40 C-26.53803223 39.50935059 -26.07606445 39.01870117 -25.60009766 38.51318359 C-19.16230501 31.71886405 -12.45583932 25.22791966 -4 21 C-4.14063135 18.70800823 -4.28765943 16.41640814 -4.4375 14.125 C-4.51871094 12.84882812 -4.59992188 11.57265625 -4.68359375 10.2578125 C-4.79206027 7.11699848 -4.79206027 7.11699848 -6 5 C-63.82668963 -4.17976772 -114.62041948 17.81851401 -156.22265625 56.44140625 Z " fill="#000000" transform="translate(389,33)"/>
<path d="M0 0 C0.99 0.99 1.98 1.98 3 3 C1.9644397 4.02770508 1.9644397 4.02770508 0.90795898 5.07617188 C-1.68712127 7.65295983 -4.27873292 10.23321362 -6.86938477 12.81445312 C-7.9846729 13.92475584 -9.10086211 15.03415429 -10.21801758 16.14257812 C-16.37133733 22.24905218 -22.41142609 28.36350921 -28 35 C-28.87667245 36.00992412 -29.75422524 37.01908498 -30.6328125 38.02734375 C-37.53094443 46.08237242 -44.01620303 54.40450783 -50.39453125 62.87548828 C-51.91904024 64.8928662 -53.45714802 66.89897692 -55 68.90234375 C-110.78995215 141.71452897 -148.47375921 230.38741764 -179 403 C-179.07202637 403.8765625 -179.14405273 404.753125 -179.21826172 405.65625 C-185.14939216 481.17196918 -174.81841935 569.88018038 -124.5 629.8125 C-99.54238835 658.76916238 -65.5223818 678.15631616 -27.05517578 681.7890625 C22.22606449 685.19157102 69.79024457 672.15693703 114 651 C115.12212891 650.46503906 116.24425781 649.93007813 117.40039062 649.37890625 C134.07967391 641.3676698 150.15794043 632.55122311 166 623 C167.89305572 621.86429417 169.78627772 620.72886545 171.6796875 619.59375 C173.11984878 618.72926181 174.55997541 617.86471587 176 617 C174.35 616.34 172.7 615.68 171 615 C171.33 614.01 171.66 613.02 172 612 C175.63 612.66 179.26 613.32 183 614 C182 622.57142857 182 622.57142857 181 626 C180.01 625.67 179.02 625.34 178 625 C178 623.35 178 621.7 178 620 C176.94425781 620.65484375 175.88851563 621.3096875 174.80078125 621.984375 C110.59147249 661.63873724 30.84839102 700.3836109 -46.66162109 682.38183594 C-84.86863007 672.97555922 -117.34698166 650.05082254 -139 617 C-139.70125 615.93652344 -140.4025 614.87304688 -141.125 613.77734375 C-143.16627851 610.55993797 -145.10183101 607.30379912 -147 604 C-147.52907959 603.08541016 -147.52907959 603.08541016 -148.06884766 602.15234375 C-189.41806936 529.92344302 -189.38592219 438.13017222 -178 358 C-177.82629883 356.77071777 -177.65259766 355.54143555 -177.47363281 354.27490234 C-168.52420289 292.64624949 -149.32163161 232.34638645 -123 176 C-122.55043945 175.03384766 -122.10087891 174.06769531 -121.63769531 173.07226562 C-107.99687967 143.86965286 -92.43679635 115.47716981 -74 89 C-73.5246582 88.31502441 -73.04931641 87.63004883 -72.55957031 86.92431641 C-66.22127781 77.8117488 -59.7628789 68.80340271 -53 60 C-52.58427734 59.45811035 -52.16855469 58.9162207 -51.74023438 58.35791016 C-41.89148281 45.55818081 -31.41197618 33.36929725 -20.42382812 21.53710938 C-18.90707586 19.89968271 -17.39823097 18.25522489 -15.890625 16.609375 C-10.70394157 10.95380254 -5.49009039 5.36531561 0 0 Z " fill="#000000" transform="translate(184,56)"/>
<path d="M0 0 C9.08593042 7.86970351 17.76785558 16.20575917 23.9765625 26.578125 C24.33588867 27.17383301 24.69521484 27.76954102 25.06542969 28.38330078 C57.90620687 83.27586115 39.57940208 166.08839178 24.87988281 225.00097656 C4.60899993 305.05517754 -30.17054242 383.2107081 -77.0234375 462.578125 C-78.07344424 464.3525525 -79.12293287 466.1272867 -80.171875 467.90234375 C-86.53476446 478.63180283 -93.15913884 489.1631391 -100.0234375 499.578125 C-101.10431641 501.22941406 -101.10431641 501.22941406 -102.20703125 502.9140625 C-104.12242677 505.81889235 -106.06209081 508.70415169 -108.0234375 511.578125 C-109.09464844 513.15207031 -109.09464844 513.15207031 -110.1875 514.7578125 C-110.89648438 515.77101563 -111.60546875 516.78421875 -112.3359375 517.828125 C-112.97144531 518.74078125 -113.60695313 519.6534375 -114.26171875 520.59375 C-114.84308594 521.24859375 -115.42445313 521.9034375 -116.0234375 522.578125 C-117.0134375 522.578125 -118.0034375 522.578125 -119.0234375 522.578125 C-117.56474661 518.34947323 -115.44271609 515.21586735 -112.7734375 511.640625 C-101.12019191 495.69704354 -91.02219738 478.59130542 -81.0234375 461.578125 C-80.45012695 460.60423828 -79.87681641 459.63035156 -79.28613281 458.62695312 C-37.7933831 387.94881417 -3.32529563 312.69262039 34.2890625 154.015625 C34.37055542 153.34419464 34.45204834 152.67276428 34.53601074 151.98098755 C36.34422737 136.84849216 37.18475789 121.80554048 37.1640625 106.578125 C37.16379059 105.81932037 37.16351868 105.06051575 37.16323853 104.27871704 C37.10501872 68.74460908 32.37471926 37.61832642 6.75390625 11.2890625 C-15.8853244 -10.80886446 -44.53300235 -20.84035679 -75.8359375 -20.796875 C-76.50574646 -20.79633118 -77.17555542 -20.79578735 -77.86566162 -20.79522705 C-110.36227942 -20.67507924 -143.03502477 -10.86138625 -172.0234375 3.578125 C-170.7034375 4.238125 -169.3834375 4.898125 -168.0234375 5.578125 C-168.0234375 6.568125 -168.0234375 7.558125 -168.0234375 8.578125 C-169.48247008 8.26890616 -170.94064472 7.95563701 -172.3984375 7.640625 C-173.61660156 7.37958984 -173.61660156 7.37958984 -174.859375 7.11328125 C-177.0234375 6.578125 -177.0234375 6.578125 -179.0234375 5.578125 C-178.55543039 1.52206335 -178.14390542 -1.88776179 -176.0234375 -5.421875 C-175.3634375 -5.421875 -174.7034375 -5.421875 -174.0234375 -5.421875 C-174.3534375 -3.441875 -174.6834375 -1.461875 -175.0234375 0.578125 C-173.37988281 -0.22238281 -173.37988281 -0.22238281 -171.703125 -1.0390625 C-148.85888685 -11.88607326 -125.00522178 -19.47686171 -100.0234375 -23.421875 C-98.77046875 -23.62167969 -97.5175 -23.82148438 -96.2265625 -24.02734375 C-62.19998612 -27.97013325 -27.29461257 -21.50484627 0 0 Z " fill="#000000" transform="translate(606.0234375,24.421875)"/>
<path d="M0 0 C0.99 4.95 0.99 4.95 2 10 C1.01 10 0.02 10 -1 10 C-1.99 8.02 -1.99 8.02 -3 6 C-3.78310547 7.28970703 -3.78310547 7.28970703 -4.58203125 8.60546875 C-10.03169539 17.41814601 -16.06949421 25.30416228 -23 33 C-23.59296875 33.66515625 -24.1859375 34.3303125 -24.796875 35.015625 C-48.85515539 60.50311016 -83.9436331 70.79232741 -118 72 C-129.27822765 72.12164498 -140.03652379 70.5710807 -151 68 C-150.67 67.01 -150.34 66.02 -150 65 C-149.20078125 65.13277344 -148.4015625 65.26554688 -147.578125 65.40234375 C-112.10237651 71.10677749 -73.45652312 67.03322176 -43.48828125 45.546875 C-40.24059745 43.12963639 -37.11408823 40.58676929 -34 38 C-32.76636719 36.99646484 -32.76636719 36.99646484 -31.5078125 35.97265625 C-20.90805558 27.00504183 -13.46819648 15.55309728 -6 4 C-7.65 4.33 -9.3 4.66 -11 5 C-11.33 4.01 -11.66 3.02 -12 2 C-10.75579353 1.4654744 -9.50429064 0.94791389 -8.25 0.4375 C-7.55390625 0.14746094 -6.8578125 -0.14257812 -6.140625 -0.44140625 C-4 -1 -4 -1 0 0 Z " fill="#000000" transform="translate(637,505)"/>
<path d="M0 0 C1.4540625 0.0309375 1.4540625 0.0309375 2.9375 0.0625 C5.0625 4.6875 5.0625 4.6875 3.9375 8.0625 C4.26300502 9.73071323 4.59596063 11.39749557 4.9375 13.0625 C4.6075 13.7225 4.2775 14.3825 3.9375 15.0625 C1.125 15.9375 1.125 15.9375 -2.0625 16.0625 C-4.4375 14.125 -4.4375 14.125 -6.0625 12.0625 C-2.43923261 10.8547442 -1.42103631 11.51938872 1.9375 13.0625 C1.9375 11.7425 1.9375 10.4225 1.9375 9.0625 C0.6175 9.0625 -0.7025 9.0625 -2.0625 9.0625 C-2.0625 8.0725 -2.0625 7.0825 -2.0625 6.0625 C-0.7425 6.0625 0.5775 6.0625 1.9375 6.0625 C1.6075 5.0725 1.2775 4.0825 0.9375 3.0625 C-1.0425 3.7225 -3.0225 4.3825 -5.0625 5.0625 C-3.9375 0.08035714 -3.9375 0.08035714 0 0 Z " fill="#000000" transform="translate(557.0625,550.9375)"/>
<path d="M0 0 C0 4.95 0 9.9 0 15 C-0.99 15 -1.98 15 -3 15 C-3 11.37 -3 7.74 -3 4 C-3.99 4.33 -4.98 4.66 -6 5 C-5.625 3.0625 -5.625 3.0625 -5 1 C-3 0 -3 0 0 0 Z " fill="#000000" transform="translate(544,551)"/>
<path d="M0 0 C5.445 1.485 5.445 1.485 11 3 C11 3.99 11 4.98 11 6 C7.7 5.34 4.4 4.68 1 4 C0.67 2.68 0.34 1.36 0 0 Z " fill="#000000" transform="translate(175,671)"/>
<path d="M0 0 C2.96404505 2.80804268 5.44499019 5.18315774 7 9 C5.68 9 4.36 9 3 9 C-2 3.77272727 -2 3.77272727 -2 1 C-1.34 0.67 -0.68 0.34 0 0 Z " fill="#000000" transform="translate(446,625)"/>
<path d="M0 0 C0.99 0 1.98 0 3 0 C4.65 2.97 6.3 5.94 8 9 C6.68 9 5.36 9 4 9 C0 4 0 4 0 0 Z " fill="#000000" transform="translate(115,618)"/>
<path d="M0 0 C0.99 0.33 1.98 0.66 3 1 C1.47291037 4.43595166 -0.59927045 7.11912454 -3 10 C-3.99 9.67 -4.98 9.34 -6 9 C-4.47291037 5.56404834 -2.40072955 2.88087546 0 0 Z " fill="#000000" transform="translate(608,591)"/>
<path d="M0 0 C0.99 0 1.98 0 3 0 C2.39301257 4.12751449 0.96189209 7.3321148 -1 11 C-1.99 10.67 -2.98 10.34 -4 10 C-2.8905928 6.51329166 -1.73662334 3.22515763 0 0 Z " fill="#000000" transform="translate(187,234)"/>
<path d="M0 0 C0 0.99 0 1.98 0 3 C-3.63 3.66 -7.26 4.32 -11 5 C-11.33 4.01 -11.66 3.02 -12 2 C-10.56342755 1.66269158 -9.12569907 1.33030409 -7.6875 1 C-6.88699219 0.814375 -6.08648437 0.62875 -5.26171875 0.4375 C-3 0 -3 0 0 0 Z " fill="#000000" transform="translate(249,672)"/>
<path d="M0 0 C4.40114397 0.50298788 6.71195019 2.08772731 10 5 C9.67 5.99 9.34 6.98 9 8 C5.88256767 6.49901406 2.84498177 4.97568178 0 3 C0 2.01 0 1.02 0 0 Z " fill="#000000" transform="translate(157,661)"/>
<path d="M0 0 C0.66 0.33 1.32 0.66 2 1 C2 1.66 2 2.32 2 3 C0.5437455 3.67119549 -0.91507867 4.33681807 -2.375 5 C-3.59316406 5.556875 -3.59316406 5.556875 -4.8359375 6.125 C-7 7 -7 7 -9 7 C-9 6.01 -9 5.02 -9 4 C-7.54618103 3.30300448 -6.08677047 2.61766134 -4.625 1.9375 C-3.40683594 1.36322266 -3.40683594 1.36322266 -2.1640625 0.77734375 C-1.44992187 0.52082031 -0.73578125 0.26429688 0 0 Z " fill="#000000" transform="translate(287,658)"/>
<path d="M0 0 C1.17539996 0.92652701 2.34010577 1.86663387 3.5 2.8125 C4.1496875 3.33457031 4.799375 3.85664062 5.46875 4.39453125 C7 6 7 6 7 9 C3.15314615 7.75237172 0.97070595 6.6129609 -1 3 C-0.67 2.01 -0.34 1.02 0 0 Z " fill="#000000" transform="translate(472,656)"/>
<path d="M0 0 C0.515625 0.2475 1.03125 0.495 1.5625 0.75 C-0.80800084 3.37002725 -3.31026017 5.10819909 -6.4375 6.75 C-7.4275 6.75 -8.4175 6.75 -9.4375 6.75 C-9.4375 5.76 -9.4375 4.77 -9.4375 3.75 C-3.0375 -0.31153846 -3.0375 -0.31153846 0 0 Z " fill="#000000" transform="translate(306.4375,649.25)"/>
<path d="M0 0 C3.78717347 1.48781815 5.77407001 3.61988409 8 7 C7.67 7.99 7.34 8.98 7 10 C0.42857143 4.85714286 0.42857143 4.85714286 -1 1 C-0.67 0.67 -0.34 0.34 0 0 Z " fill="#000000" transform="translate(458,641)"/>
<path d="M0 0 C0 0.99 0 1.98 0 3 C-2.97 4.65 -5.94 6.3 -9 8 C-9 6.68 -9 5.36 -9 4 C-4 0 -4 0 0 0 Z " fill="#000000" transform="translate(325,638)"/>
<path d="M0 0 C3.78717347 1.48781815 5.77407001 3.61988409 8 7 C7.67 7.99 7.34 8.98 7 10 C5.84775972 9.07038578 4.70340824 8.1309875 3.5625 7.1875 C2.60537109 6.40439453 2.60537109 6.40439453 1.62890625 5.60546875 C0 4 0 4 -1 1 C-0.67 0.67 -0.34 0.34 0 0 Z " fill="#000000" transform="translate(127,634)"/>
<path d="M0 0 C3.13506611 0.33589994 4.025249 1.02665172 6.25 3.375 C8 6 8 6 8 9 C4.86493389 8.66410006 3.974751 7.97334828 1.75 5.625 C0 3 0 3 0 0 Z " fill="#000000" transform="translate(432,610)"/>
<path d="M0 0 C0.99 0.66 1.98 1.32 3 2 C2.07347299 3.17539996 1.13336613 4.34010577 0.1875 5.5 C-0.33457031 6.1496875 -0.85664063 6.799375 -1.39453125 7.46875 C-3 9 -3 9 -6 9 C-5.52797514 4.75177626 -3.03344482 2.80010291 0 0 Z " fill="#000000" transform="translate(427,548)"/>
<path d="M0 0 C0.66 0 1.32 0 2 0 C2.69965443 1.26418246 3.38434763 2.53665402 4.0625 3.8125 C4.63677734 4.87404297 4.63677734 4.87404297 5.22265625 5.95703125 C6 8 6 8 5 11 C4.34 11 3.68 11 3 11 C1.68 7.7 0.36 4.4 -1 1 C-0.67 0.67 -0.34 0.34 0 0 Z " fill="#000000" transform="translate(365,288)"/>
<path d="M0 0 C0.99 0.33 1.98 0.66 3 1 C1.66511872 4.59391114 0.03977277 7.75490696 -2 11 C-2.99 10.67 -3.98 10.34 -5 10 C-3.35 6.7 -1.7 3.4 0 0 Z " fill="#000000" transform="translate(207,198)"/>
<path d="M0 0 C0.66 0.33 1.32 0.66 2 1 C1.38545304 4.99455527 -0.70646737 7.74466336 -3 11 C-3.99 10.34 -4.98 9.68 -6 9 C-4.02 6.03 -2.04 3.06 0 0 Z " fill="#000000" transform="translate(250,129)"/>
<path d="M0 0 C4.04648443 1.34882814 4.95502599 3.34826069 7 7 C6.67 7.99 6.34 8.98 6 10 C5.34 10 4.68 10 4 10 C2.67578125 8.57421875 2.67578125 8.57421875 1.3125 6.6875 C0.85488281 6.07261719 0.39726563 5.45773438 -0.07421875 4.82421875 C-0.53248047 3.92123047 -0.53248047 3.92123047 -1 3 C-0.67 2.01 -0.34 1.02 0 0 Z " fill="#000000" transform="translate(553,81)"/>
<path d="M0 0 C3.63 0 7.26 0 11 0 C11 0.99 11 1.98 11 3 C7.37 3 3.74 3 0 3 C0 2.01 0 1.02 0 0 Z " fill="#000000" transform="translate(217,676)"/>
<path d="M0 0 C1.45823212 -0.0270043 2.91660675 -0.04639787 4.375 -0.0625 C5.18710938 -0.07410156 5.99921875 -0.08570313 6.8359375 -0.09765625 C9 0 9 0 11 1 C11 1.66 11 2.32 11 3 C7.04 3 3.08 3 -1 3 C-0.67 2.01 -0.34 1.02 0 0 Z " fill="#000000" transform="translate(196,676)"/>
<path d="M0 0 C0 0.99 0 1.98 0 3 C-1.26839526 3.50615298 -2.53983102 4.00469099 -3.8125 4.5 C-4.87404297 4.91765625 -4.87404297 4.91765625 -5.95703125 5.34375 C-8 6 -8 6 -11 6 C-11 5.01 -11 4.02 -11 3 C-9.54293274 2.49632243 -8.08429904 1.99717444 -6.625 1.5 C-5.81289063 1.2215625 -5.00078125 0.943125 -4.1640625 0.65625 C-2 0 -2 0 0 0 Z " fill="#000000" transform="translate(269,666)"/>
<path d="M0 0 C0 0.66 0 1.32 0 2 C-3.87684087 3.19287411 -6.91621923 4 -11 4 C-11 3.01 -11 2.02 -11 1 C-3.57142857 -1.42857143 -3.57142857 -1.42857143 0 0 Z " fill="#000000" transform="translate(518,663)"/>
<path d="M0 0 C3.87206399 0.57363911 6.18465063 2.34105893 9 5 C9 5.99 9 6.98 9 8 C5.12793601 7.42636089 2.81534937 5.65894107 0 3 C0 2.01 0 1.02 0 0 Z " fill="#000000" transform="translate(141,649)"/>
<path d="M0 0 C0.99 0.33 1.98 0.66 3 1 C2.07347299 2.17539996 1.13336613 3.34010577 0.1875 4.5 C-0.33457031 5.1496875 -0.85664062 5.799375 -1.39453125 6.46875 C-3 8 -3 8 -6 8 C-6 7.01 -6 6.02 -6 5 C-3.1875 2.25 -3.1875 2.25 0 0 Z " fill="#000000" transform="translate(581,620)"/>
<path d="M0 0 C-0.125 1.75 -0.125 1.75 -1 4 C-6.22222222 8 -6.22222222 8 -9 8 C-8.66410006 4.86493389 -7.97334828 3.974751 -5.625 1.75 C-3 0 -3 0 0 0 Z " fill="#000000" transform="translate(357,615)"/>
<path d="M0 0 C0.99 0 1.98 0 3 0 C3.33 3.63 3.66 7.26 4 11 C3.01 11 2.02 11 1 11 C0.67 7.37 0.34 3.74 0 0 Z " fill="#000000" transform="translate(96,561)"/>
<path d="M0 0 C3.9492568 0.55105909 7.34920174 1.38935371 11 3 C10.67 3.99 10.34 4.98 10 6 C6.7 5.01 3.4 4.02 0 3 C0 2.01 0 1.02 0 0 Z " fill="#000000" transform="translate(344,529)"/>
<path d="M0 0 C0.99 0.33 1.98 0.66 3 1 C1.03681826 4.53372712 -1.04070881 7.24479785 -4 10 C-4.66 9.34 -5.32 8.68 -6 8 C-4.02 5.36 -2.04 2.72 0 0 Z " fill="#000000" transform="translate(452,518)"/>
<path d="M0 0 C0.99 0.33 1.98 0.66 3 1 C1.76067171 4.43198603 0.49698489 7.30325632 -2 10 C-2.99 10 -3.98 10 -5 10 C-3.66511872 6.40608886 -2.03977277 3.24509304 0 0 Z " fill="#000000" transform="translate(475,486)"/>
<path d="M0 0 C0.99 0 1.98 0 3 0 C2.34 3.63 1.68 7.26 1 11 C0.01 11 -0.98 11 -2 11 C-1.85892253 9.54119891 -1.71197585 8.08296449 -1.5625 6.625 C-1.48128906 5.81289063 -1.40007812 5.00078125 -1.31640625 4.1640625 C-1 2 -1 2 0 0 Z " fill="#000000" transform="translate(101,460)"/>
<path d="M0 0 C0.99 0.33 1.98 0.66 3 1 C1.94124926 4.40312738 0.99097846 7.01353231 -1 10 C-1.99 10 -2.98 10 -4 10 C-2.8905928 6.51329166 -1.73662334 3.22515763 0 0 Z " fill="#000000" transform="translate(505,436)"/>
<path d="M0 0 C0.99 0 1.98 0 3 0 C2.43454163 3.95820859 1.19097652 6.6659053 -1 10 C-1.99 9.67 -2.98 9.34 -4 9 C-2.68 6.03 -1.36 3.06 0 0 Z " fill="#000000" transform="translate(514,419)"/>
<path d="M0 0 C0.99 0.33 1.98 0.66 3 1 C2.01 4.3 1.02 7.6 0 11 C-0.99 11 -1.98 11 -3 11 C-2.69078116 9.54096742 -2.37751201 8.08279278 -2.0625 6.625 C-1.88847656 5.81289063 -1.71445313 5.00078125 -1.53515625 4.1640625 C-1 2 -1 2 0 0 Z " fill="#000000" transform="translate(116,401)"/>
<path d="M0 0 C0.99 0 1.98 0 3 0 C2.32829194 3.8063457 1.27253436 7.35206816 0 11 C-0.99 10.67 -1.98 10.34 -3 10 C-2.01 6.7 -1.02 3.4 0 0 Z " fill="#000000" transform="translate(122,382)"/>
<path d="M0 0 C0.99 0.33 1.98 0.66 3 1 C2.01 3.97 1.02 6.94 0 10 C-1.32 10 -2.64 10 -4 10 C-2.68 6.7 -1.36 3.4 0 0 Z " fill="#000000" transform="translate(160,288)"/>
<path d="M0 0 C0.99 0 1.98 0 3 0 C2.34 3.63 1.68 7.26 1 11 C0.01 11 -0.98 11 -2 11 C-1.85892253 9.54119891 -1.71197585 8.08296449 -1.5625 6.625 C-1.48128906 5.81289062 -1.40007812 5.00078125 -1.31640625 4.1640625 C-1 2 -1 2 0 0 Z " fill="#000000" transform="translate(365,230)"/>
<path d="M0 0 C0.99 0 1.98 0 3 0 C2.43454163 3.95820859 1.19097652 6.6659053 -1 10 C-1.99 9.67 -2.98 9.34 -4 9 C-2.68 6.03 -1.36 3.06 0 0 Z " fill="#000000" transform="translate(388,176)"/>
<path d="M0 0 C0.66 0.33 1.32 0.66 2 1 C1.38545304 4.99455527 -0.70646737 7.74466336 -3 11 C-3.66 10.67 -4.32 10.34 -5 10 C-4.38545304 6.00544473 -2.29353263 3.25533664 0 0 Z " fill="#000000" transform="translate(239,146)"/>
<path d="M0 0 C0.99 0 1.98 0 3 0 C1.66511872 3.59391114 0.03977277 6.75490696 -2 10 C-2.99 9.34 -3.98 8.68 -5 8 C-4.24266726 6.6589523 -3.46867264 5.32730219 -2.6875 4 C-2.25824219 3.2575 -1.82898438 2.515 -1.38671875 1.75 C-0.70029297 0.88375 -0.70029297 0.88375 0 0 Z " fill="#000000" transform="translate(408,142)"/>
<path d="M0 0 C0.99 0.66 1.98 1.32 3 2 C2.24266726 3.3410477 1.46867264 4.67269781 0.6875 6 C0.25824219 6.7425 -0.17101562 7.485 -0.61328125 8.25 C-1.07089844 8.8275 -1.52851563 9.405 -2 10 C-2.99 10 -3.98 10 -5 10 C-4.38545304 6.00544473 -2.29353263 3.25533664 0 0 Z " fill="#000000" transform="translate(419,125)"/>
<path d="M0 0 C-1.52708963 3.43595166 -3.59927045 6.11912454 -6 9 C-6.99 8.67 -7.98 8.34 -9 8 C-4.45945946 0 -4.45945946 0 0 0 Z " fill="#000000" transform="translate(446,95)"/>
<path d="M0 0 C-0.125 1.75 -0.125 1.75 -1 4 C-6.22222222 8 -6.22222222 8 -9 8 C-8.875 6.25 -8.875 6.25 -8 4 C-2.77777778 0 -2.77777778 0 0 0 Z " fill="#000000" transform="translate(475,69)"/>
<path d="M0 0 C0.66 0.33 1.32 0.66 2 1 C1.67 1.99 1.34 2.98 1 4 C-1.06640625 4.94921875 -1.06640625 4.94921875 -3.5625 5.6875 C-4.38878906 5.93886719 -5.21507812 6.19023438 -6.06640625 6.44921875 C-6.70449219 6.63097656 -7.34257813 6.81273437 -8 7 C-8 6.01 -8 5.02 -8 4 C-6.71349294 3.30289269 -5.42059335 2.61757124 -4.125 1.9375 C-3.40570312 1.55464844 -2.68640625 1.17179688 -1.9453125 0.77734375 C-1.30335938 0.52082031 -0.66140625 0.26429688 0 0 Z " fill="#000000" transform="translate(534,654)"/>
<path d="M0 0 C0.66 0.33 1.32 0.66 2 1 C1 4 1 4 -0.84765625 5.16796875 C-1.57855469 5.50441406 -2.30945313 5.84085938 -3.0625 6.1875 C-3.79597656 6.53167969 -4.52945313 6.87585938 -5.28515625 7.23046875 C-6.13400391 7.61138672 -6.13400391 7.61138672 -7 8 C-7.33 7.01 -7.66 6.02 -8 5 C-6.71475739 4.13619741 -5.42157581 3.28419631 -4.125 2.4375 C-3.04605469 1.72400391 -3.04605469 1.72400391 -1.9453125 0.99609375 C-1.30335938 0.66738281 -0.66140625 0.33867188 0 0 Z " fill="#000000" transform="translate(551,644)"/>
<path d="M0 0 C0.99 0.33 1.98 0.66 3 1 C0.19195732 3.96404505 -2.18315774 6.44499019 -6 8 C-6.33 7.01 -6.66 6.02 -7 5 C-5.90554162 4.13342884 -4.79902219 3.28207276 -3.6875 2.4375 C-3.07261719 1.96183594 -2.45773437 1.48617187 -1.82421875 0.99609375 C-1.22222656 0.66738281 -0.62023437 0.33867188 0 0 Z " fill="#000000" transform="translate(566,633)"/>
<path d="M0 0 C0.5775 0.226875 1.155 0.45375 1.75 0.6875 C-1.42320782 4.22336014 -3.41743695 6.27328031 -8.25 6.6875 C-6.65594781 2.8352072 -4.57967475 -0.63606594 0 0 Z " fill="#000000" transform="translate(340.25,627.3125)"/>
<path d="M0 0 C0.99 0.33 1.98 0.66 3 1 C0.19195732 3.96404505 -2.18315774 6.44499019 -6 8 C-6.33 7.01 -6.66 6.02 -7 5 C-5.90554162 4.13342884 -4.79902219 3.28207276 -3.6875 2.4375 C-3.07261719 1.96183594 -2.45773437 1.48617187 -1.82421875 0.99609375 C-1.22222656 0.66738281 -0.62023437 0.33867188 0 0 Z " fill="#000000" transform="translate(370,603)"/>
<path d="M0 0 C4.20626034 1.50223584 5.73900021 4.28550034 8 8 C4 8 4 8 2.515625 6.6875 C1.34375 5.125 0.171875 3.5625 -1 2 C-0.67 1.34 -0.34 0.68 0 0 Z " fill="#000000" transform="translate(420,594)"/>
<path d="M0 0 C0.99 0.33 1.98 0.66 3 1 C0.34345343 4.73884332 -1.58110387 6.64978174 -6 8 C-6 7.01 -6 6.02 -6 5 C-3.1875 2.25 -3.1875 2.25 0 0 Z " fill="#000000" transform="translate(385,590)"/>
<path d="M0 0 C3.78717347 1.48781815 5.77407001 3.61988409 8 7 C7.67 7.99 7.34 8.98 7 10 C4.66666667 7.66666667 2.33333333 5.33333333 0 3 C0 2.01 0 1.02 0 0 Z " fill="#000000" transform="translate(407,578)"/>
<path d="M0 0 C0.66 0.33 1.32 0.66 2 1 C0.55746343 4.36591866 -1.33264727 6.51047079 -4 9 C-4.99 8.67 -5.98 8.34 -7 8 C-5.61918777 3.8575633 -3.40174442 2.67796901 0 0 Z " fill="#000000" transform="translate(400,576)"/>
<path d="M0 0 C0.66 0.33 1.32 0.66 2 1 C0.4169423 5.2742558 -2.50568404 7.26531794 -6 10 C-6 6 -6 6 -4.6875 4.296875 C-4.130625 3.78640625 -3.57375 3.2759375 -3 2.75 C-2.1646875 1.96882812 -2.1646875 1.96882812 -1.3125 1.171875 C-0.879375 0.78515625 -0.44625 0.3984375 0 0 Z " fill="#000000" transform="translate(414,562)"/>
<path d="M0 0 C3.36591866 1.44253657 5.51047079 3.33264727 8 6 C7.67 6.99 7.34 7.98 7 9 C3.65001479 7.88333826 3.20659778 7.25305075 1.3125 4.4375 C0.87550781 3.79683594 0.43851562 3.15617188 -0.01171875 2.49609375 C-0.50091797 1.75552734 -0.50091797 1.75552734 -1 1 C-0.67 0.67 -0.34 0.34 0 0 Z " fill="#000000" transform="translate(394,563)"/>
<path d="M0 0 C4.24846075 0.47205119 6.26819288 2.88877522 9 6 C9 6.66 9 7.32 9 8 C5.12793601 7.42636089 2.81534937 5.65894107 0 3 C0 2.01 0 1.02 0 0 Z " fill="#000000" transform="translate(379,549)"/>
<path d="M0 0 C0.99 0 1.98 0 3 0 C3 3.63 3 7.26 3 11 C2.01 10.67 1.02 10.34 0 10 C0 6.7 0 3.4 0 0 Z " fill="#000000" transform="translate(94,541)"/>
<path d="M0 0 C3.45925163 1.2491742 6.14693203 2.67527795 9 5 C8.67 5.99 8.34 6.98 8 8 C5.03 6.35 2.06 4.7 -1 3 C-0.67 2.01 -0.34 1.02 0 0 Z " fill="#000000" transform="translate(363,537)"/>
<path d="M0 0 C0.66 0.33 1.32 0.66 2 1 C0.64978174 5.41889613 -1.26115668 7.34345343 -5 10 C-5 4.69520066 -3.4637943 3.81017373 0 0 Z " fill="#000000" transform="translate(440,533)"/>
<path d="M0 0 C3.63 0.33 7.26 0.66 11 1 C11 1.99 11 2.98 11 4 C7.37 3.67 3.74 3.34 0 3 C0 2.01 0 1.02 0 0 Z " fill="#000000" transform="translate(304,521)"/>
<path d="M0 0 C0.99 0 1.98 0 3 0 C2.67 3.63 2.34 7.26 2 11 C1.01 11 0.02 11 -1 11 C-0.67 7.37 -0.34 3.74 0 0 Z " fill="#000000" transform="translate(97,480)"/>
<path d="M0 0 C0.99 0.33 1.98 0.66 3 1 C0.525 5.455 0.525 5.455 -2 10 C-2.99 9.67 -3.98 9.34 -5 9 C-3.7508258 5.54074837 -2.32472205 2.85306797 0 0 Z " fill="#000000" transform="translate(486,470)"/>
<path d="M0 0 C0.99 0.33 1.98 0.66 3 1 C1.68 3.64 0.36 6.28 -1 9 C-2.32 9 -3.64 9 -5 9 C-3.35 6.03 -1.7 3.06 0 0 Z " fill="#000000" transform="translate(496,453)"/>
<path d="M0 0 C0.99 0.33 1.98 0.66 3 1 C2.34 4.3 1.68 7.6 1 11 C0.01 11 -0.98 11 -2 11 C-1.34 7.37 -0.68 3.74 0 0 Z " fill="#000000" transform="translate(105,440)"/>
<path d="M0 0 C0.99 0 1.98 0 3 0 C2.34 3.3 1.68 6.6 1 10 C0.01 10 -0.98 10 -2 10 C-1.125 2.25 -1.125 2.25 0 0 Z " fill="#000000" transform="translate(110,421)"/>
<path d="M0 0 C0.99 0.33 1.98 0.66 3 1 C1.68 3.97 0.36 6.94 -1 10 C-1.99 10 -2.98 10 -4 10 C-3.52449439 8.51965236 -3.04448784 7.04074979 -2.5625 5.5625 C-2.29566406 4.73878906 -2.02882813 3.91507812 -1.75390625 3.06640625 C-1 1 -1 1 0 0 Z " fill="#000000" transform="translate(523,401)"/>
<path d="M0 0 C0.99 0.33 1.98 0.66 3 1 C1.68 4.3 0.36 7.6 -1 11 C-1.66 10.67 -2.32 10.34 -3 10 C-2.69201674 8.51988629 -2.378482 7.04092675 -2.0625 5.5625 C-1.88847656 4.73878906 -1.71445313 3.91507812 -1.53515625 3.06640625 C-1 1 -1 1 0 0 Z " fill="#000000" transform="translate(129,363)"/>
<path d="M0 0 C0.66 0 1.32 0 2 0 C1.53199289 4.05606165 1.12046792 7.46588679 -1 11 C-1.99 10.34 -2.98 9.68 -4 9 C-2.68 6.03 -1.36 3.06 0 0 Z " fill="#000000" transform="translate(545,346)"/>
<path d="M0 0 C0.99 0.33 1.98 0.66 3 1 C2.01 3.97 1.02 6.94 0 10 C-0.99 10 -1.98 10 -3 10 C-2.39009109 6.44219804 -1.4216319 3.3171411 0 0 Z " fill="#000000" transform="translate(136,344)"/>
<path d="M0 0 C0.99 0.66 1.98 1.32 3 2 C1.68 4.97 0.36 7.94 -1 11 C-1.99 10.67 -2.98 10.34 -4 10 C-2.68 6.7 -1.36 3.4 0 0 Z " fill="#000000" transform="translate(144,325)"/>
<path d="M0 0 C0.99 0 1.98 0 3 0 C1.8905928 3.48670834 0.73662334 6.77484237 -1 10 C-1.99 10 -2.98 10 -4 10 C-3.52449439 8.51965236 -3.04448784 7.04074979 -2.5625 5.5625 C-2.29566406 4.73878906 -2.02882812 3.91507812 -1.75390625 3.06640625 C-1 1 -1 1 0 0 Z " fill="#000000" transform="translate(152,307)"/>
<path d="M0 0 C0.99 0 1.98 0 3 0 C2.67 3.3 2.34 6.6 2 10 C1.01 10.33 0.02 10.66 -1 11 C-1.14285714 3.57142857 -1.14285714 3.57142857 0 0 Z " fill="#000000" transform="translate(573,232)"/>
<path d="M0 0 C0.99 0.33 1.98 0.66 3 1 C1.66511872 4.59391114 0.03977277 7.75490696 -2 11 C-2.66 10.67 -3.32 10.34 -4 10 C-3.29445932 6.33118845 -1.72264494 3.29549466 0 0 Z " fill="#000000" transform="translate(197,216)"/>
<path d="M0 0 C0.99 0.33 1.98 0.66 3 1 C2.01 4.3 1.02 7.6 0 11 C-0.99 10.67 -1.98 10.34 -3 10 C-2.01 6.7 -1.02 3.4 0 0 Z " fill="#000000" transform="translate(371,211)"/>
<path d="M0 0 C0.66 0.33 1.32 0.66 2 1 C1.43454163 4.95820859 0.19097652 7.6659053 -2 11 C-2.66 10.67 -3.32 10.34 -4 10 C-3.43454163 6.04179141 -2.19097652 3.3340947 0 0 Z " fill="#000000" transform="translate(380,193)"/>
<path d="M0 0 C0.99 0.33 1.98 0.66 3 1 C1.80100302 4.0831351 0.52299523 7.06279492 -1 10 C-1.99 10 -2.98 10 -4 10 C-3.43454163 6.04179141 -2.19097652 3.3340947 0 0 Z " fill="#000000" transform="translate(217,181)"/>
<path d="M0 0 C0.99 0.33 1.98 0.66 3 1 C0.525 5.455 0.525 5.455 -2 10 C-2.99 9.67 -3.98 9.34 -5 9 C-3.7508258 5.54074837 -2.32472205 2.85306797 0 0 Z " fill="#000000" transform="translate(228,164)"/>
<path d="M0 0 C0.99 0 1.98 0 3 0 C4.28317892 3.84953676 4.06643637 6.94738135 4 11 C3.01 11 2.02 11 1 11 C0.67 7.37 0.34 3.74 0 0 Z " fill="#000000" transform="translate(578,154)"/>
<path d="M0 0 C0.99 0.33 1.98 0.66 3 1 C1.02 3.97 -0.96 6.94 -3 10 C-3.66 9.67 -4.32 9.34 -5 9 C-3.7508258 5.54074837 -2.32472205 2.85306797 0 0 Z " fill="#000000" transform="translate(261,113)"/>
<path d="M0 0 C0.66 0.33 1.32 0.66 2 1 C0.7508258 4.45925163 -0.67527795 7.14693203 -3 10 C-3.99 9.67 -4.98 9.34 -6 9 C-2.25 2.25 -2.25 2.25 0 0 Z " fill="#000000" transform="translate(431,109)"/>
<path d="M0 0 C1.32 0 2.64 0 4 0 C4.99 2.97 5.98 5.94 7 9 C6.01 9.33 5.02 9.66 4 10 C2.68 6.7 1.36 3.4 0 0 Z " fill="#000000" transform="translate(562,98)"/>
<path d="M0 0 C0.66 0.33 1.32 0.66 2 1 C0.7508258 4.45925163 -0.67527795 7.14693203 -3 10 C-3.99 9.67 -4.98 9.34 -6 9 C-4.47291037 5.56404834 -2.40072955 2.88087546 0 0 Z " fill="#000000" transform="translate(285,80)"/>
<path d="M0 0 C3.53372712 1.96318174 6.24479785 4.04070881 9 7 C8.01 7.66 7.02 8.32 6 9 C3.69 7.02 1.38 5.04 -1 3 C-0.67 2.01 -0.34 1.02 0 0 Z " fill="#000000" transform="translate(539,67)"/>
<path d="M0 0 C-0.33 0.99 -0.66 1.98 -1 3 C-3.06640625 3.94921875 -3.06640625 3.94921875 -5.5625 4.6875 C-6.38878906 4.93886719 -7.21507812 5.19023438 -8.06640625 5.44921875 C-8.70449219 5.63097656 -9.34257812 5.81273438 -10 6 C-10.33 5.01 -10.66 4.02 -11 3 C-4.5 0 -4.5 0 0 0 Z " fill="#000000" transform="translate(493,61)"/>
<path d="M0 0 C0.99 0 1.98 0 3 0 C6 6.625 6 6.625 6 10 C3 9 3 9 1.3125 6.125 C0 3 0 3 0 0 Z " fill="#000000" transform="translate(106,600)"/>
<path d="M0 0 C0.66 0.33 1.32 0.66 2 1 C2.6328125 3.28515625 2.6328125 3.28515625 3.125 6.0625 C3.29257813 6.98160156 3.46015625 7.90070312 3.6328125 8.84765625 C3.75398438 9.55792969 3.87515625 10.26820313 4 11 C3.01 11 2.02 11 1 11 C-0.62950412 6.87831311 -1.26264601 4.29299643 0 0 Z " fill="#000000" transform="translate(101,580)"/>
<path d="M0 0 C3.3 0.33 6.6 0.66 10 1 C10.33 1.99 10.66 2.98 11 4 C7.7 3.67 4.4 3.34 1 3 C0.67 2.01 0.34 1.02 0 0 Z " fill="#000000" transform="translate(324,524)"/>
<path d="M0 0 C0.99 0 1.98 0 3 0 C2.42647107 3.87132028 0.51295648 6.08172796 -2 9 C-2.99 8.67 -3.98 8.34 -5 8 C-4.24266726 6.6589523 -3.46867264 5.32730219 -2.6875 4 C-2.25824219 3.2575 -1.82898438 2.515 -1.38671875 1.75 C-0.70029297 0.88375 -0.70029297 0.88375 0 0 Z " fill="#000000" transform="translate(463,503)"/>
<path d="M0 0 C0.99 0 1.98 0 3 0 C2.67 3.63 2.34 7.26 2 11 C1.01 11 0.02 11 -1 11 C-0.67 7.37 -0.34 3.74 0 0 Z " fill="#000000" transform="translate(95,500)"/>
<path d="M0 0 C0.66 0 1.32 0 2 0 C1.49287967 3.71888239 0.88391785 6.73454239 -1 10 C-1.99 10 -2.98 10 -4 10 C-3.52449439 8.51965236 -3.04448784 7.04074979 -2.5625 5.5625 C-2.29566406 4.73878906 -2.02882813 3.91507812 -1.75390625 3.06640625 C-1 1 -1 1 0 0 Z " fill="#000000" transform="translate(531,383)"/>
<path d="M0 0 C0.66 0.33 1.32 0.66 2 1 C1.54177532 4.46941546 1.10868317 7.67395049 0 11 C-0.99 11 -1.98 11 -3 11 C-2.69217504 9.35328588 -2.37860766 7.70764424 -2.0625 6.0625 C-1.88847656 5.14597656 -1.71445312 4.22945313 -1.53515625 3.28515625 C-1 1 -1 1 0 0 Z " fill="#000000" transform="translate(551,327)"/>
<path d="M0 0 C3.11198065 1.49836105 6.0534615 3.19933758 9 5 C8.67 5.99 8.34 6.98 8 8 C3.9630133 6.20578369 1.35519526 4.79448125 -1 1 C-0.67 0.67 -0.34 0.34 0 0 Z " fill="#000000" transform="translate(375,305)"/>
<path d="M0 0 C0.99 0 1.98 0 3 0 C4.17571451 3.67410785 4.07366746 7.16929183 4 11 C3.01 10.67 2.02 10.34 1 10 C0.67 6.7 0.34 3.4 0 0 Z " fill="#000000" transform="translate(360,269)"/>
<path d="M0 0 C0.99 0.66 1.98 1.32 3 2 C2.34 4.97 1.68 7.94 1 11 C0.01 11 -0.98 11 -2 11 C-1.85892253 9.54119891 -1.71197585 8.08296449 -1.5625 6.625 C-1.48128906 5.81289063 -1.40007813 5.00078125 -1.31640625 4.1640625 C-1 2 -1 2 0 0 Z " fill="#000000" transform="translate(570,251)"/>
<path d="M0 0 C0.66 0 1.32 0 2 0 C2.0270043 1.45823212 2.04639787 2.91660675 2.0625 4.375 C2.07410156 5.18710938 2.08570313 5.99921875 2.09765625 6.8359375 C2 9 2 9 1 11 C0.01 10.67 -0.98 10.34 -2 10 C-1.85950482 8.52031676 -1.71245174 7.04125484 -1.5625 5.5625 C-1.48128906 4.73878906 -1.40007813 3.91507813 -1.31640625 3.06640625 C-1 1 -1 1 0 0 Z " fill="#000000" transform="translate(579,193)"/>
<path d="M0 0 C0.99 0 1.98 0 3 0 C1.66511872 3.59391114 0.03977277 6.75490696 -2 10 C-2.66 9.67 -3.32 9.34 -4 9 C-3.3543999 5.51375944 -2.07639763 2.87501211 0 0 Z " fill="#000000" transform="translate(398,159)"/>
<path d="M0 0 C1.32 0.33 2.64 0.66 4 1 C4.33 3.97 4.66 6.94 5 10 C4.01 10 3.02 10 2 10 C1.34 6.7 0.68 3.4 0 0 Z " fill="#000000" transform="translate(575,135)"/>
<path d="M0 0 C0.99 0 1.98 0 3 0 C3.99 3.3 4.98 6.6 6 10 C4.68 9.67 3.36 9.34 2 9 C1.34 6.03 0.68 3.06 0 0 Z " fill="#000000" transform="translate(570,116)"/>
<path d="M0 0 C0.66 0.33 1.32 0.66 2 1 C0.7508258 4.45925163 -0.67527795 7.14693203 -3 10 C-3.99 9.67 -4.98 9.34 -6 9 C-4.02 6.03 -2.04 3.06 0 0 Z " fill="#000000" transform="translate(273,96)"/>
<path d="M0 0 C4.455 0.99 4.455 0.99 9 2 C9.33 3.32 9.66 4.64 10 6 C6.7 5.01 3.4 4.02 0 3 C0 2.01 0 1.02 0 0 Z " fill="#000000" transform="translate(521,59)"/>
<path d="M0 0 C3.3 0 6.6 0 10 0 C10 0.99 10 1.98 10 3 C6.7 3 3.4 3 0 3 C0 2.01 0 1.02 0 0 Z " fill="#000000" transform="translate(488,666)"/>
<path d="M0 0 C0.99 0.33 1.98 0.66 3 1 C2.07347299 2.17539996 1.13336613 3.34010577 0.1875 4.5 C-0.33457031 5.1496875 -0.85664062 5.799375 -1.39453125 6.46875 C-3 8 -3 8 -6 8 C-4.55746343 4.63408134 -2.66735273 2.48952921 0 0 Z " fill="#000000" transform="translate(595,606)"/>
<path d="M0 0 C0.99 0.33 1.98 0.66 3 1 C1.02 5.455 1.02 5.455 -1 10 C-1.66 10 -2.32 10 -3 10 C-2.49287967 6.28111761 -1.88391785 3.26545761 0 0 Z " fill="#000000" transform="translate(538,365)"/>
<path d="M0 0 C0.33 0.99 0.66 1.98 1 3 C-2.63 3.33 -6.26 3.66 -10 4 C-10 3.01 -10 2.02 -10 1 C-6.61981469 -0.04005702 -3.5219721 -0.08004482 0 0 Z " fill="#000000" transform="translate(422,314)"/>
<path d="M0 0 C3.3 0.33 6.6 0.66 10 1 C10 1.99 10 2.98 10 4 C6.7 3.67 3.4 3.34 0 3 C0 2.01 0 1.02 0 0 Z " fill="#000000" transform="translate(393,313)"/>
<path d="M0 0 C0.99 0 1.98 0 3 0 C2.34 3.3 1.68 6.6 1 10 C0.01 10 -0.98 10 -2 10 C-1.54177532 6.53058454 -1.10868317 3.32604951 0 0 Z " fill="#000000" transform="translate(556,309)"/>
<path d="M0 0 C0.99 0 1.98 0 3 0 C2.34 3.3 1.68 6.6 1 10 C0.01 10 -0.98 10 -2 10 C-1.34 6.7 -0.68 3.4 0 0 Z " fill="#000000" transform="translate(561,290)"/>
<path d="M0 0 C0.66 0.33 1.32 0.66 2 1 C1.67 4.3 1.34 7.6 1 11 C0.01 11 -0.98 11 -2 11 C-1.85892253 9.54119891 -1.71197585 8.08296449 -1.5625 6.625 C-1.48128906 5.81289063 -1.40007813 5.00078125 -1.31640625 4.1640625 C-1 2 -1 2 0 0 Z " fill="#000000" transform="translate(566,270)"/>
<path d="M0 0 C0.99 0.33 1.98 0.66 3 1 C1.35 4.3 -0.3 7.6 -2 11 C-2.66 10.67 -3.32 10.34 -4 10 C-2.8905928 6.51329166 -1.73662334 3.22515763 0 0 Z " fill="#000000" transform="translate(169,270)"/>
<path d="M0 0 C0.99 0.33 1.98 0.66 3 1 C2.67 4.3 2.34 7.6 2 11 C1.01 11 0.02 11 -1 11 C-0.67 7.37 -0.34 3.74 0 0 Z " fill="#000000" transform="translate(361,249)"/>
<path d="M0 0 C0.99 0 1.98 0 3 0 C2.67 3.3 2.34 6.6 2 10 C1.01 10 0.02 10 -1 10 C-0.67 6.7 -0.34 3.4 0 0 Z " fill="#000000" transform="translate(576,213)"/>
<path d="M0 0 C0.99 0 1.98 0 3 0 C3 3.3 3 6.6 3 10 C2.01 10 1.02 10 0 10 C0 6.7 0 3.4 0 0 Z " fill="#000000" transform="translate(579,174)"/>
<path d="M0 0 C0.99 0.33 1.98 0.66 3 1 C2.07347299 2.17539996 1.13336613 3.34010577 0.1875 4.5 C-0.33457031 5.1496875 -0.85664063 5.799375 -1.39453125 6.46875 C-3 8 -3 8 -6 8 C-4.55746343 4.63408134 -2.66735273 2.48952921 0 0 Z " fill="#000000" transform="translate(457,81)"/>
<path d="M0 0 C0.99 0.33 1.98 0.66 3 1 C1.68 3.97 0.36 6.94 -1 10 C-1.99 10 -2.98 10 -4 10 C-2.8905928 6.51329166 -1.73662334 3.22515763 0 0 Z " fill="#000000" transform="translate(178,252)"/>
<path d="M0 0 C3.63 0 7.26 0 11 0 C11 0.66 11 1.32 11 2 C7.37 2.33 3.74 2.66 0 3 C0 2.01 0 1.02 0 0 Z " fill="#000000" transform="translate(501,58)"/>
<path d="M0 0 C0.99 0.33 1.98 0.66 3 1 C2.67 4.3 2.34 7.6 2 11 C1.34 11 0.68 11 0 11 C0 7.37 0 3.74 0 0 Z " fill="#000000" transform="translate(94,520)"/>
<path d="M0 0 C0.99 0 1.98 0 3 0 C2.6875 1.875 2.6875 1.875 2 4 C1.01 4.66 0.02 5.32 -1 6 C-1.33 5.01 -1.66 4.02 -2 3 C-1.34 2.01 -0.68 1.02 0 0 Z " fill="#000000" transform="translate(617,580)"/>
<path d="M0 0 C0.99 0.33 1.98 0.66 3 1 C1.515 3.475 1.515 3.475 0 6 C-0.99 5.67 -1.98 5.34 -3 5 C-2.01 3.35 -1.02 1.7 0 0 Z " fill="#000000" transform="translate(294,68)"/>
<path d="M0 0 C1.98 0 3.96 0 6 0 C6 0.99 6 1.98 6 3 C4.02 3 2.04 3 0 3 C0 2.01 0 1.02 0 0 Z " fill="#000000" transform="translate(289,521)"/>
<path d="M0 0 C0.99 0.99 1.98 1.98 3 3 C0 5 0 5 -2.1875 4.625 C-2.785625 4.41875 -3.38375 4.2125 -4 4 C-2.68 2.68 -1.36 1.36 0 0 Z " fill="#000000" transform="translate(434,308)"/>
<path d="M0 0 C0.99 0.33 1.98 0.66 3 1 C2.67 1.99 2.34 2.98 2 4 C1.01 3.01 0.02 2.02 -1 1 C-0.67 0.67 -0.34 0.34 0 0 Z " fill="#000000" transform="translate(547,563)"/>
</svg>
