<svg width="770" height="815" viewBox="0 0 770 815" fill="none" xmlns="http://www.w3.org/2000/svg">
<path d="M164.863 3.33685C213.253 0.157901 228.883 20.2618 230.649 30.7112L223.143 161.843L214.755 406.446C216.373 383.781 220.583 332.535 224.468 308.87C229.325 279.288 247.427 218.799 255.816 194.957C264.205 171.115 290.255 125.639 307.032 104.887C323.81 84.1355 340.147 72.2145 367.962 56.7612C395.778 41.308 443.462 45.2817 458.916 47.9308C474.369 50.5799 509.249 60.7349 535.74 86.7847C562.232 112.834 567.53 130.054 577.243 155.662C585.014 176.149 582.836 230.426 580.776 255.004L569.296 452.364C567.088 508.143 571.327 619.612 605.942 619.259C649.211 618.818 678.793 519.917 684.974 504.464C689.919 492.101 706.167 430.435 713.673 401.148C713.673 390.551 718.883 369.8 739.723 371.566C760.563 373.332 766.362 397.321 766.656 409.095C767.686 404.68 766.921 409.183 755.618 462.519C744.315 515.855 722.945 567.748 713.673 587.028C705.432 606.455 681.266 649.282 650.536 665.177C612.124 685.046 594.904 686.37 552.96 679.747C511.015 673.125 486.732 650.607 460.24 605.13C439.047 568.749 429.334 511.675 427.126 487.686C426.096 451.334 425.448 369.535 431.1 333.153C438.164 287.677 441.255 201.58 439.489 167.141C437.723 132.703 425.36 116.367 405.05 115.484C384.74 114.6 370.612 130.054 352.068 149.481C333.524 168.908 299.527 259.861 295.111 270.457C291.579 278.935 275.684 336.097 268.179 363.618C256.258 396.291 240.804 498.282 235.948 525.657C232.062 547.556 227.853 607.191 226.234 634.271C221.525 643.543 201.95 661.998 161.331 661.645C110.556 661.204 103.933 629.414 98.193 608.221C92.4532 587.028 85.3889 507.996 82.2983 462.961C79.8257 426.932 77.7359 305.485 77 249.264L81.4152 135.793C81.7096 117.838 84.7708 73.8922 94.6608 41.7495C104.551 9.60677 145.583 2.74827 164.863 3.33685Z" stroke="black" stroke-width="5"/>
<path d="M357.619 287.455V302H355.858V289.301H355.773L352.222 291.659V289.869L355.858 287.455H357.619ZM362.193 302.114C361.843 302.114 361.542 301.988 361.291 301.737C361.04 301.486 360.915 301.186 360.915 300.835C360.915 300.485 361.04 300.184 361.291 299.933C361.542 299.682 361.843 299.557 362.193 299.557C362.544 299.557 362.844 299.682 363.095 299.933C363.346 300.184 363.472 300.485 363.472 300.835C363.472 301.067 363.412 301.28 363.294 301.474C363.18 301.669 363.027 301.825 362.832 301.943C362.643 302.057 362.43 302.114 362.193 302.114ZM366.451 302V300.722L371.252 295.466C371.816 294.85 372.28 294.315 372.644 293.861C373.009 293.402 373.279 292.971 373.454 292.568C373.634 292.161 373.724 291.735 373.724 291.29C373.724 290.778 373.601 290.336 373.354 289.962C373.113 289.588 372.781 289.299 372.36 289.095C371.939 288.892 371.465 288.79 370.94 288.79C370.381 288.79 369.893 288.906 369.477 289.138C369.065 289.365 368.745 289.685 368.518 290.097C368.295 290.509 368.184 290.991 368.184 291.545H366.508C366.508 290.693 366.704 289.945 367.097 289.301C367.49 288.657 368.025 288.155 368.702 287.795C369.384 287.436 370.149 287.256 370.996 287.256C371.849 287.256 372.604 287.436 373.262 287.795C373.92 288.155 374.436 288.641 374.81 289.251C375.184 289.862 375.371 290.542 375.371 291.29C375.371 291.825 375.274 292.348 375.08 292.859C374.891 293.366 374.559 293.932 374.086 294.557C373.617 295.177 372.966 295.935 372.133 296.83L368.866 300.324V300.438H375.627V302H366.451Z" fill="black"/>
<path d="M567.619 726.455V741H565.858V728.301H565.773L562.222 730.659V728.869L565.858 726.455H567.619ZM572.193 741.114C571.843 741.114 571.542 740.988 571.291 740.737C571.04 740.486 570.915 740.186 570.915 739.835C570.915 739.485 571.04 739.184 571.291 738.933C571.542 738.682 571.843 738.557 572.193 738.557C572.544 738.557 572.844 738.682 573.095 738.933C573.346 739.184 573.472 739.485 573.472 739.835C573.472 740.067 573.412 740.28 573.294 740.474C573.18 740.669 573.027 740.825 572.832 740.943C572.643 741.057 572.43 741.114 572.193 741.114ZM576.451 741V739.722L581.252 734.466C581.816 733.85 582.28 733.315 582.644 732.861C583.009 732.402 583.279 731.971 583.454 731.568C583.634 731.161 583.724 730.735 583.724 730.29C583.724 729.778 583.601 729.336 583.354 728.962C583.113 728.588 582.781 728.299 582.36 728.095C581.939 727.892 581.465 727.79 580.94 727.79C580.381 727.79 579.893 727.906 579.477 728.138C579.065 728.365 578.745 728.685 578.518 729.097C578.295 729.509 578.184 729.991 578.184 730.545H576.508C576.508 729.693 576.704 728.945 577.097 728.301C577.49 727.657 578.025 727.155 578.702 726.795C579.384 726.436 580.149 726.256 580.996 726.256C581.849 726.256 582.604 726.436 583.262 726.795C583.92 727.155 584.436 727.641 584.81 728.251C585.184 728.862 585.371 729.542 585.371 730.29C585.371 730.825 585.274 731.348 585.08 731.859C584.891 732.366 584.559 732.932 584.086 733.557C583.617 734.177 582.966 734.935 582.133 735.83L578.866 739.324V739.438H585.627V741H576.451Z" fill="black"/>
<path d="M6.61932 323.455V338H4.85795V325.301H4.77273L1.22159 327.659V325.869L4.85795 323.455H6.61932ZM11.1932 338.114C10.8428 338.114 10.5421 337.988 10.2912 337.737C10.0402 337.486 9.91477 337.186 9.91477 336.835C9.91477 336.485 10.0402 336.184 10.2912 335.933C10.5421 335.682 10.8428 335.557 11.1932 335.557C11.5436 335.557 11.8442 335.682 12.0952 335.933C12.3461 336.184 12.4716 336.485 12.4716 336.835C12.4716 337.067 12.4124 337.28 12.294 337.474C12.1804 337.669 12.0265 337.825 11.8324 337.943C11.643 338.057 11.4299 338.114 11.1932 338.114ZM18.8263 323.455V338H17.065V325.301H16.9798L13.4286 327.659V325.869L17.065 323.455H18.8263Z" fill="black"/>
<path d="M57.5356 484.886C58.0247 485.142 58.6292 484.954 58.8856 484.464L63.0651 476.494C63.3215 476.005 63.1329 475.4 62.6438 475.144C62.1547 474.887 61.5503 475.076 61.2938 475.565L57.5787 482.65L50.4937 478.935C50.0045 478.678 49.4001 478.867 49.1436 479.356C48.8872 479.845 49.0758 480.45 49.5649 480.706L57.5356 484.886ZM47.0035 146.911C43.4772 186.469 39.7467 250.788 40.0135 315.21C40.2802 379.594 44.5381 444.215 57.0454 484.298L58.9546 483.702C46.5464 443.937 42.2802 379.59 42.0135 315.202C41.747 250.851 45.4739 186.595 48.9956 147.089L47.0035 146.911Z" fill="black"/>
<path d="M149 51.5V630C231.5 473 282 115.5 376.5 81.5C451.5 54.5159 541.86 130 521 279.5C508.039 372.387 502.033 541.559 528.5 603C556.5 668 675.4 719.6 731 430" stroke="black" stroke-width="2" stroke-dasharray="10 10"/>
<path d="M341.619 795.455V810H339.858V797.301H339.773L336.222 799.659V797.869L339.858 795.455H341.619ZM346.193 810.114C345.843 810.114 345.542 809.988 345.291 809.737C345.04 809.486 344.915 809.186 344.915 808.835C344.915 808.485 345.04 808.184 345.291 807.933C345.542 807.682 345.843 807.557 346.193 807.557C346.544 807.557 346.844 807.682 347.095 807.933C347.346 808.184 347.472 808.485 347.472 808.835C347.472 809.067 347.412 809.28 347.294 809.474C347.18 809.669 347.027 809.825 346.832 809.943C346.643 810.057 346.43 810.114 346.193 810.114ZM354.819 810.199C353.881 810.199 353.046 810.038 352.312 809.716C351.583 809.394 351.003 808.946 350.572 808.374C350.146 807.796 349.914 807.126 349.876 806.364H351.665C351.703 806.832 351.864 807.237 352.148 807.578C352.433 807.914 352.804 808.175 353.263 808.359C353.723 808.544 354.232 808.636 354.79 808.636C355.415 808.636 355.969 808.527 356.452 808.31C356.935 808.092 357.314 807.789 357.589 807.401C357.863 807.012 358.001 806.562 358.001 806.051C358.001 805.516 357.868 805.045 357.603 804.638C357.338 804.226 356.95 803.904 356.438 803.672C355.927 803.44 355.302 803.324 354.563 803.324H353.398V801.761H354.563C355.141 801.761 355.647 801.657 356.083 801.449C356.523 801.241 356.867 800.947 357.113 800.568C357.364 800.189 357.489 799.744 357.489 799.233C357.489 798.741 357.38 798.312 357.163 797.947C356.945 797.583 356.637 797.299 356.239 797.095C355.846 796.892 355.382 796.79 354.847 796.79C354.345 796.79 353.872 796.882 353.427 797.067C352.987 797.247 352.627 797.509 352.347 797.855C352.068 798.196 351.916 798.608 351.893 799.091H350.188C350.217 798.329 350.446 797.661 350.877 797.088C351.308 796.51 351.871 796.061 352.567 795.739C353.268 795.417 354.038 795.256 354.876 795.256C355.775 795.256 356.547 795.438 357.191 795.803C357.835 796.162 358.33 796.638 358.675 797.23C359.021 797.822 359.194 798.461 359.194 799.148C359.194 799.967 358.978 800.665 358.548 801.243C358.121 801.821 357.541 802.221 356.808 802.443V802.557C357.726 802.708 358.443 803.099 358.96 803.729C359.476 804.354 359.734 805.128 359.734 806.051C359.734 806.842 359.518 807.552 359.087 808.182C358.661 808.807 358.079 809.299 357.34 809.659C356.602 810.019 355.761 810.199 354.819 810.199Z" fill="black"/>
<path d="M399.884 307.503C400.438 308.119 401.386 308.17 402.002 307.616L412.045 298.594C412.661 298.041 412.712 297.092 412.158 296.476C411.605 295.86 410.656 295.809 410.04 296.363L401.113 304.382L393.094 295.455C392.54 294.839 391.592 294.788 390.976 295.342C390.359 295.896 390.309 296.844 390.862 297.46L399.884 307.503ZM326.413 297.505C333.901 276.537 343.081 253.61 352.456 234.283C357.144 224.619 361.87 215.878 366.446 208.742C371.039 201.58 375.417 196.137 379.385 192.973C383.378 189.79 386.508 189.226 389.025 190.706C390.377 191.5 391.75 192.978 393.06 195.393C394.367 197.804 395.567 201.066 396.612 205.306C400.81 222.327 402.302 254.119 399.502 306.42L402.498 306.581C405.298 254.282 403.84 222.086 399.525 204.588C398.443 200.199 397.167 196.673 395.697 193.963C394.23 191.259 392.525 189.283 390.545 188.119C386.398 185.681 381.847 187.173 377.515 190.628C373.158 194.102 368.567 199.877 363.921 207.122C359.258 214.393 354.475 223.247 349.757 232.974C340.319 252.429 331.099 275.464 323.587 296.496L326.413 297.505Z" fill="black"/>
<path d="M707.999 651.558C708.031 650.731 707.386 650.033 706.558 650.001L693.069 649.475C692.241 649.443 691.544 650.088 691.511 650.915C691.479 651.743 692.124 652.44 692.952 652.473L704.943 652.94L704.475 664.931C704.443 665.759 705.088 666.456 705.915 666.489C706.743 666.521 707.44 665.876 707.473 665.048L707.999 651.558ZM428.18 601.713C446.694 635.976 482.867 679.721 531.298 699.402C555.545 709.256 582.862 713.073 612.523 706.636C642.174 700.201 674.067 683.541 707.519 652.601L705.481 650.399C672.333 681.059 640.905 697.407 611.887 703.704C582.877 710 556.176 706.274 532.427 696.623C484.866 677.295 449.139 634.191 430.82 600.287L428.18 601.713Z" fill="black"/>
</svg>
