<?xml version="1.0" encoding="UTF-8"?>
<svg version="1.1" xmlns="http://www.w3.org/2000/svg" width="697" height="710">
<path d="M0 0 C2.34246765 -0.00219652 4.68446958 -0.02049131 7.02685547 -0.03930664 C20.40297341 -0.09068973 34.32143813 0.22392158 47.03076172 4.81030273 C47.77068359 5.06827637 48.51060547 5.32625 49.27294922 5.59204102 C62.81706991 10.53121584 75.02963816 18.59691942 84.84326172 29.18530273 C85.43494141 29.78342773 86.02662109 30.38155273 86.63623047 30.99780273 C92.68393916 37.36134921 96.80338716 44.47044551 100.84326172 52.18530273 C101.32923828 53.10311523 101.81521484 54.02092773 102.31591797 54.96655273 C115.48206185 81.70147487 111.66172515 113.41059248 102.47216797 140.79467773 C96.59000646 157.15810467 86.65337891 169.74794108 74.84326172 182.18530273 C74.27220703 182.83241211 73.70115234 183.47952148 73.11279297 184.14624023 C58.58378961 200.05717965 35.78275583 207.8225698 15.84326172 214.18530273 C15.09995605 214.4237793 14.35665039 214.66225586 13.59082031 214.90795898 C4.42955851 217.78950617 -4.82579776 219.83370612 -14.28173828 221.49780273 C-15.22243164 221.66948975 -16.163125 221.84117676 -17.13232422 222.01806641 C-25.491108 223.39326281 -33.7152897 223.34776686 -42.15673828 223.18530273 C-42.13168213 223.94696243 -42.10662598 224.70862213 -42.08081055 225.49336243 C-41.83967032 232.85507701 -41.60423804 240.2169459 -41.37443542 247.57902241 C-41.2562571 251.35925975 -41.13625051 255.13941585 -41.01123047 258.91943359 C-40.28232409 281.01517881 -40.02417835 303.07774714 -40.15673828 325.18530273 C-39.03222763 325.17419968 -37.90771698 325.16309662 -36.74913025 325.1516571 C-26.14106024 325.0502084 -15.53308893 324.9753023 -4.92464352 324.92624187 C0.52904066 324.90017115 5.98233258 324.86481866 11.43579102 324.80810547 C16.70075258 324.75369648 21.96533734 324.7238632 27.2305584 324.71091652 C29.2372067 324.70169265 31.24383486 324.68368033 33.25032234 324.65665245 C36.06568759 324.62024412 38.87950479 324.61536232 41.69506836 324.61767578 C42.52081863 324.5996994 43.34656891 324.58172302 44.19734192 324.5632019 C50.04198794 324.61501614 53.56924644 326.18669097 57.84326172 330.18530273 C64.77213742 338.80072019 66.93475243 348.32709647 65.84326172 359.18530273 C64.09991967 368.89653695 60.37978341 375.76072686 52.84326172 382.18530273 C46.72460054 386.16560828 41.15023876 387.33295061 33.9753418 387.29882812 C33.17511093 387.29897415 32.37488007 387.29912018 31.55039978 387.29927063 C28.9045033 387.29857378 26.25867716 387.29079202 23.61279297 387.28295898 C21.77862079 387.281094 19.94444812 387.27967047 18.11027527 387.27867126 C13.28189723 387.27485246 8.45354926 387.26502758 3.62518311 387.25396729 C-1.30146884 387.2437395 -6.22812565 387.23917071 -11.15478516 387.23413086 C-20.82211608 387.22340476 -30.48942468 387.20633595 -40.15673828 387.18530273 C-40.15411987 388.11361908 -40.15150146 389.04193542 -40.14880371 389.99838257 C-40.14017723 393.51091676 -40.13396267 397.02343937 -40.12927246 400.53598022 C-40.12678985 402.04342834 -40.12340264 403.5508753 -40.11901855 405.05831909 C-40.04138945 432.47851536 -43.59129814 457.98511374 -49.5949707 484.66552734 C-50.15226681 487.16524622 -50.69513012 489.66764636 -51.23291016 492.17163086 C-55.85578457 513.66626712 -61.49800971 533.911964 -70.15673828 554.18530273 C-70.54052643 555.08928802 -70.54052643 555.08928802 -70.93206787 556.01153564 C-83.31228339 585.14590708 -96.12548749 611.58675421 -118.37988281 634.35717773 C-119.80369081 635.8220684 -121.20148707 637.31222278 -122.59033203 638.81030273 C-150.33226676 668.22865067 -190.54116612 685.06847144 -230.53826904 686.25601196 C-235.97811966 686.37545727 -241.41710214 686.41437311 -246.8581543 686.42553711 C-249.69040751 686.43520433 -252.52192087 686.46632148 -255.35400391 686.49780273 C-292.76999682 686.71315096 -329.62819625 676.77725572 -357.28173828 650.49780273 C-372.57308003 634.5225032 -381.98103367 614.54355977 -387.15673828 593.18530273 C-387.5221875 591.83758789 -387.5221875 591.83758789 -387.89501953 590.46264648 C-394.72021365 561.16538466 -385.31818932 525.03308227 -370.01757812 499.75561523 C-357.4895297 479.93101113 -340.71726659 464.65352835 -317.58642578 458.50170898 C-301.05942574 454.92497017 -280.8259948 456.41747125 -266.15673828 465.18530273 C-258.57949353 471.54644648 -251.85431939 481.25536594 -250.15673828 491.18530273 C-249.43174988 501.9531633 -249.90980099 510.47014542 -255.81689453 519.81030273 C-258.82122718 522.8597756 -261.80801735 523.55644477 -265.84423828 524.49780273 C-278.59828597 527.8743622 -291.44476123 533.00345544 -301.15673828 542.18530273 C-301.72650391 542.6919043 -302.29626953 543.19850586 -302.88330078 543.72045898 C-311.37381013 552.23188092 -312.15632033 565.64639027 -312.20019531 577.06420898 C-311.91724554 590.87470106 -309.07120564 604.09923882 -299.15673828 614.18530273 C-286.77672684 625.1921791 -272.61296519 626.29551456 -256.75976562 625.40844727 C-239.83847093 623.9578692 -225.85955293 615.57799641 -214.45361328 603.36108398 C-190.23015064 573.97419904 -186.63881566 523.79676131 -183.46923828 487.49780273 C-183.37783066 486.46407028 -183.37783066 486.46407028 -183.28457642 485.40945435 C-181.28244627 462.36033138 -181.01624831 439.30859446 -181.09423828 416.18530273 C-181.09927081 413.54858485 -181.10383057 410.91186602 -181.10791016 408.27514648 C-181.11875971 401.91184405 -181.13535474 395.54857806 -181.15673828 389.18530273 C-181.81842734 389.19820784 -182.48011641 389.21111294 -183.16185665 389.2244091 C-199.28749683 389.53404751 -215.41219181 389.76547366 -231.5401144 389.91067314 C-239.33976143 389.98276487 -247.1374205 390.08097497 -254.93579102 390.24145508 C-261.73576026 390.38132229 -268.53428994 390.47138953 -275.33565766 390.50254166 C-278.93548494 390.52074663 -282.53119563 390.56326692 -286.1296978 390.66552353 C-307.9712513 391.26254923 -307.9712513 391.26254923 -313.22899246 387.833992 C-316.8812228 384.15061015 -318.54173543 380.04525672 -320.15673828 375.18530273 C-320.98161141 373.32735688 -321.812872 371.47219944 -322.65673828 369.62280273 C-326.06947725 360.50636577 -326.51530165 351.4687695 -322.46923828 342.50561523 C-317.53088178 333.77530642 -309.52329309 330.02684081 -300.16392517 327.31962585 C-287.93000542 324.53796817 -275.77615033 324.80512667 -263.28564453 324.89233398 C-260.9081194 324.89794034 -258.53059077 324.90220551 -256.15306091 324.90519714 C-249.94381879 324.9165641 -243.73479254 324.9459599 -237.52563477 324.97930908 C-231.17027709 325.01018705 -224.81488398 325.02374011 -218.45947266 325.03881836 C-206.02513385 325.07083841 -193.59095413 325.12193446 -181.15673828 325.18530273 C-181.22738495 323.93732407 -181.29803162 322.6893454 -181.37081909 321.40354919 C-181.8490014 312.77824471 -182.3110371 304.17424266 -182.28955078 295.53295898 C-182.29096069 294.63635056 -182.29237061 293.73974213 -182.29382324 292.81596375 C-182.29591839 289.95986705 -182.28972758 287.10388782 -182.28173828 284.24780273 C-182.27941193 282.75935852 -182.27941193 282.75935852 -182.27703857 281.24084473 C-182.23362946 257.35247741 -181.98372221 233.45542121 -180.21923828 209.62280273 C-180.14463379 208.6125 -180.0700293 207.60219727 -179.99316406 206.5612793 C-179.45029159 200.01350452 -178.44290691 193.62713207 -177.15673828 187.18530273 C-178.03894043 186.90710693 -178.92114258 186.62891113 -179.83007812 186.34228516 C-182.83507005 185.29717605 -185.54661822 184.10295068 -188.38330078 182.67358398 C-216.71152998 168.60747925 -245.80451312 156.19189774 -276.15673828 147.18530273 C-277.12160156 146.88881836 -278.08646484 146.59233398 -279.08056641 146.28686523 C-309.64894148 137.16197715 -345.76030861 139.58208701 -374.28955078 153.73999023 C-387.88140743 161.1569564 -402.91655742 173.10496325 -408.15673828 188.18530273 C-412.45957859 203.41834658 -415.10545016 219.13609427 -415.75439453 234.94702148 C-415.79502518 235.84463699 -415.83565582 236.7422525 -415.8775177 237.66706848 C-416.04042124 241.33822129 -416.19884775 245.00729636 -416.28540039 248.68115234 C-416.68608185 264.14853587 -416.68608185 264.14853587 -420.25732422 269.09448242 C-422.79603865 271.18264002 -425.22620081 272.70890955 -428.15673828 274.18530273 C-428.81714111 274.58289795 -429.47754395 274.98049316 -430.15795898 275.39013672 C-431.81630578 276.36947175 -433.548806 277.2199713 -435.28173828 278.06030273 C-436.39806641 278.61459961 -437.51439453 279.16889648 -438.66455078 279.73999023 C-454.19946559 286.16942925 -471.32049556 283.9954653 -486.57861328 277.79467773 C-500.94678032 271.00375301 -507.27571655 260.79671601 -513.03173828 246.37280273 C-513.76332887 244.31843724 -514.47458781 242.25660983 -515.15673828 240.18530273 C-515.52605469 239.10635742 -515.52605469 239.10635742 -515.90283203 238.00561523 C-519.99068322 223.51488758 -516.74856461 206.66191204 -514.15673828 192.18530273 C-513.97498047 191.13729492 -513.79322266 190.08928711 -513.60595703 189.00952148 C-507.98946919 163.83084469 -486.63567255 138.52629312 -466.15673828 124.18530273 C-465.42197266 123.64389648 -464.68720703 123.10249023 -463.93017578 122.54467773 C-429.80770937 97.70641596 -392.78092251 85.64176432 -351.15673828 81.18530273 C-349.94373047 81.0525293 -348.73072266 80.91975586 -347.48095703 80.78295898 C-285.50479418 75.25883214 -213.99975473 94.62329177 -162.15673828 129.18530273 C-161.92341797 127.99420898 -161.69009766 126.80311523 -161.44970703 125.57592773 C-160.09933619 119.52115368 -158.13406735 113.69176178 -156.11791992 107.83032227 C-155.47650927 105.95654377 -154.85264651 104.07678833 -154.22900391 102.19702148 C-150.21494701 90.46931609 -144.77944793 79.88022767 -137.46923828 69.87280273 C-136.95941406 69.16478516 -136.44958984 68.45676758 -135.92431641 67.72729492 C-134.34353173 65.54038116 -132.75038984 63.3628501 -131.15673828 61.18530273 C-130.6544873 60.48937012 -130.15223633 59.7934375 -129.63476562 59.07641602 C-111.20017775 33.537269 -86.24487907 9.58516337 -54.15673828 3.18530273 C-50.85240227 2.72031718 -47.54325344 2.41000164 -44.21923828 2.12280273 C-43.39617187 2.04481445 -42.57310547 1.96682617 -41.72509766 1.88647461 C-27.82601291 0.62101994 -13.95339188 -0.0014556 0 0 Z M-111.15283203 45.02514648 C-114.53496937 48.67099823 -117.47077912 52.61471702 -120.40673828 56.62280273 C-121.37172241 57.93269165 -121.37172241 57.93269165 -122.35620117 59.26904297 C-123.66742056 61.05356478 -124.97547987 62.8404131 -126.28027344 64.62963867 C-128.00031865 66.97226595 -129.75015297 69.28828446 -131.51220703 71.59936523 C-144.67213845 89.11588559 -150.49793318 109.55475262 -157.13867188 130.1652832 C-158.05521496 132.88414124 -159.06080436 135.53448562 -160.15673828 138.18530273 C-160.76114746 137.74524902 -161.36555664 137.30519531 -161.98828125 136.85180664 C-220.17566109 95.20295417 -301.80973787 78.78583365 -371.37158203 89.68920898 C-406.59154507 95.68504128 -438.34560271 110.34069574 -466.52783203 132.15795898 C-468.15664385 133.41405607 -469.81181521 134.63764371 -471.50439453 135.80639648 C-483.70416322 144.43445159 -491.76898567 158.47127084 -499.15673828 171.18530273 C-499.5025293 171.76747559 -499.84832031 172.34964844 -500.20458984 172.94946289 C-510.67689524 190.83492241 -514.89433313 217.61239624 -509.77319336 237.87548828 C-505.61093554 252.2051941 -498.87059987 264.55264635 -485.46923828 271.93530273 C-472.62908385 277.84801822 -456.78609384 279.98244613 -443.28173828 275.12280273 C-436.50114586 272.13763626 -429.43508773 268.46365218 -424.15673828 263.18530273 C-423.82907996 260.67672185 -423.61782651 258.25263283 -423.48095703 255.73217773 C-423.37747167 254.16117456 -423.27335927 252.59021259 -423.16870117 251.01928711 C-423.09016403 249.77538208 -423.09016403 249.77538208 -423.01004028 248.50634766 C-422.14777372 235.13542297 -420.94606701 221.90139915 -418.71923828 208.68530273 C-418.42956177 206.93878418 -418.42956177 206.93878418 -418.1340332 205.15698242 C-415.62072248 190.96923572 -412.75047896 180.05032492 -403.15673828 169.18530273 C-402.33044922 168.2481543 -401.50416016 167.31100586 -400.65283203 166.34545898 C-382.7842449 147.3584208 -357.30844706 137.01243772 -331.390625 136.04467773 C-296.22391274 135.13459318 -296.22391274 135.13459318 -279.15673828 140.18530273 C-278.30080078 140.43199707 -277.44486328 140.67869141 -276.56298828 140.93286133 C-270.03301479 142.84330077 -263.59010555 144.97376127 -257.15673828 147.18530273 C-255.85494629 147.62567871 -255.85494629 147.62567871 -254.52685547 148.07495117 C-226.474346 157.62272141 -199.20805162 170.23264131 -172.91455078 183.86645508 C-170.36551255 185.32911181 -170.36551255 185.32911181 -168.15673828 185.18530273 C-168.83736328 185.89686523 -168.83736328 185.89686523 -169.53173828 186.62280273 C-183.58558438 208.78463697 -176.33146095 254.34125245 -176.28710938 280.48608398 C-176.28133293 283.91842441 -176.28476767 287.35068791 -176.29068184 290.78302574 C-176.29520936 294.15410305 -176.29202303 297.52516076 -176.28955078 300.89624023 C-176.29258713 302.69827408 -176.29258713 302.69827408 -176.29568481 304.53671265 C-176.27152582 313.45230784 -175.79153661 322.29658781 -175.15673828 331.18530273 C-175.73228045 331.18253736 -176.30782263 331.17977198 -176.90080547 331.1769228 C-190.95865111 331.11043044 -205.01647292 331.06090972 -219.07444286 331.02986622 C-225.8730099 331.0144516 -232.67147143 330.99346669 -239.4699707 330.95898438 C-246.03817149 330.92568627 -252.60630413 330.90841925 -259.17458534 330.90067101 C-261.67304515 330.89515338 -264.17149939 330.88437917 -266.66991234 330.86811256 C-290.90428054 330.69827919 -290.90428054 330.69827919 -312.90673828 339.93530273 C-317.23282583 344.26139028 -319.37365733 348.85787457 -319.65673828 354.99780273 C-319.19414406 364.77197104 -314.11360814 377.22843287 -307.15673828 384.18530273 C-305.4484814 384.2815231 -303.73621714 384.30717902 -302.0252533 384.30555725 C-300.9132103 384.30693192 -299.8011673 384.30830658 -298.65542603 384.3097229 C-297.42472382 384.30612762 -296.19402161 384.30253235 -294.92602539 384.29882812 C-292.99459938 384.29904716 -292.99459938 384.29904716 -291.02415466 384.29927063 C-287.48299068 384.29955859 -283.94186029 384.2936621 -280.40070415 384.28669667 C-276.7037884 384.2804629 -273.00687197 384.27985932 -269.30995178 384.27867126 C-262.30469929 384.27555802 -255.29946233 384.26734472 -248.29421669 384.25732177 C-240.32094953 384.24616043 -232.34768163 384.24065014 -224.3744086 384.23562634 C-207.96850939 384.2251621 -191.56262582 384.20756279 -175.15673828 384.18530273 C-175.13740885 391.88526498 -175.12445834 399.58522077 -175.11553955 407.28520203 C-175.1118137 409.89390802 -175.10673131 412.50261249 -175.10015869 415.11131287 C-174.95469026 474.41893484 -176.7640621 537.10418703 -201.15673828 592.18530273 C-201.59759766 593.20881836 -202.03845703 594.23233398 -202.49267578 595.28686523 C-209.62777069 610.75421863 -222.5760681 620.95547613 -238.15673828 627.18530273 C-254.15311011 632.99748928 -274.42434484 634.4637951 -290.15673828 627.18530273 C-301.50084692 621.67623848 -309.14821468 613.76354251 -314.15673828 602.18530273 C-316.88421807 593.34617979 -317.62669787 584.82860705 -317.53173828 575.62280273 C-317.54914063 573.92994141 -317.54914063 573.92994141 -317.56689453 572.20288086 C-317.52311034 559.51276357 -315.06644846 547.99697974 -306.48095703 538.29077148 C-296.65644623 528.9711606 -284.06568444 524.08727109 -271.50439453 519.72827148 C-264.46095988 517.60905138 -264.46095988 517.60905138 -258.63330078 513.49389648 C-254.43243573 504.26355538 -254.58295457 496.89859815 -257.84814453 487.30639648 C-259.73217168 482.81285113 -262.16616863 479.01323189 -265.15673828 475.18530273 C-265.75228516 474.33323242 -266.34783203 473.48116211 -266.96142578 472.60327148 C-273.54418092 465.35287036 -286.58404298 463.55416749 -295.99267578 462.93139648 C-317.53614301 462.10779313 -334.32121231 469.73332936 -350.30517578 484.11889648 C-355.39123201 488.96136764 -359.37628359 494.28263825 -363.15673828 500.18530273 C-364.03845703 501.56008789 -364.03845703 501.56008789 -364.93798828 502.96264648 C-373.19648804 516.45515157 -377.65700026 530.87875622 -381.15673828 546.18530273 C-381.40552734 547.27069336 -381.65431641 548.35608398 -381.91064453 549.47436523 C-387.24377482 577.74368521 -380.55090297 607.46426984 -364.65161133 631.31835938 C-347.22007191 656.42140838 -320.64059185 671.88587734 -290.8144989 677.63693237 C-277.84327661 679.89268688 -265.11429949 680.63457463 -251.96289062 680.52148438 C-249.02592599 680.49775578 -246.08986954 680.5009765 -243.15283203 680.50756836 C-227.93123106 680.48601917 -212.21255781 680.19357802 -197.46923828 675.99780273 C-196.69290039 675.78422119 -195.9165625 675.57063965 -195.11669922 675.35058594 C-187.11352106 673.04775387 -179.62085153 669.84925964 -172.15673828 666.18530273 C-171.53879395 665.88785156 -170.92084961 665.59040039 -170.28417969 665.28393555 C-120.77416968 641.21205157 -95.43101485 598.82395163 -74.91973877 549.98956299 C-74.23537101 548.37124484 -73.53657657 546.75904544 -72.8359375 545.14770508 C-63.94738385 524.62295986 -59.58267192 502.57629319 -54.74450684 480.82733154 C-54.20618663 478.40757382 -53.66291588 475.98898273 -53.11865234 473.57055664 C-47.72126228 449.43053927 -46.15919915 425.99208989 -45.61376953 401.35717773 C-45.56890029 399.39412035 -45.52385763 397.43106692 -45.4786377 395.46801758 C-45.36934059 390.70715583 -45.26238336 385.94624687 -45.15673828 381.18530273 C-44.09708862 381.19418518 -43.03743896 381.20306763 -41.94567871 381.21221924 C-31.94125279 381.29343755 -21.93689409 381.35333168 -11.93221283 381.39255142 C-6.78914102 381.41339284 -1.64633616 381.44164756 3.49658203 381.48706055 C8.46327831 381.53064113 13.4297184 381.55446574 18.39659119 381.56481171 C20.28795909 381.57218117 22.17931356 381.58657202 24.0705719 381.60822296 C26.72752775 381.63741955 29.38343592 381.641252 32.04052734 381.6394043 C32.81592865 381.6537854 33.59132996 381.6681665 34.39022827 381.6829834 C41.31510007 381.6311501 46.37479688 379.31715873 51.59326172 374.81030273 C57.98182152 367.35698297 60.31677473 360.72439101 60.08935547 350.95874023 C59.40146571 343.20633181 56.5246655 337.50271686 50.84326172 332.18530273 C47.48190639 330.50462507 43.68328679 331.05655169 39.98730469 331.07177734 C39.05531816 331.07165681 38.12333164 331.07153627 37.1631031 331.07141209 C34.13719445 331.07216028 31.1113469 331.07978429 28.08544922 331.08764648 C26.22094757 331.08911619 24.35644551 331.09013673 22.49194336 331.09069824 C15.56737653 331.09594778 8.64281853 331.10990891 1.71826172 331.12280273 C-21.48486328 331.15374023 -21.48486328 331.15374023 -45.15673828 331.18530273 C-46.14673828 293.23530273 -47.13673828 255.28530273 -48.15673828 216.18530273 C-47.49673828 216.51530273 -46.83673828 216.84530273 -46.15673828 217.18530273 C-24.33275344 219.3246198 -2.76152981 213.80412681 17.84326172 207.18530273 C18.64328613 206.92910156 19.44331055 206.67290039 20.26757812 206.40893555 C51.19894106 196.27854876 76.8181347 179.10251908 91.96826172 149.56030273 C97.96046642 137.35644041 101.03040133 125.30688828 103.15576172 111.93530273 C103.41341309 110.32002686 103.41341309 110.32002686 103.67626953 108.67211914 C107.29091958 84.02231878 101.34818665 60.42512941 86.84326172 40.18530273 C73.19175533 22.14809044 52.21637168 10.11810685 29.90478516 6.90625 C20.9689987 5.81677884 11.95506006 5.9874535 2.96826172 5.99780273 C1.64533615 5.9982106 1.64533615 5.9982106 0.29568481 5.99862671 C-44.60727727 6.06210851 -78.74445103 12.30693393 -111.15283203 45.02514648 Z " fill="#000000" transform="translate(531.15673828125,23.814697265625)"/>
<path d="M0 0 C8.60409251 7.54887361 12.47154172 19.76611606 13.21069336 30.93823242 C14.19947993 54.6419863 6.73628752 71.26492755 -8.9296875 88.81640625 C-9.56003906 89.60273438 -10.19039062 90.3890625 -10.83984375 91.19921875 C-20.92883998 103.74487363 -37.65254262 107.62199231 -53.015625 109.546875 C-61.30792276 110.11790149 -69.62349185 109.9709733 -77.9296875 109.81640625 C-78.1733541 100.5464393 -77.4903678 91.67626124 -76.1796875 82.50390625 C-75.99776855 81.20372559 -75.81584961 79.90354492 -75.62841797 78.56396484 C-75.07618659 74.64605126 -74.50198112 70.73143775 -73.9296875 66.81640625 C-73.68943848 65.10300049 -73.68943848 65.10300049 -73.44433594 63.35498047 C-70.3981281 41.75665549 -64.9944958 18.94082357 -47.9296875 3.81640625 C-33.84618275 -6.50239432 -14.9844479 -10.83370362 0 0 Z M-49.98828125 14.3125 C-61.42375316 29.0612676 -65.27377235 47.17559131 -67.81542969 65.234375 C-68.17966313 67.81623347 -68.56480972 70.39432103 -68.953125 72.97265625 C-70.46825259 83.24789591 -71.47670878 93.4377578 -71.9296875 103.81640625 C-54.49098126 104.37753834 -33.94758375 103.26855064 -19.8828125 91.65625 C-7.56932899 80.05694853 5.87449993 64.39820634 7.23144531 46.71679688 C7.50168462 32.27470575 7.69993006 17.41633966 -2.5625 6 C-8.09669272 0.8504709 -14.08914194 -0.64457133 -21.546875 -0.4296875 C-32.50390344 0.70194003 -42.50075897 6.34093588 -49.98828125 14.3125 Z " fill="#000000" transform="translate(558.9296875,81.18359375)"/>
<path d="M0 0 C0.99 0.33 1.98 0.66 3 1 C2.45367619 4.82426669 0.73916403 6.39231585 -2 9 C-1.13125244 9.03963867 -0.26250488 9.07927734 0.63256836 9.12011719 C36.3525475 10.82319686 75.20506184 13.23850773 104 37 C104.84949219 37.67546875 105.69898438 38.3509375 106.57421875 39.046875 C121.71051944 51.74931417 130.87480687 70.4660987 133 90 C135.87509964 132.77481937 122.20769973 175.15070774 99 211 C97.02 210.01 97.02 210.01 95 209 C95.4846875 208.1028125 95.969375 207.205625 96.46875 206.28125 C98.666631 202.19844232 100.83819418 198.10200785 103 194 C103.51240234 193.03054443 103.51240234 193.03054443 104.03515625 192.04150391 C122.256046 157.3414271 136.58192305 114.63286519 124.75 75.625 C117.70092113 54.01969106 103.02179151 40.01297737 83.28515625 29.5625 C57.1421865 16.98242433 27.56424541 14.4837787 -1 15 C0.65 16.65 2.3 18.3 4 20 C3.67 20.99 3.34 21.98 3 23 C-1.10447392 22.48223379 -2.95699523 20.35372556 -5.75 17.4375 C-6.54921875 16.61121094 -7.3484375 15.78492188 -8.171875 14.93359375 C-8.77515625 14.29550781 -9.3784375 13.65742188 -10 13 C-8.48446596 9.52224821 -6.4226544 7.0442016 -3.875 4.25 C-3.15054688 3.45078125 -2.42609375 2.6515625 -1.6796875 1.828125 C-0.84824219 0.92320313 -0.84824219 0.92320313 0 0 Z " fill="#000000" transform="translate(530,0)"/>
<path d="M0 0 C3.55736507 1.4671173 5.44195167 3.3706419 7.8125 6.375 C8.43769531 7.14585938 9.06289062 7.91671875 9.70703125 8.7109375 C11 11 11 11 10.96875 13.01953125 C9.64951434 15.71651706 7.9201916 17.31367462 5.6875 19.3125 C4.51767578 20.38951172 4.51767578 20.38951172 3.32421875 21.48828125 C1 23 1 23 -1.29296875 22.73046875 C-2.13794922 22.36888672 -2.13794922 22.36888672 -3 22 C-1.59284684 18.59937986 0.02868228 17.10770302 3 15 C-24.58788472 14.36093638 -49.55887467 16.42629618 -76 25 C-76.68932617 25.21849609 -77.37865234 25.43699219 -78.08886719 25.66210938 C-95.37895442 31.2450983 -112.40836766 40.20473712 -127 51 C-127.52207031 51.38365723 -128.04414063 51.76731445 -128.58203125 52.16259766 C-135.31576362 57.13601884 -141.70215883 62.36634654 -147.859375 68.046875 C-149.59341258 69.62902608 -151.34699382 71.10946881 -153.1875 72.5625 C-156.85915546 75.7446014 -159.86455885 79.29885546 -163 83 C-163.82628906 83.92683594 -164.65257812 84.85367188 -165.50390625 85.80859375 C-172.5399604 93.7741537 -178.27302571 102.28271736 -183.8984375 111.28564453 C-185.17155687 113.26699299 -186.54063032 115.15178511 -188 117 C-188.99 116.01 -189.98 115.02 -191 114 C-182.36375014 98.77461135 -172.08706922 85.62734363 -160 73 C-159.52981445 72.50258301 -159.05962891 72.00516602 -158.57519531 71.49267578 C-150.9850932 63.49403398 -142.85179483 56.56605623 -134 50 C-133.14792969 49.36449219 -132.29585937 48.72898438 -131.41796875 48.07421875 C-103.82351888 28.16777481 -72.47917434 16.3712065 -39 11 C-38.30640381 10.8858374 -37.61280762 10.7716748 -36.89819336 10.65405273 C-28.81557114 9.53924192 -20.57870975 9.89280978 -12.4375 9.9375 C-10.84049619 9.94252457 -9.24349086 9.94708579 -7.64648438 9.95117188 C-3.76428467 9.96210272 0.11784051 9.97931467 4 10 C3.17113281 9.05898437 2.34226563 8.11796875 1.48828125 7.1484375 C0.07543945 5.54443359 0.07543945 5.54443359 -1 4 C-0.8125 1.625 -0.8125 1.625 0 0 Z " fill="#000000" transform="translate(191,79)"/>
<path d="M0 0 C5.61 0 11.22 0 17 0 C17.495 7.92 17.495 7.92 18 16 C16.68 16.33 15.36 16.66 14 17 C13.34 14.36 12.68 11.72 12 9 C5.558327 18.19345564 1.60055696 25.4666591 3 37 C5.83171681 43.37136283 11.51419495 47.46214483 17.7890625 50.23046875 C27.11453009 53.71180908 37.22830563 56.33429391 46.8125 52.3125 C60.31814214 45.96458696 66.89506383 30.88351679 72.98095703 18.11865234 C74.7746057 14.38954761 76.64201478 10.69734507 78.5 7 C79.17739455 5.64598898 79.85450787 4.29183722 80.53125 2.9375 C81.0159375 1.968125 81.500625 0.99875 82 0 C82.99 0.33 83.98 0.66 85 1 C84.05296956 7.20518036 81.08581766 12.57054223 78.38256836 18.16308594 C77.45304676 20.09272571 76.54154852 22.03016654 75.63085938 23.96875 C69.13105491 37.5989696 60.68754532 52.23570838 46 58 C35.06248681 61.64583773 22.75764842 57.91492151 12.6875 53.3125 C5.6140415 49.5857237 0.50974285 44.70271307 -2 37 C-3.50151044 26.110098 -0.14117364 16.95709412 6.3125 8.25 C7.199375 7.1775 8.08625 6.105 9 5 C6.03 4.67 3.06 4.34 0 4 C0 2.68 0 1.36 0 0 Z " fill="#000000" transform="translate(241,576)"/>
<path d="M0 0 C0.66 0 1.32 0 2 0 C2.16641456 10.87241806 1.80241656 21.70830231 1.35571289 32.57128906 C0.92294848 43.51614011 0.67505836 54.44452331 1.5 65.375 C1.5928125 66.64085937 1.685625 67.90671875 1.78125 69.2109375 C1.8534375 70.13132812 1.925625 71.05171875 2 72 C2.66 71.01 3.32 70.02 4 69 C4.99 69 5.98 69 7 69 C5.84414715 72.91211733 4.64465038 75.8745041 2 79 C-1.93619738 78.43768609 -4.79192446 77.38314183 -8 75 C-8 74.01 -8 73.02 -8 72 C-6.02 72.66 -4.04 73.32 -2 74 C-2.00222061 73.32142944 -2.00444122 72.64285889 -2.00672913 71.94372559 C-2.02905894 64.80444878 -2.04402061 57.66518209 -2.05493164 50.52587891 C-2.05935244 47.8705851 -2.06671902 45.21534714 -2.07543945 42.56005859 C-2.17769165 10.59722609 -2.17769165 10.59722609 -1 1 C-0.67 0.67 -0.34 0.34 0 0 Z " fill="#000000" transform="translate(340,237)"/>
<path d="M0 0 C3.36573933 1.44245971 5.75010389 3.083468 8 6 C8.09766173 9.80880762 7.02188638 10.97597836 4.4375 13.8125 C3.633125 14.534375 2.82875 15.25625 2 16 C1.01 15.67 0.02 15.34 -1 15 C0.875 11.125 0.875 11.125 2 10 C-29.68 9.505 -29.68 9.505 -62 9 C-62 8.34 -62 7.68 -62 7 C-40.88 6.67 -19.76 6.34 2 6 C1.01 5.01 0.02 4.02 -1 3 C-0.67 2.01 -0.34 1.02 0 0 Z " fill="#000000" transform="translate(308,331)"/>
<path d="M0 0 C3.36573933 1.44245971 5.75010389 3.083468 8 6 C8.09766173 9.80880762 7.02188638 10.97597836 4.4375 13.8125 C3.633125 14.534375 2.82875 15.25625 2 16 C1.01 15.67 0.02 15.34 -1 15 C0.875 11.125 0.875 11.125 2 10 C-19.78 9.505 -19.78 9.505 -42 9 C-42 8.34 -42 7.68 -42 7 C-27.48 6.67 -12.96 6.34 2 6 C1.01 5.01 0.02 4.02 -1 3 C-0.67 2.01 -0.34 1.02 0 0 Z " fill="#000000" transform="translate(557,331)"/>
<path d="M0 0 C1.4540625 0.0309375 1.4540625 0.0309375 2.9375 0.0625 C5.0625 4.6875 5.0625 4.6875 3.9375 8.0625 C4.26300502 9.73071323 4.59596063 11.39749557 4.9375 13.0625 C4.6075 13.7225 4.2775 14.3825 3.9375 15.0625 C1.125 15.9375 1.125 15.9375 -2.0625 16.0625 C-4.4375 14.125 -4.4375 14.125 -6.0625 12.0625 C-2.43923261 10.8547442 -1.42103631 11.51938872 1.9375 13.0625 C1.9375 11.7425 1.9375 10.4225 1.9375 9.0625 C0.6175 9.0625 -0.7025 9.0625 -2.0625 9.0625 C-2.0625 8.0725 -2.0625 7.0825 -2.0625 6.0625 C-0.7425 6.0625 0.5775 6.0625 1.9375 6.0625 C1.6075 5.0725 1.2775 4.0825 0.9375 3.0625 C-1.0425 3.7225 -3.0225 4.3825 -5.0625 5.0625 C-3.9375 0.08035714 -3.9375 0.08035714 0 0 Z " fill="#000000" transform="translate(322.0625,259.9375)"/>
<path d="M0 0 C3.0625 0.1875 3.0625 0.1875 5.0625 2.1875 C4.90004442 5.92397845 4.47466356 7.71288742 2 10.5625 C1.360625 11.09875 0.72125 11.635 0.0625 12.1875 C1.7125 12.5175 3.3625 12.8475 5.0625 13.1875 C5.0625 13.8475 5.0625 14.5075 5.0625 15.1875 C1.7625 15.1875 -1.5375 15.1875 -4.9375 15.1875 C-2.9375 11.1875 -2.9375 11.1875 -0.8125 8.625 C1.36735538 6.30372611 1.36735538 6.30372611 1.0625 3.1875 C0.4025 3.1875 -0.2575 3.1875 -0.9375 3.1875 C-1.2675 3.8475 -1.5975 4.5075 -1.9375 5.1875 C-2.9275 5.1875 -3.9175 5.1875 -4.9375 5.1875 C-3.82120474 0.24390669 -3.82120474 0.24390669 0 0 Z " fill="#000000" transform="translate(689.9375,81.8125)"/>
<path d="M0 0 C2.875 -0.125 2.875 -0.125 6 0 C6.66 0.66 7.32 1.32 8 2 C7.83754442 5.73647845 7.41216356 7.52538742 4.9375 10.375 C4.298125 10.91125 3.65875 11.4475 3 12 C4.65 12.33 6.3 12.66 8 13 C8 13.66 8 14.32 8 15 C4.7 15 1.4 15 -2 15 C0 11 0 11 2.125 8.4375 C4.30485538 6.11622611 4.30485538 6.11622611 4 3 C3.34 3 2.68 3 2 3 C1.67 3.66 1.34 4.32 1 5 C0.01 5 -0.98 5 -2 5 C-1.34 3.35 -0.68 1.7 0 0 Z " fill="#000000" transform="translate(269,321)"/>
<path d="M0 0 C2.875 -0.125 2.875 -0.125 6 0 C6.66 0.66 7.32 1.32 8 2 C7.83754442 5.73647845 7.41216356 7.52538742 4.9375 10.375 C4.298125 10.91125 3.65875 11.4475 3 12 C4.65 12.33 6.3 12.66 8 13 C8 13.66 8 14.32 8 15 C4.7 15 1.4 15 -2 15 C0 11 0 11 2.125 8.4375 C4.30485538 6.11622611 4.30485538 6.11622611 4 3 C3.34 3 2.68 3 2 3 C1.67 3.66 1.34 4.32 1 5 C0.01 5 -0.98 5 -2 5 C-1.34 3.35 -0.68 1.7 0 0 Z " fill="#000000" transform="translate(527,319)"/>
<path d="M0 0 C2.33944736 0.28730055 4.6739143 0.61936779 7 1 C7.36630156 4.93774177 7.30233203 6.56539771 5 9.875 C4.34 10.57625 3.68 11.2775 3 12 C4.65 12.33 6.3 12.66 8 13 C8 13.66 8 14.32 8 15 C4.7 15 1.4 15 -2 15 C-0.66837689 11.00513068 1.05840921 8.94159079 4 6 C4 5.01 4 4.02 4 3 C2.02 3.66 0.04 4.32 -2 5 C-1.125 1.125 -1.125 1.125 0 0 Z " fill="#000000" transform="translate(545,319)"/>
<path d="M0 0 C0.99 0 1.98 0 3 0 C3 3.3 3 6.6 3 10 C3.66 10 4.32 10 5 10 C5 10.66 5 11.32 5 12 C4.34 12 3.68 12 3 12 C3 12.99 3 13.98 3 15 C2.34 15 1.68 15 1 15 C1 14.01 1 13.02 1 12 C-1.31 12 -3.62 12 -6 12 C-5.56629155 7.2292071 -3.35665609 3.36635741 0 0 Z M0 4 C-0.99 5.98 -1.98 7.96 -3 10 C-1.68 10 -0.36 10 1 10 C1 8.02 1 6.04 1 4 C0.67 4 0.34 4 0 4 Z " fill="#000000" transform="translate(282,594)"/>
<path d="M0 0 C3.3 0.99 6.6 1.98 10 3 C10.77916092 8.02125926 11.13016601 11.97703996 10 17 C9.01 17 8.02 17 7 17 C7 13.37 7 9.74 7 6 C4.36 5.01 1.72 4.02 -1 3 C-0.67 2.01 -0.34 1.02 0 0 Z " fill="#000000" transform="translate(406,203)"/>
<path d="M0 0 C0 4.95 0 9.9 0 15 C-0.99 15 -1.98 15 -3 15 C-3 11.37 -3 7.74 -3 4 C-3.99 4.33 -4.98 4.66 -6 5 C-5.625 3.0625 -5.625 3.0625 -5 1 C-3 0 -3 0 0 0 Z " fill="#000000" transform="translate(268,594)"/>
<path d="M0 0 C0 4.95 0 9.9 0 15 C-0.99 15 -1.98 15 -3 15 C-3 11.37 -3 7.74 -3 4 C-3.99 4.33 -4.98 4.66 -6 5 C-5.625 3.0625 -5.625 3.0625 -5 1 C-3 0 -3 0 0 0 Z " fill="#000000" transform="translate(289,321)"/>
<path d="M0 0 C0 4.95 0 9.9 0 15 C-0.99 15 -1.98 15 -3 15 C-3 11.37 -3 7.74 -3 4 C-3.99 4.33 -4.98 4.66 -6 5 C-5.625 3.0625 -5.625 3.0625 -5 1 C-3 0 -3 0 0 0 Z " fill="#000000" transform="translate(309,260)"/>
<path d="M0 0 C0 4.95 0 9.9 0 15 C-0.99 15 -1.98 15 -3 15 C-3 11.37 -3 7.74 -3 4 C-3.99 4.33 -4.98 4.66 -6 5 C-5.625 3.0625 -5.625 3.0625 -5 1 C-3 0 -3 0 0 0 Z " fill="#000000" transform="translate(72,83)"/>
<path d="M0 0 C0 4.95 0 9.9 0 15 C-0.99 15 -1.98 15 -3 15 C-3 11.37 -3 7.74 -3 4 C-3.99 4.33 -4.98 4.66 -6 5 C-5.625 3.0625 -5.625 3.0625 -5 1 C-3 0 -3 0 0 0 Z " fill="#000000" transform="translate(677,82)"/>
<path d="M0 0 C0.99 0 1.98 0 3 0 C3 2.97 3 5.94 3 9 C5.64 9 8.28 9 11 9 C11 9.66 11 10.32 11 11 C7.37 11 3.74 11 0 11 C0 7.37 0 3.74 0 0 Z " fill="#000000" transform="translate(407,373)"/>
<path d="M0 0 C0 4.95 0 9.9 0 15 C-0.66 15 -1.32 15 -2 15 C-2.33 11.37 -2.66 7.74 -3 4 C-3.99 4.33 -4.98 4.66 -6 5 C-6 4.01 -6 3.02 -6 2 C-3 0 -3 0 0 0 Z " fill="#000000" transform="translate(84,83)"/>
<path d="M0 0 C0.99 0 1.98 0 3 0 C2.44449305 3.59905908 1.25112752 4.99909799 -1.5625 7.25 C-2.20316406 7.77078125 -2.84382813 8.2915625 -3.50390625 8.828125 C-3.99761719 9.21484375 -4.49132812 9.6015625 -5 10 C-5 4.90962386 -3.48257717 3.56356734 0 0 Z " fill="#000000" transform="translate(442,89)"/>
<path d="M0 0 C0.99 0 1.98 0 3 0 C3 3.96 3 7.92 3 12 C2.01 12 1.02 12 0 12 C0 8.04 0 4.08 0 0 Z " fill="#000000" transform="translate(411,270)"/>
<path d="M0 0 C0.99 0 1.98 0 3 0 C3 3.96 3 7.92 3 12 C2.01 12 1.02 12 0 12 C0 8.04 0 4.08 0 0 Z " fill="#000000" transform="translate(416,147)"/>
<path d="M0 0 C3.59391114 1.33488128 6.75490696 2.96022723 10 5 C9.67 5.99 9.34 6.98 9 8 C7.70359622 7.40606618 6.41301161 6.79942011 5.125 6.1875 C4.40570313 5.85105469 3.68640625 5.51460937 2.9453125 5.16796875 C1 4 1 4 -1 1 C-0.67 0.67 -0.34 0.34 0 0 Z " fill="#000000" transform="translate(215,665)"/>
<path d="M0 0 C0.33 0.99 0.66 1.98 1 3 C-0.26691507 3.67408308 -1.53870749 4.33900497 -2.8125 5 C-3.52019531 5.37125 -4.22789062 5.7425 -4.95703125 6.125 C-7 7 -7 7 -10 7 C-10 6.01 -10 5.02 -10 4 C-8.71086513 3.32845067 -7.41859796 2.66291141 -6.125 2 C-5.40570313 1.62875 -4.68640625 1.2575 -3.9453125 0.875 C-2 0 -2 0 0 0 Z " fill="#000000" transform="translate(343,659)"/>
<path d="M0 0 C0.99 0 1.98 0 3 0 C3 3.63 3 7.26 3 11 C2.01 11.33 1.02 11.66 0 12 C0 8.04 0 4.08 0 0 Z " fill="#000000" transform="translate(408,352)"/>
<path d="M0 0 C3.48670834 1.1094072 6.77484237 2.26337666 10 4 C9.67 4.99 9.34 5.98 9 7 C5.51329166 5.8905928 2.22515763 4.73662334 -1 3 C-0.67 2.01 -0.34 1.02 0 0 Z " fill="#000000" transform="translate(337,163)"/>
<path d="M0 0 C0 0.66 0 1.32 0 2 C-1.26839526 2.50615298 -2.53983102 3.00469099 -3.8125 3.5 C-4.87404297 3.91765625 -4.87404297 3.91765625 -5.95703125 4.34375 C-8 5 -8 5 -11 5 C-11 4.01 -11 3.02 -11 2 C-3.57142857 -1.57142857 -3.57142857 -1.57142857 0 0 Z " fill="#000000" transform="translate(151,143)"/>
<path d="M0 0 C0.99 0.33 1.98 0.66 3 1 C1.35 4.3 -0.3 7.6 -2 11 C-2.99 10.67 -3.98 10.34 -5 10 C-3.84414715 6.08788267 -2.64465038 3.1254959 0 0 Z " fill="#000000" transform="translate(429,106)"/>
<path d="M0 0 C0 0.99 0 1.98 0 3 C-1.6796875 4.38671875 -1.6796875 4.38671875 -3.875 5.6875 C-4.59429687 6.12449219 -5.31359375 6.56148438 -6.0546875 7.01171875 C-8 8 -8 8 -10 8 C-9.875 6.25 -9.875 6.25 -9 4 C-3.88888889 0 -3.88888889 0 0 0 Z " fill="#000000" transform="translate(462,76)"/>
<path d="M0 0 C-0.33 1.32 -0.66 2.64 -1 4 C-4.3 4.33 -7.6 4.66 -11 5 C-10.67 4.01 -10.34 3.02 -10 2 C-8.22265625 1.26953125 -8.22265625 1.26953125 -6.0625 0.8125 C-4.99708984 0.57466797 -4.99708984 0.57466797 -3.91015625 0.33203125 C-2 0 -2 0 0 0 Z " fill="#000000" transform="translate(305,674)"/>
<path d="M0 0 C0 0.66 0 1.32 0 2 C-1.26839526 2.50615298 -2.53983102 3.00469099 -3.8125 3.5 C-4.87404297 3.91765625 -4.87404297 3.91765625 -5.95703125 4.34375 C-8 5 -8 5 -11 5 C-11 4.01 -11 3.02 -11 2 C-9.73392393 1.46770674 -8.46189588 0.94955456 -7.1875 0.4375 C-6.47980469 0.14746094 -5.77210938 -0.14257812 -5.04296875 -0.44140625 C-3 -1 -3 -1 0 0 Z " fill="#000000" transform="translate(325,669)"/>
<path d="M0 0 C0 0.66 0 1.32 0 2 C-1.42578125 3.2890625 -1.42578125 3.2890625 -3.3125 4.625 C-3.92738281 5.07101562 -4.54226563 5.51703125 -5.17578125 5.9765625 C-7 7 -7 7 -10 7 C-10 6.01 -10 5.02 -10 4 C-8.57421875 2.578125 -8.57421875 2.578125 -6.6875 1.25 C-6.07261719 0.80140625 -5.45773437 0.3528125 -4.82421875 -0.109375 C-3 -1 -3 -1 0 0 Z " fill="#000000" transform="translate(361,649)"/>
<path d="M0 0 C0.99 0 1.98 0 3 0 C4.32 3.3 5.64 6.6 7 10 C6.01 10.33 5.02 10.66 4 11 C3.32591692 9.73308493 2.66099503 8.46129251 2 7.1875 C1.62875 6.47980469 1.2575 5.77210938 0.875 5.04296875 C0 3 0 3 0 0 Z " fill="#000000" transform="translate(190,633)"/>
<path d="M0 0 C0.99 0 1.98 0 3 0 C3.02698189 1.62490954 3.04638757 3.24994633 3.0625 4.875 C3.07410156 5.77992188 3.08570313 6.68484375 3.09765625 7.6171875 C3 10 3 10 2 12 C1.34 12 0.68 12 0 12 C0 8.04 0 4.08 0 0 Z " fill="#000000" transform="translate(413,229)"/>
<path d="M0 0 C0.99 0.33 1.98 0.66 3 1 C1.8905928 4.48670834 0.73662334 7.77484237 -1 11 C-1.99 10.67 -2.98 10.34 -4 10 C-2.68 6.7 -1.36 3.4 0 0 Z " fill="#000000" transform="translate(72,206)"/>
<path d="M0 0 C0.99 0.33 1.98 0.66 3 1 C1.65117186 5.04648443 -0.34826069 5.95502599 -4 8 C-4.99 7.67 -5.98 7.34 -7 7 C-7 6.34 -7 5.68 -7 5 C-5.57421875 3.67578125 -5.57421875 3.67578125 -3.6875 2.3125 C-3.07261719 1.85488281 -2.45773437 1.39726562 -1.82421875 0.92578125 C-1.22222656 0.62027344 -0.62023437 0.31476563 0 0 Z " fill="#000000" transform="translate(584,188)"/>
<path d="M0 0 C-0.47202486 4.24822374 -2.96655518 6.19989709 -6 9 C-6.99 8.67 -7.98 8.34 -9 8 C-8.21366078 6.85050412 -7.42073742 5.70551011 -6.625 4.5625 C-6.18414062 3.92441406 -5.74328125 3.28632813 -5.2890625 2.62890625 C-3.63708041 0.54140161 -2.66927652 0 0 0 Z " fill="#000000" transform="translate(99,174)"/>
<path d="M0 0 C-0.24609375 1.859375 -0.24609375 1.859375 -1 4 C-2.84765625 5.265625 -2.84765625 5.265625 -5.0625 6.25 C-6.16271484 6.75273437 -6.16271484 6.75273437 -7.28515625 7.265625 C-8.13400391 7.62914062 -8.13400391 7.62914062 -9 8 C-9 6.68 -9 5.36 -9 4 C-2.25 0 -2.25 0 0 0 Z " fill="#000000" transform="translate(132,150)"/>
<path d="M0 0 C0 0.99 0 1.98 0 3 C-3.87684087 4.19287411 -6.91621923 5 -11 5 C-11 4.01 -11 3.02 -11 2 C-7.12315913 0.80712589 -4.08378077 0 0 0 Z " fill="#000000" transform="translate(170,136)"/>
<path d="M0 0 C0 0.99 0 1.98 0 3 C-3.63 3.66 -7.26 4.32 -11 5 C-10.67 3.68 -10.34 2.36 -10 1 C-3.375 0 -3.375 0 0 0 Z " fill="#000000" transform="translate(190,132)"/>
<path d="M0 0 C0 0.99 0 1.98 0 3 C-2.75078884 3.91692961 -4.35948913 4.10886083 -7.1875 4.0625 C-9.0746875 4.0315625 -9.0746875 4.0315625 -11 4 C-11 3.01 -11 2.02 -11 1 C-3.375 0 -3.375 0 0 0 Z " fill="#000000" transform="translate(285,678)"/>
<path d="M0 0 C3.63 0 7.26 0 11 0 C11 0.99 11 1.98 11 3 C7.37 3 3.74 3 0 3 C0 2.01 0 1.02 0 0 Z " fill="#000000" transform="translate(253,679)"/>
<path d="M0 0 C5.445 1.485 5.445 1.485 11 3 C11 3.99 11 4.98 11 6 C9.54096742 5.69078116 8.08279278 5.37751201 6.625 5.0625 C5.81289062 4.88847656 5.00078125 4.71445312 4.1640625 4.53515625 C2 4 2 4 0 3 C0 2.01 0 1.02 0 0 Z " fill="#000000" transform="translate(233,674)"/>
<path d="M0 0 C0.99 0 1.98 0 3 0 C3.66 3.63 4.32 7.26 5 11 C3.68 10.67 2.36 10.34 1 10 C0.67 6.7 0.34 3.4 0 0 Z " fill="#000000" transform="translate(185,613)"/>
<path d="M0 0 C0.99 0 1.98 0 3 0 C3.0270043 1.45823212 3.04639787 2.91660675 3.0625 4.375 C3.07410156 5.18710937 3.08570313 5.99921875 3.09765625 6.8359375 C3 9 3 9 2 11 C1.01 11 0.02 11 -1 11 C-0.67 7.37 -0.34 3.74 0 0 Z " fill="#000000" transform="translate(389,598)"/>
<path d="M0 0 C0.99 0 1.98 0 3 0 C3 3.63 3 7.26 3 11 C2.01 11 1.02 11 0 11 C0 7.37 0 3.74 0 0 Z " fill="#000000" transform="translate(184,593)"/>
<path d="M0 0 C0.66 0.33 1.32 0.66 2 1 C2 4.3 2 7.6 2 11 C1.01 11.33 0.02 11.66 -1 12 C-1.02687279 10.18757948 -1.04633715 8.37504767 -1.0625 6.5625 C-1.07410156 5.55316406 -1.08570313 4.54382813 -1.09765625 3.50390625 C-1 1 -1 1 0 0 Z " fill="#000000" transform="translate(395,536)"/>
<path d="M0 0 C0.99 0.33 1.98 0.66 3 1 C2.05016642 2.50539661 1.08988109 4.00420347 0.125 5.5 C-0.40867188 6.3353125 -0.94234375 7.170625 -1.4921875 8.03125 C-1.98976562 8.6809375 -2.48734375 9.330625 -3 10 C-3.66 10 -4.32 10 -5 10 C-4.49701212 5.59885603 -2.91227269 3.28804981 0 0 Z " fill="#000000" transform="translate(200,535)"/>
<path d="M0 0 C0.99 0.33 1.98 0.66 3 1 C2.67 4.63 2.34 8.26 2 12 C1.01 11.67 0.02 11.34 -1 11 C-0.67 7.37 -0.34 3.74 0 0 Z " fill="#000000" transform="translate(406,393)"/>
<path d="M0 0 C0.99 0 1.98 0 3 0 C3 3.63 3 7.26 3 11 C2.01 11 1.02 11 0 11 C0 7.37 0 3.74 0 0 Z " fill="#000000" transform="translate(412,250)"/>
<path d="M0 0 C0.99 0.33 1.98 0.66 3 1 C2.34 4.3 1.68 7.6 1 11 C0.01 11 -0.98 11 -2 11 C-1.85892253 9.54119891 -1.71197585 8.08296449 -1.5625 6.625 C-1.48128906 5.81289062 -1.40007813 5.00078125 -1.31640625 4.1640625 C-1 2 -1 2 0 0 Z " fill="#000000" transform="translate(65,225)"/>
<path d="M0 0 C-0.33 0.99 -0.66 1.98 -1 3 C-4.3 3.33 -7.6 3.66 -11 4 C-11 3.01 -11 2.02 -11 1 C-7.26562152 0.12132271 -3.83225427 -0.08912219 0 0 Z " fill="#000000" transform="translate(533,208)"/>
<path d="M0 0 C2.97 1.65 5.94 3.3 9 5 C8.67 5.99 8.34 6.98 8 8 C5.36 6.68 2.72 5.36 0 4 C0 2.68 0 1.36 0 0 Z " fill="#000000" transform="translate(389,194)"/>
<path d="M0 0 C0.99 0.33 1.98 0.66 3 1 C-1 8.71428571 -1 8.71428571 -5 10 C-4.49701212 5.59885603 -2.91227269 3.28804981 0 0 Z " fill="#000000" transform="translate(83,189)"/>
<path d="M0 0 C0.99 0.33 1.98 0.66 3 1 C1.68 3.64 0.36 6.28 -1 9 C-2.32 9 -3.64 9 -5 9 C-3.35 6.03 -1.7 3.06 0 0 Z " fill="#000000" transform="translate(596,173)"/>
<path d="M0 0 C0.99 0 1.98 0 3 0 C3 3.63 3 7.26 3 11 C2.01 11 1.02 11 0 11 C0 7.37 0 3.74 0 0 Z " fill="#000000" transform="translate(415,168)"/>
<path d="M0 0 C0.99 0.33 1.98 0.66 3 1 C3 1.66 3 2.32 3 3 C1.57421875 4.32421875 1.57421875 4.32421875 -0.3125 5.6875 C-0.92738281 6.14511719 -1.54226562 6.60273438 -2.17578125 7.07421875 C-2.77777344 7.37972656 -3.37976563 7.68523437 -4 8 C-4.99 7.67 -5.98 7.34 -7 7 C-4.78071806 4.09197539 -3.07030857 2.04687238 0 0 Z " fill="#000000" transform="translate(112,161)"/>
<path d="M0 0 C7.625 0.875 7.625 0.875 11 2 C11 2.99 11 3.98 11 5 C7.37 4.34 3.74 3.68 0 3 C0 2.01 0 1.02 0 0 Z " fill="#000000" transform="translate(260,136)"/>
<path d="M0 0 C0.99 0 1.98 0 3 0 C3 3.63 3 7.26 3 11 C2.01 11 1.02 11 0 11 C0 7.37 0 3.74 0 0 Z " fill="#000000" transform="translate(601,135)"/>
<path d="M0 0 C3.63 0 7.26 0 11 0 C11 0.99 11 1.98 11 3 C7.37 3 3.74 3 0 3 C0 2.01 0 1.02 0 0 Z " fill="#000000" transform="translate(199,131)"/>
<path d="M0 0 C0 0.99 0 1.98 0 3 C-6.625 6 -6.625 6 -10 6 C-10 5.01 -10 4.02 -10 3 C-3.375 0 -3.375 0 0 0 Z " fill="#000000" transform="translate(481,67)"/>
<path d="M0 0 C7.42857143 -0.14285714 7.42857143 -0.14285714 11 1 C11 1.99 11 2.98 11 4 C7.37 3.67 3.74 3.34 0 3 C0 2.01 0 1.02 0 0 Z " fill="#000000" transform="translate(544,53)"/>
<path d="M0 0 C0.99 0 1.98 0 3 0 C8 5.23255814 8 5.23255814 8 9 C7.01 9 6.02 9 5 9 C0 3.76744186 0 3.76744186 0 0 Z " fill="#000000" transform="translate(200,651)"/>
<path d="M0 0 C0.66 0.33 1.32 0.66 2 1 C0.4169423 5.2742558 -2.50568404 7.26531794 -6 10 C-6 6 -6 6 -4.6875 4.296875 C-4.130625 3.78640625 -3.57375 3.2759375 -3 2.75 C-2.1646875 1.96882812 -2.1646875 1.96882812 -1.3125 1.171875 C-0.879375 0.78515625 -0.44625 0.3984375 0 0 Z " fill="#000000" transform="translate(374,634)"/>
<path d="M0 0 C0.99 0.66 1.98 1.32 3 2 C1.35 4.97 -0.3 7.94 -2 11 C-2.99 10.67 -3.98 10.34 -5 10 C-3.35 6.7 -1.7 3.4 0 0 Z " fill="#000000" transform="translate(385,617)"/>
<path d="M0 0 C0.99 0 1.98 0 3 0 C3.08159574 4.16138263 2.98248524 7.9472484 2 12 C1.01 11.67 0.02 11.34 -1 11 C-0.67 7.37 -0.34 3.74 0 0 Z " fill="#000000" transform="translate(391,577)"/>
<path d="M0 0 C0.99 0.33 1.98 0.66 3 1 C2.67 4.63 2.34 8.26 2 12 C1.01 11.67 0.02 11.34 -1 11 C-0.67 7.37 -0.34 3.74 0 0 Z " fill="#000000" transform="translate(185,572)"/>
<path d="M0 0 C0.99 0 1.98 0 3 0 C2.01 3.63 1.02 7.26 0 11 C-0.99 10.67 -1.98 10.34 -3 10 C-2.01 6.7 -1.02 3.4 0 0 Z " fill="#000000" transform="translate(190,553)"/>
<path d="M0 0 C0.99 0.33 1.98 0.66 3 1 C0.19195732 3.96404505 -2.18315774 6.44499019 -6 8 C-6 6.68 -6 5.36 -6 4 C-3.1875 1.6875 -3.1875 1.6875 0 0 Z " fill="#000000" transform="translate(215,522)"/>
<path d="M0 0 C0.99 0 1.98 0 3 0 C2.67 3.63 2.34 7.26 2 11 C1.01 11 0.02 11 -1 11 C-0.67 7.37 -0.34 3.74 0 0 Z " fill="#000000" transform="translate(396,516)"/>
<path d="M0 0 C0.99 0.33 1.98 0.66 3 1 C2.67 4.3 2.34 7.6 2 11 C1.01 11 0.02 11 -1 11 C-1.0270043 9.54176788 -1.04639787 8.08339325 -1.0625 6.625 C-1.07410156 5.81289063 -1.08570313 5.00078125 -1.09765625 4.1640625 C-1 2 -1 2 0 0 Z " fill="#000000" transform="translate(398,496)"/>
<path d="M0 0 C0.99 0 1.98 0 3 0 C3.0270043 1.45823212 3.04639787 2.91660675 3.0625 4.375 C3.07410156 5.18710937 3.08570313 5.99921875 3.09765625 6.8359375 C3 9 3 9 2 11 C1.01 10.67 0.02 10.34 -1 10 C-0.67 6.7 -0.34 3.4 0 0 Z " fill="#000000" transform="translate(399,475)"/>
<path d="M0 0 C0.99 0 1.98 0 3 0 C2.67 3.63 2.34 7.26 2 11 C1.01 11 0.02 11 -1 11 C-0.67 7.37 -0.34 3.74 0 0 Z " fill="#000000" transform="translate(401,455)"/>
<path d="M0 0 C0.66 0 1.32 0 2 0 C2 3.63 2 7.26 2 11 C1.01 11 0.02 11 -1 11 C-1.02688151 9.35425434 -1.04634123 7.70838587 -1.0625 6.0625 C-1.07410156 5.14597656 -1.08570313 4.22945313 -1.09765625 3.28515625 C-1 1 -1 1 0 0 Z " fill="#000000" transform="translate(403,434)"/>
<path d="M0 0 C0.99 0 1.98 0 3 0 C3.125 7.625 3.125 7.625 2 11 C1.01 11 0.02 11 -1 11 C-0.67 7.37 -0.34 3.74 0 0 Z " fill="#000000" transform="translate(404,414)"/>
<path d="M0 0 C0.99 0.33 1.98 0.66 3 1 C2.67 4.63 2.34 8.26 2 12 C1.01 11.67 0.02 11.34 -1 11 C-0.67 7.37 -0.34 3.74 0 0 Z " fill="#000000" transform="translate(410,311)"/>
<path d="M0 0 C0.66 0 1.32 0 2 0 C2 3.63 2 7.26 2 11 C1.01 11 0.02 11 -1 11 C-1.02688151 9.35425434 -1.04634123 7.70838587 -1.0625 6.0625 C-1.07410156 5.14597656 -1.08570313 4.22945313 -1.09765625 3.28515625 C-1 1 -1 1 0 0 Z " fill="#000000" transform="translate(411,291)"/>
<path d="M0 0 C3.63 0 7.26 0 11 0 C10.67 0.99 10.34 1.98 10 3 C6.7 3 3.4 3 0 3 C0 2.01 0 1.02 0 0 Z " fill="#000000" transform="translate(483,214)"/>
<path d="M0 0 C3.3 0 6.6 0 10 0 C10 0.99 10 1.98 10 3 C6.37 3 2.74 3 -1 3 C-0.67 2.01 -0.34 1.02 0 0 Z " fill="#000000" transform="translate(464,214)"/>
<path d="M0 0 C3.3 0.66 6.6 1.32 10 2 C10 2.99 10 3.98 10 5 C2.375 4.125 2.375 4.125 -1 3 C-0.67 2.01 -0.34 1.02 0 0 Z " fill="#000000" transform="translate(425,209)"/>
<path d="M0 0 C0 0.66 0 1.32 0 2 C-3.82320557 3.42258812 -6.91281305 4.24042276 -11 4 C-11 3.01 -11 2.02 -11 1 C-9.5437328 0.63743142 -8.08488815 0.28520207 -6.625 -0.0625 C-5.40683594 -0.35833984 -5.40683594 -0.35833984 -4.1640625 -0.66015625 C-2 -1 -2 -1 0 0 Z " fill="#000000" transform="translate(552,204)"/>
<path d="M0 0 C0.66 0 1.32 0 2 0 C2 3.96 2 7.92 2 12 C1.01 12 0.02 12 -1 12 C-1.14285714 3.42857143 -1.14285714 3.42857143 0 0 Z " fill="#000000" transform="translate(415,188)"/>
<path d="M0 0 C2.70931419 0.15481795 4.46584039 0.48172081 6.4453125 2.40234375 C7.67679642 3.89771708 8.8429837 5.4462924 10 7 C4.67373311 7 3.757879 5.58706631 0 2 C0 1.34 0 0.68 0 0 Z " fill="#000000" transform="translate(372,183)"/>
<path d="M0 0 C4.40114397 0.50298788 6.71195019 2.08772731 10 5 C9.67 5.66 9.34 6.32 9 7 C5.40608886 5.66511872 2.24509304 4.03977277 -1 2 C-0.67 1.34 -0.34 0.68 0 0 Z " fill="#000000" transform="translate(355,173)"/>
<path d="M0 0 C3.3 0.99 6.6 1.98 10 3 C10 3.99 10 4.98 10 6 C6.44219804 5.39009109 3.3171411 4.4216319 0 3 C0 2.01 0 1.02 0 0 Z " fill="#000000" transform="translate(299,147)"/>
<path d="M0 0 C3.3 0.66 6.6 1.32 10 2 C10 2.99 10 3.98 10 5 C5.94393835 4.53199289 2.53411321 4.12046792 -1 2 C-0.67 1.34 -0.34 0.68 0 0 Z " fill="#000000" transform="translate(280,141)"/>
<path d="M0 0 C1.258125 -0.020625 2.51625 -0.04125 3.8125 -0.0625 C4.52019531 -0.07410156 5.22789062 -0.08570313 5.95703125 -0.09765625 C8 0 8 0 11 1 C11 1.99 11 2.98 11 4 C7.7 3.67 4.4 3.34 1 3 C0.67 2.01 0.34 1.02 0 0 Z " fill="#000000" transform="translate(240,133)"/>
<path d="M0 0 C3.3 0 6.6 0 10 0 C10.33 0.99 10.66 1.98 11 3 C7.37 3 3.74 3 0 3 C0 2.01 0 1.02 0 0 Z " fill="#000000" transform="translate(220,131)"/>
<path d="M0 0 C0.99 0 1.98 0 3 0 C2.34 3.3 1.68 6.6 1 10 C0.01 10.33 -0.98 10.66 -2 11 C-1.85892253 9.54119891 -1.71197585 8.08296449 -1.5625 6.625 C-1.48128906 5.81289062 -1.40007812 5.00078125 -1.31640625 4.1640625 C-1 2 -1 2 0 0 Z " fill="#000000" transform="translate(420,126)"/>
<path d="M0 0 C3 1 3 1 3.94921875 2.84765625 C4.19285156 3.57855469 4.43648437 4.30945313 4.6875 5.0625 C4.93886719 5.79597656 5.19023438 6.52945313 5.44921875 7.28515625 C5.63097656 7.85105469 5.81273437 8.41695312 6 9 C4.68 9 3.36 9 2 9 C1.01 6.36 0.02 3.72 -1 1 C-0.67 0.67 -0.34 0.34 0 0 Z " fill="#000000" transform="translate(592,79)"/>
<path d="M0 0 C0 0.99 0 1.98 0 3 C-3.61973402 4.31626692 -6.09567131 5 -10 5 C-10 4.01 -10 3.02 -10 2 C-6.38026598 0.68373308 -3.90432869 0 0 0 Z " fill="#000000" transform="translate(499,61)"/>
<path d="M0 0 C0.99 0 1.98 0 3 0 C2.67 3.63 2.34 7.26 2 11 C1.01 11 0.02 11 -1 11 C-1.14285714 3.57142857 -1.14285714 3.57142857 0 0 Z " fill="#000000" transform="translate(393,557)"/>
<path d="M0 0 C-1 3 -1 3 -3.3125 4.1875 C-6 5 -6 5 -10 5 C-10 4.01 -10 3.02 -10 2 C-6.38026598 0.68373308 -3.90432869 0 0 0 Z " fill="#000000" transform="translate(570,198)"/>
<path d="M0 0 C0.66 0.33 1.32 0.66 2 1 C1.67 4.3 1.34 7.6 1 11 C0.01 11 -0.98 11 -2 11 C-1.85957123 9.35369672 -1.71250671 7.70795821 -1.5625 6.0625 C-1.48128906 5.14597656 -1.40007813 4.22945312 -1.31640625 3.28515625 C-1 1 -1 1 0 0 Z " fill="#000000" transform="translate(601,154)"/>
<path d="M0 0 C3.71888239 0.50712033 6.73454239 1.11608215 10 3 C10 3.99 10 4.98 10 6 C6.05879291 5.43697042 3.2491277 4.3208055 0 2 C0 1.34 0 0.68 0 0 Z " fill="#000000" transform="translate(318,155)"/>
<path d="M0 0 C3.36591866 1.44253657 5.51047079 3.33264727 8 6 C7.67 6.99 7.34 7.98 7 9 C4.36 7.02 1.72 5.04 -1 3 C-0.67 2.01 -0.34 1.02 0 0 Z " fill="#000000" transform="translate(580,64)"/>
<path d="M0 0 C0.99 0 1.98 0 3 0 C3.125 7.625 3.125 7.625 2 11 C1.34 11 0.68 11 0 11 C0 7.37 0 3.74 0 0 Z " fill="#000000" transform="translate(409,332)"/>
<path d="M0 0 C7.42857143 -0.28571429 7.42857143 -0.28571429 11 2 C10.67 2.66 10.34 3.32 10 4 C6.7 3.67 3.4 3.34 0 3 C0 2.01 0 1.02 0 0 Z " fill="#000000" transform="translate(444,213)"/>
<path d="M0 0 C0 0.99 0 1.98 0 3 C-3.21451269 4.60725635 -6.43612536 4.05748185 -10 4 C-10 3.01 -10 2.02 -10 1 C-2.25 0 -2.25 0 0 0 Z " fill="#000000" transform="translate(513,211)"/>
<path d="M0 0 C0.99 0 1.98 0 3 0 C3 3.3 3 6.6 3 10 C2.01 10.495 2.01 10.495 1 11 C-0.20272819 8.59454362 -0.10071472 7.05003047 -0.0625 4.375 C-0.05347656 3.55773437 -0.04445313 2.74046875 -0.03515625 1.8984375 C-0.02355469 1.27195312 -0.01195312 0.64546875 0 0 Z " fill="#000000" transform="translate(600,116)"/>
<path d="M0 0 C0.99 0 1.98 0 3 0 C3.66 3.3 4.32 6.6 5 10 C3.68 9.67 2.36 9.34 1 9 C0.67 6.03 0.34 3.06 0 0 Z " fill="#000000" transform="translate(597,97)"/>
<path d="M0 0 C0 0.99 0 1.98 0 3 C-3.3 3.66 -6.6 4.32 -10 5 C-10 4.01 -10 3.02 -10 2 C-3.375 0 -3.375 0 0 0 Z " fill="#000000" transform="translate(517,56)"/>
<path d="M0 0 C3.71888239 0.50712033 6.73454239 1.11608215 10 3 C9.67 3.99 9.34 4.98 9 6 C6.03 5.01 3.06 4.02 0 3 C0 2.01 0 1.02 0 0 Z " fill="#000000" transform="translate(563,56)"/>
<path d="M0 0 C0 0.99 0 1.98 0 3 C-3.47325181 4.1577506 -6.36067448 4.06866652 -10 4 C-10 3.01 -10 2.02 -10 1 C-2.25 0 -2.25 0 0 0 Z " fill="#000000" transform="translate(536,53)"/>
<path d="M0 0 C3.63 0 7.26 0 11 0 C11 0.66 11 1.32 11 2 C7.37 2 3.74 2 0 2 C0 1.34 0 0.68 0 0 Z " fill="#000000" transform="translate(524,382)"/>
<path d="M0 0 C3.63 0 7.26 0 11 0 C11 0.66 11 1.32 11 2 C7.37 2 3.74 2 0 2 C0 1.34 0 0.68 0 0 Z " fill="#000000" transform="translate(485,382)"/>
<path d="M0 0 C3.63 0 7.26 0 11 0 C11 0.66 11 1.32 11 2 C7.37 2 3.74 2 0 2 C0 1.34 0 0.68 0 0 Z " fill="#000000" transform="translate(446,382)"/>
<path d="M0 0 C3.63 0 7.26 0 11 0 C11 0.66 11 1.32 11 2 C7.37 2 3.74 2 0 2 C0 1.34 0 0.68 0 0 Z " fill="#000000" transform="translate(426,382)"/>
<path d="M0 0 C3.63 0 7.26 0 11 0 C11 0.66 11 1.32 11 2 C7.37 2 3.74 2 0 2 C0 1.34 0 0.68 0 0 Z " fill="#000000" transform="translate(387,382)"/>
<path d="M0 0 C3.63 0 7.26 0 11 0 C11 0.66 11 1.32 11 2 C7.37 2 3.74 2 0 2 C0 1.34 0 0.68 0 0 Z " fill="#000000" transform="translate(368,382)"/>
<path d="M0 0 C3.63 0 7.26 0 11 0 C11 0.66 11 1.32 11 2 C7.37 2 3.74 2 0 2 C0 1.34 0 0.68 0 0 Z " fill="#000000" transform="translate(348,382)"/>
<path d="M0 0 C3.63 0 7.26 0 11 0 C11 0.66 11 1.32 11 2 C7.37 2 3.74 2 0 2 C0 1.34 0 0.68 0 0 Z " fill="#000000" transform="translate(309,382)"/>
<path d="M0 0 C3.63 0 7.26 0 11 0 C11 0.66 11 1.32 11 2 C7.37 2 3.74 2 0 2 C0 1.34 0 0.68 0 0 Z " fill="#000000" transform="translate(270,382)"/>
<path d="M0 0 C3.3 0 6.6 0 10 0 C10 0.66 10 1.32 10 2 C6.7 2 3.4 2 0 2 C0 1.34 0 0.68 0 0 Z " fill="#000000" transform="translate(544,382)"/>
<path d="M0 0 C3.3 0 6.6 0 10 0 C10 0.66 10 1.32 10 2 C6.7 2 3.4 2 0 2 C0 1.34 0 0.68 0 0 Z " fill="#000000" transform="translate(505,382)"/>
<path d="M0 0 C3.3 0 6.6 0 10 0 C10 0.66 10 1.32 10 2 C6.7 2 3.4 2 0 2 C0 1.34 0 0.68 0 0 Z " fill="#000000" transform="translate(466,382)"/>
<path d="M0 0 C3.3 0 6.6 0 10 0 C10 0.66 10 1.32 10 2 C6.7 2 3.4 2 0 2 C0 1.34 0 0.68 0 0 Z " fill="#000000" transform="translate(329,382)"/>
<path d="M0 0 C3.3 0 6.6 0 10 0 C10 0.66 10 1.32 10 2 C6.7 2 3.4 2 0 2 C0 1.34 0 0.68 0 0 Z " fill="#000000" transform="translate(290,382)"/>
<path d="M0 0 C3.3 0 6.6 0 10 0 C10 0.66 10 1.32 10 2 C6.7 2 3.4 2 0 2 C0 1.34 0 0.68 0 0 Z " fill="#000000" transform="translate(251,382)"/>
<path d="M0 0 C-0.33 0.66 -0.66 1.32 -1 2 C-3.5625 2.625 -3.5625 2.625 -6 3 C-6.33 2.01 -6.66 1.02 -7 0 C-3.86650268 -1.04449911 -3.01031744 -0.93423645 0 0 Z " fill="#000000" transform="translate(232,517)"/>
<path d="M0 0 C0.66 0.33 1.32 0.66 2 1 C2 2.65 2 4.3 2 6 C1.01 6 0.02 6 -1 6 C-1.042721 4.33388095 -1.04063832 2.66617115 -1 1 C-0.67 0.67 -0.34 0.34 0 0 Z " fill="#000000" transform="translate(65,245)"/>
<path d="M0 0 C1.98 0 3.96 0 6 0 C6 0.66 6 1.32 6 2 C4.02 2 2.04 2 0 2 C0 1.34 0 0.68 0 0 Z " fill="#000000" transform="translate(563,382)"/>
<path d="M0 0 C1.98 0 3.96 0 6 0 C6 0.66 6 1.32 6 2 C4.02 2 2.04 2 0 2 C0 1.34 0 0.68 0 0 Z " fill="#000000" transform="translate(236,382)"/>
<path d="M0 0 C0.99 0.33 1.98 0.66 3 1 C2.67 1.99 2.34 2.98 2 4 C1.01 3.67 0.02 3.34 -1 3 C-0.67 2.01 -0.34 1.02 0 0 Z " fill="#000000" transform="translate(280,333)"/>
<path d="M0 0 C0.99 0.33 1.98 0.66 3 1 C2.67 1.99 2.34 2.98 2 4 C1.01 3.67 0.02 3.34 -1 3 C-0.67 2.01 -0.34 1.02 0 0 Z " fill="#000000" transform="translate(538,331)"/>
<path d="M0 0 C0.99 0.33 1.98 0.66 3 1 C2.67 1.99 2.34 2.98 2 4 C1.01 3.01 0.02 2.02 -1 1 C-0.67 0.67 -0.34 0.34 0 0 Z " fill="#000000" transform="translate(271,606)"/>
<path d="M0 0 C0.99 0.33 1.98 0.66 3 1 C2.67 1.99 2.34 2.98 2 4 C1.01 3.01 0.02 2.02 -1 1 C-0.67 0.67 -0.34 0.34 0 0 Z " fill="#000000" transform="translate(312,272)"/>
<path d="M0 0 C0.99 0.33 1.98 0.66 3 1 C2.67 1.99 2.34 2.98 2 4 C1.01 3.01 0.02 2.02 -1 1 C-0.67 0.67 -0.34 0.34 0 0 Z " fill="#000000" transform="translate(75,95)"/>
<path d="M0 0 C0.99 0.33 1.98 0.66 3 1 C2.67 1.99 2.34 2.98 2 4 C1.01 3.01 0.02 2.02 -1 1 C-0.67 0.67 -0.34 0.34 0 0 Z " fill="#000000" transform="translate(680,94)"/>
</svg>
