<?xml version="1.0" encoding="UTF-8"?>
<svg version="1.1" xmlns="http://www.w3.org/2000/svg" width="686" height="718">
<path d="M0 0 C2.34246765 -0.00219652 4.68446958 -0.02049131 7.02685547 -0.03930664 C20.40297341 -0.09068973 34.32143813 0.22392158 47.03076172 4.81030273 C47.77068359 5.06827637 48.51060547 5.32625 49.27294922 5.59204102 C62.81706991 10.53121584 75.02963816 18.59691942 84.84326172 29.18530273 C85.43494141 29.78342773 86.02662109 30.38155273 86.63623047 30.99780273 C92.68393916 37.36134921 96.80338716 44.47044551 100.84326172 52.18530273 C101.32923828 53.10311523 101.81521484 54.02092773 102.31591797 54.96655273 C115.48206185 81.70147487 111.66172515 113.41059248 102.47216797 140.79467773 C96.59000646 157.15810467 86.65337891 169.74794108 74.84326172 182.18530273 C74.27220703 182.83241211 73.70115234 183.47952148 73.11279297 184.14624023 C58.58378961 200.05717965 35.78275583 207.8225698 15.84326172 214.18530273 C15.09995605 214.4237793 14.35665039 214.66225586 13.59082031 214.90795898 C4.42955851 217.78950617 -4.82579776 219.83370612 -14.28173828 221.49780273 C-15.22243164 221.66948975 -16.163125 221.84117676 -17.13232422 222.01806641 C-25.491108 223.39326281 -33.7152897 223.34776686 -42.15673828 223.18530273 C-42.13168213 223.94696243 -42.10662598 224.70862213 -42.08081055 225.49336243 C-41.83967032 232.85507701 -41.60423804 240.2169459 -41.37443542 247.57902241 C-41.2562571 251.35925975 -41.13625051 255.13941585 -41.01123047 258.91943359 C-40.28232409 281.01517881 -40.02417835 303.07774714 -40.15673828 325.18530273 C-39.03222763 325.17419968 -37.90771698 325.16309662 -36.74913025 325.1516571 C-26.14106024 325.0502084 -15.53308893 324.9753023 -4.92464352 324.92624187 C0.52904066 324.90017115 5.98233258 324.86481866 11.43579102 324.80810547 C16.70075258 324.75369648 21.96533734 324.7238632 27.2305584 324.71091652 C29.2372067 324.70169265 31.24383486 324.68368033 33.25032234 324.65665245 C36.06568759 324.62024412 38.87950479 324.61536232 41.69506836 324.61767578 C42.52081863 324.5996994 43.34656891 324.58172302 44.19734192 324.5632019 C50.04198794 324.61501614 53.56924644 326.18669097 57.84326172 330.18530273 C64.77213742 338.80072019 66.93475243 348.32709647 65.84326172 359.18530273 C64.09991967 368.89653695 60.37978341 375.76072686 52.84326172 382.18530273 C46.72460054 386.16560828 41.15023876 387.33295061 33.9753418 387.29882812 C33.17511093 387.29897415 32.37488007 387.29912018 31.55039978 387.29927063 C28.9045033 387.29857378 26.25867716 387.29079202 23.61279297 387.28295898 C21.77862079 387.281094 19.94444812 387.27967047 18.11027527 387.27867126 C13.28189723 387.27485246 8.45354926 387.26502758 3.62518311 387.25396729 C-1.30146884 387.2437395 -6.22812565 387.23917071 -11.15478516 387.23413086 C-20.82211608 387.22340476 -30.48942468 387.20633595 -40.15673828 387.18530273 C-40.15411987 388.11361908 -40.15150146 389.04193542 -40.14880371 389.99838257 C-40.14017723 393.51091676 -40.13396267 397.02343937 -40.12927246 400.53598022 C-40.12678985 402.04342834 -40.12340264 403.5508753 -40.11901855 405.05831909 C-40.04138945 432.47851536 -43.59129814 457.98511374 -49.5949707 484.66552734 C-50.15226681 487.16524622 -50.69513012 489.66764636 -51.23291016 492.17163086 C-55.85578457 513.66626712 -61.49800971 533.911964 -70.15673828 554.18530273 C-70.54052643 555.08928802 -70.54052643 555.08928802 -70.93206787 556.01153564 C-83.31228339 585.14590708 -96.12548749 611.58675421 -118.37988281 634.35717773 C-119.80369081 635.8220684 -121.20148707 637.31222278 -122.59033203 638.81030273 C-150.33226676 668.22865067 -190.54116612 685.06847144 -230.53826904 686.25601196 C-235.97811966 686.37545727 -241.41710214 686.41437311 -246.8581543 686.42553711 C-249.69040751 686.43520433 -252.52192087 686.46632148 -255.35400391 686.49780273 C-292.76999682 686.71315096 -329.62819625 676.77725572 -357.28173828 650.49780273 C-372.57308003 634.5225032 -381.98103367 614.54355977 -387.15673828 593.18530273 C-387.5221875 591.83758789 -387.5221875 591.83758789 -387.89501953 590.46264648 C-394.72021365 561.16538466 -385.31818932 525.03308227 -370.01757812 499.75561523 C-357.4895297 479.93101113 -340.71726659 464.65352835 -317.58642578 458.50170898 C-301.05942574 454.92497017 -280.8259948 456.41747125 -266.15673828 465.18530273 C-258.57949353 471.54644648 -251.85431939 481.25536594 -250.15673828 491.18530273 C-249.43174988 501.9531633 -249.90980099 510.47014542 -255.81689453 519.81030273 C-258.82122718 522.8597756 -261.80801735 523.55644477 -265.84423828 524.49780273 C-278.59828597 527.8743622 -291.44476123 533.00345544 -301.15673828 542.18530273 C-301.72650391 542.6919043 -302.29626953 543.19850586 -302.88330078 543.72045898 C-311.37381013 552.23188092 -312.15632033 565.64639027 -312.20019531 577.06420898 C-311.91724554 590.87470106 -309.07120564 604.09923882 -299.15673828 614.18530273 C-286.77672684 625.1921791 -272.61296519 626.29551456 -256.75976562 625.40844727 C-239.83847093 623.9578692 -225.85955293 615.57799641 -214.45361328 603.36108398 C-190.23015064 573.97419904 -186.63881566 523.79676131 -183.46923828 487.49780273 C-183.37783066 486.46407028 -183.37783066 486.46407028 -183.28457642 485.40945435 C-181.28244627 462.36033138 -181.01624831 439.30859446 -181.09423828 416.18530273 C-181.09927081 413.54858485 -181.10383057 410.91186602 -181.10791016 408.27514648 C-181.11875971 401.91184405 -181.13535474 395.54857806 -181.15673828 389.18530273 C-181.81842734 389.19820784 -182.48011641 389.21111294 -183.16185665 389.2244091 C-199.28749683 389.53404751 -215.41219181 389.76547366 -231.5401144 389.91067314 C-239.33976143 389.98276487 -247.1374205 390.08097497 -254.93579102 390.24145508 C-261.73576026 390.38132229 -268.53428994 390.47138953 -275.33565766 390.50254166 C-278.93548494 390.52074663 -282.53119563 390.56326692 -286.1296978 390.66552353 C-307.9712513 391.26254923 -307.9712513 391.26254923 -313.22899246 387.833992 C-316.8812228 384.15061015 -318.54173543 380.04525672 -320.15673828 375.18530273 C-320.98161141 373.32735688 -321.812872 371.47219944 -322.65673828 369.62280273 C-326.06947725 360.50636577 -326.51530165 351.4687695 -322.46923828 342.50561523 C-317.53088178 333.77530642 -309.52329309 330.02684081 -300.16392517 327.31962585 C-287.93000542 324.53796817 -275.77615033 324.80512667 -263.28564453 324.89233398 C-260.9081194 324.89794034 -258.53059077 324.90220551 -256.15306091 324.90519714 C-249.94381879 324.9165641 -243.73479254 324.9459599 -237.52563477 324.97930908 C-231.17027709 325.01018705 -224.81488398 325.02374011 -218.45947266 325.03881836 C-206.02513385 325.07083841 -193.59095413 325.12193446 -181.15673828 325.18530273 C-181.22738495 323.93732407 -181.29803162 322.6893454 -181.37081909 321.40354919 C-181.8490014 312.77824471 -182.3110371 304.17424266 -182.28955078 295.53295898 C-182.29096069 294.63635056 -182.29237061 293.73974213 -182.29382324 292.81596375 C-182.29591839 289.95986705 -182.28972758 287.10388782 -182.28173828 284.24780273 C-182.27941193 282.75935852 -182.27941193 282.75935852 -182.27703857 281.24084473 C-182.23362946 257.35247741 -181.98372221 233.45542121 -180.21923828 209.62280273 C-180.14463379 208.6125 -180.0700293 207.60219727 -179.99316406 206.5612793 C-179.45029159 200.01350452 -178.44290691 193.62713207 -177.15673828 187.18530273 C-178.03894043 186.90710693 -178.92114258 186.62891113 -179.83007812 186.34228516 C-182.83507005 185.29717605 -185.54661822 184.10295068 -188.38330078 182.67358398 C-216.71152998 168.60747925 -245.80451312 156.19189774 -276.15673828 147.18530273 C-277.12160156 146.88881836 -278.08646484 146.59233398 -279.08056641 146.28686523 C-309.64894148 137.16197715 -345.76030861 139.58208701 -374.28955078 153.73999023 C-387.88140743 161.1569564 -402.91655742 173.10496325 -408.15673828 188.18530273 C-412.45957859 203.41834658 -415.10545016 219.13609427 -415.75439453 234.94702148 C-415.79502518 235.84463699 -415.83565582 236.7422525 -415.8775177 237.66706848 C-416.04042124 241.33822129 -416.19884775 245.00729636 -416.28540039 248.68115234 C-416.68608185 264.14853587 -416.68608185 264.14853587 -420.25732422 269.09448242 C-422.79603865 271.18264002 -425.22620081 272.70890955 -428.15673828 274.18530273 C-428.81714111 274.58289795 -429.47754395 274.98049316 -430.15795898 275.39013672 C-431.81630578 276.36947175 -433.548806 277.2199713 -435.28173828 278.06030273 C-436.39806641 278.61459961 -437.51439453 279.16889648 -438.66455078 279.73999023 C-454.19946559 286.16942925 -471.32049556 283.9954653 -486.57861328 277.79467773 C-500.94678032 271.00375301 -507.27571655 260.79671601 -513.03173828 246.37280273 C-513.76332887 244.31843724 -514.47458781 242.25660983 -515.15673828 240.18530273 C-515.52605469 239.10635742 -515.52605469 239.10635742 -515.90283203 238.00561523 C-519.99068322 223.51488758 -516.74856461 206.66191204 -514.15673828 192.18530273 C-513.97498047 191.13729492 -513.79322266 190.08928711 -513.60595703 189.00952148 C-507.98946919 163.83084469 -486.63567255 138.52629312 -466.15673828 124.18530273 C-465.42197266 123.64389648 -464.68720703 123.10249023 -463.93017578 122.54467773 C-429.80770937 97.70641596 -392.78092251 85.64176432 -351.15673828 81.18530273 C-349.94373047 81.0525293 -348.73072266 80.91975586 -347.48095703 80.78295898 C-285.50479418 75.25883214 -213.99975473 94.62329177 -162.15673828 129.18530273 C-161.92341797 127.99420898 -161.69009766 126.80311523 -161.44970703 125.57592773 C-160.09933619 119.52115368 -158.13406735 113.69176178 -156.11791992 107.83032227 C-155.47650927 105.95654377 -154.85264651 104.07678833 -154.22900391 102.19702148 C-150.21494701 90.46931609 -144.77944793 79.88022767 -137.46923828 69.87280273 C-136.95941406 69.16478516 -136.44958984 68.45676758 -135.92431641 67.72729492 C-134.34353173 65.54038116 -132.75038984 63.3628501 -131.15673828 61.18530273 C-130.6544873 60.48937012 -130.15223633 59.7934375 -129.63476562 59.07641602 C-111.20017775 33.537269 -86.24487907 9.58516337 -54.15673828 3.18530273 C-50.85240227 2.72031718 -47.54325344 2.41000164 -44.21923828 2.12280273 C-43.39617187 2.04481445 -42.57310547 1.96682617 -41.72509766 1.88647461 C-27.82601291 0.62101994 -13.95339188 -0.0014556 0 0 Z M-111.15283203 45.02514648 C-114.53496937 48.67099823 -117.47077912 52.61471702 -120.40673828 56.62280273 C-121.37172241 57.93269165 -121.37172241 57.93269165 -122.35620117 59.26904297 C-123.66742056 61.05356478 -124.97547987 62.8404131 -126.28027344 64.62963867 C-128.00031865 66.97226595 -129.75015297 69.28828446 -131.51220703 71.59936523 C-144.67213845 89.11588559 -150.49793318 109.55475262 -157.13867188 130.1652832 C-158.05521496 132.88414124 -159.06080436 135.53448562 -160.15673828 138.18530273 C-160.76114746 137.74524902 -161.36555664 137.30519531 -161.98828125 136.85180664 C-220.17566109 95.20295417 -301.80973787 78.78583365 -371.37158203 89.68920898 C-406.59154507 95.68504128 -438.34560271 110.34069574 -466.52783203 132.15795898 C-468.15664385 133.41405607 -469.81181521 134.63764371 -471.50439453 135.80639648 C-483.70416322 144.43445159 -491.76898567 158.47127084 -499.15673828 171.18530273 C-499.5025293 171.76747559 -499.84832031 172.34964844 -500.20458984 172.94946289 C-510.67689524 190.83492241 -514.89433313 217.61239624 -509.77319336 237.87548828 C-505.61093554 252.2051941 -498.87059987 264.55264635 -485.46923828 271.93530273 C-472.62908385 277.84801822 -456.78609384 279.98244613 -443.28173828 275.12280273 C-436.50114586 272.13763626 -429.43508773 268.46365218 -424.15673828 263.18530273 C-423.82907996 260.67672185 -423.61782651 258.25263283 -423.48095703 255.73217773 C-423.37747167 254.16117456 -423.27335927 252.59021259 -423.16870117 251.01928711 C-423.09016403 249.77538208 -423.09016403 249.77538208 -423.01004028 248.50634766 C-422.14777372 235.13542297 -420.94606701 221.90139915 -418.71923828 208.68530273 C-418.42956177 206.93878418 -418.42956177 206.93878418 -418.1340332 205.15698242 C-415.62072248 190.96923572 -412.75047896 180.05032492 -403.15673828 169.18530273 C-402.33044922 168.2481543 -401.50416016 167.31100586 -400.65283203 166.34545898 C-382.7842449 147.3584208 -357.30844706 137.01243772 -331.390625 136.04467773 C-296.22391274 135.13459318 -296.22391274 135.13459318 -279.15673828 140.18530273 C-278.30080078 140.43199707 -277.44486328 140.67869141 -276.56298828 140.93286133 C-270.03301479 142.84330077 -263.59010555 144.97376127 -257.15673828 147.18530273 C-255.85494629 147.62567871 -255.85494629 147.62567871 -254.52685547 148.07495117 C-226.474346 157.62272141 -199.20805162 170.23264131 -172.91455078 183.86645508 C-170.36551255 185.32911181 -170.36551255 185.32911181 -168.15673828 185.18530273 C-168.83736328 185.89686523 -168.83736328 185.89686523 -169.53173828 186.62280273 C-183.58558438 208.78463697 -176.33146095 254.34125245 -176.28710938 280.48608398 C-176.28133293 283.91842441 -176.28476767 287.35068791 -176.29068184 290.78302574 C-176.29520936 294.15410305 -176.29202303 297.52516076 -176.28955078 300.89624023 C-176.29258713 302.69827408 -176.29258713 302.69827408 -176.29568481 304.53671265 C-176.27152582 313.45230784 -175.79153661 322.29658781 -175.15673828 331.18530273 C-175.73228045 331.18253736 -176.30782263 331.17977198 -176.90080547 331.1769228 C-190.95865111 331.11043044 -205.01647292 331.06090972 -219.07444286 331.02986622 C-225.8730099 331.0144516 -232.67147143 330.99346669 -239.4699707 330.95898438 C-246.03817149 330.92568627 -252.60630413 330.90841925 -259.17458534 330.90067101 C-261.67304515 330.89515338 -264.17149939 330.88437917 -266.66991234 330.86811256 C-290.90428054 330.69827919 -290.90428054 330.69827919 -312.90673828 339.93530273 C-317.23282583 344.26139028 -319.37365733 348.85787457 -319.65673828 354.99780273 C-319.19414406 364.77197104 -314.11360814 377.22843287 -307.15673828 384.18530273 C-305.4484814 384.2815231 -303.73621714 384.30717902 -302.0252533 384.30555725 C-300.9132103 384.30693192 -299.8011673 384.30830658 -298.65542603 384.3097229 C-297.42472382 384.30612762 -296.19402161 384.30253235 -294.92602539 384.29882812 C-292.99459938 384.29904716 -292.99459938 384.29904716 -291.02415466 384.29927063 C-287.48299068 384.29955859 -283.94186029 384.2936621 -280.40070415 384.28669667 C-276.7037884 384.2804629 -273.00687197 384.27985932 -269.30995178 384.27867126 C-262.30469929 384.27555802 -255.29946233 384.26734472 -248.29421669 384.25732177 C-240.32094953 384.24616043 -232.34768163 384.24065014 -224.3744086 384.23562634 C-207.96850939 384.2251621 -191.56262582 384.20756279 -175.15673828 384.18530273 C-175.13740885 391.88526498 -175.12445834 399.58522077 -175.11553955 407.28520203 C-175.1118137 409.89390802 -175.10673131 412.50261249 -175.10015869 415.11131287 C-174.95469026 474.41893484 -176.7640621 537.10418703 -201.15673828 592.18530273 C-201.59759766 593.20881836 -202.03845703 594.23233398 -202.49267578 595.28686523 C-209.62777069 610.75421863 -222.5760681 620.95547613 -238.15673828 627.18530273 C-254.15311011 632.99748928 -274.42434484 634.4637951 -290.15673828 627.18530273 C-301.50084692 621.67623848 -309.14821468 613.76354251 -314.15673828 602.18530273 C-316.88421807 593.34617979 -317.62669787 584.82860705 -317.53173828 575.62280273 C-317.54914063 573.92994141 -317.54914063 573.92994141 -317.56689453 572.20288086 C-317.52311034 559.51276357 -315.06644846 547.99697974 -306.48095703 538.29077148 C-296.65644623 528.9711606 -284.06568444 524.08727109 -271.50439453 519.72827148 C-264.46095988 517.60905138 -264.46095988 517.60905138 -258.63330078 513.49389648 C-254.43243573 504.26355538 -254.58295457 496.89859815 -257.84814453 487.30639648 C-259.73217168 482.81285113 -262.16616863 479.01323189 -265.15673828 475.18530273 C-265.75228516 474.33323242 -266.34783203 473.48116211 -266.96142578 472.60327148 C-273.54418092 465.35287036 -286.58404298 463.55416749 -295.99267578 462.93139648 C-317.53614301 462.10779313 -334.32121231 469.73332936 -350.30517578 484.11889648 C-355.39123201 488.96136764 -359.37628359 494.28263825 -363.15673828 500.18530273 C-364.03845703 501.56008789 -364.03845703 501.56008789 -364.93798828 502.96264648 C-373.19648804 516.45515157 -377.65700026 530.87875622 -381.15673828 546.18530273 C-381.40552734 547.27069336 -381.65431641 548.35608398 -381.91064453 549.47436523 C-387.24377482 577.74368521 -380.55090297 607.46426984 -364.65161133 631.31835938 C-347.22007191 656.42140838 -320.64059185 671.88587734 -290.8144989 677.63693237 C-277.84327661 679.89268688 -265.11429949 680.63457463 -251.96289062 680.52148438 C-249.02592599 680.49775578 -246.08986954 680.5009765 -243.15283203 680.50756836 C-227.93123106 680.48601917 -212.21255781 680.19357802 -197.46923828 675.99780273 C-196.69290039 675.78422119 -195.9165625 675.57063965 -195.11669922 675.35058594 C-187.11352106 673.04775387 -179.62085153 669.84925964 -172.15673828 666.18530273 C-171.53879395 665.88785156 -170.92084961 665.59040039 -170.28417969 665.28393555 C-120.77416968 641.21205157 -95.43101485 598.82395163 -74.91973877 549.98956299 C-74.23537101 548.37124484 -73.53657657 546.75904544 -72.8359375 545.14770508 C-63.94738385 524.62295986 -59.58267192 502.57629319 -54.74450684 480.82733154 C-54.20618663 478.40757382 -53.66291588 475.98898273 -53.11865234 473.57055664 C-47.72126228 449.43053927 -46.15919915 425.99208989 -45.61376953 401.35717773 C-45.56890029 399.39412035 -45.52385763 397.43106692 -45.4786377 395.46801758 C-45.36934059 390.70715583 -45.26238336 385.94624687 -45.15673828 381.18530273 C-44.09708862 381.19418518 -43.03743896 381.20306763 -41.94567871 381.21221924 C-31.94125279 381.29343755 -21.93689409 381.35333168 -11.93221283 381.39255142 C-6.78914102 381.41339284 -1.64633616 381.44164756 3.49658203 381.48706055 C8.46327831 381.53064113 13.4297184 381.55446574 18.39659119 381.56481171 C20.28795909 381.57218117 22.17931356 381.58657202 24.0705719 381.60822296 C26.72752775 381.63741955 29.38343592 381.641252 32.04052734 381.6394043 C32.81592865 381.6537854 33.59132996 381.6681665 34.39022827 381.6829834 C41.31510007 381.6311501 46.37479688 379.31715873 51.59326172 374.81030273 C57.98182152 367.35698297 60.31677473 360.72439101 60.08935547 350.95874023 C59.40146571 343.20633181 56.5246655 337.50271686 50.84326172 332.18530273 C47.48190639 330.50462507 43.68328679 331.05655169 39.98730469 331.07177734 C39.05531816 331.07165681 38.12333164 331.07153627 37.1631031 331.07141209 C34.13719445 331.07216028 31.1113469 331.07978429 28.08544922 331.08764648 C26.22094757 331.08911619 24.35644551 331.09013673 22.49194336 331.09069824 C15.56737653 331.09594778 8.64281853 331.10990891 1.71826172 331.12280273 C-21.48486328 331.15374023 -21.48486328 331.15374023 -45.15673828 331.18530273 C-46.14673828 293.23530273 -47.13673828 255.28530273 -48.15673828 216.18530273 C-47.49673828 216.51530273 -46.83673828 216.84530273 -46.15673828 217.18530273 C-24.33275344 219.3246198 -2.76152981 213.80412681 17.84326172 207.18530273 C18.64328613 206.92910156 19.44331055 206.67290039 20.26757812 206.40893555 C51.19894106 196.27854876 76.8181347 179.10251908 91.96826172 149.56030273 C97.96046642 137.35644041 101.03040133 125.30688828 103.15576172 111.93530273 C103.41341309 110.32002686 103.41341309 110.32002686 103.67626953 108.67211914 C107.29091958 84.02231878 101.34818665 60.42512941 86.84326172 40.18530273 C73.19175533 22.14809044 52.21637168 10.11810685 29.90478516 6.90625 C20.9689987 5.81677884 11.95506006 5.9874535 2.96826172 5.99780273 C1.64533615 5.9982106 1.64533615 5.9982106 0.29568481 5.99862671 C-44.60727727 6.06210851 -78.74445103 12.30693393 -111.15283203 45.02514648 Z " fill="#000000" transform="translate(528.15673828125,31.814697265625)"/>
<path d="M0 0 C5.71578854 4.26189719 11.03330827 8.95591176 16.1875 13.875 C16.86039063 14.473125 17.53328125 15.07125 18.2265625 15.6875 C35.37554528 31.53835261 46.26143389 57.42775548 47.31005859 80.58105469 C47.6701931 94.29235736 47.56168632 107.53981798 44.1875 120.875 C44.00477539 121.62845703 43.82205078 122.38191406 43.63378906 123.15820312 C38.95237513 141.96072937 30.8248814 160.32800717 19.1875 175.875 C18.50042969 176.8546875 17.81335938 177.834375 17.10546875 178.84375 C-5.56339347 210.04722644 -38.91699096 232.10680917 -77.14453125 238.42578125 C-82.68715148 239.1045899 -88.19533388 239.06097577 -93.7734375 239.06030273 C-95.80750297 239.06249462 -97.84102969 239.08071269 -99.875 239.09960938 C-101.8240625 239.10250977 -101.8240625 239.10250977 -103.8125 239.10546875 C-104.988125 239.10957764 -106.16375 239.11368652 -107.375 239.11791992 C-111.1642266 238.85014432 -114.20844296 238.03488347 -117.8125 236.875 C-117.8125 236.215 -117.8125 235.555 -117.8125 234.875 C-116.77544922 234.89071045 -115.73839844 234.9064209 -114.66992188 234.92260742 C-110.74113044 234.97781191 -106.81237146 235.01167121 -102.88330078 235.03979492 C-101.19802038 235.05467916 -99.51277724 235.07499321 -97.82763672 235.10131836 C-62.06120645 235.64517284 -31.01894047 221.75633217 -4.8125 197.875 C-3.87792969 197.02421875 -2.94335938 196.1734375 -1.98046875 195.296875 C20.03380702 174.25891189 34.33387476 146.32726334 41.1875 116.875 C41.55681641 115.33972656 41.55681641 115.33972656 41.93359375 113.7734375 C47.36652865 85.97179822 42.16149907 56.81564278 27.1875 32.875 C11.64324391 10.05060687 -11.00600386 -5.01460121 -36.8125 -14.125 C-37.50085938 -14.3734668 -38.18921875 -14.62193359 -38.8984375 -14.87792969 C-58.43876204 -21.83520228 -79.15890306 -25.53556709 -99.8125 -27.125 C-100.62944336 -27.19203125 -101.44638672 -27.2590625 -102.28808594 -27.328125 C-136.0567546 -29.98767937 -163.38515496 -17.73862227 -188.77832031 3.86401367 C-198.0677437 11.8663067 -206.18404002 20.25813815 -213.8125 29.875 C-215.02292969 31.37740234 -215.02292969 31.37740234 -216.2578125 32.91015625 C-231.14910962 51.61507824 -242.10394356 72.2946305 -249.8125 94.875 C-249.4825 95.205 -249.1525 95.535 -248.8125 95.875 C-247.3275 95.38 -247.3275 95.38 -245.8125 94.875 C-245.8125 96.195 -245.8125 97.515 -245.8125 98.875 C-250.98828125 102.09765625 -250.98828125 102.09765625 -252.8125 102.875 C-256.13618224 101.76710592 -256.42813093 101.39063783 -258.0625 98.5 C-258.41828125 97.89414063 -258.7740625 97.28828125 -259.140625 96.6640625 C-259.8125 94.875 -259.8125 94.875 -258.8125 91.875 C-257.4925 93.195 -256.1725 94.515 -254.8125 95.875 C-254.53164551 95.15135254 -254.25079102 94.42770508 -253.96142578 93.68212891 C-241.77089918 62.48130444 -225.92061698 36.32439786 -202.8125 11.875 C-202.00941406 11.01777344 -201.20632813 10.16054688 -200.37890625 9.27734375 C-148.50660275 -44.46883607 -59.46512482 -42.59901704 0 0 Z " fill="#000000" transform="translate(613.8125,31.125)"/>
<path d="M0 0 C8.60409251 7.54887361 12.47154172 19.76611606 13.21069336 30.93823242 C14.19947993 54.6419863 6.73628752 71.26492755 -8.9296875 88.81640625 C-9.56003906 89.60273438 -10.19039062 90.3890625 -10.83984375 91.19921875 C-20.92883998 103.74487363 -37.65254262 107.62199231 -53.015625 109.546875 C-61.30792276 110.11790149 -69.62349185 109.9709733 -77.9296875 109.81640625 C-78.1733541 100.5464393 -77.4903678 91.67626124 -76.1796875 82.50390625 C-75.99776855 81.20372559 -75.81584961 79.90354492 -75.62841797 78.56396484 C-75.07618659 74.64605126 -74.50198112 70.73143775 -73.9296875 66.81640625 C-73.68943848 65.10300049 -73.68943848 65.10300049 -73.44433594 63.35498047 C-70.3981281 41.75665549 -64.9944958 18.94082357 -47.9296875 3.81640625 C-33.84618275 -6.50239432 -14.9844479 -10.83370362 0 0 Z M-49.98828125 14.3125 C-61.42375316 29.0612676 -65.27377235 47.17559131 -67.81542969 65.234375 C-68.17966313 67.81623347 -68.56480972 70.39432103 -68.953125 72.97265625 C-70.46825259 83.24789591 -71.47670878 93.4377578 -71.9296875 103.81640625 C-54.49098126 104.37753834 -33.94758375 103.26855064 -19.8828125 91.65625 C-7.56932899 80.05694853 5.87449993 64.39820634 7.23144531 46.71679688 C7.50168462 32.27470575 7.69993006 17.41633966 -2.5625 6 C-8.09669272 0.8504709 -14.08914194 -0.64457133 -21.546875 -0.4296875 C-32.50390344 0.70194003 -42.50075897 6.34093588 -49.98828125 14.3125 Z " fill="#000000" transform="translate(555.9296875,89.18359375)"/>
<path d="M0 0 C58.21986186 -0.92965847 115.10174525 13.93993237 170.2265625 31.125 C169.8965625 29.145 169.5665625 27.165 169.2265625 25.125 C172.2265625 26.125 172.2265625 26.125 173.9140625 28.9375 C175.2265625 32.125 175.2265625 32.125 175.2265625 36.125 C173.93742763 36.79654933 172.64516046 37.46208859 171.3515625 38.125 C170.63226563 38.49625 169.91296875 38.8675 169.171875 39.25 C167.2265625 40.125 167.2265625 40.125 165.2265625 40.125 C165.2265625 39.135 165.2265625 38.145 165.2265625 37.125 C166.5465625 36.795 167.8665625 36.465 169.2265625 36.125 C169.2265625 35.465 169.2265625 34.805 169.2265625 34.125 C168.05480469 33.88910156 166.88304687 33.65320313 165.67578125 33.41015625 C159.41621082 32.01846417 153.32207568 30.08212805 147.19268799 28.21472168 C110.16232124 17.00014044 71.88824462 8.08125573 33.2265625 5.125 C31.32583984 4.96064453 31.32583984 4.96064453 29.38671875 4.79296875 C-18.84966929 1.12014733 -74.46790254 6.60915658 -112.7734375 39.125 C-113.62808594 39.84171875 -114.48273438 40.5584375 -115.36328125 41.296875 C-145.51643675 67.50084989 -160.29328878 104.94192403 -163.5925293 144.2253418 C-163.92313869 149.52446155 -163.963991 154.81687984 -163.9609375 160.125 C-163.96158203 161.29893311 -163.96222656 162.47286621 -163.96289062 163.68237305 C-163.9110394 172.32090501 -163.31867686 180.76998527 -162.2109375 189.33203125 C-161.82882645 192.6447976 -161.6898206 195.796002 -161.7734375 199.125 C-162.7634375 199.125 -163.7534375 199.125 -164.7734375 199.125 C-170.91830009 154.36773843 -169.18106994 103.6830778 -141.76953125 65.42578125 C-141.27646484 64.78189453 -141.27646484 64.78189453 -140.7734375 64.125 C-141.2684375 63.63 -141.2684375 63.63 -141.7734375 63.125 C-142.00707631 61.27608054 -142.18647385 59.42011969 -142.3359375 57.5625 C-142.41972656 56.55058594 -142.50351563 55.53867188 -142.58984375 54.49609375 C-142.65042969 53.71363281 -142.71101563 52.93117187 -142.7734375 52.125 C-144.2584375 52.62 -144.2584375 52.62 -145.7734375 53.125 C-145.7734375 52.135 -145.7734375 51.145 -145.7734375 50.125 C-142.7734375 48.125 -142.7734375 48.125 -139.7734375 48.125 C-139.4434375 52.415 -139.1134375 56.705 -138.7734375 61.125 C-137.7628125 59.784375 -136.7521875 58.44375 -135.7109375 57.0625 C-107.4141015 21.9525418 -67.24218273 6.27486924 -23.32470703 1.38623047 C-15.55384829 0.59055402 -7.8034309 0.25849875 0 0 Z " fill="#000000" transform="translate(167.7734375,96.875)"/>
<path d="M0 0 C0.99 0 1.98 0 3 0 C4.75961175 154.87290459 4.75961175 154.87290459 -30.9140625 197.94921875 C-41.76960115 208.62179889 -57.0331949 214.93502887 -72.25 215.3125 C-83.33970474 214.8825276 -92.76700953 211.22482544 -100.4375 203.00390625 C-109.71049433 191.11129103 -111.74905651 175.6168753 -110 161 C-108.91981792 157.11134451 -107.40045568 154.2250397 -105 151 C-104.50371094 150.29875 -104.00742188 149.5975 -103.49609375 148.875 C-95.92339292 139.24033484 -85.58643493 134.96568525 -74 132 C-74 129.57202689 -74.50085685 127.37092995 -75 125 C-71.65001479 126.11666174 -71.20659778 126.74694925 -69.3125 129.5625 C-68.87550781 130.20316406 -68.43851562 130.84382812 -67.98828125 131.50390625 C-67.66214844 131.99761719 -67.33601563 132.49132812 -67 133 C-68.49128001 136.79598549 -70.65733441 138.71720399 -74 141 C-74.99 141 -75.98 141 -77 141 C-77 140.01 -77 139.02 -77 138 C-76.34 137.67 -75.68 137.34 -75 137 C-85.17839133 137.45237295 -93.3544605 143.47221356 -100.12109375 150.7109375 C-105.82710416 157.66254269 -107.43033402 164.4122782 -106.74609375 173.296875 C-105.22394263 185.85804999 -102.03166476 197.65974465 -91.75 205.8125 C-83.01691128 211.46894259 -73.05870186 212.10005743 -62.9921875 210.53125 C-49.99549295 207.68080002 -37.74913198 201.47876187 -30.140625 190.2578125 C-9.85202065 152.93794853 -4.50673181 104.91255589 -2 63 C-1.9489209 62.18112305 -1.8978418 61.36224609 -1.84521484 60.51855469 C-0.63649185 40.3785615 -0.44846835 20.16809754 0 0 Z " fill="#000000" transform="translate(339,432)"/>
<path d="M0 0 C4.25219775 0.47246642 6.37314725 2.77272377 9 6 C9.20186821 9.2298914 7.74906457 10.29055681 5.625 12.75 C3 15 3 15 0 15 C0.875 11.125 0.875 11.125 2 10 C-28.69 9.67 -59.38 9.34 -91 9 C-91 8.01 -91 7.02 -91 6 C-74.83 5.67 -58.66 5.34 -42 5 C-41.67 4.01 -41.34 3.02 -41 2 C-40.01 2.33 -39.02 2.66 -38 3 C-38.33 3.99 -38.66 4.98 -39 6 C-25.47 5.67 -11.94 5.34 2 5 C1.01 4.01 1.01 4.01 0 3 C0 2.01 0 1.02 0 0 Z " fill="#000000" transform="translate(318,339)"/>
<path d="M0 0 C0.66 0 1.32 0 2 0 C2.14357966 12.69882302 1.87986864 25.37068657 1.5 38.0625 C0.93882235 57.11969454 0.87633503 75.95789181 2 95 C4.475 94.01 4.475 94.01 7 93 C6.49701212 97.40114397 4.91227269 99.71195019 2 103 C-2.38462134 102.49890042 -4.8000997 101.01704885 -8 98 C-8 97.34 -8 96.68 -8 96 C-3.125 96.875 -3.125 96.875 -2 98 C-2.00222061 97.10924774 -2.00444122 96.21849548 -2.00672913 95.30075073 C-2.02697774 86.80167418 -2.0420971 78.30260603 -2.05181217 69.80351067 C-2.05697505 65.43670476 -2.06394871 61.0699192 -2.07543945 56.703125 C-2.16104656 23.24691061 -2.16104656 23.24691061 -1.55859375 9.6328125 C-1.51960464 8.74109344 -1.48061554 7.84937439 -1.44044495 6.93063354 C-1.13390914 1.13390914 -1.13390914 1.13390914 0 0 Z " fill="#000000" transform="translate(337,225)"/>
<path d="M0 0 C3.81684226 1.55500981 6.19195732 4.03595495 9 7 C7.44396229 10.81936528 5.04395069 13.26044438 2 16 C1.34 16 0.68 16 0 16 C0.57344937 13.13275314 0.8614515 12.1385485 3 10 C-19.77 9.67 -42.54 9.34 -66 9 C-66 8.34 -66 7.68 -66 7 C-31.845 6.505 -31.845 6.505 3 6 C2.01 5.01 1.02 4.02 0 3 C0 2.01 0 1.02 0 0 Z " fill="#000000" transform="translate(563,337)"/>
<path d="M0 0 C1.4540625 0.0309375 1.4540625 0.0309375 2.9375 0.0625 C5.0625 4.6875 5.0625 4.6875 3.9375 8.0625 C4.26300502 9.73071323 4.59596063 11.39749557 4.9375 13.0625 C4.6075 13.7225 4.2775 14.3825 3.9375 15.0625 C1.125 15.9375 1.125 15.9375 -2.0625 16.0625 C-4.4375 14.125 -4.4375 14.125 -6.0625 12.0625 C-2.43923261 10.8547442 -1.42103631 11.51938872 1.9375 13.0625 C1.9375 11.7425 1.9375 10.4225 1.9375 9.0625 C0.6175 9.0625 -0.7025 9.0625 -2.0625 9.0625 C-2.0625 8.0725 -2.0625 7.0825 -2.0625 6.0625 C-0.7425 6.0625 0.5775 6.0625 1.9375 6.0625 C1.6075 5.0725 1.2775 4.0825 0.9375 3.0625 C-1.0425 3.7225 -3.0225 4.3825 -5.0625 5.0625 C-3.9375 0.08035714 -3.9375 0.08035714 0 0 Z " fill="#000000" transform="translate(329.0625,267.9375)"/>
<path d="M0 0 C3.0625 0.1875 3.0625 0.1875 5.0625 2.1875 C4.90004442 5.92397845 4.47466356 7.71288742 2 10.5625 C1.360625 11.09875 0.72125 11.635 0.0625 12.1875 C1.7125 12.5175 3.3625 12.8475 5.0625 13.1875 C5.0625 13.8475 5.0625 14.5075 5.0625 15.1875 C1.7625 15.1875 -1.5375 15.1875 -4.9375 15.1875 C-2.9375 11.1875 -2.9375 11.1875 -0.8125 8.625 C1.36735538 6.30372611 1.36735538 6.30372611 1.0625 3.1875 C0.4025 3.1875 -0.2575 3.1875 -0.9375 3.1875 C-1.2675 3.8475 -1.5975 4.5075 -1.9375 5.1875 C-2.9275 5.1875 -3.9175 5.1875 -4.9375 5.1875 C-3.82120474 0.24390669 -3.82120474 0.24390669 0 0 Z " fill="#000000" transform="translate(678.9375,89.8125)"/>
<path d="M0 0 C2.875 -0.125 2.875 -0.125 6 0 C6.66 0.66 7.32 1.32 8 2 C7.83754442 5.73647845 7.41216356 7.52538742 4.9375 10.375 C4.298125 10.91125 3.65875 11.4475 3 12 C4.65 12.33 6.3 12.66 8 13 C8 13.66 8 14.32 8 15 C4.7 15 1.4 15 -2 15 C0 11 0 11 2.125 8.4375 C4.30485538 6.11622611 4.30485538 6.11622611 4 3 C3.34 3 2.68 3 2 3 C1.67 3.66 1.34 4.32 1 5 C0.01 5 -0.98 5 -2 5 C-1.34 3.35 -0.68 1.7 0 0 Z " fill="#000000" transform="translate(266,329)"/>
<path d="M0 0 C2.875 -0.125 2.875 -0.125 6 0 C6.66 0.66 7.32 1.32 8 2 C7.83754442 5.73647845 7.41216356 7.52538742 4.9375 10.375 C4.298125 10.91125 3.65875 11.4475 3 12 C4.65 12.33 6.3 12.66 8 13 C8 13.66 8 14.32 8 15 C4.7 15 1.4 15 -2 15 C0 11 0 11 2.125 8.4375 C4.30485538 6.11622611 4.30485538 6.11622611 4 3 C3.34 3 2.68 3 2 3 C1.67 3.66 1.34 4.32 1 5 C0.01 5 -0.98 5 -2 5 C-1.34 3.35 -0.68 1.7 0 0 Z " fill="#000000" transform="translate(524,327)"/>
<path d="M0 0 C2.33944736 0.28730055 4.6739143 0.61936779 7 1 C7.36630156 4.93774177 7.30233203 6.56539771 5 9.875 C4.34 10.57625 3.68 11.2775 3 12 C4.65 12.33 6.3 12.66 8 13 C8 13.66 8 14.32 8 15 C4.7 15 1.4 15 -2 15 C-0.66837689 11.00513068 1.05840921 8.94159079 4 6 C4 5.01 4 4.02 4 3 C2.02 3.66 0.04 4.32 -2 5 C-1.125 1.125 -1.125 1.125 0 0 Z " fill="#000000" transform="translate(542,327)"/>
<path d="M0 0 C0.99 0 1.98 0 3 0 C3 3.3 3 6.6 3 10 C3.66 10 4.32 10 5 10 C5 10.66 5 11.32 5 12 C4.34 12 3.68 12 3 12 C3 12.99 3 13.98 3 15 C2.34 15 1.68 15 1 15 C1 14.01 1 13.02 1 12 C-1.31 12 -3.62 12 -6 12 C-5.56629155 7.2292071 -3.35665609 3.36635741 0 0 Z M0 4 C-0.99 5.98 -1.98 7.96 -3 10 C-1.68 10 -0.36 10 1 10 C1 8.02 1 6.04 1 4 C0.67 4 0.34 4 0 4 Z " fill="#000000" transform="translate(285,623)"/>
<path d="M0 0 C3.3 0.99 6.6 1.98 10 3 C10.77916092 8.02125926 11.13016601 11.97703996 10 17 C9.01 17 8.02 17 7 17 C7 13.37 7 9.74 7 6 C4.36 5.01 1.72 4.02 -1 3 C-0.67 2.01 -0.34 1.02 0 0 Z " fill="#000000" transform="translate(403,211)"/>
<path d="M0 0 C0 4.95 0 9.9 0 15 C-0.99 15 -1.98 15 -3 15 C-3 11.37 -3 7.74 -3 4 C-3.99 4.33 -4.98 4.66 -6 5 C-5.625 3.0625 -5.625 3.0625 -5 1 C-3 0 -3 0 0 0 Z " fill="#000000" transform="translate(271,623)"/>
<path d="M0 0 C0 4.95 0 9.9 0 15 C-0.99 15 -1.98 15 -3 15 C-3 11.37 -3 7.74 -3 4 C-3.99 4.33 -4.98 4.66 -6 5 C-5.625 3.0625 -5.625 3.0625 -5 1 C-3 0 -3 0 0 0 Z " fill="#000000" transform="translate(286,329)"/>
<path d="M0 0 C0 4.95 0 9.9 0 15 C-0.99 15 -1.98 15 -3 15 C-3 11.37 -3 7.74 -3 4 C-3.99 4.33 -4.98 4.66 -6 5 C-5.625 3.0625 -5.625 3.0625 -5 1 C-3 0 -3 0 0 0 Z " fill="#000000" transform="translate(316,268)"/>
<path d="M0 0 C0 4.95 0 9.9 0 15 C-0.99 15 -1.98 15 -3 15 C-3 11.37 -3 7.74 -3 4 C-3.99 4.33 -4.98 4.66 -6 5 C-5.625 3.0625 -5.625 3.0625 -5 1 C-3 0 -3 0 0 0 Z " fill="#000000" transform="translate(16,145)"/>
<path d="M0 0 C0 4.95 0 9.9 0 15 C-0.99 15 -1.98 15 -3 15 C-3 11.37 -3 7.74 -3 4 C-3.99 4.33 -4.98 4.66 -6 5 C-5.625 3.0625 -5.625 3.0625 -5 1 C-3 0 -3 0 0 0 Z " fill="#000000" transform="translate(666,90)"/>
<path d="M0 0 C0.99 0 1.98 0 3 0 C3 2.97 3 5.94 3 9 C5.64 9 8.28 9 11 9 C11 9.66 11 10.32 11 11 C7.37 11 3.74 11 0 11 C0 7.37 0 3.74 0 0 Z " fill="#000000" transform="translate(404,381)"/>
<path d="M0 0 C0.99 0 1.98 0 3 0 C2.44449305 3.59905908 1.25112752 4.99909799 -1.5625 7.25 C-2.20316406 7.77078125 -2.84382813 8.2915625 -3.50390625 8.828125 C-3.99761719 9.21484375 -4.49132812 9.6015625 -5 10 C-5 4.90962386 -3.48257717 3.56356734 0 0 Z " fill="#000000" transform="translate(439,97)"/>
<path d="M0 0 C0.99 0 1.98 0 3 0 C3 3.96 3 7.92 3 12 C2.01 12 1.02 12 0 12 C0 8.04 0 4.08 0 0 Z " fill="#000000" transform="translate(408,278)"/>
<path d="M0 0 C0.99 0 1.98 0 3 0 C3 3.96 3 7.92 3 12 C2.01 12 1.02 12 0 12 C0 8.04 0 4.08 0 0 Z " fill="#000000" transform="translate(413,155)"/>
<path d="M0 0 C3.59391114 1.33488128 6.75490696 2.96022723 10 5 C9.67 5.99 9.34 6.98 9 8 C7.70359622 7.40606618 6.41301161 6.79942011 5.125 6.1875 C4.40570313 5.85105469 3.68640625 5.51460937 2.9453125 5.16796875 C1 4 1 4 -1 1 C-0.67 0.67 -0.34 0.34 0 0 Z " fill="#000000" transform="translate(212,673)"/>
<path d="M0 0 C0.33 0.99 0.66 1.98 1 3 C-0.26691507 3.67408308 -1.53870749 4.33900497 -2.8125 5 C-3.52019531 5.37125 -4.22789062 5.7425 -4.95703125 6.125 C-7 7 -7 7 -10 7 C-10 6.01 -10 5.02 -10 4 C-8.71086513 3.32845067 -7.41859796 2.66291141 -6.125 2 C-5.40570313 1.62875 -4.68640625 1.2575 -3.9453125 0.875 C-2 0 -2 0 0 0 Z " fill="#000000" transform="translate(340,667)"/>
<path d="M0 0 C0.99 0 1.98 0 3 0 C3 3.63 3 7.26 3 11 C2.01 11.33 1.02 11.66 0 12 C0 8.04 0 4.08 0 0 Z " fill="#000000" transform="translate(405,360)"/>
<path d="M0 0 C3.48670834 1.1094072 6.77484237 2.26337666 10 4 C9.67 4.99 9.34 5.98 9 7 C5.51329166 5.8905928 2.22515763 4.73662334 -1 3 C-0.67 2.01 -0.34 1.02 0 0 Z " fill="#000000" transform="translate(334,171)"/>
<path d="M0 0 C0 0.66 0 1.32 0 2 C-1.26839526 2.50615298 -2.53983102 3.00469099 -3.8125 3.5 C-4.87404297 3.91765625 -4.87404297 3.91765625 -5.95703125 4.34375 C-8 5 -8 5 -11 5 C-11 4.01 -11 3.02 -11 2 C-3.57142857 -1.57142857 -3.57142857 -1.57142857 0 0 Z " fill="#000000" transform="translate(148,151)"/>
<path d="M0 0 C0.99 0.33 1.98 0.66 3 1 C1.35 4.3 -0.3 7.6 -2 11 C-2.99 10.67 -3.98 10.34 -5 10 C-3.84414715 6.08788267 -2.64465038 3.1254959 0 0 Z " fill="#000000" transform="translate(426,114)"/>
<path d="M0 0 C0 0.99 0 1.98 0 3 C-1.6796875 4.38671875 -1.6796875 4.38671875 -3.875 5.6875 C-4.59429687 6.12449219 -5.31359375 6.56148438 -6.0546875 7.01171875 C-8 8 -8 8 -10 8 C-9.875 6.25 -9.875 6.25 -9 4 C-3.88888889 0 -3.88888889 0 0 0 Z " fill="#000000" transform="translate(459,84)"/>
<path d="M0 0 C-0.33 1.32 -0.66 2.64 -1 4 C-4.3 4.33 -7.6 4.66 -11 5 C-10.67 4.01 -10.34 3.02 -10 2 C-8.22265625 1.26953125 -8.22265625 1.26953125 -6.0625 0.8125 C-4.99708984 0.57466797 -4.99708984 0.57466797 -3.91015625 0.33203125 C-2 0 -2 0 0 0 Z " fill="#000000" transform="translate(302,682)"/>
<path d="M0 0 C0 0.66 0 1.32 0 2 C-1.26839526 2.50615298 -2.53983102 3.00469099 -3.8125 3.5 C-4.87404297 3.91765625 -4.87404297 3.91765625 -5.95703125 4.34375 C-8 5 -8 5 -11 5 C-11 4.01 -11 3.02 -11 2 C-9.73392393 1.46770674 -8.46189588 0.94955456 -7.1875 0.4375 C-6.47980469 0.14746094 -5.77210938 -0.14257812 -5.04296875 -0.44140625 C-3 -1 -3 -1 0 0 Z " fill="#000000" transform="translate(322,677)"/>
<path d="M0 0 C0 0.66 0 1.32 0 2 C-1.42578125 3.2890625 -1.42578125 3.2890625 -3.3125 4.625 C-3.92738281 5.07101562 -4.54226563 5.51703125 -5.17578125 5.9765625 C-7 7 -7 7 -10 7 C-10 6.01 -10 5.02 -10 4 C-8.57421875 2.578125 -8.57421875 2.578125 -6.6875 1.25 C-6.07261719 0.80140625 -5.45773437 0.3528125 -4.82421875 -0.109375 C-3 -1 -3 -1 0 0 Z " fill="#000000" transform="translate(358,657)"/>
<path d="M0 0 C0.99 0 1.98 0 3 0 C4.32 3.3 5.64 6.6 7 10 C6.01 10.33 5.02 10.66 4 11 C3.32591692 9.73308493 2.66099503 8.46129251 2 7.1875 C1.62875 6.47980469 1.2575 5.77210938 0.875 5.04296875 C0 3 0 3 0 0 Z " fill="#000000" transform="translate(187,641)"/>
<path d="M0 0 C0.99 0 1.98 0 3 0 C3.02698189 1.62490954 3.04638757 3.24994633 3.0625 4.875 C3.07410156 5.77992188 3.08570313 6.68484375 3.09765625 7.6171875 C3 10 3 10 2 12 C1.34 12 0.68 12 0 12 C0 8.04 0 4.08 0 0 Z " fill="#000000" transform="translate(410,237)"/>
<path d="M0 0 C0.99 0.33 1.98 0.66 3 1 C1.8905928 4.48670834 0.73662334 7.77484237 -1 11 C-1.99 10.67 -2.98 10.34 -4 10 C-2.68 6.7 -1.36 3.4 0 0 Z " fill="#000000" transform="translate(69,214)"/>
<path d="M0 0 C0.99 0.33 1.98 0.66 3 1 C1.65117186 5.04648443 -0.34826069 5.95502599 -4 8 C-4.99 7.67 -5.98 7.34 -7 7 C-7 6.34 -7 5.68 -7 5 C-5.57421875 3.67578125 -5.57421875 3.67578125 -3.6875 2.3125 C-3.07261719 1.85488281 -2.45773437 1.39726562 -1.82421875 0.92578125 C-1.22222656 0.62027344 -0.62023437 0.31476563 0 0 Z " fill="#000000" transform="translate(581,196)"/>
<path d="M0 0 C-0.47202486 4.24822374 -2.96655518 6.19989709 -6 9 C-6.99 8.67 -7.98 8.34 -9 8 C-8.21366078 6.85050412 -7.42073742 5.70551011 -6.625 4.5625 C-6.18414062 3.92441406 -5.74328125 3.28632813 -5.2890625 2.62890625 C-3.63708041 0.54140161 -2.66927652 0 0 0 Z " fill="#000000" transform="translate(96,182)"/>
<path d="M0 0 C-0.24609375 1.859375 -0.24609375 1.859375 -1 4 C-2.84765625 5.265625 -2.84765625 5.265625 -5.0625 6.25 C-6.16271484 6.75273437 -6.16271484 6.75273437 -7.28515625 7.265625 C-8.13400391 7.62914062 -8.13400391 7.62914062 -9 8 C-9 6.68 -9 5.36 -9 4 C-2.25 0 -2.25 0 0 0 Z " fill="#000000" transform="translate(129,158)"/>
<path d="M0 0 C0 0.99 0 1.98 0 3 C-3.87684087 4.19287411 -6.91621923 5 -11 5 C-11 4.01 -11 3.02 -11 2 C-7.12315913 0.80712589 -4.08378077 0 0 0 Z " fill="#000000" transform="translate(167,144)"/>
<path d="M0 0 C0 0.99 0 1.98 0 3 C-3.63 3.66 -7.26 4.32 -11 5 C-10.67 3.68 -10.34 2.36 -10 1 C-3.375 0 -3.375 0 0 0 Z " fill="#000000" transform="translate(187,140)"/>
<path d="M0 0 C0 0.99 0 1.98 0 3 C-2.75078884 3.91692961 -4.35948913 4.10886083 -7.1875 4.0625 C-9.0746875 4.0315625 -9.0746875 4.0315625 -11 4 C-11 3.01 -11 2.02 -11 1 C-3.375 0 -3.375 0 0 0 Z " fill="#000000" transform="translate(282,686)"/>
<path d="M0 0 C3.63 0 7.26 0 11 0 C11 0.99 11 1.98 11 3 C7.37 3 3.74 3 0 3 C0 2.01 0 1.02 0 0 Z " fill="#000000" transform="translate(250,687)"/>
<path d="M0 0 C5.445 1.485 5.445 1.485 11 3 C11 3.99 11 4.98 11 6 C9.54096742 5.69078116 8.08279278 5.37751201 6.625 5.0625 C5.81289062 4.88847656 5.00078125 4.71445312 4.1640625 4.53515625 C2 4 2 4 0 3 C0 2.01 0 1.02 0 0 Z " fill="#000000" transform="translate(230,682)"/>
<path d="M0 0 C0.99 0 1.98 0 3 0 C3.66 3.63 4.32 7.26 5 11 C3.68 10.67 2.36 10.34 1 10 C0.67 6.7 0.34 3.4 0 0 Z " fill="#000000" transform="translate(182,621)"/>
<path d="M0 0 C0.99 0 1.98 0 3 0 C3.0270043 1.45823212 3.04639787 2.91660675 3.0625 4.375 C3.07410156 5.18710937 3.08570313 5.99921875 3.09765625 6.8359375 C3 9 3 9 2 11 C1.01 11 0.02 11 -1 11 C-0.67 7.37 -0.34 3.74 0 0 Z " fill="#000000" transform="translate(386,606)"/>
<path d="M0 0 C0.99 0 1.98 0 3 0 C3 3.63 3 7.26 3 11 C2.01 11 1.02 11 0 11 C0 7.37 0 3.74 0 0 Z " fill="#000000" transform="translate(181,601)"/>
<path d="M0 0 C0.66 0.33 1.32 0.66 2 1 C2 4.3 2 7.6 2 11 C1.01 11.33 0.02 11.66 -1 12 C-1.02687279 10.18757948 -1.04633715 8.37504767 -1.0625 6.5625 C-1.07410156 5.55316406 -1.08570313 4.54382813 -1.09765625 3.50390625 C-1 1 -1 1 0 0 Z " fill="#000000" transform="translate(392,544)"/>
<path d="M0 0 C0.99 0.33 1.98 0.66 3 1 C2.05016642 2.50539661 1.08988109 4.00420347 0.125 5.5 C-0.40867188 6.3353125 -0.94234375 7.170625 -1.4921875 8.03125 C-1.98976562 8.6809375 -2.48734375 9.330625 -3 10 C-3.66 10 -4.32 10 -5 10 C-4.49701212 5.59885603 -2.91227269 3.28804981 0 0 Z " fill="#000000" transform="translate(197,543)"/>
<path d="M0 0 C0.99 0.33 1.98 0.66 3 1 C2.67 4.63 2.34 8.26 2 12 C1.01 11.67 0.02 11.34 -1 11 C-0.67 7.37 -0.34 3.74 0 0 Z " fill="#000000" transform="translate(403,401)"/>
<path d="M0 0 C0.99 0 1.98 0 3 0 C3 3.63 3 7.26 3 11 C2.01 11 1.02 11 0 11 C0 7.37 0 3.74 0 0 Z " fill="#000000" transform="translate(409,258)"/>
<path d="M0 0 C0.99 0.33 1.98 0.66 3 1 C2.34 4.3 1.68 7.6 1 11 C0.01 11 -0.98 11 -2 11 C-1.85892253 9.54119891 -1.71197585 8.08296449 -1.5625 6.625 C-1.48128906 5.81289062 -1.40007813 5.00078125 -1.31640625 4.1640625 C-1 2 -1 2 0 0 Z " fill="#000000" transform="translate(62,233)"/>
<path d="M0 0 C-0.33 0.99 -0.66 1.98 -1 3 C-4.3 3.33 -7.6 3.66 -11 4 C-11 3.01 -11 2.02 -11 1 C-7.26562152 0.12132271 -3.83225427 -0.08912219 0 0 Z " fill="#000000" transform="translate(530,216)"/>
<path d="M0 0 C2.97 1.65 5.94 3.3 9 5 C8.67 5.99 8.34 6.98 8 8 C5.36 6.68 2.72 5.36 0 4 C0 2.68 0 1.36 0 0 Z " fill="#000000" transform="translate(386,202)"/>
<path d="M0 0 C0.99 0.33 1.98 0.66 3 1 C-1 8.71428571 -1 8.71428571 -5 10 C-4.49701212 5.59885603 -2.91227269 3.28804981 0 0 Z " fill="#000000" transform="translate(80,197)"/>
<path d="M0 0 C0.99 0.33 1.98 0.66 3 1 C1.68 3.64 0.36 6.28 -1 9 C-2.32 9 -3.64 9 -5 9 C-3.35 6.03 -1.7 3.06 0 0 Z " fill="#000000" transform="translate(593,181)"/>
<path d="M0 0 C0.99 0 1.98 0 3 0 C3 3.63 3 7.26 3 11 C2.01 11 1.02 11 0 11 C0 7.37 0 3.74 0 0 Z " fill="#000000" transform="translate(412,176)"/>
<path d="M0 0 C0.99 0.33 1.98 0.66 3 1 C3 1.66 3 2.32 3 3 C1.57421875 4.32421875 1.57421875 4.32421875 -0.3125 5.6875 C-0.92738281 6.14511719 -1.54226562 6.60273438 -2.17578125 7.07421875 C-2.77777344 7.37972656 -3.37976563 7.68523437 -4 8 C-4.99 7.67 -5.98 7.34 -7 7 C-4.78071806 4.09197539 -3.07030857 2.04687238 0 0 Z " fill="#000000" transform="translate(109,169)"/>
<path d="M0 0 C7.625 0.875 7.625 0.875 11 2 C11 2.99 11 3.98 11 5 C7.37 4.34 3.74 3.68 0 3 C0 2.01 0 1.02 0 0 Z " fill="#000000" transform="translate(257,144)"/>
<path d="M0 0 C0.99 0 1.98 0 3 0 C3 3.63 3 7.26 3 11 C2.01 11 1.02 11 0 11 C0 7.37 0 3.74 0 0 Z " fill="#000000" transform="translate(598,143)"/>
<path d="M0 0 C3.63 0 7.26 0 11 0 C11 0.99 11 1.98 11 3 C7.37 3 3.74 3 0 3 C0 2.01 0 1.02 0 0 Z " fill="#000000" transform="translate(196,139)"/>
<path d="M0 0 C0 0.99 0 1.98 0 3 C-6.625 6 -6.625 6 -10 6 C-10 5.01 -10 4.02 -10 3 C-3.375 0 -3.375 0 0 0 Z " fill="#000000" transform="translate(478,75)"/>
<path d="M0 0 C7.42857143 -0.14285714 7.42857143 -0.14285714 11 1 C11 1.99 11 2.98 11 4 C7.37 3.67 3.74 3.34 0 3 C0 2.01 0 1.02 0 0 Z " fill="#000000" transform="translate(541,61)"/>
<path d="M0 0 C0.99 0 1.98 0 3 0 C8 5.23255814 8 5.23255814 8 9 C7.01 9 6.02 9 5 9 C0 3.76744186 0 3.76744186 0 0 Z " fill="#000000" transform="translate(197,659)"/>
<path d="M0 0 C0.66 0.33 1.32 0.66 2 1 C0.4169423 5.2742558 -2.50568404 7.26531794 -6 10 C-6 6 -6 6 -4.6875 4.296875 C-4.130625 3.78640625 -3.57375 3.2759375 -3 2.75 C-2.1646875 1.96882812 -2.1646875 1.96882812 -1.3125 1.171875 C-0.879375 0.78515625 -0.44625 0.3984375 0 0 Z " fill="#000000" transform="translate(371,642)"/>
<path d="M0 0 C0.99 0.66 1.98 1.32 3 2 C1.35 4.97 -0.3 7.94 -2 11 C-2.99 10.67 -3.98 10.34 -5 10 C-3.35 6.7 -1.7 3.4 0 0 Z " fill="#000000" transform="translate(382,625)"/>
<path d="M0 0 C0.99 0 1.98 0 3 0 C3.08159574 4.16138263 2.98248524 7.9472484 2 12 C1.01 11.67 0.02 11.34 -1 11 C-0.67 7.37 -0.34 3.74 0 0 Z " fill="#000000" transform="translate(388,585)"/>
<path d="M0 0 C0.99 0.33 1.98 0.66 3 1 C2.67 4.63 2.34 8.26 2 12 C1.01 11.67 0.02 11.34 -1 11 C-0.67 7.37 -0.34 3.74 0 0 Z " fill="#000000" transform="translate(182,580)"/>
<path d="M0 0 C0.99 0 1.98 0 3 0 C2.01 3.63 1.02 7.26 0 11 C-0.99 10.67 -1.98 10.34 -3 10 C-2.01 6.7 -1.02 3.4 0 0 Z " fill="#000000" transform="translate(187,561)"/>
<path d="M0 0 C0.99 0.33 1.98 0.66 3 1 C0.19195732 3.96404505 -2.18315774 6.44499019 -6 8 C-6 6.68 -6 5.36 -6 4 C-3.1875 1.6875 -3.1875 1.6875 0 0 Z " fill="#000000" transform="translate(212,530)"/>
<path d="M0 0 C0.99 0 1.98 0 3 0 C2.67 3.63 2.34 7.26 2 11 C1.01 11 0.02 11 -1 11 C-0.67 7.37 -0.34 3.74 0 0 Z " fill="#000000" transform="translate(393,524)"/>
<path d="M0 0 C0.99 0.33 1.98 0.66 3 1 C2.67 4.3 2.34 7.6 2 11 C1.01 11 0.02 11 -1 11 C-1.0270043 9.54176788 -1.04639787 8.08339325 -1.0625 6.625 C-1.07410156 5.81289063 -1.08570313 5.00078125 -1.09765625 4.1640625 C-1 2 -1 2 0 0 Z " fill="#000000" transform="translate(395,504)"/>
<path d="M0 0 C0.99 0 1.98 0 3 0 C3.0270043 1.45823212 3.04639787 2.91660675 3.0625 4.375 C3.07410156 5.18710937 3.08570313 5.99921875 3.09765625 6.8359375 C3 9 3 9 2 11 C1.01 10.67 0.02 10.34 -1 10 C-0.67 6.7 -0.34 3.4 0 0 Z " fill="#000000" transform="translate(396,483)"/>
<path d="M0 0 C0.99 0 1.98 0 3 0 C2.67 3.63 2.34 7.26 2 11 C1.01 11 0.02 11 -1 11 C-0.67 7.37 -0.34 3.74 0 0 Z " fill="#000000" transform="translate(398,463)"/>
<path d="M0 0 C0.66 0 1.32 0 2 0 C2 3.63 2 7.26 2 11 C1.01 11 0.02 11 -1 11 C-1.02688151 9.35425434 -1.04634123 7.70838587 -1.0625 6.0625 C-1.07410156 5.14597656 -1.08570313 4.22945313 -1.09765625 3.28515625 C-1 1 -1 1 0 0 Z " fill="#000000" transform="translate(400,442)"/>
<path d="M0 0 C0.99 0 1.98 0 3 0 C3.125 7.625 3.125 7.625 2 11 C1.01 11 0.02 11 -1 11 C-0.67 7.37 -0.34 3.74 0 0 Z " fill="#000000" transform="translate(401,422)"/>
<path d="M0 0 C0.99 0.33 1.98 0.66 3 1 C2.67 4.63 2.34 8.26 2 12 C1.01 11.67 0.02 11.34 -1 11 C-0.67 7.37 -0.34 3.74 0 0 Z " fill="#000000" transform="translate(407,319)"/>
<path d="M0 0 C0.66 0 1.32 0 2 0 C2 3.63 2 7.26 2 11 C1.01 11 0.02 11 -1 11 C-1.02688151 9.35425434 -1.04634123 7.70838587 -1.0625 6.0625 C-1.07410156 5.14597656 -1.08570313 4.22945313 -1.09765625 3.28515625 C-1 1 -1 1 0 0 Z " fill="#000000" transform="translate(408,299)"/>
<path d="M0 0 C3.63 0 7.26 0 11 0 C10.67 0.99 10.34 1.98 10 3 C6.7 3 3.4 3 0 3 C0 2.01 0 1.02 0 0 Z " fill="#000000" transform="translate(480,222)"/>
<path d="M0 0 C3.3 0 6.6 0 10 0 C10 0.99 10 1.98 10 3 C6.37 3 2.74 3 -1 3 C-0.67 2.01 -0.34 1.02 0 0 Z " fill="#000000" transform="translate(461,222)"/>
<path d="M0 0 C3.3 0.66 6.6 1.32 10 2 C10 2.99 10 3.98 10 5 C2.375 4.125 2.375 4.125 -1 3 C-0.67 2.01 -0.34 1.02 0 0 Z " fill="#000000" transform="translate(422,217)"/>
<path d="M0 0 C0 0.66 0 1.32 0 2 C-3.82320557 3.42258812 -6.91281305 4.24042276 -11 4 C-11 3.01 -11 2.02 -11 1 C-9.5437328 0.63743142 -8.08488815 0.28520207 -6.625 -0.0625 C-5.40683594 -0.35833984 -5.40683594 -0.35833984 -4.1640625 -0.66015625 C-2 -1 -2 -1 0 0 Z " fill="#000000" transform="translate(549,212)"/>
<path d="M0 0 C0.66 0 1.32 0 2 0 C2 3.96 2 7.92 2 12 C1.01 12 0.02 12 -1 12 C-1.14285714 3.42857143 -1.14285714 3.42857143 0 0 Z " fill="#000000" transform="translate(412,196)"/>
<path d="M0 0 C2.70931419 0.15481795 4.46584039 0.48172081 6.4453125 2.40234375 C7.67679642 3.89771708 8.8429837 5.4462924 10 7 C4.67373311 7 3.757879 5.58706631 0 2 C0 1.34 0 0.68 0 0 Z " fill="#000000" transform="translate(369,191)"/>
<path d="M0 0 C4.40114397 0.50298788 6.71195019 2.08772731 10 5 C9.67 5.66 9.34 6.32 9 7 C5.40608886 5.66511872 2.24509304 4.03977277 -1 2 C-0.67 1.34 -0.34 0.68 0 0 Z " fill="#000000" transform="translate(352,181)"/>
<path d="M0 0 C3.3 0.99 6.6 1.98 10 3 C10 3.99 10 4.98 10 6 C6.44219804 5.39009109 3.3171411 4.4216319 0 3 C0 2.01 0 1.02 0 0 Z " fill="#000000" transform="translate(296,155)"/>
<path d="M0 0 C3.3 0.66 6.6 1.32 10 2 C10 2.99 10 3.98 10 5 C5.94393835 4.53199289 2.53411321 4.12046792 -1 2 C-0.67 1.34 -0.34 0.68 0 0 Z " fill="#000000" transform="translate(277,149)"/>
<path d="M0 0 C1.258125 -0.020625 2.51625 -0.04125 3.8125 -0.0625 C4.52019531 -0.07410156 5.22789062 -0.08570313 5.95703125 -0.09765625 C8 0 8 0 11 1 C11 1.99 11 2.98 11 4 C7.7 3.67 4.4 3.34 1 3 C0.67 2.01 0.34 1.02 0 0 Z " fill="#000000" transform="translate(237,141)"/>
<path d="M0 0 C3.3 0 6.6 0 10 0 C10.33 0.99 10.66 1.98 11 3 C7.37 3 3.74 3 0 3 C0 2.01 0 1.02 0 0 Z " fill="#000000" transform="translate(217,139)"/>
<path d="M0 0 C0.99 0 1.98 0 3 0 C2.34 3.3 1.68 6.6 1 10 C0.01 10.33 -0.98 10.66 -2 11 C-1.85892253 9.54119891 -1.71197585 8.08296449 -1.5625 6.625 C-1.48128906 5.81289062 -1.40007812 5.00078125 -1.31640625 4.1640625 C-1 2 -1 2 0 0 Z " fill="#000000" transform="translate(417,134)"/>
<path d="M0 0 C3 1 3 1 3.94921875 2.84765625 C4.19285156 3.57855469 4.43648437 4.30945313 4.6875 5.0625 C4.93886719 5.79597656 5.19023438 6.52945313 5.44921875 7.28515625 C5.63097656 7.85105469 5.81273437 8.41695312 6 9 C4.68 9 3.36 9 2 9 C1.01 6.36 0.02 3.72 -1 1 C-0.67 0.67 -0.34 0.34 0 0 Z " fill="#000000" transform="translate(589,87)"/>
<path d="M0 0 C0 0.99 0 1.98 0 3 C-3.61973402 4.31626692 -6.09567131 5 -10 5 C-10 4.01 -10 3.02 -10 2 C-6.38026598 0.68373308 -3.90432869 0 0 0 Z " fill="#000000" transform="translate(496,69)"/>
<path d="M0 0 C0.99 0 1.98 0 3 0 C2.67 3.63 2.34 7.26 2 11 C1.01 11 0.02 11 -1 11 C-1.14285714 3.57142857 -1.14285714 3.57142857 0 0 Z " fill="#000000" transform="translate(390,565)"/>
<path d="M0 0 C-1 3 -1 3 -3.3125 4.1875 C-6 5 -6 5 -10 5 C-10 4.01 -10 3.02 -10 2 C-6.38026598 0.68373308 -3.90432869 0 0 0 Z " fill="#000000" transform="translate(567,206)"/>
<path d="M0 0 C0.66 0.33 1.32 0.66 2 1 C1.67 4.3 1.34 7.6 1 11 C0.01 11 -0.98 11 -2 11 C-1.85957123 9.35369672 -1.71250671 7.70795821 -1.5625 6.0625 C-1.48128906 5.14597656 -1.40007813 4.22945312 -1.31640625 3.28515625 C-1 1 -1 1 0 0 Z " fill="#000000" transform="translate(598,162)"/>
<path d="M0 0 C3.71888239 0.50712033 6.73454239 1.11608215 10 3 C10 3.99 10 4.98 10 6 C6.05879291 5.43697042 3.2491277 4.3208055 0 2 C0 1.34 0 0.68 0 0 Z " fill="#000000" transform="translate(315,163)"/>
<path d="M0 0 C3.36591866 1.44253657 5.51047079 3.33264727 8 6 C7.67 6.99 7.34 7.98 7 9 C4.36 7.02 1.72 5.04 -1 3 C-0.67 2.01 -0.34 1.02 0 0 Z " fill="#000000" transform="translate(577,72)"/>
<path d="M0 0 C0.99 0 1.98 0 3 0 C3.125 7.625 3.125 7.625 2 11 C1.34 11 0.68 11 0 11 C0 7.37 0 3.74 0 0 Z " fill="#000000" transform="translate(406,340)"/>
<path d="M0 0 C7.42857143 -0.28571429 7.42857143 -0.28571429 11 2 C10.67 2.66 10.34 3.32 10 4 C6.7 3.67 3.4 3.34 0 3 C0 2.01 0 1.02 0 0 Z " fill="#000000" transform="translate(441,221)"/>
<path d="M0 0 C0 0.99 0 1.98 0 3 C-3.21451269 4.60725635 -6.43612536 4.05748185 -10 4 C-10 3.01 -10 2.02 -10 1 C-2.25 0 -2.25 0 0 0 Z " fill="#000000" transform="translate(510,219)"/>
<path d="M0 0 C0.99 0 1.98 0 3 0 C3 3.3 3 6.6 3 10 C2.01 10.495 2.01 10.495 1 11 C-0.20272819 8.59454362 -0.10071472 7.05003047 -0.0625 4.375 C-0.05347656 3.55773437 -0.04445313 2.74046875 -0.03515625 1.8984375 C-0.02355469 1.27195312 -0.01195312 0.64546875 0 0 Z " fill="#000000" transform="translate(597,124)"/>
<path d="M0 0 C0.99 0 1.98 0 3 0 C3.66 3.3 4.32 6.6 5 10 C3.68 9.67 2.36 9.34 1 9 C0.67 6.03 0.34 3.06 0 0 Z " fill="#000000" transform="translate(594,105)"/>
<path d="M0 0 C0 0.99 0 1.98 0 3 C-3.3 3.66 -6.6 4.32 -10 5 C-10 4.01 -10 3.02 -10 2 C-3.375 0 -3.375 0 0 0 Z " fill="#000000" transform="translate(514,64)"/>
<path d="M0 0 C3.71888239 0.50712033 6.73454239 1.11608215 10 3 C9.67 3.99 9.34 4.98 9 6 C6.03 5.01 3.06 4.02 0 3 C0 2.01 0 1.02 0 0 Z " fill="#000000" transform="translate(560,64)"/>
<path d="M0 0 C0 0.99 0 1.98 0 3 C-3.47325181 4.1577506 -6.36067448 4.06866652 -10 4 C-10 3.01 -10 2.02 -10 1 C-2.25 0 -2.25 0 0 0 Z " fill="#000000" transform="translate(533,61)"/>
<path d="M0 0 C3.63 0 7.26 0 11 0 C11 0.66 11 1.32 11 2 C7.37 2 3.74 2 0 2 C0 1.34 0 0.68 0 0 Z " fill="#000000" transform="translate(521,390)"/>
<path d="M0 0 C3.63 0 7.26 0 11 0 C11 0.66 11 1.32 11 2 C7.37 2 3.74 2 0 2 C0 1.34 0 0.68 0 0 Z " fill="#000000" transform="translate(482,390)"/>
<path d="M0 0 C3.63 0 7.26 0 11 0 C11 0.66 11 1.32 11 2 C7.37 2 3.74 2 0 2 C0 1.34 0 0.68 0 0 Z " fill="#000000" transform="translate(443,390)"/>
<path d="M0 0 C3.63 0 7.26 0 11 0 C11 0.66 11 1.32 11 2 C7.37 2 3.74 2 0 2 C0 1.34 0 0.68 0 0 Z " fill="#000000" transform="translate(423,390)"/>
<path d="M0 0 C3.63 0 7.26 0 11 0 C11 0.66 11 1.32 11 2 C7.37 2 3.74 2 0 2 C0 1.34 0 0.68 0 0 Z " fill="#000000" transform="translate(384,390)"/>
<path d="M0 0 C3.63 0 7.26 0 11 0 C11 0.66 11 1.32 11 2 C7.37 2 3.74 2 0 2 C0 1.34 0 0.68 0 0 Z " fill="#000000" transform="translate(365,390)"/>
<path d="M0 0 C3.63 0 7.26 0 11 0 C11 0.66 11 1.32 11 2 C7.37 2 3.74 2 0 2 C0 1.34 0 0.68 0 0 Z " fill="#000000" transform="translate(345,390)"/>
<path d="M0 0 C3.63 0 7.26 0 11 0 C11 0.66 11 1.32 11 2 C7.37 2 3.74 2 0 2 C0 1.34 0 0.68 0 0 Z " fill="#000000" transform="translate(306,390)"/>
<path d="M0 0 C3.63 0 7.26 0 11 0 C11 0.66 11 1.32 11 2 C7.37 2 3.74 2 0 2 C0 1.34 0 0.68 0 0 Z " fill="#000000" transform="translate(267,390)"/>
<path d="M0 0 C3.3 0 6.6 0 10 0 C10 0.66 10 1.32 10 2 C6.7 2 3.4 2 0 2 C0 1.34 0 0.68 0 0 Z " fill="#000000" transform="translate(541,390)"/>
<path d="M0 0 C3.3 0 6.6 0 10 0 C10 0.66 10 1.32 10 2 C6.7 2 3.4 2 0 2 C0 1.34 0 0.68 0 0 Z " fill="#000000" transform="translate(502,390)"/>
<path d="M0 0 C3.3 0 6.6 0 10 0 C10 0.66 10 1.32 10 2 C6.7 2 3.4 2 0 2 C0 1.34 0 0.68 0 0 Z " fill="#000000" transform="translate(463,390)"/>
<path d="M0 0 C3.3 0 6.6 0 10 0 C10 0.66 10 1.32 10 2 C6.7 2 3.4 2 0 2 C0 1.34 0 0.68 0 0 Z " fill="#000000" transform="translate(326,390)"/>
<path d="M0 0 C3.3 0 6.6 0 10 0 C10 0.66 10 1.32 10 2 C6.7 2 3.4 2 0 2 C0 1.34 0 0.68 0 0 Z " fill="#000000" transform="translate(287,390)"/>
<path d="M0 0 C3.3 0 6.6 0 10 0 C10 0.66 10 1.32 10 2 C6.7 2 3.4 2 0 2 C0 1.34 0 0.68 0 0 Z " fill="#000000" transform="translate(248,390)"/>
<path d="M0 0 C-0.33 0.66 -0.66 1.32 -1 2 C-3.5625 2.625 -3.5625 2.625 -6 3 C-6.33 2.01 -6.66 1.02 -7 0 C-3.86650268 -1.04449911 -3.01031744 -0.93423645 0 0 Z " fill="#000000" transform="translate(229,525)"/>
<path d="M0 0 C0.66 0.33 1.32 0.66 2 1 C2 2.65 2 4.3 2 6 C1.01 6 0.02 6 -1 6 C-1.042721 4.33388095 -1.04063832 2.66617115 -1 1 C-0.67 0.67 -0.34 0.34 0 0 Z " fill="#000000" transform="translate(62,253)"/>
<path d="M0 0 C1.98 0 3.96 0 6 0 C6 0.66 6 1.32 6 2 C4.02 2 2.04 2 0 2 C0 1.34 0 0.68 0 0 Z " fill="#000000" transform="translate(560,390)"/>
<path d="M0 0 C1.98 0 3.96 0 6 0 C6 0.66 6 1.32 6 2 C4.02 2 2.04 2 0 2 C0 1.34 0 0.68 0 0 Z " fill="#000000" transform="translate(233,390)"/>
<path d="M0 0 C0.99 0.33 1.98 0.66 3 1 C2.67 1.99 2.34 2.98 2 4 C1.01 3.67 0.02 3.34 -1 3 C-0.67 2.01 -0.34 1.02 0 0 Z " fill="#000000" transform="translate(535,339)"/>
<path d="M0 0 C0.99 0.33 1.98 0.66 3 1 C2.67 1.99 2.34 2.98 2 4 C1.01 3.01 0.02 2.02 -1 1 C-0.67 0.67 -0.34 0.34 0 0 Z " fill="#000000" transform="translate(274,635)"/>
<path d="M0 0 C0.99 0.33 1.98 0.66 3 1 C2.67 1.99 2.34 2.98 2 4 C1.01 3.01 0.02 2.02 -1 1 C-0.67 0.67 -0.34 0.34 0 0 Z " fill="#000000" transform="translate(319,280)"/>
<path d="M0 0 C0.99 0.33 1.98 0.66 3 1 C2.67 1.99 2.34 2.98 2 4 C1.01 3.01 0.02 2.02 -1 1 C-0.67 0.67 -0.34 0.34 0 0 Z " fill="#000000" transform="translate(19,157)"/>
<path d="M0 0 C0.99 0.33 1.98 0.66 3 1 C2.67 1.99 2.34 2.98 2 4 C1.01 3.01 0.02 2.02 -1 1 C-0.67 0.67 -0.34 0.34 0 0 Z " fill="#000000" transform="translate(669,102)"/>
</svg>
