<svg width="983" height="753" viewBox="0 0 983 753" fill="none" xmlns="http://www.w3.org/2000/svg">
<path d="M60.5923 493.913C61.0966 494.138 61.6879 493.912 61.9131 493.408L65.5825 485.19C65.8077 484.685 65.5814 484.094 65.0771 483.869C64.5728 483.644 63.9815 483.87 63.7563 484.374L60.4946 491.679L53.1897 488.418C52.6854 488.192 52.0941 488.419 51.8689 488.923C51.6437 489.427 51.87 490.019 52.3743 490.244L60.5923 493.913ZM41.9453 117.978C40.8037 169.643 40.3365 250.395 42.646 324.746C43.8007 361.92 45.6498 397.507 48.4575 427.063C51.2615 456.579 55.0304 480.197 60.066 493.357L61.934 492.643C57.0083 479.77 53.2543 456.409 50.4485 426.874C47.6465 397.377 45.7991 361.838 44.645 324.684C42.337 250.378 42.8037 169.663 43.9448 118.022L41.9453 117.978Z" fill="black"/>
<path d="M321.619 266.455V281H319.858V268.301H319.773L316.222 270.659V268.869L319.858 266.455H321.619ZM326.193 281.114C325.843 281.114 325.542 280.988 325.291 280.737C325.04 280.486 324.915 280.186 324.915 279.835C324.915 279.485 325.04 279.184 325.291 278.933C325.542 278.682 325.843 278.557 326.193 278.557C326.544 278.557 326.844 278.682 327.095 278.933C327.346 279.184 327.472 279.485 327.472 279.835C327.472 280.067 327.412 280.28 327.294 280.474C327.18 280.669 327.027 280.825 326.832 280.943C326.643 281.057 326.43 281.114 326.193 281.114ZM330.451 281V279.722L335.252 274.466C335.816 273.85 336.28 273.315 336.644 272.861C337.009 272.402 337.279 271.971 337.454 271.568C337.634 271.161 337.724 270.735 337.724 270.29C337.724 269.778 337.601 269.336 337.354 268.962C337.113 268.588 336.781 268.299 336.36 268.095C335.939 267.892 335.465 267.79 334.94 267.79C334.381 267.79 333.893 267.906 333.477 268.138C333.065 268.365 332.745 268.685 332.518 269.097C332.295 269.509 332.184 269.991 332.184 270.545H330.508C330.508 269.693 330.704 268.945 331.097 268.301C331.49 267.657 332.025 267.155 332.702 266.795C333.384 266.436 334.149 266.256 334.996 266.256C335.849 266.256 336.604 266.436 337.262 266.795C337.92 267.155 338.436 267.641 338.81 268.251C339.184 268.862 339.371 269.542 339.371 270.29C339.371 270.825 339.274 271.348 339.08 271.859C338.891 272.366 338.559 272.932 338.086 273.557C337.617 274.177 336.966 274.935 336.133 275.83L332.866 279.324V279.438H339.627V281H330.451Z" fill="black"/>
<path d="M223 29.2291C217.833 19.0126 197.4 -0.431809 157 3.52298C116.6 7.47777 99.8333 24.2855 96.5 32.1951C93.5 37.7977 86.1 57.9012 80.5 93.4943L74 233.889V356.982C75.8333 395.706 80 479.086 82 502.815C84.5 532.476 95.5 609.1 107.5 632.334C117.1 650.922 141.5 662.16 152.5 665.456C172.333 668.257 215.2 667.631 228 642.716L233 514.185C238.333 463.926 250.3 359.355 255.5 343.14C260.7 326.926 258 334.736 256 340.669C264 299.802 283 212.731 295 191.375C305.833 163.692 332 108.522 350 109.313C368 110.104 374.833 135.02 376 147.378C380 172.425 387.9 228.451 387.5 252.18C387 281.841 386.5 392.081 382.5 427.674C381.333 460.96 378.4 529.806 376 538.902C380.667 554.392 400.9 585.173 444.5 584.382C499 583.394 507.5 564.609 510.5 554.722C513.167 511.878 521.2 414.425 532 367.363C545.5 308.536 570.5 201.262 586.5 182.971C595.333 164.516 617.9 127.901 637.5 129.087C657.1 130.274 658 171.107 656 191.375L645 328.804C640.667 376.756 634.6 482.646 645 522.589C658 572.518 675.5 636.289 710.5 656.063C745.5 675.837 755 684.241 800.5 683.252C846 682.264 886.5 658.535 908 621.459C929.5 584.382 954 526.049 967.5 467.222C978.3 420.16 980.333 409.383 980 409.877C979.333 398.507 972.7 375.471 951.5 374.284C944.167 372.307 928.7 374.68 925.5 399.99C922.3 425.301 902.5 490.291 893 519.623C882.667 545.329 857.8 599.213 841 609.1C831.667 618.328 809.8 630.06 797 603.168C793 595.917 784.6 574.496 783 546.812C781.4 519.128 780.667 476.285 780.5 458.324L791.5 270.471C798.5 231.912 802.2 143.127 761 96.4604C709.5 38.1272 631 60.8673 622 65.3164C613 69.7656 567 82.6186 536 171.601C526.833 199.614 508.9 261.375 510.5 284.313C509 236.855 502.3 135.415 487.5 109.313C469 76.6864 451.5 42.082 387.5 37.1385C336.3 33.1838 288.833 83.6073 271.5 109.313C259.333 134.36 233.4 195.033 227 237.35C220.6 279.666 213.667 336.714 211 359.948L223 29.2291Z" stroke="black" stroke-width="5"/>
<path d="M6.61932 285.455V300H4.85795V287.301H4.77273L1.22159 289.659V287.869L4.85795 285.455H6.61932ZM11.1932 300.114C10.8428 300.114 10.5421 299.988 10.2912 299.737C10.0402 299.486 9.91477 299.186 9.91477 298.835C9.91477 298.485 10.0402 298.184 10.2912 297.933C10.5421 297.682 10.8428 297.557 11.1932 297.557C11.5436 297.557 11.8442 297.682 12.0952 297.933C12.3461 298.184 12.4716 298.485 12.4716 298.835C12.4716 299.067 12.4124 299.28 12.294 299.474C12.1804 299.669 12.0265 299.825 11.8324 299.943C11.643 300.057 11.4299 300.114 11.1932 300.114ZM18.8263 285.455V300H17.065V287.301H16.9798L13.4286 289.659V287.869L17.065 285.455H18.8263Z" fill="black"/>
<path d="M596.619 266.455V281H594.858V268.301H594.773L591.222 270.659V268.869L594.858 266.455H596.619ZM601.193 281.114C600.843 281.114 600.542 280.988 600.291 280.737C600.04 280.486 599.915 280.186 599.915 279.835C599.915 279.485 600.04 279.184 600.291 278.933C600.542 278.682 600.843 278.557 601.193 278.557C601.544 278.557 601.844 278.682 602.095 278.933C602.346 279.184 602.472 279.485 602.472 279.835C602.472 280.067 602.412 280.28 602.294 280.474C602.18 280.669 602.027 280.825 601.832 280.943C601.643 281.057 601.43 281.114 601.193 281.114ZM609.819 281.199C608.881 281.199 608.046 281.038 607.312 280.716C606.583 280.394 606.003 279.946 605.572 279.374C605.146 278.796 604.914 278.126 604.876 277.364H606.665C606.703 277.832 606.864 278.237 607.148 278.578C607.433 278.914 607.804 279.175 608.263 279.359C608.723 279.544 609.232 279.636 609.79 279.636C610.415 279.636 610.969 279.527 611.452 279.31C611.935 279.092 612.314 278.789 612.589 278.401C612.863 278.012 613.001 277.562 613.001 277.051C613.001 276.516 612.868 276.045 612.603 275.638C612.338 275.226 611.95 274.904 611.438 274.672C610.927 274.44 610.302 274.324 609.563 274.324H608.398V272.761H609.563C610.141 272.761 610.647 272.657 611.083 272.449C611.523 272.241 611.867 271.947 612.113 271.568C612.364 271.189 612.489 270.744 612.489 270.233C612.489 269.741 612.38 269.312 612.163 268.947C611.945 268.583 611.637 268.299 611.239 268.095C610.846 267.892 610.382 267.79 609.847 267.79C609.345 267.79 608.872 267.882 608.427 268.067C607.987 268.247 607.627 268.509 607.347 268.855C607.068 269.196 606.916 269.608 606.893 270.091H605.188C605.217 269.329 605.446 268.661 605.877 268.088C606.308 267.51 606.871 267.061 607.567 266.739C608.268 266.417 609.038 266.256 609.876 266.256C610.775 266.256 611.547 266.438 612.191 266.803C612.835 267.162 613.33 267.638 613.675 268.23C614.021 268.822 614.194 269.461 614.194 270.148C614.194 270.967 613.978 271.665 613.548 272.243C613.121 272.821 612.541 273.221 611.808 273.443V273.557C612.726 273.708 613.443 274.099 613.96 274.729C614.476 275.354 614.734 276.128 614.734 277.051C614.734 277.842 614.518 278.552 614.087 279.182C613.661 279.807 613.079 280.299 612.34 280.659C611.602 281.019 610.761 281.199 609.819 281.199Z" fill="black"/>
<path d="M774.619 733.455V748H772.858V735.301H772.773L769.222 737.659V735.869L772.858 733.455H774.619ZM779.193 748.114C778.843 748.114 778.542 747.988 778.291 747.737C778.04 747.486 777.915 747.186 777.915 746.835C777.915 746.485 778.04 746.184 778.291 745.933C778.542 745.682 778.843 745.557 779.193 745.557C779.544 745.557 779.844 745.682 780.095 745.933C780.346 746.184 780.472 746.485 780.472 746.835C780.472 747.067 780.412 747.28 780.294 747.474C780.18 747.669 780.027 747.825 779.832 747.943C779.643 748.057 779.43 748.114 779.193 748.114ZM783.11 745.017V743.568L789.502 733.455H790.553V735.699H789.843L785.013 743.341V743.455H793.621V745.017H783.11ZM789.957 748V744.577V743.902V733.455H791.633V748H789.957Z" fill="black"/>
<path d="M138 92.4992L154 624.999C194.5 456.166 273.709 151 300 114.998C355.5 39.0002 461 34.5 468 313.498L461 529.499C493.833 389.499 563.5 147.499 591 114.999C637.768 59.7276 782.088 59.4991 732.5 313.499C717.5 390.333 699.1 570.599 745.5 624.999C778.667 656.166 855.4 691.399 897 582.999L952 421.499" stroke="black" stroke-width="2" stroke-dasharray="10 10"/>
<path d="M359.966 257.586C360.566 258.157 361.516 258.134 362.087 257.534L371.393 247.754C371.964 247.154 371.941 246.204 371.34 245.633C370.74 245.062 369.791 245.086 369.22 245.686L360.947 254.379L352.254 246.107C351.654 245.535 350.705 245.559 350.134 246.159C349.563 246.759 349.586 247.709 350.186 248.28L359.966 257.586ZM296.922 256.977C301.992 241.891 308.38 225.314 315.158 211.207C318.547 204.153 322.023 197.739 325.468 192.446C328.926 187.133 332.297 183.037 335.456 180.538C338.627 178.029 341.293 177.343 343.549 178.151C345.901 178.994 348.404 181.651 350.718 187.304C355.324 198.556 358.6 220.236 359.5 256.537L362.5 256.462C361.6 220.163 358.33 197.981 353.494 186.167C351.087 180.287 348.146 176.611 344.561 175.327C340.879 174.008 337.114 175.401 333.594 178.186C330.061 180.981 326.479 185.392 322.954 190.809C319.415 196.246 315.878 202.782 312.454 209.908C305.607 224.16 299.174 240.858 294.078 256.022L296.922 256.977Z" fill="black"/>
<path d="M634.466 268.259C635.066 268.83 636.016 268.807 636.587 268.206L645.893 258.427C646.464 257.827 646.441 256.877 645.84 256.306C645.24 255.735 644.291 255.759 643.72 256.359L635.447 265.052L626.754 256.779C626.154 256.208 625.205 256.232 624.634 256.832C624.063 257.432 624.086 258.382 624.686 258.953L634.466 268.259ZM571.422 267.65C576.492 252.564 582.88 235.987 589.658 221.88C593.047 214.826 596.523 208.412 599.968 203.119C603.426 197.806 606.797 193.71 609.956 191.211C613.127 188.702 615.793 188.016 618.049 188.824C620.401 189.666 622.904 192.324 625.218 197.977C629.824 209.229 633.1 230.909 634 267.21L637 267.135C636.1 230.836 632.83 208.654 627.994 196.84C625.587 190.96 622.646 187.284 619.061 186C615.379 184.681 611.614 186.074 608.094 188.859C604.561 191.654 600.979 196.065 597.454 201.482C593.915 206.918 590.378 213.455 586.954 220.581C580.107 234.833 573.674 251.531 568.578 266.695L571.422 267.65Z" fill="black"/>
<path d="M882.98 680.746C883.116 679.929 882.563 679.156 881.746 679.02L868.429 676.805C867.612 676.669 866.839 677.221 866.703 678.038C866.567 678.855 867.12 679.628 867.937 679.764L879.774 681.733L877.805 693.571C877.669 694.388 878.221 695.161 879.038 695.297C879.855 695.433 880.628 694.88 880.764 694.063L882.98 680.746ZM624.625 595.599C639.536 629.86 670.29 675.348 714.183 700.316C736.158 712.816 761.439 720.18 789.651 718.386C817.86 716.593 848.889 705.651 882.372 681.72L880.628 679.28C847.511 702.949 817.01 713.641 789.461 715.392C761.915 717.143 737.209 709.963 715.667 697.709C672.527 673.169 642.131 628.306 627.375 594.401L624.625 595.599Z" fill="black"/>
</svg>
