<?xml version="1.0" encoding="UTF-8"?>
<svg version="1.1" xmlns="http://www.w3.org/2000/svg" width="677" height="764">
<path d="M0 0 C0.87060059 0.21495117 1.74120117 0.42990234 2.63818359 0.65136719 C31.25616259 7.95181636 55.93404297 22.38008727 74 46 C74.75667969 46.94488281 75.51335937 47.88976562 76.29296875 48.86328125 C88.09567852 64.32425343 99.11499114 83.57896473 102 103 C102.17072021 104.07991211 102.34144043 105.15982422 102.51733398 106.27246094 C103.32328599 112.49667704 103.24383613 118.73224979 103.25 125 C103.25100708 125.70908508 103.25201416 126.41817017 103.25305176 127.14874268 C103.24080952 139.95088153 102.28874677 152.38527944 100 165 C99.77521973 166.25635254 99.77521973 166.25635254 99.54589844 167.53808594 C97.80077833 176.96766275 95.52507927 185.48078409 91 194 C90.42378906 195.15757812 89.84757812 196.31515625 89.25390625 197.5078125 C85.87428905 204.19850012 82.16119489 210.51532397 77.8125 216.625 C77.40878174 217.19259033 77.00506348 217.76018066 76.58911133 218.3449707 C73.99601148 221.88670099 71.16891615 224.96953164 68 228 C67.42378906 228.57363281 66.84757812 229.14726562 66.25390625 229.73828125 C56.01208494 239.27050755 40.11867417 248.2298905 26 249 C25.13246094 249.05027344 24.26492188 249.10054688 23.37109375 249.15234375 C7.69686875 249.66323765 -6.06141244 244.87036213 -17.6875 234.375 C-18.20513916 233.90771484 -18.72277832 233.44042969 -19.25610352 232.95898438 C-21.91419386 230.42995374 -23.59742414 228.68002699 -24 225 C-23.24658203 222.86303711 -23.24658203 222.86303711 -22.0078125 220.52734375 C-21.55414307 219.64135498 -21.10047363 218.75536621 -20.63305664 217.8425293 C-20.13539795 216.88386963 -19.63773926 215.92520996 -19.125 214.9375 C-10.06208829 196.7402462 -3.36678382 177.08798975 0 157 C0.17442627 155.97712891 0.34885254 154.95425781 0.52856445 153.90039062 C1.89001784 145.27321556 2.35130446 136.85263 2.3125 128.125 C2.30758545 126.81088135 2.3026709 125.4967627 2.29760742 124.14282227 C2.08132782 106.22710738 -1.02261823 89.65712383 -12 75 C-12.86625 73.700625 -12.86625 73.700625 -13.75 72.375 C-24.71146539 60.80456431 -40.4760307 56.18796685 -56.01391602 55.71728516 C-65.31453131 55.58983654 -73.95443132 56.95591162 -83 59 C-84.02480469 59.19335938 -85.04960937 59.38671875 -86.10546875 59.5859375 C-107.18945047 63.96776366 -125.62674587 78.68462996 -139 95 C-139.62165039 95.73718262 -139.62165039 95.73718262 -140.25585938 96.48925781 C-154.36740342 113.23800861 -165.41795235 131.88641869 -176 151 C-176.38575195 151.68497559 -176.77150391 152.36995117 -177.16894531 153.07568359 C-185.48442096 167.86082303 -192.25874562 183.45070977 -199 199 C-199.28373474 199.65385681 -199.56746948 200.30771362 -199.85980225 200.98138428 C-210.56282408 225.73342719 -217.31767758 250.11856184 -220 277 C-220.10296387 277.95310059 -220.20592773 278.90620117 -220.31201172 279.88818359 C-223.74409399 312.49025421 -223.39416973 346.41412593 -220 379 C-219.87109375 380.24168945 -219.7421875 381.48337891 -219.609375 382.76269531 C-212.61889418 447.40846122 -189.34572843 521.3429411 -137 564 C-119.1577337 578.06975444 -100.63188197 589.78553646 -78.5 595.75 C-77.76547607 595.94883789 -77.03095215 596.14767578 -76.27416992 596.35253906 C-64.25282722 599.40399995 -52.24753642 600.36764439 -39.875 600.3125 C-39.19991394 600.31001251 -38.52482788 600.30752502 -37.82928467 600.30496216 C-10.92970272 600.15256893 14.89706254 594.06268461 39 582 C39.7105957 581.65211426 40.42119141 581.30422852 41.15332031 580.94580078 C57.32458871 572.98405643 71.53638118 562.93608423 85 551 C85.89460938 550.21625 86.78921875 549.4325 87.7109375 548.625 C97.00965974 540.38490152 105.28157615 531.73689325 113 522 C113.87406123 520.92761957 114.7490929 519.85602952 115.625 518.78515625 C129.55127732 501.62305276 139.89398368 482.56845335 150 463 C150.41910645 462.19594727 150.83821289 461.39189453 151.27001953 460.56347656 C162.54232438 438.73392019 169.64565707 414.64027723 176.80859375 391.21484375 C177.17662109 390.01384033 177.54464844 388.81283691 177.92382812 387.57543945 C178.65139735 385.15818642 179.35791248 382.73451178 180.04492188 380.30541992 C180.37943359 379.14502197 180.71394531 377.98462402 181.05859375 376.7890625 C181.4906311 375.243396 181.4906311 375.243396 181.93139648 373.66650391 C183.74312629 369.14566477 186.76499618 367.13572482 191 365 C191.80050781 364.59136719 192.60101562 364.18273437 193.42578125 363.76171875 C200.96902526 360.34790226 207.21006169 359.81458598 215.0625 362.5 C225.93441163 367.3898397 231.4625536 377.4511417 236 388 C239.04425896 396.7546683 237.86590378 403.9204964 235.75 412.6875 C235.36497314 414.28404419 235.36497314 414.28404419 234.97216797 415.9128418 C215.17459994 494.46466177 173.28267825 586.61241347 101.83203125 629.609375 C59.04721114 654.79326159 7.77278239 677.9617284 -42.73828125 678.203125 C-43.72920273 678.21013931 -44.72012421 678.21715363 -45.74107361 678.22438049 C-48.9315958 678.24181232 -52.12193189 678.24823564 -55.3125 678.25 C-56.40647095 678.25067474 -57.50044189 678.25134949 -58.62756348 678.25204468 C-76.27623226 678.23478129 -93.5155217 677.5790229 -111 675 C-112.20946289 674.82307617 -113.41892578 674.64615234 -114.66503906 674.46386719 C-146.14365019 669.71624649 -177.29651779 662.04923048 -206 648 C-206.76618652 647.62649414 -207.53237305 647.25298828 -208.32177734 646.86816406 C-229.6369962 636.35283121 -250.04787591 622.77889327 -267.375 606.44921875 C-269.48785602 604.47784862 -271.63026429 602.57923231 -273.81640625 600.69140625 C-284.48247695 591.39454392 -294.3426818 581.18767407 -303 570 C-303.85196592 568.94743361 -304.70625585 567.89674533 -305.5625 566.84765625 C-351.5915977 510.05668626 -373.29120062 434.10125993 -373.1875 361.6875 C-373.18689575 360.90109131 -373.1862915 360.11468262 -373.18566895 359.30444336 C-372.98476699 262.33249995 -336.22260146 158.32988872 -269 87 C-267.95502136 85.75276743 -266.91331864 84.50278244 -265.875 83.25 C-257.04050538 73.12114919 -246.48842215 64.34141457 -236 56 C-234.94228212 55.11795381 -233.88638633 54.23371943 -232.83203125 53.34765625 C-167.35937339 -1.13690882 -82.52711572 -20.41637016 0 0 Z M-103 0 C-103.7537793 0.10231934 -104.50755859 0.20463867 -105.28417969 0.31005859 C-129.94491596 3.71733504 -154.79411433 12.9102844 -177 24 C-177.9583374 24.4640625 -177.9583374 24.4640625 -178.93603516 24.9375 C-202.78143141 36.52615029 -224.34027996 53.37156297 -244 71 C-244.54140625 71.48355957 -245.0828125 71.96711914 -245.640625 72.46533203 C-249.13761225 75.59768911 -252.58262565 78.78059768 -256 82 C-257.38638672 83.30517578 -257.38638672 83.30517578 -258.80078125 84.63671875 C-265.95951222 91.57268865 -272.03138052 99.0517955 -278 107 C-278.66467285 107.87350098 -278.66467285 107.87350098 -279.34277344 108.76464844 C-298.52720285 134.00289341 -314.1908475 161.62002303 -328.42626953 189.88720703 C-329.83535174 192.67433054 -331.27166432 195.44529576 -332.71484375 198.21484375 C-357.46075889 246.70742139 -367.21111214 305.62240801 -367.25 359.5625 C-367.25067474 360.41349274 -367.25134949 361.26448547 -367.25204468 362.14126587 C-367.23234855 377.9193371 -366.27290613 393.36705904 -364 409 C-363.83371094 410.14404297 -363.66742188 411.28808594 -363.49609375 412.46679688 C-358.38710568 446.24288466 -348.70100846 479.14693638 -334 510 C-333.67676758 510.68352539 -333.35353516 511.36705078 -333.02050781 512.07128906 C-321.42455636 536.42855624 -306.01525315 558.58010802 -287.5625 578.25 C-285.25457931 580.72679294 -283.02673791 583.25228742 -280.8125 585.8125 C-277.82499373 589.18626971 -274.68707866 592.16202717 -271.24609375 595.06640625 C-269.05137988 596.95576862 -266.93617333 598.91596042 -264.82543945 600.89819336 C-209.70645647 652.42381356 -133.70036917 672.46536234 -59.7043457 672.31567383 C-56.4360253 672.31249857 -53.16860134 672.33615608 -49.90039062 672.36132812 C-31.48411938 672.41880296 -13.87930412 670.71395471 3.8125 665.375 C4.98772217 665.02872559 6.16294434 664.68245117 7.3737793 664.32568359 C65.10909081 646.95028183 124.17954489 619.6769971 158 568 C158.46486816 567.29166016 158.92973633 566.58332031 159.40869141 565.85351562 C212.20642551 486.4008388 212.20642551 486.4008388 232 395 C228.91671766 384.85086229 223.56099923 373.77415251 214 368.375 C207.70881561 365.78234393 202.26858133 366.5529085 196.0546875 368.953125 C190.01401353 372.0065476 190.01401353 372.0065476 186.40771484 377.60229492 C185.98648876 379.0554065 185.58892446 380.51551464 185.2109375 381.98046875 C184.98584 382.77314651 184.76074249 383.56582428 184.52882385 384.38252258 C184.04533802 386.08937612 183.57125515 387.79891581 183.10568237 389.51074219 C181.86168122 394.06797516 180.5361396 398.60140523 179.21484375 403.13671875 C178.94851639 404.05560883 178.68218903 404.9744989 178.40779114 405.92123413 C170.76534804 432.06735477 160.94092268 458.30057074 146.9453125 481.73046875 C145.55257064 484.07128187 144.22113669 486.40589385 142.9296875 488.80078125 C133.45244128 506.31457768 121.59725921 521.89963878 108.1875 536.58984375 C106.06733383 538.92581254 104.0030269 541.30326875 101.9375 543.6875 C98.23585761 547.84640409 94.26183045 551.42927719 90 555 C89.030625 555.845625 88.06125 556.69125 87.0625 557.5625 C79.73492048 563.93196964 72.16911637 569.72823459 64 575 C63.43087891 575.36834961 62.86175781 575.73669922 62.27539062 576.11621094 C23.43197358 600.96996224 -25.94505778 613.20252866 -71.64941406 603.53466797 C-93.5688135 598.54884695 -113.02584665 589.46490756 -131 576 C-132.15484573 575.16392134 -133.30979161 574.32798099 -134.46484375 573.4921875 C-169.16796627 547.82566484 -189.58029326 510.44984801 -205 471 C-205.39461426 470.00516602 -205.78922852 469.01033203 -206.19580078 467.98535156 C-223.60788858 423.70417738 -228.2480687 375.45968806 -228.1875 328.1875 C-228.18689575 327.30325348 -228.1862915 326.41900696 -228.18566895 325.50796509 C-228.13837511 299.77175846 -226.41926798 274.38601922 -222 249 C-221.84225098 248.08524902 -221.68450195 247.17049805 -221.52197266 246.22802734 C-211.05398769 188.65953388 -174.22870729 124.27353475 -135 82 C-134.38898438 81.32324219 -133.77796875 80.64648438 -133.1484375 79.94921875 C-114.60518352 60.26180655 -87.90266197 50.5792198 -61.21655273 49.71679688 C-41.71555091 49.43522784 -23.90909713 54.85594129 -9.3125 68.1875 C8.39069707 87.01537077 8.90824568 114.95215733 8.19091797 139.18652344 C6.78388647 167.29116786 -2.01829146 197.21172564 -16.1640625 221.58984375 C-17.23192032 223.99735837 -17.23192032 223.99735837 -16.453125 226.56640625 C-11.59470095 234.70296051 -0.67875194 239.20311314 8 242 C25.4025529 245.55292693 40.76159312 240.3905462 55.30859375 230.82421875 C74.92118713 216.64732541 89.73629789 190.88254254 93.63671875 167.1171875 C93.79785156 166.08851563 93.95898438 165.05984375 94.125 164 C94.29386719 162.97132813 94.46273438 161.94265625 94.63671875 160.8828125 C95.11465374 157.92488412 95.56542309 154.96458389 96 152 C96.10892578 151.27828613 96.21785156 150.55657227 96.33007812 149.81298828 C97.24013677 142.92371338 97.22145891 135.98343312 97.24023438 129.04589844 C97.24988759 126.89998809 97.28097479 124.75505979 97.3125 122.609375 C97.55633771 90.69573945 81.39130876 61.33704772 59.640625 38.67578125 C35.07106136 13.77910803 2.69284055 5.16790836 -31 0 C-31.86093262 -0.13277344 -32.72186523 -0.26554687 -33.60888672 -0.40234375 C-56.07545518 -3.67421872 -80.5798939 -3.46583743 -103 0 Z " fill="#000000" transform="translate(429,41)"/>
<path d="M0 0 C0.66386719 0.59941406 1.32773437 1.19882812 2.01171875 1.81640625 C27.41098403 25.6700773 38.78587586 61.99290567 40 96 C40.55058341 134.19440402 30.50055134 175.56585298 5 205 C4.01 204.67 3.02 204.34 2 204 C2.3403125 203.50113281 2.680625 203.00226563 3.03125 202.48828125 C4.70758465 200.00498763 6.35744155 197.50577534 8 195 C8.93972656 193.56720703 8.93972656 193.56720703 9.8984375 192.10546875 C33.33332367 155.28583534 41.49710472 109.92199169 32.47802734 67.22167969 C24.84675075 33.56991262 5.47714825 4.37339414 -23.6484375 -14.39453125 C-90.25105434 -56.0178731 -179.86943983 -48.43740931 -253.38476562 -31.88183594 C-304.90173929 -19.31570217 -347.85619051 11.93516191 -384.875 48.75 C-385.57689453 49.44714111 -386.27878906 50.14428223 -387.00195312 50.86254883 C-391.53729161 55.41245132 -395.83641698 60.10848409 -400 65 C-400.54414551 65.63744141 -401.08829102 66.27488281 -401.64892578 66.93164062 C-419.06217594 87.48124575 -434.56418383 109.65203399 -448 133 C-448.38865234 133.67434082 -448.77730469 134.34868164 -449.17773438 135.04345703 C-465.58592596 163.67852568 -478.80248867 193.60973948 -489 225 C-489.29712891 225.90282715 -489.59425781 226.8056543 -489.90039062 227.73583984 C-497.02641306 249.55249133 -502.23794187 271.84102427 -505.8125 294.5 C-506.00730957 295.72517334 -506.20211914 296.95034668 -506.40283203 298.21264648 C-509.37388986 318.01402708 -510.37747842 337.67797912 -510.3125 357.6875 C-510.31100952 358.82786713 -510.30951904 359.96823425 -510.3079834 361.14315796 C-510.26850023 377.96490247 -509.69483281 394.3676913 -507 411 C-506.72914529 412.885227 -506.4596173 414.77064507 -506.19140625 416.65625 C-495.54704209 487.40314718 -460.40349071 549.35335219 -410.5 599.6875 C-409.63407227 600.56647949 -408.76814453 601.44545898 -407.87597656 602.35107422 C-401.89750934 608.33741673 -395.61057162 613.72756123 -389 619 C-387.86099198 619.95275419 -386.72496668 620.90910173 -385.59375 621.87109375 C-336.64515814 662.82021303 -274.95134514 689.13831435 -214.0625 706.625 C-213.31166138 706.84159271 -212.56082275 707.05818542 -211.78723145 707.28134155 C-209.64290316 707.89621319 -207.49605178 708.50107296 -205.34765625 709.1015625 C-204.12054932 709.44525879 -202.89344238 709.78895508 -201.62915039 710.14306641 C-194.68682505 711.78232385 -187.93089458 712.17163711 -180.83203125 712.23828125 C-179.5350808 712.25297203 -179.5350808 712.25297203 -178.21192932 712.26795959 C-157.80330413 712.45113921 -138.09800975 711.95627693 -118 708 C-116.46230957 707.70246826 -116.46230957 707.70246826 -114.89355469 707.39892578 C-89.27258826 702.2559116 -63.36466033 693.71162048 -40 682 C-39.02659668 681.51805176 -38.05319336 681.03610352 -37.05029297 680.53955078 C-16.7319263 670.42606565 2.15960896 659.03271896 20 645 C20.6609668 644.48324707 21.32193359 643.96649414 22.00292969 643.43408203 C32.15934949 635.45964802 41.72058784 626.97574991 51 618 C51.58442871 617.43748535 52.16885742 616.8749707 52.77099609 616.29541016 C59.18678727 610.09557829 65.22582992 603.79694724 70.76953125 596.7890625 C72.76473846 594.29417993 74.82882053 591.87795116 76.9284668 589.47094727 C108.55615334 553.00063735 130.82402726 507.52791821 146 462 C144.02 462.33 142.04 462.66 140 463 C141 460 141 460 143.8125 458.3125 C147 457 147 457 151 457 C155 463.625 155 463.625 155 467 C154.01 467 153.02 467 152 467 C151.67 465.68 151.34 464.36 151 463 C150.34 463 149.68 463 149 463 C148.87109375 463.7211499 148.7421875 464.4422998 148.609375 465.18530273 C145.12762821 481.26745768 137.06985309 497.19955988 130 512 C129.54753906 512.94875 129.09507812 513.8975 128.62890625 514.875 C109.53948441 554.6058292 84.26312127 589.92735142 53.09863281 621.08666992 C51.6279359 622.55955972 50.16546466 624.04030265 48.703125 625.52148438 C42.47269761 631.78933175 35.95578865 637.53922472 29 643 C28.28521484 643.56871826 27.57042969 644.13743652 26.83398438 644.72338867 C-17.29792274 679.63233234 -68.55308185 703.14338711 -124 713 C-125.34940674 713.2477417 -125.34940674 713.2477417 -126.72607422 713.50048828 C-140.83576566 715.98982811 -154.90018088 716.28380456 -169.1875 716.3125 C-170.0722702 716.31617584 -170.95704041 716.31985168 -171.86862183 716.32363892 C-187.50535629 716.35757934 -201.4492557 714.47780378 -216.5 710 C-217.16441101 709.80403229 -217.82882202 709.60806458 -218.5133667 709.40615845 C-286.57102146 689.3016548 -352.79647513 658.23637994 -405.22265625 609.55859375 C-407.48930455 607.4704719 -409.78332891 605.43993504 -412.125 603.4375 C-419.67992076 596.87210109 -426.52964557 589.62242582 -433 582 C-433.79792969 581.09121094 -434.59585938 580.18242188 -435.41796875 579.24609375 C-480.35552268 527.70810396 -505.83620638 462.59877601 -513 395 C-513.09716309 394.08968018 -513.19432617 393.17936035 -513.29443359 392.24145508 C-514.32057622 381.04323611 -514.24373756 369.79806306 -514.25 358.5625 C-514.25067474 357.47319183 -514.25134949 356.38388367 -514.25204468 355.26156616 C-514.23474921 337.63845746 -513.51273204 320.46436099 -511 303 C-510.83902832 301.82195801 -510.67805664 300.64391602 -510.51220703 299.43017578 C-504.41427363 255.7019598 -491.4351068 213.07213224 -473 173 C-472.51031738 171.92717773 -472.02063477 170.85435547 -471.51611328 169.74902344 C-457.51758012 139.25963666 -440.39097709 110.64021902 -420 84 C-419.49307617 83.33468262 -418.98615234 82.66936523 -418.46386719 81.98388672 C-413.2507476 75.16393631 -407.86994095 68.56055858 -402.0546875 62.23828125 C-400.11897397 60.12960473 -398.24180024 57.98213672 -396.375 55.8125 C-393.56917064 52.58351772 -390.60078968 49.5751379 -387.546875 46.58203125 C-385.85735778 44.91456491 -385.85735778 44.91456491 -384.0625 42.5 C-381.64885346 39.57436783 -378.9423646 37.2688551 -376.0625 34.8125 C-374.17431113 33.15318251 -372.43006635 31.43458814 -370.6875 29.625 C-366.1254414 25.01191166 -361.08886965 21.01136445 -356 17 C-355.37802734 16.50693359 -354.75605469 16.01386719 -354.11523438 15.50585938 C-301.50409082 -26.0400388 -242.92219403 -41.59265663 -177 -47 C-176.15566406 -47.07057617 -175.31132812 -47.14115234 -174.44140625 -47.21386719 C-113.23986837 -52.09038096 -46.29486225 -43.61338812 0 0 Z " fill="#000000" transform="translate(522,48)"/>
<path d="M0 0 C0 4.95 0 9.9 0 15 C-0.99 15 -1.98 15 -3 15 C-3 11.37 -3 7.74 -3 4 C-3.99 4.33 -4.98 4.66 -6 5 C-5.625 3.0625 -5.625 3.0625 -5 1 C-3 0 -3 0 0 0 Z " fill="#000000" transform="translate(7,336)"/>
<path d="M0 0 C0 0.66 0 1.32 0 2 C-1.26418246 2.69965443 -2.53665402 3.38434763 -3.8125 4.0625 C-4.52019531 4.44535156 -5.22789062 4.82820312 -5.95703125 5.22265625 C-8 6 -8 6 -11 5 C-11 4.34 -11 3.68 -11 3 C-9.73581754 2.30034557 -8.46334598 1.61565237 -7.1875 0.9375 C-6.47980469 0.55464844 -5.77210938 0.17179688 -5.04296875 -0.22265625 C-3 -1 -3 -1 0 0 Z " fill="#000000" transform="translate(487,655)"/>
<path d="M0 0 C1.17825358 0.90172468 2.34231577 1.82201502 3.5 2.75 C4.1496875 3.26046875 4.799375 3.7709375 5.46875 4.296875 C7 6 7 6 7 10 C3.21282653 8.51218185 1.22592999 6.38011591 -1 3 C-0.67 2.01 -0.34 1.02 0 0 Z " fill="#000000" transform="translate(200,621)"/>
<path d="M0 0 C0.99 0.33 1.98 0.66 3 1 C1.47291037 4.43595166 -0.59927045 7.11912454 -3 10 C-3.99 9.67 -4.98 9.34 -6 9 C-4.47291037 5.56404834 -2.40072955 2.88087546 0 0 Z " fill="#000000" transform="translate(560,591)"/>
<path d="M0 0 C1.34173403 0.92543709 2.67320159 1.86577405 4 2.8125 C5.11375 3.59560547 5.11375 3.59560547 6.25 4.39453125 C7.11625 5.18923828 7.11625 5.18923828 8 6 C8 6.99 8 7.98 8 9 C4.06326356 7.68775452 1.77280706 6.08089673 -1 3 C-0.67 2.01 -0.34 1.02 0 0 Z " fill="#000000" transform="translate(214,635)"/>
<path d="M0 0 C0.66 0.33 1.32 0.66 2 1 C0.50164772 5.66154042 -2.88463591 6.86610751 -7 9 C-7 7.68 -7 6.36 -7 5 C-5.46875 3.515625 -5.46875 3.515625 -3.5 2.25 C-2.8503125 1.82203125 -2.200625 1.3940625 -1.53125 0.953125 C-1.0259375 0.63859375 -0.520625 0.3240625 0 0 Z " fill="#000000" transform="translate(518,632)"/>
<path d="M0 0 C0.99 0 1.98 0 3 0 C2.71758359 1.46015291 2.42373386 2.91809793 2.125 4.375 C1.96257812 5.18710938 1.80015625 5.99921875 1.6328125 6.8359375 C1 9 1 9 -1 11 C-1.66 10.67 -2.32 10.34 -3 10 C-2.01 6.7 -1.02 3.4 0 0 Z " fill="#000000" transform="translate(144,243)"/>
<path d="M0 0 C0.99 0.33 1.98 0.66 3 1 C0.89851796 4.98175544 -1.36905358 7.35039045 -5 10 C-5 4.69520066 -3.4637943 3.81017373 0 0 Z " fill="#000000" transform="translate(478,233)"/>
<path d="M0 0 C0.99 0.33 1.98 0.66 3 1 C1.35 4.3 -0.3 7.6 -2 11 C-2.66 10.67 -3.32 10.34 -4 10 C-3.43454163 6.04179141 -2.19097652 3.3340947 0 0 Z " fill="#000000" transform="translate(160,206)"/>
<path d="M0 0 C0.99 0.33 1.98 0.66 3 1 C1.6062718 5.43458973 -0.60582235 7.87378374 -4 11 C-5 8 -5 8 -4.00390625 5.95703125 C-3.52824219 5.24933594 -3.05257812 4.54164063 -2.5625 3.8125 C-2.08941406 3.09707031 -1.61632812 2.38164062 -1.12890625 1.64453125 C-0.75636719 1.10183594 -0.38382813 0.55914062 0 0 Z " fill="#000000" transform="translate(180,171)"/>
<path d="M0 0 C3.13506611 0.33589994 4.025249 1.02665172 6.25 3.375 C8 6 8 6 8 9 C7.01 9 6.02 9 5 9 C0 3.76744186 0 3.76744186 0 0 Z " fill="#000000" transform="translate(467,103)"/>
<path d="M0 0 C-0.125 1.75 -0.125 1.75 -1 4 C-3.875 6.3125 -3.875 6.3125 -7 8 C-7.99 7.67 -8.98 7.34 -10 7 C-10 6.34 -10 5.68 -10 5 C-8.3203125 3.7109375 -8.3203125 3.7109375 -6.125 2.375 C-5.40570313 1.92898437 -4.68640625 1.48296875 -3.9453125 1.0234375 C-2 0 -2 0 0 0 Z " fill="#000000" transform="translate(255,103)"/>
<path d="M0 0 C0.515625 0.2475 1.03125 0.495 1.5625 0.75 C-1.45637244 4.23331435 -4.00659529 5.54157144 -8.4375 6.75 C-8.7675 5.76 -9.0975 4.77 -9.4375 3.75 C-3.0375 -0.31153846 -3.0375 -0.31153846 0 0 Z " fill="#000000" transform="translate(271.4375,93.25)"/>
<path d="M0 0 C0.66 0.33 1.32 0.66 2 1 C2 1.66 2 2.32 2 3 C0.73581754 3.69965443 -0.53665402 4.38434763 -1.8125 5.0625 C-2.52019531 5.44535156 -3.22789062 5.82820313 -3.95703125 6.22265625 C-6 7 -6 7 -9 6 C-9 5.34 -9 4.68 -9 4 C-7.54618103 3.30300448 -6.08677047 2.61766134 -4.625 1.9375 C-3.40683594 1.36322266 -3.40683594 1.36322266 -2.1640625 0.77734375 C-1.44992187 0.52082031 -0.73578125 0.26429687 0 0 Z " fill="#000000" transform="translate(289,83)"/>
<path d="M0 0 C-0.33 1.32 -0.66 2.64 -1 4 C-4.3 4.33 -7.6 4.66 -11 5 C-11 4.01 -11 3.02 -11 2 C-9.5422647 1.664061 -8.08378894 1.33133376 -6.625 1 C-5.40683594 0.7215625 -5.40683594 0.7215625 -4.1640625 0.4375 C-2 0 -2 0 0 0 Z " fill="#000000" transform="translate(348,64)"/>
<path d="M0 0 C3.63 0 7.26 0 11 0 C11 0.99 11 1.98 11 3 C7.37 3 3.74 3 0 3 C0 2.01 0 1.02 0 0 Z " fill="#000000" transform="translate(361,683)"/>
<path d="M0 0 C-0.33 1.32 -0.66 2.64 -1 4 C-4.3 4.33 -7.6 4.66 -11 5 C-10.67 4.01 -10.34 3.02 -10 2 C-8.22265625 1.26953125 -8.22265625 1.26953125 -6.0625 0.8125 C-4.99708984 0.57466797 -4.99708984 0.57466797 -3.91015625 0.33203125 C-2 0 -2 0 0 0 Z " fill="#000000" transform="translate(431,675)"/>
<path d="M0 0 C0 0.99 0 1.98 0 3 C-4.12168689 4.62950412 -6.70700357 5.26264601 -11 4 C-10 2 -10 2 -7.1875 0.875 C-4 0 -4 0 0 0 Z " fill="#000000" transform="translate(450,670)"/>
<path d="M0 0 C-0.33589994 3.13506611 -1.02665172 4.025249 -3.375 6.25 C-6 8 -6 8 -9 8 C-7.13554727 3.64961029 -5.02378599 0 0 0 Z " fill="#000000" transform="translate(535,620)"/>
<path d="M0 0 C0.99 0 1.98 0 3 0 C1.6062718 4.43458973 -0.60582235 6.87378374 -4 10 C-5 7 -5 7 -4.109375 5.17578125 C-3.66078125 4.56089844 -3.2121875 3.94601562 -2.75 3.3125 C-2.31171875 2.68988281 -1.8734375 2.06726563 -1.421875 1.42578125 C-0.95265625 0.95527344 -0.4834375 0.48476563 0 0 Z " fill="#000000" transform="translate(572,576)"/>
<path d="M0 0 C1.890625 0.21484375 1.890625 0.21484375 4 1 C5.046875 3.06640625 5.046875 3.06640625 5.75 5.5625 C5.99234375 6.38878906 6.2346875 7.21507812 6.484375 8.06640625 C6.65453125 8.70449219 6.8246875 9.34257813 7 10 C5.109375 9.78515625 5.109375 9.78515625 3 9 C1.953125 6.93359375 1.953125 6.93359375 1.25 4.4375 C1.00765625 3.61121094 0.7653125 2.78492188 0.515625 1.93359375 C0.34546875 1.29550781 0.1753125 0.65742187 0 0 Z " fill="#000000" transform="translate(147,537)"/>
<path d="M0 0 C0.99 0.33 1.98 0.66 3 1 C1.68 3.97 0.36 6.94 -1 10 C-1.99 10 -2.98 10 -4 10 C-3.43454163 6.04179141 -2.19097652 3.3340947 0 0 Z " fill="#000000" transform="translate(603,525)"/>
<path d="M0 0 C0.99 0 1.98 0 3 0 C3.66 3.3 4.32 6.6 5 10 C4.01 10.33 3.02 10.66 2 11 C0.80712589 7.12315913 0 4.08378077 0 0 Z " fill="#000000" transform="translate(135,499)"/>
<path d="M0 0 C0.66 0 1.32 0 2 0 C3.19287411 3.87684087 4 6.91621923 4 11 C3.01 11 2.02 11 1 11 C0.63890458 9.35567294 0.28629924 7.7094792 -0.0625 6.0625 C-0.25972656 5.14597656 -0.45695313 4.22945313 -0.66015625 3.28515625 C-0.77230469 2.53105469 -0.88445312 1.77695312 -1 1 C-0.67 0.67 -0.34 0.34 0 0 Z " fill="#000000" transform="translate(131,479)"/>
<path d="M0 0 C0.99 0 1.98 0 3 0 C3 3.63 3 7.26 3 11 C2.01 11 1.02 11 0 11 C0 7.37 0 3.74 0 0 Z " fill="#000000" transform="translate(122,420)"/>
<path d="M0 0 C0.99 0 1.98 0 3 0 C3 3.63 3 7.26 3 11 C2.01 11 1.02 11 0 11 C0 7.37 0 3.74 0 0 Z " fill="#000000" transform="translate(121,360)"/>
<path d="M0 0 C0.66 0 1.32 0 2 0 C1.54663921 4.87362847 0.2910841 7.39042389 -3 11 C-3.66 10.67 -4.32 10.34 -5 10 C-3.66749209 6.4124787 -2.169283 3.1635377 0 0 Z " fill="#000000" transform="translate(489,216)"/>
<path d="M0 0 C0.99 0 1.98 0 3 0 C2.34 3.3 1.68 6.6 1 10 C-0.32 10 -1.64 10 -3 10 C-2.01 6.7 -1.02 3.4 0 0 Z " fill="#000000" transform="translate(495,197)"/>
<path d="M0 0 C0.99 0 1.98 0 3 0 C3 3.63 3 7.26 3 11 C2.01 11 1.02 11 0 11 C0 7.37 0 3.74 0 0 Z " fill="#000000" transform="translate(496,177)"/>
<path d="M0 0 C0.99 0.99 1.98 1.98 3 3 C1.02 5.31 -0.96 7.62 -3 10 C-3.99 9.67 -4.98 9.34 -6 9 C-4.02 6.03 -2.04 3.06 0 0 Z " fill="#000000" transform="translate(192,155)"/>
<path d="M0 0 C0.99 0.33 1.98 0.66 3 1 C1.4169423 5.2742558 -1.50568404 7.26531794 -5 10 C-5 4.69520066 -3.4637943 3.81017373 0 0 Z " fill="#000000" transform="translate(205,140)"/>
<path d="M0 0 C0.66 0 1.32 0 2 0 C2.50615298 1.26839526 3.00469099 2.53983102 3.5 3.8125 C3.91765625 4.87404297 3.91765625 4.87404297 4.34375 5.95703125 C5 8 5 8 5 11 C4.01 11 3.02 11 2 11 C1.01 7.7 0.02 4.4 -1 1 C-0.67 0.67 -0.34 0.34 0 0 Z " fill="#000000" transform="translate(489,137)"/>
<path d="M0 0 C0.66 0 1.32 0 2 0 C6.06153846 6.4 6.06153846 6.4 5.75 9.4375 C5.5025 9.953125 5.255 10.46875 5 11 C2.38114512 8.63055987 0.58133449 6.16266898 -1 3 C-0.67 2.01 -0.34 1.02 0 0 Z " fill="#000000" transform="translate(480,119)"/>
<path d="M0 0 C3.3 1.65 6.6 3.3 10 5 C9.67 5.99 9.34 6.98 9 8 C5.00499382 6.6302836 2.19990508 4.74277578 -1 2 C-0.67 1.34 -0.34 0.68 0 0 Z " fill="#000000" transform="translate(436,77)"/>
<path d="M0 0 C-0.21484375 1.890625 -0.21484375 1.890625 -1 4 C-3.06640625 5.046875 -3.06640625 5.046875 -5.5625 5.75 C-6.80193359 6.11351563 -6.80193359 6.11351563 -8.06640625 6.484375 C-9.02353516 6.73960938 -9.02353516 6.73960938 -10 7 C-10.33 6.01 -10.66 5.02 -11 4 C-9.5437455 3.32880451 -8.08492133 2.66318193 -6.625 2 C-5.81289063 1.62875 -5.00078125 1.2575 -4.1640625 0.875 C-2 0 -2 0 0 0 Z " fill="#000000" transform="translate(309,75)"/>
<path d="M0 0 C1.64846769 0.44876616 3.29373455 0.90930488 4.9375 1.375 C5.85402344 1.63023438 6.77054687 1.88546875 7.71484375 2.1484375 C10 3 10 3 11 5 C10.34 5.66 9.68 6.32 9 7 C4.545 5.02 4.545 5.02 0 3 C0 2.01 0 1.02 0 0 Z " fill="#000000" transform="translate(417,69)"/>
<path d="M0 0 C8.57142857 -0.28571429 8.57142857 -0.28571429 12 2 C11.67 2.66 11.34 3.32 11 4 C7.37 3.67 3.74 3.34 0 3 C0 2.01 0 1.02 0 0 Z " fill="#000000" transform="translate(377,62)"/>
<path d="M0 0 C0 0.99 0 1.98 0 3 C-3.63 3.33 -7.26 3.66 -11 4 C-11 3.01 -11 2.02 -11 1 C-7.27569643 0.30710631 -3.78916254 -0.11144596 0 0 Z " fill="#000000" transform="translate(392,682)"/>
<path d="M0 0 C3.63 0 7.26 0 11 0 C11 0.99 11 1.98 11 3 C7.7 3 4.4 3 1 3 C0.67 2.01 0.34 1.02 0 0 Z " fill="#000000" transform="translate(341,683)"/>
<path d="M0 0 C-2.6598561 3.44216672 -5.90288286 3.99504674 -10 5 C-10.33 4.01 -10.66 3.02 -11 2 C-3.57142857 -1.57142857 -3.57142857 -1.57142857 0 0 Z " fill="#000000" transform="translate(469,664)"/>
<path d="M0 0 C3.48670834 1.1094072 6.77484237 2.26337666 10 4 C9.67 4.99 9.34 5.98 9 7 C7.68127338 6.60348083 6.37002899 6.18201309 5.0625 5.75 C3.96615234 5.40195312 3.96615234 5.40195312 2.84765625 5.046875 C1 4 1 4 0.24609375 1.890625 C0.16488281 1.26671875 0.08367187 0.6428125 0 0 Z " fill="#000000" transform="translate(246,658)"/>
<path d="M0 0 C3.99500618 1.3697164 6.80009492 3.25722422 10 6 C9.67 6.66 9.34 7.32 9 8 C5.56801397 6.76067171 2.69674368 5.49698489 0 3 C0 2.01 0 1.02 0 0 Z " fill="#000000" transform="translate(229,648)"/>
<path d="M0 0 C-3.17320782 3.53586014 -5.16743695 5.58578031 -10 6 C-10 5.01 -10 4.02 -10 3 C-3.375 -1.125 -3.375 -1.125 0 0 Z " fill="#000000" transform="translate(504,645)"/>
<path d="M0 0 C0.66 0 1.32 0 2 0 C3.32421875 1.42578125 3.32421875 1.42578125 4.6875 3.3125 C5.14511719 3.92738281 5.60273438 4.54226563 6.07421875 5.17578125 C6.53248047 6.07876953 6.53248047 6.07876953 7 7 C6.67 7.99 6.34 8.98 6 10 C3.03595495 7.19195732 0.55500981 4.81684226 -1 1 C-0.67 0.67 -0.34 0.34 0 0 Z " fill="#000000" transform="translate(187,606)"/>
<path d="M0 0 C3.80881639 1.44472346 5.29742886 3.32603071 7 7 C6.67 7.99 6.34 8.98 6 10 C3.03595495 7.19195732 0.55500981 4.81684226 -1 1 C-0.67 0.67 -0.34 0.34 0 0 Z " fill="#000000" transform="translate(175,590)"/>
<path d="M0 0 C1.8125 0.125 1.8125 0.125 4 1 C5.95320589 4.20883825 7 6.2205439 7 10 C2.57320993 8.52440331 2.08567304 6.09942632 0 2 C0 1.34 0 0.68 0 0 Z " fill="#000000" transform="translate(164,573)"/>
<path d="M0 0 C0.66 0.33 1.32 0.66 2 1 C0.7508258 4.45925163 -0.67527795 7.14693203 -3 10 C-3.99 9.67 -4.98 9.34 -6 9 C-4.02 6.03 -2.04 3.06 0 0 Z " fill="#000000" transform="translate(584,559)"/>
<path d="M0 0 C0.66 0 1.32 0 2 0 C2.67154933 1.28913487 3.33708859 2.58140204 4 3.875 C4.37125 4.59429688 4.7425 5.31359375 5.125 6.0546875 C6 8 6 8 6 10 C4.109375 9.75390625 4.109375 9.75390625 2 9 C0.953125 7.15234375 0.953125 7.15234375 0.25 4.9375 C0.00765625 4.20402344 -0.2346875 3.47054687 -0.484375 2.71484375 C-0.65453125 2.14894531 -0.8246875 1.58304688 -1 1 C-0.67 0.67 -0.34 0.34 0 0 Z " fill="#000000" transform="translate(156,555)"/>
<path d="M0 0 C0.66 0.33 1.32 0.66 2 1 C1.29445932 4.66881155 -0.27735506 7.70450534 -2 11 C-2.99 10.67 -3.98 10.34 -5 10 C-3.66511872 6.40608886 -2.03977277 3.24509304 0 0 Z " fill="#000000" transform="translate(594,542)"/>
<path d="M0 0 C0.99 0 1.98 0 3 0 C2.39301257 4.12751449 0.96189209 7.3321148 -1 11 C-1.66 10.67 -2.32 10.34 -3 10 C-2.39009109 6.44219804 -1.4216319 3.3171411 0 0 Z " fill="#000000" transform="translate(611,507)"/>
<path d="M0 0 C0.99 0 1.98 0 3 0 C2.60404157 1.48484412 2.18249294 2.9628831 1.75 4.4375 C1.51796875 5.26121094 1.2859375 6.08492188 1.046875 6.93359375 C0.52867187 7.95646484 0.52867187 7.95646484 0 9 C-1.32 9.33 -2.64 9.66 -4 10 C-2.68 6.7 -1.36 3.4 0 0 Z " fill="#000000" transform="translate(619,489)"/>
<path d="M0 0 C0.99 0.33 1.98 0.66 3 1 C1.68 4.3 0.36 7.6 -1 11 C-1.66 10.67 -2.32 10.34 -3 10 C-2.69201674 8.51988629 -2.378482 7.04092675 -2.0625 5.5625 C-1.88847656 4.73878906 -1.71445312 3.91507812 -1.53515625 3.06640625 C-1 1 -1 1 0 0 Z " fill="#000000" transform="translate(626,470)"/>
<path d="M0 0 C0.99 0 1.98 0 3 0 C3.66 3.3 4.32 6.6 5 10 C4.01 10.33 3.02 10.66 2 11 C1.34 7.37 0.68 3.74 0 0 Z " fill="#000000" transform="translate(126,460)"/>
<path d="M0 0 C0.99 0.33 1.98 0.66 3 1 C3.33 4.3 3.66 7.6 4 11 C3.01 11 2.02 11 1 11 C-0.20272819 8.59454362 -0.10071472 7.05003047 -0.0625 4.375 C-0.05347656 3.55773437 -0.04445313 2.74046875 -0.03515625 1.8984375 C-0.02355469 1.27195312 -0.01195313 0.64546875 0 0 Z " fill="#000000" transform="translate(124,440)"/>
<path d="M0 0 C0.99 0.33 1.98 0.66 3 1 C3 4.3 3 7.6 3 11 C2.01 11 1.02 11 0 11 C0 7.37 0 3.74 0 0 Z " fill="#000000" transform="translate(121,400)"/>
<path d="M0 0 C0.66 0 1.32 0 2 0 C2 3.63 2 7.26 2 11 C1.01 11 0.02 11 -1 11 C-1.02688151 9.35425434 -1.04634123 7.70838587 -1.0625 6.0625 C-1.07410156 5.14597656 -1.08570312 4.22945313 -1.09765625 3.28515625 C-1 1 -1 1 0 0 Z " fill="#000000" transform="translate(121,380)"/>
<path d="M0 0 C0.99 0.33 1.98 0.66 3 1 C2.34 4.3 1.68 7.6 1 11 C0.01 11 -0.98 11 -2 11 C-1.85892253 9.54119891 -1.71197585 8.08296449 -1.5625 6.625 C-1.48128906 5.81289063 -1.40007812 5.00078125 -1.31640625 4.1640625 C-1 2 -1 2 0 0 Z " fill="#000000" transform="translate(133,281)"/>
<path d="M0 0 C0.99 0 1.98 0 3 0 C2.69078116 1.45903258 2.37751201 2.91720722 2.0625 4.375 C1.88847656 5.18710937 1.71445313 5.99921875 1.53515625 6.8359375 C1 9 1 9 0 11 C-0.99 10.67 -1.98 10.34 -3 10 C-2.01 6.7 -1.02 3.4 0 0 Z " fill="#000000" transform="translate(138,262)"/>
<path d="M0 0 C0.66 0.33 1.32 0.66 2 1 C0.79157144 5.43090471 -0.51668565 7.98112756 -4 11 C-5 8 -5 8 -4.00390625 5.95703125 C-3.52824219 5.24933594 -3.05257812 4.54164063 -2.5625 3.8125 C-2.08941406 3.09707031 -1.61632812 2.38164062 -1.12890625 1.64453125 C-0.75636719 1.10183594 -0.38382813 0.55914062 0 0 Z " fill="#000000" transform="translate(170,188)"/>
<path d="M0 0 C2.60018816 3.90028225 2.15085514 7.47434569 2 12 C1.34 12 0.68 12 0 12 C-2 4.375 -2 4.375 -2 1 C-1.34 0.67 -0.68 0.34 0 0 Z " fill="#000000" transform="translate(496,156)"/>
<path d="M0 0 C-0.33589994 3.13506611 -1.02665172 4.025249 -3.375 6.25 C-6 8 -6 8 -9 8 C-7.13554727 3.64961029 -5.02378599 0 0 0 Z " fill="#000000" transform="translate(222,127)"/>
<path d="M0 0 C0.8353125 0.37125 0.8353125 0.37125 1.6875 0.75 C-1.12054268 3.71404505 -3.49565774 6.19499019 -7.3125 7.75 C-7.3125 3.75 -7.3125 3.75 -5.0625 1.4375 C-2.3125 -0.25 -2.3125 -0.25 0 0 Z " fill="#000000" transform="translate(237.3125,115.25)"/>
<path d="M0 0 C4.41889613 1.35021826 6.34345343 3.26115668 9 7 C3.69520066 7 2.81017373 5.4637943 -1 2 C-0.67 1.34 -0.34 0.68 0 0 Z " fill="#000000" transform="translate(453,89)"/>
<path d="M0 0 C3.63 0.66 7.26 1.32 11 2 C10.67 2.99 10.34 3.98 10 5 C6.37 4.34 2.74 3.68 -1 3 C-0.67 2.01 -0.34 1.02 0 0 Z " fill="#000000" transform="translate(398,64)"/>
<path d="M0 0 C0 0.99 0 1.98 0 3 C-3.63 3.33 -7.26 3.66 -11 4 C-11 3.01 -11 2.02 -11 1 C-7.27569643 0.30710631 -3.78916254 -0.11144596 0 0 Z " fill="#000000" transform="translate(368,62)"/>
<path d="M0 0 C0.66 0.99 1.32 1.98 2 3 C-5.625 5 -5.625 5 -9 5 C-9 4.01 -9 3.02 -9 2 C-6.03 1.34 -3.06 0.68 0 0 Z " fill="#000000" transform="translate(410,679)"/>
<path d="M0 0 C3.63 0.66 7.26 1.32 11 2 C10.67 2.99 10.34 3.98 10 5 C6.7 4.34 3.4 3.68 0 3 C0 2.01 0 1.02 0 0 Z " fill="#000000" transform="translate(302,677)"/>
<path d="M0 0 C5.445 1.485 5.445 1.485 11 3 C10.01 4.485 10.01 4.485 9 6 C6.03 5.01 3.06 4.02 0 3 C0 2.01 0 1.02 0 0 Z " fill="#000000" transform="translate(283,672)"/>
<path d="M0 0 C5.445 1.485 5.445 1.485 11 3 C10.67 3.99 10.34 4.98 10 6 C6.7 5.01 3.4 4.02 0 3 C0 2.01 0 1.02 0 0 Z " fill="#000000" transform="translate(264,666)"/>
<path d="M0 0 C0.99 0.33 1.98 0.66 3 1 C2.07038578 2.15224028 1.1309875 3.29659176 0.1875 4.4375 C-0.59560547 5.39462891 -0.59560547 5.39462891 -1.39453125 6.37109375 C-3 8 -3 8 -6 9 C-5.52797514 4.75177626 -3.03344482 2.80010291 0 0 Z " fill="#000000" transform="translate(547,606)"/>
<path d="M0 0 C0.99 0.33 1.98 0.66 3 1 C2.67 4.3 2.34 7.6 2 11 C1.01 11 0.02 11 -1 11 C-1.125 3.375 -1.125 3.375 0 0 Z " fill="#000000" transform="translate(123,340)"/>
<path d="M0 0 C0.99 0 1.98 0 3 0 C2.67 3.63 2.34 7.26 2 11 C1.01 10.67 0.02 10.34 -1 10 C-0.67 6.7 -0.34 3.4 0 0 Z " fill="#000000" transform="translate(128,301)"/>
<path d="M0 0 C0.66 0.33 1.32 0.66 2 1 C1.39009109 4.55780196 0.4216319 7.6828589 -1 11 C-1.99 10.67 -2.98 10.34 -4 10 C-3.52449439 8.51965236 -3.04448784 7.04074979 -2.5625 5.5625 C-2.29566406 4.73878906 -2.02882812 3.91507813 -1.75390625 3.06640625 C-1 1 -1 1 0 0 Z " fill="#000000" transform="translate(152,224)"/>
<path d="M0 0 C0 0.99 0 1.98 0 3 C-4.12168689 4.62950412 -6.70700357 5.26264601 -11 4 C-10 2 -10 2 -6.625 0.875 C-3 0 -3 0 0 0 Z " fill="#000000" transform="translate(328,69)"/>
<path d="M0 0 C3.63 0.66 7.26 1.32 11 2 C10.01 3.485 10.01 3.485 9 5 C6.36 4.67 3.72 4.34 1 4 C0.67 2.68 0.34 1.36 0 0 Z " fill="#000000" transform="translate(322,680)"/>
<path d="M0 0 C0.99 0.33 1.98 0.66 3 1 C3.73046875 3.06640625 3.73046875 3.06640625 4.1875 5.5625 C4.34605469 6.38878906 4.50460938 7.21507812 4.66796875 8.06640625 C4.77753906 8.70449219 4.88710937 9.34257813 5 10 C4.01 10 3.02 10 2 10 C0.68373308 6.38026598 0 3.90432869 0 0 Z " fill="#000000" transform="translate(141,518)"/>
<path d="M0 0 C0.99 0.33 1.98 0.66 3 1 C2.67 4.3 2.34 7.6 2 11 C1.01 11 0.02 11 -1 11 C-0.67 7.37 -0.34 3.74 0 0 Z " fill="#000000" transform="translate(125,320)"/>
<path d="M0 0 C0.99 0 1.98 0 3 0 C2.67 1.98 2.34 3.96 2 6 C1.01 6 0.02 6 -1 6 C-0.67 4.02 -0.34 2.04 0 0 Z " fill="#000000" transform="translate(630,456)"/>
<path d="M0 0 C0.99 0.33 1.98 0.66 3 1 C3 1.66 3 2.32 3 3 C1.35 3.66 -0.3 4.32 -2 5 C-2.33 4.01 -2.66 3.02 -3 2 C-2.01 1.34 -1.02 0.68 0 0 Z " fill="#000000" transform="translate(463,247)"/>
</svg>
