<?xml version="1.0" encoding="UTF-8"?>
<svg version="1.1" xmlns="http://www.w3.org/2000/svg" width="846" height="729">
<path d="M0 0 C4.27133539 0.48188188 7.61565185 2.14557653 11.41015625 4.09765625 C12.01830673 4.41020859 12.62645721 4.72276093 13.2530365 5.04478455 C14.53968208 5.70831 15.82469419 6.37501137 17.1081543 7.04467773 C19.02746057 8.04425148 20.95356373 9.02961041 22.88085938 10.01367188 C47.97431229 22.94803326 47.97431229 22.94803326 51 31 C52.20699742 36.61681478 51.38359677 40.99365771 48.625 46 C45.44863853 50.79082415 41.56782955 54.68006257 37.43359375 58.6484375 C34.05411637 61.91399991 31.04465947 65.42556978 28 69 C27.12073263 70.00473049 26.24043777 71.0085623 25.359375 72.01171875 C-18.7909842 122.50509648 -33.34388636 183.50648652 -44.81219482 248.13220215 C-45.48208743 251.88840614 -46.16558003 255.64207757 -46.84953499 259.39574242 C-50.82597608 281.22322923 -54.58351082 303.07769536 -58 325 C-57.04765976 324.8680423 -56.09531952 324.73608459 -55.11412048 324.60012817 C-47.33660956 323.53979159 -39.57658342 322.59773057 -31.75390625 321.9296875 C-30.77308578 321.84373322 -29.79226532 321.75777893 -28.78172302 321.66921997 C-26.73947592 321.49116586 -24.69708029 321.31480725 -22.65454102 321.14013672 C-19.5433079 320.87335431 -16.43279123 320.5991149 -13.32226562 320.32421875 C-11.32035089 320.15059844 -9.31839899 319.97740601 -7.31640625 319.8046875 C-6.3985585 319.72346649 -5.48071075 319.64224548 -4.53504944 319.55856323 C0.66580077 319.11939488 5.78059689 318.92176402 11 319 C11.10256104 318.05753418 11.20512207 317.11506836 11.31079102 316.14404297 C12.02616037 311.17540979 13.53716499 306.47778023 15.02734375 301.6953125 C15.33148193 300.70752808 15.63562012 299.71974365 15.94897461 298.70202637 C16.93700619 295.50708194 17.93546523 292.31557897 18.9375 289.125 C19.27935333 288.03499695 19.62120667 286.9449939 19.97341919 285.82196045 C28.36488639 259.15567148 39.00524593 234.17206239 51.08398438 208.99951172 C52.80426426 205.41374047 54.50626935 201.81958056 56.203125 198.22265625 C59.08736691 192.12455836 62.02528361 186.05444523 65 180 C65.81500977 178.33565918 65.81500977 178.33565918 66.64648438 176.63769531 C73.36385605 163.01529449 80.48884884 150.29293207 89.4296875 138.015625 C93.40303986 132.52621164 96.99412337 126.82081209 100.5625 121.0625 C101.18511719 120.05848145 101.80773437 119.05446289 102.44921875 118.02001953 C105.49784217 113.0866913 108.52609341 108.14095116 111.5546875 103.1953125 C119.35539838 90.47620616 127.58436536 78.57675792 137.07763672 67.05932617 C140.14276788 63.33408793 143.08230923 59.56116994 145.91235352 55.6550293 C164.84737637 29.81236371 201.1898806 22.76040938 230.55078125 16.34765625 C258.33255405 10.66711464 258.33255405 10.66711464 284.9453125 1.2890625 C291.39926151 -1.43447097 298.49508448 -0.57749408 304.94921875 1.91015625 C308.69871116 3.90274364 311.11810279 6.17300755 313 10 C315.1459158 18.48737209 311.5237606 25.70762279 307.29296875 32.88769531 C299.46507578 45.6760129 290.77738854 57.91678954 281.9375 70.01953125 C281.45015381 70.68686279 280.96280762 71.35419434 280.46069336 72.04174805 C279.5079132 73.31907541 278.535414 74.58199602 277.54125977 75.82739258 C273.25355481 81.25782307 270.07488243 87.12464737 266.88217163 93.2505188 C265.24354272 96.39358427 263.58244667 99.52473698 261.921875 102.65625 C261.58794235 103.28692886 261.2540097 103.91760773 260.90995789 104.56739807 C257.95219961 110.13379105 254.83530109 115.60161024 251.6875 121.0625 C236.97798987 146.79614594 224.08189697 173.58125047 211.26538086 200.29370117 C209.65162033 203.65583276 208.01834304 207.00784532 206.37719727 210.35668945 C199.60361834 224.24754461 193.57391805 238.35079136 187.8125 252.6875 C186.96744628 254.77435163 186.12174382 256.86094068 185.27539062 258.94726562 C180.14261451 271.61502118 175.06663849 284.30567153 170 297 C191.02046316 290.11131292 210.23530842 282.41722073 228.82373047 270.40478516 C233.02702412 267.69155298 237.25097187 265.01603423 241.5 262.375 C242.32491943 261.84156982 243.14983887 261.30813965 243.99975586 260.75854492 C249.33103173 257.46848191 252.7308152 256.29294908 259 257 C264.20918148 258.67753302 267.53132426 260.76050743 271 265 C273.662493 270.29842747 274.66488619 274.99711037 275.1875 280.875 C275.26210449 281.6992749 275.33670898 282.5235498 275.41357422 283.37280273 C275.62792021 285.9140908 275.81468222 288.45645171 276 291 C276.10417236 292.1763501 276.10417236 292.1763501 276.21044922 293.37646484 C277.37503312 307.28331541 277.37503312 307.28331541 272.6875 313.4375 C271.17236154 315.00552287 269.60700483 316.52627148 268 318 C267.20207031 318.79277344 266.40414062 319.58554687 265.58203125 320.40234375 C254.21166543 331.29106018 241.01979226 340.36364529 227.79296875 348.83837891 C226.10486347 349.93206149 224.44203702 351.06448199 222.78125 352.19921875 C201.99323752 365.7259979 174.02124474 375.29451603 150 381 C141.74846483 414.8788992 133.99715403 450.04975136 133 485 C132.97808594 485.69834961 132.95617187 486.39669922 132.93359375 487.11621094 C132.14987956 515.96995494 135.42655268 543.65343122 155.63671875 565.79296875 C165.72124893 575.29147296 179.80199052 578.91527332 193.3125 579.4375 C225.47943554 578.46156142 250.93447291 555.34182475 274.12890625 535.44140625 C276.69394783 533.26024844 279.29487864 531.14832918 281.9375 529.0625 C286.64930458 525.3297717 291.19932733 521.42606083 295.7487793 517.49902344 C300.22744182 513.64014589 304.79028005 509.89769569 309.38671875 506.1796875 C313.04311983 503.12995387 316.52832309 499.90548958 320.00390625 496.65234375 C322 495 322 495 324 495 C324.16246812 504.52730503 324.286708 514.05413049 324.3626852 523.58252048 C324.39915826 528.00741704 324.44859684 532.43136326 324.52807617 536.85571289 C324.60435264 541.12869993 324.64603486 545.4007753 324.6641407 549.67439079 C324.67703651 551.30153692 324.70222069 552.92863528 324.7401104 554.55539131 C325.02512333 567.30364658 325.02512333 567.30364658 322.47071838 571.53062439 C320.7352083 573.28834684 319.05931567 574.64868844 317 576 C316.28972656 576.63808594 315.57945312 577.27617188 314.84765625 577.93359375 C314.25855469 578.42988281 313.66945313 578.92617188 313.0625 579.4375 C310.25423653 581.85617779 307.60029407 584.35899683 305 587 C301.7784145 590.27202128 298.41407855 593.29316055 294.93359375 596.28515625 C293.04505403 597.96004299 291.26844352 599.69947587 289.5 601.5 C287.10946833 603.93389732 284.64953738 606.21355559 282.0625 608.4375 C279.30466668 610.80965931 276.72042312 613.26453842 274.1875 615.875 C269.45169587 620.66587162 264.25799167 624.80026235 259 629 C257.88693422 629.91404297 256.77499677 630.82946131 255.6640625 631.74609375 C222.60910682 658.85325555 190.72120829 674.19625576 149 683 C148.14986328 683.18224121 147.29972656 683.36448242 146.42382812 683.55224609 C113.03372508 690.53747789 77.47834477 683.57514476 48.75 665.1875 C46.81203387 663.82139273 44.89562382 662.42427952 43 661 C42.47986328 660.61005859 41.95972656 660.22011719 41.42382812 659.81835938 C7.44817594 633.91855249 -12.28537367 587.69692733 -18.00268555 546.43432617 C-18.40431415 543.29305919 -18.7391805 540.15551058 -19 537 C-19.08540039 536.00258789 -19.17080078 535.00517578 -19.25878906 533.97753906 C-20.13279014 522.57166837 -20.24122298 511.18462882 -20.25 499.75 C-20.25133942 498.71130768 -20.25267883 497.67261536 -20.25405884 496.60244751 C-20.24549436 465.60818372 -17.89862114 434.74186038 -14 404 C-27.41437941 404.64417438 -40.79774242 405.53063102 -54.1875 406.5625 C-56.02797942 406.70267595 -57.86847417 406.84265074 -59.70898438 406.98242188 C-64.13950204 407.31930978 -68.569807 407.65887032 -73 408 C-73.08381927 408.60137283 -73.16763855 409.20274567 -73.2539978 409.82234192 C-78.66335337 448.21814394 -89.76315144 485.31292285 -106.65722656 520.20703125 C-107.84020254 522.66762129 -108.98955168 525.13870053 -110.1171875 527.625 C-126.51386798 563.69937317 -148.91270991 599.7849031 -180.21875 624.76953125 C-181.97166822 626.17531257 -183.70431375 627.6071276 -185.40625 629.07421875 C-238.9517878 674.9098769 -309.34933585 690.47137845 -378.25 685.25 C-401.04730267 683.26966469 -421.500977 676.8706743 -441.70361328 666.20117188 C-444.34051517 664.8218866 -446.99555629 663.48119364 -449.65234375 662.140625 C-464.58774849 654.55685695 -477.80376992 646.63299388 -490 635 C-490.61230469 634.46246094 -491.22460938 633.92492187 -491.85546875 633.37109375 C-505.18711038 621.1987253 -512.93547597 602.33780805 -514.25 584.6328125 C-514.89526718 566.20236861 -505.64821674 553.41364959 -494 540 C-493.33291016 539.23018799 -493.33291016 539.23018799 -492.65234375 538.44482422 C-475.90158225 519.27360101 -450.94640069 496.03065669 -424.6875 492.5625 C-415.66415241 493.63306666 -407.90658825 499.29620352 -402 506 C-396.63894947 514.55034405 -395.74640366 524.8337925 -395.0703125 534.67578125 C-394.91307207 536.74286227 -394.75550923 538.80991879 -394.59765625 540.87695312 C-394.36069376 544.07691988 -394.12750883 547.2770676 -393.90087891 550.4777832 C-392.08207459 575.86016405 -390.38772155 598.59225926 -371.0625 616.9375 C-360.8256438 625.49214737 -347.7011773 625.94132743 -335 625 C-314.91516341 621.73231156 -299.30613094 609.70885695 -287.5 593.6875 C-280.37500653 583.6602039 -274.53575301 572.96675378 -269 562 C-268.60361328 561.22591797 -268.20722656 560.45183594 -267.79882812 559.65429688 C-248.01183448 520.4575313 -236.40258277 472.52656576 -232 429 C-253.58139243 432.97977701 -272.04756827 442.53135571 -290 454.8125 C-291.31116154 455.69926258 -292.62285325 456.58524173 -293.93505859 457.47045898 C-297.07691702 459.5934373 -300.21119446 461.72723076 -303.3416748 463.86694336 C-305.67585041 465.46177722 -308.01410574 467.05060549 -310.3515625 468.640625 C-316.90517652 473.0613323 -316.90517652 473.0613323 -323.25 477.76953125 C-325 479 -325 479 -327.375 479.125 C-334.00778305 476.28237869 -337.18800089 469.43793844 -339.90234375 463.1015625 C-341.87604359 457.52463127 -342.98671437 451.81753496 -344 446 C-344.13277344 445.28199219 -344.26554688 444.56398438 -344.40234375 443.82421875 C-344.6875 442 -344.6875 442 -344.81738281 440.29248047 C-344.9592473 438.51158804 -345.17379901 436.73642325 -345.41723633 434.96655273 C-345.87452401 429.49027269 -345.98712919 425.54894576 -342.97143555 420.81689453 C-340.22436757 417.63854725 -337.12966746 414.85532314 -334 412.0625 C-332.95648258 411.08081464 -331.91608886 410.09579781 -330.87890625 409.10742188 C-327.96538926 406.35112608 -324.99232916 403.67054231 -322 401 C-321.25476074 400.32461182 -320.50952148 399.64922363 -319.74169922 398.95336914 C-315.41188926 395.07874433 -310.90014553 391.61863298 -306.125 388.3125 C-305.38797852 387.80122559 -304.65095703 387.28995117 -303.89160156 386.76318359 C-302.350816 385.6971636 -300.80848783 384.63336989 -299.26464844 383.57177734 C-297.12881664 382.08940508 -295.02013179 380.57500428 -292.9140625 379.05078125 C-270.93495778 363.43343093 -243.41761577 350.5283546 -217 345 C-215.0239668 337.17694183 -213.06852321 329.35278688 -211.24609375 321.4921875 C-203.41494965 288.17947181 -190.85548962 256.96558119 -175.25 226.5 C-174.74355957 225.50379639 -174.23711914 224.50759277 -173.71533203 223.48120117 C-168.77298383 214.04414077 -162.75939908 205.54905208 -155.4375 197.8125 C-154.49020273 196.80142044 -153.54358729 195.78970162 -152.59765625 194.77734375 C-151.31181641 193.40255859 -151.31181641 193.40255859 -150 192 C-148.7837366 190.63200958 -147.57426762 189.25791417 -146.375 187.875 C-143.06533744 184.06100791 -139.69203662 180.3071974 -136.30859375 176.55859375 C-134.8188072 174.90747667 -133.33163123 173.25399856 -131.84765625 171.59765625 C-115.65453844 153.53047056 -115.65453844 153.53047056 -107.55859375 145.58984375 C-105.87385603 143.87132683 -104.31397191 142.07892715 -102.75 140.25 C-96.25812773 132.73693434 -89.12057751 125.76988815 -81.55859375 119.33984375 C-80.32496821 118.27935864 -79.15031749 117.15031749 -78 116 C-85.46741468 117.31960551 -92.89892293 118.77711292 -100.32421875 120.31640625 C-133.44322246 126.47562586 -168.64519067 115.50845751 -199.51367188 103.83398438 C-203.34252567 102.54967914 -206.98294717 102.15600205 -211 102 C-211.94101562 101.9484375 -212.88203125 101.896875 -213.8515625 101.84375 C-229.20196197 101.38666614 -244.8643196 103.93876766 -257.17578125 113.73046875 C-258.90867369 115.40956852 -260.45824841 117.14508012 -262 119 C-262.556875 119.61617188 -263.11375 120.23234375 -263.6875 120.8671875 C-265.49824358 122.880023 -267.25235932 124.93220963 -269 127 C-269.9590625 128.10794922 -269.9590625 128.10794922 -270.9375 129.23828125 C-283.260825 143.94443667 -291.67315574 161.49785502 -291 181 C-288.40291833 198.34691953 -275.27817808 211.64883083 -261.78930664 221.72241211 C-260.37788654 222.75936407 -258.95936193 223.78673508 -257.53295898 224.80297852 C-251.30177737 229.2884832 -247.55457233 233.22713836 -246 241 C-244.41380025 253.25699803 -250.14045462 265.19299372 -257 275 C-259.21259088 277.67603897 -261.49207605 280.23235692 -263.88671875 282.74609375 C-266.03874734 284.9655387 -266.03874734 284.9655387 -267.87109375 287.44921875 C-278.41020619 300.07681586 -295.71875885 309.61473365 -311.99609375 311.3125 C-323.44045491 311.77902173 -330.87153838 307.78912292 -339.40234375 300.41015625 C-355.95937295 285.04822088 -364.9606558 264.65147989 -370 243 C-370.2475 241.95972656 -370.495 240.91945312 -370.75 239.84765625 C-374.62396648 219.80526025 -371.86892918 198.79735591 -368 179 C-367.85578613 178.24509277 -367.71157227 177.49018555 -367.56298828 176.71240234 C-360.48943391 141.3617785 -333.8204865 107.02171958 -310 81 C-309.15695312 80.06414062 -308.31390625 79.12828125 -307.4453125 78.1640625 C-302.52356549 72.71508202 -297.4923417 67.3922593 -292.3125 62.1875 C-291.80235352 61.67276123 -291.29220703 61.15802246 -290.76660156 60.62768555 C-262.15117093 32.12653379 -220.19194033 2.57899834 -178.51245117 2.58300781 C-176.88328665 2.59525084 -175.25413469 2.60928157 -173.625 2.625 C-172.78917389 2.62898804 -171.95334778 2.63297607 -171.0921936 2.63708496 C-157.55245201 2.71274675 -144.32726424 3.45649967 -131 6 C-130.32050293 6.1232666 -129.64100586 6.2465332 -128.94091797 6.37353516 C-116.69996485 8.66929011 -104.80270427 12.69717541 -92.92431641 16.38305664 C-80.77522411 20.14879669 -69.51966903 23.56561151 -56.6875 23.4375 C-55.59590576 23.42847656 -54.50431152 23.41945313 -53.37963867 23.41015625 C-33.82941572 22.99280659 -13.99904491 13.99904491 0 0 Z M279.5625 9.5 C269.71518211 12.95131823 259.82690769 15.71131635 249.6875 18.125 C248.63900879 18.37524933 248.63900879 18.37524933 247.56933594 18.6305542 C239.06351951 20.65146919 230.53417849 22.54709396 221.98706055 24.38574219 C188.41995425 31.63185311 162.68012526 42.60733588 141.5859375 70.6171875 C139.91023943 72.83326966 138.19251124 74.99840637 136.4140625 77.1328125 C128.44523871 86.771449 122.20419986 97.28990613 115.80273438 108.00976562 C108.62272123 119.91940823 101.04685531 131.57242984 93.125 143 C87.9808216 150.45291117 83.25515417 157.99824749 79 166 C78.52546387 166.88494141 78.05092773 167.76988281 77.56201172 168.68164062 C68.0473187 186.49514721 59.31277829 204.64047181 50.86035156 222.97753906 C49.17628668 226.62833487 47.46019968 230.26348542 45.7421875 233.8984375 C33.90381946 259.29843216 25.96275307 286.18527541 18.03271484 313.00830078 C17.83444595 313.67590927 17.63617706 314.34351776 17.43190002 315.03135681 C16.89876189 316.82954811 16.36976496 318.62896575 15.84106445 320.4284668 C15 323 15 323 14 324 C11.57237003 324.30410139 9.16282053 324.54842979 6.72631836 324.75610352 C5.96539383 324.82452454 5.2044693 324.89294556 4.42048645 324.96343994 C1.89396623 325.18954251 -0.63306943 325.40923451 -3.16015625 325.62890625 C-4.90754122 325.78402598 -6.65489093 325.93954329 -8.40220642 326.09544373 C-13.00995934 326.50547801 -17.61817334 326.91008749 -22.22650146 327.31359863 C-26.92537787 327.72599545 -31.62380182 328.14348015 -36.32226562 328.56054688 C-45.54773951 329.3787001 -54.77370809 330.19112758 -64 331 C-61.57583941 310.64249067 -58.49591244 290.52641025 -54.6875 270.375 C-54.19562412 267.74335238 -53.70426873 265.11161301 -53.21362305 262.47973633 C-52.25093935 257.320729 -51.28268481 252.16278948 -50.31152344 247.00537109 C-49.18395444 241.00427492 -48.08789659 234.99807594 -47.0078125 228.98828125 C-40.42492003 192.54668382 -32.09889316 154.54828171 -16 121 C-15.53327881 120.02305176 -15.53327881 120.02305176 -15.05712891 119.02636719 C-5.80597614 100.007184 7.40883334 82.89415778 21.7421875 67.4375 C23.66218871 65.36469593 25.52996818 63.26416732 27.375 61.125 C29.54250117 58.61963894 31.76164124 56.17409922 34.02734375 53.7578125 C34.56762207 53.18015137 35.10790039 52.60249023 35.66455078 52.00732422 C36.74353477 50.85672767 37.8264074 49.70976249 38.91357422 48.56689453 C42.58360477 44.65037823 44.6996382 41.98989693 45.5 36.6875 C44.82338509 31.69746504 42.5968462 29.40085498 39 26 C36.35207271 24.11729318 33.57186313 22.61357211 30.6875 21.125 C29.91003418 20.71080811 29.13256836 20.29661621 28.33154297 19.86987305 C26.70986406 19.00736485 25.08514279 18.15055397 23.45751953 17.29931641 C21.013339 16.00705247 18.59702373 14.67291474 16.18359375 13.32421875 C14.66431799 12.48651563 13.14479622 11.64925851 11.625 10.8125 C10.91819092 10.41369629 10.21138184 10.01489258 9.4831543 9.60400391 C5.95880193 7.55907031 5.95880193 7.55907031 2.0246582 7.24804688 C-0.22129775 8.08218944 -1.91436912 9.1299168 -3.87109375 10.51171875 C-4.60368408 11.01968994 -5.33627441 11.52766113 -6.09106445 12.05102539 C-6.86538818 12.59106201 -7.63971191 13.13109863 -8.4375 13.6875 C-28.13783005 27.07329241 -48.52409608 32.48361314 -72.35791016 28.42871094 C-86.0022116 25.50450579 -99.26036222 21.00031844 -112.54663086 16.78686523 C-122.8656513 13.58609817 -133.30059152 11.46213256 -144 10 C-144.7216333 9.89905029 -145.4432666 9.79810059 -146.18676758 9.6940918 C-154.14613883 8.73972047 -162.15990119 8.74296829 -170.16577148 8.70483398 C-171.83805825 8.69333894 -173.51030904 8.67292632 -175.18237305 8.64331055 C-189.88752344 8.38415706 -202.46675041 10.39305965 -215.9375 16.6875 C-216.68491455 17.0292627 -217.4323291 17.37102539 -218.20239258 17.72314453 C-246.33476838 30.82882335 -271.23081907 49.8093478 -293.02197266 71.76123047 C-294.75592863 73.50596548 -296.50041129 75.23966256 -298.24609375 76.97265625 C-304.95472035 83.67339697 -311.12721203 90.5463982 -317 98 C-318.31001551 99.58538956 -319.62218028 101.1690083 -320.9375 102.75 C-329.67956699 113.72961985 -337.02257718 125.84452685 -344 138 C-344.52062012 138.89960449 -345.04124023 139.79920898 -345.57763672 140.72607422 C-352.69079823 153.10309785 -359.24086127 164.91236427 -362 179 C-362.18884766 179.94004883 -362.37769531 180.88009766 -362.57226562 181.84863281 C-369.28027167 216.49209727 -367.59077481 250.83759953 -348 281 C-341.07061088 290.70653728 -332.68048847 301.10650384 -321 305 C-305.77569346 306.61791411 -291.94612007 299.92229472 -280.3125 290.625 C-267.44016735 279.65426194 -253.8276576 265.4647951 -251.74609375 247.8515625 C-251.44157949 242.09526065 -252.20366213 237.46382584 -256 233 C-259.34352254 230.35395283 -262.80447349 227.95880158 -266.328125 225.5625 C-280.32635171 215.96869976 -290.62437522 203.12687434 -296 187 C-296.8266467 176.25860294 -296.92381396 165.13367604 -293 155 C-292.74476563 154.21367187 -292.48953125 153.42734375 -292.2265625 152.6171875 C-287.93343242 140.3679815 -279.42842152 129.67400105 -271 120 C-270.56929199 119.49162598 -270.13858398 118.98325195 -269.69482422 118.45947266 C-256.54165264 102.96479955 -241.87286169 97.68951003 -222 96 C-218.95058594 95.76729432 -216.04979236 95.77935586 -213 96 C-211.86820312 96.06832031 -210.73640625 96.13664062 -209.5703125 96.20703125 C-202.03101669 96.88631434 -195.53033416 98.32321188 -188.5 101.125 C-179.76745646 104.60409731 -170.85900219 107.00443294 -161.75 109.25 C-161.080896 109.4163092 -160.41179199 109.58261841 -159.72241211 109.75396729 C-141.20853486 114.70263131 -141.20853486 114.70263131 -122.25 116.375 C-121.50451904 116.36484863 -120.75903809 116.35469727 -119.9909668 116.34423828 C-97.766619 115.74564952 -75.46044912 109.37423317 -55 101 C-54.67 102.98 -54.34 104.96 -54 107 C-54.70382812 107.24234375 -55.40765625 107.4846875 -56.1328125 107.734375 C-72.43189546 114.92906557 -86.09695543 132.02026053 -98.5 144.375 C-99.43191162 145.3021582 -100.36382324 146.22931641 -101.32397461 147.18457031 C-105.82471655 151.69627087 -110.1922855 156.25567936 -114.34179688 161.09228516 C-117.89504844 165.18019854 -121.67035063 169.06849386 -125.39453125 173 C-129.14272038 176.97323568 -132.78963239 181.01327995 -136.37011719 185.13818359 C-138.65342924 187.74641274 -141.01226263 190.27592759 -143.375 192.8125 C-165.74925026 217.14170711 -178.90415102 245.60176839 -191 276 C-191.43618652 277.08829102 -191.87237305 278.17658203 -192.32177734 279.29785156 C-201.34578992 302.09421759 -206.66885395 325.92274719 -211 350 C-212.0319751 350.23452881 -213.0639502 350.46905762 -214.12719727 350.71069336 C-240.14402307 356.72412199 -266.05753751 367.76099923 -288 383 C-288.91096436 383.63035156 -288.91096436 383.63035156 -289.84033203 384.2734375 C-292.84708326 386.36729749 -295.82678966 388.49315813 -298.78125 390.66015625 C-300.7341604 392.07980835 -302.70852542 393.47133228 -304.71875 394.80859375 C-311.89463488 399.66096169 -317.79419681 405.56001787 -323.81176758 411.74633789 C-328.3526476 416.41330894 -333.05556793 420.76490883 -338 425 C-339.6736975 426.6736975 -339.21207073 428.63329694 -339.25 430.9375 C-339.09972751 444.94623499 -336.98519572 460.76850535 -328 472 C-322.95892808 470.34947152 -318.98556989 467.38984288 -314.6875 464.375 C-312.98374747 463.19824151 -311.27928621 462.02250867 -309.57421875 460.84765625 C-308.67106934 460.22391113 -307.76791992 459.60016602 -306.83740234 458.95751953 C-254.21737651 422.6550443 -254.21737651 422.6550443 -226 423 C-228.51243783 470.01847939 -242.30448153 520.81619118 -263 563 C-263.42539062 563.86995605 -263.85078125 564.73991211 -264.2890625 565.63623047 C-277.88025145 593.14149847 -293.71737806 617.29740341 -323.59765625 628.328125 C-338.97482232 632.99883641 -354.03278207 632.53397361 -368.703125 625.75 C-379.86085496 619.72619487 -388.85127909 608.41375037 -393.1875 596.5625 C-397.75480729 581.18967413 -398.6850148 565.22196951 -399.65673828 549.30810547 C-400.38872845 524.88726171 -400.38872845 524.88726171 -412.12109375 504.6171875 C-416.23409636 501.07709794 -419.78700499 498.63661214 -425.4375 498.75 C-452.51074954 502.82953075 -480.69926739 531.30487334 -496.49194336 552.00268555 C-505.04452107 563.63384533 -508.98332534 573.47813743 -508 588 C-504.68631512 609.33844214 -492.93938606 626.40606301 -476.16796875 639.69140625 C-438.51368931 667.13120792 -396.76837901 680.25872957 -350.4375 680.1875 C-349.64531067 680.18656342 -348.85312134 680.18562683 -348.03692627 680.18466187 C-281.4843169 680.01464979 -220.08025762 655.09168653 -172 609 C-171.05253906 608.10539063 -170.10507812 607.21078125 -169.12890625 606.2890625 C-162.52879684 599.90427581 -156.80796475 593.08763973 -151.31445312 585.75439453 C-150.08054614 584.10750456 -148.82989303 582.47319914 -147.578125 580.83984375 C-109.17106071 529.77992976 -87.78887774 465.40151955 -78 403 C-54.34942578 400.77963516 -30.68457782 398.81979009 -7 397 C-7.10546143 397.82048828 -7.21092285 398.64097656 -7.31958008 399.48632812 C-17.7709351 481.82690053 -25.33075022 568.47087725 28 638 C47.65385597 662.83068552 77.95727637 676.38726923 109 680 C166.97712855 684.17841452 217.46119172 656.20180673 260 620 C263.37662074 617.04613434 266.69622171 614.03497976 270 611 C270.71446289 610.34523682 270.71446289 610.34523682 271.44335938 609.67724609 C279.98840285 601.84244717 288.4445119 593.91305668 296.89453125 585.97607422 C299.08419262 583.92098155 301.27616531 581.86837953 303.46875 579.81640625 C304.19602295 579.13553955 304.9232959 578.45467285 305.67260742 577.75317383 C307.06827782 576.44667347 308.46425925 575.14050527 309.8605957 573.8347168 C310.49054443 573.244729 311.12049316 572.65474121 311.76953125 572.046875 C312.32229736 571.52963867 312.87506348 571.01240234 313.44458008 570.47949219 C313.95786865 569.99125977 314.47115723 569.50302734 315 569 C315.52005615 568.59132187 316.0401123 568.18264374 316.57592773 567.76158142 C318.59388165 565.26536672 318.36129272 563.51864736 318.34057617 560.33520508 C318.34034958 559.17422806 318.34012299 558.01325104 318.33988953 556.8170929 C318.32440567 555.56389755 318.30892181 554.31070221 318.29296875 553.01953125 C318.28872391 551.73640549 318.28447906 550.45327972 318.28010559 549.13127136 C318.26866162 545.72313862 318.23919896 542.3153906 318.20599365 538.90740967 C318.17528272 535.42856043 318.16159811 531.94964891 318.14648438 528.47070312 C318.11432835 521.64697757 318.06313776 514.82350726 318 508 C314.40041378 510.10516509 311.42739348 512.27677999 308.375 515.125 C304.00709479 519.12514953 299.50999714 522.90062029 294.90625 526.625 C291.7960684 529.16665378 288.74111159 531.76608466 285.6875 534.375 C280.67581187 538.6425622 275.56645322 542.76235646 270.36962891 546.80200195 C267.32163409 549.17177803 264.29615223 551.56208813 261.30859375 554.0078125 C243.23562386 568.78082958 223.12655714 583.41793068 199 585 C198.22011719 585.0515625 197.44023438 585.103125 196.63671875 585.15625 C185.38099115 585.55645365 172.86370618 583.65288424 163 578 C162.26652344 577.57976563 161.53304687 577.15953125 160.77734375 576.7265625 C146.10929049 567.61878329 135.48573438 552.12619643 131.06640625 535.484375 C120.56649182 488.25987949 131.31622637 439.52429907 141.10375977 393.16723633 C141.29576462 392.25267166 141.48776947 391.33810699 141.68559265 390.39582825 C142.04711934 388.67727562 142.41208725 386.95944202 142.78108215 385.24247742 C143.52016404 381.72761482 144 378.60833446 144 375 C145.23234375 374.91363281 146.4646875 374.82726562 147.734375 374.73828125 C153.84420575 374.04896091 159.44957247 372.16403956 165.25 370.1875 C167.00098999 369.59352417 167.00098999 369.59352417 168.78735352 368.98754883 C200.05752583 358.1758207 253.90390299 338.19219402 270 306 C270.46904552 297.44810028 270.07229814 288.89235184 269.25 280.375 C269.1883667 279.62992187 269.1267334 278.88484375 269.06323242 278.1171875 C268.52061643 273.14067195 267.19646546 270.00462843 264 266 C260.25619559 263.04436494 257.71064797 262.54600378 253 263 C250.43566297 264.22209514 248.16064189 265.45494275 245.765625 266.9453125 C244.74852448 267.55655472 244.74852448 267.55655472 243.71087646 268.18014526 C241.54956176 269.48286272 239.39983192 270.80343741 237.25 272.125 C235.82104687 272.99079654 234.39136514 273.85539175 232.9609375 274.71875 C225.54075981 279.20312264 225.54075981 279.20312264 218.17773438 283.78027344 C212.04496299 287.60651489 205.73191163 290.38627441 199 293 C197.91219238 293.42861328 196.82438477 293.85722656 195.70361328 294.29882812 C184.30326933 298.74430852 172.78236631 302.69481672 161 306 C163.06427552 298.58880726 165.66859894 291.50741597 168.5703125 284.38671875 C169.01083954 283.29647903 169.45136658 282.20623932 169.90524292 281.08296204 C170.83607653 278.78190727 171.76906759 276.48172419 172.70410156 274.18237305 C174.10465741 270.73753508 175.4982332 267.28994159 176.890625 263.84179688 C184.99323844 243.8153744 193.30773787 223.99877033 202.875 204.625 C204.06223611 202.20601027 205.24764049 199.78612851 206.43295288 197.36619568 C207.21037889 195.77928787 207.98838365 194.19266345 208.76699829 192.6063385 C212.33546709 185.33254654 215.83502506 178.027177 219.30029297 170.70361328 C225.65075051 157.33380139 232.40981562 144.18324253 239.375 131.125 C239.93108948 130.08051193 239.93108948 130.08051193 240.49841309 129.0149231 C245.80449966 119.0507053 251.15982341 109.11931721 256.71630859 99.29199219 C258.22208408 96.60347559 259.69833986 93.8994992 261.17578125 91.1953125 C262.30439283 89.15087897 263.43329656 87.10660669 264.5625 85.0625 C265.0687793 84.12656006 265.57505859 83.19062012 266.09667969 82.22631836 C269.39211876 76.30387455 273.15317018 71.2690556 277.51733398 66.09594727 C281.98117733 60.5294218 285.86835815 54.56686399 289.80371094 48.62036133 C291.25377678 46.43179977 292.71608067 44.25178835 294.1796875 42.07226562 C304.49883946 28.21011399 304.49883946 28.21011399 307 12 C304.92505073 9.29103845 303.31044715 7.58744183 300.1875 6.1875 C292.33154694 5.51413259 286.91038171 6.79009873 279.5625 9.5 Z " fill="#000000" transform="translate(522,9)"/>
<path d="M0 0 C0.99 0 1.98 0 3 0 C2.44308459 8.72500816 -0.00271361 16.84243613 -2.4375 25.1875 C-2.65997406 25.95599274 -2.88244812 26.72448547 -3.11166382 27.51626587 C-17.68336955 77.77396679 -36.59825959 127.96698659 -67 171 C-67.7956473 172.14447954 -68.59121543 173.28901412 -69.38671875 174.43359375 C-76.59555507 184.73272643 -84.41318492 194.37488761 -92.88671875 203.66796875 C-94.77376537 205.75034736 -96.61058233 207.86503064 -98.4375 210 C-105.04507655 217.57118146 -112.27319186 224.58021413 -120 231 C-120.50063965 231.41975098 -121.0012793 231.83950195 -121.51708984 232.27197266 C-136.83505483 245.05547029 -153.29129118 255.82138013 -171 265 C-171.73766602 265.3825293 -172.47533203 265.76505859 -173.23535156 266.15917969 C-232.45135332 296.42513614 -301.93572315 303.38707824 -365.43701172 283.48779297 C-375.93759035 280.03707278 -386.05733608 275.81727802 -396 271 C-396.7110791 270.65743164 -397.4221582 270.31486328 -398.15478516 269.96191406 C-421.13435092 258.74140254 -440.16483703 243.08186576 -456 223 C-456.66 224.65 -457.32 226.3 -458 228 C-458.66 227.67 -459.32 227.34 -460 227 C-459.125 219.375 -459.125 219.375 -458 216 C-454.37 216.66 -450.74 217.32 -447 218 C-447 218.99 -447 219.98 -447 221 C-448.65 221 -450.3 221 -452 221 C-435.66675954 242.74264164 -415.609918 257.77039864 -391 269 C-390.28150879 269.3309668 -389.56301758 269.66193359 -388.82275391 270.00292969 C-327.09138935 298.11767188 -259.98956208 295.86900559 -197.16259766 272.61376953 C-174.53730473 263.99916238 -152.96782665 252.03479201 -134 237 C-133.1646875 236.35675781 -132.329375 235.71351563 -131.46875 235.05078125 C-125.6253749 230.49257884 -120.18008142 225.57697687 -114.7578125 220.53515625 C-112.60878904 218.55963751 -110.43992926 216.66595636 -108.1875 214.8125 C-105.10486453 212.20411614 -102.52454088 209.30105822 -99.91796875 206.22265625 C-98.6026689 204.69840856 -97.24840363 203.20718263 -95.86328125 201.74609375 C-44.27867026 147.26251288 -17.72392805 71.47109115 0 0 Z " fill="#000000" transform="translate(460,434)"/>
<path d="M0 0 C4.4660583 0.5554672 8.93771905 1.01702221 13.41943359 1.42529297 C12.75943359 -0.22470703 12.09943359 -1.87470703 11.41943359 -3.57470703 C13.16943359 -3.44970703 13.16943359 -3.44970703 15.41943359 -2.57470703 C19.34751579 2.20269023 19.34751579 2.20269023 19.54443359 5.55029297 C17.77845626 8.49358853 15.36998725 9.77298292 12.41943359 11.42529297 C11.42943359 11.42529297 10.43943359 11.42529297 9.41943359 11.42529297 C11.29443359 7.55029297 11.29443359 7.55029297 12.41943359 6.42529297 C1.92509179 4.30001477 -8.53356803 2.68516948 -19.1796875 1.54492188 C-21.4484229 1.30106081 -23.71562095 1.04549777 -25.98291016 0.78857422 C-41.82579677 -0.97076157 -57.63957927 -1.78814178 -73.58056641 -1.76220703 C-74.28301483 -1.76160278 -74.98546326 -1.76099854 -75.709198 -1.76037598 C-119.26274151 -1.66001232 -163.00729285 5.29752185 -201.58056641 26.42529297 C-202.20092773 26.76109375 -202.82128906 27.09689453 -203.46044922 27.44287109 C-242.47124226 48.82476182 -268.75593886 86.13634671 -281.41748047 128.20605469 C-287.03056721 147.69280978 -290.64791256 167.49914825 -290.81884766 187.81201172 C-290.83347046 189.26346085 -290.83347046 189.26346085 -290.84838867 190.74423218 C-291.0858336 220.45007717 -289.1738002 248.28980889 -281.97607422 277.23828125 C-281.53599263 279.67176944 -281.5144402 281.95748478 -281.58056641 284.42529297 C-282.57056641 284.42529297 -283.56056641 284.42529297 -284.58056641 284.42529297 C-289.80111429 261.21525886 -294.66346857 238.01549353 -294.78369141 214.13232422 C-294.79070572 213.19144958 -294.79772003 212.25057495 -294.8049469 211.28118896 C-294.82232937 208.26667422 -294.82879788 205.25235597 -294.83056641 202.23779297 C-294.83124115 201.20717743 -294.83191589 200.17656189 -294.83261108 199.11471558 C-294.81687636 183.99893979 -294.43382056 169.31232051 -291.58056641 154.42529297 C-291.40895996 153.48363281 -291.23735352 152.54197266 -291.06054688 151.57177734 C-284.74285912 117.53869265 -271.46501178 85.67172698 -248.58056641 59.42529297 C-248.15662598 58.93432129 -247.73268555 58.44334961 -247.29589844 57.9375 C-240.95304284 50.63058597 -234.28090557 44.3296033 -226.58056641 38.42529297 C-225.65759766 37.68666016 -224.73462891 36.94802734 -223.78369141 36.18701172 C-215.85568042 29.9838788 -207.47753761 25.07167618 -198.58056641 20.42529297 C-197.94086914 20.08643066 -197.30117187 19.74756836 -196.64208984 19.3984375 C-168.39120439 4.62404641 -137.04566788 -1.58468407 -105.58056641 -4.57470703 C-104.82291992 -4.6467334 -104.06527344 -4.71875977 -103.28466797 -4.79296875 C-68.82937804 -7.85511969 -34.16758101 -4.42200644 0 0 Z " fill="#000000" transform="translate(433.58056640625,5.57470703125)"/>
<path d="M0 0 C0.66 0.33 1.32 0.66 2 1 C1.42093313 7.12524064 0.4673537 13.07915347 -0.71411133 19.1159668 C-4.85693123 40.32897996 -7.26810294 60.89259069 -7.375 82.5 C-7.38294586 83.34227142 -7.39089172 84.18454285 -7.39907837 85.05233765 C-7.54390665 105.00139942 -5.75433537 127.34030215 8 143 C13.84677028 148.84677028 21.7842529 150.80391874 29.86328125 151.1796875 C33.955388 151.11062445 37.80309137 150.35672304 41.75 149.3125 C42.44754395 149.13025879 43.14508789 148.94801758 43.86376953 148.76025391 C75.55414352 140.17426361 106.04840312 115.95159688 129 93 C127.35 92.67 125.7 92.34 124 92 C124 91.01 124 90.02 124 89 C125.45823212 88.9729957 126.91660675 88.95360213 128.375 88.9375 C129.18710937 88.92589844 129.99921875 88.91429687 130.8359375 88.90234375 C133 89 133 89 135 90 C135 93.63 135 97.26 135 101 C134.01 101 133.02 101 132 101 C131.67 99.35 131.34 97.7 131 96 C130.62230469 96.40089844 130.24460937 96.80179687 129.85546875 97.21484375 C125.08886736 102.13772715 119.94541334 106.4468289 114.59375 110.71826172 C112.92556017 112.05986659 111.27468908 113.42088213 109.625 114.78515625 C87.31399652 133.11543434 57.23706117 156.5001374 26.6875 154.9375 C17.16063006 153.72266424 9.42347094 150.2402485 3 143 C-7.46430535 128.58735722 -11.08978321 110.62496784 -11.203125 93.07421875 C-11.21022995 92.33806335 -11.2173349 91.60190796 -11.22465515 90.84344482 C-11.43481416 62.54302082 -8.11584388 35.73331085 -2.5234375 8.0234375 C-2.31574989 6.97868507 -2.31574989 6.97868507 -2.10386658 5.91282654 C-1.11810987 1.11810987 -1.11810987 1.11810987 0 0 Z " fill="#000000" transform="translate(682,406)"/>
<path d="M0 0 C0.99 0.33 1.98 0.66 3 1 C0.00463926 7.39712721 -3.41867552 13.47660091 -7.08129883 19.50878906 C-13.19496971 29.58930826 -19.08013939 39.80494164 -25 50 C-25.61182129 51.051875 -26.22364258 52.10375 -26.85400391 53.1875 C-35.7758394 68.53446762 -44.50246133 83.97975299 -53.07763672 99.52294922 C-54.70285365 102.46254022 -56.33449524 105.39832985 -57.9705658 108.33187866 C-67.33075462 125.11730704 -76.36215869 142.04549332 -85.0723877 159.17730713 C-86.01325122 161.02603772 -86.95702096 162.87326112 -87.90136719 164.72021484 C-100.55479269 185.49997947 -100.55479269 185.49997947 -107 208 C-105.35 207.67 -103.7 207.34 -102 207 C-103.09351553 210.17119503 -104.0126988 211.00783543 -106.9375 212.8125 C-110 214 -110 214 -113 213 C-114.203125 211.4765625 -114.203125 211.4765625 -115.25 209.625 C-115.60578125 209.01914062 -115.9615625 208.41328125 -116.328125 207.7890625 C-117 206 -117 206 -116 203 C-114.68 204.32 -113.36 205.64 -112 207 C-109.52298021 201.55765432 -107.0498898 196.11372143 -104.59765625 190.66015625 C-94.46123815 168.21708951 -83.43973711 146.2783377 -71.50634766 124.73925781 C-69.93705656 121.88553883 -68.39308116 119.01934102 -66.85546875 116.1484375 C-60.81301208 104.8728555 -54.58159891 93.742848 -48.09033203 82.71923828 C-44.45461607 76.53356289 -40.92610685 70.30398596 -37.5 64 C-31.25082036 52.52007688 -24.63274449 41.26137639 -18 30 C-17.40268066 28.98389648 -16.80536133 27.96779297 -16.18994141 26.92089844 C-14.44097147 23.94617502 -12.68986828 20.9727226 -10.9375 18 C-10.41365723 17.11070801 -9.88981445 16.22141602 -9.35009766 15.30517578 C-6.30624897 10.15533414 -3.19158047 5.05967986 0 0 Z " fill="#000000" transform="translate(837,47)"/>
<path d="M0 0 C0.99 0.33 1.98 0.66 3 1 C1.61935304 4.95785462 -0.21318632 7.78803991 -2.8125 11.0625 C-12.92611876 24.28674868 -21.63455158 38.6196402 -30 53 C-30.45197754 53.7739209 -30.90395508 54.5478418 -31.36962891 55.34521484 C-37.16215571 65.28824666 -42.77620773 75.31072016 -48.125 85.5 C-48.58632324 86.3780127 -49.04764648 87.25602539 -49.52294922 88.16064453 C-51.54274761 92.04592476 -53.49651738 95.8780926 -55 100 C-53.68 100 -52.36 100 -51 100 C-51 104.95 -51 109.9 -51 115 C-51.99 115 -52.98 115 -54 115 C-54 111.37 -54 107.74 -54 104 C-58.36535221 106.1826761 -58.65716051 106.60854579 -60.4453125 110.828125 C-61.0937915 112.34647949 -61.0937915 112.34647949 -61.75537109 113.89550781 C-62.20734863 115.00249023 -62.65932617 116.10947266 -63.125 117.25 C-63.60146973 118.40081055 -64.07793945 119.55162109 -64.56884766 120.73730469 C-72.673378 140.68403447 -79.45590126 161.06920189 -83.58618164 182.22949219 C-84 184 -84 184 -85 186 C-84.401875 185.484375 -83.80375 184.96875 -83.1875 184.4375 C-82.465625 183.963125 -81.74375 183.48875 -81 183 C-80.01 183.33 -79.02 183.66 -78 184 C-80.21928194 186.90802461 -81.92969143 188.95312762 -85 191 C-89 191 -89 191 -90.51953125 189.57421875 C-90.94621094 188.95160156 -91.37289063 188.32898438 -91.8125 187.6875 C-92.25207031 187.07261719 -92.69164062 186.45773438 -93.14453125 185.82421875 C-94 184 -94 184 -93 181 C-91.35 181.99 -89.7 182.98 -88 184 C-87.87061035 183.39978027 -87.7412207 182.79956055 -87.60791016 182.18115234 C-73.91707948 119.72040981 -43.68399435 61.98558532 -7 10 C-5.60399542 8.00011953 -4.2081382 6.00013618 -2.8125 4 C-1.87573417 2.66615076 -0.93857148 1.3325793 0 0 Z " fill="#000000" transform="translate(580,67)"/>
<path d="M0 0 C3.59391114 1.33488128 6.75490696 2.96022723 10 5 C9.46884894 9.51478398 7.63379708 12.34666857 5 16 C4.01 15.505 4.01 15.505 3 15 C3.33 13.35 3.66 11.7 4 10 C-7.12206893 13.90455611 -17.58463732 18.48918682 -28 24 C-28.67691895 24.34981934 -29.35383789 24.69963867 -30.05126953 25.06005859 C-51.91638491 36.39086456 -72.58513608 50.9291155 -91.375 66.8359375 C-92.365 67.67382812 -93.355 68.51171875 -94.375 69.375 C-95.20773438 70.10460937 -96.04046875 70.83421875 -96.8984375 71.5859375 C-97.93871094 72.28589844 -97.93871094 72.28589844 -99 73 C-99.99 72.67 -100.98 72.34 -102 72 C-102 71.34 -102 70.68 -102 70 C-99.97413667 68.25052882 -97.94084144 66.61686233 -95.8125 65 C-95.17465576 64.50870605 -94.53681152 64.01741211 -93.87963867 63.51123047 C-92.55697938 62.49309535 -91.23249321 61.47732941 -89.90625 60.46386719 C-88.20711809 59.15905227 -86.52235119 57.83885716 -84.84375 56.5078125 C-58.69217471 35.95051749 -28.97935263 16.13499483 3 6 C2.505 5.566875 2.01 5.13375 1.5 4.6875 C0 3 0 3 0 0 Z " fill="#000000" transform="translate(277,338)"/>
<path d="M0 0 C2.33944736 0.28730055 4.6739143 0.61936779 7 1 C7 3.31 7 5.62 7 8 C8.918125 7.9690625 8.918125 7.9690625 10.875 7.9375 C14.75 7.875 14.75 7.875 17 9 C16.67 12.63 16.34 16.26 16 20 C15.01 20 14.02 20 13 20 C12.67 18.35 12.34 16.7 12 15 C11.47535156 15.38929688 10.95070313 15.77859375 10.41015625 16.1796875 C-30.58327325 45.78226388 -30.58327325 45.78226388 -49 44 C-49 43.01 -49 42.02 -49 41 C-47.38158203 40.50693359 -47.38158203 40.50693359 -45.73046875 40.00390625 C-28.52154368 34.60719666 -12.8505887 27.24763298 2 17 C1.175 16.38125 0.35 15.7625 -0.5 15.125 C-1.325 14.42375 -2.15 13.7225 -3 13 C-3 12.34 -3 11.68 -3 11 C-0.33333333 11.66666667 2.33333333 12.33333333 5 13 C5 11.68 5 10.36 5 9 C3.68 9 2.36 9 1 9 C1 8.01 1 7.02 1 6 C1.99 5.67 2.98 5.34 4 5 C4 4.34 4 3.68 4 3 C2.68 3 1.36 3 0 3 C0 3.66 0 4.32 0 5 C-0.66 5 -1.32 5 -2 5 C-1.125 1.125 -1.125 1.125 0 0 Z M8 11 C8 11.66 8 12.32 8 13 C8.99 12.67 9.98 12.34 11 12 C10.01 11.67 9.02 11.34 8 11 Z " fill="#000000" transform="translate(757,246)"/>
<path d="M0 0 C3.91211733 1.15585285 6.8745041 2.35534962 10 5 C8.84414715 8.91211733 7.64465038 11.8745041 5 15 C4.01 14.67 3.02 14.34 2 14 C2.66 12.35 3.32 10.7 4 9 C3.13310547 9.14622803 2.26621094 9.29245605 1.37304688 9.44311523 C-1.87705597 9.99051698 -5.12740623 10.53640249 -8.37792969 11.08129883 C-9.77842065 11.31637894 -11.17881359 11.55204382 -12.57910156 11.78833008 C-32.52594085 15.15311431 -32.52594085 15.15311431 -40.5 15.0625 C-41.5415625 15.05347656 -42.583125 15.04445313 -43.65625 15.03515625 C-44.81640625 15.01775391 -44.81640625 15.01775391 -46 15 C-46 14.01 -46 13.02 -46 12 C-45.26177002 11.93006836 -44.52354004 11.86013672 -43.76293945 11.78808594 C-27.98796397 10.26695816 -12.50415167 8.30553883 3 5 C1.68 3.68 0.36 2.36 -1 1 C-0.67 0.67 -0.34 0.34 0 0 Z " fill="#000000" transform="translate(522,297)"/>
<path d="M0 0 C1.4540625 0.0309375 1.4540625 0.0309375 2.9375 0.0625 C5.0625 4.6875 5.0625 4.6875 3.9375 8.0625 C4.26300502 9.73071323 4.59596063 11.39749557 4.9375 13.0625 C4.6075 13.7225 4.2775 14.3825 3.9375 15.0625 C1.125 15.9375 1.125 15.9375 -2.0625 16.0625 C-4.4375 14.125 -4.4375 14.125 -6.0625 12.0625 C-2.43923261 10.8547442 -1.42103631 11.51938872 1.9375 13.0625 C1.9375 11.7425 1.9375 10.4225 1.9375 9.0625 C0.6175 9.0625 -0.7025 9.0625 -2.0625 9.0625 C-2.0625 8.0725 -2.0625 7.0825 -2.0625 6.0625 C-0.7425 6.0625 0.5775 6.0625 1.9375 6.0625 C1.6075 5.0725 1.2775 4.0825 0.9375 3.0625 C-1.0425 3.7225 -3.0225 4.3825 -5.0625 5.0625 C-3.9375 0.08035714 -3.9375 0.08035714 0 0 Z " fill="#000000" transform="translate(331.0625,687.9375)"/>
<path d="M0 0 C2.875 -0.125 2.875 -0.125 6 0 C8 2 8 2 8.0625 4.8125 C8.041875 5.864375 8.02125 6.91625 8 8 C8.291224 9.67453799 8.61070799 11.34550895 9 13 C6.67097204 15.15650737 5.60939697 16.01450945 2.375 15.9375 C0 15 0 15 -1.3125 12.9375 C-1.539375 12.298125 -1.76625 11.65875 -2 11 C-1.01 11 -0.02 11 1 11 C1 11.66 1 12.32 1 13 C2.32 12.67 3.64 12.34 5 12 C5 11.34 5 10.68 5 10 C4.01 9.67 3.02 9.34 2 9 C2 8.01 2 7.02 2 6 C2.99 5.34 3.98 4.68 5 4 C5 3.34 5 2.68 5 2 C1.88214887 2.64644661 1.88214887 2.64644661 1 5 C0.01 4.67 -0.98 4.34 -2 4 C-1.34 2.68 -0.68 1.36 0 0 Z " fill="#000000" transform="translate(219,345)"/>
<path d="M0 0 C2.875 -0.125 2.875 -0.125 6 0 C8 2 8 2 8.0625 4.8125 C8.041875 5.864375 8.02125 6.91625 8 8 C8.291224 9.67453799 8.61070799 11.34550895 9 13 C6.67097204 15.15650737 5.60939697 16.01450945 2.375 15.9375 C0 15 0 15 -1.3125 12.9375 C-1.539375 12.298125 -1.76625 11.65875 -2 11 C-1.01 11 -0.02 11 1 11 C1 11.66 1 12.32 1 13 C2.32 12.67 3.64 12.34 5 12 C5 11.34 5 10.68 5 10 C4.01 9.67 3.02 9.34 2 9 C2 8.01 2 7.02 2 6 C2.99 5.34 3.98 4.68 5 4 C5 3.34 5 2.68 5 2 C1.88214887 2.64644661 1.88214887 2.64644661 1 5 C0.01 4.67 -0.98 4.34 -2 4 C-1.34 2.68 -0.68 1.36 0 0 Z " fill="#000000" transform="translate(493,285)"/>
<path d="M0 0 C2.875 -0.125 2.875 -0.125 6 0 C8 2 8 2 8.0625 4.8125 C8.041875 5.864375 8.02125 6.91625 8 8 C8.291224 9.67453799 8.61070799 11.34550895 9 13 C6.67097204 15.15650737 5.60939697 16.01450945 2.375 15.9375 C0 15 0 15 -1.3125 12.9375 C-1.539375 12.298125 -1.76625 11.65875 -2 11 C-1.01 11 -0.02 11 1 11 C1 11.66 1 12.32 1 13 C2.32 12.67 3.64 12.34 5 12 C5 11.34 5 10.68 5 10 C4.01 9.67 3.02 9.34 2 9 C2 8.01 2 7.02 2 6 C2.99 5.34 3.98 4.68 5 4 C5 3.34 5 2.68 5 2 C1.88214887 2.64644661 1.88214887 2.64644661 1 5 C0.01 4.67 -0.98 4.34 -2 4 C-1.34 2.68 -0.68 1.36 0 0 Z " fill="#000000" transform="translate(739,246)"/>
<path d="M0 0 C1.010625 0.0825 2.02125 0.165 3.0625 0.25 C5.0625 3.25 5.0625 3.25 4.9375 5.6875 C3.89937696 8.72771747 2.46104906 10.16094114 0.0625 12.25 C1.7125 12.58 3.3625 12.91 5.0625 13.25 C5.0625 13.91 5.0625 14.57 5.0625 15.25 C1.7625 15.25 -1.5375 15.25 -4.9375 15.25 C-2.9375 11.25 -2.9375 11.25 -0.8125 8.6875 C1.36735538 6.36622611 1.36735538 6.36622611 1.0625 3.25 C-0.9175 3.91 -2.8975 4.57 -4.9375 5.25 C-3.82553359 0.32557733 -3.82553359 0.32557733 0 0 Z " fill="#000000" transform="translate(513.9375,284.75)"/>
<path d="M0 0 C3.0625 0.1875 3.0625 0.1875 5.0625 2.1875 C4.90004442 5.92397845 4.47466356 7.71288742 2 10.5625 C1.360625 11.09875 0.72125 11.635 0.0625 12.1875 C1.7125 12.5175 3.3625 12.8475 5.0625 13.1875 C5.0625 13.8475 5.0625 14.5075 5.0625 15.1875 C1.7625 15.1875 -1.5375 15.1875 -4.9375 15.1875 C-2.9375 11.1875 -2.9375 11.1875 -0.8125 8.625 C1.36735538 6.30372611 1.36735538 6.30372611 1.0625 3.1875 C0.4025 3.1875 -0.2575 3.1875 -0.9375 3.1875 C-1.2675 3.8475 -1.5975 4.5075 -1.9375 5.1875 C-2.9275 5.1875 -3.9175 5.1875 -4.9375 5.1875 C-3.82120474 0.24390669 -3.82120474 0.24390669 0 0 Z " fill="#000000" transform="translate(541.9375,166.8125)"/>
<path d="M0 0 C2.875 -0.125 2.875 -0.125 6 0 C6.66 0.66 7.32 1.32 8 2 C7.83754442 5.73647845 7.41216356 7.52538742 4.9375 10.375 C4.298125 10.91125 3.65875 11.4475 3 12 C4.65 12.33 6.3 12.66 8 13 C8 13.66 8 14.32 8 15 C4.7 15 1.4 15 -2 15 C0 11 0 11 2.125 8.4375 C4.30485538 6.11622611 4.30485538 6.11622611 4 3 C3.34 3 2.68 3 2 3 C1.67 3.66 1.34 4.32 1 5 C0.01 5 -0.98 5 -2 5 C-1.34 3.35 -0.68 1.7 0 0 Z " fill="#000000" transform="translate(698,530)"/>
<path d="M0 0 C2.875 -0.125 2.875 -0.125 6 0 C6.66 0.66 7.32 1.32 8 2 C7.83754442 5.73647845 7.41216356 7.52538742 4.9375 10.375 C4.298125 10.91125 3.65875 11.4475 3 12 C4.65 12.33 6.3 12.66 8 13 C8 13.66 8 14.32 8 15 C4.7 15 1.4 15 -2 15 C0 11 0 11 2.125 8.4375 C4.30485538 6.11622611 4.30485538 6.11622611 4 3 C3.34 3 2.68 3 2 3 C1.67 3.66 1.34 4.32 1 5 C0.01 5 -0.98 5 -2 5 C-1.34 3.35 -0.68 1.7 0 0 Z " fill="#000000" transform="translate(771,180)"/>
<path d="M0 0 C2.33944736 0.28730055 4.6739143 0.61936779 7 1 C7.36630156 4.93774177 7.30233203 6.56539771 5 9.875 C4.34 10.57625 3.68 11.2775 3 12 C4.65 12.33 6.3 12.66 8 13 C8 13.66 8 14.32 8 15 C4.7 15 1.4 15 -2 15 C-0.66837689 11.00513068 1.05840921 8.94159079 4 6 C4 5.01 4 4.02 4 3 C2.02 3.66 0.04 4.32 -2 5 C-1.125 1.125 -1.125 1.125 0 0 Z " fill="#000000" transform="translate(716,530)"/>
<path d="M0 0 C0.99 0 1.98 0 3 0 C2.47731534 2.76276177 1.89130413 5.3260876 1 8 C3.97 7.34 6.94 6.68 10 6 C9.67 7.32 9.34 8.64 9 10 C5.37 10.33 1.74 10.66 -2 11 C-3.13643966 7.59068103 -2.86747764 6.99664544 -1.5625 3.8125 C-1.13130859 2.73935547 -1.13130859 2.73935547 -0.69140625 1.64453125 C-0.46324219 1.10183594 -0.23507812 0.55914062 0 0 Z " fill="#000000" transform="translate(392,372)"/>
<path d="M0 0 C0 4.95 0 9.9 0 15 C-0.99 15 -1.98 15 -3 15 C-3 11.37 -3 7.74 -3 4 C-3.99 4.33 -4.98 4.66 -6 5 C-5.625 3.0625 -5.625 3.0625 -5 1 C-3 0 -3 0 0 0 Z " fill="#000000" transform="translate(318,688)"/>
<path d="M0 0 C0 4.95 0 9.9 0 15 C-0.99 15 -1.98 15 -3 15 C-3 11.37 -3 7.74 -3 4 C-3.99 4.33 -4.98 4.66 -6 5 C-5.625 3.0625 -5.625 3.0625 -5 1 C-3 0 -3 0 0 0 Z " fill="#000000" transform="translate(239,345)"/>
<path d="M0 0 C0 4.95 0 9.9 0 15 C-0.99 15 -1.98 15 -3 15 C-3 11.37 -3 7.74 -3 4 C-3.99 4.33 -4.98 4.66 -6 5 C-5.625 3.0625 -5.625 3.0625 -5 1 C-3 0 -3 0 0 0 Z " fill="#000000" transform="translate(791,180)"/>
<path d="M0 0 C0 4.95 0 9.9 0 15 C-0.99 15 -1.98 15 -3 15 C-3 11.37 -3 7.74 -3 4 C-3.99 4.33 -4.98 4.66 -6 5 C-5.625 3.0625 -5.625 3.0625 -5 1 C-3 0 -3 0 0 0 Z " fill="#000000" transform="translate(191,31)"/>
<path d="M0 0 C0 4.95 0 9.9 0 15 C-0.66 15 -1.32 15 -2 15 C-2.33 11.37 -2.66 7.74 -3 4 C-3.99 4.33 -4.98 4.66 -6 5 C-6 4.01 -6 3.02 -6 2 C-3 0 -3 0 0 0 Z " fill="#000000" transform="translate(203,31)"/>
<path d="M0 0 C1.6065676 0.25620684 3.2102483 0.53055871 4.8125 0.8125 C6.15248047 1.03873047 6.15248047 1.03873047 7.51953125 1.26953125 C10.18321256 2.05395393 11.25690322 2.88627799 13 5 C9.45332822 6.25127906 7.27746562 5.72285053 3.75 4.5625 C2.85796875 4.27503906 1.9659375 3.98757812 1.046875 3.69140625 C0.37140625 3.46324219 -0.3040625 3.23507813 -1 3 C-0.67 2.01 -0.34 1.02 0 0 Z " fill="#000000" transform="translate(459,58)"/>
<path d="M0 0 C2.64 0.99 5.28 1.98 8 3 C7.67 4.98 7.34 6.96 7 9 C6.01 9 5.02 9 4 9 C3.87625 8.071875 3.87625 8.071875 3.75 7.125 C3.18741541 4.81562433 3.18741541 4.81562433 0.9375 3.75 C0.298125 3.5025 -0.34125 3.255 -1 3 C-0.67 2.01 -0.34 1.02 0 0 Z " fill="#000000" transform="translate(485,66)"/>
<path d="M0 0 C0.33 0.99 0.66 1.98 1 3 C-0.26691507 3.67408308 -1.53870749 4.33900497 -2.8125 5 C-3.52019531 5.37125 -4.22789062 5.7425 -4.95703125 6.125 C-7 7 -7 7 -10 7 C-10 6.01 -10 5.02 -10 4 C-8.71086513 3.32845067 -7.41859796 2.66291141 -6.125 2 C-5.40570313 1.62875 -4.68640625 1.2575 -3.9453125 0.875 C-2 0 -2 0 0 0 Z " fill="#000000" transform="translate(215,657)"/>
<path d="M0 0 C3.43595166 1.52708963 6.11912454 3.59927045 9 6 C8.67 6.99 8.34 7.98 8 9 C4.84866512 7.16172132 1.88035092 5.24027294 -1 3 C-0.67 2.01 -0.34 1.02 0 0 Z " fill="#000000" transform="translate(94,635)"/>
<path d="M0 0 C-0.125 1.75 -0.125 1.75 -1 4 C-3.875 6.3125 -3.875 6.3125 -7 8 C-7.99 7.67 -8.98 7.34 -10 7 C-10 6.34 -10 5.68 -10 5 C-8.3203125 3.7109375 -8.3203125 3.7109375 -6.125 2.375 C-5.40570312 1.92898438 -4.68640625 1.48296875 -3.9453125 1.0234375 C-2 0 -2 0 0 0 Z " fill="#000000" transform="translate(800,574)"/>
<path d="M0 0 C0 0.66 0 1.32 0 2 C-1.26418246 2.69965443 -2.53665402 3.38434763 -3.8125 4.0625 C-4.52019531 4.44535156 -5.22789062 4.82820313 -5.95703125 5.22265625 C-8 6 -8 6 -11 5 C-11 4.34 -11 3.68 -11 3 C-9.73581754 2.30034557 -8.46334598 1.61565237 -7.1875 0.9375 C-6.47980469 0.55464844 -5.77210938 0.17179687 -5.04296875 -0.22265625 C-3 -1 -3 -1 0 0 Z " fill="#000000" transform="translate(229,429)"/>
<path d="M0 0 C-0.33 0.99 -0.66 1.98 -1 3 C-3.28515625 3.94921875 -3.28515625 3.94921875 -6.0625 4.6875 C-7.44115234 5.06455078 -7.44115234 5.06455078 -8.84765625 5.44921875 C-9.55792969 5.63097656 -10.26820313 5.81273438 -11 6 C-10.74609375 4.11328125 -10.74609375 4.11328125 -10 2 C-8.22265625 0.91796875 -8.22265625 0.91796875 -6.0625 0.1875 C-5.35222656 -0.06644531 -4.64195312 -0.32039063 -3.91015625 -0.58203125 C-2 -1 -2 -1 0 0 Z " fill="#000000" transform="translate(290,64)"/>
<path d="M0 0 C-3.12621626 3.39417765 -5.56541027 5.6062718 -10 7 C-10.33 6.01 -10.66 5.02 -11 4 C-9.73760288 3.13341385 -8.46472499 2.28207941 -7.1875 1.4375 C-6.47980469 0.96183594 -5.77210938 0.48617187 -5.04296875 -0.00390625 C-3 -1 -3 -1 0 0 Z " fill="#000000" transform="translate(233,648)"/>
<path d="M0 0 C-0.17625835 2.37948772 -0.69719773 3.70225849 -2.40234375 5.37890625 C-3.90649092 6.62115486 -5.45129851 7.81376056 -7 9 C-7.66 8.67 -8.32 8.34 -9 8 C-7.47364599 4.11473526 -4.49771687 0 0 0 Z " fill="#000000" transform="translate(248,634)"/>
<path d="M0 0 C-0.125 1.8125 -0.125 1.8125 -1 4 C-4.20883825 5.95320589 -6.2205439 7 -10 7 C-10 6.01 -10 5.02 -10 4 C-8.71086513 3.32845067 -7.41859796 2.66291141 -6.125 2 C-5.40570312 1.62875 -4.68640625 1.2575 -3.9453125 0.875 C-2 0 -2 0 0 0 Z " fill="#000000" transform="translate(749,605)"/>
<path d="M0 0 C0.66 0.33 1.32 0.66 2 1 C0.68775452 4.93673644 -0.91910327 7.22719294 -4 10 C-4.99 9.67 -5.98 9.34 -7 9 C-6.02180976 7.68677212 -5.0424189 6.37443848 -4.0625 5.0625 C-3.51722656 4.33160156 -2.97195313 3.60070312 -2.41015625 2.84765625 C-1 1 -1 1 0 0 Z " fill="#000000" transform="translate(274,604)"/>
<path d="M0 0 C0.66 0.33 1.32 0.66 2 1 C0.6062718 5.43458973 -1.60582235 7.87378374 -5 11 C-5.33 10.01 -5.66 9.02 -6 8 C-4.78515625 5.95703125 -4.78515625 5.95703125 -3.0625 3.8125 C-2.49660156 3.09707031 -1.93070312 2.38164063 -1.34765625 1.64453125 C-0.90292969 1.10183594 -0.45820313 0.55914063 0 0 Z " fill="#000000" transform="translate(286,588)"/>
<path d="M0 0 C0.99 0.66 1.98 1.32 3 2 C1.35 4.97 -0.3 7.94 -2 11 C-2.99 10.67 -3.98 10.34 -5 10 C-3.66511872 6.40608886 -2.03977277 3.24509304 0 0 Z " fill="#000000" transform="translate(318,537)"/>
<path d="M0 0 C0.66 0.99 1.32 1.98 2 3 C0.5437455 3.67119549 -0.91507867 4.33681807 -2.375 5 C-3.59316406 5.556875 -3.59316406 5.556875 -4.8359375 6.125 C-7 7 -7 7 -9 7 C-8.75390625 5.109375 -8.75390625 5.109375 -8 3 C-6.15234375 1.953125 -6.15234375 1.953125 -3.9375 1.25 C-2.83728516 0.88648438 -2.83728516 0.88648438 -1.71484375 0.515625 C-1.14894531 0.34546875 -0.58304688 0.1753125 0 0 Z " fill="#000000" transform="translate(246,420)"/>
<path d="M0 0 C0 0.99 0 1.98 0 3 C-3.87684087 4.19287411 -6.91621923 5 -11 5 C-11 4.01 -11 3.02 -11 2 C-7.12315913 0.80712589 -4.08378077 0 0 0 Z " fill="#000000" transform="translate(324,396)"/>
<path d="M0 0 C0.99 0 1.98 0 3 0 C2.44894091 3.9492568 1.61064629 7.34920174 0 11 C-0.99 10.67 -1.98 10.34 -3 10 C-2.01 6.7 -1.02 3.4 0 0 Z " fill="#000000" transform="translate(399,353)"/>
<path d="M0 0 C-0.33 0.99 -0.66 1.98 -1 3 C-4.3 3.66 -7.6 4.32 -11 5 C-11 4.01 -11 3.02 -11 2 C-9.54494642 1.47007308 -8.08581873 0.9513211 -6.625 0.4375 C-5.81289063 0.14746094 -5.00078125 -0.14257812 -4.1640625 -0.44140625 C-2 -1 -2 -1 0 0 Z " fill="#000000" transform="translate(720,327)"/>
<path d="M0 0 C0 0.99 0 1.98 0 3 C-4.95 4.485 -4.95 4.485 -10 6 C-10.33 5.01 -10.66 4.02 -11 3 C-9.73160474 2.49384702 -8.46016898 1.99530901 -7.1875 1.5 C-6.12595703 1.08234375 -6.12595703 1.08234375 -5.04296875 0.65625 C-3 0 -3 0 0 0 Z " fill="#000000" transform="translate(739,320)"/>
<path d="M0 0 C0.99 0 1.98 0 3 0 C2.01 3.3 1.02 6.6 0 10 C-0.99 10 -1.98 10 -3 10 C-2.69201674 8.51988629 -2.378482 7.04092675 -2.0625 5.5625 C-1.88847656 4.73878906 -1.71445312 3.91507812 -1.53515625 3.06640625 C-1 1 -1 1 0 0 Z " fill="#000000" transform="translate(426,277)"/>
<path d="M0 0 C0.99 0.33 1.98 0.66 3 1 C1.66511872 4.59391114 0.03977277 7.75490696 -2 11 C-2.99 10.67 -3.98 10.34 -5 10 C-3.66511872 6.40608886 -2.03977277 3.24509304 0 0 Z " fill="#000000" transform="translate(223,110)"/>
<path d="M0 0 C0 0.99 0 1.98 0 3 C-3.63 3.66 -7.26 4.32 -11 5 C-11 4.01 -11 3.02 -11 2 C-7.17679443 0.57741188 -4.08718695 -0.24042276 0 0 Z " fill="#000000" transform="translate(309,58)"/>
<path d="M0 0 C3.63 0 7.26 0 11 0 C11 0.99 11 1.98 11 3 C7.37 3 3.74 3 0 3 C0 2.01 0 1.02 0 0 Z " fill="#000000" transform="translate(166,668)"/>
<path d="M0 0 C4.12751449 0.60698743 7.3321148 2.03810791 11 4 C10.67 4.66 10.34 5.32 10 6 C6.28111761 5.49287967 3.26545761 4.88391785 0 3 C0 2.01 0 1.02 0 0 Z " fill="#000000" transform="translate(127,658)"/>
<path d="M0 0 C0 0.99 0 1.98 0 3 C-3.3 3.66 -6.6 4.32 -10 5 C-10.33 4.01 -10.66 3.02 -11 2 C-7.12315913 0.80712589 -4.08378077 0 0 0 Z " fill="#000000" transform="translate(694,629)"/>
<path d="M0 0 C3.7952131 1.49097658 5.61042731 3.75700849 8 7 C7.67 7.66 7.34 8.32 7 9 C2.79373966 7.49776416 1.26099979 4.71449966 -1 1 C-0.67 0.67 -0.34 0.34 0 0 Z " fill="#000000" transform="translate(66,607)"/>
<path d="M0 0 C0.66 0.99 1.32 1.98 2 3 C0.71186658 3.83878455 -0.58063256 4.67086783 -1.875 5.5 C-2.59429688 5.9640625 -3.31359375 6.428125 -4.0546875 6.90625 C-6 8 -6 8 -8 8 C-8.33 7.01 -8.66 6.02 -9 5 C-6.03 3.35 -3.06 1.7 0 0 Z " fill="#000000" transform="translate(765,595)"/>
<path d="M0 0 C0.99 0.33 1.98 0.66 3 1 C3 1.66 3 2.32 3 3 C0.03 4.65 -2.94 6.3 -6 8 C-6 6.68 -6 5.36 -6 4 C-3.1875 1.6875 -3.1875 1.6875 0 0 Z " fill="#000000" transform="translate(781,585)"/>
<path d="M0 0 C0.99 0.33 1.98 0.66 3 1 C2.05016642 2.50539661 1.08988109 4.00420347 0.125 5.5 C-0.40867187 6.3353125 -0.94234375 7.170625 -1.4921875 8.03125 C-1.98976563 8.6809375 -2.48734375 9.330625 -3 10 C-3.66 10 -4.32 10 -5 10 C-4.49701212 5.59885603 -2.91227269 3.28804981 0 0 Z " fill="#000000" transform="translate(297,572)"/>
<path d="M0 0 C0.99 0 1.98 0 3 0 C4.17571451 3.67410785 4.07366746 7.16929183 4 11 C3.01 11 2.02 11 1 11 C0.67 7.37 0.34 3.74 0 0 Z " fill="#000000" transform="translate(589,561)"/>
<path d="M0 0 C0.99 0 1.98 0 3 0 C3 3.63 3 7.26 3 11 C2.01 11 1.02 11 0 11 C0 7.37 0 3.74 0 0 Z " fill="#000000" transform="translate(588,541)"/>
<path d="M0 0 C0.99 0 1.98 0 3 0 C2.43454163 3.95820859 1.19097652 6.6659053 -1 10 C-1.99 9.67 -2.98 9.34 -4 9 C-2.68 6.03 -1.36 3.06 0 0 Z " fill="#000000" transform="translate(336,502)"/>
<path d="M0 0 C0.99 0 1.98 0 3 0 C2.43454163 3.95820859 1.19097652 6.6659053 -1 10 C-1.99 9.67 -2.98 9.34 -4 9 C-2.68 6.03 -1.36 3.06 0 0 Z " fill="#000000" transform="translate(345,484)"/>
<path d="M0 0 C0.99 0.33 1.98 0.66 3 1 C1.68 4.3 0.36 7.6 -1 11 C-1.99 10.67 -2.98 10.34 -4 10 C-2.8905928 6.51329166 -1.73662334 3.22515763 0 0 Z " fill="#000000" transform="translate(354,465)"/>
<path d="M0 0 C0.33 0.99 0.66 1.98 1 3 C-1.97 4.32 -4.94 5.64 -8 7 C-8.33 5.68 -8.66 4.36 -9 3 C-6.03 2.01 -3.06 1.02 0 0 Z " fill="#000000" transform="translate(265,413)"/>
<path d="M0 0 C0.33 0.99 0.66 1.98 1 3 C-4.445 4.485 -4.445 4.485 -10 6 C-10.33 5.01 -10.66 4.02 -11 3 C-9.54293274 2.49632243 -8.08429904 1.99717444 -6.625 1.5 C-5.81289063 1.2215625 -5.00078125 0.943125 -4.1640625 0.65625 C-2 0 -2 0 0 0 Z " fill="#000000" transform="translate(285,407)"/>
<path d="M0 0 C0 0.66 0 1.32 0 2 C-5.445 3.485 -5.445 3.485 -11 5 C-11 4.01 -11 3.02 -11 2 C-9.73392393 1.46770674 -8.46189588 0.94955456 -7.1875 0.4375 C-6.47980469 0.14746094 -5.77210938 -0.14257812 -5.04296875 -0.44140625 C-3 -1 -3 -1 0 0 Z " fill="#000000" transform="translate(305,402)"/>
<path d="M0 0 C0.66 0 1.32 0 2 0 C1.125 7.625 1.125 7.625 0 11 C-0.99 11 -1.98 11 -3 11 C-2.69217504 9.35328588 -2.37860766 7.70764424 -2.0625 6.0625 C-1.88847656 5.14597656 -1.71445312 4.22945313 -1.53515625 3.28515625 C-1 1 -1 1 0 0 Z " fill="#000000" transform="translate(614,383)"/>
<path d="M0 0 C0 0.66 0 1.32 0 2 C-3.87684087 3.19287411 -6.91621923 4 -11 4 C-11 3.01 -11 2.02 -11 1 C-3.375 -1.125 -3.375 -1.125 0 0 Z " fill="#000000" transform="translate(383,383)"/>
<path d="M0 0 C0 0.99 0 1.98 0 3 C-3.63 3.33 -7.26 3.66 -11 4 C-11 3.01 -11 2.02 -11 1 C-7.27569643 0.30710631 -3.78916254 -0.11144596 0 0 Z " fill="#000000" transform="translate(422,375)"/>
<path d="M0 0 C0 0.99 0 1.98 0 3 C-7.625 5 -7.625 5 -11 5 C-11 4.01 -11 3.02 -11 2 C-9.5422647 1.664061 -8.08378894 1.33133376 -6.625 1 C-5.40683594 0.7215625 -5.40683594 0.7215625 -4.1640625 0.4375 C-2 0 -2 0 0 0 Z " fill="#000000" transform="translate(442,371)"/>
<path d="M0 0 C0 0.99 0 1.98 0 3 C-3.63 3.66 -7.26 4.32 -11 5 C-11 4.01 -11 3.02 -11 2 C-3.375 0 -3.375 0 0 0 Z " fill="#000000" transform="translate(462,368)"/>
<path d="M0 0 C0 0.99 0 1.98 0 3 C-3.63 3.66 -7.26 4.32 -11 5 C-10.67 3.68 -10.34 2.36 -10 1 C-3.375 0 -3.375 0 0 0 Z " fill="#000000" transform="translate(482,365)"/>
<path d="M0 0 C0.33 0.99 0.66 1.98 1 3 C-2.63 3.33 -6.26 3.66 -10 4 C-10.33 3.01 -10.66 2.02 -11 1 C-7.27569643 0.30710631 -3.78916254 -0.11144596 0 0 Z " fill="#000000" transform="translate(541,357)"/>
<path d="M0 0 C0 0.99 0 1.98 0 3 C-3.67410785 4.17571451 -7.16929183 4.07366746 -11 4 C-11 3.01 -11 2.02 -11 1 C-7.26513121 0.4254048 -3.78706732 0 0 0 Z " fill="#000000" transform="translate(621,346)"/>
<path d="M0 0 C0 0.99 0 1.98 0 3 C-3.67410785 4.17571451 -7.16929183 4.07366746 -11 4 C-11 3.01 -11 2.02 -11 1 C-7.26513121 0.4254048 -3.78706732 0 0 0 Z " fill="#000000" transform="translate(641,343)"/>
<path d="M0 0 C0 0.99 0 1.98 0 3 C-3.63 3.33 -7.26 3.66 -11 4 C-11 3.01 -11 2.02 -11 1 C-7.26562152 0.12132271 -3.83225427 -0.08912219 0 0 Z " fill="#000000" transform="translate(661,340)"/>
<path d="M0 0 C0.99 0 1.98 0 3 0 C2.32829194 3.8063457 1.27253436 7.35206816 0 11 C-0.99 10.67 -1.98 10.34 -3 10 C-2.01 6.7 -1.02 3.4 0 0 Z " fill="#000000" transform="translate(406,334)"/>
<path d="M0 0 C0.99 0 1.98 0 3 0 C2.01 3.3 1.02 6.6 0 10 C-0.99 10 -1.98 10 -3 10 C-2.69201674 8.51988629 -2.378482 7.04092675 -2.0625 5.5625 C-1.88847656 4.73878906 -1.71445312 3.91507812 -1.53515625 3.06640625 C-1 1 -1 1 0 0 Z " fill="#000000" transform="translate(413,315)"/>
<path d="M0 0 C0.66 0.33 1.32 0.66 2 1 C1 4 1 4 -1.875 5.6875 C-5 7 -5 7 -8 7 C-8 6.01 -8 5.02 -8 4 C-6.71349294 3.30289269 -5.42059335 2.61757124 -4.125 1.9375 C-3.40570312 1.55464844 -2.68640625 1.17179687 -1.9453125 0.77734375 C-1.30335938 0.52082031 -0.66140625 0.26429688 0 0 Z " fill="#000000" transform="translate(755,311)"/>
<path d="M0 0 C0.99 0 1.98 0 3 0 C2.34 2.97 1.68 5.94 1 9 C-0.32 9.33 -1.64 9.66 -3 10 C-2.01 6.7 -1.02 3.4 0 0 Z " fill="#000000" transform="translate(649,269)"/>
<path d="M0 0 C0.99 0 1.98 0 3 0 C4.19287411 3.87684087 5 6.91621923 5 11 C4.01 11 3.02 11 2 11 C1.34 7.37 0.68 3.74 0 0 Z " fill="#000000" transform="translate(204,247)"/>
<path d="M0 0 C0.99 0 1.98 0 3 0 C3.33 3.63 3.66 7.26 4 11 C3.01 11 2.02 11 1 11 C0.67 7.37 0.34 3.74 0 0 Z " fill="#000000" transform="translate(201,227)"/>
<path d="M0 0 C0.99 0.33 1.98 0.66 3 1 C2.57742724 2.4835001 2.13643678 3.96176424 1.6875 5.4375 C1.44386719 6.26121094 1.20023438 7.08492187 0.94921875 7.93359375 C0.63597656 8.61550781 0.32273437 9.29742187 0 10 C-0.99 10.33 -1.98 10.66 -3 11 C-2.44894091 7.0507432 -1.61064629 3.65079826 0 0 Z " fill="#000000" transform="translate(670,212)"/>
<path d="M0 0 C0.99 0 1.98 0 3 0 C3 3.63 3 7.26 3 11 C2.01 11 1.02 11 0 11 C0 7.37 0 3.74 0 0 Z " fill="#000000" transform="translate(199,187)"/>
<path d="M0 0 C0.99 0 1.98 0 3 0 C2.34 3.3 1.68 6.6 1 10 C0.01 10.33 -0.98 10.66 -2 11 C-1.125 3.375 -1.125 3.375 0 0 Z " fill="#000000" transform="translate(468,142)"/>
<path d="M0 0 C0.99 0.33 1.98 0.66 3 1 C2.01 4.3 1.02 7.6 0 11 C-0.99 11 -1.98 11 -3 11 C-2.69078116 9.54096742 -2.37751201 8.08279278 -2.0625 6.625 C-1.88847656 5.81289062 -1.71445312 5.00078125 -1.53515625 4.1640625 C-1 2 -1 2 0 0 Z " fill="#000000" transform="translate(480,103)"/>
<path d="M0 0 C0.99 0.33 1.98 0.66 3 1 C1.68 4.3 0.36 7.6 -1 11 C-1.99 10.67 -2.98 10.34 -4 10 C-3.52449439 8.51965236 -3.04448784 7.04074979 -2.5625 5.5625 C-2.29566406 4.73878906 -2.02882813 3.91507812 -1.75390625 3.06640625 C-1 1 -1 1 0 0 Z " fill="#000000" transform="translate(716,101)"/>
<path d="M0 0 C0.99 0.33 1.98 0.66 3 1 C2.07456291 2.34173403 1.13422595 3.67320159 0.1875 5 C-0.33457031 5.7425 -0.85664063 6.485 -1.39453125 7.25 C-1.92433594 7.8275 -2.45414063 8.405 -3 9 C-3.99 9 -4.98 9 -6 9 C-4.68775452 5.06326356 -3.08089673 2.77280706 0 0 Z " fill="#000000" transform="translate(236,95)"/>
<path d="M0 0 C0.99 0.33 1.98 0.66 3 1 C2.01 4.3 1.02 7.6 0 11 C-0.99 10.67 -1.98 10.34 -3 10 C-2.69201674 8.51988629 -2.378482 7.04092675 -2.0625 5.5625 C-1.88847656 4.73878906 -1.71445312 3.91507812 -1.53515625 3.06640625 C-1 1 -1 1 0 0 Z " fill="#000000" transform="translate(486,84)"/>
<path d="M0 0 C0.99 0 1.98 0 3 0 C3 0.99 3 1.98 3 3 C1.57421875 4.421875 1.57421875 4.421875 -0.3125 5.75 C-0.92738281 6.19859375 -1.54226562 6.6471875 -2.17578125 7.109375 C-4 8 -4 8 -7 7 C-4.66666667 4.66666667 -2.33333333 2.33333333 0 0 Z " fill="#000000" transform="translate(251,82)"/>
<path d="M0 0 C0 0.99 0 1.98 0 3 C-3.63 3.33 -7.26 3.66 -11 4 C-11 3.01 -11 2.02 -11 1 C-7.26562152 0.12132271 -3.83225427 -0.08912219 0 0 Z " fill="#000000" transform="translate(329,54)"/>
<path d="M0 0 C-0.33 0.66 -0.66 1.32 -1 2 C-3.28515625 2.6328125 -3.28515625 2.6328125 -6.0625 3.125 C-6.98160156 3.29257812 -7.90070313 3.46015625 -8.84765625 3.6328125 C-9.91306641 3.81457031 -9.91306641 3.81457031 -11 4 C-11 3.01 -11 2.02 -11 1 C-6.87831311 -0.62950412 -4.29299643 -1.26264601 0 0 Z " fill="#000000" transform="translate(197,666)"/>
<path d="M0 0 C3.63 0.66 7.26 1.32 11 2 C10.67 2.99 10.34 3.98 10 5 C6.7 4.34 3.4 3.68 0 3 C0 2.01 0 1.02 0 0 Z " fill="#000000" transform="translate(146,665)"/>
<path d="M0 0 C3.59391114 1.33488128 6.75490696 2.96022723 10 5 C9.01 6.485 9.01 6.485 8 8 C5.03 6.02 2.06 4.04 -1 2 C-0.67 1.34 -0.34 0.68 0 0 Z " fill="#000000" transform="translate(110,648)"/>
<path d="M0 0 C3.63 0.33 7.26 0.66 11 1 C11 1.99 11 2.98 11 4 C9.54176788 4.0270043 8.08339325 4.04639787 6.625 4.0625 C5.81289063 4.07410156 5.00078125 4.08570313 4.1640625 4.09765625 C2 4 2 4 0 3 C0 2.01 0 1.02 0 0 Z " fill="#000000" transform="translate(644,634)"/>
<path d="M0 0 C0 0.66 0 1.32 0 2 C-1.4577353 2.335939 -2.91621106 2.66866624 -4.375 3 C-5.59316406 3.2784375 -5.59316406 3.2784375 -6.8359375 3.5625 C-9 4 -9 4 -11 4 C-11 3.01 -11 2.02 -11 1 C-9.5437328 0.63743142 -8.08488815 0.28520207 -6.625 -0.0625 C-5.40683594 -0.35833984 -5.40683594 -0.35833984 -4.1640625 -0.66015625 C-2 -1 -2 -1 0 0 Z " fill="#000000" transform="translate(675,634)"/>
<path d="M0 0 C0 0.66 0 1.32 0 2 C-6.4 5.07692308 -6.4 5.07692308 -9.4375 4.6875 C-9.953125 4.460625 -10.46875 4.23375 -11 4 C-8.32997607 0.73663741 -4.08378642 -2.04189321 0 0 Z " fill="#000000" transform="translate(713,623)"/>
<path d="M0 0 C1.17825358 0.90172468 2.34231577 1.82201502 3.5 2.75 C4.1496875 3.26046875 4.799375 3.7709375 5.46875 4.296875 C7 6 7 6 7 10 C5.82174642 9.09827532 4.65768423 8.17798498 3.5 7.25 C2.8503125 6.73953125 2.200625 6.2290625 1.53125 5.703125 C0 4 0 4 0 0 Z " fill="#000000" transform="translate(80,621)"/>
<path d="M0 0 C-0.24609375 1.890625 -0.24609375 1.890625 -1 4 C-2.84765625 5.046875 -2.84765625 5.046875 -5.0625 5.75 C-6.16271484 6.11351562 -6.16271484 6.11351562 -7.28515625 6.484375 C-8.13400391 6.73960937 -8.13400391 6.73960937 -9 7 C-9 5.68 -9 4.36 -9 3 C-2.25 0 -2.25 0 0 0 Z " fill="#000000" transform="translate(731,614)"/>
<path d="M0 0 C0.99 0 1.98 0 3 0 C2.29445932 3.66881155 0.72264494 6.70450534 -1 10 C-1.99 10 -2.98 10 -4 10 C-3.29445932 6.33118845 -1.72264494 3.29549466 0 0 Z " fill="#000000" transform="translate(327,520)"/>
<path d="M0 0 C0.99 0 1.98 0 3 0 C3.14285714 7.42857143 3.14285714 7.42857143 2 11 C1.01 11 0.02 11 -1 11 C-0.67 7.37 -0.34 3.74 0 0 Z " fill="#000000" transform="translate(590,501)"/>
<path d="M0 0 C0.99 0.33 1.98 0.66 3 1 C2.34 4.3 1.68 7.6 1 11 C0.01 11 -0.98 11 -2 11 C-1.34 7.37 -0.68 3.74 0 0 Z " fill="#000000" transform="translate(596,461)"/>
<path d="M0 0 C0.99 0 1.98 0 3 0 C2.60404157 1.48484412 2.18249294 2.9628831 1.75 4.4375 C1.51796875 5.26121094 1.2859375 6.08492188 1.046875 6.93359375 C0 9 0 9 -2.109375 9.78515625 C-2.73328125 9.85605469 -3.3571875 9.92695313 -4 10 C-2.8905928 6.51329166 -1.73662334 3.22515763 0 0 Z " fill="#000000" transform="translate(362,447)"/>
<path d="M0 0 C0.99 0.33 1.98 0.66 3 1 C1.68 4.3 0.36 7.6 -1 11 C-1.99 10.67 -2.98 10.34 -4 10 C-2.68 6.7 -1.36 3.4 0 0 Z " fill="#000000" transform="translate(370,428)"/>
<path d="M0 0 C0.99 0.33 1.98 0.66 3 1 C2.34 4.3 1.68 7.6 1 11 C0.01 11 -0.98 11 -2 11 C-1.85892253 9.54119891 -1.71197585 8.08296449 -1.5625 6.625 C-1.48128906 5.81289063 -1.40007813 5.00078125 -1.31640625 4.1640625 C-1 2 -1 2 0 0 Z " fill="#000000" transform="translate(604,422)"/>
<path d="M0 0 C0.66 0.33 1.32 0.66 2 1 C1.49287967 4.71888239 0.88391785 7.73454239 -1 11 C-1.99 11 -2.98 11 -4 11 C-3.5247412 9.35303396 -3.04468109 7.70745272 -2.5625 6.0625 C-2.29566406 5.14597656 -2.02882813 4.22945313 -1.75390625 3.28515625 C-1 1 -1 1 0 0 Z " fill="#000000" transform="translate(378,409)"/>
<path d="M0 0 C0.99 0 1.98 0 3 0 C2.01 3.3 1.02 6.6 0 10 C-0.99 10 -1.98 10 -3 10 C-2.49287967 6.28111761 -1.88391785 3.26545761 0 0 Z " fill="#000000" transform="translate(385,391)"/>
<path d="M0 0 C0.33 0.99 0.66 1.98 1 3 C-2.82320557 4.42258812 -5.91281305 5.24042276 -10 5 C-9.67 4.01 -9.34 3.02 -9 2 C-6.93359375 1.26953125 -6.93359375 1.26953125 -4.4375 0.8125 C-3.61121094 0.65394531 -2.78492188 0.49539063 -1.93359375 0.33203125 C-1.29550781 0.22246094 -0.65742188 0.11289062 0 0 Z " fill="#000000" transform="translate(362,386)"/>
<path d="M0 0 C0 0.66 0 1.32 0 2 C-1.4577353 2.335939 -2.91621106 2.66866624 -4.375 3 C-5.59316406 3.2784375 -5.59316406 3.2784375 -6.8359375 3.5625 C-9 4 -9 4 -11 4 C-11 3.01 -11 2.02 -11 1 C-9.5437328 0.63743142 -8.08488815 0.28520207 -6.625 -0.0625 C-5.40683594 -0.35833984 -5.40683594 -0.35833984 -4.1640625 -0.66015625 C-2 -1 -2 -1 0 0 Z " fill="#000000" transform="translate(502,363)"/>
<path d="M0 0 C1.8871875 0.0309375 1.8871875 0.0309375 3.8125 0.0625 C3.4825 1.0525 3.1525 2.0425 2.8125 3.0625 C-0.4875 3.3925 -3.7875 3.7225 -7.1875 4.0625 C-7.1875 3.0725 -7.1875 2.0825 -7.1875 1.0625 C-4.43671116 0.14557039 -2.82801087 -0.04636083 0 0 Z " fill="#000000" transform="translate(518.1875,359.9375)"/>
<path d="M0 0 C0 0.99 0 1.98 0 3 C-3.63 3.33 -7.26 3.66 -11 4 C-11 3.01 -11 2.02 -11 1 C-7.27569643 0.30710631 -3.78916254 -0.11144596 0 0 Z " fill="#000000" transform="translate(601,349)"/>
<path d="M0 0 C0.99 0 1.98 0 3 0 C2.53199289 4.05606165 2.12046792 7.46588679 0 11 C-0.66 10.67 -1.32 10.34 -2 10 C-1.34 6.7 -0.68 3.4 0 0 Z " fill="#000000" transform="translate(624,345)"/>
<path d="M0 0 C0 0.66 0 1.32 0 2 C-3.63 2.66 -7.26 3.32 -11 4 C-11 3.01 -11 2.02 -11 1 C-3.57142857 -1.42857143 -3.57142857 -1.42857143 0 0 Z " fill="#000000" transform="translate(681,337)"/>
<path d="M0 0 C0.99 0.33 1.98 0.66 3 1 C2.34 3.97 1.68 6.94 1 10 C-0.32 10.33 -1.64 10.66 -3 11 C-2.01 7.37 -1.02 3.74 0 0 Z " fill="#000000" transform="translate(438,238)"/>
<path d="M0 0 C0.99 0 1.98 0 3 0 C3.33 3.63 3.66 7.26 4 11 C3.01 11 2.02 11 1 11 C-0.28317892 7.15046324 -0.06643637 4.05261865 0 0 Z " fill="#000000" transform="translate(199,207)"/>
<path d="M0 0 C0.66 0.33 1.32 0.66 2 1 C1.54177532 4.46941546 1.10868317 7.67395049 0 11 C-0.99 11 -1.98 11 -3 11 C-2.69217504 9.35328588 -2.37860766 7.70764424 -2.0625 6.0625 C-1.88847656 5.14597656 -1.71445312 4.22945312 -1.53515625 3.28515625 C-1 1 -1 1 0 0 Z " fill="#000000" transform="translate(457,180)"/>
<path d="M0 0 C0.66 0 1.32 0 2 0 C1.44894091 3.9492568 0.61064629 7.34920174 -1 11 C-1.99 10.67 -2.98 10.34 -4 10 C-3.52449439 8.51965236 -3.04448784 7.04074979 -2.5625 5.5625 C-2.29566406 4.73878906 -2.02882813 3.91507813 -1.75390625 3.06640625 C-1 1 -1 1 0 0 Z " fill="#000000" transform="translate(685,175)"/>
<path d="M0 0 C0.99 0 1.98 0 3 0 C2.67 3.63 2.34 7.26 2 11 C1.01 11 0.02 11 -1 11 C-0.67 7.37 -0.34 3.74 0 0 Z " fill="#000000" transform="translate(201,167)"/>
<path d="M0 0 C0.66 0 1.32 0 2 0 C1 7.42857143 1 7.42857143 0 11 C-0.99 11 -1.98 11 -3 11 C-2.53199289 6.94393835 -2.12046792 3.53411321 0 0 Z " fill="#000000" transform="translate(463,161)"/>
<path d="M0 0 C0.66 0 1.32 0 2 0 C1.85892253 1.45880109 1.71197585 2.91703551 1.5625 4.375 C1.48128906 5.18710938 1.40007812 5.99921875 1.31640625 6.8359375 C1 9 1 9 0 11 C-0.99 11 -1.98 11 -3 11 C-2.69217504 9.35328588 -2.37860766 7.70764424 -2.0625 6.0625 C-1.88847656 5.14597656 -1.71445313 4.22945312 -1.53515625 3.28515625 C-1 1 -1 1 0 0 Z " fill="#000000" transform="translate(206,147)"/>
<path d="M0 0 C0.99 0.33 1.98 0.66 3 1 C1.68 4.3 0.36 7.6 -1 11 C-1.99 10.34 -2.98 9.68 -4 9 C-2.68 6.03 -1.36 3.06 0 0 Z " fill="#000000" transform="translate(700,138)"/>
<path d="M0 0 C0.99 0.33 1.98 0.66 3 1 C1.68 4.3 0.36 7.6 -1 11 C-1.99 10.67 -2.98 10.34 -4 10 C-2.68 6.7 -1.36 3.4 0 0 Z " fill="#000000" transform="translate(213,128)"/>
<path d="M0 0 C0.99 0.33 1.98 0.66 3 1 C2.71758359 2.46015291 2.42373386 3.91809793 2.125 5.375 C1.96257812 6.18710938 1.80015625 6.99921875 1.6328125 7.8359375 C1 10 1 10 -1 12 C-1.66 11.34 -2.32 10.68 -3 10 C-2.01 6.7 -1.02 3.4 0 0 Z " fill="#000000" transform="translate(474,122)"/>
<path d="M0 0 C0.99 0.66 1.98 1.32 3 2 C1.68 4.97 0.36 7.94 -1 11 C-1.99 11 -2.98 11 -4 11 C-3.52269162 9.5410574 -3.04308958 8.08286504 -2.5625 6.625 C-2.29566406 5.81289062 -2.02882813 5.00078125 -1.75390625 4.1640625 C-1 2 -1 2 0 0 Z " fill="#000000" transform="translate(708,119)"/>
<path d="M0 0 C0.99 0.33 1.98 0.66 3 1 C1.68 4.3 0.36 7.6 -1 11 C-1.99 10.67 -2.98 10.34 -4 10 C-3.52449439 8.51965236 -3.04448784 7.04074979 -2.5625 5.5625 C-2.29566406 4.73878906 -2.02882813 3.91507812 -1.75390625 3.06640625 C-1 1 -1 1 0 0 Z " fill="#000000" transform="translate(724,83)"/>
<path d="M0 0 C0.66 0.33 1.32 0.66 2 1 C1 4 1 4 -0.84765625 5.16796875 C-1.57855469 5.50441406 -2.30945313 5.84085937 -3.0625 6.1875 C-3.79597656 6.53167969 -4.52945312 6.87585938 -5.28515625 7.23046875 C-6.13400391 7.61138672 -6.13400391 7.61138672 -7 8 C-7 6.68 -7 5.36 -7 4 C-1.7265625 0.77734375 -1.7265625 0.77734375 0 0 Z " fill="#000000" transform="translate(269,71)"/>
<path d="M0 0 C7.42857143 -0.14285714 7.42857143 -0.14285714 11 1 C11 1.99 11 2.98 11 4 C7.37 3.67 3.74 3.34 0 3 C0 2.01 0 1.02 0 0 Z " fill="#000000" transform="translate(418,53)"/>
<path d="M0 0 C3.63 0.33 7.26 0.66 11 1 C11 1.99 11 2.98 11 4 C7.37 3.67 3.74 3.34 0 3 C0 2.01 0 1.02 0 0 Z " fill="#000000" transform="translate(398,51)"/>
<path d="M0 0 C0.99 0.33 1.98 0.66 3 1 C2.07038578 2.15224028 1.1309875 3.29659176 0.1875 4.4375 C-0.59560547 5.39462891 -0.59560547 5.39462891 -1.39453125 6.37109375 C-3 8 -3 8 -6 9 C-5.52797514 4.75177626 -3.03344482 2.80010291 0 0 Z " fill="#000000" transform="translate(260,620)"/>
<path d="M0 0 C1.15224028 0.92961422 2.29659176 1.8690125 3.4375 2.8125 C4.07558594 3.33457031 4.71367188 3.85664062 5.37109375 4.39453125 C7 6 7 6 8 9 C3.75177626 8.52797514 1.80010291 6.03344482 -1 3 C-0.67 2.01 -0.34 1.02 0 0 Z " fill="#000000" transform="translate(610,616)"/>
<path d="M0 0 C0.99 0 1.98 0 3 0 C3.99 3.3 4.98 6.6 6 10 C4.68 9.67 3.36 9.34 2 9 C1.34 6.03 0.68 3.06 0 0 Z " fill="#000000" transform="translate(592,581)"/>
<path d="M0 0 C0.66 0 1.32 0 2 0 C1.58578031 4.83256305 -0.46413986 6.82679218 -4 10 C-4.33 9.01 -4.66 8.02 -5 7 C-4.07421875 5.17578125 -4.07421875 5.17578125 -2.6875 3.3125 C-2.23761719 2.68988281 -1.78773438 2.06726563 -1.32421875 1.42578125 C-0.88722656 0.95527344 -0.45023437 0.48476563 0 0 Z " fill="#000000" transform="translate(308,555)"/>
<path d="M0 0 C0.99 0.33 1.98 0.66 3 1 C2.67 4.3 2.34 7.6 2 11 C1.01 11 0.02 11 -1 11 C-1.125 3.375 -1.125 3.375 0 0 Z " fill="#000000" transform="translate(589,521)"/>
<path d="M0 0 C0.99 0.33 1.98 0.66 3 1 C2.34 4.3 1.68 7.6 1 11 C0.01 10.67 -0.98 10.34 -2 10 C-1.34 6.7 -0.68 3.4 0 0 Z " fill="#000000" transform="translate(593,481)"/>
<path d="M0 0 C0.66 0 1.32 0 2 0 C1.67 3.63 1.34 7.26 1 11 C0.01 10.67 -0.98 10.34 -2 10 C-1.85950482 8.52031676 -1.71245174 7.04125484 -1.5625 5.5625 C-1.48128906 4.73878906 -1.40007813 3.91507812 -1.31640625 3.06640625 C-1 1 -1 1 0 0 Z " fill="#000000" transform="translate(600,442)"/>
<path d="M0 0 C0.33 0.99 0.66 1.98 1 3 C-2.63 3.66 -6.26 4.32 -10 5 C-10 4.01 -10 3.02 -10 2 C-3.375 0 -3.375 0 0 0 Z " fill="#000000" transform="translate(343,391)"/>
<path d="M0 0 C0.99 0.33 1.98 0.66 3 1 C2.01 4.3 1.02 7.6 0 11 C-0.99 10.67 -1.98 10.34 -3 10 C-2.01 6.7 -1.02 3.4 0 0 Z " fill="#000000" transform="translate(619,364)"/>
<path d="M0 0 C0 0.99 0 1.98 0 3 C-3.3 3.33 -6.6 3.66 -10 4 C-10.33 3.01 -10.66 2.02 -11 1 C-7.32589215 -0.17571451 -3.83070817 -0.07366746 0 0 Z " fill="#000000" transform="translate(581,352)"/>
<path d="M0 0 C0 0.99 0 1.98 0 3 C-3.3 3.66 -6.6 4.32 -10 5 C-9.67 3.68 -9.34 2.36 -9 1 C-5.92677456 0.08941469 -3.19902639 -0.08886184 0 0 Z " fill="#000000" transform="translate(700,332)"/>
<path d="M0 0 C0.99 0 1.98 0 3 0 C2.71758359 1.46015291 2.42373386 2.91809793 2.125 4.375 C1.96257812 5.18710937 1.80015625 5.99921875 1.6328125 6.8359375 C1 9 1 9 -1 11 C-1.66 10.34 -2.32 9.68 -3 9 C-2.01 6.03 -1.02 3.06 0 0 Z " fill="#000000" transform="translate(419,296)"/>
<path d="M0 0 C0.99 0.66 1.98 1.32 3 2 C2.01 4.97 1.02 7.94 0 11 C-0.99 11 -1.98 11 -3 11 C-2.69078116 9.54096742 -2.37751201 8.08279278 -2.0625 6.625 C-1.88847656 5.81289063 -1.71445312 5.00078125 -1.53515625 4.1640625 C-1 2 -1 2 0 0 Z " fill="#000000" transform="translate(643,287)"/>
<path d="M0 0 C0.99 0.33 1.98 0.66 3 1 C2.01 4.3 1.02 7.6 0 11 C-0.99 11 -1.98 11 -3 11 C-2.01 7.37 -1.02 3.74 0 0 Z " fill="#000000" transform="translate(432,257)"/>
<path d="M0 0 C0.99 0 1.98 0 3 0 C2.01 3.3 1.02 6.6 0 10 C-0.99 10 -1.98 10 -3 10 C-2.39009109 6.44219804 -1.4216319 3.3171411 0 0 Z " fill="#000000" transform="translate(656,250)"/>
<path d="M0 0 C0.99 0.33 1.98 0.66 3 1 C1.68 4.3 0.36 7.6 -1 11 C-1.66 10.67 -2.32 10.34 -3 10 C-2.49287967 6.28111761 -1.88391785 3.26545761 0 0 Z " fill="#000000" transform="translate(663,231)"/>
<path d="M0 0 C0.66 0 1.32 0 2 0 C1.53199289 4.05606165 1.12046792 7.46588679 -1 11 C-1.66 11 -2.32 11 -3 11 C-2.53199289 6.94393835 -2.12046792 3.53411321 0 0 Z " fill="#000000" transform="translate(445,219)"/>
<path d="M0 0 C0.99 0 1.98 0 3 0 C2.01 3.3 1.02 6.6 0 10 C-0.99 10 -1.98 10 -3 10 C-2.39009109 6.44219804 -1.4216319 3.3171411 0 0 Z " fill="#000000" transform="translate(677,194)"/>
<path d="M0 0 C0.99 0.33 1.98 0.66 3 1 C2.57742724 2.4835001 2.13643678 3.96176424 1.6875 5.4375 C1.44386719 6.26121094 1.20023438 7.08492187 0.94921875 7.93359375 C0.63597656 8.61550781 0.32273437 9.29742187 0 10 C-0.99 10.33 -1.98 10.66 -3 11 C-2.44894091 7.0507432 -1.61064629 3.65079826 0 0 Z " fill="#000000" transform="translate(692,156)"/>
<path d="M0 0 C3.63 0 7.26 0 11 0 C11 0.66 11 1.32 11 2 C8.59454362 3.20272819 7.05003047 3.10071472 4.375 3.0625 C3.14910156 3.04896484 3.14910156 3.04896484 1.8984375 3.03515625 C0.95871094 3.01775391 0.95871094 3.01775391 0 3 C0 2.01 0 1.02 0 0 Z " fill="#000000" transform="translate(338,52)"/>
<path d="M0 0 C3.63 0 7.26 0 11 0 C11 0.66 11 1.32 11 2 C8.59454362 3.20272819 7.05003047 3.10071472 4.375 3.0625 C3.14910156 3.04896484 3.14910156 3.04896484 1.8984375 3.03515625 C0.95871094 3.01775391 0.95871094 3.01775391 0 3 C0 2.01 0 1.02 0 0 Z " fill="#000000" transform="translate(358,51)"/>
<path d="M0 0 C3.78125 0.7109375 3.78125 0.7109375 5.75 3.3125 C7 6 7 6 7 10 C4 9 4 9 2.83203125 6.93359375 C2.49558594 6.10988281 2.15914062 5.28617188 1.8125 4.4375 C1.46832031 3.61121094 1.12414062 2.78492188 0.76953125 1.93359375 C0.51558594 1.29550781 0.26164063 0.65742187 0 0 Z " fill="#000000" transform="translate(598,600)"/>
<path d="M0 0 C0.99 0 1.98 0 3 0 C2.125 7.75 2.125 7.75 1 10 C0.01 10 -0.98 10 -2 10 C-1.34 6.7 -0.68 3.4 0 0 Z " fill="#000000" transform="translate(608,403)"/>
<path d="M0 0 C0 0.99 0 1.98 0 3 C-3.47325181 4.1577506 -6.36067448 4.06866652 -10 4 C-10 3.01 -10 2.02 -10 1 C-2.25 0 -2.25 0 0 0 Z " fill="#000000" transform="translate(561,354)"/>
<path d="M0 0 C0.99 0 1.98 0 3 0 C2.71758359 1.46015291 2.42373386 2.91809793 2.125 4.375 C1.96257813 5.18710937 1.80015625 5.99921875 1.6328125 6.8359375 C1 9 1 9 -1 11 C-2.26264601 6.70700357 -1.62950412 4.12168689 0 0 Z " fill="#000000" transform="translate(630,326)"/>
<path d="M0 0 C0.66 0 1.32 0 2 0 C1.53199289 4.05606165 1.12046792 7.46588679 -1 11 C-1.66 10.67 -2.32 10.34 -3 10 C-2.69201674 8.51988629 -2.378482 7.04092675 -2.0625 5.5625 C-1.88847656 4.73878906 -1.71445312 3.91507813 -1.53515625 3.06640625 C-1 1 -1 1 0 0 Z " fill="#000000" transform="translate(451,200)"/>
<path d="M0 0 C3.55780196 0.60990891 6.6828589 1.5783681 10 3 C10 3.99 10 4.98 10 6 C8.5164999 5.57742724 7.03823576 5.13643678 5.5625 4.6875 C4.73878906 4.44386719 3.91507813 4.20023438 3.06640625 3.94921875 C2.04353516 3.47935547 2.04353516 3.47935547 1 3 C0.67 2.01 0.34 1.02 0 0 Z " fill="#000000" transform="translate(625,629)"/>
<path d="M0 0 C0.99 0 1.98 0 3 0 C2.745504 1.48206495 2.47088238 2.96068615 2.1875 4.4375 C2.03667969 5.26121094 1.88585937 6.08492188 1.73046875 6.93359375 C1.48941406 7.61550781 1.24835937 8.29742187 1 9 C0.01 9.33 -0.98 9.66 -2 10 C-1.54177532 6.53058454 -1.10868317 3.32604951 0 0 Z " fill="#000000" transform="translate(636,307)"/>
<path d="M0 0 C3.63 0 7.26 0 11 0 C11 0.99 11 1.98 11 3 C3.57142857 3.14285714 3.57142857 3.14285714 0 2 C0 1.34 0 0.68 0 0 Z " fill="#000000" transform="translate(378,51)"/>
<path d="M0 0 C2.97 0.33 5.94 0.66 9 1 C9.33 1.99 9.66 2.98 10 4 C3.375 4.125 3.375 4.125 0 3 C0 2.01 0 1.02 0 0 Z " fill="#000000" transform="translate(439,55)"/>
<path d="M0 0 C1.32 1.32 2.64 2.64 4 4 C3.67 4.99 3.34 5.98 3 7 C2.34 7 1.68 7 1 7 C-0.625 4.5 -0.625 4.5 -2 2 C-1.34 1.34 -0.68 0.68 0 0 Z " fill="#000000" transform="translate(57,594)"/>
<path d="M0 0 C0.99 0.99 1.98 1.98 3 3 C1.02 3.99 -0.96 4.98 -3 6 C-3.33 5.01 -3.66 4.02 -4 3 C-2.68 2.01 -1.36 1.02 0 0 Z " fill="#000000" transform="translate(811,565)"/>
<path d="M0 0 C0.99 0.33 1.98 0.66 3 1 C2.34 2.32 1.68 3.64 1 5 C-0.32 4.67 -1.64 4.34 -3 4 C-2.01 2.68 -1.02 1.36 0 0 Z " fill="#000000" transform="translate(766,302)"/>
<path d="M0 0 C0.99 0.33 1.98 0.66 3 1 C2.34 2.65 1.68 4.3 1 6 C0.01 6 -0.98 6 -2 6 C-1.34 4.02 -0.68 2.04 0 0 Z " fill="#000000" transform="translate(730,69)"/>
<path d="M0 0 C-1.3125 1.5 -1.3125 1.5 -3 3 C-3.99 3 -4.98 3 -6 3 C-6 2.01 -6 1.02 -6 0 C-3.50907189 -1.24546405 -2.58919267 -0.7767578 0 0 Z " fill="#000000" transform="translate(211,438)"/>
<path d="M0 0 C1.32 0.33 2.64 0.66 4 1 C3.67 2.65 3.34 4.3 3 6 C2.34 5.67 1.68 5.34 1 5 C0.375 2.4375 0.375 2.4375 0 0 Z " fill="#000000" transform="translate(209,267)"/>
<path d="M0 0 C0.99 0.33 1.98 0.66 3 1 C2.67 1.99 2.34 2.98 2 4 C1.01 3.67 0.02 3.34 -1 3 C-0.67 2.01 -0.34 1.02 0 0 Z " fill="#000000" transform="translate(230,357)"/>
<path d="M0 0 C0.99 0.33 1.98 0.66 3 1 C2.67 1.99 2.34 2.98 2 4 C1.01 3.67 0.02 3.34 -1 3 C-0.67 2.01 -0.34 1.02 0 0 Z " fill="#000000" transform="translate(504,297)"/>
<path d="M0 0 C0.99 0.33 1.98 0.66 3 1 C2.67 1.99 2.34 2.98 2 4 C1.01 3.67 0.02 3.34 -1 3 C-0.67 2.01 -0.34 1.02 0 0 Z " fill="#000000" transform="translate(750,258)"/>
<path d="M0 0 C0.99 0.33 1.98 0.66 3 1 C2.67 1.99 2.34 2.98 2 4 C1.01 3.67 0.02 3.34 -1 3 C-0.67 2.01 -0.34 1.02 0 0 Z " fill="#000000" transform="translate(709,542)"/>
<path d="M0 0 C0.99 0.33 1.98 0.66 3 1 C2.67 1.99 2.34 2.98 2 4 C1.01 3.67 0.02 3.34 -1 3 C-0.67 2.01 -0.34 1.02 0 0 Z " fill="#000000" transform="translate(782,192)"/>
<path d="M0 0 C0.99 0.33 1.98 0.66 3 1 C2.67 1.99 2.34 2.98 2 4 C1.01 3.01 0.02 2.02 -1 1 C-0.67 0.67 -0.34 0.34 0 0 Z " fill="#000000" transform="translate(321,700)"/>
<path d="M0 0 C0.99 0.33 1.98 0.66 3 1 C2.67 1.99 2.34 2.98 2 4 C1.01 3.01 0.02 2.02 -1 1 C-0.67 0.67 -0.34 0.34 0 0 Z " fill="#000000" transform="translate(532,179)"/>
<path d="M0 0 C0.99 0.33 1.98 0.66 3 1 C2.67 1.99 2.34 2.98 2 4 C1.01 3.01 0.02 2.02 -1 1 C-0.67 0.67 -0.34 0.34 0 0 Z " fill="#000000" transform="translate(194,43)"/>
</svg>
