<svg width="654" height="686" viewBox="0 0 654 686" fill="none" xmlns="http://www.w3.org/2000/svg">
<path d="M233.5 27.3473C228.833 17.9331 211.1 -0.0189585 177.5 3.48704C135.5 7.86954 120 14.1997 105 35.6253C93 52.7657 87.3333 159.309 86 210.438C86 256.698 86 357.593 86 391.095C86 432.972 97 607.298 110.5 636.028C124 664.757 132 681.313 177 683.261C213 684.819 232.667 659.563 238 646.74C234.333 597.234 227.5 490.821 229.5 461.215C235.667 481.504 255.5 529.484 285.5 559.09C315.5 588.697 342.333 606.811 352 612.167C368.667 622.88 415.3 642.942 468.5 637.488C521.7 632.035 562.333 596.585 576 579.542C591 559.253 624.1 506.987 636.5 460.241C648.9 413.494 651.667 404.08 651.5 405.216C650.5 394.665 644.3 373.078 627.5 371.13C610.7 369.182 602.5 376.486 600.5 380.382C596.5 398.561 587.5 437.452 583.5 447.58C578.5 460.241 564.5 506.5 547 527.439C529.5 548.378 530.5 549.838 506.5 563.96C495.333 567.855 466.1 569.901 438.5 546.917C404 518.187 406.5 518.674 384 495.788C366 477.478 331.833 424.531 317 400.347L305.5 379.895L370 318.053C392.667 291.596 440.4 235.078 450 220.664C462 202.647 509.5 131.553 522.5 99.9019C535.5 68.2505 536.5 51.6944 534.5 39.5208C532.5 27.3472 509.5 10.7911 497.5 7.86944C487.9 5.53211 467.833 3.64926 459 3L430.5 75.0678L403.5 134.475L358.5 216.282L311 288.836L229 385.251L233.5 27.3473Z" stroke="black" stroke-width="5"/>
<path d="M147 49L168 636.5" stroke="black" stroke-width="2" stroke-dasharray="10 10"/>
<path d="M162 422C170.138 422 183.21 424.147 192.5 422C296 398.078 413 236.5 488 40" stroke="black" stroke-width="2" stroke-dasharray="10 10"/>
<path d="M246 403C316.567 570.369 549.782 760.708 624 403" stroke="black" stroke-width="2" stroke-dasharray="10 10"/>
<path d="M6.61932 328.455V343H4.85795V330.301H4.77273L1.22159 332.659V330.869L4.85795 328.455H6.61932Z" fill="black"/>
<path d="M314.506 179V177.722L319.307 172.466C319.87 171.85 320.334 171.315 320.699 170.861C321.063 170.402 321.333 169.971 321.509 169.568C321.688 169.161 321.778 168.735 321.778 168.29C321.778 167.778 321.655 167.336 321.409 166.962C321.168 166.588 320.836 166.299 320.415 166.095C319.993 165.892 319.52 165.79 318.994 165.79C318.436 165.79 317.948 165.906 317.531 166.138C317.119 166.365 316.8 166.685 316.572 167.097C316.35 167.509 316.239 167.991 316.239 168.545H314.562C314.562 167.693 314.759 166.945 315.152 166.301C315.545 165.657 316.08 165.155 316.757 164.795C317.439 164.436 318.204 164.256 319.051 164.256C319.903 164.256 320.659 164.436 321.317 164.795C321.975 165.155 322.491 165.641 322.865 166.251C323.239 166.862 323.426 167.542 323.426 168.29C323.426 168.825 323.329 169.348 323.135 169.859C322.946 170.366 322.614 170.932 322.141 171.557C321.672 172.177 321.021 172.935 320.188 173.83L316.92 177.324V177.438H323.682V179H314.506Z" fill="black"/>
<path d="M453.42 447.199C452.483 447.199 451.647 447.038 450.913 446.716C450.184 446.394 449.604 445.946 449.173 445.374C448.747 444.796 448.515 444.126 448.477 443.364H450.267C450.305 443.832 450.466 444.237 450.75 444.578C451.034 444.914 451.406 445.175 451.865 445.359C452.324 445.544 452.833 445.636 453.392 445.636C454.017 445.636 454.571 445.527 455.054 445.31C455.537 445.092 455.916 444.789 456.19 444.401C456.465 444.012 456.602 443.562 456.602 443.051C456.602 442.516 456.47 442.045 456.205 441.638C455.939 441.226 455.551 440.904 455.04 440.672C454.528 440.44 453.903 440.324 453.165 440.324H452V438.761H453.165C453.742 438.761 454.249 438.657 454.685 438.449C455.125 438.241 455.468 437.947 455.714 437.568C455.965 437.189 456.091 436.744 456.091 436.233C456.091 435.741 455.982 435.312 455.764 434.947C455.546 434.583 455.239 434.299 454.841 434.095C454.448 433.892 453.984 433.79 453.449 433.79C452.947 433.79 452.473 433.882 452.028 434.067C451.588 434.247 451.228 434.509 450.949 434.855C450.67 435.196 450.518 435.608 450.494 436.091H448.79C448.818 435.329 449.048 434.661 449.479 434.088C449.91 433.51 450.473 433.061 451.169 432.739C451.87 432.417 452.639 432.256 453.477 432.256C454.377 432.256 455.149 432.438 455.793 432.803C456.437 433.162 456.931 433.638 457.277 434.23C457.623 434.822 457.795 435.461 457.795 436.148C457.795 436.967 457.58 437.665 457.149 438.243C456.723 438.821 456.143 439.221 455.409 439.443V439.557C456.328 439.708 457.045 440.099 457.561 440.729C458.077 441.354 458.335 442.128 458.335 443.051C458.335 443.842 458.12 444.552 457.689 445.182C457.263 445.807 456.68 446.299 455.942 446.659C455.203 447.019 454.363 447.199 453.42 447.199Z" fill="black"/>
<path d="M62.5264 531.881C63.0128 532.142 63.6192 531.96 63.8807 531.474L68.1433 523.547C68.4049 523.061 68.2226 522.454 67.7362 522.193C67.2498 521.931 66.6434 522.113 66.3819 522.6L62.5929 529.646L55.5471 525.857C55.0607 525.595 54.4543 525.777 54.1927 526.264C53.9311 526.75 54.1134 527.357 54.5998 527.618L62.5264 531.881ZM62.0022 154.934C58.6056 206.315 54.5297 286.776 53.3408 361.177C52.7464 398.376 52.8735 434.071 54.1694 463.865C55.4637 493.623 57.9269 517.597 62.0423 531.288L63.9577 530.712C59.9232 517.29 57.4625 493.551 56.1675 463.778C54.874 434.04 54.7465 398.389 55.3406 361.208C56.5288 286.85 60.6028 206.424 63.9978 155.066L62.0022 154.934Z" fill="black"/>
<path d="M282.001 278.961C281.979 279.513 282.409 279.978 282.961 279.999L291.954 280.349C292.506 280.37 292.971 279.94 292.992 279.388C293.014 278.837 292.584 278.372 292.032 278.35L284.038 278.04L284.349 270.046C284.37 269.494 283.94 269.029 283.388 269.008C282.837 268.986 282.372 269.416 282.35 269.968L282.001 278.961ZM381.562 118.153C374.133 138.222 357.742 170.47 338.971 201.625C320.19 232.796 299.106 262.738 282.321 278.266L283.679 279.734C300.687 263.999 321.893 233.844 340.684 202.657C359.484 171.454 375.947 139.085 383.438 118.847L381.562 118.153Z" fill="black"/>
<path d="M552.901 427.066C552.661 426.568 552.063 426.359 551.566 426.599L543.459 430.509C542.962 430.749 542.753 431.347 542.993 431.845C543.233 432.342 543.831 432.551 544.328 432.311L551.534 428.835L555.009 436.041C555.249 436.538 555.847 436.747 556.345 436.507C556.842 436.267 557.051 435.669 556.811 435.172L552.901 427.066ZM398.668 449.555C424.746 488.672 454.933 507.311 482.995 503.93C511.066 500.549 536.398 475.211 552.944 427.83L551.056 427.17C534.602 474.289 509.684 498.701 482.755 501.945C455.817 505.189 426.254 487.328 400.332 448.445L398.668 449.555Z" fill="black"/>
</svg>
