<?xml version="1.0" encoding="UTF-8"?>
<svg version="1.1" xmlns="http://www.w3.org/2000/svg" width="634" height="706">
<path d="M0 0 C1.05703125 0.53109375 2.1140625 1.0621875 3.203125 1.609375 C18.05169529 9.18323736 32.52365394 17.894238 45 29 C45.87011719 29.76183594 46.74023438 30.52367187 47.63671875 31.30859375 C50.11992728 33.50970385 52.56514426 35.74565943 55 38 C55.90492188 38.80630859 55.90492188 38.80630859 56.828125 39.62890625 C78.46543898 59.80014054 86.26675136 89.89864061 89.25 118.3125 C89.33016357 119.06297607 89.41032715 119.81345215 89.49291992 120.58666992 C90.63666727 132.97394526 90.04490836 145.33384498 88.8125 157.6875 C88.74653625 158.35218292 88.68057251 159.01686584 88.61260986 159.70169067 C84.95680375 195.97791654 75.68536564 231.65560362 67 267 C67.58394531 267.26176025 68.16789062 267.52352051 68.76953125 267.79321289 C71.12668654 269.0685433 72.75667432 270.45644821 74.6875 272.30859375 C75.38037109 272.96786865 76.07324219 273.62714355 76.78710938 274.30639648 C77.88249023 275.36129272 77.88249023 275.36129272 79 276.4375 C80.53060983 277.89650522 82.06186285 279.35483597 83.59375 280.8125 C84.34398437 281.52792969 85.09421875 282.24335938 85.8671875 282.98046875 C88.70975332 285.6720558 91.59900151 288.30924906 94.5 290.9375 C98.68690923 294.75262084 102.73123729 298.66558647 106.671875 302.734375 C108.62178617 304.63193956 110.60696945 306.40293662 112.66796875 308.17578125 C117.51392455 312.38461487 122.03643373 316.88976063 126.5625 321.4375 C127.37396484 322.24509766 128.18542969 323.05269531 129.02148438 323.88476562 C133.35741094 328.22769127 137.52175027 332.65234727 141.52319336 337.30493164 C143.2613433 339.29996802 145.09684008 341.16246628 147 343 C150.88048837 346.8360553 154.45215847 350.85743359 158 355 C158.89380698 356.01886499 159.78840063 357.03704018 160.68359375 358.0546875 C191.04385698 392.74925794 212.20911712 431.72489363 210 479 C206.39381281 525.98496061 188.61864362 570.44344408 152.86328125 601.63671875 C104.96315399 641.17229445 51.38121988 663.13493366 -10 672 C-11.12374023 672.16516113 -12.24748047 672.33032227 -13.40527344 672.50048828 C-47.12218947 677.22711307 -83.37889652 677.42509006 -117 672 C-118.03468414 671.83597687 -118.03468414 671.83597687 -119.090271 671.66864014 C-222.14010658 655.29411788 -222.14010658 655.29411788 -253.9765625 634.93359375 C-256.55385497 633.74445687 -257.34325188 634.10061289 -260 635 C-261.56658849 635.8701534 -263.09960165 636.80197947 -264.60546875 637.7734375 C-265.49838623 638.34570068 -266.39130371 638.91796387 -267.3112793 639.50756836 C-268.73500854 640.43194702 -268.73500854 640.43194702 -270.1875 641.375 C-271.1669458 642.0047876 -272.1463916 642.6345752 -273.15551758 643.28344727 C-276.10733955 645.18336294 -279.05419342 647.09077433 -282 649 C-283.61444418 650.04318414 -285.22901631 651.0861703 -286.84375 652.12890625 C-287.57505127 652.60199219 -288.30635254 653.07507813 -289.05981445 653.5625 C-290.47117172 654.4745785 -291.8837595 655.3847559 -293.29760742 656.29296875 C-296.20607547 658.16537608 -299.07483101 660.0532199 -301.89453125 662.05859375 C-317.66428313 673.05249874 -338.89049762 674.96140955 -357.55078125 672.5390625 C-372.05705578 669.27274903 -382.83460588 661.84863536 -390.94140625 649.46875 C-396.16689623 640.98351593 -398.30871547 631.90697612 -397 622 C-393.24485881 607.34345403 -384.18854112 599.04601741 -371.875 591.125 C-370.0137289 589.90715738 -368.15305144 588.68840698 -366.29296875 587.46875 C-365.39239746 586.8809375 -364.49182617 586.293125 -363.56396484 585.6875 C-360.06769392 583.3863931 -356.62022805 581.01953713 -353.1875 578.625 C-352.17042969 577.91601562 -351.15335937 577.20703125 -350.10546875 576.4765625 C-349.41066406 575.98929688 -348.71585937 575.50203125 -348 575 C-348.804375 574.071875 -349.60875 573.14375 -350.4375 572.1875 C-354.23561414 567.74608579 -357.96486505 563.25307622 -361.62939453 558.70068359 C-362.5777247 557.52397039 -363.52945125 556.34998927 -364.48388672 555.17822266 C-382.05313279 533.53400106 -398.27784712 509.87243952 -409.4375 484.25 C-409.75605957 483.53005859 -410.07461914 482.81011719 -410.40283203 482.06835938 C-415.75332443 469.20410272 -416.74043915 455.54732076 -417.6875 441.8125 C-417.75003967 440.93726685 -417.81257935 440.06203369 -417.87701416 439.16027832 C-421.60041164 386.55397393 -412.69083139 342.97432093 -379 301 C-378.54109375 300.37738281 -378.0821875 299.75476563 -377.609375 299.11328125 C-358.61406664 274.56813882 -321.90978874 263.51021812 -292.71118164 259.13183594 C-281.21244679 257.69777319 -269.69882521 257.59854884 -258.125 257.5625 C-256.71395996 257.55310394 -256.71395996 257.55310394 -255.27441406 257.54351807 C-227.46926605 257.42645014 -195.96112176 260.6616826 -174.89379883 280.85742188 C-170.92214672 284.87000455 -167.60193035 288.98786048 -165 294 C-164.66355469 294.63550781 -164.32710937 295.27101563 -163.98046875 295.92578125 C-160.11854793 305.0074672 -160.54271251 317.89103414 -163.625 327.125 C-167.73611852 336.49319341 -174.32149345 343.82399911 -183.63671875 348.25390625 C-194.79266649 352.56669061 -206.17831719 353.39375986 -218 354 C-217.6390625 354.47050781 -217.278125 354.94101562 -216.90625 355.42578125 C-216.4421875 356.04839844 -215.978125 356.67101562 -215.5 357.3125 C-215.0359375 357.92738281 -214.571875 358.54226563 -214.09375 359.17578125 C-213 361 -213 361 -213 364 C-214.64453125 365.421875 -214.64453125 365.421875 -216.8125 366.75 C-217.87404297 367.42289062 -217.87404297 367.42289062 -218.95703125 368.109375 C-221 369 -221 369 -224 368 C-223.01 366.35 -222.02 364.7 -221 363 C-250.22325456 358.09973321 -250.22325456 358.09973321 -277.4375 367.8125 C-278.65381586 368.84188731 -279.84323534 369.90411769 -281 371 C-281.82951172 371.76957031 -281.82951172 371.76957031 -282.67578125 372.5546875 C-292.37702607 382.61702084 -292.44672083 396.71440459 -292.26953125 409.78515625 C-291.63919538 430.00869091 -284.70557365 450.61764719 -275.95092773 468.70288086 C-275 471 -275 471 -275 474 C-275.99 474 -276.98 474 -278 474 C-289.6463118 447.15075891 -289.6463118 447.15075891 -293 433 C-293.16081055 432.33548828 -293.32162109 431.67097656 -293.48730469 430.98632812 C-297.67582307 413.0059255 -299.28793896 391.34238913 -289.375 375.02734375 C-282.61022364 365.05314225 -274.41734337 360.18345254 -262.73291016 357.47436523 C-257.55771838 356.57608065 -252.30189607 356.80966118 -247.0625 356.8125 C-245.24818481 356.8115332 -245.24818481 356.8115332 -243.3972168 356.81054688 C-235.0958827 356.85965729 -227.1491625 357.31292754 -219 359 C-219.33 358.195625 -219.66 357.39125 -220 356.5625 C-221 354 -221 354 -221 353 C-222.22074219 352.81824219 -223.44148437 352.63648438 -224.69921875 352.44921875 C-226.36216356 352.196523 -228.02491069 351.94252429 -229.6875 351.6875 C-230.55729492 351.55432373 -231.42708984 351.42114746 -232.32324219 351.28393555 C-237.21014072 350.51296181 -241.9603951 349.57134484 -246.75 348.3125 C-260.43575108 345.02583297 -274.9285479 346.2926372 -287.046875 353.703125 C-297.60568713 360.71417625 -302.87296466 370.84491103 -306 383 C-309.33092709 400.23014395 -308.18805896 421.00680733 -304 438 C-303.81195801 438.8048584 -303.62391602 439.6097168 -303.43017578 440.43896484 C-297.34621846 465.94124893 -284.81731438 493.17175231 -263 509 C-259.07113211 508.72549395 -255.74065122 506.3045435 -252.4375 504.3125 C-251.46925293 503.72952148 -251.46925293 503.72952148 -250.48144531 503.13476562 C-237.60167295 495.19843642 -225.51878788 485.78842505 -214 476 C-212.91803894 475.09236424 -211.83600324 474.18481745 -210.75390625 473.27734375 C-198.84913585 463.23830898 -187.53661718 452.60760437 -176.5 441.625 C-175.85369629 440.98336914 -175.20739258 440.34173828 -174.54150391 439.68066406 C-170.72523999 435.85155077 -167.10068012 431.90389542 -163.56738281 427.8125 C-161.62602905 425.56754512 -159.62748057 423.37795289 -157.625 421.1875 C-153.78193702 416.92389983 -150.10677266 412.55447727 -146.5 408.08984375 C-144.67996428 405.84039335 -142.84781118 403.60526208 -141 401.37890625 C-133.42346443 392.21368643 -126.34766974 382.77249487 -119.47412109 373.07080078 C-118.15883808 371.22313094 -116.82886679 369.38794006 -115.48828125 367.55859375 C-97.23855408 342.57067884 -80.69465537 315.76280134 -67 288 C-67.90407593 287.5656665 -67.90407593 287.5656665 -68.82641602 287.12255859 C-78.17077118 282.29661845 -86.24488837 274.13990564 -93.83203125 266.95703125 C-96.06047717 264.85000714 -98.34547668 262.8299967 -100.67236328 260.83251953 C-105.09753994 256.96857493 -109.26314886 252.88125495 -113.41015625 248.72265625 C-114.18129257 247.95247665 -114.95242889 247.18229706 -115.74693298 246.38877869 C-117.36580153 244.77058627 -118.98342551 243.15114788 -120.59985352 241.53051758 C-123.05568718 239.06932768 -125.51681365 236.61352191 -127.97851562 234.15820312 C-129.56021653 232.57584133 -131.14160717 230.99316933 -132.72265625 229.41015625 C-133.44888687 228.68594986 -134.17511749 227.96174347 -134.9233551 227.21559143 C-138.91850305 223.20230782 -142.74682419 219.10019916 -146.4316864 214.79956055 C-148.55388399 212.36444613 -150.79324645 210.05226401 -153.03417969 207.72705078 C-179.51237014 180.11106672 -196.95875263 144.77561324 -196.25 105.8828125 C-194.07737034 72.13915805 -181.85063614 42.50256781 -156.45751953 19.609375 C-117.893493 -13.49070457 -45.53590217 -24.14319646 0 0 Z M-158 30 C-158.61488281 30.55042969 -159.22976563 31.10085937 -159.86328125 31.66796875 C-179.86180831 50.28728704 -188.73300054 78.33222779 -190.21484375 104.84375 C-191.3640947 150.81378787 -166.90989864 184.30822496 -136.76171875 216.08984375 C-133.74368525 219.2498473 -130.6698465 222.3469697 -127.55395508 225.41040039 C-125.95406174 227.04699199 -124.47249317 228.7485404 -123 230.5 C-115.28615675 239.43826281 -106.69806959 247.92711045 -97.67578125 255.5390625 C-95.91652019 257.07277727 -94.30882424 258.69672058 -92.6875 260.375 C-89.00615633 264.1147777 -84.99375579 267.37555338 -80.90625 270.66015625 C-78.95339304 272.23241609 -77.01595571 273.82400483 -75.09375 275.43359375 C-70.25278561 279.48324665 -65.62735931 283.12379413 -60 286 C-62.72848863 293.43922121 -66.16158954 300.21110425 -70.125 307.0625 C-70.70628662 308.07562256 -71.28757324 309.08874512 -71.88647461 310.13256836 C-73.05564095 312.1669017 -74.22769476 314.19957868 -75.40283203 316.23046875 C-76.74140444 318.5515885 -78.0616485 320.88115199 -79.37109375 323.21875 C-91.32697106 344.33555493 -105.45838918 364.59218371 -120 384 C-120.42893555 384.57379395 -120.85787109 385.14758789 -121.29980469 385.73876953 C-135.03022547 404.02640779 -149.7624122 421.57689285 -165.38769531 438.27001953 C-167.12965736 440.13912054 -168.85836136 442.01994204 -170.5859375 443.90234375 C-181.34344348 455.5878135 -181.34344348 455.5878135 -187.22265625 460.47265625 C-189.20353348 462.17490459 -190.99537108 463.99937196 -192.8125 465.875 C-196.66966247 469.78479432 -200.81236241 473.22173029 -205.09375 476.65625 C-208.02063212 479.01663881 -210.88438965 481.44077185 -213.75 483.875 C-224.6968965 492.99976792 -236.3617265 501.16451284 -248.31787109 508.90722656 C-249.8824693 509.92364769 -251.43587084 510.95724723 -252.98828125 511.9921875 C-253.85839844 512.55164063 -254.72851562 513.11109375 -255.625 513.6875 C-256.72714844 514.40486328 -256.72714844 514.40486328 -257.8515625 515.13671875 C-260.7243148 516.29104286 -262.08547645 516.00577883 -265 515 C-291.06944169 498.27007792 -304.00271235 465.43009519 -310.54345703 436.60498047 C-315.64911401 412.43550004 -316.7410829 383.70905096 -303.91796875 361.80859375 C-295.72860673 349.81643226 -284.49639921 344.29012346 -270.5625 341.25 C-260.23963602 340.52558849 -251.09445657 341.33420358 -240.984375 343.56347656 C-222.00423652 347.7387334 -200.32576353 350.78108232 -182.5 340.8125 C-174.5417859 335.05999934 -169.25325836 328.0522335 -167.5390625 318.40625 C-166.10102613 307.02978449 -168.80870672 298.42277457 -175.30859375 289.12890625 C-188.76179003 272.01705036 -212.12124182 266.80809161 -232.5546875 264.27734375 C-238.6970785 263.58068279 -244.82062076 263.20533763 -251 263 C-252.14855469 262.95875 -253.29710937 262.9175 -254.48046875 262.875 C-287.15481413 262.29476745 -320.26056287 268.0613592 -349 284 C-349.98484375 284.54269531 -350.9696875 285.08539063 -351.984375 285.64453125 C-380.76454545 302.73795619 -400.40225973 338.48623549 -409 370 C-414.76785126 393.89453781 -413.50348256 418.05866492 -411.75 442.375 C-411.69541626 443.19308136 -411.64083252 444.01116272 -411.58459473 444.85403442 C-409.56844428 474.4228791 -396.97890232 500.03533803 -380 524 C-379.17921028 525.17935552 -378.35889896 526.35904412 -377.5390625 527.5390625 C-366.32699674 543.56199488 -353.91511471 558.68481301 -340.6796875 573.07421875 C-339 575 -339 575 -338 577 C-338.64710938 577.21011719 -339.29421875 577.42023437 -339.9609375 577.63671875 C-344.20332396 579.53979443 -347.82330042 582.15290031 -351.625 584.8125 C-353.31865999 585.98878597 -355.01268135 587.16455176 -356.70703125 588.33984375 C-357.57666504 588.94425293 -358.44629883 589.54866211 -359.34228516 590.17138672 C-361.9650091 591.97592487 -364.60823053 593.74498583 -367.26171875 595.50390625 C-368.10847168 596.06940186 -368.95522461 596.63489746 -369.82763672 597.2175293 C-371.44006515 598.29306247 -373.05733158 599.36139084 -374.68017578 600.42114258 C-382.91324799 605.95192679 -388.49986673 612.23690973 -391 622 C-392.57640965 632.88753951 -389.12726111 642.04190779 -382.75 650.8125 C-375.204131 659.78948209 -366.39037775 664.4961315 -355 667 C-335.23586823 668.47460174 -317.50713929 665.49059715 -300.9375 654.25 C-299.2052015 653.09909394 -297.47208688 651.9494156 -295.73828125 650.80078125 C-294.362771 649.88546631 -294.362771 649.88546631 -292.95947266 648.95166016 C-287.55349725 645.38662407 -282.08580722 641.91767256 -276.625 638.4375 C-274.53347374 637.10346083 -272.44230638 635.76885875 -270.3515625 634.43359375 C-269.41086914 633.83659668 -268.47017578 633.23959961 -267.50097656 632.62451172 C-265.45565133 631.29596876 -263.49117141 629.91061565 -261.5234375 628.47265625 C-259 627 -259 627 -257.01171875 627.0390625 C-254.21469543 628.37511636 -251.52458024 629.87339625 -248.8125 631.375 C-218.129152 647.30560583 -181.92472478 653.52916124 -148.375 660.3125 C-147.32676056 660.52568878 -146.27852112 660.73887756 -145.19851685 660.95852661 C-123.22414108 665.40382098 -101.16504574 669.10038796 -78.69140625 669.203125 C-77.65463745 669.21013931 -76.61786865 669.21715363 -75.54968262 669.22438049 C-72.22057697 669.24178374 -68.89164948 669.2482334 -65.5625 669.25 C-64.42239471 669.25067474 -63.28228943 669.25134949 -62.1076355 669.25204468 C-44.53591627 669.23553324 -27.39148489 668.69686415 -10 666 C-8.29408691 665.74259033 -8.29408691 665.74259033 -6.55371094 665.47998047 C60.50853645 655.10063679 133.02313155 626.12666303 174.62109375 569.3984375 C196.73711423 538.26293468 208.90475076 489.14539471 203.18017578 451.20605469 C199.34003571 429.47075986 190.88134874 407.93548905 178 390 C177.2575 388.96617187 176.515 387.93234375 175.75 386.8671875 C165.73336438 373.26821344 154.91306362 359.39822118 142.68312073 347.68406677 C140.97056446 345.97054791 139.4038201 344.18682644 137.83178711 342.34399414 C133.90556586 337.82985436 129.73869322 333.59442218 125.50390625 329.37109375 C124.71153061 328.57776138 123.91915497 327.78442902 123.10276794 326.96705627 C121.43749717 325.30110919 119.77097971 323.63640744 118.10327148 321.97290039 C115.56965378 319.44463866 113.04141833 316.91108339 110.51367188 314.37695312 C108.88573717 312.7496793 107.25749225 311.12271575 105.62890625 309.49609375 C104.509786 308.37393715 104.509786 308.37393715 103.36805725 307.22911072 C99.26122702 303.14032108 95.06571577 299.21932784 90.66636658 295.44618225 C88.67838401 293.72088054 86.82792694 291.89321004 85 290 C82.47219387 287.43783534 79.90613786 284.98373672 77.1875 282.625 C76.54167969 282.05910156 75.89585937 281.49320312 75.23046875 280.91015625 C73.52784487 279.45204228 71.79557027 278.02847986 70.05078125 276.62109375 C69.04402344 275.77675781 68.03726562 274.93242187 67 274.0625 C66.05125 273.29035156 65.1025 272.51820313 64.125 271.72265625 C61.33464046 268.14750809 61.58765164 265.32822944 62 261 C62.6239424 257.56492022 63.48775989 254.21037934 64.37890625 250.8359375 C64.89044529 248.82529448 65.40157755 246.81454794 65.91235352 244.80371094 C66.31685226 243.2311554 66.31685226 243.2311554 66.72952271 241.62683105 C81.4267697 184.25076031 96.91566822 118.44761907 67.453125 63.09375 C59.99637542 50.54278536 49.64767849 39.69006541 38 31 C36.56720703 29.88044922 36.56720703 29.88044922 35.10546875 28.73828125 C25.19454779 21.08751789 14.57222836 14.82063869 3.6875 8.6875 C2.94677246 8.26670166 2.20604492 7.84590332 1.44287109 7.41235352 C-7.24798608 2.57858708 -15.62080983 0.2606549 -25.375 -1.625 C-26.98375 -1.94984375 -26.98375 -1.94984375 -28.625 -2.28125 C-74.796977 -11.38083671 -123.2364884 -2.72915808 -158 30 Z " fill="#000000" transform="translate(424,31)"/>
<path d="M0 0 C6.53756838 2.2703192 11.62163642 6.780752 17 11 C17.91394531 11.71671875 18.82789063 12.4334375 19.76953125 13.171875 C42.31321395 31.25963213 61.72979782 52.16733976 75 78 C75.56460937 79.08796875 76.12921875 80.1759375 76.7109375 81.296875 C87.3881261 103.08484362 91.4375038 129.55745865 83.72753906 152.97460938 C72.14214858 185.22709242 47.06555922 207.80956745 16.875 222.625 C-0.67775278 230.663263 -18.99133845 235.00758101 -38 238 C-38.83225098 238.13277344 -39.66450195 238.26554688 -40.52197266 238.40234375 C-91.31931053 246.04717667 -147.09860545 237.05579958 -195 220 C-195 218 -195 218 -193.671875 216.66015625 C-193.03765625 216.13292969 -192.4034375 215.60570312 -191.75 215.0625 C-188.09029543 211.95434665 -184.52578988 208.7584978 -181 205.5 C-177.73523548 202.48364148 -174.44872073 199.50941806 -171.09375 196.59375 C-167.14398073 193.14988097 -163.30987373 189.59732644 -159.5 186 C-158.09776653 184.67957037 -156.69541949 183.35926135 -155.29296875 182.0390625 C-154.58317871 181.37036133 -153.87338867 180.70166016 -153.14208984 180.01269531 C-151.05494599 178.05162694 -148.9605978 176.09861769 -146.86328125 174.1484375 C-139.95022323 167.7130572 -133.10841895 161.23489399 -126.51098633 154.47412109 C-123.93494123 151.85248612 -121.30344466 149.37843438 -118.50390625 146.99609375 C-112.66229299 141.94039756 -107.26860875 136.41750682 -101.81811523 130.94848633 C-99.94170525 129.06671726 -98.06001031 127.19035262 -96.17773438 125.31445312 C-90.77184559 119.91125014 -85.43030074 114.5185377 -80.47485352 108.69311523 C-77.96595801 105.81293144 -75.23031588 103.16813221 -72.5 100.5 C-68.43673196 96.48218625 -64.49683365 92.43748222 -60.796875 88.078125 C-58.93011802 85.91917997 -57.00111108 83.82459507 -55.05932617 81.7331543 C-50.29398507 76.59794162 -45.75231864 71.35157703 -41.36328125 65.88671875 C-39.68105845 63.83190445 -37.98445852 61.82309545 -36.23046875 59.83203125 C-21.33260608 42.9051133 -4.20782467 22.73843716 0 0 Z M4 10 C3.29037109 11.48886719 3.29037109 11.48886719 2.56640625 13.0078125 C-6.58924258 31.9362131 -18.57184852 47.8817347 -32 64 C-32.42394043 64.51030762 -32.84788086 65.02061523 -33.28466797 65.54638672 C-39.1484794 72.59281559 -45.1684989 79.45902237 -51.3984375 86.18359375 C-53.70822338 88.68412772 -55.98484478 91.20912364 -58.25 93.75 C-72.25733283 109.29403621 -86.95800748 124.11631966 -101.76342773 138.89379883 C-104.84507994 141.96970341 -107.92214846 145.05014855 -110.99795437 148.13189793 C-113.39921231 150.53678541 -115.80286629 152.93926677 -118.20723152 155.34104729 C-119.34291718 156.47607295 -120.47788025 157.61182215 -121.61205864 158.74835396 C-127.06757132 164.2127229 -132.52099166 169.62990427 -138.41175842 174.63194275 C-140.7343381 176.63253385 -142.86257284 178.80480453 -145 181 C-148.48605742 184.58027518 -152.12666569 187.88295031 -155.89892578 191.15283203 C-159.32391531 194.16392555 -162.62605816 197.30270612 -165.9375 200.4375 C-171.05984072 205.27546497 -176.2113796 210.03312492 -181.59375 214.58203125 C-183.23472222 215.903838 -183.23472222 215.903838 -183 218 C-163.82332406 223.4387972 -144.75703246 228.12827359 -125 231 C-123.87400391 231.16371094 -122.74800781 231.32742188 -121.58789062 231.49609375 C-92.16778712 235.5667999 -61.31675731 236.04561402 -32 231 C-30.74316406 230.79117188 -30.74316406 230.79117188 -29.4609375 230.578125 C-10.69367046 227.36087922 7.41159471 221.38389071 24 212 C24.66870117 211.62504395 25.33740234 211.25008789 26.02636719 210.86376953 C36.21346276 205.06499844 44.78871592 198.34657424 53 190 C53.89460937 189.10410156 54.78921875 188.20820312 55.7109375 187.28515625 C71.47579692 170.7684343 81.66718703 149.85615305 81.4375 126.75 C81.42505249 125.11321289 81.42505249 125.11321289 81.41235352 123.44335938 C80.8845416 98.03325386 68.633067 74.49655819 53 55 C52.20207031 53.99710937 51.40414062 52.99421875 50.58203125 51.9609375 C38.96041334 37.65103702 25.76995214 24.99931621 11 14 C9.63101563 12.86498047 9.63101563 12.86498047 8.234375 11.70703125 C6.20376039 9.79763697 6.20376039 9.79763697 4 10 Z " fill="#000000" transform="translate(441,381)"/>
<path d="M0 0 C0.83273437 0.70898438 1.66546875 1.41796875 2.5234375 2.1484375 C24.68261664 21.51150571 40.57018848 46.81194256 49 75 C49.37640625 76.25039062 49.7528125 77.50078125 50.140625 78.7890625 C62.69854071 123.3040622 58.69148994 171.53047389 44 215 C43.01 215 42.02 215 41 215 C42.2599442 209.15844054 43.6592318 203.37304393 45.1574707 197.58837891 C48.02328951 186.47133405 50.52442659 175.39169749 52 164 C52.0942627 163.31236572 52.18852539 162.62473145 52.28564453 161.91625977 C53.32804969 153.21059168 53.24373832 144.44260456 53.25 135.6875 C53.25067474 134.83996155 53.25134949 133.9924231 53.25204468 133.11920166 C53.23570887 120.19437536 52.75125936 107.67335429 50 95 C49.82307617 94.1642041 49.64615234 93.3284082 49.46386719 92.46728516 C43.43284144 64.69227626 31.6803967 39.54429027 13 18 C12.28070313 17.14664063 11.56140625 16.29328125 10.8203125 15.4140625 C5.42317106 9.17181706 -0.48334604 4.04169113 -7 -1 C-8.30130859 -2.05960938 -8.30130859 -2.05960938 -9.62890625 -3.140625 C-28.7236583 -18.24259106 -53.65695556 -31.74482545 -78 -35 C-79.27359375 -35.19980469 -80.5471875 -35.39960937 -81.859375 -35.60546875 C-131.75806423 -42.78055815 -190.30783648 -31.76321432 -231.20825195 -1.21533203 C-233.84698672 0.80768508 -236.42480657 2.89646633 -239 5 C-239.79921875 5.63292969 -240.5984375 6.26585937 -241.421875 6.91796875 C-259.35644576 21.8316455 -271.5557162 44.83980597 -274 68 C-274.83655745 83.43962179 -274.04796775 98.06242887 -270 113 C-269.71044434 114.08958008 -269.71044434 114.08958008 -269.41503906 115.20117188 C-261.43247368 144.16910209 -245.41847634 172.01592656 -224 193 C-222.82422019 194.17317708 -221.64973814 195.34765625 -220.4765625 196.5234375 C-218.78743093 198.21448282 -217.09674159 199.90361995 -215.39770508 201.5847168 C-212.69459499 204.26457075 -210.08195905 206.96791105 -207.625 209.875 C-203.57638935 214.65602263 -199.0619646 218.98787141 -194.59228516 223.37060547 C-191.44530419 226.47493775 -188.41679144 229.61864293 -185.53125 232.96875 C-181.88933509 237.1923881 -177.97965701 241.09658163 -174 245 C-169.32130292 249.58906687 -164.83585101 254.2482366 -160.55810547 259.21484375 C-158.64762137 261.40372806 -156.63462166 263.46423135 -154.5625 265.5 C-153.88316406 266.1703125 -153.20382812 266.840625 -152.50390625 267.53125 C-151.75947266 268.25828125 -151.75947266 268.25828125 -151 269 C-150.34 267.35 -149.68 265.7 -149 264 C-148.34 264 -147.68 264 -147 264 C-147 267.96 -147 271.92 -147 276 C-150.63 276 -154.26 276 -158 276 C-158.495 274.515 -158.495 274.515 -159 273 C-157.02 273 -155.04 273 -153 273 C-157.76228921 267.40431018 -162.75571616 262.14381863 -168 257 C-172.60802955 252.48024688 -177.01017797 247.89067773 -181.22265625 243 C-184.32386585 239.51028722 -187.66834132 236.2678338 -191 233 C-195.61825953 228.47021287 -200.0319728 223.87040516 -204.25390625 218.96875 C-207.18628367 215.66244526 -210.34583385 212.59281047 -213.5 209.5 C-217.9016979 205.14527632 -222.19260011 200.79760293 -226.15625 196.03515625 C-228.13744617 193.84828505 -230.28287923 191.88889933 -232.44946289 189.88867188 C-241.67978599 181.20573935 -247.79463092 170.96510059 -254 160 C-254.69851074 158.78038574 -254.69851074 158.78038574 -255.41113281 157.53613281 C-272.42534666 127.56693381 -284.30395461 90.91102626 -275.96484375 56.36328125 C-270.78039454 38.29117286 -262.70709212 23.75951999 -250 10 C-249.40703125 9.33742187 -248.8140625 8.67484375 -248.203125 7.9921875 C-220.06650196 -21.95520831 -174.67265347 -35.66474181 -135 -40 C-134.05769531 -40.11085937 -133.11539063 -40.22171875 -132.14453125 -40.3359375 C-82.90595848 -45.14921938 -37.68154956 -32.34610892 0 0 Z " fill="#000000" transform="translate(477,41)"/>
<path d="M0 0 C12.83086111 4.48212122 20.58106346 12.80321902 26.4375 24.6875 C39.67456254 54.59217269 33.26586284 91.08407774 25.25 121.5 C19.96019696 119.99007538 16.72729291 116.53555591 12.875 112.8125 C12.17673096 112.14549072 11.47846191 111.47848145 10.7590332 110.79125977 C8.58110305 108.70255489 6.41523411 106.60185422 4.25 104.5 C3.57984863 103.85708008 2.90969727 103.21416016 2.21923828 102.55175781 C-17.3299384 83.77483432 -39.25151078 58.87258589 -40.125 30.375 C-39.79932893 19.96709531 -36.33624428 11.03969225 -28.875 3.640625 C-20.63809776 -3.56666446 -10.22025659 -2.78511194 0 0 Z M-30.125 14.5 C-34.93878778 23.38699282 -34.98795812 32.71937757 -32.36450195 42.34106445 C-27.24128398 59.29836637 -16.77636305 73.27760086 -4.875 86.19140625 C-2.91362106 88.32224256 -1.01305255 90.49179604 0.875 92.6875 C9.99370584 103.40456348 9.99370584 103.40456348 21.25 111.5 C29.35968669 83.88394626 32.1551427 50.07801343 19.25 23.5 C13.65439861 14.09132952 5.80667266 8.11503302 -4.62890625 4.92578125 C-16.76304708 2.49001449 -22.70360188 5.12560238 -30.125 14.5 Z " fill="#000000" transform="translate(375.75,105.5)"/>
<path d="M0 0 C3.51884042 1.43534782 5.0526708 3.07984499 7.13671875 6.2265625 C7.70938477 7.08507812 8.28205078 7.94359375 8.87207031 8.828125 C9.77070801 10.21257812 9.77070801 10.21257812 10.6875 11.625 C11.31108398 12.57632812 11.93466797 13.52765625 12.57714844 14.5078125 C28.04499601 38.32173612 41.00785684 63.83537142 46 92 C46.226875 93.27875 46.45375 94.5575 46.6875 95.875 C48.69181979 115.87555284 45.53290572 135.34004426 33.015625 151.54296875 C32.35046875 152.35378906 31.6853125 153.16460938 31 154 C30.47921875 154.63550781 29.9584375 155.27101563 29.421875 155.92578125 C9.06371127 178.28891565 -27.37891806 184.47738041 -56 186 C-63.1856602 186.22484109 -70.37389507 186.24370044 -77.5625 186.25 C-78.57023468 186.25167175 -79.57796936 186.25334351 -80.61624146 186.25506592 C-103.49096107 186.25732575 -126.036508 184.65504873 -148.67993164 181.38037109 C-151.82242823 181.02034391 -154.84060912 180.93093243 -158 181 C-157.01 183.475 -157.01 183.475 -156 186 C-157.75 185.875 -157.75 185.875 -160 185 C-163.92808219 180.22260274 -163.92808219 180.22260274 -164.125 176.875 C-162.35902266 173.93170444 -159.95055366 172.65231005 -157 171 C-156.01 171 -155.02 171 -154 171 C-155.75 174.875 -155.75 174.875 -158 176 C-154.16815689 176.54166177 -150.33510967 177.07391016 -146.50097656 177.59912109 C-144.59118041 177.86242876 -142.6822821 178.13222423 -140.7734375 178.40234375 C-120.40590028 181.17973519 -100.11318404 182.38605436 -79.5625 182.3125 C-78.4959317 182.31067719 -77.4293634 182.30885437 -76.33047485 182.30697632 C-39.90282617 182.20237847 0.40335636 178.6491194 28 152 C40.65672387 137.30709387 44.36963449 118.89844288 43 100 C39.94709595 65.9666235 22.21218513 33.59580265 2.13818359 6.68139648 C0.90427094 4.85858301 -0.05629358 2.98633668 -1 1 C-0.67 0.67 -0.34 0.34 0 0 Z " fill="#000000" transform="translate(453,408)"/>
<path d="M0 0 C3 6.5 3 6.5 3 11 C2.01 11 1.02 11 0 11 C-0.99 9.02 -0.99 9.02 -2 7 C-2.30067383 7.60247559 -2.60134766 8.20495117 -2.91113281 8.82568359 C-9.79052943 22.5246786 -17.09334711 35.52086846 -26 48 C-26.55977539 48.78890625 -27.11955078 49.5778125 -27.69628906 50.390625 C-34.8997869 60.49402342 -42.45934982 70.12778409 -50.65234375 79.44189453 C-52.76914222 81.88925102 -54.78630712 84.41502677 -56.8125 86.9375 C-59.77368184 90.58695654 -62.83241166 93.96619756 -66.22044373 97.21949768 C-67.98777149 98.98776499 -69.61097483 100.822031 -71.23461914 102.72241211 C-74.86935438 106.9032103 -78.69896726 110.84379789 -82.62109375 114.75390625 C-83.32468521 115.45845444 -84.02827667 116.16300262 -84.75318909 116.88890076 C-86.23014648 118.36653367 -87.70834742 119.84292457 -89.18774414 121.31811523 C-91.43165085 123.55666481 -93.67016704 125.80050473 -95.90820312 128.04492188 C-97.35384618 129.48990404 -98.79979945 130.93457592 -100.24609375 132.37890625 C-100.9046788 133.03951553 -101.56326385 133.70012482 -102.24180603 134.38075256 C-106.10508466 138.22492856 -110.07445002 141.89014609 -114.20635986 145.44447327 C-116.97743194 147.84767367 -119.63762089 150.36600814 -122.3125 152.875 C-127.1064914 157.33504356 -132.02510996 161.56309553 -137.1328125 165.6640625 C-140.41577774 168.3387399 -143.61278519 171.10191383 -146.8125 173.875 C-153.69337249 179.82012719 -160.79291662 185.45682109 -168 191 C-169.09441406 191.92619141 -169.09441406 191.92619141 -170.2109375 192.87109375 C-170.80132812 193.24363281 -171.39171875 193.61617187 -172 194 C-172.99 193.67 -173.98 193.34 -175 193 C-175 192.34 -175 191.68 -175 191 C-173.2808104 189.58084349 -171.4962319 188.24061434 -169.6875 186.9375 C-168.57411845 186.1230073 -167.46216838 185.30655468 -166.3515625 184.48828125 C-165.78727539 184.07271973 -165.22298828 183.6571582 -164.64160156 183.22900391 C-156.36138054 177.02992112 -148.5642194 170.14305935 -140.69140625 163.43701172 C-139.00707393 162.00600998 -137.3165372 160.58262965 -135.625 159.16015625 C-127.77995373 152.5347039 -120.24464179 145.63003625 -112.7890625 138.5703125 C-110.55533662 136.45654803 -108.31093177 134.36013985 -106.0234375 132.3046875 C-99.3790048 126.33405643 -93.01299406 120.11906576 -86.6875 113.8125 C-85.83897461 112.96856689 -84.99044922 112.12463379 -84.11621094 111.25512695 C-79.77716707 106.9054021 -75.5886856 102.48887625 -71.58422852 97.8293457 C-69.17282338 95.04483981 -66.64439169 92.3738904 -64.125 89.6875 C-58.82679549 83.98516719 -53.85831486 78.08310012 -49 72 C-48.091057 70.89353347 -47.1808344 69.78811724 -46.26953125 68.68359375 C-30.18294912 49.07284756 -16.09531699 27.84011595 -5 5 C-6.98 5.33 -8.96 5.66 -11 6 C-11 5.01 -11 4.02 -11 3 C-9.73160474 2.49384702 -8.46016898 1.99530901 -7.1875 1.5 C-6.12595703 1.08234375 -6.12595703 1.08234375 -5.04296875 0.65625 C-3 0 -3 0 0 0 Z " fill="#000000" transform="translate(331,335)"/>
<path d="M0 0 C5.445 0.495 5.445 0.495 11 1 C12.24142712 5.96570849 11.37261666 8.15547062 10 13 C9.01 13 8.02 13 7 13 C7.33 11.02 7.66 9.04 8 7 C4.39531392 9.24916861 0.79136604 11.49951771 -2.8125 13.75 C-4.4353894 14.76259888 -4.4353894 14.76259888 -6.09106445 15.7956543 C-11.28998224 19.04273387 -16.48223585 22.29872297 -21.6484375 25.59765625 C-22.50332764 26.14260742 -23.35821777 26.68755859 -24.23901367 27.24902344 C-25.83519669 28.26826325 -27.42922307 29.29089081 -29.02075195 30.31738281 C-32.59174512 32.59532668 -35.96333152 34.62259636 -40 36 C-39.64979179 33.30026601 -39.2804729 32.23717943 -37.16845703 30.45117188 C-36.37294434 29.96197266 -35.57743164 29.47277344 -34.7578125 28.96875 C-33.86489502 28.4109082 -32.97197754 27.85306641 -32.05200195 27.27832031 C-30.60313599 26.39805176 -30.60313599 26.39805176 -29.125 25.5 C-28.14297607 24.88995117 -27.16095215 24.27990234 -26.14916992 23.65136719 C-24.11218314 22.38609289 -22.07234253 21.12540236 -20.02978516 19.86914062 C-15.43354807 17.0336216 -10.87426137 14.14051494 -6.3125 11.25 C-4.12047711 9.86837211 -1.92823806 8.48708988 0.2644043 7.10644531 C1.85629124 6.09161458 3.42921212 5.04719192 5 4 C2.525 3.01 2.525 3.01 0 2 C0 1.34 0 0.68 0 0 Z " fill="#000000" transform="translate(41,607)"/>
<path d="M0 0 C2.64 0 5.28 0 8 0 C8 0.66 8 1.32 8 2 C6.02 2 4.04 2 2 2 C2 2.99 2 3.98 2 5 C4.97 5.495 4.97 5.495 8 6 C8.33 8.31 8.66 10.62 9 13 C7.3125 14.5625 7.3125 14.5625 5 16 C2.25 15.6875 2.25 15.6875 0 15 C-0.33 13.68 -0.66 12.36 -1 11 C1.97 11.495 1.97 11.495 5 12 C5.33 10.68 5.66 9.36 6 8 C3.69 8 1.38 8 -1 8 C-0.67 5.36 -0.34 2.72 0 0 Z " fill="#000000" transform="translate(149,427)"/>
<path d="M0 0 C3.0625 0.1875 3.0625 0.1875 5.0625 2.1875 C4.90004442 5.92397845 4.47466356 7.71288742 2 10.5625 C1.360625 11.09875 0.72125 11.635 0.0625 12.1875 C1.7125 12.5175 3.3625 12.8475 5.0625 13.1875 C5.0625 13.8475 5.0625 14.5075 5.0625 15.1875 C1.7625 15.1875 -1.5375 15.1875 -4.9375 15.1875 C-2.9375 11.1875 -2.9375 11.1875 -0.8125 8.625 C1.36735538 6.30372611 1.36735538 6.30372611 1.0625 3.1875 C0.4025 3.1875 -0.2575 3.1875 -0.9375 3.1875 C-1.2675 3.8475 -1.5975 4.5075 -1.9375 5.1875 C-2.9275 5.1875 -3.9175 5.1875 -4.9375 5.1875 C-3.82120474 0.24390669 -3.82120474 0.24390669 0 0 Z " fill="#000000" transform="translate(240.9375,431.8125)"/>
<path d="M0 0 C-4.75 4.875 -4.75 4.875 -7 6 C-7.65555119 8.52733235 -7.65555119 8.52733235 -8 11 C-10.64 9.68 -13.28 8.36 -16 7 C-16 5.68 -16 4.36 -16 3 C-14.02 3.99 -12.04 4.98 -10 6 C-9.773125 5.401875 -9.54625 4.80375 -9.3125 4.1875 C-6.97261664 0.2876944 -4.37899641 -1.45966547 0 0 Z " fill="#000000" transform="translate(172,602)"/>
<path d="M0 0 C0.99 0.33 1.98 0.66 3 1 C2 4 1 7 0 10 C0.66 10.45375 1.32 10.9075 2 11.375 C2.66 11.91125 3.32 12.4475 4 13 C4 13.66 4 14.32 4 15 C0.51375944 14.3543999 -2.12498789 13.07639763 -5 11 C-5 10.01 -5 9.02 -5 8 C-4.34 8 -3.68 8 -3 8 C-2.690625 7.05125 -2.38125 6.1025 -2.0625 5.125 C-1 2 -1 2 0 0 Z " fill="#000000" transform="translate(417,291)"/>
<path d="M0 0 C0 4.95 0 9.9 0 15 C-0.99 15 -1.98 15 -3 15 C-3 11.37 -3 7.74 -3 4 C-3.99 4.33 -4.98 4.66 -6 5 C-5.625 3.0625 -5.625 3.0625 -5 1 C-3 0 -3 0 0 0 Z " fill="#000000" transform="translate(14,608)"/>
<path d="M0 0 C0 4.95 0 9.9 0 15 C-0.99 15 -1.98 15 -3 15 C-3 11.37 -3 7.74 -3 4 C-3.99 4.33 -4.98 4.66 -6 5 C-5.625 3.0625 -5.625 3.0625 -5 1 C-3 0 -3 0 0 0 Z " fill="#000000" transform="translate(228,432)"/>
<path d="M0 0 C0 4.95 0 9.9 0 15 C-0.99 15 -1.98 15 -3 15 C-3 11.37 -3 7.74 -3 4 C-3.99 4.33 -4.98 4.66 -6 5 C-5.625 3.0625 -5.625 3.0625 -5 1 C-3 0 -3 0 0 0 Z " fill="#000000" transform="translate(140,427)"/>
<path d="M0 0 C0 4.95 0 9.9 0 15 C-0.66 15 -1.32 15 -2 15 C-2.33 11.37 -2.66 7.74 -3 4 C-3.99 4.33 -4.98 4.66 -6 5 C-6 4.01 -6 3.02 -6 2 C-3 0 -3 0 0 0 Z " fill="#000000" transform="translate(26,608)"/>
<path d="M0 0 C3.59905908 0.55550695 4.99909799 1.74887248 7.25 4.5625 C7.77078125 5.20316406 8.2915625 5.84382813 8.828125 6.50390625 C9.21484375 6.99761719 9.6015625 7.49132812 10 8 C8.234375 8.71484375 8.234375 8.71484375 6 9 C4.078125 7.56640625 4.078125 7.56640625 2.25 5.5625 C1.63640625 4.90378906 1.0228125 4.24507813 0.390625 3.56640625 C-0.06828125 3.04949219 -0.5271875 2.53257812 -1 2 C-0.67 1.34 -0.34 0.68 0 0 Z " fill="#000000" transform="translate(528,395)"/>
<path d="M0 0 C3.21043882 1.38188453 5.04936365 2.92421903 7.25 5.625 C7.77078125 6.25664062 8.2915625 6.88828125 8.828125 7.5390625 C9.40820312 8.26222656 9.40820312 8.26222656 10 9 C5.63204596 9 5.25341007 8.77237852 2.25 6 C1.63640625 5.443125 1.0228125 4.88625 0.390625 4.3125 C-0.06828125 3.879375 -0.5271875 3.44625 -1 3 C-0.67 2.01 -0.34 1.02 0 0 Z " fill="#000000" transform="translate(496,363)"/>
<path d="M0 0 C3.36295835 1.44126786 5.62927102 3.20592655 8 6 C8 6.99 8 7.98 8 9 C3.75177626 8.52797514 1.80010291 6.03344482 -1 3 C-0.67 2.01 -0.34 1.02 0 0 Z " fill="#000000" transform="translate(319,232)"/>
<path d="M0 0 C-1.31224548 3.93673644 -2.91910327 6.22719294 -6 9 C-6.99 8.67 -7.98 8.34 -9 8 C-7.13554727 3.64961029 -5.02378599 0 0 0 Z " fill="#000000" transform="translate(556,591)"/>
<path d="M0 0 C0.66 0.33 1.32 0.66 2 1 C0.56036361 4.35915158 -1.12416589 6.71624938 -4 9 C-6.25 8.75 -6.25 8.75 -8 8 C-3.375 2.25 -3.375 2.25 0 0 Z " fill="#000000" transform="translate(249,536)"/>
<path d="M0 0 C1.32176485 0.90325616 2.63215066 1.82317903 3.9375 2.75 C4.66839844 3.26046875 5.39929688 3.7709375 6.15234375 4.296875 C8.20805399 6.19177915 8.62669176 7.27425729 9 10 C4.56541027 8.6062718 2.12621626 6.39417765 -1 3 C-0.67 2.01 -0.34 1.02 0 0 Z " fill="#000000" transform="translate(479,348)"/>
<path d="M0 0 C4.17882671 2.56428003 7.12505529 5.01930733 10 9 C5.63204596 9 5.25341007 8.77237852 2.25 6 C1.63640625 5.443125 1.0228125 4.88625 0.390625 4.3125 C-0.06828125 3.879375 -0.5271875 3.44625 -1 3 C-0.67 2.01 -0.34 1.02 0 0 Z " fill="#000000" transform="translate(461,333)"/>
<path d="M0 0 C0.99 0.33 1.98 0.66 3 1 C1.88333826 4.34998521 1.25305075 4.79340222 -1.5625 6.6875 C-2.20316406 7.12449219 -2.84382812 7.56148437 -3.50390625 8.01171875 C-3.99761719 8.33785156 -4.49132812 8.66398438 -5 9 C-5.66 8.67 -6.32 8.34 -7 8 C-5.51218185 4.21282653 -3.38011591 2.22592999 0 0 Z " fill="#000000" transform="translate(539,604)"/>
<path d="M0 0 C4.2742558 1.5830577 6.26531794 4.50568404 9 8 C3.69520066 8 2.81017373 6.4637943 -1 3 C-0.67 2.01 -0.34 1.02 0 0 Z " fill="#000000" transform="translate(108,570)"/>
<path d="M0 0 C0 0.99 0 1.98 0 3 C-1.42578125 4.421875 -1.42578125 4.421875 -3.3125 5.75 C-3.92738281 6.19859375 -4.54226562 6.6471875 -5.17578125 7.109375 C-7 8 -7 8 -10 7 C-10 6.34 -10 5.68 -10 5 C-8.57421875 3.7109375 -8.57421875 3.7109375 -6.6875 2.375 C-6.07261719 1.92898438 -5.45773438 1.48296875 -4.82421875 1.0234375 C-3 0 -3 0 0 0 Z " fill="#000000" transform="translate(188,589)"/>
<path d="M0 0 C3.79598549 1.49128001 5.71720399 3.65733441 8 7 C8 7.99 8 8.98 8 10 C7.01 10 6.02 10 5 10 C2.9375 7.1875 2.9375 7.1875 1 4 C0.34 3.01 -0.32 2.02 -1 1 C-0.67 0.67 -0.34 0.34 0 0 Z " fill="#000000" transform="translate(560,426)"/>
<path d="M0 0 C-1.10789408 3.32368224 -1.48436217 3.61563093 -4.375 5.25 C-5.28378906 5.78367187 -5.28378906 5.78367187 -6.2109375 6.328125 C-8 7 -8 7 -11 6 C-11 5.34 -11 4.68 -11 4 C-4.5 0 -4.5 0 0 0 Z " fill="#000000" transform="translate(128,330)"/>
<path d="M0 0 C0.66 0 1.32 0 2 0 C2.69965443 1.26418246 3.38434763 2.53665402 4.0625 3.8125 C4.63677734 4.87404297 4.63677734 4.87404297 5.22265625 5.95703125 C6 8 6 8 5 11 C4.34 11 3.68 11 3 11 C2.30034557 9.73581754 1.61565237 8.46334598 0.9375 7.1875 C0.55464844 6.47980469 0.17179687 5.77210937 -0.22265625 5.04296875 C-1 3 -1 3 0 0 Z " fill="#000000" transform="translate(451,107)"/>
<path d="M0 0 C0.99 0.33 1.98 0.66 3 1 C1.8905928 4.48670834 0.73662334 7.77484237 -1 11 C-1.99 11 -2.98 11 -4 11 C-3.39301257 6.87248551 -1.96189209 3.6678852 0 0 Z " fill="#000000" transform="translate(278,106)"/>
<path d="M0 0 C0.99 0.33 1.98 0.66 3 1 C0 5.5 0 5.5 -3 10 C-3.99 9.67 -4.98 9.34 -6 9 C-4.47291037 5.56404834 -2.40072955 2.88087546 0 0 Z " fill="#000000" transform="translate(290,90)"/>
<path d="M0 0 C0.66 0.99 1.32 1.98 2 3 C0.73760288 3.86658615 -0.53527501 4.71792059 -1.8125 5.5625 C-2.87404297 6.27599609 -2.87404297 6.27599609 -3.95703125 7.00390625 C-6 8 -6 8 -9 7 C-9 6.34 -9 5.68 -9 5 C-6.03 3.35 -3.06 1.7 0 0 Z " fill="#000000" transform="translate(323,65)"/>
<path d="M0 0 C0.99 0.33 1.98 0.66 3 1 C3 1.66 3 2.32 3 3 C-3.4 7.06153846 -3.4 7.06153846 -6.4375 6.75 C-6.953125 6.5025 -7.46875 6.255 -8 6 C-5.63055987 3.38114512 -3.16266898 1.58133449 0 0 Z " fill="#000000" transform="translate(100,644)"/>
<path d="M0 0 C-2.25740623 2.33524782 -4.2805761 4.18705073 -7 6 C-8.32 6 -9.64 6 -11 6 C-9.89210592 2.67631776 -9.51563783 2.38436907 -6.625 0.75 C-6.01914063 0.39421875 -5.41328125 0.0384375 -4.7890625 -0.328125 C-3 -1 -3 -1 0 0 Z " fill="#000000" transform="translate(121,635)"/>
<path d="M0 0 C0.66 0.33 1.32 0.66 2 1 C0.52440331 5.42679007 -1.90057368 5.91432696 -6 8 C-6.66 8 -7.32 8 -8 8 C-7.9375 6.25 -7.9375 6.25 -7 4 C-4.74876994 2.27481113 -2.59865097 1.23093993 0 0 Z " fill="#000000" transform="translate(136,623)"/>
<path d="M0 0 C3.91211733 1.15585285 6.8745041 2.35534962 10 5 C9.67 5.66 9.34 6.32 9 7 C5.51329166 5.8905928 2.22515763 4.73662334 -1 3 C-0.67 2.01 -0.34 1.02 0 0 Z " fill="#000000" transform="translate(173,615)"/>
<path d="M0 0 C0.66 0.33 1.32 0.66 2 1 C0.65289578 5.04131267 -1.38428334 5.90288434 -5 8 C-5.99 8 -6.98 8 -8 8 C-8 7.01 -8 6.02 -8 5 C-6.3203125 3.578125 -6.3203125 3.578125 -4.125 2.25 C-3.40570313 1.80140625 -2.68640625 1.3528125 -1.9453125 0.890625 C-1.30335938 0.59671875 -0.66140625 0.3028125 0 0 Z " fill="#000000" transform="translate(153,612)"/>
<path d="M0 0 C3.43752007 1.5277867 6.18953688 3.50181056 9 6 C9 6.66 9 7.32 9 8 C4.59885603 7.49701212 2.28804981 5.91227269 -1 3 C-0.67 2.01 -0.34 1.02 0 0 Z " fill="#000000" transform="translate(123,583)"/>
<path d="M0 0 C0.66 0.33 1.32 0.66 2 1 C0.51218185 4.78717347 -1.61988409 6.77407001 -5 9 C-5.99 8.67 -6.98 8.34 -8 8 C-5.58443874 4.80800833 -3.31996462 2.25283313 0 0 Z " fill="#000000" transform="translate(218,563)"/>
<path d="M0 0 C3.36295835 1.44126786 5.62927102 3.20592655 8 6 C8 6.99 8 7.98 8 9 C4.86493389 8.66410006 3.974751 7.97334828 1.75 5.625 C0 3 0 3 0 0 Z " fill="#000000" transform="translate(94,556)"/>
<path d="M0 0 C0.99 0.33 1.98 0.66 3 1 C3 3 3 3 1.57421875 4.54296875 C0.95160156 5.08566406 0.32898438 5.62835937 -0.3125 6.1875 C-0.92738281 6.73792969 -1.54226562 7.28835938 -2.17578125 7.85546875 C-2.77777344 8.23316406 -3.37976563 8.61085938 -4 9 C-4.99 8.67 -5.98 8.34 -7 8 C-7 6 -7 6 -5.57421875 4.45703125 C-4.95160156 3.91433594 -4.32898438 3.37164063 -3.6875 2.8125 C-3.07261719 2.26207031 -2.45773438 1.71164062 -1.82421875 1.14453125 C-1.22222656 0.76683594 -0.62023437 0.38914062 0 0 Z " fill="#000000" transform="translate(233,550)"/>
<path d="M0 0 C0.99 0 1.98 0 3 0 C7 6.625 7 6.625 7 10 C6.01 10 5.02 10 4 10 C0 3.375 0 3.375 0 0 Z " fill="#000000" transform="translate(71,524)"/>
<path d="M0 0 C0.99 0 1.98 0 3 0 C3.99 3.3 4.98 6.6 6 10 C5.01 10.33 4.02 10.66 3 11 C0 4.5 0 4.5 0 0 Z " fill="#000000" transform="translate(63,506)"/>
<path d="M0 0 C0.66 0 1.32 0 2 0 C3.19287411 3.87684087 4 6.91621923 4 11 C3.01 11 2.02 11 1 11 C0.63890458 9.35567294 0.28629924 7.7094792 -0.0625 6.0625 C-0.25972656 5.14597656 -0.45695312 4.22945313 -0.66015625 3.28515625 C-0.77230469 2.53105469 -0.88445313 1.77695312 -1 1 C-0.67 0.67 -0.34 0.34 0 0 Z " fill="#000000" transform="translate(58,487)"/>
<path d="M0 0 C0.99 0.33 1.98 0.66 3 1 C0.525 5.455 0.525 5.455 -2 10 C-2.99 10 -3.98 10 -5 10 C-4.38545304 6.00544473 -2.29353263 3.25533664 0 0 Z " fill="#000000" transform="translate(328,444)"/>
<path d="M0 0 C0.99 0.33 1.98 0.66 3 1 C3.94921875 3.06640625 3.94921875 3.06640625 4.6875 5.5625 C4.93886719 6.38878906 5.19023438 7.21507812 5.44921875 8.06640625 C5.63097656 8.70449219 5.81273437 9.34257812 6 10 C5.01 10.33 4.02 10.66 3 11 C1.68 7.7 0.36 4.4 -1 1 C-0.67 0.67 -0.34 0.34 0 0 Z " fill="#000000" transform="translate(571,443)"/>
<path d="M0 0 C0.99 0.33 1.98 0.66 3 1 C1.35 4.3 -0.3 7.6 -2 11 C-2.66 10.67 -3.32 10.34 -4 10 C-3.43454163 6.04179141 -2.19097652 3.3340947 0 0 Z " fill="#000000" transform="translate(70,389)"/>
<path d="M0 0 C0.99 0.33 1.98 0.66 3 1 C0.68462045 4.72114571 -1.28579473 7.61229661 -5 10 C-5 4.69520066 -3.4637943 3.81017373 0 0 Z " fill="#000000" transform="translate(93,355)"/>
<path d="M0 0 C0.99 0.33 1.98 0.66 3 1 C0.14723863 3.93200474 -2.65079784 6.64315404 -6 9 C-6 5 -6 5 -3.1875 2.1875 C-2.135625 1.465625 -1.08375 0.74375 0 0 Z " fill="#000000" transform="translate(108,341)"/>
<path d="M0 0 C0 0.99 0 1.98 0 3 C-3.63 3.66 -7.26 4.32 -11 5 C-11 4.01 -11 3.02 -11 2 C-7.17679443 0.57741188 -4.08718695 -0.24042276 0 0 Z " fill="#000000" transform="translate(147,323)"/>
<path d="M0 0 C3.43198603 1.23932829 6.30325632 2.50301511 9 5 C9 5.99 9 6.98 9 8 C4.62140745 7.49477778 2.18348776 4.82172778 -1 2 C-0.67 1.34 -0.34 0.68 0 0 Z " fill="#000000" transform="translate(444,320)"/>
<path d="M0 0 C3.78717347 1.48781815 5.77407001 3.61988409 8 7 C7.67 7.99 7.34 8.98 7 10 C5.84775972 9.07038578 4.70340824 8.1309875 3.5625 7.1875 C2.60537109 6.40439453 2.60537109 6.40439453 1.62890625 5.60546875 C0 4 0 4 -1 1 C-0.67 0.67 -0.34 0.34 0 0 Z " fill="#000000" transform="translate(305,217)"/>
<path d="M0 0 C2.96404505 2.80804268 5.44499019 5.18315774 7 9 C5.68 9 4.36 9 3 9 C0.6875 6.1875 0.6875 6.1875 -1 3 C-0.67 2.01 -0.34 1.02 0 0 Z " fill="#000000" transform="translate(293,201)"/>
<path d="M0 0 C2.3129482 2.3129482 2.49580975 3.47904875 3.125 6.625 C3.29257812 7.44226563 3.46015625 8.25953125 3.6328125 9.1015625 C3.81457031 10.04128906 3.81457031 10.04128906 4 11 C3.01 11 2.02 11 1 11 C0.01 7.7 -0.98 4.4 -2 1 C-1.34 0.67 -0.68 0.34 0 0 Z " fill="#000000" transform="translate(275,165)"/>
<path d="M0 0 C0.66 0.99 1.32 1.98 2 3 C0.90716423 4.03295436 -0.19970579 5.05107835 -1.3125 6.0625 C-1.92738281 6.63097656 -2.54226563 7.19945313 -3.17578125 7.78515625 C-3.77777344 8.18605469 -4.37976563 8.58695313 -5 9 C-5.99 8.67 -6.98 8.34 -8 8 C-6.88333826 4.65001479 -6.25305075 4.20659778 -3.4375 2.3125 C-2.79683594 1.87550781 -2.15617187 1.43851562 -1.49609375 0.98828125 C-1.00238281 0.66214844 -0.50867188 0.33601563 0 0 Z " fill="#000000" transform="translate(306,76)"/>
<path d="M0 0 C0 0.99 0 1.98 0 3 C-3.87684087 4.19287411 -6.91621923 5 -11 5 C-10 2 -10 2 -8.3125 0.8125 C-5.45030907 -0.19313465 -3.01172092 -0.13689641 0 0 Z " fill="#000000" transform="translate(343,58)"/>
<path d="M0 0 C0 0.99 0 1.98 0 3 C-2.75078884 3.91692961 -4.35948913 4.10886083 -7.1875 4.0625 C-9.0746875 4.0315625 -9.0746875 4.0315625 -11 4 C-11 3.01 -11 2.02 -11 1 C-3.375 0 -3.375 0 0 0 Z " fill="#000000" transform="translate(414,652)"/>
<path d="M0 0 C0 0.66 0 1.32 0 2 C-4.95 3.485 -4.95 3.485 -10 5 C-10 3.68 -10 2.36 -10 1 C-3.375 -1.125 -3.375 -1.125 0 0 Z " fill="#000000" transform="translate(472,641)"/>
<path d="M0 0 C0.33 1.32 0.66 2.64 1 4 C-2.72965139 6.03435531 -4.66905042 7 -9 7 C-8 4 -8 4 -6.15234375 2.83203125 C-5.42144531 2.49558594 -4.69054687 2.15914062 -3.9375 1.8125 C-3.20402344 1.46832031 -2.47054688 1.12414062 -1.71484375 0.76953125 C-1.14894531 0.51558594 -0.58304687 0.26164063 0 0 Z " fill="#000000" transform="translate(507,625)"/>
<path d="M0 0 C4.95 1.98 4.95 1.98 10 4 C9.67 4.99 9.34 5.98 9 7 C6.03 6.01 3.06 5.02 0 4 C0 2.68 0 1.36 0 0 Z " fill="#000000" transform="translate(191,623)"/>
<path d="M0 0 C0.99 0 1.98 0 3 0 C2.67 3.63 2.34 7.26 2 11 C1.01 11 0.02 11 -1 11 C-0.67 7.37 -0.34 3.74 0 0 Z " fill="#000000" transform="translate(585,520)"/>
<path d="M0 0 C-0.50522222 4.37859255 -3.17827222 6.81651224 -6 10 C-6.66 9.67 -7.32 9.34 -8 9 C-6.68994234 5.06982701 -4.75047804 0 0 0 Z " fill="#000000" transform="translate(306,477)"/>
<path d="M0 0 C0.99 0.33 1.98 0.66 3 1 C-0.625 7.75 -0.625 7.75 -4 10 C-4.66 9.34 -5.32 8.68 -6 8 C-4.02 5.36 -2.04 2.72 0 0 Z " fill="#000000" transform="translate(316,461)"/>
<path d="M0 0 C0.99 0 1.98 0 3 0 C3 3.63 3 7.26 3 11 C2.01 11 1.02 11 0 11 C0 7.37 0 3.74 0 0 Z " fill="#000000" transform="translate(53,448)"/>
<path d="M0 0 C0.66 0.33 1.32 0.66 2 1 C1.67 4.3 1.34 7.6 1 11 C0.01 11.33 -0.98 11.66 -2 12 C-2.17835515 7.45194365 -1.99785435 4.1205746 0 0 Z " fill="#000000" transform="translate(56,427)"/>
<path d="M0 0 C0.99 0.33 1.98 0.66 3 1 C0.525 5.455 0.525 5.455 -2 10 C-2.99 10 -3.98 10 -5 10 C-3.84414715 6.08788267 -2.64465038 3.1254959 0 0 Z " fill="#000000" transform="translate(339,427)"/>
<path d="M0 0 C1.15518918 0.90484792 2.29885406 1.8244206 3.4375 2.75 C4.07558594 3.26046875 4.71367188 3.7709375 5.37109375 4.296875 C7.18810554 6.19667629 7.60423197 7.43586908 8 10 C4.18315774 8.44499019 1.80804268 5.96404505 -1 3 C-0.67 2.01 -0.34 1.02 0 0 Z " fill="#000000" transform="translate(545,410)"/>
<path d="M0 0 C3.81684226 1.55500981 6.19195732 4.03595495 9 7 C8.67 7.99 8.34 8.98 8 10 C6.84481082 9.09515208 5.70114594 8.1755794 4.5625 7.25 C3.60537109 6.48429687 3.60537109 6.48429687 2.62890625 5.703125 C0.81189446 3.80332371 0.39576803 2.56413092 0 0 Z " fill="#000000" transform="translate(512,379)"/>
<path d="M0 0 C0.66 0.33 1.32 0.66 2 1 C0.6302836 4.99500618 -1.25722422 7.80009492 -4 11 C-4.66 10.67 -5.32 10.34 -6 10 C-4.6302836 6.00499382 -2.74277578 3.19990508 0 0 Z " fill="#000000" transform="translate(81,371)"/>
<path d="M0 0 C3.63 0 7.26 0 11 0 C11 0.99 11 1.98 11 3 C7.37 3 3.74 3 0 3 C0 2.01 0 1.02 0 0 Z " fill="#000000" transform="translate(156,321)"/>
<path d="M0 0 C3.43198603 1.23932829 6.30325632 2.50301511 9 5 C9 5.99 9 6.98 9 8 C5.12793601 7.42636089 2.81534937 5.65894107 0 3 C0 2.01 0 1.02 0 0 Z " fill="#000000" transform="translate(333,246)"/>
<path d="M0 0 C0.66 0 1.32 0 2 0 C6 6.625 6 6.625 6 10 C5.01 10 4.02 10 3 10 C-0.22265625 4.82421875 -0.22265625 4.82421875 -1 3 C-0.67 2.01 -0.34 1.02 0 0 Z " fill="#000000" transform="translate(282,184)"/>
<path d="M0 0 C0.99 0 1.98 0 3 0 C4.17571451 3.67410785 4.07366746 7.16929183 4 11 C3.01 11 2.02 11 1 11 C0.67 7.37 0.34 3.74 0 0 Z " fill="#000000" transform="translate(269,146)"/>
<path d="M0 0 C1.258125 -0.020625 2.51625 -0.04125 3.8125 -0.0625 C4.52019531 -0.07410156 5.22789062 -0.08570313 5.95703125 -0.09765625 C8 0 8 0 11 1 C11 1.99 11 2.98 11 4 C7.37 3.67 3.74 3.34 0 3 C0 2.01 0 1.02 0 0 Z " fill="#000000" transform="translate(371,56)"/>
<path d="M0 0 C3.63 0 7.26 0 11 0 C11 0.99 11 1.98 11 3 C7.7 3 4.4 3 1 3 C0.67 2.01 0.34 1.02 0 0 Z " fill="#000000" transform="translate(363,656)"/>
<path d="M0 0 C3.3 0 6.6 0 10 0 C10.33 0.99 10.66 1.98 11 3 C7.37 3 3.74 3 0 3 C0 2.01 0 1.02 0 0 Z " fill="#000000" transform="translate(344,656)"/>
<path d="M0 0 C3.3 0 6.6 0 10 0 C10.33 0.99 10.66 1.98 11 3 C7.37 3 3.74 3 0 3 C0 2.01 0 1.02 0 0 Z " fill="#000000" transform="translate(324,656)"/>
<path d="M0 0 C0.33 0.99 0.66 1.98 1 3 C-1.40545638 4.20272819 -2.94996953 4.10071472 -5.625 4.0625 C-6.85089844 4.04896484 -6.85089844 4.04896484 -8.1015625 4.03515625 C-9.04128906 4.01775391 -9.04128906 4.01775391 -10 4 C-10 3.01 -10 2.02 -10 1 C-6.7 0.67 -3.4 0.34 0 0 Z " fill="#000000" transform="translate(393,654)"/>
<path d="M0 0 C0 0.99 0 1.98 0 3 C-3.3 3.66 -6.6 4.32 -10 5 C-10.33 4.01 -10.66 3.02 -11 2 C-9.5422647 1.664061 -8.08378894 1.33133376 -6.625 1 C-5.40683594 0.7215625 -5.40683594 0.7215625 -4.1640625 0.4375 C-2 0 -2 0 0 0 Z " fill="#000000" transform="translate(433,649)"/>
<path d="M0 0 C0 0.66 0 1.32 0 2 C-3.87684087 3.19287411 -6.91621923 4 -11 4 C-11 3.01 -11 2.02 -11 1 C-9.5437328 0.63743142 -8.08488815 0.28520207 -6.625 -0.0625 C-5.40683594 -0.35833984 -5.40683594 -0.35833984 -4.1640625 -0.66015625 C-2 -1 -2 -1 0 0 Z " fill="#000000" transform="translate(453,646)"/>
<path d="M0 0 C1.64767247 0.28109113 3.29313145 0.57518526 4.9375 0.875 C5.85402344 1.03742187 6.77054688 1.19984375 7.71484375 1.3671875 C8.46894531 1.57601562 9.22304687 1.78484375 10 2 C10.33 2.66 10.66 3.32 11 4 C10.34 4.66 9.68 5.32 9 6 C6.03 5.01 3.06 4.02 0 3 C0 2.01 0 1.02 0 0 Z " fill="#000000" transform="translate(227,638)"/>
<path d="M0 0 C0 0.99 0 1.98 0 3 C-4.95 4.485 -4.95 4.485 -10 6 C-9.67 4.68 -9.34 3.36 -9 2 C-5.82254537 0.61849799 -3.46877176 0 0 0 Z " fill="#000000" transform="translate(490,634)"/>
<path d="M0 0 C3.3 0.99 6.6 1.98 10 3 C10 3.99 10 4.98 10 6 C8.53984709 5.71758359 7.08190207 5.42373386 5.625 5.125 C4.81289062 4.96257813 4.00078125 4.80015625 3.1640625 4.6328125 C1 4 1 4 -1 2 C-0.67 1.34 -0.34 0.68 0 0 Z " fill="#000000" transform="translate(209,631)"/>
<path d="M0 0 C-3.17320782 3.53586014 -5.16743695 5.58578031 -10 6 C-10 5.01 -10 4.02 -10 3 C-3.375 -1.125 -3.375 -1.125 0 0 Z " fill="#000000" transform="translate(526,617)"/>
<path d="M0 0 C3.45925163 1.2491742 6.14693203 2.67527795 9 5 C8.67 5.99 8.34 6.98 8 8 C5.03 6.35 2.06 4.7 -1 3 C-0.67 2.01 -0.34 1.02 0 0 Z " fill="#000000" transform="translate(139,595)"/>
<path d="M0 0 C0.66 0.33 1.32 0.66 2 1 C0.7508258 4.45925163 -0.67527795 7.14693203 -3 10 C-3.99 9.67 -4.98 9.34 -6 9 C-4.02 6.03 -2.04 3.06 0 0 Z " fill="#000000" transform="translate(566,575)"/>
<path d="M0 0 C-0.38520564 2.53910197 -0.70097943 3.72751123 -2.62890625 5.484375 C-3.26699219 5.90203125 -3.90507812 6.3196875 -4.5625 6.75 C-5.20316406 7.17796875 -5.84382812 7.6059375 -6.50390625 8.046875 C-7.24447266 8.51867187 -7.24447266 8.51867187 -8 9 C-8 7.68 -8 6.36 -8 5 C-2.77272727 0 -2.77272727 0 0 0 Z " fill="#000000" transform="translate(204,576)"/>
<path d="M0 0 C0.99 0.33 1.98 0.66 3 1 C2.60348083 2.31872662 2.18201309 3.62997101 1.75 4.9375 C1.40195312 6.03384766 1.40195312 6.03384766 1.046875 7.15234375 C0 9 0 9 -2.109375 9.75390625 C-3.04523437 9.87572266 -3.04523437 9.87572266 -4 10 C-2.8905928 6.51329166 -1.73662334 3.22515763 0 0 Z " fill="#000000" transform="translate(575,558)"/>
<path d="M0 0 C0.99 0.33 1.98 0.66 3 1 C2.09827532 2.17825358 1.17798498 3.34231577 0.25 4.5 C-0.51570313 5.47453125 -0.51570313 5.47453125 -1.296875 6.46875 C-3 8 -3 8 -7 8 C-6.02133662 6.85373678 -5.04205413 5.70800212 -4.0625 4.5625 C-3.51722656 3.92441406 -2.97195313 3.28632812 -2.41015625 2.62890625 C-1.63204305 1.73008851 -0.84063472 0.84063472 0 0 Z " fill="#000000" transform="translate(263,522)"/>
<path d="M0 0 C0.99 0 1.98 0 3 0 C2.52794881 4.24846075 0.11122478 6.26819288 -3 9 C-3.66 9 -4.32 9 -5 9 C-4.42636089 5.12793601 -2.65894107 2.81534937 0 0 Z " fill="#000000" transform="translate(290,493)"/>
<path d="M0 0 C0.99 0 1.98 0 3 0 C3.33 3.3 3.66 6.6 4 10 C3.01 10.33 2.02 10.66 1 11 C-0.17571451 7.32589215 -0.07366746 3.83070817 0 0 Z " fill="#000000" transform="translate(54,468)"/>
<path d="M0 0 C0.99 0.33 1.98 0.66 3 1 C1.6302836 4.99500618 -0.25722422 7.80009492 -3 11 C-3.66 10.34 -4.32 9.68 -5 9 C-3.35 6.03 -1.7 3.06 0 0 Z " fill="#000000" transform="translate(349,409)"/>
<path d="M0 0 C0.99 0 1.98 0 3 0 C2.69078116 1.45903258 2.37751201 2.91720722 2.0625 4.375 C1.88847656 5.18710937 1.71445312 5.99921875 1.53515625 6.8359375 C1 9 1 9 0 11 C-0.99 10.67 -1.98 10.34 -3 10 C-2.01 6.7 -1.02 3.4 0 0 Z " fill="#000000" transform="translate(61,408)"/>
<path d="M0 0 C0.66 0.33 1.32 0.66 2 1 C1.3543999 4.48624056 0.07639763 7.12498789 -2 10 C-2.99 10 -3.98 10 -5 10 C-3.84414715 6.08788267 -2.64465038 3.1254959 0 0 Z " fill="#000000" transform="translate(370,376)"/>
<path d="M0 0 C0.99 0 1.98 0 3 0 C2.29445932 3.66881155 0.72264494 6.70450534 -1 10 C-1.99 9.67 -2.98 9.34 -4 9 C-2.80100302 5.9168649 -1.52299523 2.93720508 0 0 Z " fill="#000000" transform="translate(379,360)"/>
<path d="M0 0 C1.45880109 0.14107747 2.91703551 0.28802415 4.375 0.4375 C5.59316406 0.55931641 5.59316406 0.55931641 6.8359375 0.68359375 C9 1 9 1 11 2 C10.67 2.99 10.34 3.98 10 5 C6.7 4.34 3.4 3.68 0 3 C0 2.01 0 1.02 0 0 Z " fill="#000000" transform="translate(177,323)"/>
<path d="M0 0 C3.45925163 1.2491742 6.14693203 2.67527795 9 5 C8.67 5.99 8.34 6.98 8 8 C5.03 6.35 2.06 4.7 -1 3 C-0.67 2.01 -0.34 1.02 0 0 Z " fill="#000000" transform="translate(428,309)"/>
<path d="M0 0 C3.93673644 1.31224548 6.22719294 2.91910327 9 6 C8.34 6.66 7.68 7.32 7 8 C4.36 6.35 1.72 4.7 -1 3 C-0.67 2.01 -0.34 1.02 0 0 Z " fill="#000000" transform="translate(381,278)"/>
<path d="M0 0 C3.45925163 1.2491742 6.14693203 2.67527795 9 5 C8.67 5.99 8.34 6.98 8 8 C5.03 6.35 2.06 4.7 -1 3 C-0.67 2.01 -0.34 1.02 0 0 Z " fill="#000000" transform="translate(349,257)"/>
<path d="M0 0 C0.66 0 1.32 0 2 0 C1.44894091 3.9492568 0.61064629 7.34920174 -1 11 C-1.99 10.67 -2.98 10.34 -4 10 C-3.52449439 8.51965236 -3.04448784 7.04074979 -2.5625 5.5625 C-2.29566406 4.73878906 -2.02882813 3.91507813 -1.75390625 3.06640625 C-1 1 -1 1 0 0 Z " fill="#000000" transform="translate(451,221)"/>
<path d="M0 0 C0.66 0 1.32 0 2 0 C1.67 3.3 1.34 6.6 1 10 C0.01 10.33 -0.98 10.66 -2 11 C-1.85957123 9.35369672 -1.71250671 7.70795821 -1.5625 6.0625 C-1.48128906 5.14597656 -1.40007812 4.22945312 -1.31640625 3.28515625 C-1 1 -1 1 0 0 Z " fill="#000000" transform="translate(463,184)"/>
<path d="M0 0 C0.99 0.66 1.98 1.32 3 2 C2.34 5.3 1.68 8.6 1 12 C0.01 11.67 -0.98 11.34 -2 11 C-1.85892253 9.54119891 -1.71197585 8.08296449 -1.5625 6.625 C-1.48128906 5.81289062 -1.40007812 5.00078125 -1.31640625 4.1640625 C-1 2 -1 2 0 0 Z " fill="#000000" transform="translate(271,125)"/>
<path d="M0 0 C3.35435922 1.38801071 5.11290303 2.88629 7 6 C7 6.99 7 7.98 7 9 C6.01 9 5.02 9 4 9 C2.61328125 7.25 2.61328125 7.25 1.3125 5 C0.87550781 4.2575 0.43851562 3.515 -0.01171875 2.75 C-0.33785156 2.1725 -0.66398437 1.595 -1 1 C-0.67 0.67 -0.34 0.34 0 0 Z " fill="#000000" transform="translate(440,91)"/>
<path d="M0 0 C3.0831351 1.19899698 6.06279492 2.47700477 9 4 C9 4.99 9 5.98 9 7 C5.33118845 6.29445932 2.29549466 4.72264494 -1 3 C-0.67 2.01 -0.34 1.02 0 0 Z " fill="#000000" transform="translate(410,66)"/>
<path d="M0 0 C3.63 0.33 7.26 0.66 11 1 C11 1.99 11 2.98 11 4 C7.37 3.67 3.74 3.34 0 3 C0 2.01 0 1.02 0 0 Z " fill="#000000" transform="translate(304,655)"/>
<path d="M0 0 C3.3 0.66 6.6 1.32 10 2 C10 2.99 10 3.98 10 5 C8.54077307 4.88590407 7.08259402 4.75834456 5.625 4.625 C4.40683594 4.52058594 4.40683594 4.52058594 3.1640625 4.4140625 C1 4 1 4 -1 2 C-0.67 1.34 -0.34 0.68 0 0 Z " fill="#000000" transform="translate(285,652)"/>
<path d="M0 0 C3.3 0.33 6.6 0.66 10 1 C10.33 1.99 10.66 2.98 11 4 C7.7 3.67 4.4 3.34 1 3 C0.67 2.01 0.34 1.02 0 0 Z " fill="#000000" transform="translate(265,649)"/>
<path d="M0 0 C7.625 0.875 7.625 0.875 11 2 C10.67 2.99 10.34 3.98 10 5 C8.51793505 4.745504 7.03931385 4.47088238 5.5625 4.1875 C4.73878906 4.03667969 3.91507813 3.88585937 3.06640625 3.73046875 C2.38449219 3.48941406 1.70257813 3.24835937 1 3 C0.67 2.01 0.34 1.02 0 0 Z " fill="#000000" transform="translate(246,644)"/>
<path d="M0 0 C3.35435922 1.38801071 5.11290303 2.88629 7 6 C7 6.99 7 7.98 7 9 C6.01 9 5.02 9 4 9 C2.61328125 7.25 2.61328125 7.25 1.3125 5 C0.87550781 4.2575 0.43851562 3.515 -0.01171875 2.75 C-0.33785156 2.1725 -0.66398437 1.595 -1 1 C-0.67 0.67 -0.34 0.34 0 0 Z " fill="#000000" transform="translate(82,541)"/>
<path d="M0 0 C0.66 0.33 1.32 0.66 2 1 C1.125 8.75 1.125 8.75 0 11 C-0.99 11 -1.98 11 -3 11 C-2.69078116 9.54096742 -2.37751201 8.08279278 -2.0625 6.625 C-1.88847656 5.81289063 -1.71445312 5.00078125 -1.53515625 4.1640625 C-1 2 -1 2 0 0 Z " fill="#000000" transform="translate(582,539)"/>
<path d="M0 0 C0.99 0.33 1.98 0.66 3 1 C2.07038578 2.15224028 1.1309875 3.29659176 0.1875 4.4375 C-0.59560547 5.39462891 -0.59560547 5.39462891 -1.39453125 6.37109375 C-3 8 -3 8 -6 9 C-5.52797514 4.75177626 -3.03344482 2.80010291 0 0 Z " fill="#000000" transform="translate(277,508)"/>
<path d="M0 0 C0.99 0 1.98 0 3 0 C3.33 3.3 3.66 6.6 4 10 C3.01 10 2.02 10 1 10 C0.67 6.7 0.34 3.4 0 0 Z " fill="#000000" transform="translate(583,481)"/>
<path d="M0 0 C0.99 0 1.98 0 3 0 C4.31626692 3.61973402 5 6.09567131 5 10 C4.01 10 3.02 10 2 10 C1.34 6.7 0.68 3.4 0 0 Z " fill="#000000" transform="translate(578,462)"/>
<path d="M0 0 C0.66 0.33 1.32 0.66 2 1 C0.7580393 4.43927579 -0.55740284 7.25207819 -3 10 C-3.66 10 -4.32 10 -5 10 C-4.49701212 5.59885603 -2.91227269 3.28804981 0 0 Z " fill="#000000" transform="translate(360,393)"/>
<path d="M0 0 C0.99 0 1.98 0 3 0 C1.79157144 4.43090471 0.48331435 6.98112756 -3 10 C-4 7 -4 7 -3.22265625 5.17578125 C-2.1484375 3.45052083 -1.07421875 1.72526042 0 0 Z " fill="#000000" transform="translate(389,343)"/>
<path d="M0 0 C0.66 0 1.32 0 2 0 C1.43454163 3.95820859 0.19097652 6.6659053 -2 10 C-2.99 9.67 -3.98 9.34 -5 9 C-4.3566152 7.686298 -3.71021785 6.37407102 -3.0625 5.0625 C-2.70285156 4.33160156 -2.34320313 3.60070312 -1.97265625 2.84765625 C-1 1 -1 1 0 0 Z " fill="#000000" transform="translate(399,326)"/>
<path d="M0 0 C0.99 0 1.98 0 3 0 C1.79157144 4.43090471 0.48331435 6.98112756 -3 10 C-4 7 -4 7 -3.22265625 5.17578125 C-2.1484375 3.45052083 -1.07421875 1.72526042 0 0 Z " fill="#000000" transform="translate(408,309)"/>
<path d="M0 0 C1.3410477 0.75733274 2.67269781 1.53132736 4 2.3125 C5.11375 2.95638672 5.11375 2.95638672 6.25 3.61328125 C6.8275 4.07089844 7.405 4.52851563 8 5 C8 5.99 8 6.98 8 8 C4.54074837 6.7508258 1.85306797 5.32472205 -1 3 C-0.67 2.01 -0.34 1.02 0 0 Z " fill="#000000" transform="translate(397,288)"/>
<path d="M0 0 C0.99 0.33 1.98 0.66 3 1 C1.68 3.97 0.36 6.94 -1 10 C-1.99 10 -2.98 10 -4 10 C-3.52449439 8.51965236 -3.04448784 7.04074979 -2.5625 5.5625 C-2.29566406 4.73878906 -2.02882813 3.91507813 -1.75390625 3.06640625 C-1 1 -1 1 0 0 Z " fill="#000000" transform="translate(443,239)"/>
<path d="M0 0 C0.99 0 1.98 0 3 0 C2.49287967 3.71888239 1.88391785 6.73454239 0 10 C-0.99 9.67 -1.98 9.34 -3 9 C-2.01 6.03 -1.02 3.06 0 0 Z " fill="#000000" transform="translate(457,203)"/>
<path d="M0 0 C0.99 0 1.98 0 3 0 C3.33 3.3 3.66 6.6 4 10 C3.01 10.33 2.02 10.66 1 11 C-0.17571451 7.32589215 -0.07366746 3.83070817 0 0 Z " fill="#000000" transform="translate(463,145)"/>
<path d="M0 0 C0.99 0 1.98 0 3 0 C4.31626692 3.61973402 5 6.09567131 5 10 C4.01 10 3.02 10 2 10 C1.34 6.7 0.68 3.4 0 0 Z " fill="#000000" transform="translate(458,126)"/>
<path d="M0 0 C4.41889613 1.35021826 6.34345343 3.26115668 9 7 C4.32165993 7 3.2690159 6.1782099 0 3 C0 2.01 0 1.02 0 0 Z " fill="#000000" transform="translate(426,77)"/>
<path d="M0 0 C1.46015291 0.28241641 2.91809793 0.57626614 4.375 0.875 C5.18710937 1.03742187 5.99921875 1.19984375 6.8359375 1.3671875 C9 2 9 2 11 4 C10.34 4.66 9.68 5.32 9 6 C6.03 5.01 3.06 4.02 0 3 C0 2.01 0 1.02 0 0 Z " fill="#000000" transform="translate(391,59)"/>
<path d="M0 0 C3.40312738 1.05875074 6.01353231 2.00902154 9 4 C8.67 4.99 8.34 5.98 8 7 C4.06326356 5.68775452 1.77280706 4.08089673 -1 1 C-0.67 0.67 -0.34 0.34 0 0 Z " fill="#000000" transform="translate(365,268)"/>
<path d="M0 0 C0.99 0 1.98 0 3 0 C3 3.3 3 6.6 3 10 C2.01 10 1.02 10 0 10 C0 6.7 0 3.4 0 0 Z " fill="#000000" transform="translate(464,165)"/>
<path d="M0 0 C3.3 0 6.6 0 10 0 C10 0.99 10 1.98 10 3 C6.7 3 3.4 3 0 3 C0 2.01 0 1.02 0 0 Z " fill="#000000" transform="translate(352,56)"/>
<path d="M0 0 C0.66 0 1.32 0 2 0 C2.33 3.63 2.66 7.26 3 11 C2.01 11 1.02 11 0 11 C-0.19406478 9.35492782 -0.38007935 7.70890406 -0.5625 6.0625 C-0.66691406 5.14597656 -0.77132812 4.22945313 -0.87890625 3.28515625 C-0.91886719 2.53105469 -0.95882812 1.77695312 -1 1 C-0.67 0.67 -0.34 0.34 0 0 Z " fill="#000000" transform="translate(586,500)"/>
<path d="M0 0 C0.99 0.33 1.98 0.66 3 1 C1.68 3.97 0.36 6.94 -1 10 C-1.99 10 -2.98 10 -4 10 C-2.8905928 6.51329166 -1.73662334 3.22515763 0 0 Z " fill="#000000" transform="translate(426,274)"/>
<path d="M0 0 C0.99 0.33 1.98 0.66 3 1 C0.525 5.455 0.525 5.455 -2 10 C-2.66 9.67 -3.32 9.34 -4 9 C-2.94124926 5.59687262 -1.99097846 2.98646769 0 0 Z " fill="#000000" transform="translate(435,257)"/>
<path d="M0 0 C2.97 0.495 2.97 0.495 6 1 C6 1.99 6 2.98 6 4 C4.35 3.67 2.7 3.34 1 3 C0.67 2.01 0.34 1.02 0 0 Z " fill="#000000" transform="translate(196,329)"/>
<path d="M0 0 C-1.3125 1.5 -1.3125 1.5 -3 3 C-3.99 3 -4.98 3 -6 3 C-6 2.01 -6 1.02 -6 0 C-3.50907189 -1.24546405 -2.58919267 -0.7767578 0 0 Z " fill="#000000" transform="translate(85,655)"/>
<path d="M0 0 C0.99 0.33 1.98 0.66 3 1 C2.67 1.99 2.34 2.98 2 4 C1.01 3.01 0.02 2.02 -1 1 C-0.67 0.67 -0.34 0.34 0 0 Z " fill="#000000" transform="translate(17,620)"/>
<path d="M0 0 C0.99 0.33 1.98 0.66 3 1 C2.67 1.99 2.34 2.98 2 4 C1.01 3.01 0.02 2.02 -1 1 C-0.67 0.67 -0.34 0.34 0 0 Z " fill="#000000" transform="translate(231,444)"/>
<path d="M0 0 C0.99 0.33 1.98 0.66 3 1 C2.67 1.99 2.34 2.98 2 4 C1.01 3.01 0.02 2.02 -1 1 C-0.67 0.67 -0.34 0.34 0 0 Z " fill="#000000" transform="translate(143,439)"/>
</svg>
