<svg width="1028" height="686" viewBox="0 0 1028 686" fill="none" xmlns="http://www.w3.org/2000/svg">
<path d="M70.7112 428.302C84.7431 416.166 140.744 349.041 170.451 320.977C134.803 358.143 61.9886 471.156 56.6793 554.968C52.4318 622.018 84.743 663.557 101.43 675.945C123.805 684.921 186 693.011 255.78 653.57C325.56 614.129 402.925 554.968 419.232 532.214L541.347 397.205C533.636 415.661 492.273 482.533 482.565 550.796C472.856 619.059 534.394 652.559 566.377 660.776C626.752 684.744 705.557 641.435 737.414 616.784L889.868 481.396L1024.12 341.836C1030.19 290.259 984.678 299.866 967.233 315.668C940.054 343.479 867.493 403.879 817.433 453.332C767.374 502.785 708.339 552.061 682.803 568.241C580.029 633.471 582.305 584.549 580.788 581.894C579.271 579.239 574.72 540.936 601.646 481.396C623.187 433.763 664.726 373.565 682.803 349.42C716.05 305.934 786.26 215.397 801.126 201.138C815.992 186.878 871.032 114.798 896.694 80.5398C903.015 67.8985 907.465 37.5341 874.698 17.2068C841.932 -3.12043 807.447 12.0239 794.3 22.137L737.414 80.5398C686.469 139.954 575.934 254.231 541.347 299.74C506.76 345.249 437.183 417.051 406.338 449.919C370.234 490.27 306.184 551.934 271.708 572.792L271.701 572.796C246.416 588.094 190.094 622.169 167.038 617.922C138.216 612.612 146.559 579.619 146.938 561.415C147.317 543.212 173.485 486.326 179.553 471.156C184.407 459.021 237.956 371.037 264.123 328.562C281.315 305.049 322.905 248.619 351.727 210.998C380.55 173.378 435.286 112.649 459.052 86.9869C475.991 75.7361 500.389 46.029 462.465 17.2068C424.541 -11.6154 379.412 10.0013 361.588 24.4124L189.792 210.998C140.618 266.999 33.7731 383.097 10.412 414.649C-12.9491 446.202 24.8233 448.023 42.2683 444.989L42.3792 444.953C46.0306 443.78 56.8228 440.314 70.7112 428.302Z" stroke="black" stroke-width="5"/>
<path d="M119.619 153.455V168H117.858V155.301H117.773L114.222 157.659V155.869L117.858 153.455H119.619ZM124.193 168.114C123.843 168.114 123.542 167.988 123.291 167.737C123.04 167.486 122.915 167.186 122.915 166.835C122.915 166.485 123.04 166.184 123.291 165.933C123.542 165.682 123.843 165.557 124.193 165.557C124.544 165.557 124.844 165.682 125.095 165.933C125.346 166.184 125.472 166.485 125.472 166.835C125.472 167.067 125.412 167.28 125.294 167.474C125.18 167.669 125.027 167.825 124.832 167.943C124.643 168.057 124.43 168.114 124.193 168.114ZM131.826 153.455V168H130.065V155.301H129.98L126.429 157.659V155.869L130.065 153.455H131.826Z" fill="black"/>
<path d="M263.619 453.455V468H261.858V455.301H261.773L258.222 457.659V455.869L261.858 453.455H263.619ZM268.193 468.114C267.843 468.114 267.542 467.988 267.291 467.737C267.04 467.486 266.915 467.186 266.915 466.835C266.915 466.485 267.04 466.184 267.291 465.933C267.542 465.682 267.843 465.557 268.193 465.557C268.544 465.557 268.844 465.682 269.095 465.933C269.346 466.184 269.472 466.485 269.472 466.835C269.472 467.067 269.412 467.28 269.294 467.474C269.18 467.669 269.027 467.825 268.832 467.943C268.643 468.057 268.43 468.114 268.193 468.114ZM272.451 468V466.722L277.252 461.466C277.816 460.85 278.28 460.315 278.644 459.861C279.009 459.402 279.279 458.971 279.454 458.568C279.634 458.161 279.724 457.735 279.724 457.29C279.724 456.778 279.601 456.336 279.354 455.962C279.113 455.588 278.781 455.299 278.36 455.095C277.939 454.892 277.465 454.79 276.94 454.79C276.381 454.79 275.893 454.906 275.477 455.138C275.065 455.365 274.745 455.685 274.518 456.097C274.295 456.509 274.184 456.991 274.184 457.545H272.508C272.508 456.693 272.704 455.945 273.097 455.301C273.49 454.657 274.025 454.155 274.702 453.795C275.384 453.436 276.149 453.256 276.996 453.256C277.849 453.256 278.604 453.436 279.262 453.795C279.92 454.155 280.436 454.641 280.81 455.251C281.184 455.862 281.371 456.542 281.371 457.29C281.371 457.825 281.274 458.348 281.08 458.859C280.891 459.366 280.559 459.932 280.086 460.557C279.617 461.177 278.966 461.935 278.133 462.83L274.866 466.324V466.438H281.627V468H272.451Z" fill="black"/>
<path d="M672.619 458.455V473H670.858V460.301H670.773L667.222 462.659V460.869L670.858 458.455H672.619ZM677.193 473.114C676.843 473.114 676.542 472.988 676.291 472.737C676.04 472.486 675.915 472.186 675.915 471.835C675.915 471.485 676.04 471.184 676.291 470.933C676.542 470.682 676.843 470.557 677.193 470.557C677.544 470.557 677.844 470.682 678.095 470.933C678.346 471.184 678.472 471.485 678.472 471.835C678.472 472.067 678.412 472.28 678.294 472.474C678.18 472.669 678.027 472.825 677.832 472.943C677.643 473.057 677.43 473.114 677.193 473.114ZM685.819 473.199C684.881 473.199 684.046 473.038 683.312 472.716C682.583 472.394 682.003 471.946 681.572 471.374C681.146 470.796 680.914 470.126 680.876 469.364H682.665C682.703 469.832 682.864 470.237 683.148 470.578C683.433 470.914 683.804 471.175 684.263 471.359C684.723 471.544 685.232 471.636 685.79 471.636C686.415 471.636 686.969 471.527 687.452 471.31C687.935 471.092 688.314 470.789 688.589 470.401C688.863 470.012 689.001 469.562 689.001 469.051C689.001 468.516 688.868 468.045 688.603 467.638C688.338 467.226 687.95 466.904 687.438 466.672C686.927 466.44 686.302 466.324 685.563 466.324H684.398V464.761H685.563C686.141 464.761 686.647 464.657 687.083 464.449C687.523 464.241 687.867 463.947 688.113 463.568C688.364 463.189 688.489 462.744 688.489 462.233C688.489 461.741 688.38 461.312 688.163 460.947C687.945 460.583 687.637 460.299 687.239 460.095C686.846 459.892 686.382 459.79 685.847 459.79C685.345 459.79 684.872 459.882 684.427 460.067C683.987 460.247 683.627 460.509 683.347 460.855C683.068 461.196 682.916 461.608 682.893 462.091H681.188C681.217 461.329 681.446 460.661 681.877 460.088C682.308 459.51 682.871 459.061 683.567 458.739C684.268 458.417 685.038 458.256 685.876 458.256C686.775 458.256 687.547 458.438 688.191 458.803C688.835 459.162 689.33 459.638 689.675 460.23C690.021 460.822 690.194 461.461 690.194 462.148C690.194 462.967 689.978 463.665 689.548 464.243C689.121 464.821 688.541 465.221 687.808 465.443V465.557C688.726 465.708 689.443 466.099 689.96 466.729C690.476 467.354 690.734 468.128 690.734 469.051C690.734 469.842 690.518 470.552 690.087 471.182C689.661 471.807 689.079 472.299 688.34 472.659C687.602 473.019 686.761 473.199 685.819 473.199Z" fill="black"/>
<path d="M228.988 106.845C228.902 106.299 228.391 105.926 227.845 106.012L218.954 107.407C218.408 107.492 218.035 108.004 218.121 108.55C218.206 109.095 218.718 109.468 219.264 109.383L227.167 108.143L228.407 116.046C228.492 116.592 229.004 116.965 229.55 116.879C230.095 116.794 230.468 116.282 230.383 115.736L228.988 106.845ZM95.7162 252.698C113.792 234.146 142.134 204.632 168.415 176.384C194.678 148.155 218.938 121.132 228.808 107.589L227.192 106.411C217.407 119.837 193.239 146.766 166.951 175.021C140.682 203.256 112.352 232.758 94.2838 251.302L95.7162 252.698Z" fill="black"/>
<path d="M45.5 402L416 45.5C324.667 177.333 113 464.3 117 505.5C107 533 86.6809 590 117 637.5C137 668.833 215.5 683.5 466.5 439.5L845.5 45.5C750 179 558 468.5 539 524.5C520 580.5 539 691.5 674.5 618L831.5 492.5L993 343.5" stroke="black" stroke-width="2" stroke-dasharray="10 10"/>
<path d="M327.496 468.12C327.562 467.294 326.946 466.571 326.12 466.505L312.663 465.429C311.837 465.363 311.114 465.979 311.048 466.805C310.982 467.63 311.598 468.353 312.424 468.419L324.386 469.376L323.429 481.338C323.363 482.163 323.979 482.886 324.805 482.952C325.631 483.018 326.354 482.402 326.42 481.577L327.496 468.12ZM257.706 405.242C246.102 425.068 234.166 447.672 225.368 468.24C220.969 478.523 217.344 488.322 214.939 497.027C212.542 505.706 211.323 513.411 211.831 519.463C212.339 525.529 214.635 530.278 219.586 532.341C224.365 534.332 231.141 533.583 240.041 530.072C257.921 523.018 285.77 504.245 326.973 469.142L325.028 466.858C283.831 501.955 256.313 520.428 238.941 527.281C230.215 530.724 224.393 531.094 220.739 529.571C217.256 528.12 215.282 524.723 214.82 519.212C214.357 513.687 215.466 506.385 217.831 497.826C220.188 489.295 223.759 479.629 228.126 469.42C236.86 449.003 248.732 426.515 260.295 406.758L257.706 405.242Z" fill="black"/>
<path d="M742.999 477.037C743.02 476.209 742.365 475.521 741.537 475.5L728.041 475.165C727.213 475.144 726.525 475.799 726.504 476.627C726.484 477.455 727.138 478.143 727.966 478.164L739.963 478.462L739.664 490.458C739.643 491.287 740.298 491.975 741.126 491.995C741.954 492.016 742.643 491.361 742.663 490.533L742.999 477.037ZM641.101 447.457C634.747 463.803 628.982 482.186 626.116 498.495C624.683 506.649 623.966 514.33 624.279 521.005C624.59 527.656 625.931 533.454 628.748 537.715C631.619 542.057 635.951 544.685 641.883 545.039C647.722 545.388 655.042 543.536 664.059 539.177C682.1 530.455 707.509 511.41 742.533 478.087L740.466 475.913C705.49 509.19 680.357 527.966 662.753 536.476C653.947 540.733 647.168 542.35 642.062 542.045C637.049 541.745 633.588 539.596 631.251 536.06C628.859 532.443 627.575 527.266 627.275 520.864C626.976 514.487 627.66 507.041 629.071 499.014C631.892 482.964 637.586 464.78 643.898 448.543L641.101 447.457Z" fill="black"/>
</svg>
