<svg width="722" height="754" viewBox="0 0 722 754" fill="none" xmlns="http://www.w3.org/2000/svg">
<path d="M442.238 154.301C420.238 157.901 408.405 151.134 405.238 147.301C387.238 72.3005 363.738 54.8008 334.239 51.3008C304.739 47.8008 281.739 59.3008 263.239 74.8008C244.739 90.3008 220.239 140.301 212.239 159.301C204.239 178.301 192.239 247.301 192.239 251.301C192.239 255.301 188.239 295.801 192.239 335.301C195.439 366.901 205.239 394.134 209.739 403.801C223.739 446.601 258.239 459.967 273.739 461.301C321.739 460.101 347.072 428.134 353.739 412.301C368.139 395.501 378.739 352.634 382.239 333.301C388.239 315.301 391.239 313.801 415.739 305.301C440.239 296.801 465.239 302.301 479.239 309.301C493.239 316.301 499.239 366.301 502.239 385.801C504.639 401.401 507.239 456.301 508.239 481.801C536.239 463.801 559.239 428.301 570.239 408.301C579.039 392.301 588.905 358.634 592.739 343.801C596.339 309.401 610.905 304.801 617.739 306.801C641.239 308.801 636.739 342.801 636.739 343.801C636.739 344.601 627.739 379.467 623.239 396.801C618.039 419.201 597.072 450.801 587.239 463.801C570.839 488.601 526.405 520.134 506.239 532.801C502.239 570.401 489.572 610.801 483.739 626.301C474.139 652.701 447.405 680.634 435.239 691.301C418.039 710.101 366.072 715.801 342.239 716.301C298.239 716.301 271.239 692.634 263.239 680.801C241.239 640.301 249.239 619.801 263.239 593.801C274.439 573.001 323.572 553.467 346.739 546.301L407.739 524.801L399.239 405.801C397.239 429.001 378.739 457.801 369.739 469.301C358.139 485.701 329.905 501.134 317.239 506.801C280.839 521.601 232.739 516.634 213.239 512.301C198.405 509.134 162.139 496.501 135.739 471.301C102.739 439.801 92.2384 413.801 82.7384 387.801C73.2384 361.801 66.7384 314.301 69.7384 274.301C72.1384 242.301 82.0718 204.967 86.7384 190.301C91.4051 176.967 103.938 145.301 116.738 125.301C132.738 100.301 145.738 83.8008 181.238 51.3008C209.638 25.3008 253.072 11.8007 271.238 8.30066C305.238 -1.29934 347.072 4.30066 363.738 8.30066C387.338 11.5007 416.905 30.3007 428.738 39.3007C438.738 46.1007 452.905 66.4673 458.738 75.8007C466.738 88.2007 469.405 109.967 469.738 119.301C467.338 142.101 450.405 152.134 442.238 154.301Z" stroke="black" stroke-width="5"/>
<path d="M432 90C382.5 -40.0002 65.9997 15.5003 116.5 352.5C129.157 436.965 288.982 607.5 400.5 378L432 331.5C469.5 449.5 480 725.5 327.5 688.5C271.5 674.913 281.274 603.719 298 595C403.5 540 490.1 515.9 526.5 491.5C541.666 483.667 581.5 442.5 619.5 340.5" stroke="black" stroke-width="2" stroke-dasharray="10 10"/>
<path d="M188.178 522.338C188.917 521.964 189.213 521.061 188.838 520.322L182.737 508.28C182.362 507.541 181.459 507.245 180.721 507.62C179.982 507.994 179.686 508.897 180.06 509.636L185.484 520.34L174.78 525.764C174.041 526.138 173.746 527.041 174.12 527.78C174.494 528.519 175.397 528.814 176.136 528.44L188.178 522.338ZM110.71 81.2357C76.3854 139.194 38.9282 230.809 38.2629 317.263C37.9301 360.515 46.8058 402.556 69.973 438.436C93.1522 474.334 130.554 503.934 187.034 522.426L187.967 519.574C132.046 501.266 95.2485 472.05 72.4933 436.808C49.7262 401.548 40.9331 360.127 41.2628 317.287C41.9225 231.558 79.1153 140.472 113.291 82.7643L110.71 81.2357Z" fill="black"/>
<path d="M521.141 412.648C521.499 413.069 522.131 413.119 522.551 412.761L529.403 406.926C529.824 406.568 529.874 405.937 529.516 405.517C529.158 405.096 528.527 405.045 528.106 405.404L522.016 410.59L516.829 404.5C516.471 404.079 515.84 404.028 515.419 404.387C514.999 404.745 514.948 405.376 515.306 405.796L521.141 412.648ZM508.024 330.218C510.411 340.892 513.92 357.799 516.688 373.819C518.072 381.83 519.27 389.61 520.049 396.273C520.831 402.958 521.184 408.45 520.906 411.92L522.899 412.08C523.195 408.396 522.819 402.732 522.036 396.041C521.25 389.327 520.046 381.508 518.659 373.479C515.884 357.419 512.368 340.479 509.976 329.782L508.024 330.218Z" fill="black"/>
<path d="M575.773 342.365C575.422 341.939 574.792 341.877 574.365 342.227L567.409 347.938C566.982 348.288 566.92 348.918 567.271 349.345C567.621 349.772 568.251 349.834 568.678 349.484L574.862 344.407L579.938 350.591C580.288 351.018 580.918 351.08 581.345 350.729C581.772 350.379 581.834 349.749 581.484 349.322L575.773 342.365ZM536.685 432.728C547.954 422.123 571.436 389.465 575.995 343.098L574.005 342.902C569.498 388.74 546.268 420.963 535.315 431.272L536.685 432.728Z" fill="black"/>
<path d="M501.619 305.455V320H499.858V307.301H499.773L496.222 309.659V307.869L499.858 305.455H501.619ZM506.193 320.114C505.843 320.114 505.542 319.988 505.291 319.737C505.04 319.486 504.915 319.186 504.915 318.835C504.915 318.485 505.04 318.184 505.291 317.933C505.542 317.682 505.843 317.557 506.193 317.557C506.544 317.557 506.844 317.682 507.095 317.933C507.346 318.184 507.472 318.485 507.472 318.835C507.472 319.067 507.412 319.28 507.294 319.474C507.18 319.669 507.027 319.825 506.832 319.943C506.643 320.057 506.43 320.114 506.193 320.114ZM510.451 320V318.722L515.252 313.466C515.816 312.85 516.28 312.315 516.644 311.861C517.009 311.402 517.279 310.971 517.454 310.568C517.634 310.161 517.724 309.735 517.724 309.29C517.724 308.778 517.601 308.336 517.354 307.962C517.113 307.588 516.781 307.299 516.36 307.095C515.939 306.892 515.465 306.79 514.94 306.79C514.381 306.79 513.893 306.906 513.477 307.138C513.065 307.365 512.745 307.685 512.518 308.097C512.295 308.509 512.184 308.991 512.184 309.545H510.508C510.508 308.693 510.704 307.945 511.097 307.301C511.49 306.657 512.025 306.155 512.702 305.795C513.384 305.436 514.149 305.256 514.996 305.256C515.849 305.256 516.604 305.436 517.262 305.795C517.92 306.155 518.436 306.641 518.81 307.251C519.184 307.862 519.371 308.542 519.371 309.29C519.371 309.825 519.274 310.348 519.08 310.859C518.891 311.366 518.559 311.932 518.086 312.557C517.617 313.177 516.966 313.935 516.133 314.83L512.866 318.324V318.438H519.627V320H510.451Z" fill="black"/>
<path d="M6.61932 310.455V325H4.85795V312.301H4.77273L1.22159 314.659V312.869L4.85795 310.455H6.61932ZM11.1932 325.114C10.8428 325.114 10.5421 324.988 10.2912 324.737C10.0402 324.486 9.91477 324.186 9.91477 323.835C9.91477 323.485 10.0402 323.184 10.2912 322.933C10.5421 322.682 10.8428 322.557 11.1932 322.557C11.5436 322.557 11.8442 322.682 12.0952 322.933C12.3461 323.184 12.4716 323.485 12.4716 323.835C12.4716 324.067 12.4124 324.28 12.294 324.474C12.1804 324.669 12.0265 324.825 11.8324 324.943C11.643 325.057 11.4299 325.114 11.1932 325.114ZM18.8263 310.455V325H17.065V312.301H16.9798L13.4286 314.659V312.869L17.065 310.455H18.8263Z" fill="black"/>
<path d="M542.619 347.455V362H540.858V349.301H540.773L537.222 351.659V349.869L540.858 347.455H542.619ZM547.193 362.114C546.843 362.114 546.542 361.988 546.291 361.737C546.04 361.486 545.915 361.186 545.915 360.835C545.915 360.485 546.04 360.184 546.291 359.933C546.542 359.682 546.843 359.557 547.193 359.557C547.544 359.557 547.844 359.682 548.095 359.933C548.346 360.184 548.472 360.485 548.472 360.835C548.472 361.067 548.412 361.28 548.294 361.474C548.18 361.669 548.027 361.825 547.832 361.943C547.643 362.057 547.43 362.114 547.193 362.114ZM551.11 359.017V357.568L557.502 347.455H558.553V349.699H557.843L553.013 357.341V357.455H561.621V359.017H551.11ZM557.957 362V358.577V357.902V347.455H559.633V362H557.957Z" fill="black"/>
<path d="M232.619 734.455V749H230.858V736.301H230.773L227.222 738.659V736.869L230.858 734.455H232.619ZM237.193 749.114C236.843 749.114 236.542 748.988 236.291 748.737C236.04 748.486 235.915 748.186 235.915 747.835C235.915 747.485 236.04 747.184 236.291 746.933C236.542 746.682 236.843 746.557 237.193 746.557C237.544 746.557 237.844 746.682 238.095 746.933C238.346 747.184 238.472 747.485 238.472 747.835C238.472 748.067 238.412 748.28 238.294 748.474C238.18 748.669 238.027 748.825 237.832 748.943C237.643 749.057 237.43 749.114 237.193 749.114ZM245.819 749.199C244.881 749.199 244.046 749.038 243.312 748.716C242.583 748.394 242.003 747.946 241.572 747.374C241.146 746.796 240.914 746.126 240.876 745.364H242.665C242.703 745.832 242.864 746.237 243.148 746.578C243.433 746.914 243.804 747.175 244.263 747.359C244.723 747.544 245.232 747.636 245.79 747.636C246.415 747.636 246.969 747.527 247.452 747.31C247.935 747.092 248.314 746.789 248.589 746.401C248.863 746.012 249.001 745.562 249.001 745.051C249.001 744.516 248.868 744.045 248.603 743.638C248.338 743.226 247.95 742.904 247.438 742.672C246.927 742.44 246.302 742.324 245.563 742.324H244.398V740.761H245.563C246.141 740.761 246.647 740.657 247.083 740.449C247.523 740.241 247.867 739.947 248.113 739.568C248.364 739.189 248.489 738.744 248.489 738.233C248.489 737.741 248.38 737.312 248.163 736.947C247.945 736.583 247.637 736.299 247.239 736.095C246.846 735.892 246.382 735.79 245.847 735.79C245.345 735.79 244.872 735.882 244.427 736.067C243.987 736.247 243.627 736.509 243.347 736.855C243.068 737.196 242.916 737.608 242.893 738.091H241.188C241.217 737.329 241.446 736.661 241.877 736.088C242.308 735.51 242.871 735.061 243.567 734.739C244.268 734.417 245.038 734.256 245.876 734.256C246.775 734.256 247.547 734.438 248.191 734.803C248.835 735.162 249.33 735.638 249.675 736.23C250.021 736.822 250.194 737.461 250.194 738.148C250.194 738.967 249.978 739.665 249.548 740.243C249.121 740.821 248.541 741.221 247.808 741.443V741.557C248.726 741.708 249.443 742.099 249.96 742.729C250.476 743.354 250.734 744.128 250.734 745.051C250.734 745.842 250.518 746.552 250.087 747.182C249.661 747.807 249.079 748.299 248.34 748.659C247.602 749.019 246.761 749.199 245.819 749.199Z" fill="black"/>
<path d="M241.421 599.02C241.157 598.235 240.305 597.814 239.521 598.079L226.729 602.395C225.944 602.66 225.523 603.511 225.788 604.296C226.052 605.081 226.903 605.503 227.688 605.238L239.058 601.401L242.895 612.771C243.16 613.556 244.011 613.977 244.796 613.713C245.581 613.448 246.003 612.597 245.738 611.812L241.421 599.02ZM419.066 722.826C403.526 735.185 380.665 741.789 355.978 742.634C331.313 743.478 304.999 738.564 282.675 728.08C260.348 717.594 242.127 701.594 233.415 680.33C224.718 659.104 225.39 632.372 241.344 600.166L238.656 598.834C222.411 631.628 221.545 659.271 230.639 681.467C239.717 703.625 258.615 720.094 281.4 730.795C304.188 741.498 330.98 746.491 356.081 745.632C381.16 744.774 404.724 738.065 420.934 725.174L419.066 722.826Z" fill="black"/>
</svg>
