<?xml version="1.0" encoding="UTF-8"?>
<svg version="1.1" xmlns="http://www.w3.org/2000/svg" width="620" height="686">
<path d="M0 0 C2.4940815 2.16860753 4.8234468 4.30179225 7.0390625 6.75390625 C7.73294067 7.52063156 8.42681885 8.28735687 9.14172363 9.07731628 C12.38534566 14.08181573 11.55439268 20.15224368 11.48242188 25.88793945 C11.47930518 27.26643547 11.47785529 28.64493606 11.47790527 30.02343559 C11.4723651 33.86000219 11.44042366 37.69597357 11.40388298 41.53235412 C11.37525806 44.87411606 11.36158805 48.21587828 11.34766245 51.55772883 C11.29352893 64.29026853 11.17020711 77.02196371 11.0390625 89.75390625 C11.0222493 91.41125243 11.0222493 91.41125243 11.00509644 93.10208035 C10.64366294 128.67693808 10.18483592 164.25046567 9.70291996 199.82386601 C9.57430259 209.31818918 9.44693414 218.81252826 9.32080078 228.30688477 C9.31183979 228.98132329 9.30287881 229.65576182 9.29364628 230.35063788 C9.14298139 241.69628462 8.99416689 253.04195519 8.84616137 264.38763696 C8.74819733 271.8817245 8.64769768 279.3757722 8.54510736 286.86979777 C8.20018668 312.16590776 7.92359441 337.45519672 8.0390625 362.75390625 C9.61749885 361.03142504 11.19392609 359.30710262 12.76953125 357.58203125 C13.64762451 356.62200195 14.52571777 355.66197266 15.43041992 354.67285156 C18.59543621 351.13135089 21.57622281 347.46450409 24.55859375 343.76953125 C27.48874326 340.20720775 30.50660313 336.72911778 33.5390625 333.25390625 C37.36228534 328.87183262 41.13060773 324.46330752 44.7890625 319.94140625 C48.32097337 315.5780784 52.02613186 311.41552145 55.8046875 307.265625 C58.82742043 303.8676927 61.66831466 300.3358297 64.5234375 296.796875 C66.37770701 294.55389992 68.25236707 292.35806983 70.1796875 290.1796875 C70.73495117 289.55022217 71.29021484 288.92075684 71.86230469 288.2722168 C72.92999832 287.06663087 74.00301676 285.86572471 75.08300781 284.67114258 C83.86441887 274.7374134 90.81257034 263.15472046 98.0390625 252.06640625 C98.86093728 250.80784689 99.68296177 249.54938529 100.50512695 248.29101562 C101.76727451 246.35899679 103.02920355 244.42683744 104.2903595 242.49417114 C107.10972243 238.17377005 109.93729706 233.85884682 112.76953125 229.546875 C113.52806295 228.39091386 114.28652761 227.23490873 115.04492188 226.07885742 C116.44733665 223.94149318 117.85088818 221.80487413 119.25585938 219.66918945 C126.43605951 208.71111875 133.25629918 197.63282031 139.4140625 186.06640625 C140.55003548 183.95142219 141.68675957 181.83684139 142.82421875 179.72265625 C143.37352051 178.70042969 143.92282227 177.67820313 144.48876953 176.625 C146.57865398 172.75459982 148.7077698 168.90714089 150.8515625 165.06640625 C151.64716156 163.63803539 152.44273318 162.20964926 153.23828125 160.78125 C153.66931152 160.00765137 154.1003418 159.23405273 154.54443359 158.43701172 C157.4048768 153.30204426 160.26356777 148.16616999 163.11239624 143.02474976 C163.79705023 141.79052093 164.4828827 140.55694485 165.17007446 139.3241272 C173.09524876 125.10367804 180.24392507 110.56335813 186.98413086 95.74682617 C187.96917594 93.58263487 188.95984246 91.42108432 189.95117188 89.25976562 C198.36779149 70.85402307 206.14884187 52.21822298 213.5390625 33.37890625 C214.28161537 31.49353981 215.02445658 29.6082869 215.76757812 27.72314453 C218.89423072 19.78623737 222.00785747 11.84433884 225.1015625 3.89453125 C225.73674805 2.26330322 225.73674805 2.26330322 226.38476562 0.59912109 C227.13109759 -1.32132619 227.87477133 -3.24280957 228.61523438 -5.16552734 C230.93073456 -11.13776581 230.93073456 -11.13776581 232.0390625 -12.24609375 C248.20635559 -12.16947151 267.33546436 -11.44594784 282.0390625 -4.24609375 C283.45638672 -3.55773437 283.45638672 -3.55773437 284.90234375 -2.85546875 C297.21767953 3.72548889 308.52703431 13.21782169 313.0390625 26.75390625 C318.07309721 77.25993049 282.60003151 125.50071161 257.0390625 165.75390625 C256.58853516 166.46498535 256.13800781 167.17606445 255.67382812 167.90869141 C253.10357881 171.95471574 250.49488701 175.97409006 247.86181641 179.97949219 C246.44949821 182.12918198 245.04082052 184.2811061 243.63427734 186.43457031 C223.3069737 217.52756696 223.3069737 217.52756696 212.42871094 230.11376953 C210.01646539 232.96082955 207.75722275 235.92626937 205.4765625 238.87890625 C201.26333682 244.29317334 196.86968019 249.52597352 192.38085938 254.71313477 C188.60892234 259.07305743 184.94440789 263.51003075 181.30859375 267.984375 C177.41187864 272.73957468 173.42268807 277.41625087 169.44189453 282.10107422 C167.61117777 284.25804472 165.78619654 286.41982418 163.96166992 288.58203125 C162.58946237 290.20572397 161.21278262 291.8255517 159.8359375 293.4453125 C157.95077113 295.66598575 156.08994158 297.90438002 154.2421875 300.15625 C147.68118889 308.08002084 140.58959771 315.11961217 133.01171875 322.0703125 C128.724677 326.010402 124.61598827 330.1118703 120.55102539 334.27954102 C117.86481595 337.0119006 115.10834596 339.5901685 112.203125 342.08984375 C107.71619997 345.97083121 103.5694845 350.14874644 99.4140625 354.37890625 C94.79036249 359.0848785 90.19902778 363.63570052 85.0390625 367.75390625 C85.40257812 368.42035156 85.76609375 369.08679688 86.140625 369.7734375 C91.0390625 378.75390625 91.0390625 378.75390625 92.36914062 381.24365234 C95.77481772 387.57852419 99.40149351 393.70409861 103.2890625 399.75390625 C103.88187012 400.68033936 104.47467773 401.60677246 105.08544922 402.5612793 C125.65963515 434.57056496 146.38234682 466.40657148 173.5625 493.2421875 C175.62144279 495.33035819 177.53373069 497.44519707 179.4140625 499.69140625 C186.7000264 508.19750765 195.51750529 515.51132525 204.24609375 522.4765625 C206.23195214 524.09580088 208.14824339 525.72685553 210.05078125 527.4375 C221.53614775 537.69076095 233.91868967 545.17108166 249.0390625 548.75390625 C249.77382813 548.94339844 250.50859375 549.13289062 251.265625 549.328125 C262.13183481 550.99631777 275.45528545 551.68355687 285.0390625 545.75390625 C286.51052734 544.86251953 286.51052734 544.86251953 288.01171875 543.953125 C298.63071566 537.17644172 306.26284151 529.60743056 314.0390625 519.75390625 C314.72097656 518.93792969 315.40289062 518.12195313 316.10546875 517.28125 C332.67792038 497.3359315 341.32771462 472.83288505 350.0390625 448.75390625 C350.4633252 447.60116211 350.88758789 446.44841797 351.32470703 445.26074219 C359.1382554 423.86890167 364.3570885 401.97639596 369.390625 379.79431152 C372.76821421 364.99350161 372.76821421 364.99350161 378.0390625 360.75390625 C387.16328334 355.36644384 397.37599643 353.93925722 407.77734375 356.40234375 C417.00442477 360.13142312 421.72619799 367.05562377 425.81640625 375.8359375 C430.34203006 386.63670742 429.57607845 396.35761481 426.44140625 407.421875 C426.16945938 408.41858719 425.89751251 409.41529938 425.61732483 410.44221497 C424.74887896 413.61200143 423.86270883 416.77652871 422.9765625 419.94140625 C422.40841383 422.01337292 421.84134867 424.08563701 421.27539062 426.15820312 C410.43079415 465.65889609 410.43079415 465.65889609 404.1015625 480.12890625 C403.67464111 481.125271 403.24771973 482.12163574 402.80786133 483.14819336 C401.56720311 486.02391729 400.30690372 488.89008279 399.0390625 491.75390625 C398.70293945 492.52395996 398.36681641 493.29401367 398.02050781 494.08740234 C392.28882775 507.14553564 385.20687662 519.44126461 378.0390625 531.75390625 C377.52263184 532.64609863 377.00620117 533.53829102 376.47412109 534.45751953 C367.33760502 550.19279391 357.76570497 565.63866401 345.0390625 578.75390625 C344.46671875 579.388125 343.894375 580.02234375 343.3046875 580.67578125 C317.892957 607.88657231 276.04797181 627.48708208 238.86181641 628.96044922 C234.3790057 629.08120099 229.89817118 629.08787595 225.4140625 629.06640625 C224.62192352 629.06458344 223.82978455 629.06276062 223.01364136 629.06088257 C210.7803931 629.01356306 199.02413975 628.36080809 187.0390625 625.75390625 C185.80373779 625.50447266 185.80373779 625.50447266 184.54345703 625.25 C158.10274471 619.87526458 132.91091208 609.72382817 111.0390625 593.75390625 C110.42224609 593.30402344 109.80542969 592.85414063 109.16992188 592.390625 C97.8868438 584.12726927 86.94933751 575.53177587 76.62109375 566.08984375 C74.52366477 564.19232101 72.40169123 562.33701177 70.26171875 560.48828125 C58.71699791 550.39997966 47.67424157 539.46709604 39.0390625 526.75390625 C38.58257324 526.08230469 38.12608398 525.41070313 37.65576172 524.71875 C25.84981769 507.11415457 16.1933438 488.29877368 8.0390625 468.75390625 C7.81962466 484.21849903 8.48965968 499.62177271 9.2265625 515.06640625 C9.29028333 516.42894984 9.3538908 517.79149874 9.41738892 519.15405273 C10.68719348 546.26496198 12.41096983 573.34445022 14.24412346 600.42248249 C14.40957714 602.86704808 14.5741804 605.31166974 14.73864746 607.75630188 C14.94019598 610.75189563 15.14551495 613.74719488 15.35339355 616.74235535 C16.37747694 631.71542019 16.13324028 639.45949583 6.28125 651.2421875 C-4.6779095 663.51873726 -19.77587575 672.90536418 -36.55664062 673.90917969 C-57.57868927 674.75990473 -77.63406938 672.92150167 -95.23046875 660.3046875 C-102.59290565 653.42676004 -107.66091299 645.35488019 -112.2109375 636.44140625 C-112.71367188 635.49845703 -113.21640625 634.55550781 -113.734375 633.58398438 C-119.97874012 621.52843653 -122.75557198 609.00189434 -124.8984375 595.69140625 C-125.02411102 594.92214813 -125.14978455 594.15289001 -125.27926636 593.36032104 C-136.76907417 522.56683078 -142.08269518 449.05703197 -142.12207031 377.34277344 C-142.12671903 375.31690892 -142.13174628 373.29104523 -142.13711548 371.2651825 C-142.15006358 365.82680631 -142.15665209 360.38844236 -142.16112614 354.95005322 C-142.16409195 351.51669092 -142.16820308 348.08333171 -142.17263031 344.64997101 C-142.18627291 333.8062224 -142.19594948 322.96248116 -142.1998322 312.11872458 C-142.20383533 301.01221678 -142.21601611 289.90579529 -142.2421875 278.79931641 C-142.48870698 171.86621052 -142.48870698 171.86621052 -138.9609375 124.75390625 C-138.88059895 123.66440674 -138.80026039 122.57490723 -138.71748734 121.45239258 C-132.16483214 32.80169489 -132.16483214 32.80169489 -119.9609375 17.75390625 C-118.92066406 16.46806641 -118.92066406 16.46806641 -117.859375 15.15625 C-93.18961913 -13.62513185 -30.97812782 -23.49923944 0 0 Z M-112.6171875 18.078125 C-145.37734303 55.47930256 -136.09705029 155.68326792 -136.12207031 202.76342773 C-136.12671819 204.85327233 -136.13174535 206.94311612 -136.13711548 209.03295898 C-136.15006853 214.64468194 -136.15665267 220.25639302 -136.16112614 225.86812854 C-136.16409013 229.40800357 -136.16820093 232.94787561 -136.17263031 236.4877491 C-136.18627201 247.65986214 -136.19594994 258.83196804 -136.1998322 270.00408882 C-136.20427864 282.71650878 -136.22167996 295.42881939 -136.2508328 308.1412062 C-136.27280286 318.08216786 -136.28255512 328.02309961 -136.28387332 337.96408516 C-136.28489837 343.84534168 -136.29028883 349.72649516 -136.30869293 355.60772514 C-136.44103741 400.46768149 -134.25178121 445.1669405 -130.6484375 489.87890625 C-130.5455542 491.17729431 -130.4426709 492.47568237 -130.33666992 493.81341553 C-125.88630881 550.07101059 -125.88630881 550.07101059 -116.9609375 605.75390625 C-116.80447754 606.53991211 -116.64801758 607.32591797 -116.48681641 608.13574219 C-112.59735981 626.90269117 -102.45069224 648.36749166 -86.2734375 659.44140625 C-70.31979651 668.78612082 -47.126721 670.76854307 -29.23828125 666.87890625 C-15.49127946 663.21442173 -5.26275811 655.2497799 4.0390625 644.75390625 C5.05806641 643.6865625 5.05806641 643.6865625 6.09765625 642.59765625 C10.23648453 637.32136708 10.2658007 632.3077324 9.83203125 625.859375 C9.77933578 624.92229706 9.72664032 623.98521912 9.67234802 623.01974487 C9.47517586 619.59683614 9.25704008 616.17555196 9.0390625 612.75390625 C8.90812578 610.61520277 8.77886793 608.47640153 8.64968967 606.33759117 C8.20160513 598.92353798 7.74101712 591.51030538 7.27416992 584.09741211 C1.45321376 491.61054533 1.45321376 491.61054533 2.0390625 449.75390625 C3.6890625 449.42390625 5.3390625 449.09390625 7.0390625 448.75390625 C7.25409424 449.36049072 7.46912598 449.9670752 7.69067383 450.59204102 C22.21178791 491.22143998 42.7778252 529.52964404 75.96484375 557.95703125 C78.24063968 559.92853055 80.44828917 561.9652502 82.6640625 564.00390625 C88.87030654 569.58763949 95.38870258 574.71411637 102.0390625 579.75390625 C102.72532715 580.27533203 103.4115918 580.79675781 104.11865234 581.33398438 C135.79214977 605.23471206 174.0436158 622.56941038 214.39453125 622.9921875 C215.55795799 623.00687828 215.55795799 623.00687828 216.74488831 623.02186584 C233.17722016 623.1867607 249.11142388 623.33020929 265.0390625 618.75390625 C265.79413086 618.54491699 266.54919922 618.33592773 267.32714844 618.12060547 C291.37682769 611.29818265 313.00241347 598.79341619 332.0390625 582.75390625 C332.57015625 582.30934082 333.10125 581.86477539 333.6484375 581.40673828 C364.10613747 555.613816 384.68027337 512.30043426 399.4140625 476.00390625 C399.79473877 475.0718335 400.17541504 474.13976074 400.56762695 473.17944336 C407.05340984 456.68855917 411.38118936 439.302455 416.04589844 422.23168945 C416.63045133 420.10043854 417.22006987 417.97057128 417.81445312 415.84204102 C418.68952961 412.70754182 419.54950383 409.56923965 420.40625 406.4296875 C420.6717868 405.48893875 420.93732361 404.54819 421.21090698 403.57893372 C424.48393035 391.40870783 422.86941887 382.35330126 416.65234375 371.28515625 C413.36591153 366.45905305 409.76844346 363.20668114 404.0390625 361.75390625 C395.77321407 360.81704503 388.13738553 361.06869966 381.0390625 365.75390625 C378.29367569 368.06452105 377.48920407 369.89279989 376.69213867 373.36694336 C376.47148239 374.30320053 376.25082611 375.2394577 376.02348328 376.2040863 C375.79530411 377.21955032 375.56712494 378.23501434 375.33203125 379.28125 C375.08415359 380.33937393 374.83627594 381.39749786 374.58088684 382.48768616 C373.78585037 385.88663583 373.00514044 389.28865195 372.2265625 392.69140625 C367.44979587 413.43902423 362.15689477 433.72145182 354.7265625 453.69140625 C354.49228546 454.32422516 354.25800842 454.95704407 354.01663208 455.60903931 C345.35135361 478.98294351 336.25880987 502.5125964 320.0390625 521.75390625 C319.09566764 522.89917441 318.1529768 524.04502281 317.2109375 525.19140625 C310.06165978 533.81014369 303.17259698 541.45771856 293.6640625 547.50390625 C292.96023438 547.97183594 292.25640625 548.43976562 291.53125 548.921875 C283.08257081 554.36418112 275.494588 556.30474435 265.4765625 556.19140625 C264.51347168 556.18238281 263.55038086 556.17335938 262.55810547 556.1640625 C238.32317838 555.58387472 219.57625567 543.5519748 201.82421875 528.01171875 C199.81712874 526.25633756 197.79123902 524.55842747 195.69726562 522.90673828 C187.73768708 516.61108504 180.60594263 509.62615415 173.45898438 502.43457031 C171.41755873 500.38242084 169.36565111 498.34119204 167.3125 496.30078125 C160.09902172 489.09499528 153.28258573 481.82897826 147.0390625 473.75390625 C146.15759834 472.64709858 145.27609586 471.54032142 144.39453125 470.43359375 C121.3900483 440.67283923 100.29097884 408.65837839 82.16162109 375.71679688 C80.96873829 373.56727234 80.96873829 373.56727234 79.08984375 370.92578125 C78.74308594 370.2090625 78.39632812 369.49234375 78.0390625 368.75390625 C79.30979593 365.26475057 81.50620692 363.0417327 84.109375 360.453125 C84.9240625 359.64037109 85.73875 358.82761719 86.578125 357.99023438 C87.85816406 356.72856445 87.85816406 356.72856445 89.1640625 355.44140625 C89.99421875 354.61189453 90.824375 353.78238281 91.6796875 352.92773438 C96.02839735 348.60969725 100.46030945 344.467784 105.10498047 340.47192383 C108.57280314 337.39150624 111.79237716 334.06400341 115.0390625 330.75390625 C119.56126556 326.14337891 124.15179495 321.73074546 129.04345703 317.51367188 C132.48633872 314.47766855 135.73361523 311.25080592 138.9765625 308.00390625 C139.67821533 307.30144775 140.37986816 306.59898926 141.1027832 305.87524414 C145.6108065 301.3139703 149.80833617 296.62846713 153.77734375 291.5859375 C156.56243877 288.09855599 159.4797525 284.74084422 162.4140625 281.37890625 C170.60045906 271.97627226 178.66845956 262.48600414 186.5390625 252.81640625 C189.03027762 249.76466773 191.53706857 246.72634084 194.04663086 243.68969727 C199.15444274 237.50408388 204.2493655 231.3076919 209.2890625 225.06640625 C209.72323486 224.5343457 210.15740723 224.00228516 210.60473633 223.45410156 C219.58511551 212.27454716 227.46465026 200.25384271 235.2890625 188.25390625 C236.2157819 186.83623791 237.14254028 185.41859505 238.06933594 184.00097656 C286.21442683 115.89343879 286.21442683 115.89343879 307.4765625 37.37890625 C307.49895996 36.54633301 307.52135742 35.71375977 307.54443359 34.85595703 C307.51275856 26.53209143 304.54481574 20.68712408 298.6640625 14.81640625 C294.68369209 11.00090326 290.52133357 7.81206258 285.9140625 4.81640625 C285.07222412 4.26835327 285.07222412 4.26835327 284.21337891 3.70922852 C276.96876403 -0.79210621 269.84610022 -2.71934494 261.4765625 -3.87109375 C260.61192383 -3.99589111 259.74728516 -4.12068848 258.85644531 -4.24926758 C251.26653118 -5.3032669 243.69322714 -5.90977439 236.0390625 -6.24609375 C232.03993047 2.15593973 228.63898055 10.74060847 225.30966187 19.42184448 C223.76496737 23.44409273 222.20416678 27.4600892 220.64453125 31.4765625 C220.33350967 32.27780045 220.0224881 33.07903839 219.70204163 33.90455627 C211.22285156 55.73715689 201.92795407 77.04677882 192.04103088 98.27113342 C189.97593468 102.71113992 187.94828612 107.16507846 185.9609375 111.640625 C180.73630254 123.38298274 174.93731462 134.56284759 168.50390625 145.6875 C164.63468613 152.40000225 160.98969459 159.22728198 157.3515625 166.06640625 C151.68882884 176.69078856 146.00039521 187.29345451 140.0390625 197.75390625 C139.38679688 198.90117187 138.73453125 200.0484375 138.0625 201.23046875 C132.46576596 210.88123854 126.19473825 220.09462951 119.9777832 229.35131836 C115.1217524 236.58804426 110.37192086 243.87928434 105.7265625 251.25390625 C88.18978572 278.99064503 88.18978572 278.99064503 79.1328125 288.5234375 C76.89298539 290.90952198 74.84236502 293.39337685 72.7890625 295.94140625 C69.13060116 300.46331564 65.36213534 304.87169524 61.5390625 309.25390625 C57.80491082 313.53596917 54.11447146 317.8372246 50.5390625 322.25390625 C45.41044119 328.5826437 40.04631579 334.70096459 34.69873047 340.84423828 C26.13440902 350.69862521 17.73645135 360.66800283 9.5546875 370.84375 C8.74515625 371.84535156 7.935625 372.84695313 7.1015625 373.87890625 C6.37066406 374.78898437 5.63976562 375.6990625 4.88671875 376.63671875 C3.0390625 378.75390625 3.0390625 378.75390625 1.0390625 379.75390625 C1.0629731 378.87029199 1.0868837 377.98667772 1.11151886 377.07628727 C2.5986766 321.00267243 3.26103226 264.90681787 4.0484848 208.81993771 C4.10154222 205.04882075 4.15472122 201.27770552 4.20800781 197.5065918 C4.22124094 196.5697257 4.23447407 195.6328596 4.24810821 194.66760362 C4.4646797 179.38912219 4.70777017 164.11117014 4.96048921 148.83324867 C5.22080773 133.06288809 5.45421284 117.29229849 5.66222048 101.52116019 C5.79082742 91.83212309 5.94006407 82.14386718 6.11621302 72.45557583 C6.23445707 65.8403515 6.32645073 59.225087 6.3977645 52.60919159 C6.43961202 48.79766837 6.4929274 44.98722745 6.57745743 41.1763916 C6.66882878 37.04342776 6.70487219 32.91179695 6.73571777 28.77793884 C6.77098934 27.57991809 6.8062609 26.38189734 6.8426013 25.14757293 C6.83857565 17.92183144 5.61769942 13.92034757 0.77813578 8.48298079 C-10.25303173 -2.48476342 -25.07845661 -6.51878221 -40.3125 -6.56518555 C-66.24145605 -6.14723752 -94.24357329 -1.43064066 -112.6171875 18.078125 Z " fill="#000000" transform="translate(190.9609375,12.24609375)"/>
<path d="M0 0 C0.99 0 1.98 0 3 0 C2.46983757 13.89722406 1.75056007 27.7803165 0.94921875 41.6640625 C0.8489701 43.40506353 0.74874572 45.14606595 0.64854431 46.8870697 C0.59758763 47.77236138 0.54663095 48.65765306 0.49413013 49.56977177 C0.4423294 50.46995753 0.39052866 51.3701433 0.3371582 52.29760742 C0.28452411 53.21211638 0.23189001 54.12662535 0.17766094 55.0688467 C-3.37219887 116.84331065 -6.21949844 178.65410438 -8.1875 240.5 C-8.22442963 241.65801117 -8.26135925 242.81602234 -8.29940796 244.00912476 C-8.51784489 250.97973068 -8.71274523 257.95072606 -8.89285278 264.92242432 C-8.96729211 267.79278852 -9.0465571 270.66297928 -9.12838745 273.53314209 C-10.08026909 307.1817342 -10.18802782 340.82512265 -10.18511099 374.48417878 C-10.18541529 379.63823812 -10.19360534 384.79224514 -10.20581055 389.94628906 C-11.26467109 487.07958474 -11.26467109 487.07958474 2 583 C2.45375 582.34 2.9075 581.68 3.375 581 C3.91125 580.34 4.4475 579.68 5 579 C5.66 579 6.32 579 7 579 C6.39301257 583.12751449 4.96189209 586.3321148 3 590 C-1.5076467 589.46968862 -4.41954788 587.74778884 -8 585 C-8 584.34 -8 583.68 -8 583 C-3.25 583.875 -3.25 583.875 -1 585 C-1.24234375 584.19304688 -1.4846875 583.38609375 -1.734375 582.5546875 C-11.33004935 547.78882121 -11.74545113 509.75133319 -13.0703125 473.92578125 C-13.11374535 472.75356899 -13.15717819 471.58135674 -13.20192719 470.37362289 C-14.19807945 442.78019358 -14.31654272 415.19850903 -14.25794983 387.58990097 C-14.24982705 383.53874431 -14.2448992 379.48759378 -14.24060059 375.43643188 C-14.18842861 330.84043716 -13.65810912 286.28523769 -12.09476471 241.71521759 C-11.99573768 238.87787501 -11.89841017 236.04047799 -11.80145264 233.20306396 C-10.09919515 183.46787249 -8.01241666 133.7571392 -5.375 84.0625 C-5.32257015 83.07437065 -5.2701403 82.0862413 -5.21612167 81.06816864 C-4.18409204 61.66518752 -3.10377734 42.26508978 -1.9140625 22.87109375 C-1.836185 21.58517838 -1.7583075 20.299263 -1.67807007 18.97438049 C-1.27963318 12.62256395 -0.77014767 6.31784314 0 0 Z " fill="#000000" transform="translate(22,64)"/>
<path d="M0 0 C0.66 0 1.32 0 2 0 C2.45101074 0.92558716 2.45101074 0.92558716 2.91113281 1.86987305 C17.461342 31.62191643 33.75976144 60.45070048 55 86 C55.43006348 86.52561523 55.86012695 87.05123047 56.30322266 87.59277344 C72.11816125 106.87874725 92.32549678 126.77331308 118 131 C133.12106328 132.43252178 145.90397261 128.2217739 157.7109375 118.84765625 C170.37007775 107.90831517 178.43549192 94.69100365 186 80 C186.52158691 78.99573975 186.52158691 78.99573975 187.05371094 77.97119141 C198.88731095 54.89855763 206.12597557 29.89382441 213 5 C212.01 5.66 211.02 6.32 210 7 C209.01 7 208.02 7 207 7 C207 6.01 207 5.02 207 4 C213.2340628 0.04376784 213.2340628 0.04376784 216.1875 -0.125 C219.07167214 1.66517581 220.36541215 4.08109312 222 7 C222 7.99 222 8.98 222 10 C221.01 10 220.02 10 219 10 C218.01 8.515 218.01 8.515 217 7 C216.52433594 8.53527344 216.52433594 8.53527344 216.0390625 10.1015625 C214.38511891 15.40928427 212.6936113 20.70482603 211 26 C210.63551758 27.14629883 210.27103516 28.29259766 209.89550781 29.47363281 C199.63851623 61.58135835 187.84416529 93.33362211 164 118 C163.31421875 118.7115625 162.6284375 119.423125 161.921875 120.15625 C151.93397094 129.77423169 139.50056621 134.88536174 125.75 135.3125 C101.2767257 134.77369095 82.97172208 120.19918281 66 104 C65.26910156 103.31035156 64.53820312 102.62070312 63.78515625 101.91015625 C58.36899243 96.66559366 53.66813608 90.91090109 49 85 C48.19433594 83.98808594 47.38867188 82.97617187 46.55859375 81.93359375 C28.17153959 58.61007811 8.83491103 30.0997458 -1 2 C-0.67 1.34 -0.34 0.68 0 0 Z " fill="#000000" transform="translate(318,392)"/>
<path d="M0 0 C0.99 0 1.98 0 3 0 C1.84209482 5.90715607 0.28220374 11.36025989 -2.01953125 16.91796875 C-2.31409714 17.64464249 -2.60866302 18.37131622 -2.91215515 19.12001038 C-3.871297 21.47904345 -4.84128617 23.8334139 -5.8125 26.1875 C-6.49236539 27.84790894 -7.17205043 29.50839174 -7.8515625 31.16894531 C-14.02208064 46.20552086 -20.39599648 61.14864667 -27 76 C-27.28576904 76.64330261 -27.57153809 77.28660522 -27.8659668 77.94940186 C-45.74697885 118.16188268 -64.85911624 157.94180782 -87 196 C-87.7115625 197.23242432 -87.7115625 197.23242432 -88.4375 198.48974609 C-94.65861061 209.23196243 -101.31705897 219.66452115 -108.1875 230 C-108.55950531 230.5611853 -108.93151062 231.12237061 -109.31478882 231.70056152 C-121.03012255 249.335907 -133.90357572 266.11520783 -149 281 C-147.02 281.33 -145.04 281.66 -143 282 C-143 282.99 -143 283.98 -143 285 C-144.43739513 285.02712066 -145.87493863 285.04645067 -147.3125 285.0625 C-148.11300781 285.07410156 -148.91351563 285.08570313 -149.73828125 285.09765625 C-152 285 -152 285 -155 284 C-155 280.7 -155 277.4 -155 274 C-154.01 273.67 -153.02 273.34 -152 273 C-151.67 274.65 -151.34 276.3 -151 278 C-136.29875563 263.9243405 -124.31606776 247.36834857 -113.125 230.4375 C-112.69112976 229.78359283 -112.25725952 229.12968567 -111.8102417 228.45596313 C-104.54213328 217.49319687 -97.53888678 206.41612703 -91 195 C-90.46777832 194.07541992 -89.93555664 193.15083984 -89.38720703 192.19824219 C-80.0937238 175.99819972 -71.40380691 159.50287446 -62.94464111 142.85675049 C-62.0056875 141.01117913 -61.0635556 139.16726265 -60.12060547 137.32373047 C-50.47584974 118.45000753 -41.47112834 99.33030332 -32.87054443 79.95922852 C-32.03924146 78.08831597 -31.20451933 76.21892378 -30.36962891 74.34960938 C-21.22176965 53.8160392 -12.87567609 32.97076565 -4.578125 12.08203125 C-4.23084854 11.20845474 -3.88357208 10.33487823 -3.52577209 9.43482971 C-3.20692551 8.62980515 -2.88807892 7.82478058 -2.55957031 6.99536133 C-2.14206512 5.94195305 -2.14206512 5.94195305 -1.71612549 4.86726379 C-1.10010714 3.2610247 -0.54401127 1.63203381 0 0 Z " fill="#000000" transform="translate(387,18)"/>
<path d="M0 0 C2.875 -0.125 2.875 -0.125 6 0 C8 2 8 2 8.0625 4.8125 C8.041875 5.864375 8.02125 6.91625 8 8 C8.291224 9.67453799 8.61070799 11.34550895 9 13 C6.67097204 15.15650737 5.60939697 16.01450945 2.375 15.9375 C0 15 0 15 -1.3125 12.9375 C-1.539375 12.298125 -1.76625 11.65875 -2 11 C-1.01 11 -0.02 11 1 11 C1 11.66 1 12.32 1 13 C2.32 12.67 3.64 12.34 5 12 C5 11.34 5 10.68 5 10 C4.01 9.67 3.02 9.34 2 9 C2 8.01 2 7.02 2 6 C2.99 5.34 3.98 4.68 5 4 C5 3.34 5 2.68 5 2 C1.88214887 2.64644661 1.88214887 2.64644661 1 5 C0.01 4.67 -0.98 4.34 -2 4 C-1.34 2.68 -0.68 1.36 0 0 Z " fill="#000000" transform="translate(371,459)"/>
<path d="M0 0 C2.875 -0.125 2.875 -0.125 6 0 C6.66 0.66 7.32 1.32 8 2 C7.83754442 5.73647845 7.41216356 7.52538742 4.9375 10.375 C4.298125 10.91125 3.65875 11.4475 3 12 C4.65 12.33 6.3 12.66 8 13 C8 13.66 8 14.32 8 15 C4.7 15 1.4 15 -2 15 C0 11 0 11 2.125 8.4375 C4.30485538 6.11622611 4.30485538 6.11622611 4 3 C3.34 3 2.68 3 2 3 C1.67 3.66 1.34 4.32 1 5 C0.01 5 -0.98 5 -2 5 C-1.34 3.35 -0.68 1.7 0 0 Z " fill="#000000" transform="translate(297,182)"/>
<path d="M0 0 C0 4.95 0 9.9 0 15 C-0.99 15 -1.98 15 -3 15 C-3 11.37 -3 7.74 -3 4 C-3.99 4.33 -4.98 4.66 -6 5 C-5.625 3.0625 -5.625 3.0625 -5 1 C-3 0 -3 0 0 0 Z " fill="#000000" transform="translate(7,323)"/>
<path d="M0 0 C3.36591866 1.44253657 5.51047079 3.33264727 8 6 C7.67 6.99 7.34 7.98 7 9 C3.63408134 7.55746343 1.48952921 5.66735273 -1 3 C-0.67 2.01 -0.34 1.02 0 0 Z " fill="#000000" transform="translate(296,529)"/>
<path d="M0 0 C0.66 0.33 1.32 0.66 2 1 C0.47291037 4.43595166 -1.59927045 7.11912454 -4 10 C-4.99 9.67 -5.98 9.34 -7 9 C-5.03681826 5.46627288 -2.95929119 2.75520215 0 0 Z " fill="#000000" transform="translate(524,560)"/>
<path d="M0 0 C2.74277578 3.19990508 4.6302836 6.00499382 6 10 C5.01 10.33 4.02 10.66 3 11 C2.16121545 9.71186658 1.32913217 8.41936744 0.5 7.125 C0.0359375 6.40570313 -0.428125 5.68640625 -0.90625 4.9453125 C-2 3 -2 3 -2 1 C-1.34 0.67 -0.68 0.34 0 0 Z " fill="#000000" transform="translate(237,450)"/>
<path d="M0 0 C3.93619738 0.56231391 6.79192446 1.61685817 10 4 C10 4.99 10 5.98 10 7 C6.06380262 6.43768609 3.20807554 5.38314183 0 3 C0 2.01 0 1.02 0 0 Z " fill="#000000" transform="translate(356,579)"/>
<path d="M0 0 C3.99500618 1.3697164 6.80009492 3.25722422 10 6 C9.67 6.66 9.34 7.32 9 8 C4.56541027 6.6062718 2.12621626 4.39417765 -1 1 C-0.67 0.67 -0.34 0.34 0 0 Z " fill="#000000" transform="translate(340,568)"/>
<path d="M0 0 C0.66 0.33 1.32 0.66 2 1 C1.43454163 4.95820859 0.19097652 7.6659053 -2 11 C-2.99 10.67 -3.98 10.34 -5 10 C-3.35 6.7 -1.7 3.4 0 0 Z " fill="#000000" transform="translate(555,510)"/>
<path d="M0 0 C0 0.66 0 1.32 0 2 C-6.5 5 -6.5 5 -11 5 C-11 4.01 -11 3.02 -11 2 C-9.73392393 1.46770674 -8.46189588 0.94955456 -7.1875 0.4375 C-6.47980469 0.14746094 -5.77210938 -0.14257812 -5.04296875 -0.44140625 C-3 -1 -3 -1 0 0 Z " fill="#000000" transform="translate(183,414)"/>
<path d="M0 0 C0.66 0.33 1.32 0.66 2 1 C1 4 1 4 -1.8125 5.75 C-4.96403086 6.98589446 -5.96929372 7.28222189 -9 6 C-6.45368965 3.02930459 -3.57769851 1.5224249 0 0 Z " fill="#000000" transform="translate(199,404)"/>
<path d="M0 0 C0.66 0.33 1.32 0.66 2 1 C0.50164772 5.66154042 -2.88463591 6.86610751 -7 9 C-7 7.68 -7 6.36 -7 5 C-5.46875 3.515625 -5.46875 3.515625 -3.5 2.25 C-2.8503125 1.82203125 -2.200625 1.3940625 -1.53125 0.953125 C-1.0259375 0.63859375 -0.520625 0.3240625 0 0 Z " fill="#000000" transform="translate(232,382)"/>
<path d="M0 0 C0.99 0.33 1.98 0.66 3 1 C1.35 4.3 -0.3 7.6 -2 11 C-2.66 10.67 -3.32 10.34 -4 10 C-3.43454163 6.04179141 -2.19097652 3.3340947 0 0 Z " fill="#000000" transform="translate(407,144)"/>
<path d="M0 0 C0.99 0 1.98 0 3 0 C3 3.63 3 7.26 3 11 C2.01 11 1.02 11 0 11 C0 7.37 0 3.74 0 0 Z " fill="#000000" transform="translate(132,611)"/>
<path d="M0 0 C0.33 0.99 0.66 1.98 1 3 C-5.5 6 -5.5 6 -10 6 C-10 5.01 -10 4.02 -10 3 C-8.70990357 2.49596232 -7.41786211 1.99690074 -6.125 1.5 C-5.04605469 1.08234375 -5.04605469 1.08234375 -3.9453125 0.65625 C-2 0 -2 0 0 0 Z " fill="#000000" transform="translate(479,596)"/>
<path d="M0 0 C0.66 0 1.32 0 2 0 C2 3.63 2 7.26 2 11 C1.01 11 0.02 11 -1 11 C-1.02688151 9.35425434 -1.04634123 7.70838587 -1.0625 6.0625 C-1.07410156 5.14597656 -1.08570313 4.22945312 -1.09765625 3.28515625 C-1 1 -1 1 0 0 Z " fill="#000000" transform="translate(132,590)"/>
<path d="M0 0 C0 0.66 0 1.32 0 2 C-6.625 6 -6.625 6 -10 6 C-10 5.01 -10 4.02 -10 3 C-3.375 -1.125 -3.375 -1.125 0 0 Z " fill="#000000" transform="translate(497,588)"/>
<path d="M0 0 C-0.33589994 3.13506611 -1.02665172 4.025249 -3.375 6.25 C-6 8 -6 8 -9 8 C-7.13554727 3.64961029 -5.02378599 0 0 0 Z " fill="#000000" transform="translate(512,575)"/>
<path d="M0 0 C4.37859255 0.50522222 6.81651224 3.17827222 10 6 C9.67 6.66 9.34 7.32 9 8 C5.56801397 6.76067171 2.69674368 5.49698489 0 3 C0 2.01 0 1.02 0 0 Z " fill="#000000" transform="translate(324,556)"/>
<path d="M0 0 C0.99 0 1.98 0 3 0 C3 3.63 3 7.26 3 11 C2.01 11 1.02 11 0 11 C0 7.37 0 3.74 0 0 Z " fill="#000000" transform="translate(129,530)"/>
<path d="M0 0 C0.99 0 1.98 0 3 0 C2.43768609 3.93619738 1.38314183 6.79192446 -1 10 C-1.99 10 -2.98 10 -4 10 C-3.29445932 6.33118845 -1.72264494 3.29549466 0 0 Z " fill="#000000" transform="translate(545,528)"/>
<path d="M0 0 C3.73884332 2.65654657 5.64978174 4.58110387 7 9 C6.01 9 5.02 9 4 9 C1.25 6.1875 1.25 6.1875 -1 3 C-0.67 2.01 -0.34 1.02 0 0 Z " fill="#000000" transform="translate(283,514)"/>
<path d="M0 0 C0.99 0 1.98 0 3 0 C3 3.63 3 7.26 3 11 C2.01 11 1.02 11 0 11 C0 7.37 0 3.74 0 0 Z " fill="#000000" transform="translate(128,509)"/>
<path d="M0 0 C0.66 0 1.32 0 2 0 C3.32421875 1.42578125 3.32421875 1.42578125 4.6875 3.3125 C5.14511719 3.92738281 5.60273438 4.54226563 6.07421875 5.17578125 C6.53248047 6.07876953 6.53248047 6.07876953 7 7 C6.67 7.99 6.34 8.98 6 10 C3.03595495 7.19195732 0.55500981 4.81684226 -1 1 C-0.67 0.67 -0.34 0.34 0 0 Z " fill="#000000" transform="translate(270,499)"/>
<path d="M0 0 C2.33333333 2.33333333 4.66666667 4.66666667 7 7 C7 7.99 7 8.98 7 10 C6.01 10 5.02 10 4 10 C2.578125 8.57421875 2.578125 8.57421875 1.25 6.6875 C0.80140625 6.07261719 0.3528125 5.45773437 -0.109375 4.82421875 C-1 3 -1 3 0 0 Z " fill="#000000" transform="translate(258,483)"/>
<path d="M0 0 C0.99 0 1.98 0 3 0 C3 3.63 3 7.26 3 11 C2.01 11 1.02 11 0 11 C0 7.37 0 3.74 0 0 Z " fill="#000000" transform="translate(126,449)"/>
<path d="M0 0 C2.61724095 2.36797991 4.32861729 4.89600354 6 8 C6 8.66 6 9.32 6 10 C5.01 10.33 4.02 10.66 3 11 C-1.06153846 4.6 -1.06153846 4.6 -0.75 1.5625 C-0.5025 1.046875 -0.255 0.53125 0 0 Z " fill="#000000" transform="translate(227,433)"/>
<path d="M0 0 C0.99 0 1.98 0 3 0 C3 3.63 3 7.26 3 11 C2.01 11 1.02 11 0 11 C0 7.37 0 3.74 0 0 Z " fill="#000000" transform="translate(125,428)"/>
<path d="M0 0 C0.99 0 1.98 0 3 0 C2.125 7.625 2.125 7.625 1 11 C0.01 11 -0.98 11 -2 11 C-1.34 7.37 -0.68 3.74 0 0 Z " fill="#000000" transform="translate(585,417)"/>
<path d="M0 0 C0.99 0 1.98 0 3 0 C4.32 2.97 5.64 5.94 7 9 C5.68 9 4.36 9 3 9 C0 3.375 0 3.375 0 0 Z " fill="#000000" transform="translate(217,416)"/>
<path d="M0 0 C0.99 0.33 1.98 0.66 3 1 C3 1.66 3 2.32 3 3 C0.03 4.65 -2.94 6.3 -6 8 C-6 6.68 -6 5.36 -6 4 C-3.1875 1.6875 -3.1875 1.6875 0 0 Z " fill="#000000" transform="translate(215,394)"/>
<path d="M0 0 C0.99 0 1.98 0 3 0 C3 3.63 3 7.26 3 11 C2.01 11 1.02 11 0 11 C0 7.37 0 3.74 0 0 Z " fill="#000000" transform="translate(124,388)"/>
<path d="M0 0 C0.99 0 1.98 0 3 0 C3 3.63 3 7.26 3 11 C2.01 11 1.02 11 0 11 C0 7.37 0 3.74 0 0 Z " fill="#000000" transform="translate(123,368)"/>
<path d="M0 0 C0.66 0.33 1.32 0.66 2 1 C0.55873214 4.36295835 -1.20592655 6.62927102 -4 9 C-4.99 9 -5.98 9 -7 9 C-6.82374165 6.62051228 -6.30280227 5.29774151 -4.59765625 3.62109375 C-3.09350908 2.37884514 -1.54870149 1.18623944 0 0 Z " fill="#000000" transform="translate(262,356)"/>
<path d="M0 0 C0.99 0 1.98 0 3 0 C3 3.63 3 7.26 3 11 C2.01 11 1.02 11 0 11 C0 7.37 0 3.74 0 0 Z " fill="#000000" transform="translate(121,307)"/>
<path d="M0 0 C0.99 0 1.98 0 3 0 C3 3.63 3 7.26 3 11 C2.01 11 1.02 11 0 11 C0 7.37 0 3.74 0 0 Z " fill="#000000" transform="translate(120,287)"/>
<path d="M0 0 C0.99 0.33 1.98 0.66 3 1 C1.02 3.97 -0.96 6.94 -3 10 C-3.99 9.67 -4.98 9.34 -6 9 C-4.47291037 5.56404834 -2.40072955 2.88087546 0 0 Z " fill="#000000" transform="translate(326,281)"/>
<path d="M0 0 C0.99 0 1.98 0 3 0 C3 3.63 3 7.26 3 11 C2.01 11 1.02 11 0 11 C0 7.37 0 3.74 0 0 Z " fill="#000000" transform="translate(119,246)"/>
<path d="M0 0 C0.99 0.33 1.98 0.66 3 1 C0.525 5.455 0.525 5.455 -2 10 C-2.99 10 -3.98 10 -5 10 C-3.84414715 6.08788267 -2.64465038 3.1254959 0 0 Z " fill="#000000" transform="translate(359,231)"/>
<path d="M0 0 C0.99 0 1.98 0 3 0 C3 3.63 3 7.26 3 11 C2.01 11 1.02 11 0 11 C0 7.37 0 3.74 0 0 Z " fill="#000000" transform="translate(118,226)"/>
<path d="M0 0 C0.99 0 1.98 0 3 0 C3 3.63 3 7.26 3 11 C2.01 11 1.02 11 0 11 C0 7.37 0 3.74 0 0 Z " fill="#000000" transform="translate(116,165)"/>
<path d="M0 0 C0.99 0.33 1.98 0.66 3 1 C1.68 3.97 0.36 6.94 -1 10 C-1.99 10 -2.98 10 -4 10 C-3.43454163 6.04179141 -2.19097652 3.3340947 0 0 Z " fill="#000000" transform="translate(398,162)"/>
<path d="M0 0 C0.99 0 1.98 0 3 0 C3 3.63 3 7.26 3 11 C2.01 11 1.02 11 0 11 C0 7.37 0 3.74 0 0 Z " fill="#000000" transform="translate(115,145)"/>
<path d="M0 0 C0.99 0.33 1.98 0.66 3 1 C1.68 4.3 0.36 7.6 -1 11 C-1.99 10.67 -2.98 10.34 -4 10 C-3.52449439 8.51965236 -3.04448784 7.04074979 -2.5625 5.5625 C-2.29566406 4.73878906 -2.02882813 3.91507812 -1.75390625 3.06640625 C-1 1 -1 1 0 0 Z " fill="#000000" transform="translate(424,108)"/>
<path d="M0 0 C0.99 0 1.98 0 3 0 C3 3.63 3 7.26 3 11 C2.01 11 1.02 11 0 11 C0 7.37 0 3.74 0 0 Z " fill="#000000" transform="translate(113,84)"/>
<path d="M0 0 C0.99 0 1.98 0 3 0 C3 3.63 3 7.26 3 11 C2.01 11 1.02 11 0 11 C0 7.37 0 3.74 0 0 Z " fill="#000000" transform="translate(112,64)"/>
<path d="M0 0 C0.99 0.33 1.98 0.66 3 1 C2.57742724 2.4835001 2.13643678 3.96176424 1.6875 5.4375 C1.44386719 6.26121094 1.20023437 7.08492187 0.94921875 7.93359375 C0.63597656 8.61550781 0.32273437 9.29742187 0 10 C-0.99 10.33 -1.98 10.66 -3 11 C-2.44894091 7.0507432 -1.61064629 3.65079826 0 0 Z " fill="#000000" transform="translate(447,53)"/>
<path d="M0 0 C0.99 0.33 1.98 0.66 3 1 C-0.625 7.75 -0.625 7.75 -4 10 C-4 5.28093812 -2.71245796 3.72962969 0 0 Z " fill="#000000" transform="translate(535,545)"/>
<path d="M0 0 C0.66 0.33 1.32 0.66 2 1 C1.01 4.3 0.02 7.6 -1 11 C-1.99 11 -2.98 11 -4 11 C-3.48964169 6.6109185 -2.47785723 3.66291938 0 0 Z " fill="#000000" transform="translate(563,492)"/>
<path d="M0 0 C0.99 0.33 1.98 0.66 3 1 C2.01 4.3 1.02 7.6 0 11 C-0.99 10.67 -1.98 10.34 -3 10 C-2.01 6.7 -1.02 3.4 0 0 Z " fill="#000000" transform="translate(569,474)"/>
<path d="M0 0 C0.99 0.33 1.98 0.66 3 1 C3 4.3 3 7.6 3 11 C2.01 11 1.02 11 0 11 C0 7.37 0 3.74 0 0 Z " fill="#000000" transform="translate(127,469)"/>
<path d="M0 0 C2.96404505 2.80804268 5.44499019 5.18315774 7 9 C5.68 9 4.36 9 3 9 C0.6875 6.1875 0.6875 6.1875 -1 3 C-0.67 2.01 -0.34 1.02 0 0 Z " fill="#000000" transform="translate(247,467)"/>
<path d="M0 0 C0.99 0.33 1.98 0.66 3 1 C2.745504 2.48206495 2.47088238 3.96068615 2.1875 5.4375 C2.03667969 6.26121094 1.88585937 7.08492188 1.73046875 7.93359375 C1.48941406 8.61550781 1.24835937 9.29742187 1 10 C0.01 10.33 -0.98 10.66 -2 11 C-1.125 3.375 -1.125 3.375 0 0 Z " fill="#000000" transform="translate(575,455)"/>
<path d="M0 0 C0.66 0 1.32 0 2 0 C1.85892253 1.45880109 1.71197585 2.91703551 1.5625 4.375 C1.48128906 5.18710937 1.40007813 5.99921875 1.31640625 6.8359375 C1 9 1 9 0 11 C-0.99 11 -1.98 11 -3 11 C-2.69217504 9.35328588 -2.37860766 7.70764424 -2.0625 6.0625 C-1.88847656 5.14597656 -1.71445312 4.22945313 -1.53515625 3.28515625 C-1 1 -1 1 0 0 Z " fill="#000000" transform="translate(581,436)"/>
<path d="M0 0 C-0.33589994 3.13506611 -1.02665172 4.025249 -3.375 6.25 C-6 8 -6 8 -9 8 C-7.47364599 4.11473526 -4.49771687 0 0 0 Z " fill="#000000" transform="translate(249,370)"/>
<path d="M0 0 C0.99 0.33 1.98 0.66 3 1 C1.02 3.97 -0.96 6.94 -3 10 C-3.99 9.01 -4.98 8.02 -6 7 C-4.02 4.69 -2.04 2.38 0 0 Z " fill="#000000" transform="translate(314,297)"/>
<path d="M0 0 C0.99 0 1.98 0 3 0 C1.76067171 3.43198603 0.49698489 6.30325632 -2 9 C-2.99 9 -3.98 9 -5 9 C-3.76067171 5.56801397 -2.49698489 2.69674368 0 0 Z " fill="#000000" transform="translate(337,265)"/>
<path d="M0 0 C0.99 0.33 1.98 0.66 3 1 C1.68 3.64 0.36 6.28 -1 9 C-2.32 9 -3.64 9 -5 9 C-3.35 6.03 -1.7 3.06 0 0 Z " fill="#000000" transform="translate(348,248)"/>
<path d="M0 0 C0.99 0.33 1.98 0.66 3 1 C1.68 3.64 0.36 6.28 -1 9 C-2.32 9 -3.64 9 -5 9 C-3.35 6.03 -1.7 3.06 0 0 Z " fill="#000000" transform="translate(369,214)"/>
<path d="M0 0 C0.99 0.33 1.98 0.66 3 1 C1.68 3.64 0.36 6.28 -1 9 C-2.32 9 -3.64 9 -5 9 C-3.35 6.03 -1.7 3.06 0 0 Z " fill="#000000" transform="translate(379,197)"/>
<path d="M0 0 C0.66 0.33 1.32 0.66 2 1 C1.43454163 4.95820859 0.19097652 7.6659053 -2 11 C-2.99 10.67 -3.98 10.34 -5 10 C-3.35 6.7 -1.7 3.4 0 0 Z " fill="#000000" transform="translate(389,179)"/>
<path d="M0 0 C0.99 0.33 1.98 0.66 3 1 C1.68 4.3 0.36 7.6 -1 11 C-1.99 10.67 -2.98 10.34 -4 10 C-3.52449439 8.51965236 -3.04448784 7.04074979 -2.5625 5.5625 C-2.29566406 4.73878906 -2.02882813 3.91507812 -1.75390625 3.06640625 C-1 1 -1 1 0 0 Z " fill="#000000" transform="translate(432,90)"/>
<path d="M0 0 C0.33 0.99 0.66 1.98 1 3 C-2.63 3.66 -6.26 4.32 -10 5 C-10 4.01 -10 3.02 -10 2 C-8.7090864 1.66376204 -7.41723903 1.33110751 -6.125 1 C-5.40570313 0.814375 -4.68640625 0.62875 -3.9453125 0.4375 C-2 0 -2 0 0 0 Z " fill="#000000" transform="translate(460,602)"/>
<path d="M0 0 C3.3 0.33 6.6 0.66 10 1 C10 1.99 10 2.98 10 4 C6.7 3.67 3.4 3.34 0 3 C0 2.01 0 1.02 0 0 Z " fill="#000000" transform="translate(411,602)"/>
<path d="M0 0 C3.3 0.99 6.6 1.98 10 3 C10 3.99 10 4.98 10 6 C6.37 5.01 2.74 4.02 -1 3 C-0.67 2.01 -0.34 1.02 0 0 Z " fill="#000000" transform="translate(392,596)"/>
<path d="M0 0 C4.95 1.98 4.95 1.98 10 4 C9.67 4.99 9.34 5.98 9 7 C5.08788267 5.84414715 2.1254959 4.64465038 -1 2 C-0.67 1.34 -0.34 0.68 0 0 Z " fill="#000000" transform="translate(374,588)"/>
<path d="M0 0 C0.99 0 1.98 0 3 0 C3 3.63 3 7.26 3 11 C2.34 11 1.68 11 1 11 C-0.20272819 8.59454362 -0.10071472 7.05003047 -0.0625 4.375 C-0.05347656 3.55773437 -0.04445312 2.74046875 -0.03515625 1.8984375 C-0.02355469 1.27195312 -0.01195312 0.64546875 0 0 Z " fill="#000000" transform="translate(130,570)"/>
<path d="M0 0 C-0.33 0.99 -0.66 1.98 -1 3 C-5.455 3.495 -5.455 3.495 -10 4 C-10 3.01 -10 2.02 -10 1 C-8.71073008 0.63720544 -7.41846728 0.28503302 -6.125 -0.0625 C-5.40570313 -0.25972656 -4.68640625 -0.45695312 -3.9453125 -0.66015625 C-2 -1 -2 -1 0 0 Z " fill="#000000" transform="translate(164,420)"/>
<path d="M0 0 C0.66 0.33 1.32 0.66 2 1 C0.55873214 4.36295835 -1.20592655 6.62927102 -4 9 C-4.99 9 -5.98 9 -7 9 C-5.44499019 5.18315774 -2.96404505 2.80804268 0 0 Z " fill="#000000" transform="translate(276,342)"/>
<path d="M0 0 C0.99 0 1.98 0 3 0 C2.82374165 2.37948772 2.30280227 3.70225849 0.59765625 5.37890625 C-0.90649092 6.62115486 -2.45129851 7.81376056 -4 9 C-4 4.32165993 -3.1782099 3.2690159 0 0 Z " fill="#000000" transform="translate(288,328)"/>
<path d="M0 0 C0.66 0.33 1.32 0.66 2 1 C0.64978174 5.41889613 -1.26115668 7.34345343 -5 10 C-5 4.69520066 -3.4637943 3.81017373 0 0 Z " fill="#000000" transform="translate(302,312)"/>
<path d="M0 0 C0.99 0 1.98 0 3 0 C3 3.63 3 7.26 3 11 C2.34 11 1.68 11 1 11 C-0.20272819 8.59454362 -0.10071472 7.05003047 -0.0625 4.375 C-0.05347656 3.55773437 -0.04445313 2.74046875 -0.03515625 1.8984375 C-0.02355469 1.27195313 -0.01195313 0.64546875 0 0 Z " fill="#000000" transform="translate(117,206)"/>
<path d="M0 0 C0.66 0.33 1.32 0.66 2 1 C1.01 3.97 0.02 6.94 -1 10 C-1.99 10 -2.98 10 -4 10 C-3.43454163 6.04179141 -2.19097652 3.3340947 0 0 Z " fill="#000000" transform="translate(416,126)"/>
<path d="M0 0 C0.66 0 1.32 0 2 0 C3.20272819 2.40545638 3.10071472 3.94996953 3.0625 6.625 C3.05347656 7.44226563 3.04445313 8.25953125 3.03515625 9.1015625 C3.02355469 9.72804688 3.01195313 10.35453125 3 11 C2.01 11 1.02 11 0 11 C0 7.37 0 3.74 0 0 Z " fill="#000000" transform="translate(114,104)"/>
<path d="M0 0 C0.99 0 1.98 0 3 0 C2.49287967 3.71888239 1.88391785 6.73454239 0 10 C-0.99 10 -1.98 10 -3 10 C-2.01 6.7 -1.02 3.4 0 0 Z " fill="#000000" transform="translate(439,72)"/>
<path d="M0 0 C0.99 0 1.98 0 3 0 C4.17571451 3.67410785 4.07366746 7.16929183 4 11 C3.01 11 2.02 11 1 11 C0.67 7.37 0.34 3.74 0 0 Z " fill="#000000" transform="translate(129,550)"/>
<path d="M0 0 C3.36591866 1.44253657 5.51047079 3.33264727 8 6 C7.67 6.99 7.34 7.98 7 9 C5.82460004 8.07347299 4.65989423 7.13336613 3.5 6.1875 C2.52546875 5.40439453 2.52546875 5.40439453 1.53125 4.60546875 C0 3 0 3 0 0 Z " fill="#000000" transform="translate(310,543)"/>
<path d="M0 0 C0.99 0 1.98 0 3 0 C3.33 3.63 3.66 7.26 4 11 C3.01 11 2.02 11 1 11 C0.67 7.37 0.34 3.74 0 0 Z " fill="#000000" transform="translate(127,489)"/>
<path d="M0 0 C0.99 0 1.98 0 3 0 C3.33 3.63 3.66 7.26 4 11 C3.01 11 2.02 11 1 11 C0.67 7.37 0.34 3.74 0 0 Z " fill="#000000" transform="translate(124,408)"/>
<path d="M0 0 C0.99 0 1.98 0 3 0 C3 3.63 3 7.26 3 11 C2.34 11 1.68 11 1 11 C-0.28317892 7.15046324 -0.06643637 4.05261865 0 0 Z " fill="#000000" transform="translate(122,347)"/>
<path d="M0 0 C0.66 0 1.32 0 2 0 C3.28317892 3.84953676 3.06643637 6.94738135 3 11 C2.01 11 1.02 11 0 11 C0 7.37 0 3.74 0 0 Z " fill="#000000" transform="translate(122,327)"/>
<path d="M0 0 C0.99 0 1.98 0 3 0 C3.33 3.63 3.66 7.26 4 11 C3.01 11 2.02 11 1 11 C0.67 7.37 0.34 3.74 0 0 Z " fill="#000000" transform="translate(119,266)"/>
<path d="M0 0 C0.99 0 1.98 0 3 0 C3.33 3.3 3.66 6.6 4 10 C3.01 10.33 2.02 10.66 1 11 C-0.17571451 7.32589215 -0.07366746 3.83070817 0 0 Z " fill="#000000" transform="translate(114,125)"/>
<path d="M0 0 C0.66 0 1.32 0 2 0 C2.33 3.63 2.66 7.26 3 11 C2.01 11 1.02 11 0 11 C-0.19406478 9.35492782 -0.38007935 7.70890406 -0.5625 6.0625 C-0.66691406 5.14597656 -0.77132812 4.22945312 -0.87890625 3.28515625 C-0.91886719 2.53105469 -0.95882812 1.77695313 -1 1 C-0.67 0.67 -0.34 0.34 0 0 Z " fill="#000000" transform="translate(117,185)"/>
<path d="M0 0 C3.63 0.33 7.26 0.66 11 1 C11 1.66 11 2.32 11 3 C7.37 3 3.74 3 0 3 C0 2.01 0 1.02 0 0 Z " fill="#000000" transform="translate(430,604)"/>
<path d="M0 0 C2.64 0 5.28 0 8 0 C8.33 0.99 8.66 1.98 9 3 C6.03 3 3.06 3 0 3 C0 2.01 0 1.02 0 0 Z " fill="#000000" transform="translate(139,421)"/>
<path d="M0 0 C0.66 0.33 1.32 0.66 2 1 C2 2.65 2 4.3 2 6 C1.01 6 0.02 6 -1 6 C-1.042721 4.33388095 -1.04063832 2.66617115 -1 1 C-0.67 0.67 -0.34 0.34 0 0 Z " fill="#000000" transform="translate(589,402)"/>
<path d="M0 0 C1.5 1.3125 1.5 1.3125 3 3 C3 3.99 3 4.98 3 6 C2.01 6 1.02 6 0 6 C-0.38218767 4.34385343 -0.71395102 2.67542976 -1 1 C-0.67 0.67 -0.34 0.34 0 0 Z " fill="#000000" transform="translate(212,402)"/>
<path d="M0 0 C0.66 0.33 1.32 0.66 2 1 C1.67 2.65 1.34 4.3 1 6 C0.01 6 -0.98 6 -2 6 C-1.125 1.125 -1.125 1.125 0 0 Z " fill="#000000" transform="translate(453,39)"/>
<path d="M0 0 C0.99 0 1.98 0 3 0 C3 1.98 3 3.96 3 6 C2.34 6 1.68 6 1 6 C0.67 4.02 0.34 2.04 0 0 Z " fill="#000000" transform="translate(132,631)"/>
<path d="M0 0 C0.99 0.33 1.98 0.66 3 1 C2.67 2.65 2.34 4.3 2 6 C1.34 6 0.68 6 0 6 C0 4.02 0 2.04 0 0 Z " fill="#000000" transform="translate(112,49)"/>
<path d="M0 0 C1.32 0 2.64 0 4 0 C4 0.99 4 1.98 4 3 C2.68 2.67 1.36 2.34 0 2 C0 1.34 0 0.68 0 0 Z " fill="#000000" transform="translate(128,421)"/>
</svg>
