<?xml version="1.0" encoding="UTF-8"?>
<svg version="1.1" xmlns="http://www.w3.org/2000/svg" width="706" height="761">
<path d="M0 0 C0.72912598 0.35078613 1.45825195 0.70157227 2.20947266 1.06298828 C30.82971868 15.02455187 58.64414932 38.06238792 70.046875 68.82421875 C75.00367573 85.34011626 79.32173673 103.30626995 71.77734375 119.6484375 C66.28508932 129.59263076 58.62870672 136.88803056 48 141 C36.72121075 144.25213915 21.48429479 143.24214739 11 138 C6.24246296 135.12417537 4.69667131 132.94655954 3.1640625 127.59765625 C2.63308352 125.42357835 2.12107234 123.24480741 1.625 121.0625 C-5.05541467 94.28671113 -14.76713051 61.59874542 -39.81640625 46.27734375 C-57.1977399 37.0541328 -78.44920441 36.05494638 -97.26953125 41.61328125 C-137.08564296 56.41403482 -154.82760991 90.09591973 -173 126 C-173.40025391 126.78439453 -173.80050781 127.56878906 -174.21289062 128.37695312 C-185.16242419 149.98837926 -189.76720353 173.06640826 -194.52355957 196.64807129 C-194.97931219 198.89787547 -195.44319685 201.14585038 -195.90917969 203.39355469 C-208.19153723 263.04766072 -206.68020682 327.67848628 -184.9375 384.875 C-184.53837402 385.92606934 -184.13924805 386.97713867 -183.72802734 388.06005859 C-179.51848665 398.77821 -174.32292497 408.11788766 -167 417 C-166.278125 417.99 -165.55625 418.98 -164.8125 420 C-155.33941435 431.14480665 -139.27170741 439.92713478 -124.67578125 441.31640625 C-101.61763919 442.07602623 -80.67786122 433.19364982 -63.3125 418.3125 C-55.37620417 410.86793431 -49.8149836 401.72089635 -44.38671875 392.3515625 C-43.49563287 390.84048166 -42.56320896 389.35263476 -41.58203125 387.8984375 C-29.32550579 369.30006374 -24.00834023 344.75028804 -19.4375 323.25 C-17.15160475 312.70999884 -14.40698189 302.46576996 -5.5 295.515625 C15.374993 282.8601605 42.5715249 278.70536767 66.23828125 284.02734375 C76.56459187 286.69738668 86.38022645 289.79628532 92.3828125 299.15625 C93.83801328 302.04834714 94.9322589 304.94190655 96 308 C96.22896973 308.65049316 96.45793945 309.30098633 96.69384766 309.97119141 C109.70289044 348.04368687 110.99127549 390.27268382 112.9987793 430.03833008 C113.05836319 431.21134674 113.11794708 432.3843634 113.17933655 433.59292603 C113.29064656 435.80249923 113.39964355 438.01219071 113.50584412 440.22201538 C113.82034686 446.50623048 114.30608566 452.74607137 115 459 C156.84336633 424.30062304 181.51487305 376.94294578 192.54345703 324.1796875 C193.32567565 320.44511646 194.16757183 316.7236443 195 313 C193.68 312.34 192.36 311.68 191 311 C191 310.34 191 309.68 191 309 C190.34 309 189.68 309 189 309 C188.9582666 309.79269287 188.9165332 310.58538574 188.87353516 311.40209961 C188.37193627 319.33472808 187.2161683 326.83621095 185.375 334.5625 C185.10848633 335.68946289 184.84197266 336.81642578 184.56738281 337.97753906 C176.45455047 371.24863197 160.99256317 401.9311272 139.125 428.25 C138.67261963 428.79946289 138.22023926 429.34892578 137.75415039 429.91503906 C135.41047006 432.66922412 133.41129978 434.69894613 130 436 C130 432 130 432 131.29296875 430.4921875 C131.91816406 429.95851563 132.54335938 429.42484375 133.1875 428.875 C161.31602346 402.04088647 181.388623 354.29304922 185 316 C185.02361111 314.00013938 185.02902452 311.99978938 185 310 C183.68 310.66 182.36 311.32 181 312 C181 310.68 181 309.36 181 308 C186.11363636 303 186.11363636 303 190 303 C191.9249647 304.82193842 193.37535531 306.89235283 195 309 C196.72645909 306.41031136 197.87109507 304.07347822 199.125 301.25 C202.13167781 295.23664437 205.91711763 290.74773473 212.19921875 288.05859375 C219.09535319 286.14500671 225.03828857 287.4052323 231.25 290.75 C239.41127728 297.42740868 242.19287464 304.99500412 243.39770508 315.45166016 C243.81779332 328.46850258 240.67867037 340.38701476 237.34814453 352.90209961 C236.37737118 356.55358101 235.43821321 360.21208397 234.50390625 363.87304688 C230.09427543 380.95224652 225.05683138 396.92544439 216.75 412.5625 C216.1828125 413.63894775 215.615625 414.71539551 215.03125 415.82446289 C210.88588624 423.58243182 206.46690548 430.99419915 201.33496094 438.13525391 C199.83902908 440.22485294 198.37715709 442.33651016 196.9140625 444.44921875 C188.16711665 456.95720721 178.76598339 468.20887248 167 478 C166.04351563 478.84433594 165.08703125 479.68867187 164.1015625 480.55859375 C150.94357179 492.15593509 136.80511341 502.48650705 122.375 512.4375 C121.56329346 512.99945068 120.75158691 513.56140137 119.9152832 514.14038086 C119.16722412 514.64964111 118.41916504 515.15890137 117.6484375 515.68359375 C116.99020996 516.13275146 116.33198242 516.58190918 115.65380859 517.04467773 C114 518 114 518 112 518 C111.9582666 518.69657715 111.9165332 519.3931543 111.87353516 520.11083984 C111.28880889 528.41558841 109.97929968 536.46083995 108.375 544.625 C108.24372711 545.29607788 108.11245422 545.96715576 107.97720337 546.65856934 C99.73369189 588.53958221 87.69366189 626.78885204 59 659 C58.55688477 659.5048291 58.11376953 660.0096582 57.65722656 660.52978516 C54.51910167 664.10000395 51.29928122 667.57831711 48 671 C47.50806152 671.51481934 47.01612305 672.02963867 46.50927734 672.56005859 C38.31787215 681.00785399 29.86816578 686.52040672 19 691 C17.2984375 691.70382812 17.2984375 691.70382812 15.5625 692.421875 C-20.03015037 705.52644173 -66.87027436 709.58894957 -102.09423828 693.90673828 C-123.50534257 683.71959489 -137.4694334 669.30176193 -145.72900391 647.03466797 C-146.9754087 643.39716174 -148.05759212 639.72703682 -149 636 C-149.19078125 635.26007812 -149.3815625 634.52015625 -149.578125 633.7578125 C-152.96881604 611.5927396 -146.62869634 590.58443097 -134.375 572.125 C-125.51937996 560.75397038 -112.63846375 553.4504509 -100 547 C-99.2177002 546.5992627 -98.43540039 546.19852539 -97.62939453 545.78564453 C-78.22930396 535.96092 -57.87392547 528.90643708 -37.32861328 521.89306641 C-30.65849098 519.61583178 -24.0053928 517.30117603 -17.37109375 514.921875 C-16.65833786 514.66667084 -15.94558197 514.41146667 -15.21122742 514.14852905 C-11.74271608 512.90591989 -8.27622216 511.6580536 -4.81225586 510.40283203 C-3.5722583 509.95794434 -2.33226074 509.51305664 -1.0546875 509.0546875 C0.59297607 508.45889893 0.59297607 508.45889893 2.27392578 507.85107422 C5 507 5 507 8 507 C7.67 506.34 7.34 505.68 7 505 C6.73641795 502.39309712 6.52540767 499.80221035 6.3515625 497.18896484 C6.29450134 496.38222321 6.23744019 495.57548157 6.1786499 494.74429321 C5.99018826 492.0667659 5.80767455 489.38886532 5.625 486.7109375 C5.49473687 484.84962985 5.36403423 482.98835291 5.23291016 481.12710571 C4.88775139 476.21490695 4.54732826 471.30239247 4.20825195 466.38977051 C3.6665409 458.54766155 3.11923607 450.70594661 2.56903076 442.86442947 C2.37811133 440.13049135 2.19012923 437.39636255 2.00244141 434.66220093 C1.88454155 432.97059433 1.76654524 431.27899444 1.6484375 429.58740234 C1.59749939 428.8338446 1.54656128 428.08028687 1.49407959 427.30389404 C1.15591563 422.50859946 0.63226395 417.76570633 0 413 C-0.51046875 414.15113281 -1.0209375 415.30226563 -1.546875 416.48828125 C-18.1713382 453.1928545 -43.85007173 480.77834044 -82 495.375 C-124.5717038 510.70818509 -176.9526653 506.84450786 -217.73950195 488.109375 C-227.67484947 483.41685502 -237.04365787 478.37474161 -246 472 C-246.98871094 471.32582031 -247.97742188 470.65164063 -248.99609375 469.95703125 C-294.10167457 437.49250493 -318.41861558 385.84995621 -327.37646484 332.28881836 C-328.00881522 328.20251237 -328.52621643 324.10744256 -329 320 C-329.1544458 318.68491455 -329.1544458 318.68491455 -329.31201172 317.34326172 C-334.21462325 273.66897041 -329.13992202 231.38140935 -318 189 C-317.77763672 188.14567383 -317.55527344 187.29134766 -317.32617188 186.41113281 C-309.43877277 156.68623321 -296.36527933 126.42888794 -279 101 C-278.53094238 100.30471191 -278.06188477 99.60942383 -277.57861328 98.89306641 C-270.93728685 89.0898292 -263.8741371 79.8456949 -256 71 C-255.37536865 70.28851807 -254.7507373 69.57703613 -254.10717773 68.84399414 C-248.31981304 62.31541647 -242.25785331 56.10347367 -236.0793457 49.94897461 C-234.43258596 48.30760204 -232.79127905 46.66091181 -231.15039062 45.01367188 C-173.74204567 -12.44063522 -75.00136354 -36.42453953 0 0 Z M-223.21875 46.21484375 C-225.03384546 48.03391968 -226.92233917 49.70516504 -228.875 51.375 C-236.53595731 57.98238754 -243.46014305 65.29569647 -250 73 C-250.79792969 73.90878906 -251.59585938 74.81757812 -252.41796875 75.75390625 C-264.08538133 89.13439983 -274.26860212 103.5495186 -283 119 C-283.6290625 120.0828125 -284.258125 121.165625 -284.90625 122.28125 C-305.5755197 159.21486307 -316.60904913 200.42806078 -323 242 C-323.13132324 242.80985352 -323.26264648 243.61970703 -323.39794922 244.45410156 C-328.75993257 278.49103936 -325.23298095 315.57705256 -318 349 C-317.74959961 350.1763501 -317.74959961 350.1763501 -317.49414062 351.37646484 C-307.08944389 398.78560506 -278.20024858 444.61792329 -237 471 C-213.98232986 485.22221218 -189.81731016 493.82723111 -163 497 C-161.88367188 497.13277344 -160.76734375 497.26554687 -159.6171875 497.40234375 C-116.70958171 501.49144978 -75.84057659 492.46390703 -42.19921875 464.6875 C-39.72430459 462.52429733 -37.34664325 460.30119769 -35 458 C-34.3503125 457.37480469 -33.700625 456.74960937 -33.03125 456.10546875 C-17.35960195 439.82365407 -1.51538933 411.95825211 -1 389 C0.98 389 2.96 389 5 389 C5.04454819 389.77055725 5.08909637 390.5411145 5.13499451 391.33502197 C6.47067944 414.27043417 8.01979886 437.18796273 9.65942383 460.10351562 C10.00125418 464.88291226 10.33843251 469.66262584 10.67458439 474.44242477 C10.93747702 478.17087438 11.2032719 481.89911284 11.46990776 485.62729645 C11.59571557 487.39263943 11.72050501 489.15805531 11.84422493 490.92354584 C12.01558802 493.36429798 12.19099418 495.80472734 12.36743164 498.24511719 C12.44148224 499.31857895 12.44148224 499.31857895 12.51702881 500.41372681 C12.78162443 504.01217284 13.19594178 507.48086976 14 511 C13.40157288 511.17450684 12.80314575 511.34901367 12.18658447 511.52880859 C5.85064191 513.39985401 -0.40086119 515.45659674 -6.640625 517.625 C-8.12974144 518.14006104 -8.12974144 518.14006104 -9.64894104 518.66552734 C-12.85029305 519.77416342 -16.05032971 520.88652012 -19.25 522 C-20.34347748 522.38027344 -21.43695496 522.76054688 -22.56356812 523.15234375 C-75.79735578 540.0989069 -75.79735578 540.0989069 -123 569 C-123.71414063 569.60328125 -124.42828125 570.2065625 -125.1640625 570.828125 C-136.44785044 581.88713629 -144.20101603 601.89342453 -144.51953125 617.56958008 C-144.51308594 618.41286865 -144.50664062 619.25615723 -144.5 620.125 C-144.49033203 621.48177856 -144.49033203 621.48177856 -144.48046875 622.8659668 C-144.019107 640.13819737 -136.80031861 659.26273189 -124.59375 671.69921875 C-100.19244043 693.34435631 -70.8559361 698.78082057 -39 697 C2.08438211 693.61748884 30.34114382 682.97926303 57.87109375 651.8125 C60.000294 649.26201414 62.01870572 646.66667242 64 644 C64.38913574 643.49259277 64.77827148 642.98518555 65.17919922 642.46240234 C83.07497817 619.09130917 91.38900851 591.69027865 98.375 563.4375 C98.54392761 562.76302826 98.71285522 562.08855652 98.88690186 561.39364624 C100.78528812 553.71535382 102.19492342 546.190382 102.86328125 538.3046875 C104.85892114 516.13169561 104.85892114 516.13169561 111.4140625 510.30859375 C115.79816183 507.15514746 120.47767582 504.71562171 125.33203125 502.36962891 C129.33240314 500.31599729 132.78231897 497.70288267 136.3125 494.9375 C136.95010254 494.45120117 137.58770508 493.96490234 138.24462891 493.46386719 C150.35397562 484.20395973 161.9654782 474.51874386 173 464 C173.66257812 463.39027344 174.32515625 462.78054688 175.0078125 462.15234375 C192.40691822 445.68388787 205.96091055 421.8577473 216.3125 400.4375 C216.61381836 399.82640381 216.91513672 399.21530762 217.22558594 398.58569336 C223.51247114 385.11453752 226.7744041 369.97835728 230.50415039 355.64624023 C231.04319151 353.58987408 231.59105791 351.53580116 232.14770508 349.48413086 C238.88551415 325.02435527 238.88551415 325.02435527 233 301 C229.37863971 296.03356303 224.8868708 294.20315608 219 293 C214.95435653 293.18389289 212.3316737 294.76527859 209 297 C202.29315083 304.89041079 200.38948893 315.21397416 198.36743164 325.08935547 C196.58108342 333.73782844 194.36573841 342.17229192 191.8125 350.625 C191.61746887 351.27275391 191.42243774 351.92050781 191.22149658 352.58789062 C187.77313433 363.99081086 183.85798201 375.114713 179 386 C178.72510742 386.62148926 178.45021484 387.24297852 178.16699219 387.88330078 C167.62770995 411.29749373 151.46088273 432.56202228 133.36328125 450.6328125 C132.06062884 451.93761806 130.77054409 453.25713826 129.54296875 454.6328125 C123.44011324 461.35122981 115.49559075 465.99594331 108 471 C108.00687332 470.41305359 108.01374664 469.82610718 108.02082825 469.22137451 C108.18456476 452.85088188 107.64538031 436.59070935 106.6875 420.25 C106.58521591 418.47234756 106.58521591 418.47234756 106.48086548 416.65878296 C105.85876052 353.0697983 105.85876052 353.0697983 82.76171875 296.91796875 C68.66970467 287.13129419 48.82087973 286.49808651 32.33203125 288.4296875 C25.38514878 289.74902508 18.76872001 291.99720029 12.125 294.375 C11.33996094 294.65480713 10.55492187 294.93461426 9.74609375 295.22290039 C2.00445863 298.12683504 -5.11723098 301.37313227 -9 309 C-11.95673312 316.88310421 -13.95428312 324.83964771 -15.6875 333.0625 C-20.07506254 352.81370535 -25.92106528 372.36610622 -36 390 C-36.66322266 391.19230225 -36.66322266 391.19230225 -37.33984375 392.40869141 C-43.51400447 403.45818025 -49.84415945 413.20594038 -59 422 C-59.72445313 422.7321875 -60.44890625 423.464375 -61.1953125 424.21875 C-77.73884716 440.09077587 -102.1495514 447.80190608 -124.73046875 447.34375 C-139.94384992 446.51449461 -153.84877014 437.76900036 -165 428 C-166.01513672 427.12794922 -166.01513672 427.12794922 -167.05078125 426.23828125 C-195.86111504 399.62192077 -205.81099926 347.51442733 -208 310 C-208.3006965 301.09793067 -208.29067918 292.19192077 -208.26074219 283.28588867 C-208.24938251 279.88092611 -208.25612572 276.47627709 -208.26759052 273.0713253 C-208.33400294 250.0545849 -206.80555205 228.0705558 -202.3125 205.5 C-201.95506054 203.67181297 -201.59772167 201.84360626 -201.24047852 200.01538086 C-192.96887033 158.01213087 -180.41214983 120.21763683 -157 84 C-156.35587158 82.99380615 -156.35587158 82.99380615 -155.69873047 81.96728516 C-140.49278651 58.423479 -119.85079195 40.37102801 -91.86962891 34.03149414 C-71.16097791 30.11777066 -49.81163981 32.32615499 -32 44 C-9.85081441 59.69488469 -0.29330421 90.89911583 6.60375977 115.765625 C8.680127 125.04224023 8.680127 125.04224023 13.90234375 132.5234375 C14.57394531 132.80445313 15.24554688 133.08546875 15.9375 133.375 C16.60652344 133.67148438 17.27554687 133.96796875 17.96484375 134.2734375 C27.76814528 137.7732726 41.30773787 137.94467806 50.75 133.5625 C60.31281014 127.82211256 65.60437009 119.61650165 69.3125 109.375 C72.96681725 92.38736305 65.99926257 71.28413001 57 57 C52.61395231 50.45159081 47.8647467 44.1971781 43 38 C42.28972656 37.07058594 41.57945312 36.14117187 40.84765625 35.18359375 C17.42538153 6.53359031 -25.1038043 -5.95521238 -60.296875 -9.49609375 C-118.45643941 -14.41208555 -181.9106528 3.59398923 -223.21875 46.21484375 Z " fill="#000000" transform="translate(381,43)"/>
<path d="M0 0 C0.57443848 0.45874512 1.14887695 0.91749023 1.74072266 1.39013672 C15.11499515 12.15233745 26.90076471 24.10601473 37 38 C37.43441406 38.59538574 37.86882812 39.19077148 38.31640625 39.80419922 C47.25871752 52.21999781 55.76889471 66.88758629 59 82 C58.67 82.99 58.34 83.98 58 85 C57.34 85 56.68 85 56 85 C55.59910156 83.82566406 55.19820313 82.65132813 54.78515625 81.44140625 C48.4311245 63.2584852 40.11767789 47.97319159 28 33 C27.51128418 32.39027344 27.02256836 31.78054687 26.51904297 31.15234375 C11.6802762 12.77628487 -6.41861133 -2.39161091 -27 -14 C-27.72719238 -14.41604492 -28.45438477 -14.83208984 -29.20361328 -15.26074219 C-74.49534022 -40.92266702 -125.82378375 -47.46923014 -176 -34 C-204.96394509 -25.62959588 -231.20127396 -11.33923268 -255 7 C-255.87785156 7.67546875 -256.75570312 8.3509375 -257.66015625 9.046875 C-260.13738135 10.99643102 -262.57189624 12.98963452 -265 15 C-265.97324219 15.78761719 -266.94648438 16.57523438 -267.94921875 17.38671875 C-275.81162777 23.85618129 -283.09876764 30.88545791 -290.3125 38.0625 C-291.2312793 38.97209473 -292.15005859 39.88168945 -293.09667969 40.81884766 C-298.39787461 46.14397358 -303.30947078 51.63484408 -307.99707031 57.50732422 C-309.67467265 59.59512527 -311.39928383 61.60203124 -313.18359375 63.59765625 C-316.61515164 67.57854632 -319.32808876 71.96030983 -322.0625 76.4375 C-322.62122803 77.34854492 -323.17995605 78.25958984 -323.75561523 79.19824219 C-370.04563079 155.51684026 -401.74898853 250.54827102 -380.29345703 339.94384766 C-367.90679741 388.65301078 -339.64139118 431.98101812 -300 463 C-299.02675781 463.77859375 -298.05351562 464.5571875 -297.05078125 465.359375 C-282.97433664 476.45097752 -267.91677052 485.99092534 -252.27880859 494.71826172 C-250.1149407 495.93535048 -247.97316276 497.18488805 -245.83203125 498.44140625 C-209.13764244 519.50947112 -156.07455459 524.1974776 -115.359375 513.86328125 C-97.9785144 509.14851225 -81.6856438 501.84864463 -68 490 C-67.25234375 489.39671875 -66.5046875 488.7934375 -65.734375 488.171875 C-61.10560622 484.31996252 -57.29751453 480.11956078 -53.625 475.375 C-53.20798828 474.83657471 -52.79097656 474.29814941 -52.36132812 473.7434082 C-49.80059304 470.33205373 -47.79827663 466.86339432 -46 463 C-47.65 463.33 -49.3 463.66 -51 464 C-51 463.01 -51 462.02 -51 461 C-49.73160474 460.49384702 -48.46016898 459.99530901 -47.1875 459.5 C-46.12595703 459.08234375 -46.12595703 459.08234375 -45.04296875 458.65625 C-43 458 -43 458 -40 458 C-39.01 461.63 -38.02 465.26 -37 469 C-37.99 469 -38.98 469 -40 469 C-40.66 467.68 -41.32 466.36 -42 465 C-42.61746094 465.89460938 -43.23492187 466.78921875 -43.87109375 467.7109375 C-64.14667541 496.78672684 -90.43505213 513.49499719 -125.25 520.0390625 C-183.18551226 529.73784877 -238.44197293 512.11023383 -285.45410156 478.84448242 C-297.29410865 470.2993816 -308.42540233 461.06963922 -319 451 C-319.97960693 450.0713916 -319.97960693 450.0713916 -320.97900391 449.12402344 C-331.43553917 439.1457648 -340.63332052 428.78340857 -349 417 C-349.43860352 416.39542969 -349.87720703 415.79085938 -350.32910156 415.16796875 C-375.1210152 380.84363092 -389.99718239 337.10352443 -390.203125 294.68359375 C-390.21364647 293.23487885 -390.21364647 293.23487885 -390.22438049 291.75689697 C-390.24182108 288.65038354 -390.24823455 285.54406062 -390.25 282.4375 C-390.25067474 281.37721588 -390.25134949 280.31693176 -390.25204468 279.22451782 C-390.23652009 263.90001196 -389.77298191 249.10401762 -387 234 C-386.6556985 231.94019627 -386.31197464 229.88029594 -385.96875 227.8203125 C-379.81527413 192.3547436 -368.03444381 158.61495474 -353 126 C-352.3817334 124.6380249 -352.3817334 124.6380249 -351.75097656 123.24853516 C-340.4201997 98.31808694 -327.32961514 71.7013385 -308 52 C-306.80237901 50.63380631 -305.6140727 49.25936192 -304.4375 47.875 C-300.51526949 43.35933508 -296.26080897 39.19305759 -292 35 C-289.40580208 32.41835465 -286.82824702 29.82381786 -284.2734375 27.203125 C-277.8599911 20.6439937 -271.24989989 14.64187393 -264 9 C-262.73303231 7.99223855 -261.4661081 6.98442243 -260.19921875 5.9765625 C-186.57141594 -52.03269301 -85.31650147 -64.20523705 0 0 Z " fill="#000000" transform="translate(412,45)"/>
<path d="M0 0 C3.59391114 1.33488128 6.75490696 2.96022723 10 5 C8.85569823 8.87302138 7.76679902 12.00263439 5 15 C4.34 15 3.68 15 3 15 C3.33 13.35 3.66 11.7 4 10 C-6.72357954 12.52329949 -17.16016661 15.50077136 -27.5625 19.125 C-28.25076874 19.3633255 -28.93903748 19.601651 -29.64816284 19.84719849 C-54.7523226 28.57017615 -80.49265673 39.13598295 -102 55 C-103.04929688 55.75539063 -104.09859375 56.51078125 -105.1796875 57.2890625 C-122.79830885 70.20799848 -137.82997908 86.58191737 -142.3125 108.6875 C-145.06707743 127.28089765 -138.69243326 143.59866155 -128.25 158.75 C-103.03511072 191.45591464 -61.95458219 207.89769173 -22.0859375 213.40234375 C12.27580589 217.1914786 49.3655004 206.77548679 76.6015625 185.234375 C79.82145379 182.58332654 82.91020627 179.80102797 86 177 C86.89332031 176.23816406 87.78664063 175.47632813 88.70703125 174.69140625 C94.910327 169.34570899 100.04813622 163.51204004 105 157 C105.4021875 156.47277344 105.804375 155.94554687 106.21875 155.40234375 C113.02629797 146.40361628 118.7844881 136.99926852 124 127 C124.3697998 126.29842773 124.73959961 125.59685547 125.12060547 124.87402344 C139.17276406 97.86705486 146.25229519 67.90221102 151 38 C151.99 38 152.98 38 154 38 C149.57362244 92.79550154 125.78412608 148.6089468 83.54589844 184.72705078 C55.25662618 208.02147049 17.8111636 220.64558761 -18.70996094 217.484375 C-49.07249264 214.53774839 -80.56175575 204.76226494 -105 186 C-105.86109375 185.34515625 -106.7221875 184.6903125 -107.609375 184.015625 C-110.11515077 182.05656395 -112.56196117 180.04246299 -115 178 C-115.73734375 177.40960937 -116.4746875 176.81921875 -117.234375 176.2109375 C-133.18270596 162.9206617 -144.91659707 143.41673549 -146.8125 122.625 C-147.80825802 101.52340445 -138.49893396 84.50717815 -124.88671875 69.0703125 C-120.69408402 64.49268305 -115.94481201 60.73114847 -111 57 C-110.11183594 56.28585937 -109.22367188 55.57171875 -108.30859375 54.8359375 C-77.49685199 30.58079726 -38.56069508 17.7530108 -1.42895508 6.76513672 C0.97583189 6.07784167 0.97583189 6.07784167 3 5 C1.02 3.02 1.02 3.02 -1 1 C-0.67 0.67 -0.34 0.34 0 0 Z " fill="#000000" transform="translate(354,543)"/>
<path d="M0 0 C1.2063598 32.0802348 -3.19729551 64.48989451 -25 89.2734375 C-34.6079014 99.36924014 -46.99123034 104.93375487 -60.9765625 105.29272461 C-73.32468413 105.40317049 -81.82098456 102.6180756 -91 94 C-97.89152098 86.80598859 -99.93982071 80.6024983 -100.3125 70.8125 C-100.06602868 59.82912199 -97.88752345 48.51683118 -90.35546875 40.1796875 C-68.87171961 20.00757778 -35.92820656 8.60767112 -8 1 C-7.00806641 0.71757446 -7.00806641 0.71757446 -5.99609375 0.42944336 C-4 0 -4 0 0 0 Z M-87 45 C-89.39009491 48.18515729 -90.82198347 51.20959447 -92 55 C-92.23847656 55.72832031 -92.47695313 56.45664062 -92.72265625 57.20703125 C-94.89821987 65.20330813 -95.51073743 75.41680714 -92 83 C-86.66839884 90.09383565 -80.11210718 97.35206572 -71 99 C-56.32877892 100.08741736 -43.78591611 97.26961377 -32 88 C-12.88714245 70.83672355 -8.03351543 44.92573662 -6.1171875 20.51171875 C-5.90703081 16.00736042 -5.92153052 11.50763568 -6 7 C-30.37592558 7 -68.87924905 28.84506069 -87 45 Z " fill="#000000" transform="translate(395,594)"/>
<path d="M0 0 C0.99 0 1.98 0 3 0 C11.86124515 38.47699651 18.64320174 77.64391665 22 117 C23.485 116.01 23.485 116.01 25 115 C25.99 115 26.98 115 28 115 C26.51014431 118.79235994 24.41341953 120.80565887 21 123 C19 123.125 19 123.125 17 122 C15.08463114 120.10114294 13.61253016 118.19483271 12 116 C12 115.34 12 114.68 12 114 C15.875 114.875 15.875 114.875 17 116 C17.35538685 106.74760218 16.27211443 97.76598335 15 88.625 C14.89317902 87.84230743 14.78635803 87.05961487 14.67630005 86.25320435 C12.756354 72.25791424 10.42089447 58.34281605 7.9375 44.4375 C7.77209717 43.5111676 7.60669434 42.58483521 7.4362793 41.63043213 C5.49668986 30.82075149 3.45306031 20.0371743 1.22190857 9.28355408 C0.57789222 6.13968443 0 3.21857342 0 0 Z " fill="#000000" transform="translate(487,337)"/>
<path d="M0 0 C3.0625 0.1875 3.0625 0.1875 5.0625 2.1875 C4.90004442 5.92397845 4.47466356 7.71288742 2 10.5625 C1.360625 11.09875 0.72125 11.635 0.0625 12.1875 C1.7125 12.5175 3.3625 12.8475 5.0625 13.1875 C5.0625 13.8475 5.0625 14.5075 5.0625 15.1875 C1.7625 15.1875 -1.5375 15.1875 -4.9375 15.1875 C-2.9375 11.1875 -2.9375 11.1875 -0.8125 8.625 C1.36735538 6.30372611 1.36735538 6.30372611 1.0625 3.1875 C0.4025 3.1875 -0.2575 3.1875 -0.9375 3.1875 C-1.2675 3.8475 -1.5975 4.5075 -1.9375 5.1875 C-2.9275 5.1875 -3.9175 5.1875 -4.9375 5.1875 C-3.82120474 0.24390669 -3.82120474 0.24390669 0 0 Z " fill="#000000" transform="translate(512.9375,344.8125)"/>
<path d="M0 0 C0.99 0 1.98 0 3 0 C3 3.3 3 6.6 3 10 C3.66 10 4.32 10 5 10 C5 10.66 5 11.32 5 12 C4.34 12 3.68 12 3 12 C3 12.99 3 13.98 3 15 C2.34 15 1.68 15 1 15 C1 14.01 1 13.02 1 12 C-1.31 12 -3.62 12 -6 12 C-5.56629155 7.2292071 -3.35665609 3.36635741 0 0 Z M0 4 C-0.99 5.98 -1.98 7.96 -3 10 C-1.68 10 -0.36 10 1 10 C1 8.02 1 6.04 1 4 C0.67 4 0.34 4 0 4 Z " fill="#000000" transform="translate(550,390)"/>
<path d="M0 0 C0 0.66 0 1.32 0 2 C-1.98 2.66 -3.96 3.32 -6 4 C-6 6.64 -6 9.28 -6 12 C-6.99 12 -7.98 12 -9 12 C-8.95875 11.071875 -8.9175 10.14375 -8.875 9.1875 C-8.72863661 5.84190281 -8.72863661 5.84190281 -11 3 C-9.73581754 2.30034557 -8.46334598 1.61565237 -7.1875 0.9375 C-6.47980469 0.55464844 -5.77210938 0.17179688 -5.04296875 -0.22265625 C-3 -1 -3 -1 0 0 Z " fill="#000000" transform="translate(446,549)"/>
<path d="M0 0 C0 4.95 0 9.9 0 15 C-0.99 15 -1.98 15 -3 15 C-3 11.37 -3 7.74 -3 4 C-3.99 4.33 -4.98 4.66 -6 5 C-5.625 3.0625 -5.625 3.0625 -5 1 C-3 0 -3 0 0 0 Z " fill="#000000" transform="translate(536,390)"/>
<path d="M0 0 C0 4.95 0 9.9 0 15 C-0.99 15 -1.98 15 -3 15 C-3 11.37 -3 7.74 -3 4 C-3.99 4.33 -4.98 4.66 -6 5 C-5.625 3.0625 -5.625 3.0625 -5 1 C-3 0 -3 0 0 0 Z " fill="#000000" transform="translate(500,345)"/>
<path d="M0 0 C0 4.95 0 9.9 0 15 C-0.99 15 -1.98 15 -3 15 C-3 11.37 -3 7.74 -3 4 C-3.99 4.33 -4.98 4.66 -6 5 C-5.625 3.0625 -5.625 3.0625 -5 1 C-3 0 -3 0 0 0 Z " fill="#000000" transform="translate(7,296)"/>
<path d="M0 0 C0 4.95 0 9.9 0 15 C-0.66 15 -1.32 15 -2 15 C-2.33 11.37 -2.66 7.74 -3 4 C-3.99 4.33 -4.98 4.66 -6 5 C-6 4.01 -6 3.02 -6 2 C-3 0 -3 0 0 0 Z " fill="#000000" transform="translate(19,296)"/>
<path d="M0 0 C4.24822374 0.47202486 6.19989709 2.96655518 9 6 C8.67 6.99 8.34 7.98 8 9 C4.63704165 7.55873214 2.37072898 5.79407345 0 3 C0 2.01 0 1.02 0 0 Z " fill="#000000" transform="translate(390,80)"/>
<path d="M0 0 C0.66 0.33 1.32 0.66 2 1 C1.82374165 3.37948772 1.30280227 4.70225849 -0.40234375 6.37890625 C-1.90649092 7.62115486 -3.45129851 8.81376056 -5 10 C-5.66 9.01 -6.32 8.02 -7 7 C-4.69 4.69 -2.38 2.38 0 0 Z " fill="#000000" transform="translate(528,501)"/>
<path d="M0 0 C0.66 0.33 1.32 0.66 2 1 C0.65289578 5.04131267 -1.38428334 5.90288434 -5 8 C-5.99 8 -6.98 8 -8 8 C-8 7.01 -8 6.02 -8 5 C-6.3203125 3.578125 -6.3203125 3.578125 -4.125 2.25 C-3.40570313 1.80140625 -2.68640625 1.3528125 -1.9453125 0.890625 C-1.30335938 0.59671875 -0.66140625 0.3028125 0 0 Z " fill="#000000" transform="translate(314,496)"/>
<path d="M0 0 C2.97 1.98 5.94 3.96 9 6 C8.01 7.485 8.01 7.485 7 9 C4.03 7.02 1.06 5.04 -2 3 C-1.34 2.01 -0.68 1.02 0 0 Z " fill="#000000" transform="translate(175,490)"/>
<path d="M0 0 C0.66 0.33 1.32 0.66 2 1 C0.68775452 4.93673644 -0.91910327 7.22719294 -4 10 C-4.99 9.67 -5.98 9.34 -7 9 C-6.02180976 7.68677212 -5.0424189 6.37443848 -4.0625 5.0625 C-3.51722656 4.33160156 -2.97195313 3.60070312 -2.41015625 2.84765625 C-1 1 -1 1 0 0 Z " fill="#000000" transform="translate(343,468)"/>
<path d="M0 0 C0.66 0 1.32 0 2 0 C3.2890625 1.42578125 3.2890625 1.42578125 4.625 3.3125 C5.07101563 3.92738281 5.51703125 4.54226563 5.9765625 5.17578125 C7 7 7 7 7 10 C3.21282653 8.51218185 1.22592999 6.38011591 -1 3 C-0.67 2.01 -0.34 1.02 0 0 Z " fill="#000000" transform="translate(132,447)"/>
<path d="M0 0 C1.8125 0.125 1.8125 0.125 4 1 C5.95320589 4.20883825 7 6.2205439 7 10 C6.01 10 5.02 10 4 10 C3.32845067 8.71086513 2.66291141 7.41859796 2 6.125 C1.62875 5.40570313 1.2575 4.68640625 0.875 3.9453125 C0 2 0 2 0 0 Z " fill="#000000" transform="translate(110,413)"/>
<path d="M0 0 C0.99 0 1.98 0 3 0 C5 7.625 5 7.625 5 11 C4.01 11 3.02 11 2 11 C1.664061 9.5422647 1.33133376 8.08378894 1 6.625 C0.814375 5.81289063 0.62875 5.00078125 0.4375 4.1640625 C0 2 0 2 0 0 Z " fill="#000000" transform="translate(98,374)"/>
<path d="M0 0 C0.99 0 1.98 0 3 0 C4.19287411 3.87684087 5 6.91621923 5 11 C4.01 11 3.02 11 2 11 C0.80712589 7.12315913 0 4.08378077 0 0 Z " fill="#000000" transform="translate(419,372)"/>
<path d="M0 0 C0.99 0.33 1.98 0.66 3 1 C1.64458676 5.06623972 -0.57009469 6.53046818 -4 9 C-4.99 8.67 -5.98 8.34 -7 8 C-6.02133662 6.85373678 -5.04205413 5.70800212 -4.0625 4.5625 C-3.51722656 3.92441406 -2.97195312 3.28632812 -2.41015625 2.62890625 C-1.63204305 1.73008851 -0.84063472 0.84063472 0 0 Z " fill="#000000" transform="translate(178,99)"/>
<path d="M0 0 C0.99 0.33 1.98 0.66 3 1 C-0.12621626 4.39417765 -2.56541027 6.6062718 -7 8 C-6.875 6.25 -6.875 6.25 -6 4 C-3.125 1.6875 -3.125 1.6875 0 0 Z " fill="#000000" transform="translate(194,87)"/>
<path d="M0 0 C-0.24609375 1.859375 -0.24609375 1.859375 -1 4 C-2.84765625 5.265625 -2.84765625 5.265625 -5.0625 6.25 C-6.16271484 6.75273438 -6.16271484 6.75273438 -7.28515625 7.265625 C-8.13400391 7.62914063 -8.13400391 7.62914063 -9 8 C-9 6.68 -9 5.36 -9 4 C-2.25 0 -2.25 0 0 0 Z " fill="#000000" transform="translate(213,76)"/>
<path d="M0 0 C0.33 0.99 0.66 1.98 1 3 C-0.26839526 3.50615298 -1.53983102 4.00469099 -2.8125 4.5 C-3.87404297 4.91765625 -3.87404297 4.91765625 -4.95703125 5.34375 C-7 6 -7 6 -10 6 C-10 5.01 -10 4.02 -10 3 C-8.70990357 2.49596232 -7.41786211 1.99690074 -6.125 1.5 C-5.04605469 1.08234375 -5.04605469 1.08234375 -3.9453125 0.65625 C-2 0 -2 0 0 0 Z " fill="#000000" transform="translate(249,60)"/>
<path d="M0 0 C3.3 0.66 6.6 1.32 10 2 C10 2.99 10 3.98 10 5 C6.37 4.34 2.74 3.68 -1 3 C-0.67 2.01 -0.34 1.02 0 0 Z " fill="#000000" transform="translate(307,713)"/>
<path d="M0 0 C0.99 0.33 1.98 0.66 3 1 C0.34345343 4.73884332 -1.58110387 6.64978174 -6 8 C-6.33 7.01 -6.66 6.02 -7 5 C-5.90554162 4.13342884 -4.79902219 3.28207276 -3.6875 2.4375 C-3.07261719 1.96183594 -2.45773437 1.48617187 -1.82421875 0.99609375 C-1.22222656 0.66738281 -0.62023437 0.33867188 0 0 Z " fill="#000000" transform="translate(389,698)"/>
<path d="M0 0 C0 0.99 0 1.98 0 3 C-2.97 4.32 -5.94 5.64 -9 7 C-9 5.68 -9 4.36 -9 3 C-3.375 0 -3.375 0 0 0 Z " fill="#000000" transform="translate(304,610)"/>
<path d="M0 0 C0.66 0.33 1.32 0.66 2 1 C2 1.66 2 2.32 2 3 C0.71086513 3.67154933 -0.58140204 4.33708859 -1.875 5 C-2.59429687 5.37125 -3.31359375 5.7425 -4.0546875 6.125 C-6 7 -6 7 -8 7 C-8.33 6.01 -8.66 5.02 -9 4 C-7.54618103 3.30300448 -6.08677047 2.61766134 -4.625 1.9375 C-3.40683594 1.36322266 -3.40683594 1.36322266 -2.1640625 0.77734375 C-1.44992187 0.52082031 -0.73578125 0.26429688 0 0 Z " fill="#000000" transform="translate(355,585)"/>
<path d="M0 0 C0 0.66 0 1.32 0 2 C-4.95 3.485 -4.95 3.485 -10 5 C-10.33 4.01 -10.66 3.02 -11 2 C-3.57142857 -1.57142857 -3.57142857 -1.57142857 0 0 Z " fill="#000000" transform="translate(464,542)"/>
<path d="M0 0 C0.99 0 1.98 0 3 0 C3 3.63 3 7.26 3 11 C2.01 11 1.02 11 0 11 C0 7.37 0 3.74 0 0 Z " fill="#000000" transform="translate(438,530)"/>
<path d="M0 0 C0.99 0 1.98 0 3 0 C3 3.63 3 7.26 3 11 C2.01 11 1.02 11 0 11 C0 7.37 0 3.74 0 0 Z " fill="#000000" transform="translate(438,510)"/>
<path d="M0 0 C-0.21484375 1.890625 -0.21484375 1.890625 -1 4 C-3.06640625 5.046875 -3.06640625 5.046875 -5.5625 5.75 C-6.80193359 6.11351562 -6.80193359 6.11351562 -8.06640625 6.484375 C-9.02353516 6.73960937 -9.02353516 6.73960937 -10 7 C-9.71484375 5.109375 -9.71484375 5.109375 -9 3 C-3.10714286 0 -3.10714286 0 0 0 Z " fill="#000000" transform="translate(298,507)"/>
<path d="M0 0 C3.3 1.65 6.6 3.3 10 5 C9.67 5.99 9.34 6.98 9 8 C5.7 6.35 2.4 4.7 -1 3 C-0.67 2.01 -0.34 1.02 0 0 Z " fill="#000000" transform="translate(191,501)"/>
<path d="M0 0 C0.66 0.33 1.32 0.66 2 1 C0.55873214 4.36295835 -1.20592655 6.62927102 -4 9 C-4.99 9 -5.98 9 -7 9 C-6.82374165 6.62051228 -6.30280227 5.29774151 -4.59765625 3.62109375 C-3.09350908 2.37884514 -1.54870149 1.18623944 0 0 Z " fill="#000000" transform="translate(329,483)"/>
<path d="M0 0 C1.34173403 0.92543709 2.67320159 1.86577405 4 2.8125 C5.11375 3.59560547 5.11375 3.59560547 6.25 4.39453125 C7.11625 5.18923828 7.11625 5.18923828 8 6 C8 6.99 8 7.98 8 9 C4.06326356 7.68775452 1.77280706 6.08089673 -1 3 C-0.67 2.01 -0.34 1.02 0 0 Z " fill="#000000" transform="translate(159,477)"/>
<path d="M0 0 C0.99 0 1.98 0 3 0 C1.66511872 3.59391114 0.03977277 6.75490696 -2 10 C-2.99 9.67 -3.98 9.34 -5 9 C-3.76067171 5.56801397 -2.49698489 2.69674368 0 0 Z " fill="#000000" transform="translate(366,436)"/>
<path d="M0 0 C0.99 0 1.98 0 3 0 C3.33 3.63 3.66 7.26 4 11 C3.01 11 2.02 11 1 11 C0.67 7.37 0.34 3.74 0 0 Z " fill="#000000" transform="translate(431,431)"/>
<path d="M0 0 C2.33524782 2.25740623 4.18705073 4.2805761 6 7 C5.625 9.1875 5.625 9.1875 5 11 C2.66475218 8.74259377 0.81294927 6.7194239 -1 4 C-0.625 1.8125 -0.625 1.8125 0 0 Z " fill="#000000" transform="translate(121,430)"/>
<path d="M0 0 C0.99 0.33 1.98 0.66 3 1 C1.68 4.3 0.36 7.6 -1 11 C-1.99 10.67 -2.98 10.34 -4 10 C-2.68 6.7 -1.36 3.4 0 0 Z " fill="#000000" transform="translate(589,399)"/>
<path d="M0 0 C0.99 0 1.98 0 3 0 C3.99 3.3 4.98 6.6 6 10 C5.01 10.33 4.02 10.66 3 11 C0 4.5 0 4.5 0 0 Z " fill="#000000" transform="translate(103,394)"/>
<path d="M0 0 C0.99 0 1.98 0 3 0 C2.42636089 3.87206399 0.65894107 6.18465063 -2 9 C-2.99 9 -3.98 9 -5 9 C-3.76067171 5.56801397 -2.49698489 2.69674368 0 0 Z " fill="#000000" transform="translate(150,128)"/>
<path d="M0 0 C3.39417765 3.12621626 5.6062718 5.56541027 7 10 C5.25 9.875 5.25 9.875 3 9 C0.6875 6.125 0.6875 6.125 -1 3 C-0.67 2.01 -0.34 1.02 0 0 Z " fill="#000000" transform="translate(404,94)"/>
<path d="M0 0 C3.99500618 1.3697164 6.80009492 3.25722422 10 6 C9.67 6.66 9.34 7.32 9 8 C5.56801397 6.76067171 2.69674368 5.49698489 0 3 C0 2.01 0 1.02 0 0 Z " fill="#000000" transform="translate(374,68)"/>
<path d="M0 0 C0.66 0.33 1.32 0.66 2 1 C1.67 1.99 1.34 2.98 1 4 C-1.06640625 4.94921875 -1.06640625 4.94921875 -3.5625 5.6875 C-4.38878906 5.93886719 -5.21507812 6.19023438 -6.06640625 6.44921875 C-6.70449219 6.63097656 -7.34257812 6.81273438 -8 7 C-8 6.01 -8 5.02 -8 4 C-6.71349294 3.30289269 -5.42059335 2.61757124 -4.125 1.9375 C-3.40570313 1.55464844 -2.68640625 1.17179687 -1.9453125 0.77734375 C-1.30335938 0.52082031 -0.66140625 0.26429687 0 0 Z " fill="#000000" transform="translate(229,67)"/>
<path d="M0 0 C0 0.99 0 1.98 0 3 C-3.63 3.33 -7.26 3.66 -11 4 C-11 3.01 -11 2.02 -11 1 C-7.26562152 0.12132271 -3.83225427 -0.08912219 0 0 Z " fill="#000000" transform="translate(288,52)"/>
<path d="M0 0 C3.63 0 7.26 0 11 0 C11 0.99 11 1.98 11 3 C7.37 3 3.74 3 0 3 C0 2.01 0 1.02 0 0 Z " fill="#000000" transform="translate(297,51)"/>
<path d="M0 0 C3.3 0 6.6 0 10 0 C10.33 0.99 10.66 1.98 11 3 C7.37 3 3.74 3 0 3 C0 2.01 0 1.02 0 0 Z " fill="#000000" transform="translate(326,717)"/>
<path d="M0 0 C3.99500618 1.3697164 6.80009492 3.25722422 10 6 C9.34 6.66 8.68 7.32 8 8 C6.6589523 7.24266726 5.32730219 6.46867264 4 5.6875 C2.88625 5.04361328 2.88625 5.04361328 1.75 4.38671875 C1.1725 3.92910156 0.595 3.47148438 0 3 C0 2.01 0 1.02 0 0 Z " fill="#000000" transform="translate(289,704)"/>
<path d="M0 0 C2.95929119 2.75520215 5.03681826 5.46627288 7 9 C3 9 3 9 0.6875 6.75 C-1 4 -1 4 -0.75 1.6875 C-0.5025 1.130625 -0.255 0.57375 0 0 Z " fill="#000000" transform="translate(277,689)"/>
<path d="M0 0 C0.99 0 1.98 0 3 0 C2.42636089 3.87206399 0.65894107 6.18465063 -2 9 C-2.99 9 -3.98 9 -5 9 C-3.76067171 5.56801397 -2.49698489 2.69674368 0 0 Z " fill="#000000" transform="translate(402,683)"/>
<path d="M0 0 C0.99 0 1.98 0 3 0 C2.25 7.625 2.25 7.625 0 11 C-0.66 10.67 -1.32 10.34 -2 10 C-1.34 6.7 -0.68 3.4 0 0 Z " fill="#000000" transform="translate(426,629)"/>
<path d="M0 0 C0.99 0.33 1.98 0.66 3 1 C2.34 4.3 1.68 7.6 1 11 C0.01 11 -0.98 11 -2 11 C-1.34 7.37 -0.68 3.74 0 0 Z " fill="#000000" transform="translate(431,609)"/>
<path d="M0 0 C0.66 0.99 1.32 1.98 2 3 C0.73581754 3.69965443 -0.53665402 4.38434763 -1.8125 5.0625 C-2.52019531 5.44535156 -3.22789062 5.82820312 -3.95703125 6.22265625 C-6 7 -6 7 -9 6 C-9 5.34 -9 4.68 -9 4 C-6.03 2.68 -3.06 1.36 0 0 Z " fill="#000000" transform="translate(320,601)"/>
<path d="M0 0 C-0.24609375 1.890625 -0.24609375 1.890625 -1 4 C-2.84765625 5.046875 -2.84765625 5.046875 -5.0625 5.75 C-6.16271484 6.11351562 -6.16271484 6.11351562 -7.28515625 6.484375 C-8.13400391 6.73960937 -8.13400391 6.73960937 -9 7 C-9 5.68 -9 4.36 -9 3 C-2.25 0 -2.25 0 0 0 Z " fill="#000000" transform="translate(339,593)"/>
<path d="M0 0 C0.99 0 1.98 0 3 0 C2.67 3.63 2.34 7.26 2 11 C1.01 10.67 0.02 10.34 -1 10 C-0.67 6.7 -0.34 3.4 0 0 Z " fill="#000000" transform="translate(434,590)"/>
<path d="M0 0 C0.33 1.32 0.66 2.64 1 4 C-3.455 5.485 -3.455 5.485 -8 7 C-8.33 6.01 -8.66 5.02 -9 4 C-6.03 2.68 -3.06 1.36 0 0 Z " fill="#000000" transform="translate(373,577)"/>
<path d="M0 0 C0.99 0 1.98 0 3 0 C3.0270043 1.45823212 3.04639787 2.91660675 3.0625 4.375 C3.07410156 5.18710937 3.08570313 5.99921875 3.09765625 6.8359375 C3 9 3 9 2 11 C1.01 10.67 0.02 10.34 -1 10 C-0.67 6.7 -0.34 3.4 0 0 Z " fill="#000000" transform="translate(436,570)"/>
<path d="M0 0 C3.3 0.66 6.6 1.32 10 2 C10 2.99 10 3.98 10 5 C8.54119891 4.85892253 7.08296449 4.71197585 5.625 4.5625 C4.40683594 4.44068359 4.40683594 4.44068359 3.1640625 4.31640625 C1 4 1 4 -1 3 C-0.67 2.01 -0.34 1.02 0 0 Z " fill="#000000" transform="translate(229,516)"/>
<path d="M0 0 C-2.25740623 2.33524782 -4.2805761 4.18705073 -7 6 C-7.99 6 -8.98 6 -10 6 C-10 5.01 -10 4.02 -10 3 C-3.375 -1.125 -3.375 -1.125 0 0 Z " fill="#000000" transform="translate(516,516)"/>
<path d="M0 0 C3.3 0.99 6.6 1.98 10 3 C10 3.99 10 4.98 10 6 C6.28111761 5.49287967 3.26545761 4.88391785 0 3 C0 2.01 0 1.02 0 0 Z " fill="#000000" transform="translate(209,510)"/>
<path d="M0 0 C0.99 0.33 1.98 0.66 3 1 C3 4.3 3 7.6 3 11 C2.01 11 1.02 11 0 11 C0 7.37 0 3.74 0 0 Z " fill="#000000" transform="translate(436,470)"/>
<path d="M0 0 C0.99 0 1.98 0 3 0 C2.38479725 3.99881788 0.39731331 6.80358226 -2 10 C-2.66 10 -3.32 10 -4 10 C-3.43768609 6.06380262 -2.38314183 3.20807554 0 0 Z " fill="#000000" transform="translate(562,453)"/>
<path d="M0 0 C0.99 0.33 1.98 0.66 3 1 C2.40844669 2.31823302 1.80128537 3.62947051 1.1875 4.9375 C0.68283203 6.03384766 0.68283203 6.03384766 0.16796875 7.15234375 C-1 9 -1 9 -4 10 C-3.43454163 6.04179141 -2.19097652 3.3340947 0 0 Z " fill="#000000" transform="translate(376,418)"/>
<path d="M0 0 C0.99 0.33 1.98 0.66 3 1 C3.33 4.3 3.66 7.6 4 11 C3.01 11 2.02 11 1 11 C0.67 7.37 0.34 3.74 0 0 Z " fill="#000000" transform="translate(428,411)"/>
<path d="M0 0 C0.99 0 1.98 0 3 0 C3.33 3.63 3.66 7.26 4 11 C3.01 11 2.02 11 1 11 C0.67 7.37 0.34 3.74 0 0 Z " fill="#000000" transform="translate(96,354)"/>
<path d="M0 0 C0.99 0 1.98 0 3 0 C3.14285714 7.42857143 3.14285714 7.42857143 2 11 C1.01 11 0.02 11 -1 11 C-0.67 7.37 -0.34 3.74 0 0 Z " fill="#000000" transform="translate(97,255)"/>
<path d="M0 0 C0.99 0.33 1.98 0.66 3 1 C2.34 4.3 1.68 7.6 1 11 C0.01 11 -0.98 11 -2 11 C-1.34 7.37 -0.68 3.74 0 0 Z " fill="#000000" transform="translate(101,235)"/>
<path d="M0 0 C0.99 0.33 1.98 0.66 3 1 C2.01 4.3 1.02 7.6 0 11 C-0.99 10.67 -1.98 10.34 -3 10 C-2.39009109 6.44219804 -1.4216319 3.3171411 0 0 Z " fill="#000000" transform="translate(112,197)"/>
<path d="M0 0 C0.99 0 1.98 0 3 0 C2.39009109 3.55780196 1.4216319 6.6828589 0 10 C-0.99 10 -1.98 10 -3 10 C-2.49287967 6.28111761 -1.88391785 3.26545761 0 0 Z " fill="#000000" transform="translate(119,179)"/>
<path d="M0 0 C0 0.66 0 1.32 0 2 C-3.63 2.66 -7.26 3.32 -11 4 C-11 3.01 -11 2.02 -11 1 C-3.57142857 -1.42857143 -3.57142857 -1.42857143 0 0 Z " fill="#000000" transform="translate(269,56)"/>
<path d="M0 0 C3.63 0.33 7.26 0.66 11 1 C11 1.99 11 2.98 11 4 C3.57142857 4.14285714 3.57142857 4.14285714 0 3 C0 2.01 0 1.02 0 0 Z " fill="#000000" transform="translate(317,51)"/>
<path d="M0 0 C0.66 0.33 1.32 0.66 2 1 C2.6328125 3.28515625 2.6328125 3.28515625 3.125 6.0625 C3.29257812 6.98160156 3.46015625 7.90070312 3.6328125 8.84765625 C3.75398438 9.55792969 3.87515625 10.26820313 4 11 C3.01 11 2.02 11 1 11 C0.63890458 9.35567294 0.28629924 7.7094792 -0.0625 6.0625 C-0.25972656 5.14597656 -0.45695312 4.22945312 -0.66015625 3.28515625 C-0.77230469 2.53105469 -0.88445312 1.77695312 -1 1 C-0.67 0.67 -0.34 0.34 0 0 Z " fill="#000000" transform="translate(270,671)"/>
<path d="M0 0 C0.66 0 1.32 0 2 0 C1.43454163 3.95820859 0.19097652 6.6659053 -2 10 C-2.99 9.67 -3.98 9.34 -5 9 C-4.3566152 7.686298 -3.71021785 6.37407102 -3.0625 5.0625 C-2.70285156 4.33160156 -2.34320313 3.60070312 -1.97265625 2.84765625 C-1 1 -1 1 0 0 Z " fill="#000000" transform="translate(413,666)"/>
<path d="M0 0 C0.99 0 1.98 0 3 0 C2.49287967 3.71888239 1.88391785 6.73454239 0 10 C-0.99 10 -1.98 10 -3 10 C-2.01 6.7 -1.02 3.4 0 0 Z " fill="#000000" transform="translate(420,648)"/>
<path d="M0 0 C0.99 0 1.98 0 3 0 C2.01 3.3 1.02 6.6 0 10 C-0.99 10 -1.98 10 -3 10 C-2.69201674 8.51988629 -2.378482 7.04092675 -2.0625 5.5625 C-1.88847656 4.73878906 -1.71445312 3.91507813 -1.53515625 3.06640625 C-1 1 -1 1 0 0 Z " fill="#000000" transform="translate(272,633)"/>
<path d="M0 0 C0.66 0.33 1.32 0.66 2 1 C0.65117186 5.04648443 -1.34826069 5.95502599 -5 8 C-5.99 7.67 -6.98 7.34 -8 7 C-5.42215154 4.35247996 -3.08351902 2.05567935 0 0 Z " fill="#000000" transform="translate(285,618)"/>
<path d="M0 0 C0 0.99 0 1.98 0 3 C-6.625 6 -6.625 6 -10 6 C-10 5.01 -10 4.02 -10 3 C-8.70990357 2.49596232 -7.41786211 1.99690074 -6.125 1.5 C-5.04605469 1.08234375 -5.04605469 1.08234375 -3.9453125 0.65625 C-2 0 -2 0 0 0 Z " fill="#000000" transform="translate(392,570)"/>
<path d="M0 0 C0 0.99 0 1.98 0 3 C-4.95 4.485 -4.95 4.485 -10 6 C-10 5.01 -10 4.02 -10 3 C-3.375 0 -3.375 0 0 0 Z " fill="#000000" transform="translate(410,563)"/>
<path d="M0 0 C0.66 0.33 1.32 0.66 2 1 C1.67 1.99 1.34 2.98 1 4 C-1.06640625 4.94921875 -1.06640625 4.94921875 -3.5625 5.6875 C-4.38878906 5.93886719 -5.21507812 6.19023438 -6.06640625 6.44921875 C-6.70449219 6.63097656 -7.34257812 6.81273437 -8 7 C-7.71484375 5.11328125 -7.71484375 5.11328125 -7 3 C-3.5625 1.1875 -3.5625 1.1875 0 0 Z " fill="#000000" transform="translate(426,555)"/>
<path d="M0 0 C-0.1875 1.875 -0.1875 1.875 -1 4 C-4.29826907 5.78284814 -6.1774751 6 -10 6 C-9.67 5.01 -9.34 4.02 -9 3 C-2.88888889 0 -2.88888889 0 0 0 Z " fill="#000000" transform="translate(481,533)"/>
<path d="M0 0 C-0.33 0.66 -0.66 1.32 -1 2 C-3.28515625 2.6328125 -3.28515625 2.6328125 -6.0625 3.125 C-6.98160156 3.29257812 -7.90070313 3.46015625 -8.84765625 3.6328125 C-9.91306641 3.81457031 -9.91306641 3.81457031 -11 4 C-11 3.01 -11 2.02 -11 1 C-6.87831311 -0.62950412 -4.29299643 -1.26264601 0 0 Z " fill="#000000" transform="translate(280,516)"/>
<path d="M0 0 C0.99 0 1.98 0 3 0 C3.33 3.63 3.66 7.26 4 11 C3.01 11 2.02 11 1 11 C-0.28317892 7.15046324 -0.06643637 4.05261865 0 0 Z " fill="#000000" transform="translate(437,490)"/>
<path d="M0 0 C0.66 0.33 1.32 0.66 2 1 C0.64978174 5.41889613 -1.26115668 7.34345343 -5 10 C-5 4.69520066 -3.4637943 3.81017373 0 0 Z " fill="#000000" transform="translate(541,486)"/>
<path d="M0 0 C4.2742558 1.5830577 6.26531794 4.50568404 9 8 C5 8 5 8 2.25 5.6875 C0 3 0 3 0 0 Z " fill="#000000" transform="translate(144,463)"/>
<path d="M0 0 C0.99 0 1.98 0 3 0 C2.42647107 3.87132028 0.51295648 6.08172796 -2 9 C-2.99 8.67 -3.98 8.34 -5 8 C-4.24266726 6.6589523 -3.46867264 5.32730219 -2.6875 4 C-2.25824219 3.2575 -1.82898438 2.515 -1.38671875 1.75 C-0.70029297 0.88375 -0.70029297 0.88375 0 0 Z " fill="#000000" transform="translate(354,453)"/>
<path d="M0 0 C0.66 0.33 1.32 0.66 2 1 C2.4140625 3.28515625 2.4140625 3.28515625 2.625 6.0625 C2.69976562 6.98160156 2.77453125 7.90070313 2.8515625 8.84765625 C2.92503906 9.91306641 2.92503906 9.91306641 3 11 C2.01 11 1.02 11 0 11 C-0.19406478 9.35492782 -0.38007935 7.70890406 -0.5625 6.0625 C-0.66691406 5.14597656 -0.77132813 4.22945313 -0.87890625 3.28515625 C-0.91886719 2.53105469 -0.95882813 1.77695312 -1 1 C-0.67 0.67 -0.34 0.34 0 0 Z " fill="#000000" transform="translate(425,391)"/>
<path d="M0 0 C0.66 0 1.32 0 2 0 C1.44894091 3.9492568 0.61064629 7.34920174 -1 11 C-1.99 10.67 -2.98 10.34 -4 10 C-3.52449439 8.51965236 -3.04448784 7.04074979 -2.5625 5.5625 C-2.29566406 4.73878906 -2.02882813 3.91507812 -1.75390625 3.06640625 C-1 1 -1 1 0 0 Z " fill="#000000" transform="translate(597,381)"/>
<path d="M0 0 C0.99 0 1.98 0 3 0 C3.33 3.63 3.66 7.26 4 11 C3.01 11 2.02 11 1 11 C0.67 7.37 0.34 3.74 0 0 Z " fill="#000000" transform="translate(94,334)"/>
<path d="M0 0 C0.99 0 1.98 0 3 0 C3.14285714 7.42857143 3.14285714 7.42857143 2 11 C1.01 10.67 0.02 10.34 -1 10 C-0.67 6.7 -0.34 3.4 0 0 Z " fill="#000000" transform="translate(95,275)"/>
<path d="M0 0 C0.99 0.33 1.98 0.66 3 1 C2.01 4.3 1.02 7.6 0 11 C-0.99 10.67 -1.98 10.34 -3 10 C-2.01 6.7 -1.02 3.4 0 0 Z " fill="#000000" transform="translate(106,216)"/>
<path d="M0 0 C0.99 0 1.98 0 3 0 C2.29445932 3.66881155 0.72264494 6.70450534 -1 10 C-1.99 10 -2.98 10 -4 10 C-2.8905928 6.51329166 -1.73662334 3.22515763 0 0 Z " fill="#000000" transform="translate(128,161)"/>
<path d="M0 0 C0.66 0 1.32 0 2 0 C1.58578031 4.83256305 -0.46413986 6.82679218 -4 10 C-4.33 9.01 -4.66 8.02 -5 7 C-4.07421875 5.17578125 -4.07421875 5.17578125 -2.6875 3.3125 C-2.23761719 2.68988281 -1.78773438 2.06726563 -1.32421875 1.42578125 C-0.88722656 0.95527344 -0.45023438 0.48476562 0 0 Z " fill="#000000" transform="translate(139,144)"/>
<path d="M0 0 C3.71888239 0.50712033 6.73454239 1.11608215 10 3 C10 3.99 10 4.98 10 6 C6.7 5.01 3.4 4.02 0 3 C0 2.01 0 1.02 0 0 Z " fill="#000000" transform="translate(356,60)"/>
<path d="M0 0 C0 0.99 0 1.98 0 3 C-3.3 3.33 -6.6 3.66 -10 4 C-10 3.01 -10 2.02 -10 1 C-6.59437148 0.22157062 -3.49234244 -0.09978121 0 0 Z " fill="#000000" transform="translate(356,716)"/>
<path d="M0 0 C0 0.99 0 1.98 0 3 C-3.72965139 5.03435531 -5.66905042 6 -10 6 C-9.67 5.01 -9.34 4.02 -9 3 C-2.88888889 0 -2.88888889 0 0 0 Z " fill="#000000" transform="translate(375,709)"/>
<path d="M0 0 C0.99 0.33 1.98 0.66 3 1 C1.02 3.97 -0.96 6.94 -3 10 C-3.66 9.67 -4.32 9.34 -5 9 C-3.7508258 5.54074837 -2.32472205 2.85306797 0 0 Z " fill="#000000" transform="translate(552,470)"/>
<path d="M0 0 C0.99 0 1.98 0 3 0 C3.33 3.3 3.66 6.6 4 10 C2.68 9.67 1.36 9.34 0 9 C0 6.03 0 3.06 0 0 Z " fill="#000000" transform="translate(434,451)"/>
<path d="M0 0 C0.99 0.66 1.98 1.32 3 2 C1.35 4.97 -0.3 7.94 -2 11 C-2.66 10.67 -3.32 10.34 -4 10 C-3.29445932 6.33118845 -1.72264494 3.29549466 0 0 Z " fill="#000000" transform="translate(572,435)"/>
<path d="M0 0 C0.66 0.33 1.32 0.66 2 1 C0.80100302 4.0831351 -0.47700477 7.06279492 -2 10 C-2.99 10 -3.98 10 -5 10 C-3.84414715 6.08788267 -2.64465038 3.1254959 0 0 Z " fill="#000000" transform="translate(386,400)"/>
<path d="M0 0 C0.66 0.33 1.32 0.66 2 1 C0.68775452 4.93673644 -0.91910327 7.22719294 -4 10 C-4.33 9.01 -4.66 8.02 -5 7 C-4.00390625 5.17578125 -4.00390625 5.17578125 -2.5625 3.3125 C-2.08941406 2.68988281 -1.61632812 2.06726563 -1.12890625 1.42578125 C-0.75636719 0.95527344 -0.38382812 0.48476563 0 0 Z " fill="#000000" transform="translate(407,369)"/>
<path d="M0 0 C2.35953094 2.35953094 2.49141413 3.77895617 3 7 C-1 7 -1 7 -4 6 C-2.68 4.02 -1.36 2.04 0 0 Z " fill="#000000" transform="translate(416,356)"/>
<path d="M0 0 C0.99 0 1.98 0 3 0 C3 3.3 3 6.6 3 10 C2.01 10 1.02 10 0 10 C0 6.7 0 3.4 0 0 Z " fill="#000000" transform="translate(94,315)"/>
<path d="M0 0 C0.99 0 1.98 0 3 0 C3 3.3 3 6.6 3 10 C2.01 10 1.02 10 0 10 C0 6.7 0 3.4 0 0 Z " fill="#000000" transform="translate(94,295)"/>
<path d="M0 0 C-0.47205119 4.24846075 -2.88877522 6.26819288 -6 9 C-6.66 9 -7.32 9 -8 9 C-7.53918323 4.85264908 -4.48412936 0 0 0 Z " fill="#000000" transform="translate(166,113)"/>
<path d="M0 0 C4.95 0.99 4.95 0.99 10 2 C10 2.99 10 3.98 10 5 C6.7 4.34 3.4 3.68 0 3 C0 2.01 0 1.02 0 0 Z " fill="#000000" transform="translate(337,54)"/>
<path d="M0 0 C0 0.66 0 1.32 0 2 C-3.63 2.33 -7.26 2.66 -11 3 C-11 2.01 -11 1.02 -11 0 C-3.57142857 -1.28571429 -3.57142857 -1.28571429 0 0 Z " fill="#000000" transform="translate(260,519)"/>
<path d="M0 0 C0.99 0.66 1.98 1.32 3 2 C1.35 4.97 -0.3 7.94 -2 11 C-2.66 10.67 -3.32 10.34 -4 10 C-2.8905928 6.51329166 -1.73662334 3.22515763 0 0 Z " fill="#000000" transform="translate(581,417)"/>
<path d="M0 0 C0.556875 0.226875 1.11375 0.45375 1.6875 0.6875 C-0.43919835 3.02686818 -2.37474856 4.49403848 -5.3125 5.6875 C-6.3025 5.6875 -7.2925 5.6875 -8.3125 5.6875 C-7.3125 2.6875 -7.3125 2.6875 -5 0.9375 C-2.3125 -0.3125 -2.3125 -0.3125 0 0 Z " fill="#000000" transform="translate(497.3125,525.3125)"/>
<path d="M0 0 C0.99 0.33 1.98 0.66 3 1 C1.35 3.64 -0.3 6.28 -2 9 C-2.99 8.67 -3.98 8.34 -5 8 C-3.35 5.36 -1.7 2.72 0 0 Z " fill="#000000" transform="translate(396,385)"/>
<path d="M0 0 C0.99 0 1.98 0 3 0 C2.67 3.63 2.34 7.26 2 11 C1.34 11 0.68 11 0 11 C0 7.37 0 3.74 0 0 Z " fill="#000000" transform="translate(268,652)"/>
<path d="M0 0 C0.99 0 1.98 0 3 0 C2.34 1.98 1.68 3.96 1 6 C0.01 5.67 -0.98 5.34 -2 5 C-1.34 3.35 -0.68 1.7 0 0 Z " fill="#000000" transform="translate(602,367)"/>
<path d="M0 0 C0.99 0 1.98 0 3 0 C3.33 1.65 3.66 3.3 4 5 C3.01 5 2.02 5 1 5 C0.67 3.35 0.34 1.7 0 0 Z " fill="#000000" transform="translate(413,112)"/>
<path d="M0 0 C0.99 0.33 1.98 0.66 3 1 C2.67 1.99 2.34 2.98 2 4 C1.01 3.01 0.02 2.02 -1 1 C-0.67 0.67 -0.34 0.34 0 0 Z " fill="#000000" transform="translate(539,402)"/>
<path d="M0 0 C0.99 0.33 1.98 0.66 3 1 C2.67 1.99 2.34 2.98 2 4 C1.01 3.01 0.02 2.02 -1 1 C-0.67 0.67 -0.34 0.34 0 0 Z " fill="#000000" transform="translate(503,357)"/>
<path d="M0 0 C0.99 0.33 1.98 0.66 3 1 C2.67 1.99 2.34 2.98 2 4 C1.01 3.01 0.02 2.02 -1 1 C-0.67 0.67 -0.34 0.34 0 0 Z " fill="#000000" transform="translate(10,308)"/>
</svg>
