<?xml version="1.0" encoding="UTF-8"?>
<svg version="1.1" xmlns="http://www.w3.org/2000/svg" width="637" height="751">
<path d="M0 0 C1.12647949 0.12890625 2.25295898 0.2578125 3.41357422 0.390625 C35.13617758 4.06220294 61.93222471 12.92537415 89 30 C90.10988281 30.68964844 91.21976562 31.37929688 92.36328125 32.08984375 C111.76982299 44.54258019 133.83903085 67.26470449 139.12890625 90.54296875 C140.26344009 96.6481932 140.33061187 102.68074071 140.3125 108.875 C140.32861328 109.96941406 140.34472656 111.06382812 140.36132812 112.19140625 C140.37100042 128.53757739 135.42444689 141.43042732 124.0390625 153.09765625 C109.65724001 167.19519774 92.17201868 174.1702812 71.98632812 174.08789062 C71.18646484 174.07951172 70.38660156 174.07113281 69.5625 174.0625 C68.32209961 174.05573242 68.32209961 174.05573242 67.05664062 174.04882812 C65.03772854 174.03715811 63.01885426 174.01922718 61 174 C60.90501221 173.38705078 60.81002441 172.77410156 60.7121582 172.14257812 C57.72675706 153.19192495 53.26950234 136.31399992 45 119 C44.70254883 118.3723877 44.40509766 117.74477539 44.09863281 117.09814453 C36.25877828 100.82091141 25.46608987 84.18961019 9 75.875 C8.17056885 75.44832031 7.3411377 75.02164063 6.48657227 74.58203125 C-0.81866497 70.91574816 -8.11701472 68.16192051 -16 66 C-16.81855469 65.75636719 -17.63710938 65.51273437 -18.48046875 65.26171875 C-37.79038838 60.37607644 -57.25732196 65.05003909 -74 75 C-77.18190297 77.15819881 -80.1058668 79.47472691 -83 82 C-83.9590625 82.76054688 -84.918125 83.52109375 -85.90625 84.3046875 C-104.2079417 99.5713821 -112.85004766 122.97551045 -115 146 C-115.11085937 147.01191406 -115.22171875 148.02382812 -115.3359375 149.06640625 C-118.1848756 179.82723792 -116.75387897 208.26444928 -96.9375 233.375 C-83.6734627 249.21864184 -83.6734627 249.21864184 -67 261 C-62.32415185 261.20206017 -57.9829586 260.80185425 -53.37890625 260.01171875 C-52.12601807 259.80119873 -50.87312988 259.59067871 -49.58227539 259.3737793 C-48.92695831 259.26158051 -48.27164124 259.14938171 -47.59646606 259.03378296 C-44.11937677 258.4418081 -40.63782347 257.87740496 -37.15625 257.3125 C-36.45859024 257.19923874 -35.76093048 257.08597748 -35.04212952 256.96928406 C-0.30434301 251.35313858 44.71981499 247.10861053 76 267 C83.95157316 273.05331962 89.95854648 278.96285355 92 289 C93.1572152 299.88188326 89.40854301 308.42109709 83 317 C82.38125 317.886875 81.7625 318.77375 81.125 319.6875 C67.13285204 334.91424925 43.61033091 339.14020001 24 342 C22.90308838 342.16918945 21.80617676 342.33837891 20.67602539 342.51269531 C11.63902284 343.83089857 2.8276599 344.38746643 -6.3125 344.375 C-6.99942932 344.37445618 -7.68635864 344.37391235 -8.394104 344.37335205 C-28.28813438 344.30182578 -47.30765916 340.76325149 -66.55224609 335.84326172 C-72.90207415 334.26207924 -77.4252733 333.29801148 -83.53515625 336.20703125 C-119.53896724 359.07807656 -139.97342014 403.89596379 -149 444.125 C-156.06227912 480.31918048 -150.1412163 521.22786257 -129.6875 552.17578125 C-112.44806988 577.24166279 -82.94271677 591.705298 -53.67578125 597.41015625 C-17.39665161 603.23178067 27.22201426 601.4752084 61 586 C61.77408203 585.65952637 62.54816406 585.31905273 63.34570312 584.96826172 C89.551557 573.42520704 114.81322581 557.49005787 135.42675781 537.52197266 C136.53196446 536.45278298 137.64391845 535.3905453 138.76074219 534.33349609 C153.93611867 519.95241207 165.26003867 504.18517651 175.73095703 486.1484375 C177.3433201 483.41877321 179.06582408 480.77029983 180.8125 478.125 C194.69967453 456.29275927 201.65450564 430.53002315 209.45703125 406.05078125 C209.66881516 405.38982452 209.88059906 404.7288678 210.09880066 404.04788208 C211.20035127 400.59165329 212.26029056 397.12850937 213.26586914 393.64306641 C213.47688766 392.92741013 213.68790619 392.21175385 213.90531921 391.47441101 C214.48612701 389.49805294 215.05287816 387.51757937 215.61865234 385.53686523 C218.48198512 378.20545803 224.18215073 372.32956983 230.9375 368.3125 C236.44185711 366.05515759 242.51074197 366.00838138 248.19921875 367.625 C259.71683448 372.69365604 266.79894543 384.77171546 271.19140625 396.0625 C275.03657582 410.03142519 269.33870856 423.82190072 265 437 C264.79681152 437.62013977 264.59362305 438.24027954 264.38427734 438.87921143 C236.40390018 524.18543637 184.61385482 605.89494803 103 648 C101.83597656 648.60255615 101.83597656 648.60255615 100.6484375 649.21728516 C70.2259603 664.76640406 36.63590156 675.28886963 3 681 C2.05157227 681.16371094 1.10314453 681.32742188 0.12597656 681.49609375 C-71.40056147 693.15619628 -169.67545387 682.8747005 -230.125 640.1875 C-247.58201042 627.51167757 -263.36228263 612.50611534 -276 595 C-276.60021973 594.16871582 -277.20043945 593.33743164 -277.81884766 592.48095703 C-293.94743175 569.93323684 -303.56787597 547.60813165 -307 520 C-307.0942627 519.24203125 -307.18852539 518.4840625 -307.28564453 517.703125 C-313.34009404 463.80877659 -293.45666935 411.03277369 -260.18212891 369.07177734 C-253.13937625 360.36577327 -245.70388588 352.08013574 -237 345 C-236.49549316 344.57783203 -235.99098633 344.15566406 -235.47119141 343.72070312 C-217.98509247 329.08957988 -183.76595573 301 -160 301 C-160 300.34 -160 299.68 -160 299 C-160.66773438 298.90976562 -161.33546875 298.81953125 -162.0234375 298.7265625 C-165.83300062 297.79666914 -169.1528144 296.14697783 -172.625 294.375 C-173.33285645 294.01599609 -174.04071289 293.65699219 -174.77001953 293.28710938 C-188.75410587 286.09039782 -200.53135492 276.69446652 -212 266 C-212.79019531 265.27554687 -213.58039063 264.55109375 -214.39453125 263.8046875 C-238.09771289 241.21199418 -249.4699729 211.55506041 -250.28125 179.06640625 C-250.55239969 164.89415362 -250.69866301 150.78457538 -247 137 C-246.82839355 136.34902344 -246.65678711 135.69804687 -246.47998047 135.02734375 C-238.71823466 106.22772929 -222.55313496 82.27535347 -202 61 C-201.37738281 60.32582031 -200.75476563 59.65164062 -200.11328125 58.95703125 C-191.82801761 50.19029951 -181.28001772 43.66883614 -171.01074219 37.49731445 C-169.25916147 36.44301441 -167.51610035 35.37560119 -165.7734375 34.30664062 C-151.18033086 25.42232221 -136.41076336 18.69364452 -120.20263672 13.26245117 C-117.39338619 12.31867688 -114.59315974 11.35113758 -111.79296875 10.38085938 C-75.14290333 -2.14575126 -38.37072822 -4.68883546 0 0 Z M-66.9375 5.1875 C-67.79053711 5.28836914 -68.64357422 5.38923828 -69.52246094 5.49316406 C-85.0166123 7.6796723 -100.14319923 12.78471359 -114.90673828 17.80932617 C-117.49388141 18.68542802 -120.08826381 19.53717861 -122.68359375 20.38867188 C-139.48269939 26.01326044 -154.62494239 34.16488812 -169.5625 43.625 C-170.53767578 44.22828125 -171.51285156 44.8315625 -172.51757812 45.453125 C-205.8774135 66.40051662 -232.41406614 100.68707127 -241.4375 139.3125 C-246.04542295 159.77695525 -246.29245188 184.59294196 -241 205 C-240.79068848 205.81742676 -240.58137695 206.63485352 -240.36572266 207.47705078 C-233.67434999 232.89290152 -219.54161311 253.50833193 -199 270 C-198.05769531 270.76828125 -197.11539063 271.5365625 -196.14453125 272.328125 C-181.63249963 283.95670258 -165.57055538 293.74200783 -147 297 C-147 298.98 -147 300.96 -147 303 C-147.54454834 303.10231934 -148.08909668 303.20463867 -148.65014648 303.31005859 C-154.44001959 304.48499489 -159.65228502 306.27465606 -165.0625 308.625 C-166.29359497 309.15287109 -166.29359497 309.15287109 -167.54956055 309.69140625 C-195.25179474 321.71701646 -219.85055627 337.41142311 -242 358 C-242.66515625 358.61101562 -243.3303125 359.22203125 -244.015625 359.8515625 C-276.42695421 390.81360463 -301.13497292 442.69128162 -302.203125 487.4140625 C-302.56825907 520.72907981 -298.24612429 552.06158744 -279 580 C-278.59056152 580.59635254 -278.18112305 581.19270508 -277.75927734 581.80712891 C-267.66947731 596.41463197 -256.66293614 610.57110678 -243 622 C-241.58267578 623.24910156 -241.58267578 623.24910156 -240.13671875 624.5234375 C-198.12467106 661.36910339 -140.99711507 671.37912627 -87 677 C-86.04561035 677.103125 -85.0912207 677.20625 -84.10791016 677.3125 C-73.63397378 678.28665784 -63.11312781 678.22183058 -52.60302734 678.24023438 C-49.29888928 678.24985761 -45.99539697 678.28092535 -42.69140625 678.3125 C19.74043242 678.6230888 86.05578498 657.41879834 137 621 C137.99773437 620.30003906 138.99546875 619.60007812 140.0234375 618.87890625 C152.78079587 609.53925994 163.73825613 597.97882345 174 586 C174.46196777 585.4652002 174.92393555 584.93040039 175.39990234 584.37939453 C194.60326599 562.09658554 212.16045104 538.45926501 227.125 513.125 C227.96804688 511.70924683 227.96804688 511.70924683 228.828125 510.26489258 C237.71028552 495.02449942 244.12430068 479.00627463 250.0625 462.4375 C250.41072815 461.47287842 250.7589563 460.50825684 251.11773682 459.5144043 C264.83439292 428.00952733 264.83439292 428.00952733 264.39453125 395.796875 C260.12845534 387.24082359 256.12948838 379.46089546 248 374 C243.93000201 372.643334 240.25570189 372.47442447 236 373 C228.38062239 376.9562153 222.64991667 383.53720561 219.67895508 391.57324219 C219.28242685 392.89481153 218.89643615 394.21957592 218.51953125 395.546875 C218.30559723 396.26694229 218.09166321 396.98700958 217.87124634 397.72889709 C217.41424266 399.26863669 216.96140682 400.80961853 216.51242065 402.35171509 C215.32270746 406.42827888 214.09377127 410.49300082 212.8671875 414.55859375 C212.62292526 415.37015427 212.37866302 416.18171478 212.1269989 417.01786804 C204.92245139 440.86952985 196.86768337 465.00810593 183.25537109 486.046875 C181.8288768 488.26623602 180.43908752 490.50656138 179.05078125 492.75 C171.81755649 504.40004329 164.47576626 515.56070977 155.1484375 525.66796875 C153.23738071 527.74233403 151.393487 529.85525231 149.5625 532 C141.74176008 540.90992973 133.25575511 548.50318076 123.81787109 555.62207031 C122.06929732 556.94747326 120.3406718 558.2956074 118.61328125 559.6484375 C103.63010544 571.20439533 86.91918431 580.3101428 69.9375 588.5625 C68.47787842 589.27684204 68.47787842 589.27684204 66.98876953 590.00561523 C53.15569173 596.55867761 39.88465096 599.88438281 24.80297852 601.88574219 C22.06742134 602.24934587 19.33558531 602.6345761 16.60351562 603.0234375 C-27.49729592 609.17893113 -73.88500084 606.57218816 -111.03222656 579.43823242 C-138.48913256 558.69166466 -150.98212537 529.38303096 -156 496 C-161.23004232 456.9227027 -151.49066669 419.34104623 -133 385 C-132.64292969 384.32598145 -132.28585938 383.65196289 -131.91796875 382.95751953 C-124.81077542 369.5938614 -116.42323428 358.03966211 -106 347 C-105.34257812 346.28972656 -104.68515625 345.57945312 -104.0078125 344.84765625 C-99.8641519 340.51262177 -95.5038655 336.90806716 -90.48046875 333.625 C-88.01059122 332.06768125 -88.01059122 332.06768125 -85.92578125 330.3125 C-82.51156298 327.81524321 -80.22886925 326.84797494 -75.96875 327.375 C-73.36267346 328.05484605 -70.79479051 328.77692524 -68.21484375 329.54296875 C-61.54995523 331.49232437 -54.74971619 332.80403303 -47.9375 334.125 C-47.26496185 334.25541687 -46.59242371 334.38583374 -45.89950562 334.52020264 C-10.11816008 341.38108882 37.08870705 342.57831041 69 322 C77.10459815 316.16771909 83.87746313 307.97592327 86 298 C86.95365435 290.0578474 84.78865623 284.85614184 80.18359375 278.48828125 C77.89818303 275.88397602 75.74742602 274.26282917 72.8125 272.4375 C71.93207031 271.87933594 71.05164063 271.32117188 70.14453125 270.74609375 C63.14272166 266.8581324 56.43769201 264.32680725 48.5625 262.875 C47.69125488 262.71032227 46.82000977 262.54564453 45.92236328 262.37597656 C37.30233586 260.79675877 28.74594686 259.57797188 20 259 C19.1661377 258.93731934 18.33227539 258.87463867 17.47314453 258.81005859 C-3.23826408 257.4587353 -23.61858815 261.16187928 -44.0234375 264.2734375 C-45.50090706 264.49660141 -45.50090706 264.49660141 -47.00822449 264.72427368 C-52.06029019 265.49972775 -57.03828651 266.42528623 -62.0390625 267.48828125 C-65.57345201 268.08024163 -67.65206512 268.14794087 -70.8125 266.39453125 C-71.90413946 265.57112698 -72.96687573 264.70822626 -74 263.8125 C-74.57903076 263.35488281 -75.15806152 262.89726562 -75.75463867 262.42578125 C-77.54090841 260.9899374 -79.27281052 259.50617237 -81 258 C-81.54221191 257.53770996 -82.08442383 257.07541992 -82.64306641 256.59912109 C-103.23767841 238.92948612 -119.48595966 216.6776177 -121.8059082 188.91967773 C-124.17776164 153.24043846 -121.45646742 115.61275249 -97.26171875 87.515625 C-96.51535156 86.68546875 -95.76898438 85.8553125 -95 85 C-94.32582031 84.23171875 -93.65164063 83.4634375 -92.95703125 82.671875 C-78.69447905 67.36572142 -59.04179192 58.34482508 -38.16040039 57.5949707 C-15.90865267 57.29521557 9.8249513 65.00993172 26.4765625 80.26953125 C48.61767214 103.81823721 62.17215842 136.17749609 66 168 C86.08518564 169.27750297 103.24132762 163.32084042 118.52392578 150.33935547 C127.7835705 141.93736887 133.34412794 131.46451226 134.20703125 119.01245117 C134.30389626 115.71424799 134.32203628 112.42455312 134.3125 109.125 C134.32861328 108.01769531 134.34472656 106.91039062 134.36132812 105.76953125 C134.37459694 83.18600145 120.05400971 64.99324974 105.171875 49.08203125 C101.4353948 45.50011767 97.35677851 42.77350195 93 40 C91.67234496 39.10931203 90.34559718 38.21727088 89.01953125 37.32421875 C50.68853723 11.89618723 9.18198733 3.78743227 -36.25 3.75 C-36.9926712 3.74932526 -37.73534241 3.74865051 -38.5005188 3.74795532 C-48.03447587 3.76161557 -57.46169128 4.02959234 -66.9375 5.1875 Z " fill="#000000" transform="translate(354,30)"/>
<path d="M0 0 C1.57587891 0.29801514 1.57587891 0.29801514 3.18359375 0.60205078 C33.85517711 6.6306968 62.80414939 17.82473903 87 38 C87.95132812 38.78117187 88.90265625 39.56234375 89.8828125 40.3671875 C101.09269956 50.00014855 111.26452701 62.80969873 118 76 C118 76.66 118 77.32 118 78 C116.26171875 77.8984375 116.26171875 77.8984375 114 77 C112.44817844 74.89332064 111.12769937 72.87069852 109.8125 70.625 C88.22903202 35.56191062 52.13278807 15.97747509 12.9296875 6.64501953 C-2.62851077 3.21962288 -18.40201655 0.87526681 -34.34375 0.796875 C-35.30267654 0.78986069 -36.26160309 0.78284637 -37.24958801 0.77561951 C-40.33310692 0.75819251 -43.41643363 0.75176558 -46.5 0.75 C-47.5545639 0.74932526 -48.60912781 0.74865051 -49.69564819 0.74795532 C-65.6747776 0.76420338 -81.21875667 1.28730934 -97 4 C-98.0420459 4.17160645 -99.0840918 4.34321289 -100.15771484 4.52001953 C-132.97557697 10.01997276 -164.99755215 19.55754342 -195 34 C-196.21647217 34.57355225 -196.21647217 34.57355225 -197.45751953 35.15869141 C-220.53439358 46.05975851 -242.15563049 59.60059118 -260.8828125 77.03515625 C-262.85245492 78.86307163 -264.87777648 80.58779175 -266.9375 82.3125 C-294.57549094 106.63393202 -312.96916282 142.02437897 -315.55322266 178.80151367 C-315.74044352 181.86682985 -315.88165754 184.93125759 -316 188 C-315.01 188 -314.02 188 -313 188 C-313 192.95 -313 197.9 -313 203 C-313.66 203 -314.32 203 -315 203 C-306.64052508 242.00446247 -289.47033584 275.50205754 -262.0703125 304.62109375 C-259.47409674 307.60429261 -257.26223844 310.75640725 -255 314 C-256.99874119 315.8555387 -258.99896158 317.70944124 -261 319.5625 C-261.55300781 320.07619141 -262.10601562 320.58988281 -262.67578125 321.11914062 C-265.68674308 323.90514554 -268.72959019 326.63762752 -271.83984375 329.3125 C-276.62256639 333.47937941 -281.08948675 337.94306769 -285.5625 342.4375 C-286.37396484 343.24509766 -287.18542969 344.05269531 -288.02148438 344.88476562 C-292.88838556 349.75952299 -297.55264793 354.73987226 -302 360 C-302.5168335 360.61012939 -303.03366699 361.22025879 -303.56616211 361.84887695 C-315.71011483 376.32338999 -326.76143842 391.50229353 -336 408 C-336.4316748 408.76763672 -336.86334961 409.53527344 -337.30810547 410.32617188 C-363.84494215 457.99262327 -374.26794089 513.75065967 -359.5 567.0078125 C-349.05574039 602.58886451 -330.64665376 633.37394472 -305 660 C-304.41702148 660.61020996 -303.83404297 661.22041992 -303.23339844 661.84912109 C-295.23372454 670.18725911 -287.02450634 677.82121824 -277.73730469 684.70263672 C-276.01624144 685.98787142 -274.323612 687.3042016 -272.6328125 688.62890625 C-234.07011286 718.40854538 -186.71090691 734.7848527 -139 742 C-138.1529248 742.13277344 -137.30584961 742.26554688 -136.43310547 742.40234375 C-78.32170062 751.14053177 -13.30973492 738.66527023 38.15917969 710.98144531 C40.11682208 709.93771555 42.09110567 708.93187655 44.0703125 707.9296875 C61.13826382 699.21392769 76.91422266 688.79441491 92 677 C92.89847656 676.30390625 93.79695313 675.6078125 94.72265625 674.890625 C117.2279666 657.17912873 138.16080016 637.43599024 156 615 C156.9899741 613.7989534 157.98233157 612.59986891 158.9765625 611.40234375 C175.89346757 590.96684535 190.75726252 568.98093303 204 546 C204.51143555 545.11248047 205.02287109 544.22496094 205.54980469 543.31054688 C212.17884237 531.75085162 218.58634386 520.09933744 224.5625 508.1875 C225.03856689 507.24076416 225.51463379 506.29402832 226.00512695 505.31860352 C229.2997385 498.66204787 232.21562169 491.88450151 235 485 C233.02 485.33 231.04 485.66 229 486 C230 483 230 483 233.3125 481.25 C238.10954995 479.62388137 238.10954995 479.62388137 241 481 C242.046875 483.28515625 242.046875 483.28515625 242.75 486.0625 C242.99234375 486.98160156 243.2346875 487.90070313 243.484375 488.84765625 C243.73960937 489.91306641 243.73960937 489.91306641 244 491 C242.0625 490.6875 242.0625 490.6875 240 490 C239.67 489.01 239.34 488.02 239 487 C235.83899171 493.22781434 232.69933359 499.45824038 229.765625 505.796875 C223.9829816 518.26438409 217.58259539 530.24345248 210.67333984 542.12255859 C209.01854833 544.96810467 207.37817316 547.82162953 205.73828125 550.67578125 C192.43398894 573.6745187 177.16929742 595.70343769 160 616 C159.175 616.99773438 158.35 617.99546875 157.5 619.0234375 C147.9392293 630.54218354 137.67917145 641.39005664 127.125 652 C126.23409668 652.8979126 126.23409668 652.8979126 125.32519531 653.81396484 C65.54654081 713.3763916 -17.19206916 748.21426203 -101.43948364 748.2510376 C-149.41448174 748.16249934 -196.62808203 736.59421432 -239 714 C-239.71607422 713.62262695 -240.43214844 713.24525391 -241.16992188 712.85644531 C-260.51322608 702.61439222 -278.49577437 690.21083076 -294.53125 675.28125 C-296.58044082 673.38769392 -298.6674028 671.5940214 -300.8125 669.8125 C-339.72883556 635.85060551 -365.59598643 583.01803746 -369.72265625 531.80859375 C-374.06211882 464.91432246 -345.69881063 404.47610653 -302.359375 354.95703125 C-295.41224389 347.26846655 -288.06265658 339.9634827 -280.75 332.625 C-280.23021576 332.10244629 -279.71043152 331.57989258 -279.17489624 331.04150391 C-273.73800118 325.58348282 -268.30331397 320.20729806 -262.33691406 315.31787109 C-261.89573242 314.88297363 -261.45455078 314.44807617 -261 314 C-261 310.70984026 -263.46072894 309.24686171 -265.6875 306.9375 C-287.87880683 283.3009916 -306.29626798 253.79872064 -314.75 222.375 C-314.94891846 221.63572266 -315.14783691 220.89644531 -315.3527832 220.13476562 C-318.16508549 209.08341901 -319.36943978 198.14208238 -319.3125 186.75 C-319.30512817 184.98402466 -319.30512817 184.98402466 -319.29760742 183.18237305 C-318.77319194 143.95340561 -299.47107251 110.73159978 -273 83 C-271.79923828 81.71996094 -271.79923828 81.71996094 -270.57421875 80.4140625 C-264.46657562 74.07650809 -257.83634997 68.67059562 -250.82666016 63.38232422 C-249.05417273 62.04099519 -247.29827757 60.68009636 -245.54296875 59.31640625 C-198.76439918 23.47283266 -139.00813625 4.38288598 -81 -2 C-79.86280518 -2.14139404 -79.86280518 -2.14139404 -78.70263672 -2.28564453 C-53.26478709 -5.09865303 -25.14995915 -4.77351714 0 0 Z M-316 191 C-316 193.97 -316 196.94 -316 200 C-315.67 200 -315.34 200 -315 200 C-315 197.03 -315 194.06 -315 191 C-315.33 191 -315.66 191 -316 191 Z " fill="#000000" transform="translate(393,3)"/>
<path d="M0 0 C3.0625 0.1875 3.0625 0.1875 5.0625 2.1875 C4.90004442 5.92397845 4.47466356 7.71288742 2 10.5625 C1.360625 11.09875 0.72125 11.635 0.0625 12.1875 C1.7125 12.5175 3.3625 12.8475 5.0625 13.1875 C5.0625 13.8475 5.0625 14.5075 5.0625 15.1875 C1.7625 15.1875 -1.5375 15.1875 -4.9375 15.1875 C-2.9375 11.1875 -2.9375 11.1875 -0.8125 8.625 C1.36735538 6.30372611 1.36735538 6.30372611 1.0625 3.1875 C0.4025 3.1875 -0.2575 3.1875 -0.9375 3.1875 C-1.2675 3.8475 -1.5975 4.5075 -1.9375 5.1875 C-2.9275 5.1875 -3.9175 5.1875 -4.9375 5.1875 C-3.82120474 0.24390669 -3.82120474 0.24390669 0 0 Z " fill="#000000" transform="translate(19.9375,470.8125)"/>
<path d="M0 0 C0 4.95 0 9.9 0 15 C-0.99 15 -1.98 15 -3 15 C-3 11.37 -3 7.74 -3 4 C-3.99 4.33 -4.98 4.66 -6 5 C-5.625 3.0625 -5.625 3.0625 -5 1 C-3 0 -3 0 0 0 Z " fill="#000000" transform="translate(7,471)"/>
<path d="M0 0 C0 4.95 0 9.9 0 15 C-0.99 15 -1.98 15 -3 15 C-3 11.37 -3 7.74 -3 4 C-3.99 4.33 -4.98 4.66 -6 5 C-5.625 3.0625 -5.625 3.0625 -5 1 C-3 0 -3 0 0 0 Z " fill="#000000" transform="translate(68,191)"/>
<path d="M0 0 C1.79232337 0.30871122 3.58384321 0.62209064 5.375 0.9375 C6.87160156 1.19853516 6.87160156 1.19853516 8.3984375 1.46484375 C11 2 11 2 13 3 C12.67 3.99 12.34 4.98 12 6 C4.25 6.125 4.25 6.125 2 5 C2 4.34 2 3.68 2 3 C1.34 3 0.68 3 0 3 C0 2.01 0 1.02 0 0 Z " fill="#000000" transform="translate(368,328)"/>
<path d="M0 0 C0.99 0.33 1.98 0.66 3 1 C1.26440562 4.057952 -0.38472619 6.63379989 -3 9 C-3.99 8.67 -4.98 8.34 -6 8 C-4.55746343 4.63408134 -2.66735273 2.48952921 0 0 Z " fill="#000000" transform="translate(502,594)"/>
<path d="M0 0 C3.63 0.66 7.26 1.32 11 2 C11 2.99 11 3.98 11 5 C9.56208484 4.85831863 8.1246763 4.71148957 6.6875 4.5625 C5.88699219 4.48128906 5.08648437 4.40007812 4.26171875 4.31640625 C2 4 2 4 -1 3 C-0.67 2.01 -0.34 1.02 0 0 Z " fill="#000000" transform="translate(348,324)"/>
<path d="M0 0 C-0.33 0.99 -0.66 1.98 -1 3 C-4.3 3.66 -7.6 4.32 -11 5 C-11 4.01 -11 3.02 -11 2 C-9.54494642 1.47007308 -8.08581873 0.9513211 -6.625 0.4375 C-5.81289063 0.14746094 -5.00078125 -0.14257812 -4.1640625 -0.44140625 C-2 -1 -2 -1 0 0 Z " fill="#000000" transform="translate(388,667)"/>
<path d="M0 0 C0 0.66 0 1.32 0 2 C-1.26839526 2.50615298 -2.53983102 3.00469099 -3.8125 3.5 C-4.87404297 3.91765625 -4.87404297 3.91765625 -5.95703125 4.34375 C-8 5 -8 5 -11 5 C-11 4.01 -11 3.02 -11 2 C-9.73392393 1.46770674 -8.46189588 0.94955456 -7.1875 0.4375 C-6.47980469 0.14746094 -5.77210938 -0.14257812 -5.04296875 -0.44140625 C-3 -1 -3 -1 0 0 Z " fill="#000000" transform="translate(407,661)"/>
<path d="M0 0 C0.515625 0.2475 1.03125 0.495 1.5625 0.75 C-1.45637244 4.23331435 -4.00659529 5.54157144 -8.4375 6.75 C-8.7675 5.76 -9.0975 4.77 -9.4375 3.75 C-3.0375 -0.31153846 -3.0375 -0.31153846 0 0 Z " fill="#000000" transform="translate(441.4375,643.25)"/>
<path d="M0 0 C3.11743233 1.50098594 6.15501823 3.02431822 9 5 C9 5.99 9 6.98 9 8 C5.00544473 7.38545304 2.25533664 5.29353263 -1 3 C-0.67 2.01 -0.34 1.02 0 0 Z " fill="#000000" transform="translate(169,634)"/>
<path d="M0 0 C0.66 0.33 1.32 0.66 2 1 C0.64978174 5.41889613 -1.26115668 7.34345343 -5 10 C-5.66 9.34 -6.32 8.68 -7 8 C-4.69 5.36 -2.38 2.72 0 0 Z " fill="#000000" transform="translate(516,579)"/>
<path d="M0 0 C0.99 0.33 1.98 0.66 3 1 C1.03681826 4.53372712 -1.04070881 7.24479785 -4 10 C-4.66 9.34 -5.32 8.68 -6 8 C-4.02 5.36 -2.04 2.72 0 0 Z " fill="#000000" transform="translate(528,564)"/>
<path d="M0 0 C0.66 0.33 1.32 0.66 2 1 C1.43454163 4.95820859 0.19097652 7.6659053 -2 11 C-2.99 10.67 -3.98 10.34 -5 10 C-3.35 6.7 -1.7 3.4 0 0 Z " fill="#000000" transform="translate(570,496)"/>
<path d="M0 0 C0.99 0.33 1.98 0.66 3 1 C1.84414715 4.91211733 0.64465038 7.8745041 -2 11 C-2.66 10.67 -3.32 10.34 -4 10 C-2.8905928 6.51329166 -1.73662334 3.22515763 0 0 Z " fill="#000000" transform="translate(138,435)"/>
<path d="M0 0 C0 0.99 0 1.98 0 3 C-1.28913487 3.67154933 -2.58140204 4.33708859 -3.875 5 C-4.59429687 5.37125 -5.31359375 5.7425 -6.0546875 6.125 C-8 7 -8 7 -10 7 C-9.875 5.1875 -9.875 5.1875 -9 3 C-5.79116175 1.04679411 -3.7794561 0 0 0 Z " fill="#000000" transform="translate(228,359)"/>
<path d="M0 0 C1.62580966 0.11398665 3.25067157 0.24155659 4.875 0.375 C5.77992188 0.44460938 6.68484375 0.51421875 7.6171875 0.5859375 C10 1 10 1 12 3 C11.34 3.66 10.68 4.32 10 5 C7.6171875 4.7578125 7.6171875 4.7578125 4.875 4.125 C3.96492188 3.92132813 3.05484375 3.71765625 2.1171875 3.5078125 C1.41851562 3.34023438 0.71984375 3.17265625 0 3 C0 2.01 0 1.02 0 0 Z " fill="#000000" transform="translate(306,316)"/>
<path d="M0 0 C3.36591866 1.44253657 5.51047079 3.33264727 8 6 C7.67 6.99 7.34 7.98 7 9 C4.36 7.02 1.72 5.04 -1 3 C-0.67 2.01 -0.34 1.02 0 0 Z " fill="#000000" transform="translate(196,271)"/>
<path d="M0 0 C3.63 0.33 7.26 0.66 11 1 C11 1.99 11 2.98 11 4 C7.37 3.67 3.74 3.34 0 3 C0 2.01 0 1.02 0 0 Z " fill="#000000" transform="translate(259,673)"/>
<path d="M0 0 C0 0.66 0 1.32 0 2 C-3.3 3.32 -6.6 4.64 -10 6 C-10.33 5.01 -10.66 4.02 -11 3 C-9.73581754 2.30034557 -8.46334598 1.61565237 -7.1875 0.9375 C-6.47980469 0.55464844 -5.77210938 0.17179688 -5.04296875 -0.22265625 C-3 -1 -3 -1 0 0 Z " fill="#000000" transform="translate(425,653)"/>
<path d="M0 0 C0.66 0.33 1.32 0.66 2 1 C0.55527654 4.80881639 -1.32603071 6.29742886 -5 8 C-5.99 7.67 -6.98 7.34 -8 7 C-8 6.34 -8 5.68 -8 5 C-6.3203125 3.67578125 -6.3203125 3.67578125 -4.125 2.3125 C-3.40570313 1.85488281 -2.68640625 1.39726563 -1.9453125 0.92578125 C-1.30335938 0.62027344 -0.66140625 0.31476562 0 0 Z " fill="#000000" transform="translate(457,632)"/>
<path d="M0 0 C0.66 0 1.32 0 2 0 C1.49701212 4.40114397 -0.08772731 6.71195019 -3 10 C-3.99 9.67 -4.98 9.34 -6 9 C-2.25 2.25 -2.25 2.25 0 0 Z " fill="#000000" transform="translate(540,548)"/>
<path d="M0 0 C0.99 0 1.98 0 3 0 C4.17571451 3.67410785 4.07366746 7.16929183 4 11 C3.01 11 2.02 11 1 11 C0.67 7.37 0.34 3.74 0 0 Z " fill="#000000" transform="translate(120,530)"/>
<path d="M0 0 C0.99 0 1.98 0 3 0 C1.8905928 3.48670834 0.73662334 6.77484237 -1 10 C-1.99 10 -2.98 10 -4 10 C-3.52449439 8.51965236 -3.04448784 7.04074979 -2.5625 5.5625 C-2.29566406 4.73878906 -2.02882813 3.91507812 -1.75390625 3.06640625 C-1 1 -1 1 0 0 Z " fill="#000000" transform="translate(578,479)"/>
<path d="M0 0 C0.66 0 1.32 0 2 0 C2.33 0.99 2.66 1.98 3 3 C1.90716423 4.03295436 0.80029421 5.05107835 -0.3125 6.0625 C-0.92738281 6.63097656 -1.54226562 7.19945312 -2.17578125 7.78515625 C-2.77777344 8.18605469 -3.37976563 8.58695312 -4 9 C-4.99 8.67 -5.98 8.34 -7 8 C-6.02133662 6.85373678 -5.04205413 5.70800212 -4.0625 4.5625 C-3.51722656 3.92441406 -2.97195312 3.28632813 -2.41015625 2.62890625 C-1.63204305 1.73008851 -0.84063472 0.84063472 0 0 Z " fill="#000000" transform="translate(176,390)"/>
<path d="M0 0 C0 0.66 0 1.32 0 2 C-6.625 6 -6.625 6 -10 6 C-10 5.01 -10 4.02 -10 3 C-3.375 -1.125 -3.375 -1.125 0 0 Z " fill="#000000" transform="translate(211,369)"/>
<path d="M0 0 C0 0.99 0 1.98 0 3 C-3.3 4.32 -6.6 5.64 -10 7 C-10 5.68 -10 4.36 -10 3 C-8.70990357 2.49596232 -7.41786211 1.99690074 -6.125 1.5 C-5.04605469 1.08234375 -5.04605469 1.08234375 -3.9453125 0.65625 C-2 0 -2 0 0 0 Z " fill="#000000" transform="translate(246,351)"/>
<path d="M0 0 C3.63 0 7.26 0 11 0 C11 0.99 11 1.98 11 3 C7.37 3 3.74 3 0 3 C0 2.01 0 1.02 0 0 Z " fill="#000000" transform="translate(350,330)"/>
<path d="M0 0 C3.63 0.66 7.26 1.32 11 2 C11 2.99 11 3.98 11 5 C7.37 4.34 3.74 3.68 0 3 C0 2.01 0 1.02 0 0 Z " fill="#000000" transform="translate(327,320)"/>
<path d="M0 0 C3.3 0.33 6.6 0.66 10 1 C10.33 1.99 10.66 2.98 11 4 C7.37 3.67 3.74 3.34 0 3 C0 2.01 0 1.02 0 0 Z " fill="#000000" transform="translate(286,312)"/>
<path d="M0 0 C3.95820859 0.56545837 6.6659053 1.80902348 10 4 C9.67 4.99 9.34 5.98 9 7 C4.545 5.02 4.545 5.02 0 3 C0 2.01 0 1.02 0 0 Z " fill="#000000" transform="translate(228,294)"/>
<path d="M0 0 C3.59391114 1.33488128 6.75490696 2.96022723 10 5 C9.01 6.485 9.01 6.485 8 8 C5.03 6.02 2.06 4.04 -1 2 C-0.67 1.34 -0.34 0.68 0 0 Z " fill="#000000" transform="translate(211,284)"/>
<path d="M0 0 C0.928125 1.175625 0.928125 1.175625 1.875 2.375 C3.89858661 4.96837647 3.89858661 4.96837647 6 7 C6 7.99 6 8.98 6 10 C5.01 10 4.02 10 3 10 C1.61328125 8.5390625 1.61328125 8.5390625 0.3125 6.625 C-0.34298828 5.68527344 -0.34298828 5.68527344 -1.01171875 4.7265625 C-2 3 -2 3 -2 1 C-1.34 0.67 -0.68 0.34 0 0 Z " fill="#000000" transform="translate(184,255)"/>
<path d="M0 0 C1.890625 0.21484375 1.890625 0.21484375 4 1 C5.046875 3.06640625 5.046875 3.06640625 5.75 5.5625 C5.99234375 6.38878906 6.2346875 7.21507812 6.484375 8.06640625 C6.65453125 8.70449219 6.8246875 9.34257812 7 10 C5.109375 9.78515625 5.109375 9.78515625 3 9 C1.953125 6.93359375 1.953125 6.93359375 1.25 4.4375 C1.00765625 3.61121094 0.7653125 2.78492188 0.515625 1.93359375 C0.34546875 1.29550781 0.1753125 0.65742188 0 0 Z " fill="#000000" transform="translate(173,238)"/>
<path d="M0 0 C0.99 0 1.98 0 3 0 C5 7.625 5 7.625 5 11 C4.01 11 3.02 11 2 11 C1.34 7.37 0.68 3.74 0 0 Z " fill="#000000" transform="translate(168,218)"/>
<path d="M0 0 C0.99 0 1.98 0 3 0 C2.71758359 1.46015291 2.42373386 2.91809793 2.125 4.375 C1.96257812 5.18710938 1.80015625 5.99921875 1.6328125 6.8359375 C1 9 1 9 -1 11 C-1.66 10.34 -2.32 9.68 -3 9 C-2.01 6.03 -1.02 3.06 0 0 Z " fill="#000000" transform="translate(175,159)"/>
<path d="M0 0 C0.99 0 1.98 0 3 0 C2.29445932 3.66881155 0.72264494 6.70450534 -1 10 C-1.99 9.67 -2.98 9.34 -4 9 C-2.94124926 5.59687262 -1.99097846 2.98646769 0 0 Z " fill="#000000" transform="translate(183,141)"/>
<path d="M0 0 C0.66 0 1.32 0 2 0 C2.67154933 1.28913487 3.33708859 2.58140204 4 3.875 C4.37125 4.59429687 4.7425 5.31359375 5.125 6.0546875 C6 8 6 8 6 10 C4.1875 9.875 4.1875 9.875 2 9 C0.1875 6.125 0.1875 6.125 -1 3 C-0.67 2.01 -0.34 1.02 0 0 Z " fill="#000000" transform="translate(435,122)"/>
<path d="M0 0 C2.33524782 2.25740623 4.18705073 4.2805761 6 7 C6 7.99 6 8.98 6 10 C5.01 10 4.02 10 3 10 C1.35 7.03 -0.3 4.06 -2 1 C-1.34 0.67 -0.68 0.34 0 0 Z " fill="#000000" transform="translate(425,105)"/>
<path d="M0 0 C0.556875 0.268125 1.11375 0.53625 1.6875 0.8125 C-1.12054268 3.77654505 -3.49565774 6.25749019 -7.3125 7.8125 C-7.3125 4.8125 -7.3125 4.8125 -5.0625 2.0625 C-2.3125 -0.1875 -2.3125 -0.1875 0 0 Z " fill="#000000" transform="translate(224.3125,97.1875)"/>
<path d="M0 0 C-2.36944013 2.61885488 -4.83733102 4.41866551 -8 6 C-8.99 5.67 -9.98 5.34 -11 5 C-4.74206349 -1.42261905 -4.74206349 -1.42261905 0 0 Z " fill="#000000" transform="translate(258,75)"/>
<path d="M0 0 C4.43090471 1.20842856 6.98112756 2.51668565 10 6 C7 7 7 7 4.95703125 6.22265625 C4.24933594 5.83980469 3.54164063 5.45695312 2.8125 5.0625 C2.09707031 4.68222656 1.38164062 4.30195312 0.64453125 3.91015625 C0.10183594 3.60980469 -0.44085938 3.30945313 -1 3 C-0.67 2.01 -0.34 1.02 0 0 Z " fill="#000000" transform="translate(379,68)"/>
<path d="M0 0 C0 0.99 0 1.98 0 3 C-1.28913487 3.67154933 -2.58140204 4.33708859 -3.875 5 C-4.59429687 5.37125 -5.31359375 5.7425 -6.0546875 6.125 C-8 7 -8 7 -10 7 C-9.9375 5.1875 -9.9375 5.1875 -9 3 C-3.10714286 0 -3.10714286 0 0 0 Z " fill="#000000" transform="translate(275,65)"/>
<path d="M0 0 C0 0.99 0 1.98 0 3 C-3.63 3.33 -7.26 3.66 -11 4 C-11 3.01 -11 2.02 -11 1 C-7.26513121 0.4254048 -3.78706732 0 0 0 Z " fill="#000000" transform="translate(349,675)"/>
<path d="M0 0 C3.3 0.99 6.6 1.98 10 3 C10 3.99 10 4.98 10 6 C6.28111761 5.49287967 3.26545761 4.88391785 0 3 C0 2.01 0 1.02 0 0 Z " fill="#000000" transform="translate(221,662)"/>
<path d="M0 0 C2.97 1.65 5.94 3.3 9 5 C8.67 5.99 8.34 6.98 8 8 C5.03 6.35 2.06 4.7 -1 3 C-0.67 2.01 -0.34 1.02 0 0 Z " fill="#000000" transform="translate(186,645)"/>
<path d="M0 0 C2.61724095 2.36797991 4.32861729 4.89600354 6 8 C6 8.66 6 9.32 6 10 C4.1875 9.8125 4.1875 9.8125 2 9 C0.1875 6.6875 0.1875 6.6875 -1 4 C-0.6875 1.6875 -0.6875 1.6875 0 0 Z " fill="#000000" transform="translate(143,605)"/>
<path d="M0 0 C0.99 0 1.98 0 3 0 C3.99 3.3 4.98 6.6 6 10 C4.68 9.67 3.36 9.34 2 9 C1.34 6.03 0.68 3.06 0 0 Z " fill="#000000" transform="translate(128,569)"/>
<path d="M0 0 C0.99 0.33 1.98 0.66 3 1 C1.80100302 4.0831351 0.52299523 7.06279492 -1 10 C-1.99 10 -2.98 10 -4 10 C-3.29445932 6.33118845 -1.72264494 3.29549466 0 0 Z " fill="#000000" transform="translate(560,514)"/>
<path d="M0 0 C0.99 0 1.98 0 3 0 C3.14285714 7.42857143 3.14285714 7.42857143 2 11 C1.01 11 0.02 11 -1 11 C-0.67 7.37 -0.34 3.74 0 0 Z " fill="#000000" transform="translate(120,491)"/>
<path d="M0 0 C0.66 0.33 1.32 0.66 2 1 C1.49287967 4.71888239 0.88391785 7.73454239 -1 11 C-1.99 10.67 -2.98 10.34 -4 10 C-3.52449439 8.51965236 -3.04448784 7.04074979 -2.5625 5.5625 C-2.29566406 4.73878906 -2.02882813 3.91507812 -1.75390625 3.06640625 C-1 1 -1 1 0 0 Z " fill="#000000" transform="translate(586,460)"/>
<path d="M0 0 C0.99 0.33 1.98 0.66 3 1 C1.02 3.97 -0.96 6.94 -3 10 C-3.66 9.67 -4.32 9.34 -5 9 C-3.7508258 5.54074837 -2.32472205 2.85306797 0 0 Z " fill="#000000" transform="translate(149,419)"/>
<path d="M0 0 C0 0.99 0 1.98 0 3 C-3.67410785 4.17571451 -7.16929183 4.07366746 -11 4 C-11 3.01 -11 2.02 -11 1 C-3.375 0 -3.375 0 0 0 Z " fill="#000000" transform="translate(322,332)"/>
<path d="M0 0 C0.66 0 1.32 0 2 0 C2 3.63 2 7.26 2 11 C1.01 11 0.02 11 -1 11 C-1.02688151 9.35425434 -1.04634123 7.70838587 -1.0625 6.0625 C-1.07410156 5.14597656 -1.08570313 4.22945312 -1.09765625 3.28515625 C-1 1 -1 1 0 0 Z " fill="#000000" transform="translate(168,198)"/>
<path d="M0 0 C-0.57363911 3.87206399 -2.34105893 6.18465063 -5 9 C-5.99 9 -6.98 9 -8 9 C-6.68994234 5.06982701 -4.75047804 0 0 0 Z " fill="#000000" transform="translate(198,125)"/>
<path d="M0 0 C0.66 0.33 1.32 0.66 2 1 C0.63029745 3.95012857 -0.82609125 6.5652222 -3 9 C-3.99 9 -4.98 9 -6 9 C-5.52797514 4.75177626 -3.03344482 2.80010291 0 0 Z " fill="#000000" transform="translate(209,110)"/>
<path d="M0 0 C0.66 0.33 1.32 0.66 2 1 C0.65117186 5.04648443 -1.34826069 5.95502599 -5 8 C-5.99 7.67 -6.98 7.34 -8 7 C-5.42215154 4.35247996 -3.08351902 2.05567935 0 0 Z " fill="#000000" transform="translate(239,84)"/>
<path d="M0 0 C3.81684226 1.55500981 6.19195732 4.03595495 9 7 C4.28093812 7 2.72962969 5.71245796 -1 3 C-0.67 2.01 -0.34 1.02 0 0 Z " fill="#000000" transform="translate(396,78)"/>
<path d="M0 0 C4.455 0.99 4.455 0.99 9 2 C9 3.32 9 4.64 9 6 C4.05 4.02 4.05 4.02 -1 2 C-0.67 1.34 -0.34 0.68 0 0 Z " fill="#000000" transform="translate(361,61)"/>
<path d="M0 0 C0 0.66 0 1.32 0 2 C-3.82320557 3.42258812 -6.91281305 4.24042276 -11 4 C-10.67 3.01 -10.34 2.02 -10 1 C-3.84210526 -1.28070175 -3.84210526 -1.28070175 0 0 Z " fill="#000000" transform="translate(294,60)"/>
<path d="M0 0 C3.3 0.66 6.6 1.32 10 2 C10 2.99 10 3.98 10 5 C8.54119891 4.85892253 7.08296449 4.71197585 5.625 4.5625 C4.40683594 4.44068359 4.40683594 4.44068359 3.1640625 4.31640625 C1 4 1 4 -1 3 C-0.67 2.01 -0.34 1.02 0 0 Z " fill="#000000" transform="translate(342,56)"/>
<path d="M0 0 C0 0.99 0 1.98 0 3 C-3.63 3.33 -7.26 3.66 -11 4 C-11 3.01 -11 2.02 -11 1 C-7.32589215 -0.17571451 -3.83070817 -0.07366746 0 0 Z " fill="#000000" transform="translate(313,56)"/>
<path d="M0 0 C0 0.99 0 1.98 0 3 C-3.3 3.33 -6.6 3.66 -10 4 C-10 3.01 -10 2.02 -10 1 C-6.59437148 0.22157062 -3.49234244 -0.09978121 0 0 Z " fill="#000000" transform="translate(368,672)"/>
<path d="M0 0 C3.55780196 0.60990891 6.6828589 1.5783681 10 3 C9.67 3.99 9.34 4.98 9 6 C6.03 5.01 3.06 4.02 0 3 C0 2.01 0 1.02 0 0 Z " fill="#000000" transform="translate(203,655)"/>
<path d="M0 0 C0 0.99 0 1.98 0 3 C-1.75 4.38671875 -1.75 4.38671875 -4 5.6875 C-4.7425 6.12449219 -5.485 6.56148437 -6.25 7.01171875 C-6.8275 7.33785156 -7.405 7.66398438 -8 8 C-8 6.68 -8 5.36 -8 4 C-3.88888889 0 -3.88888889 0 0 0 Z " fill="#000000" transform="translate(475,621)"/>
<path d="M0 0 C3.36295835 1.44126786 5.62927102 3.20592655 8 6 C8 6.99 8 7.98 8 9 C3.7257442 7.4169423 1.73468206 4.49431596 -1 1 C-0.67 0.67 -0.34 0.34 0 0 Z " fill="#000000" transform="translate(154,621)"/>
<path d="M0 0 C-0.33645789 3.14027363 -1.05236086 4.05098295 -3.375 6.3125 C-4.674375 7.1478125 -4.674375 7.1478125 -6 8 C-6.99 7.67 -7.98 7.34 -9 7 C-3.65789474 0 -3.65789474 0 0 0 Z " fill="#000000" transform="translate(490,608)"/>
<path d="M0 0 C0.66 0 1.32 0 2 0 C5.07692308 6.4 5.07692308 6.4 4.6875 9.4375 C4.460625 9.953125 4.23375 10.46875 4 11 C2 10 2 10 1.1484375 7.93359375 C0.89320313 7.10988281 0.63796875 6.28617188 0.375 5.4375 C0.11460937 4.61121094 -0.14578125 3.78492188 -0.4140625 2.93359375 C-0.60742188 2.29550781 -0.80078125 1.65742187 -1 1 C-0.67 0.67 -0.34 0.34 0 0 Z " fill="#000000" transform="translate(135,587)"/>
<path d="M0 0 C1.32 0.33 2.64 0.66 4 1 C4.33 3.97 4.66 6.94 5 10 C4.01 10 3.02 10 2 10 C1.34 6.7 0.68 3.4 0 0 Z " fill="#000000" transform="translate(123,550)"/>
<path d="M0 0 C0.66 0.33 1.32 0.66 2 1 C0.7580393 4.43927579 -0.55740284 7.25207819 -3 10 C-3.66 10 -4.32 10 -5 10 C-4.49701212 5.59885603 -2.91227269 3.28804981 0 0 Z " fill="#000000" transform="translate(551,531)"/>
<path d="M0 0 C0.99 0.33 1.98 0.66 3 1 C2.34 3.97 1.68 6.94 1 10 C0.01 10 -0.98 10 -2 10 C-1.85950482 8.52031676 -1.71245174 7.04125484 -1.5625 5.5625 C-1.48128906 4.73878906 -1.40007812 3.91507812 -1.31640625 3.06640625 C-1 1 -1 1 0 0 Z " fill="#000000" transform="translate(124,472)"/>
<path d="M0 0 C0.99 0.33 1.98 0.66 3 1 C1.68 4.3 0.36 7.6 -1 11 C-1.66 10.67 -2.32 10.34 -3 10 C-2.69201674 8.51988629 -2.378482 7.04092675 -2.0625 5.5625 C-1.88847656 4.73878906 -1.71445313 3.91507812 -1.53515625 3.06640625 C-1 1 -1 1 0 0 Z " fill="#000000" transform="translate(130,453)"/>
<path d="M0 0 C-1.3809002 3.33717549 -2.8201238 5.22301036 -6 7 C-8.25 6.6875 -8.25 6.6875 -10 6 C-4.15384615 0 -4.15384615 0 0 0 Z " fill="#000000" transform="translate(194,379)"/>
<path d="M0 0 C1.45880109 0.14107747 2.91703551 0.28802415 4.375 0.4375 C5.59316406 0.55931641 5.59316406 0.55931641 6.8359375 0.68359375 C9 1 9 1 11 2 C10.67 2.99 10.34 3.98 10 5 C8.51793505 4.745504 7.03931385 4.47088238 5.5625 4.1875 C4.73878906 4.03667969 3.91507812 3.88585937 3.06640625 3.73046875 C2.38449219 3.48941406 1.70257813 3.24835938 1 3 C0.67 2.01 0.34 1.02 0 0 Z " fill="#000000" transform="translate(266,308)"/>
<path d="M0 0 C4.455 0.99 4.455 0.99 9 2 C9.33 3.32 9.66 4.64 10 6 C6.7 5.01 3.4 4.02 0 3 C0 2.01 0 1.02 0 0 Z " fill="#000000" transform="translate(247,302)"/>
<path d="M0 0 C0.99 0.33 1.98 0.66 3 1 C2.34 4.3 1.68 7.6 1 11 C0.01 11 -0.98 11 -2 11 C-1.85892253 9.54119891 -1.71197585 8.08296449 -1.5625 6.625 C-1.48128906 5.81289062 -1.40007812 5.00078125 -1.31640625 4.1640625 C-1 2 -1 2 0 0 Z " fill="#000000" transform="translate(170,178)"/>
<path d="M0 0 C3.3 0 6.6 0 10 0 C10 0.99 10 1.98 10 3 C6.7 3 3.4 3 0 3 C0 2.01 0 1.02 0 0 Z " fill="#000000" transform="translate(322,55)"/>
<path d="M0 0 C3.63 0.33 7.26 0.66 11 1 C10.67 1.99 10.34 2.98 10 4 C6.7 3.67 3.4 3.34 0 3 C0 2.01 0 1.02 0 0 Z " fill="#000000" transform="translate(279,676)"/>
<path d="M0 0 C0.99 0 1.98 0 3 0 C3 3.3 3 6.6 3 10 C2.01 10 1.02 10 0 10 C0 6.7 0 3.4 0 0 Z " fill="#000000" transform="translate(119,511)"/>
<path d="M0 0 C-0.47205119 4.24846075 -2.88877522 6.26819288 -6 9 C-6.66 9 -7.32 9 -8 9 C-7.53918323 4.85264908 -4.48412936 0 0 0 Z " fill="#000000" transform="translate(164,404)"/>
<path d="M0 0 C-1 2 -1 2 -3.8125 3.125 C-7 4 -7 4 -11 4 C-10.67 3.01 -10.34 2.02 -10 1 C-6.34742296 -0.62336757 -3.80637601 -1.46399077 0 0 Z " fill="#000000" transform="translate(265,346)"/>
<path d="M0 0 C0.33 0.99 0.66 1.98 1 3 C-3.455 4.485 -3.455 4.485 -8 6 C-8.33 5.01 -8.66 4.02 -9 3 C-6.03 2.01 -3.06 1.02 0 0 Z " fill="#000000" transform="translate(282,339)"/>
<path d="M0 0 C0 0.99 0 1.98 0 3 C-3.3 3.66 -6.6 4.32 -10 5 C-10 4.01 -10 3.02 -10 2 C-8.7090864 1.66376204 -7.41723903 1.33110751 -6.125 1 C-5.40570313 0.814375 -4.68640625 0.62875 -3.9453125 0.4375 C-2 0 -2 0 0 0 Z " fill="#000000" transform="translate(302,335)"/>
<path d="M0 0 C3.36591866 1.44253657 5.51047079 3.33264727 8 6 C7.67 6.99 7.34 7.98 7 9 C5.82460004 8.07347299 4.65989423 7.13336613 3.5 6.1875 C2.52546875 5.40439453 2.52546875 5.40439453 1.53125 4.60546875 C0 3 0 3 0 0 Z " fill="#000000" transform="translate(411,91)"/>
<path d="M0 0 C0 0.99 0 1.98 0 3 C-3.63 3 -7.26 3 -11 3 C-11 2.34 -11 1.68 -11 1 C-7.32589215 -0.17571451 -3.83070817 -0.07366746 0 0 Z " fill="#000000" transform="translate(329,677)"/>
<path d="M0 0 C1.48206495 0.254496 2.96068615 0.52911762 4.4375 0.8125 C5.67306641 1.03873047 5.67306641 1.03873047 6.93359375 1.26953125 C7.95646484 1.63111328 7.95646484 1.63111328 9 2 C9.33 2.99 9.66 3.98 10 5 C2.25 4.125 2.25 4.125 0 3 C0 2.01 0 1.02 0 0 Z " fill="#000000" transform="translate(240,668)"/>
<path d="M0 0 C3.3 0 6.6 0 10 0 C10 0.66 10 1.32 10 2 C6.78548731 3.60725635 3.56387464 3.05748185 0 3 C0 2.01 0 1.02 0 0 Z " fill="#000000" transform="translate(331,331)"/>
<path d="M0 0 C3.3 0 6.6 0 10 0 C10 0.99 10 1.98 10 3 C3.375 3.125 3.375 3.125 0 2 C0 1.34 0 0.68 0 0 Z " fill="#000000" transform="translate(299,678)"/>
<path d="M0 0 C0.99 0.33 1.98 0.66 3 1 C2.34 2.65 1.68 4.3 1 6 C0.01 5.67 -0.98 5.34 -2 5 C-1.34 3.35 -0.68 1.7 0 0 Z " fill="#000000" transform="translate(591,446)"/>
<path d="M0 0 C0.99 0 1.98 0 3 0 C3.33 1.98 3.66 3.96 4 6 C3.01 6 2.02 6 1 6 C0.67 4.02 0.34 2.04 0 0 Z " fill="#000000" transform="translate(442,140)"/>
<path d="M0 0 C1.65 0 3.3 0 5 0 C5.33 0.99 5.66 1.98 6 3 C4.02 3 2.04 3 0 3 C0 2.01 0 1.02 0 0 Z " fill="#000000" transform="translate(389,333)"/>
<path d="M0 0 C0.99 0.33 1.98 0.66 3 1 C2.67 1.99 2.34 2.98 2 4 C1.01 3.01 0.02 2.02 -1 1 C-0.67 0.67 -0.34 0.34 0 0 Z " fill="#000000" transform="translate(10,483)"/>
<path d="M0 0 C0.99 0.33 1.98 0.66 3 1 C2.67 1.99 2.34 2.98 2 4 C1.01 3.01 0.02 2.02 -1 1 C-0.67 0.67 -0.34 0.34 0 0 Z " fill="#000000" transform="translate(71,203)"/>
</svg>
