<?xml version="1.0" standalone="no"?>
<!DOCTYPE svg PUBLIC "-//W3C//DTD SVG 20010904//EN"
 "http://www.w3.org/TR/2001/REC-SVG-20010904/DTD/svg10.dtd">
<svg version="1.0" xmlns="http://www.w3.org/2000/svg"
 width="648.000000pt" height="724.000000pt" viewBox="0 0 648.000000 724.000000"
 preserveAspectRatio="xMidYMid meet">

<g transform="translate(0.000000,724.000000) scale(0.100000,-0.100000)"
fill="#000000" stroke="none">
<path d="M4967 7229 c-130 -19 -303 -89 -479 -192 -106 -62 -133 -91 -300
-317 -490 -665 -1082 -1718 -1519 -2702 -85 -192 -69 -193 -149 7 -290 725
-536 1587 -649 2275 -33 201 -71 517 -71 591 l0 46 -68 31 c-86 39 -202 77
-305 99 -113 24 -328 24 -416 -1 -203 -56 -354 -199 -425 -401 -67 -193 -76
-360 -32 -630 190 -1177 597 -2308 1137 -3158 38 -59 69 -110 69 -113 0 -12
-213 -321 -323 -467 -301 -401 -613 -738 -889 -961 -143 -116 -363 -246 -470
-278 -33 -10 -37 -15 -53 -72 -23 -81 -23 -222 0 -304 24 -83 83 -174 140
-215 149 -105 355 -112 637 -21 92 30 119 44 200 106 528 403 1088 1060 1419
1666 l67 123 108 -173 c344 -551 543 -783 827 -961 181 -114 341 -161 604
-179 202 -13 413 -1 587 32 342 66 614 228 874 520 89 100 312 391 312 407 0
5 24 56 54 114 137 262 258 638 381 1189 64 284 64 273 3 395 -94 186 -229
305 -348 305 -56 0 -134 -36 -177 -81 -29 -30 -35 -48 -58 -169 -91 -473 -259
-954 -441 -1267 -214 -367 -484 -602 -739 -643 -319 -52 -694 206 -1069 734
-141 198 -297 459 -416 695 -46 93 -51 107 -40 130 41 91 464 783 718 1176
723 1118 1300 1824 1665 2037 45 26 45 27 52 94 10 89 0 236 -20 301 -52 171
-206 261 -398 232z m190 -64 c62 -26 102 -64 132 -123 36 -72 51 -142 51 -240
0 -121 -7 -147 -44 -164 -54 -26 -187 -131 -289 -227 -476 -453 -1270 -1575
-2016 -2848 l-113 -193 71 -141 c287 -568 625 -1022 934 -1255 381 -288 717
-266 1065 70 334 323 598 902 748 1645 35 177 44 195 116 232 102 52 221 -7
324 -163 26 -38 60 -101 76 -138 l28 -69 -35 -163 c-168 -783 -337 -1239 -575
-1554 -396 -523 -716 -714 -1266 -754 -171 -13 -442 -1 -559 24 -235 50 -420
159 -636 375 -151 152 -260 291 -414 533 -57 90 -140 220 -185 290 -45 71 -85
128 -88 128 -4 0 -36 -56 -71 -125 -307 -596 -903 -1306 -1439 -1713 -129 -99
-322 -157 -517 -156 -185 1 -281 53 -350 187 -37 73 -40 85 -43 179 -3 56 1
124 7 152 11 51 12 51 74 75 359 136 853 596 1343 1251 118 157 334 471 334
484 0 3 -32 55 -71 116 -559 878 -986 2071 -1154 3229 -25 170 -26 193 -16
287 26 233 97 397 218 504 95 84 255 139 408 140 129 0 331 -43 470 -101 l70
-29 18 -177 c71 -722 310 -1673 641 -2550 68 -180 171 -431 181 -441 2 -2 13
-1 25 3 14 4 19 12 15 24 -9 29 293 685 502 1091 367 712 752 1353 1083 1805
187 255 204 273 326 342 124 70 249 126 344 153 83 24 226 26 277 5z"/>
<path d="M4762 6858 c-14 -14 -16 -28 -2 -28 5 0 14 9 20 20 12 22 1 27 -18 8z"/>
<path d="M4667 6715 c-28 -41 -33 -55 -19 -55 11 0 54 70 49 83 -2 6 -15 -7
-30 -28z"/>
<path d="M4557 6545 c-28 -41 -33 -55 -19 -55 11 0 54 70 49 83 -2 6 -15 -7
-30 -28z"/>
<path d="M1026 6498 c8 -28 12 -33 20 -25 9 8 -6 47 -17 47 -6 0 -7 -10 -3
-22z"/>
<path d="M4447 6373 c-29 -46 -32 -53 -18 -53 14 0 53 68 49 82 -3 7 -17 -6
-31 -29z"/>
<path d="M1060 6378 c0 -19 34 -97 40 -93 11 7 -14 88 -28 93 -7 2 -12 2 -12
0z"/>
<path d="M4336 6198 c-25 -41 -27 -56 -8 -44 18 11 51 75 42 81 -5 3 -20 -14
-34 -37z"/>
<path d="M1124 6165 c3 -13 11 -37 18 -52 16 -40 23 -4 8 42 -13 40 -36 49
-26 10z"/>
<path d="M4229 6029 c-24 -39 -26 -50 -11 -48 12 3 53 77 44 83 -4 2 -19 -13
-33 -35z"/>
<path d="M1180 5994 c0 -25 26 -84 36 -84 10 0 9 10 -3 45 -8 25 -19 45 -24
45 -5 0 -9 -3 -9 -6z"/>
<path d="M4120 5855 c-12 -19 -20 -41 -18 -47 4 -11 58 62 58 77 0 16 -21 0
-40 -30z"/>
<path d="M1247 5813 c-9 -14 16 -86 32 -91 10 -3 11 2 6 19 -17 55 -32 83 -38
72z"/>
<path d="M4013 5680 c-25 -42 -27 -50 -15 -50 9 0 52 66 52 80 0 21 -16 9 -37
-30z"/>
<path d="M1305 5609 c16 -51 33 -81 39 -71 8 14 -18 85 -33 90 -10 3 -11 -2
-6 -19z"/>
<path d="M3918 5528 c-28 -43 -39 -68 -30 -68 9 0 62 73 62 85 0 13 -19 3 -32
-17z"/>
<path d="M1370 5431 c0 -18 31 -81 40 -81 5 0 2 20 -7 45 -13 39 -33 61 -33
36z"/>
<path d="M3802 5341 c-24 -42 -26 -51 -14 -51 8 0 52 71 52 84 0 18 -19 1 -38
-33z"/>
<path d="M1440 5246 c0 -21 30 -89 37 -82 8 8 -18 96 -28 96 -5 0 -9 -6 -9
-14z"/>
<path d="M3708 5187 c-28 -42 -39 -67 -30 -67 14 0 63 78 53 84 -5 3 -15 -4
-23 -17z"/>
<path d="M1519 5025 c15 -42 31 -59 31 -33 0 24 -25 78 -36 78 -8 0 -7 -13 5
-45z"/>
<path d="M3587 4993 c-22 -38 -23 -43 -9 -43 12 0 55 80 43 80 -7 0 -22 -17
-34 -37z"/>
<path d="M1580 4880 c0 -21 33 -90 40 -85 10 6 -20 95 -32 95 -4 0 -8 -4 -8
-10z"/>
<path d="M3482 4821 c-24 -42 -26 -51 -14 -51 7 0 52 73 52 84 0 18 -19 1 -38
-33z"/>
<path d="M1657 4703 c-4 -7 2 -32 14 -55 28 -54 37 -34 12 24 -12 26 -22 38
-26 31z"/>
<path d="M3377 4653 c-22 -38 -23 -43 -9 -43 12 0 55 80 43 80 -7 0 -22 -17
-34 -37z"/>
<path d="M1730 4510 c0 -16 33 -80 42 -80 11 0 10 4 -8 50 -15 37 -34 54 -34
30z"/>
<path d="M3273 4485 c-24 -36 -29 -55 -15 -55 7 0 52 73 52 84 0 16 -17 2 -37
-29z"/>
<path d="M3167 4313 c-29 -46 -32 -53 -18 -53 14 0 53 68 49 82 -3 7 -17 -6
-31 -29z"/>
<path d="M1822 4295 c18 -38 38 -58 38 -40 0 20 -35 85 -46 85 -10 0 -9 -11 8
-45z"/>
<path d="M3057 4137 c-26 -43 -28 -58 -5 -39 22 18 49 70 39 76 -5 3 -20 -13
-34 -37z"/>
<path d="M1890 4150 c0 -16 33 -80 42 -80 12 0 10 16 -9 55 -16 33 -33 46 -33
25z"/>
<path d="M2947 3960 c-15 -21 -23 -41 -18 -44 7 -5 61 65 61 79 0 16 -21 0
-43 -35z"/>
<path d="M1976 3981 c-9 -14 32 -93 44 -86 6 4 1 24 -11 48 -26 51 -26 51 -33
38z"/>
<path d="M2843 3795 c-25 -38 -27 -45 -14 -45 9 0 51 61 51 74 0 16 -17 3 -37
-29z"/>
<path d="M2060 3800 c0 -16 33 -80 42 -80 12 0 10 16 -9 55 -16 33 -33 46 -33
25z"/>
<path d="M2733 3621 c-22 -38 -20 -66 2 -33 42 62 47 72 34 72 -8 0 -24 -18
-36 -39z"/>
<path d="M2160 3591 c20 -40 40 -61 40 -42 0 22 -34 81 -47 81 -10 0 -8 -10 7
-39z"/>
<path d="M5975 3539 c-6 -19 0 -38 9 -28 10 12 16 49 7 49 -5 0 -13 -9 -16
-21z"/>
<path d="M2626 3453 c-14 -20 -23 -40 -19 -46 6 -11 13 -4 42 46 29 48 10 49
-23 0z"/>
<path d="M2240 3449 c0 -19 41 -80 50 -74 5 3 -1 23 -13 45 -22 39 -37 51 -37
29z"/>
<path d="M5932 3390 c-5 -14 -13 -40 -17 -57 -10 -50 10 -40 25 11 14 50 8 86
-8 46z"/>
<path d="M2523 3293 c-9 -16 -21 -33 -25 -40 -5 -6 -5 -14 0 -17 8 -5 62 64
62 79 0 15 -22 2 -37 -22z"/>
<path d="M2337 3284 c-7 -7 34 -84 46 -84 12 0 8 17 -14 54 -23 39 -23 39 -32
30z"/>
<path d="M5876 3188 c-3 -7 -9 -28 -15 -47 -6 -19 -9 -36 -7 -39 9 -9 24 9 29
35 3 16 9 36 12 46 4 10 3 17 -4 17 -7 0 -13 -6 -15 -12z"/>
<path d="M2406 3113 c-27 -43 -23 -69 5 -32 18 24 18 24 33 4 9 -11 18 -28 21
-37 7 -19 25 -25 25 -8 0 6 -11 27 -23 48 -13 20 -22 43 -20 50 10 27 -18 10
-41 -25z"/>
<path d="M5817 2993 c-12 -20 -24 -83 -17 -88 6 -4 40 74 40 92 0 6 -19 3 -23
-4z"/>
<path d="M2296 2943 c-14 -20 -23 -40 -19 -46 6 -11 13 -4 42 46 29 48 10 49
-23 0z"/>
<path d="M2540 2940 c0 -21 41 -81 51 -74 10 6 -17 58 -38 76 -9 7 -13 7 -13
-2z"/>
<path d="M2188 2777 c-27 -42 -29 -59 -6 -39 21 17 49 70 40 76 -4 2 -20 -14
-34 -37z"/>
<path d="M5740 2765 c-14 -50 -7 -74 10 -31 18 47 22 76 12 76 -5 0 -15 -20
-22 -45z"/>
<path d="M2646 2782 c-7 -11 41 -82 56 -82 9 0 0 18 -37 73 -7 10 -15 14 -19
9z"/>
<path d="M2076 2613 c-27 -40 -32 -53 -17 -53 14 0 62 78 51 85 -5 3 -20 -11
-34 -32z"/>
<path d="M2767 2589 c21 -35 41 -54 49 -46 8 7 -45 77 -58 77 -5 0 -1 -14 9
-31z"/>
<path d="M5666 2577 c-18 -49 -19 -57 -7 -57 7 0 41 75 41 93 0 22 -20 1 -34
-36z"/>
<path d="M1962 2444 c-32 -50 -22 -67 11 -19 15 22 27 43 27 47 0 18 -16 6
-38 -28z"/>
<path d="M2870 2452 c0 -13 58 -77 64 -71 7 6 -44 79 -56 79 -4 0 -8 -4 -8 -8z"/>
<path d="M5582 2385 c-17 -35 -19 -45 -8 -45 8 0 19 12 24 28 5 15 13 35 17
45 15 37 -12 14 -33 -28z"/>
<path d="M1845 2274 c-26 -34 -28 -57 -3 -36 20 16 50 72 40 72 -5 0 -22 -16
-37 -36z"/>
<path d="M2996 2301 c-8 -12 49 -79 58 -70 4 3 -7 23 -23 43 -16 20 -32 32
-35 27z"/>
<path d="M5495 2213 c-11 -21 -21 -41 -23 -45 -2 -5 1 -8 7 -8 9 0 51 69 51
85 0 17 -19 0 -35 -32z"/>
<path d="M3117 2153 c-7 -11 60 -80 69 -71 3 4 -10 23 -29 44 -18 20 -37 33
-40 27z"/>
<path d="M1728 2110 c-15 -22 -23 -42 -18 -45 8 -5 60 61 60 77 0 18 -17 5
-42 -32z"/>
<path d="M5391 2034 c-31 -51 -20 -66 12 -19 28 42 33 55 18 55 -5 0 -19 -16
-30 -36z"/>
<path d="M3250 2002 c0 -14 66 -73 73 -65 4 4 -7 22 -25 40 -31 32 -48 41 -48
25z"/>
<path d="M1606 1940 c-16 -25 -21 -40 -14 -40 11 0 58 61 58 75 0 16 -21 0
-44 -35z"/>
<path d="M5275 1864 c-15 -19 -24 -38 -20 -42 6 -7 64 56 65 71 0 17 -20 5
-45 -29z"/>
<path d="M3390 1863 c0 -14 54 -63 69 -63 10 0 3 12 -19 35 -32 33 -50 43 -50
28z"/>
<path d="M1487 1780 c-15 -21 -23 -41 -18 -44 8 -5 61 62 61 77 0 17 -17 4
-43 -33z"/>
<path d="M3536 1732 c-6 -9 57 -62 75 -62 8 0 8 4 -1 15 -22 26 -68 56 -74 47z"/>
<path d="M5142 1707 c-18 -18 -29 -36 -25 -40 7 -8 73 51 73 65 0 16 -17 7
-48 -25z"/>
<path d="M1367 1624 c-16 -19 -26 -38 -22 -42 7 -7 65 56 65 70 0 17 -16 7
-43 -28z"/>
<path d="M3690 1611 c0 -15 69 -65 78 -57 6 7 -24 36 -60 57 -12 6 -18 6 -18
0z"/>
<path d="M5003 1571 c-47 -40 -41 -59 7 -21 37 29 51 51 33 50 -5 -1 -23 -13
-40 -29z"/>
<path d="M1237 1463 c-28 -38 -29 -56 -2 -33 9 7 25 26 36 42 31 43 0 35 -34
-9z"/>
<path d="M3850 1493 c1 -11 68 -53 83 -53 16 1 -54 60 -70 60 -7 0 -13 -3 -13
-7z"/>
<path d="M4833 1448 c-31 -18 -43 -38 -25 -38 9 0 82 49 82 55 0 10 -26 2 -57
-17z"/>
<path d="M4020 1385 c0 -11 82 -45 92 -39 8 5 -3 14 -28 25 -39 18 -64 23 -64
14z"/>
<path d="M4653 1362 c-46 -17 -59 -38 -18 -28 46 12 75 25 75 36 0 12 -4 12
-57 -8z"/>
<path d="M1123 1327 c-41 -47 -47 -57 -32 -56 18 1 72 66 61 73 -5 3 -18 -5
-29 -17z"/>
<path d="M4210 1320 c0 -5 11 -12 25 -15 14 -3 36 -7 50 -10 14 -3 25 -1 25 5
0 5 -11 12 -25 15 -14 3 -36 7 -50 10 -14 3 -25 1 -25 -5z"/>
<path d="M4438 1313 c-31 -5 -38 -23 -9 -23 34 0 81 12 81 21 0 9 -22 10 -72
2z"/>
<path d="M976 1161 c-21 -21 -33 -41 -28 -45 10 -6 72 57 72 74 0 15 -3 13
-44 -29z"/>
<path d="M830 1015 c-19 -19 -30 -35 -25 -35 13 0 75 50 75 61 0 17 -16 9 -50
-26z"/>
<path d="M691 899 c-13 -11 -31 -24 -40 -29 -9 -5 -13 -12 -9 -16 10 -9 89 46
82 57 -7 11 -5 12 -33 -12z"/>
<path d="M515 788 c-47 -24 -50 -26 -43 -33 9 -9 88 28 88 42 0 16 3 17 -45
-9z"/>
<path d="M320 740 c0 -5 11 -10 25 -10 14 0 25 5 25 10 0 6 -11 10 -25 10 -14
0 -25 -4 -25 -10z"/>
<path d="M5313 6233 c-1008 -1155 -1764 -2245 -1947 -2805 l-33 -99 -17 25
c-9 14 -21 26 -26 26 -11 0 7 -40 33 -75 14 -19 15 -19 56 8 22 15 41 32 41
38 0 7 -11 4 -26 -6 -14 -9 -28 -14 -30 -12 -8 8 24 108 66 213 183 449 688
1202 1373 2049 177 218 468 563 584 691 40 45 73 84 73 88 0 21 -33 -10 -147
-141z"/>
<path d="M210 6346 c0 -17 70 -369 105 -531 275 -1261 684 -2358 1071 -2872
30 -40 54 -74 54 -77 0 -3 -16 -2 -35 1 -44 7 -47 -12 -4 -21 55 -11 79 -7 79
12 0 9 3 34 6 55 9 48 -11 50 -21 1 l-6 -36 -58 78 c-312 430 -612 1143 -870
2070 -94 337 -209 825 -260 1104 -37 197 -42 220 -52 220 -5 0 -9 -2 -9 -4z"/>
<path d="M4779 5499 l-24 -20 23 6 c21 6 22 4 22 -54 0 -34 4 -61 10 -61 12 0
13 137 1 144 -5 3 -20 -3 -32 -15z"/>
<path d="M4900 5499 c-24 -20 -24 -20 -2 -14 21 6 22 4 22 -54 0 -34 4 -61 10
-61 12 0 14 136 2 144 -4 2 -19 -4 -32 -15z"/>
<path d="M4850 5380 c0 -5 5 -10 10 -10 6 0 10 5 10 10 0 6 -4 10 -10 10 -5 0
-10 -4 -10 -10z"/>
<path d="M258 5089 c-10 -5 -18 -18 -18 -27 1 -16 1 -16 11 1 5 9 19 17 30 17
36 0 32 -28 -11 -80 l-42 -50 52 0 c31 0 49 4 45 10 -3 6 -17 10 -31 10 l-25
0 25 33 c28 37 33 66 14 85 -14 14 -27 15 -50 1z"/>
<path d="M409 5079 l-24 -20 23 6 c21 6 22 4 22 -54 0 -34 4 -61 10 -61 12 0
13 137 1 144 -5 3 -20 -3 -32 -15z"/>
<path d="M360 4960 c0 -5 5 -10 10 -10 6 0 10 5 10 10 0 6 -4 10 -10 10 -5 0
-10 -4 -10 -10z"/>
<path d="M6377 3155 c-20 -14 -37 -31 -37 -37 0 -6 11 -3 26 7 14 9 28 14 31
11 3 -3 -13 -81 -36 -173 -199 -801 -476 -1370 -841 -1733 -438 -436 -993
-554 -1630 -348 -436 141 -858 402 -1287 797 -73 67 -133 116 -133 109 0 -17
230 -229 361 -334 456 -366 932 -597 1375 -670 146 -24 394 -24 523 0 775 143
1320 854 1645 2149 52 206 53 208 70 183 28 -44 39 -29 12 16 -14 24 -29 44
-33 45 -5 2 -25 -8 -46 -22z"/>
<path d="M2144 1543 c-338 -392 -891 -959 -1127 -1158 -183 -155 -334 -258
-431 -295 l-29 -11 17 25 c25 39 18 54 -10 21 -47 -57 -48 -60 -3 -95 22 -18
43 -29 47 -25 4 4 -6 17 -23 30 l-29 24 28 10 c15 6 31 11 35 11 15 0 148 85
236 150 292 217 812 734 1295 1288 69 79 127 148 128 153 12 31 -29 -8 -134
-128z"/>
<path d="M1869 1019 l-24 -20 23 6 c21 6 22 4 22 -54 0 -34 4 -61 10 -61 12 0
13 137 1 144 -5 3 -20 -3 -32 -15z"/>
<path d="M2018 1029 c-10 -5 -18 -17 -18 -26 0 -15 2 -15 13 1 14 19 48 19 54
0 2 -6 -15 -34 -37 -63 l-40 -51 50 0 c32 0 49 4 45 10 -3 6 -17 10 -31 10
l-25 0 25 33 c28 37 33 66 14 85 -14 14 -27 15 -50 1z"/>
<path d="M3418 909 c-10 -5 -18 -18 -18 -27 1 -16 1 -16 11 1 5 9 19 17 30 17
36 0 32 -28 -11 -80 l-42 -50 52 0 c31 0 49 4 45 10 -3 6 -17 10 -31 10 l-25
0 25 33 c28 37 33 66 14 85 -14 14 -27 15 -50 1z"/>
<path d="M3585 900 c-10 -11 -13 -20 -7 -20 6 0 14 5 17 10 3 6 15 10 26 10
31 0 23 -42 -16 -80 -19 -19 -35 -38 -35 -42 0 -4 20 -8 45 -8 25 0 45 5 45
10 0 6 -14 10 -31 10 l-31 0 31 35 c36 41 40 70 12 85 -27 14 -35 13 -56 -10z"/>
<path d="M1940 900 c0 -5 5 -10 10 -10 6 0 10 5 10 10 0 6 -4 10 -10 10 -5 0
-10 -4 -10 -10z"/>
<path d="M3520 780 c0 -5 5 -10 10 -10 6 0 10 5 10 10 0 6 -4 10 -10 10 -5 0
-10 -4 -10 -10z"/>
</g>
</svg>
