<?xml version="1.0" encoding="UTF-8"?>
<svg version="1.1" xmlns="http://www.w3.org/2000/svg" width="580" height="759">
<path d="M0 0 C0.73444336 -0.01409912 1.46888672 -0.02819824 2.22558594 -0.04272461 C17.96518359 0.09190382 32.43691885 4.95977948 47.0625 10.25 C73.38463859 19.98133592 73.38463859 19.98133592 101.0625 22.9375 C102.56079346 22.91151733 102.56079346 22.91151733 104.08935547 22.88500977 C118.12519275 22.44251947 129.64192659 19.14535684 141.96777344 12.37207031 C145.43569623 10.49766631 148.97247888 8.75878662 152.5 7 C153.18392822 6.65420898 153.86785645 6.30841797 154.57250977 5.95214844 C163.13918763 1.64238579 170.53519509 1.07793686 179.75 4 C194.37351987 9.3695737 203.57123142 15.42885311 210.8125 29.375 C212.46828288 33.75099761 212.0744293 37.35040228 210.4375 41.6875 C205.71260185 51.07322989 197.73852362 58.5953931 190.61157227 66.18676758 C186.61704354 70.45742385 182.83218288 74.8420158 179.1875 79.41796875 C177.38479946 81.66244952 175.55572105 83.86202107 173.6875 86.05078125 C166.13765133 94.96932238 160.06964974 103.94874446 154.8125 114.375 C154.21574463 115.53612305 154.21574463 115.53612305 153.60693359 116.72070312 C144.34836434 134.85492773 137.26977896 153.65246982 132.41015625 173.4296875 C132.1108017 174.64091782 131.81144714 175.85214813 131.50302124 177.1000824 C128.32004743 190.14709066 125.55955306 203.26773561 122.9375 216.4375 C122.66929322 217.77603192 122.40103238 219.11455302 122.13272095 220.45306396 C114.9658979 256.30440122 108.95355249 292.3690079 102.85546875 328.4140625 C102.60514106 329.89320885 102.60514106 329.89320885 102.34975624 331.40223694 C100.630448 341.56515351 98.91803266 351.72914003 97.22700977 361.89680481 C96.52645835 366.10291167 95.82102125 370.30819167 95.1148777 374.51336288 C94.78593834 376.47969614 94.45919094 378.44639776 94.13498497 380.413517 C90.87867141 400.16551758 86.39076855 419.55867963 81.43286133 438.94677734 C80.81915344 441.34895705 80.2107676 443.75243108 79.60351562 446.15625 C72.99056009 472.26425079 65.0847544 496.8632012 53.8125 521.375 C53.3906543 522.30376953 52.96880859 523.23253906 52.53417969 524.18945312 C43.90658605 543.14411873 33.91346312 561.40017459 21.8125 578.375 C21.42416992 578.92027344 21.03583984 579.46554687 20.63574219 580.02734375 C10.49475336 594.08816616 -1.89784883 606.17308662 -14.07937622 618.44110107 C-15.26004592 619.63049953 -16.43934763 620.82125777 -17.61715698 622.01348877 C-24.8092903 629.28315529 -32.08889758 636.10697706 -40.1875 642.375 C-40.81793213 642.86468262 -41.44836426 643.35436523 -42.09790039 643.85888672 C-70.99372169 665.84769512 -105.09172935 674.62535785 -140 682.375 C-140.81960205 682.55828857 -141.6392041 682.74157715 -142.48364258 682.93041992 C-156.82356679 685.94652347 -170.96027468 686.75107958 -185.5625 686.6875 C-186.87077255 686.68476578 -186.87077255 686.68476578 -188.20547485 686.68197632 C-228.68300761 686.54018972 -271.65445687 678.60766137 -305.1875 654.375 C-306.24066406 653.61574219 -307.29382813 652.85648438 -308.37890625 652.07421875 C-319.60534693 643.75450897 -328.66271876 634.51475252 -336.30273438 622.79907227 C-337.43637494 621.06422173 -338.59154774 619.34530767 -339.75 617.62695312 C-348.88030997 603.91173562 -356.91092504 589.33940759 -353.60546875 572.390625 C-349.51829689 558.28148378 -339.20098583 547.63264874 -329.1875 537.375 C-328.55328125 536.72031738 -327.9190625 536.06563477 -327.265625 535.39111328 C-319.29225182 527.18402446 -311.2965282 519.32485115 -302.1875 512.375 C-301.22457031 511.61832031 -300.26164062 510.86164063 -299.26953125 510.08203125 C-284.23999242 498.47448315 -273.10048681 493.18439918 -254.1875 494.375 C-248.21048962 495.29384026 -244.63750096 498.45267113 -240.73046875 502.8515625 C-236.80873378 509.26533666 -235.72767922 516.17057844 -235.37890625 523.5625 C-235.27323343 525.31902263 -235.16734989 527.07553259 -235.0612793 528.83203125 C-235.01095551 529.73775879 -234.96063171 530.64348633 -234.90878296 531.57666016 C-233.44485168 575.81784692 -233.44485168 575.81784692 -212.5625 613.0625 C-200.200829 623.75721839 -187.87081368 625.49837461 -172.1875 624.375 C-160.44005562 622.78277535 -142.3159773 617.20583211 -134.7109375 607.48828125 C-134.33195313 606.89402344 -133.95296875 606.29976562 -133.5625 605.6875 C-131.78278051 602.8984765 -131.50224512 602.47991504 -128.1875 601.375 C-126.50375962 599.21873568 -124.98960135 597.09754448 -123.5 594.8125 C-123.05938232 594.14210693 -122.61876465 593.47171387 -122.16479492 592.78100586 C-117.54704836 585.60553291 -113.77115137 578.10774028 -110.1875 570.375 C-109.89810547 569.76140625 -109.60871094 569.1478125 -109.31054688 568.515625 C-91.84421018 531.27532625 -83.2644263 491.13929267 -75.93369675 450.925354 C-74.97979104 445.7172512 -74.00484285 440.51309143 -73.03149414 435.30859375 C-70.56240315 422.08864197 -68.12119212 408.86359869 -65.68289185 395.63793945 C-63.90751838 386.00953092 -62.12728132 376.38214763 -60.31887531 366.75988007 C-59.66757126 363.29086825 -59.02203784 359.82105343 -58.39315796 356.34790039 C-54.86309989 336.90766351 -50.03415837 318.2233628 -44.1875 299.375 C-43.90008942 298.44200073 -43.61267883 297.50900146 -43.31655884 296.54772949 C-41.7320311 291.42691269 -40.08319487 286.33082531 -38.375 281.25 C-38.1287085 280.5141568 -37.88241699 279.7783136 -37.62866211 279.02017212 C-26.33895345 245.43471839 -13.09481424 213.89914097 11.42578125 187.85888672 C12.80921948 186.37851039 14.17303558 184.88243396 15.53125 183.37890625 C23.84411341 174.18156852 32.3672855 165.18939408 41.8203125 157.1484375 C44.25187981 154.98386582 46.52461081 152.69070547 48.8125 150.375 C52.25686943 146.89409938 55.76574895 143.59996381 59.484375 140.41796875 C62.65516311 137.63554898 65.72970988 134.7542173 68.8125 131.875 C73.19651278 127.78232617 77.59996628 123.73274935 82.1640625 119.83984375 C84.12796337 118.09467117 85.9692787 116.2463928 87.8125 114.375 C87.18384033 114.54628418 86.55518066 114.71756836 85.9074707 114.89404297 C42.75239643 126.58574058 5.44755356 120.16214444 -36.1875 105.375 C-53.93723152 99.55690619 -70.11724534 100.42995555 -87.1875 108.375 C-105.62001507 118.28309456 -119.45752904 134.79901257 -126.28125 154.5390625 C-130.3638271 169.16829711 -127.96559608 184.94725166 -120.65625 198.2734375 C-118.05084723 202.00138083 -114.78944713 204.64605622 -111.1875 207.375 C-110.43855469 207.96023437 -109.68960938 208.54546875 -108.91796875 209.1484375 C-107.3984181 210.33404942 -105.87630641 211.5163868 -104.3515625 212.6953125 C-95.68630217 219.42105608 -88.55417948 226.62825476 -85.1875 237.375 C-83.4650701 252.38474626 -91.38215728 267.80185412 -100.1875 279.375 C-110.94774749 292.42685229 -123.86547129 303.93432376 -140.1875 309.375 C-153.42351721 310.48332994 -167.54630059 308.04627081 -178.2265625 299.80078125 C-197.52796318 282.07578979 -207.89494257 252.97257742 -209.09667969 227.51708984 C-211.39544381 173.29838974 -190.31040532 124.99620826 -154.3125 84.8125 C-132.08461463 60.82533622 -132.08461463 60.82533622 -119.76953125 51.421875 C-117.42052855 49.55973065 -115.21610507 47.61747959 -112.9921875 45.609375 C-81.98469366 17.88653265 -41.93221398 0.55045205 0 0 Z M-90.1875 35.375 C-90.76999512 35.81457031 -91.35249023 36.25414063 -91.95263672 36.70703125 C-104.20816146 45.96957867 -115.85175663 56.01587452 -127.1875 66.375 C-128.20039099 67.2944139 -129.21341816 68.21367779 -130.2265625 69.1328125 C-158.63145159 94.95904546 -179.85535278 125.74821359 -194.1875 161.375 C-194.64125 162.49261719 -195.095 163.61023438 -195.5625 164.76171875 C-203.39041269 185.19350276 -203.54929588 206.76514497 -203.1875 228.375 C-203.17074219 229.60863281 -203.15398437 230.84226562 -203.13671875 232.11328125 C-202.25659887 252.30574595 -191.86154273 273.95828287 -179.1875 289.375 C-178.79691406 289.96023438 -178.40632812 290.54546875 -178.00390625 291.1484375 C-173.46528058 297.69868847 -164.65073443 301.04288452 -157.125 302.75 C-155.48296769 302.98643187 -153.83666695 303.19494855 -152.1875 303.375 C-151.3728125 303.51550781 -150.558125 303.65601563 -149.71875 303.80078125 C-139.63769524 304.81799611 -130.21266528 298.90250482 -122.39794922 293.03027344 C-118.74509119 290.04363279 -115.45831418 286.77161473 -112.1875 283.375 C-111.37796875 282.57320313 -110.5684375 281.77140625 -109.734375 280.9453125 C-101.55462684 272.45951934 -95.06281981 261.87627924 -92.1875 250.375 C-91.8471875 249.1065625 -91.8471875 249.1065625 -91.5 247.8125 C-90.37065417 239.00360255 -91.79632327 234.50176682 -97.1875 227.375 C-102.42749027 221.19825169 -108.33900445 216.47539366 -114.9375 211.875 C-121.12223985 207.51437663 -125.18843547 203.48267307 -128.1875 196.375 C-128.57035156 195.48941406 -128.95320312 194.60382813 -129.34765625 193.69140625 C-135.15737078 179.01094479 -136.3811525 163.28456571 -130.40527344 148.43066406 C-120.53812079 125.86624523 -104.16352961 108.55982836 -81.1875 99.375 C-63.47765156 92.90070263 -45.90434828 95.27431976 -28.5625 101.5625 C17.07986451 117.38877596 57.02857883 121.67634345 102.07421875 102.4765625 C104.8125 101.375 104.8125 101.375 106.8125 101.375 C107.4725 103.025 108.1325 104.675 108.8125 106.375 C108.25691406 106.61089844 107.70132812 106.84679687 107.12890625 107.08984375 C104.24874409 108.6877752 102.14880924 110.680005 99.75 112.9375 C95.94921786 116.45918599 92.10589981 119.81662594 88.0625 123.0625 C84.29659071 126.10193601 80.82795839 129.24094416 77.46484375 132.71484375 C75.76886406 134.41884226 74.00760304 135.99214083 72.1875 137.5625 C66.85772264 142.16595453 61.71337897 146.96743845 56.55566406 151.76123047 C54.895721 153.29795647 53.2266295 154.82400736 51.5546875 156.34765625 C43.57714672 163.65587431 35.84684455 171.21025847 28.1746521 178.83660889 C27.0335671 179.97029687 25.89089359 181.10238863 24.74649048 182.23272705 C17.61337829 189.28620782 11.01610847 196.47759992 4.8125 204.375 C4.04470215 205.3230249 3.2769043 206.2710498 2.48583984 207.24780273 C-15.35472939 229.45256395 -24.56829739 258.91564061 -33.5 285.625 C-33.73072205 286.31149628 -33.96144409 286.99799255 -34.19915771 287.70529175 C-35.65417782 292.05956592 -37.04430307 296.4309747 -38.39523315 300.81863403 C-38.94012397 302.57680472 -39.49430795 304.33211361 -40.05618286 306.08493042 C-47.50260679 329.45599363 -51.79282137 353.463429 -56.35151672 377.52479935 C-57.44736594 383.29180288 -58.5593219 389.05570253 -59.66894531 394.82006836 C-63.40524671 414.26191366 -67.09562298 433.71194434 -70.65234375 453.1875 C-70.77630461 453.86613539 -70.90026546 454.54477077 -71.02798271 455.24397087 C-71.38701197 457.21007157 -71.74587612 459.17620242 -72.10473633 461.14233398 C-75.94325605 482.1696249 -79.80981823 502.94367475 -86.1875 523.375 C-86.52958496 524.49455078 -86.87166992 525.61410156 -87.22412109 526.76757812 C-110.4997737 602.26192874 -110.4997737 602.26192874 -140.04296875 619.78125 C-157.29250278 628.52387097 -178.57504184 634.5785472 -197.6875 628.8125 C-213.54044365 622.5244609 -224.05538456 612.30159472 -230.75 596.8125 C-239.05898392 573.72902057 -239.91682968 548.60702633 -241.44238281 524.34375 C-241.52327148 523.10238281 -241.60416016 521.86101563 -241.6875 520.58203125 C-241.75453125 519.49253174 -241.8215625 518.40303223 -241.890625 517.28051758 C-242.44095575 511.89442687 -243.64837391 507.87466132 -247.625 504 C-248.470625 503.46375 -249.31625 502.9275 -250.1875 502.375 C-251.02087891 501.84132813 -251.02087891 501.84132813 -251.87109375 501.296875 C-258.55310599 498.63759188 -268.75617404 499.41574973 -275.4375 501.875 C-288.76989809 508.23971266 -300.02356878 518.38739998 -310.84765625 528.25390625 C-312.97554815 530.18286335 -315.13470859 532.06536353 -317.3125 533.9375 C-329.8405268 544.9089383 -346.34224683 560.52071198 -348.5 577.890625 C-349.45219861 598.71996957 -332.29948303 619.33046792 -319.8125 634.75 C-294.58570655 661.84768005 -253.9802719 675.16067103 -218.1875 679.375 C-217.42622803 679.4685376 -216.66495605 679.5620752 -215.88061523 679.65844727 C-178.36246283 683.69472763 -143.08259478 677.7636364 -107.04870605 667.88085938 C-104.47770478 667.18208392 -101.89865798 666.51483885 -99.3203125 665.84375 C-73.537534 658.90530342 -51.75627328 645.1940107 -32.1875 627.375 C-31.49978516 626.74899902 -30.81207031 626.12299805 -30.10351562 625.47802734 C-21.92450259 617.98914141 -14.02705179 610.36610179 -6.65234375 602.08203125 C-4.29847846 599.49688284 -1.84382275 597.09731926 0.6875 594.6875 C20.03813228 575.45934007 32.77743475 550.50511836 44.8125 526.375 C45.48007324 525.0437207 45.48007324 525.0437207 46.16113281 523.68554688 C56.94522394 502.04840161 64.70705717 479.73994391 70.8125 456.375 C71.15661926 455.05912903 71.15661926 455.05912903 71.50769043 453.7166748 C73.09522363 447.62925744 74.66004673 441.5363313 76.20687866 435.43844604 C76.72389615 433.40071399 77.24302034 431.36351494 77.76455688 429.32693481 C80.60543505 418.19638738 83.15238199 407.05788973 85.2097168 395.75463867 C85.42398252 394.58684435 85.63824825 393.41905003 85.85900688 392.215868 C87.89994913 381.02415194 89.82162831 369.8130999 91.70885086 358.59458542 C92.31449452 354.99738487 92.92369775 351.40080163 93.53378296 347.80435181 C95.26509076 337.59698953 96.99372195 327.38918429 98.71240234 317.1796875 C105.58475846 276.37755562 112.95260499 235.69321355 121.30908203 195.16625977 C121.49149822 194.28141151 121.67391441 193.39656326 121.86185837 192.48490143 C127.14762016 167.03361901 134.32640319 142.78706759 145.8125 119.375 C146.25964355 118.44171875 146.70678711 117.5084375 147.16748047 116.546875 C153.28120556 103.85349727 159.88497315 92.69296213 169.24853516 82.14648438 C170.78357621 80.40776163 172.2780198 78.6420096 173.76171875 76.859375 C177.85190314 71.94607539 182.01761071 67.1115623 186.3125 62.375 C189.80107938 58.52184836 193.23800326 54.6299642 196.625 50.6875 C197.30949219 49.90342773 197.30949219 49.90342773 198.0078125 49.10351562 C203.6282969 42.56808689 203.6282969 42.56808689 205.9375 34.5625 C202.49861101 24.8189812 197.20469115 18.68162337 188.1015625 13.97265625 C179.08868277 9.7131446 170.45130268 6.16747637 160.6171875 9.4375 C154.33774887 12.02232485 148.51649675 15.04751495 142.6875 18.5 C129.92762894 26.04604597 116.33103263 28.73831559 101.625 28.6875 C100.71169922 28.70361328 99.79839844 28.71972656 98.85742188 28.73632812 C84.69105156 28.74607786 71.61337742 24.97508637 58.35922241 20.36148071 C54.43610099 18.99671049 50.50022968 17.66947199 46.56640625 16.3359375 C45.80254105 16.07587418 45.03867584 15.81581085 44.25166321 15.54786682 C38.19872455 13.49090255 32.12249264 11.52842493 26 9.6875 C25.24428711 9.45635498 24.48857422 9.22520996 23.70996094 8.98706055 C-12.10303817 -1.62804534 -61.52364858 13.2526221 -90.1875 35.375 Z " fill="#000000" transform="translate(360.1875,36.625)"/>
<path d="M0 0 C0.99 0 1.98 0 3 0 C2.35909465 3.5290358 0.95014139 5.86210042 -1.0625 8.8125 C-1.78050781 9.87210938 -2.49851562 10.93171875 -3.23828125 12.0234375 C-5.35409533 15.09004403 -7.508463 18.12810001 -9.66796875 21.1640625 C-18.57201158 33.72695986 -26.7204536 46.42820271 -34 60 C-34.38091797 60.70141113 -34.76183594 61.40282227 -35.15429688 62.12548828 C-52.05082523 93.46656236 -60.0027755 128.24624515 -60.2109375 163.73046875 C-60.23638259 166.40113503 -60.26269025 169.07178273 -60.28979492 171.74243164 C-60.29634126 172.4288763 -60.30288759 173.11532097 -60.3096323 173.82256699 C-60.77421669 221.95655716 -60.77421669 221.95655716 -64 245 C-64.19922536 246.46272696 -64.39844377 247.92545487 -64.59765625 249.38818359 C-75.58515825 328.9690984 -100.79587688 407.47887635 -193 557 C-193.81984375 558.00546875 -194.6396875 559.0109375 -195.484375 560.046875 C-201.78826221 567.6866702 -208.58041397 574.78972007 -215.5625 581.8125 C-216.42456055 582.68374512 -217.28662109 583.55499023 -218.17480469 584.45263672 C-224.14133179 590.39092391 -230.40849266 595.77000686 -237 601 C-237.70036377 601.57032959 -238.40072754 602.14065918 -239.12231445 602.72827148 C-287.32308014 641.95267222 -353.60474454 656.82167436 -414.75 651.3125 C-473.84180447 645.20214612 -529.12286069 617.06090395 -567.0625 571 C-569.16855721 568.37980586 -571.13453532 565.79819702 -573 563 C-573.99 565.475 -573.99 565.475 -575 568 C-575.66 568 -576.32 568 -577 568 C-577.14285714 560.57142857 -577.14285714 560.57142857 -576 557 C-567.42857143 556.85714286 -567.42857143 556.85714286 -564 558 C-564.33 558.99 -564.66 559.98 -565 561 C-566.65 561 -568.3 561 -570 561 C-530.11774297 608.96862017 -479.8804176 639.84031597 -417 647 C-415.76866333 647.14139404 -415.76866333 647.14139404 -414.51245117 647.28564453 C-406.66229258 648.09565628 -398.82473813 648.24305203 -390.9375 648.25 C-389.89311768 648.25101212 -389.89311768 648.25101212 -388.82763672 648.25204468 C-333.63580888 648.16798744 -278.26454812 631.10719528 -236 595 C-234.9030924 594.08764083 -233.80539454 593.17623118 -232.70703125 592.265625 C-221.28704269 582.72631233 -210.56091792 572.41761404 -201 561 C-200.195625 560.07316406 -199.39125 559.14632812 -198.5625 558.19140625 C-191.27982803 549.77188835 -184.53606599 541.00863657 -178 532 C-177.43877441 531.22736816 -176.87754883 530.45473633 -176.29931641 529.65869141 C-167.50768101 517.48886827 -159.48084792 505.01353394 -152 492 C-151.44844238 491.04496582 -150.89688477 490.08993164 -150.32861328 489.10595703 C-110.13934291 419.25938587 -83.43690966 342.31794522 -64.09008789 170.04931641 C-64.59513877 113.27877162 -45.46911541 66.37077194 -13.60546875 20.26171875 C-11.32875528 16.96111514 -9.09754498 13.64010282 -6.92578125 10.26953125 C-6.46824463 9.56272217 -6.01070801 8.85591309 -5.53930664 8.12768555 C-4.70302505 6.82868576 -3.87485452 5.52441426 -3.05639648 4.21411133 C-1.953125 2.5078125 -1.953125 2.5078125 0 0 Z " fill="#000000" transform="translate(577,107)"/>
<path d="M0 0 C0.93513428 -0.00067474 1.87026855 -0.00134949 2.83374023 -0.00204468 C30.16572903 0.02891183 57.02057773 2.50149742 84.02539062 6.6237793 C84.73050278 6.73129517 85.43561493 6.83881104 86.16209412 6.94958496 C88.06127327 7.24170266 89.95950855 7.53993848 91.85766602 7.83862305 C95.08043357 8.33826355 95.08043357 8.33826355 98.9375 8.25 C98.2775 6.93 97.6175 5.61 96.9375 4.25 C98.2575 4.25 99.5775 4.25 100.9375 4.25 C104.85886752 8.91324786 104.85886752 8.91324786 105.0625 12.375 C103.29652266 15.31829556 100.88805366 16.59768995 97.9375 18.25 C96.9475 18.25 95.9575 18.25 94.9375 18.25 C96.8125 14.375 96.8125 14.375 97.9375 13.25 C82.38772887 9.94074297 66.72493418 8.01616517 50.9375 6.25 C49.33165039 6.0655835 49.33165039 6.0655835 47.69335938 5.87744141 C-0.21944263 0.58805782 -51.19928676 2.7430953 -97.0625 18.25 C-97.74924805 18.47768066 -98.43599609 18.70536133 -99.14355469 18.93994141 C-124.37207318 27.41293873 -145.63374992 41.20442253 -165.0625 59.25 C-165.71734375 59.83910156 -166.3721875 60.42820313 -167.046875 61.03515625 C-178.47860104 71.78192349 -186.94847034 85.38658291 -194.0625 99.25 C-194.53163818 100.15153809 -194.53163818 100.15153809 -195.01025391 101.07128906 C-226.83719427 162.9598355 -219.26848432 238.64808135 -200.60986328 303.12817383 C-200.0625 305.25 -200.0625 305.25 -200.0625 307.25 C-201.0525 307.25 -202.0425 307.25 -203.0625 307.25 C-226.85743324 243.44588697 -228.27154026 164.76552152 -200.0625 102.25 C-193.54484333 88.3458795 -184.89494881 76.02466093 -175.0625 64.25 C-174.47726563 63.54101562 -173.89203125 62.83203125 -173.2890625 62.1015625 C-169.24592848 57.32663951 -164.86393631 53.24977554 -160.0625 49.25 C-159.28519531 48.57324219 -158.50789063 47.89648438 -157.70703125 47.19921875 C-114.32580349 10.24970101 -55.36815082 0.03630013 0 0 Z " fill="#000000" transform="translate(356.0625,21.75)"/>
<path d="M0 0 C3.0625 0.1875 3.0625 0.1875 5.0625 2.1875 C4.90004442 5.92397845 4.47466356 7.71288742 2 10.5625 C1.360625 11.09875 0.72125 11.635 0.0625 12.1875 C1.7125 12.5175 3.3625 12.8475 5.0625 13.1875 C5.0625 13.8475 5.0625 14.5075 5.0625 15.1875 C1.7625 15.1875 -1.5375 15.1875 -4.9375 15.1875 C-2.9375 11.1875 -2.9375 11.1875 -0.8125 8.625 C1.36735538 6.30372611 1.36735538 6.30372611 1.0625 3.1875 C0.4025 3.1875 -0.2575 3.1875 -0.9375 3.1875 C-1.2675 3.8475 -1.5975 4.5075 -1.9375 5.1875 C-2.9275 5.1875 -3.9175 5.1875 -4.9375 5.1875 C-3.82120474 0.24390669 -3.82120474 0.24390669 0 0 Z " fill="#000000" transform="translate(517.9375,430.8125)"/>
<path d="M0 0 C0 4.95 0 9.9 0 15 C-0.99 15 -1.98 15 -3 15 C-3 11.37 -3 7.74 -3 4 C-3.99 4.33 -4.98 4.66 -6 5 C-5.625 3.0625 -5.625 3.0625 -5 1 C-3 0 -3 0 0 0 Z " fill="#000000" transform="translate(505,431)"/>
<path d="M0 0 C0 4.95 0 9.9 0 15 C-0.99 15 -1.98 15 -3 15 C-3 11.37 -3 7.74 -3 4 C-3.99 4.33 -4.98 4.66 -6 5 C-5.625 3.0625 -5.625 3.0625 -5 1 C-3 0 -3 0 0 0 Z " fill="#000000" transform="translate(298,4)"/>
<path d="M0 0 C0 4.95 0 9.9 0 15 C-0.66 15 -1.32 15 -2 15 C-2.33 11.37 -2.66 7.74 -3 4 C-3.99 4.33 -4.98 4.66 -6 5 C-6 4.01 -6 3.02 -6 2 C-3 0 -3 0 0 0 Z " fill="#000000" transform="translate(310,4)"/>
<path d="M0 0 C0.99 0.33 1.98 0.66 3 1 C3 1.66 3 2.32 3 3 C1.25 4.5078125 1.25 4.5078125 -1 6.125 C-1.7425 6.66382812 -2.485 7.20265625 -3.25 7.7578125 C-3.8275 8.16773437 -4.405 8.57765625 -5 9 C-5.66 8.67 -6.32 8.34 -7 8 C-5.51218185 4.21282653 -3.38011591 2.22592999 0 0 Z " fill="#000000" transform="translate(253,113)"/>
<path d="M0 0 C-0.21484375 1.890625 -0.21484375 1.890625 -1 4 C-3.06640625 5.046875 -3.06640625 5.046875 -5.5625 5.75 C-6.80193359 6.11351562 -6.80193359 6.11351562 -8.06640625 6.484375 C-9.02353516 6.73960937 -9.02353516 6.73960937 -10 7 C-10.33 6.01 -10.66 5.02 -11 4 C-9.5437455 3.32880451 -8.08492133 2.66318193 -6.625 2 C-5.81289062 1.62875 -5.00078125 1.2575 -4.1640625 0.875 C-2 0 -2 0 0 0 Z " fill="#000000" transform="translate(254,678)"/>
<path d="M0 0 C3.99500618 1.3697164 6.80009492 3.25722422 10 6 C9.67 6.66 9.34 7.32 9 8 C5.40608886 6.66511872 2.24509304 5.03977277 -1 3 C-0.67 2.01 -0.34 1.02 0 0 Z " fill="#000000" transform="translate(108,668)"/>
<path d="M0 0 C2.53910197 0.38520564 3.72751123 0.70097943 5.484375 2.62890625 C5.90203125 3.26699219 6.3196875 3.90507813 6.75 4.5625 C7.17796875 5.20316406 7.6059375 5.84382812 8.046875 6.50390625 C8.36140625 6.99761719 8.6759375 7.49132812 9 8 C5 8 5 8 2.25 5.6875 C0 3 0 3 0 0 Z " fill="#000000" transform="translate(77,642)"/>
<path d="M0 0 C0 0.99 0 1.98 0 3 C-3.87684087 4.19287411 -6.91621923 5 -11 5 C-11 4.01 -11 3.02 -11 2 C-7.12315913 0.80712589 -4.08378077 0 0 0 Z " fill="#000000" transform="translate(235,686)"/>
<path d="M0 0 C0.66 0.33 1.32 0.66 2 1 C0.52440331 5.42679007 -1.90057368 5.91432696 -6 8 C-6.66 8 -7.32 8 -8 8 C-7.9375 6.25 -7.9375 6.25 -7 4 C-4.74876994 2.27481113 -2.59865097 1.23093993 0 0 Z " fill="#000000" transform="translate(270,668)"/>
<path d="M0 0 C0.99 0.33 1.98 0.66 3 1 C0.68462045 4.72114571 -1.28579473 7.61229661 -5 10 C-5 4.69520066 -3.4637943 3.81017373 0 0 Z " fill="#000000" transform="translate(299,641)"/>
<path d="M0 0 C1.75 0.125 1.75 0.125 4 1 C6.3125 3.875 6.3125 3.875 8 7 C7.67 7.99 7.34 8.98 7 10 C3.60582235 6.87378374 1.3937282 4.43458973 0 0 Z " fill="#000000" transform="translate(64,626)"/>
<path d="M0 0 C1.859375 0.24609375 1.859375 0.24609375 4 1 C5.265625 2.84765625 5.265625 2.84765625 6.25 5.0625 C6.75273438 6.16271484 6.75273438 6.16271484 7.265625 7.28515625 C7.50796875 7.85105469 7.7503125 8.41695312 8 9 C6.68 9 5.36 9 4 9 C0 2.25 0 2.25 0 0 Z " fill="#000000" transform="translate(53,609)"/>
<path d="M0 0 C0.99 0 1.98 0 3 0 C2.44894091 3.9492568 1.61064629 7.34920174 0 11 C-0.99 10.67 -1.98 10.34 -3 10 C-2.01 6.7 -1.02 3.4 0 0 Z " fill="#000000" transform="translate(397,397)"/>
<path d="M0 0 C0.99 0 1.98 0 3 0 C2.01 3.3 1.02 6.6 0 10 C-0.99 10 -1.98 10 -3 10 C-2.69201674 8.51988629 -2.378482 7.04092675 -2.0625 5.5625 C-1.88847656 4.73878906 -1.71445312 3.91507812 -1.53515625 3.06640625 C-1 1 -1 1 0 0 Z " fill="#000000" transform="translate(404,378)"/>
<path d="M0 0 C0.99 0 1.98 0 3 0 C2.69078116 1.45903258 2.37751201 2.91720722 2.0625 4.375 C1.88847656 5.18710938 1.71445312 5.99921875 1.53515625 6.8359375 C1 9 1 9 0 11 C-0.99 10.67 -1.98 10.34 -3 10 C-2.01 6.7 -1.02 3.4 0 0 Z " fill="#000000" transform="translate(455,224)"/>
<path d="M0 0 C0.99 0 1.98 0 3 0 C2.53199289 4.05606165 2.12046792 7.46588679 0 11 C-0.66 11 -1.32 11 -2 11 C-1.125 3.375 -1.125 3.375 0 0 Z " fill="#000000" transform="translate(473,166)"/>
<path d="M0 0 C0 0.66 0 1.32 0 2 C-4.95 3.485 -4.95 3.485 -10 5 C-10 3.68 -10 2.36 -10 1 C-3.71428571 -1.42857143 -3.71428571 -1.42857143 0 0 Z " fill="#000000" transform="translate(308,87)"/>
<path d="M0 0 C0 0.66 0 1.32 0 2 C-3.63 2.66 -7.26 3.32 -11 4 C-11 3.01 -11 2.02 -11 1 C-6.87831311 -0.62950412 -4.29299643 -1.26264601 0 0 Z " fill="#000000" transform="translate(327,82)"/>
<path d="M0 0 C3.63 0 7.26 0 11 0 C11 0.99 11 1.98 11 3 C7.37 3 3.74 3 0 3 C0 2.01 0 1.02 0 0 Z " fill="#000000" transform="translate(184,693)"/>
<path d="M0 0 C0 0.99 0 1.98 0 3 C-3.63 3.33 -7.26 3.66 -11 4 C-11 3.01 -11 2.02 -11 1 C-7.32589215 -0.17571451 -3.83070817 -0.07366746 0 0 Z " fill="#000000" transform="translate(215,691)"/>
<path d="M0 0 C3.63 0.33 7.26 0.66 11 1 C11 1.99 11 2.98 11 4 C7.37 3.67 3.74 3.34 0 3 C0 2.01 0 1.02 0 0 Z " fill="#000000" transform="translate(164,691)"/>
<path d="M0 0 C4.95 1.98 4.95 1.98 10 4 C9.67 4.99 9.34 5.98 9 7 C6.03 6.01 3.06 5.02 0 4 C0 2.68 0 1.36 0 0 Z " fill="#000000" transform="translate(126,678)"/>
<path d="M0 0 C0.99 0 1.98 0 3 0 C2.44894091 3.9492568 1.61064629 7.34920174 0 11 C-0.99 10.67 -1.98 10.34 -3 10 C-2.01 6.7 -1.02 3.4 0 0 Z " fill="#000000" transform="translate(355,511)"/>
<path d="M0 0 C0.66 0 1.32 0 2 0 C1.53199289 4.05606165 1.12046792 7.46588679 -1 11 C-1.99 10.67 -2.98 10.34 -4 10 C-2.68 6.7 -1.36 3.4 0 0 Z " fill="#000000" transform="translate(384,435)"/>
<path d="M0 0 C0.99 0 1.98 0 3 0 C2.44894091 3.9492568 1.61064629 7.34920174 0 11 C-0.99 10.67 -1.98 10.34 -3 10 C-2.01 6.7 -1.02 3.4 0 0 Z " fill="#000000" transform="translate(390,416)"/>
<path d="M0 0 C0.99 0.33 1.98 0.66 3 1 C2.01 4.3 1.02 7.6 0 11 C-0.99 11 -1.98 11 -3 11 C-2.69078116 9.54096742 -2.37751201 8.08279278 -2.0625 6.625 C-1.88847656 5.81289062 -1.71445312 5.00078125 -1.53515625 4.1640625 C-1 2 -1 2 0 0 Z " fill="#000000" transform="translate(449,243)"/>
<path d="M0 0 C0.99 0.33 1.98 0.66 3 1 C2.34 3.97 1.68 6.94 1 10 C-0.32 10.33 -1.64 10.66 -3 11 C-2.01 7.37 -1.02 3.74 0 0 Z " fill="#000000" transform="translate(467,185)"/>
<path d="M0 0 C0.99 0.33 1.98 0.66 3 1 C2.01 4.3 1.02 7.6 0 11 C-0.99 11 -1.98 11 -3 11 C-2.69078116 9.54096742 -2.37751201 8.08279278 -2.0625 6.625 C-1.88847656 5.81289062 -1.71445313 5.00078125 -1.53515625 4.1640625 C-1 2 -1 2 0 0 Z " fill="#000000" transform="translate(207,176)"/>
<path d="M0 0 C0.66 0.33 1.32 0.66 2 1 C0.8905928 4.48670834 -0.26337666 7.77484237 -2 11 C-2.99 10.67 -3.98 10.34 -5 10 C-4.54857119 8.70590408 -4.08858979 7.41478941 -3.625 6.125 C-3.36976563 5.40570313 -3.11453125 4.68640625 -2.8515625 3.9453125 C-2 2 -2 2 0 0 Z " fill="#000000" transform="translate(216,158)"/>
<path d="M0 0 C0.99 0.33 1.98 0.66 3 1 C2.34 3.97 1.68 6.94 1 10 C-0.32 10.33 -1.64 10.66 -3 11 C-2.01 7.37 -1.02 3.74 0 0 Z " fill="#000000" transform="translate(485,127)"/>
<path d="M0 0 C0.66 0.33 1.32 0.66 2 1 C0.44499019 4.81684226 -2.03595495 7.19195732 -5 10 C-5.66 9.34 -6.32 8.68 -7 8 C-4.69 5.36 -2.38 2.72 0 0 Z " fill="#000000" transform="translate(239,126)"/>
<path d="M0 0 C0.99 0 1.98 0 3 0 C2.69078116 1.45903258 2.37751201 2.91720722 2.0625 4.375 C1.88847656 5.18710938 1.71445312 5.99921875 1.53515625 6.8359375 C1 9 1 9 0 11 C-0.99 10.67 -1.98 10.34 -3 10 C-2.01 6.7 -1.02 3.4 0 0 Z " fill="#000000" transform="translate(491,108)"/>
<path d="M0 0 C0.99 0.33 1.98 0.66 3 1 C3 1.66 3 2.32 3 3 C0.03 4.65 -2.94 6.3 -6 8 C-6 6.68 -6 5.36 -6 4 C-3.1875 1.6875 -3.1875 1.6875 0 0 Z " fill="#000000" transform="translate(269,102)"/>
<path d="M0 0 C0 0.99 0 1.98 0 3 C-2.97 4.32 -5.94 5.64 -9 7 C-9 5.68 -9 4.36 -9 3 C-3.375 0 -3.375 0 0 0 Z " fill="#000000" transform="translate(289,93)"/>
<path d="M0 0 C3.63 0.33 7.26 0.66 11 1 C11 1.99 11 2.98 11 4 C3.57142857 4.14285714 3.57142857 4.14285714 0 3 C0 2.01 0 1.02 0 0 Z " fill="#000000" transform="translate(414,77)"/>
<path d="M0 0 C3.63 0 7.26 0 11 0 C11 0.99 11 1.98 11 3 C7.37 3 3.74 3 0 3 C0 2.01 0 1.02 0 0 Z " fill="#000000" transform="translate(394,76)"/>
<path d="M0 0 C3.63 0 7.26 0 11 0 C11 0.99 11 1.98 11 3 C7.37 3 3.74 3 0 3 C0 2.01 0 1.02 0 0 Z " fill="#000000" transform="translate(355,76)"/>
<path d="M0 0 C4.95 0.99 4.95 0.99 10 2 C10.33 2.99 10.66 3.98 11 5 C3.375 4.125 3.375 4.125 0 3 C0 2.01 0 1.02 0 0 Z " fill="#000000" transform="translate(144,686)"/>
<path d="M0 0 C0.99 0.33 1.98 0.66 3 1 C-1.43076923 6.78461538 -1.43076923 6.78461538 -4.3125 7.875 C-5.1478125 7.936875 -5.1478125 7.936875 -6 8 C-6 7.01 -6 6.02 -6 5 C-3.1875 2.25 -3.1875 2.25 0 0 Z " fill="#000000" transform="translate(285,656)"/>
<path d="M0 0 C3.81684226 1.55500981 6.19195732 4.03595495 9 7 C8.34 7.66 7.68 8.32 7 9 C4.36 6.69 1.72 4.38 -1 2 C-0.67 1.34 -0.34 0.68 0 0 Z " fill="#000000" transform="translate(92,656)"/>
<path d="M0 0 C0.99 0 1.98 0 3 0 C2.43454163 3.95820859 1.19097652 6.6659053 -1 10 C-1.99 9.67 -2.98 9.34 -4 9 C-2.68 6.03 -1.36 3.06 0 0 Z " fill="#000000" transform="translate(309,624)"/>
<path d="M0 0 C0.66 0.33 1.32 0.66 2 1 C1.01 4.3 0.02 7.6 -1 11 C-1.99 11 -2.98 11 -4 11 C-3.48964169 6.6109185 -2.47785723 3.66291938 0 0 Z " fill="#000000" transform="translate(326,586)"/>
<path d="M0 0 C0.99 0 1.98 0 3 0 C2.60404157 1.48484412 2.18249294 2.9628831 1.75 4.4375 C1.51796875 5.26121094 1.2859375 6.08492187 1.046875 6.93359375 C0.52867187 7.95646484 0.52867187 7.95646484 0 9 C-1.32 9.33 -2.64 9.66 -4 10 C-2.68 6.7 -1.36 3.4 0 0 Z " fill="#000000" transform="translate(333,568)"/>
<path d="M0 0 C0.99 0.33 1.98 0.66 3 1 C1.68 4.3 0.36 7.6 -1 11 C-1.99 10.34 -2.98 9.68 -4 9 C-2.68 6.03 -1.36 3.06 0 0 Z " fill="#000000" transform="translate(348,530)"/>
<path d="M0 0 C0.66 0 1.32 0 2 0 C1.44894091 3.9492568 0.61064629 7.34920174 -1 11 C-1.99 10.67 -2.98 10.34 -4 10 C-3.52449439 8.51965236 -3.04448784 7.04074979 -2.5625 5.5625 C-2.29566406 4.73878906 -2.02882813 3.91507812 -1.75390625 3.06640625 C-1 1 -1 1 0 0 Z " fill="#000000" transform="translate(363,492)"/>
<path d="M0 0 C0.66 0 1.32 0 2 0 C1.53199289 4.05606165 1.12046792 7.46588679 -1 11 C-1.99 10.67 -2.98 10.34 -4 10 C-2.68 6.7 -1.36 3.4 0 0 Z " fill="#000000" transform="translate(370,473)"/>
<path d="M0 0 C0.66 0 1.32 0 2 0 C1.53199289 4.05606165 1.12046792 7.46588679 -1 11 C-1.99 10.67 -2.98 10.34 -4 10 C-2.68 6.7 -1.36 3.4 0 0 Z " fill="#000000" transform="translate(377,454)"/>
<path d="M0 0 C0.99 0.33 1.98 0.66 3 1 C2.01 4.3 1.02 7.6 0 11 C-0.99 11 -1.98 11 -3 11 C-2.69078116 9.54096742 -2.37751201 8.08279278 -2.0625 6.625 C-1.88847656 5.81289063 -1.71445312 5.00078125 -1.53515625 4.1640625 C-1 2 -1 2 0 0 Z " fill="#000000" transform="translate(430,301)"/>
<path d="M0 0 C0.99 0 1.98 0 3 0 C2.69078116 1.45903258 2.37751201 2.91720722 2.0625 4.375 C1.88847656 5.18710937 1.71445312 5.99921875 1.53515625 6.8359375 C1 9 1 9 0 11 C-0.99 10.67 -1.98 10.34 -3 10 C-2.01 6.7 -1.02 3.4 0 0 Z " fill="#000000" transform="translate(436,282)"/>
<path d="M0 0 C0.99 0 1.98 0 3 0 C3.66 3.3 4.32 6.6 5 10 C4.01 10.33 3.02 10.66 2 11 C1.34 7.37 0.68 3.74 0 0 Z " fill="#000000" transform="translate(199,274)"/>
<path d="M0 0 C0.99 0 1.98 0 3 0 C4.17571451 3.67410785 4.07366746 7.16929183 4 11 C3.01 11 2.02 11 1 11 C0.67 7.37 0.34 3.74 0 0 Z " fill="#000000" transform="translate(196,254)"/>
<path d="M0 0 C0.99 0.33 1.98 0.66 3 1 C2.34 4.3 1.68 7.6 1 11 C0.01 11 -0.98 11 -2 11 C-1.34 7.37 -0.68 3.74 0 0 Z " fill="#000000" transform="translate(201,195)"/>
<path d="M0 0 C3.3 0.33 6.6 0.66 10 1 C10.33 1.99 10.66 2.98 11 4 C7.37 3.67 3.74 3.34 0 3 C0 2.01 0 1.02 0 0 Z " fill="#000000" transform="translate(453,83)"/>
<path d="M0 0 C1.8871875 0.0309375 1.8871875 0.0309375 3.8125 0.0625 C3.4825 1.0525 3.1525 2.0425 2.8125 3.0625 C-0.4875 3.3925 -3.7875 3.7225 -7.1875 4.0625 C-7.1875 3.0725 -7.1875 2.0825 -7.1875 1.0625 C-4.43671116 0.14557039 -2.82801087 -0.04636083 0 0 Z " fill="#000000" transform="translate(342.1875,77.9375)"/>
<path d="M0 0 C0.66 0 1.32 0 2 0 C1.48964169 4.3890815 0.47785723 7.33708062 -2 11 C-2.66 10.67 -3.32 10.34 -4 10 C-3.52449439 8.51965236 -3.04448784 7.04074979 -2.5625 5.5625 C-2.29566406 4.73878906 -2.02882813 3.91507813 -1.75390625 3.06640625 C-1 1 -1 1 0 0 Z " fill="#000000" transform="translate(318,605)"/>
<path d="M0 0 C0.66 0 1.32 0 2 0 C1.44894091 3.9492568 0.61064629 7.34920174 -1 11 C-1.99 10.67 -2.98 10.34 -4 10 C-3.52449439 8.51965236 -3.04448784 7.04074979 -2.5625 5.5625 C-2.29566406 4.73878906 -2.02882813 3.91507813 -1.75390625 3.06640625 C-1 1 -1 1 0 0 Z " fill="#000000" transform="translate(341,549)"/>
<path d="M0 0 C0.99 0 1.98 0 3 0 C2.71758359 1.46015291 2.42373386 2.91809793 2.125 4.375 C1.96257812 5.18710937 1.80015625 5.99921875 1.6328125 6.8359375 C1 9 1 9 -1 11 C-1.66 10.34 -2.32 9.68 -3 9 C-2.01 6.03 -1.02 3.06 0 0 Z " fill="#000000" transform="translate(410,359)"/>
<path d="M0 0 C0.99 0.33 1.98 0.66 3 1 C2.01 4.3 1.02 7.6 0 11 C-0.99 11 -1.98 11 -3 11 C-2.01 7.37 -1.02 3.74 0 0 Z " fill="#000000" transform="translate(417,339)"/>
<path d="M0 0 C0.66 0.33 1.32 0.66 2 1 C1.34 3.97 0.68 6.94 0 10 C-1.32 10.33 -2.64 10.66 -4 11 C-3.5247412 9.35303396 -3.04468109 7.70745272 -2.5625 6.0625 C-2.29566406 5.14597656 -2.02882813 4.22945313 -1.75390625 3.28515625 C-1 1 -1 1 0 0 Z " fill="#000000" transform="translate(424,320)"/>
<path d="M0 0 C0.99 0 1.98 0 3 0 C3.14285714 7.42857143 3.14285714 7.42857143 2 11 C1.01 10.67 0.02 10.34 -1 10 C-0.67 6.7 -0.34 3.4 0 0 Z " fill="#000000" transform="translate(197,215)"/>
<path d="M0 0 C0.99 0 1.98 0 3 0 C2.71758359 1.46015291 2.42373386 2.91809793 2.125 4.375 C1.96257812 5.18710938 1.80015625 5.99921875 1.6328125 6.8359375 C1 9 1 9 -1 11 C-1.66 10.34 -2.32 9.68 -3 9 C-2.01 6.03 -1.02 3.06 0 0 Z " fill="#000000" transform="translate(461,205)"/>
<path d="M0 0 C0.99 0 1.98 0 3 0 C2.34 3.3 1.68 6.6 1 10 C0.01 10 -0.98 10 -2 10 C-1.54177532 6.53058454 -1.10868317 3.32604951 0 0 Z " fill="#000000" transform="translate(479,147)"/>
<path d="M0 0 C0.66 0 1.32 0 2 0 C1.38545304 3.99455527 -0.70646737 6.74466336 -3 10 C-3.66 9.67 -4.32 9.34 -5 9 C-4.42676569 5.13066838 -2.61046448 2.84777943 0 0 Z " fill="#000000" transform="translate(226,142)"/>
<path d="M0 0 C2.31 0.66 4.62 1.32 7 2 C6.34 3.98 5.68 5.96 5 8 C4.01 8 3.02 8 2 8 C2.33 6.68 2.66 5.36 3 4 C1.68 3.34 0.36 2.68 -1 2 C-0.67 1.34 -0.34 0.68 0 0 Z " fill="#000000" transform="translate(492,91)"/>
<path d="M0 0 C7.75 0.875 7.75 0.875 10 2 C10 2.99 10 3.98 10 5 C6.7 4.34 3.4 3.68 0 3 C0 2.01 0 1.02 0 0 Z " fill="#000000" transform="translate(473,87)"/>
<path d="M0 0 C6.625 -0.125 6.625 -0.125 10 1 C10 1.99 10 2.98 10 4 C6.7 3.67 3.4 3.34 0 3 C0 2.01 0 1.02 0 0 Z " fill="#000000" transform="translate(434,80)"/>
<path d="M0 0 C0.66 0.33 1.32 0.66 2 1 C1.54177532 4.46941546 1.10868317 7.67395049 0 11 C-0.99 11 -1.98 11 -3 11 C-2.69078116 9.54096742 -2.37751201 8.08279278 -2.0625 6.625 C-1.88847656 5.81289063 -1.71445312 5.00078125 -1.53515625 4.1640625 C-1 2 -1 2 0 0 Z " fill="#000000" transform="translate(443,262)"/>
<path d="M0 0 C0.99 0 1.98 0 3 0 C3 3.3 3 6.6 3 10 C2.01 10 1.02 10 0 10 C0 6.7 0 3.4 0 0 Z " fill="#000000" transform="translate(196,235)"/>
<path d="M0 0 C3.3 0 6.6 0 10 0 C10 0.66 10 1.32 10 2 C6.7 2 3.4 2 0 2 C0 1.34 0 0.68 0 0 Z " fill="#000000" transform="translate(375,76)"/>
<path d="M0 0 C0.99 0 1.98 0 3 0 C3.33 1.65 3.66 3.3 4 5 C3.01 5 2.02 5 1 5 C0.67 3.35 0.34 1.7 0 0 Z " fill="#000000" transform="translate(204,293)"/>
<path d="M0 0 C1.5 1.3125 1.5 1.3125 3 3 C3 3.99 3 4.98 3 6 C2.01 5.67 1.02 5.34 0 5 C-0.75 3 -0.75 3 -1 1 C-0.67 0.67 -0.34 0.34 0 0 Z " fill="#000000" transform="translate(47,595)"/>
<path d="M0 0 C0.99 0.33 1.98 0.66 3 1 C2.67 1.99 2.34 2.98 2 4 C1.01 3.01 0.02 2.02 -1 1 C-0.67 0.67 -0.34 0.34 0 0 Z " fill="#000000" transform="translate(508,443)"/>
<path d="M0 0 C0.99 0.33 1.98 0.66 3 1 C2.67 1.99 2.34 2.98 2 4 C1.01 3.01 0.02 2.02 -1 1 C-0.67 0.67 -0.34 0.34 0 0 Z " fill="#000000" transform="translate(301,16)"/>
</svg>
