<?xml version="1.0" standalone="no"?>
<!DOCTYPE svg PUBLIC "-//W3C//DTD SVG 20010904//EN"
 "http://www.w3.org/TR/2001/REC-SVG-20010904/DTD/svg10.dtd">
<svg version="1.0" xmlns="http://www.w3.org/2000/svg"
 width="228.000000pt" height="249.000000pt" viewBox="0 0 228.000000 249.000000"
 preserveAspectRatio="xMidYMid meet">

<g transform="translate(0.000000,249.000000) scale(0.100000,-0.100000)"
fill="#000000" stroke="none">
<path d="M1692 2479 c-228 -21 -466 -105 -686 -241 -419 -260 -849 -844 -970
-1315 -72 -278 -3 -618 148 -731 143 -108 284 -140 493 -111 118 16 241 81
355 187 42 39 48 42 54 26 37 -114 117 -219 196 -258 65 -32 162 -35 223 -7
112 51 490 350 586 462 88 103 101 128 97 185 -3 28 -13 62 -24 77 -28 39 -93
61 -159 54 -55 -6 -57 -7 -272 -192 -176 -152 -219 -184 -237 -179 -11 4 -24
12 -28 18 -42 62 103 481 274 791 206 376 282 526 399 798 63 144 142 348 137
352 -2 1 -36 15 -77 29 -136 49 -340 71 -509 55z m373 -69 c84 -18 145 -41
145 -54 0 -63 -312 -736 -463 -997 -121 -209 -196 -377 -278 -618 -61 -180
-72 -251 -48 -305 15 -31 72 -60 105 -52 13 4 90 64 171 134 295 255 277 242
334 242 43 0 55 -5 80 -29 45 -46 40 -84 -21 -162 -87 -110 -237 -241 -445
-389 -151 -108 -176 -120 -247 -120 -64 0 -126 28 -169 77 -41 47 -95 161
-109 230 l-12 55 -63 -69 c-66 -72 -184 -160 -259 -193 -24 -11 -90 -25 -146
-32 -173 -20 -306 11 -421 99 -94 72 -160 256 -160 449 0 233 83 474 266 769
368 597 868 949 1395 984 106 7 269 -2 345 -19z"/>
<path d="M1955 2295 c-34 -34 -33 -77 4 -116 24 -25 34 -29 58 -23 45 11 73
42 73 84 0 73 -84 107 -135 55z"/>
<path d="M1657 2244 c-10 -11 3 -24 24 -24 23 0 25 15 3 24 -19 7 -19 7 -27 0z"/>
<path d="M1508 2233 c-19 -5 -25 -23 -9 -23 17 0 41 12 41 21 0 9 -4 10 -32 2z"/>
<path d="M1820 2220 c0 -5 12 -10 26 -10 14 0 23 4 19 10 -3 6 -15 10 -26 10
-10 0 -19 -4 -19 -10z"/>
<path d="M1335 2190 c-3 -5 3 -10 14 -10 11 0 23 5 26 10 3 6 -3 10 -14 10
-11 0 -23 -4 -26 -10z"/>
<path d="M1190 2140 c-8 -5 -12 -12 -8 -15 10 -10 49 5 43 16 -8 11 -16 11
-35 -1z"/>
<path d="M1608 2060 c-523 -110 -969 -484 -1151 -965 -68 -180 -91 -287 -92
-425 0 -114 2 -129 24 -167 54 -93 165 -107 321 -40 96 42 227 118 276 162 77
68 735 1290 768 1428 6 25 4 27 -26 26 -18 0 -72 -9 -120 -19z m73 -63 c-34
-89 -244 -488 -484 -922 -238 -430 -217 -399 -311 -460 -207 -133 -354 -176
-421 -123 -39 31 -55 77 -55 162 0 95 22 211 66 345 159 487 561 861 1069 996
50 13 102 24 117 25 25 0 27 -2 19 -23z"/>
<path d="M1045 2059 c-12 -19 5 -23 22 -6 16 16 16 17 1 17 -9 0 -20 -5 -23
-11z"/>
<path d="M1930 2010 c-8 -15 -9 -25 -1 -33 7 -7 12 -2 17 17 8 35 -1 44 -16
16z"/>
<path d="M909 1964 c-12 -14 -11 -16 5 -13 11 2 21 10 24 17 5 17 -13 15 -29
-4z"/>
<path d="M790 1865 c-18 -21 -3 -32 16 -13 10 9 12 18 6 22 -5 3 -15 -1 -22
-9z"/>
<path d="M1861 1838 c-5 -13 -7 -25 -4 -28 5 -6 33 30 33 42 0 17 -21 7 -29
-14z"/>
<path d="M675 1740 c-15 -17 -16 -20 -3 -20 19 0 42 26 30 34 -5 3 -17 -3 -27
-14z"/>
<path d="M1786 1673 c-11 -28 10 -35 22 -8 9 20 9 25 -2 25 -8 0 -17 -8 -20
-17z"/>
<path d="M570 1610 c-6 -11 -7 -20 -2 -20 10 0 32 21 32 32 0 16 -19 8 -30
-12z"/>
<path d="M1710 1511 c-12 -24 -13 -31 -2 -31 5 0 14 11 20 25 14 29 -2 34 -18
6z"/>
<path d="M482 1480 c-7 -11 -8 -21 -2 -25 5 -3 14 3 20 14 13 26 -2 35 -18 11z"/>
<path d="M1626 1354 c-11 -28 -6 -39 9 -20 8 11 15 23 15 28 0 14 -18 9 -24
-8z"/>
<path d="M401 1341 c-13 -23 -14 -31 -3 -31 13 0 32 39 22 45 -5 3 -14 -3 -19
-14z"/>
<path d="M1533 1190 c-8 -11 -9 -21 -3 -25 8 -5 30 24 30 39 0 13 -16 5 -27
-14z"/>
<path d="M320 1169 c-12 -22 -8 -35 8 -25 13 8 22 46 11 46 -4 0 -13 -9 -19
-21z"/>
<path d="M1475 1060 c-4 -6 -10 -8 -15 -5 -9 6 -35 -33 -28 -41 9 -8 57 22 62
38 4 19 -9 25 -19 8z"/>
<path d="M257 998 c-7 -25 -3 -33 12 -23 13 8 15 45 2 45 -5 0 -11 -10 -14
-22z"/>
<path d="M1416 914 c-8 -22 -7 -34 3 -34 12 0 21 39 11 45 -4 3 -11 -2 -14
-11z"/>
<path d="M1337 882 c-10 -11 -14 -23 -9 -26 12 -7 35 19 30 34 -2 7 -11 3 -21
-8z"/>
<path d="M216 834 c-9 -23 -7 -44 3 -44 11 0 21 49 11 55 -4 3 -11 -2 -14 -11z"/>
<path d="M1368 774 c-5 -4 -8 -16 -8 -28 0 -14 3 -17 11 -9 6 6 9 19 7 28 -1
9 -6 13 -10 9z"/>
<path d="M1230 735 c-19 -23 -7 -39 13 -17 10 11 14 23 9 26 -5 3 -15 -1 -22
-9z"/>
<path d="M190 635 c0 -14 5 -25 10 -25 6 0 10 11 10 25 0 14 -4 25 -10 25 -5
0 -10 -11 -10 -25z"/>
<path d="M2000 640 c0 -5 5 -10 10 -10 6 0 10 5 10 10 0 6 -4 10 -10 10 -5 0
-10 -4 -10 -10z"/>
<path d="M1320 604 c0 -14 4 -23 10 -19 6 3 10 15 10 26 0 10 -4 19 -10 19 -5
0 -10 -12 -10 -26z"/>
<path d="M1112 579 c-17 -27 -5 -40 14 -15 8 11 14 23 14 28 0 15 -15 8 -28
-13z"/>
<path d="M1912 528 c-14 -14 -16 -28 -2 -28 5 0 14 9 20 20 12 22 1 27 -18 8z"/>
<path d="M198 455 c2 -14 8 -25 13 -25 5 0 9 11 9 25 0 14 -6 25 -14 25 -9 0
-12 -8 -8 -25z"/>
<path d="M992 440 c-7 -11 -9 -20 -4 -20 10 0 32 22 32 32 0 15 -15 8 -28 -12z"/>
<path d="M1286 443 c-4 -9 -2 -21 4 -27 7 -7 10 -7 10 1 0 6 3 18 6 27 3 9 2
16 -4 16 -5 0 -13 -8 -16 -17z"/>
<path d="M1800 415 c-7 -9 -10 -18 -7 -22 8 -7 37 15 37 28 0 14 -16 11 -30
-6z"/>
<path d="M863 325 c-9 -25 2 -27 22 -5 17 18 17 20 1 20 -9 0 -19 -7 -23 -15z"/>
<path d="M1675 309 c-12 -19 5 -23 22 -6 16 16 16 17 1 17 -9 0 -20 -5 -23
-11z"/>
<path d="M257 303 c-4 -6 2 -18 13 -28 23 -21 27 -8 7 20 -8 11 -16 14 -20 8z"/>
<path d="M1280 281 c0 -19 12 -41 20 -36 10 6 1 45 -11 45 -5 0 -9 -4 -9 -9z"/>
<path d="M731 246 c-13 -7 -19 -16 -14 -19 11 -7 51 18 43 26 -3 3 -16 0 -29
-7z"/>
<path d="M1540 230 c-8 -5 -12 -12 -8 -15 9 -9 48 4 48 16 0 12 -21 11 -40 -1z"/>
<path d="M390 211 c0 -10 42 -23 49 -15 7 6 -20 24 -36 24 -7 0 -13 -4 -13 -9z"/>
<path d="M566 201 c-14 -5 -16 -10 -7 -15 15 -9 41 -1 41 14 0 11 -7 12 -34 1z"/>
<path d="M1398 183 c-10 -2 -18 -9 -18 -14 0 -15 43 -7 48 9 4 12 0 13 -30 5z"/>
</g>
</svg>
