<?xml version="1.0" standalone="no"?>
<!DOCTYPE svg PUBLIC "-//W3C//DTD SVG 20010904//EN"
 "http://www.w3.org/TR/2001/REC-SVG-20010904/DTD/svg10.dtd">
<svg version="1.0" xmlns="http://www.w3.org/2000/svg"
 width="566.000000pt" height="711.000000pt" viewBox="0 0 566.000000 711.000000"
 preserveAspectRatio="xMidYMid meet">

<g transform="translate(0.000000,711.000000) scale(0.100000,-0.100000)"
fill="#000000" stroke="none">
<path d="M3640 7101 c-219 -30 -380 -177 -458 -421 -24 -74 -21 -57 -182
-1005 l-120 -710 -86 -295 c-111 -381 -183 -610 -246 -779 -132 -356 -254
-565 -379 -648 -69 -46 -297 -71 -370 -40 -129 53 -199 275 -230 722 -13 197
-7 1131 10 1445 23 420 42 730 67 1079 l25 364 -31 32 c-43 45 -124 82 -205
95 -226 36 -551 -115 -802 -372 -61 -62 -66 -75 -122 -333 -219 -994 -245
-2027 -70 -2745 167 -685 529 -1080 1076 -1175 169 -30 429 -13 575 36 66 22
262 117 373 182 180 104 380 249 537 390 75 67 92 78 119 75 l31 -3 -80 -95
c-108 -129 -316 -330 -433 -417 -257 -193 -536 -324 -814 -383 -127 -27 -392
-38 -518 -21 -195 26 -356 91 -477 193 -355 300 -595 910 -689 1748 -64 569
-59 1340 14 1960 17 147 18 178 6 164 -5 -5 -19 -94 -30 -199 -87 -797 -75
-1592 35 -2250 131 -789 437 -1367 819 -1546 164 -77 323 -104 568 -96 196 6
303 25 492 88 376 125 766 407 1060 767 32 39 63 72 67 72 4 0 8 -11 8 -24 0
-14 5 -28 10 -31 11 -7 13 27 4 75 -7 31 -8 32 -47 26 l-39 -7 31 38 c161 192
213 267 292 420 l50 98 -6 -60 c-3 -33 -24 -179 -46 -325 -79 -528 -90 -602
-104 -738 -8 -75 -15 -178 -15 -227 l0 -91 -124 -27 c-234 -51 -435 -121 -666
-233 -408 -198 -649 -436 -721 -713 -15 -56 -19 -92 -14 -136 24 -233 152
-475 316 -600 188 -142 447 -199 731 -162 154 21 395 81 483 122 371 170 689
705 815 1370 12 61 23 122 26 136 4 22 27 40 122 94 334 193 671 456 835 653
201 241 387 653 507 1129 l40 156 -35 57 c-43 71 -124 154 -175 180 -46 24
-119 26 -159 5 -46 -23 -101 -94 -101 -129 0 -17 -11 -78 -24 -136 -103 -450
-381 -915 -726 -1215 -97 -85 -231 -187 -237 -181 -9 9 25 1810 47 2531 31
997 78 1700 120 1811 9 22 5 27 -43 58 -220 140 -502 221 -687 197z m284 -75
c169 -43 393 -154 389 -192 -1 -10 -9 -64 -17 -119 -51 -340 -97 -1388 -126
-2840 -17 -878 -23 -1465 -15 -1465 10 0 157 103 220 154 279 225 500 504 661
831 101 205 203 521 204 629 0 21 12 40 40 68 34 31 48 38 81 38 55 0 86 -18
155 -93 85 -90 92 -110 69 -205 -31 -136 -112 -395 -169 -541 -177 -452 -337
-670 -701 -954 -120 -93 -360 -252 -494 -327 l-108 -60 -18 -108 c-96 -588
-343 -1086 -656 -1321 -107 -81 -179 -113 -349 -155 -205 -50 -276 -60 -435
-60 -110 1 -159 5 -230 23 -109 26 -230 84 -307 146 -151 121 -277 376 -281
569 -2 75 22 186 38 179 8 -2 23 25 39 69 33 87 83 155 185 250 242 223 735
451 1131 522 52 10 104 19 115 21 19 4 20 13 21 162 1 178 12 269 89 773 61
399 81 549 91 696 7 100 6 101 -17 107 -13 3 -24 5 -25 4 -1 -1 -13 -45 -28
-97 -38 -138 -148 -352 -248 -485 -226 -300 -594 -585 -1020 -790 -151 -73
-246 -95 -429 -102 -229 -9 -398 26 -590 123 -439 219 -688 703 -785 1524 -22
182 -30 762 -15 998 30 459 101 944 197 1344 l36 147 77 73 c99 93 168 146
270 207 204 123 430 158 569 87 86 -44 83 -34 67 -256 -77 -1035 -114 -1977
-95 -2460 20 -548 74 -810 191 -928 73 -74 145 -90 301 -67 182 26 256 75 364
240 143 221 258 523 463 1225 l101 345 129 765 c71 421 132 785 136 810 12 78
63 223 100 285 99 165 224 233 426 234 81 1 129 -5 203 -23z m-2043 -5773
c-12 -20 -14 -14 -5 12 4 9 9 14 11 11 3 -2 0 -13 -6 -23z"/>
<path d="M3690 6625 c0 -16 6 -25 15 -25 9 0 15 9 15 25 0 16 -6 25 -15 25 -9
0 -15 -9 -15 -25z"/>
<path d="M3653 6455 c-6 -25 -7 -48 -2 -50 11 -7 16 3 24 53 9 57 -9 54 -22
-3z"/>
<path d="M3700 6450 c0 -27 5 -50 10 -50 6 0 10 23 10 50 0 28 -4 50 -10 50
-5 0 -10 -22 -10 -50z"/>
<path d="M900 6335 c0 -14 5 -25 10 -25 6 0 10 11 10 25 0 14 -4 25 -10 25 -5
0 -10 -11 -10 -25z"/>
<path d="M3612 6258 c-6 -24 -7 -47 -3 -51 9 -9 15 3 26 61 10 48 -11 39 -23
-10z"/>
<path d="M3700 6256 c0 -25 5 -48 10 -51 6 -4 10 13 10 44 0 28 -4 51 -10 51
-5 0 -10 -20 -10 -44z"/>
<path d="M890 6160 c0 -27 5 -50 10 -50 6 0 10 23 10 50 0 28 -4 50 -10 50 -5
0 -10 -22 -10 -50z"/>
<path d="M3576 6093 c-13 -49 -17 -83 -8 -83 8 0 32 72 32 94 0 14 -19 4 -24
-11z"/>
<path d="M3706 6103 c-8 -8 -8 -56 0 -77 12 -30 24 -16 24 28 0 43 -10 63 -24
49z"/>
<path d="M880 5960 c0 -27 5 -50 10 -50 6 0 10 23 10 50 0 28 -4 50 -10 50 -5
0 -10 -22 -10 -50z"/>
<path d="M3537 5903 c-3 -5 -8 -27 -12 -50 -10 -61 10 -54 22 7 9 43 3 66 -10
43z"/>
<path d="M3710 5860 c0 -27 5 -50 10 -50 6 0 10 23 10 50 0 28 -4 50 -10 50
-5 0 -10 -22 -10 -50z"/>
<path d="M876 5794 c-9 -24 -7 -84 3 -84 9 0 21 47 21 81 0 23 -16 25 -24 3z"/>
<path d="M3486 5679 c-9 -47 -8 -75 3 -63 15 14 26 94 14 94 -6 0 -13 -14 -17
-31z"/>
<path d="M3710 5660 c0 -27 5 -50 10 -50 6 0 10 23 10 50 0 28 -4 50 -10 50
-5 0 -10 -22 -10 -50z"/>
<path d="M870 5560 c0 -27 5 -50 10 -50 6 0 10 23 10 50 0 28 -4 50 -10 50 -5
0 -10 -22 -10 -50z"/>
<path d="M3442 5468 c-5 -24 -7 -45 -5 -47 8 -10 22 16 28 52 10 53 -12 48
-23 -5z"/>
<path d="M3710 5466 c0 -46 15 -70 26 -42 8 21 -4 86 -16 86 -6 0 -10 -20 -10
-44z"/>
<path d="M870 5360 c0 -27 5 -50 10 -50 6 0 10 23 10 50 0 28 -4 50 -10 50 -5
0 -10 -22 -10 -50z"/>
<path d="M3405 5288 c-4 -18 -9 -41 -11 -50 -3 -10 -1 -18 5 -18 10 0 15 13
26 68 4 19 3 32 -3 32 -6 0 -13 -15 -17 -32z"/>
<path d="M3720 5259 c0 -31 4 -48 10 -44 6 3 10 26 10 51 0 24 -4 44 -10 44
-5 0 -10 -23 -10 -51z"/>
<path d="M870 5160 c0 -27 5 -50 10 -50 6 0 10 23 10 50 0 28 -4 50 -10 50 -5
0 -10 -22 -10 -50z"/>
<path d="M3361 5083 c-13 -47 -14 -63 -2 -63 5 0 12 15 16 33 4 17 9 40 11 50
3 9 1 17 -5 17 -5 0 -15 -17 -20 -37z"/>
<path d="M3720 5070 c0 -27 5 -50 10 -50 6 0 10 23 10 50 0 28 -4 50 -10 50
-5 0 -10 -22 -10 -50z"/>
<path d="M874 4979 c3 -17 6 -40 6 -50 0 -11 5 -19 10 -19 6 0 10 23 10 50 0
39 -3 50 -16 50 -13 0 -15 -7 -10 -31z"/>
<path d="M3320 4908 c0 -7 -3 -30 -6 -50 -10 -57 10 -46 22 12 8 40 8 50 -3
50 -7 0 -13 -6 -13 -12z"/>
<path d="M3728 4914 c-5 -4 -8 -27 -8 -51 0 -32 4 -43 15 -43 16 0 18 22 6 73
-3 16 -9 25 -13 21z"/>
<path d="M880 4767 c0 -43 6 -60 19 -53 10 6 0 96 -10 96 -5 0 -9 -19 -9 -43z"/>
<path d="M3286 4719 c-20 -58 -24 -89 -11 -89 8 0 15 18 20 46 6 44 1 72 -9
43z"/>
<path d="M3730 4670 c0 -27 5 -50 10 -50 6 0 10 23 10 50 0 28 -4 50 -10 50
-5 0 -10 -22 -10 -50z"/>
<path d="M890 4573 c0 -40 13 -72 23 -56 8 13 -4 93 -14 93 -5 0 -9 -17 -9
-37z"/>
<path d="M3233 4483 c-12 -49 -9 -64 6 -47 13 13 24 94 14 94 -5 0 -15 -21
-20 -47z"/>
<path d="M3730 4470 c0 -27 5 -50 10 -50 6 0 10 23 10 50 0 28 -4 50 -10 50
-5 0 -10 -22 -10 -50z"/>
<path d="M908 4360 c5 -65 22 -65 22 0 0 33 -4 50 -12 50 -9 0 -12 -15 -10
-50z"/>
<path d="M3196 4313 c-13 -49 -17 -83 -8 -83 8 0 32 72 32 94 0 14 -19 4 -24
-11z"/>
<path d="M3730 4276 c0 -41 13 -68 23 -49 7 14 -5 93 -14 93 -5 0 -9 -20 -9
-44z"/>
<path d="M924 4188 c3 -13 6 -35 6 -50 0 -16 5 -28 10 -28 11 0 13 42 4 78 -4
12 -11 22 -16 22 -6 0 -8 -10 -4 -22z"/>
<path d="M3157 4123 c-3 -5 -8 -27 -12 -50 -10 -61 10 -54 22 7 9 43 3 66 -10
43z"/>
<path d="M3740 4081 c0 -28 5 -51 10 -51 6 0 10 20 10 44 0 25 -4 48 -10 51
-6 4 -10 -13 -10 -44z"/>
<path d="M949 4015 c-3 -2 -3 -24 0 -47 8 -56 28 -61 23 -6 -4 42 -13 63 -23
53z"/>
<path d="M3118 3930 c-8 -20 -28 -82 -28 -86 0 -2 4 -4 9 -4 13 0 33 55 29 82
-3 16 -6 19 -10 8z"/>
<path d="M3740 3880 c0 -27 5 -50 10 -50 6 0 10 23 10 50 0 28 -4 50 -10 50
-5 0 -10 -22 -10 -50z"/>
<path d="M5417 3868 c-7 -25 -3 -33 12 -23 13 8 15 45 2 45 -5 0 -11 -10 -14
-22z"/>
<path d="M976 3812 c-3 -6 -4 -16 -2 -24 2 -7 7 -25 10 -40 9 -42 26 -33 19
10 -7 46 -18 68 -27 54z"/>
<path d="M3024 3705 c-9 -25 -14 -48 -11 -51 6 -6 47 68 47 86 0 25 -20 6 -36
-35z"/>
<path d="M5380 3699 c-7 -26 -8 -45 -2 -51 6 -6 14 8 21 36 13 54 13 56 1 56
-5 0 -14 -19 -20 -41z"/>
<path d="M3740 3680 c0 -27 5 -50 10 -50 6 0 10 23 10 50 0 28 -4 50 -10 50
-5 0 -10 -22 -10 -50z"/>
<path d="M1015 3578 c8 -50 13 -60 24 -53 11 6 -10 95 -22 95 -5 0 -6 -18 -2
-42z"/>
<path d="M2932 3521 c-14 -24 -18 -42 -13 -46 9 -5 51 62 51 80 0 17 -19 0
-38 -34z"/>
<path d="M5331 3528 c-19 -51 -22 -68 -13 -68 6 0 17 20 25 45 16 45 4 66 -12
23z"/>
<path d="M3750 3480 c0 -27 5 -50 10 -50 6 0 10 23 10 50 0 28 -4 50 -10 50
-5 0 -10 -22 -10 -50z"/>
<path d="M1058 3425 c-10 -10 15 -95 28 -95 9 0 9 11 -2 47 -15 51 -18 56 -26
48z"/>
<path d="M2833 3350 c-25 -43 -27 -50 -15 -50 8 0 52 71 52 84 0 17 -17 2 -37
-34z"/>
<path d="M5253 3328 c-17 -44 -18 -48 -7 -49 12 -1 43 80 34 86 -6 3 -17 -13
-27 -37z"/>
<path d="M3750 3291 c0 -28 5 -51 10 -51 6 0 10 20 10 44 0 25 -4 48 -10 51
-6 4 -10 -13 -10 -44z"/>
<path d="M1116 3208 c15 -51 24 -68 34 -68 13 0 13 2 -6 50 -17 42 -41 57 -28
18z"/>
<path d="M2715 3184 c-15 -19 -24 -38 -20 -42 6 -7 64 56 65 71 0 17 -20 5
-45 -29z"/>
<path d="M5163 3150 c-26 -44 -27 -50 -13 -50 8 0 50 70 50 85 0 16 -18 0 -37
-35z"/>
<path d="M3757 3133 c-11 -10 -8 -93 3 -93 6 0 10 23 10 50 0 51 -1 55 -13 43z"/>
<path d="M2582 3027 c-18 -18 -29 -36 -25 -40 7 -8 73 51 73 65 0 16 -17 7
-48 -25z"/>
<path d="M1190 3040 c0 -21 34 -80 47 -80 9 0 7 13 -9 45 -20 42 -38 58 -38
35z"/>
<path d="M5056 2980 c-29 -44 -20 -64 11 -22 30 42 34 50 24 56 -5 3 -20 -12
-35 -34z"/>
<path d="M3760 2890 c0 -27 5 -50 10 -50 6 0 10 23 10 50 0 28 -4 50 -10 50
-5 0 -10 -22 -10 -50z"/>
<path d="M2432 2891 c-19 -16 -29 -31 -24 -35 5 -3 27 10 48 29 23 20 33 34
24 34 -8 0 -30 -13 -48 -28z"/>
<path d="M1290 2871 c0 -12 59 -71 71 -71 16 0 10 11 -27 46 -39 36 -44 39
-44 25z"/>
<path d="M4942 2825 c-17 -22 -29 -41 -26 -44 8 -9 67 56 62 69 -2 8 -17 -2
-36 -25z"/>
<path d="M2271 2783 c-24 -15 -39 -29 -33 -31 16 -5 94 37 87 48 -8 12 -2 14
-54 -17z"/>
<path d="M1450 2751 c0 -9 71 -41 90 -41 23 0 7 16 -33 33 -48 19 -57 21 -57
8z"/>
<path d="M3760 2690 c0 -27 5 -50 10 -50 6 0 10 23 10 50 0 28 -4 50 -10 50
-5 0 -10 -22 -10 -50z"/>
<path d="M2088 2706 c-44 -13 -59 -26 -31 -26 29 0 83 20 83 31 0 11 -4 10
-52 -5z"/>
<path d="M4811 2676 c-19 -20 -31 -39 -27 -43 9 -9 69 52 65 66 -3 7 -19 -4
-38 -23z"/>
<path d="M1640 2682 c0 -12 87 -28 97 -18 10 10 1 14 -49 21 -32 5 -48 4 -48
-3z"/>
<path d="M1840 2660 c0 -5 23 -10 50 -10 28 0 50 5 50 10 0 6 -22 10 -50 10
-27 0 -50 -4 -50 -10z"/>
<path d="M4660 2535 c-22 -23 -29 -35 -19 -35 15 0 69 49 69 63 0 15 -18 5
-50 -28z"/>
<path d="M3760 2496 c0 -25 5 -48 10 -51 6 -4 10 13 10 44 0 28 -4 51 -10 51
-5 0 -10 -20 -10 -44z"/>
<path d="M4508 2414 c-21 -15 -35 -31 -32 -36 6 -9 83 41 84 55 0 13 -14 8
-52 -19z"/>
<path d="M3769 2345 c-8 -7 3 -95 12 -95 12 0 12 87 0 94 -4 3 -10 4 -12 1z"/>
<path d="M4348 2306 c-42 -23 -51 -41 -15 -30 30 9 67 34 67 45 0 13 -10 10
-52 -15z"/>
<path d="M4163 2232 c-41 -15 -57 -32 -30 -32 22 1 92 36 82 42 -6 3 -29 -2
-52 -10z"/>
<path d="M3963 2154 c-18 -8 -33 -19 -33 -24 0 -6 2 -10 4 -10 10 0 96 40 96
45 0 9 -34 4 -67 -11z"/>
<path d="M3770 2115 c0 -22 -6 -38 -15 -41 -23 -9 -18 -21 10 -21 14 0 25 3
25 7 0 4 11 11 25 14 14 4 23 11 20 17 -4 5 -15 7 -26 4 -16 -5 -19 -1 -19 24
0 17 -4 31 -10 31 -5 0 -10 -16 -10 -35z"/>
<path d="M3591 2009 c-24 -11 -41 -22 -38 -25 6 -7 77 14 90 26 19 17 -11 16
-52 -1z"/>
<path d="M3766 1938 c-9 -34 -7 -78 3 -78 11 0 22 83 12 93 -5 5 -11 -2 -15
-15z"/>
<path d="M3401 1936 c-19 -7 -37 -18 -39 -24 -5 -16 -1 -15 52 8 68 29 58 42
-13 16z"/>
<path d="M3213 1863 c-24 -8 -43 -19 -43 -24 0 -12 8 -11 57 7 24 9 43 21 43
25 0 11 -6 11 -57 -8z"/>
<path d="M3010 1783 c-47 -21 -17 -29 33 -8 20 8 37 17 37 20 0 10 -36 4 -70
-12z"/>
<path d="M3737 1718 c-9 -69 6 -69 21 0 8 32 7 42 -3 42 -7 0 -15 -18 -18 -42z"/>
<path d="M2828 1713 c-21 -8 -38 -20 -38 -25 0 -6 6 -8 13 -5 6 2 29 10 50 18
20 7 37 17 37 21 0 12 -20 9 -62 -9z"/>
<path d="M2643 1642 c-39 -15 -57 -32 -33 -32 19 0 90 32 90 41 0 12 -7 11
-57 -9z"/>
<path d="M2448 1564 c-24 -13 -38 -34 -23 -34 10 0 85 40 85 45 0 10 -36 4
-62 -11z"/>
<path d="M3701 1544 c-13 -47 -14 -64 -2 -64 5 0 13 19 19 42 14 55 -2 75 -17
22z"/>
<path d="M3183 1500 c-436 -111 -692 -238 -754 -375 -44 -97 -9 -225 80 -291
57 -42 175 -81 274 -90 75 -7 76 -6 154 36 256 138 411 379 430 668 6 86 5 92
-13 91 -10 0 -87 -18 -171 -39z m133 -80 c-11 -91 -33 -167 -75 -255 -73 -152
-173 -257 -324 -340 -63 -35 -72 -37 -125 -31 -149 17 -256 63 -300 128 -29
45 -40 120 -23 171 30 90 212 202 456 281 110 36 358 104 384 105 11 1 12 -11
7 -59z"/>
<path d="M2285 1440 c-42 -44 -21 -50 23 -7 24 24 31 37 21 37 -8 0 -28 -13
-44 -30z"/>
<path d="M3652 1369 c-19 -51 -22 -68 -14 -73 5 -3 15 15 22 39 13 48 7 74 -8
34z"/>
<path d="M2170 1307 c-7 -12 -20 -32 -28 -44 -12 -19 -12 -23 -1 -23 16 0 63
77 51 84 -4 2 -14 -5 -22 -17z"/>
<path d="M3580 1185 c-6 -15 -15 -35 -20 -46 -8 -14 -7 -19 2 -19 16 0 50 78
37 85 -5 4 -14 -6 -19 -20z"/>
<path d="M2086 1127 c-9 -34 -7 -92 3 -81 13 14 22 92 12 98 -5 3 -11 -4 -15
-17z"/>
<path d="M3481 994 c-24 -40 -25 -44 -12 -44 9 0 51 61 51 74 0 17 -20 2 -39
-30z"/>
<path d="M2086 913 c12 -47 26 -79 31 -66 6 17 -16 93 -28 93 -5 0 -7 -12 -3
-27z"/>
<path d="M3377 841 c-27 -32 -34 -52 -19 -50 13 1 54 59 50 70 -2 7 -16 -3
-31 -20z"/>
<path d="M2160 751 c0 -17 47 -81 61 -81 16 0 9 14 -26 55 -19 22 -35 34 -35
26z"/>
<path d="M3242 699 c-47 -42 -35 -55 12 -15 22 18 35 35 30 38 -5 4 -24 -7
-42 -23z"/>
<path d="M2296 601 c-8 -12 74 -55 84 -45 5 5 -10 19 -35 31 -25 12 -47 18
-49 14z"/>
<path d="M3077 586 c-20 -12 -34 -25 -31 -29 9 -8 84 31 84 43 0 14 -10 11
-53 -14z"/>
<path d="M2480 524 c0 -10 42 -24 76 -24 31 0 11 16 -31 26 -34 8 -45 7 -45
-2z"/>
<path d="M2893 519 c-40 -12 -44 -32 -5 -23 52 11 62 15 62 25 0 11 -14 10
-57 -2z"/>
<path d="M2670 490 c0 -5 20 -10 45 -10 25 0 45 5 45 10 0 6 -20 10 -45 10
-25 0 -45 -4 -45 -10z"/>
<path d="M4566 6688 c-45 -334 -138 -1474 -178 -2173 -18 -317 -16 -1084 3
-1197 8 -49 11 -88 7 -88 -5 0 -20 7 -33 16 -20 13 -25 14 -25 3 0 -8 19 -25
42 -38 46 -26 49 -25 84 42 17 32 3 36 -19 5 -8 -13 -17 -21 -20 -18 -29 28
-44 572 -28 990 25 642 105 1713 176 2355 18 155 17 145 6 145 -6 0 -12 -19
-15 -42z"/>
<path d="M4539 5779 l-24 -20 23 6 c21 6 22 4 22 -54 0 -34 4 -61 10 -61 12 0
13 137 1 144 -5 3 -20 -3 -32 -15z"/>
<path d="M4688 5789 c-10 -5 -18 -17 -18 -26 0 -15 2 -15 13 1 14 19 48 19 54
0 2 -6 -15 -34 -37 -63 l-40 -51 50 0 c32 0 49 4 45 10 -3 6 -17 10 -31 10
l-25 0 25 33 c28 37 33 66 14 85 -14 14 -27 15 -50 1z"/>
<path d="M4610 5660 c0 -5 5 -10 10 -10 6 0 10 5 10 10 0 6 -4 10 -10 10 -5 0
-10 -4 -10 -10z"/>
<path d="M5041 4053 c-43 -26 -44 -46 -1 -23 12 6 24 10 26 8 14 -15 -113
-338 -195 -493 -137 -260 -311 -515 -493 -718 -33 -37 -57 -71 -53 -75 15 -15
232 249 355 433 171 256 315 544 391 783 l23 72 20 -32 c11 -17 22 -26 24 -20
4 13 -35 92 -46 92 -4 -1 -27 -13 -51 -27z"/>
<path d="M29 3469 l-24 -20 23 6 c21 6 22 4 22 -54 0 -34 4 -61 10 -61 12 0
13 137 1 144 -5 3 -20 -3 -32 -15z"/>
<path d="M150 3469 c-24 -20 -24 -20 -2 -14 21 6 22 4 22 -54 0 -34 4 -61 10
-61 12 0 14 136 2 144 -4 2 -19 -4 -32 -15z"/>
<path d="M4509 3469 l-24 -20 23 6 c21 6 22 4 22 -54 0 -34 4 -61 10 -61 12 0
13 137 1 144 -5 3 -20 -3 -32 -15z"/>
<path d="M4665 3438 c-19 -29 -35 -56 -35 -60 0 -5 16 -8 35 -8 24 0 35 -5 35
-15 0 -8 5 -15 10 -15 6 0 10 7 10 15 0 8 5 15 12 15 9 0 9 3 0 12 -7 7 -12
31 -12 54 0 24 -4 45 -10 49 -5 3 -25 -18 -45 -47z m35 -13 c0 -28 -4 -35 -20
-35 -11 0 -20 3 -20 6 0 7 33 64 37 64 2 0 3 -16 3 -35z"/>
<path d="M100 3350 c0 -5 5 -10 10 -10 6 0 10 5 10 10 0 6 -4 10 -10 10 -5 0
-10 -4 -10 -10z"/>
<path d="M4580 3350 c0 -5 5 -10 10 -10 6 0 10 5 10 10 0 6 -4 10 -10 10 -5 0
-10 -4 -10 -10z"/>
<path d="M2995 2230 c-3 -4 7 -17 22 -28 l28 -20 -25 -6 c-14 -3 -91 -21 -171
-40 -620 -148 -1061 -434 -1249 -811 -73 -145 -94 -240 -87 -385 23 -426 259
-722 694 -871 204 -69 388 -82 592 -41 620 125 1105 571 1364 1257 71 189 138
458 119 477 -5 5 -19 -39 -31 -102 -90 -450 -324 -889 -629 -1181 -277 -265
-629 -425 -998 -455 -148 -11 -378 39 -550 120 -220 104 -355 233 -450 431
-55 112 -83 221 -91 350 -11 178 30 322 139 488 176 267 508 493 931 632 151
49 434 121 443 112 2 -2 -5 -16 -16 -30 -11 -14 -16 -28 -11 -32 5 -3 23 14
40 38 l30 44 -44 31 c-25 17 -47 27 -50 22z"/>
<path d="M1279 799 l-24 -20 23 6 c21 6 22 4 22 -54 0 -34 4 -61 10 -61 12 0
13 137 1 144 -5 3 -20 -3 -32 -15z"/>
<path d="M1415 800 c-10 -11 -13 -20 -7 -20 6 0 14 5 17 10 3 6 15 10 26 10
27 0 26 -40 -2 -47 -20 -5 -20 -6 3 -17 12 -6 24 -19 26 -27 4 -24 -27 -32
-54 -14 -25 16 -33 8 -12 -13 19 -19 66 -15 78 7 11 22 4 51 -13 51 -7 0 -7 4
1 12 18 18 14 46 -7 58 -27 14 -35 13 -56 -10z"/>
<path d="M1350 680 c0 -5 5 -10 10 -10 6 0 10 5 10 10 0 6 -4 10 -10 10 -5 0
-10 -4 -10 -10z"/>
</g>
</svg>
