<?xml version="1.0" standalone="no"?>
<!DOCTYPE svg PUBLIC "-//W3C//DTD SVG 20010904//EN"
 "http://www.w3.org/TR/2001/REC-SVG-20010904/DTD/svg10.dtd">
<svg version="1.0" xmlns="http://www.w3.org/2000/svg"
 width="625.000000pt" height="702.000000pt" viewBox="0 0 625.000000 702.000000"
 preserveAspectRatio="xMidYMid meet">
<metadata>
Created by potrace 1.16, written by Peter Selinger 2001-2019
</metadata>
<g transform="translate(0.000000,702.000000) scale(0.100000,-0.100000)"
fill="#000000" stroke="none">
<path d="M4340 7006 c0 -9 3 -16 8 -16 4 0 57 -5 117 -10 503 -48 952 -331
1252 -792 195 -298 326 -700 378 -1158 8 -74 18 -238 21 -365 l6 -230 -37 38
c-38 39 -50 44 -60 27 -8 -12 91 -130 108 -130 18 1 117 99 117 116 0 22 -24
17 -50 -11 -13 -14 -27 -25 -32 -25 -4 0 -8 51 -8 113 0 878 -245 1575 -703
2002 -130 121 -250 204 -412 285 -219 108 -394 158 -592 167 -100 5 -113 4
-113 -11z"/>
<path d="M3820 6849 c-168 -19 -367 -77 -515 -151 -371 -187 -752 -594 -943
-1008 l-44 -95 6 190 c3 105 9 318 12 475 l7 285 -27 32 c-38 45 -128 102
-213 135 -127 50 -202 62 -383 62 -151 0 -173 -3 -253 -27 -171 -53 -319 -148
-408 -264 -46 -58 -64 -116 -103 -328 -55 -293 -72 -489 -86 -1005 -26 -1007
-31 -1420 -21 -1806 33 -1193 43 -1425 81 -1844 51 -558 94 -837 152 -1000 28
-78 154 -284 211 -347 92 -100 217 -141 457 -150 137 -5 165 -3 238 15 189 48
321 175 376 361 15 51 14 77 -9 400 -54 753 -77 1241 -57 1241 6 0 14 -4 17
-10 11 -18 123 -78 211 -113 161 -64 269 -81 509 -81 308 0 599 42 845 120
183 59 583 268 749 393 227 170 469 435 724 792 184 259 249 381 337 634 83
243 165 630 191 907 16 177 7 464 -20 593 -30 142 -67 273 -116 400 -183 476
-474 808 -877 1000 -344 163 -713 231 -1048 194z m380 -59 c249 -31 516 -117
737 -236 445 -241 774 -760 879 -1389 74 -441 -100 -1337 -339 -1750 -113
-196 -410 -584 -589 -770 -193 -201 -326 -303 -575 -441 -350 -195 -528 -255
-903 -306 -233 -31 -544 -32 -680 -2 -179 40 -336 115 -425 202 l-44 44 -17
-34 c-15 -29 -16 -56 -11 -248 7 -244 26 -566 62 -1076 24 -332 25 -354 9
-400 -53 -159 -169 -267 -329 -309 -37 -9 -103 -15 -176 -15 -216 0 -373 44
-456 127 -40 40 -160 231 -194 309 -100 226 -187 1051 -219 2084 -35 1124 -34
1081 -10 2220 20 881 41 1138 126 1501 22 95 29 110 70 157 115 132 285 223
468 253 102 16 287 6 391 -20 105 -27 231 -90 276 -138 l35 -38 -12 -420 c-6
-231 -15 -493 -18 -581 l-6 -162 30 -4 c28 -4 29 -2 41 46 109 463 538 998
999 1244 132 71 358 137 530 155 78 8 271 6 350 -3z"/>
<path d="M4011 6119 c-111 -21 -217 -121 -648 -611 -351 -397 -512 -588 -633
-749 -185 -247 -180 -238 -364 -781 -91 -269 -163 -488 -161 -488 2 0 33 16
68 35 98 54 197 76 374 82 225 9 437 -19 718 -92 159 -41 417 -130 573 -195
64 -27 117 -48 118 -47 1 1 36 70 77 153 129 258 247 558 297 754 19 76 90
504 110 660 40 326 -26 874 -130 1081 -59 116 -130 174 -232 189 -112 17 -122
18 -167 9z m124 -59 c93 -14 147 -47 194 -120 103 -159 168 -534 158 -920 -4
-170 -11 -231 -51 -475 -47 -292 -67 -380 -118 -530 -81 -241 -277 -672 -300
-662 -520 213 -950 317 -1313 317 -128 0 -283 -19 -352 -44 -24 -8 -43 -11
-43 -6 0 4 61 188 135 407 95 278 148 420 178 471 95 168 304 425 800 987 404
458 482 534 584 571 46 16 42 16 128 4z"/>
<path d="M2610 3922 c0 -15 25 -20 150 -27 268 -15 597 -71 791 -135 64 -21
130 -45 145 -53 l28 -15 -32 -7 c-19 -4 -32 -13 -32 -22 0 -11 7 -13 33 -8 81
18 87 26 65 96 -14 47 -43 55 -33 9 7 -34 -2 -37 -43 -16 -58 29 -224 78 -362
106 -268 54 -710 99 -710 72z"/>
<path d="M2665 3105 c-125 -20 -210 -64 -242 -124 -19 -37 -23 -59 -23 -140 0
-249 110 -392 350 -458 50 -14 101 -18 220 -17 140 0 163 3 235 27 44 15 108
43 143 64 74 44 494 401 487 414 -8 12 -350 123 -505 163 -299 77 -495 98
-665 71z m462 -84 c149 -31 440 -111 548 -152 l55 -20 -168 -145 c-92 -80
-194 -163 -227 -185 -90 -60 -197 -90 -336 -96 -258 -12 -434 66 -507 225 -22
48 -27 75 -30 172 -4 113 -4 116 22 147 79 94 341 116 643 54z"/>
<path d="M556 4883 c-50 -1127 -26 -1992 79 -2848 8 -66 15 -121 15 -123 0 -3
-12 3 -26 13 -17 11 -30 13 -36 7 -10 -10 61 -72 83 -72 21 1 74 79 62 91 -7
7 -17 2 -31 -15 l-20 -26 -6 37 c-22 140 -70 631 -91 943 -30 435 -29 1536 1
2038 6 87 5 102 -9 102 -12 0 -16 -25 -21 -147z"/>
</g>
</svg>
