<?xml version="1.0" encoding="UTF-8"?>
<svg version="1.1" xmlns="http://www.w3.org/2000/svg" width="543" height="719">
<path d="M0 0 C1.175625 1.3303125 1.175625 1.3303125 2.375 2.6875 C2.85710937 3.22761719 3.33921875 3.76773438 3.8359375 4.32421875 C12.53790942 14.85934719 14.42098881 27.56066396 15.5546875 40.78323364 C16.19909582 47.86715687 17.30993168 54.84239683 18.484375 61.85546875 C18.80178252 63.77932997 19.11917579 65.70319361 19.43593311 67.62716198 C19.65701661 68.96949553 19.87845612 70.31177048 20.10023785 71.65398884 C27.06749086 113.83242768 32.12384772 155.30347292 34.1953125 198.03479004 C34.48003128 203.82258905 34.78244355 209.60945548 35.08354568 215.39642143 C38.59852318 283.09001748 38.59852318 283.09001748 38.5625 306.375 C38.56189575 307.13476135 38.5612915 307.89452271 38.56066895 308.67730713 C38.46863777 352.54587436 35.25887268 396.85372018 28.67871094 440.2253418 C28.29338423 442.93568211 28.29338423 442.93568211 28.375 446.6875 C37.12814263 440.72343488 44.76851751 434.02187039 52.375 426.6875 C53.29684082 425.80650635 53.29684082 425.80650635 54.23730469 424.90771484 C62.58247629 416.90155252 70.25085886 408.68813496 77.12060547 399.37744141 C78.32959684 397.7486679 79.57244379 396.1451924 80.81640625 394.54296875 C102.16038388 366.57884218 114.06318379 331.73555276 122.8671875 298.0703125 C123.19420654 296.82906616 123.19420654 296.82906616 123.52783203 295.56274414 C123.90753871 294.09219576 124.27225268 292.61763235 124.61669922 291.13842773 C126.02707592 285.56471406 128.46345075 281.48387095 133.4453125 278.41015625 C142.09007362 275.63265696 149.42163675 276.51491967 157.6875 280.1875 C164.35511289 283.7637651 168.00068394 288.56455182 170.375 295.6875 C171.05709273 303.87349971 169.6795228 311.43638192 167.8125 319.375 C167.5429248 320.54764404 167.27334961 321.72028809 166.99560547 322.9284668 C155.13129754 373.47940361 135.55152939 419.37595464 95.51953125 453.8203125 C93.22392571 455.81903645 90.990204 457.87695229 88.75 459.9375 C82.54939706 465.52371393 75.99670457 470.61555608 69.375 475.6875 C68.73224121 476.18185547 68.08948242 476.67621094 67.42724609 477.18554688 C55.35248016 486.44952429 43.05211052 495.15762447 29.8125 502.6875 C28.83023438 503.24860474 28.83023438 503.24860474 27.828125 503.82104492 C24.84348911 505.48144094 22.50012268 506.66841096 19.09765625 507.1875 C16.1995328 508.40154233 16.1995328 508.40154233 15.49804688 510.9909668 C14.99912796 513.06130942 14.5409759 515.1417068 14.11376953 517.22802734 C12.85067912 523.14276335 10.78952966 528.79175094 8.8125 534.5 C8.59601807 535.12590027 8.37953613 535.75180054 8.15649414 536.39666748 C-0.73726902 561.99661145 -11.73655739 585.9546366 -28.09375 607.62988281 C-29.93226135 610.10038244 -31.68393496 612.62347728 -33.43286133 615.15771484 C-55.04844393 646.29513201 -82.34767671 663.71172244 -119.625 670.6875 C-129.1377123 672.35267151 -138.40990516 673.04447012 -148.0625 673 C-149.33295166 672.99508545 -150.60340332 672.9901709 -151.91235352 672.98510742 C-160.84798983 672.87334749 -169.03018764 672.29738814 -177.625 669.6875 C-178.80578125 669.33558594 -179.9865625 668.98367188 -181.203125 668.62109375 C-200.42915975 662.31645248 -215.97843868 649.90022383 -225.921875 632.23046875 C-229.24844069 625.31029654 -231.52307372 618.05952543 -233.625 610.6875 C-233.89441406 609.74390625 -234.16382813 608.8003125 -234.44140625 607.828125 C-238.41410851 590.38157242 -236.65943539 569.67597341 -227.37109375 554.203125 C-207.42337303 525.46412692 -169.71745348 513.57550231 -137.625 504.6875 C-136.64549377 504.41603149 -135.66598755 504.14456299 -134.65679932 503.86486816 C-118.65666969 499.43410022 -102.64419569 495.04878492 -86.625 490.6875 C-84.52177873 466.49322511 -82.51007607 442.2977721 -80.9375 418.0625 C-80.87710541 417.14128357 -80.81671082 416.22006714 -80.75448608 415.27093506 C-80.3508359 409.07793257 -79.97500412 402.88376308 -79.625 396.6875 C-79.57454529 395.80421021 -79.52409058 394.92092041 -79.47210693 394.01086426 C-77.95643783 366.77558893 -78.88344775 339.66797392 -79.9375 312.4375 C-80.00705548 310.62933372 -80.07660497 308.82116722 -80.14614868 307.01300049 C-80.53096084 297.03899278 -80.92655625 287.06544969 -81.32936192 277.09215355 C-81.53900004 271.88496607 -81.73962706 266.67755785 -81.93261719 261.46972656 C-84.41269136 195.07977888 -91.3698107 128.95446724 -99.83984375 63.0859375 C-100.00615799 61.79132095 -100.17247223 60.49670441 -100.34382629 59.16285706 C-100.57569893 57.38720619 -100.57569893 57.38720619 -100.81225586 55.57568359 C-101.01255653 54.04069717 -101.01255653 54.04069717 -101.21690369 52.47470093 C-101.60044174 49.85522709 -102.07928555 47.27754428 -102.625 44.6875 C-135.61797265 53.95361147 -164.35834477 67.54532096 -190.08642578 90.328125 C-191.40119565 91.48976236 -192.72864384 92.63702344 -194.05859375 93.78125 C-235.04890707 129.58561381 -264.13136742 176.97452703 -274.625 230.6875 C-274.86992187 231.91597656 -275.11484375 233.14445313 -275.3671875 234.41015625 C-280.22562821 263.92684743 -277.6755248 302.4597372 -260.15234375 327.65234375 C-259.64832031 328.32394531 -259.14429688 328.99554688 -258.625 329.6875 C-257.72201172 330.91533203 -257.72201172 330.91533203 -256.80078125 332.16796875 C-236.64471456 355.50847685 -196.86093937 358.24850738 -168.625 361.6875 C-163.82321706 374.48480989 -161.79322098 386.25074782 -166.62890625 399.421875 C-171.88192624 410.86409676 -180.39303415 415.95437902 -191.625 420.6875 C-216.63419377 429.2105337 -245.09640561 426.1045618 -268.57763672 414.74267578 C-300.5685338 398.77482599 -321.71586453 369.76982863 -333.12890625 336.4296875 C-337.84814362 321.89573988 -339.85795343 306.81939171 -341.625 291.6875 C-341.7590625 290.5634375 -341.893125 289.439375 -342.03125 288.28125 C-346.57403315 241.33915743 -334.9178211 191.58507724 -313.625 149.6875 C-313.25084961 148.94081055 -312.87669922 148.19412109 -312.49121094 147.42480469 C-302.04876868 126.84886817 -287.36631026 109.16763743 -271.890625 92.19921875 C-270.64518146 90.81849427 -269.40620567 89.43145373 -268.19824219 88.01782227 C-263.33927453 82.34878492 -258.15211122 77.02844754 -252.87451172 71.75170898 C-251.38606763 70.26108385 -249.90582723 68.76262983 -248.42578125 67.26367188 C-242.15219496 60.95372997 -235.59588813 55.231811 -228.625 49.6875 C-227.58552323 48.81262681 -226.55038266 47.93251847 -225.5234375 47.04296875 C-203.4672758 28.09378958 -178.30287331 14.11299373 -150.6875 5.125 C-149.9730069 4.89004822 -149.25851379 4.65509644 -148.52236938 4.4130249 C-109.42159272 -8.41616346 -35.50089772 -31.27460038 0 0 Z M-239.625 67.6875 C-240.66862067 68.63107 -241.71424011 69.57243341 -242.76171875 70.51171875 C-251.21633636 78.12433488 -259.01605312 86.23335415 -266.625 94.6875 C-267.17687988 95.29996582 -267.72875977 95.91243164 -268.29736328 96.54345703 C-313.25771022 146.73827263 -339.89888045 211.58129721 -336.625 279.6875 C-333.96119768 321.39748861 -322.58196604 364.23466812 -290.42724609 393.15136719 C-266.30044022 413.71569427 -239.95607963 420.35806606 -208.625 418.6875 C-196.81709636 417.37075281 -184.46484996 412.95277722 -176.625 403.6875 C-175.92375 403.006875 -175.2225 402.32625 -174.5 401.625 C-169.35733067 393.56815138 -168.72244542 383.88719429 -170.625 374.6875 C-171.54326721 371.98089813 -172.5696588 369.34581891 -173.625 366.6875 C-174.23682129 366.62280518 -174.84864258 366.55811035 -175.47900391 366.49145508 C-206.19942006 363.15973987 -241.90319271 358.0287017 -263.625 333.6875 C-283.44685513 307.45657838 -285.58044211 267.03576494 -281.5 235.5625 C-275.23127299 192.33351381 -254.26598457 147.11560796 -224.1484375 115.359375 C-222.05188948 113.13950063 -220.04188607 110.88572309 -218.0625 108.5625 C-212.17527492 101.78796587 -205.75280565 95.46839042 -198.921875 89.6484375 C-197.1203891 88.11043423 -195.34577876 86.55273846 -193.578125 84.9765625 C-167.42570529 61.83590872 -137.13026513 47.94574382 -103.625 38.6875 C-101.29058997 38.02454922 -98.95788437 37.3558064 -96.625 36.6875 C-96.54778465 37.84900826 -96.54778465 37.84900826 -96.4690094 39.03398132 C-95.87799198 47.34729529 -94.93877514 55.57217835 -93.83984375 63.83203125 C-93.47164663 66.65689739 -93.10713859 69.48223564 -92.74291992 72.30761719 C-92.59976317 73.41610693 -92.59976317 73.41610693 -92.45371437 74.54699039 C-83.0859169 147.25234459 -77.39335259 220.03456162 -74.71330261 293.28128052 C-74.62578932 295.66599139 -74.53703429 298.05065284 -74.44787598 300.43530273 C-73.2581796 332.29996851 -72.11845452 363.94681272 -73.8125 395.8125 C-73.90695908 397.6200325 -73.90695908 397.6200325 -74.00332642 399.46408081 C-75.69616664 431.57353034 -78.15095484 463.63039975 -80.625 495.6875 C-81.54148315 495.90950073 -82.45796631 496.13150146 -83.40222168 496.36022949 C-96.60420502 499.57596702 -109.69984629 503.19270289 -122.79541016 506.81298828 C-125.50629763 507.56178993 -128.2188443 508.30405045 -130.93310547 509.04052734 C-150.38612462 514.3224401 -169.68664072 519.8957501 -187.5 529.5625 C-188.27118164 529.97467773 -189.04236328 530.38685547 -189.83691406 530.81152344 C-197.21785573 534.84888325 -203.97610106 539.55012342 -210.625 544.6875 C-211.34042969 545.20699219 -212.05585938 545.72648438 -212.79296875 546.26171875 C-222.6556818 553.86014447 -227.8018944 566.65841072 -229.625 578.6875 C-231.26915126 603.07003483 -225.78459076 625.40623863 -209.8125 644.4375 C-197.19542411 658.02325734 -177.99592853 665.9705142 -159.61547852 666.82788086 C-123.41632278 667.8512056 -86.23943591 661.52167288 -58.91088867 635.88012695 C-49.42758595 626.76688916 -41.83359092 616.72798254 -34.28027344 606.01464844 C-32.70234076 603.79623335 -31.09576031 601.60246983 -29.4765625 599.4140625 C-12.74896635 576.64179417 -2.62162702 550.61025785 6 523.875 C6.3244812 522.87043762 6.3244812 522.87043762 6.65551758 521.84558105 C8.59160436 515.81529924 10.45368004 509.96627786 11.375 503.6875 C12.20773437 503.60628906 13.04046875 503.52507812 13.8984375 503.44140625 C18.13738023 502.52217485 21.28473903 500.80009356 25 498.625 C25.70656738 498.21797852 26.41313477 497.81095703 27.14111328 497.39160156 C33.40146829 493.7474085 39.4457073 489.85016387 45.375 485.6875 C46.03193848 485.22891602 46.68887695 484.77033203 47.36572266 484.29785156 C58.11678561 476.76650164 68.40395137 468.8037297 78.42578125 460.328125 C80.20872581 458.82745022 82.00682249 457.34816347 83.8125 455.875 C128.51184284 419.02433588 149.76249039 373.02693658 162.3125 317.3125 C162.52422852 316.39194824 162.73595703 315.47139648 162.95410156 314.52294922 C164.46154588 307.49805326 166.18691826 299.44981187 162.6875 292.8125 C158.32472876 286.91686318 153.52604296 284.07703915 146.375 282.6875 C141.35029391 282.42618542 137.79935766 282.47905489 133.86572266 285.81640625 C131.06103264 289.04941494 130.23258335 291.31855167 129.1640625 295.4375 C128.99055771 296.0836879 128.81705292 296.72987579 128.63829041 297.39564514 C128.2693239 298.7749897 127.90765598 300.15630426 127.55276489 301.53933716 C126.61572523 305.18087411 125.61738138 308.80575175 124.62890625 312.43359375 C124.43483688 313.15179794 124.24076752 313.87000214 124.04081726 314.60997009 C110.3570353 365.11206905 83.07283362 412.28793676 41.375 444.6875 C40.28854629 445.55273763 39.20263011 446.41865054 38.1171875 447.28515625 C32.15212473 452.00580291 26.18902654 456.25240289 19.375 459.6875 C19.49182129 459.07036133 19.60864258 458.45322266 19.72900391 457.81738281 C25.33560345 427.65508772 28.18764953 397.26199303 30.375 366.6875 C30.43665344 365.82966919 30.49830688 364.97183838 30.56182861 364.0880127 C31.39870583 352.29552072 32.00548561 340.50391399 32.375 328.6875 C32.39904907 327.93650024 32.42309814 327.18550049 32.44787598 326.41174316 C33.65526166 286.59803942 30.83608473 246.69044005 28.75288486 206.94556141 C28.48471028 201.82278998 28.22449399 196.69972494 27.97167969 191.57617188 C26.00844511 151.91522818 21.0049248 113.3602213 14.49755859 74.19677734 C12.64221536 62.98411508 10.89539532 51.81083832 9.77685547 40.49853516 C8.29712475 26.46536592 5.72436248 13.50782774 -4.75 3.1875 C-65.89072545 -45.93233705 -192.83718098 23.90612719 -239.625 67.6875 Z " fill="#000000" transform="translate(372.625,32.3125)"/>
<path d="M0 0 C3.43595166 1.52708963 6.11912454 3.59927045 9 6 C8.49259538 10.39750672 5.91706686 12.86948922 3 16 C2.34 16 1.68 16 1 16 C1.165 15.38125 1.33 14.7625 1.5 14.125 C2.07634644 12.03936614 2.07634644 12.03936614 2 10 C-76.57157115 18.27773125 -154.67736654 37.23681696 -218 87 C-218.81017578 87.63228516 -218.81017578 87.63228516 -219.63671875 88.27734375 C-236.56813555 101.62629453 -251.60426051 117.38709432 -264 135 C-264.42893555 135.58958496 -264.85787109 136.17916992 -265.29980469 136.78662109 C-287.83935857 167.77193 -300.69205975 205.13360045 -305 243 C-305.0942627 243.82669189 -305.18852539 244.65338379 -305.28564453 245.50512695 C-311.64864992 307.49036106 -293.75384827 372.89760558 -254.34472656 421.38964844 C-231.2292509 449.07114398 -202.78472841 467.21613457 -167 473 C-167 473.99 -167 474.98 -167 476 C-172.65523438 476.24783896 -177.48549423 475.40732675 -182.9375 473.9375 C-184.18321777 473.60250488 -184.18321777 473.60250488 -185.45410156 473.26074219 C-203.40424206 468.22318844 -219.93720427 459.23984072 -234 447 C-234.80695313 446.30261719 -235.61390625 445.60523438 -236.4453125 444.88671875 C-239.0024902 442.63014971 -241.50793103 440.32821734 -244 438 C-244.86367187 437.20207031 -245.72734375 436.40414063 -246.6171875 435.58203125 C-264.06647504 418.86611957 -276.94217046 397.83410814 -287 376 C-287.32564941 375.29891113 -287.65129883 374.59782227 -287.98681641 373.87548828 C-314.65173593 315.72230202 -317.77344263 247.2001828 -296 187 C-285.56753746 159.79174095 -270.86050112 134.74666466 -251.08984375 113.2734375 C-249.14128585 111.15369788 -247.25242667 108.99516531 -245.375 106.8125 C-239.70578733 100.34079604 -233.65437389 94.77145319 -226.94140625 89.3828125 C-224.98894799 87.80113981 -223.05866854 86.19166873 -221.15234375 84.5546875 C-213.50856798 77.9911223 -205.50656916 72.37847468 -197 67 C-196.41943848 66.63052246 -195.83887695 66.26104492 -195.24072266 65.88037109 C-143.11020189 32.94571301 -82.84613956 16.6031327 -22.1875 8.625 C-20.29390747 8.37327026 -20.29390747 8.37327026 -18.36206055 8.11645508 C-11.20066628 7.22434996 -4.21569242 6.78388941 3 7 C2.505 6.401875 2.01 5.80375 1.5 5.1875 C0 3 0 3 0 0 Z " fill="#000000" transform="translate(310,0)"/>
<path d="M0 0 C3.95820859 0.56545837 6.6659053 1.80902348 10 4 C9.43697042 7.94120709 8.3208055 10.7508723 6 14 C5.34 14 4.68 14 4 14 C4.33 12.35 4.66 10.7 5 9 C-33.33117066 16.23013099 -82.63652451 25.71571148 -106.3125 59.9375 C-124.95169368 89.12687466 -143.28727094 135.63769089 -136.9375 170.875 C-132.27434671 190.52531109 -120.16968334 202.45070676 -103.7265625 213.125 C-99.52990704 215.46617113 -95.19356507 216.28752517 -90.5 217.125 C-89.62142334 217.29040283 -88.74284668 217.45580566 -87.83764648 217.6262207 C-80.25645372 219.02335478 -72.66550894 220.16869481 -65 221 C-63.97390625 221.11214844 -62.9478125 221.22429687 -61.890625 221.33984375 C-17.38729229 225.46261442 28.66030894 215.28092009 64 187 C66.64783827 184.74470838 69.23071934 182.44714628 71.7734375 180.07421875 C73.79952496 178.18675832 75.87896905 176.40379289 78 174.625 C106.46567017 149.63214159 124.2046926 112.7137074 137.74951172 78.15087891 C139.76504505 73.07230157 141.87942472 68.03544762 144 63 C144.66 63.33 145.32 63.66 146 64 C144.58179434 71.55055863 142.10939798 78.34388675 139.1875 85.4375 C138.70466553 86.61183594 138.22183105 87.78617188 137.72436523 88.99609375 C127.38537617 113.71854308 115.00492037 137.20434385 98 158 C97.56864746 158.53286621 97.13729492 159.06573242 96.69287109 159.61474609 C86.08639085 172.67632254 74.59261822 184.05643157 61 194 C60.13665039 194.63784424 60.13665039 194.63784424 59.25585938 195.28857422 C19.15132566 224.5567819 -31.30643579 230.15501362 -79.30859375 223.1171875 C-81.33192648 222.79386402 -83.35413148 222.46338415 -85.375 222.125 C-86.29466553 221.97579102 -87.21433105 221.82658203 -88.16186523 221.67285156 C-105.2153286 218.62742343 -121.07015757 208.48144304 -131.20068359 194.32177734 C-144.0523235 174.87314342 -143.19318668 154.04318852 -139 132 C-133.29617301 105.57830408 -122.23098461 69.65833982 -103 50 C-102.35160156 49.26523437 -101.70320313 48.53046875 -101.03515625 47.7734375 C-78.35688472 23.19475216 -42.20465362 15.76005823 -11.09350586 8.23681641 C-10.23578583 8.02871841 -9.3780658 7.82062042 -8.49435425 7.60621643 C-6.86340587 7.21177462 -5.23161365 6.82080194 -3.59890747 6.43370056 C-0.0039559 5.81600153 -0.0039559 5.81600153 3 4 C2.01 3.34 1.02 2.68 0 2 C0 1.34 0 0.68 0 0 Z " fill="#000000" transform="translate(262,493)"/>
<path d="M0 0 C-1.45074271 8.41553718 -3.77807063 16.52288804 -6.25 24.6875 C-6.45008667 25.35197144 -6.65017334 26.01644287 -6.85632324 26.7010498 C-9.76957704 36.34695002 -12.84826669 45.80422056 -17 55 C-17.35964844 55.87398437 -17.71929687 56.74796875 -18.08984375 57.6484375 C-23.61559397 70.11578852 -35.24523087 82.97085592 -47.4375 89 C-56.43082116 92.40132018 -68.31556402 93.0263059 -77.3125 89.25 C-78.56598961 88.54139963 -79.80020929 87.79614882 -81 87 C-81.9075 86.46375 -82.815 85.9275 -83.75 85.375 C-90.68473343 78.0550036 -92.19708164 69.46348549 -92.25 59.8125 C-92.270625 58.89146484 -92.29125 57.97042969 -92.3125 57.02148438 C-92.37569604 45.89108101 -88.55111632 39.07983003 -81 31 C-73.95066052 24.61877974 -65.58456432 20.99282354 -56.64453125 18.046875 C-55.8683696 17.78527084 -55.09220795 17.52366669 -54.29252625 17.25413513 C-51.80076866 16.41462275 -49.30665653 15.58235461 -46.8125 14.75 C-35.12475393 10.82257193 -23.47226761 6.88402746 -12.06567383 2.18457031 C-7.86184639 0.4976812 -4.62210749 -0.37298652 0 0 Z M-18.12890625 10.8515625 C-18.95140366 11.14807709 -19.77390106 11.44459167 -20.62132263 11.75009155 C-23.26946936 12.70541378 -25.91602621 13.66505419 -28.5625 14.625 C-31.14591516 15.55909157 -33.72965609 16.4922751 -36.31355286 17.42503357 C-38.02407771 18.04282399 -39.73427299 18.66152768 -41.44413757 19.28114319 C-45.58501569 20.77943718 -49.73046733 22.26045263 -53.8918457 23.70092773 C-54.66322372 23.96880096 -55.43460175 24.23667419 -56.22935486 24.51266479 C-57.66826066 25.01076082 -59.10849223 25.50505123 -60.55030823 25.99465942 C-71.42117224 29.76158303 -78.3827345 36.44646187 -84.9375 45.75 C-87.92773173 54.89659116 -87.88537919 65.11744412 -84.1484375 74.03125 C-81.64461662 78.83532909 -78.4825402 81.68977045 -73.75 84.1875 C-64.68317352 86.8663351 -56.09437021 86.24478932 -47.5625 82.0625 C-22.88600646 67.21292867 -15.02178997 35.98601674 -8 10 C-8 9.34 -8 8.68 -8 8 C-11.5412698 8 -14.8287201 9.65004424 -18.12890625 10.8515625 Z " fill="#000000" transform="translate(287,567)"/>
<path d="M0 0 C0.66 0.33 1.32 0.66 2 1 C2.53507996 3.5344696 2.53507996 3.5344696 2.94213867 6.97924805 C3.09984238 8.27755554 3.25754608 9.57586304 3.42002869 10.91351318 C3.58629088 12.3628827 3.75226143 13.81228569 3.91796875 15.26171875 C4.09707329 16.77166566 4.27686244 18.28153149 4.45729065 19.7913208 C4.94483091 23.89611702 5.41951238 28.00230533 5.89085388 32.10898972 C6.18783183 34.69038434 6.48790393 37.27140118 6.78894043 39.85232544 C13.17352795 94.63538455 18.68869043 149.51528215 22.74285889 204.52282715 C22.99106423 207.87916673 23.24551861 211.23498893 23.50048828 214.59082031 C25.57830517 242.35409466 26.28021235 270.05409118 26.30962753 297.8850441 C26.31246984 300.34885581 26.31799807 302.81265207 26.32363892 305.27645874 C26.33057634 309.18604627 26.32450718 313.09542516 26.30839539 317.0049839 C26.30342797 318.44413345 26.30137888 319.8832969 26.30265808 321.32245445 C26.30476313 331.06887292 25.50519482 340.38846577 24 350 C25.98 349.01 27.96 348.02 30 347 C30 348.32 30 349.64 30 351 C26.37313728 353.96743313 24.7546322 355 20 355 C18.48046875 353.57421875 18.48046875 353.57421875 17.1875 351.6875 C16.74792969 351.07261719 16.30835938 350.45773437 15.85546875 349.82421875 C15 348 15 348 16 345 C16.66 345 17.32 345 18 345 C18.99 346.485 18.99 346.485 20 348 C23.26636606 341.46726787 22.27278706 331.74833073 22.5625 324.5625 C22.60568359 323.62212891 22.64886719 322.68175781 22.69335938 321.71289062 C23.43203748 303.94944096 22.90839319 286.1948462 22.25 268.4375 C22.20709839 267.277948 22.16419678 266.118396 22.11999512 264.92370605 C19.72494085 201.72552264 13.66134519 138.73290358 6.875 75.875 C6.7923439 75.10784668 6.70968781 74.34069336 6.62452698 73.55029297 C5.12989325 59.68710945 3.6315073 45.82515719 1.86816406 31.99316406 C1.77486628 31.25955973 1.68156849 30.52595539 1.5854435 29.77012062 C1.140301 26.28072729 0.68838938 22.7924153 0.22506714 19.3053894 C-0.57113901 13.16523344 -1.33708658 7.19456282 -1 1 C-0.67 0.67 -0.34 0.34 0 0 Z " fill="#000000" transform="translate(410,42)"/>
<path d="M0 0 C1.60546875 1.75 1.60546875 1.75 3.1875 4 C3.71730469 4.7425 4.24710937 5.485 4.79296875 6.25 C5.19128906 6.8275 5.58960938 7.405 6 8 C5.67 8.66 5.34 9.32 5 10 C1.125 8.25 1.125 8.25 0 6 C-0.25652344 7.12792969 -0.51304687 8.25585938 -0.77734375 9.41796875 C-11.37761878 53.83589307 -39.78680051 92.96973556 -68 128 C-68.99 127.67 -69.98 127.34 -71 127 C-68.25971378 122.7545812 -65.30654561 118.7402467 -62.22924805 114.73364258 C-39.91730466 85.60032558 -18.31684551 53.61229533 -7.125 18.375 C-6.90948486 17.69953125 -6.69396973 17.0240625 -6.47192383 16.328125 C-5.46268992 13.02228795 -5 10.49844237 -5 7 C-6.32 7.66 -7.64 8.32 -9 9 C-9 7.68 -9 6.36 -9 5 C-3.88636364 0 -3.88636364 0 0 0 Z " fill="#000000" transform="translate(486,328)"/>
<path d="M0 0 C1.4540625 0.0309375 1.4540625 0.0309375 2.9375 0.0625 C5.0625 4.6875 5.0625 4.6875 3.9375 8.0625 C4.26300502 9.73071323 4.59596063 11.39749557 4.9375 13.0625 C4.6075 13.7225 4.2775 14.3825 3.9375 15.0625 C1.125 15.9375 1.125 15.9375 -2.0625 16.0625 C-4.4375 14.125 -4.4375 14.125 -6.0625 12.0625 C-2.43923261 10.8547442 -1.42103631 11.51938872 1.9375 13.0625 C1.9375 11.7425 1.9375 10.4225 1.9375 9.0625 C0.6175 9.0625 -0.7025 9.0625 -2.0625 9.0625 C-2.0625 8.0725 -2.0625 7.0825 -2.0625 6.0625 C-0.7425 6.0625 0.5775 6.0625 1.9375 6.0625 C1.6075 5.0725 1.2775 4.0825 0.9375 3.0625 C-1.0425 3.7225 -3.0225 4.3825 -5.0625 5.0625 C-3.9375 0.08035714 -3.9375 0.08035714 0 0 Z " fill="#000000" transform="translate(375.0625,654.9375)"/>
<path d="M0 0 C3.0625 0.1875 3.0625 0.1875 5.0625 2.1875 C4.90004442 5.92397845 4.47466356 7.71288742 2 10.5625 C1.360625 11.09875 0.72125 11.635 0.0625 12.1875 C1.7125 12.5175 3.3625 12.8475 5.0625 13.1875 C5.0625 13.8475 5.0625 14.5075 5.0625 15.1875 C1.7625 15.1875 -1.5375 15.1875 -4.9375 15.1875 C-2.9375 11.1875 -2.9375 11.1875 -0.8125 8.625 C1.36735538 6.30372611 1.36735538 6.30372611 1.0625 3.1875 C0.4025 3.1875 -0.2575 3.1875 -0.9375 3.1875 C-1.2675 3.8475 -1.5975 4.5075 -1.9375 5.1875 C-2.9275 5.1875 -3.9175 5.1875 -4.9375 5.1875 C-3.82120474 0.24390669 -3.82120474 0.24390669 0 0 Z " fill="#000000" transform="translate(447.9375,189.8125)"/>
<path d="M0 0 C0.99 0 1.98 0 3 0 C3 3.3 3 6.6 3 10 C3.66 10 4.32 10 5 10 C5 10.66 5 11.32 5 12 C4.34 12 3.68 12 3 12 C3 12.99 3 13.98 3 15 C2.34 15 1.68 15 1 15 C1 14.01 1 13.02 1 12 C-1.31 12 -3.62 12 -6 12 C-5.56629155 7.2292071 -3.35665609 3.36635741 0 0 Z M0 4 C-0.99 5.98 -1.98 7.96 -3 10 C-1.68 10 -0.36 10 1 10 C1 8.02 1 6.04 1 4 C0.67 4 0.34 4 0 4 Z " fill="#000000" transform="translate(462,354)"/>
<path d="M0 0 C-0.18359375 1.890625 -0.18359375 1.890625 -1 4 C-3.28515625 5.046875 -3.28515625 5.046875 -6.0625 5.75 C-7.44115234 6.11351562 -7.44115234 6.11351562 -8.84765625 6.484375 C-9.55792969 6.65453125 -10.26820313 6.8246875 -11 7 C-11.33 9.31 -11.66 11.62 -12 14 C-12.99 13.67 -13.98 13.34 -15 13 C-14.34 9.7 -13.68 6.4 -13 3 C-12.113125 2.87625 -11.22625 2.7525 -10.3125 2.625 C-6.80252696 1.96274094 -3.5219389 0 0 0 Z " fill="#000000" transform="translate(356,519)"/>
<path d="M0 0 C0 4.95 0 9.9 0 15 C-0.99 15 -1.98 15 -3 15 C-3 11.37 -3 7.74 -3 4 C-3.99 4.33 -4.98 4.66 -6 5 C-5.625 3.0625 -5.625 3.0625 -5 1 C-3 0 -3 0 0 0 Z " fill="#000000" transform="translate(362,655)"/>
<path d="M0 0 C0 4.95 0 9.9 0 15 C-0.99 15 -1.98 15 -3 15 C-3 11.37 -3 7.74 -3 4 C-3.99 4.33 -4.98 4.66 -6 5 C-5.625 3.0625 -5.625 3.0625 -5 1 C-3 0 -3 0 0 0 Z " fill="#000000" transform="translate(448,354)"/>
<path d="M0 0 C0 4.95 0 9.9 0 15 C-0.99 15 -1.98 15 -3 15 C-3 11.37 -3 7.74 -3 4 C-3.99 4.33 -4.98 4.66 -6 5 C-5.625 3.0625 -5.625 3.0625 -5 1 C-3 0 -3 0 0 0 Z " fill="#000000" transform="translate(435,190)"/>
<path d="M0 0 C0 4.95 0 9.9 0 15 C-0.99 15 -1.98 15 -3 15 C-3 11.37 -3 7.74 -3 4 C-3.99 4.33 -4.98 4.66 -6 5 C-5.625 3.0625 -5.625 3.0625 -5 1 C-3 0 -3 0 0 0 Z " fill="#000000" transform="translate(30,117)"/>
<path d="M0 0 C0 4.95 0 9.9 0 15 C-0.66 15 -1.32 15 -2 15 C-2.33 11.37 -2.66 7.74 -3 4 C-3.99 4.33 -4.98 4.66 -6 5 C-6 4.01 -6 3.02 -6 2 C-3 0 -3 0 0 0 Z " fill="#000000" transform="translate(42,117)"/>
<path d="M0 0 C0.99 0.33 1.98 0.66 3 1 C1.55873214 4.36295835 -0.20592655 6.62927102 -3 9 C-3.99 9 -4.98 9 -6 9 C-5.52797514 4.75177626 -3.03344482 2.80010291 0 0 Z " fill="#000000" transform="translate(153,110)"/>
<path d="M0 0 C0.99 0.33 1.98 0.66 3 1 C1.64458676 5.06623972 -0.57009469 6.53046818 -4 9 C-4.99 8.67 -5.98 8.34 -7 8 C-5.64458676 3.93376028 -3.42990531 2.46953182 0 0 Z " fill="#000000" transform="translate(459,458)"/>
<path d="M0 0 C0 0.99 0 1.98 0 3 C-3.87684087 4.19287411 -6.91621923 5 -11 5 C-11 4.01 -11 3.02 -11 2 C-7.12315913 0.80712589 -4.08378077 0 0 0 Z " fill="#000000" transform="translate(259,550)"/>
<path d="M0 0 C0 0.66 0 1.32 0 2 C-1.26839526 2.50615298 -2.53983102 3.00469099 -3.8125 3.5 C-4.87404297 3.91765625 -4.87404297 3.91765625 -5.95703125 4.34375 C-8 5 -8 5 -11 5 C-11 4.01 -11 3.02 -11 2 C-9.73392393 1.46770674 -8.46189588 0.94955456 -7.1875 0.4375 C-6.47980469 0.14746094 -5.77210938 -0.14257812 -5.04296875 -0.44140625 C-3 -1 -3 -1 0 0 Z " fill="#000000" transform="translate(318,534)"/>
<path d="M0 0 C0 0.66 0 1.32 0 2 C-1.42578125 3.2890625 -1.42578125 3.2890625 -3.3125 4.625 C-3.92738281 5.07101562 -4.54226563 5.51703125 -5.17578125 5.9765625 C-7 7 -7 7 -10 7 C-10 6.01 -10 5.02 -10 4 C-8.57421875 2.578125 -8.57421875 2.578125 -6.6875 1.25 C-6.07261719 0.80140625 -5.45773437 0.3528125 -4.82421875 -0.109375 C-3 -1 -3 -1 0 0 Z " fill="#000000" transform="translate(446,472)"/>
<path d="M0 0 C-0.21484375 1.890625 -0.21484375 1.890625 -1 4 C-3.06640625 5.046875 -3.06640625 5.046875 -5.5625 5.75 C-6.80193359 6.11351563 -6.80193359 6.11351563 -8.06640625 6.484375 C-9.02353516 6.73960938 -9.02353516 6.73960938 -10 7 C-10.33 6.01 -10.66 5.02 -11 4 C-9.5437455 3.32880451 -8.08492133 2.66318193 -6.625 2 C-5.81289062 1.62875 -5.00078125 1.2575 -4.1640625 0.875 C-2 0 -2 0 0 0 Z " fill="#000000" transform="translate(224,66)"/>
<path d="M0 0 C3.74633486 1.24877829 5.41041797 3.06047445 8 6 C8 6.99 8 7.98 8 9 C3.58110387 7.64978174 1.65654657 5.73884332 -1 2 C-0.67 1.34 -0.34 0.68 0 0 Z " fill="#000000" transform="translate(180,659)"/>
<path d="M0 0 C0.99 0.33 1.98 0.66 3 1 C2.01 3.97 1.02 6.94 0 10 C-1.32 10 -2.64 10 -4 10 C-2.68 6.7 -1.36 3.4 0 0 Z " fill="#000000" transform="translate(177,603)"/>
<path d="M0 0 C0.99 0.33 1.98 0.66 3 1 C2.34 3.97 1.68 6.94 1 10 C-0.32 10.33 -1.64 10.66 -3 11 C-2.01 7.37 -1.02 3.74 0 0 Z " fill="#000000" transform="translate(333,560)"/>
<path d="M0 0 C-0.33 1.32 -0.66 2.64 -1 4 C-3.97 4.66 -6.94 5.32 -10 6 C-10.33 5.01 -10.66 4.02 -11 3 C-9.54293274 2.49632243 -8.08429904 1.99717444 -6.625 1.5 C-5.81289063 1.2215625 -5.00078125 0.943125 -4.1640625 0.65625 C-2 0 -2 0 0 0 Z " fill="#000000" transform="translate(298,539)"/>
<path d="M0 0 C-0.33 0.99 -0.66 1.98 -1 3 C-3.06640625 3.94921875 -3.06640625 3.94921875 -5.5625 4.6875 C-6.38878906 4.93886719 -7.21507812 5.19023438 -8.06640625 5.44921875 C-8.70449219 5.63097656 -9.34257812 5.81273437 -10 6 C-10 4.68 -10 3.36 -10 2 C-6.38026598 0.68373308 -3.90432869 0 0 0 Z " fill="#000000" transform="translate(337,527)"/>
<path d="M0 0 C0.66 0.33 1.32 0.66 2 1 C1.67 1.99 1.34 2.98 1 4 C-1.06640625 4.94921875 -1.06640625 4.94921875 -3.5625 5.6875 C-4.38878906 5.93886719 -5.21507812 6.19023438 -6.06640625 6.44921875 C-6.70449219 6.63097656 -7.34257812 6.81273437 -8 7 C-8.33 6.01 -8.66 5.02 -9 4 C-7.54618103 3.30300448 -6.08677047 2.61766134 -4.625 1.9375 C-3.40683594 1.36322266 -3.40683594 1.36322266 -2.1640625 0.77734375 C-1.44992187 0.52082031 -0.73578125 0.26429688 0 0 Z " fill="#000000" transform="translate(373,511)"/>
<path d="M0 0 C0.53625 0.226875 1.0725 0.45375 1.625 0.6875 C-1.09978774 4.05341427 -4.44356792 5.12976276 -8.375 6.6875 C-8.375 5.3675 -8.375 4.0475 -8.375 2.6875 C-2.95961538 -0.38942308 -2.95961538 -0.38942308 0 0 Z " fill="#000000" transform="translate(392.375,503.3125)"/>
<path d="M0 0 C0.99 0.33 1.98 0.66 3 1 C0.68462045 4.72114571 -1.28579473 7.61229661 -5 10 C-5 4.69520066 -3.4637943 3.81017373 0 0 Z " fill="#000000" transform="translate(487,429)"/>
<path d="M0 0 C2.74277578 3.19990508 4.6302836 6.00499382 6 10 C5.01 10 4.02 10 3 10 C1.61328125 8.5390625 1.61328125 8.5390625 0.3125 6.625 C-0.34298828 5.68527344 -0.34298828 5.68527344 -1.01171875 4.7265625 C-2 3 -2 3 -2 1 C-1.34 0.67 -0.68 0.34 0 0 Z " fill="#000000" transform="translate(76,370)"/>
<path d="M0 0 C0.99 0 1.98 0 3 0 C3.99 3.3 4.98 6.6 6 10 C4.68 10 3.36 10 2 10 C1.34 6.7 0.68 3.4 0 0 Z " fill="#000000" transform="translate(67,352)"/>
<path d="M0 0 C0.99 0.33 1.98 0.66 3 1 C2.01 4.3 1.02 7.6 0 11 C-0.99 11 -1.98 11 -3 11 C-2.44894091 7.0507432 -1.61064629 3.65079826 0 0 Z " fill="#000000" transform="translate(87,212)"/>
<path d="M0 0 C0.66 0.33 1.32 0.66 2 1 C0.6062718 5.43458973 -1.60582235 7.87378374 -5 11 C-5.68359375 9.234375 -5.68359375 9.234375 -6 7 C-4.78515625 5.078125 -4.78515625 5.078125 -3.0625 3.25 C-2.49660156 2.63640625 -1.93070312 2.0228125 -1.34765625 1.390625 C-0.90292969 0.93171875 -0.45820312 0.4728125 0 0 Z " fill="#000000" transform="translate(127,140)"/>
<path d="M0 0 C-0.33589994 3.13506611 -1.02665172 4.025249 -3.375 6.25 C-6 8 -6 8 -9 8 C-8.66410006 4.86493389 -7.97334828 3.974751 -5.625 1.75 C-3 0 -3 0 0 0 Z " fill="#000000" transform="translate(171,97)"/>
<path d="M0 0 C0 0.99 0 1.98 0 3 C-2.97 4.65 -5.94 6.3 -9 8 C-9 6.68 -9 5.36 -9 4 C-4 0 -4 0 0 0 Z " fill="#000000" transform="translate(188,85)"/>
<path d="M0 0 C0.99 0.33 1.98 0.66 3 1 C0.34345343 4.73884332 -1.58110387 6.64978174 -6 8 C-6.33 7.01 -6.66 6.02 -7 5 C-5.90554162 4.13342884 -4.79902219 3.28207276 -3.6875 2.4375 C-3.07261719 1.96183594 -2.45773437 1.48617187 -1.82421875 0.99609375 C-1.22222656 0.66738281 -0.62023437 0.33867188 0 0 Z " fill="#000000" transform="translate(277,664)"/>
<path d="M0 0 C0.99 0.33 1.98 0.66 3 1 C1.7508258 4.45925163 0.32472205 7.14693203 -2 10 C-2.99 9.67 -3.98 9.34 -5 9 C-3.35 6.03 -1.7 3.06 0 0 Z " fill="#000000" transform="translate(302,633)"/>
<path d="M0 0 C0.99 0 1.98 0 3 0 C2.60404157 1.48484412 2.18249294 2.9628831 1.75 4.4375 C1.51796875 5.26121094 1.2859375 6.08492187 1.046875 6.93359375 C0 9 0 9 -2.109375 9.78515625 C-2.73328125 9.85605469 -3.3571875 9.92695312 -4 10 C-3.52449439 8.51965236 -3.04448784 7.04074979 -2.5625 5.5625 C-2.29566406 4.73878906 -2.02882813 3.91507813 -1.75390625 3.06640625 C-1 1 -1 1 0 0 Z " fill="#000000" transform="translate(320,598)"/>
<path d="M0 0 C0.66 0.33 1.32 0.66 2 1 C1 4 1 4 -0.84765625 5.16796875 C-1.57855469 5.50441406 -2.30945313 5.84085938 -3.0625 6.1875 C-3.79597656 6.53167969 -4.52945313 6.87585938 -5.28515625 7.23046875 C-6.13400391 7.61138672 -6.13400391 7.61138672 -7 8 C-7 6.68 -7 5.36 -7 4 C-1.7265625 0.77734375 -1.7265625 0.77734375 0 0 Z " fill="#000000" transform="translate(220,563)"/>
<path d="M0 0 C0 0.66 0 1.32 0 2 C-3.87684087 3.19287411 -6.91621923 4 -11 4 C-11 3.01 -11 2.02 -11 1 C-3.57142857 -1.42857143 -3.57142857 -1.42857143 0 0 Z " fill="#000000" transform="translate(279,546)"/>
<path d="M0 0 C-0.1875 1.8125 -0.1875 1.8125 -1 4 C-4.34811134 6.53370588 -5.70124217 7 -10 7 C-8.60449526 2.81348579 -4.64858615 0 0 0 Z " fill="#000000" transform="translate(411,493)"/>
<path d="M0 0 C-1.45124634 3.82601307 -3.35774704 5.22329124 -7 7 C-7.99 7 -8.98 7 -10 7 C-10 6.01 -10 5.02 -10 4 C-3.375 0 -3.375 0 0 0 Z " fill="#000000" transform="translate(429,483)"/>
<path d="M0 0 C0.99 0 1.98 0 3 0 C2.67 3.63 2.34 7.26 2 11 C1.01 11 0.02 11 -1 11 C-0.67 7.37 -0.34 3.74 0 0 Z " fill="#000000" transform="translate(359,424)"/>
<path d="M0 0 C3.67268615 0.54410165 6.74104373 2.29645468 10 4 C9.67 4.99 9.34 5.98 9 7 C4.56909529 5.79157144 2.01887244 4.48331435 -1 1 C-0.67 0.67 -0.34 0.34 0 0 Z " fill="#000000" transform="translate(103,399)"/>
<path d="M0 0 C0.99 0 1.98 0 3 0 C3 3.63 3 7.26 3 11 C2.01 11 1.02 11 0 11 C0 7.37 0 3.74 0 0 Z " fill="#000000" transform="translate(365,325)"/>
<path d="M0 0 C0.99 0 1.98 0 3 0 C3 3.63 3 7.26 3 11 C2.01 11 1.02 11 0 11 C0 7.37 0 3.74 0 0 Z " fill="#000000" transform="translate(365,305)"/>
<path d="M0 0 C0.99 0 1.98 0 3 0 C3 3.63 3 7.26 3 11 C2.01 11 1.02 11 0 11 C0 7.37 0 3.74 0 0 Z " fill="#000000" transform="translate(68,292)"/>
<path d="M0 0 C0.99 0 1.98 0 3 0 C3 3.63 3 7.26 3 11 C2.01 11 1.02 11 0 11 C0 7.37 0 3.74 0 0 Z " fill="#000000" transform="translate(365,285)"/>
<path d="M0 0 C0.99 0 1.98 0 3 0 C3 3.63 3 7.26 3 11 C2.01 11 1.02 11 0 11 C0 7.37 0 3.74 0 0 Z " fill="#000000" transform="translate(365,265)"/>
<path d="M0 0 C0.99 0.33 1.98 0.66 3 1 C1.8905928 4.48670834 0.73662334 7.77484237 -1 11 C-1.99 10.67 -2.98 10.34 -4 10 C-2.68 6.7 -1.36 3.4 0 0 Z " fill="#000000" transform="translate(95,193)"/>
<path d="M0 0 C0.99 0 1.98 0 3 0 C3.33 3.63 3.66 7.26 4 11 C3.01 11 2.02 11 1 11 C0.67 7.37 0.34 3.74 0 0 Z " fill="#000000" transform="translate(360,186)"/>
<path d="M0 0 C0.99 0.33 1.98 0.66 3 1 C2.07456291 2.34173403 1.13422595 3.67320159 0.1875 5 C-0.33457031 5.7425 -0.85664063 6.485 -1.39453125 7.25 C-1.92433594 7.8275 -2.45414063 8.405 -3 9 C-3.99 9 -4.98 9 -6 9 C-4.68775452 5.06326356 -3.08089673 2.77280706 0 0 Z " fill="#000000" transform="translate(139,125)"/>
<path d="M0 0 C0.99 0 1.98 0 3 0 C3.33 3.63 3.66 7.26 4 11 C3.01 11 2.02 11 1 11 C0.67 7.37 0.34 3.74 0 0 Z " fill="#000000" transform="translate(350,107)"/>
<path d="M0 0 C0.515625 0.2475 1.03125 0.495 1.5625 0.75 C-0.80694013 3.36885488 -3.27483102 5.16866551 -6.4375 6.75 C-7.4275 6.42 -8.4175 6.09 -9.4375 5.75 C-9.4375 5.09 -9.4375 4.43 -9.4375 3.75 C-3.0375 -0.31153846 -3.0375 -0.31153846 0 0 Z " fill="#000000" transform="translate(204.4375,75.25)"/>
<path d="M0 0 C0 0.66 0 1.32 0 2 C-3.87684087 3.19287411 -6.91621923 4 -11 4 C-11 3.01 -11 2.02 -11 1 C-3.57142857 -1.42857143 -3.57142857 -1.42857143 0 0 Z " fill="#000000" transform="translate(244,61)"/>
<path d="M0 0 C1.45880109 0.14107747 2.91703551 0.28802415 4.375 0.4375 C5.59316406 0.55931641 5.59316406 0.55931641 6.8359375 0.68359375 C9 1 9 1 11 2 C10.67 2.99 10.34 3.98 10 5 C6.7 4.34 3.4 3.68 0 3 C0 2.01 0 1.02 0 0 Z " fill="#000000" transform="translate(214,679)"/>
<path d="M0 0 C0 0.99 0 1.98 0 3 C-6.625 6 -6.625 6 -10 6 C-10 5.01 -10 4.02 -10 3 C-3.375 0 -3.375 0 0 0 Z " fill="#000000" transform="translate(263,675)"/>
<path d="M0 0 C0.66 0.33 1.32 0.66 2 1 C1.82374165 3.37948772 1.30280227 4.70225849 -0.40234375 6.37890625 C-1.90649092 7.62115486 -3.45129851 8.81376056 -5 10 C-5 4.69520066 -3.4637943 3.81017373 0 0 Z " fill="#000000" transform="translate(291,649)"/>
<path d="M0 0 C0.99 0 1.98 0 3 0 C2.67 3.63 2.34 7.26 2 11 C1.01 11 0.02 11 -1 11 C-1.125 3.375 -1.125 3.375 0 0 Z " fill="#000000" transform="translate(171,622)"/>
<path d="M0 0 C0.99 0.33 1.98 0.66 3 1 C1.44499019 4.81684226 -1.03595495 7.19195732 -4 10 C-4.33 9.01 -4.66 8.02 -5 7 C-4.00390625 5.17578125 -4.00390625 5.17578125 -2.5625 3.3125 C-2.08941406 2.68988281 -1.61632812 2.06726563 -1.12890625 1.42578125 C-0.75636719 0.95527344 -0.38382813 0.48476563 0 0 Z " fill="#000000" transform="translate(188,587)"/>
<path d="M0 0 C0.99 0.33 1.98 0.66 3 1 C2.01 4.3 1.02 7.6 0 11 C-0.99 10.67 -1.98 10.34 -3 10 C-2.01 6.7 -1.02 3.4 0 0 Z " fill="#000000" transform="translate(327,579)"/>
<path d="M0 0 C-0.33645789 3.14027363 -1.05236086 4.05098295 -3.375 6.3125 C-4.674375 7.1478125 -4.674375 7.1478125 -6 8 C-6.99 7.67 -7.98 7.34 -9 7 C-9 6.34 -9 5.68 -9 5 C-3.64285714 0 -3.64285714 0 0 0 Z " fill="#000000" transform="translate(205,574)"/>
<path d="M0 0 C-0.33 0.99 -0.66 1.98 -1 3 C-3.06640625 3.73046875 -3.06640625 3.73046875 -5.5625 4.1875 C-6.38878906 4.34605469 -7.21507812 4.50460937 -8.06640625 4.66796875 C-9.02353516 4.83232422 -9.02353516 4.83232422 -10 5 C-10 4.01 -10 3.02 -10 2 C-8.71211992 1.46987262 -7.41953322 0.9511671 -6.125 0.4375 C-5.40570313 0.14746094 -4.68640625 -0.14257812 -3.9453125 -0.44140625 C-2 -1 -2 -1 0 0 Z " fill="#000000" transform="translate(240,556)"/>
<path d="M0 0 C0.66 0.33 1.32 0.66 2 1 C1.125 8.75 1.125 8.75 0 11 C-0.99 11 -1.98 11 -3 11 C-2.69217504 9.35328588 -2.37860766 7.70764424 -2.0625 6.0625 C-1.88847656 5.14597656 -1.71445312 4.22945312 -1.53515625 3.28515625 C-1 1 -1 1 0 0 Z " fill="#000000" transform="translate(339,541)"/>
<path d="M0 0 C0.99 0 1.98 0 3 0 C2.85892253 1.45880109 2.71197585 2.91703551 2.5625 4.375 C2.48128906 5.18710937 2.40007812 5.99921875 2.31640625 6.8359375 C2 9 2 9 1 11 C0.01 11 -0.98 11 -2 11 C-1.34 7.37 -0.68 3.74 0 0 Z " fill="#000000" transform="translate(351,483)"/>
<path d="M0 0 C0.99 0.33 1.98 0.66 3 1 C2.67 4.3 2.34 7.6 2 11 C1.01 11 0.02 11 -1 11 C-0.67 7.37 -0.34 3.74 0 0 Z " fill="#000000" transform="translate(354,463)"/>
<path d="M0 0 C3.3 0.66 6.6 1.32 10 2 C10 2.99 10 3.98 10 5 C2.375 4.125 2.375 4.125 -1 3 C-0.67 2.01 -0.34 1.02 0 0 Z " fill="#000000" transform="translate(140,414)"/>
<path d="M0 0 C0.99 0.33 1.98 0.66 3 1 C1.7508258 4.45925163 0.32472205 7.14693203 -2 10 C-2.99 9.67 -3.98 9.34 -5 9 C-3.35 6.03 -1.7 3.06 0 0 Z " fill="#000000" transform="translate(498,412)"/>
<path d="M0 0 C0.99 0 1.98 0 3 0 C2.67 3.63 2.34 7.26 2 11 C1.01 11 0.02 11 -1 11 C-0.67 7.37 -0.34 3.74 0 0 Z " fill="#000000" transform="translate(361,404)"/>
<path d="M0 0 C0.66 0 1.32 0 2 0 C1.48964169 4.3890815 0.47785723 7.33708062 -2 11 C-2.66 10.67 -3.32 10.34 -4 10 C-3.43697042 6.05879291 -2.3208055 3.2491277 0 0 Z " fill="#000000" transform="translate(508,394)"/>
<path d="M0 0 C3.43595166 1.52708963 6.11912454 3.59927045 9 6 C8.67 6.99 8.34 7.98 8 9 C4.63704165 7.55873214 2.37072898 5.79407345 0 3 C0 2.01 0 1.02 0 0 Z " fill="#000000" transform="translate(87,386)"/>
<path d="M0 0 C0.99 0 1.98 0 3 0 C2.71758359 1.46015291 2.42373386 2.91809793 2.125 4.375 C1.96257813 5.18710937 1.80015625 5.99921875 1.6328125 6.8359375 C1 9 1 9 -1 11 C-1.66 10.34 -2.32 9.68 -3 9 C-2.01 6.03 -1.02 3.06 0 0 Z " fill="#000000" transform="translate(514,375)"/>
<path d="M0 0 C0.99 0 1.98 0 3 0 C2.67 3.63 2.34 7.26 2 11 C1.01 11 0.02 11 -1 11 C-0.67 7.37 -0.34 3.74 0 0 Z " fill="#000000" transform="translate(71,271)"/>
<path d="M0 0 C0.99 0.33 1.98 0.66 3 1 C2.34 4.3 1.68 7.6 1 11 C0.01 11 -0.98 11 -2 11 C-1.34 7.37 -0.68 3.74 0 0 Z " fill="#000000" transform="translate(75,251)"/>
<path d="M0 0 C0.66 0.33 1.32 0.66 2 1 C1.53199289 5.05606165 1.12046792 8.46588679 -1 12 C-1.66 11.67 -2.32 11.34 -3 11 C-2.69217504 9.35328588 -2.37860766 7.70764424 -2.0625 6.0625 C-1.88847656 5.14597656 -1.71445313 4.22945312 -1.53515625 3.28515625 C-1 1 -1 1 0 0 Z " fill="#000000" transform="translate(81,231)"/>
<path d="M0 0 C0.99 0 1.98 0 3 0 C3.33 3.63 3.66 7.26 4 11 C3.01 11 2.02 11 1 11 C0.67 7.37 0.34 3.74 0 0 Z " fill="#000000" transform="translate(358,166)"/>
<path d="M0 0 C0.66 0.33 1.32 0.66 2 1 C0.66511872 4.59391114 -0.96022723 7.75490696 -3 11 C-3.66 10.67 -4.32 10.34 -5 10 C-4.38545304 6.00544473 -2.29353263 3.25533664 0 0 Z " fill="#000000" transform="translate(115,157)"/>
<path d="M0 0 C0.66 0 1.32 0 2 0 C2.66 3.63 3.32 7.26 4 11 C3.01 11 2.02 11 1 11 C0.63890458 9.35567294 0.28629924 7.7094792 -0.0625 6.0625 C-0.25972656 5.14597656 -0.45695312 4.22945313 -0.66015625 3.28515625 C-0.77230469 2.53105469 -0.88445312 1.77695313 -1 1 C-0.67 0.67 -0.34 0.34 0 0 Z " fill="#000000" transform="translate(347,87)"/>
<path d="M0 0 C0.99 0 1.98 0 3 0 C3.66 3.3 4.32 6.6 5 10 C4.01 10.33 3.02 10.66 2 11 C1.34 7.37 0.68 3.74 0 0 Z " fill="#000000" transform="translate(342,68)"/>
<path d="M0 0 C0 0.99 0 1.98 0 3 C-3.3 3.66 -6.6 4.32 -10 5 C-10.33 4.01 -10.66 3.02 -11 2 C-3.375 0 -3.375 0 0 0 Z " fill="#000000" transform="translate(263,55)"/>
<path d="M0 0 C0.99 0 1.98 0 3 0 C3.99 3.3 4.98 6.6 6 10 C5.01 10 4.02 10 3 10 C2.49596232 8.70990357 1.99690074 7.41786211 1.5 6.125 C1.2215625 5.40570312 0.943125 4.68640625 0.65625 3.9453125 C0 2 0 2 0 0 Z " fill="#000000" transform="translate(171,642)"/>
<path d="M0 0 C0.99 0.66 1.98 1.32 3 2 C0.69 4.31 -1.62 6.62 -4 9 C-4.99 8.67 -5.98 8.34 -7 8 C-6.02133662 6.85373678 -5.04205413 5.70800212 -4.0625 4.5625 C-3.51722656 3.92441406 -2.97195313 3.28632813 -2.41015625 2.62890625 C-1.63204305 1.73008851 -0.84063472 0.84063472 0 0 Z " fill="#000000" transform="translate(474,444)"/>
<path d="M0 0 C0.99 0 1.98 0 3 0 C2.67 3.3 2.34 6.6 2 10 C1.01 10 0.02 10 -1 10 C-1.125 3.375 -1.125 3.375 0 0 Z " fill="#000000" transform="translate(357,444)"/>
<path d="M0 0 C3.3 0.99 6.6 1.98 10 3 C9.67 3.99 9.34 4.98 9 6 C6.03 5.01 3.06 4.02 0 3 C0 2.01 0 1.02 0 0 Z " fill="#000000" transform="translate(121,408)"/>
<path d="M0 0 C0.66 0 1.32 0 2 0 C2 3.63 2 7.26 2 11 C1.01 11 0.02 11 -1 11 C-1.0270043 9.54176788 -1.04639787 8.08339325 -1.0625 6.625 C-1.07410156 5.81289063 -1.08570313 5.00078125 -1.09765625 4.1640625 C-1 2 -1 2 0 0 Z " fill="#000000" transform="translate(363,384)"/>
<path d="M0 0 C0.99 0 1.98 0 3 0 C2.67 3.3 2.34 6.6 2 10 C1.01 10.33 0.02 10.66 -1 11 C-1.14285714 3.57142857 -1.14285714 3.57142857 0 0 Z " fill="#000000" transform="translate(518,355)"/>
<path d="M0 0 C0.99 0 1.98 0 3 0 C3 3.63 3 7.26 3 11 C2.34 11 1.68 11 1 11 C-0.20272819 8.59454362 -0.10071472 7.05003047 -0.0625 4.375 C-0.05347656 3.55773437 -0.04445313 2.74046875 -0.03515625 1.8984375 C-0.02355469 1.27195313 -0.01195312 0.64546875 0 0 Z " fill="#000000" transform="translate(364,245)"/>
<path d="M0 0 C0.66 0 1.32 0 2 0 C2.33 3.63 2.66 7.26 3 11 C2.01 11 1.02 11 0 11 C-1.16461426 7.50615721 -1.13568319 4.66344611 -1 1 C-0.67 0.67 -0.34 0.34 0 0 Z " fill="#000000" transform="translate(364,225)"/>
<path d="M0 0 C0.99 0.33 1.98 0.66 3 1 C1.35 4.3 -0.3 7.6 -2 11 C-2.66 10.67 -3.32 10.34 -4 10 C-3.29445932 6.33118845 -1.72264494 3.29549466 0 0 Z " fill="#000000" transform="translate(104,175)"/>
<path d="M0 0 C0.99 0.33 1.98 0.66 3 1 C3.33 4.3 3.66 7.6 4 11 C3.01 11 2.02 11 1 11 C-0.28317892 7.15046324 -0.06643637 4.05261865 0 0 Z " fill="#000000" transform="translate(356,146)"/>
<path d="M0 0 C0.99 0 1.98 0 3 0 C3.33 3.3 3.66 6.6 4 10 C3.01 10.33 2.02 10.66 1 11 C0.67 7.37 0.34 3.74 0 0 Z " fill="#000000" transform="translate(353,127)"/>
<path d="M0 0 C3.48670834 1.1094072 6.77484237 2.26337666 10 4 C9.67 4.99 9.34 5.98 9 7 C5.7 5.35 2.4 3.7 -1 2 C-0.67 1.34 -0.34 0.68 0 0 Z " fill="#000000" transform="translate(196,671)"/>
<path d="M0 0 C0.66 0.33 1.32 0.66 2 1 C1.67 3.97 1.34 6.94 1 10 C0.01 10.33 -0.98 10.66 -2 11 C-1.85957123 9.35369672 -1.71250671 7.70795821 -1.5625 6.0625 C-1.48128906 5.14597656 -1.40007812 4.22945313 -1.31640625 3.28515625 C-1 1 -1 1 0 0 Z " fill="#000000" transform="translate(348,502)"/>
<path d="M0 0 C0.99 0 1.98 0 3 0 C3 3.63 3 7.26 3 11 C2.01 11 1.02 11 0 11 C0 7.37 0 3.74 0 0 Z " fill="#000000" transform="translate(67,312)"/>
<path d="M0 0 C0.99 0 1.98 0 3 0 C3 3.3 3 6.6 3 10 C2.01 10 1.02 10 0 10 C0 6.7 0 3.4 0 0 Z " fill="#000000" transform="translate(362,206)"/>
<path d="M0 0 C0.66 0 1.32 0 2 0 C1.43454163 3.95820859 0.19097652 6.6659053 -2 10 C-2.99 9.67 -3.98 9.34 -5 9 C-3.35 6.03 -1.7 3.06 0 0 Z " fill="#000000" transform="translate(312,616)"/>
<path d="M0 0 C0.99 0.33 1.98 0.66 3 1 C2.67 4.3 2.34 7.6 2 11 C1.01 11 0.02 11 -1 11 C-0.67 7.37 -0.34 3.74 0 0 Z " fill="#000000" transform="translate(364,364)"/>
<path d="M0 0 C0.99 0.33 1.98 0.66 3 1 C2.67 4.3 2.34 7.6 2 11 C1.01 10.67 0.02 10.34 -1 10 C-0.67 6.7 -0.34 3.4 0 0 Z " fill="#000000" transform="translate(365,345)"/>
<path d="M0 0 C3.96 0 7.92 0 12 0 C12 0.66 12 1.32 12 2 C8.37 2.33 4.74 2.66 1 3 C0.67 2.01 0.34 1.02 0 0 Z " fill="#000000" transform="translate(272,53)"/>
<path d="M0 0 C0 0.99 0 1.98 0 3 C-3.3 3.33 -6.6 3.66 -10 4 C-10 3.01 -10 2.02 -10 1 C-6.61981469 -0.04005702 -3.5219721 -0.08004482 0 0 Z " fill="#000000" transform="translate(244,681)"/>
<path d="M0 0 C2.31 0 4.62 0 7 0 C7.66 1.98 8.32 3.96 9 6 C7.68 5.67 6.36 5.34 5 5 C5 4.01 5 3.02 5 2 C3.35 2 1.7 2 0 2 C0 1.34 0 0.68 0 0 Z " fill="#000000" transform="translate(334,53)"/>
<path d="M0 0 C0.66 0 1.32 0 2 0 C2.33 3.63 2.66 7.26 3 11 C2.01 11 1.02 11 0 11 C0 7.37 0 3.74 0 0 Z " fill="#000000" transform="translate(66,332)"/>
<path d="M0 0 C3.63 0 7.26 0 11 0 C11 0.66 11 1.32 11 2 C7.37 2 3.74 2 0 2 C0 1.34 0 0.68 0 0 Z " fill="#000000" transform="translate(314,53)"/>
<path d="M0 0 C3.63 0 7.26 0 11 0 C11 0.66 11 1.32 11 2 C7.37 2 3.74 2 0 2 C0 1.34 0 0.68 0 0 Z " fill="#000000" transform="translate(293,53)"/>
<path d="M0 0 C0.99 0 1.98 0 3 0 C3 1.98 3 3.96 3 6 C2.01 6 1.02 6 0 6 C0 4.02 0 2.04 0 0 Z " fill="#000000" transform="translate(519,340)"/>
<path d="M0 0 C1.65 0 3.3 0 5 0 C5.33 0.99 5.66 1.98 6 3 C4.02 3 2.04 3 0 3 C0 2.01 0 1.02 0 0 Z " fill="#000000" transform="translate(159,418)"/>
<path d="M0 0 C0.99 0.33 1.98 0.66 3 1 C2.67 1.99 2.34 2.98 2 4 C1.01 3.01 0.02 2.02 -1 1 C-0.67 0.67 -0.34 0.34 0 0 Z " fill="#000000" transform="translate(365,667)"/>
<path d="M0 0 C0.99 0.33 1.98 0.66 3 1 C2.67 1.99 2.34 2.98 2 4 C1.01 3.01 0.02 2.02 -1 1 C-0.67 0.67 -0.34 0.34 0 0 Z " fill="#000000" transform="translate(451,366)"/>
<path d="M0 0 C0.99 0.33 1.98 0.66 3 1 C2.67 1.99 2.34 2.98 2 4 C1.01 3.01 0.02 2.02 -1 1 C-0.67 0.67 -0.34 0.34 0 0 Z " fill="#000000" transform="translate(438,202)"/>
<path d="M0 0 C0.99 0.33 1.98 0.66 3 1 C2.67 1.99 2.34 2.98 2 4 C1.01 3.01 0.02 2.02 -1 1 C-0.67 0.67 -0.34 0.34 0 0 Z " fill="#000000" transform="translate(33,129)"/>
</svg>
