<?xml version="1.0" encoding="UTF-8"?>
<svg version="1.1" xmlns="http://www.w3.org/2000/svg" width="745" height="694">
<path d="M0 0 C19.0863524 14.99924233 19.0863524 14.99924233 20.24951172 23.91186523 C20.42019243 26.19123776 20.53409782 28.46608274 20.625 30.75 C20.66367188 31.54277344 20.70234375 32.33554687 20.7421875 33.15234375 C20.836108 35.10119416 20.91912822 37.05056451 21 39 C22.17755859 37.60587891 22.17755859 37.60587891 23.37890625 36.18359375 C43.47511188 12.4821846 69.31188111 -7.53606317 101.51342773 -10.30175781 C105.22297531 -10.43805472 108.91308546 -10.4675244 112.625 -10.4375 C113.29230133 -10.43412628 113.95960266 -10.43075256 114.64712524 -10.42727661 C169.54854663 -10.0301523 226.30901672 10.64905899 269 45 C269.53818359 45.43231934 270.07636719 45.86463867 270.63085938 46.31005859 C286.32352164 59.04511337 301.36499154 73.4137301 313 90 C313.44214844 90.62487305 313.88429688 91.24974609 314.33984375 91.89355469 C326.17453668 108.83258756 334.51192115 127.41283304 342.375 146.4375 C342.67000397 147.14921356 342.96500793 147.86092712 343.26895142 148.59420776 C348.55032121 161.38799972 353.74233646 174.30702993 356.125 188 C356.28476318 188.88840576 356.44452637 189.77681152 356.60913086 190.69213867 C357.09378781 193.45838907 357.5526916 196.22748051 358 199 C358.20471924 200.25804443 358.20471924 200.25804443 358.41357422 201.54150391 C363.86392964 236.16372459 365.35195444 272.00008653 365 307 C366.69576172 306.70996094 366.69576172 306.70996094 368.42578125 306.4140625 C378.34087649 304.78667995 388.22839455 303.6136718 398.25 302.875 C399.76074097 302.76212646 399.76074097 302.76212646 401.30200195 302.64697266 C420.86943101 301.2977039 440.44728285 300.81332369 460.05786133 300.81469727 C463.59142623 300.81248186 467.12469175 300.79414056 470.65820312 300.77539062 C505.20621148 300.68654447 505.20621148 300.68654447 514 309 C523.020973 318.46795815 525.79997772 331.09651504 526.4375 343.8125 C526.32196509 347.87355208 525.85381494 350.76422889 522.78125 353.734375 C508.0682501 364.18834861 488.41526314 365.01515716 471.08047485 365.3302002 C433.85422444 366.06553848 397.48796418 371.97091374 361 379 C360.83854492 379.69802734 360.67708984 380.39605469 360.51074219 381.11523438 C358.5250353 389.40033152 356.0228788 397.44781448 353.25 405.5 C353.01756592 406.17764404 352.78513184 406.85528809 352.5456543 407.5534668 C344.00725992 432.30879149 333.54854929 456.44838059 322.35791016 480.11083984 C320.89816258 483.21667459 319.47038335 486.33621552 318.04296875 489.45703125 C312.33448162 501.81102786 306.27445622 513.1848518 298 524 C297.55833496 524.58749023 297.11666992 525.17498047 296.66162109 525.78027344 C293.53322999 529.9309026 290.2971347 533.9825787 287 538 C286.32590088 538.83072021 286.32590088 538.83072021 285.63818359 539.67822266 C278.23655075 548.73924959 270.11929739 557.08708535 261.875 565.375 C261.36997955 565.88528748 260.86495911 566.39557495 260.34463501 566.92132568 C253.5776165 573.74287151 246.53480893 580.02427199 239 586 C237.79131933 587.00035075 236.58517333 588.00378075 235.3828125 589.01171875 C190.52119106 626.09226053 133.80148527 650.23105549 75 647 C72.13179923 646.65114221 69.34404933 646.15405748 66.5 645.625 C60.08394254 644.57523316 56.73987161 646.02247454 51.2265625 649.26953125 C47.41219631 651.31525064 43.64487695 652.55448655 39.5 653.75 C38.50444092 654.04692749 38.50444092 654.04692749 37.48876953 654.34985352 C26.51640227 657.45696694 15.68848689 658.39145687 4.3125 658.375 C3.30396469 658.37368576 3.30396469 658.37368576 2.27505493 658.37234497 C-33.61512433 658.2196253 -83.82207064 648.97756554 -110.2265625 622.86328125 C-140.09452504 592.02776499 -149.32194075 545.8166128 -153.19702148 504.52563477 C-153.80882591 498.57344529 -155.06901215 492.83392797 -156.375 487 C-165.63442217 444.73642697 -166.34750759 400.08283778 -168 357 C-168.03029297 356.22817383 -168.06058594 355.45634766 -168.09179688 354.66113281 C-168.476397 344.81109631 -168.73688731 334.96350901 -168.90332031 325.10742188 C-168.96368597 321.64166378 -169.04873699 318.17764819 -169.15136719 314.71289062 C-171.21047741 242.60168401 -164.47538497 169.76528392 -155.875 98.25 C-155.74766983 97.18557804 -155.62033966 96.12115608 -155.489151 95.02447891 C-143.59272457 -4.20465138 -143.59272457 -4.20465138 -120.75 -23 C-91.55865033 -40.99915058 -25.67076281 -18.01986879 0 0 Z M-121.12890625 -14.1875 C-137.40298515 4.83856301 -141.22281186 33.89372572 -144.41015625 57.7734375 C-144.62568236 59.36312927 -144.84151936 60.95277891 -145.05764771 62.54238892 C-145.49839902 65.79278642 -145.93549906 69.0436458 -146.36972046 72.29492188 C-146.8585254 75.9530012 -147.35601023 79.60980461 -147.85765648 83.26614189 C-158.62461357 161.86873776 -165.36613269 242.1628426 -163.09753418 321.53375244 C-162.99573119 325.15170834 -162.90742223 328.76982251 -162.82128906 332.38818359 C-161.5010138 386.3726991 -159.70903285 440.9990737 -149.1875 494.1015625 C-147.87142373 500.83274424 -146.79762987 507.47462534 -146.03051758 514.28808594 C-142.17195592 548.30933993 -133.54015895 584.54221497 -112 612 C-111.06800781 613.22203125 -111.06800781 613.22203125 -110.1171875 614.46875 C-89.41277702 639.76451511 -45.01022905 648.31584206 -14.31494141 651.83227539 C9.60415139 653.56528707 34.12176744 652.71879896 55.4375 640.5625 C60.07457887 638.52869348 63.16231833 639.02747637 68 640 C85.70626301 643.31796149 105.45082986 641.79095311 123 638 C123.88252441 637.81195801 124.76504883 637.62391602 125.67431641 637.43017578 C147.17112313 632.68873236 167.65488541 624.44911164 187 614 C187.64694824 613.65646484 188.29389648 613.31292969 188.96044922 612.95898438 C221.22504916 595.76167751 251.26276226 570.74785158 275 543 C275.79019531 542.09894531 276.58039063 541.19789063 277.39453125 540.26953125 C309.27279151 503.642304 356 424.56679528 356 374 C391.71893197 366.9027678 427.55278286 360.40776569 464.05175781 359.70996094 C492.76437308 360.020465 492.76437308 360.020465 518.3203125 349.07421875 C520.48647814 346.39925606 520.55086992 344.27248539 520.3828125 340.89453125 C518.83894303 329.22098757 516.30782596 319.70708063 507.375 311.625 C498.9915043 305.88892399 489.33640193 306.84256494 479.515625 306.83203125 C478.31846359 306.8278418 477.12130219 306.82365234 475.88786316 306.81933594 C472.00854194 306.80956604 468.12933149 306.80954644 464.25 306.8125 C463.58959339 306.81261959 462.92918678 306.81273918 462.24876785 306.8128624 C435.17926723 306.81908103 408.30468738 307.49615536 381.375 310.4375 C379.86377563 310.60245972 379.86377563 310.60245972 378.32202148 310.77075195 C371.68500403 311.58345953 365.40222118 313.08120336 359 315 C359.01047363 314.22962402 359.02094727 313.45924805 359.03173828 312.66552734 C359.4789556 274.06331306 357.75630007 235.1545744 351.625 197 C351.34789185 195.23946289 351.34789185 195.23946289 351.06518555 193.44335938 C348.40857517 177.90257433 342.87409511 163.63229334 336.75 149.1875 C336.25228088 148.00636124 336.25228088 148.00636124 335.74450684 146.80136108 C318.02871637 104.77189993 294.66992535 71.68001006 258 44 C257.16130371 43.35998047 257.16130371 43.35998047 256.30566406 42.70703125 C214.94867899 11.32111146 153.71507253 -9.17745724 101.66796875 -4.5390625 C71.77263038 -0.14549839 44.48535367 17.50084908 26.48828125 41.56640625 C22.405472 47.22973528 18.56967576 53.00020874 15 59 C15.00112793 57.98687744 15.00225586 56.97375488 15.00341797 55.92993164 C14.99971755 52.13299023 14.95666067 48.33729805 14.90234375 44.54077148 C14.88429328 42.90478622 14.8765952 41.2686499 14.87988281 39.63256836 C14.96261339 26.17736833 14.96261339 26.17736833 8 15 C7.2471875 14.15308594 6.494375 13.30617187 5.71875 12.43359375 C-6.21305374 1.69917172 -19.61898866 -3.75028469 -34.625 -8.6875 C-36.32161177 -9.25603186 -38.01814445 -9.82479981 -39.71459961 -10.39379883 C-51.01578253 -14.15419208 -62.31361996 -17.64170952 -74 -20 C-75.70349609 -20.35964844 -75.70349609 -20.35964844 -77.44140625 -20.7265625 C-91.76889351 -23.36352335 -109.88260441 -25.04911949 -121.12890625 -14.1875 Z " fill="#000000" transform="translate(219,30)"/>
<path d="M0 0 C1.80859375 1.33984375 1.80859375 1.33984375 3.75 3.1875 C4.58660156 3.93128906 5.42320312 4.67507812 6.28515625 5.44140625 C13.60409544 12.34859077 19.72269273 20.15502664 25.75 28.1875 C26.471875 29.13753906 27.19375 30.08757812 27.9375 31.06640625 C36.36496492 42.37435234 42.63552643 53.01663463 46.875 66.5 C47.2999033 67.81710168 47.72520321 69.13407548 48.15087891 70.45092773 C51.91525259 82.22543822 55.09029126 94.11634999 57.75 106.1875 C57.94819336 107.07163574 58.14638672 107.95577148 58.35058594 108.86669922 C63.15639279 130.6873315 63.89651381 152.75146969 64.875 175 C64.91965393 176.00238708 64.96430786 177.00477417 65.01031494 178.03753662 C65.86320834 197.5044404 66.01297281 216.67237232 64.578125 236.11352539 C64.37440442 238.88309689 64.18256751 241.65331082 63.9921875 244.42382812 C63.41073391 252.69691147 62.75866461 260.96428724 61.8359375 269.20703125 C61.69978027 270.44171143 61.56362305 271.6763916 61.42333984 272.94848633 C60.69172404 276.46782893 60.10288447 278.46068891 57.75 281.1875 C55.11632427 282.23776395 52.79048117 282.97696605 50.0625 283.6328125 C48.51443282 284.04667284 46.9675749 284.46507942 45.421875 284.88769531 C44.63876953 285.09978638 43.85566406 285.31187744 43.04882812 285.53039551 C36.81946533 287.31101679 30.78946208 289.73103017 24.75 292.0625 C24.03431854 292.33729187 23.31863708 292.61208374 22.58126831 292.89520264 C-19.13874658 308.9712883 -58.03292922 328.2588214 -87.25 363.1875 C-87.73017578 363.75919922 -88.21035156 364.33089844 -88.70507812 364.91992188 C-94.99985563 372.44184012 -101.04285769 379.84355881 -105.98046875 388.34375 C-106.39941406 388.9521875 -106.81835938 389.560625 -107.25 390.1875 C-107.91 390.1875 -108.57 390.1875 -109.25 390.1875 C-111.8191301 383.46002241 -113.05183356 376.94972723 -113.875 369.8125 C-113.99617187 368.86761719 -114.11734375 367.92273438 -114.2421875 366.94921875 C-116.32378052 349.73082434 -116.47895149 332.32030488 -116.8125 315 C-116.83334656 313.94293854 -116.85419312 312.88587708 -116.87567139 311.79678345 C-117.20647385 294.81755736 -117.44974294 277.84820966 -117.27606201 260.86553955 C-117.24571766 257.74746166 -117.22093683 254.62935463 -117.19580078 251.51123047 C-117.1414332 245.08755072 -117.06820536 238.66425008 -116.98553467 232.24087524 C-116.95411219 229.67107947 -116.92680493 227.10122925 -116.90411377 224.53134155 C-116.69420767 201.95900565 -114.9590701 179.78071683 -110.5 157.625 C-110.24395996 156.334729 -109.98791992 155.04445801 -109.72412109 153.71508789 C-97.93205357 95.4277767 -71.55670683 42.28212246 -21.12207031 8.42041016 C-5.09791014 -2.13279914 -5.09791014 -2.13279914 0 0 Z M-47.0625 37.625 C-53.72987949 44.36667266 -59.7115972 51.49645097 -65.25 59.1875 C-65.68151367 59.78530273 -66.11302734 60.38310547 -66.55761719 60.99902344 C-73.1515854 70.24828087 -78.54006804 79.85924138 -83.25 90.1875 C-83.58241699 90.91420898 -83.91483398 91.64091797 -84.25732422 92.38964844 C-97.9434436 122.69696689 -105.21734164 155.28238743 -109.25 188.1875 C-109.34949951 188.93966797 -109.44899902 189.69183594 -109.55151367 190.46679688 C-110.63986964 199.6551293 -110.62389694 208.94730991 -110.8125 218.1875 C-110.83334656 219.17081299 -110.85419312 220.15412598 -110.87567139 221.16723633 C-113.64288301 298.8502631 -113.64288301 298.8502631 -107.25 376.1875 C-103.2272507 374.84658357 -101.69322923 372.15014081 -99.25 368.875 C-93.93514468 361.94992928 -88.30247863 355.47780067 -82.25 349.1875 C-81.64494629 348.55521484 -81.03989258 347.92292969 -80.41650391 347.27148438 C-44.29940035 309.72337672 6.04193151 291.00347481 54.75 275.1875 C56.45343927 263.61220374 57.53397479 252.04185645 58.375 240.375 C58.44036957 239.46933289 58.50573914 238.56366577 58.5730896 237.6305542 C63.55830005 167.40552024 62.12407832 79.39058807 14.20263672 23.37890625 C11.13934424 19.89638405 7.96754287 16.52839914 4.75 13.1875 C3.69425781 12.05441406 3.69425781 12.05441406 2.6171875 10.8984375 C0.30064285 8.41266927 0.30064285 8.41266927 -2.25 6.1875 C-17.25324794 6.1875 -36.97129062 27.6698461 -47.0625 37.625 Z " fill="#000000" transform="translate(360.25,96.8125)"/>
<path d="M0 0 C-0.14941965 34.59064989 -29.95868301 76.43505712 -53.51904297 99.88549805 C-66.25899327 112.19875952 -82.44344128 121.80789841 -100 125 C-99.44434617 118.53890897 -98.2868475 112.68910761 -96.375 106.5 C-96.10921143 105.63342773 -95.84342285 104.76685547 -95.56958008 103.87402344 C-85.48743887 71.78248291 -67.70436169 47.37429391 -40.66601562 27.25146484 C-39.01303718 26.00979317 -37.38679303 24.73988141 -35.765625 23.45703125 C-28.33049988 17.5917826 -20.61050803 12.27616623 -12.68017578 7.10449219 C-9.6348427 5.10259058 -6.63693777 3.02965995 -3.63671875 0.9609375 C-2 0 -2 0 0 0 Z M-9 12 C-18.9205648 18.69860987 -28.62340749 25.55710166 -38 33 C-38.92167969 33.72703125 -39.84335937 34.4540625 -40.79296875 35.203125 C-66.2320467 55.61312116 -84.13588002 79.80625882 -92 112 C-92 113.32 -92 114.64 -92 116 C-73.95074061 113.47515086 -55.54560444 95.71609164 -45.02246094 81.94238281 C-31.18928115 63.33380763 -19.61571374 42.56932029 -10.6875 21.1875 C-10.39133789 20.48230225 -10.09517578 19.77710449 -9.79003906 19.05053711 C-9.12647378 17.39224833 -8.55327362 15.69827231 -8 14 C-8.495 13.01 -8.495 13.01 -9 12 Z " fill="#000000" transform="translate(397,462)"/>
<path d="M0 0 C7.64917138 0.5582224 15.07899177 1.61623973 22.60546875 3.07421875 C24.22803337 3.38369194 24.22803337 3.38369194 25.88337708 3.69941711 C28.16552424 4.13636336 30.44715063 4.57603759 32.72827148 5.01831055 C36.13166702 5.67669908 39.53730191 6.32234086 42.94335938 6.96679688 C90.68997264 16.10158656 134.35705129 29.64341335 170 64 C170.70253906 64.65097656 171.40507813 65.30195312 172.12890625 65.97265625 C208.14074394 100.23846544 227.48403055 152.08623635 242.91674805 198.02490234 C243.30773682 199.18586426 243.69872559 200.34682617 244.1015625 201.54296875 C244.44525879 202.57446045 244.78895508 203.60595215 245.14306641 204.66870117 C245.78859997 206.92851077 245.78859997 206.92851077 247 208 C247.66 207.01 248.32 206.02 249 205 C249.99 205 250.98 205 252 205 C250.84414715 208.91211733 249.64465038 211.8745041 247 215 C243.06380262 214.43768609 240.20807554 213.38314183 237 211 C237 210.01 237 209.02 237 208 C239.97 208.99 239.97 208.99 243 210 C227.75557557 165.36886741 211.64353419 118.71844112 181 82 C180.50532227 81.39994141 180.01064453 80.79988281 179.50097656 80.18164062 C164.0583293 61.5364259 146.47842936 47.16244842 125 36 C123.87980469 35.40703125 122.75960937 34.8140625 121.60546875 34.203125 C84.25834952 15.59358902 40.62039493 10.35168381 0 3 C0 2.01 0 1.02 0 0 Z " fill="#000000" transform="translate(350,0)"/>
<path d="M0 0 C0.99 0.33 1.98 0.66 3 1 C2.95512451 1.59683594 2.91024902 2.19367188 2.86401367 2.80859375 C1.6883329 18.5741361 0.63309648 34.34677675 -0.36459351 50.12451172 C-0.49426739 52.17241921 -0.62479033 54.22027316 -0.7562561 56.26806641 C-2.18708822 78.60327542 -3.09179836 100.93696317 -3.5625 123.3125 C-3.58334656 124.2881189 -3.60419312 125.26373779 -3.62567139 126.2689209 C-3.95441734 141.84900635 -4.21413033 157.41630142 -4 173 C-3.99139954 173.69496582 -3.98279907 174.38993164 -3.97393799 175.10595703 C-5.87430001 267.0814433 -5.87430001 267.0814433 17 354 C17.66 353.01 18.32 352.02 19 351 C19.66 351 20.32 351 21 351 C20.43454163 354.95820859 19.19097652 357.6659053 17 361 C13.05879291 360.43697042 10.2491277 359.3208055 7 357 C7 356.34 7 355.68 7 355 C8.65 355.33 10.3 355.66 12 356 C11.76925781 355.05125 11.53851563 354.1025 11.30078125 353.125 C10.16832348 348.42403146 9.07980744 343.71330738 8 339 C7.80212891 338.1430957 7.60425781 337.28619141 7.40039062 336.40332031 C-5.60374336 279.39976213 -7.40903766 220.66247088 -7.31765366 162.43848419 C-7.31243169 158.89109621 -7.31050412 155.34371702 -7.30899048 151.79632568 C-7.28225659 115.77329755 -6.64410136 79.93625202 -4 44 C-3.85965844 42.03663573 -3.71951981 40.07325693 -3.57958984 38.10986328 C-1.61227317 10.81902117 -1.61227317 10.81902117 0 0 Z " fill="#000000" transform="translate(26,183)"/>
<path d="M0 0 C0.99 0 1.98 0 3 0 C-7.9783553 47.16359219 -23.82281945 92.68894692 -57.60546875 128.453125 C-59.55120818 130.52265535 -61.38682958 132.6186913 -63.1875 134.8125 C-65.74789718 137.82727752 -68.5545411 140.38653576 -71.5703125 142.94140625 C-73.39700754 144.48910446 -75.20054946 146.06419462 -76.9921875 147.65234375 C-103.47280904 171.03604582 -134.50598024 188.67978117 -166.1875 204 C-167.14613953 204.46413803 -167.14613953 204.46413803 -168.12414551 204.93765259 C-176.98134728 209.2115681 -185.932054 213.19548668 -195 217 C-194.505 217.45375 -194.01 217.9075 -193.5 218.375 C-192 220 -192 220 -192 222 C-195.9492568 221.44894091 -199.34920174 220.61064629 -203 219 C-202.39301257 214.87248551 -200.96189209 211.6678852 -199 208 C-198.34 208 -197.68 208 -197 208 C-197.33 209.98 -197.66 211.96 -198 214 C-163.89547696 199.03531727 -130.12951707 183.16174016 -100 161 C-99.44248047 160.59120605 -98.88496094 160.18241211 -98.31054688 159.76123047 C-78.67684784 145.2541084 -60.39989275 128.79912526 -46 109 C-45.22269531 107.94425781 -44.44539062 106.88851562 -43.64453125 105.80078125 C-21.96188249 75.4600008 -10.99084607 39.68479423 -1.58154297 3.99829102 C-1 2 -1 2 0 0 Z " fill="#000000" transform="translate(578,472)"/>
<path d="M0 0 C6.75 3.75 6.75 3.75 9 6 C8.71713004 9.96017943 6.22249334 12.84549333 4 16 C3.01 15.67 2.02 15.34 1 15 C1.66 13.35 2.32 11.7 3 10 C-16.90139299 16.66412359 -34.86299757 25.90570403 -52 38 C-53.03640625 38.71929687 -54.0728125 39.43859375 -55.140625 40.1796875 C-57.43509984 41.77556525 -59.72174526 43.38109898 -62 45 C-62.66 44.67 -63.32 44.34 -64 44 C-62.56570444 39.69711332 -59.34011149 38.0534832 -55.75 35.5625 C-54.99710693 35.0375293 -54.24421387 34.51255859 -53.46850586 33.97167969 C-14.08326722 7 -14.08326722 7 3 7 C1.68 5.68 0.36 4.36 -1 3 C-0.67 2.01 -0.34 1.02 0 0 Z " fill="#000000" transform="translate(357,358)"/>
<path d="M0 0 C3 1 3 1 4.75 3.8125 C6 7 6 7 6 9.1875 C4.52274395 11.86502659 2.73735094 12.72681352 0 14 C-1.32 14 -2.64 14 -4 14 C-3.67 13.01 -3.34 12.02 -3 11 C-2.34 10.67 -1.68 10.34 -1 10 C-12.13883318 6.68108236 -25.31020501 7.90584021 -36.81884766 8.296875 C-39.13036068 8.3751816 -41.44199614 8.44238569 -43.75390625 8.5078125 C-51.85319314 8.75001696 -59.91440151 9.14444863 -67.9921875 9.79711914 C-72.33094 10.08977363 -76.65408444 10.09012267 -81 10 C-81 9.01 -81 8.02 -81 7 C-63.96092042 4.9911822 -47.01352785 4.80146405 -29.875 4.8125 C-28.75329407 4.8117749 -27.63158813 4.8110498 -26.47589111 4.81030273 C-23.23126073 4.81053958 -19.98679096 4.81930936 -16.7421875 4.83203125 C-15.27462006 4.83382133 -15.27462006 4.83382133 -13.77740479 4.83564758 C-8.74728751 4.87006765 -3.95852743 5.14190855 1 6 C0.505 3.03 0.505 3.03 0 0 Z " fill="#000000" transform="translate(702,306)"/>
<path d="M0 0 C-0.020625 1.051875 -0.04125 2.10375 -0.0625 3.1875 C-0.01103198 6.32704904 0.26517187 8.96883396 1 12 C-1.32902796 14.15650737 -2.39060303 15.01450945 -5.625 14.9375 C-8 14 -8 14 -9.3125 11.9375 C-9.539375 11.298125 -9.76625 10.65875 -10 10 C-9.01 10 -8.02 10 -7 10 C-7 10.66 -7 11.32 -7 12 C-5.68 11.67 -4.36 11.34 -3 11 C-3 10.34 -3 9.68 -3 9 C-3.99 8.67 -4.98 8.34 -6 8 C-6 7.01 -6 6.02 -6 5 C-5.01 4.67 -4.02 4.34 -3 4 C-3 3.34 -3 2.68 -3 2 C-3.99 2 -4.98 2 -6 2 C-6.33 2.66 -6.66 3.32 -7 4 C-7.99 3.67 -8.98 3.34 -10 3 C-9.67 2.01 -9.34 1.02 -9 0 C-5.93109813 -1.53445094 -3.29905734 -0.54984289 0 0 Z " fill="#000000" transform="translate(334,350)"/>
<path d="M0 0 C0.99 0 1.98 0 3 0 C3 3.3 3 6.6 3 10 C3.66 10 4.32 10 5 10 C5 10.66 5 11.32 5 12 C4.34 12 3.68 12 3 12 C3 12.99 3 13.98 3 15 C2.01 15 1.02 15 0 15 C0 14.01 0 13.02 0 12 C-2.31 12 -4.62 12 -7 12 C-5.52410328 7.57230983 -3.26930159 3.3663135 0 0 Z M-1 5 C-1.66 6.65 -2.32 8.3 -3 10 C-2.01 10 -1.02 10 0 10 C0 8.35 0 6.7 0 5 C-0.33 5 -0.66 5 -1 5 Z " fill="#000000" transform="translate(674,283)"/>
<path d="M0 0 C2.875 -0.125 2.875 -0.125 6 0 C6.66 0.66 7.32 1.32 8 2 C7.83754442 5.73647845 7.41216356 7.52538742 4.9375 10.375 C4.298125 10.91125 3.65875 11.4475 3 12 C4.65 12.33 6.3 12.66 8 13 C8 13.66 8 14.32 8 15 C4.7 15 1.4 15 -2 15 C0 11 0 11 2.125 8.4375 C4.30485538 6.11622611 4.30485538 6.11622611 4 3 C3.34 3 2.68 3 2 3 C1.67 3.66 1.34 4.32 1 5 C0.01 5 -0.98 5 -2 5 C-1.34 3.35 -0.68 1.7 0 0 Z " fill="#000000" transform="translate(525,605)"/>
<path d="M0 0 C2.875 -0.125 2.875 -0.125 6 0 C6.66 0.66 7.32 1.32 8 2 C7.83754442 5.73647845 7.41216356 7.52538742 4.9375 10.375 C4.298125 10.91125 3.65875 11.4475 3 12 C4.65 12.33 6.3 12.66 8 13 C8 13.66 8 14.32 8 15 C4.7 15 1.4 15 -2 15 C0 11 0 11 2.125 8.4375 C4.30485538 6.11622611 4.30485538 6.11622611 4 3 C3.34 3 2.68 3 2 3 C1.67 3.66 1.34 4.32 1 5 C0.01 5 -0.98 5 -2 5 C-1.34 3.35 -0.68 1.7 0 0 Z " fill="#000000" transform="translate(309,349)"/>
<path d="M0 0 C2.875 -0.125 2.875 -0.125 6 0 C6.66 0.66 7.32 1.32 8 2 C7.83754442 5.73647845 7.41216356 7.52538742 4.9375 10.375 C4.298125 10.91125 3.65875 11.4475 3 12 C4.65 12.33 6.3 12.66 8 13 C8 13.66 8 14.32 8 15 C4.7 15 1.4 15 -2 15 C0 11 0 11 2.125 8.4375 C4.30485538 6.11622611 4.30485538 6.11622611 4 3 C3.34 3 2.68 3 2 3 C1.67 3.66 1.34 4.32 1 5 C0.01 5 -0.98 5 -2 5 C-1.34 3.35 -0.68 1.7 0 0 Z " fill="#000000" transform="translate(652,283)"/>
<path d="M0 0 C2.875 -0.125 2.875 -0.125 6 0 C6.66 0.66 7.32 1.32 8 2 C7.83754442 5.73647845 7.41216356 7.52538742 4.9375 10.375 C4.298125 10.91125 3.65875 11.4475 3 12 C4.65 12.33 6.3 12.66 8 13 C8 13.66 8 14.32 8 15 C4.7 15 1.4 15 -2 15 C0 11 0 11 2.125 8.4375 C4.30485538 6.11622611 4.30485538 6.11622611 4 3 C3.34 3 2.68 3 2 3 C1.67 3.66 1.34 4.32 1 5 C0.01 5 -0.98 5 -2 5 C-1.34 3.35 -0.68 1.7 0 0 Z " fill="#000000" transform="translate(525,26)"/>
<path d="M0 0 C2.33944736 0.28730055 4.6739143 0.61936779 7 1 C7.36630156 4.93774177 7.30233203 6.56539771 5 9.875 C4.34 10.57625 3.68 11.2775 3 12 C4.65 12.33 6.3 12.66 8 13 C8 13.66 8 14.32 8 15 C4.7 15 1.4 15 -2 15 C-0.66837689 11.00513068 1.05840921 8.94159079 4 6 C4 5.01 4 4.02 4 3 C2.02 3.66 0.04 4.32 -2 5 C-1.125 1.125 -1.125 1.125 0 0 Z " fill="#000000" transform="translate(543,605)"/>
<path d="M0 0 C0 4.95 0 9.9 0 15 C-0.99 15 -1.98 15 -3 15 C-3 11.37 -3 7.74 -3 4 C-3.99 4.33 -4.98 4.66 -6 5 C-5.625 3.0625 -5.625 3.0625 -5 1 C-3 0 -3 0 0 0 Z " fill="#000000" transform="translate(7,337)"/>
<path d="M0 0 C0 4.95 0 9.9 0 15 C-0.99 15 -1.98 15 -3 15 C-3 11.37 -3 7.74 -3 4 C-3.99 4.33 -4.98 4.66 -6 5 C-5.625 3.0625 -5.625 3.0625 -5 1 C-3 0 -3 0 0 0 Z " fill="#000000" transform="translate(545,26)"/>
<path d="M0 0 C1.32 0 2.64 0 4 0 C3.67 3.63 3.34 7.26 3 11 C2.34 11 1.68 11 1 11 C0.63743142 9.5437328 0.28520207 8.08488815 -0.0625 6.625 C-0.35833984 5.40683594 -0.35833984 5.40683594 -0.66015625 4.1640625 C-1 2 -1 2 0 0 Z " fill="#000000" transform="translate(163,568)"/>
<path d="M0 0 C0 0.99 0 1.98 0 3 C-3.87684087 4.19287411 -6.91621923 5 -11 5 C-11 4.01 -11 3.02 -11 2 C-3.375 0 -3.375 0 0 0 Z " fill="#000000" transform="translate(672,362)"/>
<path d="M0 0 C1.11375 0.598125 2.2275 1.19625 3.375 1.8125 C4.00148438 2.14894531 4.62796875 2.48539062 5.2734375 2.83203125 C7 4 7 4 9 7 C8.34 7.66 7.68 8.32 7 9 C4.36 7.02 1.72 5.04 -1 3 C-0.67 2.01 -0.34 1.02 0 0 Z " fill="#000000" transform="translate(416,86)"/>
<path d="M0 0 C0 0.99 0 1.98 0 3 C-3.63 3.66 -7.26 4.32 -11 5 C-10.67 3.68 -10.34 2.36 -10 1 C-6.59437148 0.22157062 -3.49234244 -0.09978121 0 0 Z " fill="#000000" transform="translate(332,627)"/>
<path d="M0 0 C-0.33 1.32 -0.66 2.64 -1 4 C-3.97 4.66 -6.94 5.32 -10 6 C-10.33 5.01 -10.66 4.02 -11 3 C-9.54293274 2.49632243 -8.08429904 1.99717444 -6.625 1.5 C-5.81289063 1.2215625 -5.00078125 0.943125 -4.1640625 0.65625 C-2 0 -2 0 0 0 Z " fill="#000000" transform="translate(351,621)"/>
<path d="M0 0 C0 0.99 0 1.98 0 3 C-4.95 4.485 -4.95 4.485 -10 6 C-10.33 5.01 -10.66 4.02 -11 3 C-4.5 0 -4.5 0 0 0 Z " fill="#000000" transform="translate(370,615)"/>
<path d="M0 0 C0.99 0.33 1.98 0.66 3 1 C3 1.66 3 2.32 3 3 C1.3203125 4.2890625 1.3203125 4.2890625 -0.875 5.625 C-1.95394531 6.29402344 -1.95394531 6.29402344 -3.0546875 6.9765625 C-5 8 -5 8 -7 8 C-6.875 6.25 -6.875 6.25 -6 4 C-3.125 1.6875 -3.125 1.6875 0 0 Z " fill="#000000" transform="translate(181,557)"/>
<path d="M0 0 C0.66 0.33 1.32 0.66 2 1 C0.55527654 4.80881639 -1.32603071 6.29742886 -5 8 C-5.99 7.67 -6.98 7.34 -8 7 C-8 6.34 -8 5.68 -8 5 C-6.3203125 3.67578125 -6.3203125 3.67578125 -4.125 2.3125 C-3.40570313 1.85488281 -2.68640625 1.39726563 -1.9453125 0.92578125 C-1.30335938 0.62027344 -0.66140625 0.31476562 0 0 Z " fill="#000000" transform="translate(198,546)"/>
<path d="M0 0 C0.99 0.33 1.98 0.66 3 1 C1.47291037 4.43595166 -0.59927045 7.11912454 -3 10 C-3.99 9.67 -4.98 9.34 -6 9 C-4 6 -2 3 0 0 Z " fill="#000000" transform="translate(463,543)"/>
<path d="M0 0 C0.33 0.99 0.66 1.98 1 3 C-0.28813342 3.83878455 -1.58063256 4.67086783 -2.875 5.5 C-3.59429687 5.9640625 -4.31359375 6.428125 -5.0546875 6.90625 C-7 8 -7 8 -9 8 C-9.33 7.01 -9.66 6.02 -10 5 C-8.71186658 4.16121545 -7.41936744 3.32913217 -6.125 2.5 C-5.40570313 2.0359375 -4.68640625 1.571875 -3.9453125 1.09375 C-2 0 -2 0 0 0 Z " fill="#000000" transform="translate(382,432)"/>
<path d="M0 0 C0 0.99 0 1.98 0 3 C-4.95 4.485 -4.95 4.485 -10 6 C-10 4.68 -10 3.36 -10 2 C-8.7090864 1.66376204 -7.41723903 1.33110751 -6.125 1 C-5.40570313 0.814375 -4.68640625 0.62875 -3.9453125 0.4375 C-2 0 -2 0 0 0 Z " fill="#000000" transform="translate(419,418)"/>
<path d="M0 0 C0 0.66 0 1.32 0 2 C-3.87684087 3.19287411 -6.91621923 4 -11 4 C-11 3.01 -11 2.02 -11 1 C-3.57142857 -1.42857143 -3.57142857 -1.42857143 0 0 Z " fill="#000000" transform="translate(458,410)"/>
<path d="M0 0 C0 0.99 0 1.98 0 3 C-3.87684087 4.19287411 -6.91621923 5 -11 5 C-11 4.01 -11 3.02 -11 2 C-3.375 0 -3.375 0 0 0 Z " fill="#000000" transform="translate(555,387)"/>
<path d="M0 0 C0.99 0 1.98 0 3 0 C3 3.63 3 7.26 3 11 C2.01 11 1.02 11 0 11 C0 7.37 0 3.74 0 0 Z " fill="#000000" transform="translate(160,385)"/>
<path d="M0 0 C0 0.99 0 1.98 0 3 C-3.82320557 4.42258812 -6.91281305 5.24042276 -11 5 C-11 4.01 -11 3.02 -11 2 C-9.5422647 1.664061 -8.08378894 1.33133376 -6.625 1 C-5.40683594 0.7215625 -5.40683594 0.7215625 -4.1640625 0.4375 C-2 0 -2 0 0 0 Z " fill="#000000" transform="translate(633,370)"/>
<path d="M0 0 C0.99 0 1.98 0 3 0 C4.80230168 3.82989106 5.19622241 6.78121808 5 11 C4.01 10.67 3.02 10.34 2 10 C1.34 6.7 0.68 3.4 0 0 Z " fill="#000000" transform="translate(507,234)"/>
<path d="M0 0 C3.36591427 2.72478774 4.44226276 6.06856792 6 10 C4.68 10 3.36 10 2 10 C-1.07692308 4.58461538 -1.07692308 4.58461538 -0.6875 1.625 C-0.460625 1.08875 -0.23375 0.5525 0 0 Z " fill="#000000" transform="translate(478,161)"/>
<path d="M0 0 C-0.125 1.8125 -0.125 1.8125 -1 4 C-4.20883825 5.95320589 -6.2205439 7 -10 7 C-10 6.01 -10 5.02 -10 4 C-8.71086513 3.32845067 -7.41859796 2.66291141 -6.125 2 C-5.40570313 1.62875 -4.68640625 1.2575 -3.9453125 0.875 C-2 0 -2 0 0 0 Z " fill="#000000" transform="translate(295,76)"/>
<path d="M0 0 C3.3 0.99 6.6 1.98 10 3 C9.67 3.99 9.34 4.98 9 6 C5.7 5.01 2.4 4.02 -1 3 C-0.67 2.01 -0.34 1.02 0 0 Z " fill="#000000" transform="translate(381,69)"/>
<path d="M0 0 C0 0.99 0 1.98 0 3 C-3.63 3.33 -7.26 3.66 -11 4 C-11 3.01 -11 2.02 -11 1 C-7.32589215 -0.17571451 -3.83070817 -0.07366746 0 0 Z " fill="#000000" transform="translate(333,66)"/>
<path d="M0 0 C3.63 0 7.26 0 11 0 C11 0.99 11 1.98 11 3 C7.37 3 3.74 3 0 3 C0 2.01 0 1.02 0 0 Z " fill="#000000" transform="translate(241,636)"/>
<path d="M0 0 C0 0.99 0 1.98 0 3 C-3.63 3.33 -7.26 3.66 -11 4 C-11 3.01 -11 2.02 -11 1 C-7.26562152 0.12132271 -3.83225427 -0.08912219 0 0 Z " fill="#000000" transform="translate(312,631)"/>
<path d="M0 0 C0.99 0 1.98 0 3 0 C3 3.63 3 7.26 3 11 C2.01 11 1.02 11 0 11 C0 7.37 0 3.74 0 0 Z " fill="#000000" transform="translate(164,609)"/>
<path d="M0 0 C0.66 0.99 1.32 1.98 2 3 C0.73308493 3.67408308 -0.53870749 4.33900497 -1.8125 5 C-2.52019531 5.37125 -3.22789062 5.7425 -3.95703125 6.125 C-6 7 -6 7 -9 7 C-9 6.01 -9 5.02 -9 4 C-6.03 2.68 -3.06 1.36 0 0 Z " fill="#000000" transform="translate(387,606)"/>
<path d="M0 0 C0 0.99 0 1.98 0 3 C-5.17578125 6.22265625 -5.17578125 6.22265625 -7 7 C-7.99 6.67 -8.98 6.34 -10 6 C-10 5.34 -10 4.68 -10 4 C-3.375 0 -3.375 0 0 0 Z " fill="#000000" transform="translate(406,597)"/>
<path d="M0 0 C0.66 0.33 1.32 0.66 2 1 C0.54875366 4.82601307 -1.35774704 6.22329124 -5 8 C-5.99 8 -6.98 8 -8 8 C-6.49776416 3.79373966 -3.71449966 2.26099979 0 0 Z " fill="#000000" transform="translate(421,585)"/>
<path d="M0 0 C0.99 0.33 1.98 0.66 3 1 C0.66666667 3.33333333 -1.66666667 5.66666667 -4 8 C-4.99 8 -5.98 8 -7 8 C-5.51218185 4.21282653 -3.38011591 2.22592999 0 0 Z " fill="#000000" transform="translate(436,573)"/>
<path d="M0 0 C0.99 0 1.98 0 3 0 C3 3.63 3 7.26 3 11 C2.01 11 1.02 11 0 11 C0 7.37 0 3.74 0 0 Z " fill="#000000" transform="translate(163,548)"/>
<path d="M0 0 C0.99 0 1.98 0 3 0 C3 3.63 3 7.26 3 11 C2.01 11 1.02 11 0 11 C0 7.37 0 3.74 0 0 Z " fill="#000000" transform="translate(163,528)"/>
<path d="M0 0 C0.99 0.33 1.98 0.66 3 1 C3 1.66 3 2.32 3 3 C0.03 4.65 -2.94 6.3 -6 8 C-6 6.68 -6 5.36 -6 4 C-3.1875 1.6875 -3.1875 1.6875 0 0 Z " fill="#000000" transform="translate(230,525)"/>
<path d="M0 0 C0.99 0 1.98 0 3 0 C3 3.63 3 7.26 3 11 C2.01 11 1.02 11 0 11 C0 7.37 0 3.74 0 0 Z " fill="#000000" transform="translate(162,507)"/>
<path d="M0 0 C0.99 0.33 1.98 0.66 3 1 C3 1.66 3 2.32 3 3 C0.03 4.65 -2.94 6.3 -6 8 C-6 6.68 -6 5.36 -6 4 C-3.1875 1.6875 -3.1875 1.6875 0 0 Z " fill="#000000" transform="translate(263,504)"/>
<path d="M0 0 C0.99 0 1.98 0 3 0 C3 3.63 3 7.26 3 11 C2.01 11 1.02 11 0 11 C0 7.37 0 3.74 0 0 Z " fill="#000000" transform="translate(162,487)"/>
<path d="M0 0 C0.66 0.33 1.32 0.66 2 1 C1 4 1 4 -0.84765625 5.16796875 C-1.57855469 5.50441406 -2.30945313 5.84085937 -3.0625 6.1875 C-3.79597656 6.53167969 -4.52945312 6.87585938 -5.28515625 7.23046875 C-6.13400391 7.61138672 -6.13400391 7.61138672 -7 8 C-7 6.68 -7 5.36 -7 4 C-1.7265625 0.77734375 -1.7265625 0.77734375 0 0 Z " fill="#000000" transform="translate(297,483)"/>
<path d="M0 0 C0 0.99 0 1.98 0 3 C-5.17578125 6.22265625 -5.17578125 6.22265625 -7 7 C-7.99 6.67 -8.98 6.34 -10 6 C-10 5.34 -10 4.68 -10 4 C-3.375 0 -3.375 0 0 0 Z " fill="#000000" transform="translate(332,463)"/>
<path d="M0 0 C0.66 0.33 1.32 0.66 2 1 C1 4 1 4 -0.84765625 5.16796875 C-1.57855469 5.50441406 -2.30945313 5.84085937 -3.0625 6.1875 C-3.79597656 6.53167969 -4.52945312 6.87585938 -5.28515625 7.23046875 C-6.13400391 7.61138672 -6.13400391 7.61138672 -7 8 C-7 6.68 -7 5.36 -7 4 C-1.7265625 0.77734375 -1.7265625 0.77734375 0 0 Z " fill="#000000" transform="translate(347,452)"/>
<path d="M0 0 C0.99 0 1.98 0 3 0 C3 3.63 3 7.26 3 11 C2.01 11 1.02 11 0 11 C0 7.37 0 3.74 0 0 Z " fill="#000000" transform="translate(161,446)"/>
<path d="M0 0 C0.99 0 1.98 0 3 0 C3 3.63 3 7.26 3 11 C2.01 11 1.02 11 0 11 C0 7.37 0 3.74 0 0 Z " fill="#000000" transform="translate(161,426)"/>
<path d="M0 0 C-1 2 -1 2 -3.06640625 2.8515625 C-4.30197266 3.23441406 -4.30197266 3.23441406 -5.5625 3.625 C-6.38878906 3.88539063 -7.21507812 4.14578125 -8.06640625 4.4140625 C-8.70449219 4.60742188 -9.34257812 4.80078125 -10 5 C-10.33 4.01 -10.66 3.02 -11 2 C-6.89657963 -0.38570952 -4.61380251 -1.49270081 0 0 Z " fill="#000000" transform="translate(400,425)"/>
<path d="M0 0 C0 0.99 0 1.98 0 3 C-3.3 3.66 -6.6 4.32 -10 5 C-10.33 4.01 -10.66 3.02 -11 2 C-7.17679443 0.57741188 -4.08718695 -0.24042276 0 0 Z " fill="#000000" transform="translate(438,414)"/>
<path d="M0 0 C0 0.99 0 1.98 0 3 C-3.63 3.66 -7.26 4.32 -11 5 C-11 4.01 -11 3.02 -11 2 C-7.12315913 0.80712589 -4.08378077 0 0 0 Z " fill="#000000" transform="translate(516,396)"/>
<path d="M0 0 C0 0.99 0 1.98 0 3 C-3.3 3.66 -6.6 4.32 -10 5 C-10 3.68 -10 2.36 -10 1 C-6.59437148 0.22157062 -3.49234244 -0.09978121 0 0 Z " fill="#000000" transform="translate(594,379)"/>
<path d="M0 0 C0.99 0 1.98 0 3 0 C3 3.63 3 7.26 3 11 C2.01 11 1.02 11 0 11 C0 7.37 0 3.74 0 0 Z " fill="#000000" transform="translate(160,365)"/>
<path d="M0 0 C0.99 0 1.98 0 3 0 C3 3.63 3 7.26 3 11 C2.01 11 1.02 11 0 11 C0 7.37 0 3.74 0 0 Z " fill="#000000" transform="translate(520,354)"/>
<path d="M0 0 C0.99 0 1.98 0 3 0 C3 3.63 3 7.26 3 11 C2.01 11 1.02 11 0 11 C0 7.37 0 3.74 0 0 Z " fill="#000000" transform="translate(520,334)"/>
<path d="M0 0 C0.99 0 1.98 0 3 0 C3 3.63 3 7.26 3 11 C2.01 11 1.02 11 0 11 C0 7.37 0 3.74 0 0 Z " fill="#000000" transform="translate(159,325)"/>
<path d="M0 0 C0.99 0 1.98 0 3 0 C3 3.63 3 7.26 3 11 C2.01 11 1.02 11 0 11 C0 7.37 0 3.74 0 0 Z " fill="#000000" transform="translate(159,304)"/>
<path d="M0 0 C0.99 0 1.98 0 3 0 C3 3.63 3 7.26 3 11 C2.01 11 1.02 11 0 11 C0 7.37 0 3.74 0 0 Z " fill="#000000" transform="translate(158,284)"/>
<path d="M0 0 C0.99 0 1.98 0 3 0 C3 3.63 3 7.26 3 11 C2.01 11 1.02 11 0 11 C0 7.37 0 3.74 0 0 Z " fill="#000000" transform="translate(158,264)"/>
<path d="M0 0 C0.99 0 1.98 0 3 0 C3.33 3.63 3.66 7.26 4 11 C3.01 11 2.02 11 1 11 C0.67 7.37 0.34 3.74 0 0 Z " fill="#000000" transform="translate(512,254)"/>
<path d="M0 0 C0.99 0 1.98 0 3 0 C3 3.63 3 7.26 3 11 C2.01 11 1.02 11 0 11 C0 7.37 0 3.74 0 0 Z " fill="#000000" transform="translate(157,223)"/>
<path d="M0 0 C0.99 0 1.98 0 3 0 C3 3.63 3 7.26 3 11 C2.01 11 1.02 11 0 11 C0 7.37 0 3.74 0 0 Z " fill="#000000" transform="translate(157,203)"/>
<path d="M0 0 C0.99 0.33 1.98 0.66 3 1 C3.94921875 3.06640625 3.94921875 3.06640625 4.6875 5.5625 C4.93886719 6.38878906 5.19023437 7.21507812 5.44921875 8.06640625 C5.63097656 8.70449219 5.81273437 9.34257812 6 10 C5.01 10.33 4.02 10.66 3 11 C0 4.5 0 4.5 0 0 Z " fill="#000000" transform="translate(486,179)"/>
<path d="M0 0 C0.99 0 1.98 0 3 0 C3 3.63 3 7.26 3 11 C2.01 11 1.02 11 0 11 C0 7.37 0 3.74 0 0 Z " fill="#000000" transform="translate(156,162)"/>
<path d="M0 0 C0.99 0 1.98 0 3 0 C3 3.63 3 7.26 3 11 C2.01 11 1.02 11 0 11 C0 7.37 0 3.74 0 0 Z " fill="#000000" transform="translate(156,142)"/>
<path d="M0 0 C0.66 0 1.32 0 2 0 C3.32421875 1.42578125 3.32421875 1.42578125 4.6875 3.3125 C5.14511719 3.92738281 5.60273438 4.54226562 6.07421875 5.17578125 C6.53248047 6.07876953 6.53248047 6.07876953 7 7 C6.67 7.99 6.34 8.98 6 10 C5.34 10 4.68 10 4 10 C2.67578125 8.57421875 2.67578125 8.57421875 1.3125 6.6875 C0.85488281 6.07261719 0.39726562 5.45773438 -0.07421875 4.82421875 C-0.53248047 3.92123047 -0.53248047 3.92123047 -1 3 C-0.67 2.01 -0.34 1.02 0 0 Z " fill="#000000" transform="translate(457,128)"/>
<path d="M0 0 C3.13506611 0.33589994 4.025249 1.02665172 6.25 3.375 C8 6 8 6 8 9 C7.01 9 6.02 9 5 9 C0 3.76744186 0 3.76744186 0 0 Z " fill="#000000" transform="translate(444,113)"/>
<path d="M0 0 C0.99 0 1.98 0 3 0 C3 3.63 3 7.26 3 11 C2.01 11 1.02 11 0 11 C0 7.37 0 3.74 0 0 Z " fill="#000000" transform="translate(155,101)"/>
<path d="M0 0 C0 0.66 0 1.32 0 2 C-6.625 6 -6.625 6 -10 6 C-10 5.01 -10 4.02 -10 3 C-3.375 -1.125 -3.375 -1.125 0 0 Z " fill="#000000" transform="translate(278,86)"/>
<path d="M0 0 C0.99 0 1.98 0 3 0 C3 3.63 3 7.26 3 11 C2.01 11 1.02 11 0 11 C0 7.37 0 3.74 0 0 Z " fill="#000000" transform="translate(155,81)"/>
<path d="M0 0 C3.63 0 7.26 0 11 0 C10.67 0.99 10.34 1.98 10 3 C6.7 3 3.4 3 0 3 C0 2.01 0 1.02 0 0 Z " fill="#000000" transform="translate(281,634)"/>
<path d="M0 0 C1.258125 -0.020625 2.51625 -0.04125 3.8125 -0.0625 C4.52019531 -0.07410156 5.22789062 -0.08570313 5.95703125 -0.09765625 C8 0 8 0 11 1 C10.67 1.99 10.34 2.98 10 4 C6.7 3.67 3.4 3.34 0 3 C0 2.01 0 1.02 0 0 Z " fill="#000000" transform="translate(181,632)"/>
<path d="M0 0 C0.99 0.33 1.98 0.66 3 1 C3 4.3 3 7.6 3 11 C2.01 11 1.02 11 0 11 C0 7.37 0 3.74 0 0 Z " fill="#000000" transform="translate(164,588)"/>
<path d="M0 0 C0 0.99 0 1.98 0 3 C-2.75 5.25 -2.75 5.25 -6 7 C-8.375 6.75 -8.375 6.75 -10 6 C-4.2 0 -4.2 0 0 0 Z " fill="#000000" transform="translate(216,536)"/>
<path d="M0 0 C0 0.99 0 1.98 0 3 C-5.17578125 6.22265625 -5.17578125 6.22265625 -7 7 C-7.99 6.67 -8.98 6.34 -10 6 C-4.15384615 0 -4.15384615 0 0 0 Z " fill="#000000" transform="translate(249,515)"/>
<path d="M0 0 C0.66 0.33 1.32 0.66 2 1 C1.49701212 5.40114397 -0.08772731 7.71195019 -3 11 C-3.66 10.34 -4.32 9.68 -5 9 C-3.35 6.03 -1.7 3.06 0 0 Z " fill="#000000" transform="translate(485,509)"/>
<path d="M0 0 C0 0.99 0 1.98 0 3 C-5.17578125 6.22265625 -5.17578125 6.22265625 -7 7 C-7.99 6.67 -8.98 6.34 -10 6 C-4.2 0 -4.2 0 0 0 Z " fill="#000000" transform="translate(282,494)"/>
<path d="M0 0 C0.99 0.66 1.98 1.32 3 2 C1.68 4.97 0.36 7.94 -1 11 C-1.99 10.67 -2.98 10.34 -4 10 C-2.68 6.7 -1.36 3.4 0 0 Z " fill="#000000" transform="translate(501,472)"/>
<path d="M0 0 C0.99 0.66 1.98 1.32 3 2 C2.01 4.97 1.02 7.94 0 11 C-0.99 11 -1.98 11 -3 11 C-2.69078116 9.54096742 -2.37751201 8.08279278 -2.0625 6.625 C-1.88847656 5.81289063 -1.71445312 5.00078125 -1.53515625 4.1640625 C-1 2 -1 2 0 0 Z " fill="#000000" transform="translate(507,453)"/>
<path d="M0 0 C0.66 0.99 1.32 1.98 2 3 C0.71186658 3.83878455 -0.58063256 4.67086783 -1.875 5.5 C-2.59429687 5.9640625 -3.31359375 6.428125 -4.0546875 6.90625 C-6 8 -6 8 -8 8 C-8.33 7.01 -8.66 6.02 -9 5 C-6.03 3.35 -3.06 1.7 0 0 Z " fill="#000000" transform="translate(364,442)"/>
<path d="M0 0 C0.99 0 1.98 0 3 0 C2.67 3.63 2.34 7.26 2 11 C1.01 11 0.02 11 -1 11 C-0.67 7.37 -0.34 3.74 0 0 Z " fill="#000000" transform="translate(515,414)"/>
<path d="M0 0 C-0.33 0.99 -0.66 1.98 -1 3 C-3.06640625 3.73046875 -3.06640625 3.73046875 -5.5625 4.1875 C-6.38878906 4.34605469 -7.21507812 4.50460937 -8.06640625 4.66796875 C-9.02353516 4.83232422 -9.02353516 4.83232422 -10 5 C-10 3.68 -10 2.36 -10 1 C-6.59437148 0.22157062 -3.49234244 -0.09978121 0 0 Z " fill="#000000" transform="translate(477,405)"/>
<path d="M0 0 C0.33 0.99 0.66 1.98 1 3 C-2.87684087 4.19287411 -5.91621923 5 -10 5 C-10 4.01 -10 3.02 -10 2 C-8.7090864 1.66376204 -7.41723903 1.33110751 -6.125 1 C-5.40570313 0.814375 -4.68640625 0.62875 -3.9453125 0.4375 C-2 0 -2 0 0 0 Z " fill="#000000" transform="translate(496,400)"/>
<path d="M0 0 C0.99 0 1.98 0 3 0 C2.67 3.63 2.34 7.26 2 11 C1.01 11 0.02 11 -1 11 C-0.67 7.37 -0.34 3.74 0 0 Z " fill="#000000" transform="translate(518,394)"/>
<path d="M0 0 C0.99 0 1.98 0 3 0 C4.20272819 2.40545638 4.10071472 3.94996953 4.0625 6.625 C4.05347656 7.44226563 4.04445313 8.25953125 4.03515625 9.1015625 C4.02355469 9.72804688 4.01195312 10.35453125 4 11 C3.01 11 2.02 11 1 11 C0.67 7.37 0.34 3.74 0 0 Z " fill="#000000" transform="translate(517,294)"/>
<path d="M0 0 C0.99 0 1.98 0 3 0 C3.33 3.3 3.66 6.6 4 10 C3.01 10.33 2.02 10.66 1 11 C0.67 7.37 0.34 3.74 0 0 Z " fill="#000000" transform="translate(515,274)"/>
<path d="M0 0 C0.99 0.33 1.98 0.66 3 1 C3.94921875 3.06640625 3.94921875 3.06640625 4.6875 5.5625 C4.93886719 6.38878906 5.19023437 7.21507812 5.44921875 8.06640625 C5.63097656 8.70449219 5.81273437 9.34257812 6 10 C5.01 10.33 4.02 10.66 3 11 C1.68 7.7 0.36 4.4 -1 1 C-0.67 0.67 -0.34 0.34 0 0 Z " fill="#000000" transform="translate(494,197)"/>
<path d="M0 0 C0.99 0.66 1.98 1.32 3 2 C2.24266726 3.3410477 1.46867264 4.67269781 0.6875 6 C0.25824219 6.7425 -0.17101562 7.485 -0.61328125 8.25 C-1.07089844 8.8275 -1.52851563 9.405 -2 10 C-2.99 10 -3.98 10 -5 10 C-3.66511872 6.40608886 -2.03977277 3.24509304 0 0 Z " fill="#000000" transform="translate(177,179)"/>
<path d="M0 0 C0.99 0.66 1.98 1.32 3 2 C2.04956626 3.33897583 1.08940853 4.67105427 0.125 6 C-0.40867188 6.7425 -0.94234375 7.485 -1.4921875 8.25 C-1.98976562 8.8275 -2.48734375 9.405 -3 10 C-3.66 10 -4.32 10 -5 10 C-4.38545304 6.00544473 -2.29353263 3.25533664 0 0 Z " fill="#000000" transform="translate(188,163)"/>
<path d="M0 0 C0.99 0.33 1.98 0.66 3 1 C1.26440562 4.057952 -0.38472619 6.63379989 -3 9 C-3.99 8.67 -4.98 8.34 -6 8 C-4.02 5.36 -2.04 2.72 0 0 Z " fill="#000000" transform="translate(200,148)"/>
<path d="M0 0 C1.8125 0.1875 1.8125 0.1875 4 1 C5.8125 3.3125 5.8125 3.3125 7 6 C6.6875 8.3125 6.6875 8.3125 6 10 C2.51668565 6.98112756 1.20842856 4.43090471 0 0 Z " fill="#000000" transform="translate(467,145)"/>
<path d="M0 0 C0.99 0.33 1.98 0.66 3 1 C3 1.66 3 2.32 3 3 C-2.35714286 8 -2.35714286 8 -6 8 C-5.66354211 4.85972637 -4.94763914 3.94901705 -2.625 1.6875 C-1.75875 1.130625 -0.8925 0.57375 0 0 Z " fill="#000000" transform="translate(242,107)"/>
<path d="M0 0 C0.66 0.33 1.32 0.66 2 1 C0.65117186 5.04648443 -1.34826069 5.95502599 -5 8 C-5.99 7.67 -6.98 7.34 -8 7 C-5.42215154 4.35247996 -3.08351902 2.05567935 0 0 Z " fill="#000000" transform="translate(259,95)"/>
<path d="M0 0 C0.99 0 1.98 0 3 0 C3 3.63 3 7.26 3 11 C2.01 10.67 1.02 10.34 0 10 C0 6.7 0 3.4 0 0 Z " fill="#000000" transform="translate(154,61)"/>
<path d="M0 0 C0 0.99 0 1.98 0 3 C-3.63 3.33 -7.26 3.66 -11 4 C-11 3.01 -11 2.02 -11 1 C-7.32589215 -0.17571451 -3.83070817 -0.07366746 0 0 Z " fill="#000000" transform="translate(272,635)"/>
<path d="M0 0 C1.45823212 -0.0270043 2.91660675 -0.04639787 4.375 -0.0625 C5.18710938 -0.07410156 5.99921875 -0.08570313 6.8359375 -0.09765625 C9 0 9 0 11 1 C11 1.66 11 2.32 11 3 C7.37 3 3.74 3 0 3 C0 2.01 0 1.02 0 0 Z " fill="#000000" transform="translate(201,634)"/>
<path d="M0 0 C-1.5830577 4.2742558 -4.50568404 6.26531794 -8 9 C-8 5 -8 5 -5.6875 2.25 C-3 0 -3 0 0 0 Z " fill="#000000" transform="translate(453,559)"/>
<path d="M0 0 C0.66 0.33 1.32 0.66 2 1 C1.01 3.97 0.02 6.94 -1 10 C-1.99 10 -2.98 10 -4 10 C-3.43454163 6.04179141 -2.19097652 3.3340947 0 0 Z " fill="#000000" transform="translate(494,491)"/>
<path d="M0 0 C-2.25740623 2.33524782 -4.2805761 4.18705073 -7 6 C-7.99 6 -8.98 6 -10 6 C-10 5.01 -10 4.02 -10 3 C-3.375 -1.125 -3.375 -1.125 0 0 Z " fill="#000000" transform="translate(316,474)"/>
<path d="M0 0 C0.66 0 1.32 0 2 0 C1.67 3.3 1.34 6.6 1 10 C0.01 10.33 -0.98 10.66 -2 11 C-1.85957123 9.35369672 -1.71250671 7.70795821 -1.5625 6.0625 C-1.48128906 5.14597656 -1.40007812 4.22945313 -1.31640625 3.28515625 C-1 1 -1 1 0 0 Z " fill="#000000" transform="translate(512,434)"/>
<path d="M0 0 C0.99 0.33 1.98 0.66 3 1 C2.67 4.3 2.34 7.6 2 11 C1.01 11 0.02 11 -1 11 C-1.125 3.375 -1.125 3.375 0 0 Z " fill="#000000" transform="translate(520,374)"/>
<path d="M0 0 C0 0.99 0 1.98 0 3 C-3.61973402 4.31626692 -6.09567131 5 -10 5 C-10 4.01 -10 3.02 -10 2 C-8.7090864 1.66376204 -7.41723903 1.33110751 -6.125 1 C-5.40570312 0.814375 -4.68640625 0.62875 -3.9453125 0.4375 C-2 0 -2 0 0 0 Z " fill="#000000" transform="translate(652,366)"/>
<path d="M0 0 C0.99 0 1.98 0 3 0 C3.33 3.63 3.66 7.26 4 11 C3.01 11 2.02 11 1 11 C0.67 7.37 0.34 3.74 0 0 Z " fill="#000000" transform="translate(519,314)"/>
<path d="M0 0 C0.66 0 1.32 0 2 0 C3.20272819 2.40545638 3.10071472 3.94996953 3.0625 6.625 C3.05347656 7.44226563 3.04445312 8.25953125 3.03515625 9.1015625 C3.02355469 9.72804687 3.01195312 10.35453125 3 11 C2.01 11 1.02 11 0 11 C0 7.37 0 3.74 0 0 Z " fill="#000000" transform="translate(158,243)"/>
<path d="M0 0 C2 1 2 1 2.8515625 3.06640625 C3.10679687 3.89011719 3.36203125 4.71382812 3.625 5.5625 C3.88539063 6.38878906 4.14578125 7.21507812 4.4140625 8.06640625 C4.60742188 8.70449219 4.80078125 9.34257812 5 10 C3.68 10 2.36 10 1 10 C0.63883954 8.5225254 0.28624952 7.04295325 -0.0625 5.5625 C-0.25972656 4.73878906 -0.45695312 3.91507813 -0.66015625 3.06640625 C-0.82837891 2.04353516 -0.82837891 2.04353516 -1 1 C-0.67 0.67 -0.34 0.34 0 0 Z " fill="#000000" transform="translate(502,215)"/>
<path d="M0 0 C-1.5830577 4.2742558 -4.50568404 6.26531794 -8 9 C-8 5 -8 5 -5.6875 2.25 C-3 0 -3 0 0 0 Z " fill="#000000" transform="translate(230,120)"/>
<path d="M0 0 C3.3 1.65 6.6 3.3 10 5 C9.67 5.66 9.34 6.32 9 7 C4.59885603 6.49701212 2.28804981 4.91227269 -1 2 C-0.67 1.34 -0.34 0.68 0 0 Z " fill="#000000" transform="translate(399,76)"/>
<path d="M0 0 C0 0.66 0 1.32 0 2 C-3.87684087 3.19287411 -6.91621923 4 -11 4 C-10.67 3.01 -10.34 2.02 -10 1 C-6.34742296 -0.62336757 -3.80637601 -1.46399077 0 0 Z " fill="#000000" transform="translate(314,71)"/>
<path d="M0 0 C3.3 0.33 6.6 0.66 10 1 C10.33 1.99 10.66 2.98 11 4 C3.57142857 4.14285714 3.57142857 4.14285714 0 3 C0 2.01 0 1.02 0 0 Z " fill="#000000" transform="translate(361,65)"/>
<path d="M0 0 C3.63 0.33 7.26 0.66 11 1 C11 1.99 11 2.98 11 4 C7.37 3.67 3.74 3.34 0 3 C0 2.01 0 1.02 0 0 Z " fill="#000000" transform="translate(221,635)"/>
<path d="M0 0 C0.99 0 1.98 0 3 0 C2.38545304 3.99455527 0.29353263 6.74466336 -2 10 C-2.66 9.67 -3.32 9.34 -4 9 C-2.80100302 5.9168649 -1.52299523 2.93720508 0 0 Z " fill="#000000" transform="translate(474,527)"/>
<path d="M0 0 C0.66 0 1.32 0 2 0 C3.28317892 3.84953676 3.06643637 6.94738135 3 11 C2.01 11 1.02 11 0 11 C0 7.37 0 3.74 0 0 Z " fill="#000000" transform="translate(162,467)"/>
<path d="M0 0 C0.33 0.66 0.66 1.32 1 2 C-2.82320557 3.42258812 -5.91281305 4.24042276 -10 4 C-10 3.01 -10 2.02 -10 1 C-6.59437148 0.22157062 -3.49234244 -0.09978121 0 0 Z " fill="#000000" transform="translate(535,392)"/>
<path d="M0 0 C0 0.99 0 1.98 0 3 C-3.3 3.66 -6.6 4.32 -10 5 C-10 4.01 -10 3.02 -10 2 C-3.375 0 -3.375 0 0 0 Z " fill="#000000" transform="translate(574,383)"/>
<path d="M0 0 C-0.33 0.99 -0.66 1.98 -1 3 C-5.455 3.495 -5.455 3.495 -10 4 C-10 3.01 -10 2.02 -10 1 C-6.59437148 0.22157062 -3.49234244 -0.09978121 0 0 Z " fill="#000000" transform="translate(613,375)"/>
<path d="M0 0 C0 0.99 0 1.98 0 3 C-3.3 3.66 -6.6 4.32 -10 5 C-10 4.01 -10 3.02 -10 2 C-8.7090864 1.66376204 -7.41723903 1.33110751 -6.125 1 C-5.40570312 0.814375 -4.68640625 0.62875 -3.9453125 0.4375 C-2 0 -2 0 0 0 Z " fill="#000000" transform="translate(691,358)"/>
<path d="M0 0 C0.66 0.33 1.32 0.66 2 1 C0.55746343 4.36591866 -1.33264727 6.51047079 -4 9 C-4.99 8.67 -5.98 8.34 -7 8 C-6.02133662 6.85373678 -5.04205413 5.70800212 -4.0625 4.5625 C-3.51722656 3.92441406 -2.97195312 3.28632813 -2.41015625 2.62890625 C-1.63204305 1.73008851 -0.84063472 0.84063472 0 0 Z " fill="#000000" transform="translate(214,133)"/>
<path d="M0 0 C3.36591866 1.44253657 5.51047079 3.33264727 8 6 C7.67 6.99 7.34 7.98 7 9 C5.82460004 8.07347299 4.65989423 7.13336613 3.5 6.1875 C2.52546875 5.40439453 2.52546875 5.40439453 1.53125 4.60546875 C0 3 0 3 0 0 Z " fill="#000000" transform="translate(431,99)"/>
<path d="M0 0 C2.64 0.33 5.28 0.66 8 1 C7.67 1.99 7.34 2.98 7 4 C5.68 4 4.36 4 3 4 C3 4.66 3 5.32 3 6 C2.34 6 1.68 6 1 6 C0.67 4.02 0.34 2.04 0 0 Z " fill="#000000" transform="translate(164,629)"/>
<path d="M0 0 C0.99 0 1.98 0 3 0 C3 3.63 3 7.26 3 11 C2.34 11 1.68 11 1 11 C0.67 7.37 0.34 3.74 0 0 Z " fill="#000000" transform="translate(159,345)"/>
<path d="M0 0 C0.99 0 1.98 0 3 0 C3 3.63 3 7.26 3 11 C2.34 11 1.68 11 1 11 C0.67 7.37 0.34 3.74 0 0 Z " fill="#000000" transform="translate(155,122)"/>
<path d="M0 0 C0 0.66 0 1.32 0 2 C-3.3 2.33 -6.6 2.66 -10 3 C-10.33 2.01 -10.66 1.02 -11 0 C-6.98195309 -0.84098656 -3.98196457 -1.05404945 0 0 Z " fill="#000000" transform="translate(352,65)"/>
<path d="M0 0 C0.99 0 1.98 0 3 0 C3.33 3.63 3.66 7.26 4 11 C3.01 11 2.02 11 1 11 C0.67 7.37 0.34 3.74 0 0 Z " fill="#000000" transform="translate(160,406)"/>
<path d="M0 0 C0.66 0 1.32 0 2 0 C2.33 3.3 2.66 6.6 3 10 C2.01 10.33 1.02 10.66 0 11 C0 7.37 0 3.74 0 0 Z " fill="#000000" transform="translate(157,183)"/>
<path d="M0 0 C0.99 0.66 1.98 1.32 3 2 C2.34 3.32 1.68 4.64 1 6 C0.01 6 -0.98 6 -2 6 C-1.125 1.125 -1.125 1.125 0 0 Z " fill="#000000" transform="translate(167,196)"/>
<path d="M0 0 C1.98 0 3.96 0 6 0 C5.67 0.99 5.34 1.98 5 3 C3.35 3 1.7 3 0 3 C0 2.01 0 1.02 0 0 Z " fill="#000000" transform="translate(700,356)"/>
<path d="M0 0 C0.99 0 1.98 0 3 0 C3 1.65 3 3.3 3 5 C2.01 5.33 1.02 5.66 0 6 C0 4.02 0 2.04 0 0 Z " fill="#000000" transform="translate(154,46)"/>
<path d="M0 0 C0.99 0.33 1.98 0.66 3 1 C2.67 1.99 2.34 2.98 2 4 C1.01 3.67 0.02 3.34 -1 3 C-0.67 2.01 -0.34 1.02 0 0 Z " fill="#000000" transform="translate(536,617)"/>
<path d="M0 0 C0.99 0.33 1.98 0.66 3 1 C2.67 1.99 2.34 2.98 2 4 C1.01 3.67 0.02 3.34 -1 3 C-0.67 2.01 -0.34 1.02 0 0 Z " fill="#000000" transform="translate(320,361)"/>
<path d="M0 0 C0.99 0.33 1.98 0.66 3 1 C2.67 1.99 2.34 2.98 2 4 C1.01 3.67 0.02 3.34 -1 3 C-0.67 2.01 -0.34 1.02 0 0 Z " fill="#000000" transform="translate(663,295)"/>
<path d="M0 0 C0.99 0.33 1.98 0.66 3 1 C2.67 1.99 2.34 2.98 2 4 C1.01 3.67 0.02 3.34 -1 3 C-0.67 2.01 -0.34 1.02 0 0 Z " fill="#000000" transform="translate(536,38)"/>
</svg>
