<?xml version="1.0" encoding="UTF-8"?>
<svg version="1.1" xmlns="http://www.w3.org/2000/svg" width="765" height="714">
<path d="M0 0 C5.4155937 5.07777889 9.60298177 10.67691494 10.17327881 18.32326317 C10.12530568 20.9419272 9.97175901 23.53335643 9.77734375 26.14526367 C9.71744483 27.14200167 9.65754591 28.13873966 9.59583187 29.16568184 C9.46260609 31.34526059 9.32135647 33.52436019 9.17307854 35.70296669 C8.93095625 39.26421739 8.71016461 42.82627341 8.49427795 46.38920593 C8.17726162 51.5888331 7.85177668 56.78785214 7.51931763 61.98651123 C6.62363619 76.02549888 5.80280409 90.06893525 4.99609375 104.11328125 C4.95383061 104.84639778 4.91156747 105.57951431 4.86802363 106.3348465 C2.75485492 143.04036814 1.38965292 179.7684668 0.14281464 216.51222277 C0.0622966 218.88098388 -0.01872342 221.24972729 -0.09991455 223.61846542 C-0.45685937 234.03450397 -0.80850337 244.45070783 -1.15234375 254.8671875 C-1.17475907 255.54584673 -1.19717439 256.22450595 -1.22026896 256.92373061 C-1.36662567 261.36427963 -1.51012745 265.80491429 -1.65209961 270.24560547 C-1.68787109 271.34278491 -1.72364258 272.43996435 -1.76049805 273.57039165 C-1.92242215 278.71665288 -2.04048476 283.85119114 -2 289 C-1.8455542 288.30068359 -1.6911084 287.60136719 -1.53198242 286.88085938 C18.24510595 198.09450809 18.24510595 198.09450809 37 160 C37.72074707 158.53530273 37.72074707 158.53530273 38.45605469 157.04101562 C52.8996433 128.00985248 69.52466901 99.56543263 92 76 C93.18529297 74.71802734 93.18529297 74.71802734 94.39453125 73.41015625 C121.5635383 44.88945731 158.65202658 29.17111157 197.58203125 28.03515625 C215.16785056 27.77529424 233.08054376 28.98316236 250 34 C250.77682129 34.2278418 251.55364258 34.45568359 252.35400391 34.69042969 C270.12787859 40.06054469 287.58394475 48.17258625 302 60 C303.01835937 60.80695313 304.03671875 61.61390625 305.0859375 62.4453125 C327.45180407 80.48057435 342.0048036 102.65644363 352.375 129.25 C352.79201172 130.31444336 353.20902344 131.37888672 353.63867188 132.47558594 C358.02172748 144.06244012 360.37391461 155.40440148 361.1875 167.75 C361.26935547 168.76964844 361.35121094 169.78929687 361.43554688 170.83984375 C362.8524234 190.7713673 362.00251366 210.79616774 360.82421875 230.71484375 C360.69143009 233.05083263 360.55909952 235.38684758 360.4271698 237.72288513 C359.34450711 256.71924692 358.17267053 275.71048564 357.01381242 294.70231712 C356.62565474 301.06692004 356.23975766 307.43165722 355.85519409 313.79647827 C355.79988655 314.71162095 355.74457901 315.62676362 355.68759549 316.56963789 C355.40547946 321.23877842 355.1237349 325.90794109 354.84237862 330.57712746 C354.27368863 340.00458668 353.69788569 349.4315287 353.10766602 358.85766602 C338.43473751 482.27316195 338.43473751 482.27316195 370.83984375 596.421875 C374.25391201 599.91274234 377.23798151 601.47371989 382.125 601.875 C393.47366961 601.04192591 402.85384643 594.27123943 410.35546875 586.1875 C426.99474493 566.60752921 437.64702672 542.68677374 447 519 C447.27070312 518.31460144 447.54140625 517.62920288 447.8203125 516.92303467 C459.06648805 488.28373125 467.24246348 458.86014436 475.15643311 429.15673828 C476.21454948 425.19712762 477.28676781 421.24142077 478.35995483 417.28587341 C479.30259458 413.80592888 480.23764878 410.32399301 481.16931152 406.84109497 C481.58956866 405.27059431 482.011299 403.70048692 482.43469238 402.13082886 C484.61228892 394.03001402 486.36819557 386.04272438 487.53637695 377.72241211 C488.86478375 369.921957 493.00857348 362.97882674 499.19140625 358.0859375 C506.03323293 353.97788606 513.2877246 354.25416267 521 355 C528.89452869 357.17416165 534.46488173 362.32357867 539 369 C547.23391422 384.35740236 546.12507867 397.58270912 542.59375 414.03125 C542.35342041 415.16802185 542.11309082 416.3047937 541.86547852 417.47601318 C541.08463695 421.15236089 540.2938015 424.82642992 539.5 428.5 C539.22889404 429.75808472 538.95778809 431.01616943 538.6784668 432.31237793 C527.96902317 481.86445311 513.78915996 530.06084709 492 576 C491.66935547 576.6997998 491.33871094 577.39959961 490.99804688 578.12060547 C471.32755452 619.4266841 444.37968472 650.5278638 400.78125 666.33984375 C369.23220739 677.45706684 328.08769364 674.36400892 297.73242188 660.25366211 C280.21384912 651.65542278 265.7761567 639.51301604 254 624 C253.5683252 623.43796875 253.13665039 622.8759375 252.69189453 622.296875 C245.76236605 613.24445583 239.61459347 603.91710812 234 594 C233.63165039 593.36433105 233.26330078 592.72866211 232.88378906 592.07373047 C218.56189938 567.23711431 210.87462314 538.99175831 205.1875 511.0625 C204.91341309 509.71877319 204.91341309 509.71877319 204.63378906 508.34790039 C204.036531 505.23879128 203.50860797 502.12494343 203 499 C202.87671326 498.25495209 202.75342651 497.50990417 202.62640381 496.74227905 C200.16461192 481.54292715 199.4202502 466.56793812 199.25 451.1875 C199.23286957 449.99810822 199.21573914 448.80871643 199.1980896 447.58328247 C198.5407701 401.68673603 198.99813608 355.86988843 204.77175903 310.29922485 C207.14316793 291.56784677 208.81998863 272.84283983 210 254 C210.05220703 253.17661133 210.10441406 252.35322266 210.15820312 251.50488281 C211.65545779 227.61350439 212.19691645 203.7493209 212.25 179.8125 C212.25526703 178.59629974 212.26053406 177.38009949 212.26596069 176.12704468 C213.22434965 141.94023084 213.22434965 141.94023084 199 112 C192.43360539 106.36569954 185.00509985 104.65051744 176.5 105.125 C162.92108142 106.77035643 152.57078511 115.90775414 143 125 C142.48888672 125.47324707 141.97777344 125.94649414 141.45117188 126.43408203 C112.26251992 153.54159364 99.0791346 195.65846608 84.5625 231.8125 C84.22720276 232.64599976 83.89190552 233.47949951 83.54644775 234.33825684 C77.12775733 250.32787429 71.29329285 266.37901424 66.5 282.9375 C66.08503249 284.35833796 65.66999056 285.77915418 65.25488281 287.19995117 C60.71457134 302.79833235 56.3569764 318.44953774 51.99804688 334.09936523 C51.71563141 335.1130014 51.43321594 336.12663757 51.14224243 337.17098999 C50.58012603 339.18976731 50.0187411 341.20874844 49.45809937 343.22793579 C48.13675481 347.9759209 46.79758335 352.71693556 45.40673828 357.44506836 C41.86200665 369.51715606 38.90973858 381.61463643 36.375 393.9375 C36.17089508 394.91869812 35.96679016 395.89989624 35.75650024 396.91082764 C29.71621934 426.07801439 24.9125705 455.48706531 20.0258131 484.86501503 C19.23176991 489.63134039 18.42188158 494.39480607 17.60620117 499.1574707 C15.34601808 512.39007776 13.21011083 525.57147412 11.9375 538.9375 C11.7794806 540.51448778 11.6214393 542.09147336 11.46337891 543.66845703 C9.73972977 561.29141676 8.55992253 578.96535725 7.39428711 596.63256836 C7.31594131 597.78338394 7.23759552 598.93419952 7.15687561 600.11988831 C7.01023266 602.27643302 6.86899878 604.43335556 6.73435974 606.59068298 C5.90382032 618.65588181 4.2438598 625.68052618 -5 634 C-25.28323249 649.59084289 -51.88034842 652.94542685 -76.61010742 649.98217773 C-92.12719235 647.8822115 -106.10670802 641.23333872 -115.765625 628.7109375 C-127.00278144 612.53920366 -130.81386824 590.965202 -133.375 571.8125 C-133.47505341 571.07945648 -133.57510681 570.34641296 -133.67819214 569.59115601 C-142.67582423 503.11130978 -146.50179761 436.02095711 -148 369 C-148.02143066 368.04765472 -148.04286133 367.09530945 -148.06494141 366.11410522 C-148.41406634 350.58134226 -148.74289204 335.04820778 -149.05641937 319.51468658 C-149.12374883 316.18684075 -149.19200648 312.85901483 -149.26031494 309.53118896 C-150.1767308 264.50022111 -150.10279646 219.72133631 -148.2623291 174.71258545 C-148.07834744 170.1574447 -147.9035061 165.60197143 -147.72862911 161.0464735 C-145.15788494 94.23458552 -145.15788494 94.23458552 -142.1875 73.5625 C-142.01790771 72.34425537 -141.84831543 71.12601074 -141.67358398 69.87084961 C-135.23742212 25.28844265 -135.23742212 25.28844265 -124 11 C-123.2575 9.96875 -122.515 8.9375 -121.75 7.875 C-94.76173517 -20.34000414 -29.82965762 -24.33321399 0 0 Z M-118.3671875 12.93359375 C-123.22956558 19.0871775 -126.03912728 25.13176837 -128.0625 32.6875 C-128.43918823 34.05672607 -128.43918823 34.05672607 -128.82348633 35.45361328 C-139.74279867 76.22883601 -140.24241088 118.85159716 -141.85986328 160.76489258 C-142.03353881 165.25574891 -142.21389543 169.74625057 -142.40087891 174.23657227 C-144.4114338 222.59674459 -144.24091637 270.83938711 -143.19309235 319.22148132 C-143.12336124 322.45089483 -143.05513699 325.6803374 -142.98724365 328.90979004 C-142.69670082 342.68615561 -142.389017 356.46206922 -142.06494141 370.23768616 C-142.00381401 372.83776917 -141.94327352 375.43786529 -141.8828125 378.03796387 C-147.06986642 511.19178517 -147.06986642 511.19178517 -106.25 630.625 C-92.18915374 643.41736013 -73.26875037 645.7395446 -55 645 C-35.92530405 643.79048186 -15.96066123 638.17851248 -2.75 623.5 C0.04542012 619.50654268 0.17543735 615.76798103 0.5090332 610.96679688 C0.59615067 609.74190552 0.68326813 608.51701416 0.77302551 607.25500488 C0.81804514 606.59972305 0.86306477 605.94444122 0.90944862 605.26930237 C1.05377634 603.17529513 1.20322998 601.08170832 1.35404968 598.98815918 C1.78230545 593.03314287 2.20326635 587.07762876 2.61694336 581.12158203 C5.07537243 545.83287005 9.12196694 511.1119778 15.22658539 476.26155853 C15.69587941 473.57706747 16.16140109 470.8919471 16.62579346 468.206604 C25.28471859 418.15059037 35.39488633 369.21128965 49.56512451 320.41021729 C51.24388899 314.62567453 52.90559565 308.83655183 54.55369568 303.04319763 C55.69346237 299.03761053 56.83811419 295.03342716 57.98330688 291.02938843 C58.5246837 289.13312504 59.06429424 287.23635625 59.60189819 285.33901978 C65.02575782 266.21458833 71.53070465 247.64287156 79.0625 229.25 C79.38092865 228.46850586 79.6993573 227.68701172 80.0274353 226.88183594 C112.04674931 148.34288718 112.04674931 148.34288718 130 130 C131.33065156 128.50078602 132.66115722 127.00143297 133.98681641 125.49780273 C144.13495765 114.0914062 158.24755783 100.53261782 174.3671875 99.56640625 C175.86960796 99.54287436 177.37253434 99.5420572 178.875 99.5625 C179.66438965 99.57079834 180.4537793 99.57909668 181.26708984 99.58764648 C190.30488905 99.84887067 197.46377504 102.41901653 204.1171875 108.6953125 C219.67286614 127.7364959 218.36371662 155.11914085 218.25 178.25 C218.24689819 179.37838287 218.24379639 180.50676575 218.24060059 181.66934204 C218.0918943 228.31205044 215.73634064 275.14705458 209.36645508 321.37841797 C204.00151772 360.9720318 204.66846598 401.5884192 204.98364258 441.4675293 C204.99915834 443.86969288 205.00457874 446.2716197 205.00585938 448.67382812 C205.09308349 516.40706184 225.03840534 585.78706675 272.3125 635.6875 C297.09750849 659.72278403 330.85608595 666.25298175 364.3125 666.4375 C365.47297852 666.4475708 366.63345703 666.4576416 367.82910156 666.46801758 C379.31531659 666.35203675 390.32355276 664.04469751 401.0625 660 C401.84488037 659.70730225 402.62726074 659.41460449 403.43334961 659.11303711 C417.08293465 653.81033031 431.32259143 647.18487572 442 637 C442.51546387 636.52256348 443.03092773 636.04512695 443.56201172 635.55322266 C493.15608164 589.40377359 515.55830414 510.98137409 529.47216797 446.43353271 C530.06964113 443.67892444 530.67705962 440.92659869 531.28515625 438.17431641 C532.47338383 432.78810126 533.64206928 427.39791868 534.79907227 422.00491333 C535.26245151 419.85310909 535.7303124 417.70226456 536.20288086 415.55245972 C536.86889782 412.51190497 537.51488458 409.46771242 538.15625 406.421875 C538.35790771 405.51879105 538.55956543 404.61570709 538.76733398 403.68525696 C541.26446076 391.55479105 538.66281511 380.52986803 532.125 370.0625 C528.19065034 364.55441048 523.66299635 361.64696209 517.07421875 360.25390625 C511.43853145 359.56403869 506.41849606 360.61238832 501.6015625 363.63671875 C495.31832533 368.98513283 493.10329869 377.21097096 492.07250977 385.08447266 C491.10111892 391.74751 489.57825831 398.14872216 487.83984375 404.6484375 C487.53393311 405.81222427 487.22802246 406.97601105 486.9128418 408.17506409 C485.92837319 411.91035537 484.93361075 415.64279801 483.9375 419.375 C483.42515351 421.30685511 482.91280783 423.23871045 482.4007349 425.17063808 C477.53257382 443.5246235 472.58754943 461.84983945 467 480 C466.75056641 480.8146875 466.50113281 481.629375 466.24414062 482.46875 C464.62486514 487.69397509 462.85079278 492.85262976 461 498 C460.59442871 499.13453613 460.18885742 500.26907227 459.77099609 501.43798828 C429.06868638 586.97109089 429.06868638 586.97109089 397 604 C396.32324219 604.35964844 395.64648438 604.71929688 394.94921875 605.08984375 C388.67883271 607.90697371 381.25551333 608.19552883 374.6640625 606.34375 C364.94823426 602.02560411 360.65277773 592.69927517 356.85693359 583.28710938 C329.33911047 509.84352902 343.54193001 418.34604328 348.28804266 342.15186512 C349.08929179 329.2785904 349.86797441 316.40396329 350.64648438 303.52929688 C350.92230956 298.9698631 351.19830071 294.41043942 351.47450256 289.85102844 C351.57499424 288.19212175 351.57499424 288.19212175 351.67751604 286.4997018 C352.13257924 278.99768569 352.59345865 271.49604212 353.05711365 263.99455261 C353.24149567 261.00308543 353.42579179 258.01161297 353.610075 255.02013969 C353.7770008 252.31823991 353.94548169 249.61644041 354.11404419 246.91464233 C354.65368002 238.19668646 355.14419223 229.47778657 355.56544495 220.75325012 C355.60707478 219.89851063 355.64870462 219.04377115 355.69159597 218.16313046 C357.35988161 182.56886125 355.53867852 150.88846694 341 118 C340.6915918 117.30036133 340.38318359 116.60072266 340.06542969 115.87988281 C333.59878451 101.47589258 324.29888681 89.6918915 313.38134766 78.43261719 C312.14641806 77.15185245 310.93663371 75.84695222 309.73046875 74.5390625 C283.96896673 47.29591565 245.3734526 35.78507129 209 34 C208.29681641 33.96535645 207.59363281 33.93071289 206.86914062 33.89501953 C164.20663182 32.1445955 129.81122387 49.34553852 98.66064453 77.46191406 C78.30442592 96.31580663 64.15735419 121.79618395 51.10693359 145.97119141 C50.08008116 147.85322575 49.0251062 149.71536255 47.95703125 151.57421875 C14.27209505 211.61543237 2.35358502 287.74261822 -3.75 355.25 C-3.8629541 356.48967529 -3.9759082 357.72935059 -4.09228516 359.0065918 C-4.41665057 362.59242062 -4.73323762 366.17884342 -5.046875 369.765625 C-5.14353455 370.83544617 -5.24019409 371.90526733 -5.33978271 373.00750732 C-5.91125153 379.68922563 -6.11369635 386.29481455 -6 393 C-7.98 393 -9.96 393 -12 393 C-11.96852245 392.19528668 -11.93704491 391.39057337 -11.90461349 390.5614748 C-10.40685905 352.21443374 -8.96445423 313.86667389 -7.72362971 275.51038074 C-5.34146583 202.0072341 -2.71026329 128.5722579 1.90332031 55.1706543 C1.97830403 53.96828975 2.05328775 52.7659252 2.13054371 51.52712536 C2.4766199 45.98039733 2.8290803 40.4343186 3.19926453 34.8891449 C3.32175795 32.976402 3.44406921 31.06364742 3.56616211 29.15087891 C3.62580013 28.30146068 3.68543816 27.45204245 3.74688339 26.57688427 C4.19306333 19.39822836 3.86772012 13.66548537 -1 8 C-11.69948896 -3.49288327 -26.05539065 -7.4010334 -41.359375 -8.16845703 C-68.72344585 -9.03080051 -97.79558382 -7.6918623 -118.3671875 12.93359375 Z " fill="#000000" transform="translate(199,14)"/>
<path d="M0 0 C7.46947604 6.79043276 9.189249 17.56115474 10.10327148 27.24145508 C10.30610389 31.56223842 10.37870257 35.86273473 10.375 40.1875 C10.37778961 41.01003265 10.38057922 41.83256531 10.38345337 42.68002319 C10.37243556 63.55535141 7.80549018 84.23280946 5.46484375 104.94384766 C5.14431508 107.78024909 4.82399671 110.61667408 4.50390625 113.453125 C4.42539555 114.14735439 4.34688484 114.84158379 4.26599503 115.55685043 C2.84009562 128.20715471 1.71807377 140.86033682 0.875 153.5625 C0.81992279 154.37087311 0.76484558 155.17924622 0.70809937 156.01211548 C0.33846994 161.50575507 0.02873626 167.00104976 -0.25 172.5 C-0.29625519 173.38368256 -0.34251038 174.26736511 -0.39016724 175.17782593 C-1.36566913 194.3439967 -1.45198382 213.50219369 -1.4375 232.6875 C-1.43723312 233.48157509 -1.43696625 234.27565018 -1.43669128 235.09378815 C-1.42682466 258.51707065 -1.34902482 281.89691771 0.56640625 305.25653076 C0.76333543 307.6629556 0.95199238 310.06996217 1.140625 312.47705078 C6.91874093 385.06255571 17.99266396 468.12797982 66.75 525.5 C67.61044922 526.56347656 67.61044922 526.56347656 68.48828125 527.6484375 C84.08713925 546.48619919 107.83036006 557.9880185 131.75 561.5 C183.01185704 564.215533 232.74461305 545.53173222 272.14111328 512.83251953 C273.71632263 511.52789243 275.30751516 510.24536667 276.90234375 508.96484375 C290.53105915 497.88465594 303.05894386 485.38627444 313.47167969 471.22705078 C314.78375446 469.45439667 316.12693348 467.70903121 317.4765625 465.96484375 C356.23774031 415.3218242 369.76044211 351.96888274 371.75 289.5 C370.76 290.49 369.77 291.48 368.75 292.5 C367.76 292.17 366.77 291.84 365.75 291.5 C367.19245971 288.13426067 368.833468 285.74989611 371.75 283.5 C375.55880762 283.40233827 376.72597836 284.47811362 379.5625 287.0625 C380.284375 287.866875 381.00625 288.67125 381.75 289.5 C381.42 290.49 381.09 291.48 380.75 292.5 C376.875 290.625 376.875 290.625 375.75 289.5 C375.71036133 290.41362305 375.67072266 291.32724609 375.62988281 292.26855469 C373.48883074 339.54913552 366.04663055 385.72618248 344.75 428.5 C344.35312988 429.30469727 343.95625977 430.10939453 343.54736328 430.93847656 C329.62325028 458.94135356 309.8715787 486.34304064 285.75 506.5 C284.74536472 507.3870278 283.74295179 508.27657591 282.7421875 509.16796875 C241.05747485 546.05413482 188.60526589 567.81835846 132.75 565.5 C112.64002586 563.90415386 92.94714941 554.53405151 77.75 541.5 C76.94046875 540.81164062 76.1309375 540.12328125 75.296875 539.4140625 C59.57831736 525.67237868 48.33396114 508.90372275 38.75 490.5 C38.41935547 489.86610352 38.08871094 489.23220703 37.74804688 488.57910156 C-0.95668425 413.13180759 -5.38277072 318.92786728 3.10357666 88.63101196 C9.71147902 46.69036792 9.71147902 46.69036792 0.75 6.5 C-1.96984514 3.3390989 -3.37911932 2.67076092 -7.4375 1.875 C-24.03569566 4.59601568 -36.28644243 22.61258002 -45.56396484 35.28735352 C-56.62707305 50.69964388 -66.33469703 67.25335361 -74.25 84.5 C-74.59450195 85.24942871 -74.93900391 85.99885742 -75.29394531 86.77099609 C-113.44175677 170.74750122 -128.96187297 266.72810969 -148.625 400.25 C-148.72854797 401.01899879 -148.83209595 401.78799759 -148.93878174 402.58029938 C-151.89037741 424.53195214 -154.63383354 446.50593989 -157.25 468.5 C-158.24 468.83 -159.23 469.16 -160.25 469.5 C-160.46509927 461.76370018 -159.62786196 454.33036832 -158.6328125 446.6640625 C-158.45831423 445.29167863 -158.28415977 443.91925101 -158.11032104 442.54678345 C-157.63920072 438.84442463 -157.15957054 435.14321952 -156.67700195 431.44233704 C-156.37316515 429.11092076 -156.07096877 426.7792963 -155.76904297 424.44763184 C-149.21812003 373.93920584 -141.98775822 323.5038518 -132.25 273.5 C-132.04330688 272.43837646 -131.83661377 271.37675293 -131.62365723 270.28295898 C-122.7904573 225.10116652 -112.54689894 180.29178439 -98.25 136.5 C-98.03879517 135.84896301 -97.82759033 135.19792603 -97.60998535 134.52716064 C-83.12800287 89.90862264 -63.67160734 47.02932178 -31.25 12.5 C-30.37794922 11.53126953 -30.37794922 11.53126953 -29.48828125 10.54296875 C-22.03965199 2.57345632 -10.98544097 -5.07020352 0 0 Z " fill="#000000" transform="translate(383.25,148.5)"/>
<path d="M0 0 C0.99 0 1.98 0 3 0 C2.83125316 2.5534964 2.66203209 5.1069605 2.49243164 7.66040039 C2.32437374 10.19210041 2.15693587 12.72384163 1.98999023 15.25561523 C1.45384301 23.35517483 0.89973084 31.45323552 0.32543945 39.55018616 C-5.2058483 117.58981852 -8.39054918 195.60239007 -8.25713813 273.83335388 C-8.24955935 278.79363383 -8.25236179 283.75383419 -8.26074219 288.71411133 C-8.40533048 376.63219757 -6.20634414 466.06262091 19 581 C19.99 580.01 20.98 579.02 22 578 C22.99 578.33 23.98 578.66 25 579 C23.35 582.3 21.7 585.6 20 589 C16.51329166 587.8905928 13.22515763 586.73662334 10 585 C10 584.01 10 583.02 10 582 C11.65 582.33 13.3 582.66 15 583 C14.78085937 582.09765625 14.56171875 581.1953125 14.3359375 580.265625 C13.19369688 575.5173788 12.0947183 570.75939464 11 566 C10.77505859 565.02949707 10.55011719 564.05899414 10.31835938 563.05908203 C-2.46443206 507.41168214 -7.21805595 450.34660101 -10.125 393.4375 C-10.16370209 392.68600677 -10.20240417 391.93451355 -10.24227905 391.1602478 C-10.48401395 386.38412239 -10.69462971 381.60727321 -10.88571167 376.82885742 C-10.9642965 374.88373072 -11.046467 372.93874662 -11.13162231 370.99389648 C-12.37051945 342.07918127 -12.20147436 313.13617732 -12.18834877 284.20102406 C-12.18749458 282.1117458 -12.187046 280.02246779 -12.18669128 277.93318939 C-12.17804921 236.61496687 -12.00970116 195.34588396 -10.09476471 154.06311035 C-9.95945527 151.11730586 -9.82920325 148.17128212 -9.69847775 145.22527122 C-8.070396 108.61609116 -6.01392867 72.04617411 -3.3125 35.5 C-3.25803585 34.7614402 -3.2035717 34.0228804 -3.14745712 33.26194 C-2.78915331 28.41363916 -2.42257039 23.56603576 -2.05078125 18.71875 C-1.9135112 16.90580948 -1.9135112 16.90580948 -1.77346802 15.0562439 C-1.68620453 13.94391388 -1.59894104 12.83158386 -1.5090332 11.68554688 C-1.43449417 10.72612183 -1.35995514 9.76669678 -1.28315735 8.77819824 C-0.98204424 5.82382707 -0.51756158 2.92356594 0 0 Z " fill="#000000" transform="translate(33,63)"/>
<path d="M0 0 C3.0625 0.1875 3.0625 0.1875 5.0625 2.1875 C4.90004442 5.92397845 4.47466356 7.71288742 2 10.5625 C1.360625 11.09875 0.72125 11.635 0.0625 12.1875 C1.7125 12.5175 3.3625 12.8475 5.0625 13.1875 C5.0625 13.8475 5.0625 14.5075 5.0625 15.1875 C1.7625 15.1875 -1.5375 15.1875 -4.9375 15.1875 C-2.9375 11.1875 -2.9375 11.1875 -0.8125 8.625 C1.36735538 6.30372611 1.36735538 6.30372611 1.0625 3.1875 C0.4025 3.1875 -0.2575 3.1875 -0.9375 3.1875 C-1.2675 3.8475 -1.5975 4.5075 -1.9375 5.1875 C-2.9275 5.1875 -3.9175 5.1875 -4.9375 5.1875 C-3.82120474 0.24390669 -3.82120474 0.24390669 0 0 Z " fill="#000000" transform="translate(271.9375,443.8125)"/>
<path d="M0 0 C0 4.95 0 9.9 0 15 C-0.99 15 -1.98 15 -3 15 C-3 11.37 -3 7.74 -3 4 C-3.99 4.33 -4.98 4.66 -6 5 C-5.625 3.0625 -5.625 3.0625 -5 1 C-3 0 -3 0 0 0 Z " fill="#000000" transform="translate(259,444)"/>
<path d="M0 0 C0 4.95 0 9.9 0 15 C-0.99 15 -1.98 15 -3 15 C-3 11.37 -3 7.74 -3 4 C-3.99 4.33 -4.98 4.66 -6 5 C-5.625 3.0625 -5.625 3.0625 -5 1 C-3 0 -3 0 0 0 Z " fill="#000000" transform="translate(7,323)"/>
<path d="M0 0 C0 4.95 0 9.9 0 15 C-0.66 15 -1.32 15 -2 15 C-2.33 11.37 -2.66 7.74 -3 4 C-3.99 4.33 -4.98 4.66 -6 5 C-6 4.01 -6 3.02 -6 2 C-3 0 -3 0 0 0 Z " fill="#000000" transform="translate(19,323)"/>
<path d="M0 0 C0.99 0.33 1.98 0.66 3 1 C1.64458676 5.06623972 -0.57009469 6.53046818 -4 9 C-4.99 8.67 -5.98 8.34 -7 8 C-7 6 -7 6 -5.57421875 4.45703125 C-4.95160156 3.91433594 -4.32898438 3.37164063 -3.6875 2.8125 C-3.07261719 2.26207031 -2.45773437 1.71164062 -1.82421875 1.14453125 C-1.22222656 0.76683594 -0.62023437 0.38914062 0 0 Z " fill="#000000" transform="translate(622,629)"/>
<path d="M0 0 C3.3 1.65 6.6 3.3 10 5 C9.67 5.66 9.34 6.32 9 7 C5.04179141 6.43454163 2.3340947 5.19097652 -1 3 C-0.67 2.01 -0.34 1.02 0 0 Z " fill="#000000" transform="translate(540,643)"/>
<path d="M0 0 C0.99 0 1.98 0 3 0 C4.421875 1.42578125 4.421875 1.42578125 5.75 3.3125 C6.19859375 3.92738281 6.6471875 4.54226563 7.109375 5.17578125 C8 7 8 7 7 10 C6.34 10 5.68 10 5 10 C3.7109375 8.57421875 3.7109375 8.57421875 2.375 6.6875 C1.92898438 6.07261719 1.48296875 5.45773437 1.0234375 4.82421875 C0 3 0 3 0 0 Z " fill="#000000" transform="translate(510,616)"/>
<path d="M0 0 C1.890625 0.21484375 1.890625 0.21484375 4 1 C5.046875 3.06640625 5.046875 3.06640625 5.75 5.5625 C5.99234375 6.38878906 6.2346875 7.21507812 6.484375 8.06640625 C6.65453125 8.70449219 6.8246875 9.34257813 7 10 C5.109375 9.78515625 5.109375 9.78515625 3 9 C1.953125 6.93359375 1.953125 6.93359375 1.25 4.4375 C1.00765625 3.61121094 0.7653125 2.78492188 0.515625 1.93359375 C0.34546875 1.29550781 0.1753125 0.65742187 0 0 Z " fill="#000000" transform="translate(500,598)"/>
<path d="M0 0 C0.99 0.33 1.98 0.66 3 1 C3.66 4.3 4.32 7.6 5 11 C4.01 11 3.02 11 2 11 C1.01 7.7 0.02 4.4 -1 1 C-0.67 0.67 -0.34 0.34 0 0 Z " fill="#000000" transform="translate(495,578)"/>
<path d="M0 0 C0.99 0 1.98 0 3 0 C2.01 3.63 1.02 7.26 0 11 C-0.99 11 -1.98 11 -3 11 C-2.69217504 9.35328588 -2.37860766 7.70764424 -2.0625 6.0625 C-1.88847656 5.14597656 -1.71445312 4.22945313 -1.53515625 3.28515625 C-1 1 -1 1 0 0 Z " fill="#000000" transform="translate(687,504)"/>
<path d="M0 0 C0.66 0.33 1.32 0.66 2 1 C2 4.63 2 8.26 2 12 C1.01 12 0.02 12 -1 12 C-1.02687279 10.18757948 -1.04633715 8.37504767 -1.0625 6.5625 C-1.07410156 5.55316406 -1.08570313 4.54382813 -1.09765625 3.50390625 C-1 1 -1 1 0 0 Z " fill="#000000" transform="translate(486,497)"/>
<path d="M0 0 C0.99 0.33 1.98 0.66 3 1 C2.01 4.3 1.02 7.6 0 11 C-0.99 11 -1.98 11 -3 11 C-2.69217504 9.35328588 -2.37860766 7.70764424 -2.0625 6.0625 C-1.88847656 5.14597656 -1.71445313 4.22945313 -1.53515625 3.28515625 C-1 1 -1 1 0 0 Z " fill="#000000" transform="translate(176,494)"/>
<path d="M0 0 C1.8125 0.125 1.8125 0.125 4 1 C5.95320589 4.20883825 7 6.2205439 7 10 C6.01 10 5.02 10 4 10 C3.32845067 8.71086513 2.66291141 7.41859796 2 6.125 C1.62875 5.40570313 1.2575 4.68640625 0.875 3.9453125 C0 2 0 2 0 0 Z " fill="#000000" transform="translate(476,140)"/>
<path d="M0 0 C0.66 0 1.32 0 2 0 C3.32421875 1.6796875 3.32421875 1.6796875 4.6875 3.875 C5.14511719 4.59429687 5.60273438 5.31359375 6.07421875 6.0546875 C6.37972656 6.69664062 6.68523437 7.33859375 7 8 C6.67 8.66 6.34 9.32 6 10 C1.95351557 8.65117186 1.04497401 6.65173931 -1 3 C-0.67 2.01 -0.34 1.02 0 0 Z " fill="#000000" transform="translate(467,123)"/>
<path d="M0 0 C3.63 0.33 7.26 0.66 11 1 C11 1.99 11 2.98 11 4 C7.37 3.67 3.74 3.34 0 3 C0 2.01 0 1.02 0 0 Z " fill="#000000" transform="translate(558,651)"/>
<path d="M0 0 C0 0.99 0 1.98 0 3 C-6.625 7 -6.625 7 -10 7 C-10 6.01 -10 5.02 -10 4 C-3.375 0 -3.375 0 0 0 Z " fill="#000000" transform="translate(608,642)"/>
<path d="M0 0 C1.34173403 0.92543709 2.67320159 1.86577405 4 2.8125 C5.11375 3.59560547 5.11375 3.59560547 6.25 4.39453125 C7.11625 5.18923828 7.11625 5.18923828 8 6 C8 6.99 8 7.98 8 9 C4.06326356 7.68775452 1.77280706 6.08089673 -1 3 C-0.67 2.01 -0.34 1.02 0 0 Z " fill="#000000" transform="translate(524,631)"/>
<path d="M0 0 C0.99 0 1.98 0 3 0 C1.66511872 3.59391114 0.03977277 6.75490696 -2 10 C-2.99 9.67 -3.98 9.34 -5 9 C-3.49901406 5.88256767 -1.97568178 2.84498177 0 0 Z " fill="#000000" transform="translate(647,598)"/>
<path d="M0 0 C0.66 0.33 1.32 0.66 2 1 C1.39009109 4.55780196 0.4216319 7.6828589 -1 11 C-1.99 11 -2.98 11 -4 11 C-3.39301257 6.87248551 -1.96189209 3.6678852 0 0 Z " fill="#000000" transform="translate(142,588)"/>
<path d="M0 0 C0.99 0 1.98 0 3 0 C2.43768609 3.93619738 1.38314183 6.79192446 -1 10 C-1.99 10 -2.98 10 -4 10 C-2.8905928 6.51329166 -1.73662334 3.22515763 0 0 Z " fill="#000000" transform="translate(657,580)"/>
<path d="M0 0 C0.99 0.33 1.98 0.66 3 1 C2.60404157 2.48484412 2.18249294 3.9628831 1.75 5.4375 C1.51796875 6.26121094 1.2859375 7.08492187 1.046875 7.93359375 C0 10 0 10 -2.109375 10.78515625 C-2.73328125 10.85605469 -3.3571875 10.92695312 -4 11 C-2.7874262 7.27566618 -1.49140021 3.62197194 0 0 Z " fill="#000000" transform="translate(666,561)"/>
<path d="M0 0 C0.99 0.33 1.98 0.66 3 1 C2.01 4.3 1.02 7.6 0 11 C-0.99 10.67 -1.98 10.34 -3 10 C-2.01 6.7 -1.02 3.4 0 0 Z " fill="#000000" transform="translate(156,551)"/>
<path d="M0 0 C0.99 0 1.98 0 3 0 C2.54917531 1.46067199 2.08906463 2.91848032 1.625 4.375 C1.36976563 5.18710937 1.11453125 5.99921875 0.8515625 6.8359375 C0 9 0 9 -2 11 C-2.66 10.34 -3.32 9.68 -4 9 C-2.68 6.03 -1.36 3.06 0 0 Z " fill="#000000" transform="translate(674,543)"/>
<path d="M0 0 C0.99 0 1.98 0 3 0 C3.33 3.63 3.66 7.26 4 11 C3.01 11 2.02 11 1 11 C-0.17571451 7.32589215 -0.07366746 3.83070817 0 0 Z " fill="#000000" transform="translate(488,538)"/>
<path d="M0 0 C0.99 0.66 1.98 1.32 3 2 C1.68 5.3 0.36 8.6 -1 12 C-1.66 11.67 -2.32 11.34 -3 11 C-2.44894091 7.0507432 -1.61064629 3.65079826 0 0 Z " fill="#000000" transform="translate(681,523)"/>
<path d="M0 0 C0.99 0 1.98 0 3 0 C3 3.63 3 7.26 3 11 C2.01 11 1.02 11 0 11 C0 7.37 0 3.74 0 0 Z " fill="#000000" transform="translate(484,477)"/>
<path d="M0 0 C0.99 0 1.98 0 3 0 C3 3.63 3 7.26 3 11 C2.01 11 1.02 11 0 11 C0 7.37 0 3.74 0 0 Z " fill="#000000" transform="translate(484,416)"/>
<path d="M0 0 C0.99 0.33 1.98 0.66 3 1 C2.34 3.97 1.68 6.94 1 10 C-0.32 10.33 -1.64 10.66 -3 11 C-2.01 7.37 -1.02 3.74 0 0 Z " fill="#000000" transform="translate(205,398)"/>
<path d="M0 0 C0.99 0.33 1.98 0.66 3 1 C2.01 4.3 1.02 7.6 0 11 C-0.99 11 -1.98 11 -3 11 C-2.69217504 9.35328588 -2.37860766 7.70764424 -2.0625 6.0625 C-1.88847656 5.14597656 -1.71445313 4.22945313 -1.53515625 3.28515625 C-1 1 -1 1 0 0 Z " fill="#000000" transform="translate(211,379)"/>
<path d="M0 0 C0.99 0 1.98 0 3 0 C3 3.63 3 7.26 3 11 C2.01 11 1.02 11 0 11 C0 7.37 0 3.74 0 0 Z " fill="#000000" transform="translate(488,335)"/>
<path d="M0 0 C0.99 0 1.98 0 3 0 C3.28571429 8.57142857 3.28571429 8.57142857 1 12 C0.34 11.67 -0.32 11.34 -1 11 C-0.67 7.37 -0.34 3.74 0 0 Z " fill="#000000" transform="translate(490,314)"/>
<path d="M0 0 C0.99 0.33 1.98 0.66 3 1 C2.01 4.3 1.02 7.6 0 11 C-0.99 11 -1.98 11 -3 11 C-2.69078116 9.54096742 -2.37751201 8.08279278 -2.0625 6.625 C-1.88847656 5.81289063 -1.71445313 5.00078125 -1.53515625 4.1640625 C-1 2 -1 2 0 0 Z " fill="#000000" transform="translate(234,302)"/>
<path d="M0 0 C0.99 0 1.98 0 3 0 C2.01 3.63 1.02 7.26 0 11 C-0.99 10.67 -1.98 10.34 -3 10 C-2.39009109 6.44219804 -1.4216319 3.3171411 0 0 Z " fill="#000000" transform="translate(259,226)"/>
<path d="M0 0 C0.99 0 1.98 0 3 0 C3 3.63 3 7.26 3 11 C2.01 11 1.02 11 0 11 C0 7.37 0 3.74 0 0 Z " fill="#000000" transform="translate(497,215)"/>
<path d="M0 0 C0.99 0.33 1.98 0.66 3 1 C2.01 4.3 1.02 7.6 0 11 C-0.99 11 -1.98 11 -3 11 C-2.44894091 7.0507432 -1.61064629 3.65079826 0 0 Z " fill="#000000" transform="translate(273,188)"/>
<path d="M0 0 C2.39763185 2.39763185 2.34280586 3.33273498 2.625 6.625 C2.69976562 7.44226563 2.77453125 8.25953125 2.8515625 9.1015625 C2.92503906 10.04128906 2.92503906 10.04128906 3 11 C2.01 11 1.02 11 0 11 C-0.66 7.7 -1.32 4.4 -2 1 C-1.34 0.67 -0.68 0.34 0 0 Z " fill="#000000" transform="translate(492,176)"/>
<path d="M0 0 C1.32 0.33 2.64 0.66 4 1 C4.66 3.97 5.32 6.94 6 10 C5.01 10 4.02 10 3 10 C2.01 6.7 1.02 3.4 0 0 Z " fill="#000000" transform="translate(484,158)"/>
<path d="M0 0 C0.99 0 1.98 0 3 0 C2.38479725 3.99881788 0.39731331 6.80358226 -2 10 C-2.66 10 -3.32 10 -4 10 C-3.43768609 6.06380262 -2.38314183 3.20807554 0 0 Z " fill="#000000" transform="translate(309,117)"/>
<path d="M0 0 C0.99 0.33 1.98 0.66 3 1 C2.07456291 2.34173403 1.13422595 3.67320159 0.1875 5 C-0.33457031 5.7425 -0.85664063 6.485 -1.39453125 7.25 C-1.92433594 7.8275 -2.45414062 8.405 -3 9 C-3.99 9 -4.98 9 -6 9 C-4.68775452 5.06326356 -3.08089673 2.77280706 0 0 Z " fill="#000000" transform="translate(322,101)"/>
<path d="M0 0 C4.37859255 0.50522222 6.81651224 3.17827222 10 6 C9.67 6.66 9.34 7.32 9 8 C5.08158173 6.69386058 2.67359191 5.16870152 0 2 C0 1.34 0 0.68 0 0 Z " fill="#000000" transform="translate(439,95)"/>
<path d="M0 0 C0.66 0.33 1.32 0.66 2 1 C0.50958227 4.79379058 -1.69062512 6.68343758 -5 9 C-5.66 9 -6.32 9 -7 9 C-6.82374165 6.62051228 -6.30280227 5.29774151 -4.59765625 3.62109375 C-3.09350908 2.37884514 -1.54870149 1.18623944 0 0 Z " fill="#000000" transform="translate(337,87)"/>
<path d="M0 0 C4.455 1.98 4.455 1.98 9 4 C8.67 5.32 8.34 6.64 8 8 C5.03 6.35 2.06 4.7 -1 3 C-0.67 2.01 -0.34 1.02 0 0 Z " fill="#000000" transform="translate(423,84)"/>
<path d="M0 0 C-0.33 0.99 -0.66 1.98 -1 3 C-3.06640625 3.94921875 -3.06640625 3.94921875 -5.5625 4.6875 C-6.38878906 4.93886719 -7.21507812 5.19023438 -8.06640625 5.44921875 C-8.70449219 5.63097656 -9.34257812 5.81273438 -10 6 C-10 4.68 -10 3.36 -10 2 C-6.38026598 0.68373308 -3.90432869 0 0 0 Z " fill="#000000" transform="translate(357,79)"/>
<path d="M0 0 C0 0.99 0 1.98 0 3 C-3.63 3.33 -7.26 3.66 -11 4 C-11 3.01 -11 2.02 -11 1 C-7.26562152 0.12132271 -3.83225427 -0.08912219 0 0 Z " fill="#000000" transform="translate(376,75)"/>
<path d="M0 0 C0 0.66 0 1.32 0 2 C-3.63 2.66 -7.26 3.32 -11 4 C-11 3.01 -11 2.02 -11 1 C-3.57142857 -1.42857143 -3.57142857 -1.42857143 0 0 Z " fill="#000000" transform="translate(590,651)"/>
<path d="M0 0 C0.66 0.33 1.32 0.66 2 1 C0.64978174 5.41889613 -1.26115668 7.34345343 -5 10 C-5 4.69520066 -3.4637943 3.81017373 0 0 Z " fill="#000000" transform="translate(636,614)"/>
<path d="M0 0 C0.99 0 1.98 0 3 0 C2.01 3.3 1.02 6.6 0 10 C-0.99 10 -1.98 10 -3 10 C-2.49287967 6.28111761 -1.88391785 3.26545761 0 0 Z " fill="#000000" transform="translate(149,570)"/>
<path d="M0 0 C0.99 0.33 1.98 0.66 3 1 C3.33 4.3 3.66 7.6 4 11 C3.01 11 2.02 11 1 11 C-0.17571451 7.32589215 -0.07366746 3.83070817 0 0 Z " fill="#000000" transform="translate(491,558)"/>
<path d="M0 0 C0.99 0.33 1.98 0.66 3 1 C2.01 4.3 1.02 7.6 0 11 C-0.99 11 -1.98 11 -3 11 C-2.69078116 9.54096742 -2.37751201 8.08279278 -2.0625 6.625 C-1.88847656 5.81289063 -1.71445313 5.00078125 -1.53515625 4.1640625 C-1 2 -1 2 0 0 Z " fill="#000000" transform="translate(163,532)"/>
<path d="M0 0 C0.99 0 1.98 0 3 0 C3.33 3.63 3.66 7.26 4 11 C3.01 11 2.02 11 1 11 C-0.28317892 7.15046324 -0.06643637 4.05261865 0 0 Z " fill="#000000" transform="translate(486,518)"/>
<path d="M0 0 C0.99 0.33 1.98 0.66 3 1 C2.34 4.3 1.68 7.6 1 11 C0.01 11 -0.98 11 -2 11 C-1 3.57142857 -1 3.57142857 0 0 Z " fill="#000000" transform="translate(692,484)"/>
<path d="M0 0 C0.99 0.33 1.98 0.66 3 1 C2.01 4.3 1.02 7.6 0 11 C-0.99 11 -1.98 11 -3 11 C-2.69078116 9.54096742 -2.37751201 8.08279278 -2.0625 6.625 C-1.88847656 5.81289063 -1.71445313 5.00078125 -1.53515625 4.1640625 C-1 2 -1 2 0 0 Z " fill="#000000" transform="translate(182,475)"/>
<path d="M0 0 C0.99 0 1.98 0 3 0 C2.34 3.63 1.68 7.26 1 11 C0.01 10.67 -0.98 10.34 -2 10 C-1.34 6.7 -0.68 3.4 0 0 Z " fill="#000000" transform="translate(697,465)"/>
<path d="M0 0 C0.99 0.33 1.98 0.66 3 1 C2.01 4.3 1.02 7.6 0 11 C-0.99 10.67 -1.98 10.34 -3 10 C-2.69201674 8.51988629 -2.378482 7.04092675 -2.0625 5.5625 C-1.88847656 4.73878906 -1.71445313 3.91507812 -1.53515625 3.06640625 C-1 1 -1 1 0 0 Z " fill="#000000" transform="translate(188,456)"/>
<path d="M0 0 C0.99 0 1.98 0 3 0 C2 7.42857143 2 7.42857143 1 11 C0.01 10.67 -0.98 10.34 -2 10 C-1.34 6.7 -0.68 3.4 0 0 Z " fill="#000000" transform="translate(216,360)"/>
<path d="M0 0 C0.99 0 1.98 0 3 0 C2.67 3.63 2.34 7.26 2 11 C1.01 11 0.02 11 -1 11 C-0.67 7.37 -0.34 3.74 0 0 Z " fill="#000000" transform="translate(487,355)"/>
<path d="M0 0 C0.99 0.33 1.98 0.66 3 1 C2.01 4.3 1.02 7.6 0 11 C-0.99 11 -1.98 11 -3 11 C-2.01 7.37 -1.02 3.74 0 0 Z " fill="#000000" transform="translate(228,321)"/>
<path d="M0 0 C0.99 0 1.98 0 3 0 C2.67 3.63 2.34 7.26 2 11 C1.01 11 0.02 11 -1 11 C-0.67 7.37 -0.34 3.74 0 0 Z " fill="#000000" transform="translate(495,274)"/>
<path d="M0 0 C0.99 0 1.98 0 3 0 C2.01 3.63 1.02 7.26 0 11 C-0.99 10.67 -1.98 10.34 -3 10 C-2.01 6.7 -1.02 3.4 0 0 Z " fill="#000000" transform="translate(246,264)"/>
<path d="M0 0 C0.99 0.33 1.98 0.66 3 1 C1.68 4.3 0.36 7.6 -1 11 C-1.66 11 -2.32 11 -3 11 C-2.53199289 6.94393835 -2.12046792 3.53411321 0 0 Z " fill="#000000" transform="translate(266,207)"/>
<path d="M0 0 C0.99 0.33 1.98 0.66 3 1 C2.43457996 2.32031595 1.84693528 3.6311301 1.25 4.9375 C0.76273437 6.03384766 0.76273437 6.03384766 0.265625 7.15234375 C-1 9 -1 9 -5 10 C-3.35 6.7 -1.7 3.4 0 0 Z " fill="#000000" transform="translate(299,134)"/>
<path d="M0 0 C7.625 0.875 7.625 0.875 11 2 C10.67 2.99 10.34 3.98 10 5 C8.51793505 4.745504 7.03931385 4.47088238 5.5625 4.1875 C4.73878906 4.03667969 3.91507812 3.88585937 3.06640625 3.73046875 C2.38449219 3.48941406 1.70257813 3.24835938 1 3 C0.67 2.01 0.34 1.02 0 0 Z " fill="#000000" transform="translate(404,78)"/>
<path d="M0 0 C0.99 0 1.98 0 3 0 C2.43454163 3.95820859 1.19097652 6.6659053 -1 10 C-1.99 9.67 -2.98 9.34 -4 9 C-2.68 6.03 -1.36 3.06 0 0 Z " fill="#000000" transform="translate(133,607)"/>
<path d="M0 0 C0.66 0.33 1.32 0.66 2 1 C1.34 3.97 0.68 6.94 0 10 C-1.32 10 -2.64 10 -4 10 C-2.68 6.7 -1.36 3.4 0 0 Z " fill="#000000" transform="translate(170,513)"/>
<path d="M0 0 C0.99 0 1.98 0 3 0 C2.88590407 1.45922693 2.75834456 2.91740598 2.625 4.375 C2.55539062 5.18710937 2.48578125 5.99921875 2.4140625 6.8359375 C2 9 2 9 0 11 C-0.66 10.34 -1.32 9.68 -2 9 C-1.7578125 6.8359375 -1.7578125 6.8359375 -1.125 4.375 C-0.92132812 3.55773437 -0.71765625 2.74046875 -0.5078125 1.8984375 C-0.34023438 1.27195312 -0.17265625 0.64546875 0 0 Z " fill="#000000" transform="translate(701,445)"/>
<path d="M0 0 C0.66 0 1.32 0 2 0 C1 7.42857143 1 7.42857143 0 11 C-0.99 10.67 -1.98 10.34 -3 10 C-2.69201674 8.51988629 -2.378482 7.04092675 -2.0625 5.5625 C-1.88847656 4.73878906 -1.71445313 3.91507812 -1.53515625 3.06640625 C-1 1 -1 1 0 0 Z " fill="#000000" transform="translate(194,437)"/>
<path d="M0 0 C0.99 0 1.98 0 3 0 C2.34 3.3 1.68 6.6 1 10 C0.01 10 -0.98 10 -2 10 C-1.54177532 6.53058454 -1.10868317 3.32604951 0 0 Z " fill="#000000" transform="translate(199,418)"/>
<path d="M0 0 C0.99 0 1.98 0 3 0 C2.71758359 1.46015291 2.42373386 2.91809793 2.125 4.375 C1.96257812 5.18710937 1.80015625 5.99921875 1.6328125 6.8359375 C1 9 1 9 -1 11 C-2.26264601 6.70700357 -1.62950412 4.12168689 0 0 Z " fill="#000000" transform="translate(222,341)"/>
<path d="M0 0 C0.66 0 1.32 0 2 0 C2.0270043 1.45823212 2.04639787 2.91660675 2.0625 4.375 C2.07410156 5.18710937 2.08570313 5.99921875 2.09765625 6.8359375 C2 9 2 9 1 11 C0.01 10.67 -0.98 10.34 -2 10 C-1.85950482 8.52031676 -1.71245174 7.04125484 -1.5625 5.5625 C-1.48128906 4.73878906 -1.40007812 3.91507812 -1.31640625 3.06640625 C-1 1 -1 1 0 0 Z " fill="#000000" transform="translate(493,294)"/>
<path d="M0 0 C0.99 0.33 1.98 0.66 3 1 C2.01 4.3 1.02 7.6 0 11 C-0.99 10.67 -1.98 10.34 -3 10 C-2.01 6.7 -1.02 3.4 0 0 Z " fill="#000000" transform="translate(240,283)"/>
<path d="M0 0 C0.99 0 1.98 0 3 0 C2.71758359 1.46015291 2.42373386 2.91809793 2.125 4.375 C1.96257812 5.18710938 1.80015625 5.99921875 1.6328125 6.8359375 C1 9 1 9 -1 11 C-1.66 10.34 -2.32 9.68 -3 9 C-2.01 6.03 -1.02 3.06 0 0 Z " fill="#000000" transform="translate(252,245)"/>
<path d="M0 0 C0.99 0 1.98 0 3 0 C3.66 3.3 4.32 6.6 5 10 C4.01 10.33 3.02 10.66 2 11 C1.664061 9.5422647 1.33133376 8.08378894 1 6.625 C0.814375 5.81289062 0.62875 5.00078125 0.4375 4.1640625 C0 2 0 2 0 0 Z " fill="#000000" transform="translate(494,196)"/>
<path d="M0 0 C0.99 0.33 1.98 0.66 3 1 C1.68 4.3 0.36 7.6 -1 11 C-1.99 10.34 -2.98 9.68 -4 9 C-2.68 6.03 -1.36 3.06 0 0 Z " fill="#000000" transform="translate(281,170)"/>
<path d="M0 0 C0.99 0 1.98 0 3 0 C2.43697042 3.94120709 1.3208055 6.7508723 -1 10 C-1.66 10 -2.32 10 -3 10 C-2.49287967 6.28111761 -1.88391785 3.26545761 0 0 Z " fill="#000000" transform="translate(289,152)"/>
<path d="M0 0 C3.3 0 6.6 0 10 0 C10 0.99 10 1.98 10 3 C6.7 3 3.4 3 0 3 C0 2.01 0 1.02 0 0 Z " fill="#000000" transform="translate(385,75)"/>
<path d="M0 0 C0.99 0.33 1.98 0.66 3 1 C2.67 4.3 2.34 7.6 2 11 C1.01 11 0.02 11 -1 11 C-1.14285714 3.57142857 -1.14285714 3.57142857 0 0 Z " fill="#000000" transform="translate(485,396)"/>
<path d="M0 0 C0.66 0 1.32 0 2 0 C2 3.63 2 7.26 2 11 C1.01 11 0.02 11 -1 11 C-1.125 3.375 -1.125 3.375 0 0 Z " fill="#000000" transform="translate(486,375)"/>
<path d="M0 0 C0.99 0 1.98 0 3 0 C5.75 2.8125 5.75 2.8125 8 6 C7.67 6.99 7.34 7.98 7 9 C5.82460004 8.07347299 4.65989423 7.13336613 3.5 6.1875 C2.52546875 5.40439453 2.52546875 5.40439453 1.53125 4.60546875 C0 3 0 3 0 0 Z " fill="#000000" transform="translate(454,108)"/>
<path d="M0 0 C0.99 0 1.98 0 3 0 C2.67 3.3 2.34 6.6 2 10 C1.01 10 0.02 10 -1 10 C-0.67 6.7 -0.34 3.4 0 0 Z " fill="#000000" transform="translate(497,255)"/>
<path d="M0 0 C0.66 0 1.32 0 2 0 C2.33 3.63 2.66 7.26 3 11 C2.01 11 1.02 11 0 11 C0 7.37 0 3.74 0 0 Z " fill="#000000" transform="translate(484,457)"/>
<path d="M0 0 C0.66 0 1.32 0 2 0 C2 3.96 2 7.92 2 12 C1.34 12 0.68 12 0 12 C0 8.04 0 4.08 0 0 Z " fill="#000000" transform="translate(484,436)"/>
<path d="M0 0 C0.66 0 1.32 0 2 0 C2 3.63 2 7.26 2 11 C1.34 11 0.68 11 0 11 C0 7.37 0 3.74 0 0 Z " fill="#000000" transform="translate(123,585)"/>
<path d="M0 0 C0.66 0 1.32 0 2 0 C2 3.63 2 7.26 2 11 C1.34 11 0.68 11 0 11 C0 7.37 0 3.74 0 0 Z " fill="#000000" transform="translate(123,565)"/>
<path d="M0 0 C0.66 0 1.32 0 2 0 C2 3.63 2 7.26 2 11 C1.34 11 0.68 11 0 11 C0 7.37 0 3.74 0 0 Z " fill="#000000" transform="translate(123,545)"/>
<path d="M0 0 C0.66 0 1.32 0 2 0 C2 3.63 2 7.26 2 11 C1.34 11 0.68 11 0 11 C0 7.37 0 3.74 0 0 Z " fill="#000000" transform="translate(123,525)"/>
<path d="M0 0 C0.66 0 1.32 0 2 0 C2 3.63 2 7.26 2 11 C1.34 11 0.68 11 0 11 C0 7.37 0 3.74 0 0 Z " fill="#000000" transform="translate(123,505)"/>
<path d="M0 0 C0.66 0 1.32 0 2 0 C2 3.63 2 7.26 2 11 C1.34 11 0.68 11 0 11 C0 7.37 0 3.74 0 0 Z " fill="#000000" transform="translate(123,485)"/>
<path d="M0 0 C0.66 0 1.32 0 2 0 C2 3.63 2 7.26 2 11 C1.34 11 0.68 11 0 11 C0 7.37 0 3.74 0 0 Z " fill="#000000" transform="translate(123,465)"/>
<path d="M0 0 C0.66 0 1.32 0 2 0 C2 3.63 2 7.26 2 11 C1.34 11 0.68 11 0 11 C0 7.37 0 3.74 0 0 Z " fill="#000000" transform="translate(123,445)"/>
<path d="M0 0 C0.66 0 1.32 0 2 0 C2 3.63 2 7.26 2 11 C1.34 11 0.68 11 0 11 C0 7.37 0 3.74 0 0 Z " fill="#000000" transform="translate(123,425)"/>
<path d="M0 0 C0.66 0 1.32 0 2 0 C2 3.63 2 7.26 2 11 C1.34 11 0.68 11 0 11 C0 7.37 0 3.74 0 0 Z " fill="#000000" transform="translate(123,405)"/>
<path d="M0 0 C0.66 0 1.32 0 2 0 C2 3.63 2 7.26 2 11 C1.34 11 0.68 11 0 11 C0 7.37 0 3.74 0 0 Z " fill="#000000" transform="translate(123,385)"/>
<path d="M0 0 C0.66 0 1.32 0 2 0 C2 3.63 2 7.26 2 11 C1.34 11 0.68 11 0 11 C0 7.37 0 3.74 0 0 Z " fill="#000000" transform="translate(123,365)"/>
<path d="M0 0 C0.66 0 1.32 0 2 0 C2 3.63 2 7.26 2 11 C1.34 11 0.68 11 0 11 C0 7.37 0 3.74 0 0 Z " fill="#000000" transform="translate(123,345)"/>
<path d="M0 0 C0.66 0 1.32 0 2 0 C2 3.63 2 7.26 2 11 C1.34 11 0.68 11 0 11 C0 7.37 0 3.74 0 0 Z " fill="#000000" transform="translate(123,325)"/>
<path d="M0 0 C0.66 0 1.32 0 2 0 C2 3.63 2 7.26 2 11 C1.34 11 0.68 11 0 11 C0 7.37 0 3.74 0 0 Z " fill="#000000" transform="translate(123,305)"/>
<path d="M0 0 C0.66 0 1.32 0 2 0 C2 3.63 2 7.26 2 11 C1.34 11 0.68 11 0 11 C0 7.37 0 3.74 0 0 Z " fill="#000000" transform="translate(123,285)"/>
<path d="M0 0 C0.66 0 1.32 0 2 0 C2 3.63 2 7.26 2 11 C1.34 11 0.68 11 0 11 C0 7.37 0 3.74 0 0 Z " fill="#000000" transform="translate(498,235)"/>
<path d="M0 0 C0.66 0 1.32 0 2 0 C2 3.63 2 7.26 2 11 C1.34 11 0.68 11 0 11 C0 7.37 0 3.74 0 0 Z " fill="#000000" transform="translate(123,206)"/>
<path d="M0 0 C0.66 0 1.32 0 2 0 C2 3.63 2 7.26 2 11 C1.34 11 0.68 11 0 11 C0 7.37 0 3.74 0 0 Z " fill="#000000" transform="translate(123,186)"/>
<path d="M0 0 C0.66 0 1.32 0 2 0 C2 3.63 2 7.26 2 11 C1.34 11 0.68 11 0 11 C0 7.37 0 3.74 0 0 Z " fill="#000000" transform="translate(123,166)"/>
<path d="M0 0 C0.66 0 1.32 0 2 0 C2 3.63 2 7.26 2 11 C1.34 11 0.68 11 0 11 C0 7.37 0 3.74 0 0 Z " fill="#000000" transform="translate(123,146)"/>
<path d="M0 0 C0.66 0 1.32 0 2 0 C2 3.63 2 7.26 2 11 C1.34 11 0.68 11 0 11 C0 7.37 0 3.74 0 0 Z " fill="#000000" transform="translate(123,126)"/>
<path d="M0 0 C0.66 0 1.32 0 2 0 C2 3.63 2 7.26 2 11 C1.34 11 0.68 11 0 11 C0 7.37 0 3.74 0 0 Z " fill="#000000" transform="translate(123,106)"/>
<path d="M0 0 C0.66 0 1.32 0 2 0 C2 3.63 2 7.26 2 11 C1.34 11 0.68 11 0 11 C0 7.37 0 3.74 0 0 Z " fill="#000000" transform="translate(123,86)"/>
<path d="M0 0 C0.66 0 1.32 0 2 0 C2 3.63 2 7.26 2 11 C1.34 11 0.68 11 0 11 C0 7.37 0 3.74 0 0 Z " fill="#000000" transform="translate(123,66)"/>
<path d="M0 0 C1.32 0 2.64 0 4 0 C3.67 1.65 3.34 3.3 3 5 C2.01 5.33 1.02 5.66 0 6 C0 4.02 0 2.04 0 0 Z " fill="#000000" transform="translate(123,625)"/>
<path d="M0 0 C0.66 0 1.32 0 2 0 C2 3.3 2 6.6 2 10 C1.34 10 0.68 10 0 10 C0 6.7 0 3.4 0 0 Z " fill="#000000" transform="translate(123,605)"/>
<path d="M0 0 C0.66 0 1.32 0 2 0 C2 3.3 2 6.6 2 10 C1.34 10 0.68 10 0 10 C0 6.7 0 3.4 0 0 Z " fill="#000000" transform="translate(123,266)"/>
<path d="M0 0 C0.66 0 1.32 0 2 0 C2 3.3 2 6.6 2 10 C1.34 10 0.68 10 0 10 C0 6.7 0 3.4 0 0 Z " fill="#000000" transform="translate(123,246)"/>
<path d="M0 0 C0.66 0 1.32 0 2 0 C2 3.3 2 6.6 2 10 C1.34 10 0.68 10 0 10 C0 6.7 0 3.4 0 0 Z " fill="#000000" transform="translate(123,226)"/>
<path d="M0 0 C0.66 0.33 1.32 0.66 2 1 C2 2.65 2 4.3 2 6 C1.01 6.33 0.02 6.66 -1 7 C-1.04254356 5.00045254 -1.04080783 2.99958364 -1 1 C-0.67 0.67 -0.34 0.34 0 0 Z " fill="#000000" transform="translate(705,429)"/>
<path d="M0 0 C0.66 0 1.32 0 2 0 C2 1.98 2 3.96 2 6 C1.34 6 0.68 6 0 6 C0 4.02 0 2.04 0 0 Z " fill="#000000" transform="translate(123,51)"/>
<path d="M0 0 C0.99 0.33 1.98 0.66 3 1 C2.67 1.99 2.34 2.98 2 4 C1.01 3.01 0.02 2.02 -1 1 C-0.67 0.67 -0.34 0.34 0 0 Z " fill="#000000" transform="translate(262,456)"/>
<path d="M0 0 C0.99 0.33 1.98 0.66 3 1 C2.67 1.99 2.34 2.98 2 4 C1.01 3.01 0.02 2.02 -1 1 C-0.67 0.67 -0.34 0.34 0 0 Z " fill="#000000" transform="translate(10,335)"/>
</svg>
