<?xml version="1.0" encoding="UTF-8"?>
<svg version="1.1" xmlns="http://www.w3.org/2000/svg" width="379" height="239">
<path d="M0 0 C2.72650801 2.0079698 5.20717281 4.07436031 7.6015625 6.46875 C7.6015625 7.45875 7.6015625 8.44875 7.6015625 9.46875 C8.41496094 9.15421875 9.22835937 8.8396875 10.06640625 8.515625 C26.88027868 2.23642855 46.7916158 -4.35397236 64.25 3.21484375 C79.53033021 11.36266102 87.74862431 25.94280785 92.8371582 41.97070312 C93.04816162 42.67130859 93.25916504 43.37191406 93.4765625 44.09375 C93.66758545 44.72474609 93.8586084 45.35574219 94.05541992 46.00585938 C97.88972514 59.81979164 98.00779596 73.93373089 98.1484375 88.15234375 C98.15908485 89.16782854 98.16973221 90.18331333 98.18070221 91.22957039 C98.23372697 96.58685383 98.2726428 101.94405036 98.30175781 107.30151367 C98.32858855 111.71803225 98.38462126 116.13273564 98.46582031 120.54858398 C98.56441208 125.91420067 98.61398142 131.27815639 98.62821198 136.64463997 C98.64161583 138.67932469 98.67200721 140.71397358 98.71999359 142.74813652 C99.07248927 158.56931602 99.07248927 158.56931602 95.45812988 163.23660278 C92.87791899 165.09553312 90.56210115 166.33086984 87.6015625 167.46875 C86.42602814 168.00072243 86.42602814 168.00072243 85.22674561 168.54344177 C78.01980981 171.6522589 69.40610883 171.48231917 61.9140625 169.46875 C56.39347563 167.10874729 51.96764578 164.57382461 48.6015625 159.46875 C46.92474259 153.1969703 47.48833705 146.43632196 47.609375 140.0078125 C47.61134217 138.09264074 47.60889939 136.17745986 47.6022644 134.26229858 C47.59465251 129.23161508 47.63801217 124.20274406 47.69488525 119.17242432 C47.77763098 111.13046443 47.78421731 103.08816344 47.78792953 95.04584885 C47.79670177 92.25051443 47.82807783 89.4561554 47.86306763 86.66104126 C47.93143421 78.10884224 47.89825881 70.51299569 44.6015625 62.46875 C44.3128125 61.458125 44.0240625 60.4475 43.7265625 59.40625 C42.76956696 57.23512518 42.76956696 57.23512518 40.3828125 56.8671875 C31.10032413 55.53739282 23.06879804 56.29947292 14.6015625 60.46875 C13.05604706 61.22082733 13.05604706 61.22082733 11.47930908 61.98809814 C8.31076562 64.69300295 8.31076562 64.69300295 7.90936279 68.46453857 C7.90470546 70.11815816 7.93312375 71.7720664 7.98730469 73.42480469 C7.99273788 74.32937408 7.99817108 75.23394348 8.00376892 76.16592407 C8.01878659 78.12927929 8.0472821 80.09256703 8.08763885 82.05556488 C8.14895863 85.16706813 8.16960408 88.27642154 8.17877197 91.38848877 C8.21199391 100.23440529 8.31728247 109.0789431 8.45361328 117.92382812 C8.53421165 123.33629383 8.56599224 128.74734151 8.5688858 134.1603775 C8.58019223 136.21936588 8.61058003 138.27834373 8.66066742 140.33675385 C9.04959489 156.42764979 9.04959489 156.42764979 5.47351074 161.46838379 C2.92155165 163.56495191 0.57379657 165.0470836 -2.3984375 166.46875 C-3.22869446 166.92159363 -4.05895142 167.37443726 -4.91436768 167.84100342 C-12.46957536 171.76459802 -21.93367089 171.81502632 -30.078125 169.80859375 C-36.16060991 167.37770445 -40.81736768 163.04981982 -45.3984375 158.46875 C-45.51261282 156.52334726 -45.55591526 154.57377109 -45.57252502 152.62509155 C-45.58546097 151.35488159 -45.59839691 150.08467163 -45.61172485 148.77597046 C-45.62094582 147.35504252 -45.63000402 145.93411351 -45.63891602 144.51318359 C-45.65172167 143.026873 -45.66485701 141.54056522 -45.67829895 140.05426025 C-45.79434769 126.46798405 -45.85085643 112.88096634 -45.89506626 99.29428673 C-45.92829919 89.24894103 -45.98782584 79.20449793 -46.08257729 69.15953958 C-46.14692213 62.09960789 -46.18060543 55.039922 -46.19181579 47.97970831 C-46.19937593 43.76202737 -46.22054959 39.54543539 -46.27484322 35.32807541 C-46.32536397 31.35666275 -46.33786307 27.386913 -46.32159233 23.4152298 C-46.32219506 21.9603438 -46.33642603 20.50538749 -46.36553955 19.05079269 C-46.57253029 8.13493939 -46.57253029 8.13493939 -43.72239494 4.09022903 C-31.42899999 -7.076628 -14.06842612 -8.98179648 0 0 Z M-33.3984375 4.46875 C-34.93336349 5.31633629 -34.93336349 5.31633629 -36.4992981 6.18104553 C-38.79326727 8.14723703 -39.35547177 9.25747897 -39.96526718 12.25596428 C-40.19730791 15.98851764 -40.23315992 19.69810863 -40.20654297 23.43530273 C-40.21795301 24.87458414 -40.23188259 26.31384744 -40.24813843 27.75308228 C-40.28400625 31.6562184 -40.28166483 35.55845548 -40.27025366 39.46170688 C-40.26407013 42.72220866 -40.27625438 45.98253768 -40.28833115 49.24301487 C-40.31641982 56.93600066 -40.31330138 64.62854226 -40.29052734 72.3215332 C-40.26756439 80.25353223 -40.29571387 88.18417885 -40.34932029 96.11599964 C-40.39364913 102.93067198 -40.40690612 109.74492003 -40.39516747 116.5597263 C-40.38842883 120.62794541 -40.39325071 124.69529767 -40.42766953 128.76339531 C-40.45863098 132.58980973 -40.45068187 136.41422304 -40.41305923 140.24055862 C-40.40569241 141.64257617 -40.41189181 143.04474232 -40.43283081 144.44662285 C-40.74398136 152.00427033 -40.74398136 152.00427033 -37.69113541 158.59828377 C-35.64926955 160.17565669 -33.72019172 161.35245029 -31.3984375 162.46875 C-30.72812941 162.82956382 -30.05782131 163.19037764 -29.36720085 163.56212521 C-23.21420288 166.39560975 -16.59035815 165.7360707 -10.3984375 163.46875 C-6.06615545 161.23734504 -1.85902795 158.92934045 1.6015625 155.46875 C1.77224561 152.51680831 1.818583 149.65913865 1.77758789 146.70800781 C1.77317688 145.80051788 1.76876587 144.89302795 1.76422119 143.95803833 C1.7543576 141.9827576 1.74048602 140.00749383 1.72313118 138.03226471 C1.69085467 133.83392391 1.69316155 129.63583323 1.69341946 125.43738937 C1.69327554 117.61549987 1.67811673 109.79423589 1.60522461 101.97265625 C1.55588731 96.53641608 1.55026812 91.10164028 1.57336235 85.66524506 C1.57393129 83.59357529 1.55823229 81.5218345 1.52592659 79.45041656 C1.28334288 63.23431432 1.28334288 63.23431432 4.50704956 58.91662598 C6.86219069 57.30050003 8.9007636 56.36729094 11.6015625 55.46875 C13.19063612 54.70982082 14.77487807 53.94059346 16.3515625 53.15625 C24.18154502 49.71975767 33.82614697 48.98618302 42.0390625 51.53125 C46.3900107 53.49910624 48.51390835 56.25571129 50.6015625 60.46875 C54.10049167 69.93264877 53.95640261 79.37114174 53.82886124 89.29577255 C53.7962185 92.07942156 53.78790448 94.86219539 53.78659058 97.64602661 C53.78101775 105.55088447 53.75147963 113.45500771 53.66015625 121.359375 C53.60575295 126.2171077 53.59504503 131.07329493 53.61230087 135.93127823 C53.6103611 137.77411148 53.59194197 139.61700609 53.55649185 141.45949936 C52.97362207 151.26496002 52.97362207 151.26496002 56.56634521 159.92388916 C63.31792178 164.56009372 70.58427466 165.49421705 78.6015625 164.46875 C85.60445262 161.82389973 85.60445262 161.82389973 91.6015625 157.46875 C91.71812937 154.71372306 91.76958414 151.98344373 91.77856445 149.22729492 C91.78842125 147.92927193 91.78842125 147.92927193 91.79847717 146.60502625 C91.81829604 143.71975622 91.82990416 140.83453897 91.83984375 137.94921875 C91.84391928 136.96010309 91.8479948 135.97098743 91.85219383 134.95189857 C91.87311091 129.69636873 91.88737678 124.44086528 91.89672852 119.18530273 C91.90768396 113.80517583 91.94193882 108.42547515 91.98190022 103.04549694 C92.00833933 98.873025 92.01644521 94.70064926 92.02000999 90.52810097 C92.02482186 88.54897562 92.03627716 86.56985295 92.05504799 84.59081078 C92.26918311 60.4753875 88.67452165 35.44229283 72.6015625 16.46875 C69.79748124 13.71712605 66.96298314 11.49656354 63.6015625 9.46875 C62.71984375 8.93314453 62.71984375 8.93314453 61.8203125 8.38671875 C49.01563827 2.23710547 31.3090181 7.46288043 18.6015625 11.46875 C12.81602063 13.53018978 7.1903364 15.92706645 1.6015625 18.46875 C1.63636719 17.85821777 1.67117188 17.24768555 1.70703125 16.61865234 C1.99454522 11.78211668 1.99454522 11.78211668 0.3515625 7.3828125 C-10.33883383 -0.4918098 -21.43534204 -2.26531502 -33.3984375 4.46875 Z " fill="#000000" transform="translate(281.3984375,68.53125)"/>
<path d="M0 0 C22.9915289 19.38886768 36.71687073 46.88547738 39.5 76.8125 C41.61986318 111.89803219 32.33912971 144.77405564 9.5 171.8125 C8.82324219 172.63621094 8.14648438 173.45992187 7.44921875 174.30859375 C-10.58879184 195.44637216 -37.15060147 207.18610489 -64.5 209.8125 C-97.07059361 211.85161321 -128.74043794 201.72023314 -153.625 180.625 C-174.634128 160.90978912 -186.15885076 132.97010841 -187.62597656 104.35546875 C-188.72697392 68.23160612 -179.26995146 33.6197142 -155.5 5.8125 C-154.82453125 4.99136719 -154.1490625 4.17023437 -153.453125 3.32421875 C-113.73112574 -43.28389353 -44.50593377 -34.90169136 0 0 Z M-142.5 0.8125 C-143.74716797 1.91851563 -143.74716797 1.91851563 -145.01953125 3.046875 C-167.1931626 23.85866128 -180.21553176 56.40140112 -181.6262207 86.50610352 C-181.97991995 99.55704429 -181.69840246 112.11647922 -178.5 124.8125 C-178.33371094 125.47652832 -178.16742188 126.14055664 -177.99609375 126.82470703 C-171.31761715 152.4440853 -156.36548174 174.04040668 -133.5 187.8125 C-106.73533717 203.27760378 -75.54826192 208.03630991 -45.54345703 200.30859375 C-18.70517425 192.91625878 3.50481739 174.67988963 17.5 150.8125 C23.04591658 140.65791627 27.82074069 130.09786496 30.5 118.8125 C30.94472656 116.98332031 30.94472656 116.98332031 31.3984375 115.1171875 C37.85403534 85.7860058 32.83098552 54.57919758 17.5 28.8125 C9.33654268 16.16175207 -1.68956555 4.71320847 -14.5 -3.1875 C-15.51191406 -3.83203125 -16.52382812 -4.4765625 -17.56640625 -5.140625 C-56.69876215 -28.90117481 -107.20002083 -31.0577353 -142.5 0.8125 Z " fill="#000000" transform="translate(187.5,29.1875)"/>
<path d="M0 0 C3.5784655 2.781559 6.82253877 5.77138108 10 9 C10.58652344 9.5878125 11.17304688 10.175625 11.77734375 10.78125 C22.68881753 22.55342528 24.76375477 37.41484088 24.34765625 52.82421875 C23.4758822 69.9566099 15.18350172 83.53598481 2.84375 95.00390625 C-7.91186821 104.02537587 -21.08408639 107.48866173 -34.9375 106.875 C-51.49434816 105.28860596 -65.23744307 98.72970267 -76 86 C-85.74876426 73.06454291 -88.07549151 57.29495001 -86.375 41.5 C-84.47136057 29.3469642 -80.22805797 18.93452811 -73 9 C-72.52820313 8.34386719 -72.05640625 7.68773438 -71.5703125 7.01171875 C-54.08038885 -15.27064161 -22.21097709 -14.08045111 0 0 Z M-68.92578125 13.23046875 C-78.68675797 26.26348663 -82.33627921 42.66212108 -80.59765625 58.71484375 C-78.13229653 71.916918 -72.32865599 84.09861806 -61.171875 92.00390625 C-48.63513319 99.70275154 -35.21183219 102.797055 -20.6875 99.875 C-7.94543759 96.70789778 2.48395946 89.6102929 9.8125 78.6875 C18.16064958 64.78037379 20.16472138 49.23197983 17.3515625 33.3359375 C13.44483805 20.68082155 5.42879056 9.78504011 -6.14453125 3.21484375 C-29.12554366 -7.88037814 -51.6763998 -6.84865416 -68.92578125 13.23046875 Z " fill="#000000" transform="translate(144,73)"/>
<path d="M0 0 C2.8100346 1.79363911 4.50940468 3.01880935 6 6 C6.50761671 10.39934481 6.25800237 12.54225386 4.0625 16.4375 C0.46521985 19.4474691 -1.28762973 19.79461505 -5.84375 19.4453125 C-9.2596485 18.7398552 -10.82048981 17.72438773 -13 15 C-13.98360694 12.26452507 -14.29992854 9.89375495 -14 7 C-10.55894767 0.47386627 -7.2947632 -1.04809816 0 0 Z " fill="#000000" transform="translate(116,22)"/>
<path d="M0 0 C1.9375 1.625 1.9375 1.625 3 4 C2.93439072 7.739729 2.76345433 10.0603639 0.375 13 C-3.14974145 14.48410166 -5.36810976 14.05654989 -9 13 C-11.36604164 10.33820316 -12.04466185 8.93789883 -11.875 5.375 C-9.66456654 -0.62474796 -5.87190046 -1.55785114 0 0 Z " fill="#000000" transform="translate(266,82)"/>
<path d="M0 0 C0 0.99 0 1.98 0 3 C-1.32 3.33 -2.64 3.66 -4 4 C-4 4.66 -4 5.32 -4 6 C-1.03 6.495 -1.03 6.495 2 7 C2.33 8.32 2.66 9.64 3 11 C0.36 10.34 -2.28 9.68 -5 9 C-4.67 10.98 -4.34 12.96 -4 15 C-7 14 -7 14 -8.16796875 11.93359375 C-8.50441406 11.10988281 -8.84085938 10.28617188 -9.1875 9.4375 C-9.70376953 8.19806641 -9.70376953 8.19806641 -10.23046875 6.93359375 C-10.48441406 6.29550781 -10.73835938 5.65742187 -11 5 C-9.73461631 4.15841464 -8.46246221 3.32700252 -7.1875 2.5 C-6.47980469 2.0359375 -5.77210938 1.571875 -5.04296875 1.09375 C-3 0 -3 0 0 0 Z " fill="#000000" transform="translate(137,28)"/>
<path d="M0 0 C0.721875 0.515625 1.44375 1.03125 2.1875 1.5625 C4.8562818 3.23330642 4.8562818 3.23330642 7.5625 2.8125 C9.8495712 2.05014293 11.89451994 1.16971114 14 0 C14 4 14 4 12.6875 5.703125 C12.130625 6.21359375 11.57375 6.7240625 11 7.25 C10.443125 7.77078125 9.88625 8.2915625 9.3125 8.828125 C8.6628125 9.40820312 8.6628125 9.40820312 8 10 C4.18315774 8.44499019 1.80804268 5.96404505 -1 3 C-0.67 2.01 -0.34 1.02 0 0 Z " fill="#000000" transform="translate(343,211)"/>
<path d="M0 0 C0.886875 0.515625 1.77375 1.03125 2.6875 1.5625 C6.24935639 3.10821126 7.41936144 3.2580622 11 2 C11.99 1.34 12.98 0.68 14 0 C14 4 14 4 12.46875 5.703125 C10.64583333 7.13541667 8.82291667 8.56770833 7 10 C4.36 7.69 1.72 5.38 -1 3 C-0.67 2.01 -0.34 1.02 0 0 Z " fill="#000000" transform="translate(255,208)"/>
<path d="M0 0 C0.99 0 1.98 0 3 0 C3.33 2.64 3.66 5.28 4 8 C5.32 7.01 6.64 6.02 8 5 C8 6.32 8 7.64 8 9 C7.34 9.66 6.68 10.32 6 11 C2.875 10.625 2.875 10.625 0 10 C0 6.7 0 3.4 0 0 Z " fill="#000000" transform="translate(261,120)"/>
<path d="M0 0 C3.25597758 0.24118352 4.7276304 1.52224212 6.8125 3.875 C7.534375 4.90625 8.25625 5.9375 9 7 C8.67 7.99 8.34 8.98 8 10 C6 10 6 10 4.4921875 8.57421875 C3.95851563 7.95160156 3.42484375 7.32898438 2.875 6.6875 C2.33617187 6.07261719 1.79734375 5.45773438 1.2421875 4.82421875 C0 3 0 3 0 0 Z " fill="#000000" transform="translate(337,106)"/>
<path d="M0 0 C2.67901932 2.31881505 3.66204403 4.31814468 4.6875 7.6875 C4.93886719 8.49574219 5.19023437 9.30398437 5.44921875 10.13671875 C5.63097656 10.75160156 5.81273437 11.36648437 6 12 C5.01 12.33 4.02 12.66 3 13 C2.29819469 11.5903653 1.61406042 10.17192359 0.9375 8.75 C0.55464844 7.96109375 0.17179688 7.1721875 -0.22265625 6.359375 C-1.08564091 3.74006478 -0.93045933 2.55144824 0 0 Z " fill="#000000" transform="translate(189,80)"/>
<path d="M0 0 C0.99 0.33 1.98 0.66 3 1 C1.35 4.63 -0.3 8.26 -2 12 C-2.99 12 -3.98 12 -5 12 C-4.54738642 10.56068883 -4.08767021 9.12361001 -3.625 7.6875 C-3.24214844 6.48673828 -3.24214844 6.48673828 -2.8515625 5.26171875 C-2 3 -2 3 0 0 Z " fill="#000000" transform="translate(38,74)"/>
<path d="M0 0 C0 3 0 3 -1.75 4.82421875 C-2.4925 5.43910156 -3.235 6.05398437 -4 6.6875 C-4.7425 7.31011719 -5.485 7.93273438 -6.25 8.57421875 C-6.8275 9.04472656 -7.405 9.51523437 -8 10 C-8.99 9.01 -9.98 8.02 -11 7 C-9.73742767 5.82439821 -8.46462916 4.65977135 -7.1875 3.5 C-6.12595703 2.52546875 -6.12595703 2.52546875 -5.04296875 1.53125 C-3 0 -3 0 0 0 Z " fill="#000000" transform="translate(65,44)"/>
<path d="M0 0 C0 0.99 0 1.98 0 3 C-3.96 3.66 -7.92 4.32 -12 5 C-12.33 4.01 -12.66 3.02 -13 2 C-4.57142857 -0.28571429 -4.57142857 -0.28571429 0 0 Z " fill="#000000" transform="translate(133,208)"/>
<path d="M0 0 C1.60463449 0.31008884 3.20869231 0.62316287 4.8125 0.9375 C5.70582031 1.11152344 6.59914063 1.28554687 7.51953125 1.46484375 C10 2 10 2 13 3 C12.67 3.99 12.34 4.98 12 6 C6.06 4.515 6.06 4.515 0 3 C0 2.01 0 1.02 0 0 Z " fill="#000000" transform="translate(81,205)"/>
<path d="M0 0 C-1.59231949 4.29926263 -4.39313359 6.35005733 -8 9 C-8.99 9 -9.98 9 -11 9 C-11 8.01 -11 7.02 -11 6 C-9.35546875 4.39453125 -9.35546875 4.39453125 -7.1875 2.8125 C-6.47980469 2.28269531 -5.77210938 1.75289062 -5.04296875 1.20703125 C-3 0 -3 0 0 0 Z " fill="#000000" transform="translate(168,190)"/>
<path d="M0 0 C0.99 0 1.98 0 3 0 C2.54738642 1.43931117 2.08767021 2.87638999 1.625 4.3125 C1.36976563 5.11300781 1.11453125 5.91351563 0.8515625 6.73828125 C0 9 0 9 -2 12 C-2.99 11.67 -3.98 11.34 -5 11 C-3.35 7.37 -1.7 3.74 0 0 Z " fill="#000000" transform="translate(188,158)"/>
<path d="M0 0 C0.99 0 1.98 0 3 0 C3.02708567 1.60407328 3.04643483 3.2082785 3.0625 4.8125 C3.07410156 5.70582031 3.08570313 6.59914063 3.09765625 7.51953125 C3 10 3 10 2 13 C1.01 13 0.02 13 -1 13 C-0.67 8.71 -0.34 4.42 0 0 Z " fill="#000000" transform="translate(196,119)"/>
<path d="M0 0 C0.99 0 1.98 0 3 0 C3.50833591 1.24663331 4.00631145 2.49749387 4.5 3.75 C4.7784375 4.44609375 5.056875 5.1421875 5.34375 5.859375 C6 8 6 8 6 12 C5.01 12 4.02 12 3 12 C2.49440092 10.56445975 1.9957251 9.1264798 1.5 7.6875 C1.2215625 6.88699219 0.943125 6.08648437 0.65625 5.26171875 C0 3 0 3 0 0 Z " fill="#000000" transform="translate(29,151)"/>
<path d="M0 0 C-0.33 0.99 -0.66 1.98 -1 3 C-3.28515625 3.94921875 -3.28515625 3.94921875 -6.0625 4.6875 C-7.44115234 5.06455078 -7.44115234 5.06455078 -8.84765625 5.44921875 C-9.55792969 5.63097656 -10.26820313 5.81273438 -11 6 C-11.33 5.01 -11.66 4.02 -12 3 C-10.3789897 2.30314502 -8.75303934 1.61777139 -7.125 0.9375 C-6.22007812 0.55464844 -5.31515625 0.17179687 -4.3828125 -0.22265625 C-2 -1 -2 -1 0 0 Z " fill="#000000" transform="translate(307,104)"/>
<path d="M0 0 C3.98021881 2.16069021 6.97250324 4.62650361 10 8 C10 8.66 10 9.32 10 10 C6.60807637 9.40716379 4.7892243 8.23256811 2.25 5.9375 C1.63640625 5.38964844 1.0228125 4.84179688 0.390625 4.27734375 C-0.06828125 3.85582031 -0.5271875 3.43429688 -1 3 C-0.67 2.01 -0.34 1.02 0 0 Z " fill="#000000" transform="translate(164,49)"/>
<path d="M0 0 C0.48210938 0.42152344 0.96421875 0.84304687 1.4609375 1.27734375 C2.09257813 1.82519531 2.72421875 2.37304688 3.375 2.9375 C4.00148438 3.48277344 4.62796875 4.02804688 5.2734375 4.58984375 C6.95632334 6.06958624 6.95632334 6.06958624 9 7 C9 7.99 9 8.98 9 10 C5.64749299 9.42424336 4.06181371 8.40693737 1.75 5.9375 C1.22921875 5.38964844 0.7084375 4.84179688 0.171875 4.27734375 C-0.21484375 3.85582031 -0.6015625 3.43429688 -1 3 C-0.67 2.01 -0.34 1.02 0 0 Z " fill="#000000" transform="translate(49,184)"/>
<path d="M0 0 C0 0.99 0 1.98 0 3 C-5.94 3.495 -5.94 3.495 -12 4 C-12 3.01 -12 2.02 -12 1 C-7.9472484 0.01751476 -4.16138263 -0.08159574 0 0 Z " fill="#000000" transform="translate(101,30)"/>
<path d="M0 0 C0 0.99 0 1.98 0 3 C-1.6796875 4.38671875 -1.6796875 4.38671875 -3.875 5.6875 C-4.59429687 6.12449219 -5.31359375 6.56148438 -6.0546875 7.01171875 C-8 8 -8 8 -10 8 C-9.875 6.25 -9.875 6.25 -9 4 C-3.88888889 0 -3.88888889 0 0 0 Z " fill="#000000" transform="translate(287,113)"/>
<path d="M0 0 C0.99 0 1.98 0 3 0 C3.08159574 4.16138263 2.98248524 7.9472484 2 12 C1.01 12 0.02 12 -1 12 C-0.67 8.04 -0.34 4.08 0 0 Z " fill="#000000" transform="translate(26,112)"/>
<path d="M0 0 C3.96 0 7.92 0 12 0 C12 0.99 12 1.98 12 3 C8.37 3 4.74 3 1 3 C0.67 2.01 0.34 1.02 0 0 Z " fill="#000000" transform="translate(316,101)"/>
<path d="M0 0 C0.99 0 1.98 0 3 0 C3 3.3 3 6.6 3 10 C2.01 10 1.02 10 0 10 C0 6.7 0 3.4 0 0 Z " fill="#000000" transform="translate(261,193)"/>
<path d="M0 0 C0.99 0 1.98 0 3 0 C3 3.3 3 6.6 3 10 C2.01 10 1.02 10 0 10 C0 6.7 0 3.4 0 0 Z " fill="#000000" transform="translate(261,138)"/>
<path d="M0 0 C0.99 0 1.98 0 3 0 C3 3.3 3 6.6 3 10 C2.01 10 1.02 10 0 10 C0 6.7 0 3.4 0 0 Z " fill="#000000" transform="translate(261,101)"/>
<path d="M0 0 C0.99 0 1.98 0 3 0 C3 2.97 3 5.94 3 9 C2.01 9.33 1.02 9.66 0 10 C0 6.7 0 3.4 0 0 Z " fill="#000000" transform="translate(261,175)"/>
<path d="M0 0 C0.99 0.33 1.98 0.66 3 1 C3 3.97 3 6.94 3 10 C2.01 10 1.02 10 0 10 C0 6.7 0 3.4 0 0 Z " fill="#000000" transform="translate(261,156)"/>
<path d="M0 0 C0.66 0 1.32 0 2 0 C3.26237731 2.52475462 3.09856404 4.31200466 3.0625 7.125 C3.05347656 8.03507813 3.04445313 8.94515625 3.03515625 9.8828125 C3.02355469 10.58148438 3.01195312 11.28015625 3 12 C2.34 12 1.68 12 1 12 C0.63896464 10.18885568 0.28634496 8.37603177 -0.0625 6.5625 C-0.25972656 5.55316406 -0.45695312 4.54382813 -0.66015625 3.50390625 C-0.77230469 2.67761719 -0.88445312 1.85132812 -1 1 C-0.67 0.67 -0.34 0.34 0 0 Z " fill="#000000" transform="translate(348,124)"/>
<path d="M0 0 C0.66 0 1.32 0 2 0 C2 3.96 2 7.92 2 12 C1.34 12 0.68 12 0 12 C0 8.04 0 4.08 0 0 Z " fill="#000000" transform="translate(349,191)"/>
<path d="M0 0 C0.66 0 1.32 0 2 0 C2 3.96 2 7.92 2 12 C1.34 12 0.68 12 0 12 C0 8.04 0 4.08 0 0 Z " fill="#000000" transform="translate(349,169)"/>
<path d="M0 0 C0.66 0 1.32 0 2 0 C2 3.96 2 7.92 2 12 C1.34 12 0.68 12 0 12 C0 8.04 0 4.08 0 0 Z " fill="#000000" transform="translate(349,146)"/>
<path d="M0 0 C1.5 1.375 1.5 1.375 3 3 C3 3.66 3 4.32 3 5 C1.0625 4.6875 1.0625 4.6875 -1 4 C-1.33 3.01 -1.66 2.02 -2 1 C-1.34 0.67 -0.68 0.34 0 0 Z " fill="#000000" transform="translate(179,63)"/>
<path d="M0 0 C-0.3125 1.9375 -0.3125 1.9375 -1 4 C-1.99 4.33 -2.98 4.66 -4 5 C-4 3.68 -4 2.36 -4 1 C-2 0 -2 0 0 0 Z " fill="#000000" transform="translate(75,37)"/>
<path d="M0 0 C1.65 0 3.3 0 5 0 C5 0.99 5 1.98 5 3 C3.35 3 1.7 3 0 3 C0 2.01 0 1.02 0 0 Z " fill="#000000" transform="translate(108,210)"/>
<path d="M0 0 C1.32 0.66 2.64 1.32 4 2 C3.67 2.99 3.34 3.98 3 5 C1.68 4.34 0.36 3.68 -1 3 C-0.67 2.01 -0.34 1.02 0 0 Z " fill="#000000" transform="translate(71,200)"/>
<path d="M0 0 C0.99 0.33 1.98 0.66 3 1 C3.33 1.99 3.66 2.98 4 4 C2.68 4 1.36 4 0 4 C-0.33 3.01 -0.66 2.02 -1 1 C-0.67 0.67 -0.34 0.34 0 0 Z " fill="#000000" transform="translate(41,175)"/>
<path d="M0 0 C0.99 0.33 1.98 0.66 3 1 C2.34 2.32 1.68 3.64 1 5 C0.01 4.67 -0.98 4.34 -2 4 C-1.34 2.68 -0.68 1.36 0 0 Z " fill="#000000" transform="translate(44,64)"/>
<path d="M0 0 C2.475 0.99 2.475 0.99 5 2 C4.67 2.66 4.34 3.32 4 4 C2.35 3.67 0.7 3.34 -1 3 C-0.67 2.01 -0.34 1.02 0 0 Z " fill="#000000" transform="translate(147,39)"/>
<path d="M0 0 C1.98 0.495 1.98 0.495 4 1 C2.625 2.5 2.625 2.5 1 4 C0.34 4 -0.32 4 -1 4 C-0.67 2.68 -0.34 1.36 0 0 Z " fill="#000000" transform="translate(148,201)"/>
<path d="M0 0 C0.99 0 1.98 0 3 0 C2.67 1.65 2.34 3.3 2 5 C1.01 4.67 0.02 4.34 -1 4 C-0.67 2.68 -0.34 1.36 0 0 Z " fill="#000000" transform="translate(194,139)"/>
<path d="M0 0 C0.66 0 1.32 0 2 0 C2.33 1.65 2.66 3.3 3 5 C2.01 5 1.02 5 0 5 C-0.5625 3.0625 -0.5625 3.0625 -1 1 C-0.67 0.67 -0.34 0.34 0 0 Z " fill="#000000" transform="translate(27,139)"/>
<path d="M0 0 C0.99 0 1.98 0 3 0 C2.67 1.65 2.34 3.3 2 5 C1.34 5 0.68 5 0 5 C0 3.35 0 1.7 0 0 Z " fill="#000000" transform="translate(28,100)"/>
<path d="M0 0 C0.66 0 1.32 0 2 0 C1.67 1.32 1.34 2.64 1 4 C0.01 4 -0.98 4 -2 4 C-1.34 2.68 -0.68 1.36 0 0 Z " fill="#000000" transform="translate(179,175)"/>
<path d="M0 0 C0.66 0 1.32 0 2 0 C2 1.65 2 3.3 2 5 C1.01 4.67 0.02 4.34 -1 4 C-0.67 2.68 -0.34 1.36 0 0 Z " fill="#000000" transform="translate(195,99)"/>
</svg>
