<?xml version="1.0" encoding="UTF-8"?>
<svg version="1.1" xmlns="http://www.w3.org/2000/svg" width="194" height="205">
<path d="M0 0 C20.37491015 16.23091285 32.41644591 39.17619893 35.875 64.875 C38.16430289 95.84881327 31.14435755 124.8607265 10.875 148.875 C10.36839844 149.52597656 9.86179688 150.17695313 9.33984375 150.84765625 C-4.8634812 168.40115122 -27.76420099 178.77480246 -49.80078125 181.59375 C-78.53360494 184.02472921 -105.78377227 176.27365813 -128.125 157.875 C-145.68312653 142.31025331 -156.79953948 118.91497695 -158.34814453 95.5012207 C-159.44945999 60.74303726 -151.97154326 28.35764213 -127.58398438 2.35644531 C-92.66997801 -33.09505914 -37.71106883 -29.0025675 0 0 Z M-119.125 2.875 C-119.88039062 3.55046875 -120.63578125 4.2259375 -121.4140625 4.921875 C-141.56491965 23.89553431 -152.27788431 52.53626636 -153.125 79.875 C-153.37282288 96.68157977 -150.45467178 112.67670999 -143.125 127.875 C-142.70734375 128.77347656 -142.2896875 129.67195312 -141.859375 130.59765625 C-132.35376104 149.58156918 -115.817745 162.61694689 -96.125 169.875 C-70.89266213 178.09894657 -45.46314806 178.40359645 -21.125 166.875 C2.08400535 154.76516435 17.83802181 133.97054444 26.02392578 109.4296875 C33.83205872 84.50839272 31.91936608 56.02434693 19.92285156 32.77001953 C7.07059324 9.52695591 -14.32673159 -5.32923223 -39.3515625 -13.09375 C-67.92863906 -20.90363428 -96.57715402 -17.85319525 -119.125 2.875 Z " fill="#000000" transform="translate(158.125,23.125)"/>
<path d="M0 0 C11.04702405 8.13335198 17.4131257 18.52790745 20 32 C21.18629052 42.58751558 19.99140539 52.07016221 16 62 C15.72285156 62.73476562 15.44570312 63.46953125 15.16015625 64.2265625 C10.51051952 74.98286498 0.45062355 83.91004727 -10.25 88.3125 C-22.81462774 93.05424646 -36.70700892 92.27779084 -49 87 C-60.80958182 81.31390505 -68.20968724 73.20461849 -73 61 C-77.50506707 46.09625071 -76.11757262 29.75338043 -69.45703125 15.7578125 C-63.36876307 4.58437753 -54.88004278 -3.94259397 -42.67578125 -8.14453125 C-27.63200563 -11.64568626 -12.9659871 -7.92846742 0 0 Z M-57 8 C-66.76172811 19.30508433 -70.41160959 33.51609246 -69.8828125 48.26953125 C-68.57707265 58.43564868 -63.84315975 69.17224932 -56 76 C-44.85521051 84.16510619 -33.5449576 86.20550123 -20 85 C-9.05476677 82.60234371 0.63736376 76.23454936 7 67 C13.96853392 54.17198266 16.69793668 39.83482992 12.5 25.625 C8.43586986 15.26573121 1.81144154 7.28751695 -8 2 C-11.60697666 0.43362368 -15.23140987 -0.88025916 -19 -2 C-19.61875 -2.19207031 -20.2375 -2.38414063 -20.875 -2.58203125 C-34.75657388 -5.31241435 -46.89711414 -1.80242829 -57 8 Z " fill="#000000" transform="translate(124,63)"/>
<path d="M0 0 C3.69186542 2.59216083 4.82883761 4.04149064 5.625 8.5 C4.83397068 12.9297642 3.63525215 14.39210172 0 17 C-3.7992366 17.71235686 -5.43724821 17.31263988 -8.8125 15.4375 C-11.65198603 12.27350128 -11.92484951 10.20842764 -12 6 C-10.067622 0.04183448 -5.77506696 -0.69699084 0 0 Z " fill="#000000" transform="translate(99,19)"/>
<path d="M0 0 C2.31 1.98 4.62 3.96 7 6 C6.67 7.32 6.34 8.64 6 10 C4.203125 10.68359375 4.203125 10.68359375 2 11 C0.296875 9.78515625 0.296875 9.78515625 -1.25 8.0625 C-1.77078125 7.49660156 -2.2915625 6.93070313 -2.828125 6.34765625 C-3.21484375 5.90292969 -3.6015625 5.45820313 -4 5 C-2.25 1.125 -2.25 1.125 0 0 Z " fill="#000000" transform="translate(40,153)"/>
<path d="M0 0 C1.32 0.99 2.64 1.98 4 3 C3.42647107 6.87132028 1.51295648 9.08172796 -1 12 C-3.475 11.01 -3.475 11.01 -6 10 C-6 6.41087588 -5.33563446 5.89142971 -3 3.3125 C-2.443125 2.68988281 -1.88625 2.06726562 -1.3125 1.42578125 C-0.879375 0.95527344 -0.44625 0.48476563 0 0 Z " fill="#000000" transform="translate(44,44)"/>
<path d="M0 0 C3.48670834 1.1094072 6.77484237 2.26337666 10 4 C9.34 5.98 8.68 7.96 8 10 C4.08788267 8.84414715 1.1254959 7.64465038 -2 5 C-1.34 3.35 -0.68 1.7 0 0 Z " fill="#000000" transform="translate(53,166)"/>
<path d="M0 0 C2.475 0.99 2.475 0.99 5 2 C3.68775452 5.93673644 2.08089673 8.22719294 -1 11 C-2.32 10.34 -3.64 9.68 -5 9 C-5 5 -5 5 -2.5 2.25 C-1.675 1.5075 -0.85 0.765 0 0 Z " fill="#000000" transform="translate(148,153)"/>
<path d="M0 0 C1.98 0.66 3.96 1.32 6 2 C4.84414715 5.91211733 3.64465038 8.8745041 1 12 C-1.475 11.01 -1.475 11.01 -4 10 C-2.8905928 6.51329166 -1.73662334 3.22515763 0 0 Z " fill="#000000" transform="translate(158,136)"/>
<path d="M0 0 C3.63 0 7.26 0 11 0 C11 1.98 11 3.96 11 6 C7.37 6 3.74 6 0 6 C0 4.02 0 2.04 0 0 Z " fill="#000000" transform="translate(89,178)"/>
<path d="M0 0 C0.6875 2.0625 0.6875 2.0625 1 4 C-0.28813342 4.83878455 -1.58063256 5.67086783 -2.875 6.5 C-3.59429687 6.9640625 -4.31359375 7.428125 -5.0546875 7.90625 C-7 9 -7 9 -9 9 C-9.66 7.35 -10.32 5.7 -11 4 C-9.73760288 3.13341385 -8.46472499 2.28207941 -7.1875 1.4375 C-6.47980469 0.96183594 -5.77210938 0.48617187 -5.04296875 -0.00390625 C-3 -1 -3 -1 0 0 Z " fill="#000000" transform="translate(137,167)"/>
<path d="M0 0 C1.98 0 3.96 0 6 0 C6 3.63 6 7.26 6 11 C4.02 11 2.04 11 0 11 C0 7.37 0 3.74 0 0 Z " fill="#000000" transform="translate(20,99)"/>
<path d="M0 0 C4.06153846 6.4 4.06153846 6.4 3.75 9.4375 C3.5025 9.953125 3.255 10.46875 3 11 C1.68 11.33 0.36 11.66 -1 12 C-5 5.375 -5 5.375 -5 2 C-2 0 -2 0 0 0 Z " fill="#000000" transform="translate(160,60)"/>
<path d="M0 0 C3.3 1.65 6.6 3.3 10 5 C9.34 6.65 8.68 8.3 8 10 C4.33118845 9.29445932 1.29549466 7.72264494 -2 6 C-1.34 4.02 -0.68 2.04 0 0 Z " fill="#000000" transform="translate(128,33)"/>
<path d="M0 0 C2.97 0.495 2.97 0.495 6 1 C5.71890887 2.64767247 5.42481474 4.29313145 5.125 5.9375 C4.96257812 6.85402344 4.80015625 7.77054687 4.6328125 8.71484375 C4.42398438 9.46894531 4.21515625 10.22304687 4 11 C3.01 11.495 3.01 11.495 2 12 C0.68 11.34 -0.64 10.68 -2 10 C-1.34 6.7 -0.68 3.4 0 0 Z " fill="#000000" transform="translate(164,118)"/>
<path d="M0 0 C0.33 3.3 0.66 6.6 1 10 C-0.98 10 -2.96 10 -5 10 C-5.66 6.7 -6.32 3.4 -7 0 C-4 -1 -4 -1 0 0 Z " fill="#000000" transform="translate(169,80)"/>
<path d="M0 0 C1.98 0.66 3.96 1.32 6 2 C5.745504 3.48206495 5.47088238 4.96068615 5.1875 6.4375 C5.03667969 7.26121094 4.88585937 8.08492187 4.73046875 8.93359375 C4.48941406 9.61550781 4.24835937 10.29742187 4 11 C1 12 1 12 -2 11 C-1.85892253 9.54119891 -1.71197585 8.08296449 -1.5625 6.625 C-1.48128906 5.81289062 -1.40007813 5.00078125 -1.31640625 4.1640625 C-1 2 -1 2 0 0 Z " fill="#000000" transform="translate(24,79)"/>
<path d="M0 0 C0.99 0.33 1.98 0.66 3 1 C3.33 2.32 3.66 3.64 4 5 C1.69 6.65 -0.62 8.3 -3 10 C-4.32 9.34 -5.64 8.68 -7 8 C-6.875 6.25 -6.875 6.25 -6 4 C-3.125 1.6875 -3.125 1.6875 0 0 Z " fill="#000000" transform="translate(59,32)"/>
<path d="M0 0 C5.445 1.485 5.445 1.485 11 3 C10.34 4.98 9.68 6.96 9 9 C5.7 8.01 2.4 7.02 -1 6 C-0.67 4.02 -0.34 2.04 0 0 Z " fill="#000000" transform="translate(109,26)"/>
<path d="M0 0 C0.33 1.98 0.66 3.96 1 6 C-2.3 6.66 -5.6 7.32 -9 8 C-9.66 6.35 -10.32 4.7 -11 3 C-4.5 0 -4.5 0 0 0 Z " fill="#000000" transform="translate(80,25)"/>
<path d="M0 0 C0.33 1.65 0.66 3.3 1 5 C-0.45706726 5.50367757 -1.91570096 6.00282556 -3.375 6.5 C-4.59316406 6.91765625 -4.59316406 6.91765625 -5.8359375 7.34375 C-8 8 -8 8 -10 8 C-10.33 6.02 -10.66 4.04 -11 2 C-7.17679443 0.57741188 -4.08718695 -0.24042276 0 0 Z " fill="#000000" transform="translate(119,175)"/>
<path d="M0 0 C3.3 0.66 6.6 1.32 10 2 C9.67 3.98 9.34 5.96 9 8 C1.375 7.125 1.375 7.125 -2 6 C-1.34 4.02 -0.68 2.04 0 0 Z " fill="#000000" transform="translate(71,174)"/>
<path d="M0 0 C3 6.625 3 6.625 3 10 C1.35 10.66 -0.3 11.32 -2 12 C-2.67408308 10.73308493 -3.33900497 9.46129251 -4 8.1875 C-4.37125 7.47980469 -4.7425 6.77210938 -5.125 6.04296875 C-6 4 -6 4 -6 1 C-3 0 -3 0 0 0 Z " fill="#000000" transform="translate(32,137)"/>
<path d="M0 0 C0.4140625 2.28515625 0.4140625 2.28515625 0.625 5.0625 C0.69976563 5.98160156 0.77453125 6.90070313 0.8515625 7.84765625 C0.90054687 8.55792969 0.94953125 9.26820313 1 10 C-0.65 10.33 -2.3 10.66 -4 11 C-5.42258812 7.17679443 -6.24042276 4.08718695 -6 0 C-2.25 -1.125 -2.25 -1.125 0 0 Z " fill="#000000" transform="translate(27,119)"/>
<path d="M0 0 C1.66611905 -0.042721 3.33382885 -0.04063832 5 0 C5.33 0.33 5.66 0.66 6 1 C5.91036938 2.69141656 5.75422324 4.37959602 5.5625 6.0625 C5.46066406 6.98160156 5.35882813 7.90070313 5.25390625 8.84765625 C5.12822266 9.91306641 5.12822266 9.91306641 5 11 C3.35 11 1.7 11 0 11 C-1.26026798 8.47946405 -0.91874445 7.1457902 -0.5625 4.375 C-0.46066406 3.55773437 -0.35882813 2.74046875 -0.25390625 1.8984375 C-0.17011719 1.27195312 -0.08632812 0.64546875 0 0 Z " fill="#000000" transform="translate(166,99)"/>
<path d="M0 0 C2.475 0.99 2.475 0.99 5 2 C3.94124926 5.40312738 2.99097846 8.01353231 1 11 C-1.97 10.505 -1.97 10.505 -5 10 C-3.35 6.7 -1.7 3.4 0 0 Z " fill="#000000" transform="translate(32,61)"/>
<path d="M0 0 C3.36295835 1.44126786 5.62927102 3.20592655 8 6 C8 6.99 8 7.98 8 9 C6.35 9.66 4.7 10.32 3 11 C1.02 8.36 -0.96 5.72 -3 3 C-2.01 2.01 -1.02 1.02 0 0 Z " fill="#000000" transform="translate(145,45)"/>
</svg>
