<?xml version="1.0" encoding="UTF-8"?>
<svg version="1.1" xmlns="http://www.w3.org/2000/svg" width="177" height="196">
<path d="M0 0 C16.5 0 33 0 50 0 C58.99063476 12.36212279 58.99063476 12.36212279 61.859375 16.91015625 C62.81058228 18.40953735 62.81058228 18.40953735 63.78100586 19.93920898 C64.43077393 20.96989502 65.08054199 22.00058105 65.75 23.0625 C70.41122394 30.40113874 75.08983213 37.72042372 79.9375 44.9375 C86.96293682 55.40278724 93.84029303 65.96411322 100.72851562 76.52001953 C104.25044687 81.91663189 107.77720613 87.31008878 111.30386353 92.70361328 C112.41720079 94.40645254 113.53028131 96.10945939 114.64331055 97.8125 C115.316604 98.84246094 115.98989746 99.87242188 116.68359375 100.93359375 C117.57389282 102.2956897 117.57389282 102.2956897 118.48217773 103.68530273 C119.64714961 105.4618989 120.82154555 107.23231833 122 109 C122.33 73.03 122.66 37.06 123 0 C140.82 0 158.64 0 177 0 C177 64.68 177 129.36 177 196 C159.51 196 142.02 196 124 196 C118.73519422 188.76089206 113.65889795 181.56418753 108.8125 174.0625 C107.32898659 171.78068341 105.84469972 169.4993865 104.359375 167.21875 C103.95308365 166.59444595 103.5467923 165.97014191 103.12818909 165.32691956 C97.59426634 156.83033173 92.01213915 148.36539832 86.43197632 139.8991394 C84.63140334 137.1670501 82.8319072 134.43425392 81.0324707 131.70141602 C71.40776424 117.09820644 61.70193959 102.55290938 52 88 C51.67 123.64 51.34 159.28 51 196 C34.17 196 17.34 196 0 196 C0 131.32 0 66.64 0 0 Z M6 6 C6 67.05 6 128.1 6 191 C19.2 191 32.4 191 46 191 C46.33 150.74 46.66 110.48 47 69 C50.3 74.28 53.6 79.56 57 85 C59.26780482 88.43940376 61.54391676 91.86218653 63.86328125 95.265625 C64.76133736 96.59216095 64.76133736 96.59216095 65.67753601 97.94549561 C67.55317468 100.715494 69.43246204 103.48298602 71.3125 106.25 C79.00539984 117.58150156 86.65062731 128.93405874 94.08851624 140.43495178 C99.94085082 149.47666772 105.90962977 158.43993343 111.88867188 167.39819336 C113.79212221 170.25062254 115.69301902 173.1047426 117.59375 175.95898438 C118.80714321 177.77874483 120.02067908 179.59841018 121.234375 181.41796875 C121.80089783 182.26876511 122.36742065 183.11956146 122.95111084 183.99613953 C123.72892914 185.16050285 123.72892914 185.16050285 124.52246094 186.34838867 C124.97844666 187.03196945 125.43443237 187.71555023 125.90423584 188.41984558 C126.90769686 189.96707136 126.90769686 189.96707136 128 191 C142.52 191 157.04 191 172 191 C172 129.95 172 68.9 172 6 C157.81 6 143.62 6 129 6 C128.67 46.59 128.34 87.18 128 129 C114.24632353 108.36948529 114.24632353 108.36948529 107.8125 98.5 C106.7226335 96.83071081 105.63276552 95.16142259 104.54281616 93.4921875 C103.4301416 91.78792865 102.3178268 90.08343543 101.20556641 88.37890625 C96.93330503 81.83264234 92.6530335 75.29160944 88.37402344 68.74975586 C79.84940151 55.71537811 79.84940151 55.71537811 75.68164062 49.29443359 C74.27090062 47.14289256 72.84115399 45.00369261 71.39257812 42.87744141 C66.80168862 36.08718113 63.11083568 29.38225713 59.86499023 21.8840332 C56.40310118 16.01558269 51.51326851 11.10429177 47 6 C33.47 6 19.94 6 6 6 Z " fill="#000000" transform="translate(0,0)"/>
<path d="M0 0 C3.0261912 2.0174608 3.81051292 3.45522464 5 6.875 C5 11.06310044 3.66391321 12.83210321 1 16 C-0.8125 17.5625 -0.8125 17.5625 -3 18 C-7.31560798 16.58626635 -9.45172576 15.82241136 -12 12 C-12.65753425 5.09589041 -12.65753425 5.09589041 -10.5 1.5 C-6.97359191 -0.61584485 -4.01178761 -0.80730018 0 0 Z " fill="#000000" transform="translate(27,11)"/>
<path d="M0 0 C2.57990385 0.29317089 3.71766051 0.69016956 5.484375 2.62890625 C5.90203125 3.26699219 6.3196875 3.90507812 6.75 4.5625 C7.17796875 5.20316406 7.6059375 5.84382812 8.046875 6.50390625 C8.36140625 6.99761719 8.6759375 7.49132812 9 8 C7.6875 9.5 7.6875 9.5 6 11 C5.01 11 4.02 11 3 11 C0.25 8.25 0.25 8.25 -2 5 C-1.8726702 2.64439872 -1.65621618 1.65621618 0 0 Z " fill="#000000" transform="translate(135,155)"/>
<path d="M0 0 C1.5078125 1.75 1.5078125 1.75 3.125 4 C3.66382813 4.7425 4.20265625 5.485 4.7578125 6.25 C5.16773438 6.8275 5.57765625 7.405 6 8 C4.68 9.32 3.36 10.64 2 12 C-1.73884332 9.34345343 -3.64978174 7.41889613 -5 3 C-2.25 0 -2.25 0 0 0 Z " fill="#000000" transform="translate(125,139)"/>
<path d="M0 0 C3.7952131 1.49097658 5.61042731 3.75700849 8 7 C7.1875 8.9375 7.1875 8.9375 6 11 C5.01 11.33 4.02 11.66 3 12 C1.02 9.69 -0.96 7.38 -3 5 C-1 1 -1 1 0 0 Z " fill="#000000" transform="translate(110,124)"/>
<path d="M0 0 C3.79379058 1.49041773 5.68343758 3.69062512 8 7 C8 7.66 8 8.32 8 9 C5.5 10.625 5.5 10.625 3 12 C1.02 9.69 -0.96 7.38 -3 5 C-1 1 -1 1 0 0 Z " fill="#000000" transform="translate(59,63)"/>
<path d="M0 0 C1.98 0 3.96 0 6 0 C6 3.63 6 7.26 6 11 C4.02 11 2.04 11 0 11 C0 7.37 0 3.74 0 0 Z " fill="#000000" transform="translate(148,151)"/>
<path d="M0 0 C1.98 0 3.96 0 6 0 C6 3.63 6 7.26 6 11 C4.02 11 2.04 11 0 11 C0 7.37 0 3.74 0 0 Z " fill="#000000" transform="translate(20,151)"/>
<path d="M0 0 C1.98 0 3.96 0 6 0 C6 3.63 6 7.26 6 11 C4.02 11 2.04 11 0 11 C0 7.37 0 3.74 0 0 Z " fill="#000000" transform="translate(20,132)"/>
<path d="M0 0 C1.98 0 3.96 0 6 0 C6 3.63 6 7.26 6 11 C4.02 11 2.04 11 0 11 C0 7.37 0 3.74 0 0 Z " fill="#000000" transform="translate(20,113)"/>
<path d="M0 0 C3.78717347 1.48781815 5.77407001 3.61988409 8 7 C7.67 7.99 7.34 8.98 7 10 C5.68 10.33 4.36 10.66 3 11 C1.02 8.69 -0.96 6.38 -3 4 C-2.01 2.68 -1.02 1.36 0 0 Z " fill="#000000" transform="translate(97,109)"/>
<path d="M0 0 C1.9375 0 1.9375 0 4 1 C6.3125 3.3125 6.3125 3.3125 8 6 C7.75 8.3125 7.75 8.3125 7 10 C5.68 10.33 4.36 10.66 3 11 C1.02 8.36 -0.96 5.72 -3 3 C-2.01 2.01 -1.02 1.02 0 0 Z " fill="#000000" transform="translate(84,94)"/>
<path d="M0 0 C6.57142857 5.14285714 6.57142857 5.14285714 8 9 C5.525 10.485 5.525 10.485 3 12 C1.02 9.69 -0.96 7.38 -3 5 C-1 1 -1 1 0 0 Z " fill="#000000" transform="translate(72,78)"/>
<path d="M0 0 C1.98 0 3.96 0 6 0 C6 3.63 6 7.26 6 11 C4.35 11 2.7 11 1 11 C0 10 0 10 -0.09765625 7.71484375 C-0.08605469 6.79832031 -0.07445312 5.88179687 -0.0625 4.9375 C-0.05347656 4.01839844 -0.04445312 3.09929687 -0.03515625 2.15234375 C-0.02355469 1.44207031 -0.01195312 0.73179687 0 0 Z " fill="#000000" transform="translate(148,132)"/>
<path d="M0 0 C1.98 0 3.96 0 6 0 C6 3.63 6 7.26 6 11 C4.35 11 2.7 11 1 11 C0 10 0 10 -0.09765625 7.71484375 C-0.08605469 6.79832031 -0.07445312 5.88179688 -0.0625 4.9375 C-0.05347656 4.01839844 -0.04445312 3.09929687 -0.03515625 2.15234375 C-0.02355469 1.44207031 -0.01195312 0.73179688 0 0 Z " fill="#000000" transform="translate(148,113)"/>
<path d="M0 0 C2.90182859 1.31901299 4.23086073 3.38628816 6.0625 5.9375 C5.4025 7.2575 4.7425 8.5775 4.0625 9.9375 C2.7425 9.9375 1.4225 9.9375 0.0625 9.9375 C-4.9375 4.71022727 -4.9375 4.71022727 -4.9375 1.9375 C-1.9375 -0.0625 -1.9375 -0.0625 0 0 Z " fill="#000000" transform="translate(34.9375,33.0625)"/>
<path d="M0 0 C3.79379058 1.49041773 5.68343758 3.69062512 8 7 C8 7.66 8 8.32 8 9 C6.35 9.66 4.7 10.32 3 11 C1.02 8.69 -0.96 6.38 -3 4 C-2.01 2.68 -1.02 1.36 0 0 Z " fill="#000000" transform="translate(46,48)"/>
<path d="M0 0 C1.98 0 3.96 0 6 0 C6 3.3 6 6.6 6 10 C4.02 10 2.04 10 0 10 C0 6.7 0 3.4 0 0 Z " fill="#000000" transform="translate(148,94)"/>
<path d="M0 0 C1.98 0 3.96 0 6 0 C6 3.3 6 6.6 6 10 C4.02 10 2.04 10 0 10 C0 6.7 0 3.4 0 0 Z " fill="#000000" transform="translate(20,94)"/>
<path d="M0 0 C1.98 0 3.96 0 6 0 C6 3.3 6 6.6 6 10 C4.02 10 2.04 10 0 10 C0 6.7 0 3.4 0 0 Z " fill="#000000" transform="translate(148,75)"/>
<path d="M0 0 C1.98 0 3.96 0 6 0 C6 3.3 6 6.6 6 10 C4.02 10 2.04 10 0 10 C0 6.7 0 3.4 0 0 Z " fill="#000000" transform="translate(20,75)"/>
<path d="M0 0 C1.98 0 3.96 0 6 0 C6 3.3 6 6.6 6 10 C4.02 10 2.04 10 0 10 C0 6.7 0 3.4 0 0 Z " fill="#000000" transform="translate(148,56)"/>
<path d="M0 0 C1.98 0 3.96 0 6 0 C6 3.3 6 6.6 6 10 C4.02 10 2.04 10 0 10 C0 6.7 0 3.4 0 0 Z " fill="#000000" transform="translate(20,56)"/>
<path d="M0 0 C1.98 0 3.96 0 6 0 C6 3.3 6 6.6 6 10 C4.02 10 2.04 10 0 10 C0 6.7 0 3.4 0 0 Z " fill="#000000" transform="translate(148,37)"/>
<path d="M0 0 C1.98 0 3.96 0 6 0 C6 3.3 6 6.6 6 10 C4.02 10 2.04 10 0 10 C0 6.7 0 3.4 0 0 Z " fill="#000000" transform="translate(20,37)"/>
<path d="M0 0 C1.4540625 0.0309375 1.4540625 0.0309375 2.9375 0.0625 C2.9375 2.3725 2.9375 4.6825 2.9375 7.0625 C0.625 7.75 0.625 7.75 -2.0625 8.0625 C-3.9375 6.875 -3.9375 6.875 -5.0625 5.0625 C-4.59175166 1.06113911 -4.12566671 0.08419728 0 0 Z " fill="#000000" transform="translate(151.0625,169.9375)"/>
<path d="M0 0 C1.98 0 3.96 0 6 0 C6 1.98 6 3.96 6 6 C4.02 6 2.04 6 0 6 C0 4.02 0 2.04 0 0 Z " fill="#000000" transform="translate(20,170)"/>
<path d="M0 0 C1.98 0 3.96 0 6 0 C6 1.65 6 3.3 6 5 C4.02 5 2.04 5 0 5 C0 3.35 0 1.7 0 0 Z " fill="#000000" transform="translate(148,23)"/>
</svg>
