<svg width="292" height="326" viewBox="0 0 292 326" fill="none" xmlns="http://www.w3.org/2000/svg">
<path d="M22.3642 280.616L103.846 32.1138C139.13 -21.3056 174.862 9.8557 188.318 32.1138L266.062 286.532C261.876 337.247 219.715 324.568 207.007 305.973L191.308 254.413H93.3803L77.6822 305.973C40.6042 347.221 20.1212 303.437 22.3642 280.616Z" stroke="black" stroke-width="5"/>
<path d="M111.216 187.08L143.382 81.9045L175.548 187.08H111.216Z" stroke="black" stroke-width="5"/>
<path d="M148.618 28.5076L214.891 218.633M236.888 281.739L214.891 218.633M214.891 218.633H73.813M141.138 28.5076L52.1195 281.739" stroke="black" stroke-width="5" stroke-dasharray="15 15"/>
<rect x="129.917" y="15.5627" width="29.9221" height="29.1256" rx="14.5628" fill="#FF0000"/>
<path d="M81.2935 48.7336L7.23636 267.985M7.23636 267.985L2 256.658M7.23636 267.985L17.7091 260.703" stroke="black" stroke-width="3"/>
<path d="M213.699 48.7336L287.756 272.03M287.756 272.03L290 260.703M287.756 272.03L278.031 267.985" stroke="black" stroke-width="3"/>
<path d="M106.727 276.869L182.762 277.976M182.762 277.976L179.62 275.829M182.762 277.976L180.385 280.878" stroke="black" stroke-width="3"/>
<path d="M76.9759 16.34L80.4359 14.4H82.4359V28H80.0759V17.04L78.0359 18.16L76.9759 16.34Z" fill="black"/>
<path d="M213.95 28H205.71V26.1C205.71 25.14 205.836 24.34 206.09 23.7C206.343 23.0467 206.683 22.5133 207.11 22.1C207.536 21.6733 208.003 21.3333 208.51 21.08L209.87 20.4C210.39 20.1333 210.81 19.8533 211.13 19.56C211.463 19.2533 211.63 18.86 211.63 18.38V18.02C211.63 17.5267 211.456 17.14 211.11 16.86C210.776 16.5667 210.236 16.42 209.49 16.42C209.036 16.42 208.576 16.4867 208.11 16.62C207.656 16.7533 207.103 16.94 206.45 17.18L205.71 15.12C206.456 14.7867 207.136 14.5533 207.75 14.42C208.376 14.2733 208.983 14.2 209.57 14.2C210.65 14.2 211.51 14.3733 212.15 14.72C212.803 15.0667 213.27 15.5333 213.55 16.12C213.843 16.6933 213.99 17.3267 213.99 18.02V18.38C213.99 19.1 213.843 19.7133 213.55 20.22C213.27 20.7267 212.896 21.1533 212.43 21.5C211.963 21.8467 211.456 22.1533 210.91 22.42L209.55 23.1C209.056 23.34 208.69 23.6733 208.45 24.1C208.223 24.5267 208.096 25.0733 208.07 25.74H213.95V28Z" fill="black"/>
<path d="M148.788 300.993C148.788 301.7 148.642 302.353 148.348 302.953C148.055 303.54 147.582 304.013 146.928 304.373C146.288 304.72 145.428 304.893 144.348 304.893C143.735 304.893 143.095 304.82 142.428 304.673C141.775 304.527 141.055 304.28 140.268 303.933L141.008 301.873C141.715 302.127 142.308 302.327 142.788 302.473C143.282 302.607 143.775 302.673 144.268 302.673C144.975 302.673 145.508 302.533 145.868 302.253C146.242 301.96 146.428 301.507 146.428 300.893V300.613C146.428 300.107 146.268 299.7 145.948 299.393C145.642 299.073 145.162 298.913 144.508 298.913H142.388V296.753H144.508C145.135 296.753 145.595 296.607 145.888 296.313C146.182 296.007 146.328 295.613 146.328 295.133V294.853C146.328 294.24 146.155 293.8 145.808 293.533C145.475 293.253 144.982 293.113 144.328 293.113C143.862 293.113 143.388 293.18 142.908 293.313C142.442 293.433 141.875 293.62 141.208 293.873L140.468 291.813C141.215 291.467 141.908 291.227 142.548 291.093C143.188 290.96 143.808 290.893 144.408 290.893C145.435 290.893 146.262 291.067 146.888 291.413C147.515 291.76 147.968 292.227 148.248 292.813C148.542 293.4 148.688 294.047 148.688 294.753V295.033C148.688 295.66 148.528 296.213 148.208 296.693C147.902 297.16 147.495 297.533 146.988 297.813C147.535 298.107 147.968 298.5 148.288 298.993C148.622 299.473 148.788 300.047 148.788 300.713V300.993Z" fill="black"/>
</svg>
