<?xml version="1.0" encoding="UTF-8"?>
<svg version="1.1" xmlns="http://www.w3.org/2000/svg" width="160" height="200">
<path d="M0 0 C26.73 -0.2784375 26.73 -0.2784375 54 -0.5625 C59.59710938 -0.64443604 65.19421875 -0.72637207 70.9609375 -0.81079102 C77.87109375 -0.85144043 77.87109375 -0.85144043 81.12060547 -0.85899353 C83.35840022 -0.87268596 85.59613451 -0.90407178 87.83349609 -0.95018005 C102.83735968 -1.24354399 113.88472522 -0.3292477 126 9 C126.92335899 9.70616864 126.92335899 9.70616864 127.8653717 10.42660332 C131.76181069 13.44883481 135.40969015 16.61768051 139 20 C139.75925781 20.70511719 140.51851562 21.41023438 141.30078125 22.13671875 C152.60039012 33.6557375 158.12741424 50.12100016 158 66 C156.14425689 85.79301511 147.27255245 102.15858855 132 115 C126.3237342 118.74343236 120.23712727 121.35767022 114 124 C120.66960378 135.27648168 127.49096864 146.43776354 134.55493164 157.47167969 C140.91893337 167.41504904 147.17552251 177.42511233 153.40673828 187.45214844 C154.44193041 189.10756754 155.48668189 190.75706072 156.54248047 192.39941406 C157.00154785 193.11581055 157.46061523 193.83220703 157.93359375 194.5703125 C158.33505615 195.18922363 158.73651855 195.80813477 159.15014648 196.44580078 C160 198 160 198 160 200 C140.2 200 120.4 200 100 200 C97.64875 195.875 95.2975 191.75 92.875 187.5 C87.52129089 178.12098698 82.1368056 168.7614244 76.6875 159.4375 C76.1212793 158.46796387 75.55505859 157.49842773 74.97167969 156.49951172 C72.76055873 152.71551173 70.54789268 148.93245735 68.32763672 145.15380859 C66.75652679 142.47960871 65.19041837 139.80253422 63.625 137.125 C63.15408936 136.32763428 62.68317871 135.53026855 62.19799805 134.70874023 C59 129.22671848 59 129.22671848 59 127 C57.02 127 55.04 127 53 127 C53 151.09 53 175.18 53 200 C35.51 200 18.02 200 0 200 C0 134 0 68 0 0 Z M6 6 C6 68.04 6 130.08 6 194 C19.86 194 33.72 194 48 194 C48 169.91 48 145.82 48 121 C54.93 121.495 54.93 121.495 62 122 C65.37829441 125.96933444 67.19338136 128.74163009 69.375 133.3125 C70.30429012 135.08245316 71.23367747 136.85236092 72.16786194 138.61973572 C73.14106847 140.47632694 74.09137985 142.34340815 75.03955078 144.21289062 C77.92251268 149.84580204 81.11132258 155.30375072 84.28152466 160.77825928 C85.96796392 163.69686798 87.63464306 166.62666866 89.3046875 169.5546875 C92.48731638 175.11568856 95.69361028 180.6620084 98.9375 186.1875 C99.54815308 187.22982788 99.54815308 187.22982788 100.17114258 188.29321289 C101.85017119 191.31992224 101.85017119 191.31992224 104 194 C105.41225046 194.0928726 106.82908934 194.11746772 108.24438477 194.11352539 C109.14524307 194.11344986 110.04610138 194.11337433 110.97425842 194.11329651 C111.95341721 194.10813522 112.93257599 194.10297394 113.94140625 194.09765625 C114.93881332 194.0962413 115.9362204 194.09482635 116.96385193 194.09336853 C120.16343124 194.08775114 123.36294169 194.07519571 126.5625 194.0625 C128.72591045 194.05748724 130.88932199 194.05292395 133.05273438 194.04882812 C138.36851325 194.03777607 143.68425171 194.02102104 149 194 C147.60233767 190.21198331 145.8508857 186.92243267 143.7265625 183.4921875 C143.07292725 182.43306152 142.41929199 181.37393555 141.74584961 180.28271484 C141.0390484 179.14671739 140.33209496 178.01081463 139.625 176.875 C138.89502095 175.69627658 138.16528708 174.51740129 137.43579102 173.33837891 C132.37143008 165.16332673 127.25162497 157.02362986 122.1015625 148.90234375 C118.31591858 142.92824187 114.56340982 136.93345076 110.8125 130.9375 C110.1517749 129.88288574 109.4910498 128.82827148 108.81030273 127.74169922 C108.19872314 126.76346191 107.58714355 125.78522461 106.95703125 124.77734375 C106.41022705 123.90327881 105.86342285 123.02921387 105.30004883 122.12866211 C104 120 104 120 103 118 C103.94875 118.061875 104.8975 118.12375 105.875 118.1875 C116.64167298 118.1010207 125.77970544 112.63252806 133.63671875 105.66015625 C144.94142665 94.14770486 151.48805411 79.21356612 152.1640625 63.0859375 C151.92208061 46.76386849 144.13665296 34.32319656 133 23 C132.32324219 22.31035156 131.64648438 21.62070312 130.94921875 20.91015625 C128.72380805 18.79371105 126.40865262 16.90652636 124 15 C123.03847519 14.2336171 122.07695038 13.46723419 121.08628845 12.67762756 C109.69638165 4.40265241 98.64098097 4.82094355 85.00390625 5.12109375 C82.97394034 5.13435884 80.94394343 5.14352037 78.91394043 5.14855957 C71.46298482 5.19536965 64.01269216 5.32102095 56.5625 5.4375 C39.876875 5.623125 23.19125 5.80875 6 6 Z " fill="#000000" transform="translate(0,0)"/>
<path d="M0 0 C6.208125 -0.0825 12.41625 -0.165 18.8125 -0.25 C20.74843018 -0.28641602 22.68436035 -0.32283203 24.67895508 -0.36035156 C35.13535129 -0.47482315 44.63888034 -0.14899612 53.4375 6.25 C59.34097389 12.58543539 60.67152421 18.08837879 60.390625 26.74609375 C59.20151776 36.65135703 54.1464152 44.51138823 46.5859375 50.80078125 C43.87339676 52.85188964 42.1660334 53.1232925 38.82568359 53.11352539 C37.95290771 53.11340454 37.08013184 53.11328369 36.1809082 53.11315918 C35.26269287 53.10804321 34.34447754 53.10292725 33.3984375 53.09765625 C32.13350464 53.09614563 32.13350464 53.09614563 30.84301758 53.09460449 C27.68699792 53.08936476 24.53099762 53.07540353 21.375 53.0625 C14.32125 53.041875 7.2675 53.02125 0 53 C0 35.51 0 18.02 0 0 Z M5 6 C5 19.53 5 33.06 5 47 C10.81625 47.0825 16.6325 47.165 22.625 47.25 C24.4498291 47.28641602 26.2746582 47.32283203 28.15478516 47.36035156 C29.616199 47.37204414 31.07762596 47.38223462 32.5390625 47.390625 C33.28567139 47.41108887 34.03228027 47.43155273 34.80151367 47.45263672 C39.99190649 47.45607293 42.86715337 46.4021216 47 43 C48.90897104 40.58262802 48.90897104 40.58262802 50.3125 37.9375 C50.80363281 37.08027344 51.29476562 36.22304687 51.80078125 35.33984375 C54.6668472 29.74774764 54.58742995 24.1598557 54 18 C51.4446075 12.69992666 47.79911076 9.15342048 42.33740234 6.90283203 C38.49143912 5.86242442 34.92485865 5.74725609 30.9765625 5.8046875 C30.31422607 5.80670166 29.65188965 5.80871582 28.96948242 5.81079102 C26.52125005 5.82116845 24.07311726 5.84909036 21.625 5.875 C16.13875 5.91625 10.6525 5.9575 5 6 Z " fill="#000000" transform="translate(48,40)"/>
<path d="M0 0 C3.0261912 2.0174608 3.81051292 3.45522464 5 6.875 C5 11.15428291 3.89686146 12.88587393 1 16 C-3.02278753 17.24340706 -5.02687998 17.44425045 -8.875 15.6875 C-11 14 -11 14 -12 12 C-12.56872038 4.9478673 -12.56872038 4.9478673 -10.5 1.5 C-6.97359191 -0.61584485 -4.01178761 -0.80730018 0 0 Z " fill="#000000" transform="translate(29,16)"/>
<path d="M0 0 C1.98 0 3.96 0 6 0 C6 0.99 6 1.98 6 3 C6.66 3 7.32 3 8 3 C8 4.65 8 6.3 8 8 C7.34 8 6.68 8 6 8 C6 8.99 6 9.98 6 11 C4.02 11 2.04 11 0 11 C0 7.37 0 3.74 0 0 Z " fill="#000000" transform="translate(22,101)"/>
<path d="M0 0 C1.65 3.3 3.3 6.6 5 10 C1 13 1 13 -1 13 C-1.83848804 11.54462432 -2.67063934 10.08559627 -3.5 8.625 C-4.19609375 7.40683594 -4.19609375 7.40683594 -4.90625 6.1640625 C-6 4 -6 4 -6 2 C-2.25 0 -2.25 0 0 0 Z " fill="#000000" transform="translate(112,156)"/>
<path d="M0 0 C1.98 0 3.96 0 6 0 C6 3.96 6 7.92 6 12 C4.02 12 2.04 12 0 12 C0 8.04 0 4.08 0 0 Z " fill="#000000" transform="translate(22,38)"/>
<path d="M0 0 C1.65 3.3 3.3 6.6 5 10 C2 12 2 12 -0.046875 11.91015625 C-2.7712513 10.64059689 -3.16359636 9.19230922 -4.25 6.4375 C-4.58515625 5.61121094 -4.9203125 4.78492187 -5.265625 3.93359375 C-5.50796875 3.29550781 -5.7503125 2.65742187 -6 2 C-2.25 0 -2.25 0 0 0 Z " fill="#000000" transform="translate(91,119)"/>
<path d="M0 0 C3 1 3 1 3.94921875 2.7421875 C4.19285156 3.44601563 4.43648437 4.14984375 4.6875 4.875 C5.06455078 5.92300781 5.06455078 5.92300781 5.44921875 6.9921875 C6 9 6 9 6 12 C4.02 12 2.04 12 0 12 C-3.05153707 5.65280289 -3.05153707 5.65280289 -2.8125 2.625 C-2 1 -2 1 0 0 Z " fill="#000000" transform="translate(125,48)"/>
<path d="M0 0 C1.32 0 2.64 0 4 0 C4.69965443 1.26418246 5.38434763 2.53665402 6.0625 3.8125 C6.44535156 4.52019531 6.82820313 5.22789062 7.22265625 5.95703125 C8 8 8 8 7 11 C4.9375 11.6875 4.9375 11.6875 3 12 C2.10577086 10.7636832 1.23512109 9.51028438 0.375 8.25 C-0.11226563 7.55390625 -0.59953125 6.8578125 -1.1015625 6.140625 C-2 4 -2 4 -1.1484375 1.734375 C-0.76945312 1.16203125 -0.39046875 0.5896875 0 0 Z " fill="#000000" transform="translate(98,138)"/>
<path d="M0 0 C1.98 0 3.96 0 6 0 C5.49202991 4.3177458 4.80317221 8.03302114 3 12 C1.02 11.34 -0.96 10.68 -3 10 C-2.01 6.7 -1.02 3.4 0 0 Z " fill="#000000" transform="translate(125,70)"/>
<path d="M0 0 C1.12894876 0.93274109 2.25300876 1.87140122 3.375 2.8125 C4.00148438 3.33457031 4.62796875 3.85664062 5.2734375 4.39453125 C7 6 7 6 9 9 C7.6875 10.5 7.6875 10.5 6 12 C3 12 3 12 1.39453125 10.46875 C0.61142578 9.49421875 0.61142578 9.49421875 -0.1875 8.5 C-0.71730469 7.8503125 -1.24710937 7.200625 -1.79296875 6.53125 C-2.19128906 6.0259375 -2.58960937 5.520625 -3 5 C-1.125 1.125 -1.125 1.125 0 0 Z " fill="#000000" transform="translate(112,30)"/>
<path d="M0 0 C3.3 0 6.6 0 10 0 C10 2.31 10 4.62 10 7 C8.35 7.66 6.7 8.32 5 9 C4.34 8.01 3.68 7.02 3 6 C2.01 5.67 1.02 5.34 0 5 C0 3.35 0 1.7 0 0 Z " fill="#000000" transform="translate(75,104)"/>
<path d="M0 0 C1.65 0.99 3.3 1.98 5 3 C3.44499019 6.81684226 0.96404505 9.19195732 -2 12 C-3.9375 11.1875 -3.9375 11.1875 -6 10 C-6.33 9.01 -6.66 8.02 -7 7 C-5.47005208 5.76302083 -3.94010417 4.52604167 -2.41015625 3.2890625 C-0.86733563 2.0333609 -0.86733563 2.0333609 0 0 Z " fill="#000000" transform="translate(116,87)"/>
<path d="M0 0 C1.98 0 3.96 0 6 0 C6 3.63 6 7.26 6 11 C4.02 11 2.04 11 0 11 C0 7.37 0 3.74 0 0 Z " fill="#000000" transform="translate(22,80)"/>
<path d="M0 0 C1.98 0 3.96 0 6 0 C6 3.63 6 7.26 6 11 C4.02 11 2.04 11 0 11 C0 7.37 0 3.74 0 0 Z " fill="#000000" transform="translate(22,59)"/>
<path d="M0 0 C6.4 -0.36923077 6.4 -0.36923077 9.4375 1.5 C9.953125 1.995 10.46875 2.49 11 3 C10.34 4.65 9.68 6.3 9 8 C4.545 7.01 4.545 7.01 0 6 C0 4.02 0 2.04 0 0 Z " fill="#000000" transform="translate(93,20)"/>
<path d="M0 0 C2 3 2 3 2 6 C-1.08888522 8.05925681 -1.70935927 8.2390374 -5.1875 8.125 C-7.0746875 8.063125 -7.0746875 8.063125 -9 8 C-9 6.35 -9 4.7 -9 3 C-2.25 0 -2.25 0 0 0 Z " fill="#000000" transform="translate(102,101)"/>
<path d="M0 0 C1.98 0 3.96 0 6 0 C6 3.3 6 6.6 6 10 C4.02 10 2.04 10 0 10 C0 6.7 0 3.4 0 0 Z " fill="#000000" transform="translate(22,157)"/>
<path d="M0 0 C1.98 0 3.96 0 6 0 C6 3.3 6 6.6 6 10 C4.02 10 2.04 10 0 10 C0 6.7 0 3.4 0 0 Z " fill="#000000" transform="translate(22,139)"/>
<path d="M0 0 C1.98 0 3.96 0 6 0 C6 3.3 6 6.6 6 10 C4.02 10 2.04 10 0 10 C0 6.7 0 3.4 0 0 Z " fill="#000000" transform="translate(22,120)"/>
<path d="M0 0 C3.3 0 6.6 0 10 0 C10 1.98 10 3.96 10 6 C6.7 6 3.4 6 0 6 C0 4.02 0 2.04 0 0 Z " fill="#000000" transform="translate(75,20)"/>
<path d="M0 0 C3.3 0 6.6 0 10 0 C10 1.98 10 3.96 10 6 C6.7 6 3.4 6 0 6 C0 4.02 0 2.04 0 0 Z " fill="#000000" transform="translate(56,20)"/>
<path d="M0 0 C3.3 0 6.6 0 10 0 C10 1.98 10 3.96 10 6 C6.7 6 3.4 6 0 6 C0 4.02 0 2.04 0 0 Z " fill="#000000" transform="translate(38,20)"/>
<path d="M0 0 C3.3 0 6.6 0 10 0 C10 1.65 10 3.3 10 5 C6.7 5 3.4 5 0 5 C0 3.35 0 1.7 0 0 Z " fill="#000000" transform="translate(57,104)"/>
<path d="M0 0 C3.3 0 6.6 0 10 0 C10 1.65 10 3.3 10 5 C6.7 5 3.4 5 0 5 C0 3.35 0 1.7 0 0 Z " fill="#000000" transform="translate(38,104)"/>
<path d="M0 0 C1.9375 0.8125 1.9375 0.8125 4 2 C4.33 2.99 4.66 3.98 5 5 C2 7 2 7 -0.1875 6.625 C-0.785625 6.41875 -1.38375 6.2125 -2 6 C-2.33 4.68 -2.66 3.36 -3 2 C-2.01 1.34 -1.02 0.68 0 0 Z " fill="#000000" transform="translate(120,175)"/>
<path d="M0 0 C1.98 0 3.96 0 6 0 C6 1.65 6 3.3 6 5 C4.02 5 2.04 5 0 5 C0 3.35 0 1.7 0 0 Z " fill="#000000" transform="translate(22,176)"/>
</svg>
