<?xml version="1.0" encoding="UTF-8"?>
<svg version="1.1" xmlns="http://www.w3.org/2000/svg" width="197" height="203">
<path d="M0 0 C1.7281651 1.49825973 3.43712136 3.01899667 5.125 4.5625 C5.96417969 5.32046875 6.80335938 6.0784375 7.66796875 6.859375 C20.54898444 19.08136198 30.24614543 34.48650902 35.125 51.5625 C16.645 51.5625 -1.835 51.5625 -20.875 51.5625 C-23.185 47.2725 -25.495 42.9825 -27.875 38.5625 C-37.64175975 28.49052901 -48.64762077 26.56024494 -62.3125 26.25 C-73.19872293 26.42828001 -82.75753806 28.49698848 -91.875 34.5625 C-92.761875 35.119375 -93.64875 35.67625 -94.5625 36.25 C-104.17161038 45.85911038 -106.82916967 59.0147523 -107.0625 72.125 C-106.88612861 88.77445955 -103.44464277 106.10950559 -91.84375 118.78125 C-82.17383261 127.90638331 -69.73601061 133.05422363 -56.35546875 132.76953125 C-42.16880757 131.58544772 -29.85100987 127.27909182 -19.65625 116.9453125 C-17.01188624 113.40789607 -15.01986963 109.42326533 -12.875 105.5625 C-30.695 105.5625 -48.515 105.5625 -66.875 105.5625 C-66.875 91.7025 -66.875 77.8425 -66.875 63.5625 C-32.555 63.5625 1.765 63.5625 37.125 63.5625 C37.228125 72.34875 37.33125 81.135 37.4375 90.1875 C37.48302002 92.93143066 37.52854004 95.67536133 37.57543945 98.50244141 C37.78620948 120.21418599 33.5387702 135.11887764 18.36328125 151.2890625 C-2.17696012 172.15192546 -30.77311061 181.03525216 -59.5 181.56933594 C-86.71092454 181.49101502 -112.2740339 168.3983484 -131.3125 149.5625 C-143.98964343 136.60935399 -153.71026461 120.30289218 -157.875 102.5625 C-158.09800781 101.66144531 -158.32101563 100.76039062 -158.55078125 99.83203125 C-164.06842627 73.21971616 -158.55131028 41.58360646 -143.76123047 18.85058594 C-128.7532885 -2.95753649 -106.51010415 -15.28405123 -80.875 -20.4375 C-52.1556078 -24.76115725 -22.8874049 -18.21321658 0 0 Z M-104.875 -6.4375 C-105.81601563 -5.9734375 -106.75703125 -5.509375 -107.7265625 -5.03125 C-127.89452044 5.4138632 -141.71999696 22.41918094 -148.99609375 43.8671875 C-157.15256669 70.69690435 -156.29072691 98.93270165 -143.09375 123.9375 C-129.29861194 147.45707965 -107.78429082 164.99499893 -81.38671875 172.5625 C-53.82150055 179.17560886 -25.83286572 174.14039957 -1.59912109 159.63232422 C2.27785824 157.22664262 5.75367743 154.63359347 9.125 151.5625 C10.01574219 150.77488281 10.90648437 149.98726562 11.82421875 149.17578125 C20.88375434 140.70950311 30.10575238 128.70356804 31.38668823 115.95881653 C31.47028455 112.98898059 31.46279658 110.03313781 31.41796875 107.0625 C31.41494751 106.10730469 31.41192627 105.15210937 31.40881348 104.16796875 C31.39323157 100.63270106 31.35134839 97.09758857 31.3125 93.5625 C31.250625 85.6425 31.18875 77.7225 31.125 69.5625 C0.435 69.5625 -30.255 69.5625 -61.875 69.5625 C-61.875 79.4625 -61.875 89.3625 -61.875 99.5625 C-43.065 99.8925 -24.255 100.2225 -4.875 100.5625 C-10.4208031 115.81345853 -17.60508526 126.35056961 -32.5 133.4375 C-47.58472305 139.69829035 -63.76258067 140.22837823 -79.0625 134.375 C-93.65524475 127.84917021 -102.95047579 116.1459442 -108.875 101.5625 C-111.20260638 94.05959298 -112.47148031 86.40056437 -112.875 78.5625 C-112.92785156 77.66402344 -112.98070312 76.76554687 -113.03515625 75.83984375 C-113.50939944 60.51972677 -110.18882493 44.29625426 -99.6875 32.5625 C-88.44114228 22.66570521 -73.29205134 19.93992427 -58.75390625 20.2734375 C-46.65245279 21.1752578 -33.39310191 22.98539082 -24.875 32.5625 C-22.70274538 35.80529158 -20.78803414 39.1628309 -18.875 42.5625 C-18.215 43.5525 -17.555 44.5425 -16.875 45.5625 C-14.94327828 45.99860159 -14.94327828 45.99860159 -12.70068359 45.90307617 C-11.40957169 45.90273628 -11.40957169 45.90273628 -10.09237671 45.90238953 C-8.6970018 45.87916374 -8.6970018 45.87916374 -7.2734375 45.85546875 C-5.84603745 45.84910149 -5.84603745 45.84910149 -4.38980103 45.84260559 C-1.34291586 45.82577896 1.70331391 45.78811954 4.75 45.75 C6.81249046 45.73495831 8.87499127 45.72126901 10.9375 45.70898438 C16.0002535 45.67586239 21.06251554 45.62405284 26.125 45.5625 C22.65844083 34.81114257 16.35047866 26.12491754 9.125 17.5625 C8.45791016 16.67691406 8.45791016 16.67691406 7.77734375 15.7734375 C-3.61604551 1.07004218 -23.06750589 -9.2624269 -40.875 -13.4375 C-41.78765625 -13.66050781 -42.7003125 -13.88351563 -43.640625 -14.11328125 C-63.78163508 -18.24837689 -86.50259934 -15.70451734 -104.875 -6.4375 Z " fill="#000000" transform="translate(159.875,21.4375)"/>
<path d="M0 0 C3.0261912 2.0174608 3.81051292 3.45522464 5 6.875 C5 11.15428291 3.89686146 12.88587393 1 16 C-3.02278753 17.24340706 -5.02687998 17.44425045 -8.875 15.6875 C-11 14 -11 14 -12 12 C-12.56872038 4.9478673 -12.56872038 4.9478673 -10.5 1.5 C-6.97359191 -0.61584485 -4.01178761 -0.80730018 0 0 Z " fill="#000000" transform="translate(165,45)"/>
<path d="M0 0 C2.475 0.99 2.475 0.99 5 2 C4.33501617 6.38889325 2.81242323 9.9811485 1 14 C-1.475 13.01 -1.475 13.01 -4 12 C-3.45660208 7.43545749 -2.20536179 4.0271824 0 0 Z " fill="#000000" transform="translate(167,121)"/>
<path d="M0 0 C0.33 1.32 0.66 2.64 1 4 C-3.95 6.475 -3.95 6.475 -9 9 C-12 5 -12 5 -12 3 C-10.75823305 2.29773859 -9.50614401 1.61370891 -8.25 0.9375 C-7.20585938 0.36322266 -7.20585938 0.36322266 -6.140625 -0.22265625 C-3.63859372 -1.1312406 -2.4667645 -0.88336837 0 0 Z " fill="#000000" transform="translate(127,171)"/>
<path d="M0 0 C1.32 0.66 2.64 1.32 4 2 C4 6 4 6 1.25 8.8125 C-2 11 -2 11 -4.375 10.8125 C-4.91125 10.544375 -5.4475 10.27625 -6 10 C-6.33 8.68 -6.66 7.36 -7 6 C-4.69 4.02 -2.38 2.04 0 0 Z " fill="#000000" transform="translate(141,157)"/>
<path d="M0 0 C1.65 0.99 3.3 1.98 5 3 C2.43571997 7.17882671 -0.01930733 10.12505529 -4 13 C-4.99 12.01 -5.98 11.02 -7 10 C-5.33248852 6.05860922 -2.77289351 3.2107188 0 0 Z " fill="#000000" transform="translate(157,141)"/>
<path d="M0 0 C3.83953399 1.27984466 5.65316744 3.81501296 8 7 C7.34 8.32 6.68 9.64 6 11 C2 11 2 11 0.48046875 9.57421875 C0.05378906 8.95160156 -0.37289062 8.32898438 -0.8125 7.6875 C-1.47185547 6.76517578 -1.47185547 6.76517578 -2.14453125 5.82421875 C-3 4 -3 4 -2 1 C-1.34 0.67 -0.68 0.34 0 0 Z " fill="#000000" transform="translate(43,149)"/>
<path d="M0 0 C5.445 1.485 5.445 1.485 11 3 C10.67 4.98 10.34 6.96 10 9 C8.54096742 8.69078116 7.08279278 8.37751201 5.625 8.0625 C4.81289062 7.88847656 4.00078125 7.71445313 3.1640625 7.53515625 C1 7 1 7 -1 6 C-0.67 4.02 -0.34 2.04 0 0 Z " fill="#000000" transform="translate(74,174)"/>
<path d="M0 0 C3.11198065 1.49836105 6.0534615 3.19933758 9 5 C8.49396008 7.16874252 8.00016187 8.99967627 7 11 C3.00499382 9.6302836 0.19990508 7.74277578 -3 5 C-1.125 1.125 -1.125 1.125 0 0 Z " fill="#000000" transform="translate(57,164)"/>
<path d="M0 0 C0.33 1.98 0.66 3.96 1 6 C-2.9813783 7.3271261 -6.85045227 7.06915913 -11 7 C-11 5.02 -11 3.04 -11 1 C-3.375 0 -3.375 0 0 0 Z " fill="#000000" transform="translate(106,177)"/>
<path d="M0 0 C1.65 0 3.3 0 5 0 C5.99 3.3 6.98 6.6 8 10 C6.35 10.66 4.7 11.32 3 12 C2.29773859 10.75823305 1.61370891 9.50614401 0.9375 8.25 C0.36322266 7.20585937 0.36322266 7.20585937 -0.22265625 6.140625 C-1.1312406 3.63859372 -0.88336837 2.4667645 0 0 Z " fill="#000000" transform="translate(32,131)"/>
<path d="M0 0 C1.98 0 3.96 0 6 0 C6.33 3.63 6.66 7.26 7 11 C5.35 11.33 3.7 11.66 2 12 C0.40861915 7.82262526 -0.21278058 4.46839215 0 0 Z " fill="#000000" transform="translate(26,111)"/>
<path d="M0 0 C0 1.65 0 3.3 0 5 C-3.63 5.66 -7.26 6.32 -11 7 C-11.33 5.02 -11.66 3.04 -12 1 C-3.96428571 -1.27678571 -3.96428571 -1.27678571 0 0 Z " fill="#000000" transform="translate(95,21)"/>
<path d="M0 0 C1.98 0.66 3.96 1.32 6 2 C5.01 5.3 4.02 8.6 3 12 C0.03 11.505 0.03 11.505 -3 11 C-2.69078116 9.54096742 -2.37751201 8.08279278 -2.0625 6.625 C-1.88847656 5.81289062 -1.71445312 5.00078125 -1.53515625 4.1640625 C-1 2 -1 2 0 0 Z " fill="#000000" transform="translate(30,69)"/>
<path d="M0 0 C1.98 0 3.96 0 6 0 C6 3.63 6 7.26 6 11 C4.02 11 2.04 11 0 11 C0 7.37 0 3.74 0 0 Z " fill="#000000" transform="translate(25,90)"/>
<path d="M0 0 C3.87132028 0.57352893 6.08172796 2.48704352 9 5 C8.6875 6.9375 8.6875 6.9375 8 9 C7.01 9.33 6.02 9.66 5 10 C3.17578125 9.00390625 3.17578125 9.00390625 1.3125 7.5625 C0.68988281 7.08941406 0.06726563 6.61632813 -0.57421875 6.12890625 C-1.04472656 5.75636719 -1.51523438 5.38382813 -2 5 C-1.34 3.35 -0.68 1.7 0 0 Z " fill="#000000" transform="translate(142,35)"/>
<path d="M0 0 C0.99 0.99 1.98 1.98 3 3 C3 3.99 3 4.98 3 6 C-3.625 10 -3.625 10 -7 10 C-7.66 8.35 -8.32 6.7 -9 5 C-6.03 3.35 -3.06 1.7 0 0 Z " fill="#000000" transform="translate(73,25)"/>
<path d="M0 0 C1.875 0.3125 1.875 0.3125 4 1 C4.66 1.99 5.32 2.98 6 4 C4.02 6.31 2.04 8.62 0 11 C-2.475 10.01 -2.475 10.01 -5 9 C-3.7508258 5.54074837 -2.32472205 2.85306797 0 0 Z " fill="#000000" transform="translate(40,51)"/>
<path d="M0 0 C3 1 3 1 5 5 C2.69 6.98 0.38 8.96 -2 11 C-3.32 10.34 -4.64 9.68 -6 9 C-6 6 -6 6 -4.6875 4.39453125 C-4.130625 3.87246094 -3.57375 3.35039063 -3 2.8125 C-2.443125 2.28269531 -1.88625 1.75289062 -1.3125 1.20703125 C-0.6628125 0.60955078 -0.6628125 0.60955078 0 0 Z " fill="#000000" transform="translate(55,36)"/>
<path d="M0 0 C1.48484412 0.39595843 2.9628831 0.81750706 4.4375 1.25 C5.26121094 1.48203125 6.08492187 1.7140625 6.93359375 1.953125 C9 3 9 3 9.84765625 4.984375 C10 7 10 7 9 9 C5.44219804 8.39009109 2.3171411 7.4216319 -1 6 C-0.67 4.02 -0.34 2.04 0 0 Z " fill="#000000" transform="translate(124,25)"/>
<path d="M0 0 C2.64 0 5.28 0 8 0 C8 2.97 8 5.94 8 9 C6.35 9 4.7 9 3 9 C2.67 7.68 2.34 6.36 2 5 C1.34 5 0.68 5 0 5 C0 3.35 0 1.7 0 0 Z " fill="#000000" transform="translate(167,103)"/>
<path d="M0 0 C1.45880109 0.14107747 2.91703551 0.28802415 4.375 0.4375 C5.59316406 0.55931641 5.59316406 0.55931641 6.8359375 0.68359375 C9 1 9 1 11 2 C10.67 3.98 10.34 5.96 10 8 C6.7 7.34 3.4 6.68 0 6 C0 4.02 0 2.04 0 0 Z " fill="#000000" transform="translate(104,20)"/>
<path d="M0 0 C3.63 0 7.26 0 11 0 C11 1.65 11 3.3 11 5 C7.37 5 3.74 5 0 5 C0 3.35 0 1.7 0 0 Z " fill="#000000" transform="translate(147,103)"/>
<path d="M0 0 C3.63 0 7.26 0 11 0 C11 1.65 11 3.3 11 5 C7.37 5 3.74 5 0 5 C0 3.35 0 1.7 0 0 Z " fill="#000000" transform="translate(128,103)"/>
<path d="M0 0 C1.65 0 3.3 0 5 0 C5 1.65 5 3.3 5 5 C3.35 5 1.7 5 0 5 C0 3.35 0 1.7 0 0 Z " fill="#000000" transform="translate(114,103)"/>
</svg>
