<?xml version="1.0" standalone="no"?>
<!DOCTYPE svg PUBLIC "-//W3C//DTD SVG 20010904//EN"
 "http://www.w3.org/TR/2001/REC-SVG-20010904/DTD/svg10.dtd">
<svg version="1.0" xmlns="http://www.w3.org/2000/svg"
 width="200.000000pt" height="200.000000pt" viewBox="0 0 200.000000 200.000000"
 preserveAspectRatio="xMidYMid meet">
<metadata>
Created by potrace 1.16, written by Peter Selinger 2001-2019
</metadata>
<g transform="translate(0.000000,200.000000) scale(0.100000,-0.100000)"
fill="#000000" stroke="none">
<path d="M6 1989 c3 -6 150 -219 326 -472 176 -254 322 -467 325 -473 3 -8
-511 -863 -615 -1021 l-14 -23 309 0 308 0 135 237 c74 130 149 261 166 291
l31 53 178 -278 c97 -153 183 -284 189 -291 9 -9 84 -12 334 -10 l321 3 -339
515 c-187 283 -338 521 -335 528 2 6 140 217 305 467 165 250 303 461 306 470
5 13 -29 15 -304 15 l-310 0 -42 -77 c-24 -43 -94 -171 -157 -286 l-115 -207
-182 282 -182 283 -322 3 c-237 2 -321 -1 -316 -9z m801 -359 c109 -170 201
-310 204 -310 3 0 82 139 175 310 l169 309 242 1 242 0 -294 -445 c-162 -246
-295 -450 -295 -455 0 -5 144 -228 320 -495 176 -266 320 -487 320 -490 0 -3
-113 -4 -252 -3 l-251 3 -203 315 c-111 173 -206 314 -210 314 -5 -1 -90 -144
-189 -318 l-180 -316 -237 0 -237 0 108 178 c59 97 194 318 299 490 106 173
192 318 192 323 0 5 -137 207 -305 449 -168 241 -305 442 -305 445 0 3 110 5
244 5 l244 0 199 -310z"/>
<path d="M422 1817 c-44 -47 -21 -127 41 -142 54 -14 116 47 103 101 -16 64
-100 87 -144 41z"/>
</g>
</svg>
