<svg width="200" height="200" viewBox="0 0 200 200" fill="none" xmlns="http://www.w3.org/2000/svg">
<path d="M63.5 3H62.5M62.5 3H5.5L70 96L8 197.5H62.5L97.5 136L137 197.5H195L128 96L189.5 3H134L101 63L62.5 3Z" stroke="black" stroke-width="5"/>
<path d="M53 23.0957C53 27.5669 49.3754 31.1915 44.9043 31.1915C40.4331 31.1915 36.8085 27.5669 36.8085 23.0957C36.8085 18.6246 40.4331 15 44.9043 15C49.3754 15 53 18.6246 53 23.0957Z" fill="black"/>
<circle cx="149.096" cy="24.0957" r="8.09575" fill="black"/>
<path d="M44.1825 20.5168C43.6395 20.416 43.1176 20.7745 43.0168 21.3175L41.3744 30.1664C41.2736 30.7094 41.6321 31.2313 42.1751 31.3321C42.7181 31.4329 43.24 31.0744 43.3408 30.5314L44.8007 22.6657L52.6664 24.1256C53.2094 24.2264 53.7313 23.8679 53.8321 23.3249C53.9329 22.7819 53.5744 22.26 53.0314 22.1592L44.1825 20.5168ZM151.318 178.983C151.861 179.084 152.382 178.726 152.483 178.182L154.126 169.334C154.226 168.791 153.868 168.269 153.325 168.168C152.782 168.067 152.26 168.426 152.159 168.969L150.699 176.834L142.834 175.374C142.291 175.274 141.769 175.632 141.668 176.175C141.567 176.718 141.926 177.24 142.469 177.341L151.318 178.983ZM152.483 21.3175C152.382 20.7745 151.861 20.416 151.318 20.5168L142.469 22.1592C141.926 22.26 141.567 22.7819 141.668 23.3249C141.769 23.8679 142.291 24.2264 142.834 24.1256L150.699 22.6657L152.159 30.5314C152.26 31.0744 152.782 31.4329 153.325 31.3321C153.868 31.2313 154.226 30.7094 154.126 30.1664L152.483 21.3175ZM43.0168 178.182C43.1176 178.726 43.6395 179.084 44.1825 178.983L53.0314 177.341C53.5744 177.24 53.9329 176.718 53.8321 176.175C53.7313 175.632 53.2094 175.274 52.6664 175.374L44.8007 176.834L43.3408 168.969C43.24 168.426 42.7181 168.067 42.1751 168.168C41.6321 168.269 41.2736 168.791 41.3744 169.334L43.0168 178.182ZM43.1757 22.0662L46.1618 26.4134L47.8104 25.281L44.8243 20.9338L43.1757 22.0662ZM52.1341 35.1079L58.1063 43.8023L59.7548 42.6699L53.7826 33.9755L52.1341 35.1079ZM64.0785 52.4967L70.0507 61.1912L71.6993 60.0588L65.7271 51.3644L64.0785 52.4967ZM76.0229 69.8856L81.9952 78.5801L83.6437 77.4477L77.6715 68.7533L76.0229 69.8856ZM87.9674 87.2745L93.9396 95.969L95.5882 94.8366L89.6159 86.1421L87.9674 87.2745ZM99.9118 104.663L105.884 113.358L107.533 112.225L101.56 103.531L99.9118 104.663ZM111.856 122.052L117.828 130.747L119.477 129.614L113.505 120.92L111.856 122.052ZM123.801 139.441L129.773 148.136L131.421 147.003L125.449 138.309L123.801 139.441ZM135.745 156.83L141.717 165.524L143.366 164.392L137.394 155.698L135.745 156.83ZM147.69 174.219L150.676 178.566L152.324 177.434L149.338 173.087L147.69 174.219ZM44.8243 178.566L47.8104 174.219L46.1618 173.087L43.1757 177.434L44.8243 178.566ZM53.7826 165.525L59.7548 156.83L58.1063 155.698L52.1341 164.392L53.7826 165.525ZM65.7271 148.136L71.6993 139.441L70.0507 138.309L64.0785 147.003L65.7271 148.136ZM77.6715 130.747L83.6437 122.052L81.9952 120.92L76.0229 129.614L77.6715 130.747ZM89.6159 113.358L95.5882 104.663L93.9396 103.531L87.9674 112.225L89.6159 113.358ZM101.56 95.969L107.533 87.2745L105.884 86.1422L99.9118 94.8366L101.56 95.969ZM113.505 78.5801L119.477 69.8857L117.828 68.7533L111.856 77.4477L113.505 78.5801ZM125.449 61.1912L131.421 52.4968L129.773 51.3644L123.801 60.0588L125.449 61.1912ZM137.394 43.8023L143.366 35.1079L141.717 33.9755L135.745 42.67L137.394 43.8023ZM149.338 26.4135L152.324 22.0662L150.676 20.9338L147.69 25.2811L149.338 26.4135Z" fill="black"/>
</svg>
