<?xml version="1.0" encoding="UTF-8"?>
<svg version="1.1" xmlns="http://www.w3.org/2000/svg" width="223" height="197">
<path d="M0 0 C20.79 0 41.58 0 63 0 C75.04311577 30.73403144 87.02809184 61.48940999 98.9442749 92.27282715 C100.27858287 95.71964155 101.61328974 99.16630142 102.94799805 102.61296082 C105.9666122 110.40814539 108.9840411 118.20378767 112 126 C113.58521177 123.62218235 114.56413982 121.81817885 115.57788086 119.21435547 C115.87750732 118.44990112 116.17713379 117.68544678 116.48583984 116.89782715 C116.80891113 116.06271606 117.13198242 115.22760498 117.46484375 114.3671875 C117.98244263 113.04176941 117.98244263 113.04176941 118.51049805 111.6895752 C119.65631247 108.75272676 120.79692122 105.81388534 121.9375 102.875 C122.74068635 100.81320453 123.54415786 98.75152012 124.34790039 96.68994141 C126.90420288 90.12879968 129.45293742 83.56473336 132 77 C132.41942871 75.91912109 132.83885742 74.83824219 133.27099609 73.72460938 C136.91387992 64.33582085 140.55641376 54.94689671 144.18920898 45.55419922 C150.07432458 30.34833298 156.03777636 15.17656925 162 0 C182.13 0 202.26 0 223 0 C223 65.01 223 130.02 223 197 C206.17 197 189.34 197 172 197 C171.6862674 187.12503803 171.37325848 177.25005571 171.0625 167.375 C171.03960152 166.64738464 171.01670303 165.91976929 170.99311066 165.17010498 C170.25766722 141.78182032 169.56819564 118.39303044 169 95 C168.62415771 96.10770752 168.24831543 97.21541504 167.86108398 98.35668945 C160.60841131 119.72267112 153.31243537 141.07253887 145.875 162.375 C145.56416473 163.26571198 145.25332947 164.15642395 144.93307495 165.0741272 C143.2196073 169.98197389 141.50137319 174.88810966 139.77624512 179.79187012 C139.26162222 181.25578168 138.74801987 182.72005244 138.23547363 184.18469238 C137.53737649 186.1788105 136.83566144 188.17161516 136.1328125 190.1640625 C135.7423877 191.27475098 135.35196289 192.38543945 134.94970703 193.52978516 C134 196 134 196 133 197 C131.64905018 197.09268999 130.29332909 197.11747326 128.93920898 197.11352539 C128.07839218 197.11344986 127.21757538 197.11337433 126.33067322 197.11329651 C125.39526199 197.10813522 124.45985077 197.10297394 123.49609375 197.09765625 C122.54307877 197.0962413 121.59006378 197.09482635 120.60816956 197.09336853 C117.55124835 197.08775152 114.49439923 197.07519616 111.4375 197.0625 C109.37044376 197.05748719 107.30338638 197.05292391 105.23632812 197.04882812 C100.15752412 197.03777656 95.0787743 197.02050055 90 197 C82.40666157 177.15417307 75.01850338 157.24024721 67.75762939 137.27062988 C65.97125419 132.35892557 64.18169125 127.44838145 62.39257812 122.53767395 C61.44910232 119.94801719 60.50642055 117.35807382 59.56445312 114.76786804 C59.13970703 113.60076797 58.71496094 112.43366791 58.27734375 111.23120117 C57.72421509 109.71027107 57.72421509 109.71027107 57.15991211 108.15861511 C55.7915356 104.43232009 54.39381982 100.71685286 53 97 C52.67 130 52.34 163 52 197 C34.84 197 17.68 197 0 197 C0 131.99 0 66.98 0 0 Z M6 6 C6 67.38 6 128.76 6 192 C19.2 192 32.4 192 46 192 C46.33 153.72 46.66 115.44 47 76 C49.475 75.505 49.475 75.505 52 75 C52.17310196 75.60060242 52.34620392 76.20120483 52.52455139 76.82000732 C54.37374289 83.12270421 56.47737425 89.29040208 58.74609375 95.453125 C59.10970505 96.4478331 59.47331635 97.4425412 59.84794617 98.46739197 C61.04141378 101.72938794 62.23925987 104.9897544 63.4375 108.25 C64.27404076 110.53161475 65.11046455 112.81327238 65.94677734 115.0949707 C68.39410621 121.76731828 70.84774207 128.43733407 73.30310822 135.1067276 C74.00634727 137.01724388 74.70924935 138.92788381 75.41204834 140.83856201 C78.19922546 148.41560267 80.9904994 155.9911113 83.78738403 163.5645752 C84.67919885 165.98005026 85.57021038 168.39582206 86.4604187 170.81188965 C87.7025846 174.18162504 88.94839152 177.54999051 90.1953125 180.91796875 C90.56734299 181.92899155 90.93937347 182.94001434 91.32267761 183.98167419 C91.83221733 185.35429161 91.83221733 185.35429161 92.35205078 186.75463867 C92.64782013 187.55487961 92.94358948 188.35512054 93.24832153 189.17961121 C93.85785413 190.98575487 93.85785413 190.98575487 95 192 C97.52094076 192.08847743 100.01430893 192.11527301 102.53515625 192.09765625 C103.28840683 192.0962413 104.04165741 192.09482635 104.81773376 192.09336853 C107.2326956 192.08775376 109.64756601 192.07519883 112.0625 192.0625 C113.69596221 192.0574869 115.32942586 192.05292366 116.96289062 192.04882812 C120.97529585 192.03777954 124.98763241 192.02050506 129 192 C138.15563327 165.99368084 147.17405791 139.94113489 156.12630844 113.86423016 C156.79469242 111.91757186 157.46341142 109.97102897 158.13223267 108.02452087 C158.95206635 105.63811471 159.77120005 103.25146789 160.58944702 100.86451721 C162.16572779 96.27670656 163.74416741 91.69122692 165.39718628 87.13043213 C165.62888488 86.48977877 165.86058348 85.8491254 166.09930325 85.1890583 C166.7524561 83.38832267 167.40991492 81.58915058 168.06761169 79.79006958 C169.10565042 77.17414278 169.10565042 77.17414278 169 75 C170.98 75 172.96 75 175 75 C174.98912354 76.19625 174.97824707 77.3925 174.96704102 78.625 C174.86024612 96.64612019 175.33068466 114.65034813 175.79956055 132.66357422 C175.91572094 137.12853403 176.02641444 141.59361035 176.13556576 146.05874634 C176.22169295 149.55590622 176.31080214 153.05298554 176.40075874 156.55004883 C176.44273006 158.19553314 176.48380384 159.84104066 176.5238781 161.48657227 C176.58051587 163.79452271 176.64123724 166.10233471 176.70288086 168.41015625 C176.73619003 169.71090088 176.76949921 171.01164551 176.80381775 172.35180664 C177.08050794 178.90749405 177.56353393 185.45300891 178 192 C190.87 192 203.74 192 217 192 C217 130.62 217 69.24 217 6 C200.17 6 183.34 6 166 6 C163.23625 13.13625 160.4725 20.2725 157.625 27.625 C149.23172704 49.28163589 140.78416311 70.9165895 132.31143188 92.54223633 C128.15648695 103.14946127 124.01525947 113.76203616 119.875 124.375 C119.52249176 125.27855225 119.16998352 126.18210449 118.80679321 127.11303711 C116.87089599 132.0752413 114.93529529 137.03756103 113 142 C110.77292052 139.77292052 110.15634847 138.1955229 109.0390625 135.27050781 C108.65618073 134.27622772 108.27329895 133.28194763 107.8788147 132.25753784 C107.46505585 131.1670816 107.051297 130.07662537 106.625 128.953125 C106.18827972 127.81537628 105.75155945 126.67762756 105.30160522 125.50540161 C104.35717876 123.0434135 103.41465624 120.5807928 102.47528076 118.11688232 C100.99235534 114.227693 99.50222695 110.34129258 98.01025391 106.45556641 C97.760972 105.8063151 97.5116901 105.15706379 97.2548542 104.4881382 C96.74927297 103.171441 96.24366086 101.85475566 95.73801804 100.53808212 C94.97319819 98.54592436 94.20903489 96.55351571 93.44497681 94.56106567 C88.80949303 82.47763213 84.10359843 70.42226435 79.375 58.375 C77.92668844 54.68244644 76.47883818 50.98971221 75.03125 47.296875 C74.68963837 46.42553925 74.34802673 45.55420349 73.99606323 44.65646362 C68.95389296 31.78778573 63.97863241 18.89338137 59 6 C41.51 6 24.02 6 6 6 Z " fill="#000000" transform="translate(0,0)"/>
<path d="M0 0 C3.0261912 2.0174608 3.81051292 3.45522464 5 6.875 C5 11.15428291 3.89686146 12.88587393 1 16 C-3.02278753 17.24340706 -5.02687998 17.44425045 -8.875 15.6875 C-11 14 -11 14 -12 12 C-12.56872038 4.9478673 -12.56872038 4.9478673 -10.5 1.5 C-6.97359191 -0.61584485 -4.01178761 -0.80730018 0 0 Z " fill="#000000" transform="translate(32,11)"/>
<path d="M0 0 C3.10772678 2.26016493 3.73919783 4.92708414 5.0625 8.5 C1.3125 11.5 1.3125 11.5 -0.9375 11.5 C-1.63715443 10.23581754 -2.32184763 8.96334598 -3 7.6875 C-3.38285156 6.97980469 -3.76570313 6.27210938 -4.16015625 5.54296875 C-4.9375 3.5 -4.9375 3.5 -3.9375 0.5 C-1.9375 -0.5 -1.9375 -0.5 0 0 Z " fill="#000000" transform="translate(94.9375,135.5)"/>
<path d="M0 0 C0.67154933 1.28913487 1.33708859 2.58140204 2 3.875 C2.37125 4.59429687 2.7425 5.31359375 3.125 6.0546875 C4 8 4 8 4 10 C2.35 10.66 0.7 11.32 -1 12 C-1.86658615 10.73760288 -2.71792059 9.46472499 -3.5625 8.1875 C-4.27599609 7.12595703 -4.27599609 7.12595703 -5.00390625 6.04296875 C-6 4 -6 4 -5 1 C-3 0 -3 0 0 0 Z " fill="#000000" transform="translate(67,82)"/>
<path d="M0 0 C3.36591427 2.72478774 4.44226276 6.06856792 6 10 C3 12 3 12 0 12 C-4 5.375 -4 5.375 -4 2 C-2.68 1.34 -1.36 0.68 0 0 Z " fill="#000000" transform="translate(46,46)"/>
<path d="M0 0 C2.4375 0.75 2.4375 0.75 4.4375 2.75 C3.1175 5.72 1.7975 8.69 0.4375 11.75 C-3.04581435 8.73112756 -4.35407144 6.18090471 -5.5625 1.75 C-2.5625 -0.25 -2.5625 -0.25 0 0 Z " fill="#000000" transform="translate(114.5625,170.25)"/>
<path d="M0 0 C0.69965443 1.26418246 1.38434763 2.53665402 2.0625 3.8125 C2.44535156 4.52019531 2.82820313 5.22789063 3.22265625 5.95703125 C4 8 4 8 3 11 C0.9375 11.6875 0.9375 11.6875 -1 12 C-1.83878455 10.71186658 -2.67086783 9.41936744 -3.5 8.125 C-3.9640625 7.40570313 -4.428125 6.68640625 -4.90625 5.9453125 C-6 4 -6 4 -6 2 C-2.25 0 -2.25 0 0 0 Z " fill="#000000" transform="translate(86,117)"/>
<path d="M0 0 C4.06153846 6.4 4.06153846 6.4 3.75 9.4375 C3.5025 9.953125 3.255 10.46875 3 11 C1.68 11.33 0.36 11.66 -1 12 C-2.65 8.7 -4.3 5.4 -6 2 C-2 0 -2 0 0 0 Z " fill="#000000" transform="translate(57,64)"/>
<path d="M0 0 C4 6.625 4 6.625 4 10 C2.35 10.66 0.7 11.32 -1 12 C-1.86658615 10.73760288 -2.71792059 9.46472499 -3.5625 8.1875 C-4.27599609 7.12595703 -4.27599609 7.12595703 -5.00390625 6.04296875 C-6 4 -6 4 -5 1 C-3 0 -3 0 0 0 Z " fill="#000000" transform="translate(38,29)"/>
<path d="M0 0 C0.72767003 1.23884319 1.43154815 2.49168341 2.125 3.75 C2.51945312 4.44609375 2.91390625 5.1421875 3.3203125 5.859375 C4 8 4 8 3.1171875 10.265625 C2.56417969 11.12414062 2.56417969 11.12414062 2 12 C0.140625 11.75390625 0.140625 11.75390625 -2 11 C-3.265625 9.15234375 -3.265625 9.15234375 -4.25 6.9375 C-4.58515625 6.20402344 -4.9203125 5.47054687 -5.265625 4.71484375 C-5.50796875 4.14894531 -5.7503125 3.58304688 -6 3 C-2.25 0 -2.25 0 0 0 Z " fill="#000000" transform="translate(105,152)"/>
<path d="M0 0 C1.98 0 3.96 0 6 0 C6 3.63 6 7.26 6 11 C4.02 11 2.04 11 0 11 C0 7.37 0 3.74 0 0 Z " fill="#000000" transform="translate(190,131)"/>
<path d="M0 0 C3.2910841 3.60957611 4.54663921 6.12637153 5 11 C3.35 11.33 1.7 11.66 0 12 C-4 5.375 -4 5.375 -4 2 C-2.68 1.34 -1.36 0.68 0 0 Z " fill="#000000" transform="translate(75,99)"/>
<path d="M0 0 C1.98 0 3.96 0 6 0 C6 3.63 6 7.26 6 11 C4.02 11 2.04 11 0 11 C0 7.37 0 3.74 0 0 Z " fill="#000000" transform="translate(189,91)"/>
<path d="M0 0 C1.98 0 3.96 0 6 0 C6 3.63 6 7.26 6 11 C4.02 11 2.04 11 0 11 C0 7.37 0 3.74 0 0 Z " fill="#000000" transform="translate(188,51)"/>
<path d="M0 0 C2.475 0.99 2.475 0.99 5 2 C4.49287967 5.71888239 3.88391785 8.73454239 2 12 C0.35 11.67 -1.3 11.34 -3 11 C-4 8 -4 8 -3.22265625 5.95703125 C-2.83980469 5.24933594 -2.45695313 4.54164062 -2.0625 3.8125 C-1.68222656 3.09707031 -1.30195313 2.38164063 -0.91015625 1.64453125 C-0.60980469 1.10183594 -0.30945313 0.55914062 0 0 Z " fill="#000000" transform="translate(147,99)"/>
<path d="M0 0 C1.65 0.33 3.3 0.66 5 1 C6 4 6 4 5.22265625 6.04296875 C4.83980469 6.75066406 4.45695313 7.45835938 4.0625 8.1875 C3.68222656 8.90292969 3.30195313 9.61835937 2.91015625 10.35546875 C2.60980469 10.89816406 2.30945313 11.44085938 2 12 C-0.475 11.01 -0.475 11.01 -3 10 C-2.49287967 6.28111761 -1.88391785 3.26545761 0 0 Z " fill="#000000" transform="translate(155,82)"/>
<path d="M0 0 C2.475 0.99 2.475 0.99 5 2 C4.43454163 5.95820859 3.19097652 8.6659053 1 12 C-1.475 11.01 -1.475 11.01 -4 10 C-3.52449439 8.51965236 -3.04448784 7.04074979 -2.5625 5.5625 C-2.29566406 4.73878906 -2.02882813 3.91507813 -1.75390625 3.06640625 C-1 1 -1 1 0 0 Z " fill="#000000" transform="translate(122,152)"/>
<path d="M0 0 C2.4375 0.375 2.4375 0.375 5 1 C5.33 1.66 5.66 2.32 6 3 C5.22265625 4.9453125 5.22265625 4.9453125 4.0625 7.125 C3.68222656 7.84945312 3.30195313 8.57390625 2.91015625 9.3203125 C2.45962891 10.15175781 2.45962891 10.15175781 2 11 C-0.97 10.505 -0.97 10.505 -4 10 C-2.8905928 6.51329166 -1.73662334 3.22515763 0 0 Z " fill="#000000" transform="translate(130,135)"/>
<path d="M0 0 C2.97 0.495 2.97 0.495 6 1 C4.8905928 4.48670834 3.73662334 7.77484237 2 11 C-0.4375 10.625 -0.4375 10.625 -3 10 C-3.33 9.34 -3.66 8.68 -4 8 C-3.22265625 6.0546875 -3.22265625 6.0546875 -2.0625 3.875 C-1.49208984 2.78832031 -1.49208984 2.78832031 -0.91015625 1.6796875 C-0.60980469 1.12539063 -0.30945313 0.57109375 0 0 Z " fill="#000000" transform="translate(172,47)"/>
<path d="M0 0 C2.475 0.99 2.475 0.99 5 2 C4.55090939 3.48199902 4.09043436 4.96055236 3.625 6.4375 C3.36976563 7.26121094 3.11453125 8.08492187 2.8515625 8.93359375 C2 11 2 11 0 12 C-2.125 11.0625 -2.125 11.0625 -4 10 C-3.43454163 6.04179141 -2.19097652 3.3340947 0 0 Z " fill="#000000" transform="translate(181,29)"/>
<path d="M0 0 C2.475 0.99 2.475 0.99 5 2 C3.8905928 5.48670834 2.73662334 8.77484237 1 12 C-1.475 11.01 -1.475 11.01 -4 10 C-3.43454163 6.04179141 -2.19097652 3.3340947 0 0 Z " fill="#000000" transform="translate(139,117)"/>
<path d="M0 0 C2.475 0.99 2.475 0.99 5 2 C4.43454163 5.95820859 3.19097652 8.6659053 1 12 C-1.475 11.01 -1.475 11.01 -4 10 C-2.8905928 6.51329166 -1.73662334 3.22515763 0 0 Z " fill="#000000" transform="translate(164,64)"/>
<path d="M0 0 C1.98 0 3.96 0 6 0 C6.19406478 1.64507218 6.38007935 3.29109594 6.5625 4.9375 C6.66691406 5.85402344 6.77132812 6.77054687 6.87890625 7.71484375 C6.91886719 8.46894531 6.95882812 9.22304687 7 10 C6.67 10.33 6.34 10.66 6 11 C4.35 11 2.7 11 1 11 C0.67 7.37 0.34 3.74 0 0 Z " fill="#000000" transform="translate(189,111)"/>
<path d="M0 0 C1.65 0 3.3 0 5 0 C5.33 3.63 5.66 7.26 6 11 C4.02 11 2.04 11 0 11 C-0.19406478 9.35492782 -0.38007935 7.70890406 -0.5625 6.0625 C-0.66691406 5.14597656 -0.77132812 4.22945313 -0.87890625 3.28515625 C-0.91886719 2.53105469 -0.95882812 1.77695313 -1 1 C-0.67 0.67 -0.34 0.34 0 0 Z " fill="#000000" transform="translate(189,71)"/>
<path d="M0 0 C1.98 0 3.96 0 6 0 C6.33 3.3 6.66 6.6 7 10 C5.02 10.33 3.04 10.66 1 11 C0.67 7.37 0.34 3.74 0 0 Z " fill="#000000" transform="translate(190,151)"/>
<path d="M0 0 C0.33 3.63 0.66 7.26 1 11 C-0.98 11 -2.96 11 -5 11 C-5.33 7.7 -5.66 4.4 -6 1 C-4 0 -4 0 0 0 Z " fill="#000000" transform="translate(193,31)"/>
<path d="M0 0 C1.65 0 3.3 0 5 0 C5 3.63 5 7.26 5 11 C3.35 11 1.7 11 0 11 C0 7.37 0 3.74 0 0 Z " fill="#000000" transform="translate(25,151)"/>
<path d="M0 0 C1.65 0 3.3 0 5 0 C5 3.63 5 7.26 5 11 C3.35 11 1.7 11 0 11 C0 7.37 0 3.74 0 0 Z " fill="#000000" transform="translate(25,131)"/>
<path d="M0 0 C1.65 0 3.3 0 5 0 C5 3.63 5 7.26 5 11 C3.35 11 1.7 11 0 11 C0 7.37 0 3.74 0 0 Z " fill="#000000" transform="translate(25,111)"/>
<path d="M0 0 C1.65 0 3.3 0 5 0 C5 3.63 5 7.26 5 11 C3.35 11 1.7 11 0 11 C0 7.37 0 3.74 0 0 Z " fill="#000000" transform="translate(25,91)"/>
<path d="M0 0 C1.65 0 3.3 0 5 0 C5 3.63 5 7.26 5 11 C3.35 11 1.7 11 0 11 C0 7.37 0 3.74 0 0 Z " fill="#000000" transform="translate(25,71)"/>
<path d="M0 0 C1.65 0 3.3 0 5 0 C5 3.63 5 7.26 5 11 C3.35 11 1.7 11 0 11 C0 7.37 0 3.74 0 0 Z " fill="#000000" transform="translate(25,51)"/>
<path d="M0 0 C1.65 0 3.3 0 5 0 C5 3.63 5 7.26 5 11 C3.35 11 1.7 11 0 11 C0 7.37 0 3.74 0 0 Z " fill="#000000" transform="translate(25,31)"/>
<path d="M0 0 C2.97 0.495 2.97 0.495 6 1 C6 2.98 6 4.96 6 7 C4.25 7.6875 4.25 7.6875 2 8 C-0.25 6.5625 -0.25 6.5625 -2 5 C-1.34 3.35 -0.68 1.7 0 0 Z " fill="#000000" transform="translate(187,15)"/>
<path d="M0 0 C1.98 0 3.96 0 6 0 C6 1.65 6 3.3 6 5 C4.02 5 2.04 5 0 5 C0 3.35 0 1.7 0 0 Z " fill="#000000" transform="translate(191,171)"/>
<path d="M0 0 C1.65 0 3.3 0 5 0 C5 1.65 5 3.3 5 5 C3.35 5 1.7 5 0 5 C0 3.35 0 1.7 0 0 Z " fill="#000000" transform="translate(25,171)"/>
</svg>
