<?xml version="1.0" encoding="UTF-8"?>
<svg version="1.1" xmlns="http://www.w3.org/2000/svg" width="202" height="197">
<path d="M0 0 C18.81 0 37.62 0 57 0 C62.61126333 16.76611332 68.21880468 33.53345568 73.81951141 50.30309772 C76.42003753 58.08919621 79.02225026 65.87472342 81.62841797 73.65893555 C83.89950532 80.44232962 86.16744446 87.22676653 88.43158293 94.0124833 C89.63093206 97.60661406 90.83186899 101.20019676 92.03657532 104.79253578 C93.16984884 108.17203246 94.2989156 111.55290481 95.42473793 114.93489075 C96.03718719 116.77101641 96.65411787 118.60564535 97.27116394 120.44023132 C97.63297256 121.52978119 97.99478119 122.61933105 98.36755371 123.74189758 C98.84319889 125.16468505 98.84319889 125.16468505 99.32845306 126.61621571 C100 129 100 129 100 132 C100.66 132 101.32 132 102 132 C102.24137695 130.78618652 102.48275391 129.57237305 102.73144531 128.32177734 C104.1370094 122.01760304 106.22774202 115.96355808 108.296875 109.8515625 C108.72730543 108.56875202 109.15728198 107.28578917 109.58683777 106.00268555 C110.49788638 103.28377344 111.41152976 100.56575419 112.32736206 97.84844971 C114.48381659 91.44955999 116.62720955 85.04629264 118.77078056 78.64307785 C119.24964703 77.21276827 119.72867801 75.78251375 120.20787239 74.352314 C125.08507912 59.7944821 129.85378753 45.20253282 134.55957031 30.58837891 C134.81918045 29.78489014 135.07879059 28.98140137 135.3462677 28.15356445 C135.80691249 26.72747602 136.26582343 25.30082473 136.7219696 23.87329102 C139.31402548 15.85226123 142.19137577 7.95776865 145 0 C163.81 0 182.62 0 202 0 C188.28719438 41.50409167 173.9942568 82.81267764 159.56054688 124.07104492 C156.07121944 134.0474766 152.60125095 144.03039681 149.1484375 154.01953125 C148.52925697 155.81056023 148.52925697 155.81056023 147.89756775 157.63777161 C145.86719791 163.51189276 143.83849392 169.38658368 141.81176758 175.26196289 C141.07636719 177.39079901 140.3409358 179.51962441 139.60546875 181.6484375 C139.10187332 183.11087639 139.10187332 183.11087639 138.58810425 184.6028595 C138.11946457 185.9583918 138.11946457 185.9583918 137.64135742 187.34130859 C137.37127365 188.12428314 137.10118988 188.90725769 136.82292175 189.71395874 C135.94074476 192.1646085 134.96732268 194.58169329 134 197 C111.89 197 89.78 197 67 197 C57.81885785 170.89112702 48.83825726 144.7259089 40 118.5 C33.35481576 98.7828191 26.69944051 79.07194629 19.8125 59.4375 C19.52083954 58.60582306 19.22917908 57.77414612 18.92868042 56.91726685 C17.79616634 53.68863657 16.66345451 50.46007579 15.5302887 47.23167419 C12.46938358 38.5025431 9.4492079 29.75946613 6.44613647 21.01028442 C5.86331162 19.31333919 5.27937208 17.61677634 4.69424438 15.92062378 C3.89860063 13.61347433 3.10690583 11.30500993 2.31640625 8.99609375 C1.96144073 7.96995972 1.96144073 7.96995972 1.5993042 6.9230957 C0 2.22901434 0 2.22901434 0 0 Z M8 5 C15.79432945 28.4179144 23.61977404 51.82454123 31.51726532 75.20784378 C32.32944859 77.61268406 33.14131563 80.01763098 33.95318604 82.4225769 C40.90340185 103.00584137 47.92523882 123.56046176 55.13037109 144.05615234 C60.60619726 159.64430082 65.81776423 175.31131362 71 191 C90.47 191 109.94 191 130 191 C132.165625 184.626875 134.33125 178.25375 136.5625 171.6875 C143.3065426 151.88043242 150.16900666 132.11673971 157.07759094 112.36659241 C161.57104849 99.51490875 166.02659155 86.65004479 170.4855957 73.78637695 C171.1948206 71.74039588 171.90404913 69.69441607 172.61328125 67.6484375 C172.96667068 66.62890488 173.32006012 65.60937225 173.68415833 64.5589447 C175.99660176 57.88913971 178.31337647 51.22085252 180.63287354 44.55349731 C182.22623059 39.97328186 183.81849403 35.39268653 185.41070557 30.81207275 C186.17574749 28.61213634 186.94132783 26.41238709 187.7074585 24.21282959 C188.76598842 21.17361448 189.82265477 18.13375757 190.87890625 15.09375 C191.19675583 14.18275543 191.51460541 13.27176086 191.84208679 12.3331604 C192.27132195 11.09606827 192.27132195 11.09606827 192.70922852 9.83398438 C192.95995621 9.11351929 193.2106839 8.3930542 193.4690094 7.65075684 C194.05103552 6.13034878 194.05103552 6.13034878 194 5 C179.48 5 164.96 5 150 5 C146.65402178 13.34951095 146.65402178 13.34951095 143.65673828 21.78686523 C143.2412674 23.03024155 142.82579651 24.27361786 142.3977356 25.55467224 C141.95517368 26.88928371 141.5127019 28.22392508 141.0703125 29.55859375 C140.5985258 30.97481273 140.12650475 32.39095367 139.65426636 33.80702209 C138.39951254 37.57242739 137.14870182 41.33913093 135.89886475 45.10617065 C135.12231028 47.445603 134.34456888 49.78463728 133.56640625 52.12353516 C126.78234022 72.51429052 120.03704368 92.91726843 113.42626953 113.36499023 C113.17740997 114.13439438 112.92855042 114.90379852 112.67214966 115.69651794 C112.19098354 117.18473899 111.7103913 118.67314573 111.23043823 120.16175842 C109.8747465 124.35258888 108.48737102 128.53129314 107.07421875 132.703125 C106.7501001 133.66287231 106.42598145 134.62261963 106.09204102 135.6114502 C105.45978068 137.47957917 104.82370642 139.34642281 104.18334961 141.21179199 C103.89854736 142.05391235 103.61374512 142.89603271 103.3203125 143.76367188 C103.06523926 144.50999878 102.81016602 145.25632568 102.54736328 146.02526855 C101.86644385 148.1403014 101.86644385 148.1403014 102 151 C101.34 151 100.68 151 100 151 C99.75511337 149.7776918 99.51022675 148.55538361 99.25791931 147.29603577 C97.88624298 141.14502636 95.87863343 135.23209509 93.87329102 129.26342773 C93.45841431 128.01675323 93.0435376 126.77007874 92.61608887 125.48562622 C91.48582376 122.08973059 90.35000741 118.69571607 89.21305585 115.30205417 C88.01957593 111.7367416 86.83101316 108.16979024 85.64183044 104.6030426 C83.64501159 98.61626935 81.64482527 92.63063011 79.64233398 86.64575195 C77.07802081 78.98169029 74.5192692 71.31578403 71.96228123 63.64927578 C69.75589984 57.03412294 67.54696699 50.41982257 65.33762622 43.80565763 C64.63133385 41.69086253 63.92538585 39.57595272 63.21948433 37.46102715 C61.90023341 33.5091151 60.57832843 29.55809574 59.25610352 25.60717773 C58.86794968 24.44383408 58.47979584 23.28049042 58.07987976 22.08189392 C57.71683746 20.99847717 57.35379517 19.91506042 56.97975159 18.79881287 C56.66801782 17.86658622 56.35628405 16.93435957 56.0351038 15.97388363 C54.75394116 12.29306571 53.36847172 8.64925793 52 5 C37.48 5 22.96 5 8 5 Z " fill="#000000" transform="translate(0,0)"/>
<path d="M0 0 C3.0261912 2.0174608 3.81051292 3.45522464 5 6.875 C5 11.15428291 3.89686146 12.88587393 1 16 C-3.02278753 17.24340706 -5.02687998 17.44425045 -8.875 15.6875 C-11 14 -11 14 -12 12 C-12.56872038 4.9478673 -12.56872038 4.9478673 -10.5 1.5 C-6.97359191 -0.61584485 -4.01178761 -0.80730018 0 0 Z " fill="#000000" transform="translate(38,7)"/>
<path d="M0 0 C0.928125 0.20625 1.85625 0.4125 2.8125 0.625 C2.26144091 4.5742568 1.42314629 7.97420174 -0.1875 11.625 C-0.8475 11.625 -1.5075 11.625 -2.1875 11.625 C-3.5075 8.325 -4.8275 5.025 -6.1875 1.625 C-3.1875 -0.375 -3.1875 -0.375 0 0 Z " fill="#000000" transform="translate(102.1875,171.375)"/>
<path d="M0 0 C3 6.625 3 6.625 3 10 C1.02 10.33 -0.96 10.66 -3 11 C-6 4.375 -6 4.375 -6 1 C-3 0 -3 0 0 0 Z " fill="#000000" transform="translate(95,153)"/>
<path d="M0 0 C1.984375 0.84765625 1.984375 0.84765625 3.03125 2.9140625 C3.26328125 3.73777344 3.4953125 4.56148437 3.734375 5.41015625 C3.97671875 6.23644531 4.2190625 7.06273437 4.46875 7.9140625 C4.63890625 8.55214844 4.8090625 9.19023437 4.984375 9.84765625 C3.004375 10.17765625 1.024375 10.50765625 -1.015625 10.84765625 C-3.04998031 7.11800486 -4.015625 5.17860583 -4.015625 0.84765625 C-2.015625 -0.15234375 -2.015625 -0.15234375 0 0 Z " fill="#000000" transform="translate(86.015625,135.15234375)"/>
<path d="M0 0 C3 6.625 3 6.625 3 10 C1.02 10.33 -0.96 10.66 -3 11 C-3.99 7.7 -4.98 4.4 -6 1 C-3 0 -3 0 0 0 Z " fill="#000000" transform="translate(80,117)"/>
<path d="M0 0 C0.99 3.3 1.98 6.6 3 10 C1.02 10.33 -0.96 10.66 -3 11 C-6 4.375 -6 4.375 -6 1 C-4 0 -4 0 0 0 Z " fill="#000000" transform="translate(58,63)"/>
<path d="M0 0 C1.78284814 3.29826907 2 5.1774751 2 9 C0.35 9.33 -1.3 9.66 -3 10 C-3.67154933 8.71086513 -4.33708859 7.41859796 -5 6.125 C-5.37125 5.40570313 -5.7425 4.68640625 -6.125 3.9453125 C-7 2 -7 2 -7 0 C-3.87822605 -1.04059132 -2.92916561 -1.32284898 0 0 Z " fill="#000000" transform="translate(51,46)"/>
<path d="M0 0 C3 6.625 3 6.625 3 10 C1.02 10.33 -0.96 10.66 -3 11 C-6 4.375 -6 4.375 -6 1 C-4 0 -4 0 0 0 Z " fill="#000000" transform="translate(43,27)"/>
<path d="M0 0 C2.97 0.495 2.97 0.495 6 1 C5.01 4.3 4.02 7.6 3 11 C0.03 10.505 0.03 10.505 -3 10 C-2.49287967 6.28111761 -1.88391785 3.26545761 0 0 Z " fill="#000000" transform="translate(135,81)"/>
<path d="M0 0 C1.984375 0.84765625 1.984375 0.84765625 3.03125 2.9140625 C3.26328125 3.73777344 3.4953125 4.56148438 3.734375 5.41015625 C3.97671875 6.23644531 4.2190625 7.06273438 4.46875 7.9140625 C4.63890625 8.55214844 4.8090625 9.19023438 4.984375 9.84765625 C3.004375 10.17765625 1.024375 10.50765625 -1.015625 10.84765625 C-4.015625 4.22265625 -4.015625 4.22265625 -4.015625 0.84765625 C-2.015625 -0.15234375 -2.015625 -0.15234375 0 0 Z " fill="#000000" transform="translate(71.015625,99.15234375)"/>
<path d="M0 0 C3 6.625 3 6.625 3 10 C1.35 10.33 -0.3 10.66 -2 11 C-2.67154933 9.71086513 -3.33708859 8.41859796 -4 7.125 C-4.37125 6.40570313 -4.7425 5.68640625 -5.125 4.9453125 C-6 3 -6 3 -6 1 C-3 0 -3 0 0 0 Z " fill="#000000" transform="translate(65,81)"/>
<path d="M0 0 C2.97 0.495 2.97 0.495 6 1 C5.01 4.3 4.02 7.6 3 11 C0.03 10.505 0.03 10.505 -3 10 C-2.39009109 6.44219804 -1.4216319 3.3171411 0 0 Z " fill="#000000" transform="translate(142,63)"/>
<path d="M0 0 C2.97 0.495 2.97 0.495 6 1 C5.01 4.3 4.02 7.6 3 11 C0.03 10.505 0.03 10.505 -3 10 C-2.39009109 6.44219804 -1.4216319 3.3171411 0 0 Z " fill="#000000" transform="translate(149,45)"/>
<path d="M0 0 C2.97 0.495 2.97 0.495 6 1 C5.01 4.3 4.02 7.6 3 11 C0.03 10.505 0.03 10.505 -3 10 C-2.39009109 6.44219804 -1.4216319 3.3171411 0 0 Z " fill="#000000" transform="translate(156,27)"/>
<path d="M0 0 C1.65 0.33 3.3 0.66 5 1 C4.49287967 4.71888239 3.88391785 7.73454239 2 11 C0.35 10.67 -1.3 10.34 -3 10 C-2.49287967 6.28111761 -1.88391785 3.26545761 0 0 Z " fill="#000000" transform="translate(107,153)"/>
<path d="M0 0 C1.67542976 0.28604898 3.34385343 0.61781233 5 1 C4.25 7.625 4.25 7.625 2 11 C0.35 10.67 -1.3 10.34 -3 10 C-2.69201674 8.51988629 -2.378482 7.04092675 -2.0625 5.5625 C-1.88847656 4.73878906 -1.71445313 3.91507813 -1.53515625 3.06640625 C-1 1 -1 1 0 0 Z " fill="#000000" transform="translate(114,135)"/>
<path d="M0 0 C2.4375 0.375 2.4375 0.375 5 1 C5.33 1.66 5.66 2.32 6 3 C5.22265625 4.9453125 5.22265625 4.9453125 4.0625 7.125 C3.68222656 7.84945312 3.30195312 8.57390625 2.91015625 9.3203125 C2.45962891 10.15175781 2.45962891 10.15175781 2 11 C0.35 10.67 -1.3 10.34 -3 10 C-2.49287967 6.28111761 -1.88391785 3.26545761 0 0 Z " fill="#000000" transform="translate(121,117)"/>
<path d="M0 0 C2.4375 0.375 2.4375 0.375 5 1 C5.33 1.66 5.66 2.32 6 3 C5.22265625 4.9453125 5.22265625 4.9453125 4.0625 7.125 C3.68222656 7.84945312 3.30195313 8.57390625 2.91015625 9.3203125 C2.45962891 10.15175781 2.45962891 10.15175781 2 11 C0.35 10.67 -1.3 10.34 -3 10 C-2.49287967 6.28111761 -1.88391785 3.26545761 0 0 Z " fill="#000000" transform="translate(128,99)"/>
<path d="M0 0 C2.475 0.99 2.475 0.99 5 2 C4.67 3.65 4.34 5.3 4 7 C1.03 6.505 1.03 6.505 -2 6 C-1.34 4.02 -0.68 2.04 0 0 Z " fill="#000000" transform="translate(162,13)"/>
</svg>
