<?xml version="1.0" standalone="no"?>
<!DOCTYPE svg PUBLIC "-//W3C//DTD SVG 20010904//EN"
 "http://www.w3.org/TR/2001/REC-SVG-20010904/DTD/svg10.dtd">
<svg version="1.0" xmlns="http://www.w3.org/2000/svg"
 width="208.000000pt" height="240.000000pt" viewBox="0 0 208.000000 240.000000"
 preserveAspectRatio="xMidYMid meet">

<g transform="translate(0.000000,240.000000) scale(0.100000,-0.100000)"
fill="#000000" stroke="none">
<path d="M895 2390 c-217 -23 -478 -153 -614 -306 -277 -312 -356 -838 -180
-1212 98 -211 288 -397 483 -473 130 -50 221 -64 437 -64 l196 0 114 -165 114
-165 313 -3 c171 -1 312 0 312 4 0 3 -101 125 -225 271 l-225 266 54 57 c180
195 308 502 322 775 8 131 -10 251 -56 378 -97 267 -389 524 -690 606 -68 19
-233 43 -270 40 -8 -1 -47 -5 -85 -9z m283 -66 c155 -32 287 -96 432 -211 364
-288 440 -756 198 -1226 -60 -118 -145 -235 -212 -294 l-48 -42 204 -241 c111
-132 205 -245 206 -250 2 -6 -84 -10 -240 -10 l-244 0 -115 166 -114 166 -220
3 c-233 2 -303 13 -435 65 -180 71 -370 267 -455 468 -61 145 -70 198 -70 402
0 161 3 196 24 275 63 245 178 433 334 549 126 93 250 152 382 181 85 19 280
18 373 -1z"/>
<path d="M965 2194 c-32 -35 -32 -78 0 -109 34 -35 86 -34 114 1 64 82 -44
183 -114 108z"/>
<path d="M810 2128 c-39 -11 -63 -28 -39 -28 28 0 89 21 89 30 0 12 -3 11 -50
-2z"/>
<path d="M1160 2112 c0 -11 88 -38 97 -29 3 4 -6 11 -21 17 -47 18 -76 22 -76
12z"/>
<path d="M627 2044 c-21 -14 -35 -29 -32 -34 6 -9 85 39 85 52 0 14 -14 9 -53
-18z"/>
<path d="M1355 2040 c-3 -5 5 -14 17 -21 13 -7 33 -18 45 -26 11 -8 24 -10 26
-6 3 5 -14 21 -38 36 -25 14 -47 22 -50 17z"/>
<path d="M481 1910 c-17 -21 -27 -41 -22 -44 4 -3 22 12 40 34 17 21 27 41 22
44 -4 3 -22 -12 -40 -34z"/>
<path d="M890 1919 c-84 -17 -164 -65 -233 -139 -221 -239 -235 -639 -30 -860
142 -153 420 -213 591 -126 189 96 326 317 348 561 7 85 -14 195 -53 275 -36
75 -131 167 -220 213 -120 63 -302 97 -403 76z m248 -70 c263 -67 408 -272
373 -527 -31 -220 -159 -410 -331 -491 -47 -22 -68 -26 -145 -25 -194 1 -357
88 -432 232 -54 103 -67 156 -67 277 1 178 52 317 159 434 115 124 239 152
443 100z"/>
<path d="M1520 1912 c0 -14 69 -76 77 -69 3 4 -9 23 -27 42 -33 34 -50 43 -50
27z"/>
<path d="M377 1745 c-19 -41 -20 -45 -9 -45 7 0 42 63 42 75 0 17 -19 -1 -33
-30z"/>
<path d="M1650 1753 c0 -18 34 -93 41 -93 14 0 11 18 -11 60 -19 38 -30 49
-30 33z"/>
<path d="M311 1574 c-13 -46 -14 -64 -3 -64 12 0 32 84 22 94 -5 5 -13 -9 -19
-30z"/>
<path d="M1726 1513 c7 -52 11 -60 20 -50 10 9 -6 97 -17 97 -6 0 -8 -18 -3
-47z"/>
<path d="M280 1360 c0 -27 5 -50 10 -50 6 0 10 23 10 50 0 28 -4 50 -10 50 -5
0 -10 -22 -10 -50z"/>
<path d="M1736 1329 c-9 -44 -8 -79 3 -79 12 0 23 92 12 103 -4 4 -11 -6 -15
-24z"/>
<path d="M290 1208 c0 -39 14 -88 25 -88 9 0 9 12 1 50 -5 28 -14 50 -18 50
-4 0 -8 -6 -8 -12z"/>
<path d="M1690 1105 c-7 -25 -10 -48 -7 -52 8 -7 37 59 37 82 0 31 -18 13 -30
-30z"/>
<path d="M346 1021 c-9 -14 32 -93 44 -86 6 4 1 24 -11 48 -26 51 -26 51 -33
38z"/>
<path d="M1602 924 c-32 -50 -22 -67 11 -19 15 22 27 43 27 47 0 18 -16 6 -38
-28z"/>
<path d="M440 852 c0 -12 66 -73 72 -67 3 3 -8 21 -25 40 -30 34 -47 44 -47
27z"/>
<path d="M1463 767 c-21 -20 -35 -38 -31 -42 3 -4 24 9 45 28 21 20 35 38 31
42 -3 4 -24 -9 -45 -28z"/>
<path d="M1245 714 c-32 -35 -32 -78 0 -109 34 -35 86 -34 114 1 64 82 -44
183 -114 108z"/>
<path d="M590 721 c0 -15 68 -53 81 -46 6 5 -6 17 -31 31 -47 27 -50 28 -50
15z"/>
<path d="M765 639 c-6 -8 49 -29 76 -29 11 0 19 3 19 8 0 10 -90 30 -95 21z"/>
<path d="M960 600 c0 -6 27 -10 60 -10 33 0 60 4 60 10 0 6 -27 10 -60 10 -33
0 -60 -4 -60 -10z"/>
<path d="M1380 520 c11 -16 25 -32 30 -35 17 -10 10 19 -9 43 -28 33 -46 27
-21 -8z"/>
<path d="M1470 410 c0 -20 45 -76 53 -64 3 5 -8 25 -24 44 -17 21 -29 29 -29
20z"/>
<path d="M1570 273 c0 -14 19 -38 25 -32 8 8 -5 39 -16 39 -5 0 -9 -3 -9 -7z"/>
</g>
</svg>
