<svg width="144" height="200" viewBox="0 0 144 200" fill="none" xmlns="http://www.w3.org/2000/svg">
<path d="M2.5 41.5V3H138.5V41.5L54 159H141C140.833 171.667 140.6 197 141 197H2.5V159L85.5 41.5H2.5Z" stroke="black" stroke-width="5"/>
<circle cx="17.0957" cy="18.0957" r="8.09575" fill="black"/>
<path d="M120.5 21L121.341 21.5413L122.333 20H120.5V21ZM22 174L21.1592 173.459L20.1669 175H22V174ZM121.207 174.707C121.598 174.317 121.598 173.683 121.207 173.293L114.843 166.929C114.453 166.538 113.819 166.538 113.429 166.929C113.038 167.319 113.038 167.953 113.429 168.343L119.086 174L113.429 179.657C113.038 180.047 113.038 180.681 113.429 181.071C113.819 181.462 114.453 181.462 114.843 181.071L121.207 174.707ZM16.5 22H21.7V20H16.5V22ZM32.1 22H42.5V20H32.1V22ZM52.9 22H63.3V20H52.9V22ZM73.7 22H84.1V20H73.7V22ZM94.5 22H104.9V20H94.5V22ZM115.3 22H120.5V20H115.3V22ZM119.659 20.4587L116.923 24.7087L118.605 25.7913L121.341 21.5413L119.659 20.4587ZM111.451 33.2087L105.979 41.7087L107.66 42.7913L113.132 34.2913L111.451 33.2087ZM100.506 50.2087L95.0342 58.7087L96.7158 59.7913L102.188 51.2913L100.506 50.2087ZM89.562 67.2087L84.0897 75.7087L85.7714 76.7913L91.2436 68.2913L89.562 67.2087ZM78.6175 84.2087L73.1453 92.7087L74.8269 93.7913L80.2992 85.2913L78.6175 84.2087ZM67.6731 101.209L62.2008 109.709L63.8825 110.791L69.3547 102.291L67.6731 101.209ZM56.7286 118.209L51.2564 126.709L52.9381 127.791L58.4103 119.291L56.7286 118.209ZM45.7842 135.209L40.312 143.709L41.9936 144.791L47.4658 136.291L45.7842 135.209ZM34.8397 152.209L29.3675 160.709L31.0492 161.791L36.5214 153.291L34.8397 152.209ZM23.8953 169.209L21.1592 173.459L22.8408 174.541L25.5769 170.291L23.8953 169.209ZM22 175H26.925V173H22V175ZM36.775 175H46.625V173H36.775V175ZM56.475 175H66.325V173H56.475V175ZM76.175 175H86.025V173H76.175V175ZM95.875 175H105.725V173H95.875V175ZM115.575 175H120.5V173H115.575V175Z" fill="black"/>
</svg>
