<?xml version="1.0" standalone="no"?>
<!DOCTYPE svg PUBLIC "-//W3C//DTD SVG 20010904//EN"
 "http://www.w3.org/TR/2001/REC-SVG-20010904/DTD/svg10.dtd">
<svg version="1.0" xmlns="http://www.w3.org/2000/svg"
 width="144.000000pt" height="200.000000pt" viewBox="0 0 144.000000 200.000000"
 preserveAspectRatio="xMidYMid meet">
<metadata>
Created by potrace 1.16, written by Peter Selinger 2001-2019
</metadata>
<g transform="translate(0.000000,200.000000) scale(0.100000,-0.100000)"
fill="#000000" stroke="none">
<path d="M0 1780 l0 -220 399 -2 398 -3 -398 -564 -399 -564 0 -214 0 -213
705 0 705 0 0 25 c0 18 4 23 15 19 13 -5 15 20 15 195 l0 201 -419 2 -419 3
404 560 403 560 1 218 0 217 -705 0 -705 0 0 -220z m1360 -9 l0 -169 -435
-605 c-239 -333 -435 -608 -435 -611 0 -3 200 -6 445 -6 l445 0 0 -160 0 -160
-665 0 -665 0 0 168 0 167 428 605 428 605 -428 3 -428 2 0 165 0 165 655 0
655 0 0 -169z"/>
<path d="M112 1877 c-44 -47 -21 -127 41 -142 54 -14 116 47 103 101 -16 64
-100 87 -144 41z"/>
</g>
</svg>
