<?xml version="1.0" encoding="UTF-8"?>
<svg version="1.1" xmlns="http://www.w3.org/2000/svg" width="136" height="201">
<path d="M0 0 C16.83 0 33.66 0 51 0 C51.18106927 20.32432905 51.32823357 40.64799813 51.41449738 60.97293091 C51.45562804 70.41161111 51.51163423 79.84975204 51.60351562 89.28808594 C51.6836255 97.52118696 51.73495318 105.75389718 51.75270796 113.98737717 C51.76307562 118.34119853 51.78718085 122.69390255 51.84584045 127.04736328 C51.90077486 131.15826799 51.91676834 135.2676121 51.90486145 139.37884903 C51.90703459 140.87511857 51.92257162 142.37144885 51.9536438 143.86739731 C52.25167018 158.97672971 46.6839511 171.10730328 36.28957319 182.03170967 C31.68606335 186.56940884 26.68841445 189.97752338 21 193 C20.11570312 193.47050781 19.23140625 193.94101563 18.3203125 194.42578125 C1.4923357 202.69343941 -19.53722594 204.04323028 -37.44140625 198.39453125 C-47.81864696 194.32792869 -57.69057934 189.54960982 -66 182 C-66.74507812 181.34644531 -67.49015625 180.69289062 -68.2578125 180.01953125 C-74.60434414 174.11402978 -78.80142886 167.52118139 -83 160 C-83.35956787 159.42773682 -83.71913574 158.85547363 -84.08959961 158.26586914 C-85.37606319 155.06402723 -85.22352989 152.27064601 -85.1953125 148.828125 C-85.19031738 147.5793457 -85.18532227 146.33056641 -85.18017578 145.04394531 C-85.16196777 143.46194336 -85.14375977 141.87994141 -85.125 140.25 C-85.08375 135.2175 -85.0425 130.185 -85 125 C-67.51 125 -50.02 125 -32 125 C-31.67 128.96 -31.34 132.92 -31 137 C-28.7254225 143.10505493 -25.02487667 148.23859819 -19 151 C-15.04993947 151.75639457 -12.74229728 151.11020605 -9.4375 149 C-4.77619539 145.18195076 -1.49956138 141.15718862 -0.53624535 135.06910706 C-0.34536826 131.51205419 -0.31622231 127.98597438 -0.34057617 124.42382812 C-0.33211154 123.06304461 -0.3214622 121.70227321 -0.30880737 120.34152222 C-0.28077926 116.66838878 -0.28311133 112.99584167 -0.29110122 109.32263374 C-0.29423616 105.47619225 -0.26916316 101.62993428 -0.24714661 97.78356934 C-0.20976211 90.50936263 -0.19756195 83.23534286 -0.1945222 75.96104956 C-0.18982528 67.67556315 -0.15688169 59.39026329 -0.12162435 51.10485935 C-0.04976423 34.06988317 -0.01691309 17.03513283 0 0 Z M6 6 C6.00636475 10.00688965 6.01272949 14.0137793 6.01928711 18.14208984 C6.03524259 31.39356874 6.01314552 44.6447563 5.97153378 57.89616966 C5.94723486 65.92910721 5.93585616 73.96166834 5.95532227 81.99462891 C5.97226381 88.99951757 5.96452644 96.0038795 5.92765242 103.00869906 C5.90899121 106.71491286 5.90235044 110.42023669 5.92530632 114.12644577 C5.9505258 118.27300455 5.92062342 122.41746955 5.88647461 126.56396484 C5.9022908 127.78101105 5.91810699 128.99805725 5.93440247 130.25198364 C5.7878991 139.52169546 2.87186494 145.12509447 -3.64570713 151.64673424 C-8.2464122 155.68487501 -11.68702061 157.50511716 -17.91796875 157.30859375 C-24.85485601 156.28042472 -29.02183586 151.29615773 -33 146 C-33.598125 145.236875 -34.19625 144.47375 -34.8125 143.6875 C-36 141 -36 141 -37 131 C-50.86 131 -64.72 131 -79 131 C-79.12375 134.75375 -79.2475 138.5075 -79.375 142.375 C-79.42962402 143.53692871 -79.48424805 144.69885742 -79.54052734 145.89599609 C-79.66617343 153.85763437 -77.71439106 158.65465309 -73 165 C-72.27296875 166.02351562 -71.5459375 167.04703125 -70.796875 168.1015625 C-59.82733224 181.62508278 -43.78044751 193.02654446 -26 195 C-5.84794908 196.22133642 12.72165397 194.38304921 28.5 180.5 C30.02097591 179.02127342 31.5234225 177.52306234 33 176 C33.85851562 175.15501953 33.85851562 175.15501953 34.734375 174.29296875 C41.33969043 167.29610111 46.12840208 157.64285314 46.12025452 148.02058411 C46.12162918 146.77116531 46.12300385 145.52174652 46.12442017 144.23446655 C46.12088103 142.84747291 46.11724622 141.4604795 46.11352539 140.07348633 C46.11324336 138.61493431 46.11340157 137.15638214 46.1139679 135.6978302 C46.11425525 131.73531191 46.10836853 127.77282378 46.10139394 123.81031251 C46.09515008 119.67031141 46.09455578 115.53030965 46.09336853 111.39030457 C46.09025827 103.54930263 46.08204897 95.70831461 46.07201904 87.86731881 C46.06084846 78.94118156 46.05534507 70.01504366 46.05032361 61.08890116 C46.03986612 42.72592461 46.02152441 24.36296714 46 6 C32.8 6 19.6 6 6 6 Z " fill="#000000" transform="translate(85,0)"/>
<path d="M0 0 C3.0261912 2.0174608 3.81051292 3.45522464 5 6.875 C5 11.15428291 3.89686146 12.88587393 1 16 C-3.02278753 17.24340706 -5.02687998 17.44425045 -8.875 15.6875 C-11 14 -11 14 -12 12 C-12.56872038 4.9478673 -12.56872038 4.9478673 -10.5 1.5 C-6.97359191 -0.61584485 -4.01178761 -0.80730018 0 0 Z " fill="#000000" transform="translate(112,12)"/>
<path d="M0 0 C2.69504819 2.69504819 5 6.08360477 5 10 C2 12 2 12 -1 12 C-1.67154933 10.71086513 -2.33708859 9.41859796 -3 8.125 C-3.37125 7.40570313 -3.7425 6.68640625 -4.125 5.9453125 C-5 4 -5 4 -5 2 C-3.35 1.34 -1.7 0.68 0 0 Z " fill="#000000" transform="translate(34,153)"/>
<path d="M0 0 C1.98 0 3.96 0 6 0 C6 3.63 6 7.26 6 11 C4.02 11 2.04 11 0 11 C0 7.37 0 3.74 0 0 Z " fill="#000000" transform="translate(107,49)"/>
<path d="M0 0 C1.98 0 3.96 0 6 0 C6.36923077 6.4 6.36923077 6.4 4.5 9.4375 C4.005 9.953125 3.51 10.46875 3 11 C0.525 10.01 0.525 10.01 -2 9 C-1.34 6.03 -0.68 3.06 0 0 Z " fill="#000000" transform="translate(107,143)"/>
<path d="M0 0 C1.37562854 1.28965176 2.70766393 2.62689293 4 4 C4 4.66 4 5.32 4 6 C2.71086513 6.67154933 1.41859796 7.33708859 0.125 8 C-0.59429687 8.37125 -1.31359375 8.7425 -2.0546875 9.125 C-4 10 -4 10 -6 10 C-6.66 8.35 -7.32 6.7 -8 5 C-4.04 2.525 -4.04 2.525 0 0 Z " fill="#000000" transform="translate(84,169)"/>
<path d="M0 0 C2.95409701 1.37154504 5.44008376 2.98863724 8 5 C7.34 6.65 6.68 8.3 6 10 C2.54074837 8.7508258 -0.14693203 7.32472205 -3 5 C-1.125 1.125 -1.125 1.125 0 0 Z " fill="#000000" transform="translate(43,169)"/>
<path d="M0 0 C0 1.98 0 3.96 0 6 C-1.45736087 6.19491452 -2.91594593 6.38069358 -4.375 6.5625 C-5.18710937 6.66691406 -5.99921875 6.77132812 -6.8359375 6.87890625 C-9 7 -9 7 -11 6 C-10.67 4.35 -10.34 2.7 -10 1 C-3.375 0 -3.375 0 0 0 Z " fill="#000000" transform="translate(69,176)"/>
<path d="M0 0 C2.475 0.99 2.475 0.99 5 2 C3.56036361 5.35915158 1.87583411 7.71624938 -1 10 C-3.25 9.75 -3.25 9.75 -5 9 C-5.33 7.68 -5.66 6.36 -6 5 C-4.02 3.35 -2.04 1.7 0 0 Z " fill="#000000" transform="translate(98,158)"/>
<path d="M0 0 C1.98 0 3.96 0 6 0 C6 3.3 6 6.6 6 10 C4.02 10 2.04 10 0 10 C0 6.7 0 3.4 0 0 Z " fill="#000000" transform="translate(107,125)"/>
<path d="M0 0 C1.98 0 3.96 0 6 0 C6 3.3 6 6.6 6 10 C4.02 10 2.04 10 0 10 C0 6.7 0 3.4 0 0 Z " fill="#000000" transform="translate(107,106)"/>
<path d="M0 0 C1.98 0 3.96 0 6 0 C6 3.3 6 6.6 6 10 C4.02 10 2.04 10 0 10 C0 6.7 0 3.4 0 0 Z " fill="#000000" transform="translate(107,87)"/>
<path d="M0 0 C1.98 0 3.96 0 6 0 C6 3.3 6 6.6 6 10 C4.02 10 2.04 10 0 10 C0 6.7 0 3.4 0 0 Z " fill="#000000" transform="translate(107,68)"/>
<path d="M0 0 C1.98 0 3.96 0 6 0 C6 3.3 6 6.6 6 10 C4.02 10 2.04 10 0 10 C0 6.7 0 3.4 0 0 Z " fill="#000000" transform="translate(107,31)"/>
<path d="M0 0 C0.33 1.98 0.66 3.96 1 6 C-0.98 6.33 -2.96 6.66 -5 7 C-5.33 5.02 -5.66 3.04 -6 1 C-3 0 -3 0 0 0 Z " fill="#000000" transform="translate(31,140)"/>
</svg>
