<?xml version="1.0" encoding="UTF-8"?>
<svg version="1.1" xmlns="http://www.w3.org/2000/svg" width="208" height="240">
<path d="M0 0 C16.90017248 14.46088915 27.66902757 34.45253776 30.93359375 56.47265625 C33.19317933 92.95950913 22.60710416 126.32937856 -1.69140625 153.84765625 C-2.80920473 155.0626546 -3.93113796 156.27396515 -5.06640625 157.47265625 C-3.79036466 160.22452937 -2.42167688 162.4178259 -0.4140625 164.6875 C0.10945801 165.28449707 0.63297852 165.88149414 1.17236328 166.49658203 C1.73294434 167.12806152 2.29352539 167.75954102 2.87109375 168.41015625 C4.05532473 169.75985782 5.23890799 171.11012796 6.421875 172.4609375 C7.01436035 173.13592285 7.6068457 173.8109082 8.21728516 174.50634766 C10.69475005 177.34468368 13.13098097 180.21666475 15.55859375 183.09765625 C16.00098389 183.62254639 16.44337402 184.14743652 16.89916992 184.68823242 C17.79065462 185.74614927 18.68201242 186.80417307 19.57324219 187.86230469 C20.98277624 189.53087731 22.39877096 191.1937752 23.81640625 192.85546875 C38.93359375 210.59317328 38.93359375 210.59317328 38.93359375 212.47265625 C30.77983518 212.82203288 22.62925516 213.08758075 14.46983624 213.24983883 C10.6795744 213.32777115 6.89446943 213.43316797 3.10717773 213.60424805 C-23.41227974 214.77100651 -23.41227974 214.77100651 -29.36621094 209.35693359 C-31.9282169 206.27559374 -33.70029125 202.96668608 -35.2663269 199.290802 C-36.31570541 196.90613467 -37.74118703 194.91639182 -39.29296875 192.83203125 C-40.09599362 191.63126992 -40.89573387 190.4283022 -41.69140625 189.22265625 C-42.11035156 188.60003906 -42.52929688 187.97742188 -42.9609375 187.3359375 C-44.69295419 184.72950462 -46.07171635 182.45672595 -47.06640625 179.47265625 C-47.77023438 179.54484375 -48.4740625 179.61703125 -49.19921875 179.69140625 C-78.43862913 182.43975814 -108.29477307 179.7649532 -132.05859375 161.0390625 C-152.62824608 143.48807344 -165.92328934 120.80674386 -168.90307617 93.54321289 C-171.38195616 62.11812895 -163.50472999 30.71830168 -143.8984375 5.70703125 C-105.64226287 -38.97717925 -42.60748507 -35.11725203 0 0 Z M-132.06640625 2.47265625 C-132.73027344 3.04113281 -133.39414063 3.60960938 -134.078125 4.1953125 C-140.38452295 10.03089881 -144.75479935 17.12233364 -149.06640625 24.47265625 C-149.62457031 25.41882812 -150.18273437 26.365 -150.7578125 27.33984375 C-164.13243774 51.99385267 -167.28528193 83.66033256 -159.46435547 110.54199219 C-151.88053867 134.73067529 -135.52515573 153.59151752 -113.55859375 165.875 C-100.15545514 172.6175575 -83.40263957 175.42596935 -68.58984375 173.69140625 C-47.93614058 171.51330212 -47.93614058 171.51330212 -41.01123047 176.80908203 C-35.80174792 182.69785254 -32.07256727 189.28854233 -28.68676758 196.38305664 C-28.15204834 197.40262451 -27.6173291 198.42219238 -27.06640625 199.47265625 C-26.76377365 200.10513779 -26.46114105 200.73761932 -26.14933777 201.38926697 C-24.95655586 203.49832871 -23.93971166 204.92658342 -22.06640625 206.47265625 C-18.39323521 207.43430503 -14.85303851 207.28941979 -11.078125 207.15625 C-10.01978958 207.14634537 -8.96145416 207.13644073 -7.87104797 207.12623596 C-4.49724606 207.08711125 -1.1267213 206.99928755 2.24609375 206.91015625 C4.53576024 206.87504015 6.82547783 206.84310168 9.11523438 206.81445312 C14.72246858 206.73735628 20.32779707 206.62028671 25.93359375 206.47265625 C24.20324424 203.48525871 22.46955133 200.7479116 20.18359375 198.16015625 C19.6632959 197.56638184 19.14299805 196.97260742 18.60693359 196.36083984 C18.05473145 195.73773926 17.5025293 195.11463867 16.93359375 194.47265625 C15.75848255 193.13206417 14.58401387 191.79090864 13.41015625 190.44921875 C12.82395508 189.78051758 12.23775391 189.11181641 11.63378906 188.42285156 C9.16303192 185.58878952 6.73167472 182.72249808 4.30859375 179.84765625 C3.86974854 179.32703613 3.43090332 178.80641602 2.97875977 178.27001953 C2.09101268 177.21658355 1.20339899 176.16303514 0.31591797 175.109375 C-1.15986355 173.36199964 -2.64180244 171.61999016 -4.125 169.87890625 C-4.62757324 169.28803223 -5.13014648 168.6971582 -5.64794922 168.08837891 C-6.61063274 166.95683695 -7.57443893 165.82624884 -8.53955078 164.69677734 C-10.53253308 162.35073975 -12.35596022 160.03832529 -14.06640625 157.47265625 C-13.30457031 156.75722656 -12.54273438 156.04179687 -11.7578125 155.3046875 C9.11848276 135.32498276 24.21207792 106.31453018 25.26953125 77.0546875 C25.6299129 50.28655679 19.45775246 28.74837377 0.7578125 8.8984375 C-16.92140024 -9.23760245 -41.49132913 -21.1453515 -66.91845703 -21.81298828 C-91.54363844 -22.08176879 -113.40900239 -13.5448855 -132.06640625 2.47265625 Z " fill="#000000" transform="translate(169.06640625,27.52734375)"/>
<path d="M0 0 C9.84806645 6.93107691 16.83627299 16.96156052 19.5625 28.76953125 C22.17420118 48.05414621 18.52643415 67.94798441 6.671875 83.77294922 C3.67234794 87.42230359 0.40420874 90.72928964 -3 94 C-3.92619141 94.93779297 -3.92619141 94.93779297 -4.87109375 95.89453125 C-14.03277985 104.572867 -25.30724729 106.48372732 -37.40234375 106.27734375 C-51.53421855 105.68247321 -64.67213738 99.92794472 -74.93359375 90.25390625 C-87.63753438 76.39724511 -89.80148123 59.66423593 -89.17480469 41.67675781 C-88.03674266 24.24978558 -79.82475823 8.62188436 -67 -3 C-63.80916438 -5.40862778 -60.61625595 -7.30488002 -57 -9 C-56.319375 -9.33644531 -55.63875 -9.67289063 -54.9375 -10.01953125 C-37.36667042 -17.30743215 -15.15418075 -9.44659779 0 0 Z M-70.00390625 8.35546875 C-81.44489108 23.89840494 -84.64076443 41.06868575 -83 60 C-80.85826886 72.0517752 -74.81891955 83.48409169 -65 91 C-51.69852779 98.96203826 -37.5002671 102.59873974 -22.03125 99.3828125 C-8.68020334 94.60854581 1.838833 82.40719856 8 70 C13.61813047 56.14396393 17.44374741 39.86749298 12.03515625 25.2265625 C5.68448454 11.56662712 -3.00413307 3.53686622 -17 -2 C-36.65012777 -9.01199296 -55.84119871 -8.29192433 -70.00390625 8.35546875 Z " fill="#000000" transform="translate(137,59)"/>
<path d="M0 0 C3.0261912 2.0174608 3.81051292 3.45522464 5 6.875 C5 11.15428291 3.89686146 12.88587393 1 16 C-3.02278753 17.24340706 -5.02687998 17.44425045 -8.875 15.6875 C-11 14 -11 14 -12 12 C-12.56872038 4.9478673 -12.56872038 4.9478673 -10.5 1.5 C-6.97359191 -0.61584485 -4.01178761 -0.80730018 0 0 Z " fill="#000000" transform="translate(106,18)"/>
<path d="M0 0 C0.66 1.65 1.32 3.3 2 5 C-1.85623679 9.82029598 -1.85623679 9.82029598 -5.11328125 10.33203125 C-7.07856214 10.3145776 -9.04166127 10.16596091 -11 10 C-11.66 8.35 -12.32 6.7 -13 5 C-11.730447 4.35165346 -10.45930294 3.70642185 -9.1875 3.0625 C-8.47980469 2.70285156 -7.77210937 2.34320313 -7.04296875 1.97265625 C-4.66983249 0.84280744 -2.65322674 0 0 0 Z " fill="#000000" transform="translate(134,170)"/>
<path d="M0 0 C4.29 0 8.58 0 13 0 C13.33 1.98 13.66 3.96 14 6 C9.38 6 4.76 6 0 6 C0 4.02 0 2.04 0 0 Z " fill="#000000" transform="translate(95,177)"/>
<path d="M0 0 C1.32 0.99 2.64 1.98 4 3 C2.50871999 6.79598549 0.34266559 8.71720399 -3 11 C-3.99 11 -4.98 11 -6 11 C-6.66 9.35 -7.32 7.7 -8 6 C-5.36 4.02 -2.72 2.04 0 0 Z " fill="#000000" transform="translate(149,158)"/>
<path d="M0 0 C1.875 0 1.875 0 4 1 C5.81278756 4.4960903 7 7.03981755 7 11 C5.35 11.33 3.7 11.66 2 12 C-2.04893617 5.61985816 -2.04893617 5.61985816 -1.8125 2.625 C-1 1 -1 1 0 0 Z " fill="#000000" transform="translate(165,63)"/>
<path d="M0 0 C2.475 0.99 2.475 0.99 5 2 C4.38545304 5.99455527 2.29353263 8.74466336 0 12 C-1.32 11.67 -2.64 11.34 -4 11 C-4.65234375 9.234375 -4.65234375 9.234375 -5 7 C-4.00390625 5.078125 -4.00390625 5.078125 -2.5625 3.25 C-2.08941406 2.63640625 -1.61632812 2.0228125 -1.12890625 1.390625 C-0.75636719 0.93171875 -0.38382813 0.4728125 0 0 Z " fill="#000000" transform="translate(161,142)"/>
<path d="M0 0 C4.2742558 1.5830577 6.26531794 4.50568404 9 8 C7.75 9.5625 7.75 9.5625 6 11 C3.39312964 10.74772222 2.29341914 10.32198889 0.515625 8.37109375 C0.09796875 7.73300781 -0.3196875 7.09492187 -0.75 6.4375 C-1.17796875 5.79683594 -1.6059375 5.15617187 -2.046875 4.49609375 C-2.51867187 3.75552734 -2.51867187 3.75552734 -3 3 C-2.01 2.01 -1.02 1.02 0 0 Z " fill="#000000" transform="translate(153,46)"/>
<path d="M0 0 C1.29858939 0.56775536 2.58870441 1.15491663 3.875 1.75 C4.59429687 2.07484375 5.31359375 2.3996875 6.0546875 2.734375 C8.3370674 4.21929686 9.00375898 5.50415408 10 8 C8.68 8.99 7.36 9.98 6 11 C3.36 9.35 0.72 7.7 -2 6 C-1.34 4.02 -0.68 2.04 0 0 Z " fill="#000000" transform="translate(136,33)"/>
<path d="M0 0 C3.3 0.66 6.6 1.32 10 2 C11 6 11 6 10 8 C2.57142857 7 2.57142857 7 -1 6 C-0.67 4.02 -0.34 2.04 0 0 Z " fill="#000000" transform="translate(116,26)"/>
<path d="M0 0 C2.96404505 2.80804268 5.44499019 5.18315774 7 9 C5.68 9.99 4.36 10.98 3 12 C0.69 9.69 -1.62 7.38 -4 5 C-3 2 -3 2 0 0 Z " fill="#000000" transform="translate(46,152)"/>
<path d="M0 0 C1.67542976 0.28604898 3.34385343 0.61781233 5 1 C4.53199289 5.05606165 4.12046792 8.46588679 2 12 C-0.475 11.01 -0.475 11.01 -3 10 C-2.69201674 8.51988629 -2.378482 7.04092675 -2.0625 5.5625 C-1.88847656 4.73878906 -1.71445313 3.91507812 -1.53515625 3.06640625 C-1 1 -1 1 0 0 Z " fill="#000000" transform="translate(169,124)"/>
<path d="M0 0 C1.65 0 3.3 0 5 0 C5.33 3.63 5.66 7.26 6 11 C4.35 11.33 2.7 11.66 1 12 C-0.47075246 7.58774263 -1.36884358 4.51718381 0 0 Z " fill="#000000" transform="translate(171,83)"/>
<path d="M0 0 C0.99 0.33 1.98 0.66 3 1 C3.33 2.65 3.66 4.3 4 6 C-1.41538462 10.06153846 -1.41538462 10.06153846 -4.375 9.75 C-4.91125 9.5025 -5.4475 9.255 -6 9 C-6.33 7.68 -6.66 6.36 -7 5 C-5.90554162 4.13342884 -4.79902219 3.28207276 -3.6875 2.4375 C-3.07261719 1.96183594 -2.45773438 1.48617187 -1.82421875 0.99609375 C-1.22222656 0.66738281 -0.62023437 0.33867187 0 0 Z " fill="#000000" transform="translate(65,31)"/>
<path d="M0 0 C1.32 2.97 2.64 5.94 4 9 C0.25 12 0.25 12 -2 12 C-2.69965443 10.73581754 -3.38434763 9.46334598 -4.0625 8.1875 C-4.44535156 7.47980469 -4.82820313 6.77210938 -5.22265625 6.04296875 C-6 4 -6 4 -5 1 C-2 0 -2 0 0 0 Z " fill="#000000" transform="translate(38,136)"/>
<path d="M0 0 C1.98 0 3.96 0 6 0 C5.67 3.63 5.34 7.26 5 11 C3.02 11 1.04 11 -1 11 C-0.67 7.37 -0.34 3.74 0 0 Z " fill="#000000" transform="translate(172,104)"/>
<path d="M0 0 C1.32 0.33 2.64 0.66 4 1 C4.8125 2.625 4.8125 2.625 5 5 C3.53181864 7.24609835 1.84147142 9.02378677 0 11 C-2.475 10.01 -2.475 10.01 -5 9 C-4.42647107 5.12867972 -2.51295648 2.91827204 0 0 Z " fill="#000000" transform="translate(49,44)"/>
<path d="M0 0 C2.97 0.495 2.97 0.495 6 1 C6 4.3 6 7.6 6 11 C4.02 11 2.04 11 0 11 C0 7.37 0 3.74 0 0 Z " fill="#000000" transform="translate(26,98)"/>
<path d="M0 0 C2.97 0.495 2.97 0.495 6 1 C5.34 4.3 4.68 7.6 4 11 C1.03 10.505 1.03 10.505 -2 10 C-1.125 2.25 -1.125 2.25 0 0 Z " fill="#000000" transform="translate(30,79)"/>
<path d="M0 0 C1.48206495 0.254496 2.96068615 0.52911762 4.4375 0.8125 C5.67306641 1.03873047 5.67306641 1.03873047 6.93359375 1.26953125 C7.61550781 1.51058594 8.29742187 1.75164062 9 2 C10 5 10 5 9 8 C7.54077307 7.88590407 6.08259402 7.75834456 4.625 7.625 C3.40683594 7.52058594 3.40683594 7.52058594 2.1640625 7.4140625 C0 7 0 7 -2 5 C-1.34 3.35 -0.68 1.7 0 0 Z " fill="#000000" transform="translate(77,173)"/>
<path d="M0 0 C2.97 1.65 5.94 3.3 9 5 C8.34 6.65 7.68 8.3 7 10 C2.56909529 8.79157144 0.01887244 7.48331435 -3 4 C-2.01 2.68 -1.02 1.36 0 0 Z " fill="#000000" transform="translate(60,165)"/>
<path d="M0 0 C1.98 0 3.96 0 6 0 C6.33 3.3 6.66 6.6 7 10 C5.35 10.33 3.7 10.66 2 11 C0.57741188 7.17679443 -0.24042276 4.08718695 0 0 Z " fill="#000000" transform="translate(27,118)"/>
<path d="M0 0 C2.475 0.99 2.475 0.99 5 2 C4.55090939 3.48199902 4.09043436 4.96055236 3.625 6.4375 C3.36976562 7.26121094 3.11453125 8.08492187 2.8515625 8.93359375 C2 11 2 11 0 12 C-2.125 11.0625 -2.125 11.0625 -4 10 C-3.43454163 6.04179141 -2.19097652 3.3340947 0 0 Z " fill="#000000" transform="translate(38,60)"/>
<path d="M0 0 C0.33 1.98 0.66 3.96 1 6 C-2.3 6.66 -5.6 7.32 -9 8 C-9.66 6.35 -10.32 4.7 -11 3 C-9.54293274 2.49632243 -8.08429904 1.99717444 -6.625 1.5 C-5.81289062 1.2215625 -5.00078125 0.943125 -4.1640625 0.65625 C-2 0 -2 0 0 0 Z " fill="#000000" transform="translate(86,24)"/>
<path d="M0 0 C2.75440266 0.27544027 3.83700152 0.83700152 5.8125 2.8125 C7 5 7 5 6.6875 7.25 C6.460625 7.8275 6.23375 8.405 6 9 C4.68 9.33 3.36 9.66 2 10 C-0.0625 7.75 -0.0625 7.75 -2 5 C-1.81190541 2.74286486 -1.60454441 1.60454441 0 0 Z " fill="#000000" transform="translate(147,197)"/>
<path d="M0 0 C1.38938077 1.96147874 2.7260411 3.96166576 4 6 C3.34 7.32 2.68 8.64 2 10 C1.01 10 0.02 10 -1 10 C-5 5.77142857 -5 5.77142857 -5 2 C-2 0 -2 0 0 0 Z " fill="#000000" transform="translate(140,183)"/>
<path d="M0 0 C0.66 1.65 1.32 3.3 2 5 C-1 7 -1 7 -4 7 C-4.6875 5.1875 -4.6875 5.1875 -5 3 C-3.38441968 0.84589291 -2.74502455 0 0 0 Z " fill="#000000" transform="translate(160,210)"/>
</svg>
