<?xml version="1.0" encoding="UTF-8"?>
<svg version="1.1" xmlns="http://www.w3.org/2000/svg" width="154" height="201">
<path d="M0 0 C25.245 -0.2475 25.245 -0.2475 51 -0.5 C56.28386719 -0.57283203 61.56773438 -0.64566406 67.01171875 -0.72070312 C73.54101562 -0.75683594 73.54101562 -0.75683594 76.61254883 -0.7635498 C78.72531679 -0.77571143 80.83803463 -0.80358922 82.95043945 -0.84460449 C106.06071787 -1.27028859 120.32677202 5.97307402 137.25 21.6875 C144.75011641 29.44124353 150.4689791 39.47848337 153 50 C153.18046875 50.71285156 153.3609375 51.42570312 153.546875 52.16015625 C156.79644287 72.5259825 151.52660964 92.06087156 139.984375 108.94921875 C138.07779212 111.40000344 136.09826092 113.71211235 134 116 C133.37480469 116.70511719 132.74960938 117.41023438 132.10546875 118.13671875 C123.3115191 127.53961807 111.29186452 134.992189 98.16137695 135.45410156 C96.10356984 135.45312037 94.04567726 135.43176806 91.98828125 135.390625 C91.01644897 135.38659668 90.0446167 135.38256836 89.04333496 135.37841797 C85.46619366 135.35773196 81.88932475 135.30188962 78.3125 135.25 C70.289375 135.1675 62.26625 135.085 54 135 C54 156.78 54 178.56 54 201 C36.18 201 18.36 201 0 201 C0 134.67 0 68.34 0 0 Z M5 5 C5 68.03 5 131.06 5 196 C19.19 196 33.38 196 48 196 C48 173.89 48 151.78 48 129 C74.8125 129.25 74.8125 129.25 83.21020508 129.36035156 C85.43830595 129.37204804 87.66641546 129.38223759 89.89453125 129.390625 C91.59144104 129.4213208 91.59144104 129.4213208 93.32263184 129.45263672 C107.21989436 129.45866002 116.97636474 124.23186335 127 115 C140.28767507 101.5694467 148.27257306 83.82627696 148.5 64.9375 C148.31800485 48.62522905 142.27405751 36.00947958 131.20703125 24.1171875 C96.41429974 -9.25920273 54.41150653 5 5 5 Z " fill="#000000" transform="translate(0,0)"/>
<path d="M0 0 C9.1575 -0.2165625 9.1575 -0.2165625 18.5 -0.4375 C20.41103516 -0.50122803 22.32207031 -0.56495605 24.29101562 -0.63061523 C38.15568092 -0.90282936 38.15568092 -0.90282936 42.9765625 3.2109375 C44.65917969 5.13989258 44.65917969 5.13989258 46 7 C46.73992187 7.87785156 47.47984375 8.75570312 48.2421875 9.66015625 C54.0016339 18.1339829 56.05354525 24.66458773 55 35 C53.19994366 41.88764072 49.03632307 47.10302184 44 52 C43.15276367 52.85456787 42.30552734 53.70913574 41.43261719 54.58959961 C37.53659002 57.79954227 33.98100358 57.6463168 29.1015625 57.48828125 C28.36059326 57.48324585 27.61962402 57.47821045 26.85620117 57.47302246 C24.11206877 57.44703902 21.36849186 57.37723202 18.625 57.3125 C12.47875 57.209375 6.3325 57.10625 0 57 C0 38.19 0 19.38 0 0 Z M6 6 C6 20.85 6 35.7 6 51 C10.785 51.144375 15.57 51.28875 20.5 51.4375 C21.99337891 51.50122803 23.48675781 51.56495605 25.02539062 51.63061523 C33.56672313 51.80925835 33.56672313 51.80925835 40.78125 47.73828125 C45.84285308 42.42173079 49.22604288 37.00620003 49.625 29.5625 C49.30965443 23.62072561 47.4885587 18.80403605 44 14 C43.29327148 12.9788208 43.29327148 12.9788208 42.57226562 11.93701172 C39.54739527 8.21035165 37.34400808 6.24906245 32.5390625 5.35864258 C28.49018555 5.21276692 24.54796376 5.30258096 20.5 5.5 C15.715 5.665 10.93 5.83 6 6 Z " fill="#000000" transform="translate(48,38)"/>
<path d="M0 0 C3.0261912 2.0174608 3.81051292 3.45522464 5 6.875 C5 11.15428291 3.89686146 12.88587393 1 16 C-3.02278753 17.24340706 -5.02687998 17.44425045 -8.875 15.6875 C-11 14 -11 14 -12 12 C-12.56872038 4.9478673 -12.56872038 4.9478673 -10.5 1.5 C-6.97359191 -0.61584485 -4.01178761 -0.80730018 0 0 Z " fill="#000000" transform="translate(31,14)"/>
<path d="M0 0 C1.32 1.32 2.64 2.64 4 4 C1.52414762 6.65269897 -0.59026101 8.68010103 -4 10 C-4.99 10 -5.98 10 -7 10 C-7.66 8.35 -8.32 6.7 -9 5 C-6.03 3.35 -3.06 1.7 0 0 Z " fill="#000000" transform="translate(111,92)"/>
<path d="M0 0 C4.66154042 1.49835228 5.86610751 4.88463591 8 9 C4.25 12 4.25 12 2 12 C0.7109375 10.3203125 0.7109375 10.3203125 -0.625 8.125 C-1.07101563 7.40570313 -1.51703125 6.68640625 -1.9765625 5.9453125 C-3 4 -3 4 -3 2 C-2.01 1.34 -1.02 0.68 0 0 Z " fill="#000000" transform="translate(120,40)"/>
<path d="M0 0 C3.99455527 0.61454696 6.74466336 2.70646737 10 5 C9.34 6.65 8.68 8.3 8 10 C4.00544473 9.38545304 1.25533664 7.29353263 -2 5 C-1.34 3.35 -0.68 1.7 0 0 Z " fill="#000000" transform="translate(104,26)"/>
<path d="M0 0 C2.475 0.99 2.475 0.99 5 2 C3.79157144 6.43090471 2.48331435 8.98112756 -1 12 C-2.32 11.34 -3.64 10.68 -5 10 C-5 6.60406522 -4.47834052 5.93380119 -2.5 3.3125 C-2.0359375 2.68988281 -1.571875 2.06726563 -1.09375 1.42578125 C-0.7328125 0.95527344 -0.371875 0.48476562 0 0 Z " fill="#000000" transform="translate(124,78)"/>
<path d="M0 0 C1.65 0 3.3 0 5 0 C5 0.99 5 1.98 5 3 C5.99 3 6.98 3 8 3 C8 4.65 8 6.3 8 8 C7.01 8 6.02 8 5 8 C5 8.66 5 9.32 5 10 C3.35 10 1.7 10 0 10 C0 6.7 0 3.4 0 0 Z " fill="#000000" transform="translate(24,100)"/>
<path d="M0 0 C0.66 1.98 1.32 3.96 2 6 C-0.88211302 6.96070434 -2.69850044 7.10581883 -5.6875 7.0625 C-6.89986328 7.04896484 -6.89986328 7.04896484 -8.13671875 7.03515625 C-9.05904297 7.01775391 -9.05904297 7.01775391 -10 7 C-10 5.35 -10 3.7 -10 2 C-8.7090864 1.66376204 -7.41723903 1.33110751 -6.125 1 C-5.40570313 0.814375 -4.68640625 0.62875 -3.9453125 0.4375 C-2 0 -2 0 0 0 Z " fill="#000000" transform="translate(94,101)"/>
<path d="M0 0 C1.65 0 3.3 0 5 0 C5 3.96 5 7.92 5 12 C3.35 11.67 1.7 11.34 0 11 C-0.19406478 9.35492782 -0.38007935 7.70890406 -0.5625 6.0625 C-0.66691406 5.14597656 -0.77132812 4.22945312 -0.87890625 3.28515625 C-0.91886719 2.53105469 -0.95882812 1.77695312 -1 1 C-0.67 0.67 -0.34 0.34 0 0 Z " fill="#000000" transform="translate(127,59)"/>
<path d="M0 0 C1.65 0 3.3 0 5 0 C5 3.96 5 7.92 5 12 C3.35 12 1.7 12 0 12 C0 8.04 0 4.08 0 0 Z " fill="#000000" transform="translate(24,58)"/>
<path d="M0 0 C1.4370809 -0.05422947 2.87475462 -0.09289723 4.3125 -0.125 C5.11300781 -0.14820312 5.91351563 -0.17140625 6.73828125 -0.1953125 C9 0 9 0 12 2 C11.34 3.65 10.68 5.3 10 7 C6.7 6.34 3.4 5.68 0 5 C0 3.35 0 1.7 0 0 Z " fill="#000000" transform="translate(84,20)"/>
<path d="M0 0 C3.63 0 7.26 0 11 0 C11 1.65 11 3.3 11 5 C7.37 5 3.74 5 0 5 C0 3.35 0 1.7 0 0 Z " fill="#000000" transform="translate(63,103)"/>
<path d="M0 0 C3.63 0 7.26 0 11 0 C11 1.65 11 3.3 11 5 C7.37 5 3.74 5 0 5 C0 3.35 0 1.7 0 0 Z " fill="#000000" transform="translate(42,103)"/>
<path d="M0 0 C1.65 0 3.3 0 5 0 C5 3.63 5 7.26 5 11 C3.35 11 1.7 11 0 11 C0 7.37 0 3.74 0 0 Z " fill="#000000" transform="translate(24,79)"/>
<path d="M0 0 C1.65 0 3.3 0 5 0 C5 3.63 5 7.26 5 11 C3.35 11 1.7 11 0 11 C0 7.37 0 3.74 0 0 Z " fill="#000000" transform="translate(24,38)"/>
<path d="M0 0 C3.63 0 7.26 0 11 0 C11 1.65 11 3.3 11 5 C7.37 5 3.74 5 0 5 C0 3.35 0 1.7 0 0 Z " fill="#000000" transform="translate(63,20)"/>
<path d="M0 0 C3.63 0 7.26 0 11 0 C11 1.65 11 3.3 11 5 C7.37 5 3.74 5 0 5 C0 3.35 0 1.7 0 0 Z " fill="#000000" transform="translate(42,20)"/>
<path d="M0 0 C1.65 0 3.3 0 5 0 C5 2.97 5 5.94 5 9 C3.35 9 1.7 9 0 9 C0 6.03 0 3.06 0 0 Z " fill="#000000" transform="translate(24,155)"/>
<path d="M0 0 C1.65 0 3.3 0 5 0 C5 2.97 5 5.94 5 9 C3.35 9 1.7 9 0 9 C0 6.03 0 3.06 0 0 Z " fill="#000000" transform="translate(24,137)"/>
<path d="M0 0 C1.65 0 3.3 0 5 0 C5 2.97 5 5.94 5 9 C3.35 9 1.7 9 0 9 C0 6.03 0 3.06 0 0 Z " fill="#000000" transform="translate(24,119)"/>
<path d="M0 0 C1.65 0 3.3 0 5 0 C5 1.65 5 3.3 5 5 C3.35 5 1.7 5 0 5 C0 3.35 0 1.7 0 0 Z " fill="#000000" transform="translate(24,173)"/>
</svg>
