<?xml version="1.0" encoding="UTF-8"?>
<svg version="1.1" xmlns="http://www.w3.org/2000/svg" width="764" height="810">
<path d="M0 0 C21.06637098 19.40994262 28.03705928 52.59079435 29.9375 79.9375 C30.06284883 83.90420719 30.06467676 87.86629811 30.05102539 91.8347168 C30.05117142 92.96773727 30.05131744 94.10075775 30.0514679 95.26811218 C30.05077702 98.97433456 30.04302362 102.68050526 30.03515625 106.38671875 C30.03328913 108.97174553 30.03186662 111.55677267 30.03086853 114.14179993 C30.02745407 120.2259064 30.01959068 126.30999187 30.00951904 132.39409047 C29.99829331 139.32770565 29.99283126 146.26132176 29.98782361 153.19494379 C29.97740606 167.44247227 29.95984713 181.68998548 29.9375 195.9375 C31.82149823 196.25451711 33.70564162 196.57067164 35.58984375 196.88647461 C36.63906006 197.06262802 37.68827637 197.23878143 38.76928711 197.42027283 C43.48194279 198.18963829 48.20604778 198.85788039 52.9375 199.5 C54.3598999 199.69396362 54.3598999 199.69396362 55.81103516 199.8918457 C62.50987897 200.78781463 69.18943952 201.52464398 75.9375 201.9375 C76.5767536 215.50388199 73.52157728 225.25115757 66.25 236.5625 C55.13353961 247.97940527 42.10090233 250.41360052 26.9375 251.9375 C26.8950415 252.83871582 26.85258301 253.73993164 26.80883789 254.66845703 C26.17105993 266.4522344 24.85479814 278.10752183 23.375 289.8125 C23.18100616 291.35735077 23.18100616 291.35735077 22.98309326 292.93341064 C16.96175538 340.59679482 8.80088929 388.00556252 -2.11328125 434.79589844 C-3.18884289 439.45148735 -4.20293126 444.12014238 -5.21875 448.7890625 C-9.43530179 468.10427584 -14.01291991 487.09807157 -20.0625 505.9375 C-20.38041504 506.95118652 -20.69833008 507.96487305 -21.02587891 509.00927734 C-35.40274111 554.79495164 -56.77988626 609.37824977 -101.5078125 633.3828125 C-132.47426211 649.19786672 -167.61009501 649.61607618 -200.50488281 639.5456543 C-228.03869306 630.59207108 -252.51843119 615.06350087 -274.0625 595.9375 C-275.0525 595.06996094 -276.0425 594.20242188 -277.0625 593.30859375 C-318.94516827 556.03529523 -338.70679561 497.3807801 -350.0625 443.9375 C-350.3925 443.9375 -350.7225 443.9375 -351.0625 443.9375 C-351.15225098 444.78417236 -351.24200195 445.63084473 -351.33447266 446.50317383 C-355.93207004 489.20128405 -363.83862972 531.01883875 -375.25 572.4375 C-375.44815308 573.16250702 -375.64630615 573.88751404 -375.85046387 574.63449097 C-379.57264692 588.16820435 -383.73072379 601.83134136 -390.75 614.0625 C-391.17514893 614.81055908 -391.60029785 615.55861816 -392.03833008 616.3293457 C-406.68766849 641.44593742 -429.68990238 662.5725672 -457.94555664 670.84033203 C-486.96169464 678.39176902 -516.66049187 669.86038831 -541.89941406 655.24414062 C-552.66815917 648.73913794 -562.57089705 641.22379011 -571.55273438 632.41210938 C-573.16872726 630.83374633 -574.81021541 629.28467413 -576.453125 627.734375 C-589.33866829 615.40519616 -599.95337741 601.24466474 -609.0625 585.9375 C-609.4656543 585.26138672 -609.86880859 584.58527344 -610.28417969 583.88867188 C-616.9232258 572.63138077 -622.37142732 561.12820232 -627.0625 548.9375 C-627.63436035 547.46603516 -627.63436035 547.46603516 -628.21777344 545.96484375 C-656.93910651 471.25697657 -666.5597119 388.55322873 -671.1875 309.125 C-671.26315186 307.82957275 -671.33880371 306.53414551 -671.41674805 305.19946289 C-672.78663405 280.03535353 -673.27056577 254.88324808 -673.25 229.6875 C-673.24973312 228.94920834 -673.24946625 228.21091667 -673.24919128 227.45025253 C-673.23810347 202.90518282 -672.9616925 178.42101362 -671.0625 153.9375 C-670.99697937 153.09241882 -670.93145874 152.24733765 -670.86395264 151.37664795 C-664.38078437 69.20139734 -664.38078437 69.20139734 -643.5546875 50.7109375 C-621.01993186 31.67411408 -597.97449431 21.68255402 -568.0625 23.9375 C-552.59569299 25.84353773 -537.14843874 34.13010244 -526.0625 44.9375 C-525.12535156 45.82953125 -524.18820312 46.7215625 -523.22265625 47.640625 C-520.27145996 52.14480162 -520.84714238 54.91428972 -521.6875 60.0625 C-524.44176372 79.14792741 -524.22289583 98.45430602 -524.23046875 117.6953125 C-524.23454804 120.26652559 -524.23883036 122.83773837 -524.24330139 125.40895081 C-524.25386337 132.9229878 -524.25419387 140.43699554 -524.25084877 147.95103788 C-524.24999722 150.06942085 -524.2495469 152.18780357 -524.24919128 154.30618668 C-524.24073315 195.1628437 -524.10884235 235.97718691 -522.24932861 276.80053711 C-522.08054096 280.51154354 -521.92003219 284.22287385 -521.76098251 287.93430901 C-517.10813801 422.01469896 -517.10813801 422.01469896 -475.0625 601.9375 C-472.33371811 604.31435565 -471.45753882 604.90768575 -467.75 605.1875 C-460.29062691 602.65889895 -457.13878194 595.47201007 -453.75 588.75 C-444.09581248 567.38333049 -438.48190698 544.55811871 -432.80429077 521.89953232 C-432.32248187 519.97732336 -431.83863061 518.0556267 -431.35473633 516.13394165 C-425.1225636 491.277176 -419.33338757 466.24311332 -416.4375 440.75 C-416.33955139 439.91775909 -416.24160278 439.08551819 -416.14068604 438.22805786 C-410.20752953 387.62701101 -407.89398278 336.57436774 -406 285.6875 C-405.95801483 284.5920285 -405.91602966 283.49655701 -405.87277222 282.3678894 C-405.33973171 268.22264253 -405.0158942 254.08838875 -404.87278748 239.93457031 C-404.80504186 233.25178194 -404.70927655 226.56944457 -404.60976505 219.88706207 C-404.52874747 214.23226784 -404.48754029 208.57895372 -404.47554588 202.92361641 C-404.45873912 199.36251951 -404.40484782 195.80262645 -404.34181213 192.24207687 C-404.32006171 190.58476069 -404.31341927 188.92716092 -404.32362366 187.26973343 C-404.41458193 169.94287946 -396.95454533 160.22816138 -385.0625 147.9375 C-384.25619141 147.00357422 -384.25619141 147.00357422 -383.43359375 146.05078125 C-375.74020594 137.47043645 -363.95005554 132.11512758 -353.0625 128.9375 C-352.33675781 128.71320313 -351.61101562 128.48890625 -350.86328125 128.2578125 C-325.75158885 121.85937081 -298.01885299 130.87384655 -276.0625 142.9375 C-263.58207494 150.41792506 -263.58207494 150.41792506 -259.0625 154.9375 C-258.80421448 157.19772339 -258.80421448 157.19772339 -258.79125977 160.06591797 C-258.78093216 161.14669617 -258.77060455 162.22747437 -258.75996399 163.34100342 C-258.75796494 164.52526917 -258.75596588 165.70953491 -258.75390625 166.9296875 C-258.73120654 169.47542689 -258.70807633 172.02116246 -258.68457031 174.56689453 C-258.67508144 175.92514881 -258.66584887 177.28340491 -258.65686035 178.6416626 C-258.02148617 268.31732157 -245.09949131 357.23685786 -162.0625 578.9375 C-158.1011549 582.32114894 -154.63993881 583.81467208 -149.48828125 584.15234375 C-142.76521479 583.55690308 -137.48956129 579.76585673 -132.9375 575 C-120.6381486 560.00862188 -113.08684009 540.39218721 -107.125 522.125 C-106.87303864 521.36148224 -106.62107727 520.59796448 -106.36148071 519.81130981 C-100.64303821 502.41395786 -96.09746323 484.79270202 -92.0625 466.9375 C-91.9045697 466.24730774 -91.7466394 465.55711548 -91.58392334 464.8460083 C-76.32732877 398.10163224 -72.17525358 328.37028234 -66 260.3125 C-65.84359039 258.61087708 -65.84359039 258.61087708 -65.684021 256.87487793 C-62.49733587 238.47537624 -62.49733587 238.47537624 -65.86694336 221.52075195 C-67.34136783 220.08179295 -68.86925192 218.69676558 -70.4296875 217.3515625 C-95.16457132 194.67180256 -105.73749847 154.51827686 -112.0625 122.9375 C-112.31128906 121.70257813 -112.56007813 120.46765625 -112.81640625 119.1953125 C-118.51494924 84.68525498 -113.82169952 43.30801407 -93.15625 14.2578125 C-82.02375666 -0.27627603 -67.51900265 -9.96952133 -49.28515625 -12.609375 C-30.63565301 -14.81257183 -14.98537611 -11.91750383 0 0 Z M-83.0625 11.9375 C-83.67480469 12.51628906 -84.28710938 13.09507813 -84.91796875 13.69140625 C-105.67693206 34.92540305 -108.59689547 69.82372868 -108.484375 97.75341797 C-108.25814235 109.44756205 -106.74121287 120.56622118 -104.0625 131.9375 C-103.84819336 132.8543457 -103.63388672 133.77119141 -103.41308594 134.71582031 C-95.73069528 166.68664255 -82.32573565 198.93797454 -58.0625 221.9375 C-57.4025 221.9375 -56.7425 221.9375 -56.0625 221.9375 C-56.3925 222.5975 -56.7225 223.2575 -57.0625 223.9375 C-57.37374335 226.61583278 -57.6338936 229.28114831 -57.859375 231.96704102 C-57.93303913 232.80447531 -58.00670326 233.6419096 -58.08259964 234.50472069 C-58.24383189 236.34218217 -58.40323522 238.1798048 -58.5610733 240.01756096 C-58.81655815 242.98859851 -59.0772781 245.95913397 -59.33953857 248.92958069 C-59.71758355 253.21175934 -60.09429665 257.49405165 -60.47009277 261.77642822 C-63.50031623 296.23312283 -66.70552 330.6639686 -70.53253174 365.04206467 C-70.80772738 367.51953413 -71.08021469 369.99728807 -71.35205078 372.47512817 C-74.45945893 400.7198253 -78.0179209 428.93707026 -83.9375 456.75 C-84.19194885 457.96171371 -84.19194885 457.96171371 -84.45153809 459.19790649 C-85.6255285 464.78440436 -86.83273262 470.36303423 -88.0625 475.9375 C-88.34319336 477.21463867 -88.62388672 478.49177734 -88.91308594 479.80761719 C-108.60965322 567.68275516 -108.60965322 567.68275516 -140.01953125 587.87890625 C-144.92918632 590.4229149 -150.06587487 590.71642408 -155.421875 589.32421875 C-173.33902024 583.00870327 -181.62580464 564.35992341 -189.43457031 548.39990234 C-226.47755911 469.61410943 -246.01416772 380.58813525 -262.8125 237.1875 C-262.87707397 236.28771423 -262.94164795 235.38792847 -263.00817871 234.46087646 C-263.82964158 222.60717256 -264.12398666 210.81541403 -264.078125 198.93359375 C-264.07954702 196.36621082 -264.08117401 193.79882799 -264.08300781 191.23144531 C-264.08380451 186.23920395 -264.00937682 181.25539214 -263.89355469 176.26464844 C-263.35905528 164.9204581 -263.35905528 164.9204581 -267.30786133 154.71386719 C-270.15800587 152.57975431 -272.75798082 151.23660061 -276.0625 149.9375 C-277.40729935 149.17728294 -278.74572687 148.40555582 -280.07421875 147.6171875 C-281.29296354 147.00253177 -282.51835011 146.40086986 -283.75 145.8125 C-284.421521 145.48612549 -285.09304199 145.15975098 -285.78491211 144.82348633 C-306.62834989 134.89538313 -330.0183773 128.52799453 -352.98046875 134.8359375 C-367.79110141 140.12947161 -379.2075788 148.75130712 -389.0625 160.9375 C-389.82304687 161.76507813 -390.58359375 162.59265625 -391.3671875 163.4453125 C-397.17519556 170.86550785 -397.60945607 177.37708998 -397.7265625 186.53125 C-397.77227048 188.46789537 -397.81798354 190.40454062 -397.86387062 192.34118176 C-397.91014574 194.42559504 -397.94831487 196.5100192 -397.98425293 198.59463501 C-398.06103313 203.00718162 -398.16358903 207.41890445 -398.27050781 211.83081055 C-398.42316169 218.19826887 -398.56841973 224.56584679 -398.70849609 230.93359375 C-402.95785796 422.70370784 -402.95785796 422.70370784 -459.23828125 607.44140625 C-462.26510662 609.92379194 -464.46841067 610.8702446 -468.375 611.3125 C-473.83530968 610.75721427 -477.09447902 609.03104396 -480.77734375 605.11328125 C-528.22570049 543.46269528 -520.60976866 421.46499063 -527.96456146 281.26981354 C-528.05854766 279.03162113 -528.15380232 276.79348601 -528.24932861 274.55535889 C-529.96023895 234.23268149 -530.26150166 193.91646181 -530.30747986 153.56022263 C-530.3124278 149.80479976 -530.32033958 146.04939239 -530.32873535 142.29397583 C-530.45848297 74.85176328 -530.45848297 74.85176328 -527.45709229 56.16902161 C-526.75298875 53.01392784 -526.75298875 53.01392784 -528.22265625 50.8203125 C-543.34976104 36.84249493 -561.32508466 28.69277004 -582.11865234 28.96435547 C-606.48429164 30.10216539 -628.20096224 44.18353186 -645.0625 60.9375 C-645.63572998 61.48543213 -646.20895996 62.03336426 -646.79956055 62.59790039 C-652.02705797 67.97524587 -653.7459159 72.99618399 -655.25 80.25 C-655.49210205 81.34175537 -655.7342041 82.43351074 -655.98364258 83.55834961 C-660.74279885 105.73876808 -663.14975847 128.2795778 -664.90106201 150.87237549 C-665.05658104 152.86178436 -665.21978927 154.85058756 -665.38330078 156.83935547 C-669.44812206 208.38077387 -668.51603484 261.3928037 -665.0625 312.9375 C-664.99933594 313.8933197 -664.93617188 314.8491394 -664.87109375 315.83392334 C-660.03837648 388.2195589 -651.11783239 462.7234168 -626.91552734 531.50537109 C-626.09004153 533.85897432 -625.28841339 536.21971249 -624.48828125 538.58203125 C-617.57718465 558.56697226 -608.32233077 577.68820322 -596.0625 594.9375 C-595.31484375 595.99710938 -594.5671875 597.05671875 -593.796875 598.1484375 C-569.78568543 631.05585917 -536.71496706 658.81030055 -495.71386719 666.55810547 C-481.78449079 668.55131458 -467.26937287 667.83460234 -454.0625 662.9375 C-452.89847656 662.525 -451.73445312 662.1125 -450.53515625 661.6875 C-424.0521819 651.38693981 -402.74072244 627.24318648 -391.08349609 601.80078125 C-384.81203019 587.11049952 -381.05812832 571.35665576 -377.0625 555.9375 C-376.75812012 554.76396973 -376.45374023 553.59043945 -376.14013672 552.38134766 C-363.89692445 504.63215116 -356.59605118 456.21685817 -355.0625 406.9375 C-353.4125 406.6075 -351.7625 406.2775 -350.0625 405.9375 C-349.91554688 407.20078125 -349.76859375 408.4640625 -349.6171875 409.765625 C-341.30773059 477.48351508 -317.54707959 554.29157565 -262.2578125 598.4921875 C-229.28850799 623.97133732 -188.09583819 645.03747858 -145.09765625 640.50390625 C-116.71144994 636.78078284 -90.23939962 623.95383616 -72.3125 601.125 C-70.51867114 598.75925399 -68.7814606 596.35803714 -67.0625 593.9375 C-66.6401709 593.35129883 -66.2178418 592.76509766 -65.78271484 592.16113281 C-13.11943606 518.4770524 0.18866884 409.64321579 18.375 282.0625 C18.50087494 281.03819885 18.62674988 280.01389771 18.75643921 278.95855713 C20.0970301 267.9636403 21.31450238 257.00014077 21.9375 245.9375 C22.56116455 245.9686792 23.1848291 245.9998584 23.82739258 246.03198242 C36.609901 246.563947 49.57155356 243.53331376 59.25390625 234.86328125 C65.39277881 228.38524446 68.84507989 222.08593127 69.53515625 213.1484375 C69.61386963 212.1692334 69.69258301 211.1900293 69.77368164 210.18115234 C69.8277417 209.44074707 69.88180176 208.7003418 69.9375 207.9375 C68.9902002 207.80174561 68.04290039 207.66599121 67.06689453 207.52612305 C63.50602348 207.01375457 59.94668508 206.49132797 56.38769531 205.96606445 C54.85586055 205.74137176 53.32363857 205.51930089 51.79101562 205.30004883 C31.98796317 202.46273159 31.98796317 202.46273159 24.9375 198.9375 C24.93511165 198.33933157 24.93272329 197.74116314 24.93026257 197.12486839 C24.87071571 182.46287093 24.79491957 167.80101685 24.70178509 153.1391964 C24.65712109 146.04837928 24.61764194 138.95760911 24.59106445 131.86669922 C24.56784279 125.67484204 24.53418488 119.48313721 24.48879844 113.29140151 C24.46518563 110.0232603 24.44781082 106.75529391 24.43988609 103.48707199 C24.38834487 84.16106221 23.9360277 64.5485207 18.125 45.9375 C17.86565674 45.07705078 17.60631348 44.21660156 17.33911133 43.33007812 C11.64372212 24.92032201 2.96495447 6.97129548 -14.4921875 -2.7734375 C-37.55274854 -14.33876447 -65.78402105 -5.52511905 -83.0625 11.9375 Z " fill="#000000" transform="translate(673.0625,62.0625)"/>
<path d="M0 0 C6.517904 4.68956663 12.55343845 10.81246164 14 19 C14.7992898 30.25557271 13.99078008 38.31915226 6.75 47.25 C2.47095723 51.8603235 -2.66218838 55.94186102 -9 57 C-11.59373914 57.06898242 -14.15810197 57.09434752 -16.75 57.0625 C-17.44738281 57.05798828 -18.14476563 57.05347656 -18.86328125 57.04882812 C-20.57555803 57.0371002 -22.28779033 57.01916653 -24 57 C-24 59.64 -24 62.28 -24 65 C-24.99 65 -25.98 65 -27 65 C-27 61.7 -27 58.4 -27 55 C-27.72058594 54.92007813 -28.44117187 54.84015625 -29.18359375 54.7578125 C-35.53953979 53.04761343 -41.26737675 46.77224933 -44.5625 41.1875 C-47.98323368 33.60239488 -48.29008021 24.37792472 -46.3515625 16.296875 C-42.8581449 7.75740977 -36.29102985 0.98311331 -28 -3 C-19.23447434 -5.98563756 -7.6962579 -5.12579848 0 0 Z " fill="#000000" transform="translate(87,141)"/>
<path d="M0 0 C3.7093922 3.42818615 6.085362 6.57039403 8.3125 11.09375 C8.9121337 12.29067809 9.51191169 13.48753389 10.11181641 14.68432617 C10.41935852 15.30681244 10.72690063 15.92929871 11.04376221 16.57064819 C23.48179487 41.6662269 38.44032442 64.97514613 57 86 C57.79277344 86.91523437 58.58554688 87.83046875 59.40234375 88.7734375 C63.95824543 93.96015633 68.65230707 98.63929738 74 103 C74.99515625 103.83273437 75.9903125 104.66546875 77.015625 105.5234375 C102.13446649 126.19506889 130.35066648 136.27014061 163 134 C195.91891242 130.464134 225.01667346 112.72292483 250 92 C252.04132649 90.3329167 254.08299658 88.66625406 256.125 87 C257.75045282 85.66721874 259.37562145 84.33409037 261 83 C258.03 82.34 255.06 81.68 252 81 C252 80.01 252 79.02 252 78 C257.61 78 263.22 78 269 78 C269 83.61 269 89.22 269 95 C267.68 95 266.36 95 265 95 C265 92.03 265 89.06 265 86 C263.4160238 87.29087824 261.83287215 88.58276822 260.25 89.875 C259.239375 90.69871094 258.22875 91.52242187 257.1875 92.37109375 C255.14243586 94.04732485 253.13048804 95.74782754 251.125 97.47265625 C238.82724008 108.01598031 225.31420593 116.46319087 211 124 C210.39220703 124.32097656 209.78441406 124.64195312 209.15820312 124.97265625 C181.10367199 139.53298837 148.31823272 143.85568999 117.92333984 134.35058594 C97.52051503 127.4167543 79.92577432 115.42504331 64.5703125 100.5234375 C63.02599392 99.02521798 61.46677231 97.54380798 59.90625 96.0625 C53.08312911 89.50302704 47.10008375 82.50826473 41.44042969 74.92773438 C40.46081045 73.61670497 39.47419805 72.31087821 38.48144531 71.00976562 C25.66959893 54.19870738 15.4714403 35.94859002 5.6875 17.25 C5.12998047 16.18450928 4.57246094 15.11901855 3.99804688 14.02124023 C3.48693359 13.02938721 2.97582031 12.03753418 2.44921875 11.015625 C1.99893311 10.14196289 1.54864746 9.26830078 1.0847168 8.36816406 C0.09706224 6.21190722 -0.63260184 4.33999513 -1 2 C-0.67 1.34 -0.34 0.68 0 0 Z " fill="#000000" transform="translate(29,630)"/>
<path d="M0 0 C2.71128217 2.71883449 3.61584324 5.0454875 3.61328125 8.7578125 C3.48453104 14.17901831 2.2799399 19.18225689 0.90234375 24.40625 C0.64155029 25.42428711 0.38075684 26.44232422 0.11206055 27.49121094 C-2.49628387 37.47526141 -5.4658691 47.35204455 -8.49975586 57.21362305 C-10.78792907 64.66717736 -12.85777539 72.13253156 -14.66015625 79.71875 C-18.56849926 78.415969 -19.95206086 76.02609695 -22.22265625 72.78125 C-22.87584839 71.8516748 -22.87584839 71.8516748 -23.54223633 70.90332031 C-36.06483389 52.69598945 -49.24192798 29.57422395 -46.66015625 6.71875 C-45.01244772 2.17413997 -42.11375116 -0.26700905 -37.97265625 -2.59375 C-25.92521455 -7.80831432 -10.77712343 -8.31740349 0 0 Z M-39.66015625 6.71875 C-42.81657086 13.03157922 -40.73228577 21.4139702 -38.72265625 27.78125 C-31.55818665 49.86440251 -31.55818665 49.86440251 -17.66015625 66.71875 C-16.16209371 61.74376004 -14.66903569 56.76730257 -13.18017578 51.78955078 C-12.67529262 50.10393898 -12.1691518 48.41870325 -11.66162109 46.73388672 C-9.0886294 38.18951628 -6.55386456 29.63515154 -4.30078125 21 C-3.8217334 19.1756543 -3.8217334 19.1756543 -3.33300781 17.31445312 C-2.5691883 13.2326194 -2.36980421 9.8625667 -2.66015625 5.71875 C-7.6912164 0.93924286 -13.84885696 -0.05453232 -20.53515625 -0.59375 C-27.60831138 -0.38448506 -34.59005344 1.64864719 -39.66015625 6.71875 Z " fill="#000000" transform="translate(657.66015625,138.28125)"/>
<path d="M0 0 C2.891184 1.30765383 4.01510609 3.13796466 5.796875 5.73828125 C6.41046875 6.61097656 7.0240625 7.48367188 7.65625 8.3828125 C9.046875 10.92578125 9.046875 10.92578125 9.046875 14.92578125 C7.296875 14.80078125 7.296875 14.80078125 5.046875 13.92578125 C3.66742961 11.9573026 2.33002869 9.95833983 1.046875 7.92578125 C0.87148193 8.73917969 0.69608887 9.55257813 0.51538086 10.390625 C-15.99663706 86.47321095 -15.99663706 86.47321095 -37.953125 101.92578125 C-43.1706386 104.64796226 -48.35228306 104.30113593 -53.953125 102.92578125 C-67.99773025 97.21198222 -76.04693226 83.65620709 -82.953125 70.92578125 C-83.29585449 70.29542969 -83.63858398 69.66507813 -83.99169922 69.015625 C-89.87633376 58.04073933 -94.61201143 46.58872822 -98.953125 34.92578125 C-99.26040527 34.1147998 -99.56768555 33.30381836 -99.88427734 32.46826172 C-100.31087646 31.28514404 -100.31087646 31.28514404 -100.74609375 30.078125 C-101.00285889 29.37550537 -101.25962402 28.67288574 -101.52416992 27.94897461 C-102.0194793 25.61281706 -101.69553124 24.17126878 -100.953125 21.92578125 C-99.963125 22.25578125 -98.973125 22.58578125 -97.953125 22.92578125 C-96.88500977 25.13696289 -96.88500977 25.13696289 -95.89453125 28.0859375 C-95.51490234 29.17817627 -95.13527344 30.27041504 -94.74414062 31.39575195 C-94.33873047 32.58128662 -93.93332031 33.76682129 -93.515625 34.98828125 C-80.55349244 71.59465118 -80.55349244 71.59465118 -53.453125 97.98828125 C-48.8344434 99.22542811 -45.49549422 99.58092559 -40.953125 97.92578125 C-17.99045398 83.41365842 -12.01450524 44.95342618 -6.515625 20.67578125 C-6.35167236 19.95575928 -6.18771973 19.2357373 -6.01879883 18.49389648 C-5.24556022 14.91556086 -4.77569172 11.5880042 -4.953125 7.92578125 C-7.263125 9.24578125 -9.573125 10.56578125 -11.953125 11.92578125 C-12.943125 10.44078125 -12.943125 10.44078125 -13.953125 8.92578125 C-12.51664236 7.7994825 -11.07889915 6.67479135 -9.640625 5.55078125 C-8.84011719 4.92429687 -8.03960938 4.2978125 -7.21484375 3.65234375 C-2.3151924 -0.08797731 -2.3151924 -0.08797731 0 0 Z " fill="#000000" transform="translate(574.953125,488.07421875)"/>
<path d="M0 0 C14.34917988 10.17424991 30.7548297 22.80291355 40.67529297 37.48217773 C40.34529297 38.47217773 40.01529297 39.46217773 39.67529297 40.48217773 C36.2823146 39.91547043 34.97124484 39.04066193 32.86279297 36.35717773 C12.33766235 11.99720318 -17.74245096 -12.79557244 -50.79589844 -15.73779297 C-70.54757547 -16.63800853 -86.2998135 -12.18717601 -101.56689453 0.81811523 C-110.93775126 9.87041593 -118.24345134 21.01037687 -124.32470703 32.48217773 C-124.32470703 33.14217773 -124.32470703 33.80217773 -124.32470703 34.48217773 C-123.21095703 34.13155273 -122.09720703 33.78092773 -120.94970703 33.41967773 C-117.32470703 32.48217773 -117.32470703 32.48217773 -115.32470703 33.48217773 C-116.35657124 36.36532772 -117.03145322 37.32717215 -119.78564453 38.78295898 C-120.74728516 39.11682617 -121.70892578 39.45069336 -122.69970703 39.79467773 C-123.65619141 40.14143555 -124.61267578 40.48819336 -125.59814453 40.84545898 C-129.91646986 41.85389312 -129.91646986 41.85389312 -132.32470703 40.48217773 C-133.48518225 38.12244535 -134.33928159 36.02192934 -135.13720703 33.54467773 C-135.36601563 32.89821289 -135.59482422 32.25174805 -135.83056641 31.58569336 C-136.40050822 29.90724087 -136.8699187 28.19542145 -137.32470703 26.48217773 C-136.99470703 25.82217773 -136.66470703 25.16217773 -136.32470703 24.48217773 C-134.44970703 25.10717773 -134.44970703 25.10717773 -132.32470703 26.48217773 C-131.59821847 28.46123277 -130.92601517 30.46156571 -130.32470703 32.48217773 C-129.86322266 31.70616211 -129.40173828 30.93014648 -128.92626953 30.13061523 C-115.08681281 7.21072446 -100.41738814 -11.64069153 -73.58642578 -19.63110352 C-47.8844483 -25.75786143 -20.8694629 -14.32337893 0 0 Z " fill="#000000" transform="translate(684.32470703125,49.517822265625)"/>
<path d="M0 0 C4.20763224 1.5027258 5.8027758 4.23332995 8 8 C8 8.66 8 9.32 8 10 C6.0625 9.6875 6.0625 9.6875 4 9 C3.505 7.515 3.505 7.515 3 6 C2.34 6 1.68 6 1 6 C0.9071875 6.99 0.9071875 6.99 0.8125 8 C-1.65030072 17.09341803 -8.61087233 23.58983069 -16.3828125 28.5078125 C-27.65992176 34.56336635 -39.46850871 35.53881568 -52 36 C-52.495 34.515 -52.495 34.515 -53 33 C-52.4016333 32.93530518 -51.8032666 32.87061035 -51.18676758 32.80395508 C-28.12386742 30.35513915 -28.12386742 30.35513915 -9 18 C-4.74376482 13.01621866 -4.74376482 13.01621866 -3 7 C-4.65 7.33 -6.3 7.66 -8 8 C-6.49776416 3.79373966 -3.71449966 2.26099979 0 0 Z " fill="#000000" transform="translate(756,298)"/>
<path d="M0 0 C1.4540625 0.0309375 1.4540625 0.0309375 2.9375 0.0625 C5.0625 4.6875 5.0625 4.6875 3.9375 8.0625 C4.26300502 9.73071323 4.59596063 11.39749557 4.9375 13.0625 C4.6075 13.7225 4.2775 14.3825 3.9375 15.0625 C1.125 15.9375 1.125 15.9375 -2.0625 16.0625 C-4.4375 14.125 -4.4375 14.125 -6.0625 12.0625 C-2.43923261 10.8547442 -1.42103631 11.51938872 1.9375 13.0625 C1.9375 11.7425 1.9375 10.4225 1.9375 9.0625 C0.6175 9.0625 -0.7025 9.0625 -2.0625 9.0625 C-2.0625 8.0725 -2.0625 7.0825 -2.0625 6.0625 C-0.7425 6.0625 0.5775 6.0625 1.9375 6.0625 C1.6075 5.0725 1.2775 4.0825 0.9375 3.0625 C-1.0425 3.7225 -3.0225 4.3825 -5.0625 5.0625 C-3.9375 0.08035714 -3.9375 0.08035714 0 0 Z " fill="#000000" transform="translate(646.0625,3.9375)"/>
<path d="M0 0 C3.0625 0.1875 3.0625 0.1875 5.0625 2.1875 C4.90004442 5.92397845 4.47466356 7.71288742 2 10.5625 C1.360625 11.09875 0.72125 11.635 0.0625 12.1875 C1.7125 12.5175 3.3625 12.8475 5.0625 13.1875 C5.0625 13.8475 5.0625 14.5075 5.0625 15.1875 C1.7625 15.1875 -1.5375 15.1875 -4.9375 15.1875 C-2.9375 11.1875 -2.9375 11.1875 -0.8125 8.625 C1.36735538 6.30372611 1.36735538 6.30372611 1.0625 3.1875 C0.4025 3.1875 -0.2575 3.1875 -0.9375 3.1875 C-1.2675 3.8475 -1.5975 4.5075 -1.9375 5.1875 C-2.9275 5.1875 -3.9175 5.1875 -4.9375 5.1875 C-3.82120474 0.24390669 -3.82120474 0.24390669 0 0 Z " fill="#000000" transform="translate(530.9375,512.8125)"/>
<path d="M0 0 C0.99 0 1.98 0 3 0 C3 3.3 3 6.6 3 10 C3.66 10 4.32 10 5 10 C5 10.66 5 11.32 5 12 C4.34 12 3.68 12 3 12 C3 12.99 3 13.98 3 15 C2.34 15 1.68 15 1 15 C1 14.01 1 13.02 1 12 C-1.31 12 -3.62 12 -6 12 C-5.56629155 7.2292071 -3.35665609 3.36635741 0 0 Z M0 4 C-0.99 5.98 -1.98 7.96 -3 10 C-1.68 10 -0.36 10 1 10 C1 8.02 1 6.04 1 4 C0.67 4 0.34 4 0 4 Z " fill="#000000" transform="translate(740,335)"/>
<path d="M0 0 C0.53625 0.474375 1.0725 0.94875 1.625 1.4375 C4.42842836 3.28186076 6.69620258 3.62456847 10 4 C10 4.99 10 5.98 10 7 C8.35 7 6.7 7 5 7 C4.93941406 7.62648438 4.87882813 8.25296875 4.81640625 8.8984375 C4.73261719 9.71570313 4.64882813 10.53296875 4.5625 11.375 C4.48128906 12.18710937 4.40007813 12.99921875 4.31640625 13.8359375 C4 16 4 16 3 18 C2.01 17.67 1.02 17.34 0 17 C0.09539063 16.16855469 0.19078125 15.33710938 0.2890625 14.48046875 C0.39992188 13.39378906 0.51078125 12.30710937 0.625 11.1875 C0.74101563 10.10855469 0.85703125 9.02960938 0.9765625 7.91796875 C1.27460156 4.80375668 1.27460156 4.80375668 -1 2 C-0.67 1.34 -0.34 0.68 0 0 Z " fill="#000000" transform="translate(662,274)"/>
<path d="M0 0 C0 4.95 0 9.9 0 15 C-0.99 15 -1.98 15 -3 15 C-3 11.37 -3 7.74 -3 4 C-3.99 4.33 -4.98 4.66 -6 5 C-5.625 3.0625 -5.625 3.0625 -5 1 C-3 0 -3 0 0 0 Z " fill="#000000" transform="translate(148,790)"/>
<path d="M0 0 C0 4.95 0 9.9 0 15 C-0.99 15 -1.98 15 -3 15 C-3 11.37 -3 7.74 -3 4 C-3.99 4.33 -4.98 4.66 -6 5 C-5.625 3.0625 -5.625 3.0625 -5 1 C-3 0 -3 0 0 0 Z " fill="#000000" transform="translate(518,513)"/>
<path d="M0 0 C0 4.95 0 9.9 0 15 C-0.99 15 -1.98 15 -3 15 C-3 11.37 -3 7.74 -3 4 C-3.99 4.33 -4.98 4.66 -6 5 C-5.625 3.0625 -5.625 3.0625 -5 1 C-3 0 -3 0 0 0 Z " fill="#000000" transform="translate(726,335)"/>
<path d="M0 0 C0 4.95 0 9.9 0 15 C-0.99 15 -1.98 15 -3 15 C-3 11.37 -3 7.74 -3 4 C-3.99 4.33 -4.98 4.66 -6 5 C-5.625 3.0625 -5.625 3.0625 -5 1 C-3 0 -3 0 0 0 Z " fill="#000000" transform="translate(633,4)"/>
<path d="M0 0 C0 4.95 0 9.9 0 15 C-0.66 15 -1.32 15 -2 15 C-2.33 11.37 -2.66 7.74 -3 4 C-3.99 4.33 -4.98 4.66 -6 5 C-6 4.01 -6 3.02 -6 2 C-3 0 -3 0 0 0 Z " fill="#000000" transform="translate(160,790)"/>
<path d="M0 0 C5.94 0.99 5.94 0.99 12 2 C12 2.99 12 3.98 12 5 C10.20793453 4.85915204 8.41635083 4.71216299 6.625 4.5625 C5.62726562 4.48128906 4.62953125 4.40007812 3.6015625 4.31640625 C1 4 1 4 -1 3 C-0.67 2.01 -0.34 1.02 0 0 Z " fill="#000000" transform="translate(684,280)"/>
<path d="M0 0 C3.36295835 1.44126786 5.62927102 3.20592655 8 6 C8 6.99 8 7.98 8 9 C3.75177626 8.52797514 1.80010291 6.03344482 -1 3 C-0.67 2.01 -0.34 1.02 0 0 Z " fill="#000000" transform="translate(633,247)"/>
<path d="M0 0 C1.32 0.33 2.64 0.66 4 1 C2.02 3.31 0.04 5.62 -2 8 C-3.32 7.67 -4.64 7.34 -6 7 C-4.02 4.69 -2.04 2.38 0 0 Z " fill="#000000" transform="translate(603,91)"/>
<path d="M0 0 C0.66 0.33 1.32 0.66 2 1 C0.64486335 5.06540996 -1.30796918 5.97300269 -5 8 C-7.375 7.75 -7.375 7.75 -9 7 C-6.25604436 4.05278838 -3.61662784 1.80831392 0 0 Z " fill="#000000" transform="translate(559,660)"/>
<path d="M0 0 C3.5786304 1.65167557 6.74820188 3.78286492 10 6 C9.67 6.99 9.34 7.98 9 9 C5.4213696 7.34832443 2.25179812 5.21713508 -1 3 C-0.67 2.01 -0.34 1.02 0 0 Z " fill="#000000" transform="translate(474,657)"/>
<path d="M0 0 C0.99 0.33 1.98 0.66 3 1 C1.51218185 4.78717347 -0.61988409 6.77407001 -4 9 C-4.99 8.67 -5.98 8.34 -7 8 C-6.02133662 6.85373678 -5.04205413 5.70800212 -4.0625 4.5625 C-3.51722656 3.92441406 -2.97195313 3.28632812 -2.41015625 2.62890625 C-1.63204305 1.73008851 -0.84063472 0.84063472 0 0 Z " fill="#000000" transform="translate(574,647)"/>
<path d="M0 0 C3.78717347 1.48781815 5.77407001 3.61988409 8 7 C7.67 7.99 7.34 8.98 7 10 C3.46766245 8.82255415 3.13691925 8.04394359 1.3125 4.9375 C0.87550781 4.20402344 0.43851562 3.47054687 -0.01171875 2.71484375 C-0.50091797 1.86599609 -0.50091797 1.86599609 -1 1 C-0.67 0.67 -0.34 0.34 0 0 Z " fill="#000000" transform="translate(446,627)"/>
<path d="M0 0 C0.66 0 1.32 0 2 0 C1.56179109 4.55737263 1.14958831 7.57653445 -2 11 C-2.99 10.67 -3.98 10.34 -5 10 C-3.33333333 6.66666667 -1.66666667 3.33333333 0 0 Z " fill="#000000" transform="translate(600,615)"/>
<path d="M0 0 C0.99 0 1.98 0 3 0 C4.19287411 3.87684087 5 6.91621923 5 11 C4.01 11 3.02 11 2 11 C0.80712589 7.12315913 0 4.08378077 0 0 Z " fill="#000000" transform="translate(390,476)"/>
<path d="M0 0 C0.99 0 1.98 0 3 0 C4.42258812 3.82320557 5.24042276 6.91281305 5 11 C4.01 11 3.02 11 2 11 C1.34 7.37 0.68 3.74 0 0 Z " fill="#000000" transform="translate(370,398)"/>
<path d="M0 0 C0.66 0.33 1.32 0.66 2 1 C0.52440331 5.42679007 -1.90057368 5.91432696 -6 8 C-6.66 8 -7.32 8 -8 8 C-7.9375 6.25 -7.9375 6.25 -7 4 C-4.74876994 2.27481113 -2.59865097 1.23093993 0 0 Z " fill="#000000" transform="translate(224,689)"/>
<path d="M0 0 C0.66 0.99 1.32 1.98 2 3 C-5.28571429 6.57142857 -5.28571429 6.57142857 -10 5 C-9 3 -9 3 -6.93359375 2.1484375 C-5.69802734 1.76558594 -5.69802734 1.76558594 -4.4375 1.375 C-3.61121094 1.11460937 -2.78492188 0.85421875 -1.93359375 0.5859375 C-1.29550781 0.39257812 -0.65742187 0.19921875 0 0 Z " fill="#000000" transform="translate(541,670)"/>
<path d="M0 0 C3.9492568 0.55105909 7.34920174 1.38935371 11 3 C11 3.99 11 4.98 11 6 C6.64477147 5.49357808 3.55760365 4.61588503 0 2 C0 1.34 0 0.68 0 0 Z " fill="#000000" transform="translate(491,669)"/>
<path d="M0 0 C0.99 0.33 1.98 0.66 3 1 C0.89851796 4.98175544 -1.36905358 7.35039045 -5 10 C-5 4.69520066 -3.4637943 3.81017373 0 0 Z " fill="#000000" transform="translate(588,632)"/>
<path d="M0 0 C0.99 0 1.98 0 3 0 C4.65 2.97 6.3 5.94 8 9 C6.68 9 5.36 9 4 9 C0 4 0 4 0 0 Z " fill="#000000" transform="translate(434,610)"/>
<path d="M0 0 C1.890625 0.21484375 1.890625 0.21484375 4 1 C5.046875 3.06640625 5.046875 3.06640625 5.75 5.5625 C5.99234375 6.38878906 6.2346875 7.21507812 6.484375 8.06640625 C6.65453125 8.70449219 6.8246875 9.34257813 7 10 C6.01 10.33 5.02 10.66 4 11 C3.32880451 9.5437455 2.66318193 8.08492133 2 6.625 C1.62875 5.81289063 1.2575 5.00078125 0.875 4.1640625 C0 2 0 2 0 0 Z " fill="#000000" transform="translate(425,592)"/>
<path d="M0 0 C1.32 0.33 2.64 0.66 4 1 C4.66 3.97 5.32 6.94 6 10 C5.01 10 4.02 10 3 10 C2.01 6.7 1.02 3.4 0 0 Z " fill="#000000" transform="translate(418,573)"/>
<path d="M0 0 C0.99 0 1.98 0 3 0 C3.99 3.3 4.98 6.6 6 10 C5.01 10.33 4.02 10.66 3 11 C2.49384702 9.73160474 1.99530901 8.46016898 1.5 7.1875 C1.2215625 6.47980469 0.943125 5.77210938 0.65625 5.04296875 C0 3 0 3 0 0 Z " fill="#000000" transform="translate(412,554)"/>
<path d="M0 0 C0.99 0 1.98 0 3 0 C3.66 3.63 4.32 7.26 5 11 C4.01 11 3.02 11 2 11 C0.80712589 7.12315913 0 4.08378077 0 0 Z " fill="#000000" transform="translate(90,547)"/>
<path d="M0 0 C0.66 0 1.32 0 2 0 C2.99 3.63 3.98 7.26 5 11 C3.68 10.67 2.36 10.34 1 10 C0.63883954 8.5225254 0.28624952 7.04295325 -0.0625 5.5625 C-0.25972656 4.73878906 -0.45695312 3.91507813 -0.66015625 3.06640625 C-0.82837891 2.04353516 -0.82837891 2.04353516 -1 1 C-0.67 0.67 -0.34 0.34 0 0 Z " fill="#000000" transform="translate(407,534)"/>
<path d="M0 0 C0.99 0 1.98 0 3 0 C4.42258812 3.82320557 5.24042276 6.91281305 5 11 C4.01 11 3.02 11 2 11 C1.34 7.37 0.68 3.74 0 0 Z " fill="#000000" transform="translate(356,339)"/>
<path d="M0 0 C0.99 0 1.98 0 3 0 C3.50615298 1.26839526 4.00469099 2.53983102 4.5 3.8125 C4.91765625 4.87404297 4.91765625 4.87404297 5.34375 5.95703125 C6 8 6 8 6 11 C5.01 11 4.02 11 3 11 C2.49384702 9.73160474 1.99530901 8.46016898 1.5 7.1875 C1.2215625 6.47980469 0.943125 5.77210937 0.65625 5.04296875 C0 3 0 3 0 0 Z " fill="#000000" transform="translate(664,95)"/>
<path d="M0 0 C1.22589844 0.01353516 1.22589844 0.01353516 2.4765625 0.02734375 C3.41628906 0.04474609 3.41628906 0.04474609 4.375 0.0625 C4.375 1.0525 4.375 2.0425 4.375 3.0625 C0.745 3.3925 -2.885 3.7225 -6.625 4.0625 C-6.625 3.0725 -6.625 2.0825 -6.625 1.0625 C-4.21954362 -0.14022819 -2.67503047 -0.03821472 0 0 Z " fill="#000000" transform="translate(637.625,75.9375)"/>
<path d="M0 0 C3.3 0.99 6.6 1.98 10 3 C10 3.99 10 4.98 10 6 C8.54096742 5.69078116 7.08279278 5.37751201 5.625 5.0625 C4.81289062 4.88847656 4.00078125 4.71445312 3.1640625 4.53515625 C1 4 1 4 -1 3 C-0.67 2.01 -0.34 1.02 0 0 Z " fill="#000000" transform="translate(178,694)"/>
<path d="M0 0 C3.11198065 1.49836105 6.0534615 3.19933758 9 5 C8.67 5.99 8.34 6.98 8 8 C4.54074837 6.7508258 1.85306797 5.32472205 -1 3 C-0.67 2.01 -0.34 1.02 0 0 Z " fill="#000000" transform="translate(161,684)"/>
<path d="M0 0 C0.66 0.33 1.32 0.66 2 1 C0.83242263 4.32310483 -0.14948857 6.83361132 -3 9 C-3.99 9 -4.98 9 -6 9 C-5.52797514 4.75177626 -3.03344482 2.80010291 0 0 Z " fill="#000000" transform="translate(238,676)"/>
<path d="M0 0 C2.53910197 0.38520564 3.72751123 0.70097943 5.484375 2.62890625 C5.90203125 3.26699219 6.3196875 3.90507813 6.75 4.5625 C7.17796875 5.20316406 7.6059375 5.84382812 8.046875 6.50390625 C8.36140625 6.99761719 8.6759375 7.49132812 9 8 C5 8 5 8 2.25 5.6875 C0 3 0 3 0 0 Z " fill="#000000" transform="translate(146,671)"/>
<path d="M0 0 C0.99 0 1.98 0 3 0 C2.43454163 3.95820859 1.19097652 6.6659053 -1 10 C-1.99 9.67 -2.98 9.34 -4 9 C-2.68 6.03 -1.36 3.06 0 0 Z " fill="#000000" transform="translate(258,643)"/>
<path d="M0 0 C4.04648443 1.34882814 4.95502599 3.34826069 7 7 C6.67 7.99 6.34 8.98 6 10 C5.34 10 4.68 10 4 10 C2.35 7.03 0.7 4.06 -1 1 C-0.67 0.67 -0.34 0.34 0 0 Z " fill="#000000" transform="translate(122,640)"/>
<path d="M0 0 C2 1 2 1 2.8515625 3.06640625 C3.10679688 3.89011719 3.36203125 4.71382812 3.625 5.5625 C3.88539062 6.38878906 4.14578125 7.21507812 4.4140625 8.06640625 C4.60742188 8.70449219 4.80078125 9.34257813 5 10 C4.01 10.33 3.02 10.66 2 11 C0.68 7.7 -0.64 4.4 -2 1 C-1.34 0.67 -0.68 0.34 0 0 Z " fill="#000000" transform="translate(114,622)"/>
<path d="M0 0 C2.3129482 2.3129482 2.49580975 3.47904875 3.125 6.625 C3.29257813 7.44226563 3.46015625 8.25953125 3.6328125 9.1015625 C3.81457031 10.04128906 3.81457031 10.04128906 4 11 C3.01 11 2.02 11 1 11 C0.01 7.7 -0.98 4.4 -2 1 C-1.34 0.67 -0.68 0.34 0 0 Z " fill="#000000" transform="translate(101,585)"/>
<path d="M0 0 C0.99 0 1.98 0 3 0 C2.85892253 1.45880109 2.71197585 2.91703551 2.5625 4.375 C2.48128906 5.18710937 2.40007813 5.99921875 2.31640625 6.8359375 C2 9 2 9 1 11 C0.01 11 -0.98 11 -2 11 C-1.34 7.37 -0.68 3.74 0 0 Z " fill="#000000" transform="translate(616,537)"/>
<path d="M0 0 C0.99 0 1.98 0 3 0 C3.33 3.63 3.66 7.26 4 11 C3.01 11 2.02 11 1 11 C-0.17571451 7.32589215 -0.07366746 3.83070817 0 0 Z " fill="#000000" transform="translate(80,489)"/>
<path d="M0 0 C0.99 0 1.98 0 3 0 C2.85892253 1.45880109 2.71197585 2.91703551 2.5625 4.375 C2.48128906 5.18710937 2.40007813 5.99921875 2.31640625 6.8359375 C2 9 2 9 1 11 C0.01 11 -0.98 11 -2 11 C-1.34 7.37 -0.68 3.74 0 0 Z " fill="#000000" transform="translate(627,478)"/>
<path d="M0 0 C0.99 0 1.98 0 3 0 C3.66 3.3 4.32 6.6 5 10 C4.01 10.33 3.02 10.66 2 11 C0.80712589 7.12315913 0 4.08378077 0 0 Z " fill="#000000" transform="translate(385,457)"/>
<path d="M0 0 C0.99 0 1.98 0 3 0 C3.66 3.63 4.32 7.26 5 11 C4.01 11 3.02 11 2 11 C0.80712589 7.12315913 0 4.08378077 0 0 Z " fill="#000000" transform="translate(380,437)"/>
<path d="M0 0 C0.99 0 1.98 0 3 0 C2.67 3.63 2.34 7.26 2 11 C1.01 11 0.02 11 -1 11 C-0.67 7.37 -0.34 3.74 0 0 Z " fill="#000000" transform="translate(641,399)"/>
<path d="M0 0 C0.99 0.33 1.98 0.66 3 1 C3.66 4.3 4.32 7.6 5 11 C3.68 10.67 2.36 10.34 1 10 C0.63883954 8.5225254 0.28624952 7.04295325 -0.0625 5.5625 C-0.25972656 4.73878906 -0.45695312 3.91507812 -0.66015625 3.06640625 C-0.82837891 2.04353516 -0.82837891 2.04353516 -1 1 C-0.67 0.67 -0.34 0.34 0 0 Z " fill="#000000" transform="translate(366,378)"/>
<path d="M0 0 C0.99 0 1.98 0 3 0 C2.67 3.63 2.34 7.26 2 11 C1.01 11 0.02 11 -1 11 C-0.67 7.37 -0.34 3.74 0 0 Z " fill="#000000" transform="translate(314,375)"/>
<path d="M0 0 C0.99 0 1.98 0 3 0 C2.34 3.63 1.68 7.26 1 11 C0.01 11 -0.98 11 -2 11 C-1.85892253 9.54119891 -1.71197585 8.08296449 -1.5625 6.625 C-1.48128906 5.81289063 -1.40007813 5.00078125 -1.31640625 4.1640625 C-1 2 -1 2 0 0 Z " fill="#000000" transform="translate(649,360)"/>
<path d="M0 0 C0.99 0 1.98 0 3 0 C3 3.63 3 7.26 3 11 C2.01 11 1.02 11 0 11 C0 7.37 0 3.74 0 0 Z " fill="#000000" transform="translate(66,352)"/>
<path d="M0 0 C0.99 0 1.98 0 3 0 C3.66 3.63 4.32 7.26 5 11 C4.01 11 3.02 11 2 11 C0.57741188 7.17679443 -0.24042276 4.08718695 0 0 Z " fill="#000000" transform="translate(352,319)"/>
<path d="M0 0 C0.99 0 1.98 0 3 0 C3.66 3.63 4.32 7.26 5 11 C4.01 11 3.02 11 2 11 C0.80712589 7.12315913 0 4.08378077 0 0 Z " fill="#000000" transform="translate(343,280)"/>
<path d="M0 0 C0.99 0 1.98 0 3 0 C4.42258812 3.82320557 5.24042276 6.91281305 5 11 C4.01 11 3.02 11 2 11 C1.34 7.37 0.68 3.74 0 0 Z " fill="#000000" transform="translate(338,260)"/>
<path d="M0 0 C0.99 0 1.98 0 3 0 C3 3.63 3 7.26 3 11 C2.01 11 1.02 11 0 11 C0 7.37 0 3.74 0 0 Z " fill="#000000" transform="translate(61,254)"/>
<path d="M0 0 C0.99 0.33 1.98 0.66 3 1 C2.67 4.3 2.34 7.6 2 11 C1.01 11 0.02 11 -1 11 C-1.125 3.375 -1.125 3.375 0 0 Z " fill="#000000" transform="translate(670,239)"/>
<path d="M0 0 C0.99 0 1.98 0 3 0 C3 3.63 3 7.26 3 11 C2.01 11 1.02 11 0 11 C0 7.37 0 3.74 0 0 Z " fill="#000000" transform="translate(674,177)"/>
<path d="M0 0 C0.99 0 1.98 0 3 0 C3.66 3.63 4.32 7.26 5 11 C4.01 11 3.02 11 2 11 C1.34 7.37 0.68 3.74 0 0 Z " fill="#000000" transform="translate(670,115)"/>
<path d="M0 0 C3.98175544 2.10148204 6.35039045 4.36905358 9 8 C3.69520066 8 2.81017373 6.4637943 -1 3 C-0.67 2.01 -0.34 1.02 0 0 Z " fill="#000000" transform="translate(652,79)"/>
<path d="M0 0 C3.63 0 7.26 0 11 0 C11 0.99 11 1.98 11 3 C7.7 3 4.4 3 1 3 C0.67 2.01 0.34 1.02 0 0 Z " fill="#000000" transform="translate(511,675)"/>
<path d="M0 0 C0.99 0.33 1.98 0.66 3 1 C1.68 3.64 0.36 6.28 -1 9 C-2.32 9 -3.64 9 -5 9 C-3.35 6.03 -1.7 3.06 0 0 Z " fill="#000000" transform="translate(249,660)"/>
<path d="M0 0 C2.37948772 0.17625835 3.70225849 0.69719773 5.37890625 2.40234375 C6.62115486 3.90649092 7.81376056 5.45129851 9 7 C8.67 7.66 8.34 8.32 8 9 C4.20620942 7.50958227 2.31656242 5.30937488 0 2 C0 1.34 0 0.68 0 0 Z " fill="#000000" transform="translate(133,656)"/>
<path d="M0 0 C4.2742558 1.5830577 6.26531794 4.50568404 9 8 C5 8 5 8 3.296875 6.46875 C2.78640625 5.8190625 2.2759375 5.169375 1.75 4.5 C1.22921875 3.8503125 0.7084375 3.200625 0.171875 2.53125 C-0.21484375 2.0259375 -0.6015625 1.520625 -1 1 C-0.67 0.67 -0.34 0.34 0 0 Z " fill="#000000" transform="translate(459,643)"/>
<path d="M0 0 C0.99 0.33 1.98 0.66 3 1 C2.57742724 2.4835001 2.13643678 3.96176424 1.6875 5.4375 C1.44386719 6.26121094 1.20023437 7.08492187 0.94921875 7.93359375 C0.63597656 8.61550781 0.32273437 9.29742188 0 10 C-0.99 10.33 -1.98 10.66 -3 11 C-2.44894091 7.0507432 -1.61064629 3.65079826 0 0 Z " fill="#000000" transform="translate(266,624)"/>
<path d="M0 0 C0.99 0 1.98 0 3 0 C2.54177532 3.46941546 2.10868317 6.67395049 1 10 C0.01 10 -0.98 10 -2 10 C-1.54177532 6.53058454 -1.10868317 3.32604951 0 0 Z " fill="#000000" transform="translate(272,606)"/>
<path d="M0 0 C0.66 0 1.32 0 2 0 C5.07692308 6.4 5.07692308 6.4 4.6875 9.4375 C4.460625 9.953125 4.23375 10.46875 4 11 C0.55783328 8.3401439 0.00495326 5.09711714 -1 1 C-0.67 0.67 -0.34 0.34 0 0 Z " fill="#000000" transform="translate(106,604)"/>
<path d="M0 0 C0.99 0 1.98 0 3 0 C2.85892253 1.45880109 2.71197585 2.91703551 2.5625 4.375 C2.48128906 5.18710937 2.40007813 5.99921875 2.31640625 6.8359375 C2 9 2 9 1 11 C0.01 10.67 -0.98 10.34 -2 10 C-1.34 6.7 -0.68 3.4 0 0 Z " fill="#000000" transform="translate(604,596)"/>
<path d="M0 0 C0.66 0 1.32 0 2 0 C1.67 3.63 1.34 7.26 1 11 C0.01 11 -0.98 11 -2 11 C-1.85957123 9.35369672 -1.71250671 7.70795821 -1.5625 6.0625 C-1.48128906 5.14597656 -1.40007813 4.22945312 -1.31640625 3.28515625 C-1 1 -1 1 0 0 Z " fill="#000000" transform="translate(609,576)"/>
<path d="M0 0 C0.99 0.66 1.98 1.32 3 2 C2.34 4.97 1.68 7.94 1 11 C0.01 11 -0.98 11 -2 11 C-1.85892253 9.54119891 -1.71197585 8.08296449 -1.5625 6.625 C-1.48128906 5.81289063 -1.40007812 5.00078125 -1.31640625 4.1640625 C-1 2 -1 2 0 0 Z " fill="#000000" transform="translate(283,567)"/>
<path d="M0 0 C0.99 0.33 1.98 0.66 3 1 C2.34 4.3 1.68 7.6 1 11 C0.01 11 -0.98 11 -2 11 C-1.85892253 9.54119891 -1.71197585 8.08296449 -1.5625 6.625 C-1.48128906 5.81289063 -1.40007812 5.00078125 -1.31640625 4.1640625 C-1 2 -1 2 0 0 Z " fill="#000000" transform="translate(287,548)"/>
<path d="M0 0 C0.99 0 1.98 0 3 0 C3.66 3.3 4.32 6.6 5 10 C4.01 10.33 3.02 10.66 2 11 C1.34 7.37 0.68 3.74 0 0 Z " fill="#000000" transform="translate(86,528)"/>
<path d="M0 0 C0.99 0.33 1.98 0.66 3 1 C3.66 4.3 4.32 7.6 5 11 C4.01 11 3.02 11 2 11 C0.57741188 7.17679443 -0.24042276 4.08718695 0 0 Z " fill="#000000" transform="translate(401,515)"/>
<path d="M0 0 C2.56616632 3.84924948 2.55097676 6.4349304 3 11 C2.01 11 1.02 11 0 11 C-0.66 7.7 -1.32 4.4 -2 1 C-1.34 0.67 -0.68 0.34 0 0 Z " fill="#000000" transform="translate(397,495)"/>
<path d="M0 0 C0.66 0 1.32 0 2 0 C2.14285714 7.42857143 2.14285714 7.42857143 1 11 C0.01 11 -0.98 11 -2 11 C-1.85957123 9.35369672 -1.71250671 7.70795821 -1.5625 6.0625 C-1.48128906 5.14597656 -1.40007813 4.22945313 -1.31640625 3.28515625 C-1 1 -1 1 0 0 Z " fill="#000000" transform="translate(631,458)"/>
<path d="M0 0 C0.99 0 1.98 0 3 0 C2.67 3.3 2.34 6.6 2 10 C1.01 10.33 0.02 10.66 -1 11 C-1.14285714 3.57142857 -1.14285714 3.57142857 0 0 Z " fill="#000000" transform="translate(302,452)"/>
<path d="M0 0 C0.99 0 1.98 0 3 0 C2.34 3.63 1.68 7.26 1 11 C0.01 11 -0.98 11 -2 11 C-1.85892253 9.54119891 -1.71197585 8.08296449 -1.5625 6.625 C-1.48128906 5.81289063 -1.40007813 5.00078125 -1.31640625 4.1640625 C-1 2 -1 2 0 0 Z " fill="#000000" transform="translate(638,419)"/>
<path d="M0 0 C0.66 0 1.32 0 2 0 C2.66 3.63 3.32 7.26 4 11 C3.01 11 2.02 11 1 11 C0.63890458 9.35567294 0.28629924 7.7094792 -0.0625 6.0625 C-0.25972656 5.14597656 -0.45695312 4.22945313 -0.66015625 3.28515625 C-0.77230469 2.53105469 -0.88445312 1.77695312 -1 1 C-0.67 0.67 -0.34 0.34 0 0 Z " fill="#000000" transform="translate(376,417)"/>
<path d="M0 0 C0.99 0 1.98 0 3 0 C4.28317892 3.84953676 4.06643637 6.94738135 4 11 C3.01 11 2.02 11 1 11 C0.67 7.37 0.34 3.74 0 0 Z " fill="#000000" transform="translate(70,411)"/>
<path d="M0 0 C0.99 0.33 1.98 0.66 3 1 C2.67 4.3 2.34 7.6 2 11 C1.01 11 0.02 11 -1 11 C-0.67 7.37 -0.34 3.74 0 0 Z " fill="#000000" transform="translate(311,394)"/>
<path d="M0 0 C0.99 0.33 1.98 0.66 3 1 C3 4.3 3 7.6 3 11 C2.01 11 1.02 11 0 11 C0 7.37 0 3.74 0 0 Z " fill="#000000" transform="translate(69,391)"/>
<path d="M0 0 C0.99 0 1.98 0 3 0 C2.67 3.63 2.34 7.26 2 11 C1.01 10.67 0.02 10.34 -1 10 C-0.67 6.7 -0.34 3.4 0 0 Z " fill="#000000" transform="translate(317,356)"/>
<path d="M0 0 C0.66 0 1.32 0 2 0 C1.67 3.63 1.34 7.26 1 11 C0.01 11 -0.98 11 -2 11 C-1.85957123 9.35369672 -1.71250671 7.70795821 -1.5625 6.0625 C-1.48128906 5.14597656 -1.40007813 4.22945313 -1.31640625 3.28515625 C-1 1 -1 1 0 0 Z " fill="#000000" transform="translate(653,340)"/>
<path d="M0 0 C0.99 0 1.98 0 3 0 C4.62950412 4.12168689 5.26264601 6.70700357 4 11 C3.34 10.67 2.68 10.34 2 10 C1.3671875 7.71484375 1.3671875 7.71484375 0.875 4.9375 C0.70742188 4.01839844 0.53984375 3.09929687 0.3671875 2.15234375 C0.24601562 1.44207031 0.12484375 0.73179687 0 0 Z " fill="#000000" transform="translate(347,300)"/>
<path d="M0 0 C0.99 0.33 1.98 0.66 3 1 C2.34 4.3 1.68 7.6 1 11 C0.01 11 -0.98 11 -2 11 C-1.85892253 9.54119891 -1.71197585 8.08296449 -1.5625 6.625 C-1.48128906 5.81289063 -1.40007812 5.00078125 -1.31640625 4.1640625 C-1 2 -1 2 0 0 Z " fill="#000000" transform="translate(330,279)"/>
<path d="M0 0 C4.2742558 1.5830577 6.26531794 4.50568404 9 8 C5 8 5 8 3.296875 6.46875 C2.78640625 5.8190625 2.2759375 5.169375 1.75 4.5 C1.22921875 3.8503125 0.7084375 3.200625 0.171875 2.53125 C-0.21484375 2.0259375 -0.6015625 1.520625 -1 1 C-0.67 0.67 -0.34 0.34 0 0 Z " fill="#000000" transform="translate(647,261)"/>
<path d="M0 0 C0.99 0 1.98 0 3 0 C2.67 3.63 2.34 7.26 2 11 C1.01 11 0.02 11 -1 11 C-0.67 7.37 -0.34 3.74 0 0 Z " fill="#000000" transform="translate(667,260)"/>
<path d="M0 0 C0.99 0 1.98 0 3 0 C2.67 3.63 2.34 7.26 2 11 C1.01 11 0.02 11 -1 11 C-0.67 7.37 -0.34 3.74 0 0 Z " fill="#000000" transform="translate(672,219)"/>
<path d="M0 0 C0.66 0 1.32 0 2 0 C3.32421875 1.42578125 3.32421875 1.42578125 4.6875 3.3125 C5.14511719 3.92738281 5.60273437 4.54226562 6.07421875 5.17578125 C6.53248047 6.07876953 6.53248047 6.07876953 7 7 C6.67 7.99 6.34 8.98 6 10 C3.03595495 7.19195732 0.55500981 4.81684226 -1 1 C-0.67 0.67 -0.34 0.34 0 0 Z " fill="#000000" transform="translate(607,217)"/>
<path d="M0 0 C1.8125 0.125 1.8125 0.125 4 1 C5.95320589 4.20883825 7 6.2205439 7 10 C6.01 10 5.02 10 4 10 C3.32845067 8.71086513 2.66291141 7.41859796 2 6.125 C1.62875 5.40570313 1.2575 4.68640625 0.875 3.9453125 C0 2 0 2 0 0 Z " fill="#000000" transform="translate(596,200)"/>
<path d="M0 0 C0.66 0 1.32 0 2 0 C2 3.63 2 7.26 2 11 C1.01 11 0.02 11 -1 11 C-1.02688151 9.35425434 -1.04634123 7.70838587 -1.0625 6.0625 C-1.07410156 5.14597656 -1.08570313 4.22945312 -1.09765625 3.28515625 C-1 1 -1 1 0 0 Z " fill="#000000" transform="translate(674,198)"/>
<path d="M0 0 C0.99 0 1.98 0 3 0 C3.99 3.3 4.98 6.6 6 10 C4.68 9.67 3.36 9.34 2 9 C1.34 6.03 0.68 3.06 0 0 Z " fill="#000000" transform="translate(589,182)"/>
<path d="M0 0 C1.32 0.33 2.64 0.66 4 1 C4.33 3.97 4.66 6.94 5 10 C4.01 10 3.02 10 2 10 C1.34 6.7 0.68 3.4 0 0 Z " fill="#000000" transform="translate(583,163)"/>
<path d="M0 0 C0.99 0 1.98 0 3 0 C3.33 3.63 3.66 7.26 4 11 C3.01 11 2.02 11 1 11 C0.67 7.37 0.34 3.74 0 0 Z " fill="#000000" transform="translate(581,143)"/>
<path d="M0 0 C0.99 0 1.98 0 3 0 C4.17571451 3.67410785 4.07366746 7.16929183 4 11 C3.01 11 2.02 11 1 11 C0.67 7.37 0.34 3.74 0 0 Z " fill="#000000" transform="translate(673,136)"/>
<path d="M0 0 C0.99 0 1.98 0 3 0 C2.67 3.63 2.34 7.26 2 11 C1.01 10.67 0.02 10.34 -1 10 C-0.67 6.7 -0.34 3.4 0 0 Z " fill="#000000" transform="translate(583,124)"/>
<path d="M0 0 C0.99 0.33 1.98 0.66 3 1 C1.66666667 4.33333333 0.33333333 7.66666667 -1 11 C-1.99 10.67 -2.98 10.34 -4 10 C-2.8905928 6.51329166 -1.73662334 3.22515763 0 0 Z " fill="#000000" transform="translate(591,105)"/>
<path d="M0 0 C-0.125 1.8125 -0.125 1.8125 -1 4 C-4.20883825 5.95320589 -6.2205439 7 -10 7 C-10 6.01 -10 5.02 -10 4 C-8.71086513 3.32845067 -7.41859796 2.66291141 -6.125 2 C-5.40570312 1.62875 -4.68640625 1.2575 -3.9453125 0.875 C-2 0 -2 0 0 0 Z " fill="#000000" transform="translate(623,80)"/>
<path d="M0 0 C0.66 0.99 1.32 1.98 2 3 C-0.40545638 4.20272819 -1.94996953 4.10071472 -4.625 4.0625 C-5.85089844 4.04896484 -5.85089844 4.04896484 -7.1015625 4.03515625 C-8.04128906 4.01775391 -8.04128906 4.01775391 -9 4 C-9 3.01 -9 2.02 -9 1 C-4.545 0.505 -4.545 0.505 0 0 Z " fill="#000000" transform="translate(206,697)"/>
<path d="M0 0 C0.99 0 1.98 0 3 0 C2.67 3.3 2.34 6.6 2 10 C1.01 10 0.02 10 -1 10 C-0.67 6.7 -0.34 3.4 0 0 Z " fill="#000000" transform="translate(612,557)"/>
<path d="M0 0 C0.99 0 1.98 0 3 0 C2.85892253 1.45880109 2.71197585 2.91703551 2.5625 4.375 C2.48128906 5.18710937 2.40007812 5.99921875 2.31640625 6.8359375 C2 9 2 9 1 11 C0.01 10.67 -0.98 10.34 -2 10 C-1.34 6.7 -0.68 3.4 0 0 Z " fill="#000000" transform="translate(290,529)"/>
<path d="M0 0 C0.99 0.33 1.98 0.66 3 1 C2.34 4.3 1.68 7.6 1 11 C0.01 11 -0.98 11 -2 11 C-1.34 7.37 -0.68 3.74 0 0 Z " fill="#000000" transform="translate(620,517)"/>
<path d="M0 0 C0.99 0 1.98 0 3 0 C2.67 3.3 2.34 6.6 2 10 C1.01 10 0.02 10 -1 10 C-0.67 6.7 -0.34 3.4 0 0 Z " fill="#000000" transform="translate(623,498)"/>
<path d="M0 0 C0.99 0.33 1.98 0.66 3 1 C2.67 3.97 2.34 6.94 2 10 C1.01 10.33 0.02 10.66 -1 11 C-1.14285714 3.57142857 -1.14285714 3.57142857 0 0 Z " fill="#000000" transform="translate(299,471)"/>
<path d="M0 0 C0.99 0.33 1.98 0.66 3 1 C3.33 3.97 3.66 6.94 4 10 C3.01 10.33 2.02 10.66 1 11 C-0.20272819 8.59454362 -0.10071472 7.05003047 -0.0625 4.375 C-0.05347656 3.55773437 -0.04445313 2.74046875 -0.03515625 1.8984375 C-0.02355469 1.27195312 -0.01195313 0.64546875 0 0 Z " fill="#000000" transform="translate(75,450)"/>
<path d="M0 0 C0.99 0 1.98 0 3 0 C2.88590407 1.45922693 2.75834456 2.91740598 2.625 4.375 C2.55539062 5.18710937 2.48578125 5.99921875 2.4140625 6.8359375 C2 9 2 9 0 11 C-0.66 10.34 -1.32 9.68 -2 9 C-1.7578125 6.8359375 -1.7578125 6.8359375 -1.125 4.375 C-0.92132812 3.55773437 -0.71765625 2.74046875 -0.5078125 1.8984375 C-0.34023438 1.27195312 -0.17265625 0.64546875 0 0 Z " fill="#000000" transform="translate(634,439)"/>
<path d="M0 0 C0.99 0 1.98 0 3 0 C3.33 3.3 3.66 6.6 4 10 C3.01 10.33 2.02 10.66 1 11 C0.67 7.37 0.34 3.74 0 0 Z " fill="#000000" transform="translate(67,372)"/>
<path d="M0 0 C0.99 0 1.98 0 3 0 C3.66 3.3 4.32 6.6 5 10 C4.01 10.33 3.02 10.66 2 11 C0.80712589 7.12315913 0 4.08378077 0 0 Z " fill="#000000" transform="translate(361,359)"/>
<path d="M0 0 C0.99 0 1.98 0 3 0 C2.67 3.3 2.34 6.6 2 10 C1.01 10 0.02 10 -1 10 C-0.67 6.7 -0.34 3.4 0 0 Z " fill="#000000" transform="translate(656,321)"/>
<path d="M0 0 C0.99 0 1.98 0 3 0 C4.17571451 3.67410785 4.07366746 7.16929183 4 11 C3.01 11 2.02 11 1 11 C0.67 7.37 0.34 3.74 0 0 Z " fill="#000000" transform="translate(63,313)"/>
<path d="M0 0 C0.99 0 1.98 0 3 0 C2.67 3.3 2.34 6.6 2 10 C1.01 10.33 0.02 10.66 -1 11 C-0.67 7.37 -0.34 3.74 0 0 Z " fill="#000000" transform="translate(660,301)"/>
<path d="M0 0 C0.66 0 1.32 0 2 0 C2.14285714 7.42857143 2.14285714 7.42857143 1 11 C0.01 11 -0.98 11 -2 11 C-1.85957123 9.35369672 -1.71250671 7.70795821 -1.5625 6.0625 C-1.48128906 5.14597656 -1.40007812 4.22945313 -1.31640625 3.28515625 C-1 1 -1 1 0 0 Z " fill="#000000" transform="translate(327,298)"/>
<path d="M0 0 C0.99 0 1.98 0 3 0 C2.34 3.63 1.68 7.26 1 11 C0.01 10.67 -0.98 10.34 -2 10 C-1.34 6.7 -0.68 3.4 0 0 Z " fill="#000000" transform="translate(333,260)"/>
<path d="M0 0 C0.66 0 1.32 0 2 0 C3.20272819 2.40545638 3.10071472 3.94996953 3.0625 6.625 C3.05347656 7.44226563 3.04445313 8.25953125 3.03515625 9.1015625 C3.02355469 9.72804687 3.01195313 10.35453125 3 11 C2.01 11 1.02 11 0 11 C0 7.37 0 3.74 0 0 Z " fill="#000000" transform="translate(61,234)"/>
<path d="M0 0 C3.36591866 1.44253657 5.51047079 3.33264727 8 6 C7.67 6.99 7.34 7.98 7 9 C6.34 9 5.68 9 5 9 C3.4921875 7.25 3.4921875 7.25 1.875 5 C1.33617187 4.2575 0.79734375 3.515 0.2421875 2.75 C-0.37269531 1.88375 -0.37269531 1.88375 -1 1 C-0.67 0.67 -0.34 0.34 0 0 Z " fill="#000000" transform="translate(619,233)"/>
<path d="M0 0 C0.99 0 1.98 0 3 0 C2.71758359 1.46015291 2.42373386 2.91809793 2.125 4.375 C1.96257812 5.18710937 1.80015625 5.99921875 1.6328125 6.8359375 C1 9 1 9 -1 11 C-2.26264601 6.70700357 -1.62950412 4.12168689 0 0 Z " fill="#000000" transform="translate(278,587)"/>
<path d="M0 0 C2.39763185 2.39763185 2.34280586 3.33273498 2.625 6.625 C2.69976562 7.44226563 2.77453125 8.25953125 2.8515625 9.1015625 C2.92503906 10.04128906 2.92503906 10.04128906 3 11 C2.01 10.67 1.02 10.34 0 10 C-0.73046875 7.93359375 -0.73046875 7.93359375 -1.1875 5.4375 C-1.34605469 4.61121094 -1.50460938 3.78492188 -1.66796875 2.93359375 C-1.83232422 1.97646484 -1.83232422 1.97646484 -2 1 C-1.34 0.67 -0.68 0.34 0 0 Z " fill="#000000" transform="translate(96,566)"/>
<path d="M0 0 C0.99 0 1.98 0 3 0 C2.67 2.97 2.34 5.94 2 9 C0.68 9.33 -0.64 9.66 -2 10 C-1.34 6.7 -0.68 3.4 0 0 Z " fill="#000000" transform="translate(293,510)"/>
<path d="M0 0 C0.99 0 1.98 0 3 0 C3.33 3.3 3.66 6.6 4 10 C3.01 10 2.02 10 1 10 C0.67 6.7 0.34 3.4 0 0 Z " fill="#000000" transform="translate(83,509)"/>
<path d="M0 0 C0.99 0 1.98 0 3 0 C3.33 3.3 3.66 6.6 4 10 C3.01 10 2.02 10 1 10 C0.67 6.7 0.34 3.4 0 0 Z " fill="#000000" transform="translate(77,470)"/>
<path d="M0 0 C0.99 0 1.98 0 3 0 C2.67 3.3 2.34 6.6 2 10 C1.01 10 0.02 10 -1 10 C-0.67 6.7 -0.34 3.4 0 0 Z " fill="#000000" transform="translate(305,433)"/>
<path d="M0 0 C0.99 0 1.98 0 3 0 C4.60725635 3.21451269 4.05748185 6.43612536 4 10 C3.01 10 2.02 10 1 10 C0.67 6.7 0.34 3.4 0 0 Z " fill="#000000" transform="translate(72,431)"/>
<path d="M0 0 C0.99 0 1.98 0 3 0 C2.34 3.63 1.68 7.26 1 11 C0.01 10.34 -0.98 9.68 -2 9 C-1.34 6.03 -0.68 3.06 0 0 Z " fill="#000000" transform="translate(645,380)"/>
<path d="M0 0 C0.99 0 1.98 0 3 0 C2.67 3.3 2.34 6.6 2 10 C1.01 10 0.02 10 -1 10 C-0.67 6.7 -0.34 3.4 0 0 Z " fill="#000000" transform="translate(320,337)"/>
<path d="M0 0 C0.66 0 1.32 0 2 0 C3.28317892 3.84953676 3.06643637 6.94738135 3 11 C2.01 11 1.02 11 0 11 C0 7.37 0 3.74 0 0 Z " fill="#000000" transform="translate(63,293)"/>
<path d="M0 0 C0.99 0 1.98 0 3 0 C3 3.3 3 6.6 3 10 C2.01 10 1.02 10 0 10 C0 6.7 0 3.4 0 0 Z " fill="#000000" transform="translate(62,274)"/>
<path d="M0 0 C0.99 0 1.98 0 3 0 C3 3.3 3 6.6 3 10 C2.01 10 1.02 10 0 10 C0 6.7 0 3.4 0 0 Z " fill="#000000" transform="translate(60,215)"/>
<path d="M0 0 C0.99 0 1.98 0 3 0 C2.67 2.97 2.34 5.94 2 9 C1.01 9.33 0.02 9.66 -1 10 C-1.125 3.375 -1.125 3.375 0 0 Z " fill="#000000" transform="translate(296,491)"/>
<path d="M0 0 C0.99 0 1.98 0 3 0 C2.67 3.3 2.34 6.6 2 10 C1.01 10 0.02 10 -1 10 C-0.67 6.7 -0.34 3.4 0 0 Z " fill="#000000" transform="translate(308,414)"/>
<path d="M0 0 C0.99 0 1.98 0 3 0 C4.60725635 3.21451269 4.05748185 6.43612536 4 10 C3.01 10 2.02 10 1 10 C0.67 6.7 0.34 3.4 0 0 Z " fill="#000000" transform="translate(64,333)"/>
<path d="M0 0 C0.99 0 1.98 0 3 0 C2.67 3.3 2.34 6.6 2 10 C1.01 10 0.02 10 -1 10 C-0.67 6.7 -0.34 3.4 0 0 Z " fill="#000000" transform="translate(323,318)"/>
<path d="M0 0 C0.66 0 1.32 0 2 0 C2 3.96 2 7.92 2 12 C1.34 12 0.68 12 0 12 C0 8.04 0 4.08 0 0 Z " fill="#000000" transform="translate(675,156)"/>
<path d="M0 0 C0.99 0 1.98 0 3 0 C3.33 1.98 3.66 3.96 4 6 C2.35 6 0.7 6 -1 6 C-0.67 4.02 -0.34 2.04 0 0 Z " fill="#000000" transform="translate(335,245)"/>
<path d="M0 0 C2.31 0.33 4.62 0.66 7 1 C7 1.99 7 2.98 7 4 C4.69 3.67 2.38 3.34 0 3 C0 2.01 0 1.02 0 0 Z " fill="#000000" transform="translate(707,284)"/>
<path d="M0 0 C0.99 0.33 1.98 0.66 3 1 C2.67 1.99 2.34 2.98 2 4 C1.01 3.01 0.02 2.02 -1 1 C-0.67 0.67 -0.34 0.34 0 0 Z " fill="#000000" transform="translate(151,802)"/>
<path d="M0 0 C0.99 0.33 1.98 0.66 3 1 C2.67 1.99 2.34 2.98 2 4 C1.01 3.01 0.02 2.02 -1 1 C-0.67 0.67 -0.34 0.34 0 0 Z " fill="#000000" transform="translate(521,525)"/>
<path d="M0 0 C0.99 0.33 1.98 0.66 3 1 C2.67 1.99 2.34 2.98 2 4 C1.01 3.01 0.02 2.02 -1 1 C-0.67 0.67 -0.34 0.34 0 0 Z " fill="#000000" transform="translate(729,347)"/>
<path d="M0 0 C0.99 0.33 1.98 0.66 3 1 C2.67 1.99 2.34 2.98 2 4 C1.01 3.01 0.02 2.02 -1 1 C-0.67 0.67 -0.34 0.34 0 0 Z " fill="#000000" transform="translate(636,16)"/>
</svg>
