<svg width="472" height="752" viewBox="0 0 472 752" fill="none" xmlns="http://www.w3.org/2000/svg">
<path d="M442.624 6.45455V21H440.863V8.30114H440.778L437.226 10.6591V8.86932L440.863 6.45455H442.624ZM447.198 21.1136C446.848 21.1136 446.547 20.9882 446.296 20.7372C446.045 20.4863 445.92 20.1856 445.92 19.8352C445.92 19.4848 446.045 19.1842 446.296 18.9332C446.547 18.6823 446.848 18.5568 447.198 18.5568C447.548 18.5568 447.849 18.6823 448.1 18.9332C448.351 19.1842 448.476 19.4848 448.476 19.8352C448.476 20.0672 448.417 20.2803 448.299 20.4744C448.185 20.6686 448.031 20.8248 447.837 20.9432C447.648 21.0568 447.435 21.1136 447.198 21.1136ZM454.831 6.45455V21H453.07V8.30114H452.985L449.434 10.6591V8.86932L453.07 6.45455H454.831Z" fill="black"/>
<path d="M251.624 686.455V701H249.863V688.301H249.778L246.226 690.659V688.869L249.863 686.455H251.624ZM256.198 701.114C255.848 701.114 255.547 700.988 255.296 700.737C255.045 700.486 254.92 700.186 254.92 699.835C254.92 699.485 255.045 699.184 255.296 698.933C255.547 698.682 255.848 698.557 256.198 698.557C256.548 698.557 256.849 698.682 257.1 698.933C257.351 699.184 257.476 699.485 257.476 699.835C257.476 700.067 257.417 700.28 257.299 700.474C257.185 700.669 257.031 700.825 256.837 700.943C256.648 701.057 256.435 701.114 256.198 701.114ZM260.456 701V699.722L265.257 694.466C265.82 693.85 266.284 693.315 266.649 692.861C267.014 692.402 267.284 691.971 267.459 691.568C267.639 691.161 267.729 690.735 267.729 690.29C267.729 689.778 267.605 689.336 267.359 688.962C267.118 688.588 266.786 688.299 266.365 688.095C265.944 687.892 265.47 687.79 264.945 687.79C264.386 687.79 263.898 687.906 263.481 688.138C263.07 688.365 262.75 688.685 262.523 689.097C262.3 689.509 262.189 689.991 262.189 690.545H260.513C260.513 689.693 260.709 688.945 261.102 688.301C261.495 687.657 262.03 687.155 262.707 686.795C263.389 686.436 264.154 686.256 265.001 686.256C265.854 686.256 266.609 686.436 267.267 686.795C267.925 687.155 268.441 687.641 268.815 688.251C269.189 688.862 269.376 689.542 269.376 690.29C269.376 690.825 269.279 691.348 269.085 691.859C268.896 692.366 268.564 692.932 268.091 693.557C267.622 694.177 266.971 694.935 266.138 695.83L262.871 699.324V699.438H269.632V701H260.456Z" fill="black"/>
<path d="M378.624 327.455V342H376.863V329.301H376.778L373.226 331.659V329.869L376.863 327.455H378.624ZM383.198 342.114C382.848 342.114 382.547 341.988 382.296 341.737C382.045 341.486 381.92 341.186 381.92 340.835C381.92 340.485 382.045 340.184 382.296 339.933C382.547 339.682 382.848 339.557 383.198 339.557C383.548 339.557 383.849 339.682 384.1 339.933C384.351 340.184 384.476 340.485 384.476 340.835C384.476 341.067 384.417 341.28 384.299 341.474C384.185 341.669 384.031 341.825 383.837 341.943C383.648 342.057 383.435 342.114 383.198 342.114ZM391.824 342.199C390.886 342.199 390.051 342.038 389.317 341.716C388.588 341.394 388.007 340.946 387.577 340.374C387.15 339.796 386.918 339.126 386.881 338.364H388.67C388.708 338.832 388.869 339.237 389.153 339.578C389.437 339.914 389.809 340.175 390.268 340.359C390.728 340.544 391.237 340.636 391.795 340.636C392.42 340.636 392.974 340.527 393.457 340.31C393.94 340.092 394.319 339.789 394.594 339.401C394.868 339.012 395.006 338.562 395.006 338.051C395.006 337.516 394.873 337.045 394.608 336.638C394.343 336.226 393.954 335.904 393.443 335.672C392.932 335.44 392.307 335.324 391.568 335.324H390.403V333.761H391.568C392.146 333.761 392.652 333.657 393.088 333.449C393.528 333.241 393.872 332.947 394.118 332.568C394.369 332.189 394.494 331.744 394.494 331.233C394.494 330.741 394.385 330.312 394.168 329.947C393.95 329.583 393.642 329.299 393.244 329.095C392.851 328.892 392.387 328.79 391.852 328.79C391.35 328.79 390.877 328.882 390.432 329.067C389.991 329.247 389.632 329.509 389.352 329.855C389.073 330.196 388.921 330.608 388.898 331.091H387.193C387.222 330.329 387.451 329.661 387.882 329.088C388.313 328.51 388.876 328.061 389.572 327.739C390.273 327.417 391.043 327.256 391.881 327.256C392.78 327.256 393.552 327.438 394.196 327.803C394.84 328.162 395.335 328.638 395.68 329.23C396.026 329.822 396.199 330.461 396.199 331.148C396.199 331.967 395.983 332.665 395.552 333.243C395.126 333.821 394.546 334.221 393.812 334.443V334.557C394.731 334.708 395.448 335.099 395.964 335.729C396.48 336.354 396.739 337.128 396.739 338.051C396.739 338.842 396.523 339.552 396.092 340.182C395.666 340.807 395.084 341.299 394.345 341.659C393.606 342.019 392.766 342.199 391.824 342.199Z" fill="black"/>
<path d="M412.45 347.827C412.631 347.305 412.354 346.736 411.832 346.555L403.327 343.611C402.805 343.43 402.236 343.707 402.055 344.229C401.874 344.751 402.151 345.32 402.673 345.501L410.233 348.118L407.616 355.678C407.435 356.2 407.712 356.769 408.234 356.95C408.756 357.131 409.325 356.854 409.506 356.332L412.45 347.827ZM376.942 365.4L411.942 348.4L411.068 346.6L376.068 363.6L376.942 365.4Z" fill="black"/>
<path d="M64.5256 146.286C33.4052 184.075 28.3008 264.325 29.6387 299.726C77.4924 269.779 178.572 207.292 200.059 196.918C226.919 183.951 368.731 109.547 358.851 143.199C348.972 176.85 244.929 251.255 152 291.082C77.657 322.943 64.3197 399.962 62.0557 424.455C56.375 463.232 77.1836 463.87 88.298 459.342C94.7197 453.661 123.905 433.717 137.695 424.455C275.761 342.949 288.632 366.611 287.5 394.5C242.116 403.453 -23.3943 593.016 4.70041 654.145C27.1762 703.048 89.224 719.85 107.748 711C265.82 653.699 347.531 503.12 368.628 434.992L418.025 401.917V360.238L368.628 378.453C367.393 309.544 319.197 302.912 287.5 302.5C404.572 265.452 433.771 184.878 441.489 154.93C449.207 48.1087 406.293 38.8467 345.164 27.1149C284.035 15.383 103.426 99.0497 64.5256 146.286Z" stroke="black" stroke-width="5"/>
<path d="M80.5032 197.999C155.337 145.333 298.505 37 387.005 78.9996C417.338 104.166 422.502 191.001 262.5 272.5L95.5049 393.999C148.672 369.333 273.003 320.499 307.003 339.999C330.503 357.666 360.503 418.699 292.503 521.499C248.505 588.015 116.504 698 71.0035 679.5C42.0052 653 35.0042 633.5 102.505 583L239.004 466.499L404.504 383.999" stroke="black" stroke-width="2" stroke-dasharray="10 10"/>
<path d="M457.197 190.734C457.602 191.456 458.516 191.713 459.239 191.308L471.014 184.706C471.736 184.3 471.994 183.386 471.588 182.664C471.183 181.941 470.269 181.684 469.546 182.089L459.08 187.958L453.211 177.491C452.805 176.769 451.891 176.511 451.169 176.916C450.446 177.322 450.189 178.236 450.594 178.958L457.197 190.734ZM258.292 8.97218C302.577 0.331278 365.489 -0.878924 410.661 23.2233C433.19 35.244 451.285 53.5454 460.526 80.3912C469.777 107.27 470.209 142.88 457.061 189.594L459.949 190.406C473.201 143.32 472.874 107.051 463.362 79.4149C453.839 51.7462 435.165 32.8975 412.074 20.5765C366.004 -4.00453 302.266 -2.66472 257.718 6.02771L258.292 8.97218Z" fill="black"/>
<path d="M80.0772 737.821C79.4262 738.334 79.3138 739.277 79.8262 739.928L88.1754 750.536C88.6878 751.187 89.6309 751.3 90.2819 750.787C90.9328 750.275 91.0452 749.332 90.5329 748.681L83.1113 739.251L92.541 731.829C93.192 731.317 93.3044 730.374 92.7921 729.723C92.2797 729.072 91.3366 728.96 90.6857 729.472L80.0772 737.821ZM351.741 521.194C337.309 543.837 293.512 600.87 241.282 650.791C215.17 675.748 186.999 698.881 159.38 715.049C131.728 731.238 104.826 740.328 81.1824 737.511L80.8274 740.489C105.434 743.422 133.033 733.95 160.896 717.638C188.793 701.307 217.154 678.002 243.355 652.959C295.75 602.88 339.703 545.663 354.27 522.806L351.741 521.194Z" fill="black"/>
<circle cx="102.5" cy="190.5" r="30.5" fill="black"/>
</svg>
