<svg width="745" height="694" viewBox="0 0 745 694" fill="none" xmlns="http://www.w3.org/2000/svg">
<path d="M235.728 53.2486V81.5816C267.183 30.6979 313.981 21.0607 333.447 22.6025C361.009 22.988 428.739 33.4732 479.16 72.3299C542.187 120.901 548.547 158.485 564.737 194.335C577.69 223.015 580.928 304.198 580.928 341.204C602.322 334.844 686.743 332.531 715.654 334.844C738.783 336.694 742.638 364.526 741.674 378.211C738.783 383.029 723.749 392.551 686.743 392.088C649.736 391.626 598.467 401.532 577.458 406.544C567.281 447.713 538.91 508.89 525.996 534.331C512.697 557.268 470.718 611.582 409.195 645.351C347.672 679.119 297.212 676.382 279.673 670.792C240.353 693.921 191.204 687.561 132.803 665.01C86.0829 646.97 70.9335 567.676 69.1989 530.284C55.7841 487.727 52.8159 359.9 53.0086 301.307L60.5255 182.771L71.5118 90.8331C73.632 70.2097 82.1511 25.3781 99.2666 11.0382C116.382 -3.3018 165.377 11.2309 187.735 20.2898C217.34 27.2285 232.066 45.1534 235.728 53.2486Z" stroke="black" stroke-width="5"/>
<path d="M155.5 46L166 634.5" stroke="black" stroke-width="2" stroke-dasharray="10 10"/>
<path d="M166 201.5C221 94.4993 413.5 -58 510 239.499C550 425 501.2 680.999 166 630.999" stroke="black" stroke-width="2" stroke-dasharray="10 10"/>
<path d="M162.5 572C248.167 514 378.5 434.07 394.5 426.5C410.5 418.93 678.7 361 705.5 357" stroke="black" stroke-width="2" stroke-dasharray="10 10"/>
<path d="M6.61932 337.455V352H4.85795V339.301H4.77273L1.22159 341.659V339.869L4.85795 337.455H6.61932Z" fill="black"/>
<path d="M523.506 41V39.7216L528.307 34.4659C528.87 33.8504 529.334 33.3153 529.699 32.8608C530.063 32.4015 530.333 31.9706 530.509 31.5682C530.688 31.161 530.778 30.7348 530.778 30.2898C530.778 29.7784 530.655 29.3357 530.409 28.9616C530.168 28.5876 529.836 28.2988 529.415 28.0952C528.993 27.8916 528.52 27.7898 527.994 27.7898C527.436 27.7898 526.948 27.9058 526.531 28.1378C526.119 28.3651 525.8 28.6847 525.572 29.0966C525.35 29.5085 525.239 29.9915 525.239 30.5455H523.562C523.562 29.6932 523.759 28.9451 524.152 28.3011C524.545 27.6572 525.08 27.1553 525.757 26.7955C526.439 26.4356 527.204 26.2557 528.051 26.2557C528.903 26.2557 529.659 26.4356 530.317 26.7955C530.975 27.1553 531.491 27.6406 531.865 28.2514C532.239 28.8622 532.426 29.5417 532.426 30.2898C532.426 30.8248 532.329 31.348 532.135 31.8594C531.946 32.366 531.614 32.9318 531.141 33.5568C530.672 34.1771 530.021 34.9347 529.188 35.8295L525.92 39.3239V39.4375H532.682V41H523.506ZM536.865 41.1136C536.515 41.1136 536.214 40.9882 535.963 40.7372C535.712 40.4863 535.587 40.1856 535.587 39.8352C535.587 39.4848 535.712 39.1842 535.963 38.9332C536.214 38.6823 536.515 38.5568 536.865 38.5568C537.215 38.5568 537.516 38.6823 537.767 38.9332C538.018 39.1842 538.143 39.4848 538.143 39.8352C538.143 40.0672 538.084 40.2803 537.966 40.4744C537.852 40.6686 537.698 40.8248 537.504 40.9432C537.315 41.0568 537.102 41.1136 536.865 41.1136ZM544.498 26.4545V41H542.737V28.3011H542.652L539.1 30.6591V28.8693L542.737 26.4545H544.498Z" fill="black"/>
<path d="M523.506 620V618.722L528.307 613.466C528.87 612.85 529.334 612.315 529.699 611.861C530.063 611.402 530.333 610.971 530.509 610.568C530.688 610.161 530.778 609.735 530.778 609.29C530.778 608.778 530.655 608.336 530.409 607.962C530.168 607.588 529.836 607.299 529.415 607.095C528.993 606.892 528.52 606.79 527.994 606.79C527.436 606.79 526.948 606.906 526.531 607.138C526.119 607.365 525.8 607.685 525.572 608.097C525.35 608.509 525.239 608.991 525.239 609.545H523.562C523.562 608.693 523.759 607.945 524.152 607.301C524.545 606.657 525.08 606.155 525.757 605.795C526.439 605.436 527.204 605.256 528.051 605.256C528.903 605.256 529.659 605.436 530.317 605.795C530.975 606.155 531.491 606.641 531.865 607.251C532.239 607.862 532.426 608.542 532.426 609.29C532.426 609.825 532.329 610.348 532.135 610.859C531.946 611.366 531.614 611.932 531.141 612.557C530.672 613.177 530.021 613.935 529.188 614.83L525.92 618.324V618.438H532.682V620H523.506ZM536.865 620.114C536.515 620.114 536.214 619.988 535.963 619.737C535.712 619.486 535.587 619.186 535.587 618.835C535.587 618.485 535.712 618.184 535.963 617.933C536.214 617.682 536.515 617.557 536.865 617.557C537.215 617.557 537.516 617.682 537.767 617.933C538.018 618.184 538.143 618.485 538.143 618.835C538.143 619.067 538.084 619.28 537.966 619.474C537.852 619.669 537.698 619.825 537.504 619.943C537.315 620.057 537.102 620.114 536.865 620.114ZM541.123 620V618.722L545.924 613.466C546.487 612.85 546.951 612.315 547.316 611.861C547.681 611.402 547.951 610.971 548.126 610.568C548.306 610.161 548.396 609.735 548.396 609.29C548.396 608.778 548.272 608.336 548.026 607.962C547.785 607.588 547.453 607.299 547.032 607.095C546.611 606.892 546.137 606.79 545.612 606.79C545.053 606.79 544.565 606.906 544.148 607.138C543.737 607.365 543.417 607.685 543.19 608.097C542.967 608.509 542.856 608.991 542.856 609.545H541.18C541.18 608.693 541.376 607.945 541.769 607.301C542.162 606.657 542.697 606.155 543.374 605.795C544.056 605.436 544.821 605.256 545.668 605.256C546.521 605.256 547.276 605.436 547.934 605.795C548.592 606.155 549.108 606.641 549.482 607.251C549.856 607.862 550.043 608.542 550.043 609.29C550.043 609.825 549.946 610.348 549.752 610.859C549.563 611.366 549.231 611.932 548.758 612.557C548.289 613.177 547.638 613.935 546.805 614.83L543.538 618.324V618.438H550.299V620H541.123Z" fill="black"/>
<path d="M650.506 298V296.722L655.307 291.466C655.87 290.85 656.334 290.315 656.699 289.861C657.063 289.402 657.333 288.971 657.509 288.568C657.688 288.161 657.778 287.735 657.778 287.29C657.778 286.778 657.655 286.336 657.409 285.962C657.168 285.588 656.836 285.299 656.415 285.095C655.993 284.892 655.52 284.79 654.994 284.79C654.436 284.79 653.948 284.906 653.531 285.138C653.119 285.365 652.8 285.685 652.572 286.097C652.35 286.509 652.239 286.991 652.239 287.545H650.562C650.562 286.693 650.759 285.945 651.152 285.301C651.545 284.657 652.08 284.155 652.757 283.795C653.439 283.436 654.204 283.256 655.051 283.256C655.903 283.256 656.659 283.436 657.317 283.795C657.975 284.155 658.491 284.641 658.865 285.251C659.239 285.862 659.426 286.542 659.426 287.29C659.426 287.825 659.329 288.348 659.135 288.859C658.946 289.366 658.614 289.932 658.141 290.557C657.672 291.177 657.021 291.935 656.188 292.83L652.92 296.324V296.438H659.682V298H650.506ZM663.865 298.114C663.515 298.114 663.214 297.988 662.963 297.737C662.712 297.486 662.587 297.186 662.587 296.835C662.587 296.485 662.712 296.184 662.963 295.933C663.214 295.682 663.515 295.557 663.865 295.557C664.215 295.557 664.516 295.682 664.767 295.933C665.018 296.184 665.143 296.485 665.143 296.835C665.143 297.067 665.084 297.28 664.966 297.474C664.852 297.669 664.698 297.825 664.504 297.943C664.315 298.057 664.102 298.114 663.865 298.114ZM667.782 295.017V293.568L674.174 283.455H675.225V285.699H674.515L669.685 293.341V293.455H678.293V295.017H667.782ZM674.629 298V294.577V293.902V283.455H676.305V298H674.629Z" fill="black"/>
<path d="M307.506 364V362.722L312.307 357.466C312.87 356.85 313.334 356.315 313.699 355.861C314.063 355.402 314.333 354.971 314.509 354.568C314.688 354.161 314.778 353.735 314.778 353.29C314.778 352.778 314.655 352.336 314.409 351.962C314.168 351.588 313.836 351.299 313.415 351.095C312.993 350.892 312.52 350.79 311.994 350.79C311.436 350.79 310.948 350.906 310.531 351.138C310.119 351.365 309.8 351.685 309.572 352.097C309.35 352.509 309.239 352.991 309.239 353.545H307.562C307.562 352.693 307.759 351.945 308.152 351.301C308.545 350.657 309.08 350.155 309.757 349.795C310.439 349.436 311.204 349.256 312.051 349.256C312.903 349.256 313.659 349.436 314.317 349.795C314.975 350.155 315.491 350.641 315.865 351.251C316.239 351.862 316.426 352.542 316.426 353.29C316.426 353.825 316.329 354.348 316.135 354.859C315.946 355.366 315.614 355.932 315.141 356.557C314.672 357.177 314.021 357.935 313.188 358.83L309.92 362.324V362.438H316.682V364H307.506ZM320.865 364.114C320.515 364.114 320.214 363.988 319.963 363.737C319.712 363.486 319.587 363.186 319.587 362.835C319.587 362.485 319.712 362.184 319.963 361.933C320.214 361.682 320.515 361.557 320.865 361.557C321.215 361.557 321.516 361.682 321.767 361.933C322.018 362.184 322.143 362.485 322.143 362.835C322.143 363.067 322.084 363.28 321.966 363.474C321.852 363.669 321.698 363.825 321.504 363.943C321.315 364.057 321.102 364.114 320.865 364.114ZM329.491 364.199C328.553 364.199 327.718 364.038 326.984 363.716C326.254 363.394 325.674 362.946 325.244 362.374C324.817 361.796 324.585 361.126 324.548 360.364H326.337C326.375 360.832 326.536 361.237 326.82 361.578C327.104 361.914 327.476 362.175 327.935 362.359C328.395 362.544 328.904 362.636 329.462 362.636C330.087 362.636 330.641 362.527 331.124 362.31C331.607 362.092 331.986 361.789 332.261 361.401C332.535 361.012 332.673 360.562 332.673 360.051C332.673 359.516 332.54 359.045 332.275 358.638C332.01 358.226 331.621 357.904 331.11 357.672C330.599 357.44 329.974 357.324 329.235 357.324H328.07V355.761H329.235C329.813 355.761 330.319 355.657 330.755 355.449C331.195 355.241 331.539 354.947 331.785 354.568C332.036 354.189 332.161 353.744 332.161 353.233C332.161 352.741 332.052 352.312 331.835 351.947C331.617 351.583 331.309 351.299 330.911 351.095C330.518 350.892 330.054 350.79 329.519 350.79C329.017 350.79 328.544 350.882 328.099 351.067C327.658 351.247 327.299 351.509 327.019 351.855C326.74 352.196 326.588 352.608 326.565 353.091H324.86C324.888 352.329 325.118 351.661 325.549 351.088C325.98 350.51 326.543 350.061 327.239 349.739C327.94 349.417 328.71 349.256 329.548 349.256C330.447 349.256 331.219 349.438 331.863 349.803C332.507 350.162 333.002 350.638 333.347 351.23C333.693 351.822 333.866 352.461 333.866 353.148C333.866 353.967 333.65 354.665 333.219 355.243C332.793 355.821 332.213 356.221 331.479 356.443V356.557C332.398 356.708 333.115 357.099 333.631 357.729C334.147 358.354 334.406 359.128 334.406 360.051C334.406 360.842 334.19 361.552 333.759 362.182C333.333 362.807 332.751 363.299 332.012 363.659C331.273 364.019 330.433 364.199 329.491 364.199Z" fill="black"/>
<path d="M41.5522 543.894C42.0461 544.141 42.6469 543.942 42.8942 543.448L46.924 535.4C47.1713 534.907 46.9714 534.306 46.4776 534.058C45.9837 533.811 45.3829 534.011 45.1357 534.505L41.5536 541.658L34.4004 538.076C33.9065 537.829 33.3057 538.029 33.0584 538.522C32.8112 539.016 33.011 539.617 33.5048 539.864L41.5522 543.894ZM26.5111 183.9C22.4632 224.345 18.3319 290.828 19.0908 358.864C19.8493 426.869 25.4933 496.548 41.0511 543.316L42.9489 542.684C27.4966 496.234 21.8489 426.825 21.0907 358.841C20.3327 290.888 24.4596 224.48 28.5012 184.1L26.5111 183.9Z" fill="black"/>
<path d="M595.532 214.884C596.02 215.142 596.625 214.957 596.884 214.469L601.099 206.517C601.358 206.029 601.172 205.424 600.684 205.165C600.196 204.906 599.591 205.092 599.332 205.58L595.585 212.648L588.517 208.901C588.029 208.643 587.423 208.828 587.165 209.316C586.906 209.804 587.092 210.41 587.58 210.668L595.532 214.884ZM349.814 1.98257C405.425 12.5036 452.035 18.0996 492.134 44.7702C532.171 71.3993 565.825 119.145 595.044 214.294L596.956 213.707C567.675 118.356 533.829 70.1008 493.241 43.1049C452.715 16.1504 405.575 10.4964 350.186 0.0174298L349.814 1.98257Z" fill="black"/>
<path d="M375.577 689.116C375.364 689.626 375.606 690.211 376.115 690.423L384.424 693.883C384.934 694.095 385.519 693.854 385.732 693.344C385.944 692.834 385.703 692.249 385.193 692.036L377.807 688.961L380.882 681.576C381.094 681.066 380.853 680.481 380.343 680.268C379.833 680.056 379.248 680.297 379.036 680.807L375.577 689.116ZM578.542 472.212C568.514 505.557 561.416 541.622 535.09 578.404C508.783 615.158 463.211 652.685 376.119 688.576L376.881 690.425C464.196 654.443 510.125 616.72 536.716 579.568C563.288 542.442 570.486 505.943 580.458 472.789L578.542 472.212Z" fill="black"/>
<path d="M365.78 365.571C366.099 365.12 365.993 364.496 365.542 364.177L358.199 358.973C357.748 358.654 357.124 358.761 356.805 359.211C356.485 359.662 356.592 360.286 357.043 360.605L363.57 365.231L358.945 371.758C358.625 372.209 358.732 372.833 359.182 373.152C359.633 373.471 360.257 373.365 360.576 372.914L365.78 365.571ZM294.618 402.455C301.243 397.252 312.744 389.169 325.673 381.863C338.62 374.547 352.908 368.063 365.132 365.979L364.796 364.007C352.225 366.151 337.694 372.773 324.689 380.122C311.665 387.481 300.081 395.622 293.382 400.882L294.618 402.455Z" fill="black"/>
<path d="M707.453 315.892C707.945 315.641 708.142 315.04 707.892 314.547L703.816 306.523C703.566 306.031 702.964 305.834 702.471 306.084C701.979 306.334 701.783 306.936 702.033 307.429L705.656 314.561L698.523 318.184C698.031 318.434 697.834 319.036 698.084 319.529C698.334 320.021 698.936 320.217 699.429 319.967L707.453 315.892ZM621.104 315.995C631.948 314.865 649.258 313.509 665.928 313.113C674.264 312.916 682.426 312.958 689.534 313.388C696.661 313.818 702.654 314.634 706.69 315.951L707.31 314.049C703.021 312.65 696.817 311.824 689.654 311.391C682.471 310.957 674.248 310.915 665.881 311.114C649.146 311.511 631.781 312.871 620.896 314.005L621.104 315.995Z" fill="black"/>
<circle cx="155.5" cy="71.5" r="30.5" fill="black"/>
</svg>
