<svg width="730" height="747" viewBox="0 0 730 747" fill="none" xmlns="http://www.w3.org/2000/svg">
<path d="M310.908 599.252C346.844 606.637 379.276 611.28 391 612.678C375.321 627.783 355.404 642.049 335.487 650.021C315.57 657.993 288.449 657.993 265.142 650.021C241.835 642.049 227.427 623.168 235.054 608.063C242.682 592.958 265.989 590.021 310.908 599.252Z" stroke="black" stroke-width="5"/>
<path d="M203.499 324.5L196.807 193.276C273.965 134.512 281.784 144.694 297.905 144.694C314.026 144.694 345 153.324 349.427 183.927C351.241 196.467 344 221.754 333.614 246.414C318.756 281.696 275 309 261.999 312.151C250.629 314.907 220.532 319.39 203.499 324.5Z" stroke="black" stroke-width="5"/>
<path d="M314.251 408.132C288.498 423.257 230.265 436.517 203.012 443.5L200.076 536.85C213.872 526.631 255.773 523.565 275.19 525.097C294.608 526.63 296.141 528.163 355.926 536.85C403.754 543.8 407.571 551.375 412 550.864C415.066 539.111 421.422 497.353 389.23 450.854C363.477 413.654 332.987 410.005 314.251 408.132Z" stroke="black" stroke-width="5"/>
<path d="M205 28.4998L202.5 82.5C214.253 68.8737 253.118 37.5811 289.5 24.4999C334.978 8.14834 428.539 8.28385 483.726 44.0528C538.912 79.8218 533.029 177.763 517.7 214.553C502.37 251.344 492.7 260.053 462.7 293.053C442.626 315.134 421.363 321.722 404.5 328.024C451.511 328.535 478.694 349.843 514.974 380.503C551.254 411.162 561.474 433.134 569.65 467.881C576.19 495.679 569.43 519.066 566.705 531.5C605.948 520.463 621.781 486.794 628.442 472C641.5 443 649 419 658.985 401.701C681.468 372.268 735.5 414.5 725.941 435.511C723.386 452.203 708.344 495.722 690.357 521.066C672.37 546.411 656.291 560.582 650.5 564.5C646.753 568.418 632.615 579.625 606.044 593.115C579.473 606.605 566.982 609.428 559.488 609.768C555.57 618.114 529.809 647.933 504.055 667.964C478.302 687.994 436.151 705.815 422.865 711.607C402.256 718.42 352.349 731.739 317.602 730.513C274.169 728.98 259.861 726.425 228.691 714.672C203.755 705.27 187.301 688.612 182.191 681.458C172.994 692.7 149.999 692.189 121.895 684.013C99.4118 677.473 86.9778 637.343 83.5712 624.228L72.3296 573.13L59.5549 449.982L57 313.549L61.5 198L66.7087 112.732C69.1614 74.7148 74.9287 26.0772 86 22.5003C145.683 -3.25338 197.335 13 205 28.4998Z" stroke="black" stroke-width="5"/>
<path d="M142.133 641.498L138 83.999" stroke="black" stroke-width="2" stroke-dasharray="10 10"/>
<path d="M145 177.302C205.334 120.802 369 8.3013 444.5 115.802C471.5 177.302 465 288.302 230.5 371.802L145 398.802C317.667 343.302 509 289.802 509 550.302C509 641.888 294 768.302 145 609.302" stroke="black" stroke-width="2" stroke-dasharray="10 10"/>
<path d="M47.6208 575.924C48.1319 576.134 48.7159 575.889 48.9253 575.378L52.338 567.05C52.5474 566.539 52.3029 565.955 51.7918 565.746C51.2808 565.536 50.6967 565.781 50.4873 566.292L47.4539 573.695L40.0513 570.661C39.5402 570.452 38.9562 570.696 38.7468 571.207C38.5374 571.718 38.7819 572.302 39.2929 572.512L47.6208 575.924ZM30.502 132.987C29.7285 198.247 29.6253 298.661 31.8298 387.815C32.932 432.391 34.6113 474.163 37.0733 507.322C38.3042 523.901 39.7317 538.339 41.3825 549.904C43.0292 561.439 44.9096 570.207 47.0776 575.385L48.9224 574.613C46.8628 569.693 45.0086 561.153 43.3624 549.621C41.7205 538.119 40.2971 523.73 39.0678 507.174C36.6093 474.062 34.931 432.328 33.8292 387.766C31.6255 298.644 31.7286 198.255 32.5018 133.011L30.502 132.987Z" fill="black"/>
<path d="M492.5 289.999L491.83 289.257L490.392 290.555L492.283 290.975L492.5 289.999ZM556.552 403.394C557.046 403.641 557.647 403.441 557.894 402.947L561.919 394.897C562.166 394.403 561.966 393.802 561.472 393.555C560.978 393.309 560.377 393.509 560.13 394.003L556.552 401.158L549.397 397.58C548.903 397.333 548.302 397.534 548.055 398.028C547.808 398.522 548.008 399.122 548.502 399.369L556.552 403.394ZM444.5 2C494.78 1.99976 545.178 38.9359 563.741 93.3228C582.273 147.616 569.1 219.465 491.83 289.257L493.17 290.741C570.9 220.534 584.477 147.883 565.634 92.6768C546.822 37.5638 495.72 -0.000240922 444.5 0L444.5 2ZM492.283 290.975C507.945 294.456 518.365 299.249 525.554 305.385C532.726 311.507 536.767 319.037 539.543 328.166C542.331 337.336 543.818 348.022 545.936 360.48C548.048 372.905 550.777 386.994 556.051 402.816L557.948 402.184C552.722 386.505 550.014 372.532 547.907 360.145C545.807 347.79 544.293 336.913 541.457 327.584C538.607 318.213 534.399 310.305 526.852 303.864C519.323 297.437 508.555 292.543 492.717 289.023L492.283 290.975Z" fill="black"/>
<path d="M232.599 727.584C232.093 727.805 231.862 728.395 232.084 728.901L235.693 737.146C235.914 737.652 236.504 737.882 237.01 737.661C237.516 737.439 237.746 736.85 237.525 736.344L234.317 729.015L241.646 725.807C242.152 725.586 242.382 724.996 242.161 724.49C241.939 723.984 241.35 723.754 240.844 723.975L232.599 727.584ZM510.247 674.842C490.689 697.205 449.52 721.376 399.137 734.454C348.783 747.525 289.372 749.474 233.364 727.569L232.636 729.431C289.128 751.526 348.985 749.538 399.639 736.39C450.265 723.249 491.846 698.921 511.753 676.158L510.247 674.842Z" fill="black"/>
<path d="M627.713 433.299C627.326 432.905 626.692 432.9 626.299 433.287L619.883 439.598C619.489 439.986 619.484 440.619 619.871 441.013C620.258 441.406 620.891 441.411 621.285 441.024L626.988 435.414L632.598 441.117C632.986 441.511 633.619 441.516 634.013 441.129C634.406 440.742 634.411 440.109 634.024 439.715L627.713 433.299ZM589.523 503.852C605.579 493.994 627.715 468.573 628 434.008L626 433.992C625.722 467.715 604.088 492.563 588.477 502.148L589.523 503.852Z" fill="black"/>
<path d="M315.5 513.743L314.852 514.504L314.926 514.567L315.01 514.615L315.5 513.743ZM380.867 522.12C381.142 521.641 380.977 521.03 380.499 520.754L372.698 516.266C372.219 515.99 371.608 516.155 371.332 516.634C371.057 517.112 371.222 517.724 371.7 517.999L378.635 521.989L374.645 528.923C374.369 529.402 374.534 530.013 375.013 530.289C375.491 530.564 376.103 530.399 376.378 529.921L380.867 522.12ZM251.161 510.791C262.47 508.948 275.92 507.72 287.824 508.055C293.776 508.223 299.314 508.78 303.992 509.836C308.689 510.896 312.422 512.437 314.852 514.504L316.148 512.981C313.36 510.609 309.26 508.975 304.433 507.885C299.587 506.791 293.91 506.226 287.88 506.056C275.82 505.716 262.238 506.959 250.839 508.817L251.161 510.791ZM315.01 514.615C325.722 520.637 340.439 523.047 353.184 523.756C359.574 524.112 365.505 524.043 370.243 523.775C374.954 523.51 378.558 523.045 380.26 522.587L379.74 520.656C378.253 521.056 374.828 521.514 370.131 521.779C365.461 522.042 359.606 522.111 353.295 521.76C340.639 521.055 326.295 518.666 315.99 512.871L315.01 514.615Z" fill="black"/>
<path d="M6.61932 382.454V396.999H4.85795V384.3H4.77273L1.22159 386.658V384.868L4.85795 382.454H6.61932ZM11.1932 397.113C10.8428 397.113 10.5421 396.987 10.2912 396.736C10.0402 396.485 9.91477 396.185 9.91477 395.834C9.91477 395.484 10.0402 395.183 10.2912 394.932C10.5421 394.681 10.8428 394.556 11.1932 394.556C11.5436 394.556 11.8442 394.681 12.0952 394.932C12.3461 395.183 12.4716 395.484 12.4716 395.834C12.4716 396.066 12.4124 396.279 12.294 396.473C12.1804 396.668 12.0265 396.824 11.8324 396.942C11.643 397.056 11.4299 397.113 11.1932 397.113ZM18.8263 382.454V396.999H17.065V384.3H16.9798L13.4286 386.658V384.868L17.065 382.454H18.8263Z" fill="black"/>
<path d="M567.756 38.1136C567.405 38.1136 567.105 37.9882 566.854 37.7372C566.603 37.4863 566.477 37.1856 566.477 36.8352C566.477 36.4848 566.603 36.1842 566.854 35.9332C567.105 35.6823 567.405 35.5568 567.756 35.5568C568.106 35.5568 568.407 35.6823 568.658 35.9332C568.909 36.1842 569.034 36.4848 569.034 36.8352C569.034 37.0672 568.975 37.2803 568.857 37.4744C568.743 37.6686 568.589 37.8248 568.395 37.9432C568.205 38.0568 567.992 38.1136 567.756 38.1136Z" fill="black"/>
<path d="M146.5 568.499C219.333 562.499 342.5 568.111 386.5 579.499C457.5 597.875 659 579.499 682.5 441.999" stroke="black" stroke-dasharray="10 10"/>
<circle cx="140.5" cy="102.5" r="30.5" fill="black"/>
</svg>
