<svg width="712" height="789" viewBox="0 0 712 789" fill="none" xmlns="http://www.w3.org/2000/svg">
<path d="M317.092 606.058C360.423 615.052 399.531 620.706 413.668 622.41C394.762 640.805 370.745 658.179 346.729 667.887C322.713 677.596 290.01 677.596 261.905 667.887C233.801 658.179 216.428 635.184 225.626 616.789C234.823 598.393 262.927 594.817 317.092 606.058Z" stroke="black" stroke-width="5"/>
<path d="M200.076 357.719V177.853C277.235 119.089 299.207 122.155 327.311 117.556C355.416 112.957 391.185 141.062 385.564 185.517C379.943 229.973 379.943 237.127 355.927 278.517C336.714 311.628 297.845 334.555 280.812 341.879C257.102 342.288 217.109 352.609 200.076 357.719Z" stroke="black" stroke-width="5"/>
<path d="M314.026 388.889C288.272 404.015 227.329 421.763 200.076 428.746V549.85C213.873 539.63 255.774 542.696 275.191 544.229C294.608 545.762 296.141 547.295 355.927 555.982C403.755 562.931 424.569 563.646 428.997 563.135C432.063 551.383 434.618 487.51 402.426 441.01C376.673 403.81 332.762 390.763 314.026 388.889Z" stroke="black" stroke-width="5"/>
<path d="M200.587 81.7878V122.667C212.339 109.04 244.94 78.5175 281.322 65.4362C326.8 49.0847 395.272 39.887 450.458 75.6559C505.645 111.425 508.2 183.474 492.87 220.265C477.541 257.056 467.321 268.297 442.794 296.402C423.172 318.885 384.541 337.11 367.679 343.412C414.69 343.923 471.92 364.874 508.2 395.533C544.48 426.192 554.699 448.164 562.875 482.911C569.416 510.709 565.6 542.526 562.875 554.96C602.119 543.923 626.578 512.208 633.902 497.73C645.348 485.057 655.704 446.801 659.451 429.258C681.935 399.825 701.863 429.598 709.017 448.164C706.462 464.856 696.856 504.577 678.869 529.922C660.882 555.267 644.803 569.438 639.012 573.355C635.265 577.273 621.128 588.481 594.556 601.971C567.985 615.461 546.353 619.514 538.859 619.855C534.941 628.201 520.668 649.901 494.914 669.932C469.161 689.962 436.151 706.552 422.865 712.343C402.256 719.157 352.349 732.476 317.602 731.25C274.169 729.717 259.861 727.162 228.691 715.409C203.755 706.007 187.301 689.349 182.191 682.195C172.994 693.437 149.999 692.926 121.895 684.75C99.4118 678.21 86.9778 650.344 83.5712 637.229L72.3296 586.13L59.5549 462.983L57 326.55L59.5549 211.067L66.7087 125.732C69.1614 87.7152 91.9173 71.0571 102.989 67.4802C162.672 41.7265 192.922 66.2879 200.587 81.7878Z" stroke="black" stroke-width="5"/>
<path d="M142.133 654.498L138 96.999" stroke="black" stroke-width="2" stroke-dasharray="10 10"/>
<path d="M145 190.302C205.334 133.802 369 21.3013 444.5 128.802C471.5 190.302 465 301.302 230.5 384.802L145 411.802C317.667 356.302 509 302.802 509 563.302C509 654.888 294 781.302 145 622.302" stroke="black" stroke-width="2" stroke-dasharray="10 10"/>
<path d="M47.6208 588.924C48.1319 589.134 48.7159 588.889 48.9253 588.378L52.338 580.05C52.5474 579.539 52.3029 578.955 51.7918 578.746C51.2808 578.536 50.6967 578.781 50.4873 579.292L47.4539 586.695L40.0513 583.661C39.5402 583.452 38.9562 583.696 38.7468 584.207C38.5374 584.718 38.7819 585.302 39.2929 585.512L47.6208 588.924ZM30.502 145.987C29.7285 211.247 29.6253 311.661 31.8298 400.815C32.932 445.391 34.6113 487.163 37.0733 520.322C38.3042 536.901 39.7317 551.339 41.3825 562.904C43.0292 574.439 44.9096 583.207 47.0776 588.385L48.9224 587.613C46.8628 582.693 45.0086 574.153 43.3624 562.621C41.7205 551.119 40.2971 536.73 39.0678 520.174C36.6093 487.062 34.931 445.328 33.8292 400.766C31.6255 311.644 31.7286 211.255 32.5018 146.011L30.502 145.987Z" fill="black"/>
<path d="M444.5 329.499L443.83 328.757L442.392 330.055L444.283 330.475L444.5 329.499ZM556.553 416.394C557.047 416.641 557.647 416.441 557.894 415.947L561.919 407.897C562.166 407.403 561.966 406.803 561.472 406.556C560.978 406.309 560.377 406.509 560.13 407.003L556.553 414.158L549.397 410.581C548.903 410.334 548.303 410.534 548.056 411.028C547.809 411.522 548.009 412.123 548.503 412.37L556.553 416.394ZM396.5 41.5C446.78 41.4998 497.178 78.4359 515.741 132.823C534.273 187.116 521.1 258.965 443.83 328.757L445.17 330.241C522.9 260.034 536.477 187.383 517.634 132.177C498.822 77.0638 447.72 39.4998 396.5 39.5L396.5 41.5ZM444.283 330.475C475.82 337.484 498.5 343.203 515.941 354.954C533.317 366.662 545.591 384.435 556.051 415.816L557.949 415.184C547.409 383.565 534.933 365.338 517.059 353.296C499.25 341.296 476.18 335.515 444.717 328.523L444.283 330.475Z" fill="black"/>
<path d="M232.599 740.584C232.093 740.805 231.862 741.395 232.084 741.901L235.693 750.146C235.914 750.652 236.504 750.882 237.01 750.661C237.516 750.439 237.746 749.85 237.525 749.344L234.317 742.015L241.646 738.807C242.152 738.586 242.382 737.996 242.161 737.49C241.939 736.984 241.35 736.754 240.844 736.975L232.599 740.584ZM510.247 687.842C490.689 710.205 449.52 734.376 399.137 747.454C348.783 760.525 289.372 762.474 233.364 740.569L232.636 742.431C289.128 764.526 348.985 762.538 399.639 749.39C450.265 736.249 491.846 711.921 511.753 689.158L510.247 687.842Z" fill="black"/>
<path d="M633.713 446.299C633.326 445.905 632.692 445.9 632.299 446.287L625.883 452.598C625.489 452.986 625.484 453.619 625.871 454.013C626.258 454.406 626.891 454.411 627.285 454.024L632.988 448.414L638.598 454.117C638.986 454.511 639.619 454.516 640.013 454.129C640.406 453.742 640.411 453.109 640.024 452.715L633.713 446.299ZM595.523 516.852C611.579 506.994 633.715 481.573 634 447.008L632 446.992C631.722 480.715 610.088 505.563 594.477 515.148L595.523 516.852Z" fill="black"/>
<path d="M315.5 526.743L314.852 527.504L314.926 527.567L315.01 527.615L315.5 526.743ZM380.867 535.12C381.142 534.641 380.977 534.03 380.499 533.754L372.698 529.266C372.219 528.99 371.608 529.155 371.332 529.634C371.057 530.112 371.222 530.724 371.7 530.999L378.635 534.989L374.645 541.923C374.369 542.402 374.534 543.013 375.013 543.289C375.491 543.564 376.103 543.399 376.378 542.921L380.867 535.12ZM251.161 523.791C262.47 521.948 275.92 520.72 287.824 521.055C293.776 521.223 299.314 521.78 303.992 522.836C308.689 523.896 312.422 525.437 314.852 527.504L316.148 525.981C313.36 523.609 309.26 521.975 304.433 520.885C299.587 519.791 293.91 519.226 287.88 519.056C275.82 518.716 262.238 519.959 250.839 521.817L251.161 523.791ZM315.01 527.615C325.722 533.637 340.439 536.047 353.184 536.756C359.574 537.112 365.505 537.043 370.243 536.775C374.954 536.51 378.558 536.045 380.26 535.587L379.74 533.656C378.253 534.056 374.828 534.514 370.131 534.779C365.461 535.042 359.606 535.111 353.295 534.76C340.639 534.055 326.295 531.666 315.99 525.871L315.01 527.615Z" fill="black"/>
<path d="M6.61932 395.454V409.999H4.85795V397.3H4.77273L1.22159 399.658V397.868L4.85795 395.454H6.61932Z" fill="black"/>
<path d="M401.506 18.999V17.7206L406.307 12.4649C406.87 11.8494 407.334 11.3144 407.699 10.8598C408.063 10.4005 408.333 9.96967 408.509 9.5672C408.688 9.16001 408.778 8.73387 408.778 8.2888C408.778 7.77743 408.655 7.33472 408.409 6.96067C408.168 6.58662 407.836 6.29779 407.415 6.09419C406.993 5.8906 406.52 5.7888 405.994 5.7888C405.436 5.7888 404.948 5.9048 404.531 6.13681C404.119 6.36408 403.8 6.68368 403.572 7.09561C403.35 7.50755 403.239 7.9905 403.239 8.54448H401.562C401.562 7.6922 401.759 6.9441 402.152 6.30016C402.545 5.65622 403.08 5.15433 403.757 4.79448C404.439 4.43463 405.204 4.2547 406.051 4.2547C406.903 4.2547 407.659 4.43463 408.317 4.79448C408.975 5.15433 409.491 5.63965 409.865 6.25044C410.239 6.86124 410.426 7.54069 410.426 8.2888C410.426 8.82383 410.329 9.34703 410.135 9.8584C409.946 10.365 409.614 10.9308 409.141 11.5558C408.672 12.1761 408.021 12.9337 407.188 13.8286L403.92 17.3229V17.4365H410.682V18.999H401.506ZM414.865 19.1127C414.515 19.1127 414.214 18.9872 413.963 18.7362C413.712 18.4853 413.587 18.1846 413.587 17.8343C413.587 17.4839 413.712 17.1832 413.963 16.9323C414.214 16.6813 414.515 16.5558 414.865 16.5558C415.215 16.5558 415.516 16.6813 415.767 16.9323C416.018 17.1832 416.143 17.4839 416.143 17.8343C416.143 18.0663 416.084 18.2793 415.966 18.4735C415.852 18.6676 415.698 18.8238 415.504 18.9422C415.315 19.0558 415.102 19.1127 414.865 19.1127ZM422.498 4.45357V18.999H420.737V6.30016H420.652L417.1 8.65811V6.86834L420.737 4.45357H422.498Z" fill="black"/>
<path d="M591.506 473V471.722L596.307 466.466C596.87 465.85 597.334 465.315 597.699 464.861C598.063 464.402 598.333 463.971 598.509 463.568C598.688 463.161 598.778 462.735 598.778 462.29C598.778 461.778 598.655 461.336 598.409 460.962C598.168 460.588 597.836 460.299 597.415 460.095C596.993 459.892 596.52 459.79 595.994 459.79C595.436 459.79 594.948 459.906 594.531 460.138C594.119 460.365 593.8 460.685 593.572 461.097C593.35 461.509 593.239 461.991 593.239 462.545H591.562C591.562 461.693 591.759 460.945 592.152 460.301C592.545 459.657 593.08 459.155 593.757 458.795C594.439 458.436 595.204 458.256 596.051 458.256C596.903 458.256 597.659 458.436 598.317 458.795C598.975 459.155 599.491 459.641 599.865 460.251C600.239 460.862 600.426 461.542 600.426 462.29C600.426 462.825 600.329 463.348 600.135 463.859C599.946 464.366 599.614 464.932 599.141 465.557C598.672 466.177 598.021 466.935 597.188 467.83L593.92 471.324V471.438H600.682V473H591.506ZM604.865 473.114C604.515 473.114 604.214 472.988 603.963 472.737C603.712 472.486 603.587 472.186 603.587 471.835C603.587 471.485 603.712 471.184 603.963 470.933C604.214 470.682 604.515 470.557 604.865 470.557C605.215 470.557 605.516 470.682 605.767 470.933C606.018 471.184 606.143 471.485 606.143 471.835C606.143 472.067 606.084 472.28 605.966 472.474C605.852 472.669 605.698 472.825 605.504 472.943C605.315 473.057 605.102 473.114 604.865 473.114ZM608.782 470.017V468.568L615.174 458.455H616.225V460.699H615.515L610.685 468.341V468.455H619.293V470.017H608.782ZM615.629 473V469.577V468.902V458.455H617.305V473H615.629Z" fill="black"/>
<path d="M298.506 507V505.722L303.307 500.466C303.87 499.85 304.334 499.315 304.699 498.861C305.063 498.402 305.333 497.971 305.509 497.568C305.688 497.161 305.778 496.735 305.778 496.29C305.778 495.778 305.655 495.336 305.409 494.962C305.168 494.588 304.836 494.299 304.415 494.095C303.993 493.892 303.52 493.79 302.994 493.79C302.436 493.79 301.948 493.906 301.531 494.138C301.119 494.365 300.8 494.685 300.572 495.097C300.35 495.509 300.239 495.991 300.239 496.545H298.562C298.562 495.693 298.759 494.945 299.152 494.301C299.545 493.657 300.08 493.155 300.757 492.795C301.439 492.436 302.204 492.256 303.051 492.256C303.903 492.256 304.659 492.436 305.317 492.795C305.975 493.155 306.491 493.641 306.865 494.251C307.239 494.862 307.426 495.542 307.426 496.29C307.426 496.825 307.329 497.348 307.135 497.859C306.946 498.366 306.614 498.932 306.141 499.557C305.672 500.177 305.021 500.935 304.188 501.83L300.92 505.324V505.438H307.682V507H298.506ZM311.865 507.114C311.515 507.114 311.214 506.988 310.963 506.737C310.712 506.486 310.587 506.186 310.587 505.835C310.587 505.485 310.712 505.184 310.963 504.933C311.214 504.682 311.515 504.557 311.865 504.557C312.215 504.557 312.516 504.682 312.767 504.933C313.018 505.184 313.143 505.485 313.143 505.835C313.143 506.067 313.084 506.28 312.966 506.474C312.852 506.669 312.698 506.825 312.504 506.943C312.315 507.057 312.102 507.114 311.865 507.114ZM320.491 507.199C319.553 507.199 318.718 507.038 317.984 506.716C317.254 506.394 316.674 505.946 316.244 505.374C315.817 504.796 315.585 504.126 315.548 503.364H317.337C317.375 503.832 317.536 504.237 317.82 504.578C318.104 504.914 318.476 505.175 318.935 505.359C319.395 505.544 319.904 505.636 320.462 505.636C321.087 505.636 321.641 505.527 322.124 505.31C322.607 505.092 322.986 504.789 323.261 504.401C323.535 504.012 323.673 503.562 323.673 503.051C323.673 502.516 323.54 502.045 323.275 501.638C323.01 501.226 322.621 500.904 322.11 500.672C321.599 500.44 320.974 500.324 320.235 500.324H319.07V498.761H320.235C320.813 498.761 321.319 498.657 321.755 498.449C322.195 498.241 322.539 497.947 322.785 497.568C323.036 497.189 323.161 496.744 323.161 496.233C323.161 495.741 323.052 495.312 322.835 494.947C322.617 494.583 322.309 494.299 321.911 494.095C321.518 493.892 321.054 493.79 320.519 493.79C320.017 493.79 319.544 493.882 319.099 494.067C318.658 494.247 318.299 494.509 318.019 494.855C317.74 495.196 317.588 495.608 317.565 496.091H315.86C315.888 495.329 316.118 494.661 316.549 494.088C316.98 493.51 317.543 493.061 318.239 492.739C318.94 492.417 319.71 492.256 320.548 492.256C321.447 492.256 322.219 492.438 322.863 492.803C323.507 493.162 324.002 493.638 324.347 494.23C324.693 494.822 324.866 495.461 324.866 496.148C324.866 496.967 324.65 497.665 324.219 498.243C323.793 498.821 323.213 499.221 322.479 499.443V499.557C323.398 499.708 324.115 500.099 324.631 500.729C325.147 501.354 325.406 502.128 325.406 503.051C325.406 503.842 325.19 504.552 324.759 505.182C324.333 505.807 323.751 506.299 323.012 506.659C322.273 507.019 321.433 507.199 320.491 507.199Z" fill="black"/>
<path d="M146.5 581.499C219.333 575.499 342.5 581.111 386.5 592.499C457.5 610.875 659 592.499 682.5 454.999" stroke="black" stroke-dasharray="10 10"/>
<path d="M367.506 784V782.722L372.307 777.466C372.87 776.85 373.334 776.315 373.699 775.861C374.063 775.402 374.333 774.971 374.509 774.568C374.688 774.161 374.778 773.735 374.778 773.29C374.778 772.778 374.655 772.336 374.409 771.962C374.168 771.588 373.836 771.299 373.415 771.095C372.993 770.892 372.52 770.79 371.994 770.79C371.436 770.79 370.948 770.906 370.531 771.138C370.119 771.365 369.8 771.685 369.572 772.097C369.35 772.509 369.239 772.991 369.239 773.545H367.562C367.562 772.693 367.759 771.945 368.152 771.301C368.545 770.657 369.08 770.155 369.757 769.795C370.439 769.436 371.204 769.256 372.051 769.256C372.903 769.256 373.659 769.436 374.317 769.795C374.975 770.155 375.491 770.641 375.865 771.251C376.239 771.862 376.426 772.542 376.426 773.29C376.426 773.825 376.329 774.348 376.135 774.859C375.946 775.366 375.614 775.932 375.141 776.557C374.672 777.177 374.021 777.935 373.188 778.83L369.92 782.324V782.438H376.682V784H367.506ZM380.865 784.114C380.515 784.114 380.214 783.988 379.963 783.737C379.712 783.486 379.587 783.186 379.587 782.835C379.587 782.485 379.712 782.184 379.963 781.933C380.214 781.682 380.515 781.557 380.865 781.557C381.215 781.557 381.516 781.682 381.767 781.933C382.018 782.184 382.143 782.485 382.143 782.835C382.143 783.067 382.084 783.28 381.966 783.474C381.852 783.669 381.698 783.825 381.504 783.943C381.315 784.057 381.102 784.114 380.865 784.114ZM385.123 784V782.722L389.924 777.466C390.487 776.85 390.951 776.315 391.316 775.861C391.681 775.402 391.951 774.971 392.126 774.568C392.306 774.161 392.396 773.735 392.396 773.29C392.396 772.778 392.272 772.336 392.026 771.962C391.785 771.588 391.453 771.299 391.032 771.095C390.611 770.892 390.137 770.79 389.612 770.79C389.053 770.79 388.565 770.906 388.148 771.138C387.737 771.365 387.417 771.685 387.19 772.097C386.967 772.509 386.856 772.991 386.856 773.545H385.18C385.18 772.693 385.376 771.945 385.769 771.301C386.162 770.657 386.697 770.155 387.374 769.795C388.056 769.436 388.821 769.256 389.668 769.256C390.521 769.256 391.276 769.436 391.934 769.795C392.592 770.155 393.108 770.641 393.482 771.251C393.856 771.862 394.043 772.542 394.043 773.29C394.043 773.825 393.946 774.348 393.752 774.859C393.563 775.366 393.231 775.932 392.758 776.557C392.289 777.177 391.638 777.935 390.805 778.83L387.538 782.324V782.438H394.299V784H385.123Z" fill="black"/>
<circle cx="140.5" cy="115.5" r="30.5" fill="black"/>
</svg>
