<svg width="687" height="709" viewBox="0 0 687 709" fill="none" xmlns="http://www.w3.org/2000/svg">
<path d="M223.372 54.001V134.558C246.898 46.1593 458.627 -31.5463 531.342 84.6554C589.515 177.617 531.342 270.245 494.985 304.94C449.36 369.956 361.911 395.239 323.89 399.754C340.287 423.28 393.041 487.44 393.041 491.005C486.002 608.49 543.937 593.186 561.284 570.849C592.651 548.607 619.504 460.826 629.009 419.715C629.722 408.072 635.995 385.639 655.386 389.061C674.777 392.483 682.476 413.775 683.902 423.993C669.644 508.827 638.277 561.581 611.899 602.216C590.798 634.724 539.897 652.832 517.085 657.822C491.658 661.149 429.399 660.388 383.773 630.732C338.148 601.076 309.157 571.8 300.365 560.868C243.904 500.985 223.61 434.686 220.521 409.022C221.471 466.529 224.513 594.232 229.075 644.99C233.638 695.748 195.332 707.012 175.608 706.299C118.577 707.439 100.992 657.822 99.3287 632.871C71.3832 461.206 83.4074 199.669 92.9126 90.3585C97.4751 45.8739 140.914 33.3271 162.063 32.6142C202.556 30.9033 219.808 46.1592 223.372 54.001Z" stroke="black" stroke-width="5"/>
<path d="M6.61932 354.455V369H4.85795V356.301H4.77273L1.22159 358.659V356.869L4.85795 354.455H6.61932Z" fill="black"/>
<path d="M612.619 140.455V155H610.858V142.301H610.773L607.222 144.659V142.869L610.858 140.455H612.619ZM617.193 155.114C616.843 155.114 616.542 154.988 616.291 154.737C616.04 154.486 615.915 154.186 615.915 153.835C615.915 153.485 616.04 153.184 616.291 152.933C616.542 152.682 616.843 152.557 617.193 152.557C617.544 152.557 617.844 152.682 618.095 152.933C618.346 153.184 618.472 153.485 618.472 153.835C618.472 154.067 618.412 154.28 618.294 154.474C618.18 154.669 618.027 154.825 617.832 154.943C617.643 155.057 617.43 155.114 617.193 155.114ZM621.451 155V153.722L626.252 148.466C626.816 147.85 627.28 147.315 627.644 146.861C628.009 146.402 628.279 145.971 628.454 145.568C628.634 145.161 628.724 144.735 628.724 144.29C628.724 143.778 628.601 143.336 628.354 142.962C628.113 142.588 627.781 142.299 627.36 142.095C626.939 141.892 626.465 141.79 625.94 141.79C625.381 141.79 624.893 141.906 624.477 142.138C624.065 142.365 623.745 142.685 623.518 143.097C623.295 143.509 623.184 143.991 623.184 144.545H621.508C621.508 143.693 621.704 142.945 622.097 142.301C622.49 141.657 623.025 141.155 623.702 140.795C624.384 140.436 625.149 140.256 625.996 140.256C626.849 140.256 627.604 140.436 628.262 140.795C628.92 141.155 629.436 141.641 629.81 142.251C630.184 142.862 630.371 143.542 630.371 144.29C630.371 144.825 630.274 145.348 630.08 145.859C629.891 146.366 629.559 146.932 629.086 147.557C628.617 148.177 627.966 148.935 627.133 149.83L623.866 153.324V153.438H630.627V155H621.451Z" fill="black"/>
<path d="M511.619 488.455V503H509.858V490.301H509.773L506.222 492.659V490.869L509.858 488.455H511.619ZM516.193 503.114C515.843 503.114 515.542 502.988 515.291 502.737C515.04 502.486 514.915 502.186 514.915 501.835C514.915 501.485 515.04 501.184 515.291 500.933C515.542 500.682 515.843 500.557 516.193 500.557C516.544 500.557 516.844 500.682 517.095 500.933C517.346 501.184 517.472 501.485 517.472 501.835C517.472 502.067 517.412 502.28 517.294 502.474C517.18 502.669 517.027 502.825 516.832 502.943C516.643 503.057 516.43 503.114 516.193 503.114ZM520.451 503V501.722L525.252 496.466C525.816 495.85 526.28 495.315 526.644 494.861C527.009 494.402 527.279 493.971 527.454 493.568C527.634 493.161 527.724 492.735 527.724 492.29C527.724 491.778 527.601 491.336 527.354 490.962C527.113 490.588 526.781 490.299 526.36 490.095C525.939 489.892 525.465 489.79 524.94 489.79C524.381 489.79 523.893 489.906 523.477 490.138C523.065 490.365 522.745 490.685 522.518 491.097C522.295 491.509 522.184 491.991 522.184 492.545H520.508C520.508 491.693 520.704 490.945 521.097 490.301C521.49 489.657 522.025 489.155 522.702 488.795C523.384 488.436 524.149 488.256 524.996 488.256C525.849 488.256 526.604 488.436 527.262 488.795C527.92 489.155 528.436 489.641 528.81 490.251C529.184 490.862 529.371 491.542 529.371 492.29C529.371 492.825 529.274 493.348 529.08 493.859C528.891 494.366 528.559 494.932 528.086 495.557C527.617 496.177 526.966 496.935 526.133 497.83L522.866 501.324V501.438H529.627V503H520.451Z" fill="black"/>
<path d="M60.4706 539.848C60.9391 540.141 61.556 539.998 61.8484 539.529L66.613 531.894C66.9054 531.426 66.7626 530.809 66.294 530.516C65.8255 530.224 65.2086 530.367 64.9163 530.835L60.681 537.622L53.8941 533.387C53.4255 533.095 52.8087 533.237 52.5163 533.706C52.2239 534.175 52.3667 534.791 52.8353 535.084L60.4706 539.848ZM46.6136 147.972C45.2321 197.548 44.2438 276.59 45.7688 352.607C47.293 428.583 51.3286 501.658 60.0258 539.226L61.9742 538.774C53.3323 501.446 49.2934 428.585 47.7684 352.567C46.2442 276.589 47.232 197.579 48.6128 148.028L46.6136 147.972Z" fill="black"/>
<path d="M151.5 73.5V659.5" stroke="black" stroke-width="2" stroke-dasharray="10 10"/>
<path d="M154 268.046C190.035 205.788 271.655 90.3633 349.608 67.5726C503.093 22.6991 581.574 218.735 423.052 317.851L297.98 370.646L185.511 403.021L154.001 409" stroke="black" stroke-width="2" stroke-dasharray="10 10"/>
<path d="M265 381C265 451 532.5 857.5 659 439.5" stroke="black" stroke-width="2" stroke-dasharray="10 10"/>
<path d="M550.547 281.372C550.753 282.175 551.57 282.659 552.372 282.453L565.45 279.102C566.252 278.896 566.736 278.079 566.531 277.277C566.325 276.474 565.508 275.99 564.705 276.196L553.081 279.175L550.102 267.55C549.896 266.748 549.079 266.264 548.277 266.469C547.474 266.675 546.99 267.492 547.196 268.295L550.547 281.372ZM417.784 3.48444C463.525 10.1255 524.894 31.9794 560.727 75.7502C578.611 97.5955 590.152 124.916 590.233 158.622C590.314 192.355 578.915 232.594 550.709 280.236L553.291 281.764C581.685 233.806 593.315 193.037 593.233 158.615C593.15 124.167 581.335 96.1879 563.048 73.8498C526.54 29.254 464.309 7.20784 418.216 0.515565L417.784 3.48444Z" fill="black"/>
<path d="M565.87 497.389C565.532 496.632 564.646 496.293 563.889 496.63L551.56 502.129C550.803 502.467 550.464 503.354 550.801 504.11C551.138 504.867 552.025 505.207 552.782 504.869L563.741 499.981L568.629 510.94C568.967 511.697 569.854 512.036 570.61 511.699C571.367 511.362 571.707 510.475 571.369 509.718L565.87 497.389ZM461.767 508.354C467.079 516.027 474.209 524.354 482.422 531.266C490.623 538.169 499.99 543.734 509.773 545.744C519.618 547.767 529.819 546.171 539.503 538.866C549.132 531.603 558.147 518.776 565.901 498.537L563.099 497.463C555.453 517.424 546.705 529.676 537.697 536.471C528.744 543.224 519.432 544.666 510.377 542.806C501.26 540.933 492.34 535.693 484.353 528.971C476.378 522.258 469.421 514.14 464.233 506.646L461.767 508.354Z" fill="black"/>
<circle cx="154.5" cy="91.5" r="30.5" fill="black"/>
</svg>
