<?xml version="1.0" encoding="UTF-8"?>
<svg version="1.1" xmlns="http://www.w3.org/2000/svg" width="625" height="702">
<path d="M0 0 C2.98446806 2.63579979 5.81526516 5.41722181 8.64453125 8.21875 C9.63489117 9.15168348 10.62711146 10.08264564 11.62109375 11.01171875 C35.12007672 33.28770632 49.99420334 63.68929698 59.64453125 94.21875 C59.88155762 94.96447266 60.11858398 95.71019531 60.36279297 96.47851562 C61.98554258 101.68150724 63.37187149 106.92001686 64.64453125 112.21875 C64.84208008 113.00862305 65.03962891 113.79849609 65.24316406 114.61230469 C71.83930102 141.9576646 70.1723236 172.66552664 65.64453125 200.21875 C65.44585449 201.4454541 65.24717773 202.6721582 65.04248047 203.93603516 C57.13910504 251.55165208 43.15081987 294.9384981 14.64453125 334.21875 C14.09104004 334.98767578 13.53754883 335.75660156 12.96728516 336.54882812 C2.11408894 351.61496169 -9.30475125 366.09920552 -21.9921875 379.66796875 C-23.93494338 381.76486064 -25.77890033 383.89724368 -27.60546875 386.09375 C-65.95165059 429.98286334 -125.71441576 455.18696192 -182.35546875 462.21875 C-183.72735352 462.39664063 -183.72735352 462.39664063 -185.12695312 462.578125 C-222.91192517 467.36897429 -259.07943821 464.73610369 -291.35546875 443.21875 C-291.00202153 452.05302319 -290.62364539 460.88616398 -290.23046875 469.71875 C-290.19997311 470.40474274 -290.16947746 471.09073547 -290.13805771 471.79751587 C-288.76836572 502.42400524 -286.70838821 532.99728002 -284.54184246 563.57644653 C-284.34129461 566.40793654 -284.14160514 569.23948608 -283.94203186 572.07104492 C-283.69623758 575.55781209 -283.44632586 579.04424746 -283.19358826 582.53051758 C-283.08182969 584.10301953 -282.97017517 585.67552888 -282.85864258 587.24804688 C-282.80724562 587.94173622 -282.75584866 588.63542557 -282.70289421 589.3501358 C-281.60238062 605.06275153 -285.65395776 616.92122117 -295.41796875 629.34375 C-305.53621246 640.28119506 -319.18830425 644.96006624 -333.71484375 645.55859375 C-352.52722287 645.97888582 -373.58714004 645.8703339 -388.66796875 633.03125 C-393.32441026 628.50806119 -396.93757385 623.72055128 -400.35546875 618.21875 C-400.74766602 617.60467285 -401.13986328 616.9905957 -401.54394531 616.35791016 C-423.78289155 581.38088668 -424.29021861 535.03924449 -428.04296875 494.78125 C-428.14561035 493.70341248 -428.24825195 492.62557495 -428.35400391 491.51507568 C-431.79614424 455.03686834 -432.74550396 418.38774454 -433.82519531 381.77990723 C-433.94888469 377.61531839 -434.07620476 373.45084405 -434.20360756 369.28636742 C-434.51498905 359.10802917 -434.81717239 348.92946642 -435.10869789 338.75053978 C-435.2398405 334.17870741 -435.37314 329.60698014 -435.51483154 325.03546143 C-436.96421041 278.25246035 -436.18102063 231.54610353 -435.07586515 184.76639831 C-434.93385724 178.74284177 -434.79710677 172.71917515 -434.6617952 166.69546491 C-434.49625837 159.32714932 -434.32753697 151.95890924 -434.15767169 144.59069228 C-434.11033304 142.52998604 -434.06350462 140.46926875 -434.01678658 138.40854836 C-433.70778698 124.87915527 -433.3576464 111.35361458 -432.84228516 97.83032227 C-432.78196279 96.24587295 -432.78196279 96.24587295 -432.72042179 94.62941456 C-432.40991485 86.84428492 -431.94082503 79.0985208 -431.16796875 71.34375 C-430.98113525 69.45523315 -430.98113525 69.45523315 -430.79052734 67.52856445 C-424.05802292 2.58295743 -424.05802292 2.58295743 -404.66796875 -13.96875 C-394.04618622 -21.96787017 -383.13525509 -27.25036943 -370.35546875 -30.78125 C-369.49179687 -31.02746094 -368.628125 -31.27367187 -367.73828125 -31.52734375 C-344.84132995 -36.83095068 -317.32196526 -32.40949352 -297.23046875 -20.34375 C-294.78515625 -18.78515625 -294.78515625 -18.78515625 -292.35546875 -16.78125 C-291.82074951 -16.38180176 -291.28603027 -15.98235352 -290.73510742 -15.57080078 C-287.62015201 -12.7573815 -286.47470333 -10.59879938 -285.86328125 -6.40649414 C-285.72282875 -2.09901821 -285.78479451 2.16302663 -285.91796875 6.46875 C-285.94521735 8.06905104 -285.96991492 9.66939736 -285.9921875 11.26977539 C-286.05872718 15.42819518 -286.1637462 19.58457618 -286.28399658 23.74176025 C-286.35370605 26.15766063 -286.41779557 28.5736414 -286.47998047 30.98974609 C-286.63648473 37.00871434 -286.800772 43.02731974 -286.99609375 49.04516602 C-287.35368042 60.10604689 -287.47114443 71.1524429 -287.35546875 82.21875 C-286.57236328 80.47464844 -286.57236328 80.47464844 -285.7734375 78.6953125 C-278.11421232 61.92099096 -269.10448207 46.46117972 -257.35546875 32.21875 C-256.91154785 31.67331543 -256.46762695 31.12788086 -256.01025391 30.56591797 C-244.84164322 16.9013964 -232.49257986 3.83658027 -218.35546875 -6.78125 C-217.82775879 -7.18005371 -217.30004883 -7.57885742 -216.75634766 -7.98974609 C-154.19936226 -54.96609287 -60.00777381 -50.94419386 0 0 Z M-227.77734375 9.79296875 C-230.02266236 11.90560944 -232.31447085 13.91655616 -234.66796875 15.90625 C-238.63813543 19.36387467 -241.96925161 23.19846033 -245.35546875 27.21875 C-246.16757812 28.13140625 -246.9796875 29.0440625 -247.81640625 29.984375 C-268.4194094 53.31441194 -281.72256917 80.50165336 -290.35546875 110.21875 C-292.00546875 110.21875 -293.65546875 110.21875 -295.35546875 110.21875 C-295.28908203 109.55077518 -295.22269531 108.88280037 -295.15429688 108.19458389 C-294.52148059 101.5807497 -294.10568503 94.98904667 -293.85546875 88.35058594 C-293.79449257 86.81422485 -293.79449257 86.81422485 -293.73228455 85.24682617 C-293.36773059 75.90440309 -293.04591504 66.56035819 -292.73719788 57.21593857 C-292.52999225 50.95320671 -292.30864646 44.69166972 -292.05419922 38.43066406 C-291.80737397 32.34986678 -291.59573484 26.26878714 -291.40893555 20.18585968 C-291.33197578 17.8745909 -291.24256972 15.56370114 -291.14038086 13.25341034 C-290.99998742 10.02548175 -290.90487238 6.799143 -290.8203125 3.56933594 C-290.7686644 2.62060608 -290.7170163 1.67187622 -290.6638031 0.69439697 C-290.60305824 -3.10091598 -290.61717768 -5.71765254 -292.82290649 -8.8952713 C-296.66814176 -12.84950418 -300.89471698 -15.61123241 -305.85546875 -17.96875 C-306.54181396 -18.30334229 -307.22815918 -18.63793457 -307.93530273 -18.98266602 C-330.34554087 -29.4971551 -356.94680052 -29.71620786 -380.04296875 -21.53125 C-391.60069817 -16.80181593 -400.64344077 -9.5580033 -409.35546875 -0.78125 C-410.06832031 -0.07742187 -410.78117187 0.62640625 -411.515625 1.3515625 C-414.33087921 5.73881641 -415.22083932 10.42020845 -416.35546875 15.46875 C-416.61110596 16.57847168 -416.86674316 17.68819336 -417.13012695 18.83154297 C-419.76102027 30.55180442 -421.78566273 42.3121553 -423.35546875 54.21875 C-423.49581543 55.25821777 -423.63616211 56.29768555 -423.78076172 57.36865234 C-427.54247243 86.4565567 -427.62457552 115.93639798 -428.35546875 145.21875 C-428.37755653 146.09916206 -428.39964432 146.97957413 -428.42240143 147.88666534 C-429.17274905 177.85476594 -429.81251067 207.82445802 -430.31482697 237.79776764 C-430.3518487 240.0031082 -430.38969236 242.20843313 -430.42767334 244.41375732 C-431.01067565 279.30274792 -429.95230944 314.15801537 -428.98046875 349.03125 C-428.94879734 350.16827866 -428.91712593 351.30530731 -428.88449478 352.47679138 C-428.16667922 378.10793272 -427.34093204 403.7339035 -426.3359375 429.35546875 C-426.29646122 430.38085062 -426.25698494 431.40623249 -426.21631241 432.46268654 C-425.53471208 450.0369734 -424.46124805 467.55471879 -422.83251953 485.06738281 C-422.4889085 488.77476021 -422.14930709 492.4824721 -421.81201172 496.19042969 C-418.74759487 553.21941442 -418.74759487 553.21941442 -400.35546875 606.21875 C-399.95602051 606.89486328 -399.55657227 607.57097656 -399.14501953 608.26757812 C-390.73127019 622.36612051 -383.10750888 632.94671185 -366.35546875 637.21875 C-346.41747778 641.40185901 -324.1654281 642.25927378 -306.56640625 630.83984375 C-297.20860183 623.97855606 -291.14521033 614.47051783 -288.35546875 603.21875 C-288.08929232 600.09021442 -288.27751991 597.06043798 -288.515625 593.93359375 C-288.57170425 593.00683334 -288.62778351 592.08007294 -288.68556213 591.12522888 C-288.89091348 587.82167389 -289.12366145 584.52055059 -289.35546875 581.21875 C-289.53363651 578.49112152 -289.7105014 575.76342919 -289.88623047 573.03564453 C-290.3380021 566.0808311 -290.80908146 559.1274419 -291.28657818 552.17435265 C-296.42937694 477.25155439 -296.42937694 477.25155439 -296.6499939 451.61022949 C-296.66731991 449.60629539 -296.69443163 447.60245322 -296.72192383 445.59863281 C-296.72087646 444.4175293 -296.7198291 443.23642578 -296.71875 442.01953125 C-296.72173096 440.98997314 -296.72471191 439.96041504 -296.7277832 438.8996582 C-296.30458254 435.85233589 -295.39292116 434.47708636 -293.35546875 432.21875 C-292.71609375 432.899375 -292.07671875 433.58 -291.41796875 434.28125 C-271.08934265 454.2720042 -242.34670223 458.73824409 -214.94165039 458.64233398 C-142.43182436 457.62773398 -78.40329191 429.2178459 -27.609375 377.6328125 C-24.0044943 373.90405632 -20.70013481 369.97871425 -17.484375 365.91015625 C-15.23136141 363.061851 -12.89373859 360.29927218 -10.54296875 357.53125 C39.27387808 297.73568193 69.01112333 219.26591258 63.24780273 140.38964844 C58.88941941 94.16747837 39.10782498 50.85070498 8.64453125 16.21875 C8.02449219 15.51234375 7.40445312 14.8059375 6.765625 14.078125 C-21.10880465 -15.60471284 -68.13845604 -33.19091263 -108.26928711 -34.90576172 C-154.93174305 -36.06360335 -193.72269371 -22.3542487 -227.77734375 9.79296875 Z " fill="#000000" transform="translate(520.35546875,56.78125)"/>
<path d="M0 0 C0.57492187 0.41378906 1.14984375 0.82757813 1.7421875 1.25390625 C20.61612914 17.31772769 22.4695559 52.2130326 24.5859375 74.75 C26.48653567 99.76703296 24.91402347 124.15693985 20.70117188 148.83251953 C20.00499306 152.92143683 19.38089345 157.01935624 18.765625 161.12109375 C16.5223876 175.78560829 13.62080247 189.89967287 9 204 C8.75056641 204.78358887 8.50113281 205.56717773 8.24414062 206.37451172 C0.04184953 231.97767871 -11.72052547 256.1530633 -24 280 C-29.82453139 278.14021636 -35.4585479 276.03451183 -41.10327148 273.68847656 C-70.93843143 261.33690837 -101.92220796 252.17141414 -134 248 C-134.98782471 247.85860596 -134.98782471 247.85860596 -135.99560547 247.71435547 C-143.303575 246.76188287 -150.64030141 246.75648819 -158 246.75 C-159.0321312 246.74898788 -159.0321312 246.74898788 -160.08511353 246.74795532 C-176.11660932 246.77291015 -191.76211618 247.85452474 -205.703125 256.71875 C-206.46109375 257.1415625 -207.2190625 257.564375 -208 258 C-208.66 257.67 -209.32 257.34 -210 257 C-202.44270312 234.23190405 -194.87982178 211.46545386 -187.14605713 188.75656128 C-186.55413757 187.01819824 -185.96309699 185.27953562 -185.37298584 183.54055786 C-183.6105736 178.35012721 -181.82531577 173.16865566 -180 168 C-179.65380615 167.01427002 -179.3076123 166.02854004 -178.95092773 165.01293945 C-176.61584719 158.75550632 -173.33054688 153.43380357 -169.5625 147.9375 C-168.64150513 146.5772168 -168.64150513 146.5772168 -167.7019043 145.18945312 C-159.31053292 132.91264989 -150.23346185 121.23851135 -140.5390625 109.96875 C-138.18901474 107.22100184 -135.89863625 104.43604119 -133.625 101.625 C-126.27254956 92.60213596 -118.62336432 83.82131419 -110.75 75.25 C-107.6199851 71.83908633 -104.64176212 68.36470264 -101.75 64.75 C-96.86753341 58.69469891 -91.54793506 53.0880579 -86.21875 47.4296875 C-81.85319867 42.79253509 -77.67151604 38.0283257 -73.62109375 33.11328125 C-67.36735074 25.58475406 -60.74155715 18.47421539 -53.875 11.5 C-53.05233643 10.65147461 -52.22967285 9.80294922 -51.38208008 8.92871094 C-38.20575605 -4.28827671 -16.94395554 -12.81028522 0 0 Z M-58.86328125 25.05859375 C-59.98981579 26.34569184 -61.10971395 27.63863087 -62.22265625 28.9375 C-64.2797624 31.32464736 -66.38684772 33.66234756 -68.5 36 C-71.18983431 38.98062721 -73.86310364 41.97245233 -76.5 45 C-79.13689636 48.02754767 -81.81016569 51.01937279 -84.5 54 C-89.32121275 59.34789986 -94.07894027 64.74302215 -98.75 70.22265625 C-103.49079323 75.78122479 -108.24086217 81.30937974 -113.1875 86.6875 C-117.14305651 91.00094019 -120.86340509 95.45200175 -124.53515625 100.0078125 C-126.83985476 102.8055923 -129.20499136 105.53182901 -131.60083008 108.25097656 C-138.5997334 116.2041345 -145.11814632 124.44288883 -151.45214844 132.93310547 C-153.34835941 135.4651752 -155.27285277 137.9749199 -157.20361328 140.48071289 C-167.36660195 154.16239972 -174.27627368 168.14144134 -179.6015625 184.30078125 C-180.17286626 185.99747496 -180.74534931 187.693772 -181.31893921 189.38969421 C-182.50350389 192.90323384 -183.6772184 196.42013374 -184.84228516 199.94018555 C-186.33678331 204.45413379 -187.85397406 208.96005837 -189.3785038 213.46394062 C-190.55572427 216.94702328 -191.72370414 220.43314549 -192.88859177 223.9203701 C-193.44533166 225.58494176 -194.00436079 227.24874958 -194.56572342 228.91176796 C-195.34276688 231.21993835 -196.10788413 233.53171381 -196.86962891 235.8449707 C-197.10220398 236.52905502 -197.33477905 237.21313934 -197.57440186 237.91795349 C-198.88291971 241.91850694 -198.88291971 241.91850694 -198 246 C-196.9378125 245.72285156 -195.875625 245.44570313 -194.78125 245.16015625 C-193.35423263 244.79401364 -191.92714552 244.42814278 -190.5 244.0625 C-189.45585937 243.78889648 -189.45585937 243.78889648 -188.390625 243.50976562 C-138.49371053 230.80453277 -76.64101088 250.84258177 -31.45214844 271.17529297 C-28.90950852 272.30436197 -28.90950852 272.30436197 -26 271 C-24.77341496 269.32299793 -24.77341496 269.32299793 -23.7578125 267.1796875 C-23.33798096 266.35033691 -22.91814941 265.52098633 -22.4855957 264.66650391 C-22.03659912 263.74530762 -21.58760254 262.82411133 -21.125 261.875 C-20.64957764 260.90868652 -20.17415527 259.94237305 -19.68432617 258.94677734 C-11.28701596 241.58680961 -3.70698807 223.69981109 2.5 205.4375 C2.78963623 204.59719238 3.07927246 203.75688477 3.37768555 202.89111328 C9.31630919 184.65634959 12.4136755 165.47047968 15.3125 146.5625 C15.48842682 145.41646301 15.66435364 144.27042603 15.84561157 143.08966064 C21.80410404 103.50871147 26.38207332 44.18233419 1.5625 9.8125 C-4.78030878 2.47690376 -11.50546918 0.98308494 -21 0 C-36.71663577 -0.83345796 -49.25764111 14.44607309 -58.86328125 25.05859375 Z " fill="#000000" transform="translate(430,95)"/>
<path d="M0 0 C6.517904 4.68956663 12.55343845 10.81246164 14 19 C14.7992898 30.25557271 13.99078008 38.31915226 6.75 47.25 C-0.08834923 54.50761378 -6.97998461 57.4951155 -17 58 C-26.40755507 57.33577781 -34.03039948 53.70881014 -40.4609375 46.8671875 C-47.45507361 38.38191578 -47.76979995 29.60124502 -47 19 C-44.975542 10.56069317 -38.97795811 3.7193806 -31.8125 -0.9375 C-22.69451393 -6.41571974 -8.7703344 -5.84114609 0 0 Z " fill="#000000" transform="translate(173,69)"/>
<path d="M0 0 C0 3 0 3 -1.80078125 4.9453125 C-2.62964844 5.66460937 -3.45851563 6.38390625 -4.3125 7.125 C-5.22773438 7.92292969 -6.14296875 8.72085938 -7.0859375 9.54296875 C-10.75928509 12.6402015 -14.48518714 15.66817012 -18.22265625 18.6875 C-21.02664716 21.02218723 -23.70192725 23.45452967 -26.375 25.9375 C-46.74179687 44.54206338 -66.49349846 52.92721262 -94.39404297 52.13623047 C-109.72473207 51.33479478 -123.54631377 46.45293565 -134 35 C-141.08146748 25.94389255 -143.19596841 15.98364511 -143.3125 4.75 C-143.34150391 3.83347656 -143.37050781 2.91695313 -143.40039062 1.97265625 C-143.45771964 -4.21005781 -142.64428189 -8.90062991 -139 -14 C-132.70734937 -19.89863567 -124.24582293 -21.56687384 -116 -23 C-114.741875 -23.226875 -113.48375 -23.45375 -112.1875 -23.6875 C-74.41105566 -27.3787534 -34.83383091 -12.85474223 0 0 Z M-135.17578125 -8.97265625 C-137.76947968 -4.74609414 -137.56238136 -1.17703308 -137.4375 3.6875 C-137.42283691 4.58509033 -137.40817383 5.48268066 -137.39306641 6.4074707 C-137.06909742 17.75979793 -134.25488238 26.83046689 -125.99609375 34.9765625 C-112.20102108 46.57528191 -93.18275099 47.24152825 -76 46 C-60.38488582 43.99674522 -48.25058646 36.85676044 -36.69726562 26.51171875 C-33.7924387 23.92445058 -30.831073 21.40334799 -27.875 18.875 C-27.29621094 18.37758301 -26.71742188 17.88016602 -26.12109375 17.36767578 C-20.82130171 12.82008335 -15.43155088 8.38957989 -10 4 C-13.12599945 1.37208395 -16.00306172 0.15573502 -19.890625 -1.05078125 C-21.06278564 -1.4166333 -22.23494629 -1.78248535 -23.44262695 -2.15942383 C-24.69906006 -2.53993896 -25.95549316 -2.9204541 -27.25 -3.3125 C-28.21889664 -3.60838516 -28.21889664 -3.60838516 -29.20736694 -3.9102478 C-83.26656837 -22.2243074 -83.26656837 -22.2243074 -135.17578125 -8.97265625 Z " fill="#000000" transform="translate(383,414)"/>
<path d="M0 0 C41.33623799 -1.81697749 79.60460499 16.43648265 110.0625 43.4375 C111.71504093 44.95104216 113.36106625 46.47173381 115 48 C115.73992187 48.68578125 116.47984375 49.3715625 117.2421875 50.078125 C123.90084126 56.47611971 129.52616298 63.58747115 135 71 C135.62044189 71.83797119 135.62044189 71.83797119 136.25341797 72.69287109 C165.29713137 112.55334837 176.73046088 161.68637414 181 210 C181.07202637 210.81307617 181.14405273 211.62615234 181.21826172 212.46386719 C182.44775572 227.26345282 182.09907377 242.163322 182 257 C182.928125 256.175 183.85625 255.35 184.8125 254.5 C187.625 252 187.625 252 191 252 C191 256 191 256 189.3203125 257.8515625 C188.59585938 258.43679688 187.87140625 259.02203125 187.125 259.625 C186.04605469 260.51058594 186.04605469 260.51058594 184.9453125 261.4140625 C184.30335938 261.93742187 183.66140625 262.46078125 183 263 C182.34 263.66 181.68 264.32 181 265 C177.89643488 264.90052676 176.88768895 263.89122192 174.640625 261.71484375 C173.85171875 260.79832031 173.0628125 259.88179688 172.25 258.9375 C171.45078125 258.01839844 170.6515625 257.09929687 169.828125 256.15234375 C169.22484375 255.44207031 168.6215625 254.73179687 168 254 C168.33 253.01 168.66 252.02 169 251 C172.23970264 251.347111 172.97998484 251.97614982 175.140625 254.55078125 C176.06101562 255.76314453 176.06101562 255.76314453 177 257 C177.68877742 204.54165231 172.30302764 151.75518513 149 104 C148.48832275 102.93990723 148.48832275 102.93990723 147.96630859 101.85839844 C142.39175512 90.43926188 135.63376504 80.14345924 128 70 C127.27296875 69.02675781 126.5459375 68.05351563 125.796875 67.05078125 C100.26150193 34.44932212 62.36551847 11.24955722 21.12890625 5.3671875 C19.58009766 5.18542969 19.58009766 5.18542969 18 5 C17.25991699 4.91266602 16.51983398 4.82533203 15.75732422 4.73535156 C10.50842391 4.12148135 5.25605928 3.54896619 0 3 C0 2.01 0 1.02 0 0 Z " fill="#000000" transform="translate(434,0)"/>
<path d="M0 0 C0.99 0 1.98 0 3 0 C2.87662406 5.16155746 2.75244518 10.32309494 2.62768555 15.48461914 C2.58582623 17.22029159 2.54414427 18.95596833 2.50268555 20.69165039 C2.44113002 23.26710305 2.37878093 25.84253581 2.31640625 28.41796875 C2.29416489 29.35535889 2.27192352 30.29274902 2.24900818 31.25854492 C2.12199634 36.48737038 1.98050459 41.71535522 1.81519127 46.94312382 C1.06506265 70.68503152 0.81210442 94.40970014 0.81469727 118.16308594 C0.81477839 122.12699967 0.80783072 126.09079746 0.79418945 130.0546875 C0.67194435 166.23776834 1.70309012 202.31327825 4.8125 238.375 C4.89448639 239.35590607 4.97647278 240.33681213 5.0609436 241.34744263 C6.37670616 257.06823187 7.95376188 272.75758072 9.6875 288.4375 C9.79591217 289.42232361 9.90432434 290.40714722 10.01602173 291.42181396 C10.32167556 294.17638733 10.63377669 296.93012586 10.94921875 299.68359375 C11.04073212 300.50191177 11.13224548 301.3202298 11.22653198 302.16334534 C11.64037325 306.20920394 11.64037325 306.20920394 13 310 C14.32 309.01 15.64 308.02 17 307 C17 311.71906188 15.71245796 313.27037031 13 317 C7.96014269 316.55530671 5.62365012 314.28656638 2 311 C2.33 310.34 2.66 309.68 3 309 C4.65 309.66 6.3 310.32 8 311 C7.89977539 310.04899414 7.79955078 309.09798828 7.69628906 308.11816406 C0.70236523 241.57597442 0.70236523 241.57597442 -1.1875 210.5 C-1.2592041 209.33033691 -1.3309082 208.16067383 -1.40478516 206.95556641 C-1.63005428 202.97142717 -1.8216041 198.98644473 -2 195 C-2.04236786 194.08330536 -2.08473572 193.16661072 -2.12838745 192.22213745 C-3.04964862 171.72104942 -3.19877518 151.23927048 -3.18867874 130.72151184 C-3.18748474 128.0280851 -3.18803769 125.33466221 -3.18869019 122.64123535 C-3.18735364 96.83222846 -2.84574653 71.04716477 -2.0625 45.25 C-2.04068539 44.52460651 -2.01887077 43.79921303 -1.99639511 43.05183792 C-1.85112666 38.24779755 -1.69629224 33.44416006 -1.53515625 28.640625 C-1.49655487 27.47226608 -1.45795349 26.30390717 -1.41818237 25.10014343 C-1.1180174 16.71871572 -0.59693018 8.36476723 0 0 Z " fill="#000000" transform="translate(56,199)"/>
<path d="M0 0 C11.14236618 -0.21948932 21.99498175 0.34418168 33.0625 1.625 C33.83125458 1.71203186 34.60000916 1.79906372 35.39205933 1.88873291 C61.56152854 4.88450553 87.72185079 9.39001192 112 20 C111.505 17.03 111.505 17.03 111 14 C111.99 14 112.98 14 114 14 C115.42258812 17.82320557 116.24042276 20.91281305 116 25 C114.73160474 25.50615298 113.46016898 26.00469099 112.1875 26.5 C111.47980469 26.7784375 110.77210938 27.056875 110.04296875 27.34375 C108 28 108 28 105 28 C105 27.01 105 26.02 105 25 C106.32 24.34 107.64 23.68 109 23 C75.72989212 9.80602579 40.06760816 4.95208329 4.45703125 3.2109375 C2 3 2 3 0 2 C0 1.34 0 0.68 0 0 Z " fill="#000000" transform="translate(261,309)"/>
<path d="M0 0 C1.4540625 0.0309375 1.4540625 0.0309375 2.9375 0.0625 C5.0625 4.6875 5.0625 4.6875 3.9375 8.0625 C4.26300502 9.73071323 4.59596063 11.39749557 4.9375 13.0625 C4.6075 13.7225 4.2775 14.3825 3.9375 15.0625 C1.125 15.9375 1.125 15.9375 -2.0625 16.0625 C-4.4375 14.125 -4.4375 14.125 -6.0625 12.0625 C-2.43923261 10.8547442 -1.42103631 11.51938872 1.9375 13.0625 C1.9375 11.7425 1.9375 10.4225 1.9375 9.0625 C0.6175 9.0625 -0.7025 9.0625 -2.0625 9.0625 C-2.0625 8.0725 -2.0625 7.0825 -2.0625 6.0625 C-0.7425 6.0625 0.5775 6.0625 1.9375 6.0625 C1.6075 5.0725 1.2775 4.0825 0.9375 3.0625 C-1.0425 3.7225 -3.0225 4.3825 -5.0625 5.0625 C-3.9375 0.08035714 -3.9375 0.08035714 0 0 Z " fill="#000000" transform="translate(327.0625,292.9375)"/>
<path d="M0 0 C3.0625 0.1875 3.0625 0.1875 5.0625 2.1875 C4.90004442 5.92397845 4.47466356 7.71288742 2 10.5625 C1.360625 11.09875 0.72125 11.635 0.0625 12.1875 C1.7125 12.5175 3.3625 12.8475 5.0625 13.1875 C5.0625 13.8475 5.0625 14.5075 5.0625 15.1875 C1.7625 15.1875 -1.5375 15.1875 -4.9375 15.1875 C-2.9375 11.1875 -2.9375 11.1875 -0.8125 8.625 C1.36735538 6.30372611 1.36735538 6.30372611 1.0625 3.1875 C0.4025 3.1875 -0.2575 3.1875 -0.9375 3.1875 C-1.2675 3.8475 -1.5975 4.5075 -1.9375 5.1875 C-2.9275 5.1875 -3.9175 5.1875 -4.9375 5.1875 C-3.82120474 0.24390669 -3.82120474 0.24390669 0 0 Z " fill="#000000" transform="translate(606.9375,56.8125)"/>
<path d="M0 0 C0.99 0 1.98 0 3 0 C2.34 3.3 1.68 6.6 1 10 C0.34 10 -0.32 10 -1 10 C-1 11.32 -1 12.64 -1 14 C-1.99 14 -2.98 14 -4 14 C-4.33 10.37 -4.66 6.74 -5 3 C-3.68 2.67 -2.36 2.34 -1 2 C-0.67 1.34 -0.34 0.68 0 0 Z " fill="#000000" transform="translate(167,409)"/>
<path d="M0 0 C0 4.95 0 9.9 0 15 C-0.99 15 -1.98 15 -3 15 C-3 11.37 -3 7.74 -3 4 C-3.99 4.33 -4.98 4.66 -6 5 C-5.625 3.0625 -5.625 3.0625 -5 1 C-3 0 -3 0 0 0 Z " fill="#000000" transform="translate(7,329)"/>
<path d="M0 0 C0 4.95 0 9.9 0 15 C-0.99 15 -1.98 15 -3 15 C-3 11.37 -3 7.74 -3 4 C-3.99 4.33 -4.98 4.66 -6 5 C-5.625 3.0625 -5.625 3.0625 -5 1 C-3 0 -3 0 0 0 Z " fill="#000000" transform="translate(314,293)"/>
<path d="M0 0 C0 4.95 0 9.9 0 15 C-0.99 15 -1.98 15 -3 15 C-3 11.37 -3 7.74 -3 4 C-3.99 4.33 -4.98 4.66 -6 5 C-5.625 3.0625 -5.625 3.0625 -5 1 C-3 0 -3 0 0 0 Z " fill="#000000" transform="translate(594,57)"/>
<path d="M0 0 C0.99 0 1.98 0 3 0 C3.18451025 10.55808656 3.18451025 10.55808656 2 15 C1.01 15 0.02 15 -1 15 C-1.02715383 13.25008666 -1.04646551 11.50005055 -1.0625 9.75 C-1.07410156 8.77546875 -1.08570313 7.8009375 -1.09765625 6.796875 C-1.01195577 4.34241322 -0.70706066 2.33831086 0 0 Z " fill="#000000" transform="translate(164,428)"/>
<path d="M0 0 C0.66 0.33 1.32 0.66 2 1 C0.125 5.75 0.125 5.75 -1 8 C-0.34 8 0.32 8 1 8 C1 8.99 1 9.98 1 11 C-1.375 11.1875 -1.375 11.1875 -4 11 C-4.66 10.01 -5.32 9.02 -6 8 C-4.02 5.36 -2.04 2.72 0 0 Z " fill="#000000" transform="translate(472,403)"/>
<path d="M0 0 C0 4.95 0 9.9 0 15 C-0.66 15 -1.32 15 -2 15 C-2.33 11.37 -2.66 7.74 -3 4 C-3.99 4.33 -4.98 4.66 -6 5 C-6 4.01 -6 3.02 -6 2 C-3 0 -3 0 0 0 Z " fill="#000000" transform="translate(19,329)"/>
<path d="M0 0 C0 0.99 0 1.98 0 3 C-4.95 4.485 -4.95 4.485 -10 6 C-10.33 5.01 -10.66 4.02 -11 3 C-9.73160474 2.49384702 -8.46016898 1.99530901 -7.1875 1.5 C-6.12595703 1.08234375 -6.12595703 1.08234375 -5.04296875 0.65625 C-3 0 -3 0 0 0 Z " fill="#000000" transform="translate(384,476)"/>
<path d="M0 0 C0.99 0.33 1.98 0.66 3 1 C2.01 4.3 1.02 7.6 0 11 C-0.99 10.67 -1.98 10.34 -3 10 C-2.01 6.7 -1.02 3.4 0 0 Z " fill="#000000" transform="translate(505,332)"/>
<path d="M0 0 C0.99 0.66 1.98 1.32 3 2 C0.69 4.64 -1.62 7.28 -4 10 C-4.66 9.67 -5.32 9.34 -6 9 C-4.68775452 5.06326356 -3.08089673 2.77280706 0 0 Z " fill="#000000" transform="translate(302,119)"/>
<path d="M0 0 C0.99 0 1.98 0 3 0 C3 3.63 3 7.26 3 11 C2.01 11 1.02 11 0 11 C0 7.37 0 3.74 0 0 Z " fill="#000000" transform="translate(167,629)"/>
<path d="M0 0 C0.99 0 1.98 0 3 0 C3 3.63 3 7.26 3 11 C2.01 11 1.02 11 0 11 C0 7.37 0 3.74 0 0 Z " fill="#000000" transform="translate(167,609)"/>
<path d="M0 0 C0.99 0 1.98 0 3 0 C3 3.63 3 7.26 3 11 C2.01 11 1.02 11 0 11 C0 7.37 0 3.74 0 0 Z " fill="#000000" transform="translate(166,570)"/>
<path d="M0 0 C0.99 0 1.98 0 3 0 C3 3.63 3 7.26 3 11 C2.01 11 1.02 11 0 11 C0 7.37 0 3.74 0 0 Z " fill="#000000" transform="translate(165,530)"/>
<path d="M0 0 C0.99 0 1.98 0 3 0 C3 3.63 3 7.26 3 11 C2.01 11 1.02 11 0 11 C0 7.37 0 3.74 0 0 Z " fill="#000000" transform="translate(164,491)"/>
<path d="M0 0 C3.63 0 7.26 0 11 0 C11 0.99 11 1.98 11 3 C7.37 3 3.74 3 0 3 C0 2.01 0 1.02 0 0 Z " fill="#000000" transform="translate(315,487)"/>
<path d="M0 0 C0 0.99 0 1.98 0 3 C-3.67410785 4.17571451 -7.16929183 4.07366746 -11 4 C-11 3.01 -11 2.02 -11 1 C-7.26513121 0.4254048 -3.78706732 0 0 0 Z " fill="#000000" transform="translate(346,485)"/>
<path d="M0 0 C3.63 0.33 7.26 0.66 11 1 C11 1.99 11 2.98 11 4 C7.37 3.67 3.74 3.34 0 3 C0 2.01 0 1.02 0 0 Z " fill="#000000" transform="translate(276,484)"/>
<path d="M0 0 C0.99 0 1.98 0 3 0 C3 3.63 3 7.26 3 11 C2.01 11 1.02 11 0 11 C0 7.37 0 3.74 0 0 Z " fill="#000000" transform="translate(164,471)"/>
<path d="M0 0 C4.05606165 0.46800711 7.46588679 0.87953208 11 3 C10.67 3.99 10.34 4.98 10 6 C5.05 4.02 5.05 4.02 0 2 C0 1.34 0 0.68 0 0 Z " fill="#000000" transform="translate(200,464)"/>
<path d="M0 0 C0.66 0.33 1.32 0.66 2 1 C0.55527654 4.80881639 -1.32603071 6.29742886 -5 8 C-5.99 7.67 -6.98 7.34 -8 7 C-8 6.34 -8 5.68 -8 5 C-6.3203125 3.67578125 -6.3203125 3.67578125 -4.125 2.3125 C-3.40570313 1.85488281 -2.68640625 1.39726562 -1.9453125 0.92578125 C-1.30335938 0.62027344 -0.66140625 0.31476563 0 0 Z " fill="#000000" transform="translate(417,458)"/>
<path d="M0 0 C-0.125 1.75 -0.125 1.75 -1 4 C-6.22222222 8 -6.22222222 8 -9 8 C-8.66410006 4.86493389 -7.97334828 3.974751 -5.625 1.75 C-3 0 -3 0 0 0 Z " fill="#000000" transform="translate(435,447)"/>
<path d="M0 0 C3.63 0.66 7.26 1.32 11 2 C11 2.99 11 3.98 11 5 C3.375 4.125 3.375 4.125 0 3 C0 2.01 0 1.02 0 0 Z " fill="#000000" transform="translate(448,407)"/>
<path d="M0 0 C0.99 0 1.98 0 3 0 C3 3.63 3 7.26 3 11 C2.01 11 1.02 11 0 11 C0 7.37 0 3.74 0 0 Z " fill="#000000" transform="translate(162,392)"/>
<path d="M0 0 C0.99 0.66 1.98 1.32 3 2 C1.35 4.97 -0.3 7.94 -2 11 C-2.99 10.67 -3.98 10.34 -5 10 C-3.66511872 6.40608886 -2.03977277 3.24509304 0 0 Z " fill="#000000" transform="translate(482,386)"/>
<path d="M0 0 C7.625 0.875 7.625 0.875 11 2 C11 2.99 11 3.98 11 5 C7.37 4.34 3.74 3.68 0 3 C0 2.01 0 1.02 0 0 Z " fill="#000000" transform="translate(314,373)"/>
<path d="M0 0 C0 0.99 0 1.98 0 3 C-4.12168689 4.62950412 -6.70700357 5.26264601 -11 4 C-11 3.34 -11 2.68 -11 2 C-9.5422647 1.664061 -8.08378894 1.33133376 -6.625 1 C-5.40683594 0.7215625 -5.40683594 0.7215625 -4.1640625 0.4375 C-2 0 -2 0 0 0 Z " fill="#000000" transform="translate(229,366)"/>
<path d="M0 0 C0.99 0 1.98 0 3 0 C3 3.63 3 7.26 3 11 C2.01 11 1.02 11 0 11 C0 7.37 0 3.74 0 0 Z " fill="#000000" transform="translate(161,353)"/>
<path d="M0 0 C0.99 0 1.98 0 3 0 C3 3.63 3 7.26 3 11 C2.01 11 1.02 11 0 11 C0 7.37 0 3.74 0 0 Z " fill="#000000" transform="translate(161,333)"/>
<path d="M0 0 C0.99 0 1.98 0 3 0 C3 3.63 3 7.26 3 11 C2.01 11 1.02 11 0 11 C0 7.37 0 3.74 0 0 Z " fill="#000000" transform="translate(160,294)"/>
<path d="M0 0 C0.99 0.33 1.98 0.66 3 1 C1.79157144 5.43090471 0.48331435 7.98112756 -3 11 C-4 8 -4 8 -3.22265625 5.95703125 C-2.83980469 5.24933594 -2.45695313 4.54164063 -2.0625 3.8125 C-1.68222656 3.09707031 -1.30195313 2.38164062 -0.91015625 1.64453125 C-0.60980469 1.10183594 -0.30945313 0.55914062 0 0 Z " fill="#000000" transform="translate(185,276)"/>
<path d="M0 0 C0.99 0.33 1.98 0.66 3 1 C1.6302836 4.99500618 -0.25722422 7.80009492 -3 11 C-3.66 10.34 -4.32 9.68 -5 9 C-3.35 6.03 -1.7 3.06 0 0 Z " fill="#000000" transform="translate(195,259)"/>
<path d="M0 0 C0.99 0 1.98 0 3 0 C3 3.63 3 7.26 3 11 C2.01 11 1.02 11 0 11 C0 7.37 0 3.74 0 0 Z " fill="#000000" transform="translate(159,235)"/>
<path d="M0 0 C0.99 0 1.98 0 3 0 C3 3.63 3 7.26 3 11 C2.01 11 1.02 11 0 11 C0 7.37 0 3.74 0 0 Z " fill="#000000" transform="translate(527,216)"/>
<path d="M0 0 C0.99 0 1.98 0 3 0 C3 3.63 3 7.26 3 11 C2.01 11 1.02 11 0 11 C0 7.37 0 3.74 0 0 Z " fill="#000000" transform="translate(158,195)"/>
<path d="M0 0 C0.66 0 1.32 0 2 0 C3.19287411 3.87684087 4 6.91621923 4 11 C3.01 11 2.02 11 1 11 C0.63890458 9.35567294 0.28629924 7.7094792 -0.0625 6.0625 C-0.25972656 5.14597656 -0.45695313 4.22945312 -0.66015625 3.28515625 C-0.77230469 2.53105469 -0.88445313 1.77695313 -1 1 C-0.67 0.67 -0.34 0.34 0 0 Z " fill="#000000" transform="translate(521,157)"/>
<path d="M0 0 C0.99 0 1.98 0 3 0 C3 3.63 3 7.26 3 11 C2.01 11 1.02 11 0 11 C0 7.37 0 3.74 0 0 Z " fill="#000000" transform="translate(157,156)"/>
<path d="M0 0 C0.99 0 1.98 0 3 0 C3 3.63 3 7.26 3 11 C2.01 11 1.02 11 0 11 C0 7.37 0 3.74 0 0 Z " fill="#000000" transform="translate(157,136)"/>
<path d="M0 0 C0.99 0.33 1.98 0.66 3 1 C2.07456291 2.34173403 1.13422595 3.67320159 0.1875 5 C-0.33457031 5.7425 -0.85664063 6.485 -1.39453125 7.25 C-1.92433594 7.8275 -2.45414062 8.405 -3 9 C-3.99 9 -4.98 9 -6 9 C-4.68775452 5.06326356 -3.08089673 2.77280706 0 0 Z " fill="#000000" transform="translate(289,134)"/>
<path d="M0 0 C4.42679007 1.47559669 4.91432696 3.90057368 7 8 C7 8.66 7 9.32 7 10 C5.140625 9.75390625 5.140625 9.75390625 3 9 C1.734375 7.15234375 1.734375 7.15234375 0.75 4.9375 C0.41484375 4.20402344 0.0796875 3.47054687 -0.265625 2.71484375 C-0.50796875 2.14894531 -0.7503125 1.58304687 -1 1 C-0.67 0.67 -0.34 0.34 0 0 Z " fill="#000000" transform="translate(505,121)"/>
<path d="M0 0 C1.32031595 0.56542004 2.6311301 1.15306472 3.9375 1.75 C4.66839844 2.07484375 5.39929688 2.3996875 6.15234375 2.734375 C8 4 8 4 8.75390625 6.140625 C8.83511719 6.75421875 8.91632813 7.3678125 9 8 C5.40608886 6.66511872 2.24509304 5.03977277 -1 3 C-0.67 2.01 -0.34 1.02 0 0 Z " fill="#000000" transform="translate(464,79)"/>
<path d="M0 0 C1.48484412 0.39595843 2.9628831 0.81750706 4.4375 1.25 C5.26121094 1.48203125 6.08492188 1.7140625 6.93359375 1.953125 C9 3 9 3 9.78515625 5.109375 C9.85605469 5.73328125 9.92695313 6.3571875 10 7 C6.51329166 5.8905928 3.22515763 4.73662334 0 3 C0 2.01 0 1.02 0 0 Z " fill="#000000" transform="translate(446,70)"/>
<path d="M0 0 C3.63 0.33 7.26 0.66 11 1 C11 1.99 11 2.98 11 4 C7.37 3.67 3.74 3.34 0 3 C0 2.01 0 1.02 0 0 Z " fill="#000000" transform="translate(408,60)"/>
<path d="M0 0 C3.63 0 7.26 0 11 0 C11 0.99 11 1.98 11 3 C7.37 3 3.74 3 0 3 C0 2.01 0 1.02 0 0 Z " fill="#000000" transform="translate(388,59)"/>
<path d="M0 0 C0.66 0.33 1.32 0.66 2 1 C1.67 1.99 1.34 2.98 1 4 C-1.06640625 4.94921875 -1.06640625 4.94921875 -3.5625 5.6875 C-4.38878906 5.93886719 -5.21507812 6.19023437 -6.06640625 6.44921875 C-6.70449219 6.63097656 -7.34257812 6.81273437 -8 7 C-8 6.01 -8 5.02 -8 4 C-6.71349294 3.30289269 -5.42059335 2.61757124 -4.125 1.9375 C-3.40570313 1.55464844 -2.68640625 1.17179687 -1.9453125 0.77734375 C-1.30335938 0.52082031 -0.66140625 0.26429688 0 0 Z " fill="#000000" transform="translate(400,468)"/>
<path d="M0 0 C0 0.99 0 1.98 0 3 C-1.75 4.38671875 -1.75 4.38671875 -4 5.6875 C-4.7425 6.12449219 -5.485 6.56148438 -6.25 7.01171875 C-6.8275 7.33785156 -7.405 7.66398437 -8 8 C-8 6.68 -8 5.36 -8 4 C-3.88888889 0 -3.88888889 0 0 0 Z " fill="#000000" transform="translate(193,380)"/>
<path d="M0 0 C0.66 0 1.32 0 2 0 C1.49287967 3.71888239 0.88391785 6.73454239 -1 10 C-1.99 10 -2.98 10 -4 10 C-3.43697042 6.05879291 -2.3208055 3.2491277 0 0 Z " fill="#000000" transform="translate(491,369)"/>
<path d="M0 0 C0.99 0.33 1.98 0.66 3 1 C2.34 4.3 1.68 7.6 1 11 C0.01 11 -0.98 11 -2 11 C-1.125 3.375 -1.125 3.375 0 0 Z " fill="#000000" transform="translate(516,294)"/>
<path d="M0 0 C0.99 0 1.98 0 3 0 C2.39009109 3.55780196 1.4216319 6.6828589 0 10 C-0.99 10 -1.98 10 -3 10 C-2.49287967 6.28111761 -1.88391785 3.26545761 0 0 Z " fill="#000000" transform="translate(176,294)"/>
<path d="M0 0 C0.99 0 1.98 0 3 0 C2.67 3.3 2.34 6.6 2 10 C1.01 10.33 0.02 10.66 -1 11 C-0.67 7.37 -0.34 3.74 0 0 Z " fill="#000000" transform="translate(520,275)"/>
<path d="M0 0 C0.66 0 1.32 0 2 0 C2 3.63 2 7.26 2 11 C1.01 11 0.02 11 -1 11 C-1.02688151 9.35425434 -1.04634123 7.70838587 -1.0625 6.0625 C-1.07410156 5.14597656 -1.08570313 4.22945313 -1.09765625 3.28515625 C-1 1 -1 1 0 0 Z " fill="#000000" transform="translate(160,254)"/>
<path d="M0 0 C0.99 0 1.98 0 3 0 C2.67 3.63 2.34 7.26 2 11 C1.01 11 0.02 11 -1 11 C-0.67 7.37 -0.34 3.74 0 0 Z " fill="#000000" transform="translate(526,236)"/>
<path d="M0 0 C0.99 0 1.98 0 3 0 C1.76067171 3.43198603 0.49698489 6.30325632 -2 9 C-2.99 9 -3.98 9 -5 9 C-3.76067171 5.56801397 -2.49698489 2.69674368 0 0 Z " fill="#000000" transform="translate(216,227)"/>
<path d="M0 0 C0.99 0 1.98 0 3 0 C2.42636089 3.87206399 0.65894107 6.18465063 -2 9 C-2.99 9 -3.98 9 -5 9 C-3.76067171 5.56801397 -2.49698489 2.69674368 0 0 Z " fill="#000000" transform="translate(239,195)"/>
<path d="M0 0 C0.66 0.33 1.32 0.66 2 1 C0.7508258 4.45925163 -0.67527795 7.14693203 -3 10 C-3.99 9.67 -4.98 9.34 -6 9 C-4.47291037 5.56404834 -2.40072955 2.88087546 0 0 Z " fill="#000000" transform="translate(252,179)"/>
<path d="M0 0 C0.99 0 1.98 0 3 0 C3.66 3.3 4.32 6.6 5 10 C4.01 10.33 3.02 10.66 2 11 C1.664061 9.5422647 1.33133376 8.08378894 1 6.625 C0.814375 5.81289062 0.62875 5.00078125 0.4375 4.1640625 C0 2 0 2 0 0 Z " fill="#000000" transform="translate(524,177)"/>
<path d="M0 0 C0.66 0 1.32 0 2 0 C1.49477778 4.37859255 -1.17827222 6.81651224 -4 10 C-4.66 9.67 -5.32 9.34 -6 9 C-4.4722133 5.56247993 -2.49818944 2.81046312 0 0 Z " fill="#000000" transform="translate(264,164)"/>
<path d="M0 0 C0.99 0.33 1.98 0.66 3 1 C1.26440562 4.057952 -0.38472619 6.63379989 -3 9 C-3.99 8.67 -4.98 8.34 -6 8 C-4.02 5.36 -2.04 2.72 0 0 Z " fill="#000000" transform="translate(276,149)"/>
<path d="M0 0 C0.66 0 1.32 0 2 0 C3.32421875 1.42578125 3.32421875 1.42578125 4.6875 3.3125 C5.14511719 3.92738281 5.60273438 4.54226562 6.07421875 5.17578125 C6.53248047 6.07876953 6.53248047 6.07876953 7 7 C6.67 7.99 6.34 8.98 6 10 C3.03595495 7.19195732 0.55500981 4.81684226 -1 1 C-0.67 0.67 -0.34 0.34 0 0 Z " fill="#000000" transform="translate(494,105)"/>
<path d="M0 0 C-2.25740623 2.33524782 -4.2805761 4.18705073 -7 6 C-7.99 6 -8.98 6 -10 6 C-10 5.01 -10 4.02 -10 3 C-3.375 -1.125 -3.375 -1.125 0 0 Z " fill="#000000" transform="translate(361,66)"/>
<path d="M0 0 C7.625 0.875 7.625 0.875 11 2 C11 2.99 11 3.98 11 5 C7.7 4.34 4.4 3.68 1 3 C0.67 2.01 0.34 1.02 0 0 Z " fill="#000000" transform="translate(427,64)"/>
<path d="M0 0 C0 0.99 0 1.98 0 3 C-3.3 3.33 -6.6 3.66 -10 4 C-10 3.01 -10 2.02 -10 1 C-6.59437148 0.22157062 -3.49234244 -0.09978121 0 0 Z " fill="#000000" transform="translate(365,482)"/>
<path d="M0 0 C3.63 0.66 7.26 1.32 11 2 C10.67 2.99 10.34 3.98 10 5 C7.03 4.67 4.06 4.34 1 4 C0.67 2.68 0.34 1.36 0 0 Z " fill="#000000" transform="translate(257,480)"/>
<path d="M0 0 C3.46941546 0.45822468 6.67395049 0.89131683 10 2 C10 2.99 10 3.98 10 5 C6.7 4.34 3.4 3.68 0 3 C0 2.01 0 1.02 0 0 Z " fill="#000000" transform="translate(238,476)"/>
<path d="M0 0 C4.455 0.99 4.455 0.99 9 2 C9.33 3.32 9.66 4.64 10 6 C6.7 5.01 3.4 4.02 0 3 C0 2.01 0 1.02 0 0 Z " fill="#000000" transform="translate(219,470)"/>
<path d="M0 0 C4.455 1.98 4.455 1.98 9 4 C8.67 4.99 8.34 5.98 8 7 C3.545 5.02 3.545 5.02 -1 3 C-0.67 2.01 -0.34 1.02 0 0 Z " fill="#000000" transform="translate(183,456)"/>
<path d="M0 0 C0.99 0.33 1.98 0.66 3 1 C-1 7.57142857 -1 7.57142857 -5 9 C-5 4.61031544 -2.87194899 3.23094261 0 0 Z " fill="#000000" transform="translate(460,419)"/>
<path d="M0 0 C1.45880109 0.14107747 2.91703551 0.28802415 4.375 0.4375 C5.59316406 0.55931641 5.59316406 0.55931641 6.8359375 0.68359375 C9 1 9 1 11 2 C10.67 2.99 10.34 3.98 10 5 C8.51793505 4.745504 7.03931385 4.47088238 5.5625 4.1875 C4.73878906 4.03667969 3.91507812 3.88585937 3.06640625 3.73046875 C2.38449219 3.48941406 1.70257813 3.24835938 1 3 C0.67 2.01 0.34 1.02 0 0 Z " fill="#000000" transform="translate(429,403)"/>
<path d="M0 0 C1.258125 0.12375 2.51625 0.2475 3.8125 0.375 C4.87404297 0.47941406 4.87404297 0.47941406 5.95703125 0.5859375 C8 1 8 1 11 3 C10.67 3.66 10.34 4.32 10 5 C6.7 4.34 3.4 3.68 0 3 C0 2.01 0 1.02 0 0 Z " fill="#000000" transform="translate(410,398)"/>
<path d="M0 0 C0.66 0.33 1.32 0.66 2 1 C0.68775452 4.93673644 -0.91910327 7.22719294 -4 10 C-4.66 9.34 -5.32 8.68 -6 8 C-4.02 5.36 -2.04 2.72 0 0 Z " fill="#000000" transform="translate(177,392)"/>
<path d="M0 0 C3.3 0.99 6.6 1.98 10 3 C10 3.99 10 4.98 10 6 C6.37 5.01 2.74 4.02 -1 3 C-0.67 2.01 -0.34 1.02 0 0 Z " fill="#000000" transform="translate(353,382)"/>
<path d="M0 0 C7.75 0.875 7.75 0.875 10 2 C10 2.99 10 3.98 10 5 C6.7 4.34 3.4 3.68 0 3 C0 2.01 0 1.02 0 0 Z " fill="#000000" transform="translate(334,378)"/>
<path d="M0 0 C0.66 0.99 1.32 1.98 2 3 C-1.3 4.32 -4.6 5.64 -8 7 C-8.33 6.01 -8.66 5.02 -9 4 C-6.03 2.68 -3.06 1.36 0 0 Z " fill="#000000" transform="translate(209,371)"/>
<path d="M0 0 C3.3 0.33 6.6 0.66 10 1 C10 1.99 10 2.98 10 4 C6.37 3.67 2.74 3.34 -1 3 C-0.67 2.01 -0.34 1.02 0 0 Z " fill="#000000" transform="translate(276,365)"/>
<path d="M0 0 C3.63 0 7.26 0 11 0 C11 0.99 11 1.98 11 3 C7.37 3 3.74 3 0 3 C0 2.01 0 1.02 0 0 Z " fill="#000000" transform="translate(256,363)"/>
<path d="M0 0 C0.99 0 1.98 0 3 0 C2.49287967 3.71888239 1.88391785 6.73454239 0 10 C-0.99 10 -1.98 10 -3 10 C-2.01 6.7 -1.02 3.4 0 0 Z " fill="#000000" transform="translate(498,351)"/>
<path d="M0 0 C0.99 0.33 1.98 0.66 3 1 C2.01 4.3 1.02 7.6 0 11 C-0.99 10.67 -1.98 10.34 -3 10 C-2.01 6.7 -1.02 3.4 0 0 Z " fill="#000000" transform="translate(511,313)"/>
<path d="M0 0 C0.66 0 1.32 0 2 0 C3.20272819 2.40545638 3.10071472 3.94996953 3.0625 6.625 C3.05347656 7.44226563 3.04445312 8.25953125 3.03515625 9.1015625 C3.02355469 9.72804688 3.01195312 10.35453125 3 11 C2.01 11 1.02 11 0 11 C0 7.37 0 3.74 0 0 Z " fill="#000000" transform="translate(160,274)"/>
<path d="M0 0 C0.99 0 1.98 0 3 0 C2.38545304 3.99455527 0.29353263 6.74466336 -2 10 C-2.66 9.67 -3.32 9.34 -4 9 C-2.94124926 5.59687262 -1.99097846 2.98646769 0 0 Z " fill="#000000" transform="translate(205,243)"/>
<path d="M0 0 C0.99 0.33 1.98 0.66 3 1 C2.24266726 2.3410477 1.46867264 3.67269781 0.6875 5 C0.25824219 5.7425 -0.17101562 6.485 -0.61328125 7.25 C-1.07089844 7.8275 -1.52851563 8.405 -2 9 C-2.99 9 -3.98 9 -5 9 C-4.42647107 5.12867972 -2.51295648 2.91827204 0 0 Z " fill="#000000" transform="translate(228,211)"/>
<path d="M0 0 C0.99 0.33 1.98 0.66 3 1 C3.94921875 3.06640625 3.94921875 3.06640625 4.6875 5.5625 C4.93886719 6.38878906 5.19023438 7.21507812 5.44921875 8.06640625 C5.63097656 8.70449219 5.81273437 9.34257812 6 10 C4.078125 9.64453125 4.078125 9.64453125 2 9 C0.21715186 5.70173093 0 3.8225249 0 0 Z " fill="#000000" transform="translate(514,139)"/>
<path d="M0 0 C0.99 0.33 1.98 0.66 3 1 C0.03 4.96 0.03 4.96 -3 9 C-3.99 8.67 -4.98 8.34 -6 8 C-4.55746343 4.63408134 -2.66735273 2.48952921 0 0 Z " fill="#000000" transform="translate(315,105)"/>
<path d="M0 0 C3.36591866 1.44253657 5.51047079 3.33264727 8 6 C7.67 6.99 7.34 7.98 7 9 C4.36 7.02 1.72 5.04 -1 3 C-0.67 2.01 -0.34 1.02 0 0 Z " fill="#000000" transform="translate(480,91)"/>
<path d="M0 0 C0.66 0.33 1.32 0.66 2 1 C0.44499019 4.81684226 -2.03595495 7.19195732 -5 10 C-5.66 9.01 -6.32 8.02 -7 7 C-4.69 4.69 -2.38 2.38 0 0 Z " fill="#000000" transform="translate(329,90)"/>
<path d="M0 0 C-1.5830577 4.2742558 -4.50568404 6.26531794 -8 9 C-8 5 -8 5 -5.6875 2.25 C-3 0 -3 0 0 0 Z " fill="#000000" transform="translate(345,77)"/>
<path d="M0 0 C0 0.99 0 1.98 0 3 C-3.3 3.33 -6.6 3.66 -10 4 C-10 3.01 -10 2.02 -10 1 C-6.59437148 0.22157062 -3.49234244 -0.09978121 0 0 Z " fill="#000000" transform="translate(379,60)"/>
<path d="M0 0 C0.99 0 1.98 0 3 0 C3 3.3 3 6.6 3 10 C2.01 10 1.02 10 0 10 C0 6.7 0 3.4 0 0 Z " fill="#000000" transform="translate(166,590)"/>
<path d="M0 0 C2 2 2 2 2 5 C3.32 5.33 4.64 5.66 6 6 C6 6.99 6 7.98 6 9 C3.125 8.375 3.125 8.375 0 7 C-1.375 3.875 -1.375 3.875 -2 1 C-1.34 0.67 -0.68 0.34 0 0 Z " fill="#000000" transform="translate(168,446)"/>
<path d="M0 0 C0.99 0.33 1.98 0.66 3 1 C2.07347299 2.17539996 1.13336613 3.34010577 0.1875 4.5 C-0.33457031 5.1496875 -0.85664063 5.799375 -1.39453125 6.46875 C-3 8 -3 8 -6 8 C-4.55746343 4.63408134 -2.66735273 2.48952921 0 0 Z " fill="#000000" transform="translate(447,434)"/>
<path d="M0 0 C7.75 0.875 7.75 0.875 10 2 C10 2.99 10 3.98 10 5 C6.7 4.34 3.4 3.68 0 3 C0 2.01 0 1.02 0 0 Z " fill="#000000" transform="translate(391,393)"/>
<path d="M0 0 C7.75 0.875 7.75 0.875 10 2 C10 2.99 10 3.98 10 5 C8.51793505 4.745504 7.03931385 4.47088238 5.5625 4.1875 C4.73878906 4.03667969 3.91507812 3.88585937 3.06640625 3.73046875 C2.38449219 3.48941406 1.70257813 3.24835938 1 3 C0.67 2.01 0.34 1.02 0 0 Z " fill="#000000" transform="translate(372,388)"/>
<path d="M0 0 C0.99 0 1.98 0 3 0 C3 3.3 3 6.6 3 10 C2.01 10 1.02 10 0 10 C0 6.7 0 3.4 0 0 Z " fill="#000000" transform="translate(162,373)"/>
<path d="M0 0 C3.3 0.33 6.6 0.66 10 1 C10 1.99 10 2.98 10 4 C7.03 3.67 4.06 3.34 1 3 C0.67 2.01 0.34 1.02 0 0 Z " fill="#000000" transform="translate(295,369)"/>
<path d="M0 0 C1.22589844 0.01353516 1.22589844 0.01353516 2.4765625 0.02734375 C3.41628906 0.04474609 3.41628906 0.04474609 4.375 0.0625 C4.045 1.0525 3.715 2.0425 3.375 3.0625 C0.075 3.0625 -3.225 3.0625 -6.625 3.0625 C-6.625 2.4025 -6.625 1.7425 -6.625 1.0625 C-4.21954362 -0.14022819 -2.67503047 -0.03821472 0 0 Z " fill="#000000" transform="translate(243.625,363.9375)"/>
<path d="M0 0 C0.99 0 1.98 0 3 0 C3 3.63 3 7.26 3 11 C2.34 11 1.68 11 1 11 C-0.28317892 7.15046324 -0.06643637 4.05261865 0 0 Z " fill="#000000" transform="translate(158,215)"/>
<path d="M0 0 C0.99 0 1.98 0 3 0 C3 3.3 3 6.6 3 10 C2.01 10 1.02 10 0 10 C0 6.7 0 3.4 0 0 Z " fill="#000000" transform="translate(527,197)"/>
<path d="M0 0 C3.3 0.33 6.6 0.66 10 1 C10 1.99 10 2.98 10 4 C6.7 3.67 3.4 3.34 0 3 C0 2.01 0 1.02 0 0 Z " fill="#000000" transform="translate(296,486)"/>
<path d="M0 0 C0.99 0 1.98 0 3 0 C3 3.3 3 6.6 3 10 C2.01 9.67 1.02 9.34 0 9 C0 6.03 0 3.06 0 0 Z " fill="#000000" transform="translate(163,452)"/>
<path d="M0 0 C0.99 0 1.98 0 3 0 C2.34 3.3 1.68 6.6 1 10 C0.01 9.67 -0.98 9.34 -2 9 C-1.34 6.03 -0.68 3.06 0 0 Z " fill="#000000" transform="translate(524,256)"/>
<path d="M0 0 C0.99 0 1.98 0 3 0 C3 3.63 3 7.26 3 11 C2.34 11 1.68 11 1 11 C0.67 7.37 0.34 3.74 0 0 Z " fill="#000000" transform="translate(165,550)"/>
<path d="M0 0 C0.66 0 1.32 0 2 0 C3.1577506 3.47325181 3.06866652 6.36067448 3 10 C2.01 10 1.02 10 0 10 C0 6.7 0 3.4 0 0 Z " fill="#000000" transform="translate(165,511)"/>
<path d="M0 0 C0.66 0 1.32 0 2 0 C2.33 3.3 2.66 6.6 3 10 C2.01 10 1.02 10 0 10 C0 6.7 0 3.4 0 0 Z " fill="#000000" transform="translate(158,176)"/>
<path d="M0 0 C0.99 0 1.98 0 3 0 C3.33 3.3 3.66 6.6 4 10 C3.01 10 2.02 10 1 10 C0.67 6.7 0.34 3.4 0 0 Z " fill="#000000" transform="translate(160,314)"/>
<path d="M0 0 C0.99 0.33 1.98 0.66 3 1 C2.67 2.65 2.34 4.3 2 6 C1.01 6 0.02 6 -1 6 C-0.67 4.02 -0.34 2.04 0 0 Z " fill="#000000" transform="translate(169,312)"/>
<path d="M0 0 C0.99 0 1.98 0 3 0 C3 1.65 3 3.3 3 5 C2.34 5 1.68 5 1 5 C0.67 3.35 0.34 1.7 0 0 Z " fill="#000000" transform="translate(167,649)"/>
<path d="M0 0 C0.99 0.33 1.98 0.66 3 1 C2.67 1.99 2.34 2.98 2 4 C1.01 3.01 0.02 2.02 -1 1 C-0.67 0.67 -0.34 0.34 0 0 Z " fill="#000000" transform="translate(10,341)"/>
<path d="M0 0 C0.99 0.33 1.98 0.66 3 1 C2.67 1.99 2.34 2.98 2 4 C1.01 3.01 0.02 2.02 -1 1 C-0.67 0.67 -0.34 0.34 0 0 Z " fill="#000000" transform="translate(317,305)"/>
<path d="M0 0 C0.99 0.33 1.98 0.66 3 1 C2.67 1.99 2.34 2.98 2 4 C1.01 3.01 0.02 2.02 -1 1 C-0.67 0.67 -0.34 0.34 0 0 Z " fill="#000000" transform="translate(597,69)"/>
</svg>
