<?xml version="1.0" encoding="UTF-8"?>
<svg version="1.1" xmlns="http://www.w3.org/2000/svg" width="665" height="718">
<path d="M0 0 C1.43085937 1.07121094 1.43085937 1.07121094 2.890625 2.1640625 C43.85122976 34.34739481 67.59934971 86.97252566 73.79133606 137.93530273 C81.75747205 216.75898047 56.96379405 322.80749709 -4.28125 410.7265625 C-7.79156813 415.00824016 -11.51663881 419.08129723 -15.3046875 423.1171875 C-17.97840026 425.97689767 -20.58319952 428.88963065 -23.1875 431.8125 C-27.21791639 436.24090422 -31.40800388 440.17066058 -36 444 C-36.94359375 444.83144531 -37.8871875 445.66289062 -38.859375 446.51953125 C-53.17934839 459.08353408 -69.12991169 468.24709544 -86 477 C-86.76103027 477.39493652 -87.52206055 477.78987305 -88.30615234 478.19677734 C-136.03623124 502.61100089 -207.40024455 512.47824358 -259 496 C-268.56645556 492.62486849 -277.9116136 488.1622754 -286 482 C-284.81941426 509.61487497 -282.93126186 537.1267716 -280.61773682 564.66845703 C-279.96677892 572.42953816 -279.32580868 580.19144378 -278.687397 587.9535656 C-278.46639552 590.62542016 -278.24144768 593.29691981 -278.01596069 595.96839905 C-277.88080002 597.59684263 -277.74575338 599.22529569 -277.61083984 600.85375977 C-277.54852676 601.57926529 -277.48621368 602.30477081 -277.42201233 603.05226135 C-276.38466241 615.71794668 -278.49479343 622.78132883 -286.68359375 632.5234375 C-300.81097432 647.62758469 -321.31251715 657.81235127 -342.05419922 659.20507812 C-345.39323305 659.30398256 -348.72205243 659.32883181 -352.0625 659.3125 C-353.25045166 659.30758545 -354.43840332 659.3026709 -355.66235352 659.29760742 C-373.02248924 659.06774211 -391.05116062 656.77214957 -404 644 C-406.65818477 640.85357721 -408.81224444 637.48550234 -411 634 C-411.88854714 632.66224481 -412.77793493 631.32504778 -413.66796875 629.98828125 C-432.81041632 600.68210556 -434.42134 563.98836789 -438 530 C-438.10783813 528.97837769 -438.21567627 527.95675537 -438.32678223 526.9041748 C-442.69322034 485.1092808 -444.46398118 443.31102644 -445.76869869 401.33093929 C-445.94141541 395.79269512 -446.12523121 390.25492111 -446.31640625 384.71728516 C-449.04305091 305.44517181 -448.12800515 226.27813737 -446 147 C-445.96719311 145.77679235 -445.96719311 145.77679235 -445.93372345 144.52887344 C-445.80683635 139.82079572 -445.67671845 135.11282173 -445.54229546 130.404953 C-445.50213897 128.99769821 -445.46239777 127.59043149 -445.42314339 126.18315125 C-444.52107909 94.07298626 -441.75842658 62.06180563 -434.9375 30.625 C-434.70450195 29.53872314 -434.47150391 28.45244629 -434.23144531 27.33325195 C-431.33175092 14.79639709 -425.5836857 8.82766333 -414.796875 1.9609375 C-385.06843817 -15.61820665 -350.38912991 -24.44186419 -316.12158203 -16.54785156 C-305.76611176 -13.87378076 -295.32146697 -9.86320346 -287 -3 C-286.46528076 -2.58532471 -285.93056152 -2.17064941 -285.37963867 -1.7434082 C-282.40789667 1.00502623 -281.14111399 3.09920836 -280.5078125 7.1418457 C-280.3680058 11.08476524 -280.42907846 14.99700075 -280.5625 18.9375 C-280.58975189 20.40107842 -280.61444882 21.86470643 -280.63671875 23.32836914 C-280.70324088 27.13075248 -280.80830472 30.93090145 -280.92852783 34.73193359 C-280.99838616 36.94878706 -281.06243487 39.16572871 -281.12451172 41.3828125 C-281.28075549 46.90867037 -281.44479164 52.4341291 -281.640625 57.95874023 C-281.98183373 67.64480299 -282.12113592 77.30912603 -282 87 C-281.61070312 86.04222656 -281.22140625 85.08445312 -280.8203125 84.09765625 C-271.94760489 62.77824834 -259.22595775 44.25464667 -244 27 C-243.56075195 26.49758789 -243.12150391 25.99517578 -242.66894531 25.47753906 C-211.49153867 -10.04482863 -172.29821451 -33.27832233 -124.65234375 -36.72265625 C-81.38988589 -39.41741233 -34.73742391 -26.00986218 0 0 Z M-210 3 C-210.55606934 3.44037598 -211.11213867 3.88075195 -211.68505859 4.33447266 C-225.44141576 15.27522559 -238.46715126 27.90902961 -249 42 C-249.5880542 42.78141357 -249.5880542 42.78141357 -250.18798828 43.57861328 C-265.53201705 64.08713011 -281.01430519 89.0787405 -284 115 C-285.98 114.67 -287.96 114.34 -290 114 C-289.8453125 112.71932648 -289.690625 111.43865295 -289.53125 110.11917114 C-288.97707366 105.11396876 -288.70427836 100.12336609 -288.5 95.09326172 C-288.45934921 94.14734161 -288.41869843 93.20142151 -288.3768158 92.22683716 C-288.01175852 83.58277888 -287.69023305 74.9369071 -287.38172913 66.29066277 C-287.17465813 60.4939835 -286.95343015 54.69860728 -286.69873047 48.90380859 C-286.45179543 43.27925402 -286.24018475 37.65439564 -286.0534668 32.02753067 C-285.97652634 29.88927197 -285.88712633 27.75142313 -285.78491211 25.61422348 C-285.64439359 22.62556958 -285.54935928 19.638639 -285.46484375 16.64794922 C-285.41319565 15.77088318 -285.36154755 14.89381714 -285.30833435 13.99017334 C-285.24544087 10.3464622 -285.32159015 7.95752468 -287.46743774 4.92882156 C-291.33000036 0.95902346 -295.51697471 -1.81939728 -300.5 -4.1875 C-301.52951782 -4.68938843 -301.52951782 -4.68938843 -302.57983398 -5.20141602 C-327.46130541 -16.87536424 -356.82339167 -15.37126855 -382.33862305 -6.62158203 C-397.22526072 -1.24086962 -417.18743591 6.05084708 -426 20 C-427.17067225 22.89396906 -427.84797288 25.82676577 -428.5 28.875 C-428.70085205 29.76630615 -428.9017041 30.6576123 -429.10864258 31.57592773 C-435.8384891 62.70440356 -438.68282665 94.3383046 -439.5 126.125 C-439.54053411 127.62365266 -439.58128096 129.12229959 -439.6222229 130.62094116 C-439.75212032 135.41385963 -439.87627079 140.206919 -440 145 C-440.04364711 146.67799974 -440.08732824 148.35599859 -440.13104248 150.03399658 C-440.32742303 157.58521735 -440.52148687 165.13649171 -440.71179008 172.68786812 C-440.88851843 179.69881467 -441.07341716 186.70939231 -441.27270508 193.71974182 C-443.00748135 255.39795332 -442.50171577 317.14707268 -440.625 378.8125 C-440.59326187 379.86110073 -440.56152374 380.90970146 -440.52882385 381.99007797 C-440.10263135 396.00022478 -439.62891446 410.00831187 -439.11024094 424.01533508 C-438.99818586 427.04911612 -438.88813681 430.08296621 -438.77810669 433.11682129 C-437.89076672 457.3447502 -436.71002775 481.47905171 -434.38062668 505.61429596 C-434.18107087 507.69193571 -433.98578568 509.76994141 -433.79153442 511.8480835 C-430.18962584 584.15263417 -430.18962584 584.15263417 -395 644 C-378.31349853 655.12433431 -353.27824929 655.3529028 -334.16796875 652.38671875 C-316.87414731 648.87851981 -299.41863518 638.32603699 -288 625 C-287.45988281 624.40574219 -286.91976562 623.81148437 -286.36328125 623.19921875 C-282.54378768 617.97750015 -282.84969823 613.10690233 -283.27709961 606.9519043 C-283.3300138 606.07179782 -283.38292799 605.19169134 -283.43744564 604.28491497 C-283.97881606 595.59049951 -284.67150223 586.90670232 -285.40210152 578.22641945 C-285.63772387 575.41429402 -285.86739238 572.60173534 -286.09544373 569.78898621 C-286.74269784 561.80623712 -287.39188633 553.82370016 -288.06420898 545.84301758 C-289.71873144 526.15487456 -291.32854572 506.53187229 -291.27734375 486.76171875 C-291.27509387 485.70637404 -291.27509387 485.70637404 -291.27279854 484.62970924 C-291.22114221 473.44228443 -291.22114221 473.44228443 -290 471 C-289.34 471 -288.68 471 -288 471 C-287.4328125 471.7321875 -286.865625 472.464375 -286.28125 473.21875 C-283.71335548 476.34947071 -280.89256365 478.3779619 -277.5 480.5 C-276.8819751 480.89018311 -276.2639502 481.28036621 -275.62719727 481.68237305 C-269.99818784 485.14954268 -264.23365507 487.78779259 -258 490 C-256.56527344 490.53560547 -256.56527344 490.53560547 -255.1015625 491.08203125 C-206.36421808 507.80808647 -137.09754732 495.00073871 -91.8269043 473.09594727 C-88.52193825 471.45193851 -85.26059103 469.72988548 -82 468 C-81.28102539 467.62649414 -80.56205078 467.25298828 -79.82128906 466.86816406 C-68.37302541 460.90314686 -58.03412875 454.11864097 -48 446 C-47.4023584 445.51805176 -46.8047168 445.03610352 -46.18896484 444.53955078 C-32.82396175 433.65814628 -20.61504541 421.58428888 -10 408 C-9.04945705 406.83642756 -8.09615669 405.67510416 -7.140625 404.515625 C-0.17667816 396.02692156 6.14691441 387.28875159 12 378 C12.56581787 377.1037793 12.56581787 377.1037793 13.14306641 376.18945312 C52.75878292 312.92794482 78.84330902 205.63687907 64 117 C57.38523606 89.54948075 46.67308337 62.90595087 30 40 C29.5875 39.43200684 29.175 38.86401367 28.75 38.27880859 C20.06295919 26.43253537 10.65429404 15.99970484 -1 7 C-1.86625 6.28328125 -2.7325 5.5665625 -3.625 4.828125 C-28.61210264 -15.18995155 -62.63031555 -25.82568251 -94 -30 C-94.97839844 -30.13148437 -95.95679688 -30.26296875 -96.96484375 -30.3984375 C-137.91868634 -34.9557072 -178.12861985 -22.65464004 -210 3 Z " fill="#000000" transform="translate(532,59)"/>
<path d="M0 0 C2.875 2.4375 2.875 2.4375 5 5 C5.680625 5.7425 6.36125 6.485 7.0625 7.25 C14.33664811 17.57459731 16.25926494 30.51351797 17.5625 42.8125 C17.68326904 43.94486084 17.80403809 45.07722168 17.9284668 46.24389648 C18.88975113 55.84081401 19.60152524 65.45296037 20.16549683 75.0809021 C20.26089133 76.69128096 20.36143643 78.3013661 20.4680481 79.91104126 C21.94576926 102.71262599 19.02763798 125.15185434 15.33349609 147.6237793 C14.74892999 151.19403513 14.18796723 154.76746856 13.62890625 158.34179688 C10.5694141 177.49839445 6.83266671 196.65243351 -0.6875 214.625 C-1.10322266 215.64207031 -1.51894531 216.65914062 -1.94726562 217.70703125 C-13.97861455 246.48930727 -13.97861455 246.48930727 -19 249 C-21.04248047 248.29418945 -21.04248047 248.29418945 -23.6171875 247.11328125 C-24.5978418 246.67532227 -25.57849609 246.23736328 -26.58886719 245.78613281 C-27.67329102 245.29983398 -28.75771484 244.81353516 -29.875 244.3125 C-74.05101784 225.13753829 -133.4479476 203.77816005 -180.8515625 221.62109375 C-184.87092308 223.38143405 -188.33461615 225.60340287 -192 228 C-192.66 227.67 -193.32 227.34 -194 227 C-191.27110748 220.28685405 -188.54090335 213.57424299 -185.80916595 206.86225414 C-184.53981366 203.74329504 -183.27098948 200.62412367 -182.00292969 197.50463867 C-179.11600047 190.40307862 -176.22230071 183.30436195 -173.31558228 176.21087646 C-172.47558031 174.1607253 -171.63688493 172.11003798 -170.79989624 170.05865479 C-163.49991603 152.19836631 -163.49991603 152.19836631 -158.8125 145 C-158.35528564 144.27546631 -157.89807129 143.55093262 -157.42700195 142.80444336 C-155.97280644 140.52144698 -154.49249893 138.25811893 -153 136 C-152.23961426 134.84781982 -152.23961426 134.84781982 -151.46386719 133.67236328 C-135.77392511 110.05914727 -118.38687823 87.65443781 -100.42382812 65.73974609 C-99.14773696 64.18051673 -97.87812619 62.615989 -96.609375 61.05078125 C-91.54153733 54.80713232 -86.34370783 48.68464132 -81.08984375 42.59765625 C-79.08143668 40.26845758 -77.09534251 37.92331267 -75.12890625 35.55859375 C-58.19328038 15.2843209 -29.50177007 -17.92217985 0 0 Z M-65.90625 33.5234375 C-68.81561682 36.96474079 -71.65915041 40.45665817 -74.4921875 43.9609375 C-77.38831771 47.47057817 -80.37677576 50.89021366 -83.375 54.3125 C-88.03268063 59.64442508 -92.50864821 65.07634177 -96.84423828 70.67260742 C-99.71913519 74.38166863 -102.65116234 78.0341708 -105.6328125 81.65795898 C-113.74954769 91.53062436 -121.412366 101.71742672 -129 112 C-129.57282715 112.77134277 -130.1456543 113.54268555 -130.73583984 114.33740234 C-139.05361508 125.55251584 -146.75348734 137.06449638 -154 149 C-154.54817383 149.86955322 -155.09634766 150.73910645 -155.66113281 151.63500977 C-160.85186984 160.10718904 -164.43002899 168.95677417 -168 178.1875 C-168.87360109 180.41952154 -169.7500126 182.65042267 -170.62695312 184.88113403 C-171.20599252 186.35640124 -171.78283978 187.83253087 -172.35742188 189.30953979 C-173.86470815 193.17265514 -175.41429929 197.01192289 -177.03125 200.83056641 C-177.36060547 201.61160233 -177.68996094 202.39263824 -178.02929688 203.19734192 C-178.66446419 204.6963891 -179.30614563 206.19269695 -179.95507812 207.68583679 C-180.694716 209.43380254 -181.35524334 211.2148565 -182 213 C-181.67 213.66 -181.34 214.32 -181 215 C-179.94941406 214.72285156 -178.89882813 214.44570313 -177.81640625 214.16015625 C-176.39852098 213.79394747 -174.9805474 213.42808046 -173.5625 213.0625 C-172.53092773 212.78889648 -172.53092773 212.78889648 -171.47851562 212.50976562 C-126.94656369 201.11787094 -76.17563361 219.64607927 -35.11889648 235.69555664 C-34.40953445 235.9725943 -33.70017242 236.24963196 -32.96931458 236.5350647 C-31.63623576 237.05706096 -30.30412927 237.58154988 -28.97319031 238.10897827 C-26.01235545 239.27181317 -23.11527466 240.33687629 -20 241 C-14.92990935 232.2902074 -10.69011634 223.328025 -6.875 214 C-6.48006348 213.060354 -6.08512695 212.12070801 -5.67822266 211.15258789 C1.65191543 192.82724267 5.11695736 173.32776442 8.18798828 153.91992188 C8.75099247 150.36873997 9.33320621 146.82109464 9.91796875 143.2734375 C13.97411064 118.34360574 15.76502729 94.61389266 13.88305664 69.39501953 C13.68882005 66.76785441 13.50897573 64.13996745 13.33007812 61.51171875 C12.06923732 32.14998872 12.06923732 32.14998872 -1 7 C-24.39617264 -11.24901466 -51.18651229 16.72373686 -65.90625 33.5234375 Z " fill="#000000" transform="translate(447,117)"/>
<path d="M0 0 C6.517904 4.68956663 12.55343845 10.81246164 14 19 C14.7992898 30.25557271 13.99078008 38.31915226 6.75 47.25 C-0.08834923 54.50761378 -6.97998461 57.4951155 -17 58 C-26.40755507 57.33577781 -34.03039948 53.70881014 -40.4609375 46.8671875 C-47.45507361 38.38191578 -47.76979995 29.60124502 -47 19 C-44.975542 10.56069317 -38.97795811 3.7193806 -31.8125 -0.9375 C-22.69451393 -6.41571974 -8.7703344 -5.84114609 0 0 Z " fill="#000000" transform="translate(190,85)"/>
<path d="M0 0 C1.29091553 0.28955566 1.29091553 0.28955566 2.60791016 0.58496094 C15.87274502 3.58413838 28.70954853 7.78886907 41.5625 12.1875 C42.72161392 12.58340332 42.72161392 12.58340332 43.90414429 12.98730469 C46.12706181 13.74977596 48.34725845 14.51960155 50.56640625 15.29296875 C51.22800751 15.5209465 51.88960876 15.74892426 52.57125854 15.98381042 C56.54532495 17.38388534 60.27025598 19.04228843 64 21 C44.77039066 40.85552791 18.04143465 52.85186863 -9.4921875 53.3359375 C-12.07715256 53.36059203 -14.66149989 53.37108767 -17.24658203 53.37060547 C-19.86426771 53.37498206 -22.4802664 53.41144199 -25.09765625 53.44921875 C-39.35860435 53.545311 -54.20000405 52.49775725 -65 42 C-70.62093188 35.35393915 -72.46944797 28.63144116 -72 20 C-71.03724297 13.1597666 -69.88596838 6.15007477 -65 1 C-47.79295523 -10.34854345 -18.84940486 -4.47677744 0 0 Z M-62.4375 7.0625 C-66.23292985 14.19790812 -67.30611443 23.23360173 -65 31 C-62.28745858 37.51009941 -56.71638622 41.47653639 -50.4375 44.3125 C-40.11955023 48.00540675 -28.8538458 48.41347984 -18 48 C-17.33097656 47.98066406 -16.66195312 47.96132813 -15.97265625 47.94140625 C7.73631878 47.22295246 32.58197825 41.48359619 50.44921875 24.69921875 C50.96097656 24.13847656 51.47273438 23.57773437 52 23 C44.2925624 19.35663703 36.35598195 16.6562184 28.25 14.0625 C27.22703827 13.73342651 27.22703827 13.73342651 26.18341064 13.39770508 C5.50339474 6.76742481 -14.89600323 1.63041014 -36.75 1.6875 C-37.99910156 1.67138672 -39.24820313 1.65527344 -40.53515625 1.63867188 C-48.4632739 1.63448596 -56.14692049 1.73970195 -62.4375 7.0625 Z " fill="#000000" transform="translate(328,415)"/>
<path d="M0 0 C41.33623799 -1.81697749 79.60460499 16.43648265 110.0625 43.4375 C111.71504093 44.95104216 113.36106625 46.47173381 115 48 C115.73992187 48.68578125 116.47984375 49.3715625 117.2421875 50.078125 C123.90084126 56.47611971 129.52616298 63.58747115 135 71 C135.62044189 71.83797119 135.62044189 71.83797119 136.25341797 72.69287109 C165.29713137 112.55334837 176.73046088 161.68637414 181 210 C181.07202637 210.81307617 181.14405273 211.62615234 181.21826172 212.46386719 C182.44775572 227.26345282 182.09907377 242.163322 182 257 C182.928125 256.175 183.85625 255.35 184.8125 254.5 C187.625 252 187.625 252 191 252 C191 256 191 256 189.3203125 257.8515625 C188.59585938 258.43679688 187.87140625 259.02203125 187.125 259.625 C186.04605469 260.51058594 186.04605469 260.51058594 184.9453125 261.4140625 C184.30335938 261.93742187 183.66140625 262.46078125 183 263 C182.34 263.66 181.68 264.32 181 265 C177.89643488 264.90052676 176.88768895 263.89122192 174.640625 261.71484375 C173.85171875 260.79832031 173.0628125 259.88179688 172.25 258.9375 C171.45078125 258.01839844 170.6515625 257.09929687 169.828125 256.15234375 C169.22484375 255.44207031 168.6215625 254.73179687 168 254 C168.33 253.01 168.66 252.02 169 251 C172.23970264 251.347111 172.97998484 251.97614982 175.140625 254.55078125 C176.06101562 255.76314453 176.06101562 255.76314453 177 257 C177.68877742 204.54165231 172.30302764 151.75518513 149 104 C148.48832275 102.93990723 148.48832275 102.93990723 147.96630859 101.85839844 C142.39175512 90.43926188 135.63376504 80.14345924 128 70 C127.27296875 69.02675781 126.5459375 68.05351563 125.796875 67.05078125 C100.26150193 34.44932212 62.36551847 11.24955722 21.12890625 5.3671875 C19.58009766 5.18542969 19.58009766 5.18542969 18 5 C17.25991699 4.91266602 16.51983398 4.82533203 15.75732422 4.73535156 C10.50842391 4.12148135 5.25605928 3.54896619 0 3 C0 2.01 0 1.02 0 0 Z " fill="#000000" transform="translate(474,0)"/>
<path d="M0 0 C0.99 0 1.98 0 3 0 C2.87662406 5.16155746 2.75244518 10.32309494 2.62768555 15.48461914 C2.58582623 17.22029159 2.54414427 18.95596833 2.50268555 20.69165039 C2.44113002 23.26710305 2.37878093 25.84253581 2.31640625 28.41796875 C2.29416489 29.35535889 2.27192352 30.29274902 2.24900818 31.25854492 C2.12199634 36.48737038 1.98050459 41.71535522 1.81519127 46.94312382 C1.06506265 70.68503152 0.81210442 94.40970014 0.81469727 118.16308594 C0.81477839 122.12699967 0.80783072 126.09079746 0.79418945 130.0546875 C0.67194435 166.23776834 1.70309012 202.31327825 4.8125 238.375 C4.89448639 239.35590607 4.97647278 240.33681213 5.0609436 241.34744263 C6.37670616 257.06823187 7.95376188 272.75758072 9.6875 288.4375 C9.79591217 289.42232361 9.90432434 290.40714722 10.01602173 291.42181396 C10.32167556 294.17638733 10.63377669 296.93012586 10.94921875 299.68359375 C11.04073212 300.50191177 11.13224548 301.3202298 11.22653198 302.16334534 C11.64037325 306.20920394 11.64037325 306.20920394 13 310 C14.32 309.01 15.64 308.02 17 307 C17 311.71906188 15.71245796 313.27037031 13 317 C7.96014269 316.55530671 5.62365012 314.28656638 2 311 C2.33 310.34 2.66 309.68 3 309 C4.65 309.66 6.3 310.32 8 311 C7.89977539 310.04899414 7.79955078 309.09798828 7.69628906 308.11816406 C0.70236523 241.57597442 0.70236523 241.57597442 -1.1875 210.5 C-1.2592041 209.33033691 -1.3309082 208.16067383 -1.40478516 206.95556641 C-1.63005428 202.97142717 -1.8216041 198.98644473 -2 195 C-2.04236786 194.08330536 -2.08473572 193.16661072 -2.12838745 192.22213745 C-3.04964862 171.72104942 -3.19877518 151.23927048 -3.18867874 130.72151184 C-3.18748474 128.0280851 -3.18803769 125.33466221 -3.18869019 122.64123535 C-3.18735364 96.83222846 -2.84574653 71.04716477 -2.0625 45.25 C-2.04068539 44.52460651 -2.01887077 43.79921303 -1.99639511 43.05183792 C-1.85112666 38.24779755 -1.69629224 33.44416006 -1.53515625 28.640625 C-1.49655487 27.47226608 -1.45795349 26.30390717 -1.41818237 25.10014343 C-1.1180174 16.71871572 -0.59693018 8.36476723 0 0 Z " fill="#000000" transform="translate(56,215)"/>
<path d="M0 0 C11.14236618 -0.21948932 21.99498175 0.34418168 33.0625 1.625 C33.83125458 1.71203186 34.60000916 1.79906372 35.39205933 1.88873291 C61.56152854 4.88450553 87.72185079 9.39001192 112 20 C111.505 17.03 111.505 17.03 111 14 C111.99 14 112.98 14 114 14 C115.42258812 17.82320557 116.24042276 20.91281305 116 25 C114.73160474 25.50615298 113.46016898 26.00469099 112.1875 26.5 C111.47980469 26.7784375 110.77210938 27.056875 110.04296875 27.34375 C108 28 108 28 105 28 C105 27.01 105 26.02 105 25 C106.32 24.34 107.64 23.68 109 23 C75.72989212 9.80602579 40.06760816 4.95208329 4.45703125 3.2109375 C2 3 2 3 0 2 C0 1.34 0 0.68 0 0 Z " fill="#000000" transform="translate(289,314)"/>
<path d="M0 0 C1.4540625 0.0309375 1.4540625 0.0309375 2.9375 0.0625 C5.0625 4.6875 5.0625 4.6875 3.9375 8.0625 C4.26300502 9.73071323 4.59596063 11.39749557 4.9375 13.0625 C4.6075 13.7225 4.2775 14.3825 3.9375 15.0625 C1.125 15.9375 1.125 15.9375 -2.0625 16.0625 C-4.4375 14.125 -4.4375 14.125 -6.0625 12.0625 C-2.43923261 10.8547442 -1.42103631 11.51938872 1.9375 13.0625 C1.9375 11.7425 1.9375 10.4225 1.9375 9.0625 C0.6175 9.0625 -0.7025 9.0625 -2.0625 9.0625 C-2.0625 8.0725 -2.0625 7.0825 -2.0625 6.0625 C-0.7425 6.0625 0.5775 6.0625 1.9375 6.0625 C1.6075 5.0725 1.2775 4.0825 0.9375 3.0625 C-1.0425 3.7225 -3.0225 4.3825 -5.0625 5.0625 C-3.9375 0.08035714 -3.9375 0.08035714 0 0 Z " fill="#000000" transform="translate(355.0625,297.9375)"/>
<path d="M0 0 C3.0625 0.1875 3.0625 0.1875 5.0625 2.1875 C4.90004442 5.92397845 4.47466356 7.71288742 2 10.5625 C1.360625 11.09875 0.72125 11.635 0.0625 12.1875 C1.7125 12.5175 3.3625 12.8475 5.0625 13.1875 C5.0625 13.8475 5.0625 14.5075 5.0625 15.1875 C1.7625 15.1875 -1.5375 15.1875 -4.9375 15.1875 C-2.9375 11.1875 -2.9375 11.1875 -0.8125 8.625 C1.36735538 6.30372611 1.36735538 6.30372611 1.0625 3.1875 C0.4025 3.1875 -0.2575 3.1875 -0.9375 3.1875 C-1.2675 3.8475 -1.5975 4.5075 -1.9375 5.1875 C-2.9275 5.1875 -3.9175 5.1875 -4.9375 5.1875 C-3.82120474 0.24390669 -3.82120474 0.24390669 0 0 Z " fill="#000000" transform="translate(646.9375,56.8125)"/>
<path d="M0 0 C0.99 0 1.98 0 3 0 C2.34 3.3 1.68 6.6 1 10 C0.34 10 -0.32 10 -1 10 C-1 11.32 -1 12.64 -1 14 C-1.99 14 -2.98 14 -4 14 C-4.33 10.37 -4.66 6.74 -5 3 C-3.68 2.67 -2.36 2.34 -1 2 C-0.67 1.34 -0.34 0.68 0 0 Z " fill="#000000" transform="translate(184,425)"/>
<path d="M0 0 C0 4.95 0 9.9 0 15 C-0.99 15 -1.98 15 -3 15 C-3 11.37 -3 7.74 -3 4 C-3.99 4.33 -4.98 4.66 -6 5 C-5.625 3.0625 -5.625 3.0625 -5 1 C-3 0 -3 0 0 0 Z " fill="#000000" transform="translate(7,345)"/>
<path d="M0 0 C0 4.95 0 9.9 0 15 C-0.99 15 -1.98 15 -3 15 C-3 11.37 -3 7.74 -3 4 C-3.99 4.33 -4.98 4.66 -6 5 C-5.625 3.0625 -5.625 3.0625 -5 1 C-3 0 -3 0 0 0 Z " fill="#000000" transform="translate(342,298)"/>
<path d="M0 0 C0 4.95 0 9.9 0 15 C-0.99 15 -1.98 15 -3 15 C-3 11.37 -3 7.74 -3 4 C-3.99 4.33 -4.98 4.66 -6 5 C-5.625 3.0625 -5.625 3.0625 -5 1 C-3 0 -3 0 0 0 Z " fill="#000000" transform="translate(634,57)"/>
<path d="M0 0 C0.99 0 1.98 0 3 0 C3.18451025 10.55808656 3.18451025 10.55808656 2 15 C1.01 15 0.02 15 -1 15 C-1.02715383 13.25008666 -1.04646551 11.50005055 -1.0625 9.75 C-1.07410156 8.77546875 -1.08570313 7.8009375 -1.09765625 6.796875 C-1.01195577 4.34241322 -0.70706066 2.33831086 0 0 Z " fill="#000000" transform="translate(181,444)"/>
<path d="M0 0 C0.66 0.33 1.32 0.66 2 1 C0.125 5.75 0.125 5.75 -1 8 C-0.34 8 0.32 8 1 8 C1 8.99 1 9.98 1 11 C-1.375 11.1875 -1.375 11.1875 -4 11 C-4.66 10.01 -5.32 9.02 -6 8 C-4.02 5.36 -2.04 2.72 0 0 Z " fill="#000000" transform="translate(489,419)"/>
<path d="M0 0 C0 4.95 0 9.9 0 15 C-0.66 15 -1.32 15 -2 15 C-2.33 11.37 -2.66 7.74 -3 4 C-3.99 4.33 -4.98 4.66 -6 5 C-6 4.01 -6 3.02 -6 2 C-3 0 -3 0 0 0 Z " fill="#000000" transform="translate(19,345)"/>
<path d="M0 0 C0 0.99 0 1.98 0 3 C-4.95 4.485 -4.95 4.485 -10 6 C-10.33 5.01 -10.66 4.02 -11 3 C-9.73160474 2.49384702 -8.46016898 1.99530901 -7.1875 1.5 C-6.12595703 1.08234375 -6.12595703 1.08234375 -5.04296875 0.65625 C-3 0 -3 0 0 0 Z " fill="#000000" transform="translate(401,492)"/>
<path d="M0 0 C0.99 0.33 1.98 0.66 3 1 C2.01 4.3 1.02 7.6 0 11 C-0.99 10.67 -1.98 10.34 -3 10 C-2.01 6.7 -1.02 3.4 0 0 Z " fill="#000000" transform="translate(522,348)"/>
<path d="M0 0 C0.99 0.66 1.98 1.32 3 2 C0.69 4.64 -1.62 7.28 -4 10 C-4.66 9.67 -5.32 9.34 -6 9 C-4.68775452 5.06326356 -3.08089673 2.77280706 0 0 Z " fill="#000000" transform="translate(319,135)"/>
<path d="M0 0 C0.99 0 1.98 0 3 0 C3 3.63 3 7.26 3 11 C2.01 11 1.02 11 0 11 C0 7.37 0 3.74 0 0 Z " fill="#000000" transform="translate(184,645)"/>
<path d="M0 0 C0.99 0 1.98 0 3 0 C3 3.63 3 7.26 3 11 C2.01 11 1.02 11 0 11 C0 7.37 0 3.74 0 0 Z " fill="#000000" transform="translate(184,625)"/>
<path d="M0 0 C0.99 0 1.98 0 3 0 C3 3.63 3 7.26 3 11 C2.01 11 1.02 11 0 11 C0 7.37 0 3.74 0 0 Z " fill="#000000" transform="translate(183,586)"/>
<path d="M0 0 C0.99 0 1.98 0 3 0 C3 3.63 3 7.26 3 11 C2.01 11 1.02 11 0 11 C0 7.37 0 3.74 0 0 Z " fill="#000000" transform="translate(182,546)"/>
<path d="M0 0 C0.99 0 1.98 0 3 0 C3 3.63 3 7.26 3 11 C2.01 11 1.02 11 0 11 C0 7.37 0 3.74 0 0 Z " fill="#000000" transform="translate(181,507)"/>
<path d="M0 0 C3.63 0 7.26 0 11 0 C11 0.99 11 1.98 11 3 C7.37 3 3.74 3 0 3 C0 2.01 0 1.02 0 0 Z " fill="#000000" transform="translate(332,503)"/>
<path d="M0 0 C0 0.99 0 1.98 0 3 C-3.67410785 4.17571451 -7.16929183 4.07366746 -11 4 C-11 3.01 -11 2.02 -11 1 C-7.26513121 0.4254048 -3.78706732 0 0 0 Z " fill="#000000" transform="translate(363,501)"/>
<path d="M0 0 C3.63 0.33 7.26 0.66 11 1 C11 1.99 11 2.98 11 4 C7.37 3.67 3.74 3.34 0 3 C0 2.01 0 1.02 0 0 Z " fill="#000000" transform="translate(293,500)"/>
<path d="M0 0 C0.99 0 1.98 0 3 0 C3 3.63 3 7.26 3 11 C2.01 11 1.02 11 0 11 C0 7.37 0 3.74 0 0 Z " fill="#000000" transform="translate(181,487)"/>
<path d="M0 0 C4.05606165 0.46800711 7.46588679 0.87953208 11 3 C10.67 3.99 10.34 4.98 10 6 C5.05 4.02 5.05 4.02 0 2 C0 1.34 0 0.68 0 0 Z " fill="#000000" transform="translate(217,480)"/>
<path d="M0 0 C0.66 0.33 1.32 0.66 2 1 C0.55527654 4.80881639 -1.32603071 6.29742886 -5 8 C-5.99 7.67 -6.98 7.34 -8 7 C-8 6.34 -8 5.68 -8 5 C-6.3203125 3.67578125 -6.3203125 3.67578125 -4.125 2.3125 C-3.40570313 1.85488281 -2.68640625 1.39726562 -1.9453125 0.92578125 C-1.30335938 0.62027344 -0.66140625 0.31476563 0 0 Z " fill="#000000" transform="translate(434,474)"/>
<path d="M0 0 C-0.125 1.75 -0.125 1.75 -1 4 C-6.22222222 8 -6.22222222 8 -9 8 C-8.66410006 4.86493389 -7.97334828 3.974751 -5.625 1.75 C-3 0 -3 0 0 0 Z " fill="#000000" transform="translate(452,463)"/>
<path d="M0 0 C3.63 0.66 7.26 1.32 11 2 C11 2.99 11 3.98 11 5 C3.375 4.125 3.375 4.125 0 3 C0 2.01 0 1.02 0 0 Z " fill="#000000" transform="translate(465,423)"/>
<path d="M0 0 C0.99 0 1.98 0 3 0 C3 3.63 3 7.26 3 11 C2.01 11 1.02 11 0 11 C0 7.37 0 3.74 0 0 Z " fill="#000000" transform="translate(179,408)"/>
<path d="M0 0 C0.99 0.66 1.98 1.32 3 2 C1.35 4.97 -0.3 7.94 -2 11 C-2.99 10.67 -3.98 10.34 -5 10 C-3.66511872 6.40608886 -2.03977277 3.24509304 0 0 Z " fill="#000000" transform="translate(499,402)"/>
<path d="M0 0 C7.625 0.875 7.625 0.875 11 2 C11 2.99 11 3.98 11 5 C7.37 4.34 3.74 3.68 0 3 C0 2.01 0 1.02 0 0 Z " fill="#000000" transform="translate(331,389)"/>
<path d="M0 0 C0 0.99 0 1.98 0 3 C-4.12168689 4.62950412 -6.70700357 5.26264601 -11 4 C-11 3.34 -11 2.68 -11 2 C-9.5422647 1.664061 -8.08378894 1.33133376 -6.625 1 C-5.40683594 0.7215625 -5.40683594 0.7215625 -4.1640625 0.4375 C-2 0 -2 0 0 0 Z " fill="#000000" transform="translate(246,382)"/>
<path d="M0 0 C0.99 0 1.98 0 3 0 C3 3.63 3 7.26 3 11 C2.01 11 1.02 11 0 11 C0 7.37 0 3.74 0 0 Z " fill="#000000" transform="translate(178,369)"/>
<path d="M0 0 C0.99 0 1.98 0 3 0 C3 3.63 3 7.26 3 11 C2.01 11 1.02 11 0 11 C0 7.37 0 3.74 0 0 Z " fill="#000000" transform="translate(178,349)"/>
<path d="M0 0 C0.99 0 1.98 0 3 0 C3 3.63 3 7.26 3 11 C2.01 11 1.02 11 0 11 C0 7.37 0 3.74 0 0 Z " fill="#000000" transform="translate(177,310)"/>
<path d="M0 0 C0.99 0.33 1.98 0.66 3 1 C1.79157144 5.43090471 0.48331435 7.98112756 -3 11 C-4 8 -4 8 -3.22265625 5.95703125 C-2.83980469 5.24933594 -2.45695313 4.54164063 -2.0625 3.8125 C-1.68222656 3.09707031 -1.30195313 2.38164062 -0.91015625 1.64453125 C-0.60980469 1.10183594 -0.30945313 0.55914062 0 0 Z " fill="#000000" transform="translate(202,292)"/>
<path d="M0 0 C0.99 0.33 1.98 0.66 3 1 C1.6302836 4.99500618 -0.25722422 7.80009492 -3 11 C-3.66 10.34 -4.32 9.68 -5 9 C-3.35 6.03 -1.7 3.06 0 0 Z " fill="#000000" transform="translate(212,275)"/>
<path d="M0 0 C0.99 0 1.98 0 3 0 C3 3.63 3 7.26 3 11 C2.01 11 1.02 11 0 11 C0 7.37 0 3.74 0 0 Z " fill="#000000" transform="translate(176,251)"/>
<path d="M0 0 C0.99 0 1.98 0 3 0 C3 3.63 3 7.26 3 11 C2.01 11 1.02 11 0 11 C0 7.37 0 3.74 0 0 Z " fill="#000000" transform="translate(544,232)"/>
<path d="M0 0 C0.99 0 1.98 0 3 0 C3 3.63 3 7.26 3 11 C2.01 11 1.02 11 0 11 C0 7.37 0 3.74 0 0 Z " fill="#000000" transform="translate(175,211)"/>
<path d="M0 0 C0.66 0 1.32 0 2 0 C3.19287411 3.87684087 4 6.91621923 4 11 C3.01 11 2.02 11 1 11 C0.63890458 9.35567294 0.28629924 7.7094792 -0.0625 6.0625 C-0.25972656 5.14597656 -0.45695313 4.22945312 -0.66015625 3.28515625 C-0.77230469 2.53105469 -0.88445313 1.77695313 -1 1 C-0.67 0.67 -0.34 0.34 0 0 Z " fill="#000000" transform="translate(538,173)"/>
<path d="M0 0 C0.99 0 1.98 0 3 0 C3 3.63 3 7.26 3 11 C2.01 11 1.02 11 0 11 C0 7.37 0 3.74 0 0 Z " fill="#000000" transform="translate(174,172)"/>
<path d="M0 0 C0.99 0 1.98 0 3 0 C3 3.63 3 7.26 3 11 C2.01 11 1.02 11 0 11 C0 7.37 0 3.74 0 0 Z " fill="#000000" transform="translate(174,152)"/>
<path d="M0 0 C0.99 0.33 1.98 0.66 3 1 C2.07456291 2.34173403 1.13422595 3.67320159 0.1875 5 C-0.33457031 5.7425 -0.85664063 6.485 -1.39453125 7.25 C-1.92433594 7.8275 -2.45414062 8.405 -3 9 C-3.99 9 -4.98 9 -6 9 C-4.68775452 5.06326356 -3.08089673 2.77280706 0 0 Z " fill="#000000" transform="translate(306,150)"/>
<path d="M0 0 C4.42679007 1.47559669 4.91432696 3.90057368 7 8 C7 8.66 7 9.32 7 10 C5.140625 9.75390625 5.140625 9.75390625 3 9 C1.734375 7.15234375 1.734375 7.15234375 0.75 4.9375 C0.41484375 4.20402344 0.0796875 3.47054687 -0.265625 2.71484375 C-0.50796875 2.14894531 -0.7503125 1.58304688 -1 1 C-0.67 0.67 -0.34 0.34 0 0 Z " fill="#000000" transform="translate(522,137)"/>
<path d="M0 0 C1.32031595 0.56542004 2.6311301 1.15306472 3.9375 1.75 C4.66839844 2.07484375 5.39929688 2.3996875 6.15234375 2.734375 C8 4 8 4 8.75390625 6.140625 C8.83511719 6.75421875 8.91632813 7.3678125 9 8 C5.40608886 6.66511872 2.24509304 5.03977277 -1 3 C-0.67 2.01 -0.34 1.02 0 0 Z " fill="#000000" transform="translate(481,95)"/>
<path d="M0 0 C1.48484412 0.39595843 2.9628831 0.81750706 4.4375 1.25 C5.26121094 1.48203125 6.08492188 1.7140625 6.93359375 1.953125 C9 3 9 3 9.78515625 5.109375 C9.85605469 5.73328125 9.92695313 6.3571875 10 7 C6.51329166 5.8905928 3.22515763 4.73662334 0 3 C0 2.01 0 1.02 0 0 Z " fill="#000000" transform="translate(463,86)"/>
<path d="M0 0 C3.63 0.33 7.26 0.66 11 1 C11 1.99 11 2.98 11 4 C7.37 3.67 3.74 3.34 0 3 C0 2.01 0 1.02 0 0 Z " fill="#000000" transform="translate(425,76)"/>
<path d="M0 0 C3.63 0 7.26 0 11 0 C11 0.99 11 1.98 11 3 C7.37 3 3.74 3 0 3 C0 2.01 0 1.02 0 0 Z " fill="#000000" transform="translate(405,75)"/>
<path d="M0 0 C0.66 0.33 1.32 0.66 2 1 C1.67 1.99 1.34 2.98 1 4 C-1.06640625 4.94921875 -1.06640625 4.94921875 -3.5625 5.6875 C-4.38878906 5.93886719 -5.21507812 6.19023437 -6.06640625 6.44921875 C-6.70449219 6.63097656 -7.34257812 6.81273437 -8 7 C-8 6.01 -8 5.02 -8 4 C-6.71349294 3.30289269 -5.42059335 2.61757124 -4.125 1.9375 C-3.40570313 1.55464844 -2.68640625 1.17179687 -1.9453125 0.77734375 C-1.30335938 0.52082031 -0.66140625 0.26429688 0 0 Z " fill="#000000" transform="translate(417,484)"/>
<path d="M0 0 C0 0.99 0 1.98 0 3 C-1.75 4.38671875 -1.75 4.38671875 -4 5.6875 C-4.7425 6.12449219 -5.485 6.56148438 -6.25 7.01171875 C-6.8275 7.33785156 -7.405 7.66398437 -8 8 C-8 6.68 -8 5.36 -8 4 C-3.88888889 0 -3.88888889 0 0 0 Z " fill="#000000" transform="translate(210,396)"/>
<path d="M0 0 C0.66 0 1.32 0 2 0 C1.49287967 3.71888239 0.88391785 6.73454239 -1 10 C-1.99 10 -2.98 10 -4 10 C-3.43697042 6.05879291 -2.3208055 3.2491277 0 0 Z " fill="#000000" transform="translate(508,385)"/>
<path d="M0 0 C0.99 0.33 1.98 0.66 3 1 C2.34 4.3 1.68 7.6 1 11 C0.01 11 -0.98 11 -2 11 C-1.125 3.375 -1.125 3.375 0 0 Z " fill="#000000" transform="translate(533,310)"/>
<path d="M0 0 C0.99 0 1.98 0 3 0 C2.39009109 3.55780196 1.4216319 6.6828589 0 10 C-0.99 10 -1.98 10 -3 10 C-2.49287967 6.28111761 -1.88391785 3.26545761 0 0 Z " fill="#000000" transform="translate(193,310)"/>
<path d="M0 0 C0.99 0 1.98 0 3 0 C2.67 3.3 2.34 6.6 2 10 C1.01 10.33 0.02 10.66 -1 11 C-0.67 7.37 -0.34 3.74 0 0 Z " fill="#000000" transform="translate(537,291)"/>
<path d="M0 0 C0.66 0 1.32 0 2 0 C2 3.63 2 7.26 2 11 C1.01 11 0.02 11 -1 11 C-1.02688151 9.35425434 -1.04634123 7.70838587 -1.0625 6.0625 C-1.07410156 5.14597656 -1.08570313 4.22945313 -1.09765625 3.28515625 C-1 1 -1 1 0 0 Z " fill="#000000" transform="translate(177,270)"/>
<path d="M0 0 C0.99 0 1.98 0 3 0 C2.67 3.63 2.34 7.26 2 11 C1.01 11 0.02 11 -1 11 C-0.67 7.37 -0.34 3.74 0 0 Z " fill="#000000" transform="translate(543,252)"/>
<path d="M0 0 C0.99 0 1.98 0 3 0 C1.76067171 3.43198603 0.49698489 6.30325632 -2 9 C-2.99 9 -3.98 9 -5 9 C-3.76067171 5.56801397 -2.49698489 2.69674368 0 0 Z " fill="#000000" transform="translate(233,243)"/>
<path d="M0 0 C0.99 0 1.98 0 3 0 C2.42636089 3.87206399 0.65894107 6.18465063 -2 9 C-2.99 9 -3.98 9 -5 9 C-3.76067171 5.56801397 -2.49698489 2.69674368 0 0 Z " fill="#000000" transform="translate(256,211)"/>
<path d="M0 0 C0.66 0.33 1.32 0.66 2 1 C0.7508258 4.45925163 -0.67527795 7.14693203 -3 10 C-3.99 9.67 -4.98 9.34 -6 9 C-4.47291037 5.56404834 -2.40072955 2.88087546 0 0 Z " fill="#000000" transform="translate(269,195)"/>
<path d="M0 0 C0.99 0 1.98 0 3 0 C3.66 3.3 4.32 6.6 5 10 C4.01 10.33 3.02 10.66 2 11 C1.664061 9.5422647 1.33133376 8.08378894 1 6.625 C0.814375 5.81289062 0.62875 5.00078125 0.4375 4.1640625 C0 2 0 2 0 0 Z " fill="#000000" transform="translate(541,193)"/>
<path d="M0 0 C0.66 0 1.32 0 2 0 C1.49477778 4.37859255 -1.17827222 6.81651224 -4 10 C-4.66 9.67 -5.32 9.34 -6 9 C-4.4722133 5.56247993 -2.49818944 2.81046312 0 0 Z " fill="#000000" transform="translate(281,180)"/>
<path d="M0 0 C0.99 0.33 1.98 0.66 3 1 C1.26440562 4.057952 -0.38472619 6.63379989 -3 9 C-3.99 8.67 -4.98 8.34 -6 8 C-4.02 5.36 -2.04 2.72 0 0 Z " fill="#000000" transform="translate(293,165)"/>
<path d="M0 0 C0.66 0 1.32 0 2 0 C3.32421875 1.42578125 3.32421875 1.42578125 4.6875 3.3125 C5.14511719 3.92738281 5.60273437 4.54226562 6.07421875 5.17578125 C6.53248047 6.07876953 6.53248047 6.07876953 7 7 C6.67 7.99 6.34 8.98 6 10 C3.03595495 7.19195732 0.55500981 4.81684226 -1 1 C-0.67 0.67 -0.34 0.34 0 0 Z " fill="#000000" transform="translate(511,121)"/>
<path d="M0 0 C-2.25740623 2.33524782 -4.2805761 4.18705073 -7 6 C-7.99 6 -8.98 6 -10 6 C-10 5.01 -10 4.02 -10 3 C-3.375 -1.125 -3.375 -1.125 0 0 Z " fill="#000000" transform="translate(378,82)"/>
<path d="M0 0 C7.625 0.875 7.625 0.875 11 2 C11 2.99 11 3.98 11 5 C7.7 4.34 4.4 3.68 1 3 C0.67 2.01 0.34 1.02 0 0 Z " fill="#000000" transform="translate(444,80)"/>
<path d="M0 0 C0 0.99 0 1.98 0 3 C-3.3 3.33 -6.6 3.66 -10 4 C-10 3.01 -10 2.02 -10 1 C-6.59437148 0.22157062 -3.49234244 -0.09978121 0 0 Z " fill="#000000" transform="translate(382,498)"/>
<path d="M0 0 C3.63 0.66 7.26 1.32 11 2 C10.67 2.99 10.34 3.98 10 5 C7.03 4.67 4.06 4.34 1 4 C0.67 2.68 0.34 1.36 0 0 Z " fill="#000000" transform="translate(274,496)"/>
<path d="M0 0 C3.46941546 0.45822468 6.67395049 0.89131683 10 2 C10 2.99 10 3.98 10 5 C6.7 4.34 3.4 3.68 0 3 C0 2.01 0 1.02 0 0 Z " fill="#000000" transform="translate(255,492)"/>
<path d="M0 0 C4.455 0.99 4.455 0.99 9 2 C9.33 3.32 9.66 4.64 10 6 C6.7 5.01 3.4 4.02 0 3 C0 2.01 0 1.02 0 0 Z " fill="#000000" transform="translate(236,486)"/>
<path d="M0 0 C4.455 1.98 4.455 1.98 9 4 C8.67 4.99 8.34 5.98 8 7 C3.545 5.02 3.545 5.02 -1 3 C-0.67 2.01 -0.34 1.02 0 0 Z " fill="#000000" transform="translate(200,472)"/>
<path d="M0 0 C0.99 0.33 1.98 0.66 3 1 C-1 7.57142857 -1 7.57142857 -5 9 C-5 4.61031544 -2.87194899 3.23094261 0 0 Z " fill="#000000" transform="translate(477,435)"/>
<path d="M0 0 C1.45880109 0.14107747 2.91703551 0.28802415 4.375 0.4375 C5.59316406 0.55931641 5.59316406 0.55931641 6.8359375 0.68359375 C9 1 9 1 11 2 C10.67 2.99 10.34 3.98 10 5 C8.51793505 4.745504 7.03931385 4.47088238 5.5625 4.1875 C4.73878906 4.03667969 3.91507812 3.88585937 3.06640625 3.73046875 C2.38449219 3.48941406 1.70257813 3.24835938 1 3 C0.67 2.01 0.34 1.02 0 0 Z " fill="#000000" transform="translate(446,419)"/>
<path d="M0 0 C1.258125 0.12375 2.51625 0.2475 3.8125 0.375 C4.87404297 0.47941406 4.87404297 0.47941406 5.95703125 0.5859375 C8 1 8 1 11 3 C10.67 3.66 10.34 4.32 10 5 C6.7 4.34 3.4 3.68 0 3 C0 2.01 0 1.02 0 0 Z " fill="#000000" transform="translate(427,414)"/>
<path d="M0 0 C0.66 0.33 1.32 0.66 2 1 C0.68775452 4.93673644 -0.91910327 7.22719294 -4 10 C-4.66 9.34 -5.32 8.68 -6 8 C-4.02 5.36 -2.04 2.72 0 0 Z " fill="#000000" transform="translate(194,408)"/>
<path d="M0 0 C3.3 0.99 6.6 1.98 10 3 C10 3.99 10 4.98 10 6 C6.37 5.01 2.74 4.02 -1 3 C-0.67 2.01 -0.34 1.02 0 0 Z " fill="#000000" transform="translate(370,398)"/>
<path d="M0 0 C7.75 0.875 7.75 0.875 10 2 C10 2.99 10 3.98 10 5 C6.7 4.34 3.4 3.68 0 3 C0 2.01 0 1.02 0 0 Z " fill="#000000" transform="translate(351,394)"/>
<path d="M0 0 C0.66 0.99 1.32 1.98 2 3 C-1.3 4.32 -4.6 5.64 -8 7 C-8.33 6.01 -8.66 5.02 -9 4 C-6.03 2.68 -3.06 1.36 0 0 Z " fill="#000000" transform="translate(226,387)"/>
<path d="M0 0 C3.3 0.33 6.6 0.66 10 1 C10 1.99 10 2.98 10 4 C6.37 3.67 2.74 3.34 -1 3 C-0.67 2.01 -0.34 1.02 0 0 Z " fill="#000000" transform="translate(293,381)"/>
<path d="M0 0 C3.63 0 7.26 0 11 0 C11 0.99 11 1.98 11 3 C7.37 3 3.74 3 0 3 C0 2.01 0 1.02 0 0 Z " fill="#000000" transform="translate(273,379)"/>
<path d="M0 0 C0.99 0 1.98 0 3 0 C2.49287967 3.71888239 1.88391785 6.73454239 0 10 C-0.99 10 -1.98 10 -3 10 C-2.01 6.7 -1.02 3.4 0 0 Z " fill="#000000" transform="translate(515,367)"/>
<path d="M0 0 C0.99 0.33 1.98 0.66 3 1 C2.01 4.3 1.02 7.6 0 11 C-0.99 10.67 -1.98 10.34 -3 10 C-2.01 6.7 -1.02 3.4 0 0 Z " fill="#000000" transform="translate(528,329)"/>
<path d="M0 0 C0.66 0 1.32 0 2 0 C3.20272819 2.40545638 3.10071472 3.94996953 3.0625 6.625 C3.05347656 7.44226563 3.04445312 8.25953125 3.03515625 9.1015625 C3.02355469 9.72804688 3.01195312 10.35453125 3 11 C2.01 11 1.02 11 0 11 C0 7.37 0 3.74 0 0 Z " fill="#000000" transform="translate(177,290)"/>
<path d="M0 0 C0.99 0 1.98 0 3 0 C2.38545304 3.99455527 0.29353263 6.74466336 -2 10 C-2.66 9.67 -3.32 9.34 -4 9 C-2.94124926 5.59687262 -1.99097846 2.98646769 0 0 Z " fill="#000000" transform="translate(222,259)"/>
<path d="M0 0 C0.99 0.33 1.98 0.66 3 1 C2.24266726 2.3410477 1.46867264 3.67269781 0.6875 5 C0.25824219 5.7425 -0.17101562 6.485 -0.61328125 7.25 C-1.07089844 7.8275 -1.52851563 8.405 -2 9 C-2.99 9 -3.98 9 -5 9 C-4.42647107 5.12867972 -2.51295648 2.91827204 0 0 Z " fill="#000000" transform="translate(245,227)"/>
<path d="M0 0 C0.99 0.33 1.98 0.66 3 1 C3.94921875 3.06640625 3.94921875 3.06640625 4.6875 5.5625 C4.93886719 6.38878906 5.19023438 7.21507812 5.44921875 8.06640625 C5.63097656 8.70449219 5.81273437 9.34257812 6 10 C4.078125 9.64453125 4.078125 9.64453125 2 9 C0.21715186 5.70173093 0 3.8225249 0 0 Z " fill="#000000" transform="translate(531,155)"/>
<path d="M0 0 C0.99 0.33 1.98 0.66 3 1 C0.03 4.96 0.03 4.96 -3 9 C-3.99 8.67 -4.98 8.34 -6 8 C-4.55746343 4.63408134 -2.66735273 2.48952921 0 0 Z " fill="#000000" transform="translate(332,121)"/>
<path d="M0 0 C3.36591866 1.44253657 5.51047079 3.33264727 8 6 C7.67 6.99 7.34 7.98 7 9 C4.36 7.02 1.72 5.04 -1 3 C-0.67 2.01 -0.34 1.02 0 0 Z " fill="#000000" transform="translate(497,107)"/>
<path d="M0 0 C0.66 0.33 1.32 0.66 2 1 C0.44499019 4.81684226 -2.03595495 7.19195732 -5 10 C-5.66 9.01 -6.32 8.02 -7 7 C-4.69 4.69 -2.38 2.38 0 0 Z " fill="#000000" transform="translate(346,106)"/>
<path d="M0 0 C-1.5830577 4.2742558 -4.50568404 6.26531794 -8 9 C-8 5 -8 5 -5.6875 2.25 C-3 0 -3 0 0 0 Z " fill="#000000" transform="translate(362,93)"/>
<path d="M0 0 C0 0.99 0 1.98 0 3 C-3.3 3.33 -6.6 3.66 -10 4 C-10 3.01 -10 2.02 -10 1 C-6.59437148 0.22157062 -3.49234244 -0.09978121 0 0 Z " fill="#000000" transform="translate(396,76)"/>
<path d="M0 0 C0.99 0 1.98 0 3 0 C3 3.3 3 6.6 3 10 C2.01 10 1.02 10 0 10 C0 6.7 0 3.4 0 0 Z " fill="#000000" transform="translate(183,606)"/>
<path d="M0 0 C2 2 2 2 2 5 C3.32 5.33 4.64 5.66 6 6 C6 6.99 6 7.98 6 9 C3.125 8.375 3.125 8.375 0 7 C-1.375 3.875 -1.375 3.875 -2 1 C-1.34 0.67 -0.68 0.34 0 0 Z " fill="#000000" transform="translate(185,462)"/>
<path d="M0 0 C0.99 0.33 1.98 0.66 3 1 C2.07347299 2.17539996 1.13336613 3.34010577 0.1875 4.5 C-0.33457031 5.1496875 -0.85664063 5.799375 -1.39453125 6.46875 C-3 8 -3 8 -6 8 C-4.55746343 4.63408134 -2.66735273 2.48952921 0 0 Z " fill="#000000" transform="translate(464,450)"/>
<path d="M0 0 C7.75 0.875 7.75 0.875 10 2 C10 2.99 10 3.98 10 5 C6.7 4.34 3.4 3.68 0 3 C0 2.01 0 1.02 0 0 Z " fill="#000000" transform="translate(408,409)"/>
<path d="M0 0 C7.75 0.875 7.75 0.875 10 2 C10 2.99 10 3.98 10 5 C8.51793505 4.745504 7.03931385 4.47088238 5.5625 4.1875 C4.73878906 4.03667969 3.91507812 3.88585937 3.06640625 3.73046875 C2.38449219 3.48941406 1.70257813 3.24835938 1 3 C0.67 2.01 0.34 1.02 0 0 Z " fill="#000000" transform="translate(389,404)"/>
<path d="M0 0 C0.99 0 1.98 0 3 0 C3 3.3 3 6.6 3 10 C2.01 10 1.02 10 0 10 C0 6.7 0 3.4 0 0 Z " fill="#000000" transform="translate(179,389)"/>
<path d="M0 0 C3.3 0.33 6.6 0.66 10 1 C10 1.99 10 2.98 10 4 C7.03 3.67 4.06 3.34 1 3 C0.67 2.01 0.34 1.02 0 0 Z " fill="#000000" transform="translate(312,385)"/>
<path d="M0 0 C1.22589844 0.01353516 1.22589844 0.01353516 2.4765625 0.02734375 C3.41628906 0.04474609 3.41628906 0.04474609 4.375 0.0625 C4.045 1.0525 3.715 2.0425 3.375 3.0625 C0.075 3.0625 -3.225 3.0625 -6.625 3.0625 C-6.625 2.4025 -6.625 1.7425 -6.625 1.0625 C-4.21954362 -0.14022819 -2.67503047 -0.03821472 0 0 Z " fill="#000000" transform="translate(260.625,379.9375)"/>
<path d="M0 0 C0.99 0 1.98 0 3 0 C3 3.63 3 7.26 3 11 C2.34 11 1.68 11 1 11 C-0.28317892 7.15046324 -0.06643637 4.05261865 0 0 Z " fill="#000000" transform="translate(175,231)"/>
<path d="M0 0 C0.99 0 1.98 0 3 0 C3 3.3 3 6.6 3 10 C2.01 10 1.02 10 0 10 C0 6.7 0 3.4 0 0 Z " fill="#000000" transform="translate(544,213)"/>
<path d="M0 0 C3.3 0.33 6.6 0.66 10 1 C10 1.99 10 2.98 10 4 C6.7 3.67 3.4 3.34 0 3 C0 2.01 0 1.02 0 0 Z " fill="#000000" transform="translate(313,502)"/>
<path d="M0 0 C0.99 0 1.98 0 3 0 C3 3.3 3 6.6 3 10 C2.01 9.67 1.02 9.34 0 9 C0 6.03 0 3.06 0 0 Z " fill="#000000" transform="translate(180,468)"/>
<path d="M0 0 C0.99 0 1.98 0 3 0 C2.34 3.3 1.68 6.6 1 10 C0.01 9.67 -0.98 9.34 -2 9 C-1.34 6.03 -0.68 3.06 0 0 Z " fill="#000000" transform="translate(541,272)"/>
<path d="M0 0 C0.99 0 1.98 0 3 0 C3 3.63 3 7.26 3 11 C2.34 11 1.68 11 1 11 C0.67 7.37 0.34 3.74 0 0 Z " fill="#000000" transform="translate(182,566)"/>
<path d="M0 0 C0.66 0 1.32 0 2 0 C3.1577506 3.47325181 3.06866652 6.36067448 3 10 C2.01 10 1.02 10 0 10 C0 6.7 0 3.4 0 0 Z " fill="#000000" transform="translate(182,527)"/>
<path d="M0 0 C0.66 0 1.32 0 2 0 C2.33 3.3 2.66 6.6 3 10 C2.01 10 1.02 10 0 10 C0 6.7 0 3.4 0 0 Z " fill="#000000" transform="translate(175,192)"/>
<path d="M0 0 C0.99 0 1.98 0 3 0 C3.33 3.3 3.66 6.6 4 10 C3.01 10 2.02 10 1 10 C0.67 6.7 0.34 3.4 0 0 Z " fill="#000000" transform="translate(177,330)"/>
<path d="M0 0 C0.99 0.33 1.98 0.66 3 1 C2.67 2.65 2.34 4.3 2 6 C1.01 6 0.02 6 -1 6 C-0.67 4.02 -0.34 2.04 0 0 Z " fill="#000000" transform="translate(186,328)"/>
<path d="M0 0 C0.99 0 1.98 0 3 0 C3 1.65 3 3.3 3 5 C2.34 5 1.68 5 1 5 C0.67 3.35 0.34 1.7 0 0 Z " fill="#000000" transform="translate(184,665)"/>
<path d="M0 0 C0.99 0.33 1.98 0.66 3 1 C2.67 1.99 2.34 2.98 2 4 C1.01 3.01 0.02 2.02 -1 1 C-0.67 0.67 -0.34 0.34 0 0 Z " fill="#000000" transform="translate(10,357)"/>
<path d="M0 0 C0.99 0.33 1.98 0.66 3 1 C2.67 1.99 2.34 2.98 2 4 C1.01 3.01 0.02 2.02 -1 1 C-0.67 0.67 -0.34 0.34 0 0 Z " fill="#000000" transform="translate(345,310)"/>
<path d="M0 0 C0.99 0.33 1.98 0.66 3 1 C2.67 1.99 2.34 2.98 2 4 C1.01 3.01 0.02 2.02 -1 1 C-0.67 0.67 -0.34 0.34 0 0 Z " fill="#000000" transform="translate(637,69)"/>
</svg>
