<?xml version="1.0" encoding="UTF-8"?>
<svg version="1.1" xmlns="http://www.w3.org/2000/svg" width="581" height="768">
<path d="M0 0 C1.24033997 -0.01191879 1.24033997 -0.01191879 2.5057373 -0.02407837 C22.89936268 -0.17496381 40.07787009 2.7953741 55.125 17.59375 C56.0325 18.5115625 56.94 19.429375 57.875 20.375 C58.6175 21.1071875 59.36 21.839375 60.125 22.59375 C65.92359783 28.6641571 70.30132423 35.79984671 73.875 43.375 C74.21297607 44.08615967 74.55095215 44.79731934 74.89916992 45.5300293 C78.88114529 55.05312498 79.55894031 65.27639541 80.6875 75.4375 C80.8102832 76.50001984 80.93306641 77.56253967 81.05957031 78.65725708 C83.77806138 102.23048893 85.65597416 125.87497098 87.59743881 149.52177811 C89.64932682 174.49735146 92.07184498 199.29062206 95.81260681 224.07888794 C97.31541803 234.12989774 98.4946673 244.22090075 99.6875 254.3125 C99.79282043 255.19099609 99.89814087 256.06949219 100.00665283 256.97460938 C101.99451656 273.56073668 103.06329723 289.98889241 103.4375 306.6875 C103.48080614 308.50716895 103.52442374 310.32683052 103.56835938 312.14648438 C103.67415818 316.55591281 103.7757613 320.96541925 103.875 325.375 C104.865 325.705 105.855 326.035 106.875 326.375 C107.535 327.035 108.195 327.695 108.875 328.375 C109.04703437 325.52107267 109.21263898 322.66698225 109.375 319.8125 C109.42269531 319.03197266 109.47039062 318.25144531 109.51953125 317.44726562 C112.6090803 262.05606478 105.14135806 205.41673114 99.24926758 150.40551758 C96.40032467 123.72877827 96.40032467 123.72877827 95.875 110.375 C96.865 110.375 97.855 110.375 98.875 110.375 C103.44120124 150.36430815 107.53904421 190.34057137 110.64648438 230.47393799 C110.84794237 233.03149675 111.05888917 235.58788992 111.27734375 238.14404297 C113.0016427 258.3328925 113.05053499 278.50454528 113.0625 298.75 C113.06315586 299.44901176 113.06381172 300.14802353 113.06448746 300.86821747 C113.0680078 305.54501355 113.05886064 310.22165922 113.04296875 314.8984375 C113.04175018 316.11241211 113.04053162 317.32638672 113.03927612 318.57714844 C113.03300201 319.69299316 113.02672791 320.80883789 113.02026367 321.95849609 C113.01645187 322.93595795 113.01264008 323.9134198 113.00871277 324.92050171 C112.875 327.375 112.875 327.375 111.875 330.375 C114.845 328.89 114.845 328.89 117.875 327.375 C117.875 328.695 117.875 330.015 117.875 331.375 C113.16330313 335.33710873 113.16330313 335.33710873 109.75 335.4375 C107.11686179 333.94538835 105.71029497 331.74717587 103.875 329.375 C103.84921875 330.69242187 103.8234375 332.00984375 103.796875 333.3671875 C103.02928009 362.35865677 99.73663861 391.22314258 95.8125 419.9375 C95.68880035 420.84513092 95.56510071 421.75276184 95.43765259 422.68789673 C94.09371047 432.47524075 92.6440706 442.22625224 90.79222107 451.93202209 C90.13426285 455.46249397 89.72932529 458.7824109 89.875 462.375 C96.91481225 454.1441084 103.14940388 445.47999648 109.32666016 436.59667969 C111.33293642 433.71791683 113.35638905 430.85152106 115.38232422 427.98657227 C116.37897637 426.57668603 117.37409001 425.16571098 118.36767578 423.75366211 C120.88200218 420.18164405 123.41354672 416.62429174 125.98046875 413.08984375 C132.66092764 403.84994723 138.55885973 394.46021704 143.875 384.375 C144.20419434 383.76430664 144.53338867 383.15361328 144.87255859 382.52441406 C158.65215016 356.88191531 168.48992721 327.93701306 175.25512695 299.63696289 C176.33585894 295.36333147 177.73522967 292.49226302 180.875 289.375 C189.08858141 284.61976866 202.60899814 286.73737615 211.5 288.875 C225.73227365 293.2012443 240.47287904 300.17128831 248.125 313.5625 C250.87000187 323.85625702 247.60688508 335.4903872 245.8125 345.75 C245.65538544 346.65861786 245.49827087 347.56723572 245.33639526 348.50338745 C237.3665637 394.35647496 223.72109489 441.01694268 194.875 478.375 C194.17117188 479.29023438 193.46734375 480.20546875 192.7421875 481.1484375 C182.77766178 493.68682595 171.49252014 505.80009785 159.33984375 516.25 C157.4225805 517.90291792 155.52244263 519.57024121 153.62890625 521.25 C113.23607262 556.92130913 113.23607262 556.92130913 93.875 563.375 C92.75177065 565.4845554 91.77604686 567.56810406 90.8125 569.75 C78.23579624 596.41721245 58.03837197 620.38212868 39.875 643.375 C38.69357422 644.88126953 38.69357422 644.88126953 37.48828125 646.41796875 C13.84596449 676.00364055 -18.36415246 704.31764723 -56.125 713.375 C-57.35089844 713.67277344 -58.57679688 713.97054687 -59.83984375 714.27734375 C-79.80077488 718.57169859 -103.32399942 718.33614045 -123.125 713.375 C-123.82157715 713.20339355 -124.5181543 713.03178711 -125.23583984 712.85498047 C-149.18819013 706.77037662 -176.09189497 695.65464242 -189.7109375 673.83398438 C-191.26820945 671.04336914 -192.74440295 668.22630344 -194.1875 665.375 C-194.70699219 664.35752686 -195.22648437 663.34005371 -195.76171875 662.29174805 C-207.15951499 639.61965556 -214.80187456 614.55747487 -207.125 589.375 C-203.74269797 580.50729789 -198.74464902 574.06999462 -192.125 567.375 C-191.36316406 566.55257812 -190.60132813 565.73015625 -189.81640625 564.8828125 C-167.15383 540.99221487 -133.02044593 526.80769429 -101.2890625 520.80078125 C-99.56024581 520.46922088 -97.83151791 520.13719724 -96.10287476 519.80473328 C-92.497842 519.11270478 -88.8920666 518.42474093 -85.28564453 517.73999023 C-80.6608676 516.86176711 -76.03764568 515.97566052 -71.41489601 515.08683491 C-67.85349757 514.40255493 -64.29154049 513.72122355 -60.72938156 513.04091454 C-59.02359227 512.71500416 -57.31792579 512.38845031 -55.6123848 512.06124306 C-53.23642075 511.60611728 -50.85978639 511.15467994 -48.48291016 510.7043457 C-47.4262616 510.50102379 -47.4262616 510.50102379 -46.3482666 510.29359436 C-43.55197476 509.76719363 -40.97867954 509.375 -38.125 509.375 C-38.13728134 508.83820618 -38.14956268 508.30141235 -38.16221619 507.74835205 C-38.25225933 500.3563655 -37.76783768 493.02361978 -37.22958565 485.65602875 C-37.06219907 483.36427282 -36.89924589 481.07223605 -36.73728943 478.78009033 C-36.39128276 473.89477595 -36.0395938 469.00987883 -35.6875 464.125 C-32.74440471 423.23189511 -31.84772772 383.03723787 -33.4375 342.0625 C-33.50706703 340.25685696 -33.57661639 338.45121323 -33.64614868 336.64556885 C-34.03083923 326.68604275 -34.42642671 316.7269882 -34.82936192 306.76818466 C-35.03914222 301.56628944 -35.23976603 296.36417169 -35.43261719 291.16162109 C-37.63260371 194.32600562 -37.63260371 194.32600562 -54.125 99.375 C-105.20146983 114.96396423 -154.06006981 147.02786082 -179.875 194.98828125 C-192.45263431 219.12270889 -200.24873788 245.67449157 -205.125 272.375 C-205.36992187 273.65761719 -205.61484375 274.94023437 -205.8671875 276.26171875 C-207.31535515 285.43675352 -207.35645551 294.66898256 -207.4375 303.9375 C-207.45530518 305.22785156 -207.47311035 306.51820313 -207.49145508 307.84765625 C-207.48091721 320.60983039 -205.49003143 332.60986047 -200.3125 344.3125 C-199.99474609 345.08400391 -199.67699219 345.85550781 -199.34960938 346.65039062 C-193.95495562 359.20965331 -185.75101851 366.17926248 -173.25 371.5 C-157.16724142 377.72406043 -140.54129436 380.30000716 -123.46484375 382.06542969 C-121.27070772 382.35572231 -119.23211411 382.69630847 -117.125 383.375 C-109.23144093 396.38358535 -110.92473462 417.77104767 -114.09375 431.796875 C-117.43259752 443.38166414 -122.82829742 451.25688507 -133.37109375 457.20703125 C-152.7940722 467.10836512 -180.29060687 476.30947927 -202 470 C-233.09403675 457.96631325 -261.68381744 434.27788833 -278.125 405.375 C-278.54668457 404.63862305 -278.96836914 403.90224609 -279.40283203 403.14355469 C-296.67464014 372.63155415 -306.11296075 337.44436002 -307.125 302.375 C-307.16496094 301.25480469 -307.20492188 300.13460938 -307.24609375 298.98046875 C-308.12656853 251.17586739 -295.24765228 193.61463029 -267.125 154.375 C-266.66367676 153.72257324 -266.20235352 153.07014648 -265.72705078 152.39794922 C-258.7549335 142.54486357 -251.56042506 132.88239861 -244.125 123.375 C-243.2444081 122.23597352 -242.36421007 121.09664244 -241.484375 119.95703125 C-232.44018261 108.28700075 -222.86843371 97.11648325 -212.82421875 86.296875 C-211.03906073 84.36446082 -209.2704212 82.41664177 -207.51953125 80.453125 C-191.7062281 62.79454718 -173.60721095 47.38523601 -153.125 35.375 C-152.04734375 34.73433594 -150.9696875 34.09367187 -149.859375 33.43359375 C-119.09349933 16.20592303 -79.48157686 8.87631688 -45.125 3.375 C-43.65812744 3.12943359 -43.65812744 3.12943359 -42.16162109 2.87890625 C-28.12893794 0.59171358 -14.18840481 0.07172785 0 0 Z M-182.125 64.375 C-182.929375 65.06722656 -183.73375 65.75945312 -184.5625 66.47265625 C-190.19333719 71.40915034 -195.50750598 76.65642287 -200.8125 81.9375 C-201.52567383 82.64600098 -202.23884766 83.35450195 -202.97363281 84.08447266 C-207.56137374 88.68607705 -211.89513808 93.44431742 -216.125 98.375 C-217.07455922 99.45787524 -218.02503049 100.53995162 -218.9765625 101.62109375 C-226.23252937 109.94152777 -232.98457069 118.57980783 -239.62597656 127.39550781 C-240.97532608 129.17735242 -242.33769282 130.94748122 -243.7109375 132.7109375 C-246.20504491 135.91534088 -248.67443993 139.13726874 -251.125 142.375 C-251.6303125 143.04080078 -252.135625 143.70660156 -252.65625 144.39257812 C-291.2569014 195.56627824 -307.27932664 264.83520713 -298.62548828 328.03417969 C-292.1782924 371.06999841 -273.87123609 414.92627821 -238.27563477 441.703125 C-219.83934684 455.17295849 -201.53024484 468.13248336 -177.79394531 465.07470703 C-161.37247904 462.39469642 -136.61168409 457.08989183 -125.4375 443.625 C-115.83347923 428.34313048 -116.69144515 409.07907833 -120.37109375 392.15625 C-120.84706381 389.48710942 -120.84706381 389.48710942 -122.125 388.375 C-123.96952392 388.06423987 -125.82353852 387.80953652 -127.6796875 387.578125 C-177.45632905 381.10605821 -177.45632905 381.10605821 -194.125 365.375 C-194.723125 364.86324219 -195.32125 364.35148437 -195.9375 363.82421875 C-208.55495119 351.57289896 -212.94396444 328.85408833 -213.328125 312.0234375 C-213.76391757 271.98844276 -204.89658932 232.38771715 -187.125 196.375 C-186.80176758 195.71612793 -186.47853516 195.05725586 -186.14550781 194.37841797 C-178.80595855 179.60072849 -169.60097976 167.15565178 -158.125 155.375 C-157.3194165 154.5387207 -157.3194165 154.5387207 -156.49755859 153.68554688 C-149.44012037 146.37418358 -142.20606117 139.56543857 -134.125 133.375 C-133.57650391 132.95009277 -133.02800781 132.52518555 -132.46289062 132.08740234 C-107.20332338 112.61006123 -78.75318739 99.92536898 -48.125 91.375 C-48.08834229 92.01211914 -48.05168457 92.64923828 -48.01391602 93.30566406 C-47.57151407 99.65569055 -46.78578657 105.8926286 -45.77734375 112.171875 C-34.70260983 181.86234099 -30.79204309 252.52898253 -28.21330261 322.97077179 C-28.12582858 325.35244014 -28.03706876 327.73405706 -27.94787598 330.11566162 C-27.24654505 348.8652528 -26.55079604 367.61683295 -26.125 386.375 C-26.1084436 387.07932159 -26.09188721 387.78364319 -26.0748291 388.50930786 C-25.80715876 401.53797169 -26.6785849 414.55837704 -27.375 427.5625 C-27.43958405 428.7921347 -27.50416809 430.02176941 -27.57070923 431.28866577 C-28.68454499 452.35978767 -30.15655222 473.39294246 -31.85449219 494.42456055 C-31.93905167 495.47247772 -32.02361115 496.5203949 -32.11073303 497.60006714 C-32.26910462 499.54995618 -32.42933107 501.49969582 -32.59178162 503.44924927 C-32.66228226 504.30815765 -32.7327829 505.16706604 -32.80541992 506.05200195 C-32.86743088 506.79497025 -32.92944183 507.53793854 -32.99333191 508.30342102 C-33.12173813 510.32367992 -33.125 512.3506645 -33.125 514.375 C-34.42058838 514.59559082 -35.71617676 514.81618164 -37.05102539 515.04345703 C-51.87145719 517.58421945 -66.66345336 520.2709764 -81.43408775 523.08607101 C-84.85195257 523.73737795 -88.27067494 524.38298114 -91.69213867 525.01513672 C-113.41318367 528.94354085 -113.41318367 528.94354085 -134.125 536.375 C-135.20531494 536.86452148 -136.28562988 537.35404297 -137.39868164 537.85839844 C-140.44239547 539.28890386 -143.44214233 540.7836823 -146.4375 542.3125 C-147.41783203 542.79912109 -148.39816406 543.28574219 -149.40820312 543.78710938 C-160.15685156 549.20761087 -169.9664506 555.56007013 -179.125 563.375 C-179.61677734 563.79297852 -180.10855469 564.21095703 -180.61523438 564.64160156 C-192.37196463 574.72406722 -202.20886865 586.47820654 -204.125 602.375 C-205.86753188 628.78811487 -195.39143225 658.46689135 -178.18359375 678.65234375 C-164.04918517 693.8800215 -142.98785571 702.63327733 -123.125 707.375 C-122.1362085 707.62056641 -122.1362085 707.62056641 -121.12744141 707.87109375 C-87.54236013 715.87659946 -51.8365953 709.84268024 -22.4609375 692.2109375 C-9.15849668 683.98471688 2.61522965 674.18770652 13.875 663.375 C14.38949707 662.88773438 14.90399414 662.40046875 15.43408203 661.8984375 C22.86567626 654.84184279 29.27881704 647.33685739 35.47753906 639.18701172 C37.36069926 636.74522014 39.30725631 634.35781188 41.25390625 631.96655273 C47.92285512 623.75769481 54.14308036 615.26212347 60.26367188 606.63916016 C61.8483567 604.41243787 63.44611179 602.1956513 65.046875 599.98046875 C80.39737158 580.61433997 80.39737158 580.61433997 87.875 558.375 C89.03 558.08625 90.185 557.7975 91.375 557.5 C111.1394775 550.81948346 129.41143921 533.95005121 144.875 520.375 C145.97328125 519.42560547 145.97328125 519.42560547 147.09375 518.45703125 C149.0325977 516.7759272 150.95422856 515.07670178 152.875 513.375 C153.55949219 512.78332031 154.24398438 512.19164062 154.94921875 511.58203125 C167.46629821 500.59505319 179.95766183 488.79846783 189.875 475.375 C190.97134766 473.89386719 190.97134766 473.89386719 192.08984375 472.3828125 C198.03382798 464.07139523 203.05722682 455.37270652 207.875 446.375 C208.20854492 445.76382324 208.54208984 445.15264648 208.88574219 444.52294922 C226.75047997 411.61094722 235.22140201 374.35713826 241.25 337.6875 C241.41781982 336.67880859 241.58563965 335.67011719 241.75854492 334.63085938 C243.85484217 322.87808897 243.85484217 322.87808897 240.17578125 311.98828125 C231.77437775 301.56852256 216.76539957 295.62442187 203.875 293.375 C192.86131996 292.11149317 192.86131996 292.11149317 182.875 295.375 C181.85853221 297.85095278 181.11040765 300.11113187 180.4296875 302.6796875 C180.21853302 303.42214218 180.00737854 304.16459686 179.78982544 304.92955017 C179.33517217 306.53056749 178.88707278 308.13345739 178.44482422 309.73794556 C177.27046612 313.98369778 176.03656115 318.21204898 174.8046875 322.44140625 C174.55797302 323.29133652 174.31125854 324.14126678 174.05706787 325.01695251 C164.80095419 356.69558453 152.00591358 387.95729872 132.2109375 414.56054688 C129.75364971 417.89800354 127.38293838 421.29678048 125 424.6875 C123.98447756 426.12637448 122.96885192 427.56517612 121.953125 429.00390625 C119.89446532 431.92382858 117.84326999 434.84881471 115.796875 437.77734375 C108.33503727 448.43915501 100.75562573 458.95651839 92.3125 468.875 C91.67183594 469.6278125 91.03117187 470.380625 90.37109375 471.15625 C86.89942375 474.24217889 82.98670269 476.25297377 78.875 478.375 C79.31199219 476.74498047 79.31199219 476.74498047 79.7578125 475.08203125 C89.7531982 436.31267721 94.12203261 395.24357261 96.875 355.375 C96.95959473 354.21943604 96.95959473 354.21943604 97.04589844 353.04052734 C100.1657036 309.37248532 95.83666061 265.95210762 89.6550293 222.77197266 C85.35039507 192.67095378 82.54580543 162.54823101 80.02148438 132.25073242 C77.77450163 104.71351781 77.77450163 104.71351781 75.04882812 77.22088623 C74.89527933 75.8185241 74.74548859 74.41574357 74.60009766 73.01251221 C72.25589589 50.6249677 63.82633309 32.55242145 46.85546875 17.62890625 C-7.06848753 -25.41131574 -137.12194669 24.93873062 -182.125 64.375 Z " fill="#000000" transform="translate(332.125,-0.375)"/>
<path d="M0 0 C6.27138176 5.18250449 11.31282882 10.64535662 12.11328125 18.95703125 C12.20343261 27.78284981 12.0074266 34.0571524 5.68359375 40.65234375 C-1.77842439 47.62933071 -7.38318103 49.06614348 -17.55859375 48.76953125 C-26.03399926 48.07378901 -30.10363941 44.03336092 -35.55859375 37.78515625 C-39.09956313 32.85606037 -39.49571729 28.60716471 -39.34765625 22.65625 C-39.33863281 21.96337891 -39.32960937 21.27050781 -39.3203125 20.55664062 C-39.29691782 18.86052605 -39.26105266 17.16459129 -39.22265625 15.46875 C-42.68765625 13.48875 -42.68765625 13.48875 -46.22265625 11.46875 C-45.89265625 10.80875 -45.56265625 10.14875 -45.22265625 9.46875 C-44.06765625 9.819375 -42.91265625 10.17 -41.72265625 10.53125 C-39.49095104 10.93722844 -39.49095104 10.93722844 -37.22265625 10.46875 C-34.91545474 8.42776405 -33.13048628 6.16723628 -31.1953125 3.7734375 C-24.03657472 -4.59023634 -9.27494236 -5.68267803 0 0 Z " fill="#000000" transform="translate(172.22265625,395.53125)"/>
<path d="M0 0 C6.31631828 0.40316925 10.64993984 2.71232131 16 6 C16 6.99 16 7.98 16 9 C12.24480943 8.48792856 9.33311475 7.7824918 6 6 C22.18360342 39.12384284 41.75447637 64.11176278 77.4375 76.8125 C118.00986559 89.24461202 161.58908766 80.5563378 198.5625 61.25 C211.71364974 54.13555812 223.34103763 45.45814134 234 35 C234.86882812 34.15824219 235.73765625 33.31648437 236.6328125 32.44921875 C240.02883249 29.11325699 243.21831247 25.87356488 246 22 C247.98 22.99 247.98 22.99 250 24 C225.5092064 58.4652259 182.8536883 78.63959627 142.08251953 85.67236328 C123.50998546 88.59432585 103.26623014 88.69919614 85 84 C84.34322266 83.83371094 83.68644531 83.66742187 83.00976562 83.49609375 C52.14563435 75.46010971 27.86038451 55.53768402 11.6875 28.4375 C7.83777924 21.84115581 4.62947465 15.1826176 2 8 C0.35 10.64 -1.3 13.28 -3 16 C-3.99 15.67 -4.98 15.34 -6 15 C-4.36041242 9.76727367 -2.61047965 4.84803364 0 0 Z " fill="#000000" transform="translate(114,642)"/>
<path d="M0 0 C4.40114397 0.50298788 6.71195019 2.08772731 10 5 C9.38479725 8.99881788 7.39731331 11.80358226 5 15 C4.34 15 3.68 15 3 15 C3.33 13.35 3.66 11.7 4 10 C-19.15826298 13.72186369 -38.35048547 29.5397365 -55 45 C-55.59296875 45.53882813 -56.1859375 46.07765625 -56.796875 46.6328125 C-62.35616326 51.90089994 -66.93132924 58.03557885 -71.56054688 64.11181641 C-72.50000651 65.34414015 -73.44383101 66.57315204 -74.39257812 67.79833984 C-81.74688783 77.31029731 -87.94190159 87.26779693 -93.76708984 97.78076172 C-94.85566274 99.74019294 -95.9647468 101.68577917 -97.08203125 103.62890625 C-114.79841133 135.34519564 -125.46680562 171.12811565 -131.75 206.75 C-132.04825684 208.43391846 -132.04825684 208.43391846 -132.35253906 210.15185547 C-135.16384313 226.91600402 -136.31913299 243.49852102 -136.20581055 260.48364258 C-136.18739722 263.32837849 -136.18530313 266.17278831 -136.18554688 269.01757812 C-136.16501529 279.38603016 -135.87044476 289.66584737 -135 300 C-135.99 300 -136.98 300 -138 300 C-139.85572054 287.86930248 -140.36440757 276.00754197 -140.3125 263.75 C-140.30926727 262.37054703 -140.30926727 262.37054703 -140.30596924 260.96322632 C-140.03557911 188.70263668 -116.98370078 110.41901298 -69 55 C-68.29488281 54.18402344 -67.58976562 53.36804688 -66.86328125 52.52734375 C-48.45151082 31.66948533 -27.16155149 14.01060846 0 6 C1.32 6 2.64 6 4 6 C3.01 5.071875 3.01 5.071875 2 4.125 C0 2 0 2 0 0 Z " fill="#000000" transform="translate(140,41)"/>
<path d="M0 0 C-0.42156686 4.29338513 -0.86517371 8.58422842 -1.3125 12.875 C-1.43044922 14.07898438 -1.54839844 15.28296875 -1.66992188 16.5234375 C-2.9325188 28.43717258 -4.87340806 37.03167066 -13 46 C-13.75667969 46.83789062 -14.51335937 47.67578125 -15.29296875 48.5390625 C-22.97289511 56.62191028 -31.54002867 63.46182339 -42.75 65.5 C-50.73845083 64.27100756 -56.68577018 58.84074004 -61.72265625 52.83203125 C-64.8786063 48.30560748 -64.56239246 43.27079446 -64 38 C-61.92899984 28.34178431 -59.27897249 19.14900713 -51 13 C-43.5226856 8.49404388 -35.67637151 6.30813893 -27.25 4.25 C-25.46142578 3.79560547 -25.46142578 3.79560547 -23.63671875 3.33203125 C-15.61347127 1.31501373 -8.27750705 -0.14271564 0 0 Z M-49 19 C-52.07454084 22.31916977 -53.74662131 25.35529418 -55.1875 29.625 C-55.51105469 30.56601562 -55.83460938 31.50703125 -56.16796875 32.4765625 C-56.44253906 33.30929687 -56.71710938 34.14203125 -57 35 C-57.33 35.99 -57.66 36.98 -58 38 C-58.52229846 42.49519163 -58.43816069 46.0284263 -56.5625 50.1875 C-52.34982984 54.81116237 -47.98437933 58.78295423 -41.5625 59.25 C-29.33900952 54.96105597 -17.54095084 45.2333721 -11 34 C-7.65623698 25.56097903 -7.85302725 15.96533768 -8 7 C-20.75349806 6.59494465 -38.61131946 11.39533637 -49 19 Z " fill="#000000" transform="translate(285,585)"/>
<path d="M0 0 C1.484375 1.4609375 1.484375 1.4609375 2.75 3.375 C3.17796875 4.00148438 3.6059375 4.62796875 4.046875 5.2734375 C5 7 5 7 5 9 C2.83125748 8.49396008 1.00032373 8.00016187 -1 7 C-1.23332031 7.88816406 -1.46664062 8.77632813 -1.70703125 9.69140625 C-10.04514873 39.56733221 -28.13053354 65.18786755 -46.96875 89.35546875 C-48.37714494 91.18909063 -49.71748498 93.07622747 -51 95 C-51.99 94.67 -52.98 94.34 -54 94 C-52.58965436 90.95894221 -50.91544795 88.41756343 -48.875 85.76171875 C-48.2560083 84.94968994 -47.6370166 84.13766113 -46.99926758 83.30102539 C-46.33950928 82.43856201 -45.67975098 81.57609863 -45 80.6875 C-31.56909174 62.91200154 -19.11093927 44.34039138 -10.375 23.75 C-9.89716064 22.62609863 -9.89716064 22.62609863 -9.40966797 21.47949219 C-7.35382086 16.41633155 -6.02938967 11.36291526 -5 6 C-6.65 6.66 -8.3 7.32 -10 8 C-9.6684371 4.9054129 -8.97117406 3.97195314 -6.6875 1.75 C-4 0 -4 0 0 0 Z " fill="#000000" transform="translate(484,329)"/>
<path d="M0 0 C1.4540625 0.0309375 1.4540625 0.0309375 2.9375 0.0625 C5.0625 4.6875 5.0625 4.6875 3.9375 8.0625 C4.26300502 9.73071323 4.59596063 11.39749557 4.9375 13.0625 C4.6075 13.7225 4.2775 14.3825 3.9375 15.0625 C1.125 15.9375 1.125 15.9375 -2.0625 16.0625 C-4.4375 14.125 -4.4375 14.125 -6.0625 12.0625 C-2.43923261 10.8547442 -1.42103631 11.51938872 1.9375 13.0625 C1.9375 11.7425 1.9375 10.4225 1.9375 9.0625 C0.6175 9.0625 -0.7025 9.0625 -2.0625 9.0625 C-2.0625 8.0725 -2.0625 7.0825 -2.0625 6.0625 C-0.7425 6.0625 0.5775 6.0625 1.9375 6.0625 C1.6075 5.0725 1.2775 4.0825 0.9375 3.0625 C-1.0425 3.7225 -3.0225 4.3825 -5.0625 5.0625 C-3.9375 0.08035714 -3.9375 0.08035714 0 0 Z " fill="#000000" transform="translate(228.0625,747.9375)"/>
<path d="M0 0 C3.0625 0.1875 3.0625 0.1875 5.0625 2.1875 C4.90004442 5.92397845 4.47466356 7.71288742 2 10.5625 C1.360625 11.09875 0.72125 11.635 0.0625 12.1875 C1.7125 12.5175 3.3625 12.8475 5.0625 13.1875 C5.0625 13.8475 5.0625 14.5075 5.0625 15.1875 C1.7625 15.1875 -1.5375 15.1875 -4.9375 15.1875 C-2.9375 11.1875 -2.9375 11.1875 -0.8125 8.625 C1.36735538 6.30372611 1.36735538 6.30372611 1.0625 3.1875 C0.4025 3.1875 -0.2575 3.1875 -0.9375 3.1875 C-1.2675 3.8475 -1.5975 4.5075 -1.9375 5.1875 C-2.9275 5.1875 -3.9175 5.1875 -4.9375 5.1875 C-3.82120474 0.24390669 -3.82120474 0.24390669 0 0 Z " fill="#000000" transform="translate(463.9375,186.8125)"/>
<path d="M0 0 C0.99 0 1.98 0 3 0 C3 3.3 3 6.6 3 10 C3.66 10 4.32 10 5 10 C5 10.66 5 11.32 5 12 C4.34 12 3.68 12 3 12 C3 12.99 3 13.98 3 15 C2.34 15 1.68 15 1 15 C1 14.01 1 13.02 1 12 C-1.31 12 -3.62 12 -6 12 C-5.56629155 7.2292071 -3.35665609 3.36635741 0 0 Z M0 4 C-0.99 5.98 -1.98 7.96 -3 10 C-1.68 10 -0.36 10 1 10 C1 8.02 1 6.04 1 4 C0.67 4 0.34 4 0 4 Z " fill="#000000" transform="translate(465,340)"/>
<path d="M0 0 C0 4.95 0 9.9 0 15 C-0.99 15 -1.98 15 -3 15 C-3 11.37 -3 7.74 -3 4 C-3.99 4.33 -4.98 4.66 -6 5 C-5.625 3.0625 -5.625 3.0625 -5 1 C-3 0 -3 0 0 0 Z " fill="#000000" transform="translate(215,748)"/>
<path d="M0 0 C0 4.95 0 9.9 0 15 C-0.99 15 -1.98 15 -3 15 C-3 11.37 -3 7.74 -3 4 C-3.99 4.33 -4.98 4.66 -6 5 C-5.625 3.0625 -5.625 3.0625 -5 1 C-3 0 -3 0 0 0 Z " fill="#000000" transform="translate(451,340)"/>
<path d="M0 0 C0 4.95 0 9.9 0 15 C-0.99 15 -1.98 15 -3 15 C-3 11.37 -3 7.74 -3 4 C-3.99 4.33 -4.98 4.66 -6 5 C-5.625 3.0625 -5.625 3.0625 -5 1 C-3 0 -3 0 0 0 Z " fill="#000000" transform="translate(451,187)"/>
<path d="M0 0 C0 4.95 0 9.9 0 15 C-0.99 15 -1.98 15 -3 15 C-3 11.37 -3 7.74 -3 4 C-3.99 4.33 -4.98 4.66 -6 5 C-5.625 3.0625 -5.625 3.0625 -5 1 C-3 0 -3 0 0 0 Z " fill="#000000" transform="translate(27,108)"/>
<path d="M0 0 C0 4.95 0 9.9 0 15 C-0.66 15 -1.32 15 -2 15 C-2.33 11.37 -2.66 7.74 -3 4 C-3.99 4.33 -4.98 4.66 -6 5 C-6 4.01 -6 3.02 -6 2 C-3 0 -3 0 0 0 Z " fill="#000000" transform="translate(39,108)"/>
<path d="M0 0 C0.99 0.33 1.98 0.66 3 1 C1.55873214 4.36295835 -0.20592655 6.62927102 -3 9 C-3.99 9 -4.98 9 -6 9 C-5.52797514 4.75177626 -3.03344482 2.80010291 0 0 Z " fill="#000000" transform="translate(159,107)"/>
<path d="M0 0 C-0.53895377 3.7726764 -1.99535358 5.68212991 -5 8 C-7.13671875 7.60546875 -7.13671875 7.60546875 -9 7 C-8.07347299 5.82460004 -7.13336613 4.65989423 -6.1875 3.5 C-5.66542969 2.8503125 -5.14335937 2.200625 -4.60546875 1.53125 C-3 0 -3 0 0 0 Z " fill="#000000" transform="translate(479,451)"/>
<path d="M0 0 C-0.21484375 1.890625 -0.21484375 1.890625 -1 4 C-3.06640625 5.046875 -3.06640625 5.046875 -5.5625 5.75 C-6.80193359 6.11351563 -6.80193359 6.11351563 -8.06640625 6.484375 C-9.02353516 6.73960938 -9.02353516 6.73960938 -10 7 C-10.33 6.01 -10.66 5.02 -11 4 C-9.5437455 3.32880451 -8.08492133 2.66318193 -6.625 2 C-5.81289062 1.62875 -5.00078125 1.2575 -4.1640625 0.875 C-2 0 -2 0 0 0 Z " fill="#000000" transform="translate(230,63)"/>
<path d="M0 0 C0.66 0.33 1.32 0.66 2 1 C0.55873214 4.36295835 -1.20592655 6.62927102 -4 9 C-4.99 9 -5.98 9 -7 9 C-5.64978174 4.58110387 -3.73884332 2.65654657 0 0 Z " fill="#000000" transform="translate(201,587)"/>
<path d="M0 0 C-0.125 1.8125 -0.125 1.8125 -1 4 C-4.20883825 5.95320589 -6.2205439 7 -10 7 C-10 6.01 -10 5.02 -10 4 C-8.71086513 3.32845067 -7.41859796 2.66291141 -6.125 2 C-5.40570313 1.62875 -4.68640625 1.2575 -3.9453125 0.875 C-2 0 -2 0 0 0 Z " fill="#000000" transform="translate(235,566)"/>
<path d="M0 0 C0.99 0.33 1.98 0.66 3 1 C2.34 3.97 1.68 6.94 1 10 C-0.32 10.33 -1.64 10.66 -3 11 C-2.01 7.37 -1.02 3.74 0 0 Z " fill="#000000" transform="translate(339,557)"/>
<path d="M0 0 C0 0.66 0 1.32 0 2 C-3.87684087 3.19287411 -6.91621923 4 -11 4 C-11 3.01 -11 2.02 -11 1 C-3.57142857 -1.42857143 -3.57142857 -1.42857143 0 0 Z " fill="#000000" transform="translate(272,555)"/>
<path d="M0 0 C2.74277578 3.19990508 4.6302836 6.00499382 6 10 C5.01 10 4.02 10 3 10 C1.61328125 8.5390625 1.61328125 8.5390625 0.3125 6.625 C-0.34298828 5.68527344 -0.34298828 5.68527344 -1.01171875 4.7265625 C-2 3 -2 3 -2 1 C-1.34 0.67 -0.68 0.34 0 0 Z " fill="#000000" transform="translate(82,367)"/>
<path d="M0 0 C0.99 0 1.98 0 3 0 C3.99 3.3 4.98 6.6 6 10 C4.68 10 3.36 10 2 10 C1.34 6.7 0.68 3.4 0 0 Z " fill="#000000" transform="translate(73,349)"/>
<path d="M0 0 C0.99 0.33 1.98 0.66 3 1 C2.01 4.3 1.02 7.6 0 11 C-0.99 11 -1.98 11 -3 11 C-2.44894091 7.0507432 -1.61064629 3.65079826 0 0 Z " fill="#000000" transform="translate(93,209)"/>
<path d="M0 0 C0.66 0.33 1.32 0.66 2 1 C0.6062718 5.43458973 -1.60582235 7.87378374 -5 11 C-5.68359375 9.234375 -5.68359375 9.234375 -6 7 C-4.78515625 5.078125 -4.78515625 5.078125 -3.0625 3.25 C-2.49660156 2.63640625 -1.93070313 2.0228125 -1.34765625 1.390625 C-0.90292969 0.93171875 -0.45820313 0.4728125 0 0 Z " fill="#000000" transform="translate(133,137)"/>
<path d="M0 0 C-0.33589994 3.13506611 -1.02665172 4.025249 -3.375 6.25 C-6 8 -6 8 -9 8 C-8.66410006 4.86493389 -7.97334828 3.974751 -5.625 1.75 C-3 0 -3 0 0 0 Z " fill="#000000" transform="translate(177,94)"/>
<path d="M0 0 C0 0.99 0 1.98 0 3 C-2.97 4.65 -5.94 6.3 -9 8 C-9 6.68 -9 5.36 -9 4 C-4 0 -4 0 0 0 Z " fill="#000000" transform="translate(194,82)"/>
<path d="M0 0 C0.99 0.33 1.98 0.66 3 1 C0.34345343 4.73884332 -1.58110387 6.64978174 -6 8 C-6.33 7.01 -6.66 6.02 -7 5 C-5.90554162 4.13342884 -4.79902219 3.28207276 -3.6875 2.4375 C-3.07261719 1.96183594 -2.45773437 1.48617187 -1.82421875 0.99609375 C-1.22222656 0.66738281 -0.62023437 0.33867188 0 0 Z " fill="#000000" transform="translate(283,661)"/>
<path d="M0 0 C1.17539996 0.92652701 2.34010577 1.86663387 3.5 2.8125 C4.1496875 3.33457031 4.799375 3.85664062 5.46875 4.39453125 C7 6 7 6 7 9 C2.58110387 7.64978174 0.65654657 5.73884332 -2 2 C-1.34 1.34 -0.68 0.68 0 0 Z " fill="#000000" transform="translate(187,656)"/>
<path d="M0 0 C0.99 0.33 1.98 0.66 3 1 C1.7508258 4.45925163 0.32472205 7.14693203 -2 10 C-2.99 9.67 -3.98 9.34 -5 9 C-3.35 6.03 -1.7 3.06 0 0 Z " fill="#000000" transform="translate(308,630)"/>
<path d="M0 0 C0.99 0 1.98 0 3 0 C2.60404157 1.48484412 2.18249294 2.9628831 1.75 4.4375 C1.51796875 5.26121094 1.2859375 6.08492187 1.046875 6.93359375 C0 9 0 9 -2.109375 9.78515625 C-2.73328125 9.85605469 -3.3571875 9.92695312 -4 10 C-3.52449439 8.51965236 -3.04448784 7.04074979 -2.5625 5.5625 C-2.29566406 4.73878906 -2.02882813 3.91507813 -1.75390625 3.06640625 C-1 1 -1 1 0 0 Z " fill="#000000" transform="translate(326,595)"/>
<path d="M0 0 C0.99 0.33 1.98 0.66 3 1 C2.01 4.3 1.02 7.6 0 11 C-0.99 11 -1.98 11 -3 11 C-2.69078116 9.54096742 -2.37751201 8.08279278 -2.0625 6.625 C-1.88847656 5.81289063 -1.71445312 5.00078125 -1.53515625 4.1640625 C-1 2 -1 2 0 0 Z " fill="#000000" transform="translate(333,576)"/>
<path d="M0 0 C0 0.66 0 1.32 0 2 C-3.87684087 3.19287411 -6.91621923 4 -11 4 C-11 3.01 -11 2.02 -11 1 C-3.57142857 -1.42857143 -3.57142857 -1.42857143 0 0 Z " fill="#000000" transform="translate(291,550)"/>
<path d="M0 0 C0.33 0.99 0.66 1.98 1 3 C-2.3 4.32 -5.6 5.64 -9 7 C-9 5.68 -9 4.36 -9 3 C-2.25 0 -2.25 0 0 0 Z " fill="#000000" transform="translate(364,523)"/>
<path d="M0 0 C0.66 0.33 1.32 0.66 2 1 C1 4 1 4 -0.84765625 5.16796875 C-1.57855469 5.50441406 -2.30945313 5.84085937 -3.0625 6.1875 C-3.79597656 6.53167969 -4.52945312 6.87585938 -5.28515625 7.23046875 C-6.13400391 7.61138672 -6.13400391 7.61138672 -7 8 C-7 6.68 -7 5.36 -7 4 C-1.7265625 0.77734375 -1.7265625 0.77734375 0 0 Z " fill="#000000" transform="translate(415,497)"/>
<path d="M0 0 C0.99 0.33 1.98 0.66 3 1 C3 1.66 3 2.32 3 3 C0.03 4.65 -2.94 6.3 -6 8 C-6 6.68 -6 5.36 -6 4 C-3.1875 1.6875 -3.1875 1.6875 0 0 Z " fill="#000000" transform="translate(431,487)"/>
<path d="M0 0 C0.99 0.33 1.98 0.66 3 1 C1.47291037 4.43595166 -0.59927045 7.11912454 -3 10 C-3.99 9.67 -4.98 9.34 -6 9 C-4.47291037 5.56404834 -2.40072955 2.88087546 0 0 Z " fill="#000000" transform="translate(490,436)"/>
<path d="M0 0 C0.99 0 1.98 0 3 0 C2.67 3.63 2.34 7.26 2 11 C1.01 11 0.02 11 -1 11 C-0.67 7.37 -0.34 3.74 0 0 Z " fill="#000000" transform="translate(365,421)"/>
<path d="M0 0 C3.67268615 0.54410165 6.74104373 2.29645468 10 4 C9.67 4.99 9.34 5.98 9 7 C4.56909529 5.79157144 2.01887244 4.48331435 -1 1 C-0.67 0.67 -0.34 0.34 0 0 Z " fill="#000000" transform="translate(109,396)"/>
<path d="M0 0 C0.99 0 1.98 0 3 0 C3 3.63 3 7.26 3 11 C2.01 11 1.02 11 0 11 C0 7.37 0 3.74 0 0 Z " fill="#000000" transform="translate(371,322)"/>
<path d="M0 0 C0.99 0 1.98 0 3 0 C3 3.63 3 7.26 3 11 C2.01 11 1.02 11 0 11 C0 7.37 0 3.74 0 0 Z " fill="#000000" transform="translate(371,302)"/>
<path d="M0 0 C0.99 0 1.98 0 3 0 C3 3.63 3 7.26 3 11 C2.01 11 1.02 11 0 11 C0 7.37 0 3.74 0 0 Z " fill="#000000" transform="translate(74,289)"/>
<path d="M0 0 C0.99 0 1.98 0 3 0 C3 3.63 3 7.26 3 11 C2.01 11 1.02 11 0 11 C0 7.37 0 3.74 0 0 Z " fill="#000000" transform="translate(371,282)"/>
<path d="M0 0 C0.99 0 1.98 0 3 0 C3 3.63 3 7.26 3 11 C2.01 11 1.02 11 0 11 C0 7.37 0 3.74 0 0 Z " fill="#000000" transform="translate(371,262)"/>
<path d="M0 0 C0.99 0.33 1.98 0.66 3 1 C1.8905928 4.48670834 0.73662334 7.77484237 -1 11 C-1.99 10.67 -2.98 10.34 -4 10 C-2.68 6.7 -1.36 3.4 0 0 Z " fill="#000000" transform="translate(101,190)"/>
<path d="M0 0 C0.99 0 1.98 0 3 0 C3.33 3.63 3.66 7.26 4 11 C3.01 11 2.02 11 1 11 C0.67 7.37 0.34 3.74 0 0 Z " fill="#000000" transform="translate(366,183)"/>
<path d="M0 0 C0.99 0.33 1.98 0.66 3 1 C2.07456291 2.34173403 1.13422595 3.67320159 0.1875 5 C-0.33457031 5.7425 -0.85664063 6.485 -1.39453125 7.25 C-1.92433594 7.8275 -2.45414063 8.405 -3 9 C-3.99 9 -4.98 9 -6 9 C-4.68775452 5.06326356 -3.08089673 2.77280706 0 0 Z " fill="#000000" transform="translate(145,122)"/>
<path d="M0 0 C0.99 0 1.98 0 3 0 C3.33 3.63 3.66 7.26 4 11 C3.01 11 2.02 11 1 11 C0.67 7.37 0.34 3.74 0 0 Z " fill="#000000" transform="translate(356,104)"/>
<path d="M0 0 C0 0.66 0 1.32 0 2 C-3.87684087 3.19287411 -6.91621923 4 -11 4 C-11 3.01 -11 2.02 -11 1 C-3.57142857 -1.42857143 -3.57142857 -1.42857143 0 0 Z " fill="#000000" transform="translate(250,58)"/>
<path d="M0 0 C1.45880109 0.14107747 2.91703551 0.28802415 4.375 0.4375 C5.59316406 0.55931641 5.59316406 0.55931641 6.8359375 0.68359375 C9 1 9 1 11 2 C10.67 2.99 10.34 3.98 10 5 C6.7 4.34 3.4 3.68 0 3 C0 2.01 0 1.02 0 0 Z " fill="#000000" transform="translate(220,676)"/>
<path d="M0 0 C0 0.99 0 1.98 0 3 C-6.625 6 -6.625 6 -10 6 C-10 5.01 -10 4.02 -10 3 C-3.375 0 -3.375 0 0 0 Z " fill="#000000" transform="translate(269,672)"/>
<path d="M0 0 C0.66 0.33 1.32 0.66 2 1 C1.82374165 3.37948772 1.30280227 4.70225849 -0.40234375 6.37890625 C-1.90649092 7.62115486 -3.45129851 8.81376056 -5 10 C-5 4.69520066 -3.4637943 3.81017373 0 0 Z " fill="#000000" transform="translate(297,646)"/>
<path d="M0 0 C0.33 0.99 0.66 1.98 1 3 C-5.625 6 -5.625 6 -9 6 C-9 5.01 -9 4.02 -9 3 C-6.03 2.01 -3.06 1.02 0 0 Z " fill="#000000" transform="translate(308,543)"/>
<path d="M0 0 C0.66 0.33 1.32 0.66 2 1 C1.125 8.75 1.125 8.75 0 11 C-0.99 11 -1.98 11 -3 11 C-2.69217504 9.35328588 -2.37860766 7.70764424 -2.0625 6.0625 C-1.88847656 5.14597656 -1.71445312 4.22945312 -1.53515625 3.28515625 C-1 1 -1 1 0 0 Z " fill="#000000" transform="translate(345,538)"/>
<path d="M0 0 C0 0.66 0 1.32 0 2 C-6.4 5.07692308 -6.4 5.07692308 -9.4375 4.6875 C-9.953125 4.460625 -10.46875 4.23375 -11 4 C-8.32997607 0.73663741 -4.08378642 -2.04189321 0 0 Z " fill="#000000" transform="translate(328,538)"/>
<path d="M0 0 C0 0.99 0 1.98 0 3 C-4.95 4.485 -4.95 4.485 -10 6 C-9.67 4.68 -9.34 3.36 -9 2 C-5.70173093 0.21715186 -3.8225249 0 0 0 Z " fill="#000000" transform="translate(346,531)"/>
<path d="M0 0 C0.99 0 1.98 0 3 0 C2.125 7.625 2.125 7.625 1 11 C0.01 10.67 -0.98 10.34 -2 10 C-1.34 6.7 -0.68 3.4 0 0 Z " fill="#000000" transform="translate(349,519)"/>
<path d="M0 0 C-0.24609375 1.890625 -0.24609375 1.890625 -1 4 C-2.84765625 5.046875 -2.84765625 5.046875 -5.0625 5.75 C-6.16271484 6.11351562 -6.16271484 6.11351562 -7.28515625 6.484375 C-8.13400391 6.73960937 -8.13400391 6.73960937 -9 7 C-9.33 6.01 -9.66 5.02 -10 4 C-8.71086513 3.32845067 -7.41859796 2.66291141 -6.125 2 C-5.40570313 1.62875 -4.68640625 1.2575 -3.9453125 0.875 C-2 0 -2 0 0 0 Z " fill="#000000" transform="translate(382,515)"/>
<path d="M0 0 C0.99 0 1.98 0 3 0 C2.85892253 1.45880109 2.71197585 2.91703551 2.5625 4.375 C2.48128906 5.18710937 2.40007812 5.99921875 2.31640625 6.8359375 C2 9 2 9 1 11 C0.01 11 -0.98 11 -2 11 C-1.34 7.37 -0.68 3.74 0 0 Z " fill="#000000" transform="translate(357,480)"/>
<path d="M0 0 C0.99 0.33 1.98 0.66 3 1 C0.19195732 3.96404505 -2.18315774 6.44499019 -6 8 C-6 6.68 -6 5.36 -6 4 C-3.1875 1.6875 -3.1875 1.6875 0 0 Z " fill="#000000" transform="translate(447,476)"/>
<path d="M0 0 C0.99 0.33 1.98 0.66 3 1 C2.67 4.3 2.34 7.6 2 11 C1.01 11 0.02 11 -1 11 C-0.67 7.37 -0.34 3.74 0 0 Z " fill="#000000" transform="translate(360,460)"/>
<path d="M0 0 C0.99 0.33 1.98 0.66 3 1 C1.02 3.97 -0.96 6.94 -3 10 C-3.66 9.67 -4.32 9.34 -5 9 C-3.7508258 5.54074837 -2.32472205 2.85306797 0 0 Z " fill="#000000" transform="translate(502,421)"/>
<path d="M0 0 C0.99 0 1.98 0 3 0 C2.67 3.63 2.34 7.26 2 11 C1.01 11 0.02 11 -1 11 C-0.67 7.37 -0.34 3.74 0 0 Z " fill="#000000" transform="translate(367,401)"/>
<path d="M0 0 C3.43595166 1.52708963 6.11912454 3.59927045 9 6 C8.67 6.99 8.34 7.98 8 9 C4.63704165 7.55873214 2.37072898 5.79407345 0 3 C0 2.01 0 1.02 0 0 Z " fill="#000000" transform="translate(93,383)"/>
<path d="M0 0 C0.66 0 1.32 0 2 0 C2.125 7.625 2.125 7.625 1 11 C0.01 11 -0.98 11 -2 11 C-1.85957123 9.35369672 -1.71250671 7.70795821 -1.5625 6.0625 C-1.48128906 5.14597656 -1.40007813 4.22945313 -1.31640625 3.28515625 C-1 1 -1 1 0 0 Z " fill="#000000" transform="translate(530,349)"/>
<path d="M0 0 C0.99 0 1.98 0 3 0 C2.67 3.63 2.34 7.26 2 11 C1.01 11 0.02 11 -1 11 C-0.67 7.37 -0.34 3.74 0 0 Z " fill="#000000" transform="translate(77,268)"/>
<path d="M0 0 C0.99 0.33 1.98 0.66 3 1 C2.34 4.3 1.68 7.6 1 11 C0.01 11 -0.98 11 -2 11 C-1.34 7.37 -0.68 3.74 0 0 Z " fill="#000000" transform="translate(81,248)"/>
<path d="M0 0 C0.66 0.33 1.32 0.66 2 1 C1.53199289 5.05606165 1.12046792 8.46588679 -1 12 C-1.66 11.67 -2.32 11.34 -3 11 C-2.69217504 9.35328588 -2.37860766 7.70764424 -2.0625 6.0625 C-1.88847656 5.14597656 -1.71445313 4.22945312 -1.53515625 3.28515625 C-1 1 -1 1 0 0 Z " fill="#000000" transform="translate(87,228)"/>
<path d="M0 0 C0.99 0 1.98 0 3 0 C3.33 3.63 3.66 7.26 4 11 C3.01 11 2.02 11 1 11 C0.67 7.37 0.34 3.74 0 0 Z " fill="#000000" transform="translate(364,163)"/>
<path d="M0 0 C0.66 0.33 1.32 0.66 2 1 C0.66511872 4.59391114 -0.96022723 7.75490696 -3 11 C-3.66 10.67 -4.32 10.34 -5 10 C-4.38545304 6.00544473 -2.29353263 3.25533664 0 0 Z " fill="#000000" transform="translate(121,154)"/>
<path d="M0 0 C0.66 0 1.32 0 2 0 C2.66 3.63 3.32 7.26 4 11 C3.01 11 2.02 11 1 11 C0.63890458 9.35567294 0.28629924 7.7094792 -0.0625 6.0625 C-0.25972656 5.14597656 -0.45695312 4.22945313 -0.66015625 3.28515625 C-0.77230469 2.53105469 -0.88445312 1.77695313 -1 1 C-0.67 0.67 -0.34 0.34 0 0 Z " fill="#000000" transform="translate(353,84)"/>
<path d="M0 0 C-2.36944013 2.61885488 -4.83733102 4.41866551 -8 6 C-8.99 5.67 -9.98 5.34 -11 5 C-11 4.34 -11 3.68 -11 3 C-9.73581754 2.30034557 -8.46334598 1.61565237 -7.1875 0.9375 C-6.47980469 0.55464844 -5.77210938 0.17179687 -5.04296875 -0.22265625 C-3 -1 -3 -1 0 0 Z " fill="#000000" transform="translate(212,73)"/>
<path d="M0 0 C0.99 0 1.98 0 3 0 C3.66 3.3 4.32 6.6 5 10 C4.01 10.33 3.02 10.66 2 11 C1.34 7.37 0.68 3.74 0 0 Z " fill="#000000" transform="translate(348,65)"/>
<path d="M0 0 C0 0.99 0 1.98 0 3 C-3.3 3.66 -6.6 4.32 -10 5 C-10.33 4.01 -10.66 3.02 -11 2 C-3.375 0 -3.375 0 0 0 Z " fill="#000000" transform="translate(269,52)"/>
<path d="M0 0 C0.99 0 1.98 0 3 0 C3.66 3.3 4.32 6.6 5 10 C4.01 10 3.02 10 2 10 C0.68373308 6.38026598 0 3.90432869 0 0 Z " fill="#000000" transform="translate(178,639)"/>
<path d="M0 0 C0.99 0.33 1.98 0.66 3 1 C1.68775452 4.93673644 0.08089673 7.22719294 -3 10 C-4 7 -4 7 -3.22265625 5.17578125 C-2.1484375 3.45052083 -1.07421875 1.72526042 0 0 Z " fill="#000000" transform="translate(187,602)"/>
<path d="M0 0 C0.66 0.33 1.32 0.66 2 1 C0.61198929 4.35435922 -0.88629 6.11290303 -4 8 C-4.99 8 -5.98 8 -7 8 C-7 7.01 -7 6.02 -7 5 C-5.46875 3.61328125 -5.46875 3.61328125 -3.5 2.3125 C-2.8503125 1.87550781 -2.200625 1.43851563 -1.53125 0.98828125 C-1.0259375 0.66214844 -0.520625 0.33601562 0 0 Z " fill="#000000" transform="translate(216,575)"/>
<path d="M0 0 C0 0.99 0 1.98 0 3 C-6.625 6 -6.625 6 -10 6 C-10 5.01 -10 4.02 -10 3 C-8.70990357 2.49596232 -7.41786211 1.99690074 -6.125 1.5 C-5.04605469 1.08234375 -5.04605469 1.08234375 -3.9453125 0.65625 C-2 0 -2 0 0 0 Z " fill="#000000" transform="translate(253,559)"/>
<path d="M0 0 C0.99 0.33 1.98 0.66 3 1 C3 1.66 3 2.32 3 3 C1.5390625 4.2890625 1.5390625 4.2890625 -0.375 5.625 C-1.00148438 6.07101562 -1.62796875 6.51703125 -2.2734375 6.9765625 C-4 8 -4 8 -6 8 C-5.66354211 4.85972637 -4.94763914 3.94901705 -2.625 1.6875 C-1.75875 1.130625 -0.8925 0.57375 0 0 Z " fill="#000000" transform="translate(462,464)"/>
<path d="M0 0 C0.99 0 1.98 0 3 0 C2.67 3.3 2.34 6.6 2 10 C1.01 10 0.02 10 -1 10 C-1.125 3.375 -1.125 3.375 0 0 Z " fill="#000000" transform="translate(363,441)"/>
<path d="M0 0 C0.99 0.33 1.98 0.66 3 1 C1.66511872 4.59391114 0.03977277 7.75490696 -2 11 C-2.66 10.67 -3.32 10.34 -4 10 C-3.29445932 6.33118845 -1.72264494 3.29549466 0 0 Z " fill="#000000" transform="translate(512,404)"/>
<path d="M0 0 C0.99 0 1.98 0 3 0 C2.39009109 3.55780196 1.4216319 6.6828589 0 10 C-0.99 10 -1.98 10 -3 10 C-2.39009109 6.44219804 -1.4216319 3.3171411 0 0 Z " fill="#000000" transform="translate(520,387)"/>
<path d="M0 0 C0.66 0 1.32 0 2 0 C2 3.63 2 7.26 2 11 C1.01 11 0.02 11 -1 11 C-1.0270043 9.54176788 -1.04639787 8.08339325 -1.0625 6.625 C-1.07410156 5.81289063 -1.08570313 5.00078125 -1.09765625 4.1640625 C-1 2 -1 2 0 0 Z " fill="#000000" transform="translate(369,381)"/>
<path d="M0 0 C0.99 0.33 1.98 0.66 3 1 C2.745504 2.48206495 2.47088238 3.96068615 2.1875 5.4375 C2.03667969 6.26121094 1.88585937 7.08492188 1.73046875 7.93359375 C1.48941406 8.61550781 1.24835937 9.29742187 1 10 C0.01 10.33 -0.98 10.66 -2 11 C-1.125 3.375 -1.125 3.375 0 0 Z " fill="#000000" transform="translate(526,368)"/>
<path d="M0 0 C0.99 0 1.98 0 3 0 C3 3.63 3 7.26 3 11 C2.34 11 1.68 11 1 11 C-0.20272819 8.59454362 -0.10071472 7.05003047 -0.0625 4.375 C-0.05347656 3.55773437 -0.04445313 2.74046875 -0.03515625 1.8984375 C-0.02355469 1.27195313 -0.01195312 0.64546875 0 0 Z " fill="#000000" transform="translate(370,242)"/>
<path d="M0 0 C0.66 0 1.32 0 2 0 C2.33 3.63 2.66 7.26 3 11 C2.01 11 1.02 11 0 11 C-1.16461426 7.50615721 -1.13568319 4.66344611 -1 1 C-0.67 0.67 -0.34 0.34 0 0 Z " fill="#000000" transform="translate(370,222)"/>
<path d="M0 0 C0.99 0.33 1.98 0.66 3 1 C1.35 4.3 -0.3 7.6 -2 11 C-2.66 10.67 -3.32 10.34 -4 10 C-3.29445932 6.33118845 -1.72264494 3.29549466 0 0 Z " fill="#000000" transform="translate(110,172)"/>
<path d="M0 0 C0.99 0.33 1.98 0.66 3 1 C3.33 4.3 3.66 7.6 4 11 C3.01 11 2.02 11 1 11 C-0.28317892 7.15046324 -0.06643637 4.05261865 0 0 Z " fill="#000000" transform="translate(362,143)"/>
<path d="M0 0 C3.48670834 1.1094072 6.77484237 2.26337666 10 4 C9.67 4.99 9.34 5.98 9 7 C5.7 5.35 2.4 3.7 -1 2 C-0.67 1.34 -0.34 0.68 0 0 Z " fill="#000000" transform="translate(202,668)"/>
<path d="M0 0 C0.99 0 1.98 0 3 0 C2.34 3.3 1.68 6.6 1 10 C0.01 10 -0.98 10 -2 10 C-1.34 6.7 -0.68 3.4 0 0 Z " fill="#000000" transform="translate(179,620)"/>
<path d="M0 0 C0.66 0.33 1.32 0.66 2 1 C1.67 3.97 1.34 6.94 1 10 C0.01 10.33 -0.98 10.66 -2 11 C-1.85957123 9.35369672 -1.71250671 7.70795821 -1.5625 6.0625 C-1.48128906 5.14597656 -1.40007812 4.22945313 -1.31640625 3.28515625 C-1 1 -1 1 0 0 Z " fill="#000000" transform="translate(354,499)"/>
<path d="M0 0 C0.99 0 1.98 0 3 0 C3 3.63 3 7.26 3 11 C2.01 11 1.02 11 0 11 C0 7.37 0 3.74 0 0 Z " fill="#000000" transform="translate(73,309)"/>
<path d="M0 0 C0.99 0 1.98 0 3 0 C3 3.3 3 6.6 3 10 C2.01 10 1.02 10 0 10 C0 6.7 0 3.4 0 0 Z " fill="#000000" transform="translate(368,203)"/>
<path d="M0 0 C0.99 0 1.98 0 3 0 C3.33 3.3 3.66 6.6 4 10 C3.01 10 2.02 10 1 10 C0.67 6.7 0.34 3.4 0 0 Z " fill="#000000" transform="translate(359,124)"/>
<path d="M0 0 C0.66 0 1.32 0 2 0 C1.43454163 3.95820859 0.19097652 6.6659053 -2 10 C-2.99 9.67 -3.98 9.34 -5 9 C-3.35 6.03 -1.7 3.06 0 0 Z " fill="#000000" transform="translate(318,613)"/>
<path d="M0 0 C0.99 0.33 1.98 0.66 3 1 C2.67 4.3 2.34 7.6 2 11 C1.01 11 0.02 11 -1 11 C-0.67 7.37 -0.34 3.74 0 0 Z " fill="#000000" transform="translate(370,361)"/>
<path d="M0 0 C0.99 0.33 1.98 0.66 3 1 C2.67 4.3 2.34 7.6 2 11 C1.01 10.67 0.02 10.34 -1 10 C-0.67 6.7 -0.34 3.4 0 0 Z " fill="#000000" transform="translate(371,342)"/>
<path d="M0 0 C3.96 0 7.92 0 12 0 C12 0.66 12 1.32 12 2 C8.37 2.33 4.74 2.66 1 3 C0.67 2.01 0.34 1.02 0 0 Z " fill="#000000" transform="translate(278,50)"/>
<path d="M0 0 C0 0.99 0 1.98 0 3 C-3.3 3.33 -6.6 3.66 -10 4 C-10 3.01 -10 2.02 -10 1 C-6.61981469 -0.04005702 -3.5219721 -0.08004482 0 0 Z " fill="#000000" transform="translate(250,678)"/>
<path d="M0 0 C0.556875 0.226875 1.11375 0.45375 1.6875 0.6875 C-0.43919835 3.02686818 -2.37474856 4.49403848 -5.3125 5.6875 C-6.3025 5.6875 -7.2925 5.6875 -8.3125 5.6875 C-7.3125 2.6875 -7.3125 2.6875 -5 0.9375 C-2.3125 -0.3125 -2.3125 -0.3125 0 0 Z " fill="#000000" transform="translate(398.3125,507.3125)"/>
<path d="M0 0 C2.31 0 4.62 0 7 0 C7.66 1.98 8.32 3.96 9 6 C7.68 5.67 6.36 5.34 5 5 C5 4.01 5 3.02 5 2 C3.35 2 1.7 2 0 2 C0 1.34 0 0.68 0 0 Z " fill="#000000" transform="translate(340,50)"/>
<path d="M0 0 C0.66 0 1.32 0 2 0 C2.33 3.63 2.66 7.26 3 11 C2.01 11 1.02 11 0 11 C0 7.37 0 3.74 0 0 Z " fill="#000000" transform="translate(72,329)"/>
<path d="M0 0 C3.63 0 7.26 0 11 0 C11 0.66 11 1.32 11 2 C7.37 2 3.74 2 0 2 C0 1.34 0 0.68 0 0 Z " fill="#000000" transform="translate(320,50)"/>
<path d="M0 0 C3.63 0 7.26 0 11 0 C11 0.66 11 1.32 11 2 C7.37 2 3.74 2 0 2 C0 1.34 0 0.68 0 0 Z " fill="#000000" transform="translate(299,50)"/>
<path d="M0 0 C0.66 0 1.32 0 2 0 C2 1.65 2 3.3 2 5 C1.01 5 0.02 5 -1 5 C-0.67 3.35 -0.34 1.7 0 0 Z " fill="#000000" transform="translate(531,335)"/>
<path d="M0 0 C0.99 0.33 1.98 0.66 3 1 C2.67 1.99 2.34 2.98 2 4 C1.01 3.01 0.02 2.02 -1 1 C-0.67 0.67 -0.34 0.34 0 0 Z " fill="#000000" transform="translate(218,760)"/>
<path d="M0 0 C0.99 0.33 1.98 0.66 3 1 C2.67 1.99 2.34 2.98 2 4 C1.01 3.01 0.02 2.02 -1 1 C-0.67 0.67 -0.34 0.34 0 0 Z " fill="#000000" transform="translate(454,352)"/>
<path d="M0 0 C0.99 0.33 1.98 0.66 3 1 C2.67 1.99 2.34 2.98 2 4 C1.01 3.01 0.02 2.02 -1 1 C-0.67 0.67 -0.34 0.34 0 0 Z " fill="#000000" transform="translate(454,199)"/>
<path d="M0 0 C0.99 0.33 1.98 0.66 3 1 C2.67 1.99 2.34 2.98 2 4 C1.01 3.01 0.02 2.02 -1 1 C-0.67 0.67 -0.34 0.34 0 0 Z " fill="#000000" transform="translate(30,120)"/>
</svg>
