<svg width="675" height="729" viewBox="0 0 675 729" fill="none" xmlns="http://www.w3.org/2000/svg">
<path d="M80.2876 323.23C96.9263 324.617 113.796 313.023 120.151 307.053C120.151 268.23 127.084 237.34 130.55 226.749C156.432 184.228 203.344 178.989 223.565 181.686C253.145 174.753 332.564 210.765 368.576 229.637C361.643 237.957 361.836 327.467 362.798 371.182V429.533C363.954 448.02 364.994 496.896 359.91 544.501C354.826 592.107 342.77 624.421 337.378 634.628C333.334 645.99 316.464 669.407 281.338 672.18C246.212 674.953 231.653 652.923 228.765 641.56C226.261 634.05 222.756 614.292 228.765 595.342C234.773 576.392 266.317 565.107 281.338 561.833C297.515 541.959 282.686 519.659 273.25 510.993C261.118 504.06 229.573 495.279 200.456 515.615C164.059 541.035 155.97 588.987 154.815 610.941C153.659 632.895 165.792 677.38 196.989 699.911C228.187 722.443 262.273 729.954 324.09 724.754C373.544 720.594 414.409 683.735 428.66 665.825C445.299 651.96 468.716 594.957 478.345 568.188C483.737 546.62 494.868 499.785 496.255 484.995C497.641 470.205 498.373 439.932 498.566 426.644V371.182L495.677 262.568C521.097 266.612 585.803 249.28 609.49 226.749C633.177 204.217 643.576 186.307 648.198 144.711C651.896 111.433 633.177 83.4711 623.356 73.6496C617.578 67.4872 600.824 53.8912 580.026 48.8072C559.227 43.7231 512.816 46.6888 492.211 48.8072C471.874 50.6559 449.073 66.9094 440.215 74.8051C431.895 78.5026 409.787 109.469 399.773 124.49C394.689 130.961 384.56 162.235 380.13 177.064C365.109 165.509 316.58 143.555 269.784 132.001C222.987 120.446 161.748 127.379 127.661 141.244C100.392 152.337 77.7838 168.59 69.8882 175.33C54.636 184.574 38.4982 213.846 32.3358 227.326C30.2175 235.607 26.2119 255.751 27.1362 270.079C28.0606 284.406 35.6096 298.773 39.2686 304.165C45.0459 313.986 59.4892 321.497 80.2876 323.23Z" stroke="black" stroke-width="5"/>
<path d="M22.6193 106.455V121H20.858V108.301H20.7727L17.2216 110.659V108.869L20.858 106.455H22.6193ZM27.1932 121.114C26.8428 121.114 26.5421 120.988 26.2912 120.737C26.0402 120.486 25.9148 120.186 25.9148 119.835C25.9148 119.485 26.0402 119.184 26.2912 118.933C26.5421 118.682 26.8428 118.557 27.1932 118.557C27.5436 118.557 27.8442 118.682 28.0952 118.933C28.3461 119.184 28.4716 119.485 28.4716 119.835C28.4716 120.067 28.4124 120.28 28.294 120.474C28.1804 120.669 28.0265 120.825 27.8324 120.943C27.643 121.057 27.4299 121.114 27.1932 121.114ZM34.8263 106.455V121H33.065V108.301H32.9798L29.4286 110.659V108.869L33.065 106.455H34.8263Z" fill="black"/>
<path d="M618.619 4.45455V19H616.858V6.30114H616.773L613.222 8.65909V6.86932L616.858 4.45455H618.619ZM623.193 19.1136C622.843 19.1136 622.542 18.9882 622.291 18.7372C622.04 18.4863 621.915 18.1856 621.915 17.8352C621.915 17.4848 622.04 17.1842 622.291 16.9332C622.542 16.6823 622.843 16.5568 623.193 16.5568C623.544 16.5568 623.844 16.6823 624.095 16.9332C624.346 17.1842 624.472 17.4848 624.472 17.8352C624.472 18.0672 624.412 18.2803 624.294 18.4744C624.18 18.6686 624.027 18.8248 623.832 18.9432C623.643 19.0568 623.43 19.1136 623.193 19.1136ZM627.451 19V17.7216L632.252 12.4659C632.816 11.8504 633.28 11.3153 633.644 10.8608C634.009 10.4015 634.279 9.97064 634.454 9.56818C634.634 9.16098 634.724 8.73485 634.724 8.28977C634.724 7.77841 634.601 7.3357 634.354 6.96165C634.113 6.58759 633.781 6.29877 633.36 6.09517C632.939 5.89157 632.465 5.78977 631.94 5.78977C631.381 5.78977 630.893 5.90578 630.477 6.13778C630.065 6.36506 629.745 6.68466 629.518 7.09659C629.295 7.50852 629.184 7.99148 629.184 8.54545H627.508C627.508 7.69318 627.704 6.94508 628.097 6.30114C628.49 5.6572 629.025 5.1553 629.702 4.79545C630.384 4.43561 631.149 4.25568 631.996 4.25568C632.849 4.25568 633.604 4.43561 634.262 4.79545C634.92 5.1553 635.436 5.64062 635.81 6.25142C636.184 6.86222 636.371 7.54167 636.371 8.28977C636.371 8.82481 636.274 9.34801 636.08 9.85938C635.891 10.366 635.559 10.9318 635.086 11.5568C634.617 12.1771 633.966 12.9347 633.133 13.8295L629.866 17.3239V17.4375H636.627V19H627.451Z" fill="black"/>
<path d="M301.619 354.455V369H299.858V356.301H299.773L296.222 358.659V356.869L299.858 354.455H301.619ZM306.193 369.114C305.843 369.114 305.542 368.988 305.291 368.737C305.04 368.486 304.915 368.186 304.915 367.835C304.915 367.485 305.04 367.184 305.291 366.933C305.542 366.682 305.843 366.557 306.193 366.557C306.544 366.557 306.844 366.682 307.095 366.933C307.346 367.184 307.472 367.485 307.472 367.835C307.472 368.067 307.412 368.28 307.294 368.474C307.18 368.669 307.027 368.825 306.832 368.943C306.643 369.057 306.43 369.114 306.193 369.114ZM314.819 369.199C313.881 369.199 313.046 369.038 312.312 368.716C311.583 368.394 311.003 367.946 310.572 367.374C310.146 366.796 309.914 366.126 309.876 365.364H311.665C311.703 365.832 311.864 366.237 312.148 366.578C312.433 366.914 312.804 367.175 313.263 367.359C313.723 367.544 314.232 367.636 314.79 367.636C315.415 367.636 315.969 367.527 316.452 367.31C316.935 367.092 317.314 366.789 317.589 366.401C317.863 366.012 318.001 365.562 318.001 365.051C318.001 364.516 317.868 364.045 317.603 363.638C317.338 363.226 316.95 362.904 316.438 362.672C315.927 362.44 315.302 362.324 314.563 362.324H313.398V360.761H314.563C315.141 360.761 315.647 360.657 316.083 360.449C316.523 360.241 316.867 359.947 317.113 359.568C317.364 359.189 317.489 358.744 317.489 358.233C317.489 357.741 317.38 357.312 317.163 356.947C316.945 356.583 316.637 356.299 316.239 356.095C315.846 355.892 315.382 355.79 314.847 355.79C314.345 355.79 313.872 355.882 313.427 356.067C312.987 356.247 312.627 356.509 312.347 356.855C312.068 357.196 311.916 357.608 311.893 358.091H310.188C310.217 357.329 310.446 356.661 310.877 356.088C311.308 355.51 311.871 355.061 312.567 354.739C313.268 354.417 314.038 354.256 314.876 354.256C315.775 354.256 316.547 354.438 317.191 354.803C317.835 355.162 318.33 355.638 318.675 356.23C319.021 356.822 319.194 357.461 319.194 358.148C319.194 358.967 318.978 359.665 318.548 360.243C318.121 360.821 317.541 361.221 316.808 361.443V361.557C317.726 361.708 318.443 362.099 318.96 362.729C319.476 363.354 319.734 364.128 319.734 365.051C319.734 365.842 319.518 366.552 319.087 367.182C318.661 367.807 318.079 368.299 317.34 368.659C316.602 369.019 315.761 369.199 314.819 369.199Z" fill="black"/>
<path d="M68 285.5C71.8333 215.833 121 81 367 199C396.833 222.667 465.5 247 521 234.5C538.5 234.5 628.117 199 619.5 132C614.833 95.715 538 23.9997 438 119.499L416.5 585.5C407 648.667 302 759 206.5 670.5C199.219 663.752 171 585.5 227 527.5" stroke="black" stroke-width="2" stroke-dasharray="10 10"/>
<path d="M144.241 115.343C144.706 114.657 144.528 113.724 143.843 113.259L132.674 105.675C131.989 105.21 131.056 105.388 130.59 106.074C130.125 106.759 130.303 107.692 130.989 108.157L140.916 114.898L134.175 124.826C133.71 125.511 133.888 126.444 134.574 126.91C135.259 127.375 136.192 127.197 136.657 126.511L144.241 115.343ZM6.95558 277.138C1.61845 255.707 1.9802 221.869 20.4828 190.194C38.953 158.575 75.6215 128.908 143.282 115.973L142.718 113.027C74.3786 126.092 36.8805 156.175 17.8923 188.681C-1.06346 221.131 -1.4517 255.793 4.0445 277.862L6.95558 277.138Z" fill="black"/>
<path d="M436.609 51.4378C436.299 52.2059 436.67 53.0802 437.438 53.3907L449.953 58.4511C450.721 58.7617 451.596 58.3908 451.906 57.6228C452.217 56.8548 451.846 55.9804 451.078 55.6699L439.953 51.1717L444.451 40.0467C444.762 39.2787 444.391 38.4043 443.623 38.0938C442.855 37.7833 441.98 38.1541 441.67 38.9222L436.609 51.4378ZM674.984 128.281C670.852 100.287 653.986 62.7941 616.736 41.3501C579.435 19.8773 522.075 14.7088 437.414 50.6192L438.586 53.381C522.725 17.6914 579.031 23.1062 615.239 43.9501C651.497 64.8227 667.981 101.38 672.016 128.719L674.984 128.281Z" fill="black"/>
<path d="M331.652 490.658C332.016 491.403 332.914 491.711 333.658 491.348L345.789 485.424C346.533 485.06 346.842 484.162 346.479 483.417C346.115 482.673 345.217 482.364 344.472 482.728L333.69 487.994L328.424 477.211C328.06 476.467 327.162 476.158 326.417 476.521C325.673 476.885 325.364 477.783 325.728 478.528L331.652 490.658ZM339 273.028C339.583 303.848 339.908 351.677 338.988 394.993C338.528 416.653 337.756 437.168 336.552 453.858C335.343 470.62 333.707 483.329 331.581 489.512L334.419 490.488C336.693 483.871 338.34 470.764 339.545 454.074C340.754 437.311 341.527 416.739 341.987 395.057C342.909 351.69 342.583 303.819 342 272.972L339 273.028Z" fill="black"/>
<circle cx="73.5" cy="273.5" r="30.5" fill="black"/>
</svg>
