<svg width="650" height="744" viewBox="0 0 650 744" fill="none" xmlns="http://www.w3.org/2000/svg">
<path d="M16.6193 682.455V697H14.858V684.301H14.7727L11.2216 686.659V684.869L14.858 682.455H16.6193Z" fill="black"/>
<path d="M629.619 26.4545V41H627.858V28.3011H627.773L624.222 30.6591V28.8693L627.858 26.4545H629.619ZM634.193 41.1136C633.843 41.1136 633.542 40.9882 633.291 40.7372C633.04 40.4863 632.915 40.1856 632.915 39.8352C632.915 39.4848 633.04 39.1842 633.291 38.9332C633.542 38.6823 633.843 38.5568 634.193 38.5568C634.544 38.5568 634.844 38.6823 635.095 38.9332C635.346 39.1842 635.472 39.4848 635.472 39.8352C635.472 40.0672 635.412 40.2803 635.294 40.4744C635.18 40.6686 635.027 40.8248 634.832 40.9432C634.643 41.0568 634.43 41.1136 634.193 41.1136ZM638.451 41V39.7216L643.252 34.4659C643.816 33.8504 644.28 33.3153 644.644 32.8608C645.009 32.4015 645.279 31.9706 645.454 31.5682C645.634 31.161 645.724 30.7348 645.724 30.2898C645.724 29.7784 645.601 29.3357 645.354 28.9616C645.113 28.5876 644.781 28.2988 644.36 28.0952C643.939 27.8916 643.465 27.7898 642.94 27.7898C642.381 27.7898 641.893 27.9058 641.477 28.1378C641.065 28.3651 640.745 28.6847 640.518 29.0966C640.295 29.5085 640.184 29.9915 640.184 30.5455H638.508C638.508 29.6932 638.704 28.9451 639.097 28.3011C639.49 27.6572 640.025 27.1553 640.702 26.7955C641.384 26.4356 642.149 26.2557 642.996 26.2557C643.849 26.2557 644.604 26.4356 645.262 26.7955C645.92 27.1553 646.436 27.6406 646.81 28.2514C647.184 28.8622 647.371 29.5417 647.371 30.2898C647.371 30.8248 647.274 31.348 647.08 31.8594C646.891 32.366 646.559 32.9318 646.086 33.5568C645.617 34.1771 644.966 34.9347 644.133 35.8295L640.866 39.3239V39.4375H647.627V41H638.451Z" fill="black"/>
<path d="M373.822 35.4409L376.622 55.0364C346.295 68.1001 292.641 152.081 255.316 202.003C217.991 251.925 187.665 368.565 178.333 459.544C169.002 550.523 216.125 596.246 245.985 609.31C269.873 619.761 311.925 604.956 329.966 596.246C321.723 579.295 298.333 547.071 270.712 553.789C243.092 560.508 234.943 550.99 234.321 545.391C236.809 528.44 254.476 491.177 305.238 477.74C356 464.303 394.195 500.135 406.948 519.73L483.464 401.224C499.016 374.319 532.453 296.808 541.784 202.003C551.115 107.198 517.367 91.8947 499.327 96.0938C485.486 97.4934 449.965 118.115 418.612 189.406C387.259 260.696 417.368 277.586 436.341 277.119C457.243 283.091 450.338 308.534 444.273 320.509C427.477 374.63 375.066 370.12 350.961 361.1C276.311 328.254 304.305 218.022 327.633 167.011C350.961 125.954 412.267 42.1594 470.867 35.4409C544.117 27.0427 576.776 55.0364 592.639 127.82C608.502 200.603 580.975 297.648 554.381 368.565C533.106 425.299 466.823 519.42 436.341 559.388C473.293 615.002 509.591 615.842 523.122 609.31C547.756 606.324 606.169 554.878 632.297 529.528V596.246C606.014 620.819 548.409 673.229 528.254 686.293C503.059 702.622 479.265 716.619 441.007 711.487C410.401 707.381 371.334 660.632 355.626 637.77C328.255 669.185 253.076 727.91 171.335 711.487C69.1583 690.958 27.6345 600.445 29.0342 508.533C30.1539 435.003 61.2268 337.305 76.6233 297.648C80.5113 284.273 100.698 239.421 150.34 167.011C199.982 94.6008 251.272 58.4579 270.712 49.4377C303.558 32.6415 353.138 33.1081 373.822 35.4409Z" stroke="black" stroke-width="5"/>
<path d="M530.619 526.455V541H528.858V528.301H528.773L525.222 530.659V528.869L528.858 526.455H530.619ZM535.193 541.114C534.843 541.114 534.542 540.988 534.291 540.737C534.04 540.486 533.915 540.186 533.915 539.835C533.915 539.485 534.04 539.184 534.291 538.933C534.542 538.682 534.843 538.557 535.193 538.557C535.544 538.557 535.844 538.682 536.095 538.933C536.346 539.184 536.472 539.485 536.472 539.835C536.472 540.067 536.412 540.28 536.294 540.474C536.18 540.669 536.027 540.825 535.832 540.943C535.643 541.057 535.43 541.114 535.193 541.114ZM543.819 541.199C542.881 541.199 542.046 541.038 541.312 540.716C540.583 540.394 540.003 539.946 539.572 539.374C539.146 538.796 538.914 538.126 538.876 537.364H540.665C540.703 537.832 540.864 538.237 541.148 538.578C541.433 538.914 541.804 539.175 542.263 539.359C542.723 539.544 543.232 539.636 543.79 539.636C544.415 539.636 544.969 539.527 545.452 539.31C545.935 539.092 546.314 538.789 546.589 538.401C546.863 538.012 547.001 537.562 547.001 537.051C547.001 536.516 546.868 536.045 546.603 535.638C546.338 535.226 545.95 534.904 545.438 534.672C544.927 534.44 544.302 534.324 543.563 534.324H542.398V532.761H543.563C544.141 532.761 544.647 532.657 545.083 532.449C545.523 532.241 545.867 531.947 546.113 531.568C546.364 531.189 546.489 530.744 546.489 530.233C546.489 529.741 546.38 529.312 546.163 528.947C545.945 528.583 545.637 528.299 545.239 528.095C544.846 527.892 544.382 527.79 543.847 527.79C543.345 527.79 542.872 527.882 542.427 528.067C541.987 528.247 541.627 528.509 541.347 528.855C541.068 529.196 540.916 529.608 540.893 530.091H539.188C539.217 529.329 539.446 528.661 539.877 528.088C540.308 527.51 540.871 527.061 541.567 526.739C542.268 526.417 543.038 526.256 543.876 526.256C544.775 526.256 545.547 526.438 546.191 526.803C546.835 527.162 547.33 527.638 547.675 528.23C548.021 528.822 548.194 529.461 548.194 530.148C548.194 530.967 547.978 531.665 547.548 532.243C547.121 532.821 546.541 533.221 545.808 533.443V533.557C546.726 533.708 547.443 534.099 547.96 534.729C548.476 535.354 548.734 536.128 548.734 537.051C548.734 537.842 548.518 538.552 548.087 539.182C547.661 539.807 547.079 540.299 546.34 540.659C545.602 541.019 544.761 541.199 543.819 541.199Z" fill="black"/>
<path d="M583.955 526.704C583.792 526.177 583.232 525.881 582.704 526.045L574.107 528.706C573.579 528.869 573.284 529.429 573.447 529.957C573.61 530.484 574.17 530.78 574.698 530.616L582.34 528.251L584.706 535.893C584.869 536.421 585.429 536.716 585.957 536.553C586.484 536.39 586.78 535.83 586.616 535.302L583.955 526.704ZM491.751 568.762C512.374 574.075 559.722 573.291 583.885 527.466L582.115 526.534C558.565 571.197 512.412 572.02 492.249 566.825L491.751 568.762Z" fill="black"/>
<path d="M283.499 68.9995C183.332 194.333 -23.4994 561.999 150 664.499C164.5 680.499 231.413 691.812 308.499 641.499C392 586.999 535.499 460.899 567.499 198.499C581.767 81.5 486 -46.0009 366.999 198.499C353.832 222.999 335.399 279.499 366.999 309.499C378.832 314.499 406.699 321.499 423.499 309.499" stroke="black" stroke-width="2" stroke-dasharray="10 10"/>
<path d="M277.5 522.237C375.5 522.238 383.5 572.736 463 661C477.167 676.729 538.5 668.235 607 580.735" stroke="black" stroke-width="2" stroke-dasharray="10 10"/>
<path d="M256.279 731.285C256.712 730.579 256.491 729.655 255.785 729.222L244.28 722.159C243.574 721.725 242.651 721.946 242.217 722.652C241.784 723.358 242.005 724.282 242.711 724.715L252.937 730.994L246.659 741.22C246.226 741.926 246.447 742.85 247.153 743.283C247.859 743.717 248.782 743.496 249.216 742.79L256.279 731.285ZM24.0568 355.093C2.36198 432.026 -12.2546 543.323 14.723 626.886C28.2281 668.718 52.1981 703.715 91.0249 723.872C129.834 744.019 183.236 749.21 255.349 731.959L254.651 729.041C182.965 746.19 130.363 740.914 92.4072 721.209C54.4694 701.514 30.9144 667.274 17.5779 625.964C-9.12786 543.243 5.3056 432.641 26.9442 355.907L24.0568 355.093Z" fill="black"/>
<path d="M474.264 12.1492C473.795 12.8316 473.967 13.7655 474.65 14.2353L485.77 21.8895C486.452 22.3592 487.386 22.1868 487.856 21.5044C488.326 20.822 488.153 19.888 487.471 19.4183L477.586 12.6145L484.39 2.72978C484.86 2.04738 484.687 1.11342 484.005 0.643713C483.322 0.174009 482.388 0.346434 481.919 1.02883L474.264 12.1492ZM632.977 196.762C639.505 160.021 639.547 106.562 618.204 65.8161C607.51 45.4016 591.434 28.1559 568.122 17.8603C544.823 7.57085 514.439 4.2855 475.228 11.5246L475.772 14.4747C514.561 7.31381 544.302 10.6201 566.91 20.6046C589.504 30.583 605.115 47.2936 615.546 67.2082C636.453 107.12 636.495 159.811 630.023 196.237L632.977 196.762Z" fill="black"/>
<circle cx="293.5" cy="86.5" r="30.5" fill="black"/>
</svg>
