<svg width="555" height="752" viewBox="0 0 555 752" fill="none" xmlns="http://www.w3.org/2000/svg">
<circle cx="149.5" cy="402.5" r="25.5" fill="black"/>
<path d="M185.334 426.896C208.246 414.294 203.473 388.868 198.222 377.73C116.12 371.047 105.618 341.929 100.844 333.814C96.071 325.699 81.7508 281.784 93.6843 233.095C105.618 184.406 130.917 151.947 133.781 146.696C136.645 141.445 164.808 108.509 196.313 85.5964C221.516 67.2665 256.14 56.6377 270.301 53.6145L280.802 138.581L288.917 227.844C290.826 267.145 294.645 352.144 294.645 377.73C294.645 403.315 289.235 474.312 286.53 506.612L212.542 527.137C202.041 530.32 175.978 540.789 155.739 557.21C130.44 577.736 133.304 619.264 148.101 645.995C162.899 672.727 196.79 691.343 253.116 679.887C309.443 668.43 323.763 639.313 345.721 609.24C363.287 585.182 393.455 541.73 398.706 522C417.799 515.795 472.693 476.175 502.766 441.807C532.839 407.438 547.159 347.77 551.932 321.039C556.706 294.308 502.766 286.08 498.47 301.832C494.174 317.584 482.718 369.137 453.6 409.234C430.306 441.311 402.842 462.06 392.023 468.424C399.66 437.874 404.434 358.636 404.911 325.699C405.293 299.35 400.933 219.57 398.706 182.974C399.087 160.825 387.408 89.7334 381.521 56.9559C382.667 27.5517 367.042 13.1997 359.086 9.6993C328.059 -5.57563 255.026 7.31259 202.996 27.8383C150.965 48.364 97.9805 106.122 72.6814 141.446C47.3823 176.769 27.8113 243.597 30.198 287.035C32.5847 330.473 38.3128 355.772 59.7932 388.231C76.9775 414.199 106.414 428.01 118.983 431.669C131.553 435.329 162.422 439.498 185.334 426.896Z" stroke="black" stroke-width="5"/>
<path d="M161.501 401C123.334 397.667 50.8009 372.5 66.0009 298.5C63.6675 221.667 113.501 55.5 275.001 35H337.001C403.001 306 346.001 763 180.501 645C149.501 608 187.5 557.447 257.5 540.5C357 516.411 520.2 451.4 523 319" stroke="black" stroke-width="2" stroke-dasharray="10 10"/>
<path d="M431.62 171.455V186H429.859V173.301H429.773L426.222 175.659V173.869L429.859 171.455H431.62ZM436.194 186.114C435.844 186.114 435.543 185.988 435.292 185.737C435.041 185.486 434.916 185.186 434.916 184.835C434.916 184.485 435.041 184.184 435.292 183.933C435.543 183.682 435.844 183.557 436.194 183.557C436.544 183.557 436.845 183.682 437.096 183.933C437.347 184.184 437.472 184.485 437.472 184.835C437.472 185.067 437.413 185.28 437.295 185.474C437.181 185.669 437.027 185.825 436.833 185.943C436.644 186.057 436.431 186.114 436.194 186.114ZM440.452 186V184.722L445.253 179.466C445.816 178.85 446.28 178.315 446.645 177.861C447.009 177.402 447.279 176.971 447.455 176.568C447.634 176.161 447.724 175.735 447.724 175.29C447.724 174.778 447.601 174.336 447.355 173.962C447.114 173.588 446.782 173.299 446.361 173.095C445.939 172.892 445.466 172.79 444.94 172.79C444.382 172.79 443.894 172.906 443.477 173.138C443.065 173.365 442.746 173.685 442.518 174.097C442.296 174.509 442.185 174.991 442.185 175.545H440.509C440.509 174.693 440.705 173.945 441.098 173.301C441.491 172.657 442.026 172.155 442.703 171.795C443.385 171.436 444.15 171.256 444.997 171.256C445.849 171.256 446.605 171.436 447.263 171.795C447.921 172.155 448.437 172.641 448.811 173.251C449.185 173.862 449.372 174.542 449.372 175.29C449.372 175.825 449.275 176.348 449.081 176.859C448.892 177.366 448.56 177.932 448.087 178.557C447.618 179.177 446.967 179.935 446.134 180.83L442.866 184.324V184.438H449.628V186H440.452Z" fill="black"/>
<path d="M26.6201 98.4545V113H24.8587V100.301H24.7735L21.2223 102.659V100.869L24.8587 98.4545H26.6201ZM31.1939 113.114C30.8435 113.114 30.5429 112.988 30.2919 112.737C30.041 112.486 29.9155 112.186 29.9155 111.835C29.9155 111.485 30.041 111.184 30.2919 110.933C30.5429 110.682 30.8435 110.557 31.1939 110.557C31.5443 110.557 31.845 110.682 32.0959 110.933C32.3468 111.184 32.4723 111.485 32.4723 111.835C32.4723 112.067 32.4131 112.28 32.2948 112.474C32.1811 112.669 32.0272 112.825 31.8331 112.943C31.6437 113.057 31.4307 113.114 31.1939 113.114ZM38.8271 98.4545V113H37.0657V100.301H36.9805L33.4294 102.659V100.869L37.0657 98.4545H38.8271Z" fill="black"/>
<path d="M205.619 732.455V747H203.858V734.301H203.773L200.222 736.659V734.869L203.858 732.455H205.619ZM210.193 747.114C209.843 747.114 209.542 746.988 209.291 746.737C209.04 746.486 208.915 746.186 208.915 745.835C208.915 745.485 209.04 745.184 209.291 744.933C209.542 744.682 209.843 744.557 210.193 744.557C210.544 744.557 210.844 744.682 211.095 744.933C211.346 745.184 211.472 745.485 211.472 745.835C211.472 746.067 211.412 746.28 211.294 746.474C211.18 746.669 211.027 746.825 210.832 746.943C210.643 747.057 210.43 747.114 210.193 747.114ZM218.819 747.199C217.881 747.199 217.046 747.038 216.312 746.716C215.583 746.394 215.003 745.946 214.572 745.374C214.146 744.796 213.914 744.126 213.876 743.364H215.665C215.703 743.832 215.864 744.237 216.148 744.578C216.433 744.914 216.804 745.175 217.263 745.359C217.723 745.544 218.232 745.636 218.79 745.636C219.415 745.636 219.969 745.527 220.452 745.31C220.935 745.092 221.314 744.789 221.589 744.401C221.863 744.012 222.001 743.562 222.001 743.051C222.001 742.516 221.868 742.045 221.603 741.638C221.338 741.226 220.95 740.904 220.438 740.672C219.927 740.44 219.302 740.324 218.563 740.324H217.398V738.761H218.563C219.141 738.761 219.647 738.657 220.083 738.449C220.523 738.241 220.867 737.947 221.113 737.568C221.364 737.189 221.489 736.744 221.489 736.233C221.489 735.741 221.38 735.312 221.163 734.947C220.945 734.583 220.637 734.299 220.239 734.095C219.846 733.892 219.382 733.79 218.847 733.79C218.345 733.79 217.872 733.882 217.427 734.067C216.987 734.247 216.627 734.509 216.347 734.855C216.068 735.196 215.916 735.608 215.893 736.091H214.188C214.217 735.329 214.446 734.661 214.877 734.088C215.308 733.51 215.871 733.061 216.567 732.739C217.268 732.417 218.038 732.256 218.876 732.256C219.775 732.256 220.547 732.438 221.191 732.803C221.835 733.162 222.33 733.638 222.675 734.23C223.021 734.822 223.194 735.461 223.194 736.148C223.194 736.967 222.978 737.665 222.548 738.243C222.121 738.821 221.541 739.221 220.808 739.443V739.557C221.726 739.708 222.443 740.099 222.96 740.729C223.476 741.354 223.734 742.128 223.734 743.051C223.734 743.842 223.518 744.552 223.087 745.182C222.661 745.807 222.079 746.299 221.34 746.659C220.602 747.019 219.761 747.199 218.819 747.199Z" fill="black"/>
<path d="M444.62 335.455V350H442.859V337.301H442.773L439.222 339.659V337.869L442.859 335.455H444.62ZM449.194 350.114C448.844 350.114 448.543 349.988 448.292 349.737C448.041 349.486 447.916 349.186 447.916 348.835C447.916 348.485 448.041 348.184 448.292 347.933C448.543 347.682 448.844 347.557 449.194 347.557C449.544 347.557 449.845 347.682 450.096 347.933C450.347 348.184 450.472 348.485 450.472 348.835C450.472 349.067 450.413 349.28 450.295 349.474C450.181 349.669 450.027 349.825 449.833 349.943C449.644 350.057 449.431 350.114 449.194 350.114ZM453.111 347.017V345.568L459.503 335.455H460.554V337.699H459.844L455.014 345.341V345.455H463.622V347.017H453.111ZM459.957 350V346.577V345.902V335.455H461.634V350H459.957Z" fill="black"/>
<path d="M149.827 37.5636C150.138 37.1074 150.02 36.4852 149.564 36.1739L142.13 31.1017C141.673 30.7905 141.051 30.908 140.74 31.3642C140.429 31.8204 140.546 32.4426 141.002 32.7539L147.611 37.2625L143.102 43.871C142.791 44.3272 142.909 44.9494 143.365 45.2606C143.821 45.5719 144.443 45.4544 144.754 44.9981L149.827 37.5636ZM4.49243 330.374C-3.48022 267.84 10.3486 198.91 37.3988 143.501C64.4712 88.0464 104.648 46.3953 149.186 37.9826L148.815 36.0174C103.353 44.6047 62.7791 86.9536 35.6015 142.624C8.40162 198.34 -5.51932 267.66 2.50849 330.626L4.49243 330.374Z" fill="black"/>
<path d="M422.299 318.58C422.62 319.03 423.244 319.135 423.694 318.814L431.023 313.591C431.473 313.27 431.577 312.646 431.257 312.196C430.936 311.746 430.312 311.642 429.862 311.962L423.347 316.605L418.704 310.09C418.384 309.641 417.759 309.536 417.31 309.857C416.86 310.177 416.755 310.802 417.076 311.251L422.299 318.58ZM409.007 94.1222C412.582 123.153 417.528 169.187 420.745 212.932C423.966 256.729 425.441 298.079 422.127 317.835L424.1 318.165C427.461 298.125 425.956 256.517 422.74 212.785C419.52 169 414.57 122.932 410.993 93.8778L409.007 94.1222Z" fill="black"/>
<path d="M476.775 324.368C476.427 323.94 475.797 323.876 475.368 324.225L468.39 329.908C467.962 330.257 467.898 330.887 468.246 331.315C468.595 331.743 469.225 331.808 469.653 331.459L475.856 326.407L480.908 332.61C481.257 333.038 481.887 333.102 482.315 332.754C482.743 332.405 482.808 331.775 482.459 331.347L476.775 324.368ZM425.797 418.605C426.323 417.91 438.186 403.766 450.351 385.249C456.437 375.985 462.616 365.603 467.512 355.224C472.402 344.857 476.041 334.434 476.995 325.102L475.005 324.898C474.084 333.907 470.551 344.094 465.703 354.371C460.86 364.637 454.735 374.934 448.68 384.151C436.564 402.593 424.802 416.608 424.203 417.395L425.797 418.605Z" fill="black"/>
<path d="M107.637 626.142C106.887 625.79 105.994 626.113 105.642 626.863L99.9103 639.086C99.5586 639.836 99.8815 640.729 100.632 641.081C101.382 641.433 102.275 641.11 102.626 640.36L107.721 629.495L118.586 634.59C119.336 634.941 120.229 634.619 120.581 633.868C120.933 633.118 120.61 632.225 119.86 631.874L107.637 626.142ZM351.786 648.118C328.83 679.714 279.517 706.65 230.101 709.502C205.433 710.926 180.826 706.342 159.504 693.42C138.197 680.508 120.058 659.205 108.411 626.99L105.589 628.01C117.442 660.795 135.991 682.679 157.949 695.986C179.892 709.283 205.13 713.949 230.274 712.498C280.483 709.6 330.67 682.286 354.214 649.882L351.786 648.118Z" fill="black"/>
</svg>
