<?xml version="1.0" encoding="UTF-8"?>
<svg version="1.1" xmlns="http://www.w3.org/2000/svg" width="698" height="740">
<path d="M0 0 C2.42192809 0.00315766 4.84262593 -0.02040446 7.2644043 -0.0456543 C21.7329665 -0.10509281 35.89377217 1.69698568 49.74682617 6.00317383 C50.57174561 6.25591064 51.39666504 6.50864746 52.24658203 6.76904297 C60.50326291 9.41420207 68.09142824 13.04981215 75.62182617 17.31567383 C76.59249023 17.85836914 77.5631543 18.40106445 78.56323242 18.96020508 C113.33854831 39.7646517 131.40031734 79.12495642 141.11791992 116.99145508 C155.50550706 176.57353981 149.80566524 248.89327048 118.48168945 302.25805664 C113.81616793 309.78468607 108.10226926 316.51450299 102.31323242 323.18676758 C99.81753483 326.06546388 97.43488849 329.02429409 95.05932617 332.00317383 C58.56284753 376.66760328 -4.83096289 401.40956773 -60.37817383 409.31567383 C-64.07348633 409.44067383 -64.07348633 409.44067383 -66.37817383 409.31567383 C-62.73004598 416.99127025 -59.06272218 424.6574935 -55.37817383 432.31567383 C-54.995 433.11360352 -54.61182617 433.9115332 -54.21704102 434.73364258 C-42.9690139 458.0581634 -28.65124587 480.55509703 -8.60473633 497.34301758 C-5.56284815 500.03802377 -2.7333034 502.92525568 0.12182617 505.81567383 C4.79670566 510.53225194 9.54737391 515.02816871 14.62182617 519.31567383 C15.63472558 520.20234774 16.64632583 521.09050684 17.65698242 521.97973633 C50.53885333 551.21984648 50.53885333 551.21984648 91.37182617 562.25317383 C101.2261143 560.94684168 108.12635483 555.56440339 114.07324219 547.83618164 C114.6048999 547.12816406 115.13655762 546.42014648 115.68432617 545.69067383 C116.25014404 544.94140625 116.81596191 544.19213867 117.39892578 543.42016602 C146.23706209 504.84088054 168.24077213 459.66158282 178.72338867 412.53051758 C180.23125939 405.77857215 181.53399945 400.78213223 187.38354492 396.60083008 C201.55612336 388.46334612 221.33406655 385.74573324 237.23120117 389.51489258 C254.73820215 395.37916578 265.30946299 412.42634273 273.18432617 428.06567383 C277.95059488 437.72737841 275.23031046 447.81055463 273.05932617 457.87817383 C272.78975098 459.14814209 272.52017578 460.41811035 272.24243164 461.7265625 C269.580091 474.07937181 266.31971227 486.23382116 262.62182617 498.31567383 C262.32050781 499.30341797 262.01918945 500.29116211 261.70874023 501.30883789 C249.39159046 541.12777182 230.43704854 578.5296537 207.62182617 613.31567383 C207.2094873 613.94715332 206.79714844 614.57863281 206.37231445 615.22924805 C201.3717391 622.83630886 195.92878377 629.74337498 189.62182617 636.31567383 C188.76331055 637.24895508 187.90479492 638.18223633 187.02026367 639.14379883 C163.84124092 663.83520594 129.13365563 682.81174697 95.0078125 684.44042969 C29.72054773 686.3671753 -33.70444769 656.7521908 -80.77661133 612.79223633 C-85.40350325 608.35363205 -89.9736477 603.85674952 -94.52609253 599.34197998 C-95.53471041 598.34205898 -96.54469199 597.34351125 -97.55618286 596.34649658 C-104.29955863 589.68823069 -110.48273218 582.74614946 -116.37817383 575.31567383 C-121.60636216 568.94996181 -126.85228416 562.63754469 -132.78051758 556.90551758 C-135.13341823 554.56412255 -137.27147819 552.05239091 -139.43676758 549.53833008 C-141.66621444 546.985905 -143.95818765 544.49679869 -146.25317383 542.00317383 C-150.29368387 537.56772671 -154.1582313 533.03431725 -157.91723633 528.35864258 C-159.70274116 526.15085168 -161.50607746 523.97138586 -163.33911133 521.80395508 C-169.61761331 514.32257154 -175.38884288 506.6271202 -180.81567383 498.50317383 C-181.3824585 497.6564209 -181.94924316 496.80966797 -182.53320312 495.93725586 C-185.41421133 491.55342734 -188.08270143 487.11213619 -190.57763672 482.49658203 C-191.10571426 481.52171341 -191.63379181 480.54684479 -192.1778717 479.54243469 C-192.57397141 478.80760361 -192.97007111 478.07277252 -193.37817383 477.31567383 C-193.53190933 523.55729021 -193.17586987 569.72682363 -191.37817383 615.94067383 C-191.33638 617.0152182 -191.29458618 618.08976257 -191.25152588 619.1968689 C-190.87955059 628.62166784 -190.49855613 638.03943568 -189.83129883 647.44848633 C-189.3583328 654.15845912 -189.160744 660.83993317 -189.12817383 667.56567383 C-189.10754883 668.6459082 -189.08692383 669.72614258 -189.06567383 670.83911133 C-188.99731101 685.02439512 -193.47568329 699.0671707 -203.42114258 709.51098633 C-218.97967903 723.85837922 -236.91387223 725.0438758 -257.09643555 724.49047852 C-275.18086798 723.52719525 -289.9945394 715.01398955 -302.37817383 702.31567383 C-303.04461914 701.65825195 -303.71106445 701.00083008 -304.39770508 700.32348633 C-319.85051382 684.06838729 -324.05868351 661.63105814 -326.94067383 640.25317383 C-327.23441828 638.15467565 -327.52836827 636.05620623 -327.82250977 633.95776367 C-332.77763985 598.03281606 -336.00673733 561.90459181 -338.23034668 525.7142334 C-338.37153968 523.42331577 -338.51658038 521.13267107 -338.66235352 518.84204102 C-339.3848541 507.33933204 -339.91042129 495.83129591 -340.37817383 484.31567383 C-340.42306946 483.2385614 -340.46796509 482.16144897 -340.51422119 481.05169678 C-344.11435744 393.91228178 -343.46279731 306.46203616 -340.37817383 219.31567383 C-340.35157433 218.55860893 -340.32497482 217.80154404 -340.29756927 217.02153778 C-339.09150016 182.7604098 -337.44701949 148.53177858 -335.31567383 114.31567383 C-335.27434578 113.6496452 -335.23301773 112.98361656 -335.19043732 112.29740524 C-334.37565786 99.19346859 -333.50656542 86.09503855 -332.36645508 73.01489258 C-332.25659523 71.71050232 -332.25659523 71.71050232 -332.14451599 70.37976074 C-330.56294135 53.08802031 -324.68208406 39.6413995 -312.37817383 27.31567383 C-311.83676758 26.76266602 -311.29536133 26.2096582 -310.73754883 25.63989258 C-294.00706382 9.96562505 -270.11159501 5.70171051 -248.03051758 6.12817383 C-229.22810048 6.74250643 -210.76423137 11.52572662 -197.37817383 25.31567383 C-194.89653369 29.03813403 -195.10465367 30.99956944 -195.05932617 35.44921875 C-195.04425774 36.5325222 -195.04425774 36.5325222 -195.02888489 37.63771057 C-194.99800444 40.02384651 -194.98100449 42.40987 -194.96411133 44.79614258 C-194.94540356 46.45096304 -194.92583044 48.10577393 -194.90542603 49.76057434 C-194.85405734 54.11541096 -194.81445705 58.47027851 -194.77728271 62.82525635 C-194.73727271 67.26940597 -194.68616669 71.71342634 -194.63598633 76.1574707 C-194.53917097 84.87678352 -194.45478423 93.5961602 -194.37817383 102.31567383 C-193.77561768 101.36740723 -193.17306152 100.41914062 -192.55224609 99.44213867 C-191.74564091 98.17855498 -190.93891233 96.91505005 -190.13208008 95.65161133 C-189.73686157 95.02891357 -189.34164307 94.40621582 -188.93444824 93.76464844 C-177.23078618 75.46830333 -160.95653273 60.82662791 -143.37817383 48.31567383 C-142.7774707 47.8809375 -142.17676758 47.44620117 -141.55786133 46.99829102 C-101.38581033 18.10774089 -49.60728121 -0.13451809 0 0 Z M-164.37817383 73.31567383 C-165.05106445 73.91508789 -165.72395508 74.51450195 -166.41723633 75.13208008 C-178.72355357 86.76767387 -188.86179722 101.94384044 -194.46801758 117.83129883 C-195.37817383 120.31567383 -195.37817383 120.31567383 -196.37817383 121.31567383 C-198.04434498 121.35631215 -199.71205478 121.35839483 -201.37817383 121.31567383 C-201.36262955 120.19116318 -201.34708527 119.06665253 -201.33106995 117.9080658 C-201.18904295 107.30008434 -201.08417499 96.69229628 -201.01548862 86.08357906 C-200.97898829 80.62969716 -200.92949584 75.176584 -200.85009766 69.72314453 C-200.77392453 64.45814547 -200.73215947 59.19388481 -200.71403313 53.92837715 C-200.70111934 51.92167094 -200.67590064 49.91500423 -200.63806343 47.9086132 C-200.58708396 45.09281646 -200.58025653 42.28005269 -200.58349609 39.46386719 C-200.55832916 38.63811691 -200.53316223 37.81236664 -200.50723267 36.96159363 C-200.56616695 32.21317397 -201.3610953 29.81786978 -204.72007751 26.37574768 C-220.45348696 12.2388195 -243.34860288 11.26029134 -263.37817383 12.31567383 C-282.43332062 14.18727361 -301.8072136 22.88678726 -314.31176758 37.58911133 C-327.35512585 54.92415522 -326.9340547 76.60937416 -328.31567383 97.31567383 C-328.40121521 98.57742432 -328.48675659 99.8391748 -328.57489014 101.13916016 C-331.25541864 140.82909623 -333.11218925 180.56048081 -334.50317383 220.31567383 C-334.54178528 221.4079126 -334.58039673 222.50015137 -334.62017822 223.62548828 C-334.88228911 231.15085614 -335.11141706 238.67686171 -335.31946945 246.20391464 C-335.35990243 247.65840106 -335.40094617 249.11287058 -335.44249344 250.56732559 C-336.42128168 284.84743775 -336.58059141 319.12158533 -336.56639814 353.41381693 C-336.5656674 355.52171114 -336.56542171 357.62960491 -336.56531143 359.73749924 C-336.56194789 401.95880789 -336.37680588 444.13206967 -334.37817383 486.31567383 C-334.26985317 488.68578713 -334.16161858 491.05590437 -334.0534668 493.42602539 C-331.97759791 538.13489195 -328.39568747 582.65435967 -322.66918945 627.04626465 C-322.39030036 629.22110823 -322.11749582 631.39661759 -321.84692383 633.57250977 C-318.7891584 658.05420113 -314.71421173 680.58210504 -297.37817383 699.31567383 C-296.73750977 700.01047852 -296.0968457 700.7052832 -295.43676758 701.42114258 C-282.10943213 714.49558741 -263.61734908 719.11298351 -245.46362305 719.33862305 C-230.26486773 719.17136913 -217.56830807 714.19107745 -206.66723633 703.66333008 C-196.67442355 692.88428076 -194.08846714 678.96529918 -194.44287109 664.71408081 C-194.71103605 658.43367103 -195.11609605 652.16154701 -195.52789307 645.88916016 C-195.91099433 640.02483568 -196.26042274 634.15848874 -196.61254883 628.29223633 C-196.7167363 626.57022003 -196.7167363 626.57022003 -196.82302856 624.81341553 C-197.58717925 612.06446294 -198.05748361 599.32156016 -198.32995605 586.55230713 C-198.38258117 584.11123465 -198.43838478 581.67024537 -198.49438477 579.22924805 C-198.98379877 557.64762676 -199.34475396 536.06481888 -199.5967865 514.47920799 C-199.62809879 511.79865984 -199.65989047 509.11811772 -199.69177246 506.43757629 C-199.78643446 498.4375648 -199.87859183 490.43756237 -199.95896912 482.43739319 C-199.99339254 479.09563799 -200.03155649 475.75393223 -200.07055664 472.41222763 C-200.08797864 470.84368547 -200.10371607 469.27512358 -200.11767578 467.70654678 C-200.13706629 465.54371333 -200.16223366 463.38101823 -200.1887207 461.21826172 C-200.20124878 460.00054581 -200.21377686 458.7828299 -200.22668457 457.5282135 C-200.36135349 454.67237239 -200.72293698 452.0922584 -201.37817383 449.31567383 C-199.39817383 449.64567383 -197.41817383 449.97567383 -195.37817383 450.31567383 C-195.18223633 451.27344727 -194.98629883 452.2312207 -194.78442383 453.21801758 C-188.73473393 480.89886612 -171.10207037 503.10996327 -153.01098633 524.21411133 C-150.67313732 526.94860474 -148.42885135 529.74880402 -146.19067383 532.56567383 C-140.25698747 539.86785001 -133.66882416 546.57528052 -127.19458008 553.39477539 C-121.31467731 559.61293063 -115.77715332 566.01943392 -110.47973633 572.74145508 C-107.37635038 576.54281445 -104.05901318 580.13435867 -100.73364258 583.74145508 C-98.81636756 585.83678549 -96.96253497 587.96113258 -95.12817383 590.12817383 C-87.28883536 599.14061996 -78.5905999 607.71502728 -69.37817383 615.31567383 C-68.85626465 615.75669434 -68.33435547 616.19771484 -67.79663086 616.65209961 C-52.46904444 629.59585949 -36.20228669 641.06808543 -18.37817383 650.31567383 C-17.6350293 650.70819336 -16.89188477 651.10071289 -16.1262207 651.50512695 C7.28513839 663.74420532 32.77470719 671.24761128 58.62182617 676.31567383 C59.68747803 676.53175293 59.68747803 676.53175293 60.7746582 676.75219727 C95.66074516 683.57557199 128.68285886 674.49524293 157.88256836 655.35180664 C177.80815197 641.84310219 192.91400135 625.645184 205.62182617 605.31567383 C206.20480469 604.38561523 206.7877832 603.45555664 207.38842773 602.49731445 C217.3268807 586.5344347 226.21261876 570.12847503 234.62182617 553.31567383 C235.01950195 552.53353516 235.41717773 551.75139648 235.8269043 550.94555664 C250.31642931 522.38011183 275.59722801 467.28853292 269.62182617 435.31567383 C263.81300806 420.17705009 253.24378424 403.54165651 238.30151367 396.17114258 C224.40665103 391.14973182 207.00097869 394.15676523 193.87182617 400.06567383 C189.72305395 402.03804095 187.91988186 403.80638339 186.30639648 408.15161133 C184.86339692 412.71321908 183.60954231 417.31984335 182.37182617 421.94067383 C170.04280259 466.72514239 150.74974235 507.75065189 123.43432617 545.31567383 C122.86407715 546.10538574 122.29382813 546.89509766 121.70629883 547.70874023 C114.49907175 557.49399307 107.04711048 564.89858802 94.89526367 568.01489258 C73.39495995 570.96404928 52.40457383 556.75696586 36.01147461 544.51196289 C27.61181361 538.09816423 19.53546667 531.31718191 11.62182617 524.31567383 C10.75299805 523.54739258 9.88416992 522.77911133 8.98901367 521.98754883 C6.51859424 519.77926393 4.06848619 517.55023948 1.62182617 515.31567383 C0.6859668 514.47262695 -0.24989258 513.62958008 -1.21411133 512.76098633 C-4.64341848 509.65589457 -8.01879148 506.49616907 -11.37817383 503.31567383 C-12.47258789 502.28240967 -12.47258789 502.28240967 -13.58911133 501.22827148 C-34.41372024 481.41981355 -49.36396288 459.482919 -61.50317383 433.56567383 C-65.95256931 424.07262169 -70.44553478 414.99409249 -76.37817383 406.31567383 C-71.17367909 405.25025446 -65.96532839 404.23136371 -60.73364258 403.30786133 C-16.11644065 395.31926446 28.45037088 380.41111237 64.62182617 352.31567383 C65.46229492 351.67887695 66.30276367 351.04208008 67.16870117 350.38598633 C79.38998898 340.80420743 90.34817357 329.63562854 99.52807617 317.12036133 C101.30926041 314.73437199 103.14451003 312.60102456 105.18432617 310.44067383 C134.56575342 277.20594465 141.83893814 221.61449351 141.87182617 179.12817383 C141.87250092 178.3384317 141.87317566 177.54868958 141.87387085 176.73501587 C141.80659671 126.83583719 128.44516656 74.77018068 93.43432617 37.75317383 C69.09731973 14.17406724 36.15882769 6.1112833 3.14135742 5.22192383 C-59.17584371 6.88187147 -118.12395444 31.97824154 -164.37817383 73.31567383 Z " fill="#000000" transform="translate(421.378173828125,15.684326171875)"/>
<path d="M0 0 C16.11149486 12.66835007 25.63351431 31.98401272 28.6875 52 C28.81545353 53.33126119 28.91766289 54.6651408 29 56 C29.05285156 56.84433594 29.10570312 57.68867188 29.16015625 58.55859375 C29.97290986 84.60204627 18.4905921 108.14794369 1.21875 127.09765625 C-29.94899897 160.14873303 -80.01534155 180.15881869 -122 195 C-123.09135254 195.38687988 -124.18270508 195.77375977 -125.30712891 196.17236328 C-126.95914307 196.7231958 -126.95914307 196.7231958 -128.64453125 197.28515625 C-129.62397705 197.61523682 -130.60342285 197.94531738 -131.61254883 198.28540039 C-136.10641717 199.23340418 -140.42578407 199.14040668 -145 199 C-144.30688535 176.75418331 -142.91556626 154.54848311 -141.52587891 132.33740234 C-141.25496269 127.99731464 -140.99171328 123.6568605 -140.73486328 119.31591797 C-140.42081956 114.00846655 -140.09433704 108.70192003 -139.75878525 103.39578629 C-139.63410352 101.39225556 -139.51370665 99.38845314 -139.39780045 97.3843956 C-139.23566916 94.59765118 -139.05750679 91.81236194 -138.87548828 89.02685547 C-138.83174072 88.2123291 -138.78799316 87.39780273 -138.74291992 86.55859375 C-137.64671259 70.79658999 -125.50563575 56.89870376 -115 46 C-113.84678558 44.63118462 -112.70031992 43.25663847 -111.5625 41.875 C-107.24478456 36.93473024 -102.1933389 32.98111822 -97 29 C-96.48050781 28.60022949 -95.96101563 28.20045898 -95.42578125 27.78857422 C-71.59992657 9.62352339 -28.5161146 -19.22354989 0 0 Z M-35.875 2.8125 C-36.49848328 3.05920441 -37.12196655 3.30590881 -37.76434326 3.56008911 C-62.14803319 13.24862403 -84.54047863 25.23031495 -104 43 C-104.85722656 43.77472656 -105.71445312 44.54945313 -106.59765625 45.34765625 C-114.04567311 52.41796069 -120.18768755 60.56249776 -126 69 C-126.50991549 69.72647578 -127.01983097 70.45295156 -127.54519844 71.20144176 C-131.69334584 77.52755851 -132.98665564 82.56942373 -133.32373047 90.06176758 C-133.39288162 91.11833557 -133.46203278 92.17490356 -133.53327942 93.26348877 C-133.75335867 96.72281282 -133.93558687 100.18299245 -134.1171875 103.64453125 C-134.26326071 106.0622073 -134.41166367 108.47974362 -134.56228638 110.8971405 C-134.95093606 117.23802408 -135.30723444 123.58032665 -135.65692139 129.92346191 C-136.01922194 136.38443769 -136.41371054 142.84344239 -136.8046875 149.30273438 C-137.37012311 158.7293245 -137.92498392 168.15641887 -138.45263672 177.58520508 C-138.50866562 178.57074875 -138.56469452 179.55629242 -138.62242126 180.57170105 C-138.67264938 181.48126556 -138.7228775 182.39083008 -138.77462769 183.32795715 C-138.81845518 184.11416348 -138.86228268 184.90036982 -138.90743828 185.71040058 C-139.00576632 188.14263526 -139.01552725 190.56604447 -139 193 C-131.15221916 191.7263797 -123.93203737 189.41398095 -116.5 186.625 C-115.3236499 186.18510742 -114.1472998 185.74521484 -112.93530273 185.29199219 C-100.32246415 180.48694095 -88.1388425 174.88657011 -76 169 C-74.83227051 168.43732422 -73.66454102 167.87464844 -72.46142578 167.29492188 C-35.24885663 149.32503913 3.43791371 128.71147826 18.875 87.875 C25.55322536 67.70541027 24.05258977 47.2613527 15 28 C7.77096479 14.57206709 -2.12880994 3.14496734 -16.95703125 -1.5546875 C-23.76719189 -3.03912022 -29.67284288 0.35325061 -35.875 2.8125 Z " fill="#000000" transform="translate(396,160)"/>
<path d="M0 0 C6.517904 4.68956663 12.55343845 10.81246164 14 19 C14.7992898 30.25557271 13.99078008 38.31915226 6.75 47.25 C1.33164802 53.0878373 -4.3711544 56.67129269 -12.35546875 57.23828125 C-23.57071698 57.45549809 -30.8402179 55.69919895 -39.20703125 47.93359375 C-46.38318634 40.19460297 -47.48473506 33.10670258 -47.2734375 22.765625 C-46.64352117 14.09077723 -42.28194806 7.82507911 -36 2 C-25.82502277 -5.66451556 -10.93235165 -7.28107507 0 0 Z " fill="#000000" transform="translate(171,84)"/>
<path d="M0 0 C47.89364447 4.9692869 96.98290891 25.77865717 132 59 C132.74999268 59.70116943 132.74999268 59.70116943 133.51513672 60.41650391 C158.95741691 84.32714181 174.89180932 116.77880935 176 152 C176.03996094 153.03511719 176.07992187 154.07023438 176.12109375 155.13671875 C176.97887671 198.58090258 160.40094163 239.95194825 139 277 C142.3 276.67 145.6 276.34 149 276 C148.67 277.32 148.34 278.64 148 280 C146.08654673 280.53251766 144.1690705 281.05059483 142.25 281.5625 C141.18265625 281.85253906 140.1153125 282.14257812 139.015625 282.44140625 C134.49106962 283.27950394 134.49106962 283.27950394 132 282 C129.52380958 277.09381675 128.56919577 271.45685357 129 266 C130.32 266.33 131.64 266.66 133 267 C133.99 270.465 133.99 270.465 135 274 C161.35444133 228.58064366 180.17178813 174.95999974 166.40820312 122.34545898 C155.51003222 84.00980287 126.75952768 55.32296339 92.83105469 36.04101562 C91.08035798 35.04568619 89.34065444 34.03109478 87.6015625 33.015625 C60.13778631 17.58653725 29.62075868 10.14941864 -1 4 C-0.67 2.68 -0.34 1.36 0 0 Z " fill="#000000" transform="translate(436,0)"/>
<path d="M0 0 C0.99 0 1.98 0 3 0 C3.06279382 13.39688637 2.97510508 26.78831494 2.78125 40.18359375 C2.77022121 40.94656706 2.75919243 41.70954037 2.74782944 42.49563408 C2.70171329 45.67041073 2.65521582 48.84518153 2.60827446 52.0199461 C1.27750174 142.2283711 0.75160577 233.00934284 10 344.3125 C10.07772644 345.08426575 10.15545288 345.85603149 10.23553467 346.65118408 C11.19712951 356.05782473 12.45072968 365.38210989 14.03491211 374.70539856 C14.67106158 378.51725187 15.17058216 382.11780195 15 386 C15.66 386 16.32 386 17 386 C17.99 384.02 17.99 384.02 19 382 C19.66 382 20.32 382 21 382 C20.49701212 386.40114397 18.91227269 388.71195019 16 392 C11.61537866 391.49890042 9.1999003 390.01704885 6 387 C6 386.34 6 385.68 6 385 C7.65 385.33 9.3 385.66 11 386 C10.5235548 380.66831559 9.93399039 375.36855783 9.16796875 370.0703125 C4.40606144 336.74674943 2.28921988 303.05027899 0.8125 269.4375 C0.77566101 268.59999207 0.73882202 267.76248413 0.7008667 266.89959717 C0.43084878 260.60089496 0.2144668 254.30079693 0 248 C-0.06107437 246.2606144 -0.06107437 246.2606144 -0.12338257 244.48608971 C-0.94432711 220.65937166 -1.15064443 196.85602529 -1.1343255 173.01641393 C-1.13173179 168.0128495 -1.13415813 163.00928658 -1.13571167 158.00572205 C-1.13751229 149.62287052 -1.13518205 141.2400279 -1.13037109 132.85717773 C-1.12492007 123.24978361 -1.12670584 113.6424107 -1.1321975 104.03501707 C-1.13677453 95.68404718 -1.13735735 87.33308357 -1.13475883 78.98211282 C-1.13322263 74.03870608 -1.13292755 69.09530921 -1.13629532 64.15190315 C-1.14895804 42.74428926 -1.00736306 21.38788606 0 0 Z " fill="#000000" transform="translate(46,167)"/>
<path d="M0 0 C1.00696568 2.10084209 2.0053589 4.20579489 3 6.3125 C3.556875 7.48425781 4.11375 8.65601563 4.6875 9.86328125 C6 13 6 13 6 16 C4.68 16 3.36 16 2 16 C1.01 13.69 0.02 11.38 -1 9 C-1.26627197 9.49814209 -1.53254395 9.99628418 -1.80688477 10.50952148 C-11.80531325 29.11860433 -11.80531325 29.11860433 -18 36 C-18.58910156 36.69222656 -19.17820312 37.38445313 -19.78515625 38.09765625 C-26.24214305 45.19106065 -35.13707235 50.41855752 -44.8125 51.23828125 C-63.07159441 51.66343173 -77.34120129 42.77556395 -90.28662109 30.67480469 C-93.10212693 27.92268585 -95.7423129 25.04379725 -98.3125 22.0625 C-98.77462891 21.53132568 -99.23675781 21.00015137 -99.71289062 20.45288086 C-102.25167715 17.38194058 -103.6107518 14.98795794 -104 11 C-103.01 10.67 -102.02 10.34 -101 10 C-100.59910156 10.53367187 -100.19820313 11.06734375 -99.78515625 11.6171875 C-88.35293442 26.60091589 -74.30064394 41.85808521 -55 46 C-44.56334848 46.94596693 -35.89871298 45.0537065 -27.3125 38.9375 C-17.30907119 30.49766219 -11.80450423 18.46120858 -6 7 C-6.76699219 7.32742188 -7.53398438 7.65484375 -8.32421875 7.9921875 C-11.09718753 9.03660494 -13.06773447 9.16755803 -16 9 C-16 8.01 -16 7.02 -16 6 C-13.89915791 4.99303432 -11.79420511 3.9946411 -9.6875 3 C-8.51574219 2.443125 -7.34398437 1.88625 -6.13671875 1.3125 C-3 0 -3 0 0 0 Z " fill="#000000" transform="translate(546,499)"/>
<path d="M0 0 C3.0625 0.1875 3.0625 0.1875 5.0625 2.1875 C4.90004442 5.92397845 4.47466356 7.71288742 2 10.5625 C1.360625 11.09875 0.72125 11.635 0.0625 12.1875 C1.7125 12.5175 3.3625 12.8475 5.0625 13.1875 C5.0625 13.8475 5.0625 14.5075 5.0625 15.1875 C1.7625 15.1875 -1.5375 15.1875 -4.9375 15.1875 C-2.9375 11.1875 -2.9375 11.1875 -0.8125 8.625 C1.36735538 6.30372611 1.36735538 6.30372611 1.0625 3.1875 C0.4025 3.1875 -0.2575 3.1875 -0.9375 3.1875 C-1.2675 3.8475 -1.5975 4.5075 -1.9375 5.1875 C-2.9275 5.1875 -3.9175 5.1875 -4.9375 5.1875 C-3.82120474 0.24390669 -3.82120474 0.24390669 0 0 Z " fill="#000000" transform="translate(504.9375,490.8125)"/>
<path d="M0 0 C3.0625 0.1875 3.0625 0.1875 5.0625 2.1875 C4.90004442 5.92397845 4.47466356 7.71288742 2 10.5625 C1.360625 11.09875 0.72125 11.635 0.0625 12.1875 C1.7125 12.5175 3.3625 12.8475 5.0625 13.1875 C5.0625 13.8475 5.0625 14.5075 5.0625 15.1875 C1.7625 15.1875 -1.5375 15.1875 -4.9375 15.1875 C-2.9375 11.1875 -2.9375 11.1875 -0.8125 8.625 C1.36735538 6.30372611 1.36735538 6.30372611 1.0625 3.1875 C0.4025 3.1875 -0.2575 3.1875 -0.9375 3.1875 C-1.2675 3.8475 -1.5975 4.5075 -1.9375 5.1875 C-2.9275 5.1875 -3.9175 5.1875 -4.9375 5.1875 C-3.82120474 0.24390669 -3.82120474 0.24390669 0 0 Z " fill="#000000" transform="translate(643.9375,139.8125)"/>
<path d="M0 0 C0 4.95 0 9.9 0 15 C-0.99 15 -1.98 15 -3 15 C-3 11.37 -3 7.74 -3 4 C-3.99 4.33 -4.98 4.66 -6 5 C-5.625 3.0625 -5.625 3.0625 -5 1 C-3 0 -3 0 0 0 Z " fill="#000000" transform="translate(492,491)"/>
<path d="M0 0 C0 4.95 0 9.9 0 15 C-0.99 15 -1.98 15 -3 15 C-3 11.37 -3 7.74 -3 4 C-3.99 4.33 -4.98 4.66 -6 5 C-5.625 3.0625 -5.625 3.0625 -5 1 C-3 0 -3 0 0 0 Z " fill="#000000" transform="translate(7,373)"/>
<path d="M0 0 C0 4.95 0 9.9 0 15 C-0.99 15 -1.98 15 -3 15 C-3 11.37 -3 7.74 -3 4 C-3.99 4.33 -4.98 4.66 -6 5 C-5.625 3.0625 -5.625 3.0625 -5 1 C-3 0 -3 0 0 0 Z " fill="#000000" transform="translate(631,140)"/>
<path d="M0 0 C0.33 2.31 0.66 4.62 1 7 C0.01 7 -0.98 7 -2 7 C-2 5.68 -2 4.36 -2 3 C-2.7425 3.33 -3.485 3.66 -4.25 4 C-7 5 -7 5 -11 5 C-11 4.01 -11 3.02 -11 2 C-7.12315913 0.80712589 -4.08378077 0 0 0 Z " fill="#000000" transform="translate(266,398)"/>
<path d="M0 0 C3.36295835 1.44126786 5.62927102 3.20592655 8 6 C8 6.99 8 7.98 8 9 C5.62051228 8.82374165 4.29774151 8.30280227 2.62109375 6.59765625 C1.37884514 5.09350908 0.18623944 3.54870149 -1 2 C-0.67 1.34 -0.34 0.68 0 0 Z " fill="#000000" transform="translate(362,565)"/>
<path d="M0 0 C0.99 0.33 1.98 0.66 3 1 C1.51218185 4.78717347 -0.61988409 6.77407001 -4 9 C-4.99 8.67 -5.98 8.34 -7 8 C-6.02133662 6.85373678 -5.04205413 5.70800212 -4.0625 4.5625 C-3.51722656 3.92441406 -2.97195313 3.28632813 -2.41015625 2.62890625 C-1.63204305 1.73008851 -0.84063472 0.84063472 0 0 Z " fill="#000000" transform="translate(457,308)"/>
<path d="M0 0 C-0.38520564 2.53910197 -0.70097943 3.72751123 -2.62890625 5.484375 C-3.26699219 5.90203125 -3.90507813 6.3196875 -4.5625 6.75 C-5.20316406 7.17796875 -5.84382812 7.6059375 -6.50390625 8.046875 C-7.24447266 8.51867187 -7.24447266 8.51867187 -8 9 C-8 5 -8 5 -5.6875 2.25 C-3 0 -3 0 0 0 Z " fill="#000000" transform="translate(579,611)"/>
<path d="M0 0 C0.66 0.33 1.32 0.66 2 1 C0.47291037 4.43595166 -1.59927045 7.11912454 -4 10 C-4.99 9.67 -5.98 9.34 -7 9 C-5.44499019 5.18315774 -2.96404505 2.80804268 0 0 Z " fill="#000000" transform="translate(591,596)"/>
<path d="M0 0 C4.2742558 1.5830577 6.26531794 4.50568404 9 8 C3.69520066 8 2.81017373 6.4637943 -1 3 C-0.67 2.01 -0.34 1.02 0 0 Z " fill="#000000" transform="translate(376,579)"/>
<path d="M0 0 C4.42679007 1.47559669 4.91432696 3.90057368 7 8 C7 8.66 7 9.32 7 10 C5.25 9.875 5.25 9.875 3 9 C0.6875 6.125 0.6875 6.125 -1 3 C-0.67 2.01 -0.34 1.02 0 0 Z " fill="#000000" transform="translate(488,127)"/>
<path d="M0 0 C0.66 0.99 1.32 1.98 2 3 C0.73308493 3.67408308 -0.53870749 4.33900497 -1.8125 5 C-2.52019531 5.37125 -3.22789062 5.7425 -3.95703125 6.125 C-6 7 -6 7 -9 7 C-9 6.01 -9 5.02 -9 4 C-6.03 2.68 -3.06 1.36 0 0 Z " fill="#000000" transform="translate(545,633)"/>
<path d="M0 0 C3.95820859 0.56545837 6.6659053 1.80902348 10 4 C9.67 4.99 9.34 5.98 9 7 C5.7 5.35 2.4 3.7 -1 2 C-0.67 1.34 -0.34 0.68 0 0 Z " fill="#000000" transform="translate(440,627)"/>
<path d="M0 0 C0.66 0.33 1.32 0.66 2 1 C0.65289578 5.04131267 -1.38428334 5.90288434 -5 8 C-5.99 8 -6.98 8 -8 8 C-8 7.01 -8 6.02 -8 5 C-6.3203125 3.578125 -6.3203125 3.578125 -4.125 2.25 C-3.40570312 1.80140625 -2.68640625 1.3528125 -1.9453125 0.890625 C-1.30335938 0.59671875 -0.66140625 0.3028125 0 0 Z " fill="#000000" transform="translate(562,623)"/>
<path d="M0 0 C1.15224028 0.92961422 2.29659176 1.8690125 3.4375 2.8125 C4.07558594 3.33457031 4.71367187 3.85664062 5.37109375 4.39453125 C7 6 7 6 8 9 C7.01 9.33 6.02 9.66 5 10 C3.96704564 8.90716423 2.94892165 7.80029421 1.9375 6.6875 C1.36902344 6.07261719 0.80054688 5.45773437 0.21484375 4.82421875 C-0.38650391 3.92123047 -0.38650391 3.92123047 -1 3 C-0.67 2.01 -0.34 1.02 0 0 Z " fill="#000000" transform="translate(349,550)"/>
<path d="M0 0 C0.66 0.33 1.32 0.66 2 1 C1.43454163 4.95820859 0.19097652 7.6659053 -2 11 C-2.99 10.67 -3.98 10.34 -5 10 C-3.35 6.7 -1.7 3.4 0 0 Z " fill="#000000" transform="translate(632,528)"/>
<path d="M0 0 C0 0.99 0 1.98 0 3 C-6.625 7 -6.625 7 -10 7 C-10 6.01 -10 5.02 -10 4 C-3.375 0 -3.375 0 0 0 Z " fill="#000000" transform="translate(428,333)"/>
<path d="M0 0 C0.33 0.99 0.66 1.98 1 3 C-3.455 5.97 -3.455 5.97 -8 9 C-8 7.68 -8 6.36 -8 5 C-2.77272727 0 -2.77272727 0 0 0 Z " fill="#000000" transform="translate(444,321)"/>
<path d="M0 0 C0.99 0.33 1.98 0.66 3 1 C2.07456291 2.34173403 1.13422595 3.67320159 0.1875 5 C-0.33457031 5.7425 -0.85664063 6.485 -1.39453125 7.25 C-1.92433594 7.8275 -2.45414062 8.405 -3 9 C-3.99 9 -4.98 9 -6 9 C-5.52797514 4.75177626 -3.03344482 2.80010291 0 0 Z " fill="#000000" transform="translate(471,294)"/>
<path d="M0 0 C0.99 0.33 1.98 0.66 3 1 C1.6062718 5.43458973 -0.60582235 7.87378374 -4 11 C-5 8 -5 8 -4.00390625 5.95703125 C-3.52824219 5.24933594 -3.05257812 4.54164063 -2.5625 3.8125 C-2.08941406 3.09707031 -1.61632812 2.38164062 -1.12890625 1.64453125 C-0.75636719 1.10183594 -0.38382813 0.55914062 0 0 Z " fill="#000000" transform="translate(188,230)"/>
<path d="M0 0 C0.99 0.33 1.98 0.66 3 1 C1.03681826 4.53372712 -1.04070881 7.24479785 -4 10 C-4.66 9.67 -5.32 9.34 -6 9 C-4.47291037 5.56404834 -2.40072955 2.88087546 0 0 Z " fill="#000000" transform="translate(225,182)"/>
<path d="M0 0 C0.66 0.33 1.32 0.66 2 1 C0.68775452 4.93673644 -0.91910327 7.22719294 -4 10 C-4.99 9.67 -5.98 9.34 -7 9 C-6.02180976 7.68677212 -5.0424189 6.37443848 -4.0625 5.0625 C-3.51722656 4.33160156 -2.97195312 3.60070312 -2.41015625 2.84765625 C-1 1 -1 1 0 0 Z " fill="#000000" transform="translate(239,166)"/>
<path d="M0 0 C0.66 0.33 1.32 0.66 2 1 C0.51218185 4.78717347 -1.61988409 6.77407001 -5 9 C-5.99 8.67 -6.98 8.34 -8 8 C-5.58443874 4.80800833 -3.31996462 2.25283313 0 0 Z " fill="#000000" transform="translate(283,123)"/>
<path d="M0 0 C0.66 0.33 1.32 0.66 2 1 C1 4 1 4 -1.8125 5.75 C-4.96403086 6.98589446 -5.96929372 7.28222189 -9 6 C-6.45368965 3.02930459 -3.57769851 1.5224249 0 0 Z " fill="#000000" transform="translate(334,90)"/>
<path d="M0 0 C3.91211733 1.15585285 6.8745041 2.35534962 10 5 C9.67 5.66 9.34 6.32 9 7 C5.51329166 5.8905928 2.22515763 4.73662334 -1 3 C-0.67 2.01 -0.34 1.02 0 0 Z " fill="#000000" transform="translate(443,89)"/>
<path d="M0 0 C0.99 0 1.98 0 3 0 C3 3.63 3 7.26 3 11 C2.01 11 1.02 11 0 11 C0 7.37 0 3.74 0 0 Z " fill="#000000" transform="translate(150,653)"/>
<path d="M0 0 C3.63 0 7.26 0 11 0 C11 0.99 11 1.98 11 3 C7.37 3 3.74 3 0 3 C0 2.01 0 1.02 0 0 Z " fill="#000000" transform="translate(497,643)"/>
<path d="M0 0 C0 0.66 0 1.32 0 2 C-3.87684087 3.19287411 -6.91621923 4 -11 4 C-11 3.01 -11 2.02 -11 1 C-3.375 -1.125 -3.375 -1.125 0 0 Z " fill="#000000" transform="translate(528,641)"/>
<path d="M0 0 C3.63 0.66 7.26 1.32 11 2 C11 2.99 11 3.98 11 5 C7.7 4.67 4.4 4.34 1 4 C0.67 2.68 0.34 1.36 0 0 Z " fill="#000000" transform="translate(477,640)"/>
<path d="M0 0 C0.99 0 1.98 0 3 0 C3 3.63 3 7.26 3 11 C2.01 11 1.02 11 0 11 C0 7.37 0 3.74 0 0 Z " fill="#000000" transform="translate(150,633)"/>
<path d="M0 0 C0.99 0 1.98 0 3 0 C3 3.63 3 7.26 3 11 C2.01 11 1.02 11 0 11 C0 7.37 0 3.74 0 0 Z " fill="#000000" transform="translate(150,612)"/>
<path d="M0 0 C0.99 0 1.98 0 3 0 C3 3.63 3 7.26 3 11 C2.01 11 1.02 11 0 11 C0 7.37 0 3.74 0 0 Z " fill="#000000" transform="translate(150,592)"/>
<path d="M0 0 C0.66 0.33 1.32 0.66 2 1 C0.76067171 4.43198603 -0.50301511 7.30325632 -3 10 C-3.99 10 -4.98 10 -6 10 C-4.6302836 6.00499382 -2.74277578 3.19990508 0 0 Z " fill="#000000" transform="translate(603,580)"/>
<path d="M0 0 C0.99 0 1.98 0 3 0 C3 3.63 3 7.26 3 11 C2.01 11 1.02 11 0 11 C0 7.37 0 3.74 0 0 Z " fill="#000000" transform="translate(150,572)"/>
<path d="M0 0 C0.99 0.33 1.98 0.66 3 1 C1.68 3.64 0.36 6.28 -1 9 C-2.32 9 -3.64 9 -5 9 C-3.35 6.03 -1.7 3.06 0 0 Z " fill="#000000" transform="translate(613,564)"/>
<path d="M0 0 C0.99 0 1.98 0 3 0 C3 3.63 3 7.26 3 11 C2.01 11 1.02 11 0 11 C0 7.37 0 3.74 0 0 Z " fill="#000000" transform="translate(150,552)"/>
<path d="M0 0 C0.99 0.66 1.98 1.32 3 2 C1.35 4.97 -0.3 7.94 -2 11 C-2.66 10.67 -3.32 10.34 -4 10 C-3.43454163 6.04179141 -2.19097652 3.3340947 0 0 Z " fill="#000000" transform="translate(623,546)"/>
<path d="M0 0 C0.99 0 1.98 0 3 0 C3 3.63 3 7.26 3 11 C2.01 11 1.02 11 0 11 C0 7.37 0 3.74 0 0 Z " fill="#000000" transform="translate(150,532)"/>
<path d="M0 0 C0.99 0 1.98 0 3 0 C3 3.63 3 7.26 3 11 C2.01 11 1.02 11 0 11 C0 7.37 0 3.74 0 0 Z " fill="#000000" transform="translate(150,511)"/>
<path d="M0 0 C0.99 0 1.98 0 3 0 C4.65 2.97 6.3 5.94 8 9 C7.01 9.33 6.02 9.66 5 10 C4.15801693 8.90241493 3.32669329 7.79664683 2.5 6.6875 C2.0359375 6.07261719 1.571875 5.45773437 1.09375 4.82421875 C0 3 0 3 0 0 Z " fill="#000000" transform="translate(312,503)"/>
<path d="M0 0 C0.99 0 1.98 0 3 0 C3 3.63 3 7.26 3 11 C2.01 11 1.02 11 0 11 C0 7.37 0 3.74 0 0 Z " fill="#000000" transform="translate(150,491)"/>
<path d="M0 0 C0.99 0 1.98 0 3 0 C7 6.625 7 6.625 7 10 C3.17398693 8.54875366 1.77670876 6.64225296 0 3 C0 2.01 0 1.02 0 0 Z " fill="#000000" transform="translate(301,486)"/>
<path d="M0 0 C0.99 0 1.98 0 3 0 C2.01 3.3 1.02 6.6 0 10 C-0.99 10 -1.98 10 -3 10 C-2.69201674 8.51988629 -2.378482 7.04092675 -2.0625 5.5625 C-1.88847656 4.73878906 -1.71445312 3.91507812 -1.53515625 3.06640625 C-1 1 -1 1 0 0 Z " fill="#000000" transform="translate(653,473)"/>
<path d="M0 0 C0.99 0 1.98 0 3 0 C3 3.63 3 7.26 3 11 C2.01 11 1.02 11 0 11 C0 7.37 0 3.74 0 0 Z " fill="#000000" transform="translate(150,471)"/>
<path d="M0 0 C0.99 0 1.98 0 3 0 C6.22265625 5.17578125 6.22265625 5.17578125 7 7 C6.67 7.99 6.34 8.98 6 10 C5.34 10 4.68 10 4 10 C0 3.375 0 3.375 0 0 Z " fill="#000000" transform="translate(291,469)"/>
<path d="M0 0 C0.99 0 1.98 0 3 0 C3 3.63 3 7.26 3 11 C2.01 11 1.02 11 0 11 C0 7.37 0 3.74 0 0 Z " fill="#000000" transform="translate(150,451)"/>
<path d="M0 0 C0.99 0 1.98 0 3 0 C3 3.63 3 7.26 3 11 C2.01 11 1.02 11 0 11 C0 7.37 0 3.74 0 0 Z " fill="#000000" transform="translate(150,431)"/>
<path d="M0 0 C0.99 0 1.98 0 3 0 C3.99 3.3 4.98 6.6 6 10 C5.01 10.33 4.02 10.66 3 11 C2.49384702 9.73160474 1.99530901 8.46016898 1.5 7.1875 C1.2215625 6.47980469 0.943125 5.77210938 0.65625 5.04296875 C0 3 0 3 0 0 Z " fill="#000000" transform="translate(266,414)"/>
<path d="M0 0 C0.99 0 1.98 0 3 0 C3 3.63 3 7.26 3 11 C2.01 11 1.02 11 0 11 C0 7.37 0 3.74 0 0 Z " fill="#000000" transform="translate(150,410)"/>
<path d="M0 0 C0.99 0 1.98 0 3 0 C3 3.63 3 7.26 3 11 C2.01 11 1.02 11 0 11 C0 7.37 0 3.74 0 0 Z " fill="#000000" transform="translate(150,390)"/>
<path d="M0 0 C0.66 0.33 1.32 0.66 2 1 C1.67 1.99 1.34 2.98 1 4 C-1.06640625 4.94921875 -1.06640625 4.94921875 -3.5625 5.6875 C-4.38878906 5.93886719 -5.21507812 6.19023437 -6.06640625 6.44921875 C-6.70449219 6.63097656 -7.34257812 6.81273437 -8 7 C-8.33 6.01 -8.66 5.02 -9 4 C-7.54618103 3.30300448 -6.08677047 2.61766134 -4.625 1.9375 C-3.40683594 1.36322266 -3.40683594 1.36322266 -2.1640625 0.77734375 C-1.44992187 0.52082031 -0.73578125 0.26429688 0 0 Z " fill="#000000" transform="translate(337,371)"/>
<path d="M0 0 C0.99 0 1.98 0 3 0 C3 3.63 3 7.26 3 11 C2.01 11 1.02 11 0 11 C0 7.37 0 3.74 0 0 Z " fill="#000000" transform="translate(150,370)"/>
<path d="M0 0 C0.66 0.99 1.32 1.98 2 3 C-1.3 4.32 -4.6 5.64 -8 7 C-8 5.68 -8 4.36 -8 3 C-5.36 2.01 -2.72 1.02 0 0 Z " fill="#000000" transform="translate(373,356)"/>
<path d="M0 0 C0.99 0 1.98 0 3 0 C3 3.63 3 7.26 3 11 C2.01 11 1.02 11 0 11 C0 7.37 0 3.74 0 0 Z " fill="#000000" transform="translate(150,350)"/>
<path d="M0 0 C-2.6598561 3.44216672 -5.90288286 3.99504674 -10 5 C-10.33 4.01 -10.66 3.02 -11 2 C-3.57142857 -1.57142857 -3.57142857 -1.57142857 0 0 Z " fill="#000000" transform="translate(393,350)"/>
<path d="M0 0 C0.99 0 1.98 0 3 0 C3 3.63 3 7.26 3 11 C2.01 11 1.02 11 0 11 C0 7.37 0 3.74 0 0 Z " fill="#000000" transform="translate(150,329)"/>
<path d="M0 0 C0.99 0 1.98 0 3 0 C3 3.63 3 7.26 3 11 C2.01 11 1.02 11 0 11 C0 7.37 0 3.74 0 0 Z " fill="#000000" transform="translate(150,309)"/>
<path d="M0 0 C0.99 0 1.98 0 3 0 C3 3.63 3 7.26 3 11 C2.01 11 1.02 11 0 11 C0 7.37 0 3.74 0 0 Z " fill="#000000" transform="translate(150,289)"/>
<path d="M0 0 C0.99 0 1.98 0 3 0 C3 3.63 3 7.26 3 11 C2.01 11 1.02 11 0 11 C0 7.37 0 3.74 0 0 Z " fill="#000000" transform="translate(150,269)"/>
<path d="M0 0 C0.99 0 1.98 0 3 0 C3 3.63 3 7.26 3 11 C2.01 11 1.02 11 0 11 C0 7.37 0 3.74 0 0 Z " fill="#000000" transform="translate(150,249)"/>
<path d="M0 0 C0.66 0.33 1.32 0.66 2 1 C0.79157144 5.43090471 -0.51668565 7.98112756 -4 11 C-4.66 10.34 -5.32 9.68 -6 9 C-4.02 6.03 -2.04 3.06 0 0 Z " fill="#000000" transform="translate(177,247)"/>
<path d="M0 0 C0.99 0 1.98 0 3 0 C3 3.63 3 7.26 3 11 C2.01 11 1.02 11 0 11 C0 7.37 0 3.74 0 0 Z " fill="#000000" transform="translate(150,228)"/>
<path d="M0 0 C0.99 0 1.98 0 3 0 C2.125 7.625 2.125 7.625 1 11 C0.01 11 -0.98 11 -2 11 C-1.34 7.37 -0.68 3.74 0 0 Z " fill="#000000" transform="translate(506,223)"/>
<path d="M0 0 C0.99 0.33 1.98 0.66 3 1 C-1 8.71428571 -1 8.71428571 -5 10 C-4.49701212 5.59885603 -2.91227269 3.28804981 0 0 Z " fill="#000000" transform="translate(200,214)"/>
<path d="M0 0 C0.99 0 1.98 0 3 0 C3 3.63 3 7.26 3 11 C2.01 11 1.02 11 0 11 C0 7.37 0 3.74 0 0 Z " fill="#000000" transform="translate(150,208)"/>
<path d="M0 0 C0.99 0 1.98 0 3 0 C1.6062718 4.43458973 -0.60582235 6.87378374 -4 10 C-5 7 -5 7 -4.109375 5.17578125 C-3.66078125 4.56089844 -3.2121875 3.94601563 -2.75 3.3125 C-2.31171875 2.68988281 -1.8734375 2.06726563 -1.421875 1.42578125 C-0.95265625 0.95527344 -0.4834375 0.48476562 0 0 Z " fill="#000000" transform="translate(212,198)"/>
<path d="M0 0 C0.99 0 1.98 0 3 0 C3 3.63 3 7.26 3 11 C2.01 11 1.02 11 0 11 C0 7.37 0 3.74 0 0 Z " fill="#000000" transform="translate(150,188)"/>
<path d="M0 0 C0.99 0 1.98 0 3 0 C3 3.63 3 7.26 3 11 C2.01 11 1.02 11 0 11 C0 7.37 0 3.74 0 0 Z " fill="#000000" transform="translate(508,183)"/>
<path d="M0 0 C0.99 0 1.98 0 3 0 C3 3.63 3 7.26 3 11 C2.01 11 1.02 11 0 11 C0 7.37 0 3.74 0 0 Z " fill="#000000" transform="translate(150,168)"/>
<path d="M0 0 C0.99 0 1.98 0 3 0 C3.66 3.3 4.32 6.6 5 10 C4.01 10.33 3.02 10.66 2 11 C1.34 7.37 0.68 3.74 0 0 Z " fill="#000000" transform="translate(504,164)"/>
<path d="M0 0 C0.66 0.33 1.32 0.66 2 1 C0.47291037 4.43595166 -1.59927045 7.11912454 -4 10 C-4.99 9.67 -5.98 9.34 -7 9 C-5.44499019 5.18315774 -2.96404505 2.80804268 0 0 Z " fill="#000000" transform="translate(253,151)"/>
<path d="M0 0 C0.99 0 1.98 0 3 0 C3 3.63 3 7.26 3 11 C2.01 11 1.02 11 0 11 C0 7.37 0 3.74 0 0 Z " fill="#000000" transform="translate(150,148)"/>
<path d="M0 0 C0.99 0.33 1.98 0.66 3 1 C3 1.66 3 2.32 3 3 C1.57421875 4.2890625 1.57421875 4.2890625 -0.3125 5.625 C-0.92738281 6.07101563 -1.54226563 6.51703125 -2.17578125 6.9765625 C-4 8 -4 8 -7 8 C-5.51218185 4.21282653 -3.38011591 2.22592999 0 0 Z " fill="#000000" transform="translate(298,111)"/>
<path d="M0 0 C0.99 0.33 1.98 0.66 3 1 C3 1.66 3 2.32 3 3 C0.03 4.65 -2.94 6.3 -6 8 C-6 6.68 -6 5.36 -6 4 C-3.1875 1.6875 -3.1875 1.6875 0 0 Z " fill="#000000" transform="translate(315,100)"/>
<path d="M0 0 C0 0.99 0 1.98 0 3 C-3.87684087 4.19287411 -6.91621923 5 -11 5 C-10.67 4.01 -10.34 3.02 -10 2 C-6.3962102 0.47839986 -3.94779314 0 0 0 Z " fill="#000000" transform="translate(355,84)"/>
<path d="M0 0 C0 0.99 0 1.98 0 3 C-3.63 3.33 -7.26 3.66 -11 4 C-11 3.01 -11 2.02 -11 1 C-7.27569643 0.30710631 -3.78916254 -0.11144596 0 0 Z " fill="#000000" transform="translate(375,80)"/>
<path d="M0 0 C3.0831351 1.19899698 6.06279492 2.47700477 9 4 C9 4.99 9 5.98 9 7 C4.16743695 6.58578031 2.17320782 4.53586014 -1 1 C-0.67 0.67 -0.34 0.34 0 0 Z " fill="#000000" transform="translate(423,617)"/>
<path d="M0 0 C3.81684226 1.55500981 6.19195732 4.03595495 9 7 C8.01 7.33 7.02 7.66 6 8 C4.17578125 6.78515625 4.17578125 6.78515625 2.3125 5.0625 C1.68988281 4.49660156 1.06726563 3.93070313 0.42578125 3.34765625 C-0.04472656 2.90292969 -0.51523437 2.45820312 -1 2 C-0.67 1.34 -0.34 0.68 0 0 Z " fill="#000000" transform="translate(391,593)"/>
<path d="M0 0 C4.04648443 1.34882814 4.95502599 3.34826069 7 7 C6.67 7.99 6.34 8.98 6 10 C3.03595495 7.19195732 0.55500981 4.81684226 -1 1 C-0.67 0.67 -0.34 0.34 0 0 Z " fill="#000000" transform="translate(324,519)"/>
<path d="M0 0 C0.66 0.33 1.32 0.66 2 1 C1.49287967 4.71888239 0.88391785 7.73454239 -1 11 C-1.99 10.67 -2.98 10.34 -4 10 C-3.52449439 8.51965236 -3.04448784 7.04074979 -2.5625 5.5625 C-2.29566406 4.73878906 -2.02882813 3.91507812 -1.75390625 3.06640625 C-1 1 -1 1 0 0 Z " fill="#000000" transform="translate(647,491)"/>
<path d="M0 0 C0.99 0 1.98 0 3 0 C6 6.625 6 6.625 6 10 C5.01 10 4.02 10 3 10 C0 3.375 0 3.375 0 0 Z " fill="#000000" transform="translate(273,433)"/>
<path d="M0 0 C-1.41519715 2.0343459 -2.54982123 2.90410393 -4.98046875 3.421875 C-6.98176954 3.66273952 -8.9909944 3.83532741 -11 4 C-11 3.01 -11 2.02 -11 1 C-3.57142857 -1.42857143 -3.57142857 -1.42857143 0 0 Z " fill="#000000" transform="translate(210,415)"/>
<path d="M0 0 C0 0.99 0 1.98 0 3 C-4.12168689 4.62950412 -6.70700357 5.26264601 -11 4 C-10 2 -10 2 -6.625 0.875 C-3 0 -3 0 0 0 Z " fill="#000000" transform="translate(247,403)"/>
<path d="M0 0 C0.66 0.99 1.32 1.98 2 3 C0.54293274 3.50367757 -0.91570096 4.00282556 -2.375 4.5 C-3.59316406 4.91765625 -3.59316406 4.91765625 -4.8359375 5.34375 C-7 6 -7 6 -9 6 C-9 5.01 -9 4.02 -9 3 C-6.03 2.01 -3.06 1.02 0 0 Z " fill="#000000" transform="translate(283,392)"/>
<path d="M0 0 C0 0.99 0 1.98 0 3 C-6.625 6 -6.625 6 -10 6 C-10 5.01 -10 4.02 -10 3 C-3.375 0 -3.375 0 0 0 Z " fill="#000000" transform="translate(321,379)"/>
<path d="M0 0 C0 0.66 0 1.32 0 2 C-6.4 5.07692308 -6.4 5.07692308 -9.4375 4.6875 C-9.953125 4.460625 -10.46875 4.23375 -11 4 C-7.84441727 0.34616736 -4.73375145 -1.57791715 0 0 Z " fill="#000000" transform="translate(357,365)"/>
<path d="M0 0 C-0.24609375 1.890625 -0.24609375 1.890625 -1 4 C-2.84765625 5.046875 -2.84765625 5.046875 -5.0625 5.75 C-6.16271484 6.11351562 -6.16271484 6.11351562 -7.28515625 6.484375 C-8.13400391 6.73960937 -8.13400391 6.73960937 -9 7 C-9 5.68 -9 4.36 -9 3 C-2.25 0 -2.25 0 0 0 Z " fill="#000000" transform="translate(410,341)"/>
<path d="M0 0 C0.99 0.33 1.98 0.66 3 1 C-0.625 7.75 -0.625 7.75 -4 10 C-4 5.28093812 -2.71245796 3.72962969 0 0 Z " fill="#000000" transform="translate(483,278)"/>
<path d="M0 0 C0.66 0.33 1.32 0.66 2 1 C1.38545304 4.99455527 -0.70646737 7.74466336 -3 11 C-3.66 10.67 -4.32 10.34 -5 10 C-3.84414715 6.08788267 -2.64465038 3.1254959 0 0 Z " fill="#000000" transform="translate(166,264)"/>
<path d="M0 0 C0.99 0 1.98 0 3 0 C1.8905928 3.48670834 0.73662334 6.77484237 -1 10 C-1.99 10 -2.98 10 -4 10 C-3.43768609 6.06380262 -2.38314183 3.20807554 0 0 Z " fill="#000000" transform="translate(493,261)"/>
<path d="M0 0 C0.99 0.33 1.98 0.66 3 1 C2.57742724 2.4835001 2.13643678 3.96176424 1.6875 5.4375 C1.44386719 6.26121094 1.20023437 7.08492187 0.94921875 7.93359375 C0.63597656 8.61550781 0.32273437 9.29742187 0 10 C-0.99 10.33 -1.98 10.66 -3 11 C-2.44894091 7.0507432 -1.61064629 3.65079826 0 0 Z " fill="#000000" transform="translate(501,242)"/>
<path d="M0 0 C0.66 0 1.32 0 2 0 C2 3.63 2 7.26 2 11 C1.01 11 0.02 11 -1 11 C-1.02688151 9.35425434 -1.04634123 7.70838587 -1.0625 6.0625 C-1.07410156 5.14597656 -1.08570313 4.22945312 -1.09765625 3.28515625 C-1 1 -1 1 0 0 Z " fill="#000000" transform="translate(509,203)"/>
<path d="M0 0 C1.890625 0.21484375 1.890625 0.21484375 4 1 C5.046875 3.06640625 5.046875 3.06640625 5.75 5.5625 C5.99234375 6.38878906 6.2346875 7.21507812 6.484375 8.06640625 C6.65453125 8.70449219 6.8246875 9.34257812 7 10 C5.109375 9.78515625 5.109375 9.78515625 3 9 C1.953125 6.93359375 1.953125 6.93359375 1.25 4.4375 C1.00765625 3.61121094 0.7653125 2.78492188 0.515625 1.93359375 C0.34546875 1.29550781 0.1753125 0.65742188 0 0 Z " fill="#000000" transform="translate(497,145)"/>
<path d="M0 0 C0.99 0.33 1.98 0.66 3 1 C2.09827532 2.17825358 1.17798498 3.34231577 0.25 4.5 C-0.51570313 5.47453125 -0.51570313 5.47453125 -1.296875 6.46875 C-3 8 -3 8 -7 8 C-6.02133662 6.85373678 -5.04205413 5.70800212 -4.0625 4.5625 C-3.51722656 3.92441406 -2.97195313 3.28632813 -2.41015625 2.62890625 C-1.63204305 1.73008851 -0.84063472 0.84063472 0 0 Z " fill="#000000" transform="translate(267,137)"/>
<path d="M0 0 C3.45925163 1.2491742 6.14693203 2.67527795 9 5 C8.67 5.99 8.34 6.98 8 8 C4.18315774 6.44499019 1.80804268 3.96404505 -1 1 C-0.67 0.67 -0.34 0.34 0 0 Z " fill="#000000" transform="translate(460,99)"/>
<path d="M0 0 C3.3 0.99 6.6 1.98 10 3 C10 3.99 10 4.98 10 6 C6.37 5.01 2.74 4.02 -1 3 C-0.67 2.01 -0.34 1.02 0 0 Z " fill="#000000" transform="translate(424,82)"/>
<path d="M0 0 C1.46015291 0.28241641 2.91809793 0.57626614 4.375 0.875 C5.18710937 1.03742187 5.99921875 1.19984375 6.8359375 1.3671875 C9 2 9 2 11 4 C10.34 4.66 9.68 5.32 9 6 C6.03 5.01 3.06 4.02 0 3 C0 2.01 0 1.02 0 0 Z " fill="#000000" transform="translate(458,635)"/>
<path d="M0 0 C1.3410477 0.75733274 2.67269781 1.53132736 4 2.3125 C5.11375 2.95638672 5.11375 2.95638672 6.25 3.61328125 C6.8275 4.07089844 7.405 4.52851562 8 5 C8 5.99 8 6.98 8 8 C4.12867972 7.42647107 1.91827204 5.51295648 -1 3 C-0.67 2.01 -0.34 1.02 0 0 Z " fill="#000000" transform="translate(407,605)"/>
<path d="M0 0 C4.20626034 1.50223584 5.73900021 4.28550034 8 8 C4 8 4 8 2.515625 6.6875 C1.34375 5.125 0.171875 3.5625 -1 2 C-0.67 1.34 -0.34 0.68 0 0 Z " fill="#000000" transform="translate(336,535)"/>
<path d="M0 0 C0.99 0.33 1.98 0.66 3 1 C2.01 3.97 1.02 6.94 0 10 C-0.99 10 -1.98 10 -3 10 C-2.39009109 6.44219804 -1.4216319 3.3171411 0 0 Z " fill="#000000" transform="translate(639,510)"/>
<path d="M0 0 C0.66 0 1.32 0 2 0 C6 6.625 6 6.625 6 10 C5.01 10 4.02 10 3 10 C1.68 7.03 0.36 4.06 -1 1 C-0.67 0.67 -0.34 0.34 0 0 Z " fill="#000000" transform="translate(282,451)"/>
<path d="M0 0 C0 0.99 0 1.98 0 3 C-3.3 3.66 -6.6 4.32 -10 5 C-10 4.01 -10 3.02 -10 2 C-6.38026598 0.68373308 -3.90432869 0 0 0 Z " fill="#000000" transform="translate(228,409)"/>
<path d="M0 0 C3.63 0.33 7.26 0.66 11 1 C10.67 1.99 10.34 2.98 10 4 C6.7 3.67 3.4 3.34 0 3 C0 2.01 0 1.02 0 0 Z " fill="#000000" transform="translate(404,79)"/>
<path d="M0 0 C0 0.66 0 1.32 0 2 C-3.50776784 3.60355101 -6.14354879 4.22036864 -10 4 C-10 3.01 -10 2.02 -10 1 C-8.71073008 0.63720544 -7.41846728 0.28503302 -6.125 -0.0625 C-5.40570313 -0.25972656 -4.68640625 -0.45695312 -3.9453125 -0.66015625 C-2 -1 -2 -1 0 0 Z " fill="#000000" transform="translate(191,420)"/>
<path d="M0 0 C-1 3 -1 3 -3.3125 4.1875 C-6 5 -6 5 -10 5 C-10 4.01 -10 3.02 -10 2 C-6.38026598 0.68373308 -3.90432869 0 0 0 Z " fill="#000000" transform="translate(303,387)"/>
<path d="M0 0 C3.36295835 1.44126786 5.62927102 3.20592655 8 6 C8 6.99 8 7.98 8 9 C4.63704165 7.55873214 2.37072898 5.79407345 0 3 C0 2.01 0 1.02 0 0 Z " fill="#000000" transform="translate(475,112)"/>
<path d="M0 0 C0 0.99 0 1.98 0 3 C-4.455 3.495 -4.455 3.495 -9 4 C-9 3.01 -9 2.02 -9 1 C-5.846632 0.29925156 -3.27275026 0 0 0 Z " fill="#000000" transform="translate(174,423)"/>
<path d="M0 0 C3.63 0 7.26 0 11 0 C11 0.66 11 1.32 11 2 C7.37 2.33 3.74 2.66 0 3 C0 2.01 0 1.02 0 0 Z " fill="#000000" transform="translate(384,79)"/>
<path d="M0 0 C0.99 0 1.98 0 3 0 C3 1.98 3 3.96 3 6 C2.01 6 1.02 6 0 6 C0 4.02 0 2.04 0 0 Z " fill="#000000" transform="translate(150,673)"/>
<path d="M0 0 C0.99 0 1.98 0 3 0 C2.67 1.98 2.34 3.96 2 6 C1.01 6 0.02 6 -1 6 C-0.67 4.02 -0.34 2.04 0 0 Z " fill="#000000" transform="translate(657,458)"/>
<path d="M0 0 C0.99 0.33 1.98 0.66 3 1 C1.515 3.475 1.515 3.475 0 6 C-0.66 5.67 -1.32 5.34 -2 5 C-1.34 3.35 -0.68 1.7 0 0 Z " fill="#000000" transform="translate(155,282)"/>
<path d="M0 0 C1.32 0 2.64 0 4 0 C4 0.99 4 1.98 4 3 C2.35 2.67 0.7 2.34 -1 2 C-0.67 1.34 -0.34 0.68 0 0 Z " fill="#000000" transform="translate(154,426)"/>
<path d="M0 0 C0.99 0.33 1.98 0.66 3 1 C2.67 1.99 2.34 2.98 2 4 C1.01 3.01 0.02 2.02 -1 1 C-0.67 0.67 -0.34 0.34 0 0 Z " fill="#000000" transform="translate(495,503)"/>
<path d="M0 0 C0.99 0.33 1.98 0.66 3 1 C2.67 1.99 2.34 2.98 2 4 C1.01 3.01 0.02 2.02 -1 1 C-0.67 0.67 -0.34 0.34 0 0 Z " fill="#000000" transform="translate(634,152)"/>
</svg>
