<svg width="838" height="752" viewBox="0 0 838 752" fill="none" xmlns="http://www.w3.org/2000/svg">
<circle cx="203.5" cy="287.5" r="30.5" fill="black"/>
<path d="M246.033 313.624C271.191 286.601 265.833 268.198 260.01 262.374C223.669 238.614 218.078 216.367 219.825 208.213C217.962 183.986 238.461 158.517 248.944 148.811C264.319 126.447 300.388 127.845 316.5 131.339C331.409 138.794 364.643 146.093 379.397 148.811C402.226 153.936 442.099 141.628 459.183 134.834C436.47 144.152 377.067 213.455 357.849 234.42C342.474 251.193 323.877 296.54 316.5 317.118C310.094 331.677 300.776 376.52 300.776 378.85C281.208 381.645 247.974 397.874 233.802 405.639L201.772 427.769L172.653 455.724C171.876 455.918 171.022 460.849 173.817 479.019C176.613 497.189 183.912 505.226 187.212 506.973C188.959 505.614 199.559 498.121 227.979 479.019C256.399 459.917 278.257 455.918 285.634 456.306C285.44 465.624 281.557 496.141 267.58 543.663C250.109 603.065 226.231 630.437 220.408 637.425C214.584 644.414 194.201 660.138 170.323 660.138C146.446 660.138 137.71 648.491 128.974 637.425C120.239 626.36 117.909 604.23 116.162 572.781C114.415 541.333 110.338 537.256 95.7789 528.521C84.1313 521.532 54.4301 543.08 41.0354 554.728C28.9996 565.016 4.57861 589.903 3.1809 607.142C1.43377 628.69 11.9166 661.303 53.2654 683.433C94.6142 705.564 108.591 714.882 174.4 713.717C240.209 712.552 293.787 685.18 331.059 653.732C368.332 622.284 386.968 587.341 409.098 539.586C426.802 501.382 435.887 454.559 438.217 435.923L504.026 430.681C501.114 452.035 495.639 504.527 497.037 543.663C498.784 592.582 505.19 624.031 539.551 670.039C567.039 706.845 617.395 714.882 639.137 714.299C656.803 712.164 697.724 704.865 720.088 692.751C742.451 680.638 770.172 658.197 781.237 648.491L835.399 597.824V531.433C815.598 548.516 771.57 585.71 753.866 597.824C731.735 612.966 710.187 617.042 688.639 611.218C667.091 605.395 655.444 586.176 649.038 570.452C642.632 554.728 642.049 516.873 645.543 489.502C648.339 467.604 656.803 426.799 660.685 409.133C675.128 406.804 709.023 393.021 724.164 386.421C765.164 362.66 783.179 343.907 787.061 337.501C787.061 331.289 786.595 315.953 784.732 304.305C782.868 292.658 772.308 290.522 767.26 290.911C761.631 294.211 746.528 303.141 731.153 312.459C715.778 321.777 689.416 330.318 678.157 333.424L707.275 261.209L745.13 182.589L785.314 109.209C790.555 102.803 804.649 84.1666 819.092 60.8715C833.535 37.5764 815.015 33.3056 803.95 34.0821C797.156 37.1881 774.016 45.2638 735.812 52.7182C688.057 62.0362 667.674 81.8371 666.509 83.5842C665.577 84.9819 648.649 106.297 640.302 116.78C630.596 132.892 608.97 168.029 600.118 179.677C589.053 194.236 548.869 282.175 548.869 283.922C544.21 294.638 532.174 334.201 526.738 352.643L453.359 359.049V357.302C452.194 345.654 472.577 246.65 472.577 243.156C472.577 239.661 487.719 179.094 499.367 154.634C508.685 135.066 523.438 116.197 529.65 109.209C535.668 102.22 549.335 86.6126 555.857 80.09C562.38 73.5673 562.846 66.8894 562.263 64.3658C561.875 63.201 560.05 59.9397 555.857 56.2125C551.664 52.4853 527.321 39.9059 515.673 34.0821C511.985 37.1882 501.813 44.9146 490.631 50.9711C476.654 58.5417 458.018 59.1244 447.535 57.9596C439.149 57.0278 409.875 47.8652 396.286 43.4004C385.609 40.4886 356.801 35.1307 326.983 36.9943C297.165 38.8579 255.156 68.4427 237.879 83.0021C227.785 91.9319 203.868 114.8 188.959 134.834C174.051 154.868 160.617 180.065 155.764 190.16C149.707 201.341 146.252 227.044 145.281 238.497C142.952 256.201 148.193 278.487 151.105 287.417C161.821 319.098 181.194 334.007 189.542 337.501C197.889 340.801 220.874 340.646 246.033 313.624Z" stroke="black" stroke-width="5"/>
<path d="M204 293.998C177.167 208.165 173 33.4981 456 82.4982L483.5 91.998C395 389.498 251.5 878.998 48.5 617.498M723.5 91.998C600.333 361.498 444.1 838.098 804.5 588.498" stroke="black" stroke-width="2" stroke-dasharray="10 10"/>
<path d="M197.5 461.998C386 367.498 700.5 386.498 760 324.998" stroke="black" stroke-width="2" stroke-dasharray="10 10"/>
<path d="M535.619 190.455V205H533.858V192.301H533.773L530.222 194.659V192.869L533.858 190.455H535.619ZM540.193 205.114C539.843 205.114 539.542 204.988 539.291 204.737C539.04 204.486 538.915 204.186 538.915 203.835C538.915 203.485 539.04 203.184 539.291 202.933C539.542 202.682 539.843 202.557 540.193 202.557C540.544 202.557 540.844 202.682 541.095 202.933C541.346 203.184 541.472 203.485 541.472 203.835C541.472 204.067 541.412 204.28 541.294 204.474C541.18 204.669 541.027 204.825 540.832 204.943C540.643 205.057 540.43 205.114 540.193 205.114ZM544.451 205V203.722L549.252 198.466C549.816 197.85 550.28 197.315 550.644 196.861C551.009 196.402 551.279 195.971 551.454 195.568C551.634 195.161 551.724 194.735 551.724 194.29C551.724 193.778 551.601 193.336 551.354 192.962C551.113 192.588 550.781 192.299 550.36 192.095C549.939 191.892 549.465 191.79 548.94 191.79C548.381 191.79 547.893 191.906 547.477 192.138C547.065 192.365 546.745 192.685 546.518 193.097C546.295 193.509 546.184 193.991 546.184 194.545H544.508C544.508 193.693 544.704 192.945 545.097 192.301C545.49 191.657 546.025 191.155 546.702 190.795C547.384 190.436 548.149 190.256 548.996 190.256C549.849 190.256 550.604 190.436 551.262 190.795C551.92 191.155 552.436 191.641 552.81 192.251C553.184 192.862 553.371 193.542 553.371 194.29C553.371 194.825 553.274 195.348 553.08 195.859C552.891 196.366 552.559 196.932 552.086 197.557C551.617 198.177 550.966 198.935 550.133 199.83L546.866 203.324V203.438H553.627V205H544.451Z" fill="black"/>
<path d="M160.619 55.4545V70H158.858V57.3011H158.773L155.222 59.6591V57.8693L158.858 55.4545H160.619ZM165.193 70.1136C164.843 70.1136 164.542 69.9882 164.291 69.7372C164.04 69.4863 163.915 69.1856 163.915 68.8352C163.915 68.4848 164.04 68.1842 164.291 67.9332C164.542 67.6823 164.843 67.5568 165.193 67.5568C165.544 67.5568 165.844 67.6823 166.095 67.9332C166.346 68.1842 166.472 68.4848 166.472 68.8352C166.472 69.0672 166.412 69.2803 166.294 69.4744C166.18 69.6686 166.027 69.8248 165.832 69.9432C165.643 70.0568 165.43 70.1136 165.193 70.1136ZM172.826 55.4545V70H171.065V57.3011H170.98L167.429 59.6591V57.8693L171.065 55.4545H172.826Z" fill="black"/>
<path d="M761.506 216.998V215.72L766.307 210.464C766.87 209.848 767.334 209.313 767.699 208.859C768.063 208.4 768.333 207.969 768.509 207.566C768.688 207.159 768.778 206.733 768.778 206.288C768.778 205.776 768.655 205.334 768.409 204.96C768.168 204.586 767.836 204.297 767.415 204.093C766.993 203.89 766.52 203.788 765.994 203.788C765.436 203.788 764.948 203.904 764.531 204.136C764.119 204.363 763.8 204.683 763.572 205.095C763.35 205.507 763.239 205.99 763.239 206.544H761.562C761.562 205.691 761.759 204.943 762.152 204.299C762.545 203.655 763.08 203.153 763.757 202.794C764.439 202.434 765.204 202.254 766.051 202.254C766.903 202.254 767.659 202.434 768.317 202.794C768.975 203.153 769.491 203.639 769.865 204.249C770.239 204.86 770.426 205.54 770.426 206.288C770.426 206.823 770.329 207.346 770.135 207.857C769.946 208.364 769.614 208.93 769.141 209.555C768.672 210.175 768.021 210.933 767.188 211.828L763.92 215.322V215.436H770.682V216.998H761.506ZM774.865 217.112C774.515 217.112 774.214 216.986 773.963 216.735C773.712 216.484 773.587 216.184 773.587 215.833C773.587 215.483 773.712 215.182 773.963 214.931C774.214 214.68 774.515 214.555 774.865 214.555C775.215 214.555 775.516 214.68 775.767 214.931C776.018 215.182 776.143 215.483 776.143 215.833C776.143 216.065 776.084 216.278 775.966 216.472C775.852 216.667 775.698 216.823 775.504 216.941C775.315 217.055 775.102 217.112 774.865 217.112ZM782.498 202.453V216.998H780.737V204.299H780.652L777.1 206.657V204.867L780.737 202.453H782.498Z" fill="black"/>
<path d="M688.506 566.998V565.72L693.307 560.464C693.87 559.848 694.334 559.313 694.699 558.859C695.063 558.4 695.333 557.969 695.509 557.566C695.688 557.159 695.778 556.733 695.778 556.288C695.778 555.776 695.655 555.334 695.409 554.96C695.168 554.586 694.836 554.297 694.415 554.093C693.993 553.89 693.52 553.788 692.994 553.788C692.436 553.788 691.948 553.904 691.531 554.136C691.119 554.363 690.8 554.683 690.572 555.095C690.35 555.507 690.239 555.99 690.239 556.544H688.562C688.562 555.691 688.759 554.943 689.152 554.299C689.545 553.655 690.08 553.153 690.757 552.794C691.439 552.434 692.204 552.254 693.051 552.254C693.903 552.254 694.659 552.434 695.317 552.794C695.975 553.153 696.491 553.639 696.865 554.249C697.239 554.86 697.426 555.54 697.426 556.288C697.426 556.823 697.329 557.346 697.135 557.857C696.946 558.364 696.614 558.93 696.141 559.555C695.672 560.175 695.021 560.933 694.188 561.828L690.92 565.322V565.436H697.682V566.998H688.506ZM701.865 567.112C701.515 567.112 701.214 566.986 700.963 566.735C700.712 566.484 700.587 566.184 700.587 565.833C700.587 565.483 700.712 565.182 700.963 564.931C701.214 564.68 701.515 564.555 701.865 564.555C702.215 564.555 702.516 564.68 702.767 564.931C703.018 565.182 703.143 565.483 703.143 565.833C703.143 566.065 703.084 566.278 702.966 566.472C702.852 566.667 702.698 566.823 702.504 566.941C702.315 567.055 702.102 567.112 701.865 567.112ZM706.123 566.998V565.72L710.924 560.464C711.487 559.848 711.951 559.313 712.316 558.859C712.681 558.4 712.951 557.969 713.126 557.566C713.306 557.159 713.396 556.733 713.396 556.288C713.396 555.776 713.272 555.334 713.026 554.96C712.785 554.586 712.453 554.297 712.032 554.093C711.611 553.89 711.137 553.788 710.612 553.788C710.053 553.788 709.565 553.904 709.148 554.136C708.737 554.363 708.417 554.683 708.19 555.095C707.967 555.507 707.856 555.99 707.856 556.544H706.18C706.18 555.691 706.376 554.943 706.769 554.299C707.162 553.655 707.697 553.153 708.374 552.794C709.056 552.434 709.821 552.254 710.668 552.254C711.521 552.254 712.276 552.434 712.934 552.794C713.592 553.153 714.108 553.639 714.482 554.249C714.856 554.86 715.043 555.54 715.043 556.288C715.043 556.823 714.946 557.346 714.752 557.857C714.563 558.364 714.231 558.93 713.758 559.555C713.289 560.175 712.638 560.933 711.805 561.828L708.538 565.322V565.436H715.299V566.998H706.123Z" fill="black"/>
<path d="M214.42 382.197C213.483 382.197 212.647 382.036 211.913 381.714C211.184 381.392 210.604 380.945 210.173 380.372C209.747 379.794 209.515 379.124 209.477 378.362H211.267C211.305 378.83 211.466 379.235 211.75 379.576C212.034 379.912 212.406 380.173 212.865 380.357C213.324 380.542 213.833 380.634 214.392 380.634C215.017 380.634 215.571 380.526 216.054 380.308C216.537 380.09 216.916 379.787 217.19 379.399C217.465 379.01 217.602 378.561 217.602 378.049C217.602 377.514 217.47 377.043 217.205 376.636C216.939 376.224 216.551 375.902 216.04 375.67C215.528 375.438 214.903 375.322 214.165 375.322H213V373.759H214.165C214.742 373.759 215.249 373.655 215.685 373.447C216.125 373.239 216.468 372.945 216.714 372.566C216.965 372.187 217.091 371.742 217.091 371.231C217.091 370.739 216.982 370.31 216.764 369.945C216.546 369.581 216.239 369.297 215.841 369.093C215.448 368.89 214.984 368.788 214.449 368.788C213.947 368.788 213.473 368.88 213.028 369.065C212.588 369.245 212.228 369.508 211.949 369.853C211.67 370.194 211.518 370.606 211.494 371.089H209.79C209.818 370.327 210.048 369.659 210.479 369.086C210.91 368.508 211.473 368.059 212.169 367.737C212.87 367.415 213.639 367.254 214.477 367.254C215.377 367.254 216.149 367.436 216.793 367.801C217.437 368.16 217.931 368.636 218.277 369.228C218.623 369.82 218.795 370.459 218.795 371.146C218.795 371.965 218.58 372.663 218.149 373.241C217.723 373.819 217.143 374.219 216.409 374.441V374.555C217.328 374.706 218.045 375.097 218.561 375.727C219.077 376.352 219.335 377.126 219.335 378.049C219.335 378.84 219.12 379.55 218.689 380.18C218.263 380.805 217.68 381.297 216.942 381.657C216.203 382.017 215.363 382.197 214.42 382.197ZM223.041 382.112C222.69 382.112 222.39 381.986 222.139 381.735C221.888 381.484 221.762 381.184 221.762 380.833C221.762 380.483 221.888 380.182 222.139 379.931C222.39 379.68 222.69 379.555 223.041 379.555C223.391 379.555 223.692 379.68 223.943 379.931C224.194 380.182 224.319 380.483 224.319 380.833C224.319 381.065 224.26 381.278 224.142 381.472C224.028 381.667 223.874 381.823 223.68 381.941C223.491 382.055 223.278 382.112 223.041 382.112ZM230.674 367.453V381.998H228.913V369.299H228.827L225.276 371.657V369.867L228.913 367.453H230.674Z" fill="black"/>
<path d="M489.42 308.199C488.483 308.199 487.647 308.038 486.913 307.716C486.184 307.394 485.604 306.946 485.173 306.374C484.747 305.796 484.515 305.126 484.477 304.364H486.267C486.305 304.832 486.466 305.237 486.75 305.578C487.034 305.914 487.406 306.175 487.865 306.359C488.324 306.544 488.833 306.636 489.392 306.636C490.017 306.636 490.571 306.527 491.054 306.31C491.537 306.092 491.916 305.789 492.19 305.401C492.465 305.012 492.602 304.562 492.602 304.051C492.602 303.516 492.47 303.045 492.205 302.638C491.939 302.226 491.551 301.904 491.04 301.672C490.528 301.44 489.903 301.324 489.165 301.324H488V299.761H489.165C489.742 299.761 490.249 299.657 490.685 299.449C491.125 299.241 491.468 298.947 491.714 298.568C491.965 298.189 492.091 297.744 492.091 297.233C492.091 296.741 491.982 296.312 491.764 295.947C491.546 295.583 491.239 295.299 490.841 295.095C490.448 294.892 489.984 294.79 489.449 294.79C488.947 294.79 488.473 294.882 488.028 295.067C487.588 295.247 487.228 295.509 486.949 295.855C486.67 296.196 486.518 296.608 486.494 297.091H484.79C484.818 296.329 485.048 295.661 485.479 295.088C485.91 294.51 486.473 294.061 487.169 293.739C487.87 293.417 488.639 293.256 489.477 293.256C490.377 293.256 491.149 293.438 491.793 293.803C492.437 294.162 492.931 294.638 493.277 295.23C493.623 295.822 493.795 296.461 493.795 297.148C493.795 297.967 493.58 298.665 493.149 299.243C492.723 299.821 492.143 300.221 491.409 300.443V300.557C492.328 300.708 493.045 301.099 493.561 301.729C494.077 302.354 494.335 303.128 494.335 304.051C494.335 304.842 494.12 305.552 493.689 306.182C493.263 306.807 492.68 307.299 491.942 307.659C491.203 308.019 490.363 308.199 489.42 308.199ZM498.041 308.114C497.69 308.114 497.39 307.988 497.139 307.737C496.888 307.486 496.762 307.186 496.762 306.835C496.762 306.485 496.888 306.184 497.139 305.933C497.39 305.682 497.69 305.557 498.041 305.557C498.391 305.557 498.692 305.682 498.943 305.933C499.194 306.184 499.319 306.485 499.319 306.835C499.319 307.067 499.26 307.28 499.142 307.474C499.028 307.669 498.874 307.825 498.68 307.943C498.491 308.057 498.278 308.114 498.041 308.114ZM502.299 308V306.722L507.1 301.466C507.663 300.85 508.127 300.315 508.492 299.861C508.856 299.402 509.126 298.971 509.301 298.568C509.481 298.161 509.571 297.735 509.571 297.29C509.571 296.778 509.448 296.336 509.202 295.962C508.961 295.588 508.629 295.299 508.208 295.095C507.786 294.892 507.313 294.79 506.787 294.79C506.229 294.79 505.741 294.906 505.324 295.138C504.912 295.365 504.593 295.685 504.365 296.097C504.143 296.509 504.032 296.991 504.032 297.545H502.355C502.355 296.693 502.552 295.945 502.945 295.301C503.338 294.657 503.873 294.155 504.55 293.795C505.232 293.436 505.997 293.256 506.844 293.256C507.696 293.256 508.452 293.436 509.11 293.795C509.768 294.155 510.284 294.641 510.658 295.251C511.032 295.862 511.219 296.542 511.219 297.29C511.219 297.825 511.122 298.348 510.928 298.859C510.739 299.366 510.407 299.932 509.934 300.557C509.465 301.177 508.814 301.935 507.98 302.83L504.713 306.324V306.438H511.475V308H502.299Z" fill="black"/>
<path d="M722.42 278.199C721.483 278.199 720.647 278.038 719.913 277.716C719.184 277.394 718.604 276.946 718.173 276.374C717.747 275.796 717.515 275.126 717.477 274.364H719.267C719.305 274.832 719.466 275.237 719.75 275.578C720.034 275.914 720.406 276.175 720.865 276.359C721.324 276.544 721.833 276.636 722.392 276.636C723.017 276.636 723.571 276.527 724.054 276.31C724.537 276.092 724.916 275.789 725.19 275.401C725.465 275.012 725.602 274.562 725.602 274.051C725.602 273.516 725.47 273.045 725.205 272.638C724.939 272.226 724.551 271.904 724.04 271.672C723.528 271.44 722.903 271.324 722.165 271.324H721V269.761H722.165C722.742 269.761 723.249 269.657 723.685 269.449C724.125 269.241 724.468 268.947 724.714 268.568C724.965 268.189 725.091 267.744 725.091 267.233C725.091 266.741 724.982 266.312 724.764 265.947C724.546 265.583 724.239 265.299 723.841 265.095C723.448 264.892 722.984 264.79 722.449 264.79C721.947 264.79 721.473 264.882 721.028 265.067C720.588 265.247 720.228 265.509 719.949 265.855C719.67 266.196 719.518 266.608 719.494 267.091H717.79C717.818 266.329 718.048 265.661 718.479 265.088C718.91 264.51 719.473 264.061 720.169 263.739C720.87 263.417 721.639 263.256 722.477 263.256C723.377 263.256 724.149 263.438 724.793 263.803C725.437 264.162 725.931 264.638 726.277 265.23C726.623 265.822 726.795 266.461 726.795 267.148C726.795 267.967 726.58 268.665 726.149 269.243C725.723 269.821 725.143 270.221 724.409 270.443V270.557C725.328 270.708 726.045 271.099 726.561 271.729C727.077 272.354 727.335 273.128 727.335 274.051C727.335 274.842 727.12 275.552 726.689 276.182C726.263 276.807 725.68 277.299 724.942 277.659C724.203 278.019 723.363 278.199 722.42 278.199ZM731.041 278.114C730.69 278.114 730.39 277.988 730.139 277.737C729.888 277.486 729.762 277.186 729.762 276.835C729.762 276.485 729.888 276.184 730.139 275.933C730.39 275.682 730.69 275.557 731.041 275.557C731.391 275.557 731.692 275.682 731.943 275.933C732.194 276.184 732.319 276.485 732.319 276.835C732.319 277.067 732.26 277.28 732.142 277.474C732.028 277.669 731.874 277.825 731.68 277.943C731.491 278.057 731.278 278.114 731.041 278.114ZM739.667 278.199C738.729 278.199 737.893 278.038 737.159 277.716C736.43 277.394 735.85 276.946 735.419 276.374C734.993 275.796 734.761 275.126 734.723 274.364H736.513C736.551 274.832 736.712 275.237 736.996 275.578C737.28 275.914 737.652 276.175 738.111 276.359C738.57 276.544 739.079 276.636 739.638 276.636C740.263 276.636 740.817 276.527 741.3 276.31C741.783 276.092 742.162 275.789 742.436 275.401C742.711 275.012 742.848 274.562 742.848 274.051C742.848 273.516 742.716 273.045 742.451 272.638C742.185 272.226 741.797 271.904 741.286 271.672C740.775 271.44 740.15 271.324 739.411 271.324H738.246V269.761H739.411C739.989 269.761 740.495 269.657 740.931 269.449C741.371 269.241 741.714 268.947 741.961 268.568C742.212 268.189 742.337 267.744 742.337 267.233C742.337 266.741 742.228 266.312 742.01 265.947C741.792 265.583 741.485 265.299 741.087 265.095C740.694 264.892 740.23 264.79 739.695 264.79C739.193 264.79 738.72 264.882 738.275 265.067C737.834 265.247 737.474 265.509 737.195 265.855C736.916 266.196 736.764 266.608 736.74 267.091H735.036C735.064 266.329 735.294 265.661 735.725 265.088C736.156 264.51 736.719 264.061 737.415 263.739C738.116 263.417 738.885 263.256 739.723 263.256C740.623 263.256 741.395 263.438 742.039 263.803C742.683 264.162 743.177 264.638 743.523 265.23C743.869 265.822 744.042 266.461 744.042 267.148C744.042 267.967 743.826 268.665 743.395 269.243C742.969 269.821 742.389 270.221 741.655 270.443V270.557C742.574 270.708 743.291 271.099 743.807 271.729C744.323 272.354 744.581 273.128 744.581 274.051C744.581 274.842 744.366 275.552 743.935 276.182C743.509 276.807 742.926 277.299 742.188 277.659C741.449 278.019 740.609 278.199 739.667 278.199Z" fill="black"/>
<path d="M309.619 710.453V724.998H307.858V712.299H307.773L304.222 714.657V712.867L307.858 710.453H309.619ZM314.193 725.112C313.843 725.112 313.542 724.986 313.291 724.735C313.04 724.484 312.915 724.184 312.915 723.833C312.915 723.483 313.04 723.182 313.291 722.931C313.542 722.68 313.843 722.555 314.193 722.555C314.544 722.555 314.844 722.68 315.095 722.931C315.346 723.182 315.472 723.483 315.472 723.833C315.472 724.065 315.412 724.278 315.294 724.472C315.18 724.667 315.027 724.823 314.832 724.941C314.643 725.055 314.43 725.112 314.193 725.112ZM322.819 725.197C321.881 725.197 321.046 725.036 320.312 724.714C319.583 724.392 319.003 723.945 318.572 723.372C318.146 722.794 317.914 722.124 317.876 721.362H319.665C319.703 721.83 319.864 722.235 320.148 722.576C320.433 722.912 320.804 723.173 321.263 723.357C321.723 723.542 322.232 723.634 322.79 723.634C323.415 723.634 323.969 723.526 324.452 723.308C324.935 723.09 325.314 722.787 325.589 722.399C325.863 722.01 326.001 721.561 326.001 721.049C326.001 720.514 325.868 720.043 325.603 719.636C325.338 719.224 324.95 718.902 324.438 718.67C323.927 718.438 323.302 718.322 322.563 718.322H321.398V716.759H322.563C323.141 716.759 323.647 716.655 324.083 716.447C324.523 716.239 324.867 715.945 325.113 715.566C325.364 715.187 325.489 714.742 325.489 714.231C325.489 713.739 325.38 713.31 325.163 712.945C324.945 712.581 324.637 712.297 324.239 712.093C323.846 711.89 323.382 711.788 322.847 711.788C322.345 711.788 321.872 711.88 321.427 712.065C320.987 712.245 320.627 712.508 320.347 712.853C320.068 713.194 319.916 713.606 319.893 714.089H318.188C318.217 713.327 318.446 712.659 318.877 712.086C319.308 711.508 319.871 711.059 320.567 710.737C321.268 710.415 322.038 710.254 322.876 710.254C323.775 710.254 324.547 710.436 325.191 710.801C325.835 711.16 326.33 711.636 326.675 712.228C327.021 712.82 327.194 713.459 327.194 714.146C327.194 714.965 326.978 715.663 326.548 716.241C326.121 716.819 325.541 717.219 324.808 717.441V717.555C325.726 717.706 326.443 718.097 326.96 718.727C327.476 719.352 327.734 720.126 327.734 721.049C327.734 721.84 327.518 722.55 327.087 723.18C326.661 723.805 326.079 724.297 325.34 724.657C324.602 725.017 323.761 725.197 322.819 725.197Z" fill="black"/>
<path d="M384.075 9.31837C384.527 9.00109 384.636 8.37743 384.319 7.92537L379.148 0.558707C378.831 0.106651 378.207 -0.0026083 377.755 0.314668C377.303 0.631945 377.194 1.25561 377.511 1.70767L382.107 8.25581L375.559 12.8517C375.107 13.1689 374.998 13.7926 375.315 14.2447C375.632 14.6967 376.256 14.806 376.708 14.4887L384.075 9.31837ZM131.466 242.742C127.013 226.073 129.014 201.149 137.49 173.554C145.956 145.99 160.847 115.884 182.028 88.8901C224.377 34.9191 291.806 -6.5487 383.328 9.48485L383.673 7.51485C291.26 -8.67486 223.144 33.2496 180.454 87.6555C159.116 114.85 144.113 145.178 135.578 172.967C127.052 200.724 124.942 226.069 129.534 243.258L131.466 242.742Z" fill="black"/>
<path d="M494.465 277.252C494.833 277.664 495.465 277.699 495.877 277.331L502.585 271.331C502.997 270.963 503.032 270.33 502.664 269.919C502.295 269.507 501.663 269.472 501.251 269.84L495.289 275.174L489.955 269.211C489.587 268.799 488.955 268.764 488.543 269.132C488.132 269.501 488.096 270.133 488.465 270.544L494.465 277.252ZM542.941 141.885C535.388 154.01 523.904 175.263 513.962 199.67C504.024 224.066 495.595 251.689 494.212 276.53L496.209 276.641C497.574 252.12 505.911 224.735 515.814 200.425C525.712 176.126 537.144 154.974 544.638 142.943L542.941 141.885Z" fill="black"/>
<path d="M727.134 261.5C727.41 261.978 728.021 262.142 728.5 261.866L736.295 257.368C736.773 257.092 736.937 256.48 736.661 256.002C736.385 255.523 735.774 255.359 735.295 255.635L728.366 259.634L724.368 252.705C724.092 252.227 723.48 252.063 723.002 252.339C722.523 252.615 722.359 253.226 722.635 253.705L727.134 261.5ZM807.143 110.485C795.168 130.41 776.797 161.822 760.599 191.308C752.501 206.05 744.941 220.318 738.996 232.431C733.062 244.519 728.698 254.535 727.034 260.741L728.966 261.259C730.573 255.266 734.852 245.412 740.791 233.312C746.718 221.238 754.261 206.999 762.352 192.27C778.534 162.814 796.891 131.425 808.857 111.515L807.143 110.485Z" fill="black"/>
<path d="M773.999 543.568C774.023 543.016 773.596 542.549 773.044 542.525L764.053 542.127C763.501 542.103 763.034 542.53 763.01 543.082C762.985 543.634 763.413 544.101 763.965 544.125L771.957 544.479L771.603 552.471C771.579 553.022 772.007 553.49 772.558 553.514C773.11 553.538 773.577 553.111 773.602 552.559L773.999 543.568ZM680.474 481.766C676.735 497.335 673.765 515.247 673.127 531.805C672.491 548.322 674.167 563.661 679.866 573.958C682.731 579.133 686.635 583.075 691.8 585.213C696.96 587.349 703.263 587.636 710.842 585.717C725.953 581.892 746.39 569.236 773.675 544.261L772.325 542.786C745.091 567.714 724.96 580.08 710.352 583.778C703.071 585.621 697.227 585.295 692.565 583.365C687.907 581.437 684.313 577.862 681.616 572.989C676.193 563.191 674.493 548.317 675.126 531.882C675.757 515.489 678.701 497.712 682.419 482.234L680.474 481.766Z" fill="black"/>
<path d="M278.851 367.023C279.141 366.553 278.995 365.937 278.525 365.647L270.867 360.919C270.397 360.629 269.781 360.775 269.491 361.245C269.201 361.715 269.347 362.331 269.817 362.621L276.624 366.824L272.421 373.631C272.131 374.101 272.277 374.717 272.747 375.007C273.217 375.297 273.833 375.151 274.123 374.681L278.851 367.023ZM168.651 432.757C179.203 423.7 197.367 409.553 217.529 396.576C237.712 383.586 259.803 371.83 278.23 367.471L277.77 365.525C258.997 369.966 236.671 381.877 216.446 394.895C196.2 407.926 177.963 422.129 167.349 431.239L168.651 432.757Z" fill="black"/>
<path d="M525.857 321.514C526.142 321.041 525.988 320.427 525.514 320.143L517.797 315.512C517.323 315.228 516.709 315.381 516.425 315.855C516.141 316.329 516.294 316.943 516.768 317.227L523.628 321.343L519.512 328.203C519.228 328.677 519.381 329.291 519.855 329.575C520.329 329.859 520.943 329.706 521.227 329.232L525.857 321.514ZM470.804 329.481C471.55 329.63 472.712 329.664 474.124 329.629C475.564 329.593 477.347 329.482 479.382 329.309C483.451 328.963 488.563 328.367 494.012 327.616C504.901 326.114 517.192 323.983 525.243 321.97L524.757 320.03C516.808 322.017 504.599 324.136 493.738 325.634C488.312 326.383 483.236 326.974 479.212 327.316C477.199 327.487 475.459 327.595 474.075 327.629C472.663 327.664 471.7 327.62 471.196 327.519L470.804 329.481Z" fill="black"/>
<path d="M762.995 277.102C763.051 276.553 762.651 276.062 762.102 276.005L753.149 275.087C752.6 275.03 752.109 275.43 752.052 275.98C751.996 276.529 752.396 277.02 752.945 277.076L760.903 277.893L760.087 285.851C760.03 286.4 760.43 286.891 760.98 286.948C761.529 287.004 762.02 286.604 762.076 286.055L762.995 277.102ZM723.221 298.975C729.469 297.562 745.94 291.361 762.631 277.776L761.369 276.224C744.91 289.621 728.719 295.681 722.779 297.025L723.221 298.975Z" fill="black"/>
<path d="M120.569 737.824C119.919 738.339 119.81 739.282 120.324 739.931L128.707 750.513C129.222 751.163 130.165 751.272 130.814 750.758C131.464 750.243 131.573 749.3 131.059 748.65L123.607 739.244L133.013 731.793C133.663 731.278 133.772 730.335 133.258 729.686C132.743 729.036 131.8 728.927 131.15 729.441L120.569 737.824ZM412.665 595.316C384.36 650.602 286.475 756.618 121.673 737.51L121.327 740.49C287.725 759.782 386.64 652.731 415.335 596.684L412.665 595.316Z" fill="black"/>
</svg>
