<?xml version="1.0" encoding="UTF-8"?>
<svg version="1.1" xmlns="http://www.w3.org/2000/svg" width="722" height="754">
<path d="M0 0 C0.72912598 0.35078613 1.45825195 0.70157227 2.20947266 1.06298828 C30.82971868 15.02455187 58.64414932 38.06238792 70.046875 68.82421875 C75.00367573 85.34011626 79.32173673 103.30626995 71.77734375 119.6484375 C66.28508932 129.59263076 58.62870672 136.88803056 48 141 C36.72121075 144.25213915 21.48429479 143.24214739 11 138 C6.24246296 135.12417537 4.69667131 132.94655954 3.1640625 127.59765625 C2.63308352 125.42357835 2.12107234 123.24480741 1.625 121.0625 C-5.05541467 94.28671113 -14.76713051 61.59874542 -39.81640625 46.27734375 C-57.1977399 37.0541328 -78.44920441 36.05494638 -97.26953125 41.61328125 C-137.08564296 56.41403482 -154.82760991 90.09591973 -173 126 C-173.40025391 126.78439453 -173.80050781 127.56878906 -174.21289062 128.37695312 C-185.16242419 149.98837926 -189.76720353 173.06640826 -194.52355957 196.64807129 C-194.97931219 198.89787547 -195.44319685 201.14585038 -195.90917969 203.39355469 C-208.19153723 263.04766072 -206.68020682 327.67848628 -184.9375 384.875 C-184.53837402 385.92606934 -184.13924805 386.97713867 -183.72802734 388.06005859 C-179.51848665 398.77821 -174.32292497 408.11788766 -167 417 C-166.278125 417.99 -165.55625 418.98 -164.8125 420 C-155.33941435 431.14480665 -139.27170741 439.92713478 -124.67578125 441.31640625 C-101.61763919 442.07602623 -80.67786122 433.19364982 -63.3125 418.3125 C-55.37620417 410.86793431 -49.8149836 401.72089635 -44.38671875 392.3515625 C-43.49563287 390.84048166 -42.56320896 389.35263476 -41.58203125 387.8984375 C-29.32550579 369.30006374 -24.00834023 344.75028804 -19.4375 323.25 C-17.15160475 312.70999884 -14.40698189 302.46576996 -5.5 295.515625 C15.374993 282.8601605 42.5715249 278.70536767 66.23828125 284.02734375 C76.56459187 286.69738668 86.38022645 289.79628532 92.3828125 299.15625 C93.83801328 302.04834714 94.9322589 304.94190655 96 308 C96.22896973 308.65049316 96.45793945 309.30098633 96.69384766 309.97119141 C109.70289044 348.04368687 110.99127549 390.27268382 112.9987793 430.03833008 C113.05836319 431.21134674 113.11794708 432.3843634 113.17933655 433.59292603 C113.29064656 435.80249923 113.39964355 438.01219071 113.50584412 440.22201538 C113.82034686 446.50623048 114.30608566 452.74607137 115 459 C156.97245412 424.19357463 181.21397748 377.03007363 192.51904297 324.24316406 C198.13684597 298.04195902 198.13684597 298.04195902 207.83203125 290.34765625 C212.93609849 287.1748577 217.82370757 286.55259501 223.6875 287.625 C230.19575113 289.41335422 235.55667393 293.12676824 239 299 C247.07266744 317.03859891 242.17804144 334.75284253 237.34814453 352.90209961 C236.37737118 356.55358101 235.43821321 360.21208397 234.50390625 363.87304688 C230.09427543 380.95224652 225.05683138 396.92544439 216.75 412.5625 C216.1828125 413.63894775 215.615625 414.71539551 215.03125 415.82446289 C210.88588624 423.58243182 206.46690548 430.99419915 201.33496094 438.13525391 C199.83902908 440.22485294 198.37715709 442.33651016 196.9140625 444.44921875 C188.16711665 456.95720721 178.76598339 468.20887248 167 478 C166.04351563 478.84433594 165.08703125 479.68867188 164.1015625 480.55859375 C150.94357179 492.15593509 136.80511341 502.48650705 122.375 512.4375 C121.56329346 512.99945068 120.75158691 513.56140137 119.9152832 514.14038086 C119.16722412 514.64964111 118.41916504 515.15890137 117.6484375 515.68359375 C116.99020996 516.13275146 116.33198242 516.58190918 115.65380859 517.04467773 C114 518 114 518 112 518 C111.9582666 518.69657715 111.9165332 519.3931543 111.87353516 520.11083984 C111.28880889 528.41558841 109.97929968 536.46083995 108.375 544.625 C108.24372711 545.29607788 108.11245422 545.96715576 107.97720337 546.65856934 C99.73369189 588.53958221 87.69366189 626.78885204 59 659 C58.55688477 659.5048291 58.11376953 660.0096582 57.65722656 660.52978516 C54.51910167 664.10000395 51.29928122 667.57831711 48 671 C47.50806152 671.51481934 47.01612305 672.02963867 46.50927734 672.56005859 C38.31787215 681.00785399 29.86816578 686.52040672 19 691 C17.2984375 691.70382812 17.2984375 691.70382812 15.5625 692.421875 C-20.03015037 705.52644173 -66.87027436 709.58894957 -102.09423828 693.90673828 C-123.50534257 683.71959489 -137.4694334 669.30176193 -145.72900391 647.03466797 C-146.9754087 643.39716174 -148.05759212 639.72703682 -149 636 C-149.19078125 635.26007812 -149.3815625 634.52015625 -149.578125 633.7578125 C-152.96881604 611.5927396 -146.62869634 590.58443097 -134.375 572.125 C-125.51937996 560.75397038 -112.63846375 553.4504509 -100 547 C-99.2177002 546.5992627 -98.43540039 546.19852539 -97.62939453 545.78564453 C-78.22930396 535.96092 -57.87392547 528.90643708 -37.32861328 521.89306641 C-30.65849098 519.61583178 -24.0053928 517.30117603 -17.37109375 514.921875 C-16.65833786 514.66667084 -15.94558197 514.41146667 -15.21122742 514.14852905 C-11.74271608 512.90591989 -8.27622216 511.6580536 -4.81225586 510.40283203 C-3.5722583 509.95794434 -2.33226074 509.51305664 -1.0546875 509.0546875 C0.59297607 508.45889893 0.59297607 508.45889893 2.27392578 507.85107422 C5 507 5 507 8 507 C7.67 506.34 7.34 505.68 7 505 C6.73641795 502.39309712 6.52540767 499.80221035 6.3515625 497.18896484 C6.29450134 496.38222321 6.23744019 495.57548157 6.1786499 494.74429321 C5.99018826 492.0667659 5.80767455 489.38886532 5.625 486.7109375 C5.49473687 484.84962985 5.36403423 482.98835291 5.23291016 481.12710571 C4.88775139 476.21490695 4.54732826 471.30239247 4.20825195 466.38977051 C3.6665409 458.54766155 3.11923607 450.70594661 2.56903076 442.86442947 C2.37811133 440.13049135 2.19012923 437.39636255 2.00244141 434.66220093 C1.88454155 432.97059433 1.76654524 431.27899444 1.6484375 429.58740234 C1.59749939 428.8338446 1.54656128 428.08028687 1.49407959 427.30389404 C1.15591563 422.50859946 0.63226395 417.76570633 0 413 C-0.51046875 414.15113281 -1.0209375 415.30226563 -1.546875 416.48828125 C-18.1713382 453.1928545 -43.85007173 480.77834044 -82 495.375 C-124.5717038 510.70818509 -176.9526653 506.84450786 -217.73950195 488.109375 C-227.67484947 483.41685502 -237.04365787 478.37474161 -246 472 C-246.98871094 471.32582031 -247.97742188 470.65164063 -248.99609375 469.95703125 C-294.10167457 437.49250493 -318.41861558 385.84995621 -327.37646484 332.28881836 C-328.00881522 328.20251237 -328.52621643 324.10744256 -329 320 C-329.1544458 318.68491455 -329.1544458 318.68491455 -329.31201172 317.34326172 C-334.21462325 273.66897041 -329.13992202 231.38140935 -318 189 C-317.77763672 188.14567383 -317.55527344 187.29134766 -317.32617188 186.41113281 C-309.43877277 156.68623321 -296.36527933 126.42888794 -279 101 C-278.53094238 100.30471191 -278.06188477 99.60942383 -277.57861328 98.89306641 C-270.93728685 89.0898292 -263.8741371 79.8456949 -256 71 C-255.37536865 70.28851807 -254.7507373 69.57703613 -254.10717773 68.84399414 C-248.31981304 62.31541647 -242.25785331 56.10347367 -236.0793457 49.94897461 C-234.43258596 48.30760204 -232.79127905 46.66091181 -231.15039062 45.01367188 C-173.74204567 -12.44063522 -75.00136354 -36.42453953 0 0 Z M-223.21875 46.21484375 C-225.03384546 48.03391968 -226.92233917 49.70516504 -228.875 51.375 C-236.53595731 57.98238754 -243.46014305 65.29569647 -250 73 C-250.79792969 73.90878906 -251.59585938 74.81757812 -252.41796875 75.75390625 C-264.08538133 89.13439983 -274.26860212 103.5495186 -283 119 C-283.6290625 120.0828125 -284.258125 121.165625 -284.90625 122.28125 C-305.5755197 159.21486307 -316.60904913 200.42806078 -323 242 C-323.13132324 242.80985352 -323.26264648 243.61970703 -323.39794922 244.45410156 C-328.75993257 278.49103936 -325.23298095 315.57705256 -318 349 C-317.74959961 350.1763501 -317.74959961 350.1763501 -317.49414062 351.37646484 C-307.08944389 398.78560506 -278.20024858 444.61792329 -237 471 C-213.98232986 485.22221218 -189.81731016 493.82723111 -163 497 C-161.88367188 497.13277344 -160.76734375 497.26554687 -159.6171875 497.40234375 C-116.70958171 501.49144978 -75.84057659 492.46390703 -42.19921875 464.6875 C-39.72430459 462.52429733 -37.34664325 460.30119769 -35 458 C-34.3503125 457.37480469 -33.700625 456.74960937 -33.03125 456.10546875 C-17.35960195 439.82365407 -1.51538933 411.95825211 -1 389 C0.98 389 2.96 389 5 389 C5.04454819 389.77055725 5.08909637 390.5411145 5.13499451 391.33502197 C6.47067944 414.27043417 8.01979886 437.18796273 9.65942383 460.10351562 C10.00125418 464.88291226 10.33843251 469.66262584 10.67458439 474.44242477 C10.93747702 478.17087438 11.2032719 481.89911284 11.46990776 485.62729645 C11.59571557 487.39263943 11.72050501 489.15805531 11.84422493 490.92354584 C12.01558802 493.36429798 12.19099418 495.80472734 12.36743164 498.24511719 C12.44148224 499.31857895 12.44148224 499.31857895 12.51702881 500.41372681 C12.78162443 504.01217284 13.19594178 507.48086976 14 511 C13.40157288 511.17450684 12.80314575 511.34901367 12.18658447 511.52880859 C5.85064191 513.39985401 -0.40086119 515.45659674 -6.640625 517.625 C-8.12974144 518.14006104 -8.12974144 518.14006104 -9.64894104 518.66552734 C-12.85029305 519.77416342 -16.05032971 520.88652012 -19.25 522 C-20.34347748 522.38027344 -21.43695496 522.76054688 -22.56356812 523.15234375 C-75.79735578 540.0989069 -75.79735578 540.0989069 -123 569 C-123.71414063 569.60328125 -124.42828125 570.2065625 -125.1640625 570.828125 C-136.44785044 581.88713629 -144.20101603 601.89342453 -144.51953125 617.56958008 C-144.51308594 618.41286865 -144.50664062 619.25615723 -144.5 620.125 C-144.49033203 621.48177856 -144.49033203 621.48177856 -144.48046875 622.8659668 C-144.019107 640.13819737 -136.80031861 659.26273189 -124.59375 671.69921875 C-100.19244043 693.34435631 -70.8559361 698.78082057 -39 697 C2.08438211 693.61748884 30.34114382 682.97926303 57.87109375 651.8125 C60.000294 649.26201414 62.01870572 646.66667242 64 644 C64.38913574 643.49259277 64.77827148 642.98518555 65.17919922 642.46240234 C83.07497817 619.09130917 91.38900851 591.69027865 98.375 563.4375 C98.54392761 562.76302826 98.71285522 562.08855652 98.88690186 561.39364624 C100.78528812 553.71535382 102.19492342 546.190382 102.86328125 538.3046875 C104.85892114 516.13169561 104.85892114 516.13169561 111.4140625 510.30859375 C115.79816183 507.15514746 120.47767582 504.71562171 125.33203125 502.36962891 C129.33240314 500.31599729 132.78231897 497.70288267 136.3125 494.9375 C136.95010254 494.45120117 137.58770508 493.96490234 138.24462891 493.46386719 C150.35397562 484.20395973 161.9654782 474.51874386 173 464 C173.66257812 463.39027344 174.32515625 462.78054688 175.0078125 462.15234375 C192.40691822 445.68388787 205.96091055 421.8577473 216.3125 400.4375 C216.61381836 399.82640381 216.91513672 399.21530762 217.22558594 398.58569336 C223.51247114 385.11453752 226.7744041 369.97835728 230.50415039 355.64624023 C231.04319151 353.58987408 231.59105791 351.53580116 232.14770508 349.48413086 C238.88551415 325.02435527 238.88551415 325.02435527 233 301 C229.37863971 296.03356303 224.8868708 294.20315608 219 293 C214.95435653 293.18389289 212.3316737 294.76527859 209 297 C202.29315083 304.89041079 200.38948893 315.21397416 198.36743164 325.08935547 C196.58108342 333.73782844 194.36573841 342.17229192 191.8125 350.625 C191.61746887 351.27275391 191.42243774 351.92050781 191.22149658 352.58789062 C187.77313433 363.99081086 183.85798201 375.114713 179 386 C178.72510742 386.62148926 178.45021484 387.24297852 178.16699219 387.88330078 C167.62770995 411.29749373 151.46088273 432.56202228 133.36328125 450.6328125 C132.06062884 451.93761806 130.77054409 453.25713826 129.54296875 454.6328125 C123.44011324 461.35122981 115.49559075 465.99594331 108 471 C108.00687332 470.41305359 108.01374664 469.82610718 108.02082825 469.22137451 C108.18456476 452.85088188 107.64538031 436.59070935 106.6875 420.25 C106.58521591 418.47234756 106.58521591 418.47234756 106.48086548 416.65878296 C105.85876052 353.0697983 105.85876052 353.0697983 82.76171875 296.91796875 C68.66970467 287.13129419 48.82087973 286.49808651 32.33203125 288.4296875 C25.38514878 289.74902508 18.76872001 291.99720029 12.125 294.375 C11.33996094 294.65480713 10.55492187 294.93461426 9.74609375 295.22290039 C2.00445863 298.12683504 -5.11723098 301.37313227 -9 309 C-11.95673312 316.88310421 -13.95428312 324.83964771 -15.6875 333.0625 C-20.07506254 352.81370535 -25.92106528 372.36610622 -36 390 C-36.66322266 391.19230225 -36.66322266 391.19230225 -37.33984375 392.40869141 C-43.51400447 403.45818025 -49.84415945 413.20594038 -59 422 C-59.72445313 422.7321875 -60.44890625 423.464375 -61.1953125 424.21875 C-77.73884716 440.09077587 -102.1495514 447.80190608 -124.73046875 447.34375 C-139.94384992 446.51449461 -153.84877014 437.76900036 -165 428 C-166.01513672 427.12794922 -166.01513672 427.12794922 -167.05078125 426.23828125 C-195.86111504 399.62192077 -205.81099926 347.51442733 -208 310 C-208.3006965 301.09793067 -208.29067918 292.19192077 -208.26074219 283.28588867 C-208.24938251 279.88092611 -208.25612572 276.47627709 -208.26759052 273.0713253 C-208.33400294 250.0545849 -206.80555205 228.0705558 -202.3125 205.5 C-201.95506054 203.67181297 -201.59772167 201.84360626 -201.24047852 200.01538086 C-192.96887033 158.01213087 -180.41214983 120.21763683 -157 84 C-156.35587158 82.99380615 -156.35587158 82.99380615 -155.69873047 81.96728516 C-140.49278651 58.423479 -119.85079195 40.37102801 -91.86962891 34.03149414 C-71.16097791 30.11777066 -49.81163981 32.32615499 -32 44 C-9.85081441 59.69488469 -0.29330421 90.89911583 6.60375977 115.765625 C8.680127 125.04224023 8.680127 125.04224023 13.90234375 132.5234375 C14.57394531 132.80445313 15.24554688 133.08546875 15.9375 133.375 C16.60652344 133.67148438 17.27554687 133.96796875 17.96484375 134.2734375 C27.76814528 137.7732726 41.30773787 137.94467806 50.75 133.5625 C60.31281014 127.82211256 65.60437009 119.61650165 69.3125 109.375 C72.96681725 92.38736305 65.99926257 71.28413001 57 57 C52.61395231 50.45159081 47.8647467 44.1971781 43 38 C42.28972656 37.07058594 41.57945312 36.14117187 40.84765625 35.18359375 C17.42538153 6.53359031 -25.1038043 -5.95521238 -60.296875 -9.49609375 C-118.45643941 -14.41208555 -181.9106528 3.59398923 -223.21875 46.21484375 Z " fill="#000000" transform="translate(397,16)"/>
<path d="M0 0 C3.44802976 3.17581688 5.41996314 5.60690687 7 10 C7.83402344 9.95359375 8.66804688 9.9071875 9.52734375 9.859375 C20.40905838 9.51036239 27.20641421 11.64068385 35.20703125 19.06640625 C42.38318634 26.80539703 43.48473506 33.89329742 43.2734375 44.234375 C42.64352117 52.90922277 38.28194806 59.17492089 32 65 C23.48327194 71.4154045 15.44025448 71.75810977 5 71 C-3.43930683 68.975542 -10.2806194 62.97795811 -14.9375 55.8125 C-19.34243789 48.48089152 -19.31124072 38.46613602 -17.3515625 30.296875 C-13.81109862 21.64240773 -7.26899761 15.18842705 1 11 C1.99 10.67 2.98 10.34 4 10 C3.62746094 9.52949219 3.25492187 9.05898437 2.87109375 8.57421875 C2.39800781 7.95160156 1.92492187 7.32898438 1.4375 6.6875 C0.96183594 6.07261719 0.48617188 5.45773438 -0.00390625 4.82421875 C-0.33261719 4.22222656 -0.66132813 3.62023437 -1 3 C-0.67 2.01 -0.34 1.02 0 0 Z " fill="#000000" transform="translate(420,67)"/>
<path d="M0 0 C1.32 0.66 2.64 1.32 4 2 C3.67950684 2.58040039 3.35901367 3.16080078 3.02880859 3.75878906 C-29.82952318 63.43147223 -56.68917482 127.85024358 -65 196 C-65.12760208 197.04160278 -65.12760208 197.04160278 -65.25778198 198.10424805 C-66.83832889 211.33758169 -67.36664122 224.42879833 -67.3125 237.75 C-67.31034485 238.71144928 -67.3081897 239.67289856 -67.30596924 240.66348267 C-67.25353962 255.27755588 -66.85803297 269.62252778 -64 284 C-63.80132324 285.00401855 -63.60264648 286.00803711 -63.39794922 287.04248047 C-56.16753935 322.23047515 -41.84756284 353.81174132 -17 380 C-15.94918468 381.24231905 -14.9062691 382.49140814 -13.875 383.75 C6.3122311 407.53476739 40.70548291 425.71399721 70 435 C70.66 435 71.32 435 72 435 C71.484375 434.071875 70.96875 433.14375 70.4375 432.1875 C69 429 69 429 70 426 C70.99 426 71.98 426 73 426 C74.01303762 427.72156096 75.00994848 429.45261806 76 431.1875 C76.556875 432.15042969 77.11375 433.11335938 77.6875 434.10546875 C79.02216758 437.04888743 79.27915461 438.81880057 79 442 C77.06629769 443.00732399 75.12789694 444.00563288 73.1875 445 C71.56908203 445.8353125 71.56908203 445.8353125 69.91796875 446.6875 C67 448 67 448 64 448 C64 446.68 64 445.36 64 444 C65.98 443.01 67.96 442.02 70 441 C67.33601628 439.22401085 65.07619631 438.1400334 62.125 436.96875 C42.02895413 428.87391005 23.66155414 419.58882437 6 407 C5.39381836 406.57170898 4.78763672 406.14341797 4.16308594 405.70214844 C-38.25980571 375.32496799 -61.34838887 328.9306667 -69.97265625 278.49609375 C-84.14869613 186.07526739 -49.85929616 77.55890514 0 0 Z " fill="#000000" transform="translate(110,81)"/>
<path d="M0 0 C1.2063598 32.0802348 -3.19729551 64.48989451 -25 89.2734375 C-34.6079014 99.36924014 -46.99123034 104.93375487 -60.9765625 105.29272461 C-73.32468413 105.40317049 -81.82098456 102.6180756 -91 94 C-97.89152098 86.80598859 -99.93982071 80.6024983 -100.3125 70.8125 C-100.06602868 59.82912199 -97.88752345 48.51683118 -90.35546875 40.1796875 C-68.87171961 20.00757778 -35.92820656 8.60767112 -8 1 C-7.00806641 0.71757446 -7.00806641 0.71757446 -5.99609375 0.42944336 C-4 0 -4 0 0 0 Z M-87 45 C-89.39009491 48.18515729 -90.82198347 51.20959447 -92 55 C-92.23847656 55.72832031 -92.47695313 56.45664062 -92.72265625 57.20703125 C-94.89821987 65.20330813 -95.51073743 75.41680714 -92 83 C-86.66839884 90.09383565 -80.11210718 97.35206572 -71 99 C-56.32877892 100.08741736 -43.78591611 97.26961377 -32 88 C-12.88714245 70.83672355 -8.03351543 44.92573662 -6.1171875 20.51171875 C-5.90703081 16.00736042 -5.92153052 11.50763568 -6 7 C-30.37592558 7 -68.87924905 28.84506069 -87 45 Z " fill="#000000" transform="translate(411,567)"/>
<path d="M0 0 C0.67679658 1.725227 1.34102 3.45538939 2 5.1875 C2.37125 6.15042969 2.7425 7.11335937 3.125 8.10546875 C3.97636772 10.92182358 4.17072647 13.08164439 4 16 C2.125 15.875 2.125 15.875 0 15 C-1.25 11.9375 -1.25 11.9375 -2 9 C-13.01201181 25.51801772 -15.08800655 49.98803246 -11.41064453 68.94677734 C-6.59799105 91.5506894 7.44643407 108.46311181 26.2578125 121.20703125 C50.59855274 136.92926184 79.60078485 143.43878464 108.3125 143.3125 C108.9859848 143.31034485 109.6594696 143.3081897 110.35336304 143.30596924 C132.23856675 143.1940807 152.39818876 139.29190414 171.1796875 127.63671875 C173.56579929 126.25198075 175.31149832 125.44808361 178 125 C178 126.32 178 127.64 178 129 C155.95610664 148.70454141 120.61931888 148.99642118 93 148 C73.2864315 146.6742337 53.62483279 140.83022825 36 132 C35.33129883 131.66629395 34.66259766 131.33258789 33.97363281 130.98876953 C11.92534763 119.77644812 -5.56454985 102.66038431 -14.0390625 79 C-21.94537693 54.31687204 -16.64002935 29.42843198 -7 6 C-9.97 6.66 -12.94 7.32 -16 8 C-16 6.68 -16 5.36 -16 4 C-14.274773 3.32320342 -12.54461061 2.65898 -10.8125 2 C-9.84957031 1.62875 -8.88664063 1.2575 -7.89453125 0.875 C-5.07817642 0.02363228 -2.91835561 -0.17072647 0 0 Z " fill="#000000" transform="translate(242,598)"/>
<path d="M0 0 C5 5.11363636 5 5.11363636 5 9 C3.0625 8.625 3.0625 8.625 1 8 C0.505 7.01 0.505 7.01 0 6 C-0.20979492 7.01646606 -0.20979492 7.01646606 -0.42382812 8.0534668 C-6.92365268 39.03996963 -17.50174569 67.23877156 -39 91 C-39.99 90.67 -40.98 90.34 -42 90 C-40.66412374 87.04429311 -39.1731348 84.96105338 -36.9375 82.625 C-19.91698244 63.48574581 -5 31.8026621 -5 6 C-5.66 6.66 -6.32 7.32 -7 8 C-7.99 8 -8.98 8 -10 8 C-9.6684371 4.9054129 -8.97117406 3.97195314 -6.6875 1.75 C-4 0 -4 0 0 0 Z " fill="#000000" transform="translate(577,342)"/>
<path d="M0 0 C0.66 0.33 1.32 0.66 2 1 C2.70568999 3.65065448 3.28561671 6.24482941 3.8046875 8.93359375 C3.9688063 9.75019974 4.13292511 10.56680573 4.30201721 11.40815735 C4.83600974 14.08279318 5.35625132 16.75986888 5.875 19.4375 C6.23573808 21.2718139 6.5964966 23.10612379 6.95727539 24.94042969 C10.45426692 42.86009378 13.66075093 60.77343887 15 79 C15.433125 78.505 15.86625 78.01 16.3125 77.5 C18 76 18 76 21 76 C21 79 21 79 18.3125 81.75 C16.05307933 83.5043737 15.30726013 83.98536857 12.375 84.125 C9.24750489 82.64355495 7.85882749 80.89150943 6 78 C6 77.01 6 76.02 6 75 C6.99 75 7.98 75 9 75 C9.33 75.66 9.66 76.32 10 77 C10.40548635 67.58894478 8.86722008 58.61447934 7.3125 49.375 C7.04072062 47.7239801 6.76907452 46.07293825 6.49755859 44.421875 C4.75216543 33.92089035 2.80272015 23.48463232 0.47387695 13.09521484 C0.27882568 12.21816895 0.08377441 11.34112305 -0.1171875 10.4375 C-0.28847168 9.69371094 -0.45975586 8.94992187 -0.63623047 8.18359375 C-1.04321154 5.74061476 -1.12731094 3.47226228 -1 1 C-0.67 0.67 -0.34 0.34 0 0 Z " fill="#000000" transform="translate(509,329)"/>
<path d="M0 0 C1.4540625 0.0309375 1.4540625 0.0309375 2.9375 0.0625 C5.0625 4.6875 5.0625 4.6875 3.9375 8.0625 C4.26300502 9.73071323 4.59596063 11.39749557 4.9375 13.0625 C4.6075 13.7225 4.2775 14.3825 3.9375 15.0625 C1.125 15.9375 1.125 15.9375 -2.0625 16.0625 C-4.4375 14.125 -4.4375 14.125 -6.0625 12.0625 C-2.43923261 10.8547442 -1.42103631 11.51938872 1.9375 13.0625 C1.9375 11.7425 1.9375 10.4225 1.9375 9.0625 C0.6175 9.0625 -0.7025 9.0625 -2.0625 9.0625 C-2.0625 8.0725 -2.0625 7.0825 -2.0625 6.0625 C-0.7425 6.0625 0.5775 6.0625 1.9375 6.0625 C1.6075 5.0725 1.2775 4.0825 0.9375 3.0625 C-1.0425 3.7225 -3.0225 4.3825 -5.0625 5.0625 C-3.9375 0.08035714 -3.9375 0.08035714 0 0 Z " fill="#000000" transform="translate(246.0625,733.9375)"/>
<path d="M0 0 C3.0625 0.1875 3.0625 0.1875 5.0625 2.1875 C4.90004442 5.92397845 4.47466356 7.71288742 2 10.5625 C1.360625 11.09875 0.72125 11.635 0.0625 12.1875 C1.7125 12.5175 3.3625 12.8475 5.0625 13.1875 C5.0625 13.8475 5.0625 14.5075 5.0625 15.1875 C1.7625 15.1875 -1.5375 15.1875 -4.9375 15.1875 C-2.9375 11.1875 -2.9375 11.1875 -0.8125 8.625 C1.36735538 6.30372611 1.36735538 6.30372611 1.0625 3.1875 C0.4025 3.1875 -0.2575 3.1875 -0.9375 3.1875 C-1.2675 3.8475 -1.5975 4.5075 -1.9375 5.1875 C-2.9275 5.1875 -3.9175 5.1875 -4.9375 5.1875 C-3.82120474 0.24390669 -3.82120474 0.24390669 0 0 Z " fill="#000000" transform="translate(514.9375,304.8125)"/>
<path d="M0 0 C0.99 0 1.98 0 3 0 C3 3.3 3 6.6 3 10 C3.66 10 4.32 10 5 10 C5 10.66 5 11.32 5 12 C4.34 12 3.68 12 3 12 C3 12.99 3 13.98 3 15 C2.34 15 1.68 15 1 15 C1 14.01 1 13.02 1 12 C-1.31 12 -3.62 12 -6 12 C-5.56629155 7.2292071 -3.35665609 3.36635741 0 0 Z M0 4 C-0.99 5.98 -1.98 7.96 -3 10 C-1.68 10 -0.36 10 1 10 C1 8.02 1 6.04 1 4 C0.67 4 0.34 4 0 4 Z " fill="#000000" transform="translate(557,347)"/>
<path d="M0 0 C0 4.95 0 9.9 0 15 C-0.99 15 -1.98 15 -3 15 C-3 11.37 -3 7.74 -3 4 C-3.99 4.33 -4.98 4.66 -6 5 C-5.625 3.0625 -5.625 3.0625 -5 1 C-3 0 -3 0 0 0 Z " fill="#000000" transform="translate(233,734)"/>
<path d="M0 0 C0 0.66 0 1.32 0 2 C-1.98 2.66 -3.96 3.32 -6 4 C-6 6.64 -6 9.28 -6 12 C-6.99 12 -7.98 12 -9 12 C-8.95875 11.071875 -8.9175 10.14375 -8.875 9.1875 C-8.72863661 5.84190281 -8.72863661 5.84190281 -11 3 C-9.73581754 2.30034557 -8.46334598 1.61565237 -7.1875 0.9375 C-6.47980469 0.55464844 -5.77210938 0.17179688 -5.04296875 -0.22265625 C-3 -1 -3 -1 0 0 Z " fill="#000000" transform="translate(462,522)"/>
<path d="M0 0 C0 4.95 0 9.9 0 15 C-0.99 15 -1.98 15 -3 15 C-3 11.37 -3 7.74 -3 4 C-3.99 4.33 -4.98 4.66 -6 5 C-5.625 3.0625 -5.625 3.0625 -5 1 C-3 0 -3 0 0 0 Z " fill="#000000" transform="translate(543,347)"/>
<path d="M0 0 C0 4.95 0 9.9 0 15 C-0.99 15 -1.98 15 -3 15 C-3 11.37 -3 7.74 -3 4 C-3.99 4.33 -4.98 4.66 -6 5 C-5.625 3.0625 -5.625 3.0625 -5 1 C-3 0 -3 0 0 0 Z " fill="#000000" transform="translate(7,310)"/>
<path d="M0 0 C0 4.95 0 9.9 0 15 C-0.99 15 -1.98 15 -3 15 C-3 11.37 -3 7.74 -3 4 C-3.99 4.33 -4.98 4.66 -6 5 C-5.625 3.0625 -5.625 3.0625 -5 1 C-3 0 -3 0 0 0 Z " fill="#000000" transform="translate(502,305)"/>
<path d="M0 0 C0 4.95 0 9.9 0 15 C-0.66 15 -1.32 15 -2 15 C-2.33 11.37 -2.66 7.74 -3 4 C-3.99 4.33 -4.98 4.66 -6 5 C-6 4.01 -6 3.02 -6 2 C-3 0 -3 0 0 0 Z " fill="#000000" transform="translate(19,310)"/>
<path d="M0 0 C4.24822374 0.47202486 6.19989709 2.96655518 9 6 C8.67 6.99 8.34 7.98 8 9 C4.63704165 7.55873214 2.37072898 5.79407345 0 3 C0 2.01 0 1.02 0 0 Z " fill="#000000" transform="translate(406,53)"/>
<path d="M0 0 C0.66 0.33 1.32 0.66 2 1 C1.82374165 3.37948772 1.30280227 4.70225849 -0.40234375 6.37890625 C-1.90649092 7.62115486 -3.45129851 8.81376056 -5 10 C-5.66 9.01 -6.32 8.02 -7 7 C-4.69 4.69 -2.38 2.38 0 0 Z " fill="#000000" transform="translate(544,474)"/>
<path d="M0 0 C0.66 0.33 1.32 0.66 2 1 C0.65289578 5.04131267 -1.38428334 5.90288434 -5 8 C-5.99 8 -6.98 8 -8 8 C-8 7.01 -8 6.02 -8 5 C-6.3203125 3.578125 -6.3203125 3.578125 -4.125 2.25 C-3.40570313 1.80140625 -2.68640625 1.3528125 -1.9453125 0.890625 C-1.30335938 0.59671875 -0.66140625 0.3028125 0 0 Z " fill="#000000" transform="translate(330,469)"/>
<path d="M0 0 C2.97 1.98 5.94 3.96 9 6 C8.01 7.485 8.01 7.485 7 9 C4.03 7.02 1.06 5.04 -2 3 C-1.34 2.01 -0.68 1.02 0 0 Z " fill="#000000" transform="translate(191,463)"/>
<path d="M0 0 C0.66 0.33 1.32 0.66 2 1 C0.68775452 4.93673644 -0.91910327 7.22719294 -4 10 C-4.99 9.67 -5.98 9.34 -7 9 C-6.02180976 7.68677212 -5.0424189 6.37443848 -4.0625 5.0625 C-3.51722656 4.33160156 -2.97195313 3.60070312 -2.41015625 2.84765625 C-1 1 -1 1 0 0 Z " fill="#000000" transform="translate(359,441)"/>
<path d="M0 0 C0.66 0 1.32 0 2 0 C3.2890625 1.42578125 3.2890625 1.42578125 4.625 3.3125 C5.07101563 3.92738281 5.51703125 4.54226563 5.9765625 5.17578125 C7 7 7 7 7 10 C3.21282653 8.51218185 1.22592999 6.38011591 -1 3 C-0.67 2.01 -0.34 1.02 0 0 Z " fill="#000000" transform="translate(148,420)"/>
<path d="M0 0 C1.8125 0.125 1.8125 0.125 4 1 C5.95320589 4.20883825 7 6.2205439 7 10 C6.01 10 5.02 10 4 10 C3.32845067 8.71086513 2.66291141 7.41859796 2 6.125 C1.62875 5.40570313 1.2575 4.68640625 0.875 3.9453125 C0 2 0 2 0 0 Z " fill="#000000" transform="translate(126,386)"/>
<path d="M0 0 C0.99 0 1.98 0 3 0 C5 7.625 5 7.625 5 11 C4.01 11 3.02 11 2 11 C1.664061 9.5422647 1.33133376 8.08378894 1 6.625 C0.814375 5.81289063 0.62875 5.00078125 0.4375 4.1640625 C0 2 0 2 0 0 Z " fill="#000000" transform="translate(114,347)"/>
<path d="M0 0 C0.99 0 1.98 0 3 0 C4.19287411 3.87684087 5 6.91621923 5 11 C4.01 11 3.02 11 2 11 C0.80712589 7.12315913 0 4.08378077 0 0 Z " fill="#000000" transform="translate(435,345)"/>
<path d="M0 0 C0.99 0.33 1.98 0.66 3 1 C1.64458676 5.06623972 -0.57009469 6.53046818 -4 9 C-4.99 8.67 -5.98 8.34 -7 8 C-6.02133662 6.85373678 -5.04205413 5.70800212 -4.0625 4.5625 C-3.51722656 3.92441406 -2.97195312 3.28632812 -2.41015625 2.62890625 C-1.63204305 1.73008851 -0.84063472 0.84063472 0 0 Z " fill="#000000" transform="translate(194,72)"/>
<path d="M0 0 C0.99 0.33 1.98 0.66 3 1 C-0.12621626 4.39417765 -2.56541027 6.6062718 -7 8 C-6.875 6.25 -6.875 6.25 -6 4 C-3.125 1.6875 -3.125 1.6875 0 0 Z " fill="#000000" transform="translate(210,60)"/>
<path d="M0 0 C-0.24609375 1.859375 -0.24609375 1.859375 -1 4 C-2.84765625 5.265625 -2.84765625 5.265625 -5.0625 6.25 C-6.16271484 6.75273438 -6.16271484 6.75273438 -7.28515625 7.265625 C-8.13400391 7.62914062 -8.13400391 7.62914062 -9 8 C-9 6.68 -9 5.36 -9 4 C-2.25 0 -2.25 0 0 0 Z " fill="#000000" transform="translate(229,49)"/>
<path d="M0 0 C0.33 0.99 0.66 1.98 1 3 C-0.26839526 3.50615298 -1.53983102 4.00469099 -2.8125 4.5 C-3.87404297 4.91765625 -3.87404297 4.91765625 -4.95703125 5.34375 C-7 6 -7 6 -10 6 C-10 5.01 -10 4.02 -10 3 C-8.70990357 2.49596232 -7.41786211 1.99690074 -6.125 1.5 C-5.04605469 1.08234375 -5.04605469 1.08234375 -3.9453125 0.65625 C-2 0 -2 0 0 0 Z " fill="#000000" transform="translate(265,33)"/>
<path d="M0 0 C3.3 0.66 6.6 1.32 10 2 C10 2.99 10 3.98 10 5 C6.37 4.34 2.74 3.68 -1 3 C-0.67 2.01 -0.34 1.02 0 0 Z " fill="#000000" transform="translate(323,686)"/>
<path d="M0 0 C0.99 0.33 1.98 0.66 3 1 C0.34345343 4.73884332 -1.58110387 6.64978174 -6 8 C-6.33 7.01 -6.66 6.02 -7 5 C-5.90554162 4.13342884 -4.79902219 3.28207276 -3.6875 2.4375 C-3.07261719 1.96183594 -2.45773437 1.48617187 -1.82421875 0.99609375 C-1.22222656 0.66738281 -0.62023437 0.33867188 0 0 Z " fill="#000000" transform="translate(405,671)"/>
<path d="M0 0 C0 0.99 0 1.98 0 3 C-2.97 4.32 -5.94 5.64 -9 7 C-9 5.68 -9 4.36 -9 3 C-3.375 0 -3.375 0 0 0 Z " fill="#000000" transform="translate(320,583)"/>
<path d="M0 0 C0.66 0.33 1.32 0.66 2 1 C2 1.66 2 2.32 2 3 C0.71086513 3.67154933 -0.58140204 4.33708859 -1.875 5 C-2.59429687 5.37125 -3.31359375 5.7425 -4.0546875 6.125 C-6 7 -6 7 -8 7 C-8.33 6.01 -8.66 5.02 -9 4 C-7.54618103 3.30300448 -6.08677047 2.61766134 -4.625 1.9375 C-3.40683594 1.36322266 -3.40683594 1.36322266 -2.1640625 0.77734375 C-1.44992187 0.52082031 -0.73578125 0.26429688 0 0 Z " fill="#000000" transform="translate(371,558)"/>
<path d="M0 0 C0 0.66 0 1.32 0 2 C-4.95 3.485 -4.95 3.485 -10 5 C-10.33 4.01 -10.66 3.02 -11 2 C-3.57142857 -1.57142857 -3.57142857 -1.57142857 0 0 Z " fill="#000000" transform="translate(480,515)"/>
<path d="M0 0 C0.99 0 1.98 0 3 0 C3 3.63 3 7.26 3 11 C2.01 11 1.02 11 0 11 C0 7.37 0 3.74 0 0 Z " fill="#000000" transform="translate(454,503)"/>
<path d="M0 0 C0.99 0 1.98 0 3 0 C3 3.63 3 7.26 3 11 C2.01 11 1.02 11 0 11 C0 7.37 0 3.74 0 0 Z " fill="#000000" transform="translate(454,483)"/>
<path d="M0 0 C-0.21484375 1.890625 -0.21484375 1.890625 -1 4 C-3.06640625 5.046875 -3.06640625 5.046875 -5.5625 5.75 C-6.80193359 6.11351562 -6.80193359 6.11351562 -8.06640625 6.484375 C-9.02353516 6.73960937 -9.02353516 6.73960937 -10 7 C-9.71484375 5.109375 -9.71484375 5.109375 -9 3 C-3.10714286 0 -3.10714286 0 0 0 Z " fill="#000000" transform="translate(314,480)"/>
<path d="M0 0 C3.3 1.65 6.6 3.3 10 5 C9.67 5.99 9.34 6.98 9 8 C5.7 6.35 2.4 4.7 -1 3 C-0.67 2.01 -0.34 1.02 0 0 Z " fill="#000000" transform="translate(207,474)"/>
<path d="M0 0 C0.66 0.33 1.32 0.66 2 1 C0.55873214 4.36295835 -1.20592655 6.62927102 -4 9 C-4.99 9 -5.98 9 -7 9 C-6.82374165 6.62051228 -6.30280227 5.29774151 -4.59765625 3.62109375 C-3.09350908 2.37884514 -1.54870149 1.18623944 0 0 Z " fill="#000000" transform="translate(345,456)"/>
<path d="M0 0 C1.34173403 0.92543709 2.67320159 1.86577405 4 2.8125 C5.11375 3.59560547 5.11375 3.59560547 6.25 4.39453125 C7.11625 5.18923828 7.11625 5.18923828 8 6 C8 6.99 8 7.98 8 9 C4.06326356 7.68775452 1.77280706 6.08089673 -1 3 C-0.67 2.01 -0.34 1.02 0 0 Z " fill="#000000" transform="translate(175,450)"/>
<path d="M0 0 C0.99 0 1.98 0 3 0 C1.66511872 3.59391114 0.03977277 6.75490696 -2 10 C-2.99 9.67 -3.98 9.34 -5 9 C-3.76067171 5.56801397 -2.49698489 2.69674368 0 0 Z " fill="#000000" transform="translate(382,409)"/>
<path d="M0 0 C0.99 0 1.98 0 3 0 C3.33 3.63 3.66 7.26 4 11 C3.01 11 2.02 11 1 11 C0.67 7.37 0.34 3.74 0 0 Z " fill="#000000" transform="translate(447,404)"/>
<path d="M0 0 C2.33524782 2.25740623 4.18705073 4.2805761 6 7 C5.625 9.1875 5.625 9.1875 5 11 C2.66475218 8.74259377 0.81294927 6.7194239 -1 4 C-0.625 1.8125 -0.625 1.8125 0 0 Z " fill="#000000" transform="translate(137,403)"/>
<path d="M0 0 C0.99 0.33 1.98 0.66 3 1 C1.68 4.3 0.36 7.6 -1 11 C-1.99 10.67 -2.98 10.34 -4 10 C-2.68 6.7 -1.36 3.4 0 0 Z " fill="#000000" transform="translate(605,372)"/>
<path d="M0 0 C0.99 0 1.98 0 3 0 C3.99 3.3 4.98 6.6 6 10 C5.01 10.33 4.02 10.66 3 11 C0 4.5 0 4.5 0 0 Z " fill="#000000" transform="translate(119,367)"/>
<path d="M0 0 C0.99 0 1.98 0 3 0 C2.42636089 3.87206399 0.65894107 6.18465063 -2 9 C-2.99 9 -3.98 9 -5 9 C-3.76067171 5.56801397 -2.49698489 2.69674368 0 0 Z " fill="#000000" transform="translate(166,101)"/>
<path d="M0 0 C3.99500618 1.3697164 6.80009492 3.25722422 10 6 C9.67 6.66 9.34 7.32 9 8 C5.56801397 6.76067171 2.69674368 5.49698489 0 3 C0 2.01 0 1.02 0 0 Z " fill="#000000" transform="translate(390,41)"/>
<path d="M0 0 C0.66 0.33 1.32 0.66 2 1 C1.67 1.99 1.34 2.98 1 4 C-1.06640625 4.94921875 -1.06640625 4.94921875 -3.5625 5.6875 C-4.38878906 5.93886719 -5.21507812 6.19023438 -6.06640625 6.44921875 C-6.70449219 6.63097656 -7.34257812 6.81273437 -8 7 C-8 6.01 -8 5.02 -8 4 C-6.71349294 3.30289269 -5.42059335 2.61757124 -4.125 1.9375 C-3.40570313 1.55464844 -2.68640625 1.17179687 -1.9453125 0.77734375 C-1.30335938 0.52082031 -0.66140625 0.26429687 0 0 Z " fill="#000000" transform="translate(245,40)"/>
<path d="M0 0 C0 0.99 0 1.98 0 3 C-3.63 3.33 -7.26 3.66 -11 4 C-11 3.01 -11 2.02 -11 1 C-7.26562152 0.12132271 -3.83225427 -0.08912219 0 0 Z " fill="#000000" transform="translate(304,25)"/>
<path d="M0 0 C3.63 0 7.26 0 11 0 C11 0.99 11 1.98 11 3 C7.37 3 3.74 3 0 3 C0 2.01 0 1.02 0 0 Z " fill="#000000" transform="translate(313,24)"/>
<path d="M0 0 C3.3 0 6.6 0 10 0 C10.33 0.99 10.66 1.98 11 3 C7.37 3 3.74 3 0 3 C0 2.01 0 1.02 0 0 Z " fill="#000000" transform="translate(342,690)"/>
<path d="M0 0 C3.99500618 1.3697164 6.80009492 3.25722422 10 6 C9.34 6.66 8.68 7.32 8 8 C6.6589523 7.24266726 5.32730219 6.46867264 4 5.6875 C2.88625 5.04361328 2.88625 5.04361328 1.75 4.38671875 C1.1725 3.92910156 0.595 3.47148438 0 3 C0 2.01 0 1.02 0 0 Z " fill="#000000" transform="translate(305,677)"/>
<path d="M0 0 C2.95929119 2.75520215 5.03681826 5.46627288 7 9 C3 9 3 9 0.6875 6.75 C-1 4 -1 4 -0.75 1.6875 C-0.5025 1.130625 -0.255 0.57375 0 0 Z " fill="#000000" transform="translate(293,662)"/>
<path d="M0 0 C0.99 0 1.98 0 3 0 C2.42636089 3.87206399 0.65894107 6.18465063 -2 9 C-2.99 9 -3.98 9 -5 9 C-3.76067171 5.56801397 -2.49698489 2.69674368 0 0 Z " fill="#000000" transform="translate(418,656)"/>
<path d="M0 0 C0.99 0 1.98 0 3 0 C2.25 7.625 2.25 7.625 0 11 C-0.66 10.67 -1.32 10.34 -2 10 C-1.34 6.7 -0.68 3.4 0 0 Z " fill="#000000" transform="translate(442,602)"/>
<path d="M0 0 C0.99 0.33 1.98 0.66 3 1 C2.34 4.3 1.68 7.6 1 11 C0.01 11 -0.98 11 -2 11 C-1.34 7.37 -0.68 3.74 0 0 Z " fill="#000000" transform="translate(447,582)"/>
<path d="M0 0 C0.66 0.99 1.32 1.98 2 3 C0.73581754 3.69965443 -0.53665402 4.38434763 -1.8125 5.0625 C-2.52019531 5.44535156 -3.22789062 5.82820312 -3.95703125 6.22265625 C-6 7 -6 7 -9 6 C-9 5.34 -9 4.68 -9 4 C-6.03 2.68 -3.06 1.36 0 0 Z " fill="#000000" transform="translate(336,574)"/>
<path d="M0 0 C-0.24609375 1.890625 -0.24609375 1.890625 -1 4 C-2.84765625 5.046875 -2.84765625 5.046875 -5.0625 5.75 C-6.16271484 6.11351562 -6.16271484 6.11351562 -7.28515625 6.484375 C-8.13400391 6.73960937 -8.13400391 6.73960937 -9 7 C-9 5.68 -9 4.36 -9 3 C-2.25 0 -2.25 0 0 0 Z " fill="#000000" transform="translate(355,566)"/>
<path d="M0 0 C0.99 0 1.98 0 3 0 C2.67 3.63 2.34 7.26 2 11 C1.01 10.67 0.02 10.34 -1 10 C-0.67 6.7 -0.34 3.4 0 0 Z " fill="#000000" transform="translate(450,563)"/>
<path d="M0 0 C0.33 1.32 0.66 2.64 1 4 C-3.455 5.485 -3.455 5.485 -8 7 C-8.33 6.01 -8.66 5.02 -9 4 C-6.03 2.68 -3.06 1.36 0 0 Z " fill="#000000" transform="translate(389,550)"/>
<path d="M0 0 C0.99 0 1.98 0 3 0 C3.0270043 1.45823212 3.04639787 2.91660675 3.0625 4.375 C3.07410156 5.18710937 3.08570313 5.99921875 3.09765625 6.8359375 C3 9 3 9 2 11 C1.01 10.67 0.02 10.34 -1 10 C-0.67 6.7 -0.34 3.4 0 0 Z " fill="#000000" transform="translate(452,543)"/>
<path d="M0 0 C3.3 0.66 6.6 1.32 10 2 C10 2.99 10 3.98 10 5 C8.54119891 4.85892253 7.08296449 4.71197585 5.625 4.5625 C4.40683594 4.44068359 4.40683594 4.44068359 3.1640625 4.31640625 C1 4 1 4 -1 3 C-0.67 2.01 -0.34 1.02 0 0 Z " fill="#000000" transform="translate(245,489)"/>
<path d="M0 0 C-2.25740623 2.33524782 -4.2805761 4.18705073 -7 6 C-7.99 6 -8.98 6 -10 6 C-10 5.01 -10 4.02 -10 3 C-3.375 -1.125 -3.375 -1.125 0 0 Z " fill="#000000" transform="translate(532,489)"/>
<path d="M0 0 C3.3 0.99 6.6 1.98 10 3 C10 3.99 10 4.98 10 6 C6.28111761 5.49287967 3.26545761 4.88391785 0 3 C0 2.01 0 1.02 0 0 Z " fill="#000000" transform="translate(225,483)"/>
<path d="M0 0 C0.99 0.33 1.98 0.66 3 1 C3 4.3 3 7.6 3 11 C2.01 11 1.02 11 0 11 C0 7.37 0 3.74 0 0 Z " fill="#000000" transform="translate(452,443)"/>
<path d="M0 0 C0.99 0 1.98 0 3 0 C2.38479725 3.99881788 0.39731331 6.80358226 -2 10 C-2.66 10 -3.32 10 -4 10 C-3.43768609 6.06380262 -2.38314183 3.20807554 0 0 Z " fill="#000000" transform="translate(578,426)"/>
<path d="M0 0 C0.99 0.33 1.98 0.66 3 1 C2.40844669 2.31823302 1.80128537 3.62947051 1.1875 4.9375 C0.68283203 6.03384766 0.68283203 6.03384766 0.16796875 7.15234375 C-1 9 -1 9 -4 10 C-3.43454163 6.04179141 -2.19097652 3.3340947 0 0 Z " fill="#000000" transform="translate(392,391)"/>
<path d="M0 0 C0.99 0.33 1.98 0.66 3 1 C3.33 4.3 3.66 7.6 4 11 C3.01 11 2.02 11 1 11 C0.67 7.37 0.34 3.74 0 0 Z " fill="#000000" transform="translate(444,384)"/>
<path d="M0 0 C0.99 0 1.98 0 3 0 C3.33 3.63 3.66 7.26 4 11 C3.01 11 2.02 11 1 11 C0.67 7.37 0.34 3.74 0 0 Z " fill="#000000" transform="translate(112,327)"/>
<path d="M0 0 C0.99 0 1.98 0 3 0 C3.14285714 7.42857143 3.14285714 7.42857143 2 11 C1.01 11 0.02 11 -1 11 C-0.67 7.37 -0.34 3.74 0 0 Z " fill="#000000" transform="translate(113,228)"/>
<path d="M0 0 C0.99 0.33 1.98 0.66 3 1 C2.34 4.3 1.68 7.6 1 11 C0.01 11 -0.98 11 -2 11 C-1.34 7.37 -0.68 3.74 0 0 Z " fill="#000000" transform="translate(117,208)"/>
<path d="M0 0 C0.99 0.33 1.98 0.66 3 1 C2.01 4.3 1.02 7.6 0 11 C-0.99 10.67 -1.98 10.34 -3 10 C-2.39009109 6.44219804 -1.4216319 3.3171411 0 0 Z " fill="#000000" transform="translate(128,170)"/>
<path d="M0 0 C0.99 0 1.98 0 3 0 C2.39009109 3.55780196 1.4216319 6.6828589 0 10 C-0.99 10 -1.98 10 -3 10 C-2.49287967 6.28111761 -1.88391785 3.26545761 0 0 Z " fill="#000000" transform="translate(135,152)"/>
<path d="M0 0 C0 0.66 0 1.32 0 2 C-3.63 2.66 -7.26 3.32 -11 4 C-11 3.01 -11 2.02 -11 1 C-3.57142857 -1.42857143 -3.57142857 -1.42857143 0 0 Z " fill="#000000" transform="translate(285,29)"/>
<path d="M0 0 C3.63 0.33 7.26 0.66 11 1 C11 1.99 11 2.98 11 4 C3.57142857 4.14285714 3.57142857 4.14285714 0 3 C0 2.01 0 1.02 0 0 Z " fill="#000000" transform="translate(333,24)"/>
<path d="M0 0 C0.66 0.33 1.32 0.66 2 1 C2.6328125 3.28515625 2.6328125 3.28515625 3.125 6.0625 C3.29257812 6.98160156 3.46015625 7.90070312 3.6328125 8.84765625 C3.75398438 9.55792969 3.87515625 10.26820313 4 11 C3.01 11 2.02 11 1 11 C0.63890458 9.35567294 0.28629924 7.7094792 -0.0625 6.0625 C-0.25972656 5.14597656 -0.45695312 4.22945312 -0.66015625 3.28515625 C-0.77230469 2.53105469 -0.88445312 1.77695312 -1 1 C-0.67 0.67 -0.34 0.34 0 0 Z " fill="#000000" transform="translate(286,644)"/>
<path d="M0 0 C0.66 0 1.32 0 2 0 C1.43454163 3.95820859 0.19097652 6.6659053 -2 10 C-2.99 9.67 -3.98 9.34 -5 9 C-4.3566152 7.686298 -3.71021785 6.37407102 -3.0625 5.0625 C-2.70285156 4.33160156 -2.34320313 3.60070312 -1.97265625 2.84765625 C-1 1 -1 1 0 0 Z " fill="#000000" transform="translate(429,639)"/>
<path d="M0 0 C0.99 0 1.98 0 3 0 C2.49287967 3.71888239 1.88391785 6.73454239 0 10 C-0.99 10 -1.98 10 -3 10 C-2.01 6.7 -1.02 3.4 0 0 Z " fill="#000000" transform="translate(436,621)"/>
<path d="M0 0 C0.99 0 1.98 0 3 0 C2.01 3.3 1.02 6.6 0 10 C-0.99 10 -1.98 10 -3 10 C-2.69201674 8.51988629 -2.378482 7.04092675 -2.0625 5.5625 C-1.88847656 4.73878906 -1.71445312 3.91507813 -1.53515625 3.06640625 C-1 1 -1 1 0 0 Z " fill="#000000" transform="translate(288,606)"/>
<path d="M0 0 C0.66 0.33 1.32 0.66 2 1 C0.65117186 5.04648443 -1.34826069 5.95502599 -5 8 C-5.99 7.67 -6.98 7.34 -8 7 C-5.42215154 4.35247996 -3.08351902 2.05567935 0 0 Z " fill="#000000" transform="translate(301,591)"/>
<path d="M0 0 C0 0.99 0 1.98 0 3 C-6.625 6 -6.625 6 -10 6 C-10 5.01 -10 4.02 -10 3 C-8.70990357 2.49596232 -7.41786211 1.99690074 -6.125 1.5 C-5.04605469 1.08234375 -5.04605469 1.08234375 -3.9453125 0.65625 C-2 0 -2 0 0 0 Z " fill="#000000" transform="translate(408,543)"/>
<path d="M0 0 C0 0.99 0 1.98 0 3 C-4.95 4.485 -4.95 4.485 -10 6 C-10 5.01 -10 4.02 -10 3 C-3.375 0 -3.375 0 0 0 Z " fill="#000000" transform="translate(426,536)"/>
<path d="M0 0 C0.66 0.33 1.32 0.66 2 1 C1.67 1.99 1.34 2.98 1 4 C-1.06640625 4.94921875 -1.06640625 4.94921875 -3.5625 5.6875 C-4.38878906 5.93886719 -5.21507812 6.19023438 -6.06640625 6.44921875 C-6.70449219 6.63097656 -7.34257812 6.81273437 -8 7 C-7.71484375 5.11328125 -7.71484375 5.11328125 -7 3 C-3.5625 1.1875 -3.5625 1.1875 0 0 Z " fill="#000000" transform="translate(442,528)"/>
<path d="M0 0 C-0.1875 1.875 -0.1875 1.875 -1 4 C-4.29826907 5.78284814 -6.1774751 6 -10 6 C-9.67 5.01 -9.34 4.02 -9 3 C-2.88888889 0 -2.88888889 0 0 0 Z " fill="#000000" transform="translate(497,506)"/>
<path d="M0 0 C-0.33 0.66 -0.66 1.32 -1 2 C-3.28515625 2.6328125 -3.28515625 2.6328125 -6.0625 3.125 C-6.98160156 3.29257812 -7.90070313 3.46015625 -8.84765625 3.6328125 C-9.91306641 3.81457031 -9.91306641 3.81457031 -11 4 C-11 3.01 -11 2.02 -11 1 C-6.87831311 -0.62950412 -4.29299643 -1.26264601 0 0 Z " fill="#000000" transform="translate(296,489)"/>
<path d="M0 0 C0.99 0 1.98 0 3 0 C3.33 3.63 3.66 7.26 4 11 C3.01 11 2.02 11 1 11 C-0.28317892 7.15046324 -0.06643637 4.05261865 0 0 Z " fill="#000000" transform="translate(453,463)"/>
<path d="M0 0 C0.66 0.33 1.32 0.66 2 1 C0.64978174 5.41889613 -1.26115668 7.34345343 -5 10 C-5 4.69520066 -3.4637943 3.81017373 0 0 Z " fill="#000000" transform="translate(557,459)"/>
<path d="M0 0 C4.2742558 1.5830577 6.26531794 4.50568404 9 8 C5 8 5 8 2.25 5.6875 C0 3 0 3 0 0 Z " fill="#000000" transform="translate(160,436)"/>
<path d="M0 0 C0.99 0 1.98 0 3 0 C2.42647107 3.87132028 0.51295648 6.08172796 -2 9 C-2.99 8.67 -3.98 8.34 -5 8 C-4.24266726 6.6589523 -3.46867264 5.32730219 -2.6875 4 C-2.25824219 3.2575 -1.82898438 2.515 -1.38671875 1.75 C-0.70029297 0.88375 -0.70029297 0.88375 0 0 Z " fill="#000000" transform="translate(370,426)"/>
<path d="M0 0 C0.66 0.33 1.32 0.66 2 1 C2.4140625 3.28515625 2.4140625 3.28515625 2.625 6.0625 C2.69976562 6.98160156 2.77453125 7.90070313 2.8515625 8.84765625 C2.92503906 9.91306641 2.92503906 9.91306641 3 11 C2.01 11 1.02 11 0 11 C-0.19406478 9.35492782 -0.38007935 7.70890406 -0.5625 6.0625 C-0.66691406 5.14597656 -0.77132813 4.22945313 -0.87890625 3.28515625 C-0.91886719 2.53105469 -0.95882813 1.77695312 -1 1 C-0.67 0.67 -0.34 0.34 0 0 Z " fill="#000000" transform="translate(441,364)"/>
<path d="M0 0 C0.66 0 1.32 0 2 0 C1.44894091 3.9492568 0.61064629 7.34920174 -1 11 C-1.99 10.67 -2.98 10.34 -4 10 C-3.52449439 8.51965236 -3.04448784 7.04074979 -2.5625 5.5625 C-2.29566406 4.73878906 -2.02882813 3.91507812 -1.75390625 3.06640625 C-1 1 -1 1 0 0 Z " fill="#000000" transform="translate(613,354)"/>
<path d="M0 0 C0.99 0 1.98 0 3 0 C3.33 3.63 3.66 7.26 4 11 C3.01 11 2.02 11 1 11 C0.67 7.37 0.34 3.74 0 0 Z " fill="#000000" transform="translate(110,307)"/>
<path d="M0 0 C0.99 0 1.98 0 3 0 C3.14285714 7.42857143 3.14285714 7.42857143 2 11 C1.01 10.67 0.02 10.34 -1 10 C-0.67 6.7 -0.34 3.4 0 0 Z " fill="#000000" transform="translate(111,248)"/>
<path d="M0 0 C0.99 0.33 1.98 0.66 3 1 C2.01 4.3 1.02 7.6 0 11 C-0.99 10.67 -1.98 10.34 -3 10 C-2.01 6.7 -1.02 3.4 0 0 Z " fill="#000000" transform="translate(122,189)"/>
<path d="M0 0 C0.99 0 1.98 0 3 0 C2.29445932 3.66881155 0.72264494 6.70450534 -1 10 C-1.99 10 -2.98 10 -4 10 C-2.8905928 6.51329166 -1.73662334 3.22515763 0 0 Z " fill="#000000" transform="translate(144,134)"/>
<path d="M0 0 C0.66 0 1.32 0 2 0 C1.58578031 4.83256305 -0.46413986 6.82679218 -4 10 C-4.33 9.01 -4.66 8.02 -5 7 C-4.07421875 5.17578125 -4.07421875 5.17578125 -2.6875 3.3125 C-2.23761719 2.68988281 -1.78773438 2.06726563 -1.32421875 1.42578125 C-0.88722656 0.95527344 -0.45023438 0.48476562 0 0 Z " fill="#000000" transform="translate(155,117)"/>
<path d="M0 0 C3.71888239 0.50712033 6.73454239 1.11608215 10 3 C10 3.99 10 4.98 10 6 C6.7 5.01 3.4 4.02 0 3 C0 2.01 0 1.02 0 0 Z " fill="#000000" transform="translate(372,33)"/>
<path d="M0 0 C0 0.99 0 1.98 0 3 C-3.3 3.33 -6.6 3.66 -10 4 C-10 3.01 -10 2.02 -10 1 C-6.59437148 0.22157062 -3.49234244 -0.09978121 0 0 Z " fill="#000000" transform="translate(372,689)"/>
<path d="M0 0 C0 0.99 0 1.98 0 3 C-3.72965139 5.03435531 -5.66905042 6 -10 6 C-9.67 5.01 -9.34 4.02 -9 3 C-2.88888889 0 -2.88888889 0 0 0 Z " fill="#000000" transform="translate(391,682)"/>
<path d="M0 0 C0.99 0.33 1.98 0.66 3 1 C1.02 3.97 -0.96 6.94 -3 10 C-3.66 9.67 -4.32 9.34 -5 9 C-3.7508258 5.54074837 -2.32472205 2.85306797 0 0 Z " fill="#000000" transform="translate(568,443)"/>
<path d="M0 0 C0.99 0 1.98 0 3 0 C3.33 3.3 3.66 6.6 4 10 C2.68 9.67 1.36 9.34 0 9 C0 6.03 0 3.06 0 0 Z " fill="#000000" transform="translate(450,424)"/>
<path d="M0 0 C0.99 0.66 1.98 1.32 3 2 C1.35 4.97 -0.3 7.94 -2 11 C-2.66 10.67 -3.32 10.34 -4 10 C-3.29445932 6.33118845 -1.72264494 3.29549466 0 0 Z " fill="#000000" transform="translate(588,408)"/>
<path d="M0 0 C0.66 0.33 1.32 0.66 2 1 C0.80100302 4.0831351 -0.47700477 7.06279492 -2 10 C-2.99 10 -3.98 10 -5 10 C-3.84414715 6.08788267 -2.64465038 3.1254959 0 0 Z " fill="#000000" transform="translate(402,373)"/>
<path d="M0 0 C0.66 0.33 1.32 0.66 2 1 C0.68775452 4.93673644 -0.91910327 7.22719294 -4 10 C-4.33 9.01 -4.66 8.02 -5 7 C-4.00390625 5.17578125 -4.00390625 5.17578125 -2.5625 3.3125 C-2.08941406 2.68988281 -1.61632812 2.06726563 -1.12890625 1.42578125 C-0.75636719 0.95527344 -0.38382812 0.48476563 0 0 Z " fill="#000000" transform="translate(423,342)"/>
<path d="M0 0 C2.35953094 2.35953094 2.49141413 3.77895617 3 7 C-1 7 -1 7 -4 6 C-2.68 4.02 -1.36 2.04 0 0 Z " fill="#000000" transform="translate(432,329)"/>
<path d="M0 0 C0.99 0 1.98 0 3 0 C3 3.3 3 6.6 3 10 C2.01 10 1.02 10 0 10 C0 6.7 0 3.4 0 0 Z " fill="#000000" transform="translate(110,288)"/>
<path d="M0 0 C0.99 0 1.98 0 3 0 C3 3.3 3 6.6 3 10 C2.01 10 1.02 10 0 10 C0 6.7 0 3.4 0 0 Z " fill="#000000" transform="translate(110,268)"/>
<path d="M0 0 C-0.47205119 4.24846075 -2.88877522 6.26819288 -6 9 C-6.66 9 -7.32 9 -8 9 C-7.53918323 4.85264908 -4.48412936 0 0 0 Z " fill="#000000" transform="translate(182,86)"/>
<path d="M0 0 C4.95 0.99 4.95 0.99 10 2 C10 2.99 10 3.98 10 5 C6.7 4.34 3.4 3.68 0 3 C0 2.01 0 1.02 0 0 Z " fill="#000000" transform="translate(353,27)"/>
<path d="M0 0 C0 0.66 0 1.32 0 2 C-3.63 2.33 -7.26 2.66 -11 3 C-11 2.01 -11 1.02 -11 0 C-3.57142857 -1.28571429 -3.57142857 -1.28571429 0 0 Z " fill="#000000" transform="translate(276,492)"/>
<path d="M0 0 C0.99 0.66 1.98 1.32 3 2 C1.35 4.97 -0.3 7.94 -2 11 C-2.66 10.67 -3.32 10.34 -4 10 C-2.8905928 6.51329166 -1.73662334 3.22515763 0 0 Z " fill="#000000" transform="translate(597,390)"/>
<path d="M0 0 C0.556875 0.226875 1.11375 0.45375 1.6875 0.6875 C-0.43919835 3.02686818 -2.37474856 4.49403848 -5.3125 5.6875 C-6.3025 5.6875 -7.2925 5.6875 -8.3125 5.6875 C-7.3125 2.6875 -7.3125 2.6875 -5 0.9375 C-2.3125 -0.3125 -2.3125 -0.3125 0 0 Z " fill="#000000" transform="translate(513.3125,498.3125)"/>
<path d="M0 0 C0.99 0.33 1.98 0.66 3 1 C1.35 3.64 -0.3 6.28 -2 9 C-2.99 8.67 -3.98 8.34 -5 8 C-3.35 5.36 -1.7 2.72 0 0 Z " fill="#000000" transform="translate(412,358)"/>
<path d="M0 0 C0.99 0 1.98 0 3 0 C2.67 3.63 2.34 7.26 2 11 C1.34 11 0.68 11 0 11 C0 7.37 0 3.74 0 0 Z " fill="#000000" transform="translate(284,625)"/>
<path d="M0 0 C0.99 0 1.98 0 3 0 C2.34 1.98 1.68 3.96 1 6 C0.01 5.67 -0.98 5.34 -2 5 C-1.34 3.35 -0.68 1.7 0 0 Z " fill="#000000" transform="translate(618,340)"/>
<path d="M0 0 C0.99 0.33 1.98 0.66 3 1 C2.67 1.99 2.34 2.98 2 4 C1.01 3.01 0.02 2.02 -1 1 C-0.67 0.67 -0.34 0.34 0 0 Z " fill="#000000" transform="translate(236,746)"/>
<path d="M0 0 C0.99 0.33 1.98 0.66 3 1 C2.67 1.99 2.34 2.98 2 4 C1.01 3.01 0.02 2.02 -1 1 C-0.67 0.67 -0.34 0.34 0 0 Z " fill="#000000" transform="translate(546,359)"/>
<path d="M0 0 C0.99 0.33 1.98 0.66 3 1 C2.67 1.99 2.34 2.98 2 4 C1.01 3.01 0.02 2.02 -1 1 C-0.67 0.67 -0.34 0.34 0 0 Z " fill="#000000" transform="translate(10,322)"/>
<path d="M0 0 C0.99 0.33 1.98 0.66 3 1 C2.67 1.99 2.34 2.98 2 4 C1.01 3.01 0.02 2.02 -1 1 C-0.67 0.67 -0.34 0.34 0 0 Z " fill="#000000" transform="translate(505,317)"/>
</svg>
