<?xml version="1.0" encoding="UTF-8"?>
<svg version="1.1" xmlns="http://www.w3.org/2000/svg" width="696" height="713">
<path d="M0 0 C1.48992462 0.00323273 1.48992462 0.00323273 3.00994873 0.00653076 C17.83835149 0.05812908 32.34065104 0.48242146 46.9375 3.3125 C48.0207959 3.51649414 49.1040918 3.72048828 50.22021484 3.93066406 C77.48215125 9.18791327 101.31892 17.2667659 121.9375 36.3125 C122.65035156 36.94414063 123.36320312 37.57578125 124.09765625 38.2265625 C162.47657434 74.00485575 180.71138776 135.25263505 183.06347656 186.03222656 C183.77600893 211.13320869 180.94733887 240.05888376 164.875 260.625 C153.17907002 272.78980913 134.34909147 280.93123965 117.625 281.6484375 C88.98672614 282.1040464 62.36318117 272.67733621 40.9375 253.3125 C40.19113281 252.68214844 39.44476563 252.05179688 38.67578125 251.40234375 C37.69158203 250.52255859 37.69158203 250.52255859 36.6875 249.625 C36.12546875 249.12613281 35.5634375 248.62726563 34.984375 248.11328125 C33.9375 246.3125 33.9375 246.3125 34.03125 243.51953125 C35.08386285 239.79455214 36.66873793 236.98885903 38.6875 233.6875 C42.39030246 227.43286675 45.52513828 221.19321354 47.9375 214.3125 C48.2571875 213.41402344 48.576875 212.51554688 48.90625 211.58984375 C56.28622356 186.20410137 50.24508193 154.24697449 38.28125 131.109375 C33.76942836 123.43927822 27.92052009 117.55922405 19.29296875 114.7890625 C-4.14132952 110.04779486 -31.9404109 123.77977944 -51.0625 136.3125 C-55.93839291 139.72511607 -60.53279538 143.45699041 -65.0625 147.3125 C-66.0525 148.14910156 -67.0425 148.98570312 -68.0625 149.84765625 C-74.48041391 155.47224469 -79.86887325 161.55520069 -85.0625 168.3125 C-85.80242187 169.24835938 -86.54234375 170.18421875 -87.3046875 171.1484375 C-93.25195289 178.82431982 -98.321498 186.86058474 -103.0625 195.3125 C-103.73321533 196.50020996 -103.73321533 196.50020996 -104.41748047 197.71191406 C-116.56776611 219.45979917 -128.0061191 243.7787834 -133.0625 268.3125 C-133.2677832 269.30008301 -133.47306641 270.28766602 -133.68457031 271.30517578 C-139.7915513 301.45112949 -142.29012175 331.96761228 -142.25 362.6875 C-142.24909363 363.98693542 -142.24909363 363.98693542 -142.24816895 365.31262207 C-142.13865931 423.62249627 -133.0356295 493.53681944 -93.0625 539.3125 C-92.485 540.0446875 -91.9075 540.776875 -91.3125 541.53125 C-71.11762931 566.25255722 -33.85983047 578.5919217 -4.0625 586.3125 C-2.7940625 586.65152344 -1.525625 586.99054687 -0.21875 587.33984375 C39.34332846 596.35767046 75.30029379 580.82479016 108.26977539 560.23828125 C131.30789959 545.57035276 154.38740254 530.35932779 174.9375 512.3125 C175.68257812 511.67828125 176.42765625 511.0440625 177.1953125 510.390625 C188.36887174 500.8383273 196.47157661 490.74651681 203.74609375 478.00390625 C205.96991422 474.19087559 208.36932167 470.49628991 210.76293945 466.78833008 C218.13167364 455.37084084 224.99123965 443.74175723 231.54345703 431.83789062 C232.7632713 429.62812551 234.0005649 427.42969575 235.24609375 425.234375 C240.02551694 416.69411278 243.66835203 407.87015565 247.17578125 398.74609375 C250.97045241 389.07813527 255.20825423 384.78229085 264.6875 380.5 C275.37893175 376.59351532 285.55113175 377.87548348 295.9375 382.3125 C303.50923253 386.64060001 309.19561565 392.0192757 313.9375 399.3125 C314.370625 399.95960938 314.80375 400.60671875 315.25 401.2734375 C321.14217339 411.29831584 317.29015351 425.24405231 315.8125 436.1875 C315.70079468 437.02197662 315.58908936 437.85645325 315.47399902 438.71621704 C306.67190395 503.88820195 279.40386341 557.98703431 235.9375 607.3125 C235.23882813 608.12203125 234.54015625 608.9315625 233.8203125 609.765625 C229.04192436 615.21118431 223.98362893 620.36668318 218.875 625.5 C218.21411377 626.16555908 217.55322754 626.83111816 216.87231445 627.5168457 C212.99082518 631.38582801 209.00546113 635.07797852 204.85571289 638.6574707 C203.07882316 640.19056673 201.32552842 641.74597862 199.578125 643.3125 C185.03926548 656.23284237 169.41389392 667.96886607 152.9375 678.3125 C152.29312988 678.71774902 151.64875977 679.12299805 150.98486328 679.54052734 C117.31109145 700.49981508 80.19563629 713.35718398 40.3359375 713.515625 C39.15336365 713.52268463 37.97078979 713.52974426 36.75238037 713.53701782 C-37.17794081 713.87770218 -113.82792553 706.41582188 -174.0625 659.3125 C-174.93519531 658.63960937 -175.80789062 657.96671875 -176.70703125 657.2734375 C-179.19109785 655.32310411 -181.62926057 653.32582754 -184.0625 651.3125 C-185.48755859 650.16587891 -185.48755859 650.16587891 -186.94140625 648.99609375 C-195.20798125 642.2230167 -202.8073852 634.78258625 -210.375 627.25 C-211.14254608 626.49021851 -211.14254608 626.49021851 -211.92559814 625.71508789 C-218.77890577 618.91646603 -225.03286329 611.8650428 -231.0625 604.3125 C-232.00897457 603.19892081 -232.96206042 602.0908753 -233.92578125 600.9921875 C-281.74332082 546.23462226 -299.4498487 470.24302443 -305.0625 399.3125 C-305.1567627 398.19818604 -305.25102539 397.08387207 -305.34814453 395.93579102 C-306.37285494 382.18652365 -306.30526044 368.40550133 -306.3125 354.625 C-306.31308914 353.96244453 -306.31367828 353.29988907 -306.31428528 352.61725616 C-306.32820947 330.39214816 -305.73054844 308.39152629 -303.0625 286.3125 C-302.91796387 285.11206055 -302.77342773 283.91162109 -302.62451172 282.67480469 C-301.10633919 270.64038722 -298.88295247 258.81044259 -296.125 247 C-295.89643311 246.01612305 -295.66786621 245.03224609 -295.43237305 244.01855469 C-292.1704306 230.77329545 -286.49767729 218.52909893 -280.6875 206.25 C-280.34001709 205.51361298 -279.99253418 204.77722595 -279.63452148 204.01852417 C-261.1592663 164.95600108 -240.01783917 124.5123412 -210.2890625 92.75 C-208.79703546 91.11662303 -207.36236117 89.42908566 -205.98828125 87.6953125 C-204.29770928 85.60352973 -202.66513157 83.92320214 -200.625 82.1875 C-199.57119141 81.2903125 -199.57119141 81.2903125 -198.49609375 80.375 C-197.69300781 79.694375 -196.88992187 79.01375 -196.0625 78.3125 C-195.14597656 77.508125 -194.22945313 76.70375 -193.28515625 75.875 C-140.96414222 30.23470378 -69.77194184 -0.27271185 0 0 Z M-203.8125 93.75 C-209.41383867 99.51854281 -214.23255857 105.90187953 -219.0625 112.3125 C-219.55202148 112.9523584 -220.04154297 113.5922168 -220.54589844 114.25146484 C-270.07380234 179.21476403 -299.9680854 253.54864268 -300.265625 335.546875 C-300.27263931 336.85195007 -300.27965363 338.15702515 -300.28688049 339.50164795 C-300.30626031 343.6886037 -300.31131456 347.87550391 -300.3125 352.0625 C-300.31294186 352.77654999 -300.31338371 353.49059998 -300.31383896 354.22628784 C-300.32102461 376.3804693 -299.98405688 398.3188842 -297.0625 420.3125 C-296.9316803 421.31144287 -296.9316803 421.31144287 -296.79821777 422.33056641 C-289.58351306 477.10660023 -275.82659164 537.04749991 -241.39746094 581.58056641 C-240.11551456 583.24372069 -238.85571913 584.92130112 -237.6015625 586.60546875 C-223.02973105 606.05523405 -206.30592837 624.26355438 -188.0625 640.3125 C-187.5571875 640.76254395 -187.051875 641.21258789 -186.53125 641.67626953 C-173.50295855 653.23804731 -159.24335861 663.75801928 -144.0625 672.3125 C-143.32225586 672.73241211 -142.58201172 673.15232422 -141.81933594 673.58496094 C-76.88460959 710.02185039 20.61901929 720.16886399 92.2890625 700.04296875 C106.83203742 695.72886818 120.57290181 689.42690296 133.9375 682.3125 C134.57042969 681.9820166 135.20335937 681.6515332 135.85546875 681.31103516 C162.72488158 667.21549379 186.28293244 647.2795838 208.41357422 626.71875 C210.00644453 625.24887929 211.61296273 623.79516723 213.22265625 622.34375 C224.69519499 611.96295555 234.59252092 600.61692316 243.9375 588.3125 C244.46859375 587.61656738 244.9996875 586.92063477 245.546875 586.20361328 C285.05670467 534.22003189 305.29718639 482.97171535 311.9375 418.3125 C312.09025391 416.96865234 312.09025391 416.96865234 312.24609375 415.59765625 C312.71447872 407.52156387 309.22061526 402.53126134 304.40234375 396.33984375 C298.53624334 389.78191823 289.5225776 385.02852448 280.74609375 384.07421875 C271.57874182 383.78726704 263.12388584 386.52978237 255.9375 392.3125 C254.31069099 395.43413959 254.31069099 395.43413959 253.25 399.125 C246.41942205 419.09559984 235.81960471 437.32274288 224.9375 455.3125 C224.43154297 456.15216309 223.92558594 456.99182617 223.40429688 457.85693359 C220.28259783 463.03000486 217.11902121 468.17606817 213.9375 473.3125 C213.49921875 474.0240625 213.0609375 474.735625 212.609375 475.46875 C179.98222505 528.43988756 111.50428344 577.48321424 51.07861328 593.28564453 C14.17296876 601.86594844 -23.0812159 589.27215768 -56.0625 573.3125 C-57.36816808 572.69853457 -58.67414094 572.08521672 -59.98046875 571.47265625 C-73.01467743 565.20429635 -83.81905513 557.41002685 -94.0625 547.3125 C-94.78179687 546.60609375 -95.50109375 545.8996875 -96.2421875 545.171875 C-106.67945256 534.18969249 -113.76866454 519.96276651 -120.0625 506.3125 C-120.4219873 505.53310059 -120.78147461 504.75370117 -121.15185547 503.95068359 C-154.85979154 429.96871023 -160.97702665 323.51066682 -132.90625 246.109375 C-123.42827614 221.06959272 -112.51225751 196.27872534 -97.0625 174.3125 C-96.67497559 173.75675293 -96.28745117 173.20100586 -95.88818359 172.62841797 C-90.2330607 164.59064251 -83.8199707 157.41494669 -77.0625 150.3125 C-76.43085938 149.61640625 -75.79921875 148.9203125 -75.1484375 148.203125 C-54.40887158 126.09310319 -20.17088212 108.87164031 10.3125 107.8125 C21.26144 108.16487968 30.23802081 112.34227694 37.875 120.125 C55.7235887 141.0051238 58.83609605 175.21324745 56.9375 201.3125 C55.16275 215.11611113 49.15450171 227.61987784 42.1953125 239.5 C40.79968294 242.11580178 40.79968294 242.11580178 40.921875 244.39453125 C48.32209619 258.36956434 71.65400103 267.44597917 85.91064453 271.93359375 C107.49089211 278.38395347 127.10229028 276.87840448 146.9375 266.3125 C162.37423326 257.34988816 168.84896211 244.20353748 173.38525391 227.46435547 C186.75785137 175.35733777 168.50015301 118.57473414 142.9375 73.3125 C124.93169022 43.02590364 100.84347964 22.63852495 66.45263672 13.6640625 C-31.05171385 -11.11745811 -129.09880293 25.5440616 -203.8125 93.75 Z " fill="#000000" transform="translate(377.0625,-0.31250000000000006)"/>
<path d="M0 0 C6.517904 4.68956663 12.55343845 10.81246164 14 19 C14.7992898 30.25557271 13.99078008 38.31915226 6.75 47.25 C1.33164802 53.0878373 -4.3711544 56.67129269 -12.35546875 57.23828125 C-23.57071698 57.45549809 -30.8402179 55.69919895 -39.20703125 47.93359375 C-46.38318634 40.19460297 -47.48473506 33.10670258 -47.2734375 22.765625 C-46.64352117 14.09077723 -42.28194806 7.82507911 -36 2 C-25.82502277 -5.66451556 -10.93235165 -7.28107507 0 0 Z " fill="#000000" transform="translate(498,182)"/>
<path d="M0 0 C0.99 0.33 1.98 0.66 3 1 C2.40237527 4.59493034 1.42687625 7.54534902 -0.15234375 10.82421875 C-0.59392822 11.75637207 -1.0355127 12.68852539 -1.49047852 13.64892578 C-2.20675415 15.15302002 -2.20675415 15.15302002 -2.9375 16.6875 C-36.23936711 88.16123144 -54.84660851 171.06196834 -53 250 C-52.98211426 250.81130371 -52.96422852 251.62260742 -52.94580078 252.45849609 C-51.00892338 329.0994625 -28.14397722 404.69253412 23 463 C23.56460938 463.67546875 24.12921875 464.3509375 24.7109375 465.046875 C27.57801325 468.45243706 30.61979932 471.66833958 33.76171875 474.8203125 C34.44524414 475.50625488 35.12876953 476.19219727 35.83300781 476.89892578 C38.88024175 479.94121062 41.9375543 482.97302665 45 486 C45.33 483.03 45.66 480.06 46 477 C47.32 477.33 48.64 477.66 50 478 C50 483.28 50 488.56 50 494 C46.93466836 495.53266582 43.73245728 495.10276471 40.375 495.0625 C39.66859375 495.05798828 38.9621875 495.05347656 38.234375 495.04882812 C36.48954725 495.03703875 34.744763 495.01910324 33 495 C33.33 493.68 33.66 492.36 34 491 C36.64 490.67 39.28 490.34 42 490 C41.44127197 489.45174561 40.88254395 488.90349121 40.30688477 488.33862305 C20.27614628 468.63452887 20.27614628 468.63452887 13 459 C11.99257336 457.7187231 10.9832994 456.43889756 9.97265625 455.16015625 C-33.69884752 399.5196166 -56.92640081 328.57443075 -57.203125 257.94921875 C-57.21013931 256.74431793 -57.21715363 255.53941711 -57.22438049 254.29800415 C-57.24179423 250.42779765 -57.24823357 246.55774425 -57.25 242.6875 C-57.25066278 241.69748301 -57.25066278 241.69748301 -57.25133896 240.68746567 C-57.25850341 220.27571322 -56.8338862 200.23885659 -54 180 C-53.83371094 178.74574219 -53.66742188 177.49148438 -53.49609375 176.19921875 C-34.41208237 34.41208237 -34.41208237 34.41208237 0 0 Z " fill="#000000" transform="translate(84,141)"/>
<path d="M0 0 C0 4.95 0 9.9 0 15 C-0.99 15 -1.98 15 -3 15 C-3 11.37 -3 7.74 -3 4 C-3.99 4.33 -4.98 4.66 -6 5 C-5.625 3.0625 -5.625 3.0625 -5 1 C-3 0 -3 0 0 0 Z " fill="#000000" transform="translate(7,355)"/>
<path d="M0 0 C0 0.66 0 1.32 0 2 C-1.26418246 2.69965443 -2.53665402 3.38434763 -3.8125 4.0625 C-4.52019531 4.44535156 -5.22789062 4.82820312 -5.95703125 5.22265625 C-8 6 -8 6 -11 5 C-11 4.34 -11 3.68 -11 3 C-9.73581754 2.30034557 -8.46334598 1.61565237 -7.1875 0.9375 C-6.47980469 0.55464844 -5.77210938 0.17179688 -5.04296875 -0.22265625 C-3 -1 -3 -1 0 0 Z " fill="#000000" transform="translate(503,632)"/>
<path d="M0 0 C1.17825358 0.90172468 2.34231577 1.82201502 3.5 2.75 C4.1496875 3.26046875 4.799375 3.7709375 5.46875 4.296875 C7 6 7 6 7 10 C3.21282653 8.51218185 1.22592999 6.38011591 -1 3 C-0.67 2.01 -0.34 1.02 0 0 Z " fill="#000000" transform="translate(216,598)"/>
<path d="M0 0 C0.99 0.33 1.98 0.66 3 1 C1.47291037 4.43595166 -0.59927045 7.11912454 -3 10 C-3.99 9.67 -4.98 9.34 -6 9 C-4.47291037 5.56404834 -2.40072955 2.88087546 0 0 Z " fill="#000000" transform="translate(576,568)"/>
<path d="M0 0 C1.34173403 0.92543709 2.67320159 1.86577405 4 2.8125 C5.11375 3.59560547 5.11375 3.59560547 6.25 4.39453125 C7.11625 5.18923828 7.11625 5.18923828 8 6 C8 6.99 8 7.98 8 9 C4.06326356 7.68775452 1.77280706 6.08089673 -1 3 C-0.67 2.01 -0.34 1.02 0 0 Z " fill="#000000" transform="translate(230,612)"/>
<path d="M0 0 C0.66 0.33 1.32 0.66 2 1 C0.50164772 5.66154042 -2.88463591 6.86610751 -7 9 C-7 7.68 -7 6.36 -7 5 C-5.46875 3.515625 -5.46875 3.515625 -3.5 2.25 C-2.8503125 1.82203125 -2.200625 1.3940625 -1.53125 0.953125 C-1.0259375 0.63859375 -0.520625 0.3240625 0 0 Z " fill="#000000" transform="translate(534,609)"/>
<path d="M0 0 C0.99 0 1.98 0 3 0 C2.71758359 1.46015291 2.42373386 2.91809793 2.125 4.375 C1.96257812 5.18710938 1.80015625 5.99921875 1.6328125 6.8359375 C1 9 1 9 -1 11 C-1.66 10.67 -2.32 10.34 -3 10 C-2.01 6.7 -1.02 3.4 0 0 Z " fill="#000000" transform="translate(160,220)"/>
<path d="M0 0 C0.99 0.33 1.98 0.66 3 1 C1.35 4.3 -0.3 7.6 -2 11 C-2.66 10.67 -3.32 10.34 -4 10 C-3.43454163 6.04179141 -2.19097652 3.3340947 0 0 Z " fill="#000000" transform="translate(176,183)"/>
<path d="M0 0 C0.99 0.33 1.98 0.66 3 1 C1.6062718 5.43458973 -0.60582235 7.87378374 -4 11 C-5 8 -5 8 -4.00390625 5.95703125 C-3.52824219 5.24933594 -3.05257812 4.54164063 -2.5625 3.8125 C-2.08941406 3.09707031 -1.61632812 2.38164062 -1.12890625 1.64453125 C-0.75636719 1.10183594 -0.38382813 0.55914062 0 0 Z " fill="#000000" transform="translate(196,148)"/>
<path d="M0 0 C3.13506611 0.33589994 4.025249 1.02665172 6.25 3.375 C8 6 8 6 8 9 C7.01 9 6.02 9 5 9 C0 3.76744186 0 3.76744186 0 0 Z " fill="#000000" transform="translate(483,80)"/>
<path d="M0 0 C-0.125 1.75 -0.125 1.75 -1 4 C-3.875 6.3125 -3.875 6.3125 -7 8 C-7.99 7.67 -8.98 7.34 -10 7 C-10 6.34 -10 5.68 -10 5 C-8.3203125 3.7109375 -8.3203125 3.7109375 -6.125 2.375 C-5.40570313 1.92898437 -4.68640625 1.48296875 -3.9453125 1.0234375 C-2 0 -2 0 0 0 Z " fill="#000000" transform="translate(271,80)"/>
<path d="M0 0 C0.515625 0.2475 1.03125 0.495 1.5625 0.75 C-1.45637244 4.23331435 -4.00659529 5.54157144 -8.4375 6.75 C-8.7675 5.76 -9.0975 4.77 -9.4375 3.75 C-3.0375 -0.31153846 -3.0375 -0.31153846 0 0 Z " fill="#000000" transform="translate(287.4375,70.25)"/>
<path d="M0 0 C0.66 0.33 1.32 0.66 2 1 C2 1.66 2 2.32 2 3 C0.73581754 3.69965443 -0.53665402 4.38434763 -1.8125 5.0625 C-2.52019531 5.44535156 -3.22789062 5.82820313 -3.95703125 6.22265625 C-6 7 -6 7 -9 6 C-9 5.34 -9 4.68 -9 4 C-7.54618103 3.30300448 -6.08677047 2.61766134 -4.625 1.9375 C-3.40683594 1.36322266 -3.40683594 1.36322266 -2.1640625 0.77734375 C-1.44992187 0.52082031 -0.73578125 0.26429687 0 0 Z " fill="#000000" transform="translate(305,60)"/>
<path d="M0 0 C-0.33 1.32 -0.66 2.64 -1 4 C-4.3 4.33 -7.6 4.66 -11 5 C-11 4.01 -11 3.02 -11 2 C-9.5422647 1.664061 -8.08378894 1.33133376 -6.625 1 C-5.40683594 0.7215625 -5.40683594 0.7215625 -4.1640625 0.4375 C-2 0 -2 0 0 0 Z " fill="#000000" transform="translate(364,41)"/>
<path d="M0 0 C3.63 0 7.26 0 11 0 C11 0.99 11 1.98 11 3 C7.37 3 3.74 3 0 3 C0 2.01 0 1.02 0 0 Z " fill="#000000" transform="translate(377,660)"/>
<path d="M0 0 C-0.33 1.32 -0.66 2.64 -1 4 C-4.3 4.33 -7.6 4.66 -11 5 C-10.67 4.01 -10.34 3.02 -10 2 C-8.22265625 1.26953125 -8.22265625 1.26953125 -6.0625 0.8125 C-4.99708984 0.57466797 -4.99708984 0.57466797 -3.91015625 0.33203125 C-2 0 -2 0 0 0 Z " fill="#000000" transform="translate(447,652)"/>
<path d="M0 0 C0 0.99 0 1.98 0 3 C-4.12168689 4.62950412 -6.70700357 5.26264601 -11 4 C-10 2 -10 2 -7.1875 0.875 C-4 0 -4 0 0 0 Z " fill="#000000" transform="translate(466,647)"/>
<path d="M0 0 C-0.33589994 3.13506611 -1.02665172 4.025249 -3.375 6.25 C-6 8 -6 8 -9 8 C-7.13554727 3.64961029 -5.02378599 0 0 0 Z " fill="#000000" transform="translate(551,597)"/>
<path d="M0 0 C1.890625 0.21484375 1.890625 0.21484375 4 1 C5.046875 3.06640625 5.046875 3.06640625 5.75 5.5625 C5.99234375 6.38878906 6.2346875 7.21507812 6.484375 8.06640625 C6.65453125 8.70449219 6.8246875 9.34257813 7 10 C5.109375 9.78515625 5.109375 9.78515625 3 9 C1.953125 6.93359375 1.953125 6.93359375 1.25 4.4375 C1.00765625 3.61121094 0.7653125 2.78492188 0.515625 1.93359375 C0.34546875 1.29550781 0.1753125 0.65742187 0 0 Z " fill="#000000" transform="translate(163,514)"/>
<path d="M0 0 C0.99 0.33 1.98 0.66 3 1 C1.68 3.97 0.36 6.94 -1 10 C-1.99 10 -2.98 10 -4 10 C-3.43454163 6.04179141 -2.19097652 3.3340947 0 0 Z " fill="#000000" transform="translate(619,502)"/>
<path d="M0 0 C0.99 0 1.98 0 3 0 C3.66 3.3 4.32 6.6 5 10 C4.01 10.33 3.02 10.66 2 11 C0.80712589 7.12315913 0 4.08378077 0 0 Z " fill="#000000" transform="translate(151,476)"/>
<path d="M0 0 C0.66 0 1.32 0 2 0 C3.19287411 3.87684087 4 6.91621923 4 11 C3.01 11 2.02 11 1 11 C0.63890458 9.35567294 0.28629924 7.7094792 -0.0625 6.0625 C-0.25972656 5.14597656 -0.45695313 4.22945313 -0.66015625 3.28515625 C-0.77230469 2.53105469 -0.88445312 1.77695312 -1 1 C-0.67 0.67 -0.34 0.34 0 0 Z " fill="#000000" transform="translate(147,456)"/>
<path d="M0 0 C0.99 0 1.98 0 3 0 C3 3.63 3 7.26 3 11 C2.01 11 1.02 11 0 11 C0 7.37 0 3.74 0 0 Z " fill="#000000" transform="translate(138,397)"/>
<path d="M0 0 C0.99 0 1.98 0 3 0 C3 3.63 3 7.26 3 11 C2.01 11 1.02 11 0 11 C0 7.37 0 3.74 0 0 Z " fill="#000000" transform="translate(137,337)"/>
<path d="M0 0 C0.99 0 1.98 0 3 0 C2.34 3.3 1.68 6.6 1 10 C-0.32 10 -1.64 10 -3 10 C-2.01 6.7 -1.02 3.4 0 0 Z " fill="#000000" transform="translate(511,174)"/>
<path d="M0 0 C0.99 0 1.98 0 3 0 C3 3.63 3 7.26 3 11 C2.01 11 1.02 11 0 11 C0 7.37 0 3.74 0 0 Z " fill="#000000" transform="translate(512,154)"/>
<path d="M0 0 C0.99 0.99 1.98 1.98 3 3 C1.02 5.31 -0.96 7.62 -3 10 C-3.99 9.67 -4.98 9.34 -6 9 C-4.02 6.03 -2.04 3.06 0 0 Z " fill="#000000" transform="translate(208,132)"/>
<path d="M0 0 C0.99 0.33 1.98 0.66 3 1 C1.4169423 5.2742558 -1.50568404 7.26531794 -5 10 C-5 4.69520066 -3.4637943 3.81017373 0 0 Z " fill="#000000" transform="translate(221,117)"/>
<path d="M0 0 C0.66 0 1.32 0 2 0 C2.50615298 1.26839526 3.00469099 2.53983102 3.5 3.8125 C3.91765625 4.87404297 3.91765625 4.87404297 4.34375 5.95703125 C5 8 5 8 5 11 C4.01 11 3.02 11 2 11 C1.01 7.7 0.02 4.4 -1 1 C-0.67 0.67 -0.34 0.34 0 0 Z " fill="#000000" transform="translate(505,114)"/>
<path d="M0 0 C0.66 0 1.32 0 2 0 C6.06153846 6.4 6.06153846 6.4 5.75 9.4375 C5.5025 9.953125 5.255 10.46875 5 11 C2.38114512 8.63055987 0.58133449 6.16266898 -1 3 C-0.67 2.01 -0.34 1.02 0 0 Z " fill="#000000" transform="translate(496,96)"/>
<path d="M0 0 C3.3 1.65 6.6 3.3 10 5 C9.67 5.99 9.34 6.98 9 8 C5.00499382 6.6302836 2.19990508 4.74277578 -1 2 C-0.67 1.34 -0.34 0.68 0 0 Z " fill="#000000" transform="translate(452,54)"/>
<path d="M0 0 C-0.21484375 1.890625 -0.21484375 1.890625 -1 4 C-3.06640625 5.046875 -3.06640625 5.046875 -5.5625 5.75 C-6.80193359 6.11351562 -6.80193359 6.11351562 -8.06640625 6.484375 C-9.02353516 6.73960938 -9.02353516 6.73960938 -10 7 C-10.33 6.01 -10.66 5.02 -11 4 C-9.5437455 3.32880451 -8.08492133 2.66318193 -6.625 2 C-5.81289063 1.62875 -5.00078125 1.2575 -4.1640625 0.875 C-2 0 -2 0 0 0 Z " fill="#000000" transform="translate(325,52)"/>
<path d="M0 0 C1.64846769 0.44876616 3.29373455 0.90930488 4.9375 1.375 C5.85402344 1.63023438 6.77054687 1.88546875 7.71484375 2.1484375 C10 3 10 3 11 5 C10.34 5.66 9.68 6.32 9 7 C4.545 5.02 4.545 5.02 0 3 C0 2.01 0 1.02 0 0 Z " fill="#000000" transform="translate(433,46)"/>
<path d="M0 0 C8.57142857 -0.28571429 8.57142857 -0.28571429 12 2 C11.67 2.66 11.34 3.32 11 4 C7.37 3.67 3.74 3.34 0 3 C0 2.01 0 1.02 0 0 Z " fill="#000000" transform="translate(393,39)"/>
<path d="M0 0 C0 0.99 0 1.98 0 3 C-3.63 3.33 -7.26 3.66 -11 4 C-11 3.01 -11 2.02 -11 1 C-7.27569643 0.30710631 -3.78916254 -0.11144596 0 0 Z " fill="#000000" transform="translate(408,659)"/>
<path d="M0 0 C3.63 0 7.26 0 11 0 C11 0.99 11 1.98 11 3 C7.7 3 4.4 3 1 3 C0.67 2.01 0.34 1.02 0 0 Z " fill="#000000" transform="translate(357,660)"/>
<path d="M0 0 C-2.6598561 3.44216672 -5.90288286 3.99504674 -10 5 C-10.33 4.01 -10.66 3.02 -11 2 C-3.57142857 -1.57142857 -3.57142857 -1.57142857 0 0 Z " fill="#000000" transform="translate(485,641)"/>
<path d="M0 0 C3.48670834 1.1094072 6.77484237 2.26337666 10 4 C9.67 4.99 9.34 5.98 9 7 C7.68127338 6.60348083 6.37002899 6.18201309 5.0625 5.75 C3.96615234 5.40195312 3.96615234 5.40195312 2.84765625 5.046875 C1 4 1 4 0.24609375 1.890625 C0.16488281 1.26671875 0.08367187 0.6428125 0 0 Z " fill="#000000" transform="translate(262,635)"/>
<path d="M0 0 C3.99500618 1.3697164 6.80009492 3.25722422 10 6 C9.67 6.66 9.34 7.32 9 8 C5.56801397 6.76067171 2.69674368 5.49698489 0 3 C0 2.01 0 1.02 0 0 Z " fill="#000000" transform="translate(245,625)"/>
<path d="M0 0 C-3.17320782 3.53586014 -5.16743695 5.58578031 -10 6 C-10 5.01 -10 4.02 -10 3 C-3.375 -1.125 -3.375 -1.125 0 0 Z " fill="#000000" transform="translate(520,622)"/>
<path d="M0 0 C0.66 0 1.32 0 2 0 C3.32421875 1.42578125 3.32421875 1.42578125 4.6875 3.3125 C5.14511719 3.92738281 5.60273438 4.54226563 6.07421875 5.17578125 C6.53248047 6.07876953 6.53248047 6.07876953 7 7 C6.67 7.99 6.34 8.98 6 10 C3.03595495 7.19195732 0.55500981 4.81684226 -1 1 C-0.67 0.67 -0.34 0.34 0 0 Z " fill="#000000" transform="translate(203,583)"/>
<path d="M0 0 C3.80881639 1.44472346 5.29742886 3.32603071 7 7 C6.67 7.99 6.34 8.98 6 10 C3.03595495 7.19195732 0.55500981 4.81684226 -1 1 C-0.67 0.67 -0.34 0.34 0 0 Z " fill="#000000" transform="translate(191,567)"/>
<path d="M0 0 C0.99 0.33 1.98 0.66 3 1 C-0.625 7.75 -0.625 7.75 -4 10 C-4.33 9.01 -4.66 8.02 -5 7 C-4.00390625 5.17578125 -4.00390625 5.17578125 -2.5625 3.3125 C-2.08941406 2.68988281 -1.61632812 2.06726563 -1.12890625 1.42578125 C-0.75636719 0.95527344 -0.38382813 0.48476563 0 0 Z " fill="#000000" transform="translate(588,553)"/>
<path d="M0 0 C1.8125 0.125 1.8125 0.125 4 1 C5.95320589 4.20883825 7 6.2205439 7 10 C2.57320993 8.52440331 2.08567304 6.09942632 0 2 C0 1.34 0 0.68 0 0 Z " fill="#000000" transform="translate(180,550)"/>
<path d="M0 0 C0.66 0.33 1.32 0.66 2 1 C0.7508258 4.45925163 -0.67527795 7.14693203 -3 10 C-3.99 9.67 -4.98 9.34 -6 9 C-4.02 6.03 -2.04 3.06 0 0 Z " fill="#000000" transform="translate(600,536)"/>
<path d="M0 0 C0.66 0 1.32 0 2 0 C2.67154933 1.28913487 3.33708859 2.58140204 4 3.875 C4.37125 4.59429688 4.7425 5.31359375 5.125 6.0546875 C6 8 6 8 6 10 C4.109375 9.75390625 4.109375 9.75390625 2 9 C0.953125 7.15234375 0.953125 7.15234375 0.25 4.9375 C0.00765625 4.20402344 -0.2346875 3.47054687 -0.484375 2.71484375 C-0.65453125 2.14894531 -0.8246875 1.58304688 -1 1 C-0.67 0.67 -0.34 0.34 0 0 Z " fill="#000000" transform="translate(172,532)"/>
<path d="M0 0 C0.66 0.33 1.32 0.66 2 1 C1.29445932 4.66881155 -0.27735506 7.70450534 -2 11 C-2.99 10.67 -3.98 10.34 -5 10 C-3.66511872 6.40608886 -2.03977277 3.24509304 0 0 Z " fill="#000000" transform="translate(610,519)"/>
<path d="M0 0 C0.99 0 1.98 0 3 0 C2.39301257 4.12751449 0.96189209 7.3321148 -1 11 C-1.66 10.67 -2.32 10.34 -3 10 C-2.39009109 6.44219804 -1.4216319 3.3171411 0 0 Z " fill="#000000" transform="translate(627,484)"/>
<path d="M0 0 C0.99 0 1.98 0 3 0 C2.60404157 1.48484412 2.18249294 2.9628831 1.75 4.4375 C1.51796875 5.26121094 1.2859375 6.08492188 1.046875 6.93359375 C0.52867187 7.95646484 0.52867187 7.95646484 0 9 C-1.32 9.33 -2.64 9.66 -4 10 C-2.68 6.7 -1.36 3.4 0 0 Z " fill="#000000" transform="translate(635,466)"/>
<path d="M0 0 C0.99 0.33 1.98 0.66 3 1 C1.68 4.3 0.36 7.6 -1 11 C-1.66 10.67 -2.32 10.34 -3 10 C-2.69201674 8.51988629 -2.378482 7.04092675 -2.0625 5.5625 C-1.88847656 4.73878906 -1.71445312 3.91507812 -1.53515625 3.06640625 C-1 1 -1 1 0 0 Z " fill="#000000" transform="translate(642,447)"/>
<path d="M0 0 C0.99 0 1.98 0 3 0 C3.66 3.3 4.32 6.6 5 10 C4.01 10.33 3.02 10.66 2 11 C1.34 7.37 0.68 3.74 0 0 Z " fill="#000000" transform="translate(142,437)"/>
<path d="M0 0 C0.99 0.33 1.98 0.66 3 1 C3.33 4.3 3.66 7.6 4 11 C3.01 11 2.02 11 1 11 C-0.20272819 8.59454362 -0.10071472 7.05003047 -0.0625 4.375 C-0.05347656 3.55773437 -0.04445312 2.74046875 -0.03515625 1.8984375 C-0.02355469 1.27195312 -0.01195312 0.64546875 0 0 Z " fill="#000000" transform="translate(140,417)"/>
<path d="M0 0 C0.99 0.33 1.98 0.66 3 1 C3 4.3 3 7.6 3 11 C2.01 11 1.02 11 0 11 C0 7.37 0 3.74 0 0 Z " fill="#000000" transform="translate(137,377)"/>
<path d="M0 0 C0.66 0 1.32 0 2 0 C2 3.63 2 7.26 2 11 C1.01 11 0.02 11 -1 11 C-1.02688151 9.35425434 -1.04634123 7.70838587 -1.0625 6.0625 C-1.07410156 5.14597656 -1.08570313 4.22945313 -1.09765625 3.28515625 C-1 1 -1 1 0 0 Z " fill="#000000" transform="translate(137,357)"/>
<path d="M0 0 C0.99 0.33 1.98 0.66 3 1 C2.34 4.3 1.68 7.6 1 11 C0.01 11 -0.98 11 -2 11 C-1.85892253 9.54119891 -1.71197585 8.08296449 -1.5625 6.625 C-1.48128906 5.81289063 -1.40007812 5.00078125 -1.31640625 4.1640625 C-1 2 -1 2 0 0 Z " fill="#000000" transform="translate(149,258)"/>
<path d="M0 0 C0.99 0 1.98 0 3 0 C2.69078116 1.45903258 2.37751201 2.91720722 2.0625 4.375 C1.88847656 5.18710938 1.71445313 5.99921875 1.53515625 6.8359375 C1 9 1 9 0 11 C-0.99 10.67 -1.98 10.34 -3 10 C-2.01 6.7 -1.02 3.4 0 0 Z " fill="#000000" transform="translate(154,239)"/>
<path d="M0 0 C0.66 0.33 1.32 0.66 2 1 C0.79157144 5.43090471 -0.51668565 7.98112756 -4 11 C-5 8 -5 8 -4.00390625 5.95703125 C-3.52824219 5.24933594 -3.05257812 4.54164063 -2.5625 3.8125 C-2.08941406 3.09707031 -1.61632812 2.38164062 -1.12890625 1.64453125 C-0.75636719 1.10183594 -0.38382813 0.55914062 0 0 Z " fill="#000000" transform="translate(186,165)"/>
<path d="M0 0 C2.60018816 3.90028225 2.15085514 7.47434569 2 12 C1.34 12 0.68 12 0 12 C-2 4.375 -2 4.375 -2 1 C-1.34 0.67 -0.68 0.34 0 0 Z " fill="#000000" transform="translate(512,133)"/>
<path d="M0 0 C-0.33589994 3.13506611 -1.02665172 4.025249 -3.375 6.25 C-6 8 -6 8 -9 8 C-7.13554727 3.64961029 -5.02378599 0 0 0 Z " fill="#000000" transform="translate(238,104)"/>
<path d="M0 0 C0.8353125 0.37125 0.8353125 0.37125 1.6875 0.75 C-1.12054268 3.71404505 -3.49565774 6.19499019 -7.3125 7.75 C-7.3125 3.75 -7.3125 3.75 -5.0625 1.4375 C-2.3125 -0.25 -2.3125 -0.25 0 0 Z " fill="#000000" transform="translate(253.3125,92.25)"/>
<path d="M0 0 C4.41889613 1.35021826 6.34345343 3.26115668 9 7 C3.69520066 7 2.81017373 5.4637943 -1 2 C-0.67 1.34 -0.34 0.68 0 0 Z " fill="#000000" transform="translate(469,66)"/>
<path d="M0 0 C3.63 0.66 7.26 1.32 11 2 C10.67 2.99 10.34 3.98 10 5 C6.37 4.34 2.74 3.68 -1 3 C-0.67 2.01 -0.34 1.02 0 0 Z " fill="#000000" transform="translate(414,41)"/>
<path d="M0 0 C0 0.99 0 1.98 0 3 C-3.63 3.33 -7.26 3.66 -11 4 C-11 3.01 -11 2.02 -11 1 C-7.27569643 0.30710631 -3.78916254 -0.11144596 0 0 Z " fill="#000000" transform="translate(384,39)"/>
<path d="M0 0 C0.66 0.99 1.32 1.98 2 3 C-5.625 5 -5.625 5 -9 5 C-9 4.01 -9 3.02 -9 2 C-6.03 1.34 -3.06 0.68 0 0 Z " fill="#000000" transform="translate(426,656)"/>
<path d="M0 0 C3.63 0.66 7.26 1.32 11 2 C10.67 2.99 10.34 3.98 10 5 C6.7 4.34 3.4 3.68 0 3 C0 2.01 0 1.02 0 0 Z " fill="#000000" transform="translate(318,654)"/>
<path d="M0 0 C5.445 1.485 5.445 1.485 11 3 C10.01 4.485 10.01 4.485 9 6 C6.03 5.01 3.06 4.02 0 3 C0 2.01 0 1.02 0 0 Z " fill="#000000" transform="translate(299,649)"/>
<path d="M0 0 C5.445 1.485 5.445 1.485 11 3 C10.67 3.99 10.34 4.98 10 6 C6.7 5.01 3.4 4.02 0 3 C0 2.01 0 1.02 0 0 Z " fill="#000000" transform="translate(280,643)"/>
<path d="M0 0 C0.99 0.33 1.98 0.66 3 1 C2.07038578 2.15224028 1.1309875 3.29659176 0.1875 4.4375 C-0.59560547 5.39462891 -0.59560547 5.39462891 -1.39453125 6.37109375 C-3 8 -3 8 -6 9 C-5.52797514 4.75177626 -3.03344482 2.80010291 0 0 Z " fill="#000000" transform="translate(563,583)"/>
<path d="M0 0 C0.99 0.33 1.98 0.66 3 1 C2.67 4.3 2.34 7.6 2 11 C1.01 11 0.02 11 -1 11 C-1.125 3.375 -1.125 3.375 0 0 Z " fill="#000000" transform="translate(139,317)"/>
<path d="M0 0 C0.99 0 1.98 0 3 0 C2.67 3.63 2.34 7.26 2 11 C1.01 10.67 0.02 10.34 -1 10 C-0.67 6.7 -0.34 3.4 0 0 Z " fill="#000000" transform="translate(144,278)"/>
<path d="M0 0 C0.66 0.33 1.32 0.66 2 1 C1.39009109 4.55780196 0.4216319 7.6828589 -1 11 C-1.99 10.67 -2.98 10.34 -4 10 C-3.52449439 8.51965236 -3.04448784 7.04074979 -2.5625 5.5625 C-2.29566406 4.73878906 -2.02882812 3.91507813 -1.75390625 3.06640625 C-1 1 -1 1 0 0 Z " fill="#000000" transform="translate(168,201)"/>
<path d="M0 0 C3.63 0.66 7.26 1.32 11 2 C10.01 3.485 10.01 3.485 9 5 C6.36 4.67 3.72 4.34 1 4 C0.67 2.68 0.34 1.36 0 0 Z " fill="#000000" transform="translate(338,657)"/>
<path d="M0 0 C0.99 0.33 1.98 0.66 3 1 C3.73046875 3.06640625 3.73046875 3.06640625 4.1875 5.5625 C4.34605469 6.38878906 4.50460938 7.21507812 4.66796875 8.06640625 C4.77753906 8.70449219 4.88710937 9.34257812 5 10 C4.01 10 3.02 10 2 10 C0.68373308 6.38026598 0 3.90432869 0 0 Z " fill="#000000" transform="translate(157,495)"/>
<path d="M0 0 C0.99 0.33 1.98 0.66 3 1 C2.67 4.3 2.34 7.6 2 11 C1.01 11 0.02 11 -1 11 C-0.67 7.37 -0.34 3.74 0 0 Z " fill="#000000" transform="translate(141,297)"/>
<path d="M0 0 C0 0.99 0 1.98 0 3 C-3.61973402 4.31626692 -6.09567131 5 -10 5 C-10 4.01 -10 3.02 -10 2 C-3.375 0 -3.375 0 0 0 Z " fill="#000000" transform="translate(344,46)"/>
<path d="M0 0 C0.99 0 1.98 0 3 0 C2.67 1.98 2.34 3.96 2 6 C1.01 6 0.02 6 -1 6 C-0.67 4.02 -0.34 2.04 0 0 Z " fill="#000000" transform="translate(646,433)"/>
</svg>
