<svg width="687" height="686" viewBox="0 0 687 686" fill="none" xmlns="http://www.w3.org/2000/svg">
<path d="M186.169 112.159C272.169 26.1588 376.669 0.658767 498.169 3.15877C595.369 5.15877 656.002 23.9921 674.169 33.1588L674.169 73.1588C601.669 150.659 568.669 278.159 555.169 310.159C544.369 335.759 527.335 415.492 520.169 452.159C515.169 479.992 509.769 540.559 528.169 560.159C551.169 584.659 568.669 575.659 592.169 568.659C610.969 563.059 661.335 520.325 684.169 499.659V564.159C676.002 573.659 653.169 597.959 627.169 619.159C594.669 645.659 579.169 655.159 543.169 670.159C507.169 685.159 459.169 690.159 415.669 661.159C380.869 637.959 367.835 578.825 365.669 552.159C339.269 600.159 295.669 638.159 277.169 651.159C236.169 689.159 140.169 700.659 95.1686 645.659C50.1686 590.659 22.6686 503.659 47.1686 391.659C71.6686 279.659 100.169 198.159 186.169 112.159Z" stroke="black" stroke-width="5"/>
<path d="M394.731 341.777C380.337 382.402 371.741 450.458 369.242 479.408C352.75 500.29 289.778 571.954 252.295 565.784C214.812 559.614 202.318 526.867 195.821 490.798C189.323 454.729 203.317 380.693 214.812 337.031C224.008 302.101 251.629 241.163 264.29 215.06C281.449 184.845 330.06 118.623 387.234 95.4633C444.409 72.3032 507.68 87.0788 532.169 97.3616C503.782 118.623 461.034 186.901 443.209 218.383C427.216 242.682 404.227 310.77 394.731 341.777Z" stroke="black" stroke-width="5"/>
<path d="M657.497 556.494C600.664 601.328 466.997 689.996 455.497 598.995C447.852 538.496 455.497 506.993 455.497 450.994M455.497 450.994C486.997 326.993 501.498 190.924 616.497 78.4941C488.497 -5.00539 173.497 3.99445 92.9972 432.994C86.9972 531.328 108.997 761.494 319.997 565.994L455.497 450.994Z" stroke="black" stroke-width="2" stroke-dasharray="10 10"/>
<path d="M6.61932 278.455V293H4.85795V280.301H4.77273L1.22159 282.659V280.869L4.85795 278.455H6.61932Z" fill="black"/>
<path d="M606.503 327.994V326.716L611.304 321.46C611.867 320.845 612.331 320.309 612.696 319.855C613.061 319.396 613.33 318.965 613.506 318.562C613.686 318.155 613.775 317.729 613.775 317.284C613.775 316.773 613.652 316.33 613.406 315.956C613.165 315.582 612.833 315.293 612.412 315.089C611.99 314.886 611.517 314.784 610.991 314.784C610.433 314.784 609.945 314.9 609.528 315.132C609.116 315.359 608.797 315.679 608.57 316.091C608.347 316.503 608.236 316.986 608.236 317.54H606.56C606.56 316.687 606.756 315.939 607.149 315.295C607.542 314.651 608.077 314.149 608.754 313.79C609.436 313.43 610.201 313.25 611.048 313.25C611.9 313.25 612.656 313.43 613.314 313.79C613.972 314.149 614.488 314.635 614.862 315.246C615.236 315.856 615.423 316.536 615.423 317.284C615.423 317.819 615.326 318.342 615.132 318.854C614.943 319.36 614.611 319.926 614.138 320.551C613.669 321.171 613.018 321.929 612.185 322.824L608.918 326.318V326.432H615.679V327.994H606.503Z" fill="black"/>
<path d="M14.3358 547.333C15.0721 547.713 15.9768 547.424 16.3565 546.688L22.5445 534.689C22.9242 533.953 22.6352 533.048 21.8989 532.669C21.1626 532.289 20.2579 532.578 19.8782 533.314L14.3778 543.979L3.71261 538.479C2.97634 538.099 2.07164 538.388 1.69191 539.124C1.31219 539.861 1.60123 540.765 2.3375 541.145L14.3358 547.333ZM131.99 102.912C114.304 119.714 95.5861 148.007 78.0885 182.838C60.5764 217.698 44.2327 259.215 31.3352 302.56C5.56714 389.158 -6.54971 483.405 13.5945 546.457L16.4522 545.543C-3.4036 483.395 8.47899 389.892 34.2106 303.415C47.0629 260.222 63.344 218.871 80.7693 184.184C98.2092 149.468 116.742 121.536 134.056 105.088L131.99 102.912Z" fill="black"/>
<path d="M571.054 499.565C571.367 498.798 570.998 497.923 570.23 497.611L557.727 492.521C556.959 492.209 556.084 492.578 555.772 493.345C555.459 494.112 555.828 494.987 556.595 495.3L567.71 499.824L563.186 510.938C562.874 511.706 563.243 512.581 564.01 512.893C564.777 513.206 565.652 512.837 565.965 512.069L571.054 499.565ZM641.271 182.444C618.036 240.656 582.255 327.107 561.045 395.305C550.453 429.36 543.429 459.061 543.501 478.459C543.536 488.085 545.313 495.648 549.779 499.772C554.407 504.045 561.311 504.148 570.247 500.382L569.082 497.618C560.519 501.227 555.126 500.626 551.814 497.568C548.341 494.36 546.536 487.962 546.501 478.448C546.431 459.564 553.313 430.265 563.909 396.195C585.074 328.143 620.792 241.844 644.057 183.556L641.271 182.444Z" fill="black"/>
<circle cx="612.5" cy="74.5" r="30.5" fill="black"/>
</svg>
