<?xml version="1.0" encoding="UTF-8"?>
<svg version="1.1" xmlns="http://www.w3.org/2000/svg" width="675" height="729">
<path d="M0 0 C2.34246765 -0.00219652 4.68446958 -0.02049131 7.02685547 -0.03930664 C20.40297341 -0.09068973 34.32143813 0.22392158 47.03076172 4.81030273 C47.77068359 5.06827637 48.51060547 5.32625 49.27294922 5.59204102 C62.81706991 10.53121584 75.02963816 18.59691942 84.84326172 29.18530273 C85.43494141 29.78342773 86.02662109 30.38155273 86.63623047 30.99780273 C92.68393916 37.36134921 96.80338716 44.47044551 100.84326172 52.18530273 C101.32923828 53.10311523 101.81521484 54.02092773 102.31591797 54.96655273 C115.48206185 81.70147487 111.66172515 113.41059248 102.47216797 140.79467773 C96.59000646 157.15810467 86.65337891 169.74794108 74.84326172 182.18530273 C74.27220703 182.83241211 73.70115234 183.47952148 73.11279297 184.14624023 C58.58378961 200.05717965 35.78275583 207.8225698 15.84326172 214.18530273 C15.09995605 214.4237793 14.35665039 214.66225586 13.59082031 214.90795898 C4.42955851 217.78950617 -4.82579776 219.83370612 -14.28173828 221.49780273 C-15.22243164 221.66948975 -16.163125 221.84117676 -17.13232422 222.01806641 C-22.97783655 222.9797766 -28.63537143 223.27765923 -34.54296875 223.22900391 C-35.27821274 223.22584923 -36.01345673 223.22269455 -36.77098083 223.21944427 C-38.56625084 223.21128354 -40.36150006 223.19874587 -42.15673828 223.18530273 C-42.11915405 224.37639648 -42.08156982 225.56749023 -42.04284668 226.79467773 C-38.41682304 342.05740369 -38.41682304 342.05740369 -39.15673828 384.18530273 C-39.17218689 385.06617554 -39.1876355 385.94704834 -39.20355225 386.85461426 C-39.38085364 396.50490791 -39.64456705 406.1486798 -40.02441406 415.79321289 C-40.17507379 419.65532777 -40.296015 423.51794936 -40.40844727 427.38134766 C-40.72791126 434.48483525 -41.36277556 441.47048639 -42.43017578 448.50170898 C-42.56075378 449.36389038 -42.69133179 450.22607178 -42.8258667 451.11437988 C-44.30405587 460.55585537 -46.30748341 469.86547428 -48.40673828 479.18530273 C-48.60471008 480.07027435 -48.80268188 480.95524597 -49.00665283 481.86703491 C-50.19631461 487.18203681 -51.40151555 492.49333531 -52.6151123 497.80291748 C-53.10989646 499.97926522 -53.59683391 502.15713955 -54.07958984 504.33618164 C-58.1052276 522.38563465 -63.90253779 539.18237431 -71.15673828 556.18530273 C-71.64335937 557.33450195 -72.12998047 558.48370117 -72.63134766 559.66772461 C-84.56790341 587.68788257 -97.00332672 612.48494851 -118.37988281 634.35717773 C-119.80369081 635.8220684 -121.20148707 637.31222278 -122.59033203 638.81030273 C-150.33226676 668.22865067 -190.54116612 685.06847144 -230.53826904 686.25601196 C-235.97811966 686.37545727 -241.41710214 686.41437311 -246.8581543 686.42553711 C-249.69040751 686.43520433 -252.52192087 686.46632148 -255.35400391 686.49780273 C-292.76999682 686.71315096 -329.62819625 676.77725572 -357.28173828 650.49780273 C-372.57308003 634.5225032 -381.98103367 614.54355977 -387.15673828 593.18530273 C-387.5221875 591.83758789 -387.5221875 591.83758789 -387.89501953 590.46264648 C-394.72021365 561.16538466 -385.31818932 525.03308227 -370.01757812 499.75561523 C-357.4895297 479.93101113 -340.71726659 464.65352835 -317.58642578 458.50170898 C-301.05942574 454.92497017 -280.8259948 456.41747125 -266.15673828 465.18530273 C-258.57949353 471.54644648 -251.85431939 481.25536594 -250.15673828 491.18530273 C-249.43174988 501.9531633 -249.90980099 510.47014542 -255.81689453 519.81030273 C-258.82122718 522.8597756 -261.80801735 523.55644477 -265.84423828 524.49780273 C-278.59828597 527.8743622 -291.44476123 533.00345544 -301.15673828 542.18530273 C-301.72650391 542.6919043 -302.29626953 543.19850586 -302.88330078 543.72045898 C-311.37381013 552.23188092 -312.15632033 565.64639027 -312.20019531 577.06420898 C-311.91724554 590.87470106 -309.07120564 604.09923882 -299.15673828 614.18530273 C-286.77672684 625.1921791 -272.61296519 626.29551456 -256.75976562 625.40844727 C-239.83847093 623.9578692 -225.85955293 615.57799641 -214.45361328 603.36108398 C-178.95424758 560.29474823 -181.07752269 479.3037793 -181.10595703 426.39233398 C-181.10609802 425.44309429 -181.10623901 424.4938546 -181.10638428 423.51585007 C-181.11486493 399.43569899 -181.40354067 375.35920988 -181.69317627 351.28112793 C-181.97272006 327.98080064 -182.20435738 304.68284417 -182.21142578 281.38061523 C-182.21218613 280.44353855 -182.21294647 279.50646187 -182.21372986 278.54098892 C-182.2260738 255.55169852 -181.91724402 232.55751033 -180.21923828 209.62280273 C-180.14463379 208.6125 -180.0700293 207.60219727 -179.99316406 206.5612793 C-179.45029159 200.01350452 -178.44290691 193.62713207 -177.15673828 187.18530273 C-178.03894043 186.90710693 -178.92114258 186.62891113 -179.83007812 186.34228516 C-182.83507005 185.29717605 -185.54661822 184.10295068 -188.38330078 182.67358398 C-216.71152998 168.60747925 -245.80451312 156.19189774 -276.15673828 147.18530273 C-277.12160156 146.88881836 -278.08646484 146.59233398 -279.08056641 146.28686523 C-309.64894148 137.16197715 -345.76030861 139.58208701 -374.28955078 153.73999023 C-387.88140743 161.1569564 -402.91655742 173.10496325 -408.15673828 188.18530273 C-412.45957859 203.41834658 -415.10545016 219.13609427 -415.75439453 234.94702148 C-415.79502518 235.84463699 -415.83565582 236.7422525 -415.8775177 237.66706848 C-416.04042124 241.33822129 -416.19884775 245.00729636 -416.28540039 248.68115234 C-416.68608185 264.14853587 -416.68608185 264.14853587 -420.25732422 269.09448242 C-422.79603865 271.18264002 -425.22620081 272.70890955 -428.15673828 274.18530273 C-428.81714111 274.58289795 -429.47754395 274.98049316 -430.15795898 275.39013672 C-431.81630578 276.36947175 -433.548806 277.2199713 -435.28173828 278.06030273 C-436.39806641 278.61459961 -437.51439453 279.16889648 -438.66455078 279.73999023 C-454.19946559 286.16942925 -471.32049556 283.9954653 -486.57861328 277.79467773 C-500.94678032 271.00375301 -507.27571655 260.79671601 -513.03173828 246.37280273 C-513.76332887 244.31843724 -514.47458781 242.25660983 -515.15673828 240.18530273 C-515.52605469 239.10635742 -515.52605469 239.10635742 -515.90283203 238.00561523 C-519.99068322 223.51488758 -516.74856461 206.66191204 -514.15673828 192.18530273 C-513.97498047 191.13729492 -513.79322266 190.08928711 -513.60595703 189.00952148 C-507.98946919 163.83084469 -486.63567255 138.52629312 -466.15673828 124.18530273 C-465.42197266 123.64389648 -464.68720703 123.10249023 -463.93017578 122.54467773 C-429.80770937 97.70641596 -392.78092251 85.64176432 -351.15673828 81.18530273 C-349.94373047 81.0525293 -348.73072266 80.91975586 -347.48095703 80.78295898 C-285.50479418 75.25883214 -213.99975473 94.62329177 -162.15673828 129.18530273 C-161.92341797 127.99420898 -161.69009766 126.80311523 -161.44970703 125.57592773 C-160.09933619 119.52115368 -158.13406735 113.69176178 -156.11791992 107.83032227 C-155.47650927 105.95654377 -154.85264651 104.07678833 -154.22900391 102.19702148 C-150.21494701 90.46931609 -144.77944793 79.88022767 -137.46923828 69.87280273 C-136.95941406 69.16478516 -136.44958984 68.45676758 -135.92431641 67.72729492 C-134.34353173 65.54038116 -132.75038984 63.3628501 -131.15673828 61.18530273 C-130.6544873 60.48937012 -130.15223633 59.7934375 -129.63476562 59.07641602 C-111.20017775 33.537269 -86.24487907 9.58516337 -54.15673828 3.18530273 C-50.85240227 2.72031718 -47.54325344 2.41000164 -44.21923828 2.12280273 C-43.39617187 2.04481445 -42.57310547 1.96682617 -41.72509766 1.88647461 C-27.82601291 0.62101994 -13.95339188 -0.0014556 0 0 Z M-111.15283203 45.02514648 C-114.53496937 48.67099823 -117.47077912 52.61471702 -120.40673828 56.62280273 C-121.37172241 57.93269165 -121.37172241 57.93269165 -122.35620117 59.26904297 C-123.66742056 61.05356478 -124.97547987 62.8404131 -126.28027344 64.62963867 C-128.00031865 66.97226595 -129.75015297 69.28828446 -131.51220703 71.59936523 C-144.67213845 89.11588559 -150.49793318 109.55475262 -157.13867188 130.1652832 C-158.05521496 132.88414124 -159.06080436 135.53448562 -160.15673828 138.18530273 C-160.76114746 137.74524902 -161.36555664 137.30519531 -161.98828125 136.85180664 C-220.17566109 95.20295417 -301.80973787 78.78583365 -371.37158203 89.68920898 C-406.59154507 95.68504128 -438.34560271 110.34069574 -466.52783203 132.15795898 C-468.15664385 133.41405607 -469.81181521 134.63764371 -471.50439453 135.80639648 C-483.70416322 144.43445159 -491.76898567 158.47127084 -499.15673828 171.18530273 C-499.5025293 171.76747559 -499.84832031 172.34964844 -500.20458984 172.94946289 C-510.67689524 190.83492241 -514.89433313 217.61239624 -509.77319336 237.87548828 C-505.61093554 252.2051941 -498.87059987 264.55264635 -485.46923828 271.93530273 C-472.62908385 277.84801822 -456.78609384 279.98244613 -443.28173828 275.12280273 C-436.50114586 272.13763626 -429.43508773 268.46365218 -424.15673828 263.18530273 C-423.82907996 260.67672185 -423.61782651 258.25263283 -423.48095703 255.73217773 C-423.37747167 254.16117456 -423.27335927 252.59021259 -423.16870117 251.01928711 C-423.09016403 249.77538208 -423.09016403 249.77538208 -423.01004028 248.50634766 C-422.14777372 235.13542297 -420.94606701 221.90139915 -418.71923828 208.68530273 C-418.42956177 206.93878418 -418.42956177 206.93878418 -418.1340332 205.15698242 C-415.62072248 190.96923572 -412.75047896 180.05032492 -403.15673828 169.18530273 C-402.33044922 168.2481543 -401.50416016 167.31100586 -400.65283203 166.34545898 C-382.7842449 147.3584208 -357.30844706 137.01243772 -331.390625 136.04467773 C-296.22391274 135.13459318 -296.22391274 135.13459318 -279.15673828 140.18530273 C-278.30080078 140.43199707 -277.44486328 140.67869141 -276.56298828 140.93286133 C-270.03301479 142.84330077 -263.59010555 144.97376127 -257.15673828 147.18530273 C-255.85494629 147.62567871 -255.85494629 147.62567871 -254.52685547 148.07495117 C-226.474346 157.62272141 -199.20805162 170.23264131 -172.91455078 183.86645508 C-170.36551255 185.32911181 -170.36551255 185.32911181 -168.15673828 185.18530273 C-168.83736328 185.89686523 -168.83736328 185.89686523 -169.53173828 186.62280273 C-177.56387443 199.28886359 -175.2423779 221.92169559 -175.70751953 236.28686523 C-175.77101089 238.24176628 -175.77101089 238.24176628 -175.83578491 240.23616028 C-176.24548409 253.44845177 -176.30878383 266.6549457 -176.28173828 279.87280273 C-176.280382 281.83429017 -176.27902674 283.79577762 -176.27772141 285.75726509 C-176.2511489 315.15489739 -175.8835126 344.55085603 -175.51269531 373.94580078 C-174.70149888 438.70567976 -174.70149888 438.70567976 -175.90673828 462.62280273 C-175.97059219 463.94476151 -175.97059219 463.94476151 -176.03573608 465.29342651 C-178.1633248 508.45753595 -183.5119388 552.34157116 -201.15673828 592.18530273 C-201.59759766 593.20881836 -202.03845703 594.23233398 -202.49267578 595.28686523 C-209.62777069 610.75421863 -222.5760681 620.95547613 -238.15673828 627.18530273 C-254.15311011 632.99748928 -274.42434484 634.4637951 -290.15673828 627.18530273 C-301.50084692 621.67623848 -309.14821468 613.76354251 -314.15673828 602.18530273 C-316.88421807 593.34617979 -317.62669787 584.82860705 -317.53173828 575.62280273 C-317.54914063 573.92994141 -317.54914063 573.92994141 -317.56689453 572.20288086 C-317.52311034 559.51276357 -315.06644846 547.99697974 -306.48095703 538.29077148 C-296.65644623 528.9711606 -284.06568444 524.08727109 -271.50439453 519.72827148 C-264.46095988 517.60905138 -264.46095988 517.60905138 -258.63330078 513.49389648 C-254.43243573 504.26355538 -254.58295457 496.89859815 -257.84814453 487.30639648 C-259.73217168 482.81285113 -262.16616863 479.01323189 -265.15673828 475.18530273 C-265.75228516 474.33323242 -266.34783203 473.48116211 -266.96142578 472.60327148 C-273.54418092 465.35287036 -286.58404298 463.55416749 -295.99267578 462.93139648 C-317.53614301 462.10779313 -334.32121231 469.73332936 -350.30517578 484.11889648 C-355.39123201 488.96136764 -359.37628359 494.28263825 -363.15673828 500.18530273 C-364.03845703 501.56008789 -364.03845703 501.56008789 -364.93798828 502.96264648 C-373.19648804 516.45515157 -377.65700026 530.87875622 -381.15673828 546.18530273 C-381.40552734 547.27069336 -381.65431641 548.35608398 -381.91064453 549.47436523 C-387.24377482 577.74368521 -380.55090297 607.46426984 -364.65161133 631.31835938 C-347.22007191 656.42140838 -320.64059185 671.88587734 -290.8144989 677.63693237 C-277.84327661 679.89268688 -265.11429949 680.63457463 -251.96289062 680.52148438 C-249.02592599 680.49775578 -246.08986954 680.5009765 -243.15283203 680.50756836 C-227.93123106 680.48601917 -212.21255781 680.19357802 -197.46923828 675.99780273 C-196.69290039 675.78422119 -195.9165625 675.57063965 -195.11669922 675.35058594 C-187.11352106 673.04775387 -179.62085153 669.84925964 -172.15673828 666.18530273 C-171.53879395 665.88785156 -170.92084961 665.59040039 -170.28417969 665.28393555 C-120.77416968 641.21205157 -95.43101485 598.82395163 -74.91973877 549.98956299 C-74.23537101 548.37124484 -73.53657657 546.75904544 -72.8359375 545.14770508 C-63.94738385 524.62295986 -59.58267192 502.57629319 -54.74450684 480.82733154 C-54.20618663 478.40757382 -53.66291588 475.98898273 -53.11865234 473.57055664 C-44.94742977 437.02710653 -44.93738755 399.72986666 -44.90673828 362.43530273 C-44.90556 361.77644955 -44.90438171 361.11759636 -44.90316772 360.43877792 C-44.82046636 312.34334914 -46.65661443 264.25136911 -48.15673828 216.18530273 C-47.49673828 216.51530273 -46.83673828 216.84530273 -46.15673828 217.18530273 C-24.33275344 219.3246198 -2.76152981 213.80412681 17.84326172 207.18530273 C18.64328613 206.92910156 19.44331055 206.67290039 20.26757812 206.40893555 C51.19894106 196.27854876 76.8181347 179.10251908 91.96826172 149.56030273 C97.96046642 137.35644041 101.03040133 125.30688828 103.15576172 111.93530273 C103.41341309 110.32002686 103.41341309 110.32002686 103.67626953 108.67211914 C107.29091958 84.02231878 101.34818665 60.42512941 86.84326172 40.18530273 C73.19175533 22.14809044 52.21637168 10.11810685 29.90478516 6.90625 C20.9689987 5.81677884 11.95506006 5.9874535 2.96826172 5.99780273 C1.64533615 5.9982106 1.64533615 5.9982106 0.29568481 5.99862671 C-44.60727727 6.06210851 -78.74445103 12.30693393 -111.15283203 45.02514648 Z " fill="#000000" transform="translate(541.15673828125,42.814697265625)"/>
<path d="M0 0 C0.66 0 1.32 0 2 0 C2 0.99 2 1.98 2 3 C3.485 3.12375 3.485 3.12375 5 3.25 C13.04950796 4.45093466 18.90451484 8.81816775 24 15 C29.64218043 23.17261287 29.69966663 31.36459098 29 41 C26.975542 49.43930683 20.97795811 56.2806194 13.8125 60.9375 C6.48089152 65.34243789 -3.53386398 65.31124072 -11.703125 63.3515625 C-20.24259023 59.8581449 -27.01688669 53.29102985 -31 45 C-33.37878041 38.01614468 -33.22950602 27.88740359 -30.4375 21.0625 C-26.23386506 13.23046438 -19.69394788 6.12085477 -11.02734375 3.375 C-8.88515445 2.97875689 -6.92639132 2.90122681 -4.75 2.9375 C-2.89375 2.9684375 -2.89375 2.9684375 -1 3 C-0.67 2.01 -0.34 1.02 0 0 Z " fill="#000000" transform="translate(75,240)"/>
<path d="M0 0 C8.60409251 7.54887361 12.47154172 19.76611606 13.21069336 30.93823242 C14.19947993 54.6419863 6.73628752 71.26492755 -8.9296875 88.81640625 C-9.56003906 89.60273438 -10.19039062 90.3890625 -10.83984375 91.19921875 C-20.92883998 103.74487363 -37.65254262 107.62199231 -53.015625 109.546875 C-61.30792276 110.11790149 -69.62349185 109.9709733 -77.9296875 109.81640625 C-78.1733541 100.5464393 -77.4903678 91.67626124 -76.1796875 82.50390625 C-75.99776855 81.20372559 -75.81584961 79.90354492 -75.62841797 78.56396484 C-75.07618659 74.64605126 -74.50198112 70.73143775 -73.9296875 66.81640625 C-73.68943848 65.10300049 -73.68943848 65.10300049 -73.44433594 63.35498047 C-70.3981281 41.75665549 -64.9944958 18.94082357 -47.9296875 3.81640625 C-33.84618275 -6.50239432 -14.9844479 -10.83370362 0 0 Z M-49.98828125 14.3125 C-61.42375316 29.0612676 -65.27377235 47.17559131 -67.81542969 65.234375 C-68.17966313 67.81623347 -68.56480972 70.39432103 -68.953125 72.97265625 C-70.46825259 83.24789591 -71.47670878 93.4377578 -71.9296875 103.81640625 C-54.49098126 104.37753834 -33.94758375 103.26855064 -19.8828125 91.65625 C-7.56932899 80.05694853 5.87449993 64.39820634 7.23144531 46.71679688 C7.50168462 32.27470575 7.69993006 17.41633966 -2.5625 6 C-8.09669272 0.8504709 -14.08914194 -0.64457133 -21.546875 -0.4296875 C-32.50390344 0.70194003 -42.50075897 6.34093588 -49.98828125 14.3125 Z " fill="#000000" transform="translate(568.9296875,100.18359375)"/>
<path d="M0 0 C3.07877627 2.71530284 6.03000504 5.54836588 8.9453125 8.4375 C9.8115625 9.29085937 10.6778125 10.14421875 11.5703125 11.0234375 C27.78716241 27.89909694 41.39153118 53.67524712 41.9453125 77.4375 C40.6253125 77.4375 39.3053125 77.4375 37.9453125 77.4375 C37.83050537 76.88513672 37.71569824 76.33277344 37.59741211 75.76367188 C34.95577607 63.30268625 31.76244839 51.79548034 25.9453125 40.4375 C25.63190918 39.82293945 25.31850586 39.20837891 24.99560547 38.57519531 C11.25969647 12.13688751 -11.67497971 -6.59376739 -39.6171875 -16.375 C-66.24625159 -24.72645938 -94.78110432 -24.5379489 -122.0546875 -19.5625 C-122.90998047 -19.41748047 -123.76527344 -19.27246094 -124.64648438 -19.12304688 C-141.37249759 -16.23321213 -157.28795552 -10.78779808 -173.3046875 -5.3046875 C-173.98300629 -5.07352737 -174.66132507 -4.84236725 -175.36019897 -4.60420227 C-179.68681668 -3.10562529 -183.86806678 -1.40702639 -188.0546875 0.4375 C-185.7446875 1.4275 -183.4346875 2.4175 -181.0546875 3.4375 C-181.0546875 4.7575 -181.0546875 6.0775 -181.0546875 7.4375 C-187.08238888 6.96162884 -191.82147039 4.24027043 -197.0546875 1.4375 C-196.42790579 -2.22422475 -195.41016904 -5.4443995 -193.9921875 -8.875 C-193.62996094 -9.75800781 -193.26773437 -10.64101563 -192.89453125 -11.55078125 C-192.47880859 -12.54658203 -192.47880859 -12.54658203 -192.0546875 -13.5625 C-190.7346875 -13.5625 -189.4146875 -13.5625 -188.0546875 -13.5625 C-188.56675894 -9.80730943 -189.2721957 -6.89561475 -191.0546875 -3.5625 C-189.34152344 -4.28953125 -189.34152344 -4.28953125 -187.59375 -5.03125 C-129.73763641 -29.1288614 -52.50077587 -44.04157158 0 0 Z " fill="#000000" transform="translate(633.0546875,51.5625)"/>
<path d="M0 0 C4.2829452 0.5479083 6.85135641 2.02432804 10.3125 4.5625 C11.19550781 5.20316406 12.07851562 5.84382813 12.98828125 6.50390625 C13.65214844 6.99761719 14.31601563 7.49132812 15 8 C14.36188709 11.69070713 12.74379833 14.19249355 10.625 17.25 C9.71621094 18.58804688 9.71621094 18.58804688 8.7890625 19.953125 C8.19867188 20.62859375 7.60828125 21.3040625 7 22 C6.01 22 5.02 22 4 22 C3.67 21.34 3.34 20.68 3 20 C4.32 18.02 5.64 16.04 7 14 C-24.51353162 17.71500983 -56.85002588 32.6165356 -81 53 C-81.5057959 53.42216797 -82.0115918 53.84433594 -82.53271484 54.27929688 C-105.25322561 73.42296448 -121.49925729 102.44975038 -124.203125 132.23779297 C-125.09045752 143.19506973 -125.09181426 153.65236175 -123.47265625 164.53125 C-123.07883716 167.42142645 -122.90494676 170.09248902 -123 173 C-124.32 173 -125.64 173 -127 173 C-128.95504409 164.33278787 -129.38701822 155.93030525 -129.375 147.0625 C-129.37445618 146.38291229 -129.37391235 145.70332458 -129.37335205 145.00314331 C-129.26383314 115.12331861 -119.24923624 87.89941556 -100 65 C-99.29746094 64.15695313 -98.59492187 63.31390625 -97.87109375 62.4453125 C-93.60753134 57.48923409 -89.06355966 53.12714794 -84 49 C-83.1234375 48.26265625 -82.246875 47.5253125 -81.34375 46.765625 C-56.01909567 26.27093051 -25.19527228 15.82311345 6 8 C5.01 7.236875 4.02 6.47375 3 5.6875 C1.3125 4.38671875 1.3125 4.38671875 0 3 C0 2.01 0 1.02 0 0 Z " fill="#000000" transform="translate(130,105)"/>
<path d="M0 0 C0.99 0 1.98 0 3 0 C3.93489418 2.80468254 4.12750289 4.50154377 4.13371277 7.40119934 C4.13797775 8.30332657 4.14224274 9.2054538 4.14663696 10.13491821 C4.14618378 11.12398163 4.14573059 12.11304504 4.14526367 13.13208008 C4.14862228 14.17719254 4.1519809 15.22230499 4.15544128 16.29908752 C4.16500319 19.78924737 4.16690036 23.27935906 4.16796875 26.76953125 C4.17118967 29.2366284 4.17455434 31.70372537 4.17805481 34.17082214 C4.1840672 39.38740476 4.18589373 44.6039708 4.18530273 49.82055664 C4.18478086 55.05723761 4.19189854 60.29385327 4.20581055 65.53051758 C4.27834208 93.25291789 4.12289924 120.93892259 3.08203125 148.64453125 C3.04094931 149.75203043 2.99986736 150.85952961 2.95754051 152.00058937 C1.19687361 198.27476243 1.19687361 198.27476243 -3 213 C-2.18595703 212.54947266 -2.18595703 212.54947266 -1.35546875 212.08984375 C-0.28232422 211.51943359 -0.28232422 211.51943359 0.8125 210.9375 C1.52019531 210.55464844 2.22789062 210.17179688 2.95703125 209.77734375 C5 209 5 209 8 210 C8 210.99 8 211.98 8 213 C6.09118566 214.03544174 4.17260796 215.05290085 2.25 216.0625 C0.64898437 216.91521484 0.64898437 216.91521484 -0.984375 217.78515625 C-4 219 -4 219 -6.18359375 219.05078125 C-9.04816649 217.39364132 -9.89348491 215.06162181 -11.3125 212.125 C-12.11107422 210.52011719 -12.11107422 210.52011719 -12.92578125 208.8828125 C-14 206 -14 206 -13 203 C-12.01 203 -11.02 203 -10 203 C-9.01 204.98 -8.02 206.96 -7 209 C-5.57088256 201.76037227 -4.53920212 194.59532169 -3.94287109 187.24145508 C-3.81870095 185.75323982 -3.81870095 185.75323982 -3.69202232 184.2349596 C-2.83312287 173.54631104 -2.31897126 162.8509981 -1.9140625 152.13671875 C-1.87258717 151.07215643 -1.83111183 150.00759411 -1.78837967 148.91077232 C-0.72113 120.98295943 -0.56291881 93.04360178 -0.41056275 65.09923828 C-0.37136468 57.97129492 -0.32221873 50.84342819 -0.27259517 43.71555102 C-0.17135254 29.14376044 -0.08147126 14.571915 0 0 Z " fill="#000000" transform="translate(339,273)"/>
<path d="M0 0 C1.4540625 0.0309375 1.4540625 0.0309375 2.9375 0.0625 C5.0625 4.6875 5.0625 4.6875 3.9375 8.0625 C4.26300502 9.73071323 4.59596063 11.39749557 4.9375 13.0625 C4.6075 13.7225 4.2775 14.3825 3.9375 15.0625 C1.125 15.9375 1.125 15.9375 -2.0625 16.0625 C-4.4375 14.125 -4.4375 14.125 -6.0625 12.0625 C-2.43923261 10.8547442 -1.42103631 11.51938872 1.9375 13.0625 C1.9375 11.7425 1.9375 10.4225 1.9375 9.0625 C0.6175 9.0625 -0.7025 9.0625 -2.0625 9.0625 C-2.0625 8.0725 -2.0625 7.0825 -2.0625 6.0625 C-0.7425 6.0625 0.5775 6.0625 1.9375 6.0625 C1.6075 5.0725 1.2775 4.0825 0.9375 3.0625 C-1.0425 3.7225 -3.0225 4.3825 -5.0625 5.0625 C-3.9375 0.08035714 -3.9375 0.08035714 0 0 Z " fill="#000000" transform="translate(315.0625,353.9375)"/>
<path d="M0 0 C3.0625 0.1875 3.0625 0.1875 5.0625 2.1875 C4.90004442 5.92397845 4.47466356 7.71288742 2 10.5625 C1.360625 11.09875 0.72125 11.635 0.0625 12.1875 C1.7125 12.5175 3.3625 12.8475 5.0625 13.1875 C5.0625 13.8475 5.0625 14.5075 5.0625 15.1875 C1.7625 15.1875 -1.5375 15.1875 -4.9375 15.1875 C-2.9375 11.1875 -2.9375 11.1875 -0.8125 8.625 C1.36735538 6.30372611 1.36735538 6.30372611 1.0625 3.1875 C0.4025 3.1875 -0.2575 3.1875 -0.9375 3.1875 C-1.2675 3.8475 -1.5975 4.5075 -1.9375 5.1875 C-2.9275 5.1875 -3.9175 5.1875 -4.9375 5.1875 C-3.82120474 0.24390669 -3.82120474 0.24390669 0 0 Z " fill="#000000" transform="translate(631.9375,3.8125)"/>
<path d="M0 0 C0 4.95 0 9.9 0 15 C-0.99 15 -1.98 15 -3 15 C-3 11.37 -3 7.74 -3 4 C-3.99 4.33 -4.98 4.66 -6 5 C-5.625 3.0625 -5.625 3.0625 -5 1 C-3 0 -3 0 0 0 Z " fill="#000000" transform="translate(302,354)"/>
<path d="M0 0 C0 4.95 0 9.9 0 15 C-0.99 15 -1.98 15 -3 15 C-3 11.37 -3 7.74 -3 4 C-3.99 4.33 -4.98 4.66 -6 5 C-5.625 3.0625 -5.625 3.0625 -5 1 C-3 0 -3 0 0 0 Z " fill="#000000" transform="translate(23,106)"/>
<path d="M0 0 C0 4.95 0 9.9 0 15 C-0.99 15 -1.98 15 -3 15 C-3 11.37 -3 7.74 -3 4 C-3.99 4.33 -4.98 4.66 -6 5 C-5.625 3.0625 -5.625 3.0625 -5 1 C-3 0 -3 0 0 0 Z " fill="#000000" transform="translate(619,4)"/>
<path d="M0 0 C0 4.95 0 9.9 0 15 C-0.66 15 -1.32 15 -2 15 C-2.33 11.37 -2.66 7.74 -3 4 C-3.99 4.33 -4.98 4.66 -6 5 C-6 4.01 -6 3.02 -6 2 C-3 0 -3 0 0 0 Z " fill="#000000" transform="translate(35,106)"/>
<path d="M0 0 C5.90184049 3.34969325 5.90184049 3.34969325 8 6 C8 6.99 8 7.98 8 9 C3.75177626 8.52797514 1.80010291 6.03344482 -1 3 C-0.67 2.01 -0.34 1.02 0 0 Z " fill="#000000" transform="translate(596,93)"/>
<path d="M0 0 C0 0.66 0 1.32 0 2 C-1.26418246 2.69965443 -2.53665402 3.38434763 -3.8125 4.0625 C-4.52019531 4.44535156 -5.22789062 4.82820312 -5.95703125 5.22265625 C-8 6 -8 6 -11 5 C-11 4.34 -11 3.68 -11 3 C-9.73581754 2.30034557 -8.46334598 1.61565237 -7.1875 0.9375 C-6.47980469 0.55464844 -5.77210938 0.17179688 -5.04296875 -0.22265625 C-3 -1 -3 -1 0 0 Z " fill="#000000" transform="translate(339,688)"/>
<path d="M0 0 C0 0.66 0 1.32 0 2 C-1.26418246 2.69965443 -2.53665402 3.38434763 -3.8125 4.0625 C-4.52019531 4.44535156 -5.22789062 4.82820312 -5.95703125 5.22265625 C-8 6 -8 6 -11 5 C-11 4.34 -11 3.68 -11 3 C-9.73581754 2.30034557 -8.46334598 1.61565237 -7.1875 0.9375 C-6.47980469 0.55464844 -5.77210938 0.17179688 -5.04296875 -0.22265625 C-3 -1 -3 -1 0 0 Z " fill="#000000" transform="translate(140,165)"/>
<path d="M0 0 C3.3 1.65 6.6 3.3 10 5 C10 5.66 10 6.32 10 7 C5.6109185 6.48964169 2.66291938 5.47785723 -1 3 C-0.67 2.01 -0.34 1.02 0 0 Z " fill="#000000" transform="translate(234,689)"/>
<path d="M0 0 C-0.47202486 4.24822374 -2.96655518 6.19989709 -6 9 C-6.99 8.67 -7.98 8.34 -9 8 C-7.47364599 4.11473526 -4.49771687 0 0 0 Z " fill="#000000" transform="translate(594,196)"/>
<path d="M0 0 C0.99 0 1.98 0 3 0 C2.52797514 4.24822374 0.03344482 6.19989709 -3 9 C-3.99 8.67 -4.98 8.34 -6 8 C-5.07456291 6.65826597 -4.13422595 5.32679841 -3.1875 4 C-2.66542969 3.2575 -2.14335938 2.515 -1.60546875 1.75 C-0.81076172 0.88375 -0.81076172 0.88375 0 0 Z " fill="#000000" transform="translate(104,188)"/>
<path d="M0 0 C0 0.99 0 1.98 0 3 C-4.95 4.485 -4.95 4.485 -10 6 C-10.33 5.01 -10.66 4.02 -11 3 C-4.5 0 -4.5 0 0 0 Z " fill="#000000" transform="translate(158,157)"/>
<path d="M0 0 C4.42679007 1.47559669 4.91432696 3.90057368 7 8 C7 8.66 7 9.32 7 10 C5.140625 9.75390625 5.140625 9.75390625 3 9 C1.734375 7.15234375 1.734375 7.15234375 0.75 4.9375 C0.41484375 4.20402344 0.0796875 3.47054687 -0.265625 2.71484375 C-0.50796875 2.14894531 -0.7503125 1.58304687 -1 1 C-0.67 0.67 -0.34 0.34 0 0 Z " fill="#000000" transform="translate(609,108)"/>
<path d="M0 0 C0.33 0.99 0.66 1.98 1 3 C-0.26239712 3.86658615 -1.53527501 4.71792059 -2.8125 5.5625 C-3.87404297 6.27599609 -3.87404297 6.27599609 -4.95703125 7.00390625 C-7 8 -7 8 -10 7 C-3.18421053 0 -3.18421053 0 0 0 Z " fill="#000000" transform="translate(474,90)"/>
<path d="M0 0 C0 0.99 0 1.98 0 3 C-1.28913487 3.67154933 -2.58140204 4.33708859 -3.875 5 C-4.59429687 5.37125 -5.31359375 5.7425 -6.0546875 6.125 C-8 7 -8 7 -10 7 C-9.875 5.1875 -9.875 5.1875 -9 3 C-5.79116175 1.04679411 -3.7794561 0 0 0 Z " fill="#000000" transform="translate(492,81)"/>
<path d="M0 0 C4.05606165 0.46800711 7.46588679 0.87953208 11 3 C10.67 3.99 10.34 4.98 10 6 C6.7 5.01 3.4 4.02 0 3 C0 2.01 0 1.02 0 0 Z " fill="#000000" transform="translate(560,74)"/>
<path d="M0 0 C3.11198065 1.49836105 6.0534615 3.19933758 9 5 C8.67 5.99 8.34 6.98 8 8 C4.54074837 6.7508258 1.85306797 5.32472205 -1 3 C-0.67 2.01 -0.34 1.02 0 0 Z " fill="#000000" transform="translate(218,679)"/>
<path d="M0 0 C0.99 0 1.98 0 3 0 C5.75 2.8125 5.75 2.8125 8 6 C7.67 6.99 7.34 7.98 7 9 C1.21538462 5.67692308 1.21538462 5.67692308 0.125 2.25 C0.08375 1.5075 0.0425 0.765 0 0 Z " fill="#000000" transform="translate(203,666)"/>
<path d="M0 0 C0.99 0.33 1.98 0.66 3 1 C1.02 3.31 -0.96 5.62 -3 8 C-4.32 7.67 -5.64 7.34 -7 7 C-4.66666667 4.66666667 -2.33333333 2.33333333 0 0 Z " fill="#000000" transform="translate(368,664)"/>
<path d="M0 0 C0.99 0 1.98 0 3 0 C2.52797514 4.24822374 0.03344482 6.19989709 -3 9 C-3.99 8.67 -4.98 8.34 -6 8 C-5.07456291 6.65826597 -4.13422595 5.32679841 -3.1875 4 C-2.66542969 3.2575 -2.14335937 2.515 -1.60546875 1.75 C-0.81076172 0.88375 -0.81076172 0.88375 0 0 Z " fill="#000000" transform="translate(381,650)"/>
<path d="M0 0 C0.66 0 1.32 0 2 0 C1.53199289 4.05606165 1.12046792 7.46588679 -1 11 C-1.99 10.67 -2.98 10.34 -4 10 C-3.52449439 8.51965236 -3.04448784 7.04074979 -2.5625 5.5625 C-2.29566406 4.73878906 -2.02882813 3.91507813 -1.75390625 3.06640625 C-1 1 -1 1 0 0 Z " fill="#000000" transform="translate(412,599)"/>
<path d="M0 0 C0.99 0 1.98 0 3 0 C3.125 7.625 3.125 7.625 2 11 C1.01 11 0.02 11 -1 11 C-0.67 7.37 -0.34 3.74 0 0 Z " fill="#000000" transform="translate(415,580)"/>
<path d="M0 0 C0.99 0 1.98 0 3 0 C3 3.63 3 7.26 3 11 C2.01 11 1.02 11 0 11 C0 7.37 0 3.74 0 0 Z " fill="#000000" transform="translate(416,560)"/>
<path d="M0 0 C0.99 0.33 1.98 0.66 3 1 C3 4.3 3 7.6 3 11 C2.01 11 1.02 11 0 11 C0 7.37 0 3.74 0 0 Z " fill="#000000" transform="translate(417,539)"/>
<path d="M0 0 C0.99 0 1.98 0 3 0 C3 3.63 3 7.26 3 11 C2.01 11 1.02 11 0 11 C0 7.37 0 3.74 0 0 Z " fill="#000000" transform="translate(418,519)"/>
<path d="M0 0 C0.99 0 1.98 0 3 0 C3 3.63 3 7.26 3 11 C2.01 11 1.02 11 0 11 C0 7.37 0 3.74 0 0 Z " fill="#000000" transform="translate(426,337)"/>
<path d="M0 0 C0.99 0 1.98 0 3 0 C3 3.63 3 7.26 3 11 C2.01 11 1.02 11 0 11 C0 7.37 0 3.74 0 0 Z " fill="#000000" transform="translate(427,317)"/>
<path d="M0 0 C0.99 0 1.98 0 3 0 C3 3.63 3 7.26 3 11 C2.01 11 1.02 11 0 11 C0 7.37 0 3.74 0 0 Z " fill="#000000" transform="translate(429,276)"/>
<path d="M0 0 C0.99 0 1.98 0 3 0 C3 3.63 3 7.26 3 11 C2.01 11 1.02 11 0 11 C0 7.37 0 3.74 0 0 Z " fill="#000000" transform="translate(430,256)"/>
<path d="M0 0 C3.3 0 6.6 0 10 0 C10 0.99 10 1.98 10 3 C6.37 3 2.74 3 -1 3 C-0.67 2.01 -0.34 1.02 0 0 Z " fill="#000000" transform="translate(496,236)"/>
<path d="M0 0 C3.63 0 7.26 0 11 0 C11 0.99 11 1.98 11 3 C7.37 3 3.74 3 0 3 C0 2.01 0 1.02 0 0 Z " fill="#000000" transform="translate(475,236)"/>
<path d="M0 0 C0 0.99 0 1.98 0 3 C-4.95 4.485 -4.95 4.485 -10 6 C-9.67 4.68 -9.34 3.36 -9 2 C-5.82254537 0.61849799 -3.46877176 0 0 0 Z " fill="#000000" transform="translate(545,227)"/>
<path d="M0 0 C0.99 0.33 1.98 0.66 3 1 C1.68 4.3 0.36 7.6 -1 11 C-1.99 10.67 -2.98 10.34 -4 10 C-2.68 6.7 -1.36 3.4 0 0 Z " fill="#000000" transform="translate(82,221)"/>
<path d="M0 0 C0.99 0 1.98 0 3 0 C3 3.63 3 7.26 3 11 C2.01 11 1.02 11 0 11 C0 7.37 0 3.74 0 0 Z " fill="#000000" transform="translate(432,215)"/>
<path d="M0 0 C0.99 0 1.98 0 3 0 C1.66511872 3.59391114 0.03977277 6.75490696 -2 10 C-2.99 9.67 -3.98 9.34 -5 9 C-3.76067171 5.56801397 -2.49698489 2.69674368 0 0 Z " fill="#000000" transform="translate(92,204)"/>
<path d="M0 0 C3.48670834 1.1094072 6.77484237 2.26337666 10 4 C9.67 4.99 9.34 5.98 9 7 C4.05 5.02 4.05 5.02 -1 3 C-0.67 2.01 -0.34 1.02 0 0 Z " fill="#000000" transform="translate(344,187)"/>
<path d="M0 0 C0.66 0.33 1.32 0.66 2 1 C0.50958227 4.79379058 -1.69062512 6.68343758 -5 9 C-5.66 9 -6.32 9 -7 9 C-6.82374165 6.62051228 -6.30280227 5.29774151 -4.59765625 3.62109375 C-3.09350908 2.37884514 -1.54870149 1.18623944 0 0 Z " fill="#000000" transform="translate(120,174)"/>
<path d="M0 0 C4.95 0.99 4.95 0.99 10 2 C10.33 2.99 10.66 3.98 11 5 C9.54119891 4.85892253 8.08296449 4.71197585 6.625 4.5625 C5.40683594 4.44068359 5.40683594 4.44068359 4.1640625 4.31640625 C2 4 2 4 0 3 C0 2.01 0 1.02 0 0 Z " fill="#000000" transform="translate(267,160)"/>
<path d="M0 0 C3.63 0 7.26 0 11 0 C11 0.99 11 1.98 11 3 C7.37 3 3.74 3 0 3 C0 2.01 0 1.02 0 0 Z " fill="#000000" transform="translate(187,151)"/>
<path d="M0 0 C0.99 0.33 1.98 0.66 3 1 C3 1.66 3 2.32 3 3 C1.57421875 4.32421875 1.57421875 4.32421875 -0.3125 5.6875 C-0.92738281 6.14511719 -1.54226563 6.60273437 -2.17578125 7.07421875 C-2.77777344 7.37972656 -3.37976563 7.68523437 -4 8 C-4.99 7.67 -5.98 7.34 -7 7 C-4.66666667 4.66666667 -2.33333333 2.33333333 0 0 Z " fill="#000000" transform="translate(455,102)"/>
<path d="M0 0 C3.63 0.33 7.26 0.66 11 1 C11 1.99 11 2.98 11 4 C9.54176788 4.0270043 8.08339325 4.04639787 6.625 4.0625 C5.81289063 4.07410156 5.00078125 4.08570313 4.1640625 4.09765625 C2 4 2 4 0 3 C0 2.01 0 1.02 0 0 Z " fill="#000000" transform="translate(271,701)"/>
<path d="M0 0 C0 0.66 0 1.32 0 2 C-1.4577353 2.335939 -2.91621106 2.66866624 -4.375 3 C-5.59316406 3.2784375 -5.59316406 3.2784375 -6.8359375 3.5625 C-9 4 -9 4 -11 4 C-11 3.01 -11 2.02 -11 1 C-9.5437328 0.63743142 -8.08488815 0.28520207 -6.625 -0.0625 C-5.40683594 -0.35833984 -5.40683594 -0.35833984 -4.1640625 -0.66015625 C-2 -1 -2 -1 0 0 Z " fill="#000000" transform="translate(302,701)"/>
<path d="M0 0 C5.445 1.485 5.445 1.485 11 3 C10.01 4.485 10.01 4.485 9 6 C6.03 5.01 3.06 4.02 0 3 C0 2.01 0 1.02 0 0 Z " fill="#000000" transform="translate(252,697)"/>
<path d="M0 0 C0 0.66 0 1.32 0 2 C-1.26839526 2.50615298 -2.53983102 3.00469099 -3.8125 3.5 C-4.87404297 3.91765625 -4.87404297 3.91765625 -5.95703125 4.34375 C-8 5 -8 5 -11 5 C-11 4.01 -11 3.02 -11 2 C-9.54494642 1.47007308 -8.08581873 0.9513211 -6.625 0.4375 C-5.81289063 0.14746094 -5.00078125 -0.14257812 -4.1640625 -0.44140625 C-2 -1 -2 -1 0 0 Z " fill="#000000" transform="translate(321,696)"/>
<path d="M0 0 C0.99 0.99 1.98 1.98 3 3 C1.90241493 3.84198307 0.79664683 4.67330671 -0.3125 5.5 C-0.92738281 5.9640625 -1.54226563 6.428125 -2.17578125 6.90625 C-4 8 -4 8 -7 8 C-7 7.01 -7 6.02 -7 5 C-5.46875 3.61328125 -5.46875 3.61328125 -3.5 2.3125 C-2.8503125 1.87550781 -2.200625 1.43851563 -1.53125 0.98828125 C-1.0259375 0.66214844 -0.520625 0.33601562 0 0 Z " fill="#000000" transform="translate(353,676)"/>
<path d="M0 0 C0.66 0.33 1.32 0.66 2 1 C0.7508258 4.45925163 -0.67527795 7.14693203 -3 10 C-3.99 9.67 -4.98 9.34 -6 9 C-2.25 2.25 -2.25 2.25 0 0 Z " fill="#000000" transform="translate(394,634)"/>
<path d="M0 0 C0.99 0.99 1.98 1.98 3 3 C2.24172908 4.17487036 1.46792245 5.33972592 0.6875 6.5 C0.25824219 7.1496875 -0.17101562 7.799375 -0.61328125 8.46875 C-1.07089844 8.9740625 -1.52851563 9.479375 -2 10 C-2.99 10 -3.98 10 -5 10 C-4.38545304 6.00544473 -2.29353263 3.25533664 0 0 Z " fill="#000000" transform="translate(216,537)"/>
<path d="M0 0 C0.66 0 1.32 0 2 0 C2 3.63 2 7.26 2 11 C1.01 11 0.02 11 -1 11 C-1.02688151 9.35425434 -1.04634123 7.70838587 -1.0625 6.0625 C-1.07410156 5.14597656 -1.08570313 4.22945313 -1.09765625 3.28515625 C-1 1 -1 1 0 0 Z " fill="#000000" transform="translate(429,296)"/>
<path d="M0 0 C0.99 0 1.98 0 3 0 C3 3.3 3 6.6 3 10 C2.01 10.33 1.02 10.66 0 11 C0 7.37 0 3.74 0 0 Z " fill="#000000" transform="translate(431,236)"/>
<path d="M0 0 C7.42857143 -0.14285714 7.42857143 -0.14285714 11 1 C11 1.99 11 2.98 11 4 C7.7 3.67 4.4 3.34 1 3 C0.67 2.01 0.34 1.02 0 0 Z " fill="#000000" transform="translate(455,234)"/>
<path d="M0 0 C0.53625 0.226875 1.0725 0.45375 1.625 0.6875 C-1.09978774 4.05341427 -4.44356792 5.12976276 -8.375 6.6875 C-8.375 5.3675 -8.375 4.0475 -8.375 2.6875 C-2.95961538 -0.38942308 -2.95961538 -0.38942308 0 0 Z " fill="#000000" transform="translate(561.375,219.3125)"/>
<path d="M0 0 C4.12751449 0.60698743 7.3321148 2.03810791 11 4 C10.67 4.66 10.34 5.32 10 6 C6.44219804 5.39009109 3.3171411 4.4216319 0 3 C0 2.01 0 1.02 0 0 Z " fill="#000000" transform="translate(397,216)"/>
<path d="M0 0 C0.66 0.33 1.32 0.66 2 1 C0.55527654 4.80881639 -1.32603071 6.29742886 -5 8 C-5.99 7.67 -6.98 7.34 -8 7 C-5.42215154 4.35247996 -3.08351902 2.05567935 0 0 Z " fill="#000000" transform="translate(577,208)"/>
<path d="M0 0 C2.97 1.65 5.94 3.3 9 5 C8.67 5.99 8.34 6.98 8 8 C5.36 6.68 2.72 5.36 0 4 C0 2.68 0 1.36 0 0 Z " fill="#000000" transform="translate(380,206)"/>
<path d="M0 0 C1.29640378 0.59393382 2.58698839 1.20057989 3.875 1.8125 C4.59429687 2.14894531 5.31359375 2.48539063 6.0546875 2.83203125 C8 4 8 4 10 7 C4.95749572 7 3.22094347 5.59750368 -1 3 C-0.67 2.01 -0.34 1.02 0 0 Z " fill="#000000" transform="translate(362,195)"/>
<path d="M0 0 C0.99 0 1.98 0 3 0 C3 3.3 3 6.6 3 10 C2.01 10.33 1.02 10.66 0 11 C0 7.37 0 3.74 0 0 Z " fill="#000000" transform="translate(433,195)"/>
<path d="M0 0 C0.99 0 1.98 0 3 0 C2.42647107 3.87132028 0.51295648 6.08172796 -2 9 C-2.99 8.67 -3.98 8.34 -5 8 C-3.38731308 5.28775382 -1.75098126 2.62647188 0 0 Z " fill="#000000" transform="translate(604,182)"/>
<path d="M0 0 C3.3 0.99 6.6 1.98 10 3 C10 3.99 10 4.98 10 6 C6.28111761 5.49287967 3.26545761 4.88391785 0 3 C0 2.01 0 1.02 0 0 Z " fill="#000000" transform="translate(306,172)"/>
<path d="M0 0 C-0.33 0.99 -0.66 1.98 -1 3 C-4.3 3.33 -7.6 3.66 -11 4 C-11 3.01 -11 2.02 -11 1 C-7.32589215 -0.17571451 -3.83070817 -0.07366746 0 0 Z " fill="#000000" transform="translate(178,153)"/>
<path d="M0 0 C3.3 0 6.6 0 10 0 C10.33 0.99 10.66 1.98 11 3 C7.37 3 3.74 3 0 3 C0 2.01 0 1.02 0 0 Z " fill="#000000" transform="translate(207,151)"/>
<path d="M0 0 C0.99 0 1.98 0 3 0 C3.14285714 7.42857143 3.14285714 7.42857143 2 11 C1.01 10.67 0.02 10.34 -1 10 C-0.67 6.7 -0.34 3.4 0 0 Z " fill="#000000" transform="translate(618,146)"/>
<path d="M0 0 C0 0.99 0 1.98 0 3 C-4.95 4.485 -4.95 4.485 -10 6 C-10.33 5.01 -10.66 4.02 -11 3 C-9.73160474 2.49384702 -8.46016898 1.99530901 -7.1875 1.5 C-6.12595703 1.08234375 -6.12595703 1.08234375 -5.04296875 0.65625 C-3 0 -3 0 0 0 Z " fill="#000000" transform="translate(511,74)"/>
<path d="M0 0 C1.22589844 0.01353516 1.22589844 0.01353516 2.4765625 0.02734375 C3.41628906 0.04474609 3.41628906 0.04474609 4.375 0.0625 C4.375 1.0525 4.375 2.0425 4.375 3.0625 C1.075 3.3925 -2.225 3.7225 -5.625 4.0625 C-5.955 3.0725 -6.285 2.0825 -6.625 1.0625 C-4.21954362 -0.14022819 -2.67503047 -0.03821472 0 0 Z " fill="#000000" transform="translate(526.625,70.9375)"/>
<path d="M0 0 C0.99 0 1.98 0 3 0 C4.31626692 3.61973402 5 6.09567131 5 10 C4.01 10 3.02 10 2 10 C1.34 6.7 0.68 3.4 0 0 Z " fill="#000000" transform="translate(196,648)"/>
<path d="M0 0 C0.99 0 1.98 0 3 0 C3.66 3.3 4.32 6.6 5 10 C4.01 10.33 3.02 10.66 2 11 C1.34 7.37 0.68 3.74 0 0 Z " fill="#000000" transform="translate(192,629)"/>
<path d="M0 0 C0.66 0.33 1.32 0.66 2 1 C1.47557578 4.7758544 0.67345333 7.22372155 -2 10 C-2.99 10 -3.98 10 -5 10 C-3.66511872 6.40608886 -2.03977277 3.24509304 0 0 Z " fill="#000000" transform="translate(404,617)"/>
<path d="M0 0 C0.99 0.33 1.98 0.66 3 1 C2.67 4.3 2.34 7.6 2 11 C1.01 11 0.02 11 -1 11 C-0.67 7.37 -0.34 3.74 0 0 Z " fill="#000000" transform="translate(193,590)"/>
<path d="M0 0 C0.99 0 1.98 0 3 0 C3.0270043 1.45823212 3.04639787 2.91660675 3.0625 4.375 C3.07410156 5.18710937 3.08570313 5.99921875 3.09765625 6.8359375 C3 9 3 9 2 11 C1.34 11 0.68 11 0 11 C0 7.37 0 3.74 0 0 Z " fill="#000000" transform="translate(419,499)"/>
<path d="M0 0 C0.99 0 1.98 0 3 0 C3.14285714 7.42857143 3.14285714 7.42857143 2 11 C1.01 11 0.02 11 -1 11 C-0.67 7.37 -0.34 3.74 0 0 Z " fill="#000000" transform="translate(421,458)"/>
<path d="M0 0 C0.99 0 1.98 0 3 0 C2.67 3.63 2.34 7.26 2 11 C1.01 11 0.02 11 -1 11 C-0.67 7.37 -0.34 3.74 0 0 Z " fill="#000000" transform="translate(423,418)"/>
<path d="M0 0 C0.99 0 1.98 0 3 0 C2.67 3.63 2.34 7.26 2 11 C1.01 11 0.02 11 -1 11 C-1.14285714 3.57142857 -1.14285714 3.57142857 0 0 Z " fill="#000000" transform="translate(424,398)"/>
<path d="M0 0 C0.66 0 1.32 0 2 0 C2 3.63 2 7.26 2 11 C1.01 11 0.02 11 -1 11 C-1.0270043 9.54176788 -1.04639787 8.08339325 -1.0625 6.625 C-1.07410156 5.81289063 -1.08570313 5.00078125 -1.09765625 4.1640625 C-1 2 -1 2 0 0 Z " fill="#000000" transform="translate(426,357)"/>
<path d="M0 0 C0 0.99 0 1.98 0 3 C-3.3 3.33 -6.6 3.66 -10 4 C-10.33 3.01 -10.66 2.02 -11 1 C-7.32589215 -0.17571451 -3.83070817 -0.07366746 0 0 Z " fill="#000000" transform="translate(526,233)"/>
<path d="M0 0 C1.48206495 0.254496 2.96068615 0.52911762 4.4375 0.8125 C5.67306641 1.03873047 5.67306641 1.03873047 6.93359375 1.26953125 C7.61550781 1.51058594 8.29742187 1.75164062 9 2 C9.33 2.99 9.66 3.98 10 5 C8.54119891 4.85892253 7.08296449 4.71197585 5.625 4.5625 C4.40683594 4.44068359 4.40683594 4.44068359 3.1640625 4.31640625 C1 4 1 4 -1 3 C-0.67 2.01 -0.34 1.02 0 0 Z " fill="#000000" transform="translate(436,229)"/>
<path d="M0 0 C3.3 0.99 6.6 1.98 10 3 C10 3.99 10 4.98 10 6 C5.545 5.01 5.545 5.01 1 4 C0.67 2.68 0.34 1.36 0 0 Z " fill="#000000" transform="translate(416,223)"/>
<path d="M0 0 C4.95 1.98 4.95 1.98 10 4 C10 4.99 10 5.98 10 7 C8.51515588 6.60404157 7.0371169 6.18249294 5.5625 5.75 C4.73878906 5.51796875 3.91507812 5.2859375 3.06640625 5.046875 C2.38449219 4.70140625 1.70257813 4.3559375 1 4 C0.67 2.68 0.34 1.36 0 0 Z " fill="#000000" transform="translate(325,179)"/>
<path d="M0 0 C3.3 0.66 6.6 1.32 10 2 C10 2.99 10 3.98 10 5 C5.94393835 4.53199289 2.53411321 4.12046792 -1 2 C-0.67 1.34 -0.34 0.68 0 0 Z " fill="#000000" transform="translate(287,166)"/>
<path d="M0 0 C0.99 0.33 1.98 0.66 3 1 C3.14285714 8.42857143 3.14285714 8.42857143 2 12 C1.01 11.67 0.02 11.34 -1 11 C-0.67 7.37 -0.34 3.74 0 0 Z " fill="#000000" transform="translate(435,154)"/>
<path d="M0 0 C0.99 0 1.98 0 3 0 C2.67 3.63 2.34 7.26 2 11 C1.01 11 0.02 11 -1 11 C-0.67 7.37 -0.34 3.74 0 0 Z " fill="#000000" transform="translate(436,134)"/>
<path d="M0 0 C2.67927341 4.01891012 2.15601248 6.24161923 2 11 C1.01 11 0.02 11 -1 11 C-1.33 7.7 -1.66 4.4 -2 1 C-1.34 0.67 -0.68 0.34 0 0 Z " fill="#000000" transform="translate(619,126)"/>
<path d="M0 0 C0.99 0.33 1.98 0.66 3 1 C2.2884375 1.8353125 2.2884375 1.8353125 1.5625 2.6875 C-0.12395996 5.18346074 -0.58953107 7.0446237 -1 10 C-1.99 10 -2.98 10 -4 10 C-3.38461538 3.47692308 -3.38461538 3.47692308 -1.4375 1.0625 C-0.7259375 0.5365625 -0.7259375 0.5365625 0 0 Z " fill="#000000" transform="translate(440,115)"/>
<path d="M0 0 C1.29640378 0.59393382 2.58698839 1.20057989 3.875 1.8125 C4.59429688 2.14894531 5.31359375 2.48539062 6.0546875 2.83203125 C8 4 8 4 10 7 C5.25852179 7 3.64977257 5.90322818 0 3 C0 2.01 0 1.02 0 0 Z " fill="#000000" transform="translate(579,81)"/>
<path d="M0 0 C0.99 0 1.98 0 3 0 C2.34 2.97 1.68 5.94 1 9 C-0.32 9.33 -1.64 9.66 -3 10 C-2.01 6.7 -1.02 3.4 0 0 Z " fill="#000000" transform="translate(198,572)"/>
<path d="M0 0 C0.99 0 1.98 0 3 0 C3.125 7.625 3.125 7.625 2 11 C1.34 11 0.68 11 0 11 C0 7.37 0 3.74 0 0 Z " fill="#000000" transform="translate(420,479)"/>
<path d="M0 0 C0.99 0 1.98 0 3 0 C2.67 3.63 2.34 7.26 2 11 C1.01 11 0.02 11 -1 11 C-0.67 7.37 -0.34 3.74 0 0 Z " fill="#000000" transform="translate(422,438)"/>
<path d="M0 0 C0.99 0 1.98 0 3 0 C3.125 7.625 3.125 7.625 2 11 C1.34 11 0.68 11 0 11 C0 7.37 0 3.74 0 0 Z " fill="#000000" transform="translate(434,175)"/>
<path d="M0 0 C0.99 0 1.98 0 3 0 C1.8905928 3.48670834 0.73662334 6.77484237 -1 10 C-1.99 9.67 -2.98 9.34 -4 9 C-2.68 6.03 -1.36 3.06 0 0 Z " fill="#000000" transform="translate(614,165)"/>
<path d="M0 0 C2.97 0.33 5.94 0.66 9 1 C9.33 1.99 9.66 2.98 10 4 C6.7 3.67 3.4 3.34 0 3 C0 2.01 0 1.02 0 0 Z " fill="#000000" transform="translate(248,156)"/>
<path d="M0 0 C6.625 -0.125 6.625 -0.125 10 1 C10 1.99 10 2.98 10 4 C6.7 3.67 3.4 3.34 0 3 C0 2.01 0 1.02 0 0 Z " fill="#000000" transform="translate(228,153)"/>
<path d="M0 0 C3.3 0 6.6 0 10 0 C10.33 0.99 10.66 1.98 11 3 C9.54176788 3.0270043 8.08339325 3.04639787 6.625 3.0625 C5.81289063 3.07410156 5.00078125 3.08570312 4.1640625 3.09765625 C2 3 2 3 0 2 C0 1.34 0 0.68 0 0 Z " fill="#000000" transform="translate(540,71)"/>
<path d="M0 0 C0.66 0 1.32 0 2 0 C2 3.63 2 7.26 2 11 C1.01 11 0.02 11 -1 11 C-1.14285714 3.57142857 -1.14285714 3.57142857 0 0 Z " fill="#000000" transform="translate(425,377)"/>
<path d="M0 0 C0.66 0 1.32 0 2 0 C1.43697042 3.94120709 0.3208055 6.7508723 -2 10 C-2.66 10 -3.32 10 -4 10 C-3.43697042 6.05879291 -2.3208055 3.2491277 0 0 Z " fill="#000000" transform="translate(206,554)"/>
<path d="M0 0 C0.66 0 1.32 0 2 0 C2 3.3 2 6.6 2 10 C1.34 10 0.68 10 0 10 C-1.125 2.25 -1.125 2.25 0 0 Z " fill="#000000" transform="translate(192,610)"/>
<path d="M0 0 C0.66 0.33 1.32 0.66 2 1 C1.1875 2.9375 1.1875 2.9375 0 5 C-0.99 5.33 -1.98 5.66 -3 6 C-2.42655063 3.13275314 -2.1385485 2.1385485 0 0 Z " fill="#000000" transform="translate(226,526)"/>
<path d="M0 0 C0.99 0.33 1.98 0.66 3 1 C2.67 1.99 2.34 2.98 2 4 C1.01 3.01 0.02 2.02 -1 1 C-0.67 0.67 -0.34 0.34 0 0 Z " fill="#000000" transform="translate(305,366)"/>
<path d="M0 0 C0.99 0.33 1.98 0.66 3 1 C2.67 1.99 2.34 2.98 2 4 C1.01 3.01 0.02 2.02 -1 1 C-0.67 0.67 -0.34 0.34 0 0 Z " fill="#000000" transform="translate(26,118)"/>
<path d="M0 0 C0.99 0.33 1.98 0.66 3 1 C2.67 1.99 2.34 2.98 2 4 C1.01 3.01 0.02 2.02 -1 1 C-0.67 0.67 -0.34 0.34 0 0 Z " fill="#000000" transform="translate(622,16)"/>
</svg>
