<?xml version="1.0" encoding="UTF-8"?>
<svg version="1.1" xmlns="http://www.w3.org/2000/svg" width="692" height="790">
<path d="M0 0 C3.07877627 2.71530284 6.03000504 5.54836588 8.9453125 8.4375 C9.8115625 9.29085937 10.6778125 10.14421875 11.5703125 11.0234375 C27.78716241 27.89909694 41.39153118 53.67524712 41.9453125 77.4375 C40.6253125 77.4375 39.3053125 77.4375 37.9453125 77.4375 C37.83050537 76.88513672 37.71569824 76.33277344 37.59741211 75.76367188 C34.95577607 63.30268625 31.76244839 51.79548034 25.9453125 40.4375 C25.63190918 39.82293945 25.31850586 39.20837891 24.99560547 38.57519531 C11.25969647 12.13688751 -11.67497971 -6.59376739 -39.6171875 -16.375 C-66.24625159 -24.72645938 -94.78110432 -24.5379489 -122.0546875 -19.5625 C-123.33762695 -19.3449707 -123.33762695 -19.3449707 -124.64648438 -19.12304688 C-141.37249759 -16.23321213 -157.28795552 -10.78779808 -173.3046875 -5.3046875 C-174.32216568 -4.95794731 -174.32216568 -4.95794731 -175.36019897 -4.60420227 C-179.68681668 -3.10562529 -183.86806678 -1.40702639 -188.0546875 0.4375 C-186.9203125 0.89125 -185.7859375 1.345 -184.6171875 1.8125 C-181.0546875 3.4375 -181.0546875 3.4375 -180.0546875 5.4375 C-178.78238281 4.74914063 -178.78238281 4.74914063 -177.484375 4.046875 C-163.47727869 -3.34967801 -149.79332165 -6.6882836 -133.9765625 -6.765625 C-133.01991196 -6.77259399 -132.06326141 -6.77956299 -131.07762146 -6.78674316 C-127.98659866 -6.80411979 -124.89575718 -6.8104685 -121.8046875 -6.8125 C-120.22417099 -6.81401062 -120.22417099 -6.81401062 -118.61172485 -6.81555176 C-101.90262841 -6.8047435 -85.57950046 -6.23661571 -69.0546875 -3.5625 C-68.18730957 -3.42859863 -67.31993164 -3.29469727 -66.42626953 -3.15673828 C-36.99846496 1.5989794 -6.90462857 23.84613458 10.9453125 47.4375 C16.37866234 55.2603859 20.55270878 63.25930824 23.8828125 72.1875 C24.30639038 73.32034424 24.30639038 73.32034424 24.73852539 74.47607422 C37.83750502 111.60925277 24.2589036 164.63260168 7.96044922 199.00537109 C4.55115457 205.91415336 0.73404602 212.38022779 -4.0546875 218.4375 C-4.97701172 219.62279297 -4.97701172 219.62279297 -5.91796875 220.83203125 C-10.60620712 226.49737742 -15.53091313 230.10225703 -22.0546875 233.4375 C-23.26705078 234.08138672 -23.26705078 234.08138672 -24.50390625 234.73828125 C-36.20194613 240.52460113 -49.18026599 243.23498021 -61.9296875 245.625 C-62.74091064 245.77976807 -63.55213379 245.93453613 -64.38793945 246.09399414 C-81.47389023 249.1213632 -98.4935595 249.71861533 -115.8046875 249.5625 C-117.78515162 249.55243039 -119.76562082 249.54331171 -121.74609375 249.53515625 C-126.51575441 249.5135033 -131.28516177 249.47920288 -136.0546875 249.4375 C-136.20055839 266.69037946 -135.86151202 283.90190076 -135.27066994 301.14327145 C-133.80144672 344.17113621 -132.83495721 387.0753255 -135.8671875 430.0625 C-135.94986877 431.23879974 -136.03255005 432.41509949 -136.11773682 433.62704468 C-137.6925176 455.43727787 -140.4807845 476.79893748 -144.8515625 498.22460938 C-145.43066885 501.06731725 -145.9973041 503.91230981 -146.5625 506.7578125 C-150.17794494 524.79553421 -154.53584662 542.49009903 -160.1796875 560 C-160.65662103 561.49492107 -161.13292303 562.99004373 -161.60864258 564.48535156 C-162.34630163 566.80331373 -163.08452519 569.12108274 -163.82521057 571.43807983 C-165.55179002 576.84075671 -167.25058314 582.25157269 -168.93359375 587.66796875 C-188.36977835 650.1794954 -188.36977835 650.1794954 -201.0546875 665.4375 C-201.4765332 665.95119141 -201.89837891 666.46488281 -202.33300781 666.99414062 C-205.51416914 670.86107501 -208.7699615 674.65845857 -212.0546875 678.4375 C-212.73789062 679.23414063 -213.42109375 680.03078125 -214.125 680.8515625 C-239.46058568 709.76393675 -269.64818499 734.95913786 -309.3046875 738.1875 C-311.89136228 738.3004432 -314.46707913 738.38583098 -317.0546875 738.4375 C-317.8585791 738.45796387 -318.6624707 738.47842773 -319.49072266 738.49951172 C-355.23526035 739.30718475 -390.45680089 733.93919436 -422.0546875 716.4375 C-423.26387253 715.79342456 -424.47350699 715.15019216 -425.68359375 714.5078125 C-434.1476675 709.9309857 -441.62474366 704.51926855 -449.0546875 698.4375 C-449.828125 697.80714844 -450.6015625 697.17679688 -451.3984375 696.52734375 C-456.11149367 692.54843671 -460.14833999 688.20247043 -464.0546875 683.4375 C-464.66401123 682.70466797 -464.66401123 682.70466797 -465.28564453 681.95703125 C-485.02820211 658.10715548 -499.07064514 630.09785475 -497.0546875 598.4375 C-493.38898239 559.54363435 -484.5327845 497.72616928 -457.0546875 468.4375 C-434.42484467 451.12872832 -401.77692223 441.54142786 -373.4921875 441.1875 C-372.25339844 441.16171875 -371.01460937 441.1359375 -369.73828125 441.109375 C-362.67999833 441.73810858 -357.91408874 444.96250703 -352.7421875 449.5625 C-352.18241211 450.04968506 -351.62263672 450.53687012 -351.04589844 451.03881836 C-349.91093541 452.02972839 -348.77952365 453.02472198 -347.65185547 454.02392578 C-346.21387513 455.29661091 -344.7620531 456.55361534 -343.30859375 457.80859375 C-333.0550353 466.78245692 -320.52296041 478.20953964 -318.8046875 492.51953125 C-318.48583875 498.36841308 -319.58836006 502.70060517 -323.0546875 507.4375 C-328.7712925 512.65112747 -335.32499596 516.56607378 -342.0546875 520.3125 C-342.96460449 520.8271582 -343.87452148 521.34181641 -344.81201172 521.87207031 C-349.8406509 524.70018611 -354.91077346 527.42975044 -360.03564453 530.07885742 C-367.52971983 533.95389681 -374.55528554 537.98817148 -381.0546875 543.4375 C-382.06789063 544.25154297 -382.06789063 544.25154297 -383.1015625 545.08203125 C-389.79634307 551.41918465 -391.08886976 560.78830812 -393.0546875 569.4375 C-393.3021875 570.42105469 -393.5496875 571.40460937 -393.8046875 572.41796875 C-396.19913635 583.14310424 -397.47694833 596.74045107 -391.52734375 606.40234375 C-391.04136719 607.07394531 -390.55539062 607.74554687 -390.0546875 608.4375 C-389.62027344 609.07816406 -389.18585938 609.71882812 -388.73828125 610.37890625 C-382.18499479 619.02326987 -371.46604943 623.53480757 -361.0546875 625.4375 C-344.31552631 627.12226223 -327.25856935 624.93167366 -313.0546875 615.4375 C-312.46429688 615.05980469 -311.87390625 614.68210937 -311.265625 614.29296875 C-300.34108384 606.3656735 -296.41458054 590.3543782 -294.078125 577.7890625 C-293.90569275 576.8683345 -293.7332605 575.94760651 -293.55560303 574.99897766 C-291.77387042 565.24994422 -290.47810465 555.46319027 -289.3046875 545.625 C-289.18517731 544.64122375 -289.06566711 543.65744751 -288.9425354 542.64385986 C-286.23051204 520.23392487 -283.98905586 497.77283291 -281.7421875 475.3125 C-281.609049 473.98414942 -281.609049 473.98414942 -281.47322083 472.62896347 C-280.9549241 467.45513343 -280.44022668 462.28096522 -279.93062019 457.10627174 C-279.7742276 455.5198266 -279.61716514 453.93344731 -279.45934868 452.34714317 C-279.23958527 450.13384169 -279.02305869 447.92024513 -278.80737305 445.70654297 C-278.68557175 444.46645477 -278.56377045 443.22636658 -278.4382782 441.94869995 C-277.44166776 430.69207303 -276.90931869 419.50761834 -276.95703125 408.20727539 C-276.95895818 406.85798702 -276.9604183 405.50869792 -276.9614563 404.15940857 C-276.96458363 401.28353053 -276.97080128 398.40768294 -276.97952271 395.53181648 C-276.99326867 390.94735589 -276.99898727 386.3629047 -277.00366211 381.77842712 C-277.01562009 371.19878477 -277.0375175 360.61916777 -277.05989075 350.03954315 C-277.0802717 340.37335012 -277.09831649 330.70716676 -277.10810566 321.04095644 C-277.11218916 317.24735733 -277.11830469 313.45378823 -277.12985229 309.66020393 C-277.17655805 294.13432117 -277.08980871 278.62671952 -276.609375 263.10717773 C-276.56986221 261.81427102 -276.53034943 260.52136431 -276.48963928 259.1892786 C-275.99958502 244.79186033 -275.10574488 230.5367731 -272.0546875 216.4375 C-272.59923584 216.26371826 -273.14378418 216.08993652 -273.70483398 215.91088867 C-278.46564489 214.3619581 -283.10965948 212.65083818 -287.73461914 210.73608398 C-316.49134319 198.83441287 -346.4484775 190.89866337 -377.0546875 185.4375 C-377.77027832 185.30472656 -378.48586914 185.17195312 -379.22314453 185.03515625 C-411.2833794 179.25766012 -451.13767085 181.92582363 -478.984375 200.37890625 C-481.46771027 202.29362737 -483.76598334 204.29479938 -486.0546875 206.4375 C-486.90546875 207.20964844 -487.75625 207.98179687 -488.6328125 208.77734375 C-506.64694717 225.84762406 -511.58887003 247.92028599 -512.35449219 271.91381836 C-512.75208945 284.2664424 -512.75208945 284.2664424 -516.4765625 288.96484375 C-524.29705823 296.26268259 -533.17888279 297.81856259 -543.5546875 297.75 C-544.45396973 297.74508545 -545.35325195 297.7401709 -546.27978516 297.73510742 C-566.15313926 297.40257747 -588.36792423 295.94226988 -604.0546875 282.4375 C-604.63734375 281.95023437 -605.22 281.46296875 -605.8203125 280.9609375 C-616.25610581 270.68326227 -617.455292 250.06044411 -620.0546875 236.4375 C-620.30476562 235.19613281 -620.55484375 233.95476562 -620.8125 232.67578125 C-623.32628913 218.84994102 -622.43892745 205.18526844 -620.3046875 191.375 C-620.14790527 190.34084961 -619.99112305 189.30669922 -619.82958984 188.24121094 C-618.2352772 178.76705009 -614.86486065 170.47263641 -610.3046875 162.0625 C-609.79035156 161.10887573 -609.79035156 161.10887573 -609.265625 160.13598633 C-595.07935094 134.25833266 -575.24030537 117.11642117 -550.0546875 102.4375 C-548.88386928 101.72696655 -547.71330609 101.01601273 -546.54296875 100.3046875 C-496.20114224 70.26049552 -420.00489842 51.30280906 -361.91699219 65.1875 C-327.13101609 74.06115909 -293.26967744 87.17061226 -261.82446289 104.48291016 C-259.92085416 105.50968766 -257.99351768 106.47915099 -256.0546875 107.4375 C-255.88622314 106.1213269 -255.88622314 106.1213269 -255.71435547 104.77856445 C-255.05172674 101.42250444 -254.06516141 99.0073609 -252.5 95.98046875 C-251.7102478 94.4483374 -251.7102478 94.4483374 -250.90454102 92.88525391 C-250.33533936 91.80937012 -249.7661377 90.73348633 -249.1796875 89.625 C-248.59179443 88.50786621 -248.00390137 87.39073242 -247.39819336 86.23974609 C-242.44038013 76.93991391 -237.10153172 68.06438459 -231.0546875 59.4375 C-230.52262695 58.67244141 -229.99056641 57.90738281 -229.44238281 57.11914062 C-221.45113376 45.7109755 -212.82054161 35.35607815 -203.0546875 25.4375 C-201.95391605 24.29867082 -200.85364582 23.15935693 -199.75390625 22.01953125 C-194.8485884 16.97958416 -190.01950062 12.23329016 -184.0546875 8.4375 C-186.73701411 6.64928226 -189.35757711 5.23607396 -192.2421875 3.8125 C-193.14324219 3.36648437 -194.04429687 2.92046875 -194.97265625 2.4609375 C-196.00326172 1.95433594 -196.00326172 1.95433594 -197.0546875 1.4375 C-196.42790579 -2.22422475 -195.41016904 -5.4443995 -193.9921875 -8.875 C-193.62996094 -9.75800781 -193.26773437 -10.64101563 -192.89453125 -11.55078125 C-192.47880859 -12.54658203 -192.47880859 -12.54658203 -192.0546875 -13.5625 C-190.7346875 -13.5625 -189.4146875 -13.5625 -188.0546875 -13.5625 C-188.56675894 -9.80730943 -189.2721957 -6.89561475 -191.0546875 -3.5625 C-189.91257812 -4.0471875 -188.77046875 -4.531875 -187.59375 -5.03125 C-129.73763641 -29.1288614 -52.50077587 -44.04157158 0 0 Z M-206.36328125 37.15625 C-225.54556979 59.19963425 -247.6703943 88.068628 -253.0546875 117.4375 C-253.86808594 116.89222656 -254.68148438 116.34695312 -255.51953125 115.78515625 C-289.30004294 93.41528511 -330.52072277 78.03715625 -370.0546875 69.4375 C-371.14007813 69.19644531 -372.22546875 68.95539063 -373.34375 68.70703125 C-433.37268899 57.82587321 -510.80205766 81.90278642 -560.4296875 115.9375 C-562.99574057 117.73861631 -565.5317833 119.5765134 -568.0546875 121.4375 C-568.68665039 121.90188477 -569.31861328 122.36626953 -569.96972656 122.84472656 C-591.05247709 138.48118992 -609.20346642 163.23526523 -614.0546875 189.4375 C-614.27640625 190.62472656 -614.498125 191.81195313 -614.7265625 193.03515625 C-618.42789567 216.41857862 -614.58136845 239.1182116 -608.4921875 261.8125 C-608.30696533 262.5125415 -608.12174316 263.21258301 -607.9309082 263.93383789 C-605.3206205 272.9682401 -599.5641779 279.39580218 -591.4296875 283.88671875 C-583.25246225 287.58646876 -574.86866569 289.13811971 -566.0546875 290.4375 C-565.15492188 290.57027344 -564.25515625 290.70304687 -563.328125 290.83984375 C-557.06115667 291.56601627 -550.73242792 291.59840567 -544.4296875 291.6875 C-543.54643799 291.70901123 -542.66318848 291.73052246 -541.75317383 291.75268555 C-534.22397528 291.78997622 -527.20536651 290.98868517 -521.56640625 285.5625 C-517.71845764 280.50087577 -518.04456333 274.55759807 -517.8671875 268.4375 C-517.73798493 266.00226652 -517.6026173 263.56735193 -517.4609375 261.1328125 C-517.39648438 259.97040039 -517.33203125 258.80798828 -517.265625 257.61035156 C-516.18853572 241.40913368 -510.44500754 225.02786684 -500.0546875 212.4375 C-499.38824219 211.60992187 -498.72179687 210.78234375 -498.03515625 209.9296875 C-480.10006773 188.79536697 -454.25192987 180.35484742 -427.46875 177.90625 C-375.42814273 173.71441341 -319.80011986 188.39321619 -272.99609375 210.625 C-269.75102958 212.1608675 -266.49480209 213.39074564 -263.0546875 214.4375 C-263.6734375 215.324375 -264.2921875 216.21125 -264.9296875 217.125 C-277.32467628 238.84907928 -271.19108727 277.77951533 -271.03815651 302.23407555 C-271.00943474 306.90788518 -270.99303873 311.58169638 -270.97868347 316.25556946 C-270.97354285 317.88191896 -270.96838622 319.50826841 -270.96321392 321.13461781 C-270.96062836 321.94784461 -270.9580428 322.76107141 -270.95537889 323.59894145 C-270.9199327 334.42175915 -270.87452773 345.24446706 -270.80786133 356.06713867 C-270.58426685 393.1608713 -270.70421002 429.85300425 -274.76675797 466.77841568 C-275.25364867 471.27494443 -275.6972953 475.77577398 -276.1472168 480.27612305 C-277.11023524 489.817436 -278.15040201 499.34924682 -279.20996094 508.88024902 C-279.49486036 511.46171876 -279.77436562 514.04371614 -280.05200195 516.62597656 C-281.94726188 534.25219333 -283.96195977 551.83967313 -286.6875 569.359375 C-286.88786362 570.65423828 -287.08822723 571.94910156 -287.29466248 573.28320312 C-288.75241677 582.34027209 -290.59208833 590.92137772 -294.0546875 599.4375 C-294.49425781 600.52417969 -294.93382812 601.61085938 -295.38671875 602.73046875 C-300.7291697 614.57805282 -309.06445582 621.86602395 -321.06103516 626.70605469 C-339.29394113 633.39547255 -360.27887983 634.29603922 -378.1796875 626.3125 C-388.5371319 620.73413364 -395.78701898 612.49399308 -400.1875 601.64453125 C-401.21807181 597.83327243 -401.43833625 594.23297644 -401.4296875 590.3125 C-401.42807617 589.53696777 -401.42646484 588.76143555 -401.42480469 587.96240234 C-401.11333398 572.66064047 -398.24106784 551.66991482 -387.0546875 540.4375 C-378.25619341 532.35407787 -367.54088992 527.21311916 -357.07421875 521.65234375 C-338.77281608 513.19630918 -338.77281608 513.19630918 -325.0546875 499.4375 C-324.23220721 490.06122473 -327.83799111 483.25151493 -333.68359375 476.0859375 C-348.97409947 457.56226145 -348.97409947 457.56226145 -369.09375 447.13671875 C-396.35673269 447.04762404 -432.11047832 454.82836233 -453.01953125 473.16015625 C-479.97052291 500.93678004 -491.56586166 571.69801132 -491.42138672 609.01928711 C-490.68948501 634.28718492 -477.28006875 658.72082005 -461.0546875 677.4375 C-460.35859375 678.25476563 -459.6625 679.07203125 -458.9453125 679.9140625 C-430.57202627 712.41254283 -388.83067167 728.71869283 -346.45703125 732.125 C-309.25277166 734.57145981 -277.21240454 730.11492862 -248.0546875 705.4375 C-246.86990335 704.45559439 -245.68500355 703.47382832 -244.5 702.4921875 C-226.95641418 687.82151103 -207.32165881 669.18282144 -197.0546875 648.4375 C-196.49265625 647.33535156 -195.930625 646.23320313 -195.3515625 645.09765625 C-183.49917693 620.74196024 -176.67589841 593.46641921 -168.6796875 567.6875 C-168.34316162 566.6084137 -168.00663574 565.52932739 -167.65991211 564.4175415 C-161.11801731 543.39728263 -155.59194723 522.2407413 -151.34887695 500.63574219 C-150.86365626 498.16955208 -150.36697712 495.70585859 -149.86914062 493.2421875 C-133.42468601 411.07264865 -140.1477577 325.60786168 -143.0546875 242.4375 C-142.15542542 242.59917664 -141.25616333 242.76085327 -140.32965088 242.9274292 C-137.70325975 243.33648581 -135.30112949 243.57310427 -132.65527344 243.59863281 C-131.83777618 243.60809433 -131.02027893 243.61755585 -130.17800903 243.62730408 C-129.30715668 243.63169998 -128.43630432 243.63609589 -127.5390625 243.640625 C-126.61882294 243.64763931 -125.69858337 243.65465363 -124.75045776 243.66188049 C-121.76848478 243.67941193 -118.78671024 243.68573994 -115.8046875 243.6875 C-114.78848328 243.68817474 -113.77227905 243.68884949 -112.72528076 243.68954468 C-96.98015734 243.6729113 -81.59662288 243.19494015 -66.0546875 240.4375 C-65.05373047 240.26057617 -64.05277344 240.08365234 -63.02148438 239.90136719 C-41.85327907 236.01044945 -20.07890681 230.61494083 -6.8046875 212.33984375 C15.48816957 179.59338055 29.27793745 126.89837763 22.21484375 87.875 C17.09470901 64.10117717 3.94607654 45.07432252 -15.0546875 30.4375 C-16.82740338 28.93972528 -18.59821898 27.43969874 -20.3671875 25.9375 C-34.90977831 14.06726562 -50.47886862 5.703378 -69.0546875 2.4375 C-69.88452148 2.28651855 -70.71435547 2.13553711 -71.56933594 1.97998047 C-87.70420493 -0.79291971 -103.91863701 -0.8775804 -120.2421875 -0.9375 C-121.83728149 -0.94928284 -121.83728149 -0.94928284 -123.46459961 -0.96130371 C-158.48743867 -1.16249127 -183.26310411 10.84932076 -206.36328125 37.15625 Z " fill="#000000" transform="translate(650.0546875,51.5625)"/>
<path d="M0 0 C0.66 0 1.32 0 2 0 C2 0.99 2 1.98 2 3 C3.485 3.12375 3.485 3.12375 5 3.25 C13.04950796 4.45093466 18.90451484 8.81816775 24 15 C29.64218043 23.17261287 29.69966663 31.36459098 29 41 C26.975542 49.43930683 20.97795811 56.2806194 13.8125 60.9375 C6.48089152 65.34243789 -3.53386398 65.31124072 -11.703125 63.3515625 C-20.24259023 59.8581449 -27.01688669 53.29102985 -31 45 C-33.37878041 38.01614468 -33.22950602 27.88740359 -30.4375 21.0625 C-26.23386506 13.23046438 -19.69394788 6.12085477 -11.02734375 3.375 C-8.88515445 2.97875689 -6.92639132 2.90122681 -4.75 2.9375 C-2.89375 2.9684375 -2.89375 2.9684375 -1 3 C-0.67 2.01 -0.34 1.02 0 0 Z " fill="#000000" transform="translate(89,264)"/>
<path d="M0 0 C8.60409251 7.54887361 12.47154172 19.76611606 13.21069336 30.93823242 C14.17544598 54.06583075 7.23667281 70.51769299 -7.9296875 87.81640625 C-8.61160156 88.64269531 -9.29351563 89.46898437 -9.99609375 90.3203125 C-21.16720254 103.59010318 -37.70966908 107.62922279 -54.41015625 109.60253906 C-62.2257811 110.26595838 -70.09766043 110.02495135 -77.9296875 109.81640625 C-78.1733541 100.5464393 -77.4903678 91.67626124 -76.1796875 82.50390625 C-75.99776855 81.20372559 -75.81584961 79.90354492 -75.62841797 78.56396484 C-75.07618659 74.64605126 -74.50198112 70.73143775 -73.9296875 66.81640625 C-73.68943848 65.10300049 -73.68943848 65.10300049 -73.44433594 63.35498047 C-70.3981281 41.75665549 -64.9944958 18.94082357 -47.9296875 3.81640625 C-33.84618275 -6.50239432 -14.9844479 -10.83370362 0 0 Z M-49.98828125 14.3125 C-61.42375316 29.0612676 -65.27377235 47.17559131 -67.81542969 65.234375 C-68.17966313 67.81623347 -68.56480972 70.39432103 -68.953125 72.97265625 C-70.46825259 83.24789591 -71.47670878 93.4377578 -71.9296875 103.81640625 C-54.49098126 104.37753834 -33.94758375 103.26855064 -19.8828125 91.65625 C-7.56932899 80.05694853 5.87449993 64.39820634 7.23144531 46.71679688 C7.50168462 32.27470575 7.69993006 17.41633966 -2.5625 6 C-8.09669272 0.8504709 -14.08914194 -0.64457133 -21.546875 -0.4296875 C-32.50390344 0.70194003 -42.50075897 6.34093588 -49.98828125 14.3125 Z " fill="#000000" transform="translate(582.9296875,124.18359375)"/>
<path d="M0 0 C4.2829452 0.5479083 6.85135641 2.02432804 10.3125 4.5625 C11.19550781 5.20316406 12.07851562 5.84382813 12.98828125 6.50390625 C13.65214844 6.99761719 14.31601563 7.49132812 15 8 C14.36188709 11.69070713 12.74379833 14.19249355 10.625 17.25 C9.71621094 18.58804688 9.71621094 18.58804688 8.7890625 19.953125 C8.19867188 20.62859375 7.60828125 21.3040625 7 22 C6.01 22 5.02 22 4 22 C3.67 21.34 3.34 20.68 3 20 C4.32 18.02 5.64 16.04 7 14 C-24.51353162 17.71500983 -56.85002588 32.6165356 -81 53 C-81.5057959 53.42216797 -82.0115918 53.84433594 -82.53271484 54.27929688 C-105.25322561 73.42296448 -121.49925729 102.44975038 -124.203125 132.23779297 C-125.09045752 143.19506973 -125.09181426 153.65236175 -123.47265625 164.53125 C-123.07883716 167.42142645 -122.90494676 170.09248902 -123 173 C-124.32 173 -125.64 173 -127 173 C-128.95504409 164.33278787 -129.38701822 155.93030525 -129.375 147.0625 C-129.37445618 146.38291229 -129.37391235 145.70332458 -129.37335205 145.00314331 C-129.26383314 115.12331861 -119.24923624 87.89941556 -100 65 C-99.29746094 64.15695313 -98.59492187 63.31390625 -97.87109375 62.4453125 C-93.60753134 57.48923409 -89.06355966 53.12714794 -84 49 C-83.1234375 48.26265625 -82.246875 47.5253125 -81.34375 46.765625 C-56.01909567 26.27093051 -25.19527228 15.82311345 6 8 C5.01 7.236875 4.02 6.47375 3 5.6875 C1.3125 4.38671875 1.3125 4.38671875 0 3 C0 2.01 0 1.02 0 0 Z " fill="#000000" transform="translate(130,103)"/>
<path d="M0 0 C0.99 0 1.98 0 3 0 C3.93489418 2.80468254 4.12750289 4.50154377 4.13371277 7.40119934 C4.13797775 8.30332657 4.14224274 9.2054538 4.14663696 10.13491821 C4.14618378 11.12398163 4.14573059 12.11304504 4.14526367 13.13208008 C4.14862228 14.17719254 4.1519809 15.22230499 4.15544128 16.29908752 C4.16500319 19.78924737 4.16690036 23.27935906 4.16796875 26.76953125 C4.17118967 29.2366284 4.17455434 31.70372537 4.17805481 34.17082214 C4.1840672 39.38740476 4.18589373 44.6039708 4.18530273 49.82055664 C4.18478086 55.05723761 4.19189854 60.29385327 4.20581055 65.53051758 C4.27834208 93.25291789 4.12289924 120.93892259 3.08203125 148.64453125 C3.04094931 149.75203043 2.99986736 150.85952961 2.95754051 152.00058937 C1.19687361 198.27476243 1.19687361 198.27476243 -3 213 C-2.18595703 212.54947266 -2.18595703 212.54947266 -1.35546875 212.08984375 C-0.28232422 211.51943359 -0.28232422 211.51943359 0.8125 210.9375 C1.52019531 210.55464844 2.22789062 210.17179688 2.95703125 209.77734375 C5 209 5 209 8 210 C8 210.99 8 211.98 8 213 C6.09118566 214.03544174 4.17260796 215.05290085 2.25 216.0625 C0.64898437 216.91521484 0.64898437 216.91521484 -0.984375 217.78515625 C-4 219 -4 219 -6.18359375 219.05078125 C-9.04816649 217.39364132 -9.89348491 215.06162181 -11.3125 212.125 C-12.11107422 210.52011719 -12.11107422 210.52011719 -12.92578125 208.8828125 C-14 206 -14 206 -13 203 C-12.01 203 -11.02 203 -10 203 C-9.01 204.98 -8.02 206.96 -7 209 C-5.57088256 201.76037227 -4.53920212 194.59532169 -3.94287109 187.24145508 C-3.81870095 185.75323982 -3.81870095 185.75323982 -3.69202232 184.2349596 C-2.83312287 173.54631104 -2.31897126 162.8509981 -1.9140625 152.13671875 C-1.87258717 151.07215643 -1.83111183 150.00759411 -1.78837967 148.91077232 C-0.72113 120.98295943 -0.56291881 93.04360178 -0.41056275 65.09923828 C-0.37136468 57.97129492 -0.32221873 50.84342819 -0.27259517 43.71555102 C-0.17135254 29.14376044 -0.08147126 14.571915 0 0 Z " fill="#000000" transform="translate(339,297)"/>
<path d="M0 0 C1.4540625 0.0309375 1.4540625 0.0309375 2.9375 0.0625 C5.0625 4.6875 5.0625 4.6875 3.9375 8.0625 C4.26300502 9.73071323 4.59596063 11.39749557 4.9375 13.0625 C4.6075 13.7225 4.2775 14.3825 3.9375 15.0625 C1.125 15.9375 1.125 15.9375 -2.0625 16.0625 C-4.4375 14.125 -4.4375 14.125 -6.0625 12.0625 C-2.43923261 10.8547442 -1.42103631 11.51938872 1.9375 13.0625 C1.9375 11.7425 1.9375 10.4225 1.9375 9.0625 C0.6175 9.0625 -0.7025 9.0625 -2.0625 9.0625 C-2.0625 8.0725 -2.0625 7.0825 -2.0625 6.0625 C-0.7425 6.0625 0.5775 6.0625 1.9375 6.0625 C1.6075 5.0725 1.2775 4.0825 0.9375 3.0625 C-1.0425 3.7225 -3.0225 4.3825 -5.0625 5.0625 C-3.9375 0.08035714 -3.9375 0.08035714 0 0 Z " fill="#000000" transform="translate(315.0625,377.9375)"/>
<path d="M0 0 C3.0625 0.1875 3.0625 0.1875 5.0625 2.1875 C4.90004442 5.92397845 4.47466356 7.71288742 2 10.5625 C1.360625 11.09875 0.72125 11.635 0.0625 12.1875 C1.7125 12.5175 3.3625 12.8475 5.0625 13.1875 C5.0625 13.8475 5.0625 14.5075 5.0625 15.1875 C1.7625 15.1875 -1.5375 15.1875 -4.9375 15.1875 C-2.9375 11.1875 -2.9375 11.1875 -0.8125 8.625 C1.36735538 6.30372611 1.36735538 6.30372611 1.0625 3.1875 C0.4025 3.1875 -0.2575 3.1875 -0.9375 3.1875 C-1.2675 3.8475 -1.5975 4.5075 -1.9375 5.1875 C-2.9275 5.1875 -3.9175 5.1875 -4.9375 5.1875 C-3.82120474 0.24390669 -3.82120474 0.24390669 0 0 Z " fill="#000000" transform="translate(648.9375,3.8125)"/>
<path d="M0 0 C0 4.95 0 9.9 0 15 C-0.99 15 -1.98 15 -3 15 C-3 11.37 -3 7.74 -3 4 C-3.99 4.33 -4.98 4.66 -6 5 C-5.625 3.0625 -5.625 3.0625 -5 1 C-3 0 -3 0 0 0 Z " fill="#000000" transform="translate(302,378)"/>
<path d="M0 0 C0 4.95 0 9.9 0 15 C-0.99 15 -1.98 15 -3 15 C-3 11.37 -3 7.74 -3 4 C-3.99 4.33 -4.98 4.66 -6 5 C-5.625 3.0625 -5.625 3.0625 -5 1 C-3 0 -3 0 0 0 Z " fill="#000000" transform="translate(23,104)"/>
<path d="M0 0 C0 4.95 0 9.9 0 15 C-0.99 15 -1.98 15 -3 15 C-3 11.37 -3 7.74 -3 4 C-3.99 4.33 -4.98 4.66 -6 5 C-5.625 3.0625 -5.625 3.0625 -5 1 C-3 0 -3 0 0 0 Z " fill="#000000" transform="translate(636,4)"/>
<path d="M0 0 C0 4.95 0 9.9 0 15 C-0.66 15 -1.32 15 -2 15 C-2.33 11.37 -2.66 7.74 -3 4 C-3.99 4.33 -4.98 4.66 -6 5 C-6 4.01 -6 3.02 -6 2 C-3 0 -3 0 0 0 Z " fill="#000000" transform="translate(35,104)"/>
<path d="M0 0 C5.90184049 3.34969325 5.90184049 3.34969325 8 6 C8 6.99 8 7.98 8 9 C3.75177626 8.52797514 1.80010291 6.03344482 -1 3 C-0.67 2.01 -0.34 1.02 0 0 Z " fill="#000000" transform="translate(610,117)"/>
<path d="M0 0 C0 0.66 0 1.32 0 2 C-1.26418246 2.69965443 -2.53665402 3.38434763 -3.8125 4.0625 C-4.52019531 4.44535156 -5.22789062 4.82820312 -5.95703125 5.22265625 C-8 6 -8 6 -11 5 C-11 4.34 -11 3.68 -11 3 C-9.73581754 2.30034557 -8.46334598 1.61565237 -7.1875 0.9375 C-6.47980469 0.55464844 -5.77210938 0.17179688 -5.04296875 -0.22265625 C-3 -1 -3 -1 0 0 Z " fill="#000000" transform="translate(353,712)"/>
<path d="M0 0 C0 0.66 0 1.32 0 2 C-1.26418246 2.69965443 -2.53665402 3.38434763 -3.8125 4.0625 C-4.52019531 4.44535156 -5.22789062 4.82820312 -5.95703125 5.22265625 C-8 6 -8 6 -11 5 C-11 4.34 -11 3.68 -11 3 C-9.73581754 2.30034557 -8.46334598 1.61565237 -7.1875 0.9375 C-6.47980469 0.55464844 -5.77210938 0.17179688 -5.04296875 -0.22265625 C-3 -1 -3 -1 0 0 Z " fill="#000000" transform="translate(154,189)"/>
<path d="M0 0 C3.3 1.65 6.6 3.3 10 5 C10 5.66 10 6.32 10 7 C5.6109185 6.48964169 2.66291938 5.47785723 -1 3 C-0.67 2.01 -0.34 1.02 0 0 Z " fill="#000000" transform="translate(248,713)"/>
<path d="M0 0 C-0.47202486 4.24822374 -2.96655518 6.19989709 -6 9 C-6.99 8.67 -7.98 8.34 -9 8 C-7.47364599 4.11473526 -4.49771687 0 0 0 Z " fill="#000000" transform="translate(608,220)"/>
<path d="M0 0 C0.99 0 1.98 0 3 0 C2.52797514 4.24822374 0.03344482 6.19989709 -3 9 C-3.99 8.67 -4.98 8.34 -6 8 C-5.07456291 6.65826597 -4.13422595 5.32679841 -3.1875 4 C-2.66542969 3.2575 -2.14335938 2.515 -1.60546875 1.75 C-0.81076172 0.88375 -0.81076172 0.88375 0 0 Z " fill="#000000" transform="translate(118,212)"/>
<path d="M0 0 C0 0.99 0 1.98 0 3 C-4.95 4.485 -4.95 4.485 -10 6 C-10.33 5.01 -10.66 4.02 -11 3 C-4.5 0 -4.5 0 0 0 Z " fill="#000000" transform="translate(172,181)"/>
<path d="M0 0 C4.42679007 1.47559669 4.91432696 3.90057368 7 8 C7 8.66 7 9.32 7 10 C5.140625 9.75390625 5.140625 9.75390625 3 9 C1.734375 7.15234375 1.734375 7.15234375 0.75 4.9375 C0.41484375 4.20402344 0.0796875 3.47054687 -0.265625 2.71484375 C-0.50796875 2.14894531 -0.7503125 1.58304688 -1 1 C-0.67 0.67 -0.34 0.34 0 0 Z " fill="#000000" transform="translate(623,132)"/>
<path d="M0 0 C0.33 0.99 0.66 1.98 1 3 C-0.26239712 3.86658615 -1.53527501 4.71792059 -2.8125 5.5625 C-3.87404297 6.27599609 -3.87404297 6.27599609 -4.95703125 7.00390625 C-7 8 -7 8 -10 7 C-3.18421053 0 -3.18421053 0 0 0 Z " fill="#000000" transform="translate(488,114)"/>
<path d="M0 0 C0 0.99 0 1.98 0 3 C-1.28913487 3.67154933 -2.58140204 4.33708859 -3.875 5 C-4.59429687 5.37125 -5.31359375 5.7425 -6.0546875 6.125 C-8 7 -8 7 -10 7 C-9.875 5.1875 -9.875 5.1875 -9 3 C-5.79116175 1.04679411 -3.7794561 0 0 0 Z " fill="#000000" transform="translate(506,105)"/>
<path d="M0 0 C4.05606165 0.46800711 7.46588679 0.87953208 11 3 C10.67 3.99 10.34 4.98 10 6 C6.7 5.01 3.4 4.02 0 3 C0 2.01 0 1.02 0 0 Z " fill="#000000" transform="translate(574,98)"/>
<path d="M0 0 C3.11198065 1.49836105 6.0534615 3.19933758 9 5 C8.67 5.99 8.34 6.98 8 8 C4.54074837 6.7508258 1.85306797 5.32472205 -1 3 C-0.67 2.01 -0.34 1.02 0 0 Z " fill="#000000" transform="translate(232,703)"/>
<path d="M0 0 C0.99 0 1.98 0 3 0 C5.75 2.8125 5.75 2.8125 8 6 C7.67 6.99 7.34 7.98 7 9 C1.21538462 5.67692308 1.21538462 5.67692308 0.125 2.25 C0.08375 1.5075 0.0425 0.765 0 0 Z " fill="#000000" transform="translate(217,690)"/>
<path d="M0 0 C0.99 0.33 1.98 0.66 3 1 C1.02 3.31 -0.96 5.62 -3 8 C-4.32 7.67 -5.64 7.34 -7 7 C-4.66666667 4.66666667 -2.33333333 2.33333333 0 0 Z " fill="#000000" transform="translate(382,688)"/>
<path d="M0 0 C0.99 0 1.98 0 3 0 C2.52797514 4.24822374 0.03344482 6.19989709 -3 9 C-3.99 8.67 -4.98 8.34 -6 8 C-5.07456291 6.65826597 -4.13422595 5.32679841 -3.1875 4 C-2.66542969 3.2575 -2.14335937 2.515 -1.60546875 1.75 C-0.81076172 0.88375 -0.81076172 0.88375 0 0 Z " fill="#000000" transform="translate(395,674)"/>
<path d="M0 0 C0.66 0 1.32 0 2 0 C1.53199289 4.05606165 1.12046792 7.46588679 -1 11 C-1.99 10.67 -2.98 10.34 -4 10 C-3.52449439 8.51965236 -3.04448784 7.04074979 -2.5625 5.5625 C-2.29566406 4.73878906 -2.02882813 3.91507813 -1.75390625 3.06640625 C-1 1 -1 1 0 0 Z " fill="#000000" transform="translate(426,623)"/>
<path d="M0 0 C0.99 0 1.98 0 3 0 C3.125 7.625 3.125 7.625 2 11 C1.01 11 0.02 11 -1 11 C-0.67 7.37 -0.34 3.74 0 0 Z " fill="#000000" transform="translate(429,604)"/>
<path d="M0 0 C0.99 0 1.98 0 3 0 C3 3.63 3 7.26 3 11 C2.01 11 1.02 11 0 11 C0 7.37 0 3.74 0 0 Z " fill="#000000" transform="translate(430,584)"/>
<path d="M0 0 C0.99 0.33 1.98 0.66 3 1 C3 4.3 3 7.6 3 11 C2.01 11 1.02 11 0 11 C0 7.37 0 3.74 0 0 Z " fill="#000000" transform="translate(431,563)"/>
<path d="M0 0 C0.99 0 1.98 0 3 0 C3 3.63 3 7.26 3 11 C2.01 11 1.02 11 0 11 C0 7.37 0 3.74 0 0 Z " fill="#000000" transform="translate(432,543)"/>
<path d="M0 0 C0.99 0 1.98 0 3 0 C3 3.63 3 7.26 3 11 C2.01 11 1.02 11 0 11 C0 7.37 0 3.74 0 0 Z " fill="#000000" transform="translate(440,361)"/>
<path d="M0 0 C0.99 0 1.98 0 3 0 C3 3.63 3 7.26 3 11 C2.01 11 1.02 11 0 11 C0 7.37 0 3.74 0 0 Z " fill="#000000" transform="translate(441,341)"/>
<path d="M0 0 C0.99 0 1.98 0 3 0 C3 3.63 3 7.26 3 11 C2.01 11 1.02 11 0 11 C0 7.37 0 3.74 0 0 Z " fill="#000000" transform="translate(443,300)"/>
<path d="M0 0 C0.99 0 1.98 0 3 0 C3 3.63 3 7.26 3 11 C2.01 11 1.02 11 0 11 C0 7.37 0 3.74 0 0 Z " fill="#000000" transform="translate(444,280)"/>
<path d="M0 0 C3.3 0 6.6 0 10 0 C10 0.99 10 1.98 10 3 C6.37 3 2.74 3 -1 3 C-0.67 2.01 -0.34 1.02 0 0 Z " fill="#000000" transform="translate(510,260)"/>
<path d="M0 0 C3.63 0 7.26 0 11 0 C11 0.99 11 1.98 11 3 C7.37 3 3.74 3 0 3 C0 2.01 0 1.02 0 0 Z " fill="#000000" transform="translate(489,260)"/>
<path d="M0 0 C0 0.99 0 1.98 0 3 C-4.95 4.485 -4.95 4.485 -10 6 C-9.67 4.68 -9.34 3.36 -9 2 C-5.82254537 0.61849799 -3.46877176 0 0 0 Z " fill="#000000" transform="translate(559,251)"/>
<path d="M0 0 C0.99 0.33 1.98 0.66 3 1 C1.68 4.3 0.36 7.6 -1 11 C-1.99 10.67 -2.98 10.34 -4 10 C-2.68 6.7 -1.36 3.4 0 0 Z " fill="#000000" transform="translate(96,245)"/>
<path d="M0 0 C0.99 0 1.98 0 3 0 C3 3.63 3 7.26 3 11 C2.01 11 1.02 11 0 11 C0 7.37 0 3.74 0 0 Z " fill="#000000" transform="translate(446,239)"/>
<path d="M0 0 C0.99 0 1.98 0 3 0 C1.66511872 3.59391114 0.03977277 6.75490696 -2 10 C-2.99 9.67 -3.98 9.34 -5 9 C-3.76067171 5.56801397 -2.49698489 2.69674368 0 0 Z " fill="#000000" transform="translate(106,228)"/>
<path d="M0 0 C3.48670834 1.1094072 6.77484237 2.26337666 10 4 C9.67 4.99 9.34 5.98 9 7 C4.05 5.02 4.05 5.02 -1 3 C-0.67 2.01 -0.34 1.02 0 0 Z " fill="#000000" transform="translate(358,211)"/>
<path d="M0 0 C0.66 0.33 1.32 0.66 2 1 C0.50958227 4.79379058 -1.69062512 6.68343758 -5 9 C-5.66 9 -6.32 9 -7 9 C-6.82374165 6.62051228 -6.30280227 5.29774151 -4.59765625 3.62109375 C-3.09350908 2.37884514 -1.54870149 1.18623944 0 0 Z " fill="#000000" transform="translate(134,198)"/>
<path d="M0 0 C4.95 0.99 4.95 0.99 10 2 C10.33 2.99 10.66 3.98 11 5 C9.54119891 4.85892253 8.08296449 4.71197585 6.625 4.5625 C5.40683594 4.44068359 5.40683594 4.44068359 4.1640625 4.31640625 C2 4 2 4 0 3 C0 2.01 0 1.02 0 0 Z " fill="#000000" transform="translate(281,184)"/>
<path d="M0 0 C3.63 0 7.26 0 11 0 C11 0.99 11 1.98 11 3 C7.37 3 3.74 3 0 3 C0 2.01 0 1.02 0 0 Z " fill="#000000" transform="translate(201,175)"/>
<path d="M0 0 C0.99 0.33 1.98 0.66 3 1 C3 1.66 3 2.32 3 3 C1.57421875 4.32421875 1.57421875 4.32421875 -0.3125 5.6875 C-0.92738281 6.14511719 -1.54226563 6.60273438 -2.17578125 7.07421875 C-2.77777344 7.37972656 -3.37976563 7.68523437 -4 8 C-4.99 7.67 -5.98 7.34 -7 7 C-4.66666667 4.66666667 -2.33333333 2.33333333 0 0 Z " fill="#000000" transform="translate(469,126)"/>
<path d="M0 0 C3.63 0.33 7.26 0.66 11 1 C11 1.99 11 2.98 11 4 C9.54176788 4.0270043 8.08339325 4.04639787 6.625 4.0625 C5.81289063 4.07410156 5.00078125 4.08570313 4.1640625 4.09765625 C2 4 2 4 0 3 C0 2.01 0 1.02 0 0 Z " fill="#000000" transform="translate(285,725)"/>
<path d="M0 0 C0 0.66 0 1.32 0 2 C-1.4577353 2.335939 -2.91621106 2.66866624 -4.375 3 C-5.59316406 3.2784375 -5.59316406 3.2784375 -6.8359375 3.5625 C-9 4 -9 4 -11 4 C-11 3.01 -11 2.02 -11 1 C-9.5437328 0.63743142 -8.08488815 0.28520207 -6.625 -0.0625 C-5.40683594 -0.35833984 -5.40683594 -0.35833984 -4.1640625 -0.66015625 C-2 -1 -2 -1 0 0 Z " fill="#000000" transform="translate(316,725)"/>
<path d="M0 0 C5.445 1.485 5.445 1.485 11 3 C10.01 4.485 10.01 4.485 9 6 C6.03 5.01 3.06 4.02 0 3 C0 2.01 0 1.02 0 0 Z " fill="#000000" transform="translate(266,721)"/>
<path d="M0 0 C0 0.66 0 1.32 0 2 C-1.26839526 2.50615298 -2.53983102 3.00469099 -3.8125 3.5 C-4.87404297 3.91765625 -4.87404297 3.91765625 -5.95703125 4.34375 C-8 5 -8 5 -11 5 C-11 4.01 -11 3.02 -11 2 C-9.54494642 1.47007308 -8.08581873 0.9513211 -6.625 0.4375 C-5.81289063 0.14746094 -5.00078125 -0.14257812 -4.1640625 -0.44140625 C-2 -1 -2 -1 0 0 Z " fill="#000000" transform="translate(335,720)"/>
<path d="M0 0 C0.99 0.99 1.98 1.98 3 3 C1.90241493 3.84198307 0.79664683 4.67330671 -0.3125 5.5 C-0.92738281 5.9640625 -1.54226563 6.428125 -2.17578125 6.90625 C-4 8 -4 8 -7 8 C-7 7.01 -7 6.02 -7 5 C-5.46875 3.61328125 -5.46875 3.61328125 -3.5 2.3125 C-2.8503125 1.87550781 -2.200625 1.43851563 -1.53125 0.98828125 C-1.0259375 0.66214844 -0.520625 0.33601562 0 0 Z " fill="#000000" transform="translate(367,700)"/>
<path d="M0 0 C0.66 0.33 1.32 0.66 2 1 C0.7508258 4.45925163 -0.67527795 7.14693203 -3 10 C-3.99 9.67 -4.98 9.34 -6 9 C-2.25 2.25 -2.25 2.25 0 0 Z " fill="#000000" transform="translate(408,658)"/>
<path d="M0 0 C0.99 0.99 1.98 1.98 3 3 C2.24172908 4.17487036 1.46792245 5.33972592 0.6875 6.5 C0.25824219 7.1496875 -0.17101562 7.799375 -0.61328125 8.46875 C-1.07089844 8.9740625 -1.52851563 9.479375 -2 10 C-2.99 10 -3.98 10 -5 10 C-4.38545304 6.00544473 -2.29353263 3.25533664 0 0 Z " fill="#000000" transform="translate(230,561)"/>
<path d="M0 0 C0.66 0 1.32 0 2 0 C2 3.63 2 7.26 2 11 C1.01 11 0.02 11 -1 11 C-1.02688151 9.35425434 -1.04634123 7.70838587 -1.0625 6.0625 C-1.07410156 5.14597656 -1.08570313 4.22945313 -1.09765625 3.28515625 C-1 1 -1 1 0 0 Z " fill="#000000" transform="translate(443,320)"/>
<path d="M0 0 C0.99 0 1.98 0 3 0 C3 3.3 3 6.6 3 10 C2.01 10.33 1.02 10.66 0 11 C0 7.37 0 3.74 0 0 Z " fill="#000000" transform="translate(445,260)"/>
<path d="M0 0 C7.42857143 -0.14285714 7.42857143 -0.14285714 11 1 C11 1.99 11 2.98 11 4 C7.7 3.67 4.4 3.34 1 3 C0.67 2.01 0.34 1.02 0 0 Z " fill="#000000" transform="translate(469,258)"/>
<path d="M0 0 C0.53625 0.226875 1.0725 0.45375 1.625 0.6875 C-1.09978774 4.05341427 -4.44356792 5.12976276 -8.375 6.6875 C-8.375 5.3675 -8.375 4.0475 -8.375 2.6875 C-2.95961538 -0.38942308 -2.95961538 -0.38942308 0 0 Z " fill="#000000" transform="translate(575.375,243.3125)"/>
<path d="M0 0 C4.12751449 0.60698743 7.3321148 2.03810791 11 4 C10.67 4.66 10.34 5.32 10 6 C6.44219804 5.39009109 3.3171411 4.4216319 0 3 C0 2.01 0 1.02 0 0 Z " fill="#000000" transform="translate(411,240)"/>
<path d="M0 0 C0.66 0.33 1.32 0.66 2 1 C0.55527654 4.80881639 -1.32603071 6.29742886 -5 8 C-5.99 7.67 -6.98 7.34 -8 7 C-5.42215154 4.35247996 -3.08351902 2.05567935 0 0 Z " fill="#000000" transform="translate(591,232)"/>
<path d="M0 0 C2.97 1.65 5.94 3.3 9 5 C8.67 5.99 8.34 6.98 8 8 C5.36 6.68 2.72 5.36 0 4 C0 2.68 0 1.36 0 0 Z " fill="#000000" transform="translate(394,230)"/>
<path d="M0 0 C1.29640378 0.59393382 2.58698839 1.20057989 3.875 1.8125 C4.59429687 2.14894531 5.31359375 2.48539063 6.0546875 2.83203125 C8 4 8 4 10 7 C4.95749572 7 3.22094347 5.59750368 -1 3 C-0.67 2.01 -0.34 1.02 0 0 Z " fill="#000000" transform="translate(376,219)"/>
<path d="M0 0 C0.99 0 1.98 0 3 0 C3 3.3 3 6.6 3 10 C2.01 10.33 1.02 10.66 0 11 C0 7.37 0 3.74 0 0 Z " fill="#000000" transform="translate(447,219)"/>
<path d="M0 0 C0.99 0 1.98 0 3 0 C2.42647107 3.87132028 0.51295648 6.08172796 -2 9 C-2.99 8.67 -3.98 8.34 -5 8 C-3.38731308 5.28775382 -1.75098126 2.62647188 0 0 Z " fill="#000000" transform="translate(618,206)"/>
<path d="M0 0 C3.3 0.99 6.6 1.98 10 3 C10 3.99 10 4.98 10 6 C6.28111761 5.49287967 3.26545761 4.88391785 0 3 C0 2.01 0 1.02 0 0 Z " fill="#000000" transform="translate(320,196)"/>
<path d="M0 0 C-0.33 0.99 -0.66 1.98 -1 3 C-4.3 3.33 -7.6 3.66 -11 4 C-11 3.01 -11 2.02 -11 1 C-7.32589215 -0.17571451 -3.83070817 -0.07366746 0 0 Z " fill="#000000" transform="translate(192,177)"/>
<path d="M0 0 C3.3 0 6.6 0 10 0 C10.33 0.99 10.66 1.98 11 3 C7.37 3 3.74 3 0 3 C0 2.01 0 1.02 0 0 Z " fill="#000000" transform="translate(221,175)"/>
<path d="M0 0 C0.99 0 1.98 0 3 0 C3.14285714 7.42857143 3.14285714 7.42857143 2 11 C1.01 10.67 0.02 10.34 -1 10 C-0.67 6.7 -0.34 3.4 0 0 Z " fill="#000000" transform="translate(632,170)"/>
<path d="M0 0 C0 0.99 0 1.98 0 3 C-4.95 4.485 -4.95 4.485 -10 6 C-10.33 5.01 -10.66 4.02 -11 3 C-9.73160474 2.49384702 -8.46016898 1.99530901 -7.1875 1.5 C-6.12595703 1.08234375 -6.12595703 1.08234375 -5.04296875 0.65625 C-3 0 -3 0 0 0 Z " fill="#000000" transform="translate(525,98)"/>
<path d="M0 0 C1.22589844 0.01353516 1.22589844 0.01353516 2.4765625 0.02734375 C3.41628906 0.04474609 3.41628906 0.04474609 4.375 0.0625 C4.375 1.0525 4.375 2.0425 4.375 3.0625 C1.075 3.3925 -2.225 3.7225 -5.625 4.0625 C-5.955 3.0725 -6.285 2.0825 -6.625 1.0625 C-4.21954362 -0.14022819 -2.67503047 -0.03821472 0 0 Z " fill="#000000" transform="translate(540.625,94.9375)"/>
<path d="M0 0 C0.99 0 1.98 0 3 0 C4.31626692 3.61973402 5 6.09567131 5 10 C4.01 10 3.02 10 2 10 C1.34 6.7 0.68 3.4 0 0 Z " fill="#000000" transform="translate(210,672)"/>
<path d="M0 0 C0.99 0 1.98 0 3 0 C3.66 3.3 4.32 6.6 5 10 C4.01 10.33 3.02 10.66 2 11 C1.34 7.37 0.68 3.74 0 0 Z " fill="#000000" transform="translate(206,653)"/>
<path d="M0 0 C0.66 0.33 1.32 0.66 2 1 C1.47557578 4.7758544 0.67345333 7.22372155 -2 10 C-2.99 10 -3.98 10 -5 10 C-3.66511872 6.40608886 -2.03977277 3.24509304 0 0 Z " fill="#000000" transform="translate(418,641)"/>
<path d="M0 0 C0.99 0.33 1.98 0.66 3 1 C2.67 4.3 2.34 7.6 2 11 C1.01 11 0.02 11 -1 11 C-0.67 7.37 -0.34 3.74 0 0 Z " fill="#000000" transform="translate(207,614)"/>
<path d="M0 0 C0.99 0 1.98 0 3 0 C3.0270043 1.45823212 3.04639787 2.91660675 3.0625 4.375 C3.07410156 5.18710937 3.08570313 5.99921875 3.09765625 6.8359375 C3 9 3 9 2 11 C1.34 11 0.68 11 0 11 C0 7.37 0 3.74 0 0 Z " fill="#000000" transform="translate(433,523)"/>
<path d="M0 0 C0.99 0 1.98 0 3 0 C3.14285714 7.42857143 3.14285714 7.42857143 2 11 C1.01 11 0.02 11 -1 11 C-0.67 7.37 -0.34 3.74 0 0 Z " fill="#000000" transform="translate(435,482)"/>
<path d="M0 0 C0.99 0 1.98 0 3 0 C2.67 3.63 2.34 7.26 2 11 C1.01 11 0.02 11 -1 11 C-0.67 7.37 -0.34 3.74 0 0 Z " fill="#000000" transform="translate(437,442)"/>
<path d="M0 0 C0.99 0 1.98 0 3 0 C2.67 3.63 2.34 7.26 2 11 C1.01 11 0.02 11 -1 11 C-1.14285714 3.57142857 -1.14285714 3.57142857 0 0 Z " fill="#000000" transform="translate(438,422)"/>
<path d="M0 0 C0.66 0 1.32 0 2 0 C2 3.63 2 7.26 2 11 C1.01 11 0.02 11 -1 11 C-1.0270043 9.54176788 -1.04639787 8.08339325 -1.0625 6.625 C-1.07410156 5.81289063 -1.08570313 5.00078125 -1.09765625 4.1640625 C-1 2 -1 2 0 0 Z " fill="#000000" transform="translate(440,381)"/>
<path d="M0 0 C0 0.99 0 1.98 0 3 C-3.3 3.33 -6.6 3.66 -10 4 C-10.33 3.01 -10.66 2.02 -11 1 C-7.32589215 -0.17571451 -3.83070817 -0.07366746 0 0 Z " fill="#000000" transform="translate(540,257)"/>
<path d="M0 0 C1.48206495 0.254496 2.96068615 0.52911762 4.4375 0.8125 C5.67306641 1.03873047 5.67306641 1.03873047 6.93359375 1.26953125 C7.61550781 1.51058594 8.29742187 1.75164062 9 2 C9.33 2.99 9.66 3.98 10 5 C8.54119891 4.85892253 7.08296449 4.71197585 5.625 4.5625 C4.40683594 4.44068359 4.40683594 4.44068359 3.1640625 4.31640625 C1 4 1 4 -1 3 C-0.67 2.01 -0.34 1.02 0 0 Z " fill="#000000" transform="translate(450,253)"/>
<path d="M0 0 C3.3 0.99 6.6 1.98 10 3 C10 3.99 10 4.98 10 6 C5.545 5.01 5.545 5.01 1 4 C0.67 2.68 0.34 1.36 0 0 Z " fill="#000000" transform="translate(430,247)"/>
<path d="M0 0 C4.95 1.98 4.95 1.98 10 4 C10 4.99 10 5.98 10 7 C8.51515588 6.60404157 7.0371169 6.18249294 5.5625 5.75 C4.73878906 5.51796875 3.91507812 5.2859375 3.06640625 5.046875 C2.38449219 4.70140625 1.70257813 4.3559375 1 4 C0.67 2.68 0.34 1.36 0 0 Z " fill="#000000" transform="translate(339,203)"/>
<path d="M0 0 C3.3 0.66 6.6 1.32 10 2 C10 2.99 10 3.98 10 5 C5.94393835 4.53199289 2.53411321 4.12046792 -1 2 C-0.67 1.34 -0.34 0.68 0 0 Z " fill="#000000" transform="translate(301,190)"/>
<path d="M0 0 C0.99 0.33 1.98 0.66 3 1 C3.14285714 8.42857143 3.14285714 8.42857143 2 12 C1.01 11.67 0.02 11.34 -1 11 C-0.67 7.37 -0.34 3.74 0 0 Z " fill="#000000" transform="translate(449,178)"/>
<path d="M0 0 C0.99 0 1.98 0 3 0 C2.67 3.63 2.34 7.26 2 11 C1.01 11 0.02 11 -1 11 C-0.67 7.37 -0.34 3.74 0 0 Z " fill="#000000" transform="translate(450,158)"/>
<path d="M0 0 C2.67927341 4.01891012 2.15601248 6.24161923 2 11 C1.01 11 0.02 11 -1 11 C-1.33 7.7 -1.66 4.4 -2 1 C-1.34 0.67 -0.68 0.34 0 0 Z " fill="#000000" transform="translate(633,150)"/>
<path d="M0 0 C0.99 0.33 1.98 0.66 3 1 C2.2884375 1.8353125 2.2884375 1.8353125 1.5625 2.6875 C-0.12395996 5.18346074 -0.58953107 7.0446237 -1 10 C-1.99 10 -2.98 10 -4 10 C-3.38461538 3.47692308 -3.38461538 3.47692308 -1.4375 1.0625 C-0.7259375 0.5365625 -0.7259375 0.5365625 0 0 Z " fill="#000000" transform="translate(454,139)"/>
<path d="M0 0 C1.29640378 0.59393382 2.58698839 1.20057989 3.875 1.8125 C4.59429688 2.14894531 5.31359375 2.48539062 6.0546875 2.83203125 C8 4 8 4 10 7 C5.25852179 7 3.64977257 5.90322818 0 3 C0 2.01 0 1.02 0 0 Z " fill="#000000" transform="translate(593,105)"/>
<path d="M0 0 C0.99 0 1.98 0 3 0 C2.34 2.97 1.68 5.94 1 9 C-0.32 9.33 -1.64 9.66 -3 10 C-2.01 6.7 -1.02 3.4 0 0 Z " fill="#000000" transform="translate(212,596)"/>
<path d="M0 0 C0.99 0 1.98 0 3 0 C3.125 7.625 3.125 7.625 2 11 C1.34 11 0.68 11 0 11 C0 7.37 0 3.74 0 0 Z " fill="#000000" transform="translate(434,503)"/>
<path d="M0 0 C0.99 0 1.98 0 3 0 C2.67 3.63 2.34 7.26 2 11 C1.01 11 0.02 11 -1 11 C-0.67 7.37 -0.34 3.74 0 0 Z " fill="#000000" transform="translate(436,462)"/>
<path d="M0 0 C0.99 0 1.98 0 3 0 C3.125 7.625 3.125 7.625 2 11 C1.34 11 0.68 11 0 11 C0 7.37 0 3.74 0 0 Z " fill="#000000" transform="translate(448,199)"/>
<path d="M0 0 C0.99 0 1.98 0 3 0 C1.8905928 3.48670834 0.73662334 6.77484237 -1 10 C-1.99 9.67 -2.98 9.34 -4 9 C-2.68 6.03 -1.36 3.06 0 0 Z " fill="#000000" transform="translate(628,189)"/>
<path d="M0 0 C2.97 0.33 5.94 0.66 9 1 C9.33 1.99 9.66 2.98 10 4 C6.7 3.67 3.4 3.34 0 3 C0 2.01 0 1.02 0 0 Z " fill="#000000" transform="translate(262,180)"/>
<path d="M0 0 C6.625 -0.125 6.625 -0.125 10 1 C10 1.99 10 2.98 10 4 C6.7 3.67 3.4 3.34 0 3 C0 2.01 0 1.02 0 0 Z " fill="#000000" transform="translate(242,177)"/>
<path d="M0 0 C3.3 0 6.6 0 10 0 C10.33 0.99 10.66 1.98 11 3 C9.54176788 3.0270043 8.08339325 3.04639787 6.625 3.0625 C5.81289063 3.07410156 5.00078125 3.08570312 4.1640625 3.09765625 C2 3 2 3 0 2 C0 1.34 0 0.68 0 0 Z " fill="#000000" transform="translate(554,95)"/>
<path d="M0 0 C0.66 0 1.32 0 2 0 C2 3.63 2 7.26 2 11 C1.01 11 0.02 11 -1 11 C-1.14285714 3.57142857 -1.14285714 3.57142857 0 0 Z " fill="#000000" transform="translate(439,401)"/>
<path d="M0 0 C0.66 0 1.32 0 2 0 C1.43697042 3.94120709 0.3208055 6.7508723 -2 10 C-2.66 10 -3.32 10 -4 10 C-3.43697042 6.05879291 -2.3208055 3.2491277 0 0 Z " fill="#000000" transform="translate(220,578)"/>
<path d="M0 0 C0.66 0 1.32 0 2 0 C2 3.3 2 6.6 2 10 C1.34 10 0.68 10 0 10 C-1.125 2.25 -1.125 2.25 0 0 Z " fill="#000000" transform="translate(206,634)"/>
<path d="M0 0 C0.66 0.33 1.32 0.66 2 1 C1.1875 2.9375 1.1875 2.9375 0 5 C-0.99 5.33 -1.98 5.66 -3 6 C-2.42655063 3.13275314 -2.1385485 2.1385485 0 0 Z " fill="#000000" transform="translate(240,550)"/>
<path d="M0 0 C0.99 0.33 1.98 0.66 3 1 C2.67 1.99 2.34 2.98 2 4 C1.01 3.01 0.02 2.02 -1 1 C-0.67 0.67 -0.34 0.34 0 0 Z " fill="#000000" transform="translate(305,390)"/>
<path d="M0 0 C0.99 0.33 1.98 0.66 3 1 C2.67 1.99 2.34 2.98 2 4 C1.01 3.01 0.02 2.02 -1 1 C-0.67 0.67 -0.34 0.34 0 0 Z " fill="#000000" transform="translate(26,116)"/>
<path d="M0 0 C0.99 0.33 1.98 0.66 3 1 C2.67 1.99 2.34 2.98 2 4 C1.01 3.01 0.02 2.02 -1 1 C-0.67 0.67 -0.34 0.34 0 0 Z " fill="#000000" transform="translate(639,16)"/>
</svg>
