<svg width="566" height="712" viewBox="0 0 566 712" fill="none" xmlns="http://www.w3.org/2000/svg">
<circle cx="208.5" cy="278.5" r="30.5" fill="black"/>
<path d="M265.943 267.999C267.342 254.935 246.308 238.45 235.616 231.84C223.952 219.243 221.814 200.153 222.202 192.182C222.397 182.268 229.317 157.423 255.445 137.361C281.572 117.299 310.266 123.17 321.347 128.613C336.705 134.056 373.369 144.942 397.163 144.942C420.958 144.942 449.846 134.056 461.316 128.613C434.294 151.552 375.002 204.313 354.006 231.84C333.011 259.368 312.21 326.513 304.434 356.645C294.52 407.967 274.691 511.078 274.691 512.944C274.691 515.277 250.196 626.086 210.538 644.165C170.88 662.244 152.218 654.079 134.722 636.583C117.226 619.087 116.059 564.266 114.893 543.271C113.726 522.275 95.0639 519.943 79.3174 524.608C63.5709 529.274 14.5818 572.431 5.83373 593.426C-2.91433 614.422 9.91615 630.168 26.2459 654.079C42.5756 677.991 88.6487 703.068 138.221 707.734C187.793 712.4 209.372 706.568 256.028 693.737C302.684 680.907 327.179 652.33 355.756 623.17C384.333 594.009 405.911 545.02 415.826 520.526C423.758 500.93 436.238 448.597 441.487 424.88L461.316 308.24C465.981 281.218 477.179 220.176 484.644 192.182C492.109 164.188 506.806 135.806 513.221 125.114C517.692 118.893 530.95 101.785 548.213 83.1229C569.792 59.7948 562.793 59.2115 556.961 48.1307C552.296 39.266 534.799 33.1618 526.635 31.2178C524.302 29.857 515.204 29.9347 497.474 41.1322C479.745 52.3297 458.594 52.7963 450.235 51.6299C435.655 52.2131 423.408 46.9645 383.75 33.5509C344.092 20.1372 298.602 39.9661 281.689 46.9645C264.776 53.963 215.787 94.7873 194.792 121.615C173.796 148.442 162.716 170.604 153.967 196.265C146.969 216.793 147.941 251.086 149.302 265.666C151.635 280.829 162.132 304.157 174.963 319.321C185.227 331.451 204.901 332.54 213.454 331.568C226.285 325.736 230.95 323.986 243.781 311.156C256.611 298.325 264.193 284.328 265.943 267.999Z" stroke="black" stroke-width="5"/>
<path d="M201 287C166.833 194.167 212 8.99987 491 83.0002C474 139.5 391 417 303 618C257.5 698 108.5 723 41 585" stroke="black" stroke-width="2" stroke-dasharray="10 10"/>
<path d="M471.619 509.455V524H469.858V511.301H469.773L466.222 513.659V511.869L469.858 509.455H471.619ZM476.193 524.114C475.843 524.114 475.542 523.988 475.291 523.737C475.04 523.486 474.915 523.186 474.915 522.835C474.915 522.485 475.04 522.184 475.291 521.933C475.542 521.682 475.843 521.557 476.193 521.557C476.544 521.557 476.844 521.682 477.095 521.933C477.346 522.184 477.472 522.485 477.472 522.835C477.472 523.067 477.412 523.28 477.294 523.474C477.18 523.669 477.027 523.825 476.832 523.943C476.643 524.057 476.43 524.114 476.193 524.114ZM480.451 524V522.722L485.252 517.466C485.816 516.85 486.28 516.315 486.644 515.861C487.009 515.402 487.279 514.971 487.454 514.568C487.634 514.161 487.724 513.735 487.724 513.29C487.724 512.778 487.601 512.336 487.354 511.962C487.113 511.588 486.781 511.299 486.36 511.095C485.939 510.892 485.465 510.79 484.94 510.79C484.381 510.79 483.893 510.906 483.477 511.138C483.065 511.365 482.745 511.685 482.518 512.097C482.295 512.509 482.184 512.991 482.184 513.545H480.508C480.508 512.693 480.704 511.945 481.097 511.301C481.49 510.657 482.025 510.155 482.702 509.795C483.384 509.436 484.149 509.256 484.996 509.256C485.849 509.256 486.604 509.436 487.262 509.795C487.92 510.155 488.436 510.641 488.81 511.251C489.184 511.862 489.371 512.542 489.371 513.29C489.371 513.825 489.274 514.348 489.08 514.859C488.891 515.366 488.559 515.932 488.086 516.557C487.617 517.177 486.966 517.935 486.133 518.83L482.866 522.324V522.438H489.627V524H480.451Z" fill="black"/>
<path d="M162.619 46.4545V61H160.858V48.3011H160.773L157.222 50.6591V48.8693L160.858 46.4545H162.619ZM167.193 61.1136C166.843 61.1136 166.542 60.9882 166.291 60.7372C166.04 60.4863 165.915 60.1856 165.915 59.8352C165.915 59.4848 166.04 59.1842 166.291 58.9332C166.542 58.6823 166.843 58.5568 167.193 58.5568C167.544 58.5568 167.844 58.6823 168.095 58.9332C168.346 59.1842 168.472 59.4848 168.472 59.8352C168.472 60.0672 168.412 60.2803 168.294 60.4744C168.18 60.6686 168.027 60.8248 167.832 60.9432C167.643 61.0568 167.43 61.1136 167.193 61.1136ZM174.826 46.4545V61H173.065V48.3011H172.98L169.429 50.6591V48.8693L173.065 46.4545H174.826Z" fill="black"/>
<path d="M341.368 6.49697C341.642 6.01772 341.476 5.4067 340.997 5.13223L333.187 0.659497C332.708 0.385028 332.097 0.55104 331.822 1.03029C331.548 1.50955 331.714 2.12056 332.193 2.39503L339.135 6.3708L335.16 13.3129C334.885 13.7922 335.051 14.4032 335.53 14.6777C336.01 14.9521 336.621 14.7861 336.895 14.3069L341.368 6.49697ZM124.5 214.5C124.5 161.302 145.491 118.44 182.985 84.365C220.51 50.2628 274.592 24.9434 340.762 6.96502L340.238 5.03498C273.908 23.0566 219.49 48.4872 181.64 82.8849C143.759 117.31 122.5 160.698 122.5 214.5H124.5Z" fill="black"/>
<path d="M313.62 689.911C313.295 690.673 313.649 691.555 314.411 691.88L326.829 697.177C327.591 697.502 328.472 697.148 328.797 696.386C329.122 695.624 328.768 694.743 328.006 694.418L316.968 689.709L321.677 678.671C322.002 677.909 321.648 677.028 320.886 676.703C320.124 676.378 319.243 676.732 318.918 677.494L313.62 689.911ZM519.512 235.309C511.106 300.643 490.728 401.777 456.931 492.79C440.033 538.297 419.799 581.221 396.064 615.863C372.318 650.521 345.154 676.764 314.441 689.108L315.559 691.892C347.046 679.236 374.627 652.458 398.539 617.559C422.461 582.643 442.796 539.474 459.744 493.835C493.639 402.557 514.06 301.19 522.488 235.691L519.512 235.309Z" fill="black"/>
</svg>
