<?xml version="1.0" encoding="UTF-8"?>
<svg version="1.1" xmlns="http://www.w3.org/2000/svg" width="800" height="832">
<path d="M0 0 C16.2933777 -0.4638684 30.02016326 5.07865875 42.328125 15.69140625 C60.66328681 33.14161304 69.92367385 56.83218408 74.91796875 81.15625 C75.08981689 81.94254288 75.26166504 82.72883575 75.4387207 83.53895569 C76.13415946 88.7880259 76.05672128 93.99098006 76.04736328 99.28027344 C76.0491156 100.49713333 76.05086792 101.71399323 76.05267334 102.96772766 C76.05631197 106.29180281 76.05547142 109.61581545 76.05229425 112.93988705 C76.0497569 116.42096476 76.05211181 119.90203986 76.05368042 123.38311768 C76.05549713 129.22367837 76.05310787 135.06422639 76.04833984 140.90478516 C76.04288798 147.66111568 76.04466857 154.41741607 76.05016625 161.17374587 C76.05469944 166.97682508 76.05534722 172.77989521 76.05272758 178.58297563 C76.05116725 182.04821915 76.05096459 185.51344849 76.05426407 188.9786911 C76.05768058 192.83574097 76.05294974 196.69275683 76.04736328 200.54980469 C76.04938751 201.70203018 76.05141174 202.85425568 76.05349731 204.04139709 C76.05067749 205.08724472 76.04785767 206.13309235 76.04495239 207.21063232 C76.04457537 208.12278881 76.04419834 209.0349453 76.04380989 209.97474289 C75.91796875 212.15625 75.91796875 212.15625 74.91796875 214.15625 C95.42791905 219.82772325 115.82246248 224.27311983 136.91796875 227.15625 C137.31659299 241.37207626 133.36086789 251.92916371 123.8046875 262.4921875 C111.40709505 274.70225334 92.20233521 282.28641668 74.91796875 282.15625 C74.88638672 282.95087646 74.85480469 283.74550293 74.82226562 284.56420898 C74.06237038 299.51514791 72.17867301 314.35998194 70.41796875 329.21875 C70.33071911 329.95804371 70.24346947 330.69733742 70.1535759 331.45903397 C51.34085337 490.84209986 51.34085337 490.84209986 28.91796875 561.15625 C28.41281738 562.78216064 28.41281738 562.78216064 27.89746094 564.44091797 C16.55622725 600.82254064 1.89944125 637.84727833 -23.08203125 667.15625 C-23.778125 667.98640625 -24.47421875 668.8165625 -25.19140625 669.671875 C-44.98966124 692.55921942 -77.9896163 711.9809116 -108.6862793 714.35791016 C-111.42621491 714.45980755 -114.15277213 714.48534517 -116.89453125 714.46875 C-117.89009033 714.46311035 -118.88564941 714.4574707 -119.91137695 714.45166016 C-150.23799101 713.96681836 -180.75592874 704.63950528 -205.08203125 686.15625 C-205.93410156 685.51171875 -206.78617187 684.8671875 -207.6640625 684.203125 C-239.41340092 659.42791161 -257.51169633 626.61439852 -271.08203125 589.15625 C-271.48873047 588.03508789 -271.89542969 586.91392578 -272.31445312 585.75878906 C-282.91253014 556.12220083 -290.45059557 525.65251384 -296.65869141 494.82421875 C-296.8945974 493.65805779 -296.8945974 493.65805779 -297.13526917 492.46833801 C-297.42881445 491.01068964 -297.71866623 489.55229103 -298.0042572 488.09306335 C-298.44671572 484.84585074 -298.44671572 484.84585074 -300.08203125 482.15625 C-300.17178223 482.90793457 -300.2615332 483.65961914 -300.35400391 484.43408203 C-306.33079779 533.6700615 -318.69338741 581.25199621 -336.14453125 627.63964844 C-336.97478873 629.86837086 -337.76948951 632.10534876 -338.55078125 634.3515625 C-345.27795067 652.77305551 -357.78406247 669.63330001 -371.0390625 683.90234375 C-372.45812192 685.46792173 -373.81985914 687.08661583 -375.1328125 688.7421875 C-389.81363591 706.92404896 -414.75966969 718.06191266 -437.43359375 720.83984375 C-475.84616474 724.17112667 -512.67598575 709.17463587 -542.08203125 685.15625 C-546.22629016 681.63813583 -550.16981004 677.93079774 -554.08203125 674.15625 C-554.85804688 673.43179688 -555.6340625 672.70734375 -556.43359375 671.9609375 C-563.06608208 665.60968542 -568.5719709 658.47256212 -574.08203125 651.15625 C-574.50097656 650.6087207 -574.91992188 650.06119141 -575.3515625 649.49707031 C-624.92387617 584.46291596 -643.48712278 485.35050391 -662.08203125 338.15625 C-662.1233316 337.44612762 -662.16463196 336.73600525 -662.20718384 336.00436401 C-663.04081565 321.44830222 -663.28426023 306.92202769 -663.26953125 292.34375 C-663.268927 291.22896271 -663.26832275 290.11417542 -663.2677002 288.96560669 C-663.24083638 270.61680197 -662.81567997 252.43258211 -661.08203125 234.15625 C-661.01886719 233.48732727 -660.95570313 232.81840454 -660.890625 232.12921143 C-658.83185124 210.57453136 -655.56530408 189.33884526 -651.08203125 168.15625 C-650.86353516 167.11952148 -650.64503906 166.08279297 -650.41992188 165.01464844 C-647.49837568 151.53508375 -643.36421694 138.48108512 -639.01953125 125.40625 C-638.76395447 124.63607544 -638.50837769 123.86590088 -638.24505615 123.0723877 C-629.33946312 96.36917659 -629.33946312 96.36917659 -623.45703125 90.96875 C-622.58175781 90.16050781 -621.70648437 89.35226563 -620.8046875 88.51953125 C-619.90621094 87.73964844 -619.00773438 86.95976562 -618.08203125 86.15625 C-616.81166016 85.03283203 -616.81166016 85.03283203 -615.515625 83.88671875 C-593.09989115 64.81163078 -569.88083385 54.90983709 -540.08203125 57.15625 C-524.61522424 59.06228773 -509.16796999 67.34885244 -498.08203125 78.15625 C-497.13585937 79.00316406 -496.1896875 79.85007812 -495.21484375 80.72265625 C-492.89368233 83.61109195 -492.85601164 85.62532575 -493.1796875 89.26953125 C-493.47717304 91.3395489 -493.80070083 93.40592393 -494.14453125 95.46875 C-494.47420625 97.8113798 -494.79542438 100.15521109 -495.109375 102.5 C-495.36050049 104.36398438 -495.36050049 104.36398438 -495.61669922 106.265625 C-496.42011862 112.98298682 -496.81992294 119.71757704 -497.20703125 126.46875 C-497.28187744 127.69698486 -497.35672363 128.92521973 -497.43383789 130.19067383 C-498.79077784 153.96820364 -499.24476399 177.74372067 -499.24928832 201.555511 C-499.25001603 203.72752717 -499.25218146 205.89953758 -499.25478554 208.07155228 C-499.26396263 215.76010775 -499.26813149 223.44864627 -499.26733398 231.13720703 C-499.26680532 237.35337943 -499.273778 243.56948829 -499.2878418 249.78564453 C-499.48660418 339.71206921 -499.10587976 432.30254494 -457.08203125 584.15625 C-454.70964581 585.83987837 -453.55495362 586.16837621 -450.64453125 586.09375 C-442.92597301 583.26988723 -439.15765407 574.2785065 -435.68359375 567.37890625 C-423.14170403 539.90454563 -417.01944375 509.38765967 -410.08203125 480.15625 C-409.86806702 479.2565448 -409.65410278 478.3568396 -409.43365479 477.42987061 C-393.15266181 408.74839652 -383.80373349 338.23986995 -378.39453125 267.90625 C-378.33223328 267.10604431 -378.2699353 266.30583862 -378.20574951 265.48138428 C-377.46946198 255.85516061 -376.99731031 246.2534347 -376.7734375 236.6015625 C-376.71836921 234.65134795 -376.66262817 232.70115227 -376.60620117 230.75097656 C-376.49922015 227.04590247 -376.44814253 223.34609306 -376.4309082 219.63964844 C-376.11107348 202.68681126 -368.7628727 193.22862804 -357.08203125 181.15625 C-356.27572266 180.22232422 -356.27572266 180.22232422 -355.453125 179.26953125 C-347.75973719 170.68918645 -335.96958679 165.33387758 -325.08203125 162.15625 C-324.35628906 161.93195313 -323.63054687 161.70765625 -322.8828125 161.4765625 C-297.7711201 155.07812081 -270.03838424 164.09259655 -248.08203125 176.15625 C-235.60160619 183.63667506 -235.60160619 183.63667506 -231.08203125 188.15625 C-230.82374573 190.39196777 -230.82374573 190.39196777 -230.81079102 193.22460938 C-230.80046341 194.29173157 -230.7901358 195.35885376 -230.77949524 196.45831299 C-230.77749619 197.6270697 -230.77549713 198.79582642 -230.7734375 200 C-230.75074327 202.510746 -230.727613 205.02148808 -230.70410156 207.53222656 C-230.69461392 208.87080716 -230.68538127 210.20938959 -230.6763916 211.54797363 C-230.09253451 292.72710059 -218.60013493 372.68165739 -141.08203125 577.15625 C-140.66953125 577.76082031 -140.25703125 578.36539063 -139.83203125 578.98828125 C-136.10307804 584.10264416 -130.10397466 588.18922536 -123.9375 589.671875 C-117.8222596 590.00960031 -112.99720806 587.3986937 -108.3046875 583.7890625 C-102.57658297 578.56752504 -98.82593727 571.85462961 -95.08203125 565.15625 C-94.44394531 564.01800781 -93.80585937 562.87976563 -93.1484375 561.70703125 C-77.49045666 532.59686441 -69.9799731 499.23209868 -63.08203125 467.15625 C-62.78044245 465.77502819 -62.47867759 464.39384481 -62.17675781 463.01269531 C-49.78609499 406.01954288 -43.42170039 347.69995507 -37.64453125 289.71875 C-37.56054077 288.88893616 -37.47655029 288.05912231 -37.39001465 287.2041626 C-37.01520436 283.46690597 -36.66657099 279.73281653 -36.39477539 275.98657227 C-36.08203125 272.15625 -36.08203125 272.15625 -35.53295898 268.88647461 C-35.06566145 264.98743084 -34.91143715 261.94638427 -37.13204956 258.55050659 C-40.67359374 254.14469198 -44.84898992 250.38949567 -49.01953125 246.59375 C-51.45556763 244.311555 -53.87623313 242.01334626 -56.296875 239.71484375 C-56.88714981 239.15962036 -57.47742462 238.60439697 -58.08558655 238.03234863 C-63.2698514 233.10774362 -67.69805438 227.80904598 -72.08203125 222.15625 C-73.08071181 220.94618896 -74.08397946 219.73988474 -75.09375 218.5390625 C-94.1254581 195.51992425 -114.08190168 166.75757162 -117.08203125 136.15625 C-117.22318359 134.79693359 -117.22318359 134.79693359 -117.3671875 133.41015625 C-119.11042901 99.03700958 -99.28817868 64.7459268 -77.08203125 40.15625 C-59.22418836 20.68525807 -32.63563194 2.01777869 -5.6328125 0.25 C-3.75462807 0.18097025 -1.87704191 0.09516055 0 0 Z M-79.08203125 51.15625 C-97.44585826 72.86135395 -111.97218535 103.64475756 -111.390625 132.5859375 C-108.10319006 170.62031139 -80.56695278 204.71987357 -55.4921875 231.5625 C-53.48630755 233.72117794 -51.55290211 235.91218981 -49.64453125 238.15625 C-46.55624075 241.71563566 -43.27944566 245.06720083 -39.95703125 248.40625 C-39.45373291 248.91414062 -38.95043457 249.42203125 -38.43188477 249.9453125 C-36.171256 252.1966352 -34.15802421 254.1124013 -31.38256836 255.71386719 C-28.77391736 258.48336146 -28.75304512 258.87989593 -28.84643555 262.48828125 C-29.00521834 264.31773236 -29.19430641 266.14469319 -29.40625 267.96875 C-29.55038582 269.47972511 -29.55038582 269.47972511 -29.69743347 271.02122498 C-30.02795691 274.40285683 -30.39805062 277.77888907 -30.76953125 281.15625 C-31.01544664 283.55720849 -31.2597129 285.95833638 -31.50244141 288.35961914 C-32.24633311 295.60131629 -33.04211456 302.83674741 -33.84992218 310.07151031 C-34.08337561 312.16832465 -34.31471883 314.26536118 -34.54534912 316.36248779 C-55.3008634 505.04697509 -55.3008634 505.04697509 -104.08203125 588.15625 C-111.9452188 593.62315222 -118.470064 596.49867058 -128.09765625 594.80078125 C-140.82040881 590.94775253 -149.05058148 577.71664867 -155.03515625 566.609375 C-157.16305841 562.51113289 -159.12316394 558.33718045 -161.08203125 554.15625 C-161.48647461 553.30724121 -161.89091797 552.45823242 -162.30761719 551.58349609 C-197.46964449 477.67444924 -219.42579962 397.18059865 -234.08203125 278.15625 C-234.19530762 276.87492187 -234.30858398 275.59359375 -234.42529297 274.2734375 C-235.50021768 261.47622953 -236.13778088 248.7719911 -236.05754089 235.93223572 C-236.02741577 230.92939077 -236.03366766 225.92671686 -236.03677368 220.92379761 C-236.01977963 217.21052176 -235.94146273 213.50169285 -235.86206055 209.78930664 C-235.34694368 198.27737306 -235.34694368 198.27737306 -239.33178711 187.90673828 C-242.1821897 185.77844423 -244.77669123 184.44409558 -248.08203125 183.15625 C-249.42712125 182.39654733 -250.76559431 181.62487206 -252.09375 180.8359375 C-253.31249479 180.22128177 -254.53788136 179.61961986 -255.76953125 179.03125 C-256.44105225 178.70487549 -257.11257324 178.37850098 -257.80444336 178.04223633 C-278.64788114 168.11413313 -302.03790855 161.74674453 -325 168.0546875 C-339.8373266 173.35776241 -351.17855401 181.99067965 -361.08203125 194.15625 C-361.78021973 194.96425049 -362.4784082 195.77225098 -363.19775391 196.60473633 C-370.66576497 206.66207328 -370.43056899 217.32579907 -370.73794556 229.49331665 C-370.86674805 234.50784041 -371.08142967 239.51761264 -371.29231262 244.5292511 C-371.39959128 247.08173813 -371.503092 249.63438672 -371.60282898 252.18717957 C-372.05326363 263.47944706 -372.85478625 274.7165911 -373.89453125 285.96875 C-373.97694061 286.86514191 -374.05934998 287.76153381 -374.14425659 288.68508911 C-377.77512843 327.68041703 -382.67425867 366.52015108 -389.08203125 405.15625 C-389.30795959 406.52049103 -389.30795959 406.52049103 -389.53845215 407.91229248 C-394.38323452 437.01789564 -400.51991777 465.76900682 -407.43035889 494.45129395 C-408.04762341 497.01343023 -408.6609451 499.57648463 -409.27392578 502.13964844 C-427.07649525 576.23954389 -427.07649525 576.23954389 -444.08203125 590.15625 C-448.56921627 592.35076392 -452.31654385 592.73001022 -457.08203125 591.15625 C-470.62670896 583.94995545 -476.07022938 561.91970025 -480.32958984 548.21484375 C-483.23729294 538.596966 -485.62625055 528.96295828 -487.51953125 519.09375 C-487.66444 518.34458313 -487.80934875 517.59541626 -487.95864868 516.82354736 C-497.20113855 468.51181201 -500.3019114 419.13590088 -502.76953125 370.09375 C-502.83046967 368.88384399 -502.89140808 367.67393799 -502.95419312 366.42736816 C-503.37167983 358.00523972 -503.73691848 349.58162201 -504.08203125 341.15625 C-504.1562178 339.46014084 -504.1562178 339.46014084 -504.23190308 337.72976685 C-505.48181597 308.4447937 -505.26968959 279.12150964 -505.26714271 249.81599468 C-505.26744451 244.71462773 -505.27558562 239.61331415 -505.2878418 234.51196289 C-505.35538131 205.7258939 -505.35013169 176.96351945 -504.171875 148.1953125 C-504.13132681 147.19645082 -504.09077862 146.19758915 -504.04900169 145.16845894 C-503.3504128 128.48902349 -502.0789527 111.87959684 -500.32568359 95.27856445 C-499.58002266 89.07226517 -499.58002266 89.07226517 -501.12109375 83.2578125 C-515.82110893 69.57159147 -533.96877019 61.91967214 -554.13818359 62.18310547 C-578.50382289 63.32091539 -600.22049349 77.40228186 -617.08203125 94.15625 C-617.6349585 94.69910645 -618.18788574 95.24196289 -618.75756836 95.80126953 C-623.933228 101.23190498 -626.47659089 106.90998797 -629.01953125 113.90625 C-629.44137695 115.03877197 -629.86322266 116.17129395 -630.29785156 117.33813477 C-650.43120043 172.59105356 -657.32666652 231.65461946 -657.26953125 290.15625 C-657.26859467 291.39767761 -657.26765808 292.63910522 -657.26669312 293.91815186 C-657.23436297 313.73955593 -656.89028948 333.40852803 -655.08203125 353.15625 C-654.96891602 354.40393158 -654.96891602 354.40393158 -654.85351562 355.67681885 C-648.43037346 425.80307918 -634.59773027 494.71635355 -611.08203125 561.15625 C-610.71340973 562.19773193 -610.71340973 562.19773193 -610.33734131 563.26025391 C-607.02343139 572.59883515 -603.60506925 581.8943531 -600.08203125 591.15625 C-599.75396484 592.0225 -599.42589844 592.88875 -599.08789062 593.78125 C-589.24136831 619.52379199 -574.75014764 642.51880215 -556.171875 662.84375 C-554.39846284 664.80610514 -552.7005288 666.80286409 -551.01953125 668.84375 C-528.66324613 695.07950813 -492.03390396 712.04286696 -458.08203125 715.15625 C-430.14586348 716.84985324 -406.84229667 708.4092087 -385.59375 690.38671875 C-360.07473455 667.72519803 -346.0920656 638.87838955 -335.08203125 607.15625 C-334.85904358 606.51604919 -334.63605591 605.87584839 -334.40631104 605.21624756 C-317.50787863 556.57401675 -306.00841299 505.94766407 -304.29296875 454.3515625 C-304.16124286 450.88794647 -303.75033335 447.56349512 -303.08203125 444.15625 C-301.76203125 444.15625 -300.44203125 444.15625 -299.08203125 444.15625 C-298.94216797 445.14391357 -298.80230469 446.13157715 -298.65820312 447.14916992 C-288.86464254 515.74421874 -275.82482902 601.35620629 -229.08203125 655.15625 C-228.00308594 656.39955078 -228.00308594 656.39955078 -226.90234375 657.66796875 C-224.66304287 660.19783636 -222.38398028 662.68334447 -220.08203125 665.15625 C-219.40785156 665.89617188 -218.73367188 666.63609375 -218.0390625 667.3984375 C-195.0778305 691.6089673 -162.56332693 704.0495035 -130.08203125 708.15625 C-128.87933594 708.32382812 -127.67664063 708.49140625 -126.4375 708.6640625 C-97.95817578 711.78054268 -67.50939742 697.9067888 -45.63671875 680.45703125 C-42.37017761 677.77697311 -39.21704078 674.98894025 -36.08203125 672.15625 C-35.28152344 671.43953125 -34.48101563 670.7228125 -33.65625 669.984375 C-22.61361058 659.54976723 -14.4958436 646.30420882 -7.08203125 633.15625 C-6.71899902 632.52058105 -6.3559668 631.88491211 -5.98193359 631.22998047 C40.26861817 549.64376234 49.91756264 446.15982287 64.35546875 330.15625 C64.43995899 329.45225822 64.52444923 328.74826645 64.61149979 328.02294159 C66.6825218 310.75699643 68.54446952 293.49305337 69.91796875 276.15625 C70.66467331 276.1635463 71.41137787 276.17084259 72.18070984 276.17835999 C73.16481339 276.18403488 74.14891693 276.18970978 75.1628418 276.19555664 C76.13642136 276.20285294 77.11000092 276.21014923 78.11308289 276.21766663 C93.73258 275.87565741 109.82520505 267.75046252 120.91796875 257.15625 C126.7805422 250.3094489 130.91796875 242.33991736 130.91796875 233.15625 C125.72205655 231.97485186 120.51881958 230.86567737 115.29296875 229.82421875 C84.5110206 223.66616703 84.5110206 223.66616703 70.91796875 218.15625 C70.92073413 217.54593052 70.92349951 216.93561104 70.92634869 216.30679703 C70.99299924 201.36189254 71.04243736 186.4170346 71.07340527 171.4720192 C71.08878441 164.2443122 71.10969938 157.01670523 71.14428711 149.7890625 C71.17446717 143.47938769 71.19360852 137.16978542 71.20023423 130.86004043 C71.20409891 127.52814262 71.21463504 124.19661446 71.23515892 120.86475372 C71.35045601 101.35134442 70.8150938 82.41301182 64.23046875 63.84375 C63.88234131 62.83666992 63.53421387 61.82958984 63.17553711 60.79199219 C55.81977077 40.1554865 43.67731264 20.7526549 23.91796875 10.15625 C-14.67439332 -6.12769876 -54.49981162 23.90164746 -79.08203125 51.15625 Z " fill="#000000" transform="translate(663.08203125,50.84375)"/>
<path d="M0 0 C6.517904 4.68956663 12.55343845 10.81246164 14 19 C14.7992898 30.25557271 13.99078008 38.31915226 6.75 47.25 C2.47095723 51.8603235 -2.66218838 55.94186102 -9 57 C-11.59373914 57.06898242 -14.15810197 57.09434752 -16.75 57.0625 C-17.44738281 57.05798828 -18.14476563 57.05347656 -18.86328125 57.04882812 C-20.57555803 57.0371002 -22.28779033 57.01916653 -24 57 C-24 59.64 -24 62.28 -24 65 C-24.99 65 -25.98 65 -27 65 C-27 61.7 -27 58.4 -27 55 C-27.72058594 54.92007813 -28.44117187 54.84015625 -29.18359375 54.7578125 C-35.53953979 53.04761343 -41.26737675 46.77224933 -44.5625 41.1875 C-47.98323368 33.60239488 -48.29008021 24.37792472 -46.3515625 16.296875 C-42.8581449 7.75740977 -36.29102985 0.98311331 -28 -3 C-19.23447434 -5.98563756 -7.6962579 -5.12579848 0 0 Z " fill="#000000" transform="translate(105,163)"/>
<path d="M0 0 C3.7093922 3.42818615 6.085362 6.57039403 8.3125 11.09375 C8.9121337 12.29067809 9.51191169 13.48753389 10.11181641 14.68432617 C10.41935852 15.30681244 10.72690063 15.92929871 11.04376221 16.57064819 C23.48179487 41.6662269 38.44032442 64.97514613 57 86 C57.79277344 86.91523437 58.58554688 87.83046875 59.40234375 88.7734375 C63.95824543 93.96015633 68.65230707 98.63929738 74 103 C74.99515625 103.83273437 75.9903125 104.66546875 77.015625 105.5234375 C102.13446649 126.19506889 130.35066648 136.27014061 163 134 C195.91891242 130.464134 225.01667346 112.72292483 250 92 C252.04132649 90.3329167 254.08299658 88.66625406 256.125 87 C257.75045282 85.66721874 259.37562145 84.33409037 261 83 C258.03 82.34 255.06 81.68 252 81 C252 80.01 252 79.02 252 78 C257.61 78 263.22 78 269 78 C269 83.61 269 89.22 269 95 C267.68 95 266.36 95 265 95 C265 92.03 265 89.06 265 86 C263.4160238 87.29087824 261.83287215 88.58276822 260.25 89.875 C259.239375 90.69871094 258.22875 91.52242187 257.1875 92.37109375 C255.14243586 94.04732485 253.13048804 95.74782754 251.125 97.47265625 C238.82724008 108.01598031 225.31420593 116.46319087 211 124 C210.39220703 124.32097656 209.78441406 124.64195312 209.15820312 124.97265625 C181.10367199 139.53298837 148.31823272 143.85568999 117.92333984 134.35058594 C97.52051503 127.4167543 79.92577432 115.42504331 64.5703125 100.5234375 C63.02599392 99.02521798 61.46677231 97.54380798 59.90625 96.0625 C53.08312911 89.50302704 47.10008375 82.50826473 41.44042969 74.92773438 C40.46081045 73.61670497 39.47419805 72.31087821 38.48144531 71.00976562 C25.66959893 54.19870738 15.4714403 35.94859002 5.6875 17.25 C5.12998047 16.18450928 4.57246094 15.11901855 3.99804688 14.02124023 C3.48693359 13.02938721 2.97582031 12.03753418 2.44921875 11.015625 C1.99893311 10.14196289 1.54864746 9.26830078 1.0847168 8.36816406 C0.09706224 6.21190722 -0.63260184 4.33999513 -1 2 C-0.67 1.34 -0.34 0.68 0 0 Z " fill="#000000" transform="translate(47,652)"/>
<path d="M0 0 C2.71128217 2.71883449 3.61584324 5.0454875 3.61328125 8.7578125 C3.48453104 14.17901831 2.2799399 19.18225689 0.90234375 24.40625 C0.64155029 25.42428711 0.38075684 26.44232422 0.11206055 27.49121094 C-2.49628387 37.47526141 -5.4658691 47.35204455 -8.49975586 57.21362305 C-10.78792907 64.66717736 -12.85777539 72.13253156 -14.66015625 79.71875 C-18.56849926 78.415969 -19.95206086 76.02609695 -22.22265625 72.78125 C-22.87584839 71.8516748 -22.87584839 71.8516748 -23.54223633 70.90332031 C-36.06483389 52.69598945 -49.24192798 29.57422395 -46.66015625 6.71875 C-45.01244772 2.17413997 -42.11375116 -0.26700905 -37.97265625 -2.59375 C-25.92521455 -7.80831432 -10.77712343 -8.31740349 0 0 Z M-39.66015625 6.71875 C-42.81657086 13.03157922 -40.73228577 21.4139702 -38.72265625 27.78125 C-31.55818665 49.86440251 -31.55818665 49.86440251 -17.66015625 66.71875 C-16.16209371 61.74376004 -14.66903569 56.76730257 -13.18017578 51.78955078 C-12.67529262 50.10393898 -12.1691518 48.41870325 -11.66162109 46.73388672 C-9.0886294 38.18951628 -6.55386456 29.63515154 -4.30078125 21 C-3.8217334 19.1756543 -3.8217334 19.1756543 -3.33300781 17.31445312 C-2.5691883 13.2326194 -2.36980421 9.8625667 -2.66015625 5.71875 C-7.6912164 0.93924286 -13.84885696 -0.05453232 -20.53515625 -0.59375 C-27.60831138 -0.38448506 -34.59005344 1.64864719 -39.66015625 6.71875 Z " fill="#000000" transform="translate(675.66015625,160.28125)"/>
<path d="M0 0 C2.891184 1.30765383 4.01510609 3.13796466 5.796875 5.73828125 C6.41046875 6.61097656 7.0240625 7.48367188 7.65625 8.3828125 C9.046875 10.92578125 9.046875 10.92578125 9.046875 14.92578125 C7.296875 14.80078125 7.296875 14.80078125 5.046875 13.92578125 C3.66742961 11.9573026 2.33002869 9.95833983 1.046875 7.92578125 C0.87148193 8.73917969 0.69608887 9.55257812 0.51538086 10.390625 C-15.99663706 86.47321095 -15.99663706 86.47321095 -37.953125 101.92578125 C-43.1706386 104.64796226 -48.35228306 104.30113593 -53.953125 102.92578125 C-67.99773025 97.21198222 -76.04693226 83.65620709 -82.953125 70.92578125 C-83.29585449 70.29542969 -83.63858398 69.66507813 -83.99169922 69.015625 C-89.87633376 58.04073933 -94.61201143 46.58872822 -98.953125 34.92578125 C-99.26040527 34.1147998 -99.56768555 33.30381836 -99.88427734 32.46826172 C-100.31087646 31.28514404 -100.31087646 31.28514404 -100.74609375 30.078125 C-101.00285889 29.37550537 -101.25962402 28.67288574 -101.52416992 27.94897461 C-102.0194793 25.61281706 -101.69553124 24.17126878 -100.953125 21.92578125 C-99.963125 22.25578125 -98.973125 22.58578125 -97.953125 22.92578125 C-96.88500977 25.13696289 -96.88500977 25.13696289 -95.89453125 28.0859375 C-95.51490234 29.17817627 -95.13527344 30.27041504 -94.74414062 31.39575195 C-94.33873047 32.58128662 -93.93332031 33.76682129 -93.515625 34.98828125 C-80.55349244 71.59465118 -80.55349244 71.59465118 -53.453125 97.98828125 C-48.8344434 99.22542811 -45.49549422 99.58092559 -40.953125 97.92578125 C-17.99045398 83.41365842 -12.01450524 44.95342618 -6.515625 20.67578125 C-6.35167236 19.95575928 -6.18771973 19.2357373 -6.01879883 18.49389648 C-5.24556022 14.91556086 -4.77569172 11.5880042 -4.953125 7.92578125 C-7.263125 9.24578125 -9.573125 10.56578125 -11.953125 11.92578125 C-12.943125 10.44078125 -12.943125 10.44078125 -13.953125 8.92578125 C-12.51664236 7.7994825 -11.07889915 6.67479135 -9.640625 5.55078125 C-8.84011719 4.92429687 -8.03960938 4.2978125 -7.21484375 3.65234375 C-2.3151924 -0.08797731 -2.3151924 -0.08797731 0 0 Z " fill="#000000" transform="translate(588.953125,510.07421875)"/>
<path d="M0 0 C14.34917988 10.17424991 30.7548297 22.80291355 40.67529297 37.48217773 C40.34529297 38.47217773 40.01529297 39.46217773 39.67529297 40.48217773 C36.2823146 39.91547043 34.97124484 39.04066193 32.86279297 36.35717773 C12.33766235 11.99720318 -17.74245096 -12.79557244 -50.79589844 -15.73779297 C-70.54757547 -16.63800853 -86.2998135 -12.18717601 -101.56689453 0.81811523 C-110.93775126 9.87041593 -118.24345134 21.01037687 -124.32470703 32.48217773 C-124.32470703 33.14217773 -124.32470703 33.80217773 -124.32470703 34.48217773 C-123.21095703 34.13155273 -122.09720703 33.78092773 -120.94970703 33.41967773 C-117.32470703 32.48217773 -117.32470703 32.48217773 -115.32470703 33.48217773 C-116.35657124 36.36532772 -117.03145322 37.32717215 -119.78564453 38.78295898 C-120.74728516 39.11682617 -121.70892578 39.45069336 -122.69970703 39.79467773 C-123.65619141 40.14143555 -124.61267578 40.48819336 -125.59814453 40.84545898 C-129.91646986 41.85389312 -129.91646986 41.85389312 -132.32470703 40.48217773 C-133.48518225 38.12244535 -134.33928159 36.02192934 -135.13720703 33.54467773 C-135.36601563 32.89821289 -135.59482422 32.25174805 -135.83056641 31.58569336 C-136.40050822 29.90724087 -136.8699187 28.19542145 -137.32470703 26.48217773 C-136.99470703 25.82217773 -136.66470703 25.16217773 -136.32470703 24.48217773 C-134.44970703 25.10717773 -134.44970703 25.10717773 -132.32470703 26.48217773 C-131.59821847 28.46123277 -130.92601517 30.46156571 -130.32470703 32.48217773 C-129.86322266 31.70616211 -129.40173828 30.93014648 -128.92626953 30.13061523 C-115.08681281 7.21072446 -100.41738814 -11.64069153 -73.58642578 -19.63110352 C-47.8844483 -25.75786143 -20.8694629 -14.32337893 0 0 Z " fill="#000000" transform="translate(702.32470703125,49.517822265625)"/>
<path d="M0 0 C4.20763224 1.5027258 5.8027758 4.23332995 8 8 C8 8.66 8 9.32 8 10 C6.0625 9.6875 6.0625 9.6875 4 9 C3.505 7.515 3.505 7.515 3 6 C2.34 6 1.68 6 1 6 C0.9071875 6.99 0.9071875 6.99 0.8125 8 C-1.65030072 17.09341803 -8.61087233 23.58983069 -16.3828125 28.5078125 C-27.65992176 34.56336635 -39.46850871 35.53881568 -52 36 C-52.495 34.515 -52.495 34.515 -53 33 C-52.4016333 32.93530518 -51.8032666 32.87061035 -51.18676758 32.80395508 C-28.12386742 30.35513915 -28.12386742 30.35513915 -9 18 C-4.74376482 13.01621866 -4.74376482 13.01621866 -3 7 C-4.65 7.33 -6.3 7.66 -8 8 C-6.49776416 3.79373966 -3.71449966 2.26099979 0 0 Z " fill="#000000" transform="translate(792,320)"/>
<path d="M0 0 C1.4540625 0.0309375 1.4540625 0.0309375 2.9375 0.0625 C5.0625 4.6875 5.0625 4.6875 3.9375 8.0625 C4.26300502 9.73071323 4.59596063 11.39749557 4.9375 13.0625 C4.6075 13.7225 4.2775 14.3825 3.9375 15.0625 C1.125 15.9375 1.125 15.9375 -2.0625 16.0625 C-4.4375 14.125 -4.4375 14.125 -6.0625 12.0625 C-2.43923261 10.8547442 -1.42103631 11.51938872 1.9375 13.0625 C1.9375 11.7425 1.9375 10.4225 1.9375 9.0625 C0.6175 9.0625 -0.7025 9.0625 -2.0625 9.0625 C-2.0625 8.0725 -2.0625 7.0825 -2.0625 6.0625 C-0.7425 6.0625 0.5775 6.0625 1.9375 6.0625 C1.6075 5.0725 1.2775 4.0825 0.9375 3.0625 C-1.0425 3.7225 -3.0225 4.3825 -5.0625 5.0625 C-3.9375 0.08035714 -3.9375 0.08035714 0 0 Z " fill="#000000" transform="translate(664.0625,3.9375)"/>
<path d="M0 0 C3.0625 0.1875 3.0625 0.1875 5.0625 2.1875 C4.90004442 5.92397845 4.47466356 7.71288742 2 10.5625 C1.360625 11.09875 0.72125 11.635 0.0625 12.1875 C1.7125 12.5175 3.3625 12.8475 5.0625 13.1875 C5.0625 13.8475 5.0625 14.5075 5.0625 15.1875 C1.7625 15.1875 -1.5375 15.1875 -4.9375 15.1875 C-2.9375 11.1875 -2.9375 11.1875 -0.8125 8.625 C1.36735538 6.30372611 1.36735538 6.30372611 1.0625 3.1875 C0.4025 3.1875 -0.2575 3.1875 -0.9375 3.1875 C-1.2675 3.8475 -1.5975 4.5075 -1.9375 5.1875 C-2.9275 5.1875 -3.9175 5.1875 -4.9375 5.1875 C-3.82120474 0.24390669 -3.82120474 0.24390669 0 0 Z " fill="#000000" transform="translate(544.9375,534.8125)"/>
<path d="M0 0 C0.99 0 1.98 0 3 0 C3 3.3 3 6.6 3 10 C3.66 10 4.32 10 5 10 C5 10.66 5 11.32 5 12 C4.34 12 3.68 12 3 12 C3 12.99 3 13.98 3 15 C2.34 15 1.68 15 1 15 C1 14.01 1 13.02 1 12 C-1.31 12 -3.62 12 -6 12 C-5.56629155 7.2292071 -3.35665609 3.36635741 0 0 Z M0 4 C-0.99 5.98 -1.98 7.96 -3 10 C-1.68 10 -0.36 10 1 10 C1 8.02 1 6.04 1 4 C0.67 4 0.34 4 0 4 Z " fill="#000000" transform="translate(776,357)"/>
<path d="M0 0 C0.53625 0.474375 1.0725 0.94875 1.625 1.4375 C4.42842836 3.28186076 6.69620258 3.62456847 10 4 C10 4.99 10 5.98 10 7 C8.35 7 6.7 7 5 7 C4.93941406 7.62648438 4.87882813 8.25296875 4.81640625 8.8984375 C4.73261719 9.71570313 4.64882813 10.53296875 4.5625 11.375 C4.48128906 12.18710937 4.40007813 12.99921875 4.31640625 13.8359375 C4 16 4 16 3 18 C2.01 17.67 1.02 17.34 0 17 C0.09539063 16.16855469 0.19078125 15.33710938 0.2890625 14.48046875 C0.39992188 13.39378906 0.51078125 12.30710937 0.625 11.1875 C0.74101563 10.10855469 0.85703125 9.02960938 0.9765625 7.91796875 C1.27460156 4.80375668 1.27460156 4.80375668 -1 2 C-0.67 1.34 -0.34 0.68 0 0 Z " fill="#000000" transform="translate(680,296)"/>
<path d="M0 0 C0 4.95 0 9.9 0 15 C-0.99 15 -1.98 15 -3 15 C-3 11.37 -3 7.74 -3 4 C-3.99 4.33 -4.98 4.66 -6 5 C-5.625 3.0625 -5.625 3.0625 -5 1 C-3 0 -3 0 0 0 Z " fill="#000000" transform="translate(166,812)"/>
<path d="M0 0 C0 4.95 0 9.9 0 15 C-0.99 15 -1.98 15 -3 15 C-3 11.37 -3 7.74 -3 4 C-3.99 4.33 -4.98 4.66 -6 5 C-5.625 3.0625 -5.625 3.0625 -5 1 C-3 0 -3 0 0 0 Z " fill="#000000" transform="translate(532,535)"/>
<path d="M0 0 C0 4.95 0 9.9 0 15 C-0.99 15 -1.98 15 -3 15 C-3 11.37 -3 7.74 -3 4 C-3.99 4.33 -4.98 4.66 -6 5 C-5.625 3.0625 -5.625 3.0625 -5 1 C-3 0 -3 0 0 0 Z " fill="#000000" transform="translate(762,357)"/>
<path d="M0 0 C0 4.95 0 9.9 0 15 C-0.99 15 -1.98 15 -3 15 C-3 11.37 -3 7.74 -3 4 C-3.99 4.33 -4.98 4.66 -6 5 C-5.625 3.0625 -5.625 3.0625 -5 1 C-3 0 -3 0 0 0 Z " fill="#000000" transform="translate(651,4)"/>
<path d="M0 0 C0 4.95 0 9.9 0 15 C-0.66 15 -1.32 15 -2 15 C-2.33 11.37 -2.66 7.74 -3 4 C-3.99 4.33 -4.98 4.66 -6 5 C-6 4.01 -6 3.02 -6 2 C-3 0 -3 0 0 0 Z " fill="#000000" transform="translate(178,812)"/>
<path d="M0 0 C5.94 0.99 5.94 0.99 12 2 C12 2.99 12 3.98 12 5 C10.20793453 4.85915204 8.41635083 4.71216299 6.625 4.5625 C5.62726562 4.48128906 4.62953125 4.40007812 3.6015625 4.31640625 C1 4 1 4 -1 3 C-0.67 2.01 -0.34 1.02 0 0 Z " fill="#000000" transform="translate(702,302)"/>
<path d="M0 0 C3.36295835 1.44126786 5.62927102 3.20592655 8 6 C8 6.99 8 7.98 8 9 C3.75177626 8.52797514 1.80010291 6.03344482 -1 3 C-0.67 2.01 -0.34 1.02 0 0 Z " fill="#000000" transform="translate(651,269)"/>
<path d="M0 0 C1.32 0.33 2.64 0.66 4 1 C2.02 3.31 0.04 5.62 -2 8 C-3.32 7.67 -4.64 7.34 -6 7 C-4.02 4.69 -2.04 2.38 0 0 Z " fill="#000000" transform="translate(621,113)"/>
<path d="M0 0 C0.66 0.33 1.32 0.66 2 1 C0.64486335 5.06540996 -1.30796918 5.97300269 -5 8 C-7.375 7.75 -7.375 7.75 -9 7 C-6.25604436 4.05278838 -3.61662784 1.80831392 0 0 Z " fill="#000000" transform="translate(577,682)"/>
<path d="M0 0 C3.5786304 1.65167557 6.74820188 3.78286492 10 6 C9.67 6.99 9.34 7.98 9 9 C5.4213696 7.34832443 2.25179812 5.21713508 -1 3 C-0.67 2.01 -0.34 1.02 0 0 Z " fill="#000000" transform="translate(492,679)"/>
<path d="M0 0 C0.99 0.33 1.98 0.66 3 1 C1.51218185 4.78717347 -0.61988409 6.77407001 -4 9 C-4.99 8.67 -5.98 8.34 -7 8 C-6.02133662 6.85373678 -5.04205413 5.70800212 -4.0625 4.5625 C-3.51722656 3.92441406 -2.97195313 3.28632812 -2.41015625 2.62890625 C-1.63204305 1.73008851 -0.84063472 0.84063472 0 0 Z " fill="#000000" transform="translate(592,669)"/>
<path d="M0 0 C3.78717347 1.48781815 5.77407001 3.61988409 8 7 C7.67 7.99 7.34 8.98 7 10 C3.46766245 8.82255415 3.13691925 8.04394359 1.3125 4.9375 C0.87550781 4.20402344 0.43851562 3.47054687 -0.01171875 2.71484375 C-0.50091797 1.86599609 -0.50091797 1.86599609 -1 1 C-0.67 0.67 -0.34 0.34 0 0 Z " fill="#000000" transform="translate(464,649)"/>
<path d="M0 0 C0.66 0 1.32 0 2 0 C1.56179109 4.55737263 1.14958831 7.57653445 -2 11 C-2.99 10.67 -3.98 10.34 -5 10 C-3.33333333 6.66666667 -1.66666667 3.33333333 0 0 Z " fill="#000000" transform="translate(618,637)"/>
<path d="M0 0 C0.99 0 1.98 0 3 0 C4.19287411 3.87684087 5 6.91621923 5 11 C4.01 11 3.02 11 2 11 C0.80712589 7.12315913 0 4.08378077 0 0 Z " fill="#000000" transform="translate(408,498)"/>
<path d="M0 0 C0.99 0 1.98 0 3 0 C4.42258812 3.82320557 5.24042276 6.91281305 5 11 C4.01 11 3.02 11 2 11 C1.34 7.37 0.68 3.74 0 0 Z " fill="#000000" transform="translate(388,420)"/>
<path d="M0 0 C0.66 0.33 1.32 0.66 2 1 C0.52440331 5.42679007 -1.90057368 5.91432696 -6 8 C-6.66 8 -7.32 8 -8 8 C-7.9375 6.25 -7.9375 6.25 -7 4 C-4.74876994 2.27481113 -2.59865097 1.23093993 0 0 Z " fill="#000000" transform="translate(242,711)"/>
<path d="M0 0 C0.66 0.99 1.32 1.98 2 3 C-5.28571429 6.57142857 -5.28571429 6.57142857 -10 5 C-9 3 -9 3 -6.93359375 2.1484375 C-5.69802734 1.76558594 -5.69802734 1.76558594 -4.4375 1.375 C-3.61121094 1.11460937 -2.78492188 0.85421875 -1.93359375 0.5859375 C-1.29550781 0.39257812 -0.65742187 0.19921875 0 0 Z " fill="#000000" transform="translate(559,692)"/>
<path d="M0 0 C3.9492568 0.55105909 7.34920174 1.38935371 11 3 C11 3.99 11 4.98 11 6 C6.64477147 5.49357808 3.55760365 4.61588503 0 2 C0 1.34 0 0.68 0 0 Z " fill="#000000" transform="translate(509,691)"/>
<path d="M0 0 C0.99 0.33 1.98 0.66 3 1 C0.89851796 4.98175544 -1.36905358 7.35039045 -5 10 C-5 4.69520066 -3.4637943 3.81017373 0 0 Z " fill="#000000" transform="translate(606,654)"/>
<path d="M0 0 C0.99 0 1.98 0 3 0 C4.65 2.97 6.3 5.94 8 9 C6.68 9 5.36 9 4 9 C0 4 0 4 0 0 Z " fill="#000000" transform="translate(452,632)"/>
<path d="M0 0 C1.890625 0.21484375 1.890625 0.21484375 4 1 C5.046875 3.06640625 5.046875 3.06640625 5.75 5.5625 C5.99234375 6.38878906 6.2346875 7.21507812 6.484375 8.06640625 C6.65453125 8.70449219 6.8246875 9.34257813 7 10 C6.01 10.33 5.02 10.66 4 11 C3.32880451 9.5437455 2.66318193 8.08492133 2 6.625 C1.62875 5.81289063 1.2575 5.00078125 0.875 4.1640625 C0 2 0 2 0 0 Z " fill="#000000" transform="translate(443,614)"/>
<path d="M0 0 C1.32 0.33 2.64 0.66 4 1 C4.66 3.97 5.32 6.94 6 10 C5.01 10 4.02 10 3 10 C2.01 6.7 1.02 3.4 0 0 Z " fill="#000000" transform="translate(436,595)"/>
<path d="M0 0 C0.99 0 1.98 0 3 0 C3.99 3.3 4.98 6.6 6 10 C5.01 10.33 4.02 10.66 3 11 C2.49384702 9.73160474 1.99530901 8.46016898 1.5 7.1875 C1.2215625 6.47980469 0.943125 5.77210938 0.65625 5.04296875 C0 3 0 3 0 0 Z " fill="#000000" transform="translate(430,576)"/>
<path d="M0 0 C0.99 0 1.98 0 3 0 C3.66 3.63 4.32 7.26 5 11 C4.01 11 3.02 11 2 11 C0.80712589 7.12315913 0 4.08378077 0 0 Z " fill="#000000" transform="translate(108,569)"/>
<path d="M0 0 C0.66 0 1.32 0 2 0 C2.99 3.63 3.98 7.26 5 11 C3.68 10.67 2.36 10.34 1 10 C0.63883954 8.5225254 0.28624952 7.04295325 -0.0625 5.5625 C-0.25972656 4.73878906 -0.45695312 3.91507813 -0.66015625 3.06640625 C-0.82837891 2.04353516 -0.82837891 2.04353516 -1 1 C-0.67 0.67 -0.34 0.34 0 0 Z " fill="#000000" transform="translate(425,556)"/>
<path d="M0 0 C0.99 0 1.98 0 3 0 C4.42258812 3.82320557 5.24042276 6.91281305 5 11 C4.01 11 3.02 11 2 11 C1.34 7.37 0.68 3.74 0 0 Z " fill="#000000" transform="translate(374,361)"/>
<path d="M0 0 C0.99 0 1.98 0 3 0 C3.50615298 1.26839526 4.00469099 2.53983102 4.5 3.8125 C4.91765625 4.87404297 4.91765625 4.87404297 5.34375 5.95703125 C6 8 6 8 6 11 C5.01 11 4.02 11 3 11 C2.49384702 9.73160474 1.99530901 8.46016898 1.5 7.1875 C1.2215625 6.47980469 0.943125 5.77210937 0.65625 5.04296875 C0 3 0 3 0 0 Z " fill="#000000" transform="translate(682,117)"/>
<path d="M0 0 C1.22589844 0.01353516 1.22589844 0.01353516 2.4765625 0.02734375 C3.41628906 0.04474609 3.41628906 0.04474609 4.375 0.0625 C4.375 1.0525 4.375 2.0425 4.375 3.0625 C0.745 3.3925 -2.885 3.7225 -6.625 4.0625 C-6.625 3.0725 -6.625 2.0825 -6.625 1.0625 C-4.21954362 -0.14022819 -2.67503047 -0.03821472 0 0 Z " fill="#000000" transform="translate(655.625,97.9375)"/>
<path d="M0 0 C3.3 0.99 6.6 1.98 10 3 C10 3.99 10 4.98 10 6 C8.54096742 5.69078116 7.08279278 5.37751201 5.625 5.0625 C4.81289062 4.88847656 4.00078125 4.71445312 3.1640625 4.53515625 C1 4 1 4 -1 3 C-0.67 2.01 -0.34 1.02 0 0 Z " fill="#000000" transform="translate(196,716)"/>
<path d="M0 0 C3.11198065 1.49836105 6.0534615 3.19933758 9 5 C8.67 5.99 8.34 6.98 8 8 C4.54074837 6.7508258 1.85306797 5.32472205 -1 3 C-0.67 2.01 -0.34 1.02 0 0 Z " fill="#000000" transform="translate(179,706)"/>
<path d="M0 0 C0.66 0.33 1.32 0.66 2 1 C0.83242263 4.32310483 -0.14948857 6.83361132 -3 9 C-3.99 9 -4.98 9 -6 9 C-5.52797514 4.75177626 -3.03344482 2.80010291 0 0 Z " fill="#000000" transform="translate(256,698)"/>
<path d="M0 0 C2.53910197 0.38520564 3.72751123 0.70097943 5.484375 2.62890625 C5.90203125 3.26699219 6.3196875 3.90507813 6.75 4.5625 C7.17796875 5.20316406 7.6059375 5.84382812 8.046875 6.50390625 C8.36140625 6.99761719 8.6759375 7.49132812 9 8 C5 8 5 8 2.25 5.6875 C0 3 0 3 0 0 Z " fill="#000000" transform="translate(164,693)"/>
<path d="M0 0 C0.99 0 1.98 0 3 0 C2.43454163 3.95820859 1.19097652 6.6659053 -1 10 C-1.99 9.67 -2.98 9.34 -4 9 C-2.68 6.03 -1.36 3.06 0 0 Z " fill="#000000" transform="translate(276,665)"/>
<path d="M0 0 C4.04648443 1.34882814 4.95502599 3.34826069 7 7 C6.67 7.99 6.34 8.98 6 10 C5.34 10 4.68 10 4 10 C2.35 7.03 0.7 4.06 -1 1 C-0.67 0.67 -0.34 0.34 0 0 Z " fill="#000000" transform="translate(140,662)"/>
<path d="M0 0 C2 1 2 1 2.8515625 3.06640625 C3.10679687 3.89011719 3.36203125 4.71382812 3.625 5.5625 C3.88539063 6.38878906 4.14578125 7.21507812 4.4140625 8.06640625 C4.60742188 8.70449219 4.80078125 9.34257813 5 10 C4.01 10.33 3.02 10.66 2 11 C0.68 7.7 -0.64 4.4 -2 1 C-1.34 0.67 -0.68 0.34 0 0 Z " fill="#000000" transform="translate(132,644)"/>
<path d="M0 0 C2.3129482 2.3129482 2.49580975 3.47904875 3.125 6.625 C3.29257813 7.44226563 3.46015625 8.25953125 3.6328125 9.1015625 C3.81457031 10.04128906 3.81457031 10.04128906 4 11 C3.01 11 2.02 11 1 11 C0.01 7.7 -0.98 4.4 -2 1 C-1.34 0.67 -0.68 0.34 0 0 Z " fill="#000000" transform="translate(119,607)"/>
<path d="M0 0 C0.99 0 1.98 0 3 0 C2.85892253 1.45880109 2.71197585 2.91703551 2.5625 4.375 C2.48128906 5.18710937 2.40007813 5.99921875 2.31640625 6.8359375 C2 9 2 9 1 11 C0.01 11 -0.98 11 -2 11 C-1.34 7.37 -0.68 3.74 0 0 Z " fill="#000000" transform="translate(634,559)"/>
<path d="M0 0 C0.99 0 1.98 0 3 0 C3.33 3.63 3.66 7.26 4 11 C3.01 11 2.02 11 1 11 C-0.17571451 7.32589215 -0.07366746 3.83070817 0 0 Z " fill="#000000" transform="translate(98,511)"/>
<path d="M0 0 C0.99 0 1.98 0 3 0 C2.85892253 1.45880109 2.71197585 2.91703551 2.5625 4.375 C2.48128906 5.18710937 2.40007813 5.99921875 2.31640625 6.8359375 C2 9 2 9 1 11 C0.01 11 -0.98 11 -2 11 C-1.34 7.37 -0.68 3.74 0 0 Z " fill="#000000" transform="translate(645,500)"/>
<path d="M0 0 C0.99 0 1.98 0 3 0 C3.66 3.3 4.32 6.6 5 10 C4.01 10.33 3.02 10.66 2 11 C0.80712589 7.12315913 0 4.08378077 0 0 Z " fill="#000000" transform="translate(403,479)"/>
<path d="M0 0 C0.99 0 1.98 0 3 0 C3.66 3.63 4.32 7.26 5 11 C4.01 11 3.02 11 2 11 C0.80712589 7.12315913 0 4.08378077 0 0 Z " fill="#000000" transform="translate(398,459)"/>
<path d="M0 0 C0.99 0 1.98 0 3 0 C2.67 3.63 2.34 7.26 2 11 C1.01 11 0.02 11 -1 11 C-0.67 7.37 -0.34 3.74 0 0 Z " fill="#000000" transform="translate(659,421)"/>
<path d="M0 0 C0.99 0.33 1.98 0.66 3 1 C3.66 4.3 4.32 7.6 5 11 C3.68 10.67 2.36 10.34 1 10 C0.63883954 8.5225254 0.28624952 7.04295325 -0.0625 5.5625 C-0.25972656 4.73878906 -0.45695312 3.91507812 -0.66015625 3.06640625 C-0.82837891 2.04353516 -0.82837891 2.04353516 -1 1 C-0.67 0.67 -0.34 0.34 0 0 Z " fill="#000000" transform="translate(384,400)"/>
<path d="M0 0 C0.99 0 1.98 0 3 0 C2.67 3.63 2.34 7.26 2 11 C1.01 11 0.02 11 -1 11 C-0.67 7.37 -0.34 3.74 0 0 Z " fill="#000000" transform="translate(332,397)"/>
<path d="M0 0 C0.99 0 1.98 0 3 0 C2.34 3.63 1.68 7.26 1 11 C0.01 11 -0.98 11 -2 11 C-1.85892253 9.54119891 -1.71197585 8.08296449 -1.5625 6.625 C-1.48128906 5.81289063 -1.40007813 5.00078125 -1.31640625 4.1640625 C-1 2 -1 2 0 0 Z " fill="#000000" transform="translate(667,382)"/>
<path d="M0 0 C0.99 0 1.98 0 3 0 C3 3.63 3 7.26 3 11 C2.01 11 1.02 11 0 11 C0 7.37 0 3.74 0 0 Z " fill="#000000" transform="translate(84,374)"/>
<path d="M0 0 C0.99 0 1.98 0 3 0 C3.66 3.63 4.32 7.26 5 11 C4.01 11 3.02 11 2 11 C0.57741188 7.17679443 -0.24042276 4.08718695 0 0 Z " fill="#000000" transform="translate(370,341)"/>
<path d="M0 0 C0.99 0 1.98 0 3 0 C3.66 3.63 4.32 7.26 5 11 C4.01 11 3.02 11 2 11 C0.80712589 7.12315913 0 4.08378077 0 0 Z " fill="#000000" transform="translate(361,302)"/>
<path d="M0 0 C0.99 0 1.98 0 3 0 C4.42258812 3.82320557 5.24042276 6.91281305 5 11 C4.01 11 3.02 11 2 11 C1.34 7.37 0.68 3.74 0 0 Z " fill="#000000" transform="translate(356,282)"/>
<path d="M0 0 C0.99 0 1.98 0 3 0 C3 3.63 3 7.26 3 11 C2.01 11 1.02 11 0 11 C0 7.37 0 3.74 0 0 Z " fill="#000000" transform="translate(79,276)"/>
<path d="M0 0 C0.99 0.33 1.98 0.66 3 1 C2.67 4.3 2.34 7.6 2 11 C1.01 11 0.02 11 -1 11 C-1.125 3.375 -1.125 3.375 0 0 Z " fill="#000000" transform="translate(688,261)"/>
<path d="M0 0 C0.99 0 1.98 0 3 0 C3 3.63 3 7.26 3 11 C2.01 11 1.02 11 0 11 C0 7.37 0 3.74 0 0 Z " fill="#000000" transform="translate(692,199)"/>
<path d="M0 0 C0.99 0 1.98 0 3 0 C3.66 3.63 4.32 7.26 5 11 C4.01 11 3.02 11 2 11 C1.34 7.37 0.68 3.74 0 0 Z " fill="#000000" transform="translate(688,137)"/>
<path d="M0 0 C3.98175544 2.10148204 6.35039045 4.36905358 9 8 C3.69520066 8 2.81017373 6.4637943 -1 3 C-0.67 2.01 -0.34 1.02 0 0 Z " fill="#000000" transform="translate(670,101)"/>
<path d="M0 0 C3.63 0 7.26 0 11 0 C11 0.99 11 1.98 11 3 C7.7 3 4.4 3 1 3 C0.67 2.01 0.34 1.02 0 0 Z " fill="#000000" transform="translate(529,697)"/>
<path d="M0 0 C0.99 0.33 1.98 0.66 3 1 C1.68 3.64 0.36 6.28 -1 9 C-2.32 9 -3.64 9 -5 9 C-3.35 6.03 -1.7 3.06 0 0 Z " fill="#000000" transform="translate(267,682)"/>
<path d="M0 0 C2.37948772 0.17625835 3.70225849 0.69719773 5.37890625 2.40234375 C6.62115486 3.90649092 7.81376056 5.45129851 9 7 C8.67 7.66 8.34 8.32 8 9 C4.20620942 7.50958227 2.31656242 5.30937488 0 2 C0 1.34 0 0.68 0 0 Z " fill="#000000" transform="translate(151,678)"/>
<path d="M0 0 C4.2742558 1.5830577 6.26531794 4.50568404 9 8 C5 8 5 8 3.296875 6.46875 C2.78640625 5.8190625 2.2759375 5.169375 1.75 4.5 C1.22921875 3.8503125 0.7084375 3.200625 0.171875 2.53125 C-0.21484375 2.0259375 -0.6015625 1.520625 -1 1 C-0.67 0.67 -0.34 0.34 0 0 Z " fill="#000000" transform="translate(477,665)"/>
<path d="M0 0 C0.99 0.33 1.98 0.66 3 1 C2.57742724 2.4835001 2.13643678 3.96176424 1.6875 5.4375 C1.44386719 6.26121094 1.20023437 7.08492187 0.94921875 7.93359375 C0.63597656 8.61550781 0.32273437 9.29742188 0 10 C-0.99 10.33 -1.98 10.66 -3 11 C-2.44894091 7.0507432 -1.61064629 3.65079826 0 0 Z " fill="#000000" transform="translate(284,646)"/>
<path d="M0 0 C0.99 0 1.98 0 3 0 C2.54177532 3.46941546 2.10868317 6.67395049 1 10 C0.01 10 -0.98 10 -2 10 C-1.54177532 6.53058454 -1.10868317 3.32604951 0 0 Z " fill="#000000" transform="translate(290,628)"/>
<path d="M0 0 C0.66 0 1.32 0 2 0 C5.07692308 6.4 5.07692308 6.4 4.6875 9.4375 C4.460625 9.953125 4.23375 10.46875 4 11 C0.55783328 8.3401439 0.00495326 5.09711714 -1 1 C-0.67 0.67 -0.34 0.34 0 0 Z " fill="#000000" transform="translate(124,626)"/>
<path d="M0 0 C0.99 0 1.98 0 3 0 C2.85892253 1.45880109 2.71197585 2.91703551 2.5625 4.375 C2.48128906 5.18710937 2.40007813 5.99921875 2.31640625 6.8359375 C2 9 2 9 1 11 C0.01 10.67 -0.98 10.34 -2 10 C-1.34 6.7 -0.68 3.4 0 0 Z " fill="#000000" transform="translate(622,618)"/>
<path d="M0 0 C0.66 0 1.32 0 2 0 C1.67 3.63 1.34 7.26 1 11 C0.01 11 -0.98 11 -2 11 C-1.85957123 9.35369672 -1.71250671 7.70795821 -1.5625 6.0625 C-1.48128906 5.14597656 -1.40007813 4.22945312 -1.31640625 3.28515625 C-1 1 -1 1 0 0 Z " fill="#000000" transform="translate(627,598)"/>
<path d="M0 0 C0.99 0.66 1.98 1.32 3 2 C2.34 4.97 1.68 7.94 1 11 C0.01 11 -0.98 11 -2 11 C-1.85892253 9.54119891 -1.71197585 8.08296449 -1.5625 6.625 C-1.48128906 5.81289063 -1.40007812 5.00078125 -1.31640625 4.1640625 C-1 2 -1 2 0 0 Z " fill="#000000" transform="translate(301,589)"/>
<path d="M0 0 C0.99 0.33 1.98 0.66 3 1 C2.34 4.3 1.68 7.6 1 11 C0.01 11 -0.98 11 -2 11 C-1.85892253 9.54119891 -1.71197585 8.08296449 -1.5625 6.625 C-1.48128906 5.81289063 -1.40007812 5.00078125 -1.31640625 4.1640625 C-1 2 -1 2 0 0 Z " fill="#000000" transform="translate(305,570)"/>
<path d="M0 0 C0.99 0 1.98 0 3 0 C3.66 3.3 4.32 6.6 5 10 C4.01 10.33 3.02 10.66 2 11 C1.34 7.37 0.68 3.74 0 0 Z " fill="#000000" transform="translate(104,550)"/>
<path d="M0 0 C0.99 0.33 1.98 0.66 3 1 C3.66 4.3 4.32 7.6 5 11 C4.01 11 3.02 11 2 11 C0.57741188 7.17679443 -0.24042276 4.08718695 0 0 Z " fill="#000000" transform="translate(419,537)"/>
<path d="M0 0 C2.56616632 3.84924948 2.55097676 6.4349304 3 11 C2.01 11 1.02 11 0 11 C-0.66 7.7 -1.32 4.4 -2 1 C-1.34 0.67 -0.68 0.34 0 0 Z " fill="#000000" transform="translate(415,517)"/>
<path d="M0 0 C0.66 0 1.32 0 2 0 C2.14285714 7.42857143 2.14285714 7.42857143 1 11 C0.01 11 -0.98 11 -2 11 C-1.85957123 9.35369672 -1.71250671 7.70795821 -1.5625 6.0625 C-1.48128906 5.14597656 -1.40007813 4.22945313 -1.31640625 3.28515625 C-1 1 -1 1 0 0 Z " fill="#000000" transform="translate(649,480)"/>
<path d="M0 0 C0.99 0 1.98 0 3 0 C2.67 3.3 2.34 6.6 2 10 C1.01 10.33 0.02 10.66 -1 11 C-1.14285714 3.57142857 -1.14285714 3.57142857 0 0 Z " fill="#000000" transform="translate(320,474)"/>
<path d="M0 0 C0.99 0 1.98 0 3 0 C2.34 3.63 1.68 7.26 1 11 C0.01 11 -0.98 11 -2 11 C-1.85892253 9.54119891 -1.71197585 8.08296449 -1.5625 6.625 C-1.48128906 5.81289063 -1.40007813 5.00078125 -1.31640625 4.1640625 C-1 2 -1 2 0 0 Z " fill="#000000" transform="translate(656,441)"/>
<path d="M0 0 C0.66 0 1.32 0 2 0 C2.66 3.63 3.32 7.26 4 11 C3.01 11 2.02 11 1 11 C0.63890458 9.35567294 0.28629924 7.7094792 -0.0625 6.0625 C-0.25972656 5.14597656 -0.45695312 4.22945313 -0.66015625 3.28515625 C-0.77230469 2.53105469 -0.88445312 1.77695312 -1 1 C-0.67 0.67 -0.34 0.34 0 0 Z " fill="#000000" transform="translate(394,439)"/>
<path d="M0 0 C0.99 0 1.98 0 3 0 C4.28317892 3.84953676 4.06643637 6.94738135 4 11 C3.01 11 2.02 11 1 11 C0.67 7.37 0.34 3.74 0 0 Z " fill="#000000" transform="translate(88,433)"/>
<path d="M0 0 C0.99 0.33 1.98 0.66 3 1 C2.67 4.3 2.34 7.6 2 11 C1.01 11 0.02 11 -1 11 C-0.67 7.37 -0.34 3.74 0 0 Z " fill="#000000" transform="translate(329,416)"/>
<path d="M0 0 C0.99 0.33 1.98 0.66 3 1 C3 4.3 3 7.6 3 11 C2.01 11 1.02 11 0 11 C0 7.37 0 3.74 0 0 Z " fill="#000000" transform="translate(87,413)"/>
<path d="M0 0 C0.99 0 1.98 0 3 0 C2.67 3.63 2.34 7.26 2 11 C1.01 10.67 0.02 10.34 -1 10 C-0.67 6.7 -0.34 3.4 0 0 Z " fill="#000000" transform="translate(335,378)"/>
<path d="M0 0 C0.66 0 1.32 0 2 0 C1.67 3.63 1.34 7.26 1 11 C0.01 11 -0.98 11 -2 11 C-1.85957123 9.35369672 -1.71250671 7.70795821 -1.5625 6.0625 C-1.48128906 5.14597656 -1.40007813 4.22945313 -1.31640625 3.28515625 C-1 1 -1 1 0 0 Z " fill="#000000" transform="translate(671,362)"/>
<path d="M0 0 C0.99 0 1.98 0 3 0 C4.62950412 4.12168689 5.26264601 6.70700357 4 11 C3.34 10.67 2.68 10.34 2 10 C1.3671875 7.71484375 1.3671875 7.71484375 0.875 4.9375 C0.70742188 4.01839844 0.53984375 3.09929687 0.3671875 2.15234375 C0.24601562 1.44207031 0.12484375 0.73179687 0 0 Z " fill="#000000" transform="translate(365,322)"/>
<path d="M0 0 C0.99 0.33 1.98 0.66 3 1 C2.34 4.3 1.68 7.6 1 11 C0.01 11 -0.98 11 -2 11 C-1.85892253 9.54119891 -1.71197585 8.08296449 -1.5625 6.625 C-1.48128906 5.81289063 -1.40007812 5.00078125 -1.31640625 4.1640625 C-1 2 -1 2 0 0 Z " fill="#000000" transform="translate(348,301)"/>
<path d="M0 0 C4.2742558 1.5830577 6.26531794 4.50568404 9 8 C5 8 5 8 3.296875 6.46875 C2.78640625 5.8190625 2.2759375 5.169375 1.75 4.5 C1.22921875 3.8503125 0.7084375 3.200625 0.171875 2.53125 C-0.21484375 2.0259375 -0.6015625 1.520625 -1 1 C-0.67 0.67 -0.34 0.34 0 0 Z " fill="#000000" transform="translate(665,283)"/>
<path d="M0 0 C0.99 0 1.98 0 3 0 C2.67 3.63 2.34 7.26 2 11 C1.01 11 0.02 11 -1 11 C-0.67 7.37 -0.34 3.74 0 0 Z " fill="#000000" transform="translate(685,282)"/>
<path d="M0 0 C0.99 0 1.98 0 3 0 C2.67 3.63 2.34 7.26 2 11 C1.01 11 0.02 11 -1 11 C-0.67 7.37 -0.34 3.74 0 0 Z " fill="#000000" transform="translate(690,241)"/>
<path d="M0 0 C0.66 0 1.32 0 2 0 C3.32421875 1.42578125 3.32421875 1.42578125 4.6875 3.3125 C5.14511719 3.92738281 5.60273437 4.54226562 6.07421875 5.17578125 C6.53248047 6.07876953 6.53248047 6.07876953 7 7 C6.67 7.99 6.34 8.98 6 10 C3.03595495 7.19195732 0.55500981 4.81684226 -1 1 C-0.67 0.67 -0.34 0.34 0 0 Z " fill="#000000" transform="translate(625,239)"/>
<path d="M0 0 C1.8125 0.125 1.8125 0.125 4 1 C5.95320589 4.20883825 7 6.2205439 7 10 C6.01 10 5.02 10 4 10 C3.32845067 8.71086513 2.66291141 7.41859796 2 6.125 C1.62875 5.40570313 1.2575 4.68640625 0.875 3.9453125 C0 2 0 2 0 0 Z " fill="#000000" transform="translate(614,222)"/>
<path d="M0 0 C0.66 0 1.32 0 2 0 C2 3.63 2 7.26 2 11 C1.01 11 0.02 11 -1 11 C-1.02688151 9.35425434 -1.04634123 7.70838587 -1.0625 6.0625 C-1.07410156 5.14597656 -1.08570313 4.22945312 -1.09765625 3.28515625 C-1 1 -1 1 0 0 Z " fill="#000000" transform="translate(692,220)"/>
<path d="M0 0 C0.99 0 1.98 0 3 0 C3.99 3.3 4.98 6.6 6 10 C4.68 9.67 3.36 9.34 2 9 C1.34 6.03 0.68 3.06 0 0 Z " fill="#000000" transform="translate(607,204)"/>
<path d="M0 0 C1.32 0.33 2.64 0.66 4 1 C4.33 3.97 4.66 6.94 5 10 C4.01 10 3.02 10 2 10 C1.34 6.7 0.68 3.4 0 0 Z " fill="#000000" transform="translate(601,185)"/>
<path d="M0 0 C0.99 0 1.98 0 3 0 C3.33 3.63 3.66 7.26 4 11 C3.01 11 2.02 11 1 11 C0.67 7.37 0.34 3.74 0 0 Z " fill="#000000" transform="translate(599,165)"/>
<path d="M0 0 C0.99 0 1.98 0 3 0 C4.17571451 3.67410785 4.07366746 7.16929183 4 11 C3.01 11 2.02 11 1 11 C0.67 7.37 0.34 3.74 0 0 Z " fill="#000000" transform="translate(691,158)"/>
<path d="M0 0 C0.99 0 1.98 0 3 0 C2.67 3.63 2.34 7.26 2 11 C1.01 10.67 0.02 10.34 -1 10 C-0.67 6.7 -0.34 3.4 0 0 Z " fill="#000000" transform="translate(601,146)"/>
<path d="M0 0 C0.99 0.33 1.98 0.66 3 1 C1.66666667 4.33333333 0.33333333 7.66666667 -1 11 C-1.99 10.67 -2.98 10.34 -4 10 C-2.8905928 6.51329166 -1.73662334 3.22515763 0 0 Z " fill="#000000" transform="translate(609,127)"/>
<path d="M0 0 C-0.125 1.8125 -0.125 1.8125 -1 4 C-4.20883825 5.95320589 -6.2205439 7 -10 7 C-10 6.01 -10 5.02 -10 4 C-8.71086513 3.32845067 -7.41859796 2.66291141 -6.125 2 C-5.40570312 1.62875 -4.68640625 1.2575 -3.9453125 0.875 C-2 0 -2 0 0 0 Z " fill="#000000" transform="translate(641,102)"/>
<path d="M0 0 C0.66 0.99 1.32 1.98 2 3 C-0.40545638 4.20272819 -1.94996953 4.10071472 -4.625 4.0625 C-5.85089844 4.04896484 -5.85089844 4.04896484 -7.1015625 4.03515625 C-8.04128906 4.01775391 -8.04128906 4.01775391 -9 4 C-9 3.01 -9 2.02 -9 1 C-4.545 0.505 -4.545 0.505 0 0 Z " fill="#000000" transform="translate(224,719)"/>
<path d="M0 0 C0.99 0 1.98 0 3 0 C2.67 3.3 2.34 6.6 2 10 C1.01 10 0.02 10 -1 10 C-0.67 6.7 -0.34 3.4 0 0 Z " fill="#000000" transform="translate(630,579)"/>
<path d="M0 0 C0.99 0 1.98 0 3 0 C2.85892253 1.45880109 2.71197585 2.91703551 2.5625 4.375 C2.48128906 5.18710937 2.40007812 5.99921875 2.31640625 6.8359375 C2 9 2 9 1 11 C0.01 10.67 -0.98 10.34 -2 10 C-1.34 6.7 -0.68 3.4 0 0 Z " fill="#000000" transform="translate(308,551)"/>
<path d="M0 0 C0.99 0.33 1.98 0.66 3 1 C2.34 4.3 1.68 7.6 1 11 C0.01 11 -0.98 11 -2 11 C-1.34 7.37 -0.68 3.74 0 0 Z " fill="#000000" transform="translate(638,539)"/>
<path d="M0 0 C0.99 0 1.98 0 3 0 C2.67 3.3 2.34 6.6 2 10 C1.01 10 0.02 10 -1 10 C-0.67 6.7 -0.34 3.4 0 0 Z " fill="#000000" transform="translate(641,520)"/>
<path d="M0 0 C0.99 0.33 1.98 0.66 3 1 C2.67 3.97 2.34 6.94 2 10 C1.01 10.33 0.02 10.66 -1 11 C-1.14285714 3.57142857 -1.14285714 3.57142857 0 0 Z " fill="#000000" transform="translate(317,493)"/>
<path d="M0 0 C0.99 0.33 1.98 0.66 3 1 C3.33 3.97 3.66 6.94 4 10 C3.01 10.33 2.02 10.66 1 11 C-0.20272819 8.59454362 -0.10071472 7.05003047 -0.0625 4.375 C-0.05347656 3.55773437 -0.04445313 2.74046875 -0.03515625 1.8984375 C-0.02355469 1.27195312 -0.01195313 0.64546875 0 0 Z " fill="#000000" transform="translate(93,472)"/>
<path d="M0 0 C0.99 0 1.98 0 3 0 C2.88590407 1.45922693 2.75834456 2.91740598 2.625 4.375 C2.55539062 5.18710937 2.48578125 5.99921875 2.4140625 6.8359375 C2 9 2 9 0 11 C-0.66 10.34 -1.32 9.68 -2 9 C-1.7578125 6.8359375 -1.7578125 6.8359375 -1.125 4.375 C-0.92132812 3.55773437 -0.71765625 2.74046875 -0.5078125 1.8984375 C-0.34023438 1.27195312 -0.17265625 0.64546875 0 0 Z " fill="#000000" transform="translate(652,461)"/>
<path d="M0 0 C0.99 0 1.98 0 3 0 C3.33 3.3 3.66 6.6 4 10 C3.01 10.33 2.02 10.66 1 11 C0.67 7.37 0.34 3.74 0 0 Z " fill="#000000" transform="translate(85,394)"/>
<path d="M0 0 C0.99 0 1.98 0 3 0 C3.66 3.3 4.32 6.6 5 10 C4.01 10.33 3.02 10.66 2 11 C0.80712589 7.12315913 0 4.08378077 0 0 Z " fill="#000000" transform="translate(379,381)"/>
<path d="M0 0 C0.99 0 1.98 0 3 0 C2.67 3.3 2.34 6.6 2 10 C1.01 10 0.02 10 -1 10 C-0.67 6.7 -0.34 3.4 0 0 Z " fill="#000000" transform="translate(674,343)"/>
<path d="M0 0 C0.99 0 1.98 0 3 0 C4.17571451 3.67410785 4.07366746 7.16929183 4 11 C3.01 11 2.02 11 1 11 C0.67 7.37 0.34 3.74 0 0 Z " fill="#000000" transform="translate(81,335)"/>
<path d="M0 0 C0.99 0 1.98 0 3 0 C2.67 3.3 2.34 6.6 2 10 C1.01 10.33 0.02 10.66 -1 11 C-0.67 7.37 -0.34 3.74 0 0 Z " fill="#000000" transform="translate(678,323)"/>
<path d="M0 0 C0.66 0 1.32 0 2 0 C2.14285714 7.42857143 2.14285714 7.42857143 1 11 C0.01 11 -0.98 11 -2 11 C-1.85957123 9.35369672 -1.71250671 7.70795821 -1.5625 6.0625 C-1.48128906 5.14597656 -1.40007812 4.22945313 -1.31640625 3.28515625 C-1 1 -1 1 0 0 Z " fill="#000000" transform="translate(345,320)"/>
<path d="M0 0 C0.99 0 1.98 0 3 0 C2.34 3.63 1.68 7.26 1 11 C0.01 10.67 -0.98 10.34 -2 10 C-1.34 6.7 -0.68 3.4 0 0 Z " fill="#000000" transform="translate(351,282)"/>
<path d="M0 0 C0.66 0 1.32 0 2 0 C3.20272819 2.40545638 3.10071472 3.94996953 3.0625 6.625 C3.05347656 7.44226563 3.04445313 8.25953125 3.03515625 9.1015625 C3.02355469 9.72804688 3.01195313 10.35453125 3 11 C2.01 11 1.02 11 0 11 C0 7.37 0 3.74 0 0 Z " fill="#000000" transform="translate(79,256)"/>
<path d="M0 0 C3.36591866 1.44253657 5.51047079 3.33264727 8 6 C7.67 6.99 7.34 7.98 7 9 C6.34 9 5.68 9 5 9 C3.4921875 7.25 3.4921875 7.25 1.875 5 C1.33617187 4.2575 0.79734375 3.515 0.2421875 2.75 C-0.37269531 1.88375 -0.37269531 1.88375 -1 1 C-0.67 0.67 -0.34 0.34 0 0 Z " fill="#000000" transform="translate(637,255)"/>
<path d="M0 0 C0.99 0 1.98 0 3 0 C2.71758359 1.46015291 2.42373386 2.91809793 2.125 4.375 C1.96257812 5.18710937 1.80015625 5.99921875 1.6328125 6.8359375 C1 9 1 9 -1 11 C-2.26264601 6.70700357 -1.62950412 4.12168689 0 0 Z " fill="#000000" transform="translate(296,609)"/>
<path d="M0 0 C2.39763185 2.39763185 2.34280586 3.33273498 2.625 6.625 C2.69976562 7.44226563 2.77453125 8.25953125 2.8515625 9.1015625 C2.92503906 10.04128906 2.92503906 10.04128906 3 11 C2.01 10.67 1.02 10.34 0 10 C-0.73046875 7.93359375 -0.73046875 7.93359375 -1.1875 5.4375 C-1.34605469 4.61121094 -1.50460938 3.78492188 -1.66796875 2.93359375 C-1.83232422 1.97646484 -1.83232422 1.97646484 -2 1 C-1.34 0.67 -0.68 0.34 0 0 Z " fill="#000000" transform="translate(114,588)"/>
<path d="M0 0 C0.99 0 1.98 0 3 0 C2.67 2.97 2.34 5.94 2 9 C0.68 9.33 -0.64 9.66 -2 10 C-1.34 6.7 -0.68 3.4 0 0 Z " fill="#000000" transform="translate(311,532)"/>
<path d="M0 0 C0.99 0 1.98 0 3 0 C3.33 3.3 3.66 6.6 4 10 C3.01 10 2.02 10 1 10 C0.67 6.7 0.34 3.4 0 0 Z " fill="#000000" transform="translate(101,531)"/>
<path d="M0 0 C0.99 0 1.98 0 3 0 C3.33 3.3 3.66 6.6 4 10 C3.01 10 2.02 10 1 10 C0.67 6.7 0.34 3.4 0 0 Z " fill="#000000" transform="translate(95,492)"/>
<path d="M0 0 C0.99 0 1.98 0 3 0 C2.67 3.3 2.34 6.6 2 10 C1.01 10 0.02 10 -1 10 C-0.67 6.7 -0.34 3.4 0 0 Z " fill="#000000" transform="translate(323,455)"/>
<path d="M0 0 C0.99 0 1.98 0 3 0 C4.60725635 3.21451269 4.05748185 6.43612536 4 10 C3.01 10 2.02 10 1 10 C0.67 6.7 0.34 3.4 0 0 Z " fill="#000000" transform="translate(90,453)"/>
<path d="M0 0 C0.99 0 1.98 0 3 0 C2.34 3.63 1.68 7.26 1 11 C0.01 10.34 -0.98 9.68 -2 9 C-1.34 6.03 -0.68 3.06 0 0 Z " fill="#000000" transform="translate(663,402)"/>
<path d="M0 0 C0.99 0 1.98 0 3 0 C2.67 3.3 2.34 6.6 2 10 C1.01 10 0.02 10 -1 10 C-0.67 6.7 -0.34 3.4 0 0 Z " fill="#000000" transform="translate(338,359)"/>
<path d="M0 0 C0.66 0 1.32 0 2 0 C3.28317892 3.84953676 3.06643637 6.94738135 3 11 C2.01 11 1.02 11 0 11 C0 7.37 0 3.74 0 0 Z " fill="#000000" transform="translate(81,315)"/>
<path d="M0 0 C0.99 0 1.98 0 3 0 C3 3.3 3 6.6 3 10 C2.01 10 1.02 10 0 10 C0 6.7 0 3.4 0 0 Z " fill="#000000" transform="translate(80,296)"/>
<path d="M0 0 C0.99 0 1.98 0 3 0 C3 3.3 3 6.6 3 10 C2.01 10 1.02 10 0 10 C0 6.7 0 3.4 0 0 Z " fill="#000000" transform="translate(78,237)"/>
<path d="M0 0 C0.99 0 1.98 0 3 0 C2.67 2.97 2.34 5.94 2 9 C1.01 9.33 0.02 9.66 -1 10 C-1.125 3.375 -1.125 3.375 0 0 Z " fill="#000000" transform="translate(314,513)"/>
<path d="M0 0 C0.99 0 1.98 0 3 0 C2.67 3.3 2.34 6.6 2 10 C1.01 10 0.02 10 -1 10 C-0.67 6.7 -0.34 3.4 0 0 Z " fill="#000000" transform="translate(326,436)"/>
<path d="M0 0 C0.99 0 1.98 0 3 0 C4.60725635 3.21451269 4.05748185 6.43612536 4 10 C3.01 10 2.02 10 1 10 C0.67 6.7 0.34 3.4 0 0 Z " fill="#000000" transform="translate(82,355)"/>
<path d="M0 0 C0.99 0 1.98 0 3 0 C2.67 3.3 2.34 6.6 2 10 C1.01 10 0.02 10 -1 10 C-0.67 6.7 -0.34 3.4 0 0 Z " fill="#000000" transform="translate(341,340)"/>
<path d="M0 0 C0.66 0 1.32 0 2 0 C2 3.96 2 7.92 2 12 C1.34 12 0.68 12 0 12 C0 8.04 0 4.08 0 0 Z " fill="#000000" transform="translate(693,178)"/>
<path d="M0 0 C0.99 0 1.98 0 3 0 C3.33 1.98 3.66 3.96 4 6 C2.35 6 0.7 6 -1 6 C-0.67 4.02 -0.34 2.04 0 0 Z " fill="#000000" transform="translate(353,267)"/>
<path d="M0 0 C2.31 0.33 4.62 0.66 7 1 C7 1.99 7 2.98 7 4 C4.69 3.67 2.38 3.34 0 3 C0 2.01 0 1.02 0 0 Z " fill="#000000" transform="translate(725,306)"/>
<path d="M0 0 C0.99 0.33 1.98 0.66 3 1 C2.67 1.99 2.34 2.98 2 4 C1.01 3.01 0.02 2.02 -1 1 C-0.67 0.67 -0.34 0.34 0 0 Z " fill="#000000" transform="translate(169,824)"/>
<path d="M0 0 C0.99 0.33 1.98 0.66 3 1 C2.67 1.99 2.34 2.98 2 4 C1.01 3.01 0.02 2.02 -1 1 C-0.67 0.67 -0.34 0.34 0 0 Z " fill="#000000" transform="translate(535,547)"/>
<path d="M0 0 C0.99 0.33 1.98 0.66 3 1 C2.67 1.99 2.34 2.98 2 4 C1.01 3.01 0.02 2.02 -1 1 C-0.67 0.67 -0.34 0.34 0 0 Z " fill="#000000" transform="translate(765,369)"/>
<path d="M0 0 C0.99 0.33 1.98 0.66 3 1 C2.67 1.99 2.34 2.98 2 4 C1.01 3.01 0.02 2.02 -1 1 C-0.67 0.67 -0.34 0.34 0 0 Z " fill="#000000" transform="translate(654,16)"/>
</svg>
