<svg width="697" height="710" viewBox="0 0 697 710" fill="none" xmlns="http://www.w3.org/2000/svg">
<path d="M70.2876 304.23C86.9263 305.617 103.796 294.023 110.151 288.053C110.151 249.23 117.084 218.34 120.55 207.749C146.432 165.228 193.344 159.989 213.565 162.686C243.145 155.753 322.564 191.765 358.576 210.637C351.643 218.957 351.836 308.467 352.798 352.182H245.34C193.113 357.266 208.558 393.201 222.809 410.533H352.798C353.954 429.02 354.994 477.896 349.91 525.501C344.826 573.107 332.77 605.421 327.378 615.628C323.334 626.99 306.464 650.407 271.338 653.18C236.212 655.953 221.653 633.923 218.765 622.56C216.261 615.05 212.756 595.292 218.765 576.342C224.773 557.392 256.317 546.107 271.338 542.833C287.515 522.959 272.686 500.659 263.25 491.993C251.118 485.06 219.573 476.279 190.456 496.615C154.059 522.035 145.97 569.987 144.815 591.941C143.659 613.895 155.792 658.38 186.989 680.911C218.187 703.443 252.273 710.954 314.09 705.754C363.544 701.594 404.409 664.735 418.66 646.825C435.299 632.96 458.716 575.957 468.345 549.188C473.737 527.62 484.868 480.785 486.255 465.995C487.641 451.205 488.373 420.932 488.565 407.644H571.759C578.499 406.296 592.326 399.094 593.713 381.068C595.099 363.043 585.432 354.3 580.425 352.182H488.565L485.677 243.568C511.097 247.612 575.803 230.28 599.49 207.749C623.177 185.217 633.576 167.307 638.198 125.711C641.896 92.4333 623.177 64.4711 613.356 54.6496C607.578 48.4872 590.824 34.8912 570.026 29.8072C549.227 24.7231 502.816 27.6888 482.21 29.8072C461.874 31.6559 439.073 47.9094 430.215 55.8051C421.895 59.5026 399.787 90.4691 389.773 105.49C384.689 111.961 374.56 143.235 370.13 158.064C355.109 146.509 306.58 124.555 259.784 113.001C212.987 101.446 151.748 108.379 117.661 122.244C90.3924 133.337 67.7838 149.59 59.8882 156.33C44.636 165.574 28.4982 194.846 22.3358 208.326C20.2175 216.607 16.2119 236.751 17.1362 251.079C18.0606 265.406 25.6096 279.773 29.2686 285.165C35.0459 294.986 49.4892 302.497 70.2876 304.23Z" stroke="black" stroke-width="5"/>
<path d="M236.5 383H568.5" stroke="black" stroke-width="2" stroke-dasharray="10 10"/>
<path d="M71.6193 83.4545V98H69.858V85.3011H69.7727L66.2216 87.6591V85.8693L69.858 83.4545H71.6193ZM76.1932 98.1136C75.8428 98.1136 75.5421 97.9882 75.2912 97.7372C75.0402 97.4863 74.9148 97.1856 74.9148 96.8352C74.9148 96.4848 75.0402 96.1842 75.2912 95.9332C75.5421 95.6823 75.8428 95.5568 76.1932 95.5568C76.5436 95.5568 76.8442 95.6823 77.0952 95.9332C77.3461 96.1842 77.4716 96.4848 77.4716 96.8352C77.4716 97.0672 77.4124 97.2803 77.294 97.4744C77.1804 97.6686 77.0265 97.8248 76.8324 97.9432C76.643 98.0568 76.4299 98.1136 76.1932 98.1136ZM83.8263 83.4545V98H82.065V85.3011H81.9798L78.4286 87.6591V85.8693L82.065 83.4545H83.8263Z" fill="black"/>
<path d="M308.619 260.455V275H306.858V262.301H306.773L303.222 264.659V262.869L306.858 260.455H308.619ZM313.193 275.114C312.843 275.114 312.542 274.988 312.291 274.737C312.04 274.486 311.915 274.186 311.915 273.835C311.915 273.485 312.04 273.184 312.291 272.933C312.542 272.682 312.843 272.557 313.193 272.557C313.544 272.557 313.844 272.682 314.095 272.933C314.346 273.184 314.472 273.485 314.472 273.835C314.472 274.067 314.412 274.28 314.294 274.474C314.18 274.669 314.027 274.825 313.832 274.943C313.643 275.057 313.43 275.114 313.193 275.114ZM321.819 275.199C320.881 275.199 320.046 275.038 319.312 274.716C318.583 274.394 318.003 273.946 317.572 273.374C317.146 272.796 316.914 272.126 316.876 271.364H318.665C318.703 271.832 318.864 272.237 319.148 272.578C319.433 272.914 319.804 273.175 320.263 273.359C320.723 273.544 321.232 273.636 321.79 273.636C322.415 273.636 322.969 273.527 323.452 273.31C323.935 273.092 324.314 272.789 324.589 272.401C324.863 272.012 325.001 271.562 325.001 271.051C325.001 270.516 324.868 270.045 324.603 269.638C324.338 269.226 323.95 268.904 323.438 268.672C322.927 268.44 322.302 268.324 321.563 268.324H320.398V266.761H321.563C322.141 266.761 322.647 266.657 323.083 266.449C323.523 266.241 323.867 265.947 324.113 265.568C324.364 265.189 324.489 264.744 324.489 264.233C324.489 263.741 324.38 263.312 324.163 262.947C323.945 262.583 323.637 262.299 323.239 262.095C322.846 261.892 322.382 261.79 321.847 261.79C321.345 261.79 320.872 261.882 320.427 262.067C319.987 262.247 319.627 262.509 319.347 262.855C319.068 263.196 318.916 263.608 318.893 264.091H317.188C317.217 263.329 317.446 262.661 317.877 262.088C318.308 261.51 318.871 261.061 319.567 260.739C320.268 260.417 321.038 260.256 321.876 260.256C322.775 260.256 323.547 260.438 324.191 260.803C324.835 261.162 325.33 261.638 325.675 262.23C326.021 262.822 326.194 263.461 326.194 264.148C326.194 264.967 325.978 265.665 325.548 266.243C325.121 266.821 324.541 267.221 323.808 267.443V267.557C324.726 267.708 325.443 268.099 325.96 268.729C326.476 269.354 326.734 270.128 326.734 271.051C326.734 271.842 326.518 272.552 326.087 273.182C325.661 273.807 325.079 274.299 324.34 274.659C323.602 275.019 322.761 275.199 321.819 275.199Z" fill="black"/>
<path d="M267.506 336V334.722L272.307 329.466C272.87 328.85 273.334 328.315 273.699 327.861C274.063 327.402 274.333 326.971 274.509 326.568C274.688 326.161 274.778 325.735 274.778 325.29C274.778 324.778 274.655 324.336 274.409 323.962C274.168 323.588 273.836 323.299 273.415 323.095C272.993 322.892 272.52 322.79 271.994 322.79C271.436 322.79 270.948 322.906 270.531 323.138C270.119 323.365 269.8 323.685 269.572 324.097C269.35 324.509 269.239 324.991 269.239 325.545H267.562C267.562 324.693 267.759 323.945 268.152 323.301C268.545 322.657 269.08 322.155 269.757 321.795C270.439 321.436 271.204 321.256 272.051 321.256C272.903 321.256 273.659 321.436 274.317 321.795C274.975 322.155 275.491 322.641 275.865 323.251C276.239 323.862 276.426 324.542 276.426 325.29C276.426 325.825 276.329 326.348 276.135 326.859C275.946 327.366 275.614 327.932 275.141 328.557C274.672 329.177 274.021 329.935 273.188 330.83L269.92 334.324V334.438H276.682V336H267.506ZM280.865 336.114C280.515 336.114 280.214 335.988 279.963 335.737C279.712 335.486 279.587 335.186 279.587 334.835C279.587 334.485 279.712 334.184 279.963 333.933C280.214 333.682 280.515 333.557 280.865 333.557C281.215 333.557 281.516 333.682 281.767 333.933C282.018 334.184 282.143 334.485 282.143 334.835C282.143 335.067 282.084 335.28 281.966 335.474C281.852 335.669 281.698 335.825 281.504 335.943C281.315 336.057 281.102 336.114 280.865 336.114ZM288.498 321.455V336H286.737V323.301H286.652L283.1 325.659V323.869L286.737 321.455H288.498Z" fill="black"/>
<path d="M525.506 334V332.722L530.307 327.466C530.87 326.85 531.334 326.315 531.699 325.861C532.063 325.402 532.333 324.971 532.509 324.568C532.688 324.161 532.778 323.735 532.778 323.29C532.778 322.778 532.655 322.336 532.409 321.962C532.168 321.588 531.836 321.299 531.415 321.095C530.993 320.892 530.52 320.79 529.994 320.79C529.436 320.79 528.948 320.906 528.531 321.138C528.119 321.365 527.8 321.685 527.572 322.097C527.35 322.509 527.239 322.991 527.239 323.545H525.562C525.562 322.693 525.759 321.945 526.152 321.301C526.545 320.657 527.08 320.155 527.757 319.795C528.439 319.436 529.204 319.256 530.051 319.256C530.903 319.256 531.659 319.436 532.317 319.795C532.975 320.155 533.491 320.641 533.865 321.251C534.239 321.862 534.426 322.542 534.426 323.29C534.426 323.825 534.329 324.348 534.135 324.859C533.946 325.366 533.614 325.932 533.141 326.557C532.672 327.177 532.021 327.935 531.188 328.83L527.92 332.324V332.438H534.682V334H525.506ZM538.865 334.114C538.515 334.114 538.214 333.988 537.963 333.737C537.712 333.486 537.587 333.186 537.587 332.835C537.587 332.485 537.712 332.184 537.963 331.933C538.214 331.682 538.515 331.557 538.865 331.557C539.215 331.557 539.516 331.682 539.767 331.933C540.018 332.184 540.143 332.485 540.143 332.835C540.143 333.067 540.084 333.28 539.966 333.474C539.852 333.669 539.698 333.825 539.504 333.943C539.315 334.057 539.102 334.114 538.865 334.114ZM543.123 334V332.722L547.924 327.466C548.487 326.85 548.951 326.315 549.316 325.861C549.681 325.402 549.951 324.971 550.126 324.568C550.306 324.161 550.396 323.735 550.396 323.29C550.396 322.778 550.272 322.336 550.026 321.962C549.785 321.588 549.453 321.299 549.032 321.095C548.611 320.892 548.137 320.79 547.612 320.79C547.053 320.79 546.565 320.906 546.148 321.138C545.737 321.365 545.417 321.685 545.19 322.097C544.967 322.509 544.856 322.991 544.856 323.545H543.18C543.18 322.693 543.376 321.945 543.769 321.301C544.162 320.657 544.697 320.155 545.374 319.795C546.056 319.436 546.821 319.256 547.668 319.256C548.521 319.256 549.276 319.436 549.934 319.795C550.592 320.155 551.108 320.641 551.482 321.251C551.856 321.862 552.043 322.542 552.043 323.29C552.043 323.825 551.946 324.348 551.752 324.859C551.563 325.366 551.231 325.932 550.758 326.557C550.289 327.177 549.638 327.935 548.805 328.83L545.538 332.324V332.438H552.299V334H543.123Z" fill="black"/>
<path d="M267.619 594.455V609H265.858V596.301H265.773L262.222 598.659V596.869L265.858 594.455H267.619ZM272.193 609.114C271.843 609.114 271.542 608.988 271.291 608.737C271.04 608.486 270.915 608.186 270.915 607.835C270.915 607.485 271.04 607.184 271.291 606.933C271.542 606.682 271.843 606.557 272.193 606.557C272.544 606.557 272.844 606.682 273.095 606.933C273.346 607.184 273.472 607.485 273.472 607.835C273.472 608.067 273.412 608.28 273.294 608.474C273.18 608.669 273.027 608.825 272.832 608.943C272.643 609.057 272.43 609.114 272.193 609.114ZM276.11 606.017V604.568L282.502 594.455H283.553V596.699H282.843L278.013 604.341V604.455H286.621V606.017H276.11ZM282.957 609V605.577V604.902V594.455H284.633V609H282.957Z" fill="black"/>
<path d="M676.619 82.4545V97H674.858V84.3011H674.773L671.222 86.6591V84.8693L674.858 82.4545H676.619ZM681.193 97.1136C680.843 97.1136 680.542 96.9882 680.291 96.7372C680.04 96.4863 679.915 96.1856 679.915 95.8352C679.915 95.4848 680.04 95.1842 680.291 94.9332C680.542 94.6823 680.843 94.5568 681.193 94.5568C681.544 94.5568 681.844 94.6823 682.095 94.9332C682.346 95.1842 682.472 95.4848 682.472 95.8352C682.472 96.0672 682.412 96.2803 682.294 96.4744C682.18 96.6686 682.027 96.8248 681.832 96.9432C681.643 97.0568 681.43 97.1136 681.193 97.1136ZM685.451 97V95.7216L690.252 90.4659C690.816 89.8504 691.28 89.3153 691.644 88.8608C692.009 88.4015 692.279 87.9706 692.454 87.5682C692.634 87.161 692.724 86.7348 692.724 86.2898C692.724 85.7784 692.601 85.3357 692.354 84.9616C692.113 84.5876 691.781 84.2988 691.36 84.0952C690.939 83.8916 690.465 83.7898 689.94 83.7898C689.381 83.7898 688.893 83.9058 688.477 84.1378C688.065 84.3651 687.745 84.6847 687.518 85.0966C687.295 85.5085 687.184 85.9915 687.184 86.5455H685.508C685.508 85.6932 685.704 84.9451 686.097 84.3011C686.49 83.6572 687.025 83.1553 687.702 82.7955C688.384 82.4356 689.149 82.2557 689.996 82.2557C690.849 82.2557 691.604 82.4356 692.262 82.7955C692.92 83.1553 693.436 83.6406 693.81 84.2514C694.184 84.8622 694.371 85.5417 694.371 86.2898C694.371 86.8248 694.274 87.348 694.08 87.8594C693.891 88.366 693.559 88.9318 693.086 89.5568C692.617 90.1771 691.966 90.9347 691.133 91.8295L687.866 95.3239V95.4375H694.627V97H685.451Z" fill="black"/>
<path d="M340.519 315.877C341.003 316.142 341.611 315.965 341.877 315.481L346.205 307.59C346.471 307.106 346.294 306.498 345.81 306.233C345.325 305.967 344.718 306.144 344.452 306.628L340.604 313.642L333.59 309.795C333.106 309.529 332.498 309.706 332.233 310.19C331.967 310.675 332.144 311.282 332.628 311.548L340.519 315.877ZM340.003 236.928C339.247 247.352 338.34 263.765 338.076 279.131C337.944 286.814 337.972 294.247 338.261 300.544C338.548 306.813 339.098 312.047 340.04 315.28L341.96 314.72C341.091 311.74 340.546 306.72 340.259 300.453C339.972 294.214 339.944 286.827 340.076 279.166C340.339 263.845 341.244 247.47 341.997 237.072L340.003 236.928Z" fill="black"/>
<path d="M315.707 339.707C316.098 339.317 316.098 338.683 315.707 338.293L309.343 331.929C308.953 331.538 308.319 331.538 307.929 331.929C307.538 332.319 307.538 332.953 307.929 333.343L313.586 339L307.929 344.657C307.538 345.047 307.538 345.681 307.929 346.071C308.319 346.462 308.953 346.462 309.343 346.071L315.707 339.707ZM246 340L315 340L315 338L246 338L246 340Z" fill="black"/>
<path d="M564.707 339.707C565.098 339.317 565.098 338.683 564.707 338.293L558.343 331.929C557.953 331.538 557.319 331.538 556.929 331.929C556.538 332.319 556.538 332.953 556.929 333.343L562.586 339L556.929 344.657C556.538 345.047 556.538 345.681 556.929 346.071C557.319 346.462 557.953 346.462 558.343 346.071L564.707 339.707ZM515 340L564 340L564 338L515 338L515 340Z" fill="black"/>
<path d="M66.0006 250.998C49.9992 195.999 165.5 55.4985 377.001 186.498C399.501 208.664 453.46 225.279 527.501 209.999C590.501 196.999 611.175 188.219 599.5 102C593 54 549.5 41.0188 476.32 69.7495C440.32 83.8832 417.5 114.499 417.5 153L408.5 378.5L390.535 603.331C384.535 670.33 208.501 730.497 187.001 618.498C184.167 591.165 179.001 532.497 231.001 516.997" stroke="black" stroke-width="2" stroke-dasharray="10 10"/>
<path d="M520.917 10.9622C520.344 11.5606 520.364 12.5101 520.963 13.0831L530.713 22.4202C531.311 22.9932 532.261 22.9726 532.834 22.3743C533.407 21.776 533.386 20.8264 532.788 20.2535L524.121 11.9538L532.42 3.28688C532.993 2.68855 532.973 1.73903 532.375 1.16605C531.776 0.593081 530.827 0.613634 530.254 1.21196L520.917 10.9622ZM628.274 210.292C638.832 193.323 649.131 172.171 655.737 150.03C662.34 127.903 665.286 104.685 661.02 83.6392C656.742 62.5375 645.221 43.6794 623.046 30.3927C600.926 17.1387 568.322 9.4967 521.968 10.5L522.032 13.4993C568.078 12.5027 600.049 20.1107 621.504 32.9661C642.904 45.7887 653.958 63.8994 658.08 84.2352C662.214 104.627 659.385 127.316 652.863 149.172C646.344 171.016 636.168 191.926 625.726 208.707L628.274 210.292Z" fill="black"/>
<path d="M201.461 92.6519C202.097 92.1212 202.182 91.1752 201.652 90.5392L193.002 80.1738C192.472 79.5377 191.526 79.4524 190.89 79.9831C190.254 80.5139 190.168 81.4598 190.699 82.0959L198.387 91.3095L189.174 98.9977C188.538 99.5285 188.452 100.474 188.983 101.11C189.514 101.747 190.46 101.832 191.096 101.301L201.461 92.6519ZM3.33111 195.192C23.1536 157.033 90.3668 83.0665 200.365 92.9941L200.635 90.0063C89.0332 79.9339 20.8464 154.967 0.668892 193.809L3.33111 195.192Z" fill="black"/>
<path d="M275.5 633L275.335 634.491L275.5 633ZM257.498 577.427C257.458 576.6 256.754 575.962 255.927 576.002L242.443 576.658C241.615 576.698 240.977 577.401 241.018 578.229C241.058 579.056 241.761 579.694 242.589 579.654L254.575 579.071L255.158 591.057C255.198 591.884 255.901 592.523 256.729 592.482C257.556 592.442 258.194 591.739 258.154 590.911L257.498 577.427ZM323.156 576.834C318.478 586.275 312.975 600.628 305.244 612.463C297.507 624.306 288.005 632.869 275.664 631.509L275.335 634.491C289.495 636.052 299.909 626.115 307.756 614.103C315.608 602.083 321.355 587.225 325.844 578.166L323.156 576.834ZM275.664 631.509C270.484 630.938 264.56 629.631 259.142 627.412C253.71 625.187 248.9 622.093 245.807 618.018C242.756 613.999 241.303 608.939 242.686 602.529C244.085 596.048 248.402 588.107 257.111 578.508L254.889 576.492C245.997 586.293 241.307 594.698 239.754 601.896C238.186 609.165 239.839 615.118 243.418 619.832C246.953 624.49 252.296 627.85 258.005 630.188C263.728 632.532 269.932 633.895 275.335 634.491L275.664 631.509Z" fill="black"/>
<circle cx="65.5" cy="237.5" r="30.5" fill="black"/>
</svg>
