<svg width="683" height="686" viewBox="0 0 683 686" fill="none" xmlns="http://www.w3.org/2000/svg">
<path d="M479.578 251.973C450.607 259.423 430.604 243.006 424.223 233.866C437.329 211.276 460.333 153.782 447.503 104.531C434.673 55.2806 384.215 56.7637 360.59 63.6615C299.337 72.7667 252.984 178.511 232.29 231.797C215.012 276.288 212.631 397.345 237.464 465.116C262.296 532.888 285.576 563.928 331.102 592.382C376.628 620.835 447.503 619.801 506.48 581.518C553.661 550.891 582.701 504.262 591.323 484.775C607.05 461.185 624.088 405.622 630.641 380.79C660.026 356.786 675.994 387.688 680.306 406.14C677.029 424.419 664.785 471.635 642.022 514.264C619.26 556.892 596.351 593.953 581 608.5C543.471 644.063 460.092 676.535 424.74 681.364C397.666 684.985 326.963 686.123 260.744 661.705C194.524 637.287 146.24 581.518 130.374 556.685C115.717 537.889 84.4349 480.533 76.5714 401.484C68.7078 322.434 92.264 244.73 105.025 215.759C118.476 185.581 154.69 116.844 191.938 83.3204C238.498 41.4159 266.952 26.9305 307.304 13.4797C347.657 0.0288925 401.46 -1.00578 452.159 13.4797C502.858 27.9652 522.517 61.0749 537.52 91.5979C552.523 122.121 541.659 172.82 539.072 185.753C537.003 196.1 524.414 216.276 518.379 225.071C508.86 239.557 488.545 249.041 479.578 251.973Z" stroke="black" stroke-width="5"/>
<path d="M476.999 217.999C579.499 150 458.5 -82.9998 233.5 98.0003C100.5 217.999 106.5 520 249.5 619C304.312 656.946 555 719.5 647.999 423.499" stroke="black" stroke-width="2" stroke-dasharray="10 10"/>
<path d="M6.61932 345.455V360H4.85795V347.301H4.77273L1.22159 349.659V347.869L4.85795 345.455H6.61932Z" fill="black"/>
<path d="M132.588 624.997C133.415 624.949 134.046 624.239 133.997 623.412L133.207 609.935C133.158 609.108 132.448 608.477 131.621 608.526C130.794 608.574 130.163 609.284 130.212 610.111L130.915 622.09L118.935 622.793C118.108 622.842 117.477 623.552 117.526 624.379C117.574 625.206 118.284 625.837 119.111 625.788L132.588 624.997ZM84.1595 131.827C58.0792 183.736 29.1561 270.604 27.1003 362.629C25.0439 454.677 49.874 552.039 131.503 624.621L133.497 622.379C52.7257 550.561 28.0559 454.173 30.0995 362.696C32.1436 271.196 60.9205 184.764 86.8402 133.173L84.1595 131.827Z" fill="black"/>
<circle cx="481.5" cy="198.5" r="30.5" fill="black"/>
</svg>
