<?xml version="1.0" encoding="UTF-8"?>
<svg version="1.1" xmlns="http://www.w3.org/2000/svg" width="728" height="765">
<path d="M0 0 C1.03463379 0.31614258 2.06926758 0.63228516 3.13525391 0.95800781 C43.50953143 13.33196994 77.26839174 40.82961772 103 74 C103.90065399 75.10271082 104.80450814 76.20281286 105.7109375 77.30078125 C139.82307998 118.81032705 159.24460584 167.16585177 175 218 C175.33112793 219.06347656 175.66225586 220.12695312 176.00341797 221.22265625 C182.2460037 241.87904574 184.41341786 263.64293083 187 285 C187.14985352 286.22364258 187.29970703 287.44728516 187.45410156 288.70800781 C191.28449098 321.58807053 189.44393564 355.17674393 186 388 C185.88833496 389.08474609 185.77666992 390.16949219 185.66162109 391.28710938 C185.15157162 396.1972507 184.6087792 401.10111796 184 406 C185.65 405.67 187.3 405.34 189 405 C189 409.95 189 414.9 189 420 C188.01 420 187.02 420 186 420 C186 416.37 186 412.74 186 409 C184.68 409.33 183.36 409.66 182 410 C181.96406738 410.69295166 181.92813477 411.38590332 181.89111328 412.09985352 C181.33161278 420.57677438 179.78761587 428.67285296 177.875 436.9375 C177.720383 437.61331116 177.56576599 438.28912231 177.40646362 438.9854126 C173.20192584 457.2630879 167.45369727 474.24630905 159 491 C183.51417008 473.41895763 207.87888235 455.5761507 230 435 C230.89460937 434.18273437 231.78921875 433.36546875 232.7109375 432.5234375 C249.17827529 416.88638564 256.86286676 398.98048253 260.55761719 376.77270508 C261.75324186 370.30736025 262.67240977 365.85331547 268.2409668 361.98144531 C277.57009592 356.77629624 286.90568546 357.24843152 296.91796875 359.96875 C310.19297423 364.41057693 321.1695808 373.79450659 328 386 C333.76697858 400.65124289 327.94341563 416.56904187 324 431 C323.71213623 432.08498779 323.71213623 432.08498779 323.41845703 433.19189453 C316.51494694 458.65066038 301.18049121 481.77687364 286.8125 503.5625 C285.85102051 505.02538452 285.85102051 505.02538452 284.87011719 506.51782227 C278.41049033 516.17841021 271.25512587 525.12575177 262.9375 533.25 C262.33099609 533.8486084 261.72449219 534.4472168 261.09960938 535.06396484 C256.86901798 539.21407071 252.54035152 543.19037413 248 547 C246.4055063 548.36195218 244.8141479 549.72751853 243.22290039 551.09326172 C242.02379037 552.12200728 240.82374337 553.1496616 239.62280273 554.17626953 C236.49741183 556.84904607 233.38306047 559.53310441 230.2890625 562.2421875 C170.31709526 614.7304599 170.31709526 614.7304599 138.43676758 612.61376953 C129.34604329 611.84104913 129.34604329 611.84104913 121.1484375 614.94921875 C119.15167184 617.85939849 117.61892084 620.86494694 116 624 C114.20552179 626.44215642 112.2455486 628.72071521 110.25 631 C109.73791992 631.59280762 109.22583984 632.18561523 108.69824219 632.79638672 C67.94297695 679.29918936 -1.78913638 707.43350636 -62.20849609 712.60131836 C-133.07123108 717.23373238 -208.44575852 699.87439303 -262.68261719 652.53125 C-273.04598366 643.30334803 -283.02470027 633.58904049 -292 623 C-292.92498639 621.92639799 -293.85084604 620.85354805 -294.77734375 619.78125 C-314.23005303 597.23888296 -329.59356069 574.54798247 -343 548 C-343.65983887 546.69651611 -343.65983887 546.69651611 -344.33300781 545.36669922 C-376.28836978 481.71427498 -382.01740092 416.24395744 -381 346 C-380.98743164 344.99549805 -380.97486328 343.99099609 -380.96191406 342.95605469 C-380.02382829 284.23954295 -374.79452927 189.42123088 -332.6328125 144.4765625 C-315.22255067 127.75129458 -295.09459638 125.3383441 -272 124 C-271.85304688 122.89527344 -271.70609375 121.79054687 -271.5546875 120.65234375 C-267.15660308 89.42628501 -257.97521907 52.26270342 -234 30 C-233.44699219 29.44183594 -232.89398438 28.88367188 -232.32421875 28.30859375 C-172.02299366 -29.65083619 -73.04113486 -22.81442573 0 0 Z M-205 17 C-206.05058594 17.56203125 -207.10117188 18.1240625 -208.18359375 18.703125 C-237.02240865 34.75385683 -250.22217918 59.52729738 -259.25 90.375 C-261.32976014 97.78253644 -262.96757723 105.24982955 -264.375 112.8125 C-264.54290039 113.71339355 -264.71080078 114.61428711 -264.88378906 115.54248047 C-265.79294132 120.77452408 -266.1603264 125.69072974 -266 131 C-266.65371582 130.98428955 -267.30743164 130.9685791 -267.98095703 130.95239258 C-291.25674902 130.41673754 -291.25674902 130.41673754 -313 138 C-313.85980469 138.47050781 -314.71960938 138.94101563 -315.60546875 139.42578125 C-338.43511266 152.917489 -347.60401583 175.02797651 -353.9375 199.5625 C-375.0824282 285.74788572 -387.02126539 385.3246598 -322.609375 573.84375 C-315.81396758 584.79694004 -307.98121212 594.61429959 -299.48925781 604.28857422 C-297.56535382 606.49948684 -295.68412818 608.74436883 -293.80419922 610.99267578 C-288.0665071 617.84551778 -282.16537878 624.5282336 -276 631 C-275.35144043 631.68255859 -274.70288086 632.36511719 -274.03466797 633.06835938 C-222.03082693 687.41814882 -154.24764878 704.73902803 -81.015625 707.19140625 C-23.82047024 708.40665628 39.11961905 684.22146932 83 648 C83.5352832 647.56478027 84.07056641 647.12956055 84.62207031 646.68115234 C98.97295973 634.99951155 111.9925617 622.33239382 121 606 C121.80566406 606.15855469 122.61132812 606.31710937 123.44140625 606.48046875 C150.47502309 610.42719876 172.65510267 599.38119052 193.90307617 583.69018555 C201.09681764 578.3206342 208.12697932 572.77573146 215 567 C216.00160156 566.16082031 217.00320313 565.32164062 218.03515625 564.45703125 C221.37019567 561.65369444 224.68828386 558.83083428 228 556 C228.60392578 555.4838916 229.20785156 554.9677832 229.83007812 554.43603516 C238.7317888 546.81295915 247.50047633 539.07028016 256 531 C256.58168945 530.45230957 257.16337891 529.90461914 257.76269531 529.34033203 C266.34364497 521.21601314 273.55976384 512.90011366 280 503 C280.53093262 502.18998535 281.06186523 501.3799707 281.60888672 500.54541016 C315.06059615 450.71235592 315.06059615 450.71235592 324 393 C320.38400036 382.07506492 312.71602381 374.7412868 303 369 C294.96459122 365.18951245 286.69238521 362.29455913 277.77734375 364.56640625 C274.05490499 365.89535167 270.98598389 367.35797878 268 370 C267.17396229 372.15802488 267.17396229 372.15802488 266.91015625 374.61328125 C266.76852051 375.52489014 266.62688477 376.43649902 266.48095703 377.37573242 C266.2738208 378.82943237 266.2738208 378.82943237 266.0625 380.3125 C260.44584811 414.84565092 238.43596492 437.91501457 212 459 C210.88208806 459.9092663 209.7649394 460.8194716 208.6484375 461.73046875 C186.33596852 479.86562033 162.71972954 496.3207532 138 511 C141.46383997 504.71830952 144.98551879 498.87680958 149.4375 493.25 C181.19914624 451.60335161 183.21894673 382.66774769 183.25 332.5625 C183.25067474 331.57445374 183.25134949 330.58640747 183.25204468 329.56842041 C183.23298152 311.86319861 182.21268017 294.57948261 180 277 C179.83098967 275.57694623 179.66304933 274.15376505 179.49609375 272.73046875 C174.44226509 230.04727073 160.97747495 190.30209397 144 151 C143.57364258 149.99227539 143.14728516 148.98455078 142.70800781 147.94628906 C129.86123094 117.61730036 110.33946225 90.45506548 88.0859375 66.2734375 C86.69431427 64.75672454 85.3242789 63.21992043 83.9765625 61.6640625 C61.29726173 35.612375 32.92337561 15.98675038 -0.1875 6 C-0.87087433 5.79066833 -1.55424866 5.58133667 -2.2583313 5.36566162 C-71.30432972 -15.76966889 -139.89777953 -18.52364679 -205 17 Z " fill="#000000" transform="translate(398,40)"/>
<path d="M0 0 C8.8588641 7.71479229 15.36101767 16.44970195 21.03515625 26.6953125 C21.36225586 27.28376953 21.68935547 27.87222656 22.02636719 28.47851562 C28.36595675 40.04440097 32.92364766 52.18571372 37.03515625 64.6953125 C37.23878784 65.31420349 37.44241943 65.93309448 37.65222168 66.57073975 C51.08524534 107.59712501 53.20254031 149.07262768 53.6366539 191.93545151 C53.66064898 194.2426908 53.68729423 196.54988563 53.7147522 198.85708618 C53.83284219 208.79239263 53.93084707 218.7277687 54.0170517 228.66339874 C54.04454261 231.74876461 54.07553858 234.8340954 54.10595703 237.91943359 C54.93727687 326.92994887 54.93727687 326.92994887 46.03515625 354.6953125 C31.11593601 352.94434292 16.5983544 350.3828798 2.03515625 346.6953125 C0.92479004 346.42146729 0.92479004 346.42146729 -0.20800781 346.14208984 C-27.83818977 339.21214842 -51.1848116 325.15465269 -73.35595703 307.74121094 C-75.91244851 305.73640103 -78.48107942 303.74839699 -81.0546875 301.765625 C-125.56667423 267.4073659 -151.99561514 210.02198685 -159.22947693 154.67041016 C-159.83680107 149.52435198 -160.13611935 144.45719405 -160.16796875 139.27734375 C-160.17498306 138.50605637 -160.18199738 137.73476898 -160.18922424 136.94010925 C-160.20663008 134.46261681 -160.21307749 131.98536387 -160.21484375 129.5078125 C-160.21585587 128.23417847 -160.21585587 128.23417847 -160.21688843 126.93481445 C-160.2001228 113.64139336 -159.61121344 100.7597013 -156.96484375 87.6953125 C-156.78260254 86.78442871 -156.60036133 85.87354492 -156.41259766 84.93505859 C-149.71933703 52.26277638 -139.77573495 20.59647723 -110.96484375 0.6953125 C-79.19816328 -20.08736652 -30.68187349 -25.56429736 0 0 Z M-123.44921875 19.8125 C-145.35275673 44.91313824 -153.973878 84.66555529 -154.16796875 117.40234375 C-154.1750737 118.20115967 -154.18217865 118.99997559 -154.1894989 119.82299805 C-154.52302107 143.93380775 -154.52302107 143.93380775 -150.96484375 167.6953125 C-150.72846191 168.68708496 -150.49208008 169.67885742 -150.24853516 170.70068359 C-139.18998309 215.97354039 -119.86652503 264.3732395 -81.96484375 293.6953125 C-80.96582031 294.47519531 -79.96679688 295.25507813 -78.9375 296.05859375 C-76.2209303 298.16401922 -73.49278663 300.25197203 -70.75537109 302.33007812 C-68.86605155 303.7706392 -66.98776284 305.22490818 -65.109375 306.6796875 C-35.77163818 329.25214939 4.22395227 348.2998521 42.03515625 347.6953125 C44.27563906 338.64376195 45.44765023 329.67349745 46.16015625 320.3828125 C46.23540527 319.42068848 46.3106543 318.45856445 46.38818359 317.46728516 C47.89240739 296.19519447 48.20816676 274.88752129 48.16015625 253.5703125 C48.15860535 252.33149323 48.15705444 251.09267395 48.15545654 249.8163147 C48.12668201 229.84915884 47.9623517 209.88372159 47.68727875 189.91849518 C47.66073675 187.92638237 47.6372495 185.93422961 47.61383057 183.94207764 C47.19498404 149.61354679 45.97006651 115.66199659 35.92285156 82.63769531 C35.09419614 79.89100798 34.30327178 77.13697141 33.52734375 74.375 C25.59885422 46.44576859 13.63420019 13.7246318 -12.77734375 -1.6796875 C-48.88338817 -21.73914882 -96.04766581 -8.36456859 -123.44921875 19.8125 Z " fill="#000000" transform="translate(404.96484375,173.3046875)"/>
<path d="M0 0 C2.44458008 0.17675781 2.44458008 0.17675781 5 1 C6.14331055 2.79980469 6.14331055 2.79980469 6.88671875 5.171875 C7.1796582 6.05319092 7.47259766 6.93450684 7.77441406 7.8425293 C8.07573242 8.80199463 8.37705078 9.76145996 8.6875 10.75 C16.68767915 34.27689308 28.45968058 55.59501271 44 75 C44.74636719 75.95003906 45.49273437 76.90007812 46.26171875 77.87890625 C58.52685245 92.95520089 72.53452403 107.23373959 88.25146484 118.70458984 C90.16090204 120.119205 92.02840343 121.57954308 93.89453125 123.05078125 C125.57255101 147.92937793 157.54400958 167.27187294 198 172 C198.33 173.98 198.66 175.96 199 178 C190.59378534 183.45757915 182.56047562 186.76779915 172.875 189.25 C171.59963379 189.58644531 170.32426758 189.92289063 169.01025391 190.26953125 C132.22725487 199.7763497 102.89376015 196.13524473 70 177 C37.23382443 157.15621502 26.23389186 126.06107515 14.48681641 91.18530273 C12.59199936 85.56093504 10.62207815 80.01750775 8.39453125 74.515625 C3.93408527 63.00605809 2.47995648 51.16108107 1.375 38.9375 C1.25382813 37.67873047 1.13265625 36.41996094 1.0078125 35.12304688 C-1.53460068 8.35862115 -1.53460068 8.35862115 -1 1 C-0.67 0.67 -0.34 0.34 0 0 Z M7 27 C6.53340474 47.27370056 11.27400113 65.54891013 18.49194336 84.30273438 C20.53948561 89.65026741 22.39110732 95.05347577 24.22387695 100.47802734 C28.22491465 112.28511928 32.45856762 123.82236225 38 135 C38.46889648 135.94987793 38.46889648 135.94987793 38.94726562 136.91894531 C46.79069366 152.46777004 57.29018283 162.22700519 72 171 C72.70044434 171.42555176 73.40088867 171.85110352 74.12255859 172.28955078 C99.89318294 187.82149738 125.97587328 194.23015371 155.69921875 187.34765625 C163.94107794 185.30258868 172.11841915 183.00491967 180.2578125 180.5859375 C181.1255127 180.3286084 181.99321289 180.0712793 182.88720703 179.80615234 C185.17392847 179.09845394 185.17392847 179.09845394 187 177 C185.8140625 176.78085937 184.628125 176.56171875 183.40625 176.3359375 C156.49028111 171.16108206 133.24997492 158.78709987 111 143 C110.24348145 142.46729492 109.48696289 141.93458984 108.70751953 141.38574219 C98.56768579 134.22896291 88.61490551 126.8499853 79 119 C78.43361816 118.53803223 77.86723633 118.07606445 77.28369141 117.60009766 C63.94427495 106.63614223 51.56860944 94.68398312 41 81 C40.2265625 80.04351563 39.453125 79.08703125 38.65625 78.1015625 C26.12077557 62.35288102 16.64483853 45.12685601 8 27 C7.67 27 7.34 27 7 27 Z " fill="#000000" transform="translate(175,460)"/>
<path d="M0 0 C1.84487475 0.98918145 3.66501928 2.02420378 5.48046875 3.06640625 C8.75820379 2.31490602 8.75820379 2.31490602 10.48046875 -0.93359375 C11.47046875 -0.60359375 12.46046875 -0.27359375 13.48046875 0.06640625 C12.98546875 0.82953125 12.49046875 1.59265625 11.98046875 2.37890625 C10.23678567 4.99004376 10.23678567 4.99004376 10.48046875 8.06640625 C11.14046875 8.39640625 11.80046875 8.72640625 12.48046875 9.06640625 C12.81046875 7.74640625 13.14046875 6.42640625 13.48046875 5.06640625 C14.47046875 5.39640625 15.46046875 5.72640625 16.48046875 6.06640625 C16.14789063 6.70964844 15.8153125 7.35289062 15.47265625 8.015625 C13.94254384 12.72041947 14.46351654 17.31301251 14.734375 22.20898438 C14.9301964 29.03393605 13.03344561 33.79273258 8.84765625 39.16015625 C4.70269097 43.06640625 4.70269097 43.06640625 2.48046875 43.06640625 C1.82046875 46.69640625 1.16046875 50.32640625 0.48046875 54.06640625 C-1.00453125 54.56140625 -1.00453125 54.56140625 -2.51953125 55.06640625 C-2.18953125 52.09640625 -1.85953125 49.12640625 -1.51953125 46.06640625 C-2.43734375 46.1128125 -3.35515625 46.15921875 -4.30078125 46.20703125 C-17.8671168 46.60604112 -17.8671168 46.60604112 -23.51953125 42.06640625 C-28.47143961 37.35077185 -32.08711067 32.99338854 -32.85546875 26.015625 C-32.95383336 17.80218041 -32.41402666 12.16416343 -26.6484375 6.09765625 C-19.19876636 -0.77463017 -9.96625052 -3.69292074 0 0 Z " fill="#000000" transform="translate(185.51953125,148.93359375)"/>
<path d="M0 0 C0.99 0 1.98 0 3 0 C2.96519531 0.70898438 2.93039062 1.41796875 2.89453125 2.1484375 C1.05967235 74.31955431 39.12500327 157.20484286 83 213 C83.78117187 213.99515625 84.56234375 214.9903125 85.3671875 216.015625 C90.94250246 222.95996748 96.90604245 229.5128839 103 236 C103.58136719 236.63550781 104.16273437 237.27101563 104.76171875 237.92578125 C113.77678251 247.44042033 125.04293497 254.94814533 136 262 C137.08796875 262.72960937 138.1759375 263.45921875 139.296875 264.2109375 C147.85185408 269.91588501 156.69445137 274.63874139 166 279 C167.18335938 279.56203125 168.36671875 280.1240625 169.5859375 280.703125 C204.12540479 296.68107416 241.62170518 305.71996526 279 312 C280.1442041 312.19352051 281.2884082 312.38704102 282.46728516 312.58642578 C296.75011954 314.88458585 311.00155896 315.29225195 325.4375 315.375 C326.27027466 315.38312714 327.10304932 315.39125427 327.96105957 315.39962769 C344.40409932 315.52012003 360.58421939 314.06169417 376 308 C375.01 307.34 374.02 306.68 373 306 C373 305.01 373 304.02 373 303 C377.05606165 303.46800711 380.46588679 303.87953208 384 306 C383.125 313.625 383.125 313.625 382 317 C381.01 317 380.02 317 379 317 C379 315.02 379 313.04 379 311 C378.13761719 311.32613281 377.27523438 311.65226562 376.38671875 311.98828125 C360.04525414 317.83807692 343.66014335 319.57544536 326.375 319.4375 C325.54094635 319.43412628 324.7068927 319.43075256 323.8475647 319.42727661 C258.5226045 319.0495328 181.95986687 300.98718642 129 262 C127.85564042 261.20950805 126.70840061 260.42317247 125.55859375 259.640625 C116.99505758 253.77131449 109.44054582 247.22494292 102 240 C101.45456543 239.48034668 100.90913086 238.96069336 100.34716797 238.42529297 C92.61356748 231.05487888 85.72618123 223.34219304 79.33398438 214.78271484 C78.01280209 213.01710851 76.67193269 211.26795257 75.328125 209.51953125 C32.14602953 152.70263239 -2.28064805 72.06847849 0 0 Z " fill="#000000" transform="translate(1,446)"/>
<path d="M0 0 C1.32 0 2.64 0 4 0 C3.43945339 3.36327963 2.58158962 5.99112219 1 9 C2.29550781 8.855625 3.59101563 8.71125 4.92578125 8.5625 C65.30108097 2.12643808 121.64866952 20.08656289 169 58 C176.74840821 64.28197917 184.1319381 70.96154865 191.4375 77.75 C192.08783203 78.35175049 192.73816406 78.95350098 193.40820312 79.57348633 C197.32875703 83.25781981 200.94001361 87.10515034 204.44360352 91.1875 C206.32784227 93.38178839 208.28771869 95.50048283 210.25 97.625 C239.10709988 129.69927655 269.13625354 173.21389793 281 215 C280.63671875 217.38671875 280.63671875 217.38671875 280 219 C277 218 277 218 276.0078125 216.32373047 C275.57082031 215.2314917 275.57082031 215.2314917 275.125 214.1171875 C274.61634399 212.8794458 274.61634399 212.8794458 274.09741211 211.61669922 C273.73526611 210.71193848 273.37312012 209.80717773 273 208.875 C272.19234122 206.93602202 271.38101292 204.99856929 270.56640625 203.0625 C270.14375488 202.05703125 269.72110352 201.0515625 269.28564453 200.015625 C248.5528597 151.38452773 215.73001096 103.21831642 175 69 C174.46407227 68.54496094 173.92814453 68.08992188 173.37597656 67.62109375 C123.08779854 25.08420331 66.17174717 8.74140275 1 13 C3.71604715 15.87420123 3.71604715 15.87420123 7 18 C7 19.32 7 20.64 7 22 C2.77510398 21.46719784 0.45919284 20.12321801 -2.8125 17.4375 C-3.99779297 16.47650391 -3.99779297 16.47650391 -5.20703125 15.49609375 C-5.79871094 15.00238281 -6.39039063 14.50867187 -7 14 C-6.42923471 10.12842341 -5.32887202 7.45648058 -3.1875 4.1875 C-2.68605469 3.39730469 -2.18460937 2.60710937 -1.66796875 1.79296875 C-0.84232422 0.90544922 -0.84232422 0.90544922 0 0 Z " fill="#000000" transform="translate(316,1)"/>
<path d="M0 0 C2 1 2 1 2.91040039 3.5625 C3.21969482 4.696875 3.52898926 5.83125 3.84765625 7 C4.20077881 8.26730957 4.55390137 9.53461914 4.91772461 10.84033203 C5.10382294 11.51823792 5.28992126 12.1961438 5.48165894 12.89459229 C14.18552191 44.44398052 24.74276089 74.62014482 46 100 C46.58652344 100.71027344 47.17304688 101.42054688 47.77734375 102.15234375 C51.82153756 106.93017816 56.21497317 110.97896905 61 115 C61.90105469 115.78890625 62.80210937 116.5778125 63.73046875 117.390625 C73.05604555 125.51427229 82.98426979 132.75715428 93 140 C94.62251734 141.17821811 96.24491464 142.35660154 97.8671875 143.53515625 C105.52978718 149.09284524 113.21199888 154.61884345 121 160 C121 158.02 121 156.04 121 154 C121.99 154.33 122.98 154.66 124 155 C124.495 160.445 124.495 160.445 125 166 C120.76358987 166.84728203 117.27587998 167.08384078 113 167 C113.33 166.01 113.66 165.02 114 164 C116.0625 163.3125 116.0625 163.3125 118 163 C109.66837963 156.7002053 101.29873744 150.46537958 92.8125 144.375 C46.50225259 111.0834996 20.49309445 77.71160714 3.9375 22.875 C3.55529297 21.61276611 3.17308594 20.35053223 2.77929688 19.05004883 C1.01303152 13.04272108 -0.62459109 7.26703032 -1 1 C-0.67 0.67 -0.34 0.34 0 0 Z " fill="#000000" transform="translate(266,316)"/>
<path d="M0 0 C3 6.5 3 6.5 3 11 C0 10 0 10 -1.1875 7.9375 C-1.455625 7.298125 -1.72375 6.65875 -2 6 C-2.53367187 7.00417969 -3.06734375 8.00835937 -3.6171875 9.04296875 C-11.35522801 23.35077808 -20.77805594 35.28364652 -32 47 C-32.47695313 47.50418457 -32.95390625 48.00836914 -33.4453125 48.52783203 C-41.91621791 57.44889585 -51.11801559 66.07641544 -62 72 C-62.66 72 -63.32 72 -64 72 C-64.33 71.01 -64.66 70.02 -65 69 C-64.37996094 68.64550781 -63.75992188 68.29101562 -63.12109375 67.92578125 C-38.62184646 53.19770391 -17.78423409 29.46453132 -5 4 C-6.98 4.66 -8.96 5.32 -11 6 C-10.875 4.125 -10.875 4.125 -10 2 C-6.40349908 0.40155515 -3.96602757 0 0 0 Z " fill="#000000" transform="translate(638,436)"/>
<path d="M0 0 C1.89688882 1.89688882 1 5.46151915 1 8 C1.3403125 9.11375 1.3403125 9.11375 1.6875 10.25 C2 12 2 12 0.9375 13.75 C-1.8082992 15.52148335 -3.80090176 15.3403296 -7 15 C-7.66 14.34 -8.32 13.68 -9 13 C-9 12.01 -9 11.02 -9 10 C-7.576875 10.495 -7.576875 10.495 -6.125 11 C-3.22937548 12.10159191 -3.22937548 12.10159191 -1 12 C-1 11.01 -1 10.02 -1 9 C-2.65 8.67 -4.3 8.34 -6 8 C-6 7.34 -6 6.68 -6 6 C-4.68 5.34 -3.36 4.68 -2 4 C-3.32 3.34 -4.64 2.68 -6 2 C-6 2.66 -6 3.32 -6 4 C-6.99 4 -7.98 4 -9 4 C-6.7570644 -0.96650025 -5.24855251 -1.3457827 0 0 Z " fill="#000000" transform="translate(338,370)"/>
<path d="M0 0 C3.0625 0.1875 3.0625 0.1875 5.0625 2.1875 C4.90004442 5.92397845 4.47466356 7.71288742 2 10.5625 C1.360625 11.09875 0.72125 11.635 0.0625 12.1875 C1.7125 12.5175 3.3625 12.8475 5.0625 13.1875 C5.0625 13.8475 5.0625 14.5075 5.0625 15.1875 C1.7625 15.1875 -1.5375 15.1875 -4.9375 15.1875 C-2.9375 11.1875 -2.9375 11.1875 -0.8125 8.625 C1.36735538 6.30372611 1.36735538 6.30372611 1.0625 3.1875 C0.4025 3.1875 -0.2575 3.1875 -0.9375 3.1875 C-1.2675 3.8475 -1.5975 4.5075 -1.9375 5.1875 C-2.9275 5.1875 -3.9175 5.1875 -4.9375 5.1875 C-3.82120474 0.24390669 -3.82120474 0.24390669 0 0 Z " fill="#000000" transform="translate(532.9375,37.8125)"/>
<path d="M0 0 C0.99 0 1.98 0 3 0 C3 3.3 3 6.6 3 10 C3.66 10 4.32 10 5 10 C5 10.66 5 11.32 5 12 C4.34 12 3.68 12 3 12 C3 12.99 3 13.98 3 15 C2.34 15 1.68 15 1 15 C1 14.01 1 13.02 1 12 C-1.31 12 -3.62 12 -6 12 C-5.56629155 7.2292071 -3.35665609 3.36635741 0 0 Z M0 4 C-0.99 5.98 -1.98 7.96 -3 10 C-1.68 10 -0.36 10 1 10 C1 8.02 1 6.04 1 4 C0.67 4 0.34 4 0 4 Z " fill="#000000" transform="translate(601,445)"/>
<path d="M0 0 C2 1 2 1 2.77734375 3.26171875 C3.0502233 6.61765842 2.30210295 7.96973421 0.5625 10.8125 C0.08941406 11.60269531 -0.38367188 12.39289063 -0.87109375 13.20703125 C-1.24363281 13.79871094 -1.61617187 14.39039063 -2 15 C-2.99 14.67 -3.98 14.34 -5 14 C-5.875 10.9375 -5.875 10.9375 -6 7 C-4.32219519 4.32583725 -2.27898575 2.17329365 0 0 Z " fill="#000000" transform="translate(209,132)"/>
<path d="M0 0 C0 4.95 0 9.9 0 15 C-0.99 15 -1.98 15 -3 15 C-3.33 11.37 -3.66 7.74 -4 4 C-4.99 4 -5.98 4 -7 4 C-6.67 3.01 -6.34 2.02 -6 1 C-4 0 -4 0 0 0 Z " fill="#000000" transform="translate(322,370)"/>
<path d="M0 0 C0 4.95 0 9.9 0 15 C-0.99 15 -1.98 15 -3 15 C-3 11.37 -3 7.74 -3 4 C-3.99 4.33 -4.98 4.66 -6 5 C-5.625 3.0625 -5.625 3.0625 -5 1 C-3 0 -3 0 0 0 Z " fill="#000000" transform="translate(100,722)"/>
<path d="M0 0 C0 4.95 0 9.9 0 15 C-0.99 15 -1.98 15 -3 15 C-3 11.37 -3 7.74 -3 4 C-3.99 4.33 -4.98 4.66 -6 5 C-5.625 3.0625 -5.625 3.0625 -5 1 C-3 0 -3 0 0 0 Z " fill="#000000" transform="translate(520,38)"/>
<path d="M0 0 C0.99 0.33 1.98 0.66 3 1 C1.5140084 5.59306496 -0.85014682 8.43569245 -4 12 C-4.99 11.34 -5.98 10.68 -7 10 C-5.6062718 5.56541027 -3.39417765 3.12621626 0 0 Z " fill="#000000" transform="translate(222,118)"/>
<path d="M0 0 C0.66 0.99 1.32 1.98 2 3 C-0.66666667 5.66666667 -3.33333333 8.33333333 -6 11 C-6.99 10.67 -7.98 10.34 -9 10 C-7.63842622 4.70499087 -4.39656045 2.76254467 0 0 Z " fill="#000000" transform="translate(238,104)"/>
<path d="M0 0 C0.66 0.33 1.32 0.66 2 1 C1.875 2.75 1.875 2.75 1 5 C-4.11111111 9 -4.11111111 9 -8 9 C-7.9375 6.75 -7.9375 6.75 -7 4 C-4.75412136 2.18298261 -2.67371119 1.21958756 0 0 Z " fill="#000000" transform="translate(254,93)"/>
<path d="M0 0 C0 4.95 0 9.9 0 15 C-0.66 15 -1.32 15 -2 15 C-2.33 11.37 -2.66 7.74 -3 4 C-3.99 4.33 -4.98 4.66 -6 5 C-6 4.01 -6 3.02 -6 2 C-3 0 -3 0 0 0 Z " fill="#000000" transform="translate(112,722)"/>
<path d="M0 0 C4.24822374 0.47202486 6.19989709 2.96655518 9 6 C8.67 6.99 8.34 7.98 8 9 C4.20620942 7.50958227 2.31656242 5.30937488 0 2 C0 1.34 0 0.68 0 0 Z " fill="#000000" transform="translate(240,483)"/>
<path d="M0 0 C0.66 0.33 1.32 0.66 2 1 C0.51218185 4.78717347 -1.61988409 6.77407001 -5 9 C-5.99 8.67 -6.98 8.34 -8 8 C-3.375 2.25 -3.375 2.25 0 0 Z " fill="#000000" transform="translate(430,664)"/>
<path d="M0 0 C0.66 0.33 1.32 0.66 2 1 C1.66354211 4.14027363 0.94763914 5.05098295 -1.375 7.3125 C-2.674375 8.1478125 -2.674375 8.1478125 -4 9 C-4.99 8.67 -5.98 8.34 -7 8 C-6.02133662 6.85373678 -5.04205413 5.70800212 -4.0625 4.5625 C-3.51722656 3.92441406 -2.97195313 3.28632812 -2.41015625 2.62890625 C-1.63204305 1.73008851 -0.84063472 0.84063472 0 0 Z " fill="#000000" transform="translate(624,546)"/>
<path d="M0 0 C3.43595166 1.52708963 6.11912454 3.59927045 9 6 C8.67 6.99 8.34 7.98 8 9 C3.7257442 7.4169423 1.73468206 4.49431596 -1 1 C-0.67 0.67 -0.34 0.34 0 0 Z " fill="#000000" transform="translate(268,511)"/>
<path d="M0 0 C0.99 0.66 1.98 1.32 3 2 C1.35 4.97 -0.3 7.94 -2 11 C-2.99 10.67 -3.98 10.34 -5 10 C-3.35 6.7 -1.7 3.4 0 0 Z " fill="#000000" transform="translate(154,215)"/>
<path d="M0 0 C1.8125 0.125 1.8125 0.125 4 1 C5.95320589 4.20883825 7 6.2205439 7 10 C6.01 10 5.02 10 4 10 C3.32845067 8.71086513 2.66291141 7.41859796 2 6.125 C1.62875 5.40570312 1.2575 4.68640625 0.875 3.9453125 C0 2 0 2 0 0 Z " fill="#000000" transform="translate(119,595)"/>
<path d="M0 0 C0.99 0 1.98 0 3 0 C3.33 3.63 3.66 7.26 4 11 C3.01 11 2.02 11 1 11 C0.67 7.37 0.34 3.74 0 0 Z " fill="#000000" transform="translate(180,335)"/>
<path d="M0 0 C0.99 0.33 1.98 0.66 3 1 C2.34 3.97 1.68 6.94 1 10 C-0.32 10.33 -1.64 10.66 -3 11 C-2.01 7.37 -1.02 3.74 0 0 Z " fill="#000000" transform="translate(106,325)"/>
<path d="M0 0 C1.859375 0.24609375 1.859375 0.24609375 4 1 C5.265625 2.84765625 5.265625 2.84765625 6.25 5.0625 C6.75273437 6.16271484 6.75273437 6.16271484 7.265625 7.28515625 C7.50796875 7.85105469 7.7503125 8.41695312 8 9 C6.68 9 5.36 9 4 9 C0 2.25 0 2.25 0 0 Z " fill="#000000" transform="translate(465,177)"/>
<path d="M0 0 C0.99 0 1.98 0 3 0 C4.65 2.97 6.3 5.94 8 9 C6.68 9 5.36 9 4 9 C0 4 0 4 0 0 Z " fill="#000000" transform="translate(455,160)"/>
<path d="M0 0 C3.3 0.99 6.6 1.98 10 3 C9.67 3.99 9.34 4.98 9 6 C5.7 5.01 2.4 4.02 -1 3 C-0.67 2.01 -0.34 1.02 0 0 Z " fill="#000000" transform="translate(362,91)"/>
<path d="M0 0 C-0.33 1.32 -0.66 2.64 -1 4 C-3.97 4.66 -6.94 5.32 -10 6 C-10.33 5.01 -10.66 4.02 -11 3 C-9.54293274 2.49632243 -8.08429904 1.99717444 -6.625 1.5 C-5.81289063 1.2215625 -5.00078125 0.943125 -4.1640625 0.65625 C-2 0 -2 0 0 0 Z " fill="#000000" transform="translate(381,693)"/>
<path d="M0 0 C3.48670834 1.1094072 6.77484237 2.26337666 10 4 C9.67 4.99 9.34 5.98 9 7 C5.59687262 5.94124926 2.98646769 4.99097846 0 3 C0 2.01 0 1.02 0 0 Z " fill="#000000" transform="translate(201,677)"/>
<path d="M0 0 C3.53372712 1.96318174 6.24479785 4.04070881 9 7 C7.375 7.8125 7.375 7.8125 5 8 C2.75390165 6.53181864 0.97621323 4.84147142 -1 3 C-0.67 2.01 -0.34 1.02 0 0 Z " fill="#000000" transform="translate(169,655)"/>
<path d="M0 0 C0.99 0 1.98 0 3 0 C4.65 2.97 6.3 5.94 8 9 C7.01 9.33 6.02 9.66 5 10 C4.15801693 8.90241493 3.32669329 7.79664683 2.5 6.6875 C2.0359375 6.07261719 1.571875 5.45773437 1.09375 4.82421875 C0 3 0 3 0 0 Z " fill="#000000" transform="translate(129,612)"/>
<path d="M0 0 C0 0.99 0 1.98 0 3 C-3.63 3.33 -7.26 3.66 -11 4 C-11 3.01 -11 2.02 -11 1 C-7.27569643 0.30710631 -3.78916254 -0.11144596 0 0 Z " fill="#000000" transform="translate(506,610)"/>
<path d="M0 0 C7.42857143 1 7.42857143 1 11 2 C10.67 2.99 10.34 3.98 10 5 C6.7 4.34 3.4 3.68 0 3 C0 2.01 0 1.02 0 0 Z " fill="#000000" transform="translate(417,604)"/>
<path d="M0 0 C0.66 0.99 1.32 1.98 2 3 C0.73581754 3.69965443 -0.53665402 4.38434763 -1.8125 5.0625 C-2.52019531 5.44535156 -3.22789062 5.82820312 -3.95703125 6.22265625 C-6 7 -6 7 -9 6 C-9 5.34 -9 4.68 -9 4 C-6.03 2.68 -3.06 1.36 0 0 Z " fill="#000000" transform="translate(561,592)"/>
<path d="M0 0 C0 0.66 0 1.32 0 2 C-6.625 6 -6.625 6 -10 6 C-10 5.01 -10 4.02 -10 3 C-3.375 -1.125 -3.375 -1.125 0 0 Z " fill="#000000" transform="translate(580,584)"/>
<path d="M0 0 C3.43198603 1.23932829 6.30325632 2.50301511 9 5 C9 5.99 9 6.98 9 8 C4.56541027 6.6062718 2.12621626 4.39417765 -1 1 C-0.67 0.67 -0.34 0.34 0 0 Z " fill="#000000" transform="translate(329,561)"/>
<path d="M0 0 C0.99 0.33 1.98 0.66 3 1 C3 1.66 3 2.32 3 3 C0.25 5.6875 0.25 5.6875 -3 8 C-5.375 7.8125 -5.375 7.8125 -7 7 C-4.66666667 4.66666667 -2.33333333 2.33333333 0 0 Z " fill="#000000" transform="translate(609,560)"/>
<path d="M0 0 C7.71428571 4 7.71428571 4 9 8 C5.60406522 8 4.93380119 7.47834052 2.3125 5.5 C1.68988281 5.0359375 1.06726563 4.571875 0.42578125 4.09375 C-0.04472656 3.7328125 -0.51523437 3.371875 -1 3 C-0.67 2.01 -0.34 1.02 0 0 Z " fill="#000000" transform="translate(313,549)"/>
<path d="M0 0 C6.57142857 4 6.57142857 4 8 8 C3.61031544 8 2.23094261 5.87194899 -1 3 C-0.67 2.01 -0.34 1.02 0 0 Z " fill="#000000" transform="translate(283,524)"/>
<path d="M0 0 C0.99 0 1.98 0 3 0 C2.85892253 1.45880109 2.71197585 2.91703551 2.5625 4.375 C2.48128906 5.18710937 2.40007812 5.99921875 2.31640625 6.8359375 C2 9 2 9 1 11 C0.01 11 -0.98 11 -2 11 C-1.34 7.37 -0.68 3.74 0 0 Z " fill="#000000" transform="translate(490,524)"/>
<path d="M0 0 C0.66 0.33 1.32 0.66 2 1 C0.76067171 4.43198603 -0.50301511 7.30325632 -3 10 C-3.99 10 -4.98 10 -6 10 C-5.49477778 5.62140745 -2.82172778 3.18348776 0 0 Z " fill="#000000" transform="translate(650,516)"/>
<path d="M0 0 C0.99 0 1.98 0 3 0 C3.33 3.63 3.66 7.26 4 11 C3.01 11 2.02 11 1 11 C-0.17571451 7.32589215 -0.07366746 3.83070817 0 0 Z " fill="#000000" transform="translate(94,501)"/>
<path d="M0 0 C0.99 0 1.98 0 3 0 C3 3.63 3 7.26 3 11 C2.01 11 1.02 11 0 11 C0 7.37 0 3.74 0 0 Z " fill="#000000" transform="translate(92,462)"/>
<path d="M0 0 C2.33333333 2.33333333 4.66666667 4.66666667 7 7 C7 7.99 7 8.98 7 10 C6.01 10 5.02 10 4 10 C2.578125 8.57421875 2.578125 8.57421875 1.25 6.6875 C0.80140625 6.07261719 0.3528125 5.45773437 -0.109375 4.82421875 C-1 3 -1 3 0 0 Z " fill="#000000" transform="translate(215,452)"/>
<path d="M0 0 C0.99 0 1.98 0 3 0 C3 3.63 3 7.26 3 11 C2.01 11 1.02 11 0 11 C0 7.37 0 3.74 0 0 Z " fill="#000000" transform="translate(92,442)"/>
<path d="M0 0 C2.72957339 2.35735884 3.88893396 4.58133526 5 8 C5 8.99 5 9.98 5 11 C4.01 11 3.02 11 2 11 C-1.07692308 4.6 -1.07692308 4.6 -0.6875 1.5625 C-0.460625 1.046875 -0.23375 0.53125 0 0 Z " fill="#000000" transform="translate(206,434)"/>
<path d="M0 0 C0.99 0 1.98 0 3 0 C3 3.63 3 7.26 3 11 C2.01 11 1.02 11 0 11 C0 7.37 0 3.74 0 0 Z " fill="#000000" transform="translate(505,387)"/>
<path d="M0 0 C0.99 0 1.98 0 3 0 C4.19287411 3.87684087 5 6.91621923 5 11 C4.01 11 3.02 11 2 11 C1.34 7.37 0.68 3.74 0 0 Z " fill="#000000" transform="translate(187,376)"/>
<path d="M0 0 C0.99 0 1.98 0 3 0 C3 3.63 3 7.26 3 11 C2.01 11 1.02 11 0 11 C0 7.37 0 3.74 0 0 Z " fill="#000000" transform="translate(506,348)"/>
<path d="M0 0 C0.66 0.33 1.32 0.66 2 1 C1.34 3.97 0.68 6.94 0 10 C-1.32 10.33 -2.64 10.66 -4 11 C-3.5247412 9.35303396 -3.04468109 7.70745272 -2.5625 6.0625 C-2.29566406 5.14597656 -2.02882813 4.22945313 -1.75390625 3.28515625 C-1 1 -1 1 0 0 Z " fill="#000000" transform="translate(113,306)"/>
<path d="M0 0 C0.99 0 1.98 0 3 0 C3 3.63 3 7.26 3 11 C2.01 11 1.02 11 0 11 C0 7.37 0 3.74 0 0 Z " fill="#000000" transform="translate(176,274)"/>
<path d="M0 0 C0.66 0.33 1.32 0.66 2 1 C1.39009109 4.55780196 0.4216319 7.6828589 -1 11 C-1.99 11 -2.98 11 -4 11 C-3.48964169 6.6109185 -2.47785723 3.66291938 0 0 Z " fill="#000000" transform="translate(128,269)"/>
<path d="M0 0 C0.99 0 1.98 0 3 0 C3 3.63 3 7.26 3 11 C2.01 11 1.02 11 0 11 C0 7.37 0 3.74 0 0 Z " fill="#000000" transform="translate(176,254)"/>
<path d="M0 0 C0.99 0 1.98 0 3 0 C3.66 3.3 4.32 6.6 5 10 C4.01 10.33 3.02 10.66 2 11 C1.34 7.37 0.68 3.74 0 0 Z " fill="#000000" transform="translate(494,250)"/>
<path d="M0 0 C0.99 0 1.98 0 3 0 C3.66 3.3 4.32 6.6 5 10 C4.01 10.33 3.02 10.66 2 11 C0.80712589 7.12315913 0 4.08378077 0 0 Z " fill="#000000" transform="translate(489,231)"/>
<path d="M0 0 C0.66 0 1.32 0 2 0 C5 6.5 5 6.5 5 11 C4.01 10.67 3.02 10.34 2 10 C1.05078125 7.93359375 1.05078125 7.93359375 0.3125 5.4375 C0.06113281 4.61121094 -0.19023437 3.78492188 -0.44921875 2.93359375 C-0.63097656 2.29550781 -0.81273437 1.65742188 -1 1 C-0.67 0.67 -0.34 0.34 0 0 Z " fill="#000000" transform="translate(483,212)"/>
<path d="M0 0 C3 1 3 1 4.75 3.8125 C5.98589446 6.96403086 6.28222189 7.96929372 5 11 C2.65808437 8.8709858 1.16445046 6.95591271 0 4 C0 2.68 0 1.36 0 0 Z " fill="#000000" transform="translate(475,194)"/>
<path d="M0 0 C2.96404505 2.80804268 5.44499019 5.18315774 7 9 C6.01 9.33 5.02 9.66 4 10 C0.38860104 6.12435233 0.38860104 6.12435233 -1 4 C-0.8125 1.625 -0.8125 1.625 0 0 Z " fill="#000000" transform="translate(444,144)"/>
<path d="M0 0 C-1 2 -1 2 -3.8125 3.125 C-7 4 -7 4 -11 4 C-11 3.01 -11 2.02 -11 1 C-6.87831311 -0.62950412 -4.29299643 -1.26264601 0 0 Z " fill="#000000" transform="translate(275,88)"/>
<path d="M0 0 C3.63 0.66 7.26 1.32 11 2 C11 2.99 11 3.98 11 5 C9.54119891 4.85892253 8.08296449 4.71197585 6.625 4.5625 C5.40683594 4.44068359 5.40683594 4.44068359 4.1640625 4.31640625 C2 4 2 4 0 3 C0 2.01 0 1.02 0 0 Z " fill="#000000" transform="translate(342,86)"/>
<path d="M0 0 C1.8871875 0.0309375 1.8871875 0.0309375 3.8125 0.0625 C3.8125 1.0525 3.8125 2.0425 3.8125 3.0625 C0.1825 3.3925 -3.4475 3.7225 -7.1875 4.0625 C-7.1875 3.0725 -7.1875 2.0825 -7.1875 1.0625 C-4.43671116 0.14557039 -2.82801087 -0.04636083 0 0 Z " fill="#000000" transform="translate(290.1875,83.9375)"/>
<path d="M0 0 C3.63 0 7.26 0 11 0 C11 0.99 11 1.98 11 3 C7.37 3 3.74 3 0 3 C0 2.01 0 1.02 0 0 Z " fill="#000000" transform="translate(303,83)"/>
<path d="M0 0 C3.63 0 7.26 0 11 0 C11 0.99 11 1.98 11 3 C7.7 3 4.4 3 1 3 C0.67 2.01 0.34 1.02 0 0 Z " fill="#000000" transform="translate(293,705)"/>
<path d="M0 0 C0 0.99 0 1.98 0 3 C-3.63 3.33 -7.26 3.66 -11 4 C-11 3.01 -11 2.02 -11 1 C-7.26513121 0.4254048 -3.78706732 0 0 0 Z " fill="#000000" transform="translate(343,702)"/>
<path d="M0 0 C3.3 0.66 6.6 1.32 10 2 C10 2.99 10 3.98 10 5 C2.375 4.125 2.375 4.125 -1 3 C-0.67 2.01 -0.34 1.02 0 0 Z " fill="#000000" transform="translate(255,701)"/>
<path d="M0 0 C0 0.99 0 1.98 0 3 C-3.72965139 5.03435531 -5.66905042 6 -10 6 C-9 3 -9 3 -6.125 1.3125 C-3 0 -3 0 0 0 Z " fill="#000000" transform="translate(399,686)"/>
<path d="M0 0 C0.66 0.33 1.32 0.66 2 1 C0.55527654 4.80881639 -1.32603071 6.29742886 -5 8 C-5.99 7.67 -6.98 7.34 -8 7 C-8 6.34 -8 5.68 -8 5 C-6.3203125 3.67578125 -6.3203125 3.67578125 -4.125 2.3125 C-3.40570313 1.85488281 -2.68640625 1.39726563 -1.9453125 0.92578125 C-1.30335938 0.62027344 -0.66140625 0.31476562 0 0 Z " fill="#000000" transform="translate(414,676)"/>
<path d="M0 0 C3.99455527 0.61454696 6.74466336 2.70646737 10 5 C9.67 5.66 9.34 6.32 9 7 C5.51375944 6.3543999 2.87501211 5.07639763 0 3 C0 2.01 0 1.02 0 0 Z " fill="#000000" transform="translate(184,667)"/>
<path d="M0 0 C4.20626034 1.50223584 5.73900021 4.28550034 8 8 C6.68 8 5.36 8 4 8 C2.515625 6.46875 2.515625 6.46875 1.25 4.5 C0.82203125 3.8503125 0.3940625 3.200625 -0.046875 2.53125 C-0.51867187 1.77328125 -0.51867187 1.77328125 -1 1 C-0.67 0.67 -0.34 0.34 0 0 Z " fill="#000000" transform="translate(141,628)"/>
<path d="M0 0 C3.3 0.66 6.6 1.32 10 2 C10 2.99 10 3.98 10 5 C8.54119891 4.85892253 7.08296449 4.71197585 5.625 4.5625 C4.40683594 4.44068359 4.40683594 4.44068359 3.1640625 4.31640625 C1 4 1 4 -1 3 C-0.67 2.01 -0.34 1.02 0 0 Z " fill="#000000" transform="translate(437,608)"/>
<path d="M0 0 C0.66 0.33 1.32 0.66 2 1 C1.54177532 4.46941546 1.10868317 7.67395049 0 11 C-0.99 11 -1.98 11 -3 11 C-2.69217504 9.35328588 -2.37860766 7.70764424 -2.0625 6.0625 C-1.88847656 5.14597656 -1.71445312 4.22945312 -1.53515625 3.28515625 C-1 1 -1 1 0 0 Z " fill="#000000" transform="translate(478,581)"/>
<path d="M0 0 C0.99 0 1.98 0 3 0 C4.32 3.3 5.64 6.6 7 10 C5.68 10 4.36 10 3 10 C2.01 6.7 1.02 3.4 0 0 Z " fill="#000000" transform="translate(111,577)"/>
<path d="M0 0 C-0.125 1.75 -0.125 1.75 -1 4 C-6.22222222 8 -6.22222222 8 -9 8 C-8.875 6.25 -8.875 6.25 -8 4 C-2.77777778 0 -2.77777778 0 0 0 Z " fill="#000000" transform="translate(596,572)"/>
<path d="M0 0 C3.93619738 0.56231391 6.79192446 1.61685817 10 4 C10 4.99 10 5.98 10 7 C6.00118212 6.38479725 3.19641774 4.39731331 0 2 C0 1.34 0 0.68 0 0 Z " fill="#000000" transform="translate(345,572)"/>
<path d="M0 0 C2.71224618 1.61268692 5.37352812 3.24901874 8 5 C8 5.99 8 6.98 8 8 C4.12867972 7.42647107 1.91827204 5.51295648 -1 3 C-0.67 2.01 -0.34 1.02 0 0 Z " fill="#000000" transform="translate(298,537)"/>
<path d="M0 0 C0.99 0.33 1.98 0.66 3 1 C1.26440562 4.057952 -0.38472619 6.63379989 -3 9 C-3.99 8.67 -4.98 8.34 -6 8 C-4.02 5.36 -2.04 2.72 0 0 Z " fill="#000000" transform="translate(637,532)"/>
<path d="M0 0 C0.66 0 1.32 0 2 0 C4 7.625 4 7.625 4 11 C3.01 11 2.02 11 1 11 C0.63890458 9.35567294 0.28629924 7.7094792 -0.0625 6.0625 C-0.25972656 5.14597656 -0.45695312 4.22945312 -0.66015625 3.28515625 C-0.77230469 2.53105469 -0.88445312 1.77695312 -1 1 C-0.67 0.67 -0.34 0.34 0 0 Z " fill="#000000" transform="translate(97,520)"/>
<path d="M0 0 C0.99 0.33 1.98 0.66 3 1 C0.525 5.455 0.525 5.455 -2 10 C-2.99 9.67 -3.98 9.34 -5 9 C-3.35 6.03 -1.7 3.06 0 0 Z " fill="#000000" transform="translate(660,500)"/>
<path d="M0 0 C0.99 0 1.98 0 3 0 C2.67 3.63 2.34 7.26 2 11 C1.01 11 0.02 11 -1 11 C-0.67 7.37 -0.34 3.74 0 0 Z " fill="#000000" transform="translate(498,466)"/>
<path d="M0 0 C0.99 0 1.98 0 3 0 C2.67 3.63 2.34 7.26 2 11 C1.01 11 0.02 11 -1 11 C-1.125 3.375 -1.125 3.375 0 0 Z " fill="#000000" transform="translate(503,427)"/>
<path d="M0 0 C0.99 0 1.98 0 3 0 C3 3.3 3 6.6 3 10 C2.01 10.33 1.02 10.66 0 11 C0 7.37 0 3.74 0 0 Z " fill="#000000" transform="translate(504,407)"/>
<path d="M0 0 C0.99 0 1.98 0 3 0 C2.67 3.63 2.34 7.26 2 11 C1.01 11 0.02 11 -1 11 C-0.67 7.37 -0.34 3.74 0 0 Z " fill="#000000" transform="translate(94,403)"/>
<path d="M0 0 C0.99 0 1.98 0 3 0 C3.66 3.3 4.32 6.6 5 10 C4.01 10.33 3.02 10.66 2 11 C1.34 7.37 0.68 3.74 0 0 Z " fill="#000000" transform="translate(192,396)"/>
<path d="M0 0 C0.99 0 1.98 0 3 0 C2.67 3.63 2.34 7.26 2 11 C1.01 11 0.02 11 -1 11 C-0.67 7.37 -0.34 3.74 0 0 Z " fill="#000000" transform="translate(98,364)"/>
<path d="M0 0 C0.99 0 1.98 0 3 0 C3.66 3.3 4.32 6.6 5 10 C4.01 10.33 3.02 10.66 2 11 C1.34 7.37 0.68 3.74 0 0 Z " fill="#000000" transform="translate(183,356)"/>
<path d="M0 0 C0.99 0 1.98 0 3 0 C3 3.63 3 7.26 3 11 C2.01 10.67 1.02 10.34 0 10 C0 6.7 0 3.4 0 0 Z " fill="#000000" transform="translate(505,328)"/>
<path d="M0 0 C0.99 0 1.98 0 3 0 C3.33 3.63 3.66 7.26 4 11 C3.01 11 2.02 11 1 11 C-0.20272819 8.59454362 -0.10071472 7.05003047 -0.0625 4.375 C-0.05347656 3.55773437 -0.04445312 2.74046875 -0.03515625 1.8984375 C-0.02355469 1.27195312 -0.01195312 0.64546875 0 0 Z " fill="#000000" transform="translate(178,315)"/>
<path d="M0 0 C0.99 0.33 1.98 0.66 3 1 C3 4.3 3 7.6 3 11 C2.01 11 1.02 11 0 11 C0 7.37 0 3.74 0 0 Z " fill="#000000" transform="translate(504,308)"/>
<path d="M0 0 C0.99 0 1.98 0 3 0 C3.33 3.63 3.66 7.26 4 11 C3.01 11 2.02 11 1 11 C0.67 7.37 0.34 3.74 0 0 Z " fill="#000000" transform="translate(176,295)"/>
<path d="M0 0 C0.99 0 1.98 0 3 0 C4.20272819 2.40545638 4.10071472 3.94996953 4.0625 6.625 C4.05347656 7.44226563 4.04445313 8.25953125 4.03515625 9.1015625 C4.02355469 9.72804688 4.01195312 10.35453125 4 11 C3.01 10.67 2.02 10.34 1 10 C0.67 6.7 0.34 3.4 0 0 Z " fill="#000000" transform="translate(501,289)"/>
<path d="M0 0 C0.66 0 1.32 0 2 0 C2.66 3.63 3.32 7.26 4 11 C3.01 11 2.02 11 1 11 C0.63890458 9.35567294 0.28629924 7.7094792 -0.0625 6.0625 C-0.25972656 5.14597656 -0.45695312 4.22945313 -0.66015625 3.28515625 C-0.77230469 2.53105469 -0.88445312 1.77695312 -1 1 C-0.67 0.67 -0.34 0.34 0 0 Z " fill="#000000" transform="translate(499,269)"/>
<path d="M0 0 C0.99 0.66 1.98 1.32 3 2 C1.35 4.97 -0.3 7.94 -2 11 C-2.66 10.67 -3.32 10.34 -4 10 C-3.52449439 8.51965236 -3.04448784 7.04074979 -2.5625 5.5625 C-2.29566406 4.73878906 -2.02882812 3.91507813 -1.75390625 3.06640625 C-1 1 -1 1 0 0 Z " fill="#000000" transform="translate(136,251)"/>
<path d="M0 0 C0.99 0 1.98 0 3 0 C2.67 3.63 2.34 7.26 2 11 C1.01 11 0.02 11 -1 11 C-1.125 3.375 -1.125 3.375 0 0 Z " fill="#000000" transform="translate(178,233)"/>
<path d="M0 0 C0.66 0 1.32 0 2 0 C2.14285714 7.42857143 2.14285714 7.42857143 1 11 C0.01 11 -0.98 11 -2 11 C-1.85957123 9.35369672 -1.71250671 7.70795821 -1.5625 6.0625 C-1.48128906 5.14597656 -1.40007812 4.22945312 -1.31640625 3.28515625 C-1 1 -1 1 0 0 Z " fill="#000000" transform="translate(181,213)"/>
<path d="M0 0 C0.99 0.33 1.98 0.66 3 1 C1.80100302 4.0831351 0.52299523 7.06279492 -1 10 C-1.99 10 -2.98 10 -4 10 C-3.29445932 6.33118845 -1.72264494 3.29549466 0 0 Z " fill="#000000" transform="translate(163,198)"/>
<path d="M0 0 C3.87206399 0.57363911 6.18465063 2.34105893 9 5 C9 5.99 9 6.98 9 8 C5.56801397 6.76067171 2.69674368 5.49698489 0 3 C0 2.01 0 1.02 0 0 Z " fill="#000000" transform="translate(414,118)"/>
<path d="M0 0 C2.97 0.99 5.94 1.98 9 3 C9 4.32 9 5.64 9 7 C4.545 5.02 4.545 5.02 0 3 C0 2.01 0 1.02 0 0 Z " fill="#000000" transform="translate(380,98)"/>
<path d="M0 0 C2.97 0 5.94 0 9 0 C9.33 0.99 9.66 1.98 10 3 C6.37 3 2.74 3 -1 3 C-0.67 2.01 -0.34 1.02 0 0 Z " fill="#000000" transform="translate(314,704)"/>
<path d="M0 0 C3.55780196 0.60990891 6.6828589 1.5783681 10 3 C10 3.99 10 4.98 10 6 C6.44219804 5.39009109 3.3171411 4.4216319 0 3 C0 2.01 0 1.02 0 0 Z " fill="#000000" transform="translate(236,694)"/>
<path d="M0 0 C3.40312738 1.05875074 6.01353231 2.00902154 9 4 C8.67 4.99 8.34 5.98 8 7 C3.545 5.02 3.545 5.02 -1 3 C-0.67 2.01 -0.34 1.02 0 0 Z " fill="#000000" transform="translate(219,686)"/>
<path d="M0 0 C3.36295835 1.44126786 5.62927102 3.20592655 8 6 C8 6.99 8 7.98 8 9 C3.7257442 7.4169423 1.73468206 4.49431596 -1 1 C-0.67 0.67 -0.34 0.34 0 0 Z " fill="#000000" transform="translate(154,642)"/>
<path d="M0 0 C0.99 0 1.98 0 3 0 C1.6302836 3.99500618 -0.25722422 6.80009492 -3 10 C-3.66 9.67 -4.32 9.34 -5 9 C-3.49901406 5.88256767 -1.97568178 2.84498177 0 0 Z " fill="#000000" transform="translate(454,635)"/>
<path d="M0 0 C3.63 0.33 7.26 0.66 11 1 C10.67 1.99 10.34 2.98 10 4 C6.7 3.67 3.4 3.34 0 3 C0 2.01 0 1.02 0 0 Z " fill="#000000" transform="translate(456,611)"/>
<path d="M0 0 C0.99 0 1.98 0 3 0 C2.49287967 3.71888239 1.88391785 6.73454239 0 10 C-0.99 10 -1.98 10 -3 10 C-2.01 6.7 -1.02 3.4 0 0 Z " fill="#000000" transform="translate(471,600)"/>
<path d="M0 0 C3.55780196 0.60990891 6.6828589 1.5783681 10 3 C9.01 4.485 9.01 4.485 8 6 C5.03 5.01 2.06 4.02 -1 3 C-0.67 2.01 -0.34 1.02 0 0 Z " fill="#000000" transform="translate(399,598)"/>
<path d="M0 0 C4.455 1.98 4.455 1.98 9 4 C9 4.99 9 5.98 9 7 C6.03 6.01 3.06 5.02 0 4 C0 2.68 0 1.36 0 0 Z " fill="#000000" transform="translate(381,590)"/>
<path d="M0 0 C0.66 0.33 1.32 0.66 2 1 C1.125 8.75 1.125 8.75 0 11 C-0.99 11 -1.98 11 -3 11 C-2.69217504 9.35328588 -2.37860766 7.70764424 -2.0625 6.0625 C-1.88847656 5.14597656 -1.71445312 4.22945312 -1.53515625 3.28515625 C-1 1 -1 1 0 0 Z " fill="#000000" transform="translate(483,562)"/>
<path d="M0 0 C0.66 0.33 1.32 0.66 2 1 C1.67 4.3 1.34 7.6 1 11 C0.01 11 -0.98 11 -2 11 C-1.85957123 9.35369672 -1.71250671 7.70795821 -1.5625 6.0625 C-1.48128906 5.14597656 -1.40007812 4.22945312 -1.31640625 3.28515625 C-1 1 -1 1 0 0 Z " fill="#000000" transform="translate(487,543)"/>
<path d="M0 0 C2.12046792 3.53411321 2.53199289 6.94393835 3 11 C2.01 11 1.02 11 0 11 C-0.66 7.7 -1.32 4.4 -2 1 C-1.34 0.67 -0.68 0.34 0 0 Z " fill="#000000" transform="translate(102,539)"/>
<path d="M0 0 C3.36295835 1.44126786 5.62927102 3.20592655 8 6 C8 6.99 8 7.98 8 9 C3.7257442 7.4169423 1.73468206 4.49431596 -1 1 C-0.67 0.67 -0.34 0.34 0 0 Z " fill="#000000" transform="translate(254,497)"/>
<path d="M0 0 C0.66 0.33 1.32 0.66 2 1 C2.125 7.625 2.125 7.625 1 11 C0.01 11 -0.98 11 -2 11 C-1.85957123 9.35369672 -1.71250671 7.70795821 -1.5625 6.0625 C-1.48128906 5.14597656 -1.40007812 4.22945313 -1.31640625 3.28515625 C-1 1 -1 1 0 0 Z " fill="#000000" transform="translate(496,485)"/>
<path d="M0 0 C0.99 0.33 1.98 0.66 3 1 C1.8905928 4.48670834 0.73662334 7.77484237 -1 11 C-1.99 10.67 -2.98 10.34 -4 10 C-2.68 6.7 -1.36 3.4 0 0 Z " fill="#000000" transform="translate(669,482)"/>
<path d="M0 0 C0.99 0.33 1.98 0.66 3 1 C2.67 3.97 2.34 6.94 2 10 C1.01 10.33 0.02 10.66 -1 11 C-1.0270043 9.54176788 -1.04639787 8.08339325 -1.0625 6.625 C-1.07410156 5.81289063 -1.08570313 5.00078125 -1.09765625 4.1640625 C-1 2 -1 2 0 0 Z " fill="#000000" transform="translate(501,446)"/>
<path d="M0 0 C0.99 0.33 1.98 0.66 3 1 C4.52160014 4.6037898 5 7.05220686 5 11 C4.01 10.67 3.02 10.34 2 10 C0.47839986 6.3962102 0 3.94779314 0 0 Z " fill="#000000" transform="translate(198,415)"/>
<path d="M0 0 C0.99 0 1.98 0 3 0 C3 3.3 3 6.6 3 10 C2.01 10 1.02 10 0 10 C0 6.7 0 3.4 0 0 Z " fill="#000000" transform="translate(506,368)"/>
<path d="M0 0 C0.66 0 1.32 0 2 0 C1.49287967 3.71888239 0.88391785 6.73454239 -1 10 C-1.99 10 -2.98 10 -4 10 C-3.52449439 8.51965236 -3.04448784 7.04074979 -2.5625 5.5625 C-2.29566406 4.73878906 -2.02882813 3.91507812 -1.75390625 3.06640625 C-1 1 -1 1 0 0 Z " fill="#000000" transform="translate(120,288)"/>
<path d="M0 0 C3.0831351 1.19899698 6.06279492 2.47700477 9 4 C9 4.99 9 5.98 9 7 C5.00544473 6.38545304 2.25533664 4.29353263 -1 2 C-0.67 1.34 -0.34 0.68 0 0 Z " fill="#000000" transform="translate(398,107)"/>
<path d="M0 0 C3.3 0 6.6 0 10 0 C10 0.99 10 1.98 10 3 C6.7 3 3.4 3 0 3 C0 2.01 0 1.02 0 0 Z " fill="#000000" transform="translate(274,704)"/>
<path d="M0 0 C0 0.99 0 1.98 0 3 C-3.3 3.33 -6.6 3.66 -10 4 C-10 3.01 -10 2.02 -10 1 C-6.59437148 0.22157062 -3.49234244 -0.09978121 0 0 Z " fill="#000000" transform="translate(362,699)"/>
<path d="M0 0 C0.99 0 1.98 0 3 0 C2.82374165 2.37948772 2.30280227 3.70225849 0.59765625 5.37890625 C-0.90649092 6.62115486 -2.45129851 7.81376056 -4 9 C-4 4.32165993 -3.1782099 3.2690159 0 0 Z " fill="#000000" transform="translate(442,651)"/>
<path d="M0 0 C3.3 0 6.6 0 10 0 C10 0.99 10 1.98 10 3 C6.7 3 3.4 3 0 3 C0 2.01 0 1.02 0 0 Z " fill="#000000" transform="translate(476,612)"/>
<path d="M0 0 C0 0.99 0 1.98 0 3 C-3.3 3.66 -6.6 4.32 -10 5 C-10 4.01 -10 3.02 -10 2 C-3.375 0 -3.375 0 0 0 Z " fill="#000000" transform="translate(525,606)"/>
<path d="M0 0 C0 0.99 0 1.98 0 3 C-4.95 4.485 -4.95 4.485 -10 6 C-10 5.01 -10 4.02 -10 3 C-8.70990357 2.49596232 -7.41786211 1.99690074 -6.125 1.5 C-5.04605469 1.08234375 -5.04605469 1.08234375 -3.9453125 0.65625 C-2 0 -2 0 0 0 Z " fill="#000000" transform="translate(544,600)"/>
<path d="M0 0 C3.82097239 0.53069061 6.06171403 1.49701566 9 4 C8.67 4.99 8.34 5.98 8 7 C5.03 5.35 2.06 3.7 -1 2 C-0.67 1.34 -0.34 0.68 0 0 Z " fill="#000000" transform="translate(363,582)"/>
<path d="M0 0 C0.99 0 1.98 0 3 0 C2.88590407 1.45922693 2.75834456 2.91740598 2.625 4.375 C2.55539062 5.18710937 2.48578125 5.99921875 2.4140625 6.8359375 C2 9 2 9 0 11 C-0.66 10.34 -1.32 9.68 -2 9 C-1.7578125 6.8359375 -1.7578125 6.8359375 -1.125 4.375 C-0.92132813 3.55773437 -0.71765625 2.74046875 -0.5078125 1.8984375 C-0.34023438 1.27195312 -0.17265625 0.64546875 0 0 Z " fill="#000000" transform="translate(493,505)"/>
<path d="M0 0 C2.32590854 3.63423209 2.16265833 6.77088331 2 11 C1.01 11 0.02 11 -1 11 C-1.33 7.7 -1.66 4.4 -2 1 C-1.34 0.67 -0.68 0.34 0 0 Z " fill="#000000" transform="translate(94,481)"/>
<path d="M0 0 C1.17539996 0.92652701 2.34010577 1.86663387 3.5 2.8125 C4.1496875 3.33457031 4.799375 3.85664063 5.46875 4.39453125 C7 6 7 6 7 9 C6.01 9 5.02 9 4 9 C1.25 6.1875 1.25 6.1875 -1 3 C-0.67 2.01 -0.34 1.02 0 0 Z " fill="#000000" transform="translate(228,468)"/>
<path d="M0 0 C0.99 0 1.98 0 3 0 C2.34 3.63 1.68 7.26 1 11 C0.01 10.34 -0.98 9.68 -2 9 C-1.34 6.03 -0.68 3.06 0 0 Z " fill="#000000" transform="translate(101,345)"/>
<path d="M0 0 C1.17539996 0.92652701 2.34010577 1.86663387 3.5 2.8125 C4.1496875 3.33457031 4.799375 3.85664063 5.46875 4.39453125 C7 6 7 6 7 9 C3.63408134 7.55746343 1.48952921 5.66735273 -1 3 C-0.67 2.01 -0.34 1.02 0 0 Z " fill="#000000" transform="translate(430,130)"/>
<path d="M0 0 C0.99 0 1.98 0 3 0 C4.31626692 3.61973402 5 6.09567131 5 10 C4.01 9.67 3.02 9.34 2 9 C1.26953125 6.93359375 1.26953125 6.93359375 0.8125 4.4375 C0.65394531 3.61121094 0.49539062 2.78492188 0.33203125 1.93359375 C0.16767578 0.97646484 0.16767578 0.97646484 0 0 Z " fill="#000000" transform="translate(105,559)"/>
<path d="M0 0 C0.99 0 1.98 0 3 0 C2.67 3.3 2.34 6.6 2 10 C1.01 10 0.02 10 -1 10 C-1.125 3.375 -1.125 3.375 0 0 Z " fill="#000000" transform="translate(96,384)"/>
<path d="M0 0 C0.66 0.33 1.32 0.66 2 1 C0.84414715 4.91211733 -0.35534962 7.8745041 -3 11 C-3.66 10.34 -4.32 9.68 -5 9 C-3.35 6.03 -1.7 3.06 0 0 Z " fill="#000000" transform="translate(145,233)"/>
<path d="M0 0 C7.75 -0.125 7.75 -0.125 10 1 C9.67 1.99 9.34 2.98 9 4 C6.03 3.67 3.06 3.34 0 3 C0 2.01 0 1.02 0 0 Z " fill="#000000" transform="translate(323,84)"/>
<path d="M0 0 C0.66 0 1.32 0 2 0 C1.43697042 3.94120709 0.3208055 6.7508723 -2 10 C-2.66 10 -3.32 10 -4 10 C-3.43697042 6.05879291 -2.3208055 3.2491277 0 0 Z " fill="#000000" transform="translate(464,618)"/>
<path d="M0 0 C0.99 0.33 1.98 0.66 3 1 C2.67 3.97 2.34 6.94 2 10 C1.01 10 0.02 10 -1 10 C-1.125 3.375 -1.125 3.375 0 0 Z " fill="#000000" transform="translate(93,423)"/>
<path d="M0 0 C0.99 0 1.98 0 3 0 C2.67 1.98 2.34 3.96 2 6 C1.01 5.67 0.02 5.34 -1 5 C-0.67 3.35 -0.34 1.7 0 0 Z " fill="#000000" transform="translate(674,469)"/>
<path d="M0 0 C0.99 0.33 1.98 0.66 3 1 C2.67 1.99 2.34 2.98 2 4 C1.01 3.01 0.02 2.02 -1 1 C-0.67 0.67 -0.34 0.34 0 0 Z " fill="#000000" transform="translate(103,734)"/>
<path d="M0 0 C0.99 0.33 1.98 0.66 3 1 C2.67 1.99 2.34 2.98 2 4 C1.01 3.01 0.02 2.02 -1 1 C-0.67 0.67 -0.34 0.34 0 0 Z " fill="#000000" transform="translate(590,457)"/>
<path d="M0 0 C0.99 0.33 1.98 0.66 3 1 C2.67 1.99 2.34 2.98 2 4 C1.01 3.01 0.02 2.02 -1 1 C-0.67 0.67 -0.34 0.34 0 0 Z " fill="#000000" transform="translate(523,50)"/>
<path d="M0 0 C0.99 0 1.98 0 3 0 C3 0.99 3 1.98 3 3 C2.01 3 1.02 3 0 3 C0 2.01 0 1.02 0 0 Z " fill="#000000" transform="translate(324,382)"/>
</svg>
