<?xml version="1.0" encoding="UTF-8"?>
<svg version="1.1" xmlns="http://www.w3.org/2000/svg" width="846" height="744">
<path d="M0 0 C0.81855469 0.67289063 1.63710938 1.34578125 2.48046875 2.0390625 C17.74501094 15.05533878 27.74665655 32.14338651 31 52 C31.226875 53.258125 31.45375 54.51625 31.6875 55.8125 C34.31467675 82.6432413 27.95065166 110.89737354 11.02880859 132.24438477 C-22.47942704 173.00922052 -77.19519923 187.92947158 -127.72143555 193.00341797 C-148.06365597 194.76896258 -168.59576448 194.67182465 -189 195 C-189.45101074 195.87696533 -189.90202148 196.75393066 -190.36669922 197.6574707 C-245.25000011 304.37500021 -245.25000011 304.37500021 -246.37495422 306.56240845 C-247.12510957 308.02104554 -247.87526216 309.47968405 -248.62541199 310.93832397 C-250.4980126 314.57952145 -252.37066082 318.22069442 -254.2434082 321.86181641 C-257.64649054 328.47843506 -261.04921644 335.09523582 -264.45016479 341.71295166 C-265.99303548 344.7150633 -267.53618315 347.71703252 -269.0793457 350.71899414 C-269.78846519 352.09864476 -270.49746136 353.47835877 -271.20629883 354.8581543 C-276.38603598 364.94071238 -281.58944958 375.01096771 -286.7980957 385.07861328 C-287.49902285 386.4335545 -288.19994301 387.78849934 -288.90085602 389.14344788 C-290.60049017 392.4290069 -292.30021862 395.71451714 -294 399 C-293.43150859 399.00021737 -292.86301717 399.00043474 -292.27729875 399.00065869 C-258.5489456 399.01418824 -224.8207301 399.05373635 -191.09245403 399.12685562 C-187.03844305 399.13562188 -182.98443164 399.14417178 -178.93041992 399.15258789 C-178.12337335 399.15426695 -177.31632679 399.15594602 -176.48482426 399.15767596 C-163.43444993 399.18431189 -150.38411951 399.19343859 -137.33372078 399.19604143 C-123.93277971 399.19910592 -110.5319652 399.22110987 -97.13108128 399.26052457 C-88.86866282 399.28423422 -80.60649734 399.29334776 -72.3440496 399.28351311 C-66.6704379 399.2781782 -60.99705192 399.29131728 -55.32350449 399.3186629 C-52.05494705 399.33388127 -48.78699404 399.33851348 -45.51840782 399.32659721 C-28.9291116 399.27212281 -14.97913654 399.36748469 -2 411 C-1.38511719 411.52335937 -0.77023437 412.04671875 -0.13671875 412.5859375 C9.15344665 421.0604781 12.02890808 432.58173868 13.28515625 444.765625 C13.64383749 454.68394089 10.40812272 463.45781719 4 471 C-5.80191319 481.00728661 -18.95586187 485.51909189 -32.25 488.8125 C-33.02126221 489.00739014 -33.79252441 489.20228027 -34.5871582 489.40307617 C-52.92593115 493.58631492 -71.91582914 493.30405024 -90.60644531 493.31884766 C-93.32858055 493.32708519 -96.05070201 493.33825253 -98.77282715 493.34928894 C-104.59143819 493.37137295 -110.41003221 493.38649845 -116.22867584 493.39665604 C-124.64105626 493.41135193 -133.05337725 493.43691782 -141.46572241 493.46498732 C-155.12003605 493.51025924 -168.77435835 493.5469542 -182.42871094 493.578125 C-195.67872635 493.60839142 -208.9287207 493.64277831 -222.17871094 493.68261719 C-222.99786725 493.68507874 -223.81702356 493.68754028 -224.66100278 493.69007643 C-228.77119397 493.70245259 -232.8813849 493.71490882 -236.99157572 493.72740483 C-270.9943551 493.83067854 -304.99715798 493.91997782 -339 494 C-339.28494859 494.60315631 -339.56989717 495.20631262 -339.86348057 495.82774639 C-341.16888663 498.58813468 -342.47711946 501.34717433 -343.78540039 504.10620117 C-344.23358376 505.05500908 -344.68176712 506.00381699 -345.1435318 506.98137665 C-348.29462194 513.61965758 -351.61486429 520.03254476 -355.4375 526.3125 C-355.9826123 527.22 -356.52772461 528.1275 -357.08935547 529.0625 C-366.94549265 545.30894292 -377.99196375 560.72724658 -390.89453125 574.703125 C-392.2746395 576.20869764 -393.62768411 577.73963579 -394.94921875 579.296875 C-399.24113964 584.3461937 -403.83726972 588.51802793 -409.03515625 592.625 C-411.60224423 594.68137614 -414.07561304 596.81219487 -416.54052734 598.98876953 C-458.78463656 635.94748326 -518.89851131 653.56701463 -574.25 653.3125 C-575.10095245 653.31034485 -575.95190491 653.3081897 -576.8286438 653.30596924 C-590.08047652 653.25229863 -602.99311208 652.74491207 -616 650 C-616.95293945 649.80132324 -617.90587891 649.60264648 -618.88769531 649.39794922 C-657.69385395 641.03941069 -697.31328634 623.02137827 -720 589 C-735.87190925 563.8766155 -739.969141 533.1128679 -733.5390625 504.22216797 C-728.05949433 481.63383938 -716.88034598 462.87104646 -701 446 C-700.47277344 445.40832031 -699.94554687 444.81664062 -699.40234375 444.20703125 C-664.43277189 406.55437204 -608.53619962 402.56327076 -560.66369629 400.53027344 C-557.80094929 400.4075266 -554.93843557 400.2797841 -552.07591629 400.15185261 C-544.35641493 399.80688512 -536.63636844 399.47731772 -528.91564941 399.16079712 C-526.42657435 399.05858263 -523.93755336 398.95503601 -521.4486084 398.84970093 C-500.9191449 397.9884116 -480.39069336 397.7038891 -459.84667969 397.46777344 C-455.44723581 397.41648244 -451.04783967 397.36137288 -446.6484375 397.30664062 C-438.0989993 397.20081323 -429.54951975 397.09902041 -421 397 C-420.62415771 396.24046021 -420.62415771 396.24046021 -420.24072266 395.46557617 C-415.18925624 385.27215222 -410.05794363 375.13075886 -404.73431396 365.07666016 C-400.58496823 357.23556803 -396.5368126 349.34419271 -392.49966431 341.44488525 C-390.32405699 337.18845398 -388.14453707 332.93402747 -385.96484375 328.6796875 C-385.31965034 327.42029861 -385.31965034 327.42029861 -384.66142273 326.13546753 C-380.51942004 318.05469694 -376.34174857 309.99275103 -372.1550293 301.93505859 C-367.60476713 293.17498936 -363.08032813 284.40182302 -358.5625 275.625 C-353.21893365 265.24448868 -347.86707546 254.86837663 -342.5 244.5 C-336.88493428 233.65143815 -331.2823291 222.79651142 -325.6875 211.9375 C-325.31447754 211.21369141 -324.94145508 210.48988281 -324.55712891 209.74414062 C-323.50004846 207.69285092 -322.4433181 205.6413813 -321.38671875 203.58984375 C-320.91591133 202.67627357 -320.91591133 202.67627357 -320.43559265 201.74424744 C-318.93941955 198.83803804 -317.45874128 195.92514731 -316 193 C-316.71472977 193.0169693 -317.42945953 193.0339386 -318.16584778 193.05142212 C-324.94634717 193.21040289 -331.72700933 193.35849599 -338.50800037 193.49477577 C-341.99304473 193.56518885 -345.47790159 193.63960978 -348.96264648 193.72363281 C-352.9814086 193.82034729 -357.00035677 193.89883186 -361.01953125 193.9765625 C-362.87019951 194.02485703 -362.87019951 194.02485703 -364.758255 194.0741272 C-378.15284111 194.30302806 -390.16171208 192.72193824 -400.3125 183.3125 C-409.34559039 173.62245759 -411.66854262 161.94683868 -411.3125 149.10546875 C-410.57930386 136.01486271 -404.22659234 124.09529879 -394.796875 115.171875 C-391.47883872 112.59529934 -388.09521495 110.56218002 -384.375 108.625 C-383.77316895 108.30321777 -383.17133789 107.98143555 -382.55126953 107.64990234 C-371.10559478 102.09594521 -358.05879635 101.55250629 -345.58203125 101.5234375 C-344.14921168 101.50905086 -342.71640542 101.49328092 -341.28361511 101.47622681 C-337.54815346 101.43486767 -333.8127742 101.40957589 -330.07714844 101.38873291 C-326.33195958 101.36602195 -322.58688972 101.33170534 -318.84179688 101.296875 C-318.11087861 101.2902588 -317.37996035 101.2836426 -316.62689304 101.2768259 C-310.31814869 101.2177828 -304.00996667 101.12973874 -297.70162964 101.03756714 C-294.35500917 101.00360292 -291.01279121 101.01796364 -287.66625977 101.04711914 C-279.26263491 101.25186094 -279.26263491 101.25186094 -271.53686523 98.49511719 C-269.63642354 96.3239474 -268.52088652 94.30441206 -267.3125 91.6875 C-266.29906604 89.85367512 -265.28468904 88.02037118 -264.26953125 86.1875 C-263.75213379 85.19234375 -263.23473633 84.1971875 -262.70166016 83.171875 C-260.8843987 79.7845205 -258.91794887 76.5111982 -256.88671875 73.25 C-256.34980659 72.38649933 -256.34980659 72.38649933 -255.80204773 71.5055542 C-255.06942797 70.32747279 -254.33667448 69.14947454 -253.60379028 67.97155762 C-247.25634516 57.71217412 -241.21107671 47.27866602 -235.37304688 36.72143555 C-226.5417499 20.81105934 -216.83737947 6.81730414 -202 -4 C-201.18885742 -4.59675537 -201.18885742 -4.59675537 -200.36132812 -5.20556641 C-144.20063697 -46.05115421 -53.0782158 -45.1387852 0 0 Z M-215.1015625 16.1796875 C-221.73063587 23.84540609 -226.28589308 33.02952744 -231.21191406 41.82763672 C-234.52600944 47.70739578 -237.9095066 53.54638223 -241.3125 59.375 C-241.67040619 59.98827148 -242.02831238 60.60154297 -242.39706421 61.23339844 C-248.56164729 71.7704722 -255.07006702 82.03812489 -261.828125 92.20703125 C-263.87839297 95.29658571 -265.92202472 98.38923162 -267.921875 101.51171875 C-268.3250293 102.13908936 -268.72818359 102.76645996 -269.14355469 103.4128418 C-270.15829423 104.99276834 -270.15829423 104.99276834 -270 107 C-270.74186554 106.9986908 -271.48373108 106.99738159 -272.24807739 106.99603271 C-290.79062368 106.96803862 -309.33201944 106.98681429 -327.87353516 107.20751953 C-330.56626109 107.23841831 -333.25878561 107.258845 -335.95166016 107.27099609 C-363.43175351 106.98268726 -363.43175351 106.98268726 -388 118 C-388.63164062 118.43957031 -389.26328125 118.87914062 -389.9140625 119.33203125 C-397.85800537 125.40372327 -403.4929106 135.15009431 -405 145 C-406.00729554 157.23864083 -404.8578068 168.36003926 -396.82421875 178.21484375 C-386.46958597 188.34774992 -373.62568085 188.30851428 -360.02734375 188.4140625 C-358.49319959 188.43280331 -356.95906542 188.45237882 -355.42494202 188.4727478 C-351.41543507 188.52376778 -347.40589482 188.56355336 -343.39624023 188.60089111 C-339.2933753 188.64112127 -335.1906453 188.69212622 -331.08789062 188.7421875 C-323.05868642 188.83858926 -315.02941463 188.92310668 -307 189 C-327.53091625 229.14784525 -327.53091625 229.14784525 -336.89331055 247.16186523 C-341.42831432 255.88919243 -345.93628627 264.63021607 -350.4375 273.375 C-355.78103483 283.75552738 -361.13289135 294.13164072 -366.5 304.5 C-371.845535 314.82707027 -377.17688542 325.16135593 -382.5 335.5 C-387.62528777 345.45341536 -392.75337918 355.40536155 -397.89501953 365.3503418 C-398.75579918 367.0153251 -399.6161944 368.68050712 -400.4765625 370.34570312 C-406.28741765 381.57956946 -412.14576732 392.7886971 -418 404 C-418.8651976 403.99333817 -419.7303952 403.98667633 -420.62181091 403.97981262 C-460.3574717 403.68903902 -500.04394575 403.6476253 -539.75 405.375 C-540.49169811 405.40680485 -541.23339622 405.4386097 -541.99757004 405.47137833 C-557.78101784 406.14966775 -573.55431421 406.98544362 -589.3203125 407.9921875 C-590.52177917 408.06658051 -591.72324585 408.14097351 -592.96112061 408.21762085 C-628.35792659 410.5810906 -662.39605321 421.34221495 -690 444 C-690.82371094 444.66902344 -691.64742187 445.33804687 -692.49609375 446.02734375 C-713.62196189 463.9312424 -727.07523104 491.60267443 -730 519 C-731.54693455 548.22227157 -725.88447682 574.62570019 -706 597 C-677.9616755 627.69114996 -633.93289204 645.10886312 -592.77656555 647.10800171 C-590.50430105 647.16295358 -588.23382776 647.19025753 -585.9609375 647.203125 C-585.1257962 647.21018463 -584.29065491 647.21724426 -583.4302063 647.22451782 C-557.07649693 647.43202402 -557.07649693 647.43202402 -531 644 C-530.01789551 643.80132324 -529.03579102 643.60264648 -528.02392578 643.39794922 C-461.14404495 629.39690783 -406.16468439 593.22198761 -368.6875 536.125 C-364.08167709 528.99096713 -359.85570508 521.64632112 -355.6875 514.25 C-355.11281982 513.23309082 -354.53813965 512.21618164 -353.94604492 511.16845703 C-346.60646608 499.62860847 -346.60646608 499.62860847 -343 487 C-342.41262721 487.00075944 -341.82525442 487.00151888 -341.22008246 487.00230134 C-306.3390687 487.04714368 -271.45805994 487.08141655 -236.57702331 487.10213066 C-232.38053177 487.10463181 -228.18404028 487.10722048 -223.98754883 487.10986328 C-223.15216998 487.1103879 -222.31679112 487.11091252 -221.45609776 487.11145304 C-207.96358388 487.12013467 -194.47108719 487.13589218 -180.97858348 487.15430559 C-167.11437066 487.17306723 -153.25016679 487.18412991 -139.3859418 487.18817699 C-130.844138 487.19090911 -122.30238281 487.19951025 -113.76059399 487.21583293 C-107.88799564 487.22647731 -102.01542211 487.22958393 -96.14281484 487.22700275 C-92.76428954 487.22573294 -89.3859161 487.22868082 -86.00739479 487.23841095 C-59.18795022 487.3437786 -59.18795022 487.3437786 -32.8125 482.875 C-31.99426758 482.66472168 -31.17603516 482.45444336 -30.33300781 482.23779297 C-17.34598381 478.67228289 -5.01237526 472.75279968 3.375 461.9375 C8.66191314 452.38038778 7.93286002 442.19715311 5.03515625 431.88671875 C0.93006247 420.43892892 -6.46888718 413.47842518 -17.1171875 408.04296875 C-25.14092058 405.14007345 -33.14501574 404.71196587 -41.60464478 404.75949097 C-43.29580117 404.75692769 -43.29580117 404.75692769 -45.02112234 404.75431263 C-48.77667999 404.75103388 -52.53205663 404.7619949 -56.28759766 404.77294922 C-58.98854981 404.77351368 -61.68949107 404.77328403 -64.39044189 404.77206421 C-70.19397459 404.77101865 -75.9974621 404.77726073 -81.80098343 404.78853989 C-90.19175661 404.8048367 -98.58250808 404.81000716 -106.97329538 404.81251587 C-120.58881736 404.81688643 -134.20431529 404.83017814 -147.81982422 404.84912109 C-161.04117717 404.86749647 -174.26252357 404.88164485 -187.48388672 404.89013672 C-188.70760105 404.89092489 -188.70760105 404.89092489 -189.95603688 404.89172898 C-194.04896602 404.89433917 -198.1418952 404.89686656 -202.23482442 404.89935279 C-236.15656705 404.92006537 -270.07828057 404.95527345 -304 405 C-303.66354808 404.35591627 -303.32709616 403.71183254 -302.98044872 403.04823112 C-301.42762867 400.07513568 -299.87531089 397.10177826 -298.32299805 394.12841797 C-297.52943531 392.60930061 -297.52943531 392.60930061 -296.719841 391.05949402 C-292.13339369 382.27301183 -287.60228045 373.45902636 -283.09347534 364.63250732 C-280.83269397 360.20703116 -278.56860803 355.78324588 -276.3046875 351.359375 C-275.62577705 350.03255203 -275.62577705 350.03255203 -274.93315125 348.67892456 C-270.78267383 340.57000359 -266.61318479 332.47096229 -262.4375 324.375 C-256.27476243 312.42530378 -250.13225444 300.46536738 -244 288.5 C-237.12115178 275.0784416 -230.22953835 261.66358796 -223.31713867 248.25927734 C-219.5884138 241.02805527 -215.86604408 233.79363885 -212.15234375 226.5546875 C-210.93350877 224.18010561 -209.71459153 221.80556595 -208.4956665 219.43103027 C-207.72038267 217.91997668 -206.94558447 216.40867381 -206.17132568 214.89709473 C-205.09073455 212.78751924 -204.00875584 210.67866532 -202.92578125 208.5703125 C-202.58826843 207.91281006 -202.25075562 207.25530762 -201.90301514 206.57788086 C-199.37454083 201.67396618 -196.73604355 196.8377978 -194.02026367 192.03466797 C-192.85058567 190.08138603 -192.85058567 190.08138603 -193 188 C-192.42990707 188.00666183 -191.85981415 188.01332367 -191.27244568 188.02018738 C-125.37260786 188.75409133 -52.47443963 185.65018758 -1.58984375 137.6796875 C17.42454368 118.00567577 26.4173645 93.04604737 26.30273438 65.80419922 C25.74067968 41.20389783 14.78707966 22.58170356 -2.25 5.78125 C-8.32929837 0.14895886 -15.10565354 -4.44344056 -22 -9 C-22.78761719 -9.5465625 -23.57523438 -10.093125 -24.38671875 -10.65625 C-46.36934999 -25.08115287 -74.41095919 -27.22421221 -99.9375 -27.1875 C-100.71212585 -27.18689575 -101.48675171 -27.1862915 -102.28485107 -27.18566895 C-145.64182207 -27.09391763 -184.37970417 -15.68424735 -215.1015625 16.1796875 Z " fill="#000000" transform="translate(764,61)"/>
<path d="M0 0 C6.517904 4.68956663 12.55343845 10.81246164 14 19 C14.7992898 30.25557271 13.99078008 38.31915226 6.75 47.25 C1.33164802 53.0878373 -4.3711544 56.67129269 -12.35546875 57.23828125 C-23.57071698 57.45549809 -30.8402179 55.69919895 -39.20703125 47.93359375 C-46.38318634 40.19460297 -47.48473506 33.10670258 -47.2734375 22.765625 C-46.64352117 14.09077723 -42.28194806 7.82507911 -36 2 C-25.82502277 -5.66451556 -10.93235165 -7.28107507 0 0 Z " fill="#000000" transform="translate(432,180)"/>
<path d="M0 0 C2.46148924 0.0056098 4.92298189 0.00987333 7.38447571 0.01286316 C13.79751171 0.02420307 20.21033705 0.0535743 26.62329102 0.0869751 C33.19349317 0.11791268 39.76373005 0.13141864 46.33398438 0.14648438 C59.17717211 0.17845644 72.02021537 0.22892416 84.86328125 0.29296875 C83.9209184 1.72398517 82.97620385 3.15345308 82.03051758 4.58227539 C81.24176994 5.77657921 81.24176994 5.77657921 80.43708801 6.99501038 C78.32518043 10.0786645 76.00015394 12.91234434 73.55078125 15.73046875 C73.07350586 16.28557129 72.59623047 16.84067383 72.10449219 17.41259766 C70.69656224 19.04453781 69.28079134 20.66935032 67.86328125 22.29296875 C66.78240234 23.54400391 66.78240234 23.54400391 65.6796875 24.8203125 C41.28428472 52.53607256 14.78589406 73.14743305 -23.13671875 76.29296875 C-39.75309011 77.16136203 -55.49613997 75.32534478 -68.38671875 63.79296875 C-76.09788107 55.55820899 -81.7731067 42.95891654 -81.4453125 31.62109375 C-80.5567806 24.91773917 -77.23047754 19.44909385 -72.30078125 14.91796875 C-51.95715567 -0.35811111 -24.16306309 -0.1638889 0 0 Z M-71.63671875 22.91796875 C-72.13171875 23.70171875 -72.62671875 24.48546875 -73.13671875 25.29296875 C-73.75546875 26.19015625 -73.75546875 26.19015625 -74.38671875 27.10546875 C-77.23982682 35.42703394 -73.64004571 43.70668896 -70.13671875 51.29296875 C-64.38607404 60.80512164 -56.74716291 66.28015219 -46.07421875 69.16796875 C-27.2241338 72.83265348 -4.12565693 70.38599863 12.86328125 61.29296875 C13.81589844 60.80183594 14.76851563 60.31070313 15.75 59.8046875 C27.51229694 53.3623314 37.53195894 44.70606543 47.30078125 35.60546875 C47.95079102 35.00025391 48.60080078 34.39503906 49.27050781 33.77148438 C53.76190451 29.51307743 57.85627308 25.00644021 61.86328125 20.29296875 C62.64505737 19.38502563 62.64505737 19.38502563 63.44262695 18.45874023 C64.90166943 16.76293056 66.3523431 15.06033855 67.80078125 13.35546875 C68.29384766 12.77990234 68.78691406 12.20433594 69.29492188 11.61132812 C71.75506711 9.24676596 71.75506711 9.24676596 72.86328125 6.29296875 C60.26619325 6.22305363 47.66915242 6.16994857 35.07190895 6.13753223 C29.22072049 6.12196375 23.36966605 6.10088906 17.51855469 6.06665039 C11.85805341 6.03373935 6.19767998 6.01604969 0.5370903 6.00833702 C-1.60835402 6.0028499 -3.7537924 5.99213745 -5.89918137 5.97577858 C-27.26147971 5.81956167 -55.77357835 6.26167133 -71.63671875 22.91796875 Z " fill="#000000" transform="translate(225.13671875,547.70703125)"/>
<path d="M0 0 C4.97173583 1.55366745 9.18561608 4.49754 13 8 C13.33 8.99 13.66 9.98 14 11 C12.3125 11.75 12.3125 11.75 10 12 C7.25 10.0625 7.25 10.0625 5 8 C7.62972262 41.87885029 22.92617288 73.46253459 46 98 C46.5259375 98.59039063 47.051875 99.18078125 47.59375 99.7890625 C74.32262669 128.56351649 119.3795292 140.4862418 157.23620605 142.09503174 C212.53067657 144.07317674 266.15686138 134.50709311 318.12133789 115.74267578 C319.1189917 115.38286621 320.11664551 115.02305664 321.14453125 114.65234375 C322.01440674 114.33257568 322.88428223 114.01280762 323.78051758 113.68334961 C326 113 326 113 329 113 C329 114.32 329 115.64 329 117 C292.99468101 130.49730806 256.19084444 140.15805459 218 145 C217.11731445 145.11859375 216.23462891 145.2371875 215.32519531 145.359375 C161.92335307 152.35470404 100.35850908 147.04845618 56.2109375 113.56640625 C21.81607355 86.52700776 7.18536563 49.72485972 -1 8 C-1.598125 8.969375 -2.19625 9.93875 -2.8125 10.9375 C-5 14 -5 14 -8 15 C-8.7421875 13.32421875 -8.7421875 13.32421875 -9 11 C-7.3828125 8.45703125 -7.3828125 8.45703125 -5.125 5.8125 C-4.38507812 4.93207031 -3.64515625 4.05164063 -2.8828125 3.14453125 C-1 1 -1 1 0 0 Z " fill="#000000" transform="translate(9,581)"/>
<path d="M0 0 C1.32 0.33 2.64 0.66 4 1 C2.4707257 4.44086718 0.37237071 7.09239931 -2 10 C-1.15630859 9.98428955 -0.31261719 9.9685791 0.55664062 9.95239258 C39.7055324 9.32310016 82.88800251 12.18754919 114 39 C114.72316406 39.56847656 115.44632813 40.13695312 116.19140625 40.72265625 C134.25325273 55.51766441 143.42928844 79.17756222 145.6875 101.87109375 C148.55167008 136.1679031 139.21499406 170.4927784 124 201 C122.68 200.34 121.36 199.68 120 199 C120.27150879 198.37770508 120.54301758 197.75541016 120.82275391 197.11425781 C136.76453611 160.34628786 149.88395973 116.94988083 135.1875 77.5 C126.10057761 54.57355725 110.1016641 38.03051715 87.64794922 27.94335938 C76.7746381 23.40142839 65.57230032 20.16089636 54 18 C53.22479004 17.85046875 52.44958008 17.7009375 51.65087891 17.546875 C34.1842087 14.30829959 16.6846388 14.68587133 -1 15 C-0.175 15.5775 0.65 16.155 1.5 16.75 C2.325 17.4925 3.15 18.235 4 19 C4 20.32 4 21.64 4 23 C0.21123678 22.40773357 -1.93470393 20.72332392 -4.8125 18.25 C-5.62332031 17.57453125 -6.43414063 16.8990625 -7.26953125 16.203125 C-9 14 -9 14 -9.015625 11.53515625 C-7.78747819 8.46951286 -6.19612889 6.5895339 -3.9375 4.1875 C-3.20402344 3.39730469 -2.47054687 2.60710937 -1.71484375 1.79296875 C-1.14894531 1.20128906 -0.58304688 0.60960938 0 0 Z " fill="#000000" transform="translate(667,0)"/>
<path d="M0 0 C2.85791972 2.34495977 3.82725165 3.48175495 5 7 C6.17747266 24.35324456 6.17747266 24.35324456 1 31 C0.37867188 31.80824219 -0.24265625 32.61648437 -0.8828125 33.44921875 C-12.47836833 47.35141741 -27.14339673 51.89247725 -44.734375 53.6953125 C-52.13937698 54.31414411 -59.5780027 54.15462494 -67 54 C-67.36899669 48.62978036 -66.92173065 46.08963854 -63.5 41.9375 C-60.24185197 37.74680783 -57.45290824 33.55958937 -54.875 28.9375 C-54.54048828 28.34300049 -54.20597656 27.74850098 -53.86132812 27.13598633 C-52.37592682 24.48728818 -50.90667322 21.82999518 -49.4453125 19.16796875 C-44.26038334 10.0452961 -36.38735019 1.03489645 -26.21875 -2.64453125 C-17.62489282 -4.021364 -7.74941337 -4.17276104 0 0 Z M-35 10 C-35.69222656 10.59425781 -36.38445313 11.18851563 -37.09765625 11.80078125 C-43.27474045 17.9287435 -46.77148714 25.82295295 -50.65625 33.4921875 C-52.82705452 37.74773714 -55.25830688 41.71464994 -58.0390625 45.6015625 C-59.0943889 46.85456771 -59.0943889 46.85456771 -59 48 C-42.59654668 48.97553577 -23.60268272 46.16389864 -11 35 C-5.62081107 30.20527023 -1.49067008 25.96956514 -0.56640625 18.4921875 C-0.56511719 17.29851562 -0.56382812 16.10484375 -0.5625 14.875 C-0.54316406 13.67617187 -0.52382813 12.47734375 -0.50390625 11.2421875 C-1.08747951 7.42828352 -1.96203843 6.29632538 -5 4 C-15.97685641 0.34104786 -26.40441156 2.47709584 -35 10 Z " fill="#000000" transform="translate(678,114)"/>
<path d="M0 0 C3.81684226 1.55500981 6.19195732 4.03595495 9 7 C7.44396229 10.81936528 5.04395069 13.26044438 2 16 C1.34 16 0.68 16 0 16 C0.57344937 13.13275314 0.8614515 12.1385485 3 10 C-104.91 9.505 -104.91 9.505 -215 9 C-215 8.34 -215 7.68 -215 7 C-143.06 6.67 -71.12 6.34 3 6 C2.01 5.01 1.02 4.02 0 3 C0 2.01 0 1.02 0 0 Z " fill="#000000" transform="translate(720,433)"/>
<path d="M0 0 C0.66 0.33 1.32 0.66 2 1 C0.33062871 6.7384638 -2.30969382 11.87807958 -5 17.1875 C-5.43183594 18.05052734 -5.86367188 18.91355469 -6.30859375 19.80273438 C-9.34437982 25.83560669 -12.47748306 31.81433945 -15.6328125 37.78515625 C-22.02500396 49.88703363 -28.21659123 62.09062078 -34.42089844 74.28955078 C-35.92239013 77.24064369 -37.42594552 80.19067826 -38.9296875 83.140625 C-39.38076874 84.02921204 -39.83184998 84.91779907 -40.29660034 85.83331299 C-42.74432927 90.63314068 -45.28398908 95.34645764 -48 100 C-46.02 100 -44.04 100 -42 100 C-42.33 100.99 -42.66 101.98 -43 103 C-47.04362487 104.8380113 -49.73449853 105.25455926 -54 104 C-55.31626692 100.38026598 -56 97.90432869 -56 94 C-53 95 -53 95 -51 98 C-50.71914551 97.4330542 -50.43829102 96.8661084 -50.14892578 96.28198242 C-48.80998301 93.5826412 -47.46747714 90.8850851 -46.125 88.1875 C-45.68414062 87.29740234 -45.24328125 86.40730469 -44.7890625 85.49023438 C-41.72421083 79.33924733 -38.56036489 73.24640553 -35.34765625 67.171875 C-31.58393495 60.05238992 -27.88786966 52.90130771 -24.23828125 45.72265625 C-23.75252625 44.76779831 -23.26677124 43.81294037 -22.76629639 42.82914734 C-20.7769367 38.9165279 -18.78905133 35.00317358 -16.80541992 31.08764648 C-6.05549785 9.87947366 -6.05549785 9.87947366 0 0 Z " fill="#000000" transform="translate(400,296)"/>
<path d="M0 0 C3.89081843 1.29693948 6.48181674 2.70699112 9 6 C9.13750569 10.12517067 5.63782584 13.16916252 3 16 C2.34 16 1.68 16 1 16 C1.50603992 13.83125748 1.99983813 12.00032373 3 10 C2.1342334 10.06058594 1.2684668 10.12117188 0.37646484 10.18359375 C-2.90731074 10.41105656 -6.19132817 10.63414262 -9.47558594 10.85449219 C-10.8835789 10.94980839 -12.2914628 11.0467528 -13.69921875 11.14550781 C-23.15462451 11.80738622 -32.51625724 12.13407215 -42 12 C-41.67 11.01 -41.34 10.02 -41 9 C-27.14 8.01 -13.28 7.02 1 6 C1 3.84365964 0.5534764 2.07553648 0 0 Z " fill="#000000" transform="translate(410,257)"/>
<path d="M0 0 C2.64 0 5.28 0 8 0 C8 0.66 8 1.32 8 2 C6.02 2 4.04 2 2 2 C2 2.99 2 3.98 2 5 C4.97 5.495 4.97 5.495 8 6 C8.33 8.31 8.66 10.62 9 13 C7.3125 14.5625 7.3125 14.5625 5 16 C2.25 15.6875 2.25 15.6875 0 15 C-0.33 13.68 -0.66 12.36 -1 11 C1.97 11.495 1.97 11.495 5 12 C5.33 10.68 5.66 9.36 6 8 C3.69 8 1.38 8 -1 8 C-0.67 5.36 -0.34 2.72 0 0 Z " fill="#000000" transform="translate(596,419)"/>
<path d="M0 0 C1.4540625 0.0309375 1.4540625 0.0309375 2.9375 0.0625 C5.0625 4.6875 5.0625 4.6875 3.9375 8.0625 C4.26300502 9.73071323 4.59596063 11.39749557 4.9375 13.0625 C4.6075 13.7225 4.2775 14.3825 3.9375 15.0625 C1.125 15.9375 1.125 15.9375 -2.0625 16.0625 C-4.4375 14.125 -4.4375 14.125 -6.0625 12.0625 C-2.43923261 10.8547442 -1.42103631 11.51938872 1.9375 13.0625 C1.9375 11.7425 1.9375 10.4225 1.9375 9.0625 C0.6175 9.0625 -0.7025 9.0625 -2.0625 9.0625 C-2.0625 8.0725 -2.0625 7.0825 -2.0625 6.0625 C-0.7425 6.0625 0.5775 6.0625 1.9375 6.0625 C1.6075 5.0725 1.2775 4.0825 0.9375 3.0625 C-1.0425 3.7225 -3.0225 4.3825 -5.0625 5.0625 C-3.9375 0.08035714 -3.9375 0.08035714 0 0 Z " fill="#000000" transform="translate(362.0625,332.9375)"/>
<path d="M0 0 C3.0625 0.1875 3.0625 0.1875 5.0625 2.1875 C4.90004442 5.92397845 4.47466356 7.71288742 2 10.5625 C1.360625 11.09875 0.72125 11.635 0.0625 12.1875 C1.7125 12.5175 3.3625 12.8475 5.0625 13.1875 C5.0625 13.8475 5.0625 14.5075 5.0625 15.1875 C1.7625 15.1875 -1.5375 15.1875 -4.9375 15.1875 C-2.9375 11.1875 -2.9375 11.1875 -0.8125 8.625 C1.36735538 6.30372611 1.36735538 6.30372611 1.0625 3.1875 C0.4025 3.1875 -0.2575 3.1875 -0.9375 3.1875 C-1.2675 3.8475 -1.5975 4.5075 -1.9375 5.1875 C-2.9275 5.1875 -3.9175 5.1875 -4.9375 5.1875 C-3.82120474 0.24390669 -3.82120474 0.24390669 0 0 Z " fill="#000000" transform="translate(838.9375,65.8125)"/>
<path d="M0 0 C0.99 0 1.98 0 3 0 C3 3.3 3 6.6 3 10 C3.66 10 4.32 10 5 10 C5 10.66 5 11.32 5 12 C4.34 12 3.68 12 3 12 C3 12.99 3 13.98 3 15 C2.34 15 1.68 15 1 15 C1 14.01 1 13.02 1 12 C-1.31 12 -3.62 12 -6 12 C-5.56629155 7.2292071 -3.35665609 3.36635741 0 0 Z M0 4 C-0.99 5.98 -1.98 7.96 -3 10 C-1.68 10 -0.36 10 1 10 C1 8.02 1 6.04 1 4 C0.67 4 0.34 4 0 4 Z " fill="#000000" transform="translate(78,724)"/>
<path d="M0 0 C0 4.95 0 9.9 0 15 C-0.99 15 -1.98 15 -3 15 C-3 11.37 -3 7.74 -3 4 C-3.99 4.33 -4.98 4.66 -6 5 C-5.625 3.0625 -5.625 3.0625 -5 1 C-3 0 -3 0 0 0 Z " fill="#000000" transform="translate(64,724)"/>
<path d="M0 0 C0 4.95 0 9.9 0 15 C-0.99 15 -1.98 15 -3 15 C-3 11.37 -3 7.74 -3 4 C-3.99 4.33 -4.98 4.66 -6 5 C-5.625 3.0625 -5.625 3.0625 -5 1 C-3 0 -3 0 0 0 Z " fill="#000000" transform="translate(587,419)"/>
<path d="M0 0 C0 4.95 0 9.9 0 15 C-0.99 15 -1.98 15 -3 15 C-3 11.37 -3 7.74 -3 4 C-3.99 4.33 -4.98 4.66 -6 5 C-5.625 3.0625 -5.625 3.0625 -5 1 C-3 0 -3 0 0 0 Z " fill="#000000" transform="translate(349,333)"/>
<path d="M0 0 C0 4.95 0 9.9 0 15 C-0.99 15 -1.98 15 -3 15 C-3 11.37 -3 7.74 -3 4 C-3.99 4.33 -4.98 4.66 -6 5 C-5.625 3.0625 -5.625 3.0625 -5 1 C-3 0 -3 0 0 0 Z " fill="#000000" transform="translate(375,277)"/>
<path d="M0 0 C0 4.95 0 9.9 0 15 C-0.99 15 -1.98 15 -3 15 C-3 11.37 -3 7.74 -3 4 C-3.99 4.33 -4.98 4.66 -6 5 C-5.625 3.0625 -5.625 3.0625 -5 1 C-3 0 -3 0 0 0 Z " fill="#000000" transform="translate(826,66)"/>
<path d="M0 0 C0 4.95 0 9.9 0 15 C-0.66 15 -1.32 15 -2 15 C-2.33 11.37 -2.66 7.74 -3 4 C-3.99 4.33 -4.98 4.66 -6 5 C-6 4.01 -6 3.02 -6 2 C-3 0 -3 0 0 0 Z " fill="#000000" transform="translate(387,277)"/>
<path d="M0 0 C3.96 0 7.92 0 12 0 C12 0.99 12 1.98 12 3 C8.04 3 4.08 3 0 3 C0 2.01 0 1.02 0 0 Z " fill="#000000" transform="translate(536,218)"/>
<path d="M0 0 C0.99 0.33 1.98 0.66 3 1 C1.44396229 4.81936528 -0.95604931 7.26044438 -4 10 C-4.66 10 -5.32 10 -6 10 C-5.49477778 5.62140745 -2.82172778 3.18348776 0 0 Z " fill="#000000" transform="translate(589,94)"/>
<path d="M0 0 C0 0.99 0 1.98 0 3 C-3.9813783 4.3271261 -7.85045227 4.06915913 -12 4 C-12 3.01 -12 2.02 -12 1 C-7.915021 0.45533613 -4.1274515 0 0 0 Z " fill="#000000" transform="translate(667,61)"/>
<path d="M0 0 C0.99 0.33 1.98 0.66 3 1 C1.8905928 4.48670834 0.73662334 7.77484237 -1 11 C-1.99 10.67 -2.98 10.34 -4 10 C-2.8905928 6.51329166 -1.73662334 3.22515763 0 0 Z " fill="#000000" transform="translate(423,438)"/>
<path d="M0 0 C0.66 0.33 1.32 0.66 2 1 C0.66511872 4.59391114 -0.96022723 7.75490696 -3 11 C-3.99 10.67 -4.98 10.34 -6 10 C-4.6302836 6.00499382 -2.74277578 3.19990508 0 0 Z " fill="#000000" transform="translate(576,110)"/>
<path d="M0 0 C0 0.99 0 1.98 0 3 C-1.26418246 3.69965443 -2.53665402 4.38434763 -3.8125 5.0625 C-4.52019531 5.44535156 -5.22789062 5.82820313 -5.95703125 6.22265625 C-8 7 -8 7 -11 6 C-11 5.34 -11 4.68 -11 4 C-9.5437455 3.32880451 -8.08492133 2.66318193 -6.625 2 C-5.81289063 1.62875 -5.00078125 1.2575 -4.1640625 0.875 C-2 0 -2 0 0 0 Z " fill="#000000" transform="translate(626,71)"/>
<path d="M0 0 C-0.125 1.8125 -0.125 1.8125 -1 4 C-4.20883825 5.95320589 -6.2205439 7 -10 7 C-10 6.01 -10 5.02 -10 4 C-8.71086513 3.32845067 -7.41859796 2.66291141 -6.125 2 C-5.40570313 1.62875 -4.68640625 1.2575 -3.9453125 0.875 C-2 0 -2 0 0 0 Z " fill="#000000" transform="translate(262,661)"/>
<path d="M0 0 C3.48670834 1.1094072 6.77484237 2.26337666 10 4 C9.67 4.99 9.34 5.98 9 7 C4.05 5.02 4.05 5.02 -1 3 C-0.67 2.01 -0.34 1.02 0 0 Z " fill="#000000" transform="translate(116,654)"/>
<path d="M0 0 C0.99 0.33 1.98 0.66 3 1 C1.65117186 5.04648443 -0.34826069 5.95502599 -4 8 C-4.99 7.67 -5.98 7.34 -7 7 C-4.66666667 4.66666667 -2.33333333 2.33333333 0 0 Z " fill="#000000" transform="translate(276,650)"/>
<path d="M0 0 C0.66 0.33 1.32 0.66 2 1 C0.50958227 4.79379058 -1.69062512 6.68343758 -5 9 C-5.66 9 -6.32 9 -7 9 C-6.82374165 6.62051228 -6.30280227 5.29774151 -4.59765625 3.62109375 C-3.09350908 2.37884514 -1.54870149 1.18623944 0 0 Z " fill="#000000" transform="translate(292,637)"/>
<path d="M0 0 C0.99 0 1.98 0 3 0 C3.67154933 1.28913487 4.33708859 2.58140204 5 3.875 C5.37125 4.59429688 5.7425 5.31359375 6.125 6.0546875 C7 8 7 8 7 10 C5.1875 9.875 5.1875 9.875 3 9 C1.04679411 5.79116175 0 3.7794561 0 0 Z " fill="#000000" transform="translate(72,614)"/>
<path d="M0 0 C0.99 0.66 1.98 1.32 3 2 C1.02 4.64 -0.96 7.28 -3 10 C-3.99 9.67 -4.98 9.34 -6 9 C-4.16172132 5.84866512 -2.24027294 2.88035092 0 0 Z " fill="#000000" transform="translate(331,592)"/>
<path d="M0 0 C0.99 0.33 1.98 0.66 3 1 C1.35 4.3 -0.3 7.6 -2 11 C-2.66 10.67 -3.32 10.34 -4 10 C-3.43454163 6.04179141 -2.19097652 3.3340947 0 0 Z " fill="#000000" transform="translate(414,456)"/>
<path d="M0 0 C0.99 0.33 1.98 0.66 3 1 C1.8905928 4.48670834 0.73662334 7.77484237 -1 11 C-1.99 10.67 -2.98 10.34 -4 10 C-2.8905928 6.51329166 -1.73662334 3.22515763 0 0 Z " fill="#000000" transform="translate(432,420)"/>
<path d="M0 0 C0.33 1.32 0.66 2.64 1 4 C-3.12168689 5.62950412 -5.70700357 6.26264601 -10 5 C-9 3 -9 3 -6.93359375 2.1484375 C-5.69802734 1.76558594 -5.69802734 1.76558594 -4.4375 1.375 C-3.61121094 1.11460937 -2.78492188 0.85421875 -1.93359375 0.5859375 C-1.29550781 0.39257812 -0.65742187 0.19921875 0 0 Z " fill="#000000" transform="translate(688,201)"/>
<path d="M0 0 C0.66 0.33 1.32 0.66 2 1 C1 4 1 4 -1.8125 5.75 C-4.96403086 6.98589446 -5.96929372 7.28222189 -9 6 C-6.45368965 3.02930459 -3.57769851 1.5224249 0 0 Z " fill="#000000" transform="translate(706,193)"/>
<path d="M0 0 C0 0.66 0 1.32 0 2 C-6.4 6.06153846 -6.4 6.06153846 -9.4375 5.75 C-9.953125 5.5025 -10.46875 5.255 -11 5 C-4.83050847 -1.61016949 -4.83050847 -1.61016949 0 0 Z " fill="#000000" transform="translate(726,184)"/>
<path d="M0 0 C0.99 0.33 1.98 0.66 3 1 C3 1.66 3 2.32 3 3 C1.57421875 4.2890625 1.57421875 4.2890625 -0.3125 5.625 C-0.92738281 6.07101563 -1.54226563 6.51703125 -2.17578125 6.9765625 C-4 8 -4 8 -7 8 C-5.51218185 4.21282653 -3.38011591 2.22592999 0 0 Z " fill="#000000" transform="translate(605,81)"/>
<path d="M0 0 C4.05606165 0.46800711 7.46588679 0.87953208 11 3 C10.67 3.66 10.34 4.32 10 5 C6.53058454 4.54177532 3.32604951 4.10868317 0 3 C0 2.01 0 1.02 0 0 Z " fill="#000000" transform="translate(134,662)"/>
<path d="M0 0 C3.59391114 1.33488128 6.75490696 2.96022723 10 5 C9.67 5.99 9.34 6.98 9 8 C7.67968405 7.43457996 6.3688699 6.84693528 5.0625 6.25 C3.96615234 5.76273438 3.96615234 5.76273438 2.84765625 5.265625 C1 4 1 4 0.24609375 1.859375 C0.16488281 1.24578125 0.08367187 0.6321875 0 0 Z " fill="#000000" transform="translate(98,644)"/>
<path d="M0 0 C0.99 0 1.98 0 3 0 C1.66511872 3.59391114 0.03977277 6.75490696 -2 10 C-2.99 9.67 -3.98 9.34 -5 9 C-3.35 6.03 -1.7 3.06 0 0 Z " fill="#000000" transform="translate(375,526)"/>
<path d="M0 0 C3.63 0 7.26 0 11 0 C11 0.99 11 1.98 11 3 C7.37 3 3.74 3 0 3 C0 2.01 0 1.02 0 0 Z " fill="#000000" transform="translate(709,513)"/>
<path d="M0 0 C3.63 0 7.26 0 11 0 C11 0.99 11 1.98 11 3 C7.37 3 3.74 3 0 3 C0 2.01 0 1.02 0 0 Z " fill="#000000" transform="translate(689,513)"/>
<path d="M0 0 C3.63 0 7.26 0 11 0 C11 0.99 11 1.98 11 3 C7.37 3 3.74 3 0 3 C0 2.01 0 1.02 0 0 Z " fill="#000000" transform="translate(669,513)"/>
<path d="M0 0 C3.63 0 7.26 0 11 0 C11 0.99 11 1.98 11 3 C7.37 3 3.74 3 0 3 C0 2.01 0 1.02 0 0 Z " fill="#000000" transform="translate(649,513)"/>
<path d="M0 0 C3.63 0 7.26 0 11 0 C11 0.99 11 1.98 11 3 C7.37 3 3.74 3 0 3 C0 2.01 0 1.02 0 0 Z " fill="#000000" transform="translate(629,513)"/>
<path d="M0 0 C3.63 0 7.26 0 11 0 C11 0.99 11 1.98 11 3 C7.37 3 3.74 3 0 3 C0 2.01 0 1.02 0 0 Z " fill="#000000" transform="translate(609,513)"/>
<path d="M0 0 C3.63 0 7.26 0 11 0 C11 0.99 11 1.98 11 3 C7.37 3 3.74 3 0 3 C0 2.01 0 1.02 0 0 Z " fill="#000000" transform="translate(589,513)"/>
<path d="M0 0 C3.63 0 7.26 0 11 0 C11 0.99 11 1.98 11 3 C7.37 3 3.74 3 0 3 C0 2.01 0 1.02 0 0 Z " fill="#000000" transform="translate(569,513)"/>
<path d="M0 0 C3.63 0 7.26 0 11 0 C11 0.99 11 1.98 11 3 C7.37 3 3.74 3 0 3 C0 2.01 0 1.02 0 0 Z " fill="#000000" transform="translate(549,513)"/>
<path d="M0 0 C3.63 0 7.26 0 11 0 C11 0.99 11 1.98 11 3 C7.37 3 3.74 3 0 3 C0 2.01 0 1.02 0 0 Z " fill="#000000" transform="translate(529,513)"/>
<path d="M0 0 C3.63 0 7.26 0 11 0 C11 0.99 11 1.98 11 3 C7.37 3 3.74 3 0 3 C0 2.01 0 1.02 0 0 Z " fill="#000000" transform="translate(509,513)"/>
<path d="M0 0 C3.63 0 7.26 0 11 0 C11 0.99 11 1.98 11 3 C7.37 3 3.74 3 0 3 C0 2.01 0 1.02 0 0 Z " fill="#000000" transform="translate(489,513)"/>
<path d="M0 0 C3.63 0 7.26 0 11 0 C11 0.99 11 1.98 11 3 C7.37 3 3.74 3 0 3 C0 2.01 0 1.02 0 0 Z " fill="#000000" transform="translate(469,513)"/>
<path d="M0 0 C3.63 0 7.26 0 11 0 C11 0.99 11 1.98 11 3 C7.37 3 3.74 3 0 3 C0 2.01 0 1.02 0 0 Z " fill="#000000" transform="translate(449,513)"/>
<path d="M0 0 C3.63 0 7.26 0 11 0 C11 0.99 11 1.98 11 3 C7.37 3 3.74 3 0 3 C0 2.01 0 1.02 0 0 Z " fill="#000000" transform="translate(429,513)"/>
<path d="M0 0 C3.63 0 7.26 0 11 0 C11 0.99 11 1.98 11 3 C7.37 3 3.74 3 0 3 C0 2.01 0 1.02 0 0 Z " fill="#000000" transform="translate(409,513)"/>
<path d="M0 0 C3.63 0 7.26 0 11 0 C11 0.99 11 1.98 11 3 C7.37 3 3.74 3 0 3 C0 2.01 0 1.02 0 0 Z " fill="#000000" transform="translate(389,513)"/>
<path d="M0 0 C3.63 0 7.26 0 11 0 C11 0.99 11 1.98 11 3 C7.37 3 3.74 3 0 3 C0 2.01 0 1.02 0 0 Z " fill="#000000" transform="translate(369,513)"/>
<path d="M0 0 C3.63 0 7.26 0 11 0 C11 0.99 11 1.98 11 3 C7.37 3 3.74 3 0 3 C0 2.01 0 1.02 0 0 Z " fill="#000000" transform="translate(349,513)"/>
<path d="M0 0 C3.63 0 7.26 0 11 0 C11 0.99 11 1.98 11 3 C7.37 3 3.74 3 0 3 C0 2.01 0 1.02 0 0 Z " fill="#000000" transform="translate(329,513)"/>
<path d="M0 0 C3.63 0 7.26 0 11 0 C11 0.99 11 1.98 11 3 C7.37 3 3.74 3 0 3 C0 2.01 0 1.02 0 0 Z " fill="#000000" transform="translate(309,513)"/>
<path d="M0 0 C3.63 0 7.26 0 11 0 C11 0.99 11 1.98 11 3 C7.37 3 3.74 3 0 3 C0 2.01 0 1.02 0 0 Z " fill="#000000" transform="translate(289,513)"/>
<path d="M0 0 C3.63 0 7.26 0 11 0 C11 0.99 11 1.98 11 3 C7.37 3 3.74 3 0 3 C0 2.01 0 1.02 0 0 Z " fill="#000000" transform="translate(269,513)"/>
<path d="M0 0 C3.63 0 7.26 0 11 0 C11 0.99 11 1.98 11 3 C7.37 3 3.74 3 0 3 C0 2.01 0 1.02 0 0 Z " fill="#000000" transform="translate(249,513)"/>
<path d="M0 0 C3.63 0 7.26 0 11 0 C11 0.99 11 1.98 11 3 C7.37 3 3.74 3 0 3 C0 2.01 0 1.02 0 0 Z " fill="#000000" transform="translate(229,513)"/>
<path d="M0 0 C3.63 0 7.26 0 11 0 C11 0.99 11 1.98 11 3 C7.37 3 3.74 3 0 3 C0 2.01 0 1.02 0 0 Z " fill="#000000" transform="translate(209,513)"/>
<path d="M0 0 C3.63 0 7.26 0 11 0 C11 0.99 11 1.98 11 3 C7.37 3 3.74 3 0 3 C0 2.01 0 1.02 0 0 Z " fill="#000000" transform="translate(189,513)"/>
<path d="M0 0 C0.99 0.33 1.98 0.66 3 1 C1.68 3.97 0.36 6.94 -1 10 C-2.32 9.67 -3.64 9.34 -5 9 C-3.35 6.03 -1.7 3.06 0 0 Z " fill="#000000" transform="translate(395,491)"/>
<path d="M0 0 C0.99 0 1.98 0 3 0 C1.8905928 3.48670834 0.73662334 6.77484237 -1 10 C-1.99 9.67 -2.98 9.34 -4 9 C-2.94124926 5.59687262 -1.99097846 2.98646769 0 0 Z " fill="#000000" transform="translate(441,403)"/>
<path d="M0 0 C0.99 0.33 1.98 0.66 3 1 C1.8905928 4.48670834 0.73662334 7.77484237 -1 11 C-1.99 10.67 -2.98 10.34 -4 10 C-2.68 6.7 -1.36 3.4 0 0 Z " fill="#000000" transform="translate(475,330)"/>
<path d="M0 0 C0.99 0.33 1.98 0.66 3 1 C1.68 4.3 0.36 7.6 -1 11 C-1.99 10.67 -2.98 10.34 -4 10 C-2.8905928 6.51329166 -1.73662334 3.22515763 0 0 Z " fill="#000000" transform="translate(516,239)"/>
<path d="M0 0 C1.22589844 0.01353516 1.22589844 0.01353516 2.4765625 0.02734375 C3.41628906 0.04474609 3.41628906 0.04474609 4.375 0.0625 C4.705 1.0525 5.035 2.0425 5.375 3.0625 C1.415 3.0625 -2.545 3.0625 -6.625 3.0625 C-6.625 2.4025 -6.625 1.7425 -6.625 1.0625 C-4.21954362 -0.14022819 -2.67503047 -0.03821472 0 0 Z " fill="#000000" transform="translate(583.625,217.9375)"/>
<path d="M0 0 C3.63 0 7.26 0 11 0 C11 0.99 11 1.98 11 3 C7.37 3 3.74 3 0 3 C0 2.01 0 1.02 0 0 Z " fill="#000000" transform="translate(516,217)"/>
<path d="M0 0 C3.63 0.33 7.26 0.66 11 1 C11 1.99 11 2.98 11 4 C7.04 3.67 3.08 3.34 -1 3 C-0.67 2.01 -0.34 1.02 0 0 Z " fill="#000000" transform="translate(496,215)"/>
<path d="M0 0 C3.63 0.33 7.26 0.66 11 1 C11 1.99 11 2.98 11 4 C3.57142857 4.14285714 3.57142857 4.14285714 0 3 C0 2.01 0 1.02 0 0 Z " fill="#000000" transform="translate(475,213)"/>
<path d="M0 0 C-0.33 0.99 -0.66 1.98 -1 3 C-4.3 3.66 -7.6 4.32 -11 5 C-11 4.01 -11 3.02 -11 2 C-7.17679443 0.57741188 -4.08718695 -0.24042276 0 0 Z " fill="#000000" transform="translate(670,208)"/>
<path d="M0 0 C0.99 0.33 1.98 0.66 3 1 C1.68 4.3 0.36 7.6 -1 11 C-1.99 10.67 -2.98 10.34 -4 10 C-2.68 6.7 -1.36 3.4 0 0 Z " fill="#000000" transform="translate(540,184)"/>
<path d="M0 0 C0.99 0.66 1.98 1.32 3 2 C1.68 4.97 0.36 7.94 -1 11 C-1.99 11 -2.98 11 -4 11 C-3.52269162 9.5410574 -3.04308958 8.08286504 -2.5625 6.625 C-2.29566406 5.81289062 -2.02882813 5.00078125 -1.75390625 4.1640625 C-1 2 -1 2 0 0 Z " fill="#000000" transform="translate(556,147)"/>
<path d="M0 0 C-0.33 0.99 -0.66 1.98 -1 3 C-4.3 3.66 -7.6 4.32 -11 5 C-11 4.01 -11 3.02 -11 2 C-7.17679443 0.57741188 -4.08718695 -0.24042276 0 0 Z " fill="#000000" transform="translate(646,65)"/>
<path d="M0 0 C3.63 0.33 7.26 0.66 11 1 C11 1.99 11 2.98 11 4 C3.57142857 4.14285714 3.57142857 4.14285714 0 3 C0 2.01 0 1.02 0 0 Z " fill="#000000" transform="translate(173,671)"/>
<path d="M0 0 C0 0.66 0 1.32 0 2 C-3.82989106 3.80230168 -6.78121808 4.19622241 -11 4 C-10.67 3.01 -10.34 2.02 -10 1 C-8.22265625 0.234375 -8.22265625 0.234375 -6.0625 -0.25 C-5.35222656 -0.42015625 -4.64195312 -0.5903125 -3.91015625 -0.765625 C-2 -1 -2 -1 0 0 Z " fill="#000000" transform="translate(244,670)"/>
<path d="M0 0 C3.3 0.66 6.6 1.32 10 2 C10 2.99 10 3.98 10 5 C8.54119891 4.85892253 7.08296449 4.71197585 5.625 4.5625 C4.40683594 4.44068359 4.40683594 4.44068359 3.1640625 4.31640625 C1 4 1 4 -1 3 C-0.67 2.01 -0.34 1.02 0 0 Z " fill="#000000" transform="translate(154,667)"/>
<path d="M0 0 C0.99 0.33 1.98 0.66 3 1 C1.55746343 4.36591866 -0.33264727 6.51047079 -3 9 C-3.99 8.67 -4.98 8.34 -6 8 C-4.02 5.36 -2.04 2.72 0 0 Z " fill="#000000" transform="translate(305,623)"/>
<path d="M0 0 C0.99 0.33 1.98 0.66 3 1 C1.63029745 3.95012857 0.17390875 6.5652222 -2 9 C-2.99 9 -3.98 9 -5 9 C-4.42647107 5.12867972 -2.51295648 2.91827204 0 0 Z " fill="#000000" transform="translate(318,608)"/>
<path d="M0 0 C0.66 0.33 1.32 0.66 2 1 C0.7508258 4.45925163 -0.67527795 7.14693203 -3 10 C-3.99 9.67 -4.98 9.34 -6 9 C-2.25 2.25 -2.25 2.25 0 0 Z " fill="#000000" transform="translate(343,576)"/>
<path d="M0 0 C0.99 0.33 1.98 0.66 3 1 C1.02 3.97 -0.96 6.94 -3 10 C-3.66 9.67 -4.32 9.34 -5 9 C-3.7508258 5.54074837 -2.32472205 2.85306797 0 0 Z " fill="#000000" transform="translate(354,560)"/>
<path d="M0 0 C0.99 0.33 1.98 0.66 3 1 C1.80100302 4.0831351 0.52299523 7.06279492 -1 10 C-1.99 10 -2.98 10 -4 10 C-2.8905928 6.51329166 -1.73662334 3.22515763 0 0 Z " fill="#000000" transform="translate(78,558)"/>
<path d="M0 0 C0 0.99 0 1.98 0 3 C-6.625 6 -6.625 6 -10 6 C-10 5.01 -10 4.02 -10 3 C-3.375 0 -3.375 0 0 0 Z " fill="#000000" transform="translate(125,524)"/>
<path d="M0 0 C-0.33 1.32 -0.66 2.64 -1 4 C-3.97 4.66 -6.94 5.32 -10 6 C-9.67 4.68 -9.34 3.36 -9 2 C-2.25 0 -2.25 0 0 0 Z " fill="#000000" transform="translate(143,518)"/>
<path d="M0 0 C0 0.99 0 1.98 0 3 C-3.3 3.33 -6.6 3.66 -10 4 C-10.33 3.01 -10.66 2.02 -11 1 C-7.27569643 0.30710631 -3.78916254 -0.11144596 0 0 Z " fill="#000000" transform="translate(162,515)"/>
<path d="M0 0 C0.99 0 1.98 0 3 0 C1.79157144 4.43090471 0.48331435 6.98112756 -3 10 C-3.75 8.375 -3.75 8.375 -4 6 C-2.25 2.75 -2.25 2.75 0 0 Z " fill="#000000" transform="translate(385,509)"/>
<path d="M0 0 C0.99 0 1.98 0 3 0 C2.43454163 3.95820859 1.19097652 6.6659053 -1 10 C-1.99 9.67 -2.98 9.34 -4 9 C-2.68 6.03 -1.36 3.06 0 0 Z " fill="#000000" transform="translate(404,474)"/>
<path d="M0 0 C0.99 0.33 1.98 0.66 3 1 C1.68 3.97 0.36 6.94 -1 10 C-1.99 10 -2.98 10 -4 10 C-3.52449439 8.51965236 -3.04448784 7.04074979 -2.5625 5.5625 C-2.29566406 4.73878906 -2.02882813 3.91507812 -1.75390625 3.06640625 C-1 1 -1 1 0 0 Z " fill="#000000" transform="translate(500,276)"/>
<path d="M0 0 C0.99 0.66 1.98 1.32 3 2 C1.68 4.97 0.36 7.94 -1 11 C-1.99 10.67 -2.98 10.34 -4 10 C-2.68 6.7 -1.36 3.4 0 0 Z " fill="#000000" transform="translate(508,257)"/>
<path d="M0 0 C0.99 0 1.98 0 3 0 C2.60404157 1.48484412 2.18249294 2.9628831 1.75 4.4375 C1.51796875 5.26121094 1.2859375 6.08492187 1.046875 6.93359375 C0 9 0 9 -2.109375 9.78515625 C-2.73328125 9.85605469 -3.3571875 9.92695313 -4 10 C-3.52449439 8.51965236 -3.04448784 7.04074979 -2.5625 5.5625 C-2.29566406 4.73878906 -2.02882813 3.91507813 -1.75390625 3.06640625 C-1 1 -1 1 0 0 Z " fill="#000000" transform="translate(524,221)"/>
<path d="M0 0 C0 0.99 0 1.98 0 3 C-3.67410785 4.17571451 -7.16929183 4.07366746 -11 4 C-11 3.01 -11 2.02 -11 1 C-3.375 0 -3.375 0 0 0 Z " fill="#000000" transform="translate(629,215)"/>
<path d="M0 0 C0 0.66 0 1.32 0 2 C-3.63 2.66 -7.26 3.32 -11 4 C-10.67 2.68 -10.34 1.36 -10 0 C-6.33694766 -0.74926071 -3.57644848 -1.2380014 0 0 Z " fill="#000000" transform="translate(650,213)"/>
<path d="M0 0 C3.63 0.33 7.26 0.66 11 1 C11 1.99 11 2.98 11 4 C7.37 3.67 3.74 3.34 0 3 C0 2.01 0 1.02 0 0 Z " fill="#000000" transform="translate(455,211)"/>
<path d="M0 0 C0.99 0 1.98 0 3 0 C1.8905928 3.48670834 0.73662334 6.77484237 -1 10 C-1.99 10 -2.98 10 -4 10 C-3.52449439 8.51965236 -3.04448784 7.04074979 -2.5625 5.5625 C-2.29566406 4.73878906 -2.02882813 3.91507813 -1.75390625 3.06640625 C-1 1 -1 1 0 0 Z " fill="#000000" transform="translate(532,203)"/>
<path d="M0 0 C0.99 0.33 1.98 0.66 3 1 C1.68 4.3 0.36 7.6 -1 11 C-1.99 10.67 -2.98 10.34 -4 10 C-2.8905928 6.51329166 -1.73662334 3.22515763 0 0 Z " fill="#000000" transform="translate(548,166)"/>
<path d="M0 0 C0.99 0.33 1.98 0.66 3 1 C1.68 3.97 0.36 6.94 -1 10 C-1.99 10 -2.98 10 -4 10 C-3.52449439 8.51965236 -3.04448784 7.04074979 -2.5625 5.5625 C-2.29566406 4.73878906 -2.02882813 3.91507813 -1.75390625 3.06640625 C-1 1 -1 1 0 0 Z " fill="#000000" transform="translate(747,154)"/>
<path d="M0 0 C0.99 0 1.98 0 3 0 C2.67 3.63 2.34 7.26 2 11 C1.01 11 0.02 11 -1 11 C-0.67 7.37 -0.34 3.74 0 0 Z " fill="#000000" transform="translate(750,135)"/>
<path d="M0 0 C2.86632997 1.05098766 3.83006643 1.66862954 5.25 4.4375 C6 7 6 7 6 10 C5.01 10 4.02 10 3 10 C1.68 7.03 0.36 4.06 -1 1 C-0.67 0.67 -0.34 0.34 0 0 Z " fill="#000000" transform="translate(741,98)"/>
<path d="M0 0 C0 0.99 0 1.98 0 3 C-3.63 3.33 -7.26 3.66 -11 4 C-11 3.01 -11 2.02 -11 1 C-7.26562152 0.12132271 -3.83225427 -0.08912219 0 0 Z " fill="#000000" transform="translate(224,673)"/>
<path d="M0 0 C3.63 0.33 7.26 0.66 11 1 C11 1.99 11 2.98 11 4 C7.37 3.67 3.74 3.34 0 3 C0 2.01 0 1.02 0 0 Z " fill="#000000" transform="translate(193,673)"/>
<path d="M0 0 C4.2742558 1.5830577 6.26531794 4.50568404 9 8 C5 8 5 8 2.25 5.6875 C0 3 0 3 0 0 Z " fill="#000000" transform="translate(83,631)"/>
<path d="M0 0 C0.99 0 1.98 0 3 0 C3.33 3.3 3.66 6.6 4 10 C3.01 10.33 2.02 10.66 1 11 C0.67 7.37 0.34 3.74 0 0 Z " fill="#000000" transform="translate(68,595)"/>
<path d="M0 0 C0.99 0 1.98 0 3 0 C2.34 3.3 1.68 6.6 1 10 C0.01 10 -0.98 10 -2 10 C-1.85950482 8.52031676 -1.71245174 7.04125484 -1.5625 5.5625 C-1.48128906 4.73878906 -1.40007812 3.91507813 -1.31640625 3.06640625 C-1 1 -1 1 0 0 Z " fill="#000000" transform="translate(71,576)"/>
<path d="M0 0 C0.66 0 1.32 0 2 0 C1.58578031 4.83256305 -0.46413986 6.82679218 -4 10 C-4.33 9.01 -4.66 8.02 -5 7 C-4.07421875 5.17578125 -4.07421875 5.17578125 -2.6875 3.3125 C-2.23761719 2.68988281 -1.78773438 2.06726563 -1.32421875 1.42578125 C-0.88722656 0.95527344 -0.45023437 0.48476563 0 0 Z " fill="#000000" transform="translate(365,543)"/>
<path d="M0 0 C0.99 0.33 1.98 0.66 3 1 C3 1.66 3 2.32 3 3 C-2.14209827 7.09030544 -2.14209827 7.09030544 -5.375 6.75 C-5.91125 6.5025 -6.4475 6.255 -7 6 C-4.74259377 3.66475218 -2.7194239 1.81294927 0 0 Z " fill="#000000" transform="translate(105,532)"/>
<path d="M0 0 C0.99 0 1.98 0 3 0 C2.01 2.97 1.02 5.94 0 9 C-1.32 9 -2.64 9 -4 9 C-2.68 6.03 -1.36 3.06 0 0 Z " fill="#000000" transform="translate(458,367)"/>
<path d="M0 0 C0.99 0.66 1.98 1.32 3 2 C1.68 4.97 0.36 7.94 -1 11 C-1.99 10.67 -2.98 10.34 -4 10 C-2.8905928 6.51329166 -1.73662334 3.22515763 0 0 Z " fill="#000000" transform="translate(467,348)"/>
<path d="M0 0 C0.99 0.33 1.98 0.66 3 1 C2.01 3.97 1.02 6.94 0 10 C-0.99 10 -1.98 10 -3 10 C-2.39009109 6.44219804 -1.4216319 3.3171411 0 0 Z " fill="#000000" transform="translate(483,312)"/>
<path d="M0 0 C0.66 0 1.32 0 2 0 C1.49287967 3.71888239 0.88391785 6.73454239 -1 10 C-1.99 10 -2.98 10 -4 10 C-3.43697042 6.05879291 -2.3208055 3.2491277 0 0 Z " fill="#000000" transform="translate(492,294)"/>
<path d="M0 0 C0 0.99 0 1.98 0 3 C-3.63 3.33 -7.26 3.66 -11 4 C-11 3.01 -11 2.02 -11 1 C-7.27569643 0.30710631 -3.78916254 -0.11144596 0 0 Z " fill="#000000" transform="translate(609,217)"/>
<path d="M0 0 C-0.47202486 4.24822374 -2.96655518 6.19989709 -6 9 C-6.66 8.67 -7.32 8.34 -8 8 C-6.48291727 4.46014029 -4.24676932 0 0 0 Z " fill="#000000" transform="translate(740,171)"/>
<path d="M0 0 C0.66 0.33 1.32 0.66 2 1 C0.8905928 4.48670834 -0.26337666 7.77484237 -2 11 C-2.99 11 -3.98 11 -5 11 C-3.77472971 6.94718288 -2.30119506 3.55639236 0 0 Z " fill="#000000" transform="translate(565,128)"/>
<path d="M0 0 C1.17539996 0.92652701 2.34010577 1.86663387 3.5 2.8125 C4.1496875 3.33457031 4.799375 3.85664062 5.46875 4.39453125 C7 6 7 6 7 9 C3.85972637 8.66354211 2.94901705 7.94763914 0.6875 5.625 C0.130625 4.75875 -0.42625 3.8925 -1 3 C-0.67 2.01 -0.34 1.02 0 0 Z " fill="#000000" transform="translate(730,82)"/>
<path d="M0 0 C3.40312738 1.05875074 6.01353231 2.00902154 9 4 C9 4.99 9 5.98 9 7 C5.00544473 6.38545304 2.25533664 4.29353263 -1 2 C-0.67 1.34 -0.34 0.68 0 0 Z " fill="#000000" transform="translate(714,71)"/>
<path d="M0 0 C0.66 0.33 1.32 0.66 2 1 C0.55746343 4.36591866 -1.33264727 6.51047079 -4 9 C-4.99 8.67 -5.98 8.34 -7 8 C-6.02133662 6.85373678 -5.04205413 5.70800212 -4.0625 4.5625 C-3.51722656 3.92441406 -2.97195312 3.28632812 -2.41015625 2.62890625 C-1.63204305 1.73008851 -0.84063472 0.84063472 0 0 Z " fill="#000000" transform="translate(91,543)"/>
<path d="M0 0 C0 0.66 0 1.32 0 2 C-3.63 2.33 -7.26 2.66 -11 3 C-11 2.01 -11 1.02 -11 0 C-3.375 -1.125 -3.375 -1.125 0 0 Z " fill="#000000" transform="translate(181,514)"/>
<path d="M0 0 C0.99 0 1.98 0 3 0 C3.33 3.3 3.66 6.6 4 10 C3.01 10 2.02 10 1 10 C0.67 6.7 0.34 3.4 0 0 Z " fill="#000000" transform="translate(748,116)"/>
<path d="M0 0 C0.99 0.33 1.98 0.66 3 1 C0.525 5.455 0.525 5.455 -2 10 C-2.66 10 -3.32 10 -4 10 C-3.43454163 6.04179141 -2.19097652 3.3340947 0 0 Z " fill="#000000" transform="translate(450,385)"/>
<path d="M0 0 C3.46941546 0.45822468 6.67395049 0.89131683 10 2 C10 2.99 10 3.98 10 5 C8.51793505 4.745504 7.03931385 4.47088238 5.5625 4.1875 C4.73878906 4.03667969 3.91507813 3.88585937 3.06640625 3.73046875 C2.38449219 3.48941406 1.70257812 3.24835938 1 3 C0.67 2.01 0.34 1.02 0 0 Z " fill="#000000" transform="translate(696,64)"/>
<path d="M0 0 C3.63 0 7.26 0 11 0 C11 0.99 11 1.98 11 3 C7.37 2.67 3.74 2.34 0 2 C0 1.34 0 0.68 0 0 Z " fill="#000000" transform="translate(676,61)"/>
<path d="M0 0 C3.63 0 7.26 0 11 0 C11 0.66 11 1.32 11 2 C7.37 2 3.74 2 0 2 C0 1.34 0 0.68 0 0 Z " fill="#000000" transform="translate(557,219)"/>
<path d="M0 0 C1.98 0 3.96 0 6 0 C6 0.99 6 1.98 6 3 C4.02 3 2.04 3 0 3 C0 2.01 0 1.02 0 0 Z " fill="#000000" transform="translate(729,513)"/>
<path d="M0 0 C0.99 0.33 1.98 0.66 3 1 C2.67 1.99 2.34 2.98 2 4 C1.01 3.01 0.02 2.02 -1 1 C-0.67 0.67 -0.34 0.34 0 0 Z " fill="#000000" transform="translate(67,736)"/>
<path d="M0 0 C0.99 0.33 1.98 0.66 3 1 C2.67 1.99 2.34 2.98 2 4 C1.01 3.01 0.02 2.02 -1 1 C-0.67 0.67 -0.34 0.34 0 0 Z " fill="#000000" transform="translate(590,431)"/>
<path d="M0 0 C0.99 0.33 1.98 0.66 3 1 C2.67 1.99 2.34 2.98 2 4 C1.01 3.01 0.02 2.02 -1 1 C-0.67 0.67 -0.34 0.34 0 0 Z " fill="#000000" transform="translate(352,345)"/>
<path d="M0 0 C0.99 0.33 1.98 0.66 3 1 C2.67 1.99 2.34 2.98 2 4 C1.01 3.01 0.02 2.02 -1 1 C-0.67 0.67 -0.34 0.34 0 0 Z " fill="#000000" transform="translate(378,289)"/>
<path d="M0 0 C0.99 0.33 1.98 0.66 3 1 C2.67 1.99 2.34 2.98 2 4 C1.01 3.01 0.02 2.02 -1 1 C-0.67 0.67 -0.34 0.34 0 0 Z " fill="#000000" transform="translate(829,78)"/>
</svg>
