<svg width="640" height="752" viewBox="0 0 640 752" fill="none" xmlns="http://www.w3.org/2000/svg">
<path d="M379.619 4.45455V19H377.858V6.30114H377.773L374.222 8.65909V6.86932L377.858 4.45455H379.619ZM384.193 19.1136C383.843 19.1136 383.542 18.9882 383.291 18.7372C383.04 18.4863 382.915 18.1856 382.915 17.8352C382.915 17.4848 383.04 17.1842 383.291 16.9332C383.542 16.6823 383.843 16.5568 384.193 16.5568C384.544 16.5568 384.844 16.6823 385.095 16.9332C385.346 17.1842 385.472 17.4848 385.472 17.8352C385.472 18.0672 385.412 18.2803 385.294 18.4744C385.18 18.6686 385.027 18.8248 384.832 18.9432C384.643 19.0568 384.43 19.1136 384.193 19.1136ZM392.819 19.1989C391.881 19.1989 391.046 19.0379 390.312 18.7159C389.583 18.3939 389.003 17.9465 388.572 17.3736C388.146 16.7959 387.914 16.1259 387.876 15.3636H389.665C389.703 15.8324 389.864 16.2372 390.148 16.5781C390.433 16.9143 390.804 17.1747 391.263 17.3594C391.723 17.544 392.232 17.6364 392.79 17.6364C393.415 17.6364 393.969 17.5275 394.452 17.3097C394.935 17.0919 395.314 16.7888 395.589 16.4006C395.863 16.0123 396.001 15.5625 396.001 15.0511C396.001 14.5161 395.868 14.045 395.603 13.6378C395.338 13.2259 394.95 12.9039 394.438 12.6719C393.927 12.4399 393.302 12.3239 392.563 12.3239H391.398V10.7614H392.563C393.141 10.7614 393.647 10.6572 394.083 10.4489C394.523 10.2405 394.867 9.94697 395.113 9.56818C395.364 9.18939 395.489 8.74432 395.489 8.23295C395.489 7.74053 395.38 7.31203 395.163 6.94744C394.945 6.58286 394.637 6.29877 394.239 6.09517C393.846 5.89157 393.382 5.78977 392.847 5.78977C392.345 5.78977 391.872 5.8821 391.427 6.06676C390.987 6.24669 390.627 6.50947 390.347 6.85511C390.068 7.19602 389.916 7.60795 389.893 8.09091H388.188C388.217 7.3286 388.446 6.66098 388.877 6.08807C389.308 5.51042 389.871 5.06061 390.567 4.73864C391.268 4.41667 392.038 4.25568 392.876 4.25568C393.775 4.25568 394.547 4.43797 395.191 4.80256C395.835 5.1624 396.33 5.63826 396.675 6.23011C397.021 6.82197 397.194 7.46117 397.194 8.14773C397.194 8.96686 396.978 9.66525 396.548 10.2429C396.121 10.8205 395.541 11.2206 394.808 11.4432V11.5568C395.726 11.7083 396.443 12.099 396.96 12.7287C397.476 13.3537 397.734 14.1278 397.734 15.0511C397.734 15.8419 397.518 16.5521 397.087 17.1818C396.661 17.8068 396.079 18.2992 395.34 18.6591C394.602 19.0189 393.761 19.1989 392.819 19.1989Z" fill="black"/>
<path d="M442.619 567.455V582H440.858V569.301H440.773L437.222 571.659V569.869L440.858 567.455H442.619ZM447.193 582.114C446.843 582.114 446.542 581.988 446.291 581.737C446.04 581.486 445.915 581.186 445.915 580.835C445.915 580.485 446.04 580.184 446.291 579.933C446.542 579.682 446.843 579.557 447.193 579.557C447.544 579.557 447.844 579.682 448.095 579.933C448.346 580.184 448.472 580.485 448.472 580.835C448.472 581.067 448.412 581.28 448.294 581.474C448.18 581.669 448.027 581.825 447.832 581.943C447.643 582.057 447.43 582.114 447.193 582.114ZM451.11 579.017V577.568L457.502 567.455H458.553V569.699H457.843L453.013 577.341V577.455H461.621V579.017H451.11ZM457.957 582V578.577V577.902V567.455H459.633V582H457.957Z" fill="black"/>
<path d="M6.61932 645.455V660H4.85795V647.301H4.77273L1.22159 649.659V647.869L4.85795 645.455H6.61932ZM11.1932 660.114C10.8428 660.114 10.5421 659.988 10.2912 659.737C10.0402 659.486 9.91477 659.186 9.91477 658.835C9.91477 658.485 10.0402 658.184 10.2912 657.933C10.5421 657.682 10.8428 657.557 11.1932 657.557C11.5436 657.557 11.8442 657.682 12.0952 657.933C12.3461 658.184 12.4716 658.485 12.4716 658.835C12.4716 659.067 12.4124 659.28 12.294 659.474C12.1804 659.669 12.0265 659.825 11.8324 659.943C11.643 660.057 11.4299 660.114 11.1932 660.114ZM18.8263 645.455V660H17.065V647.301H16.9798L13.4286 649.659V647.869L17.065 645.455H18.8263Z" fill="black"/>
<path d="M231.619 462.455V477H229.858V464.301H229.773L226.222 466.659V464.869L229.858 462.455H231.619ZM236.193 477.114C235.843 477.114 235.542 476.988 235.291 476.737C235.04 476.486 234.915 476.186 234.915 475.835C234.915 475.485 235.04 475.184 235.291 474.933C235.542 474.682 235.843 474.557 236.193 474.557C236.544 474.557 236.844 474.682 237.095 474.933C237.346 475.184 237.472 475.485 237.472 475.835C237.472 476.067 237.412 476.28 237.294 476.474C237.18 476.669 237.027 476.825 236.832 476.943C236.643 477.057 236.43 477.114 236.193 477.114ZM240.451 477V475.722L245.252 470.466C245.816 469.85 246.28 469.315 246.644 468.861C247.009 468.402 247.279 467.971 247.454 467.568C247.634 467.161 247.724 466.735 247.724 466.29C247.724 465.778 247.601 465.336 247.354 464.962C247.113 464.588 246.781 464.299 246.36 464.095C245.939 463.892 245.465 463.79 244.94 463.79C244.381 463.79 243.893 463.906 243.477 464.138C243.065 464.365 242.745 464.685 242.518 465.097C242.295 465.509 242.184 465.991 242.184 466.545H240.508C240.508 465.693 240.704 464.945 241.097 464.301C241.49 463.657 242.025 463.155 242.702 462.795C243.384 462.436 244.149 462.256 244.996 462.256C245.849 462.256 246.604 462.436 247.262 462.795C247.92 463.155 248.436 463.641 248.81 464.251C249.184 464.862 249.371 465.542 249.371 466.29C249.371 466.825 249.274 467.348 249.08 467.859C248.891 468.366 248.559 468.932 248.086 469.557C247.617 470.177 246.966 470.935 246.133 471.83L242.866 475.324V475.438H249.627V477H240.451Z" fill="black"/>
<path d="M168.619 476.455V491H166.858V478.301H166.773L163.222 480.659V478.869L166.858 476.455H168.619ZM173.193 491.114C172.843 491.114 172.542 490.988 172.291 490.737C172.04 490.486 171.915 490.186 171.915 489.835C171.915 489.485 172.04 489.184 172.291 488.933C172.542 488.682 172.843 488.557 173.193 488.557C173.544 488.557 173.844 488.682 174.095 488.933C174.346 489.184 174.472 489.485 174.472 489.835C174.472 490.067 174.412 490.28 174.294 490.474C174.18 490.669 174.027 490.825 173.832 490.943C173.643 491.057 173.43 491.114 173.193 491.114ZM181.703 491.199C180.87 491.199 180.12 491.033 179.452 490.702C178.784 490.37 178.249 489.916 177.847 489.338C177.444 488.76 177.224 488.102 177.186 487.364H178.891C178.957 488.022 179.256 488.566 179.786 488.997C180.321 489.423 180.96 489.636 181.703 489.636C182.3 489.636 182.83 489.497 183.294 489.217C183.763 488.938 184.13 488.554 184.395 488.067C184.665 487.574 184.8 487.018 184.8 486.398C184.8 485.763 184.66 485.197 184.381 484.7C184.106 484.198 183.728 483.803 183.245 483.514C182.762 483.225 182.21 483.079 181.59 483.074C181.145 483.069 180.688 483.138 180.219 483.28C179.75 483.417 179.364 483.595 179.061 483.812L177.414 483.614L178.294 476.455H185.851V478.017H179.772L179.26 482.307H179.346C179.644 482.07 180.018 481.874 180.468 481.717C180.917 481.561 181.386 481.483 181.874 481.483C182.764 481.483 183.557 481.696 184.253 482.122C184.954 482.544 185.503 483.121 185.901 483.855C186.303 484.589 186.505 485.427 186.505 486.369C186.505 487.297 186.296 488.126 185.88 488.855C185.468 489.58 184.9 490.152 184.175 490.574C183.451 490.991 182.627 491.199 181.703 491.199Z" fill="black"/>
<path d="M308.929 413.631C308.725 413.118 308.144 412.867 307.631 413.071L299.267 416.393C298.753 416.597 298.502 417.178 298.706 417.692C298.91 418.205 299.492 418.456 300.005 418.252L307.44 415.299L310.393 422.733C310.597 423.247 311.178 423.498 311.691 423.294C312.205 423.09 312.456 422.508 312.252 421.995L308.929 413.631ZM195.583 540.813C197.914 539.14 219.815 522.413 244.334 498.691C268.834 474.989 296.061 444.197 308.918 414.396L307.082 413.604C294.391 443.02 267.411 473.583 242.944 497.254C218.497 520.906 196.671 537.57 194.417 539.187L195.583 540.813Z" fill="black"/>
<path d="M395.644 620.983C395.359 621.455 395.51 622.07 395.983 622.356L403.685 627.012C404.157 627.298 404.772 627.146 405.058 626.674C405.343 626.201 405.192 625.586 404.719 625.301L397.873 621.162L402.012 614.315C402.298 613.843 402.146 613.228 401.674 612.942C401.201 612.657 400.586 612.808 400.301 613.281L395.644 620.983ZM475 530.5C475 533.273 475.418 536.373 475.923 539.668C476.431 542.986 477.028 546.514 477.42 550.237C478.201 557.668 478.142 565.75 474.883 573.943C468.382 590.287 448.928 607.549 396.261 620.529L396.739 622.471C449.572 609.451 469.868 591.963 476.742 574.682C480.17 566.063 480.206 557.613 479.409 550.028C479.011 546.244 478.401 542.643 477.9 539.365C477.394 536.065 477 533.102 477 530.5H475Z" fill="black"/>
<path d="M188.857 450.014C189.142 449.541 188.988 448.927 188.514 448.643L180.797 444.012C180.323 443.728 179.709 443.881 179.425 444.355C179.141 444.829 179.294 445.443 179.768 445.727L186.628 449.843L182.512 456.703C182.228 457.177 182.381 457.791 182.855 458.075C183.329 458.359 183.943 458.206 184.227 457.732L188.857 450.014ZM160.898 517.061C149.283 493.332 149.461 478.504 155.596 468.784C161.782 458.982 174.247 453.969 188.242 450.47L187.757 448.53C173.753 452.031 160.551 457.185 153.904 467.716C147.206 478.329 147.384 494.002 159.102 517.94L160.898 517.061Z" fill="black"/>
<path d="M199.798 156.827C200.53 157.215 201.438 156.936 201.826 156.203L208.147 144.275C208.535 143.543 208.256 142.635 207.524 142.247C206.792 141.859 205.884 142.138 205.496 142.87L199.878 153.473L189.274 147.855C188.542 147.467 187.634 147.746 187.246 148.478C186.859 149.21 187.138 150.118 187.87 150.506L199.798 156.827ZM547.996 175.377C543.084 116.308 516.809 78.879 480.537 57.7358C444.345 36.6393 398.384 31.8613 354.181 37.6378C309.972 43.4152 267.322 59.774 237.654 81.1904C208.093 102.53 190.891 129.337 199.067 155.942L201.935 155.061C194.361 130.414 210.096 104.784 239.41 83.6228C268.617 62.5389 310.78 46.3351 354.57 40.6125C398.367 34.8891 443.594 39.6738 479.026 60.3276C514.379 80.9348 540.168 117.444 545.006 175.625L547.996 175.377Z" fill="black"/>
<path d="M48.6499 678.941L87.6499 652.542C64.8165 627.876 18.7498 569.665 17.1498 534.147C15.1498 489.749 2.14983 450.95 49.1498 385.753C86.7498 333.595 172.15 333.888 210.15 340.555C231.316 344.021 271.85 360.154 264.65 396.952C257.45 433.751 208.983 429.085 185.65 422.151C162.65 416.152 117.05 419.912 118.65 482.949C120.25 545.986 152.316 581.212 168.15 590.944C266.55 534.627 341.816 416.552 367.15 364.554C358.65 360.021 328.25 336.155 274.65 276.957C221.05 217.76 236.65 154.429 251.15 130.164C292.35 56.8866 383.316 64.4329 423.65 77.3657C495.65 114.164 511.15 145.363 516.15 198.961C521.15 252.558 491.65 342.155 493.65 344.155C495.65 346.155 597.15 434.551 620.65 482.949C644.15 531.347 640.65 562.546 620.65 621.743C604.65 669.101 538.317 708.673 507.15 722.539C476.483 736.272 392.95 759.818 304.15 744.138C215.35 728.459 179.483 712.273 172.65 706.14L119.15 740.538C102.983 747.338 65.7499 754.858 46.1499 730.539C26.5499 706.22 39.6499 686.007 48.6499 678.941Z" stroke="black" stroke-width="5"/>
<path d="M52.9762 649.217C53.096 648.678 52.7561 648.144 52.2169 648.024L43.4312 646.071C42.8921 645.952 42.3579 646.292 42.2381 646.831C42.1183 647.37 42.4583 647.904 42.9974 648.024L50.8069 649.759L49.0714 657.569C48.9516 658.108 49.2916 658.642 49.8307 658.762C50.3698 658.882 50.904 658.542 51.0238 658.003L52.9762 649.217ZM8.53688 677.844L52.5369 649.844L51.4631 648.156L7.46312 676.156L8.53688 677.844Z" fill="black"/>
<path d="M85.501 702.997C147.168 673.331 287.201 583.298 354.001 460.498C391.668 402.831 458.54 282.572 469.001 235.498C483 172.5 441 86.2999 343.501 106C294 127 221.5 188.5 343.501 296.497L454 369.497L506.5 414L570.5 476.997C624.5 565 597.101 716.998 315.501 702.997C238.834 696.997 60.5011 638.697 60.5011 499.497C55.6678 457.83 113 333.5 207.5 378" stroke="black" stroke-width="2" stroke-dasharray="10 10"/>
<circle cx="90.5" cy="703.5" r="30.5" fill="black"/>
</svg>
