<?xml version="1.0" encoding="UTF-8"?>
<svg version="1.1" xmlns="http://www.w3.org/2000/svg" width="524" height="565">
<path d="M0 0 C35.56424555 30.85675761 58.8114527 70.74900147 72.23291016 115.51025391 C72.45430664 116.24646973 72.67570312 116.98268555 72.90380859 117.74121094 C79.59575937 140.61274608 81.59370975 164.81554508 83.23291016 188.51025391 C83.31968018 189.75572998 83.31968018 189.75572998 83.40820312 191.02636719 C83.77609492 196.51854408 84.0394343 202.00932917 84.23291016 207.51025391 C84.2615918 208.21375977 84.29027344 208.91726563 84.31982422 209.64208984 C85.94969406 254.22625087 78.15839342 305.47564238 58.23291016 345.51025391 C75.52253264 343.09614438 89.39092926 337.1549861 103.23291016 326.51025391 C103.96896484 325.95853516 104.70501953 325.40681641 105.46337891 324.83837891 C122.40792262 311.17451532 134.43549734 287.93912232 141.42919922 267.77001953 C141.98795822 266.19897662 142.59834288 264.64573646 143.24755859 263.10986328 C143.55983398 262.32933594 143.87210937 261.54880859 144.19384766 260.74462891 C144.4882373 260.05079102 144.78262695 259.35695313 145.0859375 258.64208984 C145.4758176 256.2409358 145.4758176 256.2409358 143.29785156 253.74560547 C142.6164209 253.00793945 141.93499023 252.27027344 141.23291016 251.51025391 C140.88099609 252.26532227 140.52908203 253.02039063 140.16650391 253.79833984 C138.82477641 256.66483729 137.47426664 259.5269972 136.11816406 262.38671875 C135.25790536 264.20735451 134.40736722 266.03257336 133.55712891 267.85791016 C122.13167123 291.8907694 102.21900301 318.0607656 76.23291016 327.51025391 C73.88134766 327.16650391 73.88134766 327.16650391 72.23291016 326.51025391 C73.86497893 323.24611636 77.41545107 322.42870221 80.60791016 320.94775391 C88.04465927 317.35401299 94.15505325 313.15262574 100.23291016 307.51025391 C101.06048828 306.76259766 101.88806641 306.01494141 102.74072266 305.24462891 C118.58608137 290.2436937 129.27770223 270.62464143 137.23291016 250.51025391 C136.57291016 250.51025391 135.91291016 250.51025391 135.23291016 250.51025391 C133.91291016 250.51025391 132.59291016 250.51025391 131.23291016 250.51025391 C132.23291016 247.51025391 132.23291016 247.51025391 134.98291016 245.76025391 C138.23291016 244.51025391 138.23291016 244.51025391 140.92041016 244.44775391 C144.25395423 245.97938227 144.89660568 248.20465861 146.23291016 251.51025391 C146.45205078 250.99076172 146.67119141 250.47126953 146.89697266 249.93603516 C149.75218664 243.6568857 152.71352523 240.08274504 159.17041016 237.19775391 C166.71323608 235.50446645 172.5350334 236.87057168 179.23291016 240.51025391 C186.02800599 245.4967691 189.70103955 252.40677852 191.17041016 260.63525391 C192.8660451 286.56061982 173.97829733 317.64018543 157.75634766 336.36962891 C154.97128007 339.47510249 152.12858103 342.50831988 149.23291016 345.51025391 C148.3536084 346.42242676 148.3536084 346.42242676 147.45654297 347.35302734 C139.7905253 355.25898297 132.06008029 362.88671018 123.23291016 369.51025391 C122.24162109 370.25662109 121.25033203 371.00298828 120.22900391 371.77197266 C98.75401384 387.2919348 72.63185274 396.80305548 46.13525391 398.05322266 C37.95857575 398.17430935 37.95857575 398.17430935 30.72509766 401.35791016 C29.0409965 403.74662238 29.0409965 403.74662238 27.76025391 406.47119141 C25.85894998 410.25434858 23.4299963 413.19690489 20.67041016 416.38525391 C20.15824951 416.97951172 19.64608887 417.57376953 19.1184082 418.18603516 C9.37975721 429.22526825 -2.28037993 437.82734832 -14.76708984 445.51025391 C-15.39309082 445.89810059 -16.0190918 446.28594727 -16.6640625 446.68554688 C-62.93955904 474.99205091 -115.56437067 476.11897294 -167.13671875 463.95117188 C-195.45752529 456.75185184 -225.13463586 439.99533321 -245.76708984 419.51025391 C-246.71068359 418.60404297 -247.65427734 417.69783203 -248.62646484 416.76416016 C-254.84384968 410.70993873 -260.4365942 404.35281116 -265.76708984 397.51025391 C-266.49541016 396.59888672 -267.22373047 395.68751953 -267.97412109 394.74853516 C-304.35027711 348.05199862 -313.89279696 289.2383768 -314.00732422 231.70751953 C-314.01703471 228.77689256 -314.04820602 225.8469681 -314.07958984 222.91650391 C-314.17590448 205.81605032 -312.86052789 188.66436723 -307.95458984 172.19775391 C-307.5666626 170.84387573 -307.5666626 170.84387573 -307.17089844 169.46264648 C-299.43234651 142.92142886 -288.32955972 111.83438009 -262.76708984 97.51025391 C-255.09544362 94.12357832 -248.17088876 92.34547354 -239.76708984 92.51025391 C-239.67427734 90.59212891 -239.67427734 90.59212891 -239.57958984 88.63525391 C-236.32133067 57.32954751 -218.19853313 24.92479092 -196.76708984 2.51025391 C-196.15736328 1.83736328 -195.54763672 1.16447266 -194.91943359 0.47119141 C-145.92275291 -51.75032389 -51.26455354 -43.2186109 0 0 Z M-198.32617188 12.39746094 C-203.93340113 18.95809794 -208.53290186 25.98655732 -212.76708984 33.51025391 C-213.12512695 34.13351563 -213.48316406 34.75677734 -213.85205078 35.39892578 C-224.55396034 54.12958796 -233.71897339 75.70943164 -234.76708984 97.51025391 C-235.78287109 97.59662109 -236.79865234 97.68298828 -237.84521484 97.77197266 C-252.32635422 99.17610801 -264.31615436 103.10134101 -274.22802734 114.28759766 C-288.3384396 131.44655577 -296.37209826 151.79674487 -302.07958984 173.07275391 C-302.3099292 173.92039307 -302.54026855 174.76803223 -302.77758789 175.64135742 C-307.27443083 193.36964503 -308.24431428 210.85416199 -308.07958984 229.07275391 C-308.07399048 230.17109558 -308.06839111 231.26943726 -308.06262207 232.40106201 C-307.74428073 294.48552522 -295.55285195 356.50569302 -252.36523438 403.75634766 C-250.79263377 405.48222036 -249.24493321 407.2277623 -247.70068359 408.97900391 C-237.17968937 420.80209291 -225.57516921 429.86126657 -211.76708984 437.51025391 C-211.03570801 437.91775879 -210.30432617 438.32526367 -209.55078125 438.74511719 C-166.04297764 462.79888906 -113.14078887 474.01363716 -64.30371094 460.56054688 C-31.92313654 451.14244333 1.69826364 433.07829425 22.23291016 405.51025391 C22.71638916 404.59711426 23.19986816 403.68397461 23.69799805 402.74316406 C27.81305323 395.0935337 27.81305323 395.0935337 31.87280273 393.42578125 C35.03810658 392.9225724 38.09194004 392.72830955 41.29541016 392.63525391 C43.62816619 392.46661105 45.96022437 392.28805203 48.29150391 392.10009766 C49.45665527 392.01356934 50.62180664 391.92704102 51.82226562 391.83789062 C82.16565941 388.92301343 108.83373176 374.97153224 130.95947266 354.60009766 C133.07921228 352.65153976 135.23774485 350.76268058 137.42041016 348.88525391 C144.84699098 342.37956911 151.12626971 335.27077614 157.23291016 327.51025391 C157.89291016 326.69041016 158.55291016 325.87056641 159.23291016 325.02587891 C168.17684736 313.41318625 174.48612221 300.06941016 179.73291016 286.44775391 C180.05904297 285.60422363 180.38517578 284.76069336 180.72119141 283.89160156 C184.49120793 273.71055162 187.09909736 263.69572348 182.67041016 253.32275391 C179.80239376 248.16445104 175.62366632 244.61683576 169.99462891 242.77978516 C165.08815216 241.92390579 161.43744729 242.76413913 156.95947266 244.81884766 C154.21878165 247.50373274 153.38772361 250.94199772 152.23291016 254.51025391 C151.64611783 256.26040393 151.05885284 258.01039552 150.47119141 259.76025391 C150.16141357 260.6900708 149.85163574 261.6198877 149.5324707 262.57788086 C142.22349624 284.2914827 131.76312437 305.42701827 116.23291016 322.51025391 C115.57806641 323.23470703 114.92322266 323.95916016 114.24853516 324.70556641 C97.21273175 342.62723159 74.92353938 349.21780273 51.2890625 353.09301758 C49.18043598 353.42798754 49.18043598 353.42798754 47.23291016 354.51025391 C47.49918213 353.97360107 47.7654541 353.43694824 48.03979492 352.8840332 C85.48415657 276.98809123 87.89286527 180.30587661 61.04541016 100.51025391 C54.2391047 81.02630137 45.40011794 63.19016239 33.23291016 46.51025391 C32.79591797 45.91035645 32.35892578 45.31045898 31.90869141 44.69238281 C29.10940384 40.88858167 26.19958913 37.18574383 23.23291016 33.51025391 C22.41822266 32.49060547 21.60353516 31.47095703 20.76416016 30.42041016 C-5.13212785 -1.42301927 -33.45270026 -19.32433581 -73.76708984 -26.48974609 C-75.02134766 -26.71662109 -76.27560547 -26.94349609 -77.56787109 -27.17724609 C-122.4258528 -33.99831195 -167.63270971 -22.04800339 -198.32617188 12.39746094 Z " fill="#000000" transform="translate(332.76708984375,70.48974609375)"/>
<path d="M0 0 C1.28003906 0.72703125 1.28003906 0.72703125 2.5859375 1.46875 C33.29312561 20.53602926 53.48864049 57.25359553 63 91 C63.38069061 92.32822006 63.76173542 93.65633864 64.14306641 94.984375 C70.37768322 116.79334179 75.722199 138.72374736 80 161 C80.18143555 161.94456055 80.36287109 162.88912109 80.54980469 163.86230469 C81.55089307 169.22277177 82.36078077 174.58470638 83 180 C83.10151367 180.8461084 83.20302734 181.6922168 83.30761719 182.56396484 C89.18486368 234.37458098 83.87746685 285.27166503 69 335 C60.59487203 334.50950388 52.4838074 333.5719015 44.25 331.8125 C43.21359375 331.59182861 42.1771875 331.37115723 41.109375 331.14379883 C5.52158452 323.2681283 -19.26820137 302.66974732 -45 278 C-45.5976416 277.43104004 -46.1952832 276.86208008 -46.81103516 276.27587891 C-83.25945751 241.44374921 -102.79338661 190.72725035 -112 142 C-112.16371094 141.14567383 -112.32742187 140.29134766 -112.49609375 139.41113281 C-119.33957526 101.89923931 -118.87541591 52.45498802 -97.6796875 19.3984375 C-87.05046324 4.22089402 -73.70561038 -6.2284466 -55.1875 -9.875 C-35.28939455 -13.31568418 -17.48250246 -9.99000141 0 0 Z M-88 16 C-100.81933967 31.57398897 -105.32500239 51.45749792 -108 71 C-108.1023999 71.73468506 -108.2047998 72.46937012 -108.31030273 73.22631836 C-115.71427138 135.17884307 -96.51107973 205.79619522 -58 255 C-50.40301582 264.64337411 -41.96748326 273.06535961 -32.87158203 281.28857422 C-31.05438903 282.95026518 -29.27095537 284.64092367 -27.49609375 286.34765625 C-2.32067706 310.48199773 26.95802727 325.40855694 62 329 C62.99 328.67 63.98 328.34 65 328 C66.01148025 325.83728187 66.01148025 325.83728187 66.68359375 323.13671875 C66.96952393 322.11505615 67.2554541 321.09339355 67.55004883 320.04077148 C67.84290771 318.93419189 68.1357666 317.8276123 68.4375 316.6875 C68.74389404 315.5519165 69.05028809 314.41633301 69.3659668 313.24633789 C73.89990418 296.15024022 76.636359 279.57975946 77.79541016 261.92285156 C77.93172413 259.97541606 78.08764364 258.02925317 78.26318359 256.08496094 C83.7409917 194.34406451 74.78645567 114.80820319 43.98242188 59.76025391 C43.00837473 58.01500543 42.07424326 56.24767474 41.140625 54.48046875 C27.38820318 29.16351041 7.40526 6.63077295 -20.26953125 -3.15625 C-44.53296203 -9.74857836 -71.26774687 -2.9466419 -88 16 Z " fill="#000000" transform="translate(261,89)"/>
<path d="M0 0 C1.62954152 2.44431227 2.58286412 4.2738281 3.59375 6.96484375 C13.03034727 31.58893582 25.13053379 54.6135131 42 75 C42.49081055 75.5976416 42.98162109 76.1952832 43.48730469 76.81103516 C77.88248157 118.41741268 128.65377579 142.46179351 182.08984375 147.73828125 C183.53037109 147.86783203 183.53037109 147.86783203 185 148 C179.43279897 163.30980283 164.01217816 173.55186975 150.03125 180.46875 C129.7731351 189.39974689 107.24912447 192.45482057 86.125 184.62890625 C51.18598334 170.66112955 33.26278411 144.31900252 18.78515625 110.67578125 C17.69954812 108.12187078 16.62786218 105.56241524 15.5625 103 C15.06621094 101.80785889 14.56992188 100.61571777 14.05859375 99.38745117 C9.01720623 87.00178822 5.47650018 74.71086567 3.0625 61.5625 C2.93848816 60.89689056 2.81447632 60.23128113 2.68670654 59.54550171 C0.45751259 47.51956836 -1.28644353 35.43812728 -2.875 23.3125 C-2.98431854 22.48050079 -3.09363708 21.64850159 -3.20626831 20.79129028 C-3.51515204 18.42008691 -3.81788614 16.04821163 -4.1171875 13.67578125 C-4.20749741 12.97193298 -4.29780731 12.26808472 -4.39085388 11.54290771 C-4.82582808 8.00674411 -5.09731281 4.56311297 -5 1 C-3.35 0.67 -1.7 0.34 0 0 Z M4 27 C8.83008912 71.26272729 22.41271083 132.22524679 59 162.5625 C78.27106397 176.54412858 98.58554968 185.65823972 122.83984375 182.5 C143.01274242 178.83598538 162.65645285 169.8766779 175 153 C174.42894531 152.91548584 173.85789062 152.83097168 173.26953125 152.74389648 C149.9619696 149.20746498 128.35992304 143.00022762 107 133 C106.26281738 132.6582373 105.52563477 132.31647461 104.76611328 131.96435547 C86.08869781 123.22945269 69.35822409 111.63232526 54.44824219 97.38085938 C53.06265668 96.05974143 51.66058215 94.75598229 50.2578125 93.453125 C42.17306146 85.71988488 35.53522026 77.05312807 29 68 C28.55269531 67.38141113 28.10539062 66.76282227 27.64453125 66.12548828 C21.34394596 57.30224557 16.10499884 47.98056807 11.02124023 38.41137695 C10.54114502 37.50863037 10.0610498 36.60588379 9.56640625 35.67578125 C9.14302979 34.87052002 8.71965332 34.06525879 8.28344727 33.2355957 C7.00539873 31.00940387 5.58290191 29.01793309 4 27 Z " fill="#000000" transform="translate(130,313)"/>
<path d="M0 0 C0.99 0.33 1.98 0.66 3 1 C1.53498133 6.48106489 0.0366874 11.94639326 -1.61328125 17.375 C-26.45280485 99.23136513 -27.3099277 191.40665682 13.30615234 268.47851562 C29.067946 297.29522577 51.50138188 323.57409857 78 343 C78.59200195 343.43683105 79.18400391 343.87366211 79.79394531 344.32373047 C83.81748151 347.28106218 87.863796 350.20176627 92 353 C93.21792236 353.83047852 93.21792236 353.83047852 94.46044922 354.67773438 C100.9622253 358.97892721 107.48753078 362.19338839 114.75 365 C115.83200684 365.42297363 116.91401367 365.84594727 118.02880859 366.28173828 C170.68942601 386.51341238 225.1108871 387.57460115 277.12109375 364.78515625 C295.06061075 356.67798715 311.76413448 346.46570815 327 334 C327.91523438 333.27554687 328.83046875 332.55109375 329.7734375 331.8046875 C338.24112868 325.0353871 346.40989223 317.74823502 354 310 C352.35 309.67 350.7 309.34 349 309 C349 308.01 349 307.02 349 306 C352.96 306 356.92 306 361 306 C361 309.96 361 313.92 361 318 C360.01 318 359.02 318 358 318 C357.67 316.35 357.34 314.7 357 313 C356.04480469 313.90621094 355.08960938 314.81242187 354.10546875 315.74609375 C346.63302137 322.80275753 339.1408985 329.71164477 331 336 C330.3620752 336.49935059 329.72415039 336.99870117 329.06689453 337.51318359 C284.11381883 372.51110998 230.20324983 391.69118711 173 384.875 C140.01651129 380.4786453 107.85355659 369.88865719 81 350 C80.41202637 349.56896973 79.82405273 349.13793945 79.21826172 348.69384766 C72.2929206 343.59458174 65.77629712 338.1530806 59.4765625 332.2890625 C57.38317817 330.35416784 55.24917793 328.51423094 53.0625 326.6875 C5.59044404 285.10120707 -17.57785727 218.28275275 -22 157 C-22.14845485 153.10514447 -22.1862237 149.21384935 -22.203125 145.31640625 C-22.21013931 144.23100555 -22.21715363 143.14560486 -22.22438049 142.02731323 C-22.2418054 138.53899955 -22.2482339 135.05085562 -22.25 131.5625 C-22.25067474 130.37093292 -22.25134949 129.17936584 -22.25204468 127.95169067 C-22.23626842 110.43665424 -21.7955135 93.32400174 -19 76 C-18.82839355 74.8759375 -18.65678711 73.751875 -18.47998047 72.59375 C-14.63552318 47.74735577 -8.35639309 23.69761322 0 0 Z " fill="#000000" transform="translate(22,179)"/>
<path d="M0 0 C2.22454102 0.00315676 4.4477412 -0.02040235 6.67211914 -0.0456543 C20.44571073 -0.10721214 33.73983381 1.92817515 46.92407227 6.00317383 C47.75310059 6.25736084 48.58212891 6.51154785 49.4362793 6.7734375 C72.09375836 13.99796866 90.66633724 27.19225002 107.92407227 43.31567383 C108.7374707 44.07493164 109.55086914 44.83418945 110.38891602 45.61645508 C117.3228779 52.30942618 123.16131159 59.62312909 128.92407227 67.31567383 C129.43873047 67.99662109 129.95338867 68.67756836 130.48364258 69.37915039 C168.39662858 119.75288651 193.8273268 183.57944786 194.12719727 247.19458008 C194.13421158 248.19666504 194.14122589 249.19875 194.14845276 250.23120117 C194.16585571 253.446905 194.17230489 256.66242464 194.17407227 259.87817383 C194.17474701 260.97692841 194.17542175 262.07568298 194.17611694 263.20773315 C194.16027117 279.43513284 193.80025002 295.30198397 190.92407227 311.31567383 C190.74714844 312.32194824 190.57022461 313.32822266 190.38793945 314.36499023 C187.48747651 330.40269683 183.12493392 345.88562931 177.92407227 361.31567383 C176.93407227 360.98567383 175.94407227 360.65567383 174.92407227 360.31567383 C176.34965795 355.02270111 177.78548931 349.73636434 179.35375977 344.48364258 C201.04504315 270.65612814 191.65665942 189.93899623 157.92407227 121.31567383 C157.30363037 120.04602783 157.30363037 120.04602783 156.6706543 118.75073242 C134.29900078 73.42130791 99.49123714 27.74410868 49.98657227 10.94067383 C4.73840323 -3.43891502 -41.99488895 4.57164254 -83.66577148 26.01635742 C-95.27412748 32.27442778 -106.22064716 39.54479306 -116.07592773 48.31567383 C-116.93444336 49.0659082 -117.79295898 49.81614258 -118.67749023 50.58911133 C-121.17478207 52.79970501 -123.63129054 55.04711603 -126.07592773 57.31567383 C-126.75268555 57.92668945 -127.42944336 58.53770508 -128.12670898 59.16723633 C-141.37048866 71.64133743 -152.05134355 89.09441618 -154.07592773 107.31567383 C-154.11154725 112.65147762 -153.48787795 117.4917734 -151.07592773 122.31567383 C-150.74592773 120.99567383 -150.41592773 119.67567383 -150.07592773 118.31567383 C-149.08592773 118.31567383 -148.09592773 118.31567383 -147.07592773 118.31567383 C-147.40592773 122.27567383 -147.73592773 126.23567383 -148.07592773 130.31567383 C-151.70592773 129.98567383 -155.33592773 129.65567383 -159.07592773 129.31567383 C-159.40592773 128.32567383 -159.73592773 127.33567383 -160.07592773 126.31567383 C-157.10592773 125.82067383 -157.10592773 125.82067383 -154.07592773 125.31567383 C-154.57092773 124.34629883 -155.06592773 123.37692383 -155.57592773 122.37817383 C-159.59331263 111.55622312 -157.74646205 98.55758735 -153.07592773 88.31567383 C-140.25954281 60.74514817 -115.96743941 40.04392962 -89.89526367 25.3449707 C-88.13473434 24.34894391 -86.39012928 23.32493123 -84.64624023 22.30004883 C-59.147173 7.66302445 -29.30955742 -0.08647777 0 0 Z " fill="#000000" transform="translate(245.075927734375,-0.315673828125)"/>
<path d="M0 0 C0.99 0 1.98 0 3 0 C3.25652344 0.97195312 3.51304687 1.94390625 3.77734375 2.9453125 C7.18446717 15.39205616 11.84991472 27.17914346 17 39 C17.35046387 39.80695313 17.70092773 40.61390625 18.06201172 41.4453125 C26.85903263 61.43816192 38.1495081 80.35522776 51 98 C51.39525879 98.54543457 51.79051758 99.09086914 52.19775391 99.65283203 C60.7456428 111.39498857 69.98525691 122.48498297 80 133 C80.57024902 133.59893066 81.14049805 134.19786133 81.72802734 134.81494141 C92.54368665 146.09034626 103.93244101 155.70159689 116.875 164.4375 C117.46925781 164.83880127 118.06351562 165.24010254 118.67578125 165.65356445 C122.95946654 168.47457157 127.38044796 170.77144687 132 173 C131.67 171.35 131.34 169.7 131 168 C131.99 167.67 132.98 167.34 134 167 C136.2018931 171.67902284 137 173.62516458 137 179 C133.7 179.99 130.4 180.98 127 182 C126.67 181.01 126.34 180.02 126 179 C127.65 178.67 129.3 178.34 131 178 C131 177.34 131 176.68 131 176 C129.77023437 175.66355469 129.77023437 175.66355469 128.515625 175.3203125 C124.17657595 173.69075852 120.60291322 171.42180447 116.75 168.875 C115.99710693 168.3814502 115.24421387 167.88790039 114.46850586 167.37939453 C105.80416003 161.63547855 98.02009135 155.14386263 90.35546875 148.1328125 C88.33688796 146.30504283 86.27771647 144.55653806 84.1875 142.8125 C74.45915534 134.32481468 65.91582308 124.1543693 58 114 C57.55865723 113.43651855 57.11731445 112.87303711 56.66259766 112.29248047 C40.16295753 91.12067622 26.53098651 68.21201305 15 44 C14.70528809 43.38543945 14.41057617 42.77087891 14.10693359 42.13769531 C9.95930284 33.38954488 6.65130682 24.42331811 3.5625 15.25 C3.20800781 14.20134766 2.85351562 13.15269531 2.48828125 12.07226562 C2.1634375 11.08419922 1.83859375 10.09613281 1.50390625 9.078125 C1.06800171 7.75409668 1.06800171 7.75409668 0.62329102 6.40332031 C0 4 0 4 0 0 Z " fill="#000000" transform="translate(173,215)"/>
<path d="M0 0 C1.4540625 0.0309375 1.4540625 0.0309375 2.9375 0.0625 C5.0625 4.6875 5.0625 4.6875 3.9375 8.0625 C4.26300502 9.73071323 4.59596063 11.39749557 4.9375 13.0625 C4.6075 13.7225 4.2775 14.3825 3.9375 15.0625 C1.125 15.9375 1.125 15.9375 -2.0625 16.0625 C-4.4375 14.125 -4.4375 14.125 -6.0625 12.0625 C-2.43923261 10.8547442 -1.42103631 11.51938872 1.9375 13.0625 C1.9375 11.7425 1.9375 10.4225 1.9375 9.0625 C0.6175 9.0625 -0.7025 9.0625 -2.0625 9.0625 C-2.0625 8.0725 -2.0625 7.0825 -2.0625 6.0625 C-0.7425 6.0625 0.5775 6.0625 1.9375 6.0625 C1.6075 5.0725 1.2775 4.0825 0.9375 3.0625 C-1.0425 3.7225 -3.0225 4.3825 -5.0625 5.0625 C-3.9375 0.08035714 -3.9375 0.08035714 0 0 Z " fill="#000000" transform="translate(241.0625,297.9375)"/>
<path d="M0 0 C3.0625 0.1875 3.0625 0.1875 5.0625 2.1875 C4.90004442 5.92397845 4.47466356 7.71288742 2 10.5625 C1.360625 11.09875 0.72125 11.635 0.0625 12.1875 C1.7125 12.5175 3.3625 12.8475 5.0625 13.1875 C5.0625 13.8475 5.0625 14.5075 5.0625 15.1875 C1.7625 15.1875 -1.5375 15.1875 -4.9375 15.1875 C-2.9375 11.1875 -2.9375 11.1875 -0.8125 8.625 C1.36735538 6.30372611 1.36735538 6.30372611 1.0625 3.1875 C0.4025 3.1875 -0.2575 3.1875 -0.9375 3.1875 C-1.2675 3.8475 -1.5975 4.5075 -1.9375 5.1875 C-2.9275 5.1875 -3.9175 5.1875 -4.9375 5.1875 C-3.82120474 0.24390669 -3.82120474 0.24390669 0 0 Z " fill="#000000" transform="translate(391.9375,54.8125)"/>
<path d="M0 0 C0.99 0.33 1.98 0.66 3 1 C3 2.32 3 3.64 3 5 C3.33 5.66 3.66 6.32 4 7 C3.00390625 9.1640625 3.00390625 9.1640625 1.5625 11.625 C1.08941406 12.44226563 0.61632812 13.25953125 0.12890625 14.1015625 C-0.24363281 14.72804687 -0.61617187 15.35453125 -1 16 C-1.66 15.67 -2.32 15.34 -3 15 C-2.95875 14.21625 -2.9175 13.4325 -2.875 12.625 C-2.71271266 9.83883881 -2.71271266 9.83883881 -5 8 C-3.35 5.36 -1.7 2.72 0 0 Z " fill="#000000" transform="translate(134,118)"/>
<path d="M0 0 C2 1 2 1 3 3.625 C3 8.09015738 1.32683964 9.54441933 -1.65234375 12.6796875 C-2.09707031 13.11539063 -2.54179687 13.55109375 -3 14 C-3.99 13.34 -4.98 12.68 -6 12 C-6 7.58116545 -4.86839604 4.94501922 -1.875 1.6875 C-1.25625 1.130625 -0.6375 0.57375 0 0 Z " fill="#000000" transform="translate(157,86)"/>
<path d="M0 0 C0.66 1.98 1.32 3.96 2 6 C0.90716423 7.03295436 -0.19970579 8.05107835 -1.3125 9.0625 C-1.92738281 9.63097656 -2.54226562 10.19945313 -3.17578125 10.78515625 C-3.77777344 11.18605469 -4.37976563 11.58695313 -5 12 C-5.99 11.67 -6.98 11.34 -8 11 C-8 9 -8 7 -8 5 C-2.65116279 0 -2.65116279 0 0 0 Z " fill="#000000" transform="translate(173,73)"/>
<path d="M0 0 C2 1 2 1 2.9375 3.5625 C3.02585143 8.42182881 0.80473177 11.17624803 -2 15 C-2.99 14.67 -3.98 14.34 -5 14 C-5 7.73360381 -4.21177901 4.75523436 0 0 Z " fill="#000000" transform="translate(145,101)"/>
<path d="M0 0 C0 4.95 0 9.9 0 15 C-0.99 15 -1.98 15 -3 15 C-3 11.37 -3 7.74 -3 4 C-3.99 4.33 -4.98 4.66 -6 5 C-5.625 3.0625 -5.625 3.0625 -5 1 C-3 0 -3 0 0 0 Z " fill="#000000" transform="translate(8,425)"/>
<path d="M0 0 C0 4.95 0 9.9 0 15 C-0.99 15 -1.98 15 -3 15 C-3 11.37 -3 7.74 -3 4 C-3.99 4.33 -4.98 4.66 -6 5 C-5.625 3.0625 -5.625 3.0625 -5 1 C-3 0 -3 0 0 0 Z " fill="#000000" transform="translate(228,298)"/>
<path d="M0 0 C0 4.95 0 9.9 0 15 C-0.99 15 -1.98 15 -3 15 C-3 11.37 -3 7.74 -3 4 C-3.99 4.33 -4.98 4.66 -6 5 C-5.625 3.0625 -5.625 3.0625 -5 1 C-3 0 -3 0 0 0 Z " fill="#000000" transform="translate(379,55)"/>
<path d="M0 0 C0 4.95 0 9.9 0 15 C-0.66 15 -1.32 15 -2 15 C-2.33 11.37 -2.66 7.74 -3 4 C-3.99 4.33 -4.98 4.66 -6 5 C-6 4.01 -6 3.02 -6 2 C-3 0 -3 0 0 0 Z " fill="#000000" transform="translate(20,425)"/>
<path d="M0 0 C0 0.66 0 1.32 0 2 C-1.42578125 3.32421875 -1.42578125 3.32421875 -3.3125 4.6875 C-3.92738281 5.14511719 -4.54226562 5.60273437 -5.17578125 6.07421875 C-5.77777344 6.37972656 -6.37976563 6.68523437 -7 7 C-7.99 6.67 -8.98 6.34 -10 6 C-10 4.68 -10 3.36 -10 2 C-3.375 -1.125 -3.375 -1.125 0 0 Z " fill="#000000" transform="translate(191,66)"/>
<path d="M0 0 C2.70438996 0.36405249 3.74406383 0.68142682 5.484375 2.84765625 C5.90203125 3.57855469 6.3196875 4.30945313 6.75 5.0625 C7.39195312 6.16271484 7.39195312 6.16271484 8.046875 7.28515625 C8.36140625 7.85105469 8.6759375 8.41695313 9 9 C7.68 9.33 6.36 9.66 5 10 C4.16121545 8.71186658 3.32913217 7.41936744 2.5 6.125 C2.0359375 5.40570313 1.571875 4.68640625 1.09375 3.9453125 C0 2 0 2 0 0 Z " fill="#000000" transform="translate(162,335)"/>
<path d="M0 0 C3.39417765 3.12621626 5.6062718 5.56541027 7 10 C6.01 10 5.02 10 4 10 C2.39453125 8.25 2.39453125 8.25 0.8125 6 C0.28269531 5.2575 -0.24710938 4.515 -0.79296875 3.75 C-1.19128906 3.1725 -1.58960938 2.595 -2 2 C-1.34 1.34 -0.68 0.68 0 0 Z " fill="#000000" transform="translate(176,352)"/>
<path d="M0 0 C3.32368224 1.10789408 3.61563093 1.48436217 5.25 4.375 C5.60578125 4.98085938 5.9615625 5.58671875 6.328125 6.2109375 C7 8 7 8 6 11 C5.34 11 4.68 11 4 11 C2.35 7.7 0.7 4.4 -1 1 C-0.67 0.67 -0.34 0.34 0 0 Z " fill="#000000" transform="translate(152,316)"/>
<path d="M0 0 C0.66 0.33 1.32 0.66 2 1 C0.51218185 4.78717347 -1.61988409 6.77407001 -5 9 C-5.99 8.67 -6.98 8.34 -8 8 C-5.58443874 4.80800833 -3.31996462 2.25283313 0 0 Z " fill="#000000" transform="translate(317,484)"/>
<path d="M0 0 C0 0.66 0 1.32 0 2 C-1.26418246 2.69965443 -2.53665402 3.38434763 -3.8125 4.0625 C-4.52019531 4.44535156 -5.22789062 4.82820313 -5.95703125 5.22265625 C-8 6 -8 6 -11 5 C-11 4.34 -11 3.68 -11 3 C-9.73581754 2.30034557 -8.46334598 1.61565237 -7.1875 0.9375 C-6.47980469 0.55464844 -5.77210938 0.17179687 -5.04296875 -0.22265625 C-3 -1 -3 -1 0 0 Z " fill="#000000" transform="translate(415,437)"/>
<path d="M0 0 C0.99 0 1.98 0 3 0 C2.39301257 4.12751449 0.96189209 7.3321148 -1 11 C-1.99 10.67 -2.98 10.34 -4 10 C-2.8905928 6.51329166 -1.73662334 3.22515763 0 0 Z " fill="#000000" transform="translate(350,434)"/>
<path d="M0 0 C0.99 0.33 1.98 0.66 3 1 C3 1.66 3 2.32 3 3 C1.25 4.5078125 1.25 4.5078125 -1 6.125 C-1.7425 6.66382813 -2.485 7.20265625 -3.25 7.7578125 C-3.8275 8.16773438 -4.405 8.57765625 -5 9 C-5.66 8.67 -6.32 8.34 -7 8 C-5.51218185 4.21282653 -3.38011591 2.22592999 0 0 Z " fill="#000000" transform="translate(445,414)"/>
<path d="M0 0 C3 1 3 1 4.6875 4.375 C6 8 6 8 6 11 C5.01 11 4.02 11 3 11 C1.68 7.7 0.36 4.4 -1 1 C-0.67 0.67 -0.34 0.34 0 0 Z " fill="#000000" transform="translate(360,155)"/>
<path d="M0 0 C3 1 3 1 4.16796875 3.06640625 C4.50441406 3.89011719 4.84085937 4.71382812 5.1875 5.5625 C5.53167969 6.38878906 5.87585938 7.21507812 6.23046875 8.06640625 C6.48441406 8.70449219 6.73835938 9.34257812 7 10 C6.01 10.33 5.02 10.66 4 11 C2.35 7.7 0.7 4.4 -1 1 C-0.67 0.67 -0.34 0.34 0 0 Z " fill="#000000" transform="translate(351,137)"/>
<path d="M0 0 C7.625 0.875 7.625 0.875 11 2 C11 2.99 11 3.98 11 5 C7.37 4.34 3.74 3.68 0 3 C0 2.01 0 1.02 0 0 Z " fill="#000000" transform="translate(193,511)"/>
<path d="M0 0 C-1 3 -1 3 -4.375 4.6875 C-8 6 -8 6 -11 6 C-11 5.01 -11 4.02 -11 3 C-4.5 0 -4.5 0 0 0 Z " fill="#000000" transform="translate(285,508)"/>
<path d="M0 0 C3.43595166 1.52708963 6.11912454 3.59927045 9 6 C8.67 6.99 8.34 7.98 8 9 C3.7257442 7.4169423 1.73468206 4.49431596 -1 1 C-0.67 0.67 -0.34 0.34 0 0 Z " fill="#000000" transform="translate(123,471)"/>
<path d="M0 0 C0.99 0.33 1.98 0.66 3 1 C3.94921875 3.06640625 3.94921875 3.06640625 4.6875 5.5625 C4.93886719 6.38878906 5.19023438 7.21507812 5.44921875 8.06640625 C5.63097656 8.70449219 5.81273438 9.34257812 6 10 C5.01 10.33 4.02 10.66 3 11 C1.68 7.7 0.36 4.4 -1 1 C-0.67 0.67 -0.34 0.34 0 0 Z " fill="#000000" transform="translate(89,420)"/>
<path d="M0 0 C0.99 0 1.98 0 3 0 C6 6.5 6 6.5 6 11 C5.01 11 4.02 11 3 11 C2.01 7.37 1.02 3.74 0 0 Z " fill="#000000" transform="translate(81,401)"/>
<path d="M0 0 C3.93673644 1.31224548 6.22719294 2.91910327 9 6 C8.67 6.99 8.34 7.98 8 9 C6.65826597 8.07456291 5.32679841 7.13422595 4 6.1875 C3.2575 5.66542969 2.515 5.14335937 1.75 4.60546875 C1.1725 4.07566406 0.595 3.54585938 0 3 C0 2.01 0 1.02 0 0 Z " fill="#000000" transform="translate(203,385)"/>
<path d="M0 0 C2 0 2 0 3.54296875 1.42578125 C4.08566406 2.04839844 4.62835938 2.67101562 5.1875 3.3125 C5.73792969 3.92738281 6.28835937 4.54226563 6.85546875 5.17578125 C7.42201172 6.07876953 7.42201172 6.07876953 8 7 C7.67 7.99 7.34 8.98 7 10 C5 10 5 10 3.45703125 8.57421875 C2.91433594 7.95160156 2.37164062 7.32898438 1.8125 6.6875 C1.26207031 6.07261719 0.71164063 5.45773437 0.14453125 4.82421875 C-0.23316406 4.22222656 -0.61085937 3.62023437 -1 3 C-0.67 2.01 -0.34 1.02 0 0 Z " fill="#000000" transform="translate(189,369)"/>
<path d="M0 0 C0.99 0.33 1.98 0.66 3 1 C3 4.3 3 7.6 3 11 C2.01 11.33 1.02 11.66 0 12 C0 8.04 0 4.08 0 0 Z " fill="#000000" transform="translate(70,320)"/>
<path d="M0 0 C1.32 0.33 2.64 0.66 4 1 C4.33 4.3 4.66 7.6 5 11 C4.01 10.67 3.02 10.34 2 10 C1.34 6.7 0.68 3.4 0 0 Z " fill="#000000" transform="translate(372,194)"/>
<path d="M0 0 C4.04131267 1.34710422 4.90288434 3.38428334 7 7 C7 7.99 7 8.98 7 10 C2.33845958 8.50164772 1.13389249 5.11536409 -1 1 C-0.67 0.67 -0.34 0.34 0 0 Z " fill="#000000" transform="translate(340,120)"/>
<path d="M0 0 C3.63 0 7.26 0 11 0 C11 0.99 11 1.98 11 3 C7.37 3 3.74 3 0 3 C0 2.01 0 1.02 0 0 Z " fill="#000000" transform="translate(234,517)"/>
<path d="M0 0 C0 0.99 0 1.98 0 3 C-3.63 3.66 -7.26 4.32 -11 5 C-11 4.01 -11 3.02 -11 2 C-3.375 0 -3.375 0 0 0 Z " fill="#000000" transform="translate(265,514)"/>
<path d="M0 0 C3.63 0.33 7.26 0.66 11 1 C11 1.99 11 2.98 11 4 C3.57142857 4.14285714 3.57142857 4.14285714 0 3 C0 2.01 0 1.02 0 0 Z " fill="#000000" transform="translate(213,515)"/>
<path d="M0 0 C-1.45124634 3.82601307 -3.35774704 5.22329124 -7 7 C-7.99 7 -8.98 7 -10 7 C-10 6.01 -10 5.02 -10 4 C-3.375 0 -3.375 0 0 0 Z " fill="#000000" transform="translate(303,498)"/>
<path d="M0 0 C7.71428571 4 7.71428571 4 9 8 C4.59885603 7.49701212 2.28804981 5.91227269 -1 3 C-0.67 2.01 -0.34 1.02 0 0 Z " fill="#000000" transform="translate(139,484)"/>
<path d="M0 0 C2.93200474 2.85276137 5.64315404 5.65079784 8 9 C6.68 9 5.36 9 4 9 C1.1875 6.1875 1.1875 6.1875 -1 3 C-0.67 2.01 -0.34 1.02 0 0 Z " fill="#000000" transform="translate(110,455)"/>
<path d="M0 0 C0.99 0.33 1.98 0.66 3 1 C0.525 5.455 0.525 5.455 -2 10 C-2.99 10 -3.98 10 -5 10 C-3.66511872 6.40608886 -2.03977277 3.24509304 0 0 Z " fill="#000000" transform="translate(341,452)"/>
<path d="M0 0 C3.63 0 7.26 0 11 0 C11 0.99 11 1.98 11 3 C7.37 3 3.74 3 0 3 C0 2.01 0 1.02 0 0 Z " fill="#000000" transform="translate(346,450)"/>
<path d="M0 0 C3.63 0.33 7.26 0.66 11 1 C11 1.99 11 2.98 11 4 C7.37 3.67 3.74 3.34 0 3 C0 2.01 0 1.02 0 0 Z " fill="#000000" transform="translate(326,448)"/>
<path d="M0 0 C0 0.99 0 1.98 0 3 C-3.3 3.66 -6.6 4.32 -10 5 C-10.33 4.01 -10.66 3.02 -11 2 C-7.12315913 0.80712589 -4.08378077 0 0 0 Z " fill="#000000" transform="translate(396,444)"/>
<path d="M0 0 C3.48331435 3.01887244 4.79157144 5.56909529 6 10 C5.01 10 4.02 10 3 10 C0.75 7.25 0.75 7.25 -1 4 C-0.75 1.625 -0.75 1.625 0 0 Z " fill="#000000" transform="translate(99,438)"/>
<path d="M0 0 C0.66 0.33 1.32 0.66 2 1 C1 4 1 4 -0.84765625 5.16796875 C-1.57855469 5.50441406 -2.30945313 5.84085937 -3.0625 6.1875 C-3.79597656 6.53167969 -4.52945312 6.87585938 -5.28515625 7.23046875 C-6.13400391 7.61138672 -6.13400391 7.61138672 -7 8 C-7 6.68 -7 5.36 -7 4 C-1.7265625 0.77734375 -1.7265625 0.77734375 0 0 Z " fill="#000000" transform="translate(430,426)"/>
<path d="M0 0 C0.99 0 1.98 0 3 0 C2 7.42857143 2 7.42857143 1 11 C0.01 11 -0.98 11 -2 11 C-1 3.57142857 -1 3.57142857 0 0 Z " fill="#000000" transform="translate(364,395)"/>
<path d="M0 0 C0.66 0 1.32 0 2 0 C3.19287411 3.87684087 4 6.91621923 4 11 C3.01 11 2.02 11 1 11 C0.63890458 9.35567294 0.28629924 7.7094792 -0.0625 6.0625 C-0.25972656 5.14597656 -0.45695312 4.22945313 -0.66015625 3.28515625 C-0.77230469 2.53105469 -0.88445312 1.77695312 -1 1 C-0.67 0.67 -0.34 0.34 0 0 Z " fill="#000000" transform="translate(77,381)"/>
<path d="M0 0 C0.99 0.33 1.98 0.66 3 1 C0.525 5.455 0.525 5.455 -2 10 C-2.99 10 -3.98 10 -5 10 C-3.84414715 6.08788267 -2.64465038 3.1254959 0 0 Z " fill="#000000" transform="translate(483,368)"/>
<path d="M0 0 C0.99 0 1.98 0 3 0 C2.85892253 1.45880109 2.71197585 2.91703551 2.5625 4.375 C2.48128906 5.18710937 2.40007812 5.99921875 2.31640625 6.8359375 C2 9 2 9 1 11 C0.01 11 -0.98 11 -2 11 C-1.85892253 9.54119891 -1.71197585 8.08296449 -1.5625 6.625 C-1.48128906 5.81289063 -1.40007812 5.00078125 -1.31640625 4.1640625 C-1 2 -1 2 0 0 Z " fill="#000000" transform="translate(377,335)"/>
<path d="M0 0 C0.99 0 1.98 0 3 0 C2.67 3.63 2.34 7.26 2 11 C1.01 11 0.02 11 -1 11 C-0.67 7.37 -0.34 3.74 0 0 Z " fill="#000000" transform="translate(379,315)"/>
<path d="M0 0 C0.99 0 1.98 0 3 0 C3 3.63 3 7.26 3 11 C2.01 11 1.02 11 0 11 C0 7.37 0 3.74 0 0 Z " fill="#000000" transform="translate(70,300)"/>
<path d="M0 0 C3 1 3 1 4.75 3.8125 C5.98589446 6.96403086 6.28222189 7.96929372 5 11 C1.63408573 8.27521226 0.55773724 4.93143208 -1 1 C-0.67 0.67 -0.34 0.34 0 0 Z " fill="#000000" transform="translate(143,297)"/>
<path d="M0 0 C0.99 0 1.98 0 3 0 C3 3.63 3 7.26 3 11 C2.01 11 1.02 11 0 11 C0 7.37 0 3.74 0 0 Z " fill="#000000" transform="translate(381,274)"/>
<path d="M0 0 C0.99 0 1.98 0 3 0 C3 3.63 3 7.26 3 11 C2.01 11 1.02 11 0 11 C0 7.37 0 3.74 0 0 Z " fill="#000000" transform="translate(381,254)"/>
<path d="M0 0 C0.66 0 1.32 0 2 0 C3.19287411 3.87684087 4 6.91621923 4 11 C3.01 11 2.02 11 1 11 C0.63890458 9.35567294 0.28629924 7.7094792 -0.0625 6.0625 C-0.25972656 5.14597656 -0.45695312 4.22945312 -0.66015625 3.28515625 C-0.77230469 2.53105469 -0.88445312 1.77695313 -1 1 C-0.67 0.67 -0.34 0.34 0 0 Z " fill="#000000" transform="translate(124,240)"/>
<path d="M0 0 C0.99 0 1.98 0 3 0 C2.34 3.63 1.68 7.26 1 11 C0.01 11 -0.98 11 -2 11 C-1.85892253 9.54119891 -1.71197585 8.08296449 -1.5625 6.625 C-1.48128906 5.81289062 -1.40007812 5.00078125 -1.31640625 4.1640625 C-1 2 -1 2 0 0 Z " fill="#000000" transform="translate(122,161)"/>
<path d="M0 0 C2.96404505 2.80804268 5.44499019 5.18315774 7 9 C4 9 4 9 2.39453125 7.46875 C1.87246094 6.8190625 1.35039062 6.169375 0.8125 5.5 C0.28269531 4.8503125 -0.24710937 4.200625 -0.79296875 3.53125 C-1.19128906 3.0259375 -1.58960938 2.520625 -2 2 C-1.34 1.34 -0.68 0.68 0 0 Z " fill="#000000" transform="translate(328,104)"/>
<path d="M0 0 C1.34173403 0.92543709 2.67320159 1.86577405 4 2.8125 C5.11375 3.59560547 5.11375 3.59560547 6.25 4.39453125 C7.11625 5.18923828 7.11625 5.18923828 8 6 C8 6.99 8 7.98 8 9 C3.75177626 8.52797514 1.80010291 6.03344482 -1 3 C-0.67 2.01 -0.34 1.02 0 0 Z " fill="#000000" transform="translate(313,90)"/>
<path d="M0 0 C3.63 0.33 7.26 0.66 11 1 C11 1.99 11 2.98 11 4 C7.37 3.67 3.74 3.34 0 3 C0 2.01 0 1.02 0 0 Z " fill="#000000" transform="translate(239,58)"/>
<path d="M0 0 C3.63 0 7.26 0 11 0 C11 0.99 11 1.98 11 3 C7.37 3 3.74 3 0 3 C0 2.01 0 1.02 0 0 Z " fill="#000000" transform="translate(219,57)"/>
<path d="M0 0 C3.63 1.32 7.26 2.64 11 4 C10.67 4.66 10.34 5.32 10 6 C3.375 5.25 3.375 5.25 0 3 C0 2.01 0 1.02 0 0 Z " fill="#000000" transform="translate(174,504)"/>
<path d="M0 0 C3.3 1.65 6.6 3.3 10 5 C9.01 6.485 9.01 6.485 8 8 C5.03 6.35 2.06 4.7 -1 3 C-0.67 2.01 -0.34 1.02 0 0 Z " fill="#000000" transform="translate(156,495)"/>
<path d="M0 0 C5.445 1.485 5.445 1.485 11 3 C10.01 4.485 10.01 4.485 9 6 C5.7 5.01 2.4 4.02 -1 3 C-0.67 2.01 -0.34 1.02 0 0 Z " fill="#000000" transform="translate(307,443)"/>
<path d="M0 0 C2.97 1.65 5.94 3.3 9 5 C8.67 5.99 8.34 6.98 8 8 C5.36 6.68 2.72 5.36 0 4 C0 2.68 0 1.36 0 0 Z " fill="#000000" transform="translate(253,419)"/>
<path d="M0 0 C0.99 0 1.98 0 3 0 C2.01 3.3 1.02 6.6 0 10 C-0.99 10 -1.98 10 -3 10 C-2.49287967 6.28111761 -1.88391785 3.26545761 0 0 Z " fill="#000000" transform="translate(358,415)"/>
<path d="M0 0 C3.96 1.98 3.96 1.98 8 4 C8 5.32 8 6.64 8 8 C5.03 6.35 2.06 4.7 -1 3 C-0.67 2.01 -0.34 1.02 0 0 Z " fill="#000000" transform="translate(236,409)"/>
<path d="M0 0 C0.99 0.33 1.98 0.66 3 1 C1.55746343 4.36591866 -0.33264727 6.51047079 -3 9 C-3.99 8.67 -4.98 8.34 -6 8 C-4.02 5.36 -2.04 2.72 0 0 Z " fill="#000000" transform="translate(459,400)"/>
<path d="M0 0 C0.99 0.33 1.98 0.66 3 1 C1.02 3.97 -0.96 6.94 -3 10 C-3.99 9.01 -4.98 8.02 -6 7 C-4.02 4.69 -2.04 2.38 0 0 Z " fill="#000000" transform="translate(472,385)"/>
<path d="M0 0 C0.99 0.33 1.98 0.66 3 1 C3.33 4.3 3.66 7.6 4 11 C3.01 11 2.02 11 1 11 C-0.28317892 7.15046324 -0.06643637 4.05261865 0 0 Z " fill="#000000" transform="translate(73,361)"/>
<path d="M0 0 C0.66 0 1.32 0 2 0 C2.14285714 7.42857143 2.14285714 7.42857143 1 11 C0.01 11 -0.98 11 -2 11 C-1.85957123 9.35369672 -1.71250671 7.70795821 -1.5625 6.0625 C-1.48128906 5.14597656 -1.40007812 4.22945313 -1.31640625 3.28515625 C-1 1 -1 1 0 0 Z " fill="#000000" transform="translate(374,355)"/>
<path d="M0 0 C0.99 0.33 1.98 0.66 3 1 C1.8905928 4.48670834 0.73662334 7.77484237 -1 11 C-1.99 10.67 -2.98 10.34 -4 10 C-2.66666667 6.66666667 -1.33333333 3.33333333 0 0 Z " fill="#000000" transform="translate(492,350)"/>
<path d="M0 0 C0.99 0 1.98 0 3 0 C3 3.63 3 7.26 3 11 C2.01 10.67 1.02 10.34 0 10 C0 6.7 0 3.4 0 0 Z " fill="#000000" transform="translate(380,295)"/>
<path d="M0 0 C0.99 0 1.98 0 3 0 C3 3.3 3 6.6 3 10 C2.01 10.33 1.02 10.66 0 11 C0 7.37 0 3.74 0 0 Z " fill="#000000" transform="translate(71,280)"/>
<path d="M0 0 C1.890625 0.21484375 1.890625 0.21484375 4 1 C5.046875 3.06640625 5.046875 3.06640625 5.75 5.5625 C5.99234375 6.38878906 6.2346875 7.21507812 6.484375 8.06640625 C6.65453125 8.70449219 6.8246875 9.34257812 7 10 C5.109375 9.78515625 5.109375 9.78515625 3 9 C1.953125 6.93359375 1.953125 6.93359375 1.25 4.4375 C1.00765625 3.61121094 0.7653125 2.78492188 0.515625 1.93359375 C0.34546875 1.29550781 0.1753125 0.65742188 0 0 Z " fill="#000000" transform="translate(134,279)"/>
<path d="M0 0 C0.99 0 1.98 0 3 0 C3.99 3.3 4.98 6.6 6 10 C5.01 10.33 4.02 10.66 3 11 C2.49384702 9.73160474 1.99530901 8.46016898 1.5 7.1875 C1.2215625 6.47980469 0.943125 5.77210938 0.65625 5.04296875 C0 3 0 3 0 0 Z " fill="#000000" transform="translate(128,260)"/>
<path d="M0 0 C0.99 0 1.98 0 3 0 C4.17571451 3.67410785 4.07366746 7.16929183 4 11 C3.01 11 2.02 11 1 11 C0.67 7.37 0.34 3.74 0 0 Z " fill="#000000" transform="translate(379,234)"/>
<path d="M0 0 C0.99 0 1.98 0 3 0 C3.33 3.3 3.66 6.6 4 10 C3.01 10.33 2.02 10.66 1 11 C0.67 7.37 0.34 3.74 0 0 Z " fill="#000000" transform="translate(120,221)"/>
<path d="M0 0 C0.99 0.33 1.98 0.66 3 1 C1.68 4.3 0.36 7.6 -1 11 C-1.99 10.34 -2.98 9.68 -4 9 C-2.68 6.03 -1.36 3.06 0 0 Z " fill="#000000" transform="translate(100,187)"/>
<path d="M0 0 C0.66 0 1.32 0 2 0 C3.19287411 3.87684087 4 6.91621923 4 11 C3.01 10.67 2.02 10.34 1 10 C0.234375 7.96875 0.234375 7.96875 -0.25 5.5 C-0.42015625 4.6853125 -0.5903125 3.870625 -0.765625 3.03125 C-0.84296875 2.3609375 -0.9203125 1.690625 -1 1 C-0.67 0.67 -0.34 0.34 0 0 Z " fill="#000000" transform="translate(368,174)"/>
<path d="M0 0 C3.48624056 0.6456001 6.12498789 1.92360237 9 4 C9 4.99 9 5.98 9 7 C5.00544473 6.38545304 2.25533664 4.29353263 -1 2 C-0.67 1.34 -0.34 0.68 0 0 Z " fill="#000000" transform="translate(296,79)"/>
<path d="M0 0 C0 0.66 0 1.32 0 2 C-3.63 2.66 -7.26 3.32 -11 4 C-11 3.01 -11 2.02 -11 1 C-3.57142857 -1.42857143 -3.57142857 -1.42857143 0 0 Z " fill="#000000" transform="translate(210,59)"/>
<path d="M0 0 C0.66 0.33 1.32 0.66 2 1 C0.64978174 5.41889613 -1.26115668 7.34345343 -5 10 C-5 4.69520066 -3.4637943 3.81017373 0 0 Z " fill="#000000" transform="translate(330,469)"/>
<path d="M0 0 C0 0.66 0 1.32 0 2 C-2.40545638 3.20272819 -3.94996953 3.10071472 -6.625 3.0625 C-7.85089844 3.04896484 -7.85089844 3.04896484 -9.1015625 3.03515625 C-10.04128906 3.01775391 -10.04128906 3.01775391 -11 3 C-10.67 2.01 -10.34 1.02 -10 0 C-2.25 -1.125 -2.25 -1.125 0 0 Z " fill="#000000" transform="translate(377,449)"/>
<path d="M0 0 C3.55780196 0.60990891 6.6828589 1.5783681 10 3 C10 3.99 10 4.98 10 6 C6.7 5.01 3.4 4.02 0 3 C0 2.01 0 1.02 0 0 Z " fill="#000000" transform="translate(288,437)"/>
<path d="M0 0 C2.97 0.99 5.94 1.98 9 3 C9 4.32 9 5.64 9 7 C5.7 5.35 2.4 3.7 -1 2 C-0.67 1.34 -0.34 0.68 0 0 Z " fill="#000000" transform="translate(270,429)"/>
<path d="M0 0 C3.87132028 0.57352893 6.08172796 2.48704352 9 5 C8.67 5.99 8.34 6.98 8 8 C6.6589523 7.24266726 5.32730219 6.46867264 4 5.6875 C2.88625 5.04361328 2.88625 5.04361328 1.75 4.38671875 C1.1725 3.92910156 0.595 3.47148437 0 3 C0 2.01 0 1.02 0 0 Z " fill="#000000" transform="translate(219,398)"/>
<path d="M0 0 C0.66 0.33 1.32 0.66 2 1 C1.125 8.75 1.125 8.75 0 11 C-0.99 11 -1.98 11 -3 11 C-2.69217504 9.35328588 -2.37860766 7.70764424 -2.0625 6.0625 C-1.88847656 5.14597656 -1.71445312 4.22945313 -1.53515625 3.28515625 C-1 1 -1 1 0 0 Z " fill="#000000" transform="translate(370,375)"/>
<path d="M0 0 C0.66 0 1.32 0 2 0 C3.20272819 2.40545638 3.10071472 3.94996953 3.0625 6.625 C3.05347656 7.44226563 3.04445313 8.25953125 3.03515625 9.1015625 C3.02355469 9.72804688 3.01195313 10.35453125 3 11 C2.01 11 1.02 11 0 11 C0 7.37 0 3.74 0 0 Z " fill="#000000" transform="translate(71,341)"/>
<path d="M0 0 C0.99 0 1.98 0 3 0 C2.34 3.3 1.68 6.6 1 10 C0.01 10 -0.98 10 -2 10 C-1.54177532 6.53058454 -1.10868317 3.32604951 0 0 Z " fill="#000000" transform="translate(80,242)"/>
<path d="M0 0 C0.99 0.33 1.98 0.66 3 1 C3.33 3.97 3.66 6.94 4 10 C3.01 10.33 2.02 10.66 1 11 C-0.17571451 7.32589215 -0.07366746 3.83070817 0 0 Z " fill="#000000" transform="translate(377,214)"/>
<path d="M0 0 C0.66 0.33 1.32 0.66 2 1 C1.01 3.97 0.02 6.94 -1 10 C-1.99 10 -2.98 10 -4 10 C-3.43454163 6.04179141 -2.19097652 3.3340947 0 0 Z " fill="#000000" transform="translate(108,169)"/>
<path d="M0 0 C1.46015291 0.28241641 2.91809793 0.57626614 4.375 0.875 C5.18710937 1.03742187 5.99921875 1.19984375 6.8359375 1.3671875 C9 2 9 2 11 4 C10.34 4.66 9.68 5.32 9 6 C6.03 5.01 3.06 4.02 0 3 C0 2.01 0 1.02 0 0 Z " fill="#000000" transform="translate(259,62)"/>
<path d="M0 0 C0.99 0 1.98 0 3 0 C2.34 3.3 1.68 6.6 1 10 C0.01 10 -0.98 10 -2 10 C-1.34 6.7 -0.68 3.4 0 0 Z " fill="#000000" transform="translate(75,261)"/>
<path d="M0 0 C0.99 0.33 1.98 0.66 3 1 C2.01 4.3 1.02 7.6 0 11 C-0.99 10.67 -1.98 10.34 -3 10 C-2.01 6.7 -1.02 3.4 0 0 Z " fill="#000000" transform="translate(86,223)"/>
<path d="M0 0 C0.66 0.33 1.32 0.66 2 1 C1.34 3.97 0.68 6.94 0 10 C-0.99 10 -1.98 10 -3 10 C-2.49287967 6.28111761 -1.88391785 3.26545761 0 0 Z " fill="#000000" transform="translate(93,205)"/>
<path d="M0 0 C0.66 0 1.32 0 2 0 C3.28317892 3.84953676 3.06643637 6.94738135 3 11 C2.01 11 1.02 11 0 11 C0 7.37 0 3.74 0 0 Z " fill="#000000" transform="translate(119,201)"/>
<path d="M0 0 C0.99 0 1.98 0 3 0 C3.125 7.625 3.125 7.625 2 11 C1.34 11 0.68 11 0 11 C0 7.37 0 3.74 0 0 Z " fill="#000000" transform="translate(119,181)"/>
<path d="M0 0 C0.99 0 1.98 0 3 0 C2.01 3.3 1.02 6.6 0 10 C-0.99 10 -1.98 10 -3 10 C-2.01 6.7 -1.02 3.4 0 0 Z " fill="#000000" transform="translate(127,142)"/>
<path d="M0 0 C0.99 0 1.98 0 3 0 C2.43697042 3.94120709 1.3208055 6.7508723 -1 10 C-1.66 10 -2.32 10 -3 10 C-2.39009109 6.44219804 -1.4216319 3.3171411 0 0 Z " fill="#000000" transform="translate(115,152)"/>
<path d="M0 0 C0.99 0 1.98 0 3 0 C1.84414715 3.91211733 0.64465038 6.8745041 -2 10 C-2.66 9.67 -3.32 9.34 -4 9 C-2.80100302 5.9168649 -1.52299523 2.93720508 0 0 Z " fill="#000000" transform="translate(124,135)"/>
<path d="M0 0 C3.48670834 1.1094072 6.77484237 2.26337666 10 4 C9.67 4.99 9.34 5.98 9 7 C4.545 5.02 4.545 5.02 0 3 C0 2.01 0 1.02 0 0 Z " fill="#000000" transform="translate(278,69)"/>
<path d="M0 0 C0.99 0 1.98 0 3 0 C2.34 1.98 1.68 3.96 1 6 C0.01 5.67 -0.98 5.34 -2 5 C-1.34 3.35 -0.68 1.7 0 0 Z " fill="#000000" transform="translate(498,337)"/>
<path d="M0 0 C0.99 0.33 1.98 0.66 3 1 C2.67 1.99 2.34 2.98 2 4 C1.01 3.01 0.02 2.02 -1 1 C-0.67 0.67 -0.34 0.34 0 0 Z " fill="#000000" transform="translate(11,437)"/>
<path d="M0 0 C0.99 0.33 1.98 0.66 3 1 C2.67 1.99 2.34 2.98 2 4 C1.01 3.01 0.02 2.02 -1 1 C-0.67 0.67 -0.34 0.34 0 0 Z " fill="#000000" transform="translate(231,310)"/>
<path d="M0 0 C0.99 0.33 1.98 0.66 3 1 C2.67 1.99 2.34 2.98 2 4 C1.01 3.01 0.02 2.02 -1 1 C-0.67 0.67 -0.34 0.34 0 0 Z " fill="#000000" transform="translate(382,67)"/>
</svg>
