<?xml version="1.0" standalone="no"?>
<!DOCTYPE svg PUBLIC "-//W3C//DTD SVG 20010904//EN"
 "http://www.w3.org/TR/2001/REC-SVG-20010904/DTD/svg10.dtd">
<svg version="1.0" xmlns="http://www.w3.org/2000/svg"
 width="566.000000pt" height="716.000000pt" viewBox="0 0 566.000000 716.000000"
 preserveAspectRatio="xMidYMid meet">

<g transform="translate(0.000000,716.000000) scale(0.100000,-0.100000)"
fill="#000000" stroke="none">
<path d="M4436 7153 c-4 -4 6 -17 21 -29 l28 -22 -45 -11 c-210 -53 -448 -180
-670 -357 -118 -94 -426 -404 -550 -554 -251 -303 -495 -661 -651 -956 -57
-107 -70 -144 -49 -144 6 0 10 6 10 13 0 37 165 323 322 559 428 643 921 1132
1338 1327 86 40 206 83 269 96 l34 7 -22 -30 c-12 -17 -17 -33 -13 -36 5 -3
23 14 40 38 l31 43 -43 31 c-24 17 -46 28 -50 25z"/>
<path d="M4679 6850 c-159 -15 -334 -67 -489 -145 -466 -235 -924 -762 -1260
-1450 -72 -147 -190 -430 -190 -454 0 -7 -317 -11 -977 -13 -972 -3 -978 -3
-1023 -24 -54 -25 -83 -56 -105 -109 -20 -47 -23 -151 -5 -226 14 -61 68 -184
100 -229 l21 -30 786 0 c733 0 785 -1 779 -17 -26 -68 -1228 -1954 -1636
-2568 -146 -220 -272 -413 -279 -429 -34 -81 -30 -171 10 -226 28 -38 101 -76
180 -95 131 -31 471 -9 510 33 9 9 231 358 495 774 263 417 479 756 481 754 2
-2 -32 -125 -76 -273 -100 -340 -106 -364 -131 -509 -64 -386 -67 -915 -5
-1154 53 -207 192 -356 395 -425 176 -59 422 -28 653 83 120 58 193 109 418
294 232 192 426 400 676 728 156 204 686 1008 756 1147 88 174 139 323 145
428 6 115 -8 157 -76 225 -67 67 -142 100 -242 107 -95 6 -125 -12 -173 -107
-363 -707 -791 -1279 -1212 -1617 -217 -175 -337 -245 -366 -216 -20 20 -41
203 -35 304 16 264 117 662 316 1253 132 392 349 963 519 1366 l40 95 786 3
c679 2 790 4 808 17 50 34 132 125 182 200 80 121 171 314 190 403 l7 32 -841
0 c-831 0 -841 0 -841 20 0 32 77 216 144 345 202 388 524 816 1053 1399 90
98 163 183 163 187 0 10 -162 67 -257 90 -75 18 -251 40 -298 37 -11 0 -54 -4
-96 -8z m322 -66 c71 -13 237 -60 247 -69 2 -2 -64 -78 -146 -169 -534 -589
-861 -1031 -1057 -1431 -67 -136 -145 -335 -145 -371 0 -12 126 -14 844 -14
l845 0 -11 -32 c-24 -73 -111 -245 -162 -322 -30 -44 -81 -107 -114 -138 l-61
-58 -796 0 -796 0 -26 -57 c-154 -349 -453 -1140 -601 -1593 -214 -654 -293
-1044 -263 -1290 19 -153 39 -190 101 -190 62 0 219 101 437 283 305 254 638
672 945 1187 87 146 238 424 238 439 0 5 10 17 22 25 53 37 205 2 281 -64 63
-56 81 -108 74 -208 -15 -205 -114 -398 -509 -987 -376 -561 -555 -796 -798
-1049 -86 -89 -352 -315 -490 -415 -239 -173 -574 -249 -785 -177 -195 66
-327 215 -370 422 -55 260 -43 795 25 1155 22 114 151 571 230 811 45 138 47
148 30 163 -15 14 -56 -46 -570 -859 l-553 -875 -51 -12 c-76 -17 -321 -23
-391 -10 -80 15 -156 53 -178 90 -23 39 -22 115 3 169 11 24 136 218 278 430
400 600 1650 2562 1678 2635 6 16 -55 17 -815 17 l-820 0 -40 83 c-49 102 -65
173 -59 265 4 83 23 116 84 147 38 20 59 20 1025 20 l987 0 51 137 c229 615
651 1240 1060 1570 220 178 474 303 694 343 103 19 327 18 428 -1z"/>
<path d="M4456 6513 c-11 -28 10 -35 22 -8 9 20 9 25 -2 25 -8 0 -17 -8 -20
-17z"/>
<path d="M4356 6373 c-33 -49 -22 -58 16 -13 l30 35 -21 -42 c-13 -25 -17 -44
-11 -48 5 -3 20 15 32 40 19 40 20 47 8 55 -23 15 -28 13 -54 -27z"/>
<path d="M4245 6219 c-29 -45 -25 -68 6 -29 31 39 40 58 30 64 -5 3 -21 -13
-36 -35z"/>
<path d="M4301 6181 c-23 -45 -25 -51 -13 -51 12 0 47 78 39 86 -3 3 -15 -12
-26 -35z"/>
<path d="M4137 6067 c-27 -35 -34 -57 -19 -57 11 0 54 70 50 82 -2 6 -16 -6
-31 -25z"/>
<path d="M4210 6001 c-23 -46 -24 -51 -10 -51 14 0 52 78 40 85 -5 3 -18 -12
-30 -34z"/>
<path d="M4018 5900 c-15 -22 -23 -42 -18 -45 8 -5 60 61 60 77 0 18 -17 5
-42 -32z"/>
<path d="M4122 5815 c-27 -55 -10 -60 18 -5 22 43 24 50 12 50 -4 0 -18 -20
-30 -45z"/>
<path d="M3907 5743 c-15 -20 -24 -39 -21 -42 6 -6 64 58 64 71 0 18 -18 6
-43 -29z"/>
<path d="M4036 5640 c-18 -46 -19 -50 -8 -50 9 0 42 64 42 80 0 24 -19 7 -34
-30z"/>
<path d="M3794 5585 c-33 -43 -23 -61 11 -20 22 27 32 55 21 55 -3 0 -17 -16
-32 -35z"/>
<path d="M3952 5463 c-25 -48 -26 -53 -12 -53 14 0 42 58 38 78 -3 12 -11 4
-26 -25z"/>
<path d="M3681 5426 c-22 -36 -25 -46 -13 -46 7 0 52 65 52 75 0 16 -21 0 -39
-29z"/>
<path d="M3862 5275 c-15 -32 -18 -45 -9 -45 7 0 19 17 27 38 8 20 16 40 18
45 2 4 0 7 -5 7 -5 0 -19 -20 -31 -45z"/>
<path d="M3565 5264 c-26 -34 -28 -57 -3 -36 20 16 50 72 40 72 -5 0 -22 -16
-37 -36z"/>
<path d="M3455 5110 c-15 -22 -25 -43 -21 -47 3 -3 7 -4 9 -2 39 49 56 78 49
83 -5 3 -22 -12 -37 -34z"/>
<path d="M3781 5101 c-23 -45 -25 -51 -13 -51 12 0 47 78 39 86 -3 3 -15 -12
-26 -35z"/>
<path d="M3346 4957 c-15 -20 -26 -42 -24 -48 2 -6 16 5 32 25 15 20 26 42 24
48 -2 6 -17 -5 -32 -25z"/>
<path d="M3692 4915 c-12 -24 -17 -47 -12 -50 5 -3 18 15 29 41 24 53 24 54
13 54 -4 0 -18 -20 -30 -45z"/>
<path d="M3227 4790 c-15 -21 -23 -41 -18 -44 7 -5 61 65 61 79 0 16 -21 0
-43 -35z"/>
<path d="M3610 4740 c-14 -27 -18 -46 -12 -52 6 -6 16 7 27 36 23 60 13 70
-15 16z"/>
<path d="M3115 4634 c-26 -34 -28 -57 -3 -36 20 16 50 72 40 72 -5 0 -22 -16
-37 -36z"/>
<path d="M3526 4561 c-26 -56 -14 -75 13 -22 14 26 19 47 13 53 -5 5 -16 -7
-26 -31z"/>
<path d="M840 4495 c0 -9 9 -15 25 -15 16 0 25 6 25 15 0 9 -9 15 -25 15 -16
0 -25 -6 -25 -15z"/>
<path d="M990 4495 c0 -11 12 -15 50 -15 38 0 50 4 50 15 0 11 -12 15 -50 15
-38 0 -50 -4 -50 -15z"/>
<path d="M1190 4495 c0 -11 12 -15 50 -15 38 0 50 4 50 15 0 11 -12 15 -50 15
-38 0 -50 -4 -50 -15z"/>
<path d="M1390 4495 c0 -11 12 -15 50 -15 38 0 50 4 50 15 0 11 -12 15 -50 15
-38 0 -50 -4 -50 -15z"/>
<path d="M1597 4504 c-14 -14 6 -24 49 -24 32 0 44 4 44 15 0 11 -11 15 -43
15 -24 0 -47 -3 -50 -6z"/>
<path d="M1797 4504 c-14 -14 6 -24 49 -24 32 0 44 4 44 15 0 11 -11 15 -43
15 -24 0 -47 -3 -50 -6z"/>
<path d="M1997 4504 c-14 -14 6 -24 49 -24 32 0 44 4 44 15 0 11 -11 15 -43
15 -24 0 -47 -3 -50 -6z"/>
<path d="M2197 4504 c-14 -14 6 -24 49 -24 32 0 44 4 44 15 0 11 -11 15 -43
15 -24 0 -47 -3 -50 -6z"/>
<path d="M2397 4504 c-14 -14 6 -24 49 -24 32 0 44 4 44 15 0 11 -11 15 -43
15 -24 0 -47 -3 -50 -6z"/>
<path d="M2597 4504 c-14 -14 6 -24 49 -24 32 0 44 4 44 15 0 11 -11 15 -43
15 -24 0 -47 -3 -50 -6z"/>
<path d="M2797 4504 c-14 -14 6 -24 49 -24 32 0 44 4 44 15 0 11 -11 15 -43
15 -24 0 -47 -3 -50 -6z"/>
<path d="M2999 4508 c0 -2 -2 -12 -4 -23 -1 -11 -6 -28 -10 -37 -11 -26 4 -22
27 7 13 16 29 25 49 25 19 0 29 5 29 15 0 11 -12 15 -45 15 -25 0 -45 -1 -46
-2z"/>
<path d="M3197 4504 c-14 -14 6 -24 49 -24 32 0 44 4 44 15 0 11 -11 15 -43
15 -24 0 -47 -3 -50 -6z"/>
<path d="M3397 4504 c-14 -14 6 -24 49 -24 32 0 44 4 44 15 0 11 -11 15 -43
15 -24 0 -47 -3 -50 -6z"/>
<path d="M3597 4504 c-14 -14 6 -24 49 -24 32 0 44 4 44 15 0 11 -11 15 -43
15 -24 0 -47 -3 -50 -6z"/>
<path d="M3797 4504 c-14 -14 6 -24 49 -24 32 0 44 4 44 15 0 11 -11 15 -43
15 -24 0 -47 -3 -50 -6z"/>
<path d="M3997 4504 c-14 -14 6 -24 49 -24 32 0 44 4 44 15 0 11 -11 15 -43
15 -24 0 -47 -3 -50 -6z"/>
<path d="M4197 4504 c-14 -14 6 -24 49 -24 32 0 44 4 44 15 0 11 -11 15 -43
15 -24 0 -47 -3 -50 -6z"/>
<path d="M4397 4504 c-14 -14 6 -24 49 -24 32 0 44 4 44 15 0 11 -11 15 -43
15 -24 0 -47 -3 -50 -6z"/>
<path d="M4597 4504 c-14 -14 6 -24 49 -24 32 0 44 4 44 15 0 11 -11 15 -43
15 -24 0 -47 -3 -50 -6z"/>
<path d="M4795 4500 c-3 -5 0 -13 8 -16 23 -8 92 0 92 11 0 14 -92 19 -100 5z"/>
<path d="M4995 4500 c-3 -5 0 -13 8 -16 23 -8 92 0 92 11 0 14 -92 19 -100 5z"/>
<path d="M5195 4500 c-8 -13 20 -24 41 -16 20 8 9 26 -16 26 -10 0 -22 -5 -25
-10z"/>
<path d="M3442 4374 c-25 -51 -26 -57 -11 -52 14 5 50 86 40 92 -4 3 -17 -15
-29 -40z"/>
<path d="M2886 4313 c-14 -20 -23 -39 -20 -42 6 -6 63 59 64 72 0 18 -22 4
-44 -30z"/>
<path d="M3356 4190 c-18 -46 -19 -50 -8 -50 9 0 42 64 42 80 0 24 -19 7 -34
-30z"/>
<path d="M2776 4160 c-28 -43 -31 -50 -17 -50 13 0 62 78 52 84 -5 3 -20 -12
-35 -34z"/>
<path d="M3277 4015 c-19 -40 -21 -55 -8 -55 7 0 41 70 41 85 0 17 -19 0 -33
-30z"/>
<path d="M2666 4006 c-15 -20 -26 -42 -24 -48 2 -6 17 5 32 25 15 20 26 42 24
48 -2 6 -16 -5 -32 -25z"/>
<path d="M2547 3840 c-15 -21 -23 -41 -18 -45 9 -5 61 60 61 77 0 18 -17 5
-43 -32z"/>
<path d="M3196 3830 c-19 -47 -19 -50 -7 -50 5 0 16 18 25 40 19 47 19 50 7
50 -5 0 -16 -18 -25 -40z"/>
<path d="M2447 3685 c-28 -41 -33 -55 -19 -55 11 0 54 70 49 83 -2 6 -15 -7
-30 -28z"/>
<path d="M3115 3645 c-9 -25 -14 -49 -11 -52 7 -8 7 -8 29 41 11 23 14 43 9
48 -5 5 -16 -10 -27 -37z"/>
<path d="M2336 3520 c-28 -43 -31 -50 -17 -50 13 0 62 78 52 84 -5 3 -20 -12
-35 -34z"/>
<path d="M3037 3465 c-19 -40 -21 -55 -8 -55 5 0 14 12 19 28 5 15 13 35 17
45 13 33 -11 17 -28 -18z"/>
<path d="M2232 3363 c-32 -47 -34 -53 -19 -53 7 0 23 18 36 40 25 45 13 55
-17 13z"/>
<path d="M2958 3279 c-23 -54 -10 -76 13 -23 19 43 23 64 12 64 -5 0 -16 -19
-25 -41z"/>
<path d="M2122 3194 c-32 -50 -22 -67 11 -19 15 22 27 43 27 47 0 18 -16 6
-38 -28z"/>
<path d="M2877 3084 c-21 -58 -1 -55 24 4 13 31 15 42 6 42 -7 0 -20 -21 -30
-46z"/>
<path d="M2017 3035 c-28 -41 -33 -55 -19 -55 11 0 54 70 49 83 -2 6 -15 -7
-30 -28z"/>
<path d="M2806 2909 c-9 -22 -13 -45 -10 -51 6 -10 22 19 38 70 13 39 -11 23
-28 -19z"/>
<path d="M1905 2869 c-25 -39 -28 -58 -7 -45 17 10 51 75 43 81 -5 2 -21 -14
-36 -36z"/>
<path d="M2736 2730 c-18 -45 -20 -60 -8 -60 12 0 42 89 32 95 -4 3 -15 -13
-24 -35z"/>
<path d="M1796 2700 c-16 -25 -21 -40 -14 -40 11 0 58 61 58 75 0 16 -21 0
-44 -35z"/>
<path d="M1692 2544 c-32 -50 -22 -67 11 -19 15 22 27 43 27 47 0 18 -16 6
-38 -28z"/>
<path d="M2666 2547 c-9 -22 -15 -46 -13 -55 3 -12 10 -5 21 21 9 22 15 46 13
55 -3 12 -10 5 -21 -21z"/>
<path d="M4532 2460 c-7 -11 -8 -21 -2 -25 5 -3 14 3 20 14 13 26 -2 35 -18
11z"/>
<path d="M1587 2385 c-28 -42 -33 -55 -18 -55 12 0 53 70 48 83 -2 6 -15 -7
-30 -28z"/>
<path d="M2594 2355 c-7 -19 -14 -42 -14 -50 0 -28 18 -7 33 40 19 53 3 62
-19 10z"/>
<path d="M4427 2320 c-18 -25 -23 -40 -15 -40 12 0 58 58 58 73 0 17 -17 4
-43 -33z"/>
<path d="M1476 2213 c-26 -37 -27 -55 -4 -35 21 17 50 72 39 72 -6 0 -22 -17
-35 -37z"/>
<path d="M2531 2178 c-19 -50 -21 -67 -12 -72 5 -3 16 15 25 41 19 55 19 53 6
53 -6 0 -14 -10 -19 -22z"/>
<path d="M4312 2170 c-33 -44 -26 -60 8 -20 17 19 30 38 30 42 0 17 -17 7 -38
-22z"/>
<path d="M1367 2050 c-15 -21 -23 -41 -18 -44 7 -5 61 65 61 79 0 16 -21 0
-43 -35z"/>
<path d="M4195 2015 c-38 -50 -26 -66 13 -17 18 22 28 43 23 46 -5 3 -21 -10
-36 -29z"/>
<path d="M2462 1971 c-14 -46 -15 -51 -3 -51 5 0 16 20 24 45 12 35 13 45 3
45 -7 0 -18 -17 -24 -39z"/>
<path d="M1263 1895 c-24 -36 -29 -55 -15 -55 7 0 52 73 52 84 0 16 -17 2 -37
-29z"/>
<path d="M4075 1854 c-15 -19 -24 -38 -20 -42 6 -7 64 56 65 71 0 17 -20 5
-45 -29z"/>
<path d="M2403 1778 c-17 -61 0 -68 19 -8 12 37 13 50 4 50 -6 0 -17 -19 -23
-42z"/>
<path d="M1157 1731 c-29 -44 -32 -51 -18 -51 13 0 53 68 49 81 -2 6 -16 -7
-31 -30z"/>
<path d="M3955 1694 c-15 -19 -24 -38 -20 -42 6 -7 64 56 65 71 0 17 -20 5
-45 -29z"/>
<path d="M2352 1591 c-14 -46 -15 -61 -3 -61 5 0 14 20 20 44 13 54 13 56 3
56 -5 0 -14 -17 -20 -39z"/>
<path d="M1046 1563 c-26 -37 -27 -55 -4 -35 21 17 50 72 39 72 -6 0 -22 -17
-35 -37z"/>
<path d="M3837 1540 c-15 -21 -23 -41 -18 -44 8 -5 61 62 61 77 0 17 -17 4
-43 -33z"/>
<path d="M937 1400 c-15 -21 -23 -41 -18 -44 7 -5 61 65 61 79 0 16 -21 0 -43
-35z"/>
<path d="M2316 1432 c-3 -5 -9 -27 -15 -50 -7 -32 -6 -42 4 -42 7 0 16 19 20
46 6 45 3 65 -9 46z"/>
<path d="M3717 1380 c-18 -25 -23 -40 -15 -40 12 0 58 58 58 73 0 17 -17 4
-43 -33z"/>
<path d="M852 1268 c-6 -6 -12 -19 -12 -27 0 -13 2 -13 16 1 9 9 15 21 13 27
-3 9 -8 8 -17 -1z"/>
<path d="M3605 1230 c-15 -22 -25 -43 -21 -47 3 -3 7 -4 9 -2 39 49 56 78 49
83 -5 3 -22 -12 -37 -34z"/>
<path d="M2268 1193 c-7 -76 10 -74 22 2 5 33 3 45 -6 45 -7 0 -14 -19 -16
-47z"/>
<path d="M3487 1073 c-26 -36 -29 -52 -8 -39 19 12 51 65 43 70 -5 3 -21 -11
-35 -31z"/>
<path d="M2250 990 c0 -27 5 -50 10 -50 6 0 10 23 10 50 0 28 -4 50 -10 50 -5
0 -10 -22 -10 -50z"/>
<path d="M3365 914 c-15 -19 -24 -38 -20 -42 6 -7 64 56 65 71 0 17 -20 5 -45
-29z"/>
<path d="M2274 798 c8 -47 26 -76 26 -41 0 37 -12 83 -23 83 -6 0 -7 -16 -3
-42z"/>
<path d="M3225 750 c-28 -28 -34 -40 -23 -40 17 0 75 66 66 75 -2 3 -22 -13
-43 -35z"/>
<path d="M2330 634 c0 -13 44 -84 52 -84 12 0 10 6 -12 50 -18 34 -40 53 -40
34z"/>
<path d="M3072 609 c-18 -16 -32 -34 -30 -40 4 -11 78 48 78 62 0 16 -14 9
-48 -22z"/>
<path d="M2898 486 c-37 -20 -49 -36 -28 -36 12 0 90 48 90 55 0 10 -26 2 -62
-19z"/>
<path d="M2462 468 c3 -7 23 -23 46 -36 35 -20 42 -21 42 -8 0 9 -6 16 -12 16
-7 0 -24 9 -38 20 -29 23 -43 25 -38 8z"/>
<path d="M2745 424 c-5 -1 -27 -5 -47 -9 -21 -3 -38 -11 -38 -16 0 -12 80 -2
94 12 11 10 6 18 -9 13z"/>
<path d="M5243 6368 c-458 -554 -812 -1038 -928 -1268 l-38 -75 -15 33 c-15
31 -32 43 -32 22 0 -11 20 -51 38 -78 7 -11 18 -9 55 9 26 13 47 27 47 31 0
11 -7 10 -40 -7 -17 -9 -30 -13 -30 -9 0 19 88 169 182 311 164 246 493 678
790 1035 54 65 98 120 98 123 0 19 -31 -11 -127 -127z"/>
<path d="M2899 6219 l-24 -20 23 6 c21 6 22 4 22 -54 0 -34 4 -61 10 -61 12 0
13 137 1 144 -5 3 -20 -3 -32 -15z"/>
<path d="M3048 6229 c-10 -5 -18 -17 -18 -26 0 -15 2 -15 13 1 14 19 48 19 54
0 2 -6 -15 -34 -37 -63 l-40 -51 50 0 c32 0 49 4 45 10 -3 6 -17 10 -31 10
l-25 0 25 33 c28 37 33 66 14 85 -14 14 -27 15 -50 1z"/>
<path d="M2970 6100 c0 -5 5 -10 10 -10 6 0 10 5 10 10 0 6 -4 10 -10 10 -5 0
-10 -4 -10 -10z"/>
<path d="M4629 5499 l-24 -20 23 6 c21 6 22 4 22 -54 0 -34 4 -61 10 -61 12 0
13 137 1 144 -5 3 -20 -3 -32 -15z"/>
<path d="M4765 5500 c-10 -11 -13 -20 -7 -20 6 0 14 5 17 10 3 6 15 10 26 10
27 0 26 -40 -2 -47 -20 -5 -20 -6 3 -17 12 -6 24 -19 26 -27 4 -24 -27 -32
-54 -14 -25 16 -33 8 -12 -13 19 -19 66 -15 78 7 11 22 4 51 -13 51 -7 0 -7 4
1 12 18 18 14 46 -7 58 -27 14 -35 13 -56 -10z"/>
<path d="M4700 5380 c0 -5 5 -10 10 -10 6 0 10 5 10 10 0 6 -4 10 -10 10 -5 0
-10 -4 -10 -10z"/>
<path d="M3635 3878 c-128 -331 -318 -864 -410 -1153 -177 -559 -253 -868
-262 -1068 l-6 -118 52 20 c124 47 310 174 486 331 251 224 511 563 719 939
l86 155 11 -32 c6 -18 15 -32 20 -32 12 0 12 -2 -7 53 -17 51 -19 52 -75 35
-46 -13 -53 -33 -9 -23 17 4 30 4 30 1 0 -13 -73 -151 -137 -259 -254 -430
-549 -769 -870 -999 -72 -52 -256 -157 -275 -158 -5 0 -8 31 -8 68 0 193 129
685 355 1351 97 287 262 740 329 905 20 50 32 94 28 98 -5 5 -30 -46 -57 -114z"/>
<path d="M1788 3904 c-21 -9 -38 -21 -38 -26 0 -10 17 -8 53 7 16 7 15 0 -8
-50 -166 -376 -898 -1392 -1661 -2307 -69 -83 -123 -155 -121 -161 10 -30 823
993 1179 1483 298 412 529 773 613 962 17 37 33 68 37 68 3 0 11 -14 17 -31 6
-17 15 -28 20 -24 14 8 -22 89 -40 92 -8 1 -31 -5 -51 -13z"/>
<path d="M819 2749 l-24 -20 23 6 c21 6 22 4 22 -54 0 -34 4 -61 10 -61 12 0
13 137 1 144 -5 3 -20 -3 -32 -15z"/>
<path d="M940 2749 c-24 -20 -24 -20 -2 -14 21 6 22 4 22 -54 0 -34 4 -61 10
-61 12 0 14 136 2 144 -4 2 -19 -4 -32 -15z"/>
<path d="M890 2630 c0 -5 5 -10 10 -10 6 0 10 5 10 10 0 6 -4 10 -10 10 -5 0
-10 -4 -10 -10z"/>
<path d="M3229 2509 l-24 -20 23 6 c21 6 22 4 22 -54 0 -34 4 -61 10 -61 12 0
13 137 1 144 -5 3 -20 -3 -32 -15z"/>
<path d="M3385 2478 c-19 -29 -35 -56 -35 -60 0 -5 16 -8 35 -8 24 0 35 -5 35
-15 0 -8 5 -15 10 -15 6 0 10 7 10 15 0 8 5 15 12 15 9 0 9 3 0 12 -7 7 -12
31 -12 54 0 24 -4 45 -10 49 -5 3 -25 -18 -45 -47z m35 -13 c0 -28 -4 -35 -20
-35 -11 0 -20 3 -20 6 0 7 33 64 37 64 2 0 3 -16 3 -35z"/>
<path d="M3300 2390 c0 -5 5 -10 10 -10 6 0 10 5 10 10 0 6 -4 10 -10 10 -5 0
-10 -4 -10 -10z"/>
</g>
</svg>
