<?xml version="1.0" encoding="UTF-8"?>
<svg version="1.1" xmlns="http://www.w3.org/2000/svg" width="648" height="540">
<path d="M0 0 C2.62199257 -0.00965476 5.24318232 -0.04073397 7.86499023 -0.07226562 C39.35135612 -0.26998512 67.64110444 9.92477015 90.40209961 32.11523438 C95.54303338 37.31452247 99.61041926 42.78273255 103.08959961 49.24023438 C103.62198242 50.2121875 104.15436523 51.18414062 104.70288086 52.18554688 C115.93297564 74.42280651 115.83006971 101.39762432 110.08959961 125.24023438 C109.90155762 126.03494141 109.71351563 126.82964844 109.51977539 127.6484375 C102.49350036 156.42430373 89.09360916 183.97314805 72.38354492 208.34960938 C71.14010037 210.16644609 69.92262364 211.99860687 68.70678711 213.83398438 C58.36958893 229.16577643 44.64556244 241.76299703 31.65209961 254.80273438 C31.04223206 255.41546204 30.4323645 256.0281897 29.80401611 256.65948486 C18.00604473 268.49632668 18.00604473 268.49632668 11.75585938 273.8190918 C9.1899005 276.00758214 6.74480827 278.31664141 4.27709961 280.61523438 C-0.37078581 284.90898818 -5.15456387 288.97555278 -10.08618164 292.94335938 C-12.57271223 294.96560002 -15.01329753 297.03200567 -17.44262695 299.12231445 C-24.24525703 304.96461003 -31.29320708 310.43080581 -38.44165039 315.84179688 C-42.25922877 318.73354529 -46.03569149 321.67459833 -49.80419922 324.62988281 C-57.42070354 330.59986023 -65.13885359 336.35854287 -73.05297852 341.92578125 C-76.60788649 344.44150477 -80.13218929 346.99977658 -83.66040039 349.55273438 C-85.19292875 350.6608401 -86.72548101 351.76891278 -88.25805664 352.87695312 C-89.02520996 353.4317334 -89.79236328 353.98651367 -90.58276367 354.55810547 C-92.89782073 356.23114335 -95.21439853 357.90205246 -97.53149414 359.57226562 C-98.28841553 360.11826416 -99.04533691 360.6642627 -99.82519531 361.22680664 C-101.3284172 362.31050221 -102.83247361 363.39304121 -104.33740234 364.47436523 C-108.01364364 367.12156711 -111.66243929 369.79657671 -115.26977539 372.53710938 C-115.95789307 373.0557959 -116.64601074 373.57448242 -117.35498047 374.10888672 C-118.6531165 375.09008227 -119.94500174 376.07962071 -121.22949219 377.07861328 C-122.73352964 378.21133819 -124.31694909 379.23718535 -125.91040039 380.24023438 C-126.90040039 379.91023438 -127.89040039 379.58023437 -128.91040039 379.24023438 C-124.61021804 374.63476524 -119.77965093 370.9812817 -114.72290039 367.24023438 C-113.83940918 366.5823291 -112.95591797 365.92442383 -112.0456543 365.24658203 C-103.39718113 358.82319397 -94.66388481 352.51932375 -85.91040039 346.24023438 C-70.03546906 334.84206095 -54.34823984 323.22475075 -38.91040039 311.24023438 C-38.34611328 310.80356445 -37.78182617 310.36689453 -37.20043945 309.91699219 C-29.15617306 303.68526546 -21.28856915 297.28494591 -13.56665039 290.65820312 C-11.86354461 289.20011964 -10.15330765 287.75076585 -8.44165039 286.30273438 C-0.99082607 279.98373313 6.26655502 273.49283308 13.39916992 266.81738281 C15.15125303 265.18271255 16.91249112 263.55838287 18.67553711 261.93554688 C25.43405927 255.69828186 32.07370692 249.35604548 38.58959961 242.86523438 C39.23582275 242.22360352 39.8820459 241.58197266 40.54785156 240.92089844 C44.38274179 237.07359435 48.01810261 233.10329122 51.56665039 228.99072266 C53.24724975 227.05903022 55.01059896 225.21820709 56.77709961 223.36523438 C89.40869098 186.57594989 111.54786953 132.53362352 109.3215332 83.40673828 C108.50973178 72.32351253 105.35788045 62.03303875 100.08959961 52.24023438 C99.46311523 51.01820312 99.46311523 51.01820312 98.82397461 49.77148438 C87.19410962 28.65058014 64.43442884 14.32199661 41.73168945 7.65820312 C-16.39825161 -8.15150132 -85.87112394 13.38682752 -136.7434082 41.99511719 C-155.81978576 52.95608221 -173.12734637 65.91940524 -188.91040039 81.24023438 C-189.48242188 81.78647461 -190.05444336 82.33271484 -190.64379883 82.89550781 C-199.22671537 91.10382898 -206.8963757 99.6555087 -213.91040039 109.24023438 C-215.06282227 110.8103125 -215.06282227 110.8103125 -216.23852539 112.41210938 C-233.22758692 136.29183921 -245.82192794 162.94990864 -252.85961914 191.42382812 C-253.24342239 192.97071823 -253.24342239 192.97071823 -253.63497925 194.54885864 C-256.37598631 205.8241102 -258.5007922 217.19496569 -260.53540039 228.61523438 C-260.9259596 230.78127654 -261.31666751 232.9472919 -261.70751953 235.11328125 C-262.7924361 241.15260743 -263.85732522 247.19528057 -264.91040039 253.24023438 C-265.04271057 253.99824341 -265.17502075 254.75625244 -265.31134033 255.53723145 C-269.45312508 279.3663888 -272.35591685 303.44705325 -269.97290039 327.61523438 C-269.88588867 328.56011719 -269.79887695 329.505 -269.70922852 330.47851562 C-269.27147243 335.10251692 -268.75881062 339.66951978 -267.91040039 344.24023438 C-267.45665039 343.74523437 -267.00290039 343.25023437 -266.53540039 342.74023438 C-264.91040039 341.24023438 -264.91040039 341.24023438 -262.91040039 341.24023438 C-262.92087402 340.30977295 -262.93134766 339.37931152 -262.94213867 338.4206543 C-263.34989045 296.6673883 -256.08221943 259.31459646 -242.84790039 219.61523438 C-242.59845673 218.86640991 -242.34901306 218.11758545 -242.0920105 217.34606934 C-237.17013824 202.62759345 -232.26191488 187.98707002 -224.97290039 174.24023438 C-224.42077881 173.18916504 -223.86865723 172.1380957 -223.29980469 171.05517578 C-217.08753477 159.418119 -210.09141999 148.29767858 -202.91040039 137.24023438 C-202.18095215 136.10690674 -202.18095215 136.10690674 -201.43676758 134.95068359 C-187.24371893 112.93035902 -169.98573263 93.13018179 -149.91040039 76.24023438 C-149.00547852 75.44617188 -148.10055664 74.65210937 -147.16821289 73.83398438 C-134.11307719 62.44284086 -120.20330286 52.30013009 -104.83862305 44.25341797 C-102.95874101 43.26563493 -101.09695501 42.24889874 -99.23461914 41.22851562 C-62.38375862 21.47834963 -13.26451451 9.58435856 27.82788086 21.30664062 C48.78062566 28.24509054 63.06217792 41.33338278 73.21459961 60.67773438 C86.37454412 87.05101698 87.03726498 118.24341248 77.87866211 145.89648438 C71.01220544 164.15411483 60.83180785 181.03826785 50.08959961 197.24023438 C49.55544434 198.0476709 49.02128906 198.85510742 48.47094727 199.68701172 C34.84400552 220.1820941 19.55873621 237.81005196 2.21459961 255.24023438 C1.43020508 256.02938232 0.64581055 256.81853027 -0.16235352 257.6315918 C-4.35563447 261.81286909 -8.63129069 265.83119451 -13.11938477 269.69433594 C-15.53707005 271.78113845 -17.87712198 273.94821668 -20.22290039 276.11523438 C-24.71188096 280.20903646 -29.32283515 284.09493105 -34.05102539 287.90820312 C-36.54832999 289.94493925 -39.00248902 292.02322779 -41.44506836 294.125 C-71.91780202 320.28458345 -106.42353093 341.82648205 -140.91040039 362.24023438 C-140.21266896 381.7767143 -128.0524295 401.83696217 -114.22290039 414.92773438 C-97.92649463 428.40547751 -79.1047981 432.66387464 -58.3269043 431.03808594 C0.08372735 425.32739884 54.50917929 389.23183348 92.08959961 345.24023438 C92.91331055 344.31597656 93.73702148 343.39171875 94.58569336 342.43945312 C113.14118292 321.41217434 127.37589952 297.07726937 138.08959961 271.24023438 C138.38640625 270.54478516 138.68321289 269.84933594 138.98901367 269.1328125 C146.91967722 250.3482374 151.19975117 229.95575437 156.09057617 210.21386719 C160.90059824 190.80401343 165.92113508 173.93961181 182.08959961 160.80273438 C194.9434366 154.10802761 211.22923449 153.15484898 225.08959961 157.24023438 C233.15995721 160.74970326 239.17634022 167.21388364 242.52709961 175.30273438 C256.01538887 221.60668841 220.0470734 291.13501161 198.08959961 331.24023438 C197.55616943 332.21645752 197.55616943 332.21645752 197.01196289 333.21240234 C184.17542931 356.41075779 167.76898404 377.60324978 150.47241211 397.63085938 C148.99002595 399.35612236 147.52329666 401.09389498 146.05834961 402.83398438 C138.01806163 412.35921899 129.78381195 421.05793823 120.02319336 428.86914062 C117.47473328 430.9289479 114.98016957 433.03819474 112.49926758 435.1784668 C49.75624102 489.16509114 -40.39327915 527.74597502 -123.91040039 523.24023438 C-130.0351323 522.74843434 -135.94479322 521.69026307 -141.91040039 520.24023438 C-142.71960938 520.046875 -143.52881836 519.85351562 -144.36254883 519.65429688 C-168.14859466 513.80038206 -190.18904738 504.51855356 -207.91040039 487.24023438 C-208.75602539 486.43585938 -209.60165039 485.63148438 -210.47290039 484.80273438 C-211.27727539 483.95710938 -212.08165039 483.11148437 -212.91040039 482.24023438 C-213.56395508 481.56992187 -214.21750977 480.89960938 -214.89086914 480.20898438 C-225.84706801 468.59277352 -232.62425837 455.32099528 -238.97290039 440.86523438 C-239.65349568 439.33872621 -240.3351319 437.81268172 -241.01782227 436.28710938 C-242.66066654 432.61002347 -244.2895216 428.92705224 -245.91040039 425.24023438 C-267.26977194 437.8093035 -267.26977194 437.8093035 -288.41040039 450.74023438 C-296.77440401 455.96041943 -305.20380058 461.06784852 -313.66772461 466.12402344 C-315.10823695 466.98542723 -316.54755243 467.84883605 -317.9855957 468.71435547 C-320.00787987 469.93065682 -322.03464353 471.13913168 -324.06274414 472.34570312 C-324.66501328 472.70967697 -325.26728241 473.07365082 -325.88780212 473.44865417 C-335.0908381 478.88766792 -344.59696133 479.75931935 -355.05102539 477.58789062 C-364.80901278 474.41245618 -370.81084788 468.51897736 -375.72290039 459.64257812 C-379.31650231 452.37262687 -380.34690871 444.39389309 -378.15258789 436.52148438 C-372.85919984 422.68365103 -363.65176751 415.66498271 -351.22290039 408.36523438 C-349.98176933 407.62568712 -348.74130329 406.88502281 -347.50146484 406.14331055 C-344.9271015 404.60440662 -342.34996359 403.07031388 -339.77075195 401.53955078 C-334.27422396 398.27224502 -328.81374319 394.94583565 -323.35223389 391.62045288 C-321.01223345 390.19628708 -318.67056899 388.77487004 -316.32888794 387.35346985 C-306.81586963 381.57892467 -297.31056828 375.79170567 -287.8059082 370.00341797 C-282.52870234 366.78992886 -277.25074438 363.57767528 -271.97290039 360.36523438 C-270.0262828 359.18034348 -268.07966793 357.99544812 -266.13305664 356.81054688 C-264.72550456 355.95377604 -263.31795247 355.09700521 -261.91040039 354.24023438 C-262.24040039 351.27023437 -262.57040039 348.30023438 -262.91040039 345.24023438 C-264.56040039 347.22023438 -266.21040039 349.20023437 -267.91040039 351.24023438 C-271.90495566 350.62568741 -274.65506375 348.53376701 -277.91040039 346.24023438 C-277.58040039 345.25023437 -277.25040039 344.26023437 -276.91040039 343.24023438 C-273.94040039 344.72523438 -273.94040039 344.72523438 -270.91040039 346.24023438 C-271.21977539 345.08523438 -271.52915039 343.93023437 -271.84790039 342.74023438 C-273.68983991 335.86366017 -274.07554896 328.87877945 -274.14868164 321.79882812 C-274.15861145 321.00751999 -274.16854126 320.21621185 -274.17877197 319.40092468 C-274.38106369 298.99443702 -273.34883749 279.39019347 -269.91040039 259.24023438 C-269.7553302 258.32123352 -269.60026001 257.40223267 -269.44049072 256.4553833 C-259.12126112 195.37743983 -246.28108628 138.67297016 -203.91040039 91.24023438 C-203.43103027 90.69915039 -202.95166016 90.15806641 -202.45776367 89.60058594 C-158.05430881 39.67780946 -92.51646831 9.78564281 -26.91040039 1.24023438 C-26.18409424 1.13855957 -25.45778809 1.03688477 -24.70947266 0.93212891 C-16.51222871 -0.06660143 -8.24554119 0.01828111 0 0 Z M-137.09301758 73.69921875 C-138.75522145 75.10865331 -140.4387854 76.48393482 -142.13696289 77.84960938 C-159.74692697 92.20066536 -177.49768198 109.12191104 -189.91040039 128.24023438 C-190.32177246 128.87123047 -190.73314453 129.50222656 -191.15698242 130.15234375 C-193.70428116 134.09744176 -196.16029515 138.09345465 -198.59790039 142.10693359 C-199.98888434 144.36779999 -201.41338934 146.60440549 -202.84790039 148.83789062 C-207.82849557 156.59469907 -212.69868975 164.39427015 -217.22290039 172.42773438 C-217.78074219 173.40395752 -217.78074219 173.40395752 -218.34985352 174.39990234 C-225.20951425 186.79611702 -230.1828367 200.10631425 -234.72290039 213.49023438 C-234.97475098 214.2275882 -235.22660156 214.96494202 -235.48608398 215.72463989 C-243.50885223 239.29780117 -251.05719045 263.59814926 -254.91040039 288.24023438 C-255.02319336 288.9028125 -255.13598633 289.56539063 -255.25219727 290.24804688 C-258.86382872 312.04605922 -258.38372533 336.46992987 -254.91040039 358.24023438 C-255.64129883 358.51697998 -256.37219727 358.79372559 -257.12524414 359.07885742 C-259.73008507 360.16504503 -262.0479345 361.38539127 -264.47290039 362.82226562 C-265.34124512 363.33539307 -266.20958984 363.84852051 -267.10424805 364.37719727 C-268.49329346 365.20658813 -268.49329346 365.20658813 -269.91040039 366.05273438 C-271.36712158 366.91789673 -271.36712158 366.91789673 -272.85327148 367.80053711 C-280.33945637 372.26305907 -287.75877075 376.82857291 -295.15698242 381.43505859 C-301.00111364 385.0708487 -306.87744171 388.64667543 -312.78540039 392.17773438 C-323.86439507 398.80466953 -334.9171416 405.4718048 -345.91040039 412.24023438 C-346.75957031 412.76069336 -347.60874023 413.28115234 -348.48364258 413.81738281 C-350.82212779 415.25738268 -353.14918842 416.71404575 -355.47290039 418.17773438 C-356.14474365 418.58967041 -356.81658691 419.00160645 -357.50878906 419.42602539 C-365.50212291 424.52926467 -370.39862123 431.06800711 -372.91040039 440.24023438 C-374.23988269 448.18999588 -371.7048803 455.21567866 -367.17993164 461.73242188 C-361.88513587 468.1791792 -356.9014887 471.69017244 -348.54321289 472.61132812 C-336.20111241 473.04927363 -328.36999741 468.12518011 -318.09558105 461.76019287 C-315.02406632 459.85779314 -311.94131999 457.97372867 -308.85961914 456.08789062 C-308.21409088 455.69230957 -307.56856262 455.29672852 -306.9034729 454.88916016 C-299.53698571 450.38367729 -292.09702878 446.00354227 -284.66040039 441.61523438 C-273.6921293 435.13982869 -262.82677041 428.53235599 -252.0793457 421.69482422 C-251.17152344 421.11941895 -250.26370117 420.54401367 -249.32836914 419.95117188 C-248.1492395 419.19779541 -248.1492395 419.19779541 -246.94628906 418.42919922 C-244.91040039 417.24023438 -244.91040039 417.24023438 -241.91040039 416.24023438 C-241.5352832 417.449375 -241.16016602 418.65851563 -240.77368164 419.90429688 C-238.63183638 426.32104945 -235.85796315 432.44527996 -233.09790039 438.61523438 C-232.33509766 440.34773437 -232.33509766 440.34773437 -231.55688477 442.11523438 C-226.85601992 452.67281676 -222.0113176 462.55588047 -214.53540039 471.42773438 C-213.96233154 472.11625488 -213.3892627 472.80477539 -212.79882812 473.51416016 C-195.18962913 494.48400725 -172.25395149 506.42241116 -145.91040039 513.24023438 C-145.12858398 513.4490625 -144.34676758 513.65789062 -143.54125977 513.87304688 C-86.19682922 528.64145767 -23.91661123 505.87753488 27.26293945 481.57568359 C29.78674095 480.38331927 32.3188965 479.21346607 34.85913086 478.05664062 C62.25854927 465.53322372 87.13719738 448.71090254 110.08959961 429.24023438 C111.17126006 428.34395336 112.2533148 427.44814804 113.33569336 426.55273438 C125.16577873 416.68488272 136.37925145 406.08360148 145.92944336 393.96289062 C147.90118037 391.47771757 149.93958013 389.06564986 152.01318359 386.6652832 C176.61971085 358.09679796 195.16811509 326.25376872 209.83959961 291.67773438 C210.13818878 290.97423859 210.43677795 290.2707428 210.74441528 289.54592896 C236.19257677 234.45240665 236.19257677 234.45240665 236.12084961 176.41210938 C233.12325964 169.64727796 229.00135368 165.19355742 222.06616211 162.43554688 C210.70179695 159.351537 197.11607605 160.27028224 186.55444336 165.49414062 C181.03939513 168.87314346 177.54185915 172.8445452 174.08959961 178.24023438 C173.57792236 178.99248291 173.06624512 179.74473145 172.5390625 180.51977539 C165.27132458 192.416605 162.90048187 206.21850441 159.65209961 219.61523438 C154.22502456 241.81394146 148.56096151 263.83202085 138.71459961 284.55273438 C138.25110107 285.54217041 137.78760254 286.53160645 137.31005859 287.55102539 C128.07857994 307.00794868 116.93449004 324.71484824 103.08959961 341.24023438 C102.28006836 342.23410156 101.47053711 343.22796875 100.63647461 344.25195312 C88.6028578 358.82885724 75.14680722 372.77877783 60.08959961 384.24023438 C59.00656671 385.10976859 57.92599255 385.98237088 56.84741211 386.85742188 C36.31994149 403.43340506 13.6831667 416.66228569 -10.91040039 426.24023438 C-11.88638184 426.62816162 -11.88638184 426.62816162 -12.88208008 427.02392578 C-21.25162766 430.2968952 -29.81493945 432.19647656 -38.59790039 433.99023438 C-39.63140625 434.20131836 -40.66491211 434.41240234 -41.72973633 434.62988281 C-65.66887509 439.27137772 -89.57888266 438.88070488 -110.47290039 425.11523438 C-129.24336775 411.80729352 -139.25360151 393.86265442 -145.78540039 372.17773438 C-146.00099609 371.46319092 -146.2165918 370.74864746 -146.4387207 370.01245117 C-148.67390059 362.20322192 -148.67390059 362.20322192 -147.91040039 359.24023438 C-145.47309082 357.43955881 -143.2549674 356.07942342 -140.59790039 354.67773438 C-139.00263986 353.78589972 -137.40893832 352.89127182 -135.81665039 351.99414062 C-134.99293945 351.53539551 -134.16922852 351.07665039 -133.32055664 350.60400391 C-120.52226105 343.36218065 -108.35584945 334.94782934 -96.10903931 326.82281494 C-94.54632142 325.78635938 -92.98269481 324.75127236 -91.4180603 323.7177124 C-77.52070816 314.52846728 -64.00326916 304.88232124 -51.22290039 294.17773438 C-50.52213379 293.59540039 -49.82136719 293.01306641 -49.09936523 292.41308594 C-47.03278342 290.69305038 -44.97113718 288.96726508 -42.91040039 287.24023438 C-42.00281982 286.48347412 -42.00281982 286.48347412 -41.0769043 285.71142578 C-34.3802638 280.12682208 -27.82466686 274.41453864 -21.40258789 268.51367188 C-19.20544971 266.50938595 -16.97759958 264.55410022 -14.72290039 262.61523438 C-11.15848052 259.52852026 -7.85494195 256.22683304 -4.57446289 252.84179688 C-2.91040039 251.24023438 -2.91040039 251.24023438 -0.91040039 250.24023438 C-0.91040039 249.58023438 -0.91040039 248.92023438 -0.91040039 248.24023438 C-0.31815674 247.97702393 0.27408691 247.71381348 0.88427734 247.44262695 C3.19071692 246.18510289 4.59110519 244.9171517 6.37475586 243.00195312 C6.98899414 242.34517578 7.60323242 241.68839844 8.23608398 241.01171875 C8.86836914 240.32400391 9.5006543 239.63628906 10.15209961 238.92773438 C10.75731445 238.28255859 11.3625293 237.63738281 11.98608398 236.97265625 C14.04854671 234.75236287 16.07333467 232.50258153 18.08959961 230.24023438 C18.92273682 229.31001465 19.75587402 228.37979492 20.61425781 227.42138672 C27.6969473 219.36864374 33.7363023 210.76523018 39.62402344 201.8125 C41.14525858 199.5006309 42.67980002 197.19806012 44.21655273 194.89648438 C49.18665418 187.41711027 54.00333503 179.86632703 58.56616211 172.13085938 C58.96098282 171.46177551 59.35580353 170.79269165 59.7625885 170.10333252 C76.0499165 142.11156895 81.99058068 112.99068474 74.58569336 81.06787109 C69.21172295 60.81098818 57.52216056 43.46403708 39.39038086 32.62695312 C-14.82362117 3.45706952 -94.44308112 37.26679221 -137.09301758 73.69921875 Z " fill="#000000" transform="translate(378.910400390625,0.759765625)"/>
<path d="M0 0 C7.11939062 5.55312469 11.27653932 11.47401469 13.125 20.4375 C16.72153128 50.68007563 0.29090934 79.15068785 -15.875 103.4375 C-16.40351563 104.241875 -16.93203125 105.04625 -17.4765625 105.875 C-28.78026058 122.58947299 -43.35412535 137.91531851 -59.22265625 150.34765625 C-61.68767166 152.28989962 -64.0720869 154.30580037 -66.4465332 156.35717773 C-116.42876862 199.4375 -116.42876862 199.4375 -127.875 199.4375 C-126.28886513 135.04042411 -107.44408368 67.14345002 -60.65625 21.26171875 C-47.59908333 9.03180407 -18.87995942 -9.62670458 0 0 Z M-53.875 23.4375 C-54.68324219 24.12585938 -55.49148438 24.81421875 -56.32421875 25.5234375 C-96.11633693 60.25775199 -110.89195987 114.49428743 -118.8125 164.8125 C-118.92040863 165.49272217 -119.02831726 166.17294434 -119.13949585 166.8737793 C-120.21979438 173.77107798 -121.16686736 180.45037234 -120.875 187.4375 C-117.45422693 186.17396784 -114.59259071 184.72859115 -111.609375 182.63671875 C-110.81047852 182.07847412 -110.01158203 181.52022949 -109.18847656 180.94506836 C-108.3425293 180.3444458 -107.49658203 179.74382324 -106.625 179.125 C-105.74038086 178.50052979 -104.85576172 177.87605957 -103.94433594 177.23266602 C-86.44510735 164.80420099 -69.30138644 151.65740261 -53.61328125 136.98828125 C-51.01266796 134.56574134 -48.35925892 132.21843217 -45.6875 129.875 C-32.98285609 118.42864351 -23.4005499 104.81744076 -14.86230469 90.11962891 C-13.55246887 87.8879848 -12.17891235 85.69733878 -10.8125 83.5 C0.69563065 64.14976371 11.2064789 41.30397563 6.4765625 18.28125 C4.46512541 12.71111653 1.38369047 7.41393783 -3.875 4.4375 C-21.19014241 0.70689725 -41.29788201 12.47043979 -53.875 23.4375 Z " fill="#000000" transform="translate(348.875,96.5625)"/>
<path d="M0 0 C2.96743313 3.62686272 4 5.2453678 4 10 C2.02 9.01 2.02 9.01 0 8 C0 7.34 0 6.68 0 6 C-0.66 6 -1.32 6 -2 6 C-2.0928125 7.20785156 -2.185625 8.41570312 -2.28125 9.66015625 C-3.00383859 16.09445636 -4.75467133 22.21652242 -6.5 28.4375 C-6.67606781 29.06838531 -6.85213562 29.69927063 -7.03353882 30.34927368 C-23.59175007 89.464562 -52.16555584 144.95395261 -93 191 C-94.18794178 192.37461834 -95.3755127 193.74955738 -96.5625 195.125 C-107.98755217 208.08803997 -119.77201928 220.84794326 -133 232 C-133.95390625 232.84304688 -134.9078125 233.68609375 -135.890625 234.5546875 C-162.91807571 258.36053731 -193.60215706 278.5018464 -226.06835938 294.06884766 C-228.02761493 295.01331185 -229.97476518 295.97999717 -231.921875 296.94921875 C-291.75037282 326.34957662 -366.28500811 340.53598218 -431 320 C-437.51339106 317.72085321 -443.78015829 314.97944469 -450 312 C-450.99435059 311.53255371 -450.99435059 311.53255371 -452.00878906 311.05566406 C-469.43096832 302.75311268 -490.92566505 288.50773175 -500 271 C-499.01 270.34 -498.02 269.68 -497 269 C-496.53851563 269.60585938 -496.07703125 270.21171875 -495.6015625 270.8359375 C-470.62333364 302.92259512 -433.22554242 319.08578935 -393.54467773 324.17553711 C-307.35638522 333.47653391 -219.08449839 296.70174917 -152.79638672 243.45849609 C-144.08380991 236.38470786 -135.70448048 229.00407221 -127.48388672 221.36621094 C-126.00313421 220.00288566 -124.50669674 218.6592778 -123.00390625 217.3203125 C-116.02794475 211.08003495 -109.61436801 204.47394068 -103.36230469 197.51074219 C-102.13077147 196.1450204 -100.88272793 194.79423113 -99.6328125 193.4453125 C-93.34035589 186.61542187 -87.62327837 179.38032942 -82 172 C-81.46213867 171.2972998 -80.92427734 170.59459961 -80.37011719 169.87060547 C-43.5042949 121.49353133 -17.92102886 65.41076086 -5 6 C-6.98 6.33 -8.96 6.66 -11 7 C-8.96914893 1.64593808 -5.57872788 0 0 0 Z " fill="#000000" transform="translate(644,211)"/>
<path d="M0 0 C1.64671412 0.30782496 3.29235576 0.62139234 4.9375 0.9375 C5.85402344 1.11152344 6.77054688 1.28554688 7.71484375 1.46484375 C10 2 10 2 11 3 C10.62206515 6.90532683 10.23947487 10.2815754 9 14 C8.01 14 7.02 14 6 14 C6.33 12.02 6.66 10.04 7 8 C-5.04799198 14.72348426 -17.08990396 21.45544729 -29.0625 28.3125 C-29.91070312 28.79710693 -30.75890625 29.28171387 -31.6328125 29.78100586 C-35.69265763 32.10131137 -39.74599178 34.43183045 -43.7890625 36.78125 C-45.25510837 37.62517367 -46.72124877 38.46893318 -48.1875 39.3125 C-48.85338135 39.7041333 -49.5192627 40.0957666 -50.20532227 40.49926758 C-51.76984706 41.39449918 -53.38138898 42.20673093 -55 43 C-55.66 42.67 -56.32 42.34 -57 42 C-55.66513685 37.99541056 -54.08479795 37.66942578 -50.40234375 35.69921875 C-49.82469772 35.38606216 -49.2470517 35.07290558 -48.65190125 34.7502594 C-47.40324322 34.0742694 -46.15233701 33.40241936 -44.8994751 32.73425293 C-41.58517947 30.96600997 -38.28751408 29.16723813 -34.98828125 27.37109375 C-34.31819031 27.00722565 -33.64809937 26.64335754 -32.95770264 26.26846313 C-23.63351895 21.19059315 -14.5050603 15.77717131 -5.36035156 10.38476562 C-2.25515119 8.56301382 0.86892976 6.7768608 4 5 C2.68 4.34 1.36 3.68 0 3 C0 2.01 0 1.02 0 0 Z " fill="#000000" transform="translate(119,451)"/>
<path d="M0 0 C1.4540625 0.0309375 1.4540625 0.0309375 2.9375 0.0625 C5.0625 4.6875 5.0625 4.6875 3.9375 8.0625 C4.26300502 9.73071323 4.59596063 11.39749557 4.9375 13.0625 C4.6075 13.7225 4.2775 14.3825 3.9375 15.0625 C1.125 15.9375 1.125 15.9375 -2.0625 16.0625 C-4.4375 14.125 -4.4375 14.125 -6.0625 12.0625 C-2.43923261 10.8547442 -1.42103631 11.51938872 1.9375 13.0625 C1.9375 11.7425 1.9375 10.4225 1.9375 9.0625 C0.6175 9.0625 -0.7025 9.0625 -2.0625 9.0625 C-2.0625 8.0725 -2.0625 7.0825 -2.0625 6.0625 C-0.7425 6.0625 0.5775 6.0625 1.9375 6.0625 C1.6075 5.0725 1.2775 4.0825 0.9375 3.0625 C-1.0425 3.7225 -3.0225 4.3825 -5.0625 5.0625 C-3.9375 0.08035714 -3.9375 0.08035714 0 0 Z " fill="#000000" transform="translate(494.0625,470.9375)"/>
<path d="M0 0 C3.0625 0.1875 3.0625 0.1875 5.0625 2.1875 C4.90004442 5.92397845 4.47466356 7.71288742 2 10.5625 C1.360625 11.09875 0.72125 11.635 0.0625 12.1875 C1.7125 12.5175 3.3625 12.8475 5.0625 13.1875 C5.0625 13.8475 5.0625 14.5075 5.0625 15.1875 C1.7625 15.1875 -1.5375 15.1875 -4.9375 15.1875 C-2.9375 11.1875 -2.9375 11.1875 -0.8125 8.625 C1.36735538 6.30372611 1.36735538 6.30372611 1.0625 3.1875 C0.4025 3.1875 -0.2575 3.1875 -0.9375 3.1875 C-1.2675 3.8475 -1.5975 4.5075 -1.9375 5.1875 C-2.9275 5.1875 -3.9175 5.1875 -4.9375 5.1875 C-3.82120474 0.24390669 -3.82120474 0.24390669 0 0 Z " fill="#000000" transform="translate(485.9375,15.8125)"/>
<path d="M0 0 C0.66 0 1.32 0 2 0 C2.66 1.65 3.32 3.3 4 5 C5.11375 4.34 6.2275 3.68 7.375 3 C10.75 1 10.75 1 13 1 C12.9375 2.75 12.9375 2.75 12 5 C9.76067964 6.52956035 7.39572437 7.71657623 5 9 C4.67 9.66 4.34 10.32 4 11 C3.01 11 2.02 11 1 11 C0.63890458 9.35567294 0.28629924 7.7094792 -0.0625 6.0625 C-0.25972656 5.14597656 -0.45695313 4.22945313 -0.66015625 3.28515625 C-0.77230469 2.53105469 -0.88445312 1.77695312 -1 1 C-0.67 0.67 -0.34 0.34 0 0 Z " fill="#000000" transform="translate(170,344)"/>
<path d="M0 0 C0 4.95 0 9.9 0 15 C-0.99 15 -1.98 15 -3 15 C-3 11.37 -3 7.74 -3 4 C-3.99 4.33 -4.98 4.66 -6 5 C-5.625 3.0625 -5.625 3.0625 -5 1 C-3 0 -3 0 0 0 Z " fill="#000000" transform="translate(114,473)"/>
<path d="M0 0 C0 4.95 0 9.9 0 15 C-0.99 15 -1.98 15 -3 15 C-3 11.37 -3 7.74 -3 4 C-3.99 4.33 -4.98 4.66 -6 5 C-5.625 3.0625 -5.625 3.0625 -5 1 C-3 0 -3 0 0 0 Z " fill="#000000" transform="translate(481,471)"/>
<path d="M0 0 C0 4.95 0 9.9 0 15 C-0.99 15 -1.98 15 -3 15 C-3 11.37 -3 7.74 -3 4 C-3.99 4.33 -4.98 4.66 -6 5 C-5.625 3.0625 -5.625 3.0625 -5 1 C-3 0 -3 0 0 0 Z " fill="#000000" transform="translate(473,16)"/>
<path d="M0 0 C0 4.95 0 9.9 0 15 C-0.66 15 -1.32 15 -2 15 C-2.33 11.37 -2.66 7.74 -3 4 C-3.99 4.33 -4.98 4.66 -6 5 C-6 4.01 -6 3.02 -6 2 C-3 0 -3 0 0 0 Z " fill="#000000" transform="translate(126,473)"/>
<path d="M0 0 C0.66 0.33 1.32 0.66 2 1 C0.51218185 4.78717347 -1.61988409 6.77407001 -5 9 C-5.99 8.67 -6.98 8.34 -8 8 C-6.88333826 4.65001479 -6.25305075 4.20659778 -3.4375 2.3125 C-2.79683594 1.87550781 -2.15617187 1.43851563 -1.49609375 0.98828125 C-1.00238281 0.66214844 -0.50867188 0.33601562 0 0 Z " fill="#000000" transform="translate(316,252)"/>
<path d="M0 0 C0.66 0.33 1.32 0.66 2 1 C0.64978174 5.41889613 -1.26115668 7.34345343 -5 10 C-5.68359375 8.203125 -5.68359375 8.203125 -6 6 C-4.78515625 4.296875 -4.78515625 4.296875 -3.0625 2.75 C-2.21365234 1.96882813 -2.21365234 1.96882813 -1.34765625 1.171875 C-0.90292969 0.78515625 -0.45820313 0.3984375 0 0 Z " fill="#000000" transform="translate(485,386)"/>
<path d="M0 0 C-3.12621626 3.39417765 -5.56541027 5.6062718 -10 7 C-10 5.68 -10 4.36 -10 3 C-3.375 -1.125 -3.375 -1.125 0 0 Z " fill="#000000" transform="translate(149,368)"/>
<path d="M0 0 C-3.12621626 3.39417765 -5.56541027 5.6062718 -10 7 C-10.33 6.01 -10.66 5.02 -11 4 C-9.73760288 3.13341385 -8.46472499 2.28207941 -7.1875 1.4375 C-6.47980469 0.96183594 -5.77210938 0.48617188 -5.04296875 -0.00390625 C-3 -1 -3 -1 0 0 Z " fill="#000000" transform="translate(218,324)"/>
<path d="M0 0 C0.99 0.33 1.98 0.66 3 1 C3 1.66 3 2.32 3 3 C1.35546875 4.32421875 1.35546875 4.32421875 -0.8125 5.6875 C-1.52019531 6.14511719 -2.22789062 6.60273438 -2.95703125 7.07421875 C-5 8 -5 8 -8 7 C-5.42215154 4.35247996 -3.08351902 2.05567935 0 0 Z " fill="#000000" transform="translate(249,300)"/>
<path d="M0 0 C0.66 0.99 1.32 1.98 2 3 C-2.455 5.97 -2.455 5.97 -7 9 C-7.66 8.01 -8.32 7.02 -9 6 C-6.03 4.02 -3.06 2.04 0 0 Z " fill="#000000" transform="translate(267,288)"/>
<path d="M0 0 C0.66 0.33 1.32 0.66 2 1 C1 4 1 4 -1.06640625 5.16796875 C-1.89011719 5.50441406 -2.71382813 5.84085937 -3.5625 6.1875 C-4.38878906 6.53167969 -5.21507812 6.87585938 -6.06640625 7.23046875 C-6.70449219 7.48441406 -7.34257812 7.73835938 -8 8 C-8.33 7.01 -8.66 6.02 -9 5 C-7.54735962 4.1361871 -6.0876837 3.28419546 -4.625 2.4375 C-3.40683594 1.72400391 -3.40683594 1.72400391 -2.1640625 0.99609375 C-1.44992187 0.66738281 -0.73578125 0.33867188 0 0 Z " fill="#000000" transform="translate(289,71)"/>
<path d="M0 0 C0 0.66 0 1.32 0 2 C-4.95 4.475 -4.95 4.475 -10 7 C-10.33 6.01 -10.66 5.02 -11 4 C-9.73760288 3.13341385 -8.46472499 2.28207941 -7.1875 1.4375 C-6.47980469 0.96183594 -5.77210937 0.48617188 -5.04296875 -0.00390625 C-3 -1 -3 -1 0 0 Z " fill="#000000" transform="translate(61,421)"/>
<path d="M0 0 C0.515625 0.2475 1.03125 0.495 1.5625 0.75 C-0.80694013 3.36885488 -3.27483102 5.16866551 -6.4375 6.75 C-7.4275 6.42 -8.4175 6.09 -9.4375 5.75 C-9.4375 5.09 -9.4375 4.43 -9.4375 3.75 C-3.0375 -0.31153846 -3.0375 -0.31153846 0 0 Z " fill="#000000" transform="translate(77.4375,410.25)"/>
<path d="M0 0 C0.99 0.99 1.98 1.98 3 3 C1.8803014 4.00593243 0.7540588 5.0045849 -0.375 6 C-1.00148438 6.556875 -1.62796875 7.11375 -2.2734375 7.6875 C-4 9 -4 9 -6 9 C-5.52797514 4.75177626 -3.03344482 2.80010291 0 0 Z " fill="#000000" transform="translate(471,400)"/>
<path d="M0 0 C0.66 0.33 1.32 0.66 2 1 C0.52440331 5.42679007 -1.90057368 5.91432696 -6 8 C-6.66 8 -7.32 8 -8 8 C-7.9375 6.25 -7.9375 6.25 -7 4 C-4.74876994 2.27481113 -2.59865097 1.23093993 0 0 Z " fill="#000000" transform="translate(94,399)"/>
<path d="M0 0 C0.66 0.99 1.32 1.98 2 3 C0.73760288 3.86658615 -0.53527501 4.71792059 -1.8125 5.5625 C-2.87404297 6.27599609 -2.87404297 6.27599609 -3.95703125 7.00390625 C-6 8 -6 8 -9 7 C-6.19195732 4.03595495 -3.81684226 1.55500981 0 0 Z " fill="#000000" transform="translate(112,388)"/>
<path d="M0 0 C0 0.99 0 1.98 0 3 C-2.97 4.65 -5.94 6.3 -9 8 C-9 6.68 -9 5.36 -9 4 C-4 0 -4 0 0 0 Z " fill="#000000" transform="translate(131,378)"/>
<path d="M0 0 C0.99 0.33 1.98 0.66 3 1 C3 1.66 3 2.32 3 3 C1.3203125 4.2890625 1.3203125 4.2890625 -0.875 5.625 C-1.95394531 6.29402344 -1.95394531 6.29402344 -3.0546875 6.9765625 C-5 8 -5 8 -7 8 C-6.875 6.25 -6.875 6.25 -6 4 C-3.125 1.6875 -3.125 1.6875 0 0 Z " fill="#000000" transform="translate(163,356)"/>
<path d="M0 0 C-0.125 1.75 -0.125 1.75 -1 4 C-3.875 6.3125 -3.875 6.3125 -7 8 C-7.99 7.67 -8.98 7.34 -10 7 C-10 6.34 -10 5.68 -10 5 C-8.3203125 3.7109375 -8.3203125 3.7109375 -6.125 2.375 C-5.40570313 1.92898438 -4.68640625 1.48296875 -3.9453125 1.0234375 C-2 0 -2 0 0 0 Z " fill="#000000" transform="translate(200,334)"/>
<path d="M0 0 C0.66 0.99 1.32 1.98 2 3 C0.92892883 3.86949317 -0.15745944 4.72014205 -1.25 5.5625 C-1.85328125 6.03816406 -2.4565625 6.51382812 -3.078125 7.00390625 C-5 8 -5 8 -7.234375 7.65234375 C-7.81703125 7.43707031 -8.3996875 7.22179687 -9 7 C-6.24479785 4.04070881 -3.53372712 1.96318174 0 0 Z " fill="#000000" transform="translate(233,311)"/>
<path d="M0 0 C0 0.99 0 1.98 0 3 C-1.42578125 4.421875 -1.42578125 4.421875 -3.3125 5.75 C-3.92738281 6.19859375 -4.54226563 6.6471875 -5.17578125 7.109375 C-7 8 -7 8 -10 7 C-10 6.34 -10 5.68 -10 5 C-8.57421875 3.7109375 -8.57421875 3.7109375 -6.6875 2.375 C-6.07261719 1.92898438 -5.45773437 1.48296875 -4.82421875 1.0234375 C-3 0 -3 0 0 0 Z " fill="#000000" transform="translate(285,277)"/>
<path d="M0 0 C0.66 0.33 1.32 0.66 2 1 C0.51218185 4.78717347 -1.61988409 6.77407001 -5 9 C-5.99 8.67 -6.98 8.34 -8 8 C-5.33333333 5.33333333 -2.66666667 2.66666667 0 0 Z " fill="#000000" transform="translate(348,226)"/>
<path d="M0 0 C0.99 0 1.98 0 3 0 C2.125 7.625 2.125 7.625 1 11 C0.01 10.67 -0.98 10.34 -2 10 C-1.34 6.7 -0.68 3.4 0 0 Z " fill="#000000" transform="translate(580,196)"/>
<path d="M0 0 C0.99 0 1.98 0 3 0 C2.38545304 3.99455527 0.29353263 6.74466336 -2 10 C-2.99 9.67 -3.98 9.34 -5 9 C-3.35 6.03 -1.7 3.06 0 0 Z " fill="#000000" transform="translate(403,170)"/>
<path d="M0 0 C0 0.99 0 1.98 0 3 C-4.95 4.485 -4.95 4.485 -10 6 C-10.33 5.01 -10.66 4.02 -11 3 C-9.73160474 2.49384702 -8.46016898 1.99530901 -7.1875 1.5 C-6.12595703 1.08234375 -6.12595703 1.08234375 -5.04296875 0.65625 C-3 0 -3 0 0 0 Z " fill="#000000" transform="translate(375,463)"/>
<path d="M0 0 C1.17539996 0.92652701 2.34010577 1.86663387 3.5 2.8125 C4.1496875 3.33457031 4.799375 3.85664063 5.46875 4.39453125 C7 6 7 6 7 9 C3.18315774 7.44499019 0.80804268 4.96404505 -2 2 C-1.34 1.34 -0.68 0.68 0 0 Z " fill="#000000" transform="translate(219,448)"/>
<path d="M0 0 C3.13506611 0.33589994 4.025249 1.02665172 6.25 3.375 C8 6 8 6 8 9 C6.25 8.875 6.25 8.875 4 8 C0 2.77777778 0 2.77777778 0 0 Z " fill="#000000" transform="translate(205,434)"/>
<path d="M0 0 C0.99 0.33 1.98 0.66 3 1 C0.19195732 3.96404505 -2.18315774 6.44499019 -6 8 C-6 6.68 -6 5.36 -6 4 C-3.1875 1.6875 -3.1875 1.6875 0 0 Z " fill="#000000" transform="translate(441,426)"/>
<path d="M0 0 C2.61724095 2.36797991 4.32861729 4.89600354 6 8 C6 8.66 6 9.32 6 10 C4.140625 9.75390625 4.140625 9.75390625 2 9 C0.734375 7.15234375 0.734375 7.15234375 -0.25 4.9375 C-0.58515625 4.20402344 -0.9203125 3.47054688 -1.265625 2.71484375 C-1.50796875 2.14894531 -1.7503125 1.58304687 -2 1 C-1.34 0.67 -0.68 0.34 0 0 Z " fill="#000000" transform="translate(196,417)"/>
<path d="M0 0 C0.99 0 1.98 0 3 0 C3 3.63 3 7.26 3 11 C2.01 11 1.02 11 0 11 C0 7.37 0 3.74 0 0 Z " fill="#000000" transform="translate(163,286)"/>
<path d="M0 0 C-1.49835228 4.66154042 -4.88463591 5.86610751 -9 8 C-9 6.68 -9 5.36 -9 4 C-4 0 -4 0 0 0 Z " fill="#000000" transform="translate(302,265)"/>
<path d="M0 0 C0.99 0 1.98 0 3 0 C2.71758359 1.46015291 2.42373386 2.91809793 2.125 4.375 C1.96257812 5.18710938 1.80015625 5.99921875 1.6328125 6.8359375 C1 9 1 9 -1 11 C-1.66 10.67 -2.32 10.34 -3 10 C-2.01 6.7 -1.02 3.4 0 0 Z " fill="#000000" transform="translate(179,209)"/>
<path d="M0 0 C0.556875 0.268125 1.11375 0.53625 1.6875 0.8125 C-1.12054268 3.77654505 -3.49565774 6.25749019 -7.3125 7.8125 C-7.3125 4.8125 -7.3125 4.8125 -5.0625 2.0625 C-2.3125 -0.1875 -2.3125 -0.1875 0 0 Z " fill="#000000" transform="translate(378.3125,199.1875)"/>
<path d="M0 0 C0.99 0.33 1.98 0.66 3 1 C-1 8.71428571 -1 8.71428571 -5 10 C-4.49701212 5.59885603 -2.91227269 3.28804981 0 0 Z " fill="#000000" transform="translate(217,139)"/>
<path d="M0 0 C0.99 0.33 1.98 0.66 3 1 C1.47291037 4.43595166 -0.59927045 7.11912454 -3 10 C-3.99 9.67 -4.98 9.34 -6 9 C-4 6 -2 3 0 0 Z " fill="#000000" transform="translate(229,123)"/>
<path d="M0 0 C0.99 0 1.98 0 3 0 C2.67 3.63 2.34 7.26 2 11 C1.01 11 0.02 11 -1 11 C-0.67 7.37 -0.34 3.74 0 0 Z " fill="#000000" transform="translate(423,115)"/>
<path d="M0 0 C0.99 0 1.98 0 3 0 C3 3.63 3 7.26 3 11 C2.01 11 1.02 11 0 11 C0 7.37 0 3.74 0 0 Z " fill="#000000" transform="translate(424,95)"/>
<path d="M0 0 C0.99 0.33 1.98 0.66 3 1 C3 1.66 3 2.32 3 3 C1.57421875 4.32421875 1.57421875 4.32421875 -0.3125 5.6875 C-0.92738281 6.14511719 -1.54226563 6.60273437 -2.17578125 7.07421875 C-2.77777344 7.37972656 -3.37976563 7.68523437 -4 8 C-4.99 7.67 -5.98 7.34 -7 7 C-4.66666667 4.66666667 -2.33333333 2.33333333 0 0 Z " fill="#000000" transform="translate(271,82)"/>
<path d="M0 0 C0.99 0.33 1.98 0.66 3 1 C3.73046875 3.06640625 3.73046875 3.06640625 4.1875 5.5625 C4.34605469 6.38878906 4.50460937 7.21507813 4.66796875 8.06640625 C4.77753906 8.70449219 4.88710938 9.34257813 5 10 C4.01 10.33 3.02 10.66 2 11 C1.01 7.7 0.02 4.4 -1 1 C-0.67 0.67 -0.34 0.34 0 0 Z " fill="#000000" transform="translate(420,76)"/>
<path d="M0 0 C-2.1290142 2.34191563 -4.04408729 3.83554954 -7 5 C-8.32 5 -9.64 5 -11 5 C-10 2 -10 2 -7.1875 0.25 C-4.03596914 -0.98589446 -3.03070628 -1.28222189 0 0 Z " fill="#000000" transform="translate(309,64)"/>
<path d="M0 0 C1.15224028 0.92961422 2.29659176 1.8690125 3.4375 2.8125 C4.07558594 3.33457031 4.71367187 3.85664062 5.37109375 4.39453125 C7 6 7 6 8 9 C7.01 9.33 6.02 9.66 5 10 C3.96704564 8.90716423 2.94892165 7.80029421 1.9375 6.6875 C1.36902344 6.07261719 0.80054688 5.45773438 0.21484375 4.82421875 C-0.38650391 3.92123047 -0.38650391 3.92123047 -1 3 C-0.67 2.01 -0.34 1.02 0 0 Z " fill="#000000" transform="translate(410,59)"/>
<path d="M0 0 C0 0.66 0 1.32 0 2 C-6.5 5 -6.5 5 -11 5 C-10 2 -10 2 -6.625 0.25 C-3 -1 -3 -1 0 0 Z " fill="#000000" transform="translate(327,56)"/>
<path d="M0 0 C0 0.99 0 1.98 0 3 C-3.63 3.33 -7.26 3.66 -11 4 C-11 3.01 -11 2.02 -11 1 C-7.26562152 0.12132271 -3.83225427 -0.08912219 0 0 Z " fill="#000000" transform="translate(365,46)"/>
<path d="M0 0 C0 0.99 0 1.98 0 3 C-3.63 3.33 -7.26 3.66 -11 4 C-11 3.01 -11 2.02 -11 1 C-7.27569643 0.30710631 -3.78916254 -0.11144596 0 0 Z " fill="#000000" transform="translate(318,477)"/>
<path d="M0 0 C3.3 0.99 6.6 1.98 10 3 C10 3.99 10 4.98 10 6 C6.28111761 5.49287967 3.26545761 4.88391785 0 3 C0 2.01 0 1.02 0 0 Z " fill="#000000" transform="translate(250,470)"/>
<path d="M0 0 C-1 3 -1 3 -3.875 4.6875 C-7 6 -7 6 -10 6 C-10 5.01 -10 4.02 -10 3 C-6.27034861 0.96564469 -4.33094958 0 0 0 Z " fill="#000000" transform="translate(393,456)"/>
<path d="M0 0 C-3.01887244 3.48331435 -5.56909529 4.79157144 -10 6 C-10.33 5.01 -10.66 4.02 -11 3 C-9.73581754 2.30034557 -8.46334598 1.61565237 -7.1875 0.9375 C-6.47980469 0.55464844 -5.77210938 0.17179687 -5.04296875 -0.22265625 C-3 -1 -3 -1 0 0 Z " fill="#000000" transform="translate(411,448)"/>
<path d="M0 0 C-2.25740623 2.33524782 -4.2805761 4.18705073 -7 6 C-7.99 6 -8.98 6 -10 6 C-10 5.01 -10 4.02 -10 3 C-3.375 -1.125 -3.375 -1.125 0 0 Z " fill="#000000" transform="translate(428,438)"/>
<path d="M0 0 C0.99 0 1.98 0 3 0 C5.03435531 3.72965139 6 5.66905042 6 10 C3 9 3 9 1.3125 6.125 C0 3 0 3 0 0 Z " fill="#000000" transform="translate(186,400)"/>
<path d="M0 0 C0.99 0 1.98 0 3 0 C2.52794881 4.24846075 0.11122478 6.26819288 -3 9 C-3.66 9 -4.32 9 -5 9 C-4.42636089 5.12793601 -2.65894107 2.81534937 0 0 Z " fill="#000000" transform="translate(497,372)"/>
<path d="M0 0 C0.99 0.33 1.98 0.66 3 1 C3.73046875 3.06640625 3.73046875 3.06640625 4.1875 5.5625 C4.34605469 6.38878906 4.50460938 7.21507812 4.66796875 8.06640625 C4.77753906 8.70449219 4.88710937 9.34257812 5 10 C4.01 10.33 3.02 10.66 2 11 C0.57741188 7.17679443 -0.24042276 4.08718695 0 0 Z " fill="#000000" transform="translate(174,363)"/>
<path d="M0 0 C0.66 0.33 1.32 0.66 2 1 C0.7508258 4.45925163 -0.67527795 7.14693203 -3 10 C-3.99 9.67 -4.98 9.34 -6 9 C-4.47291037 5.56404834 -2.40072955 2.88087546 0 0 Z " fill="#000000" transform="translate(510,356)"/>
<path d="M0 0 C0.99 0 1.98 0 3 0 C4.28317892 3.84953676 4.06643637 6.94738135 4 11 C3.01 10.67 2.02 10.34 1 10 C0.67 6.7 0.34 3.4 0 0 Z " fill="#000000" transform="translate(166,325)"/>
<path d="M0 0 C0.99 0 1.98 0 3 0 C2.39009109 3.55780196 1.4216319 6.6828589 0 10 C-0.99 10 -1.98 10 -3 10 C-2.39009109 6.44219804 -1.4216319 3.3171411 0 0 Z " fill="#000000" transform="translate(556,271)"/>
<path d="M0 0 C0.99 0 1.98 0 3 0 C2.67 3.3 2.34 6.6 2 10 C1.01 10.33 0.02 10.66 -1 11 C-1.14285714 3.57142857 -1.14285714 3.57142857 0 0 Z " fill="#000000" transform="translate(168,247)"/>
<path d="M0 0 C0 0.99 0 1.98 0 3 C-1.4609375 4.38671875 -1.4609375 4.38671875 -3.375 5.6875 C-4.00148438 6.12449219 -4.62796875 6.56148437 -5.2734375 7.01171875 C-7 8 -7 8 -9 8 C-8.66410006 4.86493389 -7.97334828 3.974751 -5.625 1.75 C-3 0 -3 0 0 0 Z " fill="#000000" transform="translate(334,240)"/>
<path d="M0 0 C-1.24762828 3.84685385 -2.3870391 6.02929405 -6 8 C-6.99 7.67 -7.98 7.34 -9 7 C-8.07347299 5.82460004 -7.13336613 4.65989423 -6.1875 3.5 C-5.66542969 2.8503125 -5.14335937 2.200625 -4.60546875 1.53125 C-3 0 -3 0 0 0 Z " fill="#000000" transform="translate(394,186)"/>
<path d="M0 0 C0.99 0 1.98 0 3 0 C2.53199289 4.05606165 2.12046792 7.46588679 0 11 C-0.66 11 -1.32 11 -2 11 C-1 3.57142857 -1 3.57142857 0 0 Z " fill="#000000" transform="translate(419,134)"/>
<path d="M0 0 C3.3 0.66 6.6 1.32 10 2 C9.67 2.99 9.34 3.98 9 5 C5.7 4.34 2.4 3.68 -1 3 C-0.67 2.01 -0.34 1.02 0 0 Z " fill="#000000" transform="translate(269,476)"/>
<path d="M0 0 C3.59391114 1.33488128 6.75490696 2.96022723 10 5 C9.67 5.66 9.34 6.32 9 7 C5.51375944 6.3543999 2.87501211 5.07639763 0 3 C0 2.01 0 1.02 0 0 Z " fill="#000000" transform="translate(233,461)"/>
<path d="M0 0 C-1.49041773 3.79379058 -3.69062512 5.68343758 -7 8 C-7.66 8 -8.32 8 -9 8 C-8.66410006 4.86493389 -7.97334828 3.974751 -5.625 1.75 C-3 0 -3 0 0 0 Z " fill="#000000" transform="translate(459,414)"/>
<path d="M0 0 C0.66 0.33 1.32 0.66 2 1 C0.7580393 4.43927579 -0.55740284 7.25207819 -3 10 C-3.66 10 -4.32 10 -5 10 C-4.49701212 5.59885603 -2.91227269 3.28804981 0 0 Z " fill="#000000" transform="translate(521,340)"/>
<path d="M0 0 C0.66 0.33 1.32 0.66 2 1 C1.3543999 4.48624056 0.07639763 7.12498789 -2 10 C-2.99 10 -3.98 10 -5 10 C-3.66511872 6.40608886 -2.03977277 3.24509304 0 0 Z " fill="#000000" transform="translate(531,323)"/>
<path d="M0 0 C0.66 0.33 1.32 0.66 2 1 C1.39009109 4.55780196 0.4216319 7.6828589 -1 11 C-1.99 10.67 -2.98 10.34 -4 10 C-3.52449439 8.51965236 -3.04448784 7.04074979 -2.5625 5.5625 C-2.29566406 4.73878906 -2.02882813 3.91507813 -1.75390625 3.06640625 C-1 1 -1 1 0 0 Z " fill="#000000" transform="translate(564,252)"/>
<path d="M0 0 C0.99 0 1.98 0 3 0 C2.34 3.3 1.68 6.6 1 10 C0.01 10 -0.98 10 -2 10 C-1.125 2.25 -1.125 2.25 0 0 Z " fill="#000000" transform="translate(173,228)"/>
<path d="M0 0 C0.99 0 1.98 0 3 0 C2.34 3.3 1.68 6.6 1 10 C0.01 10 -0.98 10 -2 10 C-1.34 6.7 -0.68 3.4 0 0 Z " fill="#000000" transform="translate(575,215)"/>
<path d="M0 0 C-1.5830577 4.2742558 -4.50568404 6.26531794 -8 9 C-8 5 -8 5 -5.6875 2.25 C-3 0 -3 0 0 0 Z " fill="#000000" transform="translate(365,213)"/>
<path d="M0 0 C0.99 0 1.98 0 3 0 C1.8905928 3.48670834 0.73662334 6.77484237 -1 10 C-1.99 9.67 -2.98 9.34 -4 9 C-2.68 6.03 -1.36 3.06 0 0 Z " fill="#000000" transform="translate(187,191)"/>
<path d="M0 0 C0.66 0 1.32 0 2 0 C1.43454163 3.95820859 0.19097652 6.6659053 -2 10 C-2.99 9.67 -3.98 9.34 -5 9 C-3.7580393 5.56072421 -2.44259716 2.74792181 0 0 Z " fill="#000000" transform="translate(206,156)"/>
<path d="M0 0 C0.99 0.33 1.98 0.66 3 1 C0.03 4.96 0.03 4.96 -3 9 C-3.99 8.67 -4.98 8.34 -6 8 C-4.55746343 4.63408134 -2.66735273 2.48952921 0 0 Z " fill="#000000" transform="translate(242,109)"/>
<path d="M0 0 C0.33 0.99 0.66 1.98 1 3 C-0.29009643 3.50403768 -1.58213789 4.00309926 -2.875 4.5 C-3.95394531 4.91765625 -3.95394531 4.91765625 -5.0546875 5.34375 C-7 6 -7 6 -9 6 C-8.67 4.68 -8.34 3.36 -8 2 C-5.36 1.34 -2.72 0.68 0 0 Z " fill="#000000" transform="translate(344,49)"/>
<path d="M0 0 C3.95820859 0.56545837 6.6659053 1.80902348 10 4 C9.67 4.99 9.34 5.98 9 7 C4.545 5.02 4.545 5.02 0 3 C0 2.01 0 1.02 0 0 Z " fill="#000000" transform="translate(393,49)"/>
<path d="M0 0 C0 0.99 0 1.98 0 3 C-3.50776784 4.60355101 -6.14354879 5.22036864 -10 5 C-9.67 4.01 -9.34 3.02 -9 2 C-3.21052632 0 -3.21052632 0 0 0 Z " fill="#000000" transform="translate(356,469)"/>
<path d="M0 0 C0.99 0 1.98 0 3 0 C3.99 3.3 4.98 6.6 6 10 C5.01 10 4.02 10 3 10 C2.01 6.7 1.02 3.4 0 0 Z " fill="#000000" transform="translate(179,382)"/>
<path d="M0 0 C0.99 0.33 1.98 0.66 3 1 C1.68 3.97 0.36 6.94 -1 10 C-1.99 10 -2.98 10 -4 10 C-3.29445932 6.33118845 -1.72264494 3.29549466 0 0 Z " fill="#000000" transform="translate(540,306)"/>
<path d="M0 0 C0.99 0.33 1.98 0.66 3 1 C2.01 3.97 1.02 6.94 0 10 C-0.99 10 -1.98 10 -3 10 C-2.69201674 8.51988629 -2.378482 7.04092675 -2.0625 5.5625 C-1.88847656 4.73878906 -1.71445312 3.91507813 -1.53515625 3.06640625 C-1 1 -1 1 0 0 Z " fill="#000000" transform="translate(570,234)"/>
<path d="M0 0 C0.99 0.33 1.98 0.66 3 1 C2.07347299 2.17539996 1.13336613 3.34010577 0.1875 4.5 C-0.33457031 5.1496875 -0.85664063 5.799375 -1.39453125 6.46875 C-3 8 -3 8 -6 8 C-6 7.01 -6 6.02 -6 5 C-3.1875 2.25 -3.1875 2.25 0 0 Z " fill="#000000" transform="translate(256,95)"/>
<path d="M0 0 C0 0.99 0 1.98 0 3 C-3.3 3.33 -6.6 3.66 -10 4 C-9.67 3.01 -9.34 2.02 -9 1 C-5.846632 0.29925156 -3.27275026 0 0 0 Z " fill="#000000" transform="translate(337,474)"/>
<path d="M0 0 C0.99 0 1.98 0 3 0 C3.33 3.3 3.66 6.6 4 10 C3.01 10 2.02 10 1 10 C0.67 6.7 0.34 3.4 0 0 Z " fill="#000000" transform="translate(164,306)"/>
<path d="M0 0 C0.99 0 1.98 0 3 0 C2.67 3.3 2.34 6.6 2 10 C1.01 10 0.02 10 -1 10 C-0.67 6.7 -0.34 3.4 0 0 Z " fill="#000000" transform="translate(165,267)"/>
<path d="M0 0 C0.99 0.33 1.98 0.66 3 1 C0.525 5.455 0.525 5.455 -2 10 C-2.66 10 -3.32 10 -4 10 C-3.43454163 6.04179141 -2.19097652 3.3340947 0 0 Z " fill="#000000" transform="translate(196,173)"/>
<path d="M0 0 C0.99 0.66 1.98 1.32 3 2 C1.35 4.97 -0.3 7.94 -2 11 C-2.66 10.67 -3.32 10.34 -4 10 C-2.8905928 6.51329166 -1.73662334 3.22515763 0 0 Z " fill="#000000" transform="translate(413,152)"/>
<path d="M0 0 C3.3 0 6.6 0 10 0 C10 0.99 10 1.98 10 3 C7.03 3 4.06 3 1 3 C0.67 2.01 0.34 1.02 0 0 Z " fill="#000000" transform="translate(374,46)"/>
<path d="M0 0 C0.99 0 1.98 0 3 0 C2.43454163 3.95820859 1.19097652 6.6659053 -1 10 C-1.66 9.67 -2.32 9.34 -3 9 C-2.01 6.03 -1.02 3.06 0 0 Z " fill="#000000" transform="translate(548,289)"/>
<path d="M0 0 C3.3 0.33 6.6 0.66 10 1 C10 1.66 10 2.32 10 3 C6.7 3 3.4 3 0 3 C0 2.01 0 1.02 0 0 Z " fill="#000000" transform="translate(288,478)"/>
<path d="M0 0 C0.66 0.33 1.32 0.66 2 1 C1.67 1.99 1.34 2.98 1 4 C-1.0625 4.6875 -1.0625 4.6875 -3 5 C-3 4.01 -3 3.02 -3 2 C-2.01 1.34 -1.02 0.68 0 0 Z " fill="#000000" transform="translate(41,430)"/>
<path d="M0 0 C0.99 0 1.98 0 3 0 C3 1.65 3 3.3 3 5 C2.01 5.33 1.02 5.66 0 6 C0 4.02 0 2.04 0 0 Z " fill="#000000" transform="translate(583,182)"/>
<path d="M0 0 C0.99 0.33 1.98 0.66 3 1 C2.67 1.99 2.34 2.98 2 4 C1.01 3.01 0.02 2.02 -1 1 C-0.67 0.67 -0.34 0.34 0 0 Z " fill="#000000" transform="translate(117,485)"/>
<path d="M0 0 C0.99 0.33 1.98 0.66 3 1 C2.67 1.99 2.34 2.98 2 4 C1.01 3.01 0.02 2.02 -1 1 C-0.67 0.67 -0.34 0.34 0 0 Z " fill="#000000" transform="translate(484,483)"/>
<path d="M0 0 C0.99 0.33 1.98 0.66 3 1 C2.67 1.99 2.34 2.98 2 4 C1.01 3.01 0.02 2.02 -1 1 C-0.67 0.67 -0.34 0.34 0 0 Z " fill="#000000" transform="translate(476,28)"/>
</svg>
