<svg width="547" height="720" viewBox="0 0 547 720" fill="none" xmlns="http://www.w3.org/2000/svg">
<path d="M427.769 421.264C431.391 413.415 464.536 417.521 469.125 438.772C473.713 460.024 451.516 499.146 439.843 516.051L388.828 592.122C375.042 611.14 341.917 653.522 319.7 670.91C291.928 692.644 279.249 710.153 232.761 717.096C214.247 718.907 175.406 711.119 168.161 665.476C160.917 619.833 168.564 565.356 173.293 543.823C181.242 515.648 197.684 458.877 199.858 457.186L89.0718 632.27C60.0924 639.113 -22.9341 640.662 11.8412 592.122C46.6165 543.581 151.103 396.876 199 320H141H57.9793C46.8101 307.623 32.5619 245.274 64.9223 244.067C97.2826 242.86 225.114 243.428 256.307 243.931C280.155 168.866 378.262 -8.12994 510.481 47.7159C480.193 81.324 393.914 171.377 373.87 244.067H543.218C542.111 250.708 527.144 309.133 505.651 323.622H347.472C315.373 398.687 252.745 542.132 259.024 592.122C262.143 612.649 256.851 628.225 309.738 584.273C362.625 540.321 410.462 457.287 427.769 421.264Z" stroke="black" stroke-width="5"/>
<path d="M49.6193 406.456V421.002H47.858V408.303H47.7727L44.2216 410.661V408.871L47.858 406.456H49.6193ZM54.1932 421.116C53.8428 421.116 53.5421 420.99 53.2912 420.739C53.0402 420.488 52.9148 420.188 52.9148 419.837C52.9148 419.487 53.0402 419.186 53.2912 418.935C53.5421 418.684 53.8428 418.559 54.1932 418.559C54.5436 418.559 54.8442 418.684 55.0952 418.935C55.3461 419.186 55.4716 419.487 55.4716 419.837C55.4716 420.069 55.4124 420.282 55.294 420.476C55.1804 420.671 55.0265 420.827 54.8324 420.945C54.643 421.059 54.4299 421.116 54.1932 421.116ZM61.8263 406.456V421.002H60.065V408.303H59.9798L56.4286 410.661V408.871L60.065 406.456H61.8263Z" fill="black"/>
<path d="M320.619 22.4545V37H318.858V24.3011H318.773L315.222 26.6591V24.8693L318.858 22.4545H320.619ZM325.193 37.1136C324.843 37.1136 324.542 36.9882 324.291 36.7372C324.04 36.4863 323.915 36.1856 323.915 35.8352C323.915 35.4848 324.04 35.1842 324.291 34.9332C324.542 34.6823 324.843 34.5568 325.193 34.5568C325.544 34.5568 325.844 34.6823 326.095 34.9332C326.346 35.1842 326.472 35.4848 326.472 35.8352C326.472 36.0672 326.412 36.2803 326.294 36.4744C326.18 36.6686 326.027 36.8248 325.832 36.9432C325.643 37.0568 325.43 37.1136 325.193 37.1136ZM329.451 37V35.7216L334.252 30.4659C334.816 29.8504 335.28 29.3153 335.644 28.8608C336.009 28.4015 336.279 27.9706 336.454 27.5682C336.634 27.161 336.724 26.7348 336.724 26.2898C336.724 25.7784 336.601 25.3357 336.354 24.9616C336.113 24.5876 335.781 24.2988 335.36 24.0952C334.939 23.8916 334.465 23.7898 333.94 23.7898C333.381 23.7898 332.893 23.9058 332.477 24.1378C332.065 24.3651 331.745 24.6847 331.518 25.0966C331.295 25.5085 331.184 25.9915 331.184 26.5455H329.508C329.508 25.6932 329.704 24.9451 330.097 24.3011C330.49 23.6572 331.025 23.1553 331.702 22.7955C332.384 22.4356 333.149 22.2557 333.996 22.2557C334.849 22.2557 335.604 22.4356 336.262 22.7955C336.92 23.1553 337.436 23.6406 337.81 24.2514C338.184 24.8622 338.371 25.5417 338.371 26.2898C338.371 26.8248 338.274 27.348 338.08 27.8594C337.891 28.366 337.559 28.9318 337.086 29.5568C336.617 30.1771 335.966 30.9347 335.133 31.8295L331.866 35.3239V35.4375H338.627V37H329.451Z" fill="black"/>
<path d="M150.506 194V192.722L155.307 187.466C155.87 186.85 156.334 186.315 156.699 185.861C157.063 185.402 157.333 184.971 157.509 184.568C157.688 184.161 157.778 183.735 157.778 183.29C157.778 182.778 157.655 182.336 157.409 181.962C157.168 181.588 156.836 181.299 156.415 181.095C155.993 180.892 155.52 180.79 154.994 180.79C154.436 180.79 153.948 180.906 153.531 181.138C153.119 181.365 152.8 181.685 152.572 182.097C152.35 182.509 152.239 182.991 152.239 183.545H150.562C150.562 182.693 150.759 181.945 151.152 181.301C151.545 180.657 152.08 180.155 152.757 179.795C153.439 179.436 154.204 179.256 155.051 179.256C155.903 179.256 156.659 179.436 157.317 179.795C157.975 180.155 158.491 180.641 158.865 181.251C159.239 181.862 159.426 182.542 159.426 183.29C159.426 183.825 159.329 184.348 159.135 184.859C158.946 185.366 158.614 185.932 158.141 186.557C157.672 187.177 157.021 187.935 156.188 188.83L152.92 192.324V192.438H159.682V194H150.506Z" fill="black"/>
<path d="M491.619 152.455V167H489.858V154.301H489.773L486.222 156.659V154.869L489.858 152.455H491.619ZM496.193 167.114C495.843 167.114 495.542 166.988 495.291 166.737C495.04 166.486 494.915 166.186 494.915 165.835C494.915 165.485 495.04 165.184 495.291 164.933C495.542 164.682 495.843 164.557 496.193 164.557C496.544 164.557 496.844 164.682 497.095 164.933C497.346 165.184 497.472 165.485 497.472 165.835C497.472 166.067 497.412 166.28 497.294 166.474C497.18 166.669 497.027 166.825 496.832 166.943C496.643 167.057 496.43 167.114 496.193 167.114ZM504.819 167.199C503.881 167.199 503.046 167.038 502.312 166.716C501.583 166.394 501.003 165.946 500.572 165.374C500.146 164.796 499.914 164.126 499.876 163.364H501.665C501.703 163.832 501.864 164.237 502.148 164.578C502.433 164.914 502.804 165.175 503.263 165.359C503.723 165.544 504.232 165.636 504.79 165.636C505.415 165.636 505.969 165.527 506.452 165.31C506.935 165.092 507.314 164.789 507.589 164.401C507.863 164.012 508.001 163.562 508.001 163.051C508.001 162.516 507.868 162.045 507.603 161.638C507.338 161.226 506.95 160.904 506.438 160.672C505.927 160.44 505.302 160.324 504.563 160.324H503.398V158.761H504.563C505.141 158.761 505.647 158.657 506.083 158.449C506.523 158.241 506.867 157.947 507.113 157.568C507.364 157.189 507.489 156.744 507.489 156.233C507.489 155.741 507.38 155.312 507.163 154.947C506.945 154.583 506.637 154.299 506.239 154.095C505.846 153.892 505.382 153.79 504.847 153.79C504.345 153.79 503.872 153.882 503.427 154.067C502.987 154.247 502.627 154.509 502.347 154.855C502.068 155.196 501.916 155.608 501.893 156.091H500.188C500.217 155.329 500.446 154.661 500.877 154.088C501.308 153.51 501.871 153.061 502.567 152.739C503.268 152.417 504.038 152.256 504.876 152.256C505.775 152.256 506.547 152.438 507.191 152.803C507.835 153.162 508.33 153.638 508.675 154.23C509.021 154.822 509.194 155.461 509.194 156.148C509.194 156.967 508.978 157.665 508.548 158.243C508.121 158.821 507.541 159.221 506.808 159.443V159.557C507.726 159.708 508.443 160.099 508.96 160.729C509.476 161.354 509.734 162.128 509.734 163.051C509.734 163.842 509.518 164.552 509.087 165.182C508.661 165.807 508.079 166.299 507.34 166.659C506.602 167.019 505.761 167.199 504.819 167.199Z" fill="black"/>
<path d="M355.619 406.455V421H353.858V408.301H353.773L350.222 410.659V408.869L353.858 406.455H355.619ZM360.193 421.114C359.843 421.114 359.542 420.988 359.291 420.737C359.04 420.486 358.915 420.186 358.915 419.835C358.915 419.485 359.04 419.184 359.291 418.933C359.542 418.682 359.843 418.557 360.193 418.557C360.544 418.557 360.844 418.682 361.095 418.933C361.346 419.184 361.472 419.485 361.472 419.835C361.472 420.067 361.412 420.28 361.294 420.474C361.18 420.669 361.027 420.825 360.832 420.943C360.643 421.057 360.43 421.114 360.193 421.114ZM364.11 418.017V416.568L370.502 406.455H371.553V408.699H370.843L366.013 416.341V416.455H374.621V418.017H364.11ZM370.957 421V417.577V416.902V406.455H372.633V421H370.957Z" fill="black"/>
<path d="M150.912 359.592C150.685 359.088 150.093 358.863 149.59 359.09L141.382 362.782C140.878 363.008 140.654 363.6 140.88 364.104C141.107 364.608 141.699 364.832 142.202 364.606L149.498 361.324L152.78 368.62C153.006 369.124 153.598 369.348 154.102 369.122C154.606 368.895 154.83 368.303 154.604 367.8L150.912 359.592ZM65.7658 479.645C77.8908 465.206 96.6921 441.926 113.697 419.007C122.199 407.548 130.259 396.17 136.812 386.027C143.355 375.9 148.433 366.948 150.935 360.357L149.065 359.647C146.643 366.029 141.664 374.832 135.132 384.941C128.611 395.035 120.579 406.375 112.091 417.815C95.1149 440.695 76.3396 463.943 64.2342 478.359L65.7658 479.645Z" fill="black"/>
<path d="M434.953 25.1646C435.362 24.794 435.394 24.1616 435.023 23.7521L428.985 17.0785C428.614 16.669 427.982 16.6374 427.572 17.0079C427.163 17.3785 427.131 18.0109 427.502 18.4204L432.869 24.3525L426.937 29.72C426.528 30.0905 426.496 30.7229 426.867 31.1324C427.237 31.542 427.87 31.5736 428.279 31.203L434.953 25.1646ZM294.978 117.609C294.977 117.616 294.985 117.579 295.027 117.482C295.067 117.392 295.126 117.274 295.208 117.125C295.374 116.828 295.614 116.444 295.933 115.974C296.57 115.037 297.49 113.805 298.674 112.316C301.041 109.343 304.436 105.386 308.672 100.793C317.145 91.6085 328.962 79.9074 342.62 68.4741C356.281 57.0384 371.76 45.8899 387.556 37.792C403.365 29.6882 419.411 24.6813 434.232 25.4218L434.332 23.4243C419.017 22.6591 402.606 27.8298 386.644 36.0122C370.671 44.2006 355.066 55.4472 341.336 66.9406C327.604 78.4365 315.725 90.1987 307.202 99.437C302.941 104.056 299.514 108.05 297.109 111.071C295.908 112.58 294.955 113.856 294.279 114.85C293.942 115.346 293.666 115.784 293.46 116.153C293.27 116.496 293.091 116.864 293.022 117.195L294.978 117.609Z" fill="black"/>
<path d="M427.112 187.459C427.365 187.95 427.969 188.142 428.459 187.888L436.454 183.755C436.944 183.501 437.137 182.898 436.883 182.407C436.629 181.917 436.026 181.724 435.535 181.978L428.429 185.652L424.755 178.546C424.501 178.056 423.898 177.863 423.407 178.117C422.917 178.371 422.724 178.974 422.978 179.465L427.112 187.459ZM479.235 114.356C471.439 123.606 459.481 138.309 448.941 152.362C443.671 159.388 438.748 166.261 434.876 172.214C431.022 178.138 428.147 183.241 427.047 186.697L428.953 187.303C429.962 184.135 432.694 179.236 436.552 173.305C440.391 167.404 445.284 160.57 450.541 153.562C461.052 139.547 472.985 124.874 480.765 115.644L479.235 114.356Z" fill="black"/>
<path d="M65 596.502L236.75 336.252L429 67.002C355.667 218.002 185.9 560.502 209.5 640.502C215.5 671.002 247.5 716.002 318.5 629.002L436.5 472.502M65 285.5H505.5" stroke="black" stroke-width="2" stroke-dasharray="10 10"/>
<path d="M302.96 489.081C303.557 489.655 304.506 489.637 305.081 489.04L314.441 479.312C315.016 478.715 314.998 477.766 314.401 477.191C313.804 476.617 312.854 476.635 312.28 477.232L303.959 485.879L295.312 477.559C294.715 476.984 293.766 477.002 293.191 477.599C292.617 478.196 292.635 479.146 293.232 479.72L302.96 489.081ZM348.647 364.352C340.887 380.54 329.272 406.122 319.644 430.269C314.831 442.342 310.505 454.077 307.406 464.11C304.325 474.084 302.395 482.561 302.5 488.029L305.5 487.971C305.405 483.039 307.187 474.982 310.272 464.996C313.338 455.069 317.632 443.416 322.431 431.381C332.028 407.312 343.613 381.793 351.353 365.648L348.647 364.352Z" fill="black"/>
<path d="M389.46 458.656C389.27 457.849 388.462 457.35 387.656 457.54L374.516 460.639C373.71 460.829 373.21 461.637 373.401 462.443C373.591 463.25 374.399 463.749 375.205 463.559L386.884 460.804L389.639 472.484C389.829 473.29 390.637 473.79 391.443 473.599C392.25 473.409 392.749 472.601 392.559 471.795L389.46 458.656ZM305.219 549.316C319.809 541.343 356.757 512.38 389.276 459.789L386.724 458.211C354.443 510.42 317.857 538.991 303.781 546.684L305.219 549.316Z" fill="black"/>
<path d="M218.707 211.707C219.098 211.317 219.098 210.683 218.707 210.293L212.343 203.929C211.953 203.538 211.319 203.538 210.929 203.929C210.538 204.319 210.538 204.953 210.929 205.343L216.586 211L210.929 216.657C210.538 217.047 210.538 217.681 210.929 218.071C211.319 218.462 211.953 218.462 212.343 218.071L218.707 211.707ZM107 212L218 212L218 210L107 210L107 212Z" fill="black"/>
</svg>
