<?xml version="1.0" encoding="UTF-8"?>
<svg version="1.1" xmlns="http://www.w3.org/2000/svg" width="572" height="701">
<path d="M0 0 C11.79778485 10.06923316 22.02040308 22.26993296 25.375 37.75 C39.85283373 27.49978819 54.12018735 16.96797383 68.29614258 6.30493164 C73.65523815 2.27839696 79.04158624 -1.71046534 84.4375 -5.6875 C85.22318359 -6.26693359 86.00886719 -6.84636719 86.81835938 -7.44335938 C89.00090337 -9.04987633 91.18355083 -10.65564404 93.375 -12.25 C94.06824623 -12.88878838 94.06824623 -12.88878838 94.77549744 -13.54048157 C100.24343367 -18.19961362 105.4936802 -17.90090102 112.43359375 -17.73828125 C114.15002831 -17.72766914 114.15002831 -17.72766914 115.90113831 -17.71684265 C119.53893712 -17.68896007 123.1751701 -17.62622842 126.8125 -17.5625 C129.28578499 -17.53740941 131.75909422 -17.51459758 134.23242188 -17.49414062 C140.28047789 -17.43915336 146.32762705 -17.35558685 152.375 -17.25 C150.71579471 -8.06419689 148.23703768 0.85685453 145.73828125 9.83984375 C145.2662263 11.54697914 144.79448368 13.25420093 144.32302856 14.96150208 C143.04848326 19.57360627 141.76955819 24.18448557 140.48981857 28.79515076 C139.13331838 33.68531838 137.78089017 38.57661205 136.42797852 43.46777344 C133.90241255 52.59600346 131.37325616 61.72323423 128.84248829 70.85002327 C126.28957882 80.05694787 123.73975933 89.26472652 121.19039536 98.47263336 C115.96755431 117.33595199 110.73819091 136.19746005 105.50776863 155.05867767 C101.26148556 170.37128715 97.01720149 185.68445079 92.7733078 200.99772263 C92.06302878 203.56059202 91.35271414 206.12345154 90.64239502 208.68630981 C85.03975882 228.90127925 79.44211702 249.1176233 73.8515625 269.3359375 C73.57699659 270.32890146 73.30243069 271.32186543 73.0195446 272.3449192 C70.80089559 280.36872943 68.58235967 288.39257093 66.3638649 296.4164238 C55.73190645 334.86957314 45.06559248 373.31311292 34.375 411.75 C35.31691197 410.50072778 36.25788861 409.25075033 37.19848633 408.00048828 C37.72259598 407.30448517 38.24670563 406.60848206 38.78669739 405.89138794 C40.78164118 403.20175654 42.69835012 400.46241909 44.61010742 397.71337891 C50.57015035 389.1435004 56.81413364 380.86682308 63.375 372.75 C64.13425781 371.80769531 64.89351563 370.86539062 65.67578125 369.89453125 C71.00460175 363.33525486 76.45398466 356.87911568 81.93359375 350.44580078 C83.37699616 348.74765154 84.81381423 347.04409807 86.25 345.33984375 C92.15389624 338.36152521 98.23918334 331.5952974 104.50830078 324.94287109 C107.42563093 321.84641378 110.30069563 318.73752187 113.0625 315.5 C116.65181369 311.32003976 120.59249844 307.50232505 124.53125 303.65625 C126.64021776 301.55246671 128.59684005 299.35926526 130.53515625 297.09765625 C134.75665802 292.22492253 139.2967323 287.67781135 143.86303711 283.1315918 C145.31024385 281.68974779 146.75202026 280.24262884 148.19335938 278.79492188 C152.87082243 274.1144528 157.61378054 269.57462394 162.63891602 265.26782227 C165.1814973 263.04489611 167.51526447 260.66659663 169.875 258.25 C173.523687 254.55176061 177.24246941 251.00781524 181.203125 247.64453125 C182.96081733 246.11129243 184.66438307 244.55010353 186.359375 242.94921875 C186.88797119 242.45292969 187.41656738 241.95664062 187.96118164 241.4453125 C189.00476553 240.46266666 190.04329742 239.47461905 191.07592773 238.48046875 C194.03761537 235.7045951 196.59177047 234.13884086 200.375 232.75 C200.70131884 242.28618443 200.94907611 251.82041118 201.10037041 261.36098671 C201.17303962 265.79281205 201.2713323 270.22078378 201.43115234 274.65039062 C202.57884956 307.29115484 202.57884956 307.29115484 195.49038696 315.16452026 C193.11869524 317.26929784 190.69075089 319.06166301 187.98194885 320.70713806 C185.75035866 322.15537362 184.20236519 323.98781036 182.5625 326.0625 C180.12756901 328.93903057 177.55826093 331.60269566 174.875 334.25 C171.52566271 337.55986698 168.37574044 340.95746949 165.3125 344.53125 C163.38904807 346.7339127 161.41410099 348.88296486 159.42504883 351.02636719 C154.61501915 356.2113435 150.05779731 361.5228882 145.62109375 367.03515625 C143.2866941 369.85673495 140.85509402 372.55590712 138.375 375.25 C134.33545182 379.64378548 130.52820381 384.16838824 126.78125 388.8125 C124.07720726 392.11353919 121.2937381 395.33751673 118.5 398.5625 C114.04667849 403.7196814 109.76639818 408.9812645 105.58813477 414.36303711 C102.10702396 418.84212013 98.53542161 423.23943392 94.9375 427.625 C89.50276225 434.26879797 84.31501805 441.06983856 79.19921875 447.9609375 C76.6739931 451.36149501 74.09661522 454.71612802 71.5 458.0625 C69.78600469 460.28736142 68.07899578 462.51747258 66.375 464.75 C65.88902344 465.38583008 65.40304687 466.02166016 64.90234375 466.67675781 C43.57365393 494.72745953 24.79769546 524.58845506 8.375 555.75 C7.59189453 557.23016602 7.59189453 557.23016602 6.79296875 558.74023438 C-5.27561976 581.71753488 -14.99901086 605.68673272 -23.64746094 630.14111328 C-23.97004883 631.0329834 -24.29263672 631.92485352 -24.625 632.84375 C-24.893125 633.60365234 -25.16125 634.36355469 -25.4375 635.14648438 C-29.91770595 644.96904116 -29.91770595 644.96904116 -33.53987122 646.62590981 C-35.87189113 647.10515818 -38.1358347 647.35435521 -40.50976562 647.53540039 C-42.31826842 647.7392154 -44.12661297 647.94443839 -45.93481445 648.15090942 C-46.87302032 648.24612507 -47.8112262 648.34134071 -48.77786255 648.43944168 C-53.41821951 648.9455997 -58.01965874 649.68454278 -62.63085938 650.40405273 C-64.56016728 650.69529663 -66.48965576 650.98534656 -68.41931152 651.27427673 C-69.40404953 651.42231184 -70.38878754 651.57034695 -71.40336609 651.72286797 C-77.91284227 652.70123923 -84.42243647 653.67882493 -90.93202972 654.65641689 C-96.58367145 655.5052038 -102.23525757 656.35435744 -107.88671875 657.2043457 C-156.81241766 664.56232298 -156.81241766 664.56232298 -179.625 667.75 C-178.99604557 660.83046259 -177.28554298 654.45534115 -175.35546875 647.79296875 C-174.82690957 645.93997213 -174.29835232 644.08697496 -173.76985359 642.23396111 C-173.19361306 640.21782414 -172.61446772 638.20254169 -172.03451538 636.18746948 C-170.7749879 631.81043139 -169.52410559 627.43095003 -168.2746582 623.05102539 C-167.83007627 621.4928398 -167.38548071 619.9346581 -166.94087219 618.3764801 C-166.71535486 617.58611422 -166.48983753 616.79574833 -166.25748634 615.98143196 C-165.55088971 613.50620382 -164.84350015 611.03120347 -164.13591003 608.55625916 C-160.46542514 595.71530665 -156.82048746 582.86723343 -153.1875 570.015625 C-152.77269505 568.54826243 -152.77269505 568.54826243 -152.34951019 567.05125618 C-150.92062654 561.99610625 -149.49213771 556.94084486 -148.06384277 551.88552856 C-145.39549283 542.44148187 -142.72478623 532.99810154 -140.05419159 523.55468941 C-139.13669189 520.31031083 -138.21925266 517.06591515 -137.30181885 513.82151794 C-132.71916014 497.61603153 -128.13359704 481.41136802 -123.546875 465.20703125 C-123.21165644 464.02272459 -122.87643787 462.83841793 -122.53106117 461.61822319 C-119.57947182 451.19047761 -116.62780982 440.76275261 -113.67562866 430.33517456 C-113.06264166 428.16998312 -112.4496554 426.00479148 -111.83666992 423.83959961 C-111.53782866 422.7840516 -111.23898741 421.72850359 -110.93109035 420.64096928 C-109.47596451 415.50093669 -108.02127116 410.36078241 -106.56755066 405.22035217 C-106.28996131 404.23878678 -106.01237196 403.25722139 -105.72637081 402.2459116 C-105.17484209 400.29566231 -104.62333137 398.34540794 -104.07183933 396.39514828 C-102.42744656 390.58164424 -100.77921529 384.76924383 -99.12804699 378.95766068 C-98.08098803 375.27103245 -97.03592161 371.58384125 -95.99124336 367.89653778 C-95.50412798 366.17909304 -95.01609146 364.46190927 -94.52708244 362.74500275 C-93.86278447 360.4123685 -93.20164083 358.07886281 -92.54125977 355.74511719 C-92.34495783 355.05893562 -92.14865589 354.37275406 -91.94640541 353.66577911 C-90.95538467 350.26061249 -90.95538467 350.26061249 -90.625 346.75 C-91.05167969 347.37003906 -91.47835938 347.99007813 -91.91796875 348.62890625 C-104.9178033 367.04310488 -120.46264369 383.40051252 -138.625 396.75 C-139.68460938 397.53117187 -140.74421875 398.31234375 -141.8359375 399.1171875 C-161.65598444 413.26038149 -183.03707097 422.84909078 -206.625 428.75 C-207.62660156 429.00652344 -208.62820312 429.26304687 -209.66015625 429.52734375 C-218.33306828 431.41036902 -227.40279676 431.38380824 -236.24316406 431.66650391 C-238.19183686 431.73481531 -240.13929007 431.83716568 -242.0859375 431.94921875 C-254.56172991 432.44483242 -266.65983274 428.43316596 -277.625 422.75 C-278.924375 422.12351562 -278.924375 422.12351562 -280.25 421.484375 C-294.87504894 414.08682118 -308.18409324 402.26165027 -318.625 389.75 C-319.39714844 388.86570312 -320.16929687 387.98140625 -320.96484375 387.0703125 C-346.46585283 357.44356235 -352.74293082 322.6883482 -350.41845703 284.34277344 C-345.16038907 216.13698444 -316.74689656 153.98433736 -272.13671875 102.6640625 C-269.72745769 99.86887005 -267.4225562 97.01219451 -265.125 94.125 C-261.1106394 89.18258829 -256.71645179 84.74101915 -252.171875 80.296875 C-250.07569301 78.20069301 -248.14694142 76.08507338 -246.25 73.8125 C-241.69772731 68.48699439 -236.42410273 63.90364398 -231.234375 59.21533203 C-229.78735944 57.89782787 -228.3610348 56.55768399 -226.9375 55.21484375 C-218.98183631 47.75640904 -210.39086288 41.22119526 -201.625 34.75 C-200.93100098 34.23646973 -200.23700195 33.72293945 -199.52197266 33.19384766 C-188.32508666 24.96232281 -176.65981544 17.68850524 -164.625 10.75 C-163.99480957 10.3792334 -163.36461914 10.0084668 -162.71533203 9.62646484 C-116.92849421 -17.19905431 -46.01161077 -36.21107404 0 0 Z M-223.04296875 60.4140625 C-225.12466799 62.29735471 -227.23236027 64.13375234 -229.359375 65.96484375 C-233.9966583 70.01453166 -238.34657731 74.3244861 -242.6875 78.6875 C-243.45126953 79.44740234 -244.21503906 80.20730469 -245.00195312 80.99023438 C-249.75072904 85.7471348 -254.25447682 90.64536289 -258.625 95.75 C-259.57444858 96.83297224 -260.52491784 97.91505077 -261.4765625 98.99609375 C-278.75779358 118.80726254 -294.01374352 140.27385634 -307.625 162.75 C-308.07117676 163.48299316 -308.51735352 164.21598633 -308.97705078 164.97119141 C-337.28852158 212.00902513 -354.32257676 282.46504817 -341.30810547 336.56787109 C-339.42112723 343.92429758 -336.85749516 350.88570146 -333.625 357.75 C-333.20734375 358.63945312 -332.7896875 359.52890625 -332.359375 360.4453125 C-318.34210151 388.07706426 -291.10360886 412.4000518 -262.21875 423 C-230.62869084 432.889062 -193.89271825 421.59472729 -165.6796875 406.94921875 C-154.48898833 400.97452343 -144.16453945 394.13640831 -134.625 385.75 C-133.85542969 385.09 -133.08585938 384.43 -132.29296875 383.75 C-113.9887868 367.7224576 -99.6747121 350.27274267 -86.30078125 330.046875 C-85.78427002 329.26666992 -85.26775879 328.48646484 -84.7355957 327.68261719 C-83.45891705 325.83248831 -83.45891705 325.83248831 -83.625 323.75 C-81.645 324.08 -79.665 324.41 -77.625 324.75 C-94.68353501 385.12202619 -111.7492419 445.49202034 -128.82683372 505.85865879 C-131.09143563 513.8637311 -133.35580374 521.86886953 -135.62011719 529.87402344 C-138.67461615 540.67269642 -141.72951423 551.47125642 -144.78482056 562.269701 C-146.71792694 569.10194546 -148.65072074 575.93427822 -150.58319092 582.76670265 C-151.49216481 585.98001153 -152.40150895 589.19321545 -153.31091309 592.40640259 C-154.46743386 596.49287657 -155.62231728 600.57980796 -156.77600098 604.66708374 C-159.39408777 613.93409965 -162.0366193 623.19256656 -164.74511719 632.43359375 C-165.45753675 634.87677425 -166.16939311 637.32011827 -166.88116074 639.76348877 C-167.53485453 641.99480229 -168.19926255 644.2227265 -168.86428833 646.45068359 C-169.2510276 647.77556476 -169.63728017 649.10058814 -170.02294922 650.42578125 C-170.52675613 652.1260144 -170.52675613 652.1260144 -171.04074097 653.8605957 C-171.62550492 656.75249705 -171.43439105 658.00522546 -170.625 660.75 C-169.47941116 660.57318192 -168.33382233 660.39636383 -167.15351868 660.21418762 C-156.17263485 658.51979047 -145.19118208 656.82912182 -134.2092104 655.14178944 C-128.56799128 654.27492655 -122.92695652 653.40690413 -117.28637695 652.53588867 C-111.83057594 651.69346133 -106.37425404 650.85448004 -100.91759872 650.01760483 C-98.75680667 649.68562024 -96.59619449 649.35246274 -94.43576431 649.01813126 C-83.40718988 647.31241332 -72.38474527 645.67340215 -61.30224609 644.35693359 C-59.99097449 644.19721148 -59.99097449 644.19721148 -58.65321255 644.03426266 C-54.61165141 643.54216704 -50.5708769 643.07402446 -46.52082825 642.65742493 C-45.11555416 642.49112156 -43.71040857 642.32372721 -42.30541992 642.1550293 C-41.10286057 642.02670212 -39.90030121 641.89837494 -38.66130066 641.76615906 C-34.59144073 640.40409861 -33.61582916 638.46228721 -31.625 634.75 C-30.75080113 632.7006567 -29.94893044 630.61922867 -29.21484375 628.515625 C-28.57506592 626.71508667 -28.57506592 626.71508667 -27.92236328 624.87817383 C-27.7013092 624.24666412 -27.48025513 623.61515442 -27.25250244 622.96450806 C-15.73203932 590.16456233 -1.23938231 558.72506463 16.375 528.75 C17.12281738 527.46536865 17.12281738 527.46536865 17.88574219 526.15478516 C28.43172205 508.06255537 40.01641167 490.65192548 52.375 473.75 C52.88998047 473.04198242 53.40496094 472.33396484 53.93554688 471.60449219 C62.00999356 460.51037203 70.28516869 449.59213493 78.76269531 438.80322266 C80.25985532 436.89663337 81.75198384 434.98624703 83.2421875 433.07421875 C89.68856972 424.8159117 96.27071033 416.67184598 102.8984375 408.55859375 C104.20547541 406.9576452 105.50923356 405.35402024 106.8125 403.75 C111.24152199 398.30863012 115.74177216 392.93350605 120.28735352 387.58959961 C123.21808541 384.13821312 126.09229231 380.6476381 128.9375 377.125 C132.75763317 372.42644049 136.79211256 367.96786234 140.89453125 363.515625 C143.37964232 360.74482399 145.72944333 357.89948638 148.0625 355 C151.10431943 351.23113761 154.24630494 347.7605222 157.72265625 344.39453125 C159.38345601 342.74158397 160.91122391 341.02748362 162.4375 339.25 C165.85585875 335.2975227 169.38110572 331.45291613 172.9375 327.625 C173.72169312 326.77518555 173.72169312 326.77518555 174.52172852 325.90820312 C175.07272217 325.31716797 175.62371582 324.72613281 176.19140625 324.1171875 C176.79597656 323.43833496 177.40054688 322.75948242 178.0234375 322.06005859 C179.9593827 320.15828186 181.72270358 318.7728705 183.9296875 317.24072266 C189.32117314 313.20061056 193.57360421 309.29451805 195.1053772 302.51959229 C196.0544312 293.85759964 195.72486608 285.19805783 195.33630371 276.51141357 C195.19144314 272.92544862 195.12880767 269.33806512 195.05859375 265.75 C194.90974396 258.74657366 194.67179043 251.74885086 194.375 244.75 C177.11923889 259.48929595 160.83964125 275.11501692 144.81445312 291.18017578 C142.22120716 293.77885314 139.62256052 296.37204581 137.0234375 298.96484375 C135.34603293 300.64290812 133.66893806 302.32128213 131.9921875 304 C130.8467598 305.14239136 130.8467598 305.14239136 129.67819214 306.30786133 C125.60394754 310.39980995 121.69281879 314.5718977 117.94509888 318.96582031 C116.3243847 320.80751662 114.62639465 322.53280888 112.875 324.25 C109.83905075 327.23872337 107.02991341 330.36706479 104.25 333.59375 C102.20140906 335.94962958 100.10296998 338.2550746 98 340.5625 C94.12149273 344.85959827 90.44634032 349.28758754 86.80859375 353.7890625 C84.62332071 356.44786983 82.39072188 359.05084488 80.13012695 361.64501953 C73.3902795 369.39174443 67.12319843 377.44014392 60.95996094 385.65039062 C59.45940107 387.63819328 57.94050682 389.61016405 56.4140625 391.578125 C45.3649711 405.9156805 35.58257891 421.17543319 26.375 436.75 C25.055 436.42 23.735 436.09 22.375 435.75 C23.95589829 426.64383076 26.46863784 417.79910971 28.94140625 408.90625 C29.40779188 407.2189487 29.87387341 405.53156333 30.3396759 403.84410095 C31.60311645 399.27063351 32.8710169 394.69841329 34.13976288 390.12641525 C35.49169651 385.25172356 36.83952699 380.37589725 38.18798828 375.50024414 C41.57760136 363.2484815 44.97538106 350.99898944 48.375 338.75 C48.6416169 337.78929344 48.9082338 336.82858688 49.18292999 335.83876801 C54.07422122 318.21422725 58.96959185 300.59082067 63.86889648 282.96850586 C71.15894176 256.74545878 78.42618676 230.51616969 85.67882538 204.28275299 C87.04442716 199.34326428 88.41016228 194.40381243 89.77587891 189.46435547 C90.17927207 188.00537684 90.17927207 188.00537684 90.59081459 186.5169239 C91.1320832 184.55928494 91.67335377 182.60164652 92.21462631 180.64400864 C92.7532793 178.69584159 93.29192728 176.74767315 93.83057022 174.79950333 C99.11615619 155.682774 104.40601022 136.56722956 109.70108032 117.453125 C110.64392164 114.04956661 111.58643817 110.64591855 112.52865601 107.2421875 C117.62882837 88.81851107 122.74693564 70.40006648 127.90474319 51.99243355 C128.6912906 49.18455257 129.47717561 46.37648715 130.26278687 43.56834412 C130.51801054 42.65606835 130.77323421 41.74379259 131.03619194 40.80387211 C131.54582465 38.98214169 132.05542397 37.16040194 132.56498909 35.33865261 C134.04381171 30.05344808 135.52739938 24.76961066 137.01459789 19.48675728 C137.92437812 16.25114096 138.82995986 13.0143606 139.73441505 9.7772522 C140.15457218 8.27702532 140.57655059 6.77730716 141.00046349 5.27813721 C141.57854144 3.23302467 142.15026353 1.18623784 142.72045898 -0.86108398 C143.04191391 -2.00528305 143.36336884 -3.14948212 143.69456482 -4.32835388 C144.52621615 -7.39931803 144.52621615 -7.39931803 144.375 -11.25 C116.30837398 -14.42986963 116.30837398 -14.42986963 91.25 -5 C89.16316992 -3.1076785 87.17760373 -1.17296112 85.23730469 0.86914062 C82.24243396 3.89385013 78.8242442 6.27415955 75.375 8.75 C74.06683808 9.72887444 72.76085959 10.71067327 71.45703125 11.6953125 C65.42698737 16.21747764 59.35162259 20.67816679 53.27734375 25.140625 C49.90629881 27.61819717 46.54572847 30.10921215 43.19140625 32.609375 C41.91873901 33.55514404 41.91873901 33.55514404 40.62036133 34.52001953 C39.00465779 35.72108748 37.39106958 36.92500845 35.7800293 38.13232422 C31.45195324 41.34324847 27.11350866 44.18017387 22.375 46.75 C22.09527344 45.80640625 21.81554687 44.8628125 21.52734375 43.890625 C17.39329801 30.44441234 11.39855371 19.79057163 1.375 9.75 C0.34439453 8.70199219 0.34439453 8.70199219 -0.70703125 7.6328125 C-11.25288465 -2.42390114 -23.71755047 -7.69395442 -37.625 -11.25 C-38.56085938 -11.49621094 -39.49671875 -11.74242187 -40.4609375 -11.99609375 C-105.31082548 -25.78382653 -177.42279263 18.70875263 -223.04296875 60.4140625 Z " fill="#000000" transform="translate(371.625,33.25)"/>
<path d="M0 0 C0.84626953 -0.02449219 1.69253906 -0.04898438 2.56445312 -0.07421875 C9.59618592 -0.10674797 14.59421978 1.68570696 20.07421875 6.09375 C32.75074328 20.65419127 33.51276551 40.27052984 33.375 58.625 C33.37162628 59.4977356 33.36825256 60.37047119 33.36477661 61.26965332 C33.23818182 83.975943 30.7444115 105.27164603 21.9375 126.375 C21.55255371 127.30296387 21.16760742 128.23092773 20.77099609 129.18701172 C17.93387617 135.9656414 14.95879313 142.67685013 11.9375 149.375 C11.60137695 150.13377441 11.26525391 150.89254883 10.91894531 151.67431641 C5.13391792 164.72809582 -1.88423252 177.04440191 -9.0625 189.375 C-9.57893066 190.26719238 -10.09536133 191.15938477 -10.62744141 192.07861328 C-24.85154345 216.57593226 -41.69353905 239.66917657 -61.0625 260.375 C-61.50964355 260.85614258 -61.95678711 261.33728516 -62.41748047 261.83300781 C-73.40196866 273.5603536 -87.61319301 286.40981444 -104.3828125 287.61328125 C-116.58472208 287.85130618 -124.66885792 285.75215671 -133.671875 277.1171875 C-142.42433994 267.07759536 -148.09585595 253.66635562 -149.0625 240.375 C-149.13726562 239.611875 -149.21203125 238.84875 -149.2890625 238.0625 C-152.39888839 180.44888359 -103.25001159 75.38491717 -65.60009766 33.23876953 C-63.1438423 30.56099099 -60.62029592 27.95559423 -58.0625 25.375 C-57.25167969 24.55128906 -56.44085938 23.72757813 -55.60546875 22.87890625 C-40.66154707 8.57933277 -20.71580508 0.03169978 0 0 Z M-50.0625 26.375 C-50.6709375 26.85324219 -51.279375 27.33148438 -51.90625 27.82421875 C-100.04305345 66.00545603 -126.53228747 159.78825192 -140.8125 217.375 C-141.05299072 218.32874512 -141.29348145 219.28249023 -141.54125977 220.26513672 C-144.94786808 235.0389758 -142.98112425 250.71057414 -135.59375 264.06640625 C-130.40140797 271.89465661 -124.33246734 278.73591059 -115.0625 281.375 C-101.83488141 283.2034753 -91.79797335 278.65829264 -81.328125 270.92578125 C-67.17693081 260.07681282 -55.79696905 246.4991199 -45.0625 232.375 C-44.52608887 231.67375 -43.98967773 230.9725 -43.43701172 230.25 C-7.22666238 182.73633341 25.8332061 125.26800463 27.9375 64.375 C27.97875 63.30507812 28.02 62.23515625 28.0625 61.1328125 C28.38917844 44.75805581 27.05458164 26.20250723 17.79296875 12.2421875 C13.2874484 7.70821123 8.94727334 5.89201583 2.68505859 5.81835938 C1.57251709 5.84639648 1.57251709 5.84639648 0.4375 5.875 C-0.74271729 5.89530273 -0.74271729 5.89530273 -1.94677734 5.91601562 C-20.07713016 6.54510997 -36.64120016 14.48112421 -50.0625 26.375 Z " fill="#000000" transform="translate(315.0625,73.625)"/>
<path d="M0 0 C0 0.99 0 1.98 0 3 C-5.19375413 2.02253576 -10.34111313 0.94694328 -15.4609375 -0.3671875 C-26.8041137 -3.2742423 -38.08827899 -5.6684297 -49.6875 -7.3125 C-50.80753418 -7.47153809 -51.92756836 -7.63057617 -53.08154297 -7.79443359 C-125.84536965 -17.56579103 -201.2985214 -0.02504052 -260.02148438 44.38867188 C-270.798489 52.63231427 -280.62932638 61.44113888 -290.25 71 C-291.63469482 72.37067627 -291.63469482 72.37067627 -293.04736328 73.76904297 C-317.32451576 98.15957895 -336.25041271 128.16364452 -351.07324219 159.07714844 C-352.00477901 161.00991557 -352.95804308 162.93080616 -353.9140625 164.8515625 C-391.84550196 242.01587072 -409.6983124 340.95752173 -382 424 C-376.9580277 438.70914097 -370.21181807 452.23044697 -360 464 C-359.5565625 464.598125 -359.113125 465.19625 -358.65625 465.8125 C-348.41615816 479.29945022 -329.67925264 487.7902514 -313.3671875 490.56640625 C-264.50222442 496.26382326 -217.35118327 473.73832465 -176.84399414 448.72387695 C-175.8461792 448.10859131 -174.84836426 447.49330566 -173.8203125 446.859375 C-172.93617676 446.30733398 -172.05204102 445.75529297 -171.14111328 445.18652344 C-169 444 -169 444 -167 444 C-167 443.34 -167 442.68 -167 442 C-168.65 441.67 -170.3 441.34 -172 441 C-172 440.34 -172 439.68 -172 439 C-170.35369672 439.14042877 -168.70795821 439.28749329 -167.0625 439.4375 C-166.14597656 439.51871094 -165.22945312 439.59992188 -164.28515625 439.68359375 C-162 440 -162 440 -161 441 C-161.08963062 442.69141656 -161.24577676 444.37959602 -161.4375 446.0625 C-161.53933594 446.98160156 -161.64117187 447.90070313 -161.74609375 448.84765625 C-161.82988281 449.55792969 -161.91367188 450.26820313 -162 451 C-162.99 451.33 -163.98 451.66 -165 452 C-165 450.02 -165 448.04 -165 446 C-165.89976562 446.58265625 -166.79953125 447.1653125 -167.7265625 447.765625 C-209.80469627 474.70789991 -264.72567068 503.75176526 -316.46923828 493.87255859 C-339.13340561 488.78896042 -358.30571535 475.79259289 -371.13671875 456.27050781 C-405.79603633 400.99895102 -403.97664566 320.61791428 -390.5703125 259.19140625 C-377.75144304 204.10587553 -356.08456988 150.06839864 -323 104 C-322.48405273 103.2790918 -321.96810547 102.55818359 -321.43652344 101.81542969 C-315.5447314 93.6342556 -309.37572104 85.93987381 -302.45703125 78.60546875 C-300.36455505 76.38657905 -298.35582591 74.13029399 -296.375 71.8125 C-290.13793091 64.63763771 -283.28478405 58.09754868 -276 52 C-275.44957031 51.53577637 -274.89914062 51.07155273 -274.33203125 50.59326172 C-264.95694632 42.7143578 -255.38736216 35.48844944 -245 29 C-244.37109863 28.60248535 -243.74219727 28.2049707 -243.09423828 27.79541016 C-170.90457024 -17.49399279 -80.62492049 -24.96667001 0 0 Z " fill="#000000" transform="translate(398,14)"/>
<path d="M0 0 C0.99 0.33 1.98 0.66 3 1 C0.27585275 12.1403189 -2.66601619 23.20372689 -5.76171875 34.24609375 C-6.22512458 35.90519421 -6.68835049 37.56434493 -7.15141296 39.22354126 C-8.39958401 43.69357602 -9.65054122 48.16282656 -10.90209198 52.63191605 C-11.96696341 56.4357812 -13.03016508 60.24011228 -14.09339523 64.04443645 C-22.59513454 94.46315427 -31.13654997 124.87073609 -39.68405724 155.27661896 C-47.58618798 183.387357 -55.46729296 211.50393127 -63.33112335 239.62540817 C-64.17607944 242.64666424 -65.02131688 245.66784146 -65.86663818 248.68899536 C-74.02315476 277.81970763 -74.02315476 277.81970763 -82 307 C-80.02 306.67 -78.04 306.34 -76 306 C-77.11190476 309.33571429 -77.46320673 309.58417079 -80.375 311.1875 C-80.98085938 311.53167969 -81.58671875 311.87585938 -82.2109375 312.23046875 C-84 313 -84 313 -87 313 C-91 306.5 -91 306.5 -91 302 C-88 303 -88 303 -86 306 C-82.70747082 294.27107534 -79.41589463 282.54188338 -76.125 270.8125 C-75.87069214 269.90609772 -75.61638428 268.99969543 -75.35437012 268.06582642 C-67.43010827 239.82122593 -59.52138634 211.57231355 -51.62628174 183.31954956 C-42.67679944 151.29377213 -33.72536123 119.26853613 -24.75 87.25 C-24.51106396 86.39762001 -24.27212791 85.54524002 -24.02595139 84.66703033 C-16.10657195 56.41899584 -8.11499624 28.19256057 0 0 Z " fill="#000000" transform="translate(533,44)"/>
<path d="M0 0 C1.43791516 0.14168137 2.8753237 0.28851043 4.3125 0.4375 C5.11300781 0.51871094 5.91351562 0.59992188 6.73828125 0.68359375 C9 1 9 1 12 2 C11.69106068 3.6256807 11.3777305 5.25052748 11.0625 6.875 C10.88847656 7.77992188 10.71445312 8.68484375 10.53515625 9.6171875 C10 12 10 12 9 14 C8.34 14 7.68 14 7 14 C7 12.02 7 10.04 7 8 C-17.87975766 22.65655936 -40.10500848 42.33100906 -58 65 C-58.91975175 66.12023621 -59.84174315 67.23863627 -60.765625 68.35546875 C-104.10244954 121.04804616 -133.23865741 187.15848298 -150 253 C-150.99 253 -151.98 253 -153 253 C-151.70597262 244.53682505 -149.51837698 236.52962514 -146.9375 228.375 C-146.73958862 227.74616913 -146.54167725 227.11733826 -146.33776855 226.4694519 C-122.3050003 150.21752761 -81.70749888 65.75672621 -15 18 C-13.74853682 17.08876287 -12.49723961 16.17729777 -11.24609375 15.265625 C-5.90388971 11.39893263 -0.50131048 7.6371616 5 4 C3.35 3.34 1.7 2.68 0 2 C0 1.34 0 0.68 0 0 Z " fill="#000000" transform="translate(536,405)"/>
<path d="M0 0 C1.4540625 0.0309375 1.4540625 0.0309375 2.9375 0.0625 C5.0625 4.6875 5.0625 4.6875 3.9375 8.0625 C4.26300502 9.73071323 4.59596063 11.39749557 4.9375 13.0625 C4.6075 13.7225 4.2775 14.3825 3.9375 15.0625 C1.125 15.9375 1.125 15.9375 -2.0625 16.0625 C-4.4375 14.125 -4.4375 14.125 -6.0625 12.0625 C-2.43923261 10.8547442 -1.42103631 11.51938872 1.9375 13.0625 C1.9375 11.7425 1.9375 10.4225 1.9375 9.0625 C0.6175 9.0625 -0.7025 9.0625 -2.0625 9.0625 C-2.0625 8.0725 -2.0625 7.0825 -2.0625 6.0625 C-0.7425 6.0625 0.5775 6.0625 1.9375 6.0625 C1.6075 5.0725 1.2775 4.0825 0.9375 3.0625 C-1.0425 3.7225 -3.0225 4.3825 -5.0625 5.0625 C-3.9375 0.08035714 -3.9375 0.08035714 0 0 Z " fill="#000000" transform="translate(465.0625,515.9375)"/>
<path d="M0 0 C3.0625 0.1875 3.0625 0.1875 5.0625 2.1875 C4.90004442 5.92397845 4.47466356 7.71288742 2 10.5625 C1.360625 11.09875 0.72125 11.635 0.0625 12.1875 C1.7125 12.5175 3.3625 12.8475 5.0625 13.1875 C5.0625 13.8475 5.0625 14.5075 5.0625 15.1875 C1.7625 15.1875 -1.5375 15.1875 -4.9375 15.1875 C-2.9375 11.1875 -2.9375 11.1875 -0.8125 8.625 C1.36735538 6.30372611 1.36735538 6.30372611 1.0625 3.1875 C0.4025 3.1875 -0.2575 3.1875 -0.9375 3.1875 C-1.2675 3.8475 -1.5975 4.5075 -1.9375 5.1875 C-2.9275 5.1875 -3.9175 5.1875 -4.9375 5.1875 C-3.82120474 0.24390669 -3.82120474 0.24390669 0 0 Z " fill="#000000" transform="translate(512.9375,196.8125)"/>
<path d="M0 0 C0 4.95 0 9.9 0 15 C-0.99 15 -1.98 15 -3 15 C-3 11.37 -3 7.74 -3 4 C-3.99 4.33 -4.98 4.66 -6 5 C-5.625 3.0625 -5.625 3.0625 -5 1 C-3 0 -3 0 0 0 Z " fill="#000000" transform="translate(452,516)"/>
<path d="M0 0 C0 4.95 0 9.9 0 15 C-0.99 15 -1.98 15 -3 15 C-3 11.37 -3 7.74 -3 4 C-3.99 4.33 -4.98 4.66 -6 5 C-5.625 3.0625 -5.625 3.0625 -5 1 C-3 0 -3 0 0 0 Z " fill="#000000" transform="translate(500,197)"/>
<path d="M0 0 C0.99 0.33 1.98 0.66 3 1 C1.55873214 4.36295835 -0.20592655 6.62927102 -3 9 C-3.99 9 -4.98 9 -6 9 C-5.52797514 4.75177626 -3.03344482 2.80010291 0 0 Z " fill="#000000" transform="translate(185,106)"/>
<path d="M0 0 C0.99 0.33 1.98 0.66 3 1 C1.47291037 4.43595166 -0.59927045 7.11912454 -3 10 C-3.99 9.67 -4.98 9.34 -6 9 C-4.47291037 5.56404834 -2.40072955 2.88087546 0 0 Z " fill="#000000" transform="translate(293,619)"/>
<path d="M0 0 C0.99 0.33 1.98 0.66 3 1 C1.47291037 4.43595166 -0.59927045 7.11912454 -3 10 C-3.99 9.67 -4.98 9.34 -6 9 C-4.47291037 5.56404834 -2.40072955 2.88087546 0 0 Z " fill="#000000" transform="translate(332,573)"/>
<path d="M0 0 C0.99 0.33 1.98 0.66 3 1 C1.47291037 4.43595166 -0.59927045 7.11912454 -3 10 C-3.99 9.67 -4.98 9.34 -6 9 C-4.47291037 5.56404834 -2.40072955 2.88087546 0 0 Z " fill="#000000" transform="translate(345,558)"/>
<path d="M0 0 C0.99 0.33 1.98 0.66 3 1 C1.47291037 4.43595166 -0.59927045 7.11912454 -3 10 C-3.99 9.67 -4.98 9.34 -6 9 C-4.47291037 5.56404834 -2.40072955 2.88087546 0 0 Z " fill="#000000" transform="translate(384,512)"/>
<path d="M0 0 C0.99 0.33 1.98 0.66 3 1 C1.47291037 4.43595166 -0.59927045 7.11912454 -3 10 C-3.99 9.67 -4.98 9.34 -6 9 C-4.47291037 5.56404834 -2.40072955 2.88087546 0 0 Z " fill="#000000" transform="translate(436,451)"/>
<path d="M0 0 C0.99 0.33 1.98 0.66 3 1 C1.47291037 4.43595166 -0.59927045 7.11912454 -3 10 C-3.99 9.67 -4.98 9.34 -6 9 C-4.47291037 5.56404834 -2.40072955 2.88087546 0 0 Z " fill="#000000" transform="translate(475,405)"/>
<path d="M0 0 C0.99 0 1.98 0 3 0 C2.01 3.63 1.02 7.26 0 11 C-0.99 10.67 -1.98 10.34 -3 10 C-2.69201674 8.51988629 -2.378482 7.04092675 -2.0625 5.5625 C-1.88847656 4.73878906 -1.71445312 3.91507812 -1.53515625 3.06640625 C-1 1 -1 1 0 0 Z " fill="#000000" transform="translate(345,405)"/>
<path d="M0 0 C0.33 0.99 0.66 1.98 1 3 C-0.26239712 3.86658615 -1.53527501 4.71792059 -2.8125 5.5625 C-3.87404297 6.27599609 -3.87404297 6.27599609 -4.95703125 7.00390625 C-7 8 -7 8 -10 7 C-10 6.34 -10 5.68 -10 5 C-8.3203125 3.7109375 -8.3203125 3.7109375 -6.125 2.375 C-5.40570313 1.92898438 -4.68640625 1.48296875 -3.9453125 1.0234375 C-2 0 -2 0 0 0 Z " fill="#000000" transform="translate(217,392)"/>
<path d="M0 0 C0.99 0.33 1.98 0.66 3 1 C1.47291037 4.43595166 -0.59927045 7.11912454 -3 10 C-3.99 9.67 -4.98 9.34 -6 9 C-4.47291037 5.56404834 -2.40072955 2.88087546 0 0 Z " fill="#000000" transform="translate(488,390)"/>
<path d="M0 0 C0.66 0.33 1.32 0.66 2 1 C2 1.99 2 2.98 2 4 C0.57421875 5.421875 0.57421875 5.421875 -1.3125 6.75 C-1.92738281 7.19859375 -2.54226562 7.6471875 -3.17578125 8.109375 C-5 9 -5 9 -8 8 C-8 7.34 -8 6.68 -8 6 C-6.25 4.4921875 -6.25 4.4921875 -4 2.875 C-3.2575 2.33617187 -2.515 1.79734375 -1.75 1.2421875 C-1.1725 0.83226562 -0.595 0.42234375 0 0 Z " fill="#000000" transform="translate(232,380)"/>
<path d="M0 0 C0.99 0.33 1.98 0.66 3 1 C2.01 4.3 1.02 7.6 0 11 C-0.99 11 -1.98 11 -3 11 C-2.69078116 9.54096742 -2.37751201 8.08279278 -2.0625 6.625 C-1.88847656 5.81289063 -1.71445312 5.00078125 -1.53515625 4.1640625 C-1 2 -1 2 0 0 Z " fill="#000000" transform="translate(357,367)"/>
<path d="M0 0 C0.99 0.33 1.98 0.66 3 1 C1.51218185 4.78717347 -0.61988409 6.77407001 -4 9 C-4.99 8.67 -5.98 8.34 -7 8 C-6.02133662 6.85373678 -5.04205413 5.70800212 -4.0625 4.5625 C-3.51722656 3.92441406 -2.97195313 3.28632813 -2.41015625 2.62890625 C-1.63204305 1.73008851 -0.84063472 0.84063472 0 0 Z " fill="#000000" transform="translate(263,354)"/>
<path d="M0 0 C0.99 0.33 1.98 0.66 3 1 C1.47291037 4.43595166 -0.59927045 7.11912454 -3 10 C-3.99 9.67 -4.98 9.34 -6 9 C-4.47291037 5.56404834 -2.40072955 2.88087546 0 0 Z " fill="#000000" transform="translate(527,344)"/>
<path d="M0 0 C0.99 0 1.98 0 3 0 C2.53199289 4.05606165 2.12046792 7.46588679 0 11 C-0.99 10.67 -1.98 10.34 -3 10 C-2.01 6.7 -1.02 3.4 0 0 Z " fill="#000000" transform="translate(381,292)"/>
<path d="M0 0 C0.66 0.33 1.32 0.66 2 1 C0.68775452 4.93673644 -0.91910327 7.22719294 -4 10 C-4.99 9.67 -5.98 9.34 -7 9 C-2.85714286 2.57142857 -2.85714286 2.57142857 0 0 Z " fill="#000000" transform="translate(172,120)"/>
<path d="M0 0 C0.99 0.33 1.98 0.66 3 1 C1.35 4.3 -0.3 7.6 -2 11 C-2.99 10.67 -3.98 10.34 -5 10 C-3.66511872 6.40608886 -2.03977277 3.24509304 0 0 Z " fill="#000000" transform="translate(445,84)"/>
<path d="M0 0 C0.99 0 1.98 0 3 0 C2.01 3.63 1.02 7.26 0 11 C-0.99 10.67 -1.98 10.34 -3 10 C-2.69201674 8.51988629 -2.378482 7.04092675 -2.0625 5.5625 C-1.88847656 4.73878906 -1.71445312 3.91507813 -1.53515625 3.06640625 C-1 1 -1 1 0 0 Z " fill="#000000" transform="translate(284,593)"/>
<path d="M0 0 C0.99 0.33 1.98 0.66 3 1 C2.01 4.3 1.02 7.6 0 11 C-0.99 10.67 -1.98 10.34 -3 10 C-2.01 6.7 -1.02 3.4 0 0 Z " fill="#000000" transform="translate(296,555)"/>
<path d="M0 0 C0.99 0 1.98 0 3 0 C2.53199289 4.05606165 2.12046792 7.46588679 0 11 C-0.99 10.34 -1.98 9.68 -3 9 C-2.01 6.03 -1.02 3.06 0 0 Z " fill="#000000" transform="translate(320,480)"/>
<path d="M0 0 C-1 3 -1 3 -3.8125 4.6875 C-7 6 -7 6 -11 6 C-10 3 -10 3 -7.1875 1.3125 C-4 0 -4 0 0 0 Z " fill="#000000" transform="translate(200,403)"/>
<path d="M0 0 C-0.38520564 2.53910197 -0.70097943 3.72751123 -2.62890625 5.484375 C-3.26699219 5.90203125 -3.90507812 6.3196875 -4.5625 6.75 C-5.20316406 7.17796875 -5.84382812 7.6059375 -6.50390625 8.046875 C-7.24447266 8.51867187 -7.24447266 8.51867187 -8 9 C-8.33 7.68 -8.66 6.36 -9 5 C-7.87926138 4.16094435 -6.75325453 3.32892169 -5.625 2.5 C-4.99851563 2.0359375 -4.37203125 1.571875 -3.7265625 1.09375 C-2 0 -2 0 0 0 Z " fill="#000000" transform="translate(250,368)"/>
<path d="M0 0 C0.99 0 1.98 0 3 0 C3.99 3.3 4.98 6.6 6 10 C5.01 10.33 4.02 10.66 3 11 C0 4.5 0 4.5 0 0 Z " fill="#000000" transform="translate(78,368)"/>
<path d="M0 0 C0.66 0.33 1.32 0.66 2 1 C0.47291037 4.43595166 -1.59927045 7.11912454 -4 10 C-4.99 9.67 -5.98 9.34 -7 9 C-2.85714286 2.57142857 -2.85714286 2.57142857 0 0 Z " fill="#000000" transform="translate(306,309)"/>
<path d="M0 0 C0.99 0.66 1.98 1.32 3 2 C1.35 4.97 -0.3 7.94 -2 11 C-2.99 10.67 -3.98 10.34 -5 10 C-3.66511872 6.40608886 -2.03977277 3.24509304 0 0 Z " fill="#000000" transform="translate(339,258)"/>
<path d="M0 0 C0.99 0.33 1.98 0.66 3 1 C2.01 4.3 1.02 7.6 0 11 C-0.99 10.67 -1.98 10.34 -3 10 C-2.69201674 8.51988629 -2.378482 7.04092675 -2.0625 5.5625 C-1.88847656 4.73878906 -1.71445312 3.91507813 -1.53515625 3.06640625 C-1 1 -1 1 0 0 Z " fill="#000000" transform="translate(406,217)"/>
<path d="M0 0 C0.99 0.33 1.98 0.66 3 1 C2.01 4.3 1.02 7.6 0 11 C-0.99 11 -1.98 11 -3 11 C-2.69078116 9.54096742 -2.37751201 8.08279278 -2.0625 6.625 C-1.88847656 5.81289062 -1.71445312 5.00078125 -1.53515625 4.1640625 C-1 2 -1 2 0 0 Z " fill="#000000" transform="translate(418,179)"/>
<path d="M0 0 C0.99 0.66 1.98 1.32 3 2 C1.35 4.97 -0.3 7.94 -2 11 C-2.99 10.67 -3.98 10.34 -5 10 C-3.66511872 6.40608886 -2.03977277 3.24509304 0 0 Z " fill="#000000" transform="translate(392,171)"/>
<path d="M0 0 C0.99 0 1.98 0 3 0 C2.43768609 3.93619738 1.38314183 6.79192446 -1 10 C-1.99 10 -2.98 10 -4 10 C-3.43768609 6.06380262 -2.38314183 3.20807554 0 0 Z " fill="#000000" transform="translate(402,154)"/>
<path d="M0 0 C0.99 0.33 1.98 0.66 3 1 C1.66511872 4.59391114 0.03977277 7.75490696 -2 11 C-2.99 10.67 -3.98 10.34 -5 10 C-3.35 6.7 -1.7 3.4 0 0 Z " fill="#000000" transform="translate(413,136)"/>
<path d="M0 0 C0.99 0.33 1.98 0.66 3 1 C2.34 3.97 1.68 6.94 1 10 C-0.32 10 -1.64 10 -3 10 C-2.01 6.7 -1.02 3.4 0 0 Z " fill="#000000" transform="translate(442,104)"/>
<path d="M0 0 C4.37859255 0.50522222 6.81651224 3.17827222 10 6 C9.67 6.66 9.34 7.32 9 8 C5.56801397 6.76067171 2.69674368 5.49698489 0 3 C0 2.01 0 1.02 0 0 Z " fill="#000000" transform="translate(352,64)"/>
<path d="M0 0 C-1.52708963 3.43595166 -3.59927045 6.11912454 -6 9 C-6.99 8.67 -7.98 8.34 -9 8 C-4.45945946 0 -4.45945946 0 0 0 Z " fill="#000000" transform="translate(283,635)"/>
<path d="M0 0 C0.66 0.33 1.32 0.66 2 1 C1.54177532 4.46941546 1.10868317 7.67395049 0 11 C-0.99 11 -1.98 11 -3 11 C-2.53199289 6.94393835 -2.12046792 3.53411321 0 0 Z " fill="#000000" transform="translate(272,630)"/>
<path d="M0 0 C0.99 0.33 1.98 0.66 3 1 C-0.34969325 6.90184049 -0.34969325 6.90184049 -3 9 C-3.99 9 -4.98 9 -6 9 C-4.47291037 5.56404834 -2.40072955 2.88087546 0 0 Z " fill="#000000" transform="translate(306,604)"/>
<path d="M0 0 C-1.52708963 3.43595166 -3.59927045 6.11912454 -6 9 C-6.99 8.67 -7.98 8.34 -9 8 C-4.45945946 0 -4.45945946 0 0 0 Z " fill="#000000" transform="translate(374,528)"/>
<path d="M0 0 C0.99 0 1.98 0 3 0 C2.34 2.97 1.68 5.94 1 9 C-0.32 9.33 -1.64 9.66 -3 10 C-2.01 6.7 -1.02 3.4 0 0 Z " fill="#000000" transform="translate(308,518)"/>
<path d="M0 0 C0.99 0.33 1.98 0.66 3 1 C-0.34969325 6.90184049 -0.34969325 6.90184049 -3 9 C-3.99 9 -4.98 9 -6 9 C-4.47291037 5.56404834 -2.40072955 2.88087546 0 0 Z " fill="#000000" transform="translate(397,497)"/>
<path d="M0 0 C-1.52708963 3.43595166 -3.59927045 6.11912454 -6 9 C-6.99 8.67 -7.98 8.34 -9 8 C-4.45945946 0 -4.45945946 0 0 0 Z " fill="#000000" transform="translate(426,467)"/>
<path d="M0 0 C0.66 0.33 1.32 0.66 2 1 C1.54177532 4.46941546 1.10868317 7.67395049 0 11 C-0.99 11 -1.98 11 -3 11 C-2.53199289 6.94393835 -2.12046792 3.53411321 0 0 Z " fill="#000000" transform="translate(333,442)"/>
<path d="M0 0 C0.99 0.33 1.98 0.66 3 1 C-0.34969325 6.90184049 -0.34969325 6.90184049 -3 9 C-3.99 9 -4.98 9 -6 9 C-4.47291037 5.56404834 -2.40072955 2.88087546 0 0 Z " fill="#000000" transform="translate(449,436)"/>
<path d="M0 0 C3.86463725 0.41406828 6.12722 2.52621722 9 5 C8.67 5.99 8.34 6.98 8 8 C4.18315774 6.44499019 1.80804268 3.96404505 -1 1 C-0.67 0.67 -0.34 0.34 0 0 Z " fill="#000000" transform="translate(98,401)"/>
<path d="M0 0 C-1.52708963 3.43595166 -3.59927045 6.11912454 -6 9 C-6.99 8.67 -7.98 8.34 -9 8 C-4.45945946 0 -4.45945946 0 0 0 Z " fill="#000000" transform="translate(517,360)"/>
<path d="M0 0 C0.99 0 1.98 0 3 0 C3.33 3.63 3.66 7.26 4 11 C3.01 11 2.02 11 1 11 C-0.17571451 7.32589215 -0.07366746 3.83070817 0 0 Z " fill="#000000" transform="translate(75,349)"/>
<path d="M0 0 C0.99 0 1.98 0 3 0 C2.34 2.97 1.68 5.94 1 9 C-0.32 9.33 -1.64 9.66 -3 10 C-2.01 6.7 -1.02 3.4 0 0 Z " fill="#000000" transform="translate(369,330)"/>
<path d="M0 0 C0.99 0.33 1.98 0.66 3 1 C-0.34969325 6.90184049 -0.34969325 6.90184049 -3 9 C-3.99 9 -4.98 9 -6 9 C-4.47291037 5.56404834 -2.40072955 2.88087546 0 0 Z " fill="#000000" transform="translate(540,329)"/>
<path d="M0 0 C-0.50522222 4.37859255 -3.17827222 6.81651224 -6 10 C-6.99 9.01 -7.98 8.02 -9 7 C-7.88121617 5.82737096 -6.75476949 4.66204862 -5.625 3.5 C-4.68527344 2.52546875 -4.68527344 2.52546875 -3.7265625 1.53125 C-2 0 -2 0 0 0 Z " fill="#000000" transform="translate(294,325)"/>
<path d="M0 0 C0.99 0 1.98 0 3 0 C2.43454163 3.95820859 1.19097652 6.6659053 -1 10 C-1.99 9.67 -2.98 9.34 -4 9 C-2.68 6.03 -1.36 3.06 0 0 Z " fill="#000000" transform="translate(96,236)"/>
<path d="M0 0 C0.99 0 1.98 0 3 0 C1.66511872 3.59391114 0.03977277 6.75490696 -2 10 C-2.99 9.67 -3.98 9.34 -5 9 C-4.3566152 7.686298 -3.71021785 6.37407102 -3.0625 5.0625 C-2.70285156 4.33160156 -2.34320313 3.60070312 -1.97265625 2.84765625 C-1 1 -1 1 0 0 Z " fill="#000000" transform="translate(360,224)"/>
<path d="M0 0 C0.99 0 1.98 0 3 0 C2.34 2.97 1.68 5.94 1 9 C-0.32 9.33 -1.64 9.66 -3 10 C-2.01 6.7 -1.02 3.4 0 0 Z " fill="#000000" transform="translate(430,142)"/>
<path d="M0 0 C3.80984844 2.77079887 4.06840752 6.62868145 5 11 C4.01 11 3.02 11 2 11 C-1.07692308 4.6 -1.07692308 4.6 -0.6875 1.5625 C-0.460625 1.046875 -0.23375 0.53125 0 0 Z " fill="#000000" transform="translate(398,127)"/>
<path d="M0 0 C2.34191563 2.1290142 3.83554954 4.04408729 5 7 C5 8.32 5 9.64 5 11 C2 10 2 10 0.25 7.1875 C-0.98589446 4.03596914 -1.28222189 3.03070628 0 0 Z " fill="#000000" transform="translate(390,109)"/>
<path d="M0 0 C3.79379058 1.49041773 5.68343758 3.69062512 8 7 C8 7.66 8 8.32 8 9 C5.46089803 8.61479436 4.27248877 8.29902057 2.515625 6.37109375 C2.09796875 5.73300781 1.6803125 5.09492187 1.25 4.4375 C0.82203125 3.79683594 0.3940625 3.15617187 -0.046875 2.49609375 C-0.51867187 1.75552734 -0.51867187 1.75552734 -1 1 C-0.67 0.67 -0.34 0.34 0 0 Z " fill="#000000" transform="translate(367,77)"/>
<path d="M0 0 C0.33 0.99 0.66 1.98 1 3 C-0.28813342 3.83878455 -1.58063256 4.67086783 -2.875 5.5 C-3.59429687 5.9640625 -4.31359375 6.428125 -5.0546875 6.90625 C-7 8 -7 8 -9 8 C-8.875 6.25 -8.875 6.25 -8 4 C-2.77777778 0 -2.77777778 0 0 0 Z " fill="#000000" transform="translate(233,69)"/>
<path d="M0 0 C3.40312738 1.05875074 6.01353231 2.00902154 9 4 C9 4.99 9 5.98 9 7 C5.51329166 5.8905928 2.22515763 4.73662334 -1 3 C-0.67 2.01 -0.34 1.02 0 0 Z " fill="#000000" transform="translate(336,54)"/>
<path d="M0 0 C0 0.99 0 1.98 0 3 C-3.3 3.66 -6.6 4.32 -10 5 C-10 3.68 -10 2.36 -10 1 C-6.56484998 0.37542727 -3.50935186 0 0 0 Z " fill="#000000" transform="translate(288,48)"/>
<path d="M0 0 C0.99 0.33 1.98 0.66 3 1 C0.03 4.96 0.03 4.96 -3 9 C-3.99 8.67 -4.98 8.34 -6 8 C-2.25 2.25 -2.25 2.25 0 0 Z " fill="#000000" transform="translate(319,589)"/>
<path d="M0 0 C0.99 0 1.98 0 3 0 C2.01 3.63 1.02 7.26 0 11 C-0.99 10.67 -1.98 10.34 -3 10 C-2.01 6.7 -1.02 3.4 0 0 Z " fill="#000000" transform="translate(290,574)"/>
<path d="M0 0 C0.99 0.33 1.98 0.66 3 1 C-1 7.57142857 -1 7.57142857 -5 9 C-5 4.61031544 -2.87194899 3.23094261 0 0 Z " fill="#000000" transform="translate(358,543)"/>
<path d="M0 0 C0.99 0.33 1.98 0.66 3 1 C-1 7.57142857 -1 7.57142857 -5 9 C-5 4.61031544 -2.87194899 3.23094261 0 0 Z " fill="#000000" transform="translate(410,482)"/>
<path d="M0 0 C0.99 0.33 1.98 0.66 3 1 C0.03 4.96 0.03 4.96 -3 9 C-3.99 8.67 -4.98 8.34 -6 8 C-2.25 2.25 -2.25 2.25 0 0 Z " fill="#000000" transform="translate(462,421)"/>
<path d="M0 0 C3.3 0.33 6.6 0.66 10 1 C10.33 1.99 10.66 2.98 11 4 C9.741875 4.04125 8.48375 4.0825 7.1875 4.125 C6.47980469 4.14820313 5.77210938 4.17140625 5.04296875 4.1953125 C3 4 3 4 0 2 C0 1.34 0 0.68 0 0 Z " fill="#000000" transform="translate(131,420)"/>
<path d="M0 0 C-0.33 0.99 -0.66 1.98 -1 3 C-4.3 3.66 -7.6 4.32 -11 5 C-10.67 3.68 -10.34 2.36 -10 1 C-6.59437148 0.22157062 -3.49234244 -0.09978121 0 0 Z " fill="#000000" transform="translate(162,418)"/>
<path d="M0 0 C0 0.99 0 1.98 0 3 C-6.4 6.07692308 -6.4 6.07692308 -9.4375 5.6875 C-9.953125 5.460625 -10.46875 5.23375 -11 5 C-9.70976282 2.41952564 -8.72910609 2.32977036 -6.0625 1.375 C-5.35222656 1.11460937 -4.64195312 0.85421875 -3.91015625 0.5859375 C-2 0 -2 0 0 0 Z " fill="#000000" transform="translate(181,411)"/>
<path d="M0 0 C1.75 0.125 1.75 0.125 4 1 C8 6.22222222 8 6.22222222 8 9 C6.25 8.875 6.25 8.875 4 8 C0 2.77777778 0 2.77777778 0 0 Z " fill="#000000" transform="translate(85,386)"/>
<path d="M0 0 C0.99 0.33 1.98 0.66 3 1 C-1 7.57142857 -1 7.57142857 -5 9 C-5 4.61031544 -2.87194899 3.23094261 0 0 Z " fill="#000000" transform="translate(501,375)"/>
<path d="M0 0 C0.66 0.33 1.32 0.66 2 1 C0.03030303 7.81818182 0.03030303 7.81818182 -3 10 C-3.99 10 -4.98 10 -6 10 C-4.34832443 6.4213696 -2.21713508 3.25179812 0 0 Z " fill="#000000" transform="translate(318,293)"/>
<path d="M0 0 C0.99 0 1.98 0 3 0 C2.54177532 3.46941546 2.10868317 6.67395049 1 10 C0.01 10 -0.98 10 -2 10 C-1.54177532 6.53058454 -1.10868317 3.32604951 0 0 Z " fill="#000000" transform="translate(393,255)"/>
<path d="M0 0 C0.99 0.33 1.98 0.66 3 1 C1.7580393 4.43927579 0.44259716 7.25207819 -2 10 C-2.66 10 -3.32 10 -4 10 C-3.43454163 6.04179141 -2.19097652 3.3340947 0 0 Z " fill="#000000" transform="translate(349,241)"/>
<path d="M0 0 C0.99 0 1.98 0 3 0 C1.84414715 3.91211733 0.64465038 6.8745041 -2 10 C-2.99 9.67 -3.98 9.34 -5 9 C-3.35 6.03 -1.7 3.06 0 0 Z " fill="#000000" transform="translate(381,189)"/>
<path d="M0 0 C0.99 0.33 1.98 0.66 3 1 C1.7508258 4.45925163 0.32472205 7.14693203 -2 10 C-2.99 9.67 -3.98 9.34 -5 9 C-3.35 6.03 -1.7 3.06 0 0 Z " fill="#000000" transform="translate(135,167)"/>
<path d="M0 0 C0.66 0.33 1.32 0.66 2 1 C0.7508258 4.45925163 -0.67527795 7.14693203 -3 10 C-3.99 9.67 -4.98 9.34 -6 9 C-2.25 2.25 -2.25 2.25 0 0 Z " fill="#000000" transform="translate(147,151)"/>
<path d="M0 0 C0.99 0 1.98 0 3 0 C2.42647107 3.87132028 0.51295648 6.08172796 -2 9 C-2.99 8.67 -3.98 8.34 -5 8 C-1.125 1.125 -1.125 1.125 0 0 Z " fill="#000000" transform="translate(158,136)"/>
<path d="M0 0 C0.99 0 1.98 0 3 0 C2.69078116 1.45903258 2.37751201 2.91720722 2.0625 4.375 C1.88847656 5.18710938 1.71445312 5.99921875 1.53515625 6.8359375 C1 9 1 9 0 11 C-0.99 10.67 -1.98 10.34 -3 10 C-2.01 6.7 -1.02 3.4 0 0 Z " fill="#000000" transform="translate(436,123)"/>
<path d="M0 0 C0.99 0 1.98 0 3 0 C1.84414715 3.91211733 0.64465038 6.8745041 -2 10 C-2.99 9.67 -3.98 9.34 -5 9 C-3.35 6.03 -1.7 3.06 0 0 Z " fill="#000000" transform="translate(434,102)"/>
<path d="M0 0 C0.99 0 1.98 0 3 0 C5.25 2.75 5.25 2.75 7 6 C6.75 8.375 6.75 8.375 6 10 C3.66475218 7.74259377 1.81294927 5.7194239 0 3 C0 2.01 0 1.02 0 0 Z " fill="#000000" transform="translate(379,93)"/>
<path d="M0 0 C-0.33 0.99 -0.66 1.98 -1 3 C-3.06640625 3.73046875 -3.06640625 3.73046875 -5.5625 4.1875 C-6.38878906 4.34605469 -7.21507812 4.50460938 -8.06640625 4.66796875 C-9.02353516 4.83232422 -9.02353516 4.83232422 -10 5 C-10 4.01 -10 3.02 -10 2 C-8.71211992 1.46987262 -7.41953322 0.9511671 -6.125 0.4375 C-5.40570313 0.14746094 -4.68640625 -0.14257812 -3.9453125 -0.44140625 C-2 -1 -2 -1 0 0 Z " fill="#000000" transform="translate(269,53)"/>
<path d="M0 0 C3.3 0.66 6.6 1.32 10 2 C10 2.99 10 3.98 10 5 C2.375 4.125 2.375 4.125 -1 3 C-0.67 2.01 -0.34 1.02 0 0 Z " fill="#000000" transform="translate(317,48)"/>
<path d="M0 0 C3.63 0 7.26 0 11 0 C10.67 0.99 10.34 1.98 10 3 C6.7 3 3.4 3 0 3 C0 2.01 0 1.02 0 0 Z " fill="#000000" transform="translate(297,47)"/>
<path d="M0 0 C0.99 0.66 1.98 1.32 3 2 C2.01 4.97 1.02 7.94 0 11 C-0.99 11 -1.98 11 -3 11 C-2.69078116 9.54096742 -2.37751201 8.08279278 -2.0625 6.625 C-1.88847656 5.81289063 -1.71445312 5.00078125 -1.53515625 4.1640625 C-1 2 -1 2 0 0 Z " fill="#000000" transform="translate(278,611)"/>
<path d="M0 0 C0.99 0.33 1.98 0.66 3 1 C2.01 4.3 1.02 7.6 0 11 C-0.99 11 -1.98 11 -3 11 C-2.01 7.37 -1.02 3.74 0 0 Z " fill="#000000" transform="translate(302,536)"/>
<path d="M0 0 C0.99 0 1.98 0 3 0 C2.71758359 1.46015291 2.42373386 2.91809793 2.125 4.375 C1.96257812 5.18710937 1.80015625 5.99921875 1.6328125 6.8359375 C1 9 1 9 -1 11 C-1.66 10.34 -2.32 9.68 -3 9 C-2.01 6.03 -1.02 3.06 0 0 Z " fill="#000000" transform="translate(314,499)"/>
<path d="M0 0 C0.99 0.33 1.98 0.66 3 1 C2.01 4.3 1.02 7.6 0 11 C-0.99 10.67 -1.98 10.34 -3 10 C-2.01 6.7 -1.02 3.4 0 0 Z " fill="#000000" transform="translate(351,386)"/>
<path d="M0 0 C0.99 0.33 1.98 0.66 3 1 C2.01 4.3 1.02 7.6 0 11 C-0.99 11 -1.98 11 -3 11 C-2.01 7.37 -1.02 3.74 0 0 Z " fill="#000000" transform="translate(363,348)"/>
<path d="M0 0 C0.66 0 1.32 0 2 0 C1.52797514 4.24822374 -0.96655518 6.19989709 -4 9 C-4.99 8.67 -5.98 8.34 -7 8 C-6.02133662 6.85373678 -5.04205413 5.70800212 -4.0625 4.5625 C-3.51722656 3.92441406 -2.97195313 3.28632813 -2.41015625 2.62890625 C-1.63204305 1.73008851 -0.84063472 0.84063472 0 0 Z " fill="#000000" transform="translate(278,340)"/>
<path d="M0 0 C0.99 0 1.98 0 3 0 C3 3.63 3 7.26 3 11 C2.01 10.67 1.02 10.34 0 10 C0 6.7 0 3.4 0 0 Z " fill="#000000" transform="translate(75,330)"/>
<path d="M0 0 C0.99 0 1.98 0 3 0 C2.71758359 1.46015291 2.42373386 2.91809793 2.125 4.375 C1.96257812 5.18710937 1.80015625 5.99921875 1.6328125 6.8359375 C1 9 1 9 -1 11 C-1.66 10.34 -2.32 9.68 -3 9 C-2.01 6.03 -1.02 3.06 0 0 Z " fill="#000000" transform="translate(375,311)"/>
<path d="M0 0 C0.99 0.33 1.98 0.66 3 1 C1.68 3.64 0.36 6.28 -1 9 C-2.32 9 -3.64 9 -5 9 C-3.35 6.03 -1.7 3.06 0 0 Z " fill="#000000" transform="translate(328,276)"/>
<path d="M0 0 C0.99 0 1.98 0 3 0 C2.01 3.3 1.02 6.6 0 10 C-0.99 10 -1.98 10 -3 10 C-2.69201674 8.51988629 -2.378482 7.04092675 -2.0625 5.5625 C-1.88847656 4.73878906 -1.71445313 3.91507812 -1.53515625 3.06640625 C-1 1 -1 1 0 0 Z " fill="#000000" transform="translate(88,254)"/>
<path d="M0 0 C0.99 0.33 1.98 0.66 3 1 C1.80100302 4.0831351 0.52299523 7.06279492 -1 10 C-1.99 10 -2.98 10 -4 10 C-2.8905928 6.51329166 -1.73662334 3.22515763 0 0 Z " fill="#000000" transform="translate(105,218)"/>
<path d="M0 0 C0.66 0.33 1.32 0.66 2 1 C0.79157144 5.43090471 -0.51668565 7.98112756 -4 11 C-5 8 -5 8 -4.00390625 5.95703125 C-3.52824219 5.24933594 -3.05257813 4.54164063 -2.5625 3.8125 C-2.08941406 3.09707031 -1.61632812 2.38164062 -1.12890625 1.64453125 C-0.75636719 1.10183594 -0.38382812 0.55914062 0 0 Z " fill="#000000" transform="translate(371,206)"/>
<path d="M0 0 C0.66 0 1.32 0 2 0 C1.43454163 3.95820859 0.19097652 6.6659053 -2 10 C-2.99 9.67 -3.98 9.34 -5 9 C-4.3566152 7.686298 -3.71021785 6.37407102 -3.0625 5.0625 C-2.70285156 4.33160156 -2.34320313 3.60070312 -1.97265625 2.84765625 C-1 1 -1 1 0 0 Z " fill="#000000" transform="translate(115,201)"/>
<path d="M0 0 C0.99 0.33 1.98 0.66 3 1 C2.01 4.3 1.02 7.6 0 11 C-0.99 10.67 -1.98 10.34 -3 10 C-2.01 6.7 -1.02 3.4 0 0 Z " fill="#000000" transform="translate(412,198)"/>
<path d="M0 0 C0.66 0 1.32 0 2 0 C1.43454163 3.95820859 0.19097652 6.6659053 -2 10 C-2.99 9.67 -3.98 9.34 -5 9 C-3.7580393 5.56072421 -2.44259716 2.74792181 0 0 Z " fill="#000000" transform="translate(125,184)"/>
<path d="M0 0 C0.66 0 1.32 0 2 0 C1.43768609 3.93619738 0.38314183 6.79192446 -2 10 C-2.99 10 -3.98 10 -5 10 C-3.85569823 6.12697862 -2.76679902 2.99736561 0 0 Z " fill="#000000" transform="translate(424,119)"/>
<path d="M0 0 C0.66 0.33 1.32 0.66 2 1 C0.49776416 5.20626034 -2.28550034 6.73900021 -6 9 C-6 5 -6 5 -4.6875 3.515625 C-3.125 2.34375 -1.5625 1.171875 0 0 Z " fill="#000000" transform="translate(215,80)"/>
<path d="M0 0 C0.66 0.33 1.32 0.66 2 1 C1.745504 2.48206495 1.47088238 3.96068615 1.1875 5.4375 C1.03667969 6.26121094 0.88585937 7.08492188 0.73046875 7.93359375 C0.48941406 8.61550781 0.24835938 9.29742187 0 10 C-0.99 10.33 -1.98 10.66 -3 11 C-2.53199289 6.94393835 -2.12046792 3.53411321 0 0 Z " fill="#000000" transform="translate(327,461)"/>
<path d="M0 0 C0.99 0.33 1.98 0.66 3 1 C2.01 3.97 1.02 6.94 0 10 C-0.99 10 -1.98 10 -3 10 C-2.69201674 8.51988629 -2.378482 7.04092675 -2.0625 5.5625 C-1.88847656 4.73878906 -1.71445312 3.91507812 -1.53515625 3.06640625 C-1 1 -1 1 0 0 Z " fill="#000000" transform="translate(339,424)"/>
<path d="M0 0 C0.66 0.33 1.32 0.66 2 1 C1.745504 2.48206495 1.47088238 3.96068615 1.1875 5.4375 C1.03667969 6.26121094 0.88585937 7.08492188 0.73046875 7.93359375 C0.48941406 8.61550781 0.24835938 9.29742187 0 10 C-0.99 10.33 -1.98 10.66 -3 11 C-2.53199289 6.94393835 -2.12046792 3.53411321 0 0 Z " fill="#000000" transform="translate(388,273)"/>
<path d="M0 0 C0.99 0 1.98 0 3 0 C2.67 3.3 2.34 6.6 2 10 C1.01 10 0.02 10 -1 10 C-0.67 6.7 -0.34 3.4 0 0 Z " fill="#000000" transform="translate(83,273)"/>
<path d="M0 0 C0.99 0.33 1.98 0.66 3 1 C2.01 3.97 1.02 6.94 0 10 C-0.99 10 -1.98 10 -3 10 C-2.69201674 8.51988629 -2.378482 7.04092675 -2.0625 5.5625 C-1.88847656 4.73878906 -1.71445312 3.91507813 -1.53515625 3.06640625 C-1 1 -1 1 0 0 Z " fill="#000000" transform="translate(400,236)"/>
<path d="M0 0 C0.99 0 1.98 0 3 0 C2.01 3.3 1.02 6.6 0 10 C-0.99 10 -1.98 10 -3 10 C-2.01 6.7 -1.02 3.4 0 0 Z " fill="#000000" transform="translate(424,161)"/>
<path d="M0 0 C0.99 0.33 1.98 0.66 3 1 C3 1.66 3 2.32 3 3 C-2.35714286 8 -2.35714286 8 -6 8 C-4.55746343 4.63408134 -2.66735273 2.48952921 0 0 Z " fill="#000000" transform="translate(199,93)"/>
<path d="M0 0 C0.66 0.33 1.32 0.66 2 1 C1.745504 2.48206495 1.47088238 3.96068615 1.1875 5.4375 C1.03667969 6.26121094 0.88585937 7.08492188 0.73046875 7.93359375 C0.48941406 8.61550781 0.24835938 9.29742187 0 10 C-0.99 10.33 -1.98 10.66 -3 11 C-2.53199289 6.94393835 -2.12046792 3.53411321 0 0 Z " fill="#000000" transform="translate(449,85)"/>
<path d="M0 0 C-2.36797991 2.61724095 -4.89600354 4.32861729 -8 6 C-8.66 6 -9.32 6 -10 6 C-10.33 5.01 -10.66 4.02 -11 3 C-9.73581754 2.30034557 -8.46334598 1.61565237 -7.1875 0.9375 C-6.47980469 0.55464844 -5.77210938 0.17179687 -5.04296875 -0.22265625 C-3 -1 -3 -1 0 0 Z " fill="#000000" transform="translate(251,61)"/>
<path d="M0 0 C0.99 0 1.98 0 3 0 C2.67 3.3 2.34 6.6 2 10 C1.01 10 0.02 10 -1 10 C-0.67 6.7 -0.34 3.4 0 0 Z " fill="#000000" transform="translate(77,311)"/>
<path d="M0 0 C0.99 0 1.98 0 3 0 C2.67 2.97 2.34 5.94 2 9 C1.01 9.33 0.02 9.66 -1 10 C-1.125 3.375 -1.125 3.375 0 0 Z " fill="#000000" transform="translate(80,292)"/>
<path d="M0 0 C3.40312738 1.05875074 6.01353231 2.00902154 9 4 C9 4.66 9 5.32 9 6 C5.04179141 5.43454163 2.3340947 4.19097652 -1 2 C-0.67 1.34 -0.34 0.68 0 0 Z " fill="#000000" transform="translate(114,412)"/>
<path d="M0 0 C1.32 0.66 2.64 1.32 4 2 C2.515 4.475 2.515 4.475 1 7 C0.01 6.67 -0.98 6.34 -2 6 C-1.34 4.02 -0.68 2.04 0 0 Z " fill="#000000" transform="translate(266,649)"/>
<path d="M0 0 C0.99 0.33 1.98 0.66 3 1 C2.67 2.65 2.34 4.3 2 6 C0.68 6 -0.64 6 -2 6 C-1.125 1.125 -1.125 1.125 0 0 Z " fill="#000000" transform="translate(453,71)"/>
<path d="M0 0 C0.99 0 1.98 0 3 0 C3.33 1.98 3.66 3.96 4 6 C3.01 6 2.02 6 1 6 C0.67 4.02 0.34 2.04 0 0 Z " fill="#000000" transform="translate(403,146)"/>
<path d="M0 0 C0.99 0.99 1.98 1.98 3 3 C2.01 3.99 1.02 4.98 0 6 C-0.99 5.67 -1.98 5.34 -3 5 C-2.01 3.35 -1.02 1.7 0 0 Z " fill="#000000" transform="translate(550,317)"/>
<path d="M0 0 C0.99 0.33 1.98 0.66 3 1 C2.67 1.99 2.34 2.98 2 4 C1.01 3.01 0.02 2.02 -1 1 C-0.67 0.67 -0.34 0.34 0 0 Z " fill="#000000" transform="translate(455,528)"/>
<path d="M0 0 C0.99 0.33 1.98 0.66 3 1 C2.67 1.99 2.34 2.98 2 4 C1.01 3.01 0.02 2.02 -1 1 C-0.67 0.67 -0.34 0.34 0 0 Z " fill="#000000" transform="translate(503,209)"/>
</svg>
