<svg width="568" height="541" viewBox="0 0 568 541" fill="none" xmlns="http://www.w3.org/2000/svg">
<path d="M92.8445 519.502C117.003 524.458 151.026 504.394 153.607 494.328L190 135.815L257.776 132.339C253.904 140.599 277.444 168.438 272.488 189.5C266.293 215.827 207.445 440.381 305.01 510.071C383.062 565.822 427.869 525.181 456.777 500.918C464.005 497.305 485.428 476.605 513.303 422.711C541.179 368.818 559.505 280.494 565.183 243.068C555.891 195.989 526.725 207.965 513.303 219.838L495.494 295.722C471.335 391.738 433.29 441.553 417.287 454.459C399.994 468.139 364.788 475.985 362.31 397.933C359.832 319.881 378.313 202.287 387.863 153.246C392.199 110.503 364.891 87.9447 350.695 82.0082C298.66 54.752 202.541 65.4893 160.985 74.265C157 20.5 110.504 24.7581 95.0177 24.5C76.9501 24.7581 40.8149 34.7211 40.8149 72.5082C40.8149 110.295 80.7719 137.501 96.0003 141.631L61.1556 490.077C61.7751 509.281 85.1012 517.695 92.8445 519.502Z" stroke="black" stroke-width="5"/>
<path d="M32.6193 301.455V316H30.858V303.301H30.7727L27.2216 305.659V303.869L30.858 301.455H32.6193ZM37.1932 316.114C36.8428 316.114 36.5421 315.988 36.2912 315.737C36.0402 315.486 35.9148 315.186 35.9148 314.835C35.9148 314.485 36.0402 314.184 36.2912 313.933C36.5421 313.682 36.8428 313.557 37.1932 313.557C37.5436 313.557 37.8442 313.682 38.0952 313.933C38.3461 314.184 38.4716 314.485 38.4716 314.835C38.4716 315.067 38.4124 315.28 38.294 315.474C38.1804 315.669 38.0265 315.825 37.8324 315.943C37.643 316.057 37.4299 316.114 37.1932 316.114ZM44.8263 301.455V316H43.065V303.301H42.9798L39.4286 305.659V303.869L43.065 301.455H44.8263Z" fill="black"/>
<path d="M6.61932 4.45455V19H4.85795V6.30114H4.77273L1.22159 8.65909V6.86932L4.85795 4.45455H6.61932ZM11.1932 19.1136C10.8428 19.1136 10.5421 18.9882 10.2912 18.7372C10.0402 18.4863 9.91477 18.1856 9.91477 17.8352C9.91477 17.4848 10.0402 17.1842 10.2912 16.9332C10.5421 16.6823 10.8428 16.5568 11.1932 16.5568C11.5436 16.5568 11.8442 16.6823 12.0952 16.9332C12.3461 17.1842 12.4716 17.4848 12.4716 17.8352C12.4716 18.0672 12.4124 18.2803 12.294 18.4744C12.1804 18.6686 12.0265 18.8248 11.8324 18.9432C11.643 19.0568 11.4299 19.1136 11.1932 19.1136ZM15.451 19V17.7216L20.2521 12.4659C20.8156 11.8504 21.2796 11.3153 21.6442 10.8608C22.0088 10.4015 22.2786 9.97064 22.4538 9.56818C22.6338 9.16098 22.7237 8.73485 22.7237 8.28977C22.7237 7.77841 22.6006 7.3357 22.3544 6.96165C22.1129 6.58759 21.7815 6.29877 21.3601 6.09517C20.9387 5.89157 20.4652 5.78977 19.9396 5.78977C19.3809 5.78977 18.8932 5.90578 18.4766 6.13778C18.0646 6.36506 17.745 6.68466 17.5178 7.09659C17.2952 7.50852 17.1839 7.99148 17.1839 8.54545H15.5078C15.5078 7.69318 15.7043 6.94508 16.0973 6.30114C16.4903 5.6572 17.0253 5.1553 17.7024 4.79545C18.3842 4.43561 19.1489 4.25568 19.9964 4.25568C20.8487 4.25568 21.6039 4.43561 22.2621 4.79545C22.9202 5.1553 23.4363 5.64062 23.8104 6.25142C24.1844 6.86222 24.3714 7.54167 24.3714 8.28977C24.3714 8.82481 24.2744 9.34801 24.0803 9.85938C23.8909 10.366 23.5594 10.9318 23.0859 11.5568C22.6172 12.1771 21.9661 12.9347 21.1328 13.8295L17.8658 17.3239V17.4375H24.6271V19H15.451Z" fill="black"/>
<path d="M418.619 67.4545V82H416.858V69.3011H416.773L413.222 71.6591V69.8693L416.858 67.4545H418.619ZM423.193 82.1136C422.843 82.1136 422.542 81.9882 422.291 81.7372C422.04 81.4863 421.915 81.1856 421.915 80.8352C421.915 80.4848 422.04 80.1842 422.291 79.9332C422.542 79.6823 422.843 79.5568 423.193 79.5568C423.544 79.5568 423.844 79.6823 424.095 79.9332C424.346 80.1842 424.472 80.4848 424.472 80.8352C424.472 81.0672 424.412 81.2803 424.294 81.4744C424.18 81.6686 424.027 81.8248 423.832 81.9432C423.643 82.0568 423.43 82.1136 423.193 82.1136ZM431.819 82.1989C430.881 82.1989 430.046 82.0379 429.312 81.7159C428.583 81.3939 428.003 80.9465 427.572 80.3736C427.146 79.7959 426.914 79.1259 426.876 78.3636H428.665C428.703 78.8324 428.864 79.2372 429.148 79.5781C429.433 79.9143 429.804 80.1747 430.263 80.3594C430.723 80.544 431.232 80.6364 431.79 80.6364C432.415 80.6364 432.969 80.5275 433.452 80.3097C433.935 80.0919 434.314 79.7888 434.589 79.4006C434.863 79.0123 435.001 78.5625 435.001 78.0511C435.001 77.5161 434.868 77.045 434.603 76.6378C434.338 76.2259 433.95 75.9039 433.438 75.6719C432.927 75.4399 432.302 75.3239 431.563 75.3239H430.398V73.7614H431.563C432.141 73.7614 432.647 73.6572 433.083 73.4489C433.523 73.2405 433.867 72.947 434.113 72.5682C434.364 72.1894 434.489 71.7443 434.489 71.233C434.489 70.7405 434.38 70.312 434.163 69.9474C433.945 69.5829 433.637 69.2988 433.239 69.0952C432.846 68.8916 432.382 68.7898 431.847 68.7898C431.345 68.7898 430.872 68.8821 430.427 69.0668C429.987 69.2467 429.627 69.5095 429.347 69.8551C429.068 70.196 428.916 70.608 428.893 71.0909H427.188C427.217 70.3286 427.446 69.661 427.877 69.0881C428.308 68.5104 428.871 68.0606 429.567 67.7386C430.268 67.4167 431.038 67.2557 431.876 67.2557C432.775 67.2557 433.547 67.438 434.191 67.8026C434.835 68.1624 435.33 68.6383 435.675 69.2301C436.021 69.822 436.194 70.4612 436.194 71.1477C436.194 71.9669 435.978 72.6652 435.548 73.2429C435.121 73.8205 434.541 74.2206 433.808 74.4432V74.5568C434.726 74.7083 435.443 75.099 435.96 75.7287C436.476 76.3537 436.734 77.1278 436.734 78.0511C436.734 78.8419 436.518 79.5521 436.087 80.1818C435.661 80.8068 435.079 81.2992 434.34 81.6591C433.602 82.0189 432.761 82.1989 431.819 82.1989Z" fill="black"/>
<path d="M55.5626 208.165C55.1015 207.861 54.4813 207.989 54.1773 208.45L49.224 215.964C48.92 216.425 49.0474 217.045 49.5086 217.349C49.9697 217.653 50.5899 217.526 50.8938 217.065L55.2968 210.385L61.9762 214.788C62.4373 215.092 63.0575 214.965 63.3615 214.504C63.6654 214.043 63.538 213.422 63.0769 213.118L55.5626 208.165ZM43.9569 402.29C54.247 368.37 71.07 282.205 55.9918 208.799L54.0327 209.201C69.016 282.145 52.2868 367.942 42.0431 401.71L43.9569 402.29Z" fill="black"/>
<path d="M118.5 81C118.5 88.8754 111.697 95.5 103 95.5C94.303 95.5 87.5 88.8754 87.5 81C87.5 73.1246 94.303 66.5 103 66.5C111.697 66.5 118.5 73.1246 118.5 81Z" stroke="black" stroke-width="5"/>
<path d="M27.9778 90.4744C28.2398 90.5617 28.5229 90.42 28.6102 90.158L30.0326 85.8888C30.1199 85.6268 29.9783 85.3436 29.7163 85.2564C29.4543 85.1691 29.1712 85.3107 29.0839 85.5727L27.8195 89.3676L24.0246 88.1032C23.7626 88.016 23.4795 88.1576 23.3922 88.4196C23.3049 88.6815 23.4465 88.9647 23.7085 89.052L27.9778 90.4744ZM103.206 9.72893C78.1105 -1.61361 53.2649 6.62048 37.6903 23.6188C22.1203 40.6119 15.7756 66.4063 27.6887 90.2237L28.583 89.7763C16.8808 66.3805 23.0972 41.0261 38.4276 24.2943C53.7534 7.5676 78.1475 -0.499469 102.794 10.6402L103.206 9.72893Z" fill="black"/>
<path d="M96 491.498L140.5 135.498V98.7485L130 63.0003C120 35.4999 47.9991 43.497 64.4992 90.9965C68.9981 111.993 101.5 124.997 172.5 112.5C223.5 88.997 344 96.0004 344 129.5C315 221.334 256.5 411 310 466C363.5 521 492.4 550.002 528 250.002" stroke="black" stroke-width="2" stroke-dasharray="10 10"/>
<path d="M419.2 174.248C419.612 174.966 420.529 175.213 421.248 174.8L432.951 168.072C433.669 167.659 433.917 166.742 433.504 166.024C433.091 165.306 432.174 165.058 431.456 165.471L421.053 171.452L415.072 161.049C414.659 160.331 413.742 160.083 413.024 160.496C412.306 160.909 412.058 161.826 412.471 162.544L419.2 174.248ZM304.806 42.9875C328.971 46.1321 363.65 56.4638 389.207 77.1411C401.966 87.465 412.412 100.335 418.182 116.142C423.946 131.938 425.081 150.773 419.052 173.109L421.948 173.891C428.119 151.027 427 131.554 421 115.114C415.004 98.686 404.175 85.3934 391.093 74.8089C364.966 53.6695 329.696 43.2012 305.194 40.0125L304.806 42.9875Z" fill="black"/>
<path d="M430.997 400.398C430.94 399.572 430.225 398.947 429.398 399.003L415.929 399.92C415.103 399.976 414.478 400.692 414.535 401.519C414.591 402.345 415.307 402.97 416.133 402.913L428.105 402.098L428.92 414.071C428.976 414.897 429.692 415.522 430.519 415.465C431.345 415.409 431.97 414.693 431.913 413.867L430.997 400.398ZM382.5 392.025C382.585 397.082 383.258 402.788 384.809 407.871C386.349 412.915 388.823 417.567 392.674 420.222C396.645 422.96 401.767 423.369 408.036 420.541C414.232 417.746 421.674 411.75 430.63 401.486L428.37 399.514C419.526 409.65 412.422 415.271 406.802 417.806C401.254 420.309 397.289 419.76 394.376 417.753C391.344 415.662 389.139 411.779 387.678 406.995C386.23 402.249 385.581 396.834 385.5 391.975L382.5 392.025Z" fill="black"/>
</svg>
