<?xml version="1.0" encoding="UTF-8"?>
<svg version="1.1" xmlns="http://www.w3.org/2000/svg" width="643" height="691">
<path d="M0 0 C3.82558023 3.65693516 5.79779856 6.89710505 6.3125 12.25 C6.26329411 16.17944202 5.35163017 19.54967694 4.25 23.3125 C-5.17498932 56.508704 -5.56852438 93.49566658 -7.75 127.75 C-7.81502716 128.77049438 -7.88005432 129.79098877 -7.947052 130.84240723 C-8.12985792 133.74368366 -8.30835094 136.64517982 -8.484375 139.546875 C-8.53728195 140.40228882 -8.5901889 141.25770264 -8.6446991 142.13903809 C-8.91744467 146.76929832 -9.05138061 151.36173229 -9 156 C-8.79020508 155.32348389 -8.58041016 154.64696777 -8.36425781 153.94995117 C2.63427591 118.8589702 17.68209473 80.46609118 43 53 C43.55107422 52.40123047 44.10214844 51.80246094 44.66992188 51.18554688 C71.66126689 22.19484297 111.11630715 1.65572634 151.1953125 -0.09594727 C190.13904923 -0.7407394 230.34076231 16.81107205 258.2578125 43.328125 C287.1699056 71.49888238 309.63396543 118.38918344 310.18980408 159.16300964 C310.19639793 160.25214409 310.19639793 160.25214409 310.203125 161.36328125 C310.21013931 162.14459915 310.21715363 162.92591705 310.22438049 163.73091125 C310.24185939 166.25816644 310.24823891 168.78518647 310.25 171.3125 C310.25067474 172.17937439 310.25134949 173.04624878 310.25204468 173.93939209 C310.19183796 222.79911452 296.50581879 266.3271071 271 308 C290.86606671 304.65746227 307.91322451 301.25247328 324.9921875 290.28857422 C327.11074798 288.92892415 329.24221719 287.59111977 331.375 286.25390625 C353.93899348 272.00648349 366.79083888 254.99930406 378 231 C378.35175293 230.2481543 378.70350586 229.49630859 379.06591797 228.72167969 C385.3676992 215.06451604 390.19801146 200.98748344 394.8359375 186.703125 C395.21153809 185.54772217 395.58713867 184.39231934 395.97412109 183.2019043 C396.60856082 181.22173367 397.22899259 179.23693933 397.82666016 177.24536133 C400.06409248 169.95477644 403.67583119 166.58684789 410.20703125 162.6796875 C415.41018143 160.07355624 420.22707438 158.90178351 426 160 C439.30762154 164.498059 446.00131597 175.02911619 452 187 C459.53171277 203.0126277 452.2626179 219.62725839 446.78662109 235.52197266 C435.21583267 267.54881599 419.21065675 296.0134389 396 321 C395.39929688 321.66644531 394.79859375 322.33289063 394.1796875 323.01953125 C383.74582995 334.10832791 370.41322148 342.05281424 357 349 C356.29987793 349.36834961 355.59975586 349.73669922 354.87841797 350.11621094 C324.47838484 365.93712639 288.5298827 375.26219334 254.24609375 376.26953125 C252.8883997 376.32054826 251.53073333 376.37230762 250.1730957 376.42480469 C247.52529864 376.52685822 244.90338578 376.56280792 242.25073242 376.56347656 C235.28996411 376.74429366 235.28996411 376.74429366 229.47241211 380.18579102 C227.46314106 382.70667239 225.74187964 385.29111227 224 388 C221.76480733 390.44035664 219.39224833 392.71460147 217 395 C216.21625 395.78375 215.4325 396.5675 214.625 397.375 C213.75875 398.24125 212.8925 399.1075 212 400 C211.43539063 400.61101562 210.87078125 401.22203125 210.2890625 401.8515625 C195.59103774 417.33798706 176.47063395 429.49597534 158 440 C157.29133789 440.4036377 156.58267578 440.80727539 155.85253906 441.22314453 C138.06050915 451.23849969 118.89460672 459.25163568 99 464 C98.19820313 464.19464844 97.39640625 464.38929688 96.5703125 464.58984375 C67.04405019 471.45537283 31.43299526 471.64690457 4.5859375 456.01171875 C-0.50026454 452.72610648 -4.7494619 449.31399884 -9 445 C-9.13912383 455.44115753 -8.83041397 465.71584789 -7.875 476.125 C-7.81064758 476.83419586 -7.74629517 477.54339172 -7.67999268 478.27407837 C-3.3357594 525.61871544 4.30241007 572.78837718 13.32421875 619.45043945 C16.03929238 633.75431333 16.03929238 633.75431333 14.00390625 638.15234375 C-1.98397379 657.95305156 -28.65680039 669.09544271 -53.69824219 671.82128906 C-77.95022426 673.70423888 -100.62275129 671.20778501 -120.5234375 656.08203125 C-124.25197914 651.44193763 -125.52560977 646.34852967 -127.1875 640.6875 C-127.75670166 638.79257813 -127.75670166 638.79257813 -128.33740234 636.859375 C-137.09524126 607.33976675 -143.89288128 577.35546659 -149 547 C-149.13128296 546.22219177 -149.26256592 545.44438354 -149.39782715 544.64300537 C-155.55795574 507.93630844 -159.42985599 470.95275789 -161.75 433.8125 C-161.80916595 432.86971191 -161.86833191 431.92692383 -161.92929077 430.95556641 C-163.66098991 402.81336989 -164.20867291 374.68724631 -164.1875 346.5 C-164.18723312 345.69836048 -164.18696625 344.89672096 -164.18669128 344.07078934 C-164.14366373 240.57009807 -155.40955712 136.76594937 -136.365448 34.98736572 C-136.04406266 33.23961994 -135.74407418 31.48796809 -135.44750977 29.73583984 C-134.61678438 25.01551317 -133.669166 21.63740489 -130.6875 17.75 C-129.82705078 16.59757812 -129.82705078 16.59757812 -128.94921875 15.421875 C-128.30597656 14.62265625 -127.66273437 13.8234375 -127 13 C-126.21882813 12.00355469 -125.43765625 11.00710937 -124.6328125 9.98046875 C-97.98245664 -20.18899938 -31.31914192 -23.89668632 0 0 Z M-120.0625 13.5625 C-125.83356777 20.04901393 -128.78787743 26.24136425 -130.375 34.75 C-130.57359619 35.7603833 -130.77219238 36.7707666 -130.97680664 37.81176758 C-144.56351821 109.08150926 -151.71870779 181.63851657 -156 254 C-156.06058594 254.99539795 -156.12117188 255.9907959 -156.18359375 257.01635742 C-159.70127527 314.96527477 -159.9895916 374.06946172 -156 432 C-155.93447937 432.96484314 -155.86895874 433.92968628 -155.80145264 434.92376709 C-150.96750563 505.4772856 -142.05108325 577.19286005 -119.55078125 644.5546875 C-119.17348877 645.69019043 -118.79619629 646.82569336 -118.4074707 647.99560547 C-115.96382088 653.21183353 -112.02619129 655.50796381 -107 658 C-106.05640625 658.46792969 -105.1128125 658.93585937 -104.140625 659.41796875 C-101.13236644 660.77486844 -98.11820506 661.92107734 -95 663 C-94.09636719 663.32097656 -93.19273438 663.64195312 -92.26171875 663.97265625 C-65.5023121 671.75786928 -35.03948992 663.93843387 -10.9375 651.5625 C-3.59000807 647.38267679 5.60973794 642.07205253 9 634 C8.93056337 626.79643612 7.29813696 619.54919959 5.99609375 612.48828125 C5.58428296 610.20818219 5.17301157 607.92798565 4.76220703 605.64770508 C4.54614807 604.45368073 4.33008911 603.25965637 4.10748291 602.02944946 C-15.43971576 493.58496754 -15.43971576 493.58496754 -15.0625 445.5625 C-15.05798828 444.43779297 -15.05347656 443.31308594 -15.04882812 442.15429688 C-15.03726149 439.43613681 -15.02097051 436.71810088 -15 434 C-13.02 433.67 -11.04 433.34 -9 433 C-8.7525 433.73347656 -8.505 434.46695312 -8.25 435.22265625 C-3.17078339 446.50804065 10.06032915 452.55962016 20.91015625 456.90234375 C44.64205939 465.33301983 73.81156798 464.20887171 98 458 C98.83208984 457.79101074 99.66417969 457.58202148 100.52148438 457.36669922 C127.67907119 450.35676527 154.31140602 437.43733966 177 421 C177.9593042 420.31236572 177.9593042 420.31236572 178.93798828 419.61083984 C203.13863168 402.33706477 203.13863168 402.33706477 222.22483826 379.9717865 C225.1112832 375.60122134 227.39665511 372.54360252 232.46362305 370.82568359 C235.77146332 370.48279381 238.9877254 370.32434789 242.31240845 370.39468384 C245.2390918 370.4536504 248.15645287 370.36519553 251.08213806 370.28587341 C252.5740492 370.24633824 254.06615567 370.21359047 255.55836487 370.18763733 C306.94998522 369.20716991 361.11199642 348.35857102 396.99609375 311.3828125 C411.42159442 295.99145757 422.1211282 277.01894697 431 258 C431.3609375 257.22978516 431.721875 256.45957031 432.09375 255.66601562 C436.95811684 245.15188938 441.00025408 234.50232439 444.4375 223.4375 C444.7675 222.37998535 445.0975 221.3224707 445.4375 220.23291016 C449.31606516 207.3050358 451.41947855 198.34858026 445 186 C440.43715866 178.02453358 435.65524287 171.11038358 427.5 166.625 C421.50221639 165.1255541 417.33058566 165.94334526 411.9921875 168.734375 C407.0355262 171.88331277 404.4949307 174.08909262 402.89453125 179.85546875 C402.55623291 181.02271484 402.21793457 182.18996094 401.86938477 183.39257812 C401.52061279 184.64490234 401.17184082 185.89722656 400.8125 187.1875 C400.04067985 189.83128096 399.24996292 192.46912992 398.453125 195.10546875 C398.1519149 196.10439651 398.1519149 196.10439651 397.84461975 197.12350464 C387.87046923 229.756461 372.61718932 266.70448983 343 286 C342.31373535 286.45375 341.6274707 286.9075 340.92041016 287.375 C321.66856878 300.06361976 303.77807858 309.20288502 280.625 312.25 C278.79775391 312.50910156 278.79775391 312.50910156 276.93359375 312.7734375 C271.24970297 313.55443013 265.7388377 314.23700215 260 314 C260.3309668 313.48953125 260.66193359 312.9790625 261.00292969 312.453125 C289.02710238 268.94140195 304.09734527 224.30965184 304.375 172.5 C304.3830365 171.66404297 304.391073 170.82808594 304.39935303 169.96679688 C304.68292449 131.13373804 289.80722171 94.1619505 267 63 C266.360625 62.11957031 265.72125 61.23914063 265.0625 60.33203125 C241.17027928 29.02326701 204.39532207 12.319398 166.0625 6.75 C132.00590095 2.79158901 94.26716847 17.10565282 67.65551758 38.13500977 C66.08943365 39.40731594 64.54089989 40.69732813 63 42 C62.48985352 42.43038574 61.97970703 42.86077148 61.45410156 43.30419922 C49.08281632 53.8829425 39.29455745 66.03002238 31 80 C30.64228516 80.60118652 30.28457031 81.20237305 29.91601562 81.82177734 C27.16597163 86.48870568 24.55448036 91.22356304 22 96 C21.56929199 96.80405273 21.13858398 97.60810547 20.69482422 98.43652344 C4.31601288 129.32902741 -9.20690345 164.86852623 -12 200 C-13.98 200 -15.96 200 -18 200 C-17.67 199.01 -17.34 198.02 -17 197 C-16.84776177 195.21698218 -16.7466604 193.42940961 -16.67456055 191.64135742 C-16.62731842 190.53252197 -16.58007629 189.42368652 -16.53140259 188.28125 C-16.48365692 187.06824219 -16.43591125 185.85523438 -16.38671875 184.60546875 C-16.30360448 182.65768176 -16.22047223 180.70989545 -16.13661575 178.76214027 C-16.04717097 176.67711503 -15.95933174 174.59202599 -15.87161255 172.50692749 C-11.38051293 66.46783778 -11.38051293 66.46783778 -2.05078125 24.1171875 C0.17719616 15.96171879 0.17719616 15.96171879 -0.97314453 8.00854492 C-8.34701413 -2.2902633 -23.28680974 -4.90927071 -35 -7 C-64.04300086 -11.50255968 -97.8813091 -7.33075078 -120.0625 13.5625 Z " fill="#000000" transform="translate(187,19)"/>
<path d="M0 0 C9.30236088 5.40379864 13.62622028 14.02698445 16.46875 24.171875 C20.79479557 43.63908005 21.02468992 64.08168466 21.5625 83.9375 C21.59118164 84.80971191 21.61986328 85.68192383 21.64941406 86.58056641 C23.27203424 139.19248521 5.29202076 193.59809211 -11.4375 242.9375 C-16.8624584 241.87878414 -22.27080694 240.76306458 -27.66796875 239.5703125 C-69.3930747 230.44934652 -110.89245823 228.4957031 -153.4375 228.9375 C-152.90245382 222.52968502 -151.76398547 216.88805292 -149.6875 210.8125 C-149.38368408 209.91764893 -149.07986816 209.02279785 -148.7668457 208.10083008 C-136.95774719 174.27312801 -121.16190153 141.35455319 -105.42089844 109.20727539 C-102.55909228 103.36005104 -99.75407226 97.49701696 -97.0703125 91.56640625 C-88.08030433 71.7180083 -78.01100408 53.99290295 -64.4375 36.9375 C-63.98407227 36.36692871 -63.53064453 35.79635742 -63.06347656 35.20849609 C-49.12474815 17.84363028 -25.29101829 -11.72304039 0 0 Z M-47.4375 25.9375 C-49.91863163 28.49915518 -52.19728401 31.16367033 -54.4375 33.9375 C-55.24445313 34.91847656 -56.05140625 35.89945313 -56.8828125 36.91015625 C-64.38317526 46.15298631 -71.06462838 55.88959016 -77.4375 65.9375 C-77.8097168 66.5243457 -78.18193359 67.11119141 -78.56542969 67.71582031 C-83.70158575 75.94841495 -87.70003869 84.64043062 -91.67919922 93.47021484 C-95.65639644 102.29199803 -99.7963469 111.02810802 -103.96679688 119.75976562 C-115.7031541 144.36059535 -127.050361 169.12957494 -137.1875 194.4375 C-137.90365479 196.22510742 -137.90365479 196.22510742 -138.63427734 198.04882812 C-144.04884008 210.15688318 -144.04884008 210.15688318 -146.4375 222.9375 C-145.77782227 222.92702637 -145.11814453 222.91655273 -144.43847656 222.90576172 C-103.85313525 222.35843465 -63.9243965 225.40678059 -24.27294922 234.33666992 C-21.33872023 234.95843138 -18.39912044 235.46509933 -15.4375 235.9375 C3.41157152 179.86908821 17.83215994 123.9943028 14.86978149 64.47479248 C14.79141375 62.89653601 14.71607589 61.31812544 14.64413452 59.73956299 C14.24432303 51.16318741 13.5230941 42.73066905 12.12890625 34.25390625 C12.00944138 33.52563629 11.8899765 32.79736633 11.76689148 32.04702759 C10.16372409 22.92022782 7.70870972 13.58151868 0.53125 7.23828125 C-17.46937537 -4.65498908 -35.07593005 13.86133426 -47.4375 25.9375 Z " fill="#000000" transform="translate(329.4375,86.0625)"/>
<path d="M0 0 C0.99 0 1.98 0 3 0 C1.93367897 7.43718753 0.69089912 14.8246082 -0.69921875 22.20703125 C-20.24848254 126.19207592 -29.75259103 232.6262799 11.15234375 583.75390625 C12.60287095 587.80314471 13.8871743 591.84583916 15 596 C15.66 596 16.32 596 17 596 C17.33 594.68 17.66 593.36 18 592 C18.99 592 19.98 592 21 592 C20.57781184 593.6498275 20.13675575 595.29483665 19.6875 596.9375 C19.32205078 598.31228516 19.32205078 598.31228516 18.94921875 599.71484375 C18.63597656 600.46894531 18.32273438 601.22304688 18 602 C14.35839192 603.21386936 13.66834531 602.6674695 10.3125 601.0625 C9.10013672 600.49208984 9.10013672 600.49208984 7.86328125 599.91015625 C7.24839844 599.60980469 6.63351563 599.30945313 6 599 C6 598.34 6 597.68 6 597 C7.98 597 9.96 597 12 597 C11.70867188 596.2378418 11.41734375 595.47568359 11.1171875 594.69042969 C-10.2983939 538.33983933 -21.48638942 479.42416104 -27.1875 419.5625 C-27.26631409 418.7529184 -27.34512817 417.94333679 -27.42633057 417.10922241 C-30.66204638 383.43934941 -31.37732331 349.77699048 -31.31805801 315.97292328 C-31.31241024 312.69795177 -31.3095939 309.42298546 -31.30697632 306.14801025 C-31.26773494 272.33809292 -30.63251302 238.72085042 -28 205 C-27.82127863 202.64892657 -27.64256798 200.29785233 -27.46386719 197.94677734 C-22.62063634 135.09118026 -14.7680637 72.48397282 -2.56640625 10.6171875 C-2.42198593 9.8824118 -2.27756561 9.14763611 -2.12876892 8.39059448 C-1.55367715 5.52006306 -0.92701349 2.78104046 0 0 Z " fill="#000000" transform="translate(31,55)"/>
<path d="M0 0 C0.88039948 0.00054382 1.76079895 0.00108765 2.6678772 0.00164795 C16.97176177 0.04217576 30.68478449 0.94022992 44.625 4.375 C45.54249023 4.59994141 46.45998047 4.82488281 47.40527344 5.05664062 C78.96770657 13.03238948 107.90332572 27.88467981 131.625 50.375 C133.06166016 51.71498047 133.06166016 51.71498047 134.52734375 53.08203125 C164.34867595 81.45549168 179.47897555 122.33731371 180.90625 162.94921875 C181.76276669 204.15124048 171.58243425 245.35660201 153.625 282.375 C155.605 282.045 157.585 281.715 159.625 281.375 C159.625 282.365 159.625 283.355 159.625 284.375 C158.35660474 284.88115298 157.08516898 285.37969099 155.8125 285.875 C154.75095703 286.29265625 154.75095703 286.29265625 153.66796875 286.71875 C151.625 287.375 151.625 287.375 148.625 287.375 C148.11884702 286.10660474 147.62030901 284.83516898 147.125 283.5625 C146.70734375 282.50095703 146.70734375 282.50095703 146.28125 281.41796875 C145.625 279.375 145.625 279.375 145.625 276.375 C146.615 276.375 147.605 276.375 148.625 276.375 C149.285 277.695 149.945 279.015 150.625 280.375 C173.28493675 225.28495711 188.11037988 165.55292197 165.8125 107.6875 C164.77542848 105.2333613 163.72341193 102.80079218 162.625 100.375 C162.33254395 99.7243457 162.04008789 99.07369141 161.73876953 98.40332031 C143.66773524 58.81732779 108.19090673 30.37696728 68.00146484 15.1965332 C23.4745855 -0.7774343 -27.27214033 -1.5291442 -70.65332031 18.42285156 C-98.83323688 31.94677697 -118.81052004 53.52049814 -132.375 81.375 C-133.365 81.375 -134.355 81.375 -135.375 81.375 C-131.43745076 68.47952623 -123.87094535 57.65144875 -115.375 47.375 C-114.48167969 46.25158203 -114.48167969 46.25158203 -113.5703125 45.10546875 C-108.85114856 39.38150674 -103.22366117 34.90093943 -97.375 30.375 C-96.53195313 29.7046875 -95.68890625 29.034375 -94.8203125 28.34375 C-79.5086759 16.61568792 -61.80878761 9.37542847 -43.25 4.625 C-42.47551514 4.42616211 -41.70103027 4.22732422 -40.90307617 4.02246094 C-27.31105606 0.72725448 -13.91582803 -0.03240464 0 0 Z " fill="#000000" transform="translate(337.375,0.625)"/>
<path d="M0 0 C0.69227188 0.11657959 1.38454376 0.23315918 2.09779358 0.35327148 C4.91721019 0.84105629 7.54136714 1.39790363 10.26171875 2.3046875 C8.90431998 7.18099505 6.72682622 10.94911689 3.76171875 14.9921875 C3.32174561 15.6001416 2.88177246 16.2080957 2.4284668 16.83447266 C-1.89875392 22.70817299 -6.73402217 27.99815773 -11.73828125 33.3046875 C-13.05953913 34.75509089 -14.3729878 36.21267639 -15.67578125 37.6796875 C-16.20042969 38.26492188 -16.72507812 38.85015625 -17.265625 39.453125 C-18.85166575 41.31705364 -18.85166575 41.31705364 -19.9921875 43.8046875 C-22.30706903 47.11905926 -25.13315556 48.37181746 -28.73828125 49.9296875 C-29.74532104 50.3774353 -29.74532104 50.3774353 -30.77270508 50.83422852 C-43.42004893 56.32173111 -55.18858308 58.63493005 -68.4609375 53.69921875 C-82.9320951 47.54164633 -95.49677044 41.33487852 -103.73828125 27.3046875 C-106.34436646 19.48643186 -105.60389328 11.09206802 -102.17578125 3.6796875 C-99.39687705 -1.15766425 -97.17801031 -4.169414 -91.73828125 -5.6953125 C-62.74838504 -12.72567249 -28.90004279 -4.89952124 0 0 Z M-93.73828125 2.5546875 C-97.41107956 7.60478518 -99.52418914 11.98897016 -99.73828125 18.3046875 C-98.34162921 26.53601975 -93.85062745 32.20400474 -87.29296875 37.1484375 C-75.47344021 45.00515035 -62.24101596 51.87151786 -47.73828125 50.3046875 C-43.60159088 49.27976038 -39.7004643 47.86357919 -35.73828125 46.3046875 C-34.8978125 46.0159375 -34.05734375 45.7271875 -33.19140625 45.4296875 C-27.91091457 43.44507318 -25.36680088 41.07735613 -22.24609375 36.421875 C-20.68405942 34.22855219 -19.0073008 32.5253112 -17.05078125 30.6796875 C-11.29914235 25.1057054 -6.58317262 18.66018313 -1.73828125 12.3046875 C-0.83529297 11.16773438 -0.83529297 11.16773438 0.0859375 10.0078125 C1.45109537 8.37530191 1.45109537 8.37530191 1.26171875 6.3046875 C-47.84898046 -5.58704712 -47.84898046 -5.58704712 -93.73828125 2.5546875 Z " fill="#000000" transform="translate(290.73828125,373.6953125)"/>
<path d="M0 0 C0.99 0.99 1.98 1.98 3 3 C-16.20707896 22.59546289 -16.20707896 22.59546289 -24.43359375 28.98828125 C-26.81644708 30.8561191 -29.09118989 32.81510476 -31.36401367 34.81420898 C-46.19408602 47.75744513 -62.95033032 58.25628266 -80 68 C-80.66837891 68.38381836 -81.33675781 68.76763672 -82.02539062 69.16308594 C-112.37297974 86.4308954 -149.66173052 99.21158278 -185 97 C-185.65726074 96.95891113 -186.31452148 96.91782227 -186.99169922 96.87548828 C-200.94939808 95.91595396 -215.06973546 93.5636198 -228 88 C-227.34 89.98 -226.68 91.96 -226 94 C-227.485 94.495 -227.485 94.495 -229 95 C-232.57142857 87.71428571 -232.57142857 87.71428571 -231 83 C-228.03 82.01 -225.06 81.02 -222 80 C-221.67 80.99 -221.34 81.98 -221 83 C-223.475 83.495 -223.475 83.495 -226 84 C-226 84.66 -226 85.32 -226 86 C-223.86311489 86.47581818 -221.72608254 86.95095988 -219.58886719 87.42529297 C-217.9434743 87.79055653 -216.29826971 88.15667012 -214.65332031 88.52392578 C-200.9515224 91.61570245 -200.9515224 91.61570245 -187 93 C-185.43958984 93.07734375 -185.43958984 93.07734375 -183.84765625 93.15625 C-134.10450398 94.47540542 -86.04397828 71.03296346 -47 42 C-46.41959961 41.57122559 -45.83919922 41.14245117 -45.24121094 40.70068359 C-33.5534332 32.02790585 -22.6107758 22.50834317 -11.9375 12.625 C-11.0086499 11.76890137 -11.0086499 11.76890137 -10.06103516 10.89550781 C-6.39709217 7.4672688 -3.13292886 3.92060285 0 0 Z " fill="#000000" transform="translate(430,406)"/>
<path d="M0 0 C0.78636841 0.04384827 1.57273682 0.08769653 2.38293457 0.13287354 C21.73639287 1.23554661 42.31682062 2.4922531 60.375 10.1875 C60.705 8.2075 61.035 6.2275 61.375 4.1875 C62.365 4.5175 63.355 4.8475 64.375 5.1875 C64.87 10.6325 64.87 10.6325 65.375 16.1875 C61.13858987 17.03478203 57.65087998 17.27134078 53.375 17.1875 C53.87 15.7025 53.87 15.7025 54.375 14.1875 C55.365 13.8575 56.355 13.5275 57.375 13.1875 C35.16981129 4.88814517 10.80590906 4.28460942 -12.625 3.1875 C-14.43822754 3.10072998 -14.43822754 3.10072998 -16.28808594 3.01220703 C-22.73272341 2.70794214 -29.17784556 2.43249187 -35.625 2.1875 C-35.625 1.5275 -35.625 0.8675 -35.625 0.1875 C-25.24153884 -3.27365372 -10.8735991 -0.61252825 0 0 Z " fill="#000000" transform="translate(235.625,288.8125)"/>
<path d="M0 0 C0.99 0 1.98 0 3 0 C3 3.3 3 6.6 3 10 C3.66 10 4.32 10 5 10 C5 10.66 5 11.32 5 12 C4.34 12 3.68 12 3 12 C3 12.99 3 13.98 3 15 C2.34 15 1.68 15 1 15 C1 14.01 1 13.02 1 12 C-1.31 12 -3.62 12 -6 12 C-5.56629155 7.2292071 -3.35665609 3.36635741 0 0 Z M0 4 C-0.99 5.98 -1.98 7.96 -3 10 C-1.68 10 -0.36 10 1 10 C1 8.02 1 6.04 1 4 C0.67 4 0.34 4 0 4 Z " fill="#000000" transform="translate(258,273)"/>
<path d="M0 0 C0 4.95 0 9.9 0 15 C-0.99 15 -1.98 15 -3 15 C-3 11.37 -3 7.74 -3 4 C-3.99 4.33 -4.98 4.66 -6 5 C-5.625 3.0625 -5.625 3.0625 -5 1 C-3 0 -3 0 0 0 Z " fill="#000000" transform="translate(244,273)"/>
<path d="M0 0 C0.99 0.33 1.98 0.66 3 1 C2.52433594 1.81210937 2.52433594 1.81210937 2.0390625 2.640625 C0.81692026 5.4157149 0.59056564 7.73208098 0.375 10.75 C0.30023438 11.73484375 0.22546875 12.7196875 0.1484375 13.734375 C0.09945312 14.48203125 0.05046875 15.2296875 0 16 C-0.99 16 -1.98 16 -3 16 C-3.55353075 4.29384966 -3.55353075 4.29384966 0 0 Z " fill="#000000" transform="translate(112,327)"/>
<path d="M0 0 C0.99 0 1.98 0 3 0 C3 1.32 3 2.64 3 4 C3.66 4.33 4.32 4.66 5 5 C5 5.99 5 6.98 5 8 C4.34 8 3.68 8 3 8 C2.67 9.32 2.34 10.64 2 12 C1.34 12 0.68 12 0 12 C-2.21538462 5.72307692 -2.21538462 5.72307692 -1.125 2.0625 C-0.75375 1.381875 -0.3825 0.70125 0 0 Z " fill="#000000" transform="translate(111,410)"/>
<path d="M0 0 C3.78717347 1.48781815 5.77407001 3.61988409 8 7 C7.67 7.99 7.34 8.98 7 10 C5.82174642 9.09827532 4.65768423 8.17798498 3.5 7.25 C2.8503125 6.73953125 2.200625 6.2290625 1.53125 5.703125 C0 4 0 4 0 0 Z " fill="#000000" transform="translate(406,87)"/>
<path d="M0 0 C3.96 0 7.92 0 12 0 C11.67 0.99 11.34 1.98 11 3 C7.37 3 3.74 3 0 3 C0 2.01 0 1.02 0 0 Z " fill="#000000" transform="translate(401,357)"/>
<path d="M0 0 C3.96 0 7.92 0 12 0 C12 0.99 12 1.98 12 3 C8.37 3 4.74 3 1 3 C0.67 2.01 0.34 1.02 0 0 Z " fill="#000000" transform="translate(380,357)"/>
<path d="M0 0 C0.66 0 1.32 0 2 0 C3.2890625 1.6796875 3.2890625 1.6796875 4.625 3.875 C5.29402344 4.95394531 5.29402344 4.95394531 5.9765625 6.0546875 C7 8 7 8 7 10 C6.01 10.33 5.02 10.66 4 11 C3.13341385 9.73760288 2.28207941 8.46472499 1.4375 7.1875 C0.72400391 6.12595703 0.72400391 6.12595703 -0.00390625 5.04296875 C-1 3 -1 3 0 0 Z " fill="#000000" transform="translate(419,103)"/>
<path d="M0 0 C4.31457305 0.319598 6.90647504 3.25801197 10 6 C9.67 6.66 9.34 7.32 9 8 C4.56541027 6.6062718 2.12621626 4.39417765 -1 1 C-0.67 0.67 -0.34 0.34 0 0 Z " fill="#000000" transform="translate(390,74)"/>
<path d="M0 0 C0.66 0.99 1.32 1.98 2 3 C-4.5 7 -4.5 7 -9 7 C-8 4 -8 4 -6.15234375 2.83203125 C-5.42144531 2.49558594 -4.69054687 2.15914063 -3.9375 1.8125 C-3.20402344 1.46832031 -2.47054688 1.12414062 -1.71484375 0.76953125 C-1.14894531 0.51558594 -0.58304687 0.26164062 0 0 Z " fill="#000000" transform="translate(329,428)"/>
<path d="M0 0 C0.66 0.33 1.32 0.66 2 1 C0.68775452 4.93673644 -0.91910327 7.22719294 -4 10 C-4.99 9.67 -5.98 9.34 -7 9 C-6.02180976 7.68677212 -5.0424189 6.37443848 -4.0625 5.0625 C-3.51722656 4.33160156 -2.97195313 3.60070312 -2.41015625 2.84765625 C-1 1 -1 1 0 0 Z " fill="#000000" transform="translate(375,390)"/>
<path d="M0 0 C3.63 0 7.26 0 11 0 C11 0.99 11 1.98 11 3 C7.37 3 3.74 3 0 3 C0 2.01 0 1.02 0 0 Z " fill="#000000" transform="translate(464,356)"/>
<path d="M0 0 C0 0.99 0 1.98 0 3 C-3.63 3.66 -7.26 4.32 -11 5 C-11 4.01 -11 3.02 -11 2 C-7.12315913 0.80712589 -4.08378077 0 0 0 Z " fill="#000000" transform="translate(515,350)"/>
<path d="M0 0 C0.99 0 1.98 0 3 0 C2.38545304 3.99455527 0.29353263 6.74466336 -2 10 C-2.99 9.67 -3.98 9.34 -5 9 C-3.35 6.03 -1.7 3.06 0 0 Z " fill="#000000" transform="translate(123,310)"/>
<path d="M0 0 C0.99 0 1.98 0 3 0 C2.38545304 3.99455527 0.29353263 6.74466336 -2 10 C-2.99 9.67 -3.98 9.34 -5 9 C-3.49901406 5.88256767 -1.97568178 2.84498177 0 0 Z " fill="#000000" transform="translate(577,303)"/>
<path d="M0 0 C0.99 0 1.98 0 3 0 C2.85892253 1.45880109 2.71197585 2.91703551 2.5625 4.375 C2.48128906 5.18710937 2.40007812 5.99921875 2.31640625 6.8359375 C2 9 2 9 1 11 C0.01 11 -0.98 11 -2 11 C-1.34 7.37 -0.68 3.74 0 0 Z " fill="#000000" transform="translate(422,281)"/>
<path d="M0 0 C0.99 0.33 1.98 0.66 3 1 C1.6062718 5.43458973 -0.60582235 7.87378374 -4 11 C-5 8 -5 8 -4.00390625 5.95703125 C-3.52824219 5.24933594 -3.05257812 4.54164063 -2.5625 3.8125 C-2.08941406 3.09707031 -1.61632812 2.38164062 -1.12890625 1.64453125 C-0.75636719 1.10183594 -0.38382813 0.55914062 0 0 Z " fill="#000000" transform="translate(146,275)"/>
<path d="M0 0 C0.66 0.33 1.32 0.66 2 1 C0.6302836 4.99500618 -1.25722422 7.80009492 -4 11 C-4.66 10.67 -5.32 10.34 -6 10 C-4.6302836 6.00499382 -2.74277578 3.19990508 0 0 Z " fill="#000000" transform="translate(158,258)"/>
<path d="M0 0 C0.99 0.33 1.98 0.66 3 1 C0.525 5.455 0.525 5.455 -2 10 C-2.99 10 -3.98 10 -5 10 C-4.38545304 6.00544473 -2.29353263 3.25533664 0 0 Z " fill="#000000" transform="translate(180,224)"/>
<path d="M0 0 C0.99 0 1.98 0 3 0 C3 3.63 3 7.26 3 11 C2.01 11 1.02 11 0 11 C0 7.37 0 3.74 0 0 Z " fill="#000000" transform="translate(113,571)"/>
<path d="M0 0 C0.99 0 1.98 0 3 0 C3 3.63 3 7.26 3 11 C2.01 11 1.02 11 0 11 C0 7.37 0 3.74 0 0 Z " fill="#000000" transform="translate(113,551)"/>
<path d="M0 0 C0.99 0 1.98 0 3 0 C3 3.63 3 7.26 3 11 C2.01 11 1.02 11 0 11 C0 7.37 0 3.74 0 0 Z " fill="#000000" transform="translate(112,511)"/>
<path d="M0 0 C0.99 0 1.98 0 3 0 C3 3.63 3 7.26 3 11 C2.01 11 1.02 11 0 11 C0 7.37 0 3.74 0 0 Z " fill="#000000" transform="translate(112,491)"/>
<path d="M0 0 C0.99 0 1.98 0 3 0 C3 3.63 3 7.26 3 11 C2.01 11 1.02 11 0 11 C0 7.37 0 3.74 0 0 Z " fill="#000000" transform="translate(111,451)"/>
<path d="M0 0 C3.63 0 7.26 0 11 0 C11 0.99 11 1.98 11 3 C7.37 3 3.74 3 0 3 C0 2.01 0 1.02 0 0 Z " fill="#000000" transform="translate(242,446)"/>
<path d="M0 0 C0 0.99 0 1.98 0 3 C-3.63 3.66 -7.26 4.32 -11 5 C-10.67 3.68 -10.34 2.36 -10 1 C-6.56484998 0.37542727 -3.50935186 0 0 0 Z " fill="#000000" transform="translate(293,442)"/>
<path d="M0 0 C3.63 0.66 7.26 1.32 11 2 C11 2.99 11 3.98 11 5 C7.37 4.34 3.74 3.68 0 3 C0 2.01 0 1.02 0 0 Z " fill="#000000" transform="translate(182,437)"/>
<path d="M0 0 C0.99 0.33 1.98 0.66 3 1 C3 1.66 3 2.32 3 3 C0.03 4.65 -2.94 6.3 -6 8 C-6 6.68 -6 5.36 -6 4 C-3.1875 1.6875 -3.1875 1.6875 0 0 Z " fill="#000000" transform="translate(345,418)"/>
<path d="M0 0 C0.99 0.33 1.98 0.66 3 1 C1.49901406 4.11743233 -0.02431822 7.15501823 -2 10 C-2.99 10 -3.98 10 -5 10 C-3.66511872 6.40608886 -2.03977277 3.24509304 0 0 Z " fill="#000000" transform="translate(121,392)"/>
<path d="M0 0 C0.99 0.33 1.98 0.66 3 1 C1.46395304 4.14191424 -0.05731159 7.08596738 -2 10 C-2.99 10 -3.98 10 -5 10 C-4.38545304 6.00544473 -2.29353263 3.25533664 0 0 Z " fill="#000000" transform="translate(386,374)"/>
<path d="M0 0 C0.99 0 1.98 0 3 0 C3 3.63 3 7.26 3 11 C2.01 11 1.02 11 0 11 C0 7.37 0 3.74 0 0 Z " fill="#000000" transform="translate(110,372)"/>
<path d="M0 0 C0.66 0.33 1.32 0.66 2 1 C0.65117186 5.04648443 -1.34826069 5.95502599 -5 8 C-5.99 7.67 -6.98 7.34 -8 7 C-5.42215154 4.35247996 -3.08351902 2.05567935 0 0 Z " fill="#000000" transform="translate(150,365)"/>
<path d="M0 0 C3.63 0 7.26 0 11 0 C11 0.99 11 1.98 11 3 C7.37 3 3.74 3 0 3 C0 2.01 0 1.02 0 0 Z " fill="#000000" transform="translate(422,357)"/>
<path d="M0 0 C0.99 0 1.98 0 3 0 C1.85569823 3.87302138 0.76679902 7.00263439 -2 10 C-2.66 10 -3.32 10 -4 10 C-3.43768609 6.06380262 -2.38314183 3.20807554 0 0 Z " fill="#000000" transform="translate(396,357)"/>
<path d="M0 0 C3.63 0 7.26 0 11 0 C11 0.99 11 1.98 11 3 C7.37 3 3.74 3 0 3 C0 2.01 0 1.02 0 0 Z " fill="#000000" transform="translate(360,356)"/>
<path d="M0 0 C0 0.99 0 1.98 0 3 C-6.625 7 -6.625 7 -10 7 C-10 6.01 -10 5.02 -10 4 C-3.375 0 -3.375 0 0 0 Z " fill="#000000" transform="translate(169,355)"/>
<path d="M0 0 C0 0.99 0 1.98 0 3 C-3.63 3.33 -7.26 3.66 -11 4 C-11 3.01 -11 2.02 -11 1 C-7.26562152 0.12132271 -3.83225427 -0.08912219 0 0 Z " fill="#000000" transform="translate(495,354)"/>
<path d="M0 0 C3.63 0 7.26 0 11 0 C11 0.99 11 1.98 11 3 C7.37 3 3.74 3 0 3 C0 2.01 0 1.02 0 0 Z " fill="#000000" transform="translate(318,354)"/>
<path d="M0 0 C4.16138263 -0.08159574 7.9472484 0.01751476 12 1 C11.67 1.99 11.34 2.98 11 4 C7.37 3.67 3.74 3.34 0 3 C0 2.01 0 1.02 0 0 Z " fill="#000000" transform="translate(297,352)"/>
<path d="M0 0 C1.258125 -0.020625 2.51625 -0.04125 3.8125 -0.0625 C4.52019531 -0.07410156 5.22789062 -0.08570313 5.95703125 -0.09765625 C8 0 8 0 11 1 C11 1.99 11 2.98 11 4 C7.37 3.67 3.74 3.34 0 3 C0 2.01 0 1.02 0 0 Z " fill="#000000" transform="translate(277,350)"/>
<path d="M0 0 C-0.21484375 1.890625 -0.21484375 1.890625 -1 4 C-3.06640625 5.046875 -3.06640625 5.046875 -5.5625 5.75 C-6.80193359 6.11351562 -6.80193359 6.11351562 -8.06640625 6.484375 C-9.02353516 6.73960937 -9.02353516 6.73960937 -10 7 C-10 5.68 -10 4.36 -10 3 C-8.70990357 2.49596232 -7.41786211 1.99690074 -6.125 1.5 C-5.04605469 1.08234375 -5.04605469 1.08234375 -3.9453125 0.65625 C-2 0 -2 0 0 0 Z " fill="#000000" transform="translate(187,347)"/>
<path d="M0 0 C3.63 0.33 7.26 0.66 11 1 C11 1.99 11 2.98 11 4 C7.37 3.67 3.74 3.34 0 3 C0 2.01 0 1.02 0 0 Z " fill="#000000" transform="translate(256,347)"/>
<path d="M0 0 C4.16138263 -0.08159574 7.9472484 0.01751476 12 1 C11.67 1.99 11.34 2.98 11 4 C7.7 3.67 4.4 3.34 1 3 C0.67 2.01 0.34 1.02 0 0 Z " fill="#000000" transform="translate(235,344)"/>
<path d="M0 0 C-2.35735884 2.72957339 -4.58133526 3.88893396 -8 5 C-8.99 5 -9.98 5 -11 5 C-11 4.01 -11 3.02 -11 2 C-3.57142857 -1.57142857 -3.57142857 -1.57142857 0 0 Z " fill="#000000" transform="translate(535,344)"/>
<path d="M0 0 C0 0.99 0 1.98 0 3 C-3.3 3.66 -6.6 4.32 -10 5 C-10.33 4.01 -10.66 3.02 -11 2 C-3.375 0 -3.375 0 0 0 Z " fill="#000000" transform="translate(206,342)"/>
<path d="M0 0 C3.3 0 6.6 0 10 0 C10.33 1.32 10.66 2.64 11 4 C7.37 3.67 3.74 3.34 0 3 C0 2.01 0 1.02 0 0 Z " fill="#000000" transform="translate(215,341)"/>
<path d="M0 0 C0.66 0.33 1.32 0.66 2 1 C0.54875366 4.82601307 -1.35774704 6.22329124 -5 8 C-5.99 8 -6.98 8 -8 8 C-6.49776416 3.79373966 -3.71449966 2.26099979 0 0 Z " fill="#000000" transform="translate(550,332)"/>
<path d="M0 0 C0.99 0 1.98 0 3 0 C3 3.63 3 7.26 3 11 C2.01 11 1.02 11 0 11 C0 7.37 0 3.74 0 0 Z " fill="#000000" transform="translate(109,312)"/>
<path d="M0 0 C0.99 0 1.98 0 3 0 C3 3.63 3 7.26 3 11 C2.01 11 1.02 11 0 11 C0 7.37 0 3.74 0 0 Z " fill="#000000" transform="translate(108,272)"/>
<path d="M0 0 C0.66 0.33 1.32 0.66 2 1 C1.39009109 4.55780196 0.4216319 7.6828589 -1 11 C-1.99 11 -2.98 11 -4 11 C-3.39301257 6.87248551 -1.96189209 3.6678852 0 0 Z " fill="#000000" transform="translate(596,266)"/>
<path d="M0 0 C0.99 0 1.98 0 3 0 C3 3.63 3 7.26 3 11 C2.01 11 1.02 11 0 11 C0 7.37 0 3.74 0 0 Z " fill="#000000" transform="translate(108,252)"/>
<path d="M0 0 C0.99 0.33 1.98 0.66 3 1 C2.01 4.3 1.02 7.6 0 11 C-0.99 10.67 -1.98 10.34 -3 10 C-2.69201674 8.51988629 -2.378482 7.04092675 -2.0625 5.5625 C-1.88847656 4.73878906 -1.71445312 3.91507813 -1.53515625 3.06640625 C-1 1 -1 1 0 0 Z " fill="#000000" transform="translate(602,247)"/>
<path d="M0 0 C0.99 0 1.98 0 3 0 C3 3.63 3 7.26 3 11 C2.01 11 1.02 11 0 11 C0 7.37 0 3.74 0 0 Z " fill="#000000" transform="translate(107,212)"/>
<path d="M0 0 C0.99 0 1.98 0 3 0 C2.67 3.63 2.34 7.26 2 11 C1.01 11 0.02 11 -1 11 C-0.67 7.37 -0.34 3.74 0 0 Z " fill="#000000" transform="translate(435,202)"/>
<path d="M0 0 C0.99 0 1.98 0 3 0 C3.125 7.625 3.125 7.625 2 11 C1.01 11 0.02 11 -1 11 C-0.67 7.37 -0.34 3.74 0 0 Z " fill="#000000" transform="translate(437,182)"/>
<path d="M0 0 C0.99 0 1.98 0 3 0 C4.19287411 3.87684087 5 6.91621923 5 11 C4.01 11 3.02 11 2 11 C1.34 7.37 0.68 3.74 0 0 Z " fill="#000000" transform="translate(434,141)"/>
<path d="M0 0 C0.99 0 1.98 0 3 0 C3 3.63 3 7.26 3 11 C2.01 11 1.02 11 0 11 C0 7.37 0 3.74 0 0 Z " fill="#000000" transform="translate(106,133)"/>
<path d="M0 0 C0.66 0 1.32 0 2 0 C2.50615298 1.26839526 3.00469099 2.53983102 3.5 3.8125 C3.91765625 4.87404297 3.91765625 4.87404297 4.34375 5.95703125 C5 8 5 8 5 11 C4.01 11 3.02 11 2 11 C1.01 7.7 0.02 4.4 -1 1 C-0.67 0.67 -0.34 0.34 0 0 Z " fill="#000000" transform="translate(429,121)"/>
<path d="M0 0 C0.99 0 1.98 0 3 0 C3 3.63 3 7.26 3 11 C2.01 11 1.02 11 0 11 C0 7.37 0 3.74 0 0 Z " fill="#000000" transform="translate(105,93)"/>
<path d="M0 0 C0.99 0 1.98 0 3 0 C3 3.63 3 7.26 3 11 C2.01 11 1.02 11 0 11 C0 7.37 0 3.74 0 0 Z " fill="#000000" transform="translate(105,73)"/>
<path d="M0 0 C0.66 0.33 1.32 0.66 2 1 C1.67 1.99 1.34 2.98 1 4 C-1.06640625 4.94921875 -1.06640625 4.94921875 -3.5625 5.6875 C-4.38878906 5.93886719 -5.21507812 6.19023438 -6.06640625 6.44921875 C-6.70449219 6.63097656 -7.34257812 6.81273438 -8 7 C-8 6.01 -8 5.02 -8 4 C-6.71349294 3.30289269 -5.42059335 2.61757124 -4.125 1.9375 C-3.40570313 1.55464844 -2.68640625 1.17179687 -1.9453125 0.77734375 C-1.30335938 0.52082031 -0.66140625 0.26429687 0 0 Z " fill="#000000" transform="translate(301,59)"/>
<path d="M0 0 C-0.33 0.99 -0.66 1.98 -1 3 C-4.3 3.33 -7.6 3.66 -11 4 C-11.33 3.01 -11.66 2.02 -12 1 C-8.0186217 -0.3271261 -4.14954773 -0.06915913 0 0 Z " fill="#000000" transform="translate(323,55)"/>
<path d="M0 0 C0.99 0 1.98 0 3 0 C3 3.3 3 6.6 3 10 C2.01 10.33 1.02 10.66 0 11 C0 7.37 0 3.74 0 0 Z " fill="#000000" transform="translate(114,611)"/>
<path d="M0 0 C0.99 0 1.98 0 3 0 C3 3.63 3 7.26 3 11 C2.01 10.67 1.02 10.34 0 10 C0 6.7 0 3.4 0 0 Z " fill="#000000" transform="translate(113,591)"/>
<path d="M0 0 C0.99 0 1.98 0 3 0 C3 3.63 3 7.26 3 11 C2.01 10.67 1.02 10.34 0 10 C0 6.7 0 3.4 0 0 Z " fill="#000000" transform="translate(112,531)"/>
<path d="M0 0 C0.99 0 1.98 0 3 0 C3 3.63 3 7.26 3 11 C2.01 10.67 1.02 10.34 0 10 C0 6.7 0 3.4 0 0 Z " fill="#000000" transform="translate(111,471)"/>
<path d="M0 0 C3.63 0.33 7.26 0.66 11 1 C11 1.99 11 2.98 11 4 C3.57142857 4.14285714 3.57142857 4.14285714 0 3 C0 2.01 0 1.02 0 0 Z " fill="#000000" transform="translate(222,444)"/>
<path d="M0 0 C3.63 0.66 7.26 1.32 11 2 C11 2.99 11 3.98 11 5 C7.37 4.34 3.74 3.68 0 3 C0 2.01 0 1.02 0 0 Z " fill="#000000" transform="translate(202,441)"/>
<path d="M0 0 C4.95 0.99 4.95 0.99 10 2 C10 2.99 10 3.98 10 5 C6.53058454 4.54177532 3.32604951 4.10868317 0 3 C0 2.01 0 1.02 0 0 Z " fill="#000000" transform="translate(163,432)"/>
<path d="M0 0 C0.99 0.33 1.98 0.66 3 1 C3 4.3 3 7.6 3 11 C2.01 11 1.02 11 0 11 C0 7.37 0 3.74 0 0 Z " fill="#000000" transform="translate(111,431)"/>
<path d="M0 0 C4.455 0.99 4.455 0.99 9 2 C9.33 3.32 9.66 4.64 10 6 C6.7 5.01 3.4 4.02 0 3 C0 2.01 0 1.02 0 0 Z " fill="#000000" transform="translate(144,426)"/>
<path d="M0 0 C0.66 0.33 1.32 0.66 2 1 C0.55746343 4.36591866 -1.33264727 6.51047079 -4 9 C-4.99 8.67 -5.98 8.34 -7 8 C-5.61918777 3.8575633 -3.40174442 2.67796901 0 0 Z " fill="#000000" transform="translate(361,405)"/>
<path d="M0 0 C0.99 0 1.98 0 3 0 C2.44894091 3.9492568 1.61064629 7.34920174 0 11 C-0.99 10.34 -1.98 9.68 -3 9 C-2.01 6.03 -1.02 3.06 0 0 Z " fill="#000000" transform="translate(411,320)"/>
<path d="M0 0 C0.99 0.33 1.98 0.66 3 1 C2.09827532 2.17825358 1.17798498 3.34231577 0.25 4.5 C-0.51570312 5.47453125 -0.51570312 5.47453125 -1.296875 6.46875 C-3 8 -3 8 -7 8 C-6.02133662 6.85373678 -5.04205413 5.70800212 -4.0625 4.5625 C-3.51722656 3.92441406 -2.97195313 3.28632813 -2.41015625 2.62890625 C-1.63204305 1.73008851 -0.84063472 0.84063472 0 0 Z " fill="#000000" transform="translate(565,319)"/>
<path d="M0 0 C0.99 0 1.98 0 3 0 C2.53199289 4.05606165 2.12046792 7.46588679 0 11 C-0.66 10.67 -1.32 10.34 -2 10 C-1.34 6.7 -0.68 3.4 0 0 Z " fill="#000000" transform="translate(417,301)"/>
<path d="M0 0 C0.66 0 1.32 0 2 0 C1.39301257 4.12751449 -0.03810791 7.3321148 -2 11 C-2.99 10.67 -3.98 10.34 -5 10 C-3.66749209 6.4124787 -2.169283 3.1635377 0 0 Z " fill="#000000" transform="translate(588,285)"/>
<path d="M0 0 C0.99 0 1.98 0 3 0 C2.85892253 1.45880109 2.71197585 2.91703551 2.5625 4.375 C2.48128906 5.18710938 2.40007812 5.99921875 2.31640625 6.8359375 C2 9 2 9 1 11 C0.01 10.67 -0.98 10.34 -2 10 C-1.34 6.7 -0.68 3.4 0 0 Z " fill="#000000" transform="translate(433,222)"/>
<path d="M0 0 C0.99 0.33 1.98 0.66 3 1 C3 4.3 3 7.6 3 11 C2.01 11 1.02 11 0 11 C0 7.37 0 3.74 0 0 Z " fill="#000000" transform="translate(107,192)"/>
<path d="M0 0 C-0.54074373 3.78520613 -2.07572746 5.59177555 -5 8 C-5.99 8 -6.98 8 -8 8 C-7.32253522 3.25774652 -4.9532836 0 0 0 Z " fill="#000000" transform="translate(285,70)"/>
<path d="M0 0 C7.42857143 -0.14285714 7.42857143 -0.14285714 11 1 C11 1.99 11 2.98 11 4 C7.37 3.67 3.74 3.34 0 3 C0 2.01 0 1.02 0 0 Z " fill="#000000" transform="translate(332,54)"/>
<path d="M0 0 C0 0.99 0 1.98 0 3 C-3.63 3.33 -7.26 3.66 -11 4 C-11 3.01 -11 2.02 -11 1 C-7.32589215 -0.17571451 -3.83070817 -0.07366746 0 0 Z " fill="#000000" transform="translate(273,445)"/>
<path d="M0 0 C-0.33 0.99 -0.66 1.98 -1 3 C-3.06640625 3.73046875 -3.06640625 3.73046875 -5.5625 4.1875 C-6.38878906 4.34605469 -7.21507812 4.50460937 -8.06640625 4.66796875 C-9.02353516 4.83232422 -9.02353516 4.83232422 -10 5 C-10.33 4.01 -10.66 3.02 -11 2 C-7.12315913 0.80712589 -4.08378077 0 0 0 Z " fill="#000000" transform="translate(312,437)"/>
<path d="M0 0 C3.3 0.99 6.6 1.98 10 3 C10 3.99 10 4.98 10 6 C6.28111761 5.49287967 3.26545761 4.88391785 0 3 C0 2.01 0 1.02 0 0 Z " fill="#000000" transform="translate(125,419)"/>
<path d="M0 0 C-1.5830577 4.2742558 -4.50568404 6.26531794 -8 9 C-8 5 -8 5 -5.6875 2.25 C-3 0 -3 0 0 0 Z " fill="#000000" transform="translate(137,378)"/>
<path d="M0 0 C7.42857143 -0.14285714 7.42857143 -0.14285714 11 1 C11 1.99 11 2.98 11 4 C7.37 3.67 3.74 3.34 0 3 C0 2.01 0 1.02 0 0 Z " fill="#000000" transform="translate(339,355)"/>
<path d="M0 0 C0.99 0 1.98 0 3 0 C2.39009109 3.55780196 1.4216319 6.6828589 0 10 C-0.99 10 -1.98 10 -3 10 C-2.39009109 6.44219804 -1.4216319 3.3171411 0 0 Z " fill="#000000" transform="translate(404,339)"/>
<path d="M0 0 C0.66 0 1.32 0 2 0 C1.58578031 4.83256305 -0.46413986 6.82679218 -4 10 C-4.33 9.01 -4.66 8.02 -5 7 C-4.07421875 5.17578125 -4.07421875 5.17578125 -2.6875 3.3125 C-2.23761719 2.68988281 -1.78773438 2.06726563 -1.32421875 1.42578125 C-0.88722656 0.95527344 -0.45023438 0.48476563 0 0 Z " fill="#000000" transform="translate(135,293)"/>
<path d="M0 0 C0.66 0.33 1.32 0.66 2 1 C1.67 4.3 1.34 7.6 1 11 C0.01 11 -0.98 11 -2 11 C-1.85957123 9.35369672 -1.71250671 7.70795821 -1.5625 6.0625 C-1.48128906 5.14597656 -1.40007812 4.22945313 -1.31640625 3.28515625 C-1 1 -1 1 0 0 Z " fill="#000000" transform="translate(427,261)"/>
<path d="M0 0 C0.66 0.33 1.32 0.66 2 1 C0.7580393 4.43927579 -0.55740284 7.25207819 -3 10 C-3.66 10 -4.32 10 -5 10 C-4.49701212 5.59885603 -2.91227269 3.28804981 0 0 Z " fill="#000000" transform="translate(169,241)"/>
<path d="M0 0 C0.99 0.33 1.98 0.66 3 1 C0.525 5.455 0.525 5.455 -2 10 C-2.99 9.67 -3.98 9.34 -5 9 C-3.35 6.03 -1.7 3.06 0 0 Z " fill="#000000" transform="translate(191,207)"/>
<path d="M0 0 C0.99 0.66 1.98 1.32 3 2 C1.68 4.64 0.36 7.28 -1 10 C-1.99 10 -2.98 10 -4 10 C-3.43454163 6.04179141 -2.19097652 3.3340947 0 0 Z " fill="#000000" transform="translate(200,190)"/>
<path d="M0 0 C0.99 0 1.98 0 3 0 C1.79157144 4.43090471 0.48331435 6.98112756 -3 10 C-4 7 -4 7 -3.22265625 5.17578125 C-2.1484375 3.45052083 -1.07421875 1.72526042 0 0 Z " fill="#000000" transform="translate(209,174)"/>
<path d="M0 0 C0.99 0 1.98 0 3 0 C3.33 3.63 3.66 7.26 4 11 C3.01 11 2.02 11 1 11 C0.67 7.37 0.34 3.74 0 0 Z " fill="#000000" transform="translate(437,161)"/>
<path d="M0 0 C0.99 0.33 1.98 0.66 3 1 C1.80100302 4.0831351 0.52299523 7.06279492 -1 10 C-1.99 9.67 -2.98 9.34 -4 9 C-2.80100302 5.9168649 -1.52299523 2.93720508 0 0 Z " fill="#000000" transform="translate(218,157)"/>
<path d="M0 0 C0.99 0.33 1.98 0.66 3 1 C1.62845496 3.95409701 0.01136276 6.44008376 -2 9 C-2.99 8.67 -3.98 8.34 -5 8 C-3.35 5.36 -1.7 2.72 0 0 Z " fill="#000000" transform="translate(237,124)"/>
<path d="M0 0 C1.48643845 0.56454632 2.96406016 1.15234889 4.4375 1.75 C5.67306641 2.23726563 5.67306641 2.23726563 6.93359375 2.734375 C9 4 9 4 10 8 C6.7 6.35 3.4 4.7 0 3 C0 2.01 0 1.02 0 0 Z " fill="#000000" transform="translate(372,63)"/>
<path d="M0 0 C3.3 0.66 6.6 1.32 10 2 C10 2.99 10 3.98 10 5 C6.7 4.34 3.4 3.68 0 3 C0 2.01 0 1.02 0 0 Z " fill="#000000" transform="translate(353,57)"/>
<path d="M0 0 C0.99 0 1.98 0 3 0 C3 3.3 3 6.6 3 10 C2.01 10 1.02 10 0 10 C0 6.7 0 3.4 0 0 Z " fill="#000000" transform="translate(110,392)"/>
<path d="M0 0 C0.99 0 1.98 0 3 0 C2.34 3.63 1.68 7.26 1 11 C0.01 10.67 -0.98 10.34 -2 10 C-1.34 6.7 -0.68 3.4 0 0 Z " fill="#000000" transform="translate(430,242)"/>
<path d="M0 0 C0.99 0 1.98 0 3 0 C3 3.3 3 6.6 3 10 C2.01 10 1.02 10 0 10 C0 6.7 0 3.4 0 0 Z " fill="#000000" transform="translate(106,153)"/>
<path d="M0 0 C0.66 0.33 1.32 0.66 2 1 C0.94124926 4.40312738 -0.00902154 7.01353231 -2 10 C-2.99 9.67 -3.98 9.34 -5 9 C-4.3566152 7.686298 -3.71021785 6.37407102 -3.0625 5.0625 C-2.70285156 4.33160156 -2.34320313 3.60070312 -1.97265625 2.84765625 C-1 1 -1 1 0 0 Z " fill="#000000" transform="translate(228,140)"/>
<path d="M0 0 C3.63 0 7.26 0 11 0 C11 0.66 11 1.32 11 2 C7.32589215 3.17571451 3.83070817 3.07366746 0 3 C0 2.01 0 1.02 0 0 Z " fill="#000000" transform="translate(443,357)"/>
<path d="M0 0 C0.99 0 1.98 0 3 0 C3 3.63 3 7.26 3 11 C2.34 11 1.68 11 1 11 C-0.17571451 7.32589215 -0.07366746 3.83070817 0 0 Z " fill="#000000" transform="translate(109,352)"/>
<path d="M0 0 C0.99 0.33 1.98 0.66 3 1 C1.55746343 4.36591866 -0.33264727 6.51047079 -3 9 C-3.66 8.34 -4.32 7.68 -5 7 C-3.35 4.69 -1.7 2.38 0 0 Z " fill="#000000" transform="translate(259,97)"/>
<path d="M0 0 C0.66 0.33 1.32 0.66 2 1 C0.82744291 4.33727786 -0.18868404 6.77437487 -3 9 C-3.66 9 -4.32 9 -5 9 C-4.42647107 5.12867972 -2.51295648 2.91827204 0 0 Z " fill="#000000" transform="translate(271,83)"/>
<path d="M0 0 C0.99 0 1.98 0 3 0 C3 3.63 3 7.26 3 11 C2.34 11 1.68 11 1 11 C0.67 7.37 0.34 3.74 0 0 Z " fill="#000000" transform="translate(108,292)"/>
<path d="M0 0 C0.99 0 1.98 0 3 0 C1.8141763 3.37503669 0.72426311 5.64722731 -2 8 C-2.99 7.67 -3.98 7.34 -5 7 C-4.24172908 5.82512964 -3.46792245 4.66027408 -2.6875 3.5 C-2.25824219 2.8503125 -1.82898438 2.200625 -1.38671875 1.53125 C-0.70029297 0.77328125 -0.70029297 0.77328125 0 0 Z " fill="#000000" transform="translate(248,111)"/>
<path d="M0 0 C0.66 0 1.32 0 2 0 C2 3.63 2 7.26 2 11 C1.34 11 0.68 11 0 11 C-0.19406478 9.35492782 -0.38007935 7.70890406 -0.5625 6.0625 C-0.66691406 5.14597656 -0.77132812 4.22945312 -0.87890625 3.28515625 C-0.91886719 2.53105469 -0.95882812 1.77695313 -1 1 C-0.67 0.67 -0.34 0.34 0 0 Z " fill="#000000" transform="translate(108,232)"/>
<path d="M0 0 C0.99 0 1.98 0 3 0 C3 3.63 3 7.26 3 11 C2.34 11 1.68 11 1 11 C0.67 7.37 0.34 3.74 0 0 Z " fill="#000000" transform="translate(105,113)"/>
<path d="M0 0 C0.99 0 1.98 0 3 0 C3 3.3 3 6.6 3 10 C2.34 10 1.68 10 1 10 C0.67 6.7 0.34 3.4 0 0 Z " fill="#000000" transform="translate(106,173)"/>
<path d="M0 0 C0.99 0 1.98 0 3 0 C3 1.65 3 3.3 3 5 C1.68 5.33 0.36 5.66 -1 6 C-0.67 4.02 -0.34 2.04 0 0 Z " fill="#000000" transform="translate(605,232)"/>
<path d="M0 0 C0.99 0 1.98 0 3 0 C3 1.65 3 3.3 3 5 C2.01 5 1.02 5 0 5 C0 3.35 0 1.7 0 0 Z " fill="#000000" transform="translate(114,631)"/>
<path d="M0 0 C0.66 0 1.32 0 2 0 C2.33 1.98 2.66 3.96 3 6 C2.01 6 1.02 6 0 6 C0 4.02 0 2.04 0 0 Z " fill="#000000" transform="translate(105,58)"/>
<path d="M0 0 C0.99 0.33 1.98 0.66 3 1 C2.67 1.99 2.34 2.98 2 4 C1.01 3.01 0.02 2.02 -1 1 C-0.67 0.67 -0.34 0.34 0 0 Z " fill="#000000" transform="translate(247,285)"/>
</svg>
