<svg width="567" height="686" viewBox="0 0 567 686" fill="none" xmlns="http://www.w3.org/2000/svg">
<path d="M151.5 3.10632C183.5 1.32218 201.5 22.4345 206.5 33.2137C200.5 40.3504 194 194.53 191.5 270.727V435.203L227 398.405L283.5 332.615C295.333 318.862 321.7 287.677 332.5 272.958C343.3 258.238 362 222.964 370 207.167C383.6 200.923 400.667 209.769 407.5 214.973C432 225.009 429 253.443 426 270.727C423.6 284.554 401.333 314.402 390.5 327.597L345 373.315L301 410.113L256.5 443.008L282.5 488.17L318.5 539.464C321.833 543.181 336.3 557.64 367.5 585.74C398.7 613.84 428.167 598.935 439 587.97C458.2 574.589 482.667 506.94 492.5 474.788C500.1 452.933 508 411.043 511 392.829C511.333 380.749 517.4 358.15 539 364.395C560.6 370.639 564.333 397.476 563.5 410.113L541.5 502.108C533.833 521.808 514.6 569.013 499 600.236C483.4 631.458 443.167 655.619 425 663.796C409.667 668.256 370.6 675.17 337 667.141C303.4 659.113 279.333 642.609 271.5 635.361C260.833 625.325 236.3 600.347 223.5 580.722C210.7 561.096 198.5 527.569 194 513.259C194.5 522.551 195.9 546.823 197.5 569.571C199.5 598.006 206.5 643.167 206.5 653.76C206.5 664.354 189 682.752 157.5 683.31C126 683.868 112 672.717 97.5 657.663C83.2835 642.904 77.2378 612.065 70.4095 577.235L70 575.146C64.4 546.6 59.6667 442.451 58 393.945L59 235.045C60.3333 210.141 63.8 149.74 67 107.367C70.2 64.9936 81 40.2759 86 33.2137C94.5 23.9213 119.5 4.89046 151.5 3.10632Z" stroke="black" stroke-width="5"/>
<path d="M136 55C131.166 235.167 127 603.6 149 636" stroke="black" stroke-width="2" stroke-dasharray="10 10"/>
<path d="M139.5 467.5C192 467.5 291.2 424.4 390 252" stroke="black" stroke-width="2" stroke-dasharray="10 10"/>
<path d="M216.5 445.5C260.167 553.5 370 748 471.5 581.5C484.607 560 529.7 478.4 536.5 400" stroke="black" stroke-width="2" stroke-dasharray="10 10"/>
<path d="M6.61932 318.455V333H4.85795V320.301H4.77273L1.22159 322.659V320.869L4.85795 318.455H6.61932Z" fill="black"/>
<path d="M266.506 284V282.722L271.307 277.466C271.87 276.85 272.334 276.315 272.699 275.861C273.063 275.402 273.333 274.971 273.509 274.568C273.688 274.161 273.778 273.735 273.778 273.29C273.778 272.778 273.655 272.336 273.409 271.962C273.168 271.588 272.836 271.299 272.415 271.095C271.993 270.892 271.52 270.79 270.994 270.79C270.436 270.79 269.948 270.906 269.531 271.138C269.119 271.365 268.8 271.685 268.572 272.097C268.35 272.509 268.239 272.991 268.239 273.545H266.562C266.562 272.693 266.759 271.945 267.152 271.301C267.545 270.657 268.08 270.155 268.757 269.795C269.439 269.436 270.204 269.256 271.051 269.256C271.903 269.256 272.659 269.436 273.317 269.795C273.975 270.155 274.491 270.641 274.865 271.251C275.239 271.862 275.426 272.542 275.426 273.29C275.426 273.825 275.329 274.348 275.135 274.859C274.946 275.366 274.614 275.932 274.141 276.557C273.672 277.177 273.021 277.935 272.188 278.83L268.92 282.324V282.438H275.682V284H266.506Z" fill="black"/>
<path d="M406.42 532.199C405.483 532.199 404.647 532.038 403.913 531.716C403.184 531.394 402.604 530.946 402.173 530.374C401.747 529.796 401.515 529.126 401.477 528.364H403.267C403.305 528.832 403.466 529.237 403.75 529.578C404.034 529.914 404.406 530.175 404.865 530.359C405.324 530.544 405.833 530.636 406.392 530.636C407.017 530.636 407.571 530.527 408.054 530.31C408.537 530.092 408.916 529.789 409.19 529.401C409.465 529.012 409.602 528.562 409.602 528.051C409.602 527.516 409.47 527.045 409.205 526.638C408.939 526.226 408.551 525.904 408.04 525.672C407.528 525.44 406.903 525.324 406.165 525.324H405V523.761H406.165C406.742 523.761 407.249 523.657 407.685 523.449C408.125 523.241 408.468 522.947 408.714 522.568C408.965 522.189 409.091 521.744 409.091 521.233C409.091 520.741 408.982 520.312 408.764 519.947C408.546 519.583 408.239 519.299 407.841 519.095C407.448 518.892 406.984 518.79 406.449 518.79C405.947 518.79 405.473 518.882 405.028 519.067C404.588 519.247 404.228 519.509 403.949 519.855C403.67 520.196 403.518 520.608 403.494 521.091H401.79C401.818 520.329 402.048 519.661 402.479 519.088C402.91 518.51 403.473 518.061 404.169 517.739C404.87 517.417 405.639 517.256 406.477 517.256C407.377 517.256 408.149 517.438 408.793 517.803C409.437 518.162 409.931 518.638 410.277 519.23C410.623 519.822 410.795 520.461 410.795 521.148C410.795 521.967 410.58 522.665 410.149 523.243C409.723 523.821 409.143 524.221 408.409 524.443V524.557C409.328 524.708 410.045 525.099 410.561 525.729C411.077 526.354 411.335 527.128 411.335 528.051C411.335 528.842 411.12 529.552 410.689 530.182C410.263 530.807 409.68 531.299 408.942 531.659C408.203 532.019 407.363 532.199 406.42 532.199Z" fill="black"/>
<path d="M40.509 532.871C40.9901 533.142 41.6 532.972 41.8712 532.491L46.2903 524.651C46.5615 524.17 46.3913 523.56 45.9101 523.288C45.429 523.017 44.8192 523.188 44.548 523.669L40.6199 530.638L33.6507 526.71C33.1695 526.439 32.5597 526.609 32.2885 527.09C32.0173 527.571 32.1875 528.181 32.6686 528.452L40.509 532.871ZM40.0019 171.939C36.9827 221.133 33.3597 298.17 32.303 369.404C31.7746 405.02 31.8876 439.196 33.0394 467.72C34.1899 496.212 36.3793 519.163 40.0368 532.269L41.9632 531.731C38.3763 518.878 36.1889 496.146 35.0378 467.639C33.888 439.167 33.7746 405.031 34.3027 369.433C35.3589 298.238 38.9803 221.234 41.9981 172.061L40.0019 171.939Z" fill="black"/>
<path d="M237.519 331.807C237.412 332.349 237.765 332.874 238.307 332.981L247.137 334.721C247.679 334.828 248.204 334.475 248.311 333.934C248.418 333.392 248.065 332.866 247.524 332.759L239.674 331.212L241.221 323.363C241.328 322.821 240.975 322.296 240.434 322.189C239.892 322.082 239.366 322.435 239.259 322.976L237.519 331.807ZM319.109 235.545C309.082 255.186 300.106 271.489 287.986 286.683C275.874 301.867 260.596 315.975 237.943 331.17L239.057 332.83C261.85 317.543 277.289 303.3 289.55 287.93C301.803 272.569 310.854 256.113 320.891 236.455L319.109 235.545Z" fill="black"/>
<path d="M460.811 466.415C460.487 465.967 459.862 465.866 459.415 466.189L452.118 471.458C451.67 471.781 451.569 472.406 451.892 472.854C452.216 473.302 452.841 473.402 453.288 473.079L459.775 468.396L464.458 474.882C464.781 475.33 465.406 475.431 465.854 475.108C466.302 474.784 466.402 474.159 466.079 473.711L460.811 466.415ZM340.052 498.347C344.731 512.273 353.04 526.734 363.261 538.244C373.467 549.736 385.679 558.395 398.198 560.505C410.819 562.633 423.55 558.071 434.584 543.561C445.573 529.11 454.917 504.762 460.987 467.159L459.013 466.841C452.963 504.315 443.689 528.283 432.992 542.351C422.338 556.36 410.311 560.519 398.53 558.533C386.647 556.53 374.814 548.241 364.756 536.916C354.714 525.607 346.541 511.38 341.948 497.71L340.052 498.347Z" fill="black"/>
</svg>
