<?xml version="1.0" encoding="UTF-8"?>
<svg version="1.1" xmlns="http://www.w3.org/2000/svg" width="751" height="532">
<path d="M0 0 C0.94875 0.66 1.8975 1.32 2.875 2 C6.41176862 5.32872341 8.71688965 7.77537128 9.33940125 12.66695213 C9.43762134 16.04754204 9.40090042 19.40286023 9.31835938 22.78393555 C9.2939893 24.698867 9.2939893 24.698867 9.26912689 26.65248394 C9.21212012 30.76928254 9.10978352 34.88431667 9 39 C8.98307224 39.66571534 8.96614449 40.33143067 8.94870377 41.0173192 C8.70007998 50.75112152 8.35756297 60.48056508 7.99035454 70.21049714 C7.84636662 74.05658883 7.70853112 77.90290181 7.56994629 81.74919128 C7.30851617 88.98032371 7.04183081 96.21125158 6.77308702 103.44211549 C6.4665753 111.69640773 6.16618128 119.95091942 5.86621189 128.20545161 C5.25077965 145.13721458 4.62795477 162.06869672 4 179 C4.10513412 178.30649948 4.21026825 177.61299896 4.31858826 176.89848328 C4.8092405 173.68527747 5.30887802 170.473527 5.80859375 167.26171875 C5.9737146 166.17145386 6.13883545 165.08118896 6.30895996 163.95788574 C10.63867679 136.32846489 21.10296942 109.70321377 32.3125 84.1875 C32.79162842 83.09131348 33.27075684 81.99512695 33.7644043 80.86572266 C37.83289803 71.82790973 42.8462739 63.99338221 49.3125 56.5 C49.7883252 55.94594482 50.26415039 55.39188965 50.75439453 54.82104492 C66.74325239 36.38120367 89.76662236 17.55129719 115 15 C135.70774601 13.57716333 158.93938461 17.44171666 175.12890625 31.3359375 C175.74636719 31.88507812 176.36382812 32.43421875 177 33 C177.58652344 33.44601563 178.17304688 33.89203125 178.77734375 34.3515625 C189.62676797 42.76540169 196.49125862 56.1591743 203 68 C203.54116455 68.97501465 203.54116455 68.97501465 204.09326172 69.96972656 C206.71585123 74.91546157 208.25368088 79.80438096 209.5 85.25 C209.81300049 86.60303223 209.81300049 86.60303223 210.13232422 87.98339844 C214.46205254 107.51169329 216.40023863 127.43339057 218.04931641 147.33691406 C218.10651352 148.01868713 218.16371063 148.70046021 218.22264099 149.40289307 C218.37675884 151.25528846 218.52583412 153.10810144 218.67456055 154.9609375 C218.93772149 157.41842245 219.31142924 159.63460832 220 162 C220.26103516 161.0298999 220.52207031 160.0597998 220.79101562 159.06030273 C240.41461574 86.34540149 240.41461574 86.34540149 265 59 C265.75667969 58.14921875 266.51335937 57.2984375 267.29296875 56.421875 C282.98317093 39.7334381 305.23956918 30.61139428 328.01171875 29.76171875 C355.33386414 29.22381477 379.49324557 35.24085927 399.81689453 54.35083008 C405.57114771 59.97975559 410.11747157 65.91538626 414 73 C414.52078125 73.93328125 415.0415625 74.8665625 415.578125 75.828125 C425.72457083 94.99363378 430.14022316 117.35471266 430.16796875 138.94140625 C430.17129715 139.86735092 430.17462555 140.79329559 430.17805481 141.74729919 C430.18308856 143.69782011 430.18546424 145.64834954 430.18530273 147.59887695 C430.1874761 150.53026138 430.20563405 153.46126069 430.22460938 156.39257812 C430.22754693 158.30468624 430.2295293 160.21679611 430.23046875 162.12890625 C430.23765427 162.98053848 430.24483978 163.83217072 430.25224304 164.70960999 C430.23373944 169.82566029 429.80648724 174.75216194 429.10717773 179.82055664 C427.44988225 192.02373407 426.916071 204.33719702 426.18177938 216.62265158 C426.00974616 219.49168285 425.83460489 222.36052143 425.65955937 225.22937024 C425.24533034 232.02014471 424.83652997 238.8112309 424.43115234 245.60253906 C424.01750888 252.53063332 423.59440487 259.45810332 423.16657627 266.38533485 C422.79562637 272.39756238 422.43094366 278.41014965 422.07092297 284.42304146 C421.85756972 287.98525373 421.64210068 291.54729934 421.42043686 295.10900497 C420.32520254 312.75740191 419.74305669 330.31609658 420 348 C420.01851407 349.29469633 420.01851407 349.29469633 420.03740215 350.61554813 C418.59055288 399.04311079 418.59055288 399.04311079 438 441 C441.51718916 442.75859458 445.16099711 442.53079461 449 442 C452.03172237 440.76656162 454.42799888 439.00486741 457 437 C457.69738281 436.51144531 458.39476562 436.02289063 459.11328125 435.51953125 C467.33911164 429.13465047 471.98493266 419.92185298 477 411 C477.40250977 410.29133789 477.80501953 409.58267578 478.21972656 408.85253906 C499.80600531 370.5554719 511.04673119 325.84005652 519.8203125 282.99609375 C521.65699634 274.3443462 523.54903316 269.29410802 531 264 C536.12753699 261.4362315 543.52435984 262.27920137 548.87109375 263.8359375 C556.21722214 267.16797138 560.18584615 271.68793826 563.28515625 279.0546875 C567.92609829 292.42689338 563.93605339 304.64179109 560.875 318 C560.67236542 318.88982574 560.46973083 319.77965149 560.26095581 320.69644165 C548.88638681 370.56610968 534.26557232 430.00432698 498 468 C497.20916016 468.90298828 497.20916016 468.90298828 496.40234375 469.82421875 C481.42358489 486.25871377 457.15305264 495.07303735 435.38696289 496.12646484 C417.66084521 496.60824455 401.14191198 496.05097838 385 488 C384.3503125 487.67725098 383.700625 487.35450195 383.03125 487.02197266 C353.99340575 472.46968904 337.51776274 453.09828382 327.10839844 422.35118103 C326.37431144 420.13321922 325.65434562 417.91108947 324.9375 415.6875 C324.68397766 414.91296478 324.43045532 414.13842957 324.16925049 413.34042358 C320.80944626 403.07003226 317.64703814 392.75861911 314.875 382.3125 C314.60421631 381.30727295 314.33343262 380.3020459 314.05444336 379.26635742 C310.49101115 365.1715964 309.64871797 350.73084376 309.3125 336.25 C309.29320435 335.4847702 309.27390869 334.71954041 309.25402832 333.93112183 C308.65148422 309.06789757 309.60726133 284.30593849 311.28515625 259.5 C311.34883204 258.54818407 311.41250782 257.59636814 311.47811317 256.6157093 C312.5292366 240.97048428 313.74679328 225.34150658 315.04296875 209.71484375 C315.17402826 208.12969058 315.17402826 208.12969058 315.30773544 206.51251411 C316.11141831 196.79588277 316.91891316 187.07959002 317.74682617 177.36499023 C320.36100196 148.03900469 320.36100196 148.03900469 321.42578125 118.62890625 C321.44187691 117.04504372 321.44187691 117.04504372 321.45829773 115.42918396 C321.36770572 106.88857956 320.30963429 96.30963429 314 90 C309.92859801 89.1857196 307.70236327 89.13370863 304.01953125 91.0078125 C292.86367337 98.80132599 285.93671335 110.24910057 279.27392578 121.80273438 C278.15411306 123.73418598 277.00310108 125.64147371 275.83984375 127.546875 C248.71185375 174.36018577 238.02582173 243.15239062 231 296 C230.89703613 296.76983215 230.79407227 297.53966431 230.68798828 298.33282471 C228.15406513 317.46018412 226.22710413 336.62906833 224.71875 355.86328125 C224.61018919 357.23396909 224.50155174 358.60465086 224.39283752 359.97532654 C223.74900186 368.12015668 223.74900186 368.12015668 223.15206909 376.26852417 C222.88440302 380.06035703 222.59762321 383.8503703 222.30859375 387.640625 C222.23576172 388.7720845 222.16292969 389.90354401 222.08789062 391.06929016 C221.42177291 399.49026419 219.6003892 406.2790223 213.125 412.1875 C198.48502011 424.42354231 176.05316741 424.26777861 158 423 C144.7573827 421.24332628 132.39774407 413.9650629 124.0546875 403.578125 C117.03712014 393.88859685 115.5815791 388.14694736 116.625 376.3125 C116.84506338 373.47210205 117.04946461 370.63062268 117.25390625 367.7890625 C117.31273483 366.99028183 117.37156342 366.19150116 117.43217468 365.36851501 C118.32154725 352.98745687 118.86362896 340.5847685 119.46526337 328.18709946 C119.68566344 323.65473497 119.90951101 319.12253905 120.1328125 314.59031677 C120.25495257 312.10562106 120.37637488 309.62088996 120.49707031 307.13612366 C120.74013584 302.1503817 120.98357605 297.16519953 121.27685547 292.18212891 C122.95245776 263.61347993 123.25457355 234.96183145 123.35009766 206.35083008 C123.36338844 202.75421483 123.39124951 199.15817314 123.43212891 195.56176758 C123.72985622 168.67488882 121.83980424 142.61191678 118 116 C117.90045706 115.30760601 117.80091412 114.61521202 117.69835472 113.9018364 C115.53593684 93.18557512 115.53593684 93.18557512 105 76 C101.64982715 74.58090318 101.64982715 74.58090318 98 75 C90.38725038 78.66539796 86.32078711 86.02559909 82 93 C81.61473145 93.61939453 81.22946289 94.23878906 80.83251953 94.87695312 C56.67400754 134.44016394 45.66658338 181.20996015 37.62036133 226.39648438 C36.74720107 231.29002947 35.74832835 236.11660852 34.56570435 240.94622803 C32.22860323 250.51104829 30.59490028 260.06257531 29.25 269.8125 C29.13015747 270.66817566 29.01031494 271.52385132 28.88684082 272.40545654 C22.23731028 320.058994 15.90515468 367.81278173 16 416 C16.19885803 414.28519691 16.19885803 414.28519691 16.4017334 412.53575134 C29.44565206 300.14313893 29.44565206 300.14313893 36 260 C36.14848389 259.08945862 36.29696777 258.17891724 36.44995117 257.24078369 C41.15774393 228.53919565 46.20916126 199.46795824 56 172 C56.39703125 170.86820313 56.7940625 169.73640625 57.203125 168.5703125 C60.03710974 161.14527249 64.06059512 155.19202375 69 149 C69.73734375 148.07058594 70.4746875 147.14117187 71.234375 146.18359375 C73.45766473 143.42748113 75.72085296 140.71001053 78 138 C78.64710938 137.20464844 79.29421875 136.40929687 79.9609375 135.58984375 C85.66110427 128.80780859 94.06346831 120.17883812 103.18359375 118.62890625 C107.42563993 118.50392395 109.40091658 118.5666205 112.9375 121.125 C116.59941977 126.22949423 117.26100873 130.93950615 117.3359375 137.1328125 C117.34445236 137.82350327 117.35296722 138.51419403 117.36174011 139.22581482 C117.38189208 141.52579111 117.38161179 143.82494928 117.375 146.125 C117.37268875 147.34810379 117.37268875 147.34810379 117.37033081 148.59591675 C117.21423731 183.94918122 112.10066606 219.05495026 107.89575195 254.09954834 C100.56455526 313.87098095 100.56455526 313.87098095 98 374 C98.433125 373.505 98.86625 373.01 99.3125 372.5 C101 371 101 371 104 371 C102.44499019 374.81684226 99.96404505 377.19195732 97 380 C93.18063472 378.44396229 90.73955562 376.04395069 88 373 C88 372.34 88 371.68 88 371 C90.86724686 371.57344937 91.8614515 371.8614515 94 374 C94.03963867 372.92258545 94.07927734 371.8451709 94.12011719 370.73510742 C94.27974994 366.48638167 94.45554932 362.23841914 94.63476562 357.99047852 C94.70841699 356.19897143 94.77843791 354.407309 94.84375 352.61547852 C96.23685486 314.70778911 101.15364379 276.95055838 105.625 239.3125 C110.89563069 196.38635681 110.89563069 196.38635681 113.75 153.25 C113.80542969 152.02796875 113.86085938 150.8059375 113.91796875 149.546875 C114.67345654 136.86168306 114.67345654 136.86168306 110.76220703 125.15234375 C109.29388571 123.59546335 109.29388571 123.59546335 107 122 C90.12447926 126.45326242 78.7602615 141.32528733 69 155 C68.15308594 156.17755859 68.15308594 156.17755859 67.2890625 157.37890625 C29.88572334 214.27552005 32.20667853 311.06605784 24.53759766 376.95288086 C22.63781416 393.27247451 20.71696752 409.58851101 18.65381622 425.88841057 C18.43972048 427.58204962 18.22696799 429.27585912 18.01567841 430.96985054 C17.00304538 439.07034897 15.92552528 447.05503983 14 455 C13.8771049 456.68508086 13.7847691 458.37330143 13.75 460.0625 C13.21667623 465.70174318 11.07751137 469.13095035 7 473 C-2.52701992 480.55169286 -15.01950869 483.55484443 -27 484 C-27.87011719 484.03996094 -28.74023438 484.07992188 -29.63671875 484.12109375 C-46.86129515 484.53880816 -61.46302007 478.92926277 -74 467 C-91.1404922 449.96214548 -92.66408028 418.30253901 -96.1875 395.5625 C-96.36841187 394.42760132 -96.36841187 394.42760132 -96.55297852 393.26977539 C-99.38813394 375.29430545 -100.64276133 357.13421579 -102 339 C-102.05300892 338.29496464 -102.10601784 337.58992928 -102.16063309 336.86352921 C-107.94413455 259.53005229 -107.86664595 181.68128414 -104.125 104.25 C-104.08150421 103.3473365 -104.03800842 102.444673 -103.99319458 101.51465607 C-103.70425196 95.57642133 -103.3947615 89.63951931 -103.0703125 83.703125 C-103.01180052 82.60403746 -103.01180052 82.60403746 -102.95210648 81.48274612 C-102.51575739 73.41861989 -101.89225792 65.39453968 -101.01635742 57.36547852 C-100.93634302 56.6262402 -100.85632862 55.88700188 -100.77388954 55.1253624 C-100.05744721 48.85381293 -98.80739698 42.7893728 -97.1875 36.6875 C-96.92251709 35.66914062 -96.65753418 34.65078125 -96.38452148 33.6015625 C-92.57067964 19.27478271 -88.74360657 7.54591282 -75.5546875 -0.625 C-53.22556172 -12.64312274 -21.33008472 -15.48219167 0 0 Z M-81.48828125 11.41015625 C-95.2881327 28.11523958 -95.85335974 59.44622286 -96.97265625 79.9375 C-97.01605637 80.72915747 -97.05945648 81.52081493 -97.10417175 82.33646202 C-101.30931369 159.79954957 -102.03962541 237.46204301 -97.75 314.9375 C-97.698615 315.87752743 -97.64723 316.81755486 -97.59428787 317.78606796 C-96.9458462 397.75644963 -96.9458462 397.75644963 -66.0078125 465.83203125 C-54.01266006 475.91586819 -41.31826487 478.82389074 -26 478 C-14.4283687 476.83834739 -4.24194012 473.65085734 5.1875 466.625 C8.67564064 461.5732101 8.14570029 454.40520242 8.35717773 448.42016602 C8.39646896 447.35211227 8.39646896 447.35211227 8.43655396 446.26248169 C8.49262294 444.72777774 8.54712231 443.19301578 8.6001873 441.65820503 C8.68540853 439.20159301 8.77544973 436.74519763 8.86671448 434.2888031 C9.12522134 427.30759944 9.37517186 420.32609678 9.62231445 413.34448242 C10.71596089 382.57734121 13.03567414 352.19249885 16.66650391 321.62084961 C17.05446196 318.35232519 17.43626568 315.08318303 17.81201172 311.81323242 C21.49008264 279.82145033 26.30909267 248.14765824 33.25 216.6875 C33.48133636 215.6271051 33.71267273 214.56671021 33.95101929 213.47418213 C37.17389193 198.71696941 40.59168427 184.01475501 44.3125 169.375 C44.50710815 168.60191498 44.70171631 167.82882996 44.90222168 167.03231812 C48.88359767 151.31130788 54.13375804 136.28935316 60.8125 121.5 C61.33239502 120.34290527 61.85229004 119.18581055 62.38793945 117.99365234 C80.37912365 78.33950085 80.37912365 78.33950085 94.375 69.5 C99.67100056 68.49123799 104.29648531 69.23174828 109.1875 71.4375 C115.47985484 77.17053441 118.21123183 83.65520365 119.98046875 91.8984375 C120.14919998 92.67312378 120.31793121 93.44781006 120.49177551 94.24597168 C122.64895374 104.57439894 123.88839804 115.03655352 125.1875 125.5 C125.44913723 127.54957281 125.71150385 129.59905265 125.97460938 131.6484375 C126.66896731 137.09683628 127.35524203 142.54549733 128 148 C128.09776733 148.75089905 128.19553467 149.5017981 128.29626465 150.27545166 C129.26776322 158.46845172 129.14478687 166.68558145 129.1328125 174.921875 C129.13348925 176.58774835 129.13446233 178.25362161 129.13571167 179.91949463 C129.13718264 183.4194838 129.13506107 186.91944741 129.13037109 190.41943359 C129.12479676 194.77985547 129.12798233 199.14021469 129.13380146 203.50063419 C129.17234234 237.39754649 128.35572251 271.21182906 126.5625 305.0625 C126.42883729 307.65134853 126.29554217 310.24021606 126.16259766 312.82910156 C125.83981083 319.0893123 125.51130761 325.34920244 125.17962646 331.60894775 C125.01295831 334.7553685 124.84732711 337.90184162 124.68212891 341.04833984 C124.27196461 348.85032901 123.85675585 356.65204183 123.4296875 364.453125 C123.33034912 366.30623291 123.33034912 366.30623291 123.22900391 368.19677734 C123.06499118 370.92064759 122.87607434 373.63461319 122.65771484 376.35400391 C122.57555222 377.43871979 122.57555222 377.43871979 122.49172974 378.54534912 C122.33754868 380.55674906 122.17159767 382.56723684 122.00488281 384.57763672 C121.99731443 389.88231257 123.70593544 392.98229654 127 397 C127.65613281 397.84175781 128.31226563 398.68351562 128.98828125 399.55078125 C133.9433189 405.49154575 139.02748418 409.66486538 146 413 C146.81082031 413.4125 147.62164062 413.825 148.45703125 414.25 C163.67052656 420.66506098 185.18848432 418.28013112 200.36328125 412.78125 C207.54514089 409.62438862 211.57667726 406.12082686 215 399 C216.08837855 394.27096942 216.41060051 389.5581238 216.72265625 384.72265625 C216.83237092 383.32491293 216.94461373 381.92736608 217.0592041 380.53001404 C217.29735556 377.57314578 217.52028225 374.61570519 217.73074341 371.65673828 C218.06104404 367.02658787 218.42901206 362.39996247 218.80639648 357.7734375 C218.86893395 357.00618788 218.93147142 356.23893826 218.99590397 355.44843864 C219.12197113 353.90339707 219.24818789 352.3583677 219.37455559 350.81335068 C219.56222022 348.50734415 219.74683432 346.2011101 219.93080139 343.89480591 C220.90589502 331.73426646 222.10784284 319.61319399 223.5625 307.5 C223.65064972 306.73470978 223.73879944 305.96941956 223.82962036 305.18093872 C226.68829532 280.46188757 231.85502969 256.18589835 237.69910812 232.02171707 C238.19648855 229.96279153 238.69111811 227.90322134 239.18508911 225.84347534 C258.227343 146.50295628 258.227343 146.50295628 271 124 C271.36851074 123.33452148 271.73702148 122.66904297 272.11669922 121.98339844 C290.45336086 88.94585731 290.45336086 88.94585731 305 84 C309.47494213 83.48671908 313.49705451 83.53241696 317.8125 84.875 C325.22600256 92.0766882 327.02137333 102.95393301 327.26974487 112.87921143 C327.27948187 115.03306302 327.27463287 117.18701625 327.25732422 119.34082031 C327.2489771 121.10115538 327.2489771 121.10115538 327.24046135 122.89705276 C327.1088851 134.89344872 326.23751062 146.80458106 325.2091713 158.75283051 C324.87046262 162.69044699 324.54576637 166.62910349 324.22457886 170.56817627 C323.59527473 178.25959683 322.95039385 185.94966589 322.30270386 193.63955688 C321.31602209 205.35756776 320.33796245 217.07624801 319.3828125 228.796875 C319.32814103 229.46656516 319.27346957 230.13625531 319.21714139 230.82623911 C316.45302753 264.75603909 314.16255589 298.93572932 315 333 C315.01933594 333.91201172 315.03867187 334.82402344 315.05859375 335.76367188 C316.03802011 376.35225269 327.51352119 424.92267673 352 458 C352.48984375 458.67417969 352.9796875 459.34835937 353.484375 460.04296875 C364.66486187 474.26982423 388.44458354 485.88113732 406 489 C407.01964844 489.185625 408.03929687 489.37125 409.08984375 489.5625 C437.35221319 492.72472315 464.47482787 487.74501582 487.22363281 470.01806641 C496.94304101 462.15840169 503.97610204 452.89153787 510 442 C510.43538086 441.22205078 510.87076172 440.44410156 511.31933594 439.64257812 C531.69357954 402.92139508 544.66465783 362.79487574 554 322 C554.30952558 320.6796487 554.6199152 319.35949967 554.93115234 318.03955078 C555.83047478 314.21881552 556.69991463 310.39171044 557.5625 306.5625 C557.82659668 305.42554688 558.09069336 304.28859375 558.36279297 303.1171875 C560.49066386 293.32396073 560.29275172 286.11727872 555.4375 277.234375 C552.25877788 272.29353518 548.80927521 269.96281551 543.0625 268.5 C538.21092705 267.74855336 535.19362202 268.23220946 531 271 C526.504234 277.03565435 525.51693063 283.93652042 524.07952881 291.17196655 C520.82124206 307.41242803 516.54064224 323.30000045 511.875 339.1875 C511.57958313 340.19980682 511.28416626 341.21211365 510.97979736 342.25509644 C506.11831095 358.86925071 501.06044723 375.29952995 493.6875 391 C493.21530029 392.01545898 492.74310059 393.03091797 492.2565918 394.07714844 C486.0527587 407.30058687 479.53933703 420.11339501 471 432 C470.236875 433.0725 469.47375 434.145 468.6875 435.25 C462.11022428 441.98023562 454.34803683 448.23570148 444.625 448.375 C439.44962238 448.2430105 435.84468685 447.57352505 432 444 C410.35270479 418.7180972 414.52275058 376.41360232 414.03740215 345.35125351 C414.00401693 343.25252096 413.96558019 341.15387016 413.92645264 339.05523682 C413.74211979 324.36453591 414.6733677 309.7297398 415.54956961 295.07220054 C415.72577169 292.112681 415.89833987 289.15295383 416.07092297 286.19322139 C416.47840125 279.20526027 416.89134442 272.21763786 417.30810547 265.23022461 C417.73534682 258.06584783 418.15429508 250.90102097 418.56902874 243.73591012 C418.92820503 237.53467681 419.29201293 231.33372731 419.65955937 225.13298446 C419.87780698 221.45083535 420.09452432 217.76861502 420.3069725 214.08612633 C420.54409151 209.98107035 420.7909169 205.87665049 421.03857422 201.7722168 C421.10618958 200.58070007 421.17380493 199.38918335 421.24346924 198.16156006 C421.68179965 191.05373351 422.47486209 184.07314376 423.55586433 177.03379536 C424.12615128 173.13828766 424.41562401 169.30661584 424.625 165.375 C424.69976563 164.06273437 424.77453125 162.75046875 424.8515625 161.3984375 C426.25016671 126.6772749 421.80864204 88.81677694 398.40625 61.52734375 C383.37535252 45.74002124 363.04503634 36.42297981 341.23828125 35.69921875 C339.2631127 35.67977195 337.28773222 35.67624695 335.3125 35.6875 C334.26521729 35.69313965 333.21793457 35.6987793 332.13891602 35.70458984 C309.14149552 36.06146769 289.43370132 43.53481126 272.5 59.41015625 C263.12030374 69.12693535 256.14670843 80.02964269 250 92 C249.6587207 92.65274902 249.31744141 93.30549805 248.96582031 93.97802734 C239.40337305 112.44864916 234.0053237 132.42707955 228.6875 152.4375 C228.47458313 153.23280121 228.26166626 154.02810242 228.04229736 154.84750366 C225.80370598 163.25214822 223.7591119 171.65571221 222.21875 180.21875 C222.09517624 180.898806 221.97160248 181.578862 221.84428406 182.27952576 C220.83570475 188.20287619 220.68845641 194.01143994 221 200 C219.02 200 217.04 200 215 200 C214.9906543 199.36239746 214.98130859 198.72479492 214.97167969 198.06787109 C214.6589273 113.73837816 214.6589273 113.73837816 177.34375 41.2109375 C161.18539845 25.96822587 141.13258804 20.42132855 119.2734375 20.796875 C107.24019696 21.23098223 97.33750943 26.29654652 87 32 C86.00742188 32.5465625 85.01484375 33.093125 83.9921875 33.65625 C76.67311083 38.00928685 70.65668002 43.56825894 64.58007812 49.47119141 C63.08419603 50.91853592 61.56871784 52.34177589 60.046875 53.76171875 C36.43730041 76.34909109 25.90973709 112.12437016 17.0625 142.9375 C16.80436523 143.82115234 16.54623047 144.70480469 16.28027344 145.61523438 C10.62545952 166.29273219 8.54856968 187.98321618 5.85302734 209.20288086 C5.34681565 213.18753271 4.83125021 217.1709122 4.31311417 221.15402889 C3.90965742 224.26348972 3.51104651 227.37355713 3.11388397 230.48382759 C2.92559107 231.95389342 2.73583267 233.42377239 2.54450226 234.89344597 C1.62918674 241.94376711 0.73268475 248.87673388 1 256 C-0.98 256 -2.96 256 -5 256 C-4.97791851 255.42202636 -4.95583702 254.84405272 -4.9330864 254.24856472 C-4.68715037 247.8103073 -4.4414971 241.37203913 -4.19593811 234.93376732 C-4.0705865 231.64873944 -3.945084 228.36371737 -3.81952286 225.0786975 C-3.26138394 210.4718659 -2.70838856 195.86486694 -2.16847944 181.25734925 C-1.94382066 175.1826149 -1.71806031 169.10792142 -1.49195385 163.0332408 C-1.43467338 161.49417512 -1.37743598 159.95510784 -1.32024097 158.41603899 C-0.5560979 137.8649382 0.2749651 117.31840868 1.2018702 96.77400762 C1.57801426 88.41248226 1.92997389 80.04992169 2.27959824 71.68725109 C2.5844359 64.44589215 2.92075207 57.20686327 3.27957153 49.96798992 C3.49353756 45.49678947 3.67727749 41.02473054 3.85237122 36.55185509 C3.93910102 34.49537948 4.03844005 32.4393896 4.15153503 30.38419533 C5.33771461 18.39716556 5.33771461 18.39716556 0.71533203 7.86376953 C-1.07583656 6.23241432 -1.07583656 6.23241432 -3 5 C-3.57146759 4.60465057 -4.14293518 4.20930115 -4.73171997 3.80197144 C-26.90401282 -9.83279914 -62.3889984 -6.68653958 -81.48828125 11.41015625 Z M14 428 C14 429.65 14 431.3 14 433 C14.33 433 14.66 433 15 433 C15 431.35 15 429.7 15 428 C14.67 428 14.34 428 14 428 Z " fill="#000000" transform="translate(155,10)"/>
<path d="M0 0 C3.625 0.375 3.625 0.375 5.875 1.8125 C12.36915294 11.32179537 11.78249037 23.14077865 11.79296875 34.16015625 C11.7971289 35.52470972 11.80150264 36.88926255 11.80607605 38.2538147 C11.81795583 42.64839165 11.81674988 47.04291241 11.8125 51.4375 C11.81193855 52.18959873 11.81137711 52.94169746 11.81079865 53.71658707 C11.78868245 77.33191707 11.50953697 100.82479905 9.625 124.375 C9.52791748 125.58953857 9.43083496 126.80407715 9.33081055 128.05541992 C7.69796477 148.39627449 5.94882074 168.72700591 4.17541599 189.0560112 C3.29428627 199.15970835 2.42751379 209.26463295 1.56463623 219.36990356 C1.32198706 222.20177971 1.07655419 225.03340242 0.83056641 227.86499023 C-0.54878227 243.82484557 -1.59551747 259.71297587 -1.67016602 275.73803711 C-1.68171051 277.45263912 -1.70220127 279.16720451 -1.73168945 280.8815918 C-2.32965061 315.93414187 12.82490405 347.15773546 36.625 372.375 C37.30949219 373.12394531 37.99398437 373.87289063 38.69921875 374.64453125 C52.45429595 389.16236689 70.60730648 398.67616789 89.625 404.375 C90.68847656 404.6946875 91.75195312 405.014375 92.84765625 405.34375 C112.08535002 410.11452136 133.66020306 408.69359756 152.625 403.375 C153.46015137 403.14425781 154.29530273 402.91351562 155.15576172 402.67578125 C183.18219521 394.68785148 213.3270064 378.70860552 233.625 357.375 C234.285 356.68921875 234.945 356.0034375 235.625 355.296875 C271.71417575 316.10628571 288.37934617 265.4596548 287.6875 212.1875 C287.67396484 210.80498047 287.67396484 210.80498047 287.66015625 209.39453125 C287.64855469 208.72808594 287.63695312 208.06164062 287.625 207.375 C286.965 208.035 286.305 208.695 285.625 209.375 C284.635 209.375 283.645 209.375 282.625 209.375 C284.06745971 206.00926067 285.708468 203.62489611 288.625 201.375 C291.125 201.3125 291.125 201.3125 293.625 202.375 C297.625 206.48310811 297.625 206.48310811 297.625 210.375 C293.75 208.5 293.75 208.5 292.625 207.375 C292.53001221 208.40455811 292.43502441 209.43411621 292.3371582 210.49487305 C287.0954185 266.72653865 277.65183338 312.42670007 240.03881836 355.73193359 C239.02510572 356.91001788 238.02770488 358.10221394 237.04125977 359.30322266 C232.81410489 364.35160146 228.27470622 368.2870341 222.9375 372.125 C222.1129834 372.72280273 221.2884668 373.32060547 220.43896484 373.93652344 C196.16139693 391.27174392 169.21682481 405.21406694 139.625 410.375 C138.60148438 410.55804687 137.57796875 410.74109375 136.5234375 410.9296875 C104.38851823 414.60040974 72.82397933 407.47384235 47.26611328 387.2253418 C38.01015893 379.69718468 29.81740037 371.91752042 22.625 362.375 C21.89667969 361.41207031 21.16835938 360.44914062 20.41796875 359.45703125 C11.49948763 347.13359587 4.4799694 333.85923215 -0.375 319.4375 C-0.65359863 318.61056641 -0.93219727 317.78363281 -1.21923828 316.93164062 C-4.93518795 305.22837449 -5.78263802 293.64725197 -5.75 281.4375 C-5.74945618 280.65424347 -5.74891235 279.87098694 -5.74835205 279.06399536 C-5.65013302 247.34121387 -2.13449113 215.68976145 0.70522213 184.12210941 C4.40755779 142.95970751 7.52337652 101.89941314 8.4375 60.5625 C8.46518463 59.44304993 8.49286926 58.32359985 8.52139282 57.17022705 C8.78333716 46.02536738 8.81378046 34.97557458 7.82421875 23.86328125 C7.75346634 23.0338652 7.68271393 22.20444916 7.6098175 21.34989929 C7.04130091 15.87085865 6.09043314 10.35036809 3.625 5.375 C2.635 4.715 1.645 4.055 0.625 3.375 C-7.14010696 7.02916798 -10.6706332 14.62002442 -14.375 21.9375 C-14.68284424 22.54295654 -14.99068848 23.14841309 -15.30786133 23.7722168 C-21.9304342 37.26277013 -26.33623382 51.26148605 -30.375 65.6875 C-30.63679047 66.61551422 -30.89858093 67.54352844 -31.16830444 68.49966431 C-48.27855814 129.22337004 -55.41224614 191.73308927 -62.17919922 254.29833984 C-63.80146839 269.29112195 -65.42740363 284.28257971 -67.26401711 299.25092697 C-67.5110239 301.26651702 -67.75383976 303.2826193 -67.99650574 305.29873657 C-68.76692064 311.46364098 -69.68172404 317.39405563 -71.375 323.375 C-72.365 323.045 -73.355 322.715 -74.375 322.375 C-74.23104546 321.35106392 -74.23104546 321.35106392 -74.08418274 320.30644226 C-71.83123913 304.15213161 -69.8284333 287.9819884 -68.04296875 271.76953125 C-67.89407448 270.41798793 -67.89407448 270.41798793 -67.74217224 269.0391407 C-67.33166301 265.30846654 -66.92201302 261.57769922 -66.51335526 257.84682178 C-42.0843349 34.88898234 -42.0843349 34.88898234 -5.375 2.375 C-3.375 0.375 -3.375 0.375 0 0 Z " fill="#000000" transform="translate(453.375,120.625)"/>
<path d="M0 0 C0.66 0 1.32 0 2 0 C1.99777939 1.15271393 1.99555878 2.30542786 1.99327087 3.49307251 C-0.16519969 150.10983903 -0.16519969 150.10983903 16.43066406 319.23486328 C17.37218366 323.80761243 18.18796336 328.40275256 19 333 C19.66 333 20.32 333 21 333 C21.33 331.35 21.66 329.7 22 328 C22.99 328.33 23.98 328.66 25 329 C24.01 331.97 23.02 334.94 22 338 C17.06729471 339.6442351 14.45975807 338.18615592 10 336 C10.33 335.01 10.66 334.02 11 333 C12.98 333.66 14.96 334.32 17 335 C16.74025391 334.27224365 16.48050781 333.5444873 16.21289062 332.79467773 C13.72374181 325.61306932 11.85359554 318.53780339 10.5 311.0625 C10.18699951 309.33555908 10.18699951 309.33555908 9.86767578 307.57373047 C-2.69537984 235.01801777 -1.34232612 159.85749829 -1.20059633 86.47989404 C-1.18706126 79.11543386 -1.18490258 71.75100306 -1.1855461 64.38653213 C-1.18621902 55.47789257 -1.17932965 46.56927084 -1.1700995 37.66063666 C-1.16797407 35.11964141 -1.16725935 32.57864903 -1.16686058 30.03765297 C-1.165861 26.08324962 -1.15979659 22.12888596 -1.14969444 18.1744957 C-1.14676682 16.7256043 -1.1455446 15.27670834 -1.14612198 13.8278141 C-1.14661016 11.85857853 -1.14035728 9.88934466 -1.13371277 7.92012024 C-1.13203692 6.81828053 -1.13036108 5.71644083 -1.12863445 4.58121204 C-1 2 -1 2 0 0 Z " fill="#000000" transform="translate(24,94)"/>
<path d="M0 0 C1.4540625 0.0309375 1.4540625 0.0309375 2.9375 0.0625 C5.0625 4.6875 5.0625 4.6875 3.9375 8.0625 C4.26300502 9.73071323 4.59596063 11.39749557 4.9375 13.0625 C4.6075 13.7225 4.2775 14.3825 3.9375 15.0625 C1.125 15.9375 1.125 15.9375 -2.0625 16.0625 C-4.4375 14.125 -4.4375 14.125 -6.0625 12.0625 C-2.43923261 10.8547442 -1.42103631 11.51938872 1.9375 13.0625 C1.9375 11.7425 1.9375 10.4225 1.9375 9.0625 C0.6175 9.0625 -0.7025 9.0625 -2.0625 9.0625 C-2.0625 8.0725 -2.0625 7.0825 -2.0625 6.0625 C-0.7425 6.0625 0.5775 6.0625 1.9375 6.0625 C1.6075 5.0725 1.2775 4.0825 0.9375 3.0625 C-1.0425 3.7225 -3.0225 4.3825 -5.0625 5.0625 C-3.9375 0.08035714 -3.9375 0.08035714 0 0 Z " fill="#000000" transform="translate(417.0625,329.9375)"/>
<path d="M0 0 C3.0625 0.1875 3.0625 0.1875 5.0625 2.1875 C4.90004442 5.92397845 4.47466356 7.71288742 2 10.5625 C1.360625 11.09875 0.72125 11.635 0.0625 12.1875 C1.7125 12.5175 3.3625 12.8475 5.0625 13.1875 C5.0625 13.8475 5.0625 14.5075 5.0625 15.1875 C1.7625 15.1875 -1.5375 15.1875 -4.9375 15.1875 C-2.9375 11.1875 -2.9375 11.1875 -0.8125 8.625 C1.36735538 6.30372611 1.36735538 6.30372611 1.0625 3.1875 C0.4025 3.1875 -0.2575 3.1875 -0.9375 3.1875 C-1.2675 3.8475 -1.5975 4.5075 -1.9375 5.1875 C-2.9275 5.1875 -3.9175 5.1875 -4.9375 5.1875 C-3.82120474 0.24390669 -3.82120474 0.24390669 0 0 Z " fill="#000000" transform="translate(212.9375,287.8125)"/>
<path d="M0 0 C2.97 0.495 2.97 0.495 6 1 C6.95465783 3.16967689 7.14401212 4.56328793 6.3984375 6.82421875 C5.64129615 8.5684743 4.82390802 10.28627131 4 12 C2.35 11.67 0.7 11.34 -1 11 C-0.67 7.37 -0.34 3.74 0 0 Z M2 5 C3 8 3 8 3 8 Z " fill="#000000" transform="translate(325,378)"/>
<path d="M0 0 C0 4.95 0 9.9 0 15 C-0.99 15 -1.98 15 -3 15 C-3 11.37 -3 7.74 -3 4 C-3.99 4.33 -4.98 4.66 -6 5 C-5.625 3.0625 -5.625 3.0625 -5 1 C-3 0 -3 0 0 0 Z " fill="#000000" transform="translate(404,330)"/>
<path d="M0 0 C0 4.95 0 9.9 0 15 C-0.99 15 -1.98 15 -3 15 C-3 11.37 -3 7.74 -3 4 C-3.99 4.33 -4.98 4.66 -6 5 C-5.625 3.0625 -5.625 3.0625 -5 1 C-3 0 -3 0 0 0 Z " fill="#000000" transform="translate(200,288)"/>
<path d="M0 0 C0 4.95 0 9.9 0 15 C-0.99 15 -1.98 15 -3 15 C-3 11.37 -3 7.74 -3 4 C-3.99 4.33 -4.98 4.66 -6 5 C-5.625 3.0625 -5.625 3.0625 -5 1 C-3 0 -3 0 0 0 Z " fill="#000000" transform="translate(7,211)"/>
<path d="M0 0 C0 4.95 0 9.9 0 15 C-0.66 15 -1.32 15 -2 15 C-2.33 11.37 -2.66 7.74 -3 4 C-3.99 4.33 -4.98 4.66 -6 5 C-6 4.01 -6 3.02 -6 2 C-3 0 -3 0 0 0 Z " fill="#000000" transform="translate(19,211)"/>
<path d="M0 0 C0.99 0 1.98 0 3 0 C3.66 3.63 4.32 7.26 5 11 C4.01 11.33 3.02 11.66 2 12 C0.70756464 7.8803623 -0.26252625 4.33168317 0 0 Z " fill="#000000" transform="translate(524,416)"/>
<path d="M0 0 C0 0.66 0 1.32 0 2 C-1.26418246 2.69965443 -2.53665402 3.38434763 -3.8125 4.0625 C-4.52019531 4.44535156 -5.22789062 4.82820313 -5.95703125 5.22265625 C-8 6 -8 6 -11 5 C-11 4.34 -11 3.68 -11 3 C-9.73581754 2.30034557 -8.46334598 1.61565237 -7.1875 0.9375 C-6.47980469 0.55464844 -5.77210938 0.17179687 -5.04296875 -0.22265625 C-3 -1 -3 -1 0 0 Z " fill="#000000" transform="translate(626,468)"/>
<path d="M0 0 C3.43595166 1.52708963 6.11912454 3.59927045 9 6 C8.67 6.99 8.34 7.98 8 9 C0.28571429 5 0.28571429 5 -1 1 C-0.67 0.67 -0.34 0.34 0 0 Z " fill="#000000" transform="translate(541,455)"/>
<path d="M0 0 C0.99 0 1.98 0 3 0 C3.69965443 1.26418246 4.38434763 2.53665402 5.0625 3.8125 C5.63677734 4.87404297 5.63677734 4.87404297 6.22265625 5.95703125 C7 8 7 8 6 11 C5.34 11 4.68 11 4 11 C3.32880451 9.5437455 2.66318193 8.08492133 2 6.625 C1.62875 5.81289063 1.2575 5.00078125 0.875 4.1640625 C0 2 0 2 0 0 Z " fill="#000000" transform="translate(530,437)"/>
<path d="M0 0 C0.99 0.33 1.98 0.66 3 1 C2.67 4.63 2.34 8.26 2 12 C1.01 12 0.02 12 -1 12 C-1.02712066 10.56260487 -1.04645067 9.12506137 -1.0625 7.6875 C-1.07410156 6.88699219 -1.08570313 6.08648437 -1.09765625 5.26171875 C-1 3 -1 3 0 0 Z " fill="#000000" transform="translate(519,331)"/>
<path d="M0 0 C0.99 0 1.98 0 3 0 C3.66 3.63 4.32 7.26 5 11 C4.01 11.33 3.02 11.66 2 12 C1.66430703 10.37548581 1.3315204 8.75037083 1 7.125 C0.814375 6.22007812 0.62875 5.31515625 0.4375 4.3828125 C0 2 0 2 0 0 Z " fill="#000000" transform="translate(520,395)"/>
<path d="M0 0 C0.99 0 1.98 0 3 0 C3 3.63 3 7.26 3 11 C2.01 11 1.02 11 0 11 C0 7.37 0 3.74 0 0 Z " fill="#000000" transform="translate(519,374)"/>
<path d="M0 0 C0.99 0 1.98 0 3 0 C2.125 7.625 2.125 7.625 1 11 C0.01 11 -0.98 11 -2 11 C-1 3.57142857 -1 3.57142857 0 0 Z " fill="#000000" transform="translate(139,349)"/>
<path d="M0 0 C0.99 0.33 1.98 0.66 3 1 C2.01 4.3 1.02 7.6 0 11 C-0.99 10.67 -1.98 10.34 -3 10 C-2.01 6.7 -1.02 3.4 0 0 Z " fill="#000000" transform="translate(359,285)"/>
<path d="M0 0 C0.99 0.33 1.98 0.66 3 1 C2.01 4.3 1.02 7.6 0 11 C-0.99 10.67 -1.98 10.34 -3 10 C-2.69201674 8.51988629 -2.378482 7.04092675 -2.0625 5.5625 C-1.88847656 4.73878906 -1.71445313 3.91507813 -1.53515625 3.06640625 C-1 1 -1 1 0 0 Z " fill="#000000" transform="translate(198,141)"/>
<path d="M0 0 C0.99 0.33 1.98 0.66 3 1 C1.84414715 4.91211733 0.64465038 7.8745041 -2 11 C-2.66 10.67 -3.32 10.34 -4 10 C-2.8905928 6.51329166 -1.73662334 3.22515763 0 0 Z " fill="#000000" transform="translate(220,86)"/>
<path d="M0 0 C0 0.99 0 1.98 0 3 C-3.63 3.33 -7.26 3.66 -11 4 C-11 3.01 -11 2.02 -11 1 C-7.27569643 0.30710631 -3.78916254 -0.11144596 0 0 Z " fill="#000000" transform="translate(607,474)"/>
<path d="M0 0 C3.55780196 0.60990891 6.6828589 1.5783681 10 3 C10 3.99 10 4.98 10 6 C5.6109185 5.48964169 2.66291938 4.47785723 -1 2 C-0.67 1.34 -0.34 0.68 0 0 Z " fill="#000000" transform="translate(558,466)"/>
<path d="M0 0 C-0.33645789 3.14027363 -1.05236086 4.05098295 -3.375 6.3125 C-4.674375 7.1478125 -4.674375 7.1478125 -6 8 C-6.99 7.67 -7.98 7.34 -9 7 C-8.07347299 5.82460004 -7.13336613 4.65989423 -6.1875 3.5 C-5.66542969 2.8503125 -5.14335938 2.200625 -4.60546875 1.53125 C-3 0 -3 0 0 0 Z " fill="#000000" transform="translate(641,455)"/>
<path d="M0 0 C0.99 0 1.98 0 3 0 C2.53199289 4.05606165 2.12046792 7.46588679 0 11 C-0.66 10.67 -1.32 10.34 -2 10 C-1.54177532 6.53058454 -1.10868317 3.32604951 0 0 Z " fill="#000000" transform="translate(675,385)"/>
<path d="M0 0 C0.99 0 1.98 0 3 0 C3 3.63 3 7.26 3 11 C2.01 11 1.02 11 0 11 C0 7.37 0 3.74 0 0 Z " fill="#000000" transform="translate(109,383)"/>
<path d="M0 0 C0.99 0.33 1.98 0.66 3 1 C2.34 4.3 1.68 7.6 1 11 C0.01 11 -0.98 11 -2 11 C-1.125 3.375 -1.125 3.375 0 0 Z " fill="#000000" transform="translate(134,368)"/>
<path d="M0 0 C0.99 0.33 1.98 0.66 3 1 C2.34 3.97 1.68 6.94 1 10 C-0.32 10.33 -1.64 10.66 -3 11 C-2.01 7.37 -1.02 3.74 0 0 Z " fill="#000000" transform="translate(335,360)"/>
<path d="M0 0 C0.99 0 1.98 0 3 0 C3 3.63 3 7.26 3 11 C2.01 11 1.02 11 0 11 C0 7.37 0 3.74 0 0 Z " fill="#000000" transform="translate(518,353)"/>
<path d="M0 0 C0.99 0 1.98 0 3 0 C3 3.63 3 7.26 3 11 C2.01 11 1.02 11 0 11 C0 7.37 0 3.74 0 0 Z " fill="#000000" transform="translate(108,343)"/>
<path d="M0 0 C0.99 0 1.98 0 3 0 C2.125 7.625 2.125 7.625 1 11 C0.01 11 -0.98 11 -2 11 C-1.34 7.37 -0.68 3.74 0 0 Z " fill="#000000" transform="translate(144,330)"/>
<path d="M0 0 C0.99 0 1.98 0 3 0 C2.125 7.625 2.125 7.625 1 11 C0.01 11 -0.98 11 -2 11 C-1.34 7.37 -0.68 3.74 0 0 Z " fill="#000000" transform="translate(149,311)"/>
<path d="M0 0 C0.99 0 1.98 0 3 0 C3 3.63 3 7.26 3 11 C2.01 11 1.02 11 0 11 C0 7.37 0 3.74 0 0 Z " fill="#000000" transform="translate(107,303)"/>
<path d="M0 0 C0.99 0 1.98 0 3 0 C2.125 7.625 2.125 7.625 1 11 C0.01 11 -0.98 11 -2 11 C-1.34 7.37 -0.68 3.74 0 0 Z " fill="#000000" transform="translate(154,292)"/>
<path d="M0 0 C0.99 0 1.98 0 3 0 C3 3.63 3 7.26 3 11 C2.01 11 1.02 11 0 11 C0 7.37 0 3.74 0 0 Z " fill="#000000" transform="translate(333,280)"/>
<path d="M0 0 C0.99 0 1.98 0 3 0 C2.125 7.625 2.125 7.625 1 11 C0.01 11 -0.98 11 -2 11 C-1.34 7.37 -0.68 3.74 0 0 Z " fill="#000000" transform="translate(159,273)"/>
<path d="M0 0 C0.99 0 1.98 0 3 0 C3 3.63 3 7.26 3 11 C2.01 11 1.02 11 0 11 C0 7.37 0 3.74 0 0 Z " fill="#000000" transform="translate(106,263)"/>
<path d="M0 0 C0.99 0 1.98 0 3 0 C3 3.63 3 7.26 3 11 C2.01 11 1.02 11 0 11 C0 7.37 0 3.74 0 0 Z " fill="#000000" transform="translate(334,260)"/>
<path d="M0 0 C0.99 0 1.98 0 3 0 C3 3.63 3 7.26 3 11 C2.01 11 1.02 11 0 11 C0 7.37 0 3.74 0 0 Z " fill="#000000" transform="translate(105,243)"/>
<path d="M0 0 C0.99 0.33 1.98 0.66 3 1 C2.34 3.97 1.68 6.94 1 10 C-0.32 10 -1.64 10 -3 10 C-2.01 6.7 -1.02 3.4 0 0 Z " fill="#000000" transform="translate(175,216)"/>
<path d="M0 0 C0.99 0 1.98 0 3 0 C3 3.63 3 7.26 3 11 C2.01 11 1.02 11 0 11 C0 7.37 0 3.74 0 0 Z " fill="#000000" transform="translate(104,203)"/>
<path d="M0 0 C0.99 0 1.98 0 3 0 C3 3.63 3 7.26 3 11 C2.01 11 1.02 11 0 11 C0 7.37 0 3.74 0 0 Z " fill="#000000" transform="translate(334,201)"/>
<path d="M0 0 C0.99 0 1.98 0 3 0 C3 3.63 3 7.26 3 11 C2.01 11 1.02 11 0 11 C0 7.37 0 3.74 0 0 Z " fill="#000000" transform="translate(333,181)"/>
<path d="M0 0 C0.99 0.33 1.98 0.66 3 1 C2.01 4.3 1.02 7.6 0 11 C-0.99 10.67 -1.98 10.34 -3 10 C-2.01 6.7 -1.02 3.4 0 0 Z " fill="#000000" transform="translate(397,173)"/>
<path d="M0 0 C0.99 0 1.98 0 3 0 C3 3.63 3 7.26 3 11 C2.01 11 1.02 11 0 11 C0 7.37 0 3.74 0 0 Z " fill="#000000" transform="translate(533,171)"/>
<path d="M0 0 C0.99 0 1.98 0 3 0 C3 3.63 3 7.26 3 11 C2.01 11 1.02 11 0 11 C0 7.37 0 3.74 0 0 Z " fill="#000000" transform="translate(103,163)"/>
<path d="M0 0 C0.99 0 1.98 0 3 0 C4.28317892 3.84953676 4.06643637 6.94738135 4 11 C3.01 11 2.02 11 1 11 C0.67 7.37 0.34 3.74 0 0 Z " fill="#000000" transform="translate(531,151)"/>
<path d="M0 0 C0.99 0 1.98 0 3 0 C3 3.63 3 7.26 3 11 C2.01 11 1.02 11 0 11 C0 7.37 0 3.74 0 0 Z " fill="#000000" transform="translate(102,123)"/>
<path d="M0 0 C0.99 0.33 1.98 0.66 3 1 C1.68 4.3 0.36 7.6 -1 11 C-1.99 10.67 -2.98 10.34 -4 10 C-3.52449439 8.51965236 -3.04448784 7.04074979 -2.5625 5.5625 C-2.29566406 4.73878906 -2.02882812 3.91507812 -1.75390625 3.06640625 C-1 1 -1 1 0 0 Z " fill="#000000" transform="translate(212,104)"/>
<path d="M0 0 C0.99 0 1.98 0 3 0 C3 3.63 3 7.26 3 11 C2.01 11 1.02 11 0 11 C0 7.37 0 3.74 0 0 Z " fill="#000000" transform="translate(101,103)"/>
<path d="M0 0 C2.34191563 2.1290142 3.83554954 4.04408729 5 7 C5 8.32 5 9.64 5 11 C2 10 2 10 0.25 7.1875 C-0.98589446 4.03596914 -1.28222189 3.03070628 0 0 Z " fill="#000000" transform="translate(517,93)"/>
<path d="M0 0 C3.48191452 1.88211596 6.03178994 3.5009599 8 7 C7.67 7.99 7.34 8.98 7 10 C5.85073734 9.04578192 4.70569459 8.08647955 3.5625 7.125 C2.92441406 6.59132813 2.28632813 6.05765625 1.62890625 5.5078125 C0 4 0 4 -1 2 C-0.67 1.34 -0.34 0.68 0 0 Z " fill="#000000" transform="translate(504,77)"/>
<path d="M0 0 C0.66 0.33 1.32 0.66 2 1 C2 1.66 2 2.32 2 3 C-2.95 5.475 -2.95 5.475 -8 8 C-8.33 7.01 -8.66 6.02 -9 5 C-7.54735962 4.1361871 -6.0876837 3.28419546 -4.625 2.4375 C-3.40683594 1.72400391 -3.40683594 1.72400391 -2.1640625 0.99609375 C-1.44992187 0.66738281 -0.73578125 0.33867188 0 0 Z " fill="#000000" transform="translate(456,72)"/>
<path d="M0 0 C0.99 0.33 1.98 0.66 3 1 C3 1.66 3 2.32 3 3 C1.25 4.5078125 1.25 4.5078125 -1 6.125 C-1.7425 6.66382812 -2.485 7.20265625 -3.25 7.7578125 C-3.8275 8.16773437 -4.405 8.57765625 -5 9 C-5 5 -5 5 -2.5 2.25 C-1.675 1.5075 -0.85 0.765 0 0 Z " fill="#000000" transform="translate(232,71)"/>
<path d="M0 0 C0 0.99 0 1.98 0 3 C-3.63 3.66 -7.26 4.32 -11 5 C-10.67 3.68 -10.34 2.36 -10 1 C-6.56484998 0.37542727 -3.50935186 0 0 0 Z " fill="#000000" transform="translate(477,67)"/>
<path d="M0 0 C0.99 0.33 1.98 0.66 3 1 C-0.625 7.75 -0.625 7.75 -4 10 C-4 5.28093812 -2.71245796 3.72962969 0 0 Z " fill="#000000" transform="translate(651,439)"/>
<path d="M0 0 C0.99 0 1.98 0 3 0 C2.34 3.3 1.68 6.6 1 10 C0.01 10 -0.98 10 -2 10 C-1.54177532 6.53058454 -1.10868317 3.32604951 0 0 Z " fill="#000000" transform="translate(118,425)"/>
<path d="M0 0 C0.99 0 1.98 0 3 0 C1.85569823 3.87302138 0.76679902 7.00263439 -2 10 C-2.66 10 -3.32 10 -4 10 C-3.43768609 6.06380262 -2.38314183 3.20807554 0 0 Z " fill="#000000" transform="translate(661,422)"/>
<path d="M0 0 C0.99 0.33 1.98 0.66 3 1 C2.01 4.3 1.02 7.6 0 11 C-0.99 10.67 -1.98 10.34 -3 10 C-2.01 6.7 -1.02 3.4 0 0 Z " fill="#000000" transform="translate(124,406)"/>
<path d="M0 0 C0.99 0.33 1.98 0.66 3 1 C3 4.3 3 7.6 3 11 C2.01 11 1.02 11 0 11 C0 7.37 0 3.74 0 0 Z " fill="#000000" transform="translate(110,403)"/>
<path d="M0 0 C0.99 0.33 1.98 0.66 3 1 C3 4.3 3 7.6 3 11 C2.01 11 1.02 11 0 11 C0 7.37 0 3.74 0 0 Z " fill="#000000" transform="translate(109,363)"/>
<path d="M0 0 C0.99 0.33 1.98 0.66 3 1 C2.34 4.3 1.68 7.6 1 11 C0.01 11 -0.98 11 -2 11 C-1.85892253 9.54119891 -1.71197585 8.08296449 -1.5625 6.625 C-1.48128906 5.81289063 -1.40007813 5.00078125 -1.31640625 4.1640625 C-1 2 -1 2 0 0 Z " fill="#000000" transform="translate(686,346)"/>
<path d="M0 0 C0.99 0 1.98 0 3 0 C2.67 3.63 2.34 7.26 2 11 C1.01 11 0.02 11 -1 11 C-0.67 7.37 -0.34 3.74 0 0 Z " fill="#000000" transform="translate(329,339)"/>
<path d="M0 0 C0.99 0 1.98 0 3 0 C2.34 3.63 1.68 7.26 1 11 C0.01 10.67 -0.98 10.34 -2 10 C-1.34 6.7 -0.68 3.4 0 0 Z " fill="#000000" transform="translate(690,327)"/>
<path d="M0 0 C0.99 0 1.98 0 3 0 C2.01 3.63 1.02 7.26 0 11 C-0.99 10.67 -1.98 10.34 -3 10 C-2.01 6.7 -1.02 3.4 0 0 Z " fill="#000000" transform="translate(353,304)"/>
<path d="M0 0 C0.99 0.33 1.98 0.66 3 1 C2.67 4.63 2.34 8.26 2 12 C1.01 11.67 0.02 11.34 -1 11 C-0.67 7.37 -0.34 3.74 0 0 Z " fill="#000000" transform="translate(525,291)"/>
<path d="M0 0 C0.99 0 1.98 0 3 0 C2.67 3.3 2.34 6.6 2 10 C1.01 10.33 0.02 10.66 -1 11 C-1.0270043 9.54176788 -1.04639787 8.08339325 -1.0625 6.625 C-1.07410156 5.81289063 -1.08570313 5.00078125 -1.09765625 4.1640625 C-1 2 -1 2 0 0 Z " fill="#000000" transform="translate(528,272)"/>
<path d="M0 0 C0.66 0 1.32 0 2 0 C1.125 7.625 1.125 7.625 0 11 C-0.99 10.67 -1.98 10.34 -3 10 C-2.69201674 8.51988629 -2.378482 7.04092675 -2.0625 5.5625 C-1.88847656 4.73878906 -1.71445313 3.91507812 -1.53515625 3.06640625 C-1 1 -1 1 0 0 Z " fill="#000000" transform="translate(165,254)"/>
<path d="M0 0 C0.99 0 1.98 0 3 0 C2.67 3.63 2.34 7.26 2 11 C1.01 11 0.02 11 -1 11 C-0.67 7.37 -0.34 3.74 0 0 Z " fill="#000000" transform="translate(530,252)"/>
<path d="M0 0 C0.99 0.33 1.98 0.66 3 1 C2.01 4.3 1.02 7.6 0 11 C-0.99 10.67 -1.98 10.34 -3 10 C-2.69201674 8.51988629 -2.378482 7.04092675 -2.0625 5.5625 C-1.88847656 4.73878906 -1.71445313 3.91507813 -1.53515625 3.06640625 C-1 1 -1 1 0 0 Z " fill="#000000" transform="translate(170,235)"/>
<path d="M0 0 C0.99 0.33 1.98 0.66 3 1 C3 4.3 3 7.6 3 11 C2.01 11 1.02 11 0 11 C0 7.37 0 3.74 0 0 Z " fill="#000000" transform="translate(105,223)"/>
<path d="M0 0 C0.99 0.33 1.98 0.66 3 1 C2.01 4.3 1.02 7.6 0 11 C-0.99 11 -1.98 11 -3 11 C-2.69078116 9.54096742 -2.37751201 8.08279278 -2.0625 6.625 C-1.88847656 5.81289062 -1.71445312 5.00078125 -1.53515625 4.1640625 C-1 2 -1 2 0 0 Z " fill="#000000" transform="translate(384,210)"/>
<path d="M0 0 C0.99 0.33 1.98 0.66 3 1 C2.34 4.3 1.68 7.6 1 11 C0.01 11 -0.98 11 -2 11 C-1 3.57142857 -1 3.57142857 0 0 Z " fill="#000000" transform="translate(180,197)"/>
<path d="M0 0 C0.99 0.33 1.98 0.66 3 1 C2.01 4.3 1.02 7.6 0 11 C-0.99 11 -1.98 11 -3 11 C-2.01 7.37 -1.02 3.74 0 0 Z " fill="#000000" transform="translate(186,178)"/>
<path d="M0 0 C0.99 0 1.98 0 3 0 C3.33 3.3 3.66 6.6 4 10 C3.01 10.33 2.02 10.66 1 11 C0.67 7.37 0.34 3.74 0 0 Z " fill="#000000" transform="translate(328,142)"/>
<path d="M0 0 C0.99 0.33 1.98 0.66 3 1 C2.01 4.3 1.02 7.6 0 11 C-0.99 10.67 -1.98 10.34 -3 10 C-2.01 6.7 -1.02 3.4 0 0 Z " fill="#000000" transform="translate(411,136)"/>
<path d="M0 0 C0.66 0.33 1.32 0.66 2 1 C1.49287967 4.71888239 0.88391785 7.73454239 -1 11 C-1.99 10.67 -2.98 10.34 -4 10 C-3.52449439 8.51965236 -3.04448784 7.04074979 -2.5625 5.5625 C-2.29566406 4.73878906 -2.02882812 3.91507812 -1.75390625 3.06640625 C-1 1 -1 1 0 0 Z " fill="#000000" transform="translate(205,122)"/>
<path d="M0 0 C0.99 0.33 1.98 0.66 3 1 C3.73046875 3.06640625 3.73046875 3.06640625 4.1875 5.5625 C4.34605469 6.38878906 4.50460937 7.21507813 4.66796875 8.06640625 C4.77753906 8.70449219 4.88710938 9.34257813 5 10 C4.01 10.33 3.02 10.66 2 11 C0.57741188 7.17679443 -0.24042276 4.08718695 0 0 Z " fill="#000000" transform="translate(524,112)"/>
<path d="M0 0 C0.99 0 1.98 0 3 0 C6.22265625 5.17578125 6.22265625 5.17578125 7 7 C6.67 7.99 6.34 8.98 6 10 C5.34 10 4.68 10 4 10 C0 3.375 0 3.375 0 0 Z " fill="#000000" transform="translate(309,86)"/>
<path d="M0 0 C8.71428571 1.85714286 8.71428571 1.85714286 11 5 C7.59068103 6.13643966 6.99664544 5.86747764 3.8125 4.5625 C3.09707031 4.27503906 2.38164062 3.98757812 1.64453125 3.69140625 C1.10183594 3.46324219 0.55914062 3.23507813 0 3 C0 2.01 0 1.02 0 0 Z " fill="#000000" transform="translate(486,68)"/>
<path d="M0 0 C0 0.99 0 1.98 0 3 C-6.625 6 -6.625 6 -10 6 C-10 5.01 -10 4.02 -10 3 C-3.375 0 -3.375 0 0 0 Z " fill="#000000" transform="translate(252,62)"/>
<path d="M0 0 C3.3 0.33 6.6 0.66 10 1 C10 1.99 10 2.98 10 4 C6.7 3.67 3.4 3.34 0 3 C0 2.01 0 1.02 0 0 Z " fill="#000000" transform="translate(577,473)"/>
<path d="M0 0 C0.99 0 1.98 0 3 0 C2.01 2.97 1.02 5.94 0 9 C-1.32 9 -2.64 9 -4 9 C-2.68 6.03 -1.36 3.06 0 0 Z " fill="#000000" transform="translate(669,404)"/>
<path d="M0 0 C0.99 0.33 1.98 0.66 3 1 C2.745504 2.48206495 2.47088238 3.96068615 2.1875 5.4375 C2.03667969 6.26121094 1.88585937 7.08492188 1.73046875 7.93359375 C1.48941406 8.61550781 1.24835938 9.29742187 1 10 C0.01 10.33 -0.98 10.66 -2 11 C-1.125 3.375 -1.125 3.375 0 0 Z " fill="#000000" transform="translate(129,387)"/>
<path d="M0 0 C0.99 0 1.98 0 3 0 C2.34 3.3 1.68 6.6 1 10 C0.01 10 -0.98 10 -2 10 C-1.125 2.25 -1.125 2.25 0 0 Z " fill="#000000" transform="translate(681,366)"/>
<path d="M0 0 C0.99 0 1.98 0 3 0 C2.67 3.63 2.34 7.26 2 11 C1.01 10.67 0.02 10.34 -1 10 C-0.67 6.7 -0.34 3.4 0 0 Z " fill="#000000" transform="translate(327,359)"/>
<path d="M0 0 C0.99 0 1.98 0 3 0 C2.34 2.97 1.68 5.94 1 9 C-0.32 9.33 -1.64 9.66 -3 10 C-2.01 6.7 -1.02 3.4 0 0 Z " fill="#000000" transform="translate(341,342)"/>
<path d="M0 0 C0.99 0 1.98 0 3 0 C2.01 3.63 1.02 7.26 0 11 C-0.99 10.67 -1.98 10.34 -3 10 C-2.01 6.7 -1.02 3.4 0 0 Z " fill="#000000" transform="translate(347,323)"/>
<path d="M0 0 C0.99 0.33 1.98 0.66 3 1 C2.67 4.3 2.34 7.6 2 11 C1.01 11 0.02 11 -1 11 C-0.67 7.37 -0.34 3.74 0 0 Z " fill="#000000" transform="translate(331,319)"/>
<path d="M0 0 C0.99 0.33 1.98 0.66 3 1 C3 4.3 3 7.6 3 11 C2.01 11 1.02 11 0 11 C0 7.37 0 3.74 0 0 Z " fill="#000000" transform="translate(332,299)"/>
<path d="M0 0 C0.99 0.33 1.98 0.66 3 1 C2.01 4.3 1.02 7.6 0 11 C-0.99 11 -1.98 11 -3 11 C-2.01 7.37 -1.02 3.74 0 0 Z " fill="#000000" transform="translate(365,266)"/>
<path d="M0 0 C0.99 0.33 1.98 0.66 3 1 C2.67 4.3 2.34 7.6 2 11 C1.01 10.67 0.02 10.34 -1 10 C-1.125 2.25 -1.125 2.25 0 0 Z " fill="#000000" transform="translate(532,232)"/>
<path d="M0 0 C0.99 0 1.98 0 3 0 C2.01 3.3 1.02 6.6 0 10 C-0.99 10 -1.98 10 -3 10 C-2.49287967 6.28111761 -1.88391785 3.26545761 0 0 Z " fill="#000000" transform="translate(404,155)"/>
<path d="M0 0 C2.39763185 2.39763185 2.34280586 3.33273498 2.625 6.625 C2.69976563 7.44226563 2.77453125 8.25953125 2.8515625 9.1015625 C2.92503906 10.04128906 2.92503906 10.04128906 3 11 C2.01 11 1.02 11 0 11 C-0.66 7.7 -1.32 4.4 -2 1 C-1.34 0.67 -0.68 0.34 0 0 Z " fill="#000000" transform="translate(530,131)"/>
<path d="M0 0 C1.32 0.33 2.64 0.66 4 1 C4.33 3.97 4.66 6.94 5 10 C4.01 10 3.02 10 2 10 C1.34 6.7 0.68 3.4 0 0 Z " fill="#000000" transform="translate(323,123)"/>
<path d="M0 0 C0.99 0.33 1.98 0.66 3 1 C2.60348083 2.31872662 2.18201309 3.62997101 1.75 4.9375 C1.40195312 6.03384766 1.40195312 6.03384766 1.046875 7.15234375 C0.52867187 8.06693359 0.52867187 8.06693359 0 9 C-1.32 9.33 -2.64 9.66 -4 10 C-2.68 6.7 -1.36 3.4 0 0 Z " fill="#000000" transform="translate(419,118)"/>
<path d="M0 0 C1.32 0.33 2.64 0.66 4 1 C4.66 3.97 5.32 6.94 6 10 C5.01 10 4.02 10 3 10 C2.01 6.7 1.02 3.4 0 0 Z " fill="#000000" transform="translate(317,104)"/>
<path d="M0 0 C-0.57363911 3.87206399 -2.34105893 6.18465063 -5 9 C-5.99 9 -6.98 9 -8 9 C-6.68994234 5.06982701 -4.75047804 0 0 0 Z " fill="#000000" transform="translate(441,84)"/>
<path d="M0 0 C0.66 0 1.32 0 2 0 C3.20272819 2.40545638 3.10071472 3.94996953 3.0625 6.625 C3.05347656 7.44226563 3.04445313 8.25953125 3.03515625 9.1015625 C3.02355469 9.72804688 3.01195313 10.35453125 3 11 C2.01 11 1.02 11 0 11 C0 7.37 0 3.74 0 0 Z " fill="#000000" transform="translate(101,83)"/>
<path d="M0 0 C1.17539996 0.92652701 2.34010577 1.86663387 3.5 2.8125 C4.1496875 3.33457031 4.799375 3.85664062 5.46875 4.39453125 C7 6 7 6 7 9 C6.01 9 5.02 9 4 9 C1.25 6.1875 1.25 6.1875 -1 3 C-0.67 2.01 -0.34 1.02 0 0 Z " fill="#000000" transform="translate(298,70)"/>
<path d="M0 0 C0.99 0 1.98 0 3 0 C3 3.3 3 6.6 3 10 C2.01 10 1.02 10 0 10 C0 6.7 0 3.4 0 0 Z " fill="#000000" transform="translate(100,63)"/>
<path d="M0 0 C0.99 0 1.98 0 3 0 C2.67 3.3 2.34 6.6 2 10 C1.01 10 0.02 10 -1 10 C-0.67 6.7 -0.34 3.4 0 0 Z " fill="#000000" transform="translate(522,312)"/>
<path d="M0 0 C0.99 0 1.98 0 3 0 C2.34 2.97 1.68 5.94 1 9 C-0.32 9.33 -1.64 9.66 -3 10 C-2.01 6.7 -1.02 3.4 0 0 Z " fill="#000000" transform="translate(371,248)"/>
<path d="M0 0 C0.66 0 1.32 0 2 0 C1.53199289 4.05606165 1.12046792 7.46588679 -1 11 C-1.66 10.67 -2.32 10.34 -3 10 C-2.69201674 8.51988629 -2.378482 7.04092675 -2.0625 5.5625 C-1.88847656 4.73878906 -1.71445312 3.91507813 -1.53515625 3.06640625 C-1 1 -1 1 0 0 Z " fill="#000000" transform="translate(378,229)"/>
<path d="M0 0 C0.99 0 1.98 0 3 0 C3 3.3 3 6.6 3 10 C2.01 10 1.02 10 0 10 C0 6.7 0 3.4 0 0 Z " fill="#000000" transform="translate(533,192)"/>
<path d="M0 0 C0.99 0 1.98 0 3 0 C2.34 2.97 1.68 5.94 1 9 C-0.32 9.33 -1.64 9.66 -3 10 C-2.01 6.7 -1.02 3.4 0 0 Z " fill="#000000" transform="translate(390,192)"/>
<path d="M0 0 C0.99 0 1.98 0 3 0 C3.33 3.63 3.66 7.26 4 11 C3.01 11 2.02 11 1 11 C0.67 7.37 0.34 3.74 0 0 Z " fill="#000000" transform="translate(103,183)"/>
<path d="M0 0 C0.66 0.33 1.32 0.66 2 1 C2.4140625 3.28515625 2.4140625 3.28515625 2.625 6.0625 C2.69976562 6.98160156 2.77453125 7.90070313 2.8515625 8.84765625 C2.92503906 9.91306641 2.92503906 9.91306641 3 11 C2.01 11 1.02 11 0 11 C-1.62651522 7.74696956 -1.11453156 4.60774398 -1 1 C-0.67 0.67 -0.34 0.34 0 0 Z " fill="#000000" transform="translate(332,161)"/>
<path d="M0 0 C0.99 0.33 1.98 0.66 3 1 C2.01 3.97 1.02 6.94 0 10 C-0.99 10 -1.98 10 -3 10 C-2.69201674 8.51988629 -2.378482 7.04092675 -2.0625 5.5625 C-1.88847656 4.73878906 -1.71445313 3.91507813 -1.53515625 3.06640625 C-1 1 -1 1 0 0 Z " fill="#000000" transform="translate(192,160)"/>
<path d="M0 0 C0.99 0 1.98 0 3 0 C3 3.63 3 7.26 3 11 C2.34 11 1.68 11 1 11 C-0.28317892 7.15046324 -0.06643637 4.05261865 0 0 Z " fill="#000000" transform="translate(102,143)"/>
<path d="M0 0 C1.48484412 0.39595843 2.9628831 0.81750706 4.4375 1.25 C5.26121094 1.48203125 6.08492188 1.7140625 6.93359375 1.953125 C7.61550781 2.29859375 8.29742187 2.6440625 9 3 C9.33 4.32 9.66 5.64 10 7 C5.05 5.02 5.05 5.02 0 3 C0 2.01 0 1.02 0 0 Z " fill="#000000" transform="translate(280,60)"/>
<path d="M0 0 C0 0.99 0 1.98 0 3 C-3.3 3.33 -6.6 3.66 -10 4 C-10.33 3.01 -10.66 2.02 -11 1 C-7.26562152 0.12132271 -3.83225427 -0.08912219 0 0 Z " fill="#000000" transform="translate(271,58)"/>
<path d="M0 0 C0.66 0 1.32 0 2 0 C2.33 3.63 2.66 7.26 3 11 C2.01 11 1.02 11 0 11 C-0.19406478 9.35492782 -0.38007935 7.70890406 -0.5625 6.0625 C-0.66691406 5.14597656 -0.77132812 4.22945313 -0.87890625 3.28515625 C-0.91886719 2.53105469 -0.95882812 1.77695312 -1 1 C-0.67 0.67 -0.34 0.34 0 0 Z " fill="#000000" transform="translate(111,423)"/>
<path d="M0 0 C0.99 0 1.98 0 3 0 C3 3.63 3 7.26 3 11 C2.34 11 1.68 11 1 11 C-0.17571451 7.32589215 -0.07366746 3.83070817 0 0 Z " fill="#000000" transform="translate(106,283)"/>
<path d="M0 0 C0.99 0 1.98 0 3 0 C2.67 3.63 2.34 7.26 2 11 C1.01 10.67 0.02 10.34 -1 10 C-0.67 6.7 -0.34 3.4 0 0 Z " fill="#000000" transform="translate(533,212)"/>
<path d="M0 0 C0.66 0 1.32 0 2 0 C2.33 3.63 2.66 7.26 3 11 C2.01 11 1.02 11 0 11 C-0.19406478 9.35492782 -0.38007935 7.70890406 -0.5625 6.0625 C-0.66691406 5.14597656 -0.77132812 4.22945313 -0.87890625 3.28515625 C-0.91886719 2.53105469 -0.95882812 1.77695312 -1 1 C-0.67 0.67 -0.34 0.34 0 0 Z " fill="#000000" transform="translate(108,323)"/>
<path d="M0 0 C0.66 0 1.32 0 2 0 C2 3.63 2 7.26 2 11 C1.01 11 0.02 11 -1 11 C-0.67 7.37 -0.34 3.74 0 0 Z " fill="#000000" transform="translate(335,240)"/>
<path d="M0 0 C0.66 0.33 1.32 0.66 2 1 C0.94124926 4.40312738 -0.00902154 7.01353231 -2 10 C-2.99 9.67 -3.98 9.34 -5 9 C-3.35 6.03 -1.7 3.06 0 0 Z " fill="#000000" transform="translate(428,100)"/>
<path d="M0 0 C0.99 0 1.98 0 3 0 C3 3.3 3 6.6 3 10 C2.34 10 1.68 10 1 10 C0.67 6.7 0.34 3.4 0 0 Z " fill="#000000" transform="translate(334,221)"/>
<path d="M0 0 C1.32 0 2.64 0 4 0 C3.67 1.98 3.34 3.96 3 6 C2.01 5.67 1.02 5.34 0 5 C0 3.35 0 1.7 0 0 Z " fill="#000000" transform="translate(111,444)"/>
<path d="M0 0 C0.99 0 1.98 0 3 0 C2.67 1.98 2.34 3.96 2 6 C1.01 6 0.02 6 -1 6 C-0.67 4.02 -0.34 2.04 0 0 Z " fill="#000000" transform="translate(323,398)"/>
<path d="M0 0 C0.66 0 1.32 0 2 0 C2 1.98 2 3.96 2 6 C1.01 6 0.02 6 -1 6 C-1.042721 4.33388095 -1.04063832 2.66617115 -1 1 C-0.67 0.67 -0.34 0.34 0 0 Z " fill="#000000" transform="translate(693,312)"/>
<path d="M0 0 C0.66 0 1.32 0 2 0 C2.33 1.65 2.66 3.3 3 5 C2.01 5 1.02 5 0 5 C0 3.35 0 1.7 0 0 Z " fill="#000000" transform="translate(100,48)"/>
<path d="M0 0 C0.99 0.33 1.98 0.66 3 1 C2.67 1.99 2.34 2.98 2 4 C1.01 3.01 0.02 2.02 -1 1 C-0.67 0.67 -0.34 0.34 0 0 Z " fill="#000000" transform="translate(407,342)"/>
<path d="M0 0 C0.99 0.33 1.98 0.66 3 1 C2.67 1.99 2.34 2.98 2 4 C1.01 3.01 0.02 2.02 -1 1 C-0.67 0.67 -0.34 0.34 0 0 Z " fill="#000000" transform="translate(203,300)"/>
<path d="M0 0 C0.99 0.33 1.98 0.66 3 1 C2.67 1.99 2.34 2.98 2 4 C1.01 3.01 0.02 2.02 -1 1 C-0.67 0.67 -0.34 0.34 0 0 Z " fill="#000000" transform="translate(10,223)"/>
</svg>
