<?xml version="1.0" encoding="UTF-8"?>
<svg version="1.1" xmlns="http://www.w3.org/2000/svg" width="441" height="703">
<path d="M0 0 C14.06708957 11.99839993 18.84403347 37.63959885 20.3984375 55.1328125 C26.54827938 136.98405165 -11.89585277 211.65240681 -56.36132812 277.53100586 C-57.09673828 278.62292236 -57.83214844 279.71483887 -58.58984375 280.83984375 C-59.24847412 281.81300537 -59.90710449 282.78616699 -60.58569336 283.78881836 C-62.08980401 285.70293599 -62.08980401 285.70293599 -62 287 C-60.38158203 285.87464844 -60.38158203 285.87464844 -58.73046875 284.7265625 C-36.02404244 269.13910147 -10.53877134 254.21530039 18.13671875 258.46484375 C32.50850983 261.63978845 44.57546584 268.99245321 52.8125 281.3125 C67.17727695 305.64812212 66.18136864 332.89160843 63 360 C62.89768066 360.93585938 62.79536133 361.87171875 62.68994141 362.8359375 C57.63467396 407.44923942 40.87433436 451.97508613 26.5625 494.3125 C9.79769704 535.33625736 9.79769704 535.33625736 10.0234375 577.40234375 C10.50683594 578.19318359 10.50683594 578.19318359 11 579 C32.15927813 575.27968736 50.02041298 559.61204761 65 545 C65.87084229 544.15187744 65.87084229 544.15187744 66.75927734 543.28662109 C72.84652363 537.33139125 78.85781725 531.35940481 84.36328125 524.85546875 C87.03172865 521.83037922 89.94197275 519.05048634 92.8125 516.21875 C94.79720342 514.20569368 96.66096916 512.14553597 98.5 510 C101.74218252 506.21745373 105.23368283 502.74467072 108.78515625 499.25390625 C111.54815452 496.44217785 114.08295154 493.47386728 116.58984375 490.43359375 C117.05519531 489.96050781 117.52054687 489.48742187 118 489 C118.66 489 119.32 489 120 489 C120.18617991 498.1973824 120.32791604 507.39410651 120.41449738 516.59296894 C120.45607412 520.86547688 120.51237159 525.13668646 120.60351562 529.40844727 C120.69108181 533.53884121 120.73840552 537.66799462 120.75901794 541.79924583 C120.77368696 543.36731667 120.80233195 544.93532718 120.84584045 546.50286293 C121.09519824 555.86778954 120.36526262 562.3311739 114.07043457 569.82511902 C113.38719116 570.54282974 112.70394775 571.26054047 112 572 C111.04377747 573.00541588 111.04377747 573.00541588 110.0682373 574.03114319 C108.95474398 575.16212992 107.82146711 576.27388972 106.671875 577.36816406 C105.06016968 578.9412713 103.63271329 580.57097176 102.1875 582.296875 C96.92928896 588.35121629 91.19772225 593.95116917 85.52124023 599.60913086 C83.56704376 601.5579687 81.61824853 603.51209272 79.66992188 605.46679688 C74.14776723 610.99190523 68.65140077 616.49101832 62.69360352 621.55151367 C59.76402918 624.05708734 56.99143267 626.73084133 54.1875 629.375 C48.3215763 634.85188915 42.29905578 640.02286996 36 645 C34.62605673 646.11558331 33.25237987 647.23149477 31.87890625 648.34765625 C11.79607857 664.51875534 -17.10285579 682.73915119 -43.6875 682.5 C-44.46005127 682.49355469 -45.23260254 682.48710938 -46.02856445 682.48046875 C-64.20455274 681.91311066 -81.35170686 671.35005767 -95 660 C-95.73863281 659.38769531 -96.47726563 658.77539062 -97.23828125 658.14453125 C-111.01461743 645.59870277 -117.18399539 625.2251399 -118.22119141 607.14404297 C-118.36564764 602.84600306 -118.38546328 598.55011732 -118.375 594.25 C-118.37518127 593.10097702 -118.37518127 593.10097702 -118.37536621 591.92874146 C-118.34488857 578.29300867 -116.92701232 565.33615203 -114 552 C-113.67236014 550.42464885 -113.34550318 548.84913462 -113.01953125 547.2734375 C-112.23883457 543.57864727 -111.38905026 539.90356119 -110.51660156 536.22949219 C-109.98905973 533.95278517 -109.50339166 531.66998967 -109.0234375 529.3828125 C-106.67915558 518.51098643 -103.54868608 507.92765935 -100.0625 497.375 C-99.82979401 496.67037628 -99.59708801 495.96575256 -99.35733032 495.23977661 C-96.73649893 487.3726129 -93.93470874 479.63794442 -90.62890625 472.03125 C-80.36527305 448.26867257 -74.44365025 424.01372953 -68.96452332 398.73806763 C-67.69119237 392.89400275 -66.25862634 387.13791625 -64.59188843 381.39274597 C-63.73407634 377.92498699 -63.70642345 374.88374399 -63.8125 371.3125 C-63.83957031 370.11238281 -63.86664063 368.91226562 -63.89453125 367.67578125 C-63.92933594 366.79277344 -63.96414063 365.90976562 -64 365 C-77.26370977 363.72464329 -88.13021474 372.1192172 -98 380 C-101.43930115 382.89441187 -104.72604405 385.92104456 -108 389 C-109.48532096 390.346691 -110.97069106 391.69332943 -112.45776367 393.03808594 C-120.38648861 400.23255346 -128.09418363 407.61864529 -135.046875 415.7734375 C-137.0112324 418.01280494 -139.05079802 420.16922263 -141.10400391 422.3269043 C-146.31797037 427.84801774 -151.27120753 433.55774856 -156 439.5 C-156.53963379 440.150896 -157.07926758 440.80179199 -157.63525391 441.47241211 C-165.06560494 451.02855876 -166.65134096 462.96925409 -168.0625 474.6875 C-168.14304626 475.33594879 -168.22359253 475.98439758 -168.30657959 476.65249634 C-170.65690527 495.69777675 -171.88180441 514.84930412 -173 534 C-173.0485614 534.82943115 -173.0971228 535.6588623 -173.14715576 536.51342773 C-175.38635037 575.29778596 -176.04914129 614.16761766 -177 653 C-189.67416531 656.5878474 -202.39484583 659.93193385 -215.17578125 663.1171875 C-216.54831086 663.45970739 -216.54831086 663.45970739 -217.94856834 663.80914688 C-222.76469138 665.01053905 -227.58160567 666.20869777 -232.39916992 667.40429688 C-237.35976385 668.63617804 -242.3171959 669.88034355 -247.27409077 671.12701225 C-251.11133511 672.08963397 -254.95084568 673.04295613 -258.79103661 673.99374771 C-260.62154378 674.44872376 -262.45117156 674.90725358 -264.27987099 675.36944199 C-266.8226665 676.01125369 -269.36840129 676.63976966 -271.9152832 677.26513672 C-273.03811958 677.55329506 -273.03811958 677.55329506 -274.18363953 677.84727478 C-278.11491415 678.79666307 -281.09776075 679.19026879 -285 678 C-287.01969918 664.72202135 -289.02808919 651.44767348 -290.1875 638.0625 C-290.25888184 637.25159912 -290.33026367 636.44069824 -290.40380859 635.60522461 C-291.92455316 616.69533661 -292.20463447 597.77465053 -292.1875 578.8125 C-292.18689575 577.56678223 -292.1862915 576.32106445 -292.18566895 575.03759766 C-292.11609689 521.78951961 -287.88834529 468.68195095 -281.35101318 415.85040283 C-280.99580088 412.96590108 -280.64928353 410.08043671 -280.30322266 407.19482422 C-276.57582804 376.48988023 -270.1523849 346.99126618 -261.88720703 317.20019531 C-260.99735021 313.99044209 -260.11518378 310.77865299 -259.234375 307.56640625 C-248.29878846 267.79094609 -235.61285934 229.18000482 -220 191 C-219.53113373 189.85084106 -219.53113373 189.85084106 -219.05279541 188.6784668 C-204.38036869 152.73068823 -189.01607781 117.26435578 -170.67553711 83.00976562 C-168.40045188 78.74403874 -166.23374746 74.44407338 -164.1484375 70.08203125 C-163.6652002 69.08075195 -163.18196289 68.07947266 -162.68408203 67.04785156 C-161.75185418 65.1072179 -160.83277883 63.16019175 -159.92919922 61.20605469 C-155.11663814 51.23079546 -147.28544645 48.56597243 -137.5625 44.125 C-136.32222928 43.5551064 -135.08207887 42.98495089 -133.84204102 42.41455078 C-130.56259384 40.90816511 -127.27972644 39.4093684 -123.99621582 37.91186523 C-122.02711216 37.01238475 -120.05966595 36.10938234 -118.09277344 35.20507812 C-17.56089111 -11.00003774 -17.56089111 -11.00003774 0 0 Z M-23.6015625 3.87890625 C-24.2231424 4.08195877 -24.84472229 4.28501129 -25.48513794 4.49421692 C-27.53638563 5.17057264 -29.58089477 5.86487475 -31.625 6.5625 C-32.33885864 6.80309143 -33.05271729 7.04368286 -33.78820801 7.29156494 C-60.52222983 16.32851086 -86.55208709 27.42121523 -112.16162109 39.24316406 C-115.69675827 40.86920435 -119.25073835 42.45106736 -122.80708313 44.03007507 C-125.94597775 45.42925755 -129.07518316 46.84925764 -132.20278931 48.27346802 C-133.71624559 48.95800666 -135.23327246 49.63471337 -136.7539978 50.302948 C-138.87805421 51.23848061 -140.98637973 52.20335406 -143.09375 53.17578125 C-143.71949417 53.44317108 -144.34523834 53.71056091 -144.98994446 53.98605347 C-150.31848475 56.50831896 -152.37605141 59.97786952 -155 65 C-155.46632843 65.88653763 -155.93265686 66.77307526 -156.41311646 67.68647766 C-158.00974539 70.78719117 -159.56541808 73.90591787 -161.11328125 77.03125 C-161.68652634 78.18057007 -162.25977142 79.32989014 -162.85038757 80.51403809 C-164.36821707 83.55727823 -165.88124181 86.60288164 -167.39318848 89.64904785 C-168.90707848 92.697131 -170.42533315 95.74303776 -171.94335938 98.7890625 C-173.71037395 102.33481184 -175.47589109 105.8812883 -177.23727417 109.42984009 C-181.93911802 118.9022168 -181.93911802 118.9022168 -184.29541016 123.48974609 C-190.00601978 134.62925154 -194.88794623 146.09405987 -199.75 157.625 C-200.18853302 158.66112427 -200.62706604 159.69724854 -201.07888794 160.76477051 C-208.27127701 177.75851568 -215.36476784 194.77972249 -222 212 C-222.25827576 212.66890259 -222.51655151 213.33780518 -222.78265381 214.02697754 C-236.74126021 250.2189084 -247.42917035 287.0397955 -257.44015503 324.49620056 C-259.07268236 330.59399135 -260.74590349 336.67609807 -262.4921875 342.7421875 C-269.00494137 365.75553791 -272.02044901 389.31564157 -275 413 C-275.13577454 414.07926758 -275.27154907 415.15853516 -275.41143799 416.27050781 C-278.73667392 442.9160244 -281.37184964 469.59301177 -283.3125 496.375 C-283.39390228 497.49665558 -283.47530457 498.61831116 -283.55917358 499.7739563 C-285.30603993 524.19784845 -286.18903792 548.53613165 -286.18530273 573.02416992 C-286.18522181 575.70392658 -286.19213516 578.383511 -286.20581055 581.06323242 C-286.32711585 606.80673797 -285.38310766 632.40627202 -281.875 657.9375 C-281.69047486 659.3377682 -281.50688713 660.73816024 -281.32421875 662.13867188 C-280.89183018 665.42710075 -280.4507241 668.7140442 -280 672 C-269.64696076 670.36882234 -259.53018382 667.76556262 -249.3671875 665.24609375 C-247.47963123 664.78033016 -245.59202665 664.31476231 -243.70437622 663.84938049 C-239.7720953 662.87908653 -235.84042677 661.90635871 -231.90917969 660.93188477 C-226.8606526 659.68068486 -221.81059441 658.43579229 -216.76006889 657.19268703 C-212.87341647 656.23530411 -208.98759651 655.27457816 -205.10202408 654.31282234 C-203.23866881 653.85204972 -201.37504914 653.39234499 -199.51116562 652.93371391 C-196.92048382 652.29572933 -194.33095888 651.65324969 -191.74169922 651.00952148 C-190.58079521 650.72507927 -190.58079521 650.72507927 -189.3964386 650.43489075 C-185.91077116 649.79262839 -185.91077116 649.79262839 -183 648 C-182.83053844 645.41026679 -182.72463833 642.84360485 -182.65869141 640.25048828 C-182.63403274 639.43393202 -182.60937407 638.61737576 -182.58396816 637.77607536 C-182.53051198 635.98711109 -182.4792797 634.19807936 -182.42994881 632.40899658 C-182.35071913 629.53977057 -182.26570487 626.67076898 -182.17906189 623.80175781 C-182.05569613 619.7067781 -181.93436574 615.61174575 -181.81448364 611.5166626 C-179.29487066 525.96608425 -179.29487066 525.96608425 -175.0625 483.9375 C-174.98895294 483.18752747 -174.91540588 482.43755493 -174.83963013 481.66485596 C-174.01619143 473.44888786 -172.8033816 465.38864625 -171.0703125 457.3125 C-170.91438126 456.56898788 -170.75845001 455.82547577 -170.59779358 455.05943298 C-169.09300385 448.41394643 -166.22239735 443.34670434 -162 438 C-161.29488281 437.08992188 -160.58976562 436.17984375 -159.86328125 435.2421875 C-155.55494564 429.8436099 -150.99536365 424.67883648 -146.3359375 419.58203125 C-145.09577076 418.21121149 -143.86043049 416.83525385 -142.66552734 415.42480469 C-137.03831595 408.81764277 -130.91951987 402.69802172 -124.79589844 396.55566406 C-122.89307096 394.64316283 -121.00122712 392.72022518 -119.109375 390.796875 C-105.53485549 377.10332535 -88.34073778 360.63407378 -68.25 358.625 C-64.6774054 359.03722245 -62.83203087 359.81529047 -60 362 C-56.04473024 367.93290464 -57.27641353 376.03162883 -58.51342773 382.8157959 C-60.18217696 390.56257322 -62.22359671 398.21573595 -64.25 405.875 C-64.84414331 408.16753003 -65.43660235 410.46049726 -66.02734375 412.75390625 C-66.8903133 416.10399886 -67.75546227 419.45336312 -68.63150024 422.80006409 C-70.056238 428.25313588 -71.41207154 433.70774955 -72.63082886 439.21043396 C-74.38351528 447.1097945 -76.88869404 454.3906793 -80.125 461.8125 C-92.22720283 490.61541631 -101.51127259 519.76320019 -107.48876953 550.42919922 C-107.93229334 552.6595267 -108.40510732 554.87882957 -108.90234375 557.09765625 C-110.47919758 564.30725163 -111.47105632 571.47521717 -112.1875 578.8125 C-112.27153076 579.67254639 -112.35556152 580.53259277 -112.44213867 581.41870117 C-114.52098157 604.78489532 -111.68565917 629.88889324 -97.375 649.1875 C-85.84724183 662.80330493 -65.97168794 674.52031004 -48.1640625 676.40625 C-38.35888875 676.94998602 -30.0782685 674.71344616 -21 671 C-20.23719727 670.69465332 -19.47439453 670.38930664 -18.68847656 670.07470703 C-13.07873209 667.81976555 -7.53100967 665.4408254 -2 663 C-0.906875 662.52949219 0.18625 662.05898438 1.3125 661.57421875 C14.54284933 655.48034861 25.93763576 645.32063029 37 636 C37.5170752 635.5678418 38.03415039 635.13568359 38.56689453 634.69042969 C54.32403153 621.5029467 68.99931374 607.1874652 83.52075195 592.66455078 C85.95439627 590.23311909 88.39598862 587.80985377 90.83789062 585.38671875 C98.68312851 577.56867527 106.24169642 569.79282615 113 561 C113.33 560.67 113.66 560.34 114 560 C114.09370624 558.22008076 114.11744271 556.43643261 114.11352539 554.65405273 C114.11341209 552.94239174 114.11341209 552.94239174 114.11329651 551.19615173 C114.10813522 549.9545076 114.10297394 548.71286346 114.09765625 547.43359375 C114.0962413 546.16983414 114.09482635 544.90607452 114.09336853 543.60401917 C114.08870582 540.23875111 114.0797148 536.8735501 114.06866455 533.50830078 C114.05844846 530.0765033 114.05387049 526.64469891 114.04882812 523.21289062 C114.0377738 516.47524176 114.0210171 509.73762475 114 503 C112.87150635 504.1295813 112.87150635 504.1295813 111.72021484 505.28198242 C109.64426011 507.35626029 107.56353591 509.42512623 105.4765625 511.48828125 C96.77563433 520.0866729 96.77563433 520.0866729 88.6015625 529.1796875 C85.94381947 532.20043933 83.03726759 534.97084551 80.171875 537.79296875 C78.25947708 539.73632275 76.49795836 541.7227379 74.75 543.8125 C59.60473326 561.36565476 34.82916015 583.14709966 11 585 C8.0625 584.625 8.0625 584.625 6 583 C-3.50004245 565.96544112 6.75405746 538.78447064 11.53564453 521.58789062 C14.37508983 511.71617427 17.69714417 502.03501093 21.11096191 492.34945679 C26.41753755 477.23483138 31.07180938 461.92786457 35.66339874 446.58452225 C36.23756 444.66655542 36.81319127 442.74902886 37.38885498 440.83151245 C39.9666781 432.23273271 42.50288273 423.62256031 45 415 C45.55024338 413.10273666 45.55024338 413.10273666 46.11160278 411.16714478 C50.19994778 397.01531264 54.02609711 383.05714913 55.9375 368.4375 C56.13182542 367.0811445 56.32780274 365.7250247 56.52539062 364.36914062 C60.40395212 337.2536808 62.86296716 305.43554097 46 282 C37.53538533 271.98252437 27.93531412 266.1783763 15 264 C-17.14900704 261.40596636 -45.09342312 280.86128917 -68.53417969 300.62060547 C-73.91978722 305.20480031 -79.11229273 309.87954476 -84 315 C-85.32 314.34 -86.64 313.68 -88 313 C-85.26324227 307.98687369 -82.24252087 303.50942781 -78.75 299 C-66.4890952 282.8706711 -55.15003872 266.15451766 -44.69335938 248.80419922 C-42.85453695 245.75911352 -40.99786201 242.72529217 -39.140625 239.69140625 C-32.63994664 229.0271829 -26.22965879 218.39799059 -20.95996094 207.06445312 C-20.28568828 205.61438965 -19.60331905 204.16807685 -18.91503906 202.72460938 C-6.84245971 177.39766231 3.72754421 151.39624175 10 124 C10.17708496 123.25621094 10.35416992 122.51242188 10.53662109 121.74609375 C18.44015867 88.02000122 18.08556424 49.3116601 4.5 17.1875 C4.22776611 16.53555664 3.95553223 15.88361328 3.67504883 15.21191406 C1.25867356 9.81569745 -1.89837011 6.32494058 -6.875 3.1875 C-12.72109186 0.96598509 -17.79698621 1.96889656 -23.6015625 3.87890625 Z " fill="#000000" transform="translate(321,21)"/>
<path d="M0 0 C4.19779911 3.17167044 5.72768772 5.9780097 7 11 C12.62858129 70.79356967 -20.90652924 131.0088716 -48.98828125 181.53125 C-51.22770317 185.56624445 -53.39804419 189.63274069 -55.54296875 193.71875 C-63.18410091 208.26118119 -71.29596062 222.35516119 -80.18994141 236.18115234 C-81.93587576 238.90013778 -83.6643636 241.62931243 -85.38671875 244.36328125 C-95.06435894 259.70132188 -105.03132543 274.85030111 -115 290 C-116.98 289.67 -118.96 289.34 -121 289 C-120.38401367 282.78760725 -119.06886723 277.04752506 -117.359375 271.05078125 C-116.94787453 269.58473953 -116.94787453 269.58473953 -116.52806091 268.08908081 C-115.60928728 264.82812126 -114.68038675 261.57016402 -113.75 258.3125 C-113.4278653 257.17817535 -113.10573059 256.04385071 -112.77383423 254.87515259 C-106.81289786 233.90823129 -100.54431062 213.03725132 -94.1875 192.1875 C-93.96950241 191.47234348 -93.75150482 190.75718697 -93.52690125 190.02035904 C-90.99938146 181.73180717 -88.45921485 173.44723272 -85.90217876 165.16773796 C-84.59966783 160.94950629 -83.30449857 156.72909911 -82.01396656 152.50718784 C-81.1360836 149.63998438 -80.25269456 146.77449641 -79.36805153 143.90937233 C-78.95592168 142.57101623 -78.54584504 141.23202557 -78.1381588 139.89230919 C-74.44729217 127.77326097 -69.88050923 116.13664776 -64.765625 104.5546875 C-64.16716799 103.19505287 -63.56887001 101.83534823 -62.97070312 100.47558594 C-62.65544678 99.7607605 -62.34019043 99.04593506 -62.01538086 98.30944824 C-60.91225975 95.80043788 -59.81765706 93.28782881 -58.72460938 90.77441406 C-56.26382369 85.11608071 -53.79022491 79.46343327 -51.3125 73.8125 C-50.92289093 72.92146576 -50.53328186 72.03043152 -50.13186646 71.11239624 C-45.87962685 61.40637026 -41.49249661 51.78794963 -36.76953125 42.30078125 C-36.17885612 41.11135674 -36.17885612 41.11135674 -35.57624817 39.89790344 C-14.16524914 -2.57549984 -14.16524914 -2.57549984 0 0 Z M-8.625 9.125 C-14.05293633 14.79065617 -18.01904511 21.2911995 -22 28 C-22.37850098 28.63067383 -22.75700195 29.26134766 -23.14697266 29.91113281 C-35.36230964 50.45440373 -44.68169902 72.71300404 -54.14746094 94.61669922 C-54.90562347 96.37102249 -55.66577375 98.12448851 -56.42822266 99.87695312 C-67.56170082 125.52131357 -75.92878072 151.92243282 -83.96974564 178.65760803 C-84.75791022 181.27628168 -85.54826224 183.89428543 -86.33932495 186.51208496 C-89.91198525 198.33569141 -93.46441511 210.16525597 -97 222 C-97.20927376 222.70020264 -97.41854752 223.40040527 -97.6341629 224.12182617 C-99.85186585 231.5438887 -102.05709756 238.96944335 -104.23034668 246.40466309 C-104.78143055 248.28895439 -105.33502687 250.17251287 -105.89123535 252.05529785 C-106.63569508 254.58123744 -107.36877275 257.11015413 -108.09765625 259.640625 C-108.3109407 260.35855225 -108.52422516 261.07647949 -108.74397278 261.81616211 C-109.67799381 265.1127009 -110.110116 266.66965199 -109 270 C-105.89276944 265.14989668 -102.78555658 260.29978367 -99.68286133 255.44677734 C-99.31579575 254.87265106 -98.94873016 254.29852478 -98.57054138 253.70700073 C-97.8183718 252.53052222 -97.06622568 251.35402872 -96.31410217 250.17752075 C-93.95181875 246.48377314 -91.58163794 242.79521869 -89.20703125 239.109375 C-77.67772119 221.17735249 -67.27809178 202.81479588 -57.33544922 183.96826172 C-53.69265139 177.06355029 -50.0250665 170.17833636 -46.24755859 163.34594727 C-26.81954502 128.20166888 -10.34309435 92.43580936 -2 53 C-1.7522583 51.86449707 -1.7522583 51.86449707 -1.49951172 50.70605469 C0.48804157 41.38695788 1.28709991 32.28077434 1.375 22.75 C1.38893799 21.77305176 1.40287598 20.79610352 1.41723633 19.78955078 C1.3812856 14.42495503 0.95820603 10.66426136 -2 6 C-5.66978352 6 -6.07605673 6.61801464 -8.625 9.125 Z " fill="#000000" transform="translate(285,90)"/>
<path d="M0 0 C1.20785156 -0.020625 2.41570312 -0.04125 3.66015625 -0.0625 C19.47321313 -0.13058636 33.9342352 4.22003204 45.61328125 15.3359375 C65.46322104 36.90239093 66.41381112 66.53720013 65.375 94.25 C61.36960503 153.99042114 36.79742835 215.52623244 4.375 265.25 C3.385 264.92 2.395 264.59 1.375 264.25 C4.0757338 259.26571892 6.78113136 254.28643811 9.578125 249.35546875 C41.34274966 193.21790514 75.63252031 113.78394568 58.375 48.25 C57.95734375 46.65478516 57.95734375 46.65478516 57.53125 45.02734375 C53.03349815 30.00252615 45.09011783 17.25279603 31.1484375 9.53125 C5.10742633 -2.49896361 -24.65042215 4.68305135 -50.375 13.875 C-85.61125863 26.88324474 -123.08874091 45.73710232 -152.77685547 68.93115234 C-154.625 70.25 -154.625 70.25 -156.625 70.25 C-156.89562256 71.10424561 -157.16624512 71.95849121 -157.44506836 72.83862305 C-158.63210557 76.27054337 -160.01312288 79.52129993 -161.50390625 82.83203125 C-162.09264716 84.14766092 -162.68109276 85.46342276 -163.26928711 86.77929688 C-163.73647659 87.82138306 -163.73647659 87.82138306 -164.21310425 88.88452148 C-202.69831168 174.90701776 -234.13460496 264.37292117 -291.625 539.25 C-291.7192627 540.53688721 -291.81352539 541.82377441 -291.91064453 543.1496582 C-292.71163653 554.86509949 -292.86673648 566.57247526 -292.875 578.3125 C-292.87600708 579.31490723 -292.87701416 580.31731445 -292.87805176 581.35009766 C-292.85935685 609.0581491 -290.4573089 636.22002113 -283.99438477 663.22680664 C-283.625 665.25 -283.625 665.25 -283.625 669.25 C-282.965 669.25 -282.305 669.25 -281.625 669.25 C-281.295 667.93 -280.965 666.61 -280.625 665.25 C-279.635 665.25 -278.645 665.25 -277.625 665.25 C-278.19045837 669.20820859 -279.43402348 671.9159053 -281.625 675.25 C-286.0140815 674.73964169 -288.96208062 673.72785723 -292.625 671.25 C-292.295 670.26 -291.965 669.27 -291.625 668.25 C-289.975 668.91 -288.325 669.57 -286.625 670.25 C-286.79104736 669.50242432 -286.95709473 668.75484863 -287.12817383 667.98461914 C-290.04733413 654.71524841 -292.84088487 641.50368362 -294.4375 628 C-294.54876221 627.06422119 -294.66002441 626.12844238 -294.7746582 625.16430664 C-296.41661947 610.18059497 -296.83217759 595.18564695 -296.8125 580.125 C-296.81189575 579.25838745 -296.8112915 578.3917749 -296.81066895 577.49890137 C-296.7797945 561.01721649 -296.10594144 544.67236176 -294.625 528.25 C-294.56654907 527.58963745 -294.50809814 526.9292749 -294.44787598 526.24890137 C-285.60898574 427.02119821 -258.12540571 329.56743651 -173.04882812 99.56494141 C-171.78688153 96.62689086 -170.5693638 93.67462304 -169.37333679 90.70921326 C-168.61458043 88.8370626 -167.84173058 86.9714011 -167.0637207 85.10717773 C-166.09946333 82.79023145 -165.15838391 80.4634261 -164.24682617 78.12524414 C-160.72573787 69.81772637 -156.23657041 65.906892 -148.625 61.25 C-147.71290771 60.65300293 -146.80081543 60.05600586 -145.86108398 59.44091797 C-143.05513573 57.60912245 -140.2222597 55.82932952 -137.375 54.0625 C-135.82244507 53.09703247 -135.82244507 53.09703247 -134.23852539 52.11206055 C-123.54096442 45.5085377 -112.65785531 39.27409753 -101.625 33.25 C-100.68301758 32.73308594 -99.74103516 32.21617188 -98.77050781 31.68359375 C-68.54753337 15.19269898 -34.97148206 0.14647741 0 0 Z " fill="#000000" transform="translate(296.625,0.75)"/>
<path d="M0 0 C25.93414309 0.6283603 53.60825595 14.09191949 71.4453125 32.52734375 C82.72665734 45.54869262 88.10593104 60.17680236 88.4375 77.25 C88.45997803 77.96309326 88.48245605 78.67618652 88.50561523 79.41088867 C88.44596245 93.38034793 83.08633458 107.46557872 78.6328125 120.5546875 C78.11579429 122.09336864 77.5995068 123.63229548 77.08389282 125.17144775 C75.99874759 128.40644798 74.90917439 131.63990465 73.8157959 134.87213135 C72.09715542 139.95350471 70.38969202 145.0385883 68.68457031 150.12451172 C68.11340501 151.82791194 67.54223803 153.5313116 66.97106934 155.23471069 C66.69037094 156.07191021 66.40967255 156.90910973 66.12046814 157.77167892 C65.27719917 160.28566059 64.43299092 162.79932497 63.58850098 165.31289673 C59.58497715 177.23174074 55.62664972 189.16420531 51.75 201.125 C51.49658844 201.90605103 51.24317688 202.68710205 50.98208618 203.49182129 C49.32767883 208.59351568 47.6792807 213.6971381 46.03240967 218.80126953 C44.83380652 222.51491978 43.63404041 226.22819375 42.43408203 229.94140625 C42.2055057 230.64874468 41.97692936 231.35608311 41.74142647 232.08485603 C41.26752523 233.55135444 40.79362089 235.01785185 40.31971359 236.4843483 C36.0089616 249.8235887 36.0089616 249.8235887 31.70234776 263.1641655 C30.81109979 265.92647804 29.91956059 268.68869655 29.02801323 271.45091248 C28.41314596 273.35637582 27.79873654 275.2619869 27.18434143 277.16760254 C26.620933 278.91309387 26.620933 278.91309387 26.04614258 280.69384766 C25.52124741 282.323414 25.52124741 282.323414 24.98574829 283.98590088 C23.88305051 287.35759368 22.72839801 290.70928054 21.53837585 294.05111694 C20.12976271 299.15019831 20.45851533 303.62167538 22.375 308.5 C23.75861732 311.09022556 23.75861732 311.09022556 26 312 C31.21621904 312.5770817 34.31370775 311.06396707 38.5 308.1875 C39.10529541 307.78297607 39.71059082 307.37845215 40.33422852 306.96166992 C59.46454299 293.97482037 76.35533265 278.24633547 90.3125 259.8125 C90.81676514 259.14686035 91.32103027 258.4812207 91.84057617 257.79541016 C94.90137393 253.67988841 97.54167862 249.5020565 100 245 C98.35 245.66 96.7 246.32 95 247 C95 245.68 95 244.36 95 243 C101.625 240 101.625 240 105 240 C106.32 243.3 107.64 246.6 109 250 C107.68 250 106.36 250 105 250 C104.34 249.01 103.68 248.02 103 247 C102.68289063 247.57105469 102.36578125 248.14210938 102.0390625 248.73046875 C94.67263896 261.53013839 85.18738054 272.39863854 75 283 C74.14277344 283.89847656 73.28554688 284.79695313 72.40234375 285.72265625 C64.52260602 293.80219716 55.89239554 300.72724759 46.75 307.3125 C46.1837793 307.72113281 45.61755859 308.12976563 45.03417969 308.55078125 C32.93028908 317.13289844 32.93028908 317.13289844 25 316 C21.76235574 314.25610331 19.58869664 311.93656284 17.625 308.8125 C15.83984876 300.77931941 17.28613673 293.69664235 19.9375 286.0625 C20.24816406 285.12788437 20.55882812 284.19326874 20.87890625 283.23033142 C21.90600186 280.14893402 22.95326764 277.0747763 24 274 C25.12217499 270.64742763 26.23895476 267.29308557 27.35571289 263.93870544 C28.12268277 261.63649694 28.89141929 259.33487628 29.66186523 257.03382874 C31.99844835 250.049085 34.2839449 243.05123125 36.5 236.02734375 C36.7829744 235.13107269 37.06594879 234.23480164 37.35749817 233.31137085 C37.94033147 231.46433405 38.52303751 229.6172571 39.10562134 227.7701416 C44.89118813 209.44631762 50.91526057 191.2079371 57.01953125 172.98828125 C57.74391299 170.82450742 58.46826793 168.66072463 59.19259644 166.49693298 C62.48504613 156.66477266 65.78238203 146.83433422 69.09747791 137.00978374 C70.49471238 132.86423906 71.88580318 128.71664922 73.27560997 124.56860924 C73.9288349 122.62374136 74.58477217 120.67978199 75.24366188 118.73682594 C82.24225535 98.34044597 82.24225535 98.34044597 84.4375 77 C84.42992676 76.15187744 84.42235352 75.30375488 84.41455078 74.42993164 C83.97493505 57.45980181 76.86275359 43.88259097 65 32 C64.31164062 31.30003906 63.62328125 30.60007812 62.9140625 29.87890625 C56.69955558 23.95317753 49.54655409 19.95255039 42 16 C41.12859375 15.53722656 40.2571875 15.07445312 39.359375 14.59765625 C27.32723421 8.67617816 13.27126014 4.76544286 0 3 C0 2.01 0 1.02 0 0 Z " fill="#000000" transform="translate(326,261)"/>
<path d="M0 0 C3.0625 0.1875 3.0625 0.1875 5.0625 2.1875 C4.90004442 5.92397845 4.47466356 7.71288742 2 10.5625 C1.360625 11.09875 0.72125 11.635 0.0625 12.1875 C1.7125 12.5175 3.3625 12.8475 5.0625 13.1875 C5.0625 13.8475 5.0625 14.5075 5.0625 15.1875 C1.7625 15.1875 -1.5375 15.1875 -4.9375 15.1875 C-2.9375 11.1875 -2.9375 11.1875 -0.8125 8.625 C1.36735538 6.30372611 1.36735538 6.30372611 1.0625 3.1875 C0.4025 3.1875 -0.2575 3.1875 -0.9375 3.1875 C-1.2675 3.8475 -1.5975 4.5075 -1.9375 5.1875 C-2.9275 5.1875 -3.9175 5.1875 -4.9375 5.1875 C-3.82120474 0.24390669 -3.82120474 0.24390669 0 0 Z " fill="#000000" transform="translate(412.9375,419.8125)"/>
<path d="M0 0 C0 4.95 0 9.9 0 15 C-0.99 15 -1.98 15 -3 15 C-3 11.37 -3 7.74 -3 4 C-3.99 4.33 -4.98 4.66 -6 5 C-5.625 3.0625 -5.625 3.0625 -5 1 C-3 0 -3 0 0 0 Z " fill="#000000" transform="translate(400,420)"/>
<path d="M0 0 C0 4.95 0 9.9 0 15 C-0.99 15 -1.98 15 -3 15 C-3 11.37 -3 7.74 -3 4 C-3.99 4.33 -4.98 4.66 -6 5 C-5.625 3.0625 -5.625 3.0625 -5 1 C-3 0 -3 0 0 0 Z " fill="#000000" transform="translate(360,141)"/>
<path d="M0 0 C0 4.95 0 9.9 0 15 C-0.66 15 -1.32 15 -2 15 C-2.33 11.37 -2.66 7.74 -3 4 C-3.99 4.33 -4.98 4.66 -6 5 C-6 4.01 -6 3.02 -6 2 C-3 0 -3 0 0 0 Z " fill="#000000" transform="translate(372,141)"/>
<path d="M0 0 C0.99 0 1.98 0 3 0 C3 0.66 3 1.32 3 2 C3.99 2 4.98 2 6 2 C5.71125 2.556875 5.4225 3.11375 5.125 3.6875 C3.9586747 6.08494645 2.9660119 8.51596939 2 11 C1.01 11 0.02 11 -1 11 C-0.67 7.37 -0.34 3.74 0 0 Z " fill="#000000" transform="translate(92,456)"/>
<path d="M0 0 C0.66 0.33 1.32 0.66 2 1 C0.51218185 4.78717347 -1.61988409 6.77407001 -5 9 C-5.99 8.67 -6.98 8.34 -8 8 C-6.88333826 4.65001479 -6.25305075 4.20659778 -3.4375 2.3125 C-2.79683594 1.87550781 -2.15617187 1.43851562 -1.49609375 0.98828125 C-1.00238281 0.66214844 -0.50867188 0.33601563 0 0 Z " fill="#000000" transform="translate(128,432)"/>
<path d="M0 0 C3.48331435 3.01887244 4.79157144 5.56909529 6 10 C5.01 10.33 4.02 10.66 3 11 C2.16121545 9.71186658 1.32913217 8.41936744 0.5 7.125 C0.0359375 6.40570313 -0.428125 5.68640625 -0.90625 4.9453125 C-2 3 -2 3 -2 1 C-1.34 0.67 -0.68 0.34 0 0 Z " fill="#000000" transform="translate(310,71)"/>
<path d="M0 0 C0.99 0.33 1.98 0.66 3 1 C3 1.66 3 2.32 3 3 C1.03125 4.5078125 1.03125 4.5078125 -1.5 6.125 C-2.3353125 6.66382813 -3.170625 7.20265625 -4.03125 7.7578125 C-4.6809375 8.16773438 -5.330625 8.57765625 -6 9 C-6 5 -6 5 -3.1875 2.1875 C-2.135625 1.465625 -1.08375 0.74375 0 0 Z " fill="#000000" transform="translate(111,445)"/>
<path d="M0 0 C0.99 0.33 1.98 0.66 3 1 C1.65289578 5.04131267 -0.38428334 5.90288434 -4 8 C-4.99 8 -5.98 8 -7 8 C-5.51218185 4.21282653 -3.38011591 2.22592999 0 0 Z " fill="#000000" transform="translate(143,420)"/>
<path d="M0 0 C-3.12621626 3.39417765 -5.56541027 5.6062718 -10 7 C-10 6.01 -10 5.02 -10 4 C-8.57421875 2.578125 -8.57421875 2.578125 -6.6875 1.25 C-6.07261719 0.80140625 -5.45773438 0.3528125 -4.82421875 -0.109375 C-3 -1 -3 -1 0 0 Z " fill="#000000" transform="translate(179,397)"/>
<path d="M0 0 C0.66 0 1.32 0 2 0 C3.3271261 3.9813783 3.06915913 7.85045227 3 12 C2.01 12 1.02 12 0 12 C-0.19401633 10.18818595 -0.38004375 8.37551468 -0.5625 6.5625 C-0.66691406 5.55316406 -0.77132813 4.54382813 -0.87890625 3.50390625 C-0.91886719 2.67761719 -0.95882813 1.85132813 -1 1 C-0.67 0.67 -0.34 0.34 0 0 Z " fill="#000000" transform="translate(335,347)"/>
<path d="M0 0 C0.66 0.33 1.32 0.66 2 1 C1 4 1 4 -1.06640625 5.16796875 C-1.89011719 5.50441406 -2.71382813 5.84085937 -3.5625 6.1875 C-4.38878906 6.53167969 -5.21507812 6.87585938 -6.06640625 7.23046875 C-6.70449219 7.48441406 -7.34257812 7.73835938 -8 8 C-8.33 7.01 -8.66 6.02 -9 5 C-7.54735962 4.1361871 -6.0876837 3.28419546 -4.625 2.4375 C-3.40683594 1.72400391 -3.40683594 1.72400391 -2.1640625 0.99609375 C-1.44992187 0.66738281 -0.73578125 0.33867187 0 0 Z " fill="#000000" transform="translate(262,341)"/>
<path d="M0 0 C0 0.66 0 1.32 0 2 C-1.26839526 2.50615298 -2.53983102 3.00469099 -3.8125 3.5 C-4.87404297 3.91765625 -4.87404297 3.91765625 -5.95703125 4.34375 C-8 5 -8 5 -11 5 C-11 4.01 -11 3.02 -11 2 C-9.73392393 1.46770674 -8.46189588 0.94955456 -7.1875 0.4375 C-6.47980469 0.14746094 -5.77210938 -0.14257812 -5.04296875 -0.44140625 C-3 -1 -3 -1 0 0 Z " fill="#000000" transform="translate(301,326)"/>
<path d="M0 0 C0.99 0.33 1.98 0.66 3 1 C1.8905928 4.48670834 0.73662334 7.77484237 -1 11 C-1.99 11 -2.98 11 -4 11 C-3.39301257 6.87248551 -1.96189209 3.6678852 0 0 Z " fill="#000000" transform="translate(281,226)"/>
<path d="M0 0 C0 0.99 0 1.98 0 3 C-3.63 3.33 -7.26 3.66 -11 4 C-11.33 3.01 -11.66 2.02 -12 1 C-7.93631321 0.22596442 -4.13574827 -0.0984702 0 0 Z " fill="#000000" transform="translate(263,58)"/>
<path d="M0 0 C0.99 0.33 1.98 0.66 3 1 C2.34 4.63 1.68 8.26 1 12 C0.01 11.67 -0.98 11.34 -2 11 C-1.34 7.37 -0.68 3.74 0 0 Z " fill="#000000" transform="translate(278,628)"/>
<path d="M0 0 C0.99 0.33 1.98 0.66 3 1 C2.34 4.63 1.68 8.26 1 12 C0.01 11.67 -0.98 11.34 -2 11 C-1.125 3.375 -1.125 3.375 0 0 Z " fill="#000000" transform="translate(311,467)"/>
<path d="M0 0 C0.99 0 1.98 0 3 0 C2.01 3.63 1.02 7.26 0 11 C-0.99 11 -1.98 11 -3 11 C-2.44894091 7.0507432 -1.61064629 3.65079826 0 0 Z " fill="#000000" transform="translate(327,408)"/>
<path d="M0 0 C0.99 0 1.98 0 3 0 C2.875 1.75 2.875 1.75 2 4 C-0.875 6.3125 -0.875 6.3125 -4 8 C-4.99 7.67 -5.98 7.34 -7 7 C-4.66666667 4.66666667 -2.33333333 2.33333333 0 0 Z " fill="#000000" transform="translate(159,408)"/>
<path d="M0 0 C0.66 0.33 1.32 0.66 2 1 C0.65289578 5.04131267 -1.38428334 5.90288434 -5 8 C-5.99 8 -6.98 8 -8 8 C-6.49776416 3.79373966 -3.71449966 2.26099979 0 0 Z " fill="#000000" transform="translate(193,384)"/>
<path d="M0 0 C0.99 0.33 1.98 0.66 3 1 C0.19195732 3.96404505 -2.18315774 6.44499019 -6 8 C-6 6.68 -6 5.36 -6 4 C-3.1875 1.6875 -3.1875 1.6875 0 0 Z " fill="#000000" transform="translate(209,373)"/>
<path d="M0 0 C0.99 0.33 1.98 0.66 3 1 C1.02 3.97 -0.96 6.94 -3 10 C-3.99 9.67 -4.98 9.34 -6 9 C-4.02 6.03 -2.04 3.06 0 0 Z " fill="#000000" transform="translate(209,350)"/>
<path d="M0 0 C0.99 0.33 1.98 0.66 3 1 C3.125 8.625 3.125 8.625 2 12 C1.01 11.67 0.02 11.34 -1 11 C-0.67 7.37 -0.34 3.74 0 0 Z " fill="#000000" transform="translate(318,110)"/>
<path d="M0 0 C0.66 0.33 1.32 0.66 2 1 C0.6302836 4.99500618 -1.25722422 7.80009492 -4 11 C-4.66 10.67 -5.32 10.34 -6 10 C-4.6302836 6.00499382 -2.74277578 3.19990508 0 0 Z " fill="#000000" transform="translate(202,108)"/>
<path d="M0 0 C0.99 0.33 1.98 0.66 3 1 C1.6062718 5.43458973 -0.60582235 7.87378374 -4 11 C-4.65234375 9.234375 -4.65234375 9.234375 -5 7 C-4.00390625 5.078125 -4.00390625 5.078125 -2.5625 3.25 C-2.08941406 2.63640625 -1.61632812 2.0228125 -1.12890625 1.390625 C-0.75636719 0.93171875 -0.38382813 0.4728125 0 0 Z " fill="#000000" transform="translate(213,91)"/>
<path d="M0 0 C4.12751449 0.60698743 7.3321148 2.03810791 11 4 C10.67 4.99 10.34 5.98 10 7 C6.66666667 5.66666667 3.33333333 4.33333333 0 3 C0 2.01 0 1.02 0 0 Z " fill="#000000" transform="translate(292,60)"/>
<path d="M0 0 C0.99 0.33 1.98 0.66 3 1 C1.6581656 5.02550319 -0.4227573 5.88285636 -4 8 C-4.66 8 -5.32 8 -6 8 C-5.66354211 4.85972637 -4.94763914 3.94901705 -2.625 1.6875 C-1.75875 1.130625 -0.8925 0.57375 0 0 Z " fill="#000000" transform="translate(364,617)"/>
<path d="M0 0 C0.99 0 1.98 0 3 0 C3 3.63 3 7.26 3 11 C2.01 11 1.02 11 0 11 C0 7.37 0 3.74 0 0 Z " fill="#000000" transform="translate(81,610)"/>
<path d="M0 0 C-1.49041773 3.79379058 -3.69062512 5.68343758 -7 8 C-7.66 8 -8.32 8 -9 8 C-8.66410006 4.86493389 -7.97334828 3.974751 -5.625 1.75 C-3 0 -3 0 0 0 Z " fill="#000000" transform="translate(382,605)"/>
<path d="M0 0 C0.99 0.33 1.98 0.66 3 1 C-1 7.57142857 -1 7.57142857 -5 9 C-5 4.61031544 -2.87194899 3.23094261 0 0 Z " fill="#000000" transform="translate(406,577)"/>
<path d="M0 0 C0.99 0 1.98 0 3 0 C3.125 7.625 3.125 7.625 2 11 C1.01 11 0.02 11 -1 11 C-0.67 7.37 -0.34 3.74 0 0 Z " fill="#000000" transform="translate(96,416)"/>
<path d="M0 0 C0.99 0.33 1.98 0.66 3 1 C2.67 4.63 2.34 8.26 2 12 C1.01 11.67 0.02 11.34 -1 11 C-0.67 7.37 -0.34 3.74 0 0 Z " fill="#000000" transform="translate(99,395)"/>
<path d="M0 0 C0.99 0 1.98 0 3 0 C2.85892253 1.45880109 2.71197585 2.91703551 2.5625 4.375 C2.48128906 5.18710937 2.40007812 5.99921875 2.31640625 6.8359375 C2 9 2 9 1 11 C0.01 11 -0.98 11 -2 11 C-1.34 7.37 -0.68 3.74 0 0 Z " fill="#000000" transform="translate(332,388)"/>
<path d="M0 0 C0.99 0 1.98 0 3 0 C1.6062718 4.43458973 -0.60582235 6.87378374 -4 10 C-5 7 -5 7 -4.109375 5.17578125 C-3.66078125 4.56089844 -3.2121875 3.94601562 -2.75 3.3125 C-2.31171875 2.68988281 -1.8734375 2.06726563 -1.421875 1.42578125 C-0.95265625 0.95527344 -0.4834375 0.48476563 0 0 Z " fill="#000000" transform="translate(197,367)"/>
<path d="M0 0 C0.99 0 1.98 0 3 0 C2.85892253 1.45880109 2.71197585 2.91703551 2.5625 4.375 C2.48128906 5.18710937 2.40007812 5.99921875 2.31640625 6.8359375 C2 9 2 9 1 11 C0.01 11 -0.98 11 -2 11 C-1.34 7.37 -0.68 3.74 0 0 Z " fill="#000000" transform="translate(106,355)"/>
<path d="M0 0 C0.99 0 1.98 0 3 0 C2.85892253 1.45880109 2.71197585 2.91703551 2.5625 4.375 C2.48128906 5.18710937 2.40007812 5.99921875 2.31640625 6.8359375 C2 9 2 9 1 11 C0.01 11 -0.98 11 -2 11 C-1.34 7.37 -0.68 3.74 0 0 Z " fill="#000000" transform="translate(110,335)"/>
<path d="M0 0 C0.99 0.33 1.98 0.66 3 1 C1.7508258 4.45925163 0.32472205 7.14693203 -2 10 C-2.99 9.67 -3.98 9.34 -5 9 C-3.35 6.03 -1.7 3.06 0 0 Z " fill="#000000" transform="translate(220,333)"/>
<path d="M0 0 C0.66 0.33 1.32 0.66 2 1 C1.67 1.99 1.34 2.98 1 4 C-1.06640625 4.94921875 -1.06640625 4.94921875 -3.5625 5.6875 C-4.38878906 5.93886719 -5.21507812 6.19023437 -6.06640625 6.44921875 C-6.70449219 6.63097656 -7.34257812 6.81273437 -8 7 C-8 6.01 -8 5.02 -8 4 C-6.71349294 3.30289269 -5.42059335 2.61757124 -4.125 1.9375 C-3.40570313 1.55464844 -2.68640625 1.17179687 -1.9453125 0.77734375 C-1.30335938 0.52082031 -0.66140625 0.26429688 0 0 Z " fill="#000000" transform="translate(280,332)"/>
<path d="M0 0 C3 1 3 1 4.75 3.8125 C5.98589446 6.96403086 6.28222189 7.96929372 5 11 C2.29391583 9.64695791 2.03816953 8.19033456 0.875 5.4375 C0.52179688 4.61121094 0.16859375 3.78492188 -0.1953125 2.93359375 C-0.46085937 2.29550781 -0.72640625 1.65742188 -1 1 C-0.67 0.67 -0.34 0.34 0 0 Z " fill="#000000" transform="translate(328,328)"/>
<path d="M0 0 C-0.33 0.99 -0.66 1.98 -1 3 C-4.3 3 -7.6 3 -11 3 C-11 2.01 -11 1.02 -11 0 C-7.01803543 -1.05404945 -4.01804691 -0.84098656 0 0 Z " fill="#000000" transform="translate(321,322)"/>
<path d="M0 0 C0.99 0 1.98 0 3 0 C1.84414715 3.91211733 0.64465038 6.8745041 -2 10 C-2.99 9.67 -3.98 9.34 -5 9 C-3.35 6.03 -1.7 3.06 0 0 Z " fill="#000000" transform="translate(231,316)"/>
<path d="M0 0 C0.99 0 1.98 0 3 0 C2.34 3.63 1.68 7.26 1 11 C0.01 11 -0.98 11 -2 11 C-1.85892253 9.54119891 -1.71197585 8.08296449 -1.5625 6.625 C-1.48128906 5.81289063 -1.40007812 5.00078125 -1.31640625 4.1640625 C-1 2 -1 2 0 0 Z " fill="#000000" transform="translate(115,315)"/>
<path d="M0 0 C0.99 0.66 1.98 1.32 3 2 C1.35 4.97 -0.3 7.94 -2 11 C-2.99 10.67 -3.98 10.34 -5 10 C-3.66511872 6.40608886 -2.03977277 3.24509304 0 0 Z " fill="#000000" transform="translate(242,298)"/>
<path d="M0 0 C0.99 0.33 1.98 0.66 3 1 C2.43457996 2.32031595 1.84693528 3.6311301 1.25 4.9375 C0.76273437 6.03384766 0.76273437 6.03384766 0.265625 7.15234375 C-1 9 -1 9 -5 10 C-3.35 6.7 -1.7 3.4 0 0 Z " fill="#000000" transform="translate(272,245)"/>
<path d="M0 0 C0.66 0.33 1.32 0.66 2 1 C1.39009109 4.55780196 0.4216319 7.6828589 -1 11 C-1.99 11 -2.98 11 -4 11 C-3.39301257 6.87248551 -1.96189209 3.6678852 0 0 Z " fill="#000000" transform="translate(146,217)"/>
<path d="M0 0 C0.99 0.33 1.98 0.66 3 1 C1.68 4.3 0.36 7.6 -1 11 C-1.99 10.67 -2.98 10.34 -4 10 C-3.52449439 8.51965236 -3.04448784 7.04074979 -2.5625 5.5625 C-2.29566406 4.73878906 -2.02882813 3.91507813 -1.75390625 3.06640625 C-1 1 -1 1 0 0 Z " fill="#000000" transform="translate(298,189)"/>
<path d="M0 0 C0.99 0.33 1.98 0.66 3 1 C2.57742724 2.4835001 2.13643678 3.96176424 1.6875 5.4375 C1.44386719 6.26121094 1.20023437 7.08492187 0.94921875 7.93359375 C0.63597656 8.61550781 0.32273437 9.29742187 0 10 C-0.99 10.33 -1.98 10.66 -3 11 C-2.53199289 6.94393835 -2.12046792 3.53411321 0 0 Z " fill="#000000" transform="translate(305,170)"/>
<path d="M0 0 C0.99 0.33 1.98 0.66 3 1 C2.34 4.3 1.68 7.6 1 11 C0.01 11 -0.98 11 -2 11 C-1.85957123 9.35369672 -1.71250671 7.70795821 -1.5625 6.0625 C-1.48128906 5.14597656 -1.40007812 4.22945312 -1.31640625 3.28515625 C-1 1 -1 1 0 0 Z " fill="#000000" transform="translate(316,131)"/>
<path d="M0 0 C0.99 0 1.98 0 3 0 C3.33 3.63 3.66 7.26 4 11 C3.01 11 2.02 11 1 11 C0.67 7.37 0.34 3.74 0 0 Z " fill="#000000" transform="translate(317,90)"/>
<path d="M0 0 C0.66 0 1.32 0 2 0 C2 3.63 2 7.26 2 11 C1.01 11 0.02 11 -1 11 C-1.02688151 9.35425434 -1.04634123 7.70838587 -1.0625 6.0625 C-1.07410156 5.14597656 -1.08570312 4.22945312 -1.09765625 3.28515625 C-1 1 -1 1 0 0 Z " fill="#000000" transform="translate(82,629)"/>
<path d="M0 0 C0.66 0.33 1.32 0.66 2 1 C1.88590407 2.45922693 1.75834456 3.91740598 1.625 5.375 C1.55539062 6.18710937 1.48578125 6.99921875 1.4140625 7.8359375 C1 10 1 10 -1 12 C-1.66 11.34 -2.32 10.68 -3 10 C-2.79296875 7.87109375 -2.79296875 7.87109375 -2.1875 5.4375 C-1.99542969 4.63183594 -1.80335938 3.82617188 -1.60546875 2.99609375 C-1 1 -1 1 0 0 Z " fill="#000000" transform="translate(283,608)"/>
<path d="M0 0 C0.99 0 1.98 0 3 0 C3 3.3 3 6.6 3 10 C2.01 10.33 1.02 10.66 0 11 C0 7.37 0 3.74 0 0 Z " fill="#000000" transform="translate(82,591)"/>
<path d="M0 0 C0.66 0 1.32 0 2 0 C1.67 3.63 1.34 7.26 1 11 C0.01 11 -0.98 11 -2 11 C-1.85957123 9.35369672 -1.71250671 7.70795821 -1.5625 6.0625 C-1.48128906 5.14597656 -1.40007812 4.22945312 -1.31640625 3.28515625 C-1 1 -1 1 0 0 Z " fill="#000000" transform="translate(291,568)"/>
<path d="M0 0 C0.99 0 1.98 0 3 0 C2.67 3.3 2.34 6.6 2 10 C1.01 10.33 0.02 10.66 -1 11 C-0.67 7.37 -0.34 3.74 0 0 Z " fill="#000000" transform="translate(294,548)"/>
<path d="M0 0 C0.66 0 1.32 0 2 0 C2 3.63 2 7.26 2 11 C1.01 11 0.02 11 -1 11 C-1.02688151 9.35425434 -1.04634123 7.70838587 -1.0625 6.0625 C-1.07410156 5.14597656 -1.08570312 4.22945312 -1.09765625 3.28515625 C-1 1 -1 1 0 0 Z " fill="#000000" transform="translate(86,533)"/>
<path d="M0 0 C0.99 0 1.98 0 3 0 C2.67 3.3 2.34 6.6 2 10 C1.01 10.33 0.02 10.66 -1 11 C-0.67 7.37 -0.34 3.74 0 0 Z " fill="#000000" transform="translate(298,528)"/>
<path d="M0 0 C0.99 0 1.98 0 3 0 C2.67 3.3 2.34 6.6 2 10 C1.01 10.33 0.02 10.66 -1 11 C-0.67 7.37 -0.34 3.74 0 0 Z " fill="#000000" transform="translate(302,508)"/>
<path d="M0 0 C0.66 0.33 1.32 0.66 2 1 C1.67 4.3 1.34 7.6 1 11 C0.01 11 -0.98 11 -2 11 C-1.85957123 9.35369672 -1.71250671 7.70795821 -1.5625 6.0625 C-1.48128906 5.14597656 -1.40007812 4.22945313 -1.31640625 3.28515625 C-1 1 -1 1 0 0 Z " fill="#000000" transform="translate(307,487)"/>
<path d="M0 0 C0.66 0.33 1.32 0.66 2 1 C1.25 8.625 1.25 8.625 -1 12 C-1.66 11.67 -2.32 11.34 -3 11 C-2.69217504 9.35328588 -2.37860766 7.70764424 -2.0625 6.0625 C-1.88847656 5.14597656 -1.71445312 4.22945313 -1.53515625 3.28515625 C-1 1 -1 1 0 0 Z " fill="#000000" transform="translate(316,447)"/>
<path d="M0 0 C0.99 0 1.98 0 3 0 C2.67 3.63 2.34 7.26 2 11 C1.01 11 0.02 11 -1 11 C-0.67 7.37 -0.34 3.74 0 0 Z " fill="#000000" transform="translate(94,436)"/>
<path d="M0 0 C0.66 0.33 1.32 0.66 2 1 C1.25 8.625 1.25 8.625 -1 12 C-1.66 11.67 -2.32 11.34 -3 11 C-2.69217504 9.35328588 -2.37860766 7.70764424 -2.0625 6.0625 C-1.88847656 5.14597656 -1.71445312 4.22945313 -1.53515625 3.28515625 C-1 1 -1 1 0 0 Z " fill="#000000" transform="translate(321,427)"/>
<path d="M0 0 C0.66 0 1.32 0 2 0 C2.14285714 7.42857143 2.14285714 7.42857143 1 11 C0.01 11 -0.98 11 -2 11 C-1.85957123 9.35369672 -1.71250671 7.70795821 -1.5625 6.0625 C-1.48128906 5.14597656 -1.40007812 4.22945313 -1.31640625 3.28515625 C-1 1 -1 1 0 0 Z " fill="#000000" transform="translate(103,375)"/>
<path d="M0 0 C0.99 0 1.98 0 3 0 C2.67 3.63 2.34 7.26 2 11 C1.01 11 0.02 11 -1 11 C-0.67 7.37 -0.34 3.74 0 0 Z " fill="#000000" transform="translate(335,368)"/>
<path d="M0 0 C0.99 0.33 1.98 0.66 3 1 C0.19195732 3.96404505 -2.18315774 6.44499019 -6 8 C-6 6.68 -6 5.36 -6 4 C-3.1875 1.6875 -3.1875 1.6875 0 0 Z " fill="#000000" transform="translate(226,362)"/>
<path d="M0 0 C0.66 0.33 1.32 0.66 2 1 C1 4 1 4 -0.84765625 5.16796875 C-1.57855469 5.50441406 -2.30945313 5.84085937 -3.0625 6.1875 C-3.79597656 6.53167969 -4.52945313 6.87585938 -5.28515625 7.23046875 C-6.13400391 7.61138672 -6.13400391 7.61138672 -7 8 C-7 6.68 -7 5.36 -7 4 C-1.7265625 0.77734375 -1.7265625 0.77734375 0 0 Z " fill="#000000" transform="translate(244,351)"/>
<path d="M0 0 C0.99 0.33 1.98 0.66 3 1 C2.34 3.97 1.68 6.94 1 10 C-0.32 10.33 -1.64 10.66 -3 11 C-2.01 7.37 -1.02 3.74 0 0 Z " fill="#000000" transform="translate(120,295)"/>
<path d="M0 0 C0.99 0 1.98 0 3 0 C1.85569823 3.87302138 0.76679902 7.00263439 -2 10 C-2.66 10 -3.32 10 -4 10 C-3.43768609 6.06380262 -2.38314183 3.20807554 0 0 Z " fill="#000000" transform="translate(252,281)"/>
<path d="M0 0 C0.66 0.33 1.32 0.66 2 1 C1.54177532 4.46941546 1.10868317 7.67395049 0 11 C-0.99 11 -1.98 11 -3 11 C-2.69217504 9.35328588 -2.37860766 7.70764424 -2.0625 6.0625 C-1.88847656 5.14597656 -1.71445313 4.22945313 -1.53515625 3.28515625 C-1 1 -1 1 0 0 Z " fill="#000000" transform="translate(126,275)"/>
<path d="M0 0 C0.99 0 1.98 0 3 0 C2.29445932 3.66881155 0.72264494 6.70450534 -1 10 C-1.99 10 -2.98 10 -4 10 C-3.29445932 6.33118845 -1.72264494 3.29549466 0 0 Z " fill="#000000" transform="translate(262,263)"/>
<path d="M0 0 C0.99 0.33 1.98 0.66 3 1 C2.01 4.63 1.02 8.26 0 12 C-0.99 11.67 -1.98 11.34 -3 11 C-2.01 7.37 -1.02 3.74 0 0 Z " fill="#000000" transform="translate(138,236)"/>
<path d="M0 0 C0.66 0 1.32 0 2 0 C1.48964169 4.3890815 0.47785723 7.33708062 -2 11 C-2.66 10.67 -3.32 10.34 -4 10 C-3.52449439 8.51965236 -3.04448784 7.04074979 -2.5625 5.5625 C-2.29566406 4.73878906 -2.02882813 3.91507813 -1.75390625 3.06640625 C-1 1 -1 1 0 0 Z " fill="#000000" transform="translate(290,208)"/>
<path d="M0 0 C0.99 0.33 1.98 0.66 3 1 C2.60404157 2.48484412 2.18249294 3.9628831 1.75 5.4375 C1.51796875 6.26121094 1.2859375 7.08492187 1.046875 7.93359375 C0.70140625 8.61550781 0.3559375 9.29742187 0 10 C-1.32 10.33 -2.64 10.66 -4 11 C-2.68 7.37 -1.36 3.74 0 0 Z " fill="#000000" transform="translate(153,198)"/>
<path d="M0 0 C0.99 0 1.98 0 3 0 C2.39301257 4.12751449 0.96189209 7.3321148 -1 11 C-1.66 10.67 -2.32 10.34 -3 10 C-2.39009109 6.44219804 -1.4216319 3.3171411 0 0 Z " fill="#000000" transform="translate(161,180)"/>
<path d="M0 0 C0.99 0 1.98 0 3 0 C2.71758359 1.46015291 2.42373386 2.91809793 2.125 4.375 C1.96257812 5.18710938 1.80015625 5.99921875 1.6328125 6.8359375 C1 9 1 9 -1 11 C-1.66 10.34 -2.32 9.68 -3 9 C-2.01 6.03 -1.02 3.06 0 0 Z " fill="#000000" transform="translate(311,151)"/>
<path d="M0 0 C0.99 0.33 1.98 0.66 3 1 C1.66511872 4.59391114 0.03977277 7.75490696 -2 11 C-2.66 10.67 -3.32 10.34 -4 10 C-3.29445932 6.33118845 -1.72264494 3.29549466 0 0 Z " fill="#000000" transform="translate(180,143)"/>
<path d="M0 0 C0.66 0.33 1.32 0.66 2 1 C0.69386058 4.91841827 -0.83129848 7.32640809 -4 10 C-4.66 10 -5.32 10 -6 10 C-5.49477778 5.62140745 -2.82172778 3.18348776 0 0 Z " fill="#000000" transform="translate(226,75)"/>
<path d="M0 0 C-0.33 0.99 -0.66 1.98 -1 3 C-3.3125 4.0625 -3.3125 4.0625 -6 5 C-7.34050052 5.65213539 -8.67661368 6.31379969 -10 7 C-9.63206382 4.33246269 -9.18001672 3.18001672 -7.25 1.25 C-4.62056017 -0.21079991 -2.9625559 -0.24687966 0 0 Z " fill="#000000" transform="translate(243,62)"/>
<path d="M0 0 C1.258125 -0.020625 2.51625 -0.04125 3.8125 -0.0625 C4.52019531 -0.07410156 5.22789062 -0.08570313 5.95703125 -0.09765625 C8 0 8 0 11 1 C11 1.99 11 2.98 11 4 C7.37 3.67 3.74 3.34 0 3 C0 2.01 0 1.02 0 0 Z " fill="#000000" transform="translate(272,57)"/>
<path d="M0 0 C0.53625 0.226875 1.0725 0.45375 1.625 0.6875 C-0.50169835 3.02686818 -2.43724856 4.49403848 -5.375 5.6875 C-6.365 5.6875 -7.355 5.6875 -8.375 5.6875 C-8.375 4.6975 -8.375 3.7075 -8.375 2.6875 C-2.95961538 -0.38942308 -2.95961538 -0.38942308 0 0 Z " fill="#000000" transform="translate(333.375,638.3125)"/>
<path d="M0 0 C-0.0625 1.75 -0.0625 1.75 -1 4 C-3.24164322 5.59501537 -5.53566643 6.74543018 -8 8 C-8 6.68 -8 5.36 -8 4 C-2.88888889 0 -2.88888889 0 0 0 Z " fill="#000000" transform="translate(351,628)"/>
<path d="M0 0 C0.66 0 1.32 0 2 0 C1.67 3.3 1.34 6.6 1 10 C0.01 10.33 -0.98 10.66 -2 11 C-1.85957123 9.35369672 -1.71250671 7.70795821 -1.5625 6.0625 C-1.48128906 5.14597656 -1.40007812 4.22945312 -1.31640625 3.28515625 C-1 1 -1 1 0 0 Z " fill="#000000" transform="translate(287,588)"/>
<path d="M0 0 C0.99 0 1.98 0 3 0 C3.14285714 7.42857143 3.14285714 7.42857143 2 11 C1.01 10.67 0.02 10.34 -1 10 C-0.67 6.7 -0.34 3.4 0 0 Z " fill="#000000" transform="translate(87,514)"/>
<path d="M0 0 C0.99 0 1.98 0 3 0 C2.67 3.63 2.34 7.26 2 11 C1.01 10.67 0.02 10.34 -1 10 C-0.67 6.7 -0.34 3.4 0 0 Z " fill="#000000" transform="translate(89,495)"/>
<path d="M0 0 C0.66 0 1.32 0 2 0 C1.53199289 4.05606165 1.12046792 7.46588679 -1 11 C-1.66 11 -2.32 11 -3 11 C-2.53199289 6.94393835 -2.12046792 3.53411321 0 0 Z " fill="#000000" transform="translate(132,256)"/>
<path d="M0 0 C0.99 0 1.98 0 3 0 C1.85569823 3.87302138 0.76679902 7.00263439 -2 10 C-2.66 10 -3.32 10 -4 10 C-3.43768609 6.06380262 -2.38314183 3.20807554 0 0 Z " fill="#000000" transform="translate(190,126)"/>
<path d="M0 0 C0 0.99 0 1.98 0 3 C-4.95 4.485 -4.95 4.485 -10 6 C-10 5.01 -10 4.02 -10 3 C-8.70990357 2.49596232 -7.41786211 1.99690074 -6.125 1.5 C-5.04605469 1.08234375 -5.04605469 1.08234375 -3.9453125 0.65625 C-2 0 -2 0 0 0 Z " fill="#000000" transform="translate(317,645)"/>
<path d="M0 0 C0.99 0.33 1.98 0.66 3 1 C2.07347299 2.17539996 1.13336613 3.34010577 0.1875 4.5 C-0.33457031 5.1496875 -0.85664063 5.799375 -1.39453125 6.46875 C-3 8 -3 8 -6 8 C-4.55746343 4.63408134 -2.66735273 2.48952921 0 0 Z " fill="#000000" transform="translate(393,591)"/>
<path d="M0 0 C0.66 0.33 1.32 0.66 2 1 C0.8905928 4.48670834 -0.26337666 7.77484237 -2 11 C-2.99 10.67 -3.98 10.34 -5 10 C-3.35 6.7 -1.7 3.4 0 0 Z " fill="#000000" transform="translate(171,161)"/>
<path d="M0 0 C0 0.99 0 1.98 0 3 C-3.3 3.66 -6.6 4.32 -10 5 C-10 4.01 -10 3.02 -10 2 C-8.7090864 1.66376204 -7.41723903 1.33110751 -6.125 1 C-5.40570313 0.814375 -4.68640625 0.62875 -3.9453125 0.4375 C-2 0 -2 0 0 0 Z " fill="#000000" transform="translate(298,650)"/>
<path d="M0 0 C0.99 0 1.98 0 3 0 C3.125 6.625 3.125 6.625 2 10 C1.01 10 0.02 10 -1 10 C-0.67 6.7 -0.34 3.4 0 0 Z " fill="#000000" transform="translate(84,553)"/>
<path d="M0 0 C0.66 0 1.32 0 2 0 C2 3.3 2 6.6 2 10 C1.01 10 0.02 10 -1 10 C-1.02689216 8.52093108 -1.04634621 7.04172517 -1.0625 5.5625 C-1.07410156 4.73878906 -1.08570312 3.91507812 -1.09765625 3.06640625 C-1 1 -1 1 0 0 Z " fill="#000000" transform="translate(91,476)"/>
<path d="M0 0 C0.99 0.66 1.98 1.32 3 2 C2.67 2.99 2.34 3.98 2 5 C2.99 4.67 3.98 4.34 5 4 C5 4.99 5 5.98 5 7 C2.69 7 0.38 7 -2 7 C-1.34 4.69 -0.68 2.38 0 0 Z " fill="#000000" transform="translate(274,648)"/>
<path d="M0 0 C0.99 0 1.98 0 3 0 C2.67 3.3 2.34 6.6 2 10 C1.01 10 0.02 10 -1 10 C-0.67 6.7 -0.34 3.4 0 0 Z " fill="#000000" transform="translate(83,572)"/>
<path d="M0 0 C0.99 0.33 1.98 0.66 3 1 C1.515 3.475 1.515 3.475 0 6 C-0.99 5.67 -1.98 5.34 -3 5 C-2.01 3.35 -1.02 1.7 0 0 Z " fill="#000000" transform="translate(185,383)"/>
<path d="M0 0 C0.99 0.33 1.98 0.66 3 1 C2.34 2.32 1.68 3.64 1 5 C0.01 5 -0.98 5 -2 5 C-1.34 3.35 -0.68 1.7 0 0 Z " fill="#000000" transform="translate(415,566)"/>
<path d="M0 0 C0.99 0 1.98 0 3 0 C3 1.65 3 3.3 3 5 C2.34 5 1.68 5 1 5 C0.67 3.35 0.34 1.7 0 0 Z " fill="#000000" transform="translate(81,649)"/>
<path d="M0 0 C0.99 0.33 1.98 0.66 3 1 C2.67 1.99 2.34 2.98 2 4 C1.01 3.01 0.02 2.02 -1 1 C-0.67 0.67 -0.34 0.34 0 0 Z " fill="#000000" transform="translate(403,432)"/>
<path d="M0 0 C0.99 0.33 1.98 0.66 3 1 C2.67 1.99 2.34 2.98 2 4 C1.01 3.01 0.02 2.02 -1 1 C-0.67 0.67 -0.34 0.34 0 0 Z " fill="#000000" transform="translate(363,153)"/>
</svg>
