<?xml version="1.0" encoding="UTF-8"?>
<svg version="1.1" xmlns="http://www.w3.org/2000/svg" width="355" height="523">
<path d="M0 0 C-1.98758357 6.79520151 -4.13445195 13.53064033 -6.33581543 20.25933838 C-11.84942085 37.1148476 -16.96738183 54.06757843 -21.88159943 71.10654068 C-22.51376171 73.29769993 -23.1474927 75.48840121 -23.78143311 77.67904663 C-35.53825999 118.33824622 -46.63579165 159.19709558 -56.9375 200.25 C-57.13377991 201.03017487 -57.33005981 201.81034973 -57.5322876 202.61416626 C-65.1561664 227.776925 -65.1561664 227.776925 -62.25 252.875 C-60.04486123 255.93769274 -59.35583223 256.72187617 -56 258 C-53.61587194 258.35160807 -53.61587194 258.35160807 -51.125 258.3125 C-50.30257812 258.32925781 -49.48015625 258.34601563 -48.6328125 258.36328125 C-42.64152399 257.5365901 -38.70756262 254.10688476 -34.4375 250.0625 C-33.38296153 249.07145598 -32.32826867 248.08057622 -31.2734375 247.08984375 C-30.73428711 246.57921387 -30.19513672 246.06858398 -29.63964844 245.54248047 C-28.03666782 244.03449484 -26.41717588 242.54718579 -24.7890625 241.06640625 C-18.53689572 235.37348422 -12.4810998 229.53126906 -6.53686523 223.51757812 C-3.07172806 220.02645905 0.49160746 216.72470161 4.2421875 213.5390625 C6.07927024 211.9305945 7.78907787 210.24161132 9.5 208.5 C16.09834665 201.81228523 23.35987132 195.46737833 31 190 C31.66 190 32.32 190 33 190 C33.1627275 197.94544579 33.28683559 205.89018702 33.3626852 213.83689117 C33.39910392 217.52760483 33.44843693 221.21717244 33.52807617 224.90722656 C33.60455564 228.47349677 33.64607562 232.03867021 33.6641407 235.60569763 C33.6832285 237.61774929 33.7378089 239.62936401 33.79307556 241.64074707 C33.79569773 247.79389597 33.73633493 251.97280182 29.59228516 256.74389648 C28.41795468 257.85421447 27.22302439 258.94355813 26 260 C25.28714844 260.80566406 24.57429688 261.61132812 23.83984375 262.44140625 C21.5710269 264.97111374 19.28771755 267.48739867 17 270 C16.5591658 270.48444077 16.1183316 270.96888153 15.66413879 271.46800232 C5.02510647 283.11217221 -6.10735834 294.26264727 -17.27001953 305.40039062 C-19.87527642 307.99989821 -22.47594266 310.60394544 -25.07535362 313.20929718 C-27.11031514 315.24789385 -29.14767866 317.28407664 -31.18574905 319.31956482 C-32.60494157 320.7377839 -34.02215289 322.15798467 -35.43930054 323.57824707 C-39.96526561 328.08791052 -44.54093832 332.46981795 -49.39610291 336.62467957 C-50.70253881 337.74493098 -51.97241778 338.90770346 -53.23046875 340.08203125 C-72.35050643 356.98857156 -99.54583454 362.98847471 -124.30322266 362.17919922 C-129.69329807 361.82103198 -134.1834305 360.35657312 -139 358 C-139.90234375 357.59910156 -140.8046875 357.19820313 -141.734375 356.78515625 C-152.380932 351.59721534 -162.64444092 342.68762886 -168 332 C-168 331.34 -168 330.68 -168 330 C-172.56056163 333.89720721 -176.93687933 337.88524206 -181.13598633 342.16894531 C-182.87209952 343.87436102 -184.65872921 345.44794754 -186.515625 347.01953125 C-192.02211681 351.80728898 -197.11643289 357.00864676 -202.25 362.1875 C-203.23934585 363.18187697 -204.22892787 364.17601901 -205.21875 365.16992188 C-207.03173724 366.99099364 -208.84307527 368.81364817 -210.65332031 370.63745117 C-211.42772461 371.41709229 -212.20212891 372.1967334 -213 373 C-213.70044434 373.72477539 -214.40088867 374.44955078 -215.12255859 375.19628906 C-223.52094559 383.26485644 -237.29188995 386.72744804 -248.53515625 387.125 C-264.0467574 386.57530871 -275.21535111 380.18316357 -285.75 369.25 C-292.94529471 361.023212 -296.41745815 351.84084887 -296.2734375 340.99609375 C-295.03812805 327.46063165 -285.53341057 314.46550029 -275.46484375 305.82421875 C-273.59347559 304.30027759 -271.71302008 302.78743616 -269.82421875 301.28515625 C-267.12864274 299.10408853 -264.55875624 296.83908559 -262 294.5 C-257.70008209 290.58108748 -253.24080453 286.90829131 -248.71875 283.25 C-246.07852271 281.06498431 -243.5327028 278.80828609 -241 276.5 C-236.70008209 272.58108748 -232.24080453 268.90829131 -227.71875 265.25 C-225.07852271 263.06498431 -222.5327028 260.80828609 -220 258.5 C-215.70008209 254.58108748 -211.24080453 250.90829131 -206.71875 247.25 C-204.07852271 245.06498431 -201.5327028 242.80828609 -199 240.5 C-194.70008209 236.58108748 -190.24080453 232.90829131 -185.71875 229.25 C-183.07852271 227.06498431 -180.5327028 224.80828609 -178 222.5 C-173.71163551 218.59161718 -169.26610327 214.92695115 -164.75390625 211.28125 C-161.05917209 208.22064752 -157.52350056 205.00085811 -153.99609375 201.75 C-152 200 -152 200 -150 199 C-149.36464887 196.35115775 -148.85601779 193.76028516 -148.40625 191.078125 C-148.10062546 189.35583974 -147.79478827 187.63359221 -147.48876953 185.91137695 C-147.32846252 184.99119781 -147.16815552 184.07101868 -147.00299072 183.12295532 C-138.59496067 135.09842205 -127.6283795 87.15127193 -113.11669922 40.58349609 C-112.40598794 38.30281831 -111.70355867 36.01953093 -111.01220703 33.73291016 C-110.16990937 30.97486876 -109.28464924 28.23643235 -108.375 25.5 C-108.14659424 24.74033936 -107.91818848 23.98067871 -107.68286133 23.19799805 C-106.9609375 21.15625 -106.9609375 21.15625 -105 18 C-102.29733602 17.16595128 -99.76373476 16.52999935 -97 16 C-96.2724778 15.85883633 -95.5449556 15.71767265 -94.79538727 15.57223129 C-92.40626789 15.12828941 -90.01354525 14.71297533 -87.61816406 14.30419922 C-86.71633896 14.14785004 -85.81451385 13.99150085 -84.88536072 13.83041382 C-81.92929905 13.31879109 -78.97250261 12.81157157 -76.015625 12.3046875 C-73.95152949 11.9489899 -71.88746336 11.5931218 -69.82342529 11.23709106 C-65.51006421 10.49380006 -61.19633035 9.75272129 -56.88232422 9.01318359 C-51.35115602 8.06478516 -45.8209994 7.11062727 -40.29111099 6.15479851 C-36.03479734 5.41979437 -31.77794648 4.68794153 -27.52092743 3.95703506 C-25.4809831 3.60637374 -23.44121219 3.25470196 -21.40161896 2.90200424 C-18.55637375 2.41045102 -15.71042916 1.92316959 -12.86425781 1.43701172 C-12.02158859 1.29054199 -11.17891937 1.14407227 -10.31071472 0.99316406 C-9.53426102 0.86142792 -8.75780731 0.72969177 -7.95782471 0.59396362 C-7.28608845 0.47857176 -6.61435219 0.36317989 -5.92226028 0.24429131 C-4 0 -4 0 0 0 Z M-10 7 C-21.27559373 8.91371865 -32.54999616 10.83429215 -43.82292557 12.76364708 C-49.05732567 13.65928916 -54.29210797 14.55255715 -59.52783203 15.44042969 C-64.5797369 16.29721964 -69.63054728 17.16020616 -74.68065643 18.02751541 C-76.60839846 18.35746199 -78.53652557 18.68516679 -80.46503448 19.01060104 C-83.16426414 19.46648616 -85.86201975 19.93029331 -88.55957031 20.39599609 C-89.35870346 20.52906662 -90.15783661 20.66213715 -90.98118591 20.79924011 C-96.25700833 21.67871762 -96.25700833 21.67871762 -101 24 C-102.29934732 26.38253175 -102.29934732 26.38253175 -103.19140625 29.31640625 C-103.57304932 30.45142578 -103.95469238 31.58644531 -104.34790039 32.75585938 C-104.74871826 34.01205078 -105.14953613 35.26824219 -105.5625 36.5625 C-105.77454071 37.21436279 -105.98658142 37.86622559 -106.20504761 38.5378418 C-118.65724385 76.85087436 -127.68430859 116.37538386 -135.75 155.8125 C-136.03987289 157.21876648 -136.03987289 157.21876648 -136.33560181 158.65344238 C-138.13696658 167.39811632 -139.91580143 176.12415578 -141.25390625 184.953125 C-143.01953821 196.28514048 -144.32307461 203.81989364 -153.8125 210.8671875 C-154.864375 211.57101562 -155.91625 212.27484375 -157 213 C-158.88896778 214.52452019 -160.7645449 216.06581177 -162.625 217.625 C-163.97464844 218.71167969 -163.97464844 218.71167969 -165.3515625 219.8203125 C-167.97275119 221.97757399 -170.49154281 224.21311 -173 226.5 C-177.29991791 230.41891252 -181.75919547 234.09170869 -186.28125 237.75 C-188.92147729 239.93501569 -191.4672972 242.19171391 -194 244.5 C-198.29991791 248.41891252 -202.75919547 252.09170869 -207.28125 255.75 C-209.92147729 257.93501569 -212.4672972 260.19171391 -215 262.5 C-219.29991791 266.41891252 -223.75919547 270.09170869 -228.28125 273.75 C-230.92147729 275.93501569 -233.4672972 278.19171391 -236 280.5 C-240.29991791 284.41891252 -244.75919547 288.09170869 -249.28125 291.75 C-252.77773689 294.64364433 -256.11612998 297.6917702 -259.46484375 300.75390625 C-262.09330361 303.08266499 -264.80908385 305.25851003 -267.5625 307.4375 C-278.13867443 316.0418453 -288.71444459 327.16887289 -290.25 341.30078125 C-290.78336876 352.01815978 -286.28034275 359.57401878 -279.421875 367.51953125 C-271.4964941 375.63665524 -260.79913178 380.44291916 -249.5 381.25 C-237.60691476 381.00455171 -225.25885139 376.91168847 -216.53515625 368.671875 C-215.05220755 367.01430844 -213.59994269 365.32877709 -212.1796875 363.6171875 C-207.38776515 357.86344561 -201.95119687 352.60027196 -196.25 347.75 C-192.29019759 344.36968087 -188.65955635 340.69758147 -185 337 C-178.64231182 330.58262705 -172.12491921 324.56634313 -165 319 C-164.9175 319.99 -164.835 320.98 -164.75 322 C-163.38504399 331.0633079 -157.57008724 338.67449822 -150.44189453 344.20996094 C-137.03007254 353.90123411 -123.46422497 358.71406619 -106.72094727 356.24365234 C-81.54675101 351.94402149 -63.0561595 340.83535263 -44.73583984 323.62255859 C-43.05952709 322.05564234 -41.37028682 320.50423179 -39.67578125 318.95703125 C-31.41463607 311.38255415 -23.43308074 303.53987214 -15.5 295.625 C-14.98126312 295.10885132 -14.46252625 294.59270264 -13.92807007 294.06091309 C-8.60627776 288.76009886 -3.38556639 283.4267268 1.50195312 277.71630859 C3.71658242 275.1790133 6.09017997 272.85311838 8.5 270.5 C12.88659441 266.17263324 17.02263158 261.70460734 21 257 C21.48209427 256.55847092 21.96418854 256.11694183 22.46089172 255.66203308 C25.93067518 252.23458851 27.40701145 249.71771461 27.68115234 244.79907227 C27.68021127 242.80459794 27.64683192 240.80995098 27.5859375 238.81640625 C27.57744781 237.76090073 27.56895813 236.7053952 27.56021118 235.61790466 C27.52677304 232.26504041 27.45150739 228.91463043 27.375 225.5625 C27.3448882 223.28193591 27.31751454 221.00133391 27.29296875 218.72070312 C27.22701363 213.14630591 27.12676128 207.57332832 27 202 C25.73709894 202.92500301 24.47729092 203.85422962 23.21875 204.78515625 C22.51685547 205.30215088 21.81496094 205.81914551 21.09179688 206.35180664 C18.42433433 208.45358531 16.11521045 210.80159862 13.7578125 213.23828125 C12.03116398 214.96876677 10.2395825 216.54517592 8.375 218.125 C4.56055568 221.40512527 1.03436285 224.92524443 -2.5 228.5 C-6.53381851 232.5797095 -10.60789147 236.49310934 -14.98828125 240.203125 C-17.54486016 242.48667121 -19.91422122 244.9259819 -22.3125 247.375 C-39.08697534 264.26596475 -39.08697534 264.26596475 -51 264.3125 C-57.5919292 264.17397986 -61.08147709 262.96212571 -65.75 258.1875 C-71.75942705 249.67414501 -71.14309217 238.91599339 -69.50564575 229.0090332 C-68.8436742 225.68439772 -68.13134264 222.3752627 -67.39453125 219.06640625 C-67.12659256 217.84271835 -66.85865387 216.61903046 -66.58259583 215.35826111 C-63.73432634 202.51959667 -60.51364801 189.78437783 -57.1875 177.0625 C-56.71086914 175.22955887 -56.71086914 175.22955887 -56.22460938 173.35958862 C-46.10657859 134.47932161 -35.24735638 95.79987272 -23.9375 57.25 C-23.64166016 56.2397879 -23.34582031 55.22957581 -23.04101562 54.18875122 C-20.37860461 45.11551997 -17.68554346 36.05901882 -14.75439453 27.06835938 C-14.37996719 25.91793152 -14.00553986 24.76750366 -13.61976624 23.58221436 C-12.88814133 21.34619081 -12.14963729 19.11240385 -11.40354919 16.88116455 C-11.07516556 15.87978455 -10.74678192 14.87840454 -10.40844727 13.84667969 C-9.96409081 12.51331573 -9.96409081 12.51331573 -9.51075745 11.15301514 C-8.74904737 8.96724602 -8.74904737 8.96724602 -10 7 Z " fill="#000000" transform="translate(322,136)"/>
<path d="M0 0 C0.93199219 0.48597656 1.86398437 0.97195312 2.82421875 1.47265625 C13.62713328 7.70680747 20.11792197 16.93018151 24.25 28.5 C27.19627942 42.10645405 24.80499003 54.8068257 17.875 66.75 C11.02184884 76.91966543 0.77874049 83.17214369 -11 86 C-25.85130874 87.52947563 -38.06706362 85.32402443 -50 76 C-50.61617187 75.52175781 -51.23234375 75.04351562 -51.8671875 74.55078125 C-60.42177887 67.00373064 -65.20874838 54.80633749 -66.2109375 43.65234375 C-66.7567804 30.40515657 -61.87890761 18.00359554 -53 8.25 C-39.31483678 -4.71243739 -16.93266576 -8.98631238 0 0 Z M-48.33984375 12.15234375 C-56.1950462 20.894722 -60.80924282 31.49221133 -60.33984375 43.33984375 C-58.88019549 54.7653663 -54.27735125 64.48078296 -45.57421875 72.1328125 C-36.58202217 78.81752473 -26.65140291 81.72314158 -15.4296875 80.78515625 C-4.148528 78.92853909 5.47660058 72.96967608 12.56640625 64.0234375 C13.87313764 62.06529077 14.96546396 60.11369913 16 58 C16.31839844 57.35933594 16.63679688 56.71867187 16.96484375 56.05859375 C20.56602246 47.31287403 20.34230999 35.96474096 17.4375 27.0625 C13.03655605 16.7419765 5.4144925 8.79103144 -4.75 4.1875 C-19.84526944 -1.64006355 -36.29751918 1.02102245 -48.33984375 12.15234375 Z " fill="#000000" transform="translate(289,4)"/>
<path d="M0 0 C3.42287517 1.62136192 4.60337103 3.84420561 6.375 7.125 C6.375 8.115 6.375 9.105 6.375 10.125 C5.385 10.125 4.395 10.125 3.375 10.125 C2.385 8.64 2.385 8.64 1.375 7.125 C-0.31581886 12.05267699 -1.89551649 16.98362314 -3.31640625 21.99609375 C-21.11224004 84.71730879 -53.91002039 141.30636205 -95.625 191.125 C-96.13272949 191.73182617 -96.64045898 192.33865234 -97.16357422 192.96386719 C-98.665536 194.7519399 -100.1744016 196.53384456 -101.6875 198.3125 C-102.32002686 199.05850464 -102.32002686 199.05850464 -102.96533203 199.81958008 C-112.45235873 210.85969939 -122.60362058 221.26744811 -132.90820312 231.53857422 C-134.89050244 233.5154601 -136.86732633 235.49771039 -138.84375 237.48046875 C-144.93032513 243.5709533 -150.99420029 249.62049313 -157.625 255.125 C-158.63240234 255.97650635 -158.63240234 255.97650635 -159.66015625 256.84521484 C-167.72512238 263.6374518 -175.78809421 270.3495284 -184.625 276.125 C-185.285 275.795 -185.945 275.465 -186.625 275.125 C-185.53581995 271.85745986 -185.05292925 271.43411917 -182.37890625 269.5234375 C-181.71117187 269.03770264 -181.0434375 268.55196777 -180.35546875 268.05151367 C-179.64003906 267.53951416 -178.92460937 267.02751465 -178.1875 266.5 C-171.64125925 261.71001467 -165.56004181 256.66077536 -159.625 251.125 C-158.33813677 249.9945086 -157.0466004 248.86931014 -155.75 247.75 C-146.45472997 239.60976352 -137.5621618 231.16213894 -128.8125 222.4375 C-127.46925659 221.10114502 -127.46925659 221.10114502 -126.09887695 219.73779297 C-121.60026993 215.22869968 -117.2377114 210.66347933 -113.08911133 205.82983398 C-111.23572838 203.67172608 -109.30501073 201.58957855 -107.375 199.5 C-102.8257767 194.45813661 -98.6559728 189.17317302 -94.5 183.80859375 C-92.61457165 181.37795809 -90.70020473 178.97661533 -88.75 176.59765625 C-47.69678254 126.44363352 -18.81495928 67.71658839 -2.625 5.125 C-3.615 5.785 -4.605 6.445 -5.625 7.125 C-6.615 7.125 -7.605 7.125 -8.625 7.125 C-8.625 6.135 -8.625 5.145 -8.625 4.125 C-5.75530476 1.72246445 -3.79808097 0.180861 0 0 Z " fill="#000000" transform="translate(186.625,179.875)"/>
<path d="M0 0 C0.33 0 0.66 0 1 0 C0.46292887 7.45532495 -1.35614286 13.9981652 -3.68359375 21.08203125 C-4.05490921 22.23744415 -4.42622467 23.39285706 -4.80879211 24.58328247 C-5.80635369 27.68735254 -6.81051807 30.78920469 -7.81614685 33.89066696 C-9.6940548 39.69899923 -11.5399912 45.51763253 -13.38671875 51.3359375 C-13.5895409 51.97443823 -13.79236305 52.61293896 -14.00133133 53.27078819 C-36.47621749 113.59791753 -36.47621749 113.59791753 -34 175 C-20.68790599 175.98203972 -12.77076546 169.22744992 -3 161 C-0.48527762 158.80845744 1.98592407 156.57435894 4.4375 154.3125 C5.0042041 153.79051025 5.5709082 153.26852051 6.15478516 152.73071289 C10.06503815 149.05424385 13.58250344 145.13632003 17 141 C15.35 140.67 13.7 140.34 12 140 C12.33 139.01 12.66 138.02 13 137 C16.3 137 19.6 137 23 137 C24.26237731 139.52475462 24.09856404 141.31200466 24.0625 144.125 C24.05347656 145.03507813 24.04445313 145.94515625 24.03515625 146.8828125 C24.02355469 147.58148438 24.01195312 148.28015625 24 149 C23.01 149 22.02 149 21 149 C20.67 147.02 20.34 145.04 20 143 C19.62230469 143.44988281 19.24460937 143.89976562 18.85546875 144.36328125 C-8.53077637 176.36734756 -8.53077637 176.36734756 -25.7265625 179.49609375 C-29.67515502 179.68828188 -32.34447532 179.30684134 -35.9375 177.625 C-43.37723551 168.15624572 -41.68757721 154.85945436 -40.44921875 143.59375 C-36.0477256 108.97837553 -25.08446869 25.08446869 0 0 Z " fill="#000000" transform="translate(324,172)"/>
<path d="M0 0 C3.0625 0.1875 3.0625 0.1875 5.0625 2.1875 C4.90004442 5.92397845 4.47466356 7.71288742 2 10.5625 C1.360625 11.09875 0.72125 11.635 0.0625 12.1875 C1.7125 12.5175 3.3625 12.8475 5.0625 13.1875 C5.0625 13.8475 5.0625 14.5075 5.0625 15.1875 C1.7625 15.1875 -1.5375 15.1875 -4.9375 15.1875 C-2.9375 11.1875 -2.9375 11.1875 -0.8125 8.625 C1.36735538 6.30372611 1.36735538 6.30372611 1.0625 3.1875 C0.4025 3.1875 -0.2575 3.1875 -0.9375 3.1875 C-1.2675 3.8475 -1.5975 4.5075 -1.9375 5.1875 C-2.9275 5.1875 -3.9175 5.1875 -4.9375 5.1875 C-3.82120474 0.24390669 -3.82120474 0.24390669 0 0 Z " fill="#000000" transform="translate(322.9375,249.8125)"/>
<path d="M0 0 C2.97 0.495 2.97 0.495 6 1 C5.34 4.3 4.68 7.6 4 11 C2.02 11 0.04 11 -2 11 C-3.13643966 7.59068103 -2.86747764 6.99664544 -1.5625 3.8125 C-1.13130859 2.73935547 -1.13130859 2.73935547 -0.69140625 1.64453125 C-0.46324219 1.10183594 -0.23507813 0.55914062 0 0 Z M1 6 C2 8 2 8 2 8 Z " fill="#000000" transform="translate(238,251)"/>
<path d="M0 0 C0 4.95 0 9.9 0 15 C-0.99 15 -1.98 15 -3 15 C-3 11.37 -3 7.74 -3 4 C-3.99 4.33 -4.98 4.66 -6 5 C-5.625 3.0625 -5.625 3.0625 -5 1 C-3 0 -3 0 0 0 Z " fill="#000000" transform="translate(114,296)"/>
<path d="M0 0 C0 4.95 0 9.9 0 15 C-0.99 15 -1.98 15 -3 15 C-3 11.37 -3 7.74 -3 4 C-3.99 4.33 -4.98 4.66 -6 5 C-5.625 3.0625 -5.625 3.0625 -5 1 C-3 0 -3 0 0 0 Z " fill="#000000" transform="translate(310,250)"/>
<path d="M0 0 C1.32 0.33 2.64 0.66 4 1 C3.34 4.3 2.68 7.6 2 11 C0.35 11 -1.3 11 -3 11 C-2.01 7.37 -1.02 3.74 0 0 Z " fill="#000000" transform="translate(245,232)"/>
<path d="M0 0 C0 4.95 0 9.9 0 15 C-0.66 15 -1.32 15 -2 15 C-2.33 11.37 -2.66 7.74 -3 4 C-3.99 4.33 -4.98 4.66 -6 5 C-6 4.01 -6 3.02 -6 2 C-3 0 -3 0 0 0 Z " fill="#000000" transform="translate(126,296)"/>
<path d="M0 0 C0.99 0.33 1.98 0.66 3 1 C2.34 3.97 1.68 6.94 1 10 C-0.32 10.33 -1.64 10.66 -3 11 C-2.69078116 9.54096742 -2.37751201 8.08279278 -2.0625 6.625 C-1.88847656 5.81289062 -1.71445312 5.00078125 -1.53515625 4.1640625 C-1 2 -1 2 0 0 Z " fill="#000000" transform="translate(258,194)"/>
<path d="M0 0 C0.66 0.33 1.32 0.66 2 1 C0.51218185 4.78717347 -1.61988409 6.77407001 -5 9 C-5.99 8.67 -6.98 8.34 -8 8 C-5.58443874 4.80800833 -3.31996462 2.25283313 0 0 Z " fill="#000000" transform="translate(116,454)"/>
<path d="M0 0 C0.99 0.33 1.98 0.66 3 1 C1.49776416 5.20626034 -1.28550034 6.73900021 -5 9 C-5 5 -5 5 -2.5 2.25 C-1.675 1.5075 -0.85 0.765 0 0 Z " fill="#000000" transform="translate(276,432)"/>
<path d="M0 0 C0.99 0.33 1.98 0.66 3 1 C1.80100302 4.0831351 0.52299523 7.06279492 -1 10 C-2.32 9.67 -3.64 9.34 -5 9 C-3.35 6.03 -1.7 3.06 0 0 Z " fill="#000000" transform="translate(187,359)"/>
<path d="M0 0 C0.99 0.33 1.98 0.66 3 1 C2.01 4.3 1.02 7.6 0 11 C-0.99 11 -1.98 11 -3 11 C-2.69078116 9.54096742 -2.37751201 8.08279278 -2.0625 6.625 C-1.88847656 5.81289062 -1.71445313 5.00078125 -1.53515625 4.1640625 C-1 2 -1 2 0 0 Z " fill="#000000" transform="translate(252,213)"/>
<path d="M0 0 C-0.24609375 1.859375 -0.24609375 1.859375 -1 4 C-2.84765625 5.265625 -2.84765625 5.265625 -5.0625 6.25 C-6.16271484 6.75273437 -6.16271484 6.75273437 -7.28515625 7.265625 C-8.13400391 7.62914062 -8.13400391 7.62914062 -9 8 C-9.33 7.01 -9.66 6.02 -10 5 C-8.71186658 4.16121545 -7.41936744 3.32913217 -6.125 2.5 C-5.40570313 2.0359375 -4.68640625 1.571875 -3.9453125 1.09375 C-2 0 -2 0 0 0 Z " fill="#000000" transform="translate(102,467)"/>
<path d="M0 0 C0.99 0.33 1.98 0.66 3 1 C1.7508258 4.45925163 0.32472205 7.14693203 -2 10 C-2.99 9.67 -3.98 9.34 -5 9 C-3.50163895 5.88801935 -1.80066242 2.9465385 0 0 Z " fill="#000000" transform="translate(166,393)"/>
<path d="M0 0 C0.99 0 1.98 0 3 0 C2.67 3.63 2.34 7.26 2 11 C1.01 11 0.02 11 -1 11 C-0.67 7.37 -0.34 3.74 0 0 Z " fill="#000000" transform="translate(214,388)"/>
<path d="M0 0 C0.99 0.33 1.98 0.66 3 1 C1.76067171 4.43198603 0.49698489 7.30325632 -2 10 C-2.99 10 -3.98 10 -5 10 C-3.66511872 6.40608886 -2.03977277 3.24509304 0 0 Z " fill="#000000" transform="translate(177,376)"/>
<path d="M0 0 C0.99 0 1.98 0 3 0 C2.67 3.63 2.34 7.26 2 11 C1.01 11 0.02 11 -1 11 C-0.67 7.37 -0.34 3.74 0 0 Z " fill="#000000" transform="translate(224,329)"/>
<path d="M0 0 C0.99 0.33 1.98 0.66 3 1 C1.68 4.3 0.36 7.6 -1 11 C-1.99 10.67 -2.98 10.34 -4 10 C-2.8905928 6.51329166 -1.73662334 3.22515763 0 0 Z " fill="#000000" transform="translate(223,288)"/>
<path d="M0 0 C-1.3809002 3.33717549 -2.8201238 5.22301036 -6 7 C-8.25 6.6875 -8.25 6.6875 -10 6 C-4.15384615 0 -4.15384615 0 0 0 Z " fill="#000000" transform="translate(264,445)"/>
<path d="M0 0 C0.66 0.33 1.32 0.66 2 1 C0.4169423 5.2742558 -2.50568404 7.26531794 -6 10 C-6 6 -6 6 -4.6875 4.296875 C-4.130625 3.78640625 -3.57375 3.2759375 -3 2.75 C-2.1646875 1.96882813 -2.1646875 1.96882813 -1.3125 1.171875 C-0.879375 0.78515625 -0.44625 0.3984375 0 0 Z " fill="#000000" transform="translate(130,440)"/>
<path d="M0 0 C0.66 0.33 1.32 0.66 2 1 C0.44499019 4.81684226 -2.03595495 7.19195732 -5 10 C-5.66 9.34 -6.32 8.68 -7 8 C-4.69 5.36 -2.38 2.72 0 0 Z " fill="#000000" transform="translate(143,425)"/>
<path d="M0 0 C0.99 0.33 1.98 0.66 3 1 C1.63029745 3.95012857 0.17390875 6.5652222 -2 9 C-2.99 9 -3.98 9 -5 9 C-4.42647107 5.12867972 -2.51295648 2.91827204 0 0 Z " fill="#000000" transform="translate(315,390)"/>
<path d="M0 0 C0.66 0 1.32 0 2 0 C2.14285714 7.42857143 2.14285714 7.42857143 1 11 C0.01 11 -0.98 11 -2 11 C-1.85957123 9.35369672 -1.71250671 7.70795821 -1.5625 6.0625 C-1.48128906 5.14597656 -1.40007812 4.22945313 -1.31640625 3.28515625 C-1 1 -1 1 0 0 Z " fill="#000000" transform="translate(218,368)"/>
<path d="M0 0 C0.99 0.33 1.98 0.66 3 1 C1.68 3.64 0.36 6.28 -1 9 C-2.32 9 -3.64 9 -5 9 C-3.35 6.03 -1.7 3.06 0 0 Z " fill="#000000" transform="translate(197,342)"/>
<path d="M0 0 C0.99 0.33 1.98 0.66 3 1 C1.35 4.3 -0.3 7.6 -2 11 C-2.66 10.67 -3.32 10.34 -4 10 C-3.52449439 8.51965236 -3.04448784 7.04074979 -2.5625 5.5625 C-2.29566406 4.73878906 -2.02882812 3.91507812 -1.75390625 3.06640625 C-1 1 -1 1 0 0 Z " fill="#000000" transform="translate(215,306)"/>
<path d="M0 0 C0.99 0.33 1.98 0.66 3 1 C2.34 4.3 1.68 7.6 1 11 C0.01 11 -0.98 11 -2 11 C-1.34 7.37 -0.68 3.74 0 0 Z " fill="#000000" transform="translate(232,290)"/>
<path d="M0 0 C0.99 0.33 1.98 0.66 3 1 C1.68 3.97 0.36 6.94 -1 10 C-1.99 10 -2.98 10 -4 10 C-3.52449439 8.51965236 -3.04448784 7.04074979 -2.5625 5.5625 C-2.29566406 4.73878906 -2.02882812 3.91507812 -1.75390625 3.06640625 C-1 1 -1 1 0 0 Z " fill="#000000" transform="translate(231,270)"/>
<path d="M0 0 C3.3 0.33 6.6 0.66 10 1 C10 1.99 10 2.98 10 4 C8.741875 4.04125 7.48375 4.0825 6.1875 4.125 C5.47980469 4.14820313 4.77210938 4.17140625 4.04296875 4.1953125 C2 4 2 4 -1 2 C-0.67 1.34 -0.34 0.68 0 0 Z " fill="#000000" transform="translate(219,458)"/>
<path d="M0 0 C0.66 0.99 1.32 1.98 2 3 C-3.29230769 6.07692308 -3.29230769 6.07692308 -6.875 5.6875 C-7.57625 5.460625 -8.2775 5.23375 -9 5 C-7.694761 2.38952199 -6.64173426 2.31933577 -3.9375 1.375 C-3.20402344 1.11460937 -2.47054687 0.85421875 -1.71484375 0.5859375 C-1.14894531 0.39257812 -0.58304688 0.19921875 0 0 Z " fill="#000000" transform="translate(246,454)"/>
<path d="M0 0 C0.99 0 1.98 0 3 0 C2.42647107 3.87132028 0.51295648 6.08172796 -2 9 C-2.99 8.67 -3.98 8.34 -5 8 C-4.24266726 6.6589523 -3.46867264 5.32730219 -2.6875 4 C-2.25824219 3.2575 -1.82898438 2.515 -1.38671875 1.75 C-0.70029297 0.88375 -0.70029297 0.88375 0 0 Z " fill="#000000" transform="translate(154,410)"/>
<path d="M0 0 C0.66 0.33 1.32 0.66 2 1 C1.67 4.3 1.34 7.6 1 11 C0.01 11 -0.98 11 -2 11 C-1.85957123 9.35369672 -1.71250671 7.70795821 -1.5625 6.0625 C-1.48128906 5.14597656 -1.40007812 4.22945313 -1.31640625 3.28515625 C-1 1 -1 1 0 0 Z " fill="#000000" transform="translate(212,407)"/>
<path d="M0 0 C1.32 0.33 2.64 0.66 4 1 C3.07347299 2.17539996 2.13336613 3.34010577 1.1875 4.5 C0.66542969 5.1496875 0.14335937 5.799375 -0.39453125 6.46875 C-2 8 -2 8 -5 8 C-3.62845496 5.04590299 -2.01136276 2.55991624 0 0 Z " fill="#000000" transform="translate(302,405)"/>
<path d="M0 0 C0.99 0 1.98 0 3 0 C2.34 3.63 1.68 7.26 1 11 C0.01 10.67 -0.98 10.34 -2 10 C-1.34 6.7 -0.68 3.4 0 0 Z " fill="#000000" transform="translate(221,349)"/>
<path d="M0 0 C0.99 0 1.98 0 3 0 C2.34 3.63 1.68 7.26 1 11 C0.01 10.67 -0.98 10.34 -2 10 C-1.34 6.7 -0.68 3.4 0 0 Z " fill="#000000" transform="translate(228,310)"/>
<path d="M0 0 C0.66 0 1.32 0 2 0 C1.85892253 1.45880109 1.71197585 2.91703551 1.5625 4.375 C1.48128906 5.18710937 1.40007812 5.99921875 1.31640625 6.8359375 C1 9 1 9 0 11 C-0.99 10.67 -1.98 10.34 -3 10 C-2.69201674 8.51988629 -2.378482 7.04092675 -2.0625 5.5625 C-1.88847656 4.73878906 -1.71445313 3.91507812 -1.53515625 3.06640625 C-1 1 -1 1 0 0 Z " fill="#000000" transform="translate(237,271)"/>
<path d="M0 0 C0.99 0 1.98 0 3 0 C3 1.65 3 3.3 3 5 C3.66 5.33 4.32 5.66 5 6 C5 6.99 5 7.98 5 9 C3.125 8.75 3.125 8.75 1 8 C-0.3125 6.1875 -0.3125 6.1875 -1 4 C-0.625 1.75 -0.625 1.75 0 0 Z " fill="#000000" transform="translate(206,447)"/>
<path d="M0 0 C0.66 0 1.32 0 2 0 C2.125 7.625 2.125 7.625 1 11 C0.01 11 -0.98 11 -2 11 C-1.85892253 9.54119891 -1.71197585 8.08296449 -1.5625 6.625 C-1.48128906 5.81289063 -1.40007812 5.00078125 -1.31640625 4.1640625 C-1 2 -1 2 0 0 Z " fill="#000000" transform="translate(209,427)"/>
<path d="M0 0 C0.99 0.33 1.98 0.66 3 1 C2.07347299 2.17539996 1.13336613 3.34010577 0.1875 4.5 C-0.33457031 5.1496875 -0.85664063 5.799375 -1.39453125 6.46875 C-3 8 -3 8 -6 8 C-4.55746343 4.63408134 -2.66735273 2.48952921 0 0 Z " fill="#000000" transform="translate(290,419)"/>
<path d="M0 0 C0.99 0.33 1.98 0.66 3 1 C1.35 4.3 -0.3 7.6 -2 11 C-2.66 10.67 -3.32 10.34 -4 10 C-2.8905928 6.51329166 -1.73662334 3.22515763 0 0 Z " fill="#000000" transform="translate(206,324)"/>
<path d="M0 0 C0.99 0.33 1.98 0.66 3 1 C2.34 2.32 1.68 3.64 1 5 C0.01 5 -0.98 5 -2 5 C-1.34 3.35 -0.68 1.7 0 0 Z " fill="#000000" transform="translate(324,379)"/>
<path d="M0 0 C0.99 0.66 1.98 1.32 3 2 C2.34 3.65 1.68 5.3 1 7 C0.01 6.67 -0.98 6.34 -2 6 C-1.34 4.02 -0.68 2.04 0 0 Z " fill="#000000" transform="translate(263,180)"/>
<path d="M0 0 C1.32 0 2.64 0 4 0 C4 0.99 4 1.98 4 3 C2.35 3 0.7 3 -1 3 C-0.67 2.01 -0.34 1.02 0 0 Z " fill="#000000" transform="translate(80,476)"/>
<path d="M0 0 C0.99 0.33 1.98 0.66 3 1 C2.67 1.99 2.34 2.98 2 4 C1.01 3.01 0.02 2.02 -1 1 C-0.67 0.67 -0.34 0.34 0 0 Z " fill="#000000" transform="translate(117,308)"/>
<path d="M0 0 C0.99 0.33 1.98 0.66 3 1 C2.67 1.99 2.34 2.98 2 4 C1.01 3.01 0.02 2.02 -1 1 C-0.67 0.67 -0.34 0.34 0 0 Z " fill="#000000" transform="translate(313,262)"/>
</svg>
