<svg width="573" height="563" viewBox="0 0 573 563" fill="none" xmlns="http://www.w3.org/2000/svg">
<path d="M127.574 3.24757C163.138 0.911235 174.625 15.6864 175.923 23.366L170.406 119.74L164.241 299.507C165.431 282.85 168.524 245.188 171.38 227.795C174.949 206.054 188.253 161.599 194.419 144.077C200.584 126.554 219.729 93.1316 232.059 77.8806C244.39 62.6295 256.396 53.8683 276.839 42.5111C297.282 31.154 332.327 34.0744 343.684 36.0213C355.041 37.9683 380.676 45.4315 400.145 64.5765C419.615 83.7214 423.509 96.3765 430.648 115.197C436.359 130.253 434.758 170.144 433.243 188.207L424.807 333.254C423.184 374.248 426.299 456.171 451.739 455.912C483.539 455.587 505.28 382.901 509.823 371.544C513.457 362.459 525.399 317.138 530.915 295.614C530.915 287.826 534.744 272.575 550.06 273.873C565.376 275.171 569.638 292.801 569.854 301.454C570.611 298.21 570.049 301.519 561.742 340.718C553.435 379.916 537.729 418.055 530.915 432.224C524.858 446.502 507.097 477.977 484.513 489.659C456.282 504.261 443.627 505.234 412.801 500.367C381.974 495.5 364.127 478.951 344.658 445.528C329.082 418.79 321.943 376.844 320.321 359.214C319.564 332.497 319.088 272.38 323.241 245.642C328.433 212.22 330.705 148.944 329.407 123.634C328.109 98.3235 319.023 86.3173 304.096 85.6684C289.17 85.0194 278.786 96.3765 265.157 110.654C251.529 124.932 226.543 191.777 223.298 199.564C220.702 205.795 209.021 247.805 203.504 268.032C194.743 292.044 183.386 367.001 179.817 387.12C176.961 403.215 173.868 447.042 172.678 466.944C169.217 473.759 154.831 487.322 124.978 487.063C87.6613 486.738 82.7939 463.375 78.5755 447.8C74.3572 432.224 69.1653 374.14 66.8939 341.042C65.0767 314.564 63.5408 225.307 63 183.989L66.2449 100.595C66.4612 87.399 68.711 55.1014 75.9796 31.4785C83.2482 7.85557 113.404 2.81499 127.574 3.24757Z" stroke="black" stroke-width="5"/>
<path d="M268.619 212.455V227H266.858V214.301H266.773L263.222 216.659V214.869L266.858 212.455H268.619ZM273.193 227.114C272.843 227.114 272.542 226.988 272.291 226.737C272.04 226.486 271.915 226.186 271.915 225.835C271.915 225.485 272.04 225.184 272.291 224.933C272.542 224.682 272.843 224.557 273.193 224.557C273.544 224.557 273.844 224.682 274.095 224.933C274.346 225.184 274.472 225.485 274.472 225.835C274.472 226.067 274.412 226.28 274.294 226.474C274.18 226.669 274.027 226.825 273.832 226.943C273.643 227.057 273.43 227.114 273.193 227.114ZM277.451 227V225.722L282.252 220.466C282.816 219.85 283.28 219.315 283.644 218.861C284.009 218.402 284.279 217.971 284.454 217.568C284.634 217.161 284.724 216.735 284.724 216.29C284.724 215.778 284.601 215.336 284.354 214.962C284.113 214.588 283.781 214.299 283.36 214.095C282.939 213.892 282.465 213.79 281.94 213.79C281.381 213.79 280.893 213.906 280.477 214.138C280.065 214.365 279.745 214.685 279.518 215.097C279.295 215.509 279.184 215.991 279.184 216.545H277.508C277.508 215.693 277.704 214.945 278.097 214.301C278.49 213.657 279.025 213.155 279.702 212.795C280.384 212.436 281.149 212.256 281.996 212.256C282.849 212.256 283.604 212.436 284.262 212.795C284.92 213.155 285.436 213.641 285.81 214.251C286.184 214.862 286.371 215.542 286.371 216.29C286.371 216.825 286.274 217.348 286.08 217.859C285.891 218.366 285.559 218.932 285.086 219.557C284.617 220.177 283.966 220.935 283.133 221.83L279.866 225.324V225.438H286.627V227H277.451Z" fill="black"/>
<path d="M410.619 543.455V558H408.858V545.301H408.773L405.222 547.659V545.869L408.858 543.455H410.619ZM415.193 558.114C414.843 558.114 414.542 557.988 414.291 557.737C414.04 557.486 413.915 557.186 413.915 556.835C413.915 556.485 414.04 556.184 414.291 555.933C414.542 555.682 414.843 555.557 415.193 555.557C415.544 555.557 415.844 555.682 416.095 555.933C416.346 556.184 416.472 556.485 416.472 556.835C416.472 557.067 416.412 557.28 416.294 557.474C416.18 557.669 416.027 557.825 415.832 557.943C415.643 558.057 415.43 558.114 415.193 558.114ZM419.451 558V556.722L424.252 551.466C424.816 550.85 425.28 550.315 425.644 549.861C426.009 549.402 426.279 548.971 426.454 548.568C426.634 548.161 426.724 547.735 426.724 547.29C426.724 546.778 426.601 546.336 426.354 545.962C426.113 545.588 425.781 545.299 425.36 545.095C424.939 544.892 424.465 544.79 423.94 544.79C423.381 544.79 422.893 544.906 422.477 545.138C422.065 545.365 421.745 545.685 421.518 546.097C421.295 546.509 421.184 546.991 421.184 547.545H419.508C419.508 546.693 419.704 545.945 420.097 545.301C420.49 544.657 421.025 544.155 421.702 543.795C422.384 543.436 423.149 543.256 423.996 543.256C424.849 543.256 425.604 543.436 426.262 543.795C426.92 544.155 427.436 544.641 427.81 545.251C428.184 545.862 428.371 546.542 428.371 547.29C428.371 547.825 428.274 548.348 428.08 548.859C427.891 549.366 427.559 549.932 427.086 550.557C426.617 551.177 425.966 551.935 425.133 552.83L421.866 556.324V556.438H428.627V558H419.451Z" fill="black"/>
<path d="M6.61932 217.455V232H4.85795V219.301H4.77273L1.22159 221.659V219.869L4.85795 217.455H6.61932ZM11.1932 232.114C10.8428 232.114 10.5421 231.988 10.2912 231.737C10.0402 231.486 9.91477 231.186 9.91477 230.835C9.91477 230.485 10.0402 230.184 10.2912 229.933C10.5421 229.682 10.8428 229.557 11.1932 229.557C11.5436 229.557 11.8442 229.682 12.0952 229.933C12.3461 230.184 12.4716 230.485 12.4716 230.835C12.4716 231.067 12.4124 231.28 12.294 231.474C12.1804 231.669 12.0265 231.825 11.8324 231.943C11.643 232.057 11.4299 232.114 11.1932 232.114ZM18.8263 217.455V232H17.065V219.301H16.9798L13.4286 221.659V219.869L17.065 217.455H18.8263Z" fill="black"/>
<path d="M49.6452 342.935C50.1616 343.131 50.739 342.871 50.935 342.355L54.1278 333.94C54.3237 333.424 54.0639 332.846 53.5476 332.65C53.0312 332.454 52.4538 332.714 52.2579 333.231L49.4198 340.71L41.9401 337.872C41.4238 337.676 40.8463 337.936 40.6504 338.452C40.4545 338.969 40.7143 339.546 41.2306 339.742L49.6452 342.935ZM39.596 121.873C36.2746 147.716 32.7614 189.73 33.0127 231.814C33.2637 273.849 37.2684 316.137 49.088 342.41L50.912 341.59C39.2818 315.737 35.2637 273.832 35.0127 231.802C34.762 189.821 38.2677 147.898 41.5796 122.127L39.596 121.873Z" fill="black"/>
<path d="M115 53V447C165 341.5 216.746 130.5 259 86.5C319.5 23.5 407.5 53 390.5 276C390.5 402 390.5 434.5 407.5 466.5C439.5 491.5 527.8 487.6 545 320" stroke="black" stroke-width="2" stroke-dasharray="10 10"/>
<path d="M309.406 209.527C309.973 210.131 310.923 210.161 311.527 209.594L321.369 200.354C321.973 199.787 322.003 198.837 321.436 198.233C320.869 197.629 319.919 197.599 319.315 198.166L310.567 206.38L302.353 197.631C301.786 197.027 300.837 196.997 300.233 197.564C299.629 198.132 299.599 199.081 300.166 199.685L309.406 209.527ZM240.338 201.678C246.69 189.14 254.559 175.46 262.715 163.975C270.919 152.423 279.253 143.325 286.49 139.664C290.066 137.854 293.164 137.477 295.804 138.527C298.467 139.586 301.041 142.244 303.222 147.346C307.605 157.595 310 176.765 309.001 208.453L311.999 208.548C313 176.835 310.645 157.076 305.981 146.167C303.639 140.69 300.615 137.212 296.913 135.739C293.187 134.258 289.152 134.955 285.135 136.987C277.184 141.009 268.487 150.665 260.269 162.238C252.003 173.878 244.06 187.694 237.662 200.322L240.338 201.678Z" fill="black"/>
<path d="M531.974 490.278C532.128 489.464 531.592 488.68 530.778 488.526L517.512 486.022C516.698 485.869 515.914 486.404 515.76 487.218C515.607 488.032 516.142 488.817 516.956 488.97L528.748 491.196L526.522 502.988C526.369 503.802 526.904 504.586 527.718 504.74C528.532 504.893 529.317 504.358 529.47 503.544L531.974 490.278ZM328.171 461.695C338.974 482.373 362.091 508.637 396.418 520.283C430.83 531.958 476.234 528.852 531.346 491.239L529.654 488.761C475.166 525.948 430.737 528.758 397.382 517.442C363.942 506.097 341.36 480.461 330.829 460.305L328.171 461.695Z" fill="black"/>
</svg>
