<?xml version="1.0" encoding="UTF-8"?>
<svg version="1.1" xmlns="http://www.w3.org/2000/svg" width="684" height="712">
<path d="M0 0 C3.47586823 2.86518069 6.78250646 5.84878442 10 9 C10.70447266 9.53786133 11.40894531 10.07572266 12.13476562 10.62988281 C14.79313675 14.00782351 14.29620524 16.8931978 13.9296875 20.96484375 C13.86981659 21.82053452 13.80994568 22.67622528 13.7482605 23.55784607 C13.52078131 26.70723305 13.25947818 29.85309084 13 33 C12.84861458 34.98068296 12.69730952 36.96137272 12.54794693 38.94220924 C11.77788605 49.15200958 10.95233959 59.35721308 10.125 69.5625 C6.71012579 111.74204749 3.63831792 153.90545017 1.8125 196.1875 C1.76916031 197.17390095 1.72582062 198.1603019 1.6811676 199.17659378 C-0.42042844 247.11525869 -0.42967978 295.02566766 0 343 C0.20749784 342.19154491 0.20749784 342.19154491 0.41918755 341.36675739 C1.05714222 338.8892036 1.70016605 336.41299168 2.34326172 333.93676758 C2.56072556 333.08911079 2.77818939 332.24145401 3.00224304 331.36811066 C4.86410785 324.2229162 7.2508314 317.49557183 10.125 310.6875 C10.59945557 309.54724365 11.07391113 308.4069873 11.56274414 307.23217773 C29.76643047 264.12039612 53.52427709 229.15590161 95 206 C95.61053223 205.65098633 96.22106445 205.30197266 96.85009766 204.94238281 C133.58072521 183.98380753 179.41331366 181.86208953 219.9375 192.3125 C244.56931544 199.11805448 267.07597353 210.45437102 285.8359375 227.9921875 C287.69125078 229.71354315 289.58720874 231.29657091 291.5625 232.875 C296.37819761 236.98018485 300.1167738 242.03628085 304 247 C304.73347656 247.89460938 305.46695312 248.78921875 306.22265625 249.7109375 C323.58027696 271.5686821 329.76434857 295.78412694 333 323 C333.11859375 323.91797363 333.2371875 324.83594727 333.359375 325.78173828 C335.25845312 340.81328076 335.23177839 355.93518312 335.3125 371.0625 C335.32212769 372.07226898 335.33175537 373.08203796 335.3416748 374.12240601 C335.49373071 392.75890008 334.38408694 411.52979655 329.3125 429.5625 C329.05903809 430.49465332 328.80557617 431.42680664 328.54443359 432.38720703 C322.66511879 453.37569079 314.44711394 473.43421207 303 492 C330.15035586 487.05519537 356.5061981 478.30955984 376 458 C376.77988281 457.27554687 377.55976562 456.55109375 378.36328125 455.8046875 C389.74988214 445.16640674 398.12203672 432.11962867 404.91455078 418.20507812 C406.01535684 415.96880274 407.15897158 413.75839136 408.30859375 411.546875 C415.32546078 397.76216457 420.55186499 382.89790935 422.8984375 367.56640625 C425.02935469 353.73527315 425.02935469 353.73527315 431.5625 348.5625 C434.7890625 346.6015625 434.7890625 346.6015625 438 345 C438.91523437 344.53335937 439.83046875 344.06671875 440.7734375 343.5859375 C448.38690864 340.30388396 456.77342346 339.39806905 464.765625 341.84765625 C476.35612963 347.09182629 482.47473099 356.53685458 487 368 C494.3642504 392.43420518 475.82334553 431.29526015 464.625 452.8125 C455.06972927 470.55328763 442.87449212 486.44920325 429 501 C427.89205078 502.18722656 427.89205078 502.18722656 426.76171875 503.3984375 C411.55928597 519.24009506 391.79498892 530.83820165 372 540 C370.91203125 540.51949219 369.8240625 541.03898438 368.703125 541.57421875 C341.32832791 554.05005331 307.91931553 561.3246601 277.8359375 561.015625 C270.06028725 560.79092031 270.06028725 560.79092031 263.2890625 564.15234375 C260.95816559 566.98840091 258.9880451 569.91633886 257 573 C247.7719 584.11606693 237.29137205 594.72794128 225.9453125 603.67578125 C223.74159348 605.41479029 221.57937805 607.17693409 219.4296875 608.98046875 C205.3356036 620.75049026 190.3346422 631.53861241 174 640 C173.32630371 640.34981934 172.65260742 640.69963867 171.95849609 641.06005859 C151.43503972 651.56010876 129.50057258 659.06789883 107 664 C106.04786621 664.21027832 105.09573242 664.42055664 104.11474609 664.63720703 C80.26214712 669.68256501 52.82703521 670.92352925 29 665 C28.3085791 664.82839355 27.6171582 664.65678711 26.90478516 664.47998047 C14.33330085 661.21530399 2.26832754 656.06797164 -8 648 C-9.03125 648.763125 -10.0625 649.52625 -11.125 650.3125 C-27.71886259 660.54199147 -50.72515664 656.34421493 -68.6015625 652.15625 C-82.08133729 648.42437917 -91.77984804 641.01314235 -101.56933594 631.39990234 C-102.81323936 630.18274496 -104.08047531 628.98952226 -105.3515625 627.80078125 C-130.49455761 603.87125115 -138.51938757 562.75197412 -142.9140625 529.78125 C-143.16626808 527.90755234 -143.16626808 527.90755234 -143.42356873 525.9960022 C-143.86745108 522.66644018 -144.3054775 519.33625219 -144.73863602 516.00528717 C-144.99457353 514.04163402 -145.25370674 512.07839822 -145.51290894 510.11517334 C-146.80970455 500.21368686 -147.98530653 490.30264796 -149.0625 480.375 C-149.14939087 479.57654663 -149.23628174 478.77809326 -149.32580566 477.95544434 C-153.1567194 442.38267396 -154.21911592 406.74238254 -155 371 C-155.01469157 370.33516318 -155.02938313 369.67032637 -155.0445199 368.98534298 C-155.75124385 336.99308856 -156.25902478 305.00039228 -156 273 C-155.99033203 271.69524719 -155.98066406 270.39049438 -155.97070312 269.04620361 C-155.89409117 260.21597129 -155.73167957 251.38999661 -155.5 242.5625 C-155.48220993 241.88030521 -155.46441986 241.19811043 -155.4460907 240.49524307 C-154.67199978 211.47482094 -152.70097743 182.5443094 -150.50747681 153.60059738 C-150.25418944 150.243035 -150.00585923 146.8851372 -149.75854492 143.52713013 C-148.12725411 121.52547579 -146.24601879 99.62496373 -142.93359375 77.8046875 C-142.8108886 76.99635656 -142.68818344 76.18802563 -142.56175995 75.35519981 C-135.82243949 31.58446513 -135.82243949 31.58446513 -125.9375 21.1875 C-125.44999268 20.67396973 -124.96248535 20.16043945 -124.46020508 19.63134766 C-123.4591138 18.58144243 -122.45351244 17.53581837 -121.44335938 16.49462891 C-120.12705683 15.13157002 -118.83554175 13.74468433 -117.546875 12.35546875 C-85.80045988 -21.02031536 -37.54222029 -28.25187681 0 0 Z M-76 -8 C-76.90105469 -7.72285156 -77.80210938 -7.44570312 -78.73046875 -7.16015625 C-92.21365343 -2.38715287 -103.67697364 7.38777839 -114 17 C-114.56058105 17.51046875 -115.12116211 18.0209375 -115.69873047 18.546875 C-124.42655586 26.61979496 -128.61241983 34.32259972 -131 46 C-131.35868164 47.72597412 -131.35868164 47.72597412 -131.72460938 49.48681641 C-136.63910355 73.57087151 -140.01439055 97.6781796 -141.97265625 122.17578125 C-142.14241006 124.25412302 -142.31233136 126.33245111 -142.48240662 128.4107666 C-143.02144709 135.04371974 -143.54330984 141.67796787 -144.0625 148.3125 C-144.15163666 149.44498043 -144.24077332 150.57746086 -144.33261108 151.74425888 C-146.58665463 180.41370686 -148.69059401 209.06169138 -149.5 237.8125 C-149.53392853 238.97915192 -149.56785706 240.14580383 -149.60281372 241.34780884 C-149.83540214 249.89786311 -149.94514084 258.44711384 -150 267 C-150.00533123 267.81736759 -150.01066246 268.63473518 -150.01615524 269.47687149 C-150.2278293 304.17868094 -149.8461861 338.86945514 -149.0625 373.5625 C-149.03383598 374.84846573 -149.00517197 376.13443146 -148.97563934 377.45936584 C-148.15272378 413.70203537 -146.4797699 449.69635282 -142.625 485.75 C-142.53011921 486.64587452 -142.43523842 487.54174904 -142.33748245 488.46477127 C-134.38722156 568.97247554 -134.38722156 568.97247554 -90.57421875 634.0078125 C-80.97236381 641.43868658 -71.90177978 645.59942871 -60 648 C-58.93007812 648.22429688 -57.86015625 648.44859375 -56.7578125 648.6796875 C-42.23608386 651.32329396 -25.62354338 652.11339945 -12.75 643.9375 C-10.59293452 642.50398719 -10.59293452 642.50398719 -9 641 C-9 640.34 -9 639.68 -9 639 C-5.25689366 640.24770211 -4.43237094 641.95393694 -2 645 C22.3246612 664.16734572 59.53875615 664.59527657 88.984375 661.3515625 C130.4033612 655.69354834 169.70679303 638.91365359 203 614 C203.60763184 613.54834473 204.21526367 613.09668945 204.84130859 612.63134766 C221.16268592 600.46876031 238.23785731 586.95267837 251 571 C251.44537109 570.45102051 251.89074219 569.90204102 252.34960938 569.33642578 C253.88679443 567.43880762 255.41395968 565.53358709 256.9375 563.625 C257.68422974 562.69506226 257.68422974 562.69506226 258.44604492 561.74633789 C261.10945665 558.73574303 261.10945665 558.73574303 262 555 C263.92972656 555.05220703 263.92972656 555.05220703 265.8984375 555.10546875 C321.281703 556.12954452 379.09818545 539.58224095 420 501 C421.22314431 499.97195847 422.45184283 498.9504673 423.6875 497.9375 C456.5360779 469.95195101 476.42950966 420.72226223 482 379 C482.27287021 368.75231203 477.53427294 359.86213284 470.609375 352.4375 C465.09636837 347.51326107 459.49421025 346.23514009 452.16796875 346.4765625 C444.78146593 347.69702043 437.33896741 351.7711144 432 357 C430.73908677 360.17513457 430.73908677 360.17513457 430.0625 363.875 C429.73942337 365.31044814 429.41375364 366.74531431 429.0859375 368.1796875 C428.91416992 368.95280273 428.74240234 369.72591797 428.56542969 370.52246094 C425.34454649 384.63538092 421.33225733 397.98083043 415 411 C414.62858887 411.78616699 414.25717773 412.57233398 413.87451172 413.38232422 C406.37582289 429.24978345 398.10506756 443.21103032 386 456 C384.86993246 457.32904106 383.74469921 458.66221211 382.625 460 C360.73029896 484.78739503 325.44954345 496.69025703 293.0625 498.88671875 C292.381875 498.92410156 291.70125 498.96148438 291 499 C291.4125 498.36835937 291.825 497.73671875 292.25 497.0859375 C297.11606788 489.54787699 301.74524283 481.89904022 306 474 C306.48122314 473.10909668 306.48122314 473.10909668 306.97216797 472.20019531 C320.97585262 445.7290352 329.06391399 415.09609033 329.203125 385.17578125 C329.21009399 384.16362045 329.21706299 383.15145966 329.22424316 382.10862732 C329.24159258 378.84320899 329.24796753 375.57796256 329.25 372.3125 C329.25100708 371.19629272 329.25201416 370.08008545 329.25305176 368.93005371 C329.2419739 350.76040794 328.53243206 333.00809961 326 315 C325.79914795 313.47270264 325.79914795 313.47270264 325.59423828 311.91455078 C320.91631845 277.38866732 301.95972294 247.54403149 274.875 225.9375 C251.69539127 208.40370859 225.74505936 198.00758601 197 194 C196.35047363 193.9057373 195.70094727 193.81147461 195.03173828 193.71435547 C187.79667058 192.77314001 180.53615031 192.75747884 173.25 192.75 C172.22604126 192.74848938 172.22604126 192.74848938 171.18139648 192.74694824 C159.24618519 192.75880118 147.71515481 193.64959107 136 196 C134.74445313 196.23203125 133.48890625 196.4640625 132.1953125 196.703125 C98.33778745 204.25994678 62.52654238 230.27901485 43.53125 259.23925781 C39.83813369 265.05543513 36.38278883 270.99910976 33 277 C32.53062012 277.82886719 32.06124023 278.65773438 31.57763672 279.51171875 C19.64118542 300.81755267 10.61940675 323.23681046 5 347 C4.72784668 348.13083008 4.45569336 349.26166016 4.17529297 350.42675781 C2.78803962 356.20867346 1.42330775 361.99570777 0.1015625 367.79296875 C-0.11161621 368.7264917 -0.32479492 369.66001465 -0.54443359 370.62182617 C-1.09407028 373.08750186 -1.09407028 373.08750186 -1 376 C-2.98 375.67 -4.96 375.34 -7 375 C-6.68459114 255.48197029 -6.68459114 255.48197029 -4.125 197 C-4.08412766 196.0505954 -4.04325531 195.1011908 -4.00114441 194.12301636 C-2.4657792 158.50338922 -0.34979184 122.88982081 2.76528931 87.37130737 C3.19189415 82.49327982 3.60027779 77.61370078 4.01171875 72.734375 C4.13543098 71.27220802 4.13543098 71.27220802 4.26164246 69.78050232 C5.07018956 60.21090963 5.86076341 50.64006961 6.60620117 41.06533813 C6.74205823 39.33478852 6.8806602 37.60445186 7.0222168 35.87435913 C7.21615832 33.49878023 7.40034856 31.12263733 7.58203125 28.74609375 C7.64010452 28.05980896 7.6981778 27.37352417 7.75801086 26.66644287 C8.35045252 18.62787249 8.35045252 18.62787249 5.1015625 11.59375 C-18.68076663 -8.51244623 -45.7992244 -17.47281158 -76 -8 Z " fill="#000000" transform="translate(196,18)"/>
<path d="M0 0 C18.61708641 14.47588412 24.84379907 42.21633199 27.70214844 64.32373047 C27.84185059 65.48412842 27.84185059 65.48412842 27.984375 66.66796875 C28.08008789 67.45316895 28.17580078 68.23836914 28.27441406 69.04736328 C33.97258867 122.54689156 25.45348277 183.62836361 8.984375 234.66796875 C1.28912199 234.01597407 -6.16324656 232.46949952 -13.70993042 230.88607788 C-44.45791747 224.46959773 -75.59922665 219.85804277 -107.015625 218.66796875 C-108.10746094 218.62542969 -109.19929688 218.58289063 -110.32421875 218.5390625 C-126.94891558 218.22139313 -143.87254556 219.18047925 -157.984375 228.55859375 C-158.6546875 228.9246875 -159.325 229.29078125 -160.015625 229.66796875 C-160.675625 229.33796875 -161.335625 229.00796875 -162.015625 228.66796875 C-111.05582565 87.41589334 -111.05582565 87.41589334 -83.6796875 55.88671875 C-80.55201317 52.20545307 -77.82786124 48.25995336 -75.078125 44.29296875 C-45.39303598 1.64791994 -45.39303598 1.64791994 -25.046875 -4.97265625 C-15.52708069 -6.65692755 -7.98113209 -5.27435279 0 0 Z M-56.28125 28.65625 C-62.52638367 36.67104227 -68.43724367 44.94662415 -74.34277344 53.21313477 C-77.14726512 57.13047261 -80.01019406 60.96978436 -83.02050781 64.73095703 C-115.96621876 106.06167442 -133.79130696 167.33051537 -151.015625 216.66796875 C-150.02989502 216.45648193 -149.04416504 216.24499512 -148.02856445 216.02709961 C-136.36814008 213.66782973 -125.07620704 213.14955524 -113.203125 213.23046875 C-112.25019562 213.23351013 -111.29726624 213.23655151 -110.31546021 213.23968506 C-74.69326499 213.40617676 -39.47796221 219.13808541 -4.6953125 226.55078125 C-1.35364391 227.2568533 1.54580826 227.66796875 4.984375 227.66796875 C11.53107327 200.99353135 17.0039478 174.26366203 20.296875 146.98046875 C20.37827728 146.30672211 20.45967957 145.63297546 20.54354858 144.93881226 C25.34759802 104.61492691 30.47051366 48.57877157 4.64892578 13.87304688 C-0.33350371 7.68510745 -5.46082782 1.56808917 -13.69140625 0.234375 C-31.91610256 0.20737545 -45.55468979 15.27386576 -56.28125 28.65625 Z " fill="#000000" transform="translate(354.015625,276.33203125)"/>
<path d="M0 0 C0.66 0.33 1.32 0.66 2 1 C1.4319486 11.44859719 0.56505168 21.81266175 -0.63671875 32.2109375 C-0.79890894 33.64506389 -0.96057513 35.07924962 -1.12176514 36.51348877 C-1.4639358 39.55629533 -1.80762563 42.59892367 -2.15255737 45.64141846 C-5.20518963 72.61045016 -8.00803982 99.59260191 -10.4375 126.625 C-10.56390889 128.02561488 -10.69032282 129.42622931 -10.81674194 130.82684326 C-13.28781328 156.08869534 -13.28781328 156.08869534 -14.0625 181.4375 C-14.05798828 182.27603516 -14.05347656 183.11457031 -14.04882812 183.97851562 C-14.03735844 185.9857103 -14.01944478 187.99286674 -14 190 C-13.46375 189.175 -12.9275 188.35 -12.375 187.5 C13.26057652 149.25694677 57.53110001 128.13059533 101.5390625 119.06640625 C103.35890035 118.70851547 105.17919906 118.35295832 107 118 C107.80791992 117.83483887 108.61583984 117.66967773 109.44824219 117.49951172 C135.07885084 112.43104575 165.47144068 112.35696068 191 118 C191.81549316 118.17160645 192.63098633 118.34321289 193.47119141 118.52001953 C232.72685333 126.93678245 271.02339931 147.2774991 293.7265625 181.40625 C300.79625015 192.44007775 306.60506422 203.65048748 311 216 C311.44085937 217.22847656 311.88171875 218.45695313 312.3359375 219.72265625 C330.1281887 271.64779653 320.47072918 330.56144338 306 382 C307.65 381.34 309.3 380.68 311 380 C311.33 380.99 311.66 381.98 312 383 C305.88 386.96 305.88 386.96 302.25 387.125 C298.96132899 385.48066449 298.27788442 383.36285375 297 380 C297 379.01 297 378.02 297 377 C297.99 377 298.98 377 300 377 C300.33 378.32 300.66 379.64 301 381 C301.66 381 302.32 381 303 381 C303.09667969 380.1234375 303.19335938 379.246875 303.29296875 378.34375 C304.15753984 372.29932307 305.82929946 366.41504852 307.3125 360.5 C309.57214671 351.338567 311.68835262 342.17435759 313.3125 332.875 C313.45921143 332.05064453 313.60592285 331.22628906 313.75708008 330.37695312 C316.37636765 314.67650051 317.38206537 299.02554721 317.3125 283.125 C317.31067719 282.25258667 317.30885437 281.38017334 317.30697632 280.48132324 C317.26122156 267.44285596 316.78602097 254.78114542 314 242 C313.83371094 241.18837402 313.66742187 240.37674805 313.49609375 239.54052734 C305.89167424 203.07451936 286.14219436 168.94753385 254.8125 147.875 C209.3003179 118.26326172 154.51107657 112.72557428 102 123 C57.33881924 132.55462771 15.20191392 153.54998436 -11 192 C-12.03690895 193.635753 -13.06216518 195.27912782 -14.0625 196.9375 C-15.0215625 198.4534375 -15.0215625 198.4534375 -16 200 C-16.66 200 -17.32 200 -18 200 C-20.31696839 139.65188487 -9.93636149 77.63069647 -3.0625 17.75 C-2.9609964 16.85755585 -2.8594928 15.96511169 -2.75491333 15.04562378 C-2.47845103 12.62874004 -2.19578347 10.2126905 -1.91015625 7.796875 C-1.75683838 6.49073242 -1.60352051 5.18458984 -1.44555664 3.83886719 C-1 1 -1 1 0 0 Z " fill="#000000" transform="translate(226,80)"/>
<path d="M0 0 C0.74583344 0.08181519 1.49166687 0.16363037 2.26010132 0.2479248 C27.25404556 3.00162421 52.12756795 6.83214983 77 10.5 C76.13882094 15.02880304 73.49166731 17.52768295 70.375 20.75 C69.33997643 21.83742982 68.30613542 22.92598634 67.2734375 24.015625 C66.73912109 24.57757568 66.20480469 25.13952637 65.65429688 25.71850586 C63.93049423 27.57485001 62.27162952 29.47621799 60.6171875 31.39453125 C43.01027345 51.64515528 22.76943292 71.09824447 -5 74.5 C-22.40558813 75.49358713 -38.51209463 73.85700951 -52.8125 62.8125 C-61.77148314 54.49030733 -65.32780561 44.06287302 -66.03125 32.1796875 C-65.9441677 21.9257472 -62.7858993 14.04022188 -55.5 6.875 C-40.89137406 -5.46724098 -17.58209146 -1.99725253 0 0 Z M-53.890625 13.2890625 C-58.9444856 19.44692177 -60.51274268 26.5008936 -60.24609375 34.40625 C-59.04249262 44.646412 -54.13313642 53.7158648 -46.046875 60.15625 C-31.99434064 69.3815779 -14.85584309 70.76260603 1.3503418 67.47314453 C15.50448493 64.06008874 26.62801569 56.93352245 36.84228516 46.66357422 C39.02126371 44.47867855 41.22045093 42.315937 43.42378235 40.15567017 C46.16480249 37.46530395 48.89492264 34.76396189 51.625 32.0625 C52.16454315 31.53035889 52.7040863 30.99821777 53.25997925 30.44995117 C54.81686731 28.91087593 56.36640587 27.36475796 57.9140625 25.81640625 C59.2745874 24.46204468 59.2745874 24.46204468 60.66259766 23.08032227 C62.84684639 20.66907045 64.4469618 18.34787818 66 15.5 C59.25221431 13.90461857 52.53653272 12.77550942 45.66796875 11.84375 C44.59613846 11.69595093 43.52430817 11.54815186 42.41999817 11.39587402 C40.15696012 11.08482834 37.89366366 10.77565758 35.63012695 10.46826172 C32.23506009 10.00646906 28.84113725 9.53689278 25.44726562 9.06640625 C15.30106586 7.67131074 5.15438562 6.33606873 -5.03515625 5.296875 C-5.80753128 5.21699341 -6.57990631 5.13711182 -7.37568665 5.05480957 C-22.62385413 3.57826837 -41.8551255 1.9000981 -53.890625 13.2890625 Z " fill="#000000" transform="translate(269,550.5)"/>
<path d="M0 0 C0.99 0 1.98 0 3 0 C2.99907821 0.65398081 2.99815641 1.30796162 2.99720669 1.98176003 C2.86935372 94.33051147 2.75469867 186.68093798 18 528 C18.66 527.01 19.32 526.02 20 525 C20.99 525 21.98 525 23 525 C21.8905928 528.48670834 20.73662334 531.77484237 19 535 C14.64477147 534.49357808 11.55760365 533.61588503 8 531 C8 530.34 8 529.68 8 529 C9.98 529.33 11.96 529.66 14 530 C13.89977539 529.43869385 13.79955078 528.8773877 13.69628906 528.29907227 C3.66651291 470.48002824 3.49549698 410.67983806 1.875 352.125 C1.85541985 351.4244751 1.83583969 350.7239502 1.8156662 350.00219727 C0.4328246 300.38893601 -0.15750035 250.78191995 -0.10353818 201.15061332 C-0.09613935 194.15070864 -0.09486661 187.15080573 -0.09374207 180.1508977 C-0.09159032 167.68287037 -0.08503971 155.21484984 -0.07543945 142.74682617 C-0.06616201 130.68497754 -0.05913281 118.62313081 -0.05493164 106.5612793 C-0.05466892 105.80912212 -0.05440619 105.05696494 -0.05413551 104.28201512 C-0.05282982 100.50607625 -0.05156627 96.73013737 -0.05032361 92.95419848 C-0.04007268 61.96946072 -0.02248719 30.98473142 0 0 Z " fill="#000000" transform="translate(12,76)"/>
<path d="M0 0 C0.99 0 1.98 0 3 0 C-6.18314436 29.87817304 -36.35344692 52.65887879 -62 68 C-62.60070312 68.36013184 -63.20140625 68.72026367 -63.8203125 69.09130859 C-103.53031541 92.6535462 -149.27364962 107.20976796 -195 113 C-195.69287109 113.0935376 -196.38574219 113.1870752 -197.09960938 113.28344727 C-222.85349606 116.34820392 -254.47884432 117.58756675 -277 103 C-279.375 100.78125 -279.375 100.78125 -281 99 C-281.66 100.98 -282.32 102.96 -283 105 C-283.99 104.67 -284.98 104.34 -286 104 C-285.34 100.7 -284.68 97.4 -284 94 C-279.93890631 92.98472658 -279.33033162 92.94569516 -275.75 94.4375 C-274.69039062 94.86869141 -274.69039062 94.86869141 -273.609375 95.30859375 C-273.07828125 95.53675781 -272.5471875 95.76492188 -272 96 C-272 96.66 -272 97.32 -272 98 C-273.65 98 -275.3 98 -277 98 C-270.19384653 103.27608796 -263.34731454 106.00823297 -255 108 C-254.27232422 108.17877686 -253.54464844 108.35755371 -252.79492188 108.54174805 C-243.68118496 110.51060287 -234.52660251 110.35371759 -225.25 110.3125 C-224.38151428 110.31034485 -223.51302856 110.3081897 -222.6182251 110.30596924 C-208.86383818 110.25122384 -195.54248854 109.55211475 -182 107 C-180.90139648 106.80132324 -179.80279297 106.60264648 -178.67089844 106.39794922 C-127.08746233 96.93602462 -74.06594795 77.85796654 -34 43 C-33.01386719 42.14792969 -32.02773438 41.29585937 -31.01171875 40.41796875 C-19.94566785 30.67885843 -11.35204022 19.73901899 -4 7 C-3.54367187 6.21625 -3.08734375 5.4325 -2.6171875 4.625 C-1.73234297 3.09044444 -0.8633139 1.54677074 0 0 Z " fill="#000000" transform="translate(463,598)"/>
<path d="M0 0 C4 6.625 4 6.625 4 10 C2.68 9.34 1.36 8.68 0 8 C0 7.34 0 6.68 0 6 C-0.66 6 -1.32 6 -2 6 C-2.12503906 7.01835937 -2.25007812 8.03671875 -2.37890625 9.0859375 C-6.08506734 32.4417451 -19.90389797 55.8466164 -35.9609375 72.83984375 C-37.85989326 74.85157275 -39.61421681 76.9303668 -41.375 79.0625 C-45.70633945 84.02258227 -50.80239779 87.98719721 -56 92 C-56.87785156 92.68191406 -57.75570312 93.36382812 -58.66015625 94.06640625 C-66.86459899 100.24088377 -76.20654463 106.70692919 -86 110 C-88.3125 109.625 -88.3125 109.625 -90 109 C-87.25653687 105.6400283 -83.52367056 104.22219651 -79.6875 102.4375 C-66.39706359 95.99570684 -55.58363609 87.19567289 -45 77 C-44.30648437 76.36964844 -43.61296875 75.73929687 -42.8984375 75.08984375 C-22.80750384 56.28043055 -12.18222011 30.96404349 -5 5 C-5.99 5.66 -6.98 6.32 -8 7 C-8.99 7 -9.98 7 -11 7 C-8.96914893 1.64593808 -5.57872788 0 0 0 Z " fill="#000000" transform="translate(613,381)"/>
<path d="M0 0 C1.27565071 -0.00855011 1.27565071 -0.00855011 2.57707214 -0.01727295 C4.36622903 -0.02666297 6.15540275 -0.03323285 7.94458008 -0.03710938 C10.65021558 -0.04681134 13.35508908 -0.07789045 16.06054688 -0.109375 C25.11983431 -0.16497171 33.24269213 0.05222813 41.85546875 3.203125 C58.41040879 8.3264049 78.61981013 11.83168471 95.85546875 8.203125 C94.86546875 7.543125 93.87546875 6.883125 92.85546875 6.203125 C92.85546875 5.543125 92.85546875 4.883125 92.85546875 4.203125 C97.25661272 4.70611288 99.56741894 6.29085231 102.85546875 9.203125 C102.35248087 13.60426897 100.76774144 15.91507519 97.85546875 19.203125 C96.37046875 18.708125 96.37046875 18.708125 94.85546875 18.203125 C95.84546875 16.553125 96.83546875 14.903125 97.85546875 13.203125 C96.94482666 13.18854248 96.03418457 13.17395996 95.09594727 13.15893555 C56.67746051 12.47154655 56.67746051 12.47154655 41.91796875 7.140625 C23.24667986 0.66791152 2.25394873 3.38447355 -17.14453125 4.203125 C-17.14453125 3.213125 -17.14453125 2.223125 -17.14453125 1.203125 C-11.39497879 0.3859131 -5.80384576 0.03086471 0 0 Z " fill="#000000" transform="translate(245.14453125,468.796875)"/>
<path d="M0 0 C-0.020625 1.051875 -0.04125 2.10375 -0.0625 3.1875 C-0.01103198 6.32704904 0.26517187 8.96883396 1 12 C-1.32902796 14.15650737 -2.39060303 15.01450945 -5.625 14.9375 C-8 14 -8 14 -9.3125 11.9375 C-9.539375 11.298125 -9.76625 10.65875 -10 10 C-9.01 10 -8.02 10 -7 10 C-7 10.66 -7 11.32 -7 12 C-5.68 11.67 -4.36 11.34 -3 11 C-3 10.34 -3 9.68 -3 9 C-3.99 8.67 -4.98 8.34 -6 8 C-6 7.01 -6 6.02 -6 5 C-5.01 4.67 -4.02 4.34 -3 4 C-3 3.34 -3 2.68 -3 2 C-3.99 2 -4.98 2 -6 2 C-6.33 2.66 -6.66 3.32 -7 4 C-7.99 3.67 -8.98 3.34 -10 3 C-9.67 2.01 -9.34 1.02 -9 0 C-5.93109813 -1.53445094 -3.29905734 -0.54984289 0 0 Z " fill="#000000" transform="translate(315,447)"/>
<path d="M0 0 C0.99 0 1.98 0 3 0 C3 3.3 3 6.6 3 10 C3.66 10 4.32 10 5 10 C5 10.66 5 11.32 5 12 C4.34 12 3.68 12 3 12 C3 12.99 3 13.98 3 15 C2.01 15 1.02 15 0 15 C0 14.01 0 13.02 0 12 C-2.31 12 -4.62 12 -7 12 C-5.52410328 7.57230983 -3.26930159 3.3663135 0 0 Z M-1 5 C-1.66 6.65 -2.32 8.3 -3 10 C-2.01 10 -1.02 10 0 10 C0 8.35 0 6.7 0 5 C-0.33 5 -0.66 5 -1 5 Z " fill="#000000" transform="translate(582,409)"/>
<path d="M0 0 C2.875 -0.125 2.875 -0.125 6 0 C6.66 0.66 7.32 1.32 8 2 C7.83754442 5.73647845 7.41216356 7.52538742 4.9375 10.375 C4.298125 10.91125 3.65875 11.4475 3 12 C4.65 12.33 6.3 12.66 8 13 C8 13.66 8 14.32 8 15 C4.7 15 1.4 15 -2 15 C0 11 0 11 2.125 8.4375 C4.30485538 6.11622611 4.30485538 6.11622611 4 3 C3.34 3 2.68 3 2 3 C1.67 3.66 1.34 4.32 1 5 C0.01 5 -0.98 5 -2 5 C-1.34 3.35 -0.68 1.7 0 0 Z " fill="#000000" transform="translate(368,690)"/>
<path d="M0 0 C2.875 -0.125 2.875 -0.125 6 0 C6.66 0.66 7.32 1.32 8 2 C7.83754442 5.73647845 7.41216356 7.52538742 4.9375 10.375 C4.298125 10.91125 3.65875 11.4475 3 12 C4.65 12.33 6.3 12.66 8 13 C8 13.66 8 14.32 8 15 C4.7 15 1.4 15 -2 15 C0 11 0 11 2.125 8.4375 C4.30485538 6.11622611 4.30485538 6.11622611 4 3 C3.34 3 2.68 3 2 3 C1.67 3.66 1.34 4.32 1 5 C0.01 5 -0.98 5 -2 5 C-1.34 3.35 -0.68 1.7 0 0 Z " fill="#000000" transform="translate(290,446)"/>
<path d="M0 0 C2.875 -0.125 2.875 -0.125 6 0 C6.66 0.66 7.32 1.32 8 2 C7.83754442 5.73647845 7.41216356 7.52538742 4.9375 10.375 C4.298125 10.91125 3.65875 11.4475 3 12 C4.65 12.33 6.3 12.66 8 13 C8 13.66 8 14.32 8 15 C4.7 15 1.4 15 -2 15 C0 11 0 11 2.125 8.4375 C4.30485538 6.11622611 4.30485538 6.11622611 4 3 C3.34 3 2.68 3 2 3 C1.67 3.66 1.34 4.32 1 5 C0.01 5 -0.98 5 -2 5 C-1.34 3.35 -0.68 1.7 0 0 Z " fill="#000000" transform="translate(560,409)"/>
<path d="M0 0 C2.875 -0.125 2.875 -0.125 6 0 C6.66 0.66 7.32 1.32 8 2 C7.83754442 5.73647845 7.41216356 7.52538742 4.9375 10.375 C4.298125 10.91125 3.65875 11.4475 3 12 C4.65 12.33 6.3 12.66 8 13 C8 13.66 8 14.32 8 15 C4.7 15 1.4 15 -2 15 C0 11 0 11 2.125 8.4375 C4.30485538 6.11622611 4.30485538 6.11622611 4 3 C3.34 3 2.68 3 2 3 C1.67 3.66 1.34 4.32 1 5 C0.01 5 -0.98 5 -2 5 C-1.34 3.35 -0.68 1.7 0 0 Z " fill="#000000" transform="translate(370,164)"/>
<path d="M0 0 C2.33944736 0.28730055 4.6739143 0.61936779 7 1 C7.36630156 4.93774177 7.30233203 6.56539771 5 9.875 C4.34 10.57625 3.68 11.2775 3 12 C4.65 12.33 6.3 12.66 8 13 C8 13.66 8 14.32 8 15 C4.7 15 1.4 15 -2 15 C-0.66837689 11.00513068 1.05840921 8.94159079 4 6 C4 5.01 4 4.02 4 3 C2.02 3.66 0.04 4.32 -2 5 C-1.125 1.125 -1.125 1.125 0 0 Z " fill="#000000" transform="translate(386,690)"/>
<path d="M0 0 C0 4.95 0 9.9 0 15 C-0.99 15 -1.98 15 -3 15 C-3 11.37 -3 7.74 -3 4 C-3.99 4.33 -4.98 4.66 -6 5 C-5.625 3.0625 -5.625 3.0625 -5 1 C-3 0 -3 0 0 0 Z " fill="#000000" transform="translate(7,250)"/>
<path d="M0 0 C0 4.95 0 9.9 0 15 C-0.99 15 -1.98 15 -3 15 C-3 11.37 -3 7.74 -3 4 C-3.99 4.33 -4.98 4.66 -6 5 C-5.625 3.0625 -5.625 3.0625 -5 1 C-3 0 -3 0 0 0 Z " fill="#000000" transform="translate(390,164)"/>
<path d="M0 0 C-0.804375 0.66 -1.60875 1.32 -2.4375 2 C-5.75148924 5.87979228 -5.74577025 8.00014825 -6 13 C-6.66 13 -7.32 13 -8 13 C-8.28330329 9.29187476 -8.44667785 5.69871052 -8 2 C-4.97112985 -0.94700879 -4.03082782 -1.34360927 0 0 Z " fill="#000000" transform="translate(136,559)"/>
<path d="M0 0 C-0.33 1.32 -0.66 2.64 -1 4 C-3.97 4.66 -6.94 5.32 -10 6 C-10.33 5.01 -10.66 4.02 -11 3 C-9.54293274 2.49632243 -8.08429904 1.99717444 -6.625 1.5 C-5.81289063 1.2215625 -5.00078125 0.943125 -4.1640625 0.65625 C-2 0 -2 0 0 0 Z " fill="#000000" transform="translate(329,637)"/>
<path d="M0 0 C3.63 0 7.26 0 11 0 C11.33 0.99 11.66 1.98 12 3 C8.04 3 4.08 3 0 3 C0 2.01 0 1.02 0 0 Z " fill="#000000" transform="translate(258,518)"/>
<path d="M0 0 C0.99 0.66 1.98 1.32 3 2 C1.35 4.97 -0.3 7.94 -2 11 C-2.99 10.67 -3.98 10.34 -5 10 C-3.35 6.7 -1.7 3.4 0 0 Z " fill="#000000" transform="translate(195,405)"/>
<path d="M0 0 C0.66 0.33 1.32 0.66 2 1 C1 4 1 4 -1.06640625 5.16796875 C-1.89011719 5.50441406 -2.71382813 5.84085937 -3.5625 6.1875 C-4.38878906 6.53167969 -5.21507812 6.87585938 -6.06640625 7.23046875 C-6.70449219 7.48441406 -7.34257812 7.73835938 -8 8 C-8.33 7.01 -8.66 6.02 -9 5 C-7.54735962 4.1361871 -6.0876837 3.28419546 -4.625 2.4375 C-3.40683594 1.72400391 -3.40683594 1.72400391 -2.1640625 0.99609375 C-1.44992187 0.66738281 -0.73578125 0.33867187 0 0 Z " fill="#000000" transform="translate(320,251)"/>
<path d="M0 0 C0 0.99 0 1.98 0 3 C-2.97 4.65 -5.94 6.3 -9 8 C-9 6.68 -9 5.36 -9 4 C-4 0 -4 0 0 0 Z " fill="#000000" transform="translate(152,546)"/>
<path d="M0 0 C0.66 0.99 1.32 1.98 2 3 C-4.5 6 -4.5 6 -9 6 C-9 5.01 -9 4.02 -9 3 C-6.03 2.01 -3.06 1.02 0 0 Z " fill="#000000" transform="translate(542,532)"/>
<path d="M0 0 C0 0.99 0 1.98 0 3 C-4.95 4.485 -4.95 4.485 -10 6 C-10.33 5.01 -10.66 4.02 -11 3 C-9.73160474 2.49384702 -8.46016898 1.99530901 -7.1875 1.5 C-6.12595703 1.08234375 -6.12595703 1.08234375 -5.04296875 0.65625 C-3 0 -3 0 0 0 Z " fill="#000000" transform="translate(189,529)"/>
<path d="M0 0 C5.445 1.485 5.445 1.485 11 3 C11 3.99 11 4.98 11 6 C7.7 5.34 4.4 4.68 1 4 C0.67 2.68 0.34 1.36 0 0 Z " fill="#000000" transform="translate(319,526)"/>
<path d="M0 0 C0.99 0 1.98 0 3 0 C2.43768609 3.93619738 1.38314183 6.79192446 -1 10 C-1.99 10 -2.98 10 -4 10 C-2.8905928 6.51329166 -1.73662334 3.22515763 0 0 Z " fill="#000000" transform="translate(141,514)"/>
<path d="M0 0 C0.66 0.33 1.32 0.66 2 1 C0.47291037 4.43595166 -1.59927045 7.11912454 -4 10 C-4.99 9.67 -5.98 9.34 -7 9 C-5.44499019 5.18315774 -2.96404505 2.80804268 0 0 Z " fill="#000000" transform="translate(591,500)"/>
<path d="M0 0 C0.99 0 1.98 0 3 0 C2.43768609 3.93619738 1.38314183 6.79192446 -1 10 C-1.99 10 -2.98 10 -4 10 C-2.8905928 6.51329166 -1.73662334 3.22515763 0 0 Z " fill="#000000" transform="translate(159,478)"/>
<path d="M0 0 C0.99 0 1.98 0 3 0 C1.66511872 3.59391114 0.03977277 6.75490696 -2 10 C-2.99 9.67 -3.98 9.34 -5 9 C-3.76067171 5.56801397 -2.49698489 2.69674368 0 0 Z " fill="#000000" transform="translate(224,353)"/>
<path d="M0 0 C3.55780196 0.60990891 6.6828589 1.5783681 10 3 C10 3.99 10 4.98 10 6 C6.1936543 5.32829194 2.64793184 4.27253436 -1 3 C-0.67 2.01 -0.34 1.02 0 0 Z " fill="#000000" transform="translate(409,248)"/>
<path d="M0 0 C3.63 0 7.26 0 11 0 C11 0.99 11 1.98 11 3 C7.37 3 3.74 3 0 3 C0 2.01 0 1.02 0 0 Z " fill="#000000" transform="translate(240,648)"/>
<path d="M0 0 C0 0.99 0 1.98 0 3 C-3.3 3.66 -6.6 4.32 -10 5 C-10.33 4.01 -10.66 3.02 -11 2 C-3.375 0 -3.375 0 0 0 Z " fill="#000000" transform="translate(310,643)"/>
<path d="M0 0 C-2.35735884 2.72957339 -4.58133526 3.88893396 -8 5 C-8.99 5 -9.98 5 -11 5 C-11 4.01 -11 3.02 -11 2 C-3.57142857 -1.57142857 -3.57142857 -1.57142857 0 0 Z " fill="#000000" transform="translate(348,631)"/>
<path d="M0 0 C0 0.66 0 1.32 0 2 C-6.625 6 -6.625 6 -10 6 C-10 5.01 -10 4.02 -10 3 C-3.375 -1.125 -3.375 -1.125 0 0 Z " fill="#000000" transform="translate(365,621)"/>
<path d="M0 0 C0.99 0.33 1.98 0.66 3 1 C1.55873214 4.36295835 -0.20592655 6.62927102 -3 9 C-3.99 9 -4.98 9 -6 9 C-4.47291037 5.56404834 -2.40072955 2.88087546 0 0 Z " fill="#000000" transform="translate(407,581)"/>
<path d="M0 0 C3.3 0.99 6.6 1.98 10 3 C10 3.99 10 4.98 10 6 C8.54096742 5.69078116 7.08279278 5.37751201 5.625 5.0625 C4.81289063 4.88847656 4.00078125 4.71445312 3.1640625 4.53515625 C1 4 1 4 -1 3 C-0.67 2.01 -0.34 1.02 0 0 Z " fill="#000000" transform="translate(339,533)"/>
<path d="M0 0 C0.99 0 1.98 0 3 0 C2.43768609 3.93619738 1.38314183 6.79192446 -1 10 C-1.99 10 -2.98 10 -4 10 C-2.8905928 6.51329166 -1.73662334 3.22515763 0 0 Z " fill="#000000" transform="translate(440,532)"/>
<path d="M0 0 C3.3 0.33 6.6 0.66 10 1 C10.33 2.32 10.66 3.64 11 5 C7.37 4.34 3.74 3.68 0 3 C0 2.01 0 1.02 0 0 Z " fill="#000000" transform="translate(299,522)"/>
<path d="M0 0 C0.99 0.33 1.98 0.66 3 1 C3 1.66 3 2.32 3 3 C0.03 4.65 -2.94 6.3 -6 8 C-6 6.68 -6 5.36 -6 4 C-3.1875 1.6875 -3.1875 1.6875 0 0 Z " fill="#000000" transform="translate(576,515)"/>
<path d="M0 0 C0.99 0.33 1.98 0.66 3 1 C2.07456291 2.34173403 1.13422595 3.67320159 0.1875 5 C-0.33457031 5.7425 -0.85664062 6.485 -1.39453125 7.25 C-1.92433594 7.8275 -2.45414063 8.405 -3 9 C-3.99 9 -4.98 9 -6 9 C-4.68775452 5.06326356 -3.08089673 2.77280706 0 0 Z " fill="#000000" transform="translate(603,485)"/>
<path d="M0 0 C0.66 0 1.32 0 2 0 C1.43768609 3.93619738 0.38314183 6.79192446 -2 10 C-2.99 10 -3.98 10 -5 10 C-3.85569823 6.12697862 -2.76679902 2.99736561 0 0 Z " fill="#000000" transform="translate(636,434)"/>
<path d="M0 0 C0.66 0.33 1.32 0.66 2 1 C1.43697042 4.94120709 0.3208055 7.7508723 -2 11 C-2.66 11 -3.32 11 -4 11 C-3.48964169 6.6109185 -2.47785723 3.66291938 0 0 Z " fill="#000000" transform="translate(186,423)"/>
<path d="M0 0 C0.99 0.33 1.98 0.66 3 1 C1.85569823 4.87302138 0.76679902 8.00263439 -2 11 C-2.66 11 -3.32 11 -4 11 C-3.39301257 6.87248551 -1.96189209 3.6678852 0 0 Z " fill="#000000" transform="translate(204,387)"/>
<path d="M0 0 C0.99 0 1.98 0 3 0 C3 3.63 3 7.26 3 11 C2.01 11 1.02 11 0 11 C0 7.37 0 3.74 0 0 Z " fill="#000000" transform="translate(477,379)"/>
<path d="M0 0 C0.99 0.33 1.98 0.66 3 1 C0.525 5.455 0.525 5.455 -2 10 C-2.99 10 -3.98 10 -5 10 C-3.84414715 6.08788267 -2.64465038 3.1254959 0 0 Z " fill="#000000" transform="translate(214,370)"/>
<path d="M0 0 C0.99 0 1.98 0 3 0 C3.33 3.63 3.66 7.26 4 11 C3.01 11 2.02 11 1 11 C0.67 7.37 0.34 3.74 0 0 Z " fill="#000000" transform="translate(474,339)"/>
<path d="M0 0 C0.66 0.33 1.32 0.66 2 1 C1.38545304 4.99455527 -0.70646737 7.74466336 -3 11 C-3.66 10.67 -4.32 10.34 -5 10 C-4.38545304 6.00544473 -2.29353263 3.25533664 0 0 Z " fill="#000000" transform="translate(235,335)"/>
<path d="M0 0 C0.99 0.33 1.98 0.66 3 1 C1.44499019 4.81684226 -1.03595495 7.19195732 -4 10 C-4.66 9.34 -5.32 8.68 -6 8 C-4.02 5.36 -2.04 2.72 0 0 Z " fill="#000000" transform="translate(258,303)"/>
<path d="M0 0 C0.99 0 1.98 0 3 0 C3.99 3.3 4.98 6.6 6 10 C5.01 10.33 4.02 10.66 3 11 C2.49384702 9.73160474 1.99530901 8.46016898 1.5 7.1875 C1.2215625 6.47980469 0.943125 5.77210938 0.65625 5.04296875 C0 3 0 3 0 0 Z " fill="#000000" transform="translate(464,301)"/>
<path d="M0 0 C0.99 0.33 1.98 0.66 3 1 C2.09827532 2.17825358 1.17798498 3.34231577 0.25 4.5 C-0.51570313 5.47453125 -0.51570313 5.47453125 -1.296875 6.46875 C-3 8 -3 8 -7 8 C-7 6 -7 6 -5.57421875 4.45703125 C-4.95160156 3.91433594 -4.32898438 3.37164062 -3.6875 2.8125 C-3.07261719 2.26207031 -2.45773437 1.71164062 -1.82421875 1.14453125 C-1.22222656 0.76683594 -0.62023437 0.38914062 0 0 Z " fill="#000000" transform="translate(286,274)"/>
<path d="M0 0 C0.8353125 0.37125 0.8353125 0.37125 1.6875 0.75 C-1.12054268 3.71404505 -3.49565774 6.19499019 -7.3125 7.75 C-7.3125 3.75 -7.3125 3.75 -5.0625 1.4375 C-2.3125 -0.25 -2.3125 -0.25 0 0 Z " fill="#000000" transform="translate(303.3125,262.25)"/>
<path d="M0 0 C4.455 0.99 4.455 0.99 9 2 C9.33 3.32 9.66 4.64 10 6 C5.545 5.01 5.545 5.01 1 4 C0.67 2.68 0.34 1.36 0 0 Z " fill="#000000" transform="translate(182,636)"/>
<path d="M0 0 C5.445 1.485 5.445 1.485 11 3 C10.67 3.99 10.34 4.98 10 6 C6.37 5.01 2.74 4.02 -1 3 C-0.67 2.01 -0.34 1.02 0 0 Z " fill="#000000" transform="translate(163,630)"/>
<path d="M0 0 C3.3 0.99 6.6 1.98 10 3 C9.67 3.99 9.34 4.98 9 6 C5.7 5.01 2.4 4.02 -1 3 C-0.67 2.01 -0.34 1.02 0 0 Z " fill="#000000" transform="translate(145,623)"/>
<path d="M0 0 C-1.49041773 3.79379058 -3.69062512 5.68343758 -7 8 C-7.66 8 -8.32 8 -9 8 C-9.33 7.01 -9.66 6.02 -10 5 C-8.90241493 4.15801693 -7.79664683 3.32669329 -6.6875 2.5 C-6.07261719 2.0359375 -5.45773437 1.571875 -4.82421875 1.09375 C-3 0 -3 0 0 0 Z " fill="#000000" transform="translate(381,609)"/>
<path d="M0 0 C0.99 0 1.98 0 3 0 C2.42636089 3.87206399 0.65894107 6.18465063 -2 9 C-2.99 9 -3.98 9 -5 9 C-3.76067171 5.56801397 -2.49698489 2.69674368 0 0 Z " fill="#000000" transform="translate(419,566)"/>
<path d="M0 0 C3.3 0 6.6 0 10 0 C10 0.99 10 1.98 10 3 C6.37 3 2.74 3 -1 3 C-0.67 2.01 -0.34 1.02 0 0 Z " fill="#000000" transform="translate(456,546)"/>
<path d="M0 0 C1.22589844 0.01353516 1.22589844 0.01353516 2.4765625 0.02734375 C3.41628906 0.04474609 3.41628906 0.04474609 4.375 0.0625 C4.375 1.0525 4.375 2.0425 4.375 3.0625 C0.745 3.3925 -2.885 3.7225 -6.625 4.0625 C-6.625 3.0725 -6.625 2.0825 -6.625 1.0625 C-4.21954362 -0.14022819 -2.67503047 -0.03821472 0 0 Z " fill="#000000" transform="translate(481.625,544.9375)"/>
<path d="M0 0 C3.63 0.33 7.26 0.66 11 1 C11 1.99 11 2.98 11 4 C7.37 3.67 3.74 3.34 0 3 C0 2.01 0 1.02 0 0 Z " fill="#000000" transform="translate(416,545)"/>
<path d="M0 0 C3.63 0.33 7.26 0.66 11 1 C11 1.99 11 2.98 11 4 C7.37 3.67 3.74 3.34 0 3 C0 2.01 0 1.02 0 0 Z " fill="#000000" transform="translate(377,541)"/>
<path d="M0 0 C0 0.66 0 1.32 0 2 C-3.87684087 3.19287411 -6.91621923 4 -11 4 C-11 3.01 -11 2.02 -11 1 C-3.375 -1.125 -3.375 -1.125 0 0 Z " fill="#000000" transform="translate(525,539)"/>
<path d="M0 0 C3.3 0.33 6.6 0.66 10 1 C10 1.99 10 2.98 10 4 C6.37 3.67 2.74 3.34 -1 3 C-0.67 2.01 -0.34 1.02 0 0 Z " fill="#000000" transform="translate(358,538)"/>
<path d="M0 0 C0 0.66 0 1.32 0 2 C-6.4 5.07692308 -6.4 5.07692308 -9.4375 4.6875 C-9.953125 4.460625 -10.46875 4.23375 -11 4 C-7.84441727 0.34616736 -4.73375145 -1.57791715 0 0 Z " fill="#000000" transform="translate(562,526)"/>
<path d="M0 0 C-0.33 0.99 -0.66 1.98 -1 3 C-4.3 3.66 -7.6 4.32 -11 5 C-11 4.01 -11 3.02 -11 2 C-7.17679443 0.57741188 -4.08718695 -0.24042276 0 0 Z " fill="#000000" transform="translate(209,524)"/>
<path d="M0 0 C0 0.99 0 1.98 0 3 C-3.67410785 4.17571451 -7.16929183 4.07366746 -11 4 C-10.67 3.01 -10.34 2.02 -10 1 C-6.56484998 0.37542727 -3.50935186 0 0 0 Z " fill="#000000" transform="translate(229,520)"/>
<path d="M0 0 C3.63 0.33 7.26 0.66 11 1 C11 1.99 11 2.98 11 4 C7.37 3.67 3.74 3.34 0 3 C0 2.01 0 1.02 0 0 Z " fill="#000000" transform="translate(279,519)"/>
<path d="M0 0 C0 0.99 0 1.98 0 3 C-3.67410785 4.17571451 -7.16929183 4.07366746 -11 4 C-11 3.01 -11 2.02 -11 1 C-3.375 0 -3.375 0 0 0 Z " fill="#000000" transform="translate(249,518)"/>
<path d="M0 0 C0.99 0.33 1.98 0.66 3 1 C1.68 4.3 0.36 7.6 -1 11 C-1.99 10.67 -2.98 10.34 -4 10 C-2.8905928 6.51329166 -1.73662334 3.22515763 0 0 Z " fill="#000000" transform="translate(449,514)"/>
<path d="M0 0 C0.99 0 1.98 0 3 0 C2.49287967 3.71888239 1.88391785 6.73454239 0 10 C-0.99 10 -1.98 10 -3 10 C-2.01 6.7 -1.02 3.4 0 0 Z " fill="#000000" transform="translate(456,496)"/>
<path d="M0 0 C0.66 0.33 1.32 0.66 2 1 C0.7508258 4.45925163 -0.67527795 7.14693203 -3 10 C-3.99 9.67 -4.98 9.34 -6 9 C-4.02 6.03 -2.04 3.06 0 0 Z " fill="#000000" transform="translate(615,468)"/>
<path d="M0 0 C0.66 0.33 1.32 0.66 2 1 C1.38545304 4.99455527 -0.70646737 7.74466336 -3 11 C-3.66 10.67 -4.32 10.34 -5 10 C-3.84414715 6.08788267 -2.64465038 3.1254959 0 0 Z " fill="#000000" transform="translate(626,451)"/>
<path d="M0 0 C0.99 0.33 1.98 0.66 3 1 C1.68 3.97 0.36 6.94 -1 10 C-1.99 10 -2.98 10 -4 10 C-3.43454163 6.04179141 -2.19097652 3.3340947 0 0 Z " fill="#000000" transform="translate(177,442)"/>
<path d="M0 0 C0.99 0 1.98 0 3 0 C3 3.3 3 6.6 3 10 C2.01 10.33 1.02 10.66 0 11 C0 7.37 0 3.74 0 0 Z " fill="#000000" transform="translate(476,399)"/>
<path d="M0 0 C0.99 0 1.98 0 3 0 C3.33 3.63 3.66 7.26 4 11 C3.01 11 2.02 11 1 11 C0.67 7.37 0.34 3.74 0 0 Z " fill="#000000" transform="translate(476,359)"/>
<path d="M0 0 C0.99 0 1.98 0 3 0 C3.66 3.3 4.32 6.6 5 10 C4.01 10.33 3.02 10.66 2 11 C1.34 7.37 0.68 3.74 0 0 Z " fill="#000000" transform="translate(470,320)"/>
<path d="M0 0 C0.99 0.33 1.98 0.66 3 1 C-0.625 7.75 -0.625 7.75 -4 10 C-4.33 9.01 -4.66 8.02 -5 7 C-4.00390625 5.17578125 -4.00390625 5.17578125 -2.5625 3.3125 C-2.08941406 2.68988281 -1.61632812 2.06726563 -1.12890625 1.42578125 C-0.75636719 0.95527344 -0.38382813 0.48476563 0 0 Z " fill="#000000" transform="translate(246,319)"/>
<path d="M0 0 C3 1 3 1 4.6875 3.875 C6 7 6 7 6 10 C3.60510457 9.25675659 2.29222384 8.52942646 1.06640625 6.30859375 C0.32780077 4.55926499 -0.34049685 2.78065851 -1 1 C-0.67 0.67 -0.34 0.34 0 0 Z " fill="#000000" transform="translate(456,283)"/>
<path d="M0 0 C1.15224028 0.92961422 2.29659176 1.8690125 3.4375 2.8125 C4.07558594 3.33457031 4.71367187 3.85664063 5.37109375 4.39453125 C7 6 7 6 8 9 C7.01 9.33 6.02 9.66 5 10 C3.96704564 8.90716423 2.94892165 7.80029421 1.9375 6.6875 C1.36902344 6.07261719 0.80054688 5.45773437 0.21484375 4.82421875 C-0.38650391 3.92123047 -0.38650391 3.92123047 -1 3 C-0.67 2.01 -0.34 1.02 0 0 Z " fill="#000000" transform="translate(444,267)"/>
<path d="M0 0 C1.22589844 0.01353516 1.22589844 0.01353516 2.4765625 0.02734375 C3.41628906 0.04474609 3.41628906 0.04474609 4.375 0.0625 C4.045 1.0525 3.715 2.0425 3.375 3.0625 C0.075 3.3925 -3.225 3.7225 -6.625 4.0625 C-6.625 3.0725 -6.625 2.0825 -6.625 1.0625 C-4.21954362 -0.14022819 -2.67503047 -0.03821472 0 0 Z " fill="#000000" transform="translate(355.625,240.9375)"/>
<path d="M0 0 C7.42857143 -0.14285714 7.42857143 -0.14285714 11 1 C11 1.99 11 2.98 11 4 C7.37 3.67 3.74 3.34 0 3 C0 2.01 0 1.02 0 0 Z " fill="#000000" transform="translate(369,240)"/>
<path d="M0 0 C0 0.99 0 1.98 0 3 C-3.3 3.33 -6.6 3.66 -10 4 C-10 3.01 -10 2.02 -10 1 C-6.52674819 -0.1577506 -3.63932552 -0.06866652 0 0 Z " fill="#000000" transform="translate(290,647)"/>
<path d="M0 0 C3.3 0.66 6.6 1.32 10 2 C9.67 2.99 9.34 3.98 9 5 C5.7 4.34 2.4 3.68 -1 3 C-0.67 2.01 -0.34 1.02 0 0 Z " fill="#000000" transform="translate(221,645)"/>
<path d="M0 0 C4.95 0.99 4.95 0.99 10 2 C10 2.99 10 3.98 10 5 C7.03 4.67 4.06 4.34 1 4 C0.67 2.68 0.34 1.36 0 0 Z " fill="#000000" transform="translate(201,641)"/>
<path d="M0 0 C0.66 0.33 1.32 0.66 2 1 C0.80100302 4.0831351 -0.47700477 7.06279492 -2 10 C-2.99 10 -3.98 10 -5 10 C-4.38545304 6.00544473 -2.29353263 3.25533664 0 0 Z " fill="#000000" transform="translate(431,549)"/>
<path d="M0 0 C0.66 0.33 1.32 0.66 2 1 C1.67 1.99 1.34 2.98 1 4 C-1.06640625 4.94921875 -1.06640625 4.94921875 -3.5625 5.6875 C-4.38878906 5.93886719 -5.21507812 6.19023438 -6.06640625 6.44921875 C-6.70449219 6.63097656 -7.34257812 6.81273437 -8 7 C-8 6.01 -8 5.02 -8 4 C-6.71349294 3.30289269 -5.42059335 2.61757124 -4.125 1.9375 C-3.40570313 1.55464844 -2.68640625 1.17179688 -1.9453125 0.77734375 C-1.30335938 0.52082031 -0.66140625 0.26429688 0 0 Z " fill="#000000" transform="translate(168,536)"/>
<path d="M0 0 C0.99 0.33 1.98 0.66 3 1 C2.34 4.3 1.68 7.6 1 11 C0.01 11 -0.98 11 -2 11 C-1.85892253 9.54119891 -1.71197585 8.08296449 -1.5625 6.625 C-1.48128906 5.81289063 -1.40007812 5.00078125 -1.31640625 4.1640625 C-1 2 -1 2 0 0 Z " fill="#000000" transform="translate(472,438)"/>
<path d="M0 0 C0.66 0 1.32 0 2 0 C1.52797514 4.24822374 -0.96655518 6.19989709 -4 9 C-4.99 8.67 -5.98 8.34 -7 8 C-6.02133662 6.85373678 -5.04205413 5.70800212 -4.0625 4.5625 C-3.51722656 3.92441406 -2.97195313 3.28632813 -2.41015625 2.62890625 C-1.63204305 1.73008851 -0.84063472 0.84063472 0 0 Z " fill="#000000" transform="translate(272,288)"/>
<path d="M0 0 C3.48670834 1.1094072 6.77484237 2.26337666 10 4 C10 4.99 10 5.98 10 7 C6.33118845 6.29445932 3.29549466 4.72264494 0 3 C0 2.01 0 1.02 0 0 Z " fill="#000000" transform="translate(427,256)"/>
<path d="M0 0 C0.33 0.99 0.66 1.98 1 3 C-4.445 4.485 -4.445 4.485 -10 6 C-10 5.01 -10 4.02 -10 3 C-8.70990357 2.49596232 -7.41786211 1.99690074 -6.125 1.5 C-5.04605469 1.08234375 -5.04605469 1.08234375 -3.9453125 0.65625 C-2 0 -2 0 0 0 Z " fill="#000000" transform="translate(340,244)"/>
<path d="M0 0 C1.48206495 0.254496 2.96068615 0.52911762 4.4375 0.8125 C5.67306641 1.03873047 5.67306641 1.03873047 6.93359375 1.26953125 C7.61550781 1.51058594 8.29742187 1.75164062 9 2 C9.33 2.99 9.66 3.98 10 5 C8.54119891 4.85892253 7.08296449 4.71197585 5.625 4.5625 C4.40683594 4.44068359 4.40683594 4.44068359 3.1640625 4.31640625 C1 4 1 4 -1 3 C-0.67 2.01 -0.34 1.02 0 0 Z " fill="#000000" transform="translate(390,242)"/>
<path d="M0 0 C-1.44126786 3.36295835 -3.20592655 5.62927102 -6 8 C-6.99 8 -7.98 8 -9 8 C-7.13554727 3.64961029 -5.02378599 0 0 0 Z " fill="#000000" transform="translate(396,596)"/>
<path d="M0 0 C3.3 0 6.6 0 10 0 C10 0.99 10 1.98 10 3 C6.7 3 3.4 3 0 3 C0 2.01 0 1.02 0 0 Z " fill="#000000" transform="translate(436,546)"/>
<path d="M0 0 C3.3 0.33 6.6 0.66 10 1 C10 1.99 10 2.98 10 4 C8.741875 4.04125 7.48375 4.0825 6.1875 4.125 C5.47980469 4.14820313 4.77210938 4.17140625 4.04296875 4.1953125 C2 4 2 4 -1 2 C-0.67 1.34 -0.34 0.68 0 0 Z " fill="#000000" transform="translate(397,543)"/>
<path d="M0 0 C0.66 0 1.32 0 2 0 C1.53199289 4.05606165 1.12046792 7.46588679 -1 11 C-1.66 10.67 -2.32 10.34 -3 10 C-2.69201674 8.51988629 -2.378482 7.04092675 -2.0625 5.5625 C-1.88847656 4.73878906 -1.71445312 3.91507812 -1.53515625 3.06640625 C-1 1 -1 1 0 0 Z " fill="#000000" transform="translate(463,477)"/>
<path d="M0 0 C0.99 0 1.98 0 3 0 C1.8905928 3.48670834 0.73662334 6.77484237 -1 10 C-1.99 10 -2.98 10 -4 10 C-2.8905928 6.51329166 -1.73662334 3.22515763 0 0 Z " fill="#000000" transform="translate(168,460)"/>
<path d="M0 0 C0.99 0.33 1.98 0.66 3 1 C2.01 4.3 1.02 7.6 0 11 C-0.66 10.67 -1.32 10.34 -2 10 C-1.85950482 8.52031676 -1.71245174 7.04125484 -1.5625 5.5625 C-1.48128906 4.73878906 -1.40007812 3.91507812 -1.31640625 3.06640625 C-1 1 -1 1 0 0 Z " fill="#000000" transform="translate(468,458)"/>
<path d="M0 0 C0.99 0 1.98 0 3 0 C2.49287967 3.71888239 1.88391785 6.73454239 0 10 C-0.99 10 -1.98 10 -3 10 C-2.01 6.7 -1.02 3.4 0 0 Z " fill="#000000" transform="translate(643,416)"/>
<path d="M0 0 C3.63 0 7.26 0 11 0 C11 0.66 11 1.32 11 2 C7.32589215 3.17571451 3.83070817 3.07366746 0 3 C0 2.01 0 1.02 0 0 Z " fill="#000000" transform="translate(260,649)"/>
<path d="M0 0 C0 0.99 0 1.98 0 3 C-3.47325181 4.1577506 -6.36067448 4.06866652 -10 4 C-9.67 3.01 -9.34 2.02 -9 1 C-5.94152152 0.45627049 -3.11227195 0 0 0 Z " fill="#000000" transform="translate(505,542)"/>
<path d="M0 0 C0.66 0 1.32 0 2 0 C1.43454163 3.95820859 0.19097652 6.6659053 -2 10 C-2.99 9.67 -3.98 9.34 -5 9 C-3.35 6.03 -1.7 3.06 0 0 Z " fill="#000000" transform="translate(151,496)"/>
<path d="M0 0 C0.99 0.33 1.98 0.66 3 1 C2.67 3.64 2.34 6.28 2 9 C0.68 9.33 -0.64 9.66 -2 10 C-1.34 6.7 -0.68 3.4 0 0 Z " fill="#000000" transform="translate(475,419)"/>
<path d="M0 0 C0.66 0 1.32 0 2 0 C2 3.63 2 7.26 2 11 C1.34 11 0.68 11 0 11 C0 7.37 0 3.74 0 0 Z " fill="#000000" transform="translate(128,601)"/>
<path d="M0 0 C0.66 0 1.32 0 2 0 C2 3.63 2 7.26 2 11 C1.34 11 0.68 11 0 11 C0 7.37 0 3.74 0 0 Z " fill="#000000" transform="translate(128,581)"/>
<path d="M0 0 C0.66 0 1.32 0 2 0 C2 3.63 2 7.26 2 11 C1.34 11 0.68 11 0 11 C0 7.37 0 3.74 0 0 Z " fill="#000000" transform="translate(128,540)"/>
<path d="M0 0 C0.66 0 1.32 0 2 0 C2 3.63 2 7.26 2 11 C1.34 11 0.68 11 0 11 C0 7.37 0 3.74 0 0 Z " fill="#000000" transform="translate(128,520)"/>
<path d="M0 0 C0.66 0 1.32 0 2 0 C2 3.63 2 7.26 2 11 C1.34 11 0.68 11 0 11 C0 7.37 0 3.74 0 0 Z " fill="#000000" transform="translate(128,500)"/>
<path d="M0 0 C0.66 0 1.32 0 2 0 C2 3.63 2 7.26 2 11 C1.34 11 0.68 11 0 11 C0 7.37 0 3.74 0 0 Z " fill="#000000" transform="translate(128,480)"/>
<path d="M0 0 C0.66 0 1.32 0 2 0 C2 3.63 2 7.26 2 11 C1.34 11 0.68 11 0 11 C0 7.37 0 3.74 0 0 Z " fill="#000000" transform="translate(128,460)"/>
<path d="M0 0 C0.66 0 1.32 0 2 0 C2 3.63 2 7.26 2 11 C1.34 11 0.68 11 0 11 C0 7.37 0 3.74 0 0 Z " fill="#000000" transform="translate(128,440)"/>
<path d="M0 0 C0.66 0 1.32 0 2 0 C2 3.63 2 7.26 2 11 C1.34 11 0.68 11 0 11 C0 7.37 0 3.74 0 0 Z " fill="#000000" transform="translate(128,420)"/>
<path d="M0 0 C0.66 0 1.32 0 2 0 C2 3.63 2 7.26 2 11 C1.34 11 0.68 11 0 11 C0 7.37 0 3.74 0 0 Z " fill="#000000" transform="translate(128,379)"/>
<path d="M0 0 C0.66 0 1.32 0 2 0 C2 3.63 2 7.26 2 11 C1.34 11 0.68 11 0 11 C0 7.37 0 3.74 0 0 Z " fill="#000000" transform="translate(128,359)"/>
<path d="M0 0 C0.66 0 1.32 0 2 0 C2 3.63 2 7.26 2 11 C1.34 11 0.68 11 0 11 C0 7.37 0 3.74 0 0 Z " fill="#000000" transform="translate(128,339)"/>
<path d="M0 0 C0.66 0 1.32 0 2 0 C2 3.63 2 7.26 2 11 C1.34 11 0.68 11 0 11 C0 7.37 0 3.74 0 0 Z " fill="#000000" transform="translate(128,319)"/>
<path d="M0 0 C0.66 0 1.32 0 2 0 C2 3.63 2 7.26 2 11 C1.34 11 0.68 11 0 11 C0 7.37 0 3.74 0 0 Z " fill="#000000" transform="translate(128,299)"/>
<path d="M0 0 C0.66 0 1.32 0 2 0 C2 3.63 2 7.26 2 11 C1.34 11 0.68 11 0 11 C0 7.37 0 3.74 0 0 Z " fill="#000000" transform="translate(128,279)"/>
<path d="M0 0 C0.66 0 1.32 0 2 0 C2 3.63 2 7.26 2 11 C1.34 11 0.68 11 0 11 C0 7.37 0 3.74 0 0 Z " fill="#000000" transform="translate(128,238)"/>
<path d="M0 0 C0.66 0 1.32 0 2 0 C2 3.63 2 7.26 2 11 C1.34 11 0.68 11 0 11 C0 7.37 0 3.74 0 0 Z " fill="#000000" transform="translate(128,218)"/>
<path d="M0 0 C0.66 0 1.32 0 2 0 C2 3.63 2 7.26 2 11 C1.34 11 0.68 11 0 11 C0 7.37 0 3.74 0 0 Z " fill="#000000" transform="translate(128,198)"/>
<path d="M0 0 C0.66 0 1.32 0 2 0 C2 3.63 2 7.26 2 11 C1.34 11 0.68 11 0 11 C0 7.37 0 3.74 0 0 Z " fill="#000000" transform="translate(128,178)"/>
<path d="M0 0 C0.66 0 1.32 0 2 0 C2 3.63 2 7.26 2 11 C1.34 11 0.68 11 0 11 C0 7.37 0 3.74 0 0 Z " fill="#000000" transform="translate(128,158)"/>
<path d="M0 0 C0.66 0 1.32 0 2 0 C2 3.63 2 7.26 2 11 C1.34 11 0.68 11 0 11 C0 7.37 0 3.74 0 0 Z " fill="#000000" transform="translate(128,138)"/>
<path d="M0 0 C0.66 0 1.32 0 2 0 C2 3.63 2 7.26 2 11 C1.34 11 0.68 11 0 11 C0 7.37 0 3.74 0 0 Z " fill="#000000" transform="translate(128,118)"/>
<path d="M0 0 C0.66 0 1.32 0 2 0 C2 3.63 2 7.26 2 11 C1.34 11 0.68 11 0 11 C0 7.37 0 3.74 0 0 Z " fill="#000000" transform="translate(128,97)"/>
<path d="M0 0 C0.66 0 1.32 0 2 0 C2 3.63 2 7.26 2 11 C1.34 11 0.68 11 0 11 C0 7.37 0 3.74 0 0 Z " fill="#000000" transform="translate(128,77)"/>
<path d="M0 0 C0.66 0 1.32 0 2 0 C2 3.63 2 7.26 2 11 C1.34 11 0.68 11 0 11 C0 7.37 0 3.74 0 0 Z " fill="#000000" transform="translate(128,57)"/>
<path d="M0 0 C0.66 0 1.32 0 2 0 C2 3.3 2 6.6 2 10 C1.34 10 0.68 10 0 10 C0 6.7 0 3.4 0 0 Z " fill="#000000" transform="translate(128,400)"/>
<path d="M0 0 C0.66 0 1.32 0 2 0 C2 3.3 2 6.6 2 10 C1.34 10 0.68 10 0 10 C0 6.7 0 3.4 0 0 Z " fill="#000000" transform="translate(128,259)"/>
<path d="M0 0 C0.99 0.66 1.98 1.32 3 2 C2.34 3.32 1.68 4.64 1 6 C0.01 6 -0.98 6 -2 6 C-1.49396008 3.83125748 -1.00016187 2.00032373 0 0 Z " fill="#000000" transform="translate(132,531)"/>
<path d="M0 0 C1.65 0.33 3.3 0.66 5 1 C5 1.99 5 2.98 5 4 C3.35 3.67 1.7 3.34 0 3 C0 2.01 0 1.02 0 0 Z " fill="#000000" transform="translate(131,617)"/>
<path d="M0 0 C0.66 0 1.32 0 2 0 C2 1.98 2 3.96 2 6 C1.01 6 0.02 6 -1 6 C-0.67 4.02 -0.34 2.04 0 0 Z " fill="#000000" transform="translate(647,401)"/>
<path d="M0 0 C0.66 0 1.32 0 2 0 C2 1.98 2 3.96 2 6 C1.34 6 0.68 6 0 6 C0 4.02 0 2.04 0 0 Z " fill="#000000" transform="translate(128,621)"/>
<path d="M0 0 C0.66 0 1.32 0 2 0 C2 1.98 2 3.96 2 6 C1.34 6 0.68 6 0 6 C0 4.02 0 2.04 0 0 Z " fill="#000000" transform="translate(128,42)"/>
<path d="M0 0 C0.99 0.33 1.98 0.66 3 1 C2.67 1.99 2.34 2.98 2 4 C1.01 3.67 0.02 3.34 -1 3 C-0.67 2.01 -0.34 1.02 0 0 Z " fill="#000000" transform="translate(379,702)"/>
<path d="M0 0 C0.99 0.33 1.98 0.66 3 1 C2.67 1.99 2.34 2.98 2 4 C1.01 3.67 0.02 3.34 -1 3 C-0.67 2.01 -0.34 1.02 0 0 Z " fill="#000000" transform="translate(301,458)"/>
<path d="M0 0 C0.99 0.33 1.98 0.66 3 1 C2.67 1.99 2.34 2.98 2 4 C1.01 3.67 0.02 3.34 -1 3 C-0.67 2.01 -0.34 1.02 0 0 Z " fill="#000000" transform="translate(571,421)"/>
<path d="M0 0 C0.99 0.33 1.98 0.66 3 1 C2.67 1.99 2.34 2.98 2 4 C1.01 3.67 0.02 3.34 -1 3 C-0.67 2.01 -0.34 1.02 0 0 Z " fill="#000000" transform="translate(381,176)"/>
</svg>
