<?xml version="1.0" standalone="no"?>
<!DOCTYPE svg PUBLIC "-//W3C//DTD SVG 20010904//EN"
 "http://www.w3.org/TR/2001/REC-SVG-20010904/DTD/svg10.dtd">
<svg version="1.0" xmlns="http://www.w3.org/2000/svg"
 width="643.000000pt" height="728.000000pt" viewBox="0 0 643.000000 728.000000"
 preserveAspectRatio="xMidYMid meet">

<g transform="translate(0.000000,728.000000) scale(0.100000,-0.100000)"
fill="#000000" stroke="none">
<path d="M1739 7255 c-634 -99 -1080 -525 -1317 -1255 -140 -431 -202 -901
-202 -1523 0 -315 5 -355 63 -522 133 -378 463 -774 867 -1037 558 -365 1163
-433 1599 -180 258 150 446 376 600 722 l33 75 14 -33 c8 -18 19 -30 24 -27 5
3 1 24 -9 48 -19 43 -29 47 -78 32 l-23 -7 26 58 c42 94 73 181 110 304 l35
115 -5 -400 c-5 -387 -20 -751 -34 -851 l-7 -48 -574 -247 c-328 -142 -619
-274 -680 -309 -332 -190 -562 -443 -617 -677 -13 -55 -15 -106 -11 -263 7
-266 35 -383 122 -514 74 -112 237 -246 394 -326 208 -104 504 -157 735 -131
416 48 792 215 1042 465 190 191 470 648 651 1066 106 244 199 556 223 750 6
52 13 109 16 126 4 26 22 42 132 117 151 102 306 224 457 358 215 190 344 338
490 559 337 510 536 971 600 1393 16 101 16 113 0 185 -23 101 -59 176 -110
228 -55 55 -96 67 -209 62 -99 -4 -174 -31 -201 -72 -8 -12 -28 -90 -45 -175
-46 -224 -91 -381 -166 -569 -197 -502 -462 -924 -755 -1207 l-104 -100 -5
1680 c-5 1636 -6 1682 -24 1710 -31 48 -129 137 -190 174 -124 74 -282 109
-420 91 -107 -13 -364 -58 -411 -71 -174 -49 -257 -167 -325 -464 -33 -140
-28 -133 -58 -94 -57 75 -202 215 -295 285 -116 88 -306 184 -422 214 -240 62
-615 42 -964 -51 -213 -56 -326 -111 -470 -226 -253 -202 -422 -408 -546 -667
-181 -376 -256 -704 -257 -1121 0 -518 100 -910 327 -1274 212 -340 571 -683
810 -775 213 -81 411 -119 630 -119 477 -1 765 187 1039 679 49 88 81 124 111
124 7 0 -5 -28 -62 -150 -171 -363 -445 -627 -754 -725 -150 -47 -238 -58
-429 -52 -189 6 -277 21 -449 78 -672 221 -1281 843 -1407 1439 -17 79 -19
545 -4 775 69 1045 366 1750 882 2095 162 109 328 178 526 221 127 27 415 37
574 19 315 -35 648 -138 968 -300 75 -39 140 -70 144 -70 47 0 -241 148 -424
218 -216 83 -462 146 -670 172 -115 14 -406 11 -511 -5z m2663 -216 c117 -25
260 -113 331 -205 l37 -47 0 -1719 c0 -945 3 -1718 6 -1718 16 0 147 117 240
212 152 157 302 359 437 589 135 230 313 639 376 861 23 84 101 432 101 453 0
3 19 15 43 27 35 19 57 23 143 23 93 0 103 -2 135 -27 46 -35 96 -130 115
-218 13 -62 13 -82 -1 -173 -63 -427 -317 -992 -662 -1475 -184 -256 -517
-564 -873 -804 -74 -50 -136 -92 -138 -94 -2 -1 -8 -46 -13 -100 -46 -462
-287 -1045 -662 -1603 -180 -268 -345 -415 -607 -540 -255 -122 -588 -194
-815 -176 -251 19 -445 83 -635 209 -184 123 -293 271 -335 456 -26 111 -32
423 -11 513 54 230 282 471 631 667 33 18 323 147 644 286 321 139 588 258
592 266 23 42 48 656 51 1298 l3 425 -21 3 c-20 3 -23 -3 -29 -60 -69 -645
-411 -1290 -785 -1478 -282 -142 -737 -135 -1120 17 -109 44 -260 156 -417
311 -322 317 -534 693 -617 1091 -46 220 -51 282 -51 591 0 330 13 438 81 672
130 452 312 752 617 1015 165 143 238 188 387 241 348 122 829 163 1091 91
111 -30 285 -119 396 -203 116 -87 258 -232 327 -334 27 -39 50 -71 52 -69 1
1 13 59 28 129 73 353 137 473 278 526 30 11 131 34 224 50 183 32 338 39 426
21z"/>
<path d="M3923 6726 c4 -10 7 -22 7 -27 0 -5 5 -9 11 -9 15 0 7 43 -10 48 -10
3 -12 0 -8 -12z"/>
<path d="M1970 6640 c-25 -3 -45 -9 -45 -15 0 -9 85 -8 94 0 12 12 -11 19 -49
15z"/>
<path d="M2120 6640 c0 -5 23 -10 50 -10 28 0 50 5 50 10 0 6 -22 10 -50 10
-27 0 -50 -4 -50 -10z"/>
<path d="M2320 6632 c0 -11 33 -22 68 -22 12 0 22 5 22 10 0 6 -6 10 -14 10
-7 0 -28 3 -45 6 -18 4 -31 2 -31 -4z"/>
<path d="M1763 6598 c-37 -12 -46 -34 -10 -24 12 4 34 9 50 12 30 7 37 25 10
23 -10 -1 -33 -6 -50 -11z"/>
<path d="M2510 6602 c0 -15 8 -19 58 -27 52 -8 58 10 6 19 -19 4 -42 10 -50
13 -8 3 -14 0 -14 -5z"/>
<path d="M3974 6578 c4 -13 9 -35 12 -50 6 -27 24 -39 24 -17 0 25 -24 89 -33
89 -5 0 -6 -10 -3 -22z"/>
<path d="M1593 6530 c-24 -10 -43 -24 -43 -30 0 -14 5 -13 50 10 22 11 40 25
40 30 0 13 3 13 -47 -10z"/>
<path d="M2700 6545 c0 -6 38 -22 75 -31 41 -10 28 12 -14 24 -42 13 -61 15
-61 7z"/>
<path d="M2890 6481 c0 -10 61 -41 81 -41 20 0 7 19 -18 28 -16 5 -36 13 -45
17 -11 4 -18 3 -18 -4z"/>
<path d="M1418 6424 c-21 -15 -35 -31 -32 -36 6 -9 83 41 84 55 0 13 -14 8
-52 -19z"/>
<path d="M3070 6402 c0 -12 78 -47 86 -39 3 3 -12 15 -35 26 -45 23 -51 25
-51 13z"/>
<path d="M2459 6389 c-249 -26 -381 -153 -482 -464 -152 -465 -174 -627 -164
-1215 8 -474 29 -649 102 -876 99 -303 255 -467 447 -467 192 0 387 194 567
562 52 108 98 229 185 490 132 396 268 830 316 1007 l33 122 -42 78 c-107 199
-291 440 -425 557 -197 172 -341 227 -537 206z m274 -87 c212 -98 441 -343
625 -667 l52 -91 -26 -94 c-63 -237 -362 -1172 -425 -1333 -131 -330 -313
-587 -470 -666 -157 -79 -316 -13 -428 177 -146 246 -201 578 -201 1203 0 409
21 596 96 856 97 335 143 440 229 528 91 93 186 125 360 122 111 -3 125 -5
188 -35z"/>
<path d="M4030 6393 c0 -23 22 -83 30 -83 13 0 12 4 -2 51 -10 34 -28 54 -28
32z"/>
<path d="M1271 6293 c-40 -49 -30 -57 15 -11 21 20 32 38 26 42 -6 3 -24 -10
-41 -31z"/>
<path d="M3247 6313 c-6 -5 65 -53 79 -53 15 0 -2 22 -32 39 -40 24 -38 23
-47 14z"/>
<path d="M3420 6211 c0 -9 61 -51 74 -51 16 0 3 17 -29 38 -38 24 -45 26 -45
13z"/>
<path d="M4080 6204 c0 -21 24 -94 31 -94 12 0 11 17 -2 63 -5 20 -14 37 -19
37 -6 0 -10 -3 -10 -6z"/>
<path d="M1146 6142 c-27 -40 -31 -52 -17 -52 13 0 62 78 52 84 -5 3 -20 -11
-35 -32z"/>
<path d="M3580 6103 c0 -12 70 -55 83 -50 6 2 -7 15 -28 30 -41 28 -55 33 -55
20z"/>
<path d="M1050 5991 c-21 -39 -30 -71 -20 -71 8 0 50 70 50 85 0 13 -20 3 -30
-14z"/>
<path d="M4136 5973 c4 -21 10 -44 14 -52 13 -24 17 2 8 47 -11 53 -32 57 -22
5z"/>
<path d="M3740 5991 c0 -14 69 -65 77 -58 6 7 -28 39 -59 58 -12 6 -18 6 -18
0z"/>
<path d="M3891 5863 c1 -14 70 -66 77 -58 4 4 -9 20 -28 36 -34 29 -51 36 -49
22z"/>
<path d="M986 5818 c-3 -7 -9 -28 -15 -45 -11 -38 4 -47 18 -10 20 52 22 67
11 67 -6 0 -12 -6 -14 -12z"/>
<path d="M4177 5813 c-4 -6 -5 -17 -3 -25 2 -7 7 -25 10 -40 9 -40 27 -35 19
5 -10 51 -19 72 -26 60z"/>
<path d="M4040 5733 c0 -5 16 -24 35 -43 23 -22 35 -29 35 -19 0 9 -10 25 -22
36 -30 27 -48 36 -48 26z"/>
<path d="M931 5613 c-14 -48 -14 -63 -1 -63 6 0 10 3 10 8 0 4 4 24 9 45 12
49 -5 58 -18 10z"/>
<path d="M4215 5593 c6 -27 6 -27 -13 -10 -11 10 -23 14 -26 9 -3 -5 1 -15 9
-22 14 -12 14 -15 0 -30 -10 -11 -12 -20 -6 -24 5 -4 16 3 24 14 12 18 15 18
20 5 13 -32 24 -13 16 28 -4 23 -8 45 -9 50 0 4 -5 7 -11 7 -7 0 -9 -10 -4
-27z"/>
<path d="M900 5450 c0 -8 -3 -32 -6 -52 -4 -23 -3 -38 3 -38 15 0 26 81 13 94
-7 7 -10 6 -10 -4z"/>
<path d="M4076 5396 c-38 -51 -31 -68 9 -21 19 22 35 43 35 48 0 17 -19 5 -44
-27z"/>
<path d="M4250 5395 c0 -40 10 -75 21 -75 11 0 0 81 -12 95 -5 5 -9 -3 -9 -20z"/>
<path d="M6140 5315 c0 -14 5 -25 10 -25 6 0 10 11 10 25 0 14 -4 25 -10 25
-5 0 -10 -11 -10 -25z"/>
<path d="M875 5219 c-7 -38 -2 -59 11 -46 3 3 8 24 11 46 7 54 -13 54 -22 0z"/>
<path d="M3947 5223 c-35 -49 -23 -64 14 -16 15 21 29 41 29 46 0 17 -19 4
-43 -30z"/>
<path d="M4280 5175 c6 -42 16 -64 23 -54 9 11 -6 99 -17 99 -9 0 -11 -12 -6
-45z"/>
<path d="M6128 5180 c-4 -8 -9 -32 -12 -52 -5 -42 10 -52 20 -14 7 30 0 87 -8
66z"/>
<path d="M3821 5055 c-20 -27 -27 -45 -19 -45 17 0 71 77 60 84 -5 3 -24 -15
-41 -39z"/>
<path d="M870 5020 c0 -27 5 -50 10 -50 6 0 10 23 10 50 0 28 -4 50 -10 50 -5
0 -10 -22 -10 -50z"/>
<path d="M4306 4973 c7 -52 11 -60 20 -50 10 9 -6 97 -17 97 -6 0 -8 -18 -3
-47z"/>
<path d="M6083 4945 c-8 -36 -8 -45 3 -45 8 0 14 6 14 14 0 7 3 28 6 45 10 49
-11 36 -23 -14z"/>
<path d="M3698 4891 c-30 -42 -33 -51 -19 -51 9 0 61 71 61 83 0 17 -17 4 -42
-32z"/>
<path d="M880 4830 c0 -27 5 -50 10 -50 6 0 10 23 10 50 0 28 -4 50 -10 50 -5
0 -10 -22 -10 -50z"/>
<path d="M4324 4798 c3 -13 6 -35 6 -50 0 -16 5 -28 10 -28 11 0 13 42 4 78
-4 12 -11 22 -16 22 -6 0 -8 -10 -4 -22z"/>
<path d="M6046 4788 c-3 -7 -9 -28 -15 -46 -8 -26 -8 -33 2 -29 15 5 40 87 26
87 -5 0 -11 -6 -13 -12z"/>
<path d="M3572 4723 c-33 -43 -38 -53 -23 -53 13 0 63 69 59 82 -2 6 -18 -7
-36 -29z"/>
<path d="M904 4638 c7 -44 12 -55 21 -46 9 9 -7 88 -18 88 -6 0 -7 -16 -3 -42z"/>
<path d="M4340 4583 c0 -36 14 -73 24 -63 8 8 -6 100 -15 100 -5 0 -9 -17 -9
-37z"/>
<path d="M5976 4577 c-18 -49 -19 -57 -7 -57 12 0 42 88 32 95 -5 2 -16 -15
-25 -38z"/>
<path d="M3462 4578 c-19 -25 -42 -78 -33 -78 7 0 45 53 59 83 6 12 -15 8 -26
-5z"/>
<path d="M938 4495 c-8 -8 14 -95 25 -95 5 0 6 16 2 38 -8 42 -19 65 -27 57z"/>
<path d="M5900 4389 c-20 -39 -20 -64 -1 -43 16 16 40 84 31 84 -5 0 -19 -18
-30 -41z"/>
<path d="M4357 4412 c-10 -14 3 -92 14 -92 11 0 11 57 0 84 -5 13 -10 16 -14
8z"/>
<path d="M3350 4360 c-22 -42 -25 -60 -11 -60 4 0 18 23 29 50 25 59 11 67
-18 10z"/>
<path d="M980 4308 c0 -22 34 -98 41 -91 11 11 -13 85 -29 91 -7 2 -12 2 -12
0z"/>
<path d="M5810 4211 c-11 -23 -16 -42 -10 -46 8 -5 50 62 50 80 0 18 -23 -1
-40 -34z"/>
<path d="M4368 4214 c-11 -11 -10 -92 1 -99 5 -3 12 -2 14 2 7 13 -8 105 -15
97z"/>
<path d="M3256 4163 c-14 -29 -22 -53 -16 -53 13 0 52 78 47 93 -2 7 -16 -12
-31 -40z"/>
<path d="M1050 4120 c0 -24 33 -91 41 -83 10 10 -21 93 -33 93 -5 0 -8 -4 -8
-10z"/>
<path d="M5716 4043 c-14 -20 -23 -40 -19 -46 6 -11 13 -4 42 46 29 48 10 49
-23 0z"/>
<path d="M3160 3970 c-21 -42 -25 -60 -12 -60 7 0 52 82 52 95 0 3 -4 5 -10 5
-5 0 -19 -18 -30 -40z"/>
<path d="M4370 3960 c0 -27 5 -50 10 -50 6 0 10 23 10 50 0 28 -4 50 -10 50
-5 0 -10 -22 -10 -50z"/>
<path d="M1130 3940 c0 -16 33 -80 42 -80 12 0 10 16 -9 55 -16 33 -33 46 -33
25z"/>
<path d="M5608 3879 c-15 -21 -23 -41 -18 -44 4 -3 17 7 28 22 29 43 33 51 25
56 -5 3 -20 -13 -35 -34z"/>
<path d="M3066 3771 c-18 -34 -22 -51 -14 -51 14 0 54 87 45 96 -3 4 -17 -17
-31 -45z"/>
<path d="M4367 3768 c-6 -45 -2 -62 14 -53 11 8 12 95 0 95 -4 0 -11 -19 -14
-42z"/>
<path d="M1220 3774 c0 -16 44 -83 52 -78 9 6 -31 84 -44 84 -4 0 -8 -3 -8 -6z"/>
<path d="M5492 3722 c-18 -22 -29 -43 -24 -46 11 -6 65 61 60 76 -2 6 -18 -7
-36 -30z"/>
<path d="M1327 3613 c-6 -5 13 -36 50 -82 2 -2 6 -1 9 2 4 4 -6 25 -21 47 -31
44 -29 43 -38 33z"/>
<path d="M2972 3575 c-12 -24 -18 -46 -13 -49 6 -4 51 74 51 89 0 18 -20 -2
-38 -40z"/>
<path d="M4360 3560 c0 -27 5 -50 10 -50 6 0 10 23 10 50 0 28 -4 50 -10 50
-5 0 -10 -22 -10 -50z"/>
<path d="M5367 3575 c-29 -36 -32 -45 -18 -45 13 0 62 68 53 74 -4 2 -20 -11
-35 -29z"/>
<path d="M1450 3452 c0 -14 69 -76 77 -69 3 4 -9 23 -27 42 -33 34 -50 43 -50
27z"/>
<path d="M5232 3429 c-19 -17 -31 -33 -28 -37 4 -3 23 11 44 31 44 44 31 49
-16 6z"/>
<path d="M2877 3385 c-33 -58 -16 -69 17 -12 28 47 31 57 17 57 -5 0 -21 -20
-34 -45z"/>
<path d="M4348 3360 c-2 -35 1 -50 10 -50 8 0 12 17 12 50 0 65 -17 65 -22 0z"/>
<path d="M5087 3295 c-21 -18 -34 -35 -30 -38 5 -3 26 9 48 27 21 18 34 35 29
38 -5 3 -26 -9 -47 -27z"/>
<path d="M1606 3312 c-6 -9 57 -62 75 -62 8 0 8 4 -1 15 -22 26 -68 56 -74 47z"/>
<path d="M2751 3218 c-21 -24 -28 -38 -19 -38 23 0 76 64 61 73 -5 2 -23 -14
-42 -35z"/>
<path d="M4336 3203 c-9 -10 -7 -93 3 -93 5 0 11 21 13 46 3 44 -2 61 -16 47z"/>
<path d="M1772 3189 c5 -15 88 -64 88 -51 0 9 -73 62 -86 62 -3 0 -4 -5 -2
-11z"/>
<path d="M4937 3173 c-36 -28 -46 -43 -27 -43 14 0 76 57 69 64 -3 3 -22 -6
-42 -21z"/>
<path d="M2592 3094 c-44 -26 -51 -34 -29 -34 20 0 91 47 80 53 -5 3 -28 -5
-51 -19z"/>
<path d="M1950 3092 c0 -9 70 -42 90 -42 23 0 7 17 -27 29 -21 8 -44 16 -50
18 -7 3 -13 1 -13 -5z"/>
<path d="M4775 3053 c-22 -15 -34 -28 -28 -30 16 -6 87 43 75 50 -5 4 -26 -6
-47 -20z"/>
<path d="M2153 3026 c4 -11 87 -29 96 -21 9 10 -10 18 -54 25 -31 5 -44 3 -42
-4z"/>
<path d="M2435 3035 c-5 -2 -27 -6 -48 -10 -21 -3 -35 -10 -31 -16 9 -15 104
5 104 22 0 9 -7 10 -25 4z"/>
<path d="M4318 3000 c-4 -8 -9 -32 -13 -52 -7 -42 11 -54 21 -14 7 30 0 87 -8
66z"/>
<path d="M4603 2953 c-29 -14 -44 -33 -28 -33 10 0 85 40 85 45 0 9 -25 4 -57
-12z"/>
<path d="M4408 2888 c-34 -12 -38 -33 -5 -24 12 4 34 9 50 12 15 4 27 10 27
15 0 12 -38 10 -72 -3z"/>
<path d="M4233 2822 c-46 -17 -59 -38 -18 -28 49 12 76 26 70 36 -3 5 -7 9 -8
9 -1 -1 -21 -9 -44 -17z"/>
<path d="M4286 2798 c-12 -38 -16 -88 -7 -88 10 0 14 12 26 72 4 21 -13 35
-19 16z"/>
<path d="M4038 2743 c-41 -16 -53 -39 -15 -27 29 9 77 33 77 39 0 9 -24 4 -62
-12z"/>
<path d="M3855 2667 c-27 -13 -45 -26 -40 -29 13 -7 95 28 95 42 0 13 3 14
-55 -13z"/>
<path d="M3665 2586 c-27 -12 -45 -25 -39 -28 13 -8 94 28 94 42 0 5 -1 10 -2
9 -2 0 -25 -10 -53 -23z"/>
<path d="M4243 2560 c-6 -27 -7 -50 -2 -50 12 0 16 10 24 58 10 60 -10 53 -22
-8z"/>
<path d="M3478 2503 c-36 -14 -51 -33 -28 -33 13 0 90 39 90 45 0 9 -24 4 -62
-12z"/>
<path d="M3303 2420 c-24 -10 -43 -24 -43 -30 0 -14 5 -13 50 10 22 11 40 25
40 30 0 13 3 13 -47 -10z"/>
<path d="M4206 2393 c-13 -49 -17 -83 -8 -83 8 0 32 72 32 94 0 14 -19 4 -24
-11z"/>
<path d="M3118 2329 c-32 -17 -51 -39 -33 -39 18 0 85 42 80 50 -7 12 -2 13
-47 -11z"/>
<path d="M2928 2226 c-21 -12 -35 -25 -32 -29 8 -7 94 34 94 45 0 14 -24 8
-62 -16z"/>
<path d="M4152 2182 c-14 -47 -15 -62 -3 -62 12 0 32 83 22 93 -4 4 -13 -10
-19 -31z"/>
<path d="M2760 2129 c-43 -26 -45 -28 -37 -35 7 -7 87 36 87 48 0 13 -12 10
-50 -13z"/>
<path d="M3180 2019 c-129 -72 -287 -157 -350 -191 -142 -74 -222 -133 -321
-235 -108 -111 -153 -184 -178 -292 -68 -289 30 -468 267 -488 69 -6 76 -4
147 31 139 69 269 189 367 341 105 161 225 491 282 775 34 170 37 190 28 190
-4 0 -113 -59 -242 -131z m155 -101 c-42 -189 -134 -457 -207 -605 -88 -177
-244 -343 -395 -419 -68 -35 -76 -37 -135 -30 -76 8 -156 44 -186 86 -56 75
-67 193 -32 340 24 100 62 162 159 264 93 96 160 145 308 225 70 38 214 117
318 175 105 58 192 100 193 95 2 -5 -8 -64 -23 -131z"/>
<path d="M2588 2023 c-33 -22 -49 -43 -33 -43 15 0 84 54 79 61 -6 11 -2 13
-46 -18z"/>
<path d="M4087 1975 c-16 -45 -4 -66 12 -22 19 50 22 67 13 67 -6 0 -17 -20
-25 -45z"/>
<path d="M2418 1904 c-21 -15 -35 -31 -32 -36 6 -9 83 41 84 55 0 13 -14 8
-52 -19z"/>
<path d="M4022 1803 c-5 -16 -13 -36 -17 -45 -4 -10 -3 -18 2 -18 9 0 43 63
43 80 0 21 -18 9 -28 -17z"/>
<path d="M2256 1775 c-21 -18 -35 -35 -30 -38 5 -3 26 10 48 28 21 18 35 35
30 38 -5 3 -26 -10 -48 -28z"/>
<path d="M2110 1635 c-19 -19 -30 -38 -26 -42 3 -4 23 9 42 29 20 19 32 38 27
41 -6 4 -25 -9 -43 -28z"/>
<path d="M3936 1604 c-10 -25 -16 -47 -13 -50 6 -6 47 69 47 86 0 24 -16 7
-34 -36z"/>
<path d="M1988 1489 c-35 -47 -41 -59 -30 -59 14 0 64 69 60 82 -2 6 -16 -4
-30 -23z"/>
<path d="M3843 1430 c-26 -44 -27 -50 -13 -50 8 0 50 70 50 85 0 16 -18 0 -37
-35z"/>
<path d="M1885 1304 c-17 -42 -19 -54 -6 -54 5 0 14 12 19 28 5 15 13 35 17
45 4 10 3 17 -4 17 -6 0 -18 -16 -26 -36z"/>
<path d="M3736 1260 c-28 -43 -31 -50 -17 -50 13 0 62 78 52 84 -5 3 -20 -12
-35 -34z"/>
<path d="M1850 1101 c0 -28 5 -53 10 -56 6 -4 10 15 10 49 0 31 -4 56 -10 56
-5 0 -10 -22 -10 -49z"/>
<path d="M3612 1100 c-18 -21 -28 -41 -23 -44 5 -4 23 12 40 33 41 51 25 61
-17 11z"/>
<path d="M3470 951 c-19 -16 -31 -33 -27 -37 4 -5 24 9 45 29 44 44 32 49 -18
8z"/>
<path d="M1890 934 c0 -23 40 -85 50 -79 8 5 -36 95 -46 95 -2 0 -4 -7 -4 -16z"/>
<path d="M3317 824 c-21 -14 -35 -29 -32 -34 6 -10 84 39 85 53 0 13 -14 8
-53 -19z"/>
<path d="M2000 772 c0 -14 69 -76 77 -69 3 4 -9 23 -27 42 -33 34 -50 43 -50
27z"/>
<path d="M3150 718 c-45 -28 -44 -27 -38 -34 8 -8 88 34 88 46 0 15 -11 12
-50 -12z"/>
<path d="M2160 641 c0 -11 62 -53 75 -52 16 3 5 16 -32 38 -24 14 -43 20 -43
14z"/>
<path d="M2961 631 c-24 -10 -39 -21 -33 -25 13 -8 92 22 92 35 0 12 -8 11
-59 -10z"/>
<path d="M2778 576 c-60 -12 -64 -31 -5 -22 38 6 67 21 56 29 -2 1 -25 -2 -51
-7z"/>
<path d="M2336 541 c-7 -11 38 -31 69 -31 14 0 25 5 25 10 0 6 -12 10 -26 10
-14 0 -34 5 -44 10 -10 6 -21 6 -24 1z"/>
<path d="M2573 543 c-24 -2 -43 -9 -43 -14 0 -15 93 -6 98 9 2 6 0 11 -5 10
-4 -1 -27 -3 -50 -5z"/>
<path d="M5023 6423 c26 -595 32 -1928 9 -2047 l-7 -40 -12 27 c-11 23 -33 38
-33 22 0 -6 40 -87 45 -93 7 -7 95 37 95 47 0 15 -6 14 -42 -5 l-30 -16 6 44
c13 99 18 930 7 1428 -13 624 -20 780 -34 780 -7 0 -8 -50 -4 -147z"/>
<path d="M5119 5759 l-24 -20 23 6 c21 6 22 4 22 -54 0 -34 4 -61 10 -61 12 0
13 137 1 144 -5 3 -20 -3 -32 -15z"/>
<path d="M5268 5769 c-10 -5 -18 -17 -18 -26 0 -15 2 -15 13 1 14 19 48 19 54
0 2 -6 -15 -34 -37 -63 l-40 -51 50 0 c32 0 49 4 45 10 -3 6 -17 10 -31 10
l-25 0 25 33 c28 37 33 66 14 85 -14 14 -27 15 -50 1z"/>
<path d="M5190 5640 c0 -5 5 -10 10 -10 6 0 10 5 10 10 0 6 -4 10 -10 10 -5 0
-10 -4 -10 -10z"/>
<path d="M5707 5354 c-43 -40 -44 -55 -2 -28 l27 18 -7 -55 c-44 -330 -307
-856 -693 -1387 -45 -62 -82 -115 -82 -117 0 -32 92 88 250 325 193 288 372
621 455 845 43 114 82 263 92 343 l6 55 23 -28 c13 -16 26 -26 30 -23 5 6 -52
89 -59 88 -1 0 -19 -17 -40 -36z"/>
<path d="M29 5219 l-24 -20 23 6 c21 6 22 4 22 -54 0 -34 4 -61 10 -61 12 0
13 137 1 144 -5 3 -20 -3 -32 -15z"/>
<path d="M150 5219 c-24 -20 -24 -20 -2 -14 21 6 22 4 22 -54 0 -34 4 -61 10
-61 12 0 14 136 2 144 -4 2 -19 -4 -32 -15z"/>
<path d="M100 5100 c0 -5 5 -10 10 -10 6 0 10 5 10 10 0 6 -4 10 -10 10 -5 0
-10 -4 -10 -10z"/>
<path d="M5249 4759 l-24 -20 23 6 c21 6 22 4 22 -54 0 -34 4 -61 10 -61 12 0
13 137 1 144 -5 3 -20 -3 -32 -15z"/>
<path d="M5405 4728 c-19 -29 -35 -56 -35 -60 0 -5 16 -8 35 -8 24 0 35 -5 35
-15 0 -8 5 -15 10 -15 6 0 10 7 10 15 0 8 5 15 12 15 9 0 9 3 0 12 -7 7 -12
31 -12 54 0 24 -4 45 -10 49 -5 3 -25 -18 -45 -47z m35 -13 c0 -28 -4 -35 -20
-35 -11 0 -20 3 -20 6 0 7 33 64 37 64 2 0 3 -16 3 -35z"/>
<path d="M5320 4640 c0 -5 5 -10 10 -10 6 0 10 5 10 10 0 6 -4 10 -10 10 -5 0
-10 -4 -10 -10z"/>
<path d="M3120 2845 c0 -3 14 -14 31 -24 l32 -19 -44 -12 c-95 -24 -460 -151
-564 -195 -285 -122 -552 -278 -730 -426 -142 -119 -273 -263 -327 -360 -146
-263 -218 -511 -218 -746 0 -393 209 -697 615 -894 233 -113 453 -163 720
-163 199 -1 315 18 533 90 287 93 502 221 755 447 60 54 113 97 118 97 5 0 9
-27 9 -60 0 -33 4 -60 10 -60 13 0 13 137 0 145 -6 4 9 28 35 58 73 80 179
226 256 349 229 368 419 868 529 1385 32 153 35 173 22 173 -5 0 -15 -33 -22
-72 -21 -123 -107 -457 -156 -609 -335 -1045 -918 -1684 -1716 -1879 -222 -54
-427 -62 -636 -25 -559 99 -951 412 -1036 827 -9 44 -16 127 -16 192 0 212 54
410 178 660 72 143 80 154 186 264 299 310 677 527 1236 712 258 85 265 87
255 63 -28 -67 -8 -68 26 -1 22 44 23 43 -33 73 -27 15 -48 19 -48 10z"/>
<path d="M4165 650 c-10 -11 -13 -20 -7 -20 6 0 14 5 17 10 3 6 15 10 26 10
27 0 26 -40 -2 -47 -20 -5 -20 -6 3 -17 12 -6 24 -19 26 -27 4 -24 -27 -32
-54 -14 -25 16 -33 8 -12 -13 19 -19 66 -15 78 7 11 22 4 51 -13 51 -7 0 -7 4
1 12 18 18 14 46 -7 58 -27 14 -35 13 -56 -10z"/>
<path d="M4100 530 c0 -5 5 -10 10 -10 6 0 10 5 10 10 0 6 -4 10 -10 10 -5 0
-10 -4 -10 -10z"/>
</g>
</svg>
