<?xml version="1.0" standalone="no"?>
<!DOCTYPE svg PUBLIC "-//W3C//DTD SVG 20010904//EN"
 "http://www.w3.org/TR/2001/REC-SVG-20010904/DTD/svg10.dtd">
<svg version="1.0" xmlns="http://www.w3.org/2000/svg"
 width="574.000000pt" height="752.000000pt" viewBox="0 0 574.000000 752.000000"
 preserveAspectRatio="xMidYMid meet">

<g transform="translate(0.000000,752.000000) scale(0.100000,-0.100000)"
fill="#000000" stroke="none">
<path d="M3480 7511 c-219 -30 -380 -177 -458 -421 -24 -74 -21 -57 -182
-1005 l-120 -710 -86 -295 c-111 -381 -183 -610 -246 -779 -132 -356 -254
-565 -379 -648 -69 -46 -297 -71 -370 -40 -129 53 -199 275 -230 722 -13 197
-7 1131 10 1445 23 420 42 730 67 1079 l25 364 -31 32 c-43 45 -124 82 -205
95 -226 36 -551 -115 -802 -372 -61 -62 -66 -75 -122 -333 -219 -994 -245
-2027 -70 -2745 167 -685 529 -1080 1076 -1175 169 -30 429 -13 575 36 66 22
262 117 373 182 372 214 702 511 880 790 20 32 59 102 86 155 l50 97 -6 -60
c-3 -33 -24 -179 -46 -325 -79 -528 -90 -602 -104 -738 -8 -75 -15 -178 -15
-229 l0 -92 -57 -11 c-369 -73 -898 -312 -1207 -545 -295 -222 -465 -491 -434
-691 39 -258 243 -521 503 -649 181 -89 309 -118 525 -118 169 -1 239 8 435
54 221 53 301 77 398 122 452 211 768 647 892 1227 14 69 28 134 31 145 2 13
36 37 96 70 110 60 329 202 442 287 420 318 597 559 791 1078 67 181 165 522
165 579 0 57 -222 301 -358 392 -71 47 -151 79 -199 79 -65 0 -143 -63 -143
-115 0 -16 -11 -77 -24 -135 -103 -450 -381 -915 -726 -1215 -97 -85 -231
-187 -237 -181 -9 9 25 1810 47 2531 31 997 78 1700 120 1811 9 22 5 27 -43
58 -220 140 -502 221 -687 197z m284 -75 c169 -43 393 -154 389 -192 -1 -10
-9 -64 -17 -119 -51 -340 -97 -1388 -126 -2840 -17 -878 -23 -1465 -15 -1465
10 0 157 103 220 154 279 225 500 504 661 831 99 203 203 521 204 627 0 33 51
78 90 78 43 0 106 -26 179 -74 70 -47 256 -232 305 -304 l29 -43 -32 -129
c-89 -363 -251 -760 -401 -988 -162 -245 -564 -578 -957 -792 l-101 -55 -12
-70 c-38 -220 -103 -424 -196 -610 -164 -331 -423 -584 -733 -715 -86 -37
-378 -113 -517 -135 -509 -82 -940 94 -1149 469 -117 210 -111 368 21 569 57
86 199 229 307 311 338 253 859 479 1272 552 19 3 20 11 21 161 1 178 12 269
89 773 61 399 81 549 91 696 7 100 6 101 -17 107 -13 3 -24 5 -25 4 -1 -1 -13
-45 -28 -97 -38 -138 -148 -352 -248 -485 -226 -300 -594 -585 -1020 -790
-151 -73 -246 -95 -429 -102 -229 -9 -398 26 -588 121 -441 222 -689 703 -787
1526 -22 182 -30 762 -15 998 30 459 101 944 197 1344 l36 147 77 73 c99 93
168 146 270 207 204 123 430 158 569 87 86 -44 83 -34 67 -256 -77 -1035 -114
-1977 -95 -2460 20 -548 74 -810 191 -928 73 -74 145 -90 301 -67 182 26 256
75 364 240 143 221 258 523 463 1225 l101 345 129 765 c71 421 132 785 136
810 12 78 63 223 100 285 99 165 224 233 426 234 81 1 129 -5 203 -23z"/>
<path d="M3554 6896 c-8 -21 3 -49 16 -41 5 3 10 15 10 25 0 25 -18 36 -26 16z"/>
<path d="M808 6725 c-4 -17 -1 -25 8 -25 8 0 14 9 14 19 0 30 -17 34 -22 6z"/>
<path d="M3525 6718 c-4 -18 -9 -41 -11 -50 -3 -10 -1 -18 5 -18 9 0 31 60 31
88 0 26 -19 11 -25 -20z"/>
<path d="M3560 6700 c0 -27 5 -50 10 -50 6 0 10 23 10 50 0 28 -4 50 -10 50
-5 0 -10 -22 -10 -50z"/>
<path d="M787 6553 c-6 -52 -1 -66 13 -43 12 19 13 90 1 90 -4 0 -11 -21 -14
-47z"/>
<path d="M3485 6538 c-18 -55 -23 -89 -12 -85 14 4 39 97 26 97 -5 0 -11 -6
-14 -12z"/>
<path d="M3568 6544 c-12 -11 -10 -92 2 -99 6 -3 12 0 15 7 7 19 -9 101 -17
92z"/>
<path d="M767 6353 c-6 -52 -1 -66 13 -43 12 19 13 90 1 90 -4 0 -11 -21 -14
-47z"/>
<path d="M3433 6330 c-20 -49 -25 -82 -11 -78 14 5 31 62 25 86 -3 13 -6 11
-14 -8z"/>
<path d="M3570 6290 c0 -27 5 -50 10 -50 6 0 10 23 10 50 0 28 -4 50 -10 50
-5 0 -10 -22 -10 -50z"/>
<path d="M750 6150 c0 -27 5 -50 10 -50 6 0 10 23 10 50 0 28 -4 50 -10 50 -5
0 -10 -22 -10 -50z"/>
<path d="M3371 6106 c-13 -54 -13 -56 -3 -56 9 0 32 66 32 89 0 28 -19 7 -29
-33z"/>
<path d="M3578 6134 c-10 -10 -9 -63 2 -89 7 -19 8 -19 15 -2 9 22 -7 102 -17
91z"/>
<path d="M737 5953 c-6 -52 -1 -66 13 -43 12 19 13 90 1 90 -4 0 -11 -21 -14
-47z"/>
<path d="M3330 5948 c0 -2 -7 -24 -15 -50 -14 -48 -2 -70 14 -25 17 45 21 77
11 77 -5 0 -10 -1 -10 -2z"/>
<path d="M3580 5880 c0 -27 5 -50 10 -50 6 0 10 23 10 50 0 28 -4 50 -10 50
-5 0 -10 -22 -10 -50z"/>
<path d="M724 5755 c-6 -42 -1 -66 11 -53 11 11 17 98 7 98 -6 0 -14 -20 -18
-45z"/>
<path d="M3261 5706 c-13 -54 -13 -56 -3 -56 9 0 32 66 32 89 0 28 -19 7 -29
-33z"/>
<path d="M3586 5721 c-10 -15 4 -102 15 -95 5 3 9 22 9 42 0 42 -13 71 -24 53z"/>
<path d="M718 5554 c-3 -44 2 -61 16 -47 9 10 7 93 -3 93 -5 0 -11 -21 -13
-46z"/>
<path d="M3216 5538 c-3 -7 -9 -28 -15 -47 -6 -19 -9 -36 -7 -39 9 -9 24 9 29
35 3 16 9 36 12 46 4 10 3 17 -4 17 -7 0 -13 -6 -15 -12z"/>
<path d="M3590 5470 c0 -27 5 -50 10 -50 6 0 10 23 10 50 0 28 -4 50 -10 50
-5 0 -10 -22 -10 -50z"/>
<path d="M710 5350 c0 -27 5 -50 10 -50 6 0 10 23 10 50 0 28 -4 50 -10 50 -5
0 -10 -22 -10 -50z"/>
<path d="M3151 5313 c-13 -46 -14 -63 -2 -63 5 0 11 12 15 28 3 15 8 37 12 50
4 13 2 22 -4 22 -6 0 -16 -17 -21 -37z"/>
<path d="M3595 5310 c-9 -15 6 -101 16 -94 12 7 12 91 0 99 -5 3 -12 1 -16 -5z"/>
<path d="M710 5149 c0 -31 4 -48 10 -44 6 3 10 26 10 51 0 24 -4 44 -10 44 -5
0 -10 -23 -10 -51z"/>
<path d="M3091 5106 c-13 -54 -13 -56 -3 -56 9 0 32 66 32 89 0 28 -19 7 -29
-33z"/>
<path d="M3600 5060 c0 -27 5 -50 10 -50 6 0 10 23 10 50 0 28 -4 50 -10 50
-5 0 -10 -22 -10 -50z"/>
<path d="M710 4961 c0 -27 5 -53 10 -56 6 -4 10 13 10 44 0 27 -4 53 -10 56
-6 4 -10 -13 -10 -44z"/>
<path d="M3047 4943 c-13 -21 -24 -83 -17 -88 5 -3 14 14 21 37 6 24 13 46 16
51 2 4 0 7 -6 7 -5 0 -12 -3 -14 -7z"/>
<path d="M3608 4904 c-11 -10 -10 -76 2 -94 8 -12 10 -12 16 3 8 22 -8 102
-18 91z"/>
<path d="M715 4797 c-9 -21 2 -87 15 -87 12 0 11 44 0 80 -6 22 -8 23 -15 7z"/>
<path d="M2980 4719 c-7 -24 -14 -47 -16 -51 -2 -4 0 -9 5 -12 13 -8 44 85 32
97 -6 6 -14 -7 -21 -34z"/>
<path d="M3610 4650 c0 -27 5 -50 10 -50 6 0 10 23 10 50 0 28 -4 50 -10 50
-5 0 -10 -22 -10 -50z"/>
<path d="M726 4602 c-10 -16 2 -92 15 -92 10 0 10 29 0 75 -4 21 -9 26 -15 17z"/>
<path d="M2922 4521 c-14 -46 -15 -61 -3 -61 5 0 11 12 15 28 3 15 8 37 12 50
3 12 2 22 -3 22 -6 0 -15 -17 -21 -39z"/>
<path d="M3610 4451 c0 -28 5 -53 10 -56 6 -4 10 15 10 49 0 31 -4 56 -10 56
-5 0 -10 -22 -10 -49z"/>
<path d="M740 4360 c0 -27 5 -50 10 -50 6 0 10 23 10 50 0 28 -4 50 -10 50 -5
0 -10 -22 -10 -50z"/>
<path d="M2862 4321 c-14 -46 -15 -61 -3 -61 5 0 14 20 20 44 13 54 13 56 3
56 -5 0 -14 -17 -20 -39z"/>
<path d="M3614 4274 c3 -9 6 -31 6 -50 0 -19 5 -34 10 -34 6 0 10 23 10 50 0
39 -3 50 -16 50 -11 0 -14 -5 -10 -16z"/>
<path d="M763 4165 c4 -44 12 -63 21 -54 8 8 -7 99 -17 99 -6 0 -8 -18 -4 -45z"/>
<path d="M2801 4123 c-7 -21 -15 -44 -17 -50 -3 -7 -1 -13 5 -13 11 0 25 28
37 75 10 40 -12 29 -25 -12z"/>
<path d="M5240 4091 c-5 -11 -6 -22 -1 -25 4 -3 13 6 19 19 14 30 -2 34 -18 6z"/>
<path d="M3620 4036 c0 -31 5 -56 10 -56 6 0 10 22 10 49 0 28 -4 53 -10 56
-6 4 -10 -15 -10 -49z"/>
<path d="M794 3963 c6 -47 12 -61 21 -51 9 9 -7 98 -18 98 -6 0 -7 -18 -3 -47z"/>
<path d="M5160 3940 c-22 -44 -24 -50 -12 -50 8 0 52 71 52 84 0 19 -22 0 -40
-34z"/>
<path d="M2712 3925 c-12 -24 -18 -46 -13 -49 6 -4 51 74 51 89 0 18 -20 -2
-38 -40z"/>
<path d="M3620 3830 c0 -27 5 -50 10 -50 6 0 10 23 10 50 0 28 -4 50 -10 50
-5 0 -10 -22 -10 -50z"/>
<path d="M830 3798 c0 -33 17 -78 29 -78 5 0 5 18 -1 43 -13 52 -28 71 -28 35z"/>
<path d="M5062 3761 c-13 -22 -19 -42 -14 -45 8 -5 52 62 52 78 0 18 -19 1
-38 -33z"/>
<path d="M2610 3740 c-22 -43 -24 -50 -12 -50 7 0 52 73 52 84 0 19 -23 0 -40
-34z"/>
<path d="M3620 3625 c0 -30 5 -55 10 -55 6 0 10 25 10 55 0 30 -4 55 -10 55
-5 0 -10 -25 -10 -55z"/>
<path d="M4961 3596 c-23 -37 -25 -46 -12 -46 8 0 51 64 51 76 0 15 -22 -1
-39 -30z"/>
<path d="M880 3611 c0 -18 31 -81 40 -81 5 0 2 20 -7 45 -13 39 -33 61 -33 36z"/>
<path d="M2500 3572 c-32 -48 -34 -52 -21 -52 10 0 61 68 61 82 0 18 -17 5
-40 -30z"/>
<path d="M3620 3420 c0 -27 5 -50 10 -50 6 0 10 23 10 50 0 28 -4 50 -10 50
-5 0 -10 -22 -10 -50z"/>
<path d="M4856 3437 c-15 -20 -26 -42 -24 -48 2 -6 16 5 32 25 15 20 26 42 24
48 -2 6 -17 -5 -32 -25z"/>
<path d="M2371 3408 c-19 -21 -31 -41 -28 -45 8 -8 32 13 58 48 30 43 8 41
-30 -3z"/>
<path d="M950 3434 c0 -11 45 -84 53 -84 12 0 8 17 -14 54 -18 31 -39 47 -39
30z"/>
<path d="M4731 3275 c-18 -20 -30 -40 -26 -43 9 -9 68 54 63 68 -2 7 -17 -3
-37 -25z"/>
<path d="M2221 3260 c-19 -16 -32 -33 -28 -36 8 -8 77 43 77 57 0 15 -13 10
-49 -21z"/>
<path d="M1074 3249 c18 -27 55 -53 64 -45 6 7 -57 65 -71 66 -5 0 -2 -9 7
-21z"/>
<path d="M3620 3215 c0 -35 4 -54 10 -50 6 3 10 26 10 50 0 24 -4 47 -10 50
-6 4 -10 -15 -10 -50z"/>
<path d="M2051 3141 c-24 -16 -39 -31 -34 -34 11 -7 93 40 93 54 0 14 -11 10
-59 -20z"/>
<path d="M4585 3129 c-37 -45 -21 -50 23 -6 26 26 32 37 20 37 -9 0 -28 -14
-43 -31z"/>
<path d="M1225 3140 c-7 -11 72 -53 88 -47 6 2 -10 15 -36 29 -26 15 -49 22
-52 18z"/>
<path d="M1870 3063 c-50 -18 -56 -21 -48 -28 11 -11 98 17 98 31 0 8 -1 14
-2 13 -2 0 -23 -8 -48 -16z"/>
<path d="M1410 3051 c0 -5 20 -14 44 -20 54 -13 56 -13 56 -1 0 5 -17 14 -37
19 -46 13 -63 14 -63 2z"/>
<path d="M3610 3010 c0 -27 5 -50 10 -50 6 0 10 23 10 50 0 28 -4 50 -10 50
-5 0 -10 -22 -10 -50z"/>
<path d="M1620 3020 c0 -5 23 -10 50 -10 28 0 50 5 50 10 0 6 -22 10 -50 10
-27 0 -50 -4 -50 -10z"/>
<path d="M4461 2986 c-19 -20 -31 -39 -27 -43 9 -9 69 52 65 66 -3 7 -19 -4
-38 -23z"/>
<path d="M4310 2851 c-19 -16 -32 -32 -28 -36 7 -7 78 45 78 58 0 14 -16 7
-50 -22z"/>
<path d="M3595 2814 c-6 -44 -2 -64 11 -51 4 3 9 26 11 52 7 60 -13 60 -22 -1z"/>
<path d="M4148 2733 c-21 -14 -35 -29 -32 -34 6 -10 84 39 84 52 0 14 -12 10
-52 -18z"/>
<path d="M3575 2614 c-6 -42 -2 -64 10 -52 11 10 17 98 7 98 -5 0 -13 -21 -17
-46z"/>
<path d="M3978 2626 c-36 -20 -49 -36 -29 -36 16 0 81 41 81 51 0 13 -10 10
-52 -15z"/>
<path d="M3808 2529 c-32 -17 -51 -39 -32 -39 11 0 84 45 84 53 0 11 -11 8
-52 -14z"/>
<path d="M3558 2450 c-13 -32 -18 -89 -9 -94 6 -4 13 9 16 27 8 40 2 91 -7 67z"/>
<path d="M3628 2439 c-32 -17 -51 -39 -33 -39 15 0 85 42 85 50 0 14 -10 12
-52 -11z"/>
<path d="M3443 2353 c-34 -17 -47 -41 -15 -28 9 4 29 12 45 17 27 10 37 29 15
27 -7 0 -28 -8 -45 -16z"/>
<path d="M3252 2274 c-46 -20 -31 -37 16 -17 20 8 41 19 47 24 14 14 -25 9
-63 -7z"/>
<path d="M3526 2252 c-11 -19 -18 -92 -8 -92 5 0 13 21 17 46 6 45 3 65 -9 46z"/>
<path d="M3072 2203 c-23 -8 -40 -19 -37 -23 7 -11 95 18 95 31 0 11 -6 11
-58 -8z"/>
<path d="M2883 2138 c-28 -9 -46 -28 -27 -28 19 0 84 24 84 32 0 10 -16 9 -57
-4z"/>
<path d="M2693 2078 c-28 -9 -46 -28 -27 -28 19 0 84 24 84 32 0 10 -16 9 -57
-4z"/>
<path d="M3473 2013 c-12 -49 -9 -64 6 -47 13 13 24 94 14 94 -5 0 -15 -21
-20 -47z"/>
<path d="M2497 2012 c-21 -10 -35 -20 -32 -24 9 -8 95 21 95 33 0 13 -19 10
-63 -9z"/>
<path d="M2325 1938 c-48 -25 -50 -26 -43 -34 8 -8 88 34 88 46 0 12 3 13 -45
-12z"/>
<path d="M3023 1910 c-436 -111 -692 -238 -754 -375 -44 -97 -9 -225 80 -291
57 -42 175 -81 274 -90 75 -7 76 -6 154 36 256 138 411 379 430 668 6 86 5 92
-13 91 -10 0 -87 -18 -171 -39z m133 -80 c-11 -91 -33 -167 -75 -255 -73 -152
-173 -257 -324 -340 -63 -35 -72 -37 -125 -31 -149 17 -256 63 -300 128 -29
45 -40 120 -23 171 30 90 212 202 456 281 110 36 358 104 384 105 11 1 12 -11
7 -59z"/>
<path d="M2147 1834 c-20 -13 -37 -29 -37 -35 0 -11 55 18 72 39 20 23 2 22
-35 -4z"/>
<path d="M3426 1833 c-3 -16 -8 -38 -12 -50 -3 -13 -2 -23 3 -23 9 0 33 64 33
89 0 22 -18 10 -24 -16z"/>
<path d="M1996 1699 c-24 -28 -33 -49 -21 -49 8 0 64 64 65 73 0 16 -20 5 -44
-24z"/>
<path d="M3366 1635 c-18 -42 -20 -65 -7 -65 10 0 36 88 28 96 -3 4 -13 -11
-21 -31z"/>
<path d="M1902 1513 c-11 -49 -8 -64 7 -47 13 14 23 94 12 94 -5 0 -14 -21
-19 -47z"/>
<path d="M3285 1434 c-9 -25 -15 -48 -12 -51 6 -5 47 70 47 87 0 25 -19 6 -35
-36z"/>
<path d="M1900 1349 c0 -23 23 -89 32 -89 10 0 10 2 -3 56 -10 40 -29 61 -29
33z"/>
<path d="M3195 1263 c-11 -21 -21 -41 -23 -45 -2 -5 1 -8 6 -8 11 0 52 64 52
81 0 21 -17 7 -35 -28z"/>
<path d="M1976 1171 c-9 -13 53 -83 67 -74 6 4 3 12 -9 22 -11 9 -27 26 -36
39 -9 13 -19 19 -22 13z"/>
<path d="M3071 1090 c-18 -23 -26 -40 -19 -40 17 0 71 67 59 74 -4 3 -22 -12
-40 -34z"/>
<path d="M2130 1036 c0 -15 76 -60 83 -49 3 5 -15 20 -39 35 -28 17 -44 23
-44 14z"/>
<path d="M2922 961 c-22 -16 -39 -31 -35 -34 6 -7 37 8 71 34 38 30 9 29 -36
0z"/>
<path d="M2305 939 c-4 -5 15 -18 40 -29 54 -23 58 -24 53 -9 -5 16 -87 49
-93 38z"/>
<path d="M2728 883 c-16 -2 -28 -9 -28 -15 0 -13 80 -2 95 13 9 9 -14 10 -67
2z"/>
<path d="M2500 871 c0 -13 76 -25 92 -15 9 6 4 11 -17 15 -46 10 -75 10 -75 0z"/>
<path d="M4395 6648 c-17 -129 -73 -832 -96 -1213 -14 -225 -18 -829 -6 -918
l7 -59 -29 21 c-16 12 -32 17 -35 12 -5 -8 65 -61 81 -61 12 0 58 88 51 96 -4
3 -16 -8 -27 -26 l-20 -33 -8 39 c-14 67 -7 713 11 994 24 383 73 996 92 1143
4 29 2 47 -4 47 -6 0 -13 -19 -17 -42z"/>
<path d="M4449 5639 l-24 -20 23 6 c21 6 22 4 22 -54 0 -34 4 -61 10 -61 12 0
13 137 1 144 -5 3 -20 -3 -32 -15z"/>
<path d="M4598 5649 c-10 -5 -18 -17 -18 -26 0 -15 2 -15 13 1 14 19 48 19 54
0 2 -6 -15 -34 -37 -63 l-40 -51 50 0 c32 0 49 4 45 10 -3 6 -17 10 -31 10
l-25 0 25 33 c28 37 33 66 14 85 -14 14 -27 15 -50 1z"/>
<path d="M4520 5520 c0 -5 5 -10 10 -10 6 0 10 5 10 10 0 6 -4 10 -10 10 -5 0
-10 -4 -10 -10z"/>
<path d="M4791 4363 c-43 -26 -44 -46 -1 -23 12 6 24 10 26 7 5 -5 -65 -253
-104 -367 -83 -243 -145 -359 -276 -514 -50 -60 -40 -70 13 -14 59 61 145 191
190 289 46 98 127 331 172 496 l32 115 20 -33 c12 -18 23 -27 25 -21 4 13 -35
92 -46 92 -4 -1 -27 -13 -51 -27z"/>
<path d="M4379 4079 l-24 -20 23 6 c21 6 22 4 22 -54 0 -34 4 -61 10 -61 12 0
13 137 1 144 -5 3 -20 -3 -32 -15z"/>
<path d="M4535 4048 c-19 -29 -35 -56 -35 -60 0 -5 16 -8 35 -8 24 0 35 -5 35
-15 0 -8 5 -15 10 -15 6 0 10 7 10 15 0 8 5 15 12 15 9 0 9 3 0 12 -7 7 -12
31 -12 54 0 24 -4 45 -10 49 -5 3 -25 -18 -45 -47z m35 -13 c0 -28 -4 -35 -20
-35 -11 0 -20 3 -20 6 0 7 33 64 37 64 2 0 3 -16 3 -35z"/>
<path d="M4450 3960 c0 -5 5 -10 10 -10 6 0 10 5 10 10 0 6 -4 10 -10 10 -5 0
-10 -4 -10 -10z"/>
<path d="M213 3582 c-25 -16 47 -223 139 -402 172 -336 427 -570 723 -663 128
-40 218 -50 387 -44 152 5 272 27 397 72 24 8 46 13 48 11 2 -2 -3 -21 -11
-41 -34 -81 -9 -90 27 -11 45 97 46 92 -29 126 -75 34 -84 36 -84 16 0 -7 21
-23 48 -34 l47 -21 -30 -11 c-186 -71 -486 -101 -667 -66 -219 42 -391 136
-564 310 -162 163 -302 398 -375 630 -43 138 -42 137 -56 128z"/>
<path d="M29 2809 l-24 -20 23 6 c21 6 22 4 22 -54 0 -34 4 -61 10 -61 12 0
13 137 1 144 -5 3 -20 -3 -32 -15z"/>
<path d="M150 2809 c-24 -20 -24 -20 -2 -14 21 6 22 4 22 -54 0 -34 4 -61 10
-61 12 0 14 136 2 144 -4 2 -19 -4 -32 -15z"/>
<path d="M100 2690 c0 -5 5 -10 10 -10 6 0 10 5 10 10 0 6 -4 10 -10 10 -5 0
-10 -4 -10 -10z"/>
<path d="M1342 927 c-29 -29 -52 -56 -52 -60 0 -17 27 -4 61 29 l36 35 7 -55
c10 -88 50 -201 97 -272 136 -209 423 -324 804 -324 232 1 655 69 655 106 0
18 -1 18 -122 -11 -188 -44 -319 -59 -528 -59 -221 0 -323 14 -465 65 -168 61
-287 164 -356 307 -32 67 -69 216 -56 228 4 4 22 -7 40 -24 36 -35 47 -39 47
-19 0 15 -91 107 -106 107 -5 0 -33 -24 -62 -53z"/>
<path d="M1709 179 l-24 -20 23 6 c21 6 22 4 22 -54 0 -34 4 -61 10 -61 12 0
13 137 1 144 -5 3 -20 -3 -32 -15z"/>
<path d="M1845 180 c-10 -11 -13 -20 -7 -20 6 0 14 5 17 10 3 6 15 10 26 10
27 0 26 -40 -2 -47 -20 -5 -20 -6 3 -17 12 -6 24 -19 26 -27 4 -24 -27 -32
-54 -14 -25 16 -33 8 -12 -13 19 -19 66 -15 78 7 11 22 4 51 -13 51 -7 0 -7 4
1 12 18 18 14 46 -7 58 -27 14 -35 13 -56 -10z"/>
<path d="M1780 60 c0 -5 5 -10 10 -10 6 0 10 5 10 10 0 6 -4 10 -10 10 -5 0
-10 -4 -10 -10z"/>
</g>
</svg>
