<?xml version="1.0" standalone="no"?>
<!DOCTYPE svg PUBLIC "-//W3C//DTD SVG 20010904//EN"
 "http://www.w3.org/TR/2001/REC-SVG-20010904/DTD/svg10.dtd">
<svg version="1.0" xmlns="http://www.w3.org/2000/svg"
 width="505.000000pt" height="782.000000pt" viewBox="0 0 505.000000 782.000000"
 preserveAspectRatio="xMidYMid meet">

<g transform="translate(0.000000,782.000000) scale(0.100000,-0.100000)"
fill="#000000" stroke="none">
<path d="M4349 7759 l-24 -20 23 6 c21 6 22 4 22 -54 0 -34 4 -61 10 -61 12 0
13 137 1 144 -5 3 -20 -3 -32 -15z"/>
<path d="M4470 7759 c-24 -20 -24 -20 -2 -14 21 6 22 4 22 -54 0 -34 4 -61 10
-61 12 0 14 136 2 144 -4 2 -19 -4 -32 -15z"/>
<path d="M4420 7640 c0 -5 5 -10 10 -10 6 0 10 5 10 10 0 6 -4 10 -10 10 -5 0
-10 -4 -10 -10z"/>
<path d="M2905 7620 c-158 -14 -185 -19 -185 -37 0 -12 7 -14 33 -9 91 16 390
28 552 23 612 -22 1061 -163 1330 -419 131 -124 213 -261 256 -426 22 -86 36
-282 24 -357 l-7 -50 -30 38 c-30 37 -48 47 -48 26 0 -19 75 -118 89 -119 17
0 121 77 121 90 0 17 -22 11 -56 -15 -18 -14 -34 -25 -36 -25 -2 0 -3 73 -3
163 -1 133 -5 178 -23 250 -117 469 -565 763 -1297 853 -152 18 -575 27 -720
14z"/>
<path d="M3324 7399 c-601 -55 -1793 -566 -2374 -1018 -164 -127 -246 -224
-328 -387 -142 -282 -232 -765 -232 -1242 l0 -154 32 20 c18 10 213 131 433
267 538 334 1058 646 1235 740 80 43 282 160 450 260 645 386 956 545 1066
545 29 0 34 -3 34 -23 0 -32 -60 -153 -120 -242 -183 -271 -527 -616 -885
-886 -266 -201 -531 -358 -835 -494 -388 -174 -710 -496 -925 -926 -113 -224
-165 -405 -165 -572 0 -115 19 -182 64 -229 76 -78 189 -75 298 10 188 146
438 309 688 450 482 271 809 417 1000 444 94 14 139 6 175 -32 24 -25 30 -41
33 -90 3 -46 1 -60 -9 -60 -24 0 -249 -114 -370 -187 -628 -381 -1417 -1001
-1939 -1523 -300 -300 -459 -497 -559 -690 -113 -218 -111 -322 10 -502 87
-129 271 -284 436 -367 207 -103 447 -162 575 -141 111 18 442 166 668 298
752 440 1453 1207 1906 2087 104 201 149 302 203 452 l37 103 202 151 202 151
0 229 c0 126 -3 229 -7 229 -5 0 -116 -40 -248 -89 l-240 -89 -12 117 c-25
233 -80 378 -185 487 -72 75 -166 127 -267 147 -36 8 -61 16 -55 19 5 3 49 22
97 42 457 189 782 475 967 851 70 143 108 248 157 435 26 100 27 116 27 330 0
298 -29 454 -110 610 -128 245 -332 358 -804 449 -136 26 -214 31 -326 20z
m385 -84 c268 -55 405 -107 528 -199 159 -120 246 -316 274 -613 30 -332 -24
-619 -177 -928 -197 -400 -573 -705 -1081 -878 -87 -30 -94 -34 -91 -57 3 -24
7 -25 88 -31 154 -11 250 -49 341 -136 116 -110 189 -340 189 -592 0 -56 2
-62 18 -56 9 4 82 31 162 60 80 29 182 67 228 84 l82 30 0 -184 0 -185 -194
-145 -194 -146 -31 -89 c-199 -571 -656 -1277 -1161 -1794 -445 -456 -910
-778 -1418 -982 -126 -51 -139 -54 -220 -54 -299 1 -698 204 -881 447 -76 101
-111 179 -111 245 0 264 373 731 1065 1333 651 566 1508 1165 1835 1281 l65
24 -2 66 c-3 84 -31 145 -81 176 -32 20 -50 23 -132 22 -85 0 -109 -5 -230
-46 -396 -134 -1072 -511 -1540 -860 -75 -56 -125 -68 -187 -43 -34 14 -47 27
-68 68 -21 43 -25 64 -25 143 0 171 39 313 150 539 146 301 353 558 592 737
106 79 184 124 364 208 412 193 722 397 1095 721 382 331 729 775 729 931 0
108 -130 89 -430 -61 -191 -96 -310 -163 -704 -398 -170 -102 -384 -226 -475
-275 -237 -129 -1040 -614 -1546 -932 l-90 -57 -3 78 c-5 107 14 369 39 538
63 439 179 734 360 914 351 352 1370 864 2099 1055 331 87 501 96 769 41z"/>
<path d="M3470 6870 c0 -5 23 -10 50 -10 28 0 50 5 50 10 0 6 -22 10 -50 10
-27 0 -50 -4 -50 -10z"/>
<path d="M3308 6863 c-31 -5 -38 -23 -9 -23 34 0 81 12 81 21 0 9 -22 10 -72
2z"/>
<path d="M3670 6861 c0 -9 90 -24 98 -16 7 7 -46 25 -74 25 -13 0 -24 -4 -24
-9z"/>
<path d="M3126 6831 c-16 -3 -31 -11 -33 -18 -3 -8 6 -9 34 -2 21 5 41 9 46 9
4 0 7 5 7 10 0 11 -9 11 -54 1z"/>
<path d="M3866 6801 c-7 -10 84 -65 92 -56 7 7 -4 16 -50 44 -20 12 -39 18
-42 12z"/>
<path d="M2943 6787 c-53 -12 -58 -32 -5 -22 35 6 61 21 51 28 -2 2 -23 -1
-46 -6z"/>
<path d="M2741 6724 c-19 -8 -31 -17 -28 -21 9 -8 97 17 97 28 0 13 -30 10
-69 -7z"/>
<path d="M2568 6663 c-35 -14 -51 -33 -29 -33 19 0 81 31 81 40 0 13 -6 12
-52 -7z"/>
<path d="M4075 6640 c22 -23 41 -36 43 -30 5 15 -48 70 -67 70 -9 0 0 -15 24
-40z"/>
<path d="M2390 6588 c-30 -14 -39 -22 -28 -25 20 -5 78 23 78 37 0 6 -1 10 -2
9 -2 0 -23 -10 -48 -21z"/>
<path d="M2211 6506 c-24 -13 -40 -25 -35 -28 5 -4 29 4 53 16 24 13 40 25 35
28 -5 4 -29 -4 -53 -16z"/>
<path d="M4192 6473 c28 -59 27 -58 34 -50 11 11 -26 97 -42 97 -11 0 -9 -11
8 -47z"/>
<path d="M2033 6423 c-32 -16 -44 -33 -23 -33 16 0 80 33 80 42 0 12 -21 9
-57 -9z"/>
<path d="M1863 6329 c-48 -31 -40 -42 12 -17 44 21 58 38 33 38 -7 0 -28 -10
-45 -21z"/>
<path d="M4238 6268 c-5 -59 -4 -63 11 -53 13 8 15 105 2 105 -5 0 -11 -24
-13 -52z"/>
<path d="M1698 6237 c-36 -21 -48 -37 -29 -37 16 0 81 41 81 51 0 13 -11 10
-52 -14z"/>
<path d="M1528 6133 c-21 -14 -35 -29 -32 -34 6 -10 84 39 84 52 0 14 -12 10
-52 -18z"/>
<path d="M4200 6086 c-6 -14 -14 -37 -20 -51 -18 -48 8 -34 28 15 12 28 17 52
11 55 -5 4 -14 -5 -19 -19z"/>
<path d="M1375 6034 c-11 -8 -27 -19 -35 -24 -8 -5 -12 -12 -8 -16 7 -6 88 40
88 51 0 10 -26 4 -45 -11z"/>
<path d="M1215 5924 c-11 -8 -27 -19 -35 -24 -8 -5 -12 -12 -8 -16 7 -6 88 40
88 51 0 10 -26 4 -45 -11z"/>
<path d="M4090 5882 c-32 -47 -34 -52 -22 -52 16 0 65 71 56 80 -5 5 -20 -7
-34 -28z"/>
<path d="M1050 5801 c-19 -16 -33 -32 -29 -35 6 -7 79 44 79 56 0 15 -15 8
-50 -21z"/>
<path d="M3942 5741 c-19 -16 -29 -31 -24 -35 5 -3 27 10 48 29 23 20 33 34
24 34 -8 0 -30 -13 -48 -28z"/>
<path d="M914 5695 c-26 -19 -11 -31 16 -12 12 8 17 17 12 21 -5 3 -18 -1 -28
-9z"/>
<path d="M3792 5622 c-18 -15 -30 -31 -26 -34 7 -8 74 40 74 53 0 15 -14 10
-48 -19z"/>
<path d="M3644 5508 c-16 -12 -31 -23 -33 -25 -2 -2 -1 -6 2 -9 7 -8 77 37 77
49 0 13 -17 8 -46 -15z"/>
<path d="M3490 5391 c-19 -16 -32 -33 -28 -36 9 -10 79 45 72 56 -7 12 -3 13
-44 -20z"/>
<path d="M3330 5270 c-19 -16 -29 -29 -22 -30 15 0 72 40 72 52 0 15 -15 8
-50 -22z"/>
<path d="M3180 5161 c-19 -16 -32 -33 -28 -36 9 -10 79 45 72 56 -7 12 -3 13
-44 -20z"/>
<path d="M3020 5040 c-19 -16 -29 -29 -22 -30 15 0 72 40 72 52 0 15 -15 8
-50 -22z"/>
<path d="M2872 4934 c-41 -32 -42 -51 -1 -27 37 22 53 39 42 46 -5 3 -23 -6
-41 -19z"/>
<path d="M2725 4824 c-11 -8 -27 -19 -35 -24 -8 -5 -12 -12 -8 -15 8 -9 78 33
78 46 0 13 -12 11 -35 -7z"/>
<path d="M2558 4703 c-21 -14 -35 -29 -32 -34 3 -5 23 3 44 17 22 15 37 30 34
35 -6 11 -2 13 -46 -18z"/>
<path d="M2404 4588 c-16 -12 -31 -23 -33 -25 -2 -2 -1 -6 2 -9 7 -8 77 37 77
49 0 13 -17 8 -46 -15z"/>
<path d="M2254 4478 c-16 -12 -31 -23 -33 -25 -2 -2 -1 -6 2 -9 7 -8 77 37 77
49 0 13 -17 8 -46 -15z"/>
<path d="M2097 4363 c-20 -14 -34 -30 -31 -35 3 -5 11 -5 17 0 7 5 25 18 40
29 41 31 17 37 -26 6z"/>
<path d="M1947 4253 c-35 -25 -47 -43 -29 -43 13 0 77 58 71 64 -3 3 -22 -6
-42 -21z"/>
<path d="M2840 4270 c0 -5 20 -10 44 -10 25 0 48 5 51 10 4 6 -13 10 -44 10
-28 0 -51 -4 -51 -10z"/>
<path d="M3040 4273 c0 -11 79 -27 88 -18 9 9 -2 14 -46 21 -26 4 -42 3 -42
-3z"/>
<path d="M2676 4251 c-16 -3 -31 -11 -33 -17 -3 -8 10 -9 47 -1 27 5 50 14 50
18 0 10 -20 10 -64 0z"/>
<path d="M3227 4223 c-4 -3 12 -19 34 -35 40 -29 63 -32 41 -6 -16 20 -68 48
-75 41z"/>
<path d="M2496 4207 c-22 -7 -41 -17 -43 -24 -3 -8 7 -8 38 1 24 7 45 18 47
24 2 7 2 12 0 11 -1 0 -21 -6 -42 -12z"/>
<path d="M1785 4135 c-41 -34 -23 -44 20 -11 19 15 35 29 35 32 0 11 -28 1
-55 -21z"/>
<path d="M2292 4143 c-23 -8 -40 -19 -37 -23 7 -11 95 18 95 31 0 11 -6 11
-58 -8z"/>
<path d="M2103 4074 c-34 -14 -48 -42 -15 -29 9 4 29 12 45 17 27 10 38 29 15
27 -7 0 -28 -7 -45 -15z"/>
<path d="M3366 4043 c19 -45 34 -64 34 -41 0 29 -22 78 -35 78 -11 0 -11 -7 1
-37z"/>
<path d="M1637 4024 c-21 -14 -35 -29 -32 -35 7 -10 75 38 75 52 0 12 -1 12
-43 -17z"/>
<path d="M1920 3998 c-26 -11 -39 -22 -32 -25 16 -6 92 26 92 39 0 11 -9 9
-60 -14z"/>
<path d="M1487 3913 c-35 -25 -47 -43 -29 -43 13 0 77 58 71 64 -3 3 -22 -6
-42 -21z"/>
<path d="M1737 3919 c-22 -11 -36 -23 -33 -26 9 -9 97 28 90 38 -7 12 -13 11
-57 -12z"/>
<path d="M3423 3850 c6 -29 14 -47 19 -42 11 11 -4 84 -18 89 -8 3 -8 -11 -1
-47z"/>
<path d="M1563 3839 c-24 -11 -43 -24 -43 -29 0 -14 5 -13 50 10 22 11 40 25
40 30 0 6 -1 10 -2 9 -2 0 -22 -9 -45 -20z"/>
<path d="M1325 3795 c-41 -34 -23 -44 20 -11 19 15 35 29 35 32 0 11 -28 1
-55 -21z"/>
<path d="M4065 3766 c-11 -8 -14 -16 -8 -19 6 -4 18 0 28 7 11 8 14 16 8 19
-6 4 -18 0 -28 -7z"/>
<path d="M1377 3749 c-22 -11 -36 -23 -33 -26 8 -8 86 27 86 39 0 12 -11 9
-53 -13z"/>
<path d="M3923 3703 c-27 -14 -44 -33 -29 -33 15 0 76 32 76 40 0 13 -9 12
-47 -7z"/>
<path d="M1172 3682 c-30 -25 -32 -29 -18 -41 14 -12 23 -11 56 4 22 10 40 22
40 27 0 12 -6 10 -53 -13 l-42 -20 33 28 c54 47 39 61 -16 15z"/>
<path d="M3440 3660 c0 -27 5 -50 10 -50 6 0 10 23 10 50 0 28 -4 50 -10 50
-5 0 -10 -22 -10 -50z"/>
<path d="M3752 3625 c-18 -8 -31 -19 -27 -25 4 -6 21 -2 46 10 60 31 45 43
-19 15z"/>
<path d="M1040 3585 c-7 -9 -10 -18 -7 -21 9 -9 48 16 42 27 -9 13 -21 11 -35
-6z"/>
<path d="M3593 3553 c-27 -14 -44 -33 -29 -33 15 0 76 32 76 40 0 13 -9 12
-47 -7z"/>
<path d="M3440 3502 c0 -11 -12 -24 -26 -30 -26 -12 -25 -36 1 -25 9 3 15 -1
15 -11 0 -27 15 -18 32 19 8 19 12 35 7 35 -5 0 -9 7 -9 15 0 8 -4 15 -10 15
-5 0 -10 -8 -10 -18z"/>
<path d="M3257 3397 c-21 -13 -35 -26 -31 -29 8 -8 84 31 84 43 0 14 -12 11
-53 -14z"/>
<path d="M3420 3325 c-1 -6 -5 -29 -9 -53 -6 -30 -5 -42 2 -39 16 5 30 78 17
91 -6 6 -10 6 -10 1z"/>
<path d="M3092 3291 c-24 -16 -40 -31 -35 -34 11 -7 83 39 83 53 0 13 1 14
-48 -19z"/>
<path d="M2925 3183 c-51 -33 -49 -32 -43 -39 9 -9 88 39 88 54 0 16 1 16 -45
-15z"/>
<path d="M3372 3102 c-14 -47 -15 -62 -3 -62 12 0 32 83 22 93 -4 4 -13 -10
-19 -31z"/>
<path d="M2750 3069 c-43 -26 -45 -28 -37 -35 7 -7 87 36 87 48 0 13 -12 10
-50 -13z"/>
<path d="M2578 2957 c-37 -21 -48 -37 -28 -37 14 0 80 43 80 53 0 11 -12 8
-52 -16z"/>
<path d="M2785 2907 c-129 -68 -163 -90 -320 -207 -393 -294 -1006 -888 -1558
-1509 -70 -79 -126 -145 -124 -147 6 -6 167 42 253 76 322 127 737 439 1090
820 293 316 567 675 768 1008 12 20 -4 14 -109 -41z m-85 -169 c-498 -737
-1153 -1352 -1663 -1563 -49 -20 -92 -35 -97 -33 -18 6 478 535 773 824 323
317 579 544 802 709 112 84 237 165 244 159 2 -2 -25 -45 -59 -96z"/>
<path d="M3308 2905 c-20 -53 -4 -62 18 -10 16 39 18 55 6 55 -4 0 -15 -20
-24 -45z"/>
<path d="M2407 2845 c-40 -27 -54 -58 -14 -33 12 8 32 21 45 29 22 14 29 29
14 29 -4 0 -24 -11 -45 -25z"/>
<path d="M3230 2731 c-11 -23 -16 -42 -10 -46 8 -5 50 62 50 80 0 18 -23 -1
-40 -34z"/>
<path d="M2237 2734 c-43 -29 -51 -55 -9 -29 56 37 63 43 54 49 -5 3 -25 -6
-45 -20z"/>
<path d="M2067 2624 c-43 -29 -51 -55 -9 -29 56 37 63 43 54 49 -5 3 -25 -6
-45 -20z"/>
<path d="M3141 2564 c-31 -51 -20 -66 12 -19 28 42 33 55 18 55 -5 0 -19 -16
-30 -36z"/>
<path d="M1898 2513 c-21 -14 -35 -29 -32 -34 6 -10 84 39 84 52 0 14 -12 10
-52 -18z"/>
<path d="M3034 2405 c-33 -43 -23 -61 11 -20 22 27 32 55 21 55 -3 0 -17 -16
-32 -35z"/>
<path d="M1740 2401 c-19 -16 -32 -33 -28 -36 8 -8 78 43 78 56 0 15 -14 10
-50 -20z"/>
<path d="M1582 2282 c-18 -15 -30 -31 -26 -34 7 -8 74 40 74 53 0 15 -14 10
-48 -19z"/>
<path d="M2911 2256 c-19 -20 -31 -39 -27 -43 9 -9 69 52 65 66 -3 7 -19 -4
-38 -23z"/>
<path d="M1432 2159 c-19 -17 -31 -33 -28 -36 7 -7 76 45 76 58 0 16 -14 10
-48 -22z"/>
<path d="M2760 2105 c-18 -19 -30 -38 -27 -42 8 -7 77 55 77 69 0 16 -17 7
-50 -27z"/>
<path d="M1285 2030 c-16 -16 -25 -33 -22 -37 8 -7 67 45 67 59 0 16 -17 8
-45 -22z"/>
<path d="M2614 1966 c-21 -19 -35 -38 -31 -42 4 -4 24 9 44 29 48 47 38 57
-13 13z"/>
<path d="M1142 1897 c-18 -18 -29 -36 -25 -40 7 -8 73 51 73 65 0 16 -17 7
-48 -25z"/>
<path d="M2460 1825 c-18 -19 -30 -38 -27 -42 8 -7 77 55 77 69 0 16 -17 7
-50 -27z"/>
<path d="M1007 1755 c-15 -18 -23 -36 -18 -39 8 -5 61 54 61 68 0 14 -17 2
-43 -29z"/>
<path d="M2303 1686 c-21 -20 -32 -36 -24 -36 19 0 83 58 71 65 -5 3 -26 -10
-47 -29z"/>
<path d="M881 1611 c-17 -22 -28 -42 -23 -45 5 -3 23 12 41 34 17 21 27 41 22
44 -5 4 -23 -12 -40 -33z"/>
<path d="M2147 1555 c-21 -18 -34 -36 -29 -39 5 -3 26 9 47 28 21 18 34 35 29
38 -5 3 -26 -9 -47 -27z"/>
<path d="M763 1455 c-25 -38 -27 -45 -14 -45 4 0 20 18 35 40 16 25 21 40 14
40 -7 0 -23 -16 -35 -35z"/>
<path d="M1981 1421 c-19 -15 -30 -31 -25 -34 6 -3 28 10 49 28 23 20 34 34
25 34 -8 0 -30 -12 -49 -28z"/>
<path d="M660 1290 c-22 -43 -24 -50 -12 -50 7 0 52 73 52 84 0 19 -23 0 -40
-34z"/>
<path d="M1827 1303 c-34 -24 -47 -43 -29 -43 4 0 24 14 45 29 48 37 33 49
-16 14z"/>
<path d="M1671 1189 c-13 -11 -31 -24 -40 -29 -9 -5 -13 -12 -9 -16 10 -10 90
45 83 56 -8 12 -5 13 -34 -11z"/>
<path d="M595 1129 c-4 -11 -1 -34 5 -50 15 -34 35 -40 23 -6 -4 12 -7 34 -7
50 1 32 -12 36 -21 6z"/>
<path d="M1487 1065 c-21 -12 -38 -27 -37 -31 3 -12 16 -7 57 20 46 31 28 41
-20 11z"/>
<path d="M1297 956 c-20 -12 -34 -25 -31 -29 7 -7 94 34 94 45 0 13 -23 7 -63
-16z"/>
<path d="M677 953 c-3 -5 11 -29 32 -53 21 -24 40 -39 43 -34 3 5 -11 29 -32
53 -20 24 -40 39 -43 34z"/>
<path d="M1113 868 c-23 -12 -40 -25 -37 -29 6 -10 94 31 94 43 0 12 -11 10
-57 -14z"/>
<path d="M850 812 c0 -5 7 -13 16 -16 26 -10 104 -7 104 4 0 6 -20 10 -44 10
-24 0 -51 3 -60 6 -9 3 -16 2 -16 -4z"/>
<path d="M3859 4419 l-24 -20 23 6 c21 6 22 4 22 -54 0 -34 4 -61 10 -61 12 0
13 137 1 144 -5 3 -20 -3 -32 -15z"/>
<path d="M3995 4420 c-10 -11 -13 -20 -7 -20 6 0 14 5 17 10 3 6 15 10 26 10
27 0 26 -40 -2 -47 -20 -5 -20 -6 3 -17 12 -6 24 -19 26 -27 4 -24 -27 -32
-54 -14 -25 16 -33 8 -12 -13 19 -19 66 -15 78 7 11 22 4 51 -13 51 -7 0 -7 4
1 12 18 18 14 46 -7 58 -27 14 -35 13 -56 -10z"/>
<path d="M3930 4300 c0 -5 5 -10 10 -10 6 0 10 5 10 10 0 6 -4 10 -10 10 -5 0
-10 -4 -10 -10z"/>
<path d="M4180 4251 c0 -5 14 -14 31 -21 16 -7 26 -16 22 -20 -4 -4 -78 -29
-163 -55 -144 -44 -180 -59 -169 -69 2 -2 81 21 174 50 94 29 171 54 173 54 1
0 -4 -13 -13 -30 -17 -33 -18 -40 -7 -40 9 0 52 72 52 87 0 5 -20 19 -45 31
-51 25 -55 26 -55 13z"/>
<path d="M3776 2244 c-53 -79 -243 -330 -342 -450 -239 -291 -543 -617 -769
-828 -567 -526 -1041 -801 -1415 -822 l-95 -5 39 36 c27 24 36 39 29 46 -7 7
-28 -4 -66 -36 -32 -25 -57 -51 -57 -56 0 -17 84 -119 97 -119 20 0 16 14 -18
56 l-31 39 94 6 c304 21 620 169 1030 481 395 301 898 813 1292 1318 130 166
276 367 276 381 0 26 -31 3 -64 -47z"/>
<path d="M2989 859 l-24 -20 23 6 c21 6 22 4 22 -54 0 -34 4 -61 10 -61 12 0
13 137 1 144 -5 3 -20 -3 -32 -15z"/>
<path d="M3138 869 c-10 -5 -18 -17 -18 -26 0 -15 2 -15 13 1 14 19 48 19 54
0 2 -6 -15 -34 -37 -63 l-40 -51 50 0 c32 0 49 4 45 10 -3 6 -17 10 -31 10
l-25 0 25 33 c28 37 33 66 14 85 -14 14 -27 15 -50 1z"/>
<path d="M3060 740 c0 -5 5 -10 10 -10 6 0 10 5 10 10 0 6 -4 10 -10 10 -5 0
-10 -4 -10 -10z"/>
</g>
</svg>
