<?xml version="1.0" encoding="UTF-8"?>
<svg version="1.1" xmlns="http://www.w3.org/2000/svg" width="587" height="536">
<path d="M0 0 C4.19145684 3.80974799 8.74946435 8.43967847 9.16500854 14.34490967 C9.12457428 15.2143219 9.08414001 16.08373413 9.04248047 16.97949219 C9.00067657 17.9774884 8.95887268 18.97548462 8.915802 20.00372314 C8.82986282 21.63383331 8.82986282 21.63383331 8.7421875 23.296875 C8.689487 24.44758484 8.6367865 25.59829468 8.58248901 26.78387451 C8.04267393 38.13358408 7.34107435 49.47489581 6.64160156 60.81567383 C4.7120463 92.13394803 3.31484916 123.45301958 2.25 154.8125 C2.2174839 155.76437698 2.1849678 156.71625397 2.15146637 157.69697571 C1.93456765 164.05433553 1.722938 170.41185194 1.515625 176.76953125 C1.48863651 177.58893251 1.46164803 178.40833378 1.43384171 179.25256538 C1.17498943 187.1695864 0.92541391 195.07748852 1 203 C1.25056152 202.04673828 1.50112305 201.09347656 1.75927734 200.11132812 C18.64402033 136.0458785 18.64402033 136.0458785 30 114 C30.41862305 113.18708496 30.83724609 112.37416992 31.26855469 111.53662109 C41.06917965 92.75269535 52.02449703 74.97060626 66 59 C67.02480469 57.82050781 67.02480469 57.82050781 68.0703125 56.6171875 C88.10141803 35.19864609 116.03082077 22.89568619 144.984375 21.74609375 C178.45796007 21.03823429 209.3330611 31.1904607 233.82006836 54.48535156 C245.0859408 65.48107883 253.03393633 77.46839945 259 92 C259.27859863 92.66854004 259.55719727 93.33708008 259.84423828 94.02587891 C270.63657413 120.21984216 268.478275 148.64305605 266.828125 176.37890625 C266.70390659 178.5320215 266.58017025 180.68516461 266.45687866 182.83833313 C266.19524487 187.39212882 265.93056506 191.94573257 265.66339111 196.49920654 C265.24549115 203.62495179 264.83562008 210.75114468 264.42724609 217.87744141 C263.87969298 227.42411232 263.33008358 236.97066134 262.77832031 246.51708984 C261.84586868 262.65698628 260.91505376 278.79696491 260.01392365 294.93864536 C259.80159738 298.74022338 259.58728434 302.54166016 259.36730957 306.34280396 C258.13381359 327.67823074 257.50661316 348.7822694 258.75 370.125 C258.79256927 370.86747986 258.83513855 371.60995972 258.8789978 372.37493896 C260.03750283 409.90964883 260.03750283 409.90964883 276.890625 441.72265625 C280.17657667 443.71248254 282.65129904 443.2083582 286.3515625 442.6875 C297.71135898 439.73864428 305.63853744 428.70674354 311.4375 419.1875 C313.01269731 416.48657625 314.51921588 413.75369495 316 411 C316.38236816 410.29133789 316.76473633 409.58267578 317.15869141 408.85253906 C332.95540851 378.96827941 341.78163698 345.7492716 350.39978027 313.25878906 C350.94648685 311.20138447 351.49768401 309.14527452 352.05175781 307.08984375 C354.47955104 298.07598844 356.82480415 289.09870609 358.625 279.9375 C360.27001938 272.0261929 363.64512508 267.73235366 370 263 C375.88635373 261.03788209 382.60235577 260.983014 388.3125 263.5625 C395.91056839 268.02189801 399.42638983 274.79084344 402 283 C404.03113114 290.94106757 402.57450058 298.042613 400.875 305.890625 C400.65262665 306.94002762 400.4302533 307.98943024 400.20114136 309.07063293 C399.47710195 312.46592021 398.74015159 315.85819073 398 319.25 C397.62418793 320.98272659 397.62418793 320.98272659 397.24078369 322.75045776 C393.53956571 339.75615384 389.5284034 356.48324453 384 373 C383.65791504 374.051875 383.31583008 375.10375 382.96337891 376.1875 C370.56212586 414.25804385 353.42871939 464.00757638 315.41186523 484.09204102 C287.16853149 498.41513164 258.88025922 500.60708248 228.20703125 491.71484375 C205.4786705 484.24554226 189.25985296 466.9064883 177 447 C176.4419165 446.09701172 176.4419165 446.09701172 175.87255859 445.17578125 C173.44051912 441.18948045 171.1852099 437.1281364 169 433 C168.40574219 431.87851562 167.81148438 430.75703125 167.19921875 429.6015625 C160.01942839 415.17830293 155.90930274 399.50981668 152.25 383.875 C152.06356934 383.09116943 151.87713867 382.30733887 151.68505859 381.49975586 C151.05643408 378.67658344 150.52347753 375.84464522 150 373 C149.8099791 372.05909515 149.8099791 372.05909515 149.61611938 371.09918213 C146.00956024 352.82021126 146.58120849 334.28398408 146.6774292 315.74359131 C146.6907463 312.28090215 146.68561038 308.81834442 146.68056202 305.35564137 C146.65331782 280.55152079 146.89166043 255.65889664 150.4375 231.0625 C154.82615677 200.00411975 156.01691379 168.29392435 156.17422485 136.96099854 C156.18290037 135.31185178 156.19431859 133.66271656 156.20883179 132.01361084 C156.91927137 107.50098168 156.91927137 107.50098168 147.22265625 85.96484375 C141.95896621 81.25756915 137.28466666 80.49555456 130.3046875 80.62109375 C116.68487563 82.18270339 106.43356559 93.90239465 97.69140625 103.546875 C84.16405342 120.75839253 76.10272008 142.93641614 67.81317139 163.03491211 C67.01639416 164.96038232 66.21055864 166.88183572 65.40283203 168.80273438 C55.3215541 192.89233574 48.33176305 217.77775834 41.47831726 242.94671631 C39.88647927 248.79232406 38.26288336 254.62484438 36.5546875 260.4375 C20.13802707 316.68004939 10.58434881 378.1592423 7.64997864 436.64222717 C7.54589292 438.71519962 7.43370292 440.78761263 7.32055664 442.86010742 C7.19594012 445.29907517 7.0972801 447.73960615 7.03295898 450.1809082 C6.62610365 458.86776568 3.99035938 463.31917946 -2.31640625 469.13671875 C-18.91304527 480.5956156 -38.19104547 483.04605276 -57.86328125 480.5 C-68.30880072 478.33970455 -78.0669118 473.55724992 -84.58984375 464.88671875 C-90.82262431 455.19656882 -93.88367576 444.54066855 -95.9921875 433.3359375 C-96.16472046 432.42046646 -96.33725342 431.50499542 -96.51501465 430.56178284 C-98.31031683 420.73525536 -99.47280274 410.86949007 -100.5 400.9375 C-100.60261139 399.96268677 -100.70522278 398.98787354 -100.8109436 397.98352051 C-105.5606936 352.67038787 -107.89136108 307.45929507 -108.91143799 261.93371582 C-108.99678238 258.14291924 -109.08558544 254.35221896 -109.17529297 250.56152344 C-109.50842576 236.30582965 -109.76916317 222.05034107 -109.96032715 207.79205322 C-109.99709881 205.20417687 -110.04052629 202.61652785 -110.08691406 200.02880859 C-110.51134135 175.52120539 -109.67433073 151.05176856 -108.78239441 126.56337738 C-108.68925655 123.98610641 -108.59891541 121.40875044 -108.50915527 118.83135986 C-107.90519565 101.67414662 -107.13994134 84.55825568 -105.546875 67.4609375 C-105.37287422 65.57634071 -105.37287422 65.57634071 -105.19535828 63.65367126 C-100.5959642 17.39314134 -100.5959642 17.39314134 -86.58984375 4.83984375 C-64.11032461 -12.46453429 -24.17084013 -16.00646746 0 0 Z M-85.75390625 12.7734375 C-90.50475195 18.41729931 -92.33842373 24.92756162 -94 32 C-94.16741699 32.71220703 -94.33483398 33.42441406 -94.50732422 34.15820312 C-100.73599444 61.64623133 -101.60230913 90.09499147 -102.59769058 118.16034317 C-102.68934439 120.73939939 -102.78350276 123.31835565 -102.87802124 125.89730835 C-103.92263626 154.61311315 -104.50465959 183.2649235 -104 212 C-103.98658821 212.77750107 -103.97317642 213.55500214 -103.95935822 214.35606384 C-103.72950728 227.65468075 -103.4693338 240.95257118 -103.18722153 254.25017929 C-103.14627335 256.18323897 -103.10567796 258.11630616 -103.06546402 260.04938126 C-102.30352185 296.62453582 -101.03345691 333.12632928 -97.625 369.5625 C-97.51672882 370.74417755 -97.40845764 371.9258551 -97.29690552 373.14334106 C-94.48931175 409.46608322 -94.48931175 409.46608322 -87 445 C-86.65453125 446.17175781 -86.3090625 447.34351563 -85.953125 448.55078125 C-82.64740233 458.36606054 -77.27029086 466.04046647 -68 471 C-52.80822519 478.17389366 -33.42828349 476.44726676 -18 471 C-10.49772677 467.89244075 -4.36802425 463.99815274 0 457 C1.18055643 452.64999754 1.41060853 448.34931286 1.63671875 443.859375 C1.77685541 441.90666089 1.91700209 439.95394746 2.05765247 438.00127029 C2.24632137 435.27042161 2.40570576 432.53815852 2.56530762 429.80548096 C2.92231917 423.7999475 3.34356213 417.79840061 3.76171875 411.796875 C3.80726521 411.13483189 3.85281166 410.47278877 3.89973831 409.79068375 C4.87890075 395.74362169 6.75569091 381.89630364 9 368 C9.18509125 366.84693359 9.3701825 365.69386719 9.56088257 364.50585938 C10.90339754 356.20282534 12.31207583 347.91199497 13.75 339.625 C13.96720703 338.37129608 14.18441406 337.11759216 14.40820312 335.82589722 C19.8051795 304.78172793 25.86418935 274.30178435 34.90393066 244.10452271 C36.71149378 238.04270174 38.41698725 231.95530692 40.10546875 225.859375 C45.8510927 205.21253407 51.98172616 185.1658251 60.49853516 165.47509766 C62.07262953 161.83190102 63.60729192 158.17379126 65.13671875 154.51171875 C70.33066117 142.12153147 75.66090035 129.85077998 82 118 C82.47832275 117.08541016 82.47832275 117.08541016 82.96630859 116.15234375 C87.36901868 107.77122848 92.33325914 100.7445195 99 94 C99.7940625 93.14535156 100.588125 92.29070312 101.40625 91.41015625 C109.07536386 83.34059815 117.86757156 75.91537998 129.296875 74.62890625 C138.25301174 74.45667285 145.09658266 75.40437293 151.8046875 81.69140625 C174.6617769 108.92659486 161.79008724 174.80689911 158.93823242 207.63305664 C157.86818886 219.51848902 156.59152778 231.3840477 155.00219727 243.21191406 C153.03706799 258.33079687 152.82460448 273.5912404 152.76171875 288.81640625 C152.75764322 289.67336531 152.7535677 290.53032436 152.74936867 291.41325188 C152.72873514 295.9484315 152.71433686 300.4835829 152.70483398 305.01879883 C152.6959938 308.70223624 152.67513303 312.38529407 152.64331055 316.06860352 C152.46846057 336.77983018 152.60908372 356.65711559 157 377 C157.25160889 378.28382568 157.50321777 379.56765137 157.76245117 380.89038086 C158.36222676 383.84307099 159.0266183 386.76297862 159.75 389.6875 C160.12342529 391.21093018 160.12342529 391.21093018 160.50439453 392.76513672 C168.74334591 425.14285839 185.76524679 460.12923633 214.5 479.1875 C235.35070245 490.8612992 264.99675197 495.15744247 288.14477539 488.90917969 C295.73179603 486.64269179 302.89956917 483.47476021 310 480 C311.03769531 479.51144531 312.07539063 479.02289063 313.14453125 478.51953125 C351.43533843 458.57960623 368.07214944 404.54299157 380.04931641 366.68310547 C385.07718766 350.21198555 388.80720828 333.43473196 392.5 316.625 C392.7259082 315.60351868 392.95181641 314.58203735 393.18457031 313.52960205 C393.82987248 310.59710287 394.46389618 307.66241427 395.09375 304.7265625 C395.28706909 303.8485498 395.48038818 302.97053711 395.67956543 302.06591797 C397.80837055 291.97802246 397.01772035 283.81988925 392.25 274.625 C388.94881383 270.77361614 385.73760745 268.46739639 380.7578125 267.6171875 C376.85188465 267.41991842 374.30624875 267.8670996 370.6875 269.4375 C365.44381471 274.43729295 364.05005836 280.26545687 362.796875 287.2578125 C360.62208554 298.67060092 357.46853518 309.85403033 354.4375 321.0625 C353.97071838 322.79252258 353.97071838 322.79252258 353.49450684 324.55749512 C325.74456063 427.09680039 325.74456063 427.09680039 296.1875 444.8515625 C290.02623074 448.08622886 285.01114812 449.77901646 278 449 C270.35199304 445.96716965 267.11699092 440.42475718 263.65625 433.19140625 C252.56168847 406.63887331 252.41010631 375.47375833 252.53125 347.17578125 C252.53298721 345.88388697 252.53472443 344.59199268 252.53651428 343.26095009 C252.60451803 309.08577006 254.83408889 275.0067428 257.0084362 240.91363919 C257.88803325 227.12076533 258.73883848 213.32610511 259.5787034 199.53075963 C259.87135372 194.73591432 260.17285186 189.94173928 260.48185682 185.14792162 C264.8162174 123.60230375 264.8162174 123.60230375 238.921875 69.1640625 C238.28765625 68.44992188 237.6534375 67.73578125 237 67 C236.20078125 66.05898437 235.4015625 65.11796875 234.578125 64.1484375 C215.40414838 42.00040807 189.00211796 30.33377654 160 28 C127.86093184 26.33237687 102.07081134 34.97397943 77.8125 56.5 C76.20375934 57.99509336 74.59928215 59.49479327 73 61 C72.34644531 61.5775 71.69289062 62.155 71.01953125 62.75 C60.25287436 72.69528307 52.40149849 86.29737764 45.17578125 98.94238281 C44.3483305 100.39042163 43.51439645 101.8347654 42.67578125 103.27636719 C12.44367421 155.37805866 2.74408941 217.55883801 -2.265625 276.65234375 C-2.34038559 277.52193726 -2.41514618 278.39153076 -2.49217224 279.28747559 C-2.81730592 283.20337138 -3.09424512 287.06626885 -3 291 C-4.98 291 -6.96 291 -9 291 C-8.84148434 290.14983275 -8.68296867 289.29966551 -8.51964951 288.42373562 C-7.99853321 284.99033596 -7.79465461 281.69023221 -7.68560791 278.2202301 C-7.66378 277.56186612 -7.64195209 276.90350213 -7.61946273 276.22518772 C-7.54755116 274.02856525 -7.48132498 271.83180863 -7.41503906 269.63500977 C-7.36426634 268.05115575 -7.31310849 266.46731404 -7.26159668 264.88348389 C-7.15091348 261.46089004 -7.04257725 258.03823259 -6.93592072 254.61551094 C-6.76364906 249.10074118 -6.58363732 243.58623967 -6.40228271 238.07176208 C-5.8872866 222.38204499 -5.37902635 206.69212455 -4.88574219 191.00170898 C-4.52424127 179.52287585 -4.15112713 168.04445874 -3.765625 156.56640625 C-3.71789979 155.14134034 -3.71789979 155.14134034 -3.66921043 153.68748522 C-2.50604041 119.12763523 -0.72496529 84.6195404 1.387146 50.10536194 C1.46814214 48.77617084 1.46814214 48.77617084 1.55077457 47.42012739 C1.80261486 43.29126083 2.05762462 39.16265895 2.32067108 35.03449059 C4.3562745 20.52825583 4.3562745 20.52825583 -0.2734375 7.59375 C-13.2785433 -4.41096305 -30.48730253 -3.78422223 -47.08935547 -3.17285156 C-61.97068228 -2.28910895 -75.16989402 2.07156322 -85.75390625 12.7734375 Z " fill="#000000" transform="translate(170,9)"/>
<path d="M0 0 C4.75645477 3.1349361 6.19812263 7.11588977 7.43359375 12.453125 C12.24883899 42.60652281 6.38427318 74.24019306 2.84936142 104.24367714 C1.06524478 119.39675816 -0.65471339 134.53980965 -1.875 149.75 C-1.93025848 150.43315277 -1.98551697 151.11630554 -2.04244995 151.82015991 C-2.39299632 156.21147378 -2.70008705 160.60498666 -3 165 C-3.0928125 166.16644043 -3.185625 167.33288086 -3.28125 168.53466797 C-4.29517753 182.68800994 -4.22281987 196.87721274 -4.24023438 211.05957031 C-4.24458557 214.07825019 -4.25837125 217.09663886 -4.28125 220.11523438 C-4.67520504 273.25086221 -0.79269903 337.12504098 36 379 C36.66257812 379.80566406 37.32515625 380.61132812 38.0078125 381.44140625 C55.95906767 402.60533993 81.00994996 413.08799066 108 417 C108.65806641 417.09571289 109.31613281 417.19142578 109.99414062 417.29003906 C116.78009149 418.16854963 123.54144473 418.14772801 130.375 418.125 C131.53 418.12886719 132.685 418.13273437 133.875 418.13671875 C145.2818038 418.12384425 154.78324522 417.73476261 165.25 412.9375 C166.1575 412.53337891 167.065 412.12925781 168 411.71289062 C209.8255628 392.83821928 239.81402373 361.95109967 256.13867188 319.00439453 C268.94309754 283.21020461 273.37024536 244.84730321 273 207 C272.319375 207.7425 272.319375 207.7425 271.625 208.5 C270 210 270 210 268 210 C268.47246642 205.74780225 270.77272377 203.62685275 274 201 C277.2298914 200.79813179 278.29055681 202.25093543 280.75 204.375 C283 207 283 207 283 210 C279.125 208.125 279.125 208.125 278 207 C277.93268677 208.34070557 277.93268677 208.34070557 277.86401367 209.70849609 C274.74649316 270.37397002 266.97189042 333.41103865 223 379 C221.74123047 380.37091797 221.74123047 380.37091797 220.45703125 381.76953125 C200.56044385 402.80994667 169.12039014 420.88264208 140.03222656 422.12695312 C102.7251077 423.10706605 68.03624419 415.68792649 40.10571289 389.55249023 C9.44827201 359.8731442 -1.56368796 314.98948944 -6 274 C-6.08613556 273.20469879 -6.17227112 272.40939758 -6.26101685 271.58999634 C-8.04728574 254.5150017 -8.36335039 237.48107632 -8.31805801 220.32907486 C-8.31240668 218.1515419 -8.30959189 215.97401679 -8.30697632 213.79647827 C-8.26452624 189.42968158 -7.39757477 165.25847009 -5 141 C-4.90807373 140.062771 -4.81614746 139.12554199 -4.72143555 138.15991211 C-3.2687702 123.42643437 -1.66331013 108.71101057 0 94 C0.15012543 92.670896 0.15012543 92.670896 0.30328369 91.31494141 C0.49910095 89.58153785 0.69500663 87.84814428 0.89100647 86.11476135 C1.17037426 83.64161621 1.44864034 81.16834888 1.72680664 78.69506836 C2.05991241 75.73422615 2.3992449 72.77421582 2.74389648 69.81469727 C7.55082809 36.5522544 7.55082809 36.5522544 0 5 C-1.09271209 3.69889439 -1.09271209 3.69889439 -3.7578125 3.6953125 C-10.99260374 4.37520854 -16.39698954 12.07602095 -20.875 17.375 C-54.66960233 61.51075065 -77.4895994 117.24637656 -88.375 171.625 C-88.60171387 172.74068359 -88.82842773 173.85636719 -89.06201172 175.00585938 C-93.54411882 198.97788139 -94.52032043 223.34036191 -95.33721924 247.6517334 C-95.61099518 255.78317872 -95.92389745 263.91316003 -96.2421875 272.04296875 C-96.273018 272.83439396 -96.3038485 273.62581917 -96.33561325 274.44122696 C-96.84510629 287.39783383 -97.54636525 300.32669976 -98.625 313.25 C-98.68743896 314.00473602 -98.74987793 314.75947205 -98.81420898 315.53707886 C-99.3363921 321.73887014 -99.91906858 327.86821261 -101 334 C-101.99 333.67 -102.98 333.34 -104 333 C-103.92483154 332.15074951 -103.84966309 331.30149902 -103.7722168 330.42651367 C-102.14594183 311.50247503 -100.96291611 292.57698828 -100.23828125 273.59765625 C-100.20719458 272.78828802 -100.1761079 271.97891979 -100.14407921 271.14502525 C-99.83023813 262.93695844 -99.53079054 254.72855094 -99.2580862 246.51901245 C-96.7966605 173.1348159 -79.32012231 106.56636311 -42 43 C-41.50290527 42.15179688 -41.00581055 41.30359375 -40.49365234 40.4296875 C-34.84751413 30.85158699 -28.97647116 21.67740127 -22 13 C-21.09314453 11.84564453 -21.09314453 11.84564453 -20.16796875 10.66796875 C-14.92406883 4.28769323 -8.8328587 -1.66657711 0 0 Z " fill="#000000" transform="translate(304,114)"/>
<path d="M0 0 C0.99 0.33 1.98 0.66 3 1 C2.93371399 1.60005356 2.86742798 2.20010712 2.7991333 2.81834412 C-0.38628475 31.74724111 -3.31298669 60.65039992 -5.3125 89.6875 C-5.39326782 90.84982147 -5.47403564 92.01214294 -5.55725098 93.20968628 C-7.07438577 115.24941401 -8.04920226 137.28998154 -8.5625 159.375 C-8.58334656 160.26030396 -8.60419312 161.14560791 -8.62567139 162.05773926 C-8.95826849 176.37448914 -9.21486247 190.67931182 -9 205 C-8.98211426 206.29566895 -8.96422852 207.59133789 -8.94580078 208.92626953 C-11.38070305 306.7327278 -11.38070305 306.7327278 19 394 C19.99 392.02 19.99 392.02 21 390 C21.66 390 22.32 390 23 390 C22.53199289 394.05606165 22.12046792 397.46588679 20 401 C15.94393835 400.53199289 12.53411321 400.12046792 9 398 C9 397.34 9 396.68 9 396 C10.98 396 12.96 396 15 396 C14.79431396 395.48018555 14.58862793 394.96037109 14.37670898 394.42480469 C-10.14859193 331.68028657 -12.6509092 261.44017484 -12.38652039 194.82544327 C-12.37476916 191.62462393 -12.36827817 188.42382795 -12.36291504 185.22299194 C-12.30005944 153.0794397 -11.73114094 121.07039637 -9.23431396 89.01037598 C-8.99355296 85.91717095 -8.76114387 82.82341363 -8.52978516 79.72949219 C-3.43449794 12.26873788 -3.43449794 12.26873788 0 0 Z " fill="#000000" transform="translate(36,53)"/>
<path d="M0 0 C3.0625 0.1875 3.0625 0.1875 5.0625 2.1875 C4.90004442 5.92397845 4.47466356 7.71288742 2 10.5625 C1.360625 11.09875 0.72125 11.635 0.0625 12.1875 C1.7125 12.5175 3.3625 12.8475 5.0625 13.1875 C5.0625 13.8475 5.0625 14.5075 5.0625 15.1875 C1.7625 15.1875 -1.5375 15.1875 -4.9375 15.1875 C-2.9375 11.1875 -2.9375 11.1875 -0.8125 8.625 C1.36735538 6.30372611 1.36735538 6.30372611 1.0625 3.1875 C0.4025 3.1875 -0.2575 3.1875 -0.9375 3.1875 C-1.2675 3.8475 -1.5975 4.5075 -1.9375 5.1875 C-2.9275 5.1875 -3.9175 5.1875 -4.9375 5.1875 C-3.82120474 0.24390669 -3.82120474 0.24390669 0 0 Z " fill="#000000" transform="translate(232.9375,311.8125)"/>
<path d="M0 0 C0 4.95 0 9.9 0 15 C-0.99 15 -1.98 15 -3 15 C-3 11.37 -3 7.74 -3 4 C-3.99 4.33 -4.98 4.66 -6 5 C-5.625 3.0625 -5.625 3.0625 -5 1 C-3 0 -3 0 0 0 Z " fill="#000000" transform="translate(220,312)"/>
<path d="M0 0 C0 4.95 0 9.9 0 15 C-0.99 15 -1.98 15 -3 15 C-3 11.37 -3 7.74 -3 4 C-3.99 4.33 -4.98 4.66 -6 5 C-5.625 3.0625 -5.625 3.0625 -5 1 C-3 0 -3 0 0 0 Z " fill="#000000" transform="translate(7,217)"/>
<path d="M0 0 C0 4.95 0 9.9 0 15 C-0.66 15 -1.32 15 -2 15 C-2.33 11.37 -2.66 7.74 -3 4 C-3.99 4.33 -4.98 4.66 -6 5 C-6 4.01 -6 3.02 -6 2 C-3 0 -3 0 0 0 Z " fill="#000000" transform="translate(19,217)"/>
<path d="M0 0 C0.99 0.33 1.98 0.66 3 1 C1.8905928 4.48670834 0.73662334 7.77484237 -1 11 C-1.99 10.67 -2.98 10.34 -4 10 C-2.8905928 6.51329166 -1.73662334 3.22515763 0 0 Z " fill="#000000" transform="translate(521,412)"/>
<path d="M0 0 C0.99 0.33 1.98 0.66 3 1 C2.01 4.3 1.02 7.6 0 11 C-0.99 11 -1.98 11 -3 11 C-2.69078116 9.54096742 -2.37751201 8.08279278 -2.0625 6.625 C-1.88847656 5.81289063 -1.71445313 5.00078125 -1.53515625 4.1640625 C-1 2 -1 2 0 0 Z " fill="#000000" transform="translate(173,288)"/>
<path d="M0 0 C-2.77079887 3.80984844 -6.62868145 4.06840752 -11 5 C-10.67578125 3.08203125 -10.67578125 3.08203125 -10 1 C-6.36961463 -0.69417984 -3.80522763 -1.46354909 0 0 Z " fill="#000000" transform="translate(471,472)"/>
<path d="M0 0 C0.66 0.33 1.32 0.66 2 1 C0.61172854 4.35498935 -0.85585774 6.15050455 -4 8 C-5.32 8 -6.64 8 -8 8 C-6.49776416 3.79373966 -3.71449966 2.26099979 0 0 Z " fill="#000000" transform="translate(486,460)"/>
<path d="M0 0 C0.99 0.33 1.98 0.66 3 1 C1.68 4.3 0.36 7.6 -1 11 C-1.99 10.67 -2.98 10.34 -4 10 C-3.52449439 8.51965236 -3.04448784 7.04074979 -2.5625 5.5625 C-2.29566406 4.73878906 -2.02882813 3.91507812 -1.75390625 3.06640625 C-1 1 -1 1 0 0 Z " fill="#000000" transform="translate(124,423)"/>
<path d="M0 0 C0.99 0.33 1.98 0.66 3 1 C1.68 4.3 0.36 7.6 -1 11 C-1.99 11 -2.98 11 -4 11 C-3.5247412 9.35303396 -3.04468109 7.70745272 -2.5625 6.0625 C-2.29566406 5.14597656 -2.02882812 4.22945312 -1.75390625 3.28515625 C-1 1 -1 1 0 0 Z " fill="#000000" transform="translate(214,172)"/>
<path d="M0 0 C0.99 0 1.98 0 3 0 C1.8905928 3.48670834 0.73662334 6.77484237 -1 10 C-1.99 10 -2.98 10 -4 10 C-3.43768609 6.06380262 -2.38314183 3.20807554 0 0 Z " fill="#000000" transform="translate(238,116)"/>
<path d="M0 0 C0.66 0 1.32 0 2 0 C3.32 3.3 4.64 6.6 6 10 C5.01 10.33 4.02 10.66 3 11 C2.30034557 9.73581754 1.61565237 8.46334598 0.9375 7.1875 C0.55464844 6.47980469 0.17179687 5.77210937 -0.22265625 5.04296875 C-1 3 -1 3 0 0 Z " fill="#000000" transform="translate(369,94)"/>
<path d="M0 0 C3.63 0 7.26 0 11 0 C11 0.99 11 1.98 11 3 C7.37 3 3.74 3 0 3 C0 2.01 0 1.02 0 0 Z " fill="#000000" transform="translate(440,476)"/>
<path d="M0 0 C0.66 0 1.32 0 2 0 C1.44894091 3.9492568 0.61064629 7.34920174 -1 11 C-1.99 10.67 -2.98 10.34 -4 10 C-3.52449439 8.51965236 -3.04448784 7.04074979 -2.5625 5.5625 C-2.29566406 4.73878906 -2.02882812 3.91507812 -1.75390625 3.06640625 C-1 1 -1 1 0 0 Z " fill="#000000" transform="translate(132,404)"/>
<path d="M0 0 C0.99 0.33 1.98 0.66 3 1 C2.01 4.3 1.02 7.6 0 11 C-0.99 11 -1.98 11 -3 11 C-2.69078116 9.54096742 -2.37751201 8.08279278 -2.0625 6.625 C-1.88847656 5.81289063 -1.71445313 5.00078125 -1.53515625 4.1640625 C-1 2 -1 2 0 0 Z " fill="#000000" transform="translate(153,346)"/>
<path d="M0 0 C0.99 0.33 1.98 0.66 3 1 C1.68 4.3 0.36 7.6 -1 11 C-1.66 11 -2.32 11 -3 11 C-2.53199289 6.94393835 -2.12046792 3.53411321 0 0 Z " fill="#000000" transform="translate(160,327)"/>
<path d="M0 0 C0.99 0 1.98 0 3 0 C3 3.63 3 7.26 3 11 C2.01 11 1.02 11 0 11 C0 7.37 0 3.74 0 0 Z " fill="#000000" transform="translate(389,309)"/>
<path d="M0 0 C0.99 0 1.98 0 3 0 C3 3.63 3 7.26 3 11 C2.01 11 1.02 11 0 11 C0 7.37 0 3.74 0 0 Z " fill="#000000" transform="translate(389,290)"/>
<path d="M0 0 C0.99 0 1.98 0 3 0 C3 3.63 3 7.26 3 11 C2.01 11 1.02 11 0 11 C0 7.37 0 3.74 0 0 Z " fill="#000000" transform="translate(391,231)"/>
<path d="M0 0 C0.99 0.33 1.98 0.66 3 1 C2.01 4.3 1.02 7.6 0 11 C-0.99 11 -1.98 11 -3 11 C-2.44894091 7.0507432 -1.61064629 3.65079826 0 0 Z " fill="#000000" transform="translate(193,230)"/>
<path d="M0 0 C0.99 0 1.98 0 3 0 C3 3.63 3 7.26 3 11 C2.01 11 1.02 11 0 11 C0 7.37 0 3.74 0 0 Z " fill="#000000" transform="translate(391,211)"/>
<path d="M0 0 C0.99 0.33 1.98 0.66 3 1 C2.57742724 2.4835001 2.13643678 3.96176424 1.6875 5.4375 C1.44386719 6.26121094 1.20023438 7.08492187 0.94921875 7.93359375 C0.63597656 8.61550781 0.32273438 9.29742187 0 10 C-0.99 10.33 -1.98 10.66 -3 11 C-2.44894091 7.0507432 -1.61064629 3.65079826 0 0 Z " fill="#000000" transform="translate(221,153)"/>
<path d="M0 0 C0.99 0 1.98 0 3 0 C3.33 3.63 3.66 7.26 4 11 C3.01 11 2.02 11 1 11 C0.67 7.37 0.34 3.74 0 0 Z " fill="#000000" transform="translate(386,151)"/>
<path d="M0 0 C0.99 0.33 1.98 0.66 3 1 C2.01 3.97 1.02 6.94 0 10 C-1.32 10 -2.64 10 -4 10 C-2.68 6.7 -1.36 3.4 0 0 Z " fill="#000000" transform="translate(229,134)"/>
<path d="M0 0 C0.99 0 1.98 0 3 0 C3.66 3.3 4.32 6.6 5 10 C4.01 10.33 3.02 10.66 2 11 C0.80712589 7.12315913 0 4.08378077 0 0 Z " fill="#000000" transform="translate(382,132)"/>
<path d="M0 0 C0.99 0 1.98 0 3 0 C3.99 3.3 4.98 6.6 6 10 C4.68 9.67 3.36 9.34 2 9 C1.34 6.03 0.68 3.06 0 0 Z " fill="#000000" transform="translate(376,113)"/>
<path d="M0 0 C0.99 0.33 1.98 0.66 3 1 C0.525 5.455 0.525 5.455 -2 10 C-2.99 9.67 -3.98 9.34 -5 9 C-4.3566152 7.686298 -3.71021785 6.37407102 -3.0625 5.0625 C-2.70285156 4.33160156 -2.34320313 3.60070312 -1.97265625 2.84765625 C-1 1 -1 1 0 0 Z " fill="#000000" transform="translate(248,98)"/>
<path d="M0 0 C3.80881639 1.44472346 5.29742886 3.32603071 7 7 C6.67 7.99 6.34 8.98 6 10 C3.03595495 7.19195732 0.55500981 4.81684226 -1 1 C-0.67 0.67 -0.34 0.34 0 0 Z " fill="#000000" transform="translate(358,78)"/>
<path d="M0 0 C0.66 0.33 1.32 0.66 2 1 C0.65289578 5.04131267 -1.38428334 5.90288434 -5 8 C-5.99 8 -6.98 8 -8 8 C-6.49776416 3.79373966 -3.71449966 2.26099979 0 0 Z " fill="#000000" transform="translate(277,69)"/>
<path d="M0 0 C0 0.99 0 1.98 0 3 C-2.97 4.32 -5.94 5.64 -9 7 C-9 5.68 -9 4.36 -9 3 C-3.375 0 -3.375 0 0 0 Z " fill="#000000" transform="translate(296,60)"/>
<path d="M0 0 C7.625 0.875 7.625 0.875 11 2 C11 2.99 11 3.98 11 5 C7.7 4.34 4.4 3.68 1 3 C0.67 2.01 0.34 1.02 0 0 Z " fill="#000000" transform="translate(420,473)"/>
<path d="M0 0 C0.99 0.33 1.98 0.66 3 1 C1.4169423 5.2742558 -1.50568404 7.26531794 -5 10 C-5 4.69520066 -3.4637943 3.81017373 0 0 Z " fill="#000000" transform="translate(500,446)"/>
<path d="M0 0 C0.66 0.33 1.32 0.66 2 1 C1.3543999 4.48624056 0.07639763 7.12498789 -2 10 C-2.99 10 -3.98 10 -5 10 C-4.38545304 6.00544473 -2.29353263 3.25533664 0 0 Z " fill="#000000" transform="translate(512,430)"/>
<path d="M0 0 C0.99 0 1.98 0 3 0 C2.01 3.3 1.02 6.6 0 10 C-0.99 10 -1.98 10 -3 10 C-2.49287967 6.28111761 -1.88391785 3.26545761 0 0 Z " fill="#000000" transform="translate(139,385)"/>
<path d="M0 0 C0.99 0.33 1.98 0.66 3 1 C2.34 4.3 1.68 7.6 1 11 C0.01 11 -0.98 11 -2 11 C-1.125 3.375 -1.125 3.375 0 0 Z " fill="#000000" transform="translate(534,374)"/>
<path d="M0 0 C0.99 0 1.98 0 3 0 C2.01 3.3 1.02 6.6 0 10 C-0.99 10 -1.98 10 -3 10 C-2.39009109 6.44219804 -1.4216319 3.3171411 0 0 Z " fill="#000000" transform="translate(146,366)"/>
<path d="M0 0 C0.99 0.33 1.98 0.66 3 1 C1.68 4.3 0.36 7.6 -1 11 C-1.66 11 -2.32 11 -3 11 C-2.53199289 6.94393835 -2.12046792 3.53411321 0 0 Z " fill="#000000" transform="translate(180,269)"/>
<path d="M0 0 C0.99 0.33 1.98 0.66 3 1 C2.01 4.3 1.02 7.6 0 11 C-0.99 11 -1.98 11 -3 11 C-2.01 7.37 -1.02 3.74 0 0 Z " fill="#000000" transform="translate(186,249)"/>
<path d="M0 0 C0.66 0 1.32 0 2 0 C1.56179109 4.55737263 1.14958831 7.57653445 -2 11 C-2.66 10.34 -3.32 9.68 -4 9 C-2.68 6.03 -1.36 3.06 0 0 Z " fill="#000000" transform="translate(200,211)"/>
<path d="M0 0 C0.66 0.33 1.32 0.66 2 1 C1.34 3.97 0.68 6.94 0 10 C-1.32 10.33 -2.64 10.66 -4 11 C-3.5247412 9.35303396 -3.04468109 7.70745272 -2.5625 6.0625 C-2.29566406 5.14597656 -2.02882812 4.22945312 -1.75390625 3.28515625 C-1 1 -1 1 0 0 Z " fill="#000000" transform="translate(207,191)"/>
<path d="M0 0 C0.99 0.33 1.98 0.66 3 1 C2.09827532 2.17825358 1.17798498 3.34231577 0.25 4.5 C-0.51570313 5.47453125 -0.51570313 5.47453125 -1.296875 6.46875 C-3 8 -3 8 -7 8 C-6.02133662 6.85373678 -5.04205413 5.70800212 -4.0625 4.5625 C-3.51722656 3.92441406 -2.97195313 3.28632812 -2.41015625 2.62890625 C-1.63204305 1.73008851 -0.84063472 0.84063472 0 0 Z " fill="#000000" transform="translate(261,82)"/>
<path d="M0 0 C7.71428571 4 7.71428571 4 9 8 C5.60406522 8 4.93380119 7.47834052 2.3125 5.5 C1.68988281 5.0359375 1.06726563 4.571875 0.42578125 4.09375 C-0.04472656 3.7328125 -0.51523437 3.371875 -1 3 C-0.67 2.01 -0.34 1.02 0 0 Z " fill="#000000" transform="translate(343,64)"/>
<path d="M0 0 C3.3 0.66 6.6 1.32 10 2 C10 2.99 10 3.98 10 5 C6.37 4.34 2.74 3.68 -1 3 C-0.67 2.01 -0.34 1.02 0 0 Z " fill="#000000" transform="translate(325,57)"/>
<path d="M0 0 C3.14027363 0.33645789 4.05098295 1.05236086 6.3125 3.375 C6.869375 4.24125 7.42625 5.1075 8 6 C7.67 6.99 7.34 7.98 7 9 C3.46352496 7.32482761 2.2088437 6.50719183 0.6875 2.8125 C0.460625 1.884375 0.23375 0.95625 0 0 Z " fill="#000000" transform="translate(404,462)"/>
<path d="M0 0 C0.99 0 1.98 0 3 0 C2.34 2.97 1.68 5.94 1 9 C-0.32 9.33 -1.64 9.66 -3 10 C-2.01 6.7 -1.02 3.4 0 0 Z " fill="#000000" transform="translate(528,394)"/>
<path d="M0 0 C0.66 0 1.32 0 2 0 C2 3.63 2 7.26 2 11 C1.01 10.67 0.02 10.34 -1 10 C-1.02689216 8.52093108 -1.04634621 7.04172517 -1.0625 5.5625 C-1.07410156 4.73878906 -1.08570313 3.91507812 -1.09765625 3.06640625 C-1 1 -1 1 0 0 Z " fill="#000000" transform="translate(391,386)"/>
<path d="M0 0 C0.99 0 1.98 0 3 0 C2.67 3.3 2.34 6.6 2 10 C1.01 10 0.02 10 -1 10 C-0.67 6.7 -0.34 3.4 0 0 Z " fill="#000000" transform="translate(538,355)"/>
<path d="M0 0 C0.99 0.33 1.98 0.66 3 1 C2.34 4.3 1.68 7.6 1 11 C0.01 10.67 -0.98 10.34 -2 10 C-1.34 6.7 -0.68 3.4 0 0 Z " fill="#000000" transform="translate(542,335)"/>
<path d="M0 0 C0.99 0 1.98 0 3 0 C2.71758359 1.46015291 2.42373386 2.91809793 2.125 4.375 C1.96257812 5.18710937 1.80015625 5.99921875 1.6328125 6.8359375 C1 9 1 9 -1 11 C-1.66 10.34 -2.32 9.68 -3 9 C-2.01 6.03 -1.02 3.06 0 0 Z " fill="#000000" transform="translate(166,308)"/>
<path d="M0 0 C0.66 0.33 1.32 0.66 2 1 C2 4.3 2 7.6 2 11 C1.01 11 0.02 11 -1 11 C-1.02688151 9.35425434 -1.04634123 7.70838587 -1.0625 6.0625 C-1.07410156 5.14597656 -1.08570313 4.22945313 -1.09765625 3.28515625 C-1 1 -1 1 0 0 Z " fill="#000000" transform="translate(390,270)"/>
<path d="M0 0 C0.99 0 1.98 0 3 0 C3.33 3.63 3.66 7.26 4 11 C3.01 11 2.02 11 1 11 C0.67 7.37 0.34 3.74 0 0 Z " fill="#000000" transform="translate(390,191)"/>
<path d="M0 0 C0.99 0.33 1.98 0.66 3 1 C3 4.3 3 7.6 3 11 C2.01 10.67 1.02 10.34 0 10 C0 6.7 0 3.4 0 0 Z " fill="#000000" transform="translate(389,171)"/>
<path d="M0 0 C0.99 0 1.98 0 3 0 C3.99 3.3 4.98 6.6 6 10 C5.01 10 4.02 10 3 10 C2.01 6.7 1.02 3.4 0 0 Z " fill="#000000" transform="translate(397,444)"/>
<path d="M0 0 C0.99 0 1.98 0 3 0 C3.66 3.3 4.32 6.6 5 10 C4.01 10 3.02 10 2 10 C1.34 6.7 0.68 3.4 0 0 Z " fill="#000000" transform="translate(393,425)"/>
<path d="M0 0 C0.99 0 1.98 0 3 0 C3.33 3.3 3.66 6.6 4 10 C3.01 10 2.02 10 1 10 C0.67 6.7 0.34 3.4 0 0 Z " fill="#000000" transform="translate(391,406)"/>
<path d="M0 0 C0.99 0 1.98 0 3 0 C3 3.3 3 6.6 3 10 C2.01 10 1.02 10 0 10 C0 6.7 0 3.4 0 0 Z " fill="#000000" transform="translate(389,348)"/>
<path d="M0 0 C0.99 0 1.98 0 3 0 C3 3.3 3 6.6 3 10 C2.01 10 1.02 10 0 10 C0 6.7 0 3.4 0 0 Z " fill="#000000" transform="translate(389,329)"/>
<path d="M0 0 C0 0.99 0 1.98 0 3 C-3.3 3.33 -6.6 3.66 -10 4 C-10 3.01 -10 2.02 -10 1 C-6.61981469 -0.04005702 -3.5219721 -0.08004482 0 0 Z " fill="#000000" transform="translate(315,56)"/>
<path d="M0 0 C0.66 0 1.32 0 2 0 C3.17571451 3.67410785 3.07366746 7.16929183 3 11 C2.01 11 1.02 11 0 11 C0 7.37 0 3.74 0 0 Z " fill="#000000" transform="translate(390,367)"/>
<path d="M0 0 C0.66 0 1.32 0 2 0 C2 3.3 2 6.6 2 10 C1.01 10 0.02 10 -1 10 C-1.02689216 8.52093108 -1.04634621 7.04172517 -1.0625 5.5625 C-1.07410156 4.73878906 -1.08570313 3.91507813 -1.09765625 3.06640625 C-1 1 -1 1 0 0 Z " fill="#000000" transform="translate(391,251)"/>
<path d="M0 0 C0.66 0 1.32 0 2 0 C2 3.63 2 7.26 2 11 C1.34 11 0.68 11 0 11 C0 7.37 0 3.74 0 0 Z " fill="#000000" transform="translate(114,422)"/>
<path d="M0 0 C0.66 0 1.32 0 2 0 C2 3.63 2 7.26 2 11 C1.34 11 0.68 11 0 11 C0 7.37 0 3.74 0 0 Z " fill="#000000" transform="translate(114,402)"/>
<path d="M0 0 C0.66 0 1.32 0 2 0 C2 3.63 2 7.26 2 11 C1.34 11 0.68 11 0 11 C0 7.37 0 3.74 0 0 Z " fill="#000000" transform="translate(114,363)"/>
<path d="M0 0 C0.66 0 1.32 0 2 0 C2 3.63 2 7.26 2 11 C1.34 11 0.68 11 0 11 C0 7.37 0 3.74 0 0 Z " fill="#000000" transform="translate(114,343)"/>
<path d="M0 0 C0.66 0 1.32 0 2 0 C2 3.63 2 7.26 2 11 C1.34 11 0.68 11 0 11 C0 7.37 0 3.74 0 0 Z " fill="#000000" transform="translate(114,323)"/>
<path d="M0 0 C0.66 0 1.32 0 2 0 C2 3.63 2 7.26 2 11 C1.34 11 0.68 11 0 11 C0 7.37 0 3.74 0 0 Z " fill="#000000" transform="translate(114,284)"/>
<path d="M0 0 C0.66 0 1.32 0 2 0 C2 3.63 2 7.26 2 11 C1.34 11 0.68 11 0 11 C0 7.37 0 3.74 0 0 Z " fill="#000000" transform="translate(114,264)"/>
<path d="M0 0 C0.66 0 1.32 0 2 0 C2 3.63 2 7.26 2 11 C1.34 11 0.68 11 0 11 C0 7.37 0 3.74 0 0 Z " fill="#000000" transform="translate(114,225)"/>
<path d="M0 0 C0.66 0 1.32 0 2 0 C2 3.63 2 7.26 2 11 C1.34 11 0.68 11 0 11 C0 7.37 0 3.74 0 0 Z " fill="#000000" transform="translate(114,205)"/>
<path d="M0 0 C0.66 0 1.32 0 2 0 C2 3.63 2 7.26 2 11 C1.34 11 0.68 11 0 11 C0 7.37 0 3.74 0 0 Z " fill="#000000" transform="translate(114,166)"/>
<path d="M0 0 C0.66 0 1.32 0 2 0 C2 3.63 2 7.26 2 11 C1.34 11 0.68 11 0 11 C0 7.37 0 3.74 0 0 Z " fill="#000000" transform="translate(114,146)"/>
<path d="M0 0 C0.66 0 1.32 0 2 0 C2 3.63 2 7.26 2 11 C1.34 11 0.68 11 0 11 C0 7.37 0 3.74 0 0 Z " fill="#000000" transform="translate(114,126)"/>
<path d="M0 0 C0.66 0 1.32 0 2 0 C2 3.63 2 7.26 2 11 C1.34 11 0.68 11 0 11 C0 7.37 0 3.74 0 0 Z " fill="#000000" transform="translate(114,87)"/>
<path d="M0 0 C0.66 0 1.32 0 2 0 C2 3.63 2 7.26 2 11 C1.34 11 0.68 11 0 11 C0 7.37 0 3.74 0 0 Z " fill="#000000" transform="translate(114,67)"/>
<path d="M0 0 C1.32 0 2.64 0 4 0 C3.67 1.65 3.34 3.3 3 5 C2.01 5.33 1.02 5.66 0 6 C0 4.02 0 2.04 0 0 Z " fill="#000000" transform="translate(114,442)"/>
<path d="M0 0 C0.66 0 1.32 0 2 0 C2 3.3 2 6.6 2 10 C1.34 10 0.68 10 0 10 C0 6.7 0 3.4 0 0 Z " fill="#000000" transform="translate(114,383)"/>
<path d="M0 0 C0.66 0 1.32 0 2 0 C2 3.3 2 6.6 2 10 C1.34 10 0.68 10 0 10 C0 6.7 0 3.4 0 0 Z " fill="#000000" transform="translate(114,304)"/>
<path d="M0 0 C0.66 0 1.32 0 2 0 C2 3.3 2 6.6 2 10 C1.34 10 0.68 10 0 10 C0 6.7 0 3.4 0 0 Z " fill="#000000" transform="translate(114,245)"/>
<path d="M0 0 C0.66 0 1.32 0 2 0 C2 3.3 2 6.6 2 10 C1.34 10 0.68 10 0 10 C0 6.7 0 3.4 0 0 Z " fill="#000000" transform="translate(114,186)"/>
<path d="M0 0 C0.66 0 1.32 0 2 0 C2 3.3 2 6.6 2 10 C1.34 10 0.68 10 0 10 C0 6.7 0 3.4 0 0 Z " fill="#000000" transform="translate(114,107)"/>
<path d="M0 0 C0.66 0.33 1.32 0.66 2 1 C2 2.98 2 4.96 2 7 C1.01 6.67 0.02 6.34 -1 6 C-1.042721 4.33388095 -1.04063832 2.66617115 -1 1 C-0.67 0.67 -0.34 0.34 0 0 Z " fill="#000000" transform="translate(544,319)"/>
<path d="M0 0 C0.99 0.33 1.98 0.66 3 1 C2.67 1.99 2.34 2.98 2 4 C1.01 3.01 0.02 2.02 -1 1 C-0.67 0.67 -0.34 0.34 0 0 Z " fill="#000000" transform="translate(223,324)"/>
<path d="M0 0 C0.99 0.33 1.98 0.66 3 1 C2.67 1.99 2.34 2.98 2 4 C1.01 3.01 0.02 2.02 -1 1 C-0.67 0.67 -0.34 0.34 0 0 Z " fill="#000000" transform="translate(10,229)"/>
<path d="M0 0 C0.66 0 1.32 0 2 0 C2 1.65 2 3.3 2 5 C1.34 5 0.68 5 0 5 C0 3.35 0 1.7 0 0 Z " fill="#000000" transform="translate(114,53)"/>
</svg>
