<?xml version="1.0" standalone="no"?>
<!DOCTYPE svg PUBLIC "-//W3C//DTD SVG 20010904//EN"
 "http://www.w3.org/TR/2001/REC-SVG-20010904/DTD/svg10.dtd">
<svg version="1.0" xmlns="http://www.w3.org/2000/svg"
 width="151.000000pt" height="164.000000pt" viewBox="0 0 151.000000 164.000000"
 preserveAspectRatio="xMidYMid meet">

<g transform="translate(0.000000,164.000000) scale(0.100000,-0.100000)"
fill="#000000" stroke="none">
<path d="M1095 1629 c-356 -40 -693 -292 -931 -695 -172 -292 -204 -553 -92
-748 53 -91 175 -141 327 -134 111 5 154 21 248 91 l63 47 21 -43 c26 -51 73
-103 114 -124 47 -25 125 -19 176 13 140 87 313 232 381 317 31 40 38 57 38
93 0 70 -55 110 -135 97 -20 -3 -77 -44 -170 -124 -76 -66 -144 -118 -149
-116 -54 18 48 302 224 622 113 205 290 596 290 641 0 13 -106 50 -170 58 -89
11 -166 13 -235 5z m276 -65 c38 -8 69 -18 69 -21 0 -26 -106 -263 -203 -453
-66 -129 -146 -285 -177 -347 -67 -133 -140 -343 -140 -403 0 -31 6 -50 22
-67 40 -42 62 -32 213 97 122 104 145 120 176 120 42 0 59 -15 59 -51 0 -51
-158 -199 -350 -329 -62 -43 -80 -50 -121 -50 -80 0 -135 60 -169 184 l-17 59
-34 -43 c-44 -55 -147 -128 -206 -146 -69 -21 -192 -18 -256 6 -116 44 -167
135 -175 312 -4 94 -1 118 22 198 61 214 234 484 422 659 143 133 299 222 469
266 111 30 289 34 396 9z"/>
<path d="M1288 1509 c-22 -12 -24 -62 -3 -79 8 -7 12 -16 9 -21 -10 -16 17 -9
47 12 62 44 12 126 -53 88z"/>
<path d="M977 1464 c-4 -4 -4 -10 -2 -14 6 -10 45 0 45 11 0 10 -33 12 -43 3z"/>
<path d="M1130 1460 c0 -5 11 -10 25 -10 14 0 25 5 25 10 0 6 -11 10 -25 10
-14 0 -25 -4 -25 -10z"/>
<path d="M827 1423 c-13 -13 -7 -21 13 -16 11 3 20 9 20 14 0 10 -24 12 -33 2z"/>
<path d="M1070 1363 c-56 -10 -169 -47 -237 -78 -238 -110 -438 -316 -529
-546 -64 -164 -85 -327 -50 -400 45 -95 162 -84 347 33 l75 48 159 287 c187
337 313 585 321 631 6 31 6 32 -27 31 -19 -1 -45 -4 -59 -6z m20 -62 c0 -19
-305 -592 -436 -817 -29 -51 -190 -144 -274 -159 -100 -18 -122 114 -54 323
100 307 328 532 649 638 74 25 115 30 115 15z"/>
<path d="M685 1349 c-12 -19 5 -23 22 -6 16 16 16 17 1 17 -9 0 -20 -5 -23
-11z"/>
<path d="M1240 1261 c-6 -12 -6 -22 -1 -26 10 -6 14 -1 24 28 9 23 -10 22 -23
-2z"/>
<path d="M562 1258 c-19 -19 -14 -29 8 -16 20 13 27 28 12 28 -4 0 -13 -5 -20
-12z"/>
<path d="M451 1146 c-8 -9 -11 -19 -7 -23 9 -9 29 13 24 27 -2 8 -8 7 -17 -4z"/>
<path d="M1170 1099 c-7 -11 -9 -24 -5 -27 7 -7 35 25 35 40 0 16 -19 8 -30
-13z"/>
<path d="M352 1019 c-15 -23 -15 -29 -2 -29 13 0 32 38 22 44 -4 2 -13 -4 -20
-15z"/>
<path d="M1090 941 c-6 -13 -6 -22 -1 -26 9 -5 31 24 31 39 0 14 -20 4 -30
-13z"/>
<path d="M265 879 c-4 -11 -4 -23 0 -27 7 -7 25 17 25 36 0 20 -18 14 -25 -9z"/>
<path d="M1012 798 c-14 -14 -16 -38 -3 -38 10 0 26 39 19 46 -2 2 -10 -2 -16
-8z"/>
<path d="M195 719 c-6 -19 0 -38 9 -28 10 12 16 49 7 49 -5 0 -13 -9 -16 -21z"/>
<path d="M927 663 c-4 -3 -7 -13 -7 -21 0 -12 3 -12 15 -2 8 7 15 16 15 21 0
11 -14 12 -23 2z"/>
<path d="M931 612 c-14 -26 -14 -42 -1 -42 11 0 25 48 17 56 -3 3 -10 -3 -16
-14z"/>
<path d="M147 548 c-8 -28 4 -47 14 -22 11 27 11 44 0 44 -5 0 -11 -10 -14
-22z"/>
<path d="M840 530 c-6 -11 -7 -20 -2 -20 10 0 32 21 32 32 0 16 -19 8 -30 -12z"/>
<path d="M750 415 c-18 -21 -3 -32 16 -13 10 9 12 18 6 22 -5 3 -15 -1 -22 -9z"/>
<path d="M867 408 c-4 -12 -4 -24 -1 -27 6 -7 24 20 24 37 0 21 -17 13 -23
-10z"/>
<path d="M1305 420 c-3 -5 -2 -10 4 -10 5 0 13 5 16 10 3 6 2 10 -4 10 -5 0
-13 -4 -16 -10z"/>
<path d="M130 365 c0 -14 5 -25 10 -25 6 0 10 11 10 25 0 14 -4 25 -10 25 -5
0 -10 -11 -10 -25z"/>
<path d="M1202 300 c-7 -11 -9 -20 -4 -20 10 0 32 22 32 32 0 15 -15 8 -28
-12z"/>
<path d="M650 295 c-7 -9 -10 -18 -7 -22 8 -7 37 15 37 28 0 14 -16 11 -30 -6z"/>
<path d="M840 240 c0 -18 4 -29 10 -25 6 3 10 15 10 25 0 10 -4 22 -10 25 -6
4 -10 -7 -10 -25z"/>
<path d="M170 206 c0 -16 28 -42 36 -33 7 6 -18 47 -28 47 -5 0 -8 -6 -8 -14z"/>
<path d="M1074 196 c-10 -8 -15 -18 -11 -22 4 -4 15 0 24 9 22 21 12 31 -13
13z"/>
<path d="M512 188 c-20 -20 -14 -28 13 -16 13 6 22 15 19 19 -7 12 -18 11 -32
-3z"/>
<path d="M326 142 c-10 -9 5 -22 24 -22 29 0 33 17 5 22 -13 3 -27 3 -29 0z"/>
<path d="M900 120 c0 -5 9 -10 19 -10 11 0 23 5 26 10 4 6 -5 10 -19 10 -14 0
-26 -4 -26 -10z"/>
</g>
</svg>
