<?xml version="1.0" standalone="no"?>
<!DOCTYPE svg PUBLIC "-//W3C//DTD SVG 20010904//EN"
 "http://www.w3.org/TR/2001/REC-SVG-20010904/DTD/svg10.dtd">
<svg version="1.0" xmlns="http://www.w3.org/2000/svg"
 width="598.000000pt" height="568.000000pt" viewBox="0 0 598.000000 568.000000"
 preserveAspectRatio="xMidYMid meet">

<g transform="translate(0.000000,568.000000) scale(0.100000,-0.100000)"
fill="#000000" stroke="none">
<path d="M1908 5670 c-85 -10 -126 -23 -211 -67 -218 -114 -342 -423 -307
-768 l11 -106 -36 -106 c-107 -313 -440 -1031 -1010 -2178 -186 -376 -328
-673 -335 -705 -52 -217 52 -425 250 -500 170 -64 333 -32 463 91 l57 54 591
1240 c325 682 594 1243 598 1247 26 28 396 -386 764 -857 87 -109 157 -202
157 -206 0 -4 -21 -1 -47 7 -198 60 -500 92 -707 75 -170 -14 -226 -29 -361
-96 -315 -157 -524 -410 -586 -710 -58 -282 24 -656 199 -905 64 -92 213 -237
307 -299 217 -143 481 -228 778 -250 563 -43 1058 199 1372 669 35 52 78 126
96 163 l32 69 51 -9 c94 -15 354 -9 446 10 271 57 550 195 783 385 249 205
491 512 645 822 66 131 67 136 66 210 -3 192 -103 358 -260 432 -126 59 -263
46 -385 -35 -79 -52 -90 -67 -176 -237 -83 -165 -199 -346 -292 -457 -114
-136 -274 -238 -422 -269 -100 -21 -231 -14 -323 17 l-69 24 -28 80 c-41 113
-162 355 -263 523 -270 452 -722 1044 -1199 1570 l-130 143 21 87 c34 136 45
238 39 353 -15 303 -169 472 -447 492 -36 3 -95 1 -132 -3z m283 -79 c227 -89
306 -387 203 -769 l-25 -93 112 -122 c158 -172 386 -439 552 -646 462 -577
782 -1079 930 -1456 50 -126 58 -133 182 -165 248 -63 523 29 719 241 124 134
296 405 385 606 39 90 164 172 277 181 211 17 393 -173 398 -416 1 -63 -2 -74
-61 -192 -199 -401 -532 -771 -880 -976 -242 -143 -466 -212 -718 -221 -131
-5 -232 6 -296 31 -11 5 -21 -8 -39 -51 -73 -182 -224 -387 -385 -522 -210
-178 -432 -283 -693 -326 -143 -24 -431 -17 -586 14 -350 71 -625 232 -806
473 -81 107 -142 236 -185 393 -80 288 -52 555 81 776 102 168 251 297 465
403 155 77 216 89 464 88 241 0 478 -40 678 -112 42 -16 77 -26 77 -23 0 18
-459 597 -656 828 -134 157 -364 394 -400 413 -21 11 -44 -37 -628 -1261 -591
-1239 -608 -1273 -659 -1321 -28 -27 -77 -61 -107 -75 -48 -23 -68 -26 -155
-26 -91 0 -106 3 -165 31 -90 42 -134 84 -172 162 -31 63 -33 73 -33 178 l0
110 337 680 c571 1153 861 1775 998 2145 46 122 45 114 41 359 -1 104 3 169
14 225 50 242 178 395 378 450 81 23 286 15 358 -14z"/>
<path d="M1943 5243 c-3 -10 -8 -21 -10 -25 -2 -5 2 -8 10 -8 17 0 30 37 16
46 -5 3 -12 -3 -16 -13z"/>
<path d="M1880 5094 c-6 -14 -15 -34 -20 -44 -6 -12 -6 -21 -1 -25 6 -3 19 15
30 41 24 54 24 54 11 54 -6 0 -15 -12 -20 -26z"/>
<path d="M1940 5090 c0 -21 33 -90 40 -85 11 7 -19 95 -31 95 -5 0 -9 -4 -9
-10z"/>
<path d="M1796 4900 c-18 -46 -21 -69 -7 -54 18 17 41 83 32 88 -5 3 -16 -12
-25 -34z"/>
<path d="M2020 4904 c0 -13 44 -84 52 -84 12 0 10 6 -12 50 -18 34 -40 53 -40
34z"/>
<path d="M1715 4714 c-17 -42 -19 -54 -6 -54 5 0 14 12 19 28 5 15 13 35 17
45 4 10 3 17 -4 17 -6 0 -18 -16 -26 -36z"/>
<path d="M2127 4733 c-8 -13 42 -95 53 -88 6 3 -2 25 -17 48 -32 52 -30 50
-36 40z"/>
<path d="M1636 4530 c-19 -47 -19 -50 -7 -50 5 0 16 18 25 40 19 47 19 50 7
50 -5 0 -16 -18 -25 -40z"/>
<path d="M2230 4554 c0 -13 44 -84 52 -84 14 0 9 19 -14 55 -21 32 -38 45 -38
29z"/>
<path d="M1557 4345 c-19 -40 -21 -55 -8 -55 5 0 14 12 19 28 5 15 13 35 17
45 13 33 -11 17 -28 -18z"/>
<path d="M2340 4375 c0 -14 54 -84 61 -79 10 6 -39 84 -52 84 -5 0 -9 -2 -9
-5z"/>
<path d="M2450 4205 c0 -14 54 -84 61 -79 10 6 -39 84 -52 84 -5 0 -9 -2 -9
-5z"/>
<path d="M1476 4160 c-18 -46 -19 -50 -8 -50 9 0 42 64 42 80 0 24 -19 7 -34
-30z"/>
<path d="M2560 4035 c0 -11 53 -85 61 -85 15 0 10 13 -16 53 -22 32 -45 48
-45 32z"/>
<path d="M1400 3983 c-8 -21 -16 -41 -18 -45 -2 -5 1 -8 7 -8 10 0 41 62 41
81 0 22 -17 6 -30 -28z"/>
<path d="M2680 3860 c0 -14 43 -80 53 -80 13 0 8 14 -18 53 -26 38 -35 45 -35
27z"/>
<path d="M1321 3797 c-24 -55 -24 -57 -13 -57 13 0 45 76 39 92 -2 7 -14 -9
-26 -35z"/>
<path d="M2790 3690 c0 -19 52 -90 62 -84 5 3 3 15 -5 27 -8 12 -20 32 -28 45
-14 23 -29 29 -29 12z"/>
<path d="M1240 3609 c-20 -39 -20 -64 -1 -43 16 16 40 84 31 84 -5 0 -19 -18
-30 -41z"/>
<path d="M2907 3523 c-3 -5 7 -29 22 -52 16 -24 31 -39 34 -34 3 5 -7 29 -22
52 -16 24 -31 39 -34 34z"/>
<path d="M1161 3428 c-18 -42 -17 -77 1 -44 23 42 38 86 28 86 -6 0 -19 -19
-29 -42z"/>
<path d="M3041 3303 c18 -26 34 -42 36 -36 6 16 -39 83 -55 83 -8 0 0 -19 19
-47z"/>
<path d="M1087 3254 c-18 -38 -23 -74 -8 -58 16 16 40 83 32 88 -4 3 -15 -11
-24 -30z"/>
<path d="M3130 3174 c0 -13 44 -84 52 -84 12 0 10 9 -14 51 -19 34 -38 51 -38
33z"/>
<path d="M1004 3065 c-16 -39 -18 -55 -6 -55 4 0 14 17 22 38 8 20 16 40 18
45 2 4 -1 7 -8 7 -6 0 -18 -16 -26 -35z"/>
<path d="M3236 3002 c-3 -5 7 -28 21 -52 32 -53 43 -38 13 19 -21 42 -25 47
-34 33z"/>
<path d="M5590 2991 c-6 -12 -6 -22 -1 -26 10 -6 14 -1 24 28 9 23 -10 22 -23
-2z"/>
<path d="M927 2885 c-19 -40 -21 -55 -8 -55 5 0 14 12 19 28 5 15 13 35 17 45
13 33 -11 17 -28 -18z"/>
<path d="M5520 2841 c-23 -46 -24 -51 -10 -51 14 0 52 78 40 85 -5 3 -18 -12
-30 -34z"/>
<path d="M3336 2822 c-7 -12 33 -92 47 -92 11 0 8 11 -17 59 -14 26 -26 39
-30 33z"/>
<path d="M845 2695 c-9 -25 -14 -49 -11 -52 7 -8 7 -8 29 41 11 23 14 43 9 48
-5 5 -16 -10 -27 -37z"/>
<path d="M5431 2674 c-22 -37 -27 -59 -12 -50 17 11 50 75 41 81 -4 3 -17 -11
-29 -31z"/>
<path d="M3420 2637 c0 -19 42 -97 49 -92 11 6 -22 88 -38 93 -6 2 -11 1 -11
-1z"/>
<path d="M767 2515 c-19 -40 -21 -55 -8 -55 7 0 41 70 41 85 0 17 -19 0 -33
-30z"/>
<path d="M2330 2540 c0 -5 23 -10 50 -10 28 0 50 5 50 10 0 6 -22 10 -50 10
-27 0 -50 -4 -50 -10z"/>
<path d="M2168 2528 c-21 -6 -38 -14 -38 -19 0 -11 2 -11 56 2 24 6 44 15 44
20 0 11 -13 10 -62 -3z"/>
<path d="M2530 2531 c0 -4 21 -11 46 -15 52 -7 84 4 44 15 -36 10 -90 10 -90
0z"/>
<path d="M5321 2506 c-22 -36 -25 -46 -13 -46 8 0 52 62 52 73 0 18 -20 4 -39
-27z"/>
<path d="M2736 2502 c-8 -13 84 -36 96 -24 6 6 -2 12 -24 17 -18 3 -40 9 -50
11 -9 3 -19 1 -22 -4z"/>
<path d="M1995 2474 c-45 -17 -67 -34 -43 -34 24 0 88 29 88 40 0 6 -1 10 -2
9 -2 0 -21 -7 -43 -15z"/>
<path d="M2930 2451 c0 -5 20 -14 44 -20 54 -13 56 -13 56 -2 0 5 -20 14 -44
20 -54 13 -56 13 -56 2z"/>
<path d="M3500 2443 c0 -20 34 -92 41 -88 10 7 -20 95 -32 95 -5 0 -9 -3 -9
-7z"/>
<path d="M1803 2376 c-18 -13 -30 -26 -27 -29 8 -7 84 34 84 46 0 13 -25 6
-57 -17z"/>
<path d="M3130 2392 c0 -11 88 -38 96 -29 8 7 -24 23 -63 32 -19 4 -33 3 -33
-3z"/>
<path d="M5200 2355 c-36 -37 -35 -62 1 -29 23 21 43 53 37 60 -3 2 -20 -12
-38 -31z"/>
<path d="M692 2343 c-5 -16 -13 -36 -17 -45 -4 -10 -3 -18 2 -18 9 0 43 63 43
80 0 21 -18 9 -28 -17z"/>
<path d="M3320 2331 c0 -5 21 -16 47 -25 55 -19 53 -19 53 -7 0 5 -21 16 -47
25 -55 19 -53 19 -53 7z"/>
<path d="M1657 2245 c-15 -18 -23 -36 -18 -39 5 -3 24 12 41 34 38 49 17 53
-23 5z"/>
<path d="M3510 2263 c0 -5 13 -14 29 -20 23 -8 31 -19 36 -47 9 -47 30 -48 22
-1 -3 21 -2 33 4 30 5 -4 9 -2 9 4 0 6 -8 14 -17 19 -28 15 -83 25 -83 15z"/>
<path d="M5052 2221 c-19 -16 -29 -31 -24 -35 5 -3 27 10 48 29 23 20 33 34
24 34 -8 0 -30 -13 -48 -28z"/>
<path d="M3710 2192 c0 -4 20 -15 45 -24 35 -13 45 -14 45 -4 0 7 -17 18 -39
24 -45 14 -51 15 -51 4z"/>
<path d="M617 2163 c-22 -43 -30 -73 -19 -73 12 0 47 88 39 96 -3 3 -12 -7
-20 -23z"/>
<path d="M3900 2129 c0 -9 18 -18 68 -33 43 -14 22 12 -23 27 -25 9 -45 11
-45 6z"/>
<path d="M4898 2116 c-36 -20 -49 -36 -29 -36 16 0 81 41 81 51 0 13 -10 10
-52 -15z"/>
<path d="M1571 2098 c-19 -51 -22 -68 -13 -68 6 0 15 12 20 28 5 15 13 35 17
45 4 10 3 17 -4 17 -6 0 -15 -10 -20 -22z"/>
<path d="M2253 2109 c-118 -15 -195 -64 -240 -157 -26 -52 -28 -66 -28 -172 0
-99 4 -122 24 -167 90 -202 362 -222 706 -54 184 90 327 204 354 282 9 26 7
30 -33 53 -68 40 -221 105 -342 146 -177 61 -323 83 -441 69z m260 -69 c122
-27 252 -73 389 -137 l117 -56 -21 -30 c-47 -66 -230 -187 -375 -247 -228 -95
-442 -96 -524 -3 -45 52 -61 96 -67 189 -9 148 44 250 149 287 64 22 223 21
332 -3z"/>
<path d="M4090 2061 c0 -5 12 -11 28 -15 15 -3 37 -8 50 -12 13 -4 22 -2 22 4
0 6 -17 16 -37 21 -46 13 -63 14 -63 2z"/>
<path d="M3613 2015 c2 -26 7 -49 11 -52 12 -13 16 5 10 50 -9 61 -28 62 -21
2z"/>
<path d="M4713 2038 c-29 -10 -46 -28 -25 -28 19 0 82 22 87 30 8 12 -20 11
-62 -2z"/>
<path d="M4290 2011 c0 -11 88 -27 97 -17 10 9 2 13 -49 20 -30 5 -48 3 -48
-3z"/>
<path d="M530 1963 c-8 -21 -17 -42 -19 -47 -2 -5 2 -7 8 -5 18 6 53 89 38 89
-7 0 -19 -17 -27 -37z"/>
<path d="M4490 1990 c0 -5 20 -10 44 -10 25 0 48 5 51 10 4 6 -13 10 -44 10
-28 0 -51 -4 -51 -10z"/>
<path d="M1530 1880 c0 -27 5 -50 10 -50 6 0 10 23 10 50 0 28 -4 50 -10 50
-5 0 -10 -22 -10 -50z"/>
<path d="M3627 1853 c-11 -10 -8 -103 3 -103 6 0 10 25 10 55 0 56 -1 60 -13
48z"/>
<path d="M460 1801 c-20 -39 -29 -70 -21 -75 5 -3 18 17 29 44 20 48 14 71 -8
31z"/>
<path d="M1543 1713 c3 -10 8 -30 11 -45 6 -25 26 -41 26 -20 0 23 -22 82 -31
82 -6 0 -8 -8 -6 -17z"/>
<path d="M3596 1623 c-3 -16 -8 -38 -12 -50 -3 -13 -2 -23 3 -23 9 0 33 64 33
89 0 22 -18 10 -24 -16z"/>
<path d="M383 1623 c-3 -10 -8 -21 -10 -25 -2 -5 0 -8 6 -8 16 0 33 38 21 45
-6 3 -13 -2 -17 -12z"/>
<path d="M1606 1518 c9 -31 35 -70 42 -63 7 7 -29 85 -40 85 -5 0 -6 -10 -2
-22z"/>
<path d="M3513 1425 c-24 -36 -29 -55 -15 -55 8 0 52 71 52 84 0 16 -17 3 -37
-29z"/>
<path d="M1700 1362 c0 -14 58 -77 65 -70 4 4 -6 23 -22 42 -27 35 -43 45 -43
28z"/>
<path d="M3377 1265 c-21 -18 -34 -36 -29 -39 5 -3 26 9 47 28 21 18 34 35 29
38 -5 3 -26 -9 -47 -27z"/>
<path d="M1836 1221 c-7 -11 61 -64 76 -59 6 2 -7 18 -30 36 -22 18 -43 28
-46 23z"/>
<path d="M3207 1149 c-21 -11 -35 -24 -32 -29 6 -10 43 6 80 34 30 23 -1 20
-48 -5z"/>
<path d="M2000 1105 c0 -11 82 -45 92 -39 8 5 -3 14 -28 25 -39 18 -64 23 -64
14z"/>
<path d="M3028 1072 c-49 -16 -68 -39 -23 -28 46 12 75 25 75 36 0 5 -1 10 -2
9 -2 0 -24 -8 -50 -17z"/>
<path d="M2190 1030 c0 -9 61 -30 88 -30 29 0 8 19 -32 29 -54 13 -56 13 -56
1z"/>
<path d="M2820 1016 c-48 -13 -42 -31 7 -20 55 12 63 16 58 25 -7 11 -7 11
-65 -5z"/>
<path d="M2386 991 c-3 -4 15 -11 40 -15 52 -7 83 4 44 15 -36 10 -78 10 -84
0z"/>
<path d="M2590 980 c0 -5 20 -10 44 -10 25 0 48 5 51 10 4 6 -13 10 -44 10
-28 0 -51 -4 -51 -10z"/>
<path d="M3060 4462 c0 -5 48 -69 107 -143 263 -330 554 -737 639 -893 l37
-68 -31 16 c-36 19 -42 20 -42 6 0 -10 90 -54 95 -48 6 7 45 88 45 93 0 18
-22 0 -33 -27 l-14 -33 -26 52 c-66 129 -402 599 -677 945 -79 100 -100 120
-100 100z"/>
<path d="M3529 4229 l-24 -20 23 6 c21 6 22 4 22 -54 0 -34 4 -61 10 -61 12 0
13 137 1 144 -5 3 -20 -3 -32 -15z"/>
<path d="M3678 4239 c-10 -5 -18 -17 -18 -26 0 -15 2 -15 13 1 14 19 48 19 54
0 2 -6 -15 -34 -37 -63 l-40 -51 50 0 c32 0 49 4 45 10 -3 6 -17 10 -31 10
l-25 0 25 33 c28 37 33 66 14 85 -14 14 -27 15 -50 1z"/>
<path d="M805 4143 c-23 -15 -34 -28 -27 -31 7 -2 24 3 37 12 34 22 33 17 -14
-150 -132 -465 -361 -906 -605 -1162 -32 -34 -57 -65 -53 -68 10 -11 95 76
173 178 223 291 424 722 525 1123 l22 88 23 -28 c13 -16 26 -26 29 -23 9 9
-45 88 -59 87 -6 0 -29 -12 -51 -26z"/>
<path d="M3600 4110 c0 -5 5 -10 10 -10 6 0 10 5 10 10 0 6 -4 10 -10 10 -5 0
-10 -4 -10 -10z"/>
<path d="M249 3679 l-24 -20 23 6 c21 6 22 4 22 -54 0 -34 4 -61 10 -61 12 0
13 137 1 144 -5 3 -20 -3 -32 -15z"/>
<path d="M370 3679 c-24 -20 -24 -20 -2 -14 21 6 22 4 22 -54 0 -34 4 -61 10
-61 12 0 14 136 2 144 -4 2 -19 -4 -32 -15z"/>
<path d="M320 3560 c0 -5 5 -10 10 -10 6 0 10 5 10 10 0 6 -4 10 -10 10 -5 0
-10 -4 -10 -10z"/>
<path d="M4818 3100 c-39 -21 -57 -40 -38 -40 6 0 20 5 32 11 11 6 22 9 24 7
12 -13 -93 -233 -111 -233 -5 0 -11 20 -13 45 -2 25 -7 49 -12 54 -7 7 -80
-89 -80 -106 0 -5 15 -8 34 -8 26 0 35 -5 39 -21 9 -33 -99 -141 -180 -181
-54 -26 -70 -30 -123 -26 -40 3 -59 1 -57 -6 2 -7 33 -11 73 -11 92 0 149 28
240 119 78 78 139 175 186 296 l32 79 19 -32 c28 -45 33 -16 6 33 -13 22 -25
40 -28 40 -3 -1 -23 -10 -43 -20z m-128 -215 c0 -28 -4 -35 -20 -35 -11 0 -20
3 -20 6 0 7 33 64 37 64 2 0 3 -16 3 -35z"/>
<path d="M4499 2929 l-24 -20 23 6 c21 6 22 4 22 -54 0 -34 4 -61 10 -61 12 0
13 137 1 144 -5 3 -20 -3 -32 -15z"/>
<path d="M4570 2810 c0 -5 5 -10 10 -10 6 0 10 5 10 10 0 6 -4 10 -10 10 -5 0
-10 -4 -10 -10z"/>
<path d="M3784 819 c-316 -319 -863 -456 -1395 -348 -103 20 -277 77 -344 112
l-40 21 33 9 c31 10 44 27 20 27 -37 0 -88 -22 -88 -38 0 -31 21 -93 30 -87 5
3 5 18 0 35 -5 17 -5 30 -1 30 5 0 41 -15 82 -34 216 -100 557 -152 823 -127
282 27 506 102 711 239 107 71 255 205 238 215 -5 3 -36 -21 -69 -54z"/>
<path d="M2789 179 l-24 -20 23 6 c21 6 22 4 22 -54 0 -34 4 -61 10 -61 12 0
13 137 1 144 -5 3 -20 -3 -32 -15z"/>
<path d="M2925 180 c-10 -11 -13 -20 -7 -20 6 0 14 5 17 10 3 6 15 10 26 10
27 0 26 -40 -2 -47 -20 -5 -20 -6 3 -17 12 -6 24 -19 26 -27 4 -24 -27 -32
-54 -14 -25 16 -33 8 -12 -13 19 -19 66 -15 78 7 11 22 4 51 -13 51 -7 0 -7 4
1 12 18 18 14 46 -7 58 -27 14 -35 13 -56 -10z"/>
<path d="M2860 60 c0 -5 5 -10 10 -10 6 0 10 5 10 10 0 6 -4 10 -10 10 -5 0
-10 -4 -10 -10z"/>
</g>
</svg>
