<?xml version="1.0" encoding="UTF-8"?>
<svg version="1.1" xmlns="http://www.w3.org/2000/svg" width="582" height="697">
<path d="M0 0 C24.68446197 21.28377938 38.00139894 57.38908797 40.77392578 89.37107849 C41.0448664 95.66703528 39.46350949 100.5710462 37.1484375 106.37109375 C36.59794487 107.80329002 36.59794487 107.80329002 36.03633118 109.26441956 C34.82206927 112.41367096 33.5868481 115.55425483 32.3515625 118.6953125 C31.48610086 120.92863864 30.62211449 123.16253698 29.75952148 125.39697266 C27.95582779 130.06304578 26.14401446 134.7258423 24.32568359 139.38623047 C21.72547862 146.055248 19.15263047 152.73449527 16.58984375 159.41796875 C15.76921519 161.55753944 14.94857718 163.6971065 14.12792969 165.83666992 C13.51951233 167.42298721 13.51951233 167.42298721 12.89880371 169.04135132 C10.81605514 174.46684443 8.72637511 179.8896645 6.63671875 185.3125 C2.0366187 197.25146512 -2.55735856 209.19277711 -7.14944458 221.13482666 C-9.23217211 226.55092583 -11.31532637 231.96686086 -13.3984375 237.3828125 C-14.23177288 239.54947838 -15.06510621 241.71614505 -15.8984375 243.8828125 C-57.1484375 351.1328125 -57.1484375 351.1328125 -98.3984375 458.3828125 C-91.56647655 451.57779369 -85.06804772 444.52510957 -79.0234375 437.0078125 C-75.15689566 432.2122076 -71.04991767 427.71402583 -66.8425293 423.22143555 C-62.91951026 419.00870127 -59.27940031 414.61876797 -55.67578125 410.12890625 C-52.73998416 406.58882845 -49.63752227 403.21573278 -46.47314453 399.88061523 C-44.18076688 397.43984173 -42.18650738 395.07905892 -40.26171875 392.3203125 C-35.90635519 386.08177269 -32.08331762 382.90510754 -24.53076172 381.26171875 C-3.79389557 377.79851623 18.49133083 378.93673911 36.6015625 390.3828125 C52.63251446 402.59029029 60.2075151 418.42807705 63.16015625 438.10546875 C65.10055085 454.53154285 63.46595139 471.17653173 60.6015625 487.3828125 C60.48530518 488.15423584 60.36904785 488.92565918 60.24926758 489.72045898 C59.18175924 495.7692403 56.71225313 499.83656165 53.0390625 504.6953125 C52.22997437 505.80096558 52.22997437 505.80096558 51.40454102 506.92895508 C49.81729739 509.09085384 48.21124689 511.2375985 46.6015625 513.3828125 C45.79827729 514.47307383 44.99606531 515.56412737 44.1953125 516.65625 C28.93310397 537.28235066 12.55303195 557.07204983 -4.95458984 575.82568359 C-6.34999826 577.33057282 -7.73049721 578.84753091 -9.10546875 580.37109375 C-18.04734782 590.25560136 -27.24354938 600.07793883 -37.43359375 608.6953125 C-39.8580148 610.77751905 -42.18193782 612.95783457 -44.5234375 615.1328125 C-50.87923044 620.91318386 -57.55295851 626.19668725 -64.3984375 631.3828125 C-65.05666504 631.88683594 -65.71489258 632.39085937 -66.39306641 632.91015625 C-97.90815345 656.9188001 -134.96615312 676.92722321 -175.80175781 672.09863281 C-199.90155159 668.04760844 -218.27641147 652.112432 -232.24560547 633.01953125 C-234.8740653 629.28780852 -237.18397304 625.37064891 -239.3984375 621.3828125 C-243.20725227 622.77158612 -246.37782198 624.55298818 -249.7734375 626.7578125 C-292.77548697 653.86988532 -349.35396427 675.70356048 -400.73730469 664.22119141 C-417.69090015 659.9953163 -432.33565157 651.96717459 -445.3984375 640.3828125 C-446.09582031 639.76921875 -446.79320312 639.155625 -447.51171875 638.5234375 C-471.80999308 615.7346752 -481.80347834 581.09755429 -487.3984375 549.3828125 C-487.52976074 548.64224609 -487.66108398 547.90167969 -487.79638672 547.13867188 C-489.89970549 534.92585321 -489.43973897 523.82102487 -487.7734375 511.5703125 C-487.68540863 510.92142059 -487.59737976 510.27252869 -487.50668335 509.60397339 C-479.76843592 453.18514601 -461.16154506 396.73784826 -427.3984375 350.3828125 C-426.98094238 349.80692383 -426.56344727 349.23103516 -426.13330078 348.63769531 C-419.81243657 339.98756381 -412.80864355 332.1092331 -405.3984375 324.3828125 C-404.50253906 323.4340625 -403.60664063 322.4853125 -402.68359375 321.5078125 C-373.28573363 291.11707311 -333.99085743 273.71517403 -292.3984375 268.3828125 C-291.40199219 268.25003906 -290.40554688 268.11726563 -289.37890625 267.98046875 C-265.8979435 265.47079045 -237.05206266 265.83160411 -214.3984375 273.3828125 C-214.2057428 272.30500771 -214.2057428 272.30500771 -214.00915527 271.20542908 C-213.40815104 268.42770656 -212.59595407 265.89087589 -211.62695312 263.22094727 C-211.26079391 262.20678741 -210.8946347 261.19262756 -210.51737976 260.1477356 C-210.11719131 259.05097504 -209.71700287 257.95421448 -209.3046875 256.82421875 C-208.67715324 255.09182449 -208.67715324 255.09182449 -208.03694153 253.32443237 C-206.89834054 250.18417563 -205.75643504 247.04516168 -204.61276627 243.90674973 C-203.65402685 241.27419833 -202.69789875 238.64070147 -201.74166965 236.00723743 C-194.08726352 214.92998129 -186.33354371 193.88987595 -178.5381012 172.8644104 C-174.49022337 161.94119077 -170.47541055 151.00584313 -166.4609375 140.0703125 C-165.70826106 138.02058585 -164.95557552 135.97086254 -164.20288086 133.92114258 C-161.17102958 125.66396032 -158.14035359 117.40634762 -155.11181641 109.14794922 C-154.73428223 108.11849686 -154.35674805 107.08904449 -153.96777344 106.02839661 C-153.20569215 103.95035639 -152.44364785 101.87230261 -151.68164062 99.79423523 C-149.80315162 94.67276324 -147.92234956 89.55216082 -146.03662109 84.43334961 C-145.66964111 83.43712082 -145.30266113 82.44089203 -144.92456055 81.41447449 C-144.18750329 79.41363967 -143.45036175 77.41283589 -142.71313477 75.4120636 C-140.45871869 69.28653675 -138.22544225 63.15372387 -136.0065918 57.01522827 C-134.55441411 53.00397128 -133.0913538 48.99673624 -131.62628174 44.99017334 C-130.94007691 43.10547526 -130.2587703 41.21898557 -129.58270264 39.33062744 C-128.65244944 36.73382883 -127.70522125 34.14383049 -126.75390625 31.5546875 C-126.35344841 30.41611801 -126.35344841 30.41611801 -125.94490051 29.25454712 C-120.15156066 13.71476753 -98.11756884 2.75903699 -83.75244141 -3.83105469 C-56.64264223 -15.50532008 -24.64963492 -19.87404115 0 0 Z M-111.3984375 20.3828125 C-111.94625381 20.74842285 -112.49407013 21.1140332 -113.05848694 21.49072266 C-119.25893285 26.01858971 -121.05125352 31.96460881 -123.48046875 39.02734375 C-123.93472969 40.29724151 -124.39095596 41.56643771 -124.84899902 42.8349762 C-125.82050552 45.53791276 -126.7786542 48.2450631 -127.72622681 50.95648193 C-129.22573498 55.24697605 -130.75434485 59.52673187 -132.2878418 63.80517578 C-134.10581791 68.88279104 -135.91740128 73.96258317 -137.7197237 79.04577637 C-141.60345319 89.99707959 -145.59500733 100.9073604 -149.62142944 111.80697632 C-151.44440332 116.74433978 -153.25862092 121.6849206 -155.07421875 126.625 C-155.79243466 128.57781633 -156.51069634 130.53061582 -157.22900391 132.48339844 C-160.57852337 141.59071479 -163.92364679 150.69964631 -167.26922607 159.80841064 C-169.14160631 164.90617103 -171.01414222 170.00387422 -172.88671875 175.1015625 C-173.25732422 176.11046539 -173.62792969 177.11936829 -174.00976562 178.15884399 C-177.05768215 186.45590418 -180.10675378 194.75253961 -183.15618896 203.04904175 C-185.04516263 208.1887058 -186.93336529 213.32865064 -188.81982422 218.46923828 C-189.55565707 220.47428642 -190.29149687 222.47933201 -191.02734375 224.484375 C-191.56853851 225.95911789 -191.56853851 225.95911789 -192.1206665 227.46365356 C-194.32719651 233.47361112 -196.54129263 239.48072183 -198.76112366 245.48577881 C-200.18241314 249.33247514 -201.60002527 253.18052046 -203.01699829 257.02880859 C-203.68255281 258.83348876 -204.34982227 260.63753748 -205.01889038 262.44091797 C-205.93364008 264.90693904 -206.84249963 267.37505379 -207.75 269.84375 C-208.02089951 270.56936127 -208.29179901 271.29497253 -208.57090759 272.04257202 C-209.64034503 274.96750524 -210.3984375 277.24129136 -210.3984375 280.3828125 C-211.38457031 280.12886719 -212.37070312 279.87492187 -213.38671875 279.61328125 C-264.93499567 266.93626013 -319.43856374 272.21222156 -365.3984375 299.3828125 C-370.27467174 302.45177901 -374.86117803 305.83644877 -379.3984375 309.3828125 C-380.33558594 310.10984375 -381.27273438 310.836875 -382.23828125 311.5859375 C-442.38394562 359.56440147 -471.59593684 436.92715754 -481.7109375 511.2578125 C-481.88270508 512.51198975 -482.05447266 513.76616699 -482.23144531 515.05834961 C-483.63943124 525.98199824 -483.64836438 535.72020779 -481.7734375 546.5703125 C-481.50611816 548.12637207 -481.50611816 548.12637207 -481.23339844 549.71386719 C-476.16733018 578.04441812 -467.52720069 606.27183679 -448.3984375 628.3828125 C-447.25375 629.89875 -447.25375 629.89875 -446.0859375 631.4453125 C-430.28433615 648.71683026 -407.39858231 659.3961661 -384.07275391 660.546875 C-368.65349421 661.03708858 -353.46776205 660.88745423 -338.3984375 657.3828125 C-337.56006348 657.18945312 -336.72168945 656.99609375 -335.85791016 656.796875 C-300.64959235 648.41671341 -268.28574122 632.54614418 -238.3984375 612.3828125 C-235.42766434 615.93853879 -232.99989371 619.58158203 -230.6484375 623.5703125 C-218.71594215 643.28971527 -202.39145075 658.27454861 -180.1484375 665.1953125 C-174.01422727 666.61586645 -167.91499455 666.6651563 -161.6484375 666.6953125 C-160.17455566 666.70365112 -160.17455566 666.70365112 -158.67089844 666.7121582 C-152.90235353 666.654981 -147.92904832 666.02538546 -142.3984375 664.3828125 C-138.67570097 663.2998346 -135.00355795 662.29317759 -131.203125 661.5390625 C-126.51276567 660.50216096 -122.31946651 658.87725175 -117.9609375 656.8828125 C-117.19015869 656.5331543 -116.41937988 656.18349609 -115.62524414 655.82324219 C-100.50408356 648.83409665 -86.75028107 640.31404734 -73.3984375 630.3828125 C-72.51913574 629.733125 -72.51913574 629.733125 -71.62207031 629.0703125 C-65.36793455 624.42956248 -59.32453106 619.55875154 -53.3984375 614.5078125 C-52.88966064 614.0746875 -52.38088379 613.6415625 -51.85668945 613.1953125 C-41.3975177 604.16349109 -31.44328967 594.59528018 -21.69384766 584.80859375 C-20.00667792 583.11599903 -18.31413554 581.42890653 -16.62109375 579.7421875 C-10.99930154 574.1242452 -5.53289531 568.45563102 -0.3984375 562.3828125 C0.67009676 561.15600099 1.74041318 559.93073946 2.8125 558.70703125 C16.82118344 542.62637999 30.15029089 526.03194414 42.6640625 508.7578125 C43.18774414 508.03650146 43.71142578 507.31519043 44.25097656 506.57202148 C45.72269897 504.52307376 47.16753212 502.45827741 48.6015625 500.3828125 C49.06965332 499.72176514 49.53774414 499.06071777 50.02001953 498.37963867 C53.20010506 493.66152922 54.58012903 489.55620525 55.3515625 483.9453125 C55.46371094 483.24599609 55.57585938 482.54667969 55.69140625 481.82617188 C56.02619731 479.68153975 56.32064629 477.53512642 56.6015625 475.3828125 C56.74513184 474.32694946 56.74513184 474.32694946 56.89160156 473.24975586 C59.6487263 451.19522847 58.85224848 426.33416876 45.7890625 407.5078125 C35.61072894 394.44846087 22.41168624 388.1022922 6.109375 385.9140625 C-5.47483413 384.83646165 -18.40719215 385.27733551 -29.3984375 389.3828125 C-32.03808868 391.55931299 -32.03808868 391.55931299 -34.2734375 394.3203125 C-35.129375 395.31160156 -35.9853125 396.30289062 -36.8671875 397.32421875 C-39.93274938 401.02843936 -42.96644269 404.75691081 -45.984375 408.5 C-49.17553316 412.31080052 -52.55973753 415.91965023 -55.95654297 419.54638672 C-59.07383086 422.89363035 -62.03410232 426.31277156 -64.8984375 429.8828125 C-68.24145709 434.0494746 -71.74958887 437.98701062 -75.3984375 441.8828125 C-79.85144731 446.63757921 -84.0259829 451.5345494 -88.10546875 456.6171875 C-91.52480921 460.74136646 -95.16608014 464.64258159 -98.8203125 468.55859375 C-101.44413391 471.43287084 -103.92902055 474.37598647 -106.3984375 477.3828125 C-107.7184375 477.0528125 -109.0384375 476.7228125 -110.3984375 476.3828125 C-109.09435899 469.81251687 -107.22010555 463.83052947 -104.75 457.61328125 C-104.38583481 456.6807251 -104.02166962 455.74816895 -103.64646912 454.78735352 C-102.85808361 452.77055771 -102.06673908 450.75491658 -101.2727356 448.74032593 C-99.5536059 444.37814507 -97.84904734 440.01031215 -96.14326477 435.64289856 C-95.24696158 433.34864562 -94.34988628 431.05469419 -93.45207214 428.7610321 C-88.73869683 416.71650253 -84.09667231 404.64488831 -79.4609375 392.5703125 C-78.62525043 390.39539274 -77.78947526 388.22050684 -76.95361328 386.0456543 C-75.27361416 381.6742733 -73.59395024 377.30276376 -71.91455078 372.93115234 C-68.16166364 363.16294768 -64.40438203 353.39643322 -60.64743042 343.62979126 C-58.56425266 338.21420095 -56.48135949 332.79850119 -54.3984375 327.3828125 C-53.56510553 325.21614531 -52.7317722 323.04947864 -51.8984375 320.8828125 C-51.4859375 319.8103125 -51.0734375 318.7378125 -50.6484375 317.6328125 C-42.73177083 297.04947917 -34.81510417 276.46614583 -26.8984375 255.8828125 C-26.48594757 254.81033768 -26.07345764 253.73786285 -25.64846802 252.63288879 C-24.81503569 250.46596677 -23.98160063 248.29904579 -23.14816284 246.13212585 C-21.06632184 240.71937482 -18.98452804 235.30660563 -16.90283203 229.89379883 C-13.13514425 220.09723019 -9.36709831 210.30080003 -5.59732056 200.5050354 C2.71633559 178.90200319 11.02559289 157.29730055 19.30804443 135.68228149 C20.07239473 133.68756477 20.83691422 131.69291286 21.60162354 129.69833374 C21.96141296 128.75978546 22.32120239 127.82123718 22.69189453 126.85424805 C23.04190521 125.94124435 23.39191589 125.02824066 23.75253296 124.08757019 C24.75263113 121.47324908 25.74708815 118.85683227 26.74121094 116.24023438 C27.94470585 113.07822107 29.17742245 109.93049194 30.43847656 106.79101562 C30.86351974 105.7130069 30.86351974 105.7130069 31.29714966 104.61322021 C32.04768337 102.71104095 32.81064595 100.81377828 33.57470703 98.91699219 C35.97477021 90.65657502 33.89904335 82.82736 32.0390625 74.6328125 C31.63361206 72.84351318 31.63361206 72.84351318 31.2199707 71.01806641 C26.4436407 50.61371589 19.48767593 30.47081604 5.6015625 14.3828125 C4.8796875 13.3928125 4.1578125 12.4028125 3.4140625 11.3828125 C-3.61852168 3.13216636 -13.25602732 -2.22688747 -23.3984375 -5.6171875 C-24.11 -5.86210938 -24.8215625 -6.10703125 -25.5546875 -6.359375 C-55.28529647 -14.70681521 -88.62770619 2.61260159 -111.3984375 20.3828125 Z " fill="#000000" transform="translate(518.3984375,13.6171875)"/>
<path d="M0 0 C-2.56916231 11.76498516 -5.76289347 23.15884034 -9.625 34.5625 C-10.01850143 35.7317955 -10.01850143 35.7317955 -10.41995239 36.92471313 C-20.05679145 65.48252556 -31.65515504 93.83035847 -50 118 C-50.72316406 118.96421875 -51.44632812 119.9284375 -52.19140625 120.921875 C-67.0689048 139.88178107 -86.33073621 157.2459816 -111 161 C-117.89183903 161.49451692 -123.46224003 161.28123436 -130 159 C-130.92841411 115.06458761 -122.09256506 76.52340668 -91 44 C-82.60335553 35.31751232 -73.16932255 28.44000369 -63 22 C-62.36078613 21.59507324 -61.72157227 21.19014648 -61.06298828 20.77294922 C-43.70588029 9.98098805 -20.69451718 -0.18501304 0 0 Z M-85 47 C-85.74894531 47.68449219 -86.49789062 48.36898437 -87.26953125 49.07421875 C-93.88312084 55.34033428 -98.98082414 62.44527496 -104 70 C-104.6290625 70.93328125 -105.258125 71.8665625 -105.90625 72.828125 C-119.00322689 93.6642246 -124.24354375 118.68443208 -124.0625 143 C-124.05798828 144.15628906 -124.05347656 145.31257812 -124.04882812 146.50390625 C-124.03712529 149.33599225 -124.02072996 152.16796811 -124 155 C-105.326525 155.89485047 -89.96221056 149.18601953 -76 137 C-75.18917969 136.32195312 -74.37835938 135.64390625 -73.54296875 134.9453125 C-38.38383079 104.71399073 -18.21499779 53.02046624 -8 9 C-8 8.34 -8 7.68 -8 7 C-35.09423795 7 -66.49969046 29.53937728 -85 47 Z " fill="#000000" transform="translate(286,406)"/>
<path d="M0 0 C-0.33 0.99 -0.66 1.98 -1 3 C-1.53141602 2.83395264 -2.06283203 2.66790527 -2.61035156 2.49682617 C-44.9300736 -10.56610302 -83.620171 -7.36091494 -123.08203125 13.08984375 C-138.31644045 21.23060911 -152.13541067 31.51995856 -165 43 C-165.52513184 43.46341797 -166.05026367 43.92683594 -166.59130859 44.40429688 C-193.10106437 67.87907606 -214.30833639 96.46090874 -232 127 C-232.38623535 127.66273926 -232.7724707 128.32547852 -233.17041016 129.00830078 C-245.57765119 150.41498149 -255.61401477 172.73735218 -264 196 C-264.32838867 196.90137695 -264.65677734 197.80275391 -264.99511719 198.73144531 C-273.0796212 221.12645069 -278.62884986 244.4415062 -282 268 C-282.11714355 268.80179688 -282.23428711 269.60359375 -282.35498047 270.4296875 C-288.06990246 311.32577119 -284.97150772 359.20955525 -259.32080078 393.30517578 C-241.76384099 415.83390311 -217.17627282 428.20953478 -189.17602539 432.22631836 C-135.9605063 438.56790631 -80.73625316 421.49099438 -32.50610352 400.3359375 C-27.17663778 398 -27.17663778 398 -25 398 C-25 397.34 -25 396.68 -25 396 C-26.65 395.67 -28.3 395.34 -30 395 C-29.67 394.01 -29.34 393.02 -29 392 C-26.03 392.99 -23.06 393.98 -20 395 C-18.3557649 399.93270529 -19.81384408 402.54024193 -22 407 C-22.99 406.67 -23.98 406.34 -25 406 C-24.67 404.35 -24.34 402.7 -24 401 C-24.79656006 401.33620361 -25.59312012 401.67240723 -26.41381836 402.01879883 C-87.7035501 427.74799499 -159.21402169 452.34404647 -224.25 426.1875 C-235.30313792 421.26382947 -244.3075576 414.32899533 -253 406 C-253.63679688 405.41476562 -254.27359375 404.82953125 -254.9296875 404.2265625 C-278.22384645 382.17475869 -287.04547419 345.82992194 -288.1081543 314.84667969 C-289.68404875 227.70293262 -255.00630924 140.97325844 -200 74 C-199.2881958 73.13157471 -199.2881958 73.13157471 -198.56201172 72.24560547 C-186.20506728 57.29841597 -172.57666486 42.6267083 -157 31 C-156.43893555 30.57315918 -155.87787109 30.14631836 -155.29980469 29.70654297 C-146.84186698 23.27662378 -138.22426553 17.29658169 -129 12 C-128.36900391 11.63664551 -127.73800781 11.27329102 -127.08789062 10.89892578 C-90.42098876 -9.99123089 -39.53877116 -19.76938558 0 0 Z " fill="#000000" transform="translate(288,260)"/>
<path d="M0 0 C0.99 0 1.98 0 3 0 C2.33437966 4.96369664 0.27817829 9.15494658 -1.796875 13.65625 C-2.37395454 14.92484612 -2.37395454 14.92484612 -2.96269226 16.21907043 C-3.7895349 18.03509303 -4.6187728 19.85002659 -5.45016479 21.66397095 C-6.76582316 24.53452357 -8.07529221 27.40782569 -9.38305664 30.28198242 C-11.12802478 34.11641028 -12.87496753 37.94992716 -14.62353516 41.78271484 C-17.58629784 48.28158844 -20.51933331 54.79346959 -23.4375 61.3125 C-23.93660889 62.42689453 -24.43571777 63.54128906 -24.94995117 64.68945312 C-32.01059485 80.47374391 -39.02155574 96.28023423 -46.03863525 112.08392334 C-49.11216871 119.00467625 -52.19157955 125.92279436 -55.2734375 132.83984375 C-64.07811655 152.60604722 -72.85104221 172.38226732 -81.39306641 192.26367188 C-82.83102057 195.60986713 -84.2760266 198.95298482 -85.72180176 202.29580688 C-92.35485441 217.63864558 -98.89258559 233.01496671 -105.1875 248.5 C-105.45594727 249.15909363 -105.72439453 249.81818726 -106.00097656 250.49725342 C-112.05413584 262.92427478 -112.05413584 262.92427478 -115 276 C-84.61780875 266.42067382 -55.11047338 234.03693513 -37 209 C-36.53948242 208.37029297 -36.07896484 207.74058594 -35.60449219 207.09179688 C-33.13344148 204.29657342 -33.13344148 204.29657342 -32 201 C-33.65 201 -35.3 201 -37 201 C-36.67 200.01 -36.34 199.02 -36 198 C-31.05 197.01 -31.05 197.01 -26 196 C-22.65178571 204.03571429 -22.65178571 204.03571429 -24 208 C-25.70840281 206.36587557 -26.93453047 205.13093906 -28 203 C-28.44988281 203.64324219 -28.89976562 204.28648437 -29.36328125 204.94921875 C-42.13608205 222.89257218 -57.23645795 239.71354492 -74 254 C-74.87398438 254.763125 -75.74796875 255.52625 -76.6484375 256.3125 C-88.85288012 266.7827993 -103.39232767 279.19640295 -120 280 C-118.55787963 272.46452487 -116.16060125 265.57708658 -113.375 258.4375 C-113.12823517 257.8019519 -112.88147034 257.16640381 -112.62722778 256.51159668 C-97.78064246 218.404229 -80.82854363 181.05230612 -64.1998291 143.69720459 C-62.07507033 138.92076676 -59.95591347 134.14184327 -57.8359375 129.36328125 C-47.16278163 105.3116253 -36.43427345 81.28553141 -25.62890625 57.29296875 C-24.06504726 53.82033812 -22.50126214 50.34767424 -20.9375 46.875 C-20.55352051 46.02239594 -20.16954102 45.16979187 -19.77392578 44.29135132 C-13.135222 29.54845904 -6.5430967 14.78559733 0 0 Z " fill="#000000" transform="translate(567,135)"/>
<path d="M0 0 C2.875 -0.125 2.875 -0.125 6 0 C6.66 0.66 7.32 1.32 8 2 C7.83754442 5.73647845 7.41216356 7.52538742 4.9375 10.375 C4.298125 10.91125 3.65875 11.4475 3 12 C4.65 12.33 6.3 12.66 8 13 C8 13.66 8 14.32 8 15 C4.7 15 1.4 15 -2 15 C0 11 0 11 2.125 8.4375 C4.30485538 6.11622611 4.30485538 6.11622611 4 3 C3.34 3 2.68 3 2 3 C1.67 3.66 1.34 4.32 1 5 C0.01 5 -0.98 5 -2 5 C-1.34 3.35 -0.68 1.7 0 0 Z " fill="#000000" transform="translate(512,273)"/>
<path d="M0 0 C0 4.95 0 9.9 0 15 C-0.99 15 -1.98 15 -3 15 C-3 11.37 -3 7.74 -3 4 C-3.99 4.33 -4.98 4.66 -6 5 C-5.625 3.0625 -5.625 3.0625 -5 1 C-3 0 -3 0 0 0 Z " fill="#000000" transform="translate(73,328)"/>
<path d="M0 0 C0.99 0 1.98 0 3 0 C3 3.63 3 7.26 3 11 C2.01 11 1.02 11 0 11 C-0.33 10.34 -0.66 9.68 -1 9 C-1.99 9 -2.98 9 -4 9 C-3.34 7.68 -2.68 6.36 -2 5 C-1.34 5 -0.68 5 0 5 C0 3.35 0 1.7 0 0 Z " fill="#000000" transform="translate(319,561)"/>
<path d="M0 0 C0.99 0 1.98 0 3 0 C2.01 3.63 1.02 7.26 0 11 C-0.99 10.67 -1.98 10.34 -3 10 C-2.67 8.68 -2.34 7.36 -2 6 C-2.99 5.67 -3.98 5.34 -5 5 C-4.67 4.01 -4.34 3.02 -4 2 C-3.01 2 -2.02 2 -1 2 C-0.67 1.34 -0.34 0.68 0 0 Z " fill="#000000" transform="translate(387,343)"/>
<path d="M0 0 C0.99 0 1.98 0 3 0 C2.01 3.63 1.02 7.26 0 11 C-0.99 11 -1.98 11 -3 11 C-2.53199289 6.94393835 -2.12046792 3.53411321 0 0 Z " fill="#000000" transform="translate(348,462)"/>
<path d="M0 0 C0.99 0 1.98 0 3 0 C2.53199289 4.05606165 2.12046792 7.46588679 0 11 C-0.99 11 -1.98 11 -3 11 C-2.01 7.37 -1.02 3.74 0 0 Z " fill="#000000" transform="translate(354,442)"/>
<path d="M0 0 C0 0.99 0 1.98 0 3 C-3.82320557 4.42258812 -6.91281305 5.24042276 -11 5 C-11 4.01 -11 3.02 -11 2 C-3.375 0 -3.375 0 0 0 Z " fill="#000000" transform="translate(197,623)"/>
<path d="M0 0 C0 0.66 0 1.32 0 2 C-1.26418246 2.69965443 -2.53665402 3.38434763 -3.8125 4.0625 C-4.52019531 4.44535156 -5.22789062 4.82820312 -5.95703125 5.22265625 C-8 6 -8 6 -11 5 C-11 4.34 -11 3.68 -11 3 C-9.73581754 2.30034557 -8.46334598 1.61565237 -7.1875 0.9375 C-6.47980469 0.55464844 -5.77210938 0.17179688 -5.04296875 -0.22265625 C-3 -1 -3 -1 0 0 Z " fill="#000000" transform="translate(254,602)"/>
<path d="M0 0 C0.99 0.33 1.98 0.66 3 1 C2.67 4.63 2.34 8.26 2 12 C1.01 12 0.02 12 -1 12 C-1.02712066 10.56260487 -1.04645067 9.12506137 -1.0625 7.6875 C-1.07410156 6.88699219 -1.08570312 6.08648437 -1.09765625 5.26171875 C-1 3 -1 3 0 0 Z " fill="#000000" transform="translate(88,494)"/>
<path d="M0 0 C0.99 0.66 1.98 1.32 3 2 C1.68 5.3 0.36 8.6 -1 12 C-1.66 11.67 -2.32 11.34 -3 11 C-2.53199289 6.94393835 -2.12046792 3.53411321 0 0 Z " fill="#000000" transform="translate(381,362)"/>
<path d="M0 0 C0 0.99 0 1.98 0 3 C-4.95 4.485 -4.95 4.485 -10 6 C-10.33 5.01 -10.66 4.02 -11 3 C-9.73160474 2.49384702 -8.46016898 1.99530901 -7.1875 1.5 C-6.12595703 1.08234375 -6.12595703 1.08234375 -5.04296875 0.65625 C-3 0 -3 0 0 0 Z " fill="#000000" transform="translate(212,346)"/>
<path d="M0 0 C0.99 0.33 1.98 0.66 3 1 C2.01 4.3 1.02 7.6 0 11 C-0.99 11 -1.98 11 -3 11 C-2.69078116 9.54096742 -2.37751201 8.08279278 -2.0625 6.625 C-1.88847656 5.81289063 -1.71445312 5.00078125 -1.53515625 4.1640625 C-1 2 -1 2 0 0 Z " fill="#000000" transform="translate(406,285)"/>
<path d="M0 0 C0.99 0.33 1.98 0.66 3 1 C2.01 4.3 1.02 7.6 0 11 C-0.99 11 -1.98 11 -3 11 C-2.69078116 9.54096742 -2.37751201 8.08279278 -2.0625 6.625 C-1.88847656 5.81289062 -1.71445312 5.00078125 -1.53515625 4.1640625 C-1 2 -1 2 0 0 Z " fill="#000000" transform="translate(469,94)"/>
<path d="M0 0 C-0.21484375 1.890625 -0.21484375 1.890625 -1 4 C-3.06640625 5.046875 -3.06640625 5.046875 -5.5625 5.75 C-6.80193359 6.11351562 -6.80193359 6.11351562 -8.06640625 6.484375 C-9.02353516 6.73960937 -9.02353516 6.73960937 -10 7 C-10.33 6.01 -10.66 5.02 -11 4 C-9.5437455 3.32880451 -8.08492133 2.66318193 -6.625 2 C-5.81289062 1.62875 -5.00078125 1.2575 -4.1640625 0.875 C-2 0 -2 0 0 0 Z " fill="#000000" transform="translate(235,609)"/>
<path d="M0 0 C3.36591427 2.72478774 4.44226276 6.06856792 6 10 C4.68 10 3.36 10 2 10 C-1.07692308 4.58461538 -1.07692308 4.58461538 -0.6875 1.625 C-0.460625 1.08875 -0.23375 0.5525 0 0 Z " fill="#000000" transform="translate(101,594)"/>
<path d="M0 0 C0.66 0.33 1.32 0.66 2 1 C1 4 1 4 -1.8125 5.75 C-4.96403086 6.98589446 -5.96929372 7.28222189 -9 6 C-6.45368965 3.02930459 -3.57769851 1.5224249 0 0 Z " fill="#000000" transform="translate(270,592)"/>
<path d="M0 0 C0 0.99 0 1.98 0 3 C-1.28913487 3.67154933 -2.58140204 4.33708859 -3.875 5 C-4.59429687 5.37125 -5.31359375 5.7425 -6.0546875 6.125 C-8 7 -8 7 -10 7 C-9.875 5.1875 -9.875 5.1875 -9 3 C-5.79116175 1.04679411 -3.7794561 0 0 0 Z " fill="#000000" transform="translate(290,583)"/>
<path d="M0 0 C0.99 0.33 1.98 0.66 3 1 C1.55746343 4.36591866 -0.33264727 6.51047079 -3 9 C-3.99 8.67 -4.98 8.34 -6 8 C-4.02 5.36 -2.04 2.72 0 0 Z " fill="#000000" transform="translate(441,566)"/>
<path d="M0 0 C-1.52708963 3.43595166 -3.59927045 6.11912454 -6 9 C-6.99 8.67 -7.98 8.34 -9 8 C-4.45945946 0 -4.45945946 0 0 0 Z " fill="#000000" transform="translate(457,552)"/>
<path d="M0 0 C0.99 0.33 1.98 0.66 3 1 C1.35 4.3 -0.3 7.6 -2 11 C-2.99 10.67 -3.98 10.34 -5 10 C-3.66511872 6.40608886 -2.03977277 3.24509304 0 0 Z " fill="#000000" transform="translate(115,418)"/>
<path d="M0 0 C-0.24609375 1.859375 -0.24609375 1.859375 -1 4 C-2.84765625 5.265625 -2.84765625 5.265625 -5.0625 6.25 C-6.16271484 6.75273437 -6.16271484 6.75273437 -7.28515625 7.265625 C-8.13400391 7.62914062 -8.13400391 7.62914062 -9 8 C-9 6.68 -9 5.36 -9 4 C-2.25 0 -2.25 0 0 0 Z " fill="#000000" transform="translate(175,362)"/>
<path d="M0 0 C0.99 0.33 1.98 0.66 3 1 C2.34 3.97 1.68 6.94 1 10 C-0.32 10 -1.64 10 -3 10 C-2.01 6.7 -1.02 3.4 0 0 Z " fill="#000000" transform="translate(412,266)"/>
<path d="M0 0 C3.63 0 7.26 0 11 0 C11 0.99 11 1.98 11 3 C7.37 3 3.74 3 0 3 C0 2.01 0 1.02 0 0 Z " fill="#000000" transform="translate(146,629)"/>
<path d="M0 0 C0 0.99 0 1.98 0 3 C-3.63 3.33 -7.26 3.66 -11 4 C-11 3.01 -11 2.02 -11 1 C-7.32589215 -0.17571451 -3.83070817 -0.07366746 0 0 Z " fill="#000000" transform="translate(177,628)"/>
<path d="M0 0 C0 0.99 0 1.98 0 3 C-4.95 4.485 -4.95 4.485 -10 6 C-9.67 4.68 -9.34 3.36 -9 2 C-5.82254537 0.61849799 -3.46877176 0 0 0 Z " fill="#000000" transform="translate(216,617)"/>
<path d="M0 0 C0.66 0 1.32 0 2 0 C3.35386936 1.65002828 4.68678142 3.3174387 6 5 C6.66 5.33 7.32 5.66 8 6 C8 6.99 8 7.98 8 9 C3.75177626 8.52797514 1.80010291 6.03344482 -1 3 C-0.67 2.01 -0.34 1.02 0 0 Z " fill="#000000" transform="translate(111,611)"/>
<path d="M0 0 C0.99 0.33 1.98 0.66 3 1 C3.33 4.3 3.66 7.6 4 11 C3.01 11 2.02 11 1 11 C-0.17571451 7.32589215 -0.07366746 3.83070817 0 0 Z " fill="#000000" transform="translate(321,600)"/>
<path d="M0 0 C0.99 0 1.98 0 3 0 C3.99 3.3 4.98 6.6 6 10 C4.68 10 3.36 10 2 10 C1.34 6.7 0.68 3.4 0 0 Z " fill="#000000" transform="translate(93,575)"/>
<path d="M0 0 C0.99 0.33 1.98 0.66 3 1 C3 1.66 3 2.32 3 3 C-3.4 7.06153846 -3.4 7.06153846 -6.4375 6.75 C-6.953125 6.5025 -7.46875 6.255 -8 6 C-5.63055987 3.38114512 -3.16266898 1.58133449 0 0 Z " fill="#000000" transform="translate(305,573)"/>
<path d="M0 0 C0.99 0 1.98 0 3 0 C3.33 3.63 3.66 7.26 4 11 C3.01 11 2.02 11 1 11 C-0.17571451 7.32589215 -0.07366746 3.83070817 0 0 Z " fill="#000000" transform="translate(90,555)"/>
<path d="M0 0 C0.99 0.33 1.98 0.66 3 1 C2.01 4.63 1.02 8.26 0 12 C-0.99 11.67 -1.98 11.34 -3 11 C-2.01 7.37 -1.02 3.74 0 0 Z " fill="#000000" transform="translate(328,521)"/>
<path d="M0 0 C0.99 0 1.98 0 3 0 C3 3.63 3 7.26 3 11 C2.01 11 1.02 11 0 11 C0 7.37 0 3.74 0 0 Z " fill="#000000" transform="translate(87,515)"/>
<path d="M0 0 C0.99 0.66 1.98 1.32 3 2 C1.68 5.3 0.36 8.6 -1 12 C-1.66 12 -2.32 12 -3 12 C-2.49202991 7.6822542 -1.80317221 3.96697886 0 0 Z " fill="#000000" transform="translate(335,501)"/>
<path d="M0 0 C0.99 0 1.98 0 3 0 C2.01 3.63 1.02 7.26 0 11 C-0.99 11 -1.98 11 -3 11 C-2.69078116 9.54096742 -2.37751201 8.08279278 -2.0625 6.625 C-1.88847656 5.81289063 -1.71445312 5.00078125 -1.53515625 4.1640625 C-1 2 -1 2 0 0 Z " fill="#000000" transform="translate(361,422)"/>
<path d="M0 0 C0.66 0.33 1.32 0.66 2 1 C0.76067171 4.43198603 -0.50301511 7.30325632 -3 10 C-3.99 10 -4.98 10 -6 10 C-4.6302836 6.00499382 -2.74277578 3.19990508 0 0 Z " fill="#000000" transform="translate(127,401)"/>
<path d="M0 0 C0.66 0.33 1.32 0.66 2 1 C0.50958227 4.79379058 -1.69062512 6.68343758 -5 9 C-5.66 9 -6.32 9 -7 9 C-6.82374165 6.62051228 -6.30280227 5.29774151 -4.59765625 3.62109375 C-3.09350908 2.37884514 -1.54870149 1.18623944 0 0 Z " fill="#000000" transform="translate(156,373)"/>
<path d="M0 0 C0 0.99 0 1.98 0 3 C-1.28913487 3.67154933 -2.58140204 4.33708859 -3.875 5 C-4.59429687 5.37125 -5.31359375 5.7425 -6.0546875 6.125 C-8 7 -8 7 -10 7 C-9.9375 5.1875 -9.9375 5.1875 -9 3 C-3.10714286 0 -3.10714286 0 0 0 Z " fill="#000000" transform="translate(193,353)"/>
<path d="M0 0 C7.625 0.875 7.625 0.875 11 2 C11 2.99 11 3.98 11 5 C7.37 4.34 3.74 3.68 0 3 C0 2.01 0 1.02 0 0 Z " fill="#000000" transform="translate(362,341)"/>
<path d="M0 0 C1.8871875 0.0309375 1.8871875 0.0309375 3.8125 0.0625 C3.8125 1.0525 3.8125 2.0425 3.8125 3.0625 C0.1825 3.3925 -3.4475 3.7225 -7.1875 4.0625 C-7.1875 3.0725 -7.1875 2.0825 -7.1875 1.0625 C-4.43671116 0.14557039 -2.82801087 -0.04636083 0 0 Z " fill="#000000" transform="translate(268.1875,334.9375)"/>
<path d="M0 0 C3.63 0 7.26 0 11 0 C11 0.99 11 1.98 11 3 C7.37 3 3.74 3 0 3 C0 2.01 0 1.02 0 0 Z " fill="#000000" transform="translate(281,334)"/>
<path d="M0 0 C0.99 0 1.98 0 3 0 C2.53199289 4.05606165 2.12046792 7.46588679 0 11 C-0.66 10.67 -1.32 10.34 -2 10 C-1.54177532 6.53058454 -1.10868317 3.32604951 0 0 Z " fill="#000000" transform="translate(437,190)"/>
<path d="M0 0 C0.99 0.66 1.98 1.32 3 2 C2.01 4.97 1.02 7.94 0 11 C-0.99 11 -1.98 11 -3 11 C-2.69217504 9.35328588 -2.37860766 7.70764424 -2.0625 6.0625 C-1.88847656 5.14597656 -1.71445312 4.22945313 -1.53515625 3.28515625 C-1 1 -1 1 0 0 Z " fill="#000000" transform="translate(463,113)"/>
<path d="M0 0 C3.55780196 0.60990891 6.6828589 1.5783681 10 3 C10 3.99 10 4.98 10 6 C6.7 5.01 3.4 4.02 0 3 C0 2.01 0 1.02 0 0 Z " fill="#000000" transform="translate(127,624)"/>
<path d="M0 0 C0 0.99 0 1.98 0 3 C-5.17578125 6.22265625 -5.17578125 6.22265625 -7 7 C-7.99 6.67 -8.98 6.34 -10 6 C-4.2 0 -4.2 0 0 0 Z " fill="#000000" transform="translate(386,619)"/>
<path d="M0 0 C0.66 0 1.32 0 2 0 C1.46104623 3.7726764 0.00464642 5.68212991 -3 8 C-5.25 7.75 -5.25 7.75 -7 7 C-4.66666667 4.66666667 -2.33333333 2.33333333 0 0 Z " fill="#000000" transform="translate(414,594)"/>
<path d="M0 0 C0.66 0.33 1.32 0.66 2 1 C1.67 4.3 1.34 7.6 1 11 C0.01 11 -0.98 11 -2 11 C-2.28571429 3.57142857 -2.28571429 3.57142857 0 0 Z " fill="#000000" transform="translate(322,541)"/>
<path d="M0 0 C0.99 0.33 1.98 0.66 3 1 C0.03 4.96 0.03 4.96 -3 9 C-3.99 8.67 -4.98 8.34 -6 8 C-2.25 2.25 -2.25 2.25 0 0 Z " fill="#000000" transform="translate(467,537)"/>
<path d="M0 0 C0.99 0 1.98 0 3 0 C3.33 3.63 3.66 7.26 4 11 C3.01 11 2.02 11 1 11 C-0.20272819 8.59454362 -0.10071472 7.05003047 -0.0625 4.375 C-0.05347656 3.55773437 -0.04445313 2.74046875 -0.03515625 1.8984375 C-0.02355469 1.27195312 -0.01195313 0.64546875 0 0 Z " fill="#000000" transform="translate(88,535)"/>
<path d="M0 0 C0.99 0 1.98 0 3 0 C1.76067171 3.43198603 0.49698489 6.30325632 -2 9 C-2.99 9 -3.98 9 -5 9 C-4.42636089 5.12793601 -2.65894107 2.81534937 0 0 Z " fill="#000000" transform="translate(479,522)"/>
<path d="M0 0 C0.66 0.33 1.32 0.66 2 1 C0.7508258 4.45925163 -0.67527795 7.14693203 -3 10 C-3.99 9.67 -4.98 9.34 -6 9 C-4.47291037 5.56404834 -2.40072955 2.88087546 0 0 Z " fill="#000000" transform="translate(492,506)"/>
<path d="M0 0 C0.99 0 1.98 0 3 0 C2.69078116 1.45903258 2.37751201 2.91720722 2.0625 4.375 C1.88847656 5.18710937 1.71445312 5.99921875 1.53515625 6.8359375 C1 9 1 9 0 11 C-0.99 10.67 -1.98 10.34 -3 10 C-2.01 6.7 -1.02 3.4 0 0 Z " fill="#000000" transform="translate(341,482)"/>
<path d="M0 0 C0.66 0.33 1.32 0.66 2 1 C0.7508258 4.45925163 -0.67527795 7.14693203 -3 10 C-3.99 9.67 -4.98 9.34 -6 9 C-4.47291037 5.56404834 -2.40072955 2.88087546 0 0 Z " fill="#000000" transform="translate(516,475)"/>
<path d="M0 0 C0.99 0.33 1.98 0.66 3 1 C2.34 4.3 1.68 7.6 1 11 C0.01 11 -0.98 11 -2 11 C-1.125 3.375 -1.125 3.375 0 0 Z " fill="#000000" transform="translate(92,474)"/>
<path d="M0 0 C0.66 0 1.32 0 2 0 C1 7.42857143 1 7.42857143 0 11 C-0.99 11 -1.98 11 -3 11 C-2.53199289 6.94393835 -2.12046792 3.53411321 0 0 Z " fill="#000000" transform="translate(98,455)"/>
<path d="M0 0 C0.99 0.33 1.98 0.66 3 1 C2.55090939 2.48199902 2.09043436 3.96055236 1.625 5.4375 C1.36976562 6.26121094 1.11453125 7.08492188 0.8515625 7.93359375 C0 10 0 10 -2 11 C-2.66 10.34 -3.32 9.68 -4 9 C-2.68 6.03 -1.36 3.06 0 0 Z " fill="#000000" transform="translate(105,436)"/>
<path d="M0 0 C0.66 0 1.32 0 2 0 C1.53199289 4.05606165 1.12046792 7.46588679 -1 11 C-1.99 10.67 -2.98 10.34 -4 10 C-2.68 6.7 -1.36 3.4 0 0 Z " fill="#000000" transform="translate(368,402)"/>
<path d="M0 0 C0.66 0.33 1.32 0.66 2 1 C0.4169423 5.2742558 -2.50568404 7.26531794 -6 10 C-6 6 -6 6 -4.6875 4.296875 C-4.130625 3.78640625 -3.57375 3.2759375 -3 2.75 C-2.1646875 1.96882813 -2.1646875 1.96882813 -1.3125 1.171875 C-0.879375 0.78515625 -0.44625 0.3984375 0 0 Z " fill="#000000" transform="translate(141,386)"/>
<path d="M0 0 C0.99 0.33 1.98 0.66 3 1 C2.01 4.3 1.02 7.6 0 11 C-0.99 11 -1.98 11 -3 11 C-2.01 7.37 -1.02 3.74 0 0 Z " fill="#000000" transform="translate(374,382)"/>
<path d="M0 0 C-0.33 0.99 -0.66 1.98 -1 3 C-4.3 3.66 -7.6 4.32 -11 5 C-11 4.01 -11 3.02 -11 2 C-7.17679443 0.57741188 -4.08718695 -0.24042276 0 0 Z " fill="#000000" transform="translate(232,341)"/>
<path d="M0 0 C3.63 0.33 7.26 0.66 11 1 C11 1.99 11 2.98 11 4 C7.37 3.67 3.74 3.34 0 3 C0 2.01 0 1.02 0 0 Z " fill="#000000" transform="translate(342,338)"/>
<path d="M0 0 C0 0.99 0 1.98 0 3 C-3.63 3.33 -7.26 3.66 -11 4 C-11 3.01 -11 2.02 -11 1 C-7.26513121 0.4254048 -3.78706732 0 0 0 Z " fill="#000000" transform="translate(252,337)"/>
<path d="M0 0 C3.63 0.33 7.26 0.66 11 1 C11 1.99 11 2.98 11 4 C9.54176788 4.0270043 8.08339325 4.04639787 6.625 4.0625 C5.81289063 4.07410156 5.00078125 4.08570313 4.1640625 4.09765625 C2 4 2 4 0 3 C0 2.01 0 1.02 0 0 Z " fill="#000000" transform="translate(322,335)"/>
<path d="M0 0 C0.99 0 1.98 0 3 0 C2.01 3.63 1.02 7.26 0 11 C-0.99 10.67 -1.98 10.34 -3 10 C-2.01 6.7 -1.02 3.4 0 0 Z " fill="#000000" transform="translate(425,228)"/>
<path d="M0 0 C0.99 0 1.98 0 3 0 C2.69078116 1.45903258 2.37751201 2.91720722 2.0625 4.375 C1.88847656 5.18710938 1.71445312 5.99921875 1.53515625 6.8359375 C1 9 1 9 0 11 C-0.99 10.67 -1.98 10.34 -3 10 C-2.01 6.7 -1.02 3.4 0 0 Z " fill="#000000" transform="translate(431,209)"/>
<path d="M0 0 C0.99 0.33 1.98 0.66 3 1 C2.01 4.3 1.02 7.6 0 11 C-0.99 11 -1.98 11 -3 11 C-2.01 7.37 -1.02 3.74 0 0 Z " fill="#000000" transform="translate(475,75)"/>
<path d="M0 0 C-0.1875 1.875 -0.1875 1.875 -1 4 C-4.29826907 5.78284814 -6.1774751 6 -10 6 C-9.67 5.01 -9.34 4.02 -9 3 C-2.88888889 0 -2.88888889 0 0 0 Z " fill="#000000" transform="translate(369,628)"/>
<path d="M0 0 C1.75 0.0625 1.75 0.0625 4 1 C5.59501537 3.24164322 6.74543018 5.53566643 8 8 C6.68 8 5.36 8 4 8 C0 2.88888889 0 2.88888889 0 0 Z " fill="#000000" transform="translate(326,619)"/>
<path d="M0 0 C0.99 0.33 1.98 0.66 3 1 C0.34345343 4.73884332 -1.58110387 6.64978174 -6 8 C-6 7.01 -6 6.02 -6 5 C-3.1875 2.25 -3.1875 2.25 0 0 Z " fill="#000000" transform="translate(399,607)"/>
<path d="M0 0 C0.66 0.33 1.32 0.66 2 1 C0.44499019 4.81684226 -2.03595495 7.19195732 -5 10 C-5 4.69520066 -3.4637943 3.81017373 0 0 Z " fill="#000000" transform="translate(504,491)"/>
<path d="M0 0 C0.66 0.33 1.32 0.66 2 1 C1.34 3.97 0.68 6.94 0 10 C-1.32 10.33 -2.64 10.66 -4 11 C-3.5247412 9.35303396 -3.04468109 7.70745272 -2.5625 6.0625 C-2.29566406 5.14597656 -2.02882813 4.22945313 -1.75390625 3.28515625 C-1 1 -1 1 0 0 Z " fill="#000000" transform="translate(394,323)"/>
<path d="M0 0 C0.99 0.66 1.98 1.32 3 2 C2.01 4.97 1.02 7.94 0 11 C-0.99 11 -1.98 11 -3 11 C-2.69078116 9.54096742 -2.37751201 8.08279278 -2.0625 6.625 C-1.88847656 5.81289063 -1.71445312 5.00078125 -1.53515625 4.1640625 C-1 2 -1 2 0 0 Z " fill="#000000" transform="translate(400,304)"/>
<path d="M0 0 C0.66 0 1.32 0 2 0 C1.53199289 4.05606165 1.12046792 7.46588679 -1 11 C-1.66 11 -2.32 11 -3 11 C-2.53199289 6.94393835 -2.12046792 3.53411321 0 0 Z " fill="#000000" transform="translate(419,247)"/>
<path d="M0 0 C0.66 0.33 1.32 0.66 2 1 C1.34 3.97 0.68 6.94 0 10 C-1.32 10.33 -2.64 10.66 -4 11 C-3.5247412 9.35303396 -3.04468109 7.70745272 -2.5625 6.0625 C-2.29566406 5.14597656 -2.02882813 4.22945312 -1.75390625 3.28515625 C-1 1 -1 1 0 0 Z " fill="#000000" transform="translate(457,132)"/>
<path d="M0 0 C3.3 0.33 6.6 0.66 10 1 C10 1.99 10 2.98 10 4 C3.375 4.125 3.375 4.125 0 3 C0 2.01 0 1.02 0 0 Z " fill="#000000" transform="translate(340,632)"/>
<path d="M0 0 C0.99 0 1.98 0 3 0 C3 3.3 3 6.6 3 10 C2.01 10 1.02 10 0 10 C0 6.7 0 3.4 0 0 Z " fill="#000000" transform="translate(319,581)"/>
<path d="M0 0 C3.63 0.33 7.26 0.66 11 1 C10.67 1.99 10.34 2.98 10 4 C6.37 3.67 2.74 3.34 -1 3 C-0.67 2.01 -0.34 1.02 0 0 Z " fill="#000000" transform="translate(302,334)"/>
<path d="M0 0 C0.99 0.33 1.98 0.66 3 1 C2.01 3.97 1.02 6.94 0 10 C-0.99 10 -1.98 10 -3 10 C-2.69201674 8.51988629 -2.378482 7.04092675 -2.0625 5.5625 C-1.88847656 4.73878906 -1.71445312 3.91507813 -1.53515625 3.06640625 C-1 1 -1 1 0 0 Z " fill="#000000" transform="translate(444,171)"/>
<path d="M0 0 C0.99 0 1.98 0 3 0 C2.01 3.3 1.02 6.6 0 10 C-0.99 10 -1.98 10 -3 10 C-2.01 6.7 -1.02 3.4 0 0 Z " fill="#000000" transform="translate(450,152)"/>
<path d="M0 0 C0.66 0.33 1.32 0.66 2 1 C0.55922954 4.36179774 -1.24750021 6.59156268 -4 9 C-4.66 9 -5.32 9 -6 9 C-5.52797514 4.75177626 -3.03344482 2.80010291 0 0 Z " fill="#000000" transform="translate(428,580)"/>
<path d="M0 0 C0.99 0 1.98 0 3 0 C2.34 1.98 1.68 3.96 1 6 C0.34 6 -0.32 6 -1 6 C-0.67 4.02 -0.34 2.04 0 0 Z " fill="#000000" transform="translate(480,61)"/>
<path d="M0 0 C0.99 0.33 1.98 0.66 3 1 C2.01 2.32 1.02 3.64 0 5 C-0.99 4.67 -1.98 4.34 -3 4 C-2.01 2.68 -1.02 1.36 0 0 Z " fill="#000000" transform="translate(524,464)"/>
</svg>
