<?xml version="1.0" encoding="UTF-8"?>
<svg version="1.1" xmlns="http://www.w3.org/2000/svg" width="505" height="562">
<path d="M0 0 C35.56424555 30.85675761 58.8114527 70.74900147 72.23291016 115.51025391 C72.45430664 116.24646973 72.67570312 116.98268555 72.90380859 117.74121094 C79.59575937 140.61274608 81.59370975 164.81554508 83.23291016 188.51025391 C83.31968018 189.75572998 83.31968018 189.75572998 83.40820312 191.02636719 C83.77609492 196.51854408 84.0394343 202.00932917 84.23291016 207.51025391 C84.2615918 208.21375977 84.29027344 208.91726563 84.31982422 209.64208984 C85.94969406 254.22625087 78.15839342 305.47564238 58.23291016 345.51025391 C75.52253264 343.09614438 89.39092926 337.1549861 103.23291016 326.51025391 C103.96896484 325.95853516 104.70501953 325.40681641 105.46337891 324.83837891 C127.03900413 307.44007034 139.61768935 277.17567589 146.92041016 251.32275391 C148.48352369 246.05550162 149.84609755 242.5384624 154.47900391 239.41650391 C160.19771719 236.4616231 165.33105589 235.45927058 171.65478516 237.16259766 C179.60784432 239.97026854 184.88425764 244.26506502 188.60791016 251.88525391 C194.32476512 266.63523468 188.47890353 281.42686821 182.60400391 295.23681641 C174.10920239 314.47155123 163.85225294 330.35442148 149.23291016 345.51025391 C148.3536084 346.42242676 148.3536084 346.42242676 147.45654297 347.35302734 C139.7905253 355.25898297 132.06008029 362.88671018 123.23291016 369.51025391 C122.24162109 370.25662109 121.25033203 371.00298828 120.22900391 371.77197266 C98.75401384 387.2919348 72.63185274 396.80305548 46.13525391 398.05322266 C37.95857575 398.17430935 37.95857575 398.17430935 30.72509766 401.35791016 C29.0409965 403.74662238 29.0409965 403.74662238 27.76025391 406.47119141 C25.85894998 410.25434858 23.4299963 413.19690489 20.67041016 416.38525391 C20.15824951 416.97951172 19.64608887 417.57376953 19.1184082 418.18603516 C9.37975721 429.22526825 -2.28037993 437.82734832 -14.76708984 445.51025391 C-15.39309082 445.89810059 -16.0190918 446.28594727 -16.6640625 446.68554688 C-62.93955904 474.99205091 -115.56437067 476.11897294 -167.13671875 463.95117188 C-195.45752529 456.75185184 -225.13463586 439.99533321 -245.76708984 419.51025391 C-246.71068359 418.60404297 -247.65427734 417.69783203 -248.62646484 416.76416016 C-254.84384968 410.70993873 -260.4365942 404.35281116 -265.76708984 397.51025391 C-266.49541016 396.59888672 -267.22373047 395.68751953 -267.97412109 394.74853516 C-304.35027711 348.05199862 -313.89279696 289.2383768 -314.00732422 231.70751953 C-314.01703471 228.77689256 -314.04820602 225.8469681 -314.07958984 222.91650391 C-314.17590448 205.81605032 -312.86052789 188.66436723 -307.95458984 172.19775391 C-307.5666626 170.84387573 -307.5666626 170.84387573 -307.17089844 169.46264648 C-299.43234651 142.92142886 -288.32955972 111.83438009 -262.76708984 97.51025391 C-255.09544362 94.12357832 -248.17088876 92.34547354 -239.76708984 92.51025391 C-239.67427734 90.59212891 -239.67427734 90.59212891 -239.57958984 88.63525391 C-236.32133067 57.32954751 -218.19853313 24.92479092 -196.76708984 2.51025391 C-196.15736328 1.83736328 -195.54763672 1.16447266 -194.91943359 0.47119141 C-145.92275291 -51.75032389 -51.26455354 -43.2186109 0 0 Z M-198.32617188 12.39746094 C-203.93340113 18.95809794 -208.53290186 25.98655732 -212.76708984 33.51025391 C-213.12512695 34.13351563 -213.48316406 34.75677734 -213.85205078 35.39892578 C-224.55396034 54.12958796 -233.71897339 75.70943164 -234.76708984 97.51025391 C-235.78287109 97.59662109 -236.79865234 97.68298828 -237.84521484 97.77197266 C-252.32635422 99.17610801 -264.31615436 103.10134101 -274.22802734 114.28759766 C-288.3384396 131.44655577 -296.37209826 151.79674487 -302.07958984 173.07275391 C-302.3099292 173.92039307 -302.54026855 174.76803223 -302.77758789 175.64135742 C-307.27443083 193.36964503 -308.24431428 210.85416199 -308.07958984 229.07275391 C-308.07399048 230.17109558 -308.06839111 231.26943726 -308.06262207 232.40106201 C-307.74428073 294.48552522 -295.55285195 356.50569302 -252.36523438 403.75634766 C-250.79263377 405.48222036 -249.24493321 407.2277623 -247.70068359 408.97900391 C-237.17968937 420.80209291 -225.57516921 429.86126657 -211.76708984 437.51025391 C-211.03570801 437.91775879 -210.30432617 438.32526367 -209.55078125 438.74511719 C-166.04297764 462.79888906 -113.14078887 474.01363716 -64.30371094 460.56054688 C-31.92313654 451.14244333 1.69826364 433.07829425 22.23291016 405.51025391 C22.71638916 404.59711426 23.19986816 403.68397461 23.69799805 402.74316406 C27.81305323 395.0935337 27.81305323 395.0935337 31.87280273 393.42578125 C35.03810658 392.9225724 38.09194004 392.72830955 41.29541016 392.63525391 C43.62816619 392.46661105 45.96022437 392.28805203 48.29150391 392.10009766 C49.45665527 392.01356934 50.62180664 391.92704102 51.82226562 391.83789062 C82.16565941 388.92301343 108.83373176 374.97153224 130.95947266 354.60009766 C133.07921228 352.65153976 135.23774485 350.76268058 137.42041016 348.88525391 C144.84699098 342.37956911 151.12626971 335.27077614 157.23291016 327.51025391 C157.89291016 326.69041016 158.55291016 325.87056641 159.23291016 325.02587891 C168.17684736 313.41318625 174.48612221 300.06941016 179.73291016 286.44775391 C180.05904297 285.60422363 180.38517578 284.76069336 180.72119141 283.89160156 C184.49120793 273.71055162 187.09909736 263.69572348 182.67041016 253.32275391 C179.80239376 248.16445104 175.62366632 244.61683576 169.99462891 242.77978516 C165.08815216 241.92390579 161.43744729 242.76413913 156.95947266 244.81884766 C154.21878165 247.50373274 153.38772361 250.94199772 152.23291016 254.51025391 C151.64611783 256.26040393 151.05885284 258.01039552 150.47119141 259.76025391 C150.16141357 260.6900708 149.85163574 261.6198877 149.5324707 262.57788086 C142.22349624 284.2914827 131.76312437 305.42701827 116.23291016 322.51025391 C115.57806641 323.23470703 114.92322266 323.95916016 114.24853516 324.70556641 C97.21273175 342.62723159 74.92353938 349.21780273 51.2890625 353.09301758 C49.18043598 353.42798754 49.18043598 353.42798754 47.23291016 354.51025391 C47.49918213 353.97360107 47.7654541 353.43694824 48.03979492 352.8840332 C83.17206829 281.67446083 88.23875193 189.50383291 65.23291016 113.51025391 C64.83265625 112.17341553 64.83265625 112.17341553 64.42431641 110.80957031 C54.77343687 79.05748399 39.0985456 51.39425958 17.23291016 26.51025391 C16.66701172 25.83349609 16.10111328 25.15673828 15.51806641 24.45947266 C-8.96166542 -4.62967432 -36.60020849 -19.88376852 -73.76708984 -26.48974609 C-75.02134766 -26.71662109 -76.27560547 -26.94349609 -77.56787109 -27.17724609 C-122.4258528 -33.99831195 -167.63270971 -22.04800339 -198.32617188 12.39746094 Z " fill="#000000" transform="translate(313.76708984375,59.48974609375)"/>
<path d="M0 0 C1.28003906 0.72703125 1.28003906 0.72703125 2.5859375 1.46875 C33.29312561 20.53602926 53.48864049 57.25359553 63 91 C63.38069061 92.32822006 63.76173542 93.65633864 64.14306641 94.984375 C70.37768322 116.79334179 75.722199 138.72374736 80 161 C80.18143555 161.94456055 80.36287109 162.88912109 80.54980469 163.86230469 C81.55089307 169.22277177 82.36078077 174.58470638 83 180 C83.10151367 180.8461084 83.20302734 181.6922168 83.30761719 182.56396484 C86.38796858 209.71867135 85.90090138 237.47850781 83.75 264.6875 C83.6955069 265.42441071 83.64101379 266.16132141 83.58486938 266.92056274 C82.56795972 280.23067215 79.11598168 292.01119611 73.8125 304.25 C73.27979492 305.50876953 73.27979492 305.50876953 72.73632812 306.79296875 C70.14925522 312.85074478 70.14925522 312.85074478 69 314 C34.34840217 314.31732232 2.69911099 301.99830165 -22.2734375 278.54296875 C-24.43375141 276.5281201 -26.61958981 274.5926018 -28.875 272.6875 C-83.03106151 225.25889955 -104.26213739 147.71499811 -109.80078125 78.06201172 C-111.67032926 49.32687554 -111.67032926 49.32687554 -106 36 C-105.73155273 35.36835937 -105.46310547 34.73671875 -105.18652344 34.0859375 C-97.21049317 15.78434867 -85.76533823 1.43131721 -66.98828125 -6.5234375 C-44.54161395 -15.28176904 -20.51508628 -11.72290645 0 0 Z M-88 16 C-104.0909248 35.90399735 -105.801103 58.65852087 -103.3515625 83.34765625 C-97.26006578 136.46495165 -84.61344342 192.92243276 -53 237 C-52.58008789 237.58668457 -52.16017578 238.17336914 -51.72753906 238.77783203 C-44.29920349 249.02731144 -36.00935535 258.90601183 -26.26953125 267.0390625 C-24.41913041 268.63785979 -22.65044615 270.2694033 -20.88671875 271.9609375 C4.69976479 296.4622638 30.28376759 303.4098421 65 308 C66.2800203 305.37915083 67.5489937 302.75380121 68.8125 300.125 C69.16892578 299.39796875 69.52535156 298.6709375 69.89257812 297.921875 C74.23524698 288.83812731 76.39807169 280.21483459 77.125 270.1875 C77.19847656 269.29224609 77.27195312 268.39699219 77.34765625 267.47460938 C77.49847904 265.61578464 77.64214489 263.75636777 77.77929688 261.89648438 C77.92652724 259.96424864 78.08931918 258.03313618 78.26757812 256.10351562 C83.74462371 194.35869242 74.78796629 114.81090271 43.98242188 59.76025391 C43.00837473 58.01500543 42.07424326 56.24767474 41.140625 54.48046875 C27.38820318 29.16351041 7.40526 6.63077295 -20.26953125 -3.15625 C-44.48878299 -9.736575 -71.32740181 -2.9779451 -88 16 Z " fill="#000000" transform="translate(242,78)"/>
<path d="M0 0 C1.4375 2.59765625 1.4375 2.59765625 3 6.0625 C14.23839876 29.70367733 33.24481759 50.27614731 50.73120117 69.49633789 C52.15892397 71.07185681 53.57959148 72.65382697 54.98999023 74.24487305 C60.44066999 80.38259706 66.09846351 86.2847289 71.90136719 92.08666992 C73.3720641 93.55955972 74.83453534 95.04030265 76.296875 96.52148438 C81.80845839 102.06511789 87.51247168 107.22153123 93.62841797 112.10327148 C96.29101954 114.23274972 98.82446531 116.48836082 101.375 118.75 C133.24459578 145.20545596 175.16588691 159.32767037 216 163 C210.43279897 178.30980283 195.01217816 188.55186975 181.03125 195.46875 C160.7731351 204.39974689 138.24912447 207.45482057 117.125 199.62890625 C101.04046034 193.19709344 86.73693329 183.6402188 74 172 C72.8532675 170.97350805 71.70612247 169.94747678 70.55859375 168.921875 C65.3479095 164.22658979 60.28526603 159.48945903 55.78515625 154.09375 C53.55127136 151.4737012 51.17716489 149.00257564 48.8125 146.5 C30.89892401 127.16066861 20.12748551 105.8516479 12.3125 80.8125 C12.10778076 80.15955963 11.90306152 79.50661926 11.69213867 78.83389282 C7.66272887 65.90620303 4.27585994 52.82361224 1 39.6875 C0.76262115 38.73743073 0.52524231 37.78736145 0.28067017 36.8085022 C-6.37887568 10.04020543 -6.37887568 10.04020543 -6 0 C-3 -1 -3 -1 0 0 Z M3 20 C4.39738919 28.44682443 6.30108783 36.71138341 8.4375 45 C8.60618591 45.65475311 8.77487183 46.30950623 8.94866943 46.98410034 C11.87336084 58.27010573 15.15230594 69.43380436 18.625 80.5625 C18.84848114 81.28590576 19.07196228 82.00931152 19.30221558 82.75463867 C23.16897199 95.22119351 27.21992399 107.92901016 34.8125 118.6875 C35.24062988 119.31068115 35.66875977 119.9338623 36.10986328 120.57592773 C40.10251974 126.30865191 44.45957899 131.69291774 49 137 C49.8788886 138.06274116 50.75643271 139.12659527 51.6328125 140.19140625 C72.09424309 164.83748359 101.26451245 194.49501428 135 198 C155.54022018 199.3115762 178.35844896 193.78691918 194.37890625 180.24609375 C198.65272413 176.45289881 202.61502676 172.62809453 206 168 C205.42894531 167.91548584 204.85789062 167.83097168 204.26953125 167.74389648 C180.9619696 164.20746498 159.35992304 158.00022762 138 148 C137.26281738 147.6582373 136.52563477 147.31647461 135.76611328 146.96435547 C103.33565336 131.79753997 74.01846144 106.28749069 50.8671875 79.1484375 C48.97209185 76.96788811 47.02046164 74.8460471 45.05493164 72.72900391 C39.44468588 66.68101146 34.15700011 60.44199519 29 54 C28.06595097 52.85738016 27.13100906 51.71548981 26.1953125 50.57421875 C20.08520986 43.08060213 14.33492252 35.41080102 8.83276367 27.45849609 C8.35943604 26.77480957 7.8861084 26.09112305 7.3984375 25.38671875 C6.98255371 24.78045654 6.56666992 24.17419434 6.13818359 23.54956055 C4.94752233 21.84665919 4.94752233 21.84665919 3 20 Z " fill="#000000" transform="translate(80,287)"/>
<path d="M0 0 C1.32 0 2.64 0 4 0 C4.51046875 1.15113281 5.0209375 2.30226563 5.546875 3.48828125 C13.01005075 19.96596705 21.92037441 35.45152701 34 49 C34.76183594 49.85851562 35.52367187 50.71703125 36.30859375 51.6015625 C37.82664687 53.29625249 39.35244381 54.98404469 40.88671875 56.6640625 C42.78442317 58.7617099 44.6134993 60.90103782 46.4375 63.0625 C74.1614415 94.54137714 119.34264778 115.14976011 161 118 C191.90831738 119.12005792 221.59222845 116.2287901 251 106 C249.03617993 104.49440461 247.21736634 103.10868317 245 102 C245.33 100.68 245.66 99.36 246 98 C251.47932789 99.54545146 256.11429181 102.15543212 261 105 C259.36041242 110.23272633 257.61047965 115.15196636 255 120 C253.68 119.67 252.36 119.34 251 119 C252.875 113.25 252.875 113.25 254 111 C248.06199821 112.47860177 242.12689171 113.96526126 236.203125 115.5 C192.53370807 126.63427945 146.96688487 126.77922812 105 109 C104.32936523 108.71817871 103.65873047 108.43635742 102.96777344 108.14599609 C86.61682775 101.15884115 71.30447865 91.82378381 58 80 C56.83404297 78.99646484 56.83404297 78.99646484 55.64453125 77.97265625 C53.04676941 75.69696603 50.51682816 73.36504189 48 71 C47.44296387 70.47696289 46.88592773 69.95392578 46.31201172 69.41503906 C26.71142259 50.85271723 10.0158158 28.21628918 0 3 C0 2.01 0 1.02 0 0 Z " fill="#000000" transform="translate(11,431)"/>
<path d="M0 0 C1.32 0.33 2.64 0.66 4 1 C0.125 7.875 0.125 7.875 -1 9 C-0.1013623 8.93071289 0.79727539 8.86142578 1.72314453 8.79003906 C46.89384243 5.51485751 90.62785672 10.21018993 131 32 C131.61214355 32.32613281 132.22428711 32.65226562 132.85498047 32.98828125 C141.47467656 37.61000348 149.36974906 42.87585088 157 49 C157.77077881 49.61633301 157.77077881 49.61633301 158.55712891 50.24511719 C184.43114768 71.08122336 205.59464948 97.64328135 217.625 128.8125 C218.01510254 129.80817993 218.01510254 129.80817993 218.41308594 130.82397461 C219.6493482 134.20528341 220.42671527 136.58791589 219 140 C216 139 216 139 215.08374023 137.33618164 C214.82794189 136.61809326 214.57214355 135.90000488 214.30859375 135.16015625 C214.00904785 134.35336426 213.70950195 133.54657227 213.40087891 132.71533203 C213.08296387 131.83989746 212.76504883 130.96446289 212.4375 130.0625 C206.4213231 114.33243971 198.20559681 100.35854542 188 87 C187.34128906 86.11699219 186.68257812 85.23398438 186.00390625 84.32421875 C171.13263468 65.2205775 152.76215946 50.21243231 132 38 C131.39462402 37.64164063 130.78924805 37.28328125 130.16552734 36.9140625 C91.83960161 14.5265879 44.59392836 8.92063699 1 14 C1.845625 14.7425 2.69125 15.485 3.5625 16.25 C4.366875 17.1575 5.17125 18.065 6 19 C5.8125 21.3125 5.8125 21.3125 5 23 C0.16459904 20.38888348 -3.87103901 17.62542917 -8 14 C-7.46719784 9.77510398 -6.12321801 7.45919284 -3.4375 4.1875 C-2.47650391 3.00220703 -2.47650391 3.00220703 -1.49609375 1.79296875 C-1.00238281 1.20128906 -0.50867188 0.60960938 0 0 Z " fill="#000000" transform="translate(188,0)"/>
<path d="M0 0 C0.99 0 1.98 0 3 0 C3.31710938 1.2375 3.63421875 2.475 3.9609375 3.75 C13.80425588 40.80549438 30.86315879 71.80730284 64.65917969 91.55371094 C75.18732057 97.54620102 85.86604223 103.21029741 97 108 C96.67 106.02 96.34 104.04 96 102 C96.99 102 97.98 102 99 102 C99.50615298 103.26839526 100.00469099 104.53983102 100.5 105.8125 C100.7784375 106.52019531 101.056875 107.22789062 101.34375 107.95703125 C102 110 102 110 102 113 C100.73160474 113.50615298 99.46016898 114.00469099 98.1875 114.5 C97.47980469 114.7784375 96.77210938 115.056875 96.04296875 115.34375 C94 116 94 116 91 116 C91 115.01 91 114.02 91 113 C92.32 112.34 93.64 111.68 95 111 C94.38705078 110.71390869 93.77410156 110.42781738 93.14257812 110.13305664 C75.31790269 101.78565581 58.17445941 93.66498809 43 81 C42.04351562 80.20851563 41.08703125 79.41703125 40.1015625 78.6015625 C18.67370673 60.05476297 2.30475351 28.31062888 0 0 Z " fill="#000000" transform="translate(159,234)"/>
<path d="M0 0 C3.18961148 1.91376689 4.25364903 4.82439267 5.875 8.125 C5.875 8.785 5.875 9.445 5.875 10.125 C3.9375 9.75 3.9375 9.75 1.875 9.125 C1.38 8.135 1.38 8.135 0.875 7.125 C0.63555664 7.66592285 0.39611328 8.2068457 0.14941406 8.76416016 C-0.93919256 11.21905766 -2.03142179 13.67231317 -3.125 16.125 C-3.46982422 16.8994043 -3.81464844 17.67380859 -4.16992188 18.47167969 C-8.62922016 28.40605213 -13.08368501 37.71340984 -20.125 46.125 C-20.84558594 47.00671875 -21.56617188 47.8884375 -22.30859375 48.796875 C-26.78138098 54.0370902 -31.65659729 59.3916979 -38.125 62.125 C-40.38671875 61.76953125 -40.38671875 61.76953125 -42.125 61.125 C-40.06212783 58.96088257 -37.94208539 57.21850453 -35.5 55.5 C-18.72426984 42.93356477 -10.14997769 24.3970627 -3.125 5.125 C-5.105 5.785 -7.085 6.445 -9.125 7.125 C-9 5.3125 -9 5.3125 -8.125 3.125 C-5.38998357 1.36243386 -3.27791852 0.19281874 0 0 Z " fill="#000000" transform="translate(447.125,304.875)"/>
<path d="M0 0 C1.4540625 0.0309375 1.4540625 0.0309375 2.9375 0.0625 C5.0625 4.6875 5.0625 4.6875 3.9375 8.0625 C4.26300502 9.73071323 4.59596063 11.39749557 4.9375 13.0625 C4.6075 13.7225 4.2775 14.3825 3.9375 15.0625 C1.125 15.9375 1.125 15.9375 -2.0625 16.0625 C-4.4375 14.125 -4.4375 14.125 -6.0625 12.0625 C-2.43923261 10.8547442 -1.42103631 11.51938872 1.9375 13.0625 C1.9375 11.7425 1.9375 10.4225 1.9375 9.0625 C0.6175 9.0625 -0.7025 9.0625 -2.0625 9.0625 C-2.0625 8.0725 -2.0625 7.0825 -2.0625 6.0625 C-0.7425 6.0625 0.5775 6.0625 1.9375 6.0625 C1.6075 5.0725 1.2775 4.0825 0.9375 3.0625 C-1.0425 3.7225 -3.0225 4.3825 -5.0625 5.0625 C-3.9375 0.08035714 -3.9375 0.08035714 0 0 Z " fill="#000000" transform="translate(229.0625,277.9375)"/>
<path d="M0 0 C3.0625 0.1875 3.0625 0.1875 5.0625 2.1875 C4.90004442 5.92397845 4.47466356 7.71288742 2 10.5625 C1.360625 11.09875 0.72125 11.635 0.0625 12.1875 C1.7125 12.5175 3.3625 12.8475 5.0625 13.1875 C5.0625 13.8475 5.0625 14.5075 5.0625 15.1875 C1.7625 15.1875 -1.5375 15.1875 -4.9375 15.1875 C-2.9375 11.1875 -2.9375 11.1875 -0.8125 8.625 C1.36735538 6.30372611 1.36735538 6.30372611 1.0625 3.1875 C0.4025 3.1875 -0.2575 3.1875 -0.9375 3.1875 C-1.2675 3.8475 -1.5975 4.5075 -1.9375 5.1875 C-2.9275 5.1875 -3.9175 5.1875 -4.9375 5.1875 C-3.82120474 0.24390669 -3.82120474 0.24390669 0 0 Z " fill="#000000" transform="translate(379.9375,26.8125)"/>
<path d="M0 0 C0.99 0 1.98 0 3 0 C3 3.3 3 6.6 3 10 C3.66 10 4.32 10 5 10 C5 10.66 5 11.32 5 12 C4.34 12 3.68 12 3 12 C3 12.99 3 13.98 3 15 C2.34 15 1.68 15 1 15 C1 14.01 1 13.02 1 12 C-1.31 12 -3.62 12 -6 12 C-5.56629155 7.2292071 -3.35665609 3.36635741 0 0 Z M0 4 C-0.99 5.98 -1.98 7.96 -3 10 C-1.68 10 -0.36 10 1 10 C1 8.02 1 6.04 1 4 C0.67 4 0.34 4 0 4 Z " fill="#000000" transform="translate(427,316)"/>
<path d="M0 0 C0.99 0.33 1.98 0.66 3 1 C3 2.32 3 3.64 3 5 C3.33 5.66 3.66 6.32 4 7 C3.00390625 9.1640625 3.00390625 9.1640625 1.5625 11.625 C1.08941406 12.44226563 0.61632812 13.25953125 0.12890625 14.1015625 C-0.24363281 14.72804688 -0.61617188 15.35453125 -1 16 C-1.66 15.67 -2.32 15.34 -3 15 C-2.95875 14.21625 -2.9175 13.4325 -2.875 12.625 C-2.71271266 9.83883881 -2.71271266 9.83883881 -5 8 C-3.35 5.36 -1.7 2.72 0 0 Z " fill="#000000" transform="translate(115,107)"/>
<path d="M0 0 C2 1 2 1 3 3.625 C3 8.09015738 1.32683964 9.54441933 -1.65234375 12.6796875 C-2.09707031 13.11539063 -2.54179687 13.55109375 -3 14 C-3.99 13.34 -4.98 12.68 -6 12 C-6 7.58116545 -4.86839604 4.94501922 -1.875 1.6875 C-1.25625 1.130625 -0.6375 0.57375 0 0 Z " fill="#000000" transform="translate(138,75)"/>
<path d="M0 0 C0.66 1.98 1.32 3.96 2 6 C0.90716423 7.03295436 -0.19970579 8.05107835 -1.3125 9.0625 C-1.92738281 9.63097656 -2.54226562 10.19945313 -3.17578125 10.78515625 C-3.77777344 11.18605469 -4.37976563 11.58695313 -5 12 C-5.99 11.67 -6.98 11.34 -8 11 C-8 9 -8 7 -8 5 C-2.65116279 0 -2.65116279 0 0 0 Z " fill="#000000" transform="translate(154,62)"/>
<path d="M0 0 C2 1 2 1 2.9375 3.5625 C3.02585143 8.42182881 0.80473177 11.17624803 -2 15 C-2.99 14.67 -3.98 14.34 -5 14 C-5 7.73360381 -4.21177901 4.75523436 0 0 Z " fill="#000000" transform="translate(126,90)"/>
<path d="M0 0 C0.99 0 1.98 0 3 0 C2.125 4.75 2.125 4.75 1 7 C2.32 7 3.64 7 5 7 C5 7.99 5 8.98 5 10 C-1.4 11.35384615 -1.4 11.35384615 -4.4375 9.5625 C-4.953125 9.046875 -5.46875 8.53125 -6 8 C-5.67 7.34 -5.34 6.68 -5 6 C-4.01 6 -3.02 6 -2 6 C-1.34 4.02 -0.68 2.04 0 0 Z " fill="#000000" transform="translate(331,423)"/>
<path d="M0 0 C0 4.95 0 9.9 0 15 C-0.99 15 -1.98 15 -3 15 C-3 11.37 -3 7.74 -3 4 C-3.99 4.33 -4.98 4.66 -6 5 C-5.625 3.0625 -5.625 3.0625 -5 1 C-3 0 -3 0 0 0 Z " fill="#000000" transform="translate(84,542)"/>
<path d="M0 0 C0 4.95 0 9.9 0 15 C-0.99 15 -1.98 15 -3 15 C-3 11.37 -3 7.74 -3 4 C-3.99 4.33 -4.98 4.66 -6 5 C-5.625 3.0625 -5.625 3.0625 -5 1 C-3 0 -3 0 0 0 Z " fill="#000000" transform="translate(413,316)"/>
<path d="M0 0 C0 4.95 0 9.9 0 15 C-0.99 15 -1.98 15 -3 15 C-3 11.37 -3 7.74 -3 4 C-3.99 4.33 -4.98 4.66 -6 5 C-5.625 3.0625 -5.625 3.0625 -5 1 C-3 0 -3 0 0 0 Z " fill="#000000" transform="translate(216,278)"/>
<path d="M0 0 C0 4.95 0 9.9 0 15 C-0.99 15 -1.98 15 -3 15 C-3 11.37 -3 7.74 -3 4 C-3.99 4.33 -4.98 4.66 -6 5 C-5.625 3.0625 -5.625 3.0625 -5 1 C-3 0 -3 0 0 0 Z " fill="#000000" transform="translate(367,27)"/>
<path d="M0 0 C0 4.95 0 9.9 0 15 C-0.66 15 -1.32 15 -2 15 C-2.33 11.37 -2.66 7.74 -3 4 C-3.99 4.33 -4.98 4.66 -6 5 C-6 4.01 -6 3.02 -6 2 C-3 0 -3 0 0 0 Z " fill="#000000" transform="translate(96,542)"/>
<path d="M0 0 C0 0.66 0 1.32 0 2 C-1.42578125 3.32421875 -1.42578125 3.32421875 -3.3125 4.6875 C-3.92738281 5.14511719 -4.54226562 5.60273437 -5.17578125 6.07421875 C-5.77777344 6.37972656 -6.37976563 6.68523438 -7 7 C-7.99 6.67 -8.98 6.34 -10 6 C-10 4.68 -10 3.36 -10 2 C-3.375 -1.125 -3.375 -1.125 0 0 Z " fill="#000000" transform="translate(172,55)"/>
<path d="M0 0 C0.66 0.33 1.32 0.66 2 1 C0.51218185 4.78717347 -1.61988409 6.77407001 -5 9 C-5.99 8.67 -6.98 8.34 -8 8 C-5.58443874 4.80800833 -3.31996462 2.25283313 0 0 Z " fill="#000000" transform="translate(298,473)"/>
<path d="M0 0 C3 1 3 1 4.6875 4.375 C6 8 6 8 6 11 C5.01 11 4.02 11 3 11 C1.68 7.7 0.36 4.4 -1 1 C-0.67 0.67 -0.34 0.34 0 0 Z " fill="#000000" transform="translate(341,144)"/>
<path d="M0 0 C3 1 3 1 4.16796875 3.06640625 C4.50441406 3.89011719 4.84085937 4.71382812 5.1875 5.5625 C5.53167969 6.38878906 5.87585938 7.21507812 6.23046875 8.06640625 C6.48441406 8.70449219 6.73835938 9.34257812 7 10 C6.01 10.33 5.02 10.66 4 11 C2.35 7.7 0.7 4.4 -1 1 C-0.67 0.67 -0.34 0.34 0 0 Z " fill="#000000" transform="translate(332,126)"/>
<path d="M0 0 C7.625 0.875 7.625 0.875 11 2 C11 2.99 11 3.98 11 5 C7.37 4.34 3.74 3.68 0 3 C0 2.01 0 1.02 0 0 Z " fill="#000000" transform="translate(174,500)"/>
<path d="M0 0 C-1 3 -1 3 -4.375 4.6875 C-8 6 -8 6 -11 6 C-11 5.01 -11 4.02 -11 3 C-4.5 0 -4.5 0 0 0 Z " fill="#000000" transform="translate(266,497)"/>
<path d="M0 0 C3.43595166 1.52708963 6.11912454 3.59927045 9 6 C8.67 6.99 8.34 7.98 8 9 C3.7257442 7.4169423 1.73468206 4.49431596 -1 1 C-0.67 0.67 -0.34 0.34 0 0 Z " fill="#000000" transform="translate(104,460)"/>
<path d="M0 0 C0 0.99 0 1.98 0 3 C-1.28913487 3.67154933 -2.58140204 4.33708859 -3.875 5 C-4.59429687 5.37125 -5.31359375 5.7425 -6.0546875 6.125 C-8 7 -8 7 -10 7 C-9.875 5.1875 -9.875 5.1875 -9 3 C-5.79116175 1.04679411 -3.7794561 0 0 0 Z " fill="#000000" transform="translate(413,413)"/>
<path d="M0 0 C0.99 0.33 1.98 0.66 3 1 C3.94921875 3.06640625 3.94921875 3.06640625 4.6875 5.5625 C4.93886719 6.38878906 5.19023438 7.21507812 5.44921875 8.06640625 C5.63097656 8.70449219 5.81273438 9.34257812 6 10 C5.01 10.33 4.02 10.66 3 11 C1.68 7.7 0.36 4.4 -1 1 C-0.67 0.67 -0.34 0.34 0 0 Z " fill="#000000" transform="translate(70,409)"/>
<path d="M0 0 C0.99 0 1.98 0 3 0 C6 6.5 6 6.5 6 11 C5.01 11 4.02 11 3 11 C2.01 7.37 1.02 3.74 0 0 Z " fill="#000000" transform="translate(62,390)"/>
<path d="M0 0 C5.75 3.75 5.75 3.75 8 6 C8 6.99 8 7.98 8 9 C4.06326356 7.68775452 1.77280706 6.08089673 -1 3 C-0.67 2.01 -0.34 1.02 0 0 Z " fill="#000000" transform="translate(170,348)"/>
<path d="M0 0 C0.99 0.33 1.98 0.66 3 1 C3 4.3 3 7.6 3 11 C2.01 11.33 1.02 11.66 0 12 C0 8.04 0 4.08 0 0 Z " fill="#000000" transform="translate(51,309)"/>
<path d="M0 0 C1.32 0.33 2.64 0.66 4 1 C4.33 4.3 4.66 7.6 5 11 C4.01 10.67 3.02 10.34 2 10 C1.34 6.7 0.68 3.4 0 0 Z " fill="#000000" transform="translate(353,183)"/>
<path d="M0 0 C4.04131267 1.34710422 4.90288434 3.38428334 7 7 C7 7.99 7 8.98 7 10 C2.33845958 8.50164772 1.13389249 5.11536409 -1 1 C-0.67 0.67 -0.34 0.34 0 0 Z " fill="#000000" transform="translate(321,109)"/>
<path d="M0 0 C3.63 0 7.26 0 11 0 C11 0.99 11 1.98 11 3 C7.37 3 3.74 3 0 3 C0 2.01 0 1.02 0 0 Z " fill="#000000" transform="translate(215,506)"/>
<path d="M0 0 C0 0.99 0 1.98 0 3 C-3.63 3.66 -7.26 4.32 -11 5 C-11 4.01 -11 3.02 -11 2 C-3.375 0 -3.375 0 0 0 Z " fill="#000000" transform="translate(246,503)"/>
<path d="M0 0 C3.63 0.33 7.26 0.66 11 1 C11 1.99 11 2.98 11 4 C3.57142857 4.14285714 3.57142857 4.14285714 0 3 C0 2.01 0 1.02 0 0 Z " fill="#000000" transform="translate(194,504)"/>
<path d="M0 0 C-1.45124634 3.82601307 -3.35774704 5.22329124 -7 7 C-7.99 7 -8.98 7 -10 7 C-10 6.01 -10 5.02 -10 4 C-3.375 0 -3.375 0 0 0 Z " fill="#000000" transform="translate(284,487)"/>
<path d="M0 0 C7.71428571 4 7.71428571 4 9 8 C4.59885603 7.49701212 2.28804981 5.91227269 -1 3 C-0.67 2.01 -0.34 1.02 0 0 Z " fill="#000000" transform="translate(120,473)"/>
<path d="M0 0 C2.93200474 2.85276137 5.64315404 5.65079784 8 9 C6.68 9 5.36 9 4 9 C1.1875 6.1875 1.1875 6.1875 -1 3 C-0.67 2.01 -0.34 1.02 0 0 Z " fill="#000000" transform="translate(91,444)"/>
<path d="M0 0 C0.99 0.33 1.98 0.66 3 1 C0.525 5.455 0.525 5.455 -2 10 C-2.99 10 -3.98 10 -5 10 C-3.66511872 6.40608886 -2.03977277 3.24509304 0 0 Z " fill="#000000" transform="translate(322,441)"/>
<path d="M0 0 C3.63 0 7.26 0 11 0 C11 0.99 11 1.98 11 3 C7.37 3 3.74 3 0 3 C0 2.01 0 1.02 0 0 Z " fill="#000000" transform="translate(345,430)"/>
<path d="M0 0 C0 0.99 0 1.98 0 3 C-3.67410785 4.17571451 -7.16929183 4.07366746 -11 4 C-10.67 3.01 -10.34 2.02 -10 1 C-6.59437148 0.22157062 -3.49234244 -0.09978121 0 0 Z " fill="#000000" transform="translate(376,427)"/>
<path d="M0 0 C3.48331435 3.01887244 4.79157144 5.56909529 6 10 C5.01 10 4.02 10 3 10 C0.75 7.25 0.75 7.25 -1 4 C-0.75 1.625 -0.75 1.625 0 0 Z " fill="#000000" transform="translate(80,427)"/>
<path d="M0 0 C0 0.99 0 1.98 0 3 C-4.95 4.485 -4.95 4.485 -10 6 C-10.33 5.01 -10.66 4.02 -11 3 C-9.73160474 2.49384702 -8.46016898 1.99530901 -7.1875 1.5 C-6.12595703 1.08234375 -6.12595703 1.08234375 -5.04296875 0.65625 C-3 0 -3 0 0 0 Z " fill="#000000" transform="translate(395,421)"/>
<path d="M0 0 C4.455 1.98 4.455 1.98 9 4 C9 4.99 9 5.98 9 7 C5.04179141 6.43454163 2.3340947 5.19097652 -1 3 C-0.67 2.01 -0.34 1.02 0 0 Z " fill="#000000" transform="translate(251,405)"/>
<path d="M0 0 C3.66881155 0.70554068 6.70450534 2.27735506 10 4 C9.67 4.99 9.34 5.98 9 7 C5.40608886 5.66511872 2.24509304 4.03977277 -1 2 C-0.67 1.34 -0.34 0.68 0 0 Z " fill="#000000" transform="translate(233,396)"/>
<path d="M0 0 C0.99 0.33 1.98 0.66 3 1 C1.49776416 5.20626034 -1.28550034 6.73900021 -5 9 C-5 5 -5 5 -2.5 2.25 C-1.675 1.5075 -0.85 0.765 0 0 Z " fill="#000000" transform="translate(442,389)"/>
<path d="M0 0 C3.59391114 1.33488128 6.75490696 2.96022723 10 5 C9.67 5.99 9.34 6.98 9 8 C7.67968405 7.43457996 6.3688699 6.84693528 5.0625 6.25 C3.96615234 5.76273437 3.96615234 5.76273437 2.84765625 5.265625 C1 4 1 4 0.24609375 1.859375 C0.16488281 1.24578125 0.08367187 0.6321875 0 0 Z " fill="#000000" transform="translate(216,385)"/>
<path d="M0 0 C0.99 0 1.98 0 3 0 C2 7.42857143 2 7.42857143 1 11 C0.01 11 -0.98 11 -2 11 C-1 3.57142857 -1 3.57142857 0 0 Z " fill="#000000" transform="translate(345,384)"/>
<path d="M0 0 C0.99 0.66 1.98 1.32 3 2 C0.69 4.64 -1.62 7.28 -4 10 C-4.66 9.67 -5.32 9.34 -6 9 C-4.47291037 5.56404834 -2.40072955 2.88087546 0 0 Z " fill="#000000" transform="translate(456,374)"/>
<path d="M0 0 C0.66 0 1.32 0 2 0 C3.19287411 3.87684087 4 6.91621923 4 11 C3.01 11 2.02 11 1 11 C0.63890458 9.35567294 0.28629924 7.7094792 -0.0625 6.0625 C-0.25972656 5.14597656 -0.45695312 4.22945313 -0.66015625 3.28515625 C-0.77230469 2.53105469 -0.88445313 1.77695312 -1 1 C-0.67 0.67 -0.34 0.34 0 0 Z " fill="#000000" transform="translate(58,370)"/>
<path d="M0 0 C0.99 0 1.98 0 3 0 C2.85892253 1.45880109 2.71197585 2.91703551 2.5625 4.375 C2.48128906 5.18710937 2.40007812 5.99921875 2.31640625 6.8359375 C2 9 2 9 1 11 C0.01 11 -0.98 11 -2 11 C-1.85892253 9.54119891 -1.71197585 8.08296449 -1.5625 6.625 C-1.48128906 5.81289063 -1.40007812 5.00078125 -1.31640625 4.1640625 C-1 2 -1 2 0 0 Z " fill="#000000" transform="translate(358,324)"/>
<path d="M0 0 C0.99 0 1.98 0 3 0 C2.67 3.63 2.34 7.26 2 11 C1.01 11 0.02 11 -1 11 C-0.67 7.37 -0.34 3.74 0 0 Z " fill="#000000" transform="translate(360,304)"/>
<path d="M0 0 C0.99 0 1.98 0 3 0 C3 3.63 3 7.26 3 11 C2.01 11 1.02 11 0 11 C0 7.37 0 3.74 0 0 Z " fill="#000000" transform="translate(51,289)"/>
<path d="M0 0 C0.99 0 1.98 0 3 0 C3 3.63 3 7.26 3 11 C2.01 11 1.02 11 0 11 C0 7.37 0 3.74 0 0 Z " fill="#000000" transform="translate(362,263)"/>
<path d="M0 0 C0.99 0 1.98 0 3 0 C3 3.63 3 7.26 3 11 C2.01 11 1.02 11 0 11 C0 7.37 0 3.74 0 0 Z " fill="#000000" transform="translate(362,243)"/>
<path d="M0 0 C0.66 0 1.32 0 2 0 C3.19287411 3.87684087 4 6.91621923 4 11 C3.01 11 2.02 11 1 11 C0.63890458 9.35567294 0.28629924 7.7094792 -0.0625 6.0625 C-0.25972656 5.14597656 -0.45695312 4.22945312 -0.66015625 3.28515625 C-0.77230469 2.53105469 -0.88445312 1.77695313 -1 1 C-0.67 0.67 -0.34 0.34 0 0 Z " fill="#000000" transform="translate(105,229)"/>
<path d="M0 0 C0.99 0 1.98 0 3 0 C2.34 3.63 1.68 7.26 1 11 C0.01 11 -0.98 11 -2 11 C-1.85892253 9.54119891 -1.71197585 8.08296449 -1.5625 6.625 C-1.48128906 5.81289062 -1.40007812 5.00078125 -1.31640625 4.1640625 C-1 2 -1 2 0 0 Z " fill="#000000" transform="translate(103,150)"/>
<path d="M0 0 C2.96404505 2.80804268 5.44499019 5.18315774 7 9 C4 9 4 9 2.39453125 7.46875 C1.87246094 6.8190625 1.35039062 6.169375 0.8125 5.5 C0.28269531 4.8503125 -0.24710937 4.200625 -0.79296875 3.53125 C-1.19128906 3.0259375 -1.58960938 2.520625 -2 2 C-1.34 1.34 -0.68 0.68 0 0 Z " fill="#000000" transform="translate(309,93)"/>
<path d="M0 0 C1.34173403 0.92543709 2.67320159 1.86577405 4 2.8125 C5.11375 3.59560547 5.11375 3.59560547 6.25 4.39453125 C7.11625 5.18923828 7.11625 5.18923828 8 6 C8 6.99 8 7.98 8 9 C3.75177626 8.52797514 1.80010291 6.03344482 -1 3 C-0.67 2.01 -0.34 1.02 0 0 Z " fill="#000000" transform="translate(294,79)"/>
<path d="M0 0 C3.63 0.33 7.26 0.66 11 1 C11 1.99 11 2.98 11 4 C7.37 3.67 3.74 3.34 0 3 C0 2.01 0 1.02 0 0 Z " fill="#000000" transform="translate(220,47)"/>
<path d="M0 0 C3.63 0 7.26 0 11 0 C11 0.99 11 1.98 11 3 C7.37 3 3.74 3 0 3 C0 2.01 0 1.02 0 0 Z " fill="#000000" transform="translate(200,46)"/>
<path d="M0 0 C3.63 1.32 7.26 2.64 11 4 C10.67 4.66 10.34 5.32 10 6 C3.375 5.25 3.375 5.25 0 3 C0 2.01 0 1.02 0 0 Z " fill="#000000" transform="translate(155,493)"/>
<path d="M0 0 C3.3 1.65 6.6 3.3 10 5 C9.01 6.485 9.01 6.485 8 8 C5.03 6.35 2.06 4.7 -1 3 C-0.67 2.01 -0.34 1.02 0 0 Z " fill="#000000" transform="translate(137,484)"/>
<path d="M0 0 C3.63 0.66 7.26 1.32 11 2 C10.67 2.99 10.34 3.98 10 5 C6.7 4.34 3.4 3.68 0 3 C0 2.01 0 1.02 0 0 Z " fill="#000000" transform="translate(306,426)"/>
<path d="M0 0 C3.9492568 0.55105909 7.34920174 1.38935371 11 3 C10.67 3.99 10.34 4.98 10 6 C8.5164999 5.57742724 7.03823576 5.13643678 5.5625 4.6875 C4.73878906 4.44386719 3.91507812 4.20023437 3.06640625 3.94921875 C2.04353516 3.47935547 2.04353516 3.47935547 1 3 C0.67 2.01 0.34 1.02 0 0 Z " fill="#000000" transform="translate(268,414)"/>
<path d="M0 0 C0.99 0 1.98 0 3 0 C2.01 3.3 1.02 6.6 0 10 C-0.99 10 -1.98 10 -3 10 C-2.49287967 6.28111761 -1.88391785 3.26545761 0 0 Z " fill="#000000" transform="translate(339,404)"/>
<path d="M0 0 C0.99 0.33 1.98 0.66 3 1 C0.19195732 3.96404505 -2.18315774 6.44499019 -6 8 C-6 6.68 -6 5.36 -6 4 C-3.1875 1.6875 -3.1875 1.6875 0 0 Z " fill="#000000" transform="translate(427,402)"/>
<path d="M0 0 C6.57142857 4 6.57142857 4 8 8 C3.61031544 8 2.23094261 5.87194899 -1 3 C-0.67 2.01 -0.34 1.02 0 0 Z " fill="#000000" transform="translate(185,361)"/>
<path d="M0 0 C0.66 0.33 1.32 0.66 2 1 C0.7508258 4.45925163 -0.67527795 7.14693203 -3 10 C-3.99 9.67 -4.98 9.34 -6 9 C-4.02 6.03 -2.04 3.06 0 0 Z " fill="#000000" transform="translate(468,358)"/>
<path d="M0 0 C0.99 0.33 1.98 0.66 3 1 C3.33 4.3 3.66 7.6 4 11 C3.01 11 2.02 11 1 11 C-0.28317892 7.15046324 -0.06643637 4.05261865 0 0 Z " fill="#000000" transform="translate(54,350)"/>
<path d="M0 0 C0.66 0 1.32 0 2 0 C2.14285714 7.42857143 2.14285714 7.42857143 1 11 C0.01 11 -0.98 11 -2 11 C-1.85957123 9.35369672 -1.71250671 7.70795821 -1.5625 6.0625 C-1.48128906 5.14597656 -1.40007812 4.22945313 -1.31640625 3.28515625 C-1 1 -1 1 0 0 Z " fill="#000000" transform="translate(355,344)"/>
<path d="M0 0 C3.36591866 1.44253657 5.51047079 3.33264727 8 6 C7.67 6.99 7.34 7.98 7 9 C2.79373966 7.49776416 1.26099979 4.71449966 -1 1 C-0.67 0.67 -0.34 0.34 0 0 Z " fill="#000000" transform="translate(156,335)"/>
<path d="M0 0 C3 1 3 1 4.6875 3.875 C6 7 6 7 6 10 C5.01 10 4.02 10 3 10 C1.68 7.03 0.36 4.06 -1 1 C-0.67 0.67 -0.34 0.34 0 0 Z " fill="#000000" transform="translate(124,286)"/>
<path d="M0 0 C0.99 0 1.98 0 3 0 C3 3.63 3 7.26 3 11 C2.01 10.67 1.02 10.34 0 10 C0 6.7 0 3.4 0 0 Z " fill="#000000" transform="translate(361,284)"/>
<path d="M0 0 C0.99 0 1.98 0 3 0 C3 3.3 3 6.6 3 10 C2.01 10.33 1.02 10.66 0 11 C0 7.37 0 3.74 0 0 Z " fill="#000000" transform="translate(52,269)"/>
<path d="M0 0 C1.890625 0.21484375 1.890625 0.21484375 4 1 C5.046875 3.06640625 5.046875 3.06640625 5.75 5.5625 C5.99234375 6.38878906 6.2346875 7.21507812 6.484375 8.06640625 C6.65453125 8.70449219 6.8246875 9.34257812 7 10 C5.109375 9.78515625 5.109375 9.78515625 3 9 C1.953125 6.93359375 1.953125 6.93359375 1.25 4.4375 C1.00765625 3.61121094 0.7653125 2.78492188 0.515625 1.93359375 C0.34546875 1.29550781 0.1753125 0.65742188 0 0 Z " fill="#000000" transform="translate(115,268)"/>
<path d="M0 0 C0.99 0 1.98 0 3 0 C3.99 3.3 4.98 6.6 6 10 C5.01 10.33 4.02 10.66 3 11 C2.49384702 9.73160474 1.99530901 8.46016898 1.5 7.1875 C1.2215625 6.47980469 0.943125 5.77210938 0.65625 5.04296875 C0 3 0 3 0 0 Z " fill="#000000" transform="translate(109,249)"/>
<path d="M0 0 C0.99 0 1.98 0 3 0 C4.17571451 3.67410785 4.07366746 7.16929183 4 11 C3.01 11 2.02 11 1 11 C0.67 7.37 0.34 3.74 0 0 Z " fill="#000000" transform="translate(360,223)"/>
<path d="M0 0 C0.99 0 1.98 0 3 0 C3.33 3.3 3.66 6.6 4 10 C3.01 10.33 2.02 10.66 1 11 C0.67 7.37 0.34 3.74 0 0 Z " fill="#000000" transform="translate(101,210)"/>
<path d="M0 0 C0.99 0.33 1.98 0.66 3 1 C1.68 4.3 0.36 7.6 -1 11 C-1.99 10.34 -2.98 9.68 -4 9 C-2.68 6.03 -1.36 3.06 0 0 Z " fill="#000000" transform="translate(81,176)"/>
<path d="M0 0 C0.66 0 1.32 0 2 0 C3.19287411 3.87684087 4 6.91621923 4 11 C3.01 10.67 2.02 10.34 1 10 C0.234375 7.96875 0.234375 7.96875 -0.25 5.5 C-0.42015625 4.6853125 -0.5903125 3.870625 -0.765625 3.03125 C-0.84296875 2.3609375 -0.9203125 1.690625 -1 1 C-0.67 0.67 -0.34 0.34 0 0 Z " fill="#000000" transform="translate(349,163)"/>
<path d="M0 0 C3.48624056 0.6456001 6.12498789 1.92360237 9 4 C9 4.99 9 5.98 9 7 C5.00544473 6.38545304 2.25533664 4.29353263 -1 2 C-0.67 1.34 -0.34 0.68 0 0 Z " fill="#000000" transform="translate(277,68)"/>
<path d="M0 0 C0 0.66 0 1.32 0 2 C-3.63 2.66 -7.26 3.32 -11 4 C-11 3.01 -11 2.02 -11 1 C-3.57142857 -1.42857143 -3.57142857 -1.42857143 0 0 Z " fill="#000000" transform="translate(191,48)"/>
<path d="M0 0 C0.66 0.33 1.32 0.66 2 1 C0.64978174 5.41889613 -1.26115668 7.34345343 -5 10 C-5 4.69520066 -3.4637943 3.81017373 0 0 Z " fill="#000000" transform="translate(311,458)"/>
<path d="M0 0 C4.95 0.99 4.95 0.99 10 2 C10 2.99 10 3.98 10 5 C6.53058454 4.54177532 3.32604951 4.10868317 0 3 C0 2.01 0 1.02 0 0 Z " fill="#000000" transform="translate(287,421)"/>
<path d="M0 0 C3.87132028 0.57352893 6.08172796 2.48704352 9 5 C8.67 5.99 8.34 6.98 8 8 C6.6589523 7.24266726 5.32730219 6.46867264 4 5.6875 C2.88625 5.04361328 2.88625 5.04361328 1.75 4.38671875 C1.1725 3.92910156 0.595 3.47148437 0 3 C0 2.01 0 1.02 0 0 Z " fill="#000000" transform="translate(200,374)"/>
<path d="M0 0 C0.66 0.33 1.32 0.66 2 1 C1.125 8.75 1.125 8.75 0 11 C-0.99 11 -1.98 11 -3 11 C-2.69217504 9.35328588 -2.37860766 7.70764424 -2.0625 6.0625 C-1.88847656 5.14597656 -1.71445312 4.22945313 -1.53515625 3.28515625 C-1 1 -1 1 0 0 Z " fill="#000000" transform="translate(351,364)"/>
<path d="M0 0 C0.66 0 1.32 0 2 0 C3.20272819 2.40545638 3.10071472 3.94996953 3.0625 6.625 C3.05347656 7.44226563 3.04445312 8.25953125 3.03515625 9.1015625 C3.02355469 9.72804688 3.01195312 10.35453125 3 11 C2.01 11 1.02 11 0 11 C0 7.37 0 3.74 0 0 Z " fill="#000000" transform="translate(52,330)"/>
<path d="M0 0 C1.8125 0.1875 1.8125 0.1875 4 1 C6.14197494 3.90696599 7 5.35521088 7 9 C6.01 9 5.02 9 4 9 C0 2.25 0 2.25 0 0 Z " fill="#000000" transform="translate(132,304)"/>
<path d="M0 0 C0.99 0 1.98 0 3 0 C2.34 3.3 1.68 6.6 1 10 C0.01 10 -0.98 10 -2 10 C-1.54177532 6.53058454 -1.10868317 3.32604951 0 0 Z " fill="#000000" transform="translate(61,231)"/>
<path d="M0 0 C0.99 0.33 1.98 0.66 3 1 C3.33 3.97 3.66 6.94 4 10 C3.01 10.33 2.02 10.66 1 11 C-0.17571451 7.32589215 -0.07366746 3.83070817 0 0 Z " fill="#000000" transform="translate(358,203)"/>
<path d="M0 0 C0.66 0.33 1.32 0.66 2 1 C1.01 3.97 0.02 6.94 -1 10 C-1.99 10 -2.98 10 -4 10 C-3.43454163 6.04179141 -2.19097652 3.3340947 0 0 Z " fill="#000000" transform="translate(89,158)"/>
<path d="M0 0 C1.46015291 0.28241641 2.91809793 0.57626614 4.375 0.875 C5.18710938 1.03742187 5.99921875 1.19984375 6.8359375 1.3671875 C9 2 9 2 11 4 C10.34 4.66 9.68 5.32 9 6 C6.03 5.01 3.06 4.02 0 3 C0 2.01 0 1.02 0 0 Z " fill="#000000" transform="translate(240,51)"/>
<path d="M0 0 C0.99 0.33 1.98 0.66 3 1 C1.68 3.97 0.36 6.94 -1 10 C-1.99 10 -2.98 10 -4 10 C-3.29445932 6.33118845 -1.72264494 3.29549466 0 0 Z " fill="#000000" transform="translate(477,341)"/>
<path d="M0 0 C4.20626034 1.50223584 5.73900021 4.28550034 8 8 C6.68 8 5.36 8 4 8 C0 3.88888889 0 3.88888889 0 0 Z " fill="#000000" transform="translate(143,320)"/>
<path d="M0 0 C0.99 0 1.98 0 3 0 C2.34 3.3 1.68 6.6 1 10 C0.01 10 -0.98 10 -2 10 C-1.34 6.7 -0.68 3.4 0 0 Z " fill="#000000" transform="translate(56,250)"/>
<path d="M0 0 C0.99 0.33 1.98 0.66 3 1 C2.01 4.3 1.02 7.6 0 11 C-0.99 10.67 -1.98 10.34 -3 10 C-2.01 6.7 -1.02 3.4 0 0 Z " fill="#000000" transform="translate(67,212)"/>
<path d="M0 0 C0.66 0.33 1.32 0.66 2 1 C1.34 3.97 0.68 6.94 0 10 C-0.99 10 -1.98 10 -3 10 C-2.49287967 6.28111761 -1.88391785 3.26545761 0 0 Z " fill="#000000" transform="translate(74,194)"/>
<path d="M0 0 C0.66 0 1.32 0 2 0 C3.28317892 3.84953676 3.06643637 6.94738135 3 11 C2.01 11 1.02 11 0 11 C0 7.37 0 3.74 0 0 Z " fill="#000000" transform="translate(100,190)"/>
<path d="M0 0 C0.99 0 1.98 0 3 0 C3.125 7.625 3.125 7.625 2 11 C1.34 11 0.68 11 0 11 C0 7.37 0 3.74 0 0 Z " fill="#000000" transform="translate(100,170)"/>
<path d="M0 0 C0.99 0 1.98 0 3 0 C2.01 3.3 1.02 6.6 0 10 C-0.99 10 -1.98 10 -3 10 C-2.01 6.7 -1.02 3.4 0 0 Z " fill="#000000" transform="translate(108,131)"/>
<path d="M0 0 C0.99 0 1.98 0 3 0 C2.43697042 3.94120709 1.3208055 6.7508723 -1 10 C-1.66 10 -2.32 10 -3 10 C-2.39009109 6.44219804 -1.4216319 3.3171411 0 0 Z " fill="#000000" transform="translate(96,141)"/>
<path d="M0 0 C0.99 0 1.98 0 3 0 C1.84414715 3.91211733 0.64465038 6.8745041 -2 10 C-2.66 9.67 -3.32 9.34 -4 9 C-2.80100302 5.9168649 -1.52299523 2.93720508 0 0 Z " fill="#000000" transform="translate(105,124)"/>
<path d="M0 0 C3.48670834 1.1094072 6.77484237 2.26337666 10 4 C9.67 4.99 9.34 5.98 9 7 C4.545 5.02 4.545 5.02 0 3 C0 2.01 0 1.02 0 0 Z " fill="#000000" transform="translate(259,58)"/>
<path d="M0 0 C0.99 0.33 1.98 0.66 3 1 C2.34 2.65 1.68 4.3 1 6 C0.01 5.67 -0.98 5.34 -2 5 C-1.34 3.35 -0.68 1.7 0 0 Z " fill="#000000" transform="translate(483,327)"/>
<path d="M0 0 C0.99 0.33 1.98 0.66 3 1 C2.67 1.99 2.34 2.98 2 4 C1.01 3.01 0.02 2.02 -1 1 C-0.67 0.67 -0.34 0.34 0 0 Z " fill="#000000" transform="translate(87,554)"/>
<path d="M0 0 C0.99 0.33 1.98 0.66 3 1 C2.67 1.99 2.34 2.98 2 4 C1.01 3.01 0.02 2.02 -1 1 C-0.67 0.67 -0.34 0.34 0 0 Z " fill="#000000" transform="translate(416,328)"/>
<path d="M0 0 C0.99 0.33 1.98 0.66 3 1 C2.67 1.99 2.34 2.98 2 4 C1.01 3.01 0.02 2.02 -1 1 C-0.67 0.67 -0.34 0.34 0 0 Z " fill="#000000" transform="translate(219,290)"/>
<path d="M0 0 C0.99 0.33 1.98 0.66 3 1 C2.67 1.99 2.34 2.98 2 4 C1.01 3.01 0.02 2.02 -1 1 C-0.67 0.67 -0.34 0.34 0 0 Z " fill="#000000" transform="translate(370,39)"/>
</svg>
