<?xml version="1.0" encoding="UTF-8"?>
<svg version="1.1" xmlns="http://www.w3.org/2000/svg" width="552" height="533">
<path d="M0 0 C6.95211829 5.73752191 12.40514855 13.29721689 14.47265625 22.1875 C14.49705578 23.85398806 14.5005697 25.5210671 14.47265625 27.1875 C15.61927734 27.01621582 16.76589844 26.84493164 17.94726562 26.66845703 C22.32993639 26.01588982 26.71406652 25.37358255 31.09863281 24.73388672 C32.97207189 24.45920477 34.84514106 24.18198422 36.71777344 23.90185547 C58.96962134 20.57728057 80.99288058 18.82749689 103.49902344 18.87182617 C106.83952372 18.87499229 110.17913874 18.85136669 113.51953125 18.82617188 C133.33297253 18.76716904 153.40919171 19.99878137 172.66015625 25 C173.68713623 25.25716797 174.71411621 25.51433594 175.7722168 25.77929688 C184.01676591 27.91496831 191.74277433 30.60902489 199.47265625 34.1875 C201.04853516 34.87779297 201.04853516 34.87779297 202.65625 35.58203125 C219.53715825 43.3881073 231.67993716 56.93363074 238.47265625 74.1875 C245.36684124 93.38107418 242.85663219 113.16422232 239.08337402 132.75158691 C238.00097185 138.39812186 236.99581151 144.05845337 235.98828125 149.71875 C235.77753967 150.89874573 235.5667981 152.07874146 235.34967041 153.29449463 C227.04017179 200.37421983 221.26360668 248.44527805 218.47265625 296.1875 C218.41070572 297.21482742 218.41070572 297.21482742 218.34750366 298.26290894 C217.61253412 310.66194913 217.28626791 323.03098736 217.28735352 335.45141602 C217.28515447 338.25226793 217.26685392 341.05273198 217.24804688 343.85351562 C216.81307497 379.51008977 216.81307497 379.51008977 231.89550781 410.61962891 C237.78605154 415.6900875 241.71602618 416.63828297 249.3671875 416.5078125 C262.14454556 415.18989632 272.25498327 404.76700843 280.01757812 395.30419922 C321.71301175 342.11779559 338.93217891 274.49246195 353.50390625 209.83203125 C353.99739289 207.65948605 354.49096264 205.48695973 354.98461914 203.31445312 C355.92299363 199.18102466 356.83514405 195.04296509 357.73217773 190.90039062 C358.15401588 189.02326446 358.57658366 187.14630206 359 185.26953125 C359.17668213 184.41970169 359.35336426 183.56987213 359.53540039 182.69429016 C360.73254296 177.50270004 362.17865518 174.63868044 366.47265625 171.1875 C368.82780915 169.81703302 371.08597864 168.59585972 373.53515625 167.4375 C374.45264648 166.98310547 374.45264648 166.98310547 375.38867188 166.51953125 C382.24739056 163.1828573 388.52973071 161.93669872 396.03515625 163.8359375 C404.76527641 166.95003524 409.43510734 171.8247849 413.72265625 179.9375 C421.26098923 196.20655642 418.7669294 210.08023819 415.34765625 227.125 C415.11573074 228.29727142 415.11573074 228.29727142 414.87911987 229.4932251 C411.78021377 245.14695346 408.3221316 260.69983318 404.47265625 276.1875 C404.17810547 277.37907715 403.88355469 278.5706543 403.58007812 279.79833984 C396.34464189 308.7596189 387.8109128 337.95373096 375.47265625 365.1875 C375.03518066 366.15977539 374.59770508 367.13205078 374.14697266 368.13378906 C360.40050964 398.39798675 343.39663752 427.89492283 320.47265625 452.1875 C319.84359375 452.8578125 319.21453125 453.528125 318.56640625 454.21875 C315.12199564 457.78401712 311.69233956 460.53985557 307.47265625 463.1875 C306.01354261 464.24892816 304.55531092 465.31156913 303.09765625 466.375 C270.13336219 489.29816437 228.49020646 499.07027328 188.77832031 492.66845703 C158.57640009 487.17775036 130.79041296 473.19922619 108.47265625 452.1875 C107.55033203 451.36185547 107.55033203 451.36185547 106.609375 450.51953125 C76.19384332 422.20162245 67.2985425 371.42803786 65.47265625 332.1875 C64.66683082 303.44447874 65.04177362 274.75005412 68.47265625 246.1875 C68.56740234 245.39353821 68.66214844 244.59957642 68.75976562 243.78155518 C74.80239348 193.70648572 83.29323358 140.700049 103.47265625 94.1875 C87.51913833 93.89655438 71.64719382 94.80565309 55.72265625 95.6875 C51.76832052 95.90356612 47.81384654 96.11703446 43.85931396 96.32946777 C41.41735118 96.46100552 38.97549051 96.59445736 36.53375244 96.73010254 C34.87977448 96.82019592 34.87977448 96.82019592 33.19238281 96.91210938 C32.2296344 96.96540405 31.26688599 97.01869873 30.27496338 97.0736084 C27.3377644 97.19298229 24.41196913 97.19490664 21.47265625 97.1875 C21.38867395 98.12092256 21.30469166 99.05434511 21.21816444 100.0160532 C18.03329448 135.28384001 14.45213029 170.51123254 10.87314177 205.74063373 C10.36607871 210.73219793 9.85966312 215.72382769 9.35338211 220.71547127 C7.67336553 237.27875029 5.99181713 253.84187275 4.30828373 270.40479469 C4.21847393 271.28836332 4.12866412 272.17193195 4.03613281 273.08227539 C3.94621038 273.96694861 3.85628795 274.85162182 3.7636406 275.76310331 C2.29747672 290.18846959 0.83513818 304.61422088 -0.62554784 319.04014277 C-2.13471992 333.94446269 -3.6467815 348.84848705 -5.16182649 363.75221115 C-6.00874296 372.08405235 -6.85448212 380.41600905 -7.69707108 388.74828911 C-8.41166169 395.8146056 -9.12893527 402.88064341 -9.84965731 409.94633728 C-10.21642803 413.54277734 -10.58198042 417.13932969 -10.94412804 420.73623848 C-11.33749651 424.6428653 -11.73691388 428.5488607 -12.13687134 432.45481873 C-12.24893657 433.57727271 -12.36100181 434.69972669 -12.47646296 435.85619444 C-15.23219661 462.52778832 -15.23219661 462.52778832 -25.77734375 472.625 C-33.95345398 479.23922871 -41.43572884 480.88664244 -51.90625 480.5703125 C-62.04678964 479.49828134 -70.47203462 474.2447985 -76.83984375 466.375 C-85.15438779 454.39027576 -82.64636582 440.56567315 -81.23657227 426.79876709 C-81.09582429 425.38190355 -80.95559793 423.96498812 -80.81584263 422.54802632 C-80.43349365 418.68665802 -80.0438273 414.82605917 -79.6528821 410.96555305 C-79.23138557 406.7902861 -78.81679259 402.61433284 -78.40133667 398.4384613 C-77.68165734 391.21422597 -76.9576606 383.99043398 -76.23068237 376.76692963 C-75.17961604 366.32311152 -74.13513692 355.8786428 -73.09223521 345.4340066 C-71.39978712 328.48597463 -69.70205467 311.53847638 -68.00097656 294.59130859 C-66.34910281 278.13422987 -64.69973179 261.67690348 -63.05371094 245.21923828 C-62.95215309 244.20382547 -62.85059524 243.18841266 -62.74595988 242.14222977 C-62.23646064 237.04791316 -61.72701043 231.95359166 -61.21758461 226.85926771 C-56.99510652 184.63458241 -52.76404287 142.41076061 -48.52734375 100.1875 C-49.29232178 100.04812012 -50.0572998 99.90874023 -50.84545898 99.76513672 C-64.80976233 96.75744061 -77.06570399 84.40979101 -84.84375 73.07421875 C-93.12758303 58.87061641 -95.9352625 42.03423041 -92.40234375 25.9375 C-88.61358917 12.82664694 -81.16286067 3.25583289 -69.296875 -3.43359375 C-46.53050528 -14.7686128 -21.19416732 -15.19952648 0 0 Z M-77.52734375 10.1875 C-86.37407399 21.71225923 -88.61907522 32.8130357 -87.52734375 47.1875 C-85.24339887 62.79445671 -77.05824293 76.32328602 -64.71484375 86 C-57.41482304 91.2143005 -50.40186543 94.79565756 -41.52734375 96.1875 C-41.65439394 97.0341846 -41.78144414 97.8808692 -41.91234434 98.7532109 C-43.16213206 107.26080431 -44.17136663 115.76107311 -45.0206604 124.31838989 C-45.15825866 125.68312933 -45.29611181 127.04784308 -45.43419397 128.41253364 C-45.80857154 132.11999249 -46.17931659 135.82780649 -46.54939365 139.53569674 C-46.95079328 143.55092693 -47.35560344 147.56581356 -47.75993347 151.58074951 C-48.54968274 159.42862388 -49.33617254 167.27682152 -50.12134148 175.12515534 C-50.75975016 181.50638231 -51.39910057 187.88751422 -52.03910446 194.26858139 C-53.8561421 212.38619262 -55.67070383 230.50404934 -57.48207088 248.6222284 C-57.57951093 249.59686861 -57.67695097 250.57150883 -57.77734375 251.57568359 C-57.92368268 253.03944079 -57.92368268 253.03944079 -58.07297795 254.53276883 C-59.65553536 270.3607837 -61.24402528 286.18819685 -62.83519323 302.01534821 C-64.47149227 318.29209881 -66.10334921 334.5692895 -67.7305969 350.84694755 C-68.64326146 359.9755821 -69.55774184 369.10402618 -70.47700882 378.23199844 C-71.25919098 385.99911662 -72.03723452 393.76663573 -72.80997325 401.53469934 C-73.20394471 405.49396271 -73.59979632 409.45301327 -74.00087166 413.41156387 C-74.36861944 417.04166362 -74.73078405 420.67227736 -75.08868091 424.30336116 C-75.27948275 426.22485966 -75.47608391 428.14577964 -75.67295516 430.06666577 C-77.75737025 448.20091712 -77.75737025 448.20091712 -70.796875 464.4453125 C-65.43184079 470.24940141 -60.07379879 473.68116626 -52.16015625 474.5625 C-42.71650669 474.88744278 -35.84264926 473.46212362 -28.77734375 467.0625 C-22.27647721 459.82297865 -19.80644354 451.94587496 -18.97787476 442.41720581 C-18.87141955 441.38054252 -18.76496434 440.34387923 -18.65528321 439.2758019 C-18.30565701 435.82849559 -17.98385204 432.37916529 -17.66162109 428.92919922 C-17.41424294 426.44029413 -17.16490035 423.95158362 -16.91374779 421.46305656 C-16.37870724 416.13481632 -15.85440156 410.80568145 -15.3380661 405.47560883 C-14.5394683 397.24684343 -13.69743069 389.02282267 -12.8460083 380.79937744 C-12.55647413 377.99937608 -12.26708516 375.19935972 -11.9777317 372.39933968 C-11.90518815 371.69757871 -11.83264459 370.99581775 -11.75790275 370.2727913 C-10.92124286 362.17257005 -10.09694592 354.07109561 -9.27359009 345.96951294 C-9.19693563 345.21538956 -9.12028118 344.46126618 -9.04130386 343.68429057 C-8.64774361 339.81212469 -8.25436139 335.93994077 -7.86110735 332.06774378 C-7.37192468 327.25109254 -6.88230047 322.43448625 -6.39262009 317.61788559 C-5.02728237 304.18718606 -3.66253435 290.75642689 -2.30001259 277.32544136 C-2.21419498 276.47951081 -2.12837736 275.63358026 -2.03995921 274.76201545 C-1.91101946 273.49101085 -1.91101946 273.49101085 -1.77947485 272.19432938 C-1.60542576 270.4786739 -1.43137555 268.76301853 -1.25732422 267.04736328 C-1.17099878 266.1964325 -1.08467335 265.34550172 -0.99573199 264.46878515 C0.41644305 250.54983418 1.83313166 236.63134637 3.25163154 222.7130387 C4.72008369 208.30394093 6.18476955 193.89446433 7.64568961 179.4846009 C8.46138141 171.43986014 9.27866557 163.39528852 10.10017014 155.35113907 C10.7955033 148.54231186 11.48740184 141.73314665 12.17482917 134.92351653 C12.52473164 131.45841788 12.87623001 127.99350144 13.2321434 124.52901459 C13.61744867 120.76996956 13.99654625 117.01034763 14.37411499 113.2505188 C14.54306859 111.62392843 14.54306859 111.62392843 14.71543539 109.96447766 C15.33854426 103.6811939 15.61092958 97.50103645 15.47265625 91.1875 C16.20126862 91.1972435 16.92988098 91.206987 17.68057251 91.21702576 C27.33131009 91.28712199 36.92376872 90.85122723 46.55859375 90.34765625 C48.27201346 90.26017356 49.98544344 90.17289201 51.69888306 90.08580017 C55.2640508 89.9038318 58.82908652 89.7195079 62.39404297 89.53344727 C66.94963364 89.29586824 71.50550197 89.06418618 76.06148338 88.8342371 C79.58928473 88.65554522 83.11692297 88.47378609 86.64451981 88.29110527 C88.32450213 88.20446264 90.00453276 88.118751 91.68461227 88.03401375 C94.03128857 87.91518709 96.37771408 87.7922292 98.72412109 87.66821289 C99.40788818 87.63440521 100.09165527 87.60059753 100.79614258 87.56576538 C105.07748754 87.3340055 109.2415197 86.84686093 113.47265625 86.1875 C113.20638428 86.80455811 112.9401123 87.42161621 112.66577148 88.05737305 C91.42502887 137.51854711 81.05393158 190.78831324 74.72265625 244.0958252 C74.48036591 246.12299559 74.2291589 248.14889632 73.9765625 250.17480469 C69.61750036 286.24514327 68.05782432 325.3370155 74.47265625 361.1875 C74.65489746 362.22342285 74.83713867 363.2593457 75.02490234 364.32666016 C80.09197505 392.27810632 88.53982325 420.36415814 107.47265625 442.1875 C108.148125 443.00734375 108.82359375 443.8271875 109.51953125 444.671875 C130.90984918 469.80940192 166.75163666 484.82506988 199.12963867 488.01977539 C239.73742259 490.92667833 278.99877665 479.13277281 310.47265625 453.1875 C311.20871094 452.60484375 311.94476563 452.0221875 312.703125 451.421875 C342.66684362 426.7810525 362.9155976 382.34846589 376.47265625 347.1875 C376.98554199 345.88377441 376.98554199 345.88377441 377.50878906 344.55371094 C409.22712053 265.40121427 409.22712053 265.40121427 409.47265625 185.1875 C406.22658833 178.43343361 402.97080162 173.98830201 396.47265625 170.1875 C388.49908097 167.52964157 381.86222973 169.90079418 374.47265625 173.1875 C373.77398437 173.46851563 373.0753125 173.74953125 372.35546875 174.0390625 C368.9603994 175.83130941 367.68115336 177.57992432 366.42424011 181.24266052 C366.12077164 182.45994339 365.81730316 183.67722626 365.50463867 184.93139648 C365.25289147 185.92687956 365.25289147 185.92687956 364.99605846 186.94247341 C364.47513132 189.02118018 363.97128967 191.10334196 363.47265625 193.1875 C363.02474228 195.04968674 363.02474228 195.04968674 362.56777954 196.94949341 C361.820769 200.11370576 361.08629613 203.28040593 360.36168861 206.44981575 C359.87930877 208.55618409 359.39231637 210.6614417 358.90409851 212.76646423 C357.51847531 218.74125883 356.13491299 224.71649043 354.76782227 230.69555664 C320.41529314 380.79205826 320.41529314 380.79205826 266.78515625 416.25 C265.03344485 417.26297839 263.26401842 418.24641572 261.47265625 419.1875 C260.80878906 419.54585938 260.14492188 419.90421875 259.4609375 420.2734375 C252.83794678 423.30029699 244.76153104 423.35891074 237.8125 421.4609375 C229.65432819 418.110503 224.57016951 411.82033472 220.47265625 404.1875 C212.02633708 383.9639189 211.25720724 362.24381638 211.28515625 340.625 C211.2857605 339.7541275 211.28636475 338.883255 211.2869873 337.98599243 C211.41747726 267.85480509 220.54335041 196.50218972 233.8125 127.73608398 C238.27022335 104.61823837 239.17497335 82.56335302 225.47265625 62.1875 C206.65593267 37.53341724 176.7768267 30.74977731 147.58544922 26.57299805 C139.22527607 25.53764798 131.01692333 25.01970053 122.58984375 24.984375 C121.46984482 24.97731537 120.34984589 24.97025574 119.19590759 24.96298218 C63.14618212 22.60046742 63.14618212 22.60046742 9.47265625 35.1875 C9.55515625 34.115 9.63765625 33.0425 9.72265625 31.9375 C9.6353823 22.05808908 5.72008882 14.31966274 -1.11328125 7.375 C-12.01752453 -2.5058677 -25.09502752 -6.22674252 -39.63671875 -6.08984375 C-52.84535697 -5.14826412 -68.5287097 -0.07138501 -77.52734375 10.1875 Z " fill="#000000" transform="translate(132.52734375,38.8125)"/>
<path d="M0 0 C1.25026978 -0.00067474 2.50053955 -0.00134949 3.78869629 -0.00204468 C22.73585922 0.01419436 41.29891775 0.4521135 60.0625 3.25 C61.23973633 3.42160645 62.41697266 3.59321289 63.62988281 3.77001953 C102.99573859 9.69873994 141.6143888 21.42153492 171.0625 49.25 C171.7740625 49.90871094 172.485625 50.56742188 173.21875 51.24609375 C191.21076605 68.44230909 199.82098782 93.06516601 200.38964844 117.54760742 C200.40543945 118.54252197 200.42123047 119.53743652 200.4375 120.5625 C200.46360352 121.45493408 200.48970703 122.34736816 200.51660156 123.2668457 C200.56405396 143.02568341 194.97569843 162.4433816 189.4944458 181.24679565 C188.03814471 186.24587691 186.61329147 191.2537623 185.18673706 196.26139832 C184.47234127 198.76894718 183.75663679 201.27612361 183.0395813 203.78291321 C172.6144445 240.26050627 163.10375165 277.14824675 156.0625 314.4375 C155.92043121 315.18742218 155.77836243 315.93734436 155.63198853 316.70999146 C153.05086509 330.44179644 150.71695864 344.18003222 150.5625 358.1875 C150.52125 359.14978516 150.48 360.11207031 150.4375 361.10351562 C150.36963019 367.31784518 151.40093286 370.90584895 155.48535156 375.64379883 C157.29262335 377.48436246 159.07214836 379.14339743 161.1875 380.625 C161.82945312 381.08648437 162.47140625 381.54796875 163.1328125 382.0234375 C168.50501525 385.43815747 172.72964806 386.01346592 179.0625 385.25 C186.91211314 382.82291805 191.13623135 375.18725853 194.81640625 368.34375 C195.76523854 366.4855641 196.70071178 364.62051566 197.625 362.75 C198.13675781 361.71593018 198.64851562 360.68186035 199.17578125 359.61645508 C223.56716394 309.36473052 242.25195257 252.06893833 247.0625 196.25 C245.4125 196.91 243.7625 197.57 242.0625 198.25 C242.3940629 195.1554129 243.09132594 194.22195314 245.375 192 C248.0625 190.25 248.0625 190.25 252.0625 190.25 C253.546875 191.7109375 253.546875 191.7109375 254.8125 193.625 C255.45445312 194.56472656 255.45445312 194.56472656 256.109375 195.5234375 C257.0625 197.25 257.0625 197.25 257.0625 199.25 C253.1875 198.375 253.1875 198.375 252.0625 197.25 C250.60934123 203.43085632 249.47938064 209.61117473 248.46533203 215.87817383 C244.46146947 240.44281447 238.46852131 264.49093165 231.0625 288.25 C230.74087891 289.28737305 230.41925781 290.32474609 230.08789062 291.39355469 C222.5976629 315.30578071 213.365793 338.58056616 202.69442749 361.24908447 C201.84424269 363.0574813 201.00742474 364.87214384 200.17114258 366.68701172 C195.54337554 376.28199422 190.11733192 384.87397115 180.0625 389.25 C172.13659548 390.6569653 165.58805533 388.80002489 159.0625 384.25 C147.65787087 374.47207766 147.65787087 374.47207766 146.76635742 368.14990234 C146.61606691 365.48738439 146.59577758 362.85421599 146.625 360.1875 C146.63474854 359.17075195 146.64449707 358.15400391 146.65454102 357.10644531 C148.01174661 296.43245423 169.88059261 233.22243291 186.92211914 175.27856445 C190.13094978 164.33491501 193.2249389 153.51813382 195.0625 142.25 C195.18882812 141.50202148 195.31515625 140.75404297 195.4453125 139.98339844 C199.29361171 113.8492295 194.86639433 86.96376621 180.0703125 64.90234375 C176.09971199 59.65713413 171.67375289 54.92703396 167.0625 50.25 C166.00095703 49.16912109 166.00095703 49.16912109 164.91796875 48.06640625 C128.33214997 13.29938535 66.27042598 4.12914922 17.96875 4.08203125 C16.74256958 4.07870285 15.51638916 4.07537445 14.25305176 4.07194519 C11.66463593 4.06690908 9.07621369 4.06453583 6.48779297 4.06469727 C2.62846398 4.06253692 -1.23056615 4.04441767 -5.08984375 4.02539062 C-22.13952963 3.98820171 -38.95378687 4.77966318 -55.9375 6.25 C-55.9375 5.26 -55.9375 4.27 -55.9375 3.25 C-53.73001633 2.93155348 -51.52144145 2.62067208 -49.3125 2.3125 C-47.46785156 2.05146484 -47.46785156 2.05146484 -45.5859375 1.78515625 C-30.42933407 -0.05476999 -15.24610791 0.00738159 0 0 Z " fill="#000000" transform="translate(223.9375,25.75)"/>
<path d="M0 0 C3.5865054 1.33213058 6.87682483 2.76916059 10 5 C10 5.99 10 6.98 10 8 C9.38125 7.835 8.7625 7.67 8.125 7.5 C6.03936614 6.92365356 6.03936614 6.92365356 4 7 C4.10546143 7.60545654 4.21092285 8.21091309 4.31958008 8.8347168 C6.50604391 21.53945968 8.36790295 34.23669124 9.6875 47.0625 C9.80649658 48.21258545 9.92549316 49.3626709 10.0480957 50.54760742 C10.39237864 54.02990402 10.70448285 57.51323596 11 61 C11.14683228 62.68778564 11.14683228 62.68778564 11.29663086 64.40966797 C12.33475079 78.25064965 12.19898678 92.12801729 12.1875 106 C12.18723312 106.66860298 12.18696625 107.33720596 12.18669128 108.02606964 C12.17646795 128.42261858 11.9207954 148.6776715 10 169 C9.86930269 170.45096515 9.73911696 171.90197645 9.609375 173.35302734 C-1.29769203 293.94653804 -1.29769203 293.94653804 -18 319 C-18.66 318.67 -19.32 318.34 -20 318 C-19.75548096 317.0313501 -19.51096191 316.0627002 -19.2590332 315.06469727 C-6.15533509 263.00567803 2.98162191 210.56331146 7 157 C7.09571289 155.80431396 7.19142578 154.60862793 7.29003906 153.37670898 C8.33744041 138.50379749 8.24582231 123.58999615 8.25 108.6875 C8.25044186 107.96520832 8.25088371 107.24291664 8.25133896 106.49873734 C8.262141 72.78533195 5.77678394 40.22764984 0 7 C-0.99 8.485 -0.99 8.485 -2 10 C-2.99 10 -3.98 10 -5 10 C-4.38545304 6.00544473 -2.29353263 3.25533664 0 0 Z " fill="#000000" transform="translate(40,157)"/>
<path d="M0 0 C4.46119813 2.40516769 7.54704822 5.78159644 9.796875 10.28125 C10.3041715 15.83656248 10.55947922 20.69955236 8.109375 25.78125 C4.20269483 30.00468803 1.02644409 32.99323287 -4.875 33.51953125 C-11.62944388 33.68239221 -15.79385156 33.45089828 -21.203125 29.28125 C-26.09078935 23.87909467 -26.55286848 20.42319384 -26.484375 13.265625 C-25.98466776 7.96317591 -23.4523545 5.40860345 -19.640625 1.96875 C-14.17497556 -1.81516115 -6.26151729 -2.04276451 0 0 Z M-18.578125 9.09375 C-20.69099527 11.93799844 -21.13228528 13.73926403 -21.203125 17.28125 C-19.52545928 21.94143256 -17.39565486 24.64873125 -13.203125 27.28125 C-9.29609535 28.55528141 -7.51595431 28.38372857 -3.578125 27.09375 C0.78664151 24.74970872 3.1743451 23.19034169 4.734375 18.40625 C4.8131551 14.46724507 3.9415668 12.56977743 1.796875 9.28125 C-4.88080519 2.60356981 -11.3237245 3.55749698 -18.578125 9.09375 Z " fill="#000000" transform="translate(103.203125,66.71875)"/>
<path d="M0 0 C9.94333556 8.18253655 17.24213195 20.24285982 21.5625 32.2890625 C21.5625 33.6090625 21.5625 34.9290625 21.5625 36.2890625 C20.9025 36.2890625 20.2425 36.2890625 19.5625 36.2890625 C19.27117187 35.55042969 18.97984375 34.81179687 18.6796875 34.05078125 C12.16667312 17.93209472 4.29453991 3.36142961 -12.34375 -3.99609375 C-28.69067496 -10.12619061 -45.61756322 -8.890994 -61.5078125 -2.015625 C-84.47152816 8.59340756 -103.56775572 26.22658791 -112.4375 50.2890625 C-117.32769148 65.57323512 -116.46522518 79.68067778 -109.9375 94.2265625 C-105.339376 103.02247632 -96.65400493 114.12213488 -87.4375 118.2890625 C-85.3124685 117.91048614 -85.3124685 117.91048614 -83.4375 117.2890625 C-82.4375 118.2890625 -82.4375 118.2890625 -82.375 121.3515625 C-82.395625 122.3209375 -82.41625 123.2903125 -82.4375 124.2890625 C-84.0875 124.6190625 -85.7375 124.9490625 -87.4375 125.2890625 C-87.49679688 124.71800781 -87.55609375 124.14695313 -87.6171875 123.55859375 C-88.79572246 120.29798036 -90.83196367 119.07096571 -93.5625 116.9765625 C-106.89363489 106.38399408 -115.60987716 94.49488074 -118.4375 77.2890625 C-119.9119362 56.67531027 -112.12087807 37.97028306 -98.97265625 22.36328125 C-74.69443171 -5.35410513 -33.53356763 -23.53798497 0 0 Z " fill="#000000" transform="translate(129.4375,10.7109375)"/>
<path d="M0 0 C1.4540625 0.0309375 1.4540625 0.0309375 2.9375 0.0625 C5.0625 4.6875 5.0625 4.6875 3.9375 8.0625 C4.26300502 9.73071323 4.59596063 11.39749557 4.9375 13.0625 C4.6075 13.7225 4.2775 14.3825 3.9375 15.0625 C1.125 15.9375 1.125 15.9375 -2.0625 16.0625 C-4.4375 14.125 -4.4375 14.125 -6.0625 12.0625 C-2.43923261 10.8547442 -1.42103631 11.51938872 1.9375 13.0625 C1.9375 11.7425 1.9375 10.4225 1.9375 9.0625 C0.6175 9.0625 -0.7025 9.0625 -2.0625 9.0625 C-2.0625 8.0725 -2.0625 7.0825 -2.0625 6.0625 C-0.7425 6.0625 0.5775 6.0625 1.9375 6.0625 C1.6075 5.0725 1.2775 4.0825 0.9375 3.0625 C-1.0425 3.7225 -3.0225 4.3825 -5.0625 5.0625 C-3.9375 0.08035714 -3.9375 0.08035714 0 0 Z " fill="#000000" transform="translate(395.0625,45.9375)"/>
<path d="M0 0 C3.0625 0.1875 3.0625 0.1875 5.0625 2.1875 C4.90004442 5.92397845 4.47466356 7.71288742 2 10.5625 C1.360625 11.09875 0.72125 11.635 0.0625 12.1875 C1.7125 12.5175 3.3625 12.8475 5.0625 13.1875 C5.0625 13.8475 5.0625 14.5075 5.0625 15.1875 C1.7625 15.1875 -1.5375 15.1875 -4.9375 15.1875 C-2.9375 11.1875 -2.9375 11.1875 -0.8125 8.625 C1.36735538 6.30372611 1.36735538 6.30372611 1.0625 3.1875 C0.4025 3.1875 -0.2575 3.1875 -0.9375 3.1875 C-1.2675 3.8475 -1.5975 4.5075 -1.9375 5.1875 C-2.9275 5.1875 -3.9175 5.1875 -4.9375 5.1875 C-3.82120474 0.24390669 -3.82120474 0.24390669 0 0 Z " fill="#000000" transform="translate(19.9375,20.8125)"/>
<path d="M0 0 C0 4.95 0 9.9 0 15 C-0.99 15 -1.98 15 -3 15 C-3 11.37 -3 7.74 -3 4 C-3.99 4.33 -4.98 4.66 -6 5 C-5.625 3.0625 -5.625 3.0625 -5 1 C-3 0 -3 0 0 0 Z " fill="#000000" transform="translate(31,297)"/>
<path d="M0 0 C0 4.95 0 9.9 0 15 C-0.99 15 -1.98 15 -3 15 C-3 11.37 -3 7.74 -3 4 C-3.99 4.33 -4.98 4.66 -6 5 C-5.625 3.0625 -5.625 3.0625 -5 1 C-3 0 -3 0 0 0 Z " fill="#000000" transform="translate(382,46)"/>
<path d="M0 0 C0 4.95 0 9.9 0 15 C-0.99 15 -1.98 15 -3 15 C-3 11.37 -3 7.74 -3 4 C-3.99 4.33 -4.98 4.66 -6 5 C-5.625 3.0625 -5.625 3.0625 -5 1 C-3 0 -3 0 0 0 Z " fill="#000000" transform="translate(7,21)"/>
<path d="M0 0 C0 4.95 0 9.9 0 15 C-0.66 15 -1.32 15 -2 15 C-2.33 11.37 -2.66 7.74 -3 4 C-3.99 4.33 -4.98 4.66 -6 5 C-6 4.01 -6 3.02 -6 2 C-3 0 -3 0 0 0 Z " fill="#000000" transform="translate(43,297)"/>
<path d="M0 0 C1.17539996 0.92652701 2.34010577 1.86663387 3.5 2.8125 C4.1496875 3.33457031 4.799375 3.85664063 5.46875 4.39453125 C7 6 7 6 7 9 C6.01 9 5.02 9 4 9 C1.25 6.1875 1.25 6.1875 -1 3 C-0.67 2.01 -0.34 1.02 0 0 Z " fill="#000000" transform="translate(291,457)"/>
<path d="M0 0 C3.96 0.33 7.92 0.66 12 1 C12 1.99 12 2.98 12 4 C10.56260487 4.02712066 9.12506137 4.04645067 7.6875 4.0625 C6.48673828 4.07990234 6.48673828 4.07990234 5.26171875 4.09765625 C3 4 3 4 0 3 C0 2.01 0 1.02 0 0 Z " fill="#000000" transform="translate(86,111)"/>
<path d="M0 0 C3.7910119 1.44950455 7.3874638 3.15172566 11 5 C10.67 5.99 10.34 6.98 10 8 C6.14354522 6.86059291 2.93494171 5.82205934 0 3 C0 2.01 0 1.02 0 0 Z " fill="#000000" transform="translate(66,103)"/>
<path d="M0 0 C1.8125 0.125 1.8125 0.125 4 1 C7.146948 5.88319518 7.146948 5.88319518 6.6875 9.375 C6.460625 9.91125 6.23375 10.4475 6 11 C3.02753198 8.45217026 1.58464712 5.54659117 0 2 C0 1.34 0 0.68 0 0 Z " fill="#000000" transform="translate(279,440)"/>
<path d="M0 0 C0.99 0.33 1.98 0.66 3 1 C3 4.63 3 8.26 3 12 C2.01 12 1.02 12 0 12 C0 8.04 0 4.08 0 0 Z " fill="#000000" transform="translate(271,379)"/>
<path d="M0 0 C0 0.99 0 1.98 0 3 C-5.94 3.495 -5.94 3.495 -12 4 C-12 3.01 -12 2.02 -12 1 C-7.9472484 0.01751476 -4.16138263 -0.08159574 0 0 Z " fill="#000000" transform="translate(141,110)"/>
<path d="M0 0 C0.66 0 1.32 0 2 0 C2.99 3.63 3.98 7.26 5 11 C4.01 11.33 3.02 11.66 2 12 C1.01 8.37 0.02 4.74 -1 1 C-0.67 0.67 -0.34 0.34 0 0 Z " fill="#000000" transform="translate(57,84)"/>
<path d="M0 0 C0.66 0.99 1.32 1.98 2 3 C0.92892883 3.86949317 -0.15745944 4.72014205 -1.25 5.5625 C-1.85328125 6.03816406 -2.4565625 6.51382813 -3.078125 7.00390625 C-5 8 -5 8 -7.234375 7.65234375 C-7.81703125 7.43707031 -8.3996875 7.22179688 -9 7 C-6.19195732 4.03595495 -3.81684226 1.55500981 0 0 Z " fill="#000000" transform="translate(73,49)"/>
<path d="M0 0 C4.05606165 0.46800711 7.46588679 0.87953208 11 3 C10.67 3.99 10.34 4.98 10 6 C6.7 5.01 3.4 4.02 0 3 C0 2.01 0 1.02 0 0 Z " fill="#000000" transform="translate(104,46)"/>
<path d="M0 0 C0.99 0.33 1.98 0.66 3 1 C2.01 4.63 1.02 8.26 0 12 C-0.99 11.67 -1.98 11.34 -3 11 C-2.69078116 9.54096742 -2.37751201 8.08279278 -2.0625 6.625 C-1.88847656 5.81289062 -1.71445312 5.00078125 -1.53515625 4.1640625 C-1 2 -1 2 0 0 Z " fill="#000000" transform="translate(322,139)"/>
<path d="M0 0 C3.91211733 1.15585285 6.8745041 2.35534962 10 5 C9.67 5.99 9.34 6.98 9 8 C6.03 6.35 3.06 4.7 0 3 C0 2.01 0 1.02 0 0 Z " fill="#000000" transform="translate(312,106)"/>
<path d="M0 0 C1.21236328 0.01353516 1.21236328 0.01353516 2.44921875 0.02734375 C3.37154297 0.04474609 3.37154297 0.04474609 4.3125 0.0625 C3.9825 1.0525 3.6525 2.0425 3.3125 3.0625 C0.0125 3.3925 -3.2875 3.7225 -6.6875 4.0625 C-7.0175 3.0725 -7.3475 2.0825 -7.6875 1.0625 C-4.80538698 0.10179566 -2.98899956 -0.04331883 0 0 Z " fill="#000000" transform="translate(90.6875,44.9375)"/>
<path d="M0 0 C0 0.99 0 1.98 0 3 C-3.63 3.33 -7.26 3.66 -11 4 C-11 3.01 -11 2.02 -11 1 C-7.27569643 0.30710631 -3.78916254 -0.11144596 0 0 Z " fill="#000000" transform="translate(389,494)"/>
<path d="M0 0 C5.445 1.485 5.445 1.485 11 3 C10.67 3.99 10.34 4.98 10 6 C5.545 5.01 5.545 5.01 1 4 C0.67 2.68 0.34 1.36 0 0 Z " fill="#000000" transform="translate(339,490)"/>
<path d="M0 0 C0.66 0.33 1.32 0.66 2 1 C2 1.66 2 2.32 2 3 C-1.3 4.32 -4.6 5.64 -8 7 C-8.33 6.01 -8.66 5.02 -9 4 C-7.54618103 3.30300448 -6.08677047 2.61766134 -4.625 1.9375 C-3.40683594 1.36322266 -3.40683594 1.36322266 -2.1640625 0.77734375 C-1.44992187 0.52082031 -0.73578125 0.26429688 0 0 Z " fill="#000000" transform="translate(406,487)"/>
<path d="M0 0 C3.48670834 1.1094072 6.77484237 2.26337666 10 4 C9.67 4.99 9.34 5.98 9 7 C5.59687262 5.94124926 2.98646769 4.99097846 0 3 C0 2.01 0 1.02 0 0 Z " fill="#000000" transform="translate(321,482)"/>
<path d="M0 0 C0.99 0.33 1.98 0.66 3 1 C0.19195732 3.96404505 -2.18315774 6.44499019 -6 8 C-6 6.68 -6 5.36 -6 4 C-3.1875 1.6875 -3.1875 1.6875 0 0 Z " fill="#000000" transform="translate(422,477)"/>
<path d="M0 0 C0.99 0.33 1.98 0.66 3 1 C-0.625 7.75 -0.625 7.75 -4 10 C-4.66 9.34 -5.32 8.68 -6 8 C-4.02 5.36 -2.04 2.72 0 0 Z " fill="#000000" transform="translate(449,448)"/>
<path d="M0 0 C0.99 0 1.98 0 3 0 C3.66 3.63 4.32 7.26 5 11 C4.01 11 3.02 11 2 11 C0.57741188 7.17679443 -0.24042276 4.08718695 0 0 Z " fill="#000000" transform="translate(274,420)"/>
<path d="M0 0 C0.99 0 1.98 0 3 0 C2.67 3.63 2.34 7.26 2 11 C1.01 11 0.02 11 -1 11 C-1.125 3.375 -1.125 3.375 0 0 Z " fill="#000000" transform="translate(274,339)"/>
<path d="M0 0 C0.99 0 1.98 0 3 0 C2.67 3.3 2.34 6.6 2 10 C0.68 10.33 -0.64 10.66 -2 11 C-1.34 7.37 -0.68 3.74 0 0 Z " fill="#000000" transform="translate(280,298)"/>
<path d="M0 0 C0.99 0 1.98 0 3 0 C2.85892253 1.45880109 2.71197585 2.91703551 2.5625 4.375 C2.48128906 5.18710937 2.40007812 5.99921875 2.31640625 6.8359375 C2 9 2 9 1 11 C0.01 11 -0.98 11 -2 11 C-1.34 7.37 -0.68 3.74 0 0 Z " fill="#000000" transform="translate(284,278)"/>
<path d="M0 0 C0.99 0 1.98 0 3 0 C2.34 3.3 1.68 6.6 1 10 C0.01 10.33 -0.98 10.66 -2 11 C-1.85957123 9.35369672 -1.71250671 7.70795821 -1.5625 6.0625 C-1.48128906 5.14597656 -1.40007812 4.22945313 -1.31640625 3.28515625 C-1 1 -1 1 0 0 Z " fill="#000000" transform="translate(289,258)"/>
<path d="M0 0 C0.99 0.33 1.98 0.66 3 1 C2.01 4.3 1.02 7.6 0 11 C-0.99 11 -1.98 11 -3 11 C-2.69217504 9.35328588 -2.37860766 7.70764424 -2.0625 6.0625 C-1.88847656 5.14597656 -1.71445312 4.22945312 -1.53515625 3.28515625 C-1 1 -1 1 0 0 Z " fill="#000000" transform="translate(294,238)"/>
<path d="M0 0 C0.99 0.33 1.98 0.66 3 1 C2.01 4.3 1.02 7.6 0 11 C-0.99 11 -1.98 11 -3 11 C-2.69078116 9.54096742 -2.37751201 8.08279278 -2.0625 6.625 C-1.88847656 5.81289062 -1.71445312 5.00078125 -1.53515625 4.1640625 C-1 2 -1 2 0 0 Z " fill="#000000" transform="translate(299,218)"/>
<path d="M0 0 C0.99 0.33 1.98 0.66 3 1 C2.34 4.3 1.68 7.6 1 11 C0.01 11 -0.98 11 -2 11 C-1 3.57142857 -1 3.57142857 0 0 Z " fill="#000000" transform="translate(304,198)"/>
<path d="M0 0 C0.99 0.33 1.98 0.66 3 1 C2.01 4.3 1.02 7.6 0 11 C-0.99 11 -1.98 11 -3 11 C-2.69078116 9.54096742 -2.37751201 8.08279278 -2.0625 6.625 C-1.88847656 5.81289062 -1.71445312 5.00078125 -1.53515625 4.1640625 C-1 2 -1 2 0 0 Z " fill="#000000" transform="translate(316,159)"/>
<path d="M0 0 C0.99 0 1.98 0 3 0 C3.0270043 1.45823212 3.04639787 2.91660675 3.0625 4.375 C3.07410156 5.18710938 3.08570313 5.99921875 3.09765625 6.8359375 C3 9 3 9 2 11 C1.01 11 0.02 11 -1 11 C-0.67 7.37 -0.34 3.74 0 0 Z " fill="#000000" transform="translate(326,120)"/>
<path d="M0 0 C3.63 0 7.26 0 11 0 C11 0.99 11 1.98 11 3 C7.37 3 3.74 3 0 3 C0 2.01 0 1.02 0 0 Z " fill="#000000" transform="translate(108,112)"/>
<path d="M0 0 C0 0.66 0 1.32 0 2 C-1.26839526 2.50615298 -2.53983102 3.00469099 -3.8125 3.5 C-4.87404297 3.91765625 -4.87404297 3.91765625 -5.95703125 4.34375 C-8 5 -8 5 -11 5 C-11 4.01 -11 3.02 -11 2 C-9.54494642 1.47007308 -8.08581873 0.9513211 -6.625 0.4375 C-5.81289062 0.14746094 -5.00078125 -0.14257812 -4.1640625 -0.44140625 C-2 -1 -2 -1 0 0 Z " fill="#000000" transform="translate(162,106)"/>
<path d="M0 0 C0 0.99 0 1.98 0 3 C-4.95 4.485 -4.95 4.485 -10 6 C-10 4.68 -10 3.36 -10 2 C-8.7090864 1.66376204 -7.41723903 1.33110751 -6.125 1 C-5.40570313 0.814375 -4.68640625 0.62875 -3.9453125 0.4375 C-2 0 -2 0 0 0 Z " fill="#000000" transform="translate(181,99)"/>
<path d="M0 0 C4.455 0.99 4.455 0.99 9 2 C9.33 3.32 9.66 4.64 10 6 C6.37 5.01 2.74 4.02 -1 3 C-0.67 2.01 -0.34 1.02 0 0 Z " fill="#000000" transform="translate(293,99)"/>
<path d="M0 0 C0 0.99 0 1.98 0 3 C-3.3 3.33 -6.6 3.66 -10 4 C-10.33 3.01 -10.66 2.02 -11 1 C-7.32589215 -0.17571451 -3.83070817 -0.07366746 0 0 Z " fill="#000000" transform="translate(201,96)"/>
<path d="M0 0 C1.45880109 0.14107747 2.91703551 0.28802415 4.375 0.4375 C5.59316406 0.55931641 5.59316406 0.55931641 6.8359375 0.68359375 C9 1 9 1 11 2 C11 2.99 11 3.98 11 5 C9.54119891 4.85892253 8.08296449 4.71197585 6.625 4.5625 C5.40683594 4.44068359 5.40683594 4.44068359 4.1640625 4.31640625 C2 4 2 4 0 3 C0 2.01 0 1.02 0 0 Z " fill="#000000" transform="translate(272,95)"/>
<path d="M0 0 C3.63 0 7.26 0 11 0 C11 0.99 11 1.98 11 3 C7.37 3 3.74 3 0 3 C0 2.01 0 1.02 0 0 Z " fill="#000000" transform="translate(211,94)"/>
<path d="M0 0 C3.63 0 7.26 0 11 0 C11 0.99 11 1.98 11 3 C7.37 3 3.74 3 0 3 C0 2.01 0 1.02 0 0 Z " fill="#000000" transform="translate(231,93)"/>
<path d="M0 0 C2 1.5625 2 1.5625 4 4 C4.25 7.75 4.25 7.75 4 11 C3.01 11 2.02 11 1 11 C0.63890458 9.35567294 0.28629924 7.7094792 -0.0625 6.0625 C-0.25972656 5.14597656 -0.45695312 4.22945312 -0.66015625 3.28515625 C-0.77230469 2.53105469 -0.88445312 1.77695312 -1 1 C-0.67 0.67 -0.34 0.34 0 0 Z " fill="#000000" transform="translate(122,56)"/>
<path d="M0 0 C3.63 0.33 7.26 0.66 11 1 C11 1.99 11 2.98 11 4 C7.37 3.67 3.74 3.34 0 3 C0 2.01 0 1.02 0 0 Z " fill="#000000" transform="translate(358,495)"/>
<path d="M0 0 C3.81684226 1.55500981 6.19195732 4.03595495 9 7 C4.28093812 7 2.72962969 5.71245796 -1 3 C-0.67 2.01 -0.34 1.02 0 0 Z " fill="#000000" transform="translate(305,471)"/>
<path d="M0 0 C0.99 0 1.98 0 3 0 C2.67 3.63 2.34 7.26 2 11 C1.01 11 0.02 11 -1 11 C-0.67 7.37 -0.34 3.74 0 0 Z " fill="#000000" transform="translate(89,403)"/>
<path d="M0 0 C0.99 0 1.98 0 3 0 C4.17571451 3.67410785 4.07366746 7.16929183 4 11 C3.01 11 2.02 11 1 11 C0.67 7.37 0.34 3.74 0 0 Z " fill="#000000" transform="translate(271,400)"/>
<path d="M0 0 C0.66 0.33 1.32 0.66 2 1 C1.49287967 4.71888239 0.88391785 7.73454239 -1 11 C-1.99 10.67 -2.98 10.34 -4 10 C-3.52449439 8.51965236 -3.04448784 7.04074979 -2.5625 5.5625 C-2.29566406 4.73878906 -2.02882813 3.91507812 -1.75390625 3.06640625 C-1 1 -1 1 0 0 Z " fill="#000000" transform="translate(477,395)"/>
<path d="M0 0 C0.99 0 1.98 0 3 0 C2.67 3.63 2.34 7.26 2 11 C1.01 11 0.02 11 -1 11 C-0.67 7.37 -0.34 3.74 0 0 Z " fill="#000000" transform="translate(272,359)"/>
<path d="M0 0 C0.99 0 1.98 0 3 0 C2.67 3.63 2.34 7.26 2 11 C1.01 11 0.02 11 -1 11 C-1.14285714 3.57142857 -1.14285714 3.57142857 0 0 Z " fill="#000000" transform="translate(99,324)"/>
<path d="M0 0 C0.66 0 1.32 0 2 0 C1.67 3.63 1.34 7.26 1 11 C0.01 11 -0.98 11 -2 11 C-1.85957123 9.35369672 -1.71250671 7.70795821 -1.5625 6.0625 C-1.48128906 5.14597656 -1.40007812 4.22945313 -1.31640625 3.28515625 C-1 1 -1 1 0 0 Z " fill="#000000" transform="translate(499,319)"/>
<path d="M0 0 C0.99 0 1.98 0 3 0 C3.14285714 7.42857143 3.14285714 7.42857143 2 11 C1.01 11 0.02 11 -1 11 C-0.67 7.37 -0.34 3.74 0 0 Z " fill="#000000" transform="translate(101,304)"/>
<path d="M0 0 C0.99 0 1.98 0 3 0 C2.67 3.63 2.34 7.26 2 11 C1.01 11 0.02 11 -1 11 C-1.14285714 3.57142857 -1.14285714 3.57142857 0 0 Z " fill="#000000" transform="translate(104,284)"/>
<path d="M0 0 C0.99 0 1.98 0 3 0 C2.34 3.63 1.68 7.26 1 11 C0.01 11 -0.98 11 -2 11 C-1.85892253 9.54119891 -1.71197585 8.08296449 -1.5625 6.625 C-1.48128906 5.81289063 -1.40007812 5.00078125 -1.31640625 4.1640625 C-1 2 -1 2 0 0 Z " fill="#000000" transform="translate(506,280)"/>
<path d="M0 0 C0.99 0 1.98 0 3 0 C2.67 3.63 2.34 7.26 2 11 C1.01 11 0.02 11 -1 11 C-0.67 7.37 -0.34 3.74 0 0 Z " fill="#000000" transform="translate(111,225)"/>
<path d="M0 0 C0.99 0 1.98 0 3 0 C2.01 3.63 1.02 7.26 0 11 C-0.99 10.67 -1.98 10.34 -3 10 C-2.01 6.7 -1.02 3.4 0 0 Z " fill="#000000" transform="translate(310,179)"/>
<path d="M0 0 C0.99 0 1.98 0 3 0 C2.67 3.63 2.34 7.26 2 11 C1.01 11 0.02 11 -1 11 C-0.67 7.37 -0.34 3.74 0 0 Z " fill="#000000" transform="translate(121,146)"/>
<path d="M0 0 C0.99 0 1.98 0 3 0 C3.0270043 1.45823212 3.04639787 2.91660675 3.0625 4.375 C3.07410156 5.18710938 3.08570312 5.99921875 3.09765625 6.8359375 C3 9 3 9 2 11 C1.01 10.67 0.02 10.34 -1 10 C-0.67 6.7 -0.34 3.4 0 0 Z " fill="#000000" transform="translate(123,126)"/>
<path d="M0 0 C3.63 0 7.26 0 11 0 C11 0.99 11 1.98 11 3 C7.7 3 4.4 3 1 3 C0.67 2.01 0.34 1.02 0 0 Z " fill="#000000" transform="translate(252,94)"/>
<path d="M0 0 C0.66 0 1.32 0 2 0 C1 7.42857143 1 7.42857143 0 11 C-0.99 11 -1.98 11 -3 11 C-2.69217504 9.35328588 -2.37860766 7.70764424 -2.0625 6.0625 C-1.88847656 5.14597656 -1.71445312 4.22945313 -1.53515625 3.28515625 C-1 1 -1 1 0 0 Z " fill="#000000" transform="translate(58,64)"/>
<path d="M0 0 C0.66 0.33 1.32 0.66 2 1 C1.3543999 4.48624056 0.07639763 7.12498789 -2 10 C-2.99 10 -3.98 10 -5 10 C-3.66511872 6.40608886 -2.03977277 3.24509304 0 0 Z " fill="#000000" transform="translate(460,431)"/>
<path d="M0 0 C0.66 0 1.32 0 2 0 C2.125 7.625 2.125 7.625 1 11 C0.01 11 -0.98 11 -2 11 C-1.85957123 9.35369672 -1.71250671 7.70795821 -1.5625 6.0625 C-1.48128906 5.14597656 -1.40007812 4.22945313 -1.31640625 3.28515625 C-1 1 -1 1 0 0 Z " fill="#000000" transform="translate(92,383)"/>
<path d="M0 0 C0.99 0 1.98 0 3 0 C2.34 2.97 1.68 5.94 1 9 C-0.32 9.33 -1.64 9.66 -3 10 C-2.01 6.7 -1.02 3.4 0 0 Z " fill="#000000" transform="translate(483,377)"/>
<path d="M0 0 C0.99 0.33 1.98 0.66 3 1 C2.67 4.3 2.34 7.6 2 11 C1.01 11 0.02 11 -1 11 C-0.67 7.37 -0.34 3.74 0 0 Z " fill="#000000" transform="translate(94,363)"/>
<path d="M0 0 C0.99 0 1.98 0 3 0 C2.34 3.3 1.68 6.6 1 10 C0.01 10 -0.98 10 -2 10 C-1.54177532 6.53058454 -1.10868317 3.32604951 0 0 Z " fill="#000000" transform="translate(489,358)"/>
<path d="M0 0 C0.99 0.33 1.98 0.66 3 1 C2.34 4.3 1.68 7.6 1 11 C0.01 11 -0.98 11 -2 11 C-1.34 7.37 -0.68 3.74 0 0 Z " fill="#000000" transform="translate(494,338)"/>
<path d="M0 0 C0.99 0.33 1.98 0.66 3 1 C2.34 4.3 1.68 7.6 1 11 C0.01 11 -0.98 11 -2 11 C-1.85892253 9.54119891 -1.71197585 8.08296449 -1.5625 6.625 C-1.48128906 5.81289063 -1.40007812 5.00078125 -1.31640625 4.1640625 C-1 2 -1 2 0 0 Z " fill="#000000" transform="translate(277,318)"/>
<path d="M0 0 C0.99 0 1.98 0 3 0 C2.67 3.3 2.34 6.6 2 10 C1.01 10 0.02 10 -1 10 C-0.67 6.7 -0.34 3.4 0 0 Z " fill="#000000" transform="translate(502,300)"/>
<path d="M0 0 C0.99 0.33 1.98 0.66 3 1 C2.67 4.3 2.34 7.6 2 11 C1.01 11 0.02 11 -1 11 C-0.67 7.37 -0.34 3.74 0 0 Z " fill="#000000" transform="translate(106,264)"/>
<path d="M0 0 C0.99 0.66 1.98 1.32 3 2 C2.34 4.97 1.68 7.94 1 11 C0.01 11 -0.98 11 -2 11 C-1.85892253 9.54119891 -1.71197585 8.08296449 -1.5625 6.625 C-1.48128906 5.81289063 -1.40007812 5.00078125 -1.31640625 4.1640625 C-1 2 -1 2 0 0 Z " fill="#000000" transform="translate(509,260)"/>
<path d="M0 0 C0.99 0 1.98 0 3 0 C2.67 3.3 2.34 6.6 2 10 C1.01 10.33 0.02 10.66 -1 11 C-1.125 3.375 -1.125 3.375 0 0 Z " fill="#000000" transform="translate(109,245)"/>
<path d="M0 0 C0.99 0 1.98 0 3 0 C2.67 3.3 2.34 6.6 2 10 C1.01 10.33 0.02 10.66 -1 11 C-1.125 3.375 -1.125 3.375 0 0 Z " fill="#000000" transform="translate(114,205)"/>
<path d="M0 0 C0.99 0.33 1.98 0.66 3 1 C2.67 4.3 2.34 7.6 2 11 C1.01 11 0.02 11 -1 11 C-0.67 7.37 -0.34 3.74 0 0 Z " fill="#000000" transform="translate(116,185)"/>
<path d="M0 0 C0.66 0.33 1.32 0.66 2 1 C0.55746343 4.36591866 -1.33264727 6.51047079 -4 9 C-4.99 8.67 -5.98 8.34 -7 8 C-6.02133662 6.85373678 -5.04205413 5.70800212 -4.0625 4.5625 C-3.51722656 3.92441406 -2.97195313 3.28632813 -2.41015625 2.62890625 C-1.63204305 1.73008851 -0.84063472 0.84063472 0 0 Z " fill="#000000" transform="translate(437,463)"/>
<path d="M0 0 C0.66 0 1.32 0 2 0 C2.0270043 1.45823212 2.04639787 2.91660675 2.0625 4.375 C2.07410156 5.18710937 2.08570312 5.99921875 2.09765625 6.8359375 C2 9 2 9 1 11 C0.01 10.67 -0.98 10.34 -2 10 C-1.34 6.7 -0.68 3.4 0 0 Z " fill="#000000" transform="translate(82,462)"/>
<path d="M0 0 C0.99 0.33 1.98 0.66 3 1 C2.67 4.3 2.34 7.6 2 11 C1.01 11 0.02 11 -1 11 C-0.67 7.37 -0.34 3.74 0 0 Z " fill="#000000" transform="translate(84,442)"/>
<path d="M0 0 C0.66 0 1.32 0 2 0 C2.125 7.625 2.125 7.625 1 11 C0.01 10.67 -0.98 10.34 -2 10 C-1.85950482 8.52031676 -1.71245174 7.04125484 -1.5625 5.5625 C-1.48128906 4.73878906 -1.40007812 3.91507812 -1.31640625 3.06640625 C-1 1 -1 1 0 0 Z " fill="#000000" transform="translate(87,423)"/>
<path d="M0 0 C0.99 0 1.98 0 3 0 C3 3.3 3 6.6 3 10 C2.01 10 1.02 10 0 10 C0 6.7 0 3.4 0 0 Z " fill="#000000" transform="translate(123,108)"/>
<path d="M0 0 C0.99 0 1.98 0 3 0 C3 3.3 3 6.6 3 10 C2.01 10 1.02 10 0 10 C0 6.7 0 3.4 0 0 Z " fill="#000000" transform="translate(123,90)"/>
<path d="M0 0 C0.99 0.33 1.98 0.66 3 1 C0.525 5.455 0.525 5.455 -2 10 C-2.66 10 -3.32 10 -4 10 C-3.43454163 6.04179141 -2.19097652 3.3340947 0 0 Z " fill="#000000" transform="translate(469,414)"/>
<path d="M0 0 C0.99 0 1.98 0 3 0 C3.125 6.625 3.125 6.625 2 10 C1.01 10 0.02 10 -1 10 C-0.67 6.7 -0.34 3.4 0 0 Z " fill="#000000" transform="translate(96,344)"/>
<path d="M0 0 C0.99 0.33 1.98 0.66 3 1 C2.34 4.3 1.68 7.6 1 11 C0.34 10.67 -0.32 10.34 -1 10 C-1.125 2.25 -1.125 2.25 0 0 Z " fill="#000000" transform="translate(119,166)"/>
<path d="M0 0 C0.99 0 1.98 0 3 0 C3 2.97 3 5.94 3 9 C2.01 9 1.02 9 0 9 C0 6.03 0 3.06 0 0 Z " fill="#000000" transform="translate(123,74)"/>
<path d="M0 0 C0.66 0.33 1.32 0.66 2 1 C2 2.98 2 4.96 2 7 C1.01 6.67 0.02 6.34 -1 6 C-1.042721 4.33388095 -1.04063832 2.66617115 -1 1 C-0.67 0.67 -0.34 0.34 0 0 Z " fill="#000000" transform="translate(511,245)"/>
<path d="M0 0 C0.99 0 1.98 0 3 0 C3 1.65 3 3.3 3 5 C2.01 5.33 1.02 5.66 0 6 C0 4.02 0 2.04 0 0 Z " fill="#000000" transform="translate(79,482)"/>
<path d="M0 0 C0.99 0.33 1.98 0.66 3 1 C2.67 1.99 2.34 2.98 2 4 C1.01 3.01 0.02 2.02 -1 1 C-0.67 0.67 -0.34 0.34 0 0 Z " fill="#000000" transform="translate(34,309)"/>
<path d="M0 0 C0.99 0.33 1.98 0.66 3 1 C2.67 1.99 2.34 2.98 2 4 C1.01 3.01 0.02 2.02 -1 1 C-0.67 0.67 -0.34 0.34 0 0 Z " fill="#000000" transform="translate(385,58)"/>
<path d="M0 0 C0.99 0.33 1.98 0.66 3 1 C2.67 1.99 2.34 2.98 2 4 C1.01 3.01 0.02 2.02 -1 1 C-0.67 0.67 -0.34 0.34 0 0 Z " fill="#000000" transform="translate(10,33)"/>
</svg>
