<?xml version="1.0" standalone="no"?>
<!DOCTYPE svg PUBLIC "-//W3C//DTD SVG 20010904//EN"
 "http://www.w3.org/TR/2001/REC-SVG-20010904/DTD/svg10.dtd">
<svg version="1.0" xmlns="http://www.w3.org/2000/svg"
 width="574.000000pt" height="687.000000pt" viewBox="0 0 574.000000 687.000000"
 preserveAspectRatio="xMidYMid meet">

<g transform="translate(0.000000,687.000000) scale(0.100000,-0.100000)"
fill="#000000" stroke="none">
<path d="M2999 6860 c-427 -40 -932 -263 -1355 -600 -408 -325 -788 -769
-1054 -1234 -78 -136 -125 -243 -185 -422 -210 -627 -224 -1212 -39 -1554 89
-163 304 -403 456 -507 101 -70 219 -128 314 -154 71 -19 95 -21 259 -16 252
7 412 47 640 157 276 134 548 361 744 623 72 95 85 110 76 85 -16 -42 -913
-3224 -910 -3227 2 -2 244 33 537 78 293 45 623 94 733 109 l200 28 21 31 c12
17 47 103 79 190 165 447 364 839 632 1242 315 473 1008 1320 1440 1762 l143
146 0 372 c0 221 -4 371 -9 369 -36 -13 -525 -481 -749 -718 -371 -391 -632
-704 -846 -1015 -47 -69 -66 -91 -61 -70 3 17 272 987 596 2157 324 1169 589
2134 589 2142 0 14 -29 16 -248 16 l-247 0 -379 -280 c-209 -154 -380 -279
-381 -278 -2 2 -13 28 -25 58 -61 146 -195 300 -332 382 -175 104 -405 150
-639 128z m396 -79 c164 -44 323 -146 421 -269 51 -64 117 -194 134 -263 l12
-47 405 299 405 299 209 0 c115 0 209 -2 209 -5 0 -3 -277 -1004 -615 -2225
-338 -1221 -615 -2226 -615 -2234 0 -7 8 -17 18 -21 20 -7 17 -12 118 150 213
339 496 684 956 1166 167 175 596 589 619 597 5 2 9 -121 9 -304 l0 -307 -142
-146 c-339 -347 -803 -899 -1179 -1401 -410 -547 -665 -1003 -875 -1564 -42
-113 -81 -212 -88 -220 -7 -9 -85 -24 -236 -45 -124 -17 -431 -63 -684 -102
-252 -38 -460 -69 -462 -67 -2 3 925 3293 940 3334 3 6 -6 16 -19 22 -21 10
-26 5 -71 -66 -305 -482 -741 -810 -1219 -917 -40 -9 -144 -18 -245 -22 -159
-5 -182 -4 -253 16 -157 43 -320 144 -466 290 -228 226 -343 439 -381 706 -15
106 -12 389 5 522 43 325 149 694 269 933 231 460 665 983 1106 1335 360 286
797 496 1180 565 147 27 419 23 535 -9z"/>
<path d="M2996 6531 c-3 -5 17 -11 44 -13 35 -2 50 1 50 10 0 14 -86 17 -94 3z"/>
<path d="M2843 6518 c-24 -5 -43 -13 -43 -19 0 -10 80 -1 93 11 15 14 -7 17
-50 8z"/>
<path d="M3190 6512 c0 -12 89 -31 95 -21 3 4 -11 13 -32 18 -46 13 -63 14
-63 3z"/>
<path d="M2648 6463 c-21 -8 -38 -19 -38 -24 0 -12 3 -12 50 7 22 9 40 20 40
25 0 12 -8 11 -52 -8z"/>
<path d="M3380 6457 c0 -13 59 -47 80 -47 23 0 7 18 -35 38 -32 16 -45 18 -45
9z"/>
<path d="M2475 6388 c-48 -25 -50 -26 -43 -34 8 -8 88 34 88 46 0 12 3 13 -45
-12z"/>
<path d="M3546 6361 c-7 -11 61 -64 76 -59 6 2 -7 18 -30 36 -22 18 -43 28
-46 23z"/>
<path d="M2295 6283 c-21 -15 -34 -28 -28 -30 13 -5 83 38 83 50 0 13 -14 8
-55 -20z"/>
<path d="M4540 6271 c-7 -14 -7 -22 1 -27 12 -7 29 12 29 34 0 19 -18 14 -30
-7z"/>
<path d="M3068 6260 c-190 -32 -355 -125 -510 -289 -155 -163 -294 -401 -463
-796 -241 -562 -405 -1068 -405 -1251 0 -209 110 -418 258 -491 75 -37 186
-38 275 -4 227 89 536 431 827 918 224 373 390 763 426 1003 25 163 26 504 1
614 -35 160 -109 265 -205 294 -43 13 -132 14 -204 2z m183 -47 c49 -10 120
-85 147 -158 61 -159 68 -469 17 -761 -27 -161 -199 -561 -364 -849 -154 -268
-395 -598 -558 -762 -92 -93 -203 -174 -282 -204 -78 -31 -179 -31 -244 0 -92
45 -175 166 -212 311 -23 88 -16 223 20 355 92 346 326 954 511 1324 196 394
400 614 658 708 91 33 237 50 307 36z"/>
<path d="M3690 6222 c0 -4 16 -23 35 -42 23 -22 35 -29 35 -19 0 8 -13 27 -28
42 -29 27 -42 33 -42 19z"/>
<path d="M2136 6171 c-20 -16 -33 -32 -28 -35 5 -3 26 7 46 23 20 16 33 32 28
35 -5 3 -26 -7 -46 -23z"/>
<path d="M4452 6121 c-24 -42 -26 -51 -14 -51 7 0 52 73 52 84 0 18 -19 1 -38
-33z"/>
<path d="M4501 6128 c-19 -50 -21 -67 -12 -72 5 -3 16 15 25 41 19 55 19 53 6
53 -6 0 -14 -10 -19 -22z"/>
<path d="M1987 6045 c-21 -18 -34 -35 -30 -38 12 -7 77 47 72 60 -2 6 -21 -4
-42 -22z"/>
<path d="M3817 6074 c-8 -9 44 -85 54 -78 5 3 -3 23 -18 44 -28 44 -27 43 -36
34z"/>
<path d="M4358 5967 c-28 -42 -39 -67 -30 -67 14 0 63 78 53 84 -5 3 -15 -4
-23 -17z"/>
<path d="M4441 5938 c-19 -51 -22 -68 -13 -68 6 0 17 20 25 45 16 45 4 66 -12
23z"/>
<path d="M1842 5907 c-18 -18 -29 -36 -25 -40 7 -8 73 51 73 65 0 16 -17 7
-48 -25z"/>
<path d="M3910 5905 c0 -15 42 -85 50 -85 14 0 13 5 -10 50 -17 34 -40 53 -40
35z"/>
<path d="M4240 5775 c-12 -19 -20 -41 -18 -47 4 -11 58 62 58 77 0 16 -21 0
-40 -30z"/>
<path d="M1711 5765 c-18 -20 -30 -40 -26 -43 9 -9 68 54 63 68 -2 7 -17 -3
-37 -25z"/>
<path d="M4372 5731 c-14 -46 -15 -51 -3 -51 5 0 16 20 24 45 12 35 13 45 3
45 -7 0 -18 -17 -24 -39z"/>
<path d="M3995 5713 c4 -10 12 -30 17 -45 9 -26 28 -39 28 -19 0 20 -31 81
-41 81 -7 0 -8 -7 -4 -17z"/>
<path d="M1585 5615 c-38 -50 -26 -66 13 -17 18 22 28 43 23 46 -5 3 -21 -10
-36 -29z"/>
<path d="M4133 5600 c-25 -43 -27 -50 -14 -50 10 0 51 65 51 81 0 20 -16 7
-37 -31z"/>
<path d="M4320 5566 c-18 -47 -22 -76 -12 -76 11 0 38 88 29 97 -4 3 -11 -6
-17 -21z"/>
<path d="M4060 5528 c0 -7 4 -19 9 -27 11 -17 23 1 15 23 -7 19 -24 21 -24 4z"/>
<path d="M1465 5454 c-26 -34 -28 -57 -3 -36 20 16 50 72 40 72 -5 0 -22 -16
-37 -36z"/>
<path d="M4029 5429 c-24 -39 -26 -50 -11 -48 12 3 53 77 44 83 -4 2 -19 -13
-33 -35z"/>
<path d="M4252 5361 c-14 -46 -15 -61 -4 -61 9 0 32 66 32 89 0 25 -18 8 -28
-28z"/>
<path d="M1351 5290 c-12 -22 -18 -40 -12 -40 11 0 51 53 51 69 0 22 -17 10
-39 -29z"/>
<path d="M3923 5255 c-24 -36 -29 -55 -15 -55 7 0 52 73 52 84 0 16 -17 2 -37
-29z"/>
<path d="M4192 5171 c-14 -46 -15 -51 -4 -51 5 0 14 17 20 39 14 46 15 51 4
51 -5 0 -14 -17 -20 -39z"/>
<path d="M1247 5124 c-16 -27 -22 -44 -14 -44 15 0 60 77 49 84 -4 2 -20 -15
-35 -40z"/>
<path d="M3817 5080 c-14 -24 -23 -48 -20 -53 7 -12 56 70 51 85 -3 7 -16 -8
-31 -32z"/>
<path d="M4127 4975 c-12 -35 -13 -45 -3 -45 7 0 18 17 24 39 14 46 15 51 3
51 -5 0 -16 -20 -24 -45z"/>
<path d="M1152 4961 c-24 -42 -26 -51 -14 -51 13 0 53 78 44 84 -5 3 -19 -12
-30 -33z"/>
<path d="M3718 4918 c-29 -46 -39 -68 -28 -68 9 0 60 72 60 85 0 13 -19 3 -32
-17z"/>
<path d="M4067 4785 c-16 -45 -4 -66 12 -22 19 50 22 67 13 67 -6 0 -17 -20
-25 -45z"/>
<path d="M1055 4780 c-10 -22 -16 -43 -13 -46 6 -5 48 61 48 77 0 22 -18 6
-35 -31z"/>
<path d="M3603 4730 c-25 -43 -27 -50 -14 -50 10 0 51 65 51 81 0 20 -16 7
-37 -31z"/>
<path d="M970 4609 c-13 -24 -18 -45 -13 -50 5 -5 18 10 31 36 27 56 10 70
-18 14z"/>
<path d="M4006 4604 c-15 -46 -14 -67 3 -48 16 17 31 78 22 87 -5 5 -15 -11
-25 -39z"/>
<path d="M3494 4550 c-15 -22 -24 -43 -20 -47 8 -8 16 1 45 50 30 50 8 48 -25
-3z"/>
<path d="M892 4437 c-7 -18 -12 -41 -12 -50 0 -27 17 -20 24 11 3 15 8 37 12
50 10 35 -11 26 -24 -11z"/>
<path d="M3947 4415 c-9 -24 -12 -47 -7 -50 4 -3 15 16 24 42 19 55 19 53 7
53 -5 0 -16 -20 -24 -45z"/>
<path d="M3401 4398 c-8 -13 -21 -33 -29 -45 -12 -19 -12 -23 -1 -23 12 0 59
68 59 84 0 14 -16 4 -29 -16z"/>
<path d="M855 4253 c-4 -16 -8 -36 -10 -45 -4 -24 12 -33 19 -11 14 52 17 83
7 83 -6 0 -13 -12 -16 -27z"/>
<path d="M3891 4248 c-19 -50 -21 -67 -12 -72 5 -3 16 15 25 41 19 55 19 53 6
53 -6 0 -14 -10 -19 -22z"/>
<path d="M3282 4201 c-24 -42 -26 -51 -14 -51 7 0 52 73 52 84 0 18 -19 1 -38
-33z"/>
<path d="M816 4043 c-6 -45 -2 -63 10 -50 4 3 9 26 11 52 7 60 -12 59 -21 -2z"/>
<path d="M3831 4058 c-19 -51 -22 -68 -13 -68 6 0 17 20 25 45 16 45 4 66 -12
23z"/>
<path d="M3176 4029 c-15 -22 -25 -43 -22 -47 3 -3 7 -3 9 -1 28 35 57 77 57
82 0 18 -20 3 -44 -34z"/>
<path d="M3052 3877 c-39 -40 -44 -72 -6 -36 27 25 48 58 42 65 -3 2 -19 -11
-36 -29z"/>
<path d="M798 3894 c-5 -4 -8 -28 -8 -53 0 -32 3 -42 11 -34 5 5 9 29 7 53 -2
23 -6 38 -10 34z"/>
<path d="M3770 3875 c-18 -47 -22 -75 -12 -75 14 0 43 88 31 95 -5 4 -13 -6
-19 -20z"/>
<path d="M5511 3811 c-13 -23 -14 -31 -3 -31 13 0 32 39 22 45 -5 3 -14 -3
-19 -14z"/>
<path d="M2910 3715 c-18 -19 -31 -38 -27 -42 8 -7 54 33 68 60 16 28 -5 19
-41 -18z"/>
<path d="M777 3704 c-10 -11 -8 -94 2 -94 5 0 11 19 13 43 5 41 -2 64 -15 51z"/>
<path d="M3710 3686 c-18 -47 -22 -76 -12 -76 11 0 38 88 29 97 -4 3 -11 -6
-17 -21z"/>
<path d="M5395 3674 c-15 -19 -24 -38 -21 -42 6 -6 65 57 66 71 1 17 -20 4
-45 -29z"/>
<path d="M2770 3565 c-18 -19 -31 -37 -29 -40 3 -2 23 13 44 35 22 22 35 40
29 40 -6 0 -25 -16 -44 -35z"/>
<path d="M5267 3524 c-16 -19 -26 -38 -22 -42 7 -7 65 56 65 70 0 17 -16 7
-43 -28z"/>
<path d="M3642 3481 c-14 -46 -15 -61 -4 -61 9 0 32 66 32 89 0 25 -18 8 -28
-28z"/>
<path d="M778 3465 c2 -25 8 -45 13 -45 5 0 9 20 9 45 0 29 -4 45 -13 45 -8 0
-11 -14 -9 -45z"/>
<path d="M2620 3425 c-18 -19 -31 -37 -28 -40 7 -7 78 53 78 66 0 17 -16 9
-50 -26z"/>
<path d="M5140 3375 c-36 -37 -35 -62 1 -29 23 21 43 53 37 60 -3 2 -20 -12
-38 -31z"/>
<path d="M2467 3295 c-21 -18 -34 -36 -29 -39 5 -3 26 9 47 28 21 18 34 35 29
38 -5 3 -26 -9 -47 -27z"/>
<path d="M3582 3291 c-14 -46 -15 -51 -4 -51 5 0 14 17 20 39 14 46 15 51 4
51 -5 0 -14 -17 -20 -39z"/>
<path d="M817 3275 c8 -25 19 -45 25 -45 6 0 7 8 3 18 -3 9 -9 29 -12 45 -3
15 -11 27 -19 27 -10 0 -10 -9 3 -45z"/>
<path d="M5004 3215 c-15 -20 -24 -38 -21 -41 6 -6 66 56 67 69 0 17 -21 4
-46 -28z"/>
<path d="M2308 3173 c-35 -23 -49 -43 -31 -43 15 0 82 53 77 61 -6 11 -2 13
-46 -18z"/>
<path d="M880 3132 c0 -4 13 -23 30 -42 34 -40 41 -24 8 20 -21 29 -38 39 -38
22z"/>
<path d="M3517 3095 c-12 -35 -13 -45 -3 -45 7 0 18 17 24 39 14 46 15 51 3
51 -5 0 -16 -20 -24 -45z"/>
<path d="M4875 3064 c-15 -19 -24 -38 -20 -42 6 -7 64 56 65 71 0 17 -20 5
-45 -29z"/>
<path d="M2140 3059 c-43 -26 -45 -28 -37 -35 7 -7 87 36 87 48 0 13 -12 10
-50 -13z"/>
<path d="M1006 2991 c-6 -10 48 -61 65 -61 17 0 8 15 -26 43 -18 15 -36 23
-39 18z"/>
<path d="M1965 2959 c-16 -10 -34 -21 -40 -23 -5 -2 -7 -6 -3 -10 8 -9 88 31
88 44 0 14 -10 11 -45 -11z"/>
<path d="M3460 2915 c-13 -48 -7 -74 8 -34 19 51 22 68 14 73 -5 3 -15 -15
-22 -39z"/>
<path d="M4746 2914 c-16 -19 -25 -38 -21 -42 7 -7 65 55 65 70 0 16 -16 6
-44 -28z"/>
<path d="M1160 2880 c0 -13 78 -52 84 -42 3 5 -15 18 -39 30 -25 12 -45 17
-45 12z"/>
<path d="M1771 2876 c-40 -14 -58 -43 -20 -31 13 4 36 14 52 22 49 25 28 31
-32 9z"/>
<path d="M1573 2817 c-40 -9 -60 -27 -30 -27 26 0 87 21 87 30 0 11 0 11 -57
-3z"/>
<path d="M1334 2799 c-5 -8 51 -29 77 -29 11 0 19 6 19 14 0 15 -88 28 -96 15z"/>
<path d="M4622 2766 c-44 -50 -41 -69 4 -24 20 19 35 41 32 48 -2 7 -17 -2
-36 -24z"/>
<path d="M3397 2725 c-9 -26 -12 -47 -6 -50 9 -6 23 22 35 70 11 44 -13 27
-29 -20z"/>
<path d="M4484 2605 c-15 -20 -24 -39 -20 -42 6 -7 65 55 66 70 1 17 -21 4
-46 -28z"/>
<path d="M3337 2535 c-9 -24 -12 -47 -7 -50 4 -3 15 16 24 42 19 55 19 53 7
53 -5 0 -16 -20 -24 -45z"/>
<path d="M4357 2454 c-16 -19 -26 -38 -22 -42 6 -7 64 56 65 71 0 16 -16 5
-43 -29z"/>
<path d="M3281 2368 c-19 -53 -22 -68 -11 -68 6 0 14 10 19 23 19 52 22 67 11
67 -6 0 -14 -10 -19 -22z"/>
<path d="M4226 2304 c-16 -19 -25 -38 -21 -42 7 -8 65 52 65 68 0 18 -14 9
-44 -26z"/>
<path d="M3221 2178 c-19 -51 -22 -68 -13 -68 6 0 17 20 25 45 16 45 4 66 -12
23z"/>
<path d="M4096 2149 c-24 -28 -33 -49 -21 -49 8 0 64 64 65 73 0 16 -20 5 -44
-24z"/>
<path d="M3965 1994 c-15 -19 -24 -38 -21 -42 6 -6 65 57 66 71 1 17 -20 4
-45 -29z"/>
<path d="M3160 1995 c-18 -47 -22 -75 -12 -75 14 0 43 88 31 95 -5 4 -13 -6
-19 -20z"/>
<path d="M3837 1844 c-16 -19 -26 -38 -22 -42 7 -7 65 56 65 70 0 17 -16 7
-43 -28z"/>
<path d="M3100 1806 c-18 -47 -22 -76 -12 -76 11 0 38 88 29 97 -4 3 -11 -6
-17 -21z"/>
<path d="M3710 1695 c-36 -37 -35 -62 1 -29 23 21 43 53 37 60 -3 2 -20 -12
-38 -31z"/>
<path d="M3031 1600 c-15 -51 -2 -77 15 -29 7 18 13 42 13 52 2 32 -16 18 -28
-23z"/>
<path d="M3574 1535 c-15 -20 -24 -38 -21 -41 6 -6 66 56 67 69 0 17 -21 4
-46 -28z"/>
<path d="M2972 1411 c-14 -46 -15 -51 -4 -51 5 0 14 17 20 39 14 46 15 51 4
51 -5 0 -14 -17 -20 -39z"/>
<path d="M3445 1384 c-15 -19 -24 -38 -20 -42 6 -7 64 56 65 71 0 17 -20 5
-45 -29z"/>
<path d="M3316 1234 c-16 -19 -25 -38 -21 -42 7 -7 65 55 65 70 0 16 -16 6
-44 -28z"/>
<path d="M2911 1229 c-13 -38 -14 -59 -3 -59 8 0 32 65 32 84 0 19 -20 2 -29
-25z"/>
<path d="M3192 1086 c-44 -50 -41 -69 4 -24 20 19 35 41 32 48 -2 7 -17 -2
-36 -24z"/>
<path d="M2850 1035 c-14 -50 -7 -74 10 -31 18 47 22 76 12 76 -5 0 -15 -20
-22 -45z"/>
<path d="M3054 925 c-15 -20 -24 -39 -20 -42 6 -7 65 55 66 70 1 17 -21 4 -46
-28z"/>
<path d="M2787 845 c-9 -26 -12 -47 -6 -50 9 -6 23 22 35 70 11 44 -13 27 -29
-20z"/>
<path d="M2927 774 c-16 -19 -26 -38 -22 -42 6 -7 64 56 65 71 0 16 -16 5 -43
-29z"/>
<path d="M2727 655 c-9 -24 -12 -47 -7 -50 4 -3 15 16 24 42 19 55 19 53 7 53
-5 0 -16 -20 -24 -45z"/>
<path d="M2796 624 c-16 -19 -25 -38 -21 -42 7 -8 65 52 65 68 0 18 -14 9 -44
-26z"/>
<path d="M2677 503 c-10 -9 -8 -43 2 -43 5 0 14 7 21 15 17 21 -4 48 -23 28z"/>
<path d="M5161 5568 c-16 -51 -421 -1509 -421 -1516 0 -4 -10 9 -22 28 -24 40
-37 26 -14 -17 31 -57 30 -57 74 -34 22 11 43 25 47 31 10 16 -18 12 -44 -7
-24 -16 -24 -16 -17 13 8 30 412 1485 422 1517 3 9 1 17 -5 17 -5 0 -14 -15
-20 -32z"/>
<path d="M5079 4839 l-24 -20 23 6 c21 6 22 4 22 -54 0 -34 4 -61 10 -61 12 0
13 137 1 144 -5 3 -20 -3 -32 -15z"/>
<path d="M5228 4849 c-10 -5 -18 -17 -18 -26 0 -15 2 -15 13 1 14 19 48 19 54
0 2 -6 -15 -34 -37 -63 l-40 -51 50 0 c32 0 49 4 45 10 -3 6 -17 10 -31 10
l-25 0 25 33 c28 37 33 66 14 85 -14 14 -27 15 -50 1z"/>
<path d="M5150 4720 c0 -5 5 -10 10 -10 6 0 10 5 10 10 0 6 -4 10 -10 10 -5 0
-10 -4 -10 -10z"/>
<path d="M40 4273 c0 -5 -5 -37 -10 -73 -21 -144 -30 -405 -20 -575 21 -346
83 -613 197 -840 320 -641 973 -782 1906 -414 53 22 100 39 102 39 3 0 -2 -18
-11 -40 -15 -36 -13 -82 3 -66 4 3 19 38 34 77 l28 71 -35 14 c-19 8 -50 21
-70 29 -35 14 -54 13 -54 -4 0 -5 21 -16 46 -26 27 -10 42 -21 37 -26 -5 -5
-75 -34 -155 -64 -786 -296 -1375 -210 -1698 247 -147 207 -247 496 -285 824
-19 161 -19 534 -1 699 14 119 13 135 -5 135 -5 0 -9 -3 -9 -7z"/>
<path d="M5444 2751 c3 -4 20 -11 38 -15 32 -6 31 -7 -68 -72 -139 -93 -219
-159 -373 -309 -273 -266 -503 -566 -690 -901 -107 -191 -223 -476 -203 -496
5 -5 24 38 42 94 43 130 174 395 278 561 266 423 615 804 933 1017 119 81 119
81 112 33 -4 -24 -2 -34 4 -28 10 11 37 95 31 99 -2 2 -18 8 -37 15 -40 13
-74 15 -67 2z"/>
<path d="M209 2459 l-24 -20 23 6 c21 6 22 4 22 -54 0 -34 4 -61 10 -61 12 0
13 137 1 144 -5 3 -20 -3 -32 -15z"/>
<path d="M4769 1679 l-24 -20 23 6 c21 6 22 4 22 -54 0 -34 4 -61 10 -61 12 0
13 137 1 144 -5 3 -20 -3 -32 -15z"/>
<path d="M4905 1680 c-10 -11 -13 -20 -7 -20 6 0 14 5 17 10 3 6 15 10 26 10
27 0 26 -40 -2 -47 -20 -5 -20 -6 3 -17 12 -6 24 -19 26 -27 4 -24 -27 -32
-54 -14 -25 16 -33 8 -12 -13 19 -19 66 -15 78 7 11 22 4 51 -13 51 -7 0 -7 4
1 12 18 18 14 46 -7 58 -27 14 -35 13 -56 -10z"/>
<path d="M4840 1560 c0 -5 5 -10 10 -10 6 0 10 5 10 10 0 6 -4 10 -10 10 -5 0
-10 -4 -10 -10z"/>
</g>
</svg>
