<?xml version="1.0" standalone="no"?>
<!DOCTYPE svg PUBLIC "-//W3C//DTD SVG 20010904//EN"
 "http://www.w3.org/TR/2001/REC-SVG-20010904/DTD/svg10.dtd">
<svg version="1.0" xmlns="http://www.w3.org/2000/svg"
 width="676.000000pt" height="689.000000pt" viewBox="0 0 676.000000 689.000000"
 preserveAspectRatio="xMidYMid meet">
<metadata>
Created by potrace 1.16, written by Peter Selinger 2001-2019
</metadata>
<g transform="translate(0.000000,689.000000) scale(0.100000,-0.100000)"
fill="#000000" stroke="none">
<path d="M3890 6872 c0 -16 12 -21 87 -31 333 -47 680 -203 928 -419 297 -257
478 -632 502 -1037 l6 -100 -30 28 c-31 28 -63 36 -63 14 0 -15 101 -117 116
-117 14 0 114 103 114 118 0 22 -34 12 -67 -20 l-33 -32 0 63 c0 87 -26 257
-56 371 -98 364 -307 652 -633 871 -229 155 -547 273 -813 304 -53 6 -58 5
-58 -13z"/>
<path d="M1476 6849 c-280 -36 -499 -162 -600 -344 -37 -68 -153 -804 -210
-1345 -205 -1914 -105 -3680 273 -4861 38 -119 43 -127 83 -156 64 -46 158
-90 240 -114 105 -30 311 -37 438 -15 130 23 321 88 421 144 93 52 214 163
224 205 5 17 -12 136 -44 309 -112 620 -181 1141 -197 1473 l-7 140 39 -36
c85 -80 211 -143 362 -182 76 -19 113 -22 297 -22 238 0 331 15 545 85 421
138 862 432 1133 755 l50 60 179 12 c589 40 1111 231 1418 519 262 247 491
662 606 1100 l36 138 -17 56 c-61 196 -206 350 -330 350 -87 0 -217 -89 -230
-158 -23 -125 -179 -530 -262 -681 -115 -208 -193 -290 -394 -418 -169 -107
-240 -144 -330 -171 -71 -22 -277 -57 -285 -49 -3 3 5 22 18 44 141 226 282
577 326 813 49 258 55 656 13 853 -56 260 -208 579 -388 815 -219 287 -621
494 -1055 542 -115 13 -216 2 -382 -39 -303 -77 -559 -223 -768 -439 -193
-199 -394 -563 -529 -961 l-49 -146 6 115 c31 603 89 1139 139 1279 19 56 19
94 -1 137 -68 142 -438 235 -768 193z m433 -74 c113 -25 199 -63 248 -110 49
-48 51 -57 23 -157 -57 -211 -111 -753 -140 -1418 -5 -129 -12 -265 -14 -302
l-3 -68 28 0 c31 0 34 6 44 94 9 75 54 262 95 391 102 321 295 703 454 901
223 278 593 482 973 539 211 32 483 -23 749 -150 155 -73 253 -142 370 -259
185 -185 370 -513 451 -796 55 -195 68 -465 38 -756 -34 -322 -171 -694 -373
-1014 -45 -70 -57 -96 -45 -98 25 -6 274 28 363 50 116 28 201 69 381 183 184
117 277 206 364 346 111 179 233 465 305 716 30 102 35 113 73 142 80 61 151
65 226 10 50 -35 118 -137 155 -231 26 -67 26 -68 11 -135 -55 -242 -186 -561
-315 -768 -129 -206 -306 -397 -471 -506 -108 -70 -271 -151 -410 -203 -260
-96 -645 -166 -915 -166 l-80 0 -64 -80 c-278 -354 -844 -697 -1321 -802 -91
-20 -131 -23 -319 -22 -245 0 -307 12 -456 83 -83 39 -207 143 -219 182 -5 16
-14 19 -38 17 l-32 -3 1 -170 c3 -326 70 -855 200 -1573 l46 -253 -24 -35
c-50 -75 -194 -164 -361 -223 -315 -111 -626 -92 -834 51 -40 27 -44 35 -83
155 -49 155 -128 466 -170 673 -234 1159 -264 2664 -84 4245 50 447 156 1122
189 1211 8 22 38 65 65 96 102 115 271 194 487 228 84 13 344 4 432 -15z"/>
<path d="M3845 6041 c-33 -16 -79 -42 -101 -59 -126 -92 -296 -286 -427 -485
-86 -129 -91 -140 -228 -427 -319 -674 -508 -1125 -534 -1272 l-6 -38 133 6
c326 16 853 -37 1165 -116 65 -17 119 -30 120 -30 4 0 93 281 132 415 91 319
158 624 187 850 13 103 15 176 10 350 -11 376 -32 551 -80 659 -70 157 -223
218 -371 147z m224 -59 c119 -73 163 -284 165 -802 1 -213 -3 -287 -17 -375
-45 -270 -149 -687 -247 -988 -35 -107 -44 -127 -58 -122 -69 26 -352 77 -552
100 -182 20 -578 39 -667 31 -40 -3 -73 -4 -73 -2 0 18 92 264 148 396 155
365 481 1058 550 1170 108 175 221 318 353 446 99 95 165 142 234 166 61 21
104 16 164 -20z"/>
<path d="M2918 4013 c-51 -13 2 -21 185 -27 326 -11 524 -36 672 -84 70 -23
76 -26 51 -31 -16 -3 -31 -12 -34 -20 -4 -12 6 -13 54 -7 32 4 60 8 62 11 9 9
-14 109 -27 113 -10 3 -12 -5 -10 -35 l4 -39 -37 18 c-98 47 -329 83 -631 98
-212 10 -261 11 -289 3z"/>
<path d="M2392 3240 c-97 -14 -131 -36 -169 -109 -28 -52 -33 -74 -33 -129 0
-129 77 -221 265 -315 154 -77 234 -92 348 -62 69 18 217 84 217 97 0 5 45 59
101 121 91 101 219 275 219 297 0 10 -55 22 -230 50 -292 46 -593 67 -718 50z
m468 -75 c143 -18 383 -55 389 -61 7 -6 -104 -147 -186 -235 -44 -47 -84 -93
-89 -101 -10 -17 -124 -69 -189 -87 -88 -24 -173 -7 -305 59 -203 102 -274
222 -211 353 28 58 50 74 121 86 71 13 310 6 470 -14z"/>
<path d="M291 4863 c-125 -520 -156 -1222 -85 -1933 18 -181 65 -525 92 -664
l19 -96 -23 15 c-28 18 -44 19 -44 3 0 -11 78 -68 92 -68 8 0 58 78 58 90 0
17 -21 11 -39 -11 -17 -21 -18 -16 -44 137 -91 532 -123 930 -114 1452 7 456
42 772 116 1066 17 65 28 123 25 127 -14 23 -25 -1 -53 -118z"/>
<path d="M5821 4756 c-50 -18 -55 -41 -7 -32 l37 7 -17 -33 c-156 -304 -362
-585 -481 -655 -32 -18 -41 -29 -33 -37 16 -16 75 20 149 94 111 111 234 291
351 513 l57 109 11 -31 c14 -39 37 -42 29 -3 -17 83 -30 92 -96 68z"/>
<path d="M4400 2503 c-258 -261 -458 -377 -885 -516 -112 -37 -536 -157 -552
-157 -2 0 3 13 12 29 10 20 12 32 4 36 -6 4 -12 5 -13 4 -12 -14 -56 -90 -56
-96 0 -15 98 -64 105 -53 4 6 5 13 4 14 -2 1 -15 10 -28 19 -24 16 -24 16 30
31 30 8 131 35 224 61 613 168 871 300 1173 602 106 106 134 143 104 143 -4 0
-59 -53 -122 -117z"/>
</g>
</svg>
