<?xml version="1.0" encoding="UTF-8"?>
<svg version="1.1" xmlns="http://www.w3.org/2000/svg" width="624" height="506">
<path d="M0 0 C10.04172468 8.10184605 14.83674906 19.47699141 17 32 C18.07780338 49.17498267 17.25766203 65.97508302 12.24194336 82.49707031 C11.7409378 85.03499263 11.7409378 85.03499263 13.24414062 87.0012207 C13.87513672 87.63632568 14.50613281 88.27143066 15.15625 88.92578125 C15.84976563 89.64056641 16.54328125 90.35535156 17.2578125 91.09179688 C18.36769531 92.19104492 18.36769531 92.19104492 19.5 93.3125 C20.92843081 94.76560371 22.35552269 96.22002488 23.78125 97.67578125 C24.48983154 98.39411133 25.19841309 99.11244141 25.9284668 99.85253906 C29.08371596 103.12343731 32.04798962 106.54615679 35 110 C35.48710449 110.56533447 35.97420898 111.13066895 36.47607422 111.71313477 C37.88326833 113.34755492 39.28604467 114.98565748 40.6875 116.625 C41.72910899 117.84249726 42.77077741 119.05994368 43.8125 120.27734375 C44.60140625 121.19942627 44.60140625 121.19942627 45.40625 122.14013672 C46.97623688 123.97226908 48.54997431 125.80110477 50.125 127.62890625 C56.18860893 134.67039243 62.14700789 141.781628 68 149 C68.99555867 150.21398067 69.99168954 151.42749224 70.98828125 152.640625 C83.25643281 167.60501218 94.87178511 183.03489527 106.28564453 198.65771484 C107.93274011 200.90810433 109.58876638 203.15167198 111.24609375 205.39453125 C133.21559714 235.27601109 155.98454256 268.42624888 168.51074219 303.51416016 C171.27340942 311.9721467 171.27340942 311.9721467 177.19140625 318.2109375 C180.55132969 319.28886516 183.4872105 319.78558298 187 320 C188.2375 320.2475 189.475 320.495 190.75 320.75 C191.8225 320.8325 192.895 320.915 194 321 C194.62390625 321.0515625 195.2478125 321.103125 195.890625 321.15625 C216.23101781 322.06026746 232.88806948 312.60474852 247.48046875 299.50390625 C253.52972691 293.49216286 258.61603616 287.00200809 263.375 279.9375 C263.93807861 279.10460449 264.50115723 278.27170898 265.08129883 277.41357422 C272.91705167 265.73873836 279.70154151 254.08117549 285.46362305 241.23095703 C290.46246626 230.27933246 297.87956869 223.45844731 309 218.625 C318.83789422 215.0643269 328.36309304 215.35869609 338.08203125 219.2265625 C351.4162863 225.4995328 358.92392373 234.36675756 364.16796875 248.046875 C365.02845178 251.03634655 365.57108197 253.91958869 366 257 C366.18304687 258.08023437 366.36609375 259.16046875 366.5546875 260.2734375 C368.83416646 285.45890015 344.05442174 314.49678127 329 333 C328.51208984 333.60360352 328.02417969 334.20720703 327.52148438 334.82910156 C315.57880237 349.49484435 302.30964724 362.86530211 287 374 C285.94425781 374.77730469 284.88851562 375.55460937 283.80078125 376.35546875 C251.47181469 399.45894916 211.78964142 413.69360912 171.828125 407.53515625 C169 407 169 407 166 406 C165.67 407.19625 165.34 408.3925 165 409.625 C159.34269021 426.46474924 147.0522678 440.36317142 135 453 C134.20980469 453.85464844 133.41960937 454.70929688 132.60546875 455.58984375 C112.81769001 476.36208909 85.06613562 489.96688406 57 495 C55.13408203 495.33644531 55.13408203 495.33644531 53.23046875 495.6796875 C12.41778955 501.81630044 -32.52768398 493.08245039 -66.125 468.6875 C-93.37909777 447.43364126 -108.76718157 419.85997956 -114.3125 385.8125 C-117.64398241 358.16760268 -111.16880036 331.74856118 -93.87280273 309.69897461 C-77.61810513 289.51834152 -52.26733695 272.62803418 -26.16918945 269.5168457 C1.77467207 266.8874004 28.98321286 269.87995089 56 277 C46.32697995 263.95933593 36.25782563 251.26471618 25.99609375 238.68359375 C23.60003947 235.74396592 21.2306009 232.78469991 18.875 229.8125 C14.51832472 224.35298433 9.99969905 219.03329389 5.46630859 213.72070312 C3.99057585 211.98894083 2.5203988 210.25257806 1.05078125 208.515625 C-9.75369666 195.78019432 -21.12207801 183.73673965 -33 172 C-38.63354895 183.21568475 -44.19474131 194.46470593 -49.6875 205.75 C-50.07873047 206.55324707 -50.46996094 207.35649414 -50.87304688 208.18408203 C-56.38398898 219.50741567 -61.76800148 230.87808225 -67.02612305 242.32128906 C-71.91942427 252.926363 -77.04462171 263.41355829 -82.17626953 273.90478516 C-87.0579229 283.88989273 -91.85947347 293.9000305 -96.5 304 C-101.88574225 315.7219096 -107.50845114 327.31740219 -113.17626953 338.90478516 C-118.05795545 348.88995931 -122.85716873 358.90104356 -127.5 369 C-132.31714781 379.42771732 -137.16950271 389.83860478 -142.12695312 400.20043945 C-142.9062492 401.83526011 -143.68033837 403.47257489 -144.44873047 405.11254883 C-151.38726849 419.90387571 -158.54429685 430.66265435 -174.375 436.8125 C-186.85134971 440.89958008 -198.46004043 439.20847805 -210.25 433.6875 C-220.44192726 428.25288056 -226.61264284 420.69383889 -230.375 409.75 C-234.76316313 393.97831746 -230.5384741 380.15630445 -223.4375 365.9375 C-222.63034546 364.28947388 -222.63034546 364.28947388 -221.80688477 362.6081543 C-218.41560744 355.72477925 -214.89873977 348.91550666 -211.28076172 342.14916992 C-200.63253087 322.12842831 -190.6235429 301.71335746 -180.92993164 281.21582031 C-177.39270703 273.75678602 -173.70751274 266.37556933 -170 259 C-164.41208875 247.87470957 -158.95779976 236.69620168 -153.63183594 225.44335938 C-152.09145576 222.19298205 -150.54570818 218.94522207 -148.99847412 215.69810486 C-112.32645137 150.9522481 -112.32645137 150.9522481 -94.0078125 81.5859375 C-94.02810129 80.09587919 -94.04734953 78.60580642 -94.06567383 77.11572266 C-94.08133896 75.95305878 -94.08133896 75.95305878 -94.09732056 74.76690674 C-94.38334255 50.0504437 -92.74505939 25.16983336 -74.6875 6.125 C-55.30432171 -11.95071264 -22.04893364 -15.05263739 0 0 Z M-72 12 C-84.49905964 27.09626684 -88.19545354 45.80936502 -88.125 64.9375 C-88.12886719 65.98357422 -88.13273438 67.02964844 -88.13671875 68.10742188 C-88.13111316 72.56666567 -88.09180581 76.88190138 -87.37890625 81.2890625 C-84.25808836 111.85377382 -116.47931171 160.07039179 -129.30761719 187.39306641 C-130.79052415 190.5535493 -132.26836674 193.71631629 -133.74424744 196.88008118 C-143.10243179 216.93226092 -152.71703365 236.85274644 -162.44670105 256.72702026 C-165.0106552 261.96712674 -167.55826035 267.21482022 -170.09375 272.46875 C-171.49878101 275.37559088 -172.9052812 278.28171767 -174.3125 281.1875 C-174.66817047 281.92249725 -175.02384094 282.65749451 -175.39028931 283.4147644 C-181.23380016 295.47018031 -187.22424962 307.44910861 -193.25319481 319.41251564 C-194.5456291 321.97793692 -195.83678851 324.54399573 -197.1275177 327.11027527 C-197.99801262 328.84085271 -198.8685113 330.57142826 -199.73901367 332.30200195 C-200.1727382 333.16434417 -200.60646273 334.02668638 -201.05333042 334.91516018 C-203.66424629 340.1037132 -206.28472608 345.28730167 -208.91195393 350.46761227 C-210.57444189 353.75074868 -212.22852162 357.03807232 -213.88065529 360.32642937 C-214.65807108 361.86926021 -215.43903161 363.41031088 -216.22382164 364.94940376 C-222.90590324 378.06041921 -228.78440877 390.9656909 -225.30859375 405.98828125 C-222.13948258 415.57517403 -216.42107687 423.65687296 -207.3515625 428.37890625 C-196.90919162 433.29213974 -186.64408033 434.89497332 -175.4765625 431.1015625 C-161.62168539 424.93898309 -155.01664276 413.95379769 -148.875 400.75 C-148.2169652 399.36098656 -147.55784692 397.97248594 -146.89770508 396.58447266 C-142.2348597 386.7522788 -137.67831518 376.86928808 -133.12646484 366.98535156 C-128.17817459 356.28076478 -123.00596934 345.68999562 -117.82455444 335.09686279 C-112.94262394 325.11120568 -108.14078351 315.10052882 -103.5 305 C-98.1139452 293.27741014 -92.49095612 281.68121538 -86.82272339 270.09320068 C-81.96171447 260.15054418 -77.18082513 250.18321503 -72.5625 240.125 C-66.94636236 227.89365672 -61.05625225 215.80603899 -55.13562012 203.72000122 C-48.5368283 190.24245989 -42.12510592 176.70072814 -36 163 C-31.64610583 165.76653692 -27.77622219 168.78956101 -24 172.3125 C-23.44602539 172.8273999 -22.89205078 173.3422998 -22.32128906 173.87280273 C-12.88783965 182.76323426 -4.16404828 192.33352924 3.92578125 202.45703125 C6.04087596 205.05011347 8.24518096 207.527849 10.5 210 C15.20463572 215.1750993 19.60518139 220.56141197 24 226 C24.99917657 227.21942517 25.99922565 228.43813577 27 229.65625 C33.21109589 237.23161098 39.27043642 244.89970979 45.18774414 252.70678711 C48.7767785 257.43273739 52.45174925 262.07696346 56.1875 266.6875 C61.76430546 273.58088485 66.93377913 280.72571384 72 288 C66.38338498 286.50789709 60.80803119 284.94017369 55.26171875 283.20288086 C47.77057065 280.89011233 40.27779746 279.14868729 32.5625 277.75 C31.66362061 277.58701416 30.76474121 277.42402832 29.83862305 277.25610352 C19.3365526 275.4342466 9.05333095 274.81344705 -1.60229492 274.81469727 C-3.66671744 274.8125219 -5.73059403 274.79432941 -7.79492188 274.77539062 C-21.61541765 274.71579645 -34.42898122 275.7525846 -47 282 C-47.64727051 282.31356445 -48.29454102 282.62712891 -48.96142578 282.95019531 C-74.16025339 295.2368888 -94.24611102 313.59286207 -104.2578125 340.36328125 C-110.28818221 359.01275796 -110.31594361 377.062523 -106 396 C-105.75056641 397.10843262 -105.75056641 397.10843262 -105.49609375 398.23925781 C-102.83654182 409.68025621 -98.76260303 419.77953424 -93 430 C-92.45601562 430.98484375 -91.91203125 431.9696875 -91.3515625 432.984375 C-74.68524923 461.11385984 -44.31507203 478.45471638 -13.41796875 486.41845703 C22.75417495 495.11817899 60.6848575 492.98120406 94 476 C94.95261719 475.52820313 95.90523438 475.05640625 96.88671875 474.5703125 C125.85001979 459.60241678 152.56523824 431.30428529 163 400 C163.70125 400.13277344 164.4025 400.26554687 165.125 400.40234375 C166.07375 400.57894531 167.0225 400.75554687 168 400.9375 C169.3921875 401.19853516 169.3921875 401.19853516 170.8125 401.46484375 C199.76300535 406.32540654 227.94964149 399.73973703 254 387 C254.65597168 386.68160156 255.31194336 386.36320312 255.98779297 386.03515625 C271.45892371 378.42782647 285.16623055 368.45210501 298 357 C298.53141602 356.53029785 299.06283203 356.0605957 299.61035156 355.57666016 C305.83866802 350.05773201 311.6755379 344.40992111 317 338 C317.80695312 337.08089844 318.61390625 336.16179687 319.4453125 335.21484375 C335.4970109 316.86006292 360.99088426 286.09533234 360.34375 260.6953125 C359.19886918 248.38784369 354.0786724 238.60304722 345.1875 230.125 C337.6376307 223.95709136 328.43221827 221.39143857 318.7578125 222.18359375 C310.33855959 223.63673883 301.49694568 228.24825038 295.6640625 234.5234375 C292.89456223 238.64518204 291.10844436 243.19117428 289.18408203 247.75439453 C281.44355089 265.96027087 269.67910488 282.88891164 257 298 C256.46375 298.68191406 255.9275 299.36382812 255.375 300.06640625 C243.94937585 314.10124745 225.57519447 323.93780222 207.7421875 326.4609375 C198.91558775 327.34952137 190.68824278 326.70067731 182 325 C180.85015625 324.8659375 179.7003125 324.731875 178.515625 324.59375 C174.36021357 323.6963372 172.25352684 322.79176326 169 320 C165.05771733 313.4620152 162.68663256 306.110905 160.11132812 298.95800781 C158.63233566 295.02139256 156.86900326 291.29390013 154.9375 287.5625 C154.61233398 286.93110107 154.28716797 286.29970215 153.95214844 285.64916992 C153.29983789 284.39199844 152.6439445 283.13667912 151.984375 281.88330078 C150.97999805 279.96173239 150.00415442 278.02751314 149.03125 276.08984375 C123.974519 226.7741014 87.66966633 181.55685151 51.8828125 139.58398438 C49.03615846 136.24207912 46.25419148 132.85582276 43.5 129.4375 C39.37309794 124.36392507 34.99897442 119.56258858 30.5546875 114.76953125 C28.49886278 112.54081607 26.48383043 110.29232081 24.5 108 C21.05435492 104.02040508 17.48877883 100.15502235 13.90625 96.29882812 C12.59219968 94.87685148 11.29577605 93.43864875 10 92 C9.20980469 91.22011719 8.41960937 90.44023438 7.60546875 89.63671875 C5.34115799 85.91796021 6.08839141 83.04024926 7 79 C7.22623047 77.92878906 7.22623047 77.92878906 7.45703125 76.8359375 C7.78209244 75.34012748 8.11684915 73.84639694 8.46044922 72.35473633 C12.91148187 52.92930197 14.33612318 32.44232654 4.5703125 14.3515625 C-0.73551492 5.89778006 -8.09120358 0.88732857 -17.625 -1.9375 C-36.55994458 -5.89148972 -58.33797744 -2.71802431 -72 12 Z " fill="#000000" transform="translate(258,9)"/>
<path d="M0 0 C-0.16706852 6.51567233 -3.68685664 10.4821651 -8 15 C-22.46740082 28.34455777 -41.18840471 36.81180204 -60 42 C-60.928125 42.26425781 -61.85625 42.52851563 -62.8125 42.80078125 C-74.03539521 45.51421151 -86.99911199 45.5376061 -97.2109375 39.74609375 C-104.10398696 35.04395778 -107.71135605 28.93200957 -110 21 C-111.99984469 7.5333039 -110.51526298 -3.21643303 -103.3125 -14.6875 C-79.14604246 -38.85395754 -23.21344803 -15.47563202 0 0 Z M-98.53125 -10.8046875 C-104.21161115 -3.82509481 -105.76498364 5.21739934 -105 14 C-103.78685977 22.89231789 -101.10208758 29.28826819 -94 35 C-85.41206001 40.24351717 -73.46354633 38.94969635 -64.00415039 36.86865234 C-42.78272058 31.64149543 -20.79095081 21.42014839 -7 4 C-25.77642686 -11.40994628 -77.77439257 -30.48453818 -98.53125 -10.8046875 Z " fill="#000000" transform="translate(334,380)"/>
<path d="M0 0 C3.97163516 1.64677555 4.74468794 4.22489675 6.5625 8.0625 C6.5625 8.7225 6.5625 9.3825 6.5625 10.0625 C4.625 9.6875 4.625 9.6875 2.5625 9.0625 C2.0675 8.0725 2.0675 8.0725 1.5625 7.0625 C-0.60044699 13.24829501 -2.37822985 19.45284152 -3.93359375 25.81640625 C-4.40764168 27.72173808 -4.88227615 29.62692406 -5.35742188 31.53198242 C-5.60419678 32.52459076 -5.85097168 33.5171991 -6.10522461 34.53988647 C-22.78793819 101.40103318 -44.98628784 167.0607663 -74.24121094 229.49804688 C-75.33432243 231.84132099 -76.40924041 234.19177104 -77.4765625 236.546875 C-87.7448272 259.05897766 -99.74414585 284.36914585 -117.4375 302.0625 C-118.4275 302.0625 -119.4175 302.0625 -120.4375 302.0625 C-120.4375 299.0625 -120.4375 299.0625 -118.19140625 296.6875 C-117.28261719 295.82125 -116.37382813 294.955 -115.4375 294.0625 C-83.38696389 256.65995499 -63.77584656 201.07861327 -47.4375 155.0625 C-47.7675 154.7325 -48.0975 154.4025 -48.4375 154.0625 C-48.67113881 152.21358054 -48.85053635 150.35761969 -49 148.5 C-49.12568359 146.98212891 -49.12568359 146.98212891 -49.25390625 145.43359375 C-49.31449219 144.65113281 -49.37507813 143.86867187 -49.4375 143.0625 C-50.4275 143.3925 -51.4175 143.7225 -52.4375 144.0625 C-52.4375 143.0725 -52.4375 142.0825 -52.4375 141.0625 C-49.4375 139.0625 -49.4375 139.0625 -46.4375 139.0625 C-45.9425 144.5075 -45.9425 144.5075 -45.4375 150.0625 C-28.79298365 102.20803255 -14.9120991 54.16318083 -2.4375 5.0625 C-3.4275 5.7225 -4.4175 6.3825 -5.4375 7.0625 C-7.625 6.6875 -7.625 6.6875 -9.4375 6.0625 C-3.66799956 0.09405127 -3.66799956 0.09405127 0 0 Z " fill="#000000" transform="translate(120.4375,84.9375)"/>
<path d="M0 0 C8.5841453 8.40279012 15.79574395 17.95508633 23.03881836 27.5065918 C26.64259335 32.25167648 30.31782726 36.92802227 34.0625 41.5625 C38.57200036 47.15560461 42.93375362 52.84138349 47.22338867 58.60449219 C51.39564458 64.20863467 55.63008748 69.76325361 59.875 75.3125 C70.75133415 89.55627228 81.33345585 104.00953393 91.796875 118.55859375 C93.89750316 121.47790536 96.01219178 124.38606057 98.140625 127.28515625 C107.15590553 139.59707961 115.61445856 152.25308375 124 165 C125.02470891 166.54689532 126.04944574 168.09377214 127.07421875 169.640625 C135.69052922 182.72292613 143.42300335 196.29580083 151 210 C151.66 208.68 152.32 207.36 153 206 C153.99 206 154.98 206 156 206 C155.52269162 207.4589426 155.04308958 208.91713496 154.5625 210.375 C154.29566406 211.18710937 154.02882813 211.99921875 153.75390625 212.8359375 C153 215 153 215 152 217 C147.87248551 216.39301257 144.6678852 214.96189209 141 213 C141 212.01 141 211.02 141 210 C142.65 210.33 144.3 210.66 146 211 C144.83887371 208.62216159 143.67115383 206.2478975 142.5 203.875 C142.18546875 203.22917969 141.8709375 202.58335937 141.546875 201.91796875 C135.39073927 189.48731006 128.11546404 177.8586376 120.375 166.375 C119.48936862 165.05445139 118.60387242 163.73381211 117.71850586 162.41308594 C106.49110227 145.6955931 94.86897435 129.26737287 83 113 C82.44876465 112.24396484 81.8975293 111.48792969 81.32958984 110.70898438 C73.23176702 99.61914799 64.96986029 88.66177894 56.62890625 77.75390625 C53.77296144 74.01808114 50.93929304 70.26728115 48.125 66.5 C37.50877744 52.30505081 26.57481653 38.33840066 15.6081543 24.41308594 C14.2777673 22.7227794 12.9512721 21.02947349 11.625 19.3359375 C9.78852485 16.99318333 7.93046514 14.66926859 6.0625 12.3515625 C5.12477918 11.17205052 4.18727145 9.99236909 3.25 8.8125 C2.80688477 8.27133545 2.36376953 7.7301709 1.90722656 7.17260742 C0.703125 5.64453125 0.703125 5.64453125 -1 3 C-0.67 2.01 -0.34 1.02 0 0 Z " fill="#000000" transform="translate(296,73)"/>
<path d="M0 0 C0.67408308 1.26691507 1.33900497 2.53870749 2 3.8125 C2.37125 4.52019531 2.7425 5.22789062 3.125 5.95703125 C4 8 4 8 4 11 C3.01 11 2.02 11 1 11 C0.01 9.02 0.01 9.02 -1 7 C-1.25056152 7.56283691 -1.50112305 8.12567383 -1.75927734 8.70556641 C-12.19888161 31.93782861 -24.41947489 51.45030852 -48.63671875 62.17578125 C-55.78326039 64.66821147 -62.10123114 65.31412303 -69.625 65.25 C-70.99785156 65.26160156 -70.99785156 65.26160156 -72.3984375 65.2734375 C-77.3313332 65.25918058 -81.3759683 64.93564118 -86 63 C-85.67 62.01 -85.34 61.02 -85 60 C-83.81857422 60.23396484 -83.81857422 60.23396484 -82.61328125 60.47265625 C-65.6583821 63.50246663 -50.42238208 60.60803391 -36 51 C-21.4613904 39.66785087 -11.34465088 23.22119525 -5 6 C-6.98 6.33 -8.96 6.66 -11 7 C-11 6.01 -11 5.02 -11 4 C-9.73308493 3.32591692 -8.46129251 2.66099503 -7.1875 2 C-6.47980469 1.62875 -5.77210938 1.2575 -5.04296875 0.875 C-3 0 -3 0 0 0 Z " fill="#000000" transform="translate(527,248)"/>
<path d="M0 0 C3.0625 0.1875 3.0625 0.1875 5.0625 2.1875 C4.90004442 5.92397845 4.47466356 7.71288742 2 10.5625 C1.360625 11.09875 0.72125 11.635 0.0625 12.1875 C1.7125 12.5175 3.3625 12.8475 5.0625 13.1875 C5.0625 13.8475 5.0625 14.5075 5.0625 15.1875 C1.7625 15.1875 -1.5375 15.1875 -4.9375 15.1875 C-2.9375 11.1875 -2.9375 11.1875 -0.8125 8.625 C1.36735538 6.30372611 1.36735538 6.30372611 1.0625 3.1875 C0.4025 3.1875 -0.2575 3.1875 -0.9375 3.1875 C-1.2675 3.8475 -1.5975 4.5075 -1.9375 5.1875 C-2.9275 5.1875 -3.9175 5.1875 -4.9375 5.1875 C-3.82120474 0.24390669 -3.82120474 0.24390669 0 0 Z " fill="#000000" transform="translate(385.9375,149.8125)"/>
<path d="M0 0 C3.3 0.99 6.6 1.98 10 3 C10 6 10 9 10 12 C9.01 12.33 8.02 12.66 7 13 C6.74476563 12.16855469 6.74476563 12.16855469 6.484375 11.3203125 C5.09174014 6.74877023 5.09174014 6.74877023 1.8125 3.5 C1.214375 3.335 0.61625 3.17 0 3 C0 2.01 0 1.02 0 0 Z " fill="#000000" transform="translate(377,340)"/>
<path d="M0 0 C0 4.95 0 9.9 0 15 C-0.99 15 -1.98 15 -3 15 C-3 11.37 -3 7.74 -3 4 C-3.99 4.33 -4.98 4.66 -6 5 C-5.625 3.0625 -5.625 3.0625 -5 1 C-3 0 -3 0 0 0 Z " fill="#000000" transform="translate(62,224)"/>
<path d="M0 0 C0 4.95 0 9.9 0 15 C-0.99 15 -1.98 15 -3 15 C-3 11.37 -3 7.74 -3 4 C-3.99 4.33 -4.98 4.66 -6 5 C-5.625 3.0625 -5.625 3.0625 -5 1 C-3 0 -3 0 0 0 Z " fill="#000000" transform="translate(373,150)"/>
<path d="M0 0 C3.34998521 1.11666174 3.79340222 1.74694925 5.6875 4.5625 C6.12449219 5.20316406 6.56148437 5.84382813 7.01171875 6.50390625 C7.33785156 6.99761719 7.66398438 7.49132812 8 8 C7.67 8.66 7.34 9.32 7 10 C3.21282653 8.51218185 1.22592999 6.38011591 -1 3 C-0.67 2.01 -0.34 1.02 0 0 Z " fill="#000000" transform="translate(196,430)"/>
<path d="M0 0 C0.66 0 1.32 0 2 0 C3.32421875 1.64453125 3.32421875 1.64453125 4.6875 3.8125 C5.14511719 4.52019531 5.60273438 5.22789062 6.07421875 5.95703125 C7 8 7 8 6 11 C5.34 11 4.68 11 4 11 C2.67578125 9.35546875 2.67578125 9.35546875 1.3125 7.1875 C0.85488281 6.47980469 0.39726562 5.77210938 -0.07421875 5.04296875 C-1 3 -1 3 0 0 Z " fill="#000000" transform="translate(339,249)"/>
<path d="M0 0 C4.05606165 0.46800711 7.46588679 0.87953208 11 3 C10.67 3.99 10.34 4.98 10 6 C6.7 5.01 3.4 4.02 0 3 C0 2.01 0 1.02 0 0 Z " fill="#000000" transform="translate(415,354)"/>
<path d="M0 0 C-2.77079887 3.80984844 -6.62868145 4.06840752 -11 5 C-10.67578125 3.08203125 -10.67578125 3.08203125 -10 1 C-6.36961463 -0.69417984 -3.80522763 -1.46354909 0 0 Z " fill="#000000" transform="translate(335,460)"/>
<path d="M0 0 C0.99 0.33 1.98 0.66 3 1 C2.40606618 2.29640378 1.79942011 3.58698839 1.1875 4.875 C0.85105469 5.59429687 0.51460938 6.31359375 0.16796875 7.0546875 C-1 9 -1 9 -4 11 C-5 8 -5 8 -4.00390625 5.95703125 C-3.52824219 5.24933594 -3.05257813 4.54164063 -2.5625 3.8125 C-2.08941406 3.09707031 -1.61632812 2.38164062 -1.12890625 1.64453125 C-0.75636719 1.10183594 -0.38382812 0.55914062 0 0 Z " fill="#000000" transform="translate(379,421)"/>
<path d="M0 0 C0.99 0.33 1.98 0.66 3 1 C2.34 3.97 1.68 6.94 1 10 C-0.32 10.33 -1.64 10.66 -3 11 C-2.01 7.37 -1.02 3.74 0 0 Z " fill="#000000" transform="translate(386,402)"/>
<path d="M0 0 C0.66 0 1.32 0 2 0 C5 6.5 5 6.5 5 11 C4.01 11 3.02 11 2 11 C1.01 7.7 0.02 4.4 -1 1 C-0.67 0.67 -0.34 0.34 0 0 Z " fill="#000000" transform="translate(376,322)"/>
<path d="M0 0 C5.445 1.485 5.445 1.485 11 3 C10.67 3.99 10.34 4.98 10 6 C5.545 5.01 5.545 5.01 1 4 C0.67 2.68 0.34 1.36 0 0 Z " fill="#000000" transform="translate(319,321)"/>
<path d="M0 0 C3.28220895 1.64110448 3.74570789 4.69322988 5 8 C5 8.99 5 9.98 5 11 C4.01 11 3.02 11 2 11 C0.68 7.7 -0.64 4.4 -2 1 C-1.34 0.67 -0.68 0.34 0 0 Z " fill="#000000" transform="translate(369,303)"/>
<path d="M0 0 C0.66 0 1.32 0 2 0 C3.2890625 1.6796875 3.2890625 1.6796875 4.625 3.875 C5.29402344 4.95394531 5.29402344 4.95394531 5.9765625 6.0546875 C7 8 7 8 7 10 C5.25 9.875 5.25 9.875 3 9 C0.6875 6.125 0.6875 6.125 -1 3 C-0.67 2.01 -0.34 1.02 0 0 Z " fill="#000000" transform="translate(328,232)"/>
<path d="M0 0 C0 0.99 0 1.98 0 3 C-3.3 3.66 -6.6 4.32 -10 5 C-10 3.68 -10 2.36 -10 1 C-6.59437148 0.22157062 -3.49234244 -0.09978121 0 0 Z " fill="#000000" transform="translate(315,465)"/>
<path d="M0 0 C4.455 0.99 4.455 0.99 9 2 C9.33 3.32 9.66 4.64 10 6 C8.54096742 5.69078116 7.08279278 5.37751201 5.625 5.0625 C4.81289062 4.88847656 4.00078125 4.71445312 3.1640625 4.53515625 C1 4 1 4 -1 3 C-0.67 2.01 -0.34 1.02 0 0 Z " fill="#000000" transform="translate(245,463)"/>
<path d="M0 0 C0 0.99 0 1.98 0 3 C-6.625 7 -6.625 7 -10 7 C-10 6.01 -10 5.02 -10 4 C-3.375 0 -3.375 0 0 0 Z " fill="#000000" transform="translate(353,450)"/>
<path d="M0 0 C4.37859255 0.50522222 6.81651224 3.17827222 10 6 C9.67 6.66 9.34 7.32 9 8 C5.56801397 6.76067171 2.69674368 5.49698489 0 3 C0 2.01 0 1.02 0 0 Z " fill="#000000" transform="translate(209,445)"/>
<path d="M0 0 C0.66 0.33 1.32 0.66 2 1 C1.66410006 4.13506611 0.97334828 5.025249 -1.375 7.25 C-4 9 -4 9 -7 9 C-5.44499019 5.18315774 -2.96404505 2.80804268 0 0 Z " fill="#000000" transform="translate(367,437)"/>
<path d="M0 0 C0.99 0.33 1.98 0.66 3 1 C3.73046875 3.06640625 3.73046875 3.06640625 4.1875 5.5625 C4.34605469 6.38878906 4.50460938 7.21507812 4.66796875 8.06640625 C4.77753906 8.70449219 4.88710937 9.34257812 5 10 C3.68 10 2.36 10 1 10 C0.67 6.7 0.34 3.4 0 0 Z " fill="#000000" transform="translate(180,394)"/>
<path d="M0 0 C0.99 0 1.98 0 3 0 C4.28317892 3.84953676 4.06643637 6.94738135 4 11 C3.01 11 2.02 11 1 11 C0.67 7.37 0.34 3.74 0 0 Z " fill="#000000" transform="translate(386,362)"/>
<path d="M0 0 C3.8063457 0.67170806 7.35206816 1.72746564 11 3 C10.67 3.99 10.34 4.98 10 6 C6.7 5.01 3.4 4.02 0 3 C0 2.01 0 1.02 0 0 Z " fill="#000000" transform="translate(396,347)"/>
<path d="M0 0 C3.3 0.99 6.6 1.98 10 3 C10 3.99 10 4.98 10 6 C6.0507432 5.44894091 2.65079826 4.61064629 -1 3 C-0.67 2.01 -0.34 1.02 0 0 Z " fill="#000000" transform="translate(358,333)"/>
<path d="M0 0 C0.99 0.33 1.98 0.66 3 1 C3 1.66 3 2.32 3 3 C0.03 4.65 -2.94 6.3 -6 8 C-6 6.68 -6 5.36 -6 4 C-3.1875 1.6875 -3.1875 1.6875 0 0 Z " fill="#000000" transform="translate(210,327)"/>
<path d="M0 0 C0 0.99 0 1.98 0 3 C-6.625 6 -6.625 6 -10 6 C-10 5.01 -10 4.02 -10 3 C-3.375 0 -3.375 0 0 0 Z " fill="#000000" transform="translate(230,319)"/>
<path d="M0 0 C3.3 0.33 6.6 0.66 10 1 C10.33 2.32 10.66 3.64 11 5 C7.7 4.34 4.4 3.68 1 3 C0.67 2.01 0.34 1.02 0 0 Z " fill="#000000" transform="translate(299,317)"/>
<path d="M0 0 C3 1 3 1 4.16796875 3.06640625 C4.50441406 3.89011719 4.84085937 4.71382813 5.1875 5.5625 C5.53167969 6.38878906 5.87585938 7.21507812 6.23046875 8.06640625 C6.48441406 8.70449219 6.73835938 9.34257812 7 10 C5.68 10 4.36 10 3 10 C1.68 7.03 0.36 4.06 -1 1 C-0.67 0.67 -0.34 0.34 0 0 Z " fill="#000000" transform="translate(359,285)"/>
<path d="M0 0 C0.99 0 1.98 0 3 0 C3.67154933 1.28913487 4.33708859 2.58140204 5 3.875 C5.37125 4.59429687 5.7425 5.31359375 6.125 6.0546875 C7 8 7 8 7 10 C6.01 10 5.02 10 4 10 C0 3.375 0 3.375 0 0 Z " fill="#000000" transform="translate(349,267)"/>
<path d="M0 0 C0.66 0 1.32 0 2 0 C3.65 2.97 5.3 5.94 7 9 C5.68 9 4.36 9 3 9 C0.6875 6.1875 0.6875 6.1875 -1 3 C-0.67 2.01 -0.34 1.02 0 0 Z " fill="#000000" transform="translate(296,184)"/>
<path d="M0 0 C4.04648443 1.34882814 4.95502599 3.34826069 7 7 C6.67 7.99 6.34 8.98 6 10 C5.34 10 4.68 10 4 10 C2.35 7.03 0.7 4.06 -1 1 C-0.67 0.67 -0.34 0.34 0 0 Z " fill="#000000" transform="translate(285,168)"/>
<path d="M0 0 C0.66 0 1.32 0 2 0 C3.65 2.97 5.3 5.94 7 9 C5.68 9 4.36 9 3 9 C0.6875 6.1875 0.6875 6.1875 -1 3 C-0.67 2.01 -0.34 1.02 0 0 Z " fill="#000000" transform="translate(253,120)"/>
<path d="M0 0 C4.04648443 1.34882814 4.95502599 3.34826069 7 7 C6.67 7.99 6.34 8.98 6 10 C5.34 10 4.68 10 4 10 C2.35 7.03 0.7 4.06 -1 1 C-0.67 0.67 -0.34 0.34 0 0 Z " fill="#000000" transform="translate(242,104)"/>
<path d="M0 0 C3.63 0.33 7.26 0.66 11 1 C11 1.99 11 2.98 11 4 C9.54176788 4.0270043 8.08339325 4.04639787 6.625 4.0625 C5.81289063 4.07410156 5.00078125 4.08570313 4.1640625 4.09765625 C2 4 2 4 0 3 C0 2.01 0 1.02 0 0 Z " fill="#000000" transform="translate(264,467)"/>
<path d="M0 0 C1.890625 0.21484375 1.890625 0.21484375 4 1 C5.046875 3.06640625 5.046875 3.06640625 5.75 5.5625 C5.99234375 6.38878906 6.2346875 7.21507812 6.484375 8.06640625 C6.65453125 8.70449219 6.8246875 9.34257812 7 10 C6.01 10 5.02 10 4 10 C3.32845067 8.71086513 2.66291141 7.41859796 2 6.125 C1.62875 5.40570313 1.2575 4.68640625 0.875 3.9453125 C0 2 0 2 0 0 Z " fill="#000000" transform="translate(185,413)"/>
<path d="M0 0 C0.66 0.33 1.32 0.66 2 1 C1.39009109 4.55780196 0.4216319 7.6828589 -1 11 C-1.99 10.67 -2.98 10.34 -4 10 C-3.52449439 8.51965236 -3.04448784 7.04074979 -2.5625 5.5625 C-2.29566406 4.73878906 -2.02882813 3.91507812 -1.75390625 3.06640625 C-1 1 -1 1 0 0 Z " fill="#000000" transform="translate(78,385)"/>
<path d="M0 0 C0.99 0 1.98 0 3 0 C3 3.3 3 6.6 3 10 C2.01 10.33 1.02 10.66 0 11 C0 7.37 0 3.74 0 0 Z " fill="#000000" transform="translate(388,382)"/>
<path d="M0 0 C0 0.99 0 1.98 0 3 C-3.63 3.33 -7.26 3.66 -11 4 C-10.67 3.01 -10.34 2.02 -10 1 C-6.59437148 0.22157062 -3.49234244 -0.09978121 0 0 Z " fill="#000000" transform="translate(485,367)"/>
<path d="M0 0 C0.99 0.33 1.98 0.66 3 1 C1.68 3.97 0.36 6.94 -1 10 C-1.99 10 -2.98 10 -4 10 C-3.52449439 8.51965236 -3.04448784 7.04074979 -2.5625 5.5625 C-2.29566406 4.73878906 -2.02882813 3.91507812 -1.75390625 3.06640625 C-1 1 -1 1 0 0 Z " fill="#000000" transform="translate(85,367)"/>
<path d="M0 0 C3.3 0.66 6.6 1.32 10 2 C10 2.99 10 3.98 10 5 C6.37 4.34 2.74 3.68 -1 3 C-0.67 2.01 -0.34 1.02 0 0 Z " fill="#000000" transform="translate(455,365)"/>
<path d="M0 0 C0 0.99 0 1.98 0 3 C-4.95 4.485 -4.95 4.485 -10 6 C-9.67 4.68 -9.34 3.36 -9 2 C-5.82254537 0.61849799 -3.46877176 0 0 0 Z " fill="#000000" transform="translate(504,362)"/>
<path d="M0 0 C1.46015291 0.28241641 2.91809793 0.57626614 4.375 0.875 C5.18710937 1.03742188 5.99921875 1.19984375 6.8359375 1.3671875 C9 2 9 2 11 4 C10.67 4.33 10.34 4.66 10 5 C2.60550459 4.40366972 2.60550459 4.40366972 -1 2 C-0.67 1.34 -0.34 0.68 0 0 Z " fill="#000000" transform="translate(435,360)"/>
<path d="M0 0 C0.66 0.33 1.32 0.66 2 1 C1.34 3.97 0.68 6.94 0 10 C-1.32 10 -2.64 10 -4 10 C-3.52449439 8.51965236 -3.04448784 7.04074979 -2.5625 5.5625 C-2.29566406 4.73878906 -2.02882812 3.91507812 -1.75390625 3.06640625 C-1 1 -1 1 0 0 Z " fill="#000000" transform="translate(184,355)"/>
<path d="M0 0 C0.66 0.99 1.32 1.98 2 3 C0.71186658 3.83878455 -0.58063256 4.67086783 -1.875 5.5 C-2.59429688 5.9640625 -3.31359375 6.428125 -4.0546875 6.90625 C-6 8 -6 8 -8 8 C-7.9375 6.25 -7.9375 6.25 -7 4 C-4.75835678 2.40498463 -2.46433357 1.25456982 0 0 Z " fill="#000000" transform="translate(520,353)"/>
<path d="M0 0 C0.99 0.66 1.98 1.32 3 2 C1.68 4.97 0.36 7.94 -1 11 C-1.99 10.67 -2.98 10.34 -4 10 C-2.68 6.7 -1.36 3.4 0 0 Z " fill="#000000" transform="translate(92,348)"/>
<path d="M0 0 C-0.33589994 3.13506611 -1.02665172 4.025249 -3.375 6.25 C-6 8 -6 8 -9 8 C-7.47364599 4.11473526 -4.49771687 0 0 0 Z " fill="#000000" transform="translate(537,342)"/>
<path d="M0 0 C3.3 0.99 6.6 1.98 10 3 C10 3.99 10 4.98 10 6 C6.37 5.01 2.74 4.02 -1 3 C-0.67 2.01 -0.34 1.02 0 0 Z " fill="#000000" transform="translate(339,327)"/>
<path d="M0 0 C3.3 0.33 6.6 0.66 10 1 C10.33 1.99 10.66 2.98 11 4 C9.741875 4.020625 8.48375 4.04125 7.1875 4.0625 C6.47980469 4.07410156 5.77210938 4.08570313 5.04296875 4.09765625 C3 4 3 4 0 3 C0 2.01 0 1.02 0 0 Z " fill="#000000" transform="translate(279,313)"/>
<path d="M0 0 C3.3 0 6.6 0 10 0 C10.33 0.99 10.66 1.98 11 3 C7.37 3 3.74 3 0 3 C0 2.01 0 1.02 0 0 Z " fill="#000000" transform="translate(259,312)"/>
<path d="M0 0 C0.99 0.33 1.98 0.66 3 1 C2.01 4.3 1.02 7.6 0 11 C-0.99 11 -1.98 11 -3 11 C-2.44894091 7.0507432 -1.61064629 3.65079826 0 0 Z " fill="#000000" transform="translate(106,311)"/>
<path d="M0 0 C0.99 0.33 1.98 0.66 3 1 C2.01 4.3 1.02 7.6 0 11 C-0.99 10.67 -1.98 10.34 -3 10 C-2.01 6.7 -1.02 3.4 0 0 Z " fill="#000000" transform="translate(113,293)"/>
<path d="M0 0 C0.66 0.33 1.32 0.66 2 1 C1.43454163 4.95820859 0.19097652 7.6659053 -2 11 C-2.66 10.67 -3.32 10.34 -4 10 C-3.43454163 6.04179141 -2.19097652 3.3340947 0 0 Z " fill="#000000" transform="translate(580,279)"/>
<path d="M0 0 C3.08089673 2.77280706 4.68775452 5.06326356 6 9 C5.01 9.33 4.02 9.66 3 10 C1.35 7.03 -0.3 4.06 -2 1 C-1.34 0.67 -0.68 0.34 0 0 Z " fill="#000000" transform="translate(318,216)"/>
<path d="M0 0 C0.99 0.33 1.98 0.66 3 1 C2.01 4.3 1.02 7.6 0 11 C-0.99 10.67 -1.98 10.34 -3 10 C-2.01 6.7 -1.02 3.4 0 0 Z " fill="#000000" transform="translate(149,201)"/>
<path d="M0 0 C0.99 0.33 1.98 0.66 3 1 C1.68 4.3 0.36 7.6 -1 11 C-1.99 10.34 -2.98 9.68 -4 9 C-2.68 6.03 -1.36 3.06 0 0 Z " fill="#000000" transform="translate(171,146)"/>
<path d="M0 0 C2.96404505 2.80804268 5.44499019 5.18315774 7 9 C6.01 9.33 5.02 9.66 4 10 C3.13342884 8.90554162 2.28207276 7.79902219 1.4375 6.6875 C0.96183594 6.07261719 0.48617188 5.45773438 -0.00390625 4.82421875 C-0.33261719 4.22222656 -0.66132813 3.62023437 -1 3 C-0.67 2.01 -0.34 1.02 0 0 Z " fill="#000000" transform="translate(264,136)"/>
<path d="M0 0 C0.99 0 1.98 0 3 0 C2.60404157 1.48484412 2.18249294 2.9628831 1.75 4.4375 C1.51796875 5.26121094 1.2859375 6.08492187 1.046875 6.93359375 C0.52867187 7.95646484 0.52867187 7.95646484 0 9 C-1.32 9.33 -2.64 9.66 -4 10 C-2.68 6.7 -1.36 3.4 0 0 Z " fill="#000000" transform="translate(178,128)"/>
<path d="M0 0 C0.99 0.33 1.98 0.66 3 1 C2.01 3.97 1.02 6.94 0 10 C-0.99 10 -1.98 10 -3 10 C-2.39009109 6.44219804 -1.4216319 3.3171411 0 0 Z " fill="#000000" transform="translate(185,109)"/>
<path d="M0 0 C0.99 0 1.98 0 3 0 C2.39009109 3.55780196 1.4216319 6.6828589 0 10 C-0.99 10 -1.98 10 -3 10 C-2.39009109 6.44219804 -1.4216319 3.3171411 0 0 Z " fill="#000000" transform="translate(192,91)"/>
<path d="M0 0 C1.75 0.125 1.75 0.125 4 1 C8 6.22222222 8 6.22222222 8 9 C6.25 8.875 6.25 8.875 4 8 C0 2.77777778 0 2.77777778 0 0 Z " fill="#000000" transform="translate(220,72)"/>
<path d="M0 0 C1.22589844 0.01353516 1.22589844 0.01353516 2.4765625 0.02734375 C3.41628906 0.04474609 3.41628906 0.04474609 4.375 0.0625 C4.375 1.0525 4.375 2.0425 4.375 3.0625 C0.745 3.0625 -2.885 3.0625 -6.625 3.0625 C-6.625 2.4025 -6.625 1.7425 -6.625 1.0625 C-4.21954362 -0.14022819 -2.67503047 -0.03821472 0 0 Z " fill="#000000" transform="translate(290.625,467.9375)"/>
<path d="M0 0 C0.66 0.33 1.32 0.66 2 1 C0.44499019 4.81684226 -2.03595495 7.19195732 -5 10 C-5.33 9.01 -5.66 8.02 -6 7 C-4.78515625 5.17578125 -4.78515625 5.17578125 -3.0625 3.3125 C-2.49660156 2.68988281 -1.93070313 2.06726563 -1.34765625 1.42578125 C-0.90292969 0.95527344 -0.45820313 0.48476563 0 0 Z " fill="#000000" transform="translate(195,339)"/>
<path d="M0 0 C0.99 0.33 1.98 0.66 3 1 C1.68 4.3 0.36 7.6 -1 11 C-1.66 10.67 -2.32 10.34 -3 10 C-2.49287967 6.28111761 -1.88391785 3.26545761 0 0 Z " fill="#000000" transform="translate(99,330)"/>
<path d="M0 0 C0 0.99 0 1.98 0 3 C-3.3 3.66 -6.6 4.32 -10 5 C-9.67 3.68 -9.34 2.36 -9 1 C-5.92677456 0.08941469 -3.19902639 -0.08886184 0 0 Z " fill="#000000" transform="translate(249,314)"/>
<path d="M0 0 C0.99 0.33 1.98 0.66 3 1 C-0.625 7.75 -0.625 7.75 -4 10 C-4 5.28093812 -2.71245796 3.72962969 0 0 Z " fill="#000000" transform="translate(560,313)"/>
<path d="M0 0 C0.99 0 1.98 0 3 0 C2.38545304 3.99455527 0.29353263 6.74466336 -2 10 C-2.66 9.67 -3.32 9.34 -4 9 C-2.80100302 5.9168649 -1.52299523 2.93720508 0 0 Z " fill="#000000" transform="translate(570,297)"/>
<path d="M0 0 C0.99 0 1.98 0 3 0 C2.49287967 3.71888239 1.88391785 6.73454239 0 10 C-0.99 10 -1.98 10 -3 10 C-2.01 6.7 -1.02 3.4 0 0 Z " fill="#000000" transform="translate(120,275)"/>
<path d="M0 0 C0.66 0.33 1.32 0.66 2 1 C1.49287967 4.71888239 0.88391785 7.73454239 -1 11 C-1.99 10.67 -2.98 10.34 -4 10 C-2.68 6.7 -1.36 3.4 0 0 Z " fill="#000000" transform="translate(128,256)"/>
<path d="M0 0 C0.99 0.33 1.98 0.66 3 1 C1.68 4.3 0.36 7.6 -1 11 C-1.66 10.67 -2.32 10.34 -3 10 C-2.69201674 8.51988629 -2.378482 7.04092675 -2.0625 5.5625 C-1.88847656 4.73878906 -1.71445313 3.91507813 -1.53515625 3.06640625 C-1 1 -1 1 0 0 Z " fill="#000000" transform="translate(135,238)"/>
<path d="M0 0 C0.99 0 1.98 0 3 0 C2.01 3.3 1.02 6.6 0 10 C-0.99 10 -1.98 10 -3 10 C-2.69201674 8.51988629 -2.378482 7.04092675 -2.0625 5.5625 C-1.88847656 4.73878906 -1.71445313 3.91507813 -1.53515625 3.06640625 C-1 1 -1 1 0 0 Z " fill="#000000" transform="translate(142,220)"/>
<path d="M0 0 C3.53586014 3.17320782 5.58578031 5.16743695 6 10 C2.19118361 8.55527654 0.70257114 6.67396929 -1 3 C-0.67 2.01 -0.34 1.02 0 0 Z " fill="#000000" transform="translate(307,200)"/>
<path d="M0 0 C0.99 0 1.98 0 3 0 C2.49287967 3.71888239 1.88391785 6.73454239 0 10 C-0.99 10 -1.98 10 -3 10 C-2.01 6.7 -1.02 3.4 0 0 Z " fill="#000000" transform="translate(156,183)"/>
<path d="M0 0 C0.66 0.33 1.32 0.66 2 1 C1.49287967 4.71888239 0.88391785 7.73454239 -1 11 C-1.99 10.67 -2.98 10.34 -4 10 C-2.68 6.7 -1.36 3.4 0 0 Z " fill="#000000" transform="translate(164,164)"/>
<path d="M0 0 C3.80881639 1.44472346 5.29742886 3.32603071 7 7 C6.67 7.99 6.34 8.98 6 10 C2.46413986 6.82679218 0.41421969 4.83256305 0 0 Z " fill="#000000" transform="translate(274,152)"/>
<path d="M0 0 C3.80881639 1.44472346 5.29742886 3.32603071 7 7 C6.67 7.99 6.34 8.98 6 10 C2.46413986 6.82679218 0.41421969 4.83256305 0 0 Z " fill="#000000" transform="translate(231,88)"/>
<path d="M0 0 C0.99 0 1.98 0 3 0 C2.39009109 3.55780196 1.4216319 6.6828589 0 10 C-0.99 10 -1.98 10 -3 10 C-2.01 6.7 -1.02 3.4 0 0 Z " fill="#000000" transform="translate(199,73)"/>
<path d="M0 0 C0.99 0 1.98 0 3 0 C3.99 2.97 4.98 5.94 6 9 C5.01 9.33 4.02 9.66 3 10 C0 3.375 0 3.375 0 0 Z " fill="#000000" transform="translate(212,55)"/>
<path d="M0 0 C0.66 0 1.32 0 2 0 C1.44894091 3.9492568 0.61064629 7.34920174 -1 11 C-1.99 10.34 -2.98 9.68 -4 9 C-2.68 6.03 -1.36 3.06 0 0 Z " fill="#000000" transform="translate(207,54)"/>
<path d="M0 0 C2.97 0.99 5.94 1.98 9 3 C9 4.32 9 5.64 9 7 C4.545 5.02 4.545 5.02 0 3 C0 2.01 0 1.02 0 0 Z " fill="#000000" transform="translate(226,456)"/>
<path d="M0 0 C0.66 0.33 1.32 0.66 2 1 C0.55746343 4.36591866 -1.33264727 6.51047079 -4 9 C-4.99 8.67 -5.98 8.34 -7 8 C-6.02133662 6.85373678 -5.04205413 5.70800212 -4.0625 4.5625 C-3.51722656 3.92441406 -2.97195313 3.28632813 -2.41015625 2.62890625 C-1.63204305 1.73008851 -0.84063472 0.84063472 0 0 Z " fill="#000000" transform="translate(549,328)"/>
<path d="M0 0 C0.99 0.33 1.98 0.66 3 1 C2.67 3.97 2.34 6.94 2 10 C1.01 10 0.02 10 -1 10 C-1.125 2.25 -1.125 2.25 0 0 Z " fill="#000000" transform="translate(179,375)"/>
<path d="M0 0 C0.99 0.33 1.98 0.66 3 1 C2.67 2.65 2.34 4.3 2 6 C0.68 5.67 -0.64 5.34 -2 5 C-1.34 3.35 -0.68 1.7 0 0 Z " fill="#000000" transform="translate(212,40)"/>
<path d="M0 0 C0.66 0.33 1.32 0.66 2 1 C1.67 2.65 1.34 4.3 1 6 C0.01 6 -0.98 6 -2 6 C-1.125 1.125 -1.125 1.125 0 0 Z " fill="#000000" transform="translate(586,266)"/>
<path d="M0 0 C0.99 0 1.98 0 3 0 C2.34 1.98 1.68 3.96 1 6 C0.34 5.67 -0.32 5.34 -1 5 C-0.67 3.35 -0.34 1.7 0 0 Z " fill="#000000" transform="translate(70,404)"/>
<path d="M0 0 C0.99 0.33 1.98 0.66 3 1 C2.67 1.99 2.34 2.98 2 4 C1.01 3.01 0.02 2.02 -1 1 C-0.67 0.67 -0.34 0.34 0 0 Z " fill="#000000" transform="translate(65,236)"/>
<path d="M0 0 C0.99 0.33 1.98 0.66 3 1 C2.67 1.99 2.34 2.98 2 4 C1.01 3.01 0.02 2.02 -1 1 C-0.67 0.67 -0.34 0.34 0 0 Z " fill="#000000" transform="translate(376,162)"/>
</svg>
