<svg width="280" height="204" viewBox="0 0 280 204" fill="none" xmlns="http://www.w3.org/2000/svg">
<path d="M51.5 201.5L4 3H57L81 119.5L115.5 3H166L202 119.5L224.5 3H276L230 201H171.5L141 88L109 201.5H51.5Z" stroke="black" stroke-width="5"/>
<circle cx="31.0957" cy="20.5957" r="8.09575" fill="black"/>
<path d="M77.5 184.5L76.5379 184.773L77.3569 187.661L78.4335 184.859L77.5 184.5ZM140.5 20.5L141.438 20.1539L140.519 17.662L139.567 20.1414L140.5 20.5ZM201 184.5L200.062 184.846L201.1 187.66L201.958 184.786L201 184.5ZM250.88 20.0249C250.618 19.5389 250.011 19.3577 249.525 19.6201L241.605 23.8958C241.119 24.1582 240.938 24.7649 241.201 25.2508C241.463 25.7368 242.07 25.9181 242.556 25.6557L249.595 21.855L253.396 28.8945C253.658 29.3805 254.265 29.5618 254.751 29.2994C255.237 29.037 255.418 28.4304 255.156 27.9444L250.88 20.0249ZM30.0379 20.7728L31.3296 25.3283L33.2537 24.7828L31.9621 20.2272L30.0379 20.7728ZM33.9129 34.4394L36.4963 43.5506L38.4204 43.005L35.8371 33.8939L33.9129 34.4394ZM39.0796 52.6617L41.6629 61.7728L43.5871 61.2272L41.0037 52.1161L39.0796 52.6617ZM44.2463 70.8839L46.8296 79.995L48.7537 79.4494L46.1704 70.3383L44.2463 70.8839ZM49.4129 89.1061L51.9963 98.2172L53.9204 97.6717L51.3371 88.5606L49.4129 89.1061ZM54.5796 107.328L57.1629 116.439L59.0871 115.894L56.5037 106.783L54.5796 107.328ZM59.7463 125.551L62.3296 134.662L64.2537 134.116L61.6704 125.005L59.7463 125.551ZM64.9129 143.773L67.4963 152.884L69.4204 152.338L66.8371 143.227L64.9129 143.773ZM70.0796 161.995L72.6629 171.106L74.5871 170.561L72.0037 161.449L70.0796 161.995ZM75.2463 180.217L76.5379 184.773L78.4621 184.227L77.1704 179.672L75.2463 180.217ZM78.4335 184.859L80.1835 180.303L78.3165 179.586L76.5665 184.141L78.4335 184.859ZM83.6835 171.192L87.1835 162.081L85.3165 161.364L81.8165 170.475L83.6835 171.192ZM90.6835 152.97L94.1835 143.859L92.3165 143.141L88.8165 152.253L90.6835 152.97ZM97.6835 134.747L101.183 125.636L99.3165 124.919L95.8165 134.03L97.6835 134.747ZM104.683 116.525L108.183 107.414L106.317 106.697L102.817 115.808L104.683 116.525ZM111.683 98.303L115.183 89.1919L113.317 88.4747L109.817 97.5858L111.683 98.303ZM118.683 80.0808L122.183 70.9697L120.317 70.2525L116.817 79.3636L118.683 80.0808ZM125.683 61.8586L129.183 52.7475L127.316 52.0303L123.817 61.1414L125.683 61.8586ZM132.683 43.6364L136.183 34.5253L134.316 33.8081L130.816 42.9192L132.683 43.6364ZM139.683 25.4142L141.433 20.8586L139.567 20.1414L137.816 24.697L139.683 25.4142ZM139.562 20.8461L141.242 25.4017L143.119 24.7095L141.438 20.1539L139.562 20.8461ZM144.603 34.5128L147.965 43.6239L149.841 42.9317L146.48 33.8206L144.603 34.5128ZM151.326 52.735L154.687 61.8461L156.563 61.1539L153.202 52.0428L151.326 52.735ZM158.048 70.9572L161.409 80.0683L163.285 79.3761L159.924 70.265L158.048 70.9572ZM164.77 89.1794L168.131 98.2905L170.008 97.5983L166.647 88.4872L164.77 89.1794ZM171.492 107.402L174.853 116.513L176.73 115.821L173.369 106.709L171.492 107.402ZM178.215 125.624L181.576 134.735L183.452 134.043L180.091 124.932L178.215 125.624ZM184.937 143.846L188.298 152.957L190.174 152.265L186.813 143.154L184.937 143.846ZM191.659 162.068L195.02 171.179L196.897 170.487L193.535 161.376L191.659 162.068ZM198.381 180.291L200.062 184.846L201.938 184.154L200.258 179.598L198.381 180.291ZM201.958 184.786L203.319 180.231L201.403 179.658L200.042 184.214L201.958 184.786ZM206.041 171.12L208.764 162.008L206.847 161.436L204.125 170.547L206.041 171.12ZM211.486 152.897L214.208 143.786L212.292 143.214L209.57 152.325L211.486 152.897ZM216.93 134.675L219.653 125.564L217.736 124.991L215.014 134.103L216.93 134.675ZM222.375 116.453L225.097 107.342L223.181 106.769L220.459 115.88L222.375 116.453ZM227.819 98.2307L230.541 89.1196L228.625 88.5471L225.903 97.6582L227.819 98.2307ZM233.264 80.0085L235.986 70.8974L234.07 70.3248L231.347 79.4359L233.264 80.0085ZM238.708 61.7863L241.43 52.6752L239.514 52.1026L236.792 61.2137L238.708 61.7863ZM244.153 43.564L246.875 34.4529L244.959 33.8804L242.236 42.9915L244.153 43.564ZM249.597 25.3418L250.958 20.7863L249.042 20.2137L247.681 24.7693L249.597 25.3418Z" fill="black"/>
</svg>
