<?xml version="1.0" encoding="UTF-8"?>
<svg version="1.1" xmlns="http://www.w3.org/2000/svg" width="178" height="199">
<path d="M0 0 C99.30787133 0 99.30787133 0 121 11.9375 C121.78560303 12.361521 122.57120605 12.78554199 123.38061523 13.22241211 C133.70494447 18.90084647 142.43261138 25.94871913 151 34 C151.61488281 34.53882813 152.22976562 35.07765625 152.86328125 35.6328125 C168.93308765 50.33576181 176.98068703 73.79926572 178 95 C178.61339722 125.89730039 165.73871689 154.5035675 144.6875 176.75 C129.99799161 190.8685381 112.33331809 199.19202923 91.95556641 199.11352539 C90.43791718 199.11370619 90.43791718 199.11370619 88.88960838 199.11389065 C85.62690376 199.11314653 82.36425685 199.10554112 79.1015625 199.09765625 C77.08227567 199.09618528 75.06298846 199.09516552 73.04370117 199.09460449 C65.57079495 199.08936958 58.0978969 199.07540833 50.625 199.0625 C33.91875 199.041875 17.2125 199.02125 0 199 C0 133.33 0 67.66 0 0 Z M6 6 C6 67.71 6 129.42 6 193 C21.55125 193.0825 37.1025 193.165 53.125 193.25 C60.45162842 193.30462402 60.45162842 193.30462402 67.92626953 193.36035156 C72.35947622 193.37374104 72.35947622 193.37374104 76.79269409 193.3817749 C78.74544944 193.38785989 80.69819112 193.40180719 82.65084839 193.42230225 C107.53280323 193.67008231 124.38207454 187.20906845 142.5625 169.8125 C161.0709599 150.83481154 171.59438951 124.95581147 172.25 98.5 C171.74131726 78.03300023 165.22130595 59.64748374 152 44 C151.34386719 43.19820312 150.68773437 42.39640625 150.01171875 41.5703125 C134.5243682 23.39320271 113.93084936 14.77233975 92 6 C63.62 6 35.24 6 6 6 Z " fill="#000000" transform="translate(0,0)"/>
<path d="M0 0 C52.69196429 0 52.69196429 0 69.8125 16.25 C82.8190201 30.15189649 86.54132931 45.15716625 86.2734375 63.62109375 C85.73840326 78.76891965 78.85927474 92.87956932 68.453125 103.78125 C47.86390006 122.40335154 28.87715214 118 0 118 C0 79.06 0 40.12 0 0 Z M6 6 C6 40.98 6 75.96 6 112 C40.03948774 113.16910357 40.03948774 113.16910357 65.6875 97.8125 C76.84239323 85.99988901 80.62789554 71.47593186 80.47290039 55.67480469 C80.0141312 41.93410797 74.46171532 29.99526441 65 20 C62.10998731 17.57331117 62.10998731 17.57331117 58.9375 15.4375 C57.91527344 14.71433594 56.89304688 13.99117187 55.83984375 13.24609375 C37.55662365 2.55143296 30.7908031 6 6 6 Z " fill="#000000" transform="translate(47,40)"/>
<path d="M0 0 C3.0261912 2.0174608 3.81051292 3.45522464 5 6.875 C5 11.15428291 3.89686146 12.88587393 1 16 C-3.02278753 17.24340706 -5.02687998 17.44425045 -8.875 15.6875 C-11 14 -11 14 -12 12 C-12.56872038 4.9478673 -12.56872038 4.9478673 -10.5 1.5 C-6.97359191 -0.61584485 -4.01178761 -0.80730018 0 0 Z " fill="#000000" transform="translate(31,15)"/>
<path d="M0 0 C1.32 0.66 2.64 1.32 4 2 C4 6 4 6 2.6875 7.484375 C1.125 8.65625 -0.4375 9.828125 -2 11 C-3.32 10.34 -4.64 9.68 -6 9 C-6 6 -6 6 -4.6875 4.39453125 C-4.130625 3.87246094 -3.57375 3.35039062 -3 2.8125 C-2.443125 2.28269531 -1.88625 1.75289062 -1.3125 1.20703125 C-0.6628125 0.60955078 -0.6628125 0.60955078 0 0 Z " fill="#000000" transform="translate(122,158)"/>
<path d="M0 0 C0.67119549 1.4562545 1.33681807 2.91507867 2 4.375 C2.556875 5.59316406 2.556875 5.59316406 3.125 6.8359375 C4 9 4 9 4 11 C2.02 11.33 0.04 11.66 -2 12 C-3.32 9.03 -4.64 6.06 -6 3 C-2.25 0 -2.25 0 0 0 Z " fill="#000000" transform="translate(146,65)"/>
<path d="M0 0 C3.98175544 2.10148204 6.35039045 4.36905358 9 8 C7.35 9.32 5.7 10.64 4 12 C1.69 9.69 -0.62 7.38 -3 5 C-2.01 3.35 -1.02 1.7 0 0 Z " fill="#000000" transform="translate(118,33)"/>
<path d="M0 0 C3.7952131 1.49097658 5.61042731 3.75700849 8 7 C7.34 8.32 6.68 9.64 6 11 C4.68 11 3.36 11 2 11 C0.515625 9.46875 0.515625 9.46875 -0.75 7.5 C-1.17796875 6.8503125 -1.6059375 6.200625 -2.046875 5.53125 C-2.36140625 5.0259375 -2.6759375 4.520625 -3 4 C-2.01 2.68 -1.02 1.36 0 0 Z " fill="#000000" transform="translate(132,48)"/>
<path d="M0 0 C1.9375 0.3125 1.9375 0.3125 4 1 C4.33 1.99 4.66 2.98 5 4 C3.78515625 6.04296875 3.78515625 6.04296875 2.0625 8.1875 C1.49660156 8.90292969 0.93070313 9.61835938 0.34765625 10.35546875 C-0.09707031 10.89816406 -0.54179687 11.44085938 -1 12 C-2.32 11.01 -3.64 10.02 -5 9 C-4.42647107 5.12867972 -2.51295648 2.91827204 0 0 Z " fill="#000000" transform="translate(135,143)"/>
<path d="M0 0 C2.97 0.495 2.97 0.495 6 1 C5.52269162 2.4589426 5.04308958 3.91713496 4.5625 5.375 C4.29566406 6.18710938 4.02882812 6.99921875 3.75390625 7.8359375 C3 10 3 10 2 12 C0.02 11.34 -1.96 10.68 -4 10 C-2.68 6.7 -1.36 3.4 0 0 Z " fill="#000000" transform="translate(144,125)"/>
<path d="M0 0 C3.63 0 7.26 0 11 0 C11 1.98 11 3.96 11 6 C7.37 6 3.74 6 0 6 C0 4.02 0 2.04 0 0 Z " fill="#000000" transform="translate(80,173)"/>
<path d="M0 0 C3.63 0 7.26 0 11 0 C11 1.98 11 3.96 11 6 C7.37 6 3.74 6 0 6 C0 4.02 0 2.04 0 0 Z " fill="#000000" transform="translate(60,173)"/>
<path d="M0 0 C0.66 3.63 1.32 7.26 2 11 C0.02 11.33 -1.96 11.66 -4 12 C-4.335939 10.5422647 -4.66866624 9.08378894 -5 7.625 C-5.185625 6.81289062 -5.37125 6.00078125 -5.5625 5.1640625 C-6 3 -6 3 -6 1 C-3 0 -3 0 0 0 Z " fill="#000000" transform="translate(153,85)"/>
<path d="M0 0 C3.63 0 7.26 0 11 0 C11 1.98 11 3.96 11 6 C9.35425434 6.02688151 7.70838587 6.04634123 6.0625 6.0625 C5.14597656 6.07410156 4.22945313 6.08570313 3.28515625 6.09765625 C1 6 1 6 0 5 C0 3.35 0 1.7 0 0 Z " fill="#000000" transform="translate(60,22)"/>
<path d="M0 0 C0.66 1.65 1.32 3.3 2 5 C-0.71182212 7.60334924 -1.89133813 7.99456691 -5.75 8.1875 C-7.35875 8.0946875 -7.35875 8.0946875 -9 8 C-9 6.02 -9 4.04 -9 2 C-3.375 0 -3.375 0 0 0 Z " fill="#000000" transform="translate(109,171)"/>
<path d="M0 0 C1.2065625 0.0309375 1.2065625 0.0309375 2.4375 0.0625 C2.5625 7.6875 2.5625 7.6875 1.4375 11.0625 C-1.5325 10.5675 -1.5325 10.5675 -4.5625 10.0625 C-4.42200482 8.58281676 -4.27495174 7.10375484 -4.125 5.625 C-4.04378906 4.80128906 -3.96257812 3.97757812 -3.87890625 3.12890625 C-3.4093501 0.06229881 -3.15462671 0.07694211 0 0 Z " fill="#000000" transform="translate(151.5625,105.9375)"/>
<path d="M0 0 C6.4 -0.36923077 6.4 -0.36923077 9.4375 1.5 C9.953125 1.995 10.46875 2.49 11 3 C10.34 4.65 9.68 6.3 9 8 C4.545 7.01 4.545 7.01 0 6 C0 4.02 0 2.04 0 0 Z " fill="#000000" transform="translate(100,23)"/>
<path d="M0 0 C1.258125 -0.020625 2.51625 -0.04125 3.8125 -0.0625 C4.52019531 -0.07410156 5.22789063 -0.08570312 5.95703125 -0.09765625 C8 0 8 0 11 1 C11 2.65 11 4.3 11 6 C7.37 6 3.74 6 0 6 C0 4.02 0 2.04 0 0 Z " fill="#000000" transform="translate(80,22)"/>
<path d="M0 0 C3.63 0 7.26 0 11 0 C10.67 1.98 10.34 3.96 10 6 C6.7 6 3.4 6 0 6 C0 4.02 0 2.04 0 0 Z " fill="#000000" transform="translate(41,21)"/>
<path d="M0 0 C3.3 0 6.6 0 10 0 C10 1.98 10 3.96 10 6 C6.7 6 3.4 6 0 6 C0 4.02 0 2.04 0 0 Z " fill="#000000" transform="translate(41,173)"/>
<path d="M0 0 C1.65 0 3.3 0 5 0 C5 0.66 5 1.32 5 2 C5.99 2 6.98 2 8 2 C8 3.98 8 5.96 8 8 C5.36 8 2.72 8 0 8 C0 5.36 0 2.72 0 0 Z " fill="#000000" transform="translate(24,171)"/>
<path d="M0 0 C1.65 0 3.3 0 5 0 C5 3.63 5 7.26 5 11 C3.35 11 1.7 11 0 11 C0 7.37 0 3.74 0 0 Z " fill="#000000" transform="translate(24,75)"/>
<path d="M0 0 C1.65 0 3.3 0 5 0 C5 3.63 5 7.26 5 11 C3.35 11 1.7 11 0 11 C0 7.37 0 3.74 0 0 Z " fill="#000000" transform="translate(24,56)"/>
<path d="M0 0 C1.65 0 3.3 0 5 0 C5 3.63 5 7.26 5 11 C3.35 11 1.7 11 0 11 C0 7.37 0 3.74 0 0 Z " fill="#000000" transform="translate(24,37)"/>
<path d="M0 0 C1.65 0 3.3 0 5 0 C5 3.3 5 6.6 5 10 C3.35 10 1.7 10 0 10 C0 6.7 0 3.4 0 0 Z " fill="#000000" transform="translate(24,152)"/>
<path d="M0 0 C1.65 0 3.3 0 5 0 C5 3.3 5 6.6 5 10 C3.35 10 1.7 10 0 10 C0 6.7 0 3.4 0 0 Z " fill="#000000" transform="translate(24,133)"/>
<path d="M0 0 C1.65 0 3.3 0 5 0 C5 3.3 5 6.6 5 10 C3.35 10 1.7 10 0 10 C0 6.7 0 3.4 0 0 Z " fill="#000000" transform="translate(24,114)"/>
<path d="M0 0 C1.65 0 3.3 0 5 0 C5 3.3 5 6.6 5 10 C3.35 10 1.7 10 0 10 C0 6.7 0 3.4 0 0 Z " fill="#000000" transform="translate(24,95)"/>
</svg>
