<svg width="136" height="168" viewBox="0 0 136 168" fill="none" xmlns="http://www.w3.org/2000/svg">
<circle cx="24.5" cy="24.5" r="6.5" fill="black"/>
<path d="M3 154.16V13.1596C22.2 -5.24045 40.6667 5.49294 47.5 13.1596V19.1598C59.1 13.5598 72.6667 10.493 78 9.65964C119.6 -0.340359 132 48.8263 133 74.6596V155.66C114.2 171.66 98.1667 162.326 92.5 155.66V88.1596C92.9 64.9596 86 57.493 82.5 56.6596C67.7 51.4596 53 60.493 47.5 65.6596V154.16C26.3 173.36 9 162.16 3 154.16Z" stroke="black" stroke-width="5"/>
<path d="M25 23V59M25 145.5V59M25 59C48.1667 38.6667 97.9 9 111.5 53V147" stroke="black" stroke-width="5" stroke-dasharray="10 10"/>
</svg>
