<svg width="133" height="171" viewBox="0 0 133 171" fill="none" xmlns="http://www.w3.org/2000/svg">
<path d="M3 157.393V11.3929C12.2 -2.20707 37.8333 3.72621 49.5 8.39285V15.3929C85.5 0.592894 118.5 21.5596 130.5 33.8929C130.5 63.8929 114.833 67.7262 107 65.8929C79.8 44.6929 57.3333 57.0596 49.5 65.8929V157.393C29.1 177.393 10 165.726 3 157.393Z" stroke="black" stroke-width="5"/>
<path d="M25 23V65M25 148V65M25 65C36 47.1667 68.1 17.8 108.5 43" stroke="black" stroke-width="5" stroke-dasharray="10 10"/>
<circle cx="6.50586" cy="6.50586" r="6.50586" transform="matrix(1 8.74228e-08 8.74228e-08 -1 18 27.0117)" fill="black"/>
</svg>
