<svg width="132" height="215" viewBox="0 0 132 215" fill="none" xmlns="http://www.w3.org/2000/svg">
<path d="M116 35.9999C93.3333 20.3333 47.4 7.89995 45 83.4999V191M18 103.5H103" stroke="black" stroke-width="5" stroke-dasharray="10 10"/>
<circle cx="114.5" cy="36.5" r="6.5" fill="black"/>
<path d="M72.107 55.2856C79.607 36.2854 102.274 48.4523 109.607 55.2856C130.007 49.6859 130.44 28.9522 128.107 19.2854C118.907 4.4854 95 1.24205 72.107 3.7854C32.507 8.1854 20.2736 58.6187 19.1069 83.2854H12.1069C-3.89312 99.2854 4.77355 119.619 11.1069 127.785H19.1069V200.285C35.9069 221.085 58.7736 208.952 68.107 200.285V127.785H111.107C129.107 113.385 118.607 92.1187 111.107 83.2854H68.107C66.907 75.6854 69.6069 61.6193 72.107 55.2856Z" stroke="black" stroke-width="5"/>
</svg>
