<svg width="144" height="166" viewBox="0 0 144 166" fill="none" xmlns="http://www.w3.org/2000/svg">
<path d="M36 3.41393L71.5 45.4139L107.5 3.41393C129.5 -0.186021 139 20.5806 141 31.4139L101 81.9139L141 132.414C140.6 156.414 118.5 162.414 107.5 162.414L71.5 118.914L36 162.414C14 165.214 4.83333 143.581 3 132.414L42 81.9139L3 31.4139C3.4 8.61393 25.1667 3.24726 36 3.41393Z" stroke="black" stroke-width="5"/>
<circle cx="6.50586" cy="6.50586" r="6.50586" transform="matrix(1 8.74228e-08 8.74228e-08 -1 19 29.0117)" fill="black"/>
<path d="M23.5 20L119 141.5M119 20L26.5 137" stroke="black" stroke-width="5" stroke-dasharray="10 10"/>
</svg>
