<svg width="219" height="218" viewBox="0 0 219 218" fill="none" xmlns="http://www.w3.org/2000/svg">
<path d="M79.175 100.065C37.9776 97.5399 29.4773 169.524 79.0693 169.517C116.07 169.517 121.478 104.04 79.175 100.065Z" stroke="black" stroke-width="5"/>
<circle cx="128" cy="96" r="7" fill="black"/>
<path d="M3 136.497C3 58.5 75.1667 49.3305 106.5 62.9972V13.497C117.3 -3.70299 140 6.33034 150 13.497V211.497C126.8 217.497 111.333 213.997 106.5 211.497V205.497C25.3 230.697 3.66667 169.997 3 136.497Z" stroke="black" stroke-width="5"/>
<path d="M132.995 97.4047C133.048 97.9545 132.645 98.4428 132.095 98.4953L123.136 99.3513C122.586 99.4038 122.098 99.0007 122.045 98.451C121.993 97.9012 122.396 97.4129 122.946 97.3604L130.909 96.5995L130.149 88.6358C130.096 88.086 130.499 87.5977 131.049 87.5452C131.599 87.4927 132.087 87.8958 132.139 88.4455L132.995 97.4047ZM21.1068 138.568L22.1053 138.515L22.1068 138.541V138.568H21.1068ZM112.28 176.948C112.814 177.086 113.135 177.632 112.997 178.167L110.74 186.879C110.602 187.414 110.056 187.735 109.521 187.596C108.987 187.458 108.665 186.912 108.804 186.378L110.81 178.633L103.066 176.627C102.531 176.489 102.21 175.943 102.348 175.408C102.487 174.874 103.032 174.553 103.567 174.691L112.28 176.948ZM131.363 98.271C130.161 97.2783 128.936 96.3278 127.692 95.4192L128.871 93.8039C130.147 94.7357 131.403 95.7106 132.637 96.7287L131.363 98.271ZM119.875 90.3968C117.149 88.8658 114.358 87.5122 111.521 86.3335L112.289 84.4866C115.197 85.695 118.059 87.083 120.855 88.6531L119.875 90.3968ZM102.748 83.2781C99.7427 82.4252 96.7117 81.7568 93.6774 81.2699L93.9942 79.2952C97.1055 79.7944 100.213 80.4797 103.294 81.3541L102.748 83.2781ZM84.4352 80.3454C81.3113 80.2209 78.209 80.2881 75.1533 80.5437L74.9866 78.5507C78.1252 78.2881 81.3098 78.2193 84.5149 78.347L84.4352 80.3454ZM65.9781 81.9099C62.9242 82.5723 59.9492 83.4351 57.081 84.4942L56.3882 82.6181C59.3468 81.5255 62.4118 80.637 65.5541 79.9554L65.9781 81.9099ZM48.6702 88.3425C45.9569 89.8492 43.3889 91.5618 40.9965 93.476L39.747 91.9143C42.2302 89.9274 44.8919 88.1529 47.6992 86.594L48.6702 88.3425ZM34.3435 99.8571C32.3465 102.159 30.5523 104.657 28.9908 107.348L27.261 106.344C28.8868 103.542 30.7548 100.942 32.8328 98.5465L34.3435 99.8571ZM25.1347 115.71C24.1392 118.526 23.3643 121.504 22.8347 124.643L20.8625 124.311C21.411 121.06 22.2144 117.97 23.2491 115.043L25.1347 115.71ZM22.0122 133.864C21.9902 135.383 22.0205 136.933 22.1053 138.515L20.1082 138.622C20.021 136.996 19.9897 135.4 20.0124 133.835L22.0122 133.864ZM22.1068 138.568C22.1068 140.277 22.1808 141.982 22.3275 143.675L20.335 143.848C20.1833 142.097 20.1068 140.335 20.1068 138.568H22.1068ZM24.0912 153.731C24.9786 157.042 26.1577 160.251 27.6169 163.3L25.8129 164.163C24.299 161 23.0777 157.675 22.1594 154.248L24.0912 153.731ZM32.8927 172.005C34.9379 174.716 37.2596 177.203 39.8455 179.41L38.5474 180.931C35.8462 178.627 33.4254 176.032 31.2961 173.21L32.8927 172.005ZM48.2639 185.067C51.1996 186.579 54.3656 187.79 57.7535 188.649L57.2623 190.588C53.727 189.692 50.4184 188.427 47.3477 186.844L48.2639 185.067ZM67.8151 190.09C71.0605 190.223 74.4654 190.065 78.0243 189.58L78.2942 191.562C74.624 192.061 71.1012 192.227 67.7329 192.088L67.8151 190.09ZM88.0271 187.449C91.1556 186.551 94.3837 185.417 97.708 184.026L98.4796 185.872C95.0876 187.29 91.7861 188.451 88.5786 189.371L88.0271 187.449ZM107.011 179.588C108.498 178.793 110.001 177.949 111.522 177.054L112.536 178.778C110.993 179.686 109.465 180.544 107.954 181.352L107.011 179.588Z" fill="black"/>
<path d="M129.301 197.715C129.696 198.101 130.329 198.094 130.715 197.699L137.006 191.263C137.392 190.868 137.385 190.235 136.99 189.849C136.595 189.463 135.962 189.47 135.576 189.865L129.984 195.586L124.263 189.994C123.868 189.608 123.235 189.615 122.849 190.01C122.463 190.405 122.47 191.038 122.865 191.424L129.301 197.715ZM127 21.0114L127.071 27.2971L129.071 27.2744L129 20.9886L127 21.0114ZM127.214 39.8685L127.357 52.4399L129.357 52.4172L129.214 39.8458L127.214 39.8685ZM127.5 65.0114L127.643 77.5828L129.643 77.5601L129.5 64.9886L127.5 65.0114ZM127.786 90.1542L127.929 102.726L129.929 102.703L129.786 90.1315L127.786 90.1542ZM128.071 115.297L128.214 127.869L130.214 127.846L130.071 115.274L128.071 115.297ZM128.357 140.44L128.5 153.011L130.5 152.989L130.357 140.417L128.357 140.44ZM128.643 165.583L128.786 178.154L130.786 178.131L130.643 165.56L128.643 165.583ZM128.929 190.726L129 197.011L131 196.989L130.929 190.703L128.929 190.726ZM129.301 197.715C129.696 198.101 130.329 198.094 130.715 197.699L137.006 191.263C137.392 190.868 137.385 190.235 136.99 189.849C136.595 189.463 135.962 189.47 135.576 189.865L129.984 195.586L124.263 189.994C123.868 189.608 123.235 189.615 122.849 190.01C122.463 190.405 122.47 191.038 122.865 191.424L129.301 197.715ZM127 21.0114L127.071 27.2971L129.071 27.2744L129 20.9886L127 21.0114ZM127.214 39.8685L127.357 52.4399L129.357 52.4172L129.214 39.8458L127.214 39.8685ZM127.5 65.0114L127.643 77.5828L129.643 77.5601L129.5 64.9886L127.5 65.0114ZM127.786 90.1542L127.929 102.726L129.929 102.703L129.786 90.1315L127.786 90.1542ZM128.071 115.297L128.214 127.869L130.214 127.846L130.071 115.274L128.071 115.297ZM128.357 140.44L128.5 153.011L130.5 152.989L130.357 140.417L128.357 140.44ZM128.643 165.583L128.786 178.154L130.786 178.131L130.643 165.56L128.643 165.583ZM128.929 190.726L129 197.011L131 196.989L130.929 190.703L128.929 190.726Z" fill="black"/>
</svg>
