<svg width="153" height="217" viewBox="0 0 153 217" fill="none" xmlns="http://www.w3.org/2000/svg">
<path d="M73.825 117.745C115.022 120.27 123.523 48.2857 73.9307 48.2927C36.9305 48.2927 31.5225 113.77 73.825 117.745Z" stroke="black" stroke-width="5"/>
<circle cx="20.5" cy="19.5" r="6.5" transform="rotate(-180 20.5 19.5)" fill="black"/>
<path d="M150 81.3124C150 159.31 77.8333 168.479 46.5 154.812L46.5 204.313C35.7 221.513 13 211.479 3 204.313L3.00002 6.31255C26.2 0.31255 41.6667 3.81255 46.5 6.31255L46.5 12.3126C127.7 -12.8874 149.333 47.8125 150 81.3124Z" stroke="black" stroke-width="5"/>
<path d="M21 197.81L21 16.8096M30.5 120C58 153 134.653 137.759 131.5 79C129.555 42.7585 86.8401 11.8429 30.5 45" stroke="black" stroke-width="2" stroke-dasharray="10 10"/>
</svg>
