<svg width="255" height="238" viewBox="0 0 255 238" fill="none" xmlns="http://www.w3.org/2000/svg">
<path d="M24.1316 141.339C24.6685 25.2661 141.578 18.7621 165.739 55.6602C170.034 42.6519 185.425 38.1492 192.584 37.5239C214.06 34.522 222.561 56.2856 224.127 67.5427L222.113 214.51C204.933 247.53 168.423 229.519 165.739 214.51C87.3514 273.047 20.776 190.745 24.1316 141.339Z" stroke="black" stroke-width="5"/>
<path d="M192.585 59.4122V111.945M192.585 209.506V147.592M192.585 111.945C188.558 65.6661 91.9163 27.5172 59.0312 111.945C50.9928 132.583 60.9104 195.998 108.694 207.005C136.658 208.881 192.585 199.625 192.585 147.592M192.585 111.945V147.592" stroke="black" stroke-width="3" stroke-dasharray="6 6"/>
<path d="M3.59926 126.628C3.7644 126.85 4.07768 126.895 4.29901 126.73L7.90569 124.039C8.12701 123.874 8.17256 123.561 8.00742 123.339C7.84228 123.118 7.52899 123.072 7.30767 123.238L4.10173 125.63L1.70967 122.424C1.54453 122.202 1.23124 122.157 1.00992 122.322C0.788594 122.487 0.743046 122.8 0.908184 123.022L3.59926 126.628ZM131.576 17.7451C113.187 15.424 84.7377 18.0685 59.0941 33.5413C33.4278 49.0277 10.6172 77.3394 3.5052 126.257L4.4948 126.401C11.5661 77.7628 34.2149 49.7208 59.6108 34.3975C85.0294 19.0605 113.245 16.4392 131.451 18.7372L131.576 17.7451Z" fill="black"/>
<path d="M247.973 80.322C247.778 80.1267 247.462 80.1267 247.266 80.322L244.084 83.504C243.889 83.6992 243.889 84.0158 244.084 84.2111C244.28 84.4063 244.596 84.4063 244.791 84.2111L247.62 81.3826L250.448 84.2111C250.644 84.4063 250.96 84.4063 251.155 84.2111C251.351 84.0158 251.351 83.6992 251.155 83.504L247.973 80.322ZM247.266 211.736C247.462 211.931 247.778 211.931 247.973 211.736L251.155 208.554C251.351 208.359 251.351 208.042 251.155 207.847C250.96 207.652 250.644 207.652 250.448 207.847L247.62 210.675L244.791 207.847C244.596 207.652 244.28 207.652 244.084 207.847C243.889 208.042 243.889 208.359 244.084 208.554L247.266 211.736ZM247.12 80.6755V211.382H248.12V80.6755H247.12Z" fill="black"/>
<path d="M158.813 11.34L162.273 9.4H164.273V23H161.913V12.04L159.873 13.16L158.813 11.34Z" fill="black"/>
<path d="M251.608 53.0187H243.368V51.1187C243.368 50.1587 243.495 49.3587 243.748 48.7187C244.002 48.0654 244.342 47.5321 244.768 47.1187C245.195 46.6921 245.662 46.3521 246.168 46.0987L247.528 45.4187C248.048 45.1521 248.468 44.8721 248.788 44.5787C249.122 44.2721 249.288 43.8787 249.288 43.3987V43.0387C249.288 42.5454 249.115 42.1587 248.768 41.8787C248.435 41.5854 247.895 41.4387 247.148 41.4387C246.695 41.4387 246.235 41.5054 245.768 41.6387C245.315 41.7721 244.762 41.9587 244.108 42.1987L243.368 40.1387C244.115 39.8054 244.795 39.5721 245.408 39.4387C246.035 39.2921 246.642 39.2187 247.228 39.2187C248.308 39.2187 249.168 39.3921 249.808 39.7387C250.462 40.0854 250.928 40.5521 251.208 41.1387C251.502 41.7121 251.648 42.3454 251.648 43.0387V43.3987C251.648 44.1187 251.502 44.7321 251.208 45.2387C250.928 45.7454 250.555 46.1721 250.088 46.5187C249.622 46.8654 249.115 47.1721 248.568 47.4387L247.208 48.1187C246.715 48.3587 246.348 48.6921 246.108 49.1187C245.882 49.5454 245.755 50.0921 245.728 50.7587H251.608V53.0187Z" fill="black"/>
<rect x="74.9561" y="83.8011" width="105.064" height="100.066" rx="47.5" fill="white" stroke="black" stroke-width="5"/>
<rect x="174.819" y="80.1805" width="34.8611" height="31.375" rx="15.6875" fill="#FF0000"/>
</svg>
