<svg width="136" height="168" viewBox="0 0 136 168" fill="none" xmlns="http://www.w3.org/2000/svg">
<path d="M3 14.2639C21 -5.73613 39.5 5.93053 46.5 14.2639V81.2639C46.5 101 49.6667 110.597 52.5 112.264C67.7 121.464 84.1667 110.431 90.5 103.764V14.2639C110.9 -6.13608 127.333 5.76389 133 14.2639V160.764C123.4 169.164 100.667 164.264 90.5 160.764V151.764C83.3 154.164 70.5 158.764 65 160.764C16.6 173.564 3.5 122.43 3 95.2638V14.2639Z" stroke="black" stroke-width="5"/>
<circle cx="6.50586" cy="6.50586" r="6.50586" transform="matrix(1 8.74228e-08 8.74228e-08 -1 18 26.0117)" fill="black"/>
<path d="M24.5 21.5V102C27.1667 121.333 42.4 154.7 82 133.5L108.5 114.5M112.5 21.5V148" stroke="black" stroke-width="5" stroke-dasharray="10 10"/>
</svg>
