<svg width="222" height="163" viewBox="0 0 222 163" fill="none" xmlns="http://www.w3.org/2000/svg">
<path d="M41 151.302L3 18.3019C12.6 0.301956 33.6667 2.80191 43 6.30187L65 91.3019L91.5 13.3018C103.5 3.70176 122.167 9.30176 130 13.3018L158 91.3019L180 6.30187C198.4 -3.29813 213.667 10.3019 219 18.3019L180 151.302C162 166.102 141.833 157.469 134 151.302L110.5 91.3019L87 151.302C71 166.902 49.6667 157.802 41 151.302Z" stroke="black" stroke-width="5"/>
<circle cx="6.50586" cy="6.50586" r="6.50586" transform="matrix(1 8.74228e-08 8.74228e-08 -1 18 29.0117)" fill="black"/>
<path d="M22.5 18L64 140L108.5 32.5L158 140L200.5 18" stroke="black" stroke-width="5" stroke-dasharray="10 10"/>
</svg>
