<svg width="107" height="268" viewBox="0 0 107 268" fill="none" xmlns="http://www.w3.org/2000/svg">
<circle cx="78.5" cy="27.5" r="6.5" fill="black"/>
<circle cx="78.5" cy="81.5" r="6.5" fill="black"/>
<path d="M79.4733 3.1298C53.9738 0.129266 37.9737 50.1293 79.4733 51.6298C105.474 55.6294 118.474 7.71899 79.4733 3.1298Z" stroke="black" stroke-width="5"/>
<path d="M103.191 194.147V76.1473C83.9906 54.1473 63.5241 66.9807 55.6908 76.1473V196.147C54.0908 214.547 56.4023 213.5 42.4023 221C27.4023 224 24.4024 218 18.9023 216.5C-3.49766 222.5 2.85737 245.481 7.69071 254.647C34.0907 270.247 63.0694 265 73.4027 258.5C99.6147 244.853 103.191 232 103.191 194.147Z" stroke="black" stroke-width="5"/>
<path d="M79.5 83V206.5C78.5 222.167 65.6 251 22 241" stroke="black" stroke-width="5" stroke-dasharray="10 10"/>
</svg>
