<svg width="152" height="216" viewBox="0 0 152 216" fill="none" xmlns="http://www.w3.org/2000/svg">
<path d="M3 204.193V16.6934C21 -8.10664 38.5 6.36003 45 16.6934V63.6934C128.2 37.6934 149.333 101.86 149.5 137.193C141.5 221.193 76.5 216.86 45 204.193C27.8 220.593 9.83333 211.027 3 204.193Z" stroke="black" stroke-width="5"/>
<path d="M22.5 22V194.5M41.5 89C66.6667 72.3333 131 79 128 135C128 170.5 95.1 204.1 41.5 172.5" stroke="black" stroke-width="5" stroke-dasharray="10 10"/>
<path d="M80.6975 99.018C39.5001 96.4931 30.9998 168.477 80.5918 168.47C117.592 168.47 123 102.993 80.6975 99.018Z" stroke="black" stroke-width="5"/>
<circle cx="22.5" cy="22.5" r="6.5" fill="black"/>
</svg>
