<?xml version="1.0" standalone="no"?>
<!DOCTYPE svg PUBLIC "-//W3C//DTD SVG 20010904//EN"
 "http://www.w3.org/TR/2001/REC-SVG-20010904/DTD/svg10.dtd">
<svg version="1.0" xmlns="http://www.w3.org/2000/svg"
 width="147.000000pt" height="209.000000pt" viewBox="0 0 147.000000 209.000000"
 preserveAspectRatio="xMidYMid meet">

<g transform="translate(0.000000,209.000000) scale(0.100000,-0.100000)"
fill="#000000" stroke="none">
<path d="M790 2060 c-316 -84 -572 -358 -705 -755 -106 -317 -98 -681 20 -915
128 -256 347 -383 660 -382 214 1 313 38 446 171 238 238 317 626 185 906 -77
162 -207 286 -392 371 -68 32 -168 52 -259 54 l-20 1 20 15 c38 30 156 85 213
99 31 8 86 14 123 13 55 -2 72 2 112 25 53 31 92 90 102 152 15 92 -40 182
-143 232 -49 24 -69 27 -171 30 -91 2 -132 -1 -191 -17z m289 -41 c132 -28
202 -139 152 -243 -32 -65 -67 -83 -176 -89 -141 -7 -272 -61 -397 -163 -43
-35 -45 -39 -32 -60 13 -19 19 -21 56 -12 64 14 221 -5 290 -35 265 -118 421
-329 435 -592 19 -344 -209 -704 -478 -755 -76 -15 -274 -12 -354 5 -86 18
-214 80 -277 135 -62 54 -139 170 -177 269 -164 425 10 1067 372 1372 100 83
245 154 357 172 52 9 181 7 229 -4z"/>
<path d="M1009 1941 c-35 -35 -38 -77 -9 -114 42 -53 128 -38 149 26 31 91
-72 156 -140 88z"/>
<path d="M858 1888 c-47 -12 -51 -32 -5 -23 56 11 67 16 62 26 -7 10 -7 10
-57 -3z"/>
<path d="M675 1803 c-21 -15 -34 -28 -28 -30 13 -5 83 38 83 50 0 13 -14 8
-55 -20z"/>
<path d="M522 1667 c-18 -18 -29 -36 -25 -40 7 -8 73 51 73 65 0 16 -17 7 -48
-25z"/>
<path d="M403 1510 c-25 -42 -27 -50 -15 -50 9 0 52 66 52 80 0 21 -16 9 -37
-30z"/>
<path d="M317 1353 c-22 -43 -30 -73 -19 -73 12 0 47 88 39 96 -3 3 -12 -7
-20 -23z"/>
<path d="M462 1281 c-36 -49 -33 -58 27 -94 37 -22 42 -5 5 19 -19 13 -22 19
-12 26 11 6 10 10 -2 17 -12 8 -12 13 4 30 10 11 16 26 14 33 -3 7 -18 -6 -36
-31z"/>
<path d="M580 1250 c0 -5 23 -10 50 -10 28 0 50 5 50 10 0 6 -22 10 -50 10
-27 0 -50 -4 -50 -10z"/>
<path d="M775 1251 c-5 -9 6 -13 67 -26 30 -6 31 14 1 21 -15 3 -35 8 -45 10
-9 3 -19 0 -23 -5z"/>
<path d="M956 1202 c-3 -5 15 -18 39 -30 53 -25 60 -13 11 17 -37 23 -43 25
-50 13z"/>
<path d="M241 1146 c-13 -54 -13 -56 -2 -56 5 0 14 20 20 44 13 54 13 56 2 56
-5 0 -14 -20 -20 -44z"/>
<path d="M675 1091 c-161 -42 -255 -208 -225 -398 29 -179 126 -281 275 -291
62 -4 81 -1 127 20 165 76 239 290 167 483 -24 66 -92 139 -153 166 -50 22
-146 32 -191 20z m124 -52 c73 -16 126 -60 163 -136 28 -58 33 -77 32 -143 0
-96 -24 -165 -77 -226 -50 -57 -105 -83 -175 -84 -138 0 -231 109 -240 283 -8
163 44 259 166 303 45 16 73 17 131 3z"/>
<path d="M1110 1093 c1 -13 58 -78 64 -72 7 7 -42 79 -54 79 -6 0 -10 -3 -10
-7z"/>
<path d="M206 968 c-9 -36 -7 -78 4 -78 6 0 10 8 10 19 0 10 3 33 6 50 7 36
-10 43 -20 9z"/>
<path d="M1208 935 c-8 -8 14 -95 25 -95 5 0 6 16 2 38 -8 42 -19 65 -27 57z"/>
<path d="M205 743 c7 -51 11 -60 21 -50 10 10 -6 97 -18 97 -7 0 -8 -16 -3
-47z"/>
<path d="M1228 745 c-9 -15 -14 -83 -5 -91 3 -4 9 0 12 9 8 20 2 95 -7 82z"/>
<path d="M247 594 c-8 -13 29 -94 43 -94 14 0 12 9 -14 59 -13 24 -26 40 -29
35z"/>
<path d="M1170 523 c-7 -21 -12 -39 -12 -40 6 -9 19 6 34 39 13 28 14 38 5 38
-7 0 -19 -17 -27 -37z"/>
<path d="M357 396 c20 -27 52 -50 60 -42 6 5 -58 65 -70 66 -4 0 0 -11 10 -24z"/>
<path d="M1071 366 c-19 -20 -31 -39 -27 -43 9 -9 69 52 65 66 -3 7 -19 -4
-38 -23z"/>
<path d="M500 293 c0 -10 63 -43 80 -43 23 0 7 17 -27 30 -21 8 -41 16 -45 18
-5 2 -8 0 -8 -5z"/>
<path d="M918 253 c-35 -15 -51 -33 -28 -33 16 0 80 33 80 42 0 10 -7 9 -52
-9z"/>
<path d="M690 222 c0 -11 88 -27 98 -18 9 10 -1 14 -50 21 -30 5 -48 4 -48 -3z"/>
</g>
</svg>
