<?xml version="1.0" encoding="UTF-8"?>
<svg version="1.1" xmlns="http://www.w3.org/2000/svg" width="149" height="240">
<path d="M0 0 C1.37611491 1.16199456 2.73062431 2.35005176 4.0625 3.5625 C5.16271484 4.54283203 5.16271484 4.54283203 6.28515625 5.54296875 C19.24535753 17.74734354 26.32482432 31.48991771 27.265625 49.4375 C27.60266525 66.88143925 24.3140964 83.67381069 13.0625 97.5625 C14.69839606 101.05129873 16.72925274 104.19958469 18.8125 107.4375 C30.58763312 126.29059666 35.39861774 147.61351105 31.44140625 169.6953125 C26.9179609 187.34680148 15.6601774 203.89432134 0.0625 213.5625 C-21.56246339 225.2315388 -46.50834504 229.79651792 -70.43359375 222.75390625 C-80.66409022 219.27530935 -89.17957874 214.94582453 -97.9375 208.5625 C-98.59492187 208.10359375 -99.25234375 207.6446875 -99.9296875 207.171875 C-107.56405692 201.3317583 -113.91670965 191.89253204 -115.9375 182.5625 C-116.43908381 174.26707549 -113.40438406 166.97413106 -108.33203125 160.51953125 C-103.3719814 155.19627409 -98.64250727 151.91308133 -91.3046875 151.21875 C-79.57752371 150.94335672 -79.57752371 150.94335672 -73.9375 154.5625 C-72.08157879 156.48980279 -70.38307583 158.38365527 -68.6875 160.4375 C-62.9482763 167.06281062 -56.07802072 171.97448844 -47.08203125 172.8359375 C-40.80355216 173.02730966 -35.82500889 173.09057863 -30.65625 169.2578125 C-25.44260039 164.11525811 -22.25995341 158.67378096 -21.6875 151.375 C-22.13337988 144.57533183 -23.5006375 139.46702754 -28.5625 134.6875 C-36.23263772 128.69563835 -43.77675798 128.30790331 -53.28125 127.78515625 C-61.44035136 127.2882879 -67.19611919 126.47501016 -73.24609375 120.6328125 C-79.16679381 113.38576623 -80.65999763 104.66061833 -79.9375 95.5625 C-78.53390198 88.23524256 -75.26102536 82.54455418 -69.07421875 78.27734375 C-63.10317059 75.14001336 -57.16304282 75.18800047 -50.53515625 74.8828125 C-43.83188847 74.28599604 -39.06987169 72.12908374 -34.5 67.1875 C-31.03050762 62.63860999 -29.69691298 58.73023899 -30 53 C-30.64789454 48.47236048 -32.22516598 46.34675051 -35.9375 43.5625 C-42.27044283 40.55488167 -48.80046316 40.73696399 -55.5 42.5 C-61.29653096 45.41219945 -65.93045729 50.67139147 -70.55859375 55.12109375 C-75.80104381 59.88830754 -82.47661265 62.73076076 -89.5625 63 C-96.65874785 62.57597113 -101.26316222 60.65063902 -106.25 55.5 C-112.72808588 47.57102651 -113.66726925 39.23907207 -113.39453125 29.16796875 C-112.03248131 18.42290812 -102.94699488 10.23628824 -94.9375 3.5625 C-66.70715137 -17.58505581 -28.89751829 -21.59762255 0 0 Z M-102.890625 19.640625 C-107.30422748 25.20918888 -107.65577083 30.26324819 -107.33203125 37.25 C-106.56522771 43.68811292 -104.61312016 48.88687984 -99.9375 53.5625 C-95.07615183 56.84108365 -90.63054853 57.39799859 -84.9375 56.5625 C-78.60983705 54.74420605 -74.74565594 50.53119058 -70.30078125 45.88671875 C-62.07591773 37.79780339 -55.15094861 35.2428056 -43.7578125 35.3359375 C-38.1485519 35.78654292 -32.81187472 37.77414801 -27.9375 40.5625 C-26.8125 42.8125 -26.8125 42.8125 -25.9375 45.5625 C-25.3496875 46.861875 -25.3496875 46.861875 -24.75 48.1875 C-23.06435575 55.1894069 -24.00397059 61.55158333 -27.4375 67.875 C-31.43573766 73.90591484 -36.52131598 77.15583599 -43.125 79.875 C-47.92125735 80.73989887 -52.66780988 80.95436697 -57.53515625 81.12109375 C-63.77544419 81.93068334 -67.94256312 84.79076984 -71.9375 89.5625 C-74.7378656 95.29658194 -74.92618578 101.87416921 -73.28515625 107.99609375 C-71.11864566 113.51000267 -68.07348299 117.52261263 -62.9375 120.5625 C-59.76745217 121.51835801 -59.76745217 121.51835801 -55.9375 121.5625 C-43.56400422 122.18117479 -32.61329049 123.09140279 -22.9375 131.5625 C-18.04700588 137.32374064 -16.40226664 143.45706131 -15.5625 150.875 C-16.35525244 158.670399 -19.33079349 166.91164619 -24.9375 172.5625 C-33.11159352 178.82767348 -40.75210882 179.48844465 -50.9375 178.5625 C-60.71891791 175.95645915 -69.29850759 170.6229574 -75.0625 162.25 C-77.12273062 159.3374548 -77.87656543 158.59124272 -81.25 157 C-89.14499754 156.06330538 -94.42438333 157.07014243 -100.92578125 161.82421875 C-105.96478994 166.17831364 -108.7765759 170.94523264 -109.9375 177.5625 C-110.0828335 186.28250984 -105.46022474 192.67622003 -99.7421875 198.984375 C-83.33204254 214.69045433 -62.93694217 220.25164989 -40.7578125 219.87890625 C-22.53254634 219.17063981 -3.46701542 211.72181298 9.25 198.5 C21.93991456 183.75226146 28.17418615 166.50236915 26.80859375 146.921875 C24.82674695 130.71001113 18.69040509 116.39277906 8.31396484 103.83813477 C5.0625 99.85754979 5.0625 99.85754979 5.0625 96.5625 C6.63671875 94.6875 6.63671875 94.6875 8.75 92.5625 C19.63940152 80.61494108 21.84625816 64.53223949 21.33203125 48.88671875 C20.4719425 32.72908435 12.75273736 19.57355103 1.0625 8.5625 C-13.5657776 -3.90851756 -29.50529202 -9.84187571 -48.75732422 -8.65332031 C-69.92353447 -6.55803141 -88.51159871 4.34134103 -102.890625 19.640625 Z " fill="#000000" transform="translate(115.9375,14.4375)"/>
<path d="M0 0 C2.375 1.5 2.375 1.5 4 4 C4.55859786 7.10078813 4.58096808 9.90150355 4 13 C2.12379387 15.50160818 0.76108697 16.61945652 -2 18 C-5.87214182 18.43023798 -7.52496371 18.31669086 -10.8125 16.125 C-13.40412365 13.60742274 -13.93146518 12.77101672 -14.25 9.1875 C-13.96338591 5.53317034 -13.2909115 3.84389014 -11 1 C-7.1230868 -1.30519163 -4.28479093 -1.2763207 0 0 Z " fill="#000000" transform="translate(33,39)"/>
<path d="M0 0 C1.21236328 0.01353516 1.21236328 0.01353516 2.44921875 0.02734375 C3.37154297 0.04474609 3.37154297 0.04474609 4.3125 0.0625 C3.3125 3.0625 3.3125 3.0625 1.4375 4.1875 C-0.24455727 4.88011182 -1.96177551 5.4872585 -3.6875 6.0625 C-3.6875 8.0425 -3.6875 10.0225 -3.6875 12.0625 C-4.6775 12.0625 -5.6675 12.0625 -6.6875 12.0625 C-7.0175 8.4325 -7.3475 4.8025 -7.6875 1.0625 C-4.80538698 0.10179566 -2.98899956 -0.04331883 0 0 Z " fill="#000000" transform="translate(33.6875,187.9375)"/>
<path d="M0 0 C3.8665284 3.222107 4.88059018 6.14922412 6 11 C5.01 11 4.02 11 3 11 C2.30034557 9.73581754 1.61565237 8.46334598 0.9375 7.1875 C0.55464844 6.47980469 0.17179687 5.77210938 -0.22265625 5.04296875 C-1 3 -1 3 0 0 Z " fill="#000000" transform="translate(113,139)"/>
<path d="M0 0 C4.43458973 1.3937282 6.87378374 3.60582235 10 7 C9.01 7.66 8.02 8.32 7 9 C5.82460004 8.07347299 4.65989423 7.13336613 3.5 6.1875 C2.52546875 5.40439453 2.52546875 5.40439453 1.53125 4.60546875 C0 3 0 3 0 0 Z " fill="#000000" transform="translate(98,125)"/>
<path d="M0 0 C0 1.32 0 2.64 0 4 C-3.3 3.67 -6.6 3.34 -10 3 C-6.39703375 -0.60296625 -4.75741099 -1.47643789 0 0 Z " fill="#000000" transform="translate(71,112)"/>
<path d="M0 0 C0.66 0.33 1.32 0.66 2 1 C1 4 1 4 -1.875 5.6875 C-5 7 -5 7 -8 7 C-8 6.01 -8 5.02 -8 4 C-6.71349294 3.30289269 -5.42059335 2.61757124 -4.125 1.9375 C-3.40570313 1.55464844 -2.68640625 1.17179687 -1.9453125 0.77734375 C-1.30335937 0.52082031 -0.66140625 0.26429687 0 0 Z " fill="#000000" transform="translate(86,102)"/>
<path d="M0 0 C0.8353125 0.37125 0.8353125 0.37125 1.6875 0.75 C-1.12054268 3.71404505 -3.49565774 6.19499019 -7.3125 7.75 C-7.3125 3.75 -7.3125 3.75 -5.0625 1.4375 C-2.3125 -0.25 -2.3125 -0.25 0 0 Z " fill="#000000" transform="translate(102.3125,92.25)"/>
<path d="M0 0 C0 0.66 0 1.32 0 2 C-6.625 6 -6.625 6 -10 6 C-10 5.01 -10 4.02 -10 3 C-3.375 -1.125 -3.375 -1.125 0 0 Z " fill="#000000" transform="translate(47,28)"/>
<path d="M0 0 C0.66 0.33 1.32 0.66 2 1 C0.50958227 4.79379058 -1.69062512 6.68343758 -5 9 C-5.66 9 -6.32 9 -7 9 C-6.82374165 6.62051228 -6.30280227 5.29774151 -4.59765625 3.62109375 C-3.09350908 2.37884514 -1.54870149 1.18623944 0 0 Z " fill="#000000" transform="translate(105,195)"/>
<path d="M0 0 C0.99 0 1.98 0 3 0 C1.8905928 3.48670834 0.73662334 6.77484237 -1 10 C-1.99 10 -2.98 10 -4 10 C-3.29445932 6.33118845 -1.72264494 3.29549466 0 0 Z " fill="#000000" transform="translate(116,179)"/>
<path d="M0 0 C3.3 0.99 6.6 1.98 10 3 C10 3.99 10 4.98 10 6 C6.0507432 5.44894091 2.65079826 4.61064629 -1 3 C-0.67 2.01 -0.34 1.02 0 0 Z " fill="#000000" transform="translate(80,116)"/>
<path d="M0 0 C-0.33 0.66 -0.66 1.32 -1 2 C-3.28515625 2.4140625 -3.28515625 2.4140625 -6.0625 2.625 C-6.98160156 2.69976562 -7.90070313 2.77453125 -8.84765625 2.8515625 C-9.55792969 2.90054688 -10.26820312 2.94953125 -11 3 C-11 2.01 -11 1.02 -11 0 C-6.98195309 -0.84098656 -3.98196457 -1.05404945 0 0 Z " fill="#000000" transform="translate(90,207)"/>
<path d="M0 0 C3.3 0.33 6.6 0.66 10 1 C10 1.99 10 2.98 10 4 C6.7 3.67 3.4 3.34 0 3 C0 2.01 0 1.02 0 0 Z " fill="#000000" transform="translate(59,206)"/>
<path d="M0 0 C3.66881155 0.70554068 6.70450534 2.27735506 10 4 C9.67 4.99 9.34 5.98 9 7 C5.7 5.35 2.4 3.7 -1 2 C-0.67 1.34 -0.34 0.68 0 0 Z " fill="#000000" transform="translate(40,198)"/>
<path d="M0 0 C0.99 0.33 1.98 0.66 3 1 C3.125 8.75 3.125 8.75 2 11 C1.01 10.67 0.02 10.34 -1 10 C-0.67 6.7 -0.34 3.4 0 0 Z " fill="#000000" transform="translate(119,159)"/>
<path d="M0 0 C1.32 0.33 2.64 0.66 4 1 C3.24266726 2.3410477 2.46867264 3.67269781 1.6875 5 C1.25824219 5.7425 0.82898438 6.485 0.38671875 7.25 C-0.07089844 7.8275 -0.52851562 8.405 -1 9 C-1.99 9 -2.98 9 -4 9 C-2.80100302 5.9168649 -1.52299523 2.93720508 0 0 Z " fill="#000000" transform="translate(112,77)"/>
<path d="M0 0 C3.40312738 1.05875074 6.01353231 2.00902154 9 4 C9 4.99 9 5.98 9 7 C5.51375944 6.3543999 2.87501211 5.07639763 0 3 C0 2.01 0 1.02 0 0 Z " fill="#000000" transform="translate(92,29)"/>
<path d="M0 0 C4.95 0.99 4.95 0.99 10 2 C10 2.99 10 3.98 10 5 C6.7 4.34 3.4 3.68 0 3 C0 2.01 0 1.02 0 0 Z " fill="#000000" transform="translate(74,23)"/>
<path d="M0 0 C3.35435922 1.38801071 5.11290303 2.88629 7 6 C7 6.99 7 7.98 7 9 C6.01 9 5.02 9 4 9 C0 3.85714286 0 3.85714286 0 0 Z " fill="#000000" transform="translate(107,41)"/>
<path d="M0 0 C0 0.99 0 1.98 0 3 C-3.47325181 4.1577506 -6.36067448 4.06866652 -10 4 C-10 3.01 -10 2.02 -10 1 C-2.25 0 -2.25 0 0 0 Z " fill="#000000" transform="translate(65,22)"/>
<path d="M0 0 C0.99 0 1.98 0 3 0 C3 3.63 3 7.26 3 11 C2.01 10.67 1.02 10.34 0 10 C0 6.7 0 3.4 0 0 Z " fill="#000000" transform="translate(115,58)"/>
</svg>
