<?xml version="1.0" encoding="UTF-8"?>
<svg version="1.1" xmlns="http://www.w3.org/2000/svg" width="139" height="190">
<path d="M0 0 C17.55981457 16.75362509 25.54628406 41.19580886 26.4765625 65.01171875 C27.192494 97.62462758 18.7897766 129.72648355 -3.8125 154.1875 C-14.59721611 164.44007552 -28.22318632 170.94579982 -43.1875 171.625 C-62.69769461 170.9531999 -78.16722496 160.42623985 -91.0546875 146.8203125 C-109.47341403 125.53485811 -114.55470432 94.40628636 -112.8125 67.1875 C-111.7296172 54.70989557 -109.07545702 42.94562622 -104.8125 31.1875 C-104.43222656 30.12015625 -104.05195312 29.0528125 -103.66015625 27.953125 C-96.61516651 9.64089579 -82.98282616 -6.09857201 -65.17578125 -14.515625 C-42.24107365 -23.35920563 -18.13024243 -15.75898457 0 0 Z M-79.85546875 2.078125 C-100.65731593 24.49927765 -107.80148868 53.56242738 -107.09765625 83.59765625 C-106.10861994 107.7690415 -98.09112525 131.78088494 -80.8125 149.1875 C-69.59338369 158.81764276 -55.80209242 166.03068563 -40.69921875 165.53515625 C-23.84926977 163.50586605 -10.66027127 153.75304554 -0.25 140.8125 C9.12876424 127.73202881 14.69139139 112.79595827 18.1875 97.1875 C18.55488281 95.63482422 18.55488281 95.63482422 18.9296875 94.05078125 C24.05858619 67.73882839 19.97990988 37.75078187 5.1875 15.1875 C-5.55386864 1.24993954 -19.4058733 -8.27959947 -36.8125 -11.8125 C-37.61042969 -11.97878906 -38.40835938 -12.14507812 -39.23046875 -12.31640625 C-53.86106664 -14.58379091 -69.32739505 -7.94016829 -79.85546875 2.078125 Z " fill="#000000" transform="translate(112.8125,18.8125)"/>
<path d="M0 0 C10.82866683 9.65966302 16.06593174 23.07563617 17.28540039 37.33789062 C17.39984293 40.68959855 17.41674169 44.02167056 17.375 47.375 C17.36557373 48.55529785 17.35614746 49.7355957 17.34643555 50.95166016 C17.01939626 69.88866816 12.39778097 89.27841789 -0.9375 103.4375 C-5.6636231 107.87664788 -9.38162356 109.70906928 -15.9375 110.4375 C-23.01739803 110.10947384 -28.61118802 106.22711831 -33.3359375 101.16796875 C-46.05060648 84.60308311 -46.83613126 61.04716034 -44.50390625 41.0859375 C-42.24669815 25.11563818 -37.99471889 7.80829302 -24.86328125 -2.65234375 C-17.21671526 -8.1828789 -7.36964883 -5.2152152 0 0 Z M-24 4 C-38.72478405 20.0065593 -40.01703979 44.74882306 -39.1640625 65.35888672 C-38.36503923 78.22173454 -34.59279176 90.17729221 -26 100 C-23.01256986 102.38039525 -19.87512605 103.80975521 -16.125 104.625 C-9.26057084 103.25211417 -4.37138499 98.94165904 -0.25 93.4375 C11.82114228 74.7719374 14.38694064 50.48806896 10 29 C6.86042672 18.18837089 2.26651526 9.62371849 -7 3 C-13.76181334 -0.36904384 -17.90574359 -0.72766558 -24 4 Z " fill="#000000" transform="translate(84,42)"/>
<path d="M0 0 C3.4651639 0.08956805 5.37700188 0.47531463 7.8125 3 C9.84290002 6.79008004 10.24143239 8.55182678 9.390625 12.6640625 C8.18642777 15.80835527 6.63104571 16.96423702 3.6875 18.5 C-0.41727533 19.08639648 -2.53574854 18.92214753 -6.1875 16.9375 C-8.97855308 13.73599794 -9.3125 11.71894271 -9.3125 7.5 C-7.14119672 2.84720725 -5.25364936 0.21191191 0 0 Z " fill="#000000" transform="translate(68.3125,10.5)"/>
<path d="M0 0 C-0.33 0.99 -0.66 1.98 -1 3 C-3.0625 3.6875 -3.0625 3.6875 -5 4 C-6.05404945 7.98196457 -5.84098656 10.98195309 -5 15 C-8 14 -8 14 -9.75 11.25 C-11 8 -11 8 -11.0625 5.3125 C-8.91220969 0.63245638 -4.78042937 0 0 0 Z " fill="#000000" transform="translate(89,18)"/>
<path d="M0 0 C0.99 0 1.98 0 3 0 C2.67 3.96 2.34 7.92 2 12 C1.01 12 0.02 12 -1 12 C-1.08159574 7.83861737 -0.98248524 4.0527516 0 0 Z " fill="#000000" transform="translate(24,79)"/>
<path d="M0 0 C0.66 0.33 1.32 0.66 2 1 C0.54875366 4.82601307 -1.35774704 6.22329124 -5 8 C-5.99 8 -6.98 8 -8 8 C-8 7.01 -8 6.02 -8 5 C-6.3203125 3.578125 -6.3203125 3.578125 -4.125 2.25 C-3.40570313 1.80140625 -2.68640625 1.3528125 -1.9453125 0.890625 C-1.30335937 0.59671875 -0.66140625 0.3028125 0 0 Z " fill="#000000" transform="translate(91,156)"/>
<path d="M0 0 C3.27286682 2.7819368 4.96427697 6.27954067 7 10 C6.01 10.33 5.02 10.66 4 11 C2.02 8.03 0.04 5.06 -2 2 C-1.34 1.34 -0.68 0.68 0 0 Z " fill="#000000" transform="translate(33,140)"/>
<path d="M0 0 C1.32 0.33 2.64 0.66 4 1 C4.66 4.3 5.32 7.6 6 11 C5.01 11 4.02 11 3 11 C2.49632243 9.54293274 1.99717444 8.08429904 1.5 6.625 C1.2215625 5.81289062 0.943125 5.00078125 0.65625 4.1640625 C0 2 0 2 0 0 Z " fill="#000000" transform="translate(24,121)"/>
<path d="M0 0 C0.99 0 1.98 0 3 0 C4.19287411 3.87684087 5 6.91621923 5 11 C4.01 11 3.02 11 2 11 C1.34 7.37 0.68 3.74 0 0 Z " fill="#000000" transform="translate(112,63)"/>
<path d="M0 0 C-0.17298401 2.33528415 -0.70225369 3.69177582 -2.33203125 5.37890625 C-6.57211538 9 -6.57211538 9 -9 9 C-8.44706396 4.02357564 -5.06735917 0 0 0 Z " fill="#000000" transform="translate(54,24)"/>
<path d="M0 0 C3.63 0 7.26 0 11 0 C11 0.99 11 1.98 11 3 C8.47946405 4.26026798 7.1457902 3.91874445 4.375 3.5625 C3.14910156 3.40974609 3.14910156 3.40974609 1.8984375 3.25390625 C1.27195312 3.17011719 0.64546875 3.08632812 0 3 C0 2.01 0 1.02 0 0 Z " fill="#000000" transform="translate(64,165)"/>
<path d="M0 0 C0.99 0 1.98 0 3 0 C3.33 3.63 3.66 7.26 4 11 C3.01 11.33 2.02 11.66 1 12 C0.67 8.04 0.34 4.08 0 0 Z " fill="#000000" transform="translate(22,100)"/>
<path d="M0 0 C0.99 0 1.98 0 3 0 C2.34 3.3 1.68 6.6 1 10 C-0.32 10.33 -1.64 10.66 -3 11 C-2.01 7.37 -1.02 3.74 0 0 Z " fill="#000000" transform="translate(29,59)"/>
<path d="M0 0 C4.2742558 1.5830577 6.26531794 4.50568404 9 8 C3.69520066 8 2.81017373 6.4637943 -1 3 C-0.67 2.01 -0.34 1.02 0 0 Z " fill="#000000" transform="translate(92,29)"/>
<path d="M0 0 C0.99 0.33 1.98 0.66 3 1 C-0.625 7.75 -0.625 7.75 -4 10 C-4 5.28093812 -2.71245796 3.72962969 0 0 Z " fill="#000000" transform="translate(103,141)"/>
<path d="M0 0 C0.99 0 1.98 0 3 0 C2.01 3.3 1.02 6.6 0 10 C-0.99 10 -1.98 10 -3 10 C-2.69201674 8.51988629 -2.378482 7.04092675 -2.0625 5.5625 C-1.88847656 4.73878906 -1.71445313 3.91507812 -1.53515625 3.06640625 C-1 1 -1 1 0 0 Z " fill="#000000" transform="translate(111,123)"/>
<path d="M0 0 C0.99 0 1.98 0 3 0 C2.67 3.3 2.34 6.6 2 10 C0.68 10.33 -0.64 10.66 -2 11 C-1.34 7.37 -0.68 3.74 0 0 Z " fill="#000000" transform="translate(115,103)"/>
<path d="M0 0 C2.91227269 3.28804981 4.49701212 5.59885603 5 10 C4.01 10 3.02 10 2 10 C0.68 7.03 -0.64 4.06 -2 1 C-1.34 0.67 -0.68 0.34 0 0 Z " fill="#000000" transform="translate(106,44)"/>
<path d="M0 0 C0.99 0.33 1.98 0.66 3 1 C1.35 4.3 -0.3 7.6 -2 11 C-2.99 10.34 -3.98 9.68 -5 9 C-3.35 6.03 -1.7 3.06 0 0 Z " fill="#000000" transform="translate(38,40)"/>
<path d="M0 0 C2.97 1.65 5.94 3.3 9 5 C9 5.99 9 6.98 9 8 C5.08788267 6.84414715 2.1254959 5.64465038 -1 3 C-0.67 2.01 -0.34 1.02 0 0 Z " fill="#000000" transform="translate(46,156)"/>
<path d="M0 0 C0.99 0 1.98 0 3 0 C3.33 3.63 3.66 7.26 4 11 C3.01 11 2.02 11 1 11 C0.67 7.37 0.34 3.74 0 0 Z " fill="#000000" transform="translate(115,83)"/>
</svg>
