<?xml version="1.0" standalone="no"?>
<!DOCTYPE svg PUBLIC "-//W3C//DTD SVG 20010904//EN"
 "http://www.w3.org/TR/2001/REC-SVG-20010904/DTD/svg10.dtd">
<svg version="1.0" xmlns="http://www.w3.org/2000/svg"
 width="139.000000pt" height="217.000000pt" viewBox="0 0 139.000000 217.000000"
 preserveAspectRatio="xMidYMid meet">

<g transform="translate(0.000000,217.000000) scale(0.100000,-0.100000)"
fill="#000000" stroke="none">
<path d="M155 2151 c-38 -23 -108 -99 -129 -140 -56 -107 -14 -226 109 -311
l43 -30 305 -2 305 -3 -243 -688 -243 -688 14 -66 c27 -132 94 -204 196 -211
52 -4 67 0 131 31 40 20 82 46 93 59 13 14 147 378 333 903 277 784 311 887
311 940 0 74 -26 133 -72 168 -76 58 -64 57 -615 57 -476 0 -510 -1 -538 -19z
m1085 -54 c62 -32 83 -65 88 -136 4 -58 -8 -94 -303 -928 -169 -477 -313 -878
-321 -890 -7 -11 -41 -35 -75 -52 -110 -55 -186 -36 -234 59 -55 109 -65 69
208 841 135 382 249 702 252 712 7 16 -13 17 -327 17 -294 0 -337 2 -358 17
-148 98 -156 224 -21 346 l41 37 503 0 504 0 43 -23z"/>
<path d="M145 1975 c-34 -33 -34 -87 0 -120 53 -54 145 -16 145 60 0 49 -36
85 -85 85 -25 0 -44 -8 -60 -25z"/>
<path d="M1069 1971 c-35 -35 -38 -77 -9 -114 42 -53 128 -38 149 26 31 91
-72 156 -140 88z"/>
<path d="M350 1930 c0 -5 20 -10 45 -10 25 0 45 5 45 10 0 6 -20 10 -45 10
-25 0 -45 -4 -45 -10z"/>
<path d="M540 1930 c0 -5 20 -10 45 -10 25 0 45 5 45 10 0 6 -20 10 -45 10
-25 0 -45 -4 -45 -10z"/>
<path d="M730 1930 c0 -5 23 -10 51 -10 31 0 48 4 44 10 -3 6 -26 10 -51 10
-24 0 -44 -4 -44 -10z"/>
<path d="M920 1930 c0 -5 23 -10 51 -10 31 0 48 4 44 10 -3 6 -26 10 -51 10
-24 0 -44 -4 -44 -10z"/>
<path d="M1086 1758 c-18 -42 -20 -58 -7 -58 12 0 34 66 28 83 -3 6 -12 -5
-21 -25z"/>
<path d="M1016 1567 c-18 -49 -19 -57 -7 -57 12 0 42 88 32 95 -5 2 -16 -15
-25 -38z"/>
<path d="M947 1375 c-20 -57 -5 -68 17 -12 18 49 19 57 7 57 -5 0 -16 -20 -24
-45z"/>
<path d="M882 1197 c-14 -39 -15 -57 -4 -57 8 0 32 65 32 84 0 18 -18 2 -28
-27z"/>
<path d="M820 1025 c-17 -45 -22 -75 -14 -75 13 0 43 89 33 96 -5 3 -13 -7
-19 -21z"/>
<path d="M746 820 c-19 -47 -19 -50 -7 -50 5 0 16 18 25 40 19 47 19 50 7 50
-5 0 -16 -18 -25 -40z"/>
<path d="M680 635 c-19 -45 -20 -70 -1 -49 13 13 34 84 27 91 -3 3 -15 -16
-26 -42z"/>
<path d="M612 451 c-14 -45 -15 -51 -4 -51 8 0 32 58 32 78 0 26 -18 10 -28
-27z"/>
<path d="M510 335 c0 -13 25 -71 36 -84 7 -8 94 33 94 46 0 11 -5 11 -30 -2
-33 -17 -41 -18 -39 -7 3 19 -2 26 -10 13 -7 -11 -13 -7 -25 18 -18 34 -26 39
-26 16z"/>
</g>
</svg>
