<?xml version="1.0" encoding="UTF-8"?>
<svg version="1.1" xmlns="http://www.w3.org/2000/svg" width="153" height="230">
<path d="M0 0 C13.58170299 11.38948006 20.43272696 24.9136348 23.875 42.125 C25.64060709 62.25292077 20.47912782 80.5399118 10.8125 98.0625 C10.47395996 98.67996094 10.13541992 99.29742187 9.78662109 99.93359375 C3.17631962 111.40647074 -6.3233776 120.48578242 -15.6484375 129.72924805 C-17.81310227 131.87559717 -19.96959802 134.02989996 -22.125 136.18554688 C-23.5203621 137.57599389 -24.91618008 138.9659836 -26.3125 140.35546875 C-26.94607422 140.98793015 -27.57964844 141.62039154 -28.23242188 142.27201843 C-32.60561446 146.59978838 -37.15287387 150.67185536 -41.8125 154.6875 C-43.31347891 155.99888041 -44.81350777 157.31134916 -46.3125 158.625 C-47.47916667 159.64583333 -48.64583333 160.66666667 -49.8125 161.6875 C-48.80558105 161.69963028 -48.80558105 161.69963028 -47.77832031 161.71200562 C-40.76983206 161.79829333 -33.76161879 161.89780698 -26.75341797 162.00488281 C-24.14050934 162.04308418 -21.52754972 162.07795224 -18.91455078 162.109375 C-15.1511822 162.15521733 -11.38816207 162.21318103 -7.625 162.2734375 C-6.46323242 162.28498871 -5.30146484 162.29653992 -4.10449219 162.30844116 C5.53364902 162.48245336 13.50162324 163.22405362 20.78515625 170.22265625 C26.79249094 176.70231209 28.82366056 183.14035051 28.53125 191.94921875 C27.52389259 199.97373629 23.42422445 205.74826022 17.1875 210.6875 C10.23540311 215.11548858 4.36030439 216.4197797 -3.79492188 216.33447266 C-5.36772667 216.34761505 -5.36772667 216.34761505 -6.9723053 216.36102295 C-10.40905179 216.3828769 -13.84449237 216.36851303 -17.28125 216.3515625 C-19.68681076 216.35493463 -22.09236985 216.35979055 -24.4979248 216.36605835 C-29.52791644 216.37341077 -34.55746268 216.36277612 -39.58740234 216.33935547 C-46.01656298 216.31086959 -52.44467979 216.3272822 -58.87380219 216.35721779 C-63.83770532 216.37533439 -68.8013633 216.36951256 -73.76527405 216.35657883 C-76.13501613 216.35325691 -78.50478088 216.35728885 -80.87449646 216.36897659 C-84.19361858 216.38175659 -87.51107894 216.36220629 -90.83007812 216.33447266 C-92.28142906 216.34965439 -92.28142906 216.34965439 -93.76210022 216.36514282 C-101.84270983 216.24082507 -107.97824175 213.58925738 -114.3984375 208.73046875 C-119.65953777 203.27408746 -124.07214873 197.46118836 -124.8125 189.6875 C-124.87566406 189.03910156 -124.93882813 188.39070312 -125.00390625 187.72265625 C-125.8677118 170.97597443 -118.37107089 155.19765508 -107.8125 142.6875 C-106.6059375 141.140625 -106.6059375 141.140625 -105.375 139.5625 C-102.76363592 136.63267689 -100.02091802 134.13837584 -97.0390625 131.59765625 C-94.64930656 129.54749721 -92.32559675 127.43506846 -90 125.3125 C-85.70668589 121.43740827 -81.27955886 117.76799423 -76.7890625 114.125 C-71.03978595 109.41693102 -65.40760072 104.57727149 -59.8125 99.6875 C-59.22581543 99.17751465 -58.63913086 98.6675293 -58.03466797 98.14208984 C-46.54197681 88.09277085 -34.83965982 75.87839448 -33.58984375 59.828125 C-33.41370664 53.67098415 -33.59940213 49.00573096 -36.8125 43.6875 C-40.34564447 40.33101275 -42.99502451 38.87295668 -47.875 38.375 C-56.95546841 39.0956721 -64.07588549 43.9439783 -71.62109375 48.71875 C-80.20549875 54.01439274 -87.87586238 58.21527037 -98.20703125 56.2265625 C-106.35609451 54.09854291 -113.18991806 49.87818301 -117.8125 42.6875 C-121.2588859 35.645534 -121.67242878 29.85378352 -119.3125 22.3125 C-113.50624803 7.68712991 -98.63499552 -0.44928522 -84.9375 -6.6875 C-57.09764096 -18.64581743 -25.06755958 -18.42052905 0 0 Z M-108.8125 15.6875 C-113.05507796 20.9519462 -115.235832 26.88928611 -114.8125 33.6875 C-112.80430416 40.38148613 -109.17040745 44.40046857 -103.25 47.9375 C-98.13955513 50.53918102 -94.58721878 51.04914905 -88.8125 50.6875 C-86.03933596 49.7448212 -83.51639354 48.44248603 -80.9375 47.0625 C-80.23568604 46.70003174 -79.53387207 46.33756348 -78.81079102 45.96411133 C-74.23574075 43.56206447 -69.93202915 40.90449853 -65.69921875 37.9375 C-59.2741252 33.68070924 -52.45891292 32.16909912 -44.8125 32.6875 C-39.02975206 34.18550709 -33.76075746 36.37865619 -30.62109375 41.7109375 C-25.87916802 51.92177409 -26.96649851 62.21167861 -30.55859375 72.625 C-34.30005408 81.76302149 -40.0084779 88.63025377 -46.8125 95.6875 C-48.00746094 96.94240234 -48.00746094 96.94240234 -49.2265625 98.22265625 C-54.16104257 103.29028895 -59.32000427 107.86773197 -64.83984375 112.28515625 C-69.98893965 116.44638356 -74.97370072 120.79955664 -79.98779297 125.12158203 C-81.83006874 126.70257705 -83.68118133 128.27259103 -85.53515625 129.83984375 C-102.61553711 144.29857422 -116.69465345 159.118278 -119.09765625 182.45703125 C-119.35654162 189.78461269 -117.69589281 195.5641826 -113.1875 201.375 C-108.36756836 206.44890539 -102.81066577 209.84567312 -95.73536682 210.32914734 C-93.86624348 210.3614932 -91.99652515 210.36712249 -90.12719727 210.3503418 C-89.0983139 210.36070969 -88.06943054 210.37107758 -87.0093689 210.38175964 C-83.63213397 210.40870738 -80.25620888 210.39919314 -76.87890625 210.38671875 C-74.51675558 210.39263261 -72.15460791 210.3998814 -69.79246521 210.40840149 C-64.85066061 210.42026074 -59.90930699 210.41360866 -54.9675293 210.39428711 C-48.65142898 210.37140858 -42.33667473 210.39818158 -36.02070713 210.43934917 C-31.14514614 210.46499002 -26.26990451 210.46232991 -21.39430046 210.45145607 C-19.06641353 210.44997452 -16.7385015 210.45759955 -14.41067696 210.47470665 C-11.14869974 210.49478891 -7.88906848 210.47618989 -4.62719727 210.44799805 C-3.67676041 210.46171448 -2.72632355 210.47543091 -1.74708557 210.48956299 C5.49995939 210.3651097 10.41797361 208.02458415 16.1875 203.6875 C21.08830607 198.54165362 22.65877457 194.2955287 22.50390625 187.28515625 C21.71308433 180.79260589 18.20174635 175.76886331 13.1875 171.6875 C8.07787462 169.10753403 4.3188698 168.30412201 -1.49194336 168.25512695 C-2.22448334 168.2449353 -2.95702332 168.23474365 -3.71176147 168.22424316 C-6.10870184 168.1942926 -8.50524143 168.18487514 -10.90234375 168.17578125 C-12.57387094 168.15892119 -14.24538556 168.14076916 -15.91688538 168.12138367 C-20.29798451 168.07402146 -24.67903264 168.04412324 -29.06030273 168.01794434 C-33.53835113 167.988069 -38.01622403 167.94156273 -42.49414062 167.89648438 C-51.26684057 167.81060816 -60.03955675 167.74319349 -68.8125 167.6875 C-68.05555344 167.2126416 -67.29860687 166.7377832 -66.51872253 166.24853516 C-65.03061821 165.30953369 -65.03061821 165.30953369 -63.51245117 164.3515625 C-62.52862961 163.7323291 -61.54480804 163.1130957 -60.53117371 162.47509766 C-57.40149019 160.41725052 -54.83133766 158.2706292 -52.125 155.6875 C-49.18798238 152.91035115 -46.23817399 150.17932123 -43.17456055 147.54345703 C-36.0998846 141.36449614 -29.50357949 134.68066543 -22.84033203 128.06542969 C-21.16047275 126.40211915 -19.47526794 124.74418935 -17.78466797 123.09179688 C-8.43011738 113.9467445 0.17246573 105.40219298 6.1875 93.6875 C6.74671143 92.67179932 7.30592285 91.65609863 7.88208008 90.60961914 C17.6583223 72.70222926 21.23231045 52.36265193 15.515625 32.58984375 C10.59305298 17.25792522 1.12076334 6.47330147 -12.95703125 -0.9765625 C-44.6491914 -16.23992789 -83.1669493 -8.0133644 -108.8125 15.6875 Z " fill="#000000" transform="translate(124.8125,14.3125)"/>
<path d="M0 0 C3.34265205 1.20706879 3.94704566 1.92056849 6 5 C6.5493667 9.86581934 6.73490373 11.8976444 4 16 C0.67055136 18.21963243 -1.13918934 18.75539772 -5.0625 18.48046875 C-8.5685303 17.61102978 -10.01216563 15.91963173 -12 13 C-12.69151325 8.69725091 -12.51557405 6.79054688 -10.125 3.125 C-6.76828269 -0.23171731 -4.67343631 -0.28040618 0 0 Z " fill="#000000" transform="translate(31,38)"/>
<path d="M0 0 C4.25219775 0.47246642 6.37314725 2.77272377 9 6 C9.20186821 9.2298914 7.74906457 10.29055681 5.625 12.75 C3 15 3 15 0 15 C0.33 14.38125 0.66 13.7625 1 13.125 C2.14193235 11.08981656 2.14193235 11.08981656 2 9 C2.226875 8.360625 2.45375 7.72125 2.6875 7.0625 C2.790625 6.381875 2.89375 5.70125 3 5 C1.60411246 3.35405861 1.60411246 3.35405861 0 2 C0 1.34 0 0.68 0 0 Z " fill="#000000" transform="translate(124,192)"/>
<path d="M0 0 C3.96 0 7.92 0 12 0 C12 0.99 12 1.98 12 3 C8.04 3 4.08 3 0 3 C0 2.01 0 1.02 0 0 Z " fill="#000000" transform="translate(105,198)"/>
<path d="M0 0 C3.96 0 7.92 0 12 0 C12 0.99 12 1.98 12 3 C8.04 3 4.08 3 0 3 C0 2.01 0 1.02 0 0 Z " fill="#000000" transform="translate(43,198)"/>
<path d="M0 0 C0.99 0.33 1.98 0.66 3 1 C1.35 4.3 -0.3 7.6 -2 11 C-2.99 11 -3.98 11 -5 11 C-3.77472971 6.94718288 -2.30119506 3.55639236 0 0 Z " fill="#000000" transform="translate(113,89)"/>
<path d="M0 0 C0.99 0 1.98 0 3 0 C2.85904936 1.6254308 2.71207913 3.25034051 2.5625 4.875 C2.48128906 5.77992187 2.40007812 6.68484375 2.31640625 7.6171875 C2 10 2 10 1 12 C0.01 12 -0.98 12 -2 12 C-1.34 8.04 -0.68 4.08 0 0 Z " fill="#000000" transform="translate(118,67)"/>
<path d="M0 0 C0.66 0 1.32 0 2 0 C1.84518205 2.70931419 1.51827919 4.46584039 -0.40234375 6.4453125 C-1.89771708 7.67679642 -3.4462924 8.8429837 -5 10 C-5 4.67373311 -3.58706631 3.757879 0 0 Z " fill="#000000" transform="translate(102,108)"/>
<path d="M0 0 C3.63 0 7.26 0 11 0 C11 0.99 11 1.98 11 3 C7.37 3 3.74 3 0 3 C0 2.01 0 1.02 0 0 Z " fill="#000000" transform="translate(85,198)"/>
<path d="M0 0 C3.63 0 7.26 0 11 0 C11 0.99 11 1.98 11 3 C7.37 3 3.74 3 0 3 C0 2.01 0 1.02 0 0 Z " fill="#000000" transform="translate(64,198)"/>
<path d="M0 0 C1.32 0.33 2.64 0.66 4 1 C5.1577506 4.47325181 5.06866652 7.36067448 5 11 C4.01 11 3.02 11 2 11 C1.34 7.37 0.68 3.74 0 0 Z " fill="#000000" transform="translate(116,46)"/>
<path d="M0 0 C0 0.99 0 1.98 0 3 C-2.97 4.32 -5.94 5.64 -9 7 C-9 5.68 -9 4.36 -9 3 C-3.375 0 -3.375 0 0 0 Z " fill="#000000" transform="translate(49,30)"/>
<path d="M0 0 C0.66 0 1.32 0 2 0 C2 0.99 2 1.98 2 3 C2.66 3 3.32 3 4 3 C4 3.99 4 4.98 4 6 C1.36 6 -1.28 6 -4 6 C-2.84826645 3.53199953 -1.95216435 1.95216435 0 0 Z " fill="#000000" transform="translate(30,195)"/>
<path d="M0 0 C0.99 0 1.98 0 3 0 C2.42647107 3.87132028 0.51295648 6.08172796 -2 9 C-2.99 8.67 -3.98 8.34 -5 8 C-3.63029745 5.04987143 -2.17390875 2.4347778 0 0 Z " fill="#000000" transform="translate(41,181)"/>
<path d="M0 0 C0.66 0.33 1.32 0.66 2 1 C0.64978174 5.41889613 -1.26115668 7.34345343 -5 10 C-5 4.69520066 -3.4637943 3.81017373 0 0 Z " fill="#000000" transform="translate(78,137)"/>
<path d="M0 0 C0.99 0.33 1.98 0.66 3 1 C1.63029745 3.95012857 0.17390875 6.5652222 -2 9 C-2.99 9 -3.98 9 -5 9 C-4.42647107 5.12867972 -2.51295648 2.91827204 0 0 Z " fill="#000000" transform="translate(89,123)"/>
<path d="M0 0 C0.99 0 1.98 0 3 0 C2.42647107 3.87132028 0.51295648 6.08172796 -2 9 C-2.99 8.67 -3.98 8.34 -5 8 C-3.63029745 5.04987143 -2.17390875 2.4347778 0 0 Z " fill="#000000" transform="translate(65,152)"/>
<path d="M0 0 C5.57142857 5.14285714 5.57142857 5.14285714 6 9 C5.01 9 4.02 9 3 9 C0.75 6.75 0.75 6.75 -1 4 C-0.75 1.6875 -0.75 1.6875 0 0 Z " fill="#000000" transform="translate(109,29)"/>
<path d="M0 0 C0.66 0.33 1.32 0.66 2 1 C0.8141763 4.37503669 -0.27573689 6.64722731 -3 9 C-3.99 8.67 -4.98 8.34 -6 8 C-2.25 2.25 -2.25 2.25 0 0 Z " fill="#000000" transform="translate(54,166)"/>
<path d="M0 0 C0 0.99 0 1.98 0 3 C-3.3 3.33 -6.6 3.66 -10 4 C-10 3.01 -10 2.02 -10 1 C-6.61981469 -0.04005702 -3.5219721 -0.08004482 0 0 Z " fill="#000000" transform="translate(84,19)"/>
<path d="M0 0 C-1 3 -1 3 -3.3125 4.1875 C-6 5 -6 5 -10 5 C-9 2 -9 2 -6.6875 0.8125 C-4 0 -4 0 0 0 Z " fill="#000000" transform="translate(66,23)"/>
<path d="M0 0 C3.71888239 0.50712033 6.73454239 1.11608215 10 3 C9.67 3.99 9.34 4.98 9 6 C6.03 5.01 3.06 4.02 0 3 C0 2.01 0 1.02 0 0 Z " fill="#000000" transform="translate(92,20)"/>
</svg>
