<?xml version="1.0" encoding="UTF-8"?>
<svg version="1.1" xmlns="http://www.w3.org/2000/svg" width="499" height="239">
<path d="M0 0 C7.6891423 6.9030163 16.89791079 16.2895361 18.6315918 26.86499023 C18.73630861 36.55129528 16.09130663 43.16995716 9.4753418 50.25561523 C-1.74220782 60.61829583 -16.80606619 65.53970088 -31.8371582 67.00561523 C-32.8271582 67.11131836 -33.8171582 67.21702148 -34.8371582 67.32592773 C-38.87639729 66.89465481 -40.32408896 65.31779466 -43.2746582 62.56811523 C-56.06160966 51.23911146 -72.82026637 41.50305059 -90.3762207 41.79467773 C-100.60585658 42.67150367 -107.92863847 47.35764408 -114.5246582 55.00561523 C-124.62323218 68.59362782 -125.42714257 86.66132718 -123.34106445 102.85717773 C-120.86964679 114.5580139 -115.65743423 125.75796683 -105.45043945 132.60717773 C-93.4258813 139.06306296 -80.77630178 139.26360218 -67.80932617 135.65258789 C-59.17770438 132.82097143 -48.73370502 128.12528476 -42.8371582 121.00561523 C-42.53422852 120.35850586 -42.23129883 119.71139648 -41.91918945 119.04467773 C-40.75875197 116.64801909 -40.07783203 115.49191391 -37.8371582 114.00561523 C-22.18796403 112.62235313 -6.207531 117.21847609 6.3269043 126.63061523 C16.70058705 136.13601617 19.21741956 148.16860612 19.8190918 161.54077148 C18.41799126 168.93824873 11.96669577 173.29524253 6.1003418 177.44311523 C5.44477295 177.91338135 4.7892041 178.38364746 4.11376953 178.86816406 C-28.36113421 201.91322499 -66.61109332 216.02718864 -106.86743164 210.23632812 C-127.01078795 206.7105148 -145.04345654 197.83215697 -160.8371582 185.00561523 C-161.56418945 184.43198242 -162.2912207 183.85834961 -163.0402832 183.26733398 C-182.84713687 166.9305787 -194.50149814 141.37992153 -197.31958008 116.24511719 C-200.49177301 81.42414018 -197.18262551 41.96919817 -174.86450195 13.41967773 C-174.19547852 12.62303711 -173.52645508 11.82639648 -172.8371582 11.00561523 C-172.11657227 10.14709961 -171.39598633 9.28858398 -170.65356445 8.40405273 C-152.07923957 -12.90652452 -126.22271366 -25.30800952 -97.97094727 -27.84936523 C-63.49813279 -30.19225446 -26.76991368 -23.07865336 0 0 Z M-156.8371582 3.00561523 C-157.81426758 3.88991211 -158.79137695 4.77420898 -159.7980957 5.68530273 C-180.00679097 24.58506198 -190.53294295 52.61709498 -191.8371582 80.00561523 C-192.93143304 115.03767907 -189.49925888 144.92676918 -165.8371582 172.00561523 C-164.85295898 173.14256836 -164.85295898 173.14256836 -163.84887695 174.30249023 C-146.6348623 192.73291278 -119.61184913 204.44060727 -94.55981445 205.34155273 C-80.4980261 205.53241301 -67.41806824 204.72378212 -53.8371582 201.00561523 C-53.10303711 200.81257812 -52.36891602 200.61954102 -51.61254883 200.4206543 C-31.83495825 195.06751978 -13.78649817 184.58866019 2.4387207 172.26879883 C3.9750862 171.14317506 5.58711639 170.12252842 7.20581055 169.11889648 C10.76414469 166.84045927 12.81877578 165.48531018 13.79956055 161.26733398 C14.18703734 150.7520154 11.24714089 141.75154591 4.1628418 134.00561523 C-4.4953984 124.70817609 -15.4787166 121.38875477 -27.8371582 120.00561523 C-29.0952832 119.79936523 -30.3534082 119.59311523 -31.6496582 119.38061523 C-36.0051714 120.23463743 -37.27738423 122.3923773 -39.9699707 125.77905273 C-49.55574781 137.20979112 -64.78879248 142.30990271 -79.2121582 143.81811523 C-92.64978315 144.54963091 -102.98929973 141.18816328 -114.1496582 133.81811523 C-120.93228604 126.72001633 -125.09132052 118.36078082 -127.8371582 109.00561523 C-128.06274414 108.27600586 -128.28833008 107.54639648 -128.52075195 106.79467773 C-133.30217583 87.99873558 -129.45117509 68.45718723 -119.8371582 52.00561523 C-114.24237271 43.33977901 -105.26498379 38.78316014 -95.41137695 36.47436523 C-77.48986324 33.21096365 -60.7225373 42.90982781 -46.2121582 52.25952148 C-43.83744188 54.00540667 -41.8989951 55.90636597 -39.8371582 58.00561523 C-36.78108594 60.74129283 -34.94822537 61.47585098 -30.8371582 61.25561523 C-16.56523097 58.84067054 -0.47610151 53.93317589 8.8190918 42.17749023 C11.91519905 37.17331689 13.41692136 32.37702446 12.7878418 26.50561523 C10.48866688 21.55354619 7.45477255 17.34432221 4.1628418 13.00561523 C3.3997168 11.97436523 2.6365918 10.94311523 1.8503418 9.88061523 C-16.87905215 -10.15548062 -47.53450731 -20.88176571 -74.48217773 -22.11547852 C-104.11658232 -23.10609876 -134.21957771 -17.60151366 -156.8371582 3.00561523 Z " fill="#000000" transform="translate(197.837158203125,27.994384765625)"/>
<path d="M0 0 C3.25 2.3125 3.25 2.3125 4.25 3.3125 C4.34311889 4.81668739 4.36746028 6.32521356 4.36352539 7.83227539 C4.36341209 9.27365623 4.36341209 9.27365623 4.36329651 10.74415588 C4.35813522 11.788936 4.35297394 12.83371613 4.34765625 13.91015625 C4.3462413 14.97415146 4.34482635 16.03814667 4.34336853 17.13438416 C4.33775064 20.54795083 4.32519511 23.961453 4.3125 27.375 C4.30748731 29.68294176 4.302924 31.99088455 4.29882812 34.29882812 C4.2877754 39.97007426 4.27101987 45.64128253 4.25 51.3125 C4.91531738 51.27060547 5.58063477 51.22871094 6.26611328 51.18554688 C9.30178541 51.01851355 12.3364925 50.91500387 15.375 50.8125 C16.94507813 50.71195313 16.94507813 50.71195313 18.546875 50.609375 C26.19290661 50.41580458 26.19290661 50.41580458 29.27200317 53.0276947 C30.80937891 55.06088987 32.0646994 57.05889869 33.25 59.3125 C33.80429687 60.26253906 34.35859375 61.21257812 34.9296875 62.19140625 C39.85182013 73.24207656 39.79973593 84.34828812 35.53125 95.64453125 C33.18509916 100.52996119 30.06418421 104.49831579 26.25 108.3125 C24.09521484 108.53955078 24.09521484 108.53955078 21.4609375 108.5078125 C20.51992188 108.50136719 19.57890625 108.49492188 18.609375 108.48828125 C17.62453125 108.47152344 16.6396875 108.45476562 15.625 108.4375 C14.63242187 108.42847656 13.63984375 108.41945313 12.6171875 108.41015625 C10.16121866 108.38654116 7.70572832 108.35360799 5.25 108.3125 C5.25553076 108.872958 5.26106152 109.433416 5.26675987 110.01085758 C5.39942989 123.66593112 5.49824997 137.32089133 5.56087303 150.9764719 C5.59217632 157.58034353 5.63463307 164.18374974 5.70263672 170.78735352 C5.76786165 177.16106168 5.80371359 183.53432238 5.81926346 189.90833855 C5.8303439 192.33924338 5.85198169 194.77012391 5.88438034 197.20083809 C5.92798265 200.60781769 5.93393214 204.01295199 5.93115234 207.42016602 C5.952724 208.42358032 5.97429565 209.42699463 5.996521 210.46081543 C5.94386992 216.43054155 5.02582508 219.67366774 0.79566383 223.97268581 C-1.31521696 225.80244205 -3.44489947 227.30866553 -5.875 228.6875 C-7.11636719 229.41066406 -7.11636719 229.41066406 -8.3828125 230.1484375 C-15.7249519 233.75892849 -24.66891025 233.3054524 -32.3125 230.8125 C-39.21362247 228.02396505 -45.49245739 223.57004261 -50.75 218.3125 C-50.99609566 216.34849358 -50.99609566 216.34849358 -50.99050903 213.89596558 C-50.99325836 212.9676593 -50.99600769 212.03935303 -50.99884033 211.08291626 C-50.99164978 210.06152557 -50.98445923 209.04013489 -50.97705078 207.98779297 C-50.97734283 206.91460815 -50.97763489 205.84142334 -50.97793579 204.73571777 C-50.97653831 201.17529315 -50.96095737 197.61507573 -50.9453125 194.0546875 C-50.94158386 191.59131993 -50.93873619 189.12795088 -50.93673706 186.6645813 C-50.92908889 180.17079599 -50.90943023 173.67709968 -50.8873291 167.18334961 C-50.86689614 160.56104741 -50.85774081 153.93873087 -50.84765625 147.31640625 C-50.82618547 134.31506612 -50.79241797 121.31378779 -50.75 108.3125 C-51.41531738 108.35439453 -52.08063477 108.39628906 -52.76611328 108.43945312 C-55.80178541 108.60648645 -58.8364925 108.70999613 -61.875 108.8125 C-63.44507813 108.91304687 -63.44507813 108.91304687 -65.046875 109.015625 C-72.69507157 109.20925023 -72.69507157 109.20925023 -75.7796936 106.58714294 C-77.31483404 104.5569101 -78.57223292 102.56583724 -79.75 100.3125 C-80.47316406 99.03052734 -80.47316406 99.03052734 -81.2109375 97.72265625 C-85.1715551 87.5503008 -85.50842175 75.01665272 -81.81640625 64.671875 C-79.73008691 60.05598899 -77.28098133 55.6995343 -74.75 51.3125 C-66.83 51.3125 -58.91 51.3125 -50.75 51.3125 C-50.90662109 46.21941406 -50.90662109 46.21941406 -51.06640625 41.0234375 C-51.13663715 37.72712773 -51.1912591 34.43090191 -51.24438477 31.13427734 C-51.28959016 28.84678726 -51.35096912 26.55955645 -51.42895508 24.27294922 C-51.53840739 20.98079538 -51.58922209 17.69208124 -51.62890625 14.3984375 C-51.67535782 13.37946381 -51.72180939 12.36049011 -51.76966858 11.31063843 C-51.77459446 4.35025457 -51.77459446 4.35025457 -48.81832886 1.35601807 C-46.51832131 -0.20670248 -44.25760355 -1.49058467 -41.75 -2.6875 C-41.10176773 -3.01199127 -40.45353546 -3.33648254 -39.78565979 -3.67080688 C-26.93896614 -9.6363273 -11.81987035 -7.2607775 0 0 Z M-44.75 6.3125 C-45.32763138 8.62204513 -45.32763138 8.62204513 -45.20410156 11.24291992 C-45.20379944 12.24373093 -45.20349731 13.24454193 -45.20318604 14.27568054 C-45.18254089 15.35388565 -45.16189575 16.43209076 -45.140625 17.54296875 C-45.13213531 19.20130486 -45.13213531 19.20130486 -45.12347412 20.8931427 C-45.10105795 24.42919964 -45.05084996 27.96424859 -45 31.5 C-44.97994187 33.89516767 -44.96168991 36.29035121 -44.9453125 38.68554688 C-44.90457522 44.5619 -44.82628975 50.43606993 -44.75 56.3125 C-53.33 56.3125 -61.91 56.3125 -70.75 56.3125 C-71.719375 58.21 -72.68875 60.1075 -73.6875 62.0625 C-74.50541016 63.66351563 -74.50541016 63.66351563 -75.33984375 65.296875 C-78.97152708 73.06324489 -79.04878693 83.15593013 -76.9609375 91.4453125 C-76.01771625 93.85736683 -75.04784997 96.07273216 -73.75 98.3125 C-73.15638672 99.35277344 -73.15638672 99.35277344 -72.55078125 100.4140625 C-70.86305945 102.57519787 -70.86305945 102.57519787 -68.02270508 102.76660156 C-66.41238403 102.73518066 -66.41238403 102.73518066 -64.76953125 102.703125 C-63.02446289 102.68378906 -63.02446289 102.68378906 -61.24414062 102.6640625 C-60.02919922 102.63054687 -58.81425781 102.59703125 -57.5625 102.5625 C-56.33595703 102.54445313 -55.10941406 102.52640625 -53.84570312 102.5078125 C-50.81302241 102.46061124 -47.78189913 102.39477677 -44.75 102.3125 C-44.75645255 102.88934099 -44.7629051 103.46618198 -44.76955318 104.06050301 C-44.92425866 118.10740028 -45.04003491 132.15416958 -45.1126852 146.20173836 C-45.14875409 152.99515536 -45.197912 159.78800311 -45.27807617 166.58105469 C-45.3553963 173.13623797 -45.39598623 179.69105194 -45.4141407 186.24666977 C-45.4270789 188.74820136 -45.45234454 191.24970042 -45.4901104 193.75098038 C-45.54090148 197.25413288 -45.54792442 200.75483956 -45.54467773 204.25830078 C-45.56984467 205.29336258 -45.5950116 206.32842438 -45.62094116 207.39485168 C-45.62231573 212.70832227 -45.62231573 212.70832227 -43.2200489 217.27671432 C-40.27047398 219.85386161 -37.06190746 221.98159961 -33.5 223.625 C-32.85546875 223.93050781 -32.2109375 224.23601562 -31.546875 224.55078125 C-25.57038665 227.08429262 -18.65635762 227.44618588 -12.39453125 225.62890625 C-7.79330178 223.48403913 -3.60067631 220.58244528 -0.75 216.3125 C0.10702268 212.59382888 0.00967082 208.96805198 -0.06884766 205.16650391 C-0.0679715 204.0537207 -0.06709534 202.9409375 -0.06619263 201.79443359 C-0.07036462 198.12525648 -0.11700321 194.45791929 -0.1640625 190.7890625 C-0.17525589 188.24173989 -0.1837954 185.69440436 -0.18978882 183.14706421 C-0.21033768 177.13326553 -0.2575979 171.12025366 -0.31788576 165.10676992 C-0.38505085 158.25800301 -0.41796476 151.40920397 -0.44805837 144.56018949 C-0.51070122 130.47726271 -0.61617329 116.39491741 -0.75 102.3125 C0.33885498 102.39105225 0.33885498 102.39105225 1.44970703 102.47119141 C4.75724739 102.67979406 8.06340942 102.80928576 11.375 102.9375 C13.08816406 103.06318359 13.08816406 103.06318359 14.8359375 103.19140625 C18.23933539 103.29034224 20.97242817 103.25251936 24.25 102.3125 C27.14609854 99.33093065 28.71613375 96.14515986 30.25 92.3125 C30.69601562 91.25546875 31.14203125 90.1984375 31.6015625 89.109375 C33.711307 80.00951317 33.08804831 70.40825993 28.25 62.3125 C27.66114014 61.28318359 27.07228027 60.25386719 26.46557617 59.19335938 C24.52245845 56.88707231 23.51091307 56.35861286 20.49897766 55.82629395 C17.12725716 55.7214076 13.80754097 55.79023771 10.4375 55.9375 C9.26767578 55.96457031 8.09785156 55.99164063 6.89257812 56.01953125 C4.00983865 56.09012895 1.13086429 56.18869426 -1.75 56.3125 C-1.72335266 55.38954887 -1.72335266 55.38954887 -1.69616699 54.44795227 C-1.51910241 48.04063102 -1.39849406 41.63400466 -1.31054688 35.22485352 C-1.27032803 32.83361585 -1.2157432 30.44257476 -1.14648438 28.05200195 C-1.04936655 24.61360233 -1.00405694 21.17780252 -0.96875 17.73828125 C-0.92745972 16.67039871 -0.88616943 15.60251617 -0.84362793 14.50227356 C-0.71718408 9.01908136 -0.71718408 9.01908136 -3.45239258 4.54086304 C-15.3467926 -3.12068561 -33.9170528 -3.68610874 -44.75 6.3125 Z " fill="#000000" transform="translate(460.75,6.6875)"/>
<path d="M0 0 C0 53.46 0 106.92 0 162 C-9.18608798 165.93689485 -16.04078231 167.34631781 -25.875 167.3125 C-26.80441406 167.32861328 -27.73382813 167.34472656 -28.69140625 167.36132812 C-36.76821132 167.36696049 -43.83175324 165.75960565 -51 162 C-51 160.35 -51 158.7 -51 157 C-51.81339844 157.20496094 -52.62679687 157.40992188 -53.46484375 157.62109375 C-75.74731885 162.85960589 -98.88610468 162.54258156 -119.203125 150.88671875 C-137.08541636 138.82366466 -146.79703021 120.74321904 -151.6875 100.09765625 C-156.25097773 75.98094408 -153.1173978 49.14650956 -140.859375 27.7265625 C-137.14942929 22.28634799 -132.63462542 17.65468873 -128 13 C-127.36449219 12.3296875 -126.72898438 11.659375 -126.07421875 10.96875 C-113.93495763 -0.87443158 -95.30029714 -6.26826609 -78.6875 -6.4375 C-70.16268327 -6.20186834 -62.46202354 -4.72469044 -54.8125 -0.9375 C-51.199921 0.3791454 -51.199921 0.3791454 -48.828125 -1.04296875 C-47.28918119 -2.11757607 -45.7724786 -3.22460599 -44.27734375 -4.359375 C-30.22762456 -14.48095658 -13.39365426 -7.44091903 0 0 Z M-45 3 C-45.6950739 5.49407252 -45.6950739 5.49407252 -45.75 8.1875 C-45.83507812 9.53908203 -45.83507812 9.53908203 -45.921875 10.91796875 C-45.94765625 11.60503906 -45.9734375 12.29210937 -46 13 C-46.52207031 12.46890625 -47.04414063 11.9378125 -47.58203125 11.390625 C-57.66121509 1.7174328 -68.95149803 -0.5387424 -82.609375 -0.26953125 C-99.17934879 0.47399321 -114.6833059 7.72798836 -126.50390625 19.25 C-144.12810243 38.66695479 -148.16287802 61.68373572 -147.16845703 87.20166016 C-146.08804365 105.14904881 -139.45947519 125.45496898 -126 138 C-111.01099417 150.8445281 -94.47348682 155.67005546 -75 155 C-71.45863995 154.68451135 -67.95414423 154.20685745 -64.4375 153.6875 C-63.11588867 153.51057617 -63.11588867 153.51057617 -61.76757812 153.33007812 C-55.88838968 152.48399566 -50.58504497 151.02422442 -45 149 C-45 151.97 -45 154.94 -45 158 C-33.60044852 163.04210931 -20.03181046 163.4905113 -8.30444336 158.95825195 C-7.54397705 158.64202881 -6.78351074 158.32580566 -6 158 C-5.85990911 137.99007263 -5.75406794 117.98024461 -5.68912697 97.96992874 C-5.65817375 88.67900461 -5.61596546 79.38838496 -5.54736328 70.09765625 C-5.48760585 62.00091183 -5.44886151 53.90438788 -5.43546903 45.80742908 C-5.42763893 41.51903924 -5.40920699 37.23128021 -5.36561966 32.94309235 C-5.32493577 28.90791064 -5.31232197 24.87362034 -5.32135391 20.83825302 C-5.31970133 19.3563312 -5.30774002 17.87438001 -5.28476715 16.39263535 C-5.25495951 14.37112676 -5.26565869 12.34914134 -5.2784729 10.32745361 C-5.27294214 9.19549183 -5.26741138 8.06353004 -5.26171303 6.89726639 C-5.76472737 3.71207453 -5.76472737 3.71207453 -8.89592552 1.66996384 C-19.95305332 -4.27867035 -35.07421065 -6.35192144 -45 3 Z " fill="#000000" transform="translate(372,60)"/>
<path d="M0 0 C8.05002439 6.26438262 12.60789422 15.70194397 14.1484375 25.671875 C14.67876175 35.07493189 14.52112248 43.75105021 11.1484375 52.671875 C10.88160156 53.38730469 10.61476563 54.10273438 10.33984375 54.83984375 C7.34325192 61.72534586 2.21247494 66.94487208 -4.2890625 70.609375 C-13.76620811 73.43589211 -20.64094436 72.56179625 -29.8515625 68.671875 C-38.07822801 64.19693058 -44.2068069 58.30571382 -47.7265625 49.546875 C-51.21434073 37.52649647 -48.65099644 25.98837863 -43.2265625 15.109375 C-39.10087905 7.89964105 -33.07902109 0.63763711 -25.2734375 -2.734375 C-16.7416084 -4.82604923 -7.64246687 -4.51946546 0 0 Z M-32 9.58984375 C-40.18563884 18.79437013 -43.57299161 29.04744959 -43.2578125 41.234375 C-42.29638401 49.36953915 -38.35109558 55.15365085 -32.02734375 60.203125 C-26.51685784 63.92295032 -20.56630023 66.55196897 -13.8515625 66.671875 C-8.07323033 65.52433276 -2.59184229 63.39371993 1.1484375 58.671875 C7.7682046 47.46799689 9.84350684 36.65543301 7.65234375 23.75 C5.36336091 15.42172347 1.33780264 8.5606433 -5.8515625 3.671875 C-15.9636904 0.01058731 -24.31580661 2.31894363 -32 9.58984375 Z " fill="#000000" transform="translate(309.8515625,104.328125)"/>
<path d="M0 0 C3.67552256 1.99756661 4.77375004 3.50036467 6.5 7.3125 C7.12392742 11.91396471 6.36380554 14.03490684 4 18 C1.29013532 20.27042717 -0.45183064 20.91835776 -3.9375 21.4375 C-7.8124426 20.88393677 -9.95425348 19.40826469 -13 17 C-14.72869779 13.54260443 -14.48966895 9.78024432 -14 6 C-10.36346592 0.18154547 -6.71004518 -0.90154158 0 0 Z " fill="#000000" transform="translate(177,48)"/>
<path d="M0 0 C2.375 1.0625 2.375 1.0625 4 3 C5 6.375 5 6.375 5 10 C3.13326675 13.43478919 1.84387533 14.68120265 -1.8125 16.0625 C-6.21579583 15.97616087 -8.34878206 14.40980384 -12 12 C-11.74476126 10.37247769 -11.47025506 8.74796804 -11.1875 7.125 C-11.03667969 6.22007813 -10.88585937 5.31515625 -10.73046875 4.3828125 C-9.10286335 -0.92648853 -4.72757768 -0.4146998 0 0 Z " fill="#000000" transform="translate(351,68)"/>
<path d="M0 0 C2.5 2.0625 2.5 2.0625 4 5 C4 8.8137751 3.84985071 11.02424548 1.3125 13.9375 C-1.73602877 15.33817538 -3.67926952 15.4842732 -7 15 C-9.375 13.4375 -9.375 13.4375 -11 11 C-11.56288002 7.05983987 -11.60396028 4.94217804 -9.4375 1.5625 C-6.03280512 -0.61999672 -3.96569988 -0.63734462 0 0 Z " fill="#000000" transform="translate(405,77)"/>
<path d="M0 0 C2.4375 1.5625 2.4375 1.5625 4 4 C4.56783945 7.97487617 4.62340519 10.06489221 2.375 13.4375 C-0.75683492 15.49791771 -2.31544773 15.6767545 -6 15 C-8.9375 12.9375 -8.9375 12.9375 -11 10 C-11 6.45638757 -10.65850044 4.13408409 -8.875 1.0625 C-5.81547541 -0.6712306 -3.43182475 -0.42145216 0 0 Z " fill="#000000" transform="translate(441,16)"/>
<path d="M0 0 C2.375 1.5625 2.375 1.5625 4 4 C4.5625 7.5 4.5625 7.5 4 11 C2 13.5 2 13.5 -1 15 C-3.83060738 15.02092871 -6.19727195 14.57004638 -9 14 C-11.02104587 9.95790826 -11.32367554 7.34921964 -10 3 C-7.02991864 -0.3000904 -4.31091137 -0.62867458 0 0 Z " fill="#000000" transform="translate(322,85)"/>
<path d="M0 0 C7.625 0.875 7.625 0.875 11 2 C10.85831863 3.43791516 10.71148957 4.8753237 10.5625 6.3125 C10.48128906 7.11300781 10.40007812 7.91351563 10.31640625 8.73828125 C10 11 10 11 9 14 C8.01 13.67 7.02 13.34 6 13 C6.33 11.02 6.66 9.04 7 7 C6.34 7 5.68 7 5 7 C4.67 6.01 4.34 5.02 4 4 C1.98491642 3.26676204 1.98491642 3.26676204 0 3 C0 2.01 0 1.02 0 0 Z " fill="#000000" transform="translate(167,178)"/>
<path d="M0 0 C1.6498275 0.42218816 3.29483665 0.86324425 4.9375 1.3125 C6.31228516 1.67794922 6.31228516 1.67794922 7.71484375 2.05078125 C8.46894531 2.36402344 9.22304688 2.67726562 10 3 C11.21386936 6.64160808 10.6674695 7.33165469 9.0625 10.6875 C8.49208984 11.89986328 8.49208984 11.89986328 7.91015625 13.13671875 C7.60980469 13.75160156 7.30945313 14.36648437 7 15 C6.34 14.67 5.68 14.34 5 14 C5.20625 13.21625 5.4125 12.4325 5.625 11.625 C5.810625 10.325625 5.810625 10.325625 6 9 C5.34 8.34 4.68 7.68 4 7 C4 6.01 4 5.02 4 4 C2.68 3.67 1.36 3.34 0 3 C0 2.01 0 1.02 0 0 Z " fill="#000000" transform="translate(320,173)"/>
<path d="M0 0 C0.556875 0.309375 1.11375 0.61875 1.6875 0.9375 C4.24535838 2.11273223 6.18366852 2.79392696 9 3 C11.78307606 1.66457328 11.78307606 1.66457328 14 0 C14 4 14 4 12.46875 5.703125 C10.64583333 7.13541667 8.82291667 8.56770833 7 10 C4.36 7.36 1.72 4.72 -1 2 C-0.67 1.34 -0.34 0.68 0 0 Z " fill="#000000" transform="translate(431,202)"/>
<path d="M0 0 C2.86724686 0.57344937 3.8614515 0.8614515 6 3 C6.9075 2.690625 7.815 2.38125 8.75 2.0625 C11.16563338 1.2727737 13.52780285 0.57050703 16 0 C14.44499019 3.81684226 11.96404505 6.19195732 9 9 C5.18063472 7.44396229 2.73955562 5.04395069 0 2 C0 1.34 0 0.68 0 0 Z " fill="#000000" transform="translate(339,196)"/>
<path d="M0 0 C3.81684226 1.55500981 6.19195732 4.03595495 9 7 C7.44396229 10.81936528 5.04395069 13.26044438 2 16 C1.34 16 0.68 16 0 16 C0.57344937 13.13275314 0.8614515 12.1385485 3 10 C2.67028521 6.70285207 2.3773161 5.3773161 0 3 C0 2.01 0 1.02 0 0 Z " fill="#000000" transform="translate(474,74)"/>
<path d="M0 0 C0.99 0 1.98 0 3 0 C3 0.99 3 1.98 3 3 C5.31 3 7.62 3 10 3 C10 3.66 10 4.32 10 5 C7.69 5 5.38 5 3 5 C3 6.98 3 8.96 3 11 C2.01 11 1.02 11 0 11 C-1.125 3.375 -1.125 3.375 0 0 Z " fill="#000000" transform="translate(437,78)"/>
<path d="M0 0 C0.99 0 1.98 0 3 0 C3 3.96 3 7.92 3 12 C2.01 12 1.02 12 0 12 C0 8.04 0 4.08 0 0 Z " fill="#000000" transform="translate(437,183)"/>
<path d="M0 0 C0.99 0 1.98 0 3 0 C3 3.96 3 7.92 3 12 C2.01 12 1.02 12 0 12 C0 8.04 0 4.08 0 0 Z " fill="#000000" transform="translate(437,162)"/>
<path d="M0 0 C0.99 0 1.98 0 3 0 C3 3.96 3 7.92 3 12 C2.01 12 1.02 12 0 12 C0 8.04 0 4.08 0 0 Z " fill="#000000" transform="translate(437,141)"/>
<path d="M0 0 C-0.33 0.99 -0.66 1.98 -1 3 C-3.06640625 3.94921875 -3.06640625 3.94921875 -5.5625 4.6875 C-6.38878906 4.93886719 -7.21507813 5.19023438 -8.06640625 5.44921875 C-8.70449219 5.63097656 -9.34257813 5.81273437 -10 6 C-10.33 5.01 -10.66 4.02 -11 3 C-7.14243493 0.84694043 -4.44870215 -0.39253254 0 0 Z " fill="#000000" transform="translate(89,39)"/>
<path d="M0 0 C3.63 0 7.26 0 11 0 C11 0.99 11 1.98 11 3 C7.37 3 3.74 3 0 3 C0 2.01 0 1.02 0 0 Z " fill="#000000" transform="translate(97,202)"/>
<path d="M0 0 C0.99 0 1.98 0 3 0 C3 3.63 3 7.26 3 11 C2.01 11 1.02 11 0 11 C0 7.37 0 3.74 0 0 Z " fill="#000000" transform="translate(437,120)"/>
<path d="M0 0 C0.99 0 1.98 0 3 0 C3 3.63 3 7.26 3 11 C2.01 11 1.02 11 0 11 C0 7.37 0 3.74 0 0 Z " fill="#000000" transform="translate(35,116)"/>
<path d="M0 0 C0.99 0 1.98 0 3 0 C3 3.63 3 7.26 3 11 C2.01 11 1.02 11 0 11 C0 7.37 0 3.74 0 0 Z " fill="#000000" transform="translate(437,99)"/>
<path d="M0 0 C0.99 0.33 1.98 0.66 3 1 C-1 8.71428571 -1 8.71428571 -5 10 C-4.49701212 5.59885603 -2.91227269 3.28804981 0 0 Z " fill="#000000" transform="translate(55,61)"/>
<path d="M0 0 C0.99 0 1.98 0 3 0 C3 3.63 3 7.26 3 11 C2.01 11 1.02 11 0 11 C0 7.37 0 3.74 0 0 Z " fill="#000000" transform="translate(437,57)"/>
<path d="M0 0 C0.99 0 1.98 0 3 0 C3 3.63 3 7.26 3 11 C2.01 11 1.02 11 0 11 C0 7.37 0 3.74 0 0 Z " fill="#000000" transform="translate(437,36)"/>
<path d="M0 0 C1.22589844 0.01353516 1.22589844 0.01353516 2.4765625 0.02734375 C3.41628906 0.04474609 3.41628906 0.04474609 4.375 0.0625 C4.375 1.0525 4.375 2.0425 4.375 3.0625 C0.745 3.3925 -2.885 3.7225 -6.625 4.0625 C-6.625 3.0725 -6.625 2.0825 -6.625 1.0625 C-4.21954362 -0.14022819 -2.67503047 -0.03821472 0 0 Z " fill="#000000" transform="translate(103.625,34.9375)"/>
<path d="M0 0 C3.3 0.99 6.6 1.98 10 3 C9.67 3.99 9.34 4.98 9 6 C1.25 4.125 1.25 4.125 -1 3 C-0.67 2.01 -0.34 1.02 0 0 Z " fill="#000000" transform="translate(79,197)"/>
<path d="M0 0 C0 0.99 0 1.98 0 3 C-4.95 4.485 -4.95 4.485 -10 6 C-9.67 4.68 -9.34 3.36 -9 2 C-5.82254537 0.61849799 -3.46877176 0 0 0 Z " fill="#000000" transform="translate(146,195)"/>
<path d="M0 0 C0.33 0.99 0.66 1.98 1 3 C-4.17578125 6.22265625 -4.17578125 6.22265625 -6 7 C-6.99 6.67 -7.98 6.34 -9 6 C-9 5.34 -9 4.68 -9 4 C-6.03 2.68 -3.06 1.36 0 0 Z " fill="#000000" transform="translate(163,187)"/>
<path d="M0 0 C3.11198065 1.49836105 6.0534615 3.19933758 9 5 C8.67 5.99 8.34 6.98 8 8 C3.58110387 6.64978174 1.65654657 4.73884332 -1 1 C-0.67 0.67 -0.34 0.34 0 0 Z " fill="#000000" transform="translate(62,187)"/>
<path d="M0 0 C2.33524782 2.25740623 4.18705073 4.2805761 6 7 C6 7.99 6 8.98 6 10 C1.33845958 8.50164772 0.13389249 5.11536409 -2 1 C-1.34 0.67 -0.68 0.34 0 0 Z " fill="#000000" transform="translate(50,172)"/>
<path d="M0 0 C0.99 0 1.98 0 3 0 C6 6.625 6 6.625 6 10 C5.01 10 4.02 10 3 10 C0 3.375 0 3.375 0 0 Z " fill="#000000" transform="translate(40,155)"/>
<path d="M0 0 C0.99 0 1.98 0 3 0 C3.33 3.3 3.66 6.6 4 10 C3.01 10.33 2.02 10.66 1 11 C-0.17571451 7.32589215 -0.07366746 3.83070817 0 0 Z " fill="#000000" transform="translate(36,136)"/>
<path d="M0 0 C0.66 0 1.32 0 2 0 C1.44894091 3.9492568 0.61064629 7.34920174 -1 11 C-1.99 10.67 -2.98 10.34 -4 10 C-3.52449439 8.51965236 -3.04448784 7.04074979 -2.5625 5.5625 C-2.29566406 4.73878906 -2.02882812 3.91507812 -1.75390625 3.06640625 C-1 1 -1 1 0 0 Z " fill="#000000" transform="translate(45,78)"/>
<path d="M0 0 C0.53625 0.268125 1.0725 0.53625 1.625 0.8125 C-1.18304268 3.77654505 -3.55815774 6.25749019 -7.375 7.8125 C-7.705 6.8225 -8.035 5.8325 -8.375 4.8125 C-2.95961538 -0.23365385 -2.95961538 -0.23365385 0 0 Z " fill="#000000" transform="translate(70.375,48.1875)"/>
<path d="M0 0 C3.3 1.65 6.6 3.3 10 5 C9.67 5.66 9.34 6.32 9 7 C6.03 6.01 3.06 5.02 0 4 C0 2.68 0 1.36 0 0 Z " fill="#000000" transform="translate(155,44)"/>
<path d="M0 0 C0.33 0.99 0.66 1.98 1 3 C-2.63 3.66 -6.26 4.32 -10 5 C-10 4.01 -10 3.02 -10 2 C-8.7090864 1.66376204 -7.41723903 1.33110751 -6.125 1 C-5.40570313 0.814375 -4.68640625 0.62875 -3.9453125 0.4375 C-2 0 -2 0 0 0 Z " fill="#000000" transform="translate(127,200)"/>
<path d="M0 0 C0 0.99 0 1.98 0 3 C-3.50776784 4.60355101 -6.14354879 5.22036864 -10 5 C-9.67 4.01 -9.34 3.02 -9 2 C-5.82757352 0.68964993 -3.44118336 0 0 0 Z " fill="#000000" transform="translate(317,182)"/>
<path d="M0 0 C-1.38801071 3.35435922 -2.88629 5.11290303 -6 7 C-6.99 7 -7.98 7 -9 7 C-8.8125 5.1875 -8.8125 5.1875 -8 3 C-5.09303401 0.85802506 -3.64478912 0 0 0 Z " fill="#000000" transform="translate(275,90)"/>
<path d="M0 0 C1.46015291 0.28241641 2.91809793 0.57626614 4.375 0.875 C5.18710938 1.03742187 5.99921875 1.19984375 6.8359375 1.3671875 C9 2 9 2 11 4 C10.34 4.66 9.68 5.32 9 6 C6.03 5.01 3.06 4.02 0 3 C0 2.01 0 1.02 0 0 Z " fill="#000000" transform="translate(136,38)"/>
<path d="M0 0 C3.3 0 6.6 0 10 0 C10 0.99 10 1.98 10 3 C6.7 3 3.4 3 0 3 C0 2.01 0 1.02 0 0 Z " fill="#000000" transform="translate(289,187)"/>
<path d="M0 0 C3.3 0.66 6.6 1.32 10 2 C9.67 2.99 9.34 3.98 9 5 C4.545 4.01 4.545 4.01 0 3 C0 2.01 0 1.02 0 0 Z " fill="#000000" transform="translate(271,184)"/>
<path d="M0 0 C0.99 0 1.98 0 3 0 C3 3.3 3 6.6 3 10 C2.01 10 1.02 10 0 10 C0 6.7 0 3.4 0 0 Z " fill="#000000" transform="translate(346,180)"/>
<path d="M0 0 C0.66 0 1.32 0 2 0 C7 5.35714286 7 5.35714286 7 9 C3.63408134 7.55746343 1.48952921 5.66735273 -1 3 C-0.67 2.01 -0.34 1.02 0 0 Z " fill="#000000" transform="translate(257,172)"/>
<path d="M0 0 C0.99 0 1.98 0 3 0 C3 3.3 3 6.6 3 10 C2.01 10 1.02 10 0 10 C0 6.7 0 3.4 0 0 Z " fill="#000000" transform="translate(346,161)"/>
<path d="M0 0 C0.99 0 1.98 0 3 0 C3.99 2.97 4.98 5.94 6 9 C5.01 9.33 4.02 9.66 3 10 C2.01 6.7 1.02 3.4 0 0 Z " fill="#000000" transform="translate(248,156)"/>
<path d="M0 0 C0.99 0 1.98 0 3 0 C3 3.3 3 6.6 3 10 C2.01 10 1.02 10 0 10 C0 6.7 0 3.4 0 0 Z " fill="#000000" transform="translate(346,142)"/>
<path d="M0 0 C0.99 0 1.98 0 3 0 C3 3.3 3 6.6 3 10 C2.01 10 1.02 10 0 10 C0 6.7 0 3.4 0 0 Z " fill="#000000" transform="translate(346,124)"/>
<path d="M0 0 C0.99 0 1.98 0 3 0 C2.34 3.3 1.68 6.6 1 10 C0.01 10 -0.98 10 -2 10 C-1.54177532 6.53058454 -1.10868317 3.32604951 0 0 Z " fill="#000000" transform="translate(250,119)"/>
<path d="M0 0 C0.99 0 1.98 0 3 0 C3 3.3 3 6.6 3 10 C2.01 10 1.02 10 0 10 C0 6.7 0 3.4 0 0 Z " fill="#000000" transform="translate(346,105)"/>
<path d="M0 0 C0.66 0 1.32 0 2 0 C1.49701212 4.40114397 -0.08772731 6.71195019 -3 10 C-3.66 9.67 -4.32 9.34 -5 9 C-3.7580393 5.56072421 -2.44259716 2.74792181 0 0 Z " fill="#000000" transform="translate(259,102)"/>
<path d="M0 0 C0.99 0 1.98 0 3 0 C3 3.3 3 6.6 3 10 C2.01 10 1.02 10 0 10 C0 6.7 0 3.4 0 0 Z " fill="#000000" transform="translate(346,86)"/>
<path d="M0 0 C7.75 -0.125 7.75 -0.125 10 1 C10 1.99 10 2.98 10 4 C6.7 3.67 3.4 3.34 0 3 C0 2.01 0 1.02 0 0 Z " fill="#000000" transform="translate(117,35)"/>
<path d="M0 0 C0.99 0 1.98 0 3 0 C2.34 3.3 1.68 6.6 1 10 C0.01 10 -0.98 10 -2 10 C-1.34 6.7 -0.68 3.4 0 0 Z " fill="#000000" transform="translate(38,97)"/>
<path d="M0 0 C1.48206495 0.254496 2.96068615 0.52911762 4.4375 0.8125 C5.67306641 1.03873047 5.67306641 1.03873047 6.93359375 1.26953125 C7.95646484 1.63111328 7.95646484 1.63111328 9 2 C9.33 2.99 9.66 3.98 10 5 C2.25 4.125 2.25 4.125 0 3 C0 2.01 0 1.02 0 0 Z " fill="#000000" transform="translate(301,85)"/>
<path d="M0 0 C0.33 0.99 0.66 1.98 1 3 C-1.97 3.66 -4.94 4.32 -8 5 C-8.33 4.01 -8.66 3.02 -9 2 C-6.03 1.34 -3.06 0.68 0 0 Z " fill="#000000" transform="translate(291,84)"/>
<path d="M0 0 C0.99 0 1.98 0 3 0 C3 3.3 3 6.6 3 10 C2.01 10.33 1.02 10.66 0 11 C0 7.37 0 3.74 0 0 Z " fill="#000000" transform="translate(247,137)"/>
<path d="M0 0 C3.63 0 7.26 0 11 0 C11 0.66 11 1.32 11 2 C7.37 2 3.74 2 0 2 C0 1.34 0 0.68 0 0 Z " fill="#000000" transform="translate(456,81)"/>
<path d="M0 0 C3.63 0 7.26 0 11 0 C11 0.66 11 1.32 11 2 C7.37 2 3.74 2 0 2 C0 1.34 0 0.68 0 0 Z " fill="#000000" transform="translate(416,81)"/>
</svg>
