<?xml version="1.0" encoding="UTF-8"?>
<svg version="1.1" xmlns="http://www.w3.org/2000/svg" width="573" height="247">
<path d="M0 0 C20.79 0 41.58 0 63 0 C63.33 21.78 63.66 43.56 64 66 C66.97 62.37 69.94 58.74 73 55 C74.64607975 53.14816028 76.3077609 51.30975571 78 49.5 C81.27418423 45.94329756 84.40642433 42.32838189 87.4375 38.5625 C90.65943317 34.56775746 94.00657611 30.75447891 97.5 27 C101.7144026 22.47022898 105.69278292 17.8119595 109.5390625 12.9609375 C110.35117188 11.98382813 111.16328125 11.00671875 112 10 C112.51069534 9.19403381 113.02139069 8.38806763 113.54756165 7.55767822 C116.10040848 4.0109488 118.5421569 0.72883398 122.89566803 -0.56212997 C128.50366928 -1.42438809 134.16485313 -1.14690018 139.81640625 -0.9765625 C141.64196379 -0.95788627 143.46757183 -0.94366345 145.29319763 -0.9336853 C150.07358806 -0.8956965 154.85088788 -0.79764732 159.63006592 -0.68664551 C164.51662388 -0.58392049 169.40368668 -0.53858618 174.29101562 -0.48828125 C183.86202716 -0.38137731 193.43075555 -0.21095227 203 0 C202.06221798 1.26728865 201.12205098 2.53281261 200.1809082 3.79760742 C199.65761429 4.5025383 199.13432037 5.20746918 198.59516907 5.9337616 C196.30310812 8.902691 193.77483454 11.60197942 191.1875 14.3125 C187.49102351 18.24595202 183.93556248 22.21806022 180.5625 26.4375 C176.53488871 31.45922225 172.20654144 36.12582761 167.79711914 40.80834961 C164.55436739 44.27078844 161.46563219 47.79295976 158.5 51.5 C153.93958074 57.19631705 148.98265337 62.47319066 143.99609375 67.79296875 C139.61883286 72.4639332 135.4485711 77.29747541 131.30078125 82.171875 C130.28418244 83.36486315 129.26724412 84.55756205 128.25 85.75 C127.477771 86.65552612 127.477771 86.65552612 126.68994141 87.5793457 C123.30897065 91.52486386 119.84877095 95.38098863 116.3125 99.1875 C111.29929347 104.60639955 106.60264145 110.23074844 102 116 C101.25621094 116.92941406 100.51242188 117.85882813 99.74609375 118.81640625 C99.16988281 119.53699219 98.59367187 120.25757812 98 121 C102.08612126 125.74157416 106.26005042 130.39567409 110.5 135 C114.10014465 138.90980193 117.64417601 142.85866463 121.125 146.875 C123.54550075 149.61823418 126.02200642 152.30884568 128.5 155 C132.10012756 158.90981595 135.64417605 162.85866468 139.125 166.875 C141.54550075 169.61823418 144.02200642 172.30884568 146.5 175 C150.10012756 178.90981595 153.64417605 182.85866468 157.125 186.875 C159.54550075 189.61823418 162.02200642 192.30884568 164.5 195 C168.10012756 198.90981595 171.64417605 202.85866468 175.125 206.875 C177.54550175 209.61823531 180.02205946 212.30879579 182.5 215 C186.15373617 218.96946831 189.76598668 222.96749917 193.296875 227.046875 C195.99154288 230.13709046 198.74670496 233.17329979 201.49609375 236.21484375 C203 238 203 238 203 239 C192.42965492 239.16239893 181.85960798 239.28667464 171.28826809 239.3626852 C166.37914818 239.39917248 161.47088355 239.44863928 156.56225586 239.52807617 C151.82244056 239.60429857 147.08344628 239.64602418 142.34306526 239.6641407 C140.53730408 239.67704589 138.73158639 239.70224811 136.92617607 239.7401104 C122.78122517 240.02487558 122.78122517 240.02487558 118.37362671 237.48884583 C116.60031051 235.74454586 115.30753283 234.10538429 114 232 C113.25234375 231.11957031 112.5046875 230.23914063 111.734375 229.33203125 C111.07953125 228.50058594 110.4246875 227.66914063 109.75 226.8125 C106.46679544 222.73082903 103.06765995 218.82979651 99.5 215 C96.04819664 211.2915592 92.73476799 207.51492793 89.5625 203.5625 C85.77253837 198.85047258 81.76739963 194.4063728 77.59985352 190.02954102 C72.74895442 184.88347917 68.52637565 179.53223691 64 174 C63.67 195.45 63.34 216.9 63 239 C42.21 239 21.42 239 0 239 C0 160.13 0 81.26 0 0 Z M6 6 C6 80.91 6 155.82 6 233 C22.83 233 39.66 233 57 233 C57 208.25 57 183.5 57 158 C65.37626182 166.37626182 73.30574226 175.01294108 80.72265625 184.25390625 C83.2182639 187.26318958 85.83763481 190.13940286 88.5 193 C91.95161936 196.70861688 95.26522148 200.48505895 98.4375 204.4375 C102.2526237 209.18247464 106.2900547 213.65330795 110.48803711 218.05834961 C110.95733643 218.5560083 111.42663574 219.05366699 111.91015625 219.56640625 C112.38244659 220.05776062 112.85473694 220.54911499 113.34133911 221.05535889 C115 223 115 223 116.51670837 225.48847961 C119.24363789 229.7009484 121.29407898 232.53998164 126.26502991 233.88044739 C130.28709931 234.15730153 134.19522387 234.12765783 138.21875 233.9765625 C139.68700314 233.95788227 141.15531915 233.94366132 142.62365723 233.9336853 C146.46569673 233.89572337 150.30388072 233.79771285 154.14440918 233.68664551 C158.07230469 233.58385299 162.00083114 233.53857282 165.9296875 233.48828125 C173.6215388 233.3814268 181.31022678 233.2110524 189 233 C187.10306859 229.77339254 185.26311703 226.99848706 182.671875 224.29296875 C182.03636719 223.62330078 181.40085938 222.95363281 180.74609375 222.26367188 C179.75802734 221.2359668 179.75802734 221.2359668 178.75 220.1875 C174.27155127 215.49814236 169.8778739 210.76822966 165.62988281 205.8684082 C163.30154694 203.19933175 160.90361794 200.60156295 158.5 198 C154.89890542 194.0910778 151.35580509 190.14131356 147.875 186.125 C145.45449925 183.38176582 142.97799358 180.69115432 140.5 178 C136.89987244 174.09018405 133.35582395 170.14133532 129.875 166.125 C127.45449925 163.38176582 124.97799358 160.69115432 122.5 158 C118.89987244 154.09018405 115.35582395 150.14133532 111.875 146.125 C109.45449228 143.38175791 106.97762856 140.69149755 104.5 138 C97.87608123 130.78826627 97.87608123 130.78826627 94.9375 127.5 C94.41027344 126.9121875 93.88304688 126.324375 93.33984375 125.71875 C91.92531699 123.90419672 90.95663396 122.08720136 90 120 C90.71285156 119.2265625 91.42570312 118.453125 92.16015625 117.65625 C98.46137996 110.80886875 104.67624917 103.90829171 110.70703125 96.8203125 C116.5344906 89.97880293 122.45656731 83.25747892 128.5546875 76.65625 C132.71504527 72.13701153 136.72685535 67.49821391 140.70703125 62.8203125 C146.0521871 56.54560227 151.45915786 50.36345673 157.06982422 44.32470703 C159.96748224 41.18496883 162.70346573 37.95833511 165.375 34.625 C169.97128925 28.91270526 174.94591768 23.60265268 179.95703125 18.2578125 C186.28616939 12.67918992 186.28616939 12.67918992 190 6 C181.60251985 5.69705534 173.20736687 5.46697031 164.8057518 5.32644176 C160.90302637 5.25894491 157.00407065 5.16764762 153.10351562 5.01928711 C135.41764201 3.48078932 135.41764201 3.48078932 119.37329102 8.75610352 C116.20002007 11.81328392 114.14765979 15.17167189 112 19 C110.51063166 20.87953451 108.99452636 22.73862035 107.4375 24.5625 C106.72464844 25.45066406 106.01179688 26.33882812 105.27734375 27.25390625 C102.78173453 30.26319147 100.16233195 33.13937022 97.5 36 C93.21039593 40.60998943 89.19588878 45.37783516 85.24609375 50.28515625 C82.9116941 53.10673495 80.48009402 55.80590712 78 58.5 C73.10382288 63.82259379 68.53181203 69.36658149 64 75 C59.27960526 80.86019737 59.27960526 80.86019737 57 82 C57 56.92 57 31.84 57 6 C40.17 6 23.34 6 6 6 Z " fill="#000000" transform="translate(0,0)"/>
<path d="M0 0 C15.11491157 13.75665915 21.45924239 34.80229889 23.2265625 54.48828125 C23.56131174 64.27969651 21.08954183 73.63129473 14.9453125 81.35546875 C10.17534364 86.45822614 5.62503472 87.4709996 -1.0546875 88.35546875 C-0.58160156 88.649375 -0.10851562 88.94328125 0.37890625 89.24609375 C9.18120727 95.21724532 16.06200773 104.47069298 19.9453125 114.35546875 C19.64619263 118.4815634 16.91173293 121.40863581 14.4453125 124.54296875 C13.99607422 125.11740723 13.54683594 125.6918457 13.08398438 126.28369141 C0.52701669 142.08586698 -16.58228131 154.61035311 -37.0546875 157.35546875 C-57.13432743 159.11981816 -76.89587903 156.38082891 -95.0546875 147.35546875 C-95.9828125 146.90429688 -96.9109375 146.453125 -97.8671875 145.98828125 C-117.743198 135.7742203 -131.95577502 119.00892641 -140.0546875 98.35546875 C-148.2214988 71.94838628 -143.96474013 45.12276105 -131.33886719 20.94506836 C-127.00851076 13.02530343 -121.45478 6.67097853 -115.0546875 0.35546875 C-114.35214844 -0.34578125 -113.64960938 -1.04703125 -112.92578125 -1.76953125 C-84.00102269 -28.88284029 -28.70209585 -22.97259002 0 0 Z M-107.0546875 1.35546875 C-108.0446875 2.10570312 -108.0446875 2.10570312 -109.0546875 2.87109375 C-123.16993163 14.22945426 -131.75855209 32.08048215 -136.0546875 49.35546875 C-136.39113281 50.61617187 -136.39113281 50.61617187 -136.734375 51.90234375 C-141.53257655 73.0670136 -137.4042412 95.06254045 -126.0546875 113.35546875 C-115.17633173 129.05558222 -99.9756111 139.97799721 -82.0546875 146.35546875 C-81.0234375 146.72542969 -79.9921875 147.09539062 -78.9296875 147.4765625 C-57.82152557 154.2719967 -36.35795803 154.03232744 -16.375 144.01171875 C-9.81012241 140.33047898 -4.45734102 135.55508137 0.9453125 130.35546875 C2.06679688 129.29392578 2.06679688 129.29392578 3.2109375 128.2109375 C8.82269696 122.83952107 8.82269696 122.83952107 12.9453125 116.35546875 C12.2540252 110.27214055 7.64340101 105.04266676 3.9453125 100.35546875 C3.11580078 99.26685547 3.11580078 99.26685547 2.26953125 98.15625 C-1.33708766 94.21375971 -4.49858681 92.93279339 -9.86791992 92.52807617 C-16.89737348 92.37053756 -21.51477117 93.43459638 -26.72265625 98.34375 C-37.25978103 107.43356451 -51.65391427 111.18284609 -65.26953125 110.7109375 C-70.25041594 110.2431764 -73.83237158 108.95801692 -78.0546875 106.35546875 C-79.0859375 105.81921875 -80.1171875 105.28296875 -81.1796875 104.73046875 C-86.92438721 99.98484725 -90.4570381 94.03992568 -93.16162109 87.16650391 C-93.69533829 85.81523911 -93.69533829 85.81523911 -94.23983765 84.43667603 C-94.5087381 83.74987762 -94.77763855 83.06307922 -95.0546875 82.35546875 C-93.19546158 82.35000031 -93.19546158 82.35000031 -91.29867554 82.34442139 C-79.61576812 82.30747475 -67.93312437 82.24970541 -56.25041771 82.17156601 C-50.24424524 82.13206269 -44.23822002 82.09988805 -38.23193359 82.08447266 C-32.43514467 82.06932514 -26.63876047 82.03491278 -20.84215164 81.98715973 C-18.63102359 81.97232639 -16.41983777 81.96442662 -14.20866013 81.9635849 C-11.11051062 81.96121945 -8.01348342 81.93417253 -4.91552734 81.90136719 C-3.54527405 81.90891273 -3.54527405 81.90891273 -2.14733887 81.91661072 C3.36307391 81.82638048 6.5908863 81.06114279 10.9453125 77.35546875 C12.64959707 75.00994206 12.64959707 75.00994206 13.7578125 72.41796875 C14.15613281 71.58394531 14.55445313 70.74992187 14.96484375 69.890625 C19.91453554 57.09241795 16.57268514 41.48212739 11.6953125 29.16796875 C3.51941165 11.12293316 -7.90241981 -1.88499525 -26.58984375 -8.98828125 C-50.38871037 -16.63889279 -86.84121231 -15.10873282 -107.0546875 1.35546875 Z M-87.0546875 87.35546875 C-83.15845491 95.14793392 -78.86816241 101.80258148 -70.27734375 104.9140625 C-54.28802302 108.08944605 -41.16425801 101.93841626 -28.0546875 93.35546875 C-25.89707255 91.77672611 -24.00226171 90.19484439 -22.0546875 88.35546875 C-22.0546875 88.02546875 -22.0546875 87.69546875 -22.0546875 87.35546875 C-43.5046875 87.35546875 -64.9546875 87.35546875 -87.0546875 87.35546875 Z " fill="#000000" transform="translate(550.0546875,83.64453125)"/>
<path d="M0 0 C3.04347707 3.0749342 2.97133648 5.77319464 2.96836853 9.96697998 C2.92191696 10.98595367 2.87546539 12.00492737 2.8276062 13.05477905 C2.81487167 14.11169952 2.80213715 15.16862 2.78901672 16.25756836 C2.73876958 19.62202777 2.62589067 22.98102304 2.51119995 26.34384155 C2.46604222 28.6289197 2.42497991 30.91408271 2.38815308 33.1993103 C2.28910868 38.79100747 2.1386669 44.37953427 1.94869995 49.96884155 C2.90123657 49.91385498 2.90123657 49.91385498 3.87301636 49.85775757 C6.77274342 49.7115284 9.6716953 49.62099996 12.57369995 49.53134155 C13.57272339 49.47268921 14.57174683 49.41403687 15.6010437 49.35360718 C22.8853497 49.18476565 22.8853497 49.18476565 25.91940308 51.42196655 C33.17576011 59.73266606 36.34973254 69.47512773 35.82369995 80.40634155 C34.84122215 90.10689823 30.97762993 99.93991158 23.94869995 106.96884155 C22.3869725 107.05569758 20.82140651 107.07586375 19.2572937 107.0664978 C18.31305542 107.06327515 17.36881714 107.06005249 16.39596558 107.05673218 C15.40274292 107.04835327 14.40952026 107.03997437 13.38619995 107.03134155 C12.38911011 107.02682983 11.39202026 107.02231812 10.36471558 107.01766968 C7.89265146 107.00584162 5.42070477 106.98936005 2.94869995 106.96884155 C2.9551525 107.52322403 2.96160505 108.07760651 2.96825314 108.64878845 C3.1231046 122.1622949 3.23835805 135.6756451 3.31138515 149.18984985 C3.34789039 155.72540385 3.39739396 162.2603167 3.47677612 168.79550171 C3.55292847 175.10439337 3.59471062 181.412669 3.61284065 187.72198486 C3.62575787 190.12697038 3.65098283 192.53192281 3.68881035 194.93664551 C3.73975779 198.31009312 3.74661794 201.68100757 3.74337769 205.05477905 C3.78112808 206.54048149 3.78112808 206.54048149 3.81964111 208.05619812 C3.75309196 214.47510961 2.31331581 217.7372259 -2.20008755 222.32177734 C-9.83459121 229.11436206 -16.38994324 231.46950259 -26.73880005 231.28134155 C-35.18448863 230.48457848 -42.47767725 226.15212483 -49.05130005 220.96884155 C-50.33637703 220.0070977 -50.33637703 220.0070977 -51.64741516 219.02592468 C-55.14028878 214.58394617 -54.71767777 210.8956069 -54.618927 205.39535522 C-54.61965714 204.3314859 -54.62038727 203.26761658 -54.62113953 202.17150879 C-54.61765957 198.65942177 -54.57877654 195.14866529 -54.5395813 191.6368103 C-54.53025469 189.20015691 -54.52313786 186.76349413 -54.5181427 184.326828 C-54.49906124 177.91670805 -54.44994928 171.50715546 -54.3946228 165.09725952 C-54.34345583 158.55518265 -54.32063403 152.01301401 -54.29544067 145.47079468 C-54.24183272 132.63656838 -54.1574675 119.80273516 -54.05130005 106.96884155 C-55.04927612 107.03953857 -55.04927612 107.03953857 -56.06741333 107.11166382 C-59.10291982 107.29956606 -62.13720682 107.41600247 -65.17630005 107.53134155 C-66.2230188 107.60675171 -67.26973755 107.68216187 -68.34817505 107.75985718 C-75.97615233 107.9771097 -75.97615233 107.9771097 -79.06863403 105.07699585 C-85.75576336 95.22713091 -87.97397927 84.72018664 -87.05130005 72.96884155 C-85.44442986 65.31000921 -82.77787127 55.69541277 -77.05130005 49.96884155 C-75.34357647 49.88170324 -73.63231356 49.86184148 -71.9223938 49.8711853 C-70.37068481 49.87601929 -70.37068481 49.87601929 -68.78762817 49.88095093 C-67.69901489 49.88932983 -66.61040161 49.89770874 -65.48880005 49.90634155 C-63.85007935 49.91310913 -63.85007935 49.91310913 -62.17825317 49.92001343 C-59.4692151 49.93184329 -56.76028406 49.94832612 -54.05130005 49.96884155 C-54.07572678 49.38303818 -54.1001535 48.7972348 -54.12532043 48.19367981 C-54.36930104 42.0783905 -54.53481137 35.96448763 -54.6555481 29.84555054 C-54.71075986 27.56470575 -54.78575191 25.28424849 -54.88113403 23.00473022 C-55.65417874 4.05066605 -55.65417874 4.05066605 -51.72512817 -1.05239868 C-48.83763412 -2.92147494 -46.33479249 -4.0416512 -43.05130005 -5.03115845 C-42.17908813 -5.38113892 -41.30687622 -5.73111938 -40.40823364 -6.09170532 C-27.12363721 -11.31138049 -11.50010878 -7.8165909 0 0 Z M-43.05130005 1.96884155 C-44.35019165 2.40003296 -44.35019165 2.40003296 -45.67532349 2.8399353 C-48.22682395 4.69726262 -48.22682395 4.69726262 -48.48857117 7.1733551 C-48.63301083 10.19377229 -48.6119379 13.17621615 -48.5395813 16.1993103 C-48.52896919 17.85764641 -48.52896919 17.85764641 -48.5181427 19.54948425 C-48.49012054 23.08578737 -48.42736384 26.62051581 -48.36380005 30.15634155 C-48.33872747 32.551501 -48.3159125 34.94668523 -48.29544067 37.34188843 C-48.24026823 43.21807809 -48.15656313 49.09334735 -48.05130005 54.96884155 C-49.14801025 54.90599976 -49.14801025 54.90599976 -50.26687622 54.84188843 C-53.59028766 54.67525645 -56.91282229 54.57146125 -60.23880005 54.46884155 C-61.38928833 54.4018103 -62.53977661 54.33477905 -63.72512817 54.26571655 C-69.82427366 53.9168352 -69.82427366 53.9168352 -74.92756653 56.69570923 C-76.22375333 58.75086165 -77.18729075 60.70190184 -78.05130005 62.96884155 C-78.42899536 63.8093103 -78.80669067 64.64977905 -79.1958313 65.51571655 C-82.17992626 75.35799467 -82.28500242 85.45880861 -78.05130005 94.96884155 C-77.6429895 95.99960815 -77.23467896 97.03037476 -76.81399536 98.09237671 C-73.50024982 101.54258438 -72.60197494 101.41512323 -67.97317505 101.55477905 C-65.58184837 101.51492361 -63.19088544 101.44340761 -60.80130005 101.34384155 C-59.5792688 101.31677124 -58.35723755 101.28970093 -57.09817505 101.2618103 C-54.08077264 101.19108993 -51.06692434 101.09243271 -48.05130005 100.96884155 C-48.06143977 101.54383896 -48.07157949 102.11883636 -48.08202648 102.71125793 C-48.32533047 116.72520776 -48.50716032 130.7388397 -48.62123394 144.75445557 C-48.67787197 151.53258272 -48.75503016 158.30929724 -48.88113403 165.08651733 C-49.00280634 171.62870953 -49.06645245 178.16998654 -49.09494972 184.71325684 C-49.11525352 187.20769329 -49.15490517 189.70205066 -49.21433067 192.19586182 C-50.32534469 205.49138354 -50.32534469 205.49138354 -45.65008545 217.25009155 C-42.82905477 219.34119174 -40.31293192 220.70380226 -37.05130005 221.96884155 C-35.91692505 222.62884155 -34.78255005 223.28884155 -33.61380005 223.96884155 C-27.08301554 225.80204422 -20.04458411 226.25253202 -13.73880005 223.40634155 C-8.98910657 220.42754073 -3.89148318 217.2181919 -2.42001534 211.52739143 C-2.19067237 208.59628155 -2.18490555 205.74042797 -2.25662231 202.80111694 C-2.25508904 201.14635345 -2.25508904 201.14635345 -2.25352478 199.4581604 C-2.25838581 195.82661181 -2.3127631 192.19760491 -2.3677063 188.5664978 C-2.38076761 186.0430285 -2.39072926 183.5195414 -2.39772034 180.99604797 C-2.42167855 175.0424485 -2.47679515 169.08965897 -2.54716676 163.13647503 C-2.62557385 156.35543356 -2.66393737 149.57434742 -2.69903481 142.79296505 C-2.77208394 128.85108993 -2.89510429 114.91001546 -3.05130005 100.96884155 C-2.00788452 101.03953857 -2.00788452 101.03953857 -0.94338989 101.11166382 C2.22821968 101.29948777 5.39866264 101.41598553 8.57369995 101.53134155 C9.66811401 101.60675171 10.76252808 101.68216187 11.8901062 101.75985718 C17.95890674 102.03413525 17.95890674 102.03413525 22.99508667 99.10336304 C27.96647997 91.83626264 31.15916169 82.82874903 29.94869995 73.96884155 C28.45441158 66.31061363 25.43470842 61.69785426 20.94869995 54.96884155 C12.69869995 54.96884155 4.44869995 54.96884155 -4.05130005 54.96884155 C-4.05130005 38.46884155 -4.05130005 21.96884155 -4.05130005 4.96884155 C-18.39763039 -2.20432362 -28.33694605 -4.98154051 -43.05130005 1.96884155 Z " fill="#000000" transform="translate(373.0513000488281,10.031158447265625)"/>
<path d="M0 0 C3.43114385 2.50159569 5.65126711 4.43602532 6.76255322 8.62601948 C7.05965483 12.17686257 7.10231497 15.65287342 7.06102848 19.21609402 C7.07352144 20.57362136 7.08939527 21.93112114 7.1083765 23.28857327 C7.14898244 26.96062255 7.13914002 30.63090436 7.11753869 34.30305266 C7.10431148 37.37462493 7.11647805 40.44588144 7.12874407 43.51744133 C7.1575232 50.76674282 7.14602362 58.01519644 7.10790348 65.26443386 C7.06922296 72.72972346 7.09209349 80.19297994 7.14643198 87.65812629 C7.19135927 94.08058403 7.20108842 100.50242001 7.18216223 106.9250074 C7.17102719 110.75523495 7.17225991 114.58436878 7.2060957 118.41448689 C7.23613355 122.01798346 7.22186511 125.61871361 7.17431927 129.22199535 C7.15920672 131.164621 7.18814424 133.10743515 7.21865177 135.04988003 C7.04738347 143.42570347 7.04738347 143.42570347 4.08586788 147.31651402 C-3.45512033 154.21083725 -11.71749417 157.9023815 -21.98999691 157.78860378 C-29.25131367 157.20421699 -35.17233613 154.05553048 -40.98999691 149.78860378 C-41.8480241 149.20239254 -42.70605129 148.6161813 -43.59007931 148.01220608 C-47.80345535 143.68336597 -46.74420252 137.10712362 -46.74805355 131.48049831 C-46.76629923 130.11179806 -46.7865588 128.7431234 -46.80867672 127.37448025 C-46.86131724 123.66361636 -46.8813309 119.95327969 -46.8921454 116.24208212 C-46.90015197 113.92176181 -46.91477206 111.60157798 -46.93164539 109.28130627 C-46.98985463 101.18129514 -47.02006831 93.08168643 -47.02637386 84.98147488 C-47.03304496 77.43865033 -47.10339171 69.8982067 -47.2029267 62.35608876 C-47.2854624 55.87346608 -47.32165467 49.39162996 -47.32241052 42.90848529 C-47.32374035 39.03912484 -47.34397398 35.17213593 -47.4115839 31.30331707 C-47.47373946 27.66254149 -47.4780777 24.0261424 -47.43875599 20.38509274 C-47.43187084 18.41932073 -47.4842409 16.45361834 -47.53858089 14.48858547 C-47.4660376 10.87888278 -47.28624366 8.16186339 -45.98999691 4.78860378 C-33.46332622 -6.53212792 -14.32308684 -8.71907546 0 0 Z M-37.66113949 6.86770535 C-38.75966244 7.50160183 -39.85818539 8.13549831 -40.98999691 8.78860378 C-41.20039514 26.00855873 -41.35902107 43.22811166 -41.45630646 60.44905853 C-41.50268213 68.44540891 -41.56588677 76.44095992 -41.66895199 84.43679714 C-41.75875917 91.40740401 -41.81674417 98.37743195 -41.83679336 105.34860128 C-41.84851107 109.03894195 -41.87597078 112.72762673 -41.94156742 116.41743565 C-42.01427254 120.5406791 -42.01590011 124.66105913 -42.01172543 128.78494167 C-42.04408291 130.00342297 -42.07644039 131.22190426 -42.1097784 132.47730923 C-42.09032974 138.76326022 -42.09032974 138.76326022 -39.09346485 144.07488728 C-32.76603913 149.18407776 -25.59082613 152.27731914 -17.36499691 151.72610378 C-11.29991062 150.72954367 -5.41386152 148.08418215 -1.08056545 143.63870144 C1.45153696 139.34311014 0.71619066 133.83090849 0.68871403 128.99954128 C0.70068821 127.69986416 0.71266239 126.40018703 0.72499943 125.06112576 C0.75629341 121.50315703 0.75573591 117.94586534 0.74749374 114.38779354 C0.74333016 111.41550959 0.75431146 108.44335812 0.76513791 105.47109699 C0.79026622 98.45898622 0.78916223 91.44721252 0.77172184 84.43508816 C0.75419254 77.20411562 0.78060449 69.97424506 0.82868838 62.74343586 C0.86846415 56.53091824 0.88110014 50.31874861 0.87197423 44.10611057 C0.86679149 40.39735063 0.87184095 36.68933035 0.9029398 32.98068142 C0.93619894 28.84562556 0.91283187 24.71275532 0.88402653 20.57766628 C0.90133823 19.35049892 0.91864994 18.12333157 0.93648624 16.85897732 C1.02673464 10.98538956 1.02673464 10.98538956 -1.50781155 5.93795681 C-3.29476562 4.62571632 -4.96108922 3.67129828 -6.98999691 2.78860378 C-7.91812191 2.35547878 -8.84624691 1.92235378 -9.80249691 1.47610378 C-20.0659346 -0.73757886 -28.68113902 1.68584662 -37.66113949 6.86770535 Z " fill="#000000" transform="translate(261.9899969100952,89.21139621734619)"/>
<path d="M0 0 C7.71506677 6.47292722 13.57017644 14.5191911 17.3125 23.875 C17.3125 24.535 17.3125 25.195 17.3125 25.875 C-8.7575 25.875 -34.8275 25.875 -61.6875 25.875 C-60.02792842 15.91757053 -54.98714042 5.98259829 -46.6875 -0.125 C-32.15320205 -9.28258975 -14.19461285 -10.29900727 0 0 Z M-46.6875 7.875 C-49.72629284 11.60965086 -52.16189548 15.29818644 -53.6875 19.875 C-33.2275 19.875 -12.7675 19.875 8.3125 19.875 C-0.30968212 6.8366671 -0.30968212 6.8366671 -13.54296875 -0.7109375 C-25.47958489 -3.01563934 -37.56132512 -0.22360939 -46.6875 7.875 Z " fill="#000000" transform="translate(516.6875,114.125)"/>
<path d="M0 0 C5.34277347 4.39294708 10.59425905 9.27377449 11.8125 16.3125 C12.74916558 26.54148279 11.06759208 34.56683742 4.625 42.6875 C-0.14201623 47.70862157 -5.59669684 50.46359918 -12.5625 50.6875 C-14.10683625 50.60155433 -15.64924497 50.4741557 -17.1875 50.3125 C-18.06535156 50.23 -18.94320312 50.1475 -19.84765625 50.0625 C-27.58251263 49.01813121 -34.75290328 46.41822481 -39.88671875 40.28125 C-44.05664255 33.87701173 -44.941165 27.88099495 -44.1875 20.3125 C-41.99615533 11.28415996 -37.95832719 3.52636681 -30.0625 -1.625 C-20.50224146 -7.28820536 -9.3795053 -4.96562045 0 0 Z M-33.5625 10.25 C-37.68746325 16.25809865 -39.17924415 22.07644083 -38.1875 29.3125 C-36.45689451 34.61657195 -33.9594469 38.28638733 -29.1875 41.3125 C-22.97686439 44.33819427 -16.01373727 44.98775728 -9.1875 44.3125 C-2.66368097 41.92879689 1.6688361 37.4426446 4.8125 31.3125 C6.60937438 25.34386134 6.83201765 18.83408227 4.3125 13.0625 C1.11653874 7.48368423 -3.7571553 4.28463788 -9.625 1.9375 C-20.1095651 0.09810261 -26.7429176 1.64708854 -33.5625 10.25 Z " fill="#000000" transform="translate(258.1875,27.6875)"/>
<path d="M0 0 C2.48173864 3.19080683 3.1875 4.78533083 3.1875 8.8125 C1.67112252 12.8827764 0.13877136 15.83686432 -3.8125 17.8125 C-8.77357425 18.3537081 -11.88082204 17.95784237 -15.8125 14.8125 C-18.38439679 11.38330428 -18.314642 7.97310514 -17.8125 3.8125 C-16.11389761 0.7807316 -14.05838599 -1.58465194 -10.875 -3.125 C-6.32252191 -3.26295388 -3.66437483 -2.85006931 0 0 Z " fill="#000000" transform="translate(39.8125,10.1875)"/>
<path d="M0 0 C2.6575607 2.13901227 3.74870703 3.55360444 4.3359375 6.93359375 C4.49851776 10.24147674 4.09144164 12.73710528 3 15.875 C0.1055992 18.95030085 -2.81054391 19.82543933 -7 20 C-10.30148861 18.87873972 -12.30314168 17.62717249 -14.875 15.3125 C-16.53537077 11.89951564 -16.67062478 8.67385751 -16 5 C-11.95158725 -1.56122066 -7.01523358 -1.81079134 0 0 Z " fill="#000000" transform="translate(71,119)"/>
<path d="M0 0 C2.8100346 1.79363911 4.50940468 3.01880935 6 6 C6.5811138 13.08958838 6.5811138 13.08958838 4.125 16.9375 C1.22627065 19.75097261 0.37782221 19.96221778 -3.75 20.375 C-6.87952857 20.312181 -8.91385706 19.85432761 -11.5 18.0625 C-14.43908436 14.46212166 -14.76995019 12.67425289 -14.46875 8.15625 C-13.77989736 4.98752784 -12.33200445 3.19482772 -10 1 C-6.79826746 -0.60086627 -3.47422941 -0.49917089 0 0 Z " fill="#000000" transform="translate(147,10)"/>
<path d="M0 0 C2.4375 1.5625 2.4375 1.5625 4 4 C4.56783945 7.97487617 4.62340519 10.06489221 2.375 13.4375 C-0.75683492 15.49791771 -2.31544773 15.6767545 -6 15 C-9.36344489 12.51397551 -10.80057749 11.08574477 -11.5625 6.9375 C-11 4 -11 4 -9.4375 1.625 C-6.06489221 -0.62340519 -3.97487617 -0.56783945 0 0 Z " fill="#000000" transform="translate(314,79)"/>
<path d="M0 0 C2.9375 2.0625 2.9375 2.0625 5 5 C5.06641554 8.85210127 4.87229157 10.99848005 2.3125 13.9375 C-0.73602877 15.33817538 -2.67926952 15.4842732 -6 15 C-8.375 13.4375 -8.375 13.4375 -10 11 C-10.56783945 7.02512383 -10.62340519 4.93510779 -8.375 1.5625 C-5.24316508 -0.49791771 -3.68455227 -0.6767545 0 0 Z " fill="#000000" transform="translate(350,18)"/>
<path d="M0 0 C2.4375 1.625 2.4375 1.625 4 4 C4.60605429 7.63632575 4.47161336 9.28314769 2.4375 12.375 C-0.8994213 14.5996142 -3.06905293 14.50030235 -7 14 C-8.9375 13 -8.9375 13 -10 11 C-10.52960415 7.41957756 -10.65886567 4.24021772 -8.9375 1 C-5.82090489 -0.60856522 -3.43737531 -0.42213381 0 0 Z " fill="#000000" transform="translate(438,145)"/>
<path d="M0 0 C1.9375 1.0625 1.9375 1.0625 3 3 C3.36528977 6.4093712 3.6140629 8.88023824 1.9375 11.9375 C-1.11976176 13.6140629 -3.5906288 13.36528977 -7 13 C-8.9375 11.9375 -8.9375 11.9375 -10 10 C-10.36528977 6.5906288 -10.6140629 4.11976176 -8.9375 1.0625 C-5.88023824 -0.6140629 -3.4093712 -0.36528977 0 0 Z " fill="#000000" transform="translate(246,101)"/>
<path d="M0 0 C1.9375 1.0625 1.9375 1.0625 3 3 C3.36528977 6.4093712 3.6140629 8.88023824 1.9375 11.9375 C-1.11976176 13.6140629 -3.5906288 13.36528977 -7 13 C-8.9375 11.9375 -8.9375 11.9375 -10 10 C-10.36528977 6.5906288 -10.6140629 4.11976176 -8.9375 1.0625 C-5.88023824 -0.6140629 -3.4093712 -0.36528977 0 0 Z " fill="#000000" transform="translate(245,44)"/>
<path d="M0 0 C1.6254308 0.14095064 3.25034051 0.28792087 4.875 0.4375 C5.77992188 0.51871094 6.68484375 0.59992188 7.6171875 0.68359375 C10 1 10 1 12 2 C11.34 5.63 10.68 9.26 10 13 C9.01 13 8.02 13 7 13 C7.33 11.02 7.66 9.04 8 7 C7.01 6.67 6.02 6.34 5 6 C5 5.01 5 4.02 5 3 C3.35 3 1.7 3 0 3 C0 2.01 0 1.02 0 0 Z " fill="#000000" transform="translate(535,191)"/>
<path d="M0 0 C0.61875 0.33 1.2375 0.66 1.875 1 C3.91018344 2.14193235 3.91018344 2.14193235 6 2 C6.9590625 2.3403125 6.9590625 2.3403125 7.9375 2.6875 C8.618125 2.790625 9.29875 2.89375 10 3 C11.64594139 1.60411246 11.64594139 1.60411246 13 0 C13.66 0 14.32 0 15 0 C14.44449305 3.59905908 13.25112752 4.99909799 10.4375 7.25 C9.79683594 7.77078125 9.15617187 8.2915625 8.49609375 8.828125 C8.00238281 9.21484375 7.50867188 9.6015625 7 10 C5.82438854 8.90536178 4.6597511 7.79892814 3.5 6.6875 C2.52546875 5.76517578 2.52546875 5.76517578 1.53125 4.82421875 C0 3 0 3 0 0 Z " fill="#000000" transform="translate(340,204)"/>
<path d="M0 0 C0.61875 0.33 1.2375 0.66 1.875 1 C3.91018344 2.14193235 3.91018344 2.14193235 6 2 C6.9590625 2.3403125 6.9590625 2.3403125 7.9375 2.6875 C8.618125 2.790625 9.29875 2.89375 10 3 C11.64594139 1.60411246 11.64594139 1.60411246 13 0 C13.66 0 14.32 0 15 0 C14.52753358 4.25219775 12.22727623 6.37314725 9 9 C5.7701086 9.20186821 4.70944319 7.74906457 2.25 5.625 C0 3 0 3 0 0 Z " fill="#000000" transform="translate(24,218)"/>
<path d="M0 0 C0.66 0.33 1.32 0.66 2 1 C1.67 4.63 1.34 8.26 1 12 C-2.63 12 -6.26 12 -10 12 C-10.33 11.01 -10.66 10.02 -11 9 C-9.02 9 -7.04 9 -5 9 C-4.67 8.01 -4.34 7.02 -4 6 C-3.34 5.67 -2.68 5.34 -2 5 C-1.27840576 3.35636866 -0.60648579 1.68949614 0 0 Z " fill="#000000" transform="translate(148,212)"/>
<path d="M0 0 C0.66 0.33 1.32 0.66 2 1 C2.625 3.5625 2.625 3.5625 3 6 C3.99 6.33 4.98 6.66 6 7 C6 7.33 6 7.66 6 8 C7.98 8.66 9.96 9.32 12 10 C11.67 10.66 11.34 11.32 11 12 C7.37 12 3.74 12 0 12 C-0.87890625 3.50390625 -0.87890625 3.50390625 -1 1 C-0.67 0.67 -0.34 0.34 0 0 Z " fill="#000000" transform="translate(36,127)"/>
<path d="M0 0 C0.556875 0.309375 1.11375 0.61875 1.6875 0.9375 C4.22648005 2.1040584 6.20646106 2.79048458 9 3 C11.19038423 1.62831762 11.19038423 1.62831762 13 0 C13.66 0 14.32 0 15 0 C14.52753358 4.25219775 12.22727623 6.37314725 9 9 C5.7701086 9.20186821 4.70944319 7.74906457 2.25 5.625 C0 3 0 3 0 0 Z " fill="#000000" transform="translate(235,218)"/>
<path d="M0 0 C3.81684226 1.55500981 6.19195732 4.03595495 9 7 C7.44396229 10.81936528 5.04395069 13.26044438 2 16 C1.34 16 0.68 16 0 16 C0.57344937 13.13275314 0.8614515 12.1385485 3 10 C2.67028521 6.70285207 2.3773161 5.3773161 0 3 C0 2.01 0 1.02 0 0 Z " fill="#000000" transform="translate(383,76)"/>
<path d="M0 0 C0.99 0 1.98 0 3 0 C3 0.99 3 1.98 3 3 C5.31 3 7.62 3 10 3 C10 3.66 10 4.32 10 5 C7.69 5 5.38 5 3 5 C3 6.98 3 8.96 3 11 C2.01 11 1.02 11 0 11 C-1.125 3.375 -1.125 3.375 0 0 Z " fill="#000000" transform="translate(346,80)"/>
<path d="M0 0 C0.99 0 1.98 0 3 0 C3 3.96 3 7.92 3 12 C2.01 12 1.02 12 0 12 C0 8.04 0 4.08 0 0 Z " fill="#000000" transform="translate(30,199)"/>
<path d="M0 0 C0.99 0 1.98 0 3 0 C3 3.96 3 7.92 3 12 C2.01 12 1.02 12 0 12 C0 8.04 0 4.08 0 0 Z " fill="#000000" transform="translate(346,185)"/>
<path d="M0 0 C3.1744176 1.09462676 3.98914157 1.98177335 5.75 4.9375 C7 8 7 8 7 11 C6.01 11 5.02 11 4 11 C3.32591692 9.73308493 2.66099503 8.46129251 2 7.1875 C1.62875 6.47980469 1.2575 5.77210938 0.875 5.04296875 C0 3 0 3 0 0 Z " fill="#000000" transform="translate(544,125)"/>
<path d="M0 0 C1.12894876 0.93274109 2.25300876 1.87140122 3.375 2.8125 C4.00148438 3.33457031 4.62796875 3.85664062 5.2734375 4.39453125 C7 6 7 6 9 9 C8.01 9.66 7.02 10.32 6 11 C4.80040625 9.74057614 3.61560557 8.46704714 2.4375 7.1875 C1.44556641 6.12595703 1.44556641 6.12595703 0.43359375 5.04296875 C-0.03949219 4.36878906 -0.51257813 3.69460937 -1 3 C-0.67 2.01 -0.34 1.02 0 0 Z " fill="#000000" transform="translate(531,107)"/>
<path d="M0 0 C0.99 0 1.98 0 3 0 C3 3.96 3 7.92 3 12 C2.01 12 1.02 12 0 12 C0 8.04 0 4.08 0 0 Z " fill="#000000" transform="translate(30,95)"/>
<path d="M0 0 C4.10958767 1.45044271 7.43258745 3.51110752 11 6 C10.67 6.66 10.34 7.32 10 8 C6.2089881 6.55049545 2.6125362 4.84827434 -1 3 C-0.67 2.01 -0.34 1.02 0 0 Z " fill="#000000" transform="translate(513,94)"/>
<path d="M0 0 C0.99 0 1.98 0 3 0 C3 3.96 3 7.92 3 12 C2.01 12 1.02 12 0 12 C0 8.04 0 4.08 0 0 Z " fill="#000000" transform="translate(30,74)"/>
<path d="M0 0 C0.99 0 1.98 0 3 0 C3 3.96 3 7.92 3 12 C2.01 11.67 1.02 11.34 0 11 C0 7.37 0 3.74 0 0 Z " fill="#000000" transform="translate(346,164)"/>
<path d="M0 0 C0.99 0 1.98 0 3 0 C3 3.96 3 7.92 3 12 C2.01 11.67 1.02 11.34 0 11 C0 7.37 0 3.74 0 0 Z " fill="#000000" transform="translate(346,143)"/>
<path d="M0 0 C3.78717347 1.48781815 5.77407001 3.61988409 8 7 C7.67 7.99 7.34 8.98 7 10 C5.84775972 9.07038578 4.70340824 8.1309875 3.5625 7.1875 C2.60537109 6.40439453 2.60537109 6.40439453 1.62890625 5.60546875 C0 4 0 4 -1 1 C-0.67 0.67 -0.34 0.34 0 0 Z " fill="#000000" transform="translate(78,142)"/>
<path d="M0 0 C2.53910197 0.38520564 3.72751123 0.70097943 5.484375 2.62890625 C5.90203125 3.26699219 6.3196875 3.90507812 6.75 4.5625 C7.17796875 5.20316406 7.6059375 5.84382812 8.046875 6.50390625 C8.36140625 6.99761719 8.6759375 7.49132812 9 8 C5 8 5 8 2.25 5.6875 C0 3 0 3 0 0 Z " fill="#000000" transform="translate(117,188)"/>
<path d="M0 0 C0.99 0.33 1.98 0.66 3 1 C1.4169423 5.2742558 -1.50568404 7.26531794 -5 10 C-5 4.69520066 -3.4637943 3.81017373 0 0 Z " fill="#000000" transform="translate(52,118)"/>
<path d="M0 0 C-1.52708963 3.43595166 -3.59927045 6.11912454 -6 9 C-6.99 8.67 -7.98 8.34 -9 8 C-4.45945946 0 -4.45945946 0 0 0 Z " fill="#000000" transform="translate(81,89)"/>
<path d="M0 0 C0.99 0 1.98 0 3 0 C1.68775452 3.93673644 0.08089673 6.22719294 -3 9 C-3.99 8.67 -4.98 8.34 -6 8 C-5.07456291 6.65826597 -4.13422595 5.32679841 -3.1875 4 C-2.66542969 3.2575 -2.14335938 2.515 -1.60546875 1.75 C-0.81076172 0.88375 -0.81076172 0.88375 0 0 Z " fill="#000000" transform="translate(91,74)"/>
<path d="M0 0 C4.20626034 1.50223584 5.73900021 4.28550034 8 8 C4 8 4 8 1.25 5.5 C0.5075 4.675 -0.235 3.85 -1 3 C-0.67 2.01 -0.34 1.02 0 0 Z " fill="#000000" transform="translate(131,203)"/>
<path d="M0 0 C0.99 0 1.98 0 3 0 C3 3.63 3 7.26 3 11 C2.01 11 1.02 11 0 11 C0 7.37 0 3.74 0 0 Z " fill="#000000" transform="translate(241,201)"/>
<path d="M0 0 C0.99 0 1.98 0 3 0 C4.32 2.97 5.64 5.94 7 9 C5.68 9 4.36 9 3 9 C0 3.375 0 3.375 0 0 Z " fill="#000000" transform="translate(440,184)"/>
<path d="M0 0 C0.99 0 1.98 0 3 0 C3 3.63 3 7.26 3 11 C2.01 11 1.02 11 0 11 C0 7.37 0 3.74 0 0 Z " fill="#000000" transform="translate(241,181)"/>
<path d="M0 0 C0.99 0 1.98 0 3 0 C3 3.63 3 7.26 3 11 C2.01 11 1.02 11 0 11 C0 7.37 0 3.74 0 0 Z " fill="#000000" transform="translate(30,179)"/>
<path d="M0 0 C3.13506611 0.33589994 4.025249 1.02665172 6.25 3.375 C8 6 8 6 8 9 C4.63704165 7.55873214 2.37072898 5.79407345 0 3 C0 2.01 0 1.02 0 0 Z " fill="#000000" transform="translate(104,173)"/>
<path d="M0 0 C0.99 0 1.98 0 3 0 C3 3.63 3 7.26 3 11 C2.01 11 1.02 11 0 11 C0 7.37 0 3.74 0 0 Z " fill="#000000" transform="translate(241,161)"/>
<path d="M0 0 C2.96404505 2.80804268 5.44499019 5.18315774 7 9 C4 9 4 9 1.25 6.75 C-1 4 -1 4 -0.8125 1.6875 C-0.4103125 0.8521875 -0.4103125 0.8521875 0 0 Z " fill="#000000" transform="translate(92,157)"/>
<path d="M0 0 C0.99 0 1.98 0 3 0 C3 3.63 3 7.26 3 11 C2.01 11 1.02 11 0 11 C0 7.37 0 3.74 0 0 Z " fill="#000000" transform="translate(30,158)"/>
<path d="M0 0 C0.99 0 1.98 0 3 0 C3 3.63 3 7.26 3 11 C2.01 11 1.02 11 0 11 C0 7.37 0 3.74 0 0 Z " fill="#000000" transform="translate(241,141)"/>
<path d="M0 0 C0.99 0 1.98 0 3 0 C3 3.63 3 7.26 3 11 C2.01 11 1.02 11 0 11 C0 7.37 0 3.74 0 0 Z " fill="#000000" transform="translate(30,137)"/>
<path d="M0 0 C0.99 0 1.98 0 3 0 C3 3.63 3 7.26 3 11 C2.01 11 1.02 11 0 11 C0 7.37 0 3.74 0 0 Z " fill="#000000" transform="translate(346,122)"/>
<path d="M0 0 C0.99 0 1.98 0 3 0 C3 3.63 3 7.26 3 11 C2.01 11 1.02 11 0 11 C0 7.37 0 3.74 0 0 Z " fill="#000000" transform="translate(241,121)"/>
<path d="M0 0 C0.99 0 1.98 0 3 0 C3 3.63 3 7.26 3 11 C2.01 11 1.02 11 0 11 C0 7.37 0 3.74 0 0 Z " fill="#000000" transform="translate(30,116)"/>
<path d="M0 0 C-1.52708963 3.43595166 -3.59927045 6.11912454 -6 9 C-6.99 8.67 -7.98 8.34 -9 8 C-7.13554727 3.64961029 -5.02378599 0 0 0 Z " fill="#000000" transform="translate(68,104)"/>
<path d="M0 0 C0.99 0 1.98 0 3 0 C3 3.63 3 7.26 3 11 C2.01 11 1.02 11 0 11 C0 7.37 0 3.74 0 0 Z " fill="#000000" transform="translate(346,101)"/>
<path d="M0 0 C0.99 0.33 1.98 0.66 3 1 C0.19195732 3.96404505 -2.18315774 6.44499019 -6 8 C-6 6.68 -6 5.36 -6 4 C-3.1875 1.6875 -3.1875 1.6875 0 0 Z " fill="#000000" transform="translate(462,96)"/>
<path d="M0 0 C0 0.99 0 1.98 0 3 C-3.3 3.66 -6.6 4.32 -10 5 C-10.33 4.01 -10.66 3.02 -11 2 C-7.17679443 0.57741188 -4.08718695 -0.24042276 0 0 Z " fill="#000000" transform="translate(483,90)"/>
<path d="M0 0 C3.63 0.33 7.26 0.66 11 1 C11 1.99 11 2.98 11 4 C7.37 3.67 3.74 3.34 0 3 C0 2.01 0 1.02 0 0 Z " fill="#000000" transform="translate(492,89)"/>
<path d="M0 0 C0.99 0 1.98 0 3 0 C3 3.63 3 7.26 3 11 C2.01 11 1.02 11 0 11 C0 7.37 0 3.74 0 0 Z " fill="#000000" transform="translate(346,59)"/>
<path d="M0 0 C0.99 0 1.98 0 3 0 C3 3.63 3 7.26 3 11 C2.01 11 1.02 11 0 11 C0 7.37 0 3.74 0 0 Z " fill="#000000" transform="translate(30,54)"/>
<path d="M0 0 C0.99 0 1.98 0 3 0 C3 3.63 3 7.26 3 11 C2.01 11 1.02 11 0 11 C0 7.37 0 3.74 0 0 Z " fill="#000000" transform="translate(346,38)"/>
<path d="M0 0 C0.99 0 1.98 0 3 0 C3 3.63 3 7.26 3 11 C2.01 11 1.02 11 0 11 C0 7.37 0 3.74 0 0 Z " fill="#000000" transform="translate(30,33)"/>
<path d="M0 0 C0.99 0.66 1.98 1.32 3 2 C2.07347299 3.17539996 1.13336613 4.34010577 0.1875 5.5 C-0.33457031 6.1496875 -0.85664063 6.799375 -1.39453125 7.46875 C-3 9 -3 9 -6 9 C-4.68775452 5.06326356 -3.08089673 2.77280706 0 0 Z " fill="#000000" transform="translate(131,29)"/>
<path d="M0 0 C3.63 0 7.26 0 11 0 C10.67 0.99 10.34 1.98 10 3 C6.7 3 3.4 3 0 3 C0 2.01 0 1.02 0 0 Z " fill="#000000" transform="translate(486,215)"/>
<path d="M0 0 C-0.33 0.99 -0.66 1.98 -1 3 C-3.06640625 3.73046875 -3.06640625 3.73046875 -5.5625 4.1875 C-6.38878906 4.34605469 -7.21507812 4.50460938 -8.06640625 4.66796875 C-9.02353516 4.83232422 -9.02353516 4.83232422 -10 5 C-10.33 4.01 -10.66 3.02 -11 2 C-9.54494642 1.47007308 -8.08581873 0.9513211 -6.625 0.4375 C-5.81289063 0.14746094 -5.00078125 -0.14257812 -4.1640625 -0.44140625 C-2 -1 -2 -1 0 0 Z " fill="#000000" transform="translate(516,210)"/>
<path d="M0 0 C-3.01887244 3.48331435 -5.56909529 4.79157144 -10 6 C-9.875 4.1875 -9.875 4.1875 -9 2 C-3.81203008 -1.27067669 -3.81203008 -1.27067669 0 0 Z " fill="#000000" transform="translate(534,202)"/>
<path d="M0 0 C2.64 1.98 5.28 3.96 8 6 C7.67 6.99 7.34 7.98 7 9 C3.63408134 7.55746343 1.48952921 5.66735273 -1 3 C-0.67 2.01 -0.34 1.02 0 0 Z " fill="#000000" transform="translate(452,200)"/>
<path d="M0 0 C0.66 0 1.32 0 2 0 C3.19287411 3.87684087 4 6.91621923 4 11 C3.01 11 2.02 11 1 11 C0.63890458 9.35567294 0.28629924 7.7094792 -0.0625 6.0625 C-0.25972656 5.14597656 -0.45695312 4.22945312 -0.66015625 3.28515625 C-0.77230469 2.53105469 -0.88445312 1.77695313 -1 1 C-0.67 0.67 -0.34 0.34 0 0 Z " fill="#000000" transform="translate(435,165)"/>
<path d="M0 0 C0.99 0.33 1.98 0.66 3 1 C1.55746343 4.36591866 -0.33264727 6.51047079 -3 9 C-3.99 8.67 -4.98 8.34 -6 8 C-4.02 5.36 -2.04 2.72 0 0 Z " fill="#000000" transform="translate(104,59)"/>
<path d="M0 0 C3.3 0.99 6.6 1.98 10 3 C10 3.99 10 4.98 10 6 C5.545 5.01 5.545 5.01 1 4 C0.67 2.68 0.34 1.36 0 0 Z " fill="#000000" transform="translate(467,211)"/>
<path d="M0 0 C0.99 0.66 1.98 1.32 3 2 C2.01 4.97 1.02 7.94 0 11 C-0.99 11 -1.98 11 -3 11 C-2.69078116 9.54096742 -2.37751201 8.08279278 -2.0625 6.625 C-1.88847656 5.81289062 -1.71445312 5.00078125 -1.53515625 4.1640625 C-1 2 -1 2 0 0 Z " fill="#000000" transform="translate(439,126)"/>
<path d="M0 0 C0.99 0 1.98 0 3 0 C2.38545304 3.99455527 0.29353263 6.74466336 -2 10 C-2.66 9.67 -3.32 9.34 -4 9 C-2.94124926 5.59687262 -1.99097846 2.98646769 0 0 Z " fill="#000000" transform="translate(447,109)"/>
<path d="M0 0 C0.66 0.33 1.32 0.66 2 1 C0.63029745 3.95012857 -0.82609125 6.5652222 -3 9 C-3.99 9 -4.98 9 -6 9 C-5.52797514 4.75177626 -3.03344482 2.80010291 0 0 Z " fill="#000000" transform="translate(118,44)"/>
<path d="M0 0 C0.99 0 1.98 0 3 0 C3.33 2.31 3.66 4.62 4 7 C1.69 7 -0.62 7 -3 7 C-3 6.34 -3 5.68 -3 5 C-2.01 4.67 -1.02 4.34 0 4 C0 2.68 0 1.36 0 0 Z " fill="#000000" transform="translate(553,145)"/>
<path d="M0 0 C3.63 0 7.26 0 11 0 C11 0.66 11 1.32 11 2 C7.37 2 3.74 2 0 2 C0 1.34 0 0.68 0 0 Z " fill="#000000" transform="translate(530,150)"/>
<path d="M0 0 C3.63 0 7.26 0 11 0 C11 0.66 11 1.32 11 2 C7.37 2 3.74 2 0 2 C0 1.34 0 0.68 0 0 Z " fill="#000000" transform="translate(510,150)"/>
<path d="M0 0 C3.63 0 7.26 0 11 0 C11 0.66 11 1.32 11 2 C7.37 2 3.74 2 0 2 C0 1.34 0 0.68 0 0 Z " fill="#000000" transform="translate(490,150)"/>
<path d="M0 0 C3.63 0 7.26 0 11 0 C11 0.66 11 1.32 11 2 C7.37 2 3.74 2 0 2 C0 1.34 0 0.68 0 0 Z " fill="#000000" transform="translate(470,150)"/>
<path d="M0 0 C3.63 0 7.26 0 11 0 C11 0.66 11 1.32 11 2 C7.37 2 3.74 2 0 2 C0 1.34 0 0.68 0 0 Z " fill="#000000" transform="translate(450,150)"/>
<path d="M0 0 C3.63 0 7.26 0 11 0 C11 0.66 11 1.32 11 2 C7.37 2 3.74 2 0 2 C0 1.34 0 0.68 0 0 Z " fill="#000000" transform="translate(365,83)"/>
<path d="M0 0 C3.63 0 7.26 0 11 0 C11 0.66 11 1.32 11 2 C7.37 2 3.74 2 0 2 C0 1.34 0 0.68 0 0 Z " fill="#000000" transform="translate(325,83)"/>
</svg>
