<?xml version="1.0" encoding="UTF-8"?>
<svg version="1.1" xmlns="http://www.w3.org/2000/svg" width="549" height="324">
<path d="M0 0 C0.16368615 31.33708426 -0.08105862 62.66883498 -0.40571976 94.00404358 C-0.43739434 97.11462345 -0.46743893 100.22521519 -0.49703979 103.33581543 C-0.54480785 108.32491592 -0.5971571 113.31394925 -0.65287781 118.30296707 C-0.67301453 120.15815414 -0.69180047 122.01335646 -0.70909119 123.86857224 C-0.96180066 150.55788818 -2.01624947 176.98130924 -21.25 197.6875 C-40.23570762 215.66063655 -65.03938609 218.72706866 -89.92431641 218.13623047 C-96.78418278 217.83238816 -103.35489768 216.68785599 -110 215 C-110.66257812 214.83371094 -111.32515625 214.66742188 -112.0078125 214.49609375 C-123.9594846 211.38127573 -142.30687629 205.85258442 -149.8125 195.5 C-153.11861956 188.53974829 -153.27006155 179.61960212 -151.24609375 172.2578125 C-148.01414757 164.72927905 -143.54710124 159.40820351 -135.89453125 156.0859375 C-131.10109582 154.3203692 -126.07521997 152.65991383 -121 154 C-118.40276752 155.55052173 -116.04429221 157.29589122 -113.6328125 159.12109375 C-102.41845999 167.12421475 -88.60012517 170.38934309 -75 169 C-68.45103157 167.49430392 -63.13578145 165.41929983 -59 160 C-59 159.34 -59 158.68 -59 158 C-60.11181641 158.2165625 -60.11181641 158.2165625 -61.24609375 158.4375 C-83.8369736 162.41924627 -105.13647555 159.69577707 -124.5390625 146.7421875 C-142.70268265 133.88349768 -152.79761419 113.1057967 -156.609375 91.5546875 C-159.4111005 66.05898549 -154.78212235 39.73764122 -138.8359375 19.21484375 C-126.73300064 5.03772867 -109.76260811 -2.26904192 -91.5 -4.75 C-90.00179166 -4.8609784 -88.50115918 -4.94113101 -87 -5 C-85.96359375 -5.0515625 -84.9271875 -5.103125 -83.859375 -5.15625 C-76.97876637 -5.33496711 -70.72078565 -4.85334811 -63.95800781 -3.66992188 C-54.27614545 -1.69715588 -54.27614545 -1.69715588 -45 -4.25 C-44.319375 -4.72953125 -43.63875 -5.2090625 -42.9375 -5.703125 C-30.9011851 -13.75969062 -11.23741349 -5.8887899 0 0 Z M-49 4 C-53.03538335 3.73965269 -56.90597006 3.19716258 -60.8828125 2.48046875 C-81.7849453 -1.16037894 -104.94662175 0.29656881 -122.8125 12.8125 C-124.56375933 14.18051272 -126.29457906 15.57525179 -128 17 C-128.71929687 17.59425781 -129.43859375 18.18851563 -130.1796875 18.80078125 C-144.44959244 31.76585052 -149.90655788 51.92269431 -151.17285156 70.54150391 C-152.21371338 93.5760383 -146.39978433 115.87443123 -130.6875 133.3125 C-118.6394849 146.16783509 -103.34318773 153.34492989 -85.703125 154.28515625 C-75.18729869 154.60131835 -65.26350152 153.16486972 -55 151 C-53.33350156 150.66582666 -51.66691422 150.33209316 -50 150 C-53.97069539 165.5324261 -53.97069539 165.5324261 -60 170 C-71.8941346 176.20480537 -85.41860779 176.88930032 -98.125 172.9375 C-106.1956628 170.27379822 -114.48292668 166.69119051 -121.09375 161.2890625 C-124.05245462 159.28829913 -126.21271676 159.84278409 -129.62109375 160.359375 C-136.64095779 162.24978174 -141.31704251 166.67638505 -145.0859375 172.75 C-146.2968489 175.73070499 -146.26484268 178.22777144 -146.25 181.4375 C-146.25515625 182.54996094 -146.2603125 183.66242188 -146.265625 184.80859375 C-145.94080998 188.7111507 -145.25243726 191.59189257 -142.6171875 194.5546875 C-121.15643278 210.81866754 -90.41106595 214.46339332 -64.41064453 211.72753906 C-45.66321468 208.93343193 -29.33719157 199.18892974 -18 184 C-7.72374151 167.03222435 -6.71787701 147.82612937 -6.5859375 128.5703125 C-6.56706783 126.7904329 -6.54744137 125.01056119 -6.52711487 123.23069763 C-6.47561083 118.50250138 -6.43587188 113.77427754 -6.39890671 109.04594803 C-6.36691191 105.13678802 -6.32798178 101.22770908 -6.28913784 97.3186121 C-5.9817649 66.21245602 -5.86871059 35.10751103 -6 4 C-7.25635053 3.35651261 -8.51452421 2.71658409 -9.7734375 2.078125 C-10.47388184 1.72137695 -11.17432617 1.36462891 -11.89599609 0.99707031 C-23.99825571 -4.73809194 -38.01592959 -3.32271361 -49 4 Z " fill="#000000" transform="translate(549,106)"/>
<path d="M0 0 C135.31239092 0 135.31239092 0 174 34 C174.84046875 34.70769531 175.6809375 35.41539063 176.546875 36.14453125 C192.19406542 49.62929939 202.95187119 66.34474717 209 86 C209.21027832 86.66241699 209.42055664 87.32483398 209.63720703 88.00732422 C218.98035504 118.61112731 212.14608939 152.02184162 197.6875 179.8125 C183.25879699 206.46594777 161.55285505 227.87290049 132.27734375 237.08984375 C127.65745515 238.37284023 123.49242329 239.12511897 118.69120789 239.12025452 C117.11912205 239.12232076 117.11912205 239.12232076 115.51527691 239.12442875 C114.37159051 239.12083064 113.22790411 239.11723253 112.04956055 239.11352539 C110.81984685 239.11364593 109.59013315 239.11376646 108.3231554 239.11389065 C105.00429415 239.11326828 101.68549575 239.10833054 98.36664581 239.10128021 C95.24951783 239.09557477 92.13239137 239.09531652 89.01525879 239.09460449 C79.90600108 239.08936237 70.79675008 239.07540117 61.6875 239.0625 C41.330625 239.041875 20.97375 239.02125 0 239 C0 160.13 0 81.26 0 0 Z M6 6 C6 80.91 6 155.82 6 233 C25.14 233.103125 44.28 233.20625 64 233.3125 C73.02214844 233.38078003 73.02214844 233.38078003 82.2265625 233.45043945 C87.67894797 233.46717485 87.67894797 233.46717485 93.13134766 233.47721863 C95.53569178 233.48483196 97.94001836 233.50228148 100.34423828 233.52787781 C114.43845898 233.67026161 126.87607092 233.56375625 140 228 C140.79109665 227.67774948 141.5821933 227.35549896 142.39726257 227.02348328 C152.22098023 222.70260265 160.19559393 216.23055268 168 209 C168.79921875 208.28199219 169.5984375 207.56398437 170.421875 206.82421875 C186.37650123 191.80310789 196.78784658 171.79179491 203 151 C203.21027832 150.3301709 203.42055664 149.6603418 203.63720703 148.97021484 C209.61627229 129.37611263 209.47625459 106.42876378 203 87 C202.63777344 85.87207031 202.27554688 84.74414062 201.90234375 83.58203125 C191.00359168 52.65913132 165.56628536 30.79412287 136.71875 16.90136719 C92.70343564 -3.69413199 69.9677585 6 6 6 Z " fill="#000000" transform="translate(0,0)"/>
<path d="M0 0 C3.49237079 2.85202072 6.7645931 5.86211423 10 9 C10.62390625 9.55042969 11.2478125 10.10085937 11.890625 10.66796875 C25.978897 23.5187574 32.94100721 44.35530882 34 63 C34.05285156 63.84175781 34.10570312 64.68351562 34.16015625 65.55078125 C34.91267279 89.20597505 27.08046586 111.83410549 12 130 C11.32904297 130.88945312 11.32904297 130.88945312 10.64453125 131.796875 C0.0605565 145.32946442 -18.83263714 155.00653398 -35.6640625 157.72314453 C-60.60379368 160.67900314 -85.59427628 155.41977223 -105.625 139.8125 C-122.18631879 125.70820996 -131.81009831 105.54109753 -134 84 C-135.91515866 56.832503 -129.06580192 29.00278083 -110.95678711 8.10009766 C-81.53538316 -24.34535885 -34.6493985 -25.47888921 0 0 Z M-106.65625 11.86328125 C-123.55854084 32.39121781 -129.4226968 57.85603416 -128 84 C-125.99614573 104.0071624 -116.55284786 123.13640537 -101 136 C-89.69556755 144.32173259 -75.98911072 150.24858994 -62 152 C-61.03191406 152.13277344 -60.06382812 152.26554688 -59.06640625 152.40234375 C-39.2867742 154.55704051 -19.07063791 149.17474645 -3.375 136.8125 C14.76605759 121.12152777 25.77706842 101.05088472 28 77 C29.36287084 55.12105555 23.63529898 33.28333329 9.24560547 16.34863281 C-6.05835427 -0.80357857 -28.51431852 -10.59500405 -51.3046875 -12.23828125 C-73.32714103 -12.69607842 -91.55018013 -4.42017348 -106.65625 11.86328125 Z " fill="#000000" transform="translate(352,102)"/>
<path d="M0 0 C61.60435912 0 61.60435912 0 83.1328125 20.00390625 C97.44316122 35.30220792 103.54338091 52.9821719 103.21484375 73.734375 C102.81024435 84.80180197 99.86698515 95.10557963 95 105 C94.53078125 105.97453125 94.0615625 106.9490625 93.578125 107.953125 C86.42828288 121.47411356 75.00317434 131.91595954 61 138 C48 142 48 142 0 142 C0 95.14 0 48.28 0 0 Z M6 6 C6 48.9 6 91.8 6 136 C46.03298998 137.51649543 46.03298998 137.51649543 77.52734375 119.6875 C91.54997043 105.11355637 97.63219744 86.56610636 97.2734375 66.5859375 C96.49812475 48.40063146 88.04806087 33.3221604 75 21 C54.13016109 3.11641446 34.26879329 6 6 6 Z " fill="#000000" transform="translate(57,48)"/>
<path d="M0 0 C9.14810449 6.67520699 15.00401593 16.15446359 16.96484375 27.4140625 C18.48819939 41.02754224 15.00801139 54.37878341 6.5859375 65.30078125 C-0.62660795 73.12361901 -10.34935669 77.85315805 -20.84765625 78.92578125 C-32.6055995 79.37746694 -43.73846257 76.30009215 -52.7890625 68.61328125 C-62.02598447 59.76199618 -65.75402513 49.96322968 -66.1015625 37.30078125 C-65.8391301 23.22784396 -61.02454717 11.13881861 -51.3984375 0.8828125 C-36.16216603 -12.36909428 -16.22438643 -10.57998015 0 0 Z M-51.41015625 9.54296875 C-58.7730439 19.56824719 -61.14472267 31.37041212 -59.7890625 43.61328125 C-57.79341033 53.390796 -53.35488726 61.78425005 -44.9765625 67.48828125 C-35.92571871 72.50880688 -26.01900437 74.32182559 -15.86328125 71.921875 C-6.2433799 68.74185228 1.01042908 63.36309809 6.2109375 54.61328125 C11.87608816 42.75809377 12.74704521 32.25993004 8.53125 19.73046875 C4.52190624 10.26462165 -2.45180345 4.19482967 -11.8671875 0.359375 C-27.12667647 -4.82957445 -40.72435847 -3.17699295 -51.41015625 9.54296875 Z " fill="#000000" transform="translate(325.7890625,138.38671875)"/>
<path d="M0 0 C9.16057738 5.71962594 14.38922995 12.90767991 17.3125 23.2734375 C20.20527102 36.45374518 17.85700901 49.07035306 10.83984375 60.5234375 C5.88990531 67.49325007 -1.19471261 72.38850268 -9.61328125 74.1796875 C-20.37776396 75.70754956 -31.3371317 73.80104987 -40.41015625 67.7109375 C-48.19902867 61.67730393 -52.92799571 53.47837547 -54.41015625 43.7109375 C-55.5093194 29.43983565 -52.4604858 16.98675792 -43.41015625 5.7109375 C-31.94941835 -5.94405019 -14.121907 -7.55304588 0 0 Z M-41.41015625 12.7109375 C-47.95491256 23.43864676 -50.47017772 34.32901114 -47.7265625 46.82421875 C-44.76725595 55.70213839 -40.19959301 61.46332155 -31.82421875 65.70703125 C-23.53198123 69.15542129 -14.85200674 69.61708221 -6.21875 67.0625 C1.45520137 63.78868122 6.86535532 57.09166251 10.02734375 49.5234375 C13.54290691 39.47233401 13.68303145 29.32693748 9.66015625 19.421875 C5.95932423 11.99468798 0.11815154 5.75618771 -7.72265625 2.7109375 C-20.67766258 -0.74825267 -32.68146847 2.4052179 -41.41015625 12.7109375 Z " fill="#000000" transform="translate(489.41015625,146.2890625)"/>
<path d="M0 0 C5.57894737 3.15789474 5.57894737 3.15789474 7 6 C7.4634458 10.63445803 7.7255771 13.66602401 4.8125 17.4375 C0.80305603 21.09054895 0.80305603 21.09054895 -3 21 C-6.51912489 19.84718323 -9.17936428 18.74121936 -11.9375 16.25 C-13.47754625 12.98872559 -13.37514231 10.56385197 -13 7 C-11.73001681 4.14253783 -10.7161997 2.51862737 -8.1875 0.6875 C-5.22019177 -0.24508259 -3.10315844 -0.37237901 0 0 Z " fill="#000000" transform="translate(35,17)"/>
<path d="M0 0 C2.375 1.5625 2.375 1.5625 4 4 C4.5625 7.5 4.5625 7.5 4 11 C1.875 13.5 1.875 13.5 -1 15 C-4.18409977 14.936318 -6.14932332 14.51040601 -8.875 12.875 C-10.70099685 9.83167192 -10.42460581 7.45750445 -10 4 C-7.26646839 -0.10029741 -4.80388991 -0.80064832 0 0 Z " fill="#000000" transform="translate(524,135)"/>
<path d="M0 0 C2 1.0625 2 1.0625 3 3 C3.50030235 6.93094707 3.5996142 9.1005787 1.375 12.4375 C-1.69817115 14.45932313 -3.38247881 14.52755517 -7 14 C-9.375 13 -9.375 13 -11 11 C-11.65964122 7.44238446 -11.63041883 4.26083766 -10 1 C-6.7413581 -0.62932095 -3.56102656 -0.52673518 0 0 Z " fill="#000000" transform="translate(305,101)"/>
<path d="M0 0 C0.556875 0.144375 1.11375 0.28875 1.6875 0.4375 C2.8321875 0.7159375 2.8321875 0.7159375 4 1 C5.2684375 1.3403125 5.2684375 1.3403125 6.5625 1.6875 C9.25525964 2.30360761 9.25525964 2.30360761 12 0 C12.99 0 13.98 0 15 0 C14.52753358 4.25219775 12.22727623 6.37314725 9 9 C5.7701086 9.20186821 4.70944319 7.74906457 2.25 5.625 C0 3 0 3 0 0 Z " fill="#000000" transform="translate(25,207)"/>
<path d="M0 0 C-0.78697325 3.41021743 -1.87119943 6.68885166 -3 10 C-2.01 10.99 -1.02 11.98 0 13 C-0.33 13.99 -0.66 14.98 -1 16 C-2.15518918 15.09515208 -3.29885406 14.1755794 -4.4375 13.25 C-5.07558594 12.73953125 -5.71367188 12.2290625 -6.37109375 11.703125 C-8.18810554 9.80332371 -8.60423197 8.56413092 -9 6 C-7.8803014 4.99406757 -6.7540588 3.9954151 -5.625 3 C-4.68527344 2.1646875 -4.68527344 2.1646875 -3.7265625 1.3125 C-2 0 -2 0 0 0 Z " fill="#000000" transform="translate(59,207)"/>
<path d="M0 0 C0 0.99 0 1.98 0 3 C-1.65 3.33 -3.3 3.66 -5 4 C-5 4.99 -5 5.98 -5 7 C-5.66 7 -6.32 7 -7 7 C-6.67 8.98 -6.34 10.96 -6 13 C-6.99 13.33 -7.98 13.66 -9 14 C-10.29243536 9.8803623 -11.26252625 6.33168317 -11 2 C-3.375 0 -3.375 0 0 0 Z " fill="#000000" transform="translate(431,283)"/>
<path d="M0 0 C0.99 0 1.98 0 3 0 C3 3.3 3 6.6 3 10 C1.02 10 -0.96 10 -3 10 C-3 8.68 -3 7.36 -3 6 C-2.34 5.67 -1.68 5.34 -1 5 C-0.34444881 2.47266765 -0.34444881 2.47266765 0 0 Z " fill="#000000" transform="translate(520,222)"/>
<path d="M0 0 C0.99 0 1.98 0 3 0 C3 3.96 3 7.92 3 12 C2.01 12 1.02 12 0 12 C0 8.04 0 4.08 0 0 Z " fill="#000000" transform="translate(520,180)"/>
<path d="M0 0 C0 0.66 0 1.32 0 2 C-4.95 4.475 -4.95 4.475 -10 7 C-10 5.68 -10 4.36 -10 3 C-3.375 -1.125 -3.375 -1.125 0 0 Z " fill="#000000" transform="translate(448,131)"/>
<path d="M0 0 C0.99 0 1.98 0 3 0 C3 3.96 3 7.92 3 12 C2.01 12 1.02 12 0 12 C0 8.04 0 4.08 0 0 Z " fill="#000000" transform="translate(31,105)"/>
<path d="M0 0 C0.99 0 1.98 0 3 0 C3 3.96 3 7.92 3 12 C2.01 12 1.02 12 0 12 C0 8.04 0 4.08 0 0 Z " fill="#000000" transform="translate(31,43)"/>
<path d="M0 0 C0 0.99 0 1.98 0 3 C-5.94 3.495 -5.94 3.495 -12 4 C-12 3.01 -12 2.02 -12 1 C-7.95858806 0.36605303 -4.0934693 -0.12404452 0 0 Z " fill="#000000" transform="translate(486,238)"/>
<path d="M0 0 C-1.34710422 4.04131267 -3.38428334 4.90288434 -7 7 C-7.99 7 -8.98 7 -10 7 C-10 6.01 -10 5.02 -10 4 C-8.57421875 2.578125 -8.57421875 2.578125 -6.6875 1.25 C-6.07261719 0.80140625 -5.45773438 0.3528125 -4.82421875 -0.109375 C-3 -1 -3 -1 0 0 Z " fill="#000000" transform="translate(153,188)"/>
<path d="M0 0 C0.99 0.33 1.98 0.66 3 1 C0.68462045 4.72114571 -1.28579473 7.61229661 -5 10 C-5 4.69520066 -3.4637943 3.81017373 0 0 Z " fill="#000000" transform="translate(165,173)"/>
<path d="M0 0 C0 0.99 0 1.98 0 3 C-3.63 3.66 -7.26 4.32 -11 5 C-11.33 4.01 -11.66 3.02 -12 2 C-10.7625 1.67 -9.525 1.34 -8.25 1 C-7.55390625 0.814375 -6.8578125 0.62875 -6.140625 0.4375 C-4 0 -4 0 0 0 Z " fill="#000000" transform="translate(468,124)"/>
<path d="M0 0 C0.99 0.33 1.98 0.66 3 1 C1.34832443 4.5786304 -0.78286492 7.74820188 -3 11 C-3.99 10.01 -4.98 9.02 -6 8 C-4.02 5.36 -2.04 2.72 0 0 Z " fill="#000000" transform="translate(513,270)"/>
<path d="M0 0 C-2.33333333 2.33333333 -4.66666667 4.66666667 -7 7 C-7.99 7 -8.98 7 -10 7 C-10 6.01 -10 5.02 -10 4 C-8.57421875 2.578125 -8.57421875 2.578125 -6.6875 1.25 C-6.07261719 0.80140625 -5.45773437 0.3528125 -4.82421875 -0.109375 C-3 -1 -3 -1 0 0 Z " fill="#000000" transform="translate(343,224)"/>
<path d="M0 0 C0.66 0 1.32 0 2 0 C2.66 3.63 3.32 7.26 4 11 C3.01 11 2.02 11 1 11 C-0.62950412 6.87831311 -1.26264601 4.29299643 0 0 Z " fill="#000000" transform="translate(415,199)"/>
<path d="M0 0 C0 0.66 0 1.32 0 2 C-3.3 3.32 -6.6 4.64 -10 6 C-10 4.68 -10 3.36 -10 2 C-3.375 -1.125 -3.375 -1.125 0 0 Z " fill="#000000" transform="translate(136,199)"/>
<path d="M0 0 C0.66 0.33 1.32 0.66 2 1 C1.43454163 4.95820859 0.19097652 7.6659053 -2 11 C-2.99 10.67 -3.98 10.34 -5 10 C-3.66511872 6.40608886 -2.03977277 3.24509304 0 0 Z " fill="#000000" transform="translate(176,156)"/>
<path d="M0 0 C0.99 0 1.98 0 3 0 C4.19287411 3.87684087 5 6.91621923 5 11 C4.01 11 3.02 11 2 11 C0.80712589 7.12315913 0 4.08378077 0 0 Z " fill="#000000" transform="translate(358,148)"/>
<path d="M0 0 C3.39417765 3.12621626 5.6062718 5.56541027 7 10 C5.25 9.875 5.25 9.875 3 9 C0.6875 6.125 0.6875 6.125 -1 3 C-0.67 2.01 -0.34 1.02 0 0 Z " fill="#000000" transform="translate(349,130)"/>
<path d="M0 0 C4.3890815 0.51035831 7.33708062 1.52214277 11 4 C10.67 4.99 10.34 5.98 10 7 C6.7 5.35 3.4 3.7 0 2 C0 1.34 0 0.68 0 0 Z " fill="#000000" transform="translate(498,130)"/>
<path d="M0 0 C3.71888239 0.50712033 6.73454239 1.11608215 10 3 C10 3.99 10 4.98 10 6 C6.37 5.01 2.74 4.02 -1 3 C-0.67 2.01 -0.34 1.02 0 0 Z " fill="#000000" transform="translate(315,109)"/>
<path d="M0 0 C1.8125 0.125 1.8125 0.125 4 1 C5.95320589 4.20883825 7 6.2205439 7 10 C6.01 10 5.02 10 4 10 C3.32845067 8.71086513 2.66291141 7.41859796 2 6.125 C1.62875 5.40570313 1.2575 4.68640625 0.875 3.9453125 C0 2 0 2 0 0 Z " fill="#000000" transform="translate(171,79)"/>
<path d="M0 0 C3.13506611 0.33589994 4.025249 1.02665172 6.25 3.375 C8 6 8 6 8 9 C4.63704165 7.55873214 2.37072898 5.79407345 0 3 C0 2.01 0 1.02 0 0 Z " fill="#000000" transform="translate(159,63)"/>
<path d="M0 0 C0 0.66 0 1.32 0 2 C-3.82320557 3.42258812 -6.91281305 4.24042276 -11 4 C-11 3.01 -11 2.02 -11 1 C-3.375 -1.125 -3.375 -1.125 0 0 Z " fill="#000000" transform="translate(485,297)"/>
<path d="M0 0 C-1.48781815 3.78717347 -3.61988409 5.77407001 -7 8 C-7.99 7.67 -8.98 7.34 -10 7 C-10 6.34 -10 5.68 -10 5 C-8.57421875 3.7109375 -8.57421875 3.7109375 -6.6875 2.375 C-6.07261719 1.92898438 -5.45773437 1.48296875 -4.82421875 1.0234375 C-3 0 -3 0 0 0 Z " fill="#000000" transform="translate(502,286)"/>
<path d="M0 0 C3.63 0.33 7.26 0.66 11 1 C11 1.99 11 2.98 11 4 C9.54176788 4.0270043 8.08339325 4.04639787 6.625 4.0625 C5.81289063 4.07410156 5.00078125 4.08570313 4.1640625 4.09765625 C2 4 2 4 0 3 C0 2.01 0 1.02 0 0 Z " fill="#000000" transform="translate(453,239)"/>
<path d="M0 0 C3.63 0 7.26 0 11 0 C11 0.99 11 1.98 11 3 C7.37 3 3.74 3 0 3 C0 2.01 0 1.02 0 0 Z " fill="#000000" transform="translate(294,238)"/>
<path d="M0 0 C0 0.99 0 1.98 0 3 C-5.445 4.485 -5.445 4.485 -11 6 C-10.67 4.68 -10.34 3.36 -10 2 C-8.7090864 1.66376204 -7.41723903 1.33110751 -6.125 1 C-5.40570313 0.814375 -4.68640625 0.62875 -3.9453125 0.4375 C-2 0 -2 0 0 0 Z " fill="#000000" transform="translate(507,233)"/>
<path d="M0 0 C-1 3 -1 3 -3.25 4.25 C-6.28236729 5.07700926 -8.01120724 4.85394079 -11 4 C-11 3.34 -11 2.68 -11 2 C-7.12315913 0.80712589 -4.08378077 0 0 0 Z " fill="#000000" transform="translate(325,234)"/>
<path d="M0 0 C3.3 0.99 6.6 1.98 10 3 C10 3.99 10 4.98 10 6 C8.53984709 5.71758359 7.08190207 5.42373386 5.625 5.125 C4.81289063 4.96257812 4.00078125 4.80015625 3.1640625 4.6328125 C1 4 1 4 -1 2 C-0.67 1.34 -0.34 0.68 0 0 Z " fill="#000000" transform="translate(275,233)"/>
<path d="M0 0 C3.91211733 1.15585285 6.8745041 2.35534962 10 5 C9.67 5.66 9.34 6.32 9 7 C4.56909529 5.79157144 2.01887244 4.48331435 -1 1 C-0.67 0.67 -0.34 0.34 0 0 Z " fill="#000000" transform="translate(435,232)"/>
<path d="M0 0 C3.63 0 7.26 0 11 0 C11 0.99 11 1.98 11 3 C7.37 3 3.74 3 0 3 C0 2.01 0 1.02 0 0 Z " fill="#000000" transform="translate(66,213)"/>
<path d="M0 0 C0 0.99 0 1.98 0 3 C-7.625 5 -7.625 5 -11 5 C-11 4.01 -11 3.02 -11 2 C-9.5422647 1.664061 -8.08378894 1.33133376 -6.625 1 C-5.40683594 0.7215625 -5.40683594 0.7215625 -4.1640625 0.4375 C-2 0 -2 0 0 0 Z " fill="#000000" transform="translate(97,210)"/>
<path d="M0 0 C0.66 0 1.32 0 2 0 C1.49701212 4.40114397 -0.08772731 6.71195019 -3 10 C-3.99 9.67 -4.98 9.34 -6 9 C-5.05016642 7.49460339 -4.08988109 5.99579653 -3.125 4.5 C-2.59132813 3.6646875 -2.05765625 2.829375 -1.5078125 1.96875 C-0.76144531 0.99421875 -0.76144531 0.99421875 0 0 Z " fill="#000000" transform="translate(353,207)"/>
<path d="M0 0 C-0.33 0.99 -0.66 1.98 -1 3 C-4.3 3.66 -7.6 4.32 -11 5 C-11 4.01 -11 3.02 -11 2 C-7.17679443 0.57741188 -4.08718695 -0.24042276 0 0 Z " fill="#000000" transform="translate(117,206)"/>
<path d="M0 0 C0.99 0 1.98 0 3 0 C3 3.63 3 7.26 3 11 C2.01 11 1.02 11 0 11 C0 7.37 0 3.74 0 0 Z " fill="#000000" transform="translate(520,201)"/>
<path d="M0 0 C2.56616632 3.84924948 2.55097676 6.4349304 3 11 C2.01 11 1.02 11 0 11 C-0.66 7.7 -1.32 4.4 -2 1 C-1.34 0.67 -0.68 0.34 0 0 Z " fill="#000000" transform="translate(240,188)"/>
<path d="M0 0 C0.99 0 1.98 0 3 0 C3 3.63 3 7.26 3 11 C2.01 11 1.02 11 0 11 C0 7.37 0 3.74 0 0 Z " fill="#000000" transform="translate(31,188)"/>
<path d="M0 0 C0.99 0 1.98 0 3 0 C3 3.63 3 7.26 3 11 C2.01 11 1.02 11 0 11 C0 7.37 0 3.74 0 0 Z " fill="#000000" transform="translate(362,168)"/>
<path d="M0 0 C0.99 0 1.98 0 3 0 C3 3.63 3 7.26 3 11 C2.01 11 1.02 11 0 11 C0 7.37 0 3.74 0 0 Z " fill="#000000" transform="translate(31,168)"/>
<path d="M0 0 C0.99 0 1.98 0 3 0 C3 3.63 3 7.26 3 11 C2.01 11 1.02 11 0 11 C0 7.37 0 3.74 0 0 Z " fill="#000000" transform="translate(520,160)"/>
<path d="M0 0 C0.99 0.33 1.98 0.66 3 1 C2.01 4.3 1.02 7.6 0 11 C-0.99 10.67 -1.98 10.34 -3 10 C-2.01 6.7 -1.02 3.4 0 0 Z " fill="#000000" transform="translate(418,160)"/>
<path d="M0 0 C0.99 0 1.98 0 3 0 C3 3.63 3 7.26 3 11 C2.01 11 1.02 11 0 11 C0 7.37 0 3.74 0 0 Z " fill="#000000" transform="translate(31,147)"/>
<path d="M0 0 C0.99 0 1.98 0 3 0 C1.50163895 3.11198065 -0.19933758 6.0534615 -2 9 C-3.32 8.67 -4.64 8.34 -6 8 C-5.07456291 6.65826597 -4.13422595 5.32679841 -3.1875 4 C-2.66542969 3.2575 -2.14335937 2.515 -1.60546875 1.75 C-0.81076172 0.88375 -0.81076172 0.88375 0 0 Z " fill="#000000" transform="translate(428,143)"/>
<path d="M0 0 C0.99 0.33 1.98 0.66 3 1 C0.525 5.455 0.525 5.455 -2 10 C-2.99 9.67 -3.98 9.34 -5 9 C-3.7508258 5.54074837 -2.32472205 2.85306797 0 0 Z " fill="#000000" transform="translate(251,131)"/>
<path d="M0 0 C0.99 0 1.98 0 3 0 C3 3.63 3 7.26 3 11 C2.01 11 1.02 11 0 11 C0 7.37 0 3.74 0 0 Z " fill="#000000" transform="translate(31,126)"/>
<path d="M0 0 C0.99 0 1.98 0 3 0 C3 3.63 3 7.26 3 11 C2.01 11 1.02 11 0 11 C0 7.37 0 3.74 0 0 Z " fill="#000000" transform="translate(183,117)"/>
<path d="M0 0 C-0.38520564 2.53910197 -0.70097943 3.72751123 -2.62890625 5.484375 C-3.26699219 5.90203125 -3.90507812 6.3196875 -4.5625 6.75 C-5.20316406 7.17796875 -5.84382813 7.6059375 -6.50390625 8.046875 C-7.24447266 8.51867187 -7.24447266 8.51867187 -8 9 C-8 7.68 -8 6.36 -8 5 C-2.77272727 0 -2.77272727 0 0 0 Z " fill="#000000" transform="translate(267,116)"/>
<path d="M0 0 C0.33 0.99 0.66 1.98 1 3 C-5.4 6.07692308 -5.4 6.07692308 -8.4375 5.6875 C-8.953125 5.460625 -9.46875 5.23375 -10 5 C-7.3401439 1.55783328 -4.09711714 1.00495326 0 0 Z " fill="#000000" transform="translate(284,107)"/>
<path d="M0 0 C0.66 0 1.32 0 2 0 C2.50367757 1.45706726 3.00282556 2.91570096 3.5 4.375 C3.91765625 5.59316406 3.91765625 5.59316406 4.34375 6.8359375 C5 9 5 9 5 11 C3.68 10.67 2.36 10.34 1 10 C0.63883954 8.5225254 0.28624952 7.04295325 -0.0625 5.5625 C-0.25972656 4.73878906 -0.45695313 3.91507812 -0.66015625 3.06640625 C-0.82837891 2.04353516 -0.82837891 2.04353516 -1 1 C-0.67 0.67 -0.34 0.34 0 0 Z " fill="#000000" transform="translate(180,97)"/>
<path d="M0 0 C0.99 0 1.98 0 3 0 C3 3.63 3 7.26 3 11 C2.01 11 1.02 11 0 11 C0 7.37 0 3.74 0 0 Z " fill="#000000" transform="translate(31,85)"/>
<path d="M0 0 C0.99 0 1.98 0 3 0 C3 3.63 3 7.26 3 11 C2.01 11 1.02 11 0 11 C0 7.37 0 3.74 0 0 Z " fill="#000000" transform="translate(31,64)"/>
<path d="M0 0 C3.43595166 1.52708963 6.11912454 3.59927045 9 6 C8.67 6.99 8.34 7.98 8 9 C5.03 7.02 2.06 5.04 -1 3 C-0.67 2.01 -0.34 1.02 0 0 Z " fill="#000000" transform="translate(144,49)"/>
<path d="M0 0 C3.63 0 7.26 0 11 0 C11 0.99 11 1.98 11 3 C7.37 3 3.74 3 0 3 C0 2.01 0 1.02 0 0 Z " fill="#000000" transform="translate(68,26)"/>
<path d="M0 0 C1.45903258 0.30921884 2.91720722 0.62248799 4.375 0.9375 C5.18710937 1.11152344 5.99921875 1.28554688 6.8359375 1.46484375 C9 2 9 2 11 3 C10.67 3.99 10.34 4.98 10 6 C8.5164999 5.57742724 7.03823576 5.13643678 5.5625 4.6875 C4.73878906 4.44386719 3.91507812 4.20023437 3.06640625 3.94921875 C2.04353516 3.47935547 2.04353516 3.47935547 1 3 C0.67 2.01 0.34 1.02 0 0 Z " fill="#000000" transform="translate(434,293)"/>
<path d="M0 0 C3.11198065 1.49836105 6.0534615 3.19933758 9 5 C8.67 5.99 8.34 6.98 8 8 C3.58110387 6.64978174 1.65654657 4.73884332 -1 1 C-0.67 0.67 -0.34 0.34 0 0 Z " fill="#000000" transform="translate(258,223)"/>
<path d="M0 0 C4.20626034 1.50223584 5.73900021 4.28550034 8 8 C6.68 8.33 5.36 8.66 4 9 C1.525 5.04 1.525 5.04 -1 1 C-0.67 0.67 -0.34 0.34 0 0 Z " fill="#000000" transform="translate(421,218)"/>
<path d="M0 0 C2.33524782 2.25740623 4.18705073 4.2805761 6 7 C6 7.99 6 8.98 6 10 C5.01 10 4.02 10 3 10 C0.75 7.25 0.75 7.25 -1 4 C-0.75 1.625 -0.75 1.625 0 0 Z " fill="#000000" transform="translate(246,207)"/>
<path d="M0 0 C0.99 0.33 1.98 0.66 3 1 C2.01 4.3 1.02 7.6 0 11 C-0.99 11 -1.98 11 -3 11 C-2.01 7.37 -1.02 3.74 0 0 Z " fill="#000000" transform="translate(360,188)"/>
<path d="M0 0 C0.99 0.33 1.98 0.66 3 1 C2.01 4.3 1.02 7.6 0 11 C-0.99 10.67 -1.98 10.34 -3 10 C-2.69201674 8.51988629 -2.378482 7.04092675 -2.0625 5.5625 C-1.88847656 4.73878906 -1.71445313 3.91507813 -1.53515625 3.06640625 C-1 1 -1 1 0 0 Z " fill="#000000" transform="translate(242,149)"/>
<path d="M0 0 C0.99 0.33 1.98 0.66 3 1 C2.34 4.3 1.68 7.6 1 11 C0.01 11 -0.98 11 -2 11 C-1.125 3.375 -1.125 3.375 0 0 Z " fill="#000000" transform="translate(182,137)"/>
<path d="M0 0 C4.43458973 1.3937282 6.87378374 3.60582235 10 7 C5.25852179 7 3.64977257 5.90322818 0 3 C0 2.01 0 1.02 0 0 Z " fill="#000000" transform="translate(333,117)"/>
<path d="M0 0 C3.3 0.99 6.6 1.98 10 3 C10 3.99 10 4.98 10 6 C6.37 5.01 2.74 4.02 -1 3 C-0.67 2.01 -0.34 1.02 0 0 Z " fill="#000000" transform="translate(108,32)"/>
<path d="M0 0 C3.3 0 6.6 0 10 0 C10 0.99 10 1.98 10 3 C6.7 3 3.4 3 0 3 C0 2.01 0 1.02 0 0 Z " fill="#000000" transform="translate(454,299)"/>
<path d="M0 0 C0.66 0.33 1.32 0.66 2 1 C2 4.3 2 7.6 2 11 C1.01 11 0.02 11 -1 11 C-1.02688151 9.35425434 -1.04634123 7.70838587 -1.0625 6.0625 C-1.07410156 5.14597656 -1.08570313 4.22945312 -1.09765625 3.28515625 C-1 1 -1 1 0 0 Z " fill="#000000" transform="translate(238,168)"/>
<path d="M0 0 C3.63 0.66 7.26 1.32 11 2 C11 2.99 11 3.98 11 5 C9.54119891 4.85892253 8.08296449 4.71197585 6.625 4.5625 C5.40683594 4.44068359 5.40683594 4.44068359 4.1640625 4.31640625 C2 4 2 4 0 3 C0 2.01 0 1.02 0 0 Z " fill="#000000" transform="translate(478,124)"/>
<path d="M0 0 C3.3 1.65 6.6 3.3 10 5 C9.67 5.66 9.34 6.32 9 7 C5.33118845 6.29445932 2.29549466 4.72264494 -1 3 C-0.67 2.01 -0.34 1.02 0 0 Z " fill="#000000" transform="translate(127,39)"/>
<path d="M0 0 C3.3 0.33 6.6 0.66 10 1 C10 1.99 10 2.98 10 4 C6.7 3.67 3.4 3.34 0 3 C0 2.01 0 1.02 0 0 Z " fill="#000000" transform="translate(88,28)"/>
<path d="M0 0 C0.66 0 1.32 0 2 0 C2 3.3 2 6.6 2 10 C1.01 10 0.02 10 -1 10 C-1.02689216 8.52093108 -1.04634621 7.04172517 -1.0625 5.5625 C-1.07410156 4.73878906 -1.08570313 3.91507813 -1.09765625 3.06640625 C-1 1 -1 1 0 0 Z " fill="#000000" transform="translate(414,180)"/>
<path d="M0 0 C0 0.99 0 1.98 0 3 C-3.3 3.33 -6.6 3.66 -10 4 C-10.33 3.01 -10.66 2.02 -11 1 C-7.26562152 0.12132271 -3.83225427 -0.08912219 0 0 Z " fill="#000000" transform="translate(58,25)"/>
<path d="M0 0 C0.99 0 1.98 0 3 0 C2.67 2.64 2.34 5.28 2 8 C0.68 8.33 -0.64 8.66 -2 9 C-1.34 6.03 -0.68 3.06 0 0 Z " fill="#000000" transform="translate(520,254)"/>
<path d="M0 0 C0.99 0 1.98 0 3 0 C3 2.97 3 5.94 3 9 C2.01 9 1.02 9 0 9 C0 6.03 0 3.06 0 0 Z " fill="#000000" transform="translate(520,238)"/>
<path d="M0 0 C0.99 0 1.98 0 3 0 C3 2.31 3 4.62 3 7 C2.01 7 1.02 7 0 7 C0 4.69 0 2.38 0 0 Z " fill="#000000" transform="translate(520,119)"/>
</svg>
