<?xml version="1.0" encoding="UTF-8"?>
<svg version="1.1" xmlns="http://www.w3.org/2000/svg" width="160" height="210">
<path d="M0 0 C4.78080001 4.20402789 7.57560352 10.79317773 8.875 16.9375 C8.95996014 18.32331461 8.99705298 19.71259786 8.99525452 21.10101318 C8.99731651 22.33352058 8.99731651 22.33352058 8.99942017 23.59092712 C8.99582489 24.48356766 8.99222961 25.37620819 8.98852539 26.29589844 C8.98867142 27.24257889 8.98881744 28.18925934 8.9889679 29.16462708 C8.98827153 32.2920664 8.98049198 35.41944608 8.97265625 38.546875 C8.97079109 40.71592171 8.96936765 42.88496883 8.96836853 45.05401611 C8.96455106 50.76191369 8.95472731 56.46978582 8.94366455 62.17767334 C8.9334339 68.00255997 8.92886736 73.82745072 8.92382812 79.65234375 C8.91310438 91.08074035 8.89603717 102.50911806 8.875 113.9375 C9.98415771 113.91550537 11.09331543 113.89351074 12.23608398 113.87084961 C18.27744999 113.98150328 21.57349093 117.5750238 25.64453125 121.75390625 C30.89458631 127.66820185 32.41126701 131.84351495 32.24609375 139.83984375 C31.21326589 148.46123838 25.17900531 154.43798073 18.875 159.9375 C15.2308226 162.3669516 13.16258728 162.09929575 8.875 161.9375 C8.9064209 162.64769287 8.9378418 163.35788574 8.97021484 164.08959961 C9.09601317 167.35106717 9.17331 170.61202294 9.25 173.875 C9.30027344 174.99197266 9.35054687 176.10894531 9.40234375 177.25976562 C9.56767971 186.65635951 6.96996354 191.50190658 0.71484375 198.27734375 C-4.68132433 202.8092385 -8.59996122 205.48106327 -15.953125 205.24609375 C-25.21466968 203.93015485 -31.64633762 197.71105837 -37.72558594 191.11645508 C-41.41546941 185.90391757 -40.66411288 180.13249309 -40.4375 174 C-40.41494141 172.83919922 -40.39238281 171.67839844 -40.36914062 170.48242188 C-40.31050578 167.63276834 -40.22848837 164.7858185 -40.125 161.9375 C-40.91711884 161.94638245 -41.70923767 161.95526489 -42.52536011 161.9644165 C-50.02744434 162.04490275 -57.52931623 162.10563587 -65.03172112 162.14474869 C-68.88787279 162.16553376 -72.74366469 162.19368242 -76.59960938 162.23925781 C-80.32790741 162.28304361 -84.05586161 162.30670521 -87.78439713 162.31700897 C-89.19964121 162.3243422 -90.61486864 162.33866079 -92.02996445 162.36042023 C-103.68460055 162.53233675 -112.76263426 161.03015139 -121.43359375 152.8671875 C-126.76345631 146.7864667 -128.25139249 139.99398198 -128.375 132.0625 C-128.40078125 131.07507813 -128.4265625 130.08765625 -128.453125 129.0703125 C-127.65769636 121.47586287 -123.46392401 116.42981795 -118.8125 110.6875 C-117.5435187 109.08886806 -116.27665426 107.48855388 -115.01171875 105.88671875 C-114.36509277 105.06864746 -113.7184668 104.25057617 -113.05224609 103.40771484 C-109.99944295 99.49483643 -107.05736226 95.50353914 -104.125 91.5 C-103.54693604 90.71189941 -102.96887207 89.92379883 -102.37329102 89.11181641 C-100.62215336 86.72162184 -98.87341778 84.32968462 -97.125 81.9375 C-89.21840537 71.1339183 -81.22415303 60.40859065 -73.08862305 49.77612305 C-68.68915383 44.01692412 -64.3502558 38.21779002 -60.0625 32.375 C-55.04728751 25.54257682 -50.01036202 18.7272741 -44.9375 11.9375 C-43.98315063 10.6544397 -43.98315063 10.6544397 -43.00952148 9.34545898 C-42.11728882 8.15351929 -42.11728882 8.15351929 -41.20703125 6.9375 C-40.68343018 6.23625 -40.1598291 5.535 -39.62036133 4.8125 C-36.93139041 1.44085973 -34.66675565 -0.48306335 -30.6875 -2.1875 C-29.92566406 -2.52007812 -29.16382812 -2.85265625 -28.37890625 -3.1953125 C-18.31129135 -7.06881425 -8.84328873 -5.83657056 0 0 Z M-36.20703125 9.25390625 C-37.47692724 10.98352324 -38.71949948 12.7334538 -39.9375 14.5 C-40.95360352 15.90185547 -40.95360352 15.90185547 -41.99023438 17.33203125 C-43.38398504 19.2580359 -44.76701522 21.19184435 -46.13916016 23.13330078 C-48.52347934 26.50019163 -50.96731667 29.81972194 -53.42163086 33.13574219 C-54.56009597 34.67414681 -55.6950124 36.21518372 -56.82641602 37.75878906 C-61.26647396 43.81496005 -65.8081107 49.78909767 -70.375 55.75 C-74.71616103 61.41808195 -79.01914337 67.09630482 -83.125 72.9375 C-87.2308621 78.77870297 -91.53399993 84.45678581 -95.875 90.125 C-101.26662556 97.16619711 -106.61245715 104.23667851 -111.875 111.375 C-112.44702148 112.14932373 -113.01904297 112.92364746 -113.60839844 113.72143555 C-114.65893624 115.15070327 -115.70386756 116.58411656 -116.74194336 118.02246094 C-117.97427369 119.72879794 -119.22972651 121.41838133 -120.48828125 123.10546875 C-123.53625441 128.37940799 -122.90979794 134.49906872 -121.58203125 140.31640625 C-118.99277732 147.85528372 -115.00660612 151.49669694 -108.125 154.9375 C-104.51304832 156.15365437 -101.03506121 156.05784184 -97.24511719 156.05102539 C-96.56178314 156.05117142 -95.8784491 156.05131744 -95.17440796 156.0514679 C-92.92353096 156.05077315 -90.67273748 156.04300132 -88.421875 156.03515625 C-86.8581751 156.03329051 -85.29447462 156.03186734 -83.73077393 156.03086853 C-79.62083311 156.02705562 -75.51092779 156.0172358 -71.40100098 156.00616455 C-67.20483887 155.99592407 -63.00867101 155.99136526 -58.8125 155.98632812 C-50.58331707 155.97561242 -42.35416295 155.95855073 -34.125 155.9375 C-34.15118408 156.77933838 -34.17736816 157.62117676 -34.2043457 158.48852539 C-34.29003638 161.63998996 -34.35247436 164.79085694 -34.3996582 167.94311523 C-34.42465918 169.30203907 -34.45867278 170.66083039 -34.50219727 172.01928711 C-35.0380635 181.08584187 -35.0380635 181.08584187 -31.75463867 189.24853516 C-29.40501216 191.65117061 -27.29234649 193.55790844 -24.4375 195.3125 C-23.28701172 196.03566406 -23.28701172 196.03566406 -22.11328125 196.7734375 C-18.19519847 199.06732487 -15.73280993 199.31518934 -11.125 198.9375 C-4.44413396 196.12450377 -0.35669658 191.40089317 2.875 184.9375 C2.96059118 182.75925039 2.98213412 180.57834745 2.97265625 178.3984375 C2.96943359 177.09648437 2.96621094 175.79453125 2.96289062 174.453125 C2.95453466 173.07291601 2.94606971 171.69270768 2.9375 170.3125 C2.93248501 168.92448074 2.9279221 167.53645978 2.92382812 166.1484375 C2.91200976 162.74474868 2.89553434 159.34114561 2.875 155.9375 C3.98887085 155.99079468 3.98887085 155.99079468 5.12524414 156.04516602 C6.10614014 156.07280029 7.08703613 156.10043457 8.09765625 156.12890625 C9.5518396 156.18220093 9.5518396 156.18220093 11.03540039 156.23657227 C16.74989463 155.63471039 19.78979806 151.46573352 23.25390625 147.265625 C26.02369933 143.21226928 26.59072366 139.20760899 26.39453125 134.43359375 C25.47029389 129.99308491 22.94674255 127.14987654 19.875 123.9375 C19.17375 123.1125 18.4725 122.2875 17.75 121.4375 C14.38935563 119.68412033 12.45278555 119.78322694 8.6953125 119.84375 C7.60750488 119.85728516 6.51969727 119.87082031 5.39892578 119.88476562 C4.56603027 119.90216797 3.73313477 119.91957031 2.875 119.9375 C2.88832367 118.05401352 2.88832367 118.05401352 2.9019165 116.13247681 C2.98315345 104.27442948 3.043038 92.41643894 3.08224869 80.55817604 C3.10308529 74.46233101 3.13133154 68.36671141 3.17675781 62.27099609 C3.22035506 56.38358736 3.24416663 50.49639489 3.25450897 44.60883713 C3.26187541 42.36745171 3.27626018 40.12607756 3.29792023 37.8847847 C3.32713816 34.73494533 3.33094826 31.58598916 3.32910156 28.43603516 C3.34348267 27.51821259 3.35786377 26.60039001 3.37268066 25.65475464 C3.327813 18.5395319 2.02758915 11.33433615 -2.96306992 5.95702553 C-6.93739445 2.43843074 -9.69381177 0.77134875 -15.0625 0.625 C-15.93777344 0.58761719 -16.81304687 0.55023437 -17.71484375 0.51171875 C-25.17260433 1.44287099 -31.30451131 3.3284465 -36.20703125 9.25390625 Z " fill="#000000" transform="translate(128.125,5.0625)"/>
<path d="M0 0 C0.66 0 1.32 0 2 0 C2 17.82 2 35.64 2 54 C-11.53 54 -25.06 54 -39 54 C-37.52688963 51.05377925 -36.22464911 48.78821467 -34.3046875 46.19140625 C-33.76142822 45.45462646 -33.21816895 44.71784668 -32.65844727 43.95874023 C-32.06990967 43.16798096 -31.48137207 42.37722168 -30.875 41.5625 C-29.95642212 40.32125366 -29.95642212 40.32125366 -29.01928711 39.05493164 C-23.61617756 31.77656517 -18.12610924 24.56470817 -12.59521484 17.38305664 C-8.70273944 12.31105836 -5.00460126 7.16090134 -1.46069336 1.83813477 C-0.97866455 1.23155029 -0.49663574 0.62496582 0 0 Z M-5 17 C-6.16383705 18.40936826 -7.2841558 19.85469668 -8.38671875 21.3125 C-9.4240918 22.67955078 -9.4240918 22.67955078 -10.48242188 24.07421875 C-11.21009766 25.03972656 -11.93777344 26.00523438 -12.6875 27 C-13.75000977 28.40185547 -13.75000977 28.40185547 -14.83398438 29.83203125 C-16.23259555 31.67876622 -17.62831869 33.52769235 -19.02099609 35.37890625 C-20.29063104 37.06047555 -21.56888656 38.73559051 -22.85791016 40.40234375 C-23.6804126 41.47162109 -23.6804126 41.47162109 -24.51953125 42.5625 C-25.00139893 43.18253906 -25.4832666 43.80257812 -25.97973633 44.44140625 C-27.18256474 45.96842044 -27.18256474 45.96842044 -27 48 C-19.41 48 -11.82 48 -4 48 C-4 37.77 -4 27.54 -4 17 C-4.33 17 -4.66 17 -5 17 Z " fill="#000000" transform="translate(92,71)"/>
<path d="M0 0 C2.96593118 2.25668676 4.58516544 3.98884076 6 7.4375 C6 10.96214508 4.84564944 13.03377769 3 16 C-0.66781672 18.44521115 -3.73453233 18.72237759 -8 18 C-10.43119623 16.12984906 -11.64069173 14.71861655 -13 12 C-13.43023798 8.12785818 -13.31669086 6.47503629 -11.125 3.1875 C-7.5841408 -0.45750212 -5.02152545 -0.5106636 0 0 Z " fill="#000000" transform="translate(114,13)"/>
<path d="M0 0 C3.5060303 0.86943897 4.94966563 2.56083702 6.9375 5.48046875 C7.62901325 9.78321784 7.45307405 11.68992187 5.0625 15.35546875 C2.53885348 17.87911527 1.67013343 18.41534578 -1.875 18.73046875 C-5.45404719 18.44975917 -7.20500017 17.60318291 -10.0625 15.48046875 C-11.67838379 12.24870118 -11.63701407 8.97431592 -11.0625 5.48046875 C-8.05360973 0.96713335 -5.26110022 -0.36867558 0 0 Z " fill="#000000" transform="translate(22.0625,131.51953125)"/>
<path d="M0 0 C4.25219775 0.47246642 6.37314725 2.77272377 9 6 C9.20186821 9.2298914 7.74906457 10.29055681 5.625 12.75 C3 15 3 15 0 15 C0.78697325 11.58978257 1.87119943 8.31114834 3 5 C2.2575 4.319375 2.2575 4.319375 1.5 3.625 C0 2 0 2 0 0 Z " fill="#000000" transform="translate(135,135)"/>
<path d="M0 0 C3.63 0 7.26 0 11 0 C11 0.99 11 1.98 11 3 C7.37 3 3.74 3 0 3 C0 2.01 0 1.02 0 0 Z " fill="#000000" transform="translate(117,141)"/>
<path d="M0 0 C3.63 0 7.26 0 11 0 C11 0.99 11 1.98 11 3 C7.37 3 3.74 3 0 3 C0 2.01 0 1.02 0 0 Z " fill="#000000" transform="translate(96,141)"/>
<path d="M0 0 C3.63 0 7.26 0 11 0 C11 0.99 11 1.98 11 3 C7.37 3 3.74 3 0 3 C0 2.01 0 1.02 0 0 Z " fill="#000000" transform="translate(76,141)"/>
<path d="M0 0 C3.63 0 7.26 0 11 0 C11 0.99 11 1.98 11 3 C7.37 3 3.74 3 0 3 C0 2.01 0 1.02 0 0 Z " fill="#000000" transform="translate(55,141)"/>
<path d="M0 0 C3.63 0 7.26 0 11 0 C11 0.99 11 1.98 11 3 C7.37 3 3.74 3 0 3 C0 2.01 0 1.02 0 0 Z " fill="#000000" transform="translate(35,141)"/>
<path d="M0 0 C0.99 0 1.98 0 3 0 C1.7508258 3.45925163 0.32472205 6.14693203 -2 9 C-2.99 8.67 -3.98 8.34 -5 8 C-3.63029745 5.04987143 -2.17390875 2.4347778 0 0 Z " fill="#000000" transform="translate(67,77)"/>
<path d="M0 0 C0.66 0.33 1.32 0.66 2 1 C1.42647107 4.87132028 -0.48704352 7.08172796 -3 10 C-3.99 9.67 -4.98 9.34 -6 9 C-4.02 6.03 -2.04 3.06 0 0 Z " fill="#000000" transform="translate(33,122)"/>
<path d="M0 0 C0.99 0.33 1.98 0.66 3 1 C1.44499019 4.81684226 -1.03595495 7.19195732 -4 10 C-4 5.28093812 -2.71245796 3.72962969 0 0 Z " fill="#000000" transform="translate(44,107)"/>
<path d="M0 0 C0.66 0.33 1.32 0.66 2 1 C1.42647107 4.87132028 -0.48704352 7.08172796 -3 10 C-3.99 9.67 -4.98 9.34 -6 9 C-4.02 6.03 -2.04 3.06 0 0 Z " fill="#000000" transform="translate(79,61)"/>
<path d="M0 0 C0.99 0.33 1.98 0.66 3 1 C1.44499019 4.81684226 -1.03595495 7.19195732 -4 10 C-4 5.28093812 -2.71245796 3.72962969 0 0 Z " fill="#000000" transform="translate(90,46)"/>
<path d="M0 0 C0.66 0 1.32 0 2 0 C1.42647107 3.87132028 -0.48704352 6.08172796 -3 9 C-3.99 8.67 -4.98 8.34 -6 8 C-5.04956626 6.66102417 -4.08940853 5.32894573 -3.125 4 C-2.59132812 3.2575 -2.05765625 2.515 -1.5078125 1.75 C-1.01023437 1.1725 -0.51265625 0.595 0 0 Z " fill="#000000" transform="translate(56,92)"/>
<path d="M0 0 C0.66 0 1.32 0 2 0 C1.52354792 4.28806873 0.34097516 6.26647487 -3 9 C-3.66 9 -4.32 9 -5 9 C-4.42676569 5.13066838 -2.61046448 2.84777943 0 0 Z " fill="#000000" transform="translate(102,31)"/>
<path d="M0 0 C0.66 0 1.32 0 2 0 C2 3.3 2 6.6 2 10 C1.34 10 0.68 10 0 10 C0 6.7 0 3.4 0 0 Z " fill="#000000" transform="translate(111,167)"/>
<path d="M0 0 C0.66 0 1.32 0 2 0 C2 3.3 2 6.6 2 10 C1.34 10 0.68 10 0 10 C0 6.7 0 3.4 0 0 Z " fill="#000000" transform="translate(111,148)"/>
<path d="M0 0 C0.66 0 1.32 0 2 0 C2 3.3 2 6.6 2 10 C1.34 10 0.68 10 0 10 C0 6.7 0 3.4 0 0 Z " fill="#000000" transform="translate(111,129)"/>
<path d="M0 0 C0.66 0 1.32 0 2 0 C2 3.3 2 6.6 2 10 C1.34 10 0.68 10 0 10 C0 6.7 0 3.4 0 0 Z " fill="#000000" transform="translate(111,110)"/>
<path d="M0 0 C0.66 0 1.32 0 2 0 C2 3.3 2 6.6 2 10 C1.34 10 0.68 10 0 10 C0 6.7 0 3.4 0 0 Z " fill="#000000" transform="translate(111,91)"/>
<path d="M0 0 C0.66 0 1.32 0 2 0 C2 3.3 2 6.6 2 10 C1.34 10 0.68 10 0 10 C0 6.7 0 3.4 0 0 Z " fill="#000000" transform="translate(111,72)"/>
<path d="M0 0 C0.66 0 1.32 0 2 0 C2 3.3 2 6.6 2 10 C1.34 10 0.68 10 0 10 C0 6.7 0 3.4 0 0 Z " fill="#000000" transform="translate(111,53)"/>
<path d="M0 0 C0.66 0 1.32 0 2 0 C2 3.3 2 6.6 2 10 C1.34 10 0.68 10 0 10 C0 6.7 0 3.4 0 0 Z " fill="#000000" transform="translate(111,34)"/>
<path d="M0 0 C0.66 0 1.32 0 2 0 C2 1.98 2 3.96 2 6 C1.34 6 0.68 6 0 6 C0 4.02 0 2.04 0 0 Z " fill="#000000" transform="translate(111,185)"/>
</svg>
