<?xml version="1.0" encoding="UTF-8"?>
<svg version="1.1" xmlns="http://www.w3.org/2000/svg" width="112" height="238">
<path d="M0 0 C7.15068307 5.72054646 11.37769956 12.10227855 12.8125 21.25 C12.91035013 23.84138651 12.96033645 26.40597194 12.95967102 28.99711609 C12.96334771 29.7702075 12.9670244 30.54329892 12.9708125 31.33981735 C12.98181303 33.92666562 12.98568699 36.51347367 12.98950195 39.1003418 C12.99576932 40.95675279 13.00241637 42.81316254 13.00941467 44.66957092 C13.03042416 50.76277803 13.04081387 56.8559853 13.05078125 62.94921875 C13.05482991 65.04934006 13.05894686 67.14946124 13.06313133 69.24958229 C13.08217583 79.11672018 13.09640866 88.98385062 13.1047433 98.85100335 C13.11451457 110.23009299 13.14083441 121.60898806 13.18124419 132.98800915 C13.21142925 141.79074284 13.22621443 150.59342082 13.22952431 159.39620525 C13.23187196 164.65032486 13.24079551 169.90423643 13.26598549 175.1583004 C13.28931313 180.10367339 13.29348054 185.04870202 13.28322411 189.99411583 C13.28272979 191.8040583 13.28901946 193.614018 13.30278015 195.42390823 C13.44683276 215.50205678 13.44683276 215.50205678 6.69921875 223.87109375 C-1.07847853 230.29494674 -7.96753257 233.45180472 -18.1875 233.25 C-25.25847768 232.17967488 -30.5184159 228.57402349 -35.1875 223.25 C-38.84310552 217.58698105 -40.30201588 212.36155856 -40.34571838 205.64385986 C-40.3555072 204.50245041 -40.36529602 203.36104095 -40.37538147 202.18504333 C-40.38401466 200.31309044 -40.38401466 200.31309044 -40.39282227 198.40332031 C-40.40272186 197.08600418 -40.41262146 195.76868805 -40.42282104 194.41145325 C-40.44983376 190.80232042 -40.47086296 187.19317457 -40.49082303 183.58399677 C-40.51270502 179.81099899 -40.54008288 176.03804119 -40.56687927 172.26507568 C-40.61677624 165.12183018 -40.66172618 157.97856245 -40.70490164 150.8352735 C-40.75429962 142.70229823 -40.80920825 134.56936309 -40.86458123 126.43642664 C-40.97835529 109.70765476 -41.08520428 92.97884609 -41.1875 76.25 C-41.70135254 76.57274902 -42.21520508 76.89549805 -42.74462891 77.22802734 C-45.096588 78.7001854 -47.45443944 80.16263686 -49.8125 81.625 C-50.62074219 82.13289063 -51.42898437 82.64078125 -52.26171875 83.1640625 C-60.91430264 88.5103745 -67.97520461 90.24184164 -78.1875 89.25 C-85.79721969 87.16127872 -91.83905004 82.79588912 -96 76.0625 C-99.3732129 69.46890585 -99.95718677 63.28917942 -98.125 56.125 C-93.25889414 42.30181434 -79.609129 34.22279341 -68.32495117 25.85473633 C-63.67377925 22.39792581 -59.12876548 18.83368702 -54.625 15.1875 C-21.24351945 -11.66310872 -21.24351945 -11.66310872 0 0 Z M-43.97265625 14.74609375 C-47.95434781 18.09314286 -52.06542533 21.22498184 -56.25 24.3125 C-62.30522824 28.79779919 -68.23174523 33.41588312 -74.08374023 38.16333008 C-77.25587199 40.7320185 -80.4554127 43.17392828 -83.8125 45.5 C-89.26974448 49.589961 -92.20349826 54.49664069 -93.1875 61.25 C-93.41938859 66.13462093 -92.86871391 70.09927462 -90.1875 74.25 C-86.08499408 78.65671716 -81.64679165 82.76813386 -75.5234375 83.62109375 C-67.65556473 83.79755 -62.82980828 82.33423916 -56.1875 78.25 C-54.66953381 77.33419938 -53.15127786 76.41887897 -51.6328125 75.50390625 C-47.70776658 73.12731935 -43.8023177 70.7208461 -39.90820312 68.29394531 C-38.1875 67.25 -38.1875 67.25 -36.1875 66.25 C-36.18418985 66.95807265 -36.18087971 67.66614531 -36.17746925 68.39567471 C-36.09614313 85.64843388 -36.00401937 102.90110184 -35.89997292 120.15373898 C-35.84991485 128.49708675 -35.80347131 136.84042504 -35.765625 145.18383789 C-35.73261742 152.4584856 -35.69273815 159.73305816 -35.64470994 167.00762278 C-35.61953184 170.85714373 -35.59772524 174.70661539 -35.58415604 178.55619621 C-35.57125638 182.18496218 -35.54911818 185.81355834 -35.52011681 189.44223022 C-35.50682799 191.39781915 -35.50313487 193.35346605 -35.49980164 195.30909729 C-35.39736471 206.15465855 -34.27957341 214.68263313 -27.1875 223.25 C-22.9870165 226.98376311 -17.66042434 227.51174856 -12.1875 227.25 C-4.10555432 225.27050896 1.20533019 221.16075471 5.8125 214.25 C7.00048721 210.68603838 6.96061586 207.45237884 6.95967102 203.74339294 C6.96334771 202.97201038 6.9670244 202.20062781 6.9708125 201.40587002 C6.98185349 198.81280965 6.98569392 196.21978935 6.98950195 193.62670898 C6.99576642 191.77059298 7.00241321 189.91447824 7.00941467 188.05836487 C7.03046405 181.95428339 7.04081968 175.85020165 7.05078125 169.74609375 C7.05482885 167.64411976 7.05894577 165.54214591 7.06313133 163.4401722 C7.082187 153.56234874 7.09641576 143.68453276 7.1047433 133.80669445 C7.1145096 122.41060462 7.14081175 111.01470934 7.18124419 99.61868805 C7.2114308 90.80750218 7.2262147 81.99637199 7.22952431 73.18513542 C7.23187241 67.92427922 7.24080136 62.66363077 7.26598549 57.40283012 C7.28931484 52.44927605 7.29347984 47.49606577 7.28322411 42.54247093 C7.28272977 40.72930506 7.28901979 38.91612199 7.30278015 37.10300827 C7.37960816 26.37516111 6.86312849 17.67513484 1 8.375 C-4.07628877 3.44374805 -9.78452469 1.15497806 -16.8125 0.9375 C-28.39813577 1.20693339 -35.49930746 7.609706 -43.97265625 14.74609375 Z " fill="#000000" transform="translate(99.1875,4.75)"/>
<path d="M0 0 C3.5060303 0.86943897 4.94966563 2.56083702 6.9375 5.48046875 C7.62901325 9.78321784 7.45307405 11.68992187 5.0625 15.35546875 C2.53885348 17.87911527 1.67013343 18.41534578 -1.875 18.73046875 C-5.45404719 18.44975917 -7.20500017 17.60318291 -10.0625 15.48046875 C-11.67838379 12.24870118 -11.63701407 8.97431592 -11.0625 5.48046875 C-8.05360973 0.96713335 -5.26110022 -0.36867558 0 0 Z " fill="#000000" transform="translate(86.0625,16.51953125)"/>
<path d="M0 0 C0.99 0 1.98 0 3 0 C2.67 1.98 2.34 3.96 2 6 C2.99 6.33 3.98 6.66 5 7 C5 7.66 5 8.32 5 9 C6.98 9.66 8.96 10.32 11 11 C10.67 11.66 10.34 12.32 10 13 C8.35369672 12.85957123 6.70795821 12.71250671 5.0625 12.5625 C3.68771484 12.44068359 3.68771484 12.44068359 2.28515625 12.31640625 C0 12 0 12 -1 11 C-1.14475933 7.1638778 -1.17661508 3.67692213 0 0 Z " fill="#000000" transform="translate(20,65)"/>
<path d="M0 0 C0.556875 0.309375 1.11375 0.61875 1.6875 0.9375 C4.22648005 2.1040584 6.20646106 2.79048458 9 3 C11.19038423 1.62831762 11.19038423 1.62831762 13 0 C13.66 0 14.32 0 15 0 C14.52753358 4.25219775 12.22727623 6.37314725 9 9 C6.33057913 8.80894801 5.23557291 8.22530711 3.296875 6.37109375 C2.78640625 5.73300781 2.2759375 5.09492188 1.75 4.4375 C1.22921875 3.79683594 0.7084375 3.15617188 0.171875 2.49609375 C-0.21484375 2.00238281 -0.6015625 1.50867188 -1 1 C-0.67 0.67 -0.34 0.34 0 0 Z " fill="#000000" transform="translate(77,211)"/>
<path d="M0 0 C0 0.99 0 1.98 0 3 C-1.42578125 4.421875 -1.42578125 4.421875 -3.3125 5.75 C-3.92738281 6.19859375 -4.54226562 6.6471875 -5.17578125 7.109375 C-7 8 -7 8 -10 7 C-4.65789474 0 -4.65789474 0 0 0 Z " fill="#000000" transform="translate(41,59)"/>
<path d="M0 0 C-1.48781815 3.78717347 -3.61988409 5.77407001 -7 8 C-7.99 7.67 -8.98 7.34 -10 7 C-10 6.34 -10 5.68 -10 5 C-8.57421875 3.7109375 -8.57421875 3.7109375 -6.6875 2.375 C-6.07261719 1.92898437 -5.45773438 1.48296875 -4.82421875 1.0234375 C-3 0 -3 0 0 0 Z " fill="#000000" transform="translate(57,47)"/>
<path d="M0 0 C0.99 0 1.98 0 3 0 C3 3.63 3 7.26 3 11 C2.01 11 1.02 11 0 11 C0 7.37 0 3.74 0 0 Z " fill="#000000" transform="translate(83,175)"/>
<path d="M0 0 C0.99 0 1.98 0 3 0 C3 3.63 3 7.26 3 11 C2.01 11 1.02 11 0 11 C0 7.37 0 3.74 0 0 Z " fill="#000000" transform="translate(83,117)"/>
<path d="M0 0 C0.99 0 1.98 0 3 0 C3 3.63 3 7.26 3 11 C2.01 11 1.02 11 0 11 C0 7.37 0 3.74 0 0 Z " fill="#000000" transform="translate(83,98)"/>
<path d="M0 0 C0.99 0 1.98 0 3 0 C3 3.63 3 7.26 3 11 C2.01 11 1.02 11 0 11 C0 7.37 0 3.74 0 0 Z " fill="#000000" transform="translate(83,40)"/>
<path d="M0 0 C0.66 0.33 1.32 0.66 2 1 C0.50164772 5.66154042 -2.88463591 6.86610751 -7 9 C-7.33 8.01 -7.66 7.02 -8 6 C-5.36 4.02 -2.72 2.04 0 0 Z " fill="#000000" transform="translate(71,34)"/>
<path d="M0 0 C0.99 0.33 1.98 0.66 3 1 C3 4.3 3 7.6 3 11 C2.01 11 1.02 11 0 11 C0 7.37 0 3.74 0 0 Z " fill="#000000" transform="translate(83,194)"/>
<path d="M0 0 C0.99 0 1.98 0 3 0 C3 3.3 3 6.6 3 10 C2.01 10 1.02 10 0 10 C0 6.7 0 3.4 0 0 Z " fill="#000000" transform="translate(83,156)"/>
<path d="M0 0 C0.99 0 1.98 0 3 0 C3 3.3 3 6.6 3 10 C2.01 10 1.02 10 0 10 C0 6.7 0 3.4 0 0 Z " fill="#000000" transform="translate(83,137)"/>
<path d="M0 0 C0.99 0 1.98 0 3 0 C3 3.3 3 6.6 3 10 C2.01 10 1.02 10 0 10 C0 6.7 0 3.4 0 0 Z " fill="#000000" transform="translate(83,79)"/>
<path d="M0 0 C0.99 0 1.98 0 3 0 C3 3.3 3 6.6 3 10 C2.01 10 1.02 10 0 10 C0 6.7 0 3.4 0 0 Z " fill="#000000" transform="translate(83,60)"/>
</svg>
