<?xml version="1.0" encoding="UTF-8"?>
<svg version="1.1" xmlns="http://www.w3.org/2000/svg" width="135" height="212">
<path d="M0 0 C0.83483414 -0.00817749 1.66966827 -0.01635498 2.52980042 -0.02478027 C5.28385722 -0.04952767 8.03786287 -0.06612259 10.79199219 -0.08056641 C12.2080135 -0.08855192 12.2080135 -0.08855192 13.6526413 -0.09669876 C18.64911587 -0.1233836 23.64556585 -0.14277368 28.64208984 -0.15722656 C32.766339 -0.17056338 36.89009312 -0.19841819 41.01416016 -0.23925781 C46.00612162 -0.28868234 50.99763435 -0.31335924 55.98983002 -0.32045364 C57.88596247 -0.32714733 59.78208564 -0.34232007 61.6780777 -0.36634445 C80.61984672 -0.59267541 80.61984672 -0.59267541 87.58886719 5.19287109 C88.83796875 6.14419922 88.83796875 6.14419922 90.11230469 7.11474609 C94.66691535 11.61170345 97.82302231 15.69936942 98.58886719 22.19287109 C98.35236376 31.0130579 94.26916149 37.34907852 88.31852722 43.56407166 C80.9318041 50.26405211 75.63273987 51.44761958 65.82714844 51.07177734 C64.55534225 51.05904282 63.28353607 51.04630829 61.97319031 51.03318787 C58.62865561 50.9916363 55.28990492 50.91117352 51.94696045 50.81085205 C48.52145766 50.71794493 45.09535106 50.67750407 41.66894531 50.63232422 C34.97381535 50.53357827 28.28212871 50.37850415 21.58886719 50.19287109 C21.58886719 54.48287109 21.58886719 58.77287109 21.58886719 63.19287109 C22.55566406 62.97630859 23.52246094 62.75974609 24.51855469 62.53662109 C42.85013998 58.55426665 58.09658189 60.32518481 74.58886719 70.19287109 C92.32958535 82.25754231 102.66083323 100.75026962 107.40136719 121.38037109 C111.11515009 141.96533918 108.03427637 162.15233564 96.46386719 179.81787109 C83.34432866 198.42571773 63.5156436 207.18681323 41.71386719 211.06787109 C22.32011863 214.11299434 5.5640505 212.73284451 -11.41113281 202.19287109 C-12.16523438 201.74169922 -12.91933594 201.29052734 -13.69628906 200.82568359 C-20.6588017 196.21871262 -23.65909993 189.5992762 -25.78613281 181.69287109 C-26.93711461 175.43994114 -26.56962606 169.64887678 -23.84863281 163.88037109 C-19.32264696 158.89018156 -14.25137104 155.61166119 -7.41113281 155.19287109 C-6.7446875 155.14259766 -6.07824219 155.09232422 -5.39160156 155.04052734 C0.77053579 154.77073149 5.78377525 156.28707855 11.58886719 158.19287109 C23.11662567 161.88122501 36.04474206 165.16951336 47.83886719 160.56787109 C52.67066213 157.90395373 54.74758324 154.72403846 56.48730469 149.48974609 C59.31345954 139.37781591 59.94055494 129.96364171 55.58886719 120.19287109 C51.73895128 113.92026668 46.28752001 110.40043261 39.21777344 108.58349609 C28.48057233 106.98807245 17.11889178 109.9442992 8.07324219 115.82958984 C2.95858866 118.63621575 -3.48578217 118.01979392 -8.98144531 116.46630859 C-16.32086153 113.40614522 -21.23723101 109.42840026 -24.64941406 102.15771484 C-26.37762114 97.69982683 -26.55209104 93.72615822 -26.58813477 88.93676758 C-26.59470596 88.21258133 -26.60127716 87.48839508 -26.60804749 86.74226379 C-26.62772802 84.34949628 -26.63943457 81.95679155 -26.64941406 79.56396484 C-26.65348959 78.74288805 -26.65756512 77.92181126 -26.66176414 77.07585335 C-26.68260777 72.72545755 -26.69691393 68.37509309 -26.70629883 64.0246582 C-26.71732835 59.55507104 -26.75169274 55.0859865 -26.79147053 50.61657619 C-26.81776058 47.15990851 -26.82600183 43.70335804 -26.82958031 40.2465992 C-26.83441844 38.60054208 -26.84595221 36.9544892 -26.8646183 35.30853081 C-26.97769968 24.67155586 -26.41604725 15.39402893 -20.47363281 6.19287109 C-14.34876443 0.25360478 -8.18341166 0.04461349 0 0 Z M-16.66113281 11.50537109 C-20.07957864 16.75512718 -20.66572575 21.53622199 -20.70166016 27.72363281 C-20.70837738 28.45292999 -20.7150946 29.18222717 -20.72201538 29.93362427 C-20.74091876 32.33000617 -20.74491555 34.7261069 -20.74707031 37.12255859 C-20.75350322 38.79875806 -20.76023195 40.47495641 -20.76724243 42.15115356 C-20.77919578 45.65971478 -20.78292523 49.16817768 -20.78173828 52.67675781 C-20.78153512 57.15782826 -20.80884246 61.63826429 -20.8432827 66.11918449 C-20.86559196 69.580036 -20.86957461 73.04073573 -20.86851883 76.50165176 C-20.87086852 78.15296745 -20.87965629 79.80428772 -20.89518356 81.45553207 C-21.28822896 94.58530993 -21.28822896 94.58530993 -14.9637146 105.69161987 C-9.98695072 110.10316033 -5.88982425 111.75088874 0.66308594 111.65380859 C5.35947112 110.91392415 9.30355849 108.84572553 13.51074219 106.70068359 C23.50880036 101.80315764 34.12316522 100.97526919 44.79980469 104.13037109 C52.64697695 107.11977005 57.43725786 111.20727099 61.43652344 118.61865234 C66.47346491 129.87066736 65.17434265 141.67134323 61.58886719 153.19287109 C60.41102623 155.69208917 59.08952182 157.86426907 57.58886719 160.19287109 C57.58886719 160.85287109 57.58886719 161.51287109 57.58886719 162.19287109 C41.51291289 170.37833406 27.33179361 169.32050718 10.58886719 164.19287109 C8.96028043 163.61962774 7.33452667 163.03815727 5.71386719 162.44287109 C-0.18725837 160.39324352 -6.41568034 160.15991735 -12.28613281 162.44287109 C-17.35467639 165.18093067 -17.35467639 165.18093067 -19.97753906 170.09912109 C-21.2190539 177.52207295 -19.09743072 183.75282337 -15.84863281 190.38037109 C-8.60863726 198.73421212 3.50805253 205.41430077 14.65332031 206.36987305 C40.18621544 207.07568325 65.03762969 202.56965796 84.26855469 184.54443359 C96.77868943 171.86581219 102.88959202 155.97936474 103.08886719 138.25537109 C102.85272623 117.17979105 94.68067232 97.58838762 80.21386719 82.31787109 C70.98919739 73.5896679 59.42917557 67.1267117 46.58886719 66.19287109 C45.90050781 66.12970703 45.21214844 66.06654297 44.50292969 66.00146484 C34.65079903 65.49412921 24.64625855 68.56991455 15.58886719 72.19287109 C15.58886719 62.95287109 15.58886719 53.71287109 15.58886719 44.19287109 C19.936875 44.30888672 24.28488281 44.42490234 28.76464844 44.54443359 C32.25932722 44.6088667 35.75383535 44.66304838 39.24877167 44.71037292 C42.92367686 44.76291675 46.59622881 44.83294684 50.26977539 44.94726562 C53.81672653 45.05693812 57.36141587 45.11591433 60.90993309 45.14164352 C62.90395774 45.16877782 64.89708677 45.24668756 66.88972473 45.32583618 C74.24723996 45.33031615 78.25288989 44.35332225 83.83178711 39.39355469 C88.88638936 34.25772216 92.58886719 29.93827006 92.58886719 22.56787109 C90.38702419 15.13665097 85.82620944 11.33759852 79.58886719 7.19287109 C76.42915875 5.61301688 73.0325546 6.03666374 69.5625 6.03173828 C68.31830795 6.02429092 68.31830795 6.02429092 67.04898071 6.01669312 C64.29664284 6.00205285 61.54436265 5.9952656 58.79199219 5.98974609 C56.88108315 5.98399517 54.97017413 5.97823743 53.05926514 5.97247314 C49.04764537 5.96195716 45.03604568 5.95611874 41.02441406 5.95263672 C35.88851098 5.94715766 30.75287378 5.92314474 25.61705399 5.89466476 C21.66733024 5.87602125 17.71767022 5.87083182 13.76790619 5.86930084 C11.8749115 5.86627651 9.98191787 5.85825538 8.08896637 5.84511566 C5.43671098 5.82802307 2.78510092 5.82994347 0.1328125 5.83642578 C-0.64663727 5.827211 -1.42608704 5.81799622 -2.22915649 5.8085022 C-8.28828968 5.85479218 -12.41031021 7.13647008 -16.66113281 11.50537109 Z " fill="#000000" transform="translate(26.4111328125,-0.19287109375)"/>
<path d="M0 0 C4.63235294 2.26470588 4.63235294 2.26470588 6 5 C6.68571429 11.97142857 6.68571429 11.97142857 4 16 C0.66826304 18.22115797 -1.13861334 18.74133667 -5.0625 18.49609375 C-8.40259675 17.64086737 -9.99970386 15.68789793 -12 13 C-12 12.01 -12 11.02 -12 10 C-15.63 10 -19.26 10 -23 10 C-23 9.01 -23 8.02 -23 7 C-22.25234375 6.98582031 -21.5046875 6.97164062 -20.734375 6.95703125 C-14.45582172 6.83974293 -14.45582172 6.83974293 -9.4375 3.5 C-8.963125 2.675 -8.48875 1.85 -8 1 C-5.17998673 -0.41000664 -3.12992745 -0.24548451 0 0 Z " fill="#000000" transform="translate(103,15)"/>
<path d="M0 0 C3.5060303 0.86943897 4.94966563 2.56083702 6.9375 5.48046875 C7.62901325 9.78321784 7.45307405 11.68992187 5.0625 15.35546875 C2.53885348 17.87911527 1.67013343 18.41534578 -1.875 18.73046875 C-5.45404719 18.44975917 -7.20500017 17.60318291 -10.0625 15.48046875 C-11.67838379 12.24870118 -11.63701407 8.97431592 -11.0625 5.48046875 C-8.05360973 0.96713335 -5.26110022 -0.36867558 0 0 Z " fill="#000000" transform="translate(28.0625,82.51953125)"/>
<path d="M0 0 C3.5060303 0.86943897 4.94966563 2.56083702 6.9375 5.48046875 C7.62901325 9.78321784 7.45307405 11.68992187 5.0625 15.35546875 C2.53885348 17.87911527 1.67013343 18.41534578 -1.875 18.73046875 C-5.45404719 18.44975917 -7.20500017 17.60318291 -10.0625 15.48046875 C-11.67838379 12.24870118 -11.63701407 8.97431592 -11.0625 5.48046875 C-8.05360973 0.96713335 -5.26110022 -0.36867558 0 0 Z " fill="#000000" transform="translate(28.0625,14.51953125)"/>
<path d="M0 0 C-0.57344937 2.86724686 -0.8614515 3.8614515 -3 6 C-3 6.99 -3 7.98 -3 9 C-3.66 9 -4.32 9 -5 9 C-4.01 10.485 -4.01 10.485 -3 12 C-3.375 14.1875 -3.375 14.1875 -4 16 C-7.05138722 13.23922108 -9.86690113 10.19613139 -10.125 5.9375 C-8.15254734 2.5404982 -3.96262316 0 0 0 Z " fill="#000000" transform="translate(35,176)"/>
<path d="M0 0 C0.66 0.33 1.32 0.66 2 1 C0.54875366 4.82601307 -1.35774704 6.22329124 -5 8 C-5.99 8 -6.98 8 -8 8 C-8 7.01 -8 6.02 -8 5 C-6.3203125 3.578125 -6.3203125 3.578125 -4.125 2.25 C-3.40570313 1.80140625 -2.68640625 1.3528125 -1.9453125 0.890625 C-1.30335937 0.59671875 -0.66140625 0.3028125 0 0 Z " fill="#000000" transform="translate(89,173)"/>
<path d="M0 0 C2.33524782 2.25740623 4.18705073 4.2805761 6 7 C5.625 9.1875 5.625 9.1875 5 11 C2.04070881 8.24479785 -0.03681826 5.53372712 -2 2 C-1.34 1.34 -0.68 0.68 0 0 Z " fill="#000000" transform="translate(97,99)"/>
<path d="M0 0 C0 0.99 0 1.98 0 3 C-3.63 3.66 -7.26 4.32 -11 5 C-11 4.01 -11 3.02 -11 2 C-7.17679443 0.57741188 -4.08718695 -0.24042276 0 0 Z " fill="#000000" transform="translate(51,84)"/>
<path d="M0 0 C3.63 0 7.26 0 11 0 C11 0.99 11 1.98 11 3 C7.37 3 3.74 3 0 3 C0 2.01 0 1.02 0 0 Z " fill="#000000" transform="translate(41,184)"/>
<path d="M0 0 C0 0.66 0 1.32 0 2 C-7.625 4 -7.625 4 -11 4 C-11 3.01 -11 2.02 -11 1 C-3.375 -1.125 -3.375 -1.125 0 0 Z " fill="#000000" transform="translate(73,183)"/>
<path d="M0 0 C0.99 0.33 1.98 0.66 3 1 C0.525 5.455 0.525 5.455 -2 10 C-2.99 10 -3.98 10 -5 10 C-4.38545304 6.00544473 -2.29353263 3.25533664 0 0 Z " fill="#000000" transform="translate(102,158)"/>
<path d="M0 0 C0.99 0.33 1.98 0.66 3 1 C2.88590407 2.45922693 2.75834456 3.91740598 2.625 5.375 C2.55539063 6.18710938 2.48578125 6.99921875 2.4140625 7.8359375 C2 10 2 10 0 12 C-0.66 11.34 -1.32 10.68 -2 10 C-1.7578125 7.6171875 -1.7578125 7.6171875 -1.125 4.875 C-0.92132813 3.96492187 -0.71765625 3.05484375 -0.5078125 2.1171875 C-0.34023437 1.41851562 -0.17265625 0.71984375 0 0 Z " fill="#000000" transform="translate(107,138)"/>
<path d="M0 0 C4.38462134 0.50109958 6.8000997 1.98295115 10 5 C10 5.66 10 6.32 10 7 C6.33118845 6.29445932 3.29549466 4.72264494 0 3 C0 2.01 0 1.02 0 0 Z " fill="#000000" transform="translate(80,87)"/>
<path d="M0 0 C0.99 0 1.98 0 3 0 C3.66 3.63 4.32 7.26 5 11 C4.01 11 3.02 11 2 11 C0.80712589 7.12315913 0 4.08378077 0 0 Z " fill="#000000" transform="translate(105,118)"/>
<path d="M0 0 C3.3 0 6.6 0 10 0 C10 0.99 10 1.98 10 3 C6.37 3 2.74 3 -1 3 C-0.67 2.01 -0.34 1.02 0 0 Z " fill="#000000" transform="translate(61,22)"/>
<path d="M0 0 C0.99 0 1.98 0 3 0 C3 3.3 3 6.6 3 10 C2.01 10 1.02 10 0 10 C0 6.7 0 3.4 0 0 Z " fill="#000000" transform="translate(25,72)"/>
<path d="M0 0 C0.99 0 1.98 0 3 0 C3 3.3 3 6.6 3 10 C2.01 10 1.02 10 0 10 C0 6.7 0 3.4 0 0 Z " fill="#000000" transform="translate(25,54)"/>
<path d="M0 0 C3.3 0 6.6 0 10 0 C10 0.99 10 1.98 10 3 C6.7 3 3.4 3 0 3 C0 2.01 0 1.02 0 0 Z " fill="#000000" transform="translate(41,22)"/>
<path d="M0 0 C3.63 0 7.26 0 11 0 C11 0.99 11 1.98 11 3 C7.37 2.67 3.74 2.34 0 2 C0 1.34 0 0.68 0 0 Z " fill="#000000" transform="translate(60,83)"/>
<path d="M0 0 C0.99 0 1.98 0 3 0 C3 2.97 3 5.94 3 9 C2.01 9 1.02 9 0 9 C0 6.03 0 3.06 0 0 Z " fill="#000000" transform="translate(25,37)"/>
</svg>
