<?xml version="1.0" encoding="UTF-8"?>
<svg version="1.1" xmlns="http://www.w3.org/2000/svg" width="481" height="218">
<path d="M0 0 C1.41712548 1.20455666 2.81304565 2.43447301 4.1875 3.6875 C5.30898438 4.67169922 5.30898438 4.67169922 6.453125 5.67578125 C20.62560876 18.86004761 27.76947185 37.42370134 28.52172852 56.5456543 C28.72696394 67.01266092 26.99852215 76.46458993 19.75 84.3828125 C16.5188275 87.08084154 13.59099401 87.94601523 9.4375 88.3125 C8.23867188 88.42464844 8.23867188 88.42464844 7.015625 88.5390625 C6.11070312 88.61253906 6.11070312 88.61253906 5.1875 88.6875 C6.0125 89.161875 6.8375 89.63625 7.6875 90.125 C15.40731685 95.33223495 22.12095121 103.89843756 25.1875 112.6875 C24.85197458 122.61130964 14.48773751 130.86551411 7.78515625 137.40234375 C-8.28433192 151.53866041 -27.21347297 155.89166016 -48.06445312 154.89892578 C-55.18823553 154.35084515 -61.98811216 152.74998868 -68.8125 150.6875 C-69.85229004 150.37401611 -69.85229004 150.37401611 -70.91308594 150.05419922 C-93.10429439 143.09664561 -111.08073774 128.4726337 -122.0625 107.875 C-132.328288 86.39237007 -132.01639563 62.84912875 -124.625 40.625 C-117.29914455 21.49516974 -105.61588492 3.11654528 -86.25 -5.625 C-59.71605174 -15.03052963 -23.67253151 -17.65200879 0 0 Z M-102.36328125 13.796875 C-117.8803482 32.11047873 -125.63214614 55.49689846 -124.03125 79.42529297 C-122.26403904 97.70093668 -113.91042379 113.11117494 -100.8125 125.6875 C-100.14476562 126.35136719 -99.47703125 127.01523438 -98.7890625 127.69921875 C-81.34536917 144.0756819 -57.87117753 149.51124939 -34.59765625 149.0625 C-16.23585331 148.22118028 -1.31084919 138.57203414 11.1875 125.6875 C13.9879255 122.44626679 16.64527492 119.13445812 19.1875 115.6875 C15.5113994 107.16759626 10.8907919 98.03914595 2.1875 93.6875 C-5.3268455 92.69581087 -11.26383853 92.58086165 -17.4375 97.3125 C-18.32050781 98.04082031 -19.20351563 98.76914063 -20.11328125 99.51953125 C-29.69946361 107.21899755 -42.27966156 111.2591977 -54.5625 110.6875 C-60.27809093 109.93611508 -64.86340054 107.51933766 -69.8125 104.6875 C-70.52535156 104.38714844 -71.23820312 104.08679688 -71.97265625 103.77734375 C-74.30971618 102.39297067 -74.6818338 101.13064946 -75.8125 98.6875 C-76.12977051 98.05295898 -76.44704102 97.41841797 -76.77392578 96.76464844 C-79.12011719 92.07226563 -81.46630859 87.37988281 -83.8125 82.6875 C-82.06602676 82.69749275 -82.06602676 82.69749275 -80.28427124 82.70768738 C-69.3079258 82.76852106 -58.3316146 82.81348355 -47.35513878 82.84293652 C-41.71211085 82.85858764 -36.06921909 82.87981608 -30.42626953 82.91381836 C-24.97979012 82.94643115 -19.53344163 82.96435718 -14.0868721 82.97213173 C-12.00965947 82.97767176 -9.93245394 82.98849007 -7.85529709 83.00469017 C-4.94422712 83.0264897 -2.03369715 83.02946584 0.87744141 83.02807617 C2.16353806 83.04425491 2.16353806 83.04425491 3.47561646 83.0607605 C8.45852816 83.03504723 11.86721946 82.44888651 16.1875 79.6875 C17.89556102 77.62413205 17.89556102 77.62413205 19 75.25 C19.39832031 74.48816406 19.79664063 73.72632813 20.20703125 72.94140625 C25.56739557 60.61897511 22.08694685 44.66081513 17.37402344 32.60693359 C10.41855261 16.08095058 -0.38159202 5.19885433 -16.8125 -2.125 C-43.54762498 -12.47847515 -82.28859465 -7.25475867 -102.36328125 13.796875 Z M-75.8125 87.6875 C-71.62301243 96.06647513 -68.14903388 101.37518217 -59.25 104.625 C-47.3425456 107.89092872 -36.622727 103.02732015 -26.140625 97.6015625 C-21.69656624 95.04570711 -17.56063666 92.19765973 -13.8125 88.6875 C-13.8125 88.3575 -13.8125 88.0275 -13.8125 87.6875 C-34.2725 87.6875 -54.7325 87.6875 -75.8125 87.6875 Z " fill="#000000" transform="translate(297.8125,63.3125)"/>
<path d="M0 0 C17.985 -0.0825 35.97 -0.165 54.5 -0.25 C60.14931641 -0.28641602 65.79863281 -0.32283203 71.61914062 -0.36035156 C78.59277344 -0.37841797 78.59277344 -0.37841797 81.87194824 -0.3817749 C84.13044399 -0.38786079 86.38892789 -0.40181 88.64733887 -0.42230225 C122.67904545 -0.71528264 122.67904545 -0.71528264 136 9 C136.83015625 9.60328125 137.6603125 10.2065625 138.515625 10.828125 C146.72864546 17.46739304 152.77385182 27.33054446 154.7890625 37.83203125 C156.34325333 53.80565921 153.69610943 69.21405273 143.59765625 82.0546875 C139.38984225 86.82565255 135.36569517 90.63084256 130 94 C132.16020484 95.6480436 134.33988214 97.23155112 136.5859375 98.76171875 C148.6998448 107.12608331 155.49636905 117.81639627 158.49609375 132.30078125 C160.71176849 148.56623848 158.97251662 161.60257868 149 175 C139.29088056 186.97102418 122.12359734 195.98740887 107 199 C103.45876996 199.27167185 99.93317721 199.25319354 96.38305664 199.22705078 C95.32160903 199.22729185 94.26016142 199.22753292 93.16654873 199.2277813 C89.74766449 199.22629446 86.32900123 199.21109045 82.91015625 199.1953125 C80.79260361 199.19237012 78.67504951 199.19033088 76.55749512 199.18920898 C68.72580782 199.1787443 60.89415172 199.15082177 53.0625 199.125 C35.551875 199.08375 18.04125 199.0425 0 199 C0 133.33 0 67.66 0 0 Z M6 6 C6 67.71 6 129.42 6 193 C22.21125 193.103125 38.4225 193.20625 55.125 193.3125 C60.21824707 193.35802002 65.31149414 193.40354004 70.55908203 193.45043945 C75.17856522 193.46717546 75.17856522 193.46717546 79.79806519 193.47721863 C81.83417242 193.48482897 83.87025904 193.50227215 85.90621948 193.52787781 C98.32965806 193.67612958 108.58644489 193.40296885 120 188 C120.94884064 187.57975052 121.89768127 187.15950104 122.87527466 186.72651672 C134.70775533 181.37876528 146.78846614 171.36147296 151.875 159.125 C155.54680756 146.5140895 153.6908589 130.87062459 147.8125 119.3125 C142.75596381 110.99563003 136.87325708 105.05342646 128 101 C127.0925 100.566875 126.185 100.13375 125.25 99.6875 C122.73196108 98.91809922 120.6184619 98.85037361 118 99 C118 97.02 118 95.04 118 93 C118.75023438 92.68289062 119.50046875 92.36578125 120.2734375 92.0390625 C134.01704919 85.77308336 141.44522472 76.71689405 147 63 C150.74299639 52.67738664 150.11929065 40.8347392 146.25390625 30.6796875 C144.33513693 26.57913999 142.08031606 23.30823182 139 20 C138.36320313 19.31035156 137.72640625 18.62070312 137.0703125 17.91015625 C129.2277045 10.19682201 118.40789259 5.8666573 107.3745575 5.87974548 C106.47763782 5.87836799 105.58071814 5.87699049 104.65661907 5.87557125 C103.6815632 5.87916936 102.70650732 5.88276747 101.7019043 5.88647461 C100.65060994 5.88635407 99.59931559 5.88623354 98.51616383 5.88610935 C95.11882715 5.88685474 91.72154559 5.89446597 88.32421875 5.90234375 C86.22448757 5.90381433 84.12475603 5.90483433 82.02502441 5.90539551 C74.24584401 5.91063497 66.46667146 5.92459619 58.6875 5.9375 C41.300625 5.958125 23.91375 5.97875 6 6 Z " fill="#000000" transform="translate(0,19)"/>
<path d="M0 0 C2.86621012 2.86621012 2.29945412 5.71825791 2.30107117 9.55839539 C2.30913011 10.34737443 2.31718905 11.13635348 2.3254922 11.94924098 C2.3499679 14.60769852 2.35994947 17.26601163 2.36987305 19.92456055 C2.3840349 21.8248093 2.39895036 23.72505256 2.41456604 25.62528992 C2.4618775 31.8790531 2.48750236 38.13283038 2.51171875 44.38671875 C2.52112431 46.53797761 2.53061871 48.68923608 2.54020119 50.84049416 C2.5787075 59.78862908 2.61192021 68.73675447 2.63057232 77.68495464 C2.65738137 90.51638539 2.71492587 103.34680776 2.81633729 116.17787331 C2.88517415 125.195362 2.91953449 134.2125825 2.92813712 143.2303279 C2.93414491 148.61832876 2.9551646 154.00529323 3.01270103 159.39301109 C3.06602861 164.46348288 3.07662365 169.53226608 3.05455589 174.60295296 C3.0538391 176.46257898 3.06849772 178.32228498 3.09976578 180.18164825 C3.322606 194.20731768 3.322606 194.20731768 0.07074928 198.61493874 C-2.22328852 200.44846018 -4.35175836 201.74745621 -7 203 C-7.7366303 203.41401912 -8.47326059 203.82803823 -9.23221302 204.25460339 C-16.47434247 208.30229829 -24.26982453 210.44396766 -32.44921875 208.3828125 C-39.32191309 206.00420772 -45.66361187 201.67277627 -49 195 C-49.11501927 192.48465945 -49.1698511 189.99592801 -49.18081665 187.47956848 C-49.18802117 186.69467299 -49.19522568 185.90977749 -49.20264852 185.10109729 C-49.22546918 182.45649151 -49.24097187 179.81189516 -49.25634766 177.16723633 C-49.27079145 175.27684293 -49.28554902 173.38645191 -49.30059814 171.49606323 C-49.43091196 154.23312304 -49.49673728 136.96953197 -49.54844093 119.70619678 C-49.58736605 106.94136424 -49.65574325 94.17741298 -49.76298869 81.4129675 C-49.83582205 72.44220554 -49.87427267 63.47168477 -49.88746679 54.50063914 C-49.89633665 49.14055275 -49.92062774 43.78155549 -49.98213577 38.42179298 C-50.03936375 33.37761883 -50.05406031 28.33509577 -50.03626251 23.2906456 C-50.03714122 21.44068084 -50.05341041 19.59064878 -50.08630753 17.74097633 C-50.32158108 3.78669002 -50.32158108 3.78669002 -47.05854416 -0.62471962 C-44.76619108 -2.46038796 -42.65826331 -3.76866935 -40 -5 C-39.35197229 -5.33695483 -38.70394459 -5.67390966 -38.03627968 -6.02107525 C-24.48397628 -12.49970648 -11.38315309 -8.63964473 0 0 Z M-43 5 C-43.50589733 7.72857092 -43.68160092 9.84279025 -43.64164734 12.57112122 C-43.65015286 13.3373078 -43.65865838 14.10349438 -43.66742164 14.89289874 C-43.68972346 17.4626759 -43.67624581 20.03100929 -43.6628418 22.60083008 C-43.67125339 24.44226622 -43.6817778 26.28369376 -43.69425964 28.12510681 C-43.72136026 33.12946473 -43.71659239 38.13332516 -43.70455909 43.13772416 C-43.69743579 47.31513509 -43.70592188 51.49245353 -43.71446449 55.6698572 C-43.7344338 65.52648984 -43.72882973 75.38288005 -43.70678711 85.23950195 C-43.68443678 95.40640833 -43.702002 105.57267932 -43.73983639 115.73952562 C-43.77107806 124.46835507 -43.77898346 133.19698791 -43.76788265 141.92586631 C-43.76139551 147.13915288 -43.76339775 152.352073 -43.78720665 157.56531715 C-43.80846372 162.46984479 -43.80047425 167.3734771 -43.77011299 172.27794838 C-43.76378655 174.07623163 -43.76764413 175.87458442 -43.78252411 177.67281723 C-44.27894079 188.21774121 -44.27894079 188.21774121 -40.16731262 197.5032196 C-36.24234488 201.08006692 -31.98793203 202.73239377 -26.75 203.4375 C-21.46335324 202.82072455 -16.74002089 201.43093617 -12 199 C-11.26588457 198.65172685 -10.53176914 198.30345369 -9.77540779 197.94462681 C-6.87211938 196.21490046 -5.05465876 194.70411863 -3 192 C-1.61242306 186.06501655 -1.76788732 180.20255306 -1.83544922 174.13452148 C-1.82324625 172.30085438 -1.80721727 170.46720935 -1.78765869 168.63360596 C-1.74668663 163.66421589 -1.76250894 158.69651042 -1.79107046 153.72709155 C-1.81388356 148.52350554 -1.79271743 143.32006212 -1.77859497 138.11647034 C-1.76223011 129.37954853 -1.78377644 120.64331188 -1.82666016 111.90649414 C-1.87565578 101.80791147 -1.85976308 91.71096366 -1.81022251 81.6124205 C-1.7693722 72.93780513 -1.7636205 64.26368172 -1.78717053 55.58900124 C-1.8011959 50.40974856 -1.80309038 45.23126427 -1.77334213 40.05206108 C-1.74732839 35.18315011 -1.7653958 30.31634581 -1.81739044 25.44766235 C-1.82928349 23.6618862 -1.82588406 21.87593248 -1.80602646 20.09022713 C-1.35830248 10.77189853 -1.35830248 10.77189853 -4.97784805 2.62645149 C-7.28489302 1.04875718 -9.38735429 -0.028822 -12 -1 C-12.969375 -1.45375 -13.93875 -1.9075 -14.9375 -2.375 C-25.18766742 -4.4668709 -35.3949841 -2.60264763 -43 5 Z " fill="#000000" transform="translate(479,9)"/>
<path d="M0 0 C2.86621012 2.86621012 2.29945412 5.71825791 2.30107117 9.55839539 C2.30913011 10.34737443 2.31718905 11.13635348 2.3254922 11.94924098 C2.3499679 14.60769852 2.35994947 17.26601163 2.36987305 19.92456055 C2.3840349 21.8248093 2.39895036 23.72505256 2.41456604 25.62528992 C2.4618775 31.8790531 2.48750236 38.13283038 2.51171875 44.38671875 C2.52112431 46.53797761 2.53061871 48.68923608 2.54020119 50.84049416 C2.5787075 59.78862908 2.61192021 68.73675447 2.63057232 77.68495464 C2.65738137 90.51638539 2.71492587 103.34680776 2.81633729 116.17787331 C2.88517415 125.195362 2.91953449 134.2125825 2.92813712 143.2303279 C2.93414491 148.61832876 2.9551646 154.00529323 3.01270103 159.39301109 C3.06602861 164.46348288 3.07662365 169.53226608 3.05455589 174.60295296 C3.0538391 176.46257898 3.06849772 178.32228498 3.09976578 180.18164825 C3.322606 194.20731768 3.322606 194.20731768 0.07074928 198.61493874 C-2.22328852 200.44846018 -4.35175836 201.74745621 -7 203 C-7.7366303 203.41401912 -8.47326059 203.82803823 -9.23221302 204.25460339 C-16.47434247 208.30229829 -24.26982453 210.44396766 -32.44921875 208.3828125 C-39.32191309 206.00420772 -45.66361187 201.67277627 -49 195 C-49.11501927 192.48465945 -49.1698511 189.99592801 -49.18081665 187.47956848 C-49.18802117 186.69467299 -49.19522568 185.90977749 -49.20264852 185.10109729 C-49.22546918 182.45649151 -49.24097187 179.81189516 -49.25634766 177.16723633 C-49.27079145 175.27684293 -49.28554902 173.38645191 -49.30059814 171.49606323 C-49.43091196 154.23312304 -49.49673728 136.96953197 -49.54844093 119.70619678 C-49.58736605 106.94136424 -49.65574325 94.17741298 -49.76298869 81.4129675 C-49.83582205 72.44220554 -49.87427267 63.47168477 -49.88746679 54.50063914 C-49.89633665 49.14055275 -49.92062774 43.78155549 -49.98213577 38.42179298 C-50.03936375 33.37761883 -50.05406031 28.33509577 -50.03626251 23.2906456 C-50.03714122 21.44068084 -50.05341041 19.59064878 -50.08630753 17.74097633 C-50.32158108 3.78669002 -50.32158108 3.78669002 -47.05854416 -0.62471962 C-44.76619108 -2.46038796 -42.65826331 -3.76866935 -40 -5 C-39.35197229 -5.33695483 -38.70394459 -5.67390966 -38.03627968 -6.02107525 C-24.48397628 -12.49970648 -11.38315309 -8.63964473 0 0 Z M-43 5 C-43.50589733 7.72857092 -43.68160092 9.84279025 -43.64164734 12.57112122 C-43.65015286 13.3373078 -43.65865838 14.10349438 -43.66742164 14.89289874 C-43.68972346 17.4626759 -43.67624581 20.03100929 -43.6628418 22.60083008 C-43.67125339 24.44226622 -43.6817778 26.28369376 -43.69425964 28.12510681 C-43.72136026 33.12946473 -43.71659239 38.13332516 -43.70455909 43.13772416 C-43.69743579 47.31513509 -43.70592188 51.49245353 -43.71446449 55.6698572 C-43.7344338 65.52648984 -43.72882973 75.38288005 -43.70678711 85.23950195 C-43.68443678 95.40640833 -43.702002 105.57267932 -43.73983639 115.73952562 C-43.77107806 124.46835507 -43.77898346 133.19698791 -43.76788265 141.92586631 C-43.76139551 147.13915288 -43.76339775 152.352073 -43.78720665 157.56531715 C-43.80846372 162.46984479 -43.80047425 167.3734771 -43.77011299 172.27794838 C-43.76378655 174.07623163 -43.76764413 175.87458442 -43.78252411 177.67281723 C-44.27894079 188.21774121 -44.27894079 188.21774121 -40.16731262 197.5032196 C-36.24234488 201.08006692 -31.98793203 202.73239377 -26.75 203.4375 C-21.46335324 202.82072455 -16.74002089 201.43093617 -12 199 C-11.26588457 198.65172685 -10.53176914 198.30345369 -9.77540779 197.94462681 C-6.87211938 196.21490046 -5.05465876 194.70411863 -3 192 C-1.61242306 186.06501655 -1.76788732 180.20255306 -1.83544922 174.13452148 C-1.82324625 172.30085438 -1.80721727 170.46720935 -1.78765869 168.63360596 C-1.74668663 163.66421589 -1.76250894 158.69651042 -1.79107046 153.72709155 C-1.81388356 148.52350554 -1.79271743 143.32006212 -1.77859497 138.11647034 C-1.76223011 129.37954853 -1.78377644 120.64331188 -1.82666016 111.90649414 C-1.87565578 101.80791147 -1.85976308 91.71096366 -1.81022251 81.6124205 C-1.7693722 72.93780513 -1.7636205 64.26368172 -1.78717053 55.58900124 C-1.8011959 50.40974856 -1.80309038 45.23126427 -1.77334213 40.05206108 C-1.74732839 35.18315011 -1.7653958 30.31634581 -1.81739044 25.44766235 C-1.82928349 23.6618862 -1.82588406 21.87593248 -1.80602646 20.09022713 C-1.35830248 10.77189853 -1.35830248 10.77189853 -4.97784805 2.62645149 C-7.28489302 1.04875718 -9.38735429 -0.028822 -12 -1 C-12.969375 -1.45375 -13.93875 -1.9075 -14.9375 -2.375 C-25.18766742 -4.4668709 -35.3949841 -2.60264763 -43 5 Z " fill="#000000" transform="translate(400,9)"/>
<path d="M0 0 C7.899375 -0.144375 15.79875 -0.28875 23.9375 -0.4375 C26.4137085 -0.50122803 28.88991699 -0.56495605 31.44116211 -0.63061523 C33.42819574 -0.65108057 35.41525896 -0.66891313 37.40234375 -0.68359375 C38.92027527 -0.7373114 38.92027527 -0.7373114 40.46887207 -0.79211426 C47.25938187 -0.79789482 50.9547857 0.65108331 56.10328674 5.09605408 C61.76478165 10.77913775 65.54330347 16.15901682 66.3125 24.3125 C65.44032068 34.60421603 60.70211078 41.80675694 53.08081055 48.60327148 C48.21153932 52.01472222 43.35575072 51.63237544 37.59765625 51.48828125 C36.64145386 51.48324585 35.68525146 51.47821045 34.70007324 51.47302246 C31.1539072 51.44701078 27.60817111 51.37720412 24.0625 51.3125 C16.121875 51.209375 8.18125 51.10625 0 51 C0 34.17 0 17.34 0 0 Z M5 6 C5 19.2 5 32.4 5 46 C11.579375 46.165 18.15875 46.33 24.9375 46.5 C26.99605225 46.57283203 29.05460449 46.64566406 31.17553711 46.72070312 C42.16587042 47.19058415 42.16587042 47.19058415 51.625 42.28515625 C56.30625544 37.07008429 59.5712805 31.21539628 60.5 24.25 C59.38326626 16.99123069 55.32991379 12.70001489 50 8 C46.90944045 5.93962697 46.29073838 5.75200758 42.80395508 5.77294922 C41.54298759 5.77317581 41.54298759 5.77317581 40.25654602 5.77340698 C38.90172371 5.78889084 38.90172371 5.78889084 37.51953125 5.8046875 C36.59154221 5.8075174 35.66355316 5.81034729 34.70744324 5.81326294 C31.74233121 5.82446164 28.77752079 5.84956565 25.8125 5.875 C23.80273874 5.8850302 21.79297274 5.89415598 19.78320312 5.90234375 C14.85525895 5.92269874 9.92796725 5.961848 5 6 Z " fill="#000000" transform="translate(45,128)"/>
<path d="M0 0 C7.05375 -0.165 14.1075 -0.33 21.375 -0.5 C23.58106934 -0.57283203 25.78713867 -0.64566406 28.06005859 -0.72070312 C44.08701982 -1.03040588 44.08701982 -1.03040588 50.19140625 3.73046875 C56.25798692 9.79275348 61.07815583 16.4427621 61.3125 25.1875 C61.26124801 30.73003712 60.02261762 34.40814885 57 39 C56.443125 39.86625 55.88625 40.7325 55.3125 41.625 C50.66091911 46.40229929 45.78112864 50.26883604 38.93920898 50.68115234 C37.12456027 50.67967762 35.30969784 50.64751971 33.49609375 50.5859375 C32.64019653 50.57989502 31.78429932 50.57385254 30.90246582 50.56762695 C27.74697686 50.5365577 24.59218293 50.45279142 21.4375 50.375 C10.8259375 50.189375 10.8259375 50.189375 0 50 C0 33.5 0 17 0 0 Z M5 6 C5 18.54 5 31.08 5 44 C11.084375 44.165 17.16875 44.33 23.4375 44.5 C26.29039673 44.60924805 26.29039673 44.60924805 29.20092773 44.72070312 C39.67055996 45.09704146 39.67055996 45.09704146 48.59375 40.15234375 C53.22648043 35.01577449 55.73590555 30.36944998 55.4765625 23.3671875 C54.13296598 16.69325725 49.07763349 11.56305199 44.03160095 7.29698181 C40.53965173 5.06770808 37.25925794 5.2516864 33.22265625 5.4140625 C32.50235229 5.42010498 31.78204834 5.42614746 31.03991699 5.43237305 C28.38018481 5.46348103 25.72127751 5.54724925 23.0625 5.625 C14.1215625 5.810625 14.1215625 5.810625 5 6 Z " fill="#000000" transform="translate(45,53)"/>
<path d="M0 0 C0.67289062 0.4125 1.34578125 0.825 2.0390625 1.25 C11.7533166 7.85119197 16.18052317 16.39715098 21 27 C-4.08 27 -29.16 27 -55 27 C-51.1268339 15.38050171 -46.76279518 5.8063492 -35.6640625 -0.28125 C-24.64788878 -5.40505173 -10.57274497 -6.68632093 0 0 Z M-41 11 C-44.97006415 16.14418762 -44.97006415 16.14418762 -47 22 C-27.86 22 -8.72 22 11 22 C7.67286325 13.68215813 1.7282876 7.81685219 -5.9375 3.25 C-17.42671113 -1.28060395 -32.64082384 2.05762551 -41 11 Z " fill="#000000" transform="translate(269,95)"/>
<path d="M0 0 C3.4939071 2.50844613 3.93432573 3.73730292 5 8 C8.3 8 11.6 8 15 8 C15 8.99 15 9.98 15 11 C14.24074219 11.02578125 13.48148438 11.0515625 12.69921875 11.078125 C11.70535156 11.13484375 10.71148437 11.1915625 9.6875 11.25 C8.70136719 11.29640625 7.71523438 11.3428125 6.69921875 11.390625 C3.35575833 12.14544385 2.8610922 13.23786028 1 16 C-2.97344161 17.10373378 -5.08999772 17.41543583 -8.875 15.6875 C-11 14 -11 14 -12 12 C-12.56872038 4.9478673 -12.56872038 4.9478673 -10.5 1.5 C-6.98210132 -0.61073921 -4.00324076 -0.82202069 0 0 Z " fill="#000000" transform="translate(28,33)"/>
<path d="M0 0 C1.9375 1.0625 1.9375 1.0625 3 3 C3.36528977 6.4093712 3.6140629 8.88023824 1.9375 11.9375 C-1.11976176 13.6140629 -3.5906288 13.36528977 -7 13 C-8.9375 11.9375 -8.9375 11.9375 -10 10 C-10.36528977 6.5906288 -10.6140629 4.11976176 -8.9375 1.0625 C-5.88023824 -0.6140629 -3.4093712 -0.36528977 0 0 Z " fill="#000000" transform="translate(199,127)"/>
<path d="M0 0 C1.9375 1.0625 1.9375 1.0625 3 3 C3.36528977 6.4093712 3.6140629 8.88023824 1.9375 11.9375 C-1.11976176 13.6140629 -3.5906288 13.36528977 -7 13 C-8.9375 11.9375 -8.9375 11.9375 -10 10 C-10.36528977 6.5906288 -10.6140629 4.11976176 -8.9375 1.0625 C-5.88023824 -0.6140629 -3.4093712 -0.36528977 0 0 Z " fill="#000000" transform="translate(459,17)"/>
<path d="M0 0 C1.9375 1.0625 1.9375 1.0625 3 3 C3.36528977 6.4093712 3.6140629 8.88023824 1.9375 11.9375 C-1.11976176 13.6140629 -3.5906288 13.36528977 -7 13 C-8.9375 11.9375 -8.9375 11.9375 -10 10 C-10.36528977 6.5906288 -10.6140629 4.11976176 -8.9375 1.0625 C-5.88023824 -0.6140629 -3.4093712 -0.36528977 0 0 Z " fill="#000000" transform="translate(380,17)"/>
<path d="M0 0 C0.556875 0.144375 1.11375 0.28875 1.6875 0.4375 C2.8321875 0.7159375 2.8321875 0.7159375 4 1 C5.2684375 1.3403125 5.2684375 1.3403125 6.5625 1.6875 C9.25525964 2.30360761 9.25525964 2.30360761 12 0 C12.99 0 13.98 0 15 0 C14.52753358 4.25219775 12.22727623 6.37314725 9 9 C5.7701086 9.20186821 4.70944319 7.74906457 2.25 5.625 C0 3 0 3 0 0 Z " fill="#000000" transform="translate(17,193)"/>
<path d="M0 0 C0.556875 0.144375 1.11375 0.28875 1.6875 0.4375 C2.8321875 0.7159375 2.8321875 0.7159375 4 1 C5.2684375 1.3403125 5.2684375 1.3403125 6.5625 1.6875 C9.25525964 2.30360761 9.25525964 2.30360761 12 0 C12.99 0 13.98 0 15 0 C14.52753358 4.25219775 12.22727623 6.37314725 9 9 C5.7701086 9.20186821 4.70944319 7.74906457 2.25 5.625 C0 3 0 3 0 0 Z " fill="#000000" transform="translate(448,185)"/>
<path d="M0 0 C0.556875 0.144375 1.11375 0.28875 1.6875 0.4375 C2.8321875 0.7159375 2.8321875 0.7159375 4 1 C5.2684375 1.3403125 5.2684375 1.3403125 6.5625 1.6875 C9.25525964 2.30360761 9.25525964 2.30360761 12 0 C12.99 0 13.98 0 15 0 C14.52753358 4.25219775 12.22727623 6.37314725 9 9 C5.7701086 9.20186821 4.70944319 7.74906457 2.25 5.625 C0 3 0 3 0 0 Z " fill="#000000" transform="translate(369,185)"/>
<path d="M0 0 C1.45880109 0.14107747 2.91703551 0.28802415 4.375 0.4375 C5.59316406 0.55931641 5.59316406 0.55931641 6.8359375 0.68359375 C9 1 9 1 11 2 C11.14285714 9.42857143 11.14285714 9.42857143 10 13 C9.01 13 8.02 13 7 13 C7.33 11.02 7.66 9.04 8 7 C7.01 7 6.02 7 5 7 C5 6.01 5 5.02 5 4 C3.35 3.67 1.7 3.34 0 3 C0 2.01 0 1.02 0 0 Z " fill="#000000" transform="translate(290,170)"/>
<path d="M0 0 C-0.309375 0.556875 -0.61875 1.11375 -0.9375 1.6875 C-2.1040584 4.22648005 -2.79048458 6.20646106 -3 9 C-1.62831762 11.19038423 -1.62831762 11.19038423 0 13 C0 13.66 0 14.32 0 15 C-4.25219775 14.52753358 -6.37314725 12.22727623 -9 9 C-9.20186821 5.7701086 -7.74906457 4.70944319 -5.625 2.25 C-3 0 -3 0 0 0 Z " fill="#000000" transform="translate(47,193)"/>
<path d="M0 0 C-0.309375 0.556875 -0.61875 1.11375 -0.9375 1.6875 C-2.1040584 4.22648005 -2.79048458 6.20646106 -3 9 C-1.62831762 11.19038423 -1.62831762 11.19038423 0 13 C0 13.66 0 14.32 0 15 C-4.25219775 14.52753358 -6.37314725 12.22727623 -9 9 C-9.20186821 5.7701086 -7.74906457 4.70944319 -5.625 2.25 C-3 0 -3 0 0 0 Z " fill="#000000" transform="translate(47,108)"/>
<path d="M0 0 C0.33 1.65 0.66 3.3 1 5 C-2.98196457 6.05404945 -5.98195309 5.84098656 -10 5 C-10 4.01 -10 3.02 -10 2 C-3.375 0 -3.375 0 0 0 Z " fill="#000000" transform="translate(101,112)"/>
<path d="M0 0 C3.93673644 1.31224548 6.22719294 2.91910327 9 6 C8.67 6.99 8.34 7.98 8 9 C3.7257442 7.4169423 1.73468206 4.49431596 -1 1 C-0.67 0.67 -0.34 0.34 0 0 Z " fill="#000000" transform="translate(109,121)"/>
<path d="M0 0 C0 0.99 0 1.98 0 3 C-1.26418246 3.69965443 -2.53665402 4.38434763 -3.8125 5.0625 C-4.52019531 5.44535156 -5.22789062 5.82820312 -5.95703125 6.22265625 C-8 7 -8 7 -11 6 C-11 5.34 -11 4.68 -11 4 C-9.73308493 3.32591692 -8.46129251 2.66099503 -7.1875 2 C-6.47980469 1.62875 -5.77210938 1.2575 -5.04296875 0.875 C-3 0 -3 0 0 0 Z " fill="#000000" transform="translate(287,181)"/>
<path d="M0 0 C1.75 0.125 1.75 0.125 4 1 C8 6.11111111 8 6.11111111 8 10 C6.25 9.9375 6.25 9.9375 4 9 C1.99159505 6.29950956 0 3.44873267 0 0 Z " fill="#000000" transform="translate(202,168)"/>
<path d="M0 0 C0.99 0 1.98 0 3 0 C3 3.96 3 7.92 3 12 C2.01 12 1.02 12 0 12 C0 8.04 0 4.08 0 0 Z " fill="#000000" transform="translate(454,144)"/>
<path d="M0 0 C0.99 0 1.98 0 3 0 C3 3.96 3 7.92 3 12 C2.01 12 1.02 12 0 12 C0 8.04 0 4.08 0 0 Z " fill="#000000" transform="translate(375,144)"/>
<path d="M0 0 C0.99 0 1.98 0 3 0 C3 3.96 3 7.92 3 12 C2.01 12 1.02 12 0 12 C0 8.04 0 4.08 0 0 Z " fill="#000000" transform="translate(454,123)"/>
<path d="M0 0 C0.99 0 1.98 0 3 0 C3 3.96 3 7.92 3 12 C2.01 12 1.02 12 0 12 C0 8.04 0 4.08 0 0 Z " fill="#000000" transform="translate(375,123)"/>
<path d="M0 0 C0.99 0 1.98 0 3 0 C3 3.96 3 7.92 3 12 C2.01 12 1.02 12 0 12 C0 8.04 0 4.08 0 0 Z " fill="#000000" transform="translate(454,38)"/>
<path d="M0 0 C0.99 0 1.98 0 3 0 C3 3.96 3 7.92 3 12 C2.01 12 1.02 12 0 12 C0 8.04 0 4.08 0 0 Z " fill="#000000" transform="translate(375,38)"/>
<path d="M0 0 C3.63 0.33 7.26 0.66 11 1 C11 1.99 11 2.98 11 4 C9.56260487 4.02712066 8.12506137 4.04645067 6.6875 4.0625 C5.48673828 4.07990234 5.48673828 4.07990234 4.26171875 4.09765625 C2 4 2 4 -1 3 C-0.67 2.01 -0.34 1.02 0 0 Z " fill="#000000" transform="translate(236,192)"/>
<path d="M0 0 C-3.12621626 3.39417765 -5.56541027 5.6062718 -10 7 C-10.33 6.01 -10.66 5.02 -11 4 C-9.73760288 3.13341385 -8.46472499 2.28207941 -7.1875 1.4375 C-6.47980469 0.96183594 -5.77210937 0.48617187 -5.04296875 -0.00390625 C-3 -1 -3 -1 0 0 Z " fill="#000000" transform="translate(120,190)"/>
<path d="M0 0 C0.99 0.33 1.98 0.66 3 1 C1.49776416 5.20626034 -1.28550034 6.73900021 -5 9 C-5 5 -5 5 -2.5 2.25 C-1.675 1.5075 -0.85 0.765 0 0 Z " fill="#000000" transform="translate(114,100)"/>
<path d="M0 0 C4.2742558 1.5830577 6.26531794 4.50568404 9 8 C8.67 8.66 8.34 9.32 8 10 C4.20401451 8.50871999 2.28279601 6.34266559 0 3 C0 2.01 0 1.02 0 0 Z " fill="#000000" transform="translate(286,91)"/>
<path d="M0 0 C0 0.66 0 1.32 0 2 C-1.43344 2.53190541 -2.87195367 3.05015258 -4.3125 3.5625 C-5.51326172 3.99755859 -5.51326172 3.99755859 -6.73828125 4.44140625 C-9 5 -9 5 -12 4 C-12 3.34 -12 2.68 -12 2 C-10.37787941 1.47026689 -8.75218416 0.95146893 -7.125 0.4375 C-6.22007812 0.14746094 -5.31515625 -0.14257812 -4.3828125 -0.44140625 C-2 -1 -2 -1 0 0 Z " fill="#000000" transform="translate(268,190)"/>
<path d="M0 0 C4.00458831 0.61609051 6.83019669 2.55060653 10 5 C10 5.99 10 6.98 10 8 C6.4134946 6.66786942 3.12317517 5.23083941 0 3 C0 2.01 0 1.02 0 0 Z " fill="#000000" transform="translate(216,184)"/>
<path d="M0 0 C0.99 0.33 1.98 0.66 3 1 C3 1.66 3 2.32 3 3 C1.57421875 4.32421875 1.57421875 4.32421875 -0.3125 5.6875 C-0.92738281 6.14511719 -1.54226562 6.60273437 -2.17578125 7.07421875 C-2.77777344 7.37972656 -3.37976563 7.68523437 -4 8 C-4.99 7.67 -5.98 7.34 -7 7 C-5.65117186 2.95351557 -3.65173931 2.04497401 0 0 Z " fill="#000000" transform="translate(221,80)"/>
<path d="M0 0 C3.93619738 0.56231391 6.79192446 1.61685817 10 4 C10 4.99 10 5.98 10 7 C6.33118845 6.29445932 3.29549466 4.72264494 0 3 C0 2.01 0 1.02 0 0 Z " fill="#000000" transform="translate(269,79)"/>
<path d="M0 0 C0.99 0 1.98 0 3 0 C3 3.63 3 7.26 3 11 C2.01 11 1.02 11 0 11 C0 7.37 0 3.74 0 0 Z " fill="#000000" transform="translate(23,175)"/>
<path d="M0 0 C0.99 0 1.98 0 3 0 C3 3.63 3 7.26 3 11 C2.01 11 1.02 11 0 11 C0 7.37 0 3.74 0 0 Z " fill="#000000" transform="translate(454,166)"/>
<path d="M0 0 C0.99 0 1.98 0 3 0 C3 3.63 3 7.26 3 11 C2.01 11 1.02 11 0 11 C0 7.37 0 3.74 0 0 Z " fill="#000000" transform="translate(375,166)"/>
<path d="M0 0 C0.99 0 1.98 0 3 0 C3 3.63 3 7.26 3 11 C2.01 11 1.02 11 0 11 C0 7.37 0 3.74 0 0 Z " fill="#000000" transform="translate(23,154)"/>
<path d="M0 0 C0.99 0 1.98 0 3 0 C4.19287411 3.87684087 5 6.91621923 5 11 C4.01 11 3.02 11 2 11 C1.34 7.37 0.68 3.74 0 0 Z " fill="#000000" transform="translate(195,148)"/>
<path d="M0 0 C0.99 0 1.98 0 3 0 C3 3.63 3 7.26 3 11 C2.01 11 1.02 11 0 11 C0 7.37 0 3.74 0 0 Z " fill="#000000" transform="translate(23,134)"/>
<path d="M0 0 C0.99 0 1.98 0 3 0 C3 3.63 3 7.26 3 11 C2.01 11 1.02 11 0 11 C0 7.37 0 3.74 0 0 Z " fill="#000000" transform="translate(23,113)"/>
<path d="M0 0 C3 1 3 1 4.16796875 3.06640625 C4.50441406 3.89011719 4.84085937 4.71382813 5.1875 5.5625 C5.53167969 6.38878906 5.87585938 7.21507813 6.23046875 8.06640625 C6.48441406 8.70449219 6.73835938 9.34257813 7 10 C6.01 10.33 5.02 10.66 4 11 C2.35 7.7 0.7 4.4 -1 1 C-0.67 0.67 -0.34 0.34 0 0 Z " fill="#000000" transform="translate(299,108)"/>
<path d="M0 0 C0.99 0 1.98 0 3 0 C3 3.63 3 7.26 3 11 C2.01 11 1.02 11 0 11 C0 7.37 0 3.74 0 0 Z " fill="#000000" transform="translate(454,102)"/>
<path d="M0 0 C0.99 0 1.98 0 3 0 C3 3.63 3 7.26 3 11 C2.01 11 1.02 11 0 11 C0 7.37 0 3.74 0 0 Z " fill="#000000" transform="translate(375,102)"/>
<path d="M0 0 C0.99 0 1.98 0 3 0 C3 3.63 3 7.26 3 11 C2.01 11 1.02 11 0 11 C0 7.37 0 3.74 0 0 Z " fill="#000000" transform="translate(23,93)"/>
<path d="M0 0 C0.99 0 1.98 0 3 0 C3 3.63 3 7.26 3 11 C2.01 11 1.02 11 0 11 C0 7.37 0 3.74 0 0 Z " fill="#000000" transform="translate(454,81)"/>
<path d="M0 0 C0.99 0 1.98 0 3 0 C3 3.63 3 7.26 3 11 C2.01 11 1.02 11 0 11 C0 7.37 0 3.74 0 0 Z " fill="#000000" transform="translate(375,81)"/>
<path d="M0 0 C1.258125 -0.020625 2.51625 -0.04125 3.8125 -0.0625 C4.52019531 -0.07410156 5.22789062 -0.08570312 5.95703125 -0.09765625 C8 0 8 0 11 1 C11 1.99 11 2.98 11 4 C7.37 3.67 3.74 3.34 0 3 C0 2.01 0 1.02 0 0 Z " fill="#000000" transform="translate(249,74)"/>
<path d="M0 0 C0.99 0 1.98 0 3 0 C3 3.63 3 7.26 3 11 C2.01 11 1.02 11 0 11 C0 7.37 0 3.74 0 0 Z " fill="#000000" transform="translate(23,72)"/>
<path d="M0 0 C0.99 0 1.98 0 3 0 C3 3.63 3 7.26 3 11 C2.01 11 1.02 11 0 11 C0 7.37 0 3.74 0 0 Z " fill="#000000" transform="translate(454,60)"/>
<path d="M0 0 C0.99 0 1.98 0 3 0 C3 3.63 3 7.26 3 11 C2.01 11 1.02 11 0 11 C0 7.37 0 3.74 0 0 Z " fill="#000000" transform="translate(375,60)"/>
<path d="M0 0 C0.99 0 1.98 0 3 0 C3 3.63 3 7.26 3 11 C2.01 11 1.02 11 0 11 C0 7.37 0 3.74 0 0 Z " fill="#000000" transform="translate(23,52)"/>
<path d="M0 0 C3.63 0 7.26 0 11 0 C11 0.99 11 1.98 11 3 C7.37 3 3.74 3 0 3 C0 2.01 0 1.02 0 0 Z " fill="#000000" transform="translate(71,41)"/>
<path d="M0 0 C0.99 0 1.98 0 3 0 C1.85569823 3.87302138 0.76679902 7.00263439 -2 10 C-2.66 10 -3.32 10 -4 10 C-3.43768609 6.06380262 -2.38314183 3.20807554 0 0 Z " fill="#000000" transform="translate(129,174)"/>
<path d="M0 0 C0.99 0 1.98 0 3 0 C3.33 3.63 3.66 7.26 4 11 C3.01 11 2.02 11 1 11 C0.67 7.37 0.34 3.74 0 0 Z " fill="#000000" transform="translate(130,154)"/>
<path d="M0 0 C1.8125 0.1875 1.8125 0.1875 4 1 C6.53370588 4.34811134 7 5.70124217 7 10 C2.57320993 8.52440331 2.08567304 6.09942632 0 2 C0 1.34 0 0.68 0 0 Z " fill="#000000" transform="translate(122,136)"/>
<path d="M0 0 C0.99 0 1.98 0 3 0 C3.66 2.31 4.32 4.62 5 7 C2.69 7 0.38 7 -2 7 C-2 6.01 -2 5.02 -2 4 C-1.34 3.67 -0.68 3.34 0 3 C0 2.01 0 1.02 0 0 Z " fill="#000000" transform="translate(307,127)"/>
<path d="M0 0 C0.66 0.33 1.32 0.66 2 1 C0.80100302 4.0831351 -0.47700477 7.06279492 -2 10 C-2.99 10 -3.98 10 -5 10 C-4.49701212 5.59885603 -2.91227269 3.28804981 0 0 Z " fill="#000000" transform="translate(208,92)"/>
<path d="M0 0 C0.66 0 1.32 0 2 0 C3.42258812 3.82320557 4.24042276 6.91281305 4 11 C3.01 10.67 2.02 10.34 1 10 C0.234375 7.96875 0.234375 7.96875 -0.25 5.5 C-0.42015625 4.6853125 -0.5903125 3.870625 -0.765625 3.03125 C-0.84296875 2.3609375 -0.9203125 1.690625 -1 1 C-0.67 0.67 -0.34 0.34 0 0 Z " fill="#000000" transform="translate(121,63)"/>
<path d="M0 0 C-0.33 0.66 -0.66 1.32 -1 2 C-4.47325181 3.1577506 -7.36067448 3.06866652 -11 3 C-11 2.01 -11 1.02 -11 0 C-3.57142857 -1.28571429 -3.57142857 -1.28571429 0 0 Z " fill="#000000" transform="translate(102,199)"/>
<path d="M0 0 C0 0.99 0 1.98 0 3 C-3.3 3.33 -6.6 3.66 -10 4 C-10 3.01 -10 2.02 -10 1 C-6.61981469 -0.04005702 -3.5219721 -0.08004482 0 0 Z " fill="#000000" transform="translate(241,75)"/>
<path d="M0 0 C3.36295835 1.44126786 5.62927102 3.20592655 8 6 C8 6.99 8 7.98 8 9 C7.01 9 6.02 9 5 9 C0 3.76744186 0 3.76744186 0 0 Z " fill="#000000" transform="translate(109,47)"/>
<path d="M0 0 C3.3 0 6.6 0 10 0 C10 0.99 10 1.98 10 3 C6.7 3 3.4 3 0 3 C0 2.01 0 1.02 0 0 Z " fill="#000000" transform="translate(72,199)"/>
<path d="M0 0 C3.3 0 6.6 0 10 0 C10 0.99 10 1.98 10 3 C6.7 3 3.4 3 0 3 C0 2.01 0 1.02 0 0 Z " fill="#000000" transform="translate(53,199)"/>
<path d="M0 0 C3.3 0 6.6 0 10 0 C10 0.99 10 1.98 10 3 C6.7 3 3.4 3 0 3 C0 2.01 0 1.02 0 0 Z " fill="#000000" transform="translate(286,131)"/>
<path d="M0 0 C3.3 0 6.6 0 10 0 C10 0.99 10 1.98 10 3 C6.7 3 3.4 3 0 3 C0 2.01 0 1.02 0 0 Z " fill="#000000" transform="translate(267,131)"/>
<path d="M0 0 C3.3 0 6.6 0 10 0 C10 0.99 10 1.98 10 3 C6.7 3 3.4 3 0 3 C0 2.01 0 1.02 0 0 Z " fill="#000000" transform="translate(248,131)"/>
<path d="M0 0 C3.3 0 6.6 0 10 0 C10 0.99 10 1.98 10 3 C6.7 3 3.4 3 0 3 C0 2.01 0 1.02 0 0 Z " fill="#000000" transform="translate(229,131)"/>
<path d="M0 0 C3.3 0 6.6 0 10 0 C10 0.99 10 1.98 10 3 C6.7 3 3.4 3 0 3 C0 2.01 0 1.02 0 0 Z " fill="#000000" transform="translate(210,131)"/>
<path d="M0 0 C3.3 0 6.6 0 10 0 C10 0.99 10 1.98 10 3 C6.7 3 3.4 3 0 3 C0 2.01 0 1.02 0 0 Z " fill="#000000" transform="translate(72,114)"/>
<path d="M0 0 C3.3 0 6.6 0 10 0 C10 0.99 10 1.98 10 3 C6.7 3 3.4 3 0 3 C0 2.01 0 1.02 0 0 Z " fill="#000000" transform="translate(53,114)"/>
<path d="M0 0 C0.99 0.33 1.98 0.66 3 1 C2.34 3.97 1.68 6.94 1 10 C0.01 10 -0.98 10 -2 10 C-1.125 2.25 -1.125 2.25 0 0 Z " fill="#000000" transform="translate(199,109)"/>
<path d="M0 0 C0.66 0 1.32 0 2 0 C1.25 7.625 1.25 7.625 -1 11 C-1.66 10.67 -2.32 10.34 -3 10 C-2.69201674 8.51988629 -2.378482 7.04092675 -2.0625 5.5625 C-1.88847656 4.73878906 -1.71445313 3.91507812 -1.53515625 3.06640625 C-1 1 -1 1 0 0 Z " fill="#000000" transform="translate(123,83)"/>
<path d="M0 0 C2.97 0 5.94 0 9 0 C9.33 1.32 9.66 2.64 10 4 C6.7 3.67 3.4 3.34 0 3 C0 2.01 0 1.02 0 0 Z " fill="#000000" transform="translate(91,41)"/>
<path d="M0 0 C3.3 0 6.6 0 10 0 C10 0.99 10 1.98 10 3 C6.7 3 3.4 3 0 3 C0 2.01 0 1.02 0 0 Z " fill="#000000" transform="translate(52,41)"/>
</svg>
