<svg width="564" height="205" viewBox="0 0 564 205" fill="none" xmlns="http://www.w3.org/2000/svg">
<path d="M4.00138 124.088C-11.6446 -32.54 160.915 -12.9529 182.222 47.8016C182.222 70.4236 152.847 77.8341 138.16 78.7116C83.9701 31.3616 58.3234 71.2258 59.9005 102.387C62.8834 161.322 123.034 149.079 138.16 124.088C179.196 124.088 184.633 151.271 182.222 164.862C95.8094 238.923 10.4102 188.245 4.00138 124.088Z" stroke="black" stroke-width="5"/>
<circle cx="147.762" cy="50.1824" r="8.54932" fill="black"/>
<path d="M152.014 155.365C152.16 154.833 151.847 154.282 151.315 154.136L142.636 151.751C142.104 151.605 141.553 151.918 141.407 152.451C141.261 152.983 141.574 153.534 142.106 153.68L149.821 155.799L147.701 163.514C147.555 164.046 147.868 164.596 148.4 164.743C148.933 164.889 149.483 164.576 149.629 164.043L152.014 155.365ZM151.558 48.0677C150.059 47.1831 148.574 46.3343 147.102 45.5206L146.134 47.2711C147.59 48.0755 149.059 48.9149 150.541 49.7901L151.558 48.0677ZM138.426 41.0539C135.295 39.5626 132.228 38.2354 129.225 37.0651L128.499 38.9285C131.454 40.0804 134.477 41.3882 137.566 42.8596L138.426 41.0539ZM119.878 33.8589C116.607 32.8938 113.42 32.1234 110.318 31.5369L109.946 33.5021C112.98 34.0756 116.102 34.8301 119.313 35.7772L119.878 33.8589ZM100.492 30.2625C97.0406 30.0277 93.7097 30.0346 90.5006 30.2655L90.6441 32.2603C93.757 32.0364 96.9946 32.0292 100.356 32.2579L100.492 30.2625ZM80.6347 31.7505C77.3116 32.5276 74.1476 33.5647 71.1444 34.8354L71.9237 36.6774C74.822 35.4511 77.8776 34.4492 81.0901 33.698L80.6347 31.7505ZM62.3218 39.5126C59.5051 41.3354 56.8719 43.3864 54.4233 45.6333L55.7755 47.1069C58.1444 44.9332 60.6891 42.9515 63.4084 41.1917L62.3218 39.5126ZM47.6275 52.9355C45.5648 55.523 43.6854 58.2714 41.9902 61.1493L43.7134 62.1644C45.3633 59.3636 47.1899 56.693 49.1914 54.1822L47.6275 52.9355ZM37.5033 70.0333C36.2026 73.067 35.0783 76.1956 34.1312 79.3903L36.0487 79.9587C36.9744 76.8363 38.0725 73.7812 39.3414 70.8214L37.5033 70.0333ZM31.8369 89.0633C31.2492 92.3221 30.8353 95.6184 30.5962 98.9245L32.591 99.0687C32.825 95.8327 33.2301 92.6068 33.8052 89.4183L31.8369 89.0633ZM30.4055 108.861C30.519 112.189 30.8116 115.499 31.2848 118.763L33.2642 118.476C32.8016 115.286 32.5153 112.049 32.4043 108.793L30.4055 108.861ZM33.2787 128.506C34.143 131.739 35.2001 134.893 36.452 137.939L38.3019 137.178C37.084 134.216 36.0539 131.143 35.2108 127.99L33.2787 128.506ZM40.8801 146.863C42.5847 149.747 44.4995 152.48 46.6265 155.029L48.162 153.747C46.1074 151.285 44.2543 148.641 42.6018 145.845L40.8801 146.863ZM53.6758 162.109C56.2057 164.229 58.9445 166.133 61.8933 167.785L62.871 166.04C60.0333 164.45 57.397 162.618 54.9605 160.576L53.6758 162.109ZM71.014 171.835C74.0683 172.87 77.2948 173.668 80.6939 174.206L81.0064 172.23C77.7166 171.71 74.6002 170.938 71.6556 169.941L71.014 171.835ZM90.6118 175.011C93.7984 175.039 97.1109 174.86 100.55 174.458L100.317 172.471C96.9576 172.864 93.7287 173.038 90.6295 173.011L90.6118 175.011ZM110.41 172.76C113.489 172.067 116.657 171.208 119.914 170.174L119.309 168.268C116.104 169.285 112.991 170.129 109.971 170.809L110.41 172.76ZM129.144 166.864C132.132 165.674 135.189 164.344 138.314 162.868L137.46 161.059C134.37 162.518 131.352 163.832 128.404 165.006L129.144 166.864ZM147.047 158.457C148.532 157.659 150.031 156.83 151.544 155.969L150.555 154.231C149.056 155.084 147.571 155.905 146.101 156.695L147.047 158.457Z" fill="black"/>
<path d="M267.512 42.0748C180.868 38.0747 156.219 195.749 267.512 201.775C360.368 201.775 379.807 53.6255 267.512 42.0748Z" stroke="black" stroke-width="5"/>
<circle cx="267.867" cy="61.5747" r="6.5" fill="black"/>
<path d="M267.752 85.1103C226.606 83.2076 214.901 158.208 267.752 161.075C311.848 161.075 321.079 90.6046 267.752 85.1103Z" stroke="black" stroke-width="5"/>
<path d="M266.867 61.1328C200.005 58.0283 180.984 180.398 266.867 185.075C338.523 185.075 353.524 70.0971 266.867 61.1328Z" stroke="black" stroke-width="2" stroke-dasharray="10 10"/>
<path d="M383 193.302L345 60.3019C354.6 42.302 375.667 44.8019 385 48.3019L407 133.302L433.5 55.3018C445.5 45.7018 464.167 51.3018 472 55.3018L500 133.302L522 48.3019C540.4 38.7019 555.667 52.3019 561 60.3019L522 193.302C504 208.102 483.833 199.469 476 193.302L452.5 133.302L429 193.302C413 208.902 391.667 199.802 383 193.302Z" stroke="black" stroke-width="5"/>
<circle cx="6.50586" cy="6.50586" r="6.50586" transform="matrix(1 8.74228e-08 8.74228e-08 -1 360 71.0117)" fill="black"/>
<path d="M406 182L405.053 182.322L405.908 184.836L406.924 182.382L406 182ZM450.5 74.5L451.408 74.0817L450.451 72.0032L449.576 74.1175L450.5 74.5ZM500 182L499.092 182.418L500.129 184.67L500.944 182.329L500 182ZM543.4 59.5649C543.16 59.0676 542.562 58.8593 542.065 59.0996L533.962 63.0158C533.464 63.2561 533.256 63.8541 533.496 64.3513C533.737 64.8486 534.335 65.0569 534.832 64.8166L542.035 61.3355L545.516 68.5384C545.756 69.0357 546.354 69.244 546.851 69.0037C547.349 68.7634 547.557 68.1654 547.317 67.6682L543.4 59.5649ZM363.553 60.322L365.282 65.4054L367.176 64.7613L365.447 59.678L363.553 60.322ZM368.741 75.572L372.199 85.7387L374.093 85.0946L370.634 74.928L368.741 75.572ZM375.657 95.9054L379.116 106.072L381.009 105.428L377.551 95.2613L375.657 95.9054ZM382.574 116.239L386.032 126.405L387.926 125.761L384.468 115.595L382.574 116.239ZM389.491 136.572L392.949 146.739L394.843 146.095L391.384 135.928L389.491 136.572ZM396.407 156.905L399.866 167.072L401.759 166.428L398.301 156.261L396.407 156.905ZM403.324 177.239L405.053 182.322L406.947 181.678L405.218 176.595L403.324 177.239ZM406.924 182.382L408.778 177.903L406.93 177.138L405.076 181.618L406.924 182.382ZM412.486 168.945L416.195 159.987L414.347 159.222L410.639 168.18L412.486 168.945ZM419.903 151.028L423.611 142.07L421.764 141.305L418.055 150.263L419.903 151.028ZM427.32 133.112L431.028 124.153L429.18 123.388L425.472 132.347L427.32 133.112ZM434.736 115.195L438.445 106.237L436.597 105.472L432.889 114.43L434.736 115.195ZM442.153 97.2783L445.861 88.32L444.014 87.555L440.305 96.5134L442.153 97.2783ZM449.57 79.3616L451.424 74.8825L449.576 74.1175L447.722 78.5967L449.57 79.3616ZM449.592 74.9183L451.654 79.3974L453.471 78.5609L451.408 74.0817L449.592 74.9183ZM455.779 88.3558L459.904 97.3141L461.721 96.4776L457.596 87.5192L455.779 88.3558ZM464.029 106.272L468.154 115.231L469.971 114.394L465.846 105.436L464.029 106.272ZM472.279 124.189L476.404 133.147L478.221 132.311L474.096 123.353L472.279 124.189ZM480.529 142.106L484.654 151.064L486.471 150.228L482.346 141.269L480.529 142.106ZM488.779 160.022L492.904 168.981L494.721 168.144L490.596 159.186L488.779 160.022ZM497.029 177.939L499.092 182.418L500.908 181.582L498.846 177.103L497.029 177.939ZM500.944 182.329L502.715 177.246L500.826 176.588L499.056 181.671L500.944 182.329ZM506.257 167.079L509.799 156.912L507.91 156.254L504.368 166.421L506.257 167.079ZM513.34 146.746L516.882 136.579L514.993 135.921L511.451 146.088L513.34 146.746ZM520.424 126.412L523.965 116.246L522.076 115.588L518.535 125.754L520.424 126.412ZM527.507 106.079L531.049 95.9123L529.16 95.2544L525.618 105.421L527.507 106.079ZM534.59 85.7456L538.132 75.579L536.243 74.921L532.701 85.0877L534.59 85.7456ZM541.674 65.4123L543.444 60.329L541.556 59.671L539.785 64.7544L541.674 65.4123Z" fill="black"/>
</svg>
