<?xml version="1.0" encoding="UTF-8"?>
<svg version="1.1" xmlns="http://www.w3.org/2000/svg" width="775" height="251">
<path d="M0 0 C1.41712548 1.20455666 2.81304565 2.43447301 4.1875 3.6875 C5.30898438 4.67169922 5.30898438 4.67169922 6.453125 5.67578125 C20.62560876 18.86004761 27.76947185 37.42370134 28.52172852 56.5456543 C28.72696394 67.01266092 26.99852215 76.46458993 19.75 84.3828125 C16.5188275 87.08084154 13.59099401 87.94601523 9.4375 88.3125 C8.23867188 88.42464844 8.23867188 88.42464844 7.015625 88.5390625 C6.11070312 88.61253906 6.11070312 88.61253906 5.1875 88.6875 C6.0125 89.161875 6.8375 89.63625 7.6875 90.125 C15.40731685 95.33223495 22.12095121 103.89843756 25.1875 112.6875 C24.85197458 122.61130964 14.48773751 130.86551411 7.78515625 137.40234375 C-8.28433192 151.53866041 -27.21347297 155.89166016 -48.06445312 154.89892578 C-55.18823553 154.35084515 -61.98811216 152.74998868 -68.8125 150.6875 C-69.85229004 150.37401611 -69.85229004 150.37401611 -70.91308594 150.05419922 C-93.10429439 143.09664561 -111.08073774 128.4726337 -122.0625 107.875 C-132.328288 86.39237007 -132.01639563 62.84912875 -124.625 40.625 C-117.29914455 21.49516974 -105.61588492 3.11654528 -86.25 -5.625 C-59.71605174 -15.03052963 -23.67253151 -17.65200879 0 0 Z M-102.36328125 13.796875 C-117.8803482 32.11047873 -125.63214614 55.49689846 -124.03125 79.42529297 C-122.26403904 97.70093668 -113.91042379 113.11117494 -100.8125 125.6875 C-100.14476562 126.35136719 -99.47703125 127.01523438 -98.7890625 127.69921875 C-81.34536917 144.0756819 -57.87117753 149.51124939 -34.59765625 149.0625 C-16.23585331 148.22118028 -1.31084919 138.57203414 11.1875 125.6875 C13.9879255 122.44626679 16.64527492 119.13445812 19.1875 115.6875 C15.5113994 107.16759626 10.8907919 98.03914595 2.1875 93.6875 C-5.3268455 92.69581087 -11.26383853 92.58086165 -17.4375 97.3125 C-18.32050781 98.04082031 -19.20351563 98.76914063 -20.11328125 99.51953125 C-29.69946361 107.21899755 -42.27966156 111.2591977 -54.5625 110.6875 C-60.27809093 109.93611508 -64.86340054 107.51933766 -69.8125 104.6875 C-70.52535156 104.38714844 -71.23820312 104.08679688 -71.97265625 103.77734375 C-74.30971618 102.39297067 -74.6818338 101.13064946 -75.8125 98.6875 C-76.12977051 98.05295898 -76.44704102 97.41841797 -76.77392578 96.76464844 C-79.12011719 92.07226563 -81.46630859 87.37988281 -83.8125 82.6875 C-82.06602676 82.69749275 -82.06602676 82.69749275 -80.28427124 82.70768738 C-69.3079258 82.76852106 -58.3316146 82.81348355 -47.35513878 82.84293652 C-41.71211085 82.85858764 -36.06921909 82.87981608 -30.42626953 82.91381836 C-24.97979012 82.94643115 -19.53344163 82.96435718 -14.0868721 82.97213173 C-12.00965947 82.97767176 -9.93245394 82.98849007 -7.85529709 83.00469017 C-4.94422712 83.0264897 -2.03369715 83.02946584 0.87744141 83.02807617 C2.16353806 83.04425491 2.16353806 83.04425491 3.47561646 83.0607605 C8.45852816 83.03504723 11.86721946 82.44888651 16.1875 79.6875 C17.89556102 77.62413205 17.89556102 77.62413205 19 75.25 C19.39832031 74.48816406 19.79664063 73.72632813 20.20703125 72.94140625 C25.56739557 60.61897511 22.08694685 44.66081513 17.37402344 32.60693359 C10.41855261 16.08095058 -0.38159202 5.19885433 -16.8125 -2.125 C-43.54762498 -12.47847515 -82.28859465 -7.25475867 -102.36328125 13.796875 Z M-75.8125 87.6875 C-71.62301243 96.06647513 -68.14903388 101.37518217 -59.25 104.625 C-47.3425456 107.89092872 -36.622727 103.02732015 -26.140625 97.6015625 C-21.69656624 95.04570711 -17.56063666 92.19765973 -13.8125 88.6875 C-13.8125 88.3575 -13.8125 88.0275 -13.8125 87.6875 C-34.2725 87.6875 -54.7325 87.6875 -75.8125 87.6875 Z " fill="#000000" transform="translate(297.8125,54.3125)"/>
<path d="M0 0 C10.18509272 -0.40583274 18.16056605 1.56381879 26.0546875 8.15625 C30.23684822 12.31446706 34.12032573 17.25336528 35.1015625 23.19140625 C34.63965607 25.13677788 34.63965607 25.13677788 33.79797363 27.20968628 C33.48240666 28.00261298 33.16683969 28.79553968 32.84171009 29.61249447 C32.48466842 30.47626485 32.12762674 31.34003523 31.75976562 32.22998047 C31.38969989 33.15038148 31.01963415 34.07078249 30.6383543 35.01907444 C29.39696126 38.09908671 28.13977981 41.17240811 26.8828125 44.24609375 C26.00027692 46.42821004 25.11881389 48.61076037 24.23835754 50.79371643 C21.86450553 56.67164865 19.47738248 62.54410092 17.08707047 68.41535568 C13.12288727 78.15844266 9.17748551 87.90916801 5.23031044 97.65915489 C4.2329423 100.12217492 3.23505409 102.58498442 2.23665428 105.04758644 C-4.04575263 120.54602989 -10.24187659 136.07306256 -16.27915573 151.66868591 C-17.36165869 154.46328604 -18.44769705 157.25648381 -19.5350647 160.04919434 C-20.23042352 161.83568721 -20.92576681 163.62218613 -21.62109375 165.40869141 C-21.95585913 166.26861568 -22.2906245 167.12853996 -22.63553429 168.01452255 C-24.58943286 173.04108918 -26.51890374 178.07623627 -28.43198681 183.11846638 C-29.60948189 186.20485299 -30.80940489 189.28214223 -32.01577187 192.35734367 C-32.56077947 193.76110124 -33.09607047 195.16867904 -33.62047386 196.58026314 C-38.00545041 208.36791497 -38.00545041 208.36791497 -43.08911133 210.98461914 C-44.34618896 211.38285889 -45.6032666 211.78109863 -46.8984375 212.19140625 C-47.8884375 212.52140625 -48.8784375 212.85140625 -49.8984375 213.19140625 C-60.78603944 214.11520278 -68.68442337 213.25837122 -77.33203125 206.20703125 C-82.53537459 201.38817141 -87.0180268 196.16431045 -88.8984375 189.19140625 C-88.40957777 185.16143261 -86.81570496 181.8371544 -85.0859375 178.19140625 C-84.63557129 177.13832275 -84.18520508 176.08523926 -83.72119141 175.00024414 C-81.2297458 169.19840167 -78.56963575 163.48600079 -75.86012268 157.7840271 C-74.4660714 154.81682009 -73.12250414 151.82806793 -71.78457642 148.83520508 C-71.11755193 147.37976179 -70.42643861 145.93508775 -69.71029663 144.50317383 C-65.65819309 136.70495724 -65.65819309 136.70495724 -65.30810547 128.17150879 C-66.85977873 123.84521113 -69.19873726 120.02317936 -71.6663208 116.16494751 C-73.63403464 113.01316452 -75.28244941 109.70641329 -76.9765625 106.40234375 C-77.66057196 105.10856918 -78.3471969 103.81617415 -79.03637695 102.52514648 C-79.38109039 101.87891327 -79.72580383 101.23268005 -80.08096313 100.56686401 C-80.43322968 99.90671295 -80.78549622 99.24656189 -81.1484375 98.56640625 C-81.89612807 97.16156664 -82.64376725 95.75669968 -83.39135742 94.35180664 C-88.08177852 85.54721455 -92.83398752 76.77822977 -97.63598633 68.03393555 C-101.80162107 60.4256513 -105.82112219 52.74417259 -109.80395508 45.03881836 C-110.26697021 44.14428955 -110.72998535 43.24976074 -111.20703125 42.328125 C-111.65183838 41.46823975 -112.09664551 40.60835449 -112.55493164 39.72241211 C-114.28007266 36.47245083 -116.11473648 33.29033287 -117.98193359 30.12011719 C-119.59431632 26.7269836 -119.06610728 24.69441559 -117.8984375 21.19140625 C-113.88248106 12.5818558 -108.63534977 6.93043597 -99.7734375 3.37890625 C-93.24784513 1.2206364 -86.13392887 0.07366139 -79.38671875 1.85424805 C-76.09773405 3.62169008 -75.03106559 5.56256099 -73.1484375 8.7734375 C-72.8133165 9.33535797 -72.4781955 9.89727844 -72.13291931 10.47622681 C-71.04190431 12.31151655 -69.97046055 14.1574708 -68.8984375 16.00390625 C-68.14420721 17.27899293 -67.38841473 18.55315678 -66.63110352 19.82641602 C-65.10473428 22.39407668 -63.58402205 24.96495547 -62.06689453 27.53808594 C-59.0645804 32.6145906 -55.95597595 37.62414608 -52.8359375 42.62890625 C-51.79926598 44.2980447 -50.76279877 45.96731006 -49.7265625 47.63671875 C-49.24896484 48.40532227 -48.77136719 49.17392578 -48.27929688 49.96582031 C-45.13647976 55.03122357 -42.01793509 60.11162014 -38.8984375 65.19140625 C-33.62024992 55.42286868 -29.60938304 45.07276865 -25.3984375 34.81640625 C-24.64487722 32.98813861 -23.89097336 31.16001255 -23.13671875 29.33203125 C-22.76966324 28.44157104 -22.40260773 27.55111084 -22.02442932 26.63366699 C-21.30109172 24.88059789 -20.576455 23.12806418 -19.85044861 21.37609863 C-18.32730363 17.69476907 -16.81732281 14.01327136 -15.39672852 10.29101562 C-14.76528931 8.66776367 -14.76528931 8.66776367 -14.12109375 7.01171875 C-13.78086182 6.10437988 -13.44062988 5.19704102 -13.09008789 4.26220703 C-11.63919974 1.74091359 -10.59311771 1.23525498 -7.8359375 0.44140625 C-5.22348954 0.20272745 -2.61846951 0.1729178 0 0 Z M-7.8984375 8.19140625 C-9.63278615 10.92524735 -10.75655922 13.8726528 -11.9375 16.87890625 C-12.48229004 18.20259468 -12.48229004 18.20259468 -13.03808594 19.55302429 C-14.21638479 22.42605496 -15.36982403 25.30838625 -16.5234375 28.19140625 C-17.32418967 30.15544656 -18.12676572 32.11874424 -18.93115234 34.08129883 C-20.52541311 37.97518603 -22.1116055 41.87219767 -23.69140625 45.77197266 C-26.56074018 52.8395805 -29.53263115 59.86205354 -32.5234375 66.87890625 C-33.39088365 68.9243695 -34.25810338 70.96992879 -35.125 73.015625 C-35.71600634 74.40761132 -36.30708942 75.79956508 -36.8984375 77.19140625 C-37.5584375 77.19140625 -38.2184375 77.19140625 -38.8984375 77.19140625 C-40.29614258 75.22973633 -40.29614258 75.22973633 -41.91796875 72.4609375 C-42.82301147 70.93122314 -42.82301147 70.93122314 -43.74633789 69.37060547 C-44.7188147 67.70408936 -44.7188147 67.70408936 -45.7109375 66.00390625 C-47.07754016 63.68821328 -48.44927906 61.37557162 -49.8203125 59.0625 C-50.16578629 58.47797058 -50.51126007 57.89344116 -50.86720276 57.29119873 C-53.99505312 52.00532629 -57.21177745 46.77829535 -60.4609375 41.56640625 C-65.86931217 32.87874558 -71.19972837 24.1456195 -76.49438477 15.38818359 C-77.05569092 14.46215332 -77.61699707 13.53612305 -78.1953125 12.58203125 C-78.69385742 11.75735352 -79.19240234 10.93267578 -79.70605469 10.08300781 C-80.76060514 8.25553399 -80.76060514 8.25553399 -81.8984375 7.19140625 C-90.60940882 6.55788106 -99.10276212 8.47686105 -105.8984375 14.19140625 C-110.69427712 19.5460748 -110.69427712 19.5460748 -112.8984375 26.19140625 C-111.8389502 29.0826225 -111.8389502 29.0826225 -110.13671875 32.15234375 C-109.83530975 32.72998978 -109.53390076 33.3076358 -109.22335815 33.90278625 C-108.23091192 35.79708165 -107.22126724 37.68159714 -106.2109375 39.56640625 C-105.51188199 40.89121122 -104.81372983 42.21649324 -104.11645508 43.54223633 C-99.71654585 51.88351244 -95.22457163 60.17571202 -90.67773438 68.43774414 C-85.16297116 78.47296972 -79.82828861 88.60314392 -74.47924805 98.72729492 C-73.93573448 99.75549095 -73.93573448 99.75549095 -73.38124084 100.80445862 C-72.65866145 102.17404752 -71.93805248 103.54467788 -71.21946716 104.91636658 C-69.29458615 108.58459454 -67.33094487 112.22496104 -65.31005859 115.84130859 C-64.88802658 116.60742966 -64.46599457 117.37355072 -64.03117371 118.16288757 C-63.21979933 119.63388183 -62.39732136 121.09882343 -61.56221008 122.55647278 C-60.04912435 125.32131535 -58.88093966 127.48138425 -58.9597168 130.67797852 C-59.26949463 131.50740967 -59.57927246 132.33684082 -59.8984375 133.19140625 C-60.3536377 134.41053711 -60.80883789 135.62966797 -61.27783203 136.88574219 C-61.85775128 138.31760782 -62.44251864 139.74751625 -63.03125 141.17578125 C-63.34617401 141.94964172 -63.66109802 142.7235022 -63.98556519 143.52081299 C-64.99405359 145.99605527 -66.00866172 148.46873593 -67.0234375 150.94140625 C-67.68269116 152.55712872 -68.34154885 154.17301282 -69 155.7890625 C-69.48783966 156.98432556 -69.48783966 156.98432556 -69.98553467 158.20373535 C-70.64046097 159.80874996 -71.29447476 161.41413723 -71.9475708 163.01989746 C-73.58596977 167.03567533 -75.25513426 171.03344923 -76.98730469 175.00976562 C-77.31785858 175.77943665 -77.64841248 176.54910767 -77.98898315 177.34210205 C-78.61438464 178.79505739 -79.25013268 180.24361943 -79.89797974 181.68670654 C-81.56388965 185.58517798 -82.32376397 188.12846496 -80.8984375 192.19140625 C-77.17742628 198.87377589 -71.56587444 204.54695695 -64.29296875 207.109375 C-57.68280675 208.64770607 -52.03906794 208.18152667 -45.8984375 205.19140625 C-43.46457141 203.08413182 -42.27207059 201.18086978 -41.09364319 198.20158386 C-40.7682317 197.39003625 -40.44282021 196.57848864 -40.10754776 195.74234867 C-39.58650278 194.40845175 -39.58650278 194.40845175 -39.05493164 193.04760742 C-38.67955639 192.1049298 -38.30418114 191.16225218 -37.91743088 190.19100857 C-36.66546716 187.04165972 -35.42462342 183.88804681 -34.18359375 180.734375 C-33.29984118 178.50560706 -32.41536105 176.27712748 -31.53019714 174.04891968 C-29.15579305 168.06644028 -26.79073451 162.08030878 -24.42774963 156.09331131 C-20.52640982 146.21395729 -16.61019598 136.34047801 -12.69758987 126.46558189 C-11.22846041 122.75664854 -9.7604627 119.04726863 -8.29257202 115.33784485 C-2.8550075 101.60356014 2.62134634 87.88614968 8.1709156 74.19672966 C9.19500464 71.67004187 10.21747067 69.14270383 11.23936462 66.61512756 C11.88684639 65.01399748 12.53435257 63.41287727 13.18188477 61.81176758 C13.49155025 61.04605973 13.80121572 60.28035189 14.12026501 59.49144077 C15.92031626 55.04398725 17.73125962 50.60115603 19.54973125 46.16120529 C20.65099261 43.46497879 21.74186863 40.76464498 22.82977867 38.06300735 C23.55875236 36.26245917 24.30107517 34.4673332 25.04389954 32.67245483 C25.46737167 31.61595734 25.89084381 30.55945984 26.32714844 29.47094727 C26.69708923 28.56425797 27.06703003 27.65756866 27.44818115 26.72340393 C28.20348495 23.79643416 27.9722028 22.0644621 27.1015625 19.19140625 C23.1984078 13.27051903 18.08279654 8.7811618 11.265625 6.60546875 C8.53785603 6.08354906 5.94091838 6.0214148 3.1640625 6.00390625 C2.14441406 5.98972656 1.12476563 5.97554687 0.07421875 5.9609375 C-3.27812984 6.22084363 -4.9948142 6.46215813 -7.8984375 8.19140625 Z " fill="#000000" transform="translate(739.8984375,37.80859375)"/>
<path d="M0 0 C17.985 -0.0825 35.97 -0.165 54.5 -0.25 C60.14931641 -0.28641602 65.79863281 -0.32283203 71.61914062 -0.36035156 C78.59277344 -0.37841797 78.59277344 -0.37841797 81.87194824 -0.3817749 C84.13044399 -0.38786079 86.38892789 -0.40181 88.64733887 -0.42230225 C122.67904545 -0.71528264 122.67904545 -0.71528264 136 9 C136.83015625 9.60328125 137.6603125 10.2065625 138.515625 10.828125 C146.72864546 17.46739304 152.77385182 27.33054446 154.7890625 37.83203125 C156.34325333 53.80565921 153.69610943 69.21405273 143.59765625 82.0546875 C139.38984225 86.82565255 135.36569517 90.63084256 130 94 C132.16020484 95.6480436 134.33988214 97.23155112 136.5859375 98.76171875 C148.6998448 107.12608331 155.49636905 117.81639627 158.49609375 132.30078125 C160.71176849 148.56623848 158.97251662 161.60257868 149 175 C139.29088056 186.97102418 122.12359734 195.98740887 107 199 C103.45876996 199.27167185 99.93317721 199.25319354 96.38305664 199.22705078 C95.32160903 199.22729185 94.26016142 199.22753292 93.16654873 199.2277813 C89.74766449 199.22629446 86.32900123 199.21109045 82.91015625 199.1953125 C80.79260361 199.19237012 78.67504951 199.19033088 76.55749512 199.18920898 C68.72580782 199.1787443 60.89415172 199.15082177 53.0625 199.125 C35.551875 199.08375 18.04125 199.0425 0 199 C0 133.33 0 67.66 0 0 Z M6 6 C6 67.71 6 129.42 6 193 C22.21125 193.103125 38.4225 193.20625 55.125 193.3125 C60.21824707 193.35802002 65.31149414 193.40354004 70.55908203 193.45043945 C75.17856522 193.46717546 75.17856522 193.46717546 79.79806519 193.47721863 C81.83417242 193.48482897 83.87025904 193.50227215 85.90621948 193.52787781 C98.32965806 193.67612958 108.58644489 193.40296885 120 188 C120.94884064 187.57975052 121.89768127 187.15950104 122.87527466 186.72651672 C134.70775533 181.37876528 146.78846614 171.36147296 151.875 159.125 C155.54680756 146.5140895 153.6908589 130.87062459 147.8125 119.3125 C142.75596381 110.99563003 136.87325708 105.05342646 128 101 C127.0925 100.566875 126.185 100.13375 125.25 99.6875 C122.73196108 98.91809922 120.6184619 98.85037361 118 99 C118 97.02 118 95.04 118 93 C118.75023438 92.68289062 119.50046875 92.36578125 120.2734375 92.0390625 C134.01704919 85.77308336 141.44522472 76.71689405 147 63 C150.74299639 52.67738664 150.11929065 40.8347392 146.25390625 30.6796875 C144.33513693 26.57913999 142.08031606 23.30823182 139 20 C138.36320313 19.31035156 137.72640625 18.62070312 137.0703125 17.91015625 C129.2277045 10.19682201 118.40789259 5.8666573 107.3745575 5.87974548 C106.47763782 5.87836799 105.58071814 5.87699049 104.65661907 5.87557125 C103.6815632 5.87916936 102.70650732 5.88276747 101.7019043 5.88647461 C100.65060994 5.88635407 99.59931559 5.88623354 98.51616383 5.88610935 C95.11882715 5.88685474 91.72154559 5.89446597 88.32421875 5.90234375 C86.22448757 5.90381433 84.12475603 5.90483433 82.02502441 5.90539551 C74.24584401 5.91063497 66.46667146 5.92459619 58.6875 5.9375 C41.300625 5.958125 23.91375 5.97875 6 6 Z " fill="#000000" transform="translate(0,0)"/>
<path d="M0 0 C0 1.65 0 3.3 0 5 C0.6290625 4.79503906 1.258125 4.59007812 1.90625 4.37890625 C7.27991862 2.68749549 12.37283391 1.35710862 18 1 C18.7115625 0.94714844 19.423125 0.89429688 20.15625 0.83984375 C40.71453376 0.05177621 61.63836509 8.67644339 77 22 C77.73347656 22.59554687 78.46695313 23.19109375 79.22265625 23.8046875 C82.86419699 28.30259056 81.55323847 34.53605719 81 40 C79.09672917 49.52761612 75.10969194 56.28386041 67.25 62 C62.3680072 63.50215163 58.04549896 63.98145322 53 63 C50.353846 61.47240952 48.06886664 59.70607342 45.6640625 57.82421875 C38.32247771 52.79706318 28.78186612 50.8414802 20 52 C16.47862518 52.6595764 13.33429104 53.70749546 10 55 C9.19944183 55.25399567 8.39888367 55.50799133 7.57406616 55.76968384 C4.51706506 57.15157649 3.0116148 58.27974892 1 61 C-0.44768426 66.69687688 0.02340222 72.78809098 0.19945145 78.61307907 C0.29008904 81.68320916 0.32245904 84.74909857 0.33944702 87.82046509 C0.39252312 95.44465538 0.53494063 103.06651225 0.6942749 110.68914795 C0.82777013 117.13371631 0.91762549 123.57576038 0.94538498 130.02168655 C0.97609321 133.03981374 1.07112677 136.05158431 1.1678772 139.06820679 C1.36584162 152.27975439 1.36584162 152.27975439 -2.38140869 156.99932861 C-5.18654216 159.08104487 -7.81088013 160.59377699 -11 162 C-12.06037979 162.5636879 -12.06037979 162.5636879 -13.1421814 163.13876343 C-19.77406241 166.55824188 -28.74775862 165.94034267 -35.80859375 164.37890625 C-42.19893761 162.13580583 -47.9511983 158.47273702 -52 153 C-53.28184215 148.18219825 -53.18334097 143.44147242 -53.08520508 138.4934082 C-53.08922016 137.03236375 -53.09714372 135.57132564 -53.10865784 134.11032104 C-53.12824936 130.1613583 -53.09197697 126.21472163 -53.04427171 122.26607156 C-53.00273542 118.12714263 -53.00934127 113.98826505 -53.00968933 109.84916687 C-53.00319839 102.90287297 -52.96227941 95.95746862 -52.89868164 89.01147461 C-52.82541721 80.98485454 -52.79736887 72.95910856 -52.795533 64.93217403 C-52.79328341 56.3760308 -52.76053172 47.82021212 -52.71751952 39.26418662 C-52.7070374 36.80222512 -52.70197491 34.34030054 -52.69800758 31.87832069 C-52.69008956 28.00957414 -52.6615348 24.14150016 -52.61707115 20.27300644 C-52.60380677 18.85448457 -52.59725593 17.43588147 -52.59794617 16.01729774 C-52.59766918 14.07945936 -52.57028745 12.14168155 -52.5415802 10.20405579 C-52.533578 9.12027806 -52.52557581 8.03650034 -52.51733112 6.91988087 C-51.87687737 3.30508065 -50.50561134 1.63311409 -48 -1 C-46.03515625 -2.328125 -46.03515625 -2.328125 -44.0625 -3.25 C-43.41410156 -3.56453125 -42.76570313 -3.8790625 -42.09765625 -4.203125 C-28.78148009 -9.2617841 -12.63512162 -5.30675108 0 0 Z M-44.68111897 4.2413969 C-46.58183372 6.77582023 -46.39192709 8.67759248 -46.41459656 11.82514954 C-46.43028183 13.04065491 -46.4459671 14.25616028 -46.46212769 15.50849915 C-46.46426884 16.857635 -46.4660575 18.20677145 -46.4675293 19.5559082 C-46.47977876 20.97517947 -46.49323085 22.3944408 -46.50779724 23.81369019 C-46.54288126 27.67124097 -46.55811181 31.52862059 -46.56763434 35.38631082 C-46.5742076 37.79669265 -46.58455169 40.20702899 -46.59613991 42.61739159 C-46.63588948 51.02741499 -46.65790062 59.43730132 -46.66577148 67.84741211 C-46.67364104 75.68499546 -46.72286668 83.52159987 -46.79083699 91.3588708 C-46.84716129 98.08851159 -46.87268471 104.8178269 -46.87471896 111.54770154 C-46.87655978 115.56686233 -46.89120401 119.58499134 -46.93753624 123.60390663 C-46.98020969 127.3858511 -46.98455874 131.16593965 -46.95974159 134.94802475 C-46.95715692 136.33396358 -46.96818926 137.72000664 -46.99401855 139.10570717 C-47.33244309 146.62119254 -47.33244309 146.62119254 -44.24550819 153.14308739 C-42.22167183 154.69463688 -40.29050071 155.88923471 -38 157 C-37.15050781 157.44601563 -36.30101562 157.89203125 -35.42578125 158.3515625 C-28.06631241 160.31882792 -19.52916166 160.19477897 -12.84375 156.36328125 C-11.93109375 155.68845703 -11.93109375 155.68845703 -11 155 C-9.47843544 153.99621559 -9.47843544 153.99621559 -7.9261322 152.97215271 C-6.05549002 151.39324644 -5.13130837 150.46217441 -4.45776558 148.09146309 C-4.27087448 145.73541259 -4.27226884 143.44496358 -4.33813477 141.08227539 C-4.33874908 140.19385452 -4.3393634 139.30543365 -4.33999634 138.39009094 C-4.34496761 136.4655538 -4.36360897 134.54101393 -4.39438057 132.61671638 C-4.44185781 129.56866628 -4.45111321 126.52262355 -4.45018005 123.47422791 C-4.45523832 115.90516811 -4.52100157 108.33691739 -4.59448242 100.76824951 C-4.65537078 94.37033439 -4.68857952 87.97353095 -4.68269157 81.57531548 C-4.69129097 78.57537352 -4.7409293 75.57786599 -4.79164124 72.5783844 C-4.79363675 70.73463039 -4.79361683 68.89087272 -4.79125977 67.04711914 C-4.81650223 66.21627808 -4.84174469 65.38543701 -4.86775208 64.52941895 C-4.82646871 61.1127768 -4.72724906 58.89359433 -2.52470207 56.18725395 C5.65463808 48.98969453 15.67551096 45.43258887 26.5625 45.75390625 C37.34177903 46.84219884 47.03452983 51.02301989 56 57 C60.10849381 57.46511251 62.4549354 57.26718853 66.1875 55.4375 C70.97891 51.28494467 73.46711066 46.13155737 75 40 C75.23976563 39.17371094 75.47953125 38.34742188 75.7265625 37.49609375 C76.3772243 34.37725486 76.57759816 32.14178393 76 29 C66.77182446 16.7352026 46.67449193 10.20851557 32.375 7.25 C19.43628926 6.29157698 7.01095864 7.8524463 -5 13 C-5 10.03 -5 7.06 -5 4 C-25.33350183 -1.98224829 -25.33350183 -1.98224829 -44.68111897 4.2413969 Z " fill="#000000" transform="translate(533,44)"/>
<path d="M0 0 C0 1.65 0 3.3 0 5 C0.6290625 4.79503906 1.258125 4.59007812 1.90625 4.37890625 C7.27991862 2.68749549 12.37283391 1.35710862 18 1 C18.7115625 0.94714844 19.423125 0.89429688 20.15625 0.83984375 C40.71453376 0.05177621 61.63836509 8.67644339 77 22 C77.73347656 22.59554687 78.46695313 23.19109375 79.22265625 23.8046875 C82.86419699 28.30259056 81.55323847 34.53605719 81 40 C79.09672917 49.52761612 75.10969194 56.28386041 67.25 62 C62.3680072 63.50215163 58.04549896 63.98145322 53 63 C50.353846 61.47240952 48.06886664 59.70607342 45.6640625 57.82421875 C38.32247771 52.79706318 28.78186612 50.8414802 20 52 C16.47862518 52.6595764 13.33429104 53.70749546 10 55 C9.19944183 55.25399567 8.39888367 55.50799133 7.57406616 55.76968384 C4.51706506 57.15157649 3.0116148 58.27974892 1 61 C-0.44768426 66.69687688 0.02340222 72.78809098 0.19945145 78.61307907 C0.29008904 81.68320916 0.32245904 84.74909857 0.33944702 87.82046509 C0.39252312 95.44465538 0.53494063 103.06651225 0.6942749 110.68914795 C0.82777013 117.13371631 0.91762549 123.57576038 0.94538498 130.02168655 C0.97609321 133.03981374 1.07112677 136.05158431 1.1678772 139.06820679 C1.36584162 152.27975439 1.36584162 152.27975439 -2.38140869 156.99932861 C-5.18654216 159.08104487 -7.81088013 160.59377699 -11 162 C-12.06037979 162.5636879 -12.06037979 162.5636879 -13.1421814 163.13876343 C-19.77406241 166.55824188 -28.74775862 165.94034267 -35.80859375 164.37890625 C-42.19893761 162.13580583 -47.9511983 158.47273702 -52 153 C-53.28184215 148.18219825 -53.18334097 143.44147242 -53.08520508 138.4934082 C-53.08922016 137.03236375 -53.09714372 135.57132564 -53.10865784 134.11032104 C-53.12824936 130.1613583 -53.09197697 126.21472163 -53.04427171 122.26607156 C-53.00273542 118.12714263 -53.00934127 113.98826505 -53.00968933 109.84916687 C-53.00319839 102.90287297 -52.96227941 95.95746862 -52.89868164 89.01147461 C-52.82541721 80.98485454 -52.79736887 72.95910856 -52.795533 64.93217403 C-52.79328341 56.3760308 -52.76053172 47.82021212 -52.71751952 39.26418662 C-52.7070374 36.80222512 -52.70197491 34.34030054 -52.69800758 31.87832069 C-52.69008956 28.00957414 -52.6615348 24.14150016 -52.61707115 20.27300644 C-52.60380677 18.85448457 -52.59725593 17.43588147 -52.59794617 16.01729774 C-52.59766918 14.07945936 -52.57028745 12.14168155 -52.5415802 10.20405579 C-52.533578 9.12027806 -52.52557581 8.03650034 -52.51733112 6.91988087 C-51.87687737 3.30508065 -50.50561134 1.63311409 -48 -1 C-46.03515625 -2.328125 -46.03515625 -2.328125 -44.0625 -3.25 C-43.41410156 -3.56453125 -42.76570313 -3.8790625 -42.09765625 -4.203125 C-28.78148009 -9.2617841 -12.63512162 -5.30675108 0 0 Z M-44.68111897 4.2413969 C-46.58183372 6.77582023 -46.39192709 8.67759248 -46.41459656 11.82514954 C-46.43028183 13.04065491 -46.4459671 14.25616028 -46.46212769 15.50849915 C-46.46426884 16.857635 -46.4660575 18.20677145 -46.4675293 19.5559082 C-46.47977876 20.97517947 -46.49323085 22.3944408 -46.50779724 23.81369019 C-46.54288126 27.67124097 -46.55811181 31.52862059 -46.56763434 35.38631082 C-46.5742076 37.79669265 -46.58455169 40.20702899 -46.59613991 42.61739159 C-46.63588948 51.02741499 -46.65790062 59.43730132 -46.66577148 67.84741211 C-46.67364104 75.68499546 -46.72286668 83.52159987 -46.79083699 91.3588708 C-46.84716129 98.08851159 -46.87268471 104.8178269 -46.87471896 111.54770154 C-46.87655978 115.56686233 -46.89120401 119.58499134 -46.93753624 123.60390663 C-46.98020969 127.3858511 -46.98455874 131.16593965 -46.95974159 134.94802475 C-46.95715692 136.33396358 -46.96818926 137.72000664 -46.99401855 139.10570717 C-47.33244309 146.62119254 -47.33244309 146.62119254 -44.24550819 153.14308739 C-42.22167183 154.69463688 -40.29050071 155.88923471 -38 157 C-37.15050781 157.44601563 -36.30101562 157.89203125 -35.42578125 158.3515625 C-28.06631241 160.31882792 -19.52916166 160.19477897 -12.84375 156.36328125 C-11.93109375 155.68845703 -11.93109375 155.68845703 -11 155 C-9.47843544 153.99621559 -9.47843544 153.99621559 -7.9261322 152.97215271 C-6.05549002 151.39324644 -5.13130837 150.46217441 -4.45776558 148.09146309 C-4.27087448 145.73541259 -4.27226884 143.44496358 -4.33813477 141.08227539 C-4.33874908 140.19385452 -4.3393634 139.30543365 -4.33999634 138.39009094 C-4.34496761 136.4655538 -4.36360897 134.54101393 -4.39438057 132.61671638 C-4.44185781 129.56866628 -4.45111321 126.52262355 -4.45018005 123.47422791 C-4.45523832 115.90516811 -4.52100157 108.33691739 -4.59448242 100.76824951 C-4.65537078 94.37033439 -4.68857952 87.97353095 -4.68269157 81.57531548 C-4.69129097 78.57537352 -4.7409293 75.57786599 -4.79164124 72.5783844 C-4.79363675 70.73463039 -4.79361683 68.89087272 -4.79125977 67.04711914 C-4.81650223 66.21627808 -4.84174469 65.38543701 -4.86775208 64.52941895 C-4.82646871 61.1127768 -4.72724906 58.89359433 -2.52470207 56.18725395 C5.65463808 48.98969453 15.67551096 45.43258887 26.5625 45.75390625 C37.34177903 46.84219884 47.03452983 51.02301989 56 57 C60.10849381 57.46511251 62.4549354 57.26718853 66.1875 55.4375 C70.97891 51.28494467 73.46711066 46.13155737 75 40 C75.23976563 39.17371094 75.47953125 38.34742188 75.7265625 37.49609375 C76.3772243 34.37725486 76.57759816 32.14178393 76 29 C66.77182446 16.7352026 46.67449193 10.20851557 32.375 7.25 C19.43628926 6.29157698 7.01095864 7.8524463 -5 13 C-5 10.03 -5 7.06 -5 4 C-25.33350183 -1.98224829 -25.33350183 -1.98224829 -44.68111897 4.2413969 Z " fill="#000000" transform="translate(389,44)"/>
<path d="M0 0 C7.899375 -0.144375 15.79875 -0.28875 23.9375 -0.4375 C26.4137085 -0.50122803 28.88991699 -0.56495605 31.44116211 -0.63061523 C33.42819574 -0.65108057 35.41525896 -0.66891313 37.40234375 -0.68359375 C38.92027527 -0.7373114 38.92027527 -0.7373114 40.46887207 -0.79211426 C47.25938187 -0.79789482 50.9547857 0.65108331 56.10328674 5.09605408 C61.76478165 10.77913775 65.54330347 16.15901682 66.3125 24.3125 C65.44032068 34.60421603 60.70211078 41.80675694 53.08081055 48.60327148 C48.21153932 52.01472222 43.35575072 51.63237544 37.59765625 51.48828125 C36.64145386 51.48324585 35.68525146 51.47821045 34.70007324 51.47302246 C31.1539072 51.44701078 27.60817111 51.37720412 24.0625 51.3125 C16.121875 51.209375 8.18125 51.10625 0 51 C0 34.17 0 17.34 0 0 Z M5 6 C5 19.2 5 32.4 5 46 C11.579375 46.165 18.15875 46.33 24.9375 46.5 C26.99605225 46.57283203 29.05460449 46.64566406 31.17553711 46.72070312 C42.16587042 47.19058415 42.16587042 47.19058415 51.625 42.28515625 C56.30625544 37.07008429 59.5712805 31.21539628 60.5 24.25 C59.38326626 16.99123069 55.32991379 12.70001489 50 8 C46.90944045 5.93962697 46.29073838 5.75200758 42.80395508 5.77294922 C41.54298759 5.77317581 41.54298759 5.77317581 40.25654602 5.77340698 C38.90172371 5.78889084 38.90172371 5.78889084 37.51953125 5.8046875 C36.59154221 5.8075174 35.66355316 5.81034729 34.70744324 5.81326294 C31.74233121 5.82446164 28.77752079 5.84956565 25.8125 5.875 C23.80273874 5.8850302 21.79297274 5.89415598 19.78320312 5.90234375 C14.85525895 5.92269874 9.92796725 5.961848 5 6 Z " fill="#000000" transform="translate(45,109)"/>
<path d="M0 0 C7.05375 -0.165 14.1075 -0.33 21.375 -0.5 C23.58106934 -0.57283203 25.78713867 -0.64566406 28.06005859 -0.72070312 C44.08701982 -1.03040588 44.08701982 -1.03040588 50.19140625 3.73046875 C56.25798692 9.79275348 61.07815583 16.4427621 61.3125 25.1875 C61.26124801 30.73003712 60.02261762 34.40814885 57 39 C56.443125 39.86625 55.88625 40.7325 55.3125 41.625 C50.66091911 46.40229929 45.78112864 50.26883604 38.93920898 50.68115234 C37.12456027 50.67967762 35.30969784 50.64751971 33.49609375 50.5859375 C32.64019653 50.57989502 31.78429932 50.57385254 30.90246582 50.56762695 C27.74697686 50.5365577 24.59218293 50.45279142 21.4375 50.375 C10.8259375 50.189375 10.8259375 50.189375 0 50 C0 33.5 0 17 0 0 Z M5 6 C5 18.54 5 31.08 5 44 C11.084375 44.165 17.16875 44.33 23.4375 44.5 C26.29039673 44.60924805 26.29039673 44.60924805 29.20092773 44.72070312 C39.67055996 45.09704146 39.67055996 45.09704146 48.59375 40.15234375 C53.22648043 35.01577449 55.73590555 30.36944998 55.4765625 23.3671875 C54.13296598 16.69325725 49.07763349 11.56305199 44.03160095 7.29698181 C40.53965173 5.06770808 37.25925794 5.2516864 33.22265625 5.4140625 C32.50235229 5.42010498 31.78204834 5.42614746 31.03991699 5.43237305 C28.38018481 5.46348103 25.72127751 5.54724925 23.0625 5.625 C14.1215625 5.810625 14.1215625 5.810625 5 6 Z " fill="#000000" transform="translate(45,34)"/>
<path d="M0 0 C0.67289062 0.4125 1.34578125 0.825 2.0390625 1.25 C11.7533166 7.85119197 16.18052317 16.39715098 21 27 C-4.08 27 -29.16 27 -55 27 C-51.1268339 15.38050171 -46.76279518 5.8063492 -35.6640625 -0.28125 C-24.64788878 -5.40505173 -10.57274497 -6.68632093 0 0 Z M-41 11 C-44.97006415 16.14418762 -44.97006415 16.14418762 -47 22 C-27.86 22 -8.72 22 11 22 C7.67286325 13.68215813 1.7282876 7.81685219 -5.9375 3.25 C-17.42671113 -1.28060395 -32.64082384 2.05762551 -41 11 Z " fill="#000000" transform="translate(269,86)"/>
<path d="M0 0 C3.4939071 2.50844613 3.93432573 3.73730292 5 8 C8.3 8 11.6 8 15 8 C15 8.99 15 9.98 15 11 C14.24074219 11.02578125 13.48148438 11.0515625 12.69921875 11.078125 C11.70535156 11.13484375 10.71148437 11.1915625 9.6875 11.25 C8.70136719 11.29640625 7.71523438 11.3428125 6.69921875 11.390625 C3.35575833 12.14544385 2.8610922 13.23786028 1 16 C-2.97344161 17.10373378 -5.08999772 17.41543583 -8.875 15.6875 C-11 14 -11 14 -12 12 C-12.56872038 4.9478673 -12.56872038 4.9478673 -10.5 1.5 C-6.98210132 -0.61073921 -4.00324076 -0.82202069 0 0 Z " fill="#000000" transform="translate(28,14)"/>
<path d="M0 0 C1.9375 1.0625 1.9375 1.0625 3 3 C3.651622 9.08180536 3.651622 9.08180536 1.625 11.9375 C0 13 0 13 -2 13 C-2 13.66 -2 14.32 -2 15 C-2.66 15 -3.32 15 -4 15 C-4 14.34 -4 13.68 -4 13 C-4.61875 12.87625 -5.2375 12.7525 -5.875 12.625 C-8 12 -8 12 -10 10 C-10.54587156 3.99541284 -10.54587156 3.99541284 -8.9375 1.0625 C-5.88023824 -0.6140629 -3.4093712 -0.36528977 0 0 Z " fill="#000000" transform="translate(509,52)"/>
<path d="M0 0 C1.9375 1.0625 1.9375 1.0625 3 3 C3.651622 9.08180536 3.651622 9.08180536 1.625 11.9375 C0 13 0 13 -2 13 C-2 13.66 -2 14.32 -2 15 C-2.66 15 -3.32 15 -4 15 C-4 14.34 -4 13.68 -4 13 C-4.61875 12.87625 -5.2375 12.7525 -5.875 12.625 C-8 12 -8 12 -10 10 C-10.54587156 3.99541284 -10.54587156 3.99541284 -8.9375 1.0625 C-5.88023824 -0.6140629 -3.4093712 -0.36528977 0 0 Z " fill="#000000" transform="translate(365,52)"/>
<path d="M0 0 C1.9375 1.0625 1.9375 1.0625 3 3 C3.36528977 6.4093712 3.6140629 8.88023824 1.9375 11.9375 C-1.11976176 13.6140629 -3.5906288 13.36528977 -7 13 C-8.9375 11.9375 -8.9375 11.9375 -10 10 C-10.36528977 6.5906288 -10.6140629 4.11976176 -8.9375 1.0625 C-5.88023824 -0.6140629 -3.4093712 -0.36528977 0 0 Z " fill="#000000" transform="translate(199,118)"/>
<path d="M0 0 C1.9375 1.0625 1.9375 1.0625 3 3 C3.36528977 6.4093712 3.6140629 8.88023824 1.9375 11.9375 C-1.11976176 13.6140629 -3.5906288 13.36528977 -7 13 C-8.9375 11.9375 -8.9375 11.9375 -10 10 C-10.36528977 6.5906288 -10.6140629 4.11976176 -8.9375 1.0625 C-5.88023824 -0.6140629 -3.4093712 -0.36528977 0 0 Z " fill="#000000" transform="translate(750,54)"/>
<path d="M0 0 C1.9375 1.0625 1.9375 1.0625 3 3 C3.36528977 6.4093712 3.6140629 8.88023824 1.9375 11.9375 C-1.11976176 13.6140629 -3.5906288 13.36528977 -7 13 C-8.9375 11.9375 -8.9375 11.9375 -10 10 C-10.36528977 6.5906288 -10.6140629 4.11976176 -8.9375 1.0625 C-5.88023824 -0.6140629 -3.4093712 -0.36528977 0 0 Z " fill="#000000" transform="translate(651,54)"/>
<path d="M0 0 C0.556875 0.144375 1.11375 0.28875 1.6875 0.4375 C2.8321875 0.7159375 2.8321875 0.7159375 4 1 C5.2684375 1.3403125 5.2684375 1.3403125 6.5625 1.6875 C9.25525964 2.30360761 9.25525964 2.30360761 12 0 C12.99 0 13.98 0 15 0 C14.52753358 4.25219775 12.22727623 6.37314725 9 9 C5.7701086 9.20186821 4.70944319 7.74906457 2.25 5.625 C0 3 0 3 0 0 Z " fill="#000000" transform="translate(17,174)"/>
<path d="M0 0 C1.45880109 0.14107747 2.91703551 0.28802415 4.375 0.4375 C5.59316406 0.55931641 5.59316406 0.55931641 6.8359375 0.68359375 C9 1 9 1 11 2 C11.14285714 9.42857143 11.14285714 9.42857143 10 13 C9.01 13 8.02 13 7 13 C7.33 11.02 7.66 9.04 8 7 C7.01 7 6.02 7 5 7 C5 6.01 5 5.02 5 4 C3.35 3.67 1.7 3.34 0 3 C0 2.01 0 1.02 0 0 Z " fill="#000000" transform="translate(290,161)"/>
<path d="M0 0 C-0.309375 0.556875 -0.61875 1.11375 -0.9375 1.6875 C-2.1040584 4.22648005 -2.79048458 6.20646106 -3 9 C-1.62831762 11.19038423 -1.62831762 11.19038423 0 13 C0 13.66 0 14.32 0 15 C-4.25219775 14.52753358 -6.37314725 12.22727623 -9 9 C-9.20186821 5.7701086 -7.74906457 4.70944319 -5.625 2.25 C-3 0 -3 0 0 0 Z " fill="#000000" transform="translate(47,174)"/>
<path d="M0 0 C-0.309375 0.556875 -0.61875 1.11375 -0.9375 1.6875 C-2.1040584 4.22648005 -2.79048458 6.20646106 -3 9 C-1.62831762 11.19038423 -1.62831762 11.19038423 0 13 C0 13.66 0 14.32 0 15 C-4.25219775 14.52753358 -6.37314725 12.22727623 -9 9 C-9.20186821 5.7701086 -7.74906457 4.70944319 -5.625 2.25 C-3 0 -3 0 0 0 Z " fill="#000000" transform="translate(47,89)"/>
<path d="M0 0 C0.99 0 1.98 0 3 0 C1.98425197 7.4488189 1.98425197 7.4488189 0 10 C-3.125 10.75 -3.125 10.75 -6 11 C-6.66 9.35 -7.32 7.7 -8 6 C-7.01 5.67 -6.02 5.34 -5 5 C-4.67 5.99 -4.34 6.98 -4 8 C-3.34 8 -2.68 8 -2 8 C-1.855625 7.236875 -1.71125 6.47375 -1.5625 5.6875 C-1 3 -1 3 0 0 Z " fill="#000000" transform="translate(708,153)"/>
<path d="M0 0 C0.33 1.65 0.66 3.3 1 5 C-2.98196457 6.05404945 -5.98195309 5.84098656 -10 5 C-10 4.01 -10 3.02 -10 2 C-3.375 0 -3.375 0 0 0 Z " fill="#000000" transform="translate(101,93)"/>
<path d="M0 0 C3.93673644 1.31224548 6.22719294 2.91910327 9 6 C8.67 6.99 8.34 7.98 8 9 C3.7257442 7.4169423 1.73468206 4.49431596 -1 1 C-0.67 0.67 -0.34 0.34 0 0 Z " fill="#000000" transform="translate(109,102)"/>
<path d="M0 0 C0 0.99 0 1.98 0 3 C-1.26418246 3.69965443 -2.53665402 4.38434763 -3.8125 5.0625 C-4.52019531 5.44535156 -5.22789062 5.82820312 -5.95703125 6.22265625 C-8 7 -8 7 -11 6 C-11 5.34 -11 4.68 -11 4 C-9.73308493 3.32591692 -8.46129251 2.66099503 -7.1875 2 C-6.47980469 1.62875 -5.77210938 1.2575 -5.04296875 0.875 C-3 0 -3 0 0 0 Z " fill="#000000" transform="translate(287,172)"/>
<path d="M0 0 C1.75 0.125 1.75 0.125 4 1 C8 6.11111111 8 6.11111111 8 10 C6.25 9.9375 6.25 9.9375 4 9 C1.99159505 6.29950956 0 3.44873267 0 0 Z " fill="#000000" transform="translate(202,159)"/>
<path d="M0 0 C3.63 0.33 7.26 0.66 11 1 C11 1.99 11 2.98 11 4 C9.56260487 4.02712066 8.12506137 4.04645067 6.6875 4.0625 C5.48673828 4.07990234 5.48673828 4.07990234 4.26171875 4.09765625 C2 4 2 4 -1 3 C-0.67 2.01 -0.34 1.02 0 0 Z " fill="#000000" transform="translate(236,183)"/>
<path d="M0 0 C-3.12621626 3.39417765 -5.56541027 5.6062718 -10 7 C-10.33 6.01 -10.66 5.02 -11 4 C-9.73760288 3.13341385 -8.46472499 2.28207941 -7.1875 1.4375 C-6.47980469 0.96183594 -5.77210937 0.48617187 -5.04296875 -0.00390625 C-3 -1 -3 -1 0 0 Z " fill="#000000" transform="translate(120,171)"/>
<path d="M0 0 C4.2742558 1.5830577 6.26531794 4.50568404 9 8 C8.67 8.66 8.34 9.32 8 10 C4.20401451 8.50871999 2.28279601 6.34266559 0 3 C0 2.01 0 1.02 0 0 Z " fill="#000000" transform="translate(286,82)"/>
<path d="M0 0 C0.99 0.33 1.98 0.66 3 1 C1.49776416 5.20626034 -1.28550034 6.73900021 -5 9 C-5 5 -5 5 -2.5 2.25 C-1.675 1.5075 -0.85 0.765 0 0 Z " fill="#000000" transform="translate(114,81)"/>
<path d="M0 0 C3 1 3 1 4.16796875 3.06640625 C4.50441406 3.89011719 4.84085938 4.71382813 5.1875 5.5625 C5.53167969 6.38878906 5.87585938 7.21507813 6.23046875 8.06640625 C6.48441406 8.70449219 6.73835937 9.34257813 7 10 C6.01 10.33 5.02 10.66 4 11 C2.35 7.7 0.7 4.4 -1 1 C-0.67 0.67 -0.34 0.34 0 0 Z " fill="#000000" transform="translate(654,71)"/>
<path d="M0 0 C0 0.66 0 1.32 0 2 C-1.43344 2.53190541 -2.87195367 3.05015258 -4.3125 3.5625 C-5.51326172 3.99755859 -5.51326172 3.99755859 -6.73828125 4.44140625 C-9 5 -9 5 -12 4 C-12 3.34 -12 2.68 -12 2 C-10.37787941 1.47026689 -8.75218416 0.95146893 -7.125 0.4375 C-6.22007812 0.14746094 -5.31515625 -0.14257812 -4.3828125 -0.44140625 C-2 -1 -2 -1 0 0 Z " fill="#000000" transform="translate(268,181)"/>
<path d="M0 0 C4.00458831 0.61609051 6.83019669 2.55060653 10 5 C10 5.99 10 6.98 10 8 C6.4134946 6.66786942 3.12317517 5.23083941 0 3 C0 2.01 0 1.02 0 0 Z " fill="#000000" transform="translate(216,175)"/>
<path d="M0 0 C2.475 0.99 2.475 0.99 5 2 C4.690625 2.53625 4.38125 3.0725 4.0625 3.625 C2.82172561 6.3984957 2.4090325 9.00042837 2 12 C1.34 12 0.68 12 0 12 C0 8.04 0 4.08 0 0 Z " fill="#000000" transform="translate(505,97)"/>
<path d="M0 0 C2.475 0.99 2.475 0.99 5 2 C4.690625 2.53625 4.38125 3.0725 4.0625 3.625 C2.82172561 6.3984957 2.4090325 9.00042837 2 12 C1.34 12 0.68 12 0 12 C0 8.04 0 4.08 0 0 Z " fill="#000000" transform="translate(361,97)"/>
<path d="M0 0 C0.99 0.33 1.98 0.66 3 1 C3 1.66 3 2.32 3 3 C1.57421875 4.32421875 1.57421875 4.32421875 -0.3125 5.6875 C-0.92738281 6.14511719 -1.54226562 6.60273437 -2.17578125 7.07421875 C-2.77777344 7.37972656 -3.37976563 7.68523437 -4 8 C-4.99 7.67 -5.98 7.34 -7 7 C-5.65117186 2.95351557 -3.65173931 2.04497401 0 0 Z " fill="#000000" transform="translate(221,71)"/>
<path d="M0 0 C3.93619738 0.56231391 6.79192446 1.61685817 10 4 C10 4.99 10 5.98 10 7 C6.33118845 6.29445932 3.29549466 4.72264494 0 3 C0 2.01 0 1.02 0 0 Z " fill="#000000" transform="translate(269,70)"/>
<path d="M0 0 C0.99 0 1.98 0 3 0 C3 3.63 3 7.26 3 11 C2.01 11 1.02 11 0 11 C0 7.37 0 3.74 0 0 Z " fill="#000000" transform="translate(23,156)"/>
<path d="M0 0 C0.99 0 1.98 0 3 0 C4.19287411 3.87684087 5 6.91621923 5 11 C4.01 11 3.02 11 2 11 C1.34 7.37 0.68 3.74 0 0 Z " fill="#000000" transform="translate(195,139)"/>
<path d="M0 0 C0.99 0 1.98 0 3 0 C3 3.63 3 7.26 3 11 C2.01 11 1.02 11 0 11 C0 7.37 0 3.74 0 0 Z " fill="#000000" transform="translate(23,135)"/>
<path d="M0 0 C0.99 0 1.98 0 3 0 C4.32 2.97 5.64 5.94 7 9 C5.68 9 4.36 9 3 9 C0 3.375 0 3.375 0 0 Z " fill="#000000" transform="translate(682,124)"/>
<path d="M0 0 C0.99 0 1.98 0 3 0 C3 3.63 3 7.26 3 11 C2.01 11 1.02 11 0 11 C0 7.37 0 3.74 0 0 Z " fill="#000000" transform="translate(23,115)"/>
<path d="M0 0 C3 1 3 1 4.16796875 3.06640625 C4.50441406 3.89011719 4.84085937 4.71382813 5.1875 5.5625 C5.53167969 6.38878906 5.87585938 7.21507813 6.23046875 8.06640625 C6.48441406 8.70449219 6.73835938 9.34257813 7 10 C6.01 10.33 5.02 10.66 4 11 C2.35 7.7 0.7 4.4 -1 1 C-0.67 0.67 -0.34 0.34 0 0 Z " fill="#000000" transform="translate(299,99)"/>
<path d="M0 0 C0.99 0 1.98 0 3 0 C3 3.63 3 7.26 3 11 C2.01 11 1.02 11 0 11 C0 7.37 0 3.74 0 0 Z " fill="#000000" transform="translate(23,94)"/>
<path d="M0 0 C0.99 0 1.98 0 3 0 C6.22265625 5.17578125 6.22265625 5.17578125 7 7 C6.67 7.99 6.34 8.98 6 10 C5.34 10 4.68 10 4 10 C0 3.375 0 3.375 0 0 Z " fill="#000000" transform="translate(663,89)"/>
<path d="M0 0 C0 0.99 0 1.98 0 3 C-2.97 4.32 -5.94 5.64 -9 7 C-9 5.68 -9 4.36 -9 3 C-3.375 0 -3.375 0 0 0 Z " fill="#000000" transform="translate(539,74)"/>
<path d="M0 0 C0 0.99 0 1.98 0 3 C-2.97 4.32 -5.94 5.64 -9 7 C-9 5.68 -9 4.36 -9 3 C-3.375 0 -3.375 0 0 0 Z " fill="#000000" transform="translate(395,74)"/>
<path d="M0 0 C0.99 0 1.98 0 3 0 C3 3.63 3 7.26 3 11 C2.01 11 1.02 11 0 11 C0 7.37 0 3.74 0 0 Z " fill="#000000" transform="translate(23,74)"/>
<path d="M0 0 C1.258125 -0.020625 2.51625 -0.04125 3.8125 -0.0625 C4.52019531 -0.07410156 5.22789062 -0.08570312 5.95703125 -0.09765625 C8 0 8 0 11 1 C11 1.99 11 2.98 11 4 C7.37 3.67 3.74 3.34 0 3 C0 2.01 0 1.02 0 0 Z " fill="#000000" transform="translate(249,65)"/>
<path d="M0 0 C0.99 0 1.98 0 3 0 C3 3.63 3 7.26 3 11 C2.01 11 1.02 11 0 11 C0 7.37 0 3.74 0 0 Z " fill="#000000" transform="translate(23,53)"/>
<path d="M0 0 C0.99 0 1.98 0 3 0 C3 3.63 3 7.26 3 11 C2.01 11 1.02 11 0 11 C0 7.37 0 3.74 0 0 Z " fill="#000000" transform="translate(23,33)"/>
<path d="M0 0 C3.63 0 7.26 0 11 0 C11 0.99 11 1.98 11 3 C7.37 3 3.74 3 0 3 C0 2.01 0 1.02 0 0 Z " fill="#000000" transform="translate(71,22)"/>
<path d="M0 0 C0.66 0.33 1.32 0.66 2 1 C1.39009109 4.55780196 0.4216319 7.6828589 -1 11 C-1.99 10.67 -2.98 10.34 -4 10 C-3.52449439 8.51965236 -3.04448784 7.04074979 -2.5625 5.5625 C-2.29566406 4.73878906 -2.02882813 3.91507813 -1.75390625 3.06640625 C-1 1 -1 1 0 0 Z " fill="#000000" transform="translate(695,188)"/>
<path d="M0 0 C0.99 0 1.98 0 3 0 C1.85569823 3.87302138 0.76679902 7.00263439 -2 10 C-2.66 10 -3.32 10 -4 10 C-3.43768609 6.06380262 -2.38314183 3.20807554 0 0 Z " fill="#000000" transform="translate(129,155)"/>
<path d="M0 0 C0.66 0 1.32 0 2 0 C6 6.625 6 6.625 6 10 C5.01 10 4.02 10 3 10 C-0.22265625 4.82421875 -0.22265625 4.82421875 -1 3 C-0.67 2.01 -0.34 1.02 0 0 Z " fill="#000000" transform="translate(692,141)"/>
<path d="M0 0 C0.99 0 1.98 0 3 0 C3.33 3.63 3.66 7.26 4 11 C3.01 11 2.02 11 1 11 C0.67 7.37 0.34 3.74 0 0 Z " fill="#000000" transform="translate(130,135)"/>
<path d="M0 0 C0.99 0 1.98 0 3 0 C3.66 2.31 4.32 4.62 5 7 C2.69 7 0.38 7 -2 7 C-2 6.01 -2 5.02 -2 4 C-1.34 3.67 -0.68 3.34 0 3 C0 2.01 0 1.02 0 0 Z " fill="#000000" transform="translate(307,118)"/>
<path d="M0 0 C1.8125 0.1875 1.8125 0.1875 4 1 C6.53370588 4.34811134 7 5.70124217 7 10 C2.57320993 8.52440331 2.08567304 6.09942632 0 2 C0 1.34 0 0.68 0 0 Z " fill="#000000" transform="translate(122,117)"/>
<path d="M0 0 C0.66 0 1.32 0 2 0 C6 6.625 6 6.625 6 10 C5.01 10 4.02 10 3 10 C1.68 7.03 0.36 4.06 -1 1 C-0.67 0.67 -0.34 0.34 0 0 Z " fill="#000000" transform="translate(673,106)"/>
<path d="M0 0 C0.66 0.33 1.32 0.66 2 1 C0.80100302 4.0831351 -0.47700477 7.06279492 -2 10 C-2.99 10 -3.98 10 -5 10 C-4.49701212 5.59885603 -2.91227269 3.28804981 0 0 Z " fill="#000000" transform="translate(208,83)"/>
<path d="M0 0 C1.22589844 0.01353516 1.22589844 0.01353516 2.4765625 0.02734375 C3.41628906 0.04474609 3.41628906 0.04474609 4.375 0.0625 C4.375 1.0525 4.375 2.0425 4.375 3.0625 C1.075 3.3925 -2.225 3.7225 -5.625 4.0625 C-5.955 3.0725 -6.285 2.0825 -6.625 1.0625 C-4.21954362 -0.14022819 -2.67503047 -0.03821472 0 0 Z " fill="#000000" transform="translate(553.625,69.9375)"/>
<path d="M0 0 C1.22589844 0.01353516 1.22589844 0.01353516 2.4765625 0.02734375 C3.41628906 0.04474609 3.41628906 0.04474609 4.375 0.0625 C4.375 1.0525 4.375 2.0425 4.375 3.0625 C1.075 3.3925 -2.225 3.7225 -5.625 4.0625 C-5.955 3.0725 -6.285 2.0825 -6.625 1.0625 C-4.21954362 -0.14022819 -2.67503047 -0.03821472 0 0 Z " fill="#000000" transform="translate(409.625,69.9375)"/>
<path d="M0 0 C0.66 0 1.32 0 2 0 C3.42258812 3.82320557 4.24042276 6.91281305 4 11 C3.01 10.67 2.02 10.34 1 10 C0.234375 7.96875 0.234375 7.96875 -0.25 5.5 C-0.42015625 4.6853125 -0.5903125 3.870625 -0.765625 3.03125 C-0.84296875 2.3609375 -0.9203125 1.690625 -1 1 C-0.67 0.67 -0.34 0.34 0 0 Z " fill="#000000" transform="translate(121,44)"/>
<path d="M0 0 C0.99 0.33 1.98 0.66 3 1 C2.01 4.3 1.02 7.6 0 11 C-0.99 10.67 -1.98 10.34 -3 10 C-2.01 6.7 -1.02 3.4 0 0 Z " fill="#000000" transform="translate(687,206)"/>
<path d="M0 0 C-0.33 0.66 -0.66 1.32 -1 2 C-4.47325181 3.1577506 -7.36067448 3.06866652 -11 3 C-11 2.01 -11 1.02 -11 0 C-3.57142857 -1.28571429 -3.57142857 -1.28571429 0 0 Z " fill="#000000" transform="translate(102,180)"/>
<path d="M0 0 C0.66 0.33 1.32 0.66 2 1 C1.39009109 4.55780196 0.4216319 7.6828589 -1 11 C-1.99 10.67 -2.98 10.34 -4 10 C-3.52449439 8.51965236 -3.04448784 7.04074979 -2.5625 5.5625 C-2.29566406 4.73878906 -2.02882813 3.91507813 -1.75390625 3.06640625 C-1 1 -1 1 0 0 Z " fill="#000000" transform="translate(716,135)"/>
<path d="M0 0 C0.66 0.33 1.32 0.66 2 1 C1.49287967 4.71888239 0.88391785 7.73454239 -1 11 C-1.99 10.67 -2.98 10.34 -4 10 C-2.68 6.7 -1.36 3.4 0 0 Z " fill="#000000" transform="translate(723,117)"/>
<path d="M0 0 C0.99 0.33 1.98 0.66 3 1 C3 1.66 3 2.32 3 3 C1.25 4.5078125 1.25 4.5078125 -1 6.125 C-1.7425 6.66382812 -2.485 7.20265625 -3.25 7.7578125 C-3.8275 8.16773437 -4.405 8.57765625 -5 9 C-5 5 -5 5 -2.5 2.25 C-1.675 1.5075 -0.85 0.765 0 0 Z " fill="#000000" transform="translate(520,84)"/>
<path d="M0 0 C0.99 0.33 1.98 0.66 3 1 C3 1.66 3 2.32 3 3 C1.25 4.5078125 1.25 4.5078125 -1 6.125 C-1.7425 6.66382812 -2.485 7.20265625 -3.25 7.7578125 C-3.8275 8.16773437 -4.405 8.57765625 -5 9 C-5 5 -5 5 -2.5 2.25 C-1.675 1.5075 -0.85 0.765 0 0 Z " fill="#000000" transform="translate(376,84)"/>
<path d="M0 0 C0.99 0.33 1.98 0.66 3 1 C1.68 3.97 0.36 6.94 -1 10 C-1.99 9.67 -2.98 9.34 -4 9 C-2.68 6.03 -1.36 3.06 0 0 Z " fill="#000000" transform="translate(737,82)"/>
<path d="M0 0 C7.75 0.875 7.75 0.875 10 2 C10 2.99 10 3.98 10 5 C6.7 4.34 3.4 3.68 0 3 C0 2.01 0 1.02 0 0 Z " fill="#000000" transform="translate(567,71)"/>
<path d="M0 0 C7.75 0.875 7.75 0.875 10 2 C10 2.99 10 3.98 10 5 C6.7 4.34 3.4 3.68 0 3 C0 2.01 0 1.02 0 0 Z " fill="#000000" transform="translate(423,71)"/>
<path d="M0 0 C0 0.99 0 1.98 0 3 C-3.3 3.33 -6.6 3.66 -10 4 C-10 3.01 -10 2.02 -10 1 C-6.61981469 -0.04005702 -3.5219721 -0.08004482 0 0 Z " fill="#000000" transform="translate(241,66)"/>
<path d="M0 0 C3.36295835 1.44126786 5.62927102 3.20592655 8 6 C8 6.99 8 7.98 8 9 C7.01 9 6.02 9 5 9 C0 3.76744186 0 3.76744186 0 0 Z " fill="#000000" transform="translate(109,28)"/>
<path d="M0 0 C3.3 0 6.6 0 10 0 C10 0.99 10 1.98 10 3 C6.7 3 3.4 3 0 3 C0 2.01 0 1.02 0 0 Z " fill="#000000" transform="translate(72,180)"/>
<path d="M0 0 C3.3 0 6.6 0 10 0 C10 0.99 10 1.98 10 3 C6.7 3 3.4 3 0 3 C0 2.01 0 1.02 0 0 Z " fill="#000000" transform="translate(53,180)"/>
<path d="M0 0 C3.3 0 6.6 0 10 0 C10 0.99 10 1.98 10 3 C6.7 3 3.4 3 0 3 C0 2.01 0 1.02 0 0 Z " fill="#000000" transform="translate(286,122)"/>
<path d="M0 0 C3.3 0 6.6 0 10 0 C10 0.99 10 1.98 10 3 C6.7 3 3.4 3 0 3 C0 2.01 0 1.02 0 0 Z " fill="#000000" transform="translate(267,122)"/>
<path d="M0 0 C3.3 0 6.6 0 10 0 C10 0.99 10 1.98 10 3 C6.7 3 3.4 3 0 3 C0 2.01 0 1.02 0 0 Z " fill="#000000" transform="translate(248,122)"/>
<path d="M0 0 C3.3 0 6.6 0 10 0 C10 0.99 10 1.98 10 3 C6.7 3 3.4 3 0 3 C0 2.01 0 1.02 0 0 Z " fill="#000000" transform="translate(229,122)"/>
<path d="M0 0 C3.3 0 6.6 0 10 0 C10 0.99 10 1.98 10 3 C6.7 3 3.4 3 0 3 C0 2.01 0 1.02 0 0 Z " fill="#000000" transform="translate(210,122)"/>
<path d="M0 0 C0.66 0 1.32 0 2 0 C1.49287967 3.71888239 0.88391785 6.73454239 -1 10 C-1.99 9.67 -2.98 9.34 -4 9 C-2.68 6.03 -1.36 3.06 0 0 Z " fill="#000000" transform="translate(730,100)"/>
<path d="M0 0 C0.99 0.33 1.98 0.66 3 1 C2.34 3.97 1.68 6.94 1 10 C0.01 10 -0.98 10 -2 10 C-1.125 2.25 -1.125 2.25 0 0 Z " fill="#000000" transform="translate(199,100)"/>
<path d="M0 0 C3.3 0 6.6 0 10 0 C10 0.99 10 1.98 10 3 C6.7 3 3.4 3 0 3 C0 2.01 0 1.02 0 0 Z " fill="#000000" transform="translate(72,95)"/>
<path d="M0 0 C3.3 0 6.6 0 10 0 C10 0.99 10 1.98 10 3 C6.7 3 3.4 3 0 3 C0 2.01 0 1.02 0 0 Z " fill="#000000" transform="translate(53,95)"/>
<path d="M0 0 C0.66 0 1.32 0 2 0 C1.25 7.625 1.25 7.625 -1 11 C-1.66 10.67 -2.32 10.34 -3 10 C-2.69201674 8.51988629 -2.378482 7.04092675 -2.0625 5.5625 C-1.88847656 4.73878906 -1.71445313 3.91507812 -1.53515625 3.06640625 C-1 1 -1 1 0 0 Z " fill="#000000" transform="translate(123,64)"/>
<path d="M0 0 C2.97 0 5.94 0 9 0 C9.33 1.32 9.66 2.64 10 4 C6.7 3.67 3.4 3.34 0 3 C0 2.01 0 1.02 0 0 Z " fill="#000000" transform="translate(91,22)"/>
<path d="M0 0 C3.3 0 6.6 0 10 0 C10 0.99 10 1.98 10 3 C6.7 3 3.4 3 0 3 C0 2.01 0 1.02 0 0 Z " fill="#000000" transform="translate(52,22)"/>
<path d="M0 0 C0.99 0 1.98 0 3 0 C2.39009109 3.55780196 1.4216319 6.6828589 0 10 C-0.99 9.67 -1.98 9.34 -3 9 C-2.01 6.03 -1.02 3.06 0 0 Z " fill="#000000" transform="translate(701,171)"/>
<path d="M0 0 C0.66 0 1.32 0 2 0 C2 3.96 2 7.92 2 12 C1.34 12 0.68 12 0 12 C0 8.04 0 4.08 0 0 Z " fill="#000000" transform="translate(505,76)"/>
<path d="M0 0 C0.66 0 1.32 0 2 0 C2 3.96 2 7.92 2 12 C1.34 12 0.68 12 0 12 C0 8.04 0 4.08 0 0 Z " fill="#000000" transform="translate(361,76)"/>
<path d="M0 0 C0.66 0 1.32 0 2 0 C2 3.63 2 7.26 2 11 C1.34 11 0.68 11 0 11 C0 7.37 0 3.74 0 0 Z " fill="#000000" transform="translate(505,160)"/>
<path d="M0 0 C0.66 0 1.32 0 2 0 C2 3.63 2 7.26 2 11 C1.34 11 0.68 11 0 11 C0 7.37 0 3.74 0 0 Z " fill="#000000" transform="translate(361,160)"/>
<path d="M0 0 C0.66 0 1.32 0 2 0 C2 3.63 2 7.26 2 11 C1.34 11 0.68 11 0 11 C0 7.37 0 3.74 0 0 Z " fill="#000000" transform="translate(505,139)"/>
<path d="M0 0 C0.66 0 1.32 0 2 0 C2 3.63 2 7.26 2 11 C1.34 11 0.68 11 0 11 C0 7.37 0 3.74 0 0 Z " fill="#000000" transform="translate(361,139)"/>
<path d="M0 0 C0.66 0 1.32 0 2 0 C2 3.63 2 7.26 2 11 C1.34 11 0.68 11 0 11 C0 7.37 0 3.74 0 0 Z " fill="#000000" transform="translate(505,118)"/>
<path d="M0 0 C0.66 0 1.32 0 2 0 C2 3.63 2 7.26 2 11 C1.34 11 0.68 11 0 11 C0 7.37 0 3.74 0 0 Z " fill="#000000" transform="translate(361,118)"/>
<path d="M0 0 C0.99 0 1.98 0 3 0 C2.67 1.65 2.34 3.3 2 5 C1.01 5 0.02 5 -1 5 C-0.67 3.35 -0.34 1.7 0 0 Z " fill="#000000" transform="translate(680,224)"/>
<path d="M0 0 C2.475 0.99 2.475 0.99 5 2 C5 2.99 5 3.98 5 5 C3.68 4.67 2.36 4.34 1 4 C0.67 2.68 0.34 1.36 0 0 Z " fill="#000000" transform="translate(585,77)"/>
<path d="M0 0 C2.475 0.99 2.475 0.99 5 2 C5 2.99 5 3.98 5 5 C3.68 4.67 2.36 4.34 1 4 C0.67 2.68 0.34 1.36 0 0 Z " fill="#000000" transform="translate(441,77)"/>
<path d="M0 0 C0.99 0 1.98 0 3 0 C2.34 1.98 1.68 3.96 1 6 C0.34 5.67 -0.32 5.34 -1 5 C-0.67 3.35 -0.34 1.7 0 0 Z " fill="#000000" transform="translate(742,69)"/>
<path d="M0 0 C0.66 0 1.32 0 2 0 C2 1.98 2 3.96 2 6 C1.34 6 0.68 6 0 6 C0 4.02 0 2.04 0 0 Z " fill="#000000" transform="translate(505,180)"/>
<path d="M0 0 C0.66 0 1.32 0 2 0 C2 1.98 2 3.96 2 6 C1.34 6 0.68 6 0 6 C0 4.02 0 2.04 0 0 Z " fill="#000000" transform="translate(361,180)"/>
</svg>
