<svg width="946" height="268" viewBox="0 0 946 268" fill="none" xmlns="http://www.w3.org/2000/svg">
<path d="M4.00138 134.088C-11.6446 -22.54 160.915 -2.95287 182.222 57.8016C182.222 80.4236 152.847 87.8341 138.16 88.7116C83.9701 41.3616 58.3234 81.2258 59.9005 112.387C62.8834 171.322 123.034 159.079 138.16 134.088C179.196 134.088 184.633 161.271 182.222 174.862C95.8094 248.923 10.4102 198.245 4.00138 134.088Z" stroke="black" stroke-width="5"/>
<circle cx="147.762" cy="60.1825" r="8.54932" fill="black"/>
<path d="M152.014 165.365C152.16 164.833 151.847 164.282 151.315 164.136L142.636 161.751C142.104 161.605 141.553 161.918 141.407 162.451C141.261 162.983 141.574 163.534 142.106 163.68L149.821 165.799L147.701 173.514C147.555 174.046 147.868 174.596 148.4 174.743C148.933 174.889 149.483 174.576 149.629 174.043L152.014 165.365ZM151.558 58.0677C150.059 57.1831 148.574 56.3343 147.102 55.5206L146.134 57.2711C147.59 58.0755 149.059 58.9149 150.541 59.7901L151.558 58.0677ZM138.426 51.0539C135.295 49.5626 132.228 48.2354 129.225 47.0651L128.499 48.9285C131.454 50.0804 134.477 51.3882 137.566 52.8596L138.426 51.0539ZM119.878 43.8589C116.607 42.8938 113.42 42.1234 110.318 41.5369L109.946 43.5021C112.98 44.0756 116.102 44.8301 119.313 45.7772L119.878 43.8589ZM100.492 40.2625C97.0406 40.0277 93.7097 40.0346 90.5006 40.2655L90.6441 42.2603C93.757 42.0364 96.9946 42.0292 100.356 42.2579L100.492 40.2625ZM80.6347 41.7505C77.3116 42.5276 74.1476 43.5647 71.1444 44.8354L71.9237 46.6774C74.822 45.4511 77.8776 44.4492 81.0901 43.698L80.6347 41.7505ZM62.3218 49.5126C59.5051 51.3354 56.8719 53.3864 54.4233 55.6333L55.7755 57.1069C58.1444 54.9332 60.6891 52.9515 63.4084 51.1917L62.3218 49.5126ZM47.6275 62.9355C45.5648 65.523 43.6854 68.2714 41.9902 71.1493L43.7134 72.1644C45.3633 69.3636 47.1899 66.693 49.1914 64.1822L47.6275 62.9355ZM37.5033 80.0333C36.2026 83.067 35.0783 86.1956 34.1312 89.3903L36.0487 89.9587C36.9744 86.8363 38.0725 83.7812 39.3414 80.8214L37.5033 80.0333ZM31.8369 99.0633C31.2492 102.322 30.8353 105.618 30.5962 108.924L32.591 109.069C32.825 105.833 33.2301 102.607 33.8052 99.4183L31.8369 99.0633ZM30.4055 118.861C30.519 122.189 30.8116 125.499 31.2848 128.763L33.2642 128.476C32.8016 125.286 32.5153 122.049 32.4043 118.793L30.4055 118.861ZM33.2787 138.506C34.143 141.739 35.2001 144.893 36.452 147.939L38.3019 147.178C37.084 144.216 36.0539 141.143 35.2108 137.99L33.2787 138.506ZM40.8801 156.863C42.5847 159.747 44.4995 162.48 46.6265 165.029L48.162 163.747C46.1074 161.285 44.2543 158.641 42.6018 155.845L40.8801 156.863ZM53.6758 172.109C56.2057 174.229 58.9445 176.133 61.8933 177.785L62.871 176.04C60.0333 174.45 57.397 172.618 54.9605 170.576L53.6758 172.109ZM71.014 181.835C74.0683 182.87 77.2948 183.668 80.6939 184.206L81.0064 182.23C77.7166 181.71 74.6002 180.938 71.6556 179.941L71.014 181.835ZM90.6118 185.011C93.7984 185.039 97.1109 184.86 100.55 184.458L100.317 182.471C96.9576 182.864 93.7287 183.038 90.6295 183.011L90.6118 185.011ZM110.41 182.76C113.489 182.067 116.657 181.208 119.914 180.174L119.309 178.268C116.104 179.285 112.991 180.129 109.971 180.809L110.41 182.76ZM129.144 176.864C132.132 175.674 135.189 174.344 138.314 172.868L137.46 171.059C134.37 172.518 131.352 173.832 128.404 175.006L129.144 176.864ZM147.047 168.457C148.532 167.659 150.031 166.83 151.544 165.969L150.555 164.231C149.056 165.084 147.571 165.905 146.101 166.695L147.047 168.457Z" fill="black"/>
<circle cx="363.5" cy="133.5" r="6.5" fill="black"/>
<path d="M474.743 148.465H385.743C400.543 187.665 437.243 168.465 453.742 153.965H464.742C474.742 153.565 484.576 170.132 488.242 178.465C464.742 212.558 432.909 225.558 385.743 206.465C306.909 167.558 342.408 71.503 385.743 59.4652C467.909 36.6403 491.243 90.5581 491.243 124.465C489.243 144.865 479.409 148.965 474.743 148.465Z" stroke="black" stroke-width="5"/>
<path d="M453.408 119.558H385.908C393.108 98.3574 407.408 94.0581 418.908 94.0581C436.508 91.6581 448.908 109.391 453.408 119.558Z" stroke="black" stroke-width="5"/>
<path d="M364.144 132.591L363.148 132.505H363.148L364.144 132.591ZM477.908 132.591V133.591H479.21L478.874 132.334L477.908 132.591ZM422.523 75.6768L422.634 74.683L422.604 74.6796L422.573 74.6781L422.523 75.6768ZM468.915 173.341C469.007 172.797 468.641 172.28 468.096 172.188L459.224 170.68C458.679 170.587 458.163 170.953 458.07 171.498C457.978 172.042 458.344 172.559 458.889 172.651L466.775 173.992L465.435 181.879C465.342 182.423 465.709 182.94 466.253 183.032C466.798 183.125 467.314 182.758 467.407 182.214L468.915 173.341ZM365.14 132.677C365.276 131.108 365.435 129.579 365.618 128.09L363.633 127.846C363.447 129.36 363.285 130.913 363.148 132.505L365.14 132.677ZM367.118 119.008C367.788 115.852 368.582 112.91 369.491 110.171L367.593 109.541C366.659 112.356 365.846 115.37 365.162 118.593L367.118 119.008ZM372.959 101.727C374.396 98.8639 375.995 96.2938 377.738 93.9932L376.143 92.7857C374.323 95.1888 372.661 97.8636 371.172 100.83L372.959 101.727ZM383.93 87.3955C386.263 85.4001 388.764 83.7198 391.412 82.3229L390.479 80.5541C387.704 82.0178 385.079 83.7808 382.63 85.8758L383.93 87.3955ZM399.822 78.9349C402.684 78.0925 405.666 77.4919 408.747 77.1052L408.498 75.1208C405.322 75.5195 402.233 76.1404 399.257 77.0163L399.822 78.9349ZM417.881 76.5581C419.396 76.5575 420.928 76.5976 422.473 76.6756L422.573 74.6781C420.997 74.5986 419.431 74.5575 417.88 74.5581L417.881 76.5581ZM422.412 76.6706C424.136 76.8637 425.823 77.1521 427.472 77.528L427.916 75.5781C426.195 75.1857 424.434 74.8846 422.634 74.683L422.412 76.6706ZM437.159 80.8861C440.27 82.3497 443.219 84.1247 446 86.1422L447.175 84.5231C444.301 82.4389 441.245 80.5979 438.011 79.0764L437.159 80.8861ZM453.844 92.8542C456.299 95.2971 458.579 97.9123 460.682 100.628L462.263 99.4034C460.113 96.6263 457.776 93.9456 455.255 91.4366L453.844 92.8542ZM466.557 109.177C468.415 112.224 470.061 115.298 471.492 118.309L473.298 117.451C471.839 114.38 470.16 111.245 468.265 108.136L466.557 109.177ZM475.43 127.913C476.02 129.631 476.525 131.284 476.942 132.849L478.874 132.334C478.444 130.72 477.926 129.022 477.321 127.262L475.43 127.913ZM477.908 131.591H473.168V133.591H477.908V131.591ZM463.688 131.591H454.207V133.591H463.688V131.591ZM444.727 131.591H435.247V133.591H444.727V131.591ZM425.766 131.591H416.286V133.591H425.766V131.591ZM406.806 131.591H397.325V133.591H406.806V131.591ZM387.845 131.591H378.365V133.591H387.845V131.591ZM368.884 131.591H364.144V133.591H368.884V131.591ZM363.148 132.505C362.994 134.285 362.915 136.084 362.909 137.893L364.909 137.9C364.915 136.145 364.992 134.401 365.14 132.677L363.148 132.505ZM363.727 148.644C364.28 152.19 365.112 155.709 366.223 159.131L368.125 158.514C367.048 155.195 366.24 151.78 365.704 148.336L363.727 148.644ZM370.408 169.078C372.099 172.282 374.077 175.318 376.34 178.114L377.895 176.855C375.718 174.166 373.811 171.24 372.177 168.144L370.408 169.078ZM384.03 185.742C386.837 187.957 389.922 189.865 393.282 191.393L394.11 189.573C390.902 188.113 387.955 186.291 385.27 184.172L384.03 185.742ZM403.614 194.665C407.004 195.315 410.597 195.623 414.392 195.547L414.351 193.547C410.692 193.621 407.238 193.323 403.99 192.701L403.614 194.665ZM425.119 194.371C428.452 193.725 431.912 192.805 435.498 191.59L434.856 189.695C431.35 190.884 427.977 191.78 424.738 192.408L425.119 194.371ZM445.447 187.592C448.546 186.159 451.729 184.516 454.995 182.653L454.004 180.916C450.784 182.753 447.652 184.369 444.607 185.777L445.447 187.592ZM464.056 177.049C465.525 176.072 467.008 175.053 468.508 173.989L467.35 172.358C465.867 173.41 464.4 174.419 462.949 175.384L464.056 177.049Z" fill="black"/>
<path d="M509 209.393V63.3929C518.2 49.7929 543.833 55.7262 555.5 60.3928V67.3929C591.5 52.5929 624.5 73.5596 636.5 85.8929C636.5 115.893 620.833 119.726 613 117.893C585.8 96.6929 563.333 109.06 555.5 117.893V209.393C535.1 229.393 516 217.726 509 209.393Z" stroke="black" stroke-width="5"/>
<path d="M531 75V117M531 200V117M531 117C542 99.1667 574.1 69.8 614.5 95" stroke="black" stroke-width="2" stroke-dasharray="10 10"/>
<circle cx="6.50586" cy="6.50586" r="6.50586" transform="matrix(1 8.74228e-08 8.74228e-08 -1 524 79.0117)" fill="black"/>
<path d="M650 210.393V64.3929C659.2 50.7929 684.833 56.7262 696.5 61.3928V68.3929C732.5 53.5929 765.5 74.5596 777.5 86.8929C777.5 116.893 761.833 120.726 754 118.893C726.8 97.6929 704.333 110.06 696.5 118.893V210.393C676.1 230.393 657 218.726 650 210.393Z" stroke="black" stroke-width="5"/>
<path d="M672 76V118M672 201V118M672 118C683 100.167 715.1 70.8 755.5 96" stroke="black" stroke-width="2" stroke-dasharray="10 10"/>
<circle cx="6.50586" cy="6.50586" r="6.50586" transform="matrix(1 8.74228e-08 8.74228e-08 -1 665 80.0117)" fill="black"/>
<path d="M795 81.3222C800.6 59.7222 821.333 57.9888 831 59.8222L873 128.322L901.5 59.8222C927.5 52.6222 939.667 68.4888 942.5 77.3222L869 260.822C845.4 274.422 830.167 255.156 825.5 243.822L850 184.322L795 81.3222Z" stroke="black" stroke-width="5"/>
<circle cx="6.50586" cy="6.50586" r="6.50586" transform="matrix(1 8.74228e-08 8.74228e-08 -1 812 84.0117)" fill="black"/>
<circle cx="6.50586" cy="6.50586" r="6.50586" transform="matrix(1 8.74228e-08 8.74228e-08 -1 911 84.0117)" fill="black"/>
<path d="M818.5 76L875 180.5M914.5 86.5L851 246" stroke="black" stroke-width="2" stroke-dasharray="10 10"/>
<path d="M305.5 105.365L306.5 105.343L306.494 105.082L306.362 104.857L305.5 105.365ZM306.808 198.087C307.207 198.469 307.84 198.455 308.222 198.056L314.446 191.555C314.828 191.157 314.815 190.524 314.416 190.142C314.017 189.76 313.384 189.773 313.002 190.172L307.469 195.951L301.691 190.418C301.292 190.036 300.659 190.05 300.277 190.449C299.895 190.848 299.909 191.481 300.308 191.863L306.808 198.087ZM230.707 101.572C231.754 100.525 232.851 99.4696 233.994 98.4188L232.641 96.9463C231.476 98.0171 230.358 99.0922 229.293 100.158L230.707 101.572ZM240.972 92.5772C243.373 90.7622 245.897 89.0533 248.517 87.534L247.513 85.8039C244.814 87.3694 242.222 89.125 239.766 90.9819L240.972 92.5772ZM256.654 83.6209C259.488 82.5461 262.386 81.7575 265.318 81.3396L265.036 79.3596C261.939 79.801 258.898 80.6311 255.945 81.7509L256.654 83.6209ZM274.209 81.2843C277.042 81.6743 279.891 82.4782 282.732 83.7757L283.563 81.9565C280.543 80.5775 277.506 79.7193 274.481 79.303L274.209 81.2843ZM290.312 88.4943C292.481 90.2275 294.637 92.3011 296.766 94.7542L298.276 93.4432C296.075 90.9068 293.833 88.7474 291.561 86.9319L290.312 88.4943ZM302.232 102.009C303.04 103.234 303.842 104.52 304.638 105.872L306.362 104.857C305.549 103.477 304.729 102.161 303.901 100.907L302.232 102.009ZM304.5 105.386L304.6 109.986L306.6 109.943L306.5 105.343L304.5 105.386ZM304.8 119.186L305 128.386L307 128.343L306.8 119.143L304.8 119.186ZM305.2 137.586L305.4 146.786L307.4 146.743L307.2 137.543L305.2 137.586ZM305.6 155.986L305.8 165.186L307.8 165.143L307.6 155.943L305.6 155.986ZM306 174.386L306.2 183.586L308.2 183.543L308 174.343L306 174.386ZM306.4 192.786L306.5 197.386L308.5 197.343L308.4 192.743L306.4 192.786Z" fill="black"/>
<circle cx="219.5" cy="21.5" r="6.5" fill="black"/>
<path d="M198 204.043V14.043C219.6 -5.95697 236.667 5.7097 242.5 14.043V69.043C250.5 62.243 269.833 58.8764 278.5 58.043C314.9 55.643 327.667 103.376 329.5 127.543V204.043C310.7 223.243 292.667 212.043 286 204.043V120.043C286 111.243 278.333 106.71 274.5 105.543C249.7 105.943 243.5 112.71 243.5 116.043V204.043C221.5 223.643 204 212.21 198 204.043Z" stroke="black" stroke-width="5"/>
<path d="M219.293 198.707C219.683 199.098 220.317 199.098 220.707 198.707L227.071 192.343C227.462 191.953 227.462 191.319 227.071 190.929C226.681 190.538 226.047 190.538 225.657 190.929L220 196.586L214.343 190.929C213.953 190.538 213.319 190.538 212.929 190.929C212.538 191.319 212.538 191.953 212.929 192.343L219.293 198.707ZM219 23L219 27.8611L221 27.8611L221 23L219 23ZM219 37.5833L219 47.3056L221 47.3056L221 37.5833L219 37.5833ZM219 57.0278L219 66.75L221 66.75L221 57.0278L219 57.0278ZM219 76.4722L219 86.1944L221 86.1944L221 76.4722L219 76.4722ZM219 95.9167L219 105.639L221 105.639L221 95.9167L219 95.9167ZM219 115.361L219 125.083L221 125.083L221 115.361L219 115.361ZM219 134.806L219 144.528L221 144.528L221 134.806L219 134.806ZM219 154.25L219 163.972L221 163.972L221 154.25L219 154.25ZM219 173.694L219 183.417L221 183.417L221 173.694L219 173.694ZM219 193.139L219 198L221 198L221 193.139L219 193.139Z" fill="black"/>
</svg>
