<?xml version="1.0" encoding="UTF-8"?>
<svg version="1.1" xmlns="http://www.w3.org/2000/svg" width="53" height="198">
<path d="M0 0 C17.49 0 34.98 0 53 0 C53 65.34 53 130.68 53 198 C35.51 198 18.02 198 0 198 C0 132.66 0 67.32 0 0 Z M6 6 C6 67.71 6 129.42 6 193 C19.86 193 33.72 193 48 193 C48 131.29 48 69.58 48 6 C34.14 6 20.28 6 6 6 Z " fill="#000000" transform="translate(0,0)"/>
<path d="M0 0 C3.0261912 2.0174608 3.81051292 3.45522464 5 6.875 C5 11.15428291 3.89686146 12.88587393 1 16 C-3.02278753 17.24340706 -5.02687998 17.44425045 -8.875 15.6875 C-11 14 -11 14 -12 12 C-12.56872038 4.9478673 -12.56872038 4.9478673 -10.5 1.5 C-6.97359191 -0.61584485 -4.01178761 -0.80730018 0 0 Z " fill="#000000" transform="translate(31,12)"/>
<path d="M0 0 C1.98 0 3.96 0 6 0 C6 3.63 6 7.26 6 11 C4.02 11 2.04 11 0 11 C0 7.37 0 3.74 0 0 Z " fill="#000000" transform="translate(24,130)"/>
<path d="M0 0 C1.98 0 3.96 0 6 0 C6 3.63 6 7.26 6 11 C4.02 11 2.04 11 0 11 C0 7.37 0 3.74 0 0 Z " fill="#000000" transform="translate(24,111)"/>
<path d="M0 0 C1.98 0 3.96 0 6 0 C6 3.63 6 7.26 6 11 C4.02 11 2.04 11 0 11 C0 7.37 0 3.74 0 0 Z " fill="#000000" transform="translate(24,34)"/>
<path d="M0 0 C1.98 0 3.96 0 6 0 C6 3.3 6 6.6 6 10 C4.02 10 2.04 10 0 10 C0 6.7 0 3.4 0 0 Z " fill="#000000" transform="translate(24,150)"/>
<path d="M0 0 C1.98 0 3.96 0 6 0 C6 3.3 6 6.6 6 10 C4.02 10 2.04 10 0 10 C0 6.7 0 3.4 0 0 Z " fill="#000000" transform="translate(24,92)"/>
<path d="M0 0 C1.98 0 3.96 0 6 0 C6 3.3 6 6.6 6 10 C4.02 10 2.04 10 0 10 C0 6.7 0 3.4 0 0 Z " fill="#000000" transform="translate(24,73)"/>
<path d="M0 0 C1.98 0 3.96 0 6 0 C6 3.3 6 6.6 6 10 C4.02 10 2.04 10 0 10 C0 6.7 0 3.4 0 0 Z " fill="#000000" transform="translate(24,54)"/>
<path d="M0 0 C1.98 0 3.96 0 6 0 C6 1.65 6 3.3 6 5 C4.02 5 2.04 5 0 5 C0 3.35 0 1.7 0 0 Z " fill="#000000" transform="translate(24,169)"/>
</svg>
