<svg width="205" height="202" viewBox="0 0 205 202" fill="none" xmlns="http://www.w3.org/2000/svg">
<path d="M5 3H60.5L97.5 80L135.5 3H185.5L86 199.5H38L73.5 128.5L5 3Z" stroke="black" stroke-width="5"/>
<path d="M92.7165 116.959C93.2462 117.116 93.8024 116.813 93.959 116.283L96.5102 107.653C96.6668 107.123 96.3644 106.567 95.8347 106.41C95.3051 106.254 94.7488 106.556 94.5923 107.086L92.3245 114.758L84.6527 112.49C84.123 112.333 83.5668 112.636 83.4102 113.165C83.2536 113.695 83.5561 114.251 84.0857 114.408L92.7165 116.959ZM36.1215 13.4777L38.4548 17.7693L40.2119 16.814L37.8785 12.5223L36.1215 13.4777ZM43.1215 26.3527L47.7881 34.936L49.5452 33.9807L44.8785 25.3973L43.1215 26.3527ZM52.4548 43.5193L57.1215 52.1027L58.8785 51.1473L54.2119 42.564L52.4548 43.5193ZM61.7881 60.686L66.4548 69.2693L68.2119 68.314L63.5452 59.7307L61.7881 60.686ZM71.1215 77.8527L75.7881 86.436L77.5452 85.4807L72.8786 76.8974L71.1215 77.8527ZM80.4548 95.0193L85.1215 103.603L86.8785 102.647L82.2119 94.064L80.4548 95.0193ZM89.7881 112.186L92.1215 116.478L93.8785 115.522L91.5452 111.231L89.7881 112.186Z" fill="black"/>
<path d="M67.0525 184.32C67.2291 184.843 67.7964 185.124 68.3197 184.948L76.8473 182.07C77.3706 181.894 77.6517 181.326 77.4751 180.803C77.2986 180.28 76.7312 179.999 76.2079 180.175L68.6278 182.733L66.0701 175.153C65.8935 174.629 65.3262 174.348 64.8029 174.525C64.2796 174.701 63.9985 175.269 64.1751 175.792L67.0525 184.32ZM151.417 13.3696L149.075 18.097L150.867 18.9848L153.209 14.2574L151.417 13.3696ZM144.391 27.5518L139.707 37.0066L141.499 37.8944L146.183 28.4396L144.391 27.5518ZM135.023 46.4614L130.339 55.9162L132.131 56.804L136.815 47.3492L135.023 46.4614ZM125.655 65.371L120.971 74.8258L122.763 75.7137L127.447 66.2588L125.655 65.371ZM116.287 84.2806L111.603 93.7354L113.395 94.6233L118.079 85.1685L116.287 84.2806ZM106.919 103.19L102.234 112.645L104.027 113.533L108.711 104.078L106.919 103.19ZM97.5504 122.1L92.8663 131.555L94.6584 132.442L99.3425 122.988L97.5504 122.1ZM88.1822 141.009L83.4982 150.464L85.2903 151.352L89.9744 141.897L88.1822 141.009ZM78.8141 159.919L74.13 169.374L75.9222 170.262L80.6062 160.807L78.8141 159.919ZM69.446 178.829L67.1039 183.556L68.8961 184.444L71.2381 179.716L69.446 178.829Z" fill="black"/>
<circle cx="39.0957" cy="17.0957" r="8.09575" fill="black"/>
<circle cx="154.096" cy="17.0957" r="8.09575" fill="black"/>
</svg>
