<?xml version="1.0" encoding="UTF-8"?>
<svg version="1.1" xmlns="http://www.w3.org/2000/svg" width="174" height="200">
<path d="M0 0 C17.82 0 35.64 0 54 0 C54 24.42 54 48.84 54 74 C75.78 74 97.56 74 120 74 C120 49.58 120 25.16 120 0 C137.82 0 155.64 0 174 0 C174 66 174 132 174 200 C156.18 200 138.36 200 120 200 C120 173.6 120 147.2 120 120 C98.22 120 76.44 120 54 120 C54 146.4 54 172.8 54 200 C36.18 200 18.36 200 0 200 C0 134 0 68 0 0 Z M6 6 C6 68.37 6 130.74 6 195 C20.19 195 34.38 195 49 195 C49 168.27 49 141.54 49 114 C74.08 114 99.16 114 125 114 C125 140.73 125 167.46 125 195 C139.52 195 154.04 195 169 195 C169 132.63 169 70.26 169 6 C154.48 6 139.96 6 125 6 C125 30.42 125 54.84 125 80 C99.92 80 74.84 80 49 80 C49 55.58 49 31.16 49 6 C34.81 6 20.62 6 6 6 Z " fill="#000000" transform="translate(0,0)"/>
<path d="M0 0 C3.0261912 2.0174608 3.81051292 3.45522464 5 6.875 C5 11.15428291 3.89686146 12.88587393 1 16 C-3.02278753 17.24340706 -5.02687998 17.44425045 -8.875 15.6875 C-11 14 -11 14 -12 12 C-12.56872038 4.9478673 -12.56872038 4.9478673 -10.5 1.5 C-6.97359191 -0.61584485 -4.01178761 -0.80730018 0 0 Z " fill="#000000" transform="translate(32,12)"/>
<path d="M0 0 C1.98 0 3.96 0 6 0 C6 3.63 6 7.26 6 11 C3.36 11.33 0.72 11.66 -2 12 C-2 10.02 -2 8.04 -2 6 C-1.34 6 -0.68 6 0 6 C0 4.02 0 2.04 0 0 Z " fill="#000000" transform="translate(139,91)"/>
<path d="M0 0 C1.98 0 3.96 0 6 0 C6 0.66 6 1.32 6 2 C6.66 2 7.32 2 8 2 C8 3.98 8 5.96 8 8 C7.34 8 6.68 8 6 8 C6 8.66 6 9.32 6 10 C4.02 10 2.04 10 0 10 C0 6.7 0 3.4 0 0 Z " fill="#000000" transform="translate(25,95)"/>
<path d="M0 0 C1.98 0 3.96 0 6 0 C6 3.63 6 7.26 6 11 C4.02 11 2.04 11 0 11 C0 7.37 0 3.74 0 0 Z " fill="#000000" transform="translate(25,153)"/>
<path d="M0 0 C1.98 0 3.96 0 6 0 C6 3.63 6 7.26 6 11 C4.02 11 2.04 11 0 11 C0 7.37 0 3.74 0 0 Z " fill="#000000" transform="translate(139,152)"/>
<path d="M0 0 C1.98 0 3.96 0 6 0 C6 3.63 6 7.26 6 11 C4.02 11 2.04 11 0 11 C0 7.37 0 3.74 0 0 Z " fill="#000000" transform="translate(139,132)"/>
<path d="M0 0 C1.98 0 3.96 0 6 0 C6 3.63 6 7.26 6 11 C4.02 11 2.04 11 0 11 C0 7.37 0 3.74 0 0 Z " fill="#000000" transform="translate(25,114)"/>
<path d="M0 0 C1.98 0 3.96 0 6 0 C6 3.63 6 7.26 6 11 C4.02 11 2.04 11 0 11 C0 7.37 0 3.74 0 0 Z " fill="#000000" transform="translate(139,112)"/>
<path d="M0 0 C1.98 0 3.96 0 6 0 C6 3.63 6 7.26 6 11 C4.02 11 2.04 11 0 11 C0 7.37 0 3.74 0 0 Z " fill="#000000" transform="translate(25,75)"/>
<path d="M0 0 C1.98 0 3.96 0 6 0 C6 3.63 6 7.26 6 11 C4.02 11 2.04 11 0 11 C0 7.37 0 3.74 0 0 Z " fill="#000000" transform="translate(139,71)"/>
<path d="M0 0 C1.98 0 3.96 0 6 0 C6 3.63 6 7.26 6 11 C4.02 11 2.04 11 0 11 C0 7.37 0 3.74 0 0 Z " fill="#000000" transform="translate(139,51)"/>
<path d="M0 0 C1.98 0 3.96 0 6 0 C6 3.63 6 7.26 6 11 C4.02 11 2.04 11 0 11 C0 7.37 0 3.74 0 0 Z " fill="#000000" transform="translate(25,36)"/>
<path d="M0 0 C1.98 0 3.96 0 6 0 C6 3.63 6 7.26 6 11 C4.02 11 2.04 11 0 11 C0 7.37 0 3.74 0 0 Z " fill="#000000" transform="translate(139,30)"/>
<path d="M0 0 C1.98 0 3.96 0 6 0 C6 3.3 6 6.6 6 10 C4.02 10 2.04 10 0 10 C0 6.7 0 3.4 0 0 Z " fill="#000000" transform="translate(25,134)"/>
<path d="M0 0 C3.3 0 6.6 0 10 0 C10 1.98 10 3.96 10 6 C6.7 6 3.4 6 0 6 C0 4.02 0 2.04 0 0 Z " fill="#000000" transform="translate(118,97)"/>
<path d="M0 0 C3.3 0 6.6 0 10 0 C10 1.98 10 3.96 10 6 C6.7 6 3.4 6 0 6 C0 4.02 0 2.04 0 0 Z " fill="#000000" transform="translate(99,97)"/>
<path d="M0 0 C3.3 0 6.6 0 10 0 C10 1.98 10 3.96 10 6 C6.7 6 3.4 6 0 6 C0 4.02 0 2.04 0 0 Z " fill="#000000" transform="translate(80,97)"/>
<path d="M0 0 C3.3 0 6.6 0 10 0 C10 1.98 10 3.96 10 6 C6.7 6 3.4 6 0 6 C0 4.02 0 2.04 0 0 Z " fill="#000000" transform="translate(61,97)"/>
<path d="M0 0 C3.3 0 6.6 0 10 0 C10 1.98 10 3.96 10 6 C6.7 6 3.4 6 0 6 C0 4.02 0 2.04 0 0 Z " fill="#000000" transform="translate(42,97)"/>
<path d="M0 0 C1.98 0 3.96 0 6 0 C6 3.3 6 6.6 6 10 C4.02 10 2.04 10 0 10 C0 6.7 0 3.4 0 0 Z " fill="#000000" transform="translate(25,56)"/>
<path d="M0 0 C1.98 0 3.96 0 6 0 C6 1.98 6 3.96 6 6 C4.02 6 2.04 6 0 6 C0 4.02 0 2.04 0 0 Z " fill="#000000" transform="translate(139,172)"/>
<path d="M0 0 C1.98 0 3.96 0 6 0 C6 1.98 6 3.96 6 6 C4.02 6 2.04 6 0 6 C0 4.02 0 2.04 0 0 Z " fill="#000000" transform="translate(139,15)"/>
<path d="M0 0 C1.98 0 3.96 0 6 0 C6 1.65 6 3.3 6 5 C4.02 5 2.04 5 0 5 C0 3.35 0 1.7 0 0 Z " fill="#000000" transform="translate(25,173)"/>
</svg>
