<svg width="202" height="197" viewBox="0 0 202 197" fill="none" xmlns="http://www.w3.org/2000/svg">
<path d="M4 3H54L101 114.5L147.5 3H198L131.5 194.5H69.5L4 3Z" stroke="black" stroke-width="5"/>
<circle cx="34.0957" cy="15.5957" r="8.09575" fill="black"/>
<path d="M101.257 176.5L100.333 176.883L101.282 179.168L102.187 176.866L101.257 176.5ZM165.917 14.1009C165.696 13.5945 165.107 13.3627 164.601 13.5831L156.349 17.1749C155.842 17.3953 155.61 17.9845 155.831 18.4909C156.051 18.9973 156.64 19.2292 157.147 19.0087L164.482 15.816L167.675 23.1513C167.895 23.6577 168.485 23.8895 168.991 23.6691C169.497 23.4487 169.729 22.8595 169.509 22.3531L165.917 14.1009ZM33.0764 14.8834L34.9447 19.3834L36.7918 18.6166L34.9236 14.1166L33.0764 14.8834ZM38.6812 28.3834L42.4176 37.3834L44.2648 36.6166L40.5283 27.6166L38.6812 28.3834ZM46.1541 46.3834L49.8906 55.3834L51.7377 54.6166L48.0013 45.6166L46.1541 46.3834ZM53.6271 64.3834L57.3636 73.3834L59.2107 72.6166L55.4742 63.6166L53.6271 64.3834ZM61.1001 82.3834L64.8365 91.3834L66.6837 90.6166L62.9472 81.6166L61.1001 82.3834ZM68.573 100.383L72.3095 109.383L74.1566 108.617L70.4202 99.6166L68.573 100.383ZM76.046 118.383L79.7825 127.383L81.6296 126.617L77.8931 117.617L76.046 118.383ZM83.519 136.383L87.2554 145.383L89.1026 144.617L85.3661 135.617L83.519 136.383ZM90.9919 154.383L94.7284 163.383L96.5756 162.617L92.8391 153.617L90.9919 154.383ZM98.4649 172.383L100.333 176.883L102.18 176.117L100.312 171.617L98.4649 172.383ZM102.187 176.866L103.958 172.366L102.097 171.634L100.326 176.134L102.187 176.866ZM107.499 163.366L111.04 154.366L109.179 153.634L105.638 162.634L107.499 163.366ZM114.582 145.366L118.123 136.366L116.262 135.634L112.721 144.634L114.582 145.366ZM121.664 127.366L125.206 118.366L123.345 117.634L119.803 126.634L121.664 127.366ZM128.747 109.366L132.288 100.366L130.427 99.6339L126.886 108.634L128.747 109.366ZM135.83 91.3662L139.371 82.3662L137.51 81.6339L133.968 90.6339L135.83 91.3662ZM142.912 73.3662L146.453 64.3662L144.592 63.6339L141.051 72.6339L142.912 73.3662ZM149.995 55.3662L153.536 46.3662L151.675 45.6339L148.134 54.6339L149.995 55.3662ZM157.077 37.3662L160.619 28.3662L158.757 27.6339L155.216 36.6339L157.077 37.3662ZM164.16 19.3662L165.931 14.8662L164.069 14.1338L162.299 18.6339L164.16 19.3662Z" fill="black"/>
</svg>
