<svg width="169" height="198" viewBox="0 0 169 198" fill="none" xmlns="http://www.w3.org/2000/svg">
<path d="M3 195V3H50V62.5L101.5 3H162.5L77 100L162.5 195H101.5L50 136V195H3Z" stroke="black" stroke-width="5"/>
<path d="M25.7929 187.207C26.1834 187.598 26.8166 187.598 27.2071 187.207L33.5711 180.843C33.9616 180.453 33.9616 179.819 33.5711 179.429C33.1805 179.038 32.5474 179.038 32.1569 179.429L26.5 185.086L20.8431 179.429C20.4526 179.038 19.8195 179.038 19.4289 179.429C19.0384 179.819 19.0384 180.453 19.4289 180.843L25.7929 187.207ZM25.5 15V19.7639H27.5V15H25.5ZM25.5 29.2917V38.8194H27.5V29.2917H25.5ZM25.5 48.3472V57.875H27.5V48.3472H25.5ZM25.5 67.4028V76.9306H27.5V67.4028H25.5ZM25.5 86.4583V95.9861H27.5V86.4583H25.5ZM25.5 105.514V115.042H27.5V105.514H25.5ZM25.5 124.569V134.097H27.5V124.569H25.5ZM25.5 143.625V153.153H27.5V143.625H25.5ZM25.5 162.681V172.208H27.5V162.681H25.5ZM25.5 181.736V186.5H27.5V181.736H25.5Z" fill="black"/>
<path d="M30.1467 114.08C30.1809 114.631 30.6555 115.05 31.2067 115.016L40.1895 114.459C40.7407 114.425 41.1598 113.95 41.1256 113.399C41.0915 112.848 40.6169 112.429 40.0657 112.463L32.081 112.958L31.5858 104.973C31.5517 104.422 31.0771 104.003 30.5259 104.037C29.9746 104.071 29.5555 104.546 29.5897 105.097L30.1467 114.08ZM31.8943 114.68L34.981 111.185L33.482 109.861L30.3953 113.356L31.8943 114.68ZM41.1543 104.195L47.3277 97.2057L45.8287 95.8818L39.6553 102.871L41.1543 104.195ZM53.501 90.2161L59.6744 83.2264L58.1753 81.9025L52.002 88.8921L53.501 90.2161ZM65.8477 76.2368L72.021 69.2471L70.522 67.9232L64.3487 74.9128L65.8477 76.2368ZM78.1944 62.2575L84.3677 55.2678L82.8687 53.9439L76.6954 60.9335L78.1944 62.2575ZM90.5411 48.2782L96.7144 41.2886L95.2154 39.9646L89.042 46.9542L90.5411 48.2782ZM102.888 34.2989L109.061 27.3093L107.562 25.9853L101.389 32.975L102.888 34.2989ZM115.234 20.3196L118.321 16.8248L116.822 15.5008L113.735 18.9957L115.234 20.3196Z" fill="black"/>
<path d="M121.929 184.997C122.48 185.037 122.958 184.622 122.997 184.071L123.635 175.093C123.674 174.542 123.259 174.064 122.708 174.025C122.157 173.986 121.679 174.401 121.64 174.952L121.073 182.932L113.093 182.365C112.542 182.326 112.064 182.741 112.025 183.292C111.986 183.843 112.401 184.321 112.952 184.36L121.929 184.997ZM49.2446 101.655L52.8446 105.805L54.3554 104.495L50.7554 100.345L49.2446 101.655ZM60.0446 114.105L67.2446 122.405L68.7554 121.095L61.5554 112.795L60.0446 114.105ZM74.4446 130.705L81.6446 139.005L83.1554 137.695L75.9554 129.395L74.4446 130.705ZM88.8446 147.305L96.0446 155.605L97.5554 154.295L90.3554 145.995L88.8446 147.305ZM103.245 163.905L110.445 172.205L111.955 170.895L104.755 162.595L103.245 163.905ZM117.645 180.505L121.245 184.655L122.755 183.345L119.155 179.195L117.645 180.505Z" fill="black"/>
<circle cx="27.0957" cy="15.0957" r="8.09575" fill="black"/>
</svg>
