<?xml version="1.0" encoding="UTF-8"?>
<svg version="1.1" xmlns="http://www.w3.org/2000/svg" width="168" height="202">
<path d="M0 0 C18.48 0 36.96 0 56 0 C55.98839844 3.91077393 55.97679687 7.82154785 55.96484375 11.85083008 C55.93229057 24.79097365 55.94332482 37.73077478 55.97665405 50.67090321 C55.99579748 58.51442655 56.00018885 66.35742886 55.96923828 74.20092773 C55.94228369 81.04142155 55.9436332 87.8812402 55.97825909 94.72170943 C55.99560663 98.34032996 55.99926379 101.9577422 55.96896362 105.57630348 C55.93557693 109.62705882 55.96541817 113.67508407 56 117.72583008 C55.98058853 118.91122879 55.96117706 120.0966275 55.94117737 121.31794739 C56.11354282 131.23975903 60.14472672 136.96925066 66.90234375 143.97109699 C71.67744237 148.5407049 76.91714139 150.66368815 83.4375 151.375 C92.40033003 150.43154421 98.33878469 146.93358586 105 141 C105.7817884 140.30391695 106.56357679 139.6078339 107.36905575 138.89065742 C113.01808562 133.31008348 115.03530061 129.3853364 115.1832428 121.44236755 C115.16023605 120.25337357 115.13722931 119.06437958 115.11352539 117.83935547 C115.1245932 116.56017746 115.13566101 115.28099945 115.14706421 113.96305847 C115.17615014 110.48564671 115.15055002 107.01061359 115.11447453 103.53334951 C115.08617509 99.88843705 115.10906691 96.2438376 115.12632751 92.59890747 C115.15127259 85.71049621 115.13075725 78.82301512 115.09355396 71.93468964 C115.05340844 64.08687508 115.0644808 56.2393876 115.07967007 48.39151549 C115.10975308 32.26057903 115.06936078 16.130862 115 0 C132.49 0 149.98 0 168 0 C168.09059336 17.58626118 168.16415148 35.17232053 168.20724869 52.75875092 C168.22779896 60.92600408 168.25577373 69.09310105 168.30175781 77.26025391 C168.34185818 84.38586018 168.36748744 91.51135323 168.37635398 98.63706923 C168.38152987 102.40368147 168.39353375 106.16997005 168.42292023 109.93647766 C168.62640038 137.10452621 166.28408973 159.05746875 146.5390625 179.5546875 C131.01083136 194.53647062 111.03929921 202.42005799 89.5625 202.3125 C88.41958496 202.30831055 87.27666992 202.30412109 86.09912109 202.29980469 C62.34465866 201.98632449 39.47767751 195.99737492 22 179 C16.40197364 172.83761976 12.34096092 166.20755699 8.75 158.75 C8.29234253 157.80543945 8.29234253 157.80543945 7.82543945 156.84179688 C6.79913032 154.59007296 5.90785796 152.30231801 5 150 C4.5827919 149.04659729 4.1655838 148.09319458 3.73573303 147.11090088 C-1.41351004 133.57111334 -0.64939652 119.59346312 -0.50696969 105.31919861 C-0.47534703 101.60640117 -0.47274758 97.8935754 -0.46684265 94.18066406 C-0.45140819 87.17572785 -0.41052359 80.17118983 -0.3600952 73.16642761 C-0.30387432 65.18077538 -0.27663364 57.19510241 -0.25161803 49.20930099 C-0.19959589 32.80593197 -0.10803767 16.40311029 0 0 Z M6 6 C5.84113601 22.19609626 5.71255082 38.39151319 5.6373148 54.58817577 C5.60143139 62.11090959 5.55263517 69.63312006 5.47192383 77.15551758 C5.40149621 83.72266789 5.35683954 90.28943875 5.34138054 96.8569563 C5.33236331 100.32504532 5.31163632 103.79205015 5.2598896 107.25978661 C4.89910159 134.49218143 10.14780988 156.66184522 28.94921875 177.12109375 C45.36667837 193.16329715 69.11891577 196.30102139 91.01855469 196.31469727 C109.02237856 196.1022813 125.48077431 190.14021542 139 178 C139.82113281 177.27167969 140.64226562 176.54335937 141.48828125 175.79296875 C153.14150273 164.84707483 161.40515693 150.45931737 162.12304783 134.21583748 C162.12166514 132.77507504 162.12166514 132.77507504 162.12025452 131.3052063 C162.12162918 130.19470413 162.12300385 129.08420197 162.12442017 127.94004822 C162.12082489 126.73667313 162.11722961 125.53329803 162.11352539 124.29345703 C162.11374443 122.37556618 162.11374443 122.37556618 162.1139679 120.41893005 C162.11425402 116.92558094 162.10838717 113.43226637 162.10139394 109.93892527 C162.09512963 106.2834125 162.09455417 102.62789889 162.09336853 98.97238159 C162.09026428 92.05583538 162.08206312 85.13930504 162.07201904 78.2227658 C162.06082975 70.34611609 162.05534036 62.4694656 162.05032361 54.59280992 C162.03987974 38.39519587 162.02154554 22.19760366 162 6 C148.14 6 134.28 6 120 6 C120.01160156 9.82513184 120.02320312 13.65026367 120.03515625 17.59130859 C120.06770057 30.24408139 120.05668251 42.89650381 120.02334595 55.54926109 C120.0041974 63.21906186 119.99982198 70.88832968 120.03076172 78.55810547 C120.05770495 85.24660784 120.05638233 91.93441965 120.02174091 98.62289679 C120.0043838 102.16157041 120.00075807 105.69900806 120.03103638 109.23762131 C120.0643857 113.19725167 120.03459941 117.15509963 120 121.11474609 C120.01941147 122.27568787 120.03882294 123.43662964 120.05882263 124.63275146 C119.90412153 133.32562903 117.05171734 137.88974048 111 144 C110.41331543 144.59867575 109.82663086 145.19735149 109.22216797 145.81416893 C102.45605967 152.41327224 93.17711353 156.38228865 83.875 157.3125 C75.57894652 156.64346343 69.0495667 153.58421541 63 148 C62.34 148 61.68 148 61 148 C60.7436229 147.43167135 60.48724581 146.8633427 60.22309971 146.27779198 C58.87296714 143.76342531 57.22283318 141.77367276 55.43040466 139.55532837 C51.16389057 133.49172528 51.01477273 128.36339861 51.11352539 121.11474609 C51.10274963 119.8648288 51.09197388 118.6149115 51.08087158 117.32711792 C51.05830353 113.93014961 51.06626737 110.53592622 51.08831334 107.13913679 C51.10403796 103.57830005 51.08003541 100.01772544 51.06040955 96.4569397 C51.02927516 89.72807895 51.03340237 82.99972974 51.05048412 76.27083743 C51.0682077 68.60438414 51.04618685 60.93820192 51.02097714 53.27178836 C50.97004404 37.51433673 50.97378058 21.75754085 51 6 C36.15 6 21.3 6 6 6 Z " fill="#000000" transform="translate(0,0)"/>
<path d="M0 0 C3.0261912 2.0174608 3.81051292 3.45522464 5 6.875 C5 11.15428291 3.89686146 12.88587393 1 16 C-3.02278753 17.24340706 -5.02687998 17.44425045 -8.875 15.6875 C-11 14 -11 14 -12 12 C-12.56872038 4.9478673 -12.56872038 4.9478673 -10.5 1.5 C-6.97359191 -0.61584485 -4.01178761 -0.80730018 0 0 Z " fill="#000000" transform="translate(36,15)"/>
<path d="M0 0 C1.65 0.99 3.3 1.98 5 3 C2.46636932 7.22271781 0.43379675 9.78310162 -4 12 C-4.99 10.35 -5.98 8.7 -7 7 C-4.69 4.69 -2.38 2.38 0 0 Z " fill="#000000" transform="translate(123,156)"/>
<path d="M0 0 C3.63 0.33 7.26 0.66 11 1 C11 2.98 11 4.96 11 7 C9.56260487 7.02712066 8.12506137 7.04645067 6.6875 7.0625 C5.48673828 7.07990234 5.48673828 7.07990234 4.26171875 7.09765625 C2 7 2 7 -1 6 C-0.67 4.02 -0.34 2.04 0 0 Z " fill="#000000" transform="translate(79,172)"/>
<path d="M0 0 C0.33 1.32 0.66 2.64 1 4 C-0.4562545 4.67119549 -1.91507867 5.33681807 -3.375 6 C-4.59316406 6.556875 -4.59316406 6.556875 -5.8359375 7.125 C-8 8 -8 8 -10 8 C-10.33 6.02 -10.66 4.04 -11 2 C-3.57142857 -1.57142857 -3.57142857 -1.57142857 0 0 Z " fill="#000000" transform="translate(110,170)"/>
<path d="M0 0 C3.55780196 0.60990891 6.6828589 1.5783681 10 3 C9.67 4.98 9.34 6.96 9 9 C4.87248551 8.39301257 1.6678852 6.96189209 -2 5 C-1.34 3.35 -0.68 1.7 0 0 Z " fill="#000000" transform="translate(60,166)"/>
<path d="M0 0 C2.97 1.98 5.94 3.96 9 6 C7.515 8.475 7.515 8.475 6 11 C2.56404834 9.47291037 -0.11912454 7.40072955 -3 5 C-1.125 1.125 -1.125 1.125 0 0 Z " fill="#000000" transform="translate(44,154)"/>
<path d="M0 0 C1.65 0 3.3 0 5 0 C7.62886598 6.30927835 7.62886598 6.30927835 8 9 C7.34 9.66 6.68 10.32 6 11 C3.06546739 10.63318342 2.13562754 10.13562754 0 8 C-0.26991906 5.31160615 -0.08737357 2.70858064 0 0 Z " fill="#000000" transform="translate(29,140)"/>
<path d="M0 0 C1.65 0 3.3 0 5 0 C5.49230769 7.38461538 5.49230769 7.38461538 3 10.5 C2.34 10.995 1.68 11.49 1 12 C-0.32 10.68 -1.64 9.36 -3 8 C-2.34 7.01 -1.68 6.02 -1 5 C-0.61500109 3.34450469 -0.27206865 1.6777567 0 0 Z " fill="#000000" transform="translate(132,140)"/>
<path d="M0 0 C1.65 0 3.3 0 5 0 C5 3.63 5 7.26 5 11 C3.35 11 1.7 11 0 11 C0 7.37 0 3.74 0 0 Z " fill="#000000" transform="translate(132,120)"/>
<path d="M0 0 C1.65 0 3.3 0 5 0 C5 3.63 5 7.26 5 11 C3.35 11 1.7 11 0 11 C0 7.37 0 3.74 0 0 Z " fill="#000000" transform="translate(29,120)"/>
<path d="M0 0 C1.65 0 3.3 0 5 0 C5 3.63 5 7.26 5 11 C3.35 11 1.7 11 0 11 C0 7.37 0 3.74 0 0 Z " fill="#000000" transform="translate(132,99)"/>
<path d="M0 0 C1.65 0 3.3 0 5 0 C5 3.63 5 7.26 5 11 C3.35 11 1.7 11 0 11 C0 7.37 0 3.74 0 0 Z " fill="#000000" transform="translate(29,99)"/>
<path d="M0 0 C1.65 0 3.3 0 5 0 C5 3.63 5 7.26 5 11 C3.35 11 1.7 11 0 11 C0 7.37 0 3.74 0 0 Z " fill="#000000" transform="translate(132,79)"/>
<path d="M0 0 C1.65 0 3.3 0 5 0 C5 3.63 5 7.26 5 11 C3.35 11 1.7 11 0 11 C0 7.37 0 3.74 0 0 Z " fill="#000000" transform="translate(29,79)"/>
<path d="M0 0 C1.65 0 3.3 0 5 0 C5 3.63 5 7.26 5 11 C3.35 11 1.7 11 0 11 C0 7.37 0 3.74 0 0 Z " fill="#000000" transform="translate(132,59)"/>
<path d="M0 0 C1.65 0 3.3 0 5 0 C5 3.63 5 7.26 5 11 C3.35 11 1.7 11 0 11 C0 7.37 0 3.74 0 0 Z " fill="#000000" transform="translate(29,59)"/>
<path d="M0 0 C1.65 0 3.3 0 5 0 C5 3.63 5 7.26 5 11 C3.35 11 1.7 11 0 11 C0 7.37 0 3.74 0 0 Z " fill="#000000" transform="translate(132,39)"/>
<path d="M0 0 C1.65 0 3.3 0 5 0 C5 3.63 5 7.26 5 11 C3.35 11 1.7 11 0 11 C0 7.37 0 3.74 0 0 Z " fill="#000000" transform="translate(29,39)"/>
<path d="M0 0 C1.65 0 3.3 0 5 0 C5 1.65 5 3.3 5 5 C3.35 5 1.7 5 0 5 C0 3.35 0 1.7 0 0 Z " fill="#000000" transform="translate(132,24)"/>
</svg>
