<svg width="151" height="217" viewBox="0 0 151 217" fill="none" xmlns="http://www.w3.org/2000/svg">
<path d="M78.175 45.0649C36.9776 42.5399 28.4773 114.524 78.0693 114.517C115.07 114.517 120.478 49.04 78.175 45.0649Z" stroke="black" stroke-width="5"/>
<path d="M3 84.8467C2.99992 1.5 70.6667 0.846667 101.5 9.84667C117.1 -2.55331 138.667 4.68001 147.5 9.84667L146 148.347C144.4 171.947 135 186.847 130.5 191.347C89.3 234.947 12.1384 203.347 8.99997 191.347C2.19997 165.347 21.8333 158.18 32.5 157.847C52.5 172.647 68.4468 174.5 77.4468 173C88.208 171.206 97.4468 167.5 99 154.347C26.4468 173 3.00003 113.5 3 84.8467Z" stroke="black" stroke-width="5"/>
<circle cx="125.5" cy="23.5" r="6.5" fill="black"/>
<path d="M124.001 20.5V44.5M28.0012 180.5C82.8012 214.9 114.835 176.5 124.001 153V124M124.001 44.5C106.501 29.5 63.3995 11.5 32.9995 47.5C18 68 9.4993 129 63.5001 137.5C83 137.5 113.201 132.4 124.001 124M124.001 44.5V124" stroke="black" stroke-width="5" stroke-dasharray="10 10"/>
</svg>
