<svg width="153" height="217" viewBox="0 0 153 217" fill="none" xmlns="http://www.w3.org/2000/svg">
<path d="M79.175 99.0649C37.9776 96.5399 29.4773 168.524 79.0693 168.517C116.07 168.517 121.478 103.04 79.175 99.0649Z" stroke="black" stroke-width="5"/>
<circle cx="131.5" cy="19.5" r="6.5" fill="black"/>
<path d="M3 135.497C3 57.5 75.1667 48.3305 106.5 61.9972V12.497C117.3 -4.70299 140 5.33034 150 12.497V210.497C126.8 216.497 111.333 212.997 106.5 210.497V204.497C25.3 229.697 3.66667 168.997 3 135.497Z" stroke="black" stroke-width="5"/>
<path d="M132 19V200M112.029 89.3015C85.5755 71.8135 17.9533 78.8087 21.1066 137.568C21.1066 174.817 55.6886 210.073 112.029 176.916" stroke="black" stroke-width="5" stroke-dasharray="10 10"/>
</svg>
