<svg width="137" height="218" viewBox="0 0 137 218" fill="none" xmlns="http://www.w3.org/2000/svg">
<path d="M25 21.5V104.5M25 196.5V104.5M25 104.5C42.8333 86.6667 84.8 61.7 110 104.5L112 196.5" stroke="black" stroke-width="5" stroke-dasharray="10 10"/>
<circle cx="24.5" cy="21.5" r="6.5" fill="black"/>
<path d="M3 204.043V14.043C24.6 -5.95697 41.6667 5.7097 47.5 14.043V69.043C55.5 62.243 74.8333 58.8764 83.5 58.043C119.9 55.643 132.667 103.376 134.5 127.543V204.043C115.7 223.243 97.6667 212.043 91 204.043V120.043C91 111.243 83.3333 106.71 79.5 105.543C54.7 105.943 48.5 112.71 48.5 116.043V204.043C26.5 223.643 9 212.21 3 204.043Z" stroke="black" stroke-width="5"/>
</svg>
