<svg width="227" height="169" viewBox="0 0 227 169" fill="none" xmlns="http://www.w3.org/2000/svg">
<path d="M3 154.745V14.7451C16.6 -5.25504 38.3333 4.74509 47.5 12.2452V17.2451C89.5 -3.15487 115 18.7451 122.5 32.2451C138.9 13.8451 163.333 9.91172 173.5 10.2451C216.3 16.6451 224.667 59.2451 223.5 79.7451V154.745C203.9 171.945 187.667 161.245 182 153.745V85.2451C181.2 64.4451 173 55.5784 169 53.7451C148.2 44.9451 138.333 77.7451 136 95.2451L134.5 154.745C117.3 175.145 99.3333 163.245 92.5 154.745L90.5 76.7451C90.9 61.1451 82.3333 55.9117 78 55.2451C62.4 51.2451 51.1667 59.9117 47.5 64.7451V154.745C26.3 174.745 9 163.078 3 154.745Z" stroke="black" stroke-width="5"/>
<circle cx="22.5" cy="18.5" r="6.5" fill="black"/>
<path d="M23 18V62M23 149.5V62M23 62C43.1667 39.6667 89.2 8.4 112 62M112 62V144M112 62C132 40 178.1 9.2 202.5 62V144" stroke="black" stroke-width="5" stroke-dasharray="10 10"/>
</svg>
