<svg width="158" height="167" viewBox="0 0 158 167" fill="none" xmlns="http://www.w3.org/2000/svg">
<circle cx="27.5" cy="82.5" r="6.5" fill="black"/>
<path d="M138.743 97.4652H49.7427C64.5429 136.665 101.243 117.465 117.742 102.965H128.742C138.742 102.565 148.576 119.132 152.242 127.465C128.742 161.558 96.9086 174.558 49.7427 155.465C-29.0911 116.558 6.40844 20.503 49.7427 8.46522C131.909 -14.3597 155.243 39.5581 155.243 73.4652C153.243 93.8652 143.409 97.9652 138.743 97.4652Z" stroke="black" stroke-width="5"/>
<path d="M117.408 68.5575H49.9082C57.1082 47.3574 71.4082 43.0581 82.9082 43.0581C100.508 40.6581 112.908 58.3909 117.408 68.5575Z" stroke="black" stroke-width="5"/>
<path d="M28.144 81.5911H141.908C136.586 61.6298 117.459 28.1414 86.523 24.6768C57.0841 23.1921 32.1358 35.2678 28.144 81.5911ZM28.144 81.5911C24.647 122.174 60.0778 173.149 131.929 122.173" stroke="black" stroke-width="5" stroke-dasharray="10 10"/>
</svg>
