<?xml version="1.0" encoding="UTF-8"?>
<svg version="1.1" xmlns="http://www.w3.org/2000/svg" width="714" height="777">
<path d="M0 0 C-0.53707764 3.86695903 -1.58554629 5.97060499 -4 9 C-3.41323486 8.93941406 -2.82646973 8.87882813 -2.22192383 8.81640625 C34.42546818 5.11644628 73.46228629 5.308377 104 29 C108.19096448 32.47527263 112.12114788 36.18201431 116 40 C116.70769531 40.68320312 117.41539062 41.36640625 118.14453125 42.0703125 C138.42798621 63.13866694 147.41943825 94.7234169 151 123 C151.14139404 124.03253906 151.14139404 124.03253906 151.28564453 125.0859375 C152.34485883 133.89314335 152.23905483 142.7677254 152.25 151.625 C152.25233643 152.48473419 152.25467285 153.34446838 152.25708008 154.23025513 C152.27156175 168.36683593 151.36216318 182.03792836 149 196 C147.68 196.33 146.36 196.66 145 197 C145.14392093 194.87486962 145.29025196 192.74990244 145.4375 190.625 C145.51871094 189.44164062 145.59992187 188.25828125 145.68359375 187.0390625 C145.82872367 185.00899822 146.00051851 182.99575518 146.24731445 180.9753418 C151.57333746 136.56920097 146.1655619 86.21366443 118.1875 49.9375 C99.4886326 27.3489827 75.204402 15.73087965 46.30078125 12.3125 C21.64982514 9.9040709 21.64982514 9.9040709 -2 15 C-0.02 16.65 1.96 18.3 4 20 C3.67 20.66 3.34 21.32 3 22 C3.70906494 21.98952637 4.41812988 21.97905273 5.14868164 21.96826172 C33.05469253 21.6108114 59.84473623 23.06899499 82 42 C83.5159375 43.1446875 83.5159375 43.1446875 85.0625 44.3125 C111.56011407 68.55499797 122.16065537 112.42478892 124 147 C126.67619594 231.81931828 109.22143926 323.40520077 63.44921875 423.0546875 C62.11249898 425.77136327 60.78914921 428.49411671 59.46875 431.21875 C53.69342965 443.04951942 47.33950921 454.50949608 40.77246094 465.91699219 C38.92538947 469.12977711 37.09104584 472.34961396 35.2578125 475.5703125 C28.26186267 487.82487267 21.06879831 499.90031137 13.4296875 511.76416016 C11.99815758 514.00288129 10.58949887 516.25440321 9.1875 518.51171875 C-2.18487922 536.79077125 -14.32887232 554.59665757 -27 572 C-23.32636577 579.48261288 -18.45677906 585.90988111 -13.28320312 592.39208984 C-12.08207662 593.89715437 -10.89217512 595.41115788 -9.703125 596.92578125 C1.980214 611.72082941 1.980214 611.72082941 18 621 C24.10666443 621.55919351 29.34298572 620.73150532 35.0625 618.625 C35.79146484 618.35953369 36.52042969 618.09406738 37.27148438 617.82055664 C52.13305887 612.10000451 64.65403441 601.81925921 77 592 C77.98613281 591.21753906 78.97226562 590.43507813 79.98828125 589.62890625 C91.3619672 580.44570797 102.30299429 570.74767127 112.99609375 560.78515625 C115.75643694 558.21548595 118.55976247 555.69701038 121.375 553.1875 C124.79941241 550.12209857 128.07057596 546.95861511 131.2890625 543.6796875 C133.7575883 541.25624893 136.38330313 539.02911152 139.0078125 536.77734375 C141.66191631 534.40946682 144.11257203 531.86925518 146.5546875 529.28515625 C148 528 148 528 150 528 C150.37584229 528.93231445 150.75168457 529.86462891 151.13891602 530.82519531 C158.94650779 550.18252883 166.82707031 569.50596194 174.89868164 588.75488281 C176.32743708 592.16245537 177.74599871 595.57414418 179.16046143 598.9876709 C180.0300875 601.07211813 180.91504563 603.14968432 181.80029297 605.22753906 C182.36608733 606.58115987 182.93137451 607.93499281 183.49609375 609.2890625 C184.00197021 610.4848291 184.50784668 611.6805957 185.02905273 612.91259766 C185.98623099 615.95621752 186.2823076 617.14069045 185 620 C183.21484375 622.11328125 183.21484375 622.11328125 180.9375 624.3125 C180.11894531 625.10398437 179.30039062 625.89546875 178.45703125 626.7109375 C175.7374108 629.24463795 172.97388809 631.7096415 170.15234375 634.12890625 C167.61947838 636.33079829 165.15667478 638.60195826 162.6875 640.875 C159.08608829 644.16432238 155.42692725 647.32017636 151.625 650.375 C147.421856 653.76385969 143.43796823 657.31239266 139.5 661 C134.69453707 665.49958994 129.7483902 669.73103247 124.61328125 673.85546875 C122.00152377 675.99874956 119.49634698 678.2238033 117 680.5 C111.82800919 685.20626652 106.43652596 689.60483676 101 694 C99.22871427 695.45778383 97.45788366 696.9161208 95.6875 698.375 C59.35775626 728.0615906 20.51103493 748.93332851 -27.9375 744.3125 C-49.19327586 741.97051994 -65.93924721 728.19981784 -79 712 C-80.21042969 710.51113281 -80.21042969 710.51113281 -81.4453125 708.9921875 C-87.23484084 701.7862287 -92.66791452 694.3655806 -97.94018555 686.77368164 C-100.51084819 683.07492749 -103.1316276 679.4786644 -106 676 C-106.47566406 676.46148438 -106.95132812 676.92296875 -107.44140625 677.3984375 C-118.80730639 687.98986562 -132.34725921 695.74206893 -146 703 C-146.79196777 703.42394043 -147.58393555 703.84788086 -148.39990234 704.28466797 C-208.68630361 736.28076653 -288.34092007 760.01165823 -356 740 C-384.72772414 730.99987627 -408.20061463 715.50984427 -430 695 C-430.70898438 694.34515625 -431.41796875 693.6903125 -432.1484375 693.015625 C-437.95111212 687.47347863 -442.79763625 681.19583116 -447.62841797 674.81152344 C-448.50463638 673.65425384 -449.38598456 672.50083867 -450.27392578 671.35253906 C-492.44307686 616.67828442 -502.1071901 545.23276645 -493.78564453 478.54882812 C-484.4722243 408.69337072 -464.57389939 336.07561809 -433 273 C-432.55817383 272.10845215 -432.11634766 271.2169043 -431.66113281 270.29833984 C-424.54055768 255.99463295 -416.34677251 242.38779417 -407.95661926 228.80641174 C-406.03331197 225.69078137 -404.13376386 222.56377688 -402.2734375 219.41015625 C-386.53055952 192.82161996 -368.77940552 166.2293147 -348.49609375 142.89453125 C-346.17838314 140.20685744 -343.95919807 137.46442495 -341.75 134.6875 C-329.05595958 119.12487749 -314.53585736 103.75774398 -299 91 C-298.46890625 90.5551123 -297.9378125 90.11022461 -297.390625 89.65185547 C-257.03034342 55.85658764 -215.78685566 42.51781325 -163 44 C-162.30600098 44.01401855 -161.61200195 44.02803711 -160.89697266 44.04248047 C-148.90711044 44.32607389 -142.48341256 48.47428093 -133.0625 55.375 C-132.30259766 55.92671875 -131.54269531 56.4784375 -130.75976562 57.046875 C-125.80505178 60.65184186 -120.89194056 64.3103938 -116 68 C-118.18845004 70.26779195 -120.03447477 71.62797272 -122.875 73 C-139.10180747 81.8485989 -151.75758567 97.71125405 -163 112 C-163.75120117 112.95036133 -163.75120117 112.95036133 -164.51757812 113.91992188 C-173.60110169 125.42714831 -182.37606255 137.14546914 -191 149 C-191.55574707 149.76344727 -192.11149414 150.52689453 -192.68408203 151.31347656 C-198.51547464 159.33399484 -204.29246899 167.39087804 -210 175.5 C-214.09289014 181.31507929 -218.21407769 187.10837156 -222.375 192.875 C-223.18022095 193.99177124 -223.18022095 193.99177124 -224.00170898 195.13110352 C-226.8066493 199.00899916 -229.63819802 202.86401314 -232.51171875 206.69140625 C-282.49844018 273.36788631 -315.71482935 357.79014235 -349 490 C-349.14550293 490.83208984 -349.29100586 491.66417969 -349.44091797 492.52148438 C-355.77813719 530.12400161 -351.78317938 575.26787743 -329.7734375 607.3359375 C-327.59819861 610.30353144 -325.34294699 613.16358276 -323 616 C-322.04673828 617.19882813 -322.04673828 617.19882813 -321.07421875 618.421875 C-311.25971731 630.20740468 -296.58890547 640.36588844 -281 642 C-248.4187939 644.43143329 -208.23719332 625.78278741 -182.89453125 606.65625 C-182.26933594 606.1096875 -181.64414062 605.563125 -181 605 C-192.21485512 583.4685941 -192.21485512 583.4685941 -211.94921875 570.328125 C-214.65221221 569.89564605 -217.26328905 569.86815822 -220 569.875 C-221.546875 569.87113281 -221.546875 569.87113281 -223.125 569.8671875 C-225.86280595 569.89525011 -225.86280595 569.89525011 -227.90332031 570.49121094 C-243.17129901 574.19620251 -260.05608473 570.45464285 -273.25 562.5 C-276.89795424 560.09824131 -279.49453005 557.59211197 -282 554 C-284.48587565 539.08474608 -272.69240025 519.96848344 -264.5 508.0625 C-249.45349561 487.29372569 -228.75793272 473.1679952 -203.5625 467.625 C-178.43915972 463.92140728 -154.29249399 471.45360347 -133.92578125 486.23046875 C-131.21266736 488.41721533 -128.59755555 490.67752598 -126 493 C-125.07574219 493.79277344 -124.15148437 494.58554687 -123.19921875 495.40234375 C-117.38812284 500.49006673 -112.50263287 505.75519487 -107.77734375 511.84765625 C-106.17880942 514.07931141 -106.17880942 514.07931141 -104 515 C-103.77441406 514.35160156 -103.54882812 513.70320312 -103.31640625 513.03515625 C-101.54086564 508.94140239 -99.25716302 505.24350091 -96.9375 501.4375 C-96.41438232 500.57253906 -95.89126465 499.70757812 -95.35229492 498.81640625 C-93.57201343 495.87527309 -91.78608895 492.93760959 -90 490 C-88.67425181 487.81393995 -87.34873872 485.62773731 -86.0234375 483.44140625 C-82.79088146 478.1105319 -79.55403331 472.78227539 -76.31559753 467.45497131 C-73.78600024 463.29363825 -71.25769048 459.13152618 -68.73046875 454.96875 C-68.38089615 454.39299728 -68.03132355 453.81724457 -67.67115784 453.2240448 C-65.90848325 450.32072186 -64.14633509 447.41708115 -62.38500977 444.51293945 C-58.8041161 438.6099202 -55.21447448 432.71248959 -51.609375 426.82421875 C-42.77439553 412.38192639 -34.11919421 397.86044369 -26 383 C-25.49130371 382.06913574 -24.98260742 381.13827148 -24.45849609 380.17919922 C7.03920732 322.12558738 24.19274426 257.99443937 24.25 191.875 C24.25100708 191.0621756 24.25201416 190.2493512 24.25305176 189.41189575 C24.25922269 159.54751338 24.25922269 159.54751338 12 133 C7.122037 128.575801 4.21900414 127.69130696 -2.22265625 127.79296875 C-13.475973 128.63182359 -23.0258888 134.49725498 -30.625 142.625 C-35.54382882 148.43498431 -39.89302925 154.60072597 -44 161 C-44.37705078 161.58507324 -44.75410156 162.17014648 -45.14257812 162.77294922 C-64.11452905 192.6353136 -84.36103725 231.18175843 -78.421875 267.5390625 C-75.87592251 275.57038536 -70.42833356 282.39797228 -63.16796875 286.6640625 C-57.09179449 289.38759015 -51.18512561 290.55656298 -44.62890625 291.48828125 C-38.33322212 292.71374131 -34.59008675 296.95447268 -31 302 C-25.99477406 311.32007588 -26.91592244 323.0297035 -29.5625 333 C-36.80257716 355.33206897 -47.55670934 371.84487523 -68.546875 383.40234375 C-79.65526711 388.93970891 -92.64577727 391.5468148 -105 392 C-105.75667969 392.03996094 -106.51335937 392.07992188 -107.29296875 392.12109375 C-129.48445873 392.75301223 -149.20965596 386.70912887 -166 372 C-167.01513672 371.12794922 -167.01513672 371.12794922 -168.05078125 370.23828125 C-187.89984103 351.90077312 -196.59336448 322.98419055 -200 297 C-200.0942627 296.30310059 -200.18852539 295.60620117 -200.28564453 294.88818359 C-201.26734719 286.57971261 -201.24361943 278.22943337 -201.25 269.875 C-201.25067474 269.07831909 -201.25134949 268.28163818 -201.25204468 267.46081543 C-201.23372314 253.7795902 -200.38515007 240.49393959 -198 227 C-197.83371094 226.02740234 -197.66742188 225.05480469 -197.49609375 224.05273438 C-193.75227756 202.71298209 -187.68503808 181.93340317 -177 163 C-176.48034668 162.06003174 -176.48034668 162.06003174 -175.95019531 161.10107422 C-170.51058728 151.32918916 -164.13904598 142.59147257 -157 134 C-156.53271484 133.43506836 -156.06542969 132.87013672 -155.58398438 132.28808594 C-149.56584927 125.03386084 -143.36692793 117.95047615 -137 111 C-136.52385254 110.47873535 -136.04770508 109.9574707 -135.55712891 109.42041016 C-128.09668858 101.25870266 -120.67223448 93.21863925 -112.27734375 86 C-110.10225701 84.08980376 -107.9850417 82.1263511 -105.87255859 80.14746094 C-98.91099455 73.65121174 -91.58672932 67.74752221 -84 62 C-83.39784668 61.54093262 -82.79569336 61.08186523 -82.17529297 60.60888672 C-57.61477683 41.95491663 -31.70118065 27.16214542 -1 22 C-4.3 19.69 -7.6 17.38 -11 15 C-10.08831227 9.5298736 -9.81645455 8.12441773 -6.625 4.125 C-6.01914062 3.34382812 -5.41328125 2.56265625 -4.7890625 1.7578125 C-3 0 -3 0 0 0 Z M-125.375 107.25 C-126.21949707 108.08982422 -127.06399414 108.92964844 -127.93408203 109.79492188 C-132.82882482 114.70227248 -137.5191603 119.71260916 -142 125 C-142.5475293 125.6408252 -143.09505859 126.28165039 -143.65917969 126.94189453 C-169.22729108 157.04628375 -184.94442836 187.89353705 -192 227 C-192.16371094 227.86753906 -192.32742188 228.73507813 -192.49609375 229.62890625 C-199.81092901 269.70936723 -197.60457687 318.83443365 -174.15844727 353.45092773 C-162.82572693 369.37580195 -147.93088729 380.98698436 -128.40625 384.6796875 C-105.35071027 388.15707263 -80.4468818 385.82108011 -61 372 C-47.95951023 362.04850916 -41.34586592 349.10558824 -36 334 C-35.731875 333.27425781 -35.46375 332.54851562 -35.1875 331.80078125 C-32.88092476 324.41653692 -32.38502868 314.12002529 -35.1875 306.875 C-37.86474134 302.62834132 -40.8391925 299.77387166 -45 297 C-46.93047415 296.71770023 -48.87022883 296.49690799 -50.8125 296.3125 C-60.98182988 294.84675301 -71.19012626 290.57791831 -77.60546875 282.24609375 C-86.34153966 268.17539131 -87.1996972 251.39677719 -83.92504883 235.3515625 C-83.08882826 231.85425947 -82.08817991 228.42652378 -81 225 C-80.78520996 224.30503418 -80.57041992 223.61006836 -80.34912109 222.89404297 C-70.25354597 191.05860571 -49.96958274 142.64658096 -19.125 126.25 C-10.83863357 122.35716018 -1.38657139 120.11653508 7.609375 122.76953125 C15.89970629 126.32432482 19.83805714 132.15771925 23.43359375 140.2109375 C46.9937189 203.55062113 22.77596393 292.96897682 -3.74023438 351.90966797 C-5.13995192 354.9497718 -6.56307842 357.97731045 -8 361 C-8.50257324 362.05880371 -9.00514648 363.11760742 -9.52294922 364.20849609 C-17.2242577 380.29028736 -25.82270991 395.7207308 -35 411 C-35.98496758 412.65329294 -36.96936922 414.30692322 -37.953125 415.9609375 C-45.45042351 428.53663829 -53.0790961 441.03405226 -60.68421936 453.54473877 C-64.27360425 459.44944686 -67.85979031 465.35609447 -71.44555664 471.26300049 C-73.19929061 474.15195135 -74.95313965 477.04083234 -76.70703125 479.9296875 C-77.05541046 480.50351166 -77.40378967 481.07733582 -77.76272583 481.66854858 C-79.99766403 485.34959687 -82.23319181 489.03028653 -84.46908569 492.71075439 C-86.00589418 495.24051766 -87.54250489 497.77040104 -89.07910156 500.30029297 C-89.80442647 501.49436309 -90.52984589 502.68837579 -91.25537109 503.88232422 C-92.26815139 505.54900313 -93.28056469 507.21590503 -94.29296875 508.8828125 C-95.23342041 510.42630371 -95.23342041 510.42630371 -96.19287109 512.00097656 C-97.3959224 513.99750213 -98.58128724 516.0047942 -99.74853516 518.02246094 C-100.28140137 518.9405957 -100.81426758 519.85873047 -101.36328125 520.8046875 C-101.82645752 521.61663574 -102.28963379 522.42858398 -102.7668457 523.26513672 C-103.17378662 523.8376416 -103.58072754 524.41014648 -104 525 C-104.66 525 -105.32 525 -106 525 C-107.25033597 523.42283761 -108.42442042 521.78498678 -109.5625 520.125 C-113.66186957 514.34726535 -118.14919912 509.15341965 -123 504 C-123.52722656 503.40832031 -124.05445313 502.81664062 -124.59765625 502.20703125 C-139.40958158 486.25864106 -162.16097314 474.07315645 -183.9609375 472.76171875 C-208.26409499 472.15290014 -228.77532952 481.08867778 -247 497 C-247.62648438 497.54140625 -248.25296875 498.0828125 -248.8984375 498.640625 C-257.63579109 506.762672 -263.85576864 517.07225174 -268.9375 527.75 C-269.30278809 528.51731445 -269.66807617 529.28462891 -270.04443359 530.07519531 C-273.18575201 536.93885135 -276.5192058 544.31916673 -276 552 C-270.25601633 559.62872831 -259.06317192 563.58809693 -250 565 C-242.02412319 565.49409605 -233.82969994 565.72226902 -226 564 C-215.43503351 563.00731859 -206.98483404 564.66555561 -198.30859375 570.94921875 C-186.45771 581.02699318 -179.87798681 594.35229098 -173 608 C-176.34112778 610.68384828 -179.94941439 612.69704584 -183.72265625 614.6953125 C-184.70273903 615.21878014 -184.70273903 615.21878014 -185.70262146 615.75282288 C-187.82022068 616.88139154 -189.94093087 618.00391375 -192.0625 619.125 C-192.7848584 619.50749908 -193.5072168 619.88999817 -194.25146484 620.28408813 C-258.6902861 654.36733548 -258.6902861 654.36733548 -290.671875 646.1015625 C-301.04572179 642.66796532 -309.94289635 637.32463968 -318 630 C-318.83144531 629.24976563 -319.66289062 628.49953125 -320.51953125 627.7265625 C-327.0583194 621.51923366 -332.27882306 614.64391285 -337 607 C-337.34804688 606.43716309 -337.69609375 605.87432617 -338.0546875 605.29443359 C-366.5529307 558.11430634 -358.79061988 498.66315361 -346.47393799 447.82879639 C-337.56483454 411.7682369 -325.27192973 376.27060131 -311 342 C-310.73312378 341.35621399 -310.46624756 340.71242798 -310.19128418 340.0491333 C-290.68877619 293.0150822 -269.54108075 246.12224928 -238.72753906 205.30419922 C-235.89658409 201.52825899 -233.13395613 197.70371325 -230.375 193.875 C-229.84003906 193.13354736 -229.30507813 192.39209473 -228.75390625 191.62817383 C-224.63642673 185.90966098 -220.57143709 180.15503856 -216.5168457 174.3918457 C-211.82633459 167.73318044 -207.06149954 161.12958404 -202.28125 154.53515625 C-200.10326932 151.53008611 -197.93724268 148.51697522 -195.78125 145.49609375 C-188.12138124 134.78158332 -180.18914317 124.31550371 -172 114 C-171.15622803 112.93555664 -171.15622803 112.93555664 -170.29541016 111.84960938 C-163.18716422 102.91117066 -155.88588656 94.26468461 -148 86 C-147.54383301 85.51660156 -147.08766602 85.03320312 -146.61767578 84.53515625 C-140.6017104 78.18438565 -134.40495404 72.70640246 -127 68 C-131.31717872 64.49706324 -135.74111755 61.14829281 -140.1875 57.8125 C-141.27321289 56.99362305 -141.27321289 56.99362305 -142.38085938 56.15820312 C-143.07373047 55.63806641 -143.76660156 55.11792969 -144.48046875 54.58203125 C-145.10848389 54.10999268 -145.73649902 53.6379541 -146.38354492 53.15161133 C-160.7412766 42.92273044 -195.68399998 50.11307773 -212.18359375 52.8125 C-236.68282547 57.16489322 -258.37885312 66.65303448 -278 82 C-278.6403418 82.49902832 -279.28068359 82.99805664 -279.94042969 83.51220703 C-293.32497217 94.01477093 -305.57527602 105.49675538 -317.64355469 117.46932983 C-318.69683317 118.51390436 -319.75147457 119.55710681 -320.80761719 120.5987854 C-327.68688282 127.39494488 -333.96969271 134.42418702 -340 142 C-340.94723021 143.12459101 -341.90045441 144.24420169 -342.86328125 145.35546875 C-354.24142844 158.51201853 -364.29063489 172.58399208 -374 187 C-374.70310303 188.03930664 -374.70310303 188.03930664 -375.42041016 189.09960938 C-394.81342011 217.79207622 -413.00339309 247.27023265 -429 278 C-429.69270996 279.31025146 -429.69270996 279.31025146 -430.39941406 280.64697266 C-467.22856405 350.90301112 -490.71109293 445.46816117 -480.1875 597.4375 C-476.78078867 608.25304411 -472.78675468 618.72221089 -468 629 C-467.67531738 629.69770508 -467.35063477 630.39541016 -467.01611328 631.11425781 C-457.38929838 651.5370976 -445.22693831 670.20569958 -429.48339844 686.46533203 C-428.448902 687.53558296 -427.42142289 688.61264221 -426.39941406 689.69482422 C-398.46562173 719.25115732 -358.08882352 739.68340218 -317 741 C-316.04746338 741.03867188 -316.04746338 741.03867188 -315.07568359 741.078125 C-246.35062283 743.56647298 -161.41503922 716.70426617 -109.30859375 671.1796875 C-106.96567079 669.21745238 -106.96567079 669.21745238 -106 667 C-105.34 667 -104.68 667 -104 667 C-102.77001953 668.49023437 -102.77001953 668.49023437 -101.3828125 670.59375 C-100.86444824 671.36895996 -100.34608398 672.14416992 -99.81201172 672.94287109 C-99.25529785 673.78672363 -98.69858398 674.63057617 -98.125 675.5 C-73.44333511 713.80964801 -73.44333511 713.80964801 -36 737 C-1.6582354 743.705559 33.60072073 734.04732121 63 716 C68.91418775 711.98600277 74.46941624 707.52058678 80 703 C81.00546875 702.19433594 82.0109375 701.38867188 83.046875 700.55859375 C88.49646253 696.15639804 93.83183575 691.61777868 99.16943359 687.08105469 C102.5388784 684.22086344 105.94053611 681.40722149 109.375 678.625 C115.0780134 673.9814724 120.6198598 669.16259591 126.1640625 664.33203125 C129.2353542 661.65766167 132.32814249 659.00997371 135.42993164 656.37109375 C141.5190863 651.18782666 147.46559811 645.8784686 153.3359375 640.44921875 C156.13273904 637.87796572 158.98285565 635.38009753 161.85546875 632.89453125 C165.24822714 629.89728568 168.56420202 626.81575255 171.87695312 623.73046875 C174.17574025 621.60386411 176.38658573 619.74227618 179 618 C178.38384418 612.74607871 176.6922222 608.38858391 174.640625 603.5703125 C174.29948166 602.7544014 173.95833832 601.9384903 173.6068573 601.09785461 C172.49351183 598.43784611 171.37167189 595.78150667 170.25 593.125 C169.09229122 590.36343441 167.93699814 587.60086706 166.78196716 584.83818054 C166.00087117 582.96998935 165.21909888 581.10208078 164.43666077 579.23445129 C160.70798997 570.3272685 157.06038322 561.38813738 153.4375 552.4375 C152.87859087 551.05810136 152.31967191 549.6787067 151.76074219 548.29931641 C150.505541 545.2001983 149.2521265 542.10036186 148 539 C145.02879335 538.68599577 145.02879335 538.68599577 143.31762695 540.35766602 C142.71394287 540.98342529 142.11025879 541.60918457 141.48828125 542.25390625 C140.81216797 542.94419922 140.13605469 543.63449219 139.43945312 544.34570312 C138.38661133 545.44301758 138.38661133 545.44301758 137.3125 546.5625 C132.67446687 551.34944071 128.00236734 555.96531705 122.94458008 560.30932617 C119.76976299 563.06960342 116.74047531 565.98159635 113.6875 568.875 C108.54419859 573.71178079 103.31065135 578.33241168 97.7890625 582.73828125 C95.16268574 584.86807417 92.61155603 587.06076827 90.06567383 589.28491211 C74.47838766 602.86653717 56.90729883 617.49670819 37 624 C36.25878906 624.29390625 35.51757812 624.5878125 34.75390625 624.890625 C26.41766518 628.0690878 18.76453044 628.11458248 10.56640625 624.4453125 C-3.88959248 616.30418689 -13.99401287 602.16452184 -23.55273438 588.99121094 C-24.50374116 587.68277447 -25.46061592 586.37857921 -26.42382812 585.07910156 C-27.73349266 583.31207907 -29.02554276 581.53360095 -30.3125 579.75 C-31.05113281 578.73421875 -31.78976562 577.7184375 -32.55078125 576.671875 C-34 574 -34 574 -33.74365234 572.05737305 C-32.94056767 569.83557576 -31.96800412 568.29699743 -30.55078125 566.41015625 C-30.03950684 565.71913818 -29.52823242 565.02812012 -29.00146484 564.31616211 C-28.44410645 563.57245361 -27.88674805 562.82874512 -27.3125 562.0625 C-19.86004316 551.93301762 -12.89721055 541.51261657 -6 531 C-5.52884766 530.28553711 -5.05769531 529.57107422 -4.57226562 528.83496094 C9.7748932 507.06288561 23.18326222 484.70216148 36 462 C36.32762329 461.41994202 36.65524658 460.83988403 36.99279785 460.24224854 C77.17283768 389.03566748 102.03635967 312.84290295 113.75 231.9375 C113.85114105 231.24626038 113.9522821 230.55502075 114.05648804 229.84283447 C116.81896076 210.77712727 118.3586005 191.79409116 118.31567383 172.52319336 C118.31250431 169.56652165 118.33615039 166.61084711 118.36132812 163.65429688 C118.42089996 145.8859176 116.8711337 128.10271019 112.3125 110.875 C111.93339478 109.4067981 111.93339478 109.4067981 111.54663086 107.90893555 C104.37197425 81.14468452 92.5426892 53.96000999 68 39 C-3.90315788 -0.54673683 -76.83912981 58.89981997 -125.375 107.25 Z " fill="#000000" transform="translate(528,0)"/>
<path d="M0 0 C6.517904 4.68956663 12.55343845 10.81246164 14 19 C14.7992898 30.25557271 13.99078008 38.31915226 6.75 47.25 C1.33164802 53.0878373 -4.3711544 56.67129269 -12.35546875 57.23828125 C-23.57071698 57.45549809 -30.8402179 55.69919895 -39.20703125 47.93359375 C-46.38318634 40.19460297 -47.48473506 33.10670258 -47.2734375 22.765625 C-46.64352117 14.09077723 -42.28194806 7.82507911 -36 2 C-25.82502277 -5.66451556 -10.93235165 -7.28107507 0 0 Z " fill="#000000" transform="translate(340,73)"/>
<path d="M0 0 C1.32 0 2.64 0 4 0 C3.37614093 7.04069525 1.65024735 13.69409953 -0.09460449 20.53201294 C-7.62802286 50.25954068 -12.94729625 80.48388756 -16 111 C-16.08613556 111.82838379 -16.17227112 112.65676758 -16.26101685 113.51025391 C-17.88821928 129.45917385 -18.34270212 145.30769865 -18.31567383 161.33447266 C-18.31251428 165.23238158 -18.33608765 169.12952773 -18.36132812 173.02734375 C-18.49352881 225.93822348 -9.08701433 285.54815277 25 328 C25.45842285 328.58040039 25.9168457 329.16080078 26.38916016 329.75878906 C51.52920251 361.32209096 88.33390247 377.60288431 127.875 382.25 C155.8604914 385.05237994 199.21254312 386.89372844 225 374 C224.01 373.401875 223.02 372.80375 222 372.1875 C220.515 371.1046875 220.515 371.1046875 219 370 C219 369.01 219 368.02 219 367 C223.06225548 367.57823096 225.84762346 368.89117737 229.3125 371.0625 C230.19550781 371.61035156 231.07851562 372.15820312 231.98828125 372.72265625 C232.98408203 373.35494141 232.98408203 373.35494141 234 374 C233.4520917 378.2829452 231.97567196 380.85135641 229.4375 384.3125 C228.47650391 385.63701172 228.47650391 385.63701172 227.49609375 386.98828125 C226.75552734 387.98408203 226.75552734 387.98408203 226 389 C225.01 388.67 224.02 388.34 223 388 C224.05875074 384.59687262 225.00902154 381.98646769 227 379 C226.39865234 379.13575439 225.79730469 379.27150879 225.17773438 379.41137695 C209.85088725 382.83327224 194.61495611 385.34868521 179 387 C177.85144531 387.13277344 176.70289063 387.26554687 175.51953125 387.40234375 C128.91415427 391.99369668 81.72540752 383.0410021 44.0625 354.375 C26.9671476 340.17573526 14.17591087 323.66080639 4 304 C3.6587207 303.34870117 3.31744141 302.69740234 2.96582031 302.02636719 C-15.70202489 265.95901842 -23.04132415 222.69898379 -23.203125 182.37109375 C-23.21013931 181.19535797 -23.21715363 180.01962219 -23.22438049 178.80825806 C-23.24183211 175.0179661 -23.2482366 171.22783071 -23.25 167.4375 C-23.25067474 166.13900116 -23.25134949 164.84050232 -23.25204468 163.50265503 C-23.2349985 142.83074085 -22.56724946 122.51138888 -20 102 C-19.82663688 100.5753609 -19.65329755 99.15071891 -19.47998047 97.72607422 C-15.39452329 64.63229902 -8.43504045 32.23685453 0 0 Z " fill="#000000" transform="translate(23,388)"/>
<path d="M0 0 C1.31626692 3.61973402 2 6.09567131 2 10 C1.01 10 0.02 10 -1 10 C-1.99 8.02 -1.99 8.02 -3 6 C-3.81791016 7.14275391 -3.81791016 7.14275391 -4.65234375 8.30859375 C-17.84518235 26.3726343 -34.19294905 39.07283562 -56.60546875 43.5 C-62.51682617 44.31437085 -68.48037942 44.28731046 -74.4375 44.3125 C-76.12673584 44.32083862 -76.12673584 44.32083862 -77.85009766 44.3293457 C-83.60802774 44.27906373 -88.56986516 43.96109906 -94 42 C-93.34 41.01 -92.68 40.02 -92 39 C-90.65421875 39.23396484 -90.65421875 39.23396484 -89.28125 39.47265625 C-66.50528272 43.02551891 -45.02055594 38.90676252 -25.8671875 25.8671875 C-17.76503324 19.57052722 -11.11846301 11.89332949 -6 3 C-7.98 3.33 -9.96 3.66 -12 4 C-12 3.01 -12 2.02 -12 1 C-7.58774263 -0.47075246 -4.51718381 -1.36884358 0 0 Z " fill="#000000" transform="translate(615,540)"/>
<path d="M0 0 C1.4540625 0.0309375 1.4540625 0.0309375 2.9375 0.0625 C5.0625 4.6875 5.0625 4.6875 3.9375 8.0625 C4.26300502 9.73071323 4.59596063 11.39749557 4.9375 13.0625 C4.6075 13.7225 4.2775 14.3825 3.9375 15.0625 C1.125 15.9375 1.125 15.9375 -2.0625 16.0625 C-4.4375 14.125 -4.4375 14.125 -6.0625 12.0625 C-2.43923261 10.8547442 -1.42103631 11.51938872 1.9375 13.0625 C1.9375 11.7425 1.9375 10.4225 1.9375 9.0625 C0.6175 9.0625 -0.7025 9.0625 -2.0625 9.0625 C-2.0625 8.0725 -2.0625 7.0825 -2.0625 6.0625 C-0.7425 6.0625 0.5775 6.0625 1.9375 6.0625 C1.6075 5.0725 1.2775 4.0825 0.9375 3.0625 C-1.0425 3.7225 -3.0225 4.3825 -5.0625 5.0625 C-3.9375 0.08035714 -3.9375 0.08035714 0 0 Z " fill="#000000" transform="translate(574.0625,538.9375)"/>
<path d="M0 0 C3.0625 0.1875 3.0625 0.1875 5.0625 2.1875 C4.90004442 5.92397845 4.47466356 7.71288742 2 10.5625 C1.360625 11.09875 0.72125 11.635 0.0625 12.1875 C1.7125 12.5175 3.3625 12.8475 5.0625 13.1875 C5.0625 13.8475 5.0625 14.5075 5.0625 15.1875 C1.7625 15.1875 -1.5375 15.1875 -4.9375 15.1875 C-2.9375 11.1875 -2.9375 11.1875 -0.8125 8.625 C1.36735538 6.30372611 1.36735538 6.30372611 1.0625 3.1875 C0.4025 3.1875 -0.2575 3.1875 -0.9375 3.1875 C-1.2675 3.8475 -1.5975 4.5075 -1.9375 5.1875 C-2.9275 5.1875 -3.9175 5.1875 -4.9375 5.1875 C-3.82120474 0.24390669 -3.82120474 0.24390669 0 0 Z " fill="#000000" transform="translate(685.9375,25.8125)"/>
<path d="M0 0 C0 4.95 0 9.9 0 15 C-0.99 15 -1.98 15 -3 15 C-3 11.37 -3 7.74 -3 4 C-3.99 4.33 -4.98 4.66 -6 5 C-5.625 3.0625 -5.625 3.0625 -5 1 C-3 0 -3 0 0 0 Z " fill="#000000" transform="translate(17,715)"/>
<path d="M0 0 C0 4.95 0 9.9 0 15 C-0.99 15 -1.98 15 -3 15 C-3 11.37 -3 7.74 -3 4 C-3.99 4.33 -4.98 4.66 -6 5 C-5.625 3.0625 -5.625 3.0625 -5 1 C-3 0 -3 0 0 0 Z " fill="#000000" transform="translate(561,539)"/>
<path d="M0 0 C0 4.95 0 9.9 0 15 C-0.99 15 -1.98 15 -3 15 C-3 11.37 -3 7.74 -3 4 C-3.99 4.33 -4.98 4.66 -6 5 C-5.625 3.0625 -5.625 3.0625 -5 1 C-3 0 -3 0 0 0 Z " fill="#000000" transform="translate(673,26)"/>
<path d="M0 0 C5.445 1.485 5.445 1.485 11 3 C11 3.99 11 4.98 11 6 C7.7 5.34 4.4 4.68 1 4 C0.67 2.68 0.34 1.36 0 0 Z " fill="#000000" transform="translate(193,684)"/>
<path d="M0 0 C2.96404505 2.80804268 5.44499019 5.18315774 7 9 C5.68 9 4.36 9 3 9 C-2 3.77272727 -2 3.77272727 -2 1 C-1.34 0.67 -0.68 0.34 0 0 Z " fill="#000000" transform="translate(464,638)"/>
<path d="M0 0 C0.99 0 1.98 0 3 0 C4.65 2.97 6.3 5.94 8 9 C6.68 9 5.36 9 4 9 C0 4 0 4 0 0 Z " fill="#000000" transform="translate(133,631)"/>
<path d="M0 0 C0.99 0.33 1.98 0.66 3 1 C1.47291037 4.43595166 -0.59927045 7.11912454 -3 10 C-3.99 9.67 -4.98 9.34 -6 9 C-4.47291037 5.56404834 -2.40072955 2.88087546 0 0 Z " fill="#000000" transform="translate(626,604)"/>
<path d="M0 0 C0.99 0 1.98 0 3 0 C2.39301257 4.12751449 0.96189209 7.3321148 -1 11 C-1.99 10.67 -2.98 10.34 -4 10 C-2.8905928 6.51329166 -1.73662334 3.22515763 0 0 Z " fill="#000000" transform="translate(205,247)"/>
<path d="M0 0 C0 0.99 0 1.98 0 3 C-3.63 3.66 -7.26 4.32 -11 5 C-11.33 4.01 -11.66 3.02 -12 2 C-10.56342755 1.66269158 -9.12569907 1.33030409 -7.6875 1 C-6.88699219 0.814375 -6.08648437 0.62875 -5.26171875 0.4375 C-3 0 -3 0 0 0 Z " fill="#000000" transform="translate(267,685)"/>
<path d="M0 0 C4.40114397 0.50298788 6.71195019 2.08772731 10 5 C9.67 5.99 9.34 6.98 9 8 C5.88256767 6.49901406 2.84498177 4.97568178 0 3 C0 2.01 0 1.02 0 0 Z " fill="#000000" transform="translate(175,674)"/>
<path d="M0 0 C0.66 0.33 1.32 0.66 2 1 C2 1.66 2 2.32 2 3 C0.5437455 3.67119549 -0.91507867 4.33681807 -2.375 5 C-3.59316406 5.556875 -3.59316406 5.556875 -4.8359375 6.125 C-7 7 -7 7 -9 7 C-9 6.01 -9 5.02 -9 4 C-7.54618103 3.30300448 -6.08677047 2.61766134 -4.625 1.9375 C-3.40683594 1.36322266 -3.40683594 1.36322266 -2.1640625 0.77734375 C-1.44992187 0.52082031 -0.73578125 0.26429688 0 0 Z " fill="#000000" transform="translate(305,671)"/>
<path d="M0 0 C1.17539996 0.92652701 2.34010577 1.86663387 3.5 2.8125 C4.1496875 3.33457031 4.799375 3.85664062 5.46875 4.39453125 C7 6 7 6 7 9 C3.15314615 7.75237172 0.97070595 6.6129609 -1 3 C-0.67 2.01 -0.34 1.02 0 0 Z " fill="#000000" transform="translate(490,669)"/>
<path d="M0 0 C0.515625 0.2475 1.03125 0.495 1.5625 0.75 C-0.80800084 3.37002725 -3.31026017 5.10819909 -6.4375 6.75 C-7.4275 6.75 -8.4175 6.75 -9.4375 6.75 C-9.4375 5.76 -9.4375 4.77 -9.4375 3.75 C-3.0375 -0.31153846 -3.0375 -0.31153846 0 0 Z " fill="#000000" transform="translate(324.4375,662.25)"/>
<path d="M0 0 C3.78717347 1.48781815 5.77407001 3.61988409 8 7 C7.67 7.99 7.34 8.98 7 10 C0.42857143 4.85714286 0.42857143 4.85714286 -1 1 C-0.67 0.67 -0.34 0.34 0 0 Z " fill="#000000" transform="translate(476,654)"/>
<path d="M0 0 C0 0.99 0 1.98 0 3 C-2.97 4.65 -5.94 6.3 -9 8 C-9 6.68 -9 5.36 -9 4 C-4 0 -4 0 0 0 Z " fill="#000000" transform="translate(343,651)"/>
<path d="M0 0 C3.78717347 1.48781815 5.77407001 3.61988409 8 7 C7.67 7.99 7.34 8.98 7 10 C5.84775972 9.07038578 4.70340824 8.1309875 3.5625 7.1875 C2.60537109 6.40439453 2.60537109 6.40439453 1.62890625 5.60546875 C0 4 0 4 -1 1 C-0.67 0.67 -0.34 0.34 0 0 Z " fill="#000000" transform="translate(145,647)"/>
<path d="M0 0 C3.13506611 0.33589994 4.025249 1.02665172 6.25 3.375 C8 6 8 6 8 9 C4.86493389 8.66410006 3.974751 7.97334828 1.75 5.625 C0 3 0 3 0 0 Z " fill="#000000" transform="translate(450,623)"/>
<path d="M0 0 C0.99 0.66 1.98 1.32 3 2 C2.07347299 3.17539996 1.13336613 4.34010577 0.1875 5.5 C-0.33457031 6.1496875 -0.85664063 6.799375 -1.39453125 7.46875 C-3 9 -3 9 -6 9 C-5.52797514 4.75177626 -3.03344482 2.80010291 0 0 Z " fill="#000000" transform="translate(445,561)"/>
<path d="M0 0 C0.66 0 1.32 0 2 0 C2.69965443 1.26418246 3.38434763 2.53665402 4.0625 3.8125 C4.63677734 4.87404297 4.63677734 4.87404297 5.22265625 5.95703125 C6 8 6 8 5 11 C4.34 11 3.68 11 3 11 C1.68 7.7 0.36 4.4 -1 1 C-0.67 0.67 -0.34 0.34 0 0 Z " fill="#000000" transform="translate(383,301)"/>
<path d="M0 0 C0.99 0.33 1.98 0.66 3 1 C1.66511872 4.59391114 0.03977277 7.75490696 -2 11 C-2.99 10.67 -3.98 10.34 -5 10 C-3.35 6.7 -1.7 3.4 0 0 Z " fill="#000000" transform="translate(225,211)"/>
<path d="M0 0 C0.66 0.33 1.32 0.66 2 1 C1.38545304 4.99455527 -0.70646737 7.74466336 -3 11 C-3.99 10.34 -4.98 9.68 -6 9 C-4.02 6.03 -2.04 3.06 0 0 Z " fill="#000000" transform="translate(268,142)"/>
<path d="M0 0 C4.04648443 1.34882814 4.95502599 3.34826069 7 7 C6.67 7.99 6.34 8.98 6 10 C5.34 10 4.68 10 4 10 C2.67578125 8.57421875 2.67578125 8.57421875 1.3125 6.6875 C0.85488281 6.07261719 0.39726563 5.45773438 -0.07421875 4.82421875 C-0.53248047 3.92123047 -0.53248047 3.92123047 -1 3 C-0.67 2.01 -0.34 1.02 0 0 Z " fill="#000000" transform="translate(571,94)"/>
<path d="M0 0 C3.63 0 7.26 0 11 0 C11 0.99 11 1.98 11 3 C7.37 3 3.74 3 0 3 C0 2.01 0 1.02 0 0 Z " fill="#000000" transform="translate(235,689)"/>
<path d="M0 0 C1.45823212 -0.0270043 2.91660675 -0.04639787 4.375 -0.0625 C5.18710938 -0.07410156 5.99921875 -0.08570313 6.8359375 -0.09765625 C9 0 9 0 11 1 C11 1.66 11 2.32 11 3 C7.04 3 3.08 3 -1 3 C-0.67 2.01 -0.34 1.02 0 0 Z " fill="#000000" transform="translate(214,689)"/>
<path d="M0 0 C0 0.99 0 1.98 0 3 C-1.26839526 3.50615298 -2.53983102 4.00469099 -3.8125 4.5 C-4.87404297 4.91765625 -4.87404297 4.91765625 -5.95703125 5.34375 C-8 6 -8 6 -11 6 C-11 5.01 -11 4.02 -11 3 C-9.54293274 2.49632243 -8.08429904 1.99717444 -6.625 1.5 C-5.81289063 1.2215625 -5.00078125 0.943125 -4.1640625 0.65625 C-2 0 -2 0 0 0 Z " fill="#000000" transform="translate(287,679)"/>
<path d="M0 0 C0 0.66 0 1.32 0 2 C-3.87684087 3.19287411 -6.91621923 4 -11 4 C-11 3.01 -11 2.02 -11 1 C-3.57142857 -1.42857143 -3.57142857 -1.42857143 0 0 Z " fill="#000000" transform="translate(536,676)"/>
<path d="M0 0 C3.87206399 0.57363911 6.18465063 2.34105893 9 5 C9 5.99 9 6.98 9 8 C5.12793601 7.42636089 2.81534937 5.65894107 0 3 C0 2.01 0 1.02 0 0 Z " fill="#000000" transform="translate(159,662)"/>
<path d="M0 0 C0.99 0.33 1.98 0.66 3 1 C2.07347299 2.17539996 1.13336613 3.34010577 0.1875 4.5 C-0.33457031 5.1496875 -0.85664062 5.799375 -1.39453125 6.46875 C-3 8 -3 8 -6 8 C-6 7.01 -6 6.02 -6 5 C-3.1875 2.25 -3.1875 2.25 0 0 Z " fill="#000000" transform="translate(599,633)"/>
<path d="M0 0 C-0.125 1.75 -0.125 1.75 -1 4 C-6.22222222 8 -6.22222222 8 -9 8 C-8.66410006 4.86493389 -7.97334828 3.974751 -5.625 1.75 C-3 0 -3 0 0 0 Z " fill="#000000" transform="translate(375,628)"/>
<path d="M0 0 C0.99 0 1.98 0 3 0 C3.33 3.63 3.66 7.26 4 11 C3.01 11 2.02 11 1 11 C0.67 7.37 0.34 3.74 0 0 Z " fill="#000000" transform="translate(114,574)"/>
<path d="M0 0 C3.9492568 0.55105909 7.34920174 1.38935371 11 3 C10.67 3.99 10.34 4.98 10 6 C6.7 5.01 3.4 4.02 0 3 C0 2.01 0 1.02 0 0 Z " fill="#000000" transform="translate(362,542)"/>
<path d="M0 0 C0.99 0.33 1.98 0.66 3 1 C1.03681826 4.53372712 -1.04070881 7.24479785 -4 10 C-4.66 9.34 -5.32 8.68 -6 8 C-4.02 5.36 -2.04 2.72 0 0 Z " fill="#000000" transform="translate(470,531)"/>
<path d="M0 0 C0.99 0.33 1.98 0.66 3 1 C1.76067171 4.43198603 0.49698489 7.30325632 -2 10 C-2.99 10 -3.98 10 -5 10 C-3.66511872 6.40608886 -2.03977277 3.24509304 0 0 Z " fill="#000000" transform="translate(493,499)"/>
<path d="M0 0 C0.99 0 1.98 0 3 0 C2.34 3.63 1.68 7.26 1 11 C0.01 11 -0.98 11 -2 11 C-1.85892253 9.54119891 -1.71197585 8.08296449 -1.5625 6.625 C-1.48128906 5.81289063 -1.40007812 5.00078125 -1.31640625 4.1640625 C-1 2 -1 2 0 0 Z " fill="#000000" transform="translate(119,473)"/>
<path d="M0 0 C0.99 0.33 1.98 0.66 3 1 C1.94124926 4.40312738 0.99097846 7.01353231 -1 10 C-1.99 10 -2.98 10 -4 10 C-2.8905928 6.51329166 -1.73662334 3.22515763 0 0 Z " fill="#000000" transform="translate(523,449)"/>
<path d="M0 0 C0.99 0 1.98 0 3 0 C2.43454163 3.95820859 1.19097652 6.6659053 -1 10 C-1.99 9.67 -2.98 9.34 -4 9 C-2.68 6.03 -1.36 3.06 0 0 Z " fill="#000000" transform="translate(532,432)"/>
<path d="M0 0 C0.99 0.33 1.98 0.66 3 1 C2.01 4.3 1.02 7.6 0 11 C-0.99 11 -1.98 11 -3 11 C-2.69078116 9.54096742 -2.37751201 8.08279278 -2.0625 6.625 C-1.88847656 5.81289063 -1.71445313 5.00078125 -1.53515625 4.1640625 C-1 2 -1 2 0 0 Z " fill="#000000" transform="translate(134,414)"/>
<path d="M0 0 C0.99 0 1.98 0 3 0 C2.32829194 3.8063457 1.27253436 7.35206816 0 11 C-0.99 10.67 -1.98 10.34 -3 10 C-2.01 6.7 -1.02 3.4 0 0 Z " fill="#000000" transform="translate(140,395)"/>
<path d="M0 0 C0.99 0.33 1.98 0.66 3 1 C2.01 3.97 1.02 6.94 0 10 C-1.32 10 -2.64 10 -4 10 C-2.68 6.7 -1.36 3.4 0 0 Z " fill="#000000" transform="translate(178,301)"/>
<path d="M0 0 C0.99 0 1.98 0 3 0 C2.34 3.63 1.68 7.26 1 11 C0.01 11 -0.98 11 -2 11 C-1.85892253 9.54119891 -1.71197585 8.08296449 -1.5625 6.625 C-1.48128906 5.81289062 -1.40007812 5.00078125 -1.31640625 4.1640625 C-1 2 -1 2 0 0 Z " fill="#000000" transform="translate(383,243)"/>
<path d="M0 0 C0.99 0 1.98 0 3 0 C2.43454163 3.95820859 1.19097652 6.6659053 -1 10 C-1.99 9.67 -2.98 9.34 -4 9 C-2.68 6.03 -1.36 3.06 0 0 Z " fill="#000000" transform="translate(406,189)"/>
<path d="M0 0 C0.66 0.33 1.32 0.66 2 1 C1.38545304 4.99455527 -0.70646737 7.74466336 -3 11 C-3.66 10.67 -4.32 10.34 -5 10 C-4.38545304 6.00544473 -2.29353263 3.25533664 0 0 Z " fill="#000000" transform="translate(257,159)"/>
<path d="M0 0 C0.99 0 1.98 0 3 0 C1.66511872 3.59391114 0.03977277 6.75490696 -2 10 C-2.99 9.34 -3.98 8.68 -5 8 C-4.24266726 6.6589523 -3.46867264 5.32730219 -2.6875 4 C-2.25824219 3.2575 -1.82898438 2.515 -1.38671875 1.75 C-0.70029297 0.88375 -0.70029297 0.88375 0 0 Z " fill="#000000" transform="translate(426,155)"/>
<path d="M0 0 C0.99 0.66 1.98 1.32 3 2 C2.24266726 3.3410477 1.46867264 4.67269781 0.6875 6 C0.25824219 6.7425 -0.17101562 7.485 -0.61328125 8.25 C-1.07089844 8.8275 -1.52851563 9.405 -2 10 C-2.99 10 -3.98 10 -5 10 C-4.38545304 6.00544473 -2.29353263 3.25533664 0 0 Z " fill="#000000" transform="translate(437,138)"/>
<path d="M0 0 C-1.52708963 3.43595166 -3.59927045 6.11912454 -6 9 C-6.99 8.67 -7.98 8.34 -9 8 C-4.45945946 0 -4.45945946 0 0 0 Z " fill="#000000" transform="translate(464,108)"/>
<path d="M0 0 C-0.125 1.75 -0.125 1.75 -1 4 C-6.22222222 8 -6.22222222 8 -9 8 C-8.875 6.25 -8.875 6.25 -8 4 C-2.77777778 0 -2.77777778 0 0 0 Z " fill="#000000" transform="translate(493,82)"/>
<path d="M0 0 C0.66 0.33 1.32 0.66 2 1 C1.67 1.99 1.34 2.98 1 4 C-1.06640625 4.94921875 -1.06640625 4.94921875 -3.5625 5.6875 C-4.38878906 5.93886719 -5.21507812 6.19023438 -6.06640625 6.44921875 C-6.70449219 6.63097656 -7.34257813 6.81273437 -8 7 C-8 6.01 -8 5.02 -8 4 C-6.71349294 3.30289269 -5.42059335 2.61757124 -4.125 1.9375 C-3.40570312 1.55464844 -2.68640625 1.17179688 -1.9453125 0.77734375 C-1.30335938 0.52082031 -0.66140625 0.26429688 0 0 Z " fill="#000000" transform="translate(552,667)"/>
<path d="M0 0 C0.66 0.33 1.32 0.66 2 1 C1 4 1 4 -0.84765625 5.16796875 C-1.57855469 5.50441406 -2.30945313 5.84085938 -3.0625 6.1875 C-3.79597656 6.53167969 -4.52945313 6.87585938 -5.28515625 7.23046875 C-6.13400391 7.61138672 -6.13400391 7.61138672 -7 8 C-7.33 7.01 -7.66 6.02 -8 5 C-6.71475739 4.13619741 -5.42157581 3.28419631 -4.125 2.4375 C-3.04605469 1.72400391 -3.04605469 1.72400391 -1.9453125 0.99609375 C-1.30335938 0.66738281 -0.66140625 0.33867188 0 0 Z " fill="#000000" transform="translate(569,657)"/>
<path d="M0 0 C0.99 0.33 1.98 0.66 3 1 C0.19195732 3.96404505 -2.18315774 6.44499019 -6 8 C-6.33 7.01 -6.66 6.02 -7 5 C-5.90554162 4.13342884 -4.79902219 3.28207276 -3.6875 2.4375 C-3.07261719 1.96183594 -2.45773437 1.48617187 -1.82421875 0.99609375 C-1.22222656 0.66738281 -0.62023437 0.33867188 0 0 Z " fill="#000000" transform="translate(584,646)"/>
<path d="M0 0 C0.5775 0.226875 1.155 0.45375 1.75 0.6875 C-1.42320782 4.22336014 -3.41743695 6.27328031 -8.25 6.6875 C-6.65594781 2.8352072 -4.57967475 -0.63606594 0 0 Z " fill="#000000" transform="translate(358.25,640.3125)"/>
<path d="M0 0 C0.99 0.33 1.98 0.66 3 1 C0.19195732 3.96404505 -2.18315774 6.44499019 -6 8 C-6.33 7.01 -6.66 6.02 -7 5 C-5.90554162 4.13342884 -4.79902219 3.28207276 -3.6875 2.4375 C-3.07261719 1.96183594 -2.45773437 1.48617187 -1.82421875 0.99609375 C-1.22222656 0.66738281 -0.62023437 0.33867188 0 0 Z " fill="#000000" transform="translate(388,616)"/>
<path d="M0 0 C4.20626034 1.50223584 5.73900021 4.28550034 8 8 C4 8 4 8 2.515625 6.6875 C1.34375 5.125 0.171875 3.5625 -1 2 C-0.67 1.34 -0.34 0.68 0 0 Z " fill="#000000" transform="translate(438,607)"/>
<path d="M0 0 C0.99 0.33 1.98 0.66 3 1 C0.34345343 4.73884332 -1.58110387 6.64978174 -6 8 C-6 7.01 -6 6.02 -6 5 C-3.1875 2.25 -3.1875 2.25 0 0 Z " fill="#000000" transform="translate(403,603)"/>
<path d="M0 0 C3.78717347 1.48781815 5.77407001 3.61988409 8 7 C7.67 7.99 7.34 8.98 7 10 C4.66666667 7.66666667 2.33333333 5.33333333 0 3 C0 2.01 0 1.02 0 0 Z " fill="#000000" transform="translate(425,591)"/>
<path d="M0 0 C0.66 0.33 1.32 0.66 2 1 C0.55746343 4.36591866 -1.33264727 6.51047079 -4 9 C-4.99 8.67 -5.98 8.34 -7 8 C-5.61918777 3.8575633 -3.40174442 2.67796901 0 0 Z " fill="#000000" transform="translate(418,589)"/>
<path d="M0 0 C0.66 0.33 1.32 0.66 2 1 C0.4169423 5.2742558 -2.50568404 7.26531794 -6 10 C-6 6 -6 6 -4.6875 4.296875 C-4.130625 3.78640625 -3.57375 3.2759375 -3 2.75 C-2.1646875 1.96882812 -2.1646875 1.96882812 -1.3125 1.171875 C-0.879375 0.78515625 -0.44625 0.3984375 0 0 Z " fill="#000000" transform="translate(432,575)"/>
<path d="M0 0 C3.36591866 1.44253657 5.51047079 3.33264727 8 6 C7.67 6.99 7.34 7.98 7 9 C3.65001479 7.88333826 3.20659778 7.25305075 1.3125 4.4375 C0.87550781 3.79683594 0.43851562 3.15617188 -0.01171875 2.49609375 C-0.50091797 1.75552734 -0.50091797 1.75552734 -1 1 C-0.67 0.67 -0.34 0.34 0 0 Z " fill="#000000" transform="translate(412,576)"/>
<path d="M0 0 C4.24846075 0.47205119 6.26819288 2.88877522 9 6 C9 6.66 9 7.32 9 8 C5.12793601 7.42636089 2.81534937 5.65894107 0 3 C0 2.01 0 1.02 0 0 Z " fill="#000000" transform="translate(397,562)"/>
<path d="M0 0 C0.99 0 1.98 0 3 0 C3 3.63 3 7.26 3 11 C2.01 10.67 1.02 10.34 0 10 C0 6.7 0 3.4 0 0 Z " fill="#000000" transform="translate(112,554)"/>
<path d="M0 0 C3.45925163 1.2491742 6.14693203 2.67527795 9 5 C8.67 5.99 8.34 6.98 8 8 C5.03 6.35 2.06 4.7 -1 3 C-0.67 2.01 -0.34 1.02 0 0 Z " fill="#000000" transform="translate(381,550)"/>
<path d="M0 0 C0.66 0.33 1.32 0.66 2 1 C0.64978174 5.41889613 -1.26115668 7.34345343 -5 10 C-5 4.69520066 -3.4637943 3.81017373 0 0 Z " fill="#000000" transform="translate(458,546)"/>
<path d="M0 0 C3.63 0.33 7.26 0.66 11 1 C11 1.99 11 2.98 11 4 C7.37 3.67 3.74 3.34 0 3 C0 2.01 0 1.02 0 0 Z " fill="#000000" transform="translate(322,534)"/>
<path d="M0 0 C0.99 0 1.98 0 3 0 C2.67 3.63 2.34 7.26 2 11 C1.01 11 0.02 11 -1 11 C-0.67 7.37 -0.34 3.74 0 0 Z " fill="#000000" transform="translate(115,493)"/>
<path d="M0 0 C0.99 0.33 1.98 0.66 3 1 C0.525 5.455 0.525 5.455 -2 10 C-2.99 9.67 -3.98 9.34 -5 9 C-3.7508258 5.54074837 -2.32472205 2.85306797 0 0 Z " fill="#000000" transform="translate(504,483)"/>
<path d="M0 0 C0.99 0.33 1.98 0.66 3 1 C1.68 3.64 0.36 6.28 -1 9 C-2.32 9 -3.64 9 -5 9 C-3.35 6.03 -1.7 3.06 0 0 Z " fill="#000000" transform="translate(514,466)"/>
<path d="M0 0 C0.99 0.33 1.98 0.66 3 1 C2.34 4.3 1.68 7.6 1 11 C0.01 11 -0.98 11 -2 11 C-1.34 7.37 -0.68 3.74 0 0 Z " fill="#000000" transform="translate(123,453)"/>
<path d="M0 0 C0.99 0 1.98 0 3 0 C2.34 3.3 1.68 6.6 1 10 C0.01 10 -0.98 10 -2 10 C-1.125 2.25 -1.125 2.25 0 0 Z " fill="#000000" transform="translate(128,434)"/>
<path d="M0 0 C0.99 0.33 1.98 0.66 3 1 C1.68 3.97 0.36 6.94 -1 10 C-1.99 10 -2.98 10 -4 10 C-3.52449439 8.51965236 -3.04448784 7.04074979 -2.5625 5.5625 C-2.29566406 4.73878906 -2.02882813 3.91507812 -1.75390625 3.06640625 C-1 1 -1 1 0 0 Z " fill="#000000" transform="translate(541,414)"/>
<path d="M0 0 C0.99 0.33 1.98 0.66 3 1 C1.68 4.3 0.36 7.6 -1 11 C-1.66 10.67 -2.32 10.34 -3 10 C-2.69201674 8.51988629 -2.378482 7.04092675 -2.0625 5.5625 C-1.88847656 4.73878906 -1.71445313 3.91507812 -1.53515625 3.06640625 C-1 1 -1 1 0 0 Z " fill="#000000" transform="translate(147,376)"/>
<path d="M0 0 C0.66 0 1.32 0 2 0 C1.53199289 4.05606165 1.12046792 7.46588679 -1 11 C-1.99 10.34 -2.98 9.68 -4 9 C-2.68 6.03 -1.36 3.06 0 0 Z " fill="#000000" transform="translate(563,359)"/>
<path d="M0 0 C0.99 0.33 1.98 0.66 3 1 C2.01 3.97 1.02 6.94 0 10 C-0.99 10 -1.98 10 -3 10 C-2.39009109 6.44219804 -1.4216319 3.3171411 0 0 Z " fill="#000000" transform="translate(154,357)"/>
<path d="M0 0 C0.99 0.66 1.98 1.32 3 2 C1.68 4.97 0.36 7.94 -1 11 C-1.99 10.67 -2.98 10.34 -4 10 C-2.68 6.7 -1.36 3.4 0 0 Z " fill="#000000" transform="translate(162,338)"/>
<path d="M0 0 C0.99 0 1.98 0 3 0 C1.8905928 3.48670834 0.73662334 6.77484237 -1 10 C-1.99 10 -2.98 10 -4 10 C-3.52449439 8.51965236 -3.04448784 7.04074979 -2.5625 5.5625 C-2.29566406 4.73878906 -2.02882812 3.91507812 -1.75390625 3.06640625 C-1 1 -1 1 0 0 Z " fill="#000000" transform="translate(170,320)"/>
<path d="M0 0 C0.99 0 1.98 0 3 0 C2.67 3.3 2.34 6.6 2 10 C1.01 10.33 0.02 10.66 -1 11 C-1.14285714 3.57142857 -1.14285714 3.57142857 0 0 Z " fill="#000000" transform="translate(591,245)"/>
<path d="M0 0 C0.99 0.33 1.98 0.66 3 1 C1.66511872 4.59391114 0.03977277 7.75490696 -2 11 C-2.66 10.67 -3.32 10.34 -4 10 C-3.29445932 6.33118845 -1.72264494 3.29549466 0 0 Z " fill="#000000" transform="translate(215,229)"/>
<path d="M0 0 C0.99 0.33 1.98 0.66 3 1 C2.01 4.3 1.02 7.6 0 11 C-0.99 10.67 -1.98 10.34 -3 10 C-2.01 6.7 -1.02 3.4 0 0 Z " fill="#000000" transform="translate(389,224)"/>
<path d="M0 0 C0.66 0.33 1.32 0.66 2 1 C1.43454163 4.95820859 0.19097652 7.6659053 -2 11 C-2.66 10.67 -3.32 10.34 -4 10 C-3.43454163 6.04179141 -2.19097652 3.3340947 0 0 Z " fill="#000000" transform="translate(398,206)"/>
<path d="M0 0 C0.99 0.33 1.98 0.66 3 1 C1.80100302 4.0831351 0.52299523 7.06279492 -1 10 C-1.99 10 -2.98 10 -4 10 C-3.43454163 6.04179141 -2.19097652 3.3340947 0 0 Z " fill="#000000" transform="translate(235,194)"/>
<path d="M0 0 C0.99 0.33 1.98 0.66 3 1 C0.525 5.455 0.525 5.455 -2 10 C-2.99 9.67 -3.98 9.34 -5 9 C-3.7508258 5.54074837 -2.32472205 2.85306797 0 0 Z " fill="#000000" transform="translate(246,177)"/>
<path d="M0 0 C0.99 0 1.98 0 3 0 C4.28317892 3.84953676 4.06643637 6.94738135 4 11 C3.01 11 2.02 11 1 11 C0.67 7.37 0.34 3.74 0 0 Z " fill="#000000" transform="translate(596,167)"/>
<path d="M0 0 C0.99 0.33 1.98 0.66 3 1 C1.02 3.97 -0.96 6.94 -3 10 C-3.66 9.67 -4.32 9.34 -5 9 C-3.7508258 5.54074837 -2.32472205 2.85306797 0 0 Z " fill="#000000" transform="translate(279,126)"/>
<path d="M0 0 C0.66 0.33 1.32 0.66 2 1 C0.7508258 4.45925163 -0.67527795 7.14693203 -3 10 C-3.99 9.67 -4.98 9.34 -6 9 C-2.25 2.25 -2.25 2.25 0 0 Z " fill="#000000" transform="translate(449,122)"/>
<path d="M0 0 C1.32 0 2.64 0 4 0 C4.99 2.97 5.98 5.94 7 9 C6.01 9.33 5.02 9.66 4 10 C2.68 6.7 1.36 3.4 0 0 Z " fill="#000000" transform="translate(580,111)"/>
<path d="M0 0 C3.53372712 1.96318174 6.24479785 4.04070881 9 7 C8.01 7.66 7.02 8.32 6 9 C3.69 7.02 1.38 5.04 -1 3 C-0.67 2.01 -0.34 1.02 0 0 Z " fill="#000000" transform="translate(557,80)"/>
<path d="M0 0 C-0.33 0.99 -0.66 1.98 -1 3 C-3.06640625 3.94921875 -3.06640625 3.94921875 -5.5625 4.6875 C-6.38878906 4.93886719 -7.21507812 5.19023438 -8.06640625 5.44921875 C-8.70449219 5.63097656 -9.34257812 5.81273438 -10 6 C-10.33 5.01 -10.66 4.02 -11 3 C-4.5 0 -4.5 0 0 0 Z " fill="#000000" transform="translate(511,74)"/>
<path d="M0 0 C0.99 0 1.98 0 3 0 C6 6.625 6 6.625 6 10 C3 9 3 9 1.3125 6.125 C0 3 0 3 0 0 Z " fill="#000000" transform="translate(124,613)"/>
<path d="M0 0 C0.66 0.33 1.32 0.66 2 1 C2.6328125 3.28515625 2.6328125 3.28515625 3.125 6.0625 C3.29257813 6.98160156 3.46015625 7.90070312 3.6328125 8.84765625 C3.75398438 9.55792969 3.87515625 10.26820313 4 11 C3.01 11 2.02 11 1 11 C-0.62950412 6.87831311 -1.26264601 4.29299643 0 0 Z " fill="#000000" transform="translate(119,593)"/>
<path d="M0 0 C3.3 0.33 6.6 0.66 10 1 C10.33 1.99 10.66 2.98 11 4 C7.7 3.67 4.4 3.34 1 3 C0.67 2.01 0.34 1.02 0 0 Z " fill="#000000" transform="translate(342,537)"/>
<path d="M0 0 C0.99 0 1.98 0 3 0 C2.42647107 3.87132028 0.51295648 6.08172796 -2 9 C-2.99 8.67 -3.98 8.34 -5 8 C-4.24266726 6.6589523 -3.46867264 5.32730219 -2.6875 4 C-2.25824219 3.2575 -1.82898438 2.515 -1.38671875 1.75 C-0.70029297 0.88375 -0.70029297 0.88375 0 0 Z " fill="#000000" transform="translate(481,516)"/>
<path d="M0 0 C0.99 0 1.98 0 3 0 C2.67 3.63 2.34 7.26 2 11 C1.01 11 0.02 11 -1 11 C-0.67 7.37 -0.34 3.74 0 0 Z " fill="#000000" transform="translate(113,513)"/>
<path d="M0 0 C0.66 0 1.32 0 2 0 C1.49287967 3.71888239 0.88391785 6.73454239 -1 10 C-1.99 10 -2.98 10 -4 10 C-3.52449439 8.51965236 -3.04448784 7.04074979 -2.5625 5.5625 C-2.29566406 4.73878906 -2.02882813 3.91507812 -1.75390625 3.06640625 C-1 1 -1 1 0 0 Z " fill="#000000" transform="translate(549,396)"/>
<path d="M0 0 C0.66 0.33 1.32 0.66 2 1 C1.54177532 4.46941546 1.10868317 7.67395049 0 11 C-0.99 11 -1.98 11 -3 11 C-2.69217504 9.35328588 -2.37860766 7.70764424 -2.0625 6.0625 C-1.88847656 5.14597656 -1.71445312 4.22945313 -1.53515625 3.28515625 C-1 1 -1 1 0 0 Z " fill="#000000" transform="translate(569,340)"/>
<path d="M0 0 C3.11198065 1.49836105 6.0534615 3.19933758 9 5 C8.67 5.99 8.34 6.98 8 8 C3.9630133 6.20578369 1.35519526 4.79448125 -1 1 C-0.67 0.67 -0.34 0.34 0 0 Z " fill="#000000" transform="translate(393,318)"/>
<path d="M0 0 C0.99 0 1.98 0 3 0 C4.17571451 3.67410785 4.07366746 7.16929183 4 11 C3.01 10.67 2.02 10.34 1 10 C0.67 6.7 0.34 3.4 0 0 Z " fill="#000000" transform="translate(378,282)"/>
<path d="M0 0 C0.99 0.66 1.98 1.32 3 2 C2.34 4.97 1.68 7.94 1 11 C0.01 11 -0.98 11 -2 11 C-1.85892253 9.54119891 -1.71197585 8.08296449 -1.5625 6.625 C-1.48128906 5.81289063 -1.40007813 5.00078125 -1.31640625 4.1640625 C-1 2 -1 2 0 0 Z " fill="#000000" transform="translate(588,264)"/>
<path d="M0 0 C0.66 0 1.32 0 2 0 C2.0270043 1.45823212 2.04639787 2.91660675 2.0625 4.375 C2.07410156 5.18710938 2.08570313 5.99921875 2.09765625 6.8359375 C2 9 2 9 1 11 C0.01 10.67 -0.98 10.34 -2 10 C-1.85950482 8.52031676 -1.71245174 7.04125484 -1.5625 5.5625 C-1.48128906 4.73878906 -1.40007813 3.91507813 -1.31640625 3.06640625 C-1 1 -1 1 0 0 Z " fill="#000000" transform="translate(597,206)"/>
<path d="M0 0 C0.99 0 1.98 0 3 0 C1.66511872 3.59391114 0.03977277 6.75490696 -2 10 C-2.66 9.67 -3.32 9.34 -4 9 C-3.3543999 5.51375944 -2.07639763 2.87501211 0 0 Z " fill="#000000" transform="translate(416,172)"/>
<path d="M0 0 C1.32 0.33 2.64 0.66 4 1 C4.33 3.97 4.66 6.94 5 10 C4.01 10 3.02 10 2 10 C1.34 6.7 0.68 3.4 0 0 Z " fill="#000000" transform="translate(593,148)"/>
<path d="M0 0 C0.99 0 1.98 0 3 0 C3.99 3.3 4.98 6.6 6 10 C4.68 9.67 3.36 9.34 2 9 C1.34 6.03 0.68 3.06 0 0 Z " fill="#000000" transform="translate(588,129)"/>
<path d="M0 0 C0.66 0.33 1.32 0.66 2 1 C0.7508258 4.45925163 -0.67527795 7.14693203 -3 10 C-3.99 9.67 -4.98 9.34 -6 9 C-4.02 6.03 -2.04 3.06 0 0 Z " fill="#000000" transform="translate(291,109)"/>
<path d="M0 0 C4.455 0.99 4.455 0.99 9 2 C9.33 3.32 9.66 4.64 10 6 C6.7 5.01 3.4 4.02 0 3 C0 2.01 0 1.02 0 0 Z " fill="#000000" transform="translate(539,72)"/>
<path d="M0 0 C3.3 0 6.6 0 10 0 C10 0.99 10 1.98 10 3 C6.7 3 3.4 3 0 3 C0 2.01 0 1.02 0 0 Z " fill="#000000" transform="translate(506,679)"/>
<path d="M0 0 C0.99 0.33 1.98 0.66 3 1 C2.07347299 2.17539996 1.13336613 3.34010577 0.1875 4.5 C-0.33457031 5.1496875 -0.85664062 5.799375 -1.39453125 6.46875 C-3 8 -3 8 -6 8 C-4.55746343 4.63408134 -2.66735273 2.48952921 0 0 Z " fill="#000000" transform="translate(613,619)"/>
<path d="M0 0 C0.99 0.33 1.98 0.66 3 1 C1.02 5.455 1.02 5.455 -1 10 C-1.66 10 -2.32 10 -3 10 C-2.49287967 6.28111761 -1.88391785 3.26545761 0 0 Z " fill="#000000" transform="translate(556,378)"/>
<path d="M0 0 C0.33 0.99 0.66 1.98 1 3 C-2.63 3.33 -6.26 3.66 -10 4 C-10 3.01 -10 2.02 -10 1 C-6.61981469 -0.04005702 -3.5219721 -0.08004482 0 0 Z " fill="#000000" transform="translate(440,327)"/>
<path d="M0 0 C3.3 0.33 6.6 0.66 10 1 C10 1.99 10 2.98 10 4 C6.7 3.67 3.4 3.34 0 3 C0 2.01 0 1.02 0 0 Z " fill="#000000" transform="translate(411,326)"/>
<path d="M0 0 C0.99 0 1.98 0 3 0 C2.34 3.3 1.68 6.6 1 10 C0.01 10 -0.98 10 -2 10 C-1.54177532 6.53058454 -1.10868317 3.32604951 0 0 Z " fill="#000000" transform="translate(574,322)"/>
<path d="M0 0 C0.99 0 1.98 0 3 0 C2.34 3.3 1.68 6.6 1 10 C0.01 10 -0.98 10 -2 10 C-1.34 6.7 -0.68 3.4 0 0 Z " fill="#000000" transform="translate(579,303)"/>
<path d="M0 0 C0.66 0.33 1.32 0.66 2 1 C1.67 4.3 1.34 7.6 1 11 C0.01 11 -0.98 11 -2 11 C-1.85892253 9.54119891 -1.71197585 8.08296449 -1.5625 6.625 C-1.48128906 5.81289063 -1.40007813 5.00078125 -1.31640625 4.1640625 C-1 2 -1 2 0 0 Z " fill="#000000" transform="translate(584,283)"/>
<path d="M0 0 C0.99 0.33 1.98 0.66 3 1 C1.35 4.3 -0.3 7.6 -2 11 C-2.66 10.67 -3.32 10.34 -4 10 C-2.8905928 6.51329166 -1.73662334 3.22515763 0 0 Z " fill="#000000" transform="translate(187,283)"/>
<path d="M0 0 C0.99 0.33 1.98 0.66 3 1 C2.67 4.3 2.34 7.6 2 11 C1.01 11 0.02 11 -1 11 C-0.67 7.37 -0.34 3.74 0 0 Z " fill="#000000" transform="translate(379,262)"/>
<path d="M0 0 C0.99 0 1.98 0 3 0 C2.67 3.3 2.34 6.6 2 10 C1.01 10 0.02 10 -1 10 C-0.67 6.7 -0.34 3.4 0 0 Z " fill="#000000" transform="translate(594,226)"/>
<path d="M0 0 C0.99 0 1.98 0 3 0 C3 3.3 3 6.6 3 10 C2.01 10 1.02 10 0 10 C0 6.7 0 3.4 0 0 Z " fill="#000000" transform="translate(597,187)"/>
<path d="M0 0 C0.99 0.33 1.98 0.66 3 1 C2.07347299 2.17539996 1.13336613 3.34010577 0.1875 4.5 C-0.33457031 5.1496875 -0.85664063 5.799375 -1.39453125 6.46875 C-3 8 -3 8 -6 8 C-4.55746343 4.63408134 -2.66735273 2.48952921 0 0 Z " fill="#000000" transform="translate(475,94)"/>
<path d="M0 0 C0.99 0.33 1.98 0.66 3 1 C1.68 3.97 0.36 6.94 -1 10 C-1.99 10 -2.98 10 -4 10 C-2.8905928 6.51329166 -1.73662334 3.22515763 0 0 Z " fill="#000000" transform="translate(196,265)"/>
<path d="M0 0 C3.63 0 7.26 0 11 0 C11 0.66 11 1.32 11 2 C7.37 2.33 3.74 2.66 0 3 C0 2.01 0 1.02 0 0 Z " fill="#000000" transform="translate(519,71)"/>
<path d="M0 0 C0.99 0.33 1.98 0.66 3 1 C2.67 4.3 2.34 7.6 2 11 C1.34 11 0.68 11 0 11 C0 7.37 0 3.74 0 0 Z " fill="#000000" transform="translate(112,533)"/>
<path d="M0 0 C0.99 0 1.98 0 3 0 C2.6875 1.875 2.6875 1.875 2 4 C1.01 4.66 0.02 5.32 -1 6 C-1.33 5.01 -1.66 4.02 -2 3 C-1.34 2.01 -0.68 1.02 0 0 Z " fill="#000000" transform="translate(635,593)"/>
<path d="M0 0 C1.98 0 3.96 0 6 0 C6 0.99 6 1.98 6 3 C4.02 3 2.04 3 0 3 C0 2.01 0 1.02 0 0 Z " fill="#000000" transform="translate(307,534)"/>
<path d="M0 0 C0.99 0.99 1.98 1.98 3 3 C0 5 0 5 -2.1875 4.625 C-2.785625 4.41875 -3.38375 4.2125 -4 4 C-2.68 2.68 -1.36 1.36 0 0 Z " fill="#000000" transform="translate(452,321)"/>
<path d="M0 0 C0.99 0.33 1.98 0.66 3 1 C2.67 1.99 2.34 2.98 2 4 C1.01 3.01 0.02 2.02 -1 1 C-0.67 0.67 -0.34 0.34 0 0 Z " fill="#000000" transform="translate(564,551)"/>
<path d="M0 0 C0.99 0.33 1.98 0.66 3 1 C2.67 1.99 2.34 2.98 2 4 C1.01 3.01 0.02 2.02 -1 1 C-0.67 0.67 -0.34 0.34 0 0 Z " fill="#000000" transform="translate(676,38)"/>
</svg>
