<?xml version="1.0" standalone="no"?>
<!DOCTYPE svg PUBLIC "-//W3C//DTD SVG 20010904//EN"
 "http://www.w3.org/TR/2001/REC-SVG-20010904/DTD/svg10.dtd">
<svg version="1.0" xmlns="http://www.w3.org/2000/svg"
 width="866.000000pt" height="772.000000pt" viewBox="0 0 866.000000 772.000000"
 preserveAspectRatio="xMidYMid meet">

<g transform="translate(0.000000,772.000000) scale(0.100000,-0.100000)"
fill="#000000" stroke="none">
<path d="M6825 7653 l-49 -56 59 -55 58 -54 -129 7 c-148 8 -416 -7 -519 -29
-252 -53 -483 -183 -686 -385 -64 -64 -136 -147 -161 -186 -25 -38 -116 -207
-203 -375 -87 -168 -174 -332 -194 -365 l-37 -60 -574 0 c-640 -1 -624 1 -761
-71 -228 -120 -351 -433 -250 -638 81 -166 328 -303 579 -323 45 -3 80 -8 77
-11 -3 -3 7 -18 22 -34 l27 -28 -35 0 c-59 0 -432 -30 -438 -35 -14 -14 25
-15 213 0 113 8 217 15 231 15 l26 0 -20 -27 c-33 -41 -14 -41 27 0 l37 38
-37 34 -38 35 33 0 c39 -1 337 -37 342 -41 2 -2 -220 -437 -493 -967 -478
-925 -498 -962 -522 -957 -113 23 -1284 34 -1615 15 -447 -25 -811 -173 -1093
-444 -129 -124 -214 -237 -291 -386 -225 -435 -223 -844 5 -1187 217 -326 666
-599 1149 -699 504 -103 1211 36 1750 345 138 79 211 131 347 244 232 192 415
442 606 829 l97 198 1365 0 c1150 0 1379 2 1455 15 268 43 512 162 611 296 55
75 77 141 77 229 -1 148 -51 275 -153 384 -76 80 -144 127 -226 155 -58 19
-80 19 -1343 10 -706 -5 -1286 -8 -1288 -6 -1 2 199 390 446 863 l449 859 283
6 c433 10 707 58 1020 180 242 94 379 188 599 408 264 264 433 529 503 785 30
113 30 325 -1 441 -46 173 -170 369 -315 500 -242 220 -434 303 -807 350 -69
8 -128 15 -132 15 -4 0 -5 6 -2 14 3 8 -9 26 -30 43 -20 15 -36 31 -36 36 0
10 181 9 325 -3 439 -35 732 -158 927 -387 61 -72 142 -233 169 -338 27 -104
37 -334 19 -472 -22 -176 -88 -405 -174 -596 -30 -67 -30 -67 -12 -67 33 0
157 337 198 540 19 97 23 145 23 310 -1 229 -17 313 -89 464 -89 188 -220 317
-421 418 -208 105 -436 153 -777 165 l-187 6 29 34 c17 18 30 38 30 43 0 24
-30 5 -75 -47z m160 -224 c136 -13 326 -50 424 -84 256 -87 540 -344 651 -589
57 -126 74 -207 74 -356 -1 -170 -20 -247 -108 -425 -101 -205 -242 -392 -439
-581 -226 -218 -414 -326 -727 -419 -268 -80 -459 -106 -839 -114 l-293 -6
-474 -905 c-260 -498 -473 -909 -474 -914 0 -5 348 -6 838 -2 460 3 1062 7
1337 8 l500 3 68 -33 c128 -60 240 -192 281 -331 20 -68 21 -195 1 -250 -54
-154 -247 -280 -545 -354 -84 -21 -101 -21 -1509 -27 l-1423 -5 -62 -135 c-80
-175 -158 -315 -261 -470 -223 -336 -469 -548 -860 -740 -340 -167 -655 -258
-1005 -290 -239 -21 -439 -8 -640 41 -422 104 -797 330 -1002 604 -284 377
-269 864 41 1335 68 105 266 305 373 378 195 133 440 225 708 267 202 32 1523
31 1795 -1 l50 -6 518 1004 c284 552 517 1008 517 1014 0 5 -136 24 -302 42
-339 37 -426 55 -545 112 -205 100 -293 255 -249 443 41 175 149 301 319 370
51 21 66 22 662 27 l609 5 44 75 c25 41 121 221 213 399 93 178 191 353 218
390 175 235 477 435 758 502 153 36 477 44 758 18z"/>
<path d="M6830 7041 c0 -5 21 -11 46 -13 44 -3 61 2 47 16 -10 9 -93 7 -93 -3z"/>
<path d="M6638 7033 c-10 -2 -18 -9 -18 -15 0 -6 10 -8 23 -4 12 3 34 6 50 6
15 0 27 5 27 10 0 10 -49 12 -82 3z"/>
<path d="M7020 7012 c0 -14 88 -43 95 -31 6 9 -22 23 -70 35 -14 4 -25 2 -25
-4z"/>
<path d="M6460 6998 c-42 -11 -62 -28 -36 -28 32 0 96 22 90 31 -6 10 -8 10
-54 -3z"/>
<path d="M6257 6919 c-22 -11 -36 -23 -33 -26 7 -7 96 30 96 40 0 12 -23 7
-63 -14z"/>
<path d="M7204 6931 c11 -17 75 -50 81 -41 3 4 -10 18 -29 29 -34 22 -61 28
-52 12z"/>
<path d="M6078 6814 c-21 -15 -35 -31 -32 -36 6 -9 83 41 84 55 0 13 -14 8
-52 -19z"/>
<path d="M7357 6822 c-4 -5 9 -23 27 -41 19 -18 36 -29 39 -23 4 5 -9 23 -27
41 -19 18 -36 29 -39 23z"/>
<path d="M5921 6673 c-17 -20 -28 -39 -26 -42 6 -6 75 60 75 71 0 18 -20 6
-49 -29z"/>
<path d="M7477 6673 c-7 -13 33 -94 43 -88 5 3 4 17 -2 33 -18 40 -35 65 -41
55z"/>
<path d="M5797 6515 c-28 -41 -33 -55 -19 -55 11 0 54 70 49 83 -2 6 -15 -7
-30 -28z"/>
<path d="M7546 6492 c-3 -6 -4 -16 -2 -24 2 -7 7 -25 10 -40 9 -42 26 -33 19
10 -7 46 -18 68 -27 54z"/>
<path d="M6538 6476 c-67 -24 -180 -130 -231 -216 -39 -67 -83 -191 -79 -224
l4 -28 156 4 c125 4 170 9 224 27 143 46 222 148 223 289 0 72 -1 74 -36 107
-56 51 -179 70 -261 41z m202 -61 c39 -20 53 -57 45 -115 -23 -159 -131 -228
-372 -237 -73 -3 -133 -3 -133 0 0 20 55 149 81 189 36 56 140 155 183 175 39
17 152 11 196 -12z"/>
<path d="M5690 6330 c-22 -43 -24 -50 -12 -50 4 0 18 20 30 45 27 55 10 60
-18 5z"/>
<path d="M7560 6255 c0 -25 5 -45 10 -45 6 0 10 20 10 45 0 25 -4 45 -10 45
-5 0 -10 -20 -10 -45z"/>
<path d="M5606 6137 c-18 -48 -19 -57 -8 -57 4 0 14 17 21 38 8 20 16 43 18
50 3 6 1 12 -5 12 -5 0 -17 -19 -26 -43z"/>
<path d="M7516 6070 c-19 -47 -19 -50 -7 -50 5 0 16 18 25 40 19 47 19 50 7
50 -5 0 -16 -18 -25 -40z"/>
<path d="M5527 5955 c-19 -40 -21 -55 -8 -55 5 0 14 12 19 28 5 15 13 35 17
45 13 33 -11 17 -28 -18z"/>
<path d="M7415 5910 c-32 -33 -27 -54 6 -24 25 22 43 54 31 54 -4 0 -21 -13
-37 -30z"/>
<path d="M4120 5884 c-215 -78 -279 -345 -120 -504 63 -63 119 -85 215 -85 96
0 152 22 215 85 63 63 85 119 85 215 0 60 -6 91 -21 125 -26 57 -92 122 -151
151 -60 29 -162 35 -223 13z"/>
<path d="M7260 5802 c-18 -11 -36 -25 -38 -32 -5 -14 -5 -14 51 15 20 10 37
22 37 27 0 12 -12 10 -50 -10z"/>
<path d="M5446 5770 c-19 -47 -19 -50 -7 -50 5 0 16 18 25 40 19 47 19 50 7
50 -5 0 -16 -18 -25 -40z"/>
<path d="M7077 5699 c-21 -11 -35 -24 -32 -29 7 -12 85 26 85 40 0 14 -10 12
-53 -11z"/>
<path d="M6893 5623 c-24 -8 -43 -19 -43 -24 0 -12 -2 -12 53 7 26 9 47 20 47
25 0 11 -6 11 -57 -8z"/>
<path d="M5372 5603 c-5 -16 -13 -36 -17 -45 -4 -10 -3 -18 2 -18 9 0 43 63
43 80 0 21 -18 9 -28 -17z"/>
<path d="M6693 5567 c-24 -5 -43 -14 -43 -19 0 -6 17 -7 43 -3 48 8 57 12 57
26 0 10 0 10 -57 -4z"/>
<path d="M4610 5542 c0 -5 7 -13 16 -16 25 -10 84 -7 84 4 0 6 -12 10 -27 10
-16 0 -38 3 -50 6 -13 4 -23 2 -23 -4z"/>
<path d="M6473 5523 c-40 -8 -26 -26 15 -19 20 3 43 6 50 6 6 0 12 5 12 10 0
10 -34 11 -77 3z"/>
<path d="M4820 5511 c0 -10 80 -21 94 -13 4 2 2 8 -5 13 -18 11 -89 11 -89 0z"/>
<path d="M5020 5490 c0 -5 23 -10 50 -10 28 0 50 5 50 10 0 6 -22 10 -50 10
-27 0 -50 -4 -50 -10z"/>
<path d="M6260 5490 c-8 -5 -12 -11 -10 -13 10 -7 100 5 100 14 0 12 -71 11
-90 -1z"/>
<path d="M5226 5482 c-3 -5 8 -12 25 -16 46 -9 79 -7 79 4 0 6 -8 10 -19 10
-10 0 -32 3 -49 6 -16 3 -32 2 -36 -4z"/>
<path d="M5430 5471 c0 -13 26 -21 66 -21 46 0 43 16 -3 24 -51 8 -63 8 -63
-3z"/>
<path d="M6040 5470 c0 -5 22 -10 49 -10 28 0 53 5 56 10 4 6 -15 10 -49 10
-31 0 -56 -4 -56 -10z"/>
<path d="M5630 5460 c0 -5 25 -10 55 -10 30 0 55 5 55 10 0 6 -25 10 -55 10
-30 0 -55 -4 -55 -10z"/>
<path d="M5840 5460 c0 -5 23 -10 50 -10 28 0 50 5 50 10 0 6 -22 10 -50 10
-27 0 -50 -4 -50 -10z"/>
<path d="M5287 5405 c-19 -40 -21 -55 -8 -55 5 0 14 12 19 28 5 15 13 35 17
45 13 33 -11 17 -28 -18z"/>
<path d="M5207 5225 c-19 -40 -21 -55 -8 -55 5 0 14 12 19 28 5 15 13 35 17
45 13 33 -11 17 -28 -18z"/>
<path d="M5127 5045 c-19 -40 -21 -55 -8 -55 7 0 41 70 41 85 0 17 -19 0 -33
-30z"/>
<path d="M5045 4861 c-21 -48 -15 -80 7 -36 22 43 31 75 20 75 -5 0 -17 -18
-27 -39z"/>
<path d="M4967 4684 c-19 -38 -23 -74 -8 -58 17 16 41 83 33 88 -5 3 -16 -11
-25 -30z"/>
<path d="M4880 4490 c-23 -45 -24 -53 -9 -48 14 5 51 88 39 88 -5 0 -19 -18
-30 -40z"/>
<path d="M4802 4323 c-5 -16 -13 -36 -17 -45 -4 -10 -3 -18 2 -18 9 0 43 63
43 80 0 21 -18 9 -28 -17z"/>
<path d="M4712 4125 c-15 -32 -18 -45 -9 -45 7 0 19 17 27 38 8 20 16 40 18
45 2 4 0 7 -5 7 -5 0 -19 -20 -31 -45z"/>
<path d="M4630 3950 c-13 -26 -18 -46 -12 -52 5 -5 16 9 27 37 9 25 15 49 12
52 -3 3 -15 -14 -27 -37z"/>
<path d="M4542 3765 c-12 -24 -18 -46 -13 -49 6 -4 51 74 51 89 0 18 -20 -2
-38 -40z"/>
<path d="M4452 3585 c-16 -32 -18 -45 -9 -45 13 0 47 59 47 80 0 23 -18 7 -38
-35z"/>
<path d="M4367 3415 c-19 -39 -21 -55 -9 -55 9 0 42 64 42 80 0 21 -17 8 -33
-25z"/>
<path d="M4272 3225 c-16 -32 -18 -45 -9 -45 13 0 47 59 47 80 0 23 -18 7 -38
-35z"/>
<path d="M4182 3051 c-14 -24 -18 -42 -13 -46 9 -5 51 62 51 80 0 17 -19 0
-38 -34z"/>
<path d="M4092 2881 c-25 -43 -26 -51 -12 -51 13 0 52 78 42 84 -5 3 -19 -12
-30 -33z"/>
<path d="M3993 2700 c-26 -44 -27 -50 -13 -50 8 0 50 70 50 85 0 16 -18 0 -37
-35z"/>
<path d="M3913 2559 c-20 -26 -43 -79 -34 -79 13 0 54 67 49 81 -2 7 -7 7 -15
-2z"/>
<path d="M1960 2515 c0 -11 12 -15 45 -15 33 0 45 4 45 15 0 11 -12 15 -45 15
-33 0 -45 -4 -45 -15z"/>
<path d="M2157 2524 c-14 -14 6 -24 49 -24 32 0 44 4 44 15 0 11 -11 15 -43
15 -24 0 -47 -3 -50 -6z"/>
<path d="M2357 2524 c-14 -14 6 -24 49 -24 32 0 44 4 44 15 0 11 -11 15 -43
15 -24 0 -47 -3 -50 -6z"/>
<path d="M2555 2520 c-3 -5 0 -13 8 -16 23 -8 92 0 92 11 0 14 -92 19 -100 5z"/>
<path d="M2757 2524 c-14 -14 6 -24 49 -24 32 0 44 4 44 15 0 11 -11 15 -43
15 -24 0 -47 -3 -50 -6z"/>
<path d="M2957 2524 c-14 -14 6 -24 49 -24 32 0 44 4 44 15 0 11 -11 15 -43
15 -24 0 -47 -3 -50 -6z"/>
<path d="M3157 2524 c-14 -14 6 -24 49 -24 32 0 44 4 44 15 0 11 -11 15 -43
15 -24 0 -47 -3 -50 -6z"/>
<path d="M3355 2520 c-3 -5 0 -13 8 -16 23 -8 92 0 92 11 0 14 -92 19 -100 5z"/>
<path d="M3555 2520 c-3 -5 0 -13 8 -16 23 -8 92 0 92 11 0 14 -92 19 -100 5z"/>
<path d="M3755 2520 c-3 -5 0 -13 8 -16 23 -8 92 0 92 11 0 14 -92 19 -100 5z"/>
<path d="M3955 2520 c-3 -5 0 -13 8 -16 23 -8 92 0 92 11 0 14 -92 19 -100 5z"/>
<path d="M4155 2520 c-3 -5 0 -13 8 -16 23 -8 92 0 92 11 0 14 -92 19 -100 5z"/>
<path d="M4355 2520 c-3 -5 0 -13 8 -16 23 -8 92 0 92 11 0 14 -92 19 -100 5z"/>
<path d="M4555 2520 c-3 -5 0 -13 8 -16 23 -8 92 0 92 11 0 14 -92 19 -100 5z"/>
<path d="M4755 2520 c-3 -5 0 -13 8 -16 23 -8 92 0 92 11 0 14 -92 19 -100 5z"/>
<path d="M4955 2520 c-3 -5 0 -13 8 -16 23 -8 92 0 92 11 0 14 -92 19 -100 5z"/>
<path d="M5155 2520 c-3 -5 0 -13 8 -16 23 -8 92 0 92 11 0 14 -92 19 -100 5z"/>
<path d="M5355 2520 c-3 -5 0 -13 8 -16 23 -8 92 0 92 11 0 14 -92 19 -100 5z"/>
<path d="M5555 2520 c-3 -5 0 -13 8 -16 23 -8 92 0 92 11 0 14 -92 19 -100 5z"/>
<path d="M5755 2520 c-3 -5 0 -13 8 -16 23 -8 92 0 92 11 0 14 -92 19 -100 5z"/>
<path d="M5955 2520 c-3 -5 0 -13 8 -16 23 -8 92 0 92 11 0 14 -92 19 -100 5z"/>
<path d="M6155 2520 c-3 -5 0 -13 8 -16 23 -8 92 0 92 11 0 14 -92 19 -100 5z"/>
<path d="M6360 2515 c0 -13 9 -16 48 -13 26 2 47 8 47 13 0 6 -21 11 -47 13
-39 3 -48 0 -48 -13z"/>
<path d="M6560 2515 c0 -13 9 -16 48 -13 26 2 47 8 47 13 0 6 -21 11 -47 13
-39 3 -48 0 -48 -13z"/>
<path d="M6760 2515 c0 -13 9 -16 48 -13 26 2 47 8 47 13 0 6 -21 11 -47 13
-39 3 -48 0 -48 -13z"/>
<path d="M6960 2515 c0 -13 9 -16 48 -13 26 2 47 8 47 13 0 6 -21 11 -47 13
-39 3 -48 0 -48 -13z"/>
<path d="M7160 2515 c0 -13 9 -16 48 -13 26 2 47 8 47 13 0 6 -21 11 -47 13
-39 3 -48 0 -48 -13z"/>
<path d="M7360 2515 c0 -11 7 -15 23 -13 12 2 22 8 22 13 0 6 -10 11 -22 13
-16 2 -23 -2 -23 -13z"/>
<path d="M1770 2510 c0 -5 20 -10 45 -10 25 0 45 5 45 10 0 6 -20 10 -45 10
-25 0 -45 -4 -45 -10z"/>
<path d="M1590 2490 c-8 -5 -12 -11 -10 -13 9 -7 90 5 90 14 0 12 -61 11 -80
-1z"/>
<path d="M1423 2458 c-18 -6 -33 -15 -33 -19 0 -11 2 -11 56 2 24 6 44 15 44
20 0 11 -26 10 -67 -3z"/>
<path d="M1252 2399 c-24 -10 -41 -23 -37 -28 6 -10 79 18 84 32 5 15 -4 15
-47 -4z"/>
<path d="M3791 2354 c-24 -40 -25 -44 -12 -44 9 0 51 61 51 74 0 17 -20 2 -39
-30z"/>
<path d="M1083 2309 c-29 -18 -43 -39 -28 -39 10 0 75 45 75 53 0 12 -13 8
-47 -14z"/>
<path d="M3688 2187 c-27 -42 -29 -59 -6 -39 21 17 49 70 40 76 -4 2 -20 -14
-34 -37z"/>
<path d="M935 2184 c-15 -19 -24 -38 -21 -42 6 -6 65 57 66 71 1 17 -20 4 -45
-29z"/>
<path d="M2095 2129 c-205 -20 -334 -77 -391 -174 -24 -42 -26 -53 -22 -120
12 -177 135 -295 307 -295 67 0 155 18 276 56 103 32 200 99 306 211 88 94
163 193 153 202 -9 8 -534 133 -544 130 -3 -1 -41 -5 -85 -10z m339 -99 c114
-27 210 -51 212 -53 7 -7 -120 -150 -177 -200 -95 -84 -148 -113 -269 -148
-193 -57 -324 -46 -397 33 -40 42 -73 128 -73 189 0 46 5 63 30 97 33 47 122
93 210 111 30 6 64 13 75 15 11 2 56 4 100 5 63 1 123 -9 289 -49z"/>
<path d="M827 2035 c-18 -39 -21 -55 -9 -55 8 1 42 65 42 80 0 21 -17 8 -33
-25z"/>
<path d="M3578 2017 c-27 -42 -29 -59 -6 -39 21 17 49 70 40 76 -4 2 -20 -14
-34 -37z"/>
<path d="M766 1877 c-3 -12 -6 -35 -6 -51 0 -39 16 -22 24 26 7 40 -8 62 -18
25z"/>
<path d="M3465 1854 c-26 -34 -28 -57 -3 -36 20 16 50 72 40 72 -5 0 -22 -16
-37 -36z"/>
<path d="M3347 1694 c-16 -19 -26 -38 -22 -42 7 -7 65 56 65 70 0 17 -16 7
-43 -28z"/>
<path d="M750 1660 c0 -33 4 -50 13 -50 8 0 11 15 9 50 -5 65 -22 65 -22 0z"/>
<path d="M3222 1540 c-33 -40 -29 -66 5 -27 35 41 44 55 36 60 -5 3 -23 -12
-41 -33z"/>
<path d="M802 1465 c20 -42 38 -58 38 -35 0 21 -34 80 -47 80 -9 0 -7 -13 9
-45z"/>
<path d="M3086 1386 c-37 -49 -32 -56 9 -16 19 19 35 38 35 42 0 18 -19 6 -44
-26z"/>
<path d="M896 1342 c-6 -10 61 -78 69 -70 3 3 -10 21 -29 42 -19 20 -37 32
-40 28z"/>
<path d="M2940 1245 c-22 -23 -29 -35 -19 -35 15 0 69 49 69 63 0 15 -18 5
-50 -28z"/>
<path d="M1040 1205 c0 -6 73 -55 82 -55 18 0 6 16 -27 38 -33 21 -55 28 -55
17z"/>
<path d="M2790 1121 c-19 -16 -33 -32 -29 -35 6 -7 79 44 79 56 0 15 -15 8
-50 -21z"/>
<path d="M1220 1101 c0 -7 70 -41 85 -41 17 0 0 19 -30 33 -40 19 -55 21 -55
8z"/>
<path d="M1405 1030 c-3 -4 16 -15 42 -24 55 -19 53 -19 53 -7 0 13 -88 42
-95 31z"/>
<path d="M2617 1016 c-20 -12 -34 -25 -31 -29 7 -7 79 28 89 43 10 16 -17 10
-58 -14z"/>
<path d="M1600 972 c0 -12 79 -32 94 -24 12 7 -13 19 -56 27 -25 5 -38 3 -38
-3z"/>
<path d="M2425 946 c-25 -7 -36 -14 -28 -19 15 -10 93 10 93 23 0 12 -15 12
-65 -4z"/>
<path d="M1800 931 c0 -10 80 -22 94 -14 5 4 1 10 -10 14 -27 11 -84 11 -84 0z"/>
<path d="M1995 910 c3 -5 28 -10 56 -10 27 0 49 5 49 10 0 6 -25 10 -56 10
-34 0 -53 -4 -49 -10z"/>
<path d="M2200 910 c0 -5 20 -10 44 -10 25 0 48 5 51 10 4 6 -13 10 -44 10
-28 0 -51 -4 -51 -10z"/>
<path d="M8419 7039 l-24 -20 23 6 c21 6 22 4 22 -54 0 -34 4 -61 10 -61 12 0
13 137 1 144 -5 3 -20 -3 -32 -15z"/>
<path d="M8568 7049 c-10 -5 -18 -17 -18 -26 0 -15 2 -15 13 1 14 19 48 19 54
0 2 -6 -15 -34 -37 -63 l-40 -51 50 0 c32 0 49 4 45 10 -3 6 -17 10 -31 10
l-25 0 25 33 c28 37 33 66 14 85 -14 14 -27 15 -50 1z"/>
<path d="M8490 6920 c0 -5 5 -10 10 -10 6 0 10 5 10 10 0 6 -4 10 -10 10 -5 0
-10 -4 -10 -10z"/>
<path d="M3639 4839 l-24 -20 23 6 c21 6 22 4 22 -54 0 -34 4 -61 10 -61 12 0
13 137 1 144 -5 3 -20 -3 -32 -15z"/>
<path d="M3760 4839 c-24 -20 -24 -20 -2 -14 21 6 22 4 22 -54 0 -34 4 -61 10
-61 12 0 14 136 2 144 -4 2 -19 -4 -32 -15z"/>
<path d="M3710 4720 c0 -5 5 -10 10 -10 6 0 10 5 10 10 0 6 -4 10 -10 10 -5 0
-10 -4 -10 -10z"/>
<path d="M3918 4608 c-25 -46 -141 -271 -259 -500 l-214 -418 -15 36 c-8 19
-18 32 -22 29 -6 -7 15 -91 26 -102 8 -8 107 28 101 37 -3 5 -19 4 -36 -2 -16
-6 -31 -9 -33 -7 -1 2 43 92 99 199 334 649 415 810 406 810 -5 0 -29 -37 -53
-82z"/>
<path d="M3409 4309 l-24 -20 23 6 c21 6 22 4 22 -54 0 -34 4 -61 10 -61 12 0
13 137 1 144 -5 3 -20 -3 -32 -15z"/>
<path d="M3545 4310 c-10 -11 -13 -20 -7 -20 6 0 14 5 17 10 3 6 15 10 26 10
27 0 26 -40 -2 -47 -20 -5 -20 -6 3 -17 12 -6 24 -19 26 -27 4 -24 -27 -32
-54 -14 -25 16 -33 8 -12 -13 19 -19 66 -15 78 7 11 22 4 51 -13 51 -7 0 -7 4
1 12 18 18 14 46 -7 58 -27 14 -35 13 -56 -10z"/>
<path d="M3480 4190 c0 -5 5 -10 10 -10 6 0 10 5 10 10 0 6 -4 10 -10 10 -5 0
-10 -4 -10 -10z"/>
<path d="M5889 3519 l-24 -20 23 6 c21 6 22 4 22 -54 0 -34 4 -61 10 -61 12 0
13 137 1 144 -5 3 -20 -3 -32 -15z"/>
<path d="M6027 3533 c-4 -3 -7 -21 -7 -40 0 -30 2 -33 23 -28 30 8 56 -19 41
-43 -15 -23 -29 -25 -47 -8 -18 18 -32 9 -16 -11 13 -15 47 -17 68 -4 36 23 0
99 -40 86 -14 -5 -16 -1 -12 15 4 14 14 20 35 20 17 0 27 4 23 10 -7 11 -58
14 -68 3z"/>
<path d="M5960 3400 c0 -5 5 -10 10 -10 6 0 10 5 10 10 0 6 -4 10 -10 10 -5 0
-10 -4 -10 -10z"/>
<path d="M7266 3378 c4 -7 14 -21 22 -30 14 -17 -38 -18 -1081 -18 -725 0
-1097 -3 -1097 -10 0 -7 374 -10 1102 -10 l1102 0 -29 -30 c-18 -18 -23 -30
-15 -30 17 0 70 49 70 65 0 6 -15 25 -33 43 -33 33 -54 42 -41 20z"/>
<path d="M46 1563 c-41 -52 -49 -73 -26 -73 4 0 21 18 38 40 l29 40 22 -118
c64 -329 195 -600 389 -803 193 -203 427 -335 737 -414 202 -52 355 -69 615
-68 328 0 590 34 960 124 219 53 565 169 565 189 0 19 14 22 -195 -49 -739
-252 -1487 -305 -2016 -145 -320 96 -563 259 -740 494 -76 101 -182 307 -224
439 -25 76 -80 316 -80 346 0 4 19 -7 42 -24 37 -27 58 -32 58 -13 0 10 -106
92 -119 92 -6 0 -31 -26 -55 -57z"/>
<path d="M599 179 l-24 -20 23 6 c21 6 22 4 22 -54 0 -34 4 -61 10 -61 12 0
13 137 1 144 -5 3 -20 -3 -32 -15z"/>
<path d="M755 148 c-19 -29 -35 -56 -35 -60 0 -5 16 -8 35 -8 24 0 35 -5 35
-15 0 -8 5 -15 10 -15 6 0 10 7 10 15 0 8 5 15 12 15 9 0 9 3 0 12 -7 7 -12
31 -12 54 0 24 -4 45 -10 49 -5 3 -25 -18 -45 -47z m35 -13 c0 -28 -4 -35 -20
-35 -11 0 -20 3 -20 6 0 7 33 64 37 64 2 0 3 -16 3 -35z"/>
<path d="M670 60 c0 -5 5 -10 10 -10 6 0 10 5 10 10 0 6 -4 10 -10 10 -5 0
-10 -4 -10 -10z"/>
</g>
</svg>
