<?xml version="1.0" encoding="UTF-8"?>
<svg version="1.1" xmlns="http://www.w3.org/2000/svg" width="596" height="878">
<path d="M0 0 C2.5007163 1.96540672 4.91196328 4.00361625 7.3125 6.08984375 C8.11042969 6.74339844 8.90835937 7.39695312 9.73046875 8.0703125 C34.45800274 29.02385084 45.45091013 57.99773992 48.2265625 89.61010742 C49.12031482 100.77961746 49.77114767 111.88817446 49.3125 123.08984375 C49.27141113 124.13575684 49.23032227 125.18166992 49.18798828 126.25927734 C48.51132777 141.88732464 47.08436087 157.29673175 44.875 172.77734375 C44.77176422 173.50983337 44.66852844 174.242323 44.56216431 174.99700928 C43.30224114 183.83127944 41.6898532 192.47539832 39.3125 201.08984375 C60.51258725 205.41439876 60.51258725 205.41439876 81.890625 208.6953125 C84.3125 209.08984375 84.3125 209.08984375 85.3125 210.08984375 C87.55784908 232.96453107 80.94750171 253.48077751 66.58935547 271.27563477 C58.64398721 280.6704407 47.64455031 290.08768302 35.0625 291.96484375 C33.70125 292.02671875 33.70125 292.02671875 32.3125 292.08984375 C32.16874184 292.98265045 32.16874184 292.98265045 32.02207947 293.89349365 C30.50445763 302.78393499 28.31874509 311.48873112 26.12890625 320.23046875 C25.71281643 321.90308483 25.2971097 323.57579625 24.88175964 325.24859619 C24.00340519 328.78438303 23.12332946 332.31973444 22.24182129 335.85473633 C19.94934709 345.05040568 17.67043695 354.2494365 15.39453125 363.44921875 C15.1704446 364.35482544 14.94635796 365.26043213 14.7154808 366.19348145 C11.06159909 380.96874852 7.49684056 395.76178967 4.0625 410.58984375 C3.84855591 411.51226868 3.63461182 412.4346936 3.41418457 413.3850708 C2.60129476 416.89092144 1.78918899 420.3969517 0.97866821 423.90335083 C-11.6242471 478.39528843 -26.38328588 532.49524404 -50.6875 583.08984375 C-51.16654785 584.09031738 -51.6455957 585.09079102 -52.13916016 586.12158203 C-66.99474517 616.94773057 -84.69013183 646.35800261 -108.19140625 671.40625 C-110.31809822 673.69269348 -112.35822561 676.01971459 -114.375 678.40234375 C-117.83262467 682.37251043 -121.66721033 685.70362661 -125.6875 689.08984375 C-127.05648437 690.30800781 -127.05648437 690.30800781 -128.453125 691.55078125 C-164.68666718 723.56310993 -207.77164051 737.6440949 -255.6875 735.08984375 C-262.53540379 734.43341747 -269.08865426 732.99784928 -275.6875 731.08984375 C-276.35152832 730.9079248 -277.01555664 730.72600586 -277.69970703 730.53857422 C-326.22123918 717.01538755 -355.927648 671.50845136 -379.6875 630.08984375 C-384.15276314 622.16010599 -388.4545365 614.14561027 -392.6875 606.08984375 C-393.15510742 605.20135742 -393.62271484 604.31287109 -394.10449219 603.39746094 C-414.81885297 563.74340383 -430.41557883 521.41467816 -444.6875 479.08984375 C-445.31132568 477.24277832 -445.31132568 477.24277832 -445.94775391 475.35839844 C-476.88401129 382.58850721 -490.20372861 281.11020304 -498.6875 161.08984375 C-498.71971649 160.39574402 -498.75193298 159.70164429 -498.78512573 158.98651123 C-499.58577042 140.8472801 -499.62275844 124.8277916 -491.6875 108.08984375 C-490.90510675 106.32008946 -490.12524636 104.54921369 -489.34765625 102.77734375 C-481.9137686 86.20606209 -472.93935918 71.50590674 -460.6875 58.08984375 C-459.98753906 57.31898437 -459.28757812 56.548125 -458.56640625 55.75390625 C-444.82264648 41.31881048 -425.14660301 32.07247677 -405.28515625 30.88671875 C-386.88003957 30.642673 -366.6325131 34.71769093 -351.6875 46.08984375 C-348.5291979 52.17599259 -347.24751275 58.65156623 -345.78344727 65.3125 C-345.50967758 66.53215454 -345.2359079 67.75180908 -344.95384216 69.00842285 C-344.20444789 72.35349951 -343.46116489 75.69982312 -342.72062421 79.04686356 C-341.93027799 82.61231089 -341.13225881 86.176041 -340.33518982 89.73999023 C-338.98661275 95.77488155 -337.64304163 101.81086893 -336.30297852 107.84765625 C-334.46023488 116.14890621 -332.60862709 124.44815808 -330.75505018 132.74699473 C-327.01814555 149.48058787 -323.30266831 166.21888505 -319.6007843 182.96025848 C-318.9984432 185.68427248 -318.39569203 188.40819516 -317.79252625 191.13202667 C-316.11628059 198.70244076 -314.44522532 206.27397114 -312.78214836 213.84729004 C-312.28703533 216.09954036 -311.7905594 218.35149167 -311.29248238 220.60308838 C-307.77919008 236.49692865 -304.67112118 252.44048189 -301.8125 268.46484375 C-301.67938227 269.20973179 -301.54626453 269.95461983 -301.40911293 270.72208023 C-300.71546437 274.61808534 -300.04097339 278.51714849 -299.375 282.41796875 C-299.06574585 284.21599945 -299.06574585 284.21599945 -298.75024414 286.050354 C-298.06064846 290.06317491 -297.37372141 294.07644486 -296.6875 298.08984375 C-296.42709992 299.61206338 -296.16668272 301.13428009 -295.90625 302.65649414 C-295.70520771 303.83158759 -295.70520771 303.83158759 -295.50010395 305.0304203 C-295.36342902 305.82926832 -295.22675409 306.62811634 -295.0859375 307.45117188 C-294.94737681 308.2610726 -294.80881613 309.07097332 -294.66605663 309.90541649 C-275.85847288 454.3642773 -275.85847288 454.3642773 -215.6875 605.08984375 C-211.89895306 606.98411722 -207.80485059 606.69829011 -203.6875 606.08984375 C-200.26106269 604.56510728 -197.54521222 602.49989978 -194.6875 600.08984375 C-193.70330078 599.27193359 -193.70330078 599.27193359 -192.69921875 598.4375 C-150.02649587 559.35646923 -136.53322788 478.32899841 -122.62023926 424.68145752 C-121.64664349 420.93252131 -120.66912299 417.18461936 -119.69042969 413.43701172 C-100.1588969 340.82457878 -100.1588969 340.82457878 -87.25 266.83984375 C-87.16591888 266.14506927 -87.08183777 265.4502948 -86.99520874 264.73446655 C-86.49479874 260.5244612 -86.06665831 256.31236299 -85.6875 252.08984375 C-85.59621826 251.28571045 -85.50493652 250.48157715 -85.41088867 249.65307617 C-84.99973526 243.89070921 -87.34270514 241.06661295 -90.875 236.90234375 C-122.11666201 197.57157375 -137.13287651 148.55197956 -137.00317383 98.63085938 C-137.00000109 96.09071315 -137.02365294 93.55172371 -137.04882812 91.01171875 C-137.17008208 59.6381574 -128.08736461 31.36449414 -106.375 8.33984375 C-76.10397454 -20.60814738 -34.53167549 -24.54358912 0 0 Z M-108.30761719 19.46435547 C-123.39187509 37.23346182 -130.7653298 61.1036182 -130.890625 84.15234375 C-130.90121445 85.44266258 -130.90121445 85.44266258 -130.91201782 86.75904846 C-131.15287105 113.56598086 -131.15287105 113.56598086 -127.6875 140.08984375 C-127.48882324 141.08113281 -127.29014648 142.07242188 -127.08544922 143.09375 C-122.72524342 164.17950929 -115.9913618 184.16699615 -105.6875 203.08984375 C-105.07390625 204.24355469 -104.4603125 205.39726562 -103.828125 206.5859375 C-99.30268723 214.82335625 -94.09915358 222.45850005 -88.6171875 230.08203125 C-88.14224854 230.74678467 -87.66730957 231.41153809 -87.17797852 232.09643555 C-86.16263221 233.45438846 -85.09741122 234.77611403 -83.99194336 236.06176758 C-80.4735186 240.2529313 -78.97976355 243.06158547 -79.26000977 248.57763672 C-79.33920654 249.38604004 -79.41840332 250.19444336 -79.5 251.02734375 C-79.56695068 251.9208252 -79.63390137 252.81430664 -79.70288086 253.73486328 C-83.92792416 303.05863705 -97.41216165 351.31371529 -109.6875 399.08984375 C-109.86517662 399.7819696 -110.04285324 400.47409546 -110.225914 401.18719482 C-112.67504016 410.72740083 -115.14081774 420.26315813 -117.62496948 429.79430389 C-118.11267567 431.6675079 -118.59859737 433.54117622 -119.08447266 435.41485596 C-158.38226979 586.6831585 -158.38226979 586.6831585 -198.375 610.46484375 C-204.48169379 613.25242544 -211.09830157 613.3672674 -217.3984375 611.125 C-233.94368889 602.34328965 -240.84832913 579.68607051 -246.0625 562.96484375 C-247.65856561 557.68813395 -249.18977597 552.39522704 -250.6875 547.08984375 C-250.89761719 546.34587341 -251.10773438 545.60190308 -251.32421875 544.83538818 C-271.40232797 473.4818307 -285.18136637 400.82182286 -297.6953125 327.8203125 C-297.86978535 326.80307476 -298.04425819 325.78583702 -298.2240181 324.7377739 C-299.97466966 314.52837218 -301.72039414 304.31817817 -303.44823837 294.10488987 C-310.3541876 253.30604258 -318.82515089 213.03707712 -327.98307419 172.68411636 C-329.3841443 166.50707829 -330.78097994 160.32908299 -332.17797852 154.15112305 C-332.73645926 151.68147138 -333.29494617 149.2118211 -333.85343933 146.74217224 C-334.12782522 145.52881132 -334.40221111 144.3154504 -334.68491173 143.06532097 C-335.50609715 139.43500834 -336.32791111 135.80483849 -337.14985657 132.17469788 C-340.17363739 118.81608721 -343.17754964 105.4533702 -346.14453125 92.08203125 C-346.45940513 90.66493194 -346.77432488 89.24784282 -347.08929443 87.83076477 C-348.19959312 82.83362331 -349.3096593 77.83645039 -350.40899658 72.83688354 C-351.11075722 69.64548093 -351.81842066 66.45544267 -352.52734375 63.265625 C-352.72197708 62.37015961 -352.91661041 61.47469421 -353.11714172 60.55209351 C-353.29754501 59.74511017 -353.4779483 58.93812683 -353.66381836 58.10668945 C-353.81491562 57.42000687 -353.96601288 56.73332428 -354.12168884 56.02583313 C-355.31142894 51.95499754 -356.19641973 50.39646948 -359.890625 48.08984375 C-361.23147136 47.40700843 -362.58107612 46.74118642 -363.9375 46.08984375 C-364.64825684 45.74171631 -365.35901367 45.39358887 -366.09130859 45.03491211 C-385.11648901 36.00841294 -405.72978113 34.31564569 -425.6875 41.08984375 C-434.76153402 44.5725076 -442.53430217 49.56104451 -449.6875 56.08984375 C-450.18072754 56.53005859 -450.67395508 56.97027344 -451.18212891 57.42382812 C-465.28107683 70.13933575 -474.90316927 85.90498165 -482.6875 103.08984375 C-483.10854004 104.01821045 -483.10854004 104.01821045 -483.53808594 104.96533203 C-485.33788228 108.97512565 -487.06290955 113.00605183 -488.6875 117.08984375 C-489.03240479 117.85466064 -489.37730957 118.61947754 -489.73266602 119.4074707 C-493.09579782 127.44597562 -493.27128992 135.08624268 -493.125 143.65234375 C-493.11784973 144.40381683 -493.11069946 145.15528992 -493.10333252 145.92953491 C-492.15508233 243.58786467 -474.88033381 344.7094311 -438.6875 478.08984375 C-438.43806641 478.83022888 -438.18863281 479.57061401 -437.93164062 480.33343506 C-412.99713073 554.228842 -382.4507304 629.64613403 -330.6875 689.08984375 C-329.96691406 689.93417969 -329.24632812 690.77851562 -328.50390625 691.6484375 C-324.23081501 696.58789774 -319.72690207 700.94031691 -314.6875 705.08984375 C-314.04683594 705.65316406 -313.40617188 706.21648438 -312.74609375 706.796875 C-294.17192658 722.41045385 -267.4117035 728.9911831 -243.6875 730.08984375 C-242.93082031 730.13109375 -242.17414063 730.17234375 -241.39453125 730.21484375 C-193.86033676 731.52387492 -153.09228347 706.57103716 -119.6875 675.08984375 C-118.9553125 674.40019531 -118.223125 673.71054687 -117.46875 673 C-112.05685143 667.74916984 -107.37459005 661.98675087 -102.6875 656.08984375 C-101.82357928 655.02810633 -100.95897694 653.96692323 -100.09375 652.90625 C-48.09769096 588.63478409 -23.24681057 504.63280024 -5.39332008 425.24595642 C0.86371683 397.48629804 7.69915344 369.87504543 14.58398438 342.26568604 C16.14322753 336.00866185 17.69732737 329.75036021 19.25195312 323.4921875 C22.26730735 311.35686858 25.28802151 299.22289162 28.3125 287.08984375 C29.00256134 286.95593735 29.69262268 286.82203094 30.40359497 286.68406677 C31.30697601 286.50658401 32.21035706 286.32910126 33.14111328 286.14624023 C34.03742462 285.97108383 34.93373596 285.79592743 35.85720825 285.61546326 C49.18490745 282.76232017 59.66488604 270.98003951 67.27734375 260.328125 C76.23814561 246.06995851 80.37563658 231.8955797 79.3125 215.08984375 C77.47749326 213.25483701 74.55033889 213.41573423 72.07421875 213.0390625 C70.77806641 212.83474609 69.48191406 212.63042969 68.14648438 212.41992188 C66.09168504 212.09989822 64.03656786 211.78285567 61.98022461 211.47290039 C52.50159401 210.0354104 42.97141264 208.41930007 34.3125 204.08984375 C34.91644615 195.48167181 36.25815085 187.08353205 37.75 178.58984375 C39.72009735 167.11990888 41.40300028 155.69549585 42.3125 144.08984375 C42.36889648 143.4134082 42.42529297 142.73697266 42.48339844 142.04003906 C45.33813856 106.82031626 46.03598018 63.97582443 24.3125 34.08984375 C23.57128906 33.0534375 22.83007812 32.01703125 22.06640625 30.94921875 C6.4045075 9.55588064 -14.65679616 -6.16798082 -41.26953125 -10.4921875 C-67.57429905 -13.70888482 -91.18303437 0.47638584 -108.30761719 19.46435547 Z " fill="#000000" transform="translate(498.6875,57.91015625)"/>
<path d="M0 0 C6.517904 4.68956663 12.55343845 10.81246164 14 19 C14.7992898 30.25557271 13.99078008 38.31915226 6.75 47.25 C1.9026651 52.47261244 -3.82301403 56.76382363 -11.140625 57.09765625 C-11.83671875 57.08605469 -12.5328125 57.07445312 -13.25 57.0625 C-15.10625 57.0315625 -15.10625 57.0315625 -17 57 C-17 57.66 -17 58.32 -17 59 C-17.99 59 -18.98 59 -20 59 C-20 58.34 -20 57.68 -20 57 C-20.99 56.9175 -21.98 56.835 -23 56.75 C-31.04950796 55.54906534 -36.90451484 51.18183225 -42 45 C-47.64218043 36.82738713 -47.69966663 28.63540902 -47 19 C-44.975542 10.56069317 -38.97795811 3.7193806 -31.8125 -0.9375 C-22.69451393 -6.41571974 -8.7703344 -5.84114609 0 0 Z " fill="#000000" transform="translate(103,158)"/>
<path d="M0 0 C4.50622829 4.18675688 7.93334429 8.88068364 11.5 13.875 C17.89718776 22.67923381 24.67127662 30.95997154 32 39 C32.62616211 39.68787598 33.25232422 40.37575195 33.89746094 41.08447266 C35.86058744 43.23106438 37.83363812 45.36791039 39.8125 47.5 C40.70956665 48.47005981 40.70956665 48.47005981 41.62475586 49.4597168 C45.29848483 53.37062402 49.13987701 56.9650949 53.21166992 60.45898438 C55.28443511 62.24509958 57.26143355 64.12103958 59.25 66 C95.06439171 98.14533323 140.19794713 120.27006519 189 118 C222.97550032 115.45734323 252.80280042 98.09732687 277 75 C278.4300962 73.76222708 279.86677681 72.53198407 281.3125 71.3125 C285.28179121 67.85563778 288.61960907 64.02427491 292 60 C292.8353125 59.0409375 293.670625 58.081875 294.53125 57.09375 C301.20248776 49.40082321 307.21203176 41.37434884 313 33 C310.03 33.33 307.06 33.66 304 34 C304 32.68 304 31.36 304 30 C309.45461169 28.61470179 314.36718401 27.7603057 320 28 C321.70084819 33.32932432 322.52013969 38.43109483 323 44 C321.68 44 320.36 44 319 44 C318.34 41.36 317.68 38.72 317 36 C316.45472656 36.73863281 315.90945313 37.47726562 315.34765625 38.23828125 C286.00346038 77.71500287 248.6832294 114.33961735 198 122 C197.27683594 122.11085938 196.55367187 122.22171875 195.80859375 122.3359375 C166.13229589 126.05175145 136.55905216 119.09367267 110 106 C108.92540527 105.47599609 108.92540527 105.47599609 107.82910156 104.94140625 C96.88429221 99.5504582 86.83631396 93.20464579 77 86 C76.42797852 85.58105469 75.85595703 85.16210938 75.26660156 84.73046875 C71.44227166 81.90427774 67.70548981 78.97977876 64 76 C62.98550781 75.19175781 61.97101563 74.38351562 60.92578125 73.55078125 C52.71511438 66.83993456 45.19843796 59.40900557 37.6875 51.9375 C37.1755307 51.43079773 36.6635614 50.92409546 36.13607788 50.40203857 C29.28619243 43.60667753 22.98851405 36.58160523 17 29 C15.91578088 27.66396824 14.83002587 26.32918025 13.7421875 24.99609375 C8.22851117 18.16914982 2.88019682 11.30311144 -2 4 C-1.34 2.68 -0.68 1.36 0 0 Z " fill="#000000" transform="translate(91,716)"/>
<path d="M0 0 C36.57079225 -0.99625314 69.11727546 18.96422935 95.00390625 43.15625 C94.67390625 44.14625 94.34390625 45.13625 94.00390625 46.15625 C89.98068241 45.61306875 88.15445347 43.63724388 85.31640625 40.84375 C62.38216917 19.20297541 31.62771425 4.3823102 -0.234375 4.90625 C-23.46921658 6.45041393 -42.62423039 18.09001139 -57.7734375 35.234375 C-68.54129279 47.9934274 -77.3956808 63.42950899 -82.99609375 79.15625 C-81.88234375 78.66125 -81.88234375 78.66125 -80.74609375 78.15625 C-77.99609375 77.15625 -77.99609375 77.15625 -73.99609375 77.15625 C-74.1640625 78.98046875 -74.1640625 78.98046875 -74.99609375 81.15625 C-77.359375 82.67578125 -77.359375 82.67578125 -80.30859375 83.96875 C-81.27410156 84.40832031 -82.23960937 84.84789063 -83.234375 85.30078125 C-85.99609375 86.15625 -85.99609375 86.15625 -88.1796875 86.125 C-90.940462 84.65258693 -91.53080844 82.67566483 -92.74609375 79.84375 C-93.1740625 78.87824219 -93.60203125 77.91273437 -94.04296875 76.91796875 C-94.99609375 74.15625 -94.99609375 74.15625 -94.99609375 70.15625 C-93.12109375 70.40625 -93.12109375 70.40625 -90.99609375 71.15625 C-89.2750784 73.73777302 -88.99609375 75.00543025 -88.99609375 78.15625 C-88.33609375 78.15625 -87.67609375 78.15625 -86.99609375 78.15625 C-86.90328125 77.48335938 -86.81046875 76.81046875 -86.71484375 76.1171875 C-85.81215887 72.39851826 -84.22567589 69.16876016 -82.49609375 65.78125 C-82.14224609 65.08370605 -81.78839844 64.38616211 -81.42382812 63.66748047 C-75.62221236 52.39192339 -69.31881225 41.77181798 -60.99609375 32.15625 C-60.32191406 31.33769531 -59.64773438 30.51914062 -58.953125 29.67578125 C-45.54366244 13.92149464 -26.11105393 2.02273712 -5.1484375 0.25 C-3.43189715 0.17523236 -1.71583617 0.08948298 0 0 Z " fill="#000000" transform="translate(442.99609375,20.84375)"/>
<path d="M0 0 C6.34049226 3.74141444 10.0425229 9.56118721 12.36328125 16.39453125 C16.61682178 33.22896631 12.481365 53.55583727 6.36328125 69.39453125 C0.7565516 69.39453125 -1.02168663 66.93496902 -4.984375 63.19921875 C-17.17319724 50.31030216 -28.32184416 30.42142632 -29.07421875 12.39453125 C-28.84873811 8.47407757 -27.91359894 5.65805952 -25.63671875 2.39453125 C-17.4076645 -3.94869807 -9.35892372 -4.11909084 0 0 Z M-22.63671875 8.39453125 C-24.43830265 23.57930984 -14.846577 40.83423427 -5.88671875 52.58203125 C-3.63076385 55.35816992 -1.2755346 57.97561672 1.36328125 60.39453125 C2.02328125 60.39453125 2.68328125 60.39453125 3.36328125 60.39453125 C5.73097395 50.36354744 7.75912957 40.55018439 7.80078125 30.20703125 C7.81044922 29.45510498 7.82011719 28.70317871 7.83007812 27.9284668 C7.72756232 21.13001064 6.38199258 14.77557538 1.92578125 9.51953125 C-3.34390579 5.14954687 -6.51627533 3.08943445 -13.63671875 3.16796875 C-17.53618917 3.60970563 -19.9501118 5.7079243 -22.63671875 8.39453125 Z " fill="#000000" transform="translate(461.63671875,148.60546875)"/>
<path d="M0 0 C0.99 2.97 1.98 5.94 3 9 C2.01 9 1.02 9 0 9 C-0.66 7.68 -1.32 6.36 -2 5 C-2.61875 6.03447266 -2.61875 6.03447266 -3.25 7.08984375 C-12.93925367 22.85650877 -24.88708149 32.96162223 -42 40 C-42.33 38.68 -42.66 37.36 -43 36 C-41.98421875 35.55011719 -40.9684375 35.10023438 -39.921875 34.63671875 C-25.74107227 28.10915744 -12.83784189 18.55483488 -6 4 C-7.98 4.33 -9.96 4.66 -12 5 C-11 2 -11 2 -8.25 0.25 C-4.82103483 -1.06883276 -3.42681118 -1.10867421 0 0 Z " fill="#000000" transform="translate(591,327)"/>
<path d="M0 0 C1.4540625 0.0309375 1.4540625 0.0309375 2.9375 0.0625 C5.0625 4.6875 5.0625 4.6875 3.9375 8.0625 C4.26300502 9.73071323 4.59596063 11.39749557 4.9375 13.0625 C4.6075 13.7225 4.2775 14.3825 3.9375 15.0625 C1.125 15.9375 1.125 15.9375 -2.0625 16.0625 C-4.4375 14.125 -4.4375 14.125 -6.0625 12.0625 C-2.43923261 10.8547442 -1.42103631 11.51938872 1.9375 13.0625 C1.9375 11.7425 1.9375 10.4225 1.9375 9.0625 C0.6175 9.0625 -0.7025 9.0625 -2.0625 9.0625 C-2.0625 8.0725 -2.0625 7.0825 -2.0625 6.0625 C-0.7425 6.0625 0.5775 6.0625 1.9375 6.0625 C1.6075 5.0725 1.2775 4.0825 0.9375 3.0625 C-1.0425 3.7225 -3.0225 4.3825 -5.0625 5.0625 C-3.9375 0.08035714 -3.9375 0.08035714 0 0 Z " fill="#000000" transform="translate(561.0625,372.9375)"/>
<path d="M0 0 C3.0625 0.1875 3.0625 0.1875 5.0625 2.1875 C4.90004442 5.92397845 4.47466356 7.71288742 2 10.5625 C1.360625 11.09875 0.72125 11.635 0.0625 12.1875 C1.7125 12.5175 3.3625 12.8475 5.0625 13.1875 C5.0625 13.8475 5.0625 14.5075 5.0625 15.1875 C1.7625 15.1875 -1.5375 15.1875 -4.9375 15.1875 C-2.9375 11.1875 -2.9375 11.1875 -0.8125 8.625 C1.36735538 6.30372611 1.36735538 6.30372611 1.0625 3.1875 C0.4025 3.1875 -0.2575 3.1875 -0.9375 3.1875 C-1.2675 3.8475 -1.5975 4.5075 -1.9375 5.1875 C-2.9275 5.1875 -3.9175 5.1875 -4.9375 5.1875 C-3.82120474 0.24390669 -3.82120474 0.24390669 0 0 Z " fill="#000000" transform="translate(449.9375,3.8125)"/>
<path d="M0 0 C0 4.95 0 9.9 0 15 C-0.99 15 -1.98 15 -3 15 C-3 11.37 -3 7.74 -3 4 C-3.99 4.33 -4.98 4.66 -6 5 C-5.625 3.0625 -5.625 3.0625 -5 1 C-3 0 -3 0 0 0 Z " fill="#000000" transform="translate(277,858)"/>
<path d="M0 0 C0 4.95 0 9.9 0 15 C-0.99 15 -1.98 15 -3 15 C-3 11.37 -3 7.74 -3 4 C-3.99 4.33 -4.98 4.66 -6 5 C-5.625 3.0625 -5.625 3.0625 -5 1 C-3 0 -3 0 0 0 Z " fill="#000000" transform="translate(548,373)"/>
<path d="M0 0 C0 4.95 0 9.9 0 15 C-0.99 15 -1.98 15 -3 15 C-3 11.37 -3 7.74 -3 4 C-3.99 4.33 -4.98 4.66 -6 5 C-5.625 3.0625 -5.625 3.0625 -5 1 C-3 0 -3 0 0 0 Z " fill="#000000" transform="translate(437,4)"/>
<path d="M0 0 C0 4.95 0 9.9 0 15 C-0.66 15 -1.32 15 -2 15 C-2.33 11.37 -2.66 7.74 -3 4 C-3.99 4.33 -4.98 4.66 -6 5 C-6 4.01 -6 3.02 -6 2 C-3 0 -3 0 0 0 Z " fill="#000000" transform="translate(289,858)"/>
<path d="M0 0 C1.62566606 0.47690204 3.25051311 0.95659666 4.875 1.4375 C5.77992188 1.70433594 6.68484375 1.97117187 7.6171875 2.24609375 C10 3 10 3 12 4 C11.67 4.99 11.34 5.98 11 7 C9.5410574 6.52269162 8.08286504 6.04308958 6.625 5.5625 C5.81289063 5.29566406 5.00078125 5.02882813 4.1640625 4.75390625 C2 4 2 4 0 3 C0 2.01 0 1.02 0 0 Z " fill="#000000" transform="translate(491,291)"/>
<path d="M0 0 C0.99 0 1.98 0 3 0 C3.99 3.63 4.98 7.26 6 11 C4.68 10.67 3.36 10.34 2 10 C0.40155515 6.40349908 0 3.96602757 0 0 Z " fill="#000000" transform="translate(402,206)"/>
<path d="M0 0 C0.99 0.33 1.98 0.66 3 1 C-0.81818182 7.54545455 -0.81818182 7.54545455 -3 10 C-3.99 10 -4.98 10 -6 10 C-4.6302836 6.00499382 -2.74277578 3.19990508 0 0 Z " fill="#000000" transform="translate(416,105)"/>
<path d="M0 0 C0.99 0.33 1.98 0.66 3 1 C3.66 4.3 4.32 7.6 5 11 C3.68 10.67 2.36 10.34 1 10 C0.63883954 8.5225254 0.28624952 7.04295325 -0.0625 5.5625 C-0.25972656 4.73878906 -0.45695313 3.91507813 -0.66015625 3.06640625 C-0.82837891 2.04353516 -0.82837891 2.04353516 -1 1 C-0.67 0.67 -0.34 0.34 0 0 Z " fill="#000000" transform="translate(140,521)"/>
<path d="M0 0 C3.63 0.66 7.26 1.32 11 2 C11 2.99 11 3.98 11 5 C9.3745692 4.85904936 7.74965949 4.71207913 6.125 4.5625 C5.22007812 4.48128906 4.31515625 4.40007812 3.3828125 4.31640625 C1 4 1 4 -1 3 C-0.67 2.01 -0.34 1.02 0 0 Z " fill="#000000" transform="translate(513,298)"/>
<path d="M0 0 C3.3 1.65 6.6 3.3 10 5 C10 5.99 10 6.98 10 8 C5.94718288 6.77472971 2.55639236 5.30119506 -1 3 C-0.67 2.01 -0.34 1.02 0 0 Z " fill="#000000" transform="translate(472,281)"/>
<path d="M0 0 C3.5786304 1.65167557 6.74820188 3.78286492 10 6 C9.01 7.485 9.01 7.485 8 9 C6.65826597 8.07456291 5.32679841 7.13422595 4 6.1875 C3.2575 5.66542969 2.515 5.14335937 1.75 4.60546875 C1.1725 4.07566406 0.595 3.54585938 0 3 C0 2.01 0 1.02 0 0 Z " fill="#000000" transform="translate(436,257)"/>
<path d="M0 0 C6.57142857 5.14285714 6.57142857 5.14285714 8 9 C6.68 9 5.36 9 4 9 C1.1875 6.1875 1.1875 6.1875 -1 3 C-0.67 2.01 -0.34 1.02 0 0 Z " fill="#000000" transform="translate(422,242)"/>
<path d="M0 0 C3.32368224 1.10789408 3.61563093 1.48436217 5.25 4.375 C5.60578125 4.98085937 5.9615625 5.58671875 6.328125 6.2109375 C7 8 7 8 6 11 C5.34 11 4.68 11 4 11 C0 4.5 0 4.5 0 0 Z " fill="#000000" transform="translate(410,225)"/>
<path d="M0 0 C0 0.99 0 1.98 0 3 C-3.3 4.32 -6.6 5.64 -10 7 C-10 5.68 -10 4.36 -10 3 C-3.375 0 -3.375 0 0 0 Z " fill="#000000" transform="translate(436,94)"/>
<path d="M0 0 C3.48331435 3.01887244 4.79157144 5.56909529 6 10 C5.01 10.33 4.02 10.66 3 11 C-1.06153846 4.6 -1.06153846 4.6 -0.75 1.5625 C-0.5025 1.046875 -0.255 0.53125 0 0 Z " fill="#000000" transform="translate(192,672)"/>
<path d="M0 0 C0.66 0 1.32 0 2 0 C3.32 3.3 4.64 6.6 6 10 C4.68 10 3.36 10 2 10 C1.01 7.03 0.02 4.06 -1 1 C-0.67 0.67 -0.34 0.34 0 0 Z " fill="#000000" transform="translate(183,654)"/>
<path d="M0 0 C0.99 0.33 1.98 0.66 3 1 C4.52160014 4.6037898 5 7.05220686 5 11 C4.01 10.67 3.02 10.34 2 10 C1.05078125 7.93359375 1.05078125 7.93359375 0.3125 5.4375 C0.06113281 4.61121094 -0.19023437 3.78492188 -0.44921875 2.93359375 C-0.63097656 2.29550781 -0.81273437 1.65742187 -1 1 C-0.67 0.67 -0.34 0.34 0 0 Z " fill="#000000" transform="translate(168,617)"/>
<path d="M0 0 C0.99 0 1.98 0 3 0 C3.66 3.63 4.32 7.26 5 11 C3.68 10.67 2.36 10.34 1 10 C0.67 6.7 0.34 3.4 0 0 Z " fill="#000000" transform="translate(122,443)"/>
<path d="M0 0 C4.00458831 0.61609051 6.83019669 2.55060653 10 5 C10 5.99 10 6.98 10 8 C5.99541169 7.38390949 3.16980331 5.44939347 0 3 C0 2.01 0 1.02 0 0 Z " fill="#000000" transform="translate(453,269)"/>
<path d="M0 0 C0.99 0 1.98 0 3 0 C2.34 3.96 1.68 7.92 1 12 C0.01 11.67 -0.98 11.34 -2 11 C-1.34 7.37 -0.68 3.74 0 0 Z " fill="#000000" transform="translate(399,144)"/>
<path d="M0 0 C2.96404505 2.80804268 5.44499019 5.18315774 7 9 C5.68 9 4.36 9 3 9 C1.515625 7.46875 1.515625 7.46875 0.25 5.5 C-0.17796875 4.8503125 -0.6059375 4.200625 -1.046875 3.53125 C-1.51867187 2.77328125 -1.51867187 2.77328125 -2 2 C-1.34 1.34 -0.68 0.68 0 0 Z " fill="#000000" transform="translate(483,109)"/>
<path d="M0 0 C3.3 0.99 6.6 1.98 10 3 C9.67 3.99 9.34 4.98 9 6 C5.44219804 5.39009109 2.3171411 4.4216319 -1 3 C-0.67 2.01 -0.34 1.02 0 0 Z " fill="#000000" transform="translate(247,726)"/>
<path d="M0 0 C3.15133488 1.83827868 6.11964908 3.75972706 9 6 C8.67 6.99 8.34 7.98 8 9 C4.18315774 7.44499019 1.80804268 4.96404505 -1 2 C-0.67 1.34 -0.34 0.68 0 0 Z " fill="#000000" transform="translate(215,704)"/>
<path d="M0 0 C0.66 0.33 1.32 0.66 2 1 C0.83242263 4.32310483 -0.14948857 6.83361132 -3 9 C-3.99 9 -4.98 9 -6 9 C-5.52797514 4.75177626 -3.03344482 2.80010291 0 0 Z " fill="#000000" transform="translate(341,703)"/>
<path d="M0 0 C0.99 0.33 1.98 0.66 3 1 C3.94921875 3.06640625 3.94921875 3.06640625 4.6875 5.5625 C4.93886719 6.38878906 5.19023437 7.21507812 5.44921875 8.06640625 C5.63097656 8.70449219 5.81273437 9.34257813 6 10 C5.01 10.33 4.02 10.66 3 11 C1.68 7.7 0.36 4.4 -1 1 C-0.67 0.67 -0.34 0.34 0 0 Z " fill="#000000" transform="translate(175,636)"/>
<path d="M0 0 C0.66 0 1.32 0 2 0 C2.99 3.63 3.98 7.26 5 11 C4.01 11 3.02 11 2 11 C1.01 7.7 0.02 4.4 -1 1 C-0.67 0.67 -0.34 0.34 0 0 Z " fill="#000000" transform="translate(156,579)"/>
<path d="M0 0 C0.99 0 1.98 0 3 0 C3.66 3.3 4.32 6.6 5 10 C4.01 10.33 3.02 10.66 2 11 C0.57741188 7.17679443 -0.24042276 4.08718695 0 0 Z " fill="#000000" transform="translate(150,560)"/>
<path d="M0 0 C0.66 0 1.32 0 2 0 C3.19287411 3.87684087 4 6.91621923 4 11 C3.01 11 2.02 11 1 11 C0.63890458 9.35567294 0.28629924 7.7094792 -0.0625 6.0625 C-0.25972656 5.14597656 -0.45695313 4.22945313 -0.66015625 3.28515625 C-0.77230469 2.53105469 -0.88445312 1.77695312 -1 1 C-0.67 0.67 -0.34 0.34 0 0 Z " fill="#000000" transform="translate(131,482)"/>
<path d="M0 0 C0.99 0 1.98 0 3 0 C3.66 3.3 4.32 6.6 5 10 C4.01 10.33 3.02 10.66 2 11 C0.80712589 7.12315913 0 4.08378077 0 0 Z " fill="#000000" transform="translate(126,463)"/>
<path d="M0 0 C0.99 0 1.98 0 3 0 C3.66 3.63 4.32 7.26 5 11 C4.01 11 3.02 11 2 11 C0.80712589 7.12315913 0 4.08378077 0 0 Z " fill="#000000" transform="translate(114,404)"/>
<path d="M0 0 C0.99 0 1.98 0 3 0 C3.66 3.63 4.32 7.26 5 11 C4.01 11 3.02 11 2 11 C0 3.375 0 3.375 0 0 Z " fill="#000000" transform="translate(103,345)"/>
<path d="M0 0 C0.99 0 1.98 0 3 0 C3.33 3.63 3.66 7.26 4 11 C3.01 11 2.02 11 1 11 C0.67 7.37 0.34 3.74 0 0 Z " fill="#000000" transform="translate(100,325)"/>
<path d="M0 0 C0.99 0 1.98 0 3 0 C5 7.625 5 7.625 5 11 C4.01 11 3.02 11 2 11 C1.34 7.37 0.68 3.74 0 0 Z " fill="#000000" transform="translate(90,266)"/>
<path d="M0 0 C0.99 0 1.98 0 3 0 C3.33 3.63 3.66 7.26 4 11 C3.01 11 2.02 11 1 11 C-0.17571451 7.32589215 -0.07366746 3.83070817 0 0 Z " fill="#000000" transform="translate(85,226)"/>
<path d="M0 0 C1.32 0.33 2.64 0.66 4 1 C4.33 4.3 4.66 7.6 5 11 C4.01 11 3.02 11 2 11 C1.34 7.37 0.68 3.74 0 0 Z " fill="#000000" transform="translate(397,186)"/>
<path d="M0 0 C1.32031595 0.56542004 2.6311301 1.15306472 3.9375 1.75 C4.66839844 2.07484375 5.39929688 2.3996875 6.15234375 2.734375 C8 4 8 4 8.75390625 6.140625 C8.83511719 6.75421875 8.91632813 7.3678125 9 8 C5.40608886 6.66511872 2.24509304 5.03977277 -1 3 C-0.67 2.01 -0.34 1.02 0 0 Z " fill="#000000" transform="translate(467,97)"/>
<path d="M0 0 C2.97 1.65 5.94 3.3 9 5 C9 5.99 9 6.98 9 8 C4.56909529 6.79157144 2.01887244 5.48331435 -1 2 C-0.67 1.34 -0.34 0.68 0 0 Z " fill="#000000" transform="translate(230,716)"/>
<path d="M0 0 C0.66 0.33 1.32 0.66 2 1 C0.7508258 4.45925163 -0.67527795 7.14693203 -3 10 C-3.99 9.67 -4.98 9.34 -6 9 C-2.25 2.25 -2.25 2.25 0 0 Z " fill="#000000" transform="translate(353,688)"/>
<path d="M0 0 C0.928125 1.175625 0.928125 1.175625 1.875 2.375 C3.89858661 4.96837647 3.89858661 4.96837647 6 7 C6 7.99 6 8.98 6 10 C2.20620942 8.50958227 0.31656242 6.30937488 -2 3 C-2 2.34 -2 1.68 -2 1 C-1.34 0.67 -0.68 0.34 0 0 Z " fill="#000000" transform="translate(203,689)"/>
<path d="M0 0 C0.66 0 1.32 0 2 0 C1.43454163 3.95820859 0.19097652 6.6659053 -2 10 C-2.99 9.67 -3.98 9.34 -5 9 C-3.7580393 5.56072421 -2.44259716 2.74792181 0 0 Z " fill="#000000" transform="translate(363,672)"/>
<path d="M0 0 C0.66 0 1.32 0 2 0 C2.99 3.63 3.98 7.26 5 11 C4.01 11 3.02 11 2 11 C1.01 7.7 0.02 4.4 -1 1 C-0.67 0.67 -0.34 0.34 0 0 Z " fill="#000000" transform="translate(162,598)"/>
<path d="M0 0 C0.99 0 1.98 0 3 0 C3.66 3.3 4.32 6.6 5 10 C4.01 10.33 3.02 10.66 2 11 C0.80712589 7.12315913 0 4.08378077 0 0 Z " fill="#000000" transform="translate(135,502)"/>
<path d="M0 0 C0.66 0 1.32 0 2 0 C2.66 3.63 3.32 7.26 4 11 C3.01 11 2.02 11 1 11 C0.63890458 9.35567294 0.28629924 7.7094792 -0.0625 6.0625 C-0.25972656 5.14597656 -0.45695312 4.22945313 -0.66015625 3.28515625 C-0.77230469 2.53105469 -0.88445312 1.77695312 -1 1 C-0.67 0.67 -0.34 0.34 0 0 Z " fill="#000000" transform="translate(111,384)"/>
<path d="M0 0 C0.99 0 1.98 0 3 0 C3.33 3.3 3.66 6.6 4 10 C3.01 10 2.02 10 1 10 C0.67 6.7 0.34 3.4 0 0 Z " fill="#000000" transform="translate(107,365)"/>
<path d="M0 0 C0.99 0 1.98 0 3 0 C2.125 7.625 2.125 7.625 1 11 C0.01 10.67 -0.98 10.34 -2 10 C-1.34 6.7 -0.68 3.4 0 0 Z " fill="#000000" transform="translate(491,259)"/>
<path d="M0 0 C0.99 0.33 1.98 0.66 3 1 C3.33 4.3 3.66 7.6 4 11 C3.01 11 2.02 11 1 11 C-0.28317892 7.15046324 -0.06643637 4.05261865 0 0 Z " fill="#000000" transform="translate(88,246)"/>
<path d="M0 0 C0.99 0 1.98 0 3 0 C2.85892253 1.45880109 2.71197585 2.91703551 2.5625 4.375 C2.48128906 5.18710938 2.40007812 5.99921875 2.31640625 6.8359375 C2 9 2 9 1 11 C0.01 10.67 -0.98 10.34 -2 10 C-1.34 6.7 -0.68 3.4 0 0 Z " fill="#000000" transform="translate(495,240)"/>
<path d="M0 0 C0.99 0 1.98 0 3 0 C2.67 3.63 2.34 7.26 2 11 C1.01 10.67 0.02 10.34 -1 10 C-0.67 6.7 -0.34 3.4 0 0 Z " fill="#000000" transform="translate(498,221)"/>
<path d="M0 0 C0.99 0 1.98 0 3 0 C3.66 3.3 4.32 6.6 5 10 C4.01 10.33 3.02 10.66 2 11 C1.34 7.37 0.68 3.74 0 0 Z " fill="#000000" transform="translate(498,144)"/>
<path d="M0 0 C0.99 0 1.98 0 3 0 C6 6.625 6 6.625 6 10 C5.01 10 4.02 10 3 10 C0 3.375 0 3.375 0 0 Z " fill="#000000" transform="translate(492,126)"/>
<path d="M0 0 C0.99 0.33 1.98 0.66 3 1 C1.68 4.3 0.36 7.6 -1 11 C-1.66 11 -2.32 11 -3 11 C-2.53199289 6.94393835 -2.12046792 3.53411321 0 0 Z " fill="#000000" transform="translate(405,124)"/>
<path d="M0 0 C3.63 0.33 7.26 0.66 11 1 C11 1.99 11 2.98 11 4 C7.37 3.67 3.74 3.34 0 3 C0 2.01 0 1.02 0 0 Z " fill="#000000" transform="translate(446,92)"/>
<path d="M0 0 C-0.33 0.99 -0.66 1.98 -1 3 C-3.06640625 3.94921875 -3.06640625 3.94921875 -5.5625 4.6875 C-6.38878906 4.93886719 -7.21507812 5.19023438 -8.06640625 5.44921875 C-8.70449219 5.63097656 -9.34257812 5.81273437 -10 6 C-9.64453125 4.078125 -9.64453125 4.078125 -9 2 C-5.70173093 0.21715186 -3.8225249 0 0 0 Z " fill="#000000" transform="translate(313,727)"/>
<path d="M0 0 C0.66 0.33 1.32 0.66 2 1 C0.61198929 4.35435922 -0.88629 6.11290303 -4 8 C-4.99 8 -5.98 8 -7 8 C-7 7.01 -7 6.02 -7 5 C-5.46875 3.61328125 -5.46875 3.61328125 -3.5 2.3125 C-2.8503125 1.87550781 -2.200625 1.43851563 -1.53125 0.98828125 C-1.0259375 0.66214844 -0.520625 0.33601562 0 0 Z " fill="#000000" transform="translate(327,716)"/>
<path d="M0 0 C0.66 0 1.32 0 2 0 C1.49287967 3.71888239 0.88391785 6.73454239 -1 10 C-1.99 10 -2.98 10 -4 10 C-3.52449439 8.51965236 -3.04448784 7.04074979 -2.5625 5.5625 C-2.29566406 4.73878906 -2.02882813 3.91507813 -1.75390625 3.06640625 C-1 1 -1 1 0 0 Z " fill="#000000" transform="translate(379,637)"/>
<path d="M0 0 C0.99 0.33 1.98 0.66 3 1 C2.01 3.97 1.02 6.94 0 10 C-0.99 10 -1.98 10 -3 10 C-2.69201674 8.51988629 -2.378482 7.04092675 -2.0625 5.5625 C-1.88847656 4.73878906 -1.71445312 3.91507813 -1.53515625 3.06640625 C-1 1 -1 1 0 0 Z " fill="#000000" transform="translate(391,600)"/>
<path d="M0 0 C0.99 0 1.98 0 3 0 C2.54177532 3.46941546 2.10868317 6.67395049 1 10 C0.01 10 -0.98 10 -2 10 C-1.34 6.7 -0.68 3.4 0 0 Z " fill="#000000" transform="translate(396,581)"/>
<path d="M0 0 C0.99 0 1.98 0 3 0 C2.34 2.97 1.68 5.94 1 9 C-0.32 9.33 -1.64 9.66 -3 10 C-2.01 6.7 -1.02 3.4 0 0 Z " fill="#000000" transform="translate(408,543)"/>
<path d="M0 0 C1.32 0.33 2.64 0.66 4 1 C4.66 3.97 5.32 6.94 6 10 C5.01 10.33 4.02 10.66 3 11 C2.01 7.37 1.02 3.74 0 0 Z " fill="#000000" transform="translate(144,541)"/>
<path d="M0 0 C0.99 0.33 1.98 0.66 3 1 C2.01 3.97 1.02 6.94 0 10 C-0.99 10 -1.98 10 -3 10 C-2.69201674 8.51988629 -2.378482 7.04092675 -2.0625 5.5625 C-1.88847656 4.73878906 -1.71445312 3.91507813 -1.53515625 3.06640625 C-1 1 -1 1 0 0 Z " fill="#000000" transform="translate(414,524)"/>
<path d="M0 0 C0.99 0 1.98 0 3 0 C2.34 2.97 1.68 5.94 1 9 C-0.32 9.33 -1.64 9.66 -3 10 C-2.01 6.7 -1.02 3.4 0 0 Z " fill="#000000" transform="translate(431,467)"/>
<path d="M0 0 C0.99 0 1.98 0 3 0 C2.34 3.3 1.68 6.6 1 10 C0.01 10 -0.98 10 -2 10 C-1.54177532 6.53058454 -1.10868317 3.32604951 0 0 Z " fill="#000000" transform="translate(448,410)"/>
<path d="M0 0 C0.99 0 1.98 0 3 0 C2.01 3.3 1.02 6.6 0 10 C-0.99 10 -1.98 10 -3 10 C-2.69201674 8.51988629 -2.378482 7.04092675 -2.0625 5.5625 C-1.88847656 4.73878906 -1.71445312 3.91507812 -1.53515625 3.06640625 C-1 1 -1 1 0 0 Z " fill="#000000" transform="translate(460,372)"/>
<path d="M0 0 C0.66 0 1.32 0 2 0 C1.125 7.625 1.125 7.625 0 11 C-0.99 10.67 -1.98 10.34 -3 10 C-2.69201674 8.51988629 -2.378482 7.04092675 -2.0625 5.5625 C-1.88847656 4.73878906 -1.71445312 3.91507812 -1.53515625 3.06640625 C-1 1 -1 1 0 0 Z " fill="#000000" transform="translate(477,315)"/>
<path d="M0 0 C0.66 0.33 1.32 0.66 2 1 C2.4140625 3.28515625 2.4140625 3.28515625 2.625 6.0625 C2.69976562 6.98160156 2.77453125 7.90070313 2.8515625 8.84765625 C2.92503906 9.91306641 2.92503906 9.91306641 3 11 C2.01 11 1.02 11 0 11 C-0.19406478 9.35492782 -0.38007935 7.70890406 -0.5625 6.0625 C-0.66691406 5.14597656 -0.77132812 4.22945313 -0.87890625 3.28515625 C-0.91886719 2.53105469 -0.95882812 1.77695312 -1 1 C-0.67 0.67 -0.34 0.34 0 0 Z " fill="#000000" transform="translate(98,305)"/>
<path d="M0 0 C0.99 0.33 1.98 0.66 3 1 C2.01 3.97 1.02 6.94 0 10 C-0.99 10 -1.98 10 -3 10 C-2.69201674 8.51988629 -2.378482 7.04092675 -2.0625 5.5625 C-1.88847656 4.73878906 -1.71445312 3.91507812 -1.53515625 3.06640625 C-1 1 -1 1 0 0 Z " fill="#000000" transform="translate(482,297)"/>
<path d="M0 0 C1.32 0.33 2.64 0.66 4 1 C4.33 3.97 4.66 6.94 5 10 C4.01 10.33 3.02 10.66 2 11 C1.34 7.37 0.68 3.74 0 0 Z " fill="#000000" transform="translate(93,286)"/>
<path d="M0 0 C0.99 0 1.98 0 3 0 C3 3.63 3 7.26 3 11 C2.34 11 1.68 11 1 11 C-0.20272819 8.59454362 -0.10071472 7.05003047 -0.0625 4.375 C-0.05347656 3.55773437 -0.04445313 2.74046875 -0.03515625 1.8984375 C-0.02355469 1.27195313 -0.01195312 0.64546875 0 0 Z " fill="#000000" transform="translate(501,163)"/>
<path d="M0 0 C0.33 0.99 0.66 1.98 1 3 C0 4 0 4 -2.06640625 4.09765625 C-2.89011719 4.08605469 -3.71382813 4.07445312 -4.5625 4.0625 C-5.38878906 4.05347656 -6.21507812 4.04445313 -7.06640625 4.03515625 C-7.70449219 4.02355469 -8.34257812 4.01195312 -9 4 C-9 3.01 -9 2.02 -9 1 C-4.545 0.505 -4.545 0.505 0 0 Z " fill="#000000" transform="translate(293,732)"/>
<path d="M0 0 C3.3 0.33 6.6 0.66 10 1 C10 1.99 10 2.98 10 4 C6.7 3.67 3.4 3.34 0 3 C0 2.01 0 1.02 0 0 Z " fill="#000000" transform="translate(265,732)"/>
<path d="M0 0 C0.99 0 1.98 0 3 0 C2.01 2.97 1.02 5.94 0 9 C-1.32 9 -2.64 9 -4 9 C-2.68 6.03 -1.36 3.06 0 0 Z " fill="#000000" transform="translate(371,655)"/>
<path d="M0 0 C0.99 0 1.98 0 3 0 C2.01 3.3 1.02 6.6 0 10 C-0.99 10 -1.98 10 -3 10 C-2.01 6.7 -1.02 3.4 0 0 Z " fill="#000000" transform="translate(385,619)"/>
<path d="M0 0 C0.99 0 1.98 0 3 0 C2.54177532 3.46941546 2.10868317 6.67395049 1 10 C0.01 10 -0.98 10 -2 10 C-1.34 6.7 -0.68 3.4 0 0 Z " fill="#000000" transform="translate(419,505)"/>
<path d="M0 0 C0.99 0 1.98 0 3 0 C2.34 3.3 1.68 6.6 1 10 C0.01 10 -0.98 10 -2 10 C-1.54177532 6.53058454 -1.10868317 3.32604951 0 0 Z " fill="#000000" transform="translate(425,486)"/>
<path d="M0 0 C0.99 0.33 1.98 0.66 3 1 C2.01 3.97 1.02 6.94 0 10 C-0.99 10 -1.98 10 -3 10 C-2.69201674 8.51988629 -2.378482 7.04092675 -2.0625 5.5625 C-1.88847656 4.73878906 -1.71445312 3.91507812 -1.53515625 3.06640625 C-1 1 -1 1 0 0 Z " fill="#000000" transform="translate(437,448)"/>
<path d="M0 0 C0.99 0 1.98 0 3 0 C2.54177532 3.46941546 2.10868317 6.67395049 1 10 C0.01 10 -0.98 10 -2 10 C-1.34 6.7 -0.68 3.4 0 0 Z " fill="#000000" transform="translate(442,429)"/>
<path d="M0 0 C0.99 0 1.98 0 3 0 C3.33 3.3 3.66 6.6 4 10 C3.01 10.495 3.01 10.495 2 11 C0.80712589 7.12315913 0 4.08378077 0 0 Z " fill="#000000" transform="translate(118,424)"/>
<path d="M0 0 C0.99 0 1.98 0 3 0 C2.34 2.97 1.68 5.94 1 9 C-0.32 9.33 -1.64 9.66 -3 10 C-2.01 6.7 -1.02 3.4 0 0 Z " fill="#000000" transform="translate(454,391)"/>
<path d="M0 0 C0.66 0 1.32 0 2 0 C1.125 7.75 1.125 7.75 0 10 C-0.99 10 -1.98 10 -3 10 C-2.69201674 8.51988629 -2.378482 7.04092675 -2.0625 5.5625 C-1.88847656 4.73878906 -1.71445312 3.91507812 -1.53515625 3.06640625 C-1 1 -1 1 0 0 Z " fill="#000000" transform="translate(466,353)"/>
<path d="M0 0 C0.99 0 1.98 0 3 0 C2.34 3.3 1.68 6.6 1 10 C0.01 10 -0.98 10 -2 10 C-1.34 6.7 -0.68 3.4 0 0 Z " fill="#000000" transform="translate(471,334)"/>
<path d="M0 0 C0.99 0.33 1.98 0.66 3 1 C2.01 3.97 1.02 6.94 0 10 C-0.99 9.67 -1.98 9.34 -3 9 C-2.01 6.03 -1.02 3.06 0 0 Z " fill="#000000" transform="translate(487,278)"/>
<path d="M0 0 C0.66 0 1.32 0 2 0 C2 3.3 2 6.6 2 10 C1.01 10 0.02 10 -1 10 C-1.02689216 8.52093108 -1.04634621 7.04172517 -1.0625 5.5625 C-1.07410156 4.73878906 -1.08570313 3.91507813 -1.09765625 3.06640625 C-1 1 -1 1 0 0 Z " fill="#000000" transform="translate(501,202)"/>
<path d="M0 0 C0.99 0 1.98 0 3 0 C2.745504 1.48206495 2.47088238 2.96068615 2.1875 4.4375 C2.03667969 5.26121094 1.88585937 6.08492187 1.73046875 6.93359375 C1.48941406 7.61550781 1.24835938 8.29742188 1 9 C0.01 9.33 -0.98 9.66 -2 10 C-1.54177532 6.53058454 -1.10868317 3.32604951 0 0 Z " fill="#000000" transform="translate(402,562)"/>
<path d="M0 0 C0.99 0 1.98 0 3 0 C2.67 3.3 2.34 6.6 2 10 C1.01 10 0.02 10 -1 10 C-0.67 6.7 -0.34 3.4 0 0 Z " fill="#000000" transform="translate(502,183)"/>
<path d="M0 0 C0.66 0 1.32 0 2 0 C2 3.63 2 7.26 2 11 C1.34 11 0.68 11 0 11 C0 7.37 0 3.74 0 0 Z " fill="#000000" transform="translate(397,165)"/>
<path d="M0 0 C2.31 0 4.62 0 7 0 C6.67 0.99 6.34 1.98 6 3 C4.35 3 2.7 3 1 3 C0.67 2.01 0.34 1.02 0 0 Z " fill="#000000" transform="translate(534,301)"/>
<path d="M0 0 C0.99 0.33 1.98 0.66 3 1 C2.67 1.99 2.34 2.98 2 4 C1.01 3.01 0.02 2.02 -1 1 C-0.67 0.67 -0.34 0.34 0 0 Z " fill="#000000" transform="translate(280,870)"/>
<path d="M0 0 C0.99 0.33 1.98 0.66 3 1 C2.67 1.99 2.34 2.98 2 4 C1.01 3.01 0.02 2.02 -1 1 C-0.67 0.67 -0.34 0.34 0 0 Z " fill="#000000" transform="translate(551,385)"/>
<path d="M0 0 C0.99 0.33 1.98 0.66 3 1 C2.67 1.99 2.34 2.98 2 4 C1.01 3.01 0.02 2.02 -1 1 C-0.67 0.67 -0.34 0.34 0 0 Z " fill="#000000" transform="translate(440,16)"/>
</svg>
