<?xml version="1.0" standalone="no"?>
<!DOCTYPE svg PUBLIC "-//W3C//DTD SVG 20010904//EN"
 "http://www.w3.org/TR/2001/REC-SVG-20010904/DTD/svg10.dtd">
<svg version="1.0" xmlns="http://www.w3.org/2000/svg"
 width="790.000000pt" height="778.000000pt" viewBox="0 0 790.000000 778.000000"
 preserveAspectRatio="xMidYMid meet">

<g transform="translate(0.000000,778.000000) scale(0.100000,-0.100000)"
fill="#000000" stroke="none">
<path d="M1590 7770 c-154 -9 -266 -37 -388 -96 -106 -51 -198 -134 -244 -219
-68 -127 -143 -536 -163 -885 -20 -367 -46 -1182 -46 -1440 1 -343 16 -1098
31 -1565 15 -437 48 -878 105 -1391 57 -511 116 -716 246 -858 64 -70 135
-112 249 -148 67 -20 94 -23 250 -23 148 1 188 4 260 23 186 48 341 154 402
276 79 156 159 406 272 841 93 361 397 1371 525 1745 33 96 83 272 110 391
107 456 243 849 417 1199 141 282 254 426 367 468 67 26 189 29 250 8 133 -48
205 -190 228 -448 20 -226 1 -759 -41 -1168 -18 -178 -30 -425 -41 -880 -15
-656 10 -1230 67 -1510 48 -234 153 -442 377 -743 213 -287 440 -466 673 -531
217 -61 592 -92 760 -62 288 50 513 173 704 386 190 213 392 526 454 706 13
38 70 184 126 324 325 813 418 1306 320 1691 -47 181 -172 364 -295 427 -66
34 -208 42 -306 18 -264 -66 -428 -251 -585 -658 -56 -146 -83 -264 -110 -478
-55 -441 -132 -690 -257 -826 -69 -76 -118 -97 -216 -93 -100 5 -144 32 -188
115 -42 80 -61 158 -74 311 -15 179 -8 364 66 1641 68 1166 71 1255 55 1522
-15 228 -35 355 -80 495 -21 66 -57 182 -79 259 -48 161 -97 267 -176 385
-194 290 -422 495 -656 591 -193 80 -475 124 -794 124 -356 0 -536 -52 -800
-229 -189 -127 -564 -449 -649 -556 -121 -153 -240 -392 -337 -679 -50 -148
-63 -219 -132 -695 -13 -88 -15 -94 -16 -45 -1 95 27 689 65 1349 28 501 34
642 25 672 -6 21 -34 62 -61 92 -86 94 -221 149 -408 167 -59 5 -114 9 -122 8
-8 0 -71 -4 -140 -8z m367 -66 c148 -30 268 -106 307 -192 17 -37 16 -63 -19
-663 -36 -619 -92 -1822 -102 -2201 l-6 -198 25 0 25 0 7 208 c4 114 13 243
21 287 8 44 42 276 75 515 33 239 69 485 80 545 23 133 106 366 195 553 130
271 188 344 451 567 477 405 634 485 1005 516 217 18 606 -19 806 -77 261 -75
471 -240 705 -552 81 -108 170 -292 214 -442 20 -69 54 -180 75 -248 50 -155
65 -259 80 -530 14 -263 14 -256 -62 -1542 -83 -1402 -84 -1655 -9 -1852 52
-136 140 -200 275 -200 98 0 163 30 237 111 134 145 215 399 273 854 27 216
49 315 102 457 44 119 131 294 190 382 111 168 297 268 498 268 155 -1 247
-74 350 -280 76 -152 103 -333 85 -561 -28 -350 -122 -681 -360 -1274 -40 -99
-87 -222 -106 -272 -41 -113 -67 -165 -150 -301 -202 -330 -423 -566 -622
-663 -285 -139 -518 -159 -967 -83 -235 39 -416 142 -605 341 -142 150 -339
431 -432 618 -139 279 -176 658 -165 1710 6 561 12 679 47 1075 41 457 52 886
30 1100 -25 237 -94 374 -222 446 -50 27 -59 29 -168 29 -110 0 -118 -1 -183
-33 -113 -56 -220 -193 -348 -445 -182 -358 -324 -758 -434 -1226 -31 -129
-87 -328 -129 -453 -153 -459 -420 -1346 -517 -1723 -108 -418 -188 -664 -262
-812 -53 -104 -194 -199 -362 -245 -66 -17 -109 -21 -245 -22 -185 -1 -236 8
-346 60 -130 61 -208 172 -268 380 -59 206 -121 720 -170 1424 -25 350 -56
1511 -56 2085 0 299 43 1444 60 1610 27 254 84 543 128 645 64 148 240 264
459 304 112 20 413 20 510 0z"/>
<path d="M1460 7274 c-218 -79 -279 -349 -116 -508 26 -24 66 -52 91 -62 41
-15 45 -20 45 -50 0 -19 5 -34 10 -34 6 0 10 13 10 29 0 28 1 28 68 33 84 6
148 34 202 88 63 63 85 119 85 215 0 60 -6 91 -21 125 -26 57 -92 122 -151
151 -60 29 -162 35 -223 13z"/>
<path d="M3948 7023 c-22 -3 -38 -10 -38 -17 0 -16 82 -6 88 12 2 6 0 11 -5
10 -4 -1 -25 -3 -45 -5z"/>
<path d="M4100 7022 c0 -11 88 -27 98 -18 10 10 -3 16 -51 22 -30 4 -47 3 -47
-4z"/>
<path d="M4300 6992 c0 -6 20 -17 45 -25 45 -16 66 -4 23 12 -51 19 -68 22
-68 13z"/>
<path d="M3758 6973 c-41 -16 -53 -39 -15 -27 50 15 67 24 67 34 0 13 -7 12
-52 -7z"/>
<path d="M4480 6920 c0 -8 70 -50 85 -50 17 0 0 19 -34 38 -43 25 -51 26 -51
12z"/>
<path d="M3583 6866 c-21 -20 -33 -36 -27 -36 18 0 86 58 75 65 -6 3 -27 -10
-48 -29z"/>
<path d="M4646 6822 c-6 -9 57 -62 75 -62 8 0 8 4 -1 15 -22 26 -68 56 -74 47z"/>
<path d="M3447 6732 c-35 -37 -36 -64 -1 -31 29 27 49 59 36 59 -4 0 -20 -13
-35 -28z"/>
<path d="M4797 6694 c-7 -12 48 -77 61 -73 6 2 -4 21 -22 43 -18 21 -36 35
-39 30z"/>
<path d="M3326 6568 c-25 -41 -27 -56 -8 -44 18 11 51 75 42 81 -5 3 -20 -14
-34 -37z"/>
<path d="M4920 6534 c0 -13 42 -74 51 -74 13 0 11 9 -12 46 -18 30 -39 45 -39
28z"/>
<path d="M1480 6470 c0 -27 5 -50 10 -50 6 0 10 23 10 50 0 28 -4 50 -10 50
-5 0 -10 -22 -10 -50z"/>
<path d="M3220 6390 c-22 -43 -24 -50 -12 -50 7 0 52 73 52 84 0 19 -23 0 -40
-34z"/>
<path d="M5020 6365 c0 -18 42 -85 50 -80 12 7 -26 85 -40 85 -6 0 -10 -2 -10
-5z"/>
<path d="M1480 6270 c0 -27 5 -50 10 -50 6 0 10 23 10 50 0 28 -4 50 -10 50
-5 0 -10 -22 -10 -50z"/>
<path d="M3140 6235 c-6 -15 -15 -35 -20 -45 -6 -10 -6 -21 -2 -24 5 -3 18 15
30 39 13 26 17 47 12 50 -6 4 -15 -6 -20 -20z"/>
<path d="M5107 6193 c-7 -11 10 -71 23 -86 17 -19 17 10 0 52 -9 24 -20 39
-23 34z"/>
<path d="M1480 6070 c0 -27 5 -50 10 -50 6 0 10 23 10 50 0 28 -4 50 -10 50
-5 0 -10 -22 -10 -50z"/>
<path d="M3047 6035 c-19 -40 -21 -55 -8 -55 7 0 41 70 41 85 0 17 -19 0 -33
-30z"/>
<path d="M5160 5998 c0 -28 22 -88 31 -88 6 0 8 8 5 18 -2 9 -7 32 -11 50 -6
31 -25 46 -25 20z"/>
<path d="M1480 5870 c0 -27 5 -50 10 -50 6 0 10 23 10 50 0 28 -4 50 -10 50
-5 0 -10 -22 -10 -50z"/>
<path d="M2968 5845 c-21 -56 -6 -70 16 -15 18 45 20 60 8 60 -4 0 -15 -20
-24 -45z"/>
<path d="M5205 5773 c7 -50 11 -60 21 -51 9 10 -7 98 -18 98 -7 0 -8 -18 -3
-47z"/>
<path d="M1480 5670 c0 -27 5 -50 10 -50 6 0 10 23 10 50 0 28 -4 50 -10 50
-5 0 -10 -22 -10 -50z"/>
<path d="M2902 5673 c-5 -16 -13 -36 -17 -45 -4 -11 -3 -18 4 -18 11 0 19 16
35 68 10 32 -10 27 -22 -5z"/>
<path d="M5220 5608 c0 -34 14 -88 21 -88 10 0 12 44 3 78 -7 23 -24 31 -24
10z"/>
<path d="M1480 5470 c0 -27 5 -50 10 -50 6 0 10 23 10 50 0 28 -4 50 -10 50
-5 0 -10 -22 -10 -50z"/>
<path d="M2827 5465 c-16 -45 -4 -66 12 -22 19 50 22 67 13 67 -6 0 -17 -20
-25 -45z"/>
<path d="M5230 5380 c0 -27 5 -50 10 -50 6 0 10 23 10 50 0 28 -4 50 -10 50
-5 0 -10 -22 -10 -50z"/>
<path d="M2770 5305 c-18 -47 -22 -75 -12 -75 14 0 43 88 31 95 -5 4 -13 -6
-19 -20z"/>
<path d="M1480 5270 c0 -27 5 -50 10 -50 6 0 10 23 10 50 0 28 -4 50 -10 50
-5 0 -10 -22 -10 -50z"/>
<path d="M5220 5180 c0 -27 5 -50 10 -50 6 0 10 23 10 50 0 28 -4 50 -10 50
-5 0 -10 -22 -10 -50z"/>
<path d="M2701 5093 c-13 -46 -13 -53 -3 -53 5 0 14 17 20 39 14 47 15 51 2
51 -5 0 -14 -17 -19 -37z"/>
<path d="M1480 5070 c0 -27 5 -50 10 -50 6 0 10 23 10 50 0 28 -4 50 -10 50
-5 0 -10 -22 -10 -50z"/>
<path d="M5198 4984 c-3 -48 8 -71 16 -32 13 61 13 78 1 78 -8 0 -14 -18 -17
-46z"/>
<path d="M2641 4909 c-13 -39 -14 -59 -2 -59 5 0 12 12 15 28 4 15 9 35 12 45
9 31 -14 18 -25 -14z"/>
<path d="M1480 4870 c0 -27 5 -50 10 -50 6 0 10 23 10 50 0 28 -4 50 -10 50
-5 0 -10 -22 -10 -50z"/>
<path d="M5174 4785 c-6 -41 -1 -66 10 -54 11 11 17 99 8 99 -6 0 -14 -20 -18
-45z"/>
<path d="M2581 4713 c-13 -46 -13 -53 -3 -53 5 0 14 17 20 39 14 47 15 51 2
51 -5 0 -14 -17 -19 -37z"/>
<path d="M1480 4670 c0 -27 5 -50 10 -50 6 0 10 23 10 50 0 28 -4 50 -10 50
-5 0 -10 -22 -10 -50z"/>
<path d="M5156 4614 c-10 -25 -7 -84 4 -84 6 0 10 12 10 28 0 15 3 37 6 50 7
25 -11 31 -20 6z"/>
<path d="M2522 4521 c-14 -46 -15 -61 -3 -61 5 0 14 20 20 44 13 54 13 56 3
56 -5 0 -14 -17 -20 -39z"/>
<path d="M1480 4470 c0 -27 5 -50 10 -50 6 0 10 23 10 50 0 28 -4 50 -10 50
-5 0 -10 -22 -10 -50z"/>
<path d="M5134 4385 c-6 -42 -1 -66 11 -53 11 11 17 98 7 98 -6 0 -14 -20 -18
-45z"/>
<path d="M2471 4347 c-19 -49 -24 -77 -12 -77 12 0 34 75 28 93 -3 7 -10 -1
-16 -16z"/>
<path d="M1480 4270 c0 -27 5 -50 10 -50 6 0 10 23 10 50 0 28 -4 50 -10 50
-5 0 -10 -22 -10 -50z"/>
<path d="M5128 4224 c-5 -4 -8 -30 -8 -58 0 -35 3 -47 11 -39 5 5 9 32 7 58
-2 26 -6 43 -10 39z"/>
<path d="M2420 4178 c0 -2 -7 -25 -15 -51 -11 -36 -11 -47 -2 -44 15 5 39 85
26 92 -5 4 -9 5 -9 3z"/>
<path d="M1480 4070 c0 -27 5 -50 10 -50 6 0 10 23 10 50 0 28 -4 50 -10 50
-5 0 -10 -22 -10 -50z"/>
<path d="M5110 3970 c0 -27 5 -50 10 -50 6 0 10 23 10 50 0 28 -4 50 -10 50
-5 0 -10 -22 -10 -50z"/>
<path d="M2351 3943 c-13 -46 -13 -53 -2 -53 5 0 12 12 15 28 4 15 9 35 12 45
3 9 1 17 -5 17 -5 0 -15 -17 -20 -37z"/>
<path d="M1480 3870 c0 -27 5 -50 10 -50 6 0 10 23 10 50 0 28 -4 50 -10 50
-5 0 -10 -22 -10 -50z"/>
<path d="M5100 3770 c0 -27 5 -50 10 -50 6 0 10 23 10 50 0 28 -4 50 -10 50
-5 0 -10 -22 -10 -50z"/>
<path d="M2291 3746 c-13 -54 -13 -56 -3 -56 9 0 32 66 32 89 0 28 -19 7 -29
-33z"/>
<path d="M1480 3670 c0 -27 5 -50 10 -50 6 0 10 23 10 50 0 28 -4 50 -10 50
-5 0 -10 -22 -10 -50z"/>
<path d="M5097 3613 c-11 -10 -8 -103 3 -103 6 0 10 25 10 55 0 56 -1 60 -13
48z"/>
<path d="M2246 3588 c-3 -7 -9 -28 -15 -47 -13 -41 -13 -41 -2 -41 7 0 41 80
41 97 0 9 -21 1 -24 -9z"/>
<path d="M1480 3475 c0 -30 5 -55 10 -55 6 0 10 25 10 55 0 30 -4 55 -10 55
-5 0 -10 -25 -10 -55z"/>
<path d="M7295 3459 c-4 -11 -4 -23 0 -27 7 -7 25 17 25 36 0 20 -18 14 -25
-9z"/>
<path d="M2190 3410 c0 -3 -7 -27 -15 -53 -10 -34 -11 -47 -3 -45 18 6 40 80
28 92 -5 5 -10 8 -10 6z"/>
<path d="M5090 3360 c0 -27 5 -50 10 -50 6 0 10 23 10 50 0 28 -4 50 -10 50
-5 0 -10 -22 -10 -50z"/>
<path d="M1480 3275 c0 -30 5 -55 10 -55 6 0 10 25 10 55 0 30 -4 55 -10 55
-5 0 -10 -25 -10 -55z"/>
<path d="M7266 3313 c-13 -49 -17 -83 -8 -83 8 0 32 72 32 94 0 14 -19 4 -24
-11z"/>
<path d="M2117 3165 c-13 -36 -13 -45 -3 -45 8 0 16 12 19 28 3 15 9 35 12 45
4 9 3 17 -3 17 -6 0 -17 -20 -25 -45z"/>
<path d="M5090 3160 c0 -27 5 -50 10 -50 6 0 10 23 10 50 0 28 -4 50 -10 50
-5 0 -10 -22 -10 -50z"/>
<path d="M1480 3080 c0 -27 5 -50 10 -50 6 0 10 23 10 50 0 28 -4 50 -10 50
-5 0 -10 -22 -10 -50z"/>
<path d="M7213 3080 c-6 -27 -7 -50 -2 -50 12 0 18 13 25 58 10 61 -11 53 -23
-8z"/>
<path d="M2057 2975 c-13 -36 -13 -45 -2 -45 7 0 16 12 19 28 4 15 9 35 12 45
3 9 1 17 -4 17 -6 0 -17 -20 -25 -45z"/>
<path d="M5091 2968 c1 -44 13 -76 23 -59 10 15 -3 91 -15 91 -5 0 -9 -15 -8
-32z"/>
<path d="M1480 2880 c0 -27 5 -50 10 -50 6 0 10 23 10 50 0 28 -4 50 -10 50
-5 0 -10 -22 -10 -50z"/>
<path d="M7171 2908 c-17 -46 -21 -78 -11 -78 5 0 10 1 10 3 0 1 7 23 15 50
14 47 2 69 -14 25z"/>
<path d="M1997 2785 c-9 -24 -12 -47 -7 -50 4 -3 15 16 24 42 19 55 19 53 7
53 -5 0 -16 -20 -24 -45z"/>
<path d="M5100 2756 c0 -25 5 -48 11 -51 16 -10 18 -4 12 48 -7 59 -23 62 -23
3z"/>
<path d="M7112 2702 c-14 -47 -15 -62 -3 -62 12 0 32 83 22 93 -4 4 -13 -10
-19 -31z"/>
<path d="M1480 2680 c0 -27 5 -50 10 -50 6 0 10 23 10 50 0 28 -4 50 -10 50
-5 0 -10 -22 -10 -50z"/>
<path d="M1941 2618 c-19 -51 -22 -68 -13 -68 6 0 17 20 25 45 16 45 4 66 -12
23z"/>
<path d="M5118 2594 c-8 -14 3 -94 13 -94 11 0 11 71 0 89 -5 7 -11 9 -13 5z"/>
<path d="M7046 2493 c-19 -55 -19 -53 -7 -53 5 0 16 21 25 47 19 55 19 53 7
53 -5 0 -16 -21 -25 -47z"/>
<path d="M1480 2480 c0 -27 5 -50 10 -50 6 0 10 23 10 50 0 28 -4 50 -10 50
-5 0 -10 -22 -10 -50z"/>
<path d="M1867 2405 c-19 -53 -3 -62 19 -10 16 40 18 55 5 55 -5 0 -16 -20
-24 -45z"/>
<path d="M5137 2348 c7 -56 23 -73 23 -26 0 41 -8 68 -20 68 -5 0 -6 -19 -3
-42z"/>
<path d="M6976 2303 c-19 -54 -18 -53 -7 -53 4 0 16 19 25 43 18 49 19 57 7
57 -5 0 -16 -21 -25 -47z"/>
<path d="M1480 2280 c0 -27 5 -50 10 -50 6 0 10 23 10 50 0 28 -4 50 -10 50
-5 0 -10 -22 -10 -50z"/>
<path d="M1798 2215 c-13 -35 -14 -45 -4 -45 7 0 18 17 24 39 14 45 15 51 4
51 -4 0 -15 -20 -24 -45z"/>
<path d="M5166 2148 c8 -52 24 -74 24 -32 0 39 -10 74 -21 74 -5 0 -6 -19 -3
-42z"/>
<path d="M6898 2117 c-20 -48 -22 -57 -9 -57 7 0 41 75 41 93 0 20 -17 2 -32
-36z"/>
<path d="M1480 2080 c0 -27 5 -50 10 -50 6 0 10 23 10 50 0 28 -4 50 -10 50
-5 0 -10 -22 -10 -50z"/>
<path d="M1732 2043 c-5 -16 -13 -36 -17 -45 -4 -11 -3 -18 4 -18 10 0 41 61
41 81 0 20 -19 7 -28 -18z"/>
<path d="M5200 1984 c0 -21 24 -94 31 -94 12 0 11 17 -2 63 -5 20 -14 37 -19
37 -6 0 -10 -3 -10 -6z"/>
<path d="M6807 1935 c-34 -71 -9 -64 29 8 12 22 12 27 1 27 -7 0 -21 -16 -30
-35z"/>
<path d="M1480 1880 c0 -27 5 -50 10 -50 6 0 10 23 10 50 0 28 -4 50 -10 50
-5 0 -10 -22 -10 -50z"/>
<path d="M1660 1864 c-6 -14 -15 -34 -20 -45 -8 -14 -7 -19 3 -19 7 0 19 17
27 38 8 20 16 40 18 45 2 4 -1 7 -7 7 -7 0 -16 -12 -21 -26z"/>
<path d="M5260 1793 c0 -18 34 -93 41 -93 12 0 11 8 -7 57 -14 37 -34 58 -34
36z"/>
<path d="M6707 1763 c-29 -46 -32 -53 -18 -53 14 0 53 68 49 82 -3 7 -17 -6
-31 -29z"/>
<path d="M1480 1680 c0 -27 5 -50 10 -50 6 0 10 23 10 50 0 28 -4 50 -10 50
-5 0 -10 -22 -10 -50z"/>
<path d="M1571 1664 c-24 -53 -24 -54 -13 -54 13 0 52 89 42 95 -5 3 -18 -15
-29 -41z"/>
<path d="M6580 1590 c-17 -22 -27 -40 -21 -40 12 0 70 60 71 73 0 18 -21 4
-50 -33z"/>
<path d="M5357 1613 c-6 -5 13 -36 50 -82 2 -2 6 -1 9 2 4 4 -6 25 -21 47 -31
44 -29 43 -38 33z"/>
<path d="M1480 1505 c0 -29 15 -33 29 -6 11 20 5 31 -16 31 -7 0 -13 -11 -13
-25z"/>
<path d="M6443 1450 c-47 -42 -41 -58 7 -20 37 29 51 50 33 50 -5 0 -23 -14
-40 -30z"/>
<path d="M5487 1454 c-7 -8 57 -64 73 -64 10 0 10 3 0 15 -20 24 -67 55 -73
49z"/>
<path d="M6270 1332 c-32 -19 -40 -28 -27 -30 21 -4 89 36 81 49 -3 5 -6 9 -7
8 -1 -1 -22 -13 -47 -27z"/>
<path d="M5650 1330 c0 -10 22 -24 64 -40 42 -15 31 7 -14 30 -45 23 -50 24
-50 10z"/>
<path d="M6088 1266 c-60 -12 -64 -31 -5 -22 38 6 67 21 56 29 -2 1 -25 -2
-51 -7z"/>
<path d="M5840 1260 c0 -12 27 -20 68 -20 21 0 32 4 27 9 -13 11 -95 21 -95
11z"/>
<path d="M466 6258 c-34 -315 -66 -1061 -66 -1558 0 -712 48 -1284 136 -1632
13 -53 24 -100 24 -103 0 -4 -11 0 -25 9 -26 17 -45 21 -45 8 0 -8 90 -56 94
-50 19 27 46 78 46 87 0 22 -18 10 -30 -20 -17 -41 -22 -31 -55 116 -130 578
-159 1647 -80 2860 8 127 18 254 21 283 4 33 3 52 -4 52 -6 0 -13 -24 -16 -52z"/>
<path d="M3973 5883 c-132 -90 -315 -427 -507 -930 -50 -133 -52 -143 -33
-143 7 0 28 42 46 93 146 396 328 762 444 892 78 88 129 106 167 58 50 -64 74
-169 91 -398 10 -143 6 -681 -5 -693 -3 -2 -20 14 -39 35 -25 26 -39 35 -46
28 -7 -7 6 -29 43 -70 l53 -59 39 31 c21 17 49 42 62 56 36 38 8 44 -34 8 -19
-17 -36 -31 -37 -31 -1 0 -2 170 -2 378 -1 308 -4 396 -18 481 -24 146 -46
209 -88 253 -44 47 -79 49 -136 11z"/>
<path d="M3719 4889 l-24 -20 23 6 c21 6 22 4 22 -54 0 -34 4 -61 10 -61 12 0
13 137 1 144 -5 3 -20 -3 -32 -15z"/>
<path d="M3868 4899 c-10 -5 -18 -17 -18 -26 0 -15 2 -15 13 1 14 19 48 19 54
0 2 -6 -15 -34 -37 -63 l-40 -51 50 0 c32 0 49 4 45 10 -3 6 -17 10 -31 10
l-25 0 25 33 c28 37 33 66 14 85 -14 14 -27 15 -50 1z"/>
<path d="M3790 4770 c0 -5 5 -10 10 -10 6 0 10 5 10 10 0 6 -4 10 -10 10 -5 0
-10 -4 -10 -10z"/>
<path d="M29 4529 l-24 -20 23 6 c21 6 22 4 22 -54 0 -34 4 -61 10 -61 12 0
13 137 1 144 -5 3 -20 -3 -32 -15z"/>
<path d="M150 4529 c-24 -20 -24 -20 -2 -14 21 6 22 4 22 -54 0 -34 4 -61 10
-61 12 0 14 136 2 144 -4 2 -19 -4 -32 -15z"/>
<path d="M100 4410 c0 -5 5 -10 10 -10 6 0 10 5 10 10 0 6 -4 10 -10 10 -5 0
-10 -4 -10 -10z"/>
<path d="M4363 1429 c8 -31 103 -178 192 -297 102 -138 312 -348 442 -445 253
-187 515 -293 790 -319 404 -39 836 123 1245 467 43 36 81 65 84 65 3 0 4 -21
2 -47 -2 -38 0 -48 12 -48 12 0 16 16 18 69 2 38 -1 72 -5 77 -4 4 -39 9 -78
11 -57 2 -70 0 -70 -12 0 -11 14 -16 50 -20 l50 -5 -95 -78 c-274 -226 -575
-379 -845 -430 -525 -100 -1059 123 -1483 618 -89 104 -264 353 -277 395 -9
28 -39 27 -32 -1z"/>
<path d="M5709 179 l-24 -20 23 6 c21 6 22 4 22 -54 0 -34 4 -61 10 -61 12 0
13 137 1 144 -5 3 -20 -3 -32 -15z"/>
<path d="M5858 189 c-10 -5 -18 -17 -18 -26 0 -15 2 -15 13 1 14 19 48 19 54
0 2 -6 -15 -34 -37 -63 l-40 -51 50 0 c32 0 49 4 45 10 -3 6 -17 10 -31 10
l-25 0 25 33 c28 37 33 66 14 85 -14 14 -27 15 -50 1z"/>
<path d="M5780 60 c0 -5 5 -10 10 -10 6 0 10 5 10 10 0 6 -4 10 -10 10 -5 0
-10 -4 -10 -10z"/>
</g>
</svg>
