<?xml version="1.0" standalone="no"?>
<!DOCTYPE svg PUBLIC "-//W3C//DTD SVG 20010904//EN"
 "http://www.w3.org/TR/2001/REC-SVG-20010904/DTD/svg10.dtd">
<svg version="1.0" xmlns="http://www.w3.org/2000/svg"
 width="665.000000pt" height="686.000000pt" viewBox="0 0 665.000000 686.000000"
 preserveAspectRatio="xMidYMid meet">

<g transform="translate(0.000000,686.000000) scale(0.100000,-0.100000)"
fill="#000000" stroke="none">
<path d="M1755 6848 c-210 -19 -387 -62 -500 -121 -69 -36 -189 -151 -229
-218 -87 -150 -153 -716 -187 -1604 -16 -442 -6 -2168 15 -2500 62 -965 131
-1595 203 -1845 23 -81 125 -276 180 -345 115 -143 278 -206 538 -209 152 -1
205 10 325 66 69 33 100 56 170 127 47 48 96 108 110 136 l26 51 -12 169 c-37
510 -74 1229 -73 1405 l0 115 35 -90 c116 -303 225 -504 372 -686 62 -77 413
-414 582 -559 213 -182 541 -343 865 -425 174 -44 273 -57 435 -57 341 0 733
144 1114 411 163 113 259 212 341 351 154 261 355 696 453 981 131 380 159
631 88 798 -13 31 -32 77 -41 104 -22 63 -88 159 -133 197 -70 58 -118 75
-213 74 -72 0 -94 -4 -141 -27 -30 -15 -63 -36 -72 -46 -10 -10 -35 -81 -57
-157 -42 -147 -72 -237 -139 -426 -61 -172 -348 -696 -513 -936 -71 -104 -164
-187 -229 -207 -122 -36 -483 -38 -685 -4 -116 19 -210 78 -403 251 -248 222
-352 341 -488 558 -60 96 -342 579 -345 592 -1 4 140 159 314 345 173 186 353
381 400 433 46 52 146 160 223 240 269 281 590 675 718 883 130 209 468 919
586 1232 49 128 55 285 16 431 -15 55 -30 117 -36 139 -12 54 -68 126 -153
198 -86 72 -188 123 -285 142 -87 17 -341 45 -353 38 -4 -3 -80 -149 -169
-326 -123 -247 -202 -388 -337 -607 -98 -157 -280 -467 -406 -690 -338 -601
-558 -938 -987 -1518 l-358 -484 0 79 c0 43 9 798 21 1677 15 1233 17 1606 8
1628 -18 43 -130 143 -201 177 -115 56 -236 74 -393 59z m260 -63 c96 -25 165
-64 234 -132 l63 -64 -6 -342 c-12 -625 -37 -2900 -34 -3033 l3 -131 400 540
c478 647 682 958 1042 1597 133 234 312 540 400 681 112 179 209 353 324 578
l164 323 80 -6 c187 -15 287 -35 363 -73 83 -41 193 -130 235 -189 19 -27 40
-85 63 -175 33 -124 35 -142 31 -239 -6 -129 -23 -180 -147 -464 -200 -457
-394 -845 -505 -1011 -120 -180 -400 -524 -587 -723 -71 -75 -186 -200 -256
-276 -140 -154 -677 -732 -754 -812 l-48 -50 146 -255 c274 -475 353 -589 529
-763 249 -247 435 -392 544 -426 92 -29 243 -43 456 -43 309 0 375 21 501 156
98 106 296 431 489 802 67 127 100 208 163 395 43 129 90 275 102 324 21 79
27 90 60 112 86 57 225 52 311 -10 57 -42 122 -139 145 -217 16 -52 21 -59 43
-60 22 0 24 -2 10 -11 -15 -10 -15 -15 -1 -56 24 -73 11 -296 -27 -447 -84
-337 -323 -895 -530 -1240 -74 -123 -111 -168 -208 -246 -246 -202 -575 -370
-883 -452 -111 -30 -123 -31 -325 -31 -184 -1 -224 2 -318 22 -211 46 -446
132 -637 234 -198 105 -269 162 -613 486 -115 109 -238 233 -274 277 -152 188
-279 436 -394 770 -45 129 -51 140 -75 143 l-27 4 6 -339 c6 -334 16 -533 58
-1181 26 -393 30 -371 -91 -493 -151 -152 -309 -204 -546 -180 -207 21 -331
77 -419 189 -65 82 -160 281 -185 385 -66 277 -142 1014 -185 1797 -18 325
-22 2394 -5 2715 38 736 93 1181 162 1325 36 73 151 181 238 223 178 85 554
133 715 92z"/>
<path d="M4867 6453 c-4 -3 -7 -16 -7 -27 1 -21 1 -21 15 -2 8 11 15 23 15 28
0 10 -14 11 -23 1z"/>
<path d="M1460 6359 c0 -4 -16 -16 -35 -25 -48 -23 -109 -86 -137 -142 -32
-65 -32 -186 -1 -253 27 -60 92 -125 149 -150 38 -17 44 -24 44 -49 0 -17 5
-30 10 -30 6 0 10 11 10 24 0 22 4 24 73 28 89 6 151 32 207 88 63 63 85 119
85 215 0 96 -21 150 -84 212 -68 67 -120 88 -228 89 -51 1 -93 -2 -93 -7z"/>
<path d="M4802 6293 c-5 -16 -13 -36 -17 -45 -4 -11 -3 -18 4 -18 10 0 41 61
41 81 0 20 -19 7 -28 -18z"/>
<path d="M4727 6104 c-19 -38 -23 -74 -8 -58 17 16 41 83 33 88 -5 3 -16 -11
-25 -30z"/>
<path d="M4647 5915 c-19 -40 -21 -55 -8 -55 5 0 14 12 19 28 5 15 13 35 17
45 13 33 -11 17 -28 -18z"/>
<path d="M4567 5735 c-19 -39 -21 -55 -9 -55 4 0 14 17 22 38 8 20 16 40 18
45 2 4 0 7 -5 7 -5 0 -17 -16 -26 -35z"/>
<path d="M1490 5560 c0 -27 5 -50 10 -50 6 0 10 23 10 50 0 28 -4 50 -10 50
-5 0 -10 -22 -10 -50z"/>
<path d="M4480 5549 c-20 -39 -20 -64 -1 -43 16 16 40 84 31 84 -5 0 -19 -18
-30 -41z"/>
<path d="M1497 5403 c-7 -14 5 -93 14 -93 12 0 12 87 0 95 -5 3 -11 2 -14 -2z"/>
<path d="M4400 5384 c-6 -14 -15 -34 -20 -45 -7 -13 -7 -19 -1 -19 9 0 51 70
51 85 0 16 -22 1 -30 -21z"/>
<path d="M4300 5191 c-11 -23 -16 -42 -10 -46 8 -5 50 62 50 80 0 18 -23 -1
-40 -34z"/>
<path d="M1508 5204 c-11 -11 -10 -92 1 -99 5 -3 12 -2 14 2 7 13 -8 105 -15
97z"/>
<path d="M4210 5020 c-22 -44 -24 -50 -12 -50 8 0 52 71 52 84 0 19 -22 0 -40
-34z"/>
<path d="M1510 4950 c0 -27 5 -50 10 -50 6 0 10 23 10 50 0 28 -4 50 -10 50
-5 0 -10 -22 -10 -50z"/>
<path d="M4110 4841 c-26 -52 -10 -62 18 -12 25 43 26 51 12 51 -5 0 -19 -18
-30 -39z"/>
<path d="M1520 4750 c0 -27 5 -50 10 -50 6 0 10 23 10 50 0 28 -4 50 -10 50
-5 0 -10 -22 -10 -50z"/>
<path d="M4012 4671 c-13 -22 -19 -42 -14 -45 8 -5 52 62 52 78 0 18 -19 1
-38 -33z"/>
<path d="M1526 4591 c-10 -15 3 -91 15 -91 11 0 11 57 0 84 -5 14 -10 16 -15
7z"/>
<path d="M3910 4505 c-12 -19 -20 -41 -18 -47 4 -11 58 62 58 77 0 16 -21 0
-40 -30z"/>
<path d="M1537 4393 c-11 -10 -8 -91 3 -98 6 -4 10 15 10 49 0 57 -1 61 -13
49z"/>
<path d="M3803 4335 c-25 -38 -27 -45 -14 -45 9 0 51 61 51 74 0 16 -17 3 -37
-29z"/>
<path d="M3696 4177 c-15 -20 -26 -42 -24 -48 2 -7 16 3 32 24 15 20 26 42 24
48 -2 7 -16 -3 -32 -24z"/>
<path d="M1540 4140 c0 -27 5 -50 10 -50 6 0 10 23 10 50 0 28 -4 50 -10 50
-5 0 -10 -22 -10 -50z"/>
<path d="M3576 4008 c-31 -43 -27 -68 5 -28 30 38 40 58 31 63 -4 3 -20 -13
-36 -35z"/>
<path d="M1550 3940 c0 -27 5 -50 10 -50 6 0 10 23 10 50 0 28 -4 50 -10 50
-5 0 -10 -22 -10 -50z"/>
<path d="M3456 3848 c-31 -43 -27 -68 5 -28 30 38 40 58 31 63 -4 3 -20 -13
-36 -35z"/>
<path d="M1558 3784 c-12 -11 -9 -82 3 -89 17 -11 20 0 12 50 -4 26 -11 43
-15 39z"/>
<path d="M3343 3707 c-41 -47 -47 -57 -32 -56 18 1 72 66 61 73 -5 3 -18 -5
-29 -17z"/>
<path d="M1567 3583 c-11 -10 -8 -103 3 -103 6 0 10 25 10 55 0 56 -1 60 -13
48z"/>
<path d="M3200 3540 c-18 -23 -26 -40 -18 -39 18 1 71 66 59 73 -5 3 -24 -12
-41 -34z"/>
<path d="M3068 3396 c-39 -48 -35 -57 7 -16 19 19 35 38 35 42 0 17 -16 7 -42
-26z"/>
<path d="M1570 3330 c0 -27 5 -50 10 -50 6 0 10 23 10 50 0 28 -4 50 -10 50
-5 0 -10 -22 -10 -50z"/>
<path d="M2925 3257 c-22 -19 -34 -36 -28 -40 10 -7 80 59 71 68 -2 3 -22 -10
-43 -28z"/>
<path d="M1573 3150 c4 -18 7 -41 7 -51 0 -11 5 -19 11 -19 16 0 7 93 -10 98
-11 4 -13 -3 -8 -28z"/>
<path d="M2780 3125 c-44 -46 -34 -54 15 -12 22 19 34 36 28 40 -5 3 -25 -9
-43 -28z"/>
<path d="M2627 3003 c-35 -25 -47 -43 -29 -43 13 0 77 58 71 64 -3 3 -22 -6
-42 -21z"/>
<path d="M1580 2932 c0 -47 6 -66 19 -58 9 6 0 106 -10 106 -5 0 -9 -22 -9
-48z"/>
<path d="M2455 2883 c-21 -15 -34 -28 -28 -30 13 -5 83 38 83 50 0 13 -14 8
-55 -20z"/>
<path d="M2450 2824 c0 -15 22 -44 31 -39 11 7 -7 45 -21 45 -6 0 -10 -3 -10
-6z"/>
<path d="M6225 2809 c-4 -11 -4 -23 0 -27 7 -7 25 17 25 36 0 20 -18 14 -25
-9z"/>
<path d="M2290 2789 c-43 -26 -45 -28 -38 -35 8 -8 88 34 88 46 0 15 -11 12
-50 -11z"/>
<path d="M1590 2720 c0 -27 5 -50 10 -50 6 0 10 23 10 50 0 28 -4 50 -10 50
-5 0 -10 -22 -10 -50z"/>
<path d="M2103 2704 c-50 -21 -39 -35 12 -16 25 9 45 20 45 24 0 11 -20 9 -57
-8z"/>
<path d="M2517 2693 c-3 -5 5 -28 17 -52 14 -26 26 -39 30 -33 4 6 -3 29 -14
52 -21 41 -25 45 -33 33z"/>
<path d="M6196 2672 c-2 -4 -7 -24 -11 -45 -10 -53 9 -47 22 8 9 39 3 60 -11
37z"/>
<path d="M1926 2651 c-16 -3 -31 -12 -34 -19 -2 -6 2 -10 10 -8 7 2 25 7 41
10 15 4 27 11 27 16 0 11 0 11 -44 1z"/>
<path d="M1620 2640 c0 -5 9 -10 20 -10 11 0 20 5 20 10 0 6 -9 10 -20 10 -11
0 -20 -4 -20 -10z"/>
<path d="M1735 2630 c3 -5 22 -10 41 -10 19 0 34 5 34 10 0 6 -18 10 -41 10
-24 0 -38 -4 -34 -10z"/>
<path d="M1600 2520 c0 -27 5 -50 10 -50 6 0 10 23 10 50 0 28 -4 50 -10 50
-5 0 -10 -22 -10 -50z"/>
<path d="M2600 2514 c0 -11 45 -84 53 -84 12 0 8 17 -14 54 -18 31 -39 47 -39
30z"/>
<path d="M6141 2453 c-13 -46 -13 -53 -2 -53 5 0 12 12 15 28 4 15 9 35 12 45
3 9 1 17 -5 17 -5 0 -15 -17 -20 -37z"/>
<path d="M1603 2325 c2 -26 7 -49 11 -52 13 -13 18 8 12 52 -9 60 -30 60 -23
0z"/>
<path d="M2700 2344 c0 -13 44 -84 52 -84 12 0 10 9 -14 51 -19 34 -38 51 -38
33z"/>
<path d="M6091 2278 c-19 -51 -22 -68 -13 -68 6 0 17 20 25 45 16 45 4 66 -12
23z"/>
<path d="M2810 2172 c0 -18 38 -72 51 -72 15 0 10 13 -21 50 -16 19 -30 29
-30 22z"/>
<path d="M1610 2121 c0 -28 5 -53 10 -56 6 -4 10 15 10 49 0 31 -4 56 -10 56
-5 0 -10 -22 -10 -49z"/>
<path d="M6022 2071 c-14 -46 -15 -51 -4 -51 5 0 14 17 20 39 14 46 15 51 4
51 -5 0 -14 -17 -20 -39z"/>
<path d="M2920 2012 c0 -16 52 -82 60 -77 5 3 -3 23 -18 45 -25 37 -42 50 -42
32z"/>
<path d="M1620 1910 c0 -27 5 -50 10 -50 6 0 10 23 10 50 0 28 -4 50 -10 50
-5 0 -10 -22 -10 -50z"/>
<path d="M5951 1888 c-18 -42 -17 -77 1 -44 23 42 38 86 28 86 -6 0 -19 -19
-29 -42z"/>
<path d="M3040 1850 c0 -14 57 -76 64 -69 3 3 -6 22 -21 42 -28 36 -43 46 -43
27z"/>
<path d="M1624 1744 c3 -9 6 -31 6 -50 0 -19 5 -34 10 -34 6 0 10 23 10 50 0
39 -3 50 -16 50 -11 0 -14 -5 -10 -16z"/>
<path d="M5870 1709 c-12 -23 -19 -44 -16 -47 9 -9 23 9 41 51 21 50 1 47 -25
-4z"/>
<path d="M3167 1703 c-7 -11 60 -80 69 -71 3 4 -10 23 -29 44 -18 20 -37 33
-40 27z"/>
<path d="M5777 1533 c-22 -38 -23 -43 -9 -43 12 0 55 80 43 80 -7 0 -22 -17
-34 -37z"/>
<path d="M1630 1510 c0 -39 3 -50 16 -50 12 0 15 6 10 23 -3 12 -6 34 -6 50 0
15 -4 27 -10 27 -5 0 -10 -22 -10 -50z"/>
<path d="M3300 1552 c0 -14 59 -66 67 -59 3 4 -6 21 -22 37 -28 30 -45 38 -45
22z"/>
<path d="M3440 1417 c0 -17 67 -71 74 -59 2 4 -13 22 -35 40 -25 22 -39 28
-39 19z"/>
<path d="M5672 1370 c-22 -30 -28 -50 -14 -50 7 0 52 65 52 75 0 14 -19 2 -38
-25z"/>
<path d="M1640 1311 c0 -28 5 -53 10 -56 6 -4 10 15 10 49 0 31 -4 56 -10 56
-5 0 -10 -22 -10 -49z"/>
<path d="M3586 1292 c-3 -5 12 -23 34 -41 21 -17 41 -27 44 -22 4 5 -12 23
-33 40 -22 17 -42 28 -45 23z"/>
<path d="M5551 1216 c-19 -20 -31 -39 -27 -43 9 -9 69 52 65 66 -3 7 -19 -4
-38 -23z"/>
<path d="M3770 1140 c34 -28 60 -38 60 -22 0 10 -67 52 -82 52 -7 0 3 -14 22
-30z"/>
<path d="M1650 1100 c0 -27 5 -50 10 -50 6 0 10 23 10 50 0 28 -4 50 -10 50
-5 0 -10 -22 -10 -50z"/>
<path d="M5412 1079 c-18 -17 -32 -34 -30 -40 2 -6 21 5 43 24 21 18 34 36 29
39 -5 4 -24 -7 -42 -23z"/>
<path d="M3910 1059 c0 -18 77 -62 85 -49 3 5 -5 14 -17 21 -13 7 -33 19 -45
27 -19 12 -23 12 -23 1z"/>
<path d="M5252 962 c-23 -16 -39 -31 -36 -35 9 -9 84 36 84 51 0 16 2 16 -48
-16z"/>
<path d="M4080 963 c0 -10 63 -43 80 -43 23 0 7 17 -27 30 -21 8 -41 16 -45
18 -5 2 -8 0 -8 -5z"/>
<path d="M1650 938 c0 -34 14 -88 21 -88 10 0 12 60 3 84 -7 19 -24 21 -24 4z"/>
<path d="M4260 882 c0 -9 66 -32 89 -32 25 0 8 18 -28 28 -46 14 -61 15 -61 4z"/>
<path d="M5067 872 c-21 -10 -35 -20 -32 -24 9 -8 95 21 95 33 0 13 -19 10
-63 -9z"/>
<path d="M4450 831 c0 -6 11 -13 25 -16 14 -3 36 -7 50 -10 28 -6 35 11 8 19
-52 14 -83 17 -83 7z"/>
<path d="M4868 823 c-31 -5 -38 -23 -9 -23 34 0 81 12 81 21 0 9 -22 10 -72 2z"/>
<path d="M4650 800 c0 -5 23 -10 50 -10 28 0 50 5 50 10 0 6 -22 10 -50 10
-27 0 -50 -4 -50 -10z"/>
<path d="M1660 700 c0 -27 5 -50 10 -50 6 0 10 23 10 50 0 28 -4 50 -10 50 -5
0 -10 -22 -10 -50z"/>
<path d="M1670 520 c0 -16 5 -30 10 -30 6 0 10 14 10 30 0 17 -4 30 -10 30 -5
0 -10 -13 -10 -30z"/>
<path d="M3645 5658 c-180 -437 -667 -1223 -894 -1443 l-41 -39 0 38 c0 22 -4
35 -10 31 -5 -3 -10 -28 -10 -56 l0 -49 56 0 c34 0 53 4 49 10 -3 6 -20 10
-37 10 l-31 0 49 53 c211 225 503 670 737 1125 131 256 199 412 179 412 -5 0
-26 -42 -47 -92z"/>
<path d="M616 5243 c-8 -84 -32 -520 -46 -833 -24 -540 -31 -773 -37 -1300 -8
-790 12 -1207 73 -1509 l7 -34 -24 16 c-13 9 -29 17 -36 17 -26 0 -12 -17 34
-39 50 -24 48 -25 79 32 22 42 11 58 -13 19 l-21 -34 -11 51 c-77 361 -91
1350 -36 2641 16 361 40 830 51 963 4 50 3 77 -4 77 -5 0 -13 -30 -16 -67z"/>
<path d="M3038 5289 c-10 -5 -18 -18 -18 -27 1 -16 1 -16 11 1 5 9 19 17 30
17 36 0 32 -28 -11 -80 l-42 -50 52 0 c31 0 49 4 45 10 -3 6 -17 10 -31 10
l-25 0 25 33 c28 37 33 66 14 85 -14 14 -27 15 -50 1z"/>
<path d="M29 3559 l-24 -20 23 6 c21 6 22 4 22 -54 0 -34 4 -61 10 -61 12 0
13 137 1 144 -5 3 -20 -3 -32 -15z"/>
<path d="M5465 2568 c-22 -12 -35 -23 -28 -25 7 -2 21 0 32 6 11 6 22 11 25
11 20 0 -109 -270 -178 -374 -99 -149 -242 -271 -372 -318 -82 -29 -227 -36
-314 -13 -197 51 -391 199 -564 433 -55 75 -76 95 -76 74 0 -11 106 -149 173
-225 124 -140 314 -265 462 -302 76 -19 205 -19 279 0 175 46 350 199 478 418
34 59 107 215 132 282 7 19 8 18 22 -7 13 -24 34 -38 34 -23 0 17 -42 85 -53
85 -6 -1 -30 -10 -52 -22z"/>
<path d="M4504 2526 c-10 -8 -15 -18 -11 -22 4 -5 12 -2 16 5 12 18 45 10 49
-12 3 -12 -4 -20 -18 -24 l-21 -6 23 -11 c27 -14 30 -35 6 -49 -13 -9 -22 -7
-39 8 -21 20 -21 20 -18 0 8 -39 89 -31 89 8 0 13 -5 28 -11 34 -8 8 -8 13 0
17 16 10 14 32 -5 50 -19 20 -35 20 -60 2z"/>
</g>
</svg>
