<?xml version="1.0" encoding="UTF-8"?>
<svg version="1.1" xmlns="http://www.w3.org/2000/svg" width="590" height="739">
<path d="M0 0 C11.70444476 3.71420592 22.88279951 6.61994341 35.09667969 7.87451172 C35.724151 7.94047546 36.35162231 8.00643921 36.99810791 8.07440186 C42.27774424 8.62735299 47.56089379 9.13422208 52.84667969 9.62451172 C53.58844452 9.69594391 54.33020935 9.7673761 55.0944519 9.8409729 C74.4933058 11.67596697 90.64825585 9.9237684 108.13305664 0.81347656 C121.14779827 -5.87100305 137.07679564 -9.99486325 151.57714844 -6.21923828 C154.84333729 -5.00173419 157.95886389 -3.64236607 161.09667969 -2.12548828 C162.06605469 -1.66787109 163.03542969 -1.21025391 164.03417969 -0.73876953 C173.51404437 4.0669952 182.41336182 10.51518022 186.09667969 20.87451172 C187.62517495 28.74899179 184.61235205 34.95006283 180.43652344 41.46435547 C176.86329173 46.57840578 172.93523886 51.21650283 168.65917969 55.74951172 C157.59690994 67.53199125 150.31278632 81.225909 143.28417969 95.62451172 C140.66366828 100.93693812 137.71868891 106.0195485 134.72167969 111.12451172 C121.32367235 134.03966203 112.2404573 157.52152275 104.84667969 182.99951172 C104.10283437 185.53565424 103.35811297 188.07153997 102.61254883 190.60717773 C101.12605557 195.66785688 99.64562837 200.73025322 98.16943359 205.79394531 C96.34439026 212.04440611 94.48363871 218.28349417 92.60839844 224.51904297 C91.82441149 227.14134515 91.04164427 229.76400672 90.25964355 232.38690186 C89.79511025 233.93976251 89.32783603 235.49180749 88.85705566 237.04278564 C77.70939866 273.83712899 70.77644273 312.03707549 62.66552734 349.57666016 C57.49627709 373.49206211 52.31394814 397.3989801 46.63183594 421.19873047 C46.43308491 422.03166626 46.23433388 422.86460205 46.02956009 423.72277832 C40.54858537 446.62936026 34.95413328 469.52732287 27.16748047 491.77490234 C25.05986459 497.87574393 23.04331021 504.0074057 21.00891113 510.13296509 C20.222686 512.49648658 19.43318142 514.85888697 18.64257812 517.22094727 C16.29412754 524.24106501 13.96068338 531.2637825 11.70996094 538.31591797 C2.03514504 568.4589158 -9.81931461 596.74744195 -32.94628906 618.92529297 C-35.07993829 620.99886443 -37.03816814 623.15883077 -38.96972656 625.42138672 C-43.70169762 630.89400285 -48.82204836 635.97927175 -53.93554688 641.09204102 C-55.64126629 642.79994228 -57.33881058 644.51569216 -59.03613281 646.23193359 C-65.67537142 652.90571734 -72.44988884 659.10428444 -79.90332031 664.87451172 C-80.53383301 665.3642749 -81.1643457 665.85403809 -81.81396484 666.35864258 C-107.83248863 686.15700563 -137.74140938 695.35445937 -169.90332031 699.87451172 C-171.18078125 700.05755859 -172.45824219 700.24060547 -173.77441406 700.42919922 C-181.24164581 701.22037678 -188.7773893 701.1173304 -196.27832031 701.12451172 C-197.10480072 701.12585114 -197.93128113 701.12719055 -198.7828064 701.12857056 C-211.14314542 701.12427244 -223.40206932 700.63111364 -235.71582031 699.56201172 C-236.41382751 699.50315796 -237.11183472 699.4443042 -237.83099365 699.38366699 C-252.52653755 698.11321408 -266.98611043 696.02992271 -280.96582031 691.18701172 C-281.98530762 690.83960938 -283.00479492 690.49220703 -284.05517578 690.13427734 C-292.75938115 687.08498968 -300.84941362 683.33978046 -308.90332031 678.87451172 C-310.05445313 678.26091797 -311.20558594 677.64732422 -312.39160156 677.01513672 C-326.03972561 669.53417178 -338.5912937 660.56271333 -349.90332031 649.87451172 C-351.25340489 648.72387145 -352.60743621 647.57784212 -353.96582031 646.43701172 C-363.25947044 638.23564318 -369.90296422 628.7194829 -376.76269531 618.49169922 C-379.27396402 614.76105996 -381.89877935 611.17844743 -384.65332031 607.62451172 C-395.84021044 592.90059016 -405.40273732 576.90387757 -403.90332031 557.87451172 C-399.05973414 535.65292379 -370.4002175 512.00950637 -352.90332031 498.87451172 C-352.32485352 498.43026855 -351.74638672 497.98602539 -351.15039062 497.52832031 C-339.52430382 488.60660146 -329.16093372 480.75912757 -313.90332031 481.87451172 C-299.48105147 484.01916016 -287.37011671 491.10367529 -278.53613281 502.66357422 C-275.33173497 507.97305094 -275.09832614 514.01798713 -274.45410156 520.05810547 C-271.64509162 545.7973636 -266.6395011 570.6359273 -246.90332031 588.87451172 C-237.75649025 596.21848832 -226.60769807 600.72154671 -214.76269531 600.19091797 C-193.01035135 597.7838963 -173.16756379 589.2218174 -158.90332031 572.37451172 C-147.03389457 556.89161161 -138.92351686 538.84173337 -132.27832031 520.62451172 C-131.93019287 519.67447266 -131.58206543 518.72443359 -131.22338867 517.74560547 C-130.06142323 514.47139446 -128.97276353 511.1801439 -127.90332031 507.87451172 C-127.68720093 507.22156128 -127.47108154 506.56861084 -127.24841309 505.89587402 C-121.3540452 487.81431901 -118.32713779 469.05699252 -114.91160965 450.39200592 C-114.04950661 445.6980944 -113.17324934 441.00683108 -112.29760742 436.31542969 C-110.86074101 428.61101787 -109.42797396 420.90586264 -108.00048828 413.19970703 C-107.82481732 412.25143099 -107.64914637 411.30315495 -107.46815205 410.32614326 C-106.61460428 405.71767259 -105.76170365 401.10908282 -104.90948486 396.50036621 C-103.2110777 387.31875121 -101.50429987 378.13883253 -99.77385139 368.9631958 C-99.05780337 365.16382188 -98.34717637 361.36365139 -97.65185547 357.5604248 C-93.93265234 337.23509928 -89.05701384 317.6053672 -82.90332031 297.87451172 C-82.473564 296.48181061 -82.473564 296.48181061 -82.03512573 295.06097412 C-80.44952066 289.93557933 -78.80051152 284.8347877 -77.09082031 279.74951172 C-76.84452881 279.01366852 -76.5982373 278.27782532 -76.34448242 277.51968384 C-66.50481358 248.24791495 -55.24599496 218.8399671 -35.45849609 194.77832031 C-33.95041223 192.93216051 -32.48133528 191.06199337 -31.02441406 189.17529297 C-25.70253271 182.2839585 -20.18410923 175.58727686 -14.52832031 168.96826172 C-12.06416067 166.07899851 -9.66671032 163.13932714 -7.27832031 160.18701172 C-3.65263684 155.73260059 0.12097622 151.4450257 3.98730469 147.19873047 C5.84294626 145.15408837 7.66424345 143.08667023 9.47167969 140.99951172 C16.41275751 133.04148528 23.5453543 125.25802988 31.09667969 117.87451172 C30.12472656 118.09107422 29.15277344 118.30763672 28.15136719 118.53076172 C-5.70215988 125.58758863 -46.79542192 119.3488682 -79.32910156 108.66357422 C-92.49551 104.62774037 -104.16081532 109.37419785 -115.94628906 115.44091797 C-132.353564 124.58908808 -147.89126086 137.91368416 -154.34082031 155.99951172 C-157.82109426 168.74034071 -157.13072074 181.10990133 -150.90332031 192.87451172 C-148.78584279 196.40531747 -146.4672234 199.65575893 -143.90332031 202.87451172 C-143.36964844 203.56029297 -142.83597656 204.24607422 -142.28613281 204.95263672 C-137.51565071 210.75025612 -131.7611689 215.22368381 -125.90332031 219.87451172 C-119.4458927 225.01160619 -114.62117544 230.43880147 -110.90332031 237.87451172 C-109.27165608 253.28170181 -117.66377454 264.29474778 -126.77832031 275.93701172 C-128.14343496 277.59105354 -129.51882326 279.23665938 -130.90332031 280.87451172 C-131.65226562 281.78201172 -132.40121094 282.68951172 -133.17285156 283.62451172 C-147.00305666 299.71134156 -163.04981081 306.18088268 -183.59082031 309.56201172 C-184.37432861 309.69357666 -185.15783691 309.8251416 -185.96508789 309.96069336 C-204.56219794 312.86459997 -223.09227102 308.55614021 -238.34082031 297.43701172 C-240.21438601 295.94014177 -242.07098246 294.42157541 -243.90332031 292.87451172 C-244.55816406 292.33310547 -245.21300781 291.79169922 -245.88769531 291.23388672 C-256.58673832 281.51640729 -263.68207333 267.36096136 -264.51269531 252.98388672 C-264.5793691 250.53121998 -264.62552048 248.07792703 -264.65332031 245.62451172 C-264.68151855 244.31256836 -264.7097168 243.000625 -264.73876953 241.64892578 C-264.82001843 237.72433594 -264.86370223 233.7997491 -264.90332031 229.87451172 C-264.9184668 228.78396484 -264.93361328 227.69341797 -264.94921875 226.56982422 C-265.02628784 220.65994111 -265.02324969 214.75598982 -264.94042969 208.84619141 C-264.91526867 206.83132364 -264.90130273 204.81629073 -264.89746094 202.80126953 C-264.73373653 150.19661751 -246.5705918 96.73336009 -210.90332031 57.87451172 C-209.91721967 56.78374865 -208.93156433 55.6925829 -207.94628906 54.60107422 C-203.15791777 49.32137439 -198.40881609 44.16519595 -192.92675781 39.58935547 C-190.52721176 37.55576335 -188.2593848 35.4018808 -185.96582031 33.24951172 C-132.26817459 -15.55304475 -67.54325313 -21.51619287 0 0 Z M-114.90332031 -2.12548828 C-115.96268799 -1.86856201 -115.96268799 -1.86856201 -117.04345703 -1.60644531 C-142.40535562 4.90125408 -164.63547899 22.48401276 -183.59082031 39.78076172 C-185.55987622 41.56355558 -187.56222234 43.28569619 -189.59082031 44.99951172 C-198.9303697 53.1382619 -208.19565706 62.16531405 -215.90332031 71.87451172 C-216.70640625 72.86580078 -217.50949219 73.85708984 -218.33691406 74.87841797 C-239.88533509 102.32102318 -249.5434875 136.30949355 -256.27832031 169.99951172 C-256.43397461 170.75433838 -256.58962891 171.50916504 -256.75 172.28686523 C-259.36685815 186.28585867 -259.06728167 200.81596613 -259.03369141 215.00268555 C-259.02834592 217.67421189 -259.03366838 220.34556863 -259.04003906 223.01708984 C-259.04444726 231.95962283 -258.89871911 240.88574215 -258.49707031 249.81982422 C-258.44681198 251.05168205 -258.44681198 251.05168205 -258.39553833 252.3084259 C-257.6242636 267.47824449 -249.46544492 279.14496663 -238.72363281 289.43310547 C-225.53898371 300.84640975 -209.09742957 305.61029249 -191.90332031 304.87451172 C-168.07031437 302.3893118 -150.04796531 294.7998864 -134.41308594 276.09130859 C-121.01006434 260.20883021 -121.01006434 260.20883021 -116.30566406 240.87451172 C-119.33520463 230.73644132 -131.33558946 222.90162672 -139.09082031 216.31201172 C-150.8660216 205.92643046 -160.85358933 192.09289206 -162.23925781 175.96435547 C-162.64141336 157.61683259 -157.00054205 142.71691375 -144.36279297 129.23999023 C-130.09919841 114.67255863 -110.43269268 101.75315921 -89.59082031 101.31201172 C-83.17203679 101.36036949 -77.75026824 102.59549562 -71.6706543 104.73901367 C-38.4688048 116.09328003 8.49973147 122.16379238 41.09667969 106.87451172 C41.82113281 106.48650391 42.54558594 106.09849609 43.29199219 105.69873047 C45.59906807 104.64506594 46.75799135 105.03926588 49.09667969 105.87451172 C48.51676556 109.2438862 47.4931829 110.84003599 45.03417969 113.18701172 C44.39738281 113.79931641 43.76058594 114.41162109 43.10449219 115.04248047 C41.24117948 116.74266268 39.33740272 118.37383414 37.40917969 119.99951172 C32.07341541 124.60673895 27.44896842 129.88420661 22.72167969 135.09667969 C21.08022921 136.89250937 19.42039472 138.66923637 17.75292969 140.44091797 C12.07400271 146.47819169 6.58224237 152.56861262 1.39746094 159.04248047 C-1.26241283 162.31651864 -4.01574015 165.49975669 -6.77832031 168.68701172 C-11.73571148 174.42867613 -16.46704313 180.31393247 -21.11425781 186.30810547 C-23.02365618 188.76643891 -24.96790142 191.19080795 -26.94238281 193.59716797 C-40.66965783 210.35685968 -51.09784643 228.43963235 -59.15332031 248.56201172 C-59.42445648 249.23349243 -59.69559265 249.90497314 -59.97494507 250.59680176 C-64.42265923 261.64839512 -68.44113173 272.82657746 -72.21582031 284.12451172 C-72.44636108 284.81064545 -72.67690186 285.49677917 -72.91442871 286.20370483 C-74.369618 290.55835553 -75.76000231 294.93009318 -77.11105347 299.31814575 C-77.65594429 301.07631644 -78.21012826 302.83162533 -78.77200317 304.58444214 C-86.21854179 327.9558653 -90.50819887 351.96347522 -95.06733704 376.02511978 C-96.16285045 381.78898989 -97.27500795 387.54965001 -98.38476562 393.31079102 C-101.99707516 412.09643367 -105.57421485 430.88826133 -108.98464012 449.71171761 C-109.36178523 451.7924444 -109.74052684 453.87287468 -110.1197052 455.95323181 C-111.20395527 461.91172006 -112.27358953 467.87172236 -113.30493164 473.83959961 C-116.74775976 493.30245969 -122.18446605 512.39209698 -129.71582031 530.68701172 C-130.12832031 531.69997314 -130.54082031 532.71293457 -130.96582031 533.7565918 C-137.5260743 549.52065558 -145.29354576 564.45679013 -155.90332031 577.87451172 C-156.58007812 578.73431641 -157.25683594 579.59412109 -157.95410156 580.47998047 C-169.46170575 594.2475951 -187.53835162 601.63602881 -204.90332031 604.87451172 C-206.09957031 605.10138672 -207.29582031 605.32826172 -208.52832031 605.56201172 C-225.14418369 607.10051759 -238.38689457 602.8396864 -251.59082031 592.68701172 C-270.13084733 576.89365537 -277.32742491 551.19664461 -279.38769531 527.70263672 C-279.46544189 526.81801758 -279.54318848 525.93339844 -279.62329102 525.02197266 C-279.76413544 523.30781217 -279.88873988 521.59220765 -279.99389648 519.87548828 C-280.62450118 511.74769446 -283.77617041 504.45123208 -289.90332031 498.87451172 C-298.78781624 492.00443618 -309.90697836 486.79583789 -321.38378906 487.37060547 C-345.98430537 492.29070873 -376.6594839 525.36095876 -390.96582031 545.24951172 C-391.9628079 546.77971406 -392.94400221 548.3204164 -393.90332031 549.87451172 C-394.33386719 550.51259766 -394.76441406 551.15068359 -395.20800781 551.80810547 C-399.33983316 558.66123647 -398.98894096 566.45565383 -397.12597656 574.03857422 C-391.77100349 589.39839021 -381.10040726 602.72971401 -371.52490234 615.66943359 C-369.96376341 617.7923193 -368.42896564 619.93192464 -366.89941406 622.07763672 C-356.50075983 636.52270876 -344.29867836 648.43387842 -329.90332031 658.87451172 C-329.34128906 659.28620605 -328.77925781 659.69790039 -328.20019531 660.12207031 C-298.20827924 681.83353479 -267.24954356 690.55771511 -230.90332031 693.87451172 C-229.96198242 693.97094971 -229.02064453 694.0673877 -228.05078125 694.16674805 C-175.80237018 699.19622553 -121.44003072 691.03411961 -80.06445312 656.96679688 C-67.73583219 646.61512341 -56.32233524 635.45663413 -45.41113281 623.63232422 C-42.36919585 620.34557667 -39.2304017 617.19273753 -36.02832031 614.06201172 C-8.13535286 586.33433593 2.89066168 547.84368628 14.19995117 511.23071289 C16.47741122 503.8774609 18.84279755 496.60475902 21.65917969 489.43701172 C29.84614405 468.15826897 34.83672464 445.45044997 40.12402344 423.31591797 C40.35475744 422.35194344 40.58549145 421.3879689 40.82321739 420.39478302 C46.96783717 394.65669705 52.52234298 368.78924966 58.09130859 342.92181396 C60.27202166 332.79695847 62.4613302 322.6739592 64.6511898 312.5510788 C65.39850679 309.09242438 66.14319257 305.63321263 66.8874054 302.17388916 C69.27639712 291.09152759 71.71745163 280.02236079 74.24926758 268.97167969 C74.48652715 267.92958469 74.72378672 266.8874897 74.96823597 265.81381607 C77.46428222 255.00200737 80.55329565 244.38001048 83.72167969 233.74951172 C84.33154869 231.68254273 84.94083076 229.61540048 85.54956055 227.5480957 C87.3866846 221.32000004 89.23934378 215.09660582 91.09667969 208.87451172 C91.53062042 207.41993561 91.53062042 207.41993561 91.97332764 205.93597412 C94.33997534 198.00564012 96.71115206 190.07667509 99.10107422 182.15332031 C99.33023026 181.39338776 99.55938629 180.6334552 99.79548645 179.85049438 C100.24436057 178.36327092 100.69396107 176.87626646 101.14433289 175.38949585 C102.25126125 171.72572066 103.33545403 168.05739789 104.38061523 164.37548828 C106.71616715 156.17475758 109.27629325 148.2925963 112.78417969 140.49951172 C113.21206787 139.53400391 113.63995605 138.56849609 114.08081055 137.57373047 C119.79702445 124.85664285 126.28615819 112.63289058 133.63427734 100.78881836 C136.97403886 95.30685713 139.73697406 89.584968 142.53417969 83.81201172 C148.7268095 71.1531994 155.98678473 60.90836249 165.63574219 50.60498047 C176.62703479 38.77110049 176.62703479 38.77110049 180.43261719 23.81201172 C179.24254935 16.94836464 172.42911631 11.77794558 167.09667969 7.87451172 C153.54098365 -0.2243591 141.3614024 -3.36578176 125.72167969 0.37451172 C118.64154225 2.43525858 112.35210059 5.56051254 105.83886719 8.97216797 C72.08479968 26.50195214 21.92082272 13.48823182 -12.21582031 2.74951172 C-13.29581299 2.40694336 -14.37580566 2.064375 -15.48852539 1.71142578 C-25.15502548 -1.3130755 -34.89164639 -3.58673129 -44.90332031 -5.12548828 C-45.54245361 -5.22643799 -46.18158691 -5.3273877 -46.84008789 -5.43139648 C-68.85775795 -8.39240265 -93.39530093 -7.40236883 -114.90332031 -2.12548828 Z " fill="#000000" transform="translate(403.9033203125,38.12548828125)"/>
<path d="M0 0 C0.99 0 1.98 0 3 0 C3.66 2.31 4.32 4.62 5 7 C5.83917969 6.67773438 6.67835938 6.35546875 7.54296875 6.0234375 C15.67249722 3.61672964 25.4274215 3.60511324 33.01171875 7.67578125 C39.86352112 12.2391624 45.88897918 17.80225938 48.609375 25.7890625 C50.18551378 34.71000797 50.12821848 44.30010854 45 52 C40.31043337 58.517904 34.18753836 64.55343845 26 66 C14.74442729 66.7992898 6.68084774 65.99078008 -2.25 58.75 C-8.0878373 53.33164802 -11.67129269 47.6288456 -12.23828125 39.64453125 C-12.46380975 28.00013866 -10.48812305 21.16491225 -2.48828125 12.53125 C-1.66365087 11.68281139 -0.83661919 10.83661919 0 10 C0.07205511 8.31391034 0.08386068 6.62499341 0.0625 4.9375 C0.04896484 3.55884766 0.04896484 3.55884766 0.03515625 2.15234375 C0.02355469 1.44207031 0.01195312 0.73179687 0 0 Z " fill="#000000" transform="translate(201,254)"/>
<path d="M0 0 C1.32 0 2.64 0 4 0 C2.7136775 12.58988151 1.04232989 25.0734021 -1 37.5625 C-1.1476178 38.46930511 -1.2952356 39.37611023 -1.44732666 40.31039429 C-16.02470841 129.25815565 -39.10461796 218.45832775 -133 401 C-133.63446045 401.81452637 -133.63446045 401.81452637 -134.28173828 402.64550781 C-149.83373823 422.36666156 -167.99881194 439.32576613 -190.07421875 451.34375 C-192.56122836 452.75161659 -194.77096084 454.22110743 -197 456 C-193.535 457.485 -193.535 457.485 -190 459 C-190 460.32 -190 461.64 -190 463 C-193.94949704 462.37183502 -197.19892028 461.1354471 -200.8125 459.4375 C-201.78832031 458.98246094 -202.76414062 458.52742188 -203.76953125 458.05859375 C-204.50558594 457.70925781 -205.24164063 457.35992188 -206 457 C-205.37183502 453.05050296 -204.1354471 449.80107972 -202.4375 446.1875 C-201.75494141 444.72376953 -201.75494141 444.72376953 -201.05859375 443.23046875 C-200.70925781 442.49441406 -200.35992187 441.75835938 -200 441 C-199.01 441 -198.02 441 -197 441 C-197.165 442.11375 -197.33 443.2275 -197.5 444.375 C-198.0455458 447.72032033 -198.0455458 447.72032033 -198 450 C-180.04000879 440.99546889 -163.66625364 428.81709606 -150 414 C-149.48953125 413.44828125 -148.9790625 412.8965625 -148.453125 412.328125 C-146.59125153 410.25346599 -144.7927031 408.13482201 -143 406 C-142.15953125 405.01 -141.3190625 404.02 -140.453125 403 C-125.09270712 384.56270756 -112.72386991 363.87345092 -101 343 C-100.59265625 342.28457031 -100.1853125 341.56914063 -99.765625 340.83203125 C-79.88670769 305.76394121 -65.9308439 267.05199877 -53 229 C-52.67255798 228.03924561 -52.67255798 228.03924561 -52.33850098 227.05908203 C-28.42469595 156.78585912 -12.02316696 83.40461413 -1.87428284 9.93492126 C-1.40391438 6.56605979 -0.86473249 3.2888857 0 0 Z " fill="#000000" transform="translate(551,250)"/>
<path d="M0 0 C3.59391114 1.33488128 6.75490696 2.96022723 10 5 C8.85569823 8.87302138 7.76679902 12.00263439 5 15 C4.34 15 3.68 15 3 15 C3.33 13.35 3.66 11.7 4 10 C-7.17992877 12.61328253 -18.02955381 15.80100383 -28.875 19.5625 C-29.62713776 19.82156128 -30.37927551 20.08062256 -31.15420532 20.34753418 C-50.33086705 26.97166155 -69.13575739 34.54308451 -87.10498047 44.00537109 C-89.14712693 45.07722174 -91.19992156 46.12681002 -93.25390625 47.17578125 C-102.52554797 51.94840702 -111.38512665 57.12442954 -120 63 C-120.5784668 63.39300293 -121.15693359 63.78600586 -121.75292969 64.19091797 C-130.63541976 70.26854011 -138.93793103 76.87526496 -147 84 C-147.52368164 84.46051758 -148.04736328 84.92103516 -148.58691406 85.39550781 C-175.38083025 109.07037989 -193.82140596 139.1724171 -202 174 C-202.44472656 175.88332031 -202.44472656 175.88332031 -202.8984375 177.8046875 C-205.47201033 190.0610096 -206.16894896 202.5267743 -207 215 C-207.99 215 -208.98 215 -210 215 C-212.01978861 171.83636929 -194.63800565 129.37773528 -166.16015625 97.44140625 C-156.55692689 86.89922121 -146.50834828 77.43032652 -135 69 C-134.3306543 68.50757812 -133.66130859 68.01515625 -132.97167969 67.5078125 C-93.38312269 38.55580979 -48.11104951 20.67058756 -1.41308594 6.76513672 C0.97787603 6.07604455 0.97787603 6.07604455 3 5 C1.02 3.02 1.02 3.02 -1 1 C-0.67 0.67 -0.34 0.34 0 0 Z " fill="#000000" transform="translate(336,0)"/>
<path d="M0 0 C3.0625 0.1875 3.0625 0.1875 5.0625 2.1875 C4.90004442 5.92397845 4.47466356 7.71288742 2 10.5625 C1.360625 11.09875 0.72125 11.635 0.0625 12.1875 C1.7125 12.5175 3.3625 12.8475 5.0625 13.1875 C5.0625 13.8475 5.0625 14.5075 5.0625 15.1875 C1.7625 15.1875 -1.5375 15.1875 -4.9375 15.1875 C-2.9375 11.1875 -2.9375 11.1875 -0.8125 8.625 C1.36735538 6.30372611 1.36735538 6.30372611 1.0625 3.1875 C0.4025 3.1875 -0.2575 3.1875 -0.9375 3.1875 C-1.2675 3.8475 -1.5975 4.5075 -1.9375 5.1875 C-2.9275 5.1875 -3.9175 5.1875 -4.9375 5.1875 C-3.82120474 0.24390669 -3.82120474 0.24390669 0 0 Z " fill="#000000" transform="translate(516.9375,523.8125)"/>
<path d="M0 0 C0 4.95 0 9.9 0 15 C-0.99 15 -1.98 15 -3 15 C-3 11.37 -3 7.74 -3 4 C-3.99 4.33 -4.98 4.66 -6 5 C-5.625 3.0625 -5.625 3.0625 -5 1 C-3 0 -3 0 0 0 Z " fill="#000000" transform="translate(504,524)"/>
<path d="M0 0 C0 4.95 0 9.9 0 15 C-0.99 15 -1.98 15 -3 15 C-3 11.37 -3 7.74 -3 4 C-3.99 4.33 -4.98 4.66 -6 5 C-5.625 3.0625 -5.625 3.0625 -5 1 C-3 0 -3 0 0 0 Z " fill="#000000" transform="translate(167,46)"/>
<path d="M0 0 C0 4.95 0 9.9 0 15 C-0.66 15 -1.32 15 -2 15 C-2.33 11.37 -2.66 7.74 -3 4 C-3.99 4.33 -4.98 4.66 -6 5 C-6 4.01 -6 3.02 -6 2 C-3 0 -3 0 0 0 Z " fill="#000000" transform="translate(179,46)"/>
<path d="M0 0 C0.99 0.33 1.98 0.66 3 1 C3 1.66 3 2.32 3 3 C1.25 4.5078125 1.25 4.5078125 -1 6.125 C-1.7425 6.66382812 -2.485 7.20265625 -3.25 7.7578125 C-3.8275 8.16773437 -4.405 8.57765625 -5 9 C-5.66 8.67 -6.32 8.34 -7 8 C-5.51218185 4.21282653 -3.38011591 2.22592999 0 0 Z " fill="#000000" transform="translate(258,113)"/>
<path d="M0 0 C-0.21484375 1.890625 -0.21484375 1.890625 -1 4 C-3.06640625 5.046875 -3.06640625 5.046875 -5.5625 5.75 C-6.80193359 6.11351562 -6.80193359 6.11351562 -8.06640625 6.484375 C-9.02353516 6.73960937 -9.02353516 6.73960937 -10 7 C-10.33 6.01 -10.66 5.02 -11 4 C-9.5437455 3.32880451 -8.08492133 2.66318193 -6.625 2 C-5.81289062 1.62875 -5.00078125 1.2575 -4.1640625 0.875 C-2 0 -2 0 0 0 Z " fill="#000000" transform="translate(259,678)"/>
<path d="M0 0 C3.99500618 1.3697164 6.80009492 3.25722422 10 6 C9.67 6.66 9.34 7.32 9 8 C5.40608886 6.66511872 2.24509304 5.03977277 -1 3 C-0.67 2.01 -0.34 1.02 0 0 Z " fill="#000000" transform="translate(113,668)"/>
<path d="M0 0 C0 0.99 0 1.98 0 3 C-3.87684087 4.19287411 -6.91621923 5 -11 5 C-11 4.01 -11 3.02 -11 2 C-7.12315913 0.80712589 -4.08378077 0 0 0 Z " fill="#000000" transform="translate(240,686)"/>
<path d="M0 0 C0.66 0.33 1.32 0.66 2 1 C0.52440331 5.42679007 -1.90057368 5.91432696 -6 8 C-6.66 8 -7.32 8 -8 8 C-7.9375 6.25 -7.9375 6.25 -7 4 C-4.74876994 2.27481113 -2.59865097 1.23093993 0 0 Z " fill="#000000" transform="translate(275,668)"/>
<path d="M0 0 C2.53910197 0.38520564 3.72751123 0.70097943 5.484375 2.62890625 C5.90203125 3.26699219 6.3196875 3.90507813 6.75 4.5625 C7.17796875 5.20316406 7.6059375 5.84382812 8.046875 6.50390625 C8.36140625 6.99761719 8.6759375 7.49132812 9 8 C5 8 5 8 2.25 5.6875 C0 3 0 3 0 0 Z " fill="#000000" transform="translate(82,642)"/>
<path d="M0 0 C0.99 0.33 1.98 0.66 3 1 C0.68462045 4.72114571 -1.28579473 7.61229661 -5 10 C-5 4.69520066 -3.4637943 3.81017373 0 0 Z " fill="#000000" transform="translate(304,641)"/>
<path d="M0 0 C1.75 0.125 1.75 0.125 4 1 C6.3125 3.875 6.3125 3.875 8 7 C7.67 7.99 7.34 8.98 7 10 C3.60582235 6.87378374 1.3937282 4.43458973 0 0 Z " fill="#000000" transform="translate(69,626)"/>
<path d="M0 0 C1.859375 0.24609375 1.859375 0.24609375 4 1 C5.265625 2.84765625 5.265625 2.84765625 6.25 5.0625 C6.75273438 6.16271484 6.75273438 6.16271484 7.265625 7.28515625 C7.50796875 7.85105469 7.7503125 8.41695312 8 9 C6.68 9 5.36 9 4 9 C0 2.25 0 2.25 0 0 Z " fill="#000000" transform="translate(58,609)"/>
<path d="M0 0 C0.99 0 1.98 0 3 0 C2.44894091 3.9492568 1.61064629 7.34920174 0 11 C-0.99 10.67 -1.98 10.34 -3 10 C-2.01 6.7 -1.02 3.4 0 0 Z " fill="#000000" transform="translate(402,397)"/>
<path d="M0 0 C0.99 0 1.98 0 3 0 C2.01 3.3 1.02 6.6 0 10 C-0.99 10 -1.98 10 -3 10 C-2.69201674 8.51988629 -2.378482 7.04092675 -2.0625 5.5625 C-1.88847656 4.73878906 -1.71445312 3.91507812 -1.53515625 3.06640625 C-1 1 -1 1 0 0 Z " fill="#000000" transform="translate(409,378)"/>
<path d="M0 0 C0.99 0 1.98 0 3 0 C2.69078116 1.45903258 2.37751201 2.91720722 2.0625 4.375 C1.88847656 5.18710938 1.71445312 5.99921875 1.53515625 6.8359375 C1 9 1 9 0 11 C-0.99 10.67 -1.98 10.34 -3 10 C-2.01 6.7 -1.02 3.4 0 0 Z " fill="#000000" transform="translate(460,224)"/>
<path d="M0 0 C0.99 0 1.98 0 3 0 C2.53199289 4.05606165 2.12046792 7.46588679 0 11 C-0.66 11 -1.32 11 -2 11 C-1.125 3.375 -1.125 3.375 0 0 Z " fill="#000000" transform="translate(478,166)"/>
<path d="M0 0 C0 0.66 0 1.32 0 2 C-4.95 3.485 -4.95 3.485 -10 5 C-10 3.68 -10 2.36 -10 1 C-3.71428571 -1.42857143 -3.71428571 -1.42857143 0 0 Z " fill="#000000" transform="translate(313,87)"/>
<path d="M0 0 C0 0.66 0 1.32 0 2 C-3.63 2.66 -7.26 3.32 -11 4 C-11 3.01 -11 2.02 -11 1 C-6.87831311 -0.62950412 -4.29299643 -1.26264601 0 0 Z " fill="#000000" transform="translate(332,82)"/>
<path d="M0 0 C3.63 0 7.26 0 11 0 C11 0.99 11 1.98 11 3 C7.37 3 3.74 3 0 3 C0 2.01 0 1.02 0 0 Z " fill="#000000" transform="translate(189,693)"/>
<path d="M0 0 C0 0.99 0 1.98 0 3 C-3.63 3.33 -7.26 3.66 -11 4 C-11 3.01 -11 2.02 -11 1 C-7.32589215 -0.17571451 -3.83070817 -0.07366746 0 0 Z " fill="#000000" transform="translate(220,691)"/>
<path d="M0 0 C3.63 0.33 7.26 0.66 11 1 C11 1.99 11 2.98 11 4 C7.37 3.67 3.74 3.34 0 3 C0 2.01 0 1.02 0 0 Z " fill="#000000" transform="translate(169,691)"/>
<path d="M0 0 C4.95 1.98 4.95 1.98 10 4 C9.67 4.99 9.34 5.98 9 7 C6.03 6.01 3.06 5.02 0 4 C0 2.68 0 1.36 0 0 Z " fill="#000000" transform="translate(131,678)"/>
<path d="M0 0 C0.99 0 1.98 0 3 0 C2.44894091 3.9492568 1.61064629 7.34920174 0 11 C-0.99 10.67 -1.98 10.34 -3 10 C-2.01 6.7 -1.02 3.4 0 0 Z " fill="#000000" transform="translate(360,511)"/>
<path d="M0 0 C0.66 0 1.32 0 2 0 C1.53199289 4.05606165 1.12046792 7.46588679 -1 11 C-1.99 10.67 -2.98 10.34 -4 10 C-2.68 6.7 -1.36 3.4 0 0 Z " fill="#000000" transform="translate(389,435)"/>
<path d="M0 0 C0.99 0 1.98 0 3 0 C2.44894091 3.9492568 1.61064629 7.34920174 0 11 C-0.99 10.67 -1.98 10.34 -3 10 C-2.01 6.7 -1.02 3.4 0 0 Z " fill="#000000" transform="translate(395,416)"/>
<path d="M0 0 C0.99 0.33 1.98 0.66 3 1 C2.01 4.3 1.02 7.6 0 11 C-0.99 11 -1.98 11 -3 11 C-2.69078116 9.54096742 -2.37751201 8.08279278 -2.0625 6.625 C-1.88847656 5.81289062 -1.71445312 5.00078125 -1.53515625 4.1640625 C-1 2 -1 2 0 0 Z " fill="#000000" transform="translate(454,243)"/>
<path d="M0 0 C0.99 0.33 1.98 0.66 3 1 C2.34 3.97 1.68 6.94 1 10 C-0.32 10.33 -1.64 10.66 -3 11 C-2.01 7.37 -1.02 3.74 0 0 Z " fill="#000000" transform="translate(472,185)"/>
<path d="M0 0 C0.99 0.33 1.98 0.66 3 1 C2.01 4.3 1.02 7.6 0 11 C-0.99 11 -1.98 11 -3 11 C-2.69078116 9.54096742 -2.37751201 8.08279278 -2.0625 6.625 C-1.88847656 5.81289062 -1.71445313 5.00078125 -1.53515625 4.1640625 C-1 2 -1 2 0 0 Z " fill="#000000" transform="translate(212,176)"/>
<path d="M0 0 C0.66 0.33 1.32 0.66 2 1 C0.8905928 4.48670834 -0.26337666 7.77484237 -2 11 C-2.99 10.67 -3.98 10.34 -5 10 C-4.54857119 8.70590408 -4.08858979 7.41478941 -3.625 6.125 C-3.36976563 5.40570313 -3.11453125 4.68640625 -2.8515625 3.9453125 C-2 2 -2 2 0 0 Z " fill="#000000" transform="translate(221,158)"/>
<path d="M0 0 C0.99 0.33 1.98 0.66 3 1 C2.34 3.97 1.68 6.94 1 10 C-0.32 10.33 -1.64 10.66 -3 11 C-2.01 7.37 -1.02 3.74 0 0 Z " fill="#000000" transform="translate(490,127)"/>
<path d="M0 0 C0.66 0.33 1.32 0.66 2 1 C0.44499019 4.81684226 -2.03595495 7.19195732 -5 10 C-5.66 9.34 -6.32 8.68 -7 8 C-4.69 5.36 -2.38 2.72 0 0 Z " fill="#000000" transform="translate(244,126)"/>
<path d="M0 0 C0.99 0 1.98 0 3 0 C2.69078116 1.45903258 2.37751201 2.91720722 2.0625 4.375 C1.88847656 5.18710938 1.71445312 5.99921875 1.53515625 6.8359375 C1 9 1 9 0 11 C-0.99 10.67 -1.98 10.34 -3 10 C-2.01 6.7 -1.02 3.4 0 0 Z " fill="#000000" transform="translate(496,108)"/>
<path d="M0 0 C0.99 0.33 1.98 0.66 3 1 C3 1.66 3 2.32 3 3 C0.03 4.65 -2.94 6.3 -6 8 C-6 6.68 -6 5.36 -6 4 C-3.1875 1.6875 -3.1875 1.6875 0 0 Z " fill="#000000" transform="translate(274,102)"/>
<path d="M0 0 C0 0.99 0 1.98 0 3 C-2.97 4.32 -5.94 5.64 -9 7 C-9 5.68 -9 4.36 -9 3 C-3.375 0 -3.375 0 0 0 Z " fill="#000000" transform="translate(294,93)"/>
<path d="M0 0 C3.63 0.33 7.26 0.66 11 1 C11 1.99 11 2.98 11 4 C3.57142857 4.14285714 3.57142857 4.14285714 0 3 C0 2.01 0 1.02 0 0 Z " fill="#000000" transform="translate(419,77)"/>
<path d="M0 0 C3.63 0 7.26 0 11 0 C11 0.99 11 1.98 11 3 C7.37 3 3.74 3 0 3 C0 2.01 0 1.02 0 0 Z " fill="#000000" transform="translate(399,76)"/>
<path d="M0 0 C3.63 0 7.26 0 11 0 C11 0.99 11 1.98 11 3 C7.37 3 3.74 3 0 3 C0 2.01 0 1.02 0 0 Z " fill="#000000" transform="translate(360,76)"/>
<path d="M0 0 C4.95 0.99 4.95 0.99 10 2 C10.33 2.99 10.66 3.98 11 5 C3.375 4.125 3.375 4.125 0 3 C0 2.01 0 1.02 0 0 Z " fill="#000000" transform="translate(149,686)"/>
<path d="M0 0 C0.99 0.33 1.98 0.66 3 1 C-1.43076923 6.78461538 -1.43076923 6.78461538 -4.3125 7.875 C-5.1478125 7.936875 -5.1478125 7.936875 -6 8 C-6 7.01 -6 6.02 -6 5 C-3.1875 2.25 -3.1875 2.25 0 0 Z " fill="#000000" transform="translate(290,656)"/>
<path d="M0 0 C3.81684226 1.55500981 6.19195732 4.03595495 9 7 C8.34 7.66 7.68 8.32 7 9 C4.36 6.69 1.72 4.38 -1 2 C-0.67 1.34 -0.34 0.68 0 0 Z " fill="#000000" transform="translate(97,656)"/>
<path d="M0 0 C0.99 0 1.98 0 3 0 C2.43454163 3.95820859 1.19097652 6.6659053 -1 10 C-1.99 9.67 -2.98 9.34 -4 9 C-2.68 6.03 -1.36 3.06 0 0 Z " fill="#000000" transform="translate(314,624)"/>
<path d="M0 0 C0.66 0.33 1.32 0.66 2 1 C1.01 4.3 0.02 7.6 -1 11 C-1.99 11 -2.98 11 -4 11 C-3.48964169 6.6109185 -2.47785723 3.66291938 0 0 Z " fill="#000000" transform="translate(331,586)"/>
<path d="M0 0 C0.99 0 1.98 0 3 0 C2.60404157 1.48484412 2.18249294 2.9628831 1.75 4.4375 C1.51796875 5.26121094 1.2859375 6.08492187 1.046875 6.93359375 C0.52867187 7.95646484 0.52867187 7.95646484 0 9 C-1.32 9.33 -2.64 9.66 -4 10 C-2.68 6.7 -1.36 3.4 0 0 Z " fill="#000000" transform="translate(338,568)"/>
<path d="M0 0 C0.99 0.33 1.98 0.66 3 1 C1.68 4.3 0.36 7.6 -1 11 C-1.99 10.34 -2.98 9.68 -4 9 C-2.68 6.03 -1.36 3.06 0 0 Z " fill="#000000" transform="translate(353,530)"/>
<path d="M0 0 C0.66 0 1.32 0 2 0 C1.44894091 3.9492568 0.61064629 7.34920174 -1 11 C-1.99 10.67 -2.98 10.34 -4 10 C-3.52449439 8.51965236 -3.04448784 7.04074979 -2.5625 5.5625 C-2.29566406 4.73878906 -2.02882813 3.91507812 -1.75390625 3.06640625 C-1 1 -1 1 0 0 Z " fill="#000000" transform="translate(368,492)"/>
<path d="M0 0 C0.66 0 1.32 0 2 0 C1.53199289 4.05606165 1.12046792 7.46588679 -1 11 C-1.99 10.67 -2.98 10.34 -4 10 C-2.68 6.7 -1.36 3.4 0 0 Z " fill="#000000" transform="translate(375,473)"/>
<path d="M0 0 C0.66 0 1.32 0 2 0 C1.53199289 4.05606165 1.12046792 7.46588679 -1 11 C-1.99 10.67 -2.98 10.34 -4 10 C-2.68 6.7 -1.36 3.4 0 0 Z " fill="#000000" transform="translate(382,454)"/>
<path d="M0 0 C0.99 0.33 1.98 0.66 3 1 C2.01 4.3 1.02 7.6 0 11 C-0.99 11 -1.98 11 -3 11 C-2.69078116 9.54096742 -2.37751201 8.08279278 -2.0625 6.625 C-1.88847656 5.81289063 -1.71445312 5.00078125 -1.53515625 4.1640625 C-1 2 -1 2 0 0 Z " fill="#000000" transform="translate(435,301)"/>
<path d="M0 0 C0.99 0 1.98 0 3 0 C2.69078116 1.45903258 2.37751201 2.91720722 2.0625 4.375 C1.88847656 5.18710937 1.71445312 5.99921875 1.53515625 6.8359375 C1 9 1 9 0 11 C-0.99 10.67 -1.98 10.34 -3 10 C-2.01 6.7 -1.02 3.4 0 0 Z " fill="#000000" transform="translate(441,282)"/>
<path d="M0 0 C0.99 0.33 1.98 0.66 3 1 C2.34 4.3 1.68 7.6 1 11 C0.01 11 -0.98 11 -2 11 C-1.34 7.37 -0.68 3.74 0 0 Z " fill="#000000" transform="translate(206,195)"/>
<path d="M0 0 C3.3 0.33 6.6 0.66 10 1 C10.33 1.99 10.66 2.98 11 4 C7.37 3.67 3.74 3.34 0 3 C0 2.01 0 1.02 0 0 Z " fill="#000000" transform="translate(458,83)"/>
<path d="M0 0 C1.8871875 0.0309375 1.8871875 0.0309375 3.8125 0.0625 C3.4825 1.0525 3.1525 2.0425 2.8125 3.0625 C-0.4875 3.3925 -3.7875 3.7225 -7.1875 4.0625 C-7.1875 3.0725 -7.1875 2.0825 -7.1875 1.0625 C-4.43671116 0.14557039 -2.82801087 -0.04636083 0 0 Z " fill="#000000" transform="translate(347.1875,77.9375)"/>
<path d="M0 0 C0.66 0 1.32 0 2 0 C1.48964169 4.3890815 0.47785723 7.33708062 -2 11 C-2.66 10.67 -3.32 10.34 -4 10 C-3.52449439 8.51965236 -3.04448784 7.04074979 -2.5625 5.5625 C-2.29566406 4.73878906 -2.02882813 3.91507813 -1.75390625 3.06640625 C-1 1 -1 1 0 0 Z " fill="#000000" transform="translate(323,605)"/>
<path d="M0 0 C0.66 0 1.32 0 2 0 C1.44894091 3.9492568 0.61064629 7.34920174 -1 11 C-1.99 10.67 -2.98 10.34 -4 10 C-3.52449439 8.51965236 -3.04448784 7.04074979 -2.5625 5.5625 C-2.29566406 4.73878906 -2.02882813 3.91507813 -1.75390625 3.06640625 C-1 1 -1 1 0 0 Z " fill="#000000" transform="translate(346,549)"/>
<path d="M0 0 C0.99 0 1.98 0 3 0 C2.71758359 1.46015291 2.42373386 2.91809793 2.125 4.375 C1.96257812 5.18710937 1.80015625 5.99921875 1.6328125 6.8359375 C1 9 1 9 -1 11 C-1.66 10.34 -2.32 9.68 -3 9 C-2.01 6.03 -1.02 3.06 0 0 Z " fill="#000000" transform="translate(415,359)"/>
<path d="M0 0 C0.99 0.33 1.98 0.66 3 1 C2.01 4.3 1.02 7.6 0 11 C-0.99 11 -1.98 11 -3 11 C-2.01 7.37 -1.02 3.74 0 0 Z " fill="#000000" transform="translate(422,339)"/>
<path d="M0 0 C0.66 0.33 1.32 0.66 2 1 C1.34 3.97 0.68 6.94 0 10 C-1.32 10.33 -2.64 10.66 -4 11 C-3.5247412 9.35303396 -3.04468109 7.70745272 -2.5625 6.0625 C-2.29566406 5.14597656 -2.02882813 4.22945313 -1.75390625 3.28515625 C-1 1 -1 1 0 0 Z " fill="#000000" transform="translate(429,320)"/>
<path d="M0 0 C0.99 0 1.98 0 3 0 C3.14285714 7.42857143 3.14285714 7.42857143 2 11 C1.01 10.67 0.02 10.34 -1 10 C-0.67 6.7 -0.34 3.4 0 0 Z " fill="#000000" transform="translate(202,215)"/>
<path d="M0 0 C0.99 0 1.98 0 3 0 C2.71758359 1.46015291 2.42373386 2.91809793 2.125 4.375 C1.96257812 5.18710938 1.80015625 5.99921875 1.6328125 6.8359375 C1 9 1 9 -1 11 C-1.66 10.34 -2.32 9.68 -3 9 C-2.01 6.03 -1.02 3.06 0 0 Z " fill="#000000" transform="translate(466,205)"/>
<path d="M0 0 C0.99 0 1.98 0 3 0 C2.34 3.3 1.68 6.6 1 10 C0.01 10 -0.98 10 -2 10 C-1.54177532 6.53058454 -1.10868317 3.32604951 0 0 Z " fill="#000000" transform="translate(484,147)"/>
<path d="M0 0 C0.66 0 1.32 0 2 0 C1.38545304 3.99455527 -0.70646737 6.74466336 -3 10 C-3.66 9.67 -4.32 9.34 -5 9 C-4.42676569 5.13066838 -2.61046448 2.84777943 0 0 Z " fill="#000000" transform="translate(231,142)"/>
<path d="M0 0 C2.31 0.66 4.62 1.32 7 2 C6.34 3.98 5.68 5.96 5 8 C4.01 8 3.02 8 2 8 C2.33 6.68 2.66 5.36 3 4 C1.68 3.34 0.36 2.68 -1 2 C-0.67 1.34 -0.34 0.68 0 0 Z " fill="#000000" transform="translate(497,91)"/>
<path d="M0 0 C7.75 0.875 7.75 0.875 10 2 C10 2.99 10 3.98 10 5 C6.7 4.34 3.4 3.68 0 3 C0 2.01 0 1.02 0 0 Z " fill="#000000" transform="translate(478,87)"/>
<path d="M0 0 C6.625 -0.125 6.625 -0.125 10 1 C10 1.99 10 2.98 10 4 C6.7 3.67 3.4 3.34 0 3 C0 2.01 0 1.02 0 0 Z " fill="#000000" transform="translate(439,80)"/>
<path d="M0 0 C0.66 0.33 1.32 0.66 2 1 C1.54177532 4.46941546 1.10868317 7.67395049 0 11 C-0.99 11 -1.98 11 -3 11 C-2.69078116 9.54096742 -2.37751201 8.08279278 -2.0625 6.625 C-1.88847656 5.81289063 -1.71445312 5.00078125 -1.53515625 4.1640625 C-1 2 -1 2 0 0 Z " fill="#000000" transform="translate(448,262)"/>
<path d="M0 0 C0.99 0 1.98 0 3 0 C3 3.3 3 6.6 3 10 C2.01 10 1.02 10 0 10 C0 6.7 0 3.4 0 0 Z " fill="#000000" transform="translate(201,235)"/>
<path d="M0 0 C3.3 0 6.6 0 10 0 C10 0.66 10 1.32 10 2 C6.7 2 3.4 2 0 2 C0 1.34 0 0.68 0 0 Z " fill="#000000" transform="translate(380,76)"/>
<path d="M0 0 C1.5 1.3125 1.5 1.3125 3 3 C3 3.99 3 4.98 3 6 C2.01 5.67 1.02 5.34 0 5 C-0.75 3 -0.75 3 -1 1 C-0.67 0.67 -0.34 0.34 0 0 Z " fill="#000000" transform="translate(52,595)"/>
<path d="M0 0 C0.99 0.33 1.98 0.66 3 1 C2.67 1.99 2.34 2.98 2 4 C1.01 3.01 0.02 2.02 -1 1 C-0.67 0.67 -0.34 0.34 0 0 Z " fill="#000000" transform="translate(507,536)"/>
<path d="M0 0 C0.99 0.33 1.98 0.66 3 1 C2.67 1.99 2.34 2.98 2 4 C1.01 3.01 0.02 2.02 -1 1 C-0.67 0.67 -0.34 0.34 0 0 Z " fill="#000000" transform="translate(170,58)"/>
</svg>
