<?xml version="1.0" encoding="UTF-8"?>
<svg version="1.1" xmlns="http://www.w3.org/2000/svg" width="665" height="705">
<path d="M0 0 C3.50067836 2.8422939 6.7847774 5.83973847 10 9 C10.57878906 9.56589844 11.15757812 10.13179687 11.75390625 10.71484375 C21.97460368 21.62937442 25.51749833 36.29957263 25.34936523 50.84228516 C25.00008159 61.32553048 22.33775263 67.54217506 15 75 C13.20144955 76.93167579 11.40946696 78.86793998 9.625 80.8125 C9.15054443 81.32683594 8.67608887 81.84117188 8.18725586 82.37109375 C4.41469206 86.48358026 0.87055992 90.74983464 -2.62890625 95.09765625 C-5.31831577 98.38963528 -8.09181954 101.59994494 -10.875 104.8125 C-16.28625049 111.08534932 -21.43991422 117.52625651 -26.5078125 124.078125 C-28.11074785 126.14263859 -29.72632058 128.19682476 -31.34375 130.25 C-38.35092847 139.16582833 -45.12267817 148.21397626 -51.71875 157.4375 C-54.51462359 161.34231384 -57.36532533 165.20357879 -60.23095703 169.05737305 C-66.00774743 176.82965149 -71.62127402 184.68664812 -77.03515625 192.71655273 C-79.50610699 196.37652296 -82.00247115 200.01419852 -84.56616211 203.60986328 C-92.75905904 215.1037161 -100.57299545 226.82217031 -108.3125 238.625 C-109.60471108 240.59143215 -110.89711166 242.55773979 -112.18969727 244.52392578 C-115.26894782 249.2096815 -118.34463797 253.89775803 -121.41833496 258.5871582 C-122.80067121 260.69592245 -124.18378114 262.8041753 -125.56738281 264.91210938 C-138.41372878 284.49247388 -150.98608851 304.23782324 -163.26220703 324.18066406 C-165.10647525 327.1727418 -166.95723017 330.16074541 -168.80859375 333.1484375 C-177.71966145 347.54947682 -186.44793268 362.04976598 -195.02880859 376.64990234 C-196.364701 378.92029071 -197.70282906 381.18914778 -199.04541016 383.45556641 C-201.01424426 386.78006858 -202.97665983 390.10827821 -204.9375 393.4375 C-205.5351416 394.44441895 -206.1327832 395.45133789 -206.74853516 396.48876953 C-207.29429199 397.41931152 -207.84004883 398.34985352 -208.40234375 399.30859375 C-208.88179443 400.12126709 -209.36124512 400.93394043 -209.85522461 401.77124023 C-211.42635434 404.7465852 -211.42635434 404.7465852 -212 408 C-211.05943701 410.45292529 -210.06602789 412.6600356 -208.87109375 414.984375 C-208.53021729 415.66875641 -208.18934082 416.35313782 -207.83813477 417.05825806 C-206.71778616 419.29577102 -205.5788153 421.52311725 -204.4375 423.75 C-203.65692335 425.29114847 -202.87640616 426.83232705 -202.09594727 428.37353516 C-188.80773609 454.45698373 -173.95406156 480.45774778 -153.87109375 501.97265625 C-152 504 -152 504 -149.625 507.0625 C-136.16197693 522.12826391 -117.4067096 532.10627451 -97.37890625 534.28515625 C-77.31266652 535.04299453 -58.12949207 524.7816563 -43.6875 511.5625 C-41.75943232 509.7370492 -39.87949639 507.87680755 -38 506 C-37.23300781 505.24460937 -36.46601563 504.48921875 -35.67578125 503.7109375 C-18.59700729 485.86561175 -6.74741853 461.86462069 2 439 C2.38510742 438.0006543 2.77021484 437.00130859 3.16699219 435.97167969 C14.1205963 407.24561402 21.33315546 377.95061236 27.2734375 347.8359375 C27.42164948 347.08835175 27.56986145 346.34076599 27.7225647 345.57052612 C28.43801892 341.94147906 29.12736625 338.31066664 29.76855469 334.66772461 C29.95606796 333.64063889 29.95606796 333.64063889 30.14736938 332.59280396 C30.48384554 330.74490574 30.80712944 328.89461893 31.12939453 327.04418945 C32.31227608 322.90808456 34.17170406 320.75297231 37.640625 318.296875 C47.62067834 312.81115032 57.10224231 311.44669622 68.25 314 C79.48662075 317.45241101 90.19317882 323.24002737 99 331 C99.80695312 331.65355469 100.61390625 332.30710937 101.4453125 332.98046875 C109.20141858 339.49132844 117.85719594 348.1353117 118.96986389 358.63267517 C119.02981027 363.34172904 117.86573101 367.83729167 116.82421875 372.40625 C116.58370285 373.507341 116.34318695 374.60843201 116.09538269 375.7428894 C115.30677393 379.331863 114.49818629 382.91595393 113.6875 386.5 C113.13195169 388.99291831 112.57677906 391.48592037 112.02197266 393.97900391 C86.70548344 507.13545534 86.70548344 507.13545534 47.70703125 553.92871094 C46.46073774 555.44094695 45.23120229 556.96703877 44.01171875 558.50097656 C38.24113746 565.71420318 32.03644216 572.36542846 25.5 578.875 C24.97565369 579.39847015 24.45130737 579.92194031 23.91107178 580.46127319 C-12.89131319 617.06215217 -59.64396811 635.97299591 -111.5 636.25 C-147.50125349 636.05704462 -177.36572102 625.77687978 -203.44189453 600.50683594 C-204.51187673 599.47206155 -205.58878343 598.44441412 -206.67138672 597.42285156 C-216.24656823 588.38517672 -224.2634198 578.63555101 -232 568 C-232.87055189 566.82511913 -233.74161471 565.65061662 -234.61328125 564.4765625 C-247.18682282 547.37753893 -257.70245319 528.87581801 -268.4140625 510.58544922 C-269.66707551 508.44992302 -270.92643334 506.31827682 -272.1875 504.1875 C-272.54996826 503.56520508 -272.91243652 502.94291016 -273.28588867 502.30175781 C-275.08770659 499.0968403 -275.08770659 499.0968403 -278 497 C-278.21269531 497.77601563 -278.42539062 498.55203125 -278.64453125 499.3515625 C-280.49371715 504.32891014 -283.05582929 508.77278467 -285.6875 513.375 C-286.54492798 514.88054443 -286.54492798 514.88054443 -287.41967773 516.41650391 C-296.98738403 533.07499105 -307.13141745 549.37316387 -318.46240234 564.89306641 C-320.10553079 567.14460633 -321.73421938 569.40623444 -323.36328125 571.66796875 C-330.71352217 581.81413932 -338.42525657 591.5780257 -346.47802734 601.17382812 C-348.56045465 603.67247365 -350.59000202 606.21266919 -352.625 608.75 C-356.93872816 614.0375362 -361.55881676 619.01213545 -366.21484375 623.99609375 C-368.42787414 626.36894178 -370.57602859 628.78580018 -372.6875 631.25 C-375.88486182 634.95302731 -379.33997634 638.35752292 -382.82421875 641.7890625 C-384.75765423 643.75373841 -386.54228434 645.76452391 -388.3125 647.875 C-391.77164675 651.91470284 -395.65082753 655.44637465 -399.59472656 658.99902344 C-402.33598481 661.46873385 -405.00341234 663.96724872 -407.5625 666.625 C-412.03223091 671.15950962 -417.02073538 675.04568361 -422 679 C-423.40958984 680.18722656 -423.40958984 680.18722656 -424.84765625 681.3984375 C-439.96414708 693.64625376 -461.98432928 697.6175428 -481.1328125 695.68359375 C-500.5233736 693.13944212 -517.4047082 684.35583986 -529.54296875 668.859375 C-539.56286261 654.96243678 -546.26021146 639.26865795 -546.4375 622 C-546.44765137 621.30616211 -546.45780273 620.61232422 -546.46826172 619.89746094 C-546.34553651 612.7379141 -543.93491525 607.51054382 -539.0625 602.375 C-537.87720703 601.10849609 -537.87720703 601.10849609 -536.66796875 599.81640625 C-535.34732422 598.42228516 -535.34732422 598.42228516 -534 597 C-532.99397247 595.90689642 -531.99014812 594.81176198 -530.98828125 593.71484375 C-526.32020335 588.60844523 -521.63159287 583.5566179 -516.68469238 578.71740723 C-514.97527128 576.97479108 -513.39173548 575.166588 -511.80664062 573.31054688 C-508.02177461 568.96212545 -504.0051293 564.89455271 -499.90625 560.84375 C-499.15589478 560.0971814 -498.40553955 559.35061279 -497.63244629 558.5814209 C-494.45783496 555.42298888 -491.27724084 552.27060721 -488.09716797 549.11767578 C-485.76059639 546.79930255 -483.42712001 544.4778448 -481.09375 542.15625 C-480.3862561 541.45705444 -479.67876221 540.75785889 -478.9498291 540.03747559 C-475.70677857 536.81023447 -472.56565018 533.55160126 -469.58203125 530.08203125 C-465.48393829 525.33090884 -461.05038475 520.94379144 -456.59375 516.53125 C-455.71021851 515.65150513 -454.82668701 514.77176025 -453.91638184 513.86535645 C-450.6402768 510.60343055 -447.3596502 507.34607436 -444.07867432 504.08905029 C-440.85169462 500.8851274 -437.6286192 497.67730884 -434.40625 494.46875 C-433.56751343 493.63831177 -432.72877686 492.80787354 -431.86462402 491.95227051 C-427.58321988 487.68859474 -423.45732363 483.3628236 -419.5423584 478.75891113 C-417.93291731 476.92349865 -416.24268116 475.20869383 -414.5 473.5 C-410.7879125 469.83707922 -407.39264078 465.95808091 -404 462 C-403.10452711 460.968437 -402.20866381 459.93721282 -401.3125 458.90625 C-391.31382877 447.36817447 -381.54696085 435.66814392 -373 423 C-376.22923201 417.07527189 -379.62328944 411.29071865 -383.1875 405.5625 C-388.30252653 397.25697243 -393.13251621 388.82457984 -397.77929688 380.24902344 C-398.58040737 378.77305746 -399.38624918 377.29964769 -400.19726562 375.82910156 C-440.01337205 303.59317035 -458.64747947 221.80344808 -468.67712402 140.60644531 C-468.9945015 138.0443871 -469.31747759 135.48308749 -469.64160156 132.921875 C-473.8947471 99.1084528 -477.84527924 64.10605606 -456.41015625 34.94140625 C-446.38351584 22.70467978 -432.7863968 15.04290803 -417 13 C-390.88771041 10.94210605 -368.72731285 16.79030366 -345 27 C-344.90501221 27.99813721 -344.81002441 28.99627441 -344.7121582 30.0246582 C-338.38662317 96.00343387 -326.24898437 160.0729434 -305 223 C-304.51607402 224.44318345 -304.03218701 225.88637997 -303.54833984 227.32958984 C-295.94474052 249.92287552 -287.14109317 271.98990282 -278 294 C-276.02874608 292.02874608 -275.34569284 290.81385956 -274.2578125 288.30859375 C-273.75109009 287.15762207 -273.75109009 287.15762207 -273.23413086 285.98339844 C-272.86811768 285.14325195 -272.50210449 284.30310547 -272.125 283.4375 C-264.86940966 267.05187073 -257.05844545 250.91335517 -248.97265625 234.921875 C-247.54096839 232.08894531 -246.13779485 229.24340646 -244.74609375 226.390625 C-238.8079313 214.2699014 -232.33878224 202.51537583 -225.61279297 190.81542969 C-224.08426589 188.14710176 -222.57222064 185.47025859 -221.06640625 182.7890625 C-200.09725512 145.53752068 -176.34914959 109.67303462 -150 76 C-149.14301585 74.89599889 -148.28624989 73.79182837 -147.4296875 72.6875 C-133.92442979 55.32892096 -119.84304073 38.37260863 -104.94140625 22.19140625 C-103.00841228 20.08192019 -103.00841228 20.08192019 -101.52734375 17.96484375 C-90.15606751 2.71217189 -63.50170164 -5.81900319 -45.32666016 -8.70263672 C-29.92839996 -10.67064101 -12.93291842 -9.42528187 0 0 Z M-76 8 C-76.68465332 8.33612305 -77.36930664 8.67224609 -78.07470703 9.01855469 C-80.1222143 10.03583645 -82.1571196 11.07399135 -84.1875 12.125 C-85.10523193 12.59341309 -85.10523193 12.59341309 -86.04150391 13.07128906 C-90.05239331 15.2159464 -92.92879749 17.66752344 -96 21 C-96.9321204 21.98193344 -97.8644198 22.96369698 -98.796875 23.9453125 C-104.28039782 29.82651298 -109.56213365 35.79249111 -114.59765625 42.06640625 C-117.44961575 45.54904297 -120.40842125 48.92761293 -123.375 52.3125 C-128.98396732 58.73930664 -134.31176629 65.33579564 -139.51953125 72.08984375 C-141.12634837 74.1630194 -142.74946191 76.22272434 -144.375 78.28125 C-151.70010313 87.58102531 -158.70302458 97.04218088 -165.44628906 106.77099609 C-167.07234834 109.10379327 -168.7176379 111.42204261 -170.3671875 113.73828125 C-178.38664451 125.02979358 -185.96792628 136.54661826 -193.30615234 148.29150391 C-194.93176449 150.89089006 -196.5684331 153.48300586 -198.20703125 156.07421875 C-228.79222818 204.68039294 -254.42644149 256.25373781 -277 309 C-319.01627444 245.97558835 -336.12666021 148.90578655 -349.640625 38.8671875 C-349.98796774 34.84293333 -349.98796774 34.84293333 -351 31 C-371.45525033 19.47550018 -402.33309609 14.55179895 -424.9375 20.625 C-426.98273684 21.35129866 -429.00748777 22.13953588 -431 23 C-431.96550781 23.4125 -432.93101562 23.825 -433.92578125 24.25 C-449.1952917 31.6841185 -457.49522962 45.50436522 -463 61 C-469.40006194 82.64336298 -467.14879678 104.48583325 -464.4375 126.5625 C-464.30406189 127.67851593 -464.17062378 128.79453186 -464.03314209 129.94436646 C-459.76389341 165.63165981 -454.40833378 201.03640979 -446 236 C-445.84335876 236.65236633 -445.68671753 237.30473267 -445.52532959 237.97686768 C-431.26189553 297.01958861 -408.14801878 353.55192399 -376.47265625 405.40625 C-375.90949707 406.32921875 -375.34633789 407.2521875 -374.76611328 408.203125 C-373.5316024 410.15813698 -372.24955022 412.08356934 -370.93310547 413.984375 C-370.2732666 414.94859375 -369.61342773 415.9128125 -368.93359375 416.90625 C-368.32443115 417.76541016 -367.71526855 418.62457031 -367.08764648 419.50976562 C-366 422 -366 422 -366.63720703 424.5703125 C-367.92400354 426.86450793 -369.24881404 428.9004144 -370.87109375 430.96875 C-371.43973145 431.69803711 -372.00836914 432.42732422 -372.59423828 433.17871094 C-373.20251465 433.94473633 -373.81079102 434.71076172 -374.4375 435.5 C-375.06640137 436.29954102 -375.69530273 437.09908203 -376.34326172 437.92285156 C-381.31153785 444.20718563 -386.41214155 450.36346803 -391.64794922 456.42578125 C-393.03874116 458.04510708 -394.41328772 459.67712217 -395.78515625 461.3125 C-405.58793364 472.95267404 -415.93984084 484.13155604 -426.83886719 494.75439453 C-428.61140271 496.59621353 -430.25778569 498.46730322 -431.91308594 500.41162109 C-436.81882999 506.05094573 -442.15245609 511.26350308 -447.45271301 516.52787781 C-449.38151763 518.44376469 -451.30704603 520.36289273 -453.23181152 522.28283691 C-458.01002439 527.04777408 -462.79369816 531.80721655 -467.57720947 536.5668335 C-471.63035284 540.60015475 -475.68137892 544.63558074 -479.72969055 548.67375183 C-481.61472776 550.55236917 -483.50278098 552.42791748 -485.39099121 554.30334473 C-490.65499214 559.54511864 -495.84531672 564.77957931 -500.66491699 570.44006348 C-502.33294903 572.38902402 -504.10609396 574.20466104 -505.9375 576 C-506.60523438 576.66 -507.27296875 577.32 -507.9609375 578 C-509.3203125 579.33333333 -510.6796875 580.66666667 -512.0390625 582 C-515.95494152 585.87052135 -519.66677949 589.83695731 -523.25878906 594.00927734 C-526.79965026 598.05753621 -530.55404205 601.91488981 -534.27734375 605.79492188 C-534.87417969 606.42591797 -535.47101562 607.05691406 -536.0859375 607.70703125 C-536.6226709 608.2688208 -537.1594043 608.83061035 -537.71240234 609.40942383 C-541.97978735 614.68094703 -540.59228256 624.5712111 -540 631 C-537.38455697 646.96117698 -529.44945592 660.70792491 -518 672 C-517.29101562 672.71929688 -516.58203125 673.43859375 -515.8515625 674.1796875 C-503.54978801 685.94853313 -487.41166727 690.37231684 -470.73046875 690.21875 C-434.99299688 688.12314956 -413.53672474 664.55825621 -389.5 640.625 C-388.75838623 639.88805908 -388.01677246 639.15111816 -387.25268555 638.3918457 C-383.20639326 634.33365659 -379.33553459 630.18097562 -375.59472656 625.83984375 C-373.33249803 623.22989975 -370.97917048 620.71487522 -368.625 618.1875 C-364.33248792 613.54095872 -360.26661969 608.7590076 -356.30078125 603.828125 C-354.26182372 601.32183424 -352.176249 598.86405682 -350.06689453 596.41699219 C-343.31559105 588.56397158 -337.12313515 580.34763774 -331 572 C-330.21471924 570.93821533 -330.21471924 570.93821533 -329.41357422 569.85498047 C-312.88714747 547.49628873 -298.16614215 523.99949567 -285.25 499.375 C-284.73622803 498.39684326 -284.22245605 497.41868652 -283.69311523 496.41088867 C-282.98650757 495.04347534 -282.98650757 495.04347534 -282.265625 493.6484375 C-281.85086914 492.84583496 -281.43611328 492.04323242 -281.00878906 491.21630859 C-280.06552118 489.14394996 -279.46604082 487.22290042 -279 485 C-275.43380803 488.36059793 -272.7658999 491.6409654 -270.25 495.83984375 C-269.74779434 496.67164406 -269.74779434 496.67164406 -269.23544312 497.52024841 C-268.15007373 499.3219616 -267.07512677 501.12965983 -266 502.9375 C-265.23973492 504.2023705 -264.47882207 505.46685186 -263.71728516 506.73095703 C-260.27777697 512.45153458 -256.87653852 518.19312867 -253.5234375 523.96484375 C-229.69895442 564.9535935 -198.04875533 612.72094988 -149.625 626.2890625 C-148.16937652 626.66178936 -146.71104166 627.02411211 -145.25 627.375 C-144.27788574 627.60848145 -144.27788574 627.60848145 -143.28613281 627.84667969 C-99.00112032 637.49882455 -49.8471445 625.83783295 -12.00878906 602.0612793 C67.26333026 550.53051775 90.10456652 467.55145046 108.875 380.5625 C109.09631592 379.54896454 109.31763184 378.53542908 109.5456543 377.49118042 C110.16424659 374.64353986 110.76843451 371.79327597 111.3671875 368.94140625 C111.64107803 367.68573349 111.64107803 367.68573349 111.92050171 366.4046936 C112.98284611 361.22309584 113.35737496 357.46984128 110.72265625 352.67578125 C100.0653443 337.50478423 84.89644142 324.83543569 66.8125 319.5625 C57.88624708 318.24551186 49.96333467 318.2573314 42 323 C37.52008192 326.7703859 36.2527241 329.4310225 35.33203125 335.17578125 C35.21121185 335.88090851 35.09039246 336.58603577 34.96591187 337.31253052 C34.70426081 338.84107115 34.45063429 340.37100263 34.20419312 341.90206909 C33.52574833 346.07713425 32.76766957 350.23753504 32.0078125 354.3984375 C31.84961533 355.26728073 31.69141815 356.13612396 31.52842712 357.03129578 C21.96413311 408.61705948 5.63410316 464.47213933 -29 505 C-29.74636719 505.89203125 -30.49273438 506.7840625 -31.26171875 507.703125 C-45.70716879 524.3584265 -65.41968198 536.97676025 -87.5859375 539.78125 C-109.88561057 541.210062 -128.77308161 533.0706841 -145.62890625 518.76953125 C-148.12722045 516.55346934 -150.57242458 514.29316269 -153 512 C-153.99773437 511.08154297 -153.99773437 511.08154297 -155.015625 510.14453125 C-177.61521484 488.6014263 -193.04727937 458.76567948 -207.23730469 431.3515625 C-208.89950421 428.19108119 -210.62948611 425.07932313 -212.3828125 421.96875 C-219.21477001 409.50053654 -219.21477001 409.50053654 -218.7265625 403.81640625 C-217.49836697 401.19253398 -216.06711953 399.02811278 -214.28662109 396.74951172 C-212.21533764 393.93303786 -210.55707179 390.88889968 -208.82128906 387.8581543 C-206.58399036 383.9665199 -204.26919519 380.12259058 -201.96142578 376.27246094 C-200.24344638 373.40616819 -198.52960097 370.53747358 -196.81738281 367.66773987 C-183.30581735 345.02760251 -169.5772808 322.52699968 -155.43994141 300.27099609 C-153.9487977 297.91924656 -152.46380937 295.56370949 -150.98046875 293.20703125 C-150.4709668 292.39806396 -149.96146484 291.58909668 -149.43652344 290.75561523 C-148.49770229 289.26466328 -147.55945866 287.77334734 -146.62207031 286.28149414 C-137.41886524 271.68301869 -127.92758988 257.26646042 -118.43920898 242.85253906 C-117.18861024 240.95166801 -115.93925966 239.04997519 -114.69116211 237.14746094 C-107.51586182 226.21027066 -100.25129172 215.36270018 -92.64404297 204.72045898 C-89.89486322 200.87193894 -87.22403915 196.97194716 -84.5625 193.0625 C-79.06470483 185.02766748 -73.36872042 177.1432033 -67.64404297 169.26904297 C-66.03698711 167.05104815 -64.44051093 164.82586587 -62.84765625 162.59765625 C-45.38539821 138.20137697 -26.91297103 114.55563908 -7.45898438 91.71777344 C-5.96156992 89.95475334 -4.47262076 88.18482596 -2.984375 86.4140625 C-1.96965352 85.21277788 -0.95403072 84.01225402 0.0625 82.8125 C0.55975586 82.2246875 1.05701172 81.636875 1.56933594 81.03125 C4.72349078 77.35105887 8.02961184 74.00471766 11.5625 70.6875 C18.35862347 63.92410265 19.25051637 58.18436275 19.4375 48.75 C19.33869526 33.6888646 13.47054486 21.04114535 3.24609375 10.1015625 C-7.74303625 -0.18044087 -21.01863667 -3.64757063 -35.75317383 -3.47070312 C-50.24290576 -2.9260526 -63.10679126 1.6374473 -76 8 Z " fill="#000000" transform="translate(546,9)"/>
<path d="M0 0 C6.517904 4.68956663 12.55343845 10.81246164 14 19 C14.7992898 30.25557271 13.99078008 38.31915226 6.75 47.25 C1.33164802 53.0878373 -4.3711544 56.67129269 -12.35546875 57.23828125 C-23.57071698 57.45549809 -30.8402179 55.69919895 -39.20703125 47.93359375 C-46.38318634 40.19460297 -47.48473506 33.10670258 -47.2734375 22.765625 C-46.64352117 14.09077723 -42.28194806 7.82507911 -36 2 C-25.82502277 -5.66451556 -10.93235165 -7.28107507 0 0 Z " fill="#000000" transform="translate(141,69)"/>
<path d="M0 0 C2.45873768 0.14058476 4.91685175 0.28722999 7.375 0.4375 C8.07367187 0.47681641 8.77234375 0.51613281 9.4921875 0.55664062 C14.7734375 0.88671875 14.7734375 0.88671875 17 2 C16.85941524 4.45873768 16.71277001 6.91685175 16.5625 9.375 C16.52318359 10.07367187 16.48386719 10.77234375 16.44335938 11.4921875 C16.11328125 16.7734375 16.11328125 16.7734375 15 19 C14.01 19 13.02 19 12 19 C11.67 16.03 11.34 13.06 11 10 C9.52466797 11.09054687 9.52466797 11.09054687 8.01953125 12.203125 C-31.77663717 41.19712856 -77.42203263 58.25652955 -127 51 C-156.22729546 46.06552155 -181.74504218 32.38740852 -203 12 C-202.67 10.68 -202.34 9.36 -202 8 C-199.10952333 9.29083253 -197.31801143 10.56161046 -195.25 12.9375 C-171.86348828 36.87135561 -135.44062622 47.63960303 -102.875 48.1875 C-61.70726402 47.77250266 -24.35898943 30.54205845 8 6 C5.36 5.34 2.72 4.68 0 4 C0 2.68 0 1.36 0 0 Z " fill="#000000" transform="translate(544,619)"/>
<path d="M0 0 C0.66 0.33 1.32 0.66 2 1 C2.45605294 3.63213229 2.78281596 6.18994927 3.04296875 8.84375 C3.22712184 10.5412237 3.41171293 12.23864993 3.59667969 13.93603516 C3.69219116 14.84089661 3.78770264 15.74575806 3.8861084 16.67803955 C10.47915791 78.40943773 20.20722766 156.42936562 56 209 C56.66 207.68 57.32 206.36 58 205 C58.99 205.33 59.98 205.66 61 206 C60.34 209.63 59.68 213.26 59 217 C50.375 216.125 50.375 216.125 47 215 C47.33 214.01 47.66 213.02 48 212 C49.65 212 51.3 212 53 212 C52.3709375 210.92105469 51.741875 209.84210938 51.09375 208.73046875 C18.64273809 152.2889329 7.50379026 82.53028782 -0.15625 18.6953125 C-0.23978226 18.00742645 -0.32331451 17.31954041 -0.40937805 16.61080933 C-1.01053944 11.44667018 -1.51692394 6.19328236 -1 1 C-0.67 0.67 -0.34 0.34 0 0 Z " fill="#000000" transform="translate(70,151)"/>
<path d="M0 0 C0.99 0.33 1.98 0.66 3 1 C1.72515583 3.72746137 0.34470496 5.98315488 -1.58203125 8.29296875 C-2.09499756 8.91413574 -2.60796387 9.53530273 -3.13647461 10.17529297 C-3.96610718 11.17133545 -3.96610718 11.17133545 -4.8125 12.1875 C-10.02865474 18.52654161 -15.08912243 24.96035381 -20.04980469 31.50073242 C-23.42171541 35.94391675 -26.83541458 40.35002105 -30.28344727 44.734375 C-36.95129679 53.22588641 -43.29164938 61.89008312 -49.44189453 70.76220703 C-51.0833382 73.11969256 -52.74108984 75.46503075 -54.40234375 77.80859375 C-90.29593627 123.56586351 -90.29593627 123.56586351 -109 176 C-107.35 175.67 -105.7 175.34 -104 175 C-105.35303489 179.05910468 -107.34436731 179.9213069 -111 182 C-112.32 182 -113.64 182 -115 182 C-117.96743313 178.37313728 -119 176.7546322 -119 172 C-116 173 -116 173 -114 176 C-113.57332031 174.77410156 -113.14664062 173.54820312 -112.70703125 172.28515625 C-100.97171266 139.54555177 -81.82570307 110.35778579 -62 82 C-61.4745459 81.24428711 -60.9490918 80.48857422 -60.40771484 79.70996094 C-48.64067455 62.79413223 -36.36042717 46.27703773 -23.62988281 30.07519531 C-22.08040732 28.102376 -20.53555489 26.12603699 -18.9921875 24.1484375 C-14.0026434 17.76407737 -8.94931905 11.44520038 -3.77734375 5.20703125 C-1.88506864 2.92493643 -1.88506864 2.92493643 0 0 Z " fill="#000000" transform="translate(530,135)"/>
<path d="M0 0 C0.99 0.33 1.98 0.66 3 1 C1.47920927 4.50827915 -0.5995673 6.95271646 -3.1875 9.75 C-3.99574219 10.63171875 -4.80398437 11.5134375 -5.63671875 12.421875 C-6.41660156 13.27265625 -7.19648438 14.1234375 -8 15 C-9.17161061 16.32899114 -10.33873392 17.6619604 -11.5 19 C-21.8880466 30.90940811 -32.51052236 42.6230077 -43.7578125 53.7265625 C-46.42071766 56.42658132 -48.88875359 59.2581175 -51.359375 62.1328125 C-55.83381086 67.22514665 -60.77803088 71.71196321 -65.91015625 76.125 C-68.14050773 78.12606301 -70.22200128 80.22860559 -72.3125 82.375 C-77.22580877 87.33861568 -82.53428606 91.6629205 -88 96 C-89.10774933 96.90896507 -90.21448469 97.81916697 -91.3203125 98.73046875 C-99.1115278 105.08394746 -107.12115983 110.29070635 -116 115 C-114.68 115.99 -113.36 116.98 -112 118 C-112.33 118.99 -112.66 119.98 -113 121 C-116.11198065 119.50163895 -119.0534615 117.80066242 -122 116 C-121.46884894 111.48521602 -119.63379708 108.65333143 -117 105 C-116.01 105.33 -115.02 105.66 -114 106 C-114.33 107.32 -114.66 108.64 -115 110 C-101.86404217 102.95085047 -90.74252991 93.87626729 -79.9140625 83.703125 C-77.74063002 81.68701873 -75.54805231 79.73945184 -73.30249023 77.80737305 C-69.11961459 74.1534619 -65.16625736 70.3111189 -61.24609375 66.37890625 C-60.54154556 65.67531479 -59.83699738 64.97172333 -59.11109924 64.24681091 C-57.63346633 62.76985352 -56.15707543 61.29165258 -54.68188477 59.81225586 C-52.44333519 57.56834915 -50.19949527 55.32983296 -47.95507812 53.09179688 C-46.51009596 51.64615382 -45.06542408 50.20020055 -43.62109375 48.75390625 C-42.96048447 48.0953212 -42.29987518 47.43673615 -41.61924744 46.75819397 C-37.79206506 42.9119934 -34.14196333 38.9618488 -30.6051178 34.84666443 C-27.82563173 31.64890657 -24.90542254 28.58293589 -22 25.5 C-14.28740053 17.26803015 -6.9897109 8.85968551 0 0 Z " fill="#000000" transform="translate(249,578)"/>
<path d="M0 0 C3.0625 0.1875 3.0625 0.1875 5.0625 2.1875 C4.90004442 5.92397845 4.47466356 7.71288742 2 10.5625 C1.360625 11.09875 0.72125 11.635 0.0625 12.1875 C1.7125 12.5175 3.3625 12.8475 5.0625 13.1875 C5.0625 13.8475 5.0625 14.5075 5.0625 15.1875 C1.7625 15.1875 -1.5375 15.1875 -4.9375 15.1875 C-2.9375 11.1875 -2.9375 11.1875 -0.8125 8.625 C1.36735538 6.30372611 1.36735538 6.30372611 1.0625 3.1875 C0.4025 3.1875 -0.2575 3.1875 -0.9375 3.1875 C-1.2675 3.8475 -1.5975 4.5075 -1.9375 5.1875 C-2.9275 5.1875 -3.9175 5.1875 -4.9375 5.1875 C-3.82120474 0.24390669 -3.82120474 0.24390669 0 0 Z " fill="#000000" transform="translate(458.9375,682.8125)"/>
<path d="M0 0 C2.875 -0.125 2.875 -0.125 6 0 C6.66 0.66 7.32 1.32 8 2 C7.83754442 5.73647845 7.41216356 7.52538742 4.9375 10.375 C4.298125 10.91125 3.65875 11.4475 3 12 C4.65 12.33 6.3 12.66 8 13 C8 13.66 8 14.32 8 15 C4.7 15 1.4 15 -2 15 C0 11 0 11 2.125 8.4375 C4.30485538 6.11622611 4.30485538 6.11622611 4 3 C3.34 3 2.68 3 2 3 C1.67 3.66 1.34 4.32 1 5 C0.01 5 -0.98 5 -2 5 C-1.34 3.35 -0.68 1.7 0 0 Z " fill="#000000" transform="translate(205,649)"/>
<path d="M0 0 C2.875 -0.125 2.875 -0.125 6 0 C6.66 0.66 7.32 1.32 8 2 C7.83754442 5.73647845 7.41216356 7.52538742 4.9375 10.375 C4.298125 10.91125 3.65875 11.4475 3 12 C4.65 12.33 6.3 12.66 8 13 C8 13.66 8 14.32 8 15 C4.7 15 1.4 15 -2 15 C0 11 0 11 2.125 8.4375 C4.30485538 6.11622611 4.30485538 6.11622611 4 3 C3.34 3 2.68 3 2 3 C1.67 3.66 1.34 4.32 1 5 C0.01 5 -0.98 5 -2 5 C-1.34 3.35 -0.68 1.7 0 0 Z " fill="#000000" transform="translate(484,229)"/>
<path d="M0 0 C2.33944736 0.28730055 4.6739143 0.61936779 7 1 C7.36630156 4.93774177 7.30233203 6.56539771 5 9.875 C4.34 10.57625 3.68 11.2775 3 12 C4.65 12.33 6.3 12.66 8 13 C8 13.66 8 14.32 8 15 C4.7 15 1.4 15 -2 15 C-0.66837689 11.00513068 1.05840921 8.94159079 4 6 C4 5.01 4 4.02 4 3 C2.02 3.66 0.04 4.32 -2 5 C-1.125 1.125 -1.125 1.125 0 0 Z " fill="#000000" transform="translate(223,649)"/>
<path d="M0 0 C0.66 0 1.32 0 2 0 C2.0825 0.515625 2.165 1.03125 2.25 1.5625 C2.96772618 3.89511009 3.85679241 5.49838283 5.125 7.5625 C5.74375 8.696875 6.3625 9.83125 7 11 C6.67 11.99 6.34 12.98 6 14 C5.34 14 4.68 14 4 14 C2.02 10.535 2.02 10.535 0 7 C-0.99 8.485 -0.99 8.485 -2 10 C-2.99 10 -3.98 10 -5 10 C-4.38479725 6.00118212 -2.39731331 3.19641774 0 0 Z " fill="#000000" transform="translate(264,415)"/>
<path d="M0 0 C0 4.95 0 9.9 0 15 C-0.99 15 -1.98 15 -3 15 C-3 11.37 -3 7.74 -3 4 C-3.99 4.33 -4.98 4.66 -6 5 C-5.625 3.0625 -5.625 3.0625 -5 1 C-3 0 -3 0 0 0 Z " fill="#000000" transform="translate(446,683)"/>
<path d="M0 0 C0 4.95 0 9.9 0 15 C-0.99 15 -1.98 15 -3 15 C-3 11.37 -3 7.74 -3 4 C-3.99 4.33 -4.98 4.66 -6 5 C-5.625 3.0625 -5.625 3.0625 -5 1 C-3 0 -3 0 0 0 Z " fill="#000000" transform="translate(47,251)"/>
<path d="M0 0 C0 4.95 0 9.9 0 15 C-0.99 15 -1.98 15 -3 15 C-3 11.37 -3 7.74 -3 4 C-3.99 4.33 -4.98 4.66 -6 5 C-5.625 3.0625 -5.625 3.0625 -5 1 C-3 0 -3 0 0 0 Z " fill="#000000" transform="translate(504,229)"/>
<path d="M0 0 C0 4.95 0 9.9 0 15 C-0.66 15 -1.32 15 -2 15 C-2.33 11.37 -2.66 7.74 -3 4 C-3.99 4.33 -4.98 4.66 -6 5 C-6 4.01 -6 3.02 -6 2 C-3 0 -3 0 0 0 Z " fill="#000000" transform="translate(59,251)"/>
<path d="M0 0 C3.36295835 1.44126786 5.62927102 3.20592655 8 6 C8 6.99 8 7.98 8 9 C4.06326356 7.68775452 1.77280706 6.08089673 -1 3 C-0.67 2.01 -0.34 1.02 0 0 Z " fill="#000000" transform="translate(360,543)"/>
<path d="M0 0 C-3.12621626 3.39417765 -5.56541027 5.6062718 -10 7 C-10 5.68 -10 4.36 -10 3 C-3.375 -1.125 -3.375 -1.125 0 0 Z " fill="#000000" transform="translate(511,584)"/>
<path d="M0 0 C0.66 0 1.32 0 2 0 C2.69965443 1.26418246 3.38434763 2.53665402 4.0625 3.8125 C4.63677734 4.87404297 4.63677734 4.87404297 5.22265625 5.95703125 C6 8 6 8 5 11 C4.34 11 3.68 11 3 11 C2.30034557 9.73581754 1.61565237 8.46334598 0.9375 7.1875 C0.55464844 6.47980469 0.17179688 5.77210938 -0.22265625 5.04296875 C-1 3 -1 3 0 0 Z " fill="#000000" transform="translate(227,349)"/>
<path d="M0 0 C0.99 0.99 1.98 1.98 3 3 C1.71283353 4.00578589 0.42011342 5.00446798 -0.875 6 C-1.95394531 6.8353125 -1.95394531 6.8353125 -3.0546875 7.6875 C-5 9 -5 9 -7 9 C-6.82374165 6.62051228 -6.30280227 5.29774151 -4.59765625 3.62109375 C-3.09350908 2.37884514 -1.54870149 1.18623944 0 0 Z " fill="#000000" transform="translate(92,638)"/>
<path d="M0 0 C0.99 0.33 1.98 0.66 3 1 C-1 8.71428571 -1 8.71428571 -5 10 C-5 6.60406522 -4.47834052 5.93380119 -2.5 3.3125 C-2.0359375 2.68988281 -1.571875 2.06726563 -1.09375 1.42578125 C-0.7328125 0.95527344 -0.371875 0.48476563 0 0 Z " fill="#000000" transform="translate(160,564)"/>
<path d="M0 0 C0.99 0.33 1.98 0.66 3 1 C-0.75 6.75 -0.75 6.75 -3 9 C-3.99 9 -4.98 9 -6 9 C-4.68775452 5.06326356 -3.08089673 2.77280706 0 0 Z " fill="#000000" transform="translate(538,556)"/>
<path d="M0 0 C3.79379058 1.49041773 5.68343758 3.69062512 8 7 C8 7.66 8 8.32 8 9 C3.75177626 8.52797514 1.80010291 6.03344482 -1 3 C-0.67 2.01 -0.34 1.02 0 0 Z " fill="#000000" transform="translate(346,529)"/>
<path d="M0 0 C2.53910197 0.38520564 3.72751123 0.70097943 5.484375 2.62890625 C5.90203125 3.26699219 6.3196875 3.90507813 6.75 4.5625 C7.17796875 5.20316406 7.6059375 5.84382812 8.046875 6.50390625 C8.36140625 6.99761719 8.6759375 7.49132812 9 8 C7.68 8 6.36 8 5 8 C0 2.77272727 0 2.77272727 0 0 Z " fill="#000000" transform="translate(332,515)"/>
<path d="M0 0 C0.99 0.33 1.98 0.66 3 1 C1.6062718 5.43458973 -0.60582235 7.87378374 -4 11 C-5 8 -5 8 -4.00390625 5.95703125 C-3.52824219 5.24933594 -3.05257812 4.54164063 -2.5625 3.8125 C-2.08941406 3.09707031 -1.61632812 2.38164062 -1.12890625 1.64453125 C-0.75636719 1.10183594 -0.38382813 0.55914062 0 0 Z " fill="#000000" transform="translate(219,482)"/>
<path d="M0 0 C0.99 0 1.98 0 3 0 C1.66511872 3.59391114 0.03977277 6.75490696 -2 10 C-2.99 9.67 -3.98 9.34 -5 9 C-3.76067171 5.56801397 -2.49698489 2.69674368 0 0 Z " fill="#000000" transform="translate(230,466)"/>
<path d="M0 0 C0.99 0.33 1.98 0.66 3 1 C1.02 3.97 -0.96 6.94 -3 10 C-3.99 9.67 -4.98 9.34 -6 9 C-4.02 6.03 -2.04 3.06 0 0 Z " fill="#000000" transform="translate(253,432)"/>
<path d="M0 0 C0.99 0 1.98 0 3 0 C2.34 3.3 1.68 6.6 1 10 C-0.32 10.33 -1.64 10.66 -3 11 C-2.01 7.37 -1.02 3.74 0 0 Z " fill="#000000" transform="translate(614,390)"/>
<path d="M0 0 C0.99 0 1.98 0 3 0 C3.67154933 1.28913487 4.33708859 2.58140204 5 3.875 C5.37125 4.59429687 5.7425 5.31359375 6.125 6.0546875 C7 8 7 8 7 10 C5.1875 9.875 5.1875 9.875 3 9 C1.04679411 5.79116175 0 3.7794561 0 0 Z " fill="#000000" transform="translate(235,367)"/>
<path d="M0 0 C1.8125 0.125 1.8125 0.125 4 1 C5.95320589 4.20883825 7 6.2205439 7 10 C6.01 10 5.02 10 4 10 C3.32845067 8.71086513 2.66291141 7.41859796 2 6.125 C1.62875 5.40570313 1.2575 4.68640625 0.875 3.9453125 C0 2 0 2 0 0 Z " fill="#000000" transform="translate(217,332)"/>
<path d="M0 0 C0.99 0 1.98 0 3 0 C3.67154933 1.28913487 4.33708859 2.58140204 5 3.875 C5.37125 4.59429687 5.7425 5.31359375 6.125 6.0546875 C7 8 7 8 7 10 C5.1875 9.875 5.1875 9.875 3 9 C1.04679411 5.79116175 0 3.7794561 0 0 Z " fill="#000000" transform="translate(209,314)"/>
<path d="M0 0 C0.99 0.66 1.98 1.32 3 2 C1.35 4.97 -0.3 7.94 -2 11 C-2.99 10.67 -3.98 10.34 -5 10 C-3.66511872 6.40608886 -2.03977277 3.24509304 0 0 Z " fill="#000000" transform="translate(350,278)"/>
<path d="M0 0 C0.99 0.33 1.98 0.66 3 1 C0.525 5.455 0.525 5.455 -2 10 C-2.99 10 -3.98 10 -5 10 C-4.38545304 6.00544473 -2.29353263 3.25533664 0 0 Z " fill="#000000" transform="translate(382,227)"/>
<path d="M0 0 C0.99 0 1.98 0 3 0 C3.99 3.3 4.98 6.6 6 10 C5.01 10.33 4.02 10.66 3 11 C2.49384702 9.73160474 1.99530901 8.46016898 1.5 7.1875 C1.2215625 6.47980469 0.943125 5.77210938 0.65625 5.04296875 C0 3 0 3 0 0 Z " fill="#000000" transform="translate(171,223)"/>
<path d="M0 0 C0.99 0.33 1.98 0.66 3 1 C1.66511872 4.59391114 0.03977277 7.75490696 -2 11 C-2.99 10.67 -3.98 10.34 -5 10 C-3.66511872 6.40608886 -2.03977277 3.24509304 0 0 Z " fill="#000000" transform="translate(403,192)"/>
<path d="M0 0 C0.99 0 1.98 0 3 0 C1.66511872 3.59391114 0.03977277 6.75490696 -2 10 C-2.99 9.67 -3.98 9.34 -5 9 C-3.76067171 5.56801397 -2.49698489 2.69674368 0 0 Z " fill="#000000" transform="translate(478,73)"/>
<path d="M0 0 C0.99 0 1.98 0 3 0 C1.66511872 3.59391114 0.03977277 6.75490696 -2 10 C-2.99 9.67 -3.98 9.34 -5 9 C-3.76067171 5.56801397 -2.49698489 2.69674368 0 0 Z " fill="#000000" transform="translate(489,56)"/>
<path d="M0 0 C-3.01887244 3.48331435 -5.56909529 4.79157144 -10 6 C-10 4.68 -10 3.36 -10 2 C-3.375 -1.125 -3.375 -1.125 0 0 Z " fill="#000000" transform="translate(78,651)"/>
<path d="M0 0 C0 0.99 0 1.98 0 3 C-2.40545638 4.20272819 -3.94996953 4.10071472 -6.625 4.0625 C-7.85089844 4.04896484 -7.85089844 4.04896484 -9.1015625 4.03515625 C-10.04128906 4.01775391 -10.04128906 4.01775391 -11 4 C-11 3.01 -11 2.02 -11 1 C-9.54182203 0.83197949 -8.0834516 0.66562857 -6.625 0.5 C-5.81289063 0.4071875 -5.00078125 0.314375 -4.1640625 0.21875 C-2 0 -2 0 0 0 Z " fill="#000000" transform="translate(473,598)"/>
<path d="M0 0 C0.99 0 1.98 0 3 0 C1.68775452 3.93673644 0.08089673 6.22719294 -3 9 C-3.99 8.67 -4.98 8.34 -6 8 C-5.07456291 6.65826597 -4.13422595 5.32679841 -3.1875 4 C-2.66542969 3.2575 -2.14335937 2.515 -1.60546875 1.75 C-0.81076172 0.88375 -0.81076172 0.88375 0 0 Z " fill="#000000" transform="translate(134,596)"/>
<path d="M0 0 C-1 2 -1 2 -3.28515625 2.8515625 C-4.65994141 3.23441406 -4.65994141 3.23441406 -6.0625 3.625 C-6.98160156 3.88539063 -7.90070313 4.14578125 -8.84765625 4.4140625 C-9.55792969 4.60742188 -10.26820313 4.80078125 -11 5 C-10.67578125 3.08203125 -10.67578125 3.08203125 -10 1 C-6.36961463 -0.69417984 -3.80522763 -1.46354909 0 0 Z " fill="#000000" transform="translate(493,594)"/>
<path d="M0 0 C0.66 0.33 1.32 0.66 2 1 C0.44499019 4.81684226 -2.03595495 7.19195732 -5 10 C-5.66 9.34 -6.32 8.68 -7 8 C-4.69 5.36 -2.38 2.72 0 0 Z " fill="#000000" transform="translate(148,580)"/>
<path d="M0 0 C3.43198603 1.23932829 6.30325632 2.50301511 9 5 C9 5.99 9 6.98 9 8 C4.56541027 6.6062718 2.12621626 4.39417765 -1 1 C-0.67 0.67 -0.34 0.34 0 0 Z " fill="#000000" transform="translate(406,580)"/>
<path d="M0 0 C0.99 0.99 1.98 1.98 3 3 C1.90716423 4.03295436 0.80029421 5.05107835 -0.3125 6.0625 C-0.92738281 6.63097656 -1.54226563 7.19945312 -2.17578125 7.78515625 C-2.77777344 8.18605469 -3.37976563 8.58695313 -4 9 C-4.99 8.67 -5.98 8.34 -7 8 C-7 7.34 -7 6.68 -7 6 C-5.46875 4.4921875 -5.46875 4.4921875 -3.5 2.875 C-2.8503125 2.33617187 -2.200625 1.79734375 -1.53125 1.2421875 C-1.0259375 0.83226562 -0.520625 0.42234375 0 0 Z " fill="#000000" transform="translate(524,570)"/>
<path d="M0 0 C0.99 0.33 1.98 0.66 3 1 C1.4722133 4.43752007 -0.50181056 7.18953688 -3 10 C-3.66 10 -4.32 10 -5 10 C-4.38545304 6.00544473 -2.29353263 3.25533664 0 0 Z " fill="#000000" transform="translate(172,548)"/>
<path d="M0 0 C0.66 0 1.32 0 2 0 C1.49701212 4.40114397 -0.08772731 6.71195019 -3 10 C-3.99 9.67 -4.98 9.34 -6 9 C-2.25 2.25 -2.25 2.25 0 0 Z " fill="#000000" transform="translate(551,540)"/>
<path d="M0 0 C0.99 0.33 1.98 0.66 3 1 C0.525 5.455 0.525 5.455 -2 10 C-2.99 10 -3.98 10 -5 10 C-3.66511872 6.40608886 -2.03977277 3.24509304 0 0 Z " fill="#000000" transform="translate(562,523)"/>
<path d="M0 0 C0.99 0.33 1.98 0.66 3 1 C1.76067171 4.43198603 0.49698489 7.30325632 -2 10 C-2.99 10 -3.98 10 -5 10 C-4.38545304 6.00544473 -2.29353263 3.25533664 0 0 Z " fill="#000000" transform="translate(196,515)"/>
<path d="M0 0 C0.99 0.33 1.98 0.66 3 1 C1.66511872 4.59391114 0.03977277 7.75490696 -2 11 C-2.99 10.67 -3.98 10.34 -5 10 C-3.35 6.7 -1.7 3.4 0 0 Z " fill="#000000" transform="translate(572,505)"/>
<path d="M0 0 C0.66 0 1.32 0 2 0 C1.49701212 4.40114397 -0.08772731 6.71195019 -3 10 C-3.99 9.67 -4.98 9.34 -6 9 C-2.25 2.25 -2.25 2.25 0 0 Z " fill="#000000" transform="translate(208,499)"/>
<path d="M0 0 C2.96404505 2.80804268 5.44499019 5.18315774 7 9 C5.68 9 4.36 9 3 9 C0.6875 6.1875 0.6875 6.1875 -1 3 C-0.67 2.01 -0.34 1.02 0 0 Z " fill="#000000" transform="translate(297,468)"/>
<path d="M0 0 C0.99 0.33 1.98 0.66 3 1 C2.01 4.3 1.02 7.6 0 11 C-0.99 11 -1.98 11 -3 11 C-2.44894091 7.0507432 -1.61064629 3.65079826 0 0 Z " fill="#000000" transform="translate(596,449)"/>
<path d="M0 0 C0.99 0 1.98 0 3 0 C6.22265625 5.17578125 6.22265625 5.17578125 7 7 C6.67 7.99 6.34 8.98 6 10 C5.34 10 4.68 10 4 10 C0 3.375 0 3.375 0 0 Z " fill="#000000" transform="translate(254,402)"/>
<path d="M0 0 C0.66 0 1.32 0 2 0 C6.06153846 6.4 6.06153846 6.4 5.75 9.4375 C5.5025 9.953125 5.255 10.46875 5 11 C2.38114512 8.63055987 0.58133449 6.16266898 -1 3 C-0.67 2.01 -0.34 1.02 0 0 Z " fill="#000000" transform="translate(245,384)"/>
<path d="M0 0 C0.99 0 1.98 0 3 0 C1.66511872 3.59391114 0.03977277 6.75490696 -2 10 C-2.99 9.67 -3.98 9.34 -5 9 C-3.35 6.03 -1.7 3.06 0 0 Z " fill="#000000" transform="translate(339,296)"/>
<path d="M0 0 C0.66 0.33 1.32 0.66 2 1 C0.79157144 5.43090471 -0.51668565 7.98112756 -4 11 C-4.65234375 9.234375 -4.65234375 9.234375 -5 7 C-4.00390625 5.078125 -4.00390625 5.078125 -2.5625 3.25 C-2.08941406 2.63640625 -1.61632812 2.0228125 -1.12890625 1.390625 C-0.75636719 0.93171875 -0.38382812 0.4728125 0 0 Z " fill="#000000" transform="translate(361,261)"/>
<path d="M0 0 C0.66 0 1.32 0 2 0 C5 6.5 5 6.5 5 11 C4.01 10.67 3.02 10.34 2 10 C1.05078125 7.93359375 1.05078125 7.93359375 0.3125 5.4375 C0.06113281 4.61121094 -0.19023437 3.78492188 -0.44921875 2.93359375 C-0.63097656 2.29550781 -0.81273437 1.65742188 -1 1 C-0.67 0.67 -0.34 0.34 0 0 Z " fill="#000000" transform="translate(179,241)"/>
<path d="M0 0 C0.66 0 1.32 0 2 0 C5.07692308 6.4 5.07692308 6.4 4.6875 9.4375 C4.460625 9.953125 4.23375 10.46875 4 11 C3.34 11 2.68 11 2 11 C1.01 7.7 0.02 4.4 -1 1 C-0.67 0.67 -0.34 0.34 0 0 Z " fill="#000000" transform="translate(158,186)"/>
<path d="M0 0 C2 1 2 1 2.8515625 3.28515625 C3.10679687 4.20167969 3.36203125 5.11820313 3.625 6.0625 C3.88539063 6.98160156 4.14578125 7.90070313 4.4140625 8.84765625 C4.60742188 9.55792969 4.80078125 10.26820313 5 11 C3.68 10.67 2.36 10.34 1 10 C0.63883954 8.5225254 0.28624952 7.04295325 -0.0625 5.5625 C-0.25972656 4.73878906 -0.45695313 3.91507813 -0.66015625 3.06640625 C-0.82837891 2.04353516 -0.82837891 2.04353516 -1 1 C-0.67 0.67 -0.34 0.34 0 0 Z " fill="#000000" transform="translate(152,167)"/>
<path d="M0 0 C0.99 0.33 1.98 0.66 3 1 C0.525 5.455 0.525 5.455 -2 10 C-2.99 10 -3.98 10 -5 10 C-3.84414715 6.08788267 -2.64465038 3.1254959 0 0 Z " fill="#000000" transform="translate(435,141)"/>
<path d="M0 0 C0.99 0 1.98 0 3 0 C1.66511872 3.59391114 0.03977277 6.75490696 -2 10 C-2.99 9.67 -3.98 9.34 -5 9 C-3.35 6.03 -1.7 3.06 0 0 Z " fill="#000000" transform="translate(467,90)"/>
<path d="M0 0 C0.99 0.33 1.98 0.66 3 1 C2.09827532 2.17825358 1.17798498 3.34231577 0.25 4.5 C-0.51570313 5.47453125 -0.51570313 5.47453125 -1.296875 6.46875 C-3 8 -3 8 -7 8 C-6.02133662 6.85373678 -5.04205413 5.70800212 -4.0625 4.5625 C-3.51722656 3.92441406 -2.97195312 3.28632812 -2.41015625 2.62890625 C-1.63204305 1.73008851 -0.84063472 0.84063472 0 0 Z " fill="#000000" transform="translate(107,625)"/>
<path d="M0 0 C3.63 0.33 7.26 0.66 11 1 C11 1.99 11 2.98 11 4 C7.37 3.67 3.74 3.34 0 3 C0 2.01 0 1.02 0 0 Z " fill="#000000" transform="translate(442,598)"/>
<path d="M0 0 C3.45925163 1.2491742 6.14693203 2.67527795 9 5 C8.67 5.99 8.34 6.98 8 8 C1.25 4.375 1.25 4.375 -1 1 C-0.67 0.67 -0.34 0.34 0 0 Z " fill="#000000" transform="translate(390,569)"/>
<path d="M0 0 C0.99 0.33 1.98 0.66 3 1 C-0.625 7.75 -0.625 7.75 -4 10 C-4 5.28093812 -2.71245796 3.72962969 0 0 Z " fill="#000000" transform="translate(184,532)"/>
<path d="M0 0 C4.20626034 1.50223584 5.73900021 4.28550034 8 8 C6.68 8 5.36 8 4 8 C2.515625 6.46875 2.515625 6.46875 1.25 4.5 C0.82203125 3.8503125 0.3940625 3.200625 -0.046875 2.53125 C-0.51867187 1.77328125 -0.51867187 1.77328125 -1 1 C-0.67 0.67 -0.34 0.34 0 0 Z " fill="#000000" transform="translate(320,500)"/>
<path d="M0 0 C0.99 0.33 1.98 0.66 3 1 C1.68 4.3 0.36 7.6 -1 11 C-1.99 10.67 -2.98 10.34 -4 10 C-2.8905928 6.51329166 -1.73662334 3.22515763 0 0 Z " fill="#000000" transform="translate(581,487)"/>
<path d="M0 0 C4.04648443 1.34882814 4.95502599 3.34826069 7 7 C6.67 7.99 6.34 8.98 6 10 C3.03595495 7.19195732 0.55500981 4.81684226 -1 1 C-0.67 0.67 -0.34 0.34 0 0 Z " fill="#000000" transform="translate(308,484)"/>
<path d="M0 0 C0.99 0 1.98 0 3 0 C2.60404157 1.48484412 2.18249294 2.9628831 1.75 4.4375 C1.51796875 5.26121094 1.2859375 6.08492188 1.046875 6.93359375 C0 9 0 9 -2.109375 9.78515625 C-2.73328125 9.85605469 -3.3571875 9.92695313 -4 10 C-3.52449439 8.51965236 -3.04448784 7.04074979 -2.5625 5.5625 C-2.29566406 4.73878906 -2.02882813 3.91507812 -1.75390625 3.06640625 C-1 1 -1 1 0 0 Z " fill="#000000" transform="translate(589,469)"/>
<path d="M0 0 C3.53586014 3.17320782 5.58578031 5.16743695 6 10 C5.01 10 4.02 10 3 10 C-0.22265625 4.82421875 -0.22265625 4.82421875 -1 3 C-0.67 2.01 -0.34 1.02 0 0 Z " fill="#000000" transform="translate(275,435)"/>
<path d="M0 0 C0.66 0.33 1.32 0.66 2 1 C1.34 4.3 0.68 7.6 0 11 C-0.99 11 -1.98 11 -3 11 C-2.69217504 9.35328588 -2.37860766 7.70764424 -2.0625 6.0625 C-1.88847656 5.14597656 -1.71445312 4.22945313 -1.53515625 3.28515625 C-1 1 -1 1 0 0 Z " fill="#000000" transform="translate(609,410)"/>
<path d="M0 0 C0.99 0.33 1.98 0.66 3 1 C1.7508258 4.45925163 0.32472205 7.14693203 -2 10 C-2.99 9.67 -3.98 9.34 -5 9 C-3.35 6.03 -1.7 3.06 0 0 Z " fill="#000000" transform="translate(296,364)"/>
<path d="M0 0 C0.99 0.33 1.98 0.66 3 1 C1.68 3.64 0.36 6.28 -1 9 C-2.32 9 -3.64 9 -5 9 C-3.35 6.03 -1.7 3.06 0 0 Z " fill="#000000" transform="translate(307,347)"/>
<path d="M0 0 C0.99 0.33 1.98 0.66 3 1 C0.525 5.455 0.525 5.455 -2 10 C-2.99 9.67 -3.98 9.34 -5 9 C-3.7508258 5.54074837 -2.32472205 2.85306797 0 0 Z " fill="#000000" transform="translate(318,330)"/>
<path d="M0 0 C0.99 0 1.98 0 3 0 C6 6.625 6 6.625 6 10 C5.01 10 4.02 10 3 10 C0 3.375 0 3.375 0 0 Z " fill="#000000" transform="translate(201,296)"/>
<path d="M0 0 C0.99 0.33 1.98 0.66 3 1 C3.94921875 3.06640625 3.94921875 3.06640625 4.6875 5.5625 C4.93886719 6.38878906 5.19023437 7.21507812 5.44921875 8.06640625 C5.63097656 8.70449219 5.81273437 9.34257812 6 10 C4.078125 9.64453125 4.078125 9.64453125 2 9 C0.21715186 5.70173093 0 3.8225249 0 0 Z " fill="#000000" transform="translate(186,260)"/>
<path d="M0 0 C0.99 0.33 1.98 0.66 3 1 C1.68 3.64 0.36 6.28 -1 9 C-2.32 9 -3.64 9 -5 9 C-3.35 6.03 -1.7 3.06 0 0 Z " fill="#000000" transform="translate(371,244)"/>
<path d="M0 0 C0.99 0 1.98 0 3 0 C1.85569823 3.87302138 0.76679902 7.00263439 -2 10 C-2.66 10 -3.32 10 -4 10 C-3.43768609 6.06380262 -2.38314183 3.20807554 0 0 Z " fill="#000000" transform="translate(392,210)"/>
<path d="M0 0 C0.66 0.33 1.32 0.66 2 1 C0.79157144 5.43090471 -0.51668565 7.98112756 -4 11 C-4.65234375 9.234375 -4.65234375 9.234375 -5 7 C-4.00390625 5.078125 -4.00390625 5.078125 -2.5625 3.25 C-2.08941406 2.63640625 -1.61632812 2.0228125 -1.12890625 1.390625 C-0.75636719 0.93171875 -0.38382812 0.4728125 0 0 Z " fill="#000000" transform="translate(414,175)"/>
<path d="M0 0 C0.99 0.33 1.98 0.66 3 1 C1.7508258 4.45925163 0.32472205 7.14693203 -2 10 C-2.99 9.67 -3.98 9.34 -5 9 C-3.35 6.03 -1.7 3.06 0 0 Z " fill="#000000" transform="translate(424,158)"/>
<path d="M0 0 C0.66 0 1.32 0 2 0 C1.49890042 4.38462134 0.01704885 6.8000997 -3 10 C-3.66 10 -4.32 10 -5 10 C-4.49890042 5.61537866 -3.01704885 3.1999003 0 0 Z " fill="#000000" transform="translate(446,124)"/>
<path d="M0 0 C0.99 0 1.98 0 3 0 C2.38479725 3.99881788 0.39731331 6.80358226 -2 10 C-2.66 10 -3.32 10 -4 10 C-3.43768609 6.06380262 -2.38314183 3.20807554 0 0 Z " fill="#000000" transform="translate(456,107)"/>
<path d="M0 0 C0.99 0.33 1.98 0.66 3 1 C2.07038578 2.15224028 1.1309875 3.29659176 0.1875 4.4375 C-0.59560547 5.39462891 -0.59560547 5.39462891 -1.39453125 6.37109375 C-3 8 -3 8 -6 9 C-5.52797514 4.75177626 -3.03344482 2.80010291 0 0 Z " fill="#000000" transform="translate(121,611)"/>
<path d="M0 0 C1.4835001 0.42257276 2.96176424 0.86356322 4.4375 1.3125 C5.67306641 1.67794922 5.67306641 1.67794922 6.93359375 2.05078125 C7.95646484 2.52064453 7.95646484 2.52064453 9 3 C9.33 3.99 9.66 4.98 10 6 C5.6109185 5.48964169 2.66291938 4.47785723 -1 2 C-0.67 1.34 -0.34 0.68 0 0 Z " fill="#000000" transform="translate(423,591)"/>
<path d="M0 0 C2.64 1.98 5.28 3.96 8 6 C7.67 6.99 7.34 7.98 7 9 C0.42857143 5 0.42857143 5 -1 1 C-0.67 0.67 -0.34 0.34 0 0 Z " fill="#000000" transform="translate(375,556)"/>
<path d="M0 0 C3.80881639 1.44472346 5.29742886 3.32603071 7 7 C6.67 7.99 6.34 8.98 6 10 C2.46413986 6.82679218 0.41421969 4.83256305 0 0 Z " fill="#000000" transform="translate(285,452)"/>
<path d="M0 0 C0.66 0 1.32 0 2 0 C1.53199289 4.05606165 1.12046792 7.46588679 -1 11 C-1.66 11 -2.32 11 -3 11 C-2.53199289 6.94393835 -2.12046792 3.53411321 0 0 Z " fill="#000000" transform="translate(603,430)"/>
<path d="M0 0 C0.66 0.33 1.32 0.66 2 1 C0.80100302 4.0831351 -0.47700477 7.06279492 -2 10 C-2.99 10 -3.98 10 -5 10 C-4.38545304 6.00544473 -2.29353263 3.25533664 0 0 Z " fill="#000000" transform="translate(275,398)"/>
<path d="M0 0 C0.66 0.33 1.32 0.66 2 1 C0.7580393 4.43927579 -0.55740284 7.25207819 -3 10 C-3.66 10 -4.32 10 -5 10 C-4.49701212 5.59885603 -2.91227269 3.28804981 0 0 Z " fill="#000000" transform="translate(286,381)"/>
<path d="M0 0 C0.99 0 1.98 0 3 0 C2.38545304 3.99455527 0.29353263 6.74466336 -2 10 C-2.66 9.67 -3.32 9.34 -4 9 C-2.80100302 5.9168649 -1.52299523 2.93720508 0 0 Z " fill="#000000" transform="translate(328,313)"/>
<path d="M0 0 C0.99 0 1.98 0 3 0 C5.03435531 3.72965139 6 5.66905042 6 10 C5.01 9.67 4.02 9.34 3 9 C2.05078125 6.93359375 2.05078125 6.93359375 1.3125 4.4375 C1.06113281 3.61121094 0.80976563 2.78492188 0.55078125 1.93359375 C0.36902344 1.29550781 0.18726563 0.65742188 0 0 Z " fill="#000000" transform="translate(193,278)"/>
<path d="M0 0 C0.99 0 1.98 0 3 0 C6 6.625 6 6.625 6 10 C5.01 10 4.02 10 3 10 C2.01 6.7 1.02 3.4 0 0 Z " fill="#000000" transform="translate(164,205)"/>
<path d="M0 0 C0.66 0 1.32 0 2 0 C2.99 3.3 3.98 6.6 5 10 C4.01 10.33 3.02 10.66 2 11 C1.01 7.7 0.02 4.4 -1 1 C-0.67 0.67 -0.34 0.34 0 0 Z " fill="#000000" transform="translate(139,130)"/>
<path d="M0 0 C0.66 0 1.32 0 2 0 C1.38479725 3.99881788 -0.60268669 6.80358226 -3 10 C-3.66 10 -4.32 10 -5 10 C-4.49890042 5.61537866 -3.01704885 3.1999003 0 0 Z " fill="#000000" transform="translate(242,449)"/>
<path d="M0 0 C0.99 0.33 1.98 0.66 3 1 C3.73046875 3.06640625 3.73046875 3.06640625 4.1875 5.5625 C4.34605469 6.38878906 4.50460938 7.21507812 4.66796875 8.06640625 C4.77753906 8.70449219 4.88710937 9.34257812 5 10 C4.01 10 3.02 10 2 10 C0.68373308 6.38026598 0 3.90432869 0 0 Z " fill="#000000" transform="translate(145,149)"/>
<path d="M0 0 C0.66 0.33 1.32 0.66 2 1 C1.67 2.98 1.34 4.96 1 7 C0.01 6.67 -0.98 6.34 -2 6 C-1.34 4.02 -0.68 2.04 0 0 Z " fill="#000000" transform="translate(619,374)"/>
<path d="M0 0 C1.65 0 3.3 0 5 0 C5 0.99 5 1.98 5 3 C3.35 3 1.7 3 0 3 C0 2.01 0 1.02 0 0 Z " fill="#000000" transform="translate(53,656)"/>
<path d="M0 0 C0.66 0.33 1.32 0.66 2 1 C1.34 2.65 0.68 4.3 0 6 C-0.99 5.67 -1.98 5.34 -3 5 C-2.01 3.35 -1.02 1.7 0 0 Z " fill="#000000" transform="translate(498,43)"/>
<path d="M0 0 C0.99 0.33 1.98 0.66 3 1 C2.67 1.99 2.34 2.98 2 4 C1.01 3.67 0.02 3.34 -1 3 C-0.67 2.01 -0.34 1.02 0 0 Z " fill="#000000" transform="translate(216,661)"/>
<path d="M0 0 C0.99 0.33 1.98 0.66 3 1 C2.67 1.99 2.34 2.98 2 4 C1.01 3.67 0.02 3.34 -1 3 C-0.67 2.01 -0.34 1.02 0 0 Z " fill="#000000" transform="translate(495,241)"/>
<path d="M0 0 C0.99 0.33 1.98 0.66 3 1 C2.67 1.99 2.34 2.98 2 4 C1.01 3.01 0.02 2.02 -1 1 C-0.67 0.67 -0.34 0.34 0 0 Z " fill="#000000" transform="translate(449,695)"/>
<path d="M0 0 C0.99 0.33 1.98 0.66 3 1 C2.67 1.99 2.34 2.98 2 4 C1.01 3.01 0.02 2.02 -1 1 C-0.67 0.67 -0.34 0.34 0 0 Z " fill="#000000" transform="translate(50,263)"/>
</svg>
