<?xml version="1.0" encoding="UTF-8"?>
<svg version="1.1" xmlns="http://www.w3.org/2000/svg" width="493" height="784">
<path d="M0 0 C0.6733136 0.13504944 1.3466272 0.27009888 2.04034424 0.40924072 C30.1228767 6.05227536 58.44235489 13.28248051 75.83203125 37.9765625 C89.64053334 59.81746123 91.54774966 87.21527269 91.03710938 112.37646484 C91.00083286 114.33014595 90.99227794 116.28427936 90.984375 118.23828125 C89.85555462 158.35171982 63.31915811 200.37688934 37.1484375 229.00390625 C35.23772896 231.11263367 33.39699852 233.26280105 31.5625 235.4375 C9.98982734 259.99414779 -20.39231859 275.77598664 -50 288.375 C-48.99582031 288.53355469 -47.99164063 288.69210937 -46.95703125 288.85546875 C-27.7338401 292.06090987 -10.71804096 299.01551977 2 314.375 C12.14267579 328.65436437 15.06354672 344.31179728 17 361.375 C18.75304443 360.60422119 18.75304443 360.60422119 20.54150391 359.81787109 C24.94339949 357.88265101 29.34567075 355.94828678 33.74804688 354.01416016 C35.64105058 353.18235659 37.53395693 352.35033141 39.42675781 351.51806641 C57.55234157 343.54856371 57.55234157 343.54856371 66.2734375 339.7890625 C67.91578369 339.08064209 67.91578369 339.08064209 69.59130859 338.35791016 C72 337.375 72 337.375 73 337.375 C73 357.505 73 377.635 73 398.375 C47.84807692 412.09423077 47.84807692 412.09423077 36.9375 417.6875 C33.69873687 419.35232093 30.46243809 421.01906053 27.24194336 422.71899414 C24.98354642 423.87259806 22.68830758 424.95565168 20.36938477 425.98217773 C14.0793916 428.68322726 14.0793916 428.68322726 9.79321289 433.69604492 C9.24421188 436.45160262 9.09601556 439.00365679 9.0625 441.8125 C8.91478623 443.87072245 8.75420472 445.92805418 8.58203125 447.984375 C8.50162598 449.03947266 8.4212207 450.09457031 8.33837891 451.18164062 C3.49419224 496.89734163 -23.67576024 545.12878711 -51.59130859 580.58105469 C-53.01060471 582.38850492 -54.40747031 584.21152979 -55.80078125 586.0390625 C-61.07056747 592.90834017 -66.61099854 599.40666323 -72.53125 605.72265625 C-74.49994606 607.8377585 -76.38866052 609.97953352 -78.25 612.1875 C-86.38779555 621.56665419 -95.47031101 630.42151432 -105 638.375 C-106.38832031 639.57962891 -106.38832031 639.57962891 -107.8046875 640.80859375 C-128.05641611 658.33156831 -150.25439553 673.17959303 -173.68994141 686.09667969 C-175.69364235 687.20547044 -177.6826875 688.33528971 -179.66796875 689.4765625 C-197.60974561 699.5107438 -216.93905597 706.92887379 -236.375 713.5 C-237.05624939 713.7340152 -237.73749878 713.9680304 -238.43939209 714.20913696 C-262.76934739 722.514332 -286.86676134 722.8088604 -310.41796875 711.7734375 C-335.66683845 698.80860171 -354.24637193 674.40524804 -364.625 648.3125 C-368.4085126 636.43947713 -364.34559615 625.55700066 -358.8125 614.8125 C-353.37194074 605.18421815 -346.58102726 596.7693354 -339.1015625 588.66015625 C-337.26616919 586.66442189 -335.50272655 584.63037197 -333.75 582.5625 C-326.75200461 574.53682697 -319.05976868 566.93125749 -310.9453125 560.0390625 C-308.64767068 558.07360986 -306.42126877 556.03770129 -304.1875 554 C-299.47156669 549.74851467 -294.60234542 545.72452921 -289.66650391 541.73242188 C-287.76215888 540.18127064 -285.87076869 538.61511071 -283.98046875 537.046875 C-276.06985338 530.48656782 -268.11259866 524.03484109 -259.91748047 517.83154297 C-257.6587958 516.11581688 -255.40949763 514.38811272 -253.16015625 512.66015625 C-242.63005046 504.58326943 -232.00161248 496.67403699 -221.20605469 488.95605469 C-218.19793697 486.80017041 -215.20213943 484.62745367 -212.20556641 482.45556641 C-203.55005232 476.18521013 -194.83849186 469.99800401 -186.09570312 463.85009766 C-184.01513757 462.38565484 -181.93683858 460.91805809 -179.859375 459.44921875 C-172.25318418 454.07158202 -164.63361894 448.71363944 -157 443.375 C-141.91611847 432.82248436 -126.88815931 422.20246978 -112 411.375 C-111.19175781 410.78895996 -110.38351563 410.20291992 -109.55078125 409.59912109 C-101.53931244 403.78388892 -93.52432466 397.96066795 -85.8125 391.75 C-84.87019531 390.99460937 -83.92789062 390.23921875 -82.95703125 389.4609375 C-80.54385757 387.36552282 -80.54385757 387.36552282 -81 383.375 C-95.286923 376.2315385 -120.04123865 386.78026863 -133.8125 391.3125 C-149.97883817 396.70465808 -165.5352535 403.23677756 -181 410.375 C-182.17320801 410.91415039 -183.34641602 411.45330078 -184.55517578 412.00878906 C-197.31122875 417.90875182 -209.74918069 424.19193666 -221.92944336 431.20336914 C-229.68509536 435.66315317 -237.51488956 439.96810555 -245.40274048 444.18859863 C-246.77314639 444.92298609 -248.14201476 445.6602519 -249.50912476 446.40075684 C-281.19794286 463.55156345 -281.19794286 463.55156345 -299.29296875 459.9140625 C-306.9106878 456.95064777 -311.46429961 451.34705848 -314.95703125 444.23046875 C-318.16978446 435.43450398 -318.3421971 426.91619148 -318.31567383 417.67626953 C-318.31254465 415.40737386 -318.33592266 413.1398261 -318.36132812 410.87109375 C-318.51798687 374.38989963 -302.72665571 348.18672736 -277.625 322.8125 C-271.7134951 316.91338972 -265.62528639 311.4707018 -259 306.375 C-257.78350726 305.41840975 -256.56738755 304.46134499 -255.3515625 303.50390625 C-238.37777237 290.23796282 -220.58856626 278.13159883 -202.27978516 266.79296875 C-199.2539053 264.91094795 -196.24751379 262.99895119 -193.24023438 261.08740234 C-176.68807527 250.57558798 -159.94346589 240.3701473 -143.1875 230.1875 C-133.24106023 224.14249491 -123.32478089 218.05086934 -113.4453125 211.89697266 C-111.88927272 210.92848703 -110.33210335 209.96181218 -108.7734375 208.99755859 C-50.15761835 177.35212459 -50.15761835 177.35212459 -11.25 128.375 C-11.1675 127.715 -11.085 127.055 -11 126.375 C-17.02347478 126.22736581 -22.39088017 126.56761749 -28.25 127.9375 C-29.02029541 128.11531006 -29.79059082 128.29312012 -30.58422852 128.47631836 C-59.19996395 135.36417608 -86.31956936 148.23909625 -113 160.375 C-114.0823291 160.86661621 -115.1646582 161.35823242 -116.27978516 161.86474609 C-124.55157255 165.63452769 -132.78569923 169.48186389 -141 173.375 C-141.74862305 173.7294519 -142.49724609 174.08390381 -143.26855469 174.44909668 C-162.96290628 183.78411428 -182.39554592 193.22517617 -201.02246094 204.57666016 C-204.30078941 206.55666733 -207.60336868 208.49282396 -210.9140625 210.41796875 C-225.9668607 219.17494536 -240.903394 228.10842435 -255.7666626 237.18301392 C-259.86198081 239.6830119 -263.9625797 242.17415208 -268.06640625 244.66015625 C-282.66052435 253.50224735 -297.21478691 262.40696967 -311.73828125 271.36474609 C-315.10515476 273.43980871 -318.47408195 275.51151161 -321.84375 277.58203125 C-324.10420806 278.97128683 -326.36460578 280.36064054 -328.625 281.75 C-329.70531494 282.41394775 -330.78562988 283.07789551 -331.89868164 283.76196289 C-338.80704218 288.01240159 -345.69822579 292.28890819 -352.54736328 296.63427734 C-356.89293798 299.375 -356.89293798 299.375 -358 299.375 C-360.12040457 243.24317903 -343.85136902 169.63378502 -305.87109375 126.984375 C-280.23051629 99.97441126 -243.37305652 81.17949659 -210.96728516 63.95263672 C-209.02757712 62.92133893 -207.08966857 61.88664756 -205.15380859 60.84814453 C-153.68890125 33.25232176 -95.82340398 7.14731034 -37.75 -1.5 C-36.95368164 -1.62028564 -36.15736328 -1.74057129 -35.33691406 -1.86450195 C-23.20354929 -3.49009078 -11.95326113 -2.44331899 0 0 Z M-40.625 4.875 C-41.6778418 5.04950684 -42.73068359 5.22401367 -43.81542969 5.40380859 C-107.4025824 16.6289066 -171.84240416 47.57027942 -227.40087891 79.86816406 C-229.94037911 81.34043489 -232.48972822 82.79390191 -235.04296875 84.2421875 C-256.47039656 96.43775622 -277.6877168 109.76759097 -296 126.375 C-296.95519531 127.23480469 -297.91039062 128.09460938 -298.89453125 128.98046875 C-334.92453737 163.09559343 -348.42033591 228.97531 -352 276.375 C-352.05985955 278.58262021 -352.0881777 280.79171768 -352.0625 283 C-352.04896484 284.53527344 -352.04896484 284.53527344 -352.03515625 286.1015625 C-352.02355469 286.85179687 -352.01195312 287.60203125 -352 288.375 C-341.98530241 283.23865627 -332.53399017 277.18814073 -322.9921875 271.23730469 C-305.83806439 260.56076658 -288.57810806 250.05678624 -271.29669189 239.58810425 C-267.20223751 237.10672163 -263.11361802 234.61591927 -259.02734375 232.12109375 C-244.18371119 223.064037 -229.25055891 214.17482662 -214.22406006 205.42448425 C-210.27465451 203.12330832 -206.33615691 200.80433954 -202.40234375 198.4765625 C-192.18910928 192.44485065 -181.98046326 186.63568216 -171.29199219 181.49316406 C-168.59005429 180.17500518 -165.90835699 178.81960933 -163.2265625 177.4609375 C-147.31273152 169.40612086 -131.25071954 161.72633817 -115 154.375 C-114.06414062 153.95090851 -114.06414062 153.95090851 -113.109375 153.51824951 C-97.26341261 146.34562719 -81.29791506 139.55769364 -65.0625 133.3125 C-64.37605408 133.04655029 -63.68960815 132.78060059 -62.98236084 132.5065918 C-24.5033651 117.65338179 -24.5033651 117.65338179 -10 121.375 C-7.375 123 -7.375 123 -6 125.375 C-4.81982676 131.93151801 -7.53773645 136.98387634 -11 142.375 C-13.80405378 145.91125352 -16.84966001 149.14680977 -20 152.375 C-21.03447266 153.48488281 -21.03447266 153.48488281 -22.08984375 154.6171875 C-28.46407195 161.28816748 -35.63989132 166.8544618 -43 172.375 C-43.65049316 172.86452148 -44.30098633 173.35404297 -44.97119141 173.85839844 C-76.25330369 197.2575093 -110.26794082 217.19085522 -143.625 237.4375 C-153.45673008 243.40770266 -163.22196521 249.47979788 -172.96484375 255.59375 C-176.96980386 258.10697097 -180.98285143 260.60636463 -185.00390625 263.09375 C-263.770206 309.82044645 -263.770206 309.82044645 -310.2578125 385.14453125 C-313.94883572 404.25238555 -316.59742547 429.40421125 -306.7421875 446.8984375 C-303.99611159 450.80205213 -301.62655216 453.02990017 -297 454.375 C-275.21949467 457.579613 -253.27464536 441.89758579 -235.20141602 431.54931641 C-222.6784724 424.41913216 -209.86119332 417.86802964 -197 411.375 C-195.5159668 410.62089844 -195.5159668 410.62089844 -194.00195312 409.8515625 C-168.82964391 397.13366168 -142.22586349 386.74553763 -115 379.375 C-114.25137695 379.17165039 -113.50275391 378.96830078 -112.73144531 378.75878906 C-101.37478122 375.79026056 -87.19561475 373.93566461 -76 378.375 C-75.74829734 379.76694606 -75.5246731 381.1639827 -75.3125 382.5625 C-75.18488281 383.33980469 -75.05726563 384.11710937 -74.92578125 384.91796875 C-75.04872742 388.98813398 -77.1231002 391.42439526 -79.8125 394.33984375 C-87.60017723 401.36265982 -96.03921062 407.45657311 -104.53173828 413.59179688 C-106.86779208 415.27948599 -109.19831613 416.97450868 -111.52734375 418.671875 C-121.74943414 426.10622529 -132.08552178 433.37268756 -142.45458984 440.60009766 C-146.70223253 443.56195861 -150.94503712 446.53072631 -155.1875 449.5 C-156.01789795 450.08112549 -156.8482959 450.66225098 -157.70385742 451.26098633 C-165.12598796 456.45786393 -172.52949758 461.68080919 -179.92773438 466.91162109 C-182.0177979 468.3875684 -184.11013089 469.86024322 -186.203125 471.33203125 C-217.15248532 493.1063127 -247.54578607 515.61080467 -277 539.375 C-278.25296875 540.38240234 -278.25296875 540.38240234 -279.53125 541.41015625 C-330.13099108 580.38678805 -330.13099108 580.38678805 -360 634.375 C-361.5384315 652.22080539 -346.13400864 671.6848286 -335.1875 684.7890625 C-320.64114992 701.60713476 -302.20303238 711.67495697 -280 714.375 C-277.60604043 714.48849533 -275.209114 714.54965641 -272.8125 714.5625 C-271.02779297 714.58376953 -271.02779297 714.58376953 -269.20703125 714.60546875 C-258.6432137 714.24960471 -248.81623639 711.31598233 -238.875 707.9375 C-238.22992493 707.72013184 -237.58484985 707.50276367 -236.92022705 707.27880859 C-189.71418246 691.32216172 -146.27368061 666.48732093 -109 633.375 C-108.26370361 632.7262793 -107.52740723 632.07755859 -106.76879883 631.40917969 C-100.62712474 625.95072646 -94.72110673 620.28237309 -88.91333008 614.47363281 C-87.44044028 613.0029359 -85.95969735 611.54046466 -84.47851562 610.078125 C-78.20844847 603.8448374 -72.50894065 597.29399547 -67 590.375 C-65.95200293 589.12696582 -64.89922498 587.88291673 -63.83984375 586.64453125 C-46.23494184 565.80698967 -31.63713143 541.98859263 -19.94287109 517.35986328 C-19.31709562 516.0425265 -18.68465222 514.72833543 -18.04541016 513.41748047 C-7.90874983 492.5430502 -0.8625685 470.21863409 3.0625 447.375 C3.23587891 446.40949219 3.40925781 445.44398438 3.58789062 444.44921875 C4.07532274 441.30667319 4.07532274 441.30667319 4.02148438 437.83203125 C4.16661901 433.90708579 4.50993342 431.01932707 6 427.375 C10.65135616 423.28876188 15.9038218 420.92732079 21.5 418.375 C23.03967632 417.62594341 24.57669751 416.87140587 26.11108398 416.11157227 C29.22006817 414.57728347 32.33913151 413.0674493 35.46826172 411.57470703 C42.12008172 408.37771785 48.58551568 404.84640764 55.0625 401.3125 C56.16078125 400.72275391 57.2590625 400.13300781 58.390625 399.52539062 C62.96634493 397.33991774 62.96634493 397.33991774 67 394.375 C67.09311889 392.87081261 67.11746028 391.36228644 67.11352539 389.85522461 C67.11341209 388.41384377 67.11341209 388.41384377 67.11329651 386.94334412 C67.10813522 385.898564 67.10297394 384.85378387 67.09765625 383.77734375 C67.0962413 382.71334854 67.09482635 381.64935333 67.09336853 380.55311584 C67.08775064 377.13954917 67.07519511 373.726047 67.0625 370.3125 C67.05748731 368.00455824 67.052924 365.69661545 67.04882812 363.38867188 C67.0377754 357.71742574 67.02101987 352.04621747 67 346.375 C53.5506116 352.11830995 40.13015002 357.92201168 26.74462891 363.8125 C24.68180103 364.71986071 22.61828349 365.62563788 20.5546875 366.53125 C19.36343262 367.05525391 18.17217773 367.57925781 16.94482422 368.11914062 C14 369.375 14 369.375 11 370.375 C10.97421875 369.1890625 10.9484375 368.003125 10.921875 366.78125 C10.29649845 346.52705136 6.12210637 326.48091948 -8.59765625 311.484375 C-25.32484485 296.79708745 -46.62454625 294.08506662 -68 293.375 C-68 291.725 -68 290.075 -68 288.375 C-67.1810022 288.09789185 -67.1810022 288.09789185 -66.34545898 287.81518555 C-23.84581457 273.28059865 15.30542104 249.33020337 43 213.375 C43.41572266 212.84632324 43.83144531 212.31764648 44.25976562 211.77294922 C52.70591783 200.99002824 59.53853211 189.43561922 66 177.375 C66.37753418 176.67745605 66.75506836 175.97991211 67.14404297 175.26123047 C72.27662109 165.62046958 75.90367189 155.4335515 79.4375 145.125 C79.77022919 144.17429123 79.77022919 144.17429123 80.10968018 143.20437622 C83.12376418 134.52880076 84.77168803 126.55328913 85 117.375 C85.04797729 116.01109131 85.04797729 116.01109131 85.09692383 114.61962891 C85.8304748 87.53117961 84.18676297 56.42107468 65.625 34.875 C64.11561923 33.34251646 62.57415663 31.84086733 61 30.375 C60.25234375 29.66988281 59.5046875 28.96476562 58.734375 28.23828125 C43.38731319 14.89853381 22.00911836 10.44918051 2.64382935 6.40823364 C0.75126224 6.01330547 -1.13918645 5.60826724 -3.02954102 5.20288086 C-15.68158885 2.68263698 -27.92495856 2.74261032 -40.625 4.875 Z " fill="#000000" transform="translate(366,16.625)"/>
<path d="M0 0 C6.517904 4.68956663 12.55343845 10.81246164 14 19 C14.7992898 30.25557271 13.99078008 38.31915226 6.75 47.25 C1.33164802 53.0878373 -4.3711544 56.67129269 -12.35546875 57.23828125 C-23.57071698 57.45549809 -30.8402179 55.69919895 -39.20703125 47.93359375 C-46.38318634 40.19460297 -47.48473506 33.10670258 -47.2734375 22.765625 C-46.64352117 14.09077723 -42.28194806 7.82507911 -36 2 C-25.82502277 -5.66451556 -10.93235165 -7.28107507 0 0 Z " fill="#000000" transform="translate(124,175)"/>
<path d="M0 0 C1.65 1.32 3.3 2.64 5 4 C4.6282666 4.66306152 4.2565332 5.32612305 3.87353516 6.00927734 C2.75872017 7.9980798 1.64415992 9.98702506 0.52978516 11.97607422 C-0.74835838 14.25681177 -2.02734057 16.53707952 -3.30712891 18.81689453 C-6.19000941 23.95739143 -9.06633907 29.09975483 -11.875 34.28125 C-16.40578523 42.62656933 -21.03281313 50.56847279 -27 58 C-27.89912109 59.16208984 -27.89912109 59.16208984 -28.81640625 60.34765625 C-47.67954625 83.3063423 -83.45032081 92.41931784 -111 99 C-111.99 99 -112.98 99 -114 99 C-112.73327793 96.25327177 -111.40591226 94.13060759 -109.33984375 91.92578125 C-108.80230469 91.34924805 -108.26476562 90.77271484 -107.7109375 90.17871094 C-107.12570313 89.56286133 -106.54046875 88.94701172 -105.9375 88.3125 C-105.32261719 87.6618457 -104.70773438 87.01119141 -104.07421875 86.34082031 C-102.05806212 84.21881546 -100.03088123 82.10791301 -98 80 C-96.96190186 78.91887939 -96.96190186 78.91887939 -95.90283203 77.81591797 C-86.81098261 68.392846 -77.5801201 59.71758696 -67 52 C-66.30793457 51.49017578 -65.61586914 50.98035156 -64.90283203 50.45507812 C-56.95505033 44.60786933 -48.91359677 38.9162902 -40.75 33.375 C-29.47185369 25.6957291 -19.03436072 17.24438593 -9 8 C-7.29474232 6.47571884 -5.58653769 4.95472626 -3.875 3.4375 C-3.12992187 2.77621094 -2.38484375 2.11492188 -1.6171875 1.43359375 C-1.08351563 0.96050781 -0.54984375 0.48742187 0 0 Z M-13 20 C-13.89976562 20.76441406 -14.79953125 21.52882813 -15.7265625 22.31640625 C-23.4771867 28.80417871 -31.42076893 34.80028412 -39.8125 40.4375 C-54.27076621 50.15578286 -68.35169637 59.97977994 -81 72 C-82.3894001 73.21572509 -83.78481591 74.42462611 -85.1875 75.625 C-89.32736554 79.21631192 -93.17237666 83.08075802 -97 87 C-93.58643789 88.16966501 -91.62727127 87.82902552 -88.24609375 86.6640625 C-87.31837158 86.34638916 -86.39064941 86.02871582 -85.43481445 85.70141602 C-84.44570068 85.34619873 -83.45658691 84.99098145 -82.4375 84.625 C-81.41551514 84.26140381 -80.39353027 83.89780762 -79.34057617 83.52319336 C-64.70116865 78.19718986 -50.87292267 72.27749869 -39 62 C-38.278125 61.38898437 -37.55625 60.77796875 -36.8125 60.1484375 C-27.92125293 51.98655054 -22.26077867 40.63679036 -16.375 30.25 C-15.69945068 29.06978271 -15.69945068 29.06978271 -15.01025391 27.86572266 C-14.60210449 27.13144043 -14.19395508 26.3971582 -13.7734375 25.640625 C-13.40653809 24.98610352 -13.03963867 24.33158203 -12.66162109 23.65722656 C-12.44328613 23.1103418 -12.22495117 22.56345703 -12 22 C-12.495 21.01 -12.495 21.01 -13 20 Z " fill="#000000" transform="translate(250,518)"/>
<path d="M0 0 C1.98 0.99 1.98 0.99 4 2 C-3.99956915 14.51855654 -12.89994612 26.26578228 -22 38 C-23.0170239 39.32023792 -24.03396094 40.64054277 -25.05078125 41.9609375 C-30.076783 48.45385842 -35.28605419 54.75757221 -40.66333008 60.96264648 C-43.66019513 64.42146542 -46.5760849 67.92715445 -49.4375 71.5 C-54.0316764 77.16531407 -58.99454031 82.45172725 -63.984375 87.765625 C-66.3383037 90.27628878 -68.62994214 92.82837871 -70.875 95.4375 C-73.50448469 98.4879613 -76.29267132 101.31618497 -79.16723633 104.13476562 C-80.89739543 105.89557761 -82.49941821 107.70949079 -84.09765625 109.58984375 C-88.48825187 114.63769331 -93.19800361 119.34433667 -97.9375 124.0625 C-99.22043945 125.35124023 -99.22043945 125.35124023 -100.52929688 126.66601562 C-104.94214923 131.07213594 -109.41775916 135.33025529 -114.14819336 139.39331055 C-117.11631033 141.96854823 -119.95426155 144.67928803 -122.8125 147.375 C-128.67455065 152.85391009 -134.71971207 158.00296441 -141 163 C-142.14032315 163.93106797 -143.27958739 164.86343387 -144.41796875 165.796875 C-158.53018296 177.31493219 -173.37058846 187.64791158 -189 197 C-189.64259766 197.38784668 -190.28519531 197.77569336 -190.94726562 198.17529297 C-210.68148745 210.00095102 -233.49836336 220.32003922 -256.875 220.0625 C-257.65875 220.05798828 -258.4425 220.05347656 -259.25 220.04882812 C-261.16670014 220.03714093 -263.08336048 220.01920908 -265 220 C-264.62746094 220.45890625 -264.25492187 220.9178125 -263.87109375 221.390625 C-263.16146484 222.31101562 -263.16146484 222.31101562 -262.4375 223.25 C-261.96183594 223.85328125 -261.48617187 224.4565625 -260.99609375 225.078125 C-260 227 -260 227 -260.34765625 229.234375 C-260.56292969 229.81703125 -260.77820313 230.3996875 -261 231 C-264.93677426 229.68774191 -265.8271782 227.8038606 -268.1875 224.4375 C-268.90292969 223.42558594 -269.61835938 222.41367187 -270.35546875 221.37109375 C-270.89816406 220.58863281 -271.44085938 219.80617188 -272 219 C-270.5328827 215.44263493 -268.6293581 213.55804833 -265.625 211.1875 C-264.85414063 210.56230469 -264.08328125 209.93710937 -263.2890625 209.29296875 C-261 208 -261 208 -258.7109375 208.30078125 C-258.14632812 208.53152344 -257.58171875 208.76226563 -257 209 C-258.13719419 212.41158256 -259.04342944 213.11854601 -262 215 C-262.66 215 -263.32 215 -264 215 C-264 215.66 -264 216.32 -264 217 C-217.75008835 212.10435531 -179.93595503 188.65446862 -144.73535156 159.43115234 C-143.19839635 158.16361837 -141.64341834 156.91800793 -140.0859375 155.67578125 C-133.9416916 150.77307176 -128.17861944 145.53858639 -122.47631836 140.13500977 C-119.51385023 137.32920097 -116.53022286 134.58509352 -113.421875 131.94140625 C-107.61622427 126.89631192 -102.24469314 121.39350992 -96.81811523 115.94848633 C-94.94170525 114.06671726 -93.06001031 112.19035262 -91.17773438 110.31445312 C-85.77602405 104.91573958 -80.41719127 99.53252997 -75.46606445 93.71118164 C-72.95259851 90.77747926 -70.27540484 87.99696159 -67.625 85.1875 C-62.89803624 80.14089056 -58.42490857 74.96665852 -54.1015625 69.56640625 C-52.01998573 67.02440637 -49.8496162 64.60470665 -47.625 62.1875 C-43.10466427 57.22061464 -38.99059507 51.9950021 -34.87890625 46.69140625 C-32.97612989 44.23886691 -31.04798518 41.81090354 -29.08984375 39.40234375 C-18.78009025 26.71630117 -9.29046262 13.44583318 0 0 Z " fill="#000000" transform="translate(368,553)"/>
<path d="M0 0 C22.46163494 20.79122854 33.58754299 49.283094 34.8125 79.5625 C35.60285228 102.0628416 33.76773425 127.38537179 25.8125 148.5625 C30.2675 146.5825 30.2675 146.5825 34.8125 144.5625 C35.1425 145.8825 35.4725 147.2025 35.8125 148.5625 C33.90523249 149.76503816 31.9862988 150.94908949 30.0625 152.125 C28.99515625 152.78628906 27.9278125 153.44757813 26.828125 154.12890625 C23.8125 155.5625 23.8125 155.5625 21.62890625 155.609375 C18.90286726 154.03823855 17.9682247 152.00064428 16.5 149.25 C15.96761719 148.28449219 15.43523437 147.31898438 14.88671875 146.32421875 C13.76184488 143.43227029 13.66736465 142.38180984 14.8125 139.5625 C18.50052044 140.79184015 19.53606973 142.50109378 21.8125 145.5625 C25.92268026 127.6741649 25.92268026 127.6741649 28.8125 109.5625 C28.92335938 108.65757812 29.03421875 107.75265625 29.1484375 106.8203125 C32.45097422 74.59826508 27.81753491 40.35827481 7.21484375 14.3671875 C-0.5867344 5.25900358 -8.93756187 -2.18400801 -19.1875 -8.4375 C-19.79770996 -8.81116699 -20.40791992 -9.18483398 -21.03662109 -9.56982422 C-50.37531598 -27.13409267 -85.0006871 -31.87647801 -118.625 -31.75 C-119.5346048 -31.74950653 -120.44420959 -31.74901306 -121.38137817 -31.74850464 C-135.89359014 -31.72452486 -150.04338396 -30.84777804 -164.42529297 -28.80126953 C-168.99880616 -28.19895959 -173.59066048 -27.81406932 -178.1875 -27.4375 C-178.5175 -28.4275 -178.8475 -29.4175 -179.1875 -30.4375 C-173.74083529 -32.54147918 -168.31429507 -33.25846571 -162.5625 -34 C-161.64082031 -34.12568359 -160.71914063 -34.25136719 -159.76953125 -34.38085938 C-105.7133434 -41.56078419 -42.71330728 -37.43925562 0 0 Z " fill="#000000" transform="translate(457.1875,36.4375)"/>
<path d="M0 0 C5.445 1.485 5.445 1.485 11 3 C9.125 11.75 9.125 11.75 8 14 C7.01 14 6.02 14 5 14 C5.33 12.35 5.66 10.7 6 9 C-8.31094251 15.29500172 -8.31094251 15.29500172 -22.3203125 22.22265625 C-24 23 -24 23 -26 23 C-25.90258789 21.21582031 -25.90258789 21.21582031 -25 19 C-22.84434051 17.64922876 -20.8573395 16.59028933 -18.55859375 15.546875 C-17.91632339 15.24179016 -17.27405304 14.93670532 -16.61231995 14.62237549 C-14.5601222 13.65134265 -12.49924121 12.70057576 -10.4375 11.75 C-9.04430368 11.09506344 -7.65171685 10.43882865 -6.25976562 9.78125 C-2.84673275 8.17235217 0.5742216 6.58156612 4 5 C2.68 4.34 1.36 3.68 0 3 C0 2.01 0 1.02 0 0 Z " fill="#000000" transform="translate(416,337)"/>
<path d="M0 0 C1.4540625 0.0309375 1.4540625 0.0309375 2.9375 0.0625 C5.0625 4.6875 5.0625 4.6875 3.9375 8.0625 C4.26300502 9.73071323 4.59596063 11.39749557 4.9375 13.0625 C4.6075 13.7225 4.2775 14.3825 3.9375 15.0625 C1.125 15.9375 1.125 15.9375 -2.0625 16.0625 C-4.4375 14.125 -4.4375 14.125 -6.0625 12.0625 C-2.43923261 10.8547442 -1.42103631 11.51938872 1.9375 13.0625 C1.9375 11.7425 1.9375 10.4225 1.9375 9.0625 C0.6175 9.0625 -0.7025 9.0625 -2.0625 9.0625 C-2.0625 8.0725 -2.0625 7.0825 -2.0625 6.0625 C-0.7425 6.0625 0.5775 6.0625 1.9375 6.0625 C1.6075 5.0725 1.2775 4.0825 0.9375 3.0625 C-1.0425 3.7225 -3.0225 4.3825 -5.0625 5.0625 C-3.9375 0.08035714 -3.9375 0.08035714 0 0 Z " fill="#000000" transform="translate(406.0625,320.9375)"/>
<path d="M0 0 C3.0625 0.1875 3.0625 0.1875 5.0625 2.1875 C4.90004442 5.92397845 4.47466356 7.71288742 2 10.5625 C1.360625 11.09875 0.72125 11.635 0.0625 12.1875 C1.7125 12.5175 3.3625 12.8475 5.0625 13.1875 C5.0625 13.8475 5.0625 14.5075 5.0625 15.1875 C1.7625 15.1875 -1.5375 15.1875 -4.9375 15.1875 C-2.9375 11.1875 -2.9375 11.1875 -0.8125 8.625 C1.36735538 6.30372611 1.36735538 6.30372611 1.0625 3.1875 C0.4025 3.1875 -0.2575 3.1875 -0.9375 3.1875 C-1.2675 3.8475 -1.5975 4.5075 -1.9375 5.1875 C-2.9275 5.1875 -3.9175 5.1875 -4.9375 5.1875 C-3.82120474 0.24390669 -3.82120474 0.24390669 0 0 Z " fill="#000000" transform="translate(269.9375,696.8125)"/>
<path d="M0 0 C0 0.99 0 1.98 0 3 C-0.66 3.66 -1.32 4.32 -2 5 C-0.68 5 0.64 5 2 5 C1.67 5.99 1.34 6.98 1 8 C-1.06640625 8.94921875 -1.06640625 8.94921875 -3.5625 9.6875 C-4.80193359 10.06455078 -4.80193359 10.06455078 -6.06640625 10.44921875 C-6.70449219 10.63097656 -7.34257813 10.81273437 -8 11 C-8.66 9.02 -9.32 7.04 -10 5 C-8.90241493 4.15801693 -7.79664683 3.32669329 -6.6875 2.5 C-6.07261719 2.0359375 -5.45773438 1.571875 -4.82421875 1.09375 C-3 0 -3 0 0 0 Z " fill="#000000" transform="translate(122,389)"/>
<path d="M0 0 C0.99 0 1.98 0 3 0 C3 4.62 3 9.24 3 14 C-3.625 18 -3.625 18 -7 18 C-7 17.01 -7 16.02 -7 15 C-6.030625 14.7525 -5.06125 14.505 -4.0625 14.25 C-0.73936886 12.32917374 -0.73936886 12.32917374 -0.37890625 9.12890625 C-0.14531578 6.0778553 -0.00948705 3.05957276 0 0 Z " fill="#000000" transform="translate(338,417)"/>
<path d="M0 0 C0 4.95 0 9.9 0 15 C-0.99 15 -1.98 15 -3 15 C-3 11.37 -3 7.74 -3 4 C-3.99 4.33 -4.98 4.66 -6 5 C-5.625 3.0625 -5.625 3.0625 -5 1 C-3 0 -3 0 0 0 Z " fill="#000000" transform="translate(257,697)"/>
<path d="M0 0 C0 4.95 0 9.9 0 15 C-0.99 15 -1.98 15 -3 15 C-3 11.37 -3 7.74 -3 4 C-3.99 4.33 -4.98 4.66 -6 5 C-5.625 3.0625 -5.625 3.0625 -5 1 C-3 0 -3 0 0 0 Z " fill="#000000" transform="translate(393,321)"/>
<path d="M0 0 C0 4.95 0 9.9 0 15 C-0.99 15 -1.98 15 -3 15 C-3 11.37 -3 7.74 -3 4 C-3.99 4.33 -4.98 4.66 -6 5 C-5.625 3.0625 -5.625 3.0625 -5 1 C-3 0 -3 0 0 0 Z " fill="#000000" transform="translate(464,6)"/>
<path d="M0 0 C0 4.95 0 9.9 0 15 C-0.66 15 -1.32 15 -2 15 C-2.33 11.37 -2.66 7.74 -3 4 C-3.99 4.33 -4.98 4.66 -6 5 C-6 4.01 -6 3.02 -6 2 C-3 0 -3 0 0 0 Z " fill="#000000" transform="translate(476,6)"/>
<path d="M0 0 C0 0.99 0 1.98 0 3 C-1.26418246 3.69965443 -2.53665402 4.38434763 -3.8125 5.0625 C-4.52019531 5.44535156 -5.22789062 5.82820313 -5.95703125 6.22265625 C-8 7 -8 7 -11 6 C-11 5.34 -11 4.68 -11 4 C-9.73308493 3.32591692 -8.46129251 2.66099503 -7.1875 2 C-6.47980469 1.62875 -5.77210938 1.2575 -5.04296875 0.875 C-3 0 -3 0 0 0 Z " fill="#000000" transform="translate(378,410)"/>
<path d="M0 0 C0.99 0.33 1.98 0.66 3 1 C1.88333826 4.34998521 1.25305075 4.79340222 -1.5625 6.6875 C-2.20316406 7.12449219 -2.84382812 7.56148437 -3.50390625 8.01171875 C-3.99761719 8.33785156 -4.49132812 8.66398438 -5 9 C-5.66 8.67 -6.32 8.34 -7 8 C-5.64458676 3.93376028 -3.42990531 2.46953182 0 0 Z " fill="#000000" transform="translate(202,629)"/>
<path d="M0 0 C0 0.99 0 1.98 0 3 C-1.28913487 3.67154933 -2.58140204 4.33708859 -3.875 5 C-4.59429687 5.37125 -5.31359375 5.7425 -6.0546875 6.125 C-8 7 -8 7 -10 7 C-10.33 6.01 -10.66 5.02 -11 4 C-9.73308493 3.32591692 -8.46129251 2.66099503 -7.1875 2 C-6.47980469 1.62875 -5.77210938 1.2575 -5.04296875 0.875 C-3 0 -3 0 0 0 Z " fill="#000000" transform="translate(286,456)"/>
<path d="M0 0 C0.66 0.99 1.32 1.98 2 3 C-2.95 5.475 -2.95 5.475 -8 8 C-8 6.68 -8 5.36 -8 4 C-5.36 2.68 -2.72 1.36 0 0 Z " fill="#000000" transform="translate(303,446)"/>
<path d="M0 0 C0 0.66 0 1.32 0 2 C-1.26418246 2.69965443 -2.53665402 3.38434763 -3.8125 4.0625 C-4.52019531 4.44535156 -5.22789062 4.82820313 -5.95703125 5.22265625 C-8 6 -8 6 -11 5 C-11 4.34 -11 3.68 -11 3 C-9.73581754 2.30034557 -8.46334598 1.61565237 -7.1875 0.9375 C-6.47980469 0.55464844 -5.77210938 0.17179687 -5.04296875 -0.22265625 C-3 -1 -3 -1 0 0 Z " fill="#000000" transform="translate(360,420)"/>
<path d="M0 0 C-2.54782974 2.97246802 -5.45340883 4.41535288 -9 6 C-9.66 6 -10.32 6 -11 6 C-10.875 4.1875 -10.875 4.1875 -10 2 C-6.45371784 -0.28538184 -4.05371308 -1.71503246 0 0 Z " fill="#000000" transform="translate(397,402)"/>
<path d="M0 0 C0.66 0.99 1.32 1.98 2 3 C0.71283353 4.00578589 -0.57988658 5.00446798 -1.875 6 C-2.95394531 6.8353125 -2.95394531 6.8353125 -4.0546875 7.6875 C-6 9 -6 9 -8 9 C-7.61479436 6.46089803 -7.29902057 5.27248877 -5.37109375 3.515625 C-4.73300781 3.09796875 -4.09492188 2.6803125 -3.4375 2.25 C-2.79683594 1.82203125 -2.15617188 1.3940625 -1.49609375 0.953125 C-1.00238281 0.63859375 -0.50867188 0.3240625 0 0 Z " fill="#000000" transform="translate(154,364)"/>
<path d="M0 0 C0 0.66 0 1.32 0 2 C-1.6796875 3.2890625 -1.6796875 3.2890625 -3.875 4.625 C-4.95394531 5.29402344 -4.95394531 5.29402344 -6.0546875 5.9765625 C-8 7 -8 7 -10 7 C-10.33 6.01 -10.66 5.02 -11 4 C-9.73760288 3.13341385 -8.46472499 2.28207941 -7.1875 1.4375 C-6.47980469 0.96183594 -5.77210938 0.48617188 -5.04296875 -0.00390625 C-3 -1 -3 -1 0 0 Z " fill="#000000" transform="translate(273,281)"/>
<path d="M0 0 C0.33 0.99 0.66 1.98 1 3 C-3.95 5.475 -3.95 5.475 -9 8 C-9 6.68 -9 5.36 -9 4 C-2.25 0 -2.25 0 0 0 Z " fill="#000000" transform="translate(290,270)"/>
<path d="M0 0 C0.99 0.33 1.98 0.66 3 1 C3 3 3 3 1.57421875 4.54296875 C0.95160156 5.08566406 0.32898438 5.62835938 -0.3125 6.1875 C-0.92738281 6.73792969 -1.54226563 7.28835937 -2.17578125 7.85546875 C-2.77777344 8.23316406 -3.37976563 8.61085937 -4 9 C-4.99 8.67 -5.98 8.34 -7 8 C-5.64458676 3.93376028 -3.42990531 2.46953182 0 0 Z " fill="#000000" transform="translate(354,224)"/>
<path d="M0 0 C0 0.66 0 1.32 0 2 C-4.95 4.475 -4.95 4.475 -10 7 C-10.33 6.01 -10.66 5.02 -11 4 C-9.73760288 3.13341385 -8.46472499 2.28207941 -7.1875 1.4375 C-6.47980469 0.96183594 -5.77210938 0.48617187 -5.04296875 -0.00390625 C-3 -1 -3 -1 0 0 Z " fill="#000000" transform="translate(208,128)"/>
<path d="M0 0 C0.66 0.33 1.32 0.66 2 1 C0.65289578 5.04131267 -1.38428334 5.90288434 -5 8 C-5.99 8 -6.98 8 -8 8 C-6.49776416 3.79373966 -3.71449966 2.26099979 0 0 Z " fill="#000000" transform="translate(171,653)"/>
<path d="M0 0 C0.99 0 1.98 0 3 0 C2.38545304 3.99455527 0.29353263 6.74466336 -2 10 C-2.99 9.67 -3.98 9.34 -5 9 C-3.46395304 5.85808576 -1.94268841 2.91403262 0 0 Z " fill="#000000" transform="translate(63,632)"/>
<path d="M0 0 C-0.38520564 2.53910197 -0.70097943 3.72751123 -2.62890625 5.484375 C-3.26699219 5.90203125 -3.90507812 6.3196875 -4.5625 6.75 C-5.20316406 7.17796875 -5.84382812 7.6059375 -6.50390625 8.046875 C-7.24447266 8.51867187 -7.24447266 8.51867187 -8 9 C-8 5 -8 5 -5.6875 2.25 C-3 0 -3 0 0 0 Z " fill="#000000" transform="translate(235,603)"/>
<path d="M0 0 C0.99 0.33 1.98 0.66 3 1 C0.35039045 4.63094642 -2.01824456 6.89851796 -6 9 C-6 5 -6 5 -3.1875 2.1875 C-2.135625 1.465625 -1.08375 0.74375 0 0 Z " fill="#000000" transform="translate(140,564)"/>
<path d="M0 0 C0.66 0.33 1.32 0.66 2 1 C0.68775452 4.93673644 -0.91910327 7.22719294 -4 10 C-4.99 9.67 -5.98 9.34 -7 9 C-6.02180976 7.68677212 -5.0424189 6.37443848 -4.0625 5.0625 C-3.51722656 4.33160156 -2.97195313 3.60070312 -2.41015625 2.84765625 C-1 1 -1 1 0 0 Z " fill="#000000" transform="translate(275,559)"/>
<path d="M0 0 C0.99 0.33 1.98 0.66 3 1 C3 1.66 3 2.32 3 3 C1.25 4.5078125 1.25 4.5078125 -1 6.125 C-1.7425 6.66382813 -2.485 7.20265625 -3.25 7.7578125 C-3.8275 8.16773438 -4.405 8.57765625 -5 9 C-5.66 8.01 -6.32 7.02 -7 6 C-5.90716423 4.96704564 -4.80029421 3.94892165 -3.6875 2.9375 C-3.07261719 2.36902344 -2.45773438 1.80054688 -1.82421875 1.21484375 C-0.92123047 0.61349609 -0.92123047 0.61349609 0 0 Z " fill="#000000" transform="translate(170,538)"/>
<path d="M0 0 C0.99 0.33 1.98 0.66 3 1 C2.07038578 2.15224028 1.1309875 3.29659176 0.1875 4.4375 C-0.59560547 5.39462891 -0.59560547 5.39462891 -1.39453125 6.37109375 C-3 8 -3 8 -6 9 C-6 5 -6 5 -3.1875 2.1875 C-2.135625 1.465625 -1.08375 0.74375 0 0 Z " fill="#000000" transform="translate(231,486)"/>
<path d="M0 0 C0.99 0 1.98 0 3 0 C2.34 3.3 1.68 6.6 1 10 C-0.32 10 -1.64 10 -3 10 C-2.01 6.7 -1.02 3.4 0 0 Z " fill="#000000" transform="translate(332,456)"/>
<path d="M0 0 C0.66 0.33 1.32 0.66 2 1 C1 4 1 4 -1.8125 5.75 C-4.96403086 6.98589446 -5.96929372 7.28222189 -9 6 C-6.45368965 3.02930459 -3.57769851 1.5224249 0 0 Z " fill="#000000" transform="translate(321,437)"/>
<path d="M0 0 C0 0.99 0 1.98 0 3 C-4.95 4.485 -4.95 4.485 -10 6 C-10.33 5.01 -10.66 4.02 -11 3 C-4.5 0 -4.5 0 0 0 Z " fill="#000000" transform="translate(143,386)"/>
<path d="M0 0 C0.99 0 1.98 0 3 0 C3.99 3.3 4.98 6.6 6 10 C5.01 10.33 4.02 10.66 3 11 C2.49384702 9.73160474 1.99530901 8.46016898 1.5 7.1875 C1.2215625 6.47980469 0.943125 5.77210938 0.65625 5.04296875 C0 3 0 3 0 0 Z " fill="#000000" transform="translate(331,378)"/>
<path d="M0 0 C-0.38520564 2.53910197 -0.70097943 3.72751123 -2.62890625 5.484375 C-3.26699219 5.90203125 -3.90507812 6.3196875 -4.5625 6.75 C-5.20316406 7.17796875 -5.84382812 7.6059375 -6.50390625 8.046875 C-7.24447266 8.51867187 -7.24447266 8.51867187 -8 9 C-8.66 8.01 -9.32 7.02 -10 6 C-8.71283353 4.99421411 -7.42011342 3.99553202 -6.125 3 C-5.40570313 2.443125 -4.68640625 1.88625 -3.9453125 1.3125 C-2 0 -2 0 0 0 Z " fill="#000000" transform="translate(172,352)"/>
<path d="M0 0 C0.66 0.33 1.32 0.66 2 1 C0.65289578 5.04131267 -1.38428334 5.90288434 -5 8 C-5.99 8 -6.98 8 -8 8 C-6.49776416 3.79373966 -3.71449966 2.26099979 0 0 Z " fill="#000000" transform="translate(187,340)"/>
<path d="M0 0 C0 0.66 0 1.32 0 2 C-1.42578125 3.2890625 -1.42578125 3.2890625 -3.3125 4.625 C-3.92738281 5.07101562 -4.54226562 5.51703125 -5.17578125 5.9765625 C-7 7 -7 7 -10 7 C-10 6.01 -10 5.02 -10 4 C-8.57421875 2.578125 -8.57421875 2.578125 -6.6875 1.25 C-6.07261719 0.80140625 -5.45773438 0.3528125 -4.82421875 -0.109375 C-3 -1 -3 -1 0 0 Z " fill="#000000" transform="translate(206,329)"/>
<path d="M0 0 C-0.125 1.75 -0.125 1.75 -1 4 C-3.875 6.3125 -3.875 6.3125 -7 8 C-7.99 7.67 -8.98 7.34 -10 7 C-3.18421053 0 -3.18421053 0 0 0 Z " fill="#000000" transform="translate(222,316)"/>
<path d="M0 0 C0 0.99 0 1.98 0 3 C-1.42578125 4.421875 -1.42578125 4.421875 -3.3125 5.75 C-3.92738281 6.19859375 -4.54226562 6.6471875 -5.17578125 7.109375 C-7 8 -7 8 -10 7 C-10 6.34 -10 5.68 -10 5 C-8.57421875 3.7109375 -8.57421875 3.7109375 -6.6875 2.375 C-6.07261719 1.92898438 -5.45773438 1.48296875 -4.82421875 1.0234375 C-3 0 -3 0 0 0 Z " fill="#000000" transform="translate(239,304)"/>
<path d="M0 0 C0.66 0.33 1.32 0.66 2 1 C0.50164772 5.66154042 -2.88463591 6.86610751 -7 9 C-7 7.68 -7 6.36 -7 5 C-5.46875 3.515625 -5.46875 3.515625 -3.5 2.25 C-2.8503125 1.82203125 -2.200625 1.3940625 -1.53125 0.953125 C-1.0259375 0.63859375 -0.520625 0.3240625 0 0 Z " fill="#000000" transform="translate(254,291)"/>
<path d="M0 0 C0.66 0.33 1.32 0.66 2 1 C0.65289578 5.04131267 -1.38428334 5.90288434 -5 8 C-5.99 8 -6.98 8 -8 8 C-8 7.01 -8 6.02 -8 5 C-6.3203125 3.578125 -6.3203125 3.578125 -4.125 2.25 C-3.40570313 1.80140625 -2.68640625 1.3528125 -1.9453125 0.890625 C-1.30335938 0.59671875 -0.66140625 0.3028125 0 0 Z " fill="#000000" transform="translate(138,170)"/>
<path d="M0 0 C-0.125 1.75 -0.125 1.75 -1 4 C-3.875 6.3125 -3.875 6.3125 -7 8 C-7.99 7.67 -8.98 7.34 -10 7 C-10 6.34 -10 5.68 -10 5 C-8.3203125 3.7109375 -8.3203125 3.7109375 -6.125 2.375 C-5.40570313 1.92898437 -4.68640625 1.48296875 -3.9453125 1.0234375 C-2 0 -2 0 0 0 Z " fill="#000000" transform="translate(156,159)"/>
<path d="M0 0 C-0.125 1.75 -0.125 1.75 -1 4 C-3.875 6.3125 -3.875 6.3125 -7 8 C-7.99 7.67 -8.98 7.34 -10 7 C-10 6.34 -10 5.68 -10 5 C-8.3203125 3.7109375 -8.3203125 3.7109375 -6.125 2.375 C-5.40570313 1.92898437 -4.68640625 1.48296875 -3.9453125 1.0234375 C-2 0 -2 0 0 0 Z " fill="#000000" transform="translate(173,148)"/>
<path d="M0 0 C0 0.99 0 1.98 0 3 C-4.95 4.485 -4.95 4.485 -10 6 C-10.33 5.01 -10.66 4.02 -11 3 C-4.5 0 -4.5 0 0 0 Z " fill="#000000" transform="translate(280,93)"/>
<path d="M0 0 C0.33 0.99 0.66 1.98 1 3 C-5.4 6.07692308 -5.4 6.07692308 -8.4375 5.6875 C-8.953125 5.460625 -9.46875 5.23375 -10 5 C-10 4.34 -10 3.68 -10 3 C-5.05 1.515 -5.05 1.515 0 0 Z " fill="#000000" transform="translate(298,86)"/>
<path d="M0 0 C0 0.99 0 1.98 0 3 C-3.63 3.33 -7.26 3.66 -11 4 C-11 3.01 -11 2.02 -11 1 C-7.26562152 0.12132271 -3.83225427 -0.08912219 0 0 Z " fill="#000000" transform="translate(101,690)"/>
<path d="M0 0 C0.515625 0.2475 1.03125 0.495 1.5625 0.75 C-1.16228774 4.11591427 -4.50606792 5.19226276 -8.4375 6.75 C-8.7675 5.76 -9.0975 4.77 -9.4375 3.75 C-3.0375 -0.31153846 -3.0375 -0.31153846 0 0 Z " fill="#000000" transform="translate(137.4375,675.25)"/>
<path d="M0 0 C3.39417765 3.12621626 5.6062718 5.56541027 7 10 C5.25 9.875 5.25 9.875 3 9 C0.6875 6.125 0.6875 6.125 -1 3 C-0.67 2.01 -0.34 1.02 0 0 Z " fill="#000000" transform="translate(59,670)"/>
<path d="M0 0 C-1.45124634 3.82601307 -3.35774704 5.22329124 -7 7 C-7.99 7 -8.98 7 -10 7 C-10 6.01 -10 5.02 -10 4 C-3.375 0 -3.375 0 0 0 Z " fill="#000000" transform="translate(156,665)"/>
<path d="M0 0 C-1.48781815 3.78717347 -3.61988409 5.77407001 -7 8 C-7.99 7.67 -8.98 7.34 -10 7 C-10 6.34 -10 5.68 -10 5 C-8.57421875 3.7109375 -8.57421875 3.7109375 -6.6875 2.375 C-6.07261719 1.92898438 -5.45773438 1.48296875 -4.82421875 1.0234375 C-3 0 -3 0 0 0 Z " fill="#000000" transform="translate(189,642)"/>
<path d="M0 0 C-1.48781815 3.78717347 -3.61988409 5.77407001 -7 8 C-7.99 7.67 -8.98 7.34 -10 7 C-4.65789474 0 -4.65789474 0 0 0 Z " fill="#000000" transform="translate(96,603)"/>
<path d="M0 0 C0.99 0 1.98 0 3 0 C3 0.99 3 1.98 3 3 C1.57421875 4.421875 1.57421875 4.421875 -0.3125 5.75 C-0.92738281 6.19859375 -1.54226562 6.6471875 -2.17578125 7.109375 C-4 8 -4 8 -7 7 C-4.66666667 4.66666667 -2.33333333 2.33333333 0 0 Z " fill="#000000" transform="translate(109,590)"/>
<path d="M0 0 C-0.33589994 3.13506611 -1.02665172 4.025249 -3.375 6.25 C-6 8 -6 8 -9 8 C-7.13554727 3.64961029 -5.02378599 0 0 0 Z " fill="#000000" transform="translate(127,577)"/>
<path d="M0 0 C0.99 0.33 1.98 0.66 3 1 C1.4169423 5.2742558 -1.50568404 7.26531794 -5 10 C-5 4.69520066 -3.4637943 3.81017373 0 0 Z " fill="#000000" transform="translate(261,574)"/>
<path d="M0 0 C0.66 0.33 1.32 0.66 2 1 C0.49776416 5.20626034 -2.28550034 6.73900021 -6 9 C-6 5 -6 5 -4.6875 3.515625 C-3.125 2.34375 -1.5625 1.171875 0 0 Z " fill="#000000" transform="translate(201,512)"/>
<path d="M0 0 C-0.17625835 2.37948772 -0.69719773 3.70225849 -2.40234375 5.37890625 C-3.90649092 6.62115486 -5.45129851 7.81376056 -7 9 C-7.66 8.67 -8.32 8.34 -9 8 C-7.47364599 4.11473526 -4.49771687 0 0 0 Z " fill="#000000" transform="translate(218,499)"/>
<path d="M0 0 C0 0.99 0 1.98 0 3 C-3.64977257 5.90322818 -5.25852179 7 -10 7 C-8.60449526 2.81348579 -4.64858615 0 0 0 Z " fill="#000000" transform="translate(249,474)"/>
<path d="M0 0 C0.66 0.99 1.32 1.98 2 3 C-1.3 4.32 -4.6 5.64 -8 7 C-8 5.68 -8 4.36 -8 3 C-5.36 2.01 -2.72 1.02 0 0 Z " fill="#000000" transform="translate(160,378)"/>
<path d="M0 0 C-1.49835228 4.66154042 -4.88463591 5.86610751 -9 8 C-9 6.68 -9 5.36 -9 4 C-4 0 -4 0 0 0 Z " fill="#000000" transform="translate(139,377)"/>
<path d="M0 0 C3.80881639 1.44472346 5.29742886 3.32603071 7 7 C6.67 7.99 6.34 8.98 6 10 C5.34 10 4.68 10 4 10 C2.35 7.03 0.7 4.06 -1 1 C-0.67 0.67 -0.34 0.34 0 0 Z " fill="#000000" transform="translate(322,361)"/>
<path d="M0 0 C-0.33 0.99 -0.66 1.98 -1 3 C-4.6037898 4.52160014 -7.05220686 5 -11 5 C-11 4.01 -11 3.02 -11 2 C-7.12315913 0.80712589 -4.08378077 0 0 0 Z " fill="#000000" transform="translate(219,359)"/>
<path d="M0 0 C0 0.99 0 1.98 0 3 C-3.3 3.66 -6.6 4.32 -10 5 C-10 3.68 -10 2.36 -10 1 C-6.59437148 0.22157062 -3.49234244 -0.09978121 0 0 Z " fill="#000000" transform="translate(258,349)"/>
<path d="M0 0 C1.8871875 0.0309375 1.8871875 0.0309375 3.8125 0.0625 C3.8125 1.0525 3.8125 2.0425 3.8125 3.0625 C0.1825 3.3925 -3.4475 3.7225 -7.1875 4.0625 C-7.1875 3.0725 -7.1875 2.0825 -7.1875 1.0625 C-4.43671116 0.14557039 -2.82801087 -0.04636083 0 0 Z " fill="#000000" transform="translate(274.1875,345.9375)"/>
<path d="M0 0 C3.63 0 7.26 0 11 0 C11 0.99 11 1.98 11 3 C7.37 3 3.74 3 0 3 C0 2.01 0 1.02 0 0 Z " fill="#000000" transform="translate(287,345)"/>
<path d="M0 0 C0.99 0.33 1.98 0.66 3 1 C3 1.66 3 2.32 3 3 C0.03 4.65 -2.94 6.3 -6 8 C-6 6.68 -6 5.36 -6 4 C-3.1875 1.6875 -3.1875 1.6875 0 0 Z " fill="#000000" transform="translate(305,260)"/>
<path d="M0 0 C0.99 0.33 1.98 0.66 3 1 C3 1.66 3 2.32 3 3 C0.03 4.65 -2.94 6.3 -6 8 C-6 6.68 -6 5.36 -6 4 C-3.1875 1.6875 -3.1875 1.6875 0 0 Z " fill="#000000" transform="translate(322,249)"/>
<path d="M0 0 C-0.125 1.75 -0.125 1.75 -1 4 C-3.875 6.3125 -3.875 6.3125 -7 8 C-7.99 7.67 -8.98 7.34 -10 7 C-3.18421053 0 -3.18421053 0 0 0 Z " fill="#000000" transform="translate(341,237)"/>
<path d="M0 0 C0.66 0.33 1.32 0.66 2 1 C0.55527654 4.80881639 -1.32603071 6.29742886 -5 8 C-5.99 7.67 -6.98 7.34 -8 7 C-8 6.34 -8 5.68 -8 5 C-6.3203125 3.67578125 -6.3203125 3.67578125 -4.125 2.3125 C-3.40570313 1.85488281 -2.68640625 1.39726562 -1.9453125 0.92578125 C-1.30335938 0.62027344 -0.66140625 0.31476563 0 0 Z " fill="#000000" transform="translate(188,137)"/>
<path d="M0 0 C0.99 0 1.98 0 3 0 C3 3.63 3 7.26 3 11 C2.01 11 1.02 11 0 11 C0 7.37 0 3.74 0 0 Z " fill="#000000" transform="translate(407,120)"/>
<path d="M0 0 C0.66 0.33 1.32 0.66 2 1 C1 4 1 4 -1.875 5.6875 C-5 7 -5 7 -8 7 C-8 6.01 -8 5.02 -8 4 C-6.71349294 3.30289269 -5.42059335 2.61757124 -4.125 1.9375 C-3.40570313 1.55464844 -2.68640625 1.17179687 -1.9453125 0.77734375 C-1.30335938 0.52082031 -0.66140625 0.26429687 0 0 Z " fill="#000000" transform="translate(241,108)"/>
<path d="M0 0 C-0.21484375 1.890625 -0.21484375 1.890625 -1 4 C-3.06640625 5.046875 -3.06640625 5.046875 -5.5625 5.75 C-6.80193359 6.11351563 -6.80193359 6.11351563 -8.06640625 6.484375 C-9.02353516 6.73960938 -9.02353516 6.73960938 -10 7 C-9.71484375 5.109375 -9.71484375 5.109375 -9 3 C-3.10714286 0 -3.10714286 0 0 0 Z " fill="#000000" transform="translate(261,100)"/>
<path d="M0 0 C0 0.66 0 1.32 0 2 C-3.63 2.66 -7.26 3.32 -11 4 C-11 3.01 -11 2.02 -11 1 C-6.87831311 -0.62950412 -4.29299643 -1.26264601 0 0 Z " fill="#000000" transform="translate(319,83)"/>
<path d="M0 0 C0.556875 0.28875 1.11375 0.5775 1.6875 0.875 C4.08494645 2.0413253 6.51596939 3.0339881 9 4 C9 4.99 9 5.98 9 7 C4.96825194 6.72510809 3.43105369 6.46508424 0.625 3.4375 C-0.179375 2.2309375 -0.179375 2.2309375 -1 1 C-0.67 0.67 -0.34 0.34 0 0 Z " fill="#000000" transform="translate(72,686)"/>
<path d="M0 0 C0.66 0.33 1.32 0.66 2 1 C0.49776416 5.20626034 -2.28550034 6.73900021 -6 9 C-6 5 -6 5 -4.6875 3.515625 C-3.125 2.34375 -1.5625 1.171875 0 0 Z " fill="#000000" transform="translate(218,616)"/>
<path d="M0 0 C0.66 0.33 1.32 0.66 2 1 C0.4169423 5.2742558 -2.50568404 7.26531794 -6 10 C-6 6 -6 6 -4.6875 4.296875 C-4.130625 3.78640625 -3.57375 3.2759375 -3 2.75 C-2.1646875 1.96882812 -2.1646875 1.96882812 -1.3125 1.171875 C-0.879375 0.78515625 -0.44625 0.3984375 0 0 Z " fill="#000000" transform="translate(78,616)"/>
<path d="M0 0 C0.99 0.33 1.98 0.66 3 1 C2.09827532 2.17825358 1.17798498 3.34231577 0.25 4.5 C-0.51570312 5.47453125 -0.51570312 5.47453125 -1.296875 6.46875 C-3 8 -3 8 -7 8 C-6.02133662 6.85373678 -5.04205413 5.70800212 -4.0625 4.5625 C-3.51722656 3.92441406 -2.97195312 3.28632812 -2.41015625 2.62890625 C-1.63204305 1.73008851 -0.84063472 0.84063472 0 0 Z " fill="#000000" transform="translate(247,589)"/>
<path d="M0 0 C0.99 0.33 1.98 0.66 3 1 C-1.43076923 6.78461538 -1.43076923 6.78461538 -4.3125 7.875 C-5.1478125 7.936875 -5.1478125 7.936875 -6 8 C-6 7.01 -6 6.02 -6 5 C-3.1875 2.25 -3.1875 2.25 0 0 Z " fill="#000000" transform="translate(155,551)"/>
<path d="M0 0 C0.99 0.33 1.98 0.66 3 1 C1.03681826 4.53372712 -1.04070881 7.24479785 -4 10 C-4.8125 8.375 -4.8125 8.375 -5 6 C-3.53181864 3.75390165 -1.84147142 1.97621323 0 0 Z " fill="#000000" transform="translate(287,544)"/>
<path d="M0 0 C0.66 0.33 1.32 0.66 2 1 C1.3543999 4.48624056 0.07639763 7.12498789 -2 10 C-2.99 10 -3.98 10 -5 10 C-4.38545304 6.00544473 -2.29353263 3.25533664 0 0 Z " fill="#000000" transform="translate(299,527)"/>
<path d="M0 0 C0.99 0.33 1.98 0.66 3 1 C1.88333826 4.34998521 1.25305075 4.79340222 -1.5625 6.6875 C-2.20316406 7.12449219 -2.84382812 7.56148437 -3.50390625 8.01171875 C-3.99761719 8.33785156 -4.49132812 8.66398438 -5 9 C-5 5 -5 5 -2.5 2.25 C-1.675 1.5075 -0.85 0.765 0 0 Z " fill="#000000" transform="translate(185,525)"/>
<path d="M0 0 C0.99 0 1.98 0 3 0 C2.54917531 1.46067199 2.08906463 2.91848032 1.625 4.375 C1.36976563 5.18710937 1.11453125 5.99921875 0.8515625 6.8359375 C0 9 0 9 -2 11 C-2.66 10.34 -3.32 9.68 -4 9 C-2.68 6.03 -1.36 3.06 0 0 Z " fill="#000000" transform="translate(326,475)"/>
<path d="M0 0 C0.66 0 1.32 0 2 0 C3.28317892 3.84953676 3.06643637 6.94738135 3 11 C2.01 11 1.02 11 0 11 C-0.19406478 9.35492782 -0.38007935 7.70890406 -0.5625 6.0625 C-0.66691406 5.14597656 -0.77132813 4.22945313 -0.87890625 3.28515625 C-0.91886719 2.53105469 -0.95882813 1.77695312 -1 1 C-0.67 0.67 -0.34 0.34 0 0 Z " fill="#000000" transform="translate(337,397)"/>
<path d="M0 0 C0.66 0.99 1.32 1.98 2 3 C-4.5 6 -4.5 6 -9 6 C-9 5.01 -9 4.02 -9 3 C-6.03 2.01 -3.06 1.02 0 0 Z " fill="#000000" transform="translate(179,371)"/>
<path d="M0 0 C0 0.99 0 1.98 0 3 C-3.50776784 4.60355101 -6.14354879 5.22036864 -10 5 C-10 4.01 -10 3.02 -10 2 C-8.7090864 1.66376204 -7.41723903 1.33110751 -6.125 1 C-5.40570313 0.814375 -4.68640625 0.62875 -3.9453125 0.4375 C-2 0 -2 0 0 0 Z " fill="#000000" transform="translate(238,353)"/>
<path d="M0 0 C-0.57363911 3.87206399 -2.34105893 6.18465063 -5 9 C-5.99 9 -6.98 9 -8 9 C-6.68994234 5.06982701 -4.75047804 0 0 0 Z " fill="#000000" transform="translate(384,195)"/>
<path d="M0 0 C0.99 0.33 1.98 0.66 3 1 C0.525 5.455 0.525 5.455 -2 10 C-2.99 9.67 -3.98 9.34 -5 9 C-3.35 6.03 -1.7 3.06 0 0 Z " fill="#000000" transform="translate(393,178)"/>
<path d="M0 0 C0.99 0.33 1.98 0.66 3 1 C1.68 4.3 0.36 7.6 -1 11 C-1.99 10.67 -2.98 10.34 -4 10 C-3.52449439 8.51965236 -3.04448784 7.04074979 -2.5625 5.5625 C-2.29566406 4.73878906 -2.02882813 3.91507813 -1.75390625 3.06640625 C-1 1 -1 1 0 0 Z " fill="#000000" transform="translate(402,160)"/>
<path d="M0 0 C0.99 0.33 1.98 0.66 3 1 C2.34 4.3 1.68 7.6 1 11 C0.01 11 -0.98 11 -2 11 C-1.85892253 9.54119891 -1.71197585 8.08296449 -1.5625 6.625 C-1.48128906 5.81289062 -1.40007812 5.00078125 -1.31640625 4.1640625 C-1 2 -1 2 0 0 Z " fill="#000000" transform="translate(407,140)"/>
<path d="M0 0 C-0.74324341 2.39489543 -1.47057354 3.70777616 -3.69140625 4.93359375 C-5.44073501 5.67219923 -7.21934149 6.34049685 -9 7 C-9 5.68 -9 4.36 -9 3 C-3.375 0 -3.375 0 0 0 Z " fill="#000000" transform="translate(225,118)"/>
<path d="M0 0 C0.99 0.33 1.98 0.66 3 1 C3.94921875 3.06640625 3.94921875 3.06640625 4.6875 5.5625 C4.93886719 6.38878906 5.19023437 7.21507813 5.44921875 8.06640625 C5.63097656 8.70449219 5.81273437 9.34257813 6 10 C5.01 10 4.02 10 3 10 C1.68 7.03 0.36 4.06 -1 1 C-0.67 0.67 -0.34 0.34 0 0 Z " fill="#000000" transform="translate(401,101)"/>
<path d="M0 0 C3.63 0.66 7.26 1.32 11 2 C10.67 2.99 10.34 3.98 10 5 C6.7 4.34 3.4 3.68 0 3 C0 2.01 0 1.02 0 0 Z " fill="#000000" transform="translate(368,81)"/>
<path d="M0 0 C0.99 0 1.98 0 3 0 C1.6302836 3.99500618 -0.25722422 6.80009492 -3 10 C-3.66 9.34 -4.32 8.68 -5 8 C-4.24266726 6.6589523 -3.46867264 5.32730219 -2.6875 4 C-2.25824219 3.2575 -1.82898438 2.515 -1.38671875 1.75 C-0.70029297 0.88375 -0.70029297 0.88375 0 0 Z " fill="#000000" transform="translate(309,511)"/>
<path d="M0 0 C0.99 0 1.98 0 3 0 C2.67 3.3 2.34 6.6 2 10 C1.01 10 0.02 10 -1 10 C-0.67 6.7 -0.34 3.4 0 0 Z " fill="#000000" transform="translate(336,437)"/>
<path d="M0 0 C-1 2 -1 2 -3.06640625 2.8515625 C-4.30197266 3.23441406 -4.30197266 3.23441406 -5.5625 3.625 C-6.38878906 3.88539063 -7.21507812 4.14578125 -8.06640625 4.4140625 C-8.70449219 4.60742188 -9.34257812 4.80078125 -10 5 C-10 3.68 -10 2.36 -10 1 C-3.71428571 -1.42857143 -3.71428571 -1.42857143 0 0 Z " fill="#000000" transform="translate(200,366)"/>
<path d="M0 0 C4.83256305 0.41421969 6.82679218 2.46413986 10 6 C5.66905042 6 3.72965139 5.03435531 0 3 C0 2.01 0 1.02 0 0 Z " fill="#000000" transform="translate(307,348)"/>
<path d="M0 0 C0.66 0 1.32 0 2 0 C1.52797514 4.24822374 -0.96655518 6.19989709 -4 9 C-4.99 8.67 -5.98 8.34 -7 8 C-6.02133662 6.85373678 -5.04205413 5.70800212 -4.0625 4.5625 C-3.51722656 3.92441406 -2.97195313 3.28632813 -2.41015625 2.62890625 C-1.63204305 1.73008851 -0.84063472 0.84063472 0 0 Z " fill="#000000" transform="translate(369,210)"/>
<path d="M0 0 C4.83256305 0.41421969 6.82679218 2.46413986 10 6 C5.66905042 6 3.72965139 5.03435531 0 3 C0 2.01 0 1.02 0 0 Z " fill="#000000" transform="translate(387,87)"/>
<path d="M0 0 C0 0.66 0 1.32 0 2 C-3.67410785 3.17571451 -7.16929183 3.07366746 -11 3 C-11 2.01 -11 1.02 -11 0 C-3.375 -1.125 -3.375 -1.125 0 0 Z " fill="#000000" transform="translate(339,80)"/>
<path d="M0 0 C1.45823212 -0.0270043 2.91660675 -0.04639787 4.375 -0.0625 C5.18710937 -0.07410156 5.99921875 -0.08570312 6.8359375 -0.09765625 C9 0 9 0 11 1 C11 1.66 11 2.32 11 3 C7.37 3 3.74 3 0 3 C0 2.01 0 1.02 0 0 Z " fill="#000000" transform="translate(348,79)"/>
<path d="M0 0 C0.33 0.99 0.66 1.98 1 3 C-2.72965139 5.03435531 -4.66905042 6 -9 6 C-8 3 -8 3 -6.15234375 2.05078125 C-5.42144531 1.80714844 -4.69054687 1.56351563 -3.9375 1.3125 C-3.20402344 1.06113281 -2.47054687 0.80976562 -1.71484375 0.55078125 C-0.86599609 0.27814453 -0.86599609 0.27814453 0 0 Z " fill="#000000" transform="translate(119,683)"/>
<path d="M0 0 C0.99 0.33 1.98 0.66 3 1 C3 4.3 3 7.6 3 11 C2.01 11.33 1.02 11.66 0 12 C0 8.04 0 4.08 0 0 Z " fill="#000000" transform="translate(54,650)"/>
<path d="M0 0 C-2.72478774 3.36591427 -6.06856792 4.44226276 -10 6 C-10.33 5.01 -10.66 4.02 -11 3 C-9.73581754 2.30034557 -8.46334598 1.61565237 -7.1875 0.9375 C-6.47980469 0.55464844 -5.77210938 0.17179687 -5.04296875 -0.22265625 C-3 -1 -3 -1 0 0 Z " fill="#000000" transform="translate(268,466)"/>
<path d="M0 0 C0.99 0.33 1.98 0.66 3 1 C1.68 3.97 0.36 6.94 -1 10 C-1.99 10 -2.98 10 -4 10 C-2.8905928 6.51329166 -1.73662334 3.22515763 0 0 Z " fill="#000000" transform="translate(318,493)"/>
<path d="M0 0 C0.99 0.33 1.98 0.66 3 1 C2.67 1.99 2.34 2.98 2 4 C0.35 4.33 -1.3 4.66 -3 5 C-3 4.01 -3 3.02 -3 2 C-2.01 1.34 -1.02 0.68 0 0 Z " fill="#000000" transform="translate(103,401)"/>
<path d="M0 0 C0 0.99 0 1.98 0 3 C-1.98 3.33 -3.96 3.66 -6 4 C-5.67 3.01 -5.34 2.02 -5 1 C-3 0 -3 0 0 0 Z " fill="#000000" transform="translate(410,394)"/>
<path d="M0 0 C0.99 0.33 1.98 0.66 3 1 C2.67 1.99 2.34 2.98 2 4 C1.01 3.01 0.02 2.02 -1 1 C-0.67 0.67 -0.34 0.34 0 0 Z " fill="#000000" transform="translate(260,709)"/>
<path d="M0 0 C0.99 0.33 1.98 0.66 3 1 C2.67 1.99 2.34 2.98 2 4 C1.01 3.01 0.02 2.02 -1 1 C-0.67 0.67 -0.34 0.34 0 0 Z " fill="#000000" transform="translate(396,333)"/>
<path d="M0 0 C0.99 0.33 1.98 0.66 3 1 C2.67 1.99 2.34 2.98 2 4 C1.01 3.01 0.02 2.02 -1 1 C-0.67 0.67 -0.34 0.34 0 0 Z " fill="#000000" transform="translate(467,18)"/>
</svg>
