<?xml version="1.0" encoding="UTF-8"?>
<svg version="1.1" xmlns="http://www.w3.org/2000/svg" width="842" height="778">
<path d="M0 0 C1.95019531 0.93286133 1.95019531 0.93286133 3.828125 2.08203125 C4.53735107 2.51362549 5.24657715 2.94521973 5.97729492 3.38989258 C6.7272876 3.85935303 7.47728027 4.32881348 8.25 4.8125 C9.03415283 5.29807373 9.81830566 5.78364746 10.6262207 6.28393555 C16.25312489 9.80870264 21.75558054 13.49480583 27.1875 17.3125 C27.8690918 17.79114502 28.55068359 18.26979004 29.25292969 18.76293945 C42.96350116 28.55838107 42.96350116 28.55838107 44 34 C43.5524807 39.96479296 42.19841579 44.82495876 39.875 50.3125 C39.60429688 50.99505859 39.33359375 51.67761719 39.0546875 52.38085938 C34.24067123 63.97533161 27.04655815 72.42233963 18.1020813 80.96951294 C7.69349852 90.94661948 -1.88948507 101.02932079 -10 113 C-10.69488525 114.00039307 -10.69488525 114.00039307 -11.40380859 115.02099609 C-36.98296488 151.99602262 -47.68810899 195.3842796 -57.63208008 238.65039062 C-60.39945494 250.66440798 -63.45913173 262.58519559 -66.625 274.5 C-71.07616189 291.26515926 -75.20494109 308.07368091 -79 325 C-72.208876 325.14508008 -65.41769311 325.28713233 -58.62646484 325.42724609 C-56.32436751 325.47507938 -54.02228357 325.52356299 -51.72021484 325.57275391 C-38.14470697 325.86234898 -24.57877942 326.07906131 -11 326 C-10.80922882 325.39961411 -10.61845764 324.79922821 -10.42190552 324.1806488 C-8.39114708 317.79793734 -6.34316616 311.42092145 -4.28613281 305.04663086 C-3.52572769 302.68307558 -2.7693856 300.31820838 -2.01757812 297.9519043 C3.10412939 281.84386028 8.94706612 266.36061344 16 251 C16.59508476 249.6842204 17.18941435 248.36809879 17.78271484 247.05151367 C19.25190323 243.81628193 20.74414721 240.59330737 22.25 237.375 C23.05824219 235.64286255 23.05824219 235.64286255 23.8828125 233.87573242 C30.13263463 220.52375787 36.48854646 207.22639001 43 194 C43.5465625 192.88399414 44.093125 191.76798828 44.65625 190.61816406 C50.55752965 178.6418291 56.78066701 167.3379116 64.62670898 156.52294922 C69.21582813 150.19667007 73.44510489 143.70492747 77.5625 137.0625 C78.18503662 136.05864258 78.80757324 135.05478516 79.44897461 134.02050781 C82.49762533 129.08698355 85.52599879 124.14110566 88.5546875 119.1953125 C96.35539838 106.47620616 104.58436536 94.57675792 114.07763672 83.05932617 C117.14276788 79.33408793 120.08230923 75.56116994 122.91235352 71.6550293 C141.84737637 45.81236371 178.1898806 38.76040938 207.55078125 32.34765625 C235.33255405 26.66711464 235.33255405 26.66711464 261.9453125 17.2890625 C268.39926151 14.56552903 275.49508448 15.42250592 281.94921875 17.91015625 C285.69871116 19.90274364 288.11810279 22.17300755 290 26 C292.1459158 34.48737209 288.5237606 41.70762279 284.29296875 48.88769531 C276.46507578 61.6760129 267.77738854 73.91678954 258.9375 86.01953125 C258.45015381 86.68686279 257.96280762 87.35419434 257.46069336 88.04174805 C256.5079132 89.31907541 255.535414 90.58199602 254.54125977 91.82739258 C250.25355481 97.25782307 247.07488243 103.12464737 243.88217163 109.2505188 C242.24354272 112.39358427 240.58244667 115.52473698 238.921875 118.65625 C238.58794235 119.28692886 238.2540097 119.91760773 237.90995789 120.56739807 C234.95219961 126.13379105 231.83530109 131.60161024 228.6875 137.0625 C214.24308555 162.33237262 201.58368178 188.62364755 188.97131348 214.84126282 C186.98716105 218.96387705 184.98295564 223.07538528 182.953125 227.17578125 C171.31257381 250.82459057 161.64103452 275.48158634 152 300 C155.92080117 299.12168595 159.83564027 298.2190533 163.75 297.3125 C165.38775391 296.94608398 165.38775391 296.94608398 167.05859375 296.57226562 C179.49383268 293.66580445 190.19450023 288.54806056 201.3125 282.375 C212.64033787 276.17287319 224.13778263 270.45782529 235.84716797 265.01464844 C237.28096483 264.33888752 238.69647914 263.62288282 240.09033203 262.86816406 C243.2252708 261.44297329 245.83463728 262.02332675 249 263 C259.42543994 267.30830484 271.99323734 276.54728497 277 287 C281.36724371 298.38347131 281.05900067 309.56099812 277 321 C273.29579772 328.88330228 267.65908976 335.45267123 262 342 C260.80503906 343.39798828 260.80503906 343.39798828 259.5859375 344.82421875 C253.89742319 351.2982898 247.81985616 356.74814401 241 362 C240.11054687 362.71671875 239.22109375 363.4334375 238.3046875 364.171875 C208.46738101 387.60953637 174.59201665 395.35366932 138.171875 402.4609375 C137.37703705 402.61686371 136.5821991 402.77278992 135.76327515 402.93344116 C130.23963508 404 130.23963508 404 128 404 C127.82561401 405.69443237 127.82561401 405.69443237 127.64770508 407.4230957 C127.05354753 412.15178054 125.89719788 416.64138164 124.63671875 421.23046875 C124.15680121 423.02275973 123.67698705 424.81507839 123.19726562 426.60742188 C122.44953661 429.37593525 121.69939849 432.14376765 120.9465332 434.91088867 C116.19588718 452.42267102 111.87490326 470.01825108 110.75 488.1875 C110.67555664 489.28352539 110.60111328 490.37955078 110.52441406 491.50878906 C108.51674842 523.06707252 109.61371483 554.780735 131 580 C138.94153446 588.69967618 151.04241159 593.77685742 162.6875 594.375 C177.81076889 594.00387684 190.78884648 585.10519301 202.8125 576.8125 C204.25133545 575.82467529 204.25133545 575.82467529 205.71923828 574.81689453 C213.40004476 569.50120262 220.77256698 563.91094211 228 558 C229.33930824 556.91600469 230.67917804 555.83270295 232.01953125 554.75 C235.41924271 551.99999877 238.80947041 549.23862193 242.19580078 546.47216797 C243.78273046 545.17728489 245.37348737 543.88709522 246.96484375 542.59765625 C252.66119854 537.97198195 258.24809565 533.23228512 263.80688477 528.44335938 C268.20740494 524.65926151 272.67514218 520.96763808 277.18359375 517.3125 C281.11917835 514.08106299 284.99041404 510.77478482 288.84985352 507.45288086 C292.89151148 504 292.89151148 504 294 504 C300.87944229 551.76843512 300.87944229 551.76843512 303.4375 570.75 C303.60088867 571.94705566 303.76427734 573.14411133 303.93261719 574.37744141 C304.07731445 575.46460449 304.22201172 576.55176758 304.37109375 577.671875 C304.49411865 578.5906543 304.61714355 579.50943359 304.74389648 580.45605469 C305.44724346 587.44258995 305.44724346 587.44258995 302.875 590.6484375 C301.451875 591.99808594 301.451875 591.99808594 300 593.375 C299.49887695 593.85614258 298.99775391 594.33728516 298.48144531 594.83300781 C295.0246647 598.12633681 291.45924517 601.29088827 287.828125 604.390625 C285.35828108 606.56493204 283.08207561 608.90736519 280.77734375 611.25390625 C278.93406426 613.06477643 277.02177201 614.75321354 275.0625 616.4375 C272.25423653 618.85617779 269.60029407 621.35899683 267 624 C263.82181448 627.22146821 260.53449614 630.23400714 257.09375 633.171875 C255.66651139 634.41804602 254.2712414 635.70156612 252.90625 637.015625 C214.82816826 673.26804529 150.89262389 702.67624045 97.8125 702.3125 C96.46877319 702.30404053 96.46877319 702.30404053 95.09790039 702.29541016 C68.59931935 701.82226304 41.19875298 693.01122745 20 677 C19.45279297 676.58830566 18.90558594 676.17661133 18.34179688 675.75244141 C-15.4500913 649.87516966 -35.27915961 603.99396328 -40.93457031 562.71337891 C-42.9351191 547.18402242 -43.23779443 531.63502139 -43.25 516 C-43.25133942 514.97887115 -43.25267883 513.95774231 -43.25405884 512.90567017 C-43.24584698 483.74480375 -40.63203567 454.9125146 -37 426 C-37.6064183 426.0501123 -38.21283661 426.10022461 -38.83763123 426.15185547 C-45.18070568 426.67529848 -51.52418595 427.19359708 -57.86791992 427.70898438 C-60.23163344 427.90168983 -62.59524241 428.09568252 -64.95874023 428.29101562 C-68.36675403 428.57244419 -71.77512385 428.84915722 -75.18359375 429.125 C-76.23083115 429.21249512 -77.27806854 429.29999023 -78.35704041 429.39013672 C-84.26138134 429.86280497 -90.0767453 430.08611729 -96 430 C-96.10449463 430.83805176 -96.20898926 431.67610352 -96.31665039 432.53955078 C-97.50179807 441.47108064 -99.232522 450.13658365 -101.4375 458.875 C-101.6078476 459.55442657 -101.77819519 460.23385315 -101.95370483 460.93386841 C-107.90900772 484.48622751 -116.13211995 507.05089166 -126.25048828 529.13085938 C-128.38371602 533.8198811 -130.43658322 538.54388453 -132.49609375 543.265625 C-162.48678358 611.94926395 -162.48678358 611.94926395 -188 639 C-188.85658203 639.91845703 -188.85658203 639.91845703 -189.73046875 640.85546875 C-194.27029238 645.56782725 -199.29374703 649.63992187 -204.40185547 653.71826172 C-206.07964695 655.06387817 -207.74537335 656.4234864 -209.41015625 657.78515625 C-229.74575573 674.34805046 -251.16700323 688.92080834 -275 700 C-276.13308594 700.53109375 -277.26617187 701.0621875 -278.43359375 701.609375 C-328.88871746 724.24126864 -397.64674705 725.69646789 -449.31103516 706.12451172 C-459.87588061 701.97565148 -470.11623627 697.1850483 -480.17724609 691.93945312 C-481.91420305 691.04422002 -483.66966218 690.18515917 -485.42578125 689.328125 C-507.98508854 677.98092852 -523.09051279 657.78745158 -531.10327148 634.16552734 C-536.75450923 616.67157764 -541.29193279 595.34436829 -533 578 C-528.64631223 569.93552654 -522.99120131 562.89924275 -517 556 C-516.33291016 555.23018799 -516.33291016 555.23018799 -515.65234375 554.44482422 C-499.14531034 535.55254747 -473.66505496 511.37222418 -447.56640625 508.640625 C-443.05693299 509.09502975 -439.89001194 510.62895648 -435.9375 512.75 C-435.25623047 513.09804688 -434.57496094 513.44609375 -433.87304688 513.8046875 C-424.32585301 518.75712236 -417.63242764 523.7665861 -413.90405273 534.07397461 C-410.35737622 545.5530235 -410.24512388 558.19997924 -409.39819336 570.1262207 C-407.74211614 597.48132892 -407.74211614 597.48132892 -394.35546875 620.4765625 C-393 622 -393 622 -393 624 C-380.45890015 630.75289992 -365.19490816 630.40728444 -351.64453125 627.16796875 C-323.5799668 618.17407296 -302.54691294 594.73293965 -289.13671875 569.2578125 C-280.22161296 551.70454345 -274.38503853 533.30206366 -268.68359375 514.52441406 C-266.74959034 508.16279096 -264.78018626 501.81220627 -262.8125 495.4609375 C-261.35339239 490.74503091 -259.8952702 486.02882017 -258.4375 481.3125 C-258.08203094 480.16304901 -257.72656189 479.01359802 -257.36032104 477.82931519 C-256.3407278 474.52885627 -255.32420451 471.22746753 -254.30859375 467.92578125 C-254.00385132 466.94068573 -253.69910889 465.95559021 -253.38513184 464.94064331 C-251.76331452 459.65701824 -250.2854581 454.37565996 -249 449 C-260.39298188 452.15125031 -270.62697762 456.34246892 -281 462 C-281.90878906 462.4935498 -281.90878906 462.4935498 -282.8359375 462.99707031 C-289.2142121 466.48910603 -295.37859005 470.22282033 -301.4375 474.25 C-318.41351964 485.37179833 -336.78867785 493.59622595 -356 500 C-367.74458842 496.97526225 -380.05075641 492.37892074 -387.1875 482 C-390.69224465 474.56686024 -390.15532808 465.40755117 -388.11328125 457.6171875 C-384.91037554 449.29601718 -379.86620787 442.77353168 -373.57080078 436.55541992 C-371.57961897 434.58373523 -369.60909438 432.59205816 -367.63671875 430.6015625 C-365.98704484 428.94264302 -364.33730342 427.28379068 -362.6875 425.625 C-361.46256836 424.3875 -361.46256836 424.3875 -360.21289062 423.125 C-344.46339791 407.3127603 -344.46339791 407.3127603 -334.921875 402.0390625 C-333.93904541 401.49233887 -332.95621582 400.94561523 -331.94360352 400.38232422 C-330.88971436 399.80240723 -329.8358252 399.22249023 -328.75 398.625 C-326.48280614 397.37027359 -324.21588654 396.11505151 -321.94921875 394.859375 C-321.3705455 394.53955658 -320.79187225 394.21973816 -320.19566345 393.89022827 C-316.345382 391.75879913 -312.52058823 389.58698363 -308.70703125 387.390625 C-259.65229264 359.22805696 -259.65229264 359.22805696 -234 356 C-233.98582031 355.30261719 -233.97164063 354.60523438 -233.95703125 353.88671875 C-233.1222723 335.40921648 -229.44326966 316.3379871 -223 299 C-222.65791504 298.05769531 -222.31583008 297.11539062 -221.96337891 296.14453125 C-200.74212731 238.17602206 -200.74212731 238.17602206 -182.12109375 217.67578125 C-178.14574969 213.269721 -174.80715624 208.64810371 -171.5625 203.6875 C-170.97686279 202.80231689 -170.39122559 201.91713379 -169.7878418 201.00512695 C-164.38461052 192.75570843 -159.29855459 184.3208276 -154.22015381 175.86968994 C-147.39002802 164.50973581 -140.39918436 153.28275431 -132 143 C-133.08619629 143.23940308 -133.08619629 143.23940308 -134.19433594 143.48364258 C-145.58456538 145.57991262 -157.38941574 143.02818869 -168.6796875 141.28393555 C-171.72702755 140.81602734 -174.77712606 140.37107344 -177.828125 139.92773438 C-188.05502905 138.3963315 -197.79269327 136.50421589 -207.57885742 133.13061523 C-224.29730852 127.60552089 -245.67633244 124.17428116 -262.1640625 132.03125 C-277.005476 140.51205771 -286.21935158 156.74963039 -291.10546875 172.58203125 C-292.43575138 178.12542192 -292.36823042 183.70208995 -292.375 189.375 C-292.39949219 190.4475 -292.42398438 191.52 -292.44921875 192.625 C-292.50411482 207.66652265 -285.00762574 217.83183997 -274.9375 228.5 C-270.23201575 233.08033839 -264.9495489 236.89797096 -259.58374023 240.6640625 C-253.01575324 245.37520273 -249.64478812 250.16152668 -248.31640625 258.1796875 C-246.17613881 277.25713307 -250.97674154 296.19228488 -262.8203125 311.41015625 C-275.97702404 327.04259308 -291.68046213 335.27014605 -312 338 C-316.31706179 338.285626 -320.61207312 338.32524433 -324.9375 338.3125 C-326.02740234 338.32861328 -327.11730469 338.34472656 -328.24023438 338.36132812 C-339.85568248 338.36822976 -349.92381092 335.43540344 -360.5 330.8125 C-361.40854736 330.41740234 -362.31709473 330.02230469 -363.25317383 329.61523438 C-381.16102709 321.62279786 -394.41882898 309.85911069 -403.703125 292.61328125 C-407.41116886 282.28213494 -407.36613535 271.22958917 -407.3125 260.375 C-407.31076279 259.2746492 -407.31076279 259.2746492 -407.30899048 258.15206909 C-407.26860879 244.92539205 -406.59298869 231.75568638 -405.6875 218.5625 C-405.62873688 217.68027771 -405.56997375 216.79805542 -405.50942993 215.88909912 C-403.12088235 180.80932702 -403.12088235 180.80932702 -396 165 C-395.39685659 163.59589194 -394.79662736 162.19052983 -394.19873047 160.78417969 C-392.14298975 155.96726734 -390.04349439 151.17011388 -387.9375 146.375 C-387.56383301 145.52327209 -387.19016602 144.67154419 -386.80517578 143.79400635 C-385.28216656 140.32250329 -383.75906028 136.85104639 -382.23312378 133.38082886 C-379.97199422 128.23449229 -377.74165584 123.07620493 -375.53515625 117.90625 C-368.20553592 100.83794913 -359.97898317 87.34607405 -347 74 C-346.47857422 73.45811035 -345.95714844 72.9162207 -345.41992188 72.35791016 C-338.35083794 65.03149795 -331.10811155 58.18718154 -323 52 C-322.00226563 51.22398438 -321.00453125 50.44796875 -319.9765625 49.6484375 C-309.70422327 41.86315128 -298.43783109 35.88187492 -287 30 C-286.06446289 29.51853516 -285.12892578 29.03707031 -284.16503906 28.54101562 C-269.54943248 21.10384824 -254.60857308 15.03007262 -239 10 C-237.75476563 9.59652344 -236.50953125 9.19304688 -235.2265625 8.77734375 C-197.37110445 -1.27070993 -147.61756032 13.00219059 -112.1875 26.5625 C-91.9086785 34.28070329 -77.67510089 39.30520539 -56.84033203 30.03955078 C-39.61141894 21.85533473 -22.27526966 11.36666287 -7.02197266 -0.05761719 C-4.27596824 -1.3374502 -2.85240759 -0.8986232 0 0 Z M-12.4375 10.625 C-13.95713149 11.649557 -15.47940017 12.67021039 -17.00390625 13.6875 C-17.81230957 14.22890625 -18.62071289 14.7703125 -19.45361328 15.328125 C-55.93479906 39.28048936 -55.93479906 39.28048936 -75 42 C-75.77601563 42.11214844 -76.55203125 42.22429687 -77.3515625 42.33984375 C-82.76581203 42.71105484 -87.64796635 41.40491673 -92.796875 39.8671875 C-93.54206894 39.64622406 -94.28726288 39.42526062 -95.05503845 39.19760132 C-102.32347619 36.98943806 -109.34708306 34.24947022 -116.40960693 31.46603394 C-133.65607115 24.72865255 -150.77644526 20.17234303 -169 17 C-170.24507324 16.77989258 -171.49014648 16.55978516 -172.77294922 16.33300781 C-196.74707181 12.22675154 -220.69246293 9.86641296 -244 18 C-244.64839844 18.21398438 -245.29679687 18.42796875 -245.96484375 18.6484375 C-277.00871362 28.93290973 -306.6812631 45.1396559 -331 67 C-332.0635941 67.94033947 -333.12739138 68.88044917 -334.19140625 69.8203125 C-356.43015387 89.63416508 -366.97976692 112.26107891 -378.39746094 139.21972656 C-380.9013215 145.13139734 -383.44144605 151.01788446 -386.10546875 156.859375 C-386.60256348 157.95685059 -387.0996582 159.05432617 -387.61181641 160.18505859 C-388.54161537 162.22961486 -389.48178535 164.26950523 -390.43505859 166.30322266 C-396.34379672 179.35980856 -397.58557519 192.89689523 -398.625 207 C-398.74654609 208.55215011 -398.86893918 210.10423413 -398.9921875 211.65625 C-399.28881518 215.41819021 -399.56881482 219.18116151 -399.84469604 222.94467163 C-399.9863843 224.81980668 -400.14291805 226.6938049 -400.30102539 228.56762695 C-401.03682903 237.61229104 -401.18619335 246.61808747 -401.18530273 255.68725586 C-401.1875063 258.19466731 -401.20579398 260.70164916 -401.22460938 263.20898438 C-401.28849366 280.82679095 -398.849034 293.14524396 -386.5390625 306.515625 C-380.42937581 312.49371844 -374.51728082 317.24259567 -366.875 321.125 C-365.63919189 321.76393188 -365.63919189 321.76393188 -364.37841797 322.41577148 C-344.1302803 332.66935932 -320.93748863 335.99291649 -298.828125 329.38671875 C-280.92526351 323.25604018 -268.14758844 311.70983548 -259.75 294.75 C-254.98079711 283.88539876 -253.07202414 272.82420849 -254 261 C-254.03867187 260.06414062 -254.07734375 259.12828125 -254.1171875 258.1640625 C-254.98437658 251.98755254 -257.64539643 249.08182733 -262.42749023 245.42016602 C-265.27099549 243.36224208 -268.15007801 241.360323 -271.04394531 239.37402344 C-283.92735502 230.32411956 -293.03620339 217.89138982 -298 203 C-299.52904561 181.49634621 -297.41490047 161.38277459 -283.65625 144.046875 C-281.4922517 141.63762356 -279.25873719 139.31978414 -277 137 C-276.13325762 135.90567721 -275.27689491 134.80293754 -274.4375 133.6875 C-266.97178032 125.45606549 -256.26677548 122.49034658 -245.46875 121.76171875 C-236.98982508 121.60315618 -228.9799463 122.25366619 -220.625 123.75 C-219.73490234 123.90686279 -218.84480469 124.06372559 -217.92773438 124.2253418 C-213.33530834 125.11127891 -209.09725088 126.27986624 -204.73828125 127.98046875 C-198.16613837 130.47026855 -191.48722836 131.50196001 -184.5625 132.5625 C-183.23246364 132.77291823 -181.90254922 132.98410867 -180.57275391 133.19604492 C-177.93659469 133.61422961 -175.29958386 134.0247366 -172.66162109 134.43164062 C-169.44422777 134.93104666 -166.23154595 135.45170991 -163.01953125 135.984375 C-144.78975782 138.96251461 -133.63757082 138.42148247 -117.6640625 128.390625 C-115 127 -115 127 -111 127 C-110.34 128.32 -109.68 129.64 -109 131 C-110.10021484 131.38865234 -110.10021484 131.38865234 -111.22265625 131.78515625 C-129.22429165 139.65928932 -140.70713727 165.06445348 -150.18505859 180.96923828 C-158.98370616 195.66205654 -167.83857507 210.0023412 -178.8125 223.17578125 C-196.08678201 244.40875288 -206.24765298 271.76656878 -216 297 C-216.32371582 297.82806152 -216.64743164 298.65612305 -216.98095703 299.50927734 C-223.79598308 317.22066616 -226.63205666 336.35605033 -228.640625 355.15625 C-229 358 -229 358 -230 361 C-232.859375 361.88671875 -232.859375 361.88671875 -236.75 362.6875 C-264.87884167 369.14434053 -291.54971543 383.91163469 -316.26025391 398.42626953 C-319.00214058 400.00122957 -321.77785357 401.48913381 -324.57421875 402.96484375 C-338.61772722 410.54491578 -348.89235507 420.10286407 -359.73803711 431.67626953 C-362.44723959 434.45945239 -365.30345836 436.9997214 -368.27709961 439.49511719 C-376.66651428 446.82292675 -383.04899223 457.41092923 -384.015625 468.6015625 C-383.98213665 473.74202495 -382.67077741 477.91988212 -379.4375 481.9453125 C-372.76122786 488.37122444 -363.26640302 492.62038895 -354 493 C-350.71246625 492.17211067 -347.6713798 490.9025655 -344.5625 489.5625 C-343.68432617 489.19632568 -342.80615234 488.83015137 -341.90136719 488.45288086 C-333.7435534 485.00007656 -325.80785168 481.18004041 -318 477 C-317.3404834 476.64824707 -316.6809668 476.29649414 -316.00146484 475.93408203 C-309.3647663 472.36639557 -302.88963504 468.68621899 -296.7121582 464.36499023 C-289.86149642 459.57829176 -282.7805481 455.69326759 -275.25 452.0625 C-274.30374756 451.60182129 -273.35749512 451.14114258 -272.38256836 450.66650391 C-262.33489761 445.94137834 -253.01913584 443.87091129 -242 443 C-245.84814827 460.09161964 -250.51391944 476.76347103 -255.875 493.4375 C-256.94977398 496.80972887 -258.02201995 500.18275506 -259.09417725 503.55581665 C-259.7899073 505.74364258 -260.48670305 507.93112994 -261.18463135 510.11825562 C-263.38269438 517.01484475 -265.50451934 523.92889884 -267.56640625 530.8671875 C-275.64773968 557.98530219 -287.3352409 583.32752997 -307 604 C-307.54575684 604.58362305 -308.09151367 605.16724609 -308.65380859 605.76855469 C-324.15325975 622.26701861 -341.78549676 633.770017 -364.953125 635.1796875 C-376.34263182 635.44802667 -388.6074894 634.90577121 -397.30859375 626.8671875 C-414.90262046 608.43534999 -414.93760983 581.37907659 -416.60180664 557.3112793 C-417.47750527 540.57474193 -417.47750527 540.57474193 -425 526 C-428.00321439 523.70127702 -428.00321439 523.70127702 -431.375 521.8125 C-432.47585938 521.15894531 -433.57671875 520.50539063 -434.7109375 519.83203125 C-441.9033177 515.82582423 -445.9044565 513.7883309 -454 516 C-484.85031017 528.12212402 -516.04121992 555.64925799 -530 586 C-536.0280604 606.60127918 -527.18194264 632.05747388 -517.50927734 649.99780273 C-514.23346855 655.84553309 -510.53533526 661.0499551 -506 666 C-505.33742188 666.75410156 -504.67484375 667.50820313 -503.9921875 668.28515625 C-475.42494749 699.01338674 -424.08056201 710.16707134 -384 712 C-377.50150318 712.20949598 -371.0014344 712.24547462 -364.5 712.25 C-363.62115143 712.25067474 -362.74230286 712.25134949 -361.83682251 712.25204468 C-303.8372121 712.18156487 -254.80098631 687.98602923 -211 651 C-210.00226563 650.18660156 -209.00453125 649.37320313 -207.9765625 648.53515625 C-172.02321842 619.07079137 -154.66826538 579.65764217 -136.57148743 537.89668274 C-134.73771514 533.67321662 -132.87076828 529.46636127 -130.9765625 525.26953125 C-118.848044 498.35441782 -109.44393716 470.64662638 -103.5 441.6875 C-103.33975342 440.91237061 -103.17950684 440.13724121 -103.0144043 439.33862305 C-102.08559237 434.47678048 -101.95089562 429.95082001 -102 425 C-100.88890869 424.91959473 -99.77781738 424.83918945 -98.63305664 424.75634766 C-72.46888395 422.86769822 -72.46888395 422.86769822 -46.3125 420.875 C-44.84018921 420.76212646 -44.84018921 420.76212646 -43.33813477 420.64697266 C-41.98933228 420.5394165 -41.98933228 420.5394165 -40.61328125 420.4296875 C-39.85829346 420.37022949 -39.10330566 420.31077148 -38.32543945 420.24951172 C-35.5275234 419.94930487 -32.77151058 419.4835858 -30 419 C-30.10546143 419.77037598 -30.21092285 420.54075195 -30.31958008 421.33447266 C-41.07247518 500.90472954 -47.17608825 584.18966399 3.33935547 651.83496094 C22.92515862 677.36964225 51.20873324 690.23945893 82.375 695.578125 C122.24857211 700.21858382 164.92993616 685.7748892 199 666 C199.85239258 665.50838379 200.70478516 665.01676758 201.58300781 664.51025391 C227.22809286 649.72085329 227.22809286 649.72085329 250 631 C251.36776206 629.8041705 252.74259775 628.61637458 254.125 627.4375 C257.57968038 624.43373172 260.7855123 621.23350121 263.99609375 617.97265625 C266.58246151 615.42662171 269.3153528 613.07978443 272.06640625 610.71484375 C273.95494597 609.03995701 275.73155648 607.30052413 277.5 605.5 C280.50934749 602.43606117 283.68619609 599.63818231 286.94140625 596.83984375 C289.87130615 594.22128046 292.60213099 591.42250228 295.3359375 588.6015625 C297 587 297 587 299 586 C296.32185159 562.62493277 293.14186054 539.31623334 290 516 C285.97451077 517.88289887 282.87945199 520.52372609 279.5625 523.4375 C278.30365107 524.52895231 277.04453055 525.62009143 275.78515625 526.7109375 C274.83406982 527.53803223 274.83406982 527.53803223 273.86376953 528.38183594 C266.13792848 535.08957428 258.29928444 541.6094709 250.21728516 547.8840332 C246.34230875 550.90531889 242.59119553 554.03658387 238.875 557.25 C225.74842481 568.51687452 211.62724439 578.77029433 197 588 C195.41445312 589.00160156 195.41445312 589.00160156 193.796875 590.0234375 C180.62219086 598.02959171 167.33817829 602.30203414 152 598.8125 C141.26608217 595.83390643 133.86070613 590.84701152 126 583 C125.44570313 582.45730469 124.89140625 581.91460938 124.3203125 581.35546875 C104.55917554 560.25911984 103.50126092 529.38399394 104.08154297 502.17675781 C105.30256908 466.56573265 114.86386939 433.23404143 124 399 C124.94391602 398.82460693 125.88783203 398.64921387 126.86035156 398.46850586 C166.55824728 391.89234844 166.55824728 391.89234844 204 378 C205.41526273 377.30317851 206.8306316 376.60657255 208.24609375 375.91015625 C231.39155315 364.29739144 252.10025477 347.21909242 267 326 C267.70898438 324.99839844 268.41796875 323.99679687 269.1484375 322.96484375 C273.76475439 315.57289329 275.07863271 306.58058383 274 298 C270.86039735 284.87397763 262.91699089 278.33485325 252 271 C248.30823016 268.61644978 248.30823016 268.61644978 244.14038086 268.28076172 C241.61639053 269.12890538 239.28117939 270.18563867 236.87890625 271.3359375 C235.87110107 271.81788574 234.8632959 272.29983398 233.82495117 272.79638672 C232.74834229 273.3173291 231.6717334 273.83827148 230.5625 274.375 C229.45173096 274.91012207 228.34096191 275.44524414 227.1965332 275.99658203 C219.9626219 279.5039017 212.79938713 283.12688736 205.6875 286.875 C204.81778564 287.33261719 203.94807129 287.79023438 203.05200195 288.26171875 C199.56539378 290.10128303 196.08761043 291.95208329 192.62890625 293.84375 C178.67952817 301.26322925 157.87418156 308 142 308 C146.57123169 296.94755572 151.15102464 285.89873001 155.74285889 274.85482788 C157.81659191 269.8634544 159.87463546 264.86644263 161.91015625 259.859375 C169.04074222 242.45819215 177.34563584 225.65421564 185.65916443 208.79679871 C189.28985443 201.42945854 192.84040952 194.02594659 196.3515625 186.60083008 C202.68237888 173.26422057 209.42792061 160.14929952 216.375 147.125 C216.93108948 146.08051193 216.93108948 146.08051193 217.49841309 145.0149231 C222.80449966 135.0507053 228.15982341 125.11931721 233.71630859 115.29199219 C235.22208408 112.60347559 236.69833986 109.8994992 238.17578125 107.1953125 C239.30439283 105.15087897 240.43329656 103.10660669 241.5625 101.0625 C242.0687793 100.12656006 242.57505859 99.19062012 243.09667969 98.22631836 C246.39211876 92.30387455 250.15317018 87.2690556 254.51733398 82.09594727 C258.98117733 76.5294218 262.86835815 70.56686399 266.80371094 64.62036133 C268.25377678 62.43179977 269.71608067 60.25178835 271.1796875 58.07226562 C281.49883946 44.21011399 281.49883946 44.21011399 284 28 C281.92505073 25.29103845 280.31044715 23.58744183 277.1875 22.1875 C269.33154694 21.51413259 263.91038171 22.79009873 256.5625 25.5 C246.71518211 28.95131823 236.82690769 31.71131635 226.6875 34.125 C225.63900879 34.37524933 225.63900879 34.37524933 224.56933594 34.6305542 C216.06351951 36.65146919 207.53417849 38.54709396 198.98706055 40.38574219 C165.41995425 47.63185311 139.68012526 58.60733588 118.5859375 86.6171875 C116.91023943 88.83326966 115.19251124 90.99840637 113.4140625 93.1328125 C105.44523871 102.771449 99.20419986 113.28990613 92.80273438 124.00976562 C85.62272123 135.91940823 78.04685531 147.57242984 70.125 159 C64.9808216 166.45291117 60.25515417 173.99824749 56 182 C55.52546387 182.88494141 55.05092773 183.76988281 54.56201172 184.68164062 C44.6941944 203.15627017 35.67568142 221.99561144 26.91595459 241.01568604 C26.04931057 242.89317412 25.17737947 244.76809012 24.30322266 246.64208984 C13.63898449 269.57232235 5.34352262 293.14235771 -2.1875 317.25 C-2.57446045 318.4879834 -2.9614209 319.7259668 -3.36010742 321.00146484 C-5.30361983 326.89837505 -5.30361983 326.89837505 -6 333 C-6.94230469 332.93941406 -7.88460937 332.87882812 -8.85546875 332.81640625 C-34.18390245 331.29388187 -59.63010525 330.76091199 -85 331 C-83.76647671 319.98589571 -81.67147452 309.3864954 -79.0625 298.625 C-78.8698053 297.81885254 -78.6771106 297.01270508 -78.47857666 296.18212891 C-75.13096944 282.17926216 -71.45008331 268.27412138 -67.66171265 254.3848877 C-64.67224422 243.42337495 -61.86826981 232.46046115 -59.375 221.375 C-52.83952221 192.53925391 -45.36424563 161.69441817 -30.95751953 135.7265625 C-30.02114875 134.03813462 -29.11755636 132.33166015 -28.21484375 130.625 C-19.72056521 115.04313872 -9.35324791 100.71872862 3 88 C5.28531202 85.51235992 7.53953852 82.99635941 9.80102539 80.48706055 C12.12661386 77.93845348 14.49515623 75.50352232 17.04296875 73.17578125 C27.24756648 63.77018319 34.78796822 51.65647476 38 38 C37.90239078 34.7833326 37.4786532 33.58677537 35.4609375 31.11328125 C28.42284214 25.03732252 20.82020819 19.99547107 13 15 C12.38415039 14.60151855 11.76830078 14.20303711 11.13378906 13.79248047 C9.38698961 12.66416279 7.63296172 11.54832798 5.875 10.4375 C4.86179687 9.79683594 3.84859375 9.15617187 2.8046875 8.49609375 C-3.80611234 4.96972002 -6.53058974 6.45746261 -12.4375 10.625 Z " fill="#000000" transform="translate(537,24)"/>
<path d="M0 0 C0.99 0 1.98 0 3 0 C3.33 2.64 3.66 5.28 4 8 C4.90621094 7.95359375 5.81242187 7.9071875 6.74609375 7.859375 C18.00804342 7.5256876 24.91850904 9.37346648 33.20703125 17.06640625 C40.38318634 24.80539703 41.48473506 31.89329742 41.2734375 42.234375 C40.64352117 50.90922277 36.28194806 57.17492089 30 63 C21.48327194 69.4154045 13.44025448 69.75810977 3 69 C-5.43930683 66.975542 -12.2806194 60.97795811 -16.9375 53.8125 C-21.34243789 46.48089152 -21.31124072 36.46613602 -19.3515625 28.296875 C-15.86394851 19.77159636 -9.29262552 12.96520944 -1 9 C-0.34 9 0.32 9 1 9 C0.67 6.03 0.34 3.06 0 0 Z " fill="#000000" transform="translate(193,258)"/>
<path d="M0 0 C1.98 0.99 1.98 0.99 4 2 C-4.82082784 18.55018961 -15.15147531 33.49203173 -27.64648438 47.48339844 C-28.87311321 48.85782454 -30.08582684 50.24463824 -31.296875 51.6328125 C-40.74036195 62.35151484 -50.76975568 72.16554114 -62 81 C-63.16586819 81.95352562 -64.3298254 82.90939103 -65.4921875 83.8671875 C-73.97760083 90.82705797 -82.68103879 97.20052997 -92 103 C-92.68449219 103.42603516 -93.36898437 103.85207031 -94.07421875 104.29101562 C-113.78752134 116.40984918 -134.92955499 126.94583878 -157 134 C-158.2075293 134.38744385 -158.2075293 134.38744385 -159.43945312 134.78271484 C-173.72524825 139.2810198 -188.2414236 142.493439 -203 145 C-203.94762207 145.16661133 -204.89524414 145.33322266 -205.87158203 145.50488281 C-231.55256324 149.80061058 -258.06530352 148.28022054 -284 148 C-283.01 149.1446875 -283.01 149.1446875 -282 150.3125 C-280 153 -280 153 -280 156 C-280.99 156.33 -281.98 156.66 -283 157 C-284.53900891 155.28699008 -286.05571869 153.55392512 -287.5625 151.8125 C-288.40941406 150.84957031 -289.25632812 149.88664063 -290.12890625 148.89453125 C-292 146 -292 146 -292.046875 143.375 C-290.73945101 140.40890379 -289.27134261 139.12855361 -286.6875 137.1875 C-285.90761719 136.58292969 -285.12773437 135.97835937 -284.32421875 135.35546875 C-282 134 -282 134 -278 134 C-278.34879632 137.25543229 -279.02133261 138.01873107 -281.5625 140.25 C-282.366875 140.8275 -283.17125 141.405 -284 142 C-277.6257851 142.80194976 -271.39395413 143.17094756 -264.97265625 143.203125 C-264.03446548 143.21013931 -263.09627472 143.21715363 -262.12965393 143.22438049 C-259.10722014 143.2418312 -256.08498237 143.24823568 -253.0625 143.25 C-252.02977966 143.25067474 -250.99705933 143.25134949 -249.93304443 143.25204468 C-234.09397086 143.23559656 -218.63672534 142.75389063 -203 140 C-201.5159668 139.74259033 -201.5159668 139.74259033 -200.00195312 139.47998047 C-152.87597761 131.03443809 -108.57119608 111.74835945 -71 82 C-70.00742187 81.22011719 -69.01484375 80.44023438 -67.9921875 79.63671875 C-51.96711009 66.78469798 -36.57212212 52.27118226 -24 36 C-22.82244141 34.54787109 -22.82244141 34.54787109 -21.62109375 33.06640625 C-14.53301067 24.24326308 -8.75187611 14.72969169 -3 5 C-2.00094803 3.33276488 -1.00145777 1.66579114 0 0 Z " fill="#000000" transform="translate(414,621)"/>
<path d="M0 0 C0.99 0 1.98 0 3 0 C4.38671875 1.42578125 4.38671875 1.42578125 5.6875 3.3125 C6.12449219 3.92738281 6.56148438 4.54226562 7.01171875 5.17578125 C8 7 8 7 8 10 C6.57421875 11.38671875 6.57421875 11.38671875 4.6875 12.6875 C4.07261719 13.12449219 3.45773437 13.56148437 2.82421875 14.01171875 C1 15 1 15 -2 15 C-2 14.01 -2 13.02 -2 12 C-1.01 11.34 -0.02 10.68 1 10 C-46.50153171 0.09583448 -98.7914532 12.20462228 -139.11279297 38.37109375 C-161.25785179 53.11781463 -181.32056592 71.45798422 -197 93 C-197.85649066 94.14994831 -198.71326433 95.29968589 -199.5703125 96.44921875 C-205.61019951 104.63840904 -211.0131594 113.13293211 -216 122 C-216.4345752 122.7719873 -216.86915039 123.54397461 -217.31689453 124.33935547 C-236.80180682 159.34297944 -252.3771351 202.36626393 -245 243 C-245.99 243.33 -246.98 243.66 -248 244 C-249.89922953 236.78141446 -250.35101562 230.07502173 -250.3125 222.625 C-250.30686035 221.47741211 -250.3012207 220.32982422 -250.29541016 219.14746094 C-250.1550288 209.18733454 -249.18402284 199.71341666 -247 190 C-246.81195801 189.16114258 -246.62391602 188.32228516 -246.43017578 187.45800781 C-241.51158385 166.32019271 -233.25599259 146.0933993 -223 127 C-222.62939453 126.29359375 -222.25878906 125.5871875 -221.87695312 124.859375 C-195.51991237 74.68890142 -150.60928389 30.80040283 -96 13 C-92.22705264 11.84217508 -88.43641453 10.77367926 -84.625 9.75 C-83.76567871 9.51579346 -82.90635742 9.28158691 -82.02099609 9.0402832 C-66.40292716 5.05649006 -50.82394292 3.52609372 -34.74316406 3.71875 C-32.1046735 3.75024261 -29.46678633 3.75978295 -26.828125 3.765625 C-17.17739672 3.81015748 -7.61710785 4.14257591 2 5 C1.01 4.01 1.01 4.01 0 3 C0 2.01 0 1.02 0 0 Z " fill="#000000" transform="translate(360,0)"/>
<path d="M0 0 C0.99 0.33 1.98 0.66 3 1 C2.85900879 1.75804932 2.71801758 2.51609863 2.57275391 3.29711914 C-7.19340798 49.65612141 -7.19340798 49.65612141 3.8125 94.25 C7.64079404 99.2650652 11.84832736 101.82445202 18.125 102.9375 C41.53071131 104.43736008 64.27327645 84.7949519 80.88671875 70.51953125 C82.94145594 68.69704065 84.98209133 66.86309557 87 65 C85.02 64.505 85.02 64.505 83 64 C83 63.01 83 62.02 83 61 C86.63 61 90.26 61 94 61 C94 64.96 94 68.92 94 73 C93.01 73 92.02 73 91 73 C90.67 71.35 90.34 69.7 90 68 C89.19820312 68.71542969 88.39640625 69.43085937 87.5703125 70.16796875 C68.51823564 86.95248383 44.46089262 107.87335602 17.578125 106.4140625 C11.02484062 105.655713 7.19685664 103.53639496 2.75 98.75 C-6.70961336 86.57299093 -7.56389379 71.71846966 -7.4375 56.8125 C-7.43545563 56.08198425 -7.43341125 55.35146851 -7.43130493 54.59881592 C-7.34722212 35.98495224 -4.74489151 18.00779307 0 0 Z " fill="#000000" transform="translate(687,482)"/>
<path d="M0 0 C0.99 0.495 0.99 0.495 2 1 C0.20959189 6.11099059 -2.54973452 10.644068 -5.25 15.3125 C-5.77867676 16.23256836 -6.30735352 17.15263672 -6.85205078 18.10058594 C-10.25365926 24.0094273 -13.69073625 29.8971921 -17.13623047 35.78051758 C-24.93085501 49.09223034 -32.52915578 62.50399705 -40 76 C-40.51272461 76.92490234 -41.02544922 77.84980469 -41.55371094 78.80273438 C-53.90060093 101.11871382 -65.77676601 123.6228716 -76 147 C-74.515 146.01 -74.515 146.01 -73 145 C-72.01 145 -71.02 145 -70 145 C-70 145.99 -70 146.98 -70 148 C-76.2340628 151.95623216 -76.2340628 151.95623216 -79.1875 152.125 C-82.07167214 150.33482419 -83.36541215 147.91890688 -85 145 C-85 144.01 -85 143.02 -85 142 C-82 142 -82 142 -80.3125 143.5 C-79.6628125 144.2425 -79.6628125 144.2425 -79 145 C-78.54753906 143.86691406 -78.09507812 142.73382813 -77.62890625 141.56640625 C-67.61034638 117.08843551 -54.82238016 93.8103777 -41.65527344 70.90771484 C-39.20218918 66.59853586 -36.81221436 62.25512948 -34.41748047 57.91333008 C-25.23778125 41.27322595 -15.63409263 24.91751846 -5.75 8.6875 C-5.28368164 7.92171631 -4.81736328 7.15593262 -4.33691406 6.36694336 C-1.12437294 1.12437294 -1.12437294 1.12437294 0 0 Z " fill="#000000" transform="translate(826,108)"/>
<path d="M0 0 C0.99 0 1.98 0 3 0 C1.60144584 3.71081915 -0.08309363 7.09994069 -2.01953125 10.55859375 C-22.98474654 48.50910152 -37.3656717 87.23751412 -45 130 C-44.38125 129.505 -43.7625 129.01 -43.125 128.5 C-41 127 -41 127 -39 127 C-39.17625835 129.37948772 -39.69719773 130.70225849 -41.40234375 132.37890625 C-42.90649092 133.62115486 -44.45129851 134.81376056 -46 136 C-49.78717347 134.51218185 -51.77407001 132.38011591 -54 129 C-53.67 128.01 -53.34 127.02 -53 126 C-51.68 126.99 -50.36 127.98 -49 129 C-48.78085937 127.75089844 -48.56171875 126.50179687 -48.3359375 125.21484375 C-40.94773147 84.19096258 -26.91171522 32.74479635 0 0 Z " fill="#000000" transform="translate(547,151)"/>
<path d="M0 0 C3.59391114 1.33488128 6.75490696 2.96022723 10 5 C9.46884894 9.51478398 7.63379708 12.34666857 5 16 C4.01 15.505 4.01 15.505 3 15 C3.33 13.35 3.66 11.7 4 10 C-7.12206893 13.90455611 -17.58463732 18.48918682 -28 24 C-28.67691895 24.34981934 -29.35383789 24.69963867 -30.05126953 25.06005859 C-51.91638491 36.39086456 -72.58513608 50.9291155 -91.375 66.8359375 C-92.365 67.67382812 -93.355 68.51171875 -94.375 69.375 C-95.20773438 70.10460937 -96.04046875 70.83421875 -96.8984375 71.5859375 C-97.93871094 72.28589844 -97.93871094 72.28589844 -99 73 C-99.99 72.67 -100.98 72.34 -102 72 C-102 71.34 -102 70.68 -102 70 C-99.97413667 68.25052882 -97.94084144 66.61686233 -95.8125 65 C-95.17465576 64.50870605 -94.53681152 64.01741211 -93.87963867 63.51123047 C-92.55697938 62.49309535 -91.23249321 61.47732941 -89.90625 60.46386719 C-88.20711809 59.15905227 -86.52235119 57.83885716 -84.84375 56.5078125 C-58.69217471 35.95051749 -28.97935263 16.13499483 3 6 C2.505 5.566875 2.01 5.13375 1.5 4.6875 C0 3 0 3 0 0 Z " fill="#000000" transform="translate(269,359)"/>
<path d="M0 0 C3.99455527 0.61454696 6.74466336 2.70646737 10 5 C9.43768609 8.93619738 8.38314183 11.79192446 6 15 C5.01 15 4.02 15 3 15 C3.50603992 12.83125748 3.99983813 11.00032373 5 9 C3.70751343 9.21934204 3.70751343 9.21934204 2.38891602 9.44311523 C-0.84805349 9.99119772 -4.0853928 10.53698939 -7.32299805 11.08129883 C-8.71670439 11.31607744 -10.11026319 11.55173381 -11.50366211 11.78833008 C-31.41516668 15.16764176 -31.41516668 15.16764176 -40.5625 15.0625 C-41.59503906 15.05347656 -42.62757813 15.04445313 -43.69140625 15.03515625 C-44.83416016 15.01775391 -44.83416016 15.01775391 -46 15 C-45.67 14.01 -45.34 13.02 -45 12 C-44.2972998 11.93006836 -43.59459961 11.86013672 -42.87060547 11.78808594 C-27.08980441 10.19230342 -11.55717024 8.09884989 4 5 C2.68 4.34 1.36 3.68 0 3 C0 2.01 0 1.02 0 0 Z " fill="#000000" transform="translate(516,315)"/>
<path d="M0 0 C1.64574566 -0.02688151 3.29161413 -0.04634123 4.9375 -0.0625 C6.31228516 -0.07990234 6.31228516 -0.07990234 7.71484375 -0.09765625 C10 0 10 0 11 1 C11.07205511 2.68608966 11.08386068 4.37500659 11.0625 6.0625 C11.05347656 6.98160156 11.04445313 7.90070313 11.03515625 8.84765625 C11.02355469 9.55792969 11.01195312 10.26820313 11 11 C10.01 11.33 9.02 11.66 8 12 C7.505 9.525 7.505 9.525 7 7 C5.74509766 7.85271484 5.74509766 7.85271484 4.46484375 8.72265625 C-5.73324059 15.53421251 -16.5650761 22.72950969 -29 24 C-29 23.01 -29 22.02 -29 21 C-28.21238281 20.72027344 -27.42476562 20.44054687 -26.61328125 20.15234375 C-15.63776105 16.11283276 -5.3170401 11.15028659 4 4 C2.68 3.34 1.36 2.68 0 2 C0 1.34 0 0.68 0 0 Z " fill="#000000" transform="translate(763,277)"/>
<path d="M0 0 C1.4540625 0.0309375 1.4540625 0.0309375 2.9375 0.0625 C5.0625 4.6875 5.0625 4.6875 3.9375 8.0625 C4.26300502 9.73071323 4.59596063 11.39749557 4.9375 13.0625 C4.6075 13.7225 4.2775 14.3825 3.9375 15.0625 C1.125 15.9375 1.125 15.9375 -2.0625 16.0625 C-4.4375 14.125 -4.4375 14.125 -6.0625 12.0625 C-2.43923261 10.8547442 -1.42103631 11.51938872 1.9375 13.0625 C1.9375 11.7425 1.9375 10.4225 1.9375 9.0625 C0.6175 9.0625 -0.7025 9.0625 -2.0625 9.0625 C-2.0625 8.0725 -2.0625 7.0825 -2.0625 6.0625 C-0.7425 6.0625 0.5775 6.0625 1.9375 6.0625 C1.6075 5.0725 1.2775 4.0825 0.9375 3.0625 C-1.0425 3.7225 -3.0225 4.3825 -5.0625 5.0625 C-3.9375 0.08035714 -3.9375 0.08035714 0 0 Z " fill="#000000" transform="translate(325.0625,735.9375)"/>
<path d="M0 0 C2.875 -0.125 2.875 -0.125 6 0 C8 2 8 2 8.0625 4.8125 C8.041875 5.864375 8.02125 6.91625 8 8 C8.291224 9.67453799 8.61070799 11.34550895 9 13 C6.67097204 15.15650737 5.60939697 16.01450945 2.375 15.9375 C0 15 0 15 -1.3125 12.9375 C-1.539375 12.298125 -1.76625 11.65875 -2 11 C-1.01 11 -0.02 11 1 11 C1 11.66 1 12.32 1 13 C2.32 12.67 3.64 12.34 5 12 C5 11.34 5 10.68 5 10 C4.01 9.67 3.02 9.34 2 9 C2 8.01 2 7.02 2 6 C2.99 5.34 3.98 4.68 5 4 C5 3.34 5 2.68 5 2 C1.88214887 2.64644661 1.88214887 2.64644661 1 5 C0.01 4.67 -0.98 4.34 -2 4 C-1.34 2.68 -0.68 1.36 0 0 Z " fill="#000000" transform="translate(211,366)"/>
<path d="M0 0 C2.875 -0.125 2.875 -0.125 6 0 C8 2 8 2 8.0625 4.8125 C8.041875 5.864375 8.02125 6.91625 8 8 C8.291224 9.67453799 8.61070799 11.34550895 9 13 C6.67097204 15.15650737 5.60939697 16.01450945 2.375 15.9375 C0 15 0 15 -1.3125 12.9375 C-1.539375 12.298125 -1.76625 11.65875 -2 11 C-1.01 11 -0.02 11 1 11 C1 11.66 1 12.32 1 13 C2.32 12.67 3.64 12.34 5 12 C5 11.34 5 10.68 5 10 C4.01 9.67 3.02 9.34 2 9 C2 8.01 2 7.02 2 6 C2.99 5.34 3.98 4.68 5 4 C5 3.34 5 2.68 5 2 C1.88214887 2.64644661 1.88214887 2.64644661 1 5 C0.01 4.67 -0.98 4.34 -2 4 C-1.34 2.68 -0.68 1.36 0 0 Z " fill="#000000" transform="translate(486,293)"/>
<path d="M0 0 C2.875 -0.125 2.875 -0.125 6 0 C8 2 8 2 8.0625 4.8125 C8.041875 5.864375 8.02125 6.91625 8 8 C8.291224 9.67453799 8.61070799 11.34550895 9 13 C6.67097204 15.15650737 5.60939697 16.01450945 2.375 15.9375 C0 15 0 15 -1.3125 12.9375 C-1.539375 12.298125 -1.76625 11.65875 -2 11 C-1.01 11 -0.02 11 1 11 C1 11.66 1 12.32 1 13 C2.32 12.67 3.64 12.34 5 12 C5 11.34 5 10.68 5 10 C4.01 9.67 3.02 9.34 2 9 C2 8.01 2 7.02 2 6 C2.99 5.34 3.98 4.68 5 4 C5 3.34 5 2.68 5 2 C1.88214887 2.64644661 1.88214887 2.64644661 1 5 C0.01 4.67 -0.98 4.34 -2 4 C-1.34 2.68 -0.68 1.36 0 0 Z " fill="#000000" transform="translate(730,265)"/>
<path d="M0 0 C2.33944736 0.28730055 4.6739143 0.61936779 7 1 C6.979375 2.051875 6.95875 3.10375 6.9375 4.1875 C6.98896802 7.32704904 7.26517187 9.96883396 8 13 C5.67097204 15.15650737 4.60939697 16.01450945 1.375 15.9375 C-1 15 -1 15 -2.3125 12.9375 C-2.539375 12.298125 -2.76625 11.65875 -3 11 C-0.33333333 11.66666667 2.33333333 12.33333333 5 13 C5 11.68 5 10.36 5 9 C3.68 9 2.36 9 1 9 C1 8.01 1 7.02 1 6 C1.99 5.67 2.98 5.34 4 5 C4 4.34 4 3.68 4 3 C2.68 3 1.36 3 0 3 C0 3.66 0 4.32 0 5 C-0.66 5 -1.32 5 -2 5 C-1.125 1.125 -1.125 1.125 0 0 Z " fill="#000000" transform="translate(748,265)"/>
<path d="M0 0 C1.010625 0.0825 2.02125 0.165 3.0625 0.25 C5.0625 3.25 5.0625 3.25 4.9375 5.6875 C3.89937696 8.72771747 2.46104906 10.16094114 0.0625 12.25 C1.7125 12.58 3.3625 12.91 5.0625 13.25 C5.0625 13.91 5.0625 14.57 5.0625 15.25 C1.7625 15.25 -1.5375 15.25 -4.9375 15.25 C-2.9375 11.25 -2.9375 11.25 -0.8125 8.6875 C1.36735538 6.36622611 1.36735538 6.36622611 1.0625 3.25 C-0.9175 3.91 -2.8975 4.57 -4.9375 5.25 C-3.82553359 0.32557733 -3.82553359 0.32557733 0 0 Z " fill="#000000" transform="translate(506.9375,292.75)"/>
<path d="M0 0 C3.0625 0.1875 3.0625 0.1875 5.0625 2.1875 C4.90004442 5.92397845 4.47466356 7.71288742 2 10.5625 C1.360625 11.09875 0.72125 11.635 0.0625 12.1875 C1.7125 12.5175 3.3625 12.8475 5.0625 13.1875 C5.0625 13.8475 5.0625 14.5075 5.0625 15.1875 C1.7625 15.1875 -1.5375 15.1875 -4.9375 15.1875 C-2.9375 11.1875 -2.9375 11.1875 -0.8125 8.625 C1.36735538 6.30372611 1.36735538 6.30372611 1.0625 3.1875 C0.4025 3.1875 -0.2575 3.1875 -0.9375 3.1875 C-1.2675 3.8475 -1.5975 4.5075 -1.9375 5.1875 C-2.9275 5.1875 -3.9175 5.1875 -4.9375 5.1875 C-3.82120474 0.24390669 -3.82120474 0.24390669 0 0 Z " fill="#000000" transform="translate(553.9375,198.8125)"/>
<path d="M0 0 C2.875 -0.125 2.875 -0.125 6 0 C6.66 0.66 7.32 1.32 8 2 C7.83754442 5.73647845 7.41216356 7.52538742 4.9375 10.375 C4.298125 10.91125 3.65875 11.4475 3 12 C4.65 12.33 6.3 12.66 8 13 C8 13.66 8 14.32 8 15 C4.7 15 1.4 15 -2 15 C0 11 0 11 2.125 8.4375 C4.30485538 6.11622611 4.30485538 6.11622611 4 3 C3.34 3 2.68 3 2 3 C1.67 3.66 1.34 4.32 1 5 C0.01 5 -0.98 5 -2 5 C-1.34 3.35 -0.68 1.7 0 0 Z " fill="#000000" transform="translate(697,553)"/>
<path d="M0 0 C2.875 -0.125 2.875 -0.125 6 0 C6.66 0.66 7.32 1.32 8 2 C7.83754442 5.73647845 7.41216356 7.52538742 4.9375 10.375 C4.298125 10.91125 3.65875 11.4475 3 12 C4.65 12.33 6.3 12.66 8 13 C8 13.66 8 14.32 8 15 C4.7 15 1.4 15 -2 15 C0 11 0 11 2.125 8.4375 C4.30485538 6.11622611 4.30485538 6.11622611 4 3 C3.34 3 2.68 3 2 3 C1.67 3.66 1.34 4.32 1 5 C0.01 5 -0.98 5 -2 5 C-1.34 3.35 -0.68 1.7 0 0 Z " fill="#000000" transform="translate(782,200)"/>
<path d="M0 0 C2.33944736 0.28730055 4.6739143 0.61936779 7 1 C7.36630156 4.93774177 7.30233203 6.56539771 5 9.875 C4.34 10.57625 3.68 11.2775 3 12 C4.65 12.33 6.3 12.66 8 13 C8 13.66 8 14.32 8 15 C4.7 15 1.4 15 -2 15 C-0.66837689 11.00513068 1.05840921 8.94159079 4 6 C4 5.01 4 4.02 4 3 C2.02 3.66 0.04 4.32 -2 5 C-1.125 1.125 -1.125 1.125 0 0 Z " fill="#000000" transform="translate(715,553)"/>
<path d="M0 0 C0.99 0 1.98 0 3 0 C2.47731534 2.76276177 1.89130413 5.3260876 1 8 C3.97 7.34 6.94 6.68 10 6 C9.67 7.32 9.34 8.64 9 10 C5.37 10.33 1.74 10.66 -2 11 C-3.13643966 7.59068103 -2.86747764 6.99664544 -1.5625 3.8125 C-1.13130859 2.73935547 -1.13130859 2.73935547 -0.69140625 1.64453125 C-0.46324219 1.10183594 -0.23507812 0.55914062 0 0 Z " fill="#000000" transform="translate(384,403)"/>
<path d="M0 0 C0 4.95 0 9.9 0 15 C-0.99 15 -1.98 15 -3 15 C-3 11.37 -3 7.74 -3 4 C-3.99 4.33 -4.98 4.66 -6 5 C-5.625 3.0625 -5.625 3.0625 -5 1 C-3 0 -3 0 0 0 Z " fill="#000000" transform="translate(312,736)"/>
<path d="M0 0 C0 4.95 0 9.9 0 15 C-0.99 15 -1.98 15 -3 15 C-3 11.37 -3 7.74 -3 4 C-3.99 4.33 -4.98 4.66 -6 5 C-5.625 3.0625 -5.625 3.0625 -5 1 C-3 0 -3 0 0 0 Z " fill="#000000" transform="translate(231,366)"/>
<path d="M0 0 C0 4.95 0 9.9 0 15 C-0.99 15 -1.98 15 -3 15 C-3 11.37 -3 7.74 -3 4 C-3.99 4.33 -4.98 4.66 -6 5 C-5.625 3.0625 -5.625 3.0625 -5 1 C-3 0 -3 0 0 0 Z " fill="#000000" transform="translate(802,200)"/>
<path d="M0 0 C0 4.95 0 9.9 0 15 C-0.99 15 -1.98 15 -3 15 C-3 11.37 -3 7.74 -3 4 C-3.99 4.33 -4.98 4.66 -6 5 C-5.625 3.0625 -5.625 3.0625 -5 1 C-3 0 -3 0 0 0 Z " fill="#000000" transform="translate(541,199)"/>
<path d="M0 0 C0 4.95 0 9.9 0 15 C-0.99 15 -1.98 15 -3 15 C-3 11.37 -3 7.74 -3 4 C-3.99 4.33 -4.98 4.66 -6 5 C-5.625 3.0625 -5.625 3.0625 -5 1 C-3 0 -3 0 0 0 Z " fill="#000000" transform="translate(144,55)"/>
<path d="M0 0 C0 4.95 0 9.9 0 15 C-0.66 15 -1.32 15 -2 15 C-2.33 11.37 -2.66 7.74 -3 4 C-3.99 4.33 -4.98 4.66 -6 5 C-6 4.01 -6 3.02 -6 2 C-3 0 -3 0 0 0 Z " fill="#000000" transform="translate(156,55)"/>
<path d="M0 0 C1.6065676 0.25620684 3.2102483 0.53055871 4.8125 0.8125 C6.15248047 1.03873047 6.15248047 1.03873047 7.51953125 1.26953125 C10.18321256 2.05395393 11.25690322 2.88627799 13 5 C9.45332822 6.25127906 7.27746562 5.72285053 3.75 4.5625 C2.85796875 4.27503906 1.9659375 3.98757812 1.046875 3.69140625 C0.37140625 3.46324219 -0.3040625 3.23507813 -1 3 C-0.67 2.01 -0.34 1.02 0 0 Z " fill="#000000" transform="translate(451,89)"/>
<path d="M0 0 C2.64 0.99 5.28 1.98 8 3 C7.67 4.98 7.34 6.96 7 9 C6.01 9 5.02 9 4 9 C3.87625 8.071875 3.87625 8.071875 3.75 7.125 C3.18741541 4.81562433 3.18741541 4.81562433 0.9375 3.75 C0.298125 3.5025 -0.34125 3.255 -1 3 C-0.67 2.01 -0.34 1.02 0 0 Z " fill="#000000" transform="translate(477,97)"/>
<path d="M0 0 C0.33 0.99 0.66 1.98 1 3 C-0.26691507 3.67408308 -1.53870749 4.33900497 -2.8125 5 C-3.52019531 5.37125 -4.22789062 5.7425 -4.95703125 6.125 C-7 7 -7 7 -10 7 C-10 6.01 -10 5.02 -10 4 C-8.71086513 3.32845067 -7.41859796 2.66291141 -6.125 2 C-5.40570313 1.62875 -4.68640625 1.2575 -3.9453125 0.875 C-2 0 -2 0 0 0 Z " fill="#000000" transform="translate(207,688)"/>
<path d="M0 0 C3.43595166 1.52708963 6.11912454 3.59927045 9 6 C8.67 6.99 8.34 7.98 8 9 C4.84866512 7.16172132 1.88035092 5.24027294 -1 3 C-0.67 2.01 -0.34 1.02 0 0 Z " fill="#000000" transform="translate(86,666)"/>
<path d="M0 0 C-0.125 1.75 -0.125 1.75 -1 4 C-3.875 6.3125 -3.875 6.3125 -7 8 C-7.99 7.67 -8.98 7.34 -10 7 C-10 6.34 -10 5.68 -10 5 C-8.3203125 3.7109375 -8.3203125 3.7109375 -6.125 2.375 C-5.40570312 1.92898438 -4.68640625 1.48296875 -3.9453125 1.0234375 C-2 0 -2 0 0 0 Z " fill="#000000" transform="translate(792,605)"/>
<path d="M0 0 C0 0.66 0 1.32 0 2 C-1.26418246 2.69965443 -2.53665402 3.38434763 -3.8125 4.0625 C-4.52019531 4.44535156 -5.22789062 4.82820313 -5.95703125 5.22265625 C-8 6 -8 6 -11 5 C-11 4.34 -11 3.68 -11 3 C-9.73581754 2.30034557 -8.46334598 1.61565237 -7.1875 0.9375 C-6.47980469 0.55464844 -5.77210938 0.17179687 -5.04296875 -0.22265625 C-3 -1 -3 -1 0 0 Z " fill="#000000" transform="translate(221,460)"/>
<path d="M0 0 C-0.33 0.99 -0.66 1.98 -1 3 C-3.28515625 3.94921875 -3.28515625 3.94921875 -6.0625 4.6875 C-7.44115234 5.06455078 -7.44115234 5.06455078 -8.84765625 5.44921875 C-9.55792969 5.63097656 -10.26820313 5.81273438 -11 6 C-10.74609375 4.11328125 -10.74609375 4.11328125 -10 2 C-8.22265625 0.91796875 -8.22265625 0.91796875 -6.0625 0.1875 C-5.35222656 -0.06644531 -4.64195312 -0.32039063 -3.91015625 -0.58203125 C-2 -1 -2 -1 0 0 Z " fill="#000000" transform="translate(282,95)"/>
<path d="M0 0 C-3.12621626 3.39417765 -5.56541027 5.6062718 -10 7 C-10.33 6.01 -10.66 5.02 -11 4 C-9.73760288 3.13341385 -8.46472499 2.28207941 -7.1875 1.4375 C-6.47980469 0.96183594 -5.77210938 0.48617187 -5.04296875 -0.00390625 C-3 -1 -3 -1 0 0 Z " fill="#000000" transform="translate(225,679)"/>
<path d="M0 0 C-0.17625835 2.37948772 -0.69719773 3.70225849 -2.40234375 5.37890625 C-3.90649092 6.62115486 -5.45129851 7.81376056 -7 9 C-7.66 8.67 -8.32 8.34 -9 8 C-7.47364599 4.11473526 -4.49771687 0 0 0 Z " fill="#000000" transform="translate(240,665)"/>
<path d="M0 0 C-0.125 1.8125 -0.125 1.8125 -1 4 C-4.20883825 5.95320589 -6.2205439 7 -10 7 C-10 6.01 -10 5.02 -10 4 C-8.71086513 3.32845067 -7.41859796 2.66291141 -6.125 2 C-5.40570312 1.62875 -4.68640625 1.2575 -3.9453125 0.875 C-2 0 -2 0 0 0 Z " fill="#000000" transform="translate(741,636)"/>
<path d="M0 0 C0.66 0.33 1.32 0.66 2 1 C0.68775452 4.93673644 -0.91910327 7.22719294 -4 10 C-4.99 9.67 -5.98 9.34 -7 9 C-6.02180976 7.68677212 -5.0424189 6.37443848 -4.0625 5.0625 C-3.51722656 4.33160156 -2.97195313 3.60070312 -2.41015625 2.84765625 C-1 1 -1 1 0 0 Z " fill="#000000" transform="translate(266,635)"/>
<path d="M0 0 C0.66 0.33 1.32 0.66 2 1 C0.6062718 5.43458973 -1.60582235 7.87378374 -5 11 C-5.33 10.01 -5.66 9.02 -6 8 C-4.78515625 5.95703125 -4.78515625 5.95703125 -3.0625 3.8125 C-2.49660156 3.09707031 -1.93070312 2.38164063 -1.34765625 1.64453125 C-0.90292969 1.10183594 -0.45820313 0.55914063 0 0 Z " fill="#000000" transform="translate(278,619)"/>
<path d="M0 0 C0.99 0.66 1.98 1.32 3 2 C1.35 4.97 -0.3 7.94 -2 11 C-2.99 10.67 -3.98 10.34 -5 10 C-3.66511872 6.40608886 -2.03977277 3.24509304 0 0 Z " fill="#000000" transform="translate(310,568)"/>
<path d="M0 0 C0.66 0.99 1.32 1.98 2 3 C0.5437455 3.67119549 -0.91507867 4.33681807 -2.375 5 C-3.59316406 5.556875 -3.59316406 5.556875 -4.8359375 6.125 C-7 7 -7 7 -9 7 C-8.75390625 5.109375 -8.75390625 5.109375 -8 3 C-6.15234375 1.953125 -6.15234375 1.953125 -3.9375 1.25 C-2.83728516 0.88648438 -2.83728516 0.88648438 -1.71484375 0.515625 C-1.14894531 0.34546875 -0.58304688 0.1753125 0 0 Z " fill="#000000" transform="translate(238,451)"/>
<path d="M0 0 C0 0.99 0 1.98 0 3 C-3.87684087 4.19287411 -6.91621923 5 -11 5 C-11 4.01 -11 3.02 -11 2 C-7.12315913 0.80712589 -4.08378077 0 0 0 Z " fill="#000000" transform="translate(316,427)"/>
<path d="M0 0 C0.99 0 1.98 0 3 0 C2.44894091 3.9492568 1.61064629 7.34920174 0 11 C-0.99 10.67 -1.98 10.34 -3 10 C-2.01 6.7 -1.02 3.4 0 0 Z " fill="#000000" transform="translate(391,384)"/>
<path d="M0 0 C-0.33 0.99 -0.66 1.98 -1 3 C-4.3 3.66 -7.6 4.32 -11 5 C-11 4.01 -11 3.02 -11 2 C-9.54494642 1.47007308 -8.08581873 0.9513211 -6.625 0.4375 C-5.81289063 0.14746094 -5.00078125 -0.14257812 -4.1640625 -0.44140625 C-2 -1 -2 -1 0 0 Z " fill="#000000" transform="translate(712,358)"/>
<path d="M0 0 C0 0.99 0 1.98 0 3 C-4.95 4.485 -4.95 4.485 -10 6 C-10.33 5.01 -10.66 4.02 -11 3 C-9.73160474 2.49384702 -8.46016898 1.99530901 -7.1875 1.5 C-6.12595703 1.08234375 -6.12595703 1.08234375 -5.04296875 0.65625 C-3 0 -3 0 0 0 Z " fill="#000000" transform="translate(731,351)"/>
<path d="M0 0 C0.99 0 1.98 0 3 0 C2.01 3.3 1.02 6.6 0 10 C-0.99 10 -1.98 10 -3 10 C-2.69201674 8.51988629 -2.378482 7.04092675 -2.0625 5.5625 C-1.88847656 4.73878906 -1.71445312 3.91507812 -1.53515625 3.06640625 C-1 1 -1 1 0 0 Z " fill="#000000" transform="translate(418,308)"/>
<path d="M0 0 C0.99 0.33 1.98 0.66 3 1 C1.66511872 4.59391114 0.03977277 7.75490696 -2 11 C-2.99 10.67 -3.98 10.34 -5 10 C-3.66511872 6.40608886 -2.03977277 3.24509304 0 0 Z " fill="#000000" transform="translate(215,141)"/>
<path d="M0 0 C0 0.99 0 1.98 0 3 C-3.63 3.66 -7.26 4.32 -11 5 C-11 4.01 -11 3.02 -11 2 C-7.17679443 0.57741188 -4.08718695 -0.24042276 0 0 Z " fill="#000000" transform="translate(301,89)"/>
<path d="M0 0 C3.63 0 7.26 0 11 0 C11 0.99 11 1.98 11 3 C7.37 3 3.74 3 0 3 C0 2.01 0 1.02 0 0 Z " fill="#000000" transform="translate(158,699)"/>
<path d="M0 0 C4.12751449 0.60698743 7.3321148 2.03810791 11 4 C10.67 4.66 10.34 5.32 10 6 C6.28111761 5.49287967 3.26545761 4.88391785 0 3 C0 2.01 0 1.02 0 0 Z " fill="#000000" transform="translate(119,689)"/>
<path d="M0 0 C3.63 0.33 7.26 0.66 11 1 C11 1.99 11 2.98 11 4 C9.54176788 4.0270043 8.08339325 4.04639787 6.625 4.0625 C5.81289063 4.07410156 5.00078125 4.08570313 4.1640625 4.09765625 C2 4 2 4 0 3 C0 2.01 0 1.02 0 0 Z " fill="#000000" transform="translate(636,665)"/>
<path d="M0 0 C0 0.99 0 1.98 0 3 C-3.3 3.66 -6.6 4.32 -10 5 C-10.33 4.01 -10.66 3.02 -11 2 C-7.12315913 0.80712589 -4.08378077 0 0 0 Z " fill="#000000" transform="translate(686,660)"/>
<path d="M0 0 C3.7952131 1.49097658 5.61042731 3.75700849 8 7 C7.67 7.66 7.34 8.32 7 9 C2.79373966 7.49776416 1.26099979 4.71449966 -1 1 C-0.67 0.67 -0.34 0.34 0 0 Z " fill="#000000" transform="translate(58,638)"/>
<path d="M0 0 C0.66 0.99 1.32 1.98 2 3 C0.71186658 3.83878455 -0.58063256 4.67086783 -1.875 5.5 C-2.59429688 5.9640625 -3.31359375 6.428125 -4.0546875 6.90625 C-6 8 -6 8 -8 8 C-8.33 7.01 -8.66 6.02 -9 5 C-6.03 3.35 -3.06 1.7 0 0 Z " fill="#000000" transform="translate(757,626)"/>
<path d="M0 0 C0.99 0.33 1.98 0.66 3 1 C3 1.66 3 2.32 3 3 C0.03 4.65 -2.94 6.3 -6 8 C-6 6.68 -6 5.36 -6 4 C-3.1875 1.6875 -3.1875 1.6875 0 0 Z " fill="#000000" transform="translate(773,616)"/>
<path d="M0 0 C0.99 0.33 1.98 0.66 3 1 C2.05016642 2.50539661 1.08988109 4.00420347 0.125 5.5 C-0.40867187 6.3353125 -0.94234375 7.170625 -1.4921875 8.03125 C-1.98976563 8.6809375 -2.48734375 9.330625 -3 10 C-3.66 10 -4.32 10 -5 10 C-4.49701212 5.59885603 -2.91227269 3.28804981 0 0 Z " fill="#000000" transform="translate(289,603)"/>
<path d="M0 0 C0.99 0 1.98 0 3 0 C4.17571451 3.67410785 4.07366746 7.16929183 4 11 C3.01 11 2.02 11 1 11 C0.67 7.37 0.34 3.74 0 0 Z " fill="#000000" transform="translate(581,592)"/>
<path d="M0 0 C0.99 0 1.98 0 3 0 C3 3.63 3 7.26 3 11 C2.01 11 1.02 11 0 11 C0 7.37 0 3.74 0 0 Z " fill="#000000" transform="translate(580,572)"/>
<path d="M0 0 C0.99 0 1.98 0 3 0 C2.43454163 3.95820859 1.19097652 6.6659053 -1 10 C-1.99 9.67 -2.98 9.34 -4 9 C-2.68 6.03 -1.36 3.06 0 0 Z " fill="#000000" transform="translate(328,533)"/>
<path d="M0 0 C0.99 0 1.98 0 3 0 C2.43454163 3.95820859 1.19097652 6.6659053 -1 10 C-1.99 9.67 -2.98 9.34 -4 9 C-2.68 6.03 -1.36 3.06 0 0 Z " fill="#000000" transform="translate(337,515)"/>
<path d="M0 0 C0.99 0.33 1.98 0.66 3 1 C1.68 4.3 0.36 7.6 -1 11 C-1.99 10.67 -2.98 10.34 -4 10 C-2.8905928 6.51329166 -1.73662334 3.22515763 0 0 Z " fill="#000000" transform="translate(346,496)"/>
<path d="M0 0 C0.33 0.99 0.66 1.98 1 3 C-1.97 4.32 -4.94 5.64 -8 7 C-8.33 5.68 -8.66 4.36 -9 3 C-6.03 2.01 -3.06 1.02 0 0 Z " fill="#000000" transform="translate(257,444)"/>
<path d="M0 0 C0.33 0.99 0.66 1.98 1 3 C-4.445 4.485 -4.445 4.485 -10 6 C-10.33 5.01 -10.66 4.02 -11 3 C-9.54293274 2.49632243 -8.08429904 1.99717444 -6.625 1.5 C-5.81289063 1.2215625 -5.00078125 0.943125 -4.1640625 0.65625 C-2 0 -2 0 0 0 Z " fill="#000000" transform="translate(277,438)"/>
<path d="M0 0 C0 0.66 0 1.32 0 2 C-5.445 3.485 -5.445 3.485 -11 5 C-11 4.01 -11 3.02 -11 2 C-9.73392393 1.46770674 -8.46189588 0.94955456 -7.1875 0.4375 C-6.47980469 0.14746094 -5.77210938 -0.14257812 -5.04296875 -0.44140625 C-3 -1 -3 -1 0 0 Z " fill="#000000" transform="translate(297,433)"/>
<path d="M0 0 C0.66 0 1.32 0 2 0 C1.125 7.625 1.125 7.625 0 11 C-0.99 11 -1.98 11 -3 11 C-2.69217504 9.35328588 -2.37860766 7.70764424 -2.0625 6.0625 C-1.88847656 5.14597656 -1.71445312 4.22945313 -1.53515625 3.28515625 C-1 1 -1 1 0 0 Z " fill="#000000" transform="translate(606,414)"/>
<path d="M0 0 C0 0.66 0 1.32 0 2 C-3.87684087 3.19287411 -6.91621923 4 -11 4 C-11 3.01 -11 2.02 -11 1 C-3.375 -1.125 -3.375 -1.125 0 0 Z " fill="#000000" transform="translate(375,414)"/>
<path d="M0 0 C0 0.99 0 1.98 0 3 C-3.63 3.33 -7.26 3.66 -11 4 C-11 3.01 -11 2.02 -11 1 C-7.27569643 0.30710631 -3.78916254 -0.11144596 0 0 Z " fill="#000000" transform="translate(414,406)"/>
<path d="M0 0 C0 0.99 0 1.98 0 3 C-7.625 5 -7.625 5 -11 5 C-11 4.01 -11 3.02 -11 2 C-9.5422647 1.664061 -8.08378894 1.33133376 -6.625 1 C-5.40683594 0.7215625 -5.40683594 0.7215625 -4.1640625 0.4375 C-2 0 -2 0 0 0 Z " fill="#000000" transform="translate(434,402)"/>
<path d="M0 0 C0 0.99 0 1.98 0 3 C-3.63 3.66 -7.26 4.32 -11 5 C-11 4.01 -11 3.02 -11 2 C-3.375 0 -3.375 0 0 0 Z " fill="#000000" transform="translate(454,399)"/>
<path d="M0 0 C0 0.99 0 1.98 0 3 C-3.63 3.66 -7.26 4.32 -11 5 C-10.67 3.68 -10.34 2.36 -10 1 C-3.375 0 -3.375 0 0 0 Z " fill="#000000" transform="translate(474,396)"/>
<path d="M0 0 C0.33 0.99 0.66 1.98 1 3 C-2.63 3.33 -6.26 3.66 -10 4 C-10.33 3.01 -10.66 2.02 -11 1 C-7.27569643 0.30710631 -3.78916254 -0.11144596 0 0 Z " fill="#000000" transform="translate(533,388)"/>
<path d="M0 0 C0 0.99 0 1.98 0 3 C-3.67410785 4.17571451 -7.16929183 4.07366746 -11 4 C-11 3.01 -11 2.02 -11 1 C-7.26513121 0.4254048 -3.78706732 0 0 0 Z " fill="#000000" transform="translate(613,377)"/>
<path d="M0 0 C0 0.99 0 1.98 0 3 C-3.67410785 4.17571451 -7.16929183 4.07366746 -11 4 C-11 3.01 -11 2.02 -11 1 C-7.26513121 0.4254048 -3.78706732 0 0 0 Z " fill="#000000" transform="translate(633,374)"/>
<path d="M0 0 C0 0.99 0 1.98 0 3 C-3.63 3.33 -7.26 3.66 -11 4 C-11 3.01 -11 2.02 -11 1 C-7.26562152 0.12132271 -3.83225427 -0.08912219 0 0 Z " fill="#000000" transform="translate(653,371)"/>
<path d="M0 0 C0.99 0 1.98 0 3 0 C2.32829194 3.8063457 1.27253436 7.35206816 0 11 C-0.99 10.67 -1.98 10.34 -3 10 C-2.01 6.7 -1.02 3.4 0 0 Z " fill="#000000" transform="translate(398,365)"/>
<path d="M0 0 C0.99 0 1.98 0 3 0 C2.01 3.3 1.02 6.6 0 10 C-0.99 10 -1.98 10 -3 10 C-2.69201674 8.51988629 -2.378482 7.04092675 -2.0625 5.5625 C-1.88847656 4.73878906 -1.71445312 3.91507812 -1.53515625 3.06640625 C-1 1 -1 1 0 0 Z " fill="#000000" transform="translate(405,346)"/>
<path d="M0 0 C0.66 0.33 1.32 0.66 2 1 C1 4 1 4 -1.875 5.6875 C-5 7 -5 7 -8 7 C-8 6.01 -8 5.02 -8 4 C-6.71349294 3.30289269 -5.42059335 2.61757124 -4.125 1.9375 C-3.40570312 1.55464844 -2.68640625 1.17179687 -1.9453125 0.77734375 C-1.30335938 0.52082031 -0.66140625 0.26429688 0 0 Z " fill="#000000" transform="translate(747,342)"/>
<path d="M0 0 C0.99 0 1.98 0 3 0 C2.34 2.97 1.68 5.94 1 9 C-0.32 9.33 -1.64 9.66 -3 10 C-2.01 6.7 -1.02 3.4 0 0 Z " fill="#000000" transform="translate(641,300)"/>
<path d="M0 0 C0.99 0.33 1.98 0.66 3 1 C2.57742724 2.4835001 2.13643678 3.96176424 1.6875 5.4375 C1.44386719 6.26121094 1.20023438 7.08492187 0.94921875 7.93359375 C0.63597656 8.61550781 0.32273437 9.29742187 0 10 C-0.99 10.33 -1.98 10.66 -3 11 C-2.44894091 7.0507432 -1.61064629 3.65079826 0 0 Z " fill="#000000" transform="translate(662,243)"/>
<path d="M0 0 C0.99 0 1.98 0 3 0 C3 3.63 3 7.26 3 11 C2.01 11 1.02 11 0 11 C0 7.37 0 3.74 0 0 Z " fill="#000000" transform="translate(191,218)"/>
<path d="M0 0 C0.99 0 1.98 0 3 0 C2.34 3.3 1.68 6.6 1 10 C0.01 10.33 -0.98 10.66 -2 11 C-1.125 3.375 -1.125 3.375 0 0 Z " fill="#000000" transform="translate(460,173)"/>
<path d="M0 0 C0.99 0.33 1.98 0.66 3 1 C1.68 4.3 0.36 7.6 -1 11 C-1.99 10.67 -2.98 10.34 -4 10 C-3.52449439 8.51965236 -3.04448784 7.04074979 -2.5625 5.5625 C-2.29566406 4.73878906 -2.02882813 3.91507813 -1.75390625 3.06640625 C-1 1 -1 1 0 0 Z " fill="#000000" transform="translate(692,169)"/>
<path d="M0 0 C0.99 0.33 1.98 0.66 3 1 C2.01 4.3 1.02 7.6 0 11 C-0.99 11 -1.98 11 -3 11 C-2.69078116 9.54096742 -2.37751201 8.08279278 -2.0625 6.625 C-1.88847656 5.81289062 -1.71445312 5.00078125 -1.53515625 4.1640625 C-1 2 -1 2 0 0 Z " fill="#000000" transform="translate(472,134)"/>
<path d="M0 0 C0.99 0.33 1.98 0.66 3 1 C1.68 4.3 0.36 7.6 -1 11 C-1.99 10.67 -2.98 10.34 -4 10 C-3.52449439 8.51965236 -3.04448784 7.04074979 -2.5625 5.5625 C-2.29566406 4.73878906 -2.02882813 3.91507813 -1.75390625 3.06640625 C-1 1 -1 1 0 0 Z " fill="#000000" transform="translate(708,132)"/>
<path d="M0 0 C0.99 0.33 1.98 0.66 3 1 C2.07456291 2.34173403 1.13422595 3.67320159 0.1875 5 C-0.33457031 5.7425 -0.85664063 6.485 -1.39453125 7.25 C-1.92433594 7.8275 -2.45414063 8.405 -3 9 C-3.99 9 -4.98 9 -6 9 C-4.68775452 5.06326356 -3.08089673 2.77280706 0 0 Z " fill="#000000" transform="translate(228,126)"/>
<path d="M0 0 C0.99 0.33 1.98 0.66 3 1 C2.01 4.3 1.02 7.6 0 11 C-0.99 10.67 -1.98 10.34 -3 10 C-2.69201674 8.51988629 -2.378482 7.04092675 -2.0625 5.5625 C-1.88847656 4.73878906 -1.71445312 3.91507812 -1.53515625 3.06640625 C-1 1 -1 1 0 0 Z " fill="#000000" transform="translate(478,115)"/>
<path d="M0 0 C0.99 0 1.98 0 3 0 C3 0.99 3 1.98 3 3 C1.57421875 4.421875 1.57421875 4.421875 -0.3125 5.75 C-0.92738281 6.19859375 -1.54226562 6.6471875 -2.17578125 7.109375 C-4 8 -4 8 -7 7 C-4.66666667 4.66666667 -2.33333333 2.33333333 0 0 Z " fill="#000000" transform="translate(243,113)"/>
<path d="M0 0 C0 0.99 0 1.98 0 3 C-3.63 3.33 -7.26 3.66 -11 4 C-11 3.01 -11 2.02 -11 1 C-7.26562152 0.12132271 -3.83225427 -0.08912219 0 0 Z " fill="#000000" transform="translate(321,85)"/>
<path d="M0 0 C-0.33 0.66 -0.66 1.32 -1 2 C-3.28515625 2.6328125 -3.28515625 2.6328125 -6.0625 3.125 C-6.98160156 3.29257812 -7.90070313 3.46015625 -8.84765625 3.6328125 C-9.91306641 3.81457031 -9.91306641 3.81457031 -11 4 C-11 3.01 -11 2.02 -11 1 C-6.87831311 -0.62950412 -4.29299643 -1.26264601 0 0 Z " fill="#000000" transform="translate(189,697)"/>
<path d="M0 0 C3.63 0.66 7.26 1.32 11 2 C10.67 2.99 10.34 3.98 10 5 C6.7 4.34 3.4 3.68 0 3 C0 2.01 0 1.02 0 0 Z " fill="#000000" transform="translate(138,696)"/>
<path d="M0 0 C3.59391114 1.33488128 6.75490696 2.96022723 10 5 C9.01 6.485 9.01 6.485 8 8 C5.03 6.02 2.06 4.04 -1 2 C-0.67 1.34 -0.34 0.68 0 0 Z " fill="#000000" transform="translate(102,679)"/>
<path d="M0 0 C0 0.66 0 1.32 0 2 C-1.4577353 2.335939 -2.91621106 2.66866624 -4.375 3 C-5.59316406 3.2784375 -5.59316406 3.2784375 -6.8359375 3.5625 C-9 4 -9 4 -11 4 C-11 3.01 -11 2.02 -11 1 C-9.5437328 0.63743142 -8.08488815 0.28520207 -6.625 -0.0625 C-5.40683594 -0.35833984 -5.40683594 -0.35833984 -4.1640625 -0.66015625 C-2 -1 -2 -1 0 0 Z " fill="#000000" transform="translate(667,665)"/>
<path d="M0 0 C0 0.66 0 1.32 0 2 C-6.4 5.07692308 -6.4 5.07692308 -9.4375 4.6875 C-9.953125 4.460625 -10.46875 4.23375 -11 4 C-8.32997607 0.73663741 -4.08378642 -2.04189321 0 0 Z " fill="#000000" transform="translate(705,654)"/>
<path d="M0 0 C1.17825358 0.90172468 2.34231577 1.82201502 3.5 2.75 C4.1496875 3.26046875 4.799375 3.7709375 5.46875 4.296875 C7 6 7 6 7 10 C5.82174642 9.09827532 4.65768423 8.17798498 3.5 7.25 C2.8503125 6.73953125 2.200625 6.2290625 1.53125 5.703125 C0 4 0 4 0 0 Z " fill="#000000" transform="translate(72,652)"/>
<path d="M0 0 C-0.24609375 1.890625 -0.24609375 1.890625 -1 4 C-2.84765625 5.046875 -2.84765625 5.046875 -5.0625 5.75 C-6.16271484 6.11351562 -6.16271484 6.11351562 -7.28515625 6.484375 C-8.13400391 6.73960937 -8.13400391 6.73960937 -9 7 C-9 5.68 -9 4.36 -9 3 C-2.25 0 -2.25 0 0 0 Z " fill="#000000" transform="translate(723,645)"/>
<path d="M0 0 C0.99 0 1.98 0 3 0 C2.29445932 3.66881155 0.72264494 6.70450534 -1 10 C-1.99 10 -2.98 10 -4 10 C-3.29445932 6.33118845 -1.72264494 3.29549466 0 0 Z " fill="#000000" transform="translate(319,551)"/>
<path d="M0 0 C0.99 0 1.98 0 3 0 C3.14285714 7.42857143 3.14285714 7.42857143 2 11 C1.01 11 0.02 11 -1 11 C-0.67 7.37 -0.34 3.74 0 0 Z " fill="#000000" transform="translate(582,532)"/>
<path d="M0 0 C0.99 0.33 1.98 0.66 3 1 C2.34 4.3 1.68 7.6 1 11 C0.01 11 -0.98 11 -2 11 C-1.34 7.37 -0.68 3.74 0 0 Z " fill="#000000" transform="translate(588,492)"/>
<path d="M0 0 C0.99 0 1.98 0 3 0 C2.60404157 1.48484412 2.18249294 2.9628831 1.75 4.4375 C1.51796875 5.26121094 1.2859375 6.08492188 1.046875 6.93359375 C0 9 0 9 -2.109375 9.78515625 C-2.73328125 9.85605469 -3.3571875 9.92695313 -4 10 C-2.8905928 6.51329166 -1.73662334 3.22515763 0 0 Z " fill="#000000" transform="translate(354,478)"/>
<path d="M0 0 C0.99 0.33 1.98 0.66 3 1 C1.68 4.3 0.36 7.6 -1 11 C-1.99 10.67 -2.98 10.34 -4 10 C-2.68 6.7 -1.36 3.4 0 0 Z " fill="#000000" transform="translate(362,459)"/>
<path d="M0 0 C0.99 0.33 1.98 0.66 3 1 C2.34 4.3 1.68 7.6 1 11 C0.01 11 -0.98 11 -2 11 C-1.85892253 9.54119891 -1.71197585 8.08296449 -1.5625 6.625 C-1.48128906 5.81289063 -1.40007813 5.00078125 -1.31640625 4.1640625 C-1 2 -1 2 0 0 Z " fill="#000000" transform="translate(596,453)"/>
<path d="M0 0 C0.66 0.33 1.32 0.66 2 1 C1.49287967 4.71888239 0.88391785 7.73454239 -1 11 C-1.99 11 -2.98 11 -4 11 C-3.5247412 9.35303396 -3.04468109 7.70745272 -2.5625 6.0625 C-2.29566406 5.14597656 -2.02882813 4.22945313 -1.75390625 3.28515625 C-1 1 -1 1 0 0 Z " fill="#000000" transform="translate(370,440)"/>
<path d="M0 0 C0.99 0 1.98 0 3 0 C2.01 3.3 1.02 6.6 0 10 C-0.99 10 -1.98 10 -3 10 C-2.49287967 6.28111761 -1.88391785 3.26545761 0 0 Z " fill="#000000" transform="translate(377,422)"/>
<path d="M0 0 C0.33 0.99 0.66 1.98 1 3 C-2.82320557 4.42258812 -5.91281305 5.24042276 -10 5 C-9.67 4.01 -9.34 3.02 -9 2 C-6.93359375 1.26953125 -6.93359375 1.26953125 -4.4375 0.8125 C-3.61121094 0.65394531 -2.78492188 0.49539063 -1.93359375 0.33203125 C-1.29550781 0.22246094 -0.65742188 0.11289062 0 0 Z " fill="#000000" transform="translate(354,417)"/>
<path d="M0 0 C0.99 0 1.98 0 3 0 C2.01 3.63 1.02 7.26 0 11 C-0.99 10.67 -1.98 10.34 -3 10 C-2.01 6.7 -1.02 3.4 0 0 Z " fill="#000000" transform="translate(611,395)"/>
<path d="M0 0 C0 0.66 0 1.32 0 2 C-1.4577353 2.335939 -2.91621106 2.66866624 -4.375 3 C-5.59316406 3.2784375 -5.59316406 3.2784375 -6.8359375 3.5625 C-9 4 -9 4 -11 4 C-11 3.01 -11 2.02 -11 1 C-9.5437328 0.63743142 -8.08488815 0.28520207 -6.625 -0.0625 C-5.40683594 -0.35833984 -5.40683594 -0.35833984 -4.1640625 -0.66015625 C-2 -1 -2 -1 0 0 Z " fill="#000000" transform="translate(494,394)"/>
<path d="M0 0 C1.8871875 0.0309375 1.8871875 0.0309375 3.8125 0.0625 C3.4825 1.0525 3.1525 2.0425 2.8125 3.0625 C-0.4875 3.3925 -3.7875 3.7225 -7.1875 4.0625 C-7.1875 3.0725 -7.1875 2.0825 -7.1875 1.0625 C-4.43671116 0.14557039 -2.82801087 -0.04636083 0 0 Z " fill="#000000" transform="translate(510.1875,390.9375)"/>
<path d="M0 0 C0 0.99 0 1.98 0 3 C-3.63 3.33 -7.26 3.66 -11 4 C-11 3.01 -11 2.02 -11 1 C-7.27569643 0.30710631 -3.78916254 -0.11144596 0 0 Z " fill="#000000" transform="translate(593,380)"/>
<path d="M0 0 C0.99 0 1.98 0 3 0 C2.53199289 4.05606165 2.12046792 7.46588679 0 11 C-0.66 10.67 -1.32 10.34 -2 10 C-1.34 6.7 -0.68 3.4 0 0 Z " fill="#000000" transform="translate(616,376)"/>
<path d="M0 0 C0 0.66 0 1.32 0 2 C-3.63 2.66 -7.26 3.32 -11 4 C-11 3.01 -11 2.02 -11 1 C-3.57142857 -1.42857143 -3.57142857 -1.42857143 0 0 Z " fill="#000000" transform="translate(673,368)"/>
<path d="M0 0 C0.99 0 1.98 0 3 0 C3.33 3.63 3.66 7.26 4 11 C3.01 11 2.02 11 1 11 C-0.28317892 7.15046324 -0.06643637 4.05261865 0 0 Z " fill="#000000" transform="translate(191,238)"/>
<path d="M0 0 C0.66 0.33 1.32 0.66 2 1 C1.54177532 4.46941546 1.10868317 7.67395049 0 11 C-0.99 11 -1.98 11 -3 11 C-2.69217504 9.35328588 -2.37860766 7.70764424 -2.0625 6.0625 C-1.88847656 5.14597656 -1.71445312 4.22945312 -1.53515625 3.28515625 C-1 1 -1 1 0 0 Z " fill="#000000" transform="translate(449,211)"/>
<path d="M0 0 C0.66 0 1.32 0 2 0 C1.44894091 3.9492568 0.61064629 7.34920174 -1 11 C-1.99 10.67 -2.98 10.34 -4 10 C-3.52449439 8.51965236 -3.04448784 7.04074979 -2.5625 5.5625 C-2.29566406 4.73878906 -2.02882813 3.91507813 -1.75390625 3.06640625 C-1 1 -1 1 0 0 Z " fill="#000000" transform="translate(677,206)"/>
<path d="M0 0 C0.99 0 1.98 0 3 0 C2.67 3.63 2.34 7.26 2 11 C1.01 11 0.02 11 -1 11 C-0.67 7.37 -0.34 3.74 0 0 Z " fill="#000000" transform="translate(193,198)"/>
<path d="M0 0 C0.66 0 1.32 0 2 0 C1 7.42857143 1 7.42857143 0 11 C-0.99 11 -1.98 11 -3 11 C-2.53199289 6.94393835 -2.12046792 3.53411321 0 0 Z " fill="#000000" transform="translate(455,192)"/>
<path d="M0 0 C0.66 0 1.32 0 2 0 C1.85892253 1.45880109 1.71197585 2.91703551 1.5625 4.375 C1.48128906 5.18710938 1.40007812 5.99921875 1.31640625 6.8359375 C1 9 1 9 0 11 C-0.99 11 -1.98 11 -3 11 C-2.69217504 9.35328588 -2.37860766 7.70764424 -2.0625 6.0625 C-1.88847656 5.14597656 -1.71445313 4.22945312 -1.53515625 3.28515625 C-1 1 -1 1 0 0 Z " fill="#000000" transform="translate(198,178)"/>
<path d="M0 0 C0.99 0.33 1.98 0.66 3 1 C1.68 4.3 0.36 7.6 -1 11 C-1.99 10.67 -2.98 10.34 -4 10 C-2.68 6.7 -1.36 3.4 0 0 Z " fill="#000000" transform="translate(205,159)"/>
<path d="M0 0 C0.99 0.33 1.98 0.66 3 1 C2.71758359 2.46015291 2.42373386 3.91809793 2.125 5.375 C1.96257812 6.18710938 1.80015625 6.99921875 1.6328125 7.8359375 C1 10 1 10 -1 12 C-1.66 11.34 -2.32 10.68 -3 10 C-2.01 6.7 -1.02 3.4 0 0 Z " fill="#000000" transform="translate(466,153)"/>
<path d="M0 0 C0.99 0.66 1.98 1.32 3 2 C1.68 4.97 0.36 7.94 -1 11 C-1.99 11 -2.98 11 -4 11 C-3.52269162 9.5410574 -3.04308958 8.08286504 -2.5625 6.625 C-2.29566406 5.81289062 -2.02882813 5.00078125 -1.75390625 4.1640625 C-1 2 -1 2 0 0 Z " fill="#000000" transform="translate(700,150)"/>
<path d="M0 0 C0.99 0.33 1.98 0.66 3 1 C1.68 4.3 0.36 7.6 -1 11 C-1.99 10.67 -2.98 10.34 -4 10 C-3.52449439 8.51965236 -3.04448784 7.04074979 -2.5625 5.5625 C-2.29566406 4.73878906 -2.02882813 3.91507812 -1.75390625 3.06640625 C-1 1 -1 1 0 0 Z " fill="#000000" transform="translate(716,114)"/>
<path d="M0 0 C0.66 0.33 1.32 0.66 2 1 C1 4 1 4 -0.84765625 5.16796875 C-1.57855469 5.50441406 -2.30945313 5.84085937 -3.0625 6.1875 C-3.79597656 6.53167969 -4.52945312 6.87585938 -5.28515625 7.23046875 C-6.13400391 7.61138672 -6.13400391 7.61138672 -7 8 C-7 6.68 -7 5.36 -7 4 C-1.7265625 0.77734375 -1.7265625 0.77734375 0 0 Z " fill="#000000" transform="translate(261,102)"/>
<path d="M0 0 C7.42857143 -0.14285714 7.42857143 -0.14285714 11 1 C11 1.99 11 2.98 11 4 C7.37 3.67 3.74 3.34 0 3 C0 2.01 0 1.02 0 0 Z " fill="#000000" transform="translate(410,84)"/>
<path d="M0 0 C3.63 0.33 7.26 0.66 11 1 C11 1.99 11 2.98 11 4 C7.37 3.67 3.74 3.34 0 3 C0 2.01 0 1.02 0 0 Z " fill="#000000" transform="translate(390,82)"/>
<path d="M0 0 C0.99 0.33 1.98 0.66 3 1 C2.07038578 2.15224028 1.1309875 3.29659176 0.1875 4.4375 C-0.59560547 5.39462891 -0.59560547 5.39462891 -1.39453125 6.37109375 C-3 8 -3 8 -6 9 C-5.52797514 4.75177626 -3.03344482 2.80010291 0 0 Z " fill="#000000" transform="translate(252,651)"/>
<path d="M0 0 C1.15224028 0.92961422 2.29659176 1.8690125 3.4375 2.8125 C4.07558594 3.33457031 4.71367188 3.85664062 5.37109375 4.39453125 C7 6 7 6 8 9 C3.75177626 8.52797514 1.80010291 6.03344482 -1 3 C-0.67 2.01 -0.34 1.02 0 0 Z " fill="#000000" transform="translate(602,647)"/>
<path d="M0 0 C1.32 0 2.64 0 4 0 C6.03435531 3.72965139 7 5.66905042 7 10 C4 9 4 9 2.83203125 6.93359375 C2.49558594 6.10988281 2.15914062 5.28617188 1.8125 4.4375 C1.46832031 3.61121094 1.12414062 2.78492188 0.76953125 1.93359375 C0.51558594 1.29550781 0.26164063 0.65742187 0 0 Z " fill="#000000" transform="translate(590,631)"/>
<path d="M0 0 C0.99 0 1.98 0 3 0 C3.99 3.3 4.98 6.6 6 10 C4.68 9.67 3.36 9.34 2 9 C1.34 6.03 0.68 3.06 0 0 Z " fill="#000000" transform="translate(584,612)"/>
<path d="M0 0 C0.66 0 1.32 0 2 0 C1.58578031 4.83256305 -0.46413986 6.82679218 -4 10 C-4.33 9.01 -4.66 8.02 -5 7 C-4.07421875 5.17578125 -4.07421875 5.17578125 -2.6875 3.3125 C-2.23761719 2.68988281 -1.78773438 2.06726563 -1.32421875 1.42578125 C-0.88722656 0.95527344 -0.45023437 0.48476563 0 0 Z " fill="#000000" transform="translate(300,586)"/>
<path d="M0 0 C0.99 0.33 1.98 0.66 3 1 C2.67 4.3 2.34 7.6 2 11 C1.01 11 0.02 11 -1 11 C-1.125 3.375 -1.125 3.375 0 0 Z " fill="#000000" transform="translate(581,552)"/>
<path d="M0 0 C0.99 0.33 1.98 0.66 3 1 C2.34 4.3 1.68 7.6 1 11 C0.01 10.67 -0.98 10.34 -2 10 C-1.34 6.7 -0.68 3.4 0 0 Z " fill="#000000" transform="translate(585,512)"/>
<path d="M0 0 C0.66 0 1.32 0 2 0 C1.67 3.63 1.34 7.26 1 11 C0.01 10.67 -0.98 10.34 -2 10 C-1.85950482 8.52031676 -1.71245174 7.04125484 -1.5625 5.5625 C-1.48128906 4.73878906 -1.40007813 3.91507812 -1.31640625 3.06640625 C-1 1 -1 1 0 0 Z " fill="#000000" transform="translate(592,473)"/>
<path d="M0 0 C0.33 0.99 0.66 1.98 1 3 C-2.63 3.66 -6.26 4.32 -10 5 C-10 4.01 -10 3.02 -10 2 C-3.375 0 -3.375 0 0 0 Z " fill="#000000" transform="translate(335,422)"/>
<path d="M0 0 C0 0.99 0 1.98 0 3 C-3.3 3.33 -6.6 3.66 -10 4 C-10.33 3.01 -10.66 2.02 -11 1 C-7.32589215 -0.17571451 -3.83070817 -0.07366746 0 0 Z " fill="#000000" transform="translate(573,383)"/>
<path d="M0 0 C0 0.99 0 1.98 0 3 C-3.3 3.66 -6.6 4.32 -10 5 C-9.67 3.68 -9.34 2.36 -9 1 C-5.92677456 0.08941469 -3.19902639 -0.08886184 0 0 Z " fill="#000000" transform="translate(692,363)"/>
<path d="M0 0 C0.99 0 1.98 0 3 0 C2.71758359 1.46015291 2.42373386 2.91809793 2.125 4.375 C1.96257812 5.18710937 1.80015625 5.99921875 1.6328125 6.8359375 C1 9 1 9 -1 11 C-1.66 10.34 -2.32 9.68 -3 9 C-2.01 6.03 -1.02 3.06 0 0 Z " fill="#000000" transform="translate(411,327)"/>
<path d="M0 0 C0.99 0.66 1.98 1.32 3 2 C2.01 4.97 1.02 7.94 0 11 C-0.99 11 -1.98 11 -3 11 C-2.69078116 9.54096742 -2.37751201 8.08279278 -2.0625 6.625 C-1.88847656 5.81289063 -1.71445312 5.00078125 -1.53515625 4.1640625 C-1 2 -1 2 0 0 Z " fill="#000000" transform="translate(635,318)"/>
<path d="M0 0 C0.99 0.33 1.98 0.66 3 1 C2.01 4.3 1.02 7.6 0 11 C-0.99 11 -1.98 11 -3 11 C-2.01 7.37 -1.02 3.74 0 0 Z " fill="#000000" transform="translate(424,288)"/>
<path d="M0 0 C0.99 0 1.98 0 3 0 C2.01 3.3 1.02 6.6 0 10 C-0.99 10 -1.98 10 -3 10 C-2.39009109 6.44219804 -1.4216319 3.3171411 0 0 Z " fill="#000000" transform="translate(648,281)"/>
<path d="M0 0 C0.66 0.33 1.32 0.66 2 1 C1.34 3.97 0.68 6.94 0 10 C-1.32 10.33 -2.64 10.66 -4 11 C-3.5247412 9.35303396 -3.04468109 7.70745272 -2.5625 6.0625 C-2.29566406 5.14597656 -2.02882813 4.22945313 -1.75390625 3.28515625 C-1 1 -1 1 0 0 Z " fill="#000000" transform="translate(431,269)"/>
<path d="M0 0 C0.99 0.33 1.98 0.66 3 1 C1.68 4.3 0.36 7.6 -1 11 C-1.66 10.67 -2.32 10.34 -3 10 C-2.49287967 6.28111761 -1.88391785 3.26545761 0 0 Z " fill="#000000" transform="translate(655,262)"/>
<path d="M0 0 C0.66 0 1.32 0 2 0 C1.53199289 4.05606165 1.12046792 7.46588679 -1 11 C-1.66 11 -2.32 11 -3 11 C-2.53199289 6.94393835 -2.12046792 3.53411321 0 0 Z " fill="#000000" transform="translate(437,250)"/>
<path d="M0 0 C0.99 0 1.98 0 3 0 C2.01 3.3 1.02 6.6 0 10 C-0.99 10 -1.98 10 -3 10 C-2.39009109 6.44219804 -1.4216319 3.3171411 0 0 Z " fill="#000000" transform="translate(669,225)"/>
<path d="M0 0 C0.99 0.33 1.98 0.66 3 1 C2.57742724 2.4835001 2.13643678 3.96176424 1.6875 5.4375 C1.44386719 6.26121094 1.20023438 7.08492187 0.94921875 7.93359375 C0.63597656 8.61550781 0.32273437 9.29742187 0 10 C-0.99 10.33 -1.98 10.66 -3 11 C-2.44894091 7.0507432 -1.61064629 3.65079826 0 0 Z " fill="#000000" transform="translate(684,187)"/>
<path d="M0 0 C3.63 0 7.26 0 11 0 C11 0.66 11 1.32 11 2 C8.59454362 3.20272819 7.05003047 3.10071472 4.375 3.0625 C3.14910156 3.04896484 3.14910156 3.04896484 1.8984375 3.03515625 C0.95871094 3.01775391 0.95871094 3.01775391 0 3 C0 2.01 0 1.02 0 0 Z " fill="#000000" transform="translate(330,83)"/>
<path d="M0 0 C3.63 0 7.26 0 11 0 C11 0.66 11 1.32 11 2 C8.59454362 3.20272819 7.05003047 3.10071472 4.375 3.0625 C3.14910156 3.04896484 3.14910156 3.04896484 1.8984375 3.03515625 C0.95871094 3.01775391 0.95871094 3.01775391 0 3 C0 2.01 0 1.02 0 0 Z " fill="#000000" transform="translate(350,82)"/>
<path d="M0 0 C0.99 0 1.98 0 3 0 C2.125 7.75 2.125 7.75 1 10 C0.01 10 -0.98 10 -2 10 C-1.34 6.7 -0.68 3.4 0 0 Z " fill="#000000" transform="translate(600,434)"/>
<path d="M0 0 C0 0.99 0 1.98 0 3 C-3.47325181 4.1577506 -6.36067448 4.06866652 -10 4 C-10 3.01 -10 2.02 -10 1 C-2.25 0 -2.25 0 0 0 Z " fill="#000000" transform="translate(553,385)"/>
<path d="M0 0 C0.99 0 1.98 0 3 0 C2.71758359 1.46015291 2.42373386 2.91809793 2.125 4.375 C1.96257813 5.18710937 1.80015625 5.99921875 1.6328125 6.8359375 C1 9 1 9 -1 11 C-2.26264601 6.70700357 -1.62950412 4.12168689 0 0 Z " fill="#000000" transform="translate(622,357)"/>
<path d="M0 0 C0.66 0 1.32 0 2 0 C1.53199289 4.05606165 1.12046792 7.46588679 -1 11 C-1.66 10.67 -2.32 10.34 -3 10 C-2.69201674 8.51988629 -2.378482 7.04092675 -2.0625 5.5625 C-1.88847656 4.73878906 -1.71445312 3.91507813 -1.53515625 3.06640625 C-1 1 -1 1 0 0 Z " fill="#000000" transform="translate(443,231)"/>
<path d="M0 0 C3.55780196 0.60990891 6.6828589 1.5783681 10 3 C10 3.99 10 4.98 10 6 C8.5164999 5.57742724 7.03823576 5.13643678 5.5625 4.6875 C4.73878906 4.44386719 3.91507813 4.20023438 3.06640625 3.94921875 C2.04353516 3.47935547 2.04353516 3.47935547 1 3 C0.67 2.01 0.34 1.02 0 0 Z " fill="#000000" transform="translate(617,660)"/>
<path d="M0 0 C0.99 0 1.98 0 3 0 C2.745504 1.48206495 2.47088238 2.96068615 2.1875 4.4375 C2.03667969 5.26121094 1.88585937 6.08492188 1.73046875 6.93359375 C1.48941406 7.61550781 1.24835937 8.29742187 1 9 C0.01 9.33 -0.98 9.66 -2 10 C-1.54177532 6.53058454 -1.10868317 3.32604951 0 0 Z " fill="#000000" transform="translate(628,338)"/>
<path d="M0 0 C3.63 0 7.26 0 11 0 C11 0.99 11 1.98 11 3 C3.57142857 3.14285714 3.57142857 3.14285714 0 2 C0 1.34 0 0.68 0 0 Z " fill="#000000" transform="translate(370,82)"/>
<path d="M0 0 C2.97 0.33 5.94 0.66 9 1 C9.33 1.99 9.66 2.98 10 4 C3.375 4.125 3.375 4.125 0 3 C0 2.01 0 1.02 0 0 Z " fill="#000000" transform="translate(431,86)"/>
<path d="M0 0 C1.32 1.32 2.64 2.64 4 4 C3.67 4.99 3.34 5.98 3 7 C2.34 7 1.68 7 1 7 C-0.625 4.5 -0.625 4.5 -2 2 C-1.34 1.34 -0.68 0.68 0 0 Z " fill="#000000" transform="translate(49,625)"/>
<path d="M0 0 C0.99 0.99 1.98 1.98 3 3 C1.02 3.99 -0.96 4.98 -3 6 C-3.33 5.01 -3.66 4.02 -4 3 C-2.68 2.01 -1.36 1.02 0 0 Z " fill="#000000" transform="translate(803,596)"/>
<path d="M0 0 C0.99 0.33 1.98 0.66 3 1 C2.34 2.32 1.68 3.64 1 5 C-0.32 4.67 -1.64 4.34 -3 4 C-2.01 2.68 -1.02 1.36 0 0 Z " fill="#000000" transform="translate(758,333)"/>
<path d="M0 0 C0.99 0.33 1.98 0.66 3 1 C2.34 2.65 1.68 4.3 1 6 C0.01 6 -0.98 6 -2 6 C-1.34 4.02 -0.68 2.04 0 0 Z " fill="#000000" transform="translate(722,100)"/>
<path d="M0 0 C-1.3125 1.5 -1.3125 1.5 -3 3 C-3.99 3 -4.98 3 -6 3 C-6 2.01 -6 1.02 -6 0 C-3.50907189 -1.24546405 -2.58919267 -0.7767578 0 0 Z " fill="#000000" transform="translate(203,469)"/>
<path d="M0 0 C0.99 0.33 1.98 0.66 3 1 C2.67 1.99 2.34 2.98 2 4 C1.01 3.67 0.02 3.34 -1 3 C-0.67 2.01 -0.34 1.02 0 0 Z " fill="#000000" transform="translate(222,378)"/>
<path d="M0 0 C0.99 0.33 1.98 0.66 3 1 C2.67 1.99 2.34 2.98 2 4 C1.01 3.67 0.02 3.34 -1 3 C-0.67 2.01 -0.34 1.02 0 0 Z " fill="#000000" transform="translate(497,305)"/>
<path d="M0 0 C0.99 0.33 1.98 0.66 3 1 C2.67 1.99 2.34 2.98 2 4 C1.01 3.67 0.02 3.34 -1 3 C-0.67 2.01 -0.34 1.02 0 0 Z " fill="#000000" transform="translate(741,277)"/>
<path d="M0 0 C0.99 0.33 1.98 0.66 3 1 C2.67 1.99 2.34 2.98 2 4 C1.01 3.67 0.02 3.34 -1 3 C-0.67 2.01 -0.34 1.02 0 0 Z " fill="#000000" transform="translate(708,565)"/>
<path d="M0 0 C0.99 0.33 1.98 0.66 3 1 C2.67 1.99 2.34 2.98 2 4 C1.01 3.67 0.02 3.34 -1 3 C-0.67 2.01 -0.34 1.02 0 0 Z " fill="#000000" transform="translate(793,212)"/>
<path d="M0 0 C0.99 0.33 1.98 0.66 3 1 C2.67 1.99 2.34 2.98 2 4 C1.01 3.01 0.02 2.02 -1 1 C-0.67 0.67 -0.34 0.34 0 0 Z " fill="#000000" transform="translate(315,748)"/>
<path d="M0 0 C0.99 0.33 1.98 0.66 3 1 C2.67 1.99 2.34 2.98 2 4 C1.01 3.01 0.02 2.02 -1 1 C-0.67 0.67 -0.34 0.34 0 0 Z " fill="#000000" transform="translate(544,211)"/>
<path d="M0 0 C0.99 0.33 1.98 0.66 3 1 C2.67 1.99 2.34 2.98 2 4 C1.01 3.01 0.02 2.02 -1 1 C-0.67 0.67 -0.34 0.34 0 0 Z " fill="#000000" transform="translate(147,67)"/>
</svg>
