<?xml version="1.0" encoding="UTF-8"?>
<svg version="1.1" xmlns="http://www.w3.org/2000/svg" width="1072" height="735">
<path d="M0 0 C23.39958192 -0.6869602 42.56504379 9.80739903 59.17675781 25.40332031 C74.12360145 39.98621203 87.32425935 59.91663652 88.31640625 81.3125 C87.39203477 90.71027667 84.63369221 96.52027666 77.94140625 103.125 C76.73677734 104.3315625 76.73677734 104.3315625 75.5078125 105.5625 C73.78644301 107.28124945 72.06112699 108.99605477 70.33203125 110.70703125 C67.77868636 113.28958107 65.41000001 115.97242968 63.05078125 118.73046875 C60.08595611 122.09609432 57.01078891 125.35485018 53.94140625 128.625 C49.80755963 133.03297011 45.7188693 137.45728914 41.77734375 142.0390625 C39.21648595 144.94863286 36.57724024 147.78341101 33.94140625 150.625 C30.11339352 154.75366352 26.33281752 158.90986533 22.6484375 163.16796875 C20.60507194 165.5105915 18.52459766 167.81773422 16.44140625 170.125 C10.10215527 177.15677419 3.9139168 184.31013844 -2.23803711 191.50561523 C-4.88909406 194.60388758 -7.54880755 197.69378375 -10.23046875 200.765625 C-22.73162953 215.08656289 -34.6863395 229.78939151 -46.29541016 244.84130859 C-49.26943054 248.6932868 -52.25794885 252.53397512 -55.24609375 256.375 C-55.83132813 257.12773193 -56.4165625 257.88046387 -57.01953125 258.65600586 C-60.5198289 263.15575648 -64.03260721 267.64535892 -67.55859375 272.125 C-74.09329429 280.43151733 -80.59070979 288.76635017 -87.05859375 297.125 C-87.71053711 297.96514648 -88.36248047 298.80529297 -89.03417969 299.67089844 C-98.01584257 311.26224545 -106.59105891 323.03212635 -114.76171875 335.20849609 C-116.3415848 337.54320025 -117.9762826 339.83570756 -119.62109375 342.125 C-129.54428514 356.25210499 -138.29493315 371.26269796 -147.05859375 386.125 C-147.62416992 387.08196777 -148.18974609 388.03893555 -148.77246094 389.02490234 C-164.54782156 415.7979677 -178.79218399 443.30436307 -192.57666016 471.14648438 C-193.41283341 472.83345853 -194.24925637 474.52030893 -195.0859375 476.20703125 C-195.49443436 477.03116516 -195.90293121 477.85529907 -196.32380676 478.70440674 C-199.23324262 484.54474872 -202.26689484 490.31079217 -205.33984375 496.06640625 C-209.19091014 503.30951213 -212.6152766 510.60996576 -215.62109375 518.25 C-216.0701709 519.37092041 -216.51924805 520.49184082 -216.98193359 521.64672852 C-229.75407073 549.97070832 -229.75407073 549.97070832 -230.2578125 580.1875 C-226.34448944 589.00928669 -218.60583795 592.82088646 -210.04296875 596.37890625 C-207.66811106 597.27181534 -205.59098675 597.8717607 -203.05859375 598.125 C-202.42695313 598.18816406 -201.7953125 598.25132812 -201.14453125 598.31640625 C-188.91157416 598.9864092 -178.03784956 592.25784167 -169.05078125 584.54296875 C-166.48652957 582.22615566 -163.97972823 579.85134251 -161.47998047 577.46533203 C-159.38402683 575.48890031 -157.21941807 573.59248272 -155.05859375 571.6875 C-150.71443484 567.79731268 -146.58816495 563.72377705 -142.51953125 559.54907227 C-139.20450238 556.17361318 -135.72390291 553.05484415 -132.14697266 549.95947266 C-128.61458532 546.85655491 -125.2183522 543.61133414 -121.80859375 540.375 C-114.94972366 533.8924084 -108.03347047 527.48246025 -101.05859375 521.125 C-99.05735823 519.29301334 -97.05793789 517.45905039 -95.05859375 515.625 C-92.10820822 512.9188501 -89.15644855 510.21429919 -86.19921875 507.515625 C-72.11967704 494.65377339 -58.32248017 481.55575795 -44.85522461 468.05200195 C-42.4703912 465.66173893 -40.0801627 463.27696242 -37.68945312 460.89257812 C-36.14421003 459.34667518 -34.59927666 457.80046257 -33.0546875 456.25390625 C-32.00298622 455.20524132 -32.00298622 455.20524132 -30.93003845 454.13539124 C-26.96714806 450.15381683 -23.18224976 446.07128542 -19.52235413 441.8089447 C-17.79007183 439.81608601 -15.95777237 437.9586897 -14.05859375 436.125 C-11.47934315 433.58527814 -9.03641986 431.00048686 -6.68359375 428.25 C-3.94237926 425.05817491 -1.05173487 422.08197023 1.94140625 419.125 C4.8932365 416.20873397 7.74529484 413.27894165 10.44140625 410.125 C13.85451297 406.13230912 17.55448778 402.47542061 21.31640625 398.8125 C24.02007429 396.04445891 26.54263328 393.16661164 29.07617188 390.24414062 C32.19218508 386.70395808 35.44507703 383.29531032 38.69140625 379.875 C45.17374751 373.01600437 51.59013518 366.10549916 57.94140625 359.125 C58.81539063 358.16851562 59.689375 357.21203125 60.58984375 356.2265625 C67.91927508 348.19280143 75.05832049 340.01386386 82.11889648 331.74414062 C84.77381697 328.63793684 87.44295317 325.54668989 90.1484375 322.484375 C96.39568612 315.39620524 102.30443833 308.15264343 107.99365234 300.60888672 C117.32039418 288.27676813 127.37343081 276.52370062 137.47802734 264.82666016 C138.95981924 263.10358883 140.43051946 261.37161891 141.8984375 259.63671875 C148.09880702 252.32213297 154.49194786 245.2325108 161.046875 238.234375 C163.81678887 235.2724869 166.49470142 232.24147985 169.14453125 229.171875 C171.9626792 225.9616369 174.86433819 222.8280994 177.7565918 219.68481445 C180.65137191 216.53715472 183.5252468 213.37261899 186.37890625 210.1875 C190.83907645 205.21850468 195.36824139 200.31542644 199.90234375 195.4140625 C202.75807096 192.32625079 205.60162198 189.22747073 208.44140625 186.125 C214.76060236 179.22378763 221.11150193 172.35196775 227.46191406 165.47949219 C233.25113212 159.213734 239.03281183 152.94139936 244.79272461 146.64868164 C248.20581916 142.92179567 251.63468662 139.20973236 255.06640625 135.5 C259.28008201 130.94322595 263.44874525 126.34953428 267.58984375 121.7265625 C270.39073161 118.62790583 273.22726802 115.5635691 276.06640625 112.5 C279.85510398 108.40919773 283.59646356 104.28981866 287.2421875 100.0703125 C289.23547053 97.7883471 291.27633652 95.55271426 293.31640625 93.3125 C296.32965626 89.98683945 299.17130203 86.59197642 301.94140625 83.0625 C306.78373543 77.05664296 312.22593465 71.70324657 317.73828125 66.31420898 C318.43695312 65.62915283 319.135625 64.94409668 319.85546875 64.23828125 C320.78286865 63.33783081 320.78286865 63.33783081 321.72900391 62.41918945 C323.64107818 60.43643047 325.44166967 58.41105535 327.24121094 56.32739258 C330.74164802 52.29990056 334.433568 48.52002795 338.23046875 44.7734375 C338.89678314 44.11090973 339.56309753 43.44838196 340.24960327 42.76577759 C342.35275863 40.67470419 344.45914909 38.58693925 346.56640625 36.5 C349.35321039 33.73993084 352.13658583 30.97646848 354.91796875 28.2109375 C355.5482901 27.58891449 356.17861145 26.96689148 356.82803345 26.32601929 C359.60260151 23.56678575 362.26830312 20.79990528 364.74609375 17.76904297 C370.18777843 11.21505664 379.51593429 10.27877504 387.57421875 9.37890625 C418.84280204 7.12472697 455.70701735 15.27573209 479.94140625 36.125 C489.59104294 45.16196134 496.37156654 56.41700341 497.15625 69.78515625 C497.67495249 85.85532798 493.10225599 96.43289005 483.25390625 108.8125 C481.99010251 110.41865511 480.72708093 112.02542598 479.46484375 113.6328125 C478.85608398 114.40657227 478.24732422 115.18033203 477.62011719 115.97753906 C475.50171317 118.68746951 473.43415611 121.4293394 471.37890625 124.1875 C461.09471201 137.98198195 450.53047173 151.56401089 439.94140625 165.125 C439.45430176 165.75003418 438.96719727 166.37506836 438.46533203 167.01904297 C427.59099461 180.96879679 416.45104897 194.69397445 404.94140625 208.125 C404.34199219 208.82625 403.74257813 209.5275 403.125 210.25 C400.07548346 213.77715166 396.93381649 217.20038624 393.73974609 220.59741211 C387.52315512 227.23255943 381.83364876 234.1405521 376.3046875 241.35449219 C374.47791918 243.72693557 372.62354771 246.07704038 370.76831055 248.42724609 C365.09708586 255.6121925 359.50499876 262.85650052 353.94140625 270.125 C353.22694336 271.05771729 353.22694336 271.05771729 352.49804688 272.00927734 C348.6414739 277.04452479 344.79053295 282.08405891 340.94140625 287.125 C339.97678467 288.38787842 339.97678467 288.38787842 338.99267578 289.67626953 C331.79947934 299.09589006 324.62166017 308.52552955 317.52587891 318.01879883 C313.3016026 323.66280239 309.03028631 329.27041032 304.75390625 334.875 C299.11540482 342.26661563 293.4898798 349.66544299 287.94140625 357.125 C287.00470093 358.37361816 287.00470093 358.37361816 286.04907227 359.64746094 C281.24558567 366.13207604 276.96871429 372.79738218 272.87890625 379.75 C271.57187095 381.95197511 270.26457151 384.15379345 268.95703125 386.35546875 C268.29509766 387.47356934 267.63316406 388.59166992 266.95117188 389.74365234 C264.97805507 393.06333987 262.98703936 396.3714788 260.98828125 399.67578125 C253.71940139 411.69429639 246.57948285 423.74588418 239.94140625 436.125 C239.43319336 437.06375977 238.92498047 438.00251953 238.40136719 438.96972656 C217.3370958 478.02872655 201.0295915 518.91030855 190.06640625 561.9375 C189.61841675 563.68148071 189.61841675 563.68148071 189.16137695 565.46069336 C185.71483253 579.31630514 185.71483253 579.31630514 187.94140625 593.125 C189.5566773 595.21139177 190.60049592 595.95454483 192.94140625 597.125 C209.1924564 598.89416565 223.07093191 591.57413522 236.94140625 584.125 C237.68890137 583.72587402 238.43639648 583.32674805 239.20654297 582.91552734 C261.59078095 570.90298207 281.68863229 555.94937185 301.11962891 539.64697266 C303.60238846 537.57279374 306.11527573 535.53659115 308.62890625 533.5 C317.86244948 525.95038563 326.88139368 518.15012541 335.71484375 510.13671875 C337.77245016 508.27765331 339.84987388 506.44571642 341.94140625 504.625 C350.18670449 497.43509994 358.26022785 490.05061145 366.30224609 482.63476562 C367.4052539 481.61882874 368.50977568 480.60453339 369.61572266 479.59179688 C378.61682654 471.3444045 387.31898633 462.83643236 395.88867188 454.14086914 C400.18510551 449.79899578 404.54879785 445.63817212 409.18383789 441.65991211 C411.55255228 439.59127656 413.74819281 437.37748948 415.94140625 435.125 C419.42606154 431.54616484 423.065151 428.24504911 426.8359375 424.9765625 C430.2841161 421.94421249 433.60813833 418.78249012 436.94140625 415.625 C441.57051527 411.24000415 446.25128064 406.94399088 451.06640625 402.76367188 C453.73596045 400.43059274 456.33728565 398.03098099 458.94140625 395.625 C462.89639241 391.98234744 466.88704641 388.38998426 470.94921875 384.8671875 C473.3016126 382.80999601 475.62175591 380.71903085 477.94140625 378.625 C480.92203346 375.93516569 483.91385858 373.26189636 486.94140625 370.625 C491.65841909 366.51418961 496.29779514 362.31832155 500.94140625 358.125 C510.44251666 349.54520939 510.44251666 349.54520939 514.62890625 345.9375 C518.5985343 342.47514694 522.46018036 338.89998606 526.31640625 335.3125 C526.97036377 334.705271 527.62432129 334.09804199 528.2980957 333.47241211 C531.20613007 330.75459245 534.07841871 328.02670774 536.81640625 325.13671875 C543.74681615 317.82730206 550.81062161 313.18056746 561.109375 312.88671875 C584.95650304 312.35257757 607.79871663 319.03982362 625.5703125 335.5703125 C634.70915479 345.17588314 639.6975328 356.83458452 640.28930664 370.13842773 C639.92860561 377.65209528 635.63169932 381.70505596 630.37890625 386.6875 C627.99932226 388.84829099 625.59520454 390.97542251 623.17138672 393.08642578 C620.45096027 395.57334945 618.10922329 398.26885835 615.73071289 401.07788086 C611.62727021 405.77256866 607.05693498 410.04496672 602.61328125 414.4140625 C599.11047698 417.88112387 595.68376904 421.35304602 592.47265625 425.09375 C587.62844596 430.73044631 582.26209553 435.84887138 576.96875 441.05859375 C572.70668245 445.2796141 568.63482066 449.56468391 564.72851562 454.11523438 C560.59084461 458.7684185 556.05132393 463.05048362 551.61328125 467.4140625 C548.10009225 470.89140264 544.66415361 474.37502899 541.44140625 478.125 C536.80338613 483.52177457 531.68387722 488.42854364 526.61328125 493.4140625 C522.4248907 497.55971437 518.42735821 501.78148108 514.58544922 506.24951172 C512.01265796 509.18449575 509.27477685 511.94062873 506.50390625 514.6875 C505.93824951 515.25049805 505.37259277 515.81349609 504.78979492 516.39355469 C501.26568431 519.87786476 497.67468396 523.24132801 493.8984375 526.453125 C491.53988627 528.46801507 489.2420584 530.5442888 486.94140625 532.625 C483.3246428 535.88890848 479.67751017 539.11290949 476.00390625 542.3125 C473.63176196 544.39711164 471.2858456 546.50928644 468.94140625 548.625 C465.3246428 551.88890848 461.67751017 555.11290949 458.00390625 558.3125 C455.63176196 560.39711164 453.2858456 562.50928644 450.94140625 564.625 C447.3246428 567.88890848 443.67751017 571.11290949 440.00390625 574.3125 C437.63176196 576.39711164 435.2858456 578.50928644 432.94140625 580.625 C429.3246428 583.88890848 425.67751017 587.11290949 422.00390625 590.3125 C419.63176196 592.39711164 417.2858456 594.50928644 414.94140625 596.625 C411.32116902 599.89204335 407.6715706 603.12020776 403.9921875 606.3203125 C401.68051828 608.35458141 399.40609195 610.4272231 397.12890625 612.5 C393.75199643 615.55358867 390.30923493 618.46929205 386.75390625 621.3125 C380.68467535 626.21788691 375.05342687 631.55452266 369.375 636.90234375 C365.64721352 640.41173263 361.84361711 643.81069285 357.94140625 647.125 C356.95785156 647.96417969 355.97429688 648.80335938 354.9609375 649.66796875 C349.02137414 654.72287865 343.03804861 659.71865491 336.984375 664.63671875 C334.70409325 666.50133939 332.4379085 668.37854659 330.1796875 670.26953125 C300.17885347 695.33048329 266.43332426 722.19253051 227.94140625 732.125 C226.70003906 732.45886719 225.45867188 732.79273438 224.1796875 733.13671875 C208.40345304 736.84187052 193.27151475 736.04531328 177.94140625 731.125 C177.25336914 730.91069336 176.56533203 730.69638672 175.85644531 730.47558594 C164.99903281 727.04929178 154.96076174 722.50045589 144.94140625 717.125 C143.96155762 716.60897217 143.96155762 716.60897217 142.96191406 716.08251953 C107.77151404 697.48138398 73.37507443 668.70532011 61.00390625 629.6875 C49.72696167 592.07816925 71.10055345 551.02715342 88.10888672 518.50488281 C92.92026659 509.63081634 98.21553265 501.03237398 103.54370117 492.46142578 C104.78463501 490.38706127 105.89633446 488.3032026 106.94140625 486.125 C98.88504041 495.8823365 90.86174117 505.66508449 82.890625 515.4921875 C80.41561222 518.54309697 77.93135763 521.58626153 75.44140625 524.625 C71.84757895 529.01235486 68.26736793 533.41058611 64.69140625 537.8125 C64.14258789 538.48748535 63.59376953 539.1624707 63.02832031 539.85791016 C60.18943041 543.35084995 57.35685161 546.84862034 54.53515625 550.35546875 C42.74320534 564.99050441 30.52724308 579.13400697 15.765625 590.86328125 C13.26867303 592.86291499 10.83195333 594.91750874 8.40869141 597.00537109 C0.87060329 603.48937513 -6.97594805 609.53000578 -14.91650391 615.51074219 C-16.98201376 617.06729008 -19.042251 618.63057789 -21.1015625 620.1953125 C-36.23055713 631.65656726 -51.81829649 642.43008572 -67.62109375 652.9375 C-68.40162109 653.45691162 -69.18214844 653.97632324 -69.98632812 654.51147461 C-121.38352518 688.6839194 -179.09092828 725.65858698 -243.08203125 726.36328125 C-244.19117386 726.37810799 -244.19117386 726.37810799 -245.32272339 726.39323425 C-277.32664088 726.73346031 -300.70907128 721.30554361 -324.18359375 698.4375 C-354.02045429 668.20965685 -364.47663254 625.73176276 -364.36132812 584.37207031 C-363.6092467 534.66505878 -341.43498903 486.94886233 -315.80273438 445.32836914 C-315.32642578 444.55485107 -314.85011719 443.78133301 -314.359375 442.984375 C-313.93825439 442.30858398 -313.51713379 441.63279297 -313.08325195 440.93652344 C-311.90880292 438.99532712 -311.90880292 438.99532712 -311.05859375 436.125 C-313.1445299 438.78963922 -315.22696577 441.45699414 -317.30859375 444.125 C-317.94176514 444.93501465 -318.57493652 445.7450293 -319.22729492 446.57958984 C-322.8551333 451.23675988 -326.40441284 455.93721065 -329.87841797 460.70996094 C-338.1306478 471.98827832 -345.93702038 480.06898091 -360.05859375 483.125 C-380.76610274 484.54141164 -407.31266304 484.11202259 -424.05859375 470.125 C-430.12717683 464.31218096 -433.01073274 459.48168368 -433.49609375 451 C-433.05085713 433.63577178 -418.44602762 419.22581365 -407.59082031 406.875 C-405.05552703 403.97936866 -402.55918278 401.0505871 -400.05859375 398.125 C-399.06001627 396.96083418 -398.06131826 395.79677174 -397.0625 394.6328125 C-395.04380501 392.27821613 -393.03147611 389.91837679 -391.0234375 387.5546875 C-386.23230689 381.92427978 -381.40144168 376.35608738 -376.37109375 370.9375 C-372.07718501 366.30378554 -368.07377994 361.50484869 -364.11328125 356.5859375 C-361.79724442 353.81197704 -359.32438396 351.29968686 -356.73046875 348.7890625 C-354.33111047 346.40091618 -352.14471976 343.84670625 -349.93359375 341.28515625 C-345.61017923 336.30422244 -341.15071285 331.44177619 -336.73046875 326.546875 C-333.35474353 322.80372391 -329.9872194 319.05703528 -326.68359375 315.25 C-323.23007814 311.28247276 -319.66855435 307.4165236 -316.10595703 303.54736328 C-313.55333612 300.77041318 -311.0289117 297.97536687 -308.55859375 295.125 C-305.62015365 291.7344922 -302.59745233 288.4253097 -299.55859375 285.125 C-295.93769241 281.19215159 -292.3690045 277.22285988 -288.8671875 273.18359375 C-286.62848125 270.6354335 -284.34449163 268.13089407 -282.05859375 265.625 C-279.1938756 262.48416444 -276.34673473 259.33399244 -273.55859375 256.125 C-270.77045277 252.91600756 -267.9233119 249.76583556 -265.05859375 246.625 C-261.60531222 242.83837002 -258.19760324 239.0202368 -254.8359375 235.15234375 C-252.07964863 232.00835711 -249.27106286 228.91190618 -246.46484375 225.8125 C-244.53267402 223.65449225 -242.62606757 221.47951251 -240.7265625 219.29296875 C-237.19810538 215.25355244 -233.55474312 211.33517363 -229.87109375 207.4375 C-228.54778569 206.0316183 -227.22487403 204.62536339 -225.90234375 203.21875 C-225.25265625 202.5278125 -224.60296875 201.836875 -223.93359375 201.125 C-221.23140134 198.24266143 -218.54833327 195.34300706 -215.87109375 192.4375 C-215.38664795 191.9118042 -214.90220215 191.3861084 -214.40307617 190.84448242 C-212.9545047 189.27169916 -211.50652651 187.69837127 -210.05859375 186.125 C-203.13312498 178.60439192 -196.18187484 171.10912914 -189.19970703 163.64111328 C-184.73575154 158.86191018 -180.31433645 154.04598907 -175.90234375 149.21875 C-172.0486232 145.01469122 -168.14577731 140.85643815 -164.25 136.69140625 C-160.66472244 132.8550808 -157.10107121 129.0008871 -153.55859375 125.125 C-148.8487166 119.97249122 -144.0921761 114.86532252 -139.32470703 109.76611328 C-133.5414538 103.57801651 -127.79680602 97.35483956 -122.05859375 91.125 C-115.13222836 83.60521107 -108.18188215 76.10913695 -101.19970703 68.64111328 C-96.73575154 63.86191018 -92.31433645 59.04598907 -87.90234375 54.21875 C-84.05425811 50.0208384 -80.15907407 45.86675157 -76.26538086 41.71118164 C-72.98444308 38.20528075 -69.73567093 34.6744493 -66.52026367 31.10839844 C-49.2224591 11.99660319 -25.7779511 1.56526458 0 0 Z M-57.65014648 29.86474609 C-58.83720782 31.22820612 -60.01801074 32.59713353 -61.19335938 33.97070312 C-64.28665734 37.5433813 -67.5558464 40.94801247 -70.80859375 44.375 C-76.35203155 50.23920619 -81.84636805 56.14012799 -87.28515625 62.1015625 C-90.51602997 65.63451937 -93.78797119 69.12887802 -97.05859375 72.625 C-101.24842525 77.10433132 -105.42068291 81.59763872 -109.55859375 86.125 C-114.2684709 91.27750878 -119.0250114 96.38467748 -123.79248047 101.48388672 C-129.5757337 107.67198349 -135.32038148 113.89516044 -141.05859375 120.125 C-147.98495914 127.64478893 -154.93530535 135.14086305 -161.91748047 142.60888672 C-166.38143596 147.38808982 -170.80285105 152.20401093 -175.21484375 157.03125 C-179.0685643 161.23530878 -182.97141019 165.39356185 -186.8671875 169.55859375 C-190.45246506 173.3949192 -194.01611629 177.2491129 -197.55859375 181.125 C-202.29191226 186.30380731 -207.07454099 191.43470601 -211.8671875 196.55859375 C-216.34367836 201.34853693 -220.77737865 206.17514915 -225.19921875 211.015625 C-228.54097822 214.66161292 -231.92728086 218.26574344 -235.30859375 221.875 C-239.42068487 226.26814714 -243.49461747 230.67791419 -247.421875 235.23828125 C-249.43733147 237.56158787 -251.49707837 239.84248465 -253.55859375 242.125 C-256.22907719 245.08369751 -258.88157433 248.05426472 -261.49609375 251.0625 C-265.15038237 255.25942081 -268.90604348 259.3615276 -272.65625 263.47265625 C-274.62801219 265.64960996 -276.57224712 267.84338674 -278.49609375 270.0625 C-281.92627951 274.01167367 -285.46862893 277.85522305 -289.01147461 281.70288086 C-291.56399828 284.4797637 -294.08835121 287.27472015 -296.55859375 290.125 C-299.4970344 293.51550844 -302.51975677 296.82466982 -305.55859375 300.125 C-309.20276315 304.08359723 -312.79773154 308.07676832 -316.32421875 312.140625 C-319.85360089 316.17874691 -323.46493601 320.14414681 -327.05859375 324.125 C-328.55888054 325.79140851 -330.05888247 327.45807353 -331.55859375 329.125 C-333.83030665 331.65000493 -336.10294789 334.17413304 -338.37890625 336.6953125 C-342.35336898 341.10090339 -346.29438676 345.53028272 -350.1875 350.0078125 C-352.40342334 352.51518296 -354.66900283 354.97401589 -356.93359375 357.4375 C-360.20388848 361.01761212 -363.33885992 364.65416237 -366.37109375 368.4375 C-370.44478633 373.49176283 -374.80829549 378.2036495 -379.25439453 382.92626953 C-383.34249536 387.29209786 -387.15265662 391.8214292 -390.890625 396.4921875 C-393.14891838 399.23469154 -395.51640709 401.8343759 -397.93359375 404.4375 C-403.20691297 410.17683348 -407.9979102 416.21945351 -412.73144531 422.40380859 C-414.00881442 424.06044071 -415.30761008 425.69766318 -416.61328125 427.33203125 C-422.94579825 435.41896689 -428.04103073 443.11849307 -427.4921875 453.74609375 C-426.33402418 460.10034113 -422.60410092 464.00844913 -417.62109375 467.875 C-403.17712217 477.13935495 -379.70933213 479.87275393 -362.84375 477.76171875 C-349.82931358 474.78646891 -342.19481521 468.35795969 -334.80859375 457.625 C-333.67021985 456.01143033 -332.52956568 454.39946714 -331.38671875 452.7890625 C-330.82533203 451.99661133 -330.26394531 451.20416016 -329.68554688 450.38769531 C-322.59632836 440.52831999 -314.72717045 431.2139798 -307.0546875 421.80859375 C-304.65863322 418.86896592 -302.28919465 415.90969991 -299.93359375 412.9375 C-296.44166542 408.55604888 -292.83102032 404.28294948 -289.19921875 400.01757812 C-286.23087058 396.52709669 -283.31634944 392.99943897 -280.43359375 389.4375 C-276.80791028 384.98308887 -273.03429722 380.69551399 -269.16796875 376.44921875 C-267.31232718 374.40457665 -265.49102999 372.33715851 -263.68359375 370.25 C-255.79564485 361.21438186 -247.62288582 352.52209331 -239.05859375 344.125 C-237.73859375 344.785 -236.41859375 345.445 -235.05859375 346.125 C-236.45572987 349.31945695 -238.08392273 351.31434812 -240.62109375 353.6875 C-244.66389956 357.62832512 -248.20018127 361.83742967 -251.73046875 366.23828125 C-254.00232397 369.05522926 -256.33687226 371.80782196 -258.68359375 374.5625 C-265.83817572 383.13690599 -272.43294862 392.13981917 -279.05859375 401.125 C-279.93233643 402.30666748 -279.93233643 402.30666748 -280.82373047 403.51220703 C-288.65389298 414.12712713 -296.09491763 424.92178593 -303.05859375 436.125 C-303.62304199 437.03072754 -304.18749023 437.93645508 -304.76904297 438.86962891 C-314.69388707 454.88114171 -323.63341365 471.28023049 -332.05859375 488.125 C-332.4669043 488.9284082 -332.87521484 489.73181641 -333.29589844 490.55957031 C-357.17926597 537.66818592 -366.39763748 592.08726211 -350.05859375 643.125 C-344.73913034 659.07560753 -336.81474187 674.19201238 -326.05859375 687.125 C-325.300625 688.04667969 -324.54265625 688.96835937 -323.76171875 689.91796875 C-307.3096905 708.97758972 -287.52446505 718.84711401 -262.48828125 720.8359375 C-191.3233978 725.32058086 -127.95886887 685.73885141 -71.18359375 648 C-69.960354 647.1885704 -69.960354 647.1885704 -68.71240234 646.36074829 C-37.41199319 625.57172351 -7.33987627 602.87601449 20.94140625 578.125 C21.50682129 577.6309668 22.07223633 577.13693359 22.65478516 576.62792969 C33.72090394 566.88923091 42.78281665 555.97312395 51.81030273 544.36474609 C55.43222578 539.7219173 59.19928505 535.21991197 63.02294922 530.74267578 C66.43223751 526.74579022 69.73544083 522.67782307 73 518.5625 C75.76769428 515.08756794 78.58949009 511.65784715 81.40625 508.22265625 C84.34489264 504.63593901 87.26826231 501.03685155 90.19140625 497.4375 C91.01402954 496.42465942 91.01402954 496.42465942 91.85327148 495.39135742 C93.54946535 493.30269251 95.24546967 491.21387383 96.94140625 489.125 C109.4247268 473.74937692 109.4247268 473.74937692 114.44140625 467.625 C124.3530961 455.52077913 134.18760769 443.35679063 143.94140625 431.125 C145.59140625 431.455 147.24140625 431.785 148.94140625 432.125 C144.27834146 442.86367888 137.67614327 452.2017153 131.065979 461.80609131 C78.4832766 535.51658758 78.4832766 535.51658758 65.12890625 621.5625 C66.63346328 628.50174201 68.84804909 634.74440005 71.94140625 641.125 C72.38355469 642.03765625 72.82570313 642.9503125 73.28125 643.890625 C92.68329196 681.51231301 135.83442752 711.21604814 175.3203125 723.98046875 C177.11275391 724.54701172 177.11275391 724.54701172 178.94140625 725.125 C180.67132146 725.72702001 182.40064775 726.33074036 184.12890625 726.9375 C209.20669418 734.74861427 235.92199688 725.02619398 258.15234375 713.4453125 C267.42711953 708.49686714 276.36198554 703.20601798 284.94140625 697.125 C286.05579045 696.3486724 287.17038376 695.57264492 288.28515625 694.796875 C300.62684424 686.14858452 312.31615152 676.70587312 323.94140625 667.125 C325.64928208 665.72860693 327.35762774 664.33278832 329.06640625 662.9375 C329.96875 662.19757812 330.87109375 661.45765625 331.80078125 660.6953125 C334.17997456 658.7448729 336.5677533 656.80525692 338.95703125 654.8671875 C346.92139412 648.38458753 354.66689956 641.76482393 362.15234375 634.734375 C365.04146694 632.0313858 367.99305342 629.42031161 370.984375 626.83203125 C373.32699775 624.78866569 375.63414047 622.70819141 377.94140625 620.625 C383.26475318 615.82592208 388.63003964 611.0842205 394.09375 606.4453125 C400.67458804 600.85058261 407.13906523 595.16764888 413.4609375 589.28125 C416.91509999 586.06530561 420.41576217 582.91982045 423.984375 579.83203125 C426.32699775 577.78866569 428.63414047 575.70819141 430.94140625 573.625 C434.5581697 570.36109152 438.20530233 567.13709051 441.87890625 563.9375 C444.25105054 561.85288836 446.5969669 559.74071356 448.94140625 557.625 C452.5581697 554.36109152 456.20530233 551.13709051 459.87890625 547.9375 C462.25105054 545.85288836 464.5969669 543.74071356 466.94140625 541.625 C470.5581697 538.36109152 474.20530233 535.13709051 477.87890625 531.9375 C481.03202008 529.16658178 484.14225165 526.34855889 487.25390625 523.53125 C488.6754969 522.25843047 490.10136973 520.9897206 491.55834961 519.75756836 C497.92673496 514.33320842 503.7954143 508.42222183 509.69604492 502.50073242 C511.5000271 500.69139067 513.3092929 498.88745681 515.11914062 497.08398438 C520.34058281 491.86523926 525.47199768 486.6462042 530.26147461 481.02319336 C534.55315766 476.17392207 539.30102014 471.73157275 543.9140625 467.19140625 C548.17613005 462.9703859 552.24799184 458.68531609 556.15429688 454.13476562 C560.29196789 449.4815815 564.83148857 445.19951638 569.26953125 440.8359375 C572.78272025 437.35859736 576.21865889 433.87497101 579.44140625 430.125 C584.07942637 424.72822543 589.19893528 419.82145636 594.26953125 414.8359375 C597.77103738 411.37016103 601.19659298 407.89970288 604.40625 404.16015625 C608.51969495 399.37358058 613.00844778 394.98733069 617.50390625 390.5625 C628.76832353 381.00828223 628.76832353 381.00828223 633.94140625 368.125 C632.4732168 354.20194499 626.62052061 344.01890097 615.94140625 335.125 C601.54854353 324.58184115 585.1443188 319.08247549 567.37890625 318.8125 C566.58701904 318.79461426 565.79513184 318.77672852 564.97924805 318.75830078 C557.4633167 318.76921264 550.89958889 319.95687013 545.28125 325.234375 C544.13217168 326.43375745 542.99828042 327.64784853 541.87890625 328.875 C540.65929289 330.1527056 539.43795683 331.42876919 538.21484375 332.703125 C537.6434668 333.30576172 537.07208984 333.90839844 536.48339844 334.52929688 C534.18718451 336.90549292 531.71422202 339.02360955 529.1953125 341.15625 C525.8670377 344.06344324 522.66290506 347.1004641 519.44140625 350.125 C514.98821878 354.30077935 510.52177738 358.43841964 505.89453125 362.421875 C503.37528349 364.61865905 500.91037629 366.87189619 498.44140625 369.125 C494.65477627 372.57828153 490.83664305 375.98599051 486.96875 379.34765625 C483.73877549 382.17932947 480.55949969 385.06702507 477.37109375 387.9453125 C475.28534445 389.81645094 473.18322997 391.66424831 471.06640625 393.5 C467.09887901 396.95351561 463.23292985 400.5150394 459.36376953 404.07763672 C456.58681943 406.63025763 453.79177312 409.15468205 450.94140625 411.625 C446.0328851 415.8844605 441.26868933 420.30136311 436.48828125 424.703125 C434.0618448 426.93348578 431.62528331 429.15276442 429.19140625 431.375 C427.10528535 433.28864904 425.02289741 435.20631733 422.94140625 437.125 C422.06838867 437.9281665 422.06838867 437.9281665 421.17773438 438.74755859 C411.8700244 447.32887321 402.82982298 456.14230542 393.94335938 465.15991211 C389.66463605 469.48418145 385.31697583 473.62557038 380.70117188 477.58789062 C378.33186375 479.65741947 376.13534581 481.87176477 373.94140625 484.125 C370.49363942 487.60933405 366.98226691 490.90712816 363.2578125 494.08984375 C360.77281038 496.27312554 358.3627397 498.52415383 355.95166016 500.78833008 C350.34715366 506.05128146 344.65771675 511.07499189 338.65234375 515.8828125 C335.65233525 518.36408754 332.79027191 520.97405457 329.94140625 523.625 C325.43524161 527.80780726 320.81070734 531.78324427 316.01953125 535.63671875 C313.71999866 537.49560486 311.44227077 539.37114776 309.17578125 541.26953125 C280.28934773 565.41218195 246.94794505 592.17917716 209.94140625 602.125 C209.29300781 602.32222656 208.64460937 602.51945313 207.9765625 602.72265625 C204.99855602 603.31139841 202.09921989 603.33586692 199.06640625 603.375 C197.87273438 603.40078125 196.6790625 603.4265625 195.44921875 603.453125 C190.33816622 602.975031 187.10293979 601.38071193 183.62890625 597.625 C179.04211819 590.82975843 180.1020112 580.46944965 181.33270264 572.63360596 C182.56771731 566.41440871 184.21431101 560.30297844 185.87890625 554.1875 C186.3886532 552.2670085 186.89808993 550.34643464 187.40722656 548.42578125 C202.01019016 493.91024495 227.59615958 442.30798772 256.98095703 394.32958984 C258.67643436 391.5581284 260.36267533 388.78130014 262.04483032 386.0017395 C271.74594355 369.98111491 281.93470545 354.87391406 293.48876953 340.14648438 C297.74324987 334.71230576 301.87040552 329.19764616 305.94140625 323.625 C311.11594515 316.54603382 316.42356017 309.5890256 321.82983398 302.68579102 C326.1143472 297.20889819 330.30998991 291.6723479 334.46875 286.09960938 C339.73200166 279.05161147 345.07806448 272.06786095 350.43359375 265.08984375 C351.82280324 263.27955263 353.21042545 261.4680575 354.59765625 259.65625 C385.8676799 218.8567798 385.8676799 218.8567798 398.12890625 206.9375 C402.33883193 202.83972398 405.96548804 198.34513441 409.62841797 193.75878906 C411.05557576 191.9829356 412.49888639 190.22112892 413.9453125 188.4609375 C420.16084733 180.88533978 426.21878267 173.2126995 432.14013672 165.4050293 C435.62819362 160.81418481 439.18946689 156.29415713 442.81640625 151.8125 C448.11861355 145.24794629 453.183505 138.519791 458.22290039 131.75219727 C462.49386027 126.02573706 466.84612539 120.37159639 471.25390625 114.75 C473.48985751 111.88021115 475.71846397 109.00487556 477.94140625 106.125 C478.44639648 105.47241211 478.95138672 104.81982422 479.47167969 104.14746094 C488.77635436 92.02092769 492.15589656 82.72782685 490.94140625 67.125 C488.69691951 53.56455927 479.79028631 42.85366311 468.93359375 34.9296875 C452.72903567 24.45843744 433.02899377 18.48352375 413.94140625 16.125 C412.595625 15.95871094 412.595625 15.95871094 411.22265625 15.7890625 C398.86525203 14.47520056 383.05554371 13.17508052 371.67578125 19.35546875 C369.56693301 21.13882085 367.79599376 23.07501845 365.94140625 25.125 C364.76009374 26.30181688 363.57187985 27.47172468 362.37890625 28.63671875 C354.9070069 35.93188095 354.9070069 35.93188095 347.90625 43.671875 C344.45747837 47.66485824 340.75651683 51.37007094 337.01171875 55.08203125 C336.37317459 55.71507675 335.73463043 56.34812225 335.07673645 57.00035095 C332.40614311 59.64329861 329.73219067 62.282777 327.05322266 64.91723633 C319.92580646 71.93407571 313.03631815 78.90365813 306.82861328 86.7590332 C304.15836673 90.10668641 301.26434862 93.21032085 298.31640625 96.3125 C297.19055724 97.51092172 296.06554858 98.71013349 294.94140625 99.91015625 C294.41804687 100.46848145 293.8946875 101.02680664 293.35546875 101.60205078 C291.09190947 104.03991038 288.91875297 106.55175729 286.74609375 109.0703125 C283.87964977 112.33383963 280.92389108 115.51560792 277.98120117 118.71020508 C275.48999336 121.41970801 273.02972257 124.14769065 270.62890625 126.9375 C266.61315697 131.57254555 262.3934421 136.01707741 258.20043945 140.4909668 C254.14812994 144.81899491 250.15536219 149.1934966 246.203125 153.61328125 C242.01142463 158.26831292 237.74501252 162.85479818 233.48974609 167.45166016 C230.97103594 170.17370989 228.45637355 172.8994926 225.94140625 175.625 C222.93041839 178.88739454 219.91905097 182.14943595 216.90625 185.41015625 C210.68909502 192.13998369 204.48739432 198.88364897 198.30029297 205.64111328 C196.47361208 207.63582518 194.6459092 209.62959907 192.81811523 211.62329102 C191.90217403 212.62239624 190.9863208 213.62158211 190.07055664 214.62084961 C187.75546997 217.14696074 185.43928837 219.67205298 183.12109375 222.1953125 C178.09546284 227.66751109 173.09140548 233.157858 168.12890625 238.6875 C165.86278309 241.21260867 163.5895001 243.73116628 161.31640625 246.25 C154.46532968 253.86754813 147.78166479 261.62290033 141.125 269.41015625 C139.0436973 271.84333616 136.95249841 274.26735044 134.8515625 276.68359375 C128.70672453 283.76621398 122.86063649 291.00119205 117.19775391 298.47314453 C109.92199214 308.03937153 102.34059252 317.29179736 94.46191406 326.36621094 C92.9328368 328.13491238 91.41579844 329.91323177 89.90234375 331.6953125 C84.19493723 338.41066577 78.37453339 344.99096568 72.390625 351.4609375 C70.37266846 353.65590777 68.3933718 355.8716621 66.44140625 358.125 C62.18331199 363.03194672 57.76796547 367.794794 53.36767578 372.57373047 C51.11569284 375.02307994 48.87347974 377.48136141 46.62890625 379.9375 C40.73587147 386.37242304 34.78072923 392.74896162 28.81787109 399.11914062 C26.86377992 401.20797918 24.91226496 403.29920467 22.9609375 405.390625 C21.64200657 406.80215761 20.32299815 408.21361781 19.00390625 409.625 C18.10043457 410.59421387 18.10043457 410.59421387 17.17871094 411.58300781 C14.23715167 414.72642284 11.26218333 417.82203862 8.20703125 420.85546875 C5.90724286 423.13953374 3.71144356 425.45080451 1.62890625 427.9375 C-1.85519704 431.98532338 -5.60847831 435.71304549 -9.43359375 439.4375 C-12.15342101 442.22208506 -14.6963739 445.11501516 -17.24609375 448.05419922 C-26.71801788 458.8759746 -36.90552747 469.07224479 -47.05859375 479.25 C-47.54682617 479.74082062 -48.03505859 480.23164124 -48.53808594 480.73733521 C-53.67540463 485.8961675 -58.85447214 490.92870196 -64.3828125 495.66748047 C-66.54984119 497.55226504 -68.55938194 499.56427398 -70.55859375 501.625 C-73.86778368 505.03601116 -77.35821122 508.15288768 -80.94433594 511.26464844 C-84.35064397 514.26188484 -87.63799204 517.38216766 -90.93359375 520.5 C-96.09857876 525.36497896 -101.29807985 530.17894091 -106.58984375 534.90625 C-116.88459424 544.15849411 -126.95605065 553.66415726 -137.05859375 563.125 C-138.15204102 564.14859619 -138.15204102 564.14859619 -139.26757812 565.19287109 C-141.5326702 567.31457215 -143.79592213 569.43821808 -146.05859375 571.5625 C-147.09935059 572.53751465 -147.09935059 572.53751465 -148.16113281 573.53222656 C-151.38696111 576.56491014 -154.56755701 579.62401992 -157.671875 582.78125 C-168.52995707 593.69618871 -182.38124634 603.57215575 -198.18359375 604.5 C-210.37373895 604.16313934 -222.57844631 599.13349304 -230.99609375 590.3125 C-237.81177462 581.74467476 -238.24902935 571.71864963 -237.05859375 561.125 C-231.39854799 531.77661458 -215.68132454 502.71970052 -201.99609375 476.375 C-200.13782181 472.78008937 -198.28336103 469.18322105 -196.4296875 465.5859375 C-195.97149628 464.69766266 -195.51330505 463.80938782 -195.04122925 462.89419556 C-191.13021396 455.29804077 -187.3268407 447.65137543 -183.54324341 439.99121094 C-177.34786191 427.46258079 -170.80334695 415.19827625 -163.78173828 403.109375 C-161.87282374 399.80325835 -159.99275311 396.48133875 -158.1171875 393.15625 C-150.45024731 379.58168003 -142.61089038 366.16602839 -134.05859375 353.125 C-133.44516113 352.1870459 -132.83172852 351.2490918 -132.19970703 350.28271484 C-110.7990038 317.64624679 -86.82031919 287.00867782 -62.68066406 256.37646484 C-61.28524679 254.60558365 -59.890456 252.834212 -58.49609375 251.0625 C-57.80906372 250.18972412 -57.80906372 250.18972412 -57.1081543 249.29931641 C-54.10182974 245.47289087 -51.13599822 241.61817451 -48.18359375 237.75 C-39.29435407 226.13836382 -29.95715605 214.87763759 -20.45751953 203.76220703 C-18.97713541 202.02966674 -17.50028017 200.29415339 -16.0234375 198.55859375 C-10.78587385 192.41446508 -5.49538403 186.33180293 -0.0703125 180.3515625 C1.78875294 178.29395609 3.62068983 176.21653237 5.44140625 174.125 C8.83635564 170.22709515 12.29806509 166.39152943 15.76171875 162.5546875 C17.63285719 160.4689382 19.48065456 158.36682372 21.31640625 156.25 C24.77059929 152.28169451 28.33271183 148.41487441 31.89624023 144.54516602 C34.42851325 141.79061908 36.93160828 139.01774925 39.37890625 136.1875 C43.929791 130.94149204 48.68440286 125.88139691 53.40380859 120.78759766 C55.7784873 118.21986791 58.14183163 115.64182086 60.50390625 113.0625 C61.39207031 112.093125 62.28023438 111.12375 63.1953125 110.125 C65.12101903 108.02195321 67.04514109 105.91746546 68.96875 103.8125 C69.46624756 103.26859619 69.96374512 102.72469238 70.47631836 102.16430664 C71.86103146 100.65037518 73.24499211 99.13575559 74.62890625 97.62109375 C75.94620813 96.19920879 77.28423908 94.79449374 78.6796875 93.44921875 C81.64847973 90.33336561 82.08908889 86.13541744 82.25390625 82 C81.55708068 59.95830693 66.87872846 41.26392401 51.6875 26.58984375 C37.09168148 13.4889028 20.19187549 5.66769988 0.43359375 5.9140625 C-19.79351572 7.13583421 -43.57082378 14.47446329 -57.65014648 29.86474609 Z M-306.05859375 428.125 C-305.05859375 430.125 -305.05859375 430.125 -305.05859375 430.125 Z M-308.05859375 431.125 C-308.05859375 434.125 -308.05859375 434.125 -308.05859375 434.125 Z M108.94140625 482.125 C109.94140625 484.125 109.94140625 484.125 109.94140625 484.125 Z " fill="#000000" transform="translate(433.05859375,-0.125)"/>
<path d="M0 0 C1.32 0.66 2.64 1.32 4 2 C3.65855957 2.62753174 3.31711914 3.25506348 2.96533203 3.90161133 C-0.46464182 10.20943091 -3.88412766 16.5228333 -7.29443359 22.84130859 C-8.33988567 24.77747506 -9.38675153 26.71287998 -10.43603516 28.64697266 C-34.20271113 70.15082963 -34.20271113 70.15082963 -41 116 C-39.45771534 120.11275909 -38.66328593 121.55780938 -35 124 C-11.08969706 127.15796454 17.31657516 101.00233326 34.69873047 87.68188477 C40.10523908 83.50736106 45.44902237 79.27313949 50.6953125 74.8984375 C53.83535924 72.31189053 57.07025684 69.85637252 60.3203125 67.41015625 C62.12195925 66.08730926 62.12195925 66.08730926 63 64 C60.03 64 57.06 64 54 64 C54 62.68 54 61.36 54 60 C56.64624284 60.14021805 59.29184578 60.28689776 61.9375 60.4375 C62.69224609 60.47681641 63.44699219 60.51613281 64.22460938 60.55664062 C69.88671875 60.88671875 69.88671875 60.88671875 71 62 C70.909084 64.70108504 70.76259234 67.36930311 70.5625 70.0625 C70.51029297 70.82111328 70.45808594 71.57972656 70.40429688 72.36132812 C70.27424165 74.24121722 70.13771962 76.12065685 70 78 C68.68 78 67.36 78 66 78 C66 75.03 66 72.06 66 69 C65.3915625 69.49886719 64.783125 69.99773437 64.15625 70.51171875 C62.25281338 72.07085727 60.34766715 73.62790957 58.44140625 75.18359375 C56.06555724 77.12383598 53.70042513 79.07637596 51.33984375 81.03515625 C41.53349743 89.13632181 31.42853127 96.7182739 21 104 C20.34112793 104.46035645 19.68225586 104.92071289 19.00341797 105.39501953 C-17.79148756 130.92330433 -17.79148756 130.92330433 -35 129 C-38.56437729 127.58769957 -41.74174772 126.16155319 -44 123 C-51.7831753 102.51795975 -38.18310876 75.30306046 -29.9375 56.875 C-21.13181507 37.34881785 -11.46572777 18.10857005 0 0 Z " fill="#000000" transform="translate(283,419)"/>
<path d="M0 0 C0.99 0 1.98 0 3 0 C2.42655063 2.86724686 2.1385485 3.8614515 0 6 C0.78375 6.9075 1.5675 7.815 2.375 8.75 C6.86431361 13.9481526 7.50786132 18.14398219 7.375 24.953125 C6.60801494 31.1848786 3.68865335 34.62150747 -1.0625 38.5 C-6.09298202 40.9493395 -11.57013699 40.82205097 -17 40 C-22.00723099 38.16590891 -25.98999992 35.03875577 -28.37109375 30.1484375 C-29.96469108 24.70447148 -30.07652975 18.9390215 -28.1171875 13.58984375 C-25.94605652 9.74363489 -23.23010967 6.64213122 -19.23046875 4.59375 C-15.19853132 3.52044967 -11.11534299 3.93962168 -6.98828125 4.25 C-3.24695241 3.93699994 -2.43823807 2.71977754 0 0 Z " fill="#000000" transform="translate(87,398)"/>
<path d="M0 0 C0.99 0.33 1.98 0.66 3 1 C2.41275754 5.07427617 1.50763177 8.74488131 0.109375 12.61328125 C-13.50846983 49.84185657 -13.50846983 49.84185657 -9 88 C-6.41549496 91.57269815 -4.28513438 93.26198039 0 94.0625 C22.68940704 95.30010402 46.85531424 73.85588122 63 60 C64.04050502 59.13011903 65.08223869 58.26170623 66.125 57.39453125 C72.66538966 51.93741787 79.01437339 46.31483982 85.24609375 40.5078125 C88.09807425 37.91068983 91.02043541 35.44859653 94 33 C91.36 32.67 88.72 32.34 86 32 C85.505 30.02 85.505 30.02 85 28 C90.61 28 96.22 28 102 28 C102 33.61 102 39.22 102 45 C100.68 45 99.36 45 98 45 C97.505 41.04 97.505 41.04 97 37 C92.83655362 40.58791114 88.73470904 44.23144101 84.70483398 47.96923828 C78.66164293 53.56806275 72.43157515 58.84796088 66 64 C64.83382297 64.95734452 63.66850325 65.91573402 62.50390625 66.875 C54.01351504 73.8277789 45.27646384 80.13898518 36 86 C34.45699219 86.99 34.45699219 86.99 32.8828125 88 C23.19148835 93.96389178 10.37796538 100.76126533 -1.37109375 98.5546875 C-7.76942407 96.72659312 -11.41241027 93.77828203 -14.75 87.9375 C-25.32401757 63.08855871 -11.2426621 26.82839829 -1.98046875 3.23828125 C-1 1 -1 1 0 0 Z " fill="#000000" transform="translate(667,461)"/>
<path d="M0 0 C1.19287411 3.87684087 2 6.91621923 2 11 C1.01 11 0.02 11 -1 11 C-1.99 9.02 -1.99 9.02 -3 7 C-4.21864086 8.42174766 -5.43725579 9.84351755 -6.65576172 11.26538086 C-7.73508716 12.52437349 -8.81485275 13.7829889 -9.89501953 15.04125977 C-12.59899284 18.19225147 -15.29753899 21.34728712 -17.9765625 24.51953125 C-23.85372576 31.46086 -29.90517152 38.19390613 -36.14013672 44.81616211 C-38.9813169 47.83407588 -41.79799 50.85559542 -44.5 54 C-49.53003728 59.8368603 -54.87190776 65.39723394 -60.14160156 71.01660156 C-62.50367024 73.53754821 -64.85987598 76.06392389 -67.21557617 78.59082031 C-69.53714457 81.08058969 -71.86118475 83.56804669 -74.18505859 86.05566406 C-76.07942047 88.08508268 -77.97132569 90.11677559 -79.86328125 92.1484375 C-86.01863755 98.74781199 -92.18053367 105.30573559 -98.65625 111.59375 C-100.59560489 113.58482102 -102.40475243 115.6090148 -104.21484375 117.71484375 C-108.27454942 122.39391896 -112.64750968 126.72115422 -117.0625 131.0625 C-122.28765247 136.20092795 -127.31754117 141.3585736 -132 147 C-132.99 146.67 -133.98 146.34 -135 146 C-133.46607212 142.34535014 -131.2737222 140.05606 -128.45703125 137.296875 C-127.54759766 136.39839844 -126.63816406 135.49992188 -125.70117188 134.57421875 C-124.73865469 133.63243069 -123.77576181 132.69102645 -122.8125 131.75 C-117.21972612 126.2614393 -111.70989952 120.79847727 -106.6159668 114.84082031 C-103.89570385 111.74204669 -100.94506894 108.8830589 -98 106 C-93.70082317 101.75042689 -89.54459924 97.47208324 -85.63671875 92.85546875 C-82.97069681 89.83312884 -80.06329552 87.05565761 -77.1953125 84.2265625 C-74.55993257 81.55366826 -72.12233511 78.74631697 -69.6796875 75.8984375 C-67.50758759 73.44345947 -65.18255606 71.16967764 -62.84375 68.875 C-61.06302959 67.06409789 -59.3979142 65.19864392 -57.7421875 63.2734375 C-54.13634508 59.12605132 -50.40136196 55.1168183 -46.625 51.125 C-41.00156373 45.1528664 -35.43693249 39.1431732 -30 33 C-29.44699219 32.37609375 -28.89398438 31.7521875 -28.32421875 31.109375 C-26.53926091 29.08159473 -24.76850104 27.0421569 -23 25 C-22.54157715 24.47325684 -22.0831543 23.94651367 -21.61083984 23.40380859 C-20.02888012 21.58458004 -18.4515895 19.76138355 -16.875 17.9375 C-16.37186279 17.35967773 -15.86872559 16.78185547 -15.3503418 16.18652344 C-11.98256929 12.2771355 -8.94668528 8.23653469 -6 4 C-7.65 4 -9.3 4 -11 4 C-11 3.01 -11 2.02 -11 1 C-7.32589215 -0.17571451 -3.83070817 -0.07366746 0 0 Z " fill="#000000" transform="translate(255,120)"/>
<path d="M0 0 C1.4540625 0.0309375 1.4540625 0.0309375 2.9375 0.0625 C5.0625 4.6875 5.0625 4.6875 3.9375 8.0625 C4.26300502 9.73071323 4.59596063 11.39749557 4.9375 13.0625 C4.6075 13.7225 4.2775 14.3825 3.9375 15.0625 C1.125 15.9375 1.125 15.9375 -2.0625 16.0625 C-4.4375 14.125 -4.4375 14.125 -6.0625 12.0625 C-2.43923261 10.8547442 -1.42103631 11.51938872 1.9375 13.0625 C1.9375 11.7425 1.9375 10.4225 1.9375 9.0625 C0.6175 9.0625 -0.7025 9.0625 -2.0625 9.0625 C-2.0625 8.0725 -2.0625 7.0825 -2.0625 6.0625 C-1.0725 5.7325 -0.0825 5.4025 0.9375 5.0625 C0.9375 4.4025 0.9375 3.7425 0.9375 3.0625 C-1.0425 3.7225 -3.0225 4.3825 -5.0625 5.0625 C-3.9375 0.08035714 -3.9375 0.08035714 0 0 Z " fill="#000000" transform="translate(712.0625,471.9375)"/>
<path d="M0 0 C3.0625 0.1875 3.0625 0.1875 5.0625 2.1875 C4.90004442 5.92397845 4.47466356 7.71288742 2 10.5625 C1.360625 11.09875 0.72125 11.635 0.0625 12.1875 C1.7125 12.5175 3.3625 12.8475 5.0625 13.1875 C5.0625 13.8475 5.0625 14.5075 5.0625 15.1875 C1.7625 15.1875 -1.5375 15.1875 -4.9375 15.1875 C-2.9375 11.1875 -2.9375 11.1875 -0.8125 8.625 C1.36735538 6.30372611 1.36735538 6.30372611 1.0625 3.1875 C0.4025 3.1875 -0.2575 3.1875 -0.9375 3.1875 C-1.2675 3.8475 -1.5975 4.5075 -1.9375 5.1875 C-2.9275 5.1875 -3.9175 5.1875 -4.9375 5.1875 C-3.82120474 0.24390669 -3.82120474 0.24390669 0 0 Z " fill="#000000" transform="translate(302.9375,466.8125)"/>
<path d="M0 0 C0 0.66 0 1.32 0 2 C0.99 2.33 1.98 2.66 3 3 C2.24266726 4.3410477 1.46867264 5.67269781 0.6875 7 C0.25824219 7.7425 -0.17101562 8.485 -0.61328125 9.25 C-1.07089844 9.8275 -1.52851563 10.405 -2 11 C-2.99 11 -3.98 11 -5 11 C-5 10.01 -5 9.02 -5 8 C-5.99 8.33 -6.98 8.66 -8 9 C-8 5 -8 5 -5.6875 2.25 C-3 0 -3 0 0 0 Z " fill="#000000" transform="translate(432,69)"/>
<path d="M0 0 C1.32 1.32 2.64 2.64 4 4 C2.02 6.64 0.04 9.28 -2 12 C-3.65 11.01 -5.3 10.02 -7 9 C-5.44499019 5.18315774 -2.96404505 2.80804268 0 0 Z " fill="#000000" transform="translate(860,69)"/>
<path d="M0 0 C0 4.95 0 9.9 0 15 C-0.99 15 -1.98 15 -3 15 C-3 11.37 -3 7.74 -3 4 C-3.99 4.33 -4.98 4.66 -6 5 C-5.625 3.0625 -5.625 3.0625 -5 1 C-3 0 -3 0 0 0 Z " fill="#000000" transform="translate(699,472)"/>
<path d="M0 0 C0 4.95 0 9.9 0 15 C-0.99 15 -1.98 15 -3 15 C-3 11.37 -3 7.74 -3 4 C-3.99 4.33 -4.98 4.66 -6 5 C-5.625 3.0625 -5.625 3.0625 -5 1 C-3 0 -3 0 0 0 Z " fill="#000000" transform="translate(290,467)"/>
<path d="M0 0 C0 4.95 0 9.9 0 15 C-0.99 15 -1.98 15 -3 15 C-3 11.37 -3 7.74 -3 4 C-3.99 4.33 -4.98 4.66 -6 5 C-5.625 3.0625 -5.625 3.0625 -5 1 C-3 0 -3 0 0 0 Z " fill="#000000" transform="translate(146,167)"/>
<path d="M0 0 C0 4.95 0 9.9 0 15 C-0.66 15 -1.32 15 -2 15 C-2.33 11.37 -2.66 7.74 -3 4 C-3.99 4.33 -4.98 4.66 -6 5 C-6 4.01 -6 3.02 -6 2 C-3 0 -3 0 0 0 Z " fill="#000000" transform="translate(158,167)"/>
<path d="M0 0 C0.99 0.33 1.98 0.66 3 1 C1.55873214 4.36295835 -0.20592655 6.62927102 -3 9 C-3.99 9 -4.98 9 -6 9 C-5.52797514 4.75177626 -3.03344482 2.80010291 0 0 Z " fill="#000000" transform="translate(494,449)"/>
<path d="M0 0 C-0.47202486 4.24822374 -2.96655518 6.19989709 -6 9 C-6.99 8.67 -7.98 8.34 -9 8 C-7.13554727 3.64961029 -5.02378599 0 0 0 Z " fill="#000000" transform="translate(623,318)"/>
<path d="M0 0 C0.99 0.33 1.98 0.66 3 1 C1.55873214 4.36295835 -0.20592655 6.62927102 -3 9 C-3.99 9 -4.98 9 -6 9 C-5.52797514 4.75177626 -3.03344482 2.80010291 0 0 Z " fill="#000000" transform="translate(747,186)"/>
<path d="M0 0 C0.99 0.33 1.98 0.66 3 1 C1.55746343 4.36591866 -0.33264727 6.51047079 -3 9 C-3.99 8.67 -4.98 8.34 -6 8 C-4.55746343 4.63408134 -2.66735273 2.48952921 0 0 Z " fill="#000000" transform="translate(244,247)"/>
<path d="M0 0 C2.171875 0.359375 2.171875 0.359375 4 1 C3.07347299 2.17539996 2.13336613 3.34010577 1.1875 4.5 C0.66542969 5.1496875 0.14335937 5.799375 -0.39453125 6.46875 C-2 8 -2 8 -5 8 C-5 5 -5 5 -2.75 2.25 C-1.8425 1.5075 -0.935 0.765 0 0 Z " fill="#000000" transform="translate(272,220)"/>
<path d="M0 0 C0.66 0.33 1.32 0.66 2 1 C0.89210592 4.32368224 0.51563783 4.61563093 -2.375 6.25 C-3.28378906 6.78367187 -3.28378906 6.78367187 -4.2109375 7.328125 C-6 8 -6 8 -9 7 C-9 6.34 -9 5.68 -9 5 C-7.54735962 4.1361871 -6.0876837 3.28419546 -4.625 2.4375 C-3.40683594 1.72400391 -3.40683594 1.72400391 -2.1640625 0.99609375 C-1.44992187 0.66738281 -0.73578125 0.33867188 0 0 Z " fill="#000000" transform="translate(276,630)"/>
<path d="M0 0 C-1.5830577 4.2742558 -4.50568404 6.26531794 -8 9 C-8.66 8.01 -9.32 7.02 -10 6 C-8.90398831 4.99106869 -7.79786082 3.99311775 -6.6875 3 C-6.07261719 2.443125 -5.45773437 1.88625 -4.82421875 1.3125 C-3 0 -3 0 0 0 Z " fill="#000000" transform="translate(877,489)"/>
<path d="M0 0 C-1.31224548 3.93673644 -2.91910327 6.22719294 -6 9 C-6.99 8.67 -7.98 8.34 -9 8 C-7.13554727 3.64961029 -5.02378599 0 0 0 Z " fill="#000000" transform="translate(525,420)"/>
<path d="M0 0 C0.66 0.33 1.32 0.66 2 1 C0.55873214 4.36295835 -1.20592655 6.62927102 -4 9 C-4.99 9 -5.98 9 -7 9 C-6.82374165 6.62051228 -6.30280227 5.29774151 -4.59765625 3.62109375 C-3.09350908 2.37884514 -1.54870149 1.18623944 0 0 Z " fill="#000000" transform="translate(117,370)"/>
<path d="M0 0 C0.99 0 1.98 0 3 0 C2.52797514 4.24822374 0.03344482 6.19989709 -3 9 C-3.99 8.67 -4.98 8.34 -6 8 C-2.25 2.25 -2.25 2.25 0 0 Z " fill="#000000" transform="translate(592,347)"/>
<path d="M0 0 C0.99 0.33 1.98 0.66 3 1 C-0.75 6.75 -0.75 6.75 -3 9 C-3.99 9 -4.98 9 -6 9 C-5.52797514 4.75177626 -3.03344482 2.80010291 0 0 Z " fill="#000000" transform="translate(775,157)"/>
<path d="M0 0 C0.99 0.33 1.98 0.66 3 1 C1.50958227 4.79379058 -0.69062512 6.68343758 -4 9 C-4.66 9 -5.32 9 -6 9 C-5.52797514 4.75177626 -3.03344482 2.80010291 0 0 Z " fill="#000000" transform="translate(401,96)"/>
<path d="M0 0 C0.99 0.33 1.98 0.66 3 1 C1.55873214 4.36295835 -0.20592655 6.62927102 -3 9 C-3.99 9 -4.98 9 -6 9 C-4.68775452 5.06326356 -3.08089673 2.77280706 0 0 Z " fill="#000000" transform="translate(845,84)"/>
<path d="M0 0 C3.63 0 7.26 0 11 0 C11 0.99 11 1.98 11 3 C7.04 3 3.08 3 -1 3 C-0.67 2.01 -0.34 1.02 0 0 Z " fill="#000000" transform="translate(173,667)"/>
<path d="M0 0 C2.74277578 3.19990508 4.6302836 6.00499382 6 10 C5.01 10 4.02 10 3 10 C1.61328125 8.5390625 1.61328125 8.5390625 0.3125 6.625 C-0.34298828 5.68527344 -0.34298828 5.68527344 -1.01171875 4.7265625 C-2 3 -2 3 -2 1 C-1.34 0.67 -0.68 0.34 0 0 Z " fill="#000000" transform="translate(141,646)"/>
<path d="M0 0 C0.66 0.33 1.32 0.66 2 1 C0.50958227 4.79379058 -1.69062512 6.68343758 -5 9 C-5.66 9 -6.32 9 -7 9 C-7.33 8.01 -7.66 7.02 -8 6 C-5.36 4.02 -2.72 2.04 0 0 Z " fill="#000000" transform="translate(719,615)"/>
<path d="M0 0 C0.99 0.33 1.98 0.66 3 1 C3 1.66 3 2.32 3 3 C1.57421875 4.2890625 1.57421875 4.2890625 -0.3125 5.625 C-0.92738281 6.07101562 -1.54226563 6.51703125 -2.17578125 6.9765625 C-4 8 -4 8 -7 8 C-6.875 6.25 -6.875 6.25 -6 4 C-3.125 1.6875 -3.125 1.6875 0 0 Z " fill="#000000" transform="translate(309,608)"/>
<path d="M0 0 C0.99 0.33 1.98 0.66 3 1 C3 1.66 3 2.32 3 3 C1.03125 4.5078125 1.03125 4.5078125 -1.5 6.125 C-2.3353125 6.66382813 -3.170625 7.20265625 -4.03125 7.7578125 C-4.6809375 8.16773438 -5.330625 8.57765625 -6 9 C-6 5 -6 5 -3.1875 2.1875 C-2.135625 1.465625 -1.08375 0.74375 0 0 Z " fill="#000000" transform="translate(781,565)"/>
<path d="M0 0 C0.99 0.33 1.98 0.66 3 1 C0.35039045 4.63094642 -2.01824456 6.89851796 -6 9 C-6 5 -6 5 -3.1875 2.1875 C-2.135625 1.465625 -1.08375 0.74375 0 0 Z " fill="#000000" transform="translate(420,519)"/>
<path d="M0 0 C0.99 0.33 1.98 0.66 3 1 C1.51218185 4.78717347 -0.61988409 6.77407001 -4 9 C-4.99 8.67 -5.98 8.34 -7 8 C-6.02133662 6.85373678 -5.04205413 5.70800212 -4.0625 4.5625 C-3.51722656 3.92441406 -2.97195313 3.28632813 -2.41015625 2.62890625 C-1.63204305 1.73008851 -0.84063472 0.84063472 0 0 Z " fill="#000000" transform="translate(450,491)"/>
<path d="M0 0 C0.99 0.33 1.98 0.66 3 1 C2.09827532 2.17825358 1.17798498 3.34231577 0.25 4.5 C-0.51570312 5.47453125 -0.51570312 5.47453125 -1.296875 6.46875 C-3 8 -3 8 -7 8 C-5.51218185 4.21282653 -3.38011591 2.22592999 0 0 Z " fill="#000000" transform="translate(889,475)"/>
<path d="M0 0 C0.66 0.33 1.32 0.66 2 1 C0.50958227 4.79379058 -1.69062512 6.68343758 -5 9 C-5.66 9 -6.32 9 -7 9 C-6.82374165 6.62051228 -6.30280227 5.29774151 -4.59765625 3.62109375 C-3.09350908 2.37884514 -1.54870149 1.18623944 0 0 Z " fill="#000000" transform="translate(963,407)"/>
<path d="M0 0 C0.99 0.33 1.98 0.66 3 1 C2.07038578 2.15224028 1.1309875 3.29659176 0.1875 4.4375 C-0.59560547 5.39462891 -0.59560547 5.39462891 -1.39453125 6.37109375 C-3 8 -3 8 -6 9 C-6.33 8.01 -6.66 7.02 -7 6 C-5.90716423 4.96704564 -4.80029421 3.94892165 -3.6875 2.9375 C-3.07261719 2.36902344 -2.45773437 1.80054688 -1.82421875 1.21484375 C-0.92123047 0.61349609 -0.92123047 0.61349609 0 0 Z " fill="#000000" transform="translate(977,394)"/>
<path d="M0 0 C0.66 0.33 1.32 0.66 2 1 C0.64978174 5.41889613 -1.26115668 7.34345343 -5 10 C-5.66 9.01 -6.32 8.02 -7 7 C-4.69 4.69 -2.38 2.38 0 0 Z " fill="#000000" transform="translate(649,288)"/>
<path d="M0 0 C0.99 0.99 1.98 1.98 3 3 C1.90716423 4.03295436 0.80029421 5.05107835 -0.3125 6.0625 C-0.92738281 6.63097656 -1.54226562 7.19945312 -2.17578125 7.78515625 C-2.77777344 8.18605469 -3.37976563 8.58695312 -4 9 C-4.99 8.67 -5.98 8.34 -7 8 C-6.02133662 6.85373678 -5.04205413 5.70800212 -4.0625 4.5625 C-3.51722656 3.92441406 -2.97195312 3.28632813 -2.41015625 2.62890625 C-1.63204305 1.73008851 -0.84063472 0.84063472 0 0 Z " fill="#000000" transform="translate(216,274)"/>
<path d="M0 0 C0.99 0.99 1.98 1.98 3 3 C0.69 5.31 -1.62 7.62 -4 10 C-4.99 9.67 -5.98 9.34 -7 9 C-6.02180976 7.68677212 -5.0424189 6.37443848 -4.0625 5.0625 C-3.51722656 4.33160156 -2.97195313 3.60070312 -2.41015625 2.84765625 C-1 1 -1 1 0 0 Z " fill="#000000" transform="translate(691,244)"/>
<path d="M0 0 C0.99 0.99 1.98 1.98 3 3 C0.69 5.31 -1.62 7.62 -4 10 C-4.66 9.67 -5.32 9.34 -6 9 C-4.68775452 5.06326356 -3.08089673 2.77280706 0 0 Z " fill="#000000" transform="translate(719,215)"/>
<path d="M0 0 C0.66 0.33 1.32 0.66 2 1 C0.55746343 4.36591866 -1.33264727 6.51047079 -4 9 C-4.99 8.67 -5.98 8.34 -7 8 C-5.50902342 4.2047869 -3.24299151 2.38957269 0 0 Z " fill="#000000" transform="translate(302,192)"/>
<path d="M0 0 C0 0.99 0 1.98 0 3 C-4.95 4.485 -4.95 4.485 -10 6 C-10.33 5.01 -10.66 4.02 -11 3 C-9.73160474 2.49384702 -8.46016898 1.99530901 -7.1875 1.5 C-6.12595703 1.08234375 -6.12595703 1.08234375 -5.04296875 0.65625 C-3 0 -3 0 0 0 Z " fill="#000000" transform="translate(223,658)"/>
<path d="M0 0 C0 0.99 0 1.98 0 3 C-3.82320557 4.42258812 -6.91281305 5.24042276 -11 5 C-11 4.01 -11 3.02 -11 2 C-9.5422647 1.664061 -8.08378894 1.33133376 -6.625 1 C-5.40683594 0.7215625 -5.40683594 0.7215625 -4.1640625 0.4375 C-2 0 -2 0 0 0 Z " fill="#000000" transform="translate(651,651)"/>
<path d="M0 0 C0 0.99 0 1.98 0 3 C-3.3 4.32 -6.6 5.64 -10 7 C-10.33 6.01 -10.66 5.02 -11 4 C-9.73308493 3.32591692 -8.46129251 2.66099503 -7.1875 2 C-6.47980469 1.62875 -5.77210938 1.2575 -5.04296875 0.875 C-3 0 -3 0 0 0 Z " fill="#000000" transform="translate(242,650)"/>
<path d="M0 0 C3.99455527 0.61454696 6.74466336 2.70646737 10 5 C9.01 6.485 9.01 6.485 8 8 C6.6589523 7.24266726 5.32730219 6.46867264 4 5.6875 C2.88625 5.04361328 2.88625 5.04361328 1.75 4.38671875 C1.1725 3.92910156 0.595 3.47148438 0 3 C0 2.01 0 1.02 0 0 Z " fill="#000000" transform="translate(584,643)"/>
<path d="M0 0 C-0.24609375 1.859375 -0.24609375 1.859375 -1 4 C-2.84765625 5.265625 -2.84765625 5.265625 -5.0625 6.25 C-6.16271484 6.75273438 -6.16271484 6.75273438 -7.28515625 7.265625 C-8.13400391 7.62914062 -8.13400391 7.62914062 -9 8 C-9.33 7.01 -9.66 6.02 -10 5 C-8.90241493 4.15801693 -7.79664683 3.32669329 -6.6875 2.5 C-6.07261719 2.0359375 -5.45773437 1.571875 -4.82421875 1.09375 C-3 0 -3 0 0 0 Z " fill="#000000" transform="translate(705,628)"/>
<path d="M0 0 C2.96404505 2.80804268 5.44499019 5.18315774 7 9 C5.68 9 4.36 9 3 9 C1.515625 7.46875 1.515625 7.46875 0.25 5.5 C-0.17796875 4.8503125 -0.6059375 4.200625 -1.046875 3.53125 C-1.51867187 2.77328125 -1.51867187 2.77328125 -2 2 C-1.34 1.34 -0.68 0.68 0 0 Z " fill="#000000" transform="translate(572,628)"/>
<path d="M0 0 C0.33 0.99 0.66 1.98 1 3 C-3.455 5.97 -3.455 5.97 -8 9 C-8 7.68 -8 6.36 -8 5 C-2.77272727 0 -2.77272727 0 0 0 Z " fill="#000000" transform="translate(360,571)"/>
<path d="M0 0 C0.66 0.33 1.32 0.66 2 1 C2 1.99 2 2.98 2 4 C0.5390625 5.38671875 0.5390625 5.38671875 -1.375 6.6875 C-2.00148438 7.12449219 -2.62796875 7.56148437 -3.2734375 8.01171875 C-5 9 -5 9 -7 9 C-6.82374165 6.62051228 -6.30280227 5.29774151 -4.59765625 3.62109375 C-3.09350908 2.37884514 -1.54870149 1.18623944 0 0 Z " fill="#000000" transform="translate(374,558)"/>
<path d="M0 0 C0.99 0.99 1.98 1.98 3 3 C0.36 4.98 -2.28 6.96 -5 9 C-5.66 8.67 -6.32 8.34 -7 8 C-5.50902342 4.2047869 -3.24299151 2.38957269 0 0 Z " fill="#000000" transform="translate(797,552)"/>
<path d="M0 0 C0.66 0.33 1.32 0.66 2 1 C0.51218185 4.78717347 -1.61988409 6.77407001 -5 9 C-5.99 8.67 -6.98 8.34 -8 8 C-3.375 2.25 -3.375 2.25 0 0 Z " fill="#000000" transform="translate(390,545)"/>
<path d="M0 0 C-0.33589994 3.13506611 -1.02665172 4.025249 -3.375 6.25 C-6 8 -6 8 -9 8 C-8.66410006 4.86493389 -7.97334828 3.974751 -5.625 1.75 C-3 0 -3 0 0 0 Z " fill="#000000" transform="translate(815,540)"/>
<path d="M0 0 C0.99 0.33 1.98 0.66 3 1 C-2.14285714 7.57142857 -2.14285714 7.57142857 -6 9 C-6 5 -6 5 -3.1875 2.1875 C-2.135625 1.465625 -1.08375 0.74375 0 0 Z " fill="#000000" transform="translate(405,532)"/>
<path d="M0 0 C0.66 0.33 1.32 0.66 2 1 C0.51218185 4.78717347 -1.61988409 6.77407001 -5 9 C-5.99 8.67 -6.98 8.34 -8 8 C-8 7.34 -8 6.68 -8 6 C-6.25 4.4921875 -6.25 4.4921875 -4 2.875 C-3.2575 2.33617187 -2.515 1.79734375 -1.75 1.2421875 C-1.1725 0.83226562 -0.595 0.42234375 0 0 Z " fill="#000000" transform="translate(829,527)"/>
<path d="M0 0 C0.99 0 1.98 0 3 0 C1.8905928 3.48670834 0.73662334 6.77484237 -1 10 C-1.99 10 -2.98 10 -4 10 C-3.43768609 6.06380262 -2.38314183 3.20807554 0 0 Z " fill="#000000" transform="translate(574,515)"/>
<path d="M0 0 C0.99 0.33 1.98 0.66 3 1 C1.64458676 5.06623972 -0.57009469 6.53046818 -4 9 C-4.99 8.67 -5.98 8.34 -7 8 C-6.02133662 6.85373678 -5.04205413 5.70800212 -4.0625 4.5625 C-3.51722656 3.92441406 -2.97195313 3.28632813 -2.41015625 2.62890625 C-1.63204305 1.73008851 -0.84063472 0.84063472 0 0 Z " fill="#000000" transform="translate(465,477)"/>
<path d="M0 0 C-0.38520564 2.53910197 -0.70097943 3.72751123 -2.62890625 5.484375 C-3.26699219 5.90203125 -3.90507813 6.3196875 -4.5625 6.75 C-5.20316406 7.17796875 -5.84382812 7.6059375 -6.50390625 8.046875 C-7.24447266 8.51867187 -7.24447266 8.51867187 -8 9 C-8 5 -8 5 -5.6875 2.25 C-3 0 -3 0 0 0 Z " fill="#000000" transform="translate(950,421)"/>
<path d="M0 0 C0.66 0.33 1.32 0.66 2 1 C0.47291037 4.43595166 -1.59927045 7.11912454 -4 10 C-4.99 9.67 -5.98 9.34 -7 9 C-5.44499019 5.18315774 -2.96404505 2.80804268 0 0 Z " fill="#000000" transform="translate(551,390)"/>
<path d="M0 0 C-0.47202486 4.24822374 -2.96655518 6.19989709 -6 9 C-6.99 8.67 -7.98 8.34 -9 8 C-7.47364599 4.11473526 -4.49771687 0 0 0 Z " fill="#000000" transform="translate(147,343)"/>
<path d="M0 0 C0.99 0 1.98 0 3 0 C2.38545304 3.99455527 0.29353263 6.74466336 -2 10 C-2.99 9.67 -3.98 9.34 -5 9 C-3.35 6.03 -1.7 3.06 0 0 Z " fill="#000000" transform="translate(712,290)"/>
<path d="M0 0 C0.99 0.33 1.98 0.66 3 1 C2.07456291 2.34173403 1.13422595 3.67320159 0.1875 5 C-0.33457031 5.7425 -0.85664062 6.485 -1.39453125 7.25 C-1.92433594 7.8275 -2.45414063 8.405 -3 9 C-3.99 9 -4.98 9 -6 9 C-6 6 -6 6 -4.6875 4.39453125 C-4.130625 3.87246094 -3.57375 3.35039062 -3 2.8125 C-2.443125 2.28269531 -1.88625 1.75289063 -1.3125 1.20703125 C-0.6628125 0.60955078 -0.6628125 0.60955078 0 0 Z " fill="#000000" transform="translate(677,259)"/>
<path d="M0 0 C0.99 0 1.98 0 3 0 C1.66511872 3.59391114 0.03977277 6.75490696 -2 10 C-2.99 9.67 -3.98 9.34 -5 9 C-3.76067171 5.56801397 -2.49698489 2.69674368 0 0 Z " fill="#000000" transform="translate(746,239)"/>
<path d="M0 0 C0.99 0 1.98 0 3 0 C2.38545304 3.99455527 0.29353263 6.74466336 -2 10 C-2.99 9.67 -3.98 9.34 -5 9 C-3.35 6.03 -1.7 3.06 0 0 Z " fill="#000000" transform="translate(757,222)"/>
<path d="M0 0 C0.99 0.33 1.98 0.66 3 1 C1.02 3.97 -0.96 6.94 -3 10 C-3.99 9.67 -4.98 9.34 -6 9 C-4.02 6.03 -2.04 3.06 0 0 Z " fill="#000000" transform="translate(769,205)"/>
<path d="M0 0 C0.99 0.33 1.98 0.66 3 1 C1.76067171 4.43198603 0.49698489 7.30325632 -2 10 C-2.99 10 -3.98 10 -5 10 C-3.66511872 6.40608886 -2.03977277 3.24509304 0 0 Z " fill="#000000" transform="translate(780,188)"/>
<path d="M0 0 C0.99 0.33 1.98 0.66 3 1 C1.6062718 5.43458973 -0.60582235 7.87378374 -4 11 C-5 8 -5 8 -4.00390625 5.95703125 C-3.52824219 5.24933594 -3.05257812 4.54164063 -2.5625 3.8125 C-2.08941406 3.09707031 -1.61632812 2.38164062 -1.12890625 1.64453125 C-0.75636719 1.10183594 -0.38382813 0.55914062 0 0 Z " fill="#000000" transform="translate(803,154)"/>
<path d="M0 0 C0.99 0 1.98 0 3 0 C2.38545304 3.99455527 0.29353263 6.74466336 -2 10 C-2.99 9.67 -3.98 9.34 -5 9 C-3.35 6.03 -1.7 3.06 0 0 Z " fill="#000000" transform="translate(814,138)"/>
<path d="M0 0 C0.99 0.33 1.98 0.66 3 1 C0.525 5.455 0.525 5.455 -2 10 C-2.99 10 -3.98 10 -5 10 C-4.38545304 6.00544473 -2.29353263 3.25533664 0 0 Z " fill="#000000" transform="translate(826,121)"/>
<path d="M0 0 C0.99 0.33 1.98 0.66 3 1 C1.4169423 5.2742558 -1.50568404 7.26531794 -5 10 C-5 4.69520066 -3.4637943 3.81017373 0 0 Z " fill="#000000" transform="translate(817,113)"/>
<path d="M0 0 C0 0.66 0 1.32 0 2 C-6.4 5.07692308 -6.4 5.07692308 -9.4375 4.6875 C-9.953125 4.460625 -10.46875 4.23375 -11 4 C-11 3.34 -11 2.68 -11 2 C-9.54494642 1.47007308 -8.08581873 0.9513211 -6.625 0.4375 C-5.81289063 0.14746094 -5.00078125 -0.14257812 -4.1640625 -0.44140625 C-2 -1 -2 -1 0 0 Z " fill="#000000" transform="translate(670,646)"/>
<path d="M0 0 C-1.10815825 3.21365891 -1.98529554 3.9914224 -5 5.75 C-8 7 -8 7 -10 7 C-9.875 5.1875 -9.875 5.1875 -9 3 C-5.79116175 1.04679411 -3.7794561 0 0 0 Z " fill="#000000" transform="translate(260,641)"/>
<path d="M0 0 C0.66 0.33 1.32 0.66 2 1 C1 4 1 4 -1.875 5.6875 C-5 7 -5 7 -8 7 C-8 6.01 -8 5.02 -8 4 C-6.71349294 3.30289269 -5.42059335 2.61757124 -4.125 1.9375 C-3.40570312 1.55464844 -2.68640625 1.17179688 -1.9453125 0.77734375 C-1.30335938 0.52082031 -0.66140625 0.26429688 0 0 Z " fill="#000000" transform="translate(686,637)"/>
<path d="M0 0 C-1.45124634 3.82601307 -3.35774704 5.22329124 -7 7 C-7.99 7 -8.98 7 -10 7 C-10 6.01 -10 5.02 -10 4 C-3.375 0 -3.375 0 0 0 Z " fill="#000000" transform="translate(295,620)"/>
<path d="M0 0 C0.99 0.33 1.98 0.66 3 1 C0.19195732 3.96404505 -2.18315774 6.44499019 -6 8 C-6.33 7.01 -6.66 6.02 -7 5 C-5.90554162 4.13342884 -4.79902219 3.28207276 -3.6875 2.4375 C-3.07261719 1.96183594 -2.45773437 1.48617187 -1.82421875 0.99609375 C-1.22222656 0.66738281 -0.62023437 0.33867188 0 0 Z " fill="#000000" transform="translate(734,603)"/>
<path d="M0 0 C0.66 0.33 1.32 0.66 2 1 C0.6190998 4.33717549 -0.8201238 6.22301036 -4 8 C-6.25 7.6875 -6.25 7.6875 -8 7 C-5.42215154 4.35247996 -3.08351902 2.05567935 0 0 Z " fill="#000000" transform="translate(326,596)"/>
<path d="M0 0 C-0.38520564 2.53910197 -0.70097943 3.72751123 -2.62890625 5.484375 C-3.26699219 5.90203125 -3.90507813 6.3196875 -4.5625 6.75 C-5.20316406 7.17796875 -5.84382812 7.6059375 -6.50390625 8.046875 C-7.24447266 8.51867187 -7.24447266 8.51867187 -8 9 C-8 7.68 -8 6.36 -8 5 C-2.77272727 0 -2.77272727 0 0 0 Z " fill="#000000" transform="translate(752,590)"/>
<path d="M0 0 C-2.33333333 2.33333333 -4.66666667 4.66666667 -7 7 C-7.99 7 -8.98 7 -10 7 C-10 6.01 -10 5.02 -10 4 C-8.57421875 2.578125 -8.57421875 2.578125 -6.6875 1.25 C-6.07261719 0.80140625 -5.45773437 0.3528125 -4.82421875 -0.109375 C-3 -1 -3 -1 0 0 Z " fill="#000000" transform="translate(345,585)"/>
<path d="M0 0 C-1.48781815 3.78717347 -3.61988409 5.77407001 -7 8 C-7.99 7.67 -8.98 7.34 -10 7 C-4.65789474 0 -4.65789474 0 0 0 Z " fill="#000000" transform="translate(768,578)"/>
<path d="M0 0 C0.99 0 1.98 0 3 0 C3 3.63 3 7.26 3 11 C2.01 11 1.02 11 0 11 C0 7.37 0 3.74 0 0 Z " fill="#000000" transform="translate(557,572)"/>
<path d="M0 0 C0.99 0.33 1.98 0.66 3 1 C2.01 4.3 1.02 7.6 0 11 C-0.99 10.67 -1.98 10.34 -3 10 C-2.01 6.7 -1.02 3.4 0 0 Z " fill="#000000" transform="translate(565,533)"/>
<path d="M0 0 C0.66 0.33 1.32 0.66 2 1 C0.49776416 5.20626034 -2.28550034 6.73900021 -6 9 C-6 5 -6 5 -4.6875 3.515625 C-3.125 2.34375 -1.5625 1.171875 0 0 Z " fill="#000000" transform="translate(860,502)"/>
<path d="M0 0 C0.66 0.33 1.32 0.66 2 1 C0.55746343 4.36591866 -1.33264727 6.51047079 -4 9 C-4.99 8.67 -5.98 8.34 -7 8 C-5.50902342 4.2047869 -3.24299151 2.38957269 0 0 Z " fill="#000000" transform="translate(992,380)"/>
<path d="M0 0 C0.99 0 1.98 0 3 0 C2.52797514 4.24822374 0.03344482 6.19989709 -3 9 C-3.99 8.67 -4.98 8.34 -6 8 C-5.07456291 6.65826597 -4.13422595 5.32679841 -3.1875 4 C-2.66542969 3.2575 -2.14335938 2.515 -1.60546875 1.75 C-0.81076172 0.88375 -0.81076172 0.88375 0 0 Z " fill="#000000" transform="translate(564,376)"/>
<path d="M0 0 C0.99 0.33 1.98 0.66 3 1 C1.7508258 4.45925163 0.32472205 7.14693203 -2 10 C-2.99 9.67 -3.98 9.34 -5 9 C-3.35 6.03 -1.7 3.06 0 0 Z " fill="#000000" transform="translate(657,375)"/>
<path d="M0 0 C0.99 0 1.98 0 3 0 C1.66511872 3.59391114 0.03977277 6.75490696 -2 10 C-2.99 9.67 -3.98 9.34 -5 9 C-4.3566152 7.686298 -3.71021785 6.37407102 -3.0625 5.0625 C-2.70285156 4.33160156 -2.34320312 3.60070312 -1.97265625 2.84765625 C-1 1 -1 1 0 0 Z " fill="#000000" transform="translate(690,324)"/>
<path d="M0 0 C0.99 0.33 1.98 0.66 3 1 C1.7508258 4.45925163 0.32472205 7.14693203 -2 10 C-2.99 9.67 -3.98 9.34 -5 9 C-3.35 6.03 -1.7 3.06 0 0 Z " fill="#000000" transform="translate(262,312)"/>
<path d="M0 0 C0.99 0.33 1.98 0.66 3 1 C1.49776416 5.20626034 -1.28550034 6.73900021 -5 9 C-5 5 -5 5 -2.5 2.25 C-1.675 1.5075 -0.85 0.765 0 0 Z " fill="#000000" transform="translate(187,302)"/>
<path d="M0 0 C0.99 0 1.98 0 3 0 C2.38545304 3.99455527 0.29353263 6.74466336 -2 10 C-2.99 9.34 -3.98 8.68 -5 8 C-4.24266726 6.6589523 -3.46867264 5.32730219 -2.6875 4 C-2.25824219 3.2575 -1.82898438 2.515 -1.38671875 1.75 C-0.70029297 0.88375 -0.70029297 0.88375 0 0 Z " fill="#000000" transform="translate(273,296)"/>
<path d="M0 0 C0.99 0.33 1.98 0.66 3 1 C1.7508258 4.45925163 0.32472205 7.14693203 -2 10 C-2.99 9.67 -3.98 9.34 -5 9 C-3.50163895 5.88801935 -1.80066242 2.9465385 0 0 Z " fill="#000000" transform="translate(341,199)"/>
<path d="M0 0 C0.66 0.33 1.32 0.66 2 1 C0.76067171 4.43198603 -0.50301511 7.30325632 -3 10 C-3.99 10 -4.98 10 -6 10 C-4.6302836 6.00499382 -2.74277578 3.19990508 0 0 Z " fill="#000000" transform="translate(792,171)"/>
<path d="M0 0 C0.99 0.33 1.98 0.66 3 1 C2.07347299 2.17539996 1.13336613 3.34010577 0.1875 4.5 C-0.33457031 5.1496875 -0.85664063 5.799375 -1.39453125 6.46875 C-3 8 -3 8 -6 8 C-6 7.01 -6 6.02 -6 5 C-3.1875 2.25 -3.1875 2.25 0 0 Z " fill="#000000" transform="translate(330,165)"/>
<path d="M0 0 C0.99 0.33 1.98 0.66 3 1 C1.7508258 4.45925163 0.32472205 7.14693203 -2 10 C-2.99 9.67 -3.98 9.34 -5 9 C-3.50163895 5.88801935 -1.80066242 2.9465385 0 0 Z " fill="#000000" transform="translate(375,151)"/>
<path d="M0 0 C0.99 0.33 1.98 0.66 3 1 C2.07456291 2.34173403 1.13422595 3.67320159 0.1875 5 C-0.33457031 5.7425 -0.85664062 6.485 -1.39453125 7.25 C-1.92433594 7.8275 -2.45414063 8.405 -3 9 C-3.99 9 -4.98 9 -6 9 C-5.52797514 4.75177626 -3.03344482 2.80010291 0 0 Z " fill="#000000" transform="translate(803,128)"/>
<path d="M0 0 C0.99 0.66 1.98 1.32 3 2 C1.02 4.64 -0.96 7.28 -3 10 C-3.99 9.67 -4.98 9.34 -6 9 C-4.02 6.03 -2.04 3.06 0 0 Z " fill="#000000" transform="translate(838,104)"/>
<path d="M0 0 C0.99 0 1.98 0 3 0 C1.6062718 4.43458973 -0.60582235 6.87378374 -4 10 C-4 5.25852179 -2.90322818 3.64977257 0 0 Z " fill="#000000" transform="translate(849,88)"/>
<path d="M0 0 C0 0.66 0 1.32 0 2 C-3.63 2.66 -7.26 3.32 -11 4 C-11 3.01 -11 2.02 -11 1 C-3.375 -1.125 -3.375 -1.125 0 0 Z " fill="#000000" transform="translate(204,665)"/>
<path d="M0 0 C3.3 0.66 6.6 1.32 10 2 C10 2.99 10 3.98 10 5 C6.37 4.34 2.74 3.68 -1 3 C-0.67 2.01 -0.34 1.02 0 0 Z " fill="#000000" transform="translate(602,652)"/>
<path d="M0 0 C0.99 0 1.98 0 3 0 C6 6.625 6 6.625 6 10 C5.01 10 4.02 10 3 10 C2.01 6.7 1.02 3.4 0 0 Z " fill="#000000" transform="translate(131,629)"/>
<path d="M0 0 C1.32 0.33 2.64 0.66 4 1 C4.66 3.97 5.32 6.94 6 10 C5.01 10 4.02 10 3 10 C2.01 6.7 1.02 3.4 0 0 Z " fill="#000000" transform="translate(562,611)"/>
<path d="M0 0 C0.99 0 1.98 0 3 0 C3.33 3.3 3.66 6.6 4 10 C3.01 10.33 2.02 10.66 1 11 C0.67 7.37 0.34 3.74 0 0 Z " fill="#000000" transform="translate(127,610)"/>
<path d="M0 0 C0.99 0 1.98 0 3 0 C2.67 3.63 2.34 7.26 2 11 C1.01 10.67 0.02 10.34 -1 10 C-0.67 6.7 -0.34 3.4 0 0 Z " fill="#000000" transform="translate(127,571)"/>
<path d="M0 0 C0.99 0.33 1.98 0.66 3 1 C2.34 4.3 1.68 7.6 1 11 C0.01 11 -0.98 11 -2 11 C-1.85892253 9.54119891 -1.71197585 8.08296449 -1.5625 6.625 C-1.48128906 5.81289063 -1.40007813 5.00078125 -1.31640625 4.1640625 C-1 2 -1 2 0 0 Z " fill="#000000" transform="translate(560,552)"/>
<path d="M0 0 C0.99 0.33 1.98 0.66 3 1 C0.66666667 3.33333333 -1.66666667 5.66666667 -4 8 C-4.99 8 -5.98 8 -7 8 C-5.51218185 4.21282653 -3.38011591 2.22592999 0 0 Z " fill="#000000" transform="translate(844,515)"/>
<path d="M0 0 C0.99 0.33 1.98 0.66 3 1 C2.09827532 2.17825358 1.17798498 3.34231577 0.25 4.5 C-0.51570313 5.47453125 -0.51570313 5.47453125 -1.296875 6.46875 C-3 8 -3 8 -7 8 C-6.02133662 6.85373678 -5.04205413 5.70800212 -4.0625 4.5625 C-3.51722656 3.92441406 -2.97195313 3.28632813 -2.41015625 2.62890625 C-1.63204305 1.73008851 -0.84063472 0.84063472 0 0 Z " fill="#000000" transform="translate(435,505)"/>
<path d="M0 0 C0.99 0 1.98 0 3 0 C2.43768609 3.93619738 1.38314183 6.79192446 -1 10 C-1.99 10 -2.98 10 -4 10 C-2.8905928 6.51329166 -1.73662334 3.22515763 0 0 Z " fill="#000000" transform="translate(583,497)"/>
<path d="M0 0 C0.99 0.33 1.98 0.66 3 1 C2.57742724 2.4835001 2.13643678 3.96176424 1.6875 5.4375 C1.44386719 6.26121094 1.20023438 7.08492188 0.94921875 7.93359375 C0.63597656 8.61550781 0.32273438 9.29742187 0 10 C-0.99 10.33 -1.98 10.66 -3 11 C-2.44894091 7.0507432 -1.61064629 3.65079826 0 0 Z " fill="#000000" transform="translate(148,495)"/>
<path d="M0 0 C0.66 0.33 1.32 0.66 2 1 C0.79157144 5.43090471 -0.51668565 7.98112756 -4 11 C-5 8 -5 8 -4.00390625 5.95703125 C-3.52824219 5.24933594 -3.05257812 4.54164063 -2.5625 3.8125 C-2.08941406 3.09707031 -1.61632812 2.38164062 -1.12890625 1.64453125 C-0.75636719 1.10183594 -0.38382813 0.55914062 0 0 Z " fill="#000000" transform="translate(594,479)"/>
<path d="M0 0 C0.99 0.33 1.98 0.66 3 1 C0.525 5.455 0.525 5.455 -2 10 C-2.99 9.67 -3.98 9.34 -5 9 C-3.7508258 5.54074837 -2.32472205 2.85306797 0 0 Z " fill="#000000" transform="translate(604,462)"/>
<path d="M0 0 C0.66 0.33 1.32 0.66 2 1 C0.79157144 5.43090471 -0.51668565 7.98112756 -4 11 C-5 8 -5 8 -4.00390625 5.95703125 C-3.52824219 5.24933594 -3.05257812 4.54164063 -2.5625 3.8125 C-2.08941406 3.09707031 -1.61632812 2.38164062 -1.12890625 1.64453125 C-0.75636719 1.10183594 -0.38382813 0.55914062 0 0 Z " fill="#000000" transform="translate(167,460)"/>
<path d="M0 0 C0.99 0.33 1.98 0.66 3 1 C1.7508258 4.45925163 0.32472205 7.14693203 -2 10 C-2.99 9.67 -3.98 9.34 -5 9 C-3.35 6.03 -1.7 3.06 0 0 Z " fill="#000000" transform="translate(614,444)"/>
<path d="M0 0 C0.99 0.99 1.98 1.98 3 3 C1.90716423 4.03295436 0.80029421 5.05107835 -0.3125 6.0625 C-0.92738281 6.63097656 -1.54226563 7.19945312 -2.17578125 7.78515625 C-2.77777344 8.18605469 -3.37976563 8.58695312 -4 9 C-4.99 8.67 -5.98 8.34 -7 8 C-6.02133662 6.85373678 -5.04205413 5.70800212 -4.0625 4.5625 C-3.51722656 3.92441406 -2.97195313 3.28632813 -2.41015625 2.62890625 C-1.63204305 1.73008851 -0.84063472 0.84063472 0 0 Z " fill="#000000" transform="translate(933,434)"/>
<path d="M0 0 C0.66 0.33 1.32 0.66 2 1 C0.4169423 5.2742558 -2.50568404 7.26531794 -6 10 C-6 6 -6 6 -4.6875 4.296875 C-4.130625 3.78640625 -3.57375 3.2759375 -3 2.75 C-2.1646875 1.96882813 -2.1646875 1.96882813 -1.3125 1.171875 C-0.879375 0.78515625 -0.44625 0.3984375 0 0 Z " fill="#000000" transform="translate(509,434)"/>
<path d="M0 0 C0.99 0.33 1.98 0.66 3 1 C0.525 5.455 0.525 5.455 -2 10 C-2.99 9.67 -3.98 9.34 -5 9 C-3.7508258 5.54074837 -2.32472205 2.85306797 0 0 Z " fill="#000000" transform="translate(625,427)"/>
<path d="M0 0 C0.66 0.33 1.32 0.66 2 1 C1.38545304 4.99455527 -0.70646737 7.74466336 -3 11 C-3.66 10.67 -4.32 10.34 -5 10 C-3.84414715 6.08788267 -2.64465038 3.1254959 0 0 Z " fill="#000000" transform="translate(636,409)"/>
<path d="M0 0 C0.99 0.33 1.98 0.66 3 1 C0.525 5.455 0.525 5.455 -2 10 C-2.99 9.67 -3.98 9.34 -5 9 C-3.35 6.03 -1.7 3.06 0 0 Z " fill="#000000" transform="translate(197,410)"/>
<path d="M0 0 C0.66 0.33 1.32 0.66 2 1 C0.7508258 4.45925163 -0.67527795 7.14693203 -3 10 C-3.99 9.67 -4.98 9.34 -6 9 C-4.02 6.03 -2.04 3.06 0 0 Z " fill="#000000" transform="translate(647,392)"/>
<path d="M0 0 C0.99 0.33 1.98 0.66 3 1 C2.09827532 2.17825358 1.17798498 3.34231577 0.25 4.5 C-0.51570313 5.47453125 -0.51570313 5.47453125 -1.296875 6.46875 C-3 8 -3 8 -7 8 C-6.02133662 6.85373678 -5.04205413 5.70800212 -4.0625 4.5625 C-3.51722656 3.92441406 -2.97195312 3.28632813 -2.41015625 2.62890625 C-1.63204305 1.73008851 -0.84063472 0.84063472 0 0 Z " fill="#000000" transform="translate(102,384)"/>
<path d="M0 0 C0.66 0.33 1.32 0.66 2 1 C0.7508258 4.45925163 -0.67527795 7.14693203 -3 10 C-3.99 9.67 -4.98 9.34 -6 9 C-4.02 6.03 -2.04 3.06 0 0 Z " fill="#000000" transform="translate(219,377)"/>
<path d="M0 0 C0.66 0.33 1.32 0.66 2 1 C0.55873214 4.36295835 -1.20592655 6.62927102 -4 9 C-4.99 9 -5.98 9 -7 9 C-7 6 -7 6 -5.46875 4.39453125 C-4.49421875 3.61142578 -4.49421875 3.61142578 -3.5 2.8125 C-2.8503125 2.28269531 -2.200625 1.75289063 -1.53125 1.20703125 C-1.0259375 0.80871094 -0.520625 0.41039062 0 0 Z " fill="#000000" transform="translate(1007,366)"/>
<path d="M0 0 C0.66 0.33 1.32 0.66 2 1 C0.4169423 5.2742558 -2.50568404 7.26531794 -6 10 C-6 6 -6 6 -4.6875 4.296875 C-4.130625 3.78640625 -3.57375 3.2759375 -3 2.75 C-2.1646875 1.96882813 -2.1646875 1.96882813 -1.3125 1.171875 C-0.879375 0.78515625 -0.44625 0.3984375 0 0 Z " fill="#000000" transform="translate(579,361)"/>
<path d="M0 0 C0.99 0.33 1.98 0.66 3 1 C1.68 3.64 0.36 6.28 -1 9 C-2.32 9 -3.64 9 -5 9 C-3.35 6.03 -1.7 3.06 0 0 Z " fill="#000000" transform="translate(668,358)"/>
<path d="M0 0 C0.66 0.33 1.32 0.66 2 1 C0.7508258 4.45925163 -0.67527795 7.14693203 -3 10 C-3.99 9.67 -4.98 9.34 -6 9 C-4.02 6.03 -2.04 3.06 0 0 Z " fill="#000000" transform="translate(241,344)"/>
<path d="M0 0 C0.99 0 1.98 0 3 0 C1.66511872 3.59391114 0.03977277 6.75490696 -2 10 C-2.99 9.67 -3.98 9.34 -5 9 C-3.35 6.03 -1.7 3.06 0 0 Z " fill="#000000" transform="translate(679,341)"/>
<path d="M0 0 C0.66 0.33 1.32 0.66 2 1 C0.7508258 4.45925163 -0.67527795 7.14693203 -3 10 C-3.99 9.67 -4.98 9.34 -6 9 C-2.25 2.25 -2.25 2.25 0 0 Z " fill="#000000" transform="translate(252,328)"/>
<path d="M0 0 C0.66 0 1.32 0 2 0 C2.33 0.99 2.66 1.98 3 3 C1.90716423 4.03295436 0.80029421 5.05107835 -0.3125 6.0625 C-0.92738281 6.63097656 -1.54226562 7.19945312 -2.17578125 7.78515625 C-2.77777344 8.18605469 -3.37976563 8.58695312 -4 9 C-4.99 8.67 -5.98 8.34 -7 8 C-6.02133662 6.85373678 -5.04205413 5.70800212 -4.0625 4.5625 C-3.51722656 3.92441406 -2.97195312 3.28632813 -2.41015625 2.62890625 C-1.63204305 1.73008851 -0.84063472 0.84063472 0 0 Z " fill="#000000" transform="translate(159,329)"/>
<path d="M0 0 C0.99 0 1.98 0 3 0 C1.66511872 3.59391114 0.03977277 6.75490696 -2 10 C-2.99 9.67 -3.98 9.34 -5 9 C-3.35 6.03 -1.7 3.06 0 0 Z " fill="#000000" transform="translate(701,307)"/>
<path d="M0 0 C0.99 0.33 1.98 0.66 3 1 C1.76067171 4.43198603 0.49698489 7.30325632 -2 10 C-2.99 10 -3.98 10 -5 10 C-3.66511872 6.40608886 -2.03977277 3.24509304 0 0 Z " fill="#000000" transform="translate(296,263)"/>
<path d="M0 0 C0.99 0.33 1.98 0.66 3 1 C1.02 3.97 -0.96 6.94 -3 10 C-3.66 9.67 -4.32 9.34 -5 9 C-3.7508258 5.54074837 -2.32472205 2.85306797 0 0 Z " fill="#000000" transform="translate(735,256)"/>
<path d="M0 0 C0.66 0.33 1.32 0.66 2 1 C0.7508258 4.45925163 -0.67527795 7.14693203 -3 10 C-3.99 9.67 -4.98 9.34 -6 9 C-2.25 2.25 -2.25 2.25 0 0 Z " fill="#000000" transform="translate(308,247)"/>
<path d="M0 0 C0.66 0.33 1.32 0.66 2 1 C0.7508258 4.45925163 -0.67527795 7.14693203 -3 10 C-3.99 9.67 -4.98 9.34 -6 9 C-4.02 6.03 -2.04 3.06 0 0 Z " fill="#000000" transform="translate(319,231)"/>
<path d="M0 0 C0.99 0.33 1.98 0.66 3 1 C-0.625 7.75 -0.625 7.75 -4 10 C-4 5.28093812 -2.71245796 3.72962969 0 0 Z " fill="#000000" transform="translate(330,215)"/>
<path d="M0 0 C0.66 0.33 1.32 0.66 2 1 C0.7508258 4.45925163 -0.67527795 7.14693203 -3 10 C-3.99 9.67 -4.98 9.34 -6 9 C-2.25 2.25 -2.25 2.25 0 0 Z " fill="#000000" transform="translate(353,183)"/>
<path d="M0 0 C0.99 0.33 1.98 0.66 3 1 C-0.625 7.75 -0.625 7.75 -4 10 C-4.33 9.01 -4.66 8.02 -5 7 C-4.00390625 5.17578125 -4.00390625 5.17578125 -2.5625 3.3125 C-2.08941406 2.68988281 -1.61632812 2.06726563 -1.12890625 1.42578125 C-0.75636719 0.95527344 -0.38382812 0.48476562 0 0 Z " fill="#000000" transform="translate(364,167)"/>
<path d="M0 0 C0.66 0.33 1.32 0.66 2 1 C0.4169423 5.2742558 -2.50568404 7.26531794 -6 10 C-6 6 -6 6 -4.6875 4.296875 C-4.130625 3.78640625 -3.57375 3.2759375 -3 2.75 C-2.1646875 1.96882812 -2.1646875 1.96882812 -1.3125 1.171875 C-0.879375 0.78515625 -0.44625 0.3984375 0 0 Z " fill="#000000" transform="translate(790,142)"/>
<path d="M0 0 C0.66 0.33 1.32 0.66 2 1 C0.55873214 4.36295835 -1.20592655 6.62927102 -4 9 C-4.99 9 -5.98 9 -7 9 C-7 6 -7 6 -5.46875 4.39453125 C-4.49421875 3.61142578 -4.49421875 3.61142578 -3.5 2.8125 C-2.8503125 2.28269531 -2.200625 1.75289062 -1.53125 1.20703125 C-1.0259375 0.80871094 -0.520625 0.41039062 0 0 Z " fill="#000000" transform="translate(359,137)"/>
<path d="M0 0 C0.66 0 1.32 0 2 0 C1.58578031 4.83256305 -0.46413986 6.82679218 -4 10 C-4.66 9.34 -5.32 8.68 -6 8 C-5.04956626 6.66102417 -4.08940853 5.32894573 -3.125 4 C-2.59132813 3.2575 -2.05765625 2.515 -1.5078125 1.75 C-1.01023437 1.1725 -0.51265625 0.595 0 0 Z " fill="#000000" transform="translate(387,135)"/>
<path d="M0 0 C-0.33589994 3.13506611 -1.02665172 4.025249 -3.375 6.25 C-6 8 -6 8 -9 8 C-7.13554727 3.64961029 -5.02378599 0 0 0 Z " fill="#000000" transform="translate(375,124)"/>
<path d="M0 0 C0.99 0.33 1.98 0.66 3 1 C-0.625 7.75 -0.625 7.75 -4 10 C-4.33 9.01 -4.66 8.02 -5 7 C-4.00390625 5.17578125 -4.00390625 5.17578125 -2.5625 3.3125 C-2.08941406 2.68988281 -1.61632812 2.06726563 -1.12890625 1.42578125 C-0.75636719 0.95527344 -0.38382812 0.48476562 0 0 Z " fill="#000000" transform="translate(398,119)"/>
<path d="M0 0 C0.99 0.33 1.98 0.66 3 1 C2.09827532 2.17825358 1.17798498 3.34231577 0.25 4.5 C-0.51570313 5.47453125 -0.51570313 5.47453125 -1.296875 6.46875 C-3 8 -3 8 -7 8 C-6.02133662 6.85373678 -5.04205413 5.70800212 -4.0625 4.5625 C-3.51722656 3.92441406 -2.97195313 3.28632812 -2.41015625 2.62890625 C-1.63204305 1.73008851 -0.84063472 0.84063472 0 0 Z " fill="#000000" transform="translate(387,110)"/>
<path d="M0 0 C0.99 0 1.98 0 3 0 C2.38545304 3.99455527 0.29353263 6.74466336 -2 10 C-2.99 9.67 -3.98 9.34 -5 9 C-3.49901406 5.88256767 -1.97568178 2.84498177 0 0 Z " fill="#000000" transform="translate(409,103)"/>
<path d="M0 0 C5 2 5 2 10 4 C9.01 5.485 9.01 5.485 8 7 C3.545 5.02 3.545 5.02 -1 3 C-0.67 2.01 -0.34 1.02 0 0 Z " fill="#000000" transform="translate(154,661)"/>
<path d="M0 0 C3.3 0 6.6 0 10 0 C10 0.99 10 1.98 10 3 C6.7 3 3.4 3 0 3 C0 2.01 0 1.02 0 0 Z " fill="#000000" transform="translate(621,655)"/>
<path d="M0 0 C0.66 0.33 1.32 0.66 2 1 C0.55873214 4.36295835 -1.20592655 6.62927102 -4 9 C-4.99 9 -5.98 9 -7 9 C-5.44499019 5.18315774 -2.96404505 2.80804268 0 0 Z " fill="#000000" transform="translate(904,461)"/>
<path d="M0 0 C0.99 0 1.98 0 3 0 C1.66511872 3.59391114 0.03977277 6.75490696 -2 10 C-2.66 9.67 -3.32 9.34 -4 9 C-3.3543999 5.51375944 -2.07639763 2.87501211 0 0 Z " fill="#000000" transform="translate(176,444)"/>
<path d="M0 0 C0.99 0 1.98 0 3 0 C2.38545304 3.99455527 0.29353263 6.74466336 -2 10 C-2.66 9.67 -3.32 9.34 -4 9 C-2.80100302 5.9168649 -1.52299523 2.93720508 0 0 Z " fill="#000000" transform="translate(186,427)"/>
<path d="M0 0 C0.66 0.33 1.32 0.66 2 1 C0.55873214 4.36295835 -1.20592655 6.62927102 -4 9 C-4.99 9 -5.98 9 -7 9 C-5.44499019 5.18315774 -2.96404505 2.80804268 0 0 Z " fill="#000000" transform="translate(537,405)"/>
<path d="M0 0 C0.99 0 1.98 0 3 0 C2.38545304 3.99455527 0.29353263 6.74466336 -2 10 C-2.66 9.67 -3.32 9.34 -4 9 C-2.94124926 5.59687262 -1.99097846 2.98646769 0 0 Z " fill="#000000" transform="translate(207,394)"/>
<path d="M0 0 C-1.5830577 4.2742558 -4.50568404 6.26531794 -8 9 C-8 5 -8 5 -5.6875 2.25 C-3 0 -3 0 0 0 Z " fill="#000000" transform="translate(133,357)"/>
<path d="M0 0 C0.66 0 1.32 0 2 0 C1.52797514 4.24822374 -0.96655518 6.19989709 -4 9 C-4.99 8.67 -5.98 8.34 -7 8 C-6.02133662 6.85373678 -5.04205413 5.70800212 -4.0625 4.5625 C-3.51722656 3.92441406 -2.97195313 3.28632813 -2.41015625 2.62890625 C-1.63204305 1.73008851 -0.84063472 0.84063472 0 0 Z " fill="#000000" transform="translate(635,303)"/>
<path d="M0 0 C0.99 0.33 1.98 0.66 3 1 C2.24266726 2.3410477 1.46867264 3.67269781 0.6875 5 C0.25824219 5.7425 -0.17101562 6.485 -0.61328125 7.25 C-1.07089844 7.8275 -1.52851563 8.405 -2 9 C-2.99 9 -3.98 9 -5 9 C-4.42647107 5.12867972 -2.51295648 2.91827204 0 0 Z " fill="#000000" transform="translate(285,280)"/>
<path d="M0 0 C0.66 0 1.32 0 2 0 C1.52797514 4.24822374 -0.96655518 6.19989709 -4 9 C-4.99 8.67 -5.98 8.34 -7 8 C-6.02133662 6.85373678 -5.04205413 5.70800212 -4.0625 4.5625 C-3.51722656 3.92441406 -2.97195313 3.28632813 -2.41015625 2.62890625 C-1.63204305 1.73008851 -0.84063472 0.84063472 0 0 Z " fill="#000000" transform="translate(663,274)"/>
<path d="M0 0 C0.99 0.33 1.98 0.66 3 1 C2.07038578 2.15224028 1.1309875 3.29659176 0.1875 4.4375 C-0.59560547 5.39462891 -0.59560547 5.39462891 -1.39453125 6.37109375 C-3 8 -3 8 -6 9 C-5.52797514 4.75177626 -3.03344482 2.80010291 0 0 Z " fill="#000000" transform="translate(705,230)"/>
<path d="M0 0 C0.99 0.33 1.98 0.66 3 1 C2.07038578 2.15224028 1.1309875 3.29659176 0.1875 4.4375 C-0.59560547 5.39462891 -0.59560547 5.39462891 -1.39453125 6.37109375 C-3 8 -3 8 -6 9 C-5.52797514 4.75177626 -3.03344482 2.80010291 0 0 Z " fill="#000000" transform="translate(733,201)"/>
<path d="M0 0 C0.99 0.33 1.98 0.66 3 1 C3 1.66 3 2.32 3 3 C1.25 4.5078125 1.25 4.5078125 -1 6.125 C-1.7425 6.66382813 -2.485 7.20265625 -3.25 7.7578125 C-3.8275 8.16773438 -4.405 8.57765625 -5 9 C-5 5 -5 5 -2.5 2.25 C-1.675 1.5075 -0.85 0.765 0 0 Z " fill="#000000" transform="translate(344,151)"/>
<path d="M0 0 C-1.5830577 4.2742558 -4.50568404 6.26531794 -8 9 C-8 5 -8 5 -5.6875 2.25 C-3 0 -3 0 0 0 Z " fill="#000000" transform="translate(834,99)"/>
<path d="M0 0 C0.99 0.33 1.98 0.66 3 1 C2.24266726 2.3410477 1.46867264 3.67269781 0.6875 5 C0.25824219 5.7425 -0.17101562 6.485 -0.61328125 7.25 C-1.07089844 7.8275 -1.52851563 8.405 -2 9 C-2.99 9 -3.98 9 -5 9 C-4.42647107 5.12867972 -2.51295648 2.91827204 0 0 Z " fill="#000000" transform="translate(421,87)"/>
<path d="M0 0 C0.66 0.33 1.32 0.66 2 1 C0.55873214 4.36295835 -1.20592655 6.62927102 -4 9 C-4.99 9 -5.98 9 -7 9 C-5.44499019 5.18315774 -2.96404505 2.80804268 0 0 Z " fill="#000000" transform="translate(416,82)"/>
<path d="M0 0 C0.99 0 1.98 0 3 0 C2.34 3.3 1.68 6.6 1 10 C0.01 10 -0.98 10 -2 10 C-1.34 6.7 -0.68 3.4 0 0 Z " fill="#000000" transform="translate(131,552)"/>
<path d="M0 0 C0.66 0.33 1.32 0.66 2 1 C0.55746343 4.36591866 -1.33264727 6.51047079 -4 9 C-4.99 8.67 -5.98 8.34 -7 8 C-6.02133662 6.85373678 -5.04205413 5.70800212 -4.0625 4.5625 C-3.51722656 3.92441406 -2.97195313 3.28632813 -2.41015625 2.62890625 C-1.63204305 1.73008851 -0.84063472 0.84063472 0 0 Z " fill="#000000" transform="translate(480,463)"/>
<path d="M0 0 C0.99 0.33 1.98 0.66 3 1 C2.07347299 2.17539996 1.13336613 3.34010577 0.1875 4.5 C-0.33457031 5.1496875 -0.85664062 5.799375 -1.39453125 6.46875 C-3 8 -3 8 -6 8 C-4.55746343 4.63408134 -2.66735273 2.48952921 0 0 Z " fill="#000000" transform="translate(918,448)"/>
<path d="M0 0 C0.99 0 1.98 0 3 0 C1.6302836 3.99500618 -0.25722422 6.80009492 -3 10 C-3.66 9.34 -4.32 8.68 -5 8 C-4.24266726 6.6589523 -3.46867264 5.32730219 -2.6875 4 C-2.25824219 3.2575 -1.82898438 2.515 -1.38671875 1.75 C-0.70029297 0.88375 -0.70029297 0.88375 0 0 Z " fill="#000000" transform="translate(229,361)"/>
<path d="M0 0 C0.66 0.33 1.32 0.66 2 1 C0.55746343 4.36591866 -1.33264727 6.51047079 -4 9 C-4.99 8.67 -5.98 8.34 -7 8 C-6.02133662 6.85373678 -5.04205413 5.70800212 -4.0625 4.5625 C-3.51722656 3.92441406 -2.97195313 3.28632813 -2.41015625 2.62890625 C-1.63204305 1.73008851 -0.84063472 0.84063472 0 0 Z " fill="#000000" transform="translate(607,332)"/>
<path d="M0 0 C0.99 0.33 1.98 0.66 3 1 C2.07347299 2.17539996 1.13336613 3.34010577 0.1875 4.5 C-0.33457031 5.1496875 -0.85664063 5.799375 -1.39453125 6.46875 C-3 8 -3 8 -6 8 C-6 7.01 -6 6.02 -6 5 C-3.1875 2.25 -3.1875 2.25 0 0 Z " fill="#000000" transform="translate(173,316)"/>
<path d="M0 0 C0.66 0.33 1.32 0.66 2 1 C0.55746343 4.36591866 -1.33264727 6.51047079 -4 9 C-4.99 8.67 -5.98 8.34 -7 8 C-6.02133662 6.85373678 -5.04205413 5.70800212 -4.0625 4.5625 C-3.51722656 3.92441406 -2.97195312 3.28632813 -2.41015625 2.62890625 C-1.63204305 1.73008851 -0.84063472 0.84063472 0 0 Z " fill="#000000" transform="translate(202,288)"/>
<path d="M0 0 C0.99 0 1.98 0 3 0 C2.38545304 3.99455527 0.29353263 6.74466336 -2 10 C-2.66 9.67 -3.32 9.34 -4 9 C-2.80100302 5.9168649 -1.52299523 2.93720508 0 0 Z " fill="#000000" transform="translate(723,273)"/>
<path d="M0 0 C0.99 0.33 1.98 0.66 3 1 C2.07347299 2.17539996 1.13336613 3.34010577 0.1875 4.5 C-0.33457031 5.1496875 -0.85664063 5.799375 -1.39453125 6.46875 C-3 8 -3 8 -6 8 C-4.55746343 4.63408134 -2.66735273 2.48952921 0 0 Z " fill="#000000" transform="translate(230,261)"/>
<path d="M0 0 C0.66 0.33 1.32 0.66 2 1 C0.55746343 4.36591866 -1.33264727 6.51047079 -4 9 C-4.99 8.67 -5.98 8.34 -7 8 C-6.02133662 6.85373678 -5.04205413 5.70800212 -4.0625 4.5625 C-3.51722656 3.92441406 -2.97195313 3.28632813 -2.41015625 2.62890625 C-1.63204305 1.73008851 -0.84063472 0.84063472 0 0 Z " fill="#000000" transform="translate(259,233)"/>
<path d="M0 0 C0.99 0.33 1.98 0.66 3 1 C2.07347299 2.17539996 1.13336613 3.34010577 0.1875 4.5 C-0.33457031 5.1496875 -0.85664063 5.799375 -1.39453125 6.46875 C-3 8 -3 8 -6 8 C-4.55746343 4.63408134 -2.66735273 2.48952921 0 0 Z " fill="#000000" transform="translate(287,206)"/>
<path d="M0 0 C0.66 0.33 1.32 0.66 2 1 C0.55746343 4.36591866 -1.33264727 6.51047079 -4 9 C-4.99 8.67 -5.98 8.34 -7 8 C-6.02133662 6.85373678 -5.04205413 5.70800212 -4.0625 4.5625 C-3.51722656 3.92441406 -2.97195313 3.28632813 -2.41015625 2.62890625 C-1.63204305 1.73008851 -0.84063472 0.84063472 0 0 Z " fill="#000000" transform="translate(316,178)"/>
<path d="M0 0 C0.99 0.33 1.98 0.66 3 1 C2.07347299 2.17539996 1.13336613 3.34010577 0.1875 4.5 C-0.33457031 5.1496875 -0.85664062 5.799375 -1.39453125 6.46875 C-3 8 -3 8 -6 8 C-4.55746343 4.63408134 -2.66735273 2.48952921 0 0 Z " fill="#000000" transform="translate(761,172)"/>
<path d="M0 0 C0.33 3.63 0.66 7.26 1 11 C0.01 10.67 -0.98 10.34 -2 10 C-2.33 7.03 -2.66 4.06 -3 1 C-1 0 -1 0 0 0 Z " fill="#000000" transform="translate(561,591)"/>
<path d="M0 0 C0.66 0 1.32 0 2 0 C1.54177532 3.46941546 1.10868317 6.67395049 0 10 C-0.99 10 -1.98 10 -3 10 C-2.69201674 8.51988629 -2.378482 7.04092675 -2.0625 5.5625 C-1.88847656 4.73878906 -1.71445313 3.91507813 -1.53515625 3.06640625 C-1 1 -1 1 0 0 Z " fill="#000000" transform="translate(137,533)"/>
<path d="M0 0 C0.99 0 1.98 0 3 0 C2.34 3.63 1.68 7.26 1 11 C0.01 10.67 -0.98 10.34 -2 10 C-1.34 6.7 -0.68 3.4 0 0 Z " fill="#000000" transform="translate(142,514)"/>
<path d="M0 0 C0.66 0 1.32 0 2 0 C1.43697042 3.94120709 0.3208055 6.7508723 -2 10 C-2.66 10 -3.32 10 -4 10 C-3.43697042 6.05879291 -2.3208055 3.2491277 0 0 Z " fill="#000000" transform="translate(157,478)"/>
<path d="M0 0 C0.66 0 1.32 0 2 0 C2.33 3.63 2.66 7.26 3 11 C2.01 11 1.02 11 0 11 C0 7.37 0 3.74 0 0 Z " fill="#000000" transform="translate(126,590)"/>
<path d="M0 0 C0.99 0.99 1.98 1.98 3 3 C2.01 3.99 1.02 4.98 0 6 C-0.99 5.67 -1.98 5.34 -3 5 C-1.125 1.125 -1.125 1.125 0 0 Z " fill="#000000" transform="translate(870,58)"/>
<path d="M0 0 C0.66 0.33 1.32 0.66 2 1 C1.34 2.65 0.68 4.3 0 6 C-1.32 5.67 -2.64 5.34 -4 5 C-2.68 3.35 -1.36 1.7 0 0 Z " fill="#000000" transform="translate(441,58)"/>
<path d="M0 0 C0.66 0.33 1.32 0.66 2 1 C1.34 2.32 0.68 3.64 0 5 C-1.32 5 -2.64 5 -4 5 C-2.68 3.35 -1.36 1.7 0 0 Z " fill="#000000" transform="translate(1018,356)"/>
<path d="M0 0 C0.99 0.33 1.98 0.66 3 1 C2.67 1.99 2.34 2.98 2 4 C1.01 3.01 0.02 2.02 -1 1 C-0.67 0.67 -0.34 0.34 0 0 Z " fill="#000000" transform="translate(702,484)"/>
<path d="M0 0 C0.99 0.33 1.98 0.66 3 1 C2.67 1.99 2.34 2.98 2 4 C1.01 3.01 0.02 2.02 -1 1 C-0.67 0.67 -0.34 0.34 0 0 Z " fill="#000000" transform="translate(293,479)"/>
<path d="M0 0 C0.99 0.33 1.98 0.66 3 1 C2.67 1.99 2.34 2.98 2 4 C1.01 3.01 0.02 2.02 -1 1 C-0.67 0.67 -0.34 0.34 0 0 Z " fill="#000000" transform="translate(149,179)"/>
</svg>
