<?xml version="1.0" encoding="UTF-8"?>
<svg version="1.1" xmlns="http://www.w3.org/2000/svg" width="715" height="730">
<path d="M0 0 C0.33 0.99 0.66 1.98 1 3 C0.03513672 3.01458252 -0.92972656 3.02916504 -1.92382812 3.04418945 C-64.28472697 4.05905967 -122.7688631 17.47354977 -168.16796875 63.12890625 C-179.91938807 75.32832138 -189.22144025 88.99124831 -197 104 C-197.31952637 104.60779297 -197.63905273 105.21558594 -197.96826172 105.84179688 C-216.84961737 142.20296479 -218.8499514 186.08379633 -206.71875 224.84765625 C-198.31375233 250.49355063 -185.53285699 274.0232365 -167.97265625 294.5703125 C-165.77348079 297.2789999 -163.89624247 300.07291431 -162 303 C-162.85380249 303.84594727 -162.85380249 303.84594727 -163.72485352 304.70898438 C-166.34011844 307.30326769 -168.95132619 309.90159923 -171.5625 312.5 C-172.45775391 313.386875 -173.35300781 314.27375 -174.27539062 315.1875 C-178.82203924 319.71749423 -183.23380913 324.29041732 -187.41088867 329.16357422 C-189.97719328 332.12927452 -192.68456862 334.95988533 -195.375 337.8125 C-199.98925183 342.74901286 -204.41728613 347.77160766 -208.640625 353.05078125 C-210.40314295 355.25392869 -212.18251758 357.43494631 -213.984375 359.60546875 C-247.52115135 400.12843747 -276.90674739 448.25351263 -285 501 C-285.1743457 502.08982178 -285.34869141 503.17964355 -285.52832031 504.30249023 C-286.3544128 510.77825145 -286.24468625 517.29342984 -286.25 523.8125 C-286.25067474 524.5526535 -286.25134949 525.29280701 -286.25204468 526.0553894 C-286.19833144 563.11501559 -272.47395461 598.55915578 -247.0703125 625.77734375 C-245.20374044 627.78126734 -243.44383926 629.83752915 -241.6875 631.9375 C-224.14205883 651.98367072 -200.33828035 666.68852183 -177 679 C-176.35417969 679.34482422 -175.70835937 679.68964844 -175.04296875 680.04492188 C-129.36150563 704.30433241 -72.14171357 721.90762367 -20 720 C-20.66 719.34 -21.32 718.68 -22 718 C-22 717.01 -22 716.02 -22 715 C-23.08490723 714.82984375 -24.16981445 714.6596875 -25.28759766 714.484375 C-69.17484787 707.54520109 -108.72083084 698.31965081 -145.03613281 671.45117188 C-146.43850027 670.41491228 -147.85043673 669.39155151 -149.26855469 668.37695312 C-150.00235352 667.84521484 -150.73615234 667.31347656 -151.4921875 666.765625 C-152.16362793 666.28383789 -152.83506836 665.80205078 -153.52685547 665.30566406 C-154.01299316 664.87479492 -154.49913086 664.44392578 -155 664 C-155 663.34 -155 662.68 -155 662 C-155.54527344 661.77183594 -156.09054688 661.54367187 -156.65234375 661.30859375 C-159.67399631 659.62431154 -162.05633641 657.41358022 -164.5625 655.0625 C-165.08626221 654.57523438 -165.61002441 654.08796875 -166.1496582 653.5859375 C-167.77442144 652.06548548 -169.38925483 650.53528773 -171 649 C-171.49016602 648.53319824 -171.98033203 648.06639648 -172.48535156 647.58544922 C-209.92635863 611.66716254 -230.88435197 563.14991878 -232.45556641 511.36499023 C-233.08805519 463.46612826 -215.7964884 410.75375198 -181.98046875 375.98046875 C-180.98955881 374.98440621 -179.99611872 373.99085347 -179 373 C-177.60201172 371.60201172 -177.60201172 371.60201172 -176.17578125 370.17578125 C-163.98173184 358.51407779 -149.70066121 349.19743149 -135 341 C-134.17822266 340.54125488 -133.35644531 340.08250977 -132.50976562 339.60986328 C-116.96069211 331.02276569 -100.87162195 323.62387398 -84 318 C-85.52367187 317.27296875 -85.52367187 317.27296875 -87.078125 316.53125 C-118.03345811 301.55603149 -142.09885423 277.66236366 -156 246 C-156.52980469 244.8140625 -157.05960938 243.628125 -157.60546875 242.40625 C-173.24629081 205.4151027 -173.95176879 168.29611799 -159.24511719 130.96289062 C-153.23538884 116.66209391 -145.65822359 103.14133154 -136 91 C-135.37689941 90.20988525 -135.37689941 90.20988525 -134.74121094 89.40380859 C-131.62384905 85.48154435 -128.34920989 81.72491225 -125 78 C-124.21858643 77.10861328 -124.21858643 77.10861328 -123.42138672 76.19921875 C-113.59975637 65.11451566 -102.47394581 57.80978022 -89.65576172 50.51904297 C-86.69367901 48.82479048 -83.77662077 47.06667024 -80.86547852 45.28686523 C-78.50780189 43.84927311 -76.13213241 42.44329891 -73.75390625 41.04003906 C-72.5681326 40.33689378 -71.38590903 39.62773243 -70.20703125 38.91308594 C-31.23875786 15.3368651 13.87575388 5.15039506 59 4 C59.72106934 3.97808594 60.44213867 3.95617187 61.18505859 3.93359375 C116.59396769 2.41588795 171.19103668 20.09236791 212.44042969 58.33544922 C219.56079609 65.08767851 225.96251085 72.25718497 232 80 C232.8667499 81.08758847 233.7339545 82.17481469 234.6015625 83.26171875 C250.6557556 103.52254672 250.38843588 123.28175054 247.62109375 148.16015625 C246.38788529 158.23038454 244.32513191 165.94280263 238 174 C237.41089844 174.79921875 236.82179688 175.5984375 236.21484375 176.421875 C233.57675168 179.49267 230.70031517 181.85386051 227.5 184.3125 C226.88705078 184.78743896 226.27410156 185.26237793 225.64257812 185.75170898 C200.98036989 204.66512848 178.69551333 201.57221627 149 198 C144.3267097 197.37937072 139.66226338 196.69830863 135 196 C134.76216797 194.22109375 134.76216797 194.22109375 134.51953125 192.40625 C130.29209618 162.3961408 117.71339053 136.10302872 94.61328125 115.9140625 C78.67233928 103.95158992 57.92016651 96.77583286 38 99 C28.95061727 100.65334668 22.12151425 104.282728 15 110 C14.17628906 110.62261719 13.35257812 111.24523437 12.50390625 111.88671875 C1.6229712 121.07016003 -4.59109737 134.78732822 -10.69921875 147.32958984 C-11.49037009 148.95376653 -12.29225589 150.57284717 -13.11328125 152.18212891 C-18.25810442 162.31548331 -18.69487435 171.15336508 -18.13085938 182.23339844 C-17.99201468 185.16882396 -17.92122782 188.10105351 -17.859375 191.0390625 C-17.80407903 193.06776371 -17.74682599 195.09641264 -17.6875 197.125 C-17.66550537 198.06021484 -17.64351074 198.99542969 -17.62084961 199.95898438 C-16.92713748 217.35300124 -7.65379611 230.71562345 4.57714844 242.52246094 C8.23417616 245.87640775 12.06281562 248.98257263 16 252 C16.97839844 252.75410156 17.95679688 253.50820312 18.96484375 254.28515625 C36.28257083 266.72137637 57.84531373 268.39679768 78.5 268.5625 C93.95591758 268.72192236 109.18081126 269.412002 124.25 273.1875 C125.11423584 273.39963135 125.97847168 273.6117627 126.86889648 273.83032227 C149.2907687 279.51015218 174.06042472 286.758953 186.69140625 307.8203125 C192.64968862 319.04772652 194.80712358 330.05301861 191.28125 342.546875 C184.23980071 360.15049823 164.23275453 369.60141873 148 377 C116.31465721 390.30590857 81.29559599 381.95164319 49.453125 373.68359375 C48.37949707 373.4095874 47.30586914 373.13558105 46.19970703 372.85327148 C44.0423519 372.27796581 41.89687187 371.65640681 39.76513672 370.99243164 C33.37394354 368.93901934 33.37394354 368.93901934 27.0390625 370.25390625 C25.87396959 370.98179929 24.73552752 371.75379834 23.625 372.5625 C22.69373291 373.1802832 22.69373291 373.1802832 21.74365234 373.81054688 C14.69199349 378.62457441 8.26773165 384.22145716 2 390 C1.20207031 390.71542969 0.40414063 391.43085938 -0.41796875 392.16796875 C-12.08370425 403.15373424 -21.3569275 416.99012448 -29 431 C-29.34901367 431.63760254 -29.69802734 432.27520508 -30.05761719 432.93212891 C-38.51107249 448.58855143 -43.29486263 464.49140245 -47.25 481.75 C-47.42289551 482.50294342 -47.59579102 483.25588684 -47.77392578 484.03164673 C-53.91899141 510.99297544 -57.60571358 538.29072251 -44.1171875 563.67578125 C-40.42515333 569.47268361 -35.90449345 574.21722391 -31 579 C-30.35417969 579.65484375 -29.70835937 580.3096875 -29.04296875 580.984375 C-6.37222227 602.51911457 26.85113348 608.9200892 56.87890625 608.3828125 C69.78386416 608.02822431 82.37098159 605.51362694 95 603 C97.26534525 602.57532789 99.53096239 602.1521031 101.796875 601.73046875 C111.98290154 599.78476255 121.719524 597.7975342 131 593 C132.74023438 592.13761719 132.74023438 592.13761719 134.515625 591.2578125 C156.75594201 579.99890494 177.08203435 564.10441145 195.41577148 547.34936523 C196.98058086 545.92677094 198.5532348 544.51265353 200.14013672 543.11474609 C207.38847539 536.71503993 214.24251245 529.94363567 221.07739258 523.10791016 C223.05726174 521.13023246 225.04501688 519.16071808 227.03320312 517.19140625 C234.14944905 510.10716568 240.86993863 502.9694844 247 495 C247.54390381 494.29939453 248.08780762 493.59878906 248.64819336 492.87695312 C250.09505885 490.9925758 251.52071032 489.09456364 252.9375 487.1875 C253.44490723 486.50792236 253.95231445 485.82834473 254.47509766 485.12817383 C258.07010368 480.29601315 261.59137647 475.41489684 265.07006836 470.49853516 C268.05076919 466.29596508 271.10299303 462.15091409 274.17724609 458.01635742 C280.73528401 449.18768891 287.12655036 440.30121773 293 431 C293.42796875 430.32227539 293.8559375 429.64455078 294.296875 428.94628906 C298.94954821 421.49859084 303.13916023 414.18900459 306.1875 405.9375 C309.77256657 396.46770232 314.95405235 390.58196914 324 386 C331.64171235 383.45276255 340.34099094 384.26133698 347.59765625 387.61328125 C360.86334853 395.27071338 372.11857551 408.35572653 377 423 C378.15318421 432.92760013 378.08857145 442.84101521 377.75 452.8125 C377.72699829 453.52488831 377.70399658 454.23727661 377.68029785 454.97125244 C377.22762883 468.41477428 376.24247696 481.72205009 374 495 C373.86174805 495.82532227 373.72349609 496.65064453 373.58105469 497.50097656 C364.58592593 547.02494729 318.60194318 598.87504402 285 635 C284.18273437 635.89460937 283.36546875 636.78921875 282.5234375 637.7109375 C275.42311101 645.18827248 267.74866136 650.62964134 259 656 C258.06172363 656.58467041 258.06172363 656.58467041 257.10449219 657.18115234 C200.30798344 692.4043611 131.48118724 718.91766747 63.9921875 719.203125 C62.87908203 719.20991272 61.76597656 719.21670044 60.61914062 719.22369385 C57.03773157 719.24056966 53.45644619 719.24688565 49.875 719.25 C48.04633392 719.25350464 48.04633392 719.25350464 46.1807251 719.25708008 C27.25301989 719.27076133 8.60981018 718.5289242 -10.18408203 716.27539062 C-12.81217182 716.01836919 -15.36169722 715.94908857 -18 716 C-17.154375 716.7425 -16.30875 717.485 -15.4375 718.25 C-13 721 -13 721 -12.875 723 C-14.49980162 725.88853622 -16.49281902 727.85098773 -19 730 C-19.99 730 -20.98 730 -22 730 C-21.125 726.125 -21.125 726.125 -20 725 C-20.81227051 724.93530518 -21.62454102 724.87061035 -22.46142578 724.80395508 C-93.05600495 719.04062749 -167.22067612 699.99590358 -223 654 C-223.55993652 653.54157715 -224.11987305 653.0831543 -224.69677734 652.61083984 C-238.34973584 641.36968845 -250.56659204 629.30968161 -261 615 C-261.63566895 614.13882568 -261.63566895 614.13882568 -262.28417969 613.26025391 C-274.2028981 596.93041872 -282.22038222 578.59766161 -287 559 C-287.26466064 557.95755127 -287.26466064 557.95755127 -287.53466797 556.89404297 C-298.14219801 513.33904101 -284.21000115 466.31433035 -263.95751953 427.82958984 C-263.02517483 426.04810306 -262.11960048 424.2526863 -261.21484375 422.45703125 C-252.61337701 405.56435256 -242.01437665 389.71280572 -230.37744141 374.77441406 C-229.04305767 373.0554667 -227.72763031 371.32376733 -226.41796875 369.5859375 C-221.37438482 362.91405561 -216.10381896 356.48663652 -210.6640625 350.13671875 C-208.1540427 347.20052038 -205.73070985 344.19987481 -203.3125 341.1875 C-200.11831705 337.25882578 -196.78945732 333.62910728 -193.1171875 330.14453125 C-191.25694056 328.26025898 -189.54190559 326.3303133 -187.81640625 324.32421875 C-183.77434492 319.66755294 -179.4452665 315.33394391 -175.0625 311 C-174.28326172 310.22527344 -173.50402344 309.45054687 -172.70117188 308.65234375 C-170.8030758 306.76589243 -168.90266851 304.88183755 -167 303 C-170.03530417 298.93443235 -173.08554953 294.88310297 -176.19140625 290.87109375 C-197.1900653 263.45376603 -212.6263452 231.53153032 -217 197 C-217.11085938 196.19691406 -217.22171875 195.39382812 -217.3359375 194.56640625 C-222.26347219 151.88330171 -209.46021001 108.38282465 -183.015625 74.69140625 C-178.59801945 69.21204029 -173.8866267 64.06486233 -169 59 C-168.27554688 58.22398438 -167.55109375 57.44796875 -166.8046875 56.6484375 C-151.75938587 40.93692325 -132.68762543 28.98713373 -113 20 C-112.27087402 19.66371582 -111.54174805 19.32743164 -110.79052734 18.98095703 C-92.32143546 10.55569528 -73.00729473 5.29067348 -53 2 C-52.28328125 1.88140625 -51.5665625 1.7628125 -50.828125 1.640625 C-34.06534557 -0.96691847 -16.90923976 -0.19033693 0 0 Z M-113.1875 74.4375 C-114.12980469 75.30246094 -115.07210937 76.16742188 -116.04296875 77.05859375 C-136.93952441 97.27855302 -150.46789874 122.46271952 -159.3125 149.875 C-159.55516602 150.62322021 -159.79783203 151.37144043 -160.04785156 152.14233398 C-170.4954703 185.80893566 -161.82921226 221.93878885 -146.37890625 252.62890625 C-142.88892411 259.23293765 -138.66417361 265.18144774 -134 271 C-133.54834473 271.56444824 -133.09668945 272.12889648 -132.63134766 272.71044922 C-117.80833939 291.04567395 -98.17808326 309.50175195 -74 314 C-72.68 314 -71.36 314 -70 314 C-70.33 315.98 -70.66 317.96 -71 320 C-71.59200195 320.1952124 -72.18400391 320.3904248 -72.79394531 320.59155273 C-86.93044048 325.28873692 -100.6068503 330.46977705 -114 337 C-114.98790527 337.48098145 -115.97581055 337.96196289 -116.99365234 338.45751953 C-136.5896392 348.09873289 -154.92698354 359.11245494 -171 374 C-171.57588867 374.53206055 -172.15177734 375.06412109 -172.74511719 375.61230469 C-181.35236074 383.66214445 -188.65693376 392.06788892 -195 402 C-195.41733398 402.64807617 -195.83466797 403.29615234 -196.26464844 403.96386719 C-211.11443784 427.31209776 -218.7114589 453.0448185 -224 480 C-224.24878906 481.18335938 -224.49757813 482.36671875 -224.75390625 483.5859375 C-232.02449345 523.95549158 -220.88668041 573.78314479 -197.56640625 607.6574707 C-192.63771317 614.63492071 -187.5297014 621.48571409 -182 628 C-181.08154297 629.08474609 -181.08154297 629.08474609 -180.14453125 630.19140625 C-168.33193287 643.69478274 -155.58839928 656.51736628 -141 667 C-140.38479492 667.44891602 -139.76958984 667.89783203 -139.13574219 668.36035156 C-96.44712213 699.35345928 -45.43691769 707.2418908 6 712 C7.55037964 712.1546875 7.55037964 712.1546875 9.13208008 712.3125 C20.70166627 713.32082126 32.32136008 713.2221127 43.92602539 713.24023438 C47.63386158 713.24986074 51.34112319 713.28092617 55.04882812 713.3125 C127.48779908 713.63370308 224.64723784 686.68171705 277.9375 634.375 C279.30778473 632.93180104 280.6633303 631.47438719 282 630 C282.56589844 629.37867188 283.13179687 628.75734375 283.71484375 628.1171875 C285.50635836 626.10226048 287.25412059 624.05460199 289 622 C289.79921875 621.07832031 290.5984375 620.15664063 291.421875 619.20703125 C298.41700544 611.09783764 304.95392901 602.67819753 311.39453125 594.12451172 C312.91904024 592.1071338 314.45714802 590.10102308 316 588.09765625 C353.3756137 539.326887 378.06769049 489.34170827 371.5625 426.625 C369.21737865 415.01418938 359.88159785 404.32731823 351 397 C348.09420867 395.0864301 345.15449012 393.46167107 342 392 C341.34 391.67 340.68 391.34 340 391 C333.21035062 390.26880699 327.65840936 390.32751694 321.9140625 394.22265625 C316.41481941 399.32909626 313.06466328 404.36232944 310.3125 411.3125 C300.98683034 433.37855307 285.85786603 452.71633903 271.47460938 471.69506836 C266.98287078 477.63467838 262.64082281 483.6608249 258.47021484 489.83081055 C248.63713795 504.09968125 236.20690733 516.11055453 223.97558594 528.28515625 C221.49150863 530.75780969 219.01656872 533.23938446 216.54417419 535.72371292 C214.60358288 537.67161226 212.65815355 539.6146243 210.71133423 541.5562973 C209.3624135 542.9032831 208.01743258 544.25421083 206.67260742 545.60528564 C200.751072 551.48261997 194.52551187 556.80663101 188 562 C186.76845154 563.01273552 185.53865962 564.02762163 184.3125 565.046875 C161.61081751 583.66750748 136.82992919 600.78011263 107.65478516 606.47607422 C104.7165665 607.05593602 101.78633787 607.66925225 98.85546875 608.28515625 C92.58295926 609.59256342 86.29905181 610.82723987 80 612 C79.26604004 612.13712402 78.53208008 612.27424805 77.77587891 612.41552734 C58.47585412 615.85278371 37.06264629 615.71069566 18 611 C17.34209473 610.83902832 16.68418945 610.67805664 16.00634766 610.51220703 C-1.23385441 606.10152865 -17.12235605 598.07745945 -31 587 C-31.91265625 586.28199219 -32.8253125 585.56398438 -33.765625 584.82421875 C-48.08886095 572.80763889 -56.57785539 555.41258604 -59 537 C-59.99651845 520.60196357 -58.34502365 505.03051023 -55 489 C-54.75330566 487.7944043 -54.50661133 486.58880859 -54.25244141 485.34667969 C-50.90964161 469.27907844 -47.05038046 453.8644702 -40 439 C-39.65211426 438.26539551 -39.30422852 437.53079102 -38.94580078 436.77392578 C-31.58894331 421.55179643 -22.03736137 407.78428187 -11 395 C-10.28328125 394.14921875 -9.5665625 393.2984375 -8.828125 392.421875 C0.02841827 382.18345973 10.72717817 374.36843302 22 367 C23.11375 366.24589844 23.11375 366.24589844 24.25 365.4765625 C27.83351391 363.32356422 30.18537006 362.76429228 34.2890625 363.67578125 C35.17198975 363.87099365 36.05491699 364.06620605 36.96459961 364.26733398 C41.68486729 365.40668276 46.39011943 366.60185505 51.09106445 367.81811523 C62.26962326 370.70864304 73.42527002 373.48057491 84.8125 375.4375 C85.69252686 375.58880371 86.57255371 375.74010742 87.47924805 375.89599609 C117.2055878 380.72420505 144.15930382 375.63777341 169.0625 358.375 C171.05380032 356.93327886 173.0345885 355.47681903 175 354 C176.09828125 353.19755859 176.09828125 353.19755859 177.21875 352.37890625 C182.33208275 348.38140671 184.8567603 343.71552903 186.75 337.5625 C188.03473397 324.39397683 184.44177435 313.96606252 176.1015625 303.65234375 C157.80619956 283.82669952 124.0481955 276.65199019 98 275 C95.18677937 274.91347664 92.37631332 274.84109242 89.5625 274.7890625 C88.40730614 274.76746063 88.40730614 274.76746063 87.22877502 274.74542236 C84.02480834 274.68850822 80.82098362 274.63408279 77.61669922 274.59863281 C62.74880453 274.4210143 47.77106777 273.2462925 33.625 268.3125 C32.8822583 268.05686279 32.1395166 267.80122559 31.37426758 267.5378418 C19.18524383 263.10679026 9.52583198 254.55710331 0 246 C-1.23943359 244.88818359 -1.23943359 244.88818359 -2.50390625 243.75390625 C-20.33628504 226.85191244 -23.169361 209.72891271 -23.89160156 186.13916016 C-23.9863374 183.39566147 -24.12163431 180.65873661 -24.2734375 177.91796875 C-24.75551401 167.0300095 -22.52773456 158.84351673 -18 149 C-17.35494469 147.53668924 -16.71042519 146.07314218 -16.06640625 144.609375 C-6.45779079 123.16932587 6.57466674 104.05541981 29 95 C49.2332078 88.43480483 68.99458803 95.43748678 87.1875 104.3671875 C109.95275178 116.25685969 126.43499094 140.64723805 134.8125 164.375 C137.52216708 173.09674091 139.27362621 182.04021647 141 191 C145.79583483 191.58328769 150.59311874 192.15208779 155.39208984 192.70898438 C157.01557771 192.89926929 158.63865126 193.09313201 160.26123047 193.29101562 C184.26963131 196.21196321 201.2494626 196.5048148 221.09765625 181.6875 C235.01214108 170.66309386 239.97861006 160.4962536 242.41015625 143.05859375 C244.42278765 123.1307082 244.67483317 106.13478762 232 90 C231.24847656 89.03707031 230.49695313 88.07414062 229.72265625 87.08203125 C224.71792894 80.84591233 219.46740369 74.83360052 214 69 C213.50983398 68.47583496 213.01966797 67.95166992 212.51464844 67.41162109 C205.5579745 60.03274605 198.81122706 54.12784526 190 49 C188.35107397 47.92859637 186.70240377 46.85674571 185.06079102 45.77416992 C157.18186548 27.44906135 128.47308823 14.00651576 95 11 C93.83726562 10.88785156 92.67453125 10.77570312 91.4765625 10.66015625 C20.7366186 4.85789119 -59.94614551 25.01483576 -113.1875 74.4375 Z " fill="#000000" transform="translate(337,0)"/>
<path d="M0 0 C6.517904 4.68956663 12.55343845 10.81246164 14 19 C14.7992898 30.25557271 13.99078008 38.31915226 6.75 47.25 C1.33164802 53.0878373 -4.3711544 56.67129269 -12.35546875 57.23828125 C-23.57071698 57.45549809 -30.8402179 55.69919895 -39.20703125 47.93359375 C-46.38318634 40.19460297 -47.48473506 33.10670258 -47.2734375 22.765625 C-46.64352117 14.09077723 -42.28194806 7.82507911 -36 2 C-25.82502277 -5.66451556 -10.93235165 -7.28107507 0 0 Z " fill="#000000" transform="translate(536,114)"/>
<path d="M0 0 C3.0625 0.1875 3.0625 0.1875 5.0625 2.1875 C4.90004442 5.92397845 4.47466356 7.71288742 2 10.5625 C1.360625 11.09875 0.72125 11.635 0.0625 12.1875 C1.7125 12.5175 3.3625 12.8475 5.0625 13.1875 C5.0625 13.8475 5.0625 14.5075 5.0625 15.1875 C1.7625 15.1875 -1.5375 15.1875 -4.9375 15.1875 C-2.9375 11.1875 -2.9375 11.1875 -0.8125 8.625 C1.36735538 6.30372611 1.36735538 6.30372611 1.0625 3.1875 C0.4025 3.1875 -0.2575 3.1875 -0.9375 3.1875 C-1.2675 3.8475 -1.5975 4.5075 -1.9375 5.1875 C-2.9275 5.1875 -3.9175 5.1875 -4.9375 5.1875 C-3.82120474 0.24390669 -3.82120474 0.24390669 0 0 Z " fill="#000000" transform="translate(19.9375,514.8125)"/>
<path d="M0 0 C0 4.95 0 9.9 0 15 C-0.99 15 -1.98 15 -3 15 C-3 11.37 -3 7.74 -3 4 C-3.99 4.33 -4.98 4.66 -6 5 C-5.625 3.0625 -5.625 3.0625 -5 1 C-3 0 -3 0 0 0 Z " fill="#000000" transform="translate(7,515)"/>
<path d="M0 0 C0 4.95 0 9.9 0 15 C-0.99 15 -1.98 15 -3 15 C-3 11.37 -3 7.74 -3 4 C-3.99 4.33 -4.98 4.66 -6 5 C-5.625 3.0625 -5.625 3.0625 -5 1 C-3 0 -3 0 0 0 Z " fill="#000000" transform="translate(87,169)"/>
<path d="M0 0 C1.79232337 0.30871122 3.58384321 0.62209064 5.375 0.9375 C6.87160156 1.19853516 6.87160156 1.19853516 8.3984375 1.46484375 C11 2 11 2 13 3 C12.67 3.99 12.34 4.98 12 6 C4.25 6.125 4.25 6.125 2 5 C2 4.34 2 3.68 2 3 C1.34 3 0.68 3 0 3 C0 2.01 0 1.02 0 0 Z " fill="#000000" transform="translate(443,320)"/>
<path d="M0 0 C0 4.95 0 9.9 0 15 C-0.66 15 -1.32 15 -2 15 C-2.33 11.37 -2.66 7.74 -3 4 C-3.99 4.33 -4.98 4.66 -6 5 C-6 4.01 -6 3.02 -6 2 C-3 0 -3 0 0 0 Z " fill="#000000" transform="translate(99,169)"/>
<path d="M0 0 C0.99 0.33 1.98 0.66 3 1 C1.26440562 4.057952 -0.38472619 6.63379989 -3 9 C-3.99 8.67 -4.98 8.34 -6 8 C-4.55746343 4.63408134 -2.66735273 2.48952921 0 0 Z " fill="#000000" transform="translate(577,586)"/>
<path d="M0 0 C3.63 0.66 7.26 1.32 11 2 C11 2.99 11 3.98 11 5 C9.56208484 4.85831863 8.1246763 4.71148957 6.6875 4.5625 C5.88699219 4.48128906 5.08648437 4.40007812 4.26171875 4.31640625 C2 4 2 4 -1 3 C-0.67 2.01 -0.34 1.02 0 0 Z " fill="#000000" transform="translate(423,316)"/>
<path d="M0 0 C-0.33 0.99 -0.66 1.98 -1 3 C-4.3 3.66 -7.6 4.32 -11 5 C-11 4.01 -11 3.02 -11 2 C-9.54494642 1.47007308 -8.08581873 0.9513211 -6.625 0.4375 C-5.81289063 0.14746094 -5.00078125 -0.14257812 -4.1640625 -0.44140625 C-2 -1 -2 -1 0 0 Z " fill="#000000" transform="translate(463,659)"/>
<path d="M0 0 C0 0.66 0 1.32 0 2 C-1.26839526 2.50615298 -2.53983102 3.00469099 -3.8125 3.5 C-4.87404297 3.91765625 -4.87404297 3.91765625 -5.95703125 4.34375 C-8 5 -8 5 -11 5 C-11 4.01 -11 3.02 -11 2 C-9.73392393 1.46770674 -8.46189588 0.94955456 -7.1875 0.4375 C-6.47980469 0.14746094 -5.77210938 -0.14257812 -5.04296875 -0.44140625 C-3 -1 -3 -1 0 0 Z " fill="#000000" transform="translate(482,653)"/>
<path d="M0 0 C0.515625 0.2475 1.03125 0.495 1.5625 0.75 C-1.45637244 4.23331435 -4.00659529 5.54157144 -8.4375 6.75 C-8.7675 5.76 -9.0975 4.77 -9.4375 3.75 C-3.0375 -0.31153846 -3.0375 -0.31153846 0 0 Z " fill="#000000" transform="translate(516.4375,635.25)"/>
<path d="M0 0 C3.11743233 1.50098594 6.15501823 3.02431822 9 5 C9 5.99 9 6.98 9 8 C5.00544473 7.38545304 2.25533664 5.29353263 -1 3 C-0.67 2.01 -0.34 1.02 0 0 Z " fill="#000000" transform="translate(244,626)"/>
<path d="M0 0 C0.66 0.33 1.32 0.66 2 1 C0.64978174 5.41889613 -1.26115668 7.34345343 -5 10 C-5.66 9.34 -6.32 8.68 -7 8 C-4.69 5.36 -2.38 2.72 0 0 Z " fill="#000000" transform="translate(591,571)"/>
<path d="M0 0 C0.99 0.33 1.98 0.66 3 1 C1.03681826 4.53372712 -1.04070881 7.24479785 -4 10 C-4.66 9.34 -5.32 8.68 -6 8 C-4.02 5.36 -2.04 2.72 0 0 Z " fill="#000000" transform="translate(603,556)"/>
<path d="M0 0 C0.66 0.33 1.32 0.66 2 1 C1.43454163 4.95820859 0.19097652 7.6659053 -2 11 C-2.99 10.67 -3.98 10.34 -5 10 C-3.35 6.7 -1.7 3.4 0 0 Z " fill="#000000" transform="translate(645,488)"/>
<path d="M0 0 C0.99 0.33 1.98 0.66 3 1 C1.84414715 4.91211733 0.64465038 7.8745041 -2 11 C-2.66 10.67 -3.32 10.34 -4 10 C-2.8905928 6.51329166 -1.73662334 3.22515763 0 0 Z " fill="#000000" transform="translate(213,427)"/>
<path d="M0 0 C0 0.99 0 1.98 0 3 C-1.28913487 3.67154933 -2.58140204 4.33708859 -3.875 5 C-4.59429687 5.37125 -5.31359375 5.7425 -6.0546875 6.125 C-8 7 -8 7 -10 7 C-9.875 5.1875 -9.875 5.1875 -9 3 C-5.79116175 1.04679411 -3.7794561 0 0 0 Z " fill="#000000" transform="translate(303,351)"/>
<path d="M0 0 C1.62580966 0.11398665 3.25067157 0.24155659 4.875 0.375 C5.77992188 0.44460938 6.68484375 0.51421875 7.6171875 0.5859375 C10 1 10 1 12 3 C11.34 3.66 10.68 4.32 10 5 C7.6171875 4.7578125 7.6171875 4.7578125 4.875 4.125 C3.96492188 3.92132813 3.05484375 3.71765625 2.1171875 3.5078125 C1.41851562 3.34023438 0.71984375 3.17265625 0 3 C0 2.01 0 1.02 0 0 Z " fill="#000000" transform="translate(381,308)"/>
<path d="M0 0 C3.36591866 1.44253657 5.51047079 3.33264727 8 6 C7.67 6.99 7.34 7.98 7 9 C4.36 7.02 1.72 5.04 -1 3 C-0.67 2.01 -0.34 1.02 0 0 Z " fill="#000000" transform="translate(271,263)"/>
<path d="M0 0 C3.63 0.33 7.26 0.66 11 1 C11 1.99 11 2.98 11 4 C7.37 3.67 3.74 3.34 0 3 C0 2.01 0 1.02 0 0 Z " fill="#000000" transform="translate(334,665)"/>
<path d="M0 0 C0 0.66 0 1.32 0 2 C-3.3 3.32 -6.6 4.64 -10 6 C-10.33 5.01 -10.66 4.02 -11 3 C-9.73581754 2.30034557 -8.46334598 1.61565237 -7.1875 0.9375 C-6.47980469 0.55464844 -5.77210938 0.17179688 -5.04296875 -0.22265625 C-3 -1 -3 -1 0 0 Z " fill="#000000" transform="translate(500,645)"/>
<path d="M0 0 C0.66 0.33 1.32 0.66 2 1 C0.55527654 4.80881639 -1.32603071 6.29742886 -5 8 C-5.99 7.67 -6.98 7.34 -8 7 C-8 6.34 -8 5.68 -8 5 C-6.3203125 3.67578125 -6.3203125 3.67578125 -4.125 2.3125 C-3.40570312 1.85488281 -2.68640625 1.39726563 -1.9453125 0.92578125 C-1.30335938 0.62027344 -0.66140625 0.31476562 0 0 Z " fill="#000000" transform="translate(532,624)"/>
<path d="M0 0 C0.66 0 1.32 0 2 0 C1.49701212 4.40114397 -0.08772731 6.71195019 -3 10 C-3.99 9.67 -4.98 9.34 -6 9 C-2.25 2.25 -2.25 2.25 0 0 Z " fill="#000000" transform="translate(615,540)"/>
<path d="M0 0 C0.99 0 1.98 0 3 0 C4.17571451 3.67410785 4.07366746 7.16929183 4 11 C3.01 11 2.02 11 1 11 C0.67 7.37 0.34 3.74 0 0 Z " fill="#000000" transform="translate(195,522)"/>
<path d="M0 0 C0.99 0 1.98 0 3 0 C1.8905928 3.48670834 0.73662334 6.77484237 -1 10 C-1.99 10 -2.98 10 -4 10 C-3.52449439 8.51965236 -3.04448784 7.04074979 -2.5625 5.5625 C-2.29566406 4.73878906 -2.02882813 3.91507812 -1.75390625 3.06640625 C-1 1 -1 1 0 0 Z " fill="#000000" transform="translate(653,471)"/>
<path d="M0 0 C0.66 0 1.32 0 2 0 C2.33 0.99 2.66 1.98 3 3 C1.90716423 4.03295436 0.80029421 5.05107835 -0.3125 6.0625 C-0.92738281 6.63097656 -1.54226562 7.19945312 -2.17578125 7.78515625 C-2.77777344 8.18605469 -3.37976563 8.58695312 -4 9 C-4.99 8.67 -5.98 8.34 -7 8 C-6.02133662 6.85373678 -5.04205413 5.70800212 -4.0625 4.5625 C-3.51722656 3.92441406 -2.97195312 3.28632813 -2.41015625 2.62890625 C-1.63204305 1.73008851 -0.84063472 0.84063472 0 0 Z " fill="#000000" transform="translate(251,382)"/>
<path d="M0 0 C0 0.66 0 1.32 0 2 C-6.625 6 -6.625 6 -10 6 C-10 5.01 -10 4.02 -10 3 C-3.375 -1.125 -3.375 -1.125 0 0 Z " fill="#000000" transform="translate(286,361)"/>
<path d="M0 0 C0 0.99 0 1.98 0 3 C-3.3 4.32 -6.6 5.64 -10 7 C-10 5.68 -10 4.36 -10 3 C-8.70990357 2.49596232 -7.41786211 1.99690074 -6.125 1.5 C-5.04605469 1.08234375 -5.04605469 1.08234375 -3.9453125 0.65625 C-2 0 -2 0 0 0 Z " fill="#000000" transform="translate(321,343)"/>
<path d="M0 0 C3.63 0 7.26 0 11 0 C11 0.99 11 1.98 11 3 C7.37 3 3.74 3 0 3 C0 2.01 0 1.02 0 0 Z " fill="#000000" transform="translate(425,322)"/>
<path d="M0 0 C3.63 0.66 7.26 1.32 11 2 C11 2.99 11 3.98 11 5 C7.37 4.34 3.74 3.68 0 3 C0 2.01 0 1.02 0 0 Z " fill="#000000" transform="translate(402,312)"/>
<path d="M0 0 C3.3 0.33 6.6 0.66 10 1 C10.33 1.99 10.66 2.98 11 4 C7.37 3.67 3.74 3.34 0 3 C0 2.01 0 1.02 0 0 Z " fill="#000000" transform="translate(361,304)"/>
<path d="M0 0 C3.95820859 0.56545837 6.6659053 1.80902348 10 4 C9.67 4.99 9.34 5.98 9 7 C4.545 5.02 4.545 5.02 0 3 C0 2.01 0 1.02 0 0 Z " fill="#000000" transform="translate(303,286)"/>
<path d="M0 0 C3.59391114 1.33488128 6.75490696 2.96022723 10 5 C9.01 6.485 9.01 6.485 8 8 C5.03 6.02 2.06 4.04 -1 2 C-0.67 1.34 -0.34 0.68 0 0 Z " fill="#000000" transform="translate(286,276)"/>
<path d="M0 0 C0.928125 1.175625 0.928125 1.175625 1.875 2.375 C3.89858661 4.96837647 3.89858661 4.96837647 6 7 C6 7.99 6 8.98 6 10 C5.01 10 4.02 10 3 10 C1.61328125 8.5390625 1.61328125 8.5390625 0.3125 6.625 C-0.34298828 5.68527344 -0.34298828 5.68527344 -1.01171875 4.7265625 C-2 3 -2 3 -2 1 C-1.34 0.67 -0.68 0.34 0 0 Z " fill="#000000" transform="translate(259,247)"/>
<path d="M0 0 C1.890625 0.21484375 1.890625 0.21484375 4 1 C5.046875 3.06640625 5.046875 3.06640625 5.75 5.5625 C5.99234375 6.38878906 6.2346875 7.21507812 6.484375 8.06640625 C6.65453125 8.70449219 6.8246875 9.34257812 7 10 C5.109375 9.78515625 5.109375 9.78515625 3 9 C1.953125 6.93359375 1.953125 6.93359375 1.25 4.4375 C1.00765625 3.61121094 0.7653125 2.78492188 0.515625 1.93359375 C0.34546875 1.29550781 0.1753125 0.65742188 0 0 Z " fill="#000000" transform="translate(248,230)"/>
<path d="M0 0 C0.99 0 1.98 0 3 0 C5 7.625 5 7.625 5 11 C4.01 11 3.02 11 2 11 C1.34 7.37 0.68 3.74 0 0 Z " fill="#000000" transform="translate(243,210)"/>
<path d="M0 0 C0.99 0 1.98 0 3 0 C2.71758359 1.46015291 2.42373386 2.91809793 2.125 4.375 C1.96257812 5.18710938 1.80015625 5.99921875 1.6328125 6.8359375 C1 9 1 9 -1 11 C-1.66 10.34 -2.32 9.68 -3 9 C-2.01 6.03 -1.02 3.06 0 0 Z " fill="#000000" transform="translate(250,151)"/>
<path d="M0 0 C0.99 0 1.98 0 3 0 C2.29445932 3.66881155 0.72264494 6.70450534 -1 10 C-1.99 9.67 -2.98 9.34 -4 9 C-2.94124926 5.59687262 -1.99097846 2.98646769 0 0 Z " fill="#000000" transform="translate(258,133)"/>
<path d="M0 0 C2.33524782 2.25740623 4.18705073 4.2805761 6 7 C6 7.99 6 8.98 6 10 C5.01 10 4.02 10 3 10 C1.35 7.03 -0.3 4.06 -2 1 C-1.34 0.67 -0.68 0.34 0 0 Z " fill="#000000" transform="translate(500,97)"/>
<path d="M0 0 C0.556875 0.268125 1.11375 0.53625 1.6875 0.8125 C-1.12054268 3.77654505 -3.49565774 6.25749019 -7.3125 7.8125 C-7.3125 4.8125 -7.3125 4.8125 -5.0625 2.0625 C-2.3125 -0.1875 -2.3125 -0.1875 0 0 Z " fill="#000000" transform="translate(299.3125,89.1875)"/>
<path d="M0 0 C4.43090471 1.20842856 6.98112756 2.51668565 10 6 C7 7 7 7 4.95703125 6.22265625 C4.24933594 5.83980469 3.54164063 5.45695312 2.8125 5.0625 C2.09707031 4.68222656 1.38164062 4.30195312 0.64453125 3.91015625 C0.10183594 3.60980469 -0.44085938 3.30945312 -1 3 C-0.67 2.01 -0.34 1.02 0 0 Z " fill="#000000" transform="translate(454,60)"/>
<path d="M0 0 C0 0.99 0 1.98 0 3 C-1.28913487 3.67154933 -2.58140204 4.33708859 -3.875 5 C-4.59429687 5.37125 -5.31359375 5.7425 -6.0546875 6.125 C-8 7 -8 7 -10 7 C-9.9375 5.1875 -9.9375 5.1875 -9 3 C-3.10714286 0 -3.10714286 0 0 0 Z " fill="#000000" transform="translate(350,57)"/>
<path d="M0 0 C0 0.99 0 1.98 0 3 C-3.63 3.33 -7.26 3.66 -11 4 C-11 3.01 -11 2.02 -11 1 C-7.26513121 0.4254048 -3.78706732 0 0 0 Z " fill="#000000" transform="translate(424,667)"/>
<path d="M0 0 C3.3 0.99 6.6 1.98 10 3 C10 3.99 10 4.98 10 6 C6.28111761 5.49287967 3.26545761 4.88391785 0 3 C0 2.01 0 1.02 0 0 Z " fill="#000000" transform="translate(296,654)"/>
<path d="M0 0 C2.97 1.65 5.94 3.3 9 5 C8.67 5.99 8.34 6.98 8 8 C5.03 6.35 2.06 4.7 -1 3 C-0.67 2.01 -0.34 1.02 0 0 Z " fill="#000000" transform="translate(261,637)"/>
<path d="M0 0 C2.61724095 2.36797991 4.32861729 4.89600354 6 8 C6 8.66 6 9.32 6 10 C4.1875 9.8125 4.1875 9.8125 2 9 C0.1875 6.6875 0.1875 6.6875 -1 4 C-0.6875 1.6875 -0.6875 1.6875 0 0 Z " fill="#000000" transform="translate(218,597)"/>
<path d="M0 0 C0.99 0 1.98 0 3 0 C3.99 3.3 4.98 6.6 6 10 C4.68 9.67 3.36 9.34 2 9 C1.34 6.03 0.68 3.06 0 0 Z " fill="#000000" transform="translate(203,561)"/>
<path d="M0 0 C0.99 0.33 1.98 0.66 3 1 C1.80100302 4.0831351 0.52299523 7.06279492 -1 10 C-1.99 10 -2.98 10 -4 10 C-3.29445932 6.33118845 -1.72264494 3.29549466 0 0 Z " fill="#000000" transform="translate(635,506)"/>
<path d="M0 0 C0.99 0 1.98 0 3 0 C3.14285714 7.42857143 3.14285714 7.42857143 2 11 C1.01 11 0.02 11 -1 11 C-0.67 7.37 -0.34 3.74 0 0 Z " fill="#000000" transform="translate(195,483)"/>
<path d="M0 0 C0.66 0.33 1.32 0.66 2 1 C1.49287967 4.71888239 0.88391785 7.73454239 -1 11 C-1.99 10.67 -2.98 10.34 -4 10 C-3.52449439 8.51965236 -3.04448784 7.04074979 -2.5625 5.5625 C-2.29566406 4.73878906 -2.02882813 3.91507812 -1.75390625 3.06640625 C-1 1 -1 1 0 0 Z " fill="#000000" transform="translate(661,452)"/>
<path d="M0 0 C0.99 0.33 1.98 0.66 3 1 C1.02 3.97 -0.96 6.94 -3 10 C-3.66 9.67 -4.32 9.34 -5 9 C-3.7508258 5.54074837 -2.32472205 2.85306797 0 0 Z " fill="#000000" transform="translate(224,411)"/>
<path d="M0 0 C0 0.99 0 1.98 0 3 C-3.67410785 4.17571451 -7.16929183 4.07366746 -11 4 C-11 3.01 -11 2.02 -11 1 C-3.375 0 -3.375 0 0 0 Z " fill="#000000" transform="translate(397,324)"/>
<path d="M0 0 C0.66 0 1.32 0 2 0 C2 3.63 2 7.26 2 11 C1.01 11 0.02 11 -1 11 C-1.02688151 9.35425434 -1.04634123 7.70838587 -1.0625 6.0625 C-1.07410156 5.14597656 -1.08570313 4.22945312 -1.09765625 3.28515625 C-1 1 -1 1 0 0 Z " fill="#000000" transform="translate(243,190)"/>
<path d="M0 0 C-0.57363911 3.87206399 -2.34105893 6.18465063 -5 9 C-5.99 9 -6.98 9 -8 9 C-6.68994234 5.06982701 -4.75047804 0 0 0 Z " fill="#000000" transform="translate(273,117)"/>
<path d="M0 0 C0.66 0.33 1.32 0.66 2 1 C0.63029745 3.95012857 -0.82609125 6.5652222 -3 9 C-3.99 9 -4.98 9 -6 9 C-5.52797514 4.75177626 -3.03344482 2.80010291 0 0 Z " fill="#000000" transform="translate(284,102)"/>
<path d="M0 0 C0.66 0.33 1.32 0.66 2 1 C0.65117186 5.04648443 -1.34826069 5.95502599 -5 8 C-5.99 7.67 -6.98 7.34 -8 7 C-5.42215154 4.35247996 -3.08351902 2.05567935 0 0 Z " fill="#000000" transform="translate(314,76)"/>
<path d="M0 0 C3.81684226 1.55500981 6.19195732 4.03595495 9 7 C4.28093812 7 2.72962969 5.71245796 -1 3 C-0.67 2.01 -0.34 1.02 0 0 Z " fill="#000000" transform="translate(471,70)"/>
<path d="M0 0 C0.8971875 0.309375 0.8971875 0.309375 1.8125 0.625 C-0.55694013 3.24385488 -3.02483102 5.04366551 -6.1875 6.625 C-7.1775 6.295 -8.1675 5.965 -9.1875 5.625 C-3.21691176 -0.55147059 -3.21691176 -0.55147059 0 0 Z " fill="#000000" transform="translate(331.1875,66.375)"/>
<path d="M0 0 C4.455 0.99 4.455 0.99 9 2 C9 3.32 9 4.64 9 6 C4.05 4.02 4.05 4.02 -1 2 C-0.67 1.34 -0.34 0.68 0 0 Z " fill="#000000" transform="translate(436,53)"/>
<path d="M0 0 C0 0.66 0 1.32 0 2 C-3.82320557 3.42258812 -6.91281305 4.24042276 -11 4 C-10.67 3.01 -10.34 2.02 -10 1 C-3.84210526 -1.28070175 -3.84210526 -1.28070175 0 0 Z " fill="#000000" transform="translate(369,52)"/>
<path d="M0 0 C3.3 0.66 6.6 1.32 10 2 C10 2.99 10 3.98 10 5 C8.54119891 4.85892253 7.08296449 4.71197585 5.625 4.5625 C4.40683594 4.44068359 4.40683594 4.44068359 3.1640625 4.31640625 C1 4 1 4 -1 3 C-0.67 2.01 -0.34 1.02 0 0 Z " fill="#000000" transform="translate(417,48)"/>
<path d="M0 0 C0 0.99 0 1.98 0 3 C-3.63 3.33 -7.26 3.66 -11 4 C-11 3.01 -11 2.02 -11 1 C-7.32589215 -0.17571451 -3.83070817 -0.07366746 0 0 Z " fill="#000000" transform="translate(388,48)"/>
<path d="M0 0 C0 0.99 0 1.98 0 3 C-3.3 3.33 -6.6 3.66 -10 4 C-10 3.01 -10 2.02 -10 1 C-6.59437148 0.22157062 -3.49234244 -0.09978121 0 0 Z " fill="#000000" transform="translate(443,664)"/>
<path d="M0 0 C3.55780196 0.60990891 6.6828589 1.5783681 10 3 C9.67 3.99 9.34 4.98 9 6 C6.03 5.01 3.06 4.02 0 3 C0 2.01 0 1.02 0 0 Z " fill="#000000" transform="translate(278,647)"/>
<path d="M0 0 C0 0.99 0 1.98 0 3 C-1.75 4.38671875 -1.75 4.38671875 -4 5.6875 C-4.7425 6.12449219 -5.485 6.56148437 -6.25 7.01171875 C-6.8275 7.33785156 -7.405 7.66398438 -8 8 C-8 6.68 -8 5.36 -8 4 C-3.88888889 0 -3.88888889 0 0 0 Z " fill="#000000" transform="translate(550,613)"/>
<path d="M0 0 C3.36295835 1.44126786 5.62927102 3.20592655 8 6 C8 6.99 8 7.98 8 9 C3.7257442 7.4169423 1.73468206 4.49431596 -1 1 C-0.67 0.67 -0.34 0.34 0 0 Z " fill="#000000" transform="translate(229,613)"/>
<path d="M0 0 C-0.33645789 3.14027363 -1.05236086 4.05098295 -3.375 6.3125 C-4.674375 7.1478125 -4.674375 7.1478125 -6 8 C-6.99 7.67 -7.98 7.34 -9 7 C-3.65789474 0 -3.65789474 0 0 0 Z " fill="#000000" transform="translate(565,600)"/>
<path d="M0 0 C0.66 0 1.32 0 2 0 C5.07692308 6.4 5.07692308 6.4 4.6875 9.4375 C4.460625 9.953125 4.23375 10.46875 4 11 C2 10 2 10 1.1484375 7.93359375 C0.89320313 7.10988281 0.63796875 6.28617188 0.375 5.4375 C0.11460937 4.61121094 -0.14578125 3.78492188 -0.4140625 2.93359375 C-0.60742188 2.29550781 -0.80078125 1.65742187 -1 1 C-0.67 0.67 -0.34 0.34 0 0 Z " fill="#000000" transform="translate(210,579)"/>
<path d="M0 0 C1.32 0.33 2.64 0.66 4 1 C4.33 3.97 4.66 6.94 5 10 C4.01 10 3.02 10 2 10 C1.34 6.7 0.68 3.4 0 0 Z " fill="#000000" transform="translate(198,542)"/>
<path d="M0 0 C0.66 0.33 1.32 0.66 2 1 C0.7580393 4.43927579 -0.55740284 7.25207819 -3 10 C-3.66 10 -4.32 10 -5 10 C-4.49701212 5.59885603 -2.91227269 3.28804981 0 0 Z " fill="#000000" transform="translate(626,523)"/>
<path d="M0 0 C0.99 0.33 1.98 0.66 3 1 C2.34 3.97 1.68 6.94 1 10 C0.01 10 -0.98 10 -2 10 C-1.85950482 8.52031676 -1.71245174 7.04125484 -1.5625 5.5625 C-1.48128906 4.73878906 -1.40007812 3.91507812 -1.31640625 3.06640625 C-1 1 -1 1 0 0 Z " fill="#000000" transform="translate(199,464)"/>
<path d="M0 0 C0.99 0.33 1.98 0.66 3 1 C1.68 4.3 0.36 7.6 -1 11 C-1.66 10.67 -2.32 10.34 -3 10 C-2.69201674 8.51988629 -2.378482 7.04092675 -2.0625 5.5625 C-1.88847656 4.73878906 -1.71445313 3.91507812 -1.53515625 3.06640625 C-1 1 -1 1 0 0 Z " fill="#000000" transform="translate(205,445)"/>
<path d="M0 0 C-1.3809002 3.33717549 -2.8201238 5.22301036 -6 7 C-8.25 6.6875 -8.25 6.6875 -10 6 C-4.15384615 0 -4.15384615 0 0 0 Z " fill="#000000" transform="translate(269,371)"/>
<path d="M0 0 C1.45880109 0.14107747 2.91703551 0.28802415 4.375 0.4375 C5.59316406 0.55931641 5.59316406 0.55931641 6.8359375 0.68359375 C9 1 9 1 11 2 C10.67 2.99 10.34 3.98 10 5 C8.51793505 4.745504 7.03931385 4.47088238 5.5625 4.1875 C4.73878906 4.03667969 3.91507812 3.88585937 3.06640625 3.73046875 C2.38449219 3.48941406 1.70257813 3.24835938 1 3 C0.67 2.01 0.34 1.02 0 0 Z " fill="#000000" transform="translate(341,300)"/>
<path d="M0 0 C4.455 0.99 4.455 0.99 9 2 C9.33 3.32 9.66 4.64 10 6 C6.7 5.01 3.4 4.02 0 3 C0 2.01 0 1.02 0 0 Z " fill="#000000" transform="translate(322,294)"/>
<path d="M0 0 C0.99 0.33 1.98 0.66 3 1 C2.34 4.3 1.68 7.6 1 11 C0.01 11 -0.98 11 -2 11 C-1.85892253 9.54119891 -1.71197585 8.08296449 -1.5625 6.625 C-1.48128906 5.81289062 -1.40007812 5.00078125 -1.31640625 4.1640625 C-1 2 -1 2 0 0 Z " fill="#000000" transform="translate(245,170)"/>
<path d="M0 0 C3.3 0 6.6 0 10 0 C10 0.99 10 1.98 10 3 C6.7 3 3.4 3 0 3 C0 2.01 0 1.02 0 0 Z " fill="#000000" transform="translate(397,47)"/>
<path d="M0 0 C3.63 0.33 7.26 0.66 11 1 C10.67 1.99 10.34 2.98 10 4 C6.7 3.67 3.4 3.34 0 3 C0 2.01 0 1.02 0 0 Z " fill="#000000" transform="translate(354,668)"/>
<path d="M0 0 C0.99 0 1.98 0 3 0 C3 3.3 3 6.6 3 10 C2.01 10 1.02 10 0 10 C0 6.7 0 3.4 0 0 Z " fill="#000000" transform="translate(194,503)"/>
<path d="M0 0 C-0.47205119 4.24846075 -2.88877522 6.26819288 -6 9 C-6.66 9 -7.32 9 -8 9 C-7.53918323 4.85264908 -4.48412936 0 0 0 Z " fill="#000000" transform="translate(239,396)"/>
<path d="M0 0 C-1 2 -1 2 -3.8125 3.125 C-7 4 -7 4 -11 4 C-10.67 3.01 -10.34 2.02 -10 1 C-6.34742296 -0.62336757 -3.80637601 -1.46399077 0 0 Z " fill="#000000" transform="translate(340,338)"/>
<path d="M0 0 C0.33 0.99 0.66 1.98 1 3 C-3.455 4.485 -3.455 4.485 -8 6 C-8.33 5.01 -8.66 4.02 -9 3 C-6.03 2.01 -3.06 1.02 0 0 Z " fill="#000000" transform="translate(357,331)"/>
<path d="M0 0 C0 0.99 0 1.98 0 3 C-3.3 3.66 -6.6 4.32 -10 5 C-10 4.01 -10 3.02 -10 2 C-8.7090864 1.66376204 -7.41723903 1.33110751 -6.125 1 C-5.40570313 0.814375 -4.68640625 0.62875 -3.9453125 0.4375 C-2 0 -2 0 0 0 Z " fill="#000000" transform="translate(377,327)"/>
<path d="M0 0 C3.36591866 1.44253657 5.51047079 3.33264727 8 6 C7.67 6.99 7.34 7.98 7 9 C5.82460004 8.07347299 4.65989423 7.13336613 3.5 6.1875 C2.52546875 5.40439453 2.52546875 5.40439453 1.53125 4.60546875 C0 3 0 3 0 0 Z " fill="#000000" transform="translate(486,83)"/>
<path d="M0 0 C0 0.99 0 1.98 0 3 C-3.63 3 -7.26 3 -11 3 C-11 2.34 -11 1.68 -11 1 C-7.32589215 -0.17571451 -3.83070817 -0.07366746 0 0 Z " fill="#000000" transform="translate(404,669)"/>
<path d="M0 0 C1.48206495 0.254496 2.96068615 0.52911762 4.4375 0.8125 C5.67306641 1.03873047 5.67306641 1.03873047 6.93359375 1.26953125 C7.95646484 1.63111328 7.95646484 1.63111328 9 2 C9.33 2.99 9.66 3.98 10 5 C2.25 4.125 2.25 4.125 0 3 C0 2.01 0 1.02 0 0 Z " fill="#000000" transform="translate(315,660)"/>
<path d="M0 0 C3.3 0 6.6 0 10 0 C10 0.66 10 1.32 10 2 C6.78548731 3.60725635 3.56387464 3.05748185 0 3 C0 2.01 0 1.02 0 0 Z " fill="#000000" transform="translate(406,323)"/>
<path d="M0 0 C3.3 0 6.6 0 10 0 C10 0.99 10 1.98 10 3 C3.375 3.125 3.375 3.125 0 2 C0 1.34 0 0.68 0 0 Z " fill="#000000" transform="translate(374,670)"/>
<path d="M0 0 C0.99 0.33 1.98 0.66 3 1 C2.34 2.65 1.68 4.3 1 6 C0.01 5.67 -0.98 5.34 -2 5 C-1.34 3.35 -0.68 1.7 0 0 Z " fill="#000000" transform="translate(666,438)"/>
<path d="M0 0 C1.65 0 3.3 0 5 0 C5.33 0.99 5.66 1.98 6 3 C4.02 3 2.04 3 0 3 C0 2.01 0 1.02 0 0 Z " fill="#000000" transform="translate(464,325)"/>
<path d="M0 0 C0.99 0.33 1.98 0.66 3 1 C2.67 1.99 2.34 2.98 2 4 C1.01 3.01 0.02 2.02 -1 1 C-0.67 0.67 -0.34 0.34 0 0 Z " fill="#000000" transform="translate(10,527)"/>
<path d="M0 0 C0.99 0.33 1.98 0.66 3 1 C2.67 1.99 2.34 2.98 2 4 C1.01 3.01 0.02 2.02 -1 1 C-0.67 0.67 -0.34 0.34 0 0 Z " fill="#000000" transform="translate(90,181)"/>
</svg>
