<?xml version="1.0" standalone="no"?>
<!DOCTYPE svg PUBLIC "-//W3C//DTD SVG 20010904//EN"
 "http://www.w3.org/TR/2001/REC-SVG-20010904/DTD/svg10.dtd">
<svg version="1.0" xmlns="http://www.w3.org/2000/svg"
 width="159.000000pt" height="226.000000pt" viewBox="0 0 159.000000 226.000000"
 preserveAspectRatio="xMidYMid meet">

<g transform="translate(0.000000,226.000000) scale(0.100000,-0.100000)"
fill="#000000" stroke="none">
<path d="M701 2249 c-349 -47 -607 -278 -677 -608 -18 -89 -18 -264 2 -359 45
-219 170 -415 337 -525 118 -78 234 -116 392 -126 l100 -6 -27 -18 c-51 -35
-172 -79 -322 -116 -135 -35 -153 -42 -196 -79 -81 -70 -110 -164 -76 -247 19
-45 93 -118 148 -146 41 -21 47 -21 143 -10 278 32 489 133 680 326 146 147
272 384 337 633 40 156 50 378 23 529 -56 315 -222 565 -453 686 -125 66 -256
87 -411 66z m294 -70 c91 -28 181 -86 265 -170 242 -242 331 -646 229 -1044
-30 -119 -98 -279 -170 -401 -146 -249 -398 -429 -674 -484 -49 -10 -119 -21
-155 -25 -62 -6 -68 -4 -114 26 -59 39 -106 109 -106 157 0 89 73 162 188 187
110 24 288 83 352 116 73 37 107 67 124 109 l14 35 -141 0 c-106 0 -158 5
-207 18 -206 58 -351 181 -451 382 -64 130 -80 194 -86 341 -7 158 12 255 74
384 39 80 59 108 132 181 69 68 103 94 171 127 180 87 394 111 555 61z"/>
<path d="M670 2020 c0 -5 23 -10 50 -10 28 0 50 5 50 10 0 6 -22 10 -50 10
-27 0 -50 -4 -50 -10z"/>
<path d="M512 1990 c-24 -11 -41 -24 -37 -29 6 -11 88 22 93 38 5 15 -7 13
-56 -9z"/>
<path d="M866 1991 c-6 -9 82 -46 91 -38 3 3 -13 15 -36 26 -46 24 -48 24 -55
12z"/>
<path d="M351 1871 c-32 -40 -37 -51 -23 -51 14 0 73 78 63 84 -5 4 -23 -11
-40 -33z"/>
<path d="M1036 1902 c-3 -6 12 -25 34 -42 22 -17 40 -28 40 -23 0 16 -68 75
-74 65z"/>
<path d="M633 1789 c-111 -55 -169 -195 -161 -390 5 -117 22 -165 86 -239 57
-67 95 -80 243 -80 124 0 127 0 167 30 54 39 105 110 133 183 19 51 21 71 16
160 -3 56 -13 125 -22 152 -22 68 -76 140 -132 176 -45 28 -51 29 -167 29
-103 0 -127 -3 -163 -21z m319 -62 c26 -20 54 -55 73 -92 28 -54 30 -67 33
-184 4 -138 -2 -163 -57 -239 -53 -72 -78 -82 -212 -82 -135 0 -161 11 -216
93 -42 63 -53 104 -53 204 0 107 14 169 53 234 49 82 86 99 224 99 111 0 112
0 155 -33z"/>
<path d="M1170 1754 c0 -13 42 -74 51 -74 13 0 12 4 -12 44 -19 32 -39 47 -39
30z"/>
<path d="M260 1705 c-18 -48 -22 -75 -11 -75 5 0 15 19 22 43 6 23 13 45 16
50 2 4 -1 7 -7 7 -6 0 -15 -11 -20 -25z"/>
<path d="M1260 1584 c0 -19 24 -84 32 -84 11 0 10 5 -4 51 -6 22 -15 39 -20
39 -4 0 -8 -3 -8 -6z"/>
<path d="M226 1514 c-8 -21 3 -84 15 -84 5 0 9 23 9 50 0 49 -12 66 -24 34z"/>
<path d="M1276 1367 c-25 -24 -36 -43 -36 -63 0 -36 24 -72 56 -85 23 -8 24
-12 18 -59 -4 -31 -3 -50 3 -50 11 0 23 46 23 84 0 15 9 25 29 32 57 22 62
114 9 147 -48 31 -64 29 -102 -6z"/>
<path d="M247 1323 c-7 -13 23 -104 33 -98 5 3 3 25 -5 51 -15 50 -21 60 -28
47z"/>
<path d="M330 1091 c20 -40 37 -57 46 -48 8 7 -44 87 -56 87 -6 0 -1 -18 10
-39z"/>
<path d="M1291 997 c-19 -49 -24 -77 -12 -77 12 0 34 75 28 93 -3 7 -10 -1
-16 -16z"/>
<path d="M1140 990 c0 -5 14 -10 31 -10 26 0 29 -3 24 -20 -5 -15 -3 -18 9
-14 12 5 14 -1 9 -30 -7 -45 12 -49 21 -5 12 63 8 76 -25 83 -45 9 -69 7 -69
-4z"/>
<path d="M436 961 c-6 -9 61 -71 76 -71 17 0 6 16 -32 48 -21 17 -41 28 -44
23z"/>
<path d="M1048 883 c-35 -15 -51 -33 -28 -33 16 0 80 33 80 42 0 10 -7 9 -52
-9z"/>
<path d="M610 845 c0 -15 81 -38 92 -27 5 5 -15 15 -42 23 -37 12 -50 13 -50
4z"/>
<path d="M828 823 c-32 -8 -20 -26 13 -19 17 3 40 6 50 6 11 0 19 5 19 10 0
10 -49 12 -82 3z"/>
<path d="M1215 790 c-24 -54 -12 -63 14 -11 23 45 25 51 13 51 -5 0 -17 -18
-27 -40z"/>
<path d="M1114 625 c-15 -20 -24 -39 -20 -43 7 -6 36 24 57 61 18 32 -9 18
-37 -18z"/>
<path d="M980 481 c-19 -16 -31 -33 -27 -37 4 -4 24 9 45 29 44 44 31 49 -18
8z"/>
<path d="M823 368 c-31 -18 -43 -38 -25 -38 9 0 82 49 82 55 0 10 -26 2 -57
-17z"/>
<path d="M501 278 c-8 -13 -20 -33 -28 -44 -13 -20 -11 -23 31 -48 48 -28 56
-31 56 -18 0 5 -11 15 -25 22 -18 10 -24 19 -19 33 4 13 2 17 -5 13 -15 -10
-13 5 4 28 8 11 15 23 15 28 0 15 -15 8 -29 -14z"/>
<path d="M646 281 c-22 -10 -35 -20 -29 -24 12 -8 93 22 93 35 0 12 -20 9 -64
-11z"/>
</g>
</svg>
