<?xml version="1.0" standalone="no"?>
<!DOCTYPE svg PUBLIC "-//W3C//DTD SVG 20010904//EN"
 "http://www.w3.org/TR/2001/REC-SVG-20010904/DTD/svg10.dtd">
<svg version="1.0" xmlns="http://www.w3.org/2000/svg"
 width="161.000000pt" height="229.000000pt" viewBox="0 0 161.000000 229.000000"
 preserveAspectRatio="xMidYMid meet">

<g transform="translate(0.000000,229.000000) scale(0.100000,-0.100000)"
fill="#000000" stroke="none">
<path d="M627 2260 c-273 -69 -481 -255 -533 -476 -32 -136 2 -312 89 -465
l43 -76 -57 -61 c-100 -109 -155 -250 -166 -422 -10 -160 28 -304 113 -431
119 -179 319 -291 575 -321 256 -30 533 80 728 288 247 265 239 596 -22 899
l-34 39 33 52 c101 157 129 369 74 549 -79 255 -335 424 -665 440 -79 4 -117
1 -178 -15z m348 -59 c190 -49 344 -159 410 -295 38 -76 65 -183 64 -256 0
-131 -67 -328 -133 -389 l-25 -23 63 -72 c248 -284 259 -588 30 -835 -104
-112 -239 -197 -392 -245 -155 -49 -310 -44 -487 15 -124 42 -188 80 -272 165
-239 241 -243 666 -8 901 36 36 65 66 65 68 0 2 -18 33 -41 70 -190 313 -145
597 123 785 77 54 191 105 282 126 79 18 217 11 321 -15z"/>
<path d="M739 2125 c-54 -29 -60 -107 -12 -145 37 -29 79 -26 114 9 46 46 37
106 -21 136 -35 18 -47 18 -81 0z"/>
<path d="M942 2076 c-18 -13 -35 -26 -38 -29 -7 -7 46 -87 57 -87 13 0 11 7
-7 34 -11 18 -12 26 -3 31 8 6 8 9 -1 15 -9 6 -5 13 14 25 24 16 35 36 19 35
-5 -1 -23 -11 -41 -24z"/>
<path d="M578 2033 c-21 -8 -38 -20 -38 -25 0 -6 8 -7 18 -3 9 4 29 12 45 17
15 5 27 14 27 19 0 12 -8 11 -52 -8z"/>
<path d="M1050 2002 c0 -12 79 -42 84 -33 3 4 -11 15 -30 24 -39 19 -54 21
-54 9z"/>
<path d="M403 1927 c-21 -20 -34 -39 -30 -43 4 -4 24 9 44 29 48 47 36 59 -14
14z"/>
<path d="M1210 1917 c0 -12 44 -77 53 -77 17 0 5 28 -23 55 -16 16 -30 26 -30
22z"/>
<path d="M690 1807 c-52 -17 -126 -93 -140 -146 -37 -139 80 -242 261 -229
130 10 209 72 217 174 6 68 -10 105 -61 150 -68 57 -187 79 -277 51z m167 -48
c28 -8 60 -26 84 -49 33 -31 39 -43 39 -79 0 -55 -21 -94 -67 -123 -33 -20
-51 -23 -128 -23 -73 0 -97 4 -125 20 -74 44 -89 129 -33 195 53 64 130 84
230 59z"/>
<path d="M286 1759 c-9 -23 -15 -44 -12 -46 9 -9 24 6 29 29 2 13 8 31 12 41
4 9 3 17 -3 17 -5 0 -17 -19 -26 -41z"/>
<path d="M1285 1709 c-7 -38 -2 -59 11 -46 3 3 8 24 11 46 7 54 -13 54 -22 0z"/>
<path d="M277 1603 c-7 -11 10 -72 24 -87 18 -20 18 2 0 48 -10 27 -21 44 -24
39z"/>
<path d="M1228 1539 c-10 -17 -18 -35 -18 -40 0 -20 16 -7 38 31 15 27 19 40
10 40 -7 0 -21 -14 -30 -31z"/>
<path d="M380 1421 c0 -14 69 -65 77 -57 4 3 -9 20 -28 36 -36 31 -49 36 -49
21z"/>
<path d="M1105 1390 c-16 -16 -25 -33 -22 -37 8 -7 67 45 67 59 0 16 -17 8
-45 -22z"/>
<path d="M546 1312 c-5 -9 61 -42 84 -42 23 0 7 17 -27 30 -21 8 -41 16 -45
18 -3 2 -9 -1 -12 -6z"/>
<path d="M958 1289 c-44 -22 -52 -44 -12 -29 37 14 67 37 57 43 -4 3 -25 -4
-45 -14z"/>
<path d="M734 1238 c-3 -4 -1 -8 5 -8 6 0 8 -7 4 -17 -5 -13 -2 -15 18 -10 13
4 37 7 52 7 18 0 27 4 25 13 -5 14 -97 27 -104 15z"/>
<path d="M940 1181 c0 -5 12 -14 28 -19 15 -5 35 -13 45 -17 33 -13 17 11 -18
28 -40 19 -55 21 -55 8z"/>
<path d="M608 1149 c-33 -17 -51 -39 -32 -39 13 0 74 42 74 51 0 11 2 12 -42
-12z"/>
<path d="M1154 1055 c21 -19 43 -32 47 -29 11 6 -54 64 -72 64 -8 -1 3 -16 25
-35z"/>
<path d="M440 1041 c-19 -16 -32 -33 -28 -36 9 -10 79 45 72 56 -7 12 -3 13
-44 -20z"/>
<path d="M660 1011 c-116 -36 -203 -157 -202 -285 0 -102 48 -180 146 -237 49
-28 55 -29 184 -29 144 0 173 7 231 56 42 35 88 130 96 199 15 115 -50 227
-160 280 -48 22 -66 25 -162 24 -59 0 -119 -4 -133 -8z m283 -67 c46 -23 76
-53 100 -99 47 -88 12 -239 -68 -301 -37 -28 -42 -29 -171 -32 -143 -4 -160 0
-223 54 -115 96 -85 306 54 382 33 19 270 15 308 -4z"/>
<path d="M1270 944 c0 -11 45 -84 53 -84 13 0 8 19 -15 55 -21 31 -38 45 -38
29z"/>
<path d="M304 900 c-15 -22 -24 -43 -20 -47 3 -3 7 -4 9 -2 2 2 15 21 30 41
15 20 23 39 17 43 -5 3 -21 -13 -36 -35z"/>
<path d="M237 753 c-11 -10 -8 -81 3 -88 6 -4 10 8 10 29 0 19 3 41 6 50 6 16
-7 22 -19 9z"/>
<path d="M1353 746 c4 -10 7 -33 7 -52 0 -19 5 -34 11 -34 16 0 7 93 -10 98
-10 3 -12 0 -8 -12z"/>
<path d="M260 564 c0 -13 42 -74 51 -74 13 0 12 4 -12 44 -19 32 -39 47 -39
30z"/>
<path d="M1322 515 c-24 -51 -26 -55 -14 -55 15 0 55 81 45 91 -5 5 -18 -9
-31 -36z"/>
<path d="M380 411 c0 -13 78 -62 84 -52 3 5 -12 20 -34 35 -43 28 -50 31 -50
17z"/>
<path d="M1180 368 c-46 -28 -44 -27 -37 -34 7 -7 87 36 87 48 0 13 -12 9 -50
-14z"/>
<path d="M550 312 c0 -8 69 -42 85 -42 15 0 2 22 -17 29 -50 19 -68 22 -68 13z"/>
<path d="M973 289 c-18 -5 -33 -14 -33 -20 0 -6 6 -9 14 -6 8 3 31 9 50 13 20
3 36 10 36 15 0 11 -25 10 -67 -2z"/>
<path d="M740 261 c0 -12 35 -17 73 -12 46 6 30 21 -23 21 -27 0 -50 -4 -50
-9z"/>
</g>
</svg>
