<svg width="502" height="506" viewBox="0 0 502 506" fill="none" xmlns="http://www.w3.org/2000/svg">
<path d="M351.34 185.979C330.048 191.455 315.346 179.389 310.657 172.672C320.289 156.069 337.196 113.815 327.766 77.6191C318.337 41.423 281.254 42.5129 263.891 47.5824C218.874 54.2741 184.807 131.989 169.598 171.151C156.9 203.849 155.15 292.819 173.401 342.627C191.651 392.434 208.76 415.247 242.219 436.159C275.677 457.07 327.766 456.31 371.111 428.174C405.786 405.666 427.128 371.396 433.465 357.075C445.024 339.737 457.545 298.902 462.361 280.652C483.957 263.01 495.693 285.722 498.862 299.283C496.454 312.717 487.455 347.417 470.726 378.747C453.997 410.076 437.139 435.474 427 446.5C400.779 475.016 337.018 498.006 311.037 501.555C291.139 504.217 239.177 505.053 190.51 487.107C141.843 469.161 106.357 428.174 94.6968 409.924C83.9241 396.11 60.9341 353.957 55.1549 295.861C49.3757 237.764 66.688 180.656 76.0665 159.365C85.952 137.186 112.567 86.6682 139.942 62.0305C174.161 31.2333 195.073 20.5874 224.729 10.7019C254.386 0.816422 293.928 0.0559983 331.189 10.7019C368.449 21.3478 382.897 45.6814 393.923 68.1139C404.95 90.5464 396.965 127.807 395.064 137.312C393.543 144.917 384.291 159.745 379.856 166.208C372.86 176.854 357.93 183.825 351.34 185.979Z" stroke="black" stroke-width="5"/>
<path d="M358 150.5C378.834 94.8331 358 -3.00047 232.5 35.0001C145.5 61.343 42.3932 184.499 127.5 393.5C167.203 491 392.5 563 471.5 318" stroke="black" stroke-width="2" stroke-dasharray="10 10"/>
<path d="M6.61932 290.455V305H4.85795V292.301H4.77273L1.22159 294.659V292.869L4.85795 290.455H6.61932Z" fill="black"/>
<path d="M90.0786 450.498C90.9059 450.455 91.5414 449.749 91.4979 448.921L90.7904 435.44C90.747 434.613 90.0412 433.977 89.2139 434.021C88.3866 434.064 87.7511 434.77 87.7945 435.597L88.4234 447.581L76.4399 448.21C75.6127 448.253 74.9772 448.959 75.0206 449.786C75.064 450.613 75.7699 451.249 76.5972 451.205L90.0786 450.498ZM57.9303 123.333C40.854 157.746 21.9221 215.317 20.5762 276.315C19.2299 337.333 35.4868 401.942 88.9964 450.115L91.0036 447.885C38.3449 400.478 22.2415 336.84 23.5755 276.381C24.9099 215.901 43.6992 158.762 60.6176 124.667L57.9303 123.333Z" fill="black"/>
<circle cx="358" cy="141" r="23" fill="black"/>
</svg>
