<?xml version="1.0" encoding="UTF-8"?>
<svg version="1.1" xmlns="http://www.w3.org/2000/svg" width="528" height="614">
<path d="M0 0 C1.98 0.495 1.98 0.495 4 1 C0.125 7.875 0.125 7.875 -1 9 C-0.1013623 8.93071289 0.79727539 8.86142578 1.72314453 8.79003906 C46.89384243 5.51485751 90.62785672 10.21018993 131 32 C131.61214355 32.32613281 132.22428711 32.65226562 132.85498047 32.98828125 C141.47467656 37.61000348 149.36974906 42.87585088 157 49 C157.77077881 49.61633301 157.77077881 49.61633301 158.55712891 50.24511719 C184.43114768 71.08122336 205.59464948 97.64328135 217.625 128.8125 C218.01510254 129.80817993 218.01510254 129.80817993 218.41308594 130.82397461 C219.6493482 134.20528341 220.42671527 136.58791589 219 140 C216 139 216 139 215.08374023 137.33618164 C214.82794189 136.61809326 214.57214355 135.90000488 214.30859375 135.16015625 C213.8592749 133.94996826 213.8592749 133.94996826 213.40087891 132.71533203 C213.08296387 131.83989746 212.76504883 130.96446289 212.4375 130.0625 C206.4213231 114.33243971 198.20559681 100.35854542 188 87 C187.34128906 86.11699219 186.68257813 85.23398438 186.00390625 84.32421875 C171.13263468 65.2205775 152.76215946 50.21243231 132 38 C131.39462402 37.64164063 130.78924805 37.28328125 130.16552734 36.9140625 C91.83960161 14.5265879 44.59392836 8.92063699 1 14 C1.825 14.763125 2.65 15.52625 3.5 16.3125 C6 19 6 19 6 22 C6.63687744 21.98428955 7.27375488 21.9685791 7.92993164 21.95239258 C52.0584517 21.01718206 94.88685347 29.53057233 127.71044922 60.5625 C130.6489098 63.38711796 133.54893091 66.24947433 136.4375 69.125 C137.80455078 70.48359131 137.80455078 70.48359131 139.19921875 71.86962891 C145.2091237 77.94433364 150.71740406 84.28561215 156 91 C156.54422607 91.69013184 157.08845215 92.38026367 157.64916992 93.09130859 C165.36527173 103.00046179 172.47231374 113.27114857 179 124 C179.37640625 124.61665527 179.7528125 125.23331055 180.140625 125.86865234 C202.35575058 162.94416764 202.5482545 209.54052537 202.3225708 251.46911621 C202.3091545 254.84075467 202.31441133 258.21226066 202.31943512 261.5839138 C202.34254374 282.13832747 201.77747063 302.51374091 200 323 C199.8937883 324.23284729 199.8937883 324.23284729 199.78543091 325.49060059 C199.40091934 329.79765876 198.92303935 334.08588891 198.375 338.375 C198.21604248 339.6424707 198.05708496 340.90994141 197.89331055 342.21582031 C195.40187451 361.19227965 191.85890879 380.48125391 187 399 C200.42588103 391.79526897 211.93201376 382.42581639 223 372 C223.73476563 371.3296875 224.46953125 370.659375 225.2265625 369.96875 C232.16813097 363.39510918 237.56148964 355.81505151 243 348 C243.4242627 347.39381836 243.84852539 346.78763672 244.28564453 346.16308594 C249.48130648 338.69546396 254.18983112 331.0318573 258.6875 323.125 C269.82423739 303.5878813 269.82423739 303.5878813 279 299 C288.8216475 297.690447 296.75368967 302.3432434 304.6171875 307.82421875 C313.95261138 315.52836614 320.70379373 325.85590428 322 338 C321.38149377 346.15155869 319.01124328 353.67732444 316.0625 361.25 C315.66772461 362.27504639 315.27294922 363.30009277 314.86621094 364.35620117 C307.43851769 383.34081775 299.23648936 400.6353035 287 417 C286.53674316 417.6300293 286.07348633 418.26005859 285.59619141 418.90917969 C280.143554 426.31449143 274.32981669 433.32693967 268 440 C267.54318848 440.48936035 267.08637695 440.9787207 266.61572266 441.48291016 C243.71151704 465.89227101 209.95392132 489.54954252 176 494 C173.99810693 494.03921436 171.99611543 494.07824394 169.99389648 494.09350586 C164.1053454 494.01774891 164.1053454 494.01774891 159.109375 496.63671875 C157.70033736 498.81969351 157.70033736 498.81969351 156.5078125 501.265625 C154.65091773 504.63305074 152.24580176 507.28562507 149.625 510.0625 C148.89676025 510.83762939 148.89676025 510.83762939 148.15380859 511.62841797 C146.77344288 513.08962637 145.38688271 514.54497566 144 516 C143.06414062 517.03253906 143.06414062 517.03253906 142.109375 518.0859375 C119.33151799 542.40283891 85.51971243 558.01440094 54 567 C52.74993164 567.36013184 52.74993164 567.36013184 51.47460938 567.72753906 C5.47772841 580.30451833 -52.47290817 568.28257736 -93.2734375 545.74414062 C-110.87202308 535.6072264 -125.97892561 522.84927098 -138.62890625 506.9296875 C-140.33160276 504.8258615 -142.04932607 502.78343658 -143.83984375 500.7578125 C-191.05563435 447.31306626 -208.93767468 365.98746544 -205.7890625 295.890625 C-202.98862734 251.0948791 -194.2225262 180.63138695 -159 149 C-148.98404871 140.64677581 -140.99402703 137.56665682 -128 137 C-127.79246094 135.9584375 -127.58492188 134.916875 -127.37109375 133.84375 C-121.54516354 106.14205497 -105.9312025 79.96042714 -86 60 C-85.22398438 59.21238281 -84.44796875 58.42476562 -83.6484375 57.61328125 C-60.68353187 35.60844692 -28.58027304 26.70465739 2 22 C-1.3 19.36 -4.6 16.72 -8 14 C-7.03302499 9.16512496 -6.40457204 7.80193322 -3.4375 4.1875 C-2.79683594 3.39730469 -2.15617188 2.60710937 -1.49609375 1.79296875 C-1.00238281 1.20128906 -0.50867188 0.60960938 0 0 Z M-78 61 C-78.76183594 61.61488281 -79.52367188 62.22976562 -80.30859375 62.86328125 C-99.98576974 79.33481678 -118.85093936 111.30549068 -122 137 C-122.12353047 139.36411766 -122.10298568 141.63132942 -122 144 C-122.7734375 143.90460938 -123.546875 143.80921875 -124.34375 143.7109375 C-135.61012635 142.51179348 -142.83119292 144.1524099 -152 151 C-161.11423729 158.62092832 -168.04498253 167.1645349 -173 178 C-173.31743164 178.68868164 -173.63486328 179.37736328 -173.96191406 180.08691406 C-184.35922723 203.36987452 -189.08300902 229.408321 -193.9375 254.3125 C-194.08115997 255.04759796 -194.22481995 255.78269592 -194.37283325 256.54006958 C-207.92534783 326.47104478 -197.12433954 414.11723946 -156.8125 474.375 C-152.55356512 480.52913147 -147.8602657 486.31486392 -143 492 C-142.10179536 493.07071854 -141.20470632 494.14237368 -140.30859375 495.21484375 C-134.67948649 501.93710573 -128.9722735 508.57852986 -123 515 C-121.79150391 516.32451172 -121.79150391 516.32451172 -120.55859375 517.67578125 C-107.16164703 531.79149114 -90.36254189 540.59750789 -73 549 C-72.31083496 549.33402832 -71.62166992 549.66805664 -70.91162109 550.01220703 C-29.25424843 569.66191112 25.80182921 571.27092404 68.765625 555.9765625 C92.13551782 547.31943541 114.4831112 535.1690866 132.7734375 518.0703125 C134.79346607 516.19204032 136.87292679 514.44169981 139 512.6875 C146.56533259 506.08893405 153.13456433 497.75778421 158 489 C158 488.34 158 487.68 158 487 C158.66 487.33 159.32 487.66 160 488 C193.03959963 490.512987 223.85337573 470.74820969 248.28125 450.34375 C262.97233492 437.67902162 274.79307086 423.81875028 286 408 C286.44408203 407.37577148 286.88816406 406.75154297 287.34570312 406.10839844 C299.27178052 389.13070615 318.80377489 356.68864812 315.58984375 335.3828125 C312.6847182 323.64687484 304.12198587 314.51474655 294.140625 308.15625 C289.31138373 305.54775472 285.54492912 304.40590045 280 305 C271.24487486 309.81531883 266.10858944 322.10680585 261.375 330.5 C255.22975553 341.19666665 248.58213018 351.27110738 241 361 C240.52997559 361.60376465 240.05995117 362.2075293 239.57568359 362.82958984 C222.14086732 384.92770922 199.03919116 399.88066392 175 414 C175.65319538 410.85574481 176.79484371 408.38467918 178.27734375 405.546875 C182.2624124 396.89227389 183.73884459 387.54377774 185.5625 378.25 C185.75731964 377.27635498 185.95213928 376.30270996 186.15286255 375.29956055 C189.55339558 358.27371509 192.32509821 341.29118266 194 324 C194.10892578 322.87980469 194.21785156 321.75960938 194.33007812 320.60546875 C201.30222558 245.27119628 203.97815862 162.0438671 155 100 C153.95585938 98.65421875 153.95585938 98.65421875 152.890625 97.28125 C150.9603713 94.82456347 148.99247918 92.40650083 147 90 C146.57283691 89.48260254 146.14567383 88.96520508 145.70556641 88.43212891 C115.73580335 52.29549072 82.77236615 33.4838092 35.55175781 28.31347656 C-5.20169082 24.71659534 -46.34026862 34.38523395 -78 61 Z " fill="#000000" transform="translate(206,0)"/>
<path d="M0 0 C9.14063734 7.9715158 16.61913661 16.67910835 23 27 C23.67417969 28.06347656 24.34835937 29.12695312 25.04296875 30.22265625 C32.96814394 43.32908717 38.57179094 57.21724661 41.4765625 72.26953125 C41.68618118 73.3394632 41.89579987 74.40939514 42.11177063 75.51174927 C44.4386108 87.76253005 46.1017175 100.09941805 47.68530273 112.46484375 C48.18637752 116.36626023 48.70457269 120.26513332 49.22460938 124.1640625 C52.32149019 147.73409633 54.36453147 171.18015445 54.26074219 194.96386719 C54.24991516 197.89799254 54.26079886 200.83151646 54.2734375 203.765625 C54.28177632 213.31814407 54.01445915 222.80226787 53.171875 232.3203125 C53.10276917 233.14892792 53.03366333 233.97754333 52.96246338 234.83126831 C52.36529021 240.81185543 50.89648545 246.30423896 49 252 C17.80238063 250.86810538 -15.87379388 238.49634712 -38 216 C-41.17056502 212.45743727 -44.10555862 208.77039075 -47 205 C-47.42539063 204.44957031 -47.85078125 203.89914062 -48.2890625 203.33203125 C-53.83744598 196.11264339 -58.97208139 188.68936135 -63.75 180.9375 C-64.1732959 180.25486084 -64.5965918 179.57222168 -65.03271484 178.86889648 C-72.47677396 166.55270211 -77.86636802 153.80305298 -82.5625 140.25 C-82.98496002 139.0397818 -82.98496002 139.0397818 -83.41595459 137.80511475 C-90.90860514 116.242961 -95.63309232 94.72137075 -98 72 C-98.13148438 70.84113281 -98.26296875 69.68226563 -98.3984375 68.48828125 C-100.5029419 46.73225607 -101.15896611 21.71395833 -86.59375 3.8046875 C-64.31514023 -21.4225618 -25.44724903 -20.74109213 0 0 Z M-79.8125 4.55859375 C-93.90670933 20.28873809 -93.76877467 41.10278884 -93 61 C-92.41966505 70.05296562 -91.31193523 79.02663075 -90 88 C-89.85498047 89.00401855 -89.70996094 90.00803711 -89.56054688 91.04248047 C-82.39277814 137.96654223 -60.04208801 193.83555459 -20.6875 222.9375 C-1.18483197 236.76227678 21.62264665 242.74600942 45 246 C45.32069766 244.4183067 45.6308975 242.83448591 45.9375 241.25 C46.11152344 240.36828125 46.28554688 239.4865625 46.46484375 238.578125 C47.79008526 229.71738614 48.16137951 220.81592346 48.203125 211.8671875 C48.21027527 210.84544937 48.21742554 209.82371124 48.22479248 208.77101135 C48.35293506 185.00382248 47.98434944 161.5986035 45 138 C44.86662231 136.93579834 44.73324463 135.87159668 44.5958252 134.77514648 C43.47954022 125.90707069 42.31327054 117.04619315 41.125 108.1875 C40.8779834 106.32458817 40.8779834 106.32458817 40.62597656 104.42404175 C39.00300883 92.29366353 37.27937619 80.23740879 34.47265625 68.31640625 C34.28111969 67.50060593 34.08958313 66.6848056 33.89224243 65.84428406 C27.47442399 40.12282126 10.70082281 13.21006743 -11.8125 -1.25 C-32.69950868 -13.20870855 -62.04060268 -12.72913329 -79.8125 4.55859375 Z " fill="#000000" transform="translate(264,137)"/>
<path d="M0 0 C3.41383532 1.64674802 4.32050999 4.95826773 5.79296875 8.265625 C14.50521592 26.63496869 27.96601643 41.03383345 42.16796875 55.328125 C43.07764404 56.247146 43.98731934 57.16616699 44.92456055 58.11303711 C51.01296623 64.17298463 57.39711927 69.65776772 64.10546875 75.015625 C65.14472269 75.89076287 66.17984076 76.77088984 67.20703125 77.66015625 C102.83386676 108.26835085 145.7641217 124.14060706 192.10546875 129.015625 C188.09358281 134.31751858 184.15695728 137.66266887 178.23046875 140.640625 C177.49594482 141.01960937 176.7614209 141.39859375 176.00463867 141.7890625 C146.83340501 156.34508126 112.88064822 151.38529734 82.79296875 141.578125 C51.51224044 130.33661326 23.11608521 97.66552393 9.10546875 68.015625 C-0.11789525 47.3670449 -4.62394864 23.6275641 -3.89453125 1.015625 C-1.89453125 0.015625 -1.89453125 0.015625 0 0 Z M3.10546875 19.015625 C4.10546875 21.015625 4.10546875 21.015625 4.10546875 21.015625 Z M4.10546875 21.015625 C3.18046914 53.68661112 21.75071685 82.25760898 43.296875 105.078125 C44.23243938 106.05789701 45.16864516 107.03705694 46.10546875 108.015625 C46.81872314 108.76972656 46.81872314 108.76972656 47.54638672 109.5390625 C71.06421938 134.30625546 100.38334947 143.32951904 134.10546875 145.015625 C135.7296875 145.11230469 135.7296875 145.11230469 137.38671875 145.2109375 C151.51197914 145.67969614 163.49042018 140.7671669 176.10546875 135.015625 C175.77546875 134.355625 175.44546875 133.695625 175.10546875 133.015625 C172.98468402 132.3930729 172.98468402 132.3930729 170.3828125 132.0078125 C169.38145264 131.83024414 168.38009277 131.65267578 167.34838867 131.46972656 C165.71220581 131.18307129 165.71220581 131.18307129 164.04296875 130.890625 C131.11987918 124.67988066 99.45125982 110.78422311 73.10546875 90.015625 C72.43209473 89.48501465 71.7587207 88.9544043 71.06494141 88.40771484 C63.59321679 82.48498508 56.2731849 76.42904083 49.25 69.9765625 C47.29911992 68.19269766 45.30798827 66.47609706 43.29296875 64.765625 C30.83854055 53.87430317 20.41654706 41.51432222 10.46606445 28.34179688 C8.4838614 25.73067611 6.51052372 23.24999865 4.10546875 21.015625 Z " fill="#000000" transform="translate(91.89453125,332.984375)"/>
<path d="M0 0 C0.99 0.33 1.98 0.66 3 1 C3 2.32 3 3.64 3 5 C3.33 5.66 3.66 6.32 4 7 C3.39421747 9.01927511 2.73080266 11.02253397 2 13 C2.886875 13.53625 3.77375 14.0725 4.6875 14.625 C9.01729597 17.50811058 12.3296847 20.98905409 14 26 C14.68911868 33.19636789 14.94090617 39.38018859 10.5 45.34765625 C5.23056218 51.15227135 0.8379295 53.06418117 -7 53.75 C-8.2375 53.86859375 -9.475 53.9871875 -10.75 54.109375 C-14 54 -14 54 -15.71875 52.69140625 C-16.1415625 52.13324219 -16.564375 51.57507813 -17 51 C-18.16223168 50.05700748 -19.32904673 49.11964044 -20.5 48.1875 C-24.6851794 44.54205832 -26.68822534 41.6798608 -27.34765625 36.01171875 C-27.67840434 28.65893438 -27.02180251 23.53182933 -22 18 C-18.4863373 14.49512146 -15.43688139 12.08816503 -10.30078125 11.90234375 C-9.31464844 11.91394531 -8.32851562 11.92554688 -7.3125 11.9375 C-6.31863281 11.94652344 -5.32476562 11.95554688 -4.30078125 11.96484375 C-3.16189453 11.98224609 -3.16189453 11.98224609 -2 12 C-2.99 10.68 -3.98 9.36 -5 8 C-3.35 5.36 -1.7 2.72 0 0 Z " fill="#000000" transform="translate(121,126)"/>
<path d="M0 0 C1.32 0 2.64 0 4 0 C4.51046875 1.15113281 5.0209375 2.30226563 5.546875 3.48828125 C13.01005075 19.96596705 21.92037441 35.45152701 34 49 C34.76183594 49.85851562 35.52367187 50.71703125 36.30859375 51.6015625 C37.82664687 53.29625249 39.35244381 54.98404469 40.88671875 56.6640625 C42.78442317 58.7617099 44.6134993 60.90103782 46.4375 63.0625 C74.1614415 94.54137714 119.34264778 115.14976011 161 118 C191.90831738 119.12005792 221.59222845 116.2287901 251 106 C249.03617993 104.49440461 247.21736634 103.10868317 245 102 C245.33 100.68 245.66 99.36 246 98 C251.47932789 99.54545146 256.11429181 102.15543212 261 105 C259.36041242 110.23272633 257.61047965 115.15196636 255 120 C253.68 119.67 252.36 119.34 251 119 C252.875 113.25 252.875 113.25 254 111 C248.06199821 112.47860177 242.12689171 113.96526126 236.203125 115.5 C192.53370807 126.63427945 146.96688487 126.77922812 105 109 C104.32936523 108.71817871 103.65873047 108.43635742 102.96777344 108.14599609 C86.61682775 101.15884115 71.30447865 91.82378381 58 80 C56.83404297 78.99646484 56.83404297 78.99646484 55.64453125 77.97265625 C53.04676941 75.69696603 50.51682816 73.36504189 48 71 C47.44296387 70.47696289 46.88592773 69.95392578 46.31201172 69.41503906 C26.71142259 50.85271723 10.0158158 28.21628918 0 3 C0 2.01 0 1.02 0 0 Z " fill="#000000" transform="translate(7,483)"/>
<path d="M0 0 C0.99 0 1.98 0 3 0 C3.31710938 1.2375 3.63421875 2.475 3.9609375 3.75 C13.80425588 40.80549438 30.86315879 71.80730284 64.65917969 91.55371094 C75.18732057 97.54620102 85.86604223 103.21029741 97 108 C96.67 106.02 96.34 104.04 96 102 C96.99 102 97.98 102 99 102 C99.50615298 103.26839526 100.00469099 104.53983102 100.5 105.8125 C100.7784375 106.52019531 101.056875 107.22789062 101.34375 107.95703125 C102 110 102 110 102 113 C100.73160474 113.50615298 99.46016898 114.00469099 98.1875 114.5 C97.47980469 114.7784375 96.77210938 115.056875 96.04296875 115.34375 C94 116 94 116 91 116 C91 115.01 91 114.02 91 113 C92.32 112.34 93.64 111.68 95 111 C94.38705078 110.71390869 93.77410156 110.42781738 93.14257812 110.13305664 C75.31790269 101.78565581 58.17445941 93.66498809 43 81 C42.04351562 80.20851563 41.08703125 79.41703125 40.1015625 78.6015625 C18.67370673 60.05476297 2.30475351 28.31062888 0 0 Z " fill="#000000" transform="translate(185,246)"/>
<path d="M0 0 C3.18961148 1.91376689 4.25364903 4.82439267 5.875 8.125 C5.875 8.785 5.875 9.445 5.875 10.125 C3.9375 9.75 3.9375 9.75 1.875 9.125 C1.38 8.135 1.38 8.135 0.875 7.125 C0.63555664 7.66592285 0.39611328 8.2068457 0.14941406 8.76416016 C-0.93919256 11.21905766 -2.03142179 13.67231317 -3.125 16.125 C-3.46982422 16.8994043 -3.81464844 17.67380859 -4.16992188 18.47167969 C-8.62922016 28.40605213 -13.08368501 37.71340984 -20.125 46.125 C-20.84558594 47.00671875 -21.56617188 47.8884375 -22.30859375 48.796875 C-26.78138098 54.0370902 -31.65659729 59.3916979 -38.125 62.125 C-40.38671875 61.76953125 -40.38671875 61.76953125 -42.125 61.125 C-40.06212783 58.96088257 -37.94208539 57.21850453 -35.5 55.5 C-18.72426984 42.93356477 -10.14997769 24.3970627 -3.125 5.125 C-5.105 5.785 -7.085 6.445 -9.125 7.125 C-9 5.3125 -9 5.3125 -8.125 3.125 C-5.38998357 1.36243386 -3.27791852 0.19281874 0 0 Z " fill="#000000" transform="translate(446.125,317.875)"/>
<path d="M0 0 C1.4540625 0.0309375 1.4540625 0.0309375 2.9375 0.0625 C5.0625 4.6875 5.0625 4.6875 3.9375 8.0625 C4.26300502 9.73071323 4.59596063 11.39749557 4.9375 13.0625 C4.6075 13.7225 4.2775 14.3825 3.9375 15.0625 C1.125 15.9375 1.125 15.9375 -2.0625 16.0625 C-4.4375 14.125 -4.4375 14.125 -6.0625 12.0625 C-2.43923261 10.8547442 -1.42103631 11.51938872 1.9375 13.0625 C1.9375 11.7425 1.9375 10.4225 1.9375 9.0625 C0.6175 9.0625 -0.7025 9.0625 -2.0625 9.0625 C-2.0625 8.0725 -2.0625 7.0825 -2.0625 6.0625 C-0.7425 6.0625 0.5775 6.0625 1.9375 6.0625 C1.6075 5.0725 1.2775 4.0825 0.9375 3.0625 C-1.0425 3.7225 -3.0225 4.3825 -5.0625 5.0625 C-3.9375 0.08035714 -3.9375 0.08035714 0 0 Z " fill="#000000" transform="translate(255.0625,289.9375)"/>
<path d="M0 0 C3.0625 0.1875 3.0625 0.1875 5.0625 2.1875 C4.90004442 5.92397845 4.47466356 7.71288742 2 10.5625 C1.360625 11.09875 0.72125 11.635 0.0625 12.1875 C1.7125 12.5175 3.3625 12.8475 5.0625 13.1875 C5.0625 13.8475 5.0625 14.5075 5.0625 15.1875 C1.7625 15.1875 -1.5375 15.1875 -4.9375 15.1875 C-2.9375 11.1875 -2.9375 11.1875 -0.8125 8.625 C1.36735538 6.30372611 1.36735538 6.30372611 1.0625 3.1875 C0.4025 3.1875 -0.2575 3.1875 -0.9375 3.1875 C-1.2675 3.8475 -1.5975 4.5075 -1.9375 5.1875 C-2.9275 5.1875 -3.9175 5.1875 -4.9375 5.1875 C-3.82120474 0.24390669 -3.82120474 0.24390669 0 0 Z " fill="#000000" transform="translate(397.9375,26.8125)"/>
<path d="M0 0 C0.99 0 1.98 0 3 0 C3 3.3 3 6.6 3 10 C3.66 10 4.32 10 5 10 C5 10.66 5 11.32 5 12 C4.34 12 3.68 12 3 12 C3 12.99 3 13.98 3 15 C2.34 15 1.68 15 1 15 C1 14.01 1 13.02 1 12 C-1.31 12 -3.62 12 -6 12 C-5.56629155 7.2292071 -3.35665609 3.36635741 0 0 Z M0 4 C-0.99 5.98 -1.98 7.96 -3 10 C-1.68 10 -0.36 10 1 10 C1 8.02 1 6.04 1 4 C0.67 4 0.34 4 0 4 Z " fill="#000000" transform="translate(426,329)"/>
<path d="M0 0 C2 1 2 1 3 3.625 C3 8.09015738 1.32683964 9.54441933 -1.65234375 12.6796875 C-2.09707031 13.11539063 -2.54179687 13.55109375 -3 14 C-3.99 13.34 -4.98 12.68 -6 12 C-6 7.58116545 -4.86839604 4.94501922 -1.875 1.6875 C-1.25625 1.130625 -0.6375 0.57375 0 0 Z " fill="#000000" transform="translate(144,94)"/>
<path d="M0 0 C0.66 1.98 1.32 3.96 2 6 C0.90716423 7.03295436 -0.19970579 8.05107835 -1.3125 9.0625 C-1.92738281 9.63097656 -2.54226562 10.19945313 -3.17578125 10.78515625 C-3.77777344 11.18605469 -4.37976563 11.58695313 -5 12 C-5.99 11.67 -6.98 11.34 -8 11 C-8 9 -8 7 -8 5 C-2.65116279 0 -2.65116279 0 0 0 Z " fill="#000000" transform="translate(160,81)"/>
<path d="M0 0 C2 1 2 1 2.9375 3.5625 C3.02585143 8.42182881 0.80473177 11.17624803 -2 15 C-2.99 14.67 -3.98 14.34 -5 14 C-5 7.73360381 -4.21177901 4.75523436 0 0 Z " fill="#000000" transform="translate(132,109)"/>
<path d="M0 0 C0.99 0 1.98 0 3 0 C2.125 4.75 2.125 4.75 1 7 C2.32 7 3.64 7 5 7 C5 7.99 5 8.98 5 10 C-1.4 11.35384615 -1.4 11.35384615 -4.4375 9.5625 C-4.953125 9.046875 -5.46875 8.53125 -6 8 C-5.67 7.34 -5.34 6.68 -5 6 C-4.01 6 -3.02 6 -2 6 C-1.34 4.02 -0.68 2.04 0 0 Z " fill="#000000" transform="translate(337,442)"/>
<path d="M0 0 C0 4.95 0 9.9 0 15 C-0.99 15 -1.98 15 -3 15 C-3 11.37 -3 7.74 -3 4 C-3.99 4.33 -4.98 4.66 -6 5 C-5.625 3.0625 -5.625 3.0625 -5 1 C-3 0 -3 0 0 0 Z " fill="#000000" transform="translate(80,594)"/>
<path d="M0 0 C0 4.95 0 9.9 0 15 C-0.99 15 -1.98 15 -3 15 C-3 11.37 -3 7.74 -3 4 C-3.99 4.33 -4.98 4.66 -6 5 C-5.625 3.0625 -5.625 3.0625 -5 1 C-3 0 -3 0 0 0 Z " fill="#000000" transform="translate(412,329)"/>
<path d="M0 0 C0 4.95 0 9.9 0 15 C-0.99 15 -1.98 15 -3 15 C-3 11.37 -3 7.74 -3 4 C-3.99 4.33 -4.98 4.66 -6 5 C-5.625 3.0625 -5.625 3.0625 -5 1 C-3 0 -3 0 0 0 Z " fill="#000000" transform="translate(242,290)"/>
<path d="M0 0 C0 4.95 0 9.9 0 15 C-0.99 15 -1.98 15 -3 15 C-3 11.37 -3 7.74 -3 4 C-3.99 4.33 -4.98 4.66 -6 5 C-5.625 3.0625 -5.625 3.0625 -5 1 C-3 0 -3 0 0 0 Z " fill="#000000" transform="translate(385,27)"/>
<path d="M0 0 C0 4.95 0 9.9 0 15 C-0.66 15 -1.32 15 -2 15 C-2.33 11.37 -2.66 7.74 -3 4 C-3.99 4.33 -4.98 4.66 -6 5 C-6 4.01 -6 3.02 -6 2 C-3 0 -3 0 0 0 Z " fill="#000000" transform="translate(92,594)"/>
<path d="M0 0 C0 0.66 0 1.32 0 2 C-1.42578125 3.32421875 -1.42578125 3.32421875 -3.3125 4.6875 C-3.92738281 5.14511719 -4.54226562 5.60273437 -5.17578125 6.07421875 C-5.77777344 6.37972656 -6.37976563 6.68523437 -7 7 C-7.99 6.67 -8.98 6.34 -10 6 C-10 4.68 -10 3.36 -10 2 C-3.375 -1.125 -3.375 -1.125 0 0 Z " fill="#000000" transform="translate(178,74)"/>
<path d="M0 0 C0.66 0.33 1.32 0.66 2 1 C0.51218185 4.78717347 -1.61988409 6.77407001 -5 9 C-5.99 8.67 -6.98 8.34 -8 8 C-5.58443874 4.80800833 -3.31996462 2.25283313 0 0 Z " fill="#000000" transform="translate(304,492)"/>
<path d="M0 0 C3 1 3 1 4.6875 4.375 C6 8 6 8 6 11 C5.01 11 4.02 11 3 11 C1.68 7.7 0.36 4.4 -1 1 C-0.67 0.67 -0.34 0.34 0 0 Z " fill="#000000" transform="translate(347,163)"/>
<path d="M0 0 C3 1 3 1 4.16796875 3.06640625 C4.50441406 3.89011719 4.84085937 4.71382812 5.1875 5.5625 C5.53167969 6.38878906 5.87585938 7.21507812 6.23046875 8.06640625 C6.48441406 8.70449219 6.73835938 9.34257812 7 10 C6.01 10.33 5.02 10.66 4 11 C2.35 7.7 0.7 4.4 -1 1 C-0.67 0.67 -0.34 0.34 0 0 Z " fill="#000000" transform="translate(338,145)"/>
<path d="M0 0 C7.625 0.875 7.625 0.875 11 2 C11 2.99 11 3.98 11 5 C7.37 4.34 3.74 3.68 0 3 C0 2.01 0 1.02 0 0 Z " fill="#000000" transform="translate(180,519)"/>
<path d="M0 0 C-1 3 -1 3 -4.375 4.6875 C-8 6 -8 6 -11 6 C-11 5.01 -11 4.02 -11 3 C-4.5 0 -4.5 0 0 0 Z " fill="#000000" transform="translate(272,516)"/>
<path d="M0 0 C3.43595166 1.52708963 6.11912454 3.59927045 9 6 C8.67 6.99 8.34 7.98 8 9 C3.7257442 7.4169423 1.73468206 4.49431596 -1 1 C-0.67 0.67 -0.34 0.34 0 0 Z " fill="#000000" transform="translate(110,479)"/>
<path d="M0 0 C0 0.99 0 1.98 0 3 C-1.28913487 3.67154933 -2.58140204 4.33708859 -3.875 5 C-4.59429687 5.37125 -5.31359375 5.7425 -6.0546875 6.125 C-8 7 -8 7 -10 7 C-9.875 5.1875 -9.875 5.1875 -9 3 C-5.79116175 1.04679411 -3.7794561 0 0 0 Z " fill="#000000" transform="translate(419,432)"/>
<path d="M0 0 C0.99 0.33 1.98 0.66 3 1 C3.94921875 3.06640625 3.94921875 3.06640625 4.6875 5.5625 C4.93886719 6.38878906 5.19023438 7.21507812 5.44921875 8.06640625 C5.63097656 8.70449219 5.81273438 9.34257812 6 10 C5.01 10.33 4.02 10.66 3 11 C1.68 7.7 0.36 4.4 -1 1 C-0.67 0.67 -0.34 0.34 0 0 Z " fill="#000000" transform="translate(76,428)"/>
<path d="M0 0 C0.99 0 1.98 0 3 0 C6 6.5 6 6.5 6 11 C5.01 11 4.02 11 3 11 C2.01 7.37 1.02 3.74 0 0 Z " fill="#000000" transform="translate(68,409)"/>
<path d="M0 0 C5.75 3.75 5.75 3.75 8 6 C8 6.99 8 7.98 8 9 C4.06326356 7.68775452 1.77280706 6.08089673 -1 3 C-0.67 2.01 -0.34 1.02 0 0 Z " fill="#000000" transform="translate(176,367)"/>
<path d="M0 0 C0.99 0.33 1.98 0.66 3 1 C3 4.3 3 7.6 3 11 C2.01 11.33 1.02 11.66 0 12 C0 8.04 0 4.08 0 0 Z " fill="#000000" transform="translate(57,328)"/>
<path d="M0 0 C1.32 0.33 2.64 0.66 4 1 C4.33 4.3 4.66 7.6 5 11 C4.01 10.67 3.02 10.34 2 10 C1.34 6.7 0.68 3.4 0 0 Z " fill="#000000" transform="translate(359,202)"/>
<path d="M0 0 C4.04131267 1.34710422 4.90288434 3.38428334 7 7 C7 7.99 7 8.98 7 10 C2.33845958 8.50164772 1.13389249 5.11536409 -1 1 C-0.67 0.67 -0.34 0.34 0 0 Z " fill="#000000" transform="translate(327,128)"/>
<path d="M0 0 C3.63 0 7.26 0 11 0 C11 0.99 11 1.98 11 3 C7.37 3 3.74 3 0 3 C0 2.01 0 1.02 0 0 Z " fill="#000000" transform="translate(221,525)"/>
<path d="M0 0 C0 0.99 0 1.98 0 3 C-3.63 3.66 -7.26 4.32 -11 5 C-11 4.01 -11 3.02 -11 2 C-3.375 0 -3.375 0 0 0 Z " fill="#000000" transform="translate(252,522)"/>
<path d="M0 0 C3.63 0.33 7.26 0.66 11 1 C11 1.99 11 2.98 11 4 C3.57142857 4.14285714 3.57142857 4.14285714 0 3 C0 2.01 0 1.02 0 0 Z " fill="#000000" transform="translate(200,523)"/>
<path d="M0 0 C-1.45124634 3.82601307 -3.35774704 5.22329124 -7 7 C-7.99 7 -8.98 7 -10 7 C-10 6.01 -10 5.02 -10 4 C-3.375 0 -3.375 0 0 0 Z " fill="#000000" transform="translate(290,506)"/>
<path d="M0 0 C7.71428571 4 7.71428571 4 9 8 C4.59885603 7.49701212 2.28804981 5.91227269 -1 3 C-0.67 2.01 -0.34 1.02 0 0 Z " fill="#000000" transform="translate(126,492)"/>
<path d="M0 0 C2.93200474 2.85276137 5.64315404 5.65079784 8 9 C6.68 9 5.36 9 4 9 C1.1875 6.1875 1.1875 6.1875 -1 3 C-0.67 2.01 -0.34 1.02 0 0 Z " fill="#000000" transform="translate(97,463)"/>
<path d="M0 0 C0.99 0.33 1.98 0.66 3 1 C0.525 5.455 0.525 5.455 -2 10 C-2.99 10 -3.98 10 -5 10 C-3.66511872 6.40608886 -2.03977277 3.24509304 0 0 Z " fill="#000000" transform="translate(328,460)"/>
<path d="M0 0 C3.63 0 7.26 0 11 0 C11 0.99 11 1.98 11 3 C7.37 3 3.74 3 0 3 C0 2.01 0 1.02 0 0 Z " fill="#000000" transform="translate(351,449)"/>
<path d="M0 0 C0 0.99 0 1.98 0 3 C-3.67410785 4.17571451 -7.16929183 4.07366746 -11 4 C-10.67 3.01 -10.34 2.02 -10 1 C-6.59437148 0.22157062 -3.49234244 -0.09978121 0 0 Z " fill="#000000" transform="translate(382,446)"/>
<path d="M0 0 C3.48331435 3.01887244 4.79157144 5.56909529 6 10 C5.01 10 4.02 10 3 10 C0.75 7.25 0.75 7.25 -1 4 C-0.75 1.625 -0.75 1.625 0 0 Z " fill="#000000" transform="translate(86,446)"/>
<path d="M0 0 C0 0.99 0 1.98 0 3 C-4.95 4.485 -4.95 4.485 -10 6 C-10.33 5.01 -10.66 4.02 -11 3 C-9.73160474 2.49384702 -8.46016898 1.99530901 -7.1875 1.5 C-6.12595703 1.08234375 -6.12595703 1.08234375 -5.04296875 0.65625 C-3 0 -3 0 0 0 Z " fill="#000000" transform="translate(401,440)"/>
<path d="M0 0 C4.455 1.98 4.455 1.98 9 4 C9 4.99 9 5.98 9 7 C5.04179141 6.43454163 2.3340947 5.19097652 -1 3 C-0.67 2.01 -0.34 1.02 0 0 Z " fill="#000000" transform="translate(257,424)"/>
<path d="M0 0 C3.66881155 0.70554068 6.70450534 2.27735506 10 4 C9.67 4.99 9.34 5.98 9 7 C5.40608886 5.66511872 2.24509304 4.03977277 -1 2 C-0.67 1.34 -0.34 0.68 0 0 Z " fill="#000000" transform="translate(239,415)"/>
<path d="M0 0 C0.99 0.33 1.98 0.66 3 1 C1.49776416 5.20626034 -1.28550034 6.73900021 -5 9 C-5 5 -5 5 -2.5 2.25 C-1.675 1.5075 -0.85 0.765 0 0 Z " fill="#000000" transform="translate(448,408)"/>
<path d="M0 0 C3.59391114 1.33488128 6.75490696 2.96022723 10 5 C9.67 5.99 9.34 6.98 9 8 C7.67968405 7.43457996 6.3688699 6.84693528 5.0625 6.25 C3.96615234 5.76273437 3.96615234 5.76273437 2.84765625 5.265625 C1 4 1 4 0.24609375 1.859375 C0.16488281 1.24578125 0.08367187 0.6321875 0 0 Z " fill="#000000" transform="translate(222,404)"/>
<path d="M0 0 C0.99 0 1.98 0 3 0 C2 7.42857143 2 7.42857143 1 11 C0.01 11 -0.98 11 -2 11 C-1 3.57142857 -1 3.57142857 0 0 Z " fill="#000000" transform="translate(351,403)"/>
<path d="M0 0 C0.99 0.66 1.98 1.32 3 2 C0.69 4.64 -1.62 7.28 -4 10 C-4.66 9.67 -5.32 9.34 -6 9 C-4.47291037 5.56404834 -2.40072955 2.88087546 0 0 Z " fill="#000000" transform="translate(462,393)"/>
<path d="M0 0 C0.66 0 1.32 0 2 0 C3.19287411 3.87684087 4 6.91621923 4 11 C3.01 11 2.02 11 1 11 C0.63890458 9.35567294 0.28629924 7.7094792 -0.0625 6.0625 C-0.25972656 5.14597656 -0.45695312 4.22945313 -0.66015625 3.28515625 C-0.77230469 2.53105469 -0.88445313 1.77695312 -1 1 C-0.67 0.67 -0.34 0.34 0 0 Z " fill="#000000" transform="translate(64,389)"/>
<path d="M0 0 C0.99 0 1.98 0 3 0 C2.85892253 1.45880109 2.71197585 2.91703551 2.5625 4.375 C2.48128906 5.18710937 2.40007812 5.99921875 2.31640625 6.8359375 C2 9 2 9 1 11 C0.01 11 -0.98 11 -2 11 C-1.85892253 9.54119891 -1.71197585 8.08296449 -1.5625 6.625 C-1.48128906 5.81289063 -1.40007812 5.00078125 -1.31640625 4.1640625 C-1 2 -1 2 0 0 Z " fill="#000000" transform="translate(364,343)"/>
<path d="M0 0 C0.99 0 1.98 0 3 0 C2.67 3.63 2.34 7.26 2 11 C1.01 11 0.02 11 -1 11 C-0.67 7.37 -0.34 3.74 0 0 Z " fill="#000000" transform="translate(366,323)"/>
<path d="M0 0 C0.99 0 1.98 0 3 0 C3 3.63 3 7.26 3 11 C2.01 11 1.02 11 0 11 C0 7.37 0 3.74 0 0 Z " fill="#000000" transform="translate(57,308)"/>
<path d="M0 0 C0.99 0 1.98 0 3 0 C3 3.63 3 7.26 3 11 C2.01 11 1.02 11 0 11 C0 7.37 0 3.74 0 0 Z " fill="#000000" transform="translate(368,282)"/>
<path d="M0 0 C0.99 0 1.98 0 3 0 C3 3.63 3 7.26 3 11 C2.01 11 1.02 11 0 11 C0 7.37 0 3.74 0 0 Z " fill="#000000" transform="translate(368,262)"/>
<path d="M0 0 C0.66 0 1.32 0 2 0 C3.19287411 3.87684087 4 6.91621923 4 11 C3.01 11 2.02 11 1 11 C0.63890458 9.35567294 0.28629924 7.7094792 -0.0625 6.0625 C-0.25972656 5.14597656 -0.45695312 4.22945312 -0.66015625 3.28515625 C-0.77230469 2.53105469 -0.88445312 1.77695313 -1 1 C-0.67 0.67 -0.34 0.34 0 0 Z " fill="#000000" transform="translate(111,248)"/>
<path d="M0 0 C2.96404505 2.80804268 5.44499019 5.18315774 7 9 C4 9 4 9 2.39453125 7.46875 C1.87246094 6.8190625 1.35039062 6.169375 0.8125 5.5 C0.28269531 4.8503125 -0.24710937 4.200625 -0.79296875 3.53125 C-1.19128906 3.0259375 -1.58960938 2.520625 -2 2 C-1.34 1.34 -0.68 0.68 0 0 Z " fill="#000000" transform="translate(315,112)"/>
<path d="M0 0 C1.34173403 0.92543709 2.67320159 1.86577405 4 2.8125 C5.11375 3.59560547 5.11375 3.59560547 6.25 4.39453125 C7.11625 5.18923828 7.11625 5.18923828 8 6 C8 6.99 8 7.98 8 9 C3.75177626 8.52797514 1.80010291 6.03344482 -1 3 C-0.67 2.01 -0.34 1.02 0 0 Z " fill="#000000" transform="translate(300,98)"/>
<path d="M0 0 C3.63 0.33 7.26 0.66 11 1 C11 1.99 11 2.98 11 4 C7.37 3.67 3.74 3.34 0 3 C0 2.01 0 1.02 0 0 Z " fill="#000000" transform="translate(226,66)"/>
<path d="M0 0 C3.63 0 7.26 0 11 0 C11 0.99 11 1.98 11 3 C7.37 3 3.74 3 0 3 C0 2.01 0 1.02 0 0 Z " fill="#000000" transform="translate(206,65)"/>
<path d="M0 0 C3.63 1.32 7.26 2.64 11 4 C10.67 4.66 10.34 5.32 10 6 C3.375 5.25 3.375 5.25 0 3 C0 2.01 0 1.02 0 0 Z " fill="#000000" transform="translate(161,512)"/>
<path d="M0 0 C3.3 1.65 6.6 3.3 10 5 C9.01 6.485 9.01 6.485 8 8 C5.03 6.35 2.06 4.7 -1 3 C-0.67 2.01 -0.34 1.02 0 0 Z " fill="#000000" transform="translate(143,503)"/>
<path d="M0 0 C3.63 0.66 7.26 1.32 11 2 C10.67 2.99 10.34 3.98 10 5 C6.7 4.34 3.4 3.68 0 3 C0 2.01 0 1.02 0 0 Z " fill="#000000" transform="translate(312,445)"/>
<path d="M0 0 C3.9492568 0.55105909 7.34920174 1.38935371 11 3 C10.67 3.99 10.34 4.98 10 6 C8.5164999 5.57742724 7.03823576 5.13643678 5.5625 4.6875 C4.73878906 4.44386719 3.91507812 4.20023437 3.06640625 3.94921875 C2.04353516 3.47935547 2.04353516 3.47935547 1 3 C0.67 2.01 0.34 1.02 0 0 Z " fill="#000000" transform="translate(274,433)"/>
<path d="M0 0 C0.99 0 1.98 0 3 0 C2.01 3.3 1.02 6.6 0 10 C-0.99 10 -1.98 10 -3 10 C-2.49287967 6.28111761 -1.88391785 3.26545761 0 0 Z " fill="#000000" transform="translate(345,423)"/>
<path d="M0 0 C0.99 0.33 1.98 0.66 3 1 C0.19195732 3.96404505 -2.18315774 6.44499019 -6 8 C-6 6.68 -6 5.36 -6 4 C-3.1875 1.6875 -3.1875 1.6875 0 0 Z " fill="#000000" transform="translate(433,421)"/>
<path d="M0 0 C6.57142857 4 6.57142857 4 8 8 C3.61031544 8 2.23094261 5.87194899 -1 3 C-0.67 2.01 -0.34 1.02 0 0 Z " fill="#000000" transform="translate(191,380)"/>
<path d="M0 0 C0.66 0.33 1.32 0.66 2 1 C0.7508258 4.45925163 -0.67527795 7.14693203 -3 10 C-3.99 9.67 -4.98 9.34 -6 9 C-4.02 6.03 -2.04 3.06 0 0 Z " fill="#000000" transform="translate(474,377)"/>
<path d="M0 0 C0.99 0.33 1.98 0.66 3 1 C3.33 4.3 3.66 7.6 4 11 C3.01 11 2.02 11 1 11 C-0.28317892 7.15046324 -0.06643637 4.05261865 0 0 Z " fill="#000000" transform="translate(60,369)"/>
<path d="M0 0 C0.66 0 1.32 0 2 0 C2.14285714 7.42857143 2.14285714 7.42857143 1 11 C0.01 11 -0.98 11 -2 11 C-1.85957123 9.35369672 -1.71250671 7.70795821 -1.5625 6.0625 C-1.48128906 5.14597656 -1.40007812 4.22945313 -1.31640625 3.28515625 C-1 1 -1 1 0 0 Z " fill="#000000" transform="translate(361,363)"/>
<path d="M0 0 C3.36591866 1.44253657 5.51047079 3.33264727 8 6 C7.67 6.99 7.34 7.98 7 9 C2.79373966 7.49776416 1.26099979 4.71449966 -1 1 C-0.67 0.67 -0.34 0.34 0 0 Z " fill="#000000" transform="translate(162,354)"/>
<path d="M0 0 C3 1 3 1 4.6875 3.875 C6 7 6 7 6 10 C5.01 10 4.02 10 3 10 C1.68 7.03 0.36 4.06 -1 1 C-0.67 0.67 -0.34 0.34 0 0 Z " fill="#000000" transform="translate(130,305)"/>
<path d="M0 0 C0.99 0 1.98 0 3 0 C3 3.63 3 7.26 3 11 C2.01 10.67 1.02 10.34 0 10 C0 6.7 0 3.4 0 0 Z " fill="#000000" transform="translate(367,303)"/>
<path d="M0 0 C0.99 0 1.98 0 3 0 C3 3.3 3 6.6 3 10 C2.01 10.33 1.02 10.66 0 11 C0 7.37 0 3.74 0 0 Z " fill="#000000" transform="translate(58,288)"/>
<path d="M0 0 C1.890625 0.21484375 1.890625 0.21484375 4 1 C5.046875 3.06640625 5.046875 3.06640625 5.75 5.5625 C5.99234375 6.38878906 6.2346875 7.21507812 6.484375 8.06640625 C6.65453125 8.70449219 6.8246875 9.34257812 7 10 C5.109375 9.78515625 5.109375 9.78515625 3 9 C1.953125 6.93359375 1.953125 6.93359375 1.25 4.4375 C1.00765625 3.61121094 0.7653125 2.78492188 0.515625 1.93359375 C0.34546875 1.29550781 0.1753125 0.65742188 0 0 Z " fill="#000000" transform="translate(121,287)"/>
<path d="M0 0 C0.99 0 1.98 0 3 0 C3.99 3.3 4.98 6.6 6 10 C5.01 10.33 4.02 10.66 3 11 C2.49384702 9.73160474 1.99530901 8.46016898 1.5 7.1875 C1.2215625 6.47980469 0.943125 5.77210938 0.65625 5.04296875 C0 3 0 3 0 0 Z " fill="#000000" transform="translate(115,268)"/>
<path d="M0 0 C0.99 0 1.98 0 3 0 C4.17571451 3.67410785 4.07366746 7.16929183 4 11 C3.01 11 2.02 11 1 11 C0.67 7.37 0.34 3.74 0 0 Z " fill="#000000" transform="translate(366,242)"/>
<path d="M0 0 C0.99 0 1.98 0 3 0 C3.33 3.3 3.66 6.6 4 10 C3.01 10.33 2.02 10.66 1 11 C0.67 7.37 0.34 3.74 0 0 Z " fill="#000000" transform="translate(107,229)"/>
<path d="M0 0 C0.99 0.33 1.98 0.66 3 1 C1.68 4.3 0.36 7.6 -1 11 C-1.99 10.34 -2.98 9.68 -4 9 C-2.68 6.03 -1.36 3.06 0 0 Z " fill="#000000" transform="translate(87,195)"/>
<path d="M0 0 C0.66 0 1.32 0 2 0 C3.19287411 3.87684087 4 6.91621923 4 11 C3.01 10.67 2.02 10.34 1 10 C0.234375 7.96875 0.234375 7.96875 -0.25 5.5 C-0.42015625 4.6853125 -0.5903125 3.870625 -0.765625 3.03125 C-0.84296875 2.3609375 -0.9203125 1.690625 -1 1 C-0.67 0.67 -0.34 0.34 0 0 Z " fill="#000000" transform="translate(355,182)"/>
<path d="M0 0 C3.48624056 0.6456001 6.12498789 1.92360237 9 4 C9 4.99 9 5.98 9 7 C5.00544473 6.38545304 2.25533664 4.29353263 -1 2 C-0.67 1.34 -0.34 0.68 0 0 Z " fill="#000000" transform="translate(283,87)"/>
<path d="M0 0 C0 0.66 0 1.32 0 2 C-3.63 2.66 -7.26 3.32 -11 4 C-11 3.01 -11 2.02 -11 1 C-3.57142857 -1.42857143 -3.57142857 -1.42857143 0 0 Z " fill="#000000" transform="translate(197,67)"/>
<path d="M0 0 C0.66 0.33 1.32 0.66 2 1 C0.64978174 5.41889613 -1.26115668 7.34345343 -5 10 C-5 4.69520066 -3.4637943 3.81017373 0 0 Z " fill="#000000" transform="translate(317,477)"/>
<path d="M0 0 C4.95 0.99 4.95 0.99 10 2 C10 2.99 10 3.98 10 5 C6.53058454 4.54177532 3.32604951 4.10868317 0 3 C0 2.01 0 1.02 0 0 Z " fill="#000000" transform="translate(293,440)"/>
<path d="M0 0 C3.87132028 0.57352893 6.08172796 2.48704352 9 5 C8.67 5.99 8.34 6.98 8 8 C6.6589523 7.24266726 5.32730219 6.46867264 4 5.6875 C2.88625 5.04361328 2.88625 5.04361328 1.75 4.38671875 C1.1725 3.92910156 0.595 3.47148437 0 3 C0 2.01 0 1.02 0 0 Z " fill="#000000" transform="translate(206,393)"/>
<path d="M0 0 C0.66 0.33 1.32 0.66 2 1 C1.125 8.75 1.125 8.75 0 11 C-0.99 11 -1.98 11 -3 11 C-2.69217504 9.35328588 -2.37860766 7.70764424 -2.0625 6.0625 C-1.88847656 5.14597656 -1.71445312 4.22945313 -1.53515625 3.28515625 C-1 1 -1 1 0 0 Z " fill="#000000" transform="translate(357,383)"/>
<path d="M0 0 C0.66 0 1.32 0 2 0 C3.20272819 2.40545638 3.10071472 3.94996953 3.0625 6.625 C3.05347656 7.44226563 3.04445312 8.25953125 3.03515625 9.1015625 C3.02355469 9.72804688 3.01195312 10.35453125 3 11 C2.01 11 1.02 11 0 11 C0 7.37 0 3.74 0 0 Z " fill="#000000" transform="translate(58,349)"/>
<path d="M0 0 C1.8125 0.1875 1.8125 0.1875 4 1 C6.14197494 3.90696599 7 5.35521088 7 9 C6.01 9 5.02 9 4 9 C0 2.25 0 2.25 0 0 Z " fill="#000000" transform="translate(138,323)"/>
<path d="M0 0 C0.99 0 1.98 0 3 0 C2.34 3.3 1.68 6.6 1 10 C0.01 10 -0.98 10 -2 10 C-1.54177532 6.53058454 -1.10868317 3.32604951 0 0 Z " fill="#000000" transform="translate(67,250)"/>
<path d="M0 0 C0.99 0.33 1.98 0.66 3 1 C3.33 3.97 3.66 6.94 4 10 C3.01 10.33 2.02 10.66 1 11 C-0.17571451 7.32589215 -0.07366746 3.83070817 0 0 Z " fill="#000000" transform="translate(364,222)"/>
<path d="M0 0 C0.66 0.33 1.32 0.66 2 1 C1.01 3.97 0.02 6.94 -1 10 C-1.99 10 -2.98 10 -4 10 C-3.43454163 6.04179141 -2.19097652 3.3340947 0 0 Z " fill="#000000" transform="translate(95,177)"/>
<path d="M0 0 C1.46015291 0.28241641 2.91809793 0.57626614 4.375 0.875 C5.18710938 1.03742188 5.99921875 1.19984375 6.8359375 1.3671875 C9 2 9 2 11 4 C10.34 4.66 9.68 5.32 9 6 C6.03 5.01 3.06 4.02 0 3 C0 2.01 0 1.02 0 0 Z " fill="#000000" transform="translate(246,70)"/>
<path d="M0 0 C0.99 0.33 1.98 0.66 3 1 C1.68 3.97 0.36 6.94 -1 10 C-1.99 10 -2.98 10 -4 10 C-3.29445932 6.33118845 -1.72264494 3.29549466 0 0 Z " fill="#000000" transform="translate(483,360)"/>
<path d="M0 0 C4.20626034 1.50223584 5.73900021 4.28550034 8 8 C6.68 8 5.36 8 4 8 C0 3.88888889 0 3.88888889 0 0 Z " fill="#000000" transform="translate(149,339)"/>
<path d="M0 0 C0.99 0 1.98 0 3 0 C2.34 3.3 1.68 6.6 1 10 C0.01 10 -0.98 10 -2 10 C-1.34 6.7 -0.68 3.4 0 0 Z " fill="#000000" transform="translate(62,269)"/>
<path d="M0 0 C0.99 0.33 1.98 0.66 3 1 C2.01 4.3 1.02 7.6 0 11 C-0.99 10.67 -1.98 10.34 -3 10 C-2.01 6.7 -1.02 3.4 0 0 Z " fill="#000000" transform="translate(73,231)"/>
<path d="M0 0 C0.66 0.33 1.32 0.66 2 1 C1.34 3.97 0.68 6.94 0 10 C-0.99 10 -1.98 10 -3 10 C-2.49287967 6.28111761 -1.88391785 3.26545761 0 0 Z " fill="#000000" transform="translate(80,213)"/>
<path d="M0 0 C0.66 0 1.32 0 2 0 C3.28317892 3.84953676 3.06643637 6.94738135 3 11 C2.01 11 1.02 11 0 11 C0 7.37 0 3.74 0 0 Z " fill="#000000" transform="translate(106,209)"/>
<path d="M0 0 C0.99 0 1.98 0 3 0 C3.125 7.625 3.125 7.625 2 11 C1.34 11 0.68 11 0 11 C0 7.37 0 3.74 0 0 Z " fill="#000000" transform="translate(106,189)"/>
<path d="M0 0 C3.48670834 1.1094072 6.77484237 2.26337666 10 4 C9.67 4.99 9.34 5.98 9 7 C4.545 5.02 4.545 5.02 0 3 C0 2.01 0 1.02 0 0 Z " fill="#000000" transform="translate(265,77)"/>
<path d="M0 0 C0.99 0.33 1.98 0.66 3 1 C2.34 2.65 1.68 4.3 1 6 C0.01 5.67 -0.98 5.34 -2 5 C-1.34 3.35 -0.68 1.7 0 0 Z " fill="#000000" transform="translate(489,346)"/>
<path d="M0 0 C0.99 0.33 1.98 0.66 3 1 C2.67 1.99 2.34 2.98 2 4 C1.01 3.01 0.02 2.02 -1 1 C-0.67 0.67 -0.34 0.34 0 0 Z " fill="#000000" transform="translate(83,606)"/>
<path d="M0 0 C0.99 0.33 1.98 0.66 3 1 C2.67 1.99 2.34 2.98 2 4 C1.01 3.01 0.02 2.02 -1 1 C-0.67 0.67 -0.34 0.34 0 0 Z " fill="#000000" transform="translate(415,341)"/>
<path d="M0 0 C0.99 0.33 1.98 0.66 3 1 C2.67 1.99 2.34 2.98 2 4 C1.01 3.01 0.02 2.02 -1 1 C-0.67 0.67 -0.34 0.34 0 0 Z " fill="#000000" transform="translate(245,302)"/>
<path d="M0 0 C0.99 0.33 1.98 0.66 3 1 C2.67 1.99 2.34 2.98 2 4 C1.01 3.01 0.02 2.02 -1 1 C-0.67 0.67 -0.34 0.34 0 0 Z " fill="#000000" transform="translate(388,39)"/>
</svg>
