<svg width="574" height="687" viewBox="0 0 574 687" fill="none" xmlns="http://www.w3.org/2000/svg">
<path d="M24.6193 439.455V454H22.858V441.301H22.7727L19.2216 443.659V441.869L22.858 439.455H24.6193Z" fill="black"/>
<path d="M475.733 4.92073H522.452L397.704 455.206C437.862 382.842 529.741 293.183 570.661 257.398V325.985C550.615 345.202 494.918 404.611 432.494 488.505C354.465 593.372 347.01 662.456 339.057 662.456C332.696 662.456 241.976 676.372 197.412 683.33L293.333 344.374C241.247 432.642 166.597 449.739 135.783 447.254C121.204 450.401 82.6039 443.476 44.8316 390.595C7.05939 337.714 34.7259 241.66 53.2807 200.243C75.6458 154.353 145.922 53.2294 248.106 15.8548C350.29 -21.5198 390.414 31.4276 397.704 62.5731L475.733 4.92073Z" stroke="black" stroke-width="5"/>
<path d="M511.619 201.455V216H509.858V203.301H509.773L506.222 205.659V203.869L509.858 201.455H511.619ZM516.193 216.114C515.843 216.114 515.542 215.988 515.291 215.737C515.04 215.486 514.915 215.186 514.915 214.835C514.915 214.485 515.04 214.184 515.291 213.933C515.542 213.682 515.843 213.557 516.193 213.557C516.544 213.557 516.844 213.682 517.095 213.933C517.346 214.184 517.472 214.485 517.472 214.835C517.472 215.067 517.412 215.28 517.294 215.474C517.18 215.669 517.027 215.825 516.832 215.943C516.643 216.057 516.43 216.114 516.193 216.114ZM520.451 216V214.722L525.252 209.466C525.816 208.85 526.28 208.315 526.644 207.861C527.009 207.402 527.279 206.971 527.454 206.568C527.634 206.161 527.724 205.735 527.724 205.29C527.724 204.778 527.601 204.336 527.354 203.962C527.113 203.588 526.781 203.299 526.36 203.095C525.939 202.892 525.465 202.79 524.94 202.79C524.381 202.79 523.893 202.906 523.477 203.138C523.065 203.365 522.745 203.685 522.518 204.097C522.295 204.509 522.184 204.991 522.184 205.545H520.508C520.508 204.693 520.704 203.945 521.097 203.301C521.49 202.657 522.025 202.155 522.702 201.795C523.384 201.436 524.149 201.256 524.996 201.256C525.849 201.256 526.604 201.436 527.262 201.795C527.92 202.155 528.436 202.641 528.81 203.251C529.184 203.862 529.371 204.542 529.371 205.29C529.371 205.825 529.274 206.348 529.08 206.859C528.891 207.366 528.559 207.932 528.086 208.557C527.617 209.177 526.966 209.935 526.133 210.83L522.866 214.324V214.438H529.627V216H520.451Z" fill="black"/>
<path d="M480.619 517.455V532H478.858V519.301H478.773L475.222 521.659V519.869L478.858 517.455H480.619ZM485.193 532.114C484.843 532.114 484.542 531.988 484.291 531.737C484.04 531.486 483.915 531.186 483.915 530.835C483.915 530.485 484.04 530.184 484.291 529.933C484.542 529.682 484.843 529.557 485.193 529.557C485.544 529.557 485.844 529.682 486.095 529.933C486.346 530.184 486.472 530.485 486.472 530.835C486.472 531.067 486.412 531.28 486.294 531.474C486.18 531.669 486.027 531.825 485.832 531.943C485.643 532.057 485.43 532.114 485.193 532.114ZM493.819 532.199C492.881 532.199 492.046 532.038 491.312 531.716C490.583 531.394 490.003 530.946 489.572 530.374C489.146 529.796 488.914 529.126 488.876 528.364H490.665C490.703 528.832 490.864 529.237 491.148 529.578C491.433 529.914 491.804 530.175 492.263 530.359C492.723 530.544 493.232 530.636 493.79 530.636C494.415 530.636 494.969 530.527 495.452 530.31C495.935 530.092 496.314 529.789 496.589 529.401C496.863 529.012 497.001 528.562 497.001 528.051C497.001 527.516 496.868 527.045 496.603 526.638C496.338 526.226 495.95 525.904 495.438 525.672C494.927 525.44 494.302 525.324 493.563 525.324H492.398V523.761H493.563C494.141 523.761 494.647 523.657 495.083 523.449C495.523 523.241 495.867 522.947 496.113 522.568C496.364 522.189 496.489 521.744 496.489 521.233C496.489 520.741 496.38 520.312 496.163 519.947C495.945 519.583 495.637 519.299 495.239 519.095C494.846 518.892 494.382 518.79 493.847 518.79C493.345 518.79 492.872 518.882 492.427 519.067C491.987 519.247 491.627 519.509 491.347 519.855C491.068 520.196 490.916 520.608 490.893 521.091H489.188C489.217 520.329 489.446 519.661 489.877 519.088C490.308 518.51 490.871 518.061 491.567 517.739C492.268 517.417 493.038 517.256 493.876 517.256C494.775 517.256 495.547 517.438 496.191 517.803C496.835 518.162 497.33 518.638 497.675 519.23C498.021 519.822 498.194 520.461 498.194 521.148C498.194 521.967 497.978 522.665 497.548 523.243C497.121 523.821 496.541 524.221 495.808 524.443V524.557C496.726 524.708 497.443 525.099 497.96 525.729C498.476 526.354 498.734 527.128 498.734 528.051C498.734 528.842 498.518 529.552 498.087 530.182C497.661 530.807 497.079 531.299 496.34 531.659C495.602 532.019 494.761 532.199 493.819 532.199Z" fill="black"/>
<path d="M473.129 285.491C473.401 285.972 474.011 286.142 474.491 285.871L482.329 281.447C482.81 281.176 482.98 280.566 482.709 280.085C482.437 279.604 481.827 279.434 481.346 279.706L474.379 283.638L470.447 276.671C470.176 276.19 469.566 276.02 469.085 276.291C468.604 276.563 468.434 277.173 468.706 277.654L473.129 285.491ZM517.037 126.732L473.037 284.732L474.963 285.268L518.963 127.268L517.037 126.732Z" fill="black"/>
<path d="M554.962 414.274C555.113 413.742 554.805 413.189 554.274 413.038L545.617 410.575C545.086 410.424 544.533 410.732 544.382 411.263C544.231 411.795 544.539 412.348 545.07 412.499L552.765 414.688L550.575 422.383C550.424 422.914 550.732 423.467 551.263 423.618C551.795 423.769 552.348 423.461 552.499 422.93L554.962 414.274ZM415.974 591.727C421.046 569.925 438.449 535.291 463.253 501.27C488.049 467.26 520.14 434.005 554.487 414.874L553.513 413.126C518.816 432.453 486.522 465.96 461.637 500.092C436.76 534.212 419.185 569.099 414.026 591.273L415.974 591.727Z" fill="black"/>
<path d="M408.064 137.501C354.064 -45.9997 182.564 31.0001 89.564 245.001C76.0633 319.5 59.6378 382.5 138 408.5C138 408.5 215.001 415 318.502 284.501L456.502 58.0004L267.502 640.501L553.502 304.501" stroke="black" stroke-width="2" stroke-dasharray="10 10"/>
<path d="M226.397 443.046C226.698 442.274 226.317 441.404 225.545 441.103L212.97 436.192C212.199 435.891 211.329 436.272 211.027 437.044C210.726 437.815 211.107 438.685 211.879 438.987L223.057 443.352L218.692 454.53C218.391 455.301 218.772 456.171 219.544 456.472C220.315 456.774 221.185 456.393 221.486 455.621L226.397 443.046ZM4.01589 259.281C0.333153 284.265 -0.963902 314.049 2.47578 343.24C5.91399 372.417 14.0971 401.104 29.4576 423.803C44.8475 446.546 67.4216 463.238 99.4725 468.361C131.465 473.474 172.754 467.039 225.602 443.874L224.398 441.126C171.846 464.161 131.164 470.388 99.946 465.398C68.7864 460.418 46.9105 444.242 31.9421 422.122C16.9443 399.959 8.86072 371.789 5.45517 342.889C2.05111 314.001 3.33322 284.485 6.98382 259.719L4.01589 259.281Z" fill="black"/>
<circle cx="418.5" cy="134.5" r="30.5" fill="black"/>
</svg>
