<svg width="447" height="740" viewBox="0 0 447 740" fill="none" xmlns="http://www.w3.org/2000/svg">
<circle cx="223.5" cy="186.5" r="25.5" fill="black"/>
<path d="M160.579 268.518C162.179 290.601 178.912 293.78 187.079 292.609C188.246 302.982 190.679 334.769 191.079 378.936C191.479 423.104 187.246 470.952 185.079 489.355C158.579 498.891 56.5789 534.526 41.0789 575.18C25.5789 615.834 42.0789 639.423 64.0789 662.511C86.0789 685.598 159.579 688.108 198.079 658.998C236.579 629.887 252.579 604.792 268.079 571.667C280.479 545.166 294.746 513.565 297.579 496.5L331 477.284C341.167 469.421 366.7 447.973 387.5 425.087C413.5 396.478 432 350.805 436.5 338.759C441 326.714 445 286.586 443.5 272.533C442 258.48 425.579 250.449 414.079 247.438C404.879 245.029 397.579 253.795 395.079 258.48C393.579 269.02 391.579 281.567 379.579 314.693C367.579 347.818 350.079 375.925 339.079 391.484C330.279 403.931 307.746 424.777 297.579 433.644C298.246 421.431 299.479 393.391 299.079 378.936C298.579 360.868 294.579 292.609 289.579 250.449C284.579 208.29 281.579 197.75 273.079 168.639C266.279 145.351 238.579 139.194 225.579 139.027C188.779 137.822 175.246 153.917 173.079 162.114C173.246 161.613 172.779 168.037 169.579 197.75C165.579 234.89 158.579 240.913 160.579 268.518Z" stroke="black" stroke-width="5"/>
<path d="M254.079 39.1484C254.079 59.3976 237.729 75.7967 217.579 75.7967C197.43 75.7967 181.079 59.3976 181.079 39.1484C181.079 18.8991 197.43 2.5 217.579 2.5C237.729 2.5 254.079 18.8991 254.079 39.1484Z" stroke="black" stroke-width="5"/>
<path d="M221.5 180C299 388.5 221.5 756.5 76.5007 633.5C46.0001 605.267 66.0005 547.5 200 505C290.501 469.5 395.599 402.7 413.999 279.5" stroke="black" stroke-width="2" stroke-dasharray="10 10"/>
<path d="M70.6193 720.455V735H68.858V722.301H68.7727L65.2216 724.659V722.869L68.858 720.455H70.6193ZM75.1932 735.114C74.8428 735.114 74.5421 734.988 74.2912 734.737C74.0402 734.486 73.9148 734.186 73.9148 733.835C73.9148 733.485 74.0402 733.184 74.2912 732.933C74.5421 732.682 74.8428 732.557 75.1932 732.557C75.5436 732.557 75.8442 732.682 76.0952 732.933C76.3461 733.184 76.4716 733.485 76.4716 733.835C76.4716 734.067 76.4124 734.28 76.294 734.474C76.1804 734.669 76.0265 734.825 75.8324 734.943C75.643 735.057 75.4299 735.114 75.1932 735.114ZM79.451 735V733.722L84.2521 728.466C84.8156 727.85 85.2796 727.315 85.6442 726.861C86.0088 726.402 86.2786 725.971 86.4538 725.568C86.6338 725.161 86.7237 724.735 86.7237 724.29C86.7237 723.778 86.6006 723.336 86.3544 722.962C86.1129 722.588 85.7815 722.299 85.3601 722.095C84.9387 721.892 84.4652 721.79 83.9396 721.79C83.3809 721.79 82.8932 721.906 82.4766 722.138C82.0646 722.365 81.745 722.685 81.5178 723.097C81.2952 723.509 81.1839 723.991 81.1839 724.545H79.5078C79.5078 723.693 79.7043 722.945 80.0973 722.301C80.4903 721.657 81.0253 721.155 81.7024 720.795C82.3842 720.436 83.1489 720.256 83.9964 720.256C84.8487 720.256 85.6039 720.436 86.2621 720.795C86.9202 721.155 87.4363 721.641 87.8104 722.251C88.1844 722.862 88.3714 723.542 88.3714 724.29C88.3714 724.825 88.2744 725.348 88.0803 725.859C87.8909 726.366 87.5594 726.932 87.0859 727.557C86.6172 728.177 85.9661 728.935 85.1328 729.83L81.8658 733.324V733.438H88.6271V735H79.451Z" fill="black"/>
<path d="M213.506 46V44.7216L218.307 39.4659C218.87 38.8504 219.334 38.3153 219.699 37.8608C220.063 37.4015 220.333 36.9706 220.509 36.5682C220.688 36.161 220.778 35.7348 220.778 35.2898C220.778 34.7784 220.655 34.3357 220.409 33.9616C220.168 33.5876 219.836 33.2988 219.415 33.0952C218.993 32.8916 218.52 32.7898 217.994 32.7898C217.436 32.7898 216.948 32.9058 216.531 33.1378C216.119 33.3651 215.8 33.6847 215.572 34.0966C215.35 34.5085 215.239 34.9915 215.239 35.5455H213.562C213.562 34.6932 213.759 33.9451 214.152 33.3011C214.545 32.6572 215.08 32.1553 215.757 31.7955C216.439 31.4356 217.204 31.2557 218.051 31.2557C218.903 31.2557 219.659 31.4356 220.317 31.7955C220.975 32.1553 221.491 32.6406 221.865 33.2514C222.239 33.8622 222.426 34.5417 222.426 35.2898C222.426 35.8248 222.329 36.348 222.135 36.8594C221.946 37.366 221.614 37.9318 221.141 38.5568C220.672 39.1771 220.021 39.9347 219.188 40.8295L215.92 44.3239V44.4375H222.682V46H213.506Z" fill="black"/>
<path d="M320.619 238.455V253H318.858V240.301H318.773L315.222 242.659V240.869L318.858 238.455H320.619ZM325.193 253.114C324.843 253.114 324.542 252.988 324.291 252.737C324.04 252.486 323.915 252.186 323.915 251.835C323.915 251.485 324.04 251.184 324.291 250.933C324.542 250.682 324.843 250.557 325.193 250.557C325.544 250.557 325.844 250.682 326.095 250.933C326.346 251.184 326.472 251.485 326.472 251.835C326.472 252.067 326.412 252.28 326.294 252.474C326.18 252.669 326.027 252.825 325.832 252.943C325.643 253.057 325.43 253.114 325.193 253.114ZM332.826 238.455V253H331.065V240.301H330.98L327.429 242.659V240.869L331.065 238.455H332.826Z" fill="black"/>
<path d="M331.619 307.455V322H329.858V309.301H329.773L326.222 311.659V309.869L329.858 307.455H331.619ZM336.193 322.114C335.843 322.114 335.542 321.988 335.291 321.737C335.04 321.486 334.915 321.186 334.915 320.835C334.915 320.485 335.04 320.184 335.291 319.933C335.542 319.682 335.843 319.557 336.193 319.557C336.544 319.557 336.844 319.682 337.095 319.933C337.346 320.184 337.472 320.485 337.472 320.835C337.472 321.067 337.412 321.28 337.294 321.474C337.18 321.669 337.027 321.825 336.832 321.943C336.643 322.057 336.43 322.114 336.193 322.114ZM344.819 322.199C343.881 322.199 343.046 322.038 342.312 321.716C341.583 321.394 341.003 320.946 340.572 320.374C340.146 319.796 339.914 319.126 339.876 318.364H341.665C341.703 318.832 341.864 319.237 342.148 319.578C342.433 319.914 342.804 320.175 343.263 320.359C343.723 320.544 344.232 320.636 344.79 320.636C345.415 320.636 345.969 320.527 346.452 320.31C346.935 320.092 347.314 319.789 347.589 319.401C347.863 319.012 348.001 318.562 348.001 318.051C348.001 317.516 347.868 317.045 347.603 316.638C347.338 316.226 346.95 315.904 346.438 315.672C345.927 315.44 345.302 315.324 344.563 315.324H343.398V313.761H344.563C345.141 313.761 345.647 313.657 346.083 313.449C346.523 313.241 346.867 312.947 347.113 312.568C347.364 312.189 347.489 311.744 347.489 311.233C347.489 310.741 347.38 310.312 347.163 309.947C346.945 309.583 346.637 309.299 346.239 309.095C345.846 308.892 345.382 308.79 344.847 308.79C344.345 308.79 343.872 308.882 343.427 309.067C342.987 309.247 342.627 309.509 342.347 309.855C342.068 310.196 341.916 310.608 341.893 311.091H340.188C340.217 310.329 340.446 309.661 340.877 309.088C341.308 308.51 341.871 308.061 342.567 307.739C343.268 307.417 344.038 307.256 344.876 307.256C345.775 307.256 346.547 307.438 347.191 307.803C347.835 308.162 348.33 308.638 348.675 309.23C349.021 309.822 349.194 310.461 349.194 311.148C349.194 311.967 348.978 312.665 348.548 313.243C348.121 313.821 347.541 314.221 346.808 314.443V314.557C347.726 314.708 348.443 315.099 348.96 315.729C349.476 316.354 349.734 317.128 349.734 318.051C349.734 318.842 349.518 319.552 349.087 320.182C348.661 320.807 348.079 321.299 347.34 321.659C346.602 322.019 345.761 322.199 344.819 322.199Z" fill="black"/>
<path d="M311.692 330.563C312.003 331.019 312.625 331.137 313.081 330.827L320.521 325.762C320.978 325.451 321.096 324.829 320.785 324.373C320.474 323.916 319.852 323.798 319.396 324.109L312.783 328.611L308.281 321.998C307.97 321.541 307.348 321.423 306.891 321.734C306.435 322.044 306.317 322.666 306.627 323.123L311.692 330.563ZM294.556 198.896C294.422 198.83 294.437 198.777 294.578 198.992C294.692 199.165 294.836 199.431 295.008 199.805C295.35 200.549 295.756 201.62 296.214 202.999C297.129 205.752 298.225 209.643 299.413 214.396C301.789 223.898 304.521 236.79 306.91 250.799C309.299 264.809 311.342 279.921 312.342 293.865C313.344 307.827 313.296 320.549 311.536 329.813L313.501 330.187C315.31 320.662 315.343 307.731 314.337 293.722C313.331 279.694 311.278 264.516 308.881 250.463C306.485 236.41 303.743 223.468 301.353 213.911C300.159 209.135 299.05 205.19 298.112 202.368C297.644 200.961 297.212 199.811 296.825 198.97C296.633 198.551 296.441 198.184 296.248 197.892C296.083 197.64 295.821 197.291 295.444 197.104L294.556 198.896Z" fill="black"/>
<path d="M369.8 277.4C369.469 276.958 368.842 276.869 368.4 277.2L361.198 282.597C360.756 282.928 360.666 283.555 360.998 283.997C361.329 284.439 361.956 284.528 362.397 284.197L368.799 279.4L373.597 285.802C373.928 286.244 374.555 286.334 374.997 286.002C375.439 285.671 375.528 285.044 375.197 284.603L369.8 277.4ZM320.729 376.685C334.548 361.986 363.745 321.731 369.99 278.142L368.01 277.858C361.847 320.877 332.949 360.767 319.271 375.315L320.729 376.685Z" fill="black"/>
<path d="M15.2899 612.735C14.8674 612.022 13.9472 611.787 13.2346 612.21L1.62211 619.094C0.909513 619.517 0.674326 620.437 1.09681 621.15C1.51929 621.862 2.43946 622.098 3.15206 621.675L13.4743 615.555L19.5941 625.877C20.0166 626.59 20.9367 626.825 21.6493 626.403C22.3619 625.98 22.5971 625.06 22.1746 624.348L15.2899 612.735ZM252.023 647.238C248.792 665.427 230.805 680.35 205.329 690.462C179.962 700.531 147.658 705.619 116.744 704.451C85.8008 703.282 56.4794 695.855 36.9258 681.121C27.1709 673.77 19.8689 664.62 15.9643 653.526C12.0602 642.433 11.5133 629.285 15.4529 613.871L12.5463 613.129C8.48583 629.015 9.00146 642.779 13.1345 654.522C17.2671 666.264 24.9767 675.873 35.1204 683.517C55.3637 698.77 85.3861 706.268 116.631 707.449C147.904 708.631 180.631 703.494 206.436 693.25C232.132 683.05 251.458 667.573 254.976 647.762L252.023 647.238Z" fill="black"/>
</svg>
