<svg width="598" height="568" viewBox="0 0 598 568" fill="none" xmlns="http://www.w3.org/2000/svg">
<path d="M282.619 548.455V563H280.858V550.301H280.773L277.222 552.659V550.869L280.858 548.455H282.619ZM287.193 563.114C286.843 563.114 286.542 562.988 286.291 562.737C286.04 562.486 285.915 562.186 285.915 561.835C285.915 561.485 286.04 561.184 286.291 560.933C286.542 560.682 286.843 560.557 287.193 560.557C287.544 560.557 287.844 560.682 288.095 560.933C288.346 561.184 288.472 561.485 288.472 561.835C288.472 562.067 288.412 562.28 288.294 562.474C288.18 562.669 288.027 562.825 287.832 562.943C287.643 563.057 287.43 563.114 287.193 563.114ZM295.819 563.199C294.881 563.199 294.046 563.038 293.312 562.716C292.583 562.394 292.003 561.946 291.572 561.374C291.146 560.796 290.914 560.126 290.876 559.364H292.665C292.703 559.832 292.864 560.237 293.148 560.578C293.433 560.914 293.804 561.175 294.263 561.359C294.723 561.544 295.232 561.636 295.79 561.636C296.415 561.636 296.969 561.527 297.452 561.31C297.935 561.092 298.314 560.789 298.589 560.401C298.863 560.012 299.001 559.562 299.001 559.051C299.001 558.516 298.868 558.045 298.603 557.638C298.338 557.226 297.95 556.904 297.438 556.672C296.927 556.44 296.302 556.324 295.563 556.324H294.398V554.761H295.563C296.141 554.761 296.647 554.657 297.083 554.449C297.523 554.241 297.867 553.947 298.113 553.568C298.364 553.189 298.489 552.744 298.489 552.233C298.489 551.741 298.38 551.312 298.163 550.947C297.945 550.583 297.637 550.299 297.239 550.095C296.846 549.892 296.382 549.79 295.847 549.79C295.345 549.79 294.872 549.882 294.427 550.067C293.987 550.247 293.627 550.509 293.347 550.855C293.068 551.196 292.916 551.608 292.893 552.091H291.188C291.217 551.329 291.446 550.661 291.877 550.088C292.308 549.51 292.871 549.061 293.567 548.739C294.268 548.417 295.038 548.256 295.876 548.256C296.775 548.256 297.547 548.438 298.191 548.803C298.835 549.162 299.33 549.638 299.675 550.23C300.021 550.822 300.194 551.461 300.194 552.148C300.194 552.967 299.978 553.665 299.548 554.243C299.121 554.821 298.541 555.221 297.808 555.443V555.557C298.726 555.708 299.443 556.099 299.96 556.729C300.476 557.354 300.734 558.128 300.734 559.051C300.734 559.842 300.518 560.552 300.087 561.182C299.661 561.807 299.079 562.299 298.34 562.659C297.602 563.019 296.761 563.199 295.819 563.199Z" fill="black"/>
<path d="M453.619 273.455V288H451.858V275.301H451.773L448.222 277.659V275.869L451.858 273.455H453.619ZM458.193 288.114C457.843 288.114 457.542 287.988 457.291 287.737C457.04 287.486 456.915 287.186 456.915 286.835C456.915 286.485 457.04 286.184 457.291 285.933C457.542 285.682 457.843 285.557 458.193 285.557C458.544 285.557 458.844 285.682 459.095 285.933C459.346 286.184 459.472 286.485 459.472 286.835C459.472 287.067 459.412 287.28 459.294 287.474C459.18 287.669 459.027 287.825 458.832 287.943C458.643 288.057 458.43 288.114 458.193 288.114ZM462.11 285.017V283.568L468.502 273.455H469.553V275.699H468.843L464.013 283.341V283.455H472.621V285.017H462.11ZM468.957 288V284.577V283.902V273.455H470.633V288H468.957Z" fill="black"/>
<path d="M197.251 506.032C196.716 506.169 196.394 506.715 196.532 507.249L198.777 515.965C198.914 516.5 199.46 516.822 199.994 516.684C200.529 516.546 200.851 516.001 200.713 515.466L198.718 507.719L206.465 505.723C207 505.586 207.322 505.04 207.184 504.506C207.046 503.971 206.501 503.649 205.966 503.787L197.251 506.032ZM384.759 479.829C357.893 509.506 321.539 522.181 286.687 524.377C251.815 526.575 218.562 518.273 198.008 506.139L196.992 507.861C217.938 520.227 251.601 528.592 286.813 526.373C322.044 524.153 358.941 511.328 386.241 481.171L384.759 479.829Z" fill="black"/>
<path d="M19.8953 437.731C48.494 455.032 70.3549 437.29 77.7105 426.257L197.313 175.577C220.616 193.23 274.106 261.196 297.938 292.973C252.745 276.731 209.965 280.321 194.224 284.146C113.371 315.216 114.636 381.829 125.375 411.251C130.083 439.202 161.565 496.606 249.832 502.608C338.1 508.61 384.587 444.204 396.798 411.251C412.539 416.841 456.555 419.901 506.691 387.419C556.826 354.936 586.425 301.505 594.958 278.85C596.135 267.669 592.928 242.66 570.684 232.068C548.441 221.476 529.934 236.481 523.461 245.308C516.4 265.433 497.864 291.943 489.478 302.682C456.643 342.579 417.835 335.488 402.535 326.956C378.879 253.517 284.109 141.3 239.681 94.3708L240.564 91.2814C250.126 61.4176 255.04 1.95475 198.196 3.01396C141.351 4.07317 137.438 64.0656 142.587 93.9295C137.291 125 50.9361 299.593 8.42052 383.005C-5.34921 412.31 10.333 431.7 19.8953 437.731Z" stroke="black" stroke-width="5"/>
<path d="M28.6193 198.455V213H26.858V200.301H26.7727L23.2216 202.659V200.869L26.858 198.455H28.6193ZM33.1932 213.114C32.8428 213.114 32.5421 212.988 32.2912 212.737C32.0402 212.486 31.9148 212.186 31.9148 211.835C31.9148 211.485 32.0402 211.184 32.2912 210.933C32.5421 210.682 32.8428 210.557 33.1932 210.557C33.5436 210.557 33.8442 210.682 34.0952 210.933C34.3461 211.184 34.4716 211.485 34.4716 211.835C34.4716 212.067 34.4124 212.28 34.294 212.474C34.1804 212.669 34.0265 212.825 33.8324 212.943C33.643 213.057 33.4299 213.114 33.1932 213.114ZM40.8263 198.455V213H39.065V200.301H38.9798L35.4286 202.659V200.869L39.065 198.455H40.8263Z" fill="black"/>
<path d="M356.619 143.455V158H354.858V145.301H354.773L351.222 147.659V145.869L354.858 143.455H356.619ZM361.193 158.114C360.843 158.114 360.542 157.988 360.291 157.737C360.04 157.486 359.915 157.186 359.915 156.835C359.915 156.485 360.04 156.184 360.291 155.933C360.542 155.682 360.843 155.557 361.193 155.557C361.544 155.557 361.844 155.682 362.095 155.933C362.346 156.184 362.472 156.485 362.472 156.835C362.472 157.067 362.412 157.28 362.294 157.474C362.18 157.669 362.027 157.825 361.832 157.943C361.643 158.057 361.43 158.114 361.193 158.114ZM365.451 158V156.722L370.252 151.466C370.816 150.85 371.28 150.315 371.644 149.861C372.009 149.402 372.279 148.971 372.454 148.568C372.634 148.161 372.724 147.735 372.724 147.29C372.724 146.778 372.601 146.336 372.354 145.962C372.113 145.588 371.781 145.299 371.36 145.095C370.939 144.892 370.465 144.79 369.94 144.79C369.381 144.79 368.893 144.906 368.477 145.138C368.065 145.365 367.745 145.685 367.518 146.097C367.295 146.509 367.184 146.991 367.184 147.545H365.508C365.508 146.693 365.704 145.945 366.097 145.301C366.49 144.657 367.025 144.155 367.702 143.795C368.384 143.436 369.149 143.256 369.996 143.256C370.849 143.256 371.604 143.436 372.262 143.795C372.92 144.155 373.436 144.641 373.81 145.251C374.184 145.862 374.371 146.542 374.371 147.29C374.371 147.825 374.274 148.348 374.08 148.859C373.891 149.366 373.559 149.932 373.086 150.557C372.617 151.177 371.966 151.935 371.133 152.83L367.866 156.324V156.438H374.627V158H365.451Z" fill="black"/>
<path d="M86.8441 150.964C86.548 150.498 85.93 150.36 85.4638 150.656L77.8669 155.482C77.4007 155.778 77.2629 156.396 77.559 156.862C77.8551 157.328 78.4731 157.466 78.9393 157.17L85.6921 152.88L89.9816 159.633C90.2777 160.099 90.8957 160.237 91.3618 159.941C91.828 159.645 91.9659 159.027 91.6698 158.561L86.8441 150.964ZM14.3554 293.935C14.8599 293.743 15.4752 293.346 16.1507 292.83C16.8468 292.299 17.6759 291.588 18.6196 290.705C20.5082 288.937 22.8898 286.449 25.6344 283.257C31.1252 276.87 38.0939 267.639 45.5034 255.668C60.3233 231.723 76.9199 196.796 86.976 151.718L85.024 151.282C75.0218 196.119 58.5184 230.839 43.8028 254.615C36.4447 266.503 29.5368 275.65 24.1179 281.953C21.4077 285.105 19.0763 287.538 17.253 289.245C16.3407 290.098 15.5642 290.762 14.9374 291.24C14.29 291.734 13.8651 291.981 13.6446 292.065L14.3554 293.935Z" fill="black"/>
<path d="M385.569 234.902C386.067 235.14 386.664 234.929 386.902 234.431L390.782 226.31C391.02 225.812 390.809 225.215 390.311 224.977C389.812 224.739 389.215 224.95 388.977 225.448L385.529 232.667L378.31 229.218C377.812 228.98 377.215 229.191 376.977 229.689C376.739 230.188 376.95 230.784 377.448 231.023L385.569 234.902ZM305.222 121.628C317.086 136.317 335.322 159.59 351.465 181.668C359.537 192.707 367.08 203.439 373.039 212.645C379.017 221.878 383.347 229.495 385.057 234.333L386.943 233.667C385.145 228.578 380.689 220.781 374.718 211.558C368.73 202.308 361.163 191.542 353.08 180.487C336.913 158.377 318.657 135.078 306.778 120.372L305.222 121.628Z" fill="black"/>
<path d="M486.877 256.519C486.611 256.035 486.003 255.858 485.519 256.123L477.628 260.451C477.144 260.716 476.966 261.324 477.232 261.808C477.497 262.293 478.105 262.47 478.59 262.204L485.604 258.358L489.451 265.372C489.716 265.856 490.324 266.034 490.808 265.768C491.293 265.503 491.47 264.895 491.204 264.41L486.877 256.519ZM432.666 308.943C442.583 312.453 453.591 308.44 463.313 299.226C473.053 289.994 481.672 275.409 486.96 257.28L485.04 256.72C479.828 274.591 471.364 288.839 461.937 297.774C452.492 306.726 442.25 310.214 433.334 307.057L432.666 308.943Z" fill="black"/>
<path d="M38 409L196 42.5C189.192 60.5804 194 69.412 305 237.301C350.957 306.812 419.1 437.836 283.5 467.178C254.5 473.721 189.7 473.067 162.5 418.103C154.036 401 132.757 336.172 218 316C283.5 300.5 407.5 374 454 369C500.5 364 536 325.894 561 267" stroke="black" stroke-width="2" stroke-dasharray="10 10"/>
<circle cx="50.5" cy="389.5" r="30.5" fill="black"/>
</svg>
