<?xml version="1.0" encoding="UTF-8"?>
<svg version="1.1" xmlns="http://www.w3.org/2000/svg" width="661" height="714">
<path d="M0 0 C5.93919382 4.81582656 11.98216019 11.30573002 13.74365234 18.88890111 C14.01961135 22.4981026 14.05560034 26.03286466 14 29.65226746 C14.00763446 31.03534249 14.01877616 32.41840179 14.03308773 33.80142385 C14.06211371 37.57387329 14.04185686 41.34464655 14.01306796 45.11703742 C13.99074626 49.1953567 14.01481078 53.27344287 14.03309631 57.35174561 C14.05845432 64.40825562 14.05475575 71.46426372 14.03103638 78.52077293 C13.99678541 88.72305629 14.0067988 98.9249233 14.02743971 109.12722579 C14.05973784 125.68164588 14.05649028 142.23585906 14.03076172 158.7902832 C14.00585279 174.8664954 13.99776367 190.94257174 14.01220703 207.01879883 C14.01309224 208.0105784 14.01397745 209.00235797 14.01488948 210.02419146 C14.019434 214.9999105 14.02430827 219.97562915 14.02934647 224.95134771 C14.07068354 266.19679642 14.05427973 307.44207335 14 348.6875 C16.88274036 345.83599818 19.76109745 342.98014707 22.63571167 340.12045288 C23.61124296 339.15115116 24.58789996 338.18298085 25.56576538 337.21603394 C32.55826047 330.29958799 39.02773196 323.31638465 44.79052734 315.35009766 C46.06129307 313.60324368 47.36506856 311.88501648 48.67578125 310.16796875 C69.61715769 282.51732747 85.73966018 251.25270096 98.12695312 218.92919922 C98.90120218 216.94118054 99.72083381 214.97096898 100.546875 213.00390625 C108.03940256 194.61498781 112.37918704 174.13727646 115.72119141 154.61230469 C116.60457563 149.68603498 117.57549554 145.50313569 121.7265625 142.39453125 C131.41567183 137.82908673 142.9185476 135.35619384 153.375 138.875 C162.3254439 142.90639829 166.83586552 150.03670442 170.265625 158.9921875 C182.62269163 198.06488409 155.65282539 249.35131234 138.1875 283.25 C120.62917542 316.76494808 98.49698908 352.41834835 69.06640625 376.93359375 C66.94454915 378.73456509 64.91568174 380.61981843 62.88647461 382.52392578 C56.52830461 388.47026794 49.85617306 393.8763542 42.95410156 399.17480469 C40.86896401 400.78893665 38.80459507 402.42725186 36.7421875 404.0703125 C36.00709961 404.65151855 35.27201172 405.23272461 34.51464844 405.83154297 C32.99916221 407.03171134 31.48940603 408.23914929 29.98535156 409.45361328 C26.13232216 412.5023536 22.39667932 415.10403674 17.9921875 417.296875 C9.27481831 421.66097719 9.27481831 421.66097719 3.93066406 429.45751953 C2.33181749 436.28499781 1.88115549 443.22326509 1.3515625 450.19970703 C0.81153496 455.55723029 -0.39277578 460.67252237 -1.75 465.875 C-2.00467041 466.85388184 -2.25934082 467.83276367 -2.52172852 468.84130859 C-14.67657829 514.10738814 -36.00214715 556.9933633 -62.51611328 595.52734375 C-64.02139877 597.71865108 -65.50859817 599.92158969 -66.99609375 602.125 C-92.1933023 639.07653421 -130.73364311 660.15973795 -174.31811523 668.58520508 C-194.16589564 672.17508304 -215.3397995 672.41749377 -235 667.6875 C-235.70237793 667.52121094 -236.40475586 667.35492187 -237.12841797 667.18359375 C-262.77965272 660.88881222 -289.55518415 646.04501788 -304.25 623.5625 C-315.42800275 604.47973434 -316.48559986 582.30825563 -316 560.6875 C-315.97486328 559.04974609 -315.97486328 559.04974609 -315.94921875 557.37890625 C-314.98804359 534.94233187 -301.69160436 516.79450563 -286 501.6875 C-281.54499149 497.74779492 -276.7987979 494.19379656 -272 490.6875 C-270.40671875 489.51380859 -270.40671875 489.51380859 -268.78125 488.31640625 C-258.11692549 480.70091709 -246.79138303 474.35773623 -234.92578125 468.81640625 C-233.82043785 468.29868652 -233.82043785 468.29868652 -232.69276428 467.77050781 C-225.50513314 464.42409198 -218.23639336 461.2821672 -210.9375 458.1875 C-209.49496222 457.57295477 -208.05258601 456.95803019 -206.61035156 456.34277344 C-204.20744227 455.31777813 -201.80441252 454.29307248 -199.40090942 453.26947021 C-191.76904928 450.01881534 -184.14373231 446.75294206 -176.51953125 443.484375 C-175.89179747 443.21526306 -175.26406368 442.94615112 -174.61730766 442.66888428 C-171.43184485 441.30321443 -168.2464417 439.93740548 -165.06106567 438.5715332 C-158.94213036 435.94784796 -152.82258838 433.32557827 -146.703125 430.703125 C-142.12800813 428.74260807 -142.12800813 428.74260807 -137.55529785 426.77648926 C-135.96153875 426.09727821 -134.36257133 425.43001086 -132.75622559 424.78112793 C-129.20858709 423.52942955 -129.20858709 423.52942955 -127 420.6875 C-126.51129541 416.97786314 -126.28697553 413.23839625 -126.0078125 409.5078125 C-125.87706833 407.77520676 -125.87706833 407.77520676 -125.74368286 406.00759888 C-124.77934815 392.55236334 -124.32883545 379.08423099 -123.93514252 365.60206985 C-123.87413441 363.53314601 -123.81072028 361.46430822 -123.74664307 359.39547729 C-123.13232623 339.49229406 -122.67383765 319.60096574 -123 299.6875 C-123.37584229 300.87786865 -123.37584229 300.87786865 -123.75927734 302.09228516 C-135.04980154 337.58191019 -149.52656338 369.81173151 -176 396.6875 C-176.72445312 397.42484375 -177.44890625 398.1621875 -178.1953125 398.921875 C-199.9083941 419.59336966 -230.08793529 423.46669734 -258.66601562 422.82373047 C-283.54455853 421.80716435 -313.09123136 415.16888259 -333 399.6875 C-334.36125 398.63755859 -334.36125 398.63755859 -335.75 397.56640625 C-342.80085578 391.94775555 -349.47419462 385.90282653 -356 379.6875 C-356.59893066 379.11725098 -357.19786133 378.54700195 -357.81494141 377.95947266 C-366.70711736 369.42986801 -374.70107735 360.61179329 -382 350.6875 C-382.42619629 350.11676758 -382.85239258 349.54603516 -383.29150391 348.95800781 C-398.84425781 328.09154344 -411.41513172 304.97420403 -418 279.6875 C-418.22381348 278.82833984 -418.44762695 277.96917969 -418.67822266 277.08398438 C-424.5631645 253.94689298 -427.22772761 230.54625698 -427.1875 206.6875 C-427.18656342 205.9641748 -427.18562683 205.24084961 -427.18466187 204.49560547 C-427.03527495 151.00478595 -411.46522153 93.13308022 -375 52.6875 C-374.09325388 51.65929147 -373.18700135 50.63064743 -372.28125 49.6015625 C-362.26229792 38.33001612 -351.19127349 28.54973497 -339 19.6875 C-338.13117188 19.04941406 -337.26234375 18.41132812 -336.3671875 17.75390625 C-304.30976936 -4.25493281 -249.69475939 -10.41739218 -211.88574219 -4.49243164 C-208.87792925 -3.90636762 -205.94690535 -3.1506107 -203 -2.3125 C-201.7728125 -1.9721875 -200.545625 -1.631875 -199.28125 -1.28125 C-176.51541178 5.68020466 -157.44657331 19.17570662 -140.625 35.8125 C-140.04177979 36.38637451 -139.45855957 36.96024902 -138.85766602 37.55151367 C-135.0989029 41.33845261 -131.99897879 45.27327279 -129 49.6875 C-128.76925781 48.7903125 -128.53851563 47.893125 -128.30078125 46.96875 C-117.19137224 4.4631851 -117.19137224 4.4631851 -103.87207031 -3.60083008 C-97.40484606 -6.97984084 -91.22076079 -8.66017502 -84.0625 -9.9375 C-82.97074463 -10.14205811 -81.87898926 -10.34661621 -80.75415039 -10.55737305 C-77.50549971 -11.1588519 -74.25334327 -11.73703374 -71 -12.3125 C-70.0934668 -12.48056152 -69.18693359 -12.64862305 -68.25292969 -12.82177734 C-43.38200965 -17.43192676 -20.67694189 -15.92953891 0 0 Z M-68.05908203 -6.96875 C-70.3921081 -6.55949896 -72.7284556 -6.17687115 -75.06640625 -5.796875 C-87.36938807 -3.73634907 -100.30932818 -1.50978799 -108.61328125 8.6640625 C-117.47886631 21.99680282 -120.08325469 38.7643641 -123.08398438 54.20043945 C-123.32052734 55.4143335 -123.55707031 56.62822754 -123.80078125 57.87890625 C-124.00872314 58.97404541 -124.21666504 60.06918457 -124.4309082 61.19750977 C-125 63.6875 -125 63.6875 -126 64.6875 C-126.42667969 63.99527344 -126.85335938 63.30304688 -127.29296875 62.58984375 C-145.38041718 34.2839193 -173.80020869 10.49668531 -207 2.6875 C-208.1748999 2.41039185 -208.1748999 2.41039185 -209.37353516 2.12768555 C-217.42802382 0.44236727 -225.43294716 0.33198256 -233.625 0.375 C-234.34587799 0.37682281 -235.06675598 0.37864563 -235.80947876 0.38052368 C-283.50260557 0.58223735 -325.28391624 12.53222109 -360 45.6875 C-360.92554688 46.56019531 -361.85109375 47.43289062 -362.8046875 48.33203125 C-400.45891689 84.75956478 -420.04048571 141.81789833 -421.16906738 193.52546692 C-421.22831347 197.22534807 -421.24713206 200.92467888 -421.25 204.625 C-421.25067474 205.41273804 -421.25134949 206.20047607 -421.25204468 207.01208496 C-421.18142686 259.35902482 -407.83286298 308.34464863 -375 349.6875 C-373.9790625 350.99654297 -373.9790625 350.99654297 -372.9375 352.33203125 C-347.28712657 384.5364523 -318.77738669 406.6027641 -278 414.6875 C-276.29263672 415.0278125 -276.29263672 415.0278125 -274.55078125 415.375 C-246.18072491 420.03325326 -214.71062911 417.36740064 -190.39453125 400.92578125 C-188.19843922 399.24374863 -186.09306312 397.49551562 -184 395.6875 C-183.33742188 395.15640625 -182.67484375 394.6253125 -181.9921875 394.078125 C-167.3643785 382.03169406 -156.69542495 364.32105605 -148 347.6875 C-147.63551758 347.00187988 -147.27103516 346.31625977 -146.89550781 345.60986328 C-135.66202205 324.22856404 -128.47701379 300.3553957 -124 276.6875 C-123.75636719 275.41648437 -123.51273437 274.14546875 -123.26171875 272.8359375 C-122.09892528 266.08066113 -121.75297968 259.53545209 -122 252.6875 C-120.02 252.6875 -118.04 252.6875 -116 252.6875 C-116.3774452 288.42892805 -116.83023874 324.16684636 -117.87653351 359.89583969 C-117.93646911 361.96442066 -117.99414436 364.03305311 -118.0512085 366.10171509 C-118.55801658 384.30535473 -119.1623 402.56033598 -121 420.6875 C-121.14625069 422.27732193 -121.14625069 422.27732193 -121.29545593 423.89926147 C-122 426.6875 -122 426.6875 -123.62384033 428.05149841 C-124.68644073 428.48704796 -124.68644073 428.48704796 -125.77050781 428.93139648 C-126.58236038 429.27800323 -127.39421295 429.62460999 -128.23066711 429.98171997 C-129.12907822 430.33708832 -130.02748932 430.69245667 -130.953125 431.05859375 C-131.89580734 431.45392303 -132.83848969 431.84925232 -133.80973816 432.25656128 C-136.94802899 433.56753012 -140.09873254 434.84557685 -143.25 436.125 C-145.4465117 437.03727092 -147.64189034 437.95227426 -149.83618164 438.86987305 C-153.28965839 440.31337546 -156.74388704 441.75478349 -160.20179749 443.18763733 C-172.196595 448.15898164 -184.10648212 453.32013724 -196.00939941 458.50686646 C-199.35618544 459.96458287 -202.70465813 461.41834967 -206.05371094 462.87084961 C-211.11618169 465.0673009 -216.17587978 467.26999493 -221.23291016 469.47894287 C-223.04349247 470.26973474 -224.85451084 471.05952914 -226.66601562 471.84820557 C-229.111304 472.9139943 -231.55407373 473.98534129 -233.99609375 475.05859375 C-234.68819443 475.35937332 -235.3802951 475.66015289 -236.09336853 475.970047 C-255.16384142 484.39511382 -272.2049421 497.10319791 -287 511.6875 C-287.88429688 512.55890625 -288.76859375 513.4303125 -289.6796875 514.328125 C-305.91546832 531.20544124 -310.38017426 550.10671908 -310.1484375 572.9375 C-309.71095877 594.51022153 -305.66831319 615.20582922 -290.33203125 631.48046875 C-262.9377217 657.4064066 -229.36344214 665.57622002 -192.52783203 664.81494141 C-154.48595219 663.44069495 -116.3973688 645.45063978 -89 619.6875 C-88.40960938 619.1615625 -87.81921875 618.635625 -87.2109375 618.09375 C-44.37251436 578.30071239 -9.57414725 498.32544995 -3 441.6875 C-2.93806979 439.9655142 -2.89906436 438.24255369 -2.8828125 436.51953125 C-2.67135628 424.63569178 -2.67135628 424.63569178 0.34130859 421.12402344 C4.06868108 418.1103104 8.33872496 416.11046049 12.61035156 413.98632812 C16.96853418 411.61755703 20.85927667 408.60614503 24.8125 405.625 C25.62275635 405.02091309 26.4330127 404.41682617 27.26782227 403.79443359 C33.32381316 399.25693576 39.22321765 394.57688506 45 389.6875 C46.03073806 388.83011334 47.0620156 387.97337495 48.09375 387.1171875 C64.27019631 373.63681557 80.04926166 359.34844986 93 342.6875 C93.78761719 341.70523437 94.57523438 340.72296875 95.38671875 339.7109375 C102.22858845 331.1082229 108.20215295 322.01791506 114 312.6875 C114.71542969 311.53701172 114.71542969 311.53701172 115.4453125 310.36328125 C157.08862618 243.18844925 157.08862618 243.18844925 166.3125 167.29296875 C163.81072766 158.3387086 160.04525491 149.90604372 152 144.6875 C143.01003306 141.69084435 133.30834976 143.54089192 125 147.6875 C122.07332591 150.61417409 121.87312084 154.14549509 121.08203125 158.078125 C120.71572131 159.82618919 120.34892159 161.5741508 119.98168945 163.32202148 C119.79144196 164.23893768 119.60119446 165.15585388 119.40518188 166.10055542 C105.17613576 234.20963099 72.6421528 302.27221349 21.1875 350.1875 C20.67251953 350.66799805 20.15753906 351.14849609 19.62695312 351.64355469 C16.96802015 354.06867905 14.24711399 356.27701261 11.3059082 358.35351562 C10.68424271 358.79360962 10.06257721 359.23370361 9.42207336 359.68713379 C8.95278915 360.01725464 8.48350494 360.34737549 8 360.6875 C8.00054207 359.96513989 8.00108415 359.24277978 8.00164264 358.49852997 C8.03288328 315.68515852 8.02771696 272.87192417 7.97527504 230.05856926 C7.9690097 224.91787134 7.96304854 219.7771731 7.95727539 214.63647461 C7.95612095 213.61305454 7.95496651 212.58963446 7.95377708 211.53520166 C7.93581009 194.96430832 7.94248365 178.39351186 7.95826416 161.82262022 C7.97390806 144.81921534 7.96307046 127.81597603 7.92765242 110.81260008 C7.90663214 100.3205953 7.90626497 89.82900721 7.93231983 79.33701199 C7.94820815 72.14214339 7.93837266 64.94759631 7.90833985 57.75277401 C7.89177067 53.60161239 7.88651393 49.45125107 7.91181374 45.30011559 C7.93474482 41.49649589 7.92523991 37.69436162 7.89036006 33.89084547 C7.88013994 31.86941691 7.90425334 29.84790384 7.92974228 27.82661015 C7.80750195 19.31699224 6.03720261 14.70470716 0 8.6875 C-0.71285156 7.90117187 -1.42570312 7.11484375 -2.16015625 6.3046875 C-15.64624153 -6.04601894 -31.75129971 -10.00850266 -49.63839722 -9.44558716 C-55.83917287 -9.09614498 -61.94975549 -8.04542013 -68.05908203 -6.96875 Z " fill="#000000" transform="translate(488,15.3125)"/>
<path d="M0 0 C2.48178109 1.94209219 4.85443134 3.95866359 7.2109375 6.05078125 C8.13777344 6.85773438 9.06460938 7.6646875 10.01953125 8.49609375 C27.02375378 23.58532243 39.92712203 42.44088393 51.2109375 62.05078125 C51.62585449 62.76089355 52.04077148 63.47100586 52.46826172 64.20263672 C52.83580566 64.87311035 53.20334961 65.54358398 53.58203125 66.234375 C53.89970459 66.80599365 54.21737793 67.3776123 54.54467773 67.96655273 C56.24242493 73.27753399 55.07364092 78.41866902 53.5859375 83.6328125 C53.31909401 84.5770256 53.31909401 84.5770256 53.04685974 85.54031372 C52.44567347 87.65123746 51.82922729 89.75730771 51.2109375 91.86328125 C50.9943045 92.61118927 50.77767151 93.35909729 50.55447388 94.12966919 C44.9233949 113.55596819 38.702672 132.80102566 32.45600891 152.03630066 C30.23467758 158.8775806 28.03330931 165.72488817 25.84709167 172.57746887 C24.35782917 177.23912012 22.85841502 181.89746825 21.35696411 186.5552063 C20.64779956 188.76123637 19.94230989 190.968452 19.24093628 193.17697144 C14.76235651 207.26268922 9.64062713 220.736235 3.2109375 234.05078125 C2.714729 235.08299805 2.21852051 236.11521484 1.70727539 237.17871094 C0.57634927 239.46936247 -0.58716015 241.73421916 -1.7890625 243.98828125 C-2.20148193 244.76421631 -2.61390137 245.54015137 -3.03881836 246.33959961 C-9.00178417 257.3527975 -16.12929552 266.97406252 -24.7890625 276.05078125 C-25.36140625 276.69789063 -25.93375 277.345 -26.5234375 278.01171875 C-33.5590219 285.68385602 -43.54999944 290.95518884 -53.9765625 291.42578125 C-66.24646281 291.15904429 -75.01790264 285.12438944 -83.2890625 276.61328125 C-104.37334053 252.12947983 -108.02322119 215.97465611 -109.7890625 185.05078125 C-109.84690918 184.05771973 -109.90475586 183.0646582 -109.96435547 182.04150391 C-112.44361079 137.27512816 -111.79368252 92.75994414 -98.9765625 49.55078125 C-98.72634338 48.70192352 -98.47612427 47.8530658 -98.21832275 46.97848511 C-92.06692026 26.2866066 -85.26335333 3.71792594 -65.1640625 -7.19921875 C-42.7253749 -17.7287911 -19.71182704 -13.77619284 0 0 Z M-70.7890625 4.05078125 C-71.40910156 4.60121094 -72.02914062 5.15164062 -72.66796875 5.71875 C-86.37246934 19.60720361 -90.53774233 41.89751065 -95.7890625 60.05078125 C-96.22508789 61.53843994 -96.22508789 61.53843994 -96.66992188 63.05615234 C-104.08880924 88.75048656 -105.01096951 115.77271394 -104.9765625 142.36328125 C-104.97595825 143.23808136 -104.975354 144.11288147 -104.97473145 145.01419067 C-105.68541342 211.58196834 -105.68541342 211.58196834 -79.7890625 271.05078125 C-79.04849609 272.03691406 -79.04849609 272.03691406 -78.29296875 273.04296875 C-73.55821562 279.02235888 -67.30704524 283.39682505 -59.7890625 285.05078125 C-49.97586933 286.16203135 -42.49820847 283.35961913 -34.7265625 277.42578125 C-12.81031615 258.79184324 0.05352047 230.76149291 9.2109375 204.05078125 C9.43807434 203.3909021 9.66521118 202.73102295 9.89923096 202.05114746 C22.51056973 165.3801154 34.49950724 128.39557801 45.2515564 91.13482666 C45.81478333 89.18645971 46.389232 87.24134742 46.96411133 85.29638672 C49.09662051 77.71520158 50.06169903 72.32550376 46.27734375 65.140625 C45.45665807 63.74819386 44.62129287 62.36433748 43.7734375 60.98828125 C43.32822754 60.2502124 42.88301758 59.51214355 42.42431641 58.75170898 C33.45950702 44.09448197 22.89845612 30.63095227 11.2109375 18.05078125 C10.59863281 17.37273437 9.98632812 16.6946875 9.35546875 15.99609375 C-2.81402658 3.07411364 -18.79130866 -6.74060958 -36.7890625 -7.32421875 C-49.39697973 -7.11052524 -61.17183295 -4.59935259 -70.7890625 4.05078125 Z " fill="#000000" transform="translate(308.7890625,83.94921875)"/>
<path d="M0 0 C6.517904 4.68956663 12.55343845 10.81246164 14 19 C14.7992898 30.25557271 13.99078008 38.31915226 6.75 47.25 C1.33164802 53.0878373 -4.3711544 56.67129269 -12.35546875 57.23828125 C-23.57071698 57.45549809 -30.8402179 55.69919895 -39.20703125 47.93359375 C-46.38318634 40.19460297 -47.48473506 33.10670258 -47.2734375 22.765625 C-46.64352117 14.09077723 -42.28194806 7.82507911 -36 2 C-25.82502277 -5.66451556 -10.93235165 -7.28107507 0 0 Z " fill="#000000" transform="translate(459,129)"/>
<path d="M0 0 C-0.87023608 36.7872523 -16.4461784 83.53786167 -41 111 C-41.50917969 111.639375 -42.01835937 112.27875 -42.54296875 112.9375 C-50.50753636 122.93225151 -61.72334741 129.3616737 -73 135 C-84.13593025 135.93020897 -93.80261814 135.2641468 -103.15234375 128.42578125 C-109.82194115 122.37661151 -112.55382768 114.52527024 -113.15625 105.71484375 C-113.84595635 86.20190152 -106.92384401 70.74913921 -93.98046875 56.6640625 C-92.90893382 55.54180211 -91.83216632 54.4245124 -90.75 53.3125 C-90.2744165 52.81451904 -89.79883301 52.31653809 -89.30883789 51.8034668 C-80.31282126 42.86264936 -69.03548594 36.66379021 -57.875 30.875 C-55.41965083 29.58362827 -52.96771243 28.28583337 -50.515625 26.98828125 C-49.89575714 26.66119675 -49.27588928 26.33411224 -48.63723755 25.99711609 C-41.91568736 22.44346808 -35.26676342 18.76261173 -28.625 15.0625 C-27.50085693 14.43706299 -26.37671387 13.81162598 -25.21850586 13.16723633 C-18.20679586 9.25636619 -11.22944072 5.29221795 -4.30859375 1.22265625 C-2 0 -2 0 0 0 Z M-13.63671875 13.38671875 C-15.07446655 14.16656128 -15.07446655 14.16656128 -16.54125977 14.9621582 C-17.57951904 15.531521 -18.61777832 16.10088379 -19.6875 16.6875 C-21.29226196 17.56184692 -21.29226196 17.56184692 -22.92944336 18.45385742 C-31.31853508 23.04007473 -39.65016975 27.72483093 -47.95458984 32.46240234 C-52.73356857 35.182693 -57.53154088 37.82783594 -62.42285156 40.34033203 C-69.32732171 43.89247675 -75.18103372 47.87539777 -81 53 C-82.22783203 54.01320313 -82.22783203 54.01320313 -83.48046875 55.046875 C-96.89336853 66.44264102 -104.96648618 79.30089823 -107 97 C-107.68175266 105.52788856 -107.10379163 114.32495755 -101.75 121.375 C-94.81168775 127.99793442 -87.90233623 129.50352166 -78.5078125 129.3984375 C-67.93276508 128.19726285 -59.64635383 120.87459451 -52 114 C-51.31421875 113.40832031 -50.6284375 112.81664062 -49.921875 112.20703125 C-32.64280278 96.29764159 -24.00510736 72.79789749 -17 51 C-16.73058594 50.1735498 -16.46117187 49.34709961 -16.18359375 48.49560547 C-12.18949071 36.14909976 -9.30854681 23.76490588 -7 11 C-9.73201489 11 -11.23536219 12.07968589 -13.63671875 13.38671875 Z " fill="#000000" transform="translate(361,495)"/>
<path d="M0 0 C1.32 0.33 2.64 0.66 4 1 C2.71125972 4.65037272 1.22451516 7.15606936 -1.3125 10.0625 C-37.96072217 54.86213506 -60.26498631 114.96009902 -67 172 C-67.13277344 173.09699219 -67.26554687 174.19398438 -67.40234375 175.32421875 C-72.36782535 226.27142034 -59.7595318 279.17113317 -30 321 C-29.24074219 322.07121094 -28.48148438 323.14242188 -27.69921875 324.24609375 C-25.52499736 327.21585618 -23.28810188 330.11722792 -21 333 C-20.24074219 333.96421875 -19.48148438 334.9284375 -18.69921875 335.921875 C-8.71890042 348.15280943 2.540889 360.28781198 15 370 C15 367.03 15 364.06 15 361 C16.32 361 17.64 361 19 361 C20.22517308 366.66642551 20.09228867 372.23708518 20 378 C14.29309366 378.99250545 8.78591511 379.10477512 3 379 C3.33 377.68 3.66 376.36 4 375 C6.64 374.67 9.28 374.34 12 374 C11.36723145 373.4126709 11.36723145 373.4126709 10.72167969 372.81347656 C-36.06651601 329.32558767 -69.64500566 277.01458149 -72.91015625 211.47265625 C-72.93980469 210.32667969 -72.96945313 209.18070313 -73 208 C-73.02046387 207.2972998 -73.04092773 206.59459961 -73.06201172 205.87060547 C-74.88593978 134.49623049 -47.73142791 62.34795027 -4.3984375 6.125 C-2.86806169 4.13102501 -1.3942725 2.09140875 0 0 Z " fill="#000000" transform="translate(112,40)"/>
<path d="M0 0 C0.65134925 1.56020867 1.29582964 3.12328579 1.9375 4.6875 C2.29714844 5.55761719 2.65679687 6.42773438 3.02734375 7.32421875 C3.9570312 9.88179265 4.54162625 12.3221323 5 15 C3.68 15.33 2.36 15.66 1 16 C-0.25664978 13.09399739 -1 11.20395416 -1 8 C-1.66 8 -2.32 8 -3 8 C-3.26611084 8.82334839 -3.26611084 8.82334839 -3.53759766 9.66333008 C-4.81714584 13.56890357 -6.14035689 17.4379759 -7.6484375 21.26171875 C-19.37187622 51.13530054 -24.34464143 83.70347788 -11.78125 114.12109375 C-1.31596381 137.77994738 18.8444104 153.72016426 42 164 C42.61842773 164.27682617 43.23685547 164.55365234 43.87402344 164.83886719 C90.89241744 185.56095577 147.50952039 184.78510947 195.24707031 167.09082031 C200.62721496 164.95899287 205.76521144 162.4083874 210.85546875 159.6640625 C213.53524281 158.24594604 216.16318501 157.05779542 219 156 C219.33 157.32 219.66 158.64 220 160 C195.32110878 176.19552236 163.71040437 183.97275295 134.375 184.23828125 C133.47833115 184.24802979 132.58166229 184.25777832 131.65782166 184.26782227 C112.41780935 184.43403639 93.83386829 184.40443616 75 180 C74.13745605 179.80744629 73.27491211 179.61489258 72.38623047 179.41650391 C61.50732428 176.94973923 51.16611017 173.60327013 41 169 C40.02401855 168.56131592 40.02401855 168.56131592 39.02832031 168.11376953 C12.15190424 155.84466611 -8.6308942 136.41561005 -19.30859375 108.58984375 C-29.64771094 77.42100329 -22.65444344 44.59633572 -10.296875 15.1640625 C-9.05849864 12.1427226 -7.9955464 9.10873451 -7 6 C-9.64 6.66 -12.28 7.32 -15 8 C-15.33 6.68 -15.66 5.36 -16 4 C-14.274773 3.32320342 -12.54461061 2.65898 -10.8125 2 C-9.84957031 1.62875 -8.88664063 1.2575 -7.89453125 0.875 C-5.07817642 0.02363228 -2.91835561 -0.17072647 0 0 Z " fill="#000000" transform="translate(169,522)"/>
<path d="M0 0 C0.99 0.33 1.98 0.66 3 1 C4.7446193 34.23128574 5.20142887 67.40816285 5.18847656 100.679245 C5.18750051 103.81086393 5.18847337 106.94247791 5.18969727 110.07409668 C5.19065066 115.0725654 5.18498935 120.07098492 5.17376137 125.06944084 C5.16994373 126.93132226 5.16751858 128.79320714 5.16658592 130.65509224 C5.1644358 133.23340047 5.15577293 135.81160655 5.14526367 138.38989258 C5.14572189 139.13307362 5.14618011 139.87625465 5.14665222 140.64195633 C5.11541831 145.82316743 4.63722977 150.85737965 4 156 C6.31 155.67 8.62 155.34 11 155 C10.67 155.99 10.34 156.98 10 158 C5.95637513 159.8380113 3.26550147 160.25455926 -1 159 C-2.31626692 155.38026598 -3 152.90432869 -3 149 C-2.01 149.33 -1.02 149.66 0 150 C1.24147345 147.51705309 1.20721135 145.70317143 1.31640625 142.92578125 C1.35830078 141.86294922 1.40019531 140.80011719 1.44335938 139.70507812 C1.48267578 138.58552734 1.52199219 137.46597656 1.5625 136.3125 C1.60568359 135.27416016 1.64886719 134.23582031 1.69335938 133.16601562 C2.41069121 113.91191824 1.98874689 94.63112489 1.5625 75.375 C1.51765023 73.26188171 1.47280984 71.14876322 1.42797852 69.03564453 C1.15611153 56.5131441 0.78820866 43.99933599 0.30712891 31.4831543 C-0.0789017 20.98706086 -0.09733733 10.50161644 0 0 Z " fill="#000000" transform="translate(517,94)"/>
<path d="M0 0 C5 5.11363636 5 5.11363636 5 9 C1.125 7.125 1.125 7.125 0 6 C-0.20979492 6.88800293 -0.20979492 6.88800293 -0.42382812 7.79394531 C-10.47104848 49.71120707 -32.00544603 90.15440419 -60 123 C-60.66 122.67 -61.32 122.34 -62 122 C-60.50063044 117.50189133 -57.97981977 114.08905673 -55.125 110.375 C-48.53671528 101.58331953 -42.71182858 92.3781407 -37 83 C-36.31188232 81.87948242 -36.31188232 81.87948242 -35.60986328 80.73632812 C-21.88060504 58.2513924 -7.25774091 32.71660079 -5 6 C-5.66 6.66 -6.32 7.32 -7 8 C-7.99 8 -8.98 8 -10 8 C-7.80926025 2.88827391 -5.76796198 0 0 0 Z " fill="#000000" transform="translate(588,185)"/>
<path d="M0 0 C1.4540625 0.0309375 1.4540625 0.0309375 2.9375 0.0625 C5.0625 4.6875 5.0625 4.6875 3.9375 8.0625 C4.26300502 9.73071323 4.59596063 11.39749557 4.9375 13.0625 C4.6075 13.7225 4.2775 14.3825 3.9375 15.0625 C1.125 15.9375 1.125 15.9375 -2.0625 16.0625 C-4.4375 14.125 -4.4375 14.125 -6.0625 12.0625 C-2.43923261 10.8547442 -1.42103631 11.51938872 1.9375 13.0625 C1.9375 11.7425 1.9375 10.4225 1.9375 9.0625 C0.6175 9.0625 -0.7025 9.0625 -2.0625 9.0625 C-2.0625 8.0725 -2.0625 7.0825 -2.0625 6.0625 C-0.7425 6.0625 0.5775 6.0625 1.9375 6.0625 C1.6075 5.0725 1.2775 4.0825 0.9375 3.0625 C-1.0425 3.7225 -3.0225 4.3825 -5.0625 5.0625 C-3.9375 0.08035714 -3.9375 0.08035714 0 0 Z " fill="#000000" transform="translate(180.0625,693.9375)"/>
<path d="M0 0 C3.0625 0.1875 3.0625 0.1875 5.0625 2.1875 C4.90004442 5.92397845 4.47466356 7.71288742 2 10.5625 C1.360625 11.09875 0.72125 11.635 0.0625 12.1875 C1.7125 12.5175 3.3625 12.8475 5.0625 13.1875 C5.0625 13.8475 5.0625 14.5075 5.0625 15.1875 C1.7625 15.1875 -1.5375 15.1875 -4.9375 15.1875 C-2.9375 11.1875 -2.9375 11.1875 -0.8125 8.625 C1.36735538 6.30372611 1.36735538 6.30372611 1.0625 3.1875 C0.4025 3.1875 -0.2575 3.1875 -0.9375 3.1875 C-1.2675 3.8475 -1.5975 4.5075 -1.9375 5.1875 C-2.9275 5.1875 -3.9175 5.1875 -4.9375 5.1875 C-3.82120474 0.24390669 -3.82120474 0.24390669 0 0 Z " fill="#000000" transform="translate(546.9375,167.8125)"/>
<path d="M0 0 C0.99 0 1.98 0 3 0 C3 3.3 3 6.6 3 10 C3.66 10 4.32 10 5 10 C5 10.66 5 11.32 5 12 C4.34 12 3.68 12 3 12 C3 12.99 3 13.98 3 15 C2.34 15 1.68 15 1 15 C1 14.01 1 13.02 1 12 C-1.31 12 -3.62 12 -6 12 C-5.56629155 7.2292071 -3.35665609 3.36635741 0 0 Z M0 4 C-0.99 5.98 -1.98 7.96 -3 10 C-1.68 10 -0.36 10 1 10 C1 8.02 1 6.04 1 4 C0.67 4 0.34 4 0 4 Z " fill="#000000" transform="translate(556,226)"/>
<path d="M0 0 C0 0.99 0 1.98 0 3 C0.66 3 1.32 3 2 3 C1.67 6.63 1.34 10.26 1 14 C0.01 14 -0.98 14 -2 14 C-1.67 10.37 -1.34 6.74 -1 3 C-5.455 4.485 -5.455 4.485 -10 6 C-10.33 5.01 -10.66 4.02 -11 3 C-9.73160474 2.49384702 -8.46016898 1.99530901 -7.1875 1.5 C-6.12595703 1.08234375 -6.12595703 1.08234375 -5.04296875 0.65625 C-3 0 -3 0 0 0 Z " fill="#000000" transform="translate(447,427)"/>
<path d="M0 0 C0 4.95 0 9.9 0 15 C-0.99 15 -1.98 15 -3 15 C-3 11.37 -3 7.74 -3 4 C-3.99 4.33 -4.98 4.66 -6 5 C-5.625 3.0625 -5.625 3.0625 -5 1 C-3 0 -3 0 0 0 Z " fill="#000000" transform="translate(167,694)"/>
<path d="M0 0 C0 4.95 0 9.9 0 15 C-0.99 15 -1.98 15 -3 15 C-3 11.37 -3 7.74 -3 4 C-3.99 4.33 -4.98 4.66 -6 5 C-5.625 3.0625 -5.625 3.0625 -5 1 C-3 0 -3 0 0 0 Z " fill="#000000" transform="translate(542,226)"/>
<path d="M0 0 C0 4.95 0 9.9 0 15 C-0.99 15 -1.98 15 -3 15 C-3 11.37 -3 7.74 -3 4 C-3.99 4.33 -4.98 4.66 -6 5 C-5.625 3.0625 -5.625 3.0625 -5 1 C-3 0 -3 0 0 0 Z " fill="#000000" transform="translate(7,199)"/>
<path d="M0 0 C0 4.95 0 9.9 0 15 C-0.99 15 -1.98 15 -3 15 C-3 11.37 -3 7.74 -3 4 C-3.99 4.33 -4.98 4.66 -6 5 C-5.625 3.0625 -5.625 3.0625 -5 1 C-3 0 -3 0 0 0 Z " fill="#000000" transform="translate(534,168)"/>
<path d="M0 0 C0 4.95 0 9.9 0 15 C-0.66 15 -1.32 15 -2 15 C-2.33 11.37 -2.66 7.74 -3 4 C-3.99 4.33 -4.98 4.66 -6 5 C-6 4.01 -6 3.02 -6 2 C-3 0 -3 0 0 0 Z " fill="#000000" transform="translate(19,199)"/>
<path d="M0 0 C1.17825358 0.90172468 2.34231577 1.82201502 3.5 2.75 C4.1496875 3.26046875 4.799375 3.7709375 5.46875 4.296875 C7 6 7 6 7 10 C2.7257442 8.4169423 0.73468206 5.49431596 -2 2 C-1.34 1.34 -0.68 0.68 0 0 Z " fill="#000000" transform="translate(164,364)"/>
<path d="M0 0 C4.2742558 1.5830577 6.26531794 4.50568404 9 8 C8.01 8.33 7.02 8.66 6 9 C4.17578125 7.78515625 4.17578125 7.78515625 2.3125 6.0625 C1.68988281 5.49660156 1.06726563 4.93070313 0.42578125 4.34765625 C-0.04472656 3.90292969 -0.51523438 3.45820312 -1 3 C-0.67 2.01 -0.34 1.02 0 0 Z " fill="#000000" transform="translate(218,632)"/>
<path d="M0 0 C0.99 0.33 1.98 0.66 3 1 C1.35 4.3 -0.3 7.6 -2 11 C-2.99 11 -3.98 11 -5 11 C-3.77472971 6.94718288 -2.30119506 3.55639236 0 0 Z " fill="#000000" transform="translate(336,309)"/>
<path d="M0 0 C0.66 0.33 1.32 0.66 2 1 C1 4 1 4 -1.06640625 5.16796875 C-1.89011719 5.50441406 -2.71382813 5.84085938 -3.5625 6.1875 C-4.38878906 6.53167969 -5.21507812 6.87585938 -6.06640625 7.23046875 C-6.70449219 7.48441406 -7.34257812 7.73835937 -8 8 C-8.33 7.01 -8.66 6.02 -9 5 C-7.54735962 4.1361871 -6.0876837 3.28419546 -4.625 2.4375 C-3.40683594 1.72400391 -3.40683594 1.72400391 -2.1640625 0.99609375 C-1.44992187 0.66738281 -0.73578125 0.33867188 0 0 Z " fill="#000000" transform="translate(337,636)"/>
<path d="M0 0 C0 0.66 0 1.32 0 2 C-4.95 4.475 -4.95 4.475 -10 7 C-10 5.68 -10 4.36 -10 3 C-3.375 -1.125 -3.375 -1.125 0 0 Z " fill="#000000" transform="translate(300,496)"/>
<path d="M0 0 C0 0.99 0 1.98 0 3 C-1.28913487 3.67154933 -2.58140204 4.33708859 -3.875 5 C-4.59429687 5.37125 -5.31359375 5.7425 -6.0546875 6.125 C-8 7 -8 7 -10 7 C-10.33 6.01 -10.66 5.02 -11 4 C-9.73308493 3.32591692 -8.46129251 2.66099503 -7.1875 2 C-6.47980469 1.62875 -5.77210938 1.2575 -5.04296875 0.875 C-3 0 -3 0 0 0 Z " fill="#000000" transform="translate(372,458)"/>
<path d="M0 0 C3.63 0.33 7.26 0.66 11 1 C11 1.99 11 2.98 11 4 C6.83861737 4.08159574 3.0527516 3.98248524 -1 3 C-0.67 2.01 -0.34 1.02 0 0 Z " fill="#000000" transform="translate(233,407)"/>
<path d="M0 0 C0.66 0.33 1.32 0.66 2 1 C1.43768609 4.93619738 0.38314183 7.79192446 -2 11 C-2.99 11 -3.98 11 -5 11 C-4.32902328 6.80639551 -2.1441606 3.59665648 0 0 Z " fill="#000000" transform="translate(308,367)"/>
<path d="M0 0 C0.66 0.33 1.32 0.66 2 1 C0.6062718 5.43458973 -1.60582235 7.87378374 -5 11 C-5.66 10.34 -6.32 9.68 -7 9 C-4.69 6.03 -2.38 3.06 0 0 Z " fill="#000000" transform="translate(378,234)"/>
<path d="M0 0 C0.99 0.99 1.98 1.98 3 3 C1.02 5.64 -0.96 8.28 -3 11 C-3.99 10.67 -4.98 10.34 -6 10 C-4.34832443 6.4213696 -2.21713508 3.25179812 0 0 Z " fill="#000000" transform="translate(390,217)"/>
<path d="M0 0 C0.99 0 1.98 0 3 0 C3.50367757 1.45706726 4.00282556 2.91570096 4.5 4.375 C4.91765625 5.59316406 4.91765625 5.59316406 5.34375 6.8359375 C6 9 6 9 6 11 C4.68 10.67 3.36 10.34 2 10 C1.34 6.7 0.68 3.4 0 0 Z " fill="#000000" transform="translate(420,70)"/>
<path d="M0 0 C0.99 0.33 1.98 0.66 3 1 C2.09827532 2.17825358 1.17798498 3.34231577 0.25 4.5 C-0.51570313 5.47453125 -0.51570313 5.47453125 -1.296875 6.46875 C-3 8 -3 8 -7 8 C-5.64458676 3.93376028 -3.42990531 2.46953182 0 0 Z " fill="#000000" transform="translate(368,612)"/>
<path d="M0 0 C0.99 0 1.98 0 3 0 C2.38545304 3.99455527 0.29353263 6.74466336 -2 10 C-2.99 9.67 -3.98 9.34 -5 9 C-3.49901406 5.88256767 -1.97568178 2.84498177 0 0 Z " fill="#000000" transform="translate(393,581)"/>
<path d="M0 0 C0.99 0.33 1.98 0.66 3 1 C1.66511872 4.59391114 0.03977277 7.75490696 -2 11 C-2.99 10.67 -3.98 10.34 -5 10 C-3.35 6.7 -1.7 3.4 0 0 Z " fill="#000000" transform="translate(404,563)"/>
<path d="M0 0 C0 0.99 0 1.98 0 3 C-2.97 4.65 -5.94 6.3 -9 8 C-9 6.68 -9 5.36 -9 4 C-4 0 -4 0 0 0 Z " fill="#000000" transform="translate(282,506)"/>
<path d="M0 0 C-0.24609375 1.859375 -0.24609375 1.859375 -1 4 C-2.84765625 5.265625 -2.84765625 5.265625 -5.0625 6.25 C-6.16271484 6.75273437 -6.16271484 6.75273437 -7.28515625 7.265625 C-8.13400391 7.62914062 -8.13400391 7.62914062 -9 8 C-9 6.68 -9 5.36 -9 4 C-2.25 0 -2.25 0 0 0 Z " fill="#000000" transform="translate(317,485)"/>
<path d="M0 0 C0.53625 0.226875 1.0725 0.45375 1.625 0.6875 C-1.09978774 4.05341427 -4.44356792 5.12976276 -8.375 6.6875 C-8.375 5.3675 -8.375 4.0475 -8.375 2.6875 C-2.95961538 -0.38942308 -2.95961538 -0.38942308 0 0 Z " fill="#000000" transform="translate(352.375,467.3125)"/>
<path d="M0 0 C0.66 0.33 1.32 0.66 2 1 C0.89184175 4.21365891 0.01470446 4.9914224 -3 6.75 C-6 8 -6 8 -8 8 C-7.9375 6.25 -7.9375 6.25 -7 4 C-4.74876994 2.27481113 -2.59865097 1.23093993 0 0 Z " fill="#000000" transform="translate(281,398)"/>
<path d="M0 0 C0.99 0.33 1.98 0.66 3 1 C1.35 4.3 -0.3 7.6 -2 11 C-2.66 11 -3.32 11 -4 11 C-3.48964169 6.6109185 -2.47785723 3.66291938 0 0 Z " fill="#000000" transform="translate(317,348)"/>
<path d="M0 0 C0.66 0.33 1.32 0.66 2 1 C1.60404157 2.48484412 1.18249294 3.9628831 0.75 5.4375 C0.51796875 6.26121094 0.2859375 7.08492188 0.046875 7.93359375 C-1 10 -1 10 -3.109375 10.78515625 C-3.73328125 10.85605469 -4.3571875 10.92695313 -5 11 C-3.77472971 6.94718288 -2.30119506 3.55639236 0 0 Z " fill="#000000" transform="translate(355,270)"/>
<path d="M0 0 C0.66 0.33 1.32 0.66 2 1 C0.66749209 4.5875213 -0.830717 7.8364623 -3 11 C-3.66 11 -4.32 11 -5 11 C-4.54663921 6.12637153 -3.2910841 3.60957611 0 0 Z " fill="#000000" transform="translate(365,251)"/>
<path d="M0 0 C0.99 0 1.98 0 3 0 C2.34 3.63 1.68 7.26 1 11 C0.01 11 -0.98 11 -2 11 C-1.125 3.375 -1.125 3.375 0 0 Z " fill="#000000" transform="translate(627,211)"/>
<path d="M0 0 C0.99 0.33 1.98 0.66 3 1 C-1 8.71428571 -1 8.71428571 -5 10 C-5 6.60406522 -4.47834052 5.93380119 -2.5 3.3125 C-2.0359375 2.68988281 -1.571875 2.06726563 -1.09375 1.42578125 C-0.7328125 0.95527344 -0.371875 0.48476562 0 0 Z " fill="#000000" transform="translate(415,184)"/>
<path d="M0 0 C0.99 0 1.98 0 3 0 C4.42258812 3.82320557 5.24042276 6.91281305 5 11 C4.01 11 3.02 11 2 11 C1.34 7.37 0.68 3.74 0 0 Z " fill="#000000" transform="translate(430,109)"/>
<path d="M0 0 C1.32 0.33 2.64 0.66 4 1 C4.66 3.97 5.32 6.94 6 10 C5.01 10.33 4.02 10.66 3 11 C2.01 7.37 1.02 3.74 0 0 Z " fill="#000000" transform="translate(414,51)"/>
<path d="M0 0 C0 0.99 0 1.98 0 3 C-3.63 3.33 -7.26 3.66 -11 4 C-11 3.01 -11 2.02 -11 1 C-7.32589215 -0.17571451 -3.83070817 -0.07366746 0 0 Z " fill="#000000" transform="translate(282,656)"/>
<path d="M0 0 C2.97 1.65 5.94 3.3 9 5 C9 5.99 9 6.98 9 8 C5.00544473 7.38545304 2.25533664 5.29353263 -1 3 C-0.67 2.01 -0.34 1.02 0 0 Z " fill="#000000" transform="translate(234,645)"/>
<path d="M0 0 C-2.33333333 2.33333333 -4.66666667 4.66666667 -7 7 C-7.99 7 -8.98 7 -10 7 C-10 6.01 -10 5.02 -10 4 C-8.57421875 2.578125 -8.57421875 2.578125 -6.6875 1.25 C-6.07261719 0.80140625 -5.45773437 0.3528125 -4.82421875 -0.109375 C-3 -1 -3 -1 0 0 Z " fill="#000000" transform="translate(356,626)"/>
<path d="M0 0 C0.99 0 1.98 0 3 0 C7 6.625 7 6.625 7 10 C6.01 10 5.02 10 4 10 C0 3.375 0 3.375 0 0 Z " fill="#000000" transform="translate(206,616)"/>
<path d="M0 0 C0.99 0 1.98 0 3 0 C2.42636089 3.87206399 0.65894107 6.18465063 -2 9 C-2.99 9 -3.98 9 -5 9 C-4.42636089 5.12793601 -2.65894107 2.81534937 0 0 Z " fill="#000000" transform="translate(381,597)"/>
<path d="M0 0 C0.99 0 1.98 0 3 0 C1.6062718 4.43458973 -0.60582235 6.87378374 -4 10 C-5 7 -5 7 -4.109375 5.17578125 C-3.66078125 4.56089844 -3.2121875 3.94601562 -2.75 3.3125 C-2.31171875 2.68988281 -1.8734375 2.06726563 -1.421875 1.42578125 C-0.95265625 0.95527344 -0.4834375 0.48476563 0 0 Z " fill="#000000" transform="translate(218,559)"/>
<path d="M0 0 C0.99 0.33 1.98 0.66 3 1 C1.8905928 4.48670834 0.73662334 7.77484237 -1 11 C-1.99 11 -2.98 11 -4 11 C-3.52269162 9.5410574 -3.04308958 8.08286504 -2.5625 6.625 C-2.29566406 5.81289063 -2.02882813 5.00078125 -1.75390625 4.1640625 C-1 2 -1 2 0 0 Z " fill="#000000" transform="translate(413,545)"/>
<path d="M0 0 C0.66 0.33 1.32 0.66 2 1 C0.47291037 4.43595166 -1.59927045 7.11912454 -4 10 C-4.99 9.67 -5.98 9.34 -7 9 C-5.44499019 5.18315774 -2.96404505 2.80804268 0 0 Z " fill="#000000" transform="translate(232,543)"/>
<path d="M0 0 C0.99 0.33 1.98 0.66 3 1 C1.68 4.3 0.36 7.6 -1 11 C-1.99 10.67 -2.98 10.34 -4 10 C-2.68 6.7 -1.36 3.4 0 0 Z " fill="#000000" transform="translate(421,527)"/>
<path d="M0 0 C0.99 0.33 1.98 0.66 3 1 C2.01 4.3 1.02 7.6 0 11 C-0.99 11 -1.98 11 -3 11 C-2.44894091 7.0507432 -1.61064629 3.65079826 0 0 Z " fill="#000000" transform="translate(428,508)"/>
<path d="M0 0 C0 0.99 0 1.98 0 3 C-2.97 4.32 -5.94 5.64 -9 7 C-9 5.68 -9 4.36 -9 3 C-3.375 0 -3.375 0 0 0 Z " fill="#000000" transform="translate(335,476)"/>
<path d="M0 0 C-2.1290142 2.34191563 -4.04408729 3.83554954 -7 5 C-8.32 5 -9.64 5 -11 5 C-10 2 -10 2 -7.1875 0.25 C-4.03596914 -0.98589446 -3.03070628 -1.28222189 0 0 Z " fill="#000000" transform="translate(391,451)"/>
<path d="M0 0 C-2.35735884 2.72957339 -4.58133526 3.88893396 -8 5 C-8.99 5 -9.98 5 -11 5 C-11 4.01 -11 3.02 -11 2 C-3.57142857 -1.57142857 -3.57142857 -1.57142857 0 0 Z " fill="#000000" transform="translate(410,443)"/>
<path d="M0 0 C0 0.99 0 1.98 0 3 C-3.3 4.32 -6.6 5.64 -10 7 C-10.33 6.01 -10.66 5.02 -11 4 C-9.5437455 3.32880451 -8.08492133 2.66318193 -6.625 2 C-5.81289063 1.62875 -5.00078125 1.2575 -4.1640625 0.875 C-2 0 -2 0 0 0 Z " fill="#000000" transform="translate(428,434)"/>
<path d="M0 0 C0.515625 0.2475 1.03125 0.495 1.5625 0.75 C-1.16228774 4.11591427 -4.50606792 5.19226276 -8.4375 6.75 C-8.7675 5.76 -9.0975 4.77 -9.4375 3.75 C-3.0375 -0.31153846 -3.0375 -0.31153846 0 0 Z " fill="#000000" transform="translate(483.4375,413.25)"/>
<path d="M0 0 C0.99 0 1.98 0 3 0 C2.67 3.63 2.34 7.26 2 11 C1.01 11 0.02 11 -1 11 C-1.14285714 3.57142857 -1.14285714 3.57142857 0 0 Z " fill="#000000" transform="translate(449,410)"/>
<path d="M0 0 C0 0.99 0 1.98 0 3 C-3.67410785 4.17571451 -7.16929183 4.07366746 -11 4 C-11 3.01 -11 2.02 -11 1 C-7.26513121 0.4254048 -3.78706732 0 0 0 Z " fill="#000000" transform="translate(264,407)"/>
<path d="M0 0 C3.63 1.32 7.26 2.64 11 4 C10.67 4.99 10.34 5.98 10 7 C8.51515588 6.60404157 7.0371169 6.18249294 5.5625 5.75 C4.73878906 5.51796875 3.91507813 5.2859375 3.06640625 5.046875 C2.38449219 4.70140625 1.70257813 4.3559375 1 4 C0.67 2.68 0.34 1.36 0 0 Z " fill="#000000" transform="translate(213,400)"/>
<path d="M0 0 C3.98264458 0.44251606 6.7971409 2.74344018 10 5 C9.67 5.66 9.34 6.32 9 7 C4.56909529 5.79157144 2.01887244 4.48331435 -1 1 C-0.67 0.67 -0.34 0.34 0 0 Z " fill="#000000" transform="translate(195,391)"/>
<path d="M0 0 C1.34173403 0.92543709 2.67320159 1.86577405 4 2.8125 C5.11375 3.59560547 5.11375 3.59560547 6.25 4.39453125 C7.11625 5.18923828 7.11625 5.18923828 8 6 C8 6.99 8 7.98 8 9 C4.06326356 7.68775452 1.77280706 6.08089673 -1 3 C-0.67 2.01 -0.34 1.02 0 0 Z " fill="#000000" transform="translate(179,378)"/>
<path d="M0 0 C0.66 0 1.32 0 2 0 C3.65 2.97 5.3 5.94 7 9 C5.68 9 4.36 9 3 9 C0.6875 6.1875 0.6875 6.1875 -1 3 C-0.67 2.01 -0.34 1.02 0 0 Z " fill="#000000" transform="translate(140,332)"/>
<path d="M0 0 C0.99 0 1.98 0 3 0 C3 3.63 3 7.26 3 11 C2.01 11 1.02 11 0 11 C0 7.37 0 3.74 0 0 Z " fill="#000000" transform="translate(454,329)"/>
<path d="M0 0 C0.99 0 1.98 0 3 0 C2.52269162 1.4589426 2.04308958 2.91713496 1.5625 4.375 C1.29566406 5.18710937 1.02882813 5.99921875 0.75390625 6.8359375 C0 9 0 9 -1 11 C-1.99 10.67 -2.98 10.34 -4 10 C-2.8905928 6.51329166 -1.73662334 3.22515763 0 0 Z " fill="#000000" transform="translate(326,329)"/>
<path d="M0 0 C0.66 0 1.32 0 2 0 C2.67154933 1.28913487 3.33708859 2.58140204 4 3.875 C4.37125 4.59429687 4.7425 5.31359375 5.125 6.0546875 C6 8 6 8 6 10 C4.1875 9.875 4.1875 9.875 2 9 C0.1875 6.125 0.1875 6.125 -1 3 C-0.67 2.01 -0.34 1.02 0 0 Z " fill="#000000" transform="translate(131,315)"/>
<path d="M0 0 C0.99 0 1.98 0 3 0 C3 3.63 3 7.26 3 11 C2.01 11 1.02 11 0 11 C0 7.37 0 3.74 0 0 Z " fill="#000000" transform="translate(454,309)"/>
<path d="M0 0 C0.99 0 1.98 0 3 0 C3 3.63 3 7.26 3 11 C2.01 11 1.02 11 0 11 C0 7.37 0 3.74 0 0 Z " fill="#000000" transform="translate(454,289)"/>
<path d="M0 0 C0.99 0.33 1.98 0.66 3 1 C1.68 3.97 0.36 6.94 -1 10 C-1.99 10 -2.98 10 -4 10 C-3.43454163 6.04179141 -2.19097652 3.3340947 0 0 Z " fill="#000000" transform="translate(601,285)"/>
<path d="M0 0 C0.99 0 1.98 0 3 0 C3 3.63 3 7.26 3 11 C2.01 11 1.02 11 0 11 C0 7.37 0 3.74 0 0 Z " fill="#000000" transform="translate(453,269)"/>
<path d="M0 0 C0.99 0 1.98 0 3 0 C2.125 7.625 2.125 7.625 1 11 C0.01 10.67 -0.98 10.34 -2 10 C-1.34 6.7 -0.68 3.4 0 0 Z " fill="#000000" transform="translate(622,230)"/>
<path d="M0 0 C0.99 0 1.98 0 3 0 C2.49477778 4.37859255 -0.17827222 6.81651224 -3 10 C-3.66 9.67 -4.32 9.34 -5 9 C-3.76067171 5.56801397 -2.49698489 2.69674368 0 0 Z " fill="#000000" transform="translate(402,201)"/>
<path d="M0 0 C0.66 0 1.32 0 2 0 C2.33 3.63 2.66 7.26 3 11 C2.01 11 1.02 11 0 11 C-0.19406478 9.35492782 -0.38007935 7.70890406 -0.5625 6.0625 C-0.66691406 5.14597656 -0.77132813 4.22945312 -0.87890625 3.28515625 C-0.91886719 2.53105469 -0.95882813 1.77695313 -1 1 C-0.67 0.67 -0.34 0.34 0 0 Z " fill="#000000" transform="translate(446,188)"/>
<path d="M0 0 C0.99 0 1.98 0 3 0 C3 3.63 3 7.26 3 11 C2.01 11 1.02 11 0 11 C0 7.37 0 3.74 0 0 Z " fill="#000000" transform="translate(105,184)"/>
<path d="M0 0 C3.43595166 1.52708963 6.11912454 3.59927045 9 6 C8.67 6.99 8.34 7.98 8 9 C2.09815951 5.65030675 2.09815951 5.65030675 0 3 C0 2.01 0 1.02 0 0 Z " fill="#000000" transform="translate(407,123)"/>
<path d="M0 0 C0.66 0.33 1.32 0.66 2 1 C2.6328125 3.28515625 2.6328125 3.28515625 3.125 6.0625 C3.29257812 6.98160156 3.46015625 7.90070313 3.6328125 8.84765625 C3.75398438 9.55792969 3.87515625 10.26820312 4 11 C2.68 10.67 1.36 10.34 0 10 C-0.19412181 8.52168779 -0.38012131 7.04230684 -0.5625 5.5625 C-0.66691406 4.73878906 -0.77132813 3.91507812 -0.87890625 3.06640625 C-0.91886719 2.38449219 -0.95882813 1.70257813 -1 1 C-0.67 0.67 -0.34 0.34 0 0 Z " fill="#000000" transform="translate(427,89)"/>
<path d="M0 0 C0.33 0.99 0.66 1.98 1 3 C-0.09758507 3.84198307 -1.20335317 4.67330671 -2.3125 5.5 C-2.92738281 5.9640625 -3.54226562 6.428125 -4.17578125 6.90625 C-6 8 -6 8 -9 8 C-7.47364599 4.11473526 -4.49771687 0 0 0 Z " fill="#000000" transform="translate(165,65)"/>
<path d="M0 0 C0.515625 0.2475 1.03125 0.495 1.5625 0.75 C-1.16228774 4.11591427 -4.50606792 5.19226276 -8.4375 6.75 C-8.7675 5.76 -9.0975 4.77 -9.4375 3.75 C-3.0375 -0.31153846 -3.0375 -0.31153846 0 0 Z " fill="#000000" transform="translate(181.4375,56.25)"/>
<path d="M0 0 C0 0.66 0 1.32 0 2 C-3.63 2.66 -7.26 3.32 -11 4 C-11 3.01 -11 2.02 -11 1 C-3.57142857 -1.42857143 -3.57142857 -1.42857143 0 0 Z " fill="#000000" transform="translate(302,653)"/>
<path d="M0 0 C0 0.66 0 1.32 0 2 C-6.5 5 -6.5 5 -11 5 C-10 2 -10 2 -8.22265625 1.015625 C-7.15337891 0.63664063 -7.15337891 0.63664063 -6.0625 0.25 C-5.35222656 -0.01296875 -4.64195312 -0.2759375 -3.91015625 -0.546875 C-2 -1 -2 -1 0 0 Z " fill="#000000" transform="translate(321,646)"/>
<path d="M0 0 C0.66 0.33 1.32 0.66 2 1 C1.39009109 4.55780196 0.4216319 7.6828589 -1 11 C-1.99 11 -2.98 11 -4 11 C-3.5247412 9.35303396 -3.04468109 7.70745272 -2.5625 6.0625 C-2.29566406 5.14597656 -2.02882812 4.22945312 -1.75390625 3.28515625 C-1 1 -1 1 0 0 Z " fill="#000000" transform="translate(208,576)"/>
<path d="M0 0 C0 0.99 0 1.98 0 3 C-5.23255814 8 -5.23255814 8 -9 8 C-9 7.01 -9 6.02 -9 5 C-3.76744186 0 -3.76744186 0 0 0 Z " fill="#000000" transform="translate(249,530)"/>
<path d="M0 0 C-0.33589994 3.13506611 -1.02665172 4.025249 -3.375 6.25 C-6 8 -6 8 -9 8 C-9 7.01 -9 6.02 -9 5 C-7.5390625 3.61328125 -7.5390625 3.61328125 -5.625 2.3125 C-4.68527344 1.65701172 -4.68527344 1.65701172 -3.7265625 0.98828125 C-2 0 -2 0 0 0 Z " fill="#000000" transform="translate(265,517)"/>
<path d="M0 0 C0.99 0.33 1.98 0.66 3 1 C2.01 4.3 1.02 7.6 0 11 C-0.99 10.67 -1.98 10.34 -3 10 C-2.69201674 8.51988629 -2.378482 7.04092675 -2.0625 5.5625 C-1.88847656 4.73878906 -1.71445312 3.91507812 -1.53515625 3.06640625 C-1 1 -1 1 0 0 Z " fill="#000000" transform="translate(434,489)"/>
<path d="M0 0 C0.99 0 1.98 0 3 0 C2.34 3.63 1.68 7.26 1 11 C0.01 10.67 -0.98 10.34 -2 10 C-1.34 6.7 -0.68 3.4 0 0 Z " fill="#000000" transform="translate(443,450)"/>
<path d="M0 0 C0.33 0.99 0.66 1.98 1 3 C-3.455 4.485 -3.455 4.485 -8 6 C-8.66 5.01 -9.32 4.02 -10 3 C-6.73454239 1.11608215 -3.71888239 0.50712033 0 0 Z " fill="#000000" transform="translate(465,420)"/>
<path d="M0 0 C0.66 0.33 1.32 0.66 2 1 C0.55527654 4.80881639 -1.32603071 6.29742886 -5 8 C-5.99 7.67 -6.98 7.34 -8 7 C-5.42215154 4.35247996 -3.08351902 2.05567935 0 0 Z " fill="#000000" transform="translate(499,402)"/>
<path d="M0 0 C0.99 0 1.98 0 3 0 C2.67 3.63 2.34 7.26 2 11 C1.01 11 0.02 11 -1 11 C-0.67 7.37 -0.34 3.74 0 0 Z " fill="#000000" transform="translate(451,390)"/>
<path d="M0 0 C0.99 0 1.98 0 3 0 C2.67 3.63 2.34 7.26 2 11 C1.01 11 0.02 11 -1 11 C-1.125 3.375 -1.125 3.375 0 0 Z " fill="#000000" transform="translate(453,370)"/>
<path d="M0 0 C0.99 0 1.98 0 3 0 C4.38671875 1.4609375 4.38671875 1.4609375 5.6875 3.375 C6.12449219 4.00148438 6.56148437 4.62796875 7.01171875 5.2734375 C8 7 8 7 8 9 C4.86493389 8.66410006 3.974751 7.97334828 1.75 5.625 C0 3 0 3 0 0 Z " fill="#000000" transform="translate(150,349)"/>
<path d="M0 0 C0.99 0.33 1.98 0.66 3 1 C1.7580393 4.43927579 0.44259716 7.25207819 -2 10 C-2.66 10 -3.32 10 -4 10 C-3.43454163 6.04179141 -2.19097652 3.3340947 0 0 Z " fill="#000000" transform="translate(591,302)"/>
<path d="M0 0 C1.32 0.33 2.64 0.66 4 1 C5.046875 2.84765625 5.046875 2.84765625 5.75 5.0625 C5.99234375 5.79597656 6.2346875 6.52945312 6.484375 7.28515625 C6.65453125 7.85105469 6.8246875 8.41695313 7 9 C5.68 9 4.36 9 3 9 C2.01 6.03 1.02 3.06 0 0 Z " fill="#000000" transform="translate(122,298)"/>
<path d="M0 0 C0.99 0 1.98 0 3 0 C1.77472971 4.05281712 0.30119506 7.44360764 -2 11 C-2.66 10.67 -3.32 10.34 -4 10 C-3.52449439 8.51965236 -3.04448784 7.04074979 -2.5625 5.5625 C-2.29566406 4.73878906 -2.02882813 3.91507812 -1.75390625 3.06640625 C-1 1 -1 1 0 0 Z " fill="#000000" transform="translate(345,290)"/>
<path d="M0 0 C0.99 0.33 1.98 0.66 3 1 C3 4.3 3 7.6 3 11 C2.01 11 1.02 11 0 11 C0 7.37 0 3.74 0 0 Z " fill="#000000" transform="translate(452,249)"/>
<path d="M0 0 C0.99 0 1.98 0 3 0 C3.66 3.3 4.32 6.6 5 10 C4.01 10.33 3.02 10.66 2 11 C0 3.375 0 3.375 0 0 Z " fill="#000000" transform="translate(107,242)"/>
<path d="M0 0 C3.45925163 1.2491742 6.14693203 2.67527795 9 5 C8.67 5.99 8.34 6.98 8 8 C4.18315774 6.44499019 1.80804268 3.96404505 -1 1 C-0.67 0.67 -0.34 0.34 0 0 Z " fill="#000000" transform="translate(392,111)"/>
<path d="M0 0 C0.99 0.33 1.98 0.66 3 1 C1.68 3.97 0.36 6.94 -1 10 C-1.99 10 -2.98 10 -4 10 C-3.43454163 6.04179141 -2.19097652 3.3340947 0 0 Z " fill="#000000" transform="translate(124,109)"/>
<path d="M0 0 C3.45925163 1.2491742 6.14693203 2.67527795 9 5 C8.67 5.99 8.34 6.98 8 8 C1.25 4.375 1.25 4.375 -1 1 C-0.67 0.67 -0.34 0.34 0 0 Z " fill="#000000" transform="translate(376,99)"/>
<path d="M0 0 C2.97 1.65 5.94 3.3 9 5 C8.67 5.99 8.34 6.98 8 8 C5.36 6.68 2.72 5.36 0 4 C0 2.68 0 1.36 0 0 Z " fill="#000000" transform="translate(360,88)"/>
<path d="M0 0 C4.95 1.98 4.95 1.98 10 4 C9.01 5.485 9.01 5.485 8 7 C3.545 5.02 3.545 5.02 -1 3 C-0.67 2.01 -0.34 1.02 0 0 Z " fill="#000000" transform="translate(307,61)"/>
<path d="M0 0 C0 0.99 0 1.98 0 3 C-4.95 4.485 -4.95 4.485 -10 6 C-9.67 4.68 -9.34 3.36 -9 2 C-2.25 0 -2.25 0 0 0 Z " fill="#000000" transform="translate(201,49)"/>
<path d="M0 0 C1.258125 -0.020625 2.51625 -0.04125 3.8125 -0.0625 C4.52019531 -0.07410156 5.22789062 -0.08570313 5.95703125 -0.09765625 C8 0 8 0 11 1 C11 1.99 11 2.98 11 4 C7.7 3.67 4.4 3.34 1 3 C0.67 2.01 0.34 1.02 0 0 Z " fill="#000000" transform="translate(249,47)"/>
<path d="M0 0 C0.33 0.99 0.66 1.98 1 3 C-2.63 3.33 -6.26 3.66 -10 4 C-10 3.01 -10 2.02 -10 1 C-6.59437148 0.22157062 -3.49234244 -0.09978121 0 0 Z " fill="#000000" transform="translate(220,46)"/>
<path d="M0 0 C0.66 0 1.32 0 2 0 C2.33 3.63 2.66 7.26 3 11 C2.01 11 1.02 11 0 11 C-0.19406478 9.35492782 -0.38007935 7.70890406 -0.5625 6.0625 C-0.66691406 5.14597656 -0.77132812 4.22945312 -0.87890625 3.28515625 C-0.91886719 2.53105469 -0.95882812 1.77695312 -1 1 C-0.67 0.67 -0.34 0.34 0 0 Z " fill="#000000" transform="translate(203,596)"/>
<path d="M0 0 C0.66 0.33 1.32 0.66 2 1 C1.67 3.97 1.34 6.94 1 10 C-0.32 10.33 -1.64 10.66 -3 11 C-2.69217504 9.35328588 -2.37860766 7.70764424 -2.0625 6.0625 C-1.88847656 5.14597656 -1.71445312 4.22945313 -1.53515625 3.28515625 C-1 1 -1 1 0 0 Z " fill="#000000" transform="translate(439,469)"/>
<path d="M0 0 C-1.49041773 3.79379058 -3.69062512 5.68343758 -7 8 C-7.66 8 -8.32 8 -9 8 C-8.66410006 4.86493389 -7.97334828 3.974751 -5.625 1.75 C-3 0 -3 0 0 0 Z " fill="#000000" transform="translate(517,391)"/>
<path d="M0 0 C0.99 0.33 1.98 0.66 3 1 C2.07038578 2.15224028 1.1309875 3.29659176 0.1875 4.4375 C-0.59560547 5.39462891 -0.59560547 5.39462891 -1.39453125 6.37109375 C-3 8 -3 8 -6 9 C-5.52797514 4.75177626 -3.03344482 2.80010291 0 0 Z " fill="#000000" transform="translate(296,385)"/>
<path d="M0 0 C-1.44126786 3.36295835 -3.20592655 5.62927102 -6 8 C-6.99 8 -7.98 8 -9 8 C-9 7.01 -9 6.02 -9 5 C-3.76744186 0 -3.76744186 0 0 0 Z " fill="#000000" transform="translate(532,378)"/>
<path d="M0 0 C0.66 0.33 1.32 0.66 2 1 C0.64978174 5.41889613 -1.26115668 7.34345343 -5 10 C-5 4.69520066 -3.4637943 3.81017373 0 0 Z " fill="#000000" transform="translate(570,334)"/>
<path d="M0 0 C0.99 0.33 1.98 0.66 3 1 C2.24266726 2.3410477 1.46867264 3.67269781 0.6875 5 C0.25824219 5.7425 -0.17101562 6.485 -0.61328125 7.25 C-1.07089844 7.8275 -1.52851562 8.405 -2 9 C-2.99 9 -3.98 9 -5 9 C-4.42647107 5.12867972 -2.51295648 2.91827204 0 0 Z " fill="#000000" transform="translate(581,319)"/>
<path d="M0 0 C0.99 0.33 1.98 0.66 3 1 C2.01 3.97 1.02 6.94 0 10 C-0.99 10 -1.98 10 -3 10 C-2.39009109 6.44219804 -1.4216319 3.3171411 0 0 Z " fill="#000000" transform="translate(609,267)"/>
<path d="M0 0 C0.99 0 1.98 0 3 0 C3.66 3.3 4.32 6.6 5 10 C4.01 10.33 3.02 10.66 2 11 C0.80712589 7.12315913 0 4.08378077 0 0 Z " fill="#000000" transform="translate(111,261)"/>
<path d="M0 0 C0.99 0 1.98 0 3 0 C3.33 3.3 3.66 6.6 4 10 C3.01 10.33 2.02 10.66 1 11 C-0.28317892 7.15046324 -0.06643637 4.05261865 0 0 Z " fill="#000000" transform="translate(450,229)"/>
<path d="M0 0 C0.66 0.33 1.32 0.66 2 1 C2.4140625 3.28515625 2.4140625 3.28515625 2.625 6.0625 C2.69976562 6.98160156 2.77453125 7.90070313 2.8515625 8.84765625 C2.92503906 9.91306641 2.92503906 9.91306641 3 11 C2.01 11.33 1.02 11.66 0 12 C-1.29449495 8.11651516 -1.13203312 5.09302664 -1 1 C-0.67 0.67 -0.34 0.34 0 0 Z " fill="#000000" transform="translate(449,208)"/>
<path d="M0 0 C0.99 0 1.98 0 3 0 C2.88590407 1.45922693 2.75834456 2.91740598 2.625 4.375 C2.55539063 5.18710938 2.48578125 5.99921875 2.4140625 6.8359375 C2 9 2 9 0 11 C-0.66 10.34 -1.32 9.68 -2 9 C-1.7578125 6.8359375 -1.7578125 6.8359375 -1.125 4.375 C-0.92132813 3.55773437 -0.71765625 2.74046875 -0.5078125 1.8984375 C-0.34023437 1.27195313 -0.17265625 0.64546875 0 0 Z " fill="#000000" transform="translate(111,146)"/>
<path d="M0 0 C0.66 0.33 1.32 0.66 2 1 C1.34 4.3 0.68 7.6 0 11 C-0.99 10.67 -1.98 10.34 -3 10 C-2.69201674 8.51988629 -2.378482 7.04092675 -2.0625 5.5625 C-1.88847656 4.73878906 -1.71445313 3.91507813 -1.53515625 3.06640625 C-1 1 -1 1 0 0 Z " fill="#000000" transform="translate(117,127)"/>
<path d="M0 0 C2.97 1.65 5.94 3.3 9 5 C8.67 5.99 8.34 6.98 8 8 C5.03 6.35 2.06 4.7 -1 3 C-0.67 2.01 -0.34 1.02 0 0 Z " fill="#000000" transform="translate(343,78)"/>
<path d="M0 0 C0.66 0 1.32 0 2 0 C1.52797514 4.24822374 -0.96655518 6.19989709 -4 9 C-4.99 8.67 -5.98 8.34 -7 8 C-6.02133662 6.85373678 -5.04205413 5.70800212 -4.0625 4.5625 C-3.51722656 3.92441406 -2.97195312 3.28632812 -2.41015625 2.62890625 C-1.63204305 1.73008851 -0.84063472 0.84063472 0 0 Z " fill="#000000" transform="translate(148,78)"/>
<path d="M0 0 C4.455 0.99 4.455 0.99 9 2 C9.33 3.32 9.66 4.64 10 6 C6.7 5.01 3.4 4.02 0 3 C0 2.01 0 1.02 0 0 Z " fill="#000000" transform="translate(288,55)"/>
<path d="M0 0 C0.66 0.33 1.32 0.66 2 1 C0.55746343 4.36591866 -1.33264727 6.51047079 -4 9 C-4.99 8.67 -5.98 8.34 -7 8 C-6.02133662 6.85373678 -5.04205413 5.70800212 -4.0625 4.5625 C-3.51722656 3.92441406 -2.97195313 3.28632813 -2.41015625 2.62890625 C-1.63204305 1.73008851 -0.84063472 0.84063472 0 0 Z " fill="#000000" transform="translate(544,364)"/>
<path d="M0 0 C0.99 0.33 1.98 0.66 3 1 C2.07347299 2.17539996 1.13336613 3.34010577 0.1875 4.5 C-0.33457031 5.1496875 -0.85664062 5.799375 -1.39453125 6.46875 C-3 8 -3 8 -6 8 C-4.55746343 4.63408134 -2.66735273 2.48952921 0 0 Z " fill="#000000" transform="translate(557,350)"/>
<path d="M0 0 C0.66 0 1.32 0 2 0 C1.49287967 3.71888239 0.88391785 6.73454239 -1 10 C-1.99 9.67 -2.98 9.34 -4 9 C-2.68 6.03 -1.36 3.06 0 0 Z " fill="#000000" transform="translate(617,249)"/>
<path d="M0 0 C0.99 0 1.98 0 3 0 C2.67 3.63 2.34 7.26 2 11 C1.01 10.67 0.02 10.34 -1 10 C-0.67 6.7 -0.34 3.4 0 0 Z " fill="#000000" transform="translate(630,192)"/>
<path d="M0 0 C0.99 0.33 1.98 0.66 3 1 C2.34 4.3 1.68 7.6 1 11 C0.01 10.67 -0.98 10.34 -2 10 C-1.34 6.7 -0.68 3.4 0 0 Z " fill="#000000" transform="translate(108,165)"/>
<path d="M0 0 C0.99 0 1.98 0 3 0 C2.42647107 3.87132028 0.51295648 6.08172796 -2 9 C-2.99 8.67 -3.98 8.34 -5 8 C-4.24266726 6.6589523 -3.46867264 5.32730219 -2.6875 4 C-2.25824219 3.2575 -1.82898438 2.515 -1.38671875 1.75 C-0.70029297 0.88375 -0.70029297 0.88375 0 0 Z " fill="#000000" transform="translate(134,93)"/>
<path d="M0 0 C3.3 1.65 6.6 3.3 10 5 C9.67 5.66 9.34 6.32 9 7 C5.51329166 5.8905928 2.22515763 4.73662334 -1 3 C-0.67 2.01 -0.34 1.02 0 0 Z " fill="#000000" transform="translate(325,69)"/>
<path d="M0 0 C7.75 0.875 7.75 0.875 10 2 C10 2.99 10 3.98 10 5 C6.7 4.34 3.4 3.68 0 3 C0 2.01 0 1.02 0 0 Z " fill="#000000" transform="translate(269,50)"/>
<path d="M0 0 C0.99 0 1.98 0 3 0 C4.31626692 3.61973402 5 6.09567131 5 10 C4.01 9.67 3.02 9.34 2 9 C1.26953125 6.93359375 1.26953125 6.93359375 0.8125 4.4375 C0.65394531 3.61121094 0.49539062 2.78492188 0.33203125 1.93359375 C0.16767578 0.97646484 0.16767578 0.97646484 0 0 Z " fill="#000000" transform="translate(116,280)"/>
<path d="M0 0 C0.99 0 1.98 0 3 0 C3.33 3.3 3.66 6.6 4 10 C3.01 10 2.02 10 1 10 C0.67 6.7 0.34 3.4 0 0 Z " fill="#000000" transform="translate(105,223)"/>
<path d="M0 0 C0.99 0.33 1.98 0.66 3 1 C2.67 4.3 2.34 7.6 2 11 C1.01 11 0.02 11 -1 11 C-0.67 7.37 -0.34 3.74 0 0 Z " fill="#000000" transform="translate(454,349)"/>
<path d="M0 0 C0.70125 0.309375 1.4025 0.61875 2.125 0.9375 C5.08936657 2.03302678 7.87698108 2.56422992 11 3 C11 3.66 11 4.32 11 5 C9.741875 5.04125 8.48375 5.0825 7.1875 5.125 C6.47980469 5.14820313 5.77210938 5.17140625 5.04296875 5.1953125 C3 5 3 5 0 3 C0 2.01 0 1.02 0 0 Z " fill="#000000" transform="translate(251,655)"/>
<path d="M0 0 C3.3 0 6.6 0 10 0 C10 0.99 10 1.98 10 3 C6.7 2.67 3.4 2.34 0 2 C0 1.34 0 0.68 0 0 Z " fill="#000000" transform="translate(230,46)"/>
<path d="M0 0 C0.66 0 1.32 0 2 0 C2.33 3.3 2.66 6.6 3 10 C2.01 10 1.02 10 0 10 C0 6.7 0 3.4 0 0 Z " fill="#000000" transform="translate(105,204)"/>
<path d="M0 0 C0.66 0 1.32 0 2 0 C2 1.98 2 3.96 2 6 C1.01 6 0.02 6 -1 6 C-1.042721 4.33388095 -1.04063832 2.66617115 -1 1 C-0.67 0.67 -0.34 0.34 0 0 Z " fill="#000000" transform="translate(632,177)"/>
<path d="M0 0 C0.66 0.33 1.32 0.66 2 1 C2.625 3.5625 2.625 3.5625 3 6 C2.01 6 1.02 6 0 6 C-0.38218767 4.34385343 -0.71395102 2.67542976 -1 1 C-0.67 0.67 -0.34 0.34 0 0 Z " fill="#000000" transform="translate(411,36)"/>
<path d="M0 0 C0.99 0.33 1.98 0.66 3 1 C2.67 1.99 2.34 2.98 2 4 C1.01 3.01 0.02 2.02 -1 1 C-0.67 0.67 -0.34 0.34 0 0 Z " fill="#000000" transform="translate(170,706)"/>
<path d="M0 0 C0.99 0.33 1.98 0.66 3 1 C2.67 1.99 2.34 2.98 2 4 C1.01 3.01 0.02 2.02 -1 1 C-0.67 0.67 -0.34 0.34 0 0 Z " fill="#000000" transform="translate(545,238)"/>
<path d="M0 0 C0.99 0.33 1.98 0.66 3 1 C2.67 1.99 2.34 2.98 2 4 C1.01 3.01 0.02 2.02 -1 1 C-0.67 0.67 -0.34 0.34 0 0 Z " fill="#000000" transform="translate(10,211)"/>
<path d="M0 0 C0.99 0.33 1.98 0.66 3 1 C2.67 1.99 2.34 2.98 2 4 C1.01 3.01 0.02 2.02 -1 1 C-0.67 0.67 -0.34 0.34 0 0 Z " fill="#000000" transform="translate(537,180)"/>
</svg>
