<?xml version="1.0" encoding="UTF-8"?>
<svg version="1.1" xmlns="http://www.w3.org/2000/svg" width="621" height="633">
<path d="M0 0 C2.47840113 2.16717771 4.77747906 4.41278436 7.05078125 6.79296875 C7.73269531 7.46714844 8.41460937 8.14132813 9.1171875 8.8359375 C33.59609622 34.3687327 40.97306934 77.06795207 41.2890625 111.2109375 C41.29713425 112.07125076 41.30520599 112.93156403 41.31352234 113.81794739 C41.32724219 115.62543801 41.33801739 117.43295322 41.34594727 119.24047852 C41.35744713 121.05826616 41.37786731 122.87602056 41.4074707 124.69360352 C41.59865239 136.48385298 40.85081326 146.52961787 37.05078125 157.79296875 C36.73391357 158.78562744 36.4170459 159.77828613 36.09057617 160.80102539 C35.10700055 163.79775863 34.05974017 166.76405219 32.98828125 169.73046875 C32.58053467 170.86943604 32.17278809 172.00840332 31.75268555 173.18188477 C26.50200431 187.69018609 20.68935733 201.99245508 14.91577148 216.29858398 C12.95992388 221.15827556 11.04049081 226.0306337 9.15777588 230.91912842 C8.41224646 232.85457821 7.65978221 234.78736932 6.90081787 236.71759033 C5.8049505 239.5343087 4.75600403 242.364377 3.71875 245.203125 C3.38716385 246.03847275 3.0555777 246.8738205 2.71394348 247.73448181 C1.06571705 252.41621897 0.77274787 255.10488078 2.79736328 259.72265625 C3.52222291 261.09364709 4.27053292 262.45272626 5.05078125 263.79296875 C5.50839844 264.68886719 5.96601563 265.58476562 6.4375 266.5078125 C13.81090443 279.10681286 23.74597184 289.17835491 38.07421875 293.3046875 C53.90588289 297.21567173 69.77471156 293.29859783 83.8984375 285.7109375 C88.67500446 282.80474868 92.90647143 279.53738902 97.05078125 275.79296875 C97.72367187 275.20128906 98.3965625 274.60960937 99.08984375 274 C121.25381446 253.29302338 134.87605485 218.67074106 137.80078125 188.91796875 C139.03717308 179.79221954 144.96385233 171.25426531 151.67578125 165.10546875 C156.61620519 161.41434742 161.66628671 159.14249402 167.95703125 159.45703125 C177.93949229 161.05869478 185.26567109 168.10245017 191.40234375 175.70703125 C197.32173699 183.90467894 201.74048563 192.67757316 206.05078125 201.79296875 C206.38078125 202.45296875 206.71078125 203.11296875 207.05078125 203.79296875 C208.80039392 223.73855324 198.14700509 244.6618817 189.05078125 261.79296875 C188.68500977 262.49115723 188.31923828 263.1893457 187.94238281 263.90869141 C164.0691 309.25970367 133.4542578 342.96958155 83.54150391 358.57763672 C49.99260393 368.66020476 14.86046366 367.22612395 -16.57421875 350.98046875 C-20.43721073 348.80874808 -23.85092407 346.39233284 -27.28515625 343.59375 C-28.60459229 342.52314331 -28.60459229 342.52314331 -29.95068359 341.4309082 C-30.6102002 340.89038818 -31.2697168 340.34986816 -31.94921875 339.79296875 C-32.21959961 340.42984619 -32.48998047 341.06672363 -32.76855469 341.72290039 C-45.07125607 370.55381188 -59.0254503 398.39651759 -78.94921875 422.79296875 C-79.7071875 423.74171875 -80.46515625 424.69046875 -81.24609375 425.66796875 C-95.7717794 443.69985439 -112.01016441 461.33728436 -130.94921875 474.79296875 C-131.52913574 475.21723145 -132.10905273 475.64149414 -132.70654297 476.07861328 C-160.46046367 496.29406054 -194.24433692 503.46230979 -228.07421875 498.66796875 C-256.96301871 493.99829571 -286.30258175 480.67318878 -307.94921875 460.79296875 C-308.45227539 460.33229004 -308.95533203 459.87161133 -309.47363281 459.39697266 C-341.89392318 429.3486586 -359.96686642 384.78328653 -374.75488281 344.08007812 C-375.48311058 342.0758143 -376.21778645 340.0738587 -376.96386719 338.07617188 C-404.51139157 264.16531136 -408.42416403 178.15382243 -412.76171875 100.23046875 C-412.82515472 99.09775543 -412.8885907 97.96504211 -412.95394897 96.79800415 C-413.3392313 89.79814251 -413.67329904 82.79797598 -413.94921875 75.79296875 C-414.00053452 74.61294785 -414.00053452 74.61294785 -414.05288696 73.40908813 C-414.59697499 59.88864063 -414.59697499 59.88864063 -410.51171875 53.60546875 C-409.97309204 52.7561377 -409.97309204 52.7561377 -409.42358398 51.88964844 C-408.30515574 50.15947787 -407.13884378 48.47480114 -405.94921875 46.79296875 C-405.21703125 45.73980469 -404.48484375 44.68664062 -403.73046875 43.6015625 C-388.02269065 21.94805853 -368.42973234 5.1864607 -341.64282227 0.17236328 C-316.39548309 -3.3837289 -293.36774693 2.67731664 -271.13671875 14.23046875 C-270.13294189 14.75096802 -270.13294189 14.75096802 -269.10888672 15.28198242 C-267.79972982 15.98502439 -266.50610013 16.71792909 -265.23161316 17.48202515 C-262.94821683 18.84573992 -262.94821683 18.84573992 -260.40769958 19.92185974 C-257.26169905 21.58135834 -255.24893191 23.0582605 -252.94921875 25.79296875 C-251.36291415 31.83112733 -251.45543173 37.80742272 -251.44140625 44.01953125 C-251.40035144 45.88371101 -251.3542365 47.74778521 -251.30343628 49.61172485 C-251.20058369 53.5986928 -251.12331813 57.58503092 -251.06384277 61.57287598 C-250.96224254 67.79016874 -250.75257835 74.00053637 -250.51269531 80.21386719 C-250.45262362 81.77412062 -250.45262362 81.77412062 -250.39133835 83.36589432 C-250.30912795 85.4871368 -250.22652355 87.60836405 -250.1435318 89.72957611 C-249.93436073 95.14747093 -249.74101783 100.56592442 -249.546875 105.984375 C-249.48801558 107.61088045 -249.48801558 107.61088045 -249.42796707 109.2702446 C-249.22897554 114.7816876 -249.03516647 120.29324689 -248.85009766 125.80517578 C-247.94410384 152.63985205 -246.50892575 179.17119842 -242.94921875 205.79296875 C-242.73208221 207.45987762 -242.73208221 207.45987762 -242.51055908 209.16046143 C-241.64673781 215.75800072 -240.70051927 222.34000517 -239.69921875 228.91796875 C-239.55403809 229.88314423 -239.40885742 230.8483197 -239.25927734 231.84274292 C-233.14020184 272.36641902 -225.37262401 312.69020591 -212.94921875 351.79296875 C-212.66079102 352.70755859 -212.37236328 353.62214844 -212.07519531 354.56445312 C-205.73285712 374.41293741 -197.70365347 398.27432077 -179.94921875 410.79296875 C-172.82320787 413.16830571 -167.80707766 412.07215059 -161.13671875 408.98046875 C-147.8450864 402.07777052 -139.43139276 391.49649361 -131.94921875 378.79296875 C-131.56668945 378.15149902 -131.18416016 377.5100293 -130.79003906 376.84912109 C-119.01297929 356.79398307 -112.24465877 334.05007558 -105.94921875 311.79296875 C-105.53203846 310.36423772 -105.11420358 308.93569771 -104.69580078 307.50732422 C-103.59435964 303.72140472 -102.55627029 299.92207119 -101.55374146 296.10882568 C-101.15521825 294.6233314 -100.73975937 293.1422628 -100.30636597 291.66656494 C-97.68042954 283.11560076 -97.68042954 283.11560076 -99.39916992 274.61523438 C-101.43884552 271.83824923 -103.62457079 269.33280336 -105.94921875 266.79296875 C-107.56355481 264.33730505 -108.92007942 261.78093727 -110.26171875 259.16796875 C-110.81001343 258.11198486 -110.81001343 258.11198486 -111.36938477 257.03466797 C-139.09965879 202.59622007 -158.00188069 145.37119765 -139.22460938 85.41918945 C-127.54048308 49.60584713 -107.74218907 11.91171376 -73.01171875 -5.95703125 C-67.1060202 -8.8200112 -61.37140669 -10.88232252 -54.94921875 -12.20703125 C-53.85609375 -12.43390625 -52.76296875 -12.66078125 -51.63671875 -12.89453125 C-32.71385868 -14.49816346 -15.37209146 -11.50361812 0 0 Z M-100.55078125 23.796875 C-105.12846369 29.51525029 -109.09697108 35.56962588 -112.94921875 41.79296875 C-113.51938721 42.69861572 -113.51938721 42.69861572 -114.10107422 43.62255859 C-136.44233162 79.49457318 -148.11548289 124.88809897 -138.5625 166.4296875 C-135.86622559 177.37537828 -132.53822451 188.11059783 -128.94921875 198.79296875 C-128.63082031 199.74268555 -128.31242187 200.69240234 -127.984375 201.67089844 C-115.02765973 240.64395824 -115.02765973 240.64395824 -92.94921875 274.79296875 C-92.28921875 274.79296875 -91.62921875 274.79296875 -90.94921875 274.79296875 C-112.42989953 364.76064495 -112.42989953 364.76064495 -133.94921875 392.79296875 C-134.63113281 393.72753906 -135.31304687 394.66210938 -136.015625 395.625 C-144.35587453 406.53148016 -155.9016148 416.13656762 -169.8671875 418.23046875 C-176.15379491 418.50794659 -180.75295341 417.30546571 -185.94921875 413.79296875 C-186.50867188 413.43847656 -187.068125 413.08398438 -187.64453125 412.71875 C-230.34229 381.24156506 -237.43167109 283.07400518 -244.69921875 235.23046875 C-248.71893809 208.49961311 -252.51321025 181.78228355 -253.50585938 154.74169922 C-253.57682076 152.89266998 -253.57682076 152.89266998 -253.6492157 151.00628662 C-253.75069716 148.35409859 -253.85130015 145.70189543 -253.95036316 143.04961777 C-254.10750005 138.84482747 -254.26861917 134.64019516 -254.43029785 130.43557739 C-254.83098335 119.9993496 -255.22622697 109.56291649 -255.62103271 99.12646484 C-255.92868453 90.99603934 -256.2377292 82.86567126 -256.55063581 74.7354461 C-256.71093743 70.5663431 -256.86853229 66.39714977 -257.02397919 62.22786307 C-257.14454759 59.01363707 -257.2688766 55.79955593 -257.39257812 52.58544922 C-257.4341655 51.44852631 -257.47575287 50.31160339 -257.51860046 49.14022827 C-257.6405804 46.02294697 -257.78647579 42.90837056 -257.94921875 39.79296875 C-257.99850021 38.75977634 -258.04778168 37.72658394 -258.09855652 36.66208267 C-258.16243057 35.67862743 -258.22630463 34.6951722 -258.29211426 33.68191528 C-258.37036816 32.3761362 -258.37036816 32.3761362 -258.45020294 31.04397774 C-259.04572255 28.35765002 -259.88561786 27.46039577 -262.01953125 25.77734375 C-263.34718424 24.99072227 -264.70110421 24.24723594 -266.07421875 23.54296875 C-267.15086792 22.93557861 -267.15086792 22.93557861 -268.24926758 22.31591797 C-270.45983415 21.09129849 -272.69494648 19.93481425 -274.94921875 18.79296875 C-275.61453613 18.44717773 -276.27985352 18.10138672 -276.96533203 17.74511719 C-299.20956227 6.29297735 -325.76704739 1.18721338 -350.20703125 8.40234375 C-361.28442126 12.51878513 -371.22168334 17.72515255 -379.94921875 25.79296875 C-380.4395459 26.2317334 -380.92987305 26.67049805 -381.43505859 27.12255859 C-391.09289514 35.83034666 -398.16833463 45.7442267 -404.94921875 56.79296875 C-405.48957764 57.54843994 -406.02993652 58.30391113 -406.58666992 59.08227539 C-408.36578605 62.62169958 -408.28383553 65.17705845 -408.2109375 69.1328125 C-408.19914963 69.86862045 -408.18736176 70.60442841 -408.17521667 71.36253357 C-407.96228514 81.70274205 -407.37017469 92.03248587 -406.76171875 102.35546875 C-406.69675201 103.46990356 -406.63178528 104.58433838 -406.56484985 105.73254395 C-401.07977779 198.64358379 -392.2410197 293.51063928 -302.48828125 458.0390625 C-296.09920893 463.34261282 -289.10331381 467.61072345 -281.94921875 471.79296875 C-281.32208984 472.16599121 -280.69496094 472.53901367 -280.04882812 472.92333984 C-249.34180127 491.14702652 -213.20028892 499.53447402 -177.94921875 490.79296875 C-161.00984764 486.37015645 -145.6526798 478.70498403 -131.94921875 467.79296875 C-131.07265625 467.1071875 -130.19609375 466.42140625 -129.29296875 465.71484375 C-121.84663261 459.76633384 -114.85569953 453.35208215 -107.94921875 446.79296875 C-107.12164062 446.00792969 -106.2940625 445.22289062 -105.44140625 444.4140625 C-100.66546564 439.7629287 -96.39309986 434.84027667 -92.23828125 429.62890625 C-90.77104316 427.81113347 -89.26823123 426.02118289 -87.72265625 424.26953125 C-65.03811446 398.39853209 -47.85414673 366.11383701 -36.67602539 333.68969727 C-35.8935941 331.64780655 -34.95571835 329.73293947 -33.94921875 327.79296875 C-33.45035156 328.41042969 -32.95148438 329.02789062 -32.4375 329.6640625 C-17.49320877 347.29135036 4.99812595 356.44883494 27.76196289 358.62963867 C66.00471289 361.35864131 103.91011173 349.5030455 134.05078125 325.79296875 C135.55318359 324.68308594 135.55318359 324.68308594 137.0859375 323.55078125 C158.25788288 307.35588364 172.93266625 280.12538934 185.05078125 256.79296875 C185.4478125 256.03161621 185.84484375 255.27026367 186.25390625 254.48583984 C199.07706352 230.1622358 199.07706352 230.1622358 200.42578125 203.81835938 C199.54262053 201.68200994 198.57515317 199.61527219 197.55078125 197.54296875 C197.19274414 196.80079102 196.83470703 196.05861328 196.46582031 195.29394531 C193.29847827 188.91776767 189.53499132 183.33228707 185.05078125 177.79296875 C184.39980469 176.93703125 183.74882813 176.08109375 183.078125 175.19921875 C178.97768721 170.33241782 173.77524761 166.73164004 167.42578125 165.66796875 C162.8175654 165.47629253 159.53437718 166.81916734 156.05078125 169.79296875 C150.32428369 175.49821771 145.275521 181.03699599 143.83984375 189.1875 C143.6497876 190.21762207 143.45973145 191.24774414 143.26391602 192.30908203 C143.06983154 193.39688965 142.87574707 194.48469727 142.67578125 195.60546875 C140.77164531 205.64021467 138.50942571 215.17752046 135.05078125 224.79296875 C134.6228125 225.99308594 134.19484375 227.19320312 133.75390625 228.4296875 C127.98473389 243.67910095 120.52810738 258.2462775 110.05078125 270.79296875 C109.36757813 271.65019531 108.684375 272.50742187 107.98046875 273.390625 C95.38552142 288.4255529 76.81474093 298.5035205 57.29321289 300.50244141 C40.81844796 301.82950457 26.06465645 296.79738244 13.4296875 286.109375 C4.95253326 277.85493745 -4.54546675 265.07856546 -4.94921875 252.79296875 C-4.00991709 248.88714884 -2.60693139 245.17636865 -1.19921875 241.41796875 C-0.55267334 239.64643433 -0.55267334 239.64643433 0.10693359 237.83911133 C5.46828885 223.26842669 11.29655065 208.86545933 17.09667969 194.46533203 C21.08033277 184.5437771 24.92148159 174.59386293 28.44921875 164.5 C28.92967148 163.13001106 28.92967148 163.13001106 29.41983032 161.73234558 C32.54711311 152.64375473 35.4532579 143.70068544 35.80078125 134.04296875 C35.83461914 133.2427832 35.86845703 132.44259766 35.90332031 131.61816406 C37.28772277 90.16565364 30.89299508 43.20957474 3.05078125 10.79296875 C-7.42124739 -0.15416138 -21.39728034 -6.4258026 -36.47265625 -7.4453125 C-63.05888892 -7.95762327 -83.30043652 4.11808368 -100.55078125 23.796875 Z " fill="#000000" transform="translate(413.94921875,63.20703125)"/>
<path d="M0 0 C6.517904 4.68956663 12.55343845 10.81246164 14 19 C14.7992898 30.25557271 13.99078008 38.31915226 6.75 47.25 C1.9026651 52.47261244 -3.82301403 56.76382363 -11.140625 57.09765625 C-11.83671875 57.08605469 -12.5328125 57.07445312 -13.25 57.0625 C-15.10625 57.0315625 -15.10625 57.0315625 -17 57 C-17 57.99 -17 58.98 -17 60 C-17.99 60 -18.98 60 -20 60 C-20 59.01 -20 58.02 -20 57 C-20.99 56.9175 -21.98 56.835 -23 56.75 C-31.04950796 55.54906534 -36.90451484 51.18183225 -42 45 C-47.64218043 36.82738713 -47.69966663 28.63540902 -47 19 C-44.975542 10.56069317 -38.97795811 3.7193806 -31.8125 -0.9375 C-22.69451393 -6.41571974 -8.7703344 -5.84114609 0 0 Z " fill="#000000" transform="translate(92,116)"/>
<path d="M0 0 C3.24051348 2.20543114 6.22668445 4.45336889 8 8 C11.52914073 37.30526985 -3.85898678 71.15553651 -13.1875 98.6875 C-13.43348938 99.42080536 -13.67947876 100.15411072 -13.93292236 100.90963745 C-16.99633817 110.00443339 -20.4278113 118.53555813 -25 127 C-27.14395001 124.35364287 -28.48590013 122.1286843 -29.4296875 118.859375 C-29.66510254 118.04927979 -29.90051758 117.23918457 -30.14306641 116.40454102 C-30.38460449 115.52854248 -30.62614258 114.65254395 -30.875 113.75 C-31.1332959 112.82179443 -31.3915918 111.89358887 -31.65771484 110.93725586 C-38.78100477 84.73762933 -43.29635105 57.86380288 -43.5 30.6875 C-43.51044342 30.01154785 -43.52088684 29.3355957 -43.53164673 28.63916016 C-43.64909408 18.98336261 -42.98031658 10.88879541 -36.0625 3.6875 C-25.81577289 -4.22341405 -11.57369409 -5.1671682 0 0 Z M-33.5625 10.125 C-41.18216805 20.42362916 -37.94811441 36.58810566 -36.8125 48.375 C-36.74819794 49.04419464 -36.68389587 49.71338928 -36.61764526 50.40286255 C-35.2594587 82.80213381 -35.2594587 82.80213381 -24 111 C-14.65396131 86.00310296 -6.61558085 60.6466359 -0.375 34.6875 C-0.12717773 33.6876709 0.12064453 32.6878418 0.37597656 31.65771484 C2.01477026 24.50036179 2.76154741 17.33486966 2 10 C-0.42331066 6.25488353 -2.16168507 5.33855026 -6.25 3.6875 C-15.90760233 1.91693957 -26.31662628 2.64937906 -33.5625 10.125 Z " fill="#000000" transform="translate(390,144)"/>
<path d="M0 0 C3.75589682 1.25196561 4.30952704 2.56855806 6.5 5.8125 C10.42079148 11.37237006 14.75496275 16.26608532 19.3984375 21.2109375 C21.56323625 23.53175778 23.63912769 25.88999576 25.6875 28.3125 C29.14312048 32.28157352 32.96938166 35.62843285 37 39 C37.86238281 39.75023437 38.72476563 40.50046875 39.61328125 41.2734375 C76.33915644 72.78115722 120.32130132 89.43917438 168.89892578 85.78173828 C213.25870335 80.87395811 251.51598522 52.81536277 282 22 C279.03 21.67 276.06 21.34 273 21 C273 20.01 273 19.02 273 18 C276.39392651 16.86869116 279.05334872 16.8670806 282.625 16.875 C283.79289062 16.87242187 284.96078125 16.86984375 286.1640625 16.8671875 C289 17 289 17 290 18 C290.07319621 20.69654854 290.09242537 23.36691458 290.0625 26.0625 C290.05798828 26.82111328 290.05347656 27.57972656 290.04882812 28.36132812 C290.0370068 30.24091871 290.01907078 32.12046899 290 34 C289.01 34 288.02 34 287 34 C286.34 31.36 285.68 28.72 285 26 C284.3709375 26.64066406 283.741875 27.28132812 283.09375 27.94140625 C277.89895639 33.19096425 272.64117316 38.23611598 267 43 C266.15308594 43.73605469 265.30617188 44.47210937 264.43359375 45.23046875 C227.05888591 77.21508267 183.65621805 94.46910262 134.16308594 90.7890625 C85.15603046 85.8263227 39.17152467 53.92619049 8.4140625 16.7734375 C5.09949342 12.63243655 1.94331549 8.41497323 -1 4 C-0.625 1.8125 -0.625 1.8125 0 0 Z " fill="#000000" transform="translate(45,502)"/>
<path d="M0 0 C1.62423202 1.43595165 3.23029614 2.89286716 4.8125 4.375 C5.53566406 5.01953125 6.25882813 5.6640625 7.00390625 6.328125 C15.78546712 14.52647026 22.13572438 24.6540411 22.984375 36.84375 C22.9973651 38.68834417 22.91674671 40.53330811 22.8125 42.375 C21.4925 42.705 20.1725 43.035 18.8125 43.375 C18.71453125 42.54097656 18.6165625 41.70695312 18.515625 40.84765625 C16.70799032 27.24364701 11.90777719 17.74918596 1.8125 8.375 C1.28527344 7.85421875 0.75804687 7.3334375 0.21484375 6.796875 C-21.72726683 -13.88740758 -54.37925628 -20.55047962 -83.46972656 -19.75683594 C-105.2778706 -18.69894896 -125.08375422 -9.2919363 -140.1875 6.375 C-147.48220373 14.82716594 -154.69694928 26.34369005 -157.1875 37.375 C-156.259375 36.859375 -155.33125 36.34375 -154.375 35.8125 C-151.1875 34.375 -151.1875 34.375 -148.1875 35.375 C-149.64427574 39.20517442 -151.41867787 40.37337037 -155.0625 42.125 C-155.92617188 42.55296875 -156.78984375 42.9809375 -157.6796875 43.421875 C-160.1875 44.375 -160.1875 44.375 -164.1875 44.375 C-165.19784498 42.63095212 -166.19542422 40.87950439 -167.1875 39.125 C-168.0228125 37.66320312 -168.0228125 37.66320312 -168.875 36.171875 C-170.1875 33.375 -170.1875 33.375 -170.1875 29.375 C-168.375 29.5625 -168.375 29.5625 -166.1875 30.375 C-164.4375 32.9375 -164.4375 32.9375 -163.1875 35.375 C-161.3743336 32.65525039 -159.97927053 29.92331523 -158.57397461 26.98046875 C-154.81597738 19.15788413 -150.64965691 12.16097905 -145.1875 5.375 C-144.64738281 4.67117187 -144.10726563 3.96734375 -143.55078125 3.2421875 C-130.64164963 -12.69887092 -109.91804238 -21.63754192 -89.9453125 -24.30859375 C-58.46151971 -26.95951601 -25.14903283 -20.06387764 0 0 Z " fill="#000000" transform="translate(443.1875,55.625)"/>
<path d="M0 0 C3.18961148 1.91376689 4.25364903 4.82439267 5.875 8.125 C5.875 8.785 5.875 9.445 5.875 10.125 C3.00775314 9.55155063 2.0135485 9.2635485 -0.125 7.125 C-0.6096875 8.15238281 -1.094375 9.17976563 -1.59375 10.23828125 C-10.47258892 28.7371686 -22.64625925 46.01727253 -42.375 54 C-49.50090776 56.13777233 -54.09921906 56.22040835 -61.125 54.125 C-61.125 53.135 -61.125 52.145 -61.125 51.125 C-60.51914062 51.23199219 -59.91328125 51.33898437 -59.2890625 51.44921875 C-48.39636162 53.00771288 -39.90705421 49.48711038 -31.125 43.125 C-18.12615271 32.74977327 -10.08669976 20.05571941 -3.125 5.125 C-5.105 5.785 -7.085 6.445 -9.125 7.125 C-9 5.3125 -9 5.3125 -8.125 3.125 C-5.38998357 1.36243386 -3.27791852 0.19281874 0 0 Z " fill="#000000" transform="translate(522.125,268.875)"/>
<path d="M0 0 C1.4540625 0.0309375 1.4540625 0.0309375 2.9375 0.0625 C5.0625 4.6875 5.0625 4.6875 3.9375 8.0625 C4.26300502 9.73071323 4.59596063 11.39749557 4.9375 13.0625 C4.6075 13.7225 4.2775 14.3825 3.9375 15.0625 C1.125 15.9375 1.125 15.9375 -2.0625 16.0625 C-4.4375 14.125 -4.4375 14.125 -6.0625 12.0625 C-2.43923261 10.8547442 -1.42103631 11.51938872 1.9375 13.0625 C1.9375 11.7425 1.9375 10.4225 1.9375 9.0625 C0.6175 9.0625 -0.7025 9.0625 -2.0625 9.0625 C-2.0625 8.0725 -2.0625 7.0825 -2.0625 6.0625 C-0.7425 6.0625 0.5775 6.0625 1.9375 6.0625 C1.6075 5.0725 1.2775 4.0825 0.9375 3.0625 C-1.0425 3.7225 -3.0225 4.3825 -5.0625 5.0625 C-3.9375 0.08035714 -3.9375 0.08035714 0 0 Z " fill="#000000" transform="translate(485.0625,282.9375)"/>
<path d="M0 0 C3.0625 0.1875 3.0625 0.1875 5.0625 2.1875 C4.90004442 5.92397845 4.47466356 7.71288742 2 10.5625 C1.360625 11.09875 0.72125 11.635 0.0625 12.1875 C1.7125 12.5175 3.3625 12.8475 5.0625 13.1875 C5.0625 13.8475 5.0625 14.5075 5.0625 15.1875 C1.7625 15.1875 -1.5375 15.1875 -4.9375 15.1875 C-2.9375 11.1875 -2.9375 11.1875 -0.8125 8.625 C1.36735538 6.30372611 1.36735538 6.30372611 1.0625 3.1875 C0.4025 3.1875 -0.2575 3.1875 -0.9375 3.1875 C-1.2675 3.8475 -1.5975 4.5075 -1.9375 5.1875 C-2.9275 5.1875 -3.9175 5.1875 -4.9375 5.1875 C-3.82120474 0.24390669 -3.82120474 0.24390669 0 0 Z " fill="#000000" transform="translate(374.9375,3.8125)"/>
<path d="M0 0 C1.9375 0.8125 1.9375 0.8125 4 2 C4.33 2.99 4.66 3.98 5 5 C6.32 5 7.64 5 9 5 C8.01 8.3 7.02 11.6 6 15 C4.68 15 3.36 15 2 15 C2.433125 13.96875 2.86625 12.9375 3.3125 11.875 C4.37334823 8.23958893 4.37334823 8.23958893 3.01953125 6.19921875 C1.48492546 4.34745655 1.48492546 4.34745655 -1 2 C-0.67 1.34 -0.34 0.68 0 0 Z " fill="#000000" transform="translate(365,335)"/>
<path d="M0 0 C0 4.95 0 9.9 0 15 C-0.99 15 -1.98 15 -3 15 C-3 11.37 -3 7.74 -3 4 C-3.99 4.33 -4.98 4.66 -6 5 C-5.625 3.0625 -5.625 3.0625 -5 1 C-3 0 -3 0 0 0 Z " fill="#000000" transform="translate(225,613)"/>
<path d="M0 0 C0 4.95 0 9.9 0 15 C-0.99 15 -1.98 15 -3 15 C-3 11.37 -3 7.74 -3 4 C-3.99 4.33 -4.98 4.66 -6 5 C-5.625 3.0625 -5.625 3.0625 -5 1 C-3 0 -3 0 0 0 Z " fill="#000000" transform="translate(472,283)"/>
<path d="M0 0 C0 4.95 0 9.9 0 15 C-0.99 15 -1.98 15 -3 15 C-3 11.37 -3 7.74 -3 4 C-3.99 4.33 -4.98 4.66 -6 5 C-5.625 3.0625 -5.625 3.0625 -5 1 C-3 0 -3 0 0 0 Z " fill="#000000" transform="translate(362,4)"/>
<path d="M0 0 C0 4.95 0 9.9 0 15 C-0.66 15 -1.32 15 -2 15 C-2.33 11.37 -2.66 7.74 -3 4 C-3.99 4.33 -4.98 4.66 -6 5 C-6 4.01 -6 3.02 -6 2 C-3 0 -3 0 0 0 Z " fill="#000000" transform="translate(237,613)"/>
<path d="M0 0 C3.36295835 1.44126786 5.62927102 3.20592655 8 6 C8 6.99 8 7.98 8 9 C4.06326356 7.68775452 1.77280706 6.08089673 -1 3 C-0.67 2.01 -0.34 1.02 0 0 Z " fill="#000000" transform="translate(379,350)"/>
<path d="M0 0 C0.99 0.33 1.98 0.66 3 1 C2.01 4.63 1.02 8.26 0 12 C-0.99 12 -1.98 12 -3 12 C-2.49202991 7.6822542 -1.80317221 3.96697886 0 0 Z " fill="#000000" transform="translate(408,238)"/>
<path d="M0 0 C0.99 0 1.98 0 3 0 C2.01 3.96 1.02 7.92 0 12 C-0.99 12 -1.98 12 -3 12 C-2.69106068 10.3743193 -2.3777305 8.74947252 -2.0625 7.125 C-1.88847656 6.22007812 -1.71445312 5.31515625 -1.53515625 4.3828125 C-1 2 -1 2 0 0 Z " fill="#000000" transform="translate(414,216)"/>
<path d="M0 0 C-0.17625835 2.37948772 -0.69719773 3.70225849 -2.40234375 5.37890625 C-3.90649092 6.62115486 -5.45129851 7.81376056 -7 9 C-7.66 8.67 -8.32 8.34 -9 8 C-7.47364599 4.11473526 -4.49771687 0 0 0 Z " fill="#000000" transform="translate(280,492)"/>
<path d="M0 0 C3.39417765 3.12621626 5.6062718 5.56541027 7 10 C6.01 10 5.02 10 4 10 C2.578125 8.57421875 2.578125 8.57421875 1.25 6.6875 C0.80140625 6.07261719 0.3528125 5.45773437 -0.109375 4.82421875 C-1 3 -1 3 0 0 Z " fill="#000000" transform="translate(158,471)"/>
<path d="M0 0 C2.74277578 3.19990508 4.6302836 6.00499382 6 10 C4.68 10 3.36 10 2 10 C-2 3.25 -2 3.25 -2 1 C-1.34 0.67 -0.68 0.34 0 0 Z " fill="#000000" transform="translate(148,454)"/>
<path d="M0 0 C0.66 0.33 1.32 0.66 2 1 C1.44894091 4.9492568 0.61064629 8.34920174 -1 12 C-1.99 11.67 -2.98 11.34 -4 11 C-3.5247412 9.35303396 -3.04468109 7.70745272 -2.5625 6.0625 C-2.29566406 5.14597656 -2.02882813 4.22945313 -1.75390625 3.28515625 C-1 1 -1 1 0 0 Z " fill="#000000" transform="translate(364,359)"/>
<path d="M0 0 C0.99 0.33 1.98 0.66 3 1 C1.68 4.3 0.36 7.6 -1 11 C-1.99 11 -2.98 11 -4 11 C-3.39301257 6.87248551 -1.96189209 3.6678852 0 0 Z " fill="#000000" transform="translate(379,320)"/>
<path d="M0 0 C0.99 0 1.98 0 3 0 C2.68950274 1.43793392 2.3765224 2.8753318 2.0625 4.3125 C1.88847656 5.11300781 1.71445312 5.91351563 1.53515625 6.73828125 C1 9 1 9 0 12 C-0.99 11.67 -1.98 11.34 -3 11 C-2.01 7.37 -1.02 3.74 0 0 Z " fill="#000000" transform="translate(401,260)"/>
<path d="M0 0 C0.66 0.33 1.32 0.66 2 1 C1.1875 2.9375 1.1875 2.9375 0 5 C-0.99 5.33 -1.98 5.66 -3 6 C-3.33 6.99 -3.66 7.98 -4 9 C-4.99 8.67 -5.98 8.34 -7 8 C-5.50902342 4.2047869 -3.24299151 2.38957269 0 0 Z " fill="#000000" transform="translate(347,105)"/>
<path d="M0 0 C0.99 0.33 1.98 0.66 3 1 C-1 7.57142857 -1 7.57142857 -5 9 C-5.33 8.34 -5.66 7.68 -6 7 C-4.02 4.69 -2.04 2.38 0 0 Z " fill="#000000" transform="translate(291,478)"/>
<path d="M0 0 C0.99 0 1.98 0 3 0 C3.67154933 1.28913487 4.33708859 2.58140204 5 3.875 C5.37125 4.59429687 5.7425 5.31359375 6.125 6.0546875 C7 8 7 8 7 10 C5.1875 9.875 5.1875 9.875 3 9 C1.04679411 5.79116175 0 3.7794561 0 0 Z " fill="#000000" transform="translate(137,437)"/>
<path d="M0 0 C0.99 0.33 1.98 0.66 3 1 C4.52160014 4.6037898 5 7.05220686 5 11 C4.01 10.67 3.02 10.34 2 10 C1.05078125 7.93359375 1.05078125 7.93359375 0.3125 5.4375 C0.06113281 4.61121094 -0.19023438 3.78492188 -0.44921875 2.93359375 C-0.63097656 2.29550781 -0.81273438 1.65742188 -1 1 C-0.67 0.67 -0.34 0.34 0 0 Z " fill="#000000" transform="translate(115,381)"/>
<path d="M0 0 C0.66 0.33 1.32 0.66 2 1 C1 4 1 4 -1.8125 5.75 C-4.96403086 6.98589446 -5.96929372 7.28222189 -9 6 C-6.45368965 3.02930459 -3.57769851 1.5224249 0 0 Z " fill="#000000" transform="translate(517,373)"/>
<path d="M0 0 C3.98264458 0.44251606 6.7971409 2.74344018 10 5 C9.67 5.99 9.34 6.98 9 8 C4.56541027 6.6062718 2.12621626 4.39417765 -1 1 C-0.67 0.67 -0.34 0.34 0 0 Z " fill="#000000" transform="translate(394,364)"/>
<path d="M0 0 C0.66 0.33 1.32 0.66 2 1 C0.68775452 4.93673644 -0.91910327 7.22719294 -4 10 C-4.99 9.67 -5.98 9.34 -7 9 C-6.02180976 7.68677212 -5.0424189 6.37443848 -4.0625 5.0625 C-3.51722656 4.33160156 -2.97195313 3.60070312 -2.41015625 2.84765625 C-1 1 -1 1 0 0 Z " fill="#000000" transform="translate(547,347)"/>
<path d="M0 0 C0.99 0 1.98 0 3 0 C4.65 2.97 6.3 5.94 8 9 C6.68 9 5.36 9 4 9 C0 4 0 4 0 0 Z " fill="#000000" transform="translate(353,319)"/>
<path d="M0 0 C0.99 0 1.98 0 3 0 C3.67154933 1.28913487 4.33708859 2.58140204 5 3.875 C5.37125 4.59429687 5.7425 5.31359375 6.125 6.0546875 C7 8 7 8 7 10 C5.1875 9.875 5.1875 9.875 3 9 C1.04679411 5.79116175 0 3.7794561 0 0 Z " fill="#000000" transform="translate(343,301)"/>
<path d="M0 0 C0.66 0 1.32 0 2 0 C1.44894091 3.9492568 0.61064629 7.34920174 -1 11 C-1.99 11 -2.98 11 -4 11 C-3.39301257 6.87248551 -1.96189209 3.6678852 0 0 Z " fill="#000000" transform="translate(387,300)"/>
<path d="M0 0 C0.99 0.33 1.98 0.66 3 1 C2.01 4.3 1.02 7.6 0 11 C-0.99 11 -1.98 11 -3 11 C-2.44894091 7.0507432 -1.61064629 3.65079826 0 0 Z " fill="#000000" transform="translate(394,280)"/>
<path d="M0 0 C0.66 0 1.32 0 2 0 C2.99 3.63 3.98 7.26 5 11 C4.01 11.33 3.02 11.66 2 12 C1.01 8.37 0.02 4.74 -1 1 C-0.67 0.67 -0.34 0.34 0 0 Z " fill="#000000" transform="translate(331,261)"/>
<path d="M0 0 C0.99 0.33 1.98 0.66 3 1 C2.01 4.3 1.02 7.6 0 11 C-0.99 11 -1.98 11 -3 11 C-2.53199289 6.94393835 -2.12046792 3.53411321 0 0 Z " fill="#000000" transform="translate(324,136)"/>
<path d="M0 0 C3.86463725 0.41406828 6.12722 2.52621722 9 5 C8.67 5.99 8.34 6.98 8 8 C1.25 4.375 1.25 4.375 -1 1 C-0.67 0.67 -0.34 0.34 0 0 Z " fill="#000000" transform="translate(184,502)"/>
<path d="M0 0 C2 0 2 0 3.54296875 1.42578125 C4.08566406 2.04839844 4.62835938 2.67101562 5.1875 3.3125 C5.73792969 3.92738281 6.28835937 4.54226563 6.85546875 5.17578125 C7.42201172 6.07876953 7.42201172 6.07876953 8 7 C7.67 7.99 7.34 8.98 7 10 C5.82174642 9.09827532 4.65768423 8.17798498 3.5 7.25 C2.8503125 6.73953125 2.200625 6.2290625 1.53125 5.703125 C0 4 0 4 0 0 Z " fill="#000000" transform="translate(170,487)"/>
<path d="M0 0 C0.99 0 1.98 0 3 0 C2.38545304 3.99455527 0.29353263 6.74466336 -2 10 C-2.99 9.67 -3.98 9.34 -5 9 C-3.49901406 5.88256767 -1.97568178 2.84498177 0 0 Z " fill="#000000" transform="translate(315,447)"/>
<path d="M0 0 C0.99 0.33 1.98 0.66 3 1 C2.01 3.97 1.02 6.94 0 10 C-1.32 10 -2.64 10 -4 10 C-2.68 6.7 -1.36 3.4 0 0 Z " fill="#000000" transform="translate(356,379)"/>
<path d="M0 0 C0.99 0 1.98 0 3 0 C3 0.99 3 1.98 3 3 C1.57421875 4.421875 1.57421875 4.421875 -0.3125 5.75 C-0.92738281 6.19859375 -1.54226563 6.6471875 -2.17578125 7.109375 C-4 8 -4 8 -7 7 C-4.66666667 4.66666667 -2.33333333 2.33333333 0 0 Z " fill="#000000" transform="translate(532,362)"/>
<path d="M0 0 C0.99 0.33 1.98 0.66 3 1 C3.66 4.3 4.32 7.6 5 11 C4.01 11 3.02 11 2 11 C0.57741188 7.17679443 -0.24042276 4.08718695 0 0 Z " fill="#000000" transform="translate(109,362)"/>
<path d="M0 0 C0.99 0 1.98 0 3 0 C4.62950412 4.12168689 5.26264601 6.70700357 4 11 C3.34 10.67 2.68 10.34 2 10 C1.3671875 7.71484375 1.3671875 7.71484375 0.875 4.9375 C0.70742187 4.01839844 0.53984375 3.09929687 0.3671875 2.15234375 C0.24601562 1.44207031 0.12484375 0.73179687 0 0 Z " fill="#000000" transform="translate(103,343)"/>
<path d="M0 0 C0.66 0 1.32 0 2 0 C3.19287411 3.87684087 4 6.91621923 4 11 C3.01 11 2.02 11 1 11 C0.63890458 9.35567294 0.28629924 7.7094792 -0.0625 6.0625 C-0.25972656 5.14597656 -0.45695312 4.22945313 -0.66015625 3.28515625 C-0.77230469 2.53105469 -0.88445312 1.77695312 -1 1 C-0.67 0.67 -0.34 0.34 0 0 Z " fill="#000000" transform="translate(99,323)"/>
<path d="M0 0 C0.99 0 1.98 0 3 0 C3.99 3.3 4.98 6.6 6 10 C4.68 10 3.36 10 2 10 C0.68373308 6.38026598 0 3.90432869 0 0 Z " fill="#000000" transform="translate(336,282)"/>
<path d="M0 0 C0.99 0 1.98 0 3 0 C3.66 3.63 4.32 7.26 5 11 C4.01 11 3.02 11 2 11 C0 3.375 0 3.375 0 0 Z " fill="#000000" transform="translate(82,245)"/>
<path d="M0 0 C0.99 0 1.98 0 3 0 C3.66 3.63 4.32 7.26 5 11 C4.01 11 3.02 11 2 11 C0.80712589 7.12315913 0 4.08378077 0 0 Z " fill="#000000" transform="translate(326,241)"/>
<path d="M0 0 C0.99 0 1.98 0 3 0 C4.17571451 3.67410785 4.07366746 7.16929183 4 11 C3.01 11 2.02 11 1 11 C0.67 7.37 0.34 3.74 0 0 Z " fill="#000000" transform="translate(79,225)"/>
<path d="M0 0 C0.99 0 1.98 0 3 0 C3.66 3.63 4.32 7.26 5 11 C4.01 11 3.02 11 2 11 C0 3.375 0 3.375 0 0 Z " fill="#000000" transform="translate(322,220)"/>
<path d="M0 0 C0.99 0 1.98 0 3 0 C4.28317892 3.84953676 4.06643637 6.94738135 4 11 C3.01 11 2.02 11 1 11 C0.67 7.37 0.34 3.74 0 0 Z " fill="#000000" transform="translate(76,205)"/>
<path d="M0 0 C0.99 0 1.98 0 3 0 C3.33 3.63 3.66 7.26 4 11 C3.01 11 2.02 11 1 11 C-0.28317892 7.15046324 -0.06643637 4.05261865 0 0 Z " fill="#000000" transform="translate(74,185)"/>
<path d="M0 0 C0 0.99 0 1.98 0 3 C-4.95 4.485 -4.95 4.485 -10 6 C-9.67 4.68 -9.34 3.36 -9 2 C-5.82254537 0.61849799 -3.46877176 0 0 0 Z " fill="#000000" transform="translate(248,515)"/>
<path d="M0 0 C0.99 0 1.98 0 3 0 C6 6.625 6 6.625 6 10 C5.01 10 4.02 10 3 10 C0 3.375 0 3.375 0 0 Z " fill="#000000" transform="translate(129,419)"/>
<path d="M0 0 C0.99 0.33 1.98 0.66 3 1 C1.68 3.64 0.36 6.28 -1 9 C-2.32 9 -3.64 9 -5 9 C-3.35 6.03 -1.7 3.06 0 0 Z " fill="#000000" transform="translate(337,414)"/>
<path d="M0 0 C0.66 0 1.32 0 2 0 C5.07692308 6.4 5.07692308 6.4 4.6875 9.4375 C4.460625 9.953125 4.23375 10.46875 4 11 C0.55783328 8.3401439 0.00495326 5.09711714 -1 1 C-0.67 0.67 -0.34 0.34 0 0 Z " fill="#000000" transform="translate(122,400)"/>
<path d="M0 0 C0.99 0.33 1.98 0.66 3 1 C1.7580393 4.43927579 0.44259716 7.25207819 -2 10 C-2.66 10 -3.32 10 -4 10 C-3.43454163 6.04179141 -2.19097652 3.3340947 0 0 Z " fill="#000000" transform="translate(347,397)"/>
<path d="M0 0 C-0.33 0.99 -0.66 1.98 -1 3 C-3.06640625 3.73046875 -3.06640625 3.73046875 -5.5625 4.1875 C-6.38878906 4.34605469 -7.21507812 4.50460937 -8.06640625 4.66796875 C-9.02353516 4.83232422 -9.02353516 4.83232422 -10 5 C-10.33 4.01 -10.66 3.02 -11 2 C-7.12315913 0.80712589 -4.08378077 0 0 0 Z " fill="#000000" transform="translate(500,382)"/>
<path d="M0 0 C5.445 1.485 5.445 1.485 11 3 C10.01 4.485 10.01 4.485 9 6 C5.7 5.01 2.4 4.02 -1 3 C-0.67 2.01 -0.34 1.02 0 0 Z " fill="#000000" transform="translate(430,382)"/>
<path d="M0 0 C0.66 0 1.32 0 2 0 C3.19287411 3.87684087 4 6.91621923 4 11 C3.01 11 2.02 11 1 11 C0.63890458 9.35567294 0.28629924 7.7094792 -0.0625 6.0625 C-0.25972656 5.14597656 -0.45695312 4.22945313 -0.66015625 3.28515625 C-0.77230469 2.53105469 -0.88445312 1.77695312 -1 1 C-0.67 0.67 -0.34 0.34 0 0 Z " fill="#000000" transform="translate(90,284)"/>
<path d="M0 0 C0.99 0 1.98 0 3 0 C3.33 3.3 3.66 6.6 4 10 C3.01 10 2.02 10 1 10 C0.67 6.7 0.34 3.4 0 0 Z " fill="#000000" transform="translate(86,265)"/>
<path d="M0 0 C0.99 0 1.98 0 3 0 C3.33 3.63 3.66 7.26 4 11 C3.01 11 2.02 11 1 11 C-0.20272819 8.59454362 -0.10071472 7.05003047 -0.0625 4.375 C-0.05347656 3.55773437 -0.04445313 2.74046875 -0.03515625 1.8984375 C-0.02355469 1.27195313 -0.01195312 0.64546875 0 0 Z " fill="#000000" transform="translate(320,199)"/>
<path d="M0 0 C0.66 0 1.32 0 2 0 C6 6.625 6 6.625 6 10 C2.19118361 8.55527654 0.70257114 6.67396929 -1 3 C-0.67 2.01 -0.34 1.02 0 0 Z " fill="#000000" transform="translate(404,123)"/>
<path d="M0 0 C0.66 0.33 1.32 0.66 2 1 C1.3543999 4.48624056 0.07639763 7.12498789 -2 10 C-2.99 10 -3.98 10 -5 10 C-4.38545304 6.00544473 -2.29353263 3.25533664 0 0 Z " fill="#000000" transform="translate(334,119)"/>
<path d="M0 0 C0 0.99 0 1.98 0 3 C-3.3 3.66 -6.6 4.32 -10 5 C-9.67 3.68 -9.34 2.36 -9 1 C-5.8035914 -0.06546953 -3.34252724 -0.07427838 0 0 Z " fill="#000000" transform="translate(366,98)"/>
<path d="M0 0 C3.3 0 6.6 0 10 0 C10 0.99 10 1.98 10 3 C6.7 3 3.4 3 0 3 C0 2.01 0 1.02 0 0 Z " fill="#000000" transform="translate(219,520)"/>
<path d="M0 0 C-1.3809002 3.33717549 -2.8201238 5.22301036 -6 7 C-8.25 6.6875 -8.25 6.6875 -10 6 C-4.2 0 -4.2 0 0 0 Z " fill="#000000" transform="translate(265,505)"/>
<path d="M0 0 C0.99 0.33 1.98 0.66 3 1 C0.03 4.96 0.03 4.96 -3 9 C-3.99 8.67 -4.98 8.34 -6 8 C-2.25 2.25 -2.25 2.25 0 0 Z " fill="#000000" transform="translate(304,463)"/>
<path d="M0 0 C0.99 0 1.98 0 3 0 C2.3543999 3.48624056 1.07639763 6.12498789 -1 9 C-1.99 9 -2.98 9 -4 9 C-3.3543999 5.51375944 -2.07639763 2.87501211 0 0 Z " fill="#000000" transform="translate(326,431)"/>
<path d="M0 0 C3.3 0.33 6.6 0.66 10 1 C10 1.99 10 2.98 10 4 C2.57142857 4.14285714 2.57142857 4.14285714 -1 3 C-0.67 2.01 -0.34 1.02 0 0 Z " fill="#000000" transform="translate(450,386)"/>
<path d="M0 0 C0.66 0 1.32 0 2 0 C1.43454163 3.95820859 0.19097652 6.6659053 -2 10 C-2.99 9.67 -3.98 9.34 -5 9 C-3.7580393 5.56072421 -2.44259716 2.74792181 0 0 Z " fill="#000000" transform="translate(558,331)"/>
<path d="M0 0 C0.99 0 1.98 0 3 0 C2.39009109 3.55780196 1.4216319 6.6828589 0 10 C-0.99 10 -1.98 10 -3 10 C-2.39009109 6.44219804 -1.4216319 3.3171411 0 0 Z " fill="#000000" transform="translate(566,313)"/>
<path d="M0 0 C0.99 0.33 1.98 0.66 3 1 C3.33 4.3 3.66 7.6 4 11 C3.01 10.67 2.02 10.34 1 10 C0.67 6.7 0.34 3.4 0 0 Z " fill="#000000" transform="translate(94,304)"/>
<path d="M0 0 C0.99 0 1.98 0 3 0 C2.01 3.63 1.02 7.26 0 11 C-0.99 10.67 -1.98 10.34 -3 10 C-2.01 6.7 -1.02 3.4 0 0 Z " fill="#000000" transform="translate(573,294)"/>
<path d="M0 0 C0.99 0 1.98 0 3 0 C3.33 3.63 3.66 7.26 4 11 C3.01 11 2.02 11 1 11 C0.67 7.37 0.34 3.74 0 0 Z " fill="#000000" transform="translate(318,178)"/>
<path d="M0 0 C2.12046792 3.53411321 2.53199289 6.94393835 3 11 C2.01 11 1.02 11 0 11 C-0.66 7.7 -1.32 4.4 -2 1 C-1.34 0.67 -0.68 0.34 0 0 Z " fill="#000000" transform="translate(420,158)"/>
<path d="M0 0 C0.66 0 1.32 0 2 0 C5 6.625 5 6.625 5 10 C4.01 10 3.02 10 2 10 C1.01 7.03 0.02 4.06 -1 1 C-0.67 0.67 -0.34 0.34 0 0 Z " fill="#000000" transform="translate(413,140)"/>
<path d="M0 0 C3.71888239 0.50712033 6.73454239 1.11608215 10 3 C9.67 3.99 9.34 4.98 9 6 C6.03 5.01 3.06 4.02 0 3 C0 2.01 0 1.02 0 0 Z " fill="#000000" transform="translate(375,99)"/>
<path d="M0 0 C3.48670834 1.1094072 6.77484237 2.26337666 10 4 C10 4.99 10 5.98 10 7 C6.51329166 5.8905928 3.22515763 4.73662334 0 3 C0 2.01 0 1.02 0 0 Z " fill="#000000" transform="translate(200,513)"/>
<path d="M0 0 C0.33 0.99 0.66 1.98 1 3 C-2.63 3.33 -6.26 3.66 -10 4 C-10 3.01 -10 2.02 -10 1 C-6.56484998 0.37542727 -3.50935186 0 0 0 Z " fill="#000000" transform="translate(480,386)"/>
<path d="M0 0 C0.99 0 1.98 0 3 0 C2.5020163 3.73487777 2.12508244 5.81237635 0 9 C-0.99 9 -1.98 9 -3 9 C-2.01 6.03 -1.02 3.06 0 0 Z " fill="#000000" transform="translate(420,197)"/>
<path d="M0 0 C0.99 0 1.98 0 3 0 C3 3.3 3 6.6 3 10 C2.01 10 1.02 10 0 10 C0 6.7 0 3.4 0 0 Z " fill="#000000" transform="translate(421,178)"/>
<path d="M0 0 C0.99 0 1.98 0 3 0 C2.67 3.63 2.34 7.26 2 11 C1.01 11 0.02 11 -1 11 C-0.67 7.37 -0.34 3.74 0 0 Z " fill="#000000" transform="translate(319,157)"/>
<path d="M0 0 C1.17539996 0.92652701 2.34010577 1.86663387 3.5 2.8125 C4.1496875 3.33457031 4.799375 3.85664062 5.46875 4.39453125 C7 6 7 6 7 9 C3.63408134 7.55746343 1.48952921 5.66735273 -1 3 C-0.67 2.01 -0.34 1.02 0 0 Z " fill="#000000" transform="translate(392,108)"/>
<path d="M0 0 C3.94120709 0.56302958 6.7508723 1.6791945 10 4 C10 4.66 10 5.32 10 6 C6.05879291 5.43697042 3.2491277 4.3208055 0 2 C0 1.34 0 0.68 0 0 Z " fill="#000000" transform="translate(411,375)"/>
<path d="M0 0 C0.66 0 1.32 0 2 0 C2 1.65 2 3.3 2 5 C1.01 5.33 0.02 5.66 -1 6 C-1.042721 4.33388095 -1.04063832 2.66617115 -1 1 C-0.67 0.67 -0.34 0.34 0 0 Z " fill="#000000" transform="translate(577,279)"/>
<path d="M0 0 C0.99 0.33 1.98 0.66 3 1 C2.67 1.99 2.34 2.98 2 4 C1.01 3.01 0.02 2.02 -1 1 C-0.67 0.67 -0.34 0.34 0 0 Z " fill="#000000" transform="translate(228,625)"/>
<path d="M0 0 C0.99 0.33 1.98 0.66 3 1 C2.67 1.99 2.34 2.98 2 4 C1.01 3.01 0.02 2.02 -1 1 C-0.67 0.67 -0.34 0.34 0 0 Z " fill="#000000" transform="translate(475,295)"/>
<path d="M0 0 C0.99 0.33 1.98 0.66 3 1 C2.67 1.99 2.34 2.98 2 4 C1.01 3.01 0.02 2.02 -1 1 C-0.67 0.67 -0.34 0.34 0 0 Z " fill="#000000" transform="translate(365,16)"/>
</svg>
