<?xml version="1.0" encoding="UTF-8"?>
<svg version="1.1" xmlns="http://www.w3.org/2000/svg" width="676" height="689">
<path d="M0 0 C3.82558023 3.65693516 5.79779856 6.89710505 6.3125 12.25 C6.26329411 16.17944202 5.35163017 19.54967694 4.25 23.3125 C-5.17498932 56.508704 -5.56852438 93.49566658 -7.75 127.75 C-7.81502716 128.77049438 -7.88005432 129.79098877 -7.947052 130.84240723 C-8.12985792 133.74368366 -8.30835094 136.64517982 -8.484375 139.546875 C-8.53728195 140.40228882 -8.5901889 141.25770264 -8.6446991 142.13903809 C-8.91744467 146.76929832 -9.05138061 151.36173229 -9 156 C-8.79020508 155.32348389 -8.58041016 154.64696777 -8.36425781 153.94995117 C2.63427591 118.8589702 17.68209473 80.46609118 43 53 C43.55107422 52.40123047 44.10214844 51.80246094 44.66992188 51.18554688 C71.66126689 22.19484297 111.11630715 1.65572634 151.1953125 -0.09594727 C190.13904923 -0.7407394 230.34076231 16.81107205 258.2578125 43.328125 C287.1699056 71.49888238 309.63396543 118.38918344 310.18980408 159.16300964 C310.19639793 160.25214409 310.19639793 160.25214409 310.203125 161.36328125 C310.21013931 162.14459915 310.21715363 162.92591705 310.22438049 163.73091125 C310.24185939 166.25816644 310.24823891 168.78518647 310.25 171.3125 C310.25067474 172.17937439 310.25134949 173.04624878 310.25204468 173.93939209 C310.19183796 222.79911452 296.50581879 266.3271071 271 308 C290.86606671 304.65746227 307.91322451 301.25247328 324.9921875 290.28857422 C327.11074798 288.92892415 329.24221719 287.59111977 331.375 286.25390625 C353.93899348 272.00648349 366.79083888 254.99930406 378 231 C378.35175293 230.2481543 378.70350586 229.49630859 379.06591797 228.72167969 C385.3676992 215.06451604 390.19801146 200.98748344 394.8359375 186.703125 C395.21153809 185.54772217 395.58713867 184.39231934 395.97412109 183.2019043 C396.60856082 181.22173367 397.22899259 179.23693933 397.82666016 177.24536133 C400.06409248 169.95477644 403.67583119 166.58684789 410.20703125 162.6796875 C415.41018143 160.07355624 420.22707438 158.90178351 426 160 C439.30762154 164.498059 446.00131597 175.02911619 452 187 C459.53171277 203.0126277 452.2626179 219.62725839 446.78662109 235.52197266 C435.21583267 267.54881599 419.21065675 296.0134389 396 321 C395.39929688 321.66644531 394.79859375 322.33289063 394.1796875 323.01953125 C383.74582995 334.10832791 370.41322148 342.05281424 357 349 C356.29987793 349.36834961 355.59975586 349.73669922 354.87841797 350.11621094 C324.47838484 365.93712639 288.5298827 375.26219334 254.24609375 376.26953125 C252.8883997 376.32054826 251.53073333 376.37230762 250.1730957 376.42480469 C247.52529864 376.52685822 244.90338578 376.56280792 242.25073242 376.56347656 C235.28996411 376.74429366 235.28996411 376.74429366 229.47241211 380.18579102 C227.46314106 382.70667239 225.74187964 385.29111227 224 388 C221.76480733 390.44035664 219.39224833 392.71460147 217 395 C216.21625 395.78375 215.4325 396.5675 214.625 397.375 C213.75875 398.24125 212.8925 399.1075 212 400 C211.43539063 400.61101562 210.87078125 401.22203125 210.2890625 401.8515625 C195.59103774 417.33798706 176.47063395 429.49597534 158 440 C157.29133789 440.4036377 156.58267578 440.80727539 155.85253906 441.22314453 C138.06050915 451.23849969 118.89460672 459.25163568 99 464 C98.19820313 464.19464844 97.39640625 464.38929688 96.5703125 464.58984375 C67.04405019 471.45537283 31.43299526 471.64690457 4.5859375 456.01171875 C-0.50026454 452.72610648 -4.7494619 449.31399884 -9 445 C-9.13912383 455.44115753 -8.83041397 465.71584789 -7.875 476.125 C-7.81064758 476.83419586 -7.74629517 477.54339172 -7.67999268 478.27407837 C-3.3357594 525.61871544 4.30241007 572.78837718 13.32421875 619.45043945 C16.03929238 633.75431333 16.03929238 633.75431333 14.00390625 638.15234375 C-1.98397379 657.95305156 -28.65680039 669.09544271 -53.69824219 671.82128906 C-77.95022426 673.70423888 -100.62275129 671.20778501 -120.5234375 656.08203125 C-124.25197914 651.44193763 -125.52560977 646.34852967 -127.1875 640.6875 C-127.75670166 638.79257813 -127.75670166 638.79257813 -128.33740234 636.859375 C-137.09524126 607.33976675 -143.89288128 577.35546659 -149 547 C-149.13128296 546.22219177 -149.26256592 545.44438354 -149.39782715 544.64300537 C-155.55795574 507.93630844 -159.42985599 470.95275789 -161.75 433.8125 C-161.80916595 432.86971191 -161.86833191 431.92692383 -161.92929077 430.95556641 C-163.66098991 402.81336989 -164.20867291 374.68724631 -164.1875 346.5 C-164.18723312 345.69836048 -164.18696625 344.89672096 -164.18669128 344.07078934 C-164.14366373 240.57009807 -155.40955712 136.76594937 -136.365448 34.98736572 C-136.04406266 33.23961994 -135.74407418 31.48796809 -135.44750977 29.73583984 C-134.61678438 25.01551317 -133.669166 21.63740489 -130.6875 17.75 C-129.82705078 16.59757812 -129.82705078 16.59757812 -128.94921875 15.421875 C-128.30597656 14.62265625 -127.66273437 13.8234375 -127 13 C-126.21882813 12.00355469 -125.43765625 11.00710937 -124.6328125 9.98046875 C-97.98245664 -20.18899938 -31.31914192 -23.89668632 0 0 Z M-120.0625 13.5625 C-125.83356777 20.04901393 -128.78787743 26.24136425 -130.375 34.75 C-130.57359619 35.7603833 -130.77219238 36.7707666 -130.97680664 37.81176758 C-144.56351821 109.08150926 -151.71870779 181.63851657 -156 254 C-156.06058594 254.99539795 -156.12117188 255.9907959 -156.18359375 257.01635742 C-159.70127527 314.96527477 -159.9895916 374.06946172 -156 432 C-155.93447937 432.96484314 -155.86895874 433.92968628 -155.80145264 434.92376709 C-150.96750563 505.4772856 -142.05108325 577.19286005 -119.55078125 644.5546875 C-119.17348877 645.69019043 -118.79619629 646.82569336 -118.4074707 647.99560547 C-115.96382088 653.21183353 -112.02619129 655.50796381 -107 658 C-106.05640625 658.46792969 -105.1128125 658.93585937 -104.140625 659.41796875 C-101.13236644 660.77486844 -98.11820506 661.92107734 -95 663 C-94.09636719 663.32097656 -93.19273438 663.64195312 -92.26171875 663.97265625 C-65.5023121 671.75786928 -35.03948992 663.93843387 -10.9375 651.5625 C-3.59000807 647.38267679 5.60973794 642.07205253 9 634 C8.95370203 626.38923873 7.14489011 618.70313696 5.77734375 611.24609375 C5.31967474 608.70185618 4.86267271 606.15749856 4.40625 603.61303711 C4.28722289 602.9517877 4.16819578 602.29053829 4.04556179 601.60925102 C-3.55705033 559.36772581 -10.73686412 516.82823401 -14 474 C-14.1403064 472.20792114 -14.1403064 472.20792114 -14.28344727 470.37963867 C-14.88994707 462.09186929 -15.1277598 453.87057426 -15.0625 445.5625 C-15.05798828 444.43779297 -15.05347656 443.31308594 -15.04882812 442.15429688 C-15.03726149 439.43613681 -15.02097051 436.71810088 -15 434 C-13.02 433.67 -11.04 433.34 -9 433 C-8.7525 433.73347656 -8.505 434.46695312 -8.25 435.22265625 C-3.17078339 446.50804065 10.06032915 452.55962016 20.91015625 456.90234375 C44.64205939 465.33301983 73.81156798 464.20887171 98 458 C98.83208984 457.79101074 99.66417969 457.58202148 100.52148438 457.36669922 C127.67907119 450.35676527 154.31140602 437.43733966 177 421 C177.9593042 420.31236572 177.9593042 420.31236572 178.93798828 419.61083984 C203.13863168 402.33706477 203.13863168 402.33706477 222.22483826 379.9717865 C225.1112832 375.60122134 227.39665511 372.54360252 232.46362305 370.82568359 C235.77146332 370.48279381 238.9877254 370.32434789 242.31240845 370.39468384 C245.2390918 370.4536504 248.15645287 370.36519553 251.08213806 370.28587341 C252.5740492 370.24633824 254.06615567 370.21359047 255.55836487 370.18763733 C306.94998522 369.20716991 361.11199642 348.35857102 396.99609375 311.3828125 C411.42159442 295.99145757 422.1211282 277.01894697 431 258 C431.3609375 257.22978516 431.721875 256.45957031 432.09375 255.66601562 C436.95811684 245.15188938 441.00025408 234.50232439 444.4375 223.4375 C444.7675 222.37998535 445.0975 221.3224707 445.4375 220.23291016 C449.31606516 207.3050358 451.41947855 198.34858026 445 186 C440.43715866 178.02453358 435.65524287 171.11038358 427.5 166.625 C421.50221639 165.1255541 417.33058566 165.94334526 411.9921875 168.734375 C407.0355262 171.88331277 404.4949307 174.08909262 402.89453125 179.85546875 C402.55623291 181.02271484 402.21793457 182.18996094 401.86938477 183.39257812 C401.52061279 184.64490234 401.17184082 185.89722656 400.8125 187.1875 C400.04067985 189.83128096 399.24996292 192.46912992 398.453125 195.10546875 C398.1519149 196.10439651 398.1519149 196.10439651 397.84461975 197.12350464 C387.87046923 229.756461 372.61718932 266.70448983 343 286 C342.31373535 286.45375 341.6274707 286.9075 340.92041016 287.375 C321.66856878 300.06361976 303.77807858 309.20288502 280.625 312.25 C278.79775391 312.50910156 278.79775391 312.50910156 276.93359375 312.7734375 C271.24970297 313.55443013 265.7388377 314.23700215 260 314 C260.3309668 313.48953125 260.66193359 312.9790625 261.00292969 312.453125 C289.02710238 268.94140195 304.09734527 224.30965184 304.375 172.5 C304.3830365 171.66404297 304.391073 170.82808594 304.39935303 169.96679688 C304.68292449 131.13373804 289.80722171 94.1619505 267 63 C266.360625 62.11957031 265.72125 61.23914063 265.0625 60.33203125 C241.17027928 29.02326701 204.39532207 12.319398 166.0625 6.75 C132.00590095 2.79158901 94.26716847 17.10565282 67.65551758 38.13500977 C66.08943365 39.40731594 64.54089989 40.69732813 63 42 C62.48985352 42.43038574 61.97970703 42.86077148 61.45410156 43.30419922 C49.08281632 53.8829425 39.29455745 66.03002238 31 80 C30.64228516 80.60118652 30.28457031 81.20237305 29.91601562 81.82177734 C27.16597163 86.48870568 24.55448036 91.22356304 22 96 C21.56929199 96.80405273 21.13858398 97.60810547 20.69482422 98.43652344 C4.31601288 129.32902741 -9.20690345 164.86852623 -12 200 C-13.98 200 -15.96 200 -18 200 C-17.67 199.01 -17.34 198.02 -17 197 C-16.84776177 195.21698218 -16.7466604 193.42940961 -16.67456055 191.64135742 C-16.62731842 190.53252197 -16.58007629 189.42368652 -16.53140259 188.28125 C-16.48365692 187.06824219 -16.43591125 185.85523438 -16.38671875 184.60546875 C-16.30360448 182.65768176 -16.22047223 180.70989545 -16.13661575 178.76214027 C-16.04717097 176.67711503 -15.95933174 174.59202599 -15.87161255 172.50692749 C-11.38051293 66.46783778 -11.38051293 66.46783778 -2.05078125 24.1171875 C0.17719616 15.96171879 0.17719616 15.96171879 -0.97314453 8.00854492 C-8.34701413 -2.2902633 -23.28680974 -4.90927071 -35 -7 C-64.04300086 -11.50255968 -97.8813091 -7.33075078 -120.0625 13.5625 Z " fill="#000000" transform="translate(220,17)"/>
<path d="M0 0 C9.5588495 5.57728658 13.62236134 13.5849434 16.625 24 C33.9349999 93.23999961 15.55214665 178.2195287 -11.375 243 C-16.4114064 242.02067999 -21.43368904 241.00411585 -26.43359375 239.8515625 C-48.85206401 234.70774125 -71.43708302 231.58207396 -94.375 230 C-95.13570801 229.94215332 -95.89641602 229.88430664 -96.68017578 229.82470703 C-115.52383773 228.41446629 -134.49265378 228.90815979 -153.375 229 C-152.26033767 220.82700525 -150.43260154 213.35170605 -147.5625 205.625 C-147.17143066 204.55830078 -146.78036133 203.49160156 -146.37744141 202.39257812 C-141.26176853 188.69545785 -135.34997943 175.33792372 -129.375 162 C-129.08046936 161.34153076 -128.78593872 160.68306152 -128.48248291 160.00463867 C-119.62903129 140.22172048 -110.47690997 120.58177649 -101.20780945 100.99067688 C-98.82452015 95.95336555 -96.44754039 90.91310891 -94.07421875 85.87109375 C-93.7449086 85.17181763 -93.41559845 84.4725415 -93.0763092 83.7520752 C-91.66110688 80.74452269 -90.25242249 77.73461605 -88.85864258 74.71704102 C-76.20085793 47.48013373 -49.60724278 10.55308527 -21.2265625 -1.18359375 C-13.97808076 -3.258844 -6.91044572 -3.08296061 0 0 Z M-53.375 33 C-57.2922559 37.48188497 -60.88983932 42.1775766 -64.375 47 C-65.15101563 48.06605469 -65.92703125 49.13210937 -66.7265625 50.23046875 C-69.00758671 53.44820221 -71.20803073 56.70448254 -73.375 60 C-74.05691406 61.03253906 -74.73882812 62.06507813 -75.44140625 63.12890625 C-83.60548912 76.10423501 -89.86842265 90.14551663 -96.375 104 C-96.91672852 105.15226074 -97.45845703 106.30452148 -98.01660156 107.49169922 C-101.25093152 114.3878168 -104.45013169 121.29963712 -107.6328125 128.21972656 C-108.83584191 130.83354088 -110.04477248 133.44452758 -111.2578125 136.05371094 C-118.95302063 152.60618039 -126.44289295 169.22677499 -133.5 186.0625 C-133.9589566 187.14954224 -133.9589566 187.14954224 -134.42718506 188.25854492 C-142.5310107 205.16767005 -142.5310107 205.16767005 -146.375 223 C-145.71532227 222.98952637 -145.05564453 222.97905273 -144.37597656 222.96826172 C-100.61105921 222.37805542 -58.17100395 226.69582581 -15.375 236 C-3.26909845 201.74964143 6.08984247 166.73531835 12.625 131 C12.91093018 129.50243164 12.91093018 129.50243164 13.20263672 127.97460938 C19.18815643 95.9529348 21.59623675 42.13732711 5.625 13 C1.56555569 7.42535392 -2.54798476 4.75387073 -9.125 3 C-26.85521815 1.70433021 -42.59022215 21.26243669 -53.375 33 Z " fill="#000000" transform="translate(408.375,84)"/>
<path d="M0 0 C6.517904 4.68956663 12.55343845 10.81246164 14 19 C14.7992898 30.25557271 13.99078008 38.31915226 6.75 47.25 C2.47095723 51.8603235 -2.66218838 55.94186102 -9 57 C-11.59373914 57.06898242 -14.15810197 57.09434752 -16.75 57.0625 C-17.44738281 57.05798828 -18.14476562 57.05347656 -18.86328125 57.04882812 C-20.57555803 57.0371002 -22.28779033 57.01916653 -24 57 C-24 57.66 -24 58.32 -24 59 C-24.99 59 -25.98 59 -27 59 C-27 57.68 -27 56.36 -27 55 C-27.72058594 54.92007813 -28.44117188 54.84015625 -29.18359375 54.7578125 C-35.53953979 53.04761343 -41.26737675 46.77224933 -44.5625 41.1875 C-47.98323368 33.60239488 -48.29008021 24.37792472 -46.3515625 16.296875 C-42.8581449 7.75740977 -36.29102985 0.98311331 -28 -3 C-19.23447434 -5.98563756 -7.6962579 -5.12579848 0 0 Z " fill="#000000" transform="translate(165,43)"/>
<path d="M0 0 C0.69227188 0.11657959 1.38454376 0.23315918 2.09779358 0.35327148 C4.91721019 0.84105629 7.54136714 1.39790363 10.26171875 2.3046875 C8.90431998 7.18099505 6.72682622 10.94911689 3.76171875 14.9921875 C3.32174561 15.6001416 2.88177246 16.2080957 2.4284668 16.83447266 C-1.89875392 22.70817299 -6.73402217 27.99815773 -11.73828125 33.3046875 C-13.05953913 34.75509089 -14.3729878 36.21267639 -15.67578125 37.6796875 C-16.20042969 38.26492188 -16.72507812 38.85015625 -17.265625 39.453125 C-18.85166575 41.31705364 -18.85166575 41.31705364 -19.9921875 43.8046875 C-22.30706903 47.11905926 -25.13315556 48.37181746 -28.73828125 49.9296875 C-29.74532104 50.3774353 -29.74532104 50.3774353 -30.77270508 50.83422852 C-43.42004893 56.32173111 -55.18858308 58.63493005 -68.4609375 53.69921875 C-82.9320951 47.54164633 -95.49677044 41.33487852 -103.73828125 27.3046875 C-106.34436646 19.48643186 -105.60389328 11.09206802 -102.17578125 3.6796875 C-99.39687705 -1.15766425 -97.17801031 -4.169414 -91.73828125 -5.6953125 C-62.74838504 -12.72567249 -28.90004279 -4.89952124 0 0 Z M-93.73828125 2.5546875 C-97.41107956 7.60478518 -99.52418914 11.98897016 -99.73828125 18.3046875 C-98.34162921 26.53601975 -93.85062745 32.20400474 -87.29296875 37.1484375 C-75.47344021 45.00515035 -62.24101596 51.87151786 -47.73828125 50.3046875 C-43.60159088 49.27976038 -39.7004643 47.86357919 -35.73828125 46.3046875 C-34.8978125 46.0159375 -34.05734375 45.7271875 -33.19140625 45.4296875 C-27.91091457 43.44507318 -25.36680088 41.07735613 -22.24609375 36.421875 C-20.68405942 34.22855219 -19.0073008 32.5253112 -17.05078125 30.6796875 C-11.29914235 25.1057054 -6.58317262 18.66018313 -1.73828125 12.3046875 C-0.83529297 11.16773438 -0.83529297 11.16773438 0.0859375 10.0078125 C1.45109537 8.37530191 1.45109537 8.37530191 1.26171875 6.3046875 C-47.84898046 -5.58704712 -47.84898046 -5.58704712 -93.73828125 2.5546875 Z " fill="#000000" transform="translate(323.73828125,371.6953125)"/>
<path d="M0 0 C41.68561397 0.16574797 84.72976033 23.57663888 114 52 C116.47674435 54.56196566 118.75522266 57.23351534 121 60 C121.75925781 60.91007812 122.51851563 61.82015625 123.30078125 62.7578125 C145.91079622 90.47892073 154.97120221 124.86976464 157 160 C157.7425 159.175 158.485 158.35 159.25 157.5 C162 155 162 155 166 155 C165.45575015 159.01268958 163.47927799 160.98416846 160.6875 163.8125 C159.51767578 165.02873047 159.51767578 165.02873047 158.32421875 166.26953125 C156 168 156 168 154.00390625 168.03515625 C151.2733066 166.62461257 149.41043884 164.80661961 147.25 162.625 C146.45078125 161.83351562 145.6515625 161.04203125 144.828125 160.2265625 C143 158 143 158 143 155 C146.77639718 155.51032394 148.44722581 156.20766929 151 159 C153.57485065 122.37990184 136.80177528 86.17764298 113.47265625 59.0625 C85.04005624 26.76472215 42.16739457 8.8622443 0 4 C0 2.68 0 1.36 0 0 Z " fill="#000000" transform="translate(389,0)"/>
<path d="M0 0 C0.99 0.33 1.98 0.66 3 1 C2.02067999 6.0364064 1.00411585 11.05868904 -0.1484375 16.05859375 C-3.56643948 30.94201034 -6.1558783 45.84052642 -8 61 C-8.15243164 62.22541504 -8.30486328 63.45083008 -8.46191406 64.71337891 C-13.90506658 110.90963766 -13.14324468 159.80870687 -8 206 C-7.9104303 206.81867554 -7.8208606 207.63735107 -7.72857666 208.48083496 C-4.10911932 244.53785644 -4.10911932 244.53785644 3 280 C3.66 279.01 4.32 278.02 5 277 C5.99 277 6.98 277 8 277 C7.38545304 280.99455527 5.29353263 283.74466336 3 287 C-0.5865054 285.66786942 -3.87682483 284.23083941 -7 282 C-7 281.01 -7 280.02 -7 279 C-4.83125748 279.50603992 -3.00032373 279.99983813 -1 281 C-1.2333606 279.72382812 -1.2333606 279.72382812 -1.47143555 278.421875 C-5.8276615 254.37870495 -9.44961935 230.30459752 -12 206 C-12.08463501 205.1946582 -12.16927002 204.38931641 -12.25646973 203.55957031 C-17.06453979 156.96736311 -17.32967275 108.55075807 -12 62 C-11.85546387 60.71851074 -11.71092773 59.43702148 -11.56201172 58.11669922 C-9.25627353 38.52941498 -5.66596939 18.91354544 0 0 Z " fill="#000000" transform="translate(32,190)"/>
<path d="M0 0 C0.99 0.33 1.98 0.66 3 1 C-5.18448088 13.03600129 -16.45489379 23.24935241 -28 32 C-28.51997559 32.39638672 -29.03995117 32.79277344 -29.57568359 33.20117188 C-65.16369491 60.12582841 -109.58310267 70.74694023 -152 82 C-151.01 82.99 -150.02 83.98 -149 85 C-149.33 85.99 -149.66 86.98 -150 88 C-153.3 86.35 -156.6 84.7 -160 83 C-158.90309312 78.61237247 -157.29817473 75.85500277 -155 72 C-154.01 72.33 -153.02 72.66 -152 73 C-152.66 74.65 -153.32 76.3 -154 78 C-77.92883771 59.4782189 -77.92883771 59.4782189 -15 15 C-13.33742664 13.32925005 -11.67040218 11.66292276 -10 10 C-9.11699219 9.11699219 -8.23398437 8.23398437 -7.32421875 7.32421875 C-4.8828125 4.8828125 -2.44140625 2.44140625 0 0 Z " fill="#000000" transform="translate(451,427)"/>
<path d="M0 0 C0.78636841 0.04384827 1.57273682 0.08769653 2.38293457 0.13287354 C21.73639287 1.23554661 42.31682062 2.4922531 60.375 10.1875 C60.705 8.2075 61.035 6.2275 61.375 4.1875 C62.365 4.5175 63.355 4.8475 64.375 5.1875 C64.87 10.6325 64.87 10.6325 65.375 16.1875 C61.13858987 17.03478203 57.65087998 17.27134078 53.375 17.1875 C53.87 15.7025 53.87 15.7025 54.375 14.1875 C55.365 13.8575 56.355 13.5275 57.375 13.1875 C35.16981129 4.88814517 10.80590906 4.28460942 -12.625 3.1875 C-14.43822754 3.10072998 -14.43822754 3.10072998 -16.28808594 3.01220703 C-22.73272341 2.70794214 -29.17784556 2.43249187 -35.625 2.1875 C-35.625 1.5275 -35.625 0.8675 -35.625 0.1875 C-25.24153884 -3.27365372 -10.8735991 -0.61252825 0 0 Z " fill="#000000" transform="translate(325.625,287.8125)"/>
<path d="M0 0 C1.31626692 3.61973402 2 6.09567131 2 10 C-1 9 -1 9 -3 6 C-3.27038086 6.53665283 -3.54076172 7.07330566 -3.81933594 7.6262207 C-13.02480399 25.79602447 -23.00205652 43.25207839 -36 59 C-37.12341797 60.37091797 -37.12341797 60.37091797 -38.26953125 61.76953125 C-43.04157482 67.34387986 -48.29517502 72.79233762 -55 76 C-57.29296875 75.67578125 -57.29296875 75.67578125 -59 75 C-56.93712783 72.83588257 -54.81708539 71.09350453 -52.375 69.375 C-30.95748117 53.34111978 -18.40039873 27.01740191 -6 4 C-7.98 4 -9.96 4 -12 4 C-11.67 3.01 -11.34 2.02 -11 1 C-6.95637513 -0.8380113 -4.26550147 -1.25455926 0 0 Z " fill="#000000" transform="translate(590,213)"/>
<path d="M0 0 C1.4540625 0.0309375 1.4540625 0.0309375 2.9375 0.0625 C5.0625 4.6875 5.0625 4.6875 3.9375 8.0625 C4.26300502 9.73071323 4.59596063 11.39749557 4.9375 13.0625 C4.6075 13.7225 4.2775 14.3825 3.9375 15.0625 C1.125 15.9375 1.125 15.9375 -2.0625 16.0625 C-4.4375 14.125 -4.4375 14.125 -6.0625 12.0625 C-2.43923261 10.8547442 -1.42103631 11.51938872 1.9375 13.0625 C1.9375 11.7425 1.9375 10.4225 1.9375 9.0625 C0.6175 9.0625 -0.7025 9.0625 -2.0625 9.0625 C-2.0625 8.0725 -2.0625 7.0825 -2.0625 6.0625 C-0.7425 6.0625 0.5775 6.0625 1.9375 6.0625 C1.6075 5.0725 1.2775 4.0825 0.9375 3.0625 C-1.0425 3.7225 -3.0225 4.3825 -5.0625 5.0625 C-3.9375 0.08035714 -3.9375 0.08035714 0 0 Z " fill="#000000" transform="translate(426.0625,478.9375)"/>
<path d="M0 0 C2.64 0 5.28 0 8 0 C8 0.66 8 1.32 8 2 C6.02 2 4.04 2 2 2 C2 2.99 2 3.98 2 5 C4.97 5.495 4.97 5.495 8 6 C8.33 8.31 8.66 10.62 9 13 C7.3125 14.5625 7.3125 14.5625 5 16 C2.25 15.6875 2.25 15.6875 0 15 C-0.33 13.68 -0.66 12.36 -1 11 C1.97 11.495 1.97 11.495 5 12 C5.33 10.68 5.66 9.36 6 8 C3.69 8 1.38 8 -1 8 C-0.67 5.36 -0.34 2.72 0 0 Z " fill="#000000" transform="translate(559,229)"/>
<path d="M0 0 C3.0625 0.1875 3.0625 0.1875 5.0625 2.1875 C4.90004442 5.92397845 4.47466356 7.71288742 2 10.5625 C1.360625 11.09875 0.72125 11.635 0.0625 12.1875 C1.7125 12.5175 3.3625 12.8475 5.0625 13.1875 C5.0625 13.8475 5.0625 14.5075 5.0625 15.1875 C1.7625 15.1875 -1.5375 15.1875 -4.9375 15.1875 C-2.9375 11.1875 -2.9375 11.1875 -0.8125 8.625 C1.36735538 6.30372611 1.36735538 6.30372611 1.0625 3.1875 C0.4025 3.1875 -0.2575 3.1875 -0.9375 3.1875 C-1.2675 3.8475 -1.5975 4.5075 -1.9375 5.1875 C-2.9275 5.1875 -3.9175 5.1875 -4.9375 5.1875 C-3.82120474 0.24390669 -3.82120474 0.24390669 0 0 Z " fill="#000000" transform="translate(533.9375,29.8125)"/>
<path d="M0 0 C0.99 0 1.98 0 3 0 C3 3.3 3 6.6 3 10 C3.66 10 4.32 10 5 10 C5 10.66 5 11.32 5 12 C4.34 12 3.68 12 3 12 C3 12.99 3 13.98 3 15 C2.34 15 1.68 15 1 15 C1 14.01 1 13.02 1 12 C-1.31 12 -3.62 12 -6 12 C-5.56629155 7.2292071 -3.35665609 3.36635741 0 0 Z M0 4 C-0.99 5.98 -1.98 7.96 -3 10 C-1.68 10 -0.36 10 1 10 C1 8.02 1 6.04 1 4 C0.67 4 0.34 4 0 4 Z " fill="#000000" transform="translate(348,272)"/>
<path d="M0 0 C0 4.95 0 9.9 0 15 C-0.99 15 -1.98 15 -3 15 C-3 11.37 -3 7.74 -3 4 C-3.99 4.33 -4.98 4.66 -6 5 C-5.625 3.0625 -5.625 3.0625 -5 1 C-3 0 -3 0 0 0 Z " fill="#000000" transform="translate(413,479)"/>
<path d="M0 0 C0 4.95 0 9.9 0 15 C-0.99 15 -1.98 15 -3 15 C-3 11.37 -3 7.74 -3 4 C-3.99 4.33 -4.98 4.66 -6 5 C-5.625 3.0625 -5.625 3.0625 -5 1 C-3 0 -3 0 0 0 Z " fill="#000000" transform="translate(7,350)"/>
<path d="M0 0 C0 4.95 0 9.9 0 15 C-0.99 15 -1.98 15 -3 15 C-3 11.37 -3 7.74 -3 4 C-3.99 4.33 -4.98 4.66 -6 5 C-5.625 3.0625 -5.625 3.0625 -5 1 C-3 0 -3 0 0 0 Z " fill="#000000" transform="translate(334,272)"/>
<path d="M0 0 C0 4.95 0 9.9 0 15 C-0.99 15 -1.98 15 -3 15 C-3 11.37 -3 7.74 -3 4 C-3.99 4.33 -4.98 4.66 -6 5 C-5.625 3.0625 -5.625 3.0625 -5 1 C-3 0 -3 0 0 0 Z " fill="#000000" transform="translate(550,229)"/>
<path d="M0 0 C0 4.95 0 9.9 0 15 C-0.99 15 -1.98 15 -3 15 C-3 11.37 -3 7.74 -3 4 C-3.99 4.33 -4.98 4.66 -6 5 C-5.625 3.0625 -5.625 3.0625 -5 1 C-3 0 -3 0 0 0 Z " fill="#000000" transform="translate(521,30)"/>
<path d="M0 0 C0.99 0 1.98 0 3 0 C2.125 3.875 2.125 3.875 1 5 C0.76572222 7.01594582 0.58663876 9.038474 0.4375 11.0625 C0.31181641 12.71958984 0.31181641 12.71958984 0.18359375 14.41015625 C0.12300781 15.26480469 0.06242188 16.11945313 0 17 C-0.66 17 -1.32 17 -2 17 C-3.62246255 11.92980452 -3.63261453 7.44974162 -1.5 2.5625 C-1.005 1.716875 -0.51 0.87125 0 0 Z " fill="#000000" transform="translate(145,344)"/>
<path d="M0 0 C0.99 0 1.98 0 3 0 C3 1.32 3 2.64 3 4 C3.66 4.33 4.32 4.66 5 5 C5 5.99 5 6.98 5 8 C4.34 8 3.68 8 3 8 C2.67 9.32 2.34 10.64 2 12 C1.34 12 0.68 12 0 12 C-2.21538462 5.72307692 -2.21538462 5.72307692 -1.125 2.0625 C-0.75375 1.381875 -0.3825 0.70125 0 0 Z " fill="#000000" transform="translate(144,408)"/>
<path d="M0 0 C1.75 0.125 1.75 0.125 4 1 C6.3125 3.875 6.3125 3.875 8 7 C7.67 7.99 7.34 8.98 7 10 C6.34 10 5.68 10 5 10 C3.7109375 8.57421875 3.7109375 8.57421875 2.375 6.6875 C1.92898438 6.07261719 1.48296875 5.45773438 1.0234375 4.82421875 C0 3 0 3 0 0 Z " fill="#000000" transform="translate(446,83)"/>
<path d="M0 0 C3.43595166 1.52708963 6.11912454 3.59927045 9 6 C8.67 6.99 8.34 7.98 8 9 C4.56404834 7.47291037 1.88087546 5.40072955 -1 3 C-0.67 2.01 -0.34 1.02 0 0 Z " fill="#000000" transform="translate(432,68)"/>
<path d="M0 0 C3.96 0 7.92 0 12 0 C11.67 0.99 11.34 1.98 11 3 C7.37 3 3.74 3 0 3 C0 2.01 0 1.02 0 0 Z " fill="#000000" transform="translate(434,355)"/>
<path d="M0 0 C3.96 0 7.92 0 12 0 C12 0.99 12 1.98 12 3 C8.37 3 4.74 3 1 3 C0.67 2.01 0.34 1.02 0 0 Z " fill="#000000" transform="translate(413,355)"/>
<path d="M0 0 C0.66 0.99 1.32 1.98 2 3 C-4.5 7 -4.5 7 -9 7 C-8 4 -8 4 -6.15234375 2.83203125 C-5.42144531 2.49558594 -4.69054687 2.15914063 -3.9375 1.8125 C-3.20402344 1.46832031 -2.47054688 1.12414062 -1.71484375 0.76953125 C-1.14894531 0.51558594 -0.58304687 0.26164062 0 0 Z " fill="#000000" transform="translate(362,426)"/>
<path d="M0 0 C0.66 0.33 1.32 0.66 2 1 C0.68775452 4.93673644 -0.91910327 7.22719294 -4 10 C-4.99 9.67 -5.98 9.34 -7 9 C-6.02180976 7.68677212 -5.0424189 6.37443848 -4.0625 5.0625 C-3.51722656 4.33160156 -2.97195313 3.60070312 -2.41015625 2.84765625 C-1 1 -1 1 0 0 Z " fill="#000000" transform="translate(408,388)"/>
<path d="M0 0 C3.63 0 7.26 0 11 0 C11 0.99 11 1.98 11 3 C7.37 3 3.74 3 0 3 C0 2.01 0 1.02 0 0 Z " fill="#000000" transform="translate(497,354)"/>
<path d="M0 0 C0 0.99 0 1.98 0 3 C-3.63 3.66 -7.26 4.32 -11 5 C-11 4.01 -11 3.02 -11 2 C-7.12315913 0.80712589 -4.08378077 0 0 0 Z " fill="#000000" transform="translate(548,348)"/>
<path d="M0 0 C0.99 0 1.98 0 3 0 C2.38545304 3.99455527 0.29353263 6.74466336 -2 10 C-2.99 9.67 -3.98 9.34 -5 9 C-3.49901406 5.88256767 -1.97568178 2.84498177 0 0 Z " fill="#000000" transform="translate(610,301)"/>
<path d="M0 0 C0.99 0 1.98 0 3 0 C2.85892253 1.45880109 2.71197585 2.91703551 2.5625 4.375 C2.48128906 5.18710937 2.40007812 5.99921875 2.31640625 6.8359375 C2 9 2 9 1 11 C0.01 11 -0.98 11 -2 11 C-1.34 7.37 -0.68 3.74 0 0 Z " fill="#000000" transform="translate(455,279)"/>
<path d="M0 0 C0.99 0.33 1.98 0.66 3 1 C1.03681826 4.53372712 -1.04070881 7.24479785 -4 10 C-4.66 9.67 -5.32 9.34 -6 9 C-4.47291037 5.56404834 -2.40072955 2.88087546 0 0 Z " fill="#000000" transform="translate(219,254)"/>
<path d="M0 0 C0.99 0 1.98 0 3 0 C4.32 3.3 5.64 6.6 7 10 C6.01 10.33 5.02 10.66 4 11 C3.32591692 9.73308493 2.66099503 8.46129251 2 7.1875 C1.62875 6.47980469 1.2575 5.77210937 0.875 5.04296875 C0 3 0 3 0 0 Z " fill="#000000" transform="translate(457,100)"/>
<path d="M0 0 C0.99 0 1.98 0 3 0 C3 3.63 3 7.26 3 11 C2.01 11 1.02 11 0 11 C0 7.37 0 3.74 0 0 Z " fill="#000000" transform="translate(146,569)"/>
<path d="M0 0 C0.99 0 1.98 0 3 0 C3 3.63 3 7.26 3 11 C2.01 11 1.02 11 0 11 C0 7.37 0 3.74 0 0 Z " fill="#000000" transform="translate(146,549)"/>
<path d="M0 0 C0.99 0 1.98 0 3 0 C3 3.63 3 7.26 3 11 C2.01 11 1.02 11 0 11 C0 7.37 0 3.74 0 0 Z " fill="#000000" transform="translate(145,509)"/>
<path d="M0 0 C0.99 0 1.98 0 3 0 C3 3.63 3 7.26 3 11 C2.01 11 1.02 11 0 11 C0 7.37 0 3.74 0 0 Z " fill="#000000" transform="translate(145,489)"/>
<path d="M0 0 C0.99 0 1.98 0 3 0 C3 3.63 3 7.26 3 11 C2.01 11 1.02 11 0 11 C0 7.37 0 3.74 0 0 Z " fill="#000000" transform="translate(144,449)"/>
<path d="M0 0 C3.63 0 7.26 0 11 0 C11 0.99 11 1.98 11 3 C7.37 3 3.74 3 0 3 C0 2.01 0 1.02 0 0 Z " fill="#000000" transform="translate(275,444)"/>
<path d="M0 0 C0 0.99 0 1.98 0 3 C-3.63 3.66 -7.26 4.32 -11 5 C-10.67 3.68 -10.34 2.36 -10 1 C-6.56484998 0.37542727 -3.50935186 0 0 0 Z " fill="#000000" transform="translate(326,440)"/>
<path d="M0 0 C3.63 0.66 7.26 1.32 11 2 C11 2.99 11 3.98 11 5 C7.37 4.34 3.74 3.68 0 3 C0 2.01 0 1.02 0 0 Z " fill="#000000" transform="translate(215,435)"/>
<path d="M0 0 C0.99 0.33 1.98 0.66 3 1 C3 1.66 3 2.32 3 3 C0.03 4.65 -2.94 6.3 -6 8 C-6 6.68 -6 5.36 -6 4 C-3.1875 1.6875 -3.1875 1.6875 0 0 Z " fill="#000000" transform="translate(378,416)"/>
<path d="M0 0 C0.99 0.33 1.98 0.66 3 1 C1.49901406 4.11743233 -0.02431822 7.15501823 -2 10 C-2.99 10 -3.98 10 -5 10 C-3.66511872 6.40608886 -2.03977277 3.24509304 0 0 Z " fill="#000000" transform="translate(154,390)"/>
<path d="M0 0 C0.99 0.33 1.98 0.66 3 1 C1.46395304 4.14191424 -0.05731159 7.08596738 -2 10 C-2.99 10 -3.98 10 -5 10 C-4.38545304 6.00544473 -2.29353263 3.25533664 0 0 Z " fill="#000000" transform="translate(419,372)"/>
<path d="M0 0 C0.99 0 1.98 0 3 0 C3 3.63 3 7.26 3 11 C2.01 11 1.02 11 0 11 C0 7.37 0 3.74 0 0 Z " fill="#000000" transform="translate(143,370)"/>
<path d="M0 0 C0.66 0.33 1.32 0.66 2 1 C0.65117186 5.04648443 -1.34826069 5.95502599 -5 8 C-5.99 7.67 -6.98 7.34 -8 7 C-5.42215154 4.35247996 -3.08351902 2.05567935 0 0 Z " fill="#000000" transform="translate(183,363)"/>
<path d="M0 0 C3.63 0 7.26 0 11 0 C11 0.99 11 1.98 11 3 C7.37 3 3.74 3 0 3 C0 2.01 0 1.02 0 0 Z " fill="#000000" transform="translate(455,355)"/>
<path d="M0 0 C0.99 0 1.98 0 3 0 C1.85569823 3.87302138 0.76679902 7.00263439 -2 10 C-2.66 10 -3.32 10 -4 10 C-3.43768609 6.06380262 -2.38314183 3.20807554 0 0 Z " fill="#000000" transform="translate(429,355)"/>
<path d="M0 0 C3.63 0 7.26 0 11 0 C11 0.99 11 1.98 11 3 C7.37 3 3.74 3 0 3 C0 2.01 0 1.02 0 0 Z " fill="#000000" transform="translate(393,354)"/>
<path d="M0 0 C0 0.99 0 1.98 0 3 C-6.625 7 -6.625 7 -10 7 C-10 6.01 -10 5.02 -10 4 C-3.375 0 -3.375 0 0 0 Z " fill="#000000" transform="translate(202,353)"/>
<path d="M0 0 C0 0.99 0 1.98 0 3 C-3.63 3.33 -7.26 3.66 -11 4 C-11 3.01 -11 2.02 -11 1 C-7.26562152 0.12132271 -3.83225427 -0.08912219 0 0 Z " fill="#000000" transform="translate(528,352)"/>
<path d="M0 0 C3.63 0 7.26 0 11 0 C11 0.99 11 1.98 11 3 C7.37 3 3.74 3 0 3 C0 2.01 0 1.02 0 0 Z " fill="#000000" transform="translate(351,352)"/>
<path d="M0 0 C4.16138263 -0.08159574 7.9472484 0.01751476 12 1 C11.67 1.99 11.34 2.98 11 4 C7.37 3.67 3.74 3.34 0 3 C0 2.01 0 1.02 0 0 Z " fill="#000000" transform="translate(330,350)"/>
<path d="M0 0 C1.258125 -0.020625 2.51625 -0.04125 3.8125 -0.0625 C4.52019531 -0.07410156 5.22789062 -0.08570313 5.95703125 -0.09765625 C8 0 8 0 11 1 C11 1.99 11 2.98 11 4 C7.37 3.67 3.74 3.34 0 3 C0 2.01 0 1.02 0 0 Z " fill="#000000" transform="translate(310,348)"/>
<path d="M0 0 C-0.21484375 1.890625 -0.21484375 1.890625 -1 4 C-3.06640625 5.046875 -3.06640625 5.046875 -5.5625 5.75 C-6.80193359 6.11351562 -6.80193359 6.11351562 -8.06640625 6.484375 C-9.02353516 6.73960937 -9.02353516 6.73960937 -10 7 C-10 5.68 -10 4.36 -10 3 C-8.70990357 2.49596232 -7.41786211 1.99690074 -6.125 1.5 C-5.04605469 1.08234375 -5.04605469 1.08234375 -3.9453125 0.65625 C-2 0 -2 0 0 0 Z " fill="#000000" transform="translate(220,345)"/>
<path d="M0 0 C3.63 0.33 7.26 0.66 11 1 C11 1.99 11 2.98 11 4 C7.37 3.67 3.74 3.34 0 3 C0 2.01 0 1.02 0 0 Z " fill="#000000" transform="translate(289,345)"/>
<path d="M0 0 C4.16138263 -0.08159574 7.9472484 0.01751476 12 1 C11.67 1.99 11.34 2.98 11 4 C7.7 3.67 4.4 3.34 1 3 C0.67 2.01 0.34 1.02 0 0 Z " fill="#000000" transform="translate(268,342)"/>
<path d="M0 0 C-2.35735884 2.72957339 -4.58133526 3.88893396 -8 5 C-8.99 5 -9.98 5 -11 5 C-11 4.01 -11 3.02 -11 2 C-3.57142857 -1.57142857 -3.57142857 -1.57142857 0 0 Z " fill="#000000" transform="translate(568,342)"/>
<path d="M0 0 C0 0.99 0 1.98 0 3 C-3.3 3.66 -6.6 4.32 -10 5 C-10.33 4.01 -10.66 3.02 -11 2 C-3.375 0 -3.375 0 0 0 Z " fill="#000000" transform="translate(239,340)"/>
<path d="M0 0 C3.3 0 6.6 0 10 0 C10.33 1.32 10.66 2.64 11 4 C7.37 3.67 3.74 3.34 0 3 C0 2.01 0 1.02 0 0 Z " fill="#000000" transform="translate(248,339)"/>
<path d="M0 0 C0.66 0.33 1.32 0.66 2 1 C0.54875366 4.82601307 -1.35774704 6.22329124 -5 8 C-5.99 8 -6.98 8 -8 8 C-6.49776416 3.79373966 -3.71449966 2.26099979 0 0 Z " fill="#000000" transform="translate(583,330)"/>
<path d="M0 0 C0.99 0 1.98 0 3 0 C3 3.63 3 7.26 3 11 C2.01 11 1.02 11 0 11 C0 7.37 0 3.74 0 0 Z " fill="#000000" transform="translate(142,330)"/>
<path d="M0 0 C0.99 0 1.98 0 3 0 C3 3.63 3 7.26 3 11 C2.01 11 1.02 11 0 11 C0 7.37 0 3.74 0 0 Z " fill="#000000" transform="translate(142,310)"/>
<path d="M0 0 C0.99 0 1.98 0 3 0 C3 3.63 3 7.26 3 11 C2.01 11 1.02 11 0 11 C0 7.37 0 3.74 0 0 Z " fill="#000000" transform="translate(141,270)"/>
<path d="M0 0 C0.66 0.33 1.32 0.66 2 1 C1.39009109 4.55780196 0.4216319 7.6828589 -1 11 C-1.99 11 -2.98 11 -4 11 C-3.39301257 6.87248551 -1.96189209 3.6678852 0 0 Z " fill="#000000" transform="translate(629,264)"/>
<path d="M0 0 C0.99 0 1.98 0 3 0 C3 3.63 3 7.26 3 11 C2.01 11 1.02 11 0 11 C0 7.37 0 3.74 0 0 Z " fill="#000000" transform="translate(141,250)"/>
<path d="M0 0 C0.99 0.33 1.98 0.66 3 1 C2.01 4.3 1.02 7.6 0 11 C-0.99 10.67 -1.98 10.34 -3 10 C-2.69201674 8.51988629 -2.378482 7.04092675 -2.0625 5.5625 C-1.88847656 4.73878906 -1.71445312 3.91507813 -1.53515625 3.06640625 C-1 1 -1 1 0 0 Z " fill="#000000" transform="translate(635,245)"/>
<path d="M0 0 C0.99 0 1.98 0 3 0 C3 3.63 3 7.26 3 11 C2.01 11 1.02 11 0 11 C0 7.37 0 3.74 0 0 Z " fill="#000000" transform="translate(140,210)"/>
<path d="M0 0 C0.99 0 1.98 0 3 0 C2.67 3.63 2.34 7.26 2 11 C1.01 11 0.02 11 -1 11 C-0.67 7.37 -0.34 3.74 0 0 Z " fill="#000000" transform="translate(468,200)"/>
<path d="M0 0 C0.99 0 1.98 0 3 0 C3.125 7.625 3.125 7.625 2 11 C1.01 11 0.02 11 -1 11 C-0.67 7.37 -0.34 3.74 0 0 Z " fill="#000000" transform="translate(470,180)"/>
<path d="M0 0 C0.99 0 1.98 0 3 0 C3 3.63 3 7.26 3 11 C2.01 11 1.02 11 0 11 C0 7.37 0 3.74 0 0 Z " fill="#000000" transform="translate(471,159)"/>
<path d="M0 0 C0.99 0 1.98 0 3 0 C4.17571451 3.67410785 4.07366746 7.16929183 4 11 C3.01 11 2.02 11 1 11 C0.67 7.37 0.34 3.74 0 0 Z " fill="#000000" transform="translate(469,139)"/>
<path d="M0 0 C0.99 0 1.98 0 3 0 C3 3.63 3 7.26 3 11 C2.01 11 1.02 11 0 11 C0 7.37 0 3.74 0 0 Z " fill="#000000" transform="translate(139,131)"/>
<path d="M0 0 C0.99 0.33 1.98 0.66 3 1 C3.66 4.3 4.32 7.6 5 11 C4.01 11 3.02 11 2 11 C0.57741188 7.17679443 -0.24042276 4.08718695 0 0 Z " fill="#000000" transform="translate(465,119)"/>
<path d="M0 0 C0.66 0.99 1.32 1.98 2 3 C0.73308493 3.67408308 -0.53870749 4.33900497 -1.8125 5 C-2.52019531 5.37125 -3.22789062 5.7425 -3.95703125 6.125 C-6 7 -6 7 -9 7 C-8.25675659 4.60510457 -7.52942646 3.29222384 -5.30859375 2.06640625 C-3.55926499 1.32780077 -1.78065851 0.65950315 0 0 Z " fill="#000000" transform="translate(364,57)"/>
<path d="M0 0 C4.54805635 -0.17835515 7.8794254 0.00214565 12 2 C11.67 2.66 11.34 3.32 11 4 C7.7 3.67 4.4 3.34 1 3 C0.67 2.01 0.34 1.02 0 0 Z " fill="#000000" transform="translate(394,53)"/>
<path d="M0 0 C0.99 0 1.98 0 3 0 C3 3.3 3 6.6 3 10 C2.01 10.33 1.02 10.66 0 11 C0 7.37 0 3.74 0 0 Z " fill="#000000" transform="translate(147,609)"/>
<path d="M0 0 C0.99 0 1.98 0 3 0 C3 3.63 3 7.26 3 11 C2.01 10.67 1.02 10.34 0 10 C0 6.7 0 3.4 0 0 Z " fill="#000000" transform="translate(146,589)"/>
<path d="M0 0 C0.99 0 1.98 0 3 0 C3 3.63 3 7.26 3 11 C2.01 10.67 1.02 10.34 0 10 C0 6.7 0 3.4 0 0 Z " fill="#000000" transform="translate(145,529)"/>
<path d="M0 0 C0.99 0 1.98 0 3 0 C3 3.63 3 7.26 3 11 C2.01 10.67 1.02 10.34 0 10 C0 6.7 0 3.4 0 0 Z " fill="#000000" transform="translate(144,469)"/>
<path d="M0 0 C3.63 0.33 7.26 0.66 11 1 C11 1.99 11 2.98 11 4 C3.57142857 4.14285714 3.57142857 4.14285714 0 3 C0 2.01 0 1.02 0 0 Z " fill="#000000" transform="translate(255,442)"/>
<path d="M0 0 C3.63 0.66 7.26 1.32 11 2 C11 2.99 11 3.98 11 5 C7.37 4.34 3.74 3.68 0 3 C0 2.01 0 1.02 0 0 Z " fill="#000000" transform="translate(235,439)"/>
<path d="M0 0 C4.95 0.99 4.95 0.99 10 2 C10 2.99 10 3.98 10 5 C6.53058454 4.54177532 3.32604951 4.10868317 0 3 C0 2.01 0 1.02 0 0 Z " fill="#000000" transform="translate(196,430)"/>
<path d="M0 0 C0.99 0.33 1.98 0.66 3 1 C3 4.3 3 7.6 3 11 C2.01 11 1.02 11 0 11 C0 7.37 0 3.74 0 0 Z " fill="#000000" transform="translate(144,429)"/>
<path d="M0 0 C4.455 0.99 4.455 0.99 9 2 C9.33 3.32 9.66 4.64 10 6 C6.7 5.01 3.4 4.02 0 3 C0 2.01 0 1.02 0 0 Z " fill="#000000" transform="translate(177,424)"/>
<path d="M0 0 C0.66 0.33 1.32 0.66 2 1 C0.55746343 4.36591866 -1.33264727 6.51047079 -4 9 C-4.99 8.67 -5.98 8.34 -7 8 C-5.61918777 3.8575633 -3.40174442 2.67796901 0 0 Z " fill="#000000" transform="translate(394,403)"/>
<path d="M0 0 C0.99 0 1.98 0 3 0 C2.44894091 3.9492568 1.61064629 7.34920174 0 11 C-0.99 10.34 -1.98 9.68 -3 9 C-2.01 6.03 -1.02 3.06 0 0 Z " fill="#000000" transform="translate(444,318)"/>
<path d="M0 0 C0.99 0.33 1.98 0.66 3 1 C2.09827532 2.17825358 1.17798498 3.34231577 0.25 4.5 C-0.51570312 5.47453125 -0.51570312 5.47453125 -1.296875 6.46875 C-3 8 -3 8 -7 8 C-6.02133662 6.85373678 -5.04205413 5.70800212 -4.0625 4.5625 C-3.51722656 3.92441406 -2.97195313 3.28632813 -2.41015625 2.62890625 C-1.63204305 1.73008851 -0.84063472 0.84063472 0 0 Z " fill="#000000" transform="translate(598,317)"/>
<path d="M0 0 C0.99 0.33 1.98 0.66 3 1 C-1 7.57142857 -1 7.57142857 -5 9 C-5 4.61031544 -2.87194899 3.23094261 0 0 Z " fill="#000000" transform="translate(170,314)"/>
<path d="M0 0 C0.99 0 1.98 0 3 0 C2.53199289 4.05606165 2.12046792 7.46588679 0 11 C-0.66 10.67 -1.32 10.34 -2 10 C-1.34 6.7 -0.68 3.4 0 0 Z " fill="#000000" transform="translate(450,299)"/>
<path d="M0 0 C0.99 0.33 1.98 0.66 3 1 C1.63029745 3.95012857 0.17390875 6.5652222 -2 9 C-2.99 9 -3.98 9 -5 9 C-4.42647107 5.12867972 -2.51295648 2.91827204 0 0 Z " fill="#000000" transform="translate(182,299)"/>
<path d="M0 0 C0.66 0.33 1.32 0.66 2 1 C0.44499019 4.81684226 -2.03595495 7.19195732 -5 10 C-5.33 9.01 -5.66 8.02 -6 7 C-4.78515625 5.17578125 -4.78515625 5.17578125 -3.0625 3.3125 C-2.49660156 2.68988281 -1.93070313 2.06726563 -1.34765625 1.42578125 C-0.90292969 0.95527344 -0.45820313 0.48476563 0 0 Z " fill="#000000" transform="translate(195,284)"/>
<path d="M0 0 C0.66 0 1.32 0 2 0 C1.39301257 4.12751449 -0.03810791 7.3321148 -2 11 C-2.99 10.67 -3.98 10.34 -5 10 C-3.66749209 6.4124787 -2.169283 3.1635377 0 0 Z " fill="#000000" transform="translate(621,283)"/>
<path d="M0 0 C0.99 0.33 1.98 0.66 3 1 C1.44499019 4.81684226 -1.03595495 7.19195732 -4 10 C-4.33 9.01 -4.66 8.02 -5 7 C-4.00390625 5.17578125 -4.00390625 5.17578125 -2.5625 3.3125 C-2.08941406 2.68988281 -1.61632812 2.06726563 -1.12890625 1.42578125 C-0.75636719 0.95527344 -0.38382813 0.48476562 0 0 Z " fill="#000000" transform="translate(231,239)"/>
<path d="M0 0 C0.99 0.33 1.98 0.66 3 1 C-0.625 7.75 -0.625 7.75 -4 10 C-4 5.28093812 -2.71245796 3.72962969 0 0 Z " fill="#000000" transform="translate(243,224)"/>
<path d="M0 0 C0.99 0 1.98 0 3 0 C2.85892253 1.45880109 2.71197585 2.91703551 2.5625 4.375 C2.48128906 5.18710938 2.40007812 5.99921875 2.31640625 6.8359375 C2 9 2 9 1 11 C0.01 10.67 -0.98 10.34 -2 10 C-1.34 6.7 -0.68 3.4 0 0 Z " fill="#000000" transform="translate(466,220)"/>
<path d="M0 0 C0.99 0.33 1.98 0.66 3 1 C3 4.3 3 7.6 3 11 C2.01 11 1.02 11 0 11 C0 7.37 0 3.74 0 0 Z " fill="#000000" transform="translate(140,190)"/>
<path d="M0 0 C0.66 0.33 1.32 0.66 2 1 C1.52797514 5.24822374 -0.96655518 7.19989709 -4 10 C-4.66 9.34 -5.32 8.68 -6 8 C-4.02 5.36 -2.04 2.72 0 0 Z " fill="#000000" transform="translate(334,82)"/>
<path d="M0 0 C-0.47205119 4.24846075 -2.88877522 6.26819288 -6 9 C-6.66 9 -7.32 9 -8 9 C-7.53918323 4.85264908 -4.48412936 0 0 0 Z " fill="#000000" transform="translate(348,68)"/>
<path d="M0 0 C4.12751449 0.60698743 7.3321148 2.03810791 11 4 C10.67 4.99 10.34 5.98 10 7 C6.66666667 5.66666667 3.33333333 4.33333333 0 3 C0 2.01 0 1.02 0 0 Z " fill="#000000" transform="translate(414,58)"/>
<path d="M0 0 C1.8871875 0.0309375 1.8871875 0.0309375 3.8125 0.0625 C3.4825 1.0525 3.1525 2.0425 2.8125 3.0625 C-0.4875 3.3925 -3.7875 3.7225 -7.1875 4.0625 C-7.1875 3.0725 -7.1875 2.0825 -7.1875 1.0625 C-4.43671116 0.14557039 -2.82801087 -0.04636083 0 0 Z " fill="#000000" transform="translate(381.1875,52.9375)"/>
<path d="M0 0 C0 0.99 0 1.98 0 3 C-3.63 3.33 -7.26 3.66 -11 4 C-11 3.01 -11 2.02 -11 1 C-7.32589215 -0.17571451 -3.83070817 -0.07366746 0 0 Z " fill="#000000" transform="translate(306,443)"/>
<path d="M0 0 C-0.33 0.99 -0.66 1.98 -1 3 C-3.06640625 3.73046875 -3.06640625 3.73046875 -5.5625 4.1875 C-6.38878906 4.34605469 -7.21507812 4.50460937 -8.06640625 4.66796875 C-9.02353516 4.83232422 -9.02353516 4.83232422 -10 5 C-10.33 4.01 -10.66 3.02 -11 2 C-7.12315913 0.80712589 -4.08378077 0 0 0 Z " fill="#000000" transform="translate(345,435)"/>
<path d="M0 0 C3.3 0.99 6.6 1.98 10 3 C10 3.99 10 4.98 10 6 C6.28111761 5.49287967 3.26545761 4.88391785 0 3 C0 2.01 0 1.02 0 0 Z " fill="#000000" transform="translate(158,417)"/>
<path d="M0 0 C-1.5830577 4.2742558 -4.50568404 6.26531794 -8 9 C-8 5 -8 5 -5.6875 2.25 C-3 0 -3 0 0 0 Z " fill="#000000" transform="translate(170,376)"/>
<path d="M0 0 C7.42857143 -0.14285714 7.42857143 -0.14285714 11 1 C11 1.99 11 2.98 11 4 C7.37 3.67 3.74 3.34 0 3 C0 2.01 0 1.02 0 0 Z " fill="#000000" transform="translate(372,353)"/>
<path d="M0 0 C0.99 0 1.98 0 3 0 C2.39009109 3.55780196 1.4216319 6.6828589 0 10 C-0.99 10 -1.98 10 -3 10 C-2.39009109 6.44219804 -1.4216319 3.3171411 0 0 Z " fill="#000000" transform="translate(437,337)"/>
<path d="M0 0 C0.66 0.33 1.32 0.66 2 1 C1.67 4.3 1.34 7.6 1 11 C0.01 11 -0.98 11 -2 11 C-1.85957123 9.35369672 -1.71250671 7.70795821 -1.5625 6.0625 C-1.48128906 5.14597656 -1.40007812 4.22945313 -1.31640625 3.28515625 C-1 1 -1 1 0 0 Z " fill="#000000" transform="translate(460,259)"/>
<path d="M0 0 C0.99 0.66 1.98 1.32 3 2 C1.68 4.64 0.36 7.28 -1 10 C-1.99 10 -2.98 10 -4 10 C-3.43454163 6.04179141 -2.19097652 3.3340947 0 0 Z " fill="#000000" transform="translate(252,207)"/>
<path d="M0 0 C0.99 0 1.98 0 3 0 C1.79157144 4.43090471 0.48331435 6.98112756 -3 10 C-4 7 -4 7 -3.22265625 5.17578125 C-2.1484375 3.45052083 -1.07421875 1.72526042 0 0 Z " fill="#000000" transform="translate(261,191)"/>
<path d="M0 0 C0.99 0.33 1.98 0.66 3 1 C1.80100302 4.0831351 0.52299523 7.06279492 -1 10 C-1.99 9.67 -2.98 9.34 -4 9 C-2.80100302 5.9168649 -1.52299523 2.93720508 0 0 Z " fill="#000000" transform="translate(270,174)"/>
<path d="M0 0 C0.66 0.33 1.32 0.66 2 1 C0.68775452 4.93673644 -0.91910327 7.22719294 -4 10 C-4.66 9.67 -5.32 9.34 -6 9 C-4.47291037 5.56404834 -2.40072955 2.88087546 0 0 Z " fill="#000000" transform="translate(301,126)"/>
<path d="M0 0 C0.99 0 1.98 0 3 0 C1.7508258 3.45925163 0.32472205 6.14693203 -2 9 C-2.99 8.67 -3.98 8.34 -5 8 C-1.125 1.125 -1.125 1.125 0 0 Z " fill="#000000" transform="translate(311,112)"/>
<path d="M0 0 C0.99 0 1.98 0 3 0 C3 3.3 3 6.6 3 10 C2.01 10 1.02 10 0 10 C0 6.7 0 3.4 0 0 Z " fill="#000000" transform="translate(143,390)"/>
<path d="M0 0 C0.66 0 1.32 0 2 0 C1.42647107 3.87132028 -0.48704352 6.08172796 -3 9 C-3.99 8.67 -4.98 8.34 -6 8 C-2.25 2.25 -2.25 2.25 0 0 Z " fill="#000000" transform="translate(158,329)"/>
<path d="M0 0 C0.66 0.33 1.32 0.66 2 1 C0.83242263 4.32310483 -0.14948857 6.83361132 -3 9 C-3.99 9 -4.98 9 -6 9 C-4.47291037 5.56404834 -2.40072955 2.88087546 0 0 Z " fill="#000000" transform="translate(207,269)"/>
<path d="M0 0 C0.99 0 1.98 0 3 0 C2.34 3.63 1.68 7.26 1 11 C0.01 10.67 -0.98 10.34 -2 10 C-1.34 6.7 -0.68 3.4 0 0 Z " fill="#000000" transform="translate(463,240)"/>
<path d="M0 0 C0.66 0.33 1.32 0.66 2 1 C0.94124926 4.40312738 -0.00902154 7.01353231 -2 10 C-2.99 9.67 -3.98 9.34 -5 9 C-4.3566152 7.686298 -3.71021785 6.37407102 -3.0625 5.0625 C-2.70285156 4.33160156 -2.34320313 3.60070312 -1.97265625 2.84765625 C-1 1 -1 1 0 0 Z " fill="#000000" transform="translate(280,157)"/>
<path d="M0 0 C0.99 0 1.98 0 3 0 C3 3.3 3 6.6 3 10 C2.01 10 1.02 10 0 10 C0 6.7 0 3.4 0 0 Z " fill="#000000" transform="translate(139,151)"/>
<path d="M0 0 C0.99 0.33 1.98 0.66 3 1 C-0.47307692 7.82211538 -0.47307692 7.82211538 -3.140625 8.72265625 C-3.75421875 8.81417969 -4.3678125 8.90570313 -5 9 C-4.3566152 7.686298 -3.71021785 6.37407102 -3.0625 5.0625 C-2.70285156 4.33160156 -2.34320313 3.60070312 -1.97265625 2.84765625 C-1 1 -1 1 0 0 Z " fill="#000000" transform="translate(289,141)"/>
<path d="M0 0 C3.63 0 7.26 0 11 0 C11 0.66 11 1.32 11 2 C7.32589215 3.17571451 3.83070817 3.07366746 0 3 C0 2.01 0 1.02 0 0 Z " fill="#000000" transform="translate(476,355)"/>
<path d="M0 0 C0.66 0.33 1.32 0.66 2 1 C0.8141763 4.37503669 -0.27573689 6.64722731 -3 9 C-3.99 8.67 -4.98 8.34 -6 8 C-4.02 5.36 -2.04 2.72 0 0 Z " fill="#000000" transform="translate(323,97)"/>
<path d="M0 0 C0.99 0 1.98 0 3 0 C3 3.63 3 7.26 3 11 C2.34 11 1.68 11 1 11 C0.67 7.37 0.34 3.74 0 0 Z " fill="#000000" transform="translate(141,290)"/>
<path d="M0 0 C0.66 0 1.32 0 2 0 C2 3.63 2 7.26 2 11 C1.34 11 0.68 11 0 11 C-0.19406478 9.35492782 -0.38007935 7.70890406 -0.5625 6.0625 C-0.66691406 5.14597656 -0.77132812 4.22945312 -0.87890625 3.28515625 C-0.91886719 2.53105469 -0.95882812 1.77695313 -1 1 C-0.67 0.67 -0.34 0.34 0 0 Z " fill="#000000" transform="translate(141,230)"/>
<path d="M0 0 C0.99 0 1.98 0 3 0 C3 3.63 3 7.26 3 11 C2.34 11 1.68 11 1 11 C0.67 7.37 0.34 3.74 0 0 Z " fill="#000000" transform="translate(138,111)"/>
<path d="M0 0 C0.99 0 1.98 0 3 0 C3 3.3 3 6.6 3 10 C2.34 10 1.68 10 1 10 C0.67 6.7 0.34 3.4 0 0 Z " fill="#000000" transform="translate(139,171)"/>
<path d="M0 0 C0.99 0 1.98 0 3 0 C3 1.65 3 3.3 3 5 C1.68 5.33 0.36 5.66 -1 6 C-0.67 4.02 -0.34 2.04 0 0 Z " fill="#000000" transform="translate(638,230)"/>
<path d="M0 0 C0.99 0 1.98 0 3 0 C3 1.65 3 3.3 3 5 C2.01 5 1.02 5 0 5 C0 3.35 0 1.7 0 0 Z " fill="#000000" transform="translate(147,629)"/>
<path d="M0 0 C0.99 0.33 1.98 0.66 3 1 C2.67 1.99 2.34 2.98 2 4 C1.01 3.01 0.02 2.02 -1 1 C-0.67 0.67 -0.34 0.34 0 0 Z " fill="#000000" transform="translate(416,491)"/>
<path d="M0 0 C0.99 0.33 1.98 0.66 3 1 C2.67 1.99 2.34 2.98 2 4 C1.01 3.01 0.02 2.02 -1 1 C-0.67 0.67 -0.34 0.34 0 0 Z " fill="#000000" transform="translate(337,284)"/>
<path d="M0 0 C0.99 0.33 1.98 0.66 3 1 C2.67 1.99 2.34 2.98 2 4 C1.01 3.01 0.02 2.02 -1 1 C-0.67 0.67 -0.34 0.34 0 0 Z " fill="#000000" transform="translate(553,241)"/>
<path d="M0 0 C0.99 0.33 1.98 0.66 3 1 C2.67 1.99 2.34 2.98 2 4 C1.01 3.01 0.02 2.02 -1 1 C-0.67 0.67 -0.34 0.34 0 0 Z " fill="#000000" transform="translate(524,42)"/>
</svg>
