<?xml version="1.0" encoding="UTF-8"?>
<svg version="1.1" xmlns="http://www.w3.org/2000/svg" width="574" height="752">
<path d="M0 0 C0.57999756 0.44891602 1.15999512 0.89783203 1.75756836 1.36035156 C1.56602173 2.56679321 1.56602173 2.56679321 1.37060547 3.79760742 C-13.59024733 99.30830601 -11.13716878 199.22582067 -14.24243164 437.36035156 C-3.70710473 429.34825935 -3.70710473 429.34825935 6.44506836 420.86035156 C7.07171387 420.31266113 7.69835937 419.7649707 8.34399414 419.20068359 C17.35869179 411.25525175 25.3300419 402.80775613 32.75756836 393.36035156 C33.53745117 392.39742188 34.31733398 391.43449219 35.12084961 390.44238281 C58.13426146 361.48292197 75.95316366 325.75720415 81.19506836 288.92285156 C81.88388069 284.1563358 82.54321065 280.64761661 86.32006836 277.36035156 C92.77224788 273.6063562 98.3755591 273.21823213 105.69506836 275.12597656 C124.33764175 282.1665229 141.10418407 299.89876623 151.75756836 316.36035156 C152.41756836 317.35035156 153.07756836 318.34035156 153.75756836 319.36035156 C151.13407972 367.29992167 123.19719011 426.25289143 89.75756836 460.36035156 C89.04987305 461.10671875 88.34217773 461.85308594 87.61303711 462.62207031 C83.25370749 467.14121242 78.54286536 471.10544796 73.64428711 475.02832031 C71.76879228 476.5434359 69.91546269 478.08655982 68.08959961 479.66113281 C55.58177096 490.44009375 41.82481709 499.58999132 27.82006836 508.29785156 C27.00546143 508.80485596 26.19085449 509.31186035 25.3515625 509.83422852 C24.548396 510.32624756 23.74522949 510.8182666 22.91772461 511.32519531 C21.70209839 512.07808838 21.70209839 512.07808838 20.46191406 512.84619141 C17.75756836 514.36035156 17.75756836 514.36035156 14.37158203 515.78466797 C7.56785422 518.73344254 7.56785422 518.73344254 3.19677734 524.44995117 C2.35919069 527.56589297 1.70824935 530.62917988 1.24398804 533.82183838 C0.73069846 537.32226892 0.02377976 540.78611099 -0.64868164 544.25878906 C-0.77765335 544.95358368 -0.90662506 545.6483783 -1.039505 546.36422729 C-5.31619301 569.03182698 -15.9529851 591.59334184 -29.24243164 610.36035156 C-30.3078418 611.89949219 -30.3078418 611.89949219 -31.39477539 613.46972656 C-42.15195467 628.25395244 -55.62909645 641.76568449 -71.24243164 651.36035156 C-71.87358887 651.75013184 -72.50474609 652.13991211 -73.1550293 652.54150391 C-87.54486204 661.29452116 -102.37077097 666.77203866 -118.69067383 670.73828125 C-121.32897943 671.38145028 -123.96137147 672.04589769 -126.59399414 672.71191406 C-161.08026603 681.33426192 -198.50342223 682.50628555 -230.23461914 664.25488281 C-251.63856124 650.77317902 -268.83859139 631.63850645 -275.11743164 606.61035156 C-278.22338183 591.04340362 -273.6617515 577.67662276 -265.24243164 564.36035156 C-262.74744829 560.86228307 -260.06705214 557.59601758 -257.24243164 554.36035156 C-256.53086914 553.52761719 -255.81930664 552.69488281 -255.08618164 551.83691406 C-221.90578331 513.86638781 -160.84179037 483.6521409 -111.24243164 476.36035156 C-109.24278339 476.32284351 -107.24188309 476.31351229 -105.24243164 476.36035156 C-105.26861572 475.75191406 -105.2947998 475.14347656 -105.32177734 474.51660156 C-106.59178311 439.53517701 -99.7039987 404.87993692 -94.27783203 370.45214844 C-94.08514236 369.21905441 -93.8924527 367.98596039 -93.69392395 366.71549988 C-93.33361047 364.41202073 -92.96935126 362.10915341 -92.60014343 359.80708313 C-91.43586326 352.34036629 -90.72195431 344.9013981 -90.24243164 337.36035156 C-90.68071289 338.318125 -91.11899414 339.27589844 -91.57055664 340.26269531 C-105.2589769 369.32613817 -128.50395421 394.45174038 -154.24243164 413.36035156 C-155.69262695 414.48570312 -155.69262695 414.48570312 -157.17211914 415.63378906 C-192.21062412 442.69604901 -233.54888751 465.01760122 -278.95996094 459.53759766 C-303.19058464 456.28828863 -324.50344407 447.18438551 -343.24243164 431.36035156 C-344.05454102 430.69519531 -344.86665039 430.03003906 -345.70336914 429.34472656 C-387.70617652 393.56946475 -398.28418123 330.55534225 -402.84790039 278.76269531 C-404.03500548 263.28602278 -404.4465722 247.88013659 -404.42993164 232.36035156 C-404.42932739 231.31099426 -404.42872314 230.26163696 -404.42810059 229.18048096 C-404.39911118 210.50671057 -403.8373832 191.96596072 -402.24243164 173.36035156 C-402.18162415 172.64155823 -402.12081665 171.92276489 -402.0581665 171.18218994 C-398.57681236 130.45470232 -392.04850863 90.12219339 -382.69955444 50.3326416 C-382.28670403 48.55136804 -381.89936865 46.76422768 -381.51513672 44.9765625 C-380.07309457 38.80368335 -378.14866273 35.0918835 -373.42993164 30.86035156 C-372.85952148 30.32192627 -372.28911133 29.78350098 -371.70141602 29.22875977 C-351.00248053 10.02807056 -325.28108332 -6.88232219 -296.07446289 -6.02246094 C-285.51071068 -4.96716255 -277.06514718 -1.58351288 -269.63414001 6.00210571 C-267.7136281 9.25640765 -268.06850667 12.02518075 -268.38916016 15.65478516 C-268.4408948 16.38999578 -268.49262945 17.12520641 -268.54593182 17.88269615 C-268.72264059 20.34276006 -268.92225636 22.80044263 -269.12133789 25.25878906 C-269.25094689 27.01316651 -269.37889967 28.76766701 -269.50531006 30.52227783 C-269.77915858 34.28875868 -270.06220901 38.05438806 -270.35244751 41.81964111 C-271.04343025 50.80284684 -271.68220587 59.78981589 -272.32111168 68.77685165 C-272.46716003 70.83032743 -272.6137312 72.88376609 -272.76081276 74.93716812 C-274.22854607 95.45660766 -275.40645613 115.98492554 -276.43207932 136.53083038 C-276.55300976 138.94695349 -276.67568595 141.36298196 -276.79885864 143.7789917 C-277.31697013 153.97119326 -277.80204462 164.16448838 -278.24243164 174.36035156 C-278.29684418 175.61835571 -278.35125671 176.87635986 -278.40731812 178.17248535 C-279.2374924 198.07366709 -279.43019954 217.9580465 -279.42773438 237.87353516 C-279.42765296 241.19813457 -279.43464592 244.52259661 -279.44824219 247.84716797 C-282.36492011 309.20982279 -282.36492011 309.20982279 -262.24243164 364.36035156 C-256.05074712 369.96593002 -249.23232622 369.80252199 -241.27758789 369.48339844 C-230.0111144 368.8022201 -220.46829687 366.66285529 -212.24243164 358.36035156 C-189.53712423 331.5956104 -179.92890766 294.74711568 -169.59664345 261.95320034 C-167.82346962 256.33282029 -166.03932168 250.71732296 -164.2026825 245.11732483 C-150.64552579 203.67072748 -143.08340349 161.92822785 -136.27536309 118.93939644 C-133.99280488 104.53206506 -131.64019697 90.13600482 -129.2853682 75.74033785 C-128.4666779 70.72728902 -127.66150673 65.71231643 -126.86787343 60.6952424 C-117.79880655 3.44990629 -117.79880655 3.44990629 -95.42993164 -13.51464844 C-67.45061586 -32.02202736 -24.89070878 -18.19989114 0 0 Z M-99.24243164 -2.63964844 C-112.14262666 12.43501127 -115.88828214 30.54369607 -118.87353516 49.62744141 C-119.10853067 51.09079717 -119.34432483 52.55402487 -119.58084106 54.01713562 C-120.08574924 57.14610367 -120.5866838 60.27567208 -121.08490181 63.40571213 C-121.88702702 68.43423774 -122.70839162 73.45951331 -123.53367615 78.48428345 C-123.74518612 79.77284919 -123.74518612 79.77284919 -123.96096903 81.08744657 C-124.2493862 82.84439315 -124.53784079 84.60133359 -124.82633197 86.35826802 C-126.73997031 98.01783229 -128.64208027 109.67895845 -130.49316406 121.34863281 C-137.74912138 167.02630964 -146.94493015 210.96393028 -161.16543579 255.01062584 C-162.94291983 260.53904456 -164.67426192 266.08191632 -166.41162109 271.62304688 C-171.91536449 289.16639932 -177.61586212 306.60567856 -185.24243164 323.36035156 C-185.64413574 324.25818359 -186.04583984 325.15601563 -186.4597168 326.08105469 C-204.02301029 365.13458629 -204.02301029 365.13458629 -222.24243164 372.36035156 C-234.28314957 375.79026471 -249.44663041 378.22765771 -261.06665039 372.73144531 C-271.36882052 366.23941351 -275.69663445 353.75334507 -278.42993164 342.42285156 C-281.81392278 327.17684577 -283.36636498 311.74586624 -284.31274414 296.17675781 C-284.35617699 295.46673677 -284.39960983 294.75671574 -284.44435883 294.02517891 C-285.37303204 278.50375506 -285.56163992 263.01242861 -285.50058365 247.46701813 C-285.49221039 245.23897899 -285.48685911 243.01094739 -285.48202515 240.78289795 C-285.37381511 196.79430514 -283.31543104 152.9558085 -280.80493164 109.04785156 C-280.72697042 107.68356899 -280.72697042 107.68356899 -280.64743423 106.29172516 C-279.66023086 89.06064914 -278.64923828 71.83200007 -277.41381836 54.61669922 C-277.30971917 53.16012956 -277.30971917 53.16012956 -277.20351696 51.67413425 C-276.86972082 47.01811761 -276.52971874 42.36269259 -276.17884827 37.70793152 C-273.77011459 21.16229884 -273.77011459 21.16229884 -277.55493164 6.23535156 C-279.25594814 5.1938446 -279.25594814 5.1938446 -281.24243164 4.36035156 C-282.37358398 3.78220703 -282.37358398 3.78220703 -283.52758789 3.19238281 C-296.12075003 -2.37292112 -310.70988508 -0.44735136 -323.24243164 4.36035156 C-337.69781492 10.42104482 -350.44295308 19.09739529 -362.24243164 29.36035156 C-363.235896 30.20202881 -364.22936035 31.04370605 -365.25292969 31.91088867 C-373.40255135 39.15954631 -376.58692098 45.97986477 -378.55493164 56.67285156 C-378.86196759 58.15823109 -379.17236331 59.64291947 -379.48583984 61.12695312 C-380.30164956 65.05894485 -381.05508688 69.00022076 -381.78991699 72.94805908 C-382.23966846 75.34562141 -382.70479385 77.73968209 -383.17504883 80.13330078 C-390.05395524 115.24830506 -394.69628472 150.67028176 -397.24243164 186.36035156 C-397.29082184 187.02544739 -397.33921204 187.69054321 -397.3890686 188.37579346 C-398.37600585 202.32116921 -398.4432199 216.25991668 -398.42993164 230.23535156 C-398.42932739 231.4101004 -398.42872314 232.58484924 -398.42810059 233.79519653 C-398.40399371 251.06262553 -398.17636509 268.18355406 -396.24243164 285.36035156 C-396.11352539 286.54387207 -395.98461914 287.72739258 -395.85180664 288.94677734 C-392.17662009 321.7129371 -385.90413612 354.59822365 -371.24243164 384.36035156 C-370.75323242 385.36533691 -370.75323242 385.36533691 -370.25415039 386.390625 C-355.87720199 415.6170709 -332.28132759 436.87519366 -302.10961914 448.57519531 C-270.05907978 459.43631159 -237.70135749 454.93404352 -207.89477539 440.26660156 C-184.82321469 428.60467051 -162.5593754 413.98590963 -143.51196289 396.44628906 C-141.41483114 394.51880481 -139.27866809 392.65273799 -137.11743164 390.79785156 C-111.84723131 368.66743564 -94.89259579 339.56925769 -86.24243164 307.36035156 C-84.59243164 307.03035156 -82.94243164 306.70035156 -81.24243164 306.36035156 C-82.24570288 331.1651351 -86.09158688 355.55152961 -89.75305176 380.07299805 C-91.05196391 388.79829219 -92.32466266 397.52746184 -93.6000061 406.25622559 C-94.04124552 409.26696606 -94.48649391 412.2770892 -94.93261719 415.28710938 C-98.18521878 437.18144497 -98.18521878 437.18144497 -99.92993164 459.23535156 C-100.00050781 460.48445312 -100.00050781 460.48445312 -100.07250977 461.75878906 C-100.36786877 468.03395738 -99.94150121 474.12147135 -99.24243164 480.36035156 C-99.8123584 480.45944824 -100.38228516 480.55854492 -100.96948242 480.66064453 C-125.568211 485.06457121 -149.15628437 492.85709911 -171.86157227 503.26904297 C-174.22562503 504.35264796 -176.60033836 505.40977599 -178.97680664 506.46582031 C-212.1004192 521.42464969 -252.78179845 545.70152434 -267.34790039 580.90722656 C-272.19579062 594.2018775 -270.1359124 604.96229457 -264.76977539 617.91503906 C-260.65084483 626.65924625 -255.45945966 634.00556679 -249.24243164 641.36035156 C-248.68040039 642.02550781 -248.11836914 642.69066406 -247.53930664 643.37597656 C-231.11477089 661.12774753 -205.82857314 670.93709273 -182.04663086 672.58129883 C-148.82022811 673.75425908 -113.3103164 667.37749926 -83.74243164 651.67285156 C-82.93346436 651.24351318 -82.12449707 650.8141748 -81.29101562 650.37182617 C-45.12521355 630.66755093 -21.31906232 593.74341631 -9.26782227 555.24707031 C-6.11975727 544.41995053 -3.68017383 533.48949079 -1.98071289 522.34472656 C-1.0420501 518.55034365 0.38421028 517.22494007 3.64501953 515.17211914 C4.35634033 514.78693115 5.06766113 514.40174316 5.80053711 514.00488281 C6.61490234 513.5557251 7.42926758 513.10656738 8.26831055 512.64379883 C9.15164063 512.15838623 10.0349707 511.67297363 10.94506836 511.17285156 C29.52355821 500.74393139 47.18488147 488.74948646 63.75756836 475.36035156 C64.34618652 474.88742676 64.93480469 474.41450195 65.54125977 473.92724609 C111.62293751 436.5822915 133.33866001 383.96541525 146.75756836 327.36035156 C147.03600586 326.2865625 147.31444336 325.21277344 147.60131836 324.10644531 C148.00365286 317.03541652 139.98401178 310.51492153 135.50927734 305.45629883 C127.4192899 296.52193292 118.422033 288.13378514 107.75756836 282.36035156 C106.97381836 281.92722656 106.19006836 281.49410156 105.38256836 281.04785156 C101.24337798 279.96377789 96.99331898 279.71982342 92.75756836 280.36035156 C90.26802396 281.84392159 88.98835863 282.7580234 87.93969727 285.49487305 C87.71419189 286.72572632 87.71419189 286.72572632 87.48413086 287.98144531 C87.30269531 288.90650879 87.12125977 289.83157227 86.93432617 290.78466797 C86.66120605 292.27619385 86.66120605 292.27619385 86.38256836 293.79785156 C77.31989512 338.72482472 55.46227616 379.32775178 23.75756836 412.36035156 C23.22260742 412.92254395 22.68764648 413.48473633 22.13647461 414.06396484 C10.07325116 426.68089861 -4.47116169 440.47471659 -20.24243164 448.36035156 C-20.82818148 345.86010726 -18.5753266 243.318934 -6.55786133 17.08544922 C-6.06748144 12.84890099 -5.65063058 8.60550356 -5.24243164 4.36035156 C-31.79948617 -14.89471067 -72.10574783 -26.03482434 -99.24243164 -2.63964844 Z " fill="#000000" transform="translate(420.242431640625,21.6396484375)"/>
<path d="M0 0 C6.517904 4.68956663 12.55343845 10.81246164 14 19 C14.7992898 30.25557271 13.99078008 38.31915226 6.75 47.25 C-0.91024915 55.5033007 -9.0534899 57.71498881 -20.09765625 58.18359375 C-28.50722958 57.78794816 -34.99740841 52.83329473 -40.56640625 46.796875 C-47.40185131 38.22928718 -47.77001036 29.60414261 -47 19 C-44.975542 10.56069317 -38.97795811 3.7193806 -31.8125 -0.9375 C-22.69451393 -6.41571974 -8.7703344 -5.84114609 0 0 Z " fill="#000000" transform="translate(101,65)"/>
<path d="M0 0 C0.48641903 11.79566149 -0.12373173 21.72821991 -4 33 C-4.350625 34.03640625 -4.70125 35.0728125 -5.0625 36.140625 C-12.0251458 54.61097705 -25.8548348 68.75942395 -43 78 C-44.47146484 78.83724609 -44.47146484 78.83724609 -45.97265625 79.69140625 C-55.90175672 83.98334 -69.08222243 80.6450326 -78.7890625 76.93359375 C-85.71933193 73.76158221 -90.59362554 69.52934921 -94.875 63.25 C-97.3156931 56.19910883 -97.9088121 49.14930895 -95.13671875 42.125 C-85.67426099 24.43573189 -61.96580533 16.67751857 -44 11 C-7.09593573 0 -7.09593573 0 0 0 Z M-23.875 11.5 C-24.54550385 11.67951202 -25.21600769 11.85902405 -25.90682983 12.04397583 C-60.75917594 21.13251615 -60.75917594 21.13251615 -88.9375 42.3125 C-91.10474873 47.79436444 -91.76802473 53.56394517 -90 59.25 C-86.97998743 65.99741547 -80.93293994 69.5094182 -74.3046875 72.1875 C-65.66347831 75.23389239 -55.58097782 77.27809144 -46.8515625 73.71484375 C-43.75399231 71.96698602 -40.88382673 70.08078582 -38 68 C-37.11183594 67.36320313 -36.22367187 66.72640625 -35.30859375 66.0703125 C-20.12825272 54.5286181 -8.94332821 37.070314 -6 18 C-5.93540958 16.23022239 -5.91388935 14.45829848 -5.9375 12.6875 C-5.94652344 11.80449219 -5.95554687 10.92148437 -5.96484375 10.01171875 C-5.97644531 9.34785156 -5.98804688 8.68398438 -6 8 C-12.18737623 8 -17.92863819 9.90373582 -23.875 11.5 Z " fill="#000000" transform="translate(321,556)"/>
<path d="M0 0 C1.32 0 2.64 0 4 0 C4.52787109 1.8871875 4.52787109 1.8871875 5.06640625 3.8125 C8.25507986 14.96847457 11.91164846 25.56820805 17 36 C17.30663574 36.63244629 17.61327148 37.26489258 17.92919922 37.91650391 C24.72783181 51.74285727 33.34309166 63.86371516 44 75 C44.74507812 75.81984375 45.49015625 76.6396875 46.2578125 77.484375 C63.74503653 96.06815764 89.44396954 107.23903875 114.8203125 108.22265625 C133.04205192 108.66031859 149.71817449 105.59833784 167 100 C164.69 98.68 162.38 97.36 160 96 C160 95.01 160 94.02 160 93 C165.96564796 93.50771472 170.63809899 95.38592128 176 98 C175.49228528 103.96564796 173.61407872 108.63809899 171 114 C169.68 114 168.36 114 167 114 C167.61118369 110.43476181 168.62022499 107.33726069 170 104 C169.01902344 104.32613281 168.03804687 104.65226562 167.02734375 104.98828125 C135.31700067 115.33265694 102.18942908 117.05052734 71.61450195 101.99560547 C45.6616238 88.63643638 27.23705471 66.59463488 14 41 C13.68579102 40.39752441 13.37158203 39.79504883 13.04785156 39.17431641 C9.00438713 31.30962704 5.89715764 23.24436626 3.0625 14.875 C2.60206299 13.52305542 2.60206299 13.52305542 2.13232422 12.14379883 C1.85275879 11.28939209 1.57319336 10.43498535 1.28515625 9.5546875 C1.03644775 8.79655762 0.78773926 8.03842773 0.53149414 7.25732422 C-0.05373334 4.77178757 -0.09226395 2.54469034 0 0 Z " fill="#000000" transform="translate(20,393)"/>
<path d="M0 0 C3.13659662 1.42701017 5.62380533 3.14759785 8.25 5.375 C8.95640625 5.96023438 9.6628125 6.54546875 10.390625 7.1484375 C12 9 12 9 12 13 C8.62189888 12.39676766 6.67744188 11.09807945 4 9 C7.50358634 27.42037061 13.51769294 41.45396091 29.234375 52.58203125 C64.25354535 75.18427355 112.26549257 67.33664013 150.4375 59.25 C152.29275532 58.83820779 154.14745223 58.42380642 156 58 C156.33 59.32 156.66 60.64 157 62 C148.1233226 64.63635916 139.24854703 66.61024616 130.125 68.1875 C129.16327881 68.35411133 128.20155762 68.52072266 127.21069336 68.69238281 C118.52648371 70.15287149 109.99870575 71.15341472 101.1875 71.203125 C100.37490723 71.20882507 99.56231445 71.21452515 98.72509766 71.22039795 C97.01417309 71.22977838 95.30323103 71.23635395 93.59228516 71.24023438 C91.03384021 71.24987252 88.47622376 71.28093487 85.91796875 71.3125 C62.04725499 71.46628423 34.88410106 66.56612046 17.0546875 49.30859375 C6.58886886 37.54947053 1.14137711 24.66081768 -1 9 C-1.928125 9.845625 -2.85625 10.69125 -3.8125 11.5625 C-5.39453125 13.00390625 -5.39453125 13.00390625 -7 14 C-7.99 13.67 -8.98 13.34 -10 13 C-9.48223379 8.89552608 -7.35372556 7.04300477 -4.4375 4.25 C-3.61121094 3.45078125 -2.78492188 2.6515625 -1.93359375 1.828125 C-1.29550781 1.22484375 -0.65742188 0.6215625 0 0 Z " fill="#000000" transform="translate(139,653)"/>
<path d="M0 0 C0.66 0.33 1.32 0.66 2 1 C2.19300215 8.98314068 1.58262324 16.80682712 0.828125 24.75 C0.7038014 26.1020142 0.58011622 27.45408724 0.45701599 28.80621338 C0.1939169 31.69551978 -0.07066655 34.58468355 -0.33633423 37.47375488 C-2.64755414 62.68981207 -4.67018721 87.911409 -6.18830872 113.18804932 C-6.30979247 115.20504678 -6.43349644 117.22191012 -6.55725098 119.23876953 C-7.45298305 133.96037334 -8.1502403 148.68063429 -8.60546875 163.421875 C-8.62660547 164.09154549 -8.6477422 164.76121597 -8.66951942 165.4511795 C-9.08999469 179.05352481 -9.25363889 192.65416329 -8.5625 206.25 C-8.52318359 207.14589844 -8.48386719 208.04179687 -8.44335938 208.96484375 C-8.40146484 209.82722656 -8.35957031 210.68960938 -8.31640625 211.578125 C-8.27974854 212.33512695 -8.24309082 213.09212891 -8.20532227 213.87207031 C-8.00009388 215.99902707 -7.57276061 217.94423493 -7 220 C-6.34 219.01 -5.68 218.02 -5 217 C-4.01 217 -3.02 217 -2 217 C-3.15585285 220.91211733 -4.35534962 223.8745041 -7 227 C-10.93619738 226.43768609 -13.79192446 225.38314183 -17 223 C-17 222.01 -17 221.02 -17 220 C-14.83125748 220.50603992 -13.00032373 220.99983813 -11 222 C-11.16008545 221.11352783 -11.3201709 220.22705566 -11.48510742 219.3137207 C-12.29826679 213.56510457 -12.20227484 207.77553912 -12.23828125 201.98046875 C-12.25297203 200.03558311 -12.25297203 200.03558311 -12.26795959 198.05140686 C-12.29587936 193.76344821 -12.30672881 189.47554008 -12.3125 185.1875 C-12.31365059 184.44749252 -12.31480118 183.70748505 -12.31598663 182.9450531 C-12.37786996 125.45873724 -7.21278143 68.20990712 -2 11 C-1.9122934 9.9888916 -1.82458679 8.9777832 -1.73422241 7.93603516 C-1.65136993 7.02515137 -1.56851746 6.11426758 -1.4831543 5.17578125 C-1.4133989 4.38727783 -1.34364349 3.59877441 -1.27177429 2.78637695 C-1 1 -1 1 0 0 Z " fill="#000000" transform="translate(440,82)"/>
<path d="M0 0 C2.88417214 1.79017581 4.17791215 4.20609312 5.8125 7.125 C5.8125 8.115 5.8125 9.105 5.8125 10.125 C4.8225 10.125 3.8325 10.125 2.8125 10.125 C2.1525 9.135 1.4925 8.145 0.8125 7.125 C0.64758057 7.65005127 0.48266113 8.17510254 0.31274414 8.71606445 C-1.47814537 14.40667855 -3.29033727 20.09024005 -5.11376953 25.77050781 C-5.83249447 28.01591043 -6.5469813 30.26267382 -7.25732422 32.51074219 C-15.35610771 58.08930871 -24.44986302 79.60499822 -43.1875 99.125 C-43.8475 98.795 -44.5075 98.465 -45.1875 98.125 C-43.59578029 94.39932638 -41.23481554 91.7697993 -38.5625 88.75 C-33.11236866 82.37852519 -29.03867197 75.55712244 -25.1875 68.125 C-24.62675781 67.07957031 -24.06601562 66.03414063 -23.48828125 64.95703125 C-14.1295754 46.34869537 -8.36318663 25.22845649 -3.1875 5.125 C-4.1775 5.785 -5.1675 6.445 -6.1875 7.125 C-7.1775 7.125 -8.1675 7.125 -9.1875 7.125 C-9.1875 6.135 -9.1875 5.145 -9.1875 4.125 C-2.9534372 0.16876784 -2.9534372 0.16876784 0 0 Z " fill="#000000" transform="translate(484.1875,312.875)"/>
<path d="M0 0 C1.4540625 0.0309375 1.4540625 0.0309375 2.9375 0.0625 C5.0625 4.6875 5.0625 4.6875 3.9375 8.0625 C4.26300502 9.73071323 4.59596063 11.39749557 4.9375 13.0625 C4.6075 13.7225 4.2775 14.3825 3.9375 15.0625 C1.125 15.9375 1.125 15.9375 -2.0625 16.0625 C-4.4375 14.125 -4.4375 14.125 -6.0625 12.0625 C-2.43923261 10.8547442 -1.42103631 11.51938872 1.9375 13.0625 C1.9375 11.7425 1.9375 10.4225 1.9375 9.0625 C0.6175 9.0625 -0.7025 9.0625 -2.0625 9.0625 C-2.0625 8.0725 -2.0625 7.0825 -2.0625 6.0625 C-0.7425 6.0625 0.5775 6.0625 1.9375 6.0625 C1.6075 5.0725 1.2775 4.0825 0.9375 3.0625 C-1.0425 3.7225 -3.0225 4.3825 -5.0625 5.0625 C-3.9375 0.08035714 -3.9375 0.08035714 0 0 Z " fill="#000000" transform="translate(188.0625,731.9375)"/>
<path d="M0 0 C3.0625 0.1875 3.0625 0.1875 5.0625 2.1875 C4.90004442 5.92397845 4.47466356 7.71288742 2 10.5625 C1.360625 11.09875 0.72125 11.635 0.0625 12.1875 C1.7125 12.5175 3.3625 12.8475 5.0625 13.1875 C5.0625 13.8475 5.0625 14.5075 5.0625 15.1875 C1.7625 15.1875 -1.5375 15.1875 -4.9375 15.1875 C-2.9375 11.1875 -2.9375 11.1875 -0.8125 8.625 C1.36735538 6.30372611 1.36735538 6.30372611 1.0625 3.1875 C0.4025 3.1875 -0.2575 3.1875 -0.9375 3.1875 C-1.2675 3.8475 -1.5975 4.5075 -1.9375 5.1875 C-2.9275 5.1875 -3.9175 5.1875 -4.9375 5.1875 C-3.82120474 0.24390669 -3.82120474 0.24390669 0 0 Z " fill="#000000" transform="translate(461.9375,185.8125)"/>
<path d="M0 0 C0.99 0 1.98 0 3 0 C3 3.3 3 6.6 3 10 C3.66 10 4.32 10 5 10 C5 10.66 5 11.32 5 12 C4.34 12 3.68 12 3 12 C3 12.99 3 13.98 3 15 C2.34 15 1.68 15 1 15 C1 14.01 1 13.02 1 12 C-1.31 12 -3.62 12 -6 12 C-5.56629155 7.2292071 -3.35665609 3.36635741 0 0 Z M0 4 C-0.99 5.98 -1.98 7.96 -3 10 C-1.68 10 -0.36 10 1 10 C1 8.02 1 6.04 1 4 C0.67 4 0.34 4 0 4 Z " fill="#000000" transform="translate(456,342)"/>
<path d="M0 0 C1.65 0 3.3 0 5 0 C5.33 3.63 5.66 7.26 6 11 C5.01 11.33 4.02 11.66 3 12 C2.67 10.35 2.34 8.7 2 7 C1.34 8.65 0.68 10.3 0 12 C-0.66 11.67 -1.32 11.34 -2 11 C-1.85892253 9.54119891 -1.71197585 8.08296449 -1.5625 6.625 C-1.48128906 5.81289062 -1.40007812 5.00078125 -1.31640625 4.1640625 C-1 2 -1 2 0 0 Z " fill="#000000" transform="translate(353,76)"/>
<path d="M0 0 C0 4.95 0 9.9 0 15 C-0.99 15 -1.98 15 -3 15 C-3 11.37 -3 7.74 -3 4 C-3.99 4.33 -4.98 4.66 -6 5 C-5.625 3.0625 -5.625 3.0625 -5 1 C-3 0 -3 0 0 0 Z " fill="#000000" transform="translate(175,732)"/>
<path d="M0 0 C0 4.95 0 9.9 0 15 C-0.99 15 -1.98 15 -3 15 C-3 11.37 -3 7.74 -3 4 C-3.99 4.33 -4.98 4.66 -6 5 C-5.625 3.0625 -5.625 3.0625 -5 1 C-3 0 -3 0 0 0 Z " fill="#000000" transform="translate(7,469)"/>
<path d="M0 0 C0 4.95 0 9.9 0 15 C-0.99 15 -1.98 15 -3 15 C-3 11.37 -3 7.74 -3 4 C-3.99 4.33 -4.98 4.66 -6 5 C-5.625 3.0625 -5.625 3.0625 -5 1 C-3 0 -3 0 0 0 Z " fill="#000000" transform="translate(442,342)"/>
<path d="M0 0 C0 4.95 0 9.9 0 15 C-0.99 15 -1.98 15 -3 15 C-3 11.37 -3 7.74 -3 4 C-3.99 4.33 -4.98 4.66 -6 5 C-5.625 3.0625 -5.625 3.0625 -5 1 C-3 0 -3 0 0 0 Z " fill="#000000" transform="translate(449,186)"/>
<path d="M0 0 C0 4.95 0 9.9 0 15 C-0.66 15 -1.32 15 -2 15 C-2.33 11.37 -2.66 7.74 -3 4 C-3.99 4.33 -4.98 4.66 -6 5 C-6 4.01 -6 3.02 -6 2 C-3 0 -3 0 0 0 Z " fill="#000000" transform="translate(19,469)"/>
<path d="M0 0 C0.99 0.33 1.98 0.66 3 1 C1.64458676 5.06623972 -0.57009469 6.53046818 -4 9 C-4.99 8.67 -5.98 8.34 -7 8 C-5.64458676 3.93376028 -3.42990531 2.46953182 0 0 Z " fill="#000000" transform="translate(225,422)"/>
<path d="M0 0 C0.99 0 1.98 0 3 0 C3 3.96 3 7.92 3 12 C2.01 12 1.02 12 0 12 C0 8.04 0 4.08 0 0 Z " fill="#000000" transform="translate(361,322)"/>
<path d="M0 0 C0.66 0.33 1.32 0.66 2 1 C0.50164772 5.66154042 -2.88463591 6.86610751 -7 9 C-7 7.68 -7 6.36 -7 5 C-5.46875 3.515625 -5.46875 3.515625 -3.5 2.25 C-2.8503125 1.82203125 -2.200625 1.3940625 -1.53125 0.953125 C-1.0259375 0.63859375 -0.520625 0.3240625 0 0 Z " fill="#000000" transform="translate(218,565)"/>
<path d="M0 0 C0.99 0.33 1.98 0.66 3 1 C1.625 3 1.625 3 0 5 C-0.66 5 -1.32 5 -2 5 C-2.66 6.32 -3.32 7.64 -4 9 C-4.99 8.67 -5.98 8.34 -7 8 C-3.375 2.25 -3.375 2.25 0 0 Z " fill="#000000" transform="translate(462,435)"/>
<path d="M0 0 C0.515625 0.2475 1.03125 0.495 1.5625 0.75 C-0.91335238 3.40269897 -3.02776101 5.43010103 -6.4375 6.75 C-7.4275 6.75 -8.4175 6.75 -9.4375 6.75 C-9.4375 5.76 -9.4375 4.77 -9.4375 3.75 C-3.0375 -0.31153846 -3.0375 -0.31153846 0 0 Z " fill="#000000" transform="translate(210.4375,435.25)"/>
<path d="M0 0 C-0.50522222 4.37859255 -3.17827222 6.81651224 -6 10 C-6.99 9.67 -7.98 9.34 -9 9 C-7.45665977 5.21180126 -4.44676575 0 0 0 Z " fill="#000000" transform="translate(242,407)"/>
<path d="M0 0 C0.99 0.33 1.98 0.66 3 1 C1.6062718 5.43458973 -0.60582235 7.87378374 -4 11 C-4.65234375 9.234375 -4.65234375 9.234375 -5 7 C-4.00390625 5.078125 -4.00390625 5.078125 -2.5625 3.25 C-2.08941406 2.63640625 -1.61632812 2.0228125 -1.12890625 1.390625 C-0.75636719 0.93171875 -0.38382813 0.4728125 0 0 Z " fill="#000000" transform="translate(252,390)"/>
<path d="M0 0 C0.99 0 1.98 0 3 0 C1.86059291 3.85645478 0.82205934 7.06505829 -2 10 C-2.99 10 -3.98 10 -5 10 C-3.66786942 6.4134946 -2.23083941 3.12317517 0 0 Z " fill="#000000" transform="translate(263,373)"/>
<path d="M0 0 C-1.49835228 4.66154042 -4.88463591 5.86610751 -9 8 C-9 6.68 -9 5.36 -9 4 C-4 0 -4 0 0 0 Z " fill="#000000" transform="translate(298,653)"/>
<path d="M0 0 C0.66 0 1.32 0 2 0 C2.99 3.63 3.98 7.26 5 11 C3.68 10.67 2.36 10.34 1 10 C0.63883954 8.5225254 0.28624952 7.04295325 -0.0625 5.5625 C-0.25972656 4.73878906 -0.45695313 3.91507813 -0.66015625 3.06640625 C-0.82837891 2.04353516 -0.82837891 2.04353516 -1 1 C-0.67 0.67 -0.34 0.34 0 0 Z " fill="#000000" transform="translate(190,615)"/>
<path d="M0 0 C0.99 0.33 1.98 0.66 3 1 C1.02 3.97 -0.96 6.94 -3 10 C-3.99 9.67 -4.98 9.34 -6 9 C-4.47291037 5.56404834 -2.40072955 2.88087546 0 0 Z " fill="#000000" transform="translate(202,578)"/>
<path d="M0 0 C0 0.66 0 1.32 0 2 C-4.95 3.485 -4.95 3.485 -10 5 C-10.33 4.01 -10.66 3.02 -11 2 C-9.73392393 1.46770674 -8.46189588 0.94955456 -7.1875 0.4375 C-6.47980469 0.14746094 -5.77210938 -0.14257812 -5.04296875 -0.44140625 C-3 -1 -3 -1 0 0 Z " fill="#000000" transform="translate(295,537)"/>
<path d="M0 0 C0 0.66 0 1.32 0 2 C-6.5 5 -6.5 5 -11 5 C-11 4.01 -11 3.02 -11 2 C-9.54494642 1.47007308 -8.08581873 0.9513211 -6.625 0.4375 C-5.81289063 0.14746094 -5.00078125 -0.14257812 -4.1640625 -0.44140625 C-2 -1 -2 -1 0 0 Z " fill="#000000" transform="translate(314,530)"/>
<path d="M0 0 C0 0.66 0 1.32 0 2 C-3.3 3.32 -6.6 4.64 -10 6 C-10 4.68 -10 3.36 -10 2 C-3.375 -1.125 -3.375 -1.125 0 0 Z " fill="#000000" transform="translate(351,515)"/>
<path d="M0 0 C0.66 0.33 1.32 0.66 2 1 C0.52440331 5.42679007 -1.90057368 5.91432696 -6 8 C-6.66 8 -7.32 8 -8 8 C-7.9375 6.25 -7.9375 6.25 -7 4 C-4.74876994 2.27481113 -2.59865097 1.23093993 0 0 Z " fill="#000000" transform="translate(402,486)"/>
<path d="M0 0 C0.66 0.99 1.32 1.98 2 3 C-0.52475462 4.26237731 -2.31200466 4.09856404 -5.125 4.0625 C-6.03507813 4.05347656 -6.94515625 4.04445313 -7.8828125 4.03515625 C-8.58148438 4.02355469 -9.28015625 4.01195312 -10 4 C-10 3.01 -10 2.02 -10 1 C-6.7 0.67 -3.4 0.34 0 0 Z " fill="#000000" transform="translate(171,448)"/>
<path d="M0 0 C2.61885488 2.36944013 4.41866551 4.83733102 6 8 C5.67 8.99 5.34 9.98 5 11 C4.34 11 3.68 11 3 11 C-1.06153846 4.6 -1.06153846 4.6 -0.75 1.5625 C-0.5025 1.046875 -0.255 0.53125 0 0 Z " fill="#000000" transform="translate(96,407)"/>
<path d="M0 0 C0.99 0 1.98 0 3 0 C3.66 3.3 4.32 6.6 5 10 C4.01 10.33 3.02 10.66 2 11 C0.80712589 7.12315913 0 4.08378077 0 0 Z " fill="#000000" transform="translate(82,370)"/>
<path d="M0 0 C0.99 0.33 1.98 0.66 3 1 C2.01 4.3 1.02 7.6 0 11 C-0.99 11 -1.98 11 -3 11 C-2.69217504 9.35328588 -2.37860766 7.70764424 -2.0625 6.0625 C-1.88847656 5.14597656 -1.71445312 4.22945313 -1.53515625 3.28515625 C-1 1 -1 1 0 0 Z " fill="#000000" transform="translate(293,296)"/>
<path d="M0 0 C0.99 0 1.98 0 3 0 C2 7.42857143 2 7.42857143 1 11 C0.01 11 -0.98 11 -2 11 C-1.125 3.375 -1.125 3.375 0 0 Z " fill="#000000" transform="translate(304,256)"/>
<path d="M0 0 C0.99 0.33 1.98 0.66 3 1 C2.34 4.63 1.68 8.26 1 12 C0.01 11.67 -0.98 11.34 -2 11 C-1.34 7.37 -0.68 3.74 0 0 Z " fill="#000000" transform="translate(348,96)"/>
<path d="M0 0 C0 0.99 0 1.98 0 3 C-3.87684087 4.19287411 -6.91621923 5 -11 5 C-11 4.01 -11 3.02 -11 2 C-3.375 0 -3.375 0 0 0 Z " fill="#000000" transform="translate(280,662)"/>
<path d="M0 0 C4.2742558 1.5830577 6.26531794 4.50568404 9 8 C8.01 8.33 7.02 8.66 6 9 C2.8291869 7.0371157 1.25841636 5.87464 0.1875 2.25 C0.125625 1.5075 0.06375 0.765 0 0 Z " fill="#000000" transform="translate(197,634)"/>
<path d="M0 0 C0.99 0 1.98 0 3 0 C1.66511872 3.59391114 0.03977277 6.75490696 -2 10 C-2.99 9.67 -3.98 9.34 -5 9 C-3.35 6.03 -1.7 3.06 0 0 Z " fill="#000000" transform="translate(321,622)"/>
<path d="M0 0 C0.99 0.33 1.98 0.66 3 1 C2.34 4.3 1.68 7.6 1 11 C0.01 11 -0.98 11 -2 11 C-1.85892253 9.54119891 -1.71197585 8.08296449 -1.5625 6.625 C-1.48128906 5.81289063 -1.40007812 5.00078125 -1.31640625 4.1640625 C-1 2 -1 2 0 0 Z " fill="#000000" transform="translate(191,595)"/>
<path d="M0 0 C0.99 0.33 1.98 0.66 3 1 C2.34 3.97 1.68 6.94 1 10 C-0.32 10.33 -1.64 10.66 -3 11 C-2.01 7.37 -1.02 3.74 0 0 Z " fill="#000000" transform="translate(343,565)"/>
<path d="M0 0 C0 0.66 0 1.32 0 2 C-6.5 5 -6.5 5 -11 5 C-11 4.01 -11 3.02 -11 2 C-9.54494642 1.47007308 -8.08581873 0.9513211 -6.625 0.4375 C-5.81289062 0.14746094 -5.00078125 -0.14257812 -4.1640625 -0.44140625 C-2 -1 -2 -1 0 0 Z " fill="#000000" transform="translate(257,549)"/>
<path d="M0 0 C0 0.66 0 1.32 0 2 C-1.45706726 2.50367757 -2.91570096 3.00282556 -4.375 3.5 C-5.59316406 3.91765625 -5.59316406 3.91765625 -6.8359375 4.34375 C-9 5 -9 5 -11 5 C-11 4.01 -11 3.02 -11 2 C-9.54494642 1.47007308 -8.08581873 0.9513211 -6.625 0.4375 C-5.81289063 0.14746094 -5.00078125 -0.14257812 -4.1640625 -0.44140625 C-2 -1 -2 -1 0 0 Z " fill="#000000" transform="translate(276,543)"/>
<path d="M0 0 C0.99 0 1.98 0 3 0 C2.34 3.63 1.68 7.26 1 11 C0.01 11 -0.98 11 -2 11 C-1.85892253 9.54119891 -1.71197585 8.08296449 -1.5625 6.625 C-1.48128906 5.81289063 -1.40007812 5.00078125 -1.31640625 4.1640625 C-1 2 -1 2 0 0 Z " fill="#000000" transform="translate(352,526)"/>
<path d="M0 0 C0 0.99 0 1.98 0 3 C-6.625 6 -6.625 6 -10 6 C-10 5.01 -10 4.02 -10 3 C-3.375 0 -3.375 0 0 0 Z " fill="#000000" transform="translate(332,522)"/>
<path d="M0 0 C-1 3 -1 3 -3.8125 4.75 C-6.96403086 5.98589446 -7.96929372 6.28222189 -11 5 C-7.56138316 1.21752148 -5.17193751 0 0 0 Z " fill="#000000" transform="translate(369,506)"/>
<path d="M0 0 C0.99 0 1.98 0 3 0 C2.67 3.63 2.34 7.26 2 11 C1.01 11 0.02 11 -1 11 C-1.14285714 3.57142857 -1.14285714 3.57142857 0 0 Z " fill="#000000" transform="translate(355,506)"/>
<path d="M0 0 C0.33 0.99 0.66 1.98 1 3 C-5.5 7 -5.5 7 -10 7 C-8.60449526 2.81348579 -4.64858615 0 0 0 Z " fill="#000000" transform="translate(386,496)"/>
<path d="M0 0 C0.66 0.99 1.32 1.98 2 3 C0.90241493 3.84198307 -0.20335317 4.67330671 -1.3125 5.5 C-1.92738281 5.9640625 -2.54226563 6.428125 -3.17578125 6.90625 C-5 8 -5 8 -8 8 C-8 7.01 -8 6.02 -8 5 C-6.25 3.61328125 -6.25 3.61328125 -4 2.3125 C-3.2575 1.87550781 -2.515 1.43851562 -1.75 0.98828125 C-1.1725 0.66214844 -0.595 0.33601563 0 0 Z " fill="#000000" transform="translate(419,475)"/>
<path d="M0 0 C0 0.99 0 1.98 0 3 C-5.445 4.485 -5.445 4.485 -11 6 C-10.67 4.68 -10.34 3.36 -10 2 C-3.375 0 -3.375 0 0 0 Z " fill="#000000" transform="translate(193,444)"/>
<path d="M0 0 C0.99 0 1.98 0 3 0 C3 3.63 3 7.26 3 11 C2.01 11 1.02 11 0 11 C0 7.37 0 3.74 0 0 Z " fill="#000000" transform="translate(361,425)"/>
<path d="M0 0 C0.99 0 1.98 0 3 0 C1.68775452 3.93673644 0.08089673 6.22719294 -3 9 C-3.99 8.67 -4.98 8.34 -6 8 C-5.07456291 6.65826597 -4.13422595 5.32679841 -3.1875 4 C-2.66542969 3.2575 -2.14335937 2.515 -1.60546875 1.75 C-0.81076172 0.88375 -0.81076172 0.88375 0 0 Z " fill="#000000" transform="translate(475,421)"/>
<path d="M0 0 C0.99 0 1.98 0 3 0 C1.6062718 4.43458973 -0.60582235 6.87378374 -4 10 C-5 7 -5 7 -4.109375 5.17578125 C-3.66078125 4.56089844 -3.2121875 3.94601562 -2.75 3.3125 C-2.31171875 2.68988281 -1.8734375 2.06726563 -1.421875 1.42578125 C-0.95265625 0.95527344 -0.4834375 0.48476563 0 0 Z " fill="#000000" transform="translate(487,405)"/>
<path d="M0 0 C0.99 0 1.98 0 3 0 C6.07692308 6.4 6.07692308 6.4 5.6875 9.4375 C5.460625 9.953125 5.23375 10.46875 5 11 C1.19015156 8.22920113 0.93159248 4.37131855 0 0 Z " fill="#000000" transform="translate(87,389)"/>
<path d="M0 0 C0.99 0 1.98 0 3 0 C3 3.63 3 7.26 3 11 C2.01 11 1.02 11 0 11 C0 7.37 0 3.74 0 0 Z " fill="#000000" transform="translate(362,384)"/>
<path d="M0 0 C0.66 0.33 1.32 0.66 2 1 C1.43454163 4.95820859 0.19097652 7.6659053 -2 11 C-2.99 10.67 -3.98 10.34 -5 10 C-3.35 6.7 -1.7 3.4 0 0 Z " fill="#000000" transform="translate(518,353)"/>
<path d="M0 0 C0.66 0 1.32 0 2 0 C2.66 3.63 3.32 7.26 4 11 C2.68 10.67 1.36 10.34 0 10 C-0.19412181 8.52168779 -0.38012131 7.04230684 -0.5625 5.5625 C-0.66691406 4.73878906 -0.77132812 3.91507812 -0.87890625 3.06640625 C-0.91886719 2.38449219 -0.95882812 1.70257813 -1 1 C-0.67 0.67 -0.34 0.34 0 0 Z " fill="#000000" transform="translate(79,350)"/>
<path d="M0 0 C0.99 0 1.98 0 3 0 C3 3.63 3 7.26 3 11 C2.01 11 1.02 11 0 11 C0 7.37 0 3.74 0 0 Z " fill="#000000" transform="translate(361,343)"/>
<path d="M0 0 C0.99 0.33 1.98 0.66 3 1 C2.01 4.3 1.02 7.6 0 11 C-0.99 11 -1.98 11 -3 11 C-2.32829194 7.1936543 -1.27253436 3.64793184 0 0 Z " fill="#000000" transform="translate(281,335)"/>
<path d="M0 0 C0.99 0 1.98 0 3 0 C2.01 3.63 1.02 7.26 0 11 C-0.99 10.67 -1.98 10.34 -3 10 C-2.69201674 8.51988629 -2.378482 7.04092675 -2.0625 5.5625 C-1.88847656 4.73878906 -1.71445312 3.91507812 -1.53515625 3.06640625 C-1 1 -1 1 0 0 Z " fill="#000000" transform="translate(287,316)"/>
<path d="M0 0 C0.99 0 1.98 0 3 0 C3.33 3.63 3.66 7.26 4 11 C3.01 11 2.02 11 1 11 C0.67 7.37 0.34 3.74 0 0 Z " fill="#000000" transform="translate(73,311)"/>
<path d="M0 0 C0.99 0 1.98 0 3 0 C3 3.63 3 7.26 3 11 C2.01 11 1.02 11 0 11 C0 7.37 0 3.74 0 0 Z " fill="#000000" transform="translate(361,302)"/>
<path d="M0 0 C0.99 0 1.98 0 3 0 C3 3.63 3 7.26 3 11 C2.01 11 1.02 11 0 11 C0 7.37 0 3.74 0 0 Z " fill="#000000" transform="translate(72,291)"/>
<path d="M0 0 C0.99 0 1.98 0 3 0 C3 3.96 3 7.92 3 12 C2.34 12 1.68 12 1 12 C0.03929566 9.11788698 -0.10581883 7.30149956 -0.0625 4.3125 C-0.05347656 3.50425781 -0.04445313 2.69601562 -0.03515625 1.86328125 C-0.02355469 1.24839844 -0.01195312 0.63351562 0 0 Z " fill="#000000" transform="translate(360,281)"/>
<path d="M0 0 C0.66 0 1.32 0 2 0 C1.125 7.625 1.125 7.625 0 11 C-0.99 11 -1.98 11 -3 11 C-2.53199289 6.94393835 -2.12046792 3.53411321 0 0 Z " fill="#000000" transform="translate(299,276)"/>
<path d="M0 0 C0.99 0 1.98 0 3 0 C3 3.63 3 7.26 3 11 C2.01 11 1.02 11 0 11 C0 7.37 0 3.74 0 0 Z " fill="#000000" transform="translate(71,271)"/>
<path d="M0 0 C0.99 0 1.98 0 3 0 C3 3.63 3 7.26 3 11 C2.01 11 1.02 11 0 11 C0 7.37 0 3.74 0 0 Z " fill="#000000" transform="translate(360,261)"/>
<path d="M0 0 C0.99 0 1.98 0 3 0 C3 3.63 3 7.26 3 11 C2.01 11 1.02 11 0 11 C0 7.37 0 3.74 0 0 Z " fill="#000000" transform="translate(70,231)"/>
<path d="M0 0 C0.99 0 1.98 0 3 0 C3 3.63 3 7.26 3 11 C2.01 11 1.02 11 0 11 C0 7.37 0 3.74 0 0 Z " fill="#000000" transform="translate(359,220)"/>
<path d="M0 0 C0.99 0 1.98 0 3 0 C3 3.63 3 7.26 3 11 C2.01 11 1.02 11 0 11 C0 7.37 0 3.74 0 0 Z " fill="#000000" transform="translate(71,191)"/>
<path d="M0 0 C0.99 0 1.98 0 3 0 C3 3.63 3 7.26 3 11 C2.01 11 1.02 11 0 11 C0 7.37 0 3.74 0 0 Z " fill="#000000" transform="translate(358,179)"/>
<path d="M0 0 C0.99 0.33 1.98 0.66 3 1 C2.71758359 2.46015291 2.42373386 3.91809793 2.125 5.375 C1.96257812 6.18710938 1.80015625 6.99921875 1.6328125 7.8359375 C1 10 1 10 -1 12 C-1.66 11.34 -2.32 10.68 -3 10 C-2.01 6.7 -1.02 3.4 0 0 Z " fill="#000000" transform="translate(327,176)"/>
<path d="M0 0 C0.99 0 1.98 0 3 0 C3 3.63 3 7.26 3 11 C2.01 11 1.02 11 0 11 C0 7.37 0 3.74 0 0 Z " fill="#000000" transform="translate(72,171)"/>
<path d="M0 0 C0.66 0.33 1.32 0.66 2 1 C1 8.42857143 1 8.42857143 0 12 C-0.99 11.67 -1.98 11.34 -3 11 C-2.69217504 9.35328588 -2.37860766 7.70764424 -2.0625 6.0625 C-1.88847656 5.14597656 -1.71445312 4.22945312 -1.53515625 3.28515625 C-1 1 -1 1 0 0 Z " fill="#000000" transform="translate(333,156)"/>
<path d="M0 0 C0.99 0 1.98 0 3 0 C3 3.63 3 7.26 3 11 C2.01 11 1.02 11 0 11 C0 7.37 0 3.74 0 0 Z " fill="#000000" transform="translate(357,138)"/>
<path d="M0 0 C0.99 0.33 1.98 0.66 3 1 C2.34 4.3 1.68 7.6 1 11 C0.01 11 -0.98 11 -2 11 C-1 3.57142857 -1 3.57142857 0 0 Z " fill="#000000" transform="translate(343,116)"/>
<path d="M0 0 C0.99 0 1.98 0 3 0 C3 3.63 3 7.26 3 11 C2.01 11 1.02 11 0 11 C0 7.37 0 3.74 0 0 Z " fill="#000000" transform="translate(356,97)"/>
<path d="M0 0 C3.63 0.33 7.26 0.66 11 1 C11 1.99 11 2.98 11 4 C9.741875 4.020625 8.48375 4.04125 7.1875 4.0625 C6.47980469 4.07410156 5.77210938 4.08570313 5.04296875 4.09765625 C3 4 3 4 0 3 C0 2.01 0 1.02 0 0 Z " fill="#000000" transform="translate(249,663)"/>
<path d="M0 0 C3.55780196 0.60990891 6.6828589 1.5783681 10 3 C10 3.99 10 4.98 10 6 C6.44219804 5.39009109 3.3171411 4.4216319 0 3 C0 2.01 0 1.02 0 0 Z " fill="#000000" transform="translate(230,657)"/>
<path d="M0 0 C3.45925163 1.2491742 6.14693203 2.67527795 9 5 C8.67 5.99 8.34 6.98 8 8 C5.03 6.35 2.06 4.7 -1 3 C-0.67 2.01 -0.34 1.02 0 0 Z " fill="#000000" transform="translate(213,647)"/>
<path d="M0 0 C0.99 0 1.98 0 3 0 C1.8905928 3.48670834 0.73662334 6.77484237 -1 10 C-1.99 10 -2.98 10 -4 10 C-3.52449439 8.51965236 -3.04448784 7.04074979 -2.5625 5.5625 C-2.29566406 4.73878906 -2.02882813 3.91507813 -1.75390625 3.06640625 C-1 1 -1 1 0 0 Z " fill="#000000" transform="translate(330,604)"/>
<path d="M0 0 C0.99 0 1.98 0 3 0 C2.32829194 3.8063457 1.27253436 7.35206816 0 11 C-0.99 10.67 -1.98 10.34 -3 10 C-2.01 6.7 -1.02 3.4 0 0 Z " fill="#000000" transform="translate(337,585)"/>
<path d="M0 0 C0 0.66 0 1.32 0 2 C-3.3 3.32 -6.6 4.64 -10 6 C-10.33 5.01 -10.66 4.02 -11 3 C-9.73581754 2.30034557 -8.46334598 1.61565237 -7.1875 0.9375 C-6.47980469 0.55464844 -5.77210938 0.17179688 -5.04296875 -0.22265625 C-3 -1 -3 -1 0 0 Z " fill="#000000" transform="translate(238,557)"/>
<path d="M0 0 C0.99 0 1.98 0 3 0 C2.34 3.63 1.68 7.26 1 11 C0.01 10.67 -0.98 10.34 -2 10 C-1.125 2.25 -1.125 2.25 0 0 Z " fill="#000000" transform="translate(348,546)"/>
<path d="M0 0 C-0.17625835 2.37948772 -0.69719773 3.70225849 -2.40234375 5.37890625 C-3.90649092 6.62115486 -5.45129851 7.81376056 -7 9 C-7.66 8.67 -8.32 8.34 -9 8 C-7.47364599 4.11473526 -4.49771687 0 0 0 Z " fill="#000000" transform="translate(436,463)"/>
<path d="M0 0 C4.95 0.99 4.95 0.99 10 2 C10.33 2.99 10.66 3.98 11 5 C9.54119891 4.85892253 8.08296449 4.71197585 6.625 4.5625 C5.40683594 4.44068359 5.40683594 4.44068359 4.1640625 4.31640625 C2 4 2 4 0 3 C0 2.01 0 1.02 0 0 Z " fill="#000000" transform="translate(141,445)"/>
<path d="M0 0 C3.66881155 0.70554068 6.70450534 2.27735506 10 4 C10 4.99 10 5.98 10 7 C5.94718288 5.77472971 2.55639236 4.30119506 -1 2 C-0.67 1.34 -0.34 0.68 0 0 Z " fill="#000000" transform="translate(122,437)"/>
<path d="M0 0 C3.43595166 1.52708963 6.11912454 3.59927045 9 6 C8.67 6.99 8.34 7.98 8 9 C4.63704165 7.55873214 2.37072898 5.79407345 0 3 C0 2.01 0 1.02 0 0 Z " fill="#000000" transform="translate(106,424)"/>
<path d="M0 0 C0.99 0.33 1.98 0.66 3 1 C0.525 5.455 0.525 5.455 -2 10 C-2.99 9.67 -3.98 9.34 -5 9 C-4.3566152 7.686298 -3.71021785 6.37407102 -3.0625 5.0625 C-2.70285156 4.33160156 -2.34320313 3.60070312 -1.97265625 2.84765625 C-1 1 -1 1 0 0 Z " fill="#000000" transform="translate(498,388)"/>
<path d="M0 0 C0.99 0.33 1.98 0.66 3 1 C1.68 3.64 0.36 6.28 -1 9 C-2.32 9 -3.64 9 -5 9 C-3.35 6.03 -1.7 3.06 0 0 Z " fill="#000000" transform="translate(508,371)"/>
<path d="M0 0 C0.99 0.33 1.98 0.66 3 1 C2.34 3.97 1.68 6.94 1 10 C-0.32 10.33 -1.64 10.66 -3 11 C-2.01 7.37 -1.02 3.74 0 0 Z " fill="#000000" transform="translate(310,236)"/>
<path d="M0 0 C0.99 0.33 1.98 0.66 3 1 C2.01 4.3 1.02 7.6 0 11 C-0.99 11 -1.98 11 -3 11 C-2.69078116 9.54096742 -2.37751201 8.08279278 -2.0625 6.625 C-1.88847656 5.81289062 -1.71445312 5.00078125 -1.53515625 4.1640625 C-1 2 -1 2 0 0 Z " fill="#000000" transform="translate(316,216)"/>
<path d="M0 0 C0.66 0.33 1.32 0.66 2 1 C1.34 4.3 0.68 7.6 0 11 C-0.99 11 -1.98 11 -3 11 C-2.69217504 9.35328588 -2.37860766 7.70764424 -2.0625 6.0625 C-1.88847656 5.14597656 -1.71445312 4.22945312 -1.53515625 3.28515625 C-1 1 -1 1 0 0 Z " fill="#000000" transform="translate(322,196)"/>
<path d="M0 0 C0.66 0 1.32 0 2 0 C2 3.63 2 7.26 2 11 C1.01 11 0.02 11 -1 11 C-1.02688151 9.35425434 -1.04634123 7.70838587 -1.0625 6.0625 C-1.07410156 5.14597656 -1.08570312 4.22945312 -1.09765625 3.28515625 C-1 1 -1 1 0 0 Z " fill="#000000" transform="translate(74,151)"/>
<path d="M0 0 C0.99 0.33 1.98 0.66 3 1 C2.01 4.63 1.02 8.26 0 12 C-0.99 11.34 -1.98 10.68 -3 10 C-2.01 6.7 -1.02 3.4 0 0 Z " fill="#000000" transform="translate(338,136)"/>
<path d="M0 0 C0.66 0.33 1.32 0.66 2 1 C1.82374165 3.37948772 1.30280227 4.70225849 -0.40234375 6.37890625 C-1.90649092 7.62115486 -3.45129851 8.81376056 -5 10 C-5 4.69520066 -3.4637943 3.81017373 0 0 Z " fill="#000000" transform="translate(310,638)"/>
<path d="M0 0 C0.66 0 1.32 0 2 0 C2.0270043 1.45823212 2.04639787 2.91660675 2.0625 4.375 C2.07410156 5.18710937 2.08570313 5.99921875 2.09765625 6.8359375 C2 9 2 9 1 11 C0.01 10.67 -0.98 10.34 -2 10 C-1.85950482 8.52031676 -1.71245174 7.04125484 -1.5625 5.5625 C-1.48128906 4.73878906 -1.40007812 3.91507812 -1.31640625 3.06640625 C-1 1 -1 1 0 0 Z " fill="#000000" transform="translate(358,486)"/>
<path d="M0 0 C0.66 0 1.32 0 2 0 C2 3.3 2 6.6 2 10 C1.01 10.33 0.02 10.66 -1 11 C-1.02688151 9.35425434 -1.04634123 7.70838587 -1.0625 6.0625 C-1.07410156 5.14597656 -1.08570313 4.22945313 -1.09765625 3.28515625 C-1 1 -1 1 0 0 Z " fill="#000000" transform="translate(360,466)"/>
<path d="M0 0 C-1.5830577 4.2742558 -4.50568404 6.26531794 -8 9 C-8 5 -8 5 -5.6875 2.25 C-3 0 -3 0 0 0 Z " fill="#000000" transform="translate(451,450)"/>
<path d="M0 0 C0.99 0 1.98 0 3 0 C4.1577506 3.47325181 4.06866652 6.36067448 4 10 C3.01 10 2.02 10 1 10 C0.67 6.7 0.34 3.4 0 0 Z " fill="#000000" transform="translate(75,331)"/>
<path d="M0 0 C0.99 0.66 1.98 1.32 3 2 C1.35 4.97 -0.3 7.94 -2 11 C-2.66 11 -3.32 11 -4 11 C-3.39301257 6.87248551 -1.96189209 3.6678852 0 0 Z " fill="#000000" transform="translate(273,354)"/>
<path d="M0 0 C0.99 0 1.98 0 3 0 C3.125 7.625 3.125 7.625 2 11 C1.34 11 0.68 11 0 11 C0 7.37 0 3.74 0 0 Z " fill="#000000" transform="translate(71,211)"/>
<path d="M0 0 C0.66 0 1.32 0 2 0 C2.33 3.63 2.66 7.26 3 11 C2.01 11.33 1.02 11.66 0 12 C-0.19401633 10.18818595 -0.38004375 8.37551468 -0.5625 6.5625 C-0.66691406 5.55316406 -0.77132813 4.54382813 -0.87890625 3.50390625 C-0.91886719 2.67761719 -0.95882813 1.85132813 -1 1 C-0.67 0.67 -0.34 0.34 0 0 Z " fill="#000000" transform="translate(359,199)"/>
<path d="M0 0 C0.66 0 1.32 0 2 0 C2.33 3.63 2.66 7.26 3 11 C2.01 11.33 1.02 11.66 0 12 C-0.19401633 10.18818595 -0.38004375 8.37551468 -0.5625 6.5625 C-0.66691406 5.55316406 -0.77132813 4.54382813 -0.87890625 3.50390625 C-0.91886719 2.67761719 -0.95882813 1.85132813 -1 1 C-0.67 0.67 -0.34 0.34 0 0 Z " fill="#000000" transform="translate(358,158)"/>
<path d="M0 0 C0.99 0.33 1.98 0.66 3 1 C2.67 4.3 2.34 7.6 2 11 C1.01 11 0.02 11 -1 11 C-0.67 7.37 -0.34 3.74 0 0 Z " fill="#000000" transform="translate(361,445)"/>
<path d="M0 0 C0.66 0 1.32 0 2 0 C2.33 3.63 2.66 7.26 3 11 C2.01 11.33 1.02 11.66 0 12 C-0.19401633 10.18818595 -0.38004375 8.37551468 -0.5625 6.5625 C-0.66691406 5.55316406 -0.77132813 4.54382813 -0.87890625 3.50390625 C-0.91886719 2.67761719 -0.95882813 1.85132813 -1 1 C-0.67 0.67 -0.34 0.34 0 0 Z " fill="#000000" transform="translate(360,240)"/>
<path d="M0 0 C0.99 0 1.98 0 3 0 C2.67 3.3 2.34 6.6 2 10 C1.01 10 0.02 10 -1 10 C-0.67 6.7 -0.34 3.4 0 0 Z " fill="#000000" transform="translate(75,132)"/>
<path d="M0 0 C0.66 0 1.32 0 2 0 C2.33 3.63 2.66 7.26 3 11 C2.01 11.33 1.02 11.66 0 12 C-0.19401633 10.18818595 -0.38004375 8.37551468 -0.5625 6.5625 C-0.66691406 5.55316406 -0.77132813 4.54382813 -0.87890625 3.50390625 C-0.91886719 2.67761719 -0.95882813 1.85132812 -1 1 C-0.67 0.67 -0.34 0.34 0 0 Z " fill="#000000" transform="translate(357,117)"/>
<path d="M0 0 C0.99 0.33 1.98 0.66 3 1 C2.67 4.63 2.34 8.26 2 12 C1.34 12 0.68 12 0 12 C0 8.04 0 4.08 0 0 Z " fill="#000000" transform="translate(362,404)"/>
<path d="M0 0 C0.66 0 1.32 0 2 0 C2.33 3.63 2.66 7.26 3 11 C2.01 11.33 1.02 11.66 0 12 C0 8.04 0 4.08 0 0 Z " fill="#000000" transform="translate(362,363)"/>
<path d="M0 0 C0.99 0 1.98 0 3 0 C3.33 3.63 3.66 7.26 4 11 C3.01 11 2.02 11 1 11 C0.67 7.37 0.34 3.74 0 0 Z " fill="#000000" transform="translate(70,251)"/>
<path d="M0 0 C0.99 0 1.98 0 3 0 C3 1.98 3 3.96 3 6 C2.01 6 1.02 6 0 6 C0 4.02 0 2.04 0 0 Z " fill="#000000" transform="translate(355,61)"/>
<path d="M0 0 C0.66 0.33 1.32 0.66 2 1 C1.34 2.65 0.68 4.3 0 6 C-0.66 6 -1.32 6 -2 6 C-1.125 1.125 -1.125 1.125 0 0 Z " fill="#000000" transform="translate(525,340)"/>
<path d="M0 0 C0.99 0.33 1.98 0.66 3 1 C2.67 1.99 2.34 2.98 2 4 C1.01 3.01 0.02 2.02 -1 1 C-0.67 0.67 -0.34 0.34 0 0 Z " fill="#000000" transform="translate(178,744)"/>
<path d="M0 0 C0.99 0.33 1.98 0.66 3 1 C2.67 1.99 2.34 2.98 2 4 C1.01 3.01 0.02 2.02 -1 1 C-0.67 0.67 -0.34 0.34 0 0 Z " fill="#000000" transform="translate(10,481)"/>
<path d="M0 0 C0.99 0.33 1.98 0.66 3 1 C2.67 1.99 2.34 2.98 2 4 C1.01 3.01 0.02 2.02 -1 1 C-0.67 0.67 -0.34 0.34 0 0 Z " fill="#000000" transform="translate(445,354)"/>
<path d="M0 0 C0.99 0.33 1.98 0.66 3 1 C2.67 1.99 2.34 2.98 2 4 C1.01 3.01 0.02 2.02 -1 1 C-0.67 0.67 -0.34 0.34 0 0 Z " fill="#000000" transform="translate(452,198)"/>
</svg>
