<svg width="884" height="603" viewBox="0 0 884 603" fill="none" xmlns="http://www.w3.org/2000/svg">
<path d="M133.619 583.455V598H131.858V585.301H131.773L128.222 587.659V585.869L131.858 583.455H133.619ZM138.193 598.114C137.843 598.114 137.542 597.988 137.291 597.737C137.04 597.486 136.915 597.186 136.915 596.835C136.915 596.485 137.04 596.184 137.291 595.933C137.542 595.682 137.843 595.557 138.193 595.557C138.544 595.557 138.844 595.682 139.095 595.933C139.346 596.184 139.472 596.485 139.472 596.835C139.472 597.067 139.412 597.28 139.294 597.474C139.18 597.669 139.027 597.825 138.832 597.943C138.643 598.057 138.43 598.114 138.193 598.114ZM145.826 583.455V598H144.065V585.301H143.98L140.429 587.659V585.869L144.065 583.455H145.826Z" fill="black"/>
<path d="M155.588 86.3073C117.831 62.8295 34.4918 36.6333 3.18807 119.67C1.9524 183.651 6.23606 330.311 33.2561 405.11C67.0311 498.61 77.7404 527.442 149.821 544.329C221.902 561.217 292.158 556.686 329.229 480.898C358.885 420.268 366.299 352.389 366.299 326.028C365.338 372.297 348.929 476.779 407.253 524.559C480.157 584.283 548.943 555.451 579.835 524.559C610.727 493.667 643.266 440.945 656.447 396.461C679.65 417.193 741.79 454.867 804.727 405.11C818.045 397.559 849.129 369.523 866.923 317.79C884.716 266.056 881.339 267.539 880.103 260.949C875.252 235.077 845.092 196.282 821.615 236.235C808.022 268.363 798.631 353.624 741.296 366.805C728.665 370.1 717.282 367.958 698.5 333.03C708.797 288.545 728.074 188.703 722.802 145.208C716.211 90.8381 604.929 5.16484 548.5 145.208C535.886 176.511 534.167 243.979 577.662 326.028C566.816 372.159 548.385 469.212 518.729 459.327C505.96 455.894 491.278 444.075 479.746 337.972C468.213 231.869 464.231 145.757 463.682 115.963C438.831 89.6024 373.89 52.697 312.93 115.963C307.026 190.104 287.969 318.318 258.972 380.926C249.361 414.975 225.444 472.86 206.662 432C187.88 391.14 173.574 344.7 168.768 308.728C161.491 247.356 148.668 116.952 155.588 86.3073ZM638.735 277.5C648.621 254.846 666.425 171.521 664.448 159C661.977 143.348 615.669 132.919 611.139 160.928C607.514 183.335 628.163 258.965 638.735 277.5Z" stroke="black" stroke-width="5"/>
<path d="M518.619 335.455V350H516.858V337.301H516.773L513.222 339.659V337.869L516.858 335.455H518.619ZM523.193 350.114C522.843 350.114 522.542 349.988 522.291 349.737C522.04 349.486 521.915 349.186 521.915 348.835C521.915 348.485 522.04 348.184 522.291 347.933C522.542 347.682 522.843 347.557 523.193 347.557C523.544 347.557 523.844 347.682 524.095 347.933C524.346 348.184 524.472 348.485 524.472 348.835C524.472 349.067 524.412 349.28 524.294 349.474C524.18 349.669 524.027 349.825 523.832 349.943C523.643 350.057 523.43 350.114 523.193 350.114ZM527.451 350V348.722L532.252 343.466C532.816 342.85 533.28 342.315 533.644 341.861C534.009 341.402 534.279 340.971 534.454 340.568C534.634 340.161 534.724 339.735 534.724 339.29C534.724 338.778 534.601 338.336 534.354 337.962C534.113 337.588 533.781 337.299 533.36 337.095C532.939 336.892 532.465 336.79 531.94 336.79C531.381 336.79 530.893 336.906 530.477 337.138C530.065 337.365 529.745 337.685 529.518 338.097C529.295 338.509 529.184 338.991 529.184 339.545H527.508C527.508 338.693 527.704 337.945 528.097 337.301C528.49 336.657 529.025 336.155 529.702 335.795C530.384 335.436 531.149 335.256 531.996 335.256C532.849 335.256 533.604 335.436 534.262 335.795C534.92 336.155 535.436 336.641 535.81 337.251C536.184 337.862 536.371 338.542 536.371 339.29C536.371 339.825 536.274 340.348 536.08 340.859C535.891 341.366 535.559 341.932 535.086 342.557C534.617 343.177 533.966 343.935 533.133 344.83L529.866 348.324V348.438H536.627V350H527.451Z" fill="black"/>
<path d="M627.619 4.45455V19H625.858V6.30114H625.773L622.222 8.65909V6.86932L625.858 4.45455H627.619ZM632.193 19.1136C631.843 19.1136 631.542 18.9882 631.291 18.7372C631.04 18.4863 630.915 18.1856 630.915 17.8352C630.915 17.4848 631.04 17.1842 631.291 16.9332C631.542 16.6823 631.843 16.5568 632.193 16.5568C632.544 16.5568 632.844 16.6823 633.095 16.9332C633.346 17.1842 633.472 17.4848 633.472 17.8352C633.472 18.0672 633.412 18.2803 633.294 18.4744C633.18 18.6686 633.027 18.8248 632.832 18.9432C632.643 19.0568 632.43 19.1136 632.193 19.1136ZM640.819 19.1989C639.881 19.1989 639.046 19.0379 638.312 18.7159C637.583 18.3939 637.003 17.9465 636.572 17.3736C636.146 16.7959 635.914 16.1259 635.876 15.3636H637.665C637.703 15.8324 637.864 16.2372 638.148 16.5781C638.433 16.9143 638.804 17.1747 639.263 17.3594C639.723 17.544 640.232 17.6364 640.79 17.6364C641.415 17.6364 641.969 17.5275 642.452 17.3097C642.935 17.0919 643.314 16.7888 643.589 16.4006C643.863 16.0123 644.001 15.5625 644.001 15.0511C644.001 14.5161 643.868 14.045 643.603 13.6378C643.338 13.2259 642.95 12.9039 642.438 12.6719C641.927 12.4399 641.302 12.3239 640.563 12.3239H639.398V10.7614H640.563C641.141 10.7614 641.647 10.6572 642.083 10.4489C642.523 10.2405 642.867 9.94697 643.113 9.56818C643.364 9.18939 643.489 8.74432 643.489 8.23295C643.489 7.74053 643.38 7.31203 643.163 6.94744C642.945 6.58286 642.637 6.29877 642.239 6.09517C641.846 5.89157 641.382 5.78977 640.847 5.78977C640.345 5.78977 639.872 5.8821 639.427 6.06676C638.987 6.24669 638.627 6.50947 638.347 6.85511C638.068 7.19602 637.916 7.60795 637.893 8.09091H636.188C636.217 7.3286 636.446 6.66098 636.877 6.08807C637.308 5.51042 637.871 5.06061 638.567 4.73864C639.268 4.41667 640.038 4.25568 640.876 4.25568C641.775 4.25568 642.547 4.43797 643.191 4.80256C643.835 5.1624 644.33 5.63826 644.675 6.23011C645.021 6.82197 645.194 7.46117 645.194 8.14773C645.194 8.96686 644.978 9.66525 644.548 10.2429C644.121 10.8205 643.541 11.2206 642.808 11.4432V11.5568C643.726 11.7083 644.443 12.099 644.96 12.7287C645.476 13.3537 645.734 14.1278 645.734 15.0511C645.734 15.8419 645.518 16.5521 645.087 17.1818C644.661 17.8068 644.079 18.2992 643.34 18.6591C642.602 19.0189 641.761 19.1989 640.819 19.1989Z" fill="black"/>
<path d="M737.619 287.455V302H735.858V289.301H735.773L732.222 291.659V289.869L735.858 287.455H737.619ZM742.193 302.114C741.843 302.114 741.542 301.988 741.291 301.737C741.04 301.486 740.915 301.186 740.915 300.835C740.915 300.485 741.04 300.184 741.291 299.933C741.542 299.682 741.843 299.557 742.193 299.557C742.544 299.557 742.844 299.682 743.095 299.933C743.346 300.184 743.472 300.485 743.472 300.835C743.472 301.067 743.412 301.28 743.294 301.474C743.18 301.669 743.027 301.825 742.832 301.943C742.643 302.057 742.43 302.114 742.193 302.114ZM746.11 299.017V297.568L752.502 287.455H753.553V289.699H752.843L748.013 297.341V297.455H756.621V299.017H746.11ZM752.957 302V298.577V297.902V287.455H754.633V302H752.957Z" fill="black"/>
<path d="M787.852 266.477C787.563 266.006 786.947 265.859 786.477 266.148L778.807 270.857C778.336 271.146 778.189 271.762 778.478 272.232C778.767 272.703 779.383 272.85 779.853 272.561L786.671 268.375L790.857 275.193C791.146 275.664 791.762 275.811 792.232 275.522C792.703 275.233 792.85 274.617 792.561 274.147L787.852 266.477ZM718.37 331.174C725.977 337.346 738.676 341.518 751.908 333.842C765.052 326.216 778.453 307.032 787.973 267.233L786.027 266.767C776.546 306.408 763.322 324.907 750.904 332.112C738.573 339.266 726.773 335.416 719.63 329.621L718.37 331.174Z" fill="black"/>
<path d="M66 131.316C74.0051 227.36 117.533 394.816 140.047 443.613C162.562 492.41 249.317 529.495 286.141 425.024L386.205 135.035C396.879 214.658 416.083 412.887 439.739 457.5C472.76 519.774 532.799 519.31 597.34 419.858C627.526 369.977 679.393 243.316 685.897 194.52C691.983 148.86 651.375 46.2203 591.336 135.035C583.331 163.848 582.431 232.07 614.851 291.183C641.368 332.079 698.905 387.383 744.434 376.229C780.958 367.28 805.974 356.71 839.996 273.988L847 246.105" stroke="black" stroke-width="2" stroke-dasharray="10 10"/>
<path d="M297.426 555.964C297.683 555.177 297.252 554.33 296.464 554.074L283.627 549.895C282.84 549.638 281.993 550.069 281.737 550.857C281.48 551.645 281.911 552.491 282.699 552.747L294.109 556.462L290.395 567.873C290.138 568.66 290.569 569.507 291.357 569.763C292.145 570.02 292.991 569.589 293.247 568.801L297.426 555.964ZM38.2017 493.251C52.7554 518.405 83.114 551.705 126.985 570.022C170.924 588.367 228.3 591.63 296.68 556.837L295.32 554.163C227.7 588.57 171.243 585.249 128.14 567.253C84.9693 549.228 55.0779 516.429 40.7983 491.749L38.2017 493.251Z" fill="black"/>
<path d="M556.383 349.418C556.061 348.655 555.182 348.296 554.418 348.617L541.975 353.853C541.211 354.174 540.853 355.054 541.174 355.817C541.495 356.581 542.375 356.94 543.138 356.618L554.199 351.964L558.853 363.025C559.174 363.789 560.054 364.147 560.817 363.826C561.581 363.505 561.94 362.625 561.618 361.862L556.383 349.418ZM493.527 350.286C495.687 361.417 497.883 373.572 500.619 383.854C501.988 389 503.505 393.727 505.241 397.657C506.966 401.561 508.966 404.817 511.371 406.887C513.854 409.023 516.79 409.901 520.095 408.918C523.264 407.976 526.573 405.381 530.111 401.114C537.204 392.559 545.783 376.581 556.389 350.566L553.611 349.434C543.017 375.419 534.579 391.024 527.802 399.199C524.404 403.296 521.564 405.352 519.241 406.043C517.054 406.693 515.155 406.185 513.329 404.613C511.425 402.975 509.644 400.2 507.985 396.445C506.338 392.716 504.868 388.156 503.518 383.083C500.817 372.928 498.646 360.916 496.473 349.714L493.527 350.286Z" fill="black"/>
<path d="M543.5 96.9957C543.497 97.8242 544.167 98.4978 544.995 98.5004L558.495 98.5419C559.324 98.5444 559.997 97.8749 560 97.0465C560.002 96.2181 559.333 95.5444 558.505 95.5419L546.505 95.505L546.542 83.505C546.544 82.6766 545.875 82.003 545.046 82.0004C544.218 81.9979 543.544 82.6674 543.542 83.4958L543.5 96.9957ZM732.866 112.881C718.626 81.4521 692.026 56.6824 658.54 50.0911C625.004 43.49 584.94 55.19 543.943 95.9364L546.057 98.0643C586.56 57.8104 625.662 46.6772 657.96 53.0346C690.307 59.4016 716.207 83.3822 730.134 114.12L732.866 112.881Z" fill="black"/>
<circle cx="69.5" cy="144.5" r="30.5" fill="black"/>
</svg>
