<svg width="623" height="586" viewBox="0 0 623 586" fill="none" xmlns="http://www.w3.org/2000/svg">
<path d="M332.603 213.637C315.496 247.852 253.303 292.491 224.345 310.534C225.905 280.24 236.909 208.692 268.45 164.854C299.992 121.016 333.272 115.848 345.968 118.744C375.372 137.99 349.31 190.025 332.603 213.637Z" stroke="black" stroke-width="5"/>
<path d="M18.5223 438.84L120.766 376.692C120.766 374.687 116.088 337.933 122.102 305.189C128.116 272.444 140.145 238.363 148.164 215.642C154.579 197.465 174.894 165.746 184.25 152.158C199.754 124.893 237.933 93.1281 255.085 80.6539C305.338 45.3699 361.116 39.6675 382.723 41.2267C456.231 45.2363 463.582 118.745 458.236 147.48C452.89 176.215 438.188 198.267 414.131 233.685C394.885 262.019 347.75 302.516 326.589 319.222C305.739 337.399 255.531 368.673 233.033 382.038C244.26 439.776 284.489 455.101 303.2 455.547C388.737 459.289 463.136 385.38 489.644 347.957C514.236 315.881 527.957 274.449 531.744 257.742L543.773 210.964C553.797 191.585 559.143 176.883 594.56 179.556C622.895 181.694 622.405 214.305 618.618 230.344C614.875 257.074 594.783 305.634 585.205 326.573C571.84 363.995 530.185 413.892 511.028 434.162C498.777 445.968 466.656 473.723 436.183 490.296C405.711 506.869 370.026 521.259 355.992 526.382C313.758 541.351 270.233 541.975 253.749 540.415C221.672 536.673 196.724 523.709 188.26 517.695C169.014 505.933 154.847 484.727 150.169 475.594L134.799 440.845L47.2571 493.637C38.5698 497.424 18.3886 500.053 7.16187 480.272C-4.06486 460.492 10.0577 444.409 18.5223 438.84Z" stroke="black" stroke-width="5"/>
<path d="M38 454.053C130.167 400.95 326.5 280.263 374.5 222.332C443.5 180.383 466.5 -1.86133 285.5 94.9854C252.833 112.464 167.7 195.865 164.5 311.725C167.833 379.477 192 499.998 293 499.998C381.867 499.998 534.2 435.675 585 202.356" stroke="black" stroke-width="2" stroke-dasharray="10 10"/>
<path d="M108.619 494.455V509H106.858V496.301H106.773L103.222 498.659V496.869L106.858 494.455H108.619ZM113.193 509.114C112.843 509.114 112.542 508.988 112.291 508.737C112.04 508.486 111.915 508.186 111.915 507.835C111.915 507.485 112.04 507.184 112.291 506.933C112.542 506.682 112.843 506.557 113.193 506.557C113.544 506.557 113.844 506.682 114.095 506.933C114.346 507.184 114.472 507.485 114.472 507.835C114.472 508.067 114.412 508.28 114.294 508.474C114.18 508.669 114.027 508.825 113.832 508.943C113.643 509.057 113.43 509.114 113.193 509.114ZM120.826 494.455V509H119.065V496.301H118.98L115.429 498.659V496.869L119.065 494.455H120.826Z" fill="black"/>
<path d="M453.619 4.45455V19H451.858V6.30114H451.773L448.222 8.65909V6.86932L451.858 4.45455H453.619ZM458.193 19.1136C457.843 19.1136 457.542 18.9882 457.291 18.7372C457.04 18.4863 456.915 18.1856 456.915 17.8352C456.915 17.4848 457.04 17.1842 457.291 16.9332C457.542 16.6823 457.843 16.5568 458.193 16.5568C458.544 16.5568 458.844 16.6823 459.095 16.9332C459.346 17.1842 459.472 17.4848 459.472 17.8352C459.472 18.0672 459.412 18.2803 459.294 18.4744C459.18 18.6686 459.027 18.8248 458.832 18.9432C458.643 19.0568 458.43 19.1136 458.193 19.1136ZM462.451 19V17.7216L467.252 12.4659C467.816 11.8504 468.28 11.3153 468.644 10.8608C469.009 10.4015 469.279 9.97064 469.454 9.56818C469.634 9.16098 469.724 8.73485 469.724 8.28977C469.724 7.77841 469.601 7.3357 469.354 6.96165C469.113 6.58759 468.781 6.29877 468.36 6.09517C467.939 5.89157 467.465 5.78977 466.94 5.78977C466.381 5.78977 465.893 5.90578 465.477 6.13778C465.065 6.36506 464.745 6.68466 464.518 7.09659C464.295 7.50852 464.184 7.99148 464.184 8.54545H462.508C462.508 7.69318 462.704 6.94508 463.097 6.30114C463.49 5.6572 464.025 5.1553 464.702 4.79545C465.384 4.43561 466.149 4.25568 466.996 4.25568C467.849 4.25568 468.604 4.43561 469.262 4.79545C469.92 5.1553 470.436 5.64062 470.81 6.25142C471.184 6.86222 471.371 7.54167 471.371 8.28977C471.371 8.82481 471.274 9.34801 471.08 9.85938C470.891 10.366 470.559 10.9318 470.086 11.5568C469.617 12.1771 468.966 12.9347 468.133 13.8295L464.866 17.3239V17.4375H471.627V19H462.451Z" fill="black"/>
<path d="M377.619 566.455V581H375.858V568.301H375.773L372.222 570.659V568.869L375.858 566.455H377.619ZM382.193 581.114C381.843 581.114 381.542 580.988 381.291 580.737C381.04 580.486 380.915 580.186 380.915 579.835C380.915 579.485 381.04 579.184 381.291 578.933C381.542 578.682 381.843 578.557 382.193 578.557C382.544 578.557 382.844 578.682 383.095 578.933C383.346 579.184 383.472 579.485 383.472 579.835C383.472 580.067 383.412 580.28 383.294 580.474C383.18 580.669 383.027 580.825 382.832 580.943C382.643 581.057 382.43 581.114 382.193 581.114ZM390.819 581.199C389.881 581.199 389.046 581.038 388.312 580.716C387.583 580.394 387.003 579.946 386.572 579.374C386.146 578.796 385.914 578.126 385.876 577.364H387.665C387.703 577.832 387.864 578.237 388.148 578.578C388.433 578.914 388.804 579.175 389.263 579.359C389.723 579.544 390.232 579.636 390.79 579.636C391.415 579.636 391.969 579.527 392.452 579.31C392.935 579.092 393.314 578.789 393.589 578.401C393.863 578.012 394.001 577.562 394.001 577.051C394.001 576.516 393.868 576.045 393.603 575.638C393.338 575.226 392.95 574.904 392.438 574.672C391.927 574.44 391.302 574.324 390.563 574.324H389.398V572.761H390.563C391.141 572.761 391.647 572.657 392.083 572.449C392.523 572.241 392.867 571.947 393.113 571.568C393.364 571.189 393.489 570.744 393.489 570.233C393.489 569.741 393.38 569.312 393.163 568.947C392.945 568.583 392.637 568.299 392.239 568.095C391.846 567.892 391.382 567.79 390.847 567.79C390.345 567.79 389.872 567.882 389.427 568.067C388.987 568.247 388.627 568.509 388.347 568.855C388.068 569.196 387.916 569.608 387.893 570.091H386.188C386.217 569.329 386.446 568.661 386.877 568.088C387.308 567.51 387.871 567.061 388.567 566.739C389.268 566.417 390.038 566.256 390.876 566.256C391.775 566.256 392.547 566.438 393.191 566.803C393.835 567.162 394.33 567.638 394.675 568.23C395.021 568.822 395.194 569.461 395.194 570.148C395.194 570.967 394.978 571.665 394.548 572.243C394.121 572.821 393.541 573.221 392.808 573.443V573.557C393.726 573.708 394.443 574.099 394.96 574.729C395.476 575.354 395.734 576.128 395.734 577.051C395.734 577.842 395.518 578.552 395.087 579.182C394.661 579.807 394.079 580.299 393.34 580.659C392.602 581.019 391.761 581.199 390.819 581.199Z" fill="black"/>
<path d="M129.964 475.268C130.111 474.736 129.8 474.184 129.268 474.036L120.596 471.628C120.064 471.48 119.513 471.791 119.365 472.324C119.217 472.856 119.529 473.407 120.061 473.555L127.769 475.696L125.628 483.404C125.48 483.936 125.791 484.487 126.324 484.635C126.856 484.783 127.407 484.471 127.555 483.939L129.964 475.268ZM83.4921 501.871L129.492 475.871L128.508 474.129L82.5079 500.129L83.4921 501.871Z" fill="black"/>
<path d="M269.114 43.9265C268.797 44.692 269.161 45.5693 269.927 45.886L282.401 51.0473C283.166 51.364 284.044 51.0002 284.36 50.2347C284.677 49.4692 284.313 48.5919 283.548 48.2752L272.46 43.6874L277.047 32.599C277.364 31.8335 277 30.9562 276.235 30.6395C275.469 30.3228 274.592 30.6866 274.275 31.4521L269.114 43.9265ZM478.469 160.304C482.288 141.837 483.895 120.051 480.968 99.0523C478.042 78.0575 470.568 57.7474 456.131 42.3731C427.133 11.4936 370.868 1.25521 269.925 43.1144L271.075 45.8856C371.732 4.14473 426.3 14.9896 453.944 44.4268C467.827 59.2109 475.126 78.8675 477.997 99.4664C480.867 120.061 479.295 141.496 475.531 159.696L478.469 160.304Z" fill="black"/>
<path d="M529.499 459.046C529.524 458.218 528.874 457.526 528.046 457.501L514.552 457.091C513.724 457.065 513.032 457.716 513.007 458.544C512.982 459.372 513.633 460.064 514.461 460.089L526.455 460.454L526.091 472.448C526.065 473.276 526.716 473.968 527.544 473.993C528.372 474.018 529.064 473.367 529.089 472.539L529.499 459.046ZM197.827 551.841C248.919 577.471 386.193 594.502 529.028 460.092L526.972 457.908C385.007 591.498 249.081 574.196 199.173 549.159L197.827 551.841Z" fill="black"/>
<circle cx="46.5" cy="455.5" r="23.5" fill="black"/>
</svg>
