<svg width="597" height="686" viewBox="0 0 597 686" fill="none" xmlns="http://www.w3.org/2000/svg">
<path d="M413.188 37.8178L320.441 290.487C119.598 246.544 54.4623 441.844 47 544.987C67.4681 733.94 220.766 679.866 294.856 629.21C369.053 768.361 521.925 606.629 589.086 508.369C613.391 395.583 541.646 389.358 502.736 400.343L424.381 490.059L571.496 107.393C549.748 -39.0814 456.896 -0.0214896 413.188 37.8178Z" stroke="black" stroke-width="5"/>
<path d="M297.262 409.104C253.408 415.813 167.423 455.971 174.308 562.929C200.129 569.638 260.867 548.265 297.262 409.104Z" stroke="black" stroke-width="5"/>
<path d="M540.5 464.5C463.425 570.478 330.194 725.65 335.309 566.5M496.5 61.5L402.082 348M402.082 348L336.5 547C335.897 553.966 335.503 560.459 335.309 566.5M402.082 348C316.721 325.167 131 314.5 103.5 500C103.5 619 125 689.5 335.309 566.5" stroke="black" stroke-width="2" stroke-dasharray="10 10"/>
<path d="M6.61932 491.455V506H4.85795V493.301H4.77273L1.22159 495.659V493.869L4.85795 491.455H6.61932Z" fill="black"/>
<path d="M562.506 289V287.722L567.307 282.466C567.87 281.85 568.334 281.315 568.699 280.861C569.063 280.402 569.333 279.971 569.509 279.568C569.688 279.161 569.778 278.735 569.778 278.29C569.778 277.778 569.655 277.336 569.409 276.962C569.168 276.588 568.836 276.299 568.415 276.095C567.993 275.892 567.52 275.79 566.994 275.79C566.436 275.79 565.948 275.906 565.531 276.138C565.119 276.365 564.8 276.685 564.572 277.097C564.35 277.509 564.239 277.991 564.239 278.545H562.562C562.562 277.693 562.759 276.945 563.152 276.301C563.545 275.657 564.08 275.155 564.757 274.795C565.439 274.436 566.204 274.256 567.051 274.256C567.903 274.256 568.659 274.436 569.317 274.795C569.975 275.155 570.491 275.641 570.865 276.251C571.239 276.862 571.426 277.542 571.426 278.29C571.426 278.825 571.329 279.348 571.135 279.859C570.946 280.366 570.614 280.932 570.141 281.557C569.672 282.177 569.021 282.935 568.188 283.83L564.92 287.324V287.438H571.682V289H562.506Z" fill="black"/>
<path d="M491 373L490.034 372.741L489.69 374.021L491.016 374L491 373ZM537.461 339.222C537.307 338.691 536.752 338.386 536.222 338.54L527.577 341.044C527.047 341.198 526.741 341.752 526.895 342.283C527.049 342.813 527.603 343.119 528.134 342.965L535.818 340.739L538.044 348.423C538.198 348.953 538.752 349.259 539.283 349.105C539.813 348.951 540.119 348.397 539.965 347.866L537.461 339.222ZM565.089 185.588C531.592 259.582 497.258 345.851 490.034 372.741L491.966 373.259C499.142 346.549 533.408 260.418 566.911 186.412L565.089 185.588ZM491.016 374C501.599 373.832 509.414 372.344 516.505 367.289C523.551 362.267 529.765 353.802 537.376 339.982L535.624 339.018C528.035 352.798 521.999 360.916 515.345 365.661C508.736 370.372 501.401 371.835 490.984 372L491.016 374Z" fill="black"/>
<path d="M68.1884 672.988C69.0103 672.884 69.5921 672.133 69.488 671.311L67.791 657.919C67.6869 657.097 66.9362 656.515 66.1143 656.619C65.2925 656.723 64.7107 657.474 64.8148 658.296L66.3232 670.2L54.4184 671.709C53.5965 671.813 53.0147 672.564 53.1188 673.385C53.223 674.207 53.9736 674.789 54.7955 674.685L68.1884 672.988ZM150.874 289.137C129.007 299.18 105.624 322.595 84.6768 353.249C63.7001 383.945 45.0481 422.072 32.7173 461.768C20.389 501.455 14.3534 542.795 18.6944 579.898C23.0376 617.02 37.7841 649.978 67.0809 672.686L68.9188 670.314C40.4156 648.222 25.9496 616.093 21.674 579.549C17.3962 542.986 23.3355 502.082 35.5822 462.657C47.8263 423.241 66.3492 385.386 87.1537 354.942C107.987 324.455 130.992 301.57 152.126 291.863L150.874 289.137Z" fill="black"/>
<circle cx="395.5" cy="355.5" r="30.5" fill="black"/>
</svg>
