<?xml version="1.0" standalone="no"?>
<!DOCTYPE svg PUBLIC "-//W3C//DTD SVG 20010904//EN"
 "http://www.w3.org/TR/2001/REC-SVG-20010904/DTD/svg10.dtd">
<svg version="1.0" xmlns="http://www.w3.org/2000/svg"
 width="350.000000pt" height="528.000000pt" viewBox="0 0 350.000000 528.000000"
 preserveAspectRatio="xMidYMid meet">

<g transform="translate(0.000000,528.000000) scale(0.100000,-0.100000)"
fill="#000000" stroke="none">
<path d="M2381 5264 c-124 -33 -236 -129 -294 -251 -30 -64 -32 -74 -32 -184
0 -113 1 -117 37 -190 197 -399 771 -316 849 122 55 311 -251 586 -560 503z
m285 -74 c307 -151 305 -577 -4 -723 -61 -29 -75 -32 -162 -31 -74 0 -108 5
-153 23 -81 32 -168 114 -209 199 -31 62 -33 73 -33 172 0 93 3 112 27 162 30
65 95 139 153 176 112 71 263 80 381 22z"/>
<path d="M2468 4899 c-10 -5 -18 -18 -18 -27 1 -16 1 -16 11 1 5 9 19 17 30
17 36 0 32 -28 -11 -80 l-42 -50 52 0 c31 0 49 4 45 10 -3 6 -17 10 -31 10
l-25 0 25 33 c28 37 33 66 14 85 -14 14 -27 15 -50 1z"/>
<path d="M2590 3850 c-201 -32 -443 -71 -537 -85 l-173 -27 -51 -132 c-207
-529 -377 -1087 -469 -1540 l-28 -139 -48 -47 c-27 -26 -288 -270 -580 -542
-291 -273 -549 -517 -573 -544 -49 -56 -103 -165 -121 -243 -35 -151 31 -325
163 -425 144 -110 381 -151 557 -97 117 36 145 55 285 190 216 209 422 401
429 401 3 0 6 -10 6 -21 0 -121 133 -248 298 -285 141 -31 381 -3 607 73 186
61 222 87 485 336 134 127 437 439 583 600 l76 84 -111 344 c-62 189 -113 346
-115 348 -6 9 -178 -147 -482 -437 -225 -215 -288 -262 -355 -269 -42 -5 -46
-4 -56 21 -27 72 -7 190 110 651 161 635 451 1646 525 1828 10 25 -9 23 -425
-43z m351 -17 c-41 -79 -384 -1287 -526 -1856 -73 -292 -95 -403 -95 -489 0
-152 84 -191 229 -105 29 18 143 118 253 222 275 260 432 405 440 405 4 0 51
-133 104 -296 l96 -296 -29 -31 c-126 -139 -197 -213 -417 -435 -287 -290
-425 -415 -499 -454 -69 -37 -270 -102 -382 -124 -60 -12 -136 -18 -225 -18
-117 0 -142 3 -189 22 -133 56 -186 121 -205 252 -6 43 -14 81 -17 85 -7 6
-264 -232 -499 -460 -63 -62 -131 -121 -150 -133 -69 -40 -169 -64 -270 -64
-325 -2 -557 221 -501 482 15 69 63 168 109 220 19 23 300 289 623 591 l588
550 11 57 c64 334 144 637 265 1012 74 227 247 702 261 719 5 5 969 158 1007
160 23 1 26 -2 18 -16z"/>
<path d="M2435 3449 c-4 -11 -4 -23 0 -27 7 -7 25 17 25 36 0 20 -18 14 -25
-9z"/>
<path d="M2381 3293 c-13 -46 -14 -63 -3 -63 9 0 32 66 32 89 0 26 -20 8 -29
-26z"/>
<path d="M2322 3101 c-14 -46 -15 -61 -3 -61 5 0 11 12 15 28 3 15 8 37 12 50
3 12 2 22 -3 22 -6 0 -15 -17 -21 -39z"/>
<path d="M2254 2915 c-19 -46 -18 -67 3 -63 23 4 48 98 26 98 -8 0 -21 -16
-29 -35z"/>
<path d="M2177 2714 c-21 -58 -1 -55 24 4 13 31 15 42 6 42 -7 0 -20 -21 -30
-46z"/>
<path d="M2226 2752 c-12 -19 -19 -95 -8 -88 5 3 13 24 17 47 7 39 3 59 -9 41z"/>
<path d="M2106 2537 c-18 -48 -19 -57 -8 -57 7 0 42 77 42 93 0 22 -19 1 -34
-36z"/>
<path d="M2171 2526 c-13 -54 -13 -56 -2 -56 12 0 32 83 22 93 -5 5 -13 -12
-20 -37z"/>
<path d="M2027 2355 c-19 -40 -21 -55 -8 -55 7 0 41 70 41 85 0 17 -19 0 -33
-30z"/>
<path d="M2130 2358 c0 -7 -3 -30 -6 -50 -10 -58 12 -46 23 12 8 40 7 50 -3
50 -8 0 -14 -6 -14 -12z"/>
<path d="M1950 2184 c-6 -14 -15 -34 -20 -45 -7 -13 -7 -19 -1 -19 9 0 51 70
51 85 0 16 -22 1 -30 -21z"/>
<path d="M2097 2173 c-11 -19 -18 -93 -8 -93 5 0 13 20 17 45 6 43 2 66 -9 48z"/>
<path d="M1855 1990 c-24 -54 -12 -63 14 -11 23 45 25 51 13 51 -5 0 -17 -18
-27 -40z"/>
<path d="M2056 1968 c-11 -36 -14 -78 -6 -83 4 -3 11 9 15 27 4 18 9 41 11 51
6 19 -14 24 -20 5z"/>
<path d="M1761 1811 c-26 -51 -14 -61 15 -13 26 41 29 52 14 52 -5 0 -18 -17
-29 -39z"/>
<path d="M2015 1744 c-6 -41 -2 -64 9 -53 10 10 18 99 8 99 -5 0 -13 -21 -17
-46z"/>
<path d="M1665 1643 c-11 -21 -21 -41 -23 -45 -2 -5 1 -8 6 -8 11 0 52 64 52
81 0 21 -17 7 -35 -28z"/>
<path d="M1986 1574 c-9 -24 -7 -89 3 -78 12 13 23 94 12 94 -5 0 -12 -7 -15
-16z"/>
<path d="M1563 1475 c-24 -36 -29 -55 -15 -55 7 0 52 73 52 84 0 16 -17 2 -37
-29z"/>
<path d="M3050 1475 c-19 -23 -7 -39 13 -17 10 11 14 23 9 26 -5 3 -15 -1 -22
-9z"/>
<path d="M1956 1379 c-13 -62 -13 -79 -1 -79 8 0 15 17 17 43 5 46 -8 75 -16
36z"/>
<path d="M2938 1336 c-16 -19 -24 -37 -19 -40 8 -5 61 54 61 68 0 15 -17 3
-42 -28z"/>
<path d="M1452 1304 c-32 -50 -22 -67 11 -19 15 22 27 43 27 47 0 18 -16 6
-38 -28z"/>
<path d="M2817 1195 c-29 -36 -32 -45 -18 -45 13 0 62 68 53 74 -4 2 -20 -11
-35 -29z"/>
<path d="M1926 1184 c-10 -25 -7 -84 4 -84 6 0 10 12 10 28 0 15 3 37 6 50 7
25 -11 31 -20 6z"/>
<path d="M1336 1142 c-29 -43 -34 -61 -11 -42 27 23 56 68 46 74 -4 3 -20 -11
-35 -32z"/>
<path d="M2685 1050 c-16 -16 -26 -32 -24 -35 3 -2 21 11 39 30 19 19 29 35
24 35 -6 0 -23 -13 -39 -30z"/>
<path d="M1211 985 c-18 -20 -30 -40 -26 -43 9 -9 68 54 63 68 -2 7 -17 -3
-37 -25z"/>
<path d="M1896 969 c-9 -46 -8 -75 3 -63 13 14 25 94 13 94 -5 0 -12 -14 -16
-31z"/>
<path d="M2545 920 c-16 -16 -26 -32 -23 -35 7 -7 68 43 68 56 0 17 -16 9 -45
-21z"/>
<path d="M1080 835 c-36 -37 -35 -62 1 -29 23 21 43 53 37 60 -3 2 -20 -12
-38 -31z"/>
<path d="M490 834 c-215 -78 -279 -345 -120 -504 63 -63 119 -85 215 -85 96 0
152 22 215 85 63 63 85 119 85 215 0 60 -6 91 -21 125 -26 57 -92 122 -151
151 -60 29 -162 35 -223 13z"/>
<path d="M2396 804 c-20 -14 -34 -30 -30 -35 3 -6 11 -6 17 -1 7 5 25 18 40
29 40 31 17 37 -27 7z"/>
<path d="M1878 804 c-5 -4 -8 -17 -8 -29 0 -25 35 -62 44 -46 4 5 0 13 -8 18
-8 4 -16 21 -18 36 -1 16 -6 25 -10 21z"/>
<path d="M933 696 c-24 -23 -32 -36 -22 -36 18 0 76 57 67 66 -4 3 -24 -10
-45 -30z"/>
<path d="M2228 713 c-41 -17 -53 -39 -15 -27 50 15 67 24 67 34 0 13 -6 12
-52 -7z"/>
<path d="M2000 681 c0 -5 18 -11 41 -15 47 -7 78 4 39 15 -37 10 -80 10 -80 0z"/>
<path d="M1356 2954 c-22 -19 -36 -37 -33 -41 4 -3 19 4 33 18 l27 24 -7 -86
c-16 -224 -102 -502 -232 -749 -69 -130 -202 -331 -284 -428 -64 -76 -75 -118
-13 -47 290 328 524 848 550 1223 l6 83 23 -22 c12 -12 28 -19 34 -17 6 2 -6
20 -27 40 l-38 36 -39 -34z"/>
<path d="M2862 2723 c-147 -469 -187 -683 -148 -777 35 -84 120 -53 274 97
l72 71 0 -31 c0 -18 5 -35 10 -38 6 -4 10 15 10 49 l0 56 -49 0 c-28 0 -53 -4
-56 -10 -4 -6 9 -10 30 -10 l37 0 -27 -32 c-41 -49 -145 -137 -187 -159 -53
-27 -75 -24 -94 13 -41 79 9 332 161 807 58 184 60 191 47 191 -5 0 -41 -102
-80 -227z"/>
<path d="M3029 2749 l-24 -20 23 6 c21 6 22 4 22 -54 0 -34 4 -61 10 -61 12 0
13 137 1 144 -5 3 -20 -3 -32 -15z"/>
<path d="M3178 2759 c-10 -5 -18 -17 -18 -26 0 -15 2 -15 13 1 14 19 48 19 54
0 2 -6 -15 -34 -37 -63 l-40 -51 50 0 c32 0 49 4 45 10 -3 6 -17 10 -31 10
l-25 0 25 33 c28 37 33 66 14 85 -14 14 -27 15 -50 1z"/>
<path d="M3100 2630 c0 -5 5 -10 10 -10 6 0 10 5 10 10 0 6 -4 10 -10 10 -5 0
-10 -4 -10 -10z"/>
<path d="M809 2439 l-24 -20 23 6 c21 6 22 4 22 -54 0 -34 4 -61 10 -61 12 0
13 137 1 144 -5 3 -20 -3 -32 -15z"/>
<path d="M930 2439 c-24 -20 -24 -20 -2 -14 21 6 22 4 22 -54 0 -34 4 -61 10
-61 12 0 14 136 2 144 -4 2 -19 -4 -32 -15z"/>
<path d="M880 2320 c0 -5 5 -10 10 -10 6 0 10 5 10 10 0 6 -4 10 -10 10 -5 0
-10 -4 -10 -10z"/>
</g>
</svg>
