<?xml version="1.0" encoding="UTF-8"?>
<svg version="1.1" xmlns="http://www.w3.org/2000/svg" width="505" height="782">
<path d="M0 0 C28.4067856 -2.08815484 69.82326941 6.54445273 92.12011719 25.52441406 C93.04050781 26.33652344 93.04050781 26.33652344 93.97949219 27.16503906 C94.79160156 27.7825 95.60371094 28.39996094 96.44042969 29.03613281 C113.60635346 43.42909967 119.07311483 67.97152356 120.97949219 89.16503906 C121.4216012 95.88826479 121.51828529 102.6165131 121.54199219 109.35253906 C121.54561768 110.27134857 121.54924316 111.19015808 121.55297852 112.1368103 C121.54579407 128.71077633 119.3801841 143.40420477 113.97949219 159.16503906 C113.66415527 160.12087891 113.34881836 161.07671875 113.02392578 162.06152344 C97.90516314 207.25270787 66.1152378 241.55019373 23.97949219 263.16503906 C15.42734861 267.41714568 6.77796992 271.44934727 -2.02050781 275.16503906 C-1.30507813 275.30039062 -0.58964844 275.43574219 0.14746094 275.57519531 C14.95212437 278.77361548 26.83689338 285.93182028 35.16699219 298.72753906 C40.50530533 308.35133137 43.98903794 318.53267282 45.85449219 329.35253906 C45.9746167 330.03960937 46.09474121 330.72667969 46.21850586 331.43457031 C47.21107904 337.99338334 47.08280248 344.54616524 46.97949219 351.16503906 C47.57639862 350.93953369 48.17330505 350.71402832 48.78829956 350.48168945 C54.98319784 348.14205116 61.17980577 345.80698655 67.37744141 343.47460938 C69.69233967 342.60274347 72.0067946 341.72969957 74.32080078 340.85546875 C77.64077658 339.60141365 80.96230686 338.35155897 84.28417969 337.10253906 C85.84360794 336.51194702 85.84360794 336.51194702 87.43453979 335.90942383 C88.39538483 335.54905029 89.35622986 335.18867676 90.34619141 334.81738281 C91.61860184 334.33773071 91.61860184 334.33773071 92.91671753 333.84838867 C94.97949219 333.16503906 94.97949219 333.16503906 96.97949219 333.16503906 C100.50481239 375.939381 100.50481239 375.939381 95.14404297 384.84765625 C90.5934869 390.11074481 84.98673012 393.13760991 78.68164062 395.91650391 C74.73006169 397.74234188 71.43231386 400.23299197 67.97949219 402.85253906 C66.92761719 403.57828125 65.87574219 404.30402344 64.79199219 405.05175781 C57.64266489 410.4236829 55.44234818 415.39960739 52.54199219 423.66503906 C47.02087141 438.68806942 40.17360336 452.88622437 32.97949219 467.16503906 C32.56344727 467.99825684 32.14740234 468.83147461 31.71875 469.68994141 C17.42778984 498.17726137 -0.50121673 525.01638167 -20.02050781 550.16503906 C-20.71152588 551.06222656 -20.71152588 551.06222656 -21.41650391 551.97753906 C-30.55518814 563.83451071 -40.12146076 575.25364031 -50.31738281 586.21582031 C-52.32145944 588.37626183 -54.24755421 590.59160884 -56.16503906 592.82910156 C-60.40117252 597.68806051 -64.94257035 602.23755649 -69.50854492 606.78344727 C-70.95575166 608.22529127 -72.39752807 609.67241022 -73.83886719 611.12011719 C-79.06279535 616.34813061 -84.3907762 621.37673467 -90.02050781 626.16503906 C-91.10379243 627.11413122 -92.18587377 628.06459898 -93.26660156 629.01660156 C-126.95785969 658.40539851 -164.81131403 681.90323539 -206.02050781 699.16503906 C-206.88434082 699.53097168 -207.74817383 699.8969043 -208.63818359 700.27392578 C-229.92425107 709.14054605 -250.72677645 704.43671851 -271.47705078 696.23339844 C-298.79752812 684.75764408 -323.33260938 666.02487243 -335.02050781 638.16503906 C-338.76193382 626.0824339 -333.3569534 612.94006317 -328.02050781 602.16503906 C-322.28092996 591.82413454 -315.42594852 582.35923356 -308.02050781 573.16503906 C-307.2921875 572.24335937 -306.56386719 571.32167969 -305.81347656 570.37207031 C-300.34616999 563.54532535 -294.48013598 557.14705612 -288.50830078 550.76611328 C-286.21498549 548.29818389 -283.96633292 545.78996805 -281.70800781 543.29003906 C-273.17828483 533.98151529 -264.35982919 524.78791402 -254.70800781 516.63378906 C-252.89110348 515.05240937 -251.20839501 513.3830671 -249.52050781 511.66503906 C-246.53178444 508.62908982 -243.40344302 505.81995247 -240.17675781 503.04003906 C-237.82087824 500.99144813 -235.51543321 498.89300905 -233.20800781 496.79003906 C-228.91928294 492.91908952 -224.49942076 489.25132012 -220.00878906 485.61816406 C-216.61300478 482.83051369 -213.28378875 479.97293005 -209.95800781 477.10253906 C-204.41095537 472.32533037 -198.78059604 467.68462636 -193.02050781 463.16503906 C-191.48910156 461.95654297 -191.48910156 461.95654297 -189.92675781 460.72363281 C-186.95695469 458.38181524 -183.98080058 456.04820814 -181.00244141 453.71728516 C-179.6477022 452.65625634 -178.29390343 451.59402594 -176.94091797 450.53076172 C-160.75679672 437.81492888 -144.24109475 425.59312835 -127.36669922 413.80908203 C-124.80077132 412.01106346 -122.24468562 410.1995013 -119.68847656 408.38769531 C-101.92606571 395.84699785 -83.69852592 384.24539243 -64.77050781 373.54003906 C-63.77164551 372.9720459 -62.7727832 372.40405273 -61.74365234 371.81884766 C-44.41652599 362.16503906 -44.41652599 362.16503906 -39.02050781 362.16503906 C-39.85797759 355.09655168 -39.85797759 355.09655168 -42.52050781 348.60253906 C-50.94669169 343.75748333 -59.65400536 345.21078691 -68.70117188 347.52099609 C-94.5137748 354.68874836 -119.14871068 367.61221646 -142.390625 380.69726562 C-145.10036541 382.20960868 -147.82632223 383.68783086 -150.55957031 385.15722656 C-167.8948996 394.4787119 -184.79118797 404.2859154 -200.87353516 415.65087891 C-203.26621309 417.33832359 -205.66813377 419.01208275 -208.07128906 420.68457031 C-220.06408732 429.04033588 -220.06408732 429.04033588 -231.82910156 437.71191406 C-237.91612432 441.74822862 -243.89995176 441.92153904 -251.02050781 441.16503906 C-256.18852682 439.52024459 -260.34822572 435.85376844 -263.02050781 431.16503906 C-271.55015494 410.64592811 -263.1015697 386.13083491 -255.23925781 366.69628906 C-248.24077732 350.00030522 -238.95335722 334.5648491 -228.02050781 320.16503906 C-227.35535156 319.2871875 -226.69019531 318.40933594 -226.00488281 317.50488281 C-220.71400485 310.71922429 -214.91433184 304.42450653 -209.02050781 298.16503906 C-208.364375 297.45476562 -207.70824219 296.74449219 -207.03222656 296.01269531 C-190.78878746 279.00404066 -169.57212907 267.20686432 -148.27050781 257.79003906 C-120.20938346 245.37015546 -94.25855845 228.93635545 -70.02050781 210.16503906 C-69.48683594 209.75608398 -68.95316406 209.34712891 -68.40332031 208.92578125 C-45.45834804 191.3337547 -22.42940747 171.54372258 -4.02050781 149.16503906 C-3.0608724 148.03092448 -2.10123698 146.8968099 -1.14160156 145.76269531 C17.74921195 124.6734143 17.74921195 124.6734143 26.97949219 99.16503906 C1.56028742 101.72364611 -23.01242363 118.87545512 -44.44921875 131.64892578 C-47.85479989 133.65696403 -51.30731348 135.57134266 -54.77050781 137.47753906 C-62.14323877 141.5646605 -69.32580891 145.96268784 -76.52050781 150.35253906 C-93.38559702 160.63508787 -110.31501589 170.72026217 -127.77050781 179.97753906 C-138.18331744 185.50747056 -148.28324447 191.44958853 -158.32128906 197.62158203 C-159.49308873 198.34191943 -160.66496407 199.06213375 -161.83691406 199.78222656 C-162.42046661 200.14081757 -163.00401917 200.49940857 -163.60525513 200.86886597 C-170.43264017 205.05074594 -177.35221963 209.07357842 -184.27050781 213.10253906 C-192.87929345 218.12267484 -201.43476565 223.20087738 -209.85253906 228.53613281 C-215.33334194 232.00817815 -220.86782844 235.39334244 -226.39550781 238.79003906 C-228.05501465 239.81061401 -228.05501465 239.81061401 -229.74804688 240.85180664 C-235.43224318 244.34697397 -241.11837489 247.83896862 -246.80566406 251.32910156 C-256.74364806 257.43139788 -266.67083332 263.54592564 -276.52050781 269.79003906 C-294.47568165 281.16503906 -294.47568165 281.16503906 -297.02050781 281.16503906 C-297.34468872 257.31197418 -297.55740746 233.81805543 -294.02050781 210.16503906 C-293.88128906 209.1830957 -293.74207031 208.20115234 -293.59863281 207.18945312 C-290.35910205 184.74520411 -284.86093615 162.65931823 -275.02050781 142.16503906 C-274.57191406 141.2243457 -274.57191406 141.2243457 -274.11425781 140.26464844 C-252.91394091 96.58631697 -199.16387192 72.81146451 -158.02050781 52.16503906 C-156.97314453 51.63668457 -155.92578125 51.10833008 -154.84667969 50.56396484 C-107.34846384 26.73064022 -53.28333086 4.35228754 0 0 Z M-143.234375 51.85791016 C-145.95274234 53.13324653 -148.67742231 54.39417702 -151.40332031 55.65332031 C-176.16856632 67.17187927 -200.62433121 80.48771544 -223.02050781 96.16503906 C-224.13246649 96.92678773 -225.2444468 97.68850481 -226.35644531 98.45019531 C-261.930957 123.07109885 -277.82485133 154.44911825 -285.77050781 196.47753906 C-290.19839086 221.13880672 -292.39381849 246.11174442 -292.02050781 271.16503906 C-288.29899744 269.78755607 -285.05883397 268.08657855 -281.68847656 265.99707031 C-280.13894287 265.04006226 -280.13894287 265.04006226 -278.55810547 264.0637207 C-277.45257324 263.37528076 -276.34704102 262.68684082 -275.20800781 261.97753906 C-274.03941665 261.25384125 -272.87063093 260.53045753 -271.70166016 259.80737305 C-263.18087901 254.53115748 -254.69132583 249.20499637 -246.20043945 243.88085938 C-237.38247889 238.36432828 -228.49577137 232.96438295 -219.59667969 227.58032227 C-211.58709927 222.73298782 -203.60977037 217.83662099 -195.64550781 212.91503906 C-185.0995029 206.40808122 -174.47950028 200.04117427 -163.78320312 193.78466797 C-160.92789927 192.11074734 -158.07938382 190.42567482 -155.23144531 188.73925781 C-145.02335362 182.71515493 -134.74496681 176.90147074 -124.27050781 171.35253906 C-111.86950533 164.76986622 -99.92447773 157.55338702 -87.97323608 150.20014954 C-79.06622566 144.7251695 -70.04814769 139.43790246 -61.02050781 134.16503906 C-60.00279297 133.56981445 -58.98507812 132.97458984 -57.93652344 132.36132812 C10.79271236 92.23097494 10.79271236 92.23097494 27.97949219 93.16503906 C30.19433594 93.98144531 30.19433594 93.98144531 31.97949219 95.16503906 C34.21964841 101.09486436 32.1033458 105.85322681 29.74902344 111.50878906 C23.99895196 123.84713486 15.64691763 134.75657142 6.97949219 145.16503906 C6.21620605 146.082771 6.21620605 146.082771 5.4375 147.01904297 C0.39577959 153.05004082 -4.64895438 159.03754621 -10.33520508 164.47705078 C-12.06822424 166.21283152 -13.64491511 168.02538239 -15.23144531 169.89550781 C-18.86399111 174.07238589 -22.76508744 177.8542797 -26.83300781 181.60253906 C-27.53514404 182.25432129 -28.23728027 182.90610352 -28.96069336 183.57763672 C-30.97619605 185.44498501 -32.99729348 187.30605349 -35.02050781 189.16503906 C-35.96925781 190.0403125 -36.91800781 190.91558594 -37.89550781 191.81738281 C-43.23708787 196.68815053 -48.72992324 201.34407115 -54.38134766 205.8515625 C-55.51904883 206.76321462 -56.65186513 207.68098321 -57.78076172 208.60351562 C-84.76522648 230.63022306 -114.70802773 248.72932106 -146.15429688 263.59451294 C-148.71753907 264.80792113 -151.27757337 266.02803054 -153.83764648 267.24810791 C-155.71087063 268.13674775 -157.58904195 269.01419237 -159.46777344 269.89111328 C-167.48073279 273.70085589 -174.78687745 278.03149493 -182.02050781 283.16503906 C-182.65569336 283.60783203 -183.29087891 284.050625 -183.9453125 284.50683594 C-201.14203551 296.73793984 -216.27459896 312.68585911 -228.02050781 330.16503906 C-228.50922363 330.87917969 -228.99793945 331.59332031 -229.50146484 332.32910156 C-246.32625629 357.09968262 -265.2629378 391.78219548 -259.52050781 422.87207031 C-258.0846082 427.79165819 -256.05465759 430.85496745 -252.02050781 434.16503906 C-249.63421698 435.35818448 -247.99605186 435.40005386 -245.33300781 435.47753906 C-244.50414062 435.51492188 -243.67527344 435.55230469 -242.82128906 435.59082031 C-236.10687456 434.57007947 -230.57633617 429.46060723 -225.33300781 425.41503906 C-219.29496473 420.82692762 -213.17232071 416.48390708 -206.81201172 412.34960938 C-204.72147164 410.96731168 -202.65864235 409.54771759 -200.59472656 408.12597656 C-186.21659229 398.2795551 -171.26272353 389.58144699 -156.02050781 381.16503906 C-155.14658386 380.68167084 -155.14658386 380.68167084 -154.25500488 380.1885376 C-129.72318785 366.63517522 -104.65640029 353.11367223 -78.02050781 344.16503906 C-77.33891602 343.93075195 -76.65732422 343.69646484 -75.95507812 343.45507812 C-68.62747105 340.99548732 -61.64955535 339.82032809 -53.95800781 339.72753906 C-53.25514648 339.71722656 -52.55228516 339.70691406 -51.828125 339.69628906 C-45.97758825 339.79759706 -41.8588731 341.27560808 -37.77050781 345.47753906 C-34.55524626 350.41526216 -33.75152947 355.22501859 -33.39550781 361.04003906 C-33.32074219 362.19246094 -33.24597656 363.34488281 -33.16894531 364.53222656 C-33.11996094 365.40105469 -33.07097656 366.26988281 -33.02050781 367.16503906 C-33.57158203 367.2666333 -34.12265625 367.36822754 -34.69042969 367.47290039 C-40.36409788 368.61233397 -45.31889498 370.33816945 -50.52050781 372.85253906 C-51.32528564 373.23917725 -52.13006348 373.62581543 -52.95922852 374.02416992 C-80.22134673 387.47857071 -105.30799486 405.58281143 -130.02050781 423.16503906 C-130.79088379 423.71256836 -131.56125977 424.26009766 -132.35498047 424.82421875 C-143.42332249 432.70845308 -154.2761194 440.84594996 -165.02050781 449.16503906 C-165.78459961 449.75494629 -166.54869141 450.34485352 -167.3359375 450.95263672 C-176.33540639 457.90204072 -185.26165475 464.91396978 -194.02050781 472.16503906 C-195.81175389 473.62388896 -197.60343138 475.08220931 -199.39550781 476.54003906 C-205.09374719 481.20370448 -210.71928972 485.94918976 -216.32470703 490.72363281 C-218.02285627 492.16703522 -219.72640974 493.60385329 -221.43066406 495.04003906 C-228.36360837 500.90554715 -235.10051834 506.93810029 -241.69580078 513.18188477 C-244.67286393 515.99696187 -247.67997021 518.75158778 -250.78637695 521.42382812 C-254.79150713 524.9198896 -258.58491693 528.58428297 -262.33691406 532.34863281 C-263.32714821 533.33743187 -263.32714821 533.33743187 -264.33738708 534.34620667 C-265.72086287 535.72900741 -267.10309864 537.11304982 -268.48413086 538.49829102 C-270.57782451 540.59734249 -272.67680656 542.69099846 -274.77636719 544.78417969 C-276.13020352 546.13867692 -277.48372956 547.49348438 -278.83691406 548.84863281 C-279.45377579 549.46347031 -280.07063751 550.0783078 -280.70619202 550.71177673 C-285.00698911 555.03538548 -289.04383646 559.54317747 -293.02050781 564.16503906 C-294.32375 565.64617187 -294.32375 565.64617187 -295.65332031 567.15722656 C-320.89564838 596.07949051 -320.89564838 596.07949051 -330.36425781 631.99316406 C-327.68788635 648.90296554 -311.01497038 665.10242089 -297.84619141 674.88671875 C-277.04231404 689.45332772 -249.93755779 701.73596887 -224.02050781 699.16503906 C-184.0458881 689.44036449 -144.77969416 662.66765654 -113.02050781 637.16503906 C-112.03695312 636.38128906 -111.05339844 635.59753906 -110.04003906 634.79003906 C-107.34198053 632.60978974 -104.67661551 630.39616953 -102.02050781 628.16503906 C-101.48361328 627.71837891 -100.94671875 627.27171875 -100.39355469 626.81152344 C-92.80425502 620.48853307 -85.61374907 613.95300581 -78.73925781 606.85644531 C-76.81895953 604.95546037 -74.96409723 603.24987657 -72.88378906 601.55175781 C-70.53633239 599.59501016 -68.64273391 597.75470783 -66.70800781 595.41503906 C-64.10113454 592.3535455 -61.38577669 589.48652624 -58.52050781 586.66503906 C-54.4723064 582.65772858 -50.70744479 578.50393441 -47.02050781 574.16503906 C-46.22128906 573.24335937 -45.42207031 572.32167969 -44.59863281 571.37207031 C-37.60702485 563.26696018 -31.07244953 554.8518868 -24.63476562 546.30273438 C-23.08242468 544.24703303 -21.51811078 542.20106235 -19.95019531 540.15722656 C9.29849087 501.86578987 33.50492439 458.93443529 50.04077148 413.69091797 C50.35054932 412.85737793 50.66032715 412.02383789 50.97949219 411.16503906 C51.27106201 410.2967749 51.56263184 409.42851074 51.86303711 408.53393555 C53.14778681 405.80795123 54.32533316 404.7656204 56.76855469 403.03613281 C57.538125 402.48151367 58.30769531 401.92689453 59.10058594 401.35546875 C59.926875 400.77700195 60.75316406 400.19853516 61.60449219 399.60253906 C63.32639775 398.36763046 65.04774198 397.13193883 66.76855469 395.89550781 C68.07228027 394.96617432 68.07228027 394.96617432 69.40234375 394.01806641 C73.30695314 391.21056496 77.14386601 388.31570339 80.97949219 385.41503906 C87.58027093 380.43118657 87.58027093 380.43118657 90.97949219 378.16503906 C91.24625379 375.39874991 91.32753407 372.85884275 91.27246094 370.09472656 C91.26821609 369.29849884 91.26397125 368.50227112 91.25959778 367.68191528 C91.24278053 365.13428178 91.20512397 362.58743418 91.16699219 360.04003906 C91.15194923 358.31479006 91.13826015 356.58952867 91.12597656 354.86425781 C91.0928672 350.63088125 91.04106504 346.39809348 90.97949219 342.16503906 C87.64351329 342.76993851 84.55521717 343.58256911 81.37280273 344.74731445 C80.4922673 345.06757095 79.61173187 345.38782745 78.70451355 345.7177887 C77.76787369 346.06260788 76.83123383 346.40742706 75.86621094 346.76269531 C74.8966597 347.11641708 73.92710846 347.47013885 72.92817688 347.83457947 C69.83986269 348.96217285 66.75341675 350.09478497 63.66699219 351.22753906 C61.57010829 351.994147 59.47310442 352.76042688 57.37597656 353.52636719 C52.24241833 355.40212377 47.11038377 357.28200132 41.97949219 359.16503906 C41.95541794 358.54245209 41.93134369 357.91986511 41.90653992 357.27841187 C41.79331416 354.4149077 41.67355401 351.55171112 41.55371094 348.68847656 C41.4970929 347.21979126 41.4970929 347.21979126 41.43933105 345.72143555 C40.66281621 327.56235185 36.85172338 307.83761623 23.97949219 294.16503906 C11.16482799 282.81051651 -3.21601956 279.56960444 -20.02050781 280.16503906 C-20.35050781 278.18503906 -20.68050781 276.20503906 -21.02050781 274.16503906 C-19.11978516 273.79765625 -19.11978516 273.79765625 -17.18066406 273.42285156 C-11.68776172 272.19743752 -6.6390727 270.20873976 -1.45800781 268.04003906 C-0.49636719 267.64115479 0.46527344 267.24227051 1.45605469 266.83129883 C9.83373248 263.31108452 17.96670983 259.44616657 25.97949219 255.16503906 C27.14480469 254.55273438 28.31011719 253.94042969 29.51074219 253.30957031 C43.80752045 245.50108218 56.27891159 235.43608293 67.97949219 224.16503906 C68.74390625 223.46378906 69.50832031 222.76253906 70.29589844 222.04003906 C94.58319976 199.0996185 105.81898502 167.70506677 113.97949219 136.16503906 C114.24147148 135.22998032 114.24147148 135.22998032 114.50874329 134.27603149 C114.99266743 132.10595694 115.11951849 130.17846594 115.140625 127.95751953 C115.15503632 126.72375076 115.15503632 126.72375076 115.16973877 125.46505737 C115.17398865 124.57972321 115.17823853 123.69438904 115.18261719 122.78222656 C115.18831726 121.8539505 115.19401733 120.92567444 115.19989014 119.9692688 C115.2093375 117.99726496 115.21587307 116.02524536 115.21972656 114.05322266 C115.2293001 111.09930809 115.26026877 108.14613016 115.29199219 105.19238281 C115.37708722 90.13515676 114.33031894 75.26171106 109.35449219 60.91503906 C109.1036084 60.1810791 108.85272461 59.44711914 108.59423828 58.69091797 C102.07041565 40.72411571 89.62231964 28.56482015 72.44042969 20.50488281 C-1.14886662 -10.30177121 -75.40811095 19.99236346 -143.234375 51.85791016 Z " fill="#000000" transform="translate(336.0205078125,40.8349609375)"/>
<path d="M0 0 C0.99 0.495 0.99 0.495 2 1 C-12.05905483 24.49520962 -27.85496061 46.65254377 -45 68 C-45.73347656 68.91652344 -46.46695313 69.83304688 -47.22265625 70.77734375 C-61.34321152 88.22942749 -76.53420629 104.60830633 -92.375 120.5 C-93.3023999 121.43207275 -94.2297998 122.36414551 -95.18530273 123.32446289 C-100.29689461 128.42409567 -105.50172969 133.3213004 -111 138 C-111.97582031 138.85722656 -112.95164062 139.71445312 -113.95703125 140.59765625 C-128.59808168 153.235827 -144.2062672 164.40304551 -161 174 C-161.70866211 174.40589355 -162.41732422 174.81178711 -163.14746094 175.22998047 C-178.66150273 184.0131943 -194.59052321 190.18130005 -212 194 C-210.32131086 189.98871374 -207.57207393 186.93023039 -204.75 183.6875 C-204.22639893 183.08083496 -203.70279785 182.47416992 -203.16333008 181.84912109 C-198.56161383 176.55887382 -193.80523618 171.41847777 -188.98535156 166.3269043 C-186.1088183 163.28506761 -183.28943153 160.21098387 -180.54296875 157.05078125 C-176.99407552 152.96760896 -173.33102945 149.00303962 -169.625 145.0625 C-168.97015625 144.36447266 -168.3153125 143.66644531 -167.640625 142.94726562 C-163.55322898 138.60541708 -159.41313162 134.3326939 -155.125 130.1875 C-153.29554596 128.30423849 -151.59337092 126.37998085 -149.88452148 124.38891602 C-146.00338058 119.94249527 -141.90058037 115.75612269 -137.72265625 111.58984375 C-136.95247665 110.81870743 -136.18229706 110.04757111 -135.38877869 109.25306702 C-133.77058627 107.63419847 -132.15114788 106.01657449 -130.53051758 104.40014648 C-128.06932768 101.94431282 -125.61352191 99.48318635 -123.15820312 97.02148438 C-121.57584133 95.43978347 -119.99316933 93.85839283 -118.41015625 92.27734375 C-117.68594986 91.55111313 -116.96174347 90.82488251 -116.21559143 90.0766449 C-112.16925137 86.04858988 -108.02993647 82.19223133 -103.69541931 78.47523499 C-101.52203779 76.58411081 -99.50546864 74.56717537 -97.5 72.5 C-94.16879193 69.12899935 -90.74888372 65.9548597 -87.15234375 62.87109375 C-84.61947838 60.66920171 -82.15667478 58.39804174 -79.6875 56.125 C-75.17709564 52.01220704 -70.54748841 48.10088755 -65.796875 44.26953125 C-62.93475509 41.94705685 -60.12460193 39.57018637 -57.3125 37.1875 C-40.17875326 22.92409743 -22.1875354 10.52098139 -2 1 C-1.34 0.67 -0.68 0.34 0 0 Z M-16 15 C-24.98485245 20.62217838 -33.61821415 26.49633518 -42 33 C-43.11065011 33.85159767 -44.22132805 34.70315906 -45.33203125 35.5546875 C-57.72657941 45.11859832 -69.40696117 55.48766818 -81 66 C-82.14082031 67.01900391 -82.14082031 67.01900391 -83.3046875 68.05859375 C-98.90110024 81.99309365 -113.76770139 96.60775454 -128.53662109 111.40625 C-131.4388013 114.31417405 -134.34551571 117.21751815 -137.25354004 120.11959648 C-139.52375055 122.38617517 -141.79155182 124.65515243 -144.05865479 126.92483902 C-145.12948567 127.99632947 -146.20103889 129.06709859 -147.27337646 130.13708115 C-152.57020322 135.42480408 -157.79671183 140.73137005 -162.65283203 146.43264771 C-164.33828685 148.39357725 -166.14044167 150.20456437 -168 152 C-171.11841669 155.0768378 -174.01853618 158.2603027 -176.8671875 161.5859375 C-178.63315106 163.58477537 -180.42919973 165.5356756 -182.2578125 167.4765625 C-182.84151611 168.09708496 -183.42521973 168.71760742 -184.02661133 169.35693359 C-185.19972238 170.60044735 -186.37653932 171.84047743 -187.55737305 173.07666016 C-188.10176025 173.65464355 -188.64614746 174.23262695 -189.20703125 174.828125 C-189.6966333 175.3427832 -190.18623535 175.85744141 -190.69067383 176.38769531 C-192.12478002 178.15365416 -193.0548755 179.93699533 -194 182 C-187.14271541 180.15148321 -180.88768199 177.7842796 -174.5625 174.5625 C-173.70487061 174.12784424 -172.84724121 173.69318848 -171.96362305 173.24536133 C-147.10815744 160.40007127 -125.52987773 142.83883288 -105 124 C-104.46181641 123.51225098 -103.92363281 123.02450195 -103.36914062 122.52197266 C-93.04508136 113.15755819 -83.43561347 103.25371514 -74 93 C-73.02893122 91.95416203 -72.05760653 90.90856157 -71.0859375 89.86328125 C-66.35929668 84.73421745 -61.83851742 79.48051634 -57.4609375 74.05078125 C-55.66719764 71.82711326 -53.86127617 69.61801522 -52.0390625 67.41796875 C-38.72787769 51.29398555 -26.67174887 34.33744697 -15 17 C-15.33 16.34 -15.66 15.68 -16 15 Z " fill="#000000" transform="translate(289,485)"/>
<path d="M0 0 C6.517904 4.68956663 12.55343845 10.81246164 14 19 C14.7992898 30.25557271 13.99078008 38.31915226 6.75 47.25 C1.33164802 53.0878373 -4.3711544 56.67129269 -12.35546875 57.23828125 C-23.57071698 57.45549809 -30.8402179 55.69919895 -39.20703125 47.93359375 C-46.38318634 40.19460297 -47.48473506 33.10670258 -47.2734375 22.765625 C-46.64352117 14.09077723 -42.28194806 7.82507911 -36 2 C-25.82502277 -5.66451556 -10.93235165 -7.28107507 0 0 Z " fill="#000000" transform="translate(127,185)"/>
<path d="M0 0 C1.98 0.99 1.98 0.99 4 2 C-3.99956915 14.51855654 -12.89994612 26.26578228 -22 38 C-23.0170239 39.32023792 -24.03396094 40.64054277 -25.05078125 41.9609375 C-30.076783 48.45385842 -35.28605419 54.75757221 -40.66333008 60.96264648 C-43.66019513 64.42146542 -46.5760849 67.92715445 -49.4375 71.5 C-54.0316764 77.16531407 -58.99454031 82.45172725 -63.984375 87.765625 C-66.3383037 90.27628878 -68.62994214 92.82837871 -70.875 95.4375 C-73.50448469 98.4879613 -76.29267132 101.31618497 -79.16723633 104.13476562 C-80.89739543 105.89557761 -82.49941821 107.70949079 -84.09765625 109.58984375 C-88.48825187 114.63769331 -93.19800361 119.34433667 -97.9375 124.0625 C-99.22043945 125.35124023 -99.22043945 125.35124023 -100.52929688 126.66601562 C-104.94214923 131.07213594 -109.41775916 135.33025529 -114.14819336 139.39331055 C-117.11631033 141.96854823 -119.95426155 144.67928803 -122.8125 147.375 C-128.67455065 152.85391009 -134.71971207 158.00296441 -141 163 C-142.14032315 163.93106797 -143.27958739 164.86343387 -144.41796875 165.796875 C-158.53018296 177.31493219 -173.37058846 187.64791158 -189 197 C-189.64259766 197.38784668 -190.28519531 197.77569336 -190.94726562 198.17529297 C-210.68148745 210.00095102 -233.49836336 220.32003922 -256.875 220.0625 C-257.65875 220.05798828 -258.4425 220.05347656 -259.25 220.04882812 C-261.16670014 220.03714093 -263.08336048 220.01920908 -265 220 C-264.62746094 220.45890625 -264.25492187 220.9178125 -263.87109375 221.390625 C-263.16146484 222.31101562 -263.16146484 222.31101562 -262.4375 223.25 C-261.96183594 223.85328125 -261.48617187 224.4565625 -260.99609375 225.078125 C-260 227 -260 227 -260.34765625 229.234375 C-260.56292969 229.81703125 -260.77820313 230.3996875 -261 231 C-264.93677426 229.68774191 -265.8271782 227.8038606 -268.1875 224.4375 C-268.90292969 223.42558594 -269.61835938 222.41367187 -270.35546875 221.37109375 C-270.89816406 220.58863281 -271.44085938 219.80617188 -272 219 C-270.5328827 215.44263493 -268.6293581 213.55804833 -265.625 211.1875 C-264.85414063 210.56230469 -264.08328125 209.93710937 -263.2890625 209.29296875 C-261 208 -261 208 -258.7109375 208.30078125 C-258.14632812 208.53152344 -257.58171875 208.76226563 -257 209 C-258.13719419 212.41158256 -259.04342944 213.11854601 -262 215 C-262.66 215 -263.32 215 -264 215 C-264 215.66 -264 216.32 -264 217 C-217.75008835 212.10435531 -179.93595503 188.65446862 -144.73535156 159.43115234 C-143.19839635 158.16361837 -141.64341834 156.91800793 -140.0859375 155.67578125 C-133.9416916 150.77307176 -128.17861944 145.53858639 -122.47631836 140.13500977 C-119.51385023 137.32920097 -116.53022286 134.58509352 -113.421875 131.94140625 C-107.61622427 126.89631192 -102.24469314 121.39350992 -96.81811523 115.94848633 C-94.94170525 114.06671726 -93.06001031 112.19035262 -91.17773438 110.31445312 C-85.77602405 104.91573958 -80.41719127 99.53252997 -75.46606445 93.71118164 C-72.95259851 90.77747926 -70.27540484 87.99696159 -67.625 85.1875 C-62.89803624 80.14089056 -58.42490857 74.96665852 -54.1015625 69.56640625 C-52.01998573 67.02440637 -49.8496162 64.60470665 -47.625 62.1875 C-43.10466427 57.22061464 -38.99059507 51.9950021 -34.87890625 46.69140625 C-32.97612989 44.23886691 -31.04798518 41.81090354 -29.08984375 39.40234375 C-18.78009025 26.71630117 -9.29046262 13.44583318 0 0 Z " fill="#000000" transform="translate(381,551)"/>
<path d="M0 0 C1.16720581 0.00182281 2.33441162 0.00364563 3.5369873 0.00552368 C20.48812932 0.05008916 37.13580866 0.3902775 53.875 3.3125 C55.44773682 3.57788574 55.44773682 3.57788574 57.05224609 3.84863281 C94.65905698 10.34746687 136.20899944 23.3268683 159.515625 55.8671875 C169.37420215 70.40565765 175.66294836 86.79534514 176.19140625 104.4609375 C176.21218735 105.11832916 176.23296844 105.77572083 176.25437927 106.45303345 C176.31920753 108.53109362 176.37844564 110.60926856 176.4375 112.6875 C176.48074888 114.10548011 176.52436509 115.52344907 176.56835938 116.94140625 C176.67481918 120.3983188 176.77626984 123.85535706 176.875 127.3125 C177.65230469 126.64734375 178.42960938 125.9821875 179.23046875 125.296875 C181.875 123.3125 181.875 123.3125 184.1875 123.5625 C184.744375 123.81 185.30125 124.0575 185.875 124.3125 C184.37753294 128.20247191 182.17077922 129.78198052 178.75 132.0625 C177.83992187 132.67609375 176.92984375 133.2896875 175.9921875 133.921875 C175.29351562 134.38078125 174.59484375 134.8396875 173.875 135.3125 C170.31763493 133.8453827 168.43304833 131.9418581 166.0625 128.9375 C165.43730469 128.16664063 164.81210937 127.39578125 164.16796875 126.6015625 C162.875 124.3125 162.875 124.3125 163.17578125 122.0234375 C163.40652344 121.45882812 163.63726562 120.89421875 163.875 120.3125 C167.24220387 121.70582574 168.8609524 123.2914286 170.875 126.3125 C174.27928299 103.33358984 169.44962785 79.00516058 156.15234375 59.828125 C154.45942571 57.5914679 152.69079071 55.45012669 150.875 53.3125 C150.03775391 52.24128906 150.03775391 52.24128906 149.18359375 51.1484375 C123.79399566 20.11061348 76.49107252 10.37080602 38.875 6.3125 C37.66486488 6.18028297 37.66486488 6.18028297 36.43028259 6.0453949 C29.32468671 5.33092625 22.29430826 5.16669111 15.15625 5.1796875 C13.97712036 5.17873077 12.79799072 5.17777405 11.58312988 5.17678833 C9.10571234 5.17611193 6.62829298 5.17792826 4.15087891 5.18212891 C0.38570121 5.18748478 -3.37935721 5.1821654 -7.14453125 5.17578125 C-9.56510443 5.17644213 -11.98567753 5.17772349 -14.40625 5.1796875 C-15.51802612 5.17766327 -16.62980225 5.17563904 -17.77526855 5.17355347 C-23.78439374 5.19134237 -29.68321129 5.45027224 -35.65930176 6.09231567 C-39.49037835 6.43442689 -43.2811298 6.37551427 -47.125 6.3125 C-47.455 5.3225 -47.785 4.3325 -48.125 3.3125 C-40.71118995 -4.10131005 -9.98950981 -0.03242655 0 0 Z " fill="#000000" transform="translate(319.125,18.6875)"/>
<path d="M0 0 C4.51478398 0.53115106 7.34666857 2.36620292 11 5 C9.35 8.3 7.7 11.6 6 15 C5.34 15 4.68 15 4 15 C4.33 13.02 4.66 11.04 5 9 C1.68652652 9.93408136 -1.62558678 10.87290289 -4.9375 11.8125 C-5.86369141 12.07353516 -6.78988281 12.33457031 -7.74414062 12.60351562 C-12.91973195 14.07447316 -17.99672532 15.6451982 -23.02954102 17.5534668 C-25.34518248 18.07822312 -26.76883013 17.73769282 -29 17 C-29 16.34 -29 15.68 -29 15 C-18.44 11.7 -7.88 8.4 3 5 C2.01 4.01 1.02 3.02 0 2 C0 1.34 0 0.68 0 0 Z " fill="#000000" transform="translate(418,356)"/>
<path d="M0 0 C1.4540625 0.0309375 1.4540625 0.0309375 2.9375 0.0625 C5.0625 4.6875 5.0625 4.6875 3.9375 8.0625 C4.26300502 9.73071323 4.59596063 11.39749557 4.9375 13.0625 C4.6075 13.7225 4.2775 14.3825 3.9375 15.0625 C1.125 15.9375 1.125 15.9375 -2.0625 16.0625 C-4.4375 14.125 -4.4375 14.125 -6.0625 12.0625 C-2.43923261 10.8547442 -1.42103631 11.51938872 1.9375 13.0625 C1.9375 11.7425 1.9375 10.4225 1.9375 9.0625 C0.6175 9.0625 -0.7025 9.0625 -2.0625 9.0625 C-2.0625 8.0725 -2.0625 7.0825 -2.0625 6.0625 C-0.7425 6.0625 0.5775 6.0625 1.9375 6.0625 C1.6075 5.0725 1.2775 4.0825 0.9375 3.0625 C-1.0425 3.7225 -3.0225 4.3825 -5.0625 5.0625 C-3.9375 0.08035714 -3.9375 0.08035714 0 0 Z " fill="#000000" transform="translate(403.0625,337.9375)"/>
<path d="M0 0 C3.0625 0.1875 3.0625 0.1875 5.0625 2.1875 C4.90004442 5.92397845 4.47466356 7.71288742 2 10.5625 C1.360625 11.09875 0.72125 11.635 0.0625 12.1875 C1.7125 12.5175 3.3625 12.8475 5.0625 13.1875 C5.0625 13.8475 5.0625 14.5075 5.0625 15.1875 C1.7625 15.1875 -1.5375 15.1875 -4.9375 15.1875 C-2.9375 11.1875 -2.9375 11.1875 -0.8125 8.625 C1.36735538 6.30372611 1.36735538 6.30372611 1.0625 3.1875 C0.4025 3.1875 -0.2575 3.1875 -0.9375 3.1875 C-1.2675 3.8475 -1.5975 4.5075 -1.9375 5.1875 C-2.9275 5.1875 -3.9175 5.1875 -4.9375 5.1875 C-3.82120474 0.24390669 -3.82120474 0.24390669 0 0 Z " fill="#000000" transform="translate(315.9375,693.8125)"/>
<path d="M0 0 C0.66 0.33 1.32 0.66 2 1 C2 1.66 2 2.32 2 3 C2.99 3.33 3.98 3.66 5 4 C5 4.66 5 5.32 5 6 C3.71086513 6.67154933 2.41859796 7.33708859 1.125 8 C0.40570313 8.37125 -0.31359375 8.7425 -1.0546875 9.125 C-3 10 -3 10 -5 10 C-5 9.34 -5 8.68 -5 8 C-5.66 8 -6.32 8 -7 8 C-6.875 6.25 -6.875 6.25 -6 4 C-2.9375 1.75 -2.9375 1.75 0 0 Z " fill="#000000" transform="translate(121,410)"/>
<path d="M0 0 C0 4.95 0 9.9 0 15 C-0.99 15 -1.98 15 -3 15 C-3 11.37 -3 7.74 -3 4 C-3.99 4.33 -4.98 4.66 -6 5 C-5.625 3.0625 -5.625 3.0625 -5 1 C-3 0 -3 0 0 0 Z " fill="#000000" transform="translate(303,694)"/>
<path d="M0 0 C0 4.95 0 9.9 0 15 C-0.99 15 -1.98 15 -3 15 C-3 11.37 -3 7.74 -3 4 C-3.99 4.33 -4.98 4.66 -6 5 C-5.625 3.0625 -5.625 3.0625 -5 1 C-3 0 -3 0 0 0 Z " fill="#000000" transform="translate(390,338)"/>
<path d="M0 0 C0 4.95 0 9.9 0 15 C-0.99 15 -1.98 15 -3 15 C-3 11.37 -3 7.74 -3 4 C-3.99 4.33 -4.98 4.66 -6 5 C-5.625 3.0625 -5.625 3.0625 -5 1 C-3 0 -3 0 0 0 Z " fill="#000000" transform="translate(439,4)"/>
<path d="M0 0 C0.66 0 1.32 0 2 0 C2 0.66 2 1.32 2 2 C2.66 2 3.32 2 4 2 C4 2.99 4 3.98 4 5 C3.34 5 2.68 5 2 5 C2 6.98 2 8.96 2 11 C1.01 10.67 0.02 10.34 -1 10 C-1.33 9.34 -1.66 8.68 -2 8 C-2.99 8 -3.98 8 -5 8 C-5 7.01 -5 6.02 -5 5 C-3.68 4.67 -2.36 4.34 -1 4 C-0.67 2.68 -0.34 1.36 0 0 Z " fill="#000000" transform="translate(344,430)"/>
<path d="M0 0 C0 4.95 0 9.9 0 15 C-0.66 15 -1.32 15 -2 15 C-2.33 11.37 -2.66 7.74 -3 4 C-3.99 4.33 -4.98 4.66 -6 5 C-6 4.01 -6 3.02 -6 2 C-3 0 -3 0 0 0 Z " fill="#000000" transform="translate(451,4)"/>
<path d="M0 0 C0.99 0.33 1.98 0.66 3 1 C1.56036361 4.35915158 -0.12416589 6.71624938 -3 9 C-5.1328125 8.60546875 -5.1328125 8.60546875 -7 8 C-6.02133662 6.85373678 -5.04205413 5.70800212 -4.0625 4.5625 C-3.51722656 3.92441406 -2.97195313 3.28632812 -2.41015625 2.62890625 C-1.63204305 1.73008851 -0.84063472 0.84063472 0 0 Z " fill="#000000" transform="translate(279,567)"/>
<path d="M0 0 C3 0 3 0 4.60546875 1.42578125 C5.12753906 2.04839844 5.64960937 2.67101562 6.1875 3.3125 C6.71730469 3.92738281 7.24710937 4.54226563 7.79296875 5.17578125 C9 7 9 7 9 10 C5.54537888 9.74410214 4.72618453 8.71373837 2.25 6.125 C0 3 0 3 0 0 Z " fill="#000000" transform="translate(67,686)"/>
<path d="M0 0 C0.99 0.33 1.98 0.66 3 1 C1.55873214 4.36295835 -0.20592655 6.62927102 -3 9 C-3.99 9 -4.98 9 -6 9 C-5.52797514 4.75177626 -3.03344482 2.80010291 0 0 Z " fill="#000000" transform="translate(117,588)"/>
<path d="M0 0 C0.66 0.33 1.32 0.66 2 1 C0.44396229 4.81936528 -1.95604931 7.26044438 -5 10 C-5.66 10 -6.32 10 -7 10 C-7.33 9.01 -7.66 8.02 -8 7 C-5.36 4.69 -2.72 2.38 0 0 Z " fill="#000000" transform="translate(265,581)"/>
<path d="M0 0 C-1.31224548 3.93673644 -2.91910327 6.22719294 -6 9 C-6.99 8.67 -7.98 8.34 -9 8 C-7.13554727 3.64961029 -5.02378599 0 0 0 Z " fill="#000000" transform="translate(296,553)"/>
<path d="M0 0 C0.33 0.99 0.66 1.98 1 3 C-0.26239712 3.86658615 -1.53527501 4.71792059 -2.8125 5.5625 C-3.87404297 6.27599609 -3.87404297 6.27599609 -4.95703125 7.00390625 C-7 8 -7 8 -10 7 C-10 6.34 -10 5.68 -10 5 C-8.3203125 3.7109375 -8.3203125 3.7109375 -6.125 2.375 C-5.40570313 1.92898438 -4.68640625 1.48296875 -3.9453125 1.0234375 C-2 0 -2 0 0 0 Z " fill="#000000" transform="translate(263,483)"/>
<path d="M0 0 C0 0.66 0 1.32 0 2 C-1.6796875 3.2890625 -1.6796875 3.2890625 -3.875 4.625 C-4.95394531 5.29402344 -4.95394531 5.29402344 -6.0546875 5.9765625 C-8 7 -8 7 -10 7 C-10.33 6.01 -10.66 5.02 -11 4 C-9.73760288 3.13341385 -8.46472499 2.28207941 -7.1875 1.4375 C-6.47980469 0.96183594 -5.77210938 0.48617188 -5.04296875 -0.00390625 C-3 -1 -3 -1 0 0 Z " fill="#000000" transform="translate(281,473)"/>
<path d="M0 0 C0.66 0 1.32 0 2 0 C2.67119549 1.4562545 3.33681807 2.91507867 4 4.375 C4.556875 5.59316406 4.556875 5.59316406 5.125 6.8359375 C6 9 6 9 6 11 C4.109375 10.78515625 4.109375 10.78515625 2 10 C0.953125 7.93359375 0.953125 7.93359375 0.25 5.4375 C0.00765625 4.61121094 -0.2346875 3.78492188 -0.484375 2.93359375 C-0.65453125 2.29550781 -0.8246875 1.65742188 -1 1 C-0.67 0.67 -0.34 0.34 0 0 Z " fill="#000000" transform="translate(418,129)"/>
<path d="M0 0 C3.96 0 7.92 0 12 0 C12 0.99 12 1.98 12 3 C7.6835078 3.76173392 4.25566547 4.16063604 0 3 C0 2.01 0 1.02 0 0 Z " fill="#000000" transform="translate(85,700)"/>
<path d="M0 0 C0.66 0.33 1.32 0.66 2 1 C1 4 1 4 -1.06640625 5.16796875 C-1.89011719 5.50441406 -2.71382813 5.84085938 -3.5625 6.1875 C-4.38878906 6.53167969 -5.21507813 6.87585938 -6.06640625 7.23046875 C-6.70449219 7.48441406 -7.34257813 7.73835937 -8 8 C-8 6.68 -8 5.36 -8 4 C-6.71349294 3.30289269 -5.42059335 2.61757124 -4.125 1.9375 C-3.40570313 1.55464844 -2.68640625 1.17179688 -1.9453125 0.77734375 C-1.30335937 0.52082031 -0.66140625 0.26429688 0 0 Z " fill="#000000" transform="translate(116,692)"/>
<path d="M0 0 C0.33 0.99 0.66 1.98 1 3 C-0.26691507 3.67408308 -1.53870749 4.33900497 -2.8125 5 C-3.52019531 5.37125 -4.22789062 5.7425 -4.95703125 6.125 C-7 7 -7 7 -10 7 C-10 6.01 -10 5.02 -10 4 C-8.71086513 3.32845067 -7.41859796 2.66291141 -6.125 2 C-5.40570313 1.62875 -4.68640625 1.2575 -3.9453125 0.875 C-2 0 -2 0 0 0 Z " fill="#000000" transform="translate(136,683)"/>
<path d="M0 0 C-0.125 1.75 -0.125 1.75 -1 4 C-3.875 6.3125 -3.875 6.3125 -7 8 C-7.99 7.67 -8.98 7.34 -10 7 C-10 6.34 -10 5.68 -10 5 C-8.57421875 3.7109375 -8.57421875 3.7109375 -6.6875 2.375 C-6.07261719 1.92898438 -5.45773438 1.48296875 -4.82421875 1.0234375 C-3 0 -3 0 0 0 Z " fill="#000000" transform="translate(171,661)"/>
<path d="M0 0 C0.99 0.33 1.98 0.66 3 1 C0.14723863 3.93200474 -2.65079784 6.64315404 -6 9 C-6.33 7.68 -6.66 6.36 -7 5 C-5.90554162 4.13342884 -4.79902219 3.28207276 -3.6875 2.4375 C-3.07261719 1.96183594 -2.45773438 1.48617187 -1.82421875 0.99609375 C-1.22222656 0.66738281 -0.62023437 0.33867188 0 0 Z " fill="#000000" transform="translate(218,623)"/>
<path d="M0 0 C0.99 0.33 1.98 0.66 3 1 C0.35039045 4.63094642 -2.01824456 6.89851796 -6 9 C-6 5 -6 5 -3.1875 2.1875 C-2.135625 1.465625 -1.08375 0.74375 0 0 Z " fill="#000000" transform="translate(249,596)"/>
<path d="M0 0 C-0.33 0.99 -0.66 1.98 -1 3 C-4.6037898 4.52160014 -7.05220686 5 -11 5 C-11 4.01 -11 3.02 -11 2 C-9.54494642 1.47007308 -8.08581873 0.9513211 -6.625 0.4375 C-5.81289062 0.14746094 -5.00078125 -0.14257812 -4.1640625 -0.44140625 C-2 -1 -2 -1 0 0 Z " fill="#000000" transform="translate(236,366)"/>
<path d="M0 0 C0 0.66 0 1.32 0 2 C-1.26418246 2.69965443 -2.53665402 3.38434763 -3.8125 4.0625 C-4.52019531 4.44535156 -5.22789062 4.82820312 -5.95703125 5.22265625 C-8 6 -8 6 -11 5 C-11 4.34 -11 3.68 -11 3 C-9.73581754 2.30034557 -8.46334598 1.61565237 -7.1875 0.9375 C-6.47980469 0.55464844 -5.77210938 0.17179688 -5.04296875 -0.22265625 C-3 -1 -3 -1 0 0 Z " fill="#000000" transform="translate(210,138)"/>
<path d="M0 0 C4.87685861 1.35468295 6.48592381 3.71675909 9 8 C5 8 5 8 3.296875 6.46875 C2.78640625 5.8190625 2.2759375 5.169375 1.75 4.5 C1.22921875 3.8503125 0.7084375 3.200625 0.171875 2.53125 C-0.21484375 2.0259375 -0.6015625 1.520625 -1 1 C-0.67 0.67 -0.34 0.34 0 0 Z " fill="#000000" transform="translate(404,113)"/>
<path d="M0 0 C4.51478398 0.53115106 7.34666857 2.36620292 11 5 C10.67 5.66 10.34 6.32 10 7 C6.33118845 6.29445932 3.29549466 4.72264494 0 3 C0 2.01 0 1.02 0 0 Z " fill="#000000" transform="translate(386,101)"/>
<path d="M0 0 C0.66 0.33 1.32 0.66 2 1 C0.54875366 4.82601307 -1.35774704 6.22329124 -5 8 C-5.99 8 -6.98 8 -8 8 C-8 7.01 -8 6.02 -8 5 C-6.3203125 3.578125 -6.3203125 3.578125 -4.125 2.25 C-3.40570313 1.80140625 -2.68640625 1.3528125 -1.9453125 0.890625 C-1.30335938 0.59671875 -0.66140625 0.3028125 0 0 Z " fill="#000000" transform="translate(152,672)"/>
<path d="M0 0 C0.66 0 1.32 0 2 0 C2.66 3.63 3.32 7.26 4 11 C3.01 11.33 2.02 11.66 1 12 C-1.32488647 8.36736489 -1.23961213 5.23314767 -1 1 C-0.67 0.67 -0.34 0.34 0 0 Z " fill="#000000" transform="translate(60,666)"/>
<path d="M0 0 C-0.33214151 3.09998746 -1.0545012 4.0545012 -3.3125 6.3125 C-6 8 -6 8 -8.3125 7.75 C-8.869375 7.5025 -9.42625 7.255 -10 7 C-3.18421053 0 -3.18421053 0 0 0 Z " fill="#000000" transform="translate(204,636)"/>
<path d="M0 0 C0.66 0.33 1.32 0.66 2 1 C0.50958227 4.79379058 -1.69062512 6.68343758 -5 9 C-5.66 9 -6.32 9 -7 9 C-6.82374165 6.62051228 -6.30280227 5.29774151 -4.59765625 3.62109375 C-3.09350908 2.37884514 -1.54870149 1.18623944 0 0 Z " fill="#000000" transform="translate(234,609)"/>
<path d="M0 0 C-0.125 1.75 -0.125 1.75 -1 4 C-3.875 6.3125 -3.875 6.3125 -7 8 C-7.99 7.67 -8.98 7.34 -10 7 C-10 6.34 -10 5.68 -10 5 C-8.3203125 3.7109375 -8.3203125 3.7109375 -6.125 2.375 C-5.40570313 1.92898438 -4.68640625 1.48296875 -3.9453125 1.0234375 C-2 0 -2 0 0 0 Z " fill="#000000" transform="translate(246,494)"/>
<path d="M0 0 C0.99 0.33 1.98 0.66 3 1 C3 1.66 3 2.32 3 3 C1.3203125 4.2890625 1.3203125 4.2890625 -0.875 5.625 C-1.95394531 6.29402344 -1.95394531 6.29402344 -3.0546875 6.9765625 C-5 8 -5 8 -7 8 C-6.875 6.25 -6.875 6.25 -6 4 C-3.125 1.6875 -3.125 1.6875 0 0 Z " fill="#000000" transform="translate(295,461)"/>
<path d="M0 0 C0 0.99 0 1.98 0 3 C-6.4 6.07692308 -6.4 6.07692308 -9.4375 5.6875 C-9.953125 5.460625 -10.46875 5.23375 -11 5 C-7.92351092 1.43774949 -4.70156256 0 0 0 Z " fill="#000000" transform="translate(217,372)"/>
<path d="M0 0 C0 0.99 0 1.98 0 3 C-3.87684087 4.19287411 -6.91621923 5 -11 5 C-11 4.01 -11 3.02 -11 2 C-7.12315913 0.80712589 -4.08378077 0 0 0 Z " fill="#000000" transform="translate(255,360)"/>
<path d="M0 0 C-1.48781815 3.78717347 -3.61988409 5.77407001 -7 8 C-7.99 7.67 -8.98 7.34 -10 7 C-10 6.34 -10 5.68 -10 5 C-8.57421875 3.7109375 -8.57421875 3.7109375 -6.6875 2.375 C-6.07261719 1.92898438 -5.45773438 1.48296875 -4.82421875 1.0234375 C-3 0 -3 0 0 0 Z " fill="#000000" transform="translate(188,649)"/>
<path d="M0 0 C0.99 0.33 1.98 0.66 3 1 C1.49776416 5.20626034 -1.28550034 6.73900021 -5 9 C-5 5 -5 5 -2.5 2.25 C-1.675 1.5075 -0.85 0.765 0 0 Z " fill="#000000" transform="translate(131,575)"/>
<path d="M0 0 C0.66 0.33 1.32 0.66 2 1 C0.50958227 4.79379058 -1.69062512 6.68343758 -5 9 C-5.66 9 -6.32 9 -7 9 C-6.82374165 6.62051228 -6.30280227 5.29774151 -4.59765625 3.62109375 C-3.09350908 2.37884514 -1.54870149 1.18623944 0 0 Z " fill="#000000" transform="translate(147,562)"/>
<path d="M0 0 C0.8353125 0.37125 0.8353125 0.37125 1.6875 0.75 C-1.12054268 3.71404505 -3.49565774 6.19499019 -7.3125 7.75 C-7.3125 3.75 -7.3125 3.75 -5.0625 1.4375 C-2.3125 -0.25 -2.3125 -0.25 0 0 Z " fill="#000000" transform="translate(178.3125,539.25)"/>
<path d="M0 0 C0.66 0.33 1.32 0.66 2 1 C0.7508258 4.45925163 -0.67527795 7.14693203 -3 10 C-3.99 9.67 -4.98 9.34 -6 9 C-4.47291037 5.56404834 -2.40072955 2.88087546 0 0 Z " fill="#000000" transform="translate(306,537)"/>
<path d="M0 0 C0.66 0.99 1.32 1.98 2 3 C0.90241493 3.84198307 -0.20335317 4.67330671 -1.3125 5.5 C-1.92738281 5.9640625 -2.54226562 6.428125 -3.17578125 6.90625 C-5 8 -5 8 -8 8 C-8 7.01 -8 6.02 -8 5 C-6.25 3.61328125 -6.25 3.61328125 -4 2.3125 C-3.2575 1.87550781 -2.515 1.43851563 -1.75 0.98828125 C-1.1725 0.66214844 -0.595 0.33601562 0 0 Z " fill="#000000" transform="translate(194,527)"/>
<path d="M0 0 C0.66 0.33 1.32 0.66 2 1 C0.54875366 4.82601307 -1.35774704 6.22329124 -5 8 C-5.99 8 -6.98 8 -8 8 C-6.49776416 3.79373966 -3.71449966 2.26099979 0 0 Z " fill="#000000" transform="translate(227,505)"/>
<path d="M0 0 C-1.49835228 4.66154042 -4.88463591 5.86610751 -9 8 C-9 6.68 -9 5.36 -9 4 C-4 0 -4 0 0 0 Z " fill="#000000" transform="translate(315,450)"/>
<path d="M0 0 C-1 3 -1 3 -3.8125 4.75 C-6.96403086 5.98589446 -7.96929372 6.28222189 -11 5 C-7.56138316 1.21752148 -5.17193751 0 0 0 Z " fill="#000000" transform="translate(162,396)"/>
<path d="M0 0 C0.33 1.32 0.66 2.64 1 4 C-3.95 5.485 -3.95 5.485 -9 7 C-9 6.01 -9 5.02 -9 4 C-6.03 2.68 -3.06 1.36 0 0 Z " fill="#000000" transform="translate(197,379)"/>
<path d="M0 0 C4.38462134 0.50109958 6.8000997 1.98295115 10 5 C10 5.66 10 6.32 10 7 C9.01 7.33 8.02 7.66 7 8 C5.17578125 6.85546875 5.17578125 6.85546875 3.3125 5.1875 C2.37857422 4.37345703 2.37857422 4.37345703 1.42578125 3.54296875 C0 2 0 2 0 0 Z " fill="#000000" transform="translate(322,359)"/>
<path d="M0 0 C0.99 0.33 1.98 0.66 3 1 C0.19195732 3.96404505 -2.18315774 6.44499019 -6 8 C-6.33 7.01 -6.66 6.02 -7 5 C-5.90554162 4.13342884 -4.79902219 3.28207276 -3.6875 2.4375 C-3.07261719 1.96183594 -2.45773438 1.48617188 -1.82421875 0.99609375 C-1.22222656 0.66738281 -0.62023437 0.33867187 0 0 Z " fill="#000000" transform="translate(197,354)"/>
<path d="M0 0 C0 0.99 0 1.98 0 3 C-3.63 3.33 -7.26 3.66 -11 4 C-11 3.01 -11 2.02 -11 1 C-7.32589215 -0.17571451 -3.83070817 -0.07366746 0 0 Z " fill="#000000" transform="translate(294,353)"/>
<path d="M0 0 C-0.0625 1.75 -0.0625 1.75 -1 4 C-3.24164322 5.59501537 -5.53566643 6.74543018 -8 8 C-8 6.68 -8 5.36 -8 4 C-3.88888889 0 -3.88888889 0 0 0 Z " fill="#000000" transform="translate(323,263)"/>
<path d="M0 0 C0.99 0.33 1.98 0.66 3 1 C3 1.66 3 2.32 3 3 C1.57421875 4.32421875 1.57421875 4.32421875 -0.3125 5.6875 C-0.92738281 6.14511719 -1.54226563 6.60273438 -2.17578125 7.07421875 C-2.77777344 7.37972656 -3.37976563 7.68523437 -4 8 C-4.99 7.67 -5.98 7.34 -7 7 C-4.78071806 4.09197539 -3.07030857 2.04687238 0 0 Z " fill="#000000" transform="translate(367,228)"/>
<path d="M0 0 C-0.125 1.75 -0.125 1.75 -1 4 C-6.22222222 8 -6.22222222 8 -9 8 C-9.33 7.01 -9.66 6.02 -10 5 C-8.71186658 4.16121545 -7.41936744 3.32913217 -6.125 2.5 C-5.40570313 2.0359375 -4.68640625 1.571875 -3.9453125 1.09375 C-2 0 -2 0 0 0 Z " fill="#000000" transform="translate(142,176)"/>
<path d="M0 0 C0.99 0 1.98 0 3 0 C2.49357808 4.35522853 1.61588503 7.44239635 -1 11 C-1.66 11 -2.32 11 -3 11 C-2.44894091 7.0507432 -1.61064629 3.65079826 0 0 Z " fill="#000000" transform="translate(420,171)"/>
<path d="M0 0 C0.66 0.99 1.32 1.98 2 3 C0.90241493 3.84198307 -0.20335317 4.67330671 -1.3125 5.5 C-1.92738281 5.9640625 -2.54226562 6.428125 -3.17578125 6.90625 C-5 8 -5 8 -8 8 C-8 7.01 -8 6.02 -8 5 C-6.25 3.61328125 -6.25 3.61328125 -4 2.3125 C-3.2575 1.87550781 -2.515 1.43851563 -1.75 0.98828125 C-1.1725 0.66214844 -0.595 0.33601562 0 0 Z " fill="#000000" transform="translate(157,165)"/>
<path d="M0 0 C0 0.99 0 1.98 0 3 C-5.17578125 6.22265625 -5.17578125 6.22265625 -7 7 C-7.99 6.67 -8.98 6.34 -10 6 C-10 5.34 -10 4.68 -10 4 C-3.375 0 -3.375 0 0 0 Z " fill="#000000" transform="translate(175,156)"/>
<path d="M0 0 C0.99 0 1.98 0 3 0 C3 3.63 3 7.26 3 11 C2.01 11 1.02 11 0 11 C0 7.37 0 3.74 0 0 Z " fill="#000000" transform="translate(423,150)"/>
<path d="M0 0 C1.45880109 0.14107747 2.91703551 0.28802415 4.375 0.4375 C5.59316406 0.55931641 5.59316406 0.55931641 6.8359375 0.68359375 C9 1 9 1 11 2 C11 2.99 11 3.98 11 5 C7.37 4.34 3.74 3.68 0 3 C0 2.01 0 1.02 0 0 Z " fill="#000000" transform="translate(366,94)"/>
<path d="M0 0 C0.99 0.33 1.98 0.66 3 1 C1.7508258 4.45925163 0.32472205 7.14693203 -2 10 C-2.99 9.67 -3.98 9.34 -5 9 C-3.35 6.03 -1.7 3.06 0 0 Z " fill="#000000" transform="translate(78,632)"/>
<path d="M0 0 C0.99 0 1.98 0 3 0 C1.76067171 3.43198603 0.49698489 6.30325632 -2 9 C-2.99 9 -3.98 9 -5 9 C-4.42636089 5.12793601 -2.65894107 2.81534937 0 0 Z " fill="#000000" transform="translate(90,617)"/>
<path d="M0 0 C0.66 0.33 1.32 0.66 2 1 C0.61198929 4.35435922 -0.88629 6.11290303 -4 8 C-4.99 8 -5.98 8 -7 8 C-7 7.01 -7 6.02 -7 5 C-5.46875 3.61328125 -5.46875 3.61328125 -3.5 2.3125 C-2.8503125 1.87550781 -2.200625 1.43851563 -1.53125 0.98828125 C-1.0259375 0.66214844 -0.520625 0.33601562 0 0 Z " fill="#000000" transform="translate(162,550)"/>
<path d="M0 0 C-1.45124634 3.82601307 -3.35774704 5.22329124 -7 7 C-7.99 7 -8.98 7 -10 7 C-8.2054392 2.26888516 -5.07937287 0 0 0 Z " fill="#000000" transform="translate(212,517)"/>
<path d="M0 0 C0.99 0.66 1.98 1.32 3 2 C1.68 4.64 0.36 7.28 -1 10 C-1.99 10 -2.98 10 -4 10 C-3.43454163 6.04179141 -2.19097652 3.3340947 0 0 Z " fill="#000000" transform="translate(325,504)"/>
<path d="M0 0 C0.99 0 1.98 0 3 0 C2.67 3.63 2.34 7.26 2 11 C1.01 10.67 0.02 10.34 -1 10 C-0.67 6.7 -0.34 3.4 0 0 Z " fill="#000000" transform="translate(341,449)"/>
<path d="M0 0 C0.99 0.33 1.98 0.66 3 1 C0.19195732 3.96404505 -2.18315774 6.44499019 -6 8 C-6 6.68 -6 5.36 -6 4 C-3.1875 1.6875 -3.1875 1.6875 0 0 Z " fill="#000000" transform="translate(136,399)"/>
<path d="M0 0 C0.66 0 1.32 0 2 0 C3.17571451 3.67410785 3.07366746 7.16929183 3 11 C2.01 11 1.02 11 0 11 C-0.19406478 9.35492782 -0.38007935 7.70890406 -0.5625 6.0625 C-0.66691406 5.14597656 -0.77132813 4.22945313 -0.87890625 3.28515625 C-0.91886719 2.53105469 -0.95882813 1.77695312 -1 1 C-0.67 0.67 -0.34 0.34 0 0 Z " fill="#000000" transform="translate(342,391)"/>
<path d="M0 0 C0.66 0.33 1.32 0.66 2 1 C1.67 1.99 1.34 2.98 1 4 C-1.06640625 4.94921875 -1.06640625 4.94921875 -3.5625 5.6875 C-4.38878906 5.93886719 -5.21507812 6.19023437 -6.06640625 6.44921875 C-6.70449219 6.63097656 -7.34257812 6.81273437 -8 7 C-7.71484375 5.11328125 -7.71484375 5.11328125 -7 3 C-3.5625 1.1875 -3.5625 1.1875 0 0 Z " fill="#000000" transform="translate(178,387)"/>
<path d="M0 0 C0.99 0 1.98 0 3 0 C6 6.625 6 6.625 6 10 C5.01 10 4.02 10 3 10 C0 3.375 0 3.375 0 0 Z " fill="#000000" transform="translate(335,373)"/>
<path d="M0 0 C-0.33645789 3.14027363 -1.05236086 4.05098295 -3.375 6.3125 C-4.674375 7.1478125 -4.674375 7.1478125 -6 8 C-6.99 7.67 -7.98 7.34 -9 7 C-7.68534669 3.05604006 -4.38536841 0 0 0 Z " fill="#000000" transform="translate(184,365)"/>
<path d="M0 0 C-0.33 1.32 -0.66 2.64 -1 4 C-5.455 4.495 -5.455 4.495 -10 5 C-10 4.01 -10 3.02 -10 2 C-8.7090864 1.66376204 -7.41723903 1.33110751 -6.125 1 C-5.40570313 0.814375 -4.68640625 0.62875 -3.9453125 0.4375 C-2 0 -2 0 0 0 Z " fill="#000000" transform="translate(274,355)"/>
<path d="M0 0 C1.45880109 0.14107747 2.91703551 0.28802415 4.375 0.4375 C5.59316406 0.55931641 5.59316406 0.55931641 6.8359375 0.68359375 C9 1 9 1 11 2 C11 2.99 11 3.98 11 5 C7.37 4.34 3.74 3.68 0 3 C0 2.01 0 1.02 0 0 Z " fill="#000000" transform="translate(303,353)"/>
<path d="M0 0 C0.66 0.33 1.32 0.66 2 1 C0.61198929 4.35435922 -0.88629 6.11290303 -4 8 C-4.99 8 -5.98 8 -7 8 C-7 7.01 -7 6.02 -7 5 C-5.46875 3.61328125 -5.46875 3.61328125 -3.5 2.3125 C-2.8503125 1.87550781 -2.200625 1.43851562 -1.53125 0.98828125 C-1.0259375 0.66214844 -0.520625 0.33601563 0 0 Z " fill="#000000" transform="translate(213,342)"/>
<path d="M0 0 C0.33 0.99 0.66 1.98 1 3 C-0.09445838 3.86657116 -1.20097781 4.71792724 -2.3125 5.5625 C-2.92738281 6.03816406 -3.54226562 6.51382812 -4.17578125 7.00390625 C-4.77777344 7.33261719 -5.37976563 7.66132813 -6 8 C-6.99 7.67 -7.98 7.34 -9 7 C-9 6.34 -9 5.68 -9 5 C-7.5390625 3.7109375 -7.5390625 3.7109375 -5.625 2.375 C-4.99851563 1.92898438 -4.37203125 1.48296875 -3.7265625 1.0234375 C-2 0 -2 0 0 0 Z " fill="#000000" transform="translate(230,331)"/>
<path d="M0 0 C0.99 0.33 1.98 0.66 3 1 C3 1.66 3 2.32 3 3 C1.5390625 4.2890625 1.5390625 4.2890625 -0.375 5.625 C-1.00148437 6.07101562 -1.62796875 6.51703125 -2.2734375 6.9765625 C-4 8 -4 8 -6 8 C-6.33 7.01 -6.66 6.02 -7 5 C-5.90554162 4.13342884 -4.79902219 3.28207276 -3.6875 2.4375 C-3.07261719 1.96183594 -2.45773438 1.48617188 -1.82421875 0.99609375 C-1.22222656 0.66738281 -0.62023437 0.33867187 0 0 Z " fill="#000000" transform="translate(243,320)"/>
<path d="M0 0 C0.99 0.33 1.98 0.66 3 1 C3 1.66 3 2.32 3 3 C1.57421875 4.32421875 1.57421875 4.32421875 -0.3125 5.6875 C-0.92738281 6.14511719 -1.54226563 6.60273438 -2.17578125 7.07421875 C-2.77777344 7.37972656 -3.37976563 7.68523437 -4 8 C-4.99 7.67 -5.98 7.34 -7 7 C-4.66666667 4.66666667 -2.33333333 2.33333333 0 0 Z " fill="#000000" transform="translate(274,297)"/>
<path d="M0 0 C0.66 0.33 1.32 0.66 2 1 C0.65117186 5.04648443 -1.34826069 5.95502599 -5 8 C-5.99 7.67 -6.98 7.34 -8 7 C-5.42215154 4.35247996 -3.08351902 2.05567935 0 0 Z " fill="#000000" transform="translate(306,274)"/>
<path d="M0 0 C0.66 0.33 1.32 0.66 2 1 C0.65117186 5.04648443 -1.34826069 5.95502599 -5 8 C-5.99 7.67 -6.98 7.34 -8 7 C-5.42215154 4.35247996 -3.08351902 2.05567935 0 0 Z " fill="#000000" transform="translate(337,251)"/>
<path d="M0 0 C0.66 0.33 1.32 0.66 2 1 C0.61198929 4.35435922 -0.88629 6.11290303 -4 8 C-4.99 8 -5.98 8 -7 8 C-7 7.01 -7 6.02 -7 5 C-5.46875 3.61328125 -5.46875 3.61328125 -3.5 2.3125 C-2.8503125 1.87550781 -2.200625 1.43851563 -1.53125 0.98828125 C-1.0259375 0.66214844 -0.520625 0.33601562 0 0 Z " fill="#000000" transform="translate(383,216)"/>
<path d="M0 0 C0.66 0.33 1.32 0.66 2 1 C0.61198929 4.35435922 -0.88629 6.11290303 -4 8 C-4.99 8 -5.98 8 -7 8 C-7 7.01 -7 6.02 -7 5 C-5.46875 3.61328125 -5.46875 3.61328125 -3.5 2.3125 C-2.8503125 1.87550781 -2.200625 1.43851563 -1.53125 0.98828125 C-1.0259375 0.66214844 -0.520625 0.33601562 0 0 Z " fill="#000000" transform="translate(398,204)"/>
<path d="M0 0 C0.99 0.33 1.98 0.66 3 1 C1.02 3.97 -0.96 6.94 -3 10 C-3.66 9.67 -4.32 9.34 -5 9 C-3.7508258 5.54074837 -2.32472205 2.85306797 0 0 Z " fill="#000000" transform="translate(411,190)"/>
<path d="M0 0 C-0.125 1.8125 -0.125 1.8125 -1 4 C-3.875 5.8125 -3.875 5.8125 -7 7 C-7.99 6.67 -8.98 6.34 -10 6 C-4.4 0 -4.4 0 0 0 Z " fill="#000000" transform="translate(192,146)"/>
<path d="M0 0 C-1 3 -1 3 -3.875 4.6875 C-7 6 -7 6 -10 6 C-10 5.01 -10 4.02 -10 3 C-6.27034861 0.96564469 -4.33094958 0 0 0 Z " fill="#000000" transform="translate(227,129)"/>
<path d="M0 0 C-0.33 0.99 -0.66 1.98 -1 3 C-3.06640625 3.94921875 -3.06640625 3.94921875 -5.5625 4.6875 C-6.38878906 4.93886719 -7.21507812 5.19023438 -8.06640625 5.44921875 C-8.70449219 5.63097656 -9.34257812 5.81273438 -10 6 C-10 5.01 -10 4.02 -10 3 C-6.27034861 0.96564469 -4.33094958 0 0 0 Z " fill="#000000" transform="translate(245,121)"/>
<path d="M0 0 C0.66 0.33 1.32 0.66 2 1 C1.67 1.99 1.34 2.98 1 4 C-1.06640625 4.94921875 -1.06640625 4.94921875 -3.5625 5.6875 C-4.38878906 5.93886719 -5.21507812 6.19023438 -6.06640625 6.44921875 C-6.70449219 6.63097656 -7.34257812 6.81273438 -8 7 C-8.33 6.01 -8.66 5.02 -9 4 C-7.54618103 3.30300448 -6.08677047 2.61766134 -4.625 1.9375 C-3.40683594 1.36322266 -3.40683594 1.36322266 -2.1640625 0.77734375 C-1.44992187 0.52082031 -0.73578125 0.26429687 0 0 Z " fill="#000000" transform="translate(261,113)"/>
<path d="M0 0 C0 0.99 0 1.98 0 3 C-3.3 3.66 -6.6 4.32 -10 5 C-10.33 4.01 -10.66 3.02 -11 2 C-7.12315913 0.80712589 -4.08378077 0 0 0 Z " fill="#000000" transform="translate(300,102)"/>
<path d="M0 0 C0 0.66 0 1.32 0 2 C-3.87684087 3.19287411 -6.91621923 4 -11 4 C-11 3.01 -11 2.02 -11 1 C-9.5437328 0.63743142 -8.08488815 0.28520207 -6.625 -0.0625 C-5.40683594 -0.35833984 -5.40683594 -0.35833984 -4.1640625 -0.66015625 C-2 -1 -2 -1 0 0 Z " fill="#000000" transform="translate(319,98)"/>
<path d="M0 0 C1.22589844 0.01353516 1.22589844 0.01353516 2.4765625 0.02734375 C3.41628906 0.04474609 3.41628906 0.04474609 4.375 0.0625 C4.375 1.0525 4.375 2.0425 4.375 3.0625 C1.075 3.3925 -2.225 3.7225 -5.625 4.0625 C-5.955 3.0725 -6.285 2.0825 -6.625 1.0625 C-4.21954362 -0.14022819 -2.67503047 -0.03821472 0 0 Z " fill="#000000" transform="translate(333.625,94.9375)"/>
<path d="M0 0 C0.99 0.66 1.98 1.32 3 2 C1.35 4.64 -0.3 7.28 -2 10 C-2.99 9.67 -3.98 9.34 -5 9 C-3.35 6.03 -1.7 3.06 0 0 Z " fill="#000000" transform="translate(316,521)"/>
<path d="M0 0 C0.99 0.33 1.98 0.66 3 1 C2.01 3.97 1.02 6.94 0 10 C-0.99 10 -1.98 10 -3 10 C-2.39009109 6.44219804 -1.4216319 3.3171411 0 0 Z " fill="#000000" transform="translate(332,486)"/>
<path d="M0 0 C0.66 0.33 1.32 0.66 2 1 C1 4 1 4 -1.875 5.6875 C-5 7 -5 7 -8 7 C-6.89300099 3.78970286 -5.98396175 2.99031023 -3 1.1875 C-1.515 0.5996875 -1.515 0.5996875 0 0 Z " fill="#000000" transform="translate(330,439)"/>
<path d="M0 0 C0.66 0.33 1.32 0.66 2 1 C2 1.66 2 2.32 2 3 C0.73581754 3.69965443 -0.53665402 4.38434763 -1.8125 5.0625 C-2.52019531 5.44535156 -3.22789062 5.82820313 -3.95703125 6.22265625 C-6 7 -6 7 -9 6 C-9 5.34 -9 4.68 -9 4 C-7.54618103 3.30300448 -6.08677047 2.61766134 -4.625 1.9375 C-3.40683594 1.36322266 -3.40683594 1.36322266 -2.1640625 0.77734375 C-1.44992188 0.52082031 -0.73578125 0.26429688 0 0 Z " fill="#000000" transform="translate(142,404)"/>
<path d="M0 0 C0.99 0.33 1.98 0.66 3 1 C0.19195732 3.96404505 -2.18315774 6.44499019 -6 8 C-6.33 7.01 -6.66 6.02 -7 5 C-5.90554162 4.13342884 -4.79902219 3.28207276 -3.6875 2.4375 C-3.07261719 1.96183594 -2.45773438 1.48617188 -1.82421875 0.99609375 C-1.22222656 0.66738281 -0.62023437 0.33867187 0 0 Z " fill="#000000" transform="translate(151,388)"/>
<path d="M0 0 C0.66 0.33 1.32 0.66 2 1 C0.61198929 4.35435922 -0.88629 6.11290303 -4 8 C-4.99 8 -5.98 8 -7 8 C-7 7.01 -7 6.02 -7 5 C-5.46875 3.61328125 -5.46875 3.61328125 -3.5 2.3125 C-2.8503125 1.87550781 -2.200625 1.43851562 -1.53125 0.98828125 C-1.0259375 0.66214844 -0.520625 0.33601563 0 0 Z " fill="#000000" transform="translate(167,376)"/>
<path d="M0 0 C0 0.99 0 1.98 0 3 C-1.75 4.38671875 -1.75 4.38671875 -4 5.6875 C-4.7425 6.12449219 -5.485 6.56148438 -6.25 7.01171875 C-6.8275 7.33785156 -7.405 7.66398437 -8 8 C-8 6.68 -8 5.36 -8 4 C-3.88888889 0 -3.88888889 0 0 0 Z " fill="#000000" transform="translate(292,286)"/>
<path d="M0 0 C0 0.99 0 1.98 0 3 C-1.75 4.38671875 -1.75 4.38671875 -4 5.6875 C-4.7425 6.12449219 -5.485 6.56148437 -6.25 7.01171875 C-6.8275 7.33785156 -7.405 7.66398438 -8 8 C-8 6.68 -8 5.36 -8 4 C-3.88888889 0 -3.88888889 0 0 0 Z " fill="#000000" transform="translate(354,240)"/>
<path d="M0 0 C0.66 0.33 1.32 0.66 2 1 C0.55746343 4.36591866 -1.33264727 6.51047079 -4 9 C-4.99 8.67 -5.98 8.34 -7 8 C-6.02133662 6.85373678 -5.04205413 5.70800212 -4.0625 4.5625 C-3.51722656 3.92441406 -2.97195312 3.28632812 -2.41015625 2.62890625 C-1.63204305 1.73008851 -0.84063472 0.84063472 0 0 Z " fill="#000000" transform="translate(104,602)"/>
<path d="M0 0 C0.66 0.33 1.32 0.66 2 1 C1 4 1 4 -0.84765625 4.94921875 C-1.57855469 5.19285156 -2.30945313 5.43648438 -3.0625 5.6875 C-4.16271484 6.06455078 -4.16271484 6.06455078 -5.28515625 6.44921875 C-5.85105469 6.63097656 -6.41695313 6.81273437 -7 7 C-7 5.68 -7 4.36 -7 3 C-4.69631264 1.93347808 -2.35981813 0.93578995 0 0 Z " fill="#000000" transform="translate(363,424)"/>
<path d="M0 0 C0 0.99 0 1.98 0 3 C-5.625 6 -5.625 6 -9 6 C-9 5.01 -9 4.02 -9 3 C-3.375 0 -3.375 0 0 0 Z " fill="#000000" transform="translate(381,417)"/>
<path d="M0 0 C0.66 0.33 1.32 0.66 2 1 C1 4 1 4 -0.84765625 4.94921875 C-1.57855469 5.19285156 -2.30945313 5.43648438 -3.0625 5.6875 C-4.16271484 6.06455078 -4.16271484 6.06455078 -5.28515625 6.44921875 C-5.85105469 6.63097656 -6.41695313 6.81273437 -7 7 C-7 5.68 -7 4.36 -7 3 C-4.69631264 1.93347808 -2.35981813 0.93578995 0 0 Z " fill="#000000" transform="translate(396,409)"/>
<path d="M0 0 C0.66 0.33 1.32 0.66 2 1 C0.61198929 4.35435922 -0.88629 6.11290303 -4 8 C-4.99 8 -5.98 8 -7 8 C-5.50902342 4.2047869 -3.24299151 2.38957269 0 0 Z " fill="#000000" transform="translate(259,308)"/>
<path d="M0 0 C0 0.99 0 1.98 0 3 C-4.95 4.485 -4.95 4.485 -10 6 C-10 5.01 -10 4.02 -10 3 C-8.70990357 2.49596232 -7.41786211 1.99690074 -6.125 1.5 C-5.04605469 1.08234375 -5.04605469 1.08234375 -3.9453125 0.65625 C-2 0 -2 0 0 0 Z " fill="#000000" transform="translate(281,107)"/>
<path d="M0 0 C3.3 0 6.6 0 10 0 C10 0.99 10 1.98 10 3 C6.7 3 3.4 3 0 3 C0 2.01 0 1.02 0 0 Z " fill="#000000" transform="translate(347,94)"/>
<path d="M0 0 C0.66 0.33 1.32 0.66 2 1 C1.35455571 4.48539917 -0.10134397 7.02819057 -2 10 C-2.99 9.67 -3.98 9.34 -5 9 C-3.35 6.03 -1.7 3.06 0 0 Z " fill="#000000" transform="translate(68,648)"/>
<path d="M0 0 C0.66 0 1.32 0 2 0 C1.125 7.75 1.125 7.75 0 10 C-0.99 10 -1.98 10 -3 10 C-2.69201674 8.51988629 -2.378482 7.04092675 -2.0625 5.5625 C-1.88847656 4.73878906 -1.71445312 3.91507812 -1.53515625 3.06640625 C-1 1 -1 1 0 0 Z " fill="#000000" transform="translate(338,468)"/>
<path d="M0 0 C0.99 0 1.98 0 3 0 C4.60725635 3.21451269 4.05748185 6.43612536 4 10 C3.01 10 2.02 10 1 10 C0.67 6.7 0.34 3.4 0 0 Z " fill="#000000" transform="translate(343,411)"/>
<path d="M0 0 C1.32 0 2.64 0 4 0 C4 0.99 4 1.98 4 3 C2.35 3.66 0.7 4.32 -1 5 C-1 1 -1 1 0 0 Z " fill="#000000" transform="translate(104,422)"/>
<path d="M0 0 C0 0.99 0 1.98 0 3 C-1.65 3.33 -3.3 3.66 -5 4 C-5 3.01 -5 2.02 -5 1 C-3 0 -3 0 0 0 Z " fill="#000000" transform="translate(410,404)"/>
<path d="M0 0 C0.99 0.33 1.98 0.66 3 1 C2.67 1.99 2.34 2.98 2 4 C1.01 3.01 0.02 2.02 -1 1 C-0.67 0.67 -0.34 0.34 0 0 Z " fill="#000000" transform="translate(306,706)"/>
<path d="M0 0 C0.99 0.33 1.98 0.66 3 1 C2.67 1.99 2.34 2.98 2 4 C1.01 3.01 0.02 2.02 -1 1 C-0.67 0.67 -0.34 0.34 0 0 Z " fill="#000000" transform="translate(393,350)"/>
<path d="M0 0 C0.99 0.33 1.98 0.66 3 1 C2.67 1.99 2.34 2.98 2 4 C1.01 3.01 0.02 2.02 -1 1 C-0.67 0.67 -0.34 0.34 0 0 Z " fill="#000000" transform="translate(442,16)"/>
</svg>
