<svg width="505" height="782" viewBox="0 0 505 782" fill="none" xmlns="http://www.w3.org/2000/svg">
<path d="M76.5218 164.286C45.4014 202.075 40.297 282.325 41.6349 317.726C89.4885 287.779 190.568 225.292 212.056 214.918C238.915 201.951 376.231 109.965 366.351 143.617C356.472 177.269 275.429 265.173 182.5 305C108.157 336.861 76.3159 417.962 74.0519 442.455C68.3712 481.232 89.1798 481.87 100.294 477.342C106.716 471.661 135.901 451.717 149.692 442.455C287.757 360.949 301.131 377.474 299.999 405.363C254.615 414.317 -22.9352 619.417 5.1595 680.546C27.6353 729.449 98.976 749.85 117.5 741C275.571 683.699 369.322 517.582 390.419 449.455L430.021 419.917V378.238L380.624 396.453C379.389 327.544 348.197 318.412 316.5 318C433.572 280.952 445.767 202.878 453.485 172.93C461.203 66.1087 418.29 56.8467 357.16 45.1149C296.031 33.383 115.422 117.05 76.5218 164.286Z" stroke="black" stroke-width="5"/>
<path d="M438.621 4.45455V19H436.859V6.30114H436.774L433.223 8.65909V6.86932L436.859 4.45455H438.621ZM443.195 19.1136C442.844 19.1136 442.544 18.9882 442.293 18.7372C442.042 18.4863 441.916 18.1856 441.916 17.8352C441.916 17.4848 442.042 17.1842 442.293 16.9332C442.544 16.6823 442.844 16.5568 443.195 16.5568C443.545 16.5568 443.846 16.6823 444.097 16.9332C444.348 17.1842 444.473 17.4848 444.473 17.8352C444.473 18.0672 444.414 18.2803 444.295 18.4744C444.182 18.6686 444.028 18.8248 443.834 18.9432C443.644 19.0568 443.431 19.1136 443.195 19.1136ZM450.828 4.45455V19H449.066V6.30114H448.981L445.43 8.65909V6.86932L449.066 4.45455H450.828Z" fill="black"/>
<path d="M302.621 694.455V709H300.859V696.301H300.774L297.223 698.659V696.869L300.859 694.455H302.621ZM307.195 709.114C306.844 709.114 306.544 708.988 306.293 708.737C306.042 708.486 305.916 708.186 305.916 707.835C305.916 707.485 306.042 707.184 306.293 706.933C306.544 706.682 306.844 706.557 307.195 706.557C307.545 706.557 307.846 706.682 308.097 706.933C308.348 707.184 308.473 707.485 308.473 707.835C308.473 708.067 308.414 708.28 308.295 708.474C308.182 708.669 308.028 708.825 307.834 708.943C307.644 709.057 307.431 709.114 307.195 709.114ZM311.452 709V707.722L316.254 702.466C316.817 701.85 317.281 701.315 317.646 700.861C318.01 700.402 318.28 699.971 318.455 699.568C318.635 699.161 318.725 698.735 318.725 698.29C318.725 697.778 318.602 697.336 318.356 696.962C318.114 696.588 317.783 696.299 317.362 696.095C316.94 695.892 316.467 695.79 315.941 695.79C315.382 695.79 314.895 695.906 314.478 696.138C314.066 696.365 313.746 696.685 313.519 697.097C313.297 697.509 313.185 697.991 313.185 698.545H311.509C311.509 697.693 311.706 696.945 312.099 696.301C312.492 695.657 313.027 695.155 313.704 694.795C314.386 694.436 315.15 694.256 315.998 694.256C316.85 694.256 317.605 694.436 318.264 694.795C318.922 695.155 319.438 695.641 319.812 696.251C320.186 696.862 320.373 697.542 320.373 698.29C320.373 698.825 320.276 699.348 320.082 699.859C319.892 700.366 319.561 700.932 319.087 701.557C318.619 702.177 317.968 702.935 317.134 703.83L313.867 707.324V707.438H320.629V709H311.452Z" fill="black"/>
<path d="M389.621 338.455V353H387.859V340.301H387.774L384.223 342.659V340.869L387.859 338.455H389.621ZM394.195 353.114C393.844 353.114 393.544 352.988 393.293 352.737C393.042 352.486 392.916 352.186 392.916 351.835C392.916 351.485 393.042 351.184 393.293 350.933C393.544 350.682 393.844 350.557 394.195 350.557C394.545 350.557 394.846 350.682 395.097 350.933C395.348 351.184 395.473 351.485 395.473 351.835C395.473 352.067 395.414 352.28 395.295 352.474C395.182 352.669 395.028 352.825 394.834 352.943C394.644 353.057 394.431 353.114 394.195 353.114ZM402.82 353.199C401.883 353.199 401.047 353.038 400.313 352.716C399.584 352.394 399.004 351.946 398.573 351.374C398.147 350.796 397.915 350.126 397.877 349.364H399.667C399.705 349.832 399.866 350.237 400.15 350.578C400.434 350.914 400.806 351.175 401.265 351.359C401.724 351.544 402.233 351.636 402.792 351.636C403.417 351.636 403.971 351.527 404.454 351.31C404.937 351.092 405.316 350.789 405.59 350.401C405.865 350.012 406.002 349.562 406.002 349.051C406.002 348.516 405.87 348.045 405.604 347.638C405.339 347.226 404.951 346.904 404.44 346.672C403.928 346.44 403.303 346.324 402.565 346.324H401.4V344.761H402.565C403.142 344.761 403.649 344.657 404.085 344.449C404.525 344.241 404.868 343.947 405.114 343.568C405.365 343.189 405.491 342.744 405.491 342.233C405.491 341.741 405.382 341.312 405.164 340.947C404.946 340.583 404.639 340.299 404.241 340.095C403.848 339.892 403.384 339.79 402.849 339.79C402.347 339.79 401.873 339.882 401.428 340.067C400.988 340.247 400.628 340.509 400.349 340.855C400.069 341.196 399.918 341.608 399.894 342.091H398.19C398.218 341.329 398.448 340.661 398.879 340.088C399.309 339.51 399.873 339.061 400.569 338.739C401.27 338.417 402.039 338.256 402.877 338.256C403.777 338.256 404.549 338.438 405.193 338.803C405.836 339.162 406.331 339.638 406.677 340.23C407.023 340.822 407.195 341.461 407.195 342.148C407.195 342.967 406.98 343.665 406.549 344.243C406.123 344.821 405.543 345.221 404.809 345.443V345.557C405.728 345.708 406.445 346.099 406.961 346.729C407.477 347.354 407.735 348.128 407.735 349.051C407.735 349.842 407.52 350.552 407.089 351.182C406.663 351.807 406.08 352.299 405.342 352.659C404.603 353.019 403.763 353.199 402.82 353.199Z" fill="black"/>
<path d="M428.019 361.646C428.275 361.157 428.086 360.552 427.596 360.297L419.621 356.126C419.132 355.87 418.527 356.059 418.271 356.548C418.015 357.038 418.205 357.642 418.694 357.898L425.783 361.605L422.076 368.694C421.82 369.184 422.009 369.788 422.498 370.044C422.988 370.3 423.592 370.111 423.848 369.621L428.019 361.646ZM390.3 373.767L427.432 362.137L426.834 360.228L389.702 371.858L390.3 373.767Z" fill="black"/>
<path d="M90.501 214.5C152.501 162.833 284.001 86.0002 371.501 96.0001C399.334 103.833 450.301 137.8 409.501 195C409.501 200.6 307.501 275 256.501 312.5L103.001 425.5C158.834 397.333 285.001 332 327.001 362.5C353.501 381.744 358.283 483.688 291.783 557.188C249.783 600.355 164.719 675.312 112.501 695.5C96.8343 705.334 75.601 709.1 60.001 671.5C62.1676 651.834 103.401 587.3 207.001 520.5L327.001 442.5L409.501 405" stroke="black" stroke-width="2" stroke-dasharray="10 10"/>
<path d="M490.798 152.895C491.292 153.56 492.231 153.698 492.896 153.204L503.732 145.152C504.397 144.657 504.535 143.718 504.041 143.053C503.547 142.388 502.607 142.25 501.942 142.744L492.311 149.902L485.153 140.27C484.659 139.605 483.719 139.467 483.054 139.961C482.389 140.455 482.251 141.395 482.745 142.06L490.798 152.895ZM272.191 24.9882C312.653 19.837 372.081 20.0827 418.968 37.432C442.395 46.1005 462.578 58.9965 475.75 77.5074C488.897 95.9838 495.169 120.208 490.517 151.782L493.485 152.219C498.234 119.992 491.852 94.9625 478.194 75.7681C464.56 56.6081 443.787 43.4166 420.01 34.6184C372.488 17.0345 312.517 16.8301 271.812 22.0122L272.191 24.9882Z" fill="black"/>
<path d="M110.073 767.821C109.422 768.334 109.31 769.277 109.822 769.928L118.172 780.536C118.684 781.187 119.627 781.3 120.278 780.787C120.929 780.275 121.041 779.332 120.529 778.681L113.107 769.251L122.537 761.829C123.188 761.317 123.301 760.374 122.788 759.723C122.276 759.072 121.333 758.96 120.682 759.472L110.073 767.821ZM381.737 551.194C367.305 573.837 323.508 630.87 271.278 680.791C245.166 705.748 216.995 728.881 189.377 745.049C161.724 761.238 134.822 770.328 111.178 767.511L110.823 770.489C135.431 773.422 163.029 763.95 190.892 747.638C218.789 731.307 247.15 708.002 273.351 682.959C325.746 632.88 369.699 575.663 384.267 552.806L381.737 551.194Z" fill="black"/>
<circle cx="110.5" cy="211.5" r="30.5" fill="black"/>
</svg>
