<svg width="529" height="755" viewBox="0 0 529 755" fill="none" xmlns="http://www.w3.org/2000/svg">
<path d="M503.103 451.248C525.527 458.995 527.056 484.035 525.017 495.587C519.581 514.273 500.249 563.368 466.409 610.255C432.569 657.141 397.608 682.113 384.358 688.738C372.976 693.495 341.548 702.6 306.893 700.97C263.574 698.931 234.525 678.546 198.341 641.342C169.393 611.58 158.759 569.144 157.06 551.646C140.922 581.885 103.446 653.472 82.6532 697.912C61.8601 742.352 29.1416 733.077 15.3814 722.884C-7.04254 709.43 6.03811 679.225 15.3814 665.805L151.454 406.91L153.493 355.437C155.022 332.163 160.118 275.73 168.272 236.182C176.426 196.634 190.017 161.265 195.792 148.525C202.927 134.255 219.949 102.454 230.957 89.4068C244.717 73.0985 272.238 48.636 316.576 51.1842C360.914 53.7323 385.377 88.3876 394.55 123.552C403.724 158.717 395.06 203.565 388.435 232.614C381.809 261.664 356.328 309.569 346.135 326.387C335.942 343.205 314.028 368.687 290.585 394.679C271.83 415.472 241.999 433.921 229.428 440.546C227.798 454.816 234.525 505.27 238.092 528.713C246.246 569.484 263.234 595.305 270.709 603.12C284.979 626.563 329.827 628.601 347.664 620.957C361.934 614.841 382.489 593.946 390.983 584.263C401.583 574.886 422.58 536.527 431.754 518.52L457.745 467.047C463.521 458.553 480.679 443.502 503.103 451.248Z" stroke="black" stroke-width="5"/>
<path d="M350.619 4.45455V19H348.858V6.30114H348.773L345.222 8.65909V6.86932L348.858 4.45455H350.619ZM355.193 19.1136C354.843 19.1136 354.542 18.9882 354.291 18.7372C354.04 18.4863 353.915 18.1856 353.915 17.8352C353.915 17.4848 354.04 17.1842 354.291 16.9332C354.542 16.6823 354.843 16.5568 355.193 16.5568C355.544 16.5568 355.844 16.6823 356.095 16.9332C356.346 17.1842 356.472 17.4848 356.472 17.8352C356.472 18.0672 356.412 18.2803 356.294 18.4744C356.18 18.6686 356.027 18.8248 355.832 18.9432C355.643 19.0568 355.43 19.1136 355.193 19.1136ZM359.451 19V17.7216L364.252 12.4659C364.816 11.8504 365.28 11.3153 365.644 10.8608C366.009 10.4015 366.279 9.97064 366.454 9.56818C366.634 9.16098 366.724 8.73485 366.724 8.28977C366.724 7.77841 366.601 7.3357 366.354 6.96165C366.113 6.58759 365.781 6.29877 365.36 6.09517C364.939 5.89157 364.465 5.78977 363.94 5.78977C363.381 5.78977 362.893 5.90578 362.477 6.13778C362.065 6.36506 361.745 6.68466 361.518 7.09659C361.295 7.50852 361.184 7.99148 361.184 8.54545H359.508C359.508 7.69318 359.704 6.94508 360.097 6.30114C360.49 5.6572 361.025 5.1553 361.702 4.79545C362.384 4.43561 363.149 4.25568 363.996 4.25568C364.849 4.25568 365.604 4.43561 366.262 4.79545C366.92 5.1553 367.436 5.64062 367.81 6.25142C368.184 6.86222 368.371 7.54167 368.371 8.28977C368.371 8.82481 368.274 9.34801 368.08 9.85938C367.891 10.366 367.559 10.9318 367.086 11.5568C366.617 12.1771 365.966 12.9347 365.133 13.8295L361.866 17.3239V17.4375H368.627V19H359.451Z" fill="black"/>
<path d="M124.619 678.455V693H122.858V680.301H122.773L119.222 682.659V680.869L122.858 678.455H124.619ZM129.193 693.114C128.843 693.114 128.542 692.988 128.291 692.737C128.04 692.486 127.915 692.186 127.915 691.835C127.915 691.485 128.04 691.184 128.291 690.933C128.542 690.682 128.843 690.557 129.193 690.557C129.544 690.557 129.844 690.682 130.095 690.933C130.346 691.184 130.472 691.485 130.472 691.835C130.472 692.067 130.412 692.28 130.294 692.474C130.18 692.669 130.027 692.825 129.832 692.943C129.643 693.057 129.43 693.114 129.193 693.114ZM136.826 678.455V693H135.065V680.301H134.98L131.429 682.659V680.869L135.065 678.455H136.826Z" fill="black"/>
<path d="M145.948 624.683C145.773 624.159 145.206 623.876 144.683 624.052L136.148 626.907C135.624 627.083 135.342 627.649 135.517 628.173C135.692 628.697 136.259 628.979 136.782 628.804L144.369 626.266L146.907 633.852C147.083 634.376 147.649 634.658 148.173 634.483C148.697 634.308 148.979 633.741 148.804 633.218L145.948 624.683ZM100.782 713.624C100.984 713.37 101.271 712.908 101.61 712.33C101.962 711.729 102.404 710.94 102.926 709.987C103.969 708.079 105.342 705.493 106.961 702.393C110.202 696.19 114.441 687.913 119.042 678.855C128.243 660.738 138.894 639.487 145.895 625.446L144.105 624.554C137.106 638.592 126.457 659.838 117.258 677.949C112.659 687.005 108.423 695.274 105.189 701.466C103.571 704.563 102.206 707.136 101.171 709.027C100.654 709.972 100.222 710.742 99.884 711.319C99.5334 711.918 99.3159 712.254 99.2183 712.376L100.782 713.624Z" fill="black"/>
<path d="M324.619 735.455V750H322.858V737.301H322.773L319.222 739.659V737.869L322.858 735.455H324.619ZM329.193 750.114C328.843 750.114 328.542 749.988 328.291 749.737C328.04 749.486 327.915 749.186 327.915 748.835C327.915 748.485 328.04 748.184 328.291 747.933C328.542 747.682 328.843 747.557 329.193 747.557C329.544 747.557 329.844 747.682 330.095 747.933C330.346 748.184 330.472 748.485 330.472 748.835C330.472 749.067 330.412 749.28 330.294 749.474C330.18 749.669 330.027 749.825 329.832 749.943C329.643 750.057 329.43 750.114 329.193 750.114ZM337.819 750.199C336.881 750.199 336.046 750.038 335.312 749.716C334.583 749.394 334.003 748.946 333.572 748.374C333.146 747.796 332.914 747.126 332.876 746.364H334.665C334.703 746.832 334.864 747.237 335.148 747.578C335.433 747.914 335.804 748.175 336.263 748.359C336.723 748.544 337.232 748.636 337.79 748.636C338.415 748.636 338.969 748.527 339.452 748.31C339.935 748.092 340.314 747.789 340.589 747.401C340.863 747.012 341.001 746.562 341.001 746.051C341.001 745.516 340.868 745.045 340.603 744.638C340.338 744.226 339.95 743.904 339.438 743.672C338.927 743.44 338.302 743.324 337.563 743.324H336.398V741.761H337.563C338.141 741.761 338.647 741.657 339.083 741.449C339.523 741.241 339.867 740.947 340.113 740.568C340.364 740.189 340.489 739.744 340.489 739.233C340.489 738.741 340.38 738.312 340.163 737.947C339.945 737.583 339.637 737.299 339.239 737.095C338.846 736.892 338.382 736.79 337.847 736.79C337.345 736.79 336.872 736.882 336.427 737.067C335.987 737.247 335.627 737.509 335.347 737.855C335.068 738.196 334.916 738.608 334.893 739.091H333.188C333.217 738.329 333.446 737.661 333.877 737.088C334.308 736.51 334.871 736.061 335.567 735.739C336.268 735.417 337.038 735.256 337.876 735.256C338.775 735.256 339.547 735.438 340.191 735.803C340.835 736.162 341.33 736.638 341.675 737.23C342.021 737.822 342.194 738.461 342.194 739.148C342.194 739.967 341.978 740.665 341.548 741.243C341.121 741.821 340.541 742.221 339.808 742.443V742.557C340.726 742.708 341.443 743.099 341.96 743.729C342.476 744.354 342.734 745.128 342.734 746.051C342.734 746.842 342.518 747.552 342.087 748.182C341.661 748.807 341.079 749.299 340.34 749.659C339.602 750.019 338.761 750.199 337.819 750.199Z" fill="black"/>
<path d="M28 699.999L257.751 370.876C328.328 299.743 434.5 84.9995 298.5 85C248.445 85 207 146.5 188.676 334.887C178.9 435.391 175.101 557.154 233.725 612.529C285.782 661.7 329.33 670.654 375.38 655.234C435.946 624.393 468.982 552.068 485 492.255" stroke="black" stroke-width="2" stroke-dasharray="10 10"/>
<path d="M415.343 161.454C415.87 162.093 416.815 162.183 417.455 161.656L427.869 153.066C428.508 152.538 428.598 151.593 428.071 150.954C427.544 150.315 426.599 150.224 425.96 150.751L416.703 158.387L409.067 149.131C408.539 148.491 407.594 148.401 406.955 148.928C406.316 149.455 406.225 150.4 406.752 151.04L415.343 161.454ZM186.433 114.442C193.792 90.6468 212.828 69.9633 237.136 55.245C261.433 40.5336 290.852 31.876 318.742 32.0243C346.626 32.1727 372.861 41.114 391.022 61.4484C409.177 81.776 419.48 113.732 415.007 160.356L417.993 160.642C422.52 113.466 412.135 80.5847 393.259 59.45C374.389 38.322 347.249 29.1759 318.758 29.0244C290.273 28.8728 260.317 37.7028 235.582 52.6788C210.86 67.6479 191.208 88.8517 183.567 113.556L186.433 114.442Z" fill="black"/>
<path d="M416.961 693.84C417.149 693.033 416.647 692.227 415.84 692.039L402.691 688.981C401.884 688.793 401.078 689.295 400.89 690.102C400.702 690.909 401.204 691.715 402.011 691.903L413.699 694.621L410.981 706.309C410.793 707.116 411.295 707.922 412.102 708.11C412.909 708.298 413.715 707.796 413.903 706.989L416.961 693.84ZM227.552 694.663C254.944 716.982 330.841 747.979 416.293 694.773L414.707 692.227C330.559 744.621 256.056 714.018 229.448 692.337L227.552 694.663Z" fill="black"/>
<circle cx="49.5" cy="679.5" r="30.5" fill="black"/>
</svg>
