<?xml version="1.0" encoding="UTF-8"?>
<svg version="1.1" xmlns="http://www.w3.org/2000/svg" width="620" height="504">
<path d="M0 0 C7.82611942 7.10509498 12.62525538 15.23112615 13.203125 25.96875 C13.20957031 27.06316406 13.21601563 28.15757813 13.22265625 29.28515625 C13.23683594 30.37699219 13.25101562 31.46882813 13.265625 32.59375 C12.75065951 39.86436452 9.28651189 44.8457499 5.26953125 50.6796875 C4.68882874 51.53539841 4.10812622 52.39110931 3.50982666 53.27275085 C1.60786096 56.07286703 -0.30358529 58.86637681 -2.21484375 61.66015625 C-4.21755232 64.60467912 -6.21772796 67.55091252 -8.21789551 70.49716187 C-9.56170818 72.47610065 -10.90635619 74.45447245 -12.25183105 76.43228149 C-17.44132372 84.06241903 -22.57770667 91.72622892 -27.68121338 99.4140625 C-36.50468005 112.70527186 -45.4106763 125.93977568 -54.33984375 139.16015625 C-63.25640007 152.36195519 -72.14242104 165.5827568 -80.96484375 178.84765625 C-89.13336429 191.12935584 -97.35307636 203.37534701 -105.60848999 215.59881592 C-119.86341456 236.70644544 -119.86341456 236.70644544 -134.06298828 257.85131836 C-135.11260935 259.41736589 -136.16384853 260.98233025 -137.21679688 262.54614258 C-138.66199219 264.69319001 -140.10127545 266.84408085 -141.5390625 268.99609375 C-141.96156784 269.62111786 -142.38407318 270.24614197 -142.81938171 270.8901062 C-144.94605768 274.08802925 -146.92885716 277.12843235 -147.96484375 280.84765625 C-146.78114739 283.38865776 -145.60790601 285.38147094 -144.02734375 287.66015625 C-143.0856495 289.08358475 -142.14565401 290.50813802 -141.20703125 291.93359375 C-140.6872168 292.7131543 -140.16740234 293.49271484 -139.63183594 294.29589844 C-137.83605327 297.04480302 -136.11787597 299.83229829 -134.41015625 302.63671875 C-125.05519078 317.97935351 -115.19777149 332.55416888 -102.92578125 345.734375 C-101.11875163 347.68179138 -99.41713376 349.68406016 -97.71484375 351.72265625 C-81.5843074 370.09968283 -56.91423916 391.38302048 -31.74609375 394.0859375 C-19.82958217 394.47363223 -10.12336888 390.20027502 -0.96484375 382.84765625 C-0.15402344 382.24566406 0.65679687 381.64367187 1.4921875 381.0234375 C4.47166297 378.47417815 6.84147346 375.62710763 9.22265625 372.53515625 C9.69823975 371.92124023 10.17382324 371.30732422 10.66381836 370.67480469 C52.07152123 316.5626997 69.35800762 247.34239187 83.36865234 181.83129883 C83.59121201 180.8060762 83.81377167 179.78085358 84.04307556 178.7245636 C84.4609865 176.79808454 84.87156805 174.86999521 85.27345276 172.94010925 C87.14209721 164.37157487 87.14209721 164.37157487 90.03515625 160.84765625 C96.30980013 157.48143099 103.75651936 157.33214938 110.72265625 157.41015625 C112.15786621 157.42151611 112.15786621 157.42151611 113.62207031 157.43310547 C127.73527736 157.75762869 140.17942444 161.48628924 150.84765625 171.03515625 C157.57895127 178.27567454 160.19275027 187.12715142 160.03515625 196.84765625 C159.31620111 204.11064827 157.94618632 211.29353567 156.66015625 218.47265625 C156.479758 219.50287903 156.29935974 220.53310181 156.11349487 221.59454346 C142.35497693 300.14916884 122.67468757 403.12227967 57.03515625 455.84765625 C52.82764341 458.76014969 48.50405216 461.35776599 44.03515625 463.84765625 C42.56755859 464.66556641 42.56755859 464.66556641 41.0703125 465.5 C5.92697125 484.03870217 -35.11668841 481.64722393 -72.17041016 470.72314453 C-102.64719207 461.17485343 -129.6933861 444.55025159 -152.96484375 422.84765625 C-153.71636719 422.15027344 -154.46789062 421.45289063 -155.2421875 420.734375 C-177.18574249 399.63925272 -191.18917815 370.48166806 -202.96484375 342.84765625 C-208.3551241 346.90476802 -212.06517058 351.60612715 -216.02734375 357.03515625 C-216.67928711 357.91719727 -217.33123047 358.79923828 -218.00292969 359.70800781 C-219.99898254 362.41493053 -221.98331531 365.13008885 -223.96484375 367.84765625 C-224.55313965 368.65090332 -225.14143555 369.45415039 -225.74755859 370.28173828 C-232.29731135 379.23137169 -238.68921264 388.27796325 -244.94140625 397.4375 C-249.29050142 403.80083481 -253.71486157 410.11231825 -258.13208008 416.4284668 C-262.00568593 421.98149718 -265.80286304 427.57814611 -269.54760742 433.21875 C-274.51885957 440.69593792 -279.55420713 448.13054456 -284.57397461 455.57519531 C-286.52739179 458.47272751 -288.47952554 461.3711217 -290.43164062 464.26953125 C-291.69393151 466.14198028 -292.95629871 468.01437787 -294.21875 469.88671875 C-294.79186417 470.73803375 -295.36497833 471.58934875 -295.95545959 472.46646118 C-297.06072259 474.10446875 -298.16944952 475.74014521 -299.28190613 477.37327576 C-300.47042259 479.12072136 -301.64858334 480.87523191 -302.81929016 482.63465881 C-303.42983749 483.53727951 -304.04038483 484.43990021 -304.66943359 485.36987305 C-305.2179599 486.1894902 -305.76648621 487.00910736 -306.33163452 487.8535614 C-308.83434364 490.90928707 -311.11575601 491.41713813 -314.96484375 491.84765625 C-333.14908494 493.35810563 -352.85561229 489.90383943 -367.67578125 478.80078125 C-375.06010524 472.50016351 -380.75716877 465.75059106 -381.96484375 455.84765625 C-382.46965823 445.58309506 -380.07482408 439.18240665 -373.83984375 431.16015625 C-372.91365234 429.93619141 -372.91365234 429.93619141 -371.96875 428.6875 C-369.97968071 426.06463909 -367.97307969 423.4558611 -365.96484375 420.84765625 C-364.63303697 419.1023843 -363.30230588 417.35629096 -361.97265625 415.609375 C-359.96221533 412.96870797 -357.95058682 410.32902628 -355.93359375 407.69335938 C-351.50171678 401.89684075 -347.14759391 396.04935524 -342.83984375 390.16015625 C-337.75321782 383.20920136 -332.5248719 376.38733599 -327.20996094 369.60986328 C-322.47061712 363.54640753 -317.89751486 357.37226729 -313.35327148 351.16186523 C-308.31863955 344.29417181 -303.16927418 337.51868922 -297.99658203 330.75463867 C-293.45291531 324.81001716 -288.94573485 318.83971739 -284.46484375 312.84765625 C-277.2158194 303.15616261 -269.88547379 293.52767365 -262.53613281 283.91210938 C-261.75834473 282.89020508 -261.75834473 282.89020508 -260.96484375 281.84765625 C-260.401604 281.14560059 -259.83836426 280.44354492 -259.25805664 279.72021484 C-257.74517743 277.91932065 -257.74517743 277.91932065 -258.0078125 275.60546875 C-259.35175812 271.73271116 -261.29205745 268.30041009 -263.27734375 264.72265625 C-286.64897466 221.21442682 -302.67203932 172.8761047 -317.39038086 125.85424805 C-317.72046143 124.80148682 -318.05054199 123.74872559 -318.390625 122.6640625 C-318.67333252 121.75084229 -318.95604004 120.83762207 -319.24731445 119.89672852 C-319.78687926 117.88106175 -319.78687926 117.88106175 -320.96484375 116.84765625 C-321.06092108 117.59880235 -321.15699841 118.34994844 -321.25598717 119.12385654 C-323.59548843 137.41144655 -325.94097283 155.69826007 -328.29309654 173.984231 C-329.43042729 182.82724873 -330.56574096 191.67051665 -331.69628906 200.5144043 C-332.68182324 208.22385716 -333.67115961 215.93281095 -334.66504061 223.64119238 C-335.19102613 227.72169377 -335.71512084 231.80241774 -336.2346611 235.88374519 C-336.72409322 239.72807337 -337.21862077 243.57171223 -337.71700096 247.41489029 C-337.89866164 248.8226945 -338.07848706 250.23073699 -338.25629997 251.63903236 C-340.62154454 270.35013027 -340.62154454 270.35013027 -346.96484375 275.84765625 C-347.63580078 276.53794922 -347.63580078 276.53794922 -348.3203125 277.2421875 C-357.81422751 286.492043 -372.69695288 291.31539466 -385.62597656 291.27929688 C-398.65194633 290.91069344 -410.44114593 284.68338948 -419.97265625 276.0234375 C-424.32176605 271.34866972 -426.06299989 266.60483704 -425.83154297 260.10327148 C-425.65909335 258.70235128 -425.4706128 257.30334788 -425.26953125 255.90625 C-425.16624512 255.10758514 -425.06295898 254.30892029 -424.95654297 253.48605347 C-424.59843268 250.75034942 -424.21905646 248.01800965 -423.83984375 245.28515625 C-423.5733736 243.28488336 -423.30795402 241.2844703 -423.04345703 239.28393555 C-421.23593541 225.73212169 -419.31684028 212.19523744 -417.41787338 198.65599632 C-417.02465852 195.85194512 -416.63183019 193.04783995 -416.23904419 190.24372864 C-415.05586957 181.80141227 -413.86985162 173.35956733 -412.66626644 164.92013359 C-410.11587553 147.02108107 -407.66345114 129.1232904 -405.671875 111.15234375 C-405.5911311 110.42717875 -405.51038719 109.70201374 -405.4271965 108.95487404 C-403.58416915 92.27847616 -402.24086085 75.55068407 -401.73046875 58.77734375 C-401.6946167 57.64192139 -401.65876465 56.50649902 -401.62182617 55.33666992 C-401.56102797 53.21218907 -401.51326145 51.08727433 -401.48168945 48.9621582 C-401.21319224 38.69757051 -398.5873462 32.62539118 -391.46484375 25.171875 C-374.08954366 9.0182757 -345.71154095 8.27090901 -323.33984375 8.47265625 C-321.96886536 8.47913681 -321.96886536 8.47913681 -320.57019043 8.48574829 C-298.03292867 8.61021337 -276.84420585 11.33672112 -254.96484375 16.84765625 C-251.90768605 27.62208848 -249.50791961 38.45242267 -247.32885361 49.43421745 C-246.75131598 52.34170069 -246.1668171 55.2477132 -245.58059692 58.15345764 C-243.91647439 66.40710088 -242.26224836 74.66270264 -240.6171875 82.92016602 C-236.3421302 104.35874751 -231.94550355 125.73524221 -226.63671875 146.9453125 C-226.43396206 147.7590074 -226.23120537 148.57270229 -226.02230453 149.41105461 C-220.81895135 170.18262831 -214.96569487 191.84637957 -202.96484375 209.84765625 C-193.18629686 195.24287951 -183.49918077 180.58402797 -173.91845703 165.84863281 C-170.44259428 160.50930453 -166.9529984 155.1789589 -163.46484375 149.84765625 C-158.12558224 141.6848453 -152.79137408 133.51878043 -147.46484375 125.34765625 C-142.13831327 117.17653183 -136.80395939 109.01056279 -131.46484375 100.84765625 C-123.62081934 88.85461644 -115.79043482 76.85272967 -107.96484375 64.84765625 C-103.62131141 58.18433534 -99.27677983 51.52166923 -94.93017578 44.86035156 C-93.58956385 42.80530172 -92.24941415 40.74995029 -90.90966797 38.69433594 C-87.36745288 33.25981712 -83.81807836 27.8303033 -80.25390625 22.41015625 C-77.70058881 18.52249446 -75.17740276 14.61925056 -72.69636536 10.68531799 C-70.94613029 7.91770224 -69.1710249 5.16600828 -67.40234375 2.41015625 C-66.77207275 1.39123291 -66.14180176 0.37230957 -65.49243164 -0.67749023 C-60.68667365 -8.09450612 -57.37740032 -9.98492959 -48.77734375 -11.83984375 C-31.57975321 -13.24948232 -13.66941079 -11.3550132 0 0 Z M-56.44384766 -2.67993164 C-56.87616699 -2.0636792 -57.30848633 -1.44742676 -57.75390625 -0.8125 C-58.26332764 -0.09143066 -58.77274902 0.62963867 -59.29760742 1.37255859 C-62.54317862 6.19077514 -65.74300494 11.03488841 -68.90234375 15.91015625 C-69.65321465 17.06438365 -70.40435881 18.21843332 -71.15576172 19.37231445 C-72.68806443 21.72615812 -74.21892411 24.08092978 -75.74853516 26.43652344 C-78.40949471 30.53361363 -81.07953395 34.62476239 -83.74975586 38.71582031 C-86.82339184 43.42516731 -89.89388485 48.13656328 -92.96484375 52.84765625 C-101.50847569 65.95426095 -110.06029304 79.05544292 -118.62402344 92.14892578 C-125.74769228 103.04194602 -132.85729378 113.94411447 -139.96484375 124.84765625 C-148.50758627 137.95289651 -157.05710386 151.0536416 -165.62182617 164.14453125 C-169.0476871 169.38183419 -172.47028189 174.62118707 -175.8828125 179.8671875 C-176.51050537 180.83180908 -177.13819824 181.79643066 -177.78491211 182.7902832 C-179.01657351 184.68310315 -180.24786438 186.57616425 -181.47875977 188.46948242 C-184.62318833 193.29550957 -187.79600128 198.1000356 -191.01171875 202.87890625 C-191.66438721 203.84981201 -192.31705566 204.82071777 -192.98950195 205.82104492 C-194.23901895 207.67562478 -195.49259182 209.52748021 -196.75073242 211.3762207 C-197.3047876 212.19823975 -197.85884277 213.02025879 -198.4296875 213.8671875 C-199.16626587 214.95157104 -199.16626587 214.95157104 -199.91772461 216.05786133 C-201.13316908 217.78976708 -201.13316908 217.78976708 -200.96484375 219.84765625 C-223.19274633 202.82202874 -229.32207579 162.84594794 -235.1953125 137.09765625 C-235.38512758 136.27128536 -235.57494267 135.44491447 -235.77050972 134.59350204 C-240.32678536 114.72209124 -244.35957617 94.74703888 -248.34680176 74.75512695 C-249.47500948 69.10442014 -250.61064668 63.45520207 -251.74566746 57.80586052 C-252.7857973 52.62852273 -253.82297199 47.45061262 -254.85666084 42.27198505 C-255.30038875 40.0595487 -255.75023612 37.84843869 -256.20149231 35.63752747 C-256.65897124 33.36624568 -257.10054181 31.09154279 -257.5098114 28.81108093 C-257.9717972 26.15598016 -257.9717972 26.15598016 -258.96484375 22.84765625 C-261.94790129 21.18292853 -263.72782497 20.50738385 -266.96484375 19.84765625 C-267.75777832 19.66444824 -268.55071289 19.48124023 -269.36767578 19.29248047 C-304.26166956 11.83581052 -352.94671391 6.87147821 -384.83984375 27.171875 C-389.73365056 31.03114545 -394.28688115 36.92319317 -395.36791992 43.1809082 C-395.84324497 49.26954106 -396.08955197 55.33235125 -396.203125 61.43823242 C-397.19509259 109.51276714 -405.57952559 157.36654592 -412.19875526 204.91471672 C-412.51326412 207.17444345 -412.82748985 209.43420939 -413.14164734 211.69398499 C-413.3474217 213.17367845 -413.55321683 214.65336902 -413.7590332 216.13305664 C-413.85967795 216.85664651 -413.9603227 217.58023638 -414.0640173 218.32575321 C-414.65471984 222.56884426 -415.24945417 226.81134576 -415.84763622 231.0533886 C-416.3056748 234.3061031 -416.75979848 237.5593656 -417.21484375 240.8125 C-417.37797562 241.95960449 -417.54110748 243.10670898 -417.70918274 244.28857422 C-418.15272189 247.47234356 -418.56779813 250.65777547 -418.96484375 253.84765625 C-419.10712402 254.94361115 -419.2494043 256.03956604 -419.39599609 257.16873169 C-419.57316162 258.76272293 -419.57316162 258.76272293 -419.75390625 260.38891602 C-419.86428223 261.33428726 -419.9746582 262.27965851 -420.08837891 263.25367737 C-419.89545626 267.30464776 -417.96282408 269.39100043 -415.109375 272.109375 C-405.76872984 279.68057189 -394.39270332 286.45761255 -381.96484375 285.84765625 C-370.02440759 284.24670392 -355.76330657 278.36513506 -347.96484375 268.84765625 C-346.1519307 264.97611072 -345.47362279 261.35710556 -344.92709351 257.12988281 C-344.83963006 256.46760303 -344.75216661 255.80532326 -344.66205275 255.1229744 C-344.37173604 252.91218332 -344.09090815 250.70029337 -343.81005859 248.48828125 C-343.60343121 246.89954438 -343.39622767 245.31088235 -343.18849182 243.72229004 C-342.6267566 239.41324191 -342.07332368 235.10316431 -341.52154493 230.79283142 C-340.94271184 226.28091576 -340.3568393 221.76991393 -339.7718811 217.25878906 C-338.79066184 209.68352125 -337.81457287 202.10760643 -336.84179688 194.53125 C-335.71723895 185.7730489 -334.58584154 177.01575339 -333.4504894 168.25894547 C-332.24159689 158.93445915 -331.03756336 149.60935019 -329.83502626 140.28404236 C-329.48828466 137.59768263 -329.14065154 134.91143951 -328.79282761 132.22521973 C-328.24642911 128.00345136 -327.70329809 123.78127488 -327.1626873 119.5587616 C-326.96382944 118.00943573 -326.76389713 116.46024733 -326.5628109 114.91120911 C-326.2884641 112.79631568 -326.01804578 110.68095569 -325.74862671 108.56542969 C-325.52023133 106.79011871 -325.52023133 106.79011871 -325.28722191 104.97894287 C-325.00487537 102.23648684 -324.90000461 99.60095796 -324.96484375 96.84765625 C-322.98484375 96.84765625 -321.00484375 96.84765625 -318.96484375 96.84765625 C-318.87485107 97.39043213 -318.7848584 97.93320801 -318.69213867 98.49243164 C-317.21499039 106.62214432 -314.77523178 114.42479448 -312.27734375 122.28515625 C-312.04108276 123.03219818 -311.80482178 123.77924011 -311.56140137 124.54891968 C-295.62732056 174.81821737 -278.41235787 226.83375541 -251.99609375 272.7109375 C-250.96484375 274.84765625 -250.96484375 274.84765625 -250.96484375 277.84765625 C-251.99609375 279.59912109 -251.99609375 279.59912109 -253.46484375 281.55859375 C-254.01438721 282.29843506 -254.56393066 283.03827637 -255.13012695 283.80053711 C-255.7355835 284.59983643 -256.34104004 285.39913574 -256.96484375 286.22265625 C-257.58770264 287.05611572 -258.21056152 287.8895752 -258.85229492 288.74829102 C-260.88045588 291.45527324 -262.92065412 294.15276075 -264.96484375 296.84765625 C-265.65400879 297.75660645 -266.34317383 298.66555664 -267.05322266 299.60205078 C-270.48025198 304.11610976 -273.91652188 308.62300067 -277.359375 313.125 C-280.0808345 316.68501226 -282.7835727 320.25730664 -285.46484375 323.84765625 C-288.80419304 328.31920397 -292.18461632 332.7578327 -295.57421875 337.19140625 C-301.4378139 344.86257585 -307.25848863 352.55866585 -312.96484375 360.34765625 C-321.1554729 371.52242289 -329.58396406 382.51282297 -338.00585938 393.51367188 C-345.80572623 403.70659471 -353.55875214 413.92684288 -361.13989258 424.28393555 C-363.66416333 427.73233862 -366.19622074 431.17026202 -368.80078125 434.55859375 C-369.22431885 435.111521 -369.64785645 435.66444824 -370.08422852 436.23413086 C-371.18115211 437.66010908 -372.28553688 439.08033966 -373.390625 440.5 C-376.53141122 445.18390203 -376.57363705 450.35994199 -375.96484375 455.84765625 C-373.55368981 464.88603901 -369.09851989 471.08005573 -361.21484375 476.03515625 C-349.20656215 482.75407572 -336.66978769 486.06231074 -322.90234375 486.22265625 C-321.83101196 486.24344238 -321.83101196 486.24344238 -320.73803711 486.26464844 C-316.17176373 486.22348644 -313.59164601 485.58070235 -309.96484375 482.84765625 C-307.89497234 480.33429034 -306.14984645 477.63651984 -304.38671875 474.90234375 C-303.86249832 474.10825607 -303.33827789 473.3141684 -302.798172 472.49601746 C-301.09427965 469.91097317 -299.4047627 467.31685177 -297.71484375 464.72265625 C-296.54149403 462.93857482 -295.36692693 461.15529346 -294.19116211 459.37280273 C-292.42892073 456.70088191 -290.66740214 454.02852015 -288.90977478 451.3535614 C-284.18236505 444.15923861 -279.38263782 437.01878592 -274.52734375 429.91015625 C-273.84857178 428.9152417 -273.1697998 427.92032715 -272.47045898 426.89526367 C-270.63734885 424.21128701 -268.8015152 421.52919656 -266.96484375 418.84765625 C-265.97004595 417.39193128 -264.97525383 415.93620242 -263.98046875 414.48046875 C-253.07940381 398.55319901 -242.00632252 382.74598008 -230.63867188 367.14794922 C-228.87189321 364.71991704 -227.11390894 362.28563866 -225.35546875 359.8515625 C-208.90644899 337.17864873 -208.90644899 337.17864873 -203.91015625 334.91796875 C-201.96484375 334.84765625 -201.96484375 334.84765625 -200.46363831 336.11408997 C-198.94857414 337.86647434 -198.02388275 339.42473631 -197.03881836 341.5144043 C-196.69092758 342.24334396 -196.3430368 342.97228363 -195.98460388 343.72331238 C-195.61585648 344.51071304 -195.24710907 345.29811371 -194.8671875 346.109375 C-194.05679158 347.80410865 -193.24623924 349.49876751 -192.43554688 351.19335938 C-191.17777702 353.84164076 -189.92303548 356.49129668 -188.67211914 359.14282227 C-181.66167306 373.96695091 -173.97507562 388.1163577 -163.96484375 401.16015625 C-163.46629883 401.8162085 -162.96775391 402.47226074 -162.45410156 403.14819336 C-155.76072855 411.84681243 -148.531076 419.94666354 -139.96484375 426.84765625 C-139.03285156 427.605625 -138.10085938 428.36359375 -137.140625 429.14453125 C-110.81477934 450.17787561 -79.96946467 464.28312084 -46.96484375 470.84765625 C-45.83175781 471.09257812 -44.69867188 471.3375 -43.53125 471.58984375 C-25.6322263 474.85233746 -5.5951725 474.34130633 12.03515625 469.84765625 C12.69338379 469.68136719 13.35161133 469.51507813 14.02978516 469.34375 C37.07260837 463.34272539 57.97320438 450.35866852 73.03515625 431.84765625 C73.7725 430.95949219 74.50984375 430.07132812 75.26953125 429.15625 C82.88172495 419.66525053 89.00422593 409.39489969 95.03515625 398.84765625 C95.43589355 398.15752441 95.83663086 397.46739258 96.24951172 396.75634766 C115.35103777 363.63322417 126.80051409 324.72648657 136.03515625 287.84765625 C136.29815521 286.79919525 136.29815521 286.79919525 136.56646729 285.72955322 C141.61577381 265.50707777 145.87792408 245.17970281 149.53515625 224.66015625 C149.70700439 223.70157715 149.87885254 222.74299805 150.0559082 221.75537109 C155.14727171 198.96596537 155.14727171 198.96596537 148.41015625 177.59765625 C141.6764456 169.45150873 132.41902708 165.28030451 122.03515625 163.84765625 C118.22041557 163.54557455 114.42356896 163.4399595 110.59765625 163.41015625 C109.66219971 163.40000488 108.72674316 163.38985352 107.76293945 163.37939453 C106.86406006 163.39083496 105.96518066 163.40227539 105.0390625 163.4140625 C104.24314697 163.42381104 103.44723145 163.43355957 102.62719727 163.44360352 C98.78260327 164.04290681 96.36565601 164.74050709 93.03515625 166.84765625 C91.37595174 170.23937566 90.72986526 173.7716036 90.0078125 177.4609375 C89.77319305 178.52963074 89.53857361 179.59832397 89.29684448 180.69940186 C88.79711399 182.99064599 88.31089337 185.28487043 87.83688354 187.58157349 C86.84528593 192.38187531 85.7871298 197.16671432 84.73298645 201.95359802 C84.21143776 204.32650494 83.69334723 206.70017463 83.17875671 209.07460022 C70.48863259 267.61141181 49.86677175 353.25491554 -0.96484375 390.84765625 C-8.13494369 395.11868389 -15.56212288 398.96569127 -23.96484375 399.84765625 C-24.6196875 399.92886719 -25.27453125 400.01007813 -25.94921875 400.09375 C-46.21034254 401.35054903 -63.98307641 388.85401822 -78.96484375 376.84765625 C-79.52526367 376.40437988 -80.08568359 375.96110352 -80.66308594 375.50439453 C-95.47459067 363.7227204 -108.83890944 350.15567934 -119.96484375 334.84765625 C-120.64909424 333.92194824 -120.64909424 333.92194824 -121.34716797 332.97753906 C-129.9958827 321.24655386 -137.67312547 308.93497666 -145.29833984 296.52294922 C-146.75201694 294.18931406 -148.24082261 291.88904689 -149.765625 289.6015625 C-150.15717773 289.0044043 -150.54873047 288.40724609 -150.95214844 287.79199219 C-151.93583228 286.29904424 -152.93585611 284.81689564 -153.9375 283.3359375 C-154.96484375 280.84765625 -154.96484375 280.84765625 -154.1937561 278.45724487 C-153.04695925 276.02202806 -151.81009001 273.85058008 -150.32958984 271.60595703 C-149.80013763 270.79873199 -149.27068542 269.99150696 -148.72518921 269.15982056 C-148.15200958 268.29625946 -147.57882996 267.43269836 -146.98828125 266.54296875 C-146.3911734 265.63630463 -145.79406555 264.7296405 -145.17886353 263.79550171 C-143.23741028 260.85129259 -141.28895342 257.91180123 -139.33984375 254.97265625 C-137.99342635 252.93558867 -136.64707237 250.89847917 -135.30078125 248.86132812 C-128.4041875 238.44258807 -121.4444362 228.08703293 -114.22436523 217.8894043 C-107.04894959 207.67900097 -100.25312563 197.2146616 -93.40234375 186.78515625 C-77.28738765 162.25598457 -77.28738765 162.25598457 -69.84326172 151.42602539 C-63.18084408 141.73018168 -56.60533483 131.97590573 -50.02734375 122.22265625 C-49.40033569 121.29317169 -48.77332764 120.36368713 -48.12731934 119.40603638 C-38.45828492 105.06897288 -28.84432624 90.69611253 -19.27148438 76.29467773 C-14.79287445 69.5611037 -10.29733025 62.84085176 -5.734375 56.1640625 C-5.32837067 55.56968384 -4.92236633 54.97530518 -4.50405884 54.36291504 C-2.63318762 51.62636975 -0.75713056 48.89368412 1.12597656 46.16552734 C2.08455566 44.76874756 2.08455566 44.76874756 3.0625 43.34375 C3.61671631 42.54122803 4.17093262 41.73870605 4.74194336 40.91186523 C8.55269822 34.8291897 7.86590911 26.55993474 6.3515625 19.79296875 C3.225818 10.42870516 -1.63034669 5.02192382 -10.1796875 0.19921875 C-20.82329189 -4.96584032 -46.49042526 -12.58899246 -56.44384766 -2.67993164 Z " fill="#000000" transform="translate(459.96484375,12.15234375)"/>
<path d="M0 0 C0.99 0 1.98 0 3 0 C2.67 1.98 2.34 3.96 2 6 C3.794375 5.87625 3.794375 5.87625 5.625 5.75 C10.15156605 5.76596672 12.49854728 7.0432177 16 10 C21.60308137 15.93623756 22.35738341 19.72176255 22.27734375 27.796875 C21.78648725 33.4659219 18.96215486 36.25627457 14.875 39.8125 C9.29318525 44.05953297 3.84815376 43.5929499 -3 43 C-8.23872588 40.56773441 -12.39841957 36.20316085 -15 31 C-15.48887732 25.19758722 -15.85545438 19.84251714 -13.375 14.5 C-5.82937365 6.55723542 -5.82937365 6.55723542 -1 6 C-0.67 4.02 -0.34 2.04 0 0 Z " fill="#000000" transform="translate(82,212)"/>
<path d="M0 0 C1.30078125 2.8359375 1.30078125 2.8359375 2.3125 6.375 C2.65925781 7.53773438 3.00601563 8.70046875 3.36328125 9.8984375 C4 13 4 13 3 16 C2.01 16 1.02 16 0 16 C-0.99 11.545 -0.99 11.545 -2 7 C-2.66 7 -3.32 7 -4 7 C-4.38671875 8.07894531 -4.38671875 8.07894531 -4.78125 9.1796875 C-11.51076484 24.75247504 -26.90169979 39.24208166 -42.625 45.5 C-55.52871891 49.57682713 -66.86069116 48.10991567 -78.85620117 42.02807617 C-84.7006583 38.85643344 -89.35674984 34.70411673 -94 30 C-94.75539063 29.29746094 -95.51078125 28.59492188 -96.2890625 27.87109375 C-96.85367187 27.25363281 -97.41828125 26.63617188 -98 26 C-97.75 23.75 -97.75 23.75 -97 22 C-93.97915211 23.11883255 -92.81192021 24.23306248 -90.74609375 26.79296875 C-84.70466792 34.19980801 -75.33110647 39.95882046 -66 42 C-64.83017578 42.28423828 -64.83017578 42.28423828 -63.63671875 42.57421875 C-52.00753432 44.45211668 -41.76498267 40.81524887 -32.375 34.25 C-22.56565666 26.73821674 -13.58500668 17.17001336 -8 6 C-10.64 6.33 -13.28 6.66 -16 7 C-16.495 5.02 -16.495 5.02 -17 3 C-14.92085336 2.29994051 -12.83648414 1.61537756 -10.75 0.9375 C-9.58984375 0.55464844 -8.4296875 0.17179687 -7.234375 -0.22265625 C-2.35689956 -1.39489974 -2.35689956 -1.39489974 0 0 Z " fill="#000000" transform="translate(471,343)"/>
<path d="M0 0 C0.99 0.33 1.98 0.66 3 1 C-0.90993563 8.3777709 -5.094031 15.48847088 -9.625 22.5 C-10.868766 24.43992697 -12.11225097 26.38003415 -13.35546875 28.3203125 C-13.97083496 29.2784082 -14.58620117 30.23650391 -15.22021484 31.22363281 C-17.80982096 35.26327626 -20.37653181 39.31715853 -22.9375 43.375 C-23.41654785 44.13361328 -23.8955957 44.89222656 -24.38916016 45.67382812 C-29.09183658 53.12993321 -33.75836232 60.60858568 -38.42675781 68.08618164 C-43.77015447 76.64150471 -49.14924817 85.17374025 -54.54394531 93.69677734 C-56.03986175 96.06305429 -57.5321096 98.43161005 -59.0234375 100.80078125 C-64.51652062 109.52229394 -70.04555521 118.21600129 -75.69946289 126.83447266 C-77.96527256 129.7070365 -77.96527256 129.7070365 -79 133 C-77.02 133 -75.04 133 -73 133 C-73.33 133.99 -73.66 134.98 -74 136 C-77.63 136.33 -81.26 136.66 -85 137 C-86.19287411 133.12315913 -87 130.08378077 -87 126 C-86.01 126 -85.02 126 -84 126 C-83.34 127.32 -82.68 128.64 -82 130 C-75.46868277 119.68611358 -68.96431647 109.35603102 -62.5 99 C-56.51429226 89.41207845 -50.49635392 79.8452543 -44.45166016 70.29443359 C-41.9652647 66.36454047 -39.48282704 62.43214817 -37 58.5 C-34.03701864 53.80741307 -31.07341196 49.11523196 -28.10546875 44.42578125 C-21.72422006 34.33891147 -15.38262645 24.22804904 -9.07495117 14.0949707 C-6.11601373 9.34919131 -3.14215323 4.62682063 0 0 Z " fill="#000000" transform="translate(450,97)"/>
<path d="M0 0 C4.38000076 0.50057152 6.84169815 1.93193534 10 5 C10 5.99 10 6.98 10 8 C5.125 6.125 5.125 6.125 4 5 C3.97421875 6.24007812 3.9484375 7.48015625 3.921875 8.7578125 C2.97524519 41.75008516 -3.35194729 74.68005428 -11.1875 106.6875 C-11.4129248 107.61804199 -11.63834961 108.54858398 -11.87060547 109.50732422 C-13.35306123 115.30472745 -15.39716457 120.61338336 -18 126 C-18.66 125.67 -19.32 125.34 -20 125 C-19.79246094 124.19304687 -19.58492187 123.38609375 -19.37109375 122.5546875 C-18.46556934 118.98563315 -17.5766231 115.41309417 -16.69775391 111.83740234 C-16.2077756 109.84491534 -15.71501758 107.85311083 -15.22021484 105.86181641 C-11.51323118 90.85797919 -8.28430107 75.85872964 -5.6875 60.625 C-5.56457581 59.90790863 -5.44165161 59.19081726 -5.31500244 58.45199585 C-2.94664243 44.5380308 -0.87863167 30.62267153 -0.375 16.5 C-0.33632813 15.57058594 -0.29765625 14.64117187 -0.2578125 13.68359375 C-0.16594852 11.45589234 -0.07994838 9.22815494 0 7 C-0.45375 7.495 -0.9075 7.99 -1.375 8.5 C-3 10 -3 10 -5 10 C-4.49701212 5.59885603 -2.91227269 3.28804981 0 0 Z " fill="#000000" transform="translate(45,88)"/>
<path d="M0 0 C0.66 0.33 1.32 0.66 2 1 C2.70471191 3.11787415 2.70471191 3.11787415 3.35351562 5.95825195 C3.60173569 7.02442749 3.84995575 8.09060303 4.10569763 9.18908691 C4.36987991 10.36032104 4.63406219 11.53155518 4.90625 12.73828125 C5.48634498 15.2400052 6.0665072 17.74171355 6.64672852 20.2434082 C6.95263086 21.57509374 7.25821914 22.90685146 7.56350708 24.23867798 C9.119529 31.01928493 10.71129264 37.79151514 12.30859375 44.5625 C12.46665937 45.23306742 12.624725 45.90363483 12.78758049 46.59452248 C15.49531014 58.06202117 18.38486542 69.46608654 21.5625 80.8125 C21.85229736 81.85768295 21.85229736 81.85768295 22.14794922 82.92398071 C24.70360671 92.10362838 27.68769127 101.0685807 31 110 C31.495 108.515 31.495 108.515 32 107 C32.99 107 33.98 107 35 107 C34.85957123 108.64630328 34.71250671 110.29204179 34.5625 111.9375 C34.48128906 112.85402344 34.40007812 113.77054687 34.31640625 114.71484375 C34 117 34 117 33 118 C25.70588235 118.23529412 25.70588235 118.23529412 22 117 C22 116.01 22 115.02 22 114 C23.98 114 25.96 114 28 114 C27.79169556 113.40061615 27.58339111 112.8012323 27.36877441 112.1836853 C22.05869076 96.81425869 17.50305758 81.38161801 13.5 65.625 C12.94077495 63.44695372 12.38128242 61.26897609 11.8215332 59.09106445 C8.50730724 46.14848877 5.27710247 33.18557686 2.1875 20.1875 C1.93395752 19.12937103 1.93395752 19.12937103 1.67529297 18.04986572 C1.20793262 16.09079278 0.75018444 14.12943409 0.29296875 12.16796875 C0.0405542 11.08797607 -0.21186035 10.0079834 -0.47192383 8.89526367 C-0.96884026 6.17083833 -1.18170591 3.76025827 -1 1 C-0.67 0.67 -0.34 0.34 0 0 Z " fill="#000000" transform="translate(220,57)"/>
<path d="M0 0 C0.66 0.33 1.32 0.66 2 1 C0.74560948 4.37339922 -0.67776562 7.2545427 -2.69873047 10.22924805 C-3.51130814 11.43287239 -3.51130814 11.43287239 -4.34030151 12.66081238 C-4.92667389 13.51911148 -5.51304626 14.37741058 -6.1171875 15.26171875 C-7.03578049 16.61871635 -7.03578049 16.61871635 -7.97293091 18.00312805 C-9.93586055 20.9009498 -11.90520885 23.7943391 -13.875 26.6875 C-15.16190741 28.58367967 -16.44837007 30.48016127 -17.734375 32.37695312 C-18.6827121 33.77568161 -18.6827121 33.77568161 -19.65020752 35.20266724 C-20.27868591 36.12965424 -20.90716431 37.05664124 -21.5546875 38.01171875 C-22.17945984 38.93266327 -22.80423218 39.85360779 -23.44793701 40.80245972 C-27.62933788 46.96854601 -31.79970841 53.14181163 -35.9453125 59.33203125 C-36.4593161 60.09609787 -36.9733197 60.86016449 -37.50289917 61.64738464 C-39.8939519 64.60236384 -39.8939519 64.60236384 -41 68 C-39.35 68 -37.7 68 -36 68 C-36 68.99 -36 69.98 -36 71 C-41.445 71.495 -41.445 71.495 -47 72 C-48.42258812 68.17679443 -49.24042276 65.08718695 -49 61 C-48.01 61 -47.02 61 -46 61 C-46 62.65 -46 64.3 -46 66 C-43.30798745 63.42813429 -41.1053272 60.89387112 -39.07421875 57.77661133 C-38.26186768 56.53800102 -38.26186768 56.53800102 -37.43310547 55.27436829 C-36.85705566 54.38589706 -36.28100586 53.49742584 -35.6875 52.58203125 C-35.07793457 51.65138351 -34.46836914 50.72073578 -33.84033203 49.7618866 C-31.88899526 46.78170926 -29.94398612 43.79747645 -28 40.8125 C-3.98379905 3.98379905 -3.98379905 3.98379905 0 0 Z " fill="#000000" transform="translate(235,398)"/>
<path d="M0 0 C1.4540625 0.0309375 1.4540625 0.0309375 2.9375 0.0625 C5.0625 4.6875 5.0625 4.6875 3.9375 8.0625 C4.26300502 9.73071323 4.59596063 11.39749557 4.9375 13.0625 C4.6075 13.7225 4.2775 14.3825 3.9375 15.0625 C1.125 15.9375 1.125 15.9375 -2.0625 16.0625 C-4.4375 14.125 -4.4375 14.125 -6.0625 12.0625 C-2.43923261 10.8547442 -1.42103631 11.51938872 1.9375 13.0625 C1.9375 11.7425 1.9375 10.4225 1.9375 9.0625 C0.6175 9.0625 -0.7025 9.0625 -2.0625 9.0625 C-2.0625 8.0725 -2.0625 7.0825 -2.0625 6.0625 C-0.7425 6.0625 0.5775 6.0625 1.9375 6.0625 C1.6075 5.0725 1.2775 4.0825 0.9375 3.0625 C-1.0425 3.7225 -3.0225 4.3825 -5.0625 5.0625 C-3.9375 0.08035714 -3.9375 0.08035714 0 0 Z " fill="#000000" transform="translate(419.0625,337.9375)"/>
<path d="M0 0 C3.0625 0.1875 3.0625 0.1875 5.0625 2.1875 C4.90004442 5.92397845 4.47466356 7.71288742 2 10.5625 C1.360625 11.09875 0.72125 11.635 0.0625 12.1875 C1.7125 12.5175 3.3625 12.8475 5.0625 13.1875 C5.0625 13.8475 5.0625 14.5075 5.0625 15.1875 C1.7625 15.1875 -1.5375 15.1875 -4.9375 15.1875 C-2.9375 11.1875 -2.9375 11.1875 -0.8125 8.625 C1.36735538 6.30372611 1.36735538 6.30372611 1.0625 3.1875 C0.4025 3.1875 -0.2575 3.1875 -0.9375 3.1875 C-1.2675 3.8475 -1.5975 4.5075 -1.9375 5.1875 C-2.9275 5.1875 -3.9175 5.1875 -4.9375 5.1875 C-3.82120474 0.24390669 -3.82120474 0.24390669 0 0 Z " fill="#000000" transform="translate(261.9375,92.8125)"/>
<path d="M0 0 C2.875 -0.125 2.875 -0.125 6 0 C6.66 0.66 7.32 1.32 8 2 C7.83754442 5.73647845 7.41216356 7.52538742 4.9375 10.375 C4.298125 10.91125 3.65875 11.4475 3 12 C4.65 12.33 6.3 12.66 8 13 C8 13.66 8 14.32 8 15 C4.7 15 1.4 15 -2 15 C0 11 0 11 2.125 8.4375 C4.30485538 6.11622611 4.30485538 6.11622611 4 3 C3.34 3 2.68 3 2 3 C1.67 3.66 1.34 4.32 1 5 C0.01 5 -0.98 5 -2 5 C-1.34 3.35 -0.68 1.7 0 0 Z " fill="#000000" transform="translate(232,432)"/>
<path d="M0 0 C2.875 -0.125 2.875 -0.125 6 0 C6.66 0.66 7.32 1.32 8 2 C7.83754442 5.73647845 7.41216356 7.52538742 4.9375 10.375 C4.298125 10.91125 3.65875 11.4475 3 12 C4.65 12.33 6.3 12.66 8 13 C8 13.66 8 14.32 8 15 C4.7 15 1.4 15 -2 15 C0 11 0 11 2.125 8.4375 C4.30485538 6.11622611 4.30485538 6.11622611 4 3 C3.34 3 2.68 3 2 3 C1.67 3.66 1.34 4.32 1 5 C0.01 5 -0.98 5 -2 5 C-1.34 3.35 -0.68 1.7 0 0 Z " fill="#000000" transform="translate(416,178)"/>
<path d="M0 0 C0 4.95 0 9.9 0 15 C-0.99 15 -1.98 15 -3 15 C-3 11.37 -3 7.74 -3 4 C-3.99 4.33 -4.98 4.66 -6 5 C-5.625 3.0625 -5.625 3.0625 -5 1 C-3 0 -3 0 0 0 Z " fill="#000000" transform="translate(252,432)"/>
<path d="M0 0 C0 4.95 0 9.9 0 15 C-0.99 15 -1.98 15 -3 15 C-3 11.37 -3 7.74 -3 4 C-3.99 4.33 -4.98 4.66 -6 5 C-5.625 3.0625 -5.625 3.0625 -5 1 C-3 0 -3 0 0 0 Z " fill="#000000" transform="translate(406,338)"/>
<path d="M0 0 C0 4.95 0 9.9 0 15 C-0.99 15 -1.98 15 -3 15 C-3 11.37 -3 7.74 -3 4 C-3.99 4.33 -4.98 4.66 -6 5 C-5.625 3.0625 -5.625 3.0625 -5 1 C-3 0 -3 0 0 0 Z " fill="#000000" transform="translate(436,178)"/>
<path d="M0 0 C0 4.95 0 9.9 0 15 C-0.99 15 -1.98 15 -3 15 C-3 11.37 -3 7.74 -3 4 C-3.99 4.33 -4.98 4.66 -6 5 C-5.625 3.0625 -5.625 3.0625 -5 1 C-3 0 -3 0 0 0 Z " fill="#000000" transform="translate(7,136)"/>
<path d="M0 0 C0 4.95 0 9.9 0 15 C-0.99 15 -1.98 15 -3 15 C-3 11.37 -3 7.74 -3 4 C-3.99 4.33 -4.98 4.66 -6 5 C-5.625 3.0625 -5.625 3.0625 -5 1 C-3 0 -3 0 0 0 Z " fill="#000000" transform="translate(249,93)"/>
<path d="M0 0 C0 4.95 0 9.9 0 15 C-0.66 15 -1.32 15 -2 15 C-2.33 11.37 -2.66 7.74 -3 4 C-3.99 4.33 -4.98 4.66 -6 5 C-6 4.01 -6 3.02 -6 2 C-3 0 -3 0 0 0 Z " fill="#000000" transform="translate(19,136)"/>
<path d="M0 0 C0.99 0 1.98 0 3 0 C3.69965443 1.26418246 4.38434763 2.53665402 5.0625 3.8125 C5.63677734 4.87404297 5.63677734 4.87404297 6.22265625 5.95703125 C7 8 7 8 6 11 C5.34 11 4.68 11 4 11 C3.32591692 9.73308493 2.66099503 8.46129251 2 7.1875 C1.62875 6.47980469 1.2575 5.77210938 0.875 5.04296875 C0 3 0 3 0 0 Z " fill="#000000" transform="translate(185,145)"/>
<path d="M0 0 C0.99 0.33 1.98 0.66 3 1 C2.07456291 2.34173403 1.13422595 3.67320159 0.1875 5 C-0.33457031 5.7425 -0.85664063 6.485 -1.39453125 7.25 C-1.92433594 7.8275 -2.45414062 8.405 -3 9 C-3.99 9 -4.98 9 -6 9 C-5.52797514 4.75177626 -3.03344482 2.80010291 0 0 Z " fill="#000000" transform="translate(497,430)"/>
<path d="M0 0 C3.39417765 3.12621626 5.6062718 5.56541027 7 10 C6.01 10 5.02 10 4 10 C2.578125 8.57421875 2.578125 8.57421875 1.25 6.6875 C0.80140625 6.07261719 0.3528125 5.45773437 -0.109375 4.82421875 C-1 3 -1 3 0 0 Z " fill="#000000" transform="translate(277,327)"/>
<path d="M0 0 C3.32368224 1.10789408 3.61563093 1.48436217 5.25 4.375 C5.60578125 4.98085938 5.9615625 5.58671875 6.328125 6.2109375 C7 8 7 8 6 11 C5.34 11 4.68 11 4 11 C0 4.5 0 4.5 0 0 Z " fill="#000000" transform="translate(254,293)"/>
<path d="M0 0 C3 1 3 1 4.6875 4.375 C6 8 6 8 6 11 C5.01 11 4.02 11 3 11 C1.68 7.7 0.36 4.4 -1 1 C-0.67 0.67 -0.34 0.34 0 0 Z " fill="#000000" transform="translate(229,237)"/>
<path d="M0 0 C3.36591427 2.72478774 4.44226276 6.06856792 6 10 C4.68 10 3.36 10 2 10 C0.68 7.03 -0.64 4.06 -2 1 C-1.34 0.67 -0.68 0.34 0 0 Z " fill="#000000" transform="translate(168,108)"/>
<path d="M0 0 C0 0.99 0 1.98 0 3 C-4.95 4.485 -4.95 4.485 -10 6 C-10 4.68 -10 3.36 -10 2 C-8.7090864 1.66376204 -7.41723903 1.33110751 -6.125 1 C-5.40570313 0.814375 -4.68640625 0.62875 -3.9453125 0.4375 C-2 0 -2 0 0 0 Z " fill="#000000" transform="translate(484,442)"/>
<path d="M0 0 C4.43458973 1.3937282 6.87378374 3.60582235 10 7 C9.01 7.33 8.02 7.66 7 8 C4.95703125 6.78515625 4.95703125 6.78515625 2.8125 5.0625 C2.09707031 4.49660156 1.38164062 3.93070312 0.64453125 3.34765625 C0.10183594 2.90292969 -0.44085938 2.45820313 -1 2 C-0.67 1.34 -0.34 0.68 0 0 Z " fill="#000000" transform="translate(359,418)"/>
<path d="M0 0 C4.24822374 0.47202486 6.19989709 2.96655518 9 6 C8.67 6.99 8.34 7.98 8 9 C6.65826597 8.07456291 5.32679841 7.13422595 4 6.1875 C3.2575 5.66542969 2.515 5.14335937 1.75 4.60546875 C1.1725 4.07566406 0.595 3.54585938 0 3 C0 2.01 0 1.02 0 0 Z " fill="#000000" transform="translate(343,405)"/>
<path d="M0 0 C0.99 0.33 1.98 0.66 3 1 C2.01 3.97 1.02 6.94 0 10 C-1.32 10 -2.64 10 -4 10 C-2.68 6.7 -1.36 3.4 0 0 Z " fill="#000000" transform="translate(525,376)"/>
<path d="M0 0 C2.53910197 0.38520564 3.72751123 0.70097943 5.484375 2.62890625 C5.90203125 3.26699219 6.3196875 3.90507812 6.75 4.5625 C7.17796875 5.20316406 7.6059375 5.84382813 8.046875 6.50390625 C8.36140625 6.99761719 8.6759375 7.49132812 9 8 C5 8 5 8 2.25 5.6875 C0 3 0 3 0 0 Z " fill="#000000" transform="translate(314,376)"/>
<path d="M0 0 C3.78717347 1.48781815 5.77407001 3.61988409 8 7 C7.67 7.99 7.34 8.98 7 10 C0.42857143 4.85714286 0.42857143 4.85714286 -1 1 C-0.67 0.67 -0.34 0.34 0 0 Z " fill="#000000" transform="translate(301,360)"/>
<path d="M0 0 C0.99 0.33 1.98 0.66 3 1 C1.76067171 4.43198603 0.49698489 7.30325632 -2 10 C-2.99 10 -3.98 10 -5 10 C-4.38545304 6.00544473 -2.29353263 3.25533664 0 0 Z " fill="#000000" transform="translate(218,334)"/>
<path d="M0 0 C2.96052484 3.36423277 3.92289822 6.69159287 5 11 C4.01 11 3.02 11 2 11 C1.32845067 9.71086513 0.66291141 8.41859796 0 7.125 C-0.37125 6.40570313 -0.7425 5.68640625 -1.125 4.9453125 C-2 3 -2 3 -2 1 C-1.34 0.67 -0.68 0.34 0 0 Z " fill="#000000" transform="translate(247,274)"/>
<path d="M0 0 C0.99 0 1.98 0 3 0 C4.32 3.3 5.64 6.6 7 10 C6.01 10.33 5.02 10.66 4 11 C3.32591692 9.73308493 2.66099503 8.46129251 2 7.1875 C1.62875 6.47980469 1.2575 5.77210938 0.875 5.04296875 C0 3 0 3 0 0 Z " fill="#000000" transform="translate(220,219)"/>
<path d="M0 0 C0.66 0 1.32 0 2 0 C2.69965443 1.26418246 3.38434763 2.53665402 4.0625 3.8125 C4.63677734 4.87404297 4.63677734 4.87404297 5.22265625 5.95703125 C6 8 6 8 5 11 C4.34 11 3.68 11 3 11 C1.68 7.7 0.36 4.4 -1 1 C-0.67 0.67 -0.34 0.34 0 0 Z " fill="#000000" transform="translate(212,200)"/>
<path d="M0 0 C0.99 0 1.98 0 3 0 C2.38545304 3.99455527 0.29353263 6.74466336 -2 10 C-2.99 9.67 -3.98 9.34 -5 9 C-3.76067171 5.56801397 -2.49698489 2.69674368 0 0 Z " fill="#000000" transform="translate(344,156)"/>
<path d="M0 0 C0.99 0 1.98 0 3 0 C3.67154933 1.28913487 4.33708859 2.58140204 5 3.875 C5.37125 4.59429687 5.7425 5.31359375 6.125 6.0546875 C7 8 7 8 7 10 C5.1875 9.875 5.1875 9.875 3 9 C1.04679411 5.79116175 0 3.7794561 0 0 Z " fill="#000000" transform="translate(176,127)"/>
<path d="M0 0 C0.99 0 1.98 0 3 0 C7 6.625 7 6.625 7 10 C6.01 10 5.02 10 4 10 C0 3.375 0 3.375 0 0 Z " fill="#000000" transform="translate(157,91)"/>
<path d="M0 0 C4.42679007 1.47559669 4.91432696 3.90057368 7 8 C7 8.66 7 9.32 7 10 C5.140625 9.75390625 5.140625 9.75390625 3 9 C1.734375 7.15234375 1.734375 7.15234375 0.75 4.9375 C0.41484375 4.20402344 0.0796875 3.47054687 -0.265625 2.71484375 C-0.50796875 2.14894531 -0.7503125 1.58304687 -1 1 C-0.67 0.67 -0.34 0.34 0 0 Z " fill="#000000" transform="translate(147,73)"/>
<path d="M0 0 C0.99 0.33 1.98 0.66 3 1 C1.02 3.97 -0.96 6.94 -3 10 C-3.99 9.34 -4.98 8.68 -6 8 C-4.02 5.36 -2.04 2.72 0 0 Z " fill="#000000" transform="translate(138,448)"/>
<path d="M0 0 C4.95 1.98 4.95 1.98 10 4 C10 4.99 10 5.98 10 7 C8.53932801 6.54917531 7.08151968 6.08906463 5.625 5.625 C4.81289063 5.36976563 4.00078125 5.11453125 3.1640625 4.8515625 C1 4 1 4 -1 2 C-0.67 1.34 -0.34 0.68 0 0 Z " fill="#000000" transform="translate(394,439)"/>
<path d="M0 0 C3.98264458 0.44251606 6.7971409 2.74344018 10 5 C9.67 5.66 9.34 6.32 9 7 C4.56909529 5.79157144 2.01887244 4.48331435 -1 1 C-0.67 0.67 -0.34 0.34 0 0 Z " fill="#000000" transform="translate(376,430)"/>
<path d="M0 0 C0.99 0.66 1.98 1.32 3 2 C1.02 4.64 -0.96 7.28 -3 10 C-3.99 9.67 -4.98 9.34 -6 9 C-4.02 6.03 -2.04 3.06 0 0 Z " fill="#000000" transform="translate(161,415)"/>
<path d="M0 0 C0.66 0 1.32 0 2 0 C1.49701212 4.40114397 -0.08772731 6.71195019 -3 10 C-3.99 9.67 -4.98 9.34 -6 9 C-2.25 2.25 -2.25 2.25 0 0 Z " fill="#000000" transform="translate(184,383)"/>
<path d="M0 0 C1.75 0.125 1.75 0.125 4 1 C6.3125 3.875 6.3125 3.875 8 7 C7.67 7.99 7.34 8.98 7 10 C3.60582235 6.87378374 1.3937282 4.43458973 0 0 Z " fill="#000000" transform="translate(264,311)"/>
<path d="M0 0 C0.99 0 1.98 0 3 0 C2.34 3.3 1.68 6.6 1 10 C0.01 10.33 -0.98 10.66 -2 11 C-1.125 3.375 -1.125 3.375 0 0 Z " fill="#000000" transform="translate(551,300)"/>
<path d="M0 0 C0.99 0 1.98 0 3 0 C2.38545304 3.99455527 0.29353263 6.74466336 -2 10 C-2.99 9.67 -3.98 9.34 -5 9 C-3.76067171 5.56801397 -2.49698489 2.69674368 0 0 Z " fill="#000000" transform="translate(252,286)"/>
<path d="M0 0 C0.99 0.33 1.98 0.66 3 1 C2.34 3.97 1.68 6.94 1 10 C-0.32 10.33 -1.64 10.66 -3 11 C-2.01 7.37 -1.02 3.74 0 0 Z " fill="#000000" transform="translate(557,280)"/>
<path d="M0 0 C0.99 0.33 1.98 0.66 3 1 C1.76067171 4.43198603 0.49698489 7.30325632 -2 10 C-2.99 10 -3.98 10 -5 10 C-4.38545304 6.00544473 -2.29353263 3.25533664 0 0 Z " fill="#000000" transform="translate(264,269)"/>
<path d="M0 0 C0.99 0 1.98 0 3 0 C2.34 3.63 1.68 7.26 1 11 C0.01 11 -0.98 11 -2 11 C-1.125 3.375 -1.125 3.375 0 0 Z " fill="#000000" transform="translate(562,261)"/>
<path d="M0 0 C0.99 0 1.98 0 3 0 C4.32 3.3 5.64 6.6 7 10 C5.68 10 4.36 10 3 10 C0 3.375 0 3.375 0 0 Z " fill="#000000" transform="translate(237,256)"/>
<path d="M0 0 C0.99 0 1.98 0 3 0 C2.38545304 3.99455527 0.29353263 6.74466336 -2 10 C-2.99 9.67 -3.98 9.34 -5 9 C-3.76067171 5.56801397 -2.49698489 2.69674368 0 0 Z " fill="#000000" transform="translate(298,221)"/>
<path d="M0 0 C0.99 0.33 1.98 0.66 3 1 C1.76067171 4.43198603 0.49698489 7.30325632 -2 10 C-2.99 10 -3.98 10 -5 10 C-4.38545304 6.00544473 -2.29353263 3.25533664 0 0 Z " fill="#000000" transform="translate(310,204)"/>
<path d="M0 0 C0.66 0 1.32 0 2 0 C3.32 3.3 4.64 6.6 6 10 C4.68 10 3.36 10 2 10 C1.01 7.03 0.02 4.06 -1 1 C-0.67 0.67 -0.34 0.34 0 0 Z " fill="#000000" transform="translate(195,163)"/>
<path d="M0 0 C0.99 0.33 1.98 0.66 3 1 C-1 8.71428571 -1 8.71428571 -5 10 C-4.49701212 5.59885603 -2.91227269 3.28804981 0 0 Z " fill="#000000" transform="translate(379,107)"/>
<path d="M0 0 C0.99 0.33 1.98 0.66 3 1 C1.02 3.97 -0.96 6.94 -3 10 C-3.99 9.34 -4.98 8.68 -6 8 C-4.02 5.36 -2.04 2.72 0 0 Z " fill="#000000" transform="translate(402,75)"/>
<path d="M0 0 C3.79379058 1.49041773 5.68343758 3.69062512 8 7 C8 7.66 8 8.32 8 9 C5.46089803 8.61479436 4.27248877 8.29902057 2.515625 6.37109375 C2.09796875 5.73300781 1.6803125 5.09492187 1.25 4.4375 C0.82203125 3.79683594 0.3940625 3.15617187 -0.046875 2.49609375 C-0.51867187 1.75552734 -0.51867187 1.75552734 -1 1 C-0.67 0.67 -0.34 0.34 0 0 Z " fill="#000000" transform="translate(135,57)"/>
<path d="M0 0 C0.33 0.99 0.66 1.98 1 3 C-2.3 3.66 -5.6 4.32 -9 5 C-9 3.68 -9 2.36 -9 1 C-6.04335481 -0.4783226 -3.25770263 -0.06032783 0 0 Z " fill="#000000" transform="translate(127,49)"/>
<path d="M0 0 C0.99 0.66 1.98 1.32 3 2 C1.02 4.64 -0.96 7.28 -3 10 C-3.99 9.67 -4.98 9.34 -6 9 C-4.02 6.03 -2.04 3.06 0 0 Z " fill="#000000" transform="translate(425,42)"/>
<path d="M0 0 C0 0.99 0 1.98 0 3 C-3.3 3.66 -6.6 4.32 -10 5 C-10.33 4.01 -10.66 3.02 -11 2 C-3.375 0 -3.375 0 0 0 Z " fill="#000000" transform="translate(464,448)"/>
<path d="M0 0 C5.445 1.485 5.445 1.485 11 3 C10.67 3.99 10.34 4.98 10 6 C5.545 5.01 5.545 5.01 1 4 C0.67 2.68 0.34 1.36 0 0 Z " fill="#000000" transform="translate(413,446)"/>
<path d="M0 0 C0.99 0 1.98 0 3 0 C1.76067171 3.43198603 0.49698489 6.30325632 -2 9 C-2.99 9 -3.98 9 -5 9 C-3.76067171 5.56801397 -2.49698489 2.69674368 0 0 Z " fill="#000000" transform="translate(149,432)"/>
<path d="M0 0 C0.99 0.33 1.98 0.66 3 1 C0.525 5.455 0.525 5.455 -2 10 C-2.99 9.67 -3.98 9.34 -5 9 C-3.35 6.03 -1.7 3.06 0 0 Z " fill="#000000" transform="translate(508,413)"/>
<path d="M0 0 C0.99 0.33 1.98 0.66 3 1 C1.50163895 4.11198065 -0.19933758 7.0534615 -2 10 C-2.99 9.67 -3.98 9.34 -5 9 C-3.50163895 5.88801935 -1.80066242 2.9465385 0 0 Z " fill="#000000" transform="translate(172,399)"/>
<path d="M0 0 C0.99 0.33 1.98 0.66 3 1 C-0.625 7.75 -0.625 7.75 -4 10 C-4.33 9.01 -4.66 8.02 -5 7 C-4.00390625 5.17578125 -4.00390625 5.17578125 -2.5625 3.3125 C-2.08941406 2.68988281 -1.61632812 2.06726563 -1.12890625 1.42578125 C-0.75636719 0.95527344 -0.38382813 0.48476563 0 0 Z " fill="#000000" transform="translate(195,367)"/>
<path d="M0 0 C0.66 0.33 1.32 0.66 2 1 C1.39009109 4.55780196 0.4216319 7.6828589 -1 11 C-1.99 11 -2.98 11 -4 11 C-3.5247412 9.35303396 -3.04468109 7.70745272 -2.5625 6.0625 C-2.29566406 5.14597656 -2.02882813 4.22945313 -1.75390625 3.28515625 C-1 1 -1 1 0 0 Z " fill="#000000" transform="translate(533,357)"/>
<path d="M0 0 C0.66 0 1.32 0 2 0 C3.32421875 1.42578125 3.32421875 1.42578125 4.6875 3.3125 C5.14511719 3.92738281 5.60273438 4.54226563 6.07421875 5.17578125 C6.53248047 6.07876953 6.53248047 6.07876953 7 7 C6.67 7.99 6.34 8.98 6 10 C3.03595495 7.19195732 0.55500981 4.81684226 -1 1 C-0.67 0.67 -0.34 0.34 0 0 Z " fill="#000000" transform="translate(289,344)"/>
<path d="M0 0 C0.99 0.33 1.98 0.66 3 1 C2.01 4.3 1.02 7.6 0 11 C-0.99 11 -1.98 11 -3 11 C-2.32829194 7.1936543 -1.27253436 3.64793184 0 0 Z " fill="#000000" transform="translate(539,338)"/>
<path d="M0 0 C0.99 0.33 1.98 0.66 3 1 C2.745504 2.48206495 2.47088238 3.96068615 2.1875 5.4375 C2.03667969 6.26121094 1.88585937 7.08492188 1.73046875 7.93359375 C1.48941406 8.61550781 1.24835937 9.29742187 1 10 C0.01 10.33 -0.98 10.66 -2 11 C-1.125 3.375 -1.125 3.375 0 0 Z " fill="#000000" transform="translate(545,319)"/>
<path d="M0 0 C0.66 0.33 1.32 0.66 2 1 C0.7508258 4.45925163 -0.67527795 7.14693203 -3 10 C-3.99 9.67 -4.98 9.34 -6 9 C-2.25 2.25 -2.25 2.25 0 0 Z " fill="#000000" transform="translate(230,318)"/>
<path d="M0 0 C0.99 0.33 1.98 0.66 3 1 C-0.625 7.75 -0.625 7.75 -4 10 C-4.33 9.01 -4.66 8.02 -5 7 C-4.00390625 5.17578125 -4.00390625 5.17578125 -2.5625 3.3125 C-2.08941406 2.68988281 -1.61632812 2.06726563 -1.12890625 1.42578125 C-0.75636719 0.95527344 -0.38382813 0.48476563 0 0 Z " fill="#000000" transform="translate(241,302)"/>
<path d="M0 0 C0.66 0.33 1.32 0.66 2 1 C0.7508258 4.45925163 -0.67527795 7.14693203 -3 10 C-3.99 9.67 -4.98 9.34 -6 9 C-2.25 2.25 -2.25 2.25 0 0 Z " fill="#000000" transform="translate(276,253)"/>
<path d="M0 0 C0.99 0.33 1.98 0.66 3 1 C2.34 4.3 1.68 7.6 1 11 C0.01 11 -0.98 11 -2 11 C-1.34 7.37 -0.68 3.74 0 0 Z " fill="#000000" transform="translate(567,241)"/>
<path d="M0 0 C0.99 0.33 1.98 0.66 3 1 C-0.625 7.75 -0.625 7.75 -4 10 C-4.33 9.01 -4.66 8.02 -5 7 C-4.00390625 5.17578125 -4.00390625 5.17578125 -2.5625 3.3125 C-2.08941406 2.68988281 -1.61632812 2.06726563 -1.12890625 1.42578125 C-0.75636719 0.95527344 -0.38382812 0.48476562 0 0 Z " fill="#000000" transform="translate(287,237)"/>
<path d="M0 0 C0.99 0 1.98 0 3 0 C2.34 3.63 1.68 7.26 1 11 C0.01 10.67 -0.98 10.34 -2 10 C-1.125 2.25 -1.125 2.25 0 0 Z " fill="#000000" transform="translate(572,222)"/>
<path d="M0 0 C0.66 0.33 1.32 0.66 2 1 C0.7508258 4.45925163 -0.67527795 7.14693203 -3 10 C-3.99 9.67 -4.98 9.34 -6 9 C-2.25 2.25 -2.25 2.25 0 0 Z " fill="#000000" transform="translate(322,188)"/>
<path d="M0 0 C0.99 0.33 1.98 0.66 3 1 C-0.625 7.75 -0.625 7.75 -4 10 C-4.33 9.01 -4.66 8.02 -5 7 C-4.00390625 5.17578125 -4.00390625 5.17578125 -2.5625 3.3125 C-2.08941406 2.68988281 -1.61632812 2.06726563 -1.12890625 1.42578125 C-0.75636719 0.95527344 -0.38382812 0.48476562 0 0 Z " fill="#000000" transform="translate(333,172)"/>
<path d="M0 0 C0.66 0.33 1.32 0.66 2 1 C0.7508258 4.45925163 -0.67527795 7.14693203 -3 10 C-3.99 9.67 -4.98 9.34 -6 9 C-2.25 2.25 -2.25 2.25 0 0 Z " fill="#000000" transform="translate(368,123)"/>
<path d="M0 0 C0.99 0.33 1.98 0.66 3 1 C1.50163895 4.11198065 -0.19933758 7.0534615 -2 10 C-2.99 9.67 -3.98 9.34 -5 9 C-3.50163895 5.88801935 -1.80066242 2.9465385 0 0 Z " fill="#000000" transform="translate(390,91)"/>
<path d="M0 0 C0.99 0.33 1.98 0.66 3 1 C2.34 4.3 1.68 7.6 1 11 C0.01 11 -0.98 11 -2 11 C-1.34 7.37 -0.68 3.74 0 0 Z " fill="#000000" transform="translate(106,80)"/>
<path d="M0 0 C0.99 0 1.98 0 3 0 C1.76067171 3.43198603 0.49698489 6.30325632 -2 9 C-2.99 9 -3.98 9 -5 9 C-3.76067171 5.56801397 -2.49698489 2.69674368 0 0 Z " fill="#000000" transform="translate(413,59)"/>
<path d="M0 0 C4.24822374 0.47202486 6.19989709 2.96655518 9 6 C8.67 6.99 8.34 7.98 8 9 C6.84775972 8.07038578 5.70340824 7.1309875 4.5625 6.1875 C3.60537109 5.40439453 3.60537109 5.40439453 2.62890625 4.60546875 C1 3 1 3 0 0 Z " fill="#000000" transform="translate(328,391)"/>
<path d="M0 0 C0.99 0 1.98 0 3 0 C2.42647107 3.87132028 0.51295648 6.08172796 -2 9 C-2.99 8.67 -3.98 8.34 -5 8 C-4.24266726 6.6589523 -3.46867264 5.32730219 -2.6875 4 C-2.25824219 3.2575 -1.82898438 2.515 -1.38671875 1.75 C-0.70029297 0.88375 -0.70029297 0.88375 0 0 Z " fill="#000000" transform="translate(206,351)"/>
<path d="M0 0 C0.99 0 1.98 0 3 0 C6 6.625 6 6.625 6 10 C5.01 10 4.02 10 3 10 C0 3.375 0 3.375 0 0 Z " fill="#000000" transform="translate(203,182)"/>
<path d="M0 0 C0.99 0.33 1.98 0.66 3 1 C2.34 4.3 1.68 7.6 1 11 C0.01 10.67 -0.98 10.34 -2 10 C-1.34 6.7 -0.68 3.4 0 0 Z " fill="#000000" transform="translate(89,174)"/>
<path d="M0 0 C0.99 0.33 1.98 0.66 3 1 C2.67 3.97 2.34 6.94 2 10 C0.68 10.33 -0.64 10.66 -2 11 C-1.34 7.37 -0.68 3.74 0 0 Z " fill="#000000" transform="translate(92,155)"/>
<path d="M0 0 C0.99 0.33 1.98 0.66 3 1 C2.24266726 2.3410477 1.46867264 3.67269781 0.6875 5 C0.25824219 5.7425 -0.17101562 6.485 -0.61328125 7.25 C-1.07089844 7.8275 -1.52851563 8.405 -2 9 C-2.99 9 -3.98 9 -5 9 C-4.42647107 5.12867972 -2.51295648 2.91827204 0 0 Z " fill="#000000" transform="translate(356,140)"/>
<path d="M0 0 C0.99 0 1.98 0 3 0 C2.88590407 1.45922693 2.75834456 2.91740598 2.625 4.375 C2.55539063 5.18710938 2.48578125 5.99921875 2.4140625 6.8359375 C2 9 2 9 0 11 C-0.66 10.34 -1.32 9.68 -2 9 C-1.7578125 6.8359375 -1.7578125 6.8359375 -1.125 4.375 C-0.92132813 3.55773437 -0.71765625 2.74046875 -0.5078125 1.8984375 C-0.34023437 1.27195312 -0.17265625 0.64546875 0 0 Z " fill="#000000" transform="translate(99,118)"/>
<path d="M0 0 C0.66 0.33 1.32 0.66 2 1 C1.67 4.3 1.34 7.6 1 11 C0.01 11 -0.98 11 -2 11 C-1.85957123 9.35369672 -1.71250671 7.70795821 -1.5625 6.0625 C-1.48128906 5.14597656 -1.40007812 4.22945313 -1.31640625 3.28515625 C-1 1 -1 1 0 0 Z " fill="#000000" transform="translate(103,99)"/>
<path d="M0 0 C0.99 0 1.98 0 3 0 C2.34 3.3 1.68 6.6 1 10 C0.01 10 -0.98 10 -2 10 C-1.54177532 6.53058454 -1.10868317 3.32604951 0 0 Z " fill="#000000" transform="translate(111,61)"/>
<path d="M0 0 C0.99 0 1.98 0 3 0 C1.8905928 3.48670834 0.73662334 6.77484237 -1 10 C-1.99 10 -2.98 10 -4 10 C-2.8905928 6.51329166 -1.73662334 3.22515763 0 0 Z " fill="#000000" transform="translate(517,395)"/>
<path d="M0 0 C7.42857143 -0.14285714 7.42857143 -0.14285714 11 1 C11 1.66 11 2.32 11 3 C7.37 3 3.74 3 0 3 C0 2.01 0 1.02 0 0 Z " fill="#000000" transform="translate(433,450)"/>
<path d="M0 0 C0.99 0 1.98 0 3 0 C2.67 3.3 2.34 6.6 2 10 C1.01 10 0.02 10 -1 10 C-0.67 6.7 -0.34 3.4 0 0 Z " fill="#000000" transform="translate(85,193)"/>
<path d="M0 0 C0.66 0 1.32 0 2 0 C1.67 3.3 1.34 6.6 1 10 C0.01 10 -0.98 10 -2 10 C-1.85950482 8.52031676 -1.71245174 7.04125484 -1.5625 5.5625 C-1.48128906 4.73878906 -1.40007812 3.91507813 -1.31640625 3.06640625 C-1 1 -1 1 0 0 Z " fill="#000000" transform="translate(96,137)"/>
<path d="M0 0 C0.99 0 1.98 0 3 0 C2.67 1.98 2.34 3.96 2 6 C1.01 6 0.02 6 -1 6 C-0.67 4.02 -0.34 2.04 0 0 Z " fill="#000000" transform="translate(575,207)"/>
<path d="M0 0 C0.99 0.33 1.98 0.66 3 1 C2.34 2.32 1.68 3.64 1 5 C0.01 5 -0.98 5 -2 5 C-1.34 3.35 -0.68 1.7 0 0 Z " fill="#000000" transform="translate(126,464)"/>
<path d="M0 0 C0.66 0.33 1.32 0.66 2 1 C1.34 2.65 0.68 4.3 0 6 C-0.99 5.67 -1.98 5.34 -3 5 C-1.125 1.125 -1.125 1.125 0 0 Z " fill="#000000" transform="translate(434,30)"/>
<path d="M0 0 C0.99 0.33 1.98 0.66 3 1 C2.67 1.99 2.34 2.98 2 4 C1.01 3.67 0.02 3.34 -1 3 C-0.67 2.01 -0.34 1.02 0 0 Z " fill="#000000" transform="translate(243,444)"/>
<path d="M0 0 C0.99 0.33 1.98 0.66 3 1 C2.67 1.99 2.34 2.98 2 4 C1.01 3.67 0.02 3.34 -1 3 C-0.67 2.01 -0.34 1.02 0 0 Z " fill="#000000" transform="translate(427,190)"/>
<path d="M0 0 C0.99 0.33 1.98 0.66 3 1 C2.67 1.99 2.34 2.98 2 4 C1.01 3.01 0.02 2.02 -1 1 C-0.67 0.67 -0.34 0.34 0 0 Z " fill="#000000" transform="translate(409,350)"/>
<path d="M0 0 C0.99 0.33 1.98 0.66 3 1 C2.67 1.99 2.34 2.98 2 4 C1.01 3.01 0.02 2.02 -1 1 C-0.67 0.67 -0.34 0.34 0 0 Z " fill="#000000" transform="translate(10,148)"/>
<path d="M0 0 C0.99 0.33 1.98 0.66 3 1 C2.67 1.99 2.34 2.98 2 4 C1.01 3.01 0.02 2.02 -1 1 C-0.67 0.67 -0.34 0.34 0 0 Z " fill="#000000" transform="translate(252,105)"/>
</svg>
