<?xml version="1.0" encoding="UTF-8"?>
<svg version="1.1" xmlns="http://www.w3.org/2000/svg" width="405" height="707">
<path d="M0 0 C3.37005839 2.74773149 6.23754983 5.64441938 9 9 C9.59683594 9.71542969 10.19367188 10.43085938 10.80859375 11.16796875 C13.43457035 15.13080617 14.1592153 17.83199656 13.51171875 22.58203125 C13.01515128 24.75682755 12.4579531 26.91033546 11.89208984 29.06811523 C-8.71415015 109.10451715 0.67311521 205.8272802 -1 288 C-0.31338287 288.06416611 0.37323425 288.12833221 1.08065796 288.19444275 C1.98136017 288.28101639 2.88206238 288.36759003 3.81005859 288.45678711 C4.70292572 288.54157822 5.59579285 288.62636932 6.51571655 288.71372986 C26.81855486 291.05327626 48.39358877 306.75666049 64 319 C64.87398437 319.64582031 65.74796875 320.29164063 66.6484375 320.95703125 C73.1813378 325.89188363 78.03457142 331.52186771 83 338 C83.77988281 338.97710937 84.55976563 339.95421875 85.36328125 340.9609375 C92.45619494 349.94303235 98.75174468 359.41729252 105 369 C129.65658053 357.98482233 147.21594993 321.10241621 158 298 C158.50789063 296.93652344 159.01578125 295.87304688 159.5390625 294.77734375 C165.76011206 281.08770795 170.24642619 266.40798721 173.78515625 251.81640625 C174.07463135 250.6449707 174.36410645 249.47353516 174.66235352 248.26660156 C175.20751337 246.01859178 175.72639301 243.76399173 176.21459961 241.50292969 C177.76191002 235.12534597 179.38533358 231.59897597 185.03051758 228.05200195 C191.51724459 224.58710711 198.04210136 223.56005379 205.24609375 225.65234375 C214.52312233 229.86588694 221.32212955 238.67676609 225 248 C226.17991775 255.69666384 223.84197499 263.44256813 222.0625 270.875 C221.90727875 271.52828278 221.7520575 272.18156555 221.59213257 272.85464478 C213.11990658 308.28351459 199.58933966 343.09330264 177 372 C176.3915625 372.79921875 175.783125 373.5984375 175.15625 374.421875 C162.35774403 390.8920835 147.15533781 407.04157693 128 416 C127.34 416 126.68 416 126 416 C126.40726318 417.35641602 126.40726318 417.35641602 126.82275391 418.74023438 C138.61961243 458.10629484 138.61961243 458.10629484 142 474 C142.20882813 474.97694824 142.41765625 475.95389648 142.6328125 476.96044922 C153.08684195 528.37872538 146.39690319 595.38152489 117.859375 640.375 C115.97959475 642.99276805 114.04602689 645.5112404 112 648 C111.35546875 648.84175781 110.7109375 649.68351563 110.046875 650.55078125 C100.18975963 662.34545938 85.51423845 669.04663326 71 673 C69.84757813 673.32097656 68.69515625 673.64195312 67.5078125 673.97265625 C36.78710153 681.0747561 7.84705858 674.79193879 -18.7578125 659.0625 C-24.08683997 655.67246807 -29.09132615 651.9707543 -34 648 C-34.85207031 647.31421875 -35.70414062 646.6284375 -36.58203125 645.921875 C-57.72890871 627.93870361 -68.41897257 601.37710088 -78.0625 576.0625 C-78.64068714 574.5577163 -79.21946307 573.0531587 -79.79882812 571.54882812 C-80.66607581 569.29640436 -81.53196341 567.04351781 -82.39295959 564.78869629 C-83.86093098 560.94529168 -85.34778807 557.11100569 -86.87084961 553.2890625 C-90.20051297 544.91384468 -93.26226463 536.63905416 -95.4375 527.875 C-95.71988525 526.75125977 -96.00227051 525.62751953 -96.29321289 524.46972656 C-104.88926587 489.39088412 -110.29193394 453.78243758 -115 418 C-115.12072876 417.08371826 -115.24145752 416.16743652 -115.36584473 415.22338867 C-119.01776678 387.23366634 -120.1662625 359.19710563 -121 331 C-121.05836675 329.09553839 -121.11679624 327.19107871 -121.17529297 325.28662109 C-121.54989223 312.85918483 -121.81857497 300.43171695 -122 288 C-122.01202454 287.21471924 -122.02404907 286.42943848 -122.03643799 285.62036133 C-123.22437279 205.36407707 -118.27775478 125.61639611 -104.93359375 46.4140625 C-104.78212387 45.49155197 -104.63065399 44.56904144 -104.47459412 43.61857605 C-102.37478396 31.46137103 -98.0928824 20.16322601 -91 10 C-90.60167969 9.41863281 -90.20335938 8.83726563 -89.79296875 8.23828125 C-84.77553199 1.57633345 -77.22958825 -1.66484834 -69.5 -4.125 C-68.71955322 -4.37652832 -67.93910645 -4.62805664 -67.13500977 -4.88720703 C-45.15617157 -11.75156233 -19.81735614 -14.10141507 0 0 Z M-59 -1 C-59.74491699 -0.80132324 -60.48983398 -0.60264648 -61.25732422 -0.39794922 C-73.93747779 3.09885 -82.45143105 7.06402573 -89.75 18.5 C-97.00749063 32.18088976 -99.29741562 46.99148304 -101.5 62.125 C-101.79873942 64.12556235 -102.09798347 66.12604941 -102.39770508 68.12646484 C-103.14538604 73.14892882 -103.87392234 78.17396 -104.59576416 83.20019531 C-104.96977362 85.7906471 -105.35105557 88.37988003 -105.73583984 90.96875 C-118.20862165 175.20383327 -117.45498459 261.37365901 -111 401 C-110.83564453 402.39665894 -110.83564453 402.39665894 -110.66796875 403.8215332 C-103.9602663 460.63194515 -95.89945135 517.03313891 -73.8359375 570.125 C-71.95762479 574.64833601 -70.12945204 579.18626261 -68.3515625 583.75 C-53.7841456 621.12813092 -32.65473279 646.96000945 4 664 C4.928125 664.43441406 5.85625 664.86882813 6.8125 665.31640625 C17.48565178 669.95170133 28.76025635 670.36563001 40.25 670.3125 C41.52762207 670.30686035 42.80524414 670.3012207 44.12158203 670.29541016 C67.30822267 669.99757845 87.51677353 663.48824378 104.71875 647.375 C133.97345171 616.91805027 141.53570776 558.28040845 141 518 C140.2905101 494.95685443 136.0317499 473.23946296 130.0625 451.0625 C129.85157715 450.27821625 129.6406543 449.4939325 129.42333984 448.68588257 C127.24627269 440.64003007 124.969759 432.62433175 122.43359375 424.68359375 C121.8756311 422.92680298 121.8756311 422.92680298 121.30639648 421.13452148 C119.951571 417.88380117 118.32761245 415.62283083 116 413 C117.216875 412.835 118.43375 412.67 119.6875 412.5 C143.29530246 407.20028924 163.7285668 380.74940944 177 362 C177.40911621 361.42491699 177.81823242 360.84983398 178.23974609 360.25732422 C198.39638916 331.50257287 220.51558699 285.78349418 219 250 C216.24361651 242.66919285 210.99216823 235.33725226 203.953125 231.6953125 C199.60095059 230.14593841 195.31915629 230.16277562 190.9765625 231.73046875 C185.89355269 234.35776285 183.76167812 237.62453719 182.05200195 242.95654297 C181.78347412 244.04080566 181.51494629 245.12506836 181.23828125 246.2421875 C180.92826172 247.46212402 180.61824219 248.68206055 180.29882812 249.93896484 C180.05821655 250.90198517 180.05821655 250.90198517 179.81274414 251.88446045 C175.0225372 270.9453461 169.47204071 289.59230257 160.09472656 306.953125 C158.88515334 309.21473559 157.71838373 311.49571057 156.5546875 313.78125 C146.79193772 332.85258088 126.30011998 370.56662667 104 378 C103.61368408 377.42258057 103.22736816 376.84516113 102.8293457 376.25024414 C94.28769267 363.5165854 85.64640223 350.92796941 76 339 C75.5580127 338.44666992 75.11602539 337.89333984 74.66064453 337.32324219 C63.35752207 323.38057151 47.56077234 313.61742197 32 305 C31.11900635 304.50910889 31.11900635 304.50910889 30.22021484 304.00830078 C19.28544069 297.99975243 7.69257542 292.94228538 -5 294 C-5.66 294.33 -6.32 294.66 -7 295 C-3.85559207 152.93108059 -3.85559207 152.93108059 -1 100 C-0.94048157 98.89221191 -0.88096313 97.78442383 -0.81964111 96.64306641 C0.37726018 74.65445523 2.0437284 52.82526604 5.1328125 31.015625 C5.27976562 29.96689209 5.42671875 28.91815918 5.578125 27.83764648 C5.83909087 26.08231874 6.12570997 24.33033704 6.453125 22.58618164 C7.03299947 19.27310898 7.17054097 17.36687362 5.734375 14.27734375 C-3.10941035 3.84933701 -13.46932768 -2.13708135 -27 -4 C-37.99875691 -4.59145332 -48.31318602 -3.88769701 -59 -1 Z " fill="#000000" transform="translate(169,10)"/>
<path d="M0 0 C6.517904 4.68956663 12.55343845 10.81246164 14 19 C14.7992898 30.25557271 13.99078008 38.31915226 6.75 47.25 C2.45124584 51.88156093 -2.65002091 55.89365156 -9 57 C-11.08234592 57.06743348 -13.16668557 57.08514472 -15.25 57.0625 C-16.32765625 57.05347656 -17.4053125 57.04445312 -18.515625 57.03515625 C-19.33546875 57.02355469 -20.1553125 57.01195312 -21 57 C-21.33 59.97 -21.66 62.94 -22 66 C-22.99 66 -23.98 66 -25 66 C-24.67 62.7 -24.34 59.4 -24 56 C-24.825 55.95875 -25.65 55.9175 -26.5 55.875 C-33.88541769 54.02864558 -39.75138353 48.16777345 -44 42 C-48.15815386 34.23811279 -48.421544 24.82156113 -46.34375 16.3125 C-42.89898422 7.75997805 -36.27701855 0.97638211 -28 -3 C-19.23447434 -5.98563756 -7.6962579 -5.12579848 0 0 Z " fill="#000000" transform="translate(139,41)"/>
<path d="M0 0 C3.62959201 1.37583813 6.96312748 3.03048629 10.375 4.875 C19.55722481 9.51145673 29.72445205 12.29134152 40 13 C40.63164062 13.0515625 41.26328125 13.103125 41.9140625 13.15625 C47.13526108 13.39091061 52.1285567 12.56903416 57.25 11.625 C57.93578125 11.49899414 58.6215625 11.37298828 59.328125 11.24316406 C62.27594466 10.66597867 64.96559834 10.01464528 67.734375 8.8359375 C70.36477563 7.86541037 71.38189604 8.22199801 74 9 C77.61549881 22.85079259 81.0997792 36.6909747 83.8125 50.75 C84.10386841 52.24345947 84.10386841 52.24345947 84.40112305 53.76708984 C86.98509433 67.55961817 88.35685531 81.02829094 88.25 95.0625 C88.24723053 95.78423401 88.24446106 96.50596802 88.24160767 97.24957275 C87.89451413 175.47484448 87.89451413 175.47484448 68.53125 196.70703125 C63.72256791 201.06304419 61.17355695 202.75770854 54.59375 202.53515625 C48.31827794 201.24036759 44.4650347 195.90402469 40.875 190.9375 C19.71254767 156.72581433 10.87791773 106.79255538 6.890625 67.3828125 C6.17445559 60.40817754 5.33954604 53.45105488 4.484375 46.4921875 C4.34809189 45.37926331 4.21180878 44.26633911 4.07139587 43.11968994 C3.51509323 38.58115854 2.95809709 34.04273794 2.3923645 29.50537109 C1.99241681 26.29321797 1.59918932 23.08029962 1.20703125 19.8671875 C1.0244577 18.42483231 1.0244577 18.42483231 0.8381958 16.95333862 C0.14905962 11.25500223 -0.11333728 5.74022171 0 0 Z M7 11 C7.58561632 24.67554811 9.13996305 38.23272941 10.73657227 51.8215332 C11.18114053 55.63297798 11.60739004 59.44618664 12.03320312 63.25976562 C14.66966416 86.18190325 18.80145682 108.82721427 25.25 131 C25.4343158 131.64280914 25.61863159 132.28561829 25.80853271 132.94790649 C28.67665098 142.93844271 31.80069256 152.8397822 35.125 162.6875 C35.50817383 163.83798828 35.89134766 164.98847656 36.28613281 166.17382812 C42.33002243 183.8165961 42.33002243 183.8165961 54.9375 196.625 C58.06297807 197.26361518 58.06297807 197.26361518 61 195.75 C74.8255093 184.92061935 77.79480345 161.7031528 79.91210938 145.44555664 C84.75930417 101.3008473 81.33338025 59.87977738 70 17 C66.19002664 15.79774174 63.58149 16.5286685 59.7265625 17.4453125 C42.64873011 20.91959932 27.0376827 17.84855773 11 12 C9.66987179 11.65409852 8.33707946 11.31797393 7 11 Z " fill="#000000" transform="translate(170,433)"/>
<path d="M0 0 C1.32 0.33 2.64 0.66 4 1 C3.97494385 1.69109863 3.9498877 2.38219727 3.92407227 3.09423828 C3.80311123 6.43780986 3.68281196 9.781405 3.5625 13.125 C3.52318359 14.20910156 3.48386719 15.29320312 3.44335938 16.41015625 C3.37750235 18.24402102 3.31186235 20.07789509 3.24900818 21.91186523 C3.09609795 26.37157223 2.92718569 30.83031661 2.74829102 35.2890625 C1.93249509 56.44400862 1.79833303 77.58127375 1.8125 98.75 C1.81290031 100.09609093 1.81290031 100.09609093 1.81330872 101.46937561 C1.82443023 131.35322743 2.16248424 161.16333027 4 191 C4.06552063 192.07199646 4.13104126 193.14399292 4.19854736 194.24847412 C9.51098106 280.14605706 17.93402873 372.8949953 88 494 C97.07791932 501.70343633 108.07654371 509.05286677 120 511 C119.505 510.236875 119.01 509.47375 118.5 508.6875 C117 506 117 506 117 503 C120.93332492 503.52328048 122.40549853 505.18930761 124.8125 508.25 C125.43769531 509.01828125 126.06289062 509.7865625 126.70703125 510.578125 C128 513 128 513 128.00390625 515.55859375 C126.67468572 518.79113396 125.01683528 519.88880088 122.125 521.8125 C121.24070312 522.41707031 120.35640625 523.02164063 119.4453125 523.64453125 C117 525 117 525 114 525 C114.347111 521.76029736 114.97614982 521.02001516 117.55078125 518.859375 C118.35902344 518.24578125 119.16726562 517.6321875 120 517 C119.05640625 516.64808594 118.1128125 516.29617188 117.140625 515.93359375 C97.73985001 508.54742159 82.4439403 497.72942251 70 481 C69.24847656 480.05898438 68.49695313 479.11796875 67.72265625 478.1484375 C53.8420326 460.01588861 44.62584312 438.38086857 37 417 C36.67370605 416.11505859 36.34741211 415.23011719 36.01123047 414.31835938 C10.34148036 344.45587323 3.62730034 267.00168937 -0.6875 193.25 C-0.74843842 192.21680634 -0.80937683 191.18361267 -0.87216187 190.11911011 C-2.54537006 161.30556111 -3.20531221 132.50542843 -3.18867874 103.64865875 C-3.1874788 101.3341101 -3.18803991 99.01956589 -3.18869019 96.70501709 C-3.18741575 75.49496876 -2.88441015 54.32065182 -2.0625 33.125 C-2.01902435 32.00083679 -1.97554871 30.87667358 -1.93075562 29.71844482 C-1.8051846 26.56459389 -1.67267887 23.41116335 -1.53515625 20.2578125 C-1.49655487 19.3568988 -1.45795349 18.45598511 -1.41818237 17.527771 C-1.1426725 11.66073728 -0.63896173 5.83838297 0 0 Z " fill="#000000" transform="translate(29,182)"/>
<path d="M0 0 C1.44266249 -0.01799095 2.88538976 -0.03083756 4.328125 -0.04150391 C5.1315332 -0.04920807 5.93494141 -0.05691223 6.76269531 -0.06484985 C18.92062587 0.28755633 29.76300885 11.21755853 38 19 C38.60585937 19.55300781 39.21171875 20.10601562 39.8359375 20.67578125 C51.70542094 31.90442403 62.02494979 47.29024064 69 62 C52.40057298 67.06080092 31.27031631 60.85470719 16.25 53.3125 C14.48742567 52.22851856 12.73908473 51.12127978 11 50 C10.04472412 49.41065674 9.08944824 48.82131348 8.10522461 48.21411133 C4.13282579 45.28388421 0.717708 42.7030122 -0.57647705 37.82888794 C-1.37470724 31.68630987 -1.0031166 25.54116315 -0.6875 19.375 C-0.63224194 17.4936332 -0.58206605 15.61210989 -0.53710938 13.73046875 C-0.4166859 9.14973991 -0.22739954 4.57661451 0 0 Z M6 6 C5.82587608 10.28650992 5.69944489 14.57110523 5.61547852 18.86010742 C5.58045219 20.31620163 5.53281194 21.77205274 5.47192383 23.22729492 C4.9116696 31.62700441 4.9116696 31.62700441 7.40039062 39.43066406 C9.1624697 41.23982159 10.89000862 42.61999913 13 44 C14.34191406 45.00933594 14.34191406 45.00933594 15.7109375 46.0390625 C27.46181597 53.0344535 41.23551898 57.27757002 55 57.0625 C55.763125 57.05347656 56.52625 57.04445313 57.3125 57.03515625 C57.869375 57.02355469 58.42625 57.01195312 59 57 C53.92187844 47.25000661 47.51675634 39.07714678 40.44628906 30.71630859 C39.2787791 29.33082665 38.13210861 27.92779955 36.9921875 26.51953125 C29.45764722 17.40164555 20.02591827 10.33890302 9 6 C8.01 6 7.02 6 6 6 Z " fill="#000000" transform="translate(164,342)"/>
<path d="M0 0 C1.203125 1.5234375 1.203125 1.5234375 2.25 3.375 C2.60578125 3.98085938 2.9615625 4.58671875 3.328125 5.2109375 C4 7 4 7 3 10 C1.68 8.68 0.36 7.36 -1 6 C-1.25056152 6.81339844 -1.50112305 7.62679688 -1.75927734 8.46484375 C-14.18620639 48.54662125 -28.36216554 84.39141136 -62.30078125 111.12890625 C-62.86152344 111.41636719 -63.42226563 111.70382812 -64 112 C-64.99 111.67 -65.98 111.34 -67 111 C-67 110.34 -67 109.68 -67 109 C-65.59321977 107.75185669 -64.12120296 106.5769161 -62.625 105.4375 C-31.75309484 81.27119907 -14.55608799 45.93398452 -6 8 C-6 7.01 -6 6.02 -6 5 C-7.98 5.99 -7.98 5.99 -10 7 C-10 5.68 -10 4.36 -10 3 C-3.375 -1.125 -3.375 -1.125 0 0 Z " fill="#000000" transform="translate(398,302)"/>
<path d="M0 0 C0 0.99 0 1.98 0 3 C-1.98 3.99 -1.98 3.99 -4 5 C-3.05640625 5.4846875 -2.1128125 5.969375 -1.140625 6.46875 C17.878213 16.34827743 34.77851698 29.006713 50.79296875 43.1875 C53.4604301 45.54872951 56.19499986 47.80248576 59 50 C58.67 50.99 58.34 51.98 58 53 C54.43821015 51.47584736 52.09678156 49.35813741 49.3125 46.6875 C42.60071212 40.485808 35.41210705 35.00339088 28.08398438 29.55322266 C26.16649527 28.12409125 24.26239619 26.6787625 22.359375 25.23046875 C14.07574418 19.02330237 5.3763486 14.35939324 -4 10 C-3.67 11.65 -3.34 13.3 -3 15 C-3.99 15 -4.98 15 -6 15 C-9.95623216 8.7659372 -9.95623216 8.7659372 -10.125 5.8125 C-7.7913613 2.05274876 -4.36886461 0 0 0 Z " fill="#000000" transform="translate(222,284)"/>
<path d="M0 0 C0.59425781 0.19335938 1.18851563 0.38671875 1.80078125 0.5859375 C14.70685571 4.65520072 14.70685571 4.65520072 28 4 C27.34 3.67 26.68 3.34 26 3 C26 2.01 26 1.02 26 0 C29.63 0.66 33.26 1.32 37 2 C37.17835515 6.54805635 36.99785435 9.8794254 35 14 C34.34 14 33.68 14 33 14 C33.33 11.69 33.66 9.38 34 7 C33.01 7.33 32.02 7.66 31 8 C20.89398332 8.67080198 11.27107401 8.66675274 2 4 C0.1796875 2.36328125 0.1796875 2.36328125 -1 1 C-0.67 0.67 -0.34 0.34 0 0 Z " fill="#000000" transform="translate(191,463)"/>
<path d="M0 0 C1.4540625 0.0309375 1.4540625 0.0309375 2.9375 0.0625 C5.0625 4.6875 5.0625 4.6875 3.9375 8.0625 C4.26300502 9.73071323 4.59596063 11.39749557 4.9375 13.0625 C4.6075 13.7225 4.2775 14.3825 3.9375 15.0625 C1.125 15.9375 1.125 15.9375 -2.0625 16.0625 C-4.4375 14.125 -4.4375 14.125 -6.0625 12.0625 C-2.43923261 10.8547442 -1.42103631 11.51938872 1.9375 13.0625 C1.9375 11.7425 1.9375 10.4225 1.9375 9.0625 C0.6175 9.0625 -0.7025 9.0625 -2.0625 9.0625 C-2.0625 8.0725 -2.0625 7.0825 -2.0625 6.0625 C-0.7425 6.0625 0.5775 6.0625 1.9375 6.0625 C1.6075 5.0725 1.2775 4.0825 0.9375 3.0625 C-1.0425 3.7225 -3.0225 4.3825 -5.0625 5.0625 C-3.9375 0.08035714 -3.9375 0.08035714 0 0 Z " fill="#000000" transform="translate(220.0625,478.9375)"/>
<path d="M0 0 C3.0625 0.1875 3.0625 0.1875 5.0625 2.1875 C4.90004442 5.92397845 4.47466356 7.71288742 2 10.5625 C1.360625 11.09875 0.72125 11.635 0.0625 12.1875 C1.7125 12.5175 3.3625 12.8475 5.0625 13.1875 C5.0625 13.8475 5.0625 14.5075 5.0625 15.1875 C1.7625 15.1875 -1.5375 15.1875 -4.9375 15.1875 C-2.9375 11.1875 -2.9375 11.1875 -0.8125 8.625 C1.36735538 6.30372611 1.36735538 6.30372611 1.0625 3.1875 C0.4025 3.1875 -0.2575 3.1875 -0.9375 3.1875 C-1.2675 3.8475 -1.5975 4.5075 -1.9375 5.1875 C-2.9275 5.1875 -3.9175 5.1875 -4.9375 5.1875 C-3.82120474 0.24390669 -3.82120474 0.24390669 0 0 Z " fill="#000000" transform="translate(259.9375,274.8125)"/>
<path d="M0 0 C0.99 0 1.98 0 3 0 C3 3.3 3 6.6 3 10 C3.66 10 4.32 10 5 10 C5 10.66 5 11.32 5 12 C4.34 12 3.68 12 3 12 C3 12.99 3 13.98 3 15 C2.34 15 1.68 15 1 15 C1 14.01 1 13.02 1 12 C-1.31 12 -3.62 12 -6 12 C-5.56629155 7.2292071 -3.35665609 3.36635741 0 0 Z M0 4 C-0.99 5.98 -1.98 7.96 -3 10 C-1.68 10 -0.36 10 1 10 C1 8.02 1 6.04 1 4 C0.67 4 0.34 4 0 4 Z " fill="#000000" transform="translate(399,371)"/>
<path d="M0 0 C0 4.95 0 9.9 0 15 C-0.99 15 -1.98 15 -3 15 C-3 11.37 -3 7.74 -3 4 C-3.99 4.33 -4.98 4.66 -6 5 C-5.625 3.0625 -5.625 3.0625 -5 1 C-3 0 -3 0 0 0 Z " fill="#000000" transform="translate(207,479)"/>
<path d="M0 0 C0 4.95 0 9.9 0 15 C-0.99 15 -1.98 15 -3 15 C-3 11.37 -3 7.74 -3 4 C-3.99 4.33 -4.98 4.66 -6 5 C-5.625 3.0625 -5.625 3.0625 -5 1 C-3 0 -3 0 0 0 Z " fill="#000000" transform="translate(7,432)"/>
<path d="M0 0 C0 4.95 0 9.9 0 15 C-0.99 15 -1.98 15 -3 15 C-3 11.37 -3 7.74 -3 4 C-3.99 4.33 -4.98 4.66 -6 5 C-5.625 3.0625 -5.625 3.0625 -5 1 C-3 0 -3 0 0 0 Z " fill="#000000" transform="translate(385,371)"/>
<path d="M0 0 C0 4.95 0 9.9 0 15 C-0.99 15 -1.98 15 -3 15 C-3 11.37 -3 7.74 -3 4 C-3.99 4.33 -4.98 4.66 -6 5 C-5.625 3.0625 -5.625 3.0625 -5 1 C-3 0 -3 0 0 0 Z " fill="#000000" transform="translate(247,275)"/>
<path d="M0 0 C0.99 0 1.98 0 3 0 C3 1.32 3 2.64 3 4 C4.65 4.33 6.3 4.66 8 5 C7.67 5.99 7.34 6.98 7 8 C5.68 7.67 4.36 7.34 3 7 C2.67 8.32 2.34 9.64 2 11 C1.34 10.67 0.68 10.34 0 10 C0 6.7 0 3.4 0 0 Z " fill="#000000" transform="translate(100,297)"/>
<path d="M0 0 C0 4.95 0 9.9 0 15 C-0.66 15 -1.32 15 -2 15 C-2.33 11.37 -2.66 7.74 -3 4 C-3.99 4.33 -4.98 4.66 -6 5 C-6 4.01 -6 3.02 -6 2 C-3 0 -3 0 0 0 Z " fill="#000000" transform="translate(19,432)"/>
<path d="M0 0 C0.103125 0.763125 0.20625 1.52625 0.3125 2.3125 C1.04364039 5.17059424 1.76951913 6.15742885 4 8 C2.6875 9.5 2.6875 9.5 1 11 C0.01 11 -0.98 11 -2 11 C-2.33 7.7 -2.66 4.4 -3 1 C-1 0 -1 0 0 0 Z " fill="#000000" transform="translate(103,388)"/>
<path d="M0 0 C0.99 0 1.98 0 3 0 C3.67154933 1.28913487 4.33708859 2.58140204 5 3.875 C5.37125 4.59429688 5.7425 5.31359375 6.125 6.0546875 C7 8 7 8 7 10 C6.01 10.33 5.02 10.66 4 11 C3.32591692 9.73308493 2.66099503 8.46129251 2 7.1875 C1.62875 6.47980469 1.2575 5.77210938 0.875 5.04296875 C0 3 0 3 0 0 Z " fill="#000000" transform="translate(142,601)"/>
<path d="M0 0 C0.99 0.33 1.98 0.66 3 1 C3 4.63 3 8.26 3 12 C2.01 12 1.02 12 0 12 C0 8.04 0 4.08 0 0 Z " fill="#000000" transform="translate(283,521)"/>
<path d="M0 0 C0.99 0.33 1.98 0.66 3 1 C-0.34969325 6.90184049 -0.34969325 6.90184049 -3 9 C-3.99 9 -4.98 9 -6 9 C-4.68775452 5.06326356 -3.08089673 2.77280706 0 0 Z " fill="#000000" transform="translate(319,369)"/>
<path d="M0 0 C0.66 0.33 1.32 0.66 2 1 C1 4 1 4 -1.06640625 5.16796875 C-1.89011719 5.50441406 -2.71382812 5.84085938 -3.5625 6.1875 C-4.38878906 6.53167969 -5.21507812 6.87585938 -6.06640625 7.23046875 C-6.70449219 7.48441406 -7.34257812 7.73835937 -8 8 C-8.33 7.01 -8.66 6.02 -9 5 C-7.54735962 4.1361871 -6.0876837 3.28419546 -4.625 2.4375 C-3.40683594 1.72400391 -3.40683594 1.72400391 -2.1640625 0.99609375 C-1.44992188 0.66738281 -0.73578125 0.33867188 0 0 Z " fill="#000000" transform="translate(242,652)"/>
<path d="M0 0 C3.59391114 1.33488128 6.75490696 2.96022723 10 5 C9.67 5.99 9.34 6.98 9 8 C7.67968405 7.43457996 6.3688699 6.84693528 5.0625 6.25 C3.96615234 5.76273438 3.96615234 5.76273438 2.84765625 5.265625 C1 4 1 4 0.24609375 1.859375 C0.16488281 1.24578125 0.08367187 0.6321875 0 0 Z " fill="#000000" transform="translate(175,650)"/>
<path d="M0 0 C3 2 6 4 9 6 C8.67 6.99 8.34 7.98 8 9 C4.56404834 7.47291037 1.88087546 5.40072955 -1 3 C-0.67 2.01 -0.34 1.02 0 0 Z " fill="#000000" transform="translate(208,343)"/>
<path d="M0 0 C1.45880109 0.14107747 2.91703551 0.28802415 4.375 0.4375 C5.59316406 0.55931641 5.59316406 0.55931641 6.8359375 0.68359375 C9 1 9 1 11 2 C11 2.99 11 3.98 11 5 C7.37 4.34 3.74 3.68 0 3 C0 2.01 0 1.02 0 0 Z " fill="#000000" transform="translate(116,304)"/>
<path d="M0 0 C0.99 0 1.98 0 3 0 C2.43768609 3.93619738 1.38314183 6.79192446 -1 10 C-1.99 10 -2.98 10 -4 10 C-2.8905928 6.51329166 -1.73662334 3.22515763 0 0 Z " fill="#000000" transform="translate(267,622)"/>
<path d="M0 0 C0.99 0.33 1.98 0.66 3 1 C2.67 4.63 2.34 8.26 2 12 C1.01 12 0.02 12 -1 12 C-1.08159574 7.83861737 -0.98248524 4.0527516 0 0 Z " fill="#000000" transform="translate(282,562)"/>
<path d="M0 0 C0.99 0 1.98 0 3 0 C4.19287411 3.87684087 5 6.91621923 5 11 C4.01 11 3.02 11 2 11 C1.34 7.37 0.68 3.74 0 0 Z " fill="#000000" transform="translate(114,506)"/>
<path d="M0 0 C0.99 0 1.98 0 3 0 C3 3.63 3 7.26 3 11 C2.01 11 1.02 11 0 11 C0 7.37 0 3.74 0 0 Z " fill="#000000" transform="translate(282,501)"/>
<path d="M0 0 C0.99 0 1.98 0 3 0 C3.33 3.63 3.66 7.26 4 11 C3.01 11 2.02 11 1 11 C0.67 7.37 0.34 3.74 0 0 Z " fill="#000000" transform="translate(108,467)"/>
<path d="M0 0 C0.99 0 1.98 0 3 0 C4.17571451 3.67410785 4.07366746 7.16929183 4 11 C3.01 11 2.02 11 1 11 C0.67 7.37 0.34 3.74 0 0 Z " fill="#000000" transform="translate(105,447)"/>
<path d="M0 0 C0.99 0 1.98 0 3 0 C4.19287411 3.87684087 5 6.91621923 5 11 C4.01 11 3.02 11 2 11 C1.34 7.37 0.68 3.74 0 0 Z " fill="#000000" transform="translate(272,442)"/>
<path d="M0 0 C3.63 0 7.26 0 11 0 C11 0.99 11 1.98 11 3 C7.37 3 3.74 3 0 3 C0 2.01 0 1.02 0 0 Z " fill="#000000" transform="translate(188,422)"/>
<path d="M0 0 C0 0.99 0 1.98 0 3 C-4.12168689 4.62950412 -6.70700357 5.26264601 -11 4 C-10 2 -10 2 -7.1875 0.875 C-4 0 -4 0 0 0 Z " fill="#000000" transform="translate(257,413)"/>
<path d="M0 0 C0.66 0.33 1.32 0.66 2 1 C1 4 1 4 -0.84765625 5.16796875 C-1.57855469 5.50441406 -2.30945313 5.84085937 -3.0625 6.1875 C-3.79597656 6.53167969 -4.52945312 6.87585938 -5.28515625 7.23046875 C-6.13400391 7.61138672 -6.13400391 7.61138672 -7 8 C-7 6.68 -7 5.36 -7 4 C-1.7265625 0.77734375 -1.7265625 0.77734375 0 0 Z " fill="#000000" transform="translate(290,395)"/>
<path d="M0 0 C4.04131267 1.34710422 4.90288434 3.38428334 7 7 C7 7.99 7 8.98 7 10 C6.01 10 5.02 10 4 10 C1.09677182 6.35022743 0 4.74147821 0 0 Z " fill="#000000" transform="translate(248,387)"/>
<path d="M0 0 C0.99 0.33 1.98 0.66 3 1 C3 1.66 3 2.32 3 3 C0.25 5.6875 0.25 5.6875 -3 8 C-5.375 7.8125 -5.375 7.8125 -7 7 C-4.66666667 4.66666667 -2.33333333 2.33333333 0 0 Z " fill="#000000" transform="translate(305,383)"/>
<path d="M0 0 C3.99500618 1.3697164 6.80009492 3.25722422 10 6 C9.67 6.66 9.34 7.32 9 8 C5.00499382 6.6302836 2.19990508 4.74277578 -1 2 C-0.67 1.34 -0.34 0.68 0 0 Z " fill="#000000" transform="translate(191,332)"/>
<path d="M0 0 C0.99 0 1.98 0 3 0 C3 3.63 3 7.26 3 11 C2.01 11 1.02 11 0 11 C0 7.37 0 3.74 0 0 Z " fill="#000000" transform="translate(99,277)"/>
<path d="M0 0 C0.99 0 1.98 0 3 0 C3 3.63 3 7.26 3 11 C2.01 11 1.02 11 0 11 C0 7.37 0 3.74 0 0 Z " fill="#000000" transform="translate(99,237)"/>
<path d="M0 0 C0.99 0 1.98 0 3 0 C3.14285714 7.42857143 3.14285714 7.42857143 2 11 C1.01 11 0.02 11 -1 11 C-0.67 7.37 -0.34 3.74 0 0 Z " fill="#000000" transform="translate(104,176)"/>
<path d="M0 0 C0 0.99 0 1.98 0 3 C-3.63 3.33 -7.26 3.66 -11 4 C-11 3.01 -11 2.02 -11 1 C-7.27569643 0.30710631 -3.78916254 -0.11144596 0 0 Z " fill="#000000" transform="translate(225,660)"/>
<path d="M0 0 C3.3 0.66 6.6 1.32 10 2 C10 2.99 10 3.98 10 5 C8.54119891 4.85892253 7.08296449 4.71197585 5.625 4.5625 C4.40683594 4.44068359 4.40683594 4.44068359 3.1640625 4.31640625 C1 4 1 4 -1 3 C-0.67 2.01 -0.34 1.02 0 0 Z " fill="#000000" transform="translate(194,658)"/>
<path d="M0 0 C3.13506611 0.33589994 4.025249 1.02665172 6.25 3.375 C8 6 8 6 8 9 C4.20620942 7.50958227 2.31656242 5.30937488 0 2 C0 1.34 0 0.68 0 0 Z " fill="#000000" transform="translate(161,636)"/>
<path d="M0 0 C0.99 0 1.98 0 3 0 C4.32 2.97 5.64 5.94 7 9 C6.01 9.33 5.02 9.66 4 10 C0 3.375 0 3.375 0 0 Z " fill="#000000" transform="translate(151,619)"/>
<path d="M0 0 C0.99 0 1.98 0 3 0 C2.85892253 1.45880109 2.71197585 2.91703551 2.5625 4.375 C2.48128906 5.18710937 2.40007812 5.99921875 2.31640625 6.8359375 C2 9 2 9 1 11 C0.01 10.67 -0.98 10.34 -2 10 C-1.34 6.7 -0.68 3.4 0 0 Z " fill="#000000" transform="translate(279,583)"/>
<path d="M0 0 C0.99 0 1.98 0 3 0 C3.99 3.3 4.98 6.6 6 10 C5.01 10 4.02 10 3 10 C0 3.375 0 3.375 0 0 Z " fill="#000000" transform="translate(135,583)"/>
<path d="M0 0 C0.99 0 1.98 0 3 0 C3 3.3 3 6.6 3 10 C2.01 10.33 1.02 10.66 0 11 C0 7.37 0 3.74 0 0 Z " fill="#000000" transform="translate(283,542)"/>
<path d="M0 0 C0.99 0 1.98 0 3 0 C3.33 3.63 3.66 7.26 4 11 C3.01 11 2.02 11 1 11 C-0.17571451 7.32589215 -0.07366746 3.83070817 0 0 Z " fill="#000000" transform="translate(280,481)"/>
<path d="M0 0 C0.99 0 1.98 0 3 0 C3.99 3.3 4.98 6.6 6 10 C5.01 10.33 4.02 10.66 3 11 C0 4.5 0 4.5 0 0 Z " fill="#000000" transform="translate(266,423)"/>
<path d="M0 0 C0 0.99 0 1.98 0 3 C-3.63 3.33 -7.26 3.66 -11 4 C-11 3.01 -11 2.02 -11 1 C-7.26513121 0.4254048 -3.78706732 0 0 0 Z " fill="#000000" transform="translate(219,421)"/>
<path d="M0 0 C0 0.99 0 1.98 0 3 C-3.3 3.66 -6.6 4.32 -10 5 C-10.33 4.01 -10.66 3.02 -11 2 C-3.375 0 -3.375 0 0 0 Z " fill="#000000" transform="translate(238,418)"/>
<path d="M0 0 C3.3 0.66 6.6 1.32 10 2 C10 2.99 10 3.98 10 5 C6.37 4.34 2.74 3.68 -1 3 C-0.67 2.01 -0.34 1.02 0 0 Z " fill="#000000" transform="translate(150,416)"/>
<path d="M0 0 C0 0.99 0 1.98 0 3 C-1.28913487 3.67154933 -2.58140204 4.33708859 -3.875 5 C-4.59429687 5.37125 -5.31359375 5.7425 -6.0546875 6.125 C-8 7 -8 7 -10 7 C-9.9375 5.1875 -9.9375 5.1875 -9 3 C-3.10714286 0 -3.10714286 0 0 0 Z " fill="#000000" transform="translate(275,405)"/>
<path d="M0 0 C0.99 0 1.98 0 3 0 C6 6.625 6 6.625 6 10 C5.01 10 4.02 10 3 10 C0 3.375 0 3.375 0 0 Z " fill="#000000" transform="translate(258,405)"/>
<path d="M0 0 C3.0831351 1.19899698 6.06279492 2.47700477 9 4 C9 4.99 9 5.98 9 7 C5.04179141 6.43454163 2.3340947 5.19097652 -1 3 C-0.67 2.01 -0.34 1.02 0 0 Z " fill="#000000" transform="translate(114,401)"/>
<path d="M0 0 C3.73884332 2.65654657 5.64978174 4.58110387 7 9 C6.01 9 5.02 9 4 9 C1.25 6.1875 1.25 6.1875 -1 3 C-0.67 2.01 -0.34 1.02 0 0 Z " fill="#000000" transform="translate(237,371)"/>
<path d="M0 0 C0.99 0.33 1.98 0.66 3 1 C1.80100302 4.0831351 0.52299523 7.06279492 -1 10 C-1.99 10 -2.98 10 -4 10 C-3.43454163 6.04179141 -2.19097652 3.3340947 0 0 Z " fill="#000000" transform="translate(341,337)"/>
<path d="M0 0 C3.93619738 0.56231391 6.79192446 1.61685817 10 4 C10 4.99 10 5.98 10 7 C6.66666667 5.66666667 3.33333333 4.33333333 0 3 C0 2.01 0 1.02 0 0 Z " fill="#000000" transform="translate(173,323)"/>
<path d="M0 0 C0.66 0.33 1.32 0.66 2 1 C1.49287967 4.71888239 0.88391785 7.73454239 -1 11 C-1.99 10.67 -2.98 10.34 -4 10 C-3.52449439 8.51965236 -3.04448784 7.04074979 -2.5625 5.5625 C-2.29566406 4.73878906 -2.02882813 3.91507812 -1.75390625 3.06640625 C-1 1 -1 1 0 0 Z " fill="#000000" transform="translate(350,319)"/>
<path d="M0 0 C3.3 0.99 6.6 1.98 10 3 C10 3.99 10 4.98 10 6 C6.1936543 5.32829194 2.64793184 4.27253436 -1 3 C-0.67 2.01 -0.34 1.02 0 0 Z " fill="#000000" transform="translate(155,315)"/>
<path d="M0 0 C0.99 0.33 1.98 0.66 3 1 C2.34 4.3 1.68 7.6 1 11 C0.01 11 -0.98 11 -2 11 C-1 3.57142857 -1 3.57142857 0 0 Z " fill="#000000" transform="translate(362,282)"/>
<path d="M0 0 C0.99 0 1.98 0 3 0 C3 3.3 3 6.6 3 10 C2.01 10.33 1.02 10.66 0 11 C0 7.37 0 3.74 0 0 Z " fill="#000000" transform="translate(99,257)"/>
<path d="M0 0 C0.99 0.33 1.98 0.66 3 1 C2.67 3.97 2.34 6.94 2 10 C0.68 10.33 -0.64 10.66 -2 11 C-1.85892253 9.54119891 -1.71197585 8.08296449 -1.5625 6.625 C-1.48128906 5.81289062 -1.40007812 5.00078125 -1.31640625 4.1640625 C-1 2 -1 2 0 0 Z " fill="#000000" transform="translate(107,156)"/>
<path d="M0 0 C0.99 0.33 1.98 0.66 3 1 C2.67 4.3 2.34 7.6 2 11 C1.01 11 0.02 11 -1 11 C-0.67 7.37 -0.34 3.74 0 0 Z " fill="#000000" transform="translate(112,116)"/>
<path d="M0 0 C0.66 0 1.32 0 2 0 C1.52797514 4.24822374 -0.96655518 6.19989709 -4 9 C-4.99 8.67 -5.98 8.34 -7 8 C-6.02133662 6.85373678 -5.04205413 5.70800212 -4.0625 4.5625 C-3.51722656 3.92441406 -2.97195312 3.28632812 -2.41015625 2.62890625 C-1.63204305 1.73008851 -0.84063472 0.84063472 0 0 Z " fill="#000000" transform="translate(257,639)"/>
<path d="M0 0 C0.99 0.33 1.98 0.66 3 1 C1.68 4.3 0.36 7.6 -1 11 C-1.66 10.67 -2.32 10.34 -3 10 C-2.69201674 8.51988629 -2.378482 7.04092675 -2.0625 5.5625 C-1.88847656 4.73878906 -1.71445312 3.91507813 -1.53515625 3.06640625 C-1 1 -1 1 0 0 Z " fill="#000000" transform="translate(275,603)"/>
<path d="M0 0 C0.99 0 1.98 0 3 0 C3.66 3.3 4.32 6.6 5 10 C4.01 10 3.02 10 2 10 C0.68373308 6.38026598 0 3.90432869 0 0 Z " fill="#000000" transform="translate(129,564)"/>
<path d="M0 0 C0.99 0 1.98 0 3 0 C4.62950412 4.12168689 5.26264601 6.70700357 4 11 C3.34 10.67 2.68 10.34 2 10 C1.3671875 7.71484375 1.3671875 7.71484375 0.875 4.9375 C0.70742187 4.01839844 0.53984375 3.09929688 0.3671875 2.15234375 C0.24601562 1.44207031 0.12484375 0.73179687 0 0 Z " fill="#000000" transform="translate(123,545)"/>
<path d="M0 0 C0.66 0.33 1.32 0.66 2 1 C2.4140625 3.28515625 2.4140625 3.28515625 2.625 6.0625 C2.69976562 6.98160156 2.77453125 7.90070313 2.8515625 8.84765625 C2.92503906 9.91306641 2.92503906 9.91306641 3 11 C2.01 11 1.02 11 0 11 C-0.19406478 9.35492782 -0.38007935 7.70890406 -0.5625 6.0625 C-0.66691406 5.14597656 -0.77132813 4.22945313 -0.87890625 3.28515625 C-0.91886719 2.53105469 -0.95882813 1.77695312 -1 1 C-0.67 0.67 -0.34 0.34 0 0 Z " fill="#000000" transform="translate(278,461)"/>
<path d="M0 0 C0.99 0 1.98 0 3 0 C3.33 3.3 3.66 6.6 4 10 C3.01 10.33 2.02 10.66 1 11 C0.67 7.37 0.34 3.74 0 0 Z " fill="#000000" transform="translate(103,428)"/>
<path d="M0 0 C4.455 0.99 4.455 0.99 9 2 C9.33 3.32 9.66 4.64 10 6 C6.7 5.01 3.4 4.02 0 3 C0 2.01 0 1.02 0 0 Z " fill="#000000" transform="translate(131,410)"/>
<path d="M0 0 C0.66 0 1.32 0 2 0 C3.20272819 2.40545638 3.10071472 3.94996953 3.0625 6.625 C3.05347656 7.44226563 3.04445313 8.25953125 3.03515625 9.1015625 C3.02355469 9.72804688 3.01195313 10.35453125 3 11 C2.01 11 1.02 11 0 11 C0 7.37 0 3.74 0 0 Z " fill="#000000" transform="translate(102,408)"/>
<path d="M0 0 C1.15224028 0.92961422 2.29659176 1.8690125 3.4375 2.8125 C4.07558594 3.33457031 4.71367187 3.85664063 5.37109375 4.39453125 C7 6 7 6 8 9 C3.75177626 8.52797514 1.80010291 6.03344482 -1 3 C-0.67 2.01 -0.34 1.02 0 0 Z " fill="#000000" transform="translate(223,356)"/>
<path d="M0 0 C0.99 0.33 1.98 0.66 3 1 C2.24266726 2.3410477 1.46867264 3.67269781 0.6875 5 C0.25824219 5.7425 -0.17101562 6.485 -0.61328125 7.25 C-1.07089844 7.8275 -1.52851563 8.405 -2 9 C-2.99 9 -3.98 9 -5 9 C-4.42647107 5.12867972 -2.51295648 2.91827204 0 0 Z " fill="#000000" transform="translate(331,354)"/>
<path d="M0 0 C3.46941546 0.45822468 6.67395049 0.89131683 10 2 C10 2.99 10 3.98 10 5 C6.7 4.34 3.4 3.68 0 3 C0 2.01 0 1.02 0 0 Z " fill="#000000" transform="translate(136,309)"/>
<path d="M0 0 C0.66 0.33 1.32 0.66 2 1 C2 4.3 2 7.6 2 11 C1.01 11 0.02 11 -1 11 C-1.02688151 9.35425434 -1.04634123 7.70838587 -1.0625 6.0625 C-1.07410156 5.14597656 -1.08570312 4.22945312 -1.09765625 3.28515625 C-1 1 -1 1 0 0 Z " fill="#000000" transform="translate(101,216)"/>
<path d="M0 0 C0.99 0.33 1.98 0.66 3 1 C2.67 4.3 2.34 7.6 2 11 C1.01 11 0.02 11 -1 11 C-0.67 7.37 -0.34 3.74 0 0 Z " fill="#000000" transform="translate(102,196)"/>
<path d="M0 0 C0.66 0.33 1.32 0.66 2 1 C1.67 4.3 1.34 7.6 1 11 C0.01 11 -0.98 11 -2 11 C-1.85957123 9.35369672 -1.71250671 7.70795821 -1.5625 6.0625 C-1.48128906 5.14597656 -1.40007812 4.22945312 -1.31640625 3.28515625 C-1 1 -1 1 0 0 Z " fill="#000000" transform="translate(110,136)"/>
<path d="M0 0 C0.99 0 1.98 0 3 0 C3.33 3.3 3.66 6.6 4 10 C3.01 10 2.02 10 1 10 C0.67 6.7 0.34 3.4 0 0 Z " fill="#000000" transform="translate(111,487)"/>
<path d="M0 0 C3.3 0.33 6.6 0.66 10 1 C10 1.99 10 2.98 10 4 C6.7 3.67 3.4 3.34 0 3 C0 2.01 0 1.02 0 0 Z " fill="#000000" transform="translate(169,420)"/>
<path d="M0 0 C0.99 0 1.98 0 3 0 C3 3.3 3 6.6 3 10 C2.01 10 1.02 10 0 10 C0 6.7 0 3.4 0 0 Z " fill="#000000" transform="translate(100,370)"/>
<path d="M0 0 C0.99 0 1.98 0 3 0 C3 3.3 3 6.6 3 10 C2.01 10 1.02 10 0 10 C0 6.7 0 3.4 0 0 Z " fill="#000000" transform="translate(99,352)"/>
<path d="M0 0 C0.99 0 1.98 0 3 0 C3 3.3 3 6.6 3 10 C2.01 10 1.02 10 0 10 C0 6.7 0 3.4 0 0 Z " fill="#000000" transform="translate(99,334)"/>
<path d="M0 0 C0.66 0 1.32 0 2 0 C1.53199289 4.05606165 1.12046792 7.46588679 -1 11 C-1.66 10.67 -2.32 10.34 -3 10 C-2.69201674 8.51988629 -2.378482 7.04092675 -2.0625 5.5625 C-1.88847656 4.73878906 -1.71445312 3.91507812 -1.53515625 3.06640625 C-1 1 -1 1 0 0 Z " fill="#000000" transform="translate(357,301)"/>
<path d="M0 0 C2.39763185 2.39763185 2.34280586 3.33273498 2.625 6.625 C2.69976562 7.44226563 2.77453125 8.25953125 2.8515625 9.1015625 C2.90054688 9.72804688 2.94953125 10.35453125 3 11 C2.01 10.67 1.02 10.34 0 10 C-0.19412181 8.52168779 -0.38012131 7.04230684 -0.5625 5.5625 C-0.66691406 4.73878906 -0.77132812 3.91507813 -0.87890625 3.06640625 C-0.91886719 2.38449219 -0.95882812 1.70257812 -1 1 C-0.67 0.67 -0.34 0.34 0 0 Z " fill="#000000" transform="translate(120,525)"/>
<path d="M0 0 C0.99 0 1.98 0 3 0 C3 2.97 3 5.94 3 9 C2.01 9.33 1.02 9.66 0 10 C0 6.7 0 3.4 0 0 Z " fill="#000000" transform="translate(100,316)"/>
<path d="M0 0 C0.66 0 1.32 0 2 0 C2 1.65 2 3.3 2 5 C1.01 5.33 0.02 5.66 -1 6 C-1.042721 4.33388095 -1.04063832 2.66617115 -1 1 C-0.67 0.67 -0.34 0.34 0 0 Z " fill="#000000" transform="translate(366,268)"/>
<path d="M0 0 C0.99 0.33 1.98 0.66 3 1 C2.67 1.99 2.34 2.98 2 4 C1.01 3.01 0.02 2.02 -1 1 C-0.67 0.67 -0.34 0.34 0 0 Z " fill="#000000" transform="translate(210,491)"/>
<path d="M0 0 C0.99 0.33 1.98 0.66 3 1 C2.67 1.99 2.34 2.98 2 4 C1.01 3.01 0.02 2.02 -1 1 C-0.67 0.67 -0.34 0.34 0 0 Z " fill="#000000" transform="translate(10,444)"/>
<path d="M0 0 C0.99 0.33 1.98 0.66 3 1 C2.67 1.99 2.34 2.98 2 4 C1.01 3.01 0.02 2.02 -1 1 C-0.67 0.67 -0.34 0.34 0 0 Z " fill="#000000" transform="translate(388,383)"/>
<path d="M0 0 C0.99 0.33 1.98 0.66 3 1 C2.67 1.99 2.34 2.98 2 4 C1.01 3.01 0.02 2.02 -1 1 C-0.67 0.67 -0.34 0.34 0 0 Z " fill="#000000" transform="translate(250,287)"/>
</svg>
