<?xml version="1.0" encoding="UTF-8"?>
<svg version="1.1" xmlns="http://www.w3.org/2000/svg" width="718" height="778">
<path d="M0 0 C2.50204701 2.1993212 4.91593173 4.40866025 7.2421875 6.79296875 C7.94140068 7.46253349 8.64061386 8.13209824 9.36101532 8.82195282 C12.06708955 13.09577194 11.69782773 16.62231121 11.53234863 21.57531738 C11.51531403 22.57904908 11.49827943 23.58278077 11.48072863 24.61692858 C11.44053205 26.83075139 11.39088624 29.04441721 11.33316994 31.25785255 C11.24022536 34.86920757 11.17433973 38.48021906 11.11473083 42.0922699 C10.98373948 49.71966602 10.8196458 57.34607582 10.65038657 64.97269297 C10.5626655 68.95076022 10.47787749 72.92889023 10.39271545 76.90701294 C10.24531709 83.77489122 10.09617035 90.64272965 9.94581604 97.51054382 C9.72811297 107.45612091 9.51350355 117.401763 9.29966515 127.34742385 C8.95206525 143.51192848 8.60250897 159.67639013 8.25146484 175.84082031 C8.23053054 176.80480077 8.20959624 177.76878122 8.18802756 178.7619732 C8.10319967 182.66800712 8.01836905 186.57404097 7.93353429 190.48007473 C7.6996582 201.24940455 7.46619585 212.01874332 7.23291016 222.78808594 C7.21200119 223.7532968 7.19109222 224.71850766 7.16954964 225.71296734 C6.82038686 241.83337071 6.47251595 257.95380178 6.12541819 274.07424974 C5.91182029 283.99108219 5.69698665 293.90788643 5.48051941 303.82465667 C5.33230698 310.61739652 5.18521977 317.41016013 5.03899896 324.20294315 C4.95477106 328.11374462 4.87001625 332.02453277 4.78381538 335.93529129 C4.70469882 339.52494976 4.62711082 343.1146381 4.5506621 346.70435435 C4.50999376 348.59599179 4.46773884 350.48759492 4.4253993 352.37919569 C4.24701955 360.85228046 4.21376358 369.31841356 4.2421875 377.79296875 C51.18543691 337.01927346 73.74395601 274.41123975 95.2421875 217.79296875 C94.283125 217.32890625 94.283125 217.32890625 93.3046875 216.85546875 C91.2421875 215.79296875 91.2421875 215.79296875 90.2421875 214.79296875 C90.03239258 215.68097168 90.03239258 215.68097168 89.81835938 216.58691406 C79.77113902 258.50417582 58.23674147 298.94737294 30.2421875 331.79296875 C29.5821875 331.46296875 28.9221875 331.13296875 28.2421875 330.79296875 C29.74155706 326.29486008 32.26236773 322.88202548 35.1171875 319.16796875 C41.70547222 310.37628828 47.53035892 301.17110945 53.2421875 291.79296875 C53.93030518 290.67245117 53.93030518 290.67245117 54.63232422 289.52929688 C68.36158246 267.04436115 82.98444659 241.50956954 85.2421875 214.79296875 C84.5821875 215.45296875 83.9221875 216.11296875 83.2421875 216.79296875 C82.2521875 216.79296875 81.2621875 216.79296875 80.2421875 216.79296875 C81.6849192 213.42659478 83.40686157 211.12794304 86.2421875 208.79296875 C90.2421875 208.79296875 90.2421875 208.79296875 91.7265625 210.10546875 C92.8984375 211.66796875 94.0703125 213.23046875 95.2421875 214.79296875 C97.34020413 209.78754837 99.22807345 204.96823893 100.4296875 199.66796875 C102.57103004 192.40107227 108.00798686 188.65324205 114.359375 185 C124.68961682 179.6833352 134.86616539 178.04621037 146.3515625 180.44140625 C162.56765857 185.92488382 180.83579175 199.95083275 189.171875 215.07421875 C201.89093933 247.38249894 169.8029818 314.37487839 156.65283203 344.62255859 C152.42232994 354.13057178 147.90601882 363.49094036 143.2421875 372.79296875 C142.8105127 373.65889648 142.37883789 374.52482422 141.93408203 375.41699219 C133.69414577 391.84538522 124.54743494 408.04254545 112.2421875 421.79296875 C111.40300781 422.74042969 110.56382812 423.68789063 109.69921875 424.6640625 C104.80438674 430.12677359 99.72493618 435.40356548 94.5546875 440.60546875 C93.78946777 441.37769775 93.78946777 441.37769775 93.00878906 442.16552734 C74.96165085 460.13770939 53.91772095 475.31304168 33.1796875 489.98046875 C32.36395264 490.56940918 31.54821777 491.15834961 30.70776367 491.76513672 C26.56371951 494.70263515 22.52053952 497.22377655 17.90234375 499.3515625 C8.71060898 503.64559622 8.71060898 503.64559622 3.11816406 511.70947266 C1.45648183 518.83710457 0.99764944 526.06212798 0.53027344 533.34912109 C0.12409739 538.204646 -0.82674575 542.82328307 -2.0078125 547.54296875 C-2.21422363 548.37296387 -2.42063477 549.20295898 -2.63330078 550.05810547 C-12.94745927 589.81715127 -32.24716912 626.95874511 -56.7578125 659.79296875 C-57.41007812 660.67082031 -58.06234375 661.54867187 -58.734375 662.453125 C-83.18532215 694.19910782 -121.62513906 711.52281772 -158.7578125 723.79296875 C-159.57540039 724.06367187 -160.39298828 724.334375 -161.23535156 724.61328125 C-177.20051918 729.80965272 -192.8761395 732.37241869 -209.6328125 732.23046875 C-210.38050903 732.22809204 -211.12820557 732.22571533 -211.89855957 732.2232666 C-248.30671532 732.04399205 -284.57451342 724.30586909 -311.5703125 698.41796875 C-331.53578992 677.7077246 -335.92576558 649.83705205 -335.99804688 622.17138672 C-336.00776475 619.92898614 -336.03889144 617.68749988 -336.0703125 615.4453125 C-336.16213454 603.34635894 -334.50645386 592.84200187 -328.5703125 582.16796875 C-328.17521484 581.442146 -327.78011719 580.71632324 -327.37304688 579.96850586 C-324.072653 574.05486011 -320.28629634 568.83526134 -315.7578125 563.79296875 C-315.025625 562.95378906 -314.2934375 562.11460937 -313.5390625 561.25 C-305.58087943 552.24253594 -297.25779235 544.16659932 -287.7578125 536.79296875 C-287.09378418 536.27428223 -286.42975586 535.7555957 -285.74560547 535.22119141 C-264.17405304 518.49272559 -240.94637726 507.40058348 -216.0010376 496.75189209 C-213.06235682 495.49567862 -210.12712656 494.23152494 -207.19197083 492.96710205 C-199.96607718 489.85430321 -192.73259071 486.75962995 -185.49531555 483.67340088 C-179.93855406 481.30185246 -174.39023325 478.91109811 -168.84375 476.515625 C-166.41416811 475.46799289 -163.98444291 474.42069395 -161.55465698 473.37353516 C-159.99026357 472.69849326 -158.42639367 472.02223672 -156.86306763 471.34472656 C-154.70307023 470.40884894 -152.54122026 469.4773849 -150.37890625 468.546875 C-149.73484833 468.26642838 -149.09079041 467.98598175 -148.42721558 467.69703674 C-143.98556737 465.79296875 -143.98556737 465.79296875 -141.7578125 465.79296875 C-139.70338755 447.44219915 -137.68984224 429.09875036 -136.5078125 410.66796875 C-136.38817139 408.82513306 -136.38817139 408.82513306 -136.26611328 406.94506836 C-135.82396561 399.55262481 -135.66645622 392.19790299 -135.7578125 384.79296875 C-136.20769531 385.87191406 -136.65757812 386.95085937 -137.12109375 388.0625 C-144.90282919 406.35122871 -154.895265 422.87269867 -166.7578125 438.79296875 C-167.22719238 439.42605957 -167.69657227 440.05915039 -168.18017578 440.71142578 C-185.8042372 464.31100084 -207.83902329 478.7403782 -237.11572266 483.14794922 C-272.31893438 487.94482338 -316.49992211 484.88566149 -345.7578125 462.79296875 C-349.54107601 459.91439869 -353.17939192 456.92212777 -356.7578125 453.79296875 C-357.63050781 453.03113281 -358.50320313 452.26929688 -359.40234375 451.484375 C-373.02444529 439.27211334 -386.75115454 426.44754764 -397.7578125 411.79296875 C-398.67965971 410.62134825 -399.60294848 409.45086116 -400.52734375 408.28125 C-439.97102528 357.7812879 -458.66393838 285.24053775 -451.87817383 221.4621582 C-445.81047702 172.85803015 -422.55620465 122.19876968 -388.27099609 87.33691406 C-386.95361906 85.99275589 -385.66015251 84.62524536 -384.37109375 83.25390625 C-351.53066735 48.89590007 -294.95320665 22.80730797 -247.59960938 20.81396484 C-206.27598636 19.89512945 -154.6421921 28.94857724 -121.7578125 55.79296875 C-120.21774021 49.49494955 -118.81749911 43.19214558 -117.62109375 36.8203125 C-111.67792742 5.284073 -111.67792742 5.284073 -101.7578125 -3.20703125 C-94.18711533 -8.08646594 -85.99486084 -9.78684524 -77.2578125 -11.45703125 C-76.00355469 -11.71226563 -74.74929688 -11.9675 -73.45703125 -12.23046875 C-48.47307206 -17.20109937 -20.86830283 -16.70055397 0 0 Z M-66.1328125 -7.45703125 C-67.22263428 -7.2758374 -68.31245605 -7.09464355 -69.43530273 -6.90795898 C-87.95125108 -4.01482796 -87.95125108 -4.01482796 -103.0078125 6.29296875 C-109.29282561 18.86299497 -110.97130463 33.42989169 -113.5078125 47.10546875 C-113.92249444 49.31067535 -114.33785358 51.51575472 -114.75390625 53.72070312 C-115.76302069 59.07668311 -116.7637635 64.43417336 -117.7578125 69.79296875 C-118.3876001 69.0038208 -119.0173877 68.21467285 -119.66625977 67.40161133 C-141.88080619 39.69501292 -186.97390666 31.71658437 -220.109375 28.046875 C-225.6521491 27.49436986 -231.19640949 27.09859123 -236.7578125 26.79296875 C-237.93859375 26.72078125 -239.119375 26.64859375 -240.3359375 26.57421875 C-282.81878806 25.26705412 -336.73451086 48.60575252 -367.7578125 76.79296875 C-369.04171875 77.93572266 -369.04171875 77.93572266 -370.3515625 79.1015625 C-372.07935469 80.64895286 -373.79984816 82.20454504 -375.51171875 83.76953125 C-377.28506846 85.36708803 -379.07465232 86.87680367 -380.9453125 88.35546875 C-384.61655377 91.53721119 -387.62501982 95.09003181 -390.7578125 98.79296875 C-392.01464844 100.21802734 -392.01464844 100.21802734 -393.296875 101.671875 C-411.5224202 122.45733416 -423.4789717 146.89098079 -432.7578125 172.79296875 C-433.29148437 174.26467529 -433.29148437 174.26467529 -433.8359375 175.76611328 C-455.60853902 236.34088282 -447.91076478 305.31075403 -421.30322266 363.54248047 C-411.30980634 384.70031821 -397.59076741 403.22312509 -381.8671875 420.46484375 C-380.00105683 422.52449908 -378.18711462 424.6168577 -376.3828125 426.73046875 C-369.40249097 434.70797907 -361.87860155 441.93265875 -353.5859375 448.53125 C-351.58814097 450.12893535 -349.62542737 451.74016422 -347.6796875 453.3984375 C-347.16075928 453.83921631 -346.64183105 454.27999512 -346.10717773 454.73413086 C-344.66191452 455.96495788 -343.21953009 457.19916293 -341.77734375 458.43359375 C-335.23296697 463.54718182 -328.8488067 466.82105548 -320.9453125 469.35546875 C-319.57161499 469.80152466 -319.57161499 469.80152466 -318.17016602 470.2565918 C-282.28893519 481.59677923 -239.15001654 484.26682735 -204.70263672 466.85839844 C-192.20714682 460.01301582 -182.85139939 450.68454862 -174.4453125 439.29296875 C-173.79087158 438.4107666 -173.13643066 437.52856445 -172.4621582 436.61962891 C-152.92078154 410.10794193 -134.91634962 380.6222527 -133.7578125 346.79296875 C-131.7778125 346.79296875 -129.7978125 346.79296875 -127.7578125 346.79296875 C-131.21054903 430.43960156 -131.21054903 430.43960156 -135.2578125 459.79296875 C-135.36416016 460.59009277 -135.47050781 461.3872168 -135.58007812 462.20849609 C-136.18768972 466.11444372 -136.67281881 468.3042979 -139.7578125 470.79296875 C-142.22039795 472.04368591 -142.22039795 472.04368591 -145.18261719 473.28686523 C-146.29058655 473.75641129 -147.39855591 474.22595734 -148.5401001 474.70973206 C-149.74116394 475.2102861 -150.94222778 475.71084015 -152.1796875 476.2265625 C-153.4415397 476.75880722 -154.70307028 477.291815 -155.96429443 477.82554626 C-158.58881626 478.93527863 -161.21482673 480.04137187 -163.84204102 481.14471436 C-169.87207981 483.67945139 -175.88439295 486.25572912 -181.8984375 488.828125 C-184.24995848 489.83277948 -186.6015211 490.83733651 -188.953125 491.84179688 C-190.11618164 492.33881104 -191.27923828 492.8358252 -192.47753906 493.34790039 C-194.83775847 494.35580875 -197.19843863 495.36263882 -199.55957031 496.3684082 C-212.08816333 501.70641603 -224.58350467 507.1015559 -236.96875 512.765625 C-237.93629211 513.20753677 -238.90383423 513.64944855 -239.9006958 514.10475159 C-274.0967591 529.86680489 -314.23072714 558.14187937 -327.7578125 594.79296875 C-329.29256261 600.19820571 -330.02117183 604.90409587 -330.05859375 610.5625 C-330.06419312 611.27695282 -330.06979248 611.99140564 -330.07556152 612.72750854 C-330.0873803 615.02038172 -330.08124763 617.31259729 -330.0703125 619.60546875 C-330.06757828 620.78056503 -330.06757828 620.78056503 -330.06478882 621.97940063 C-330.01838 633.79399852 -329.61938671 645.27344266 -326.7578125 656.79296875 C-326.50837891 657.8279248 -326.50837891 657.8279248 -326.25390625 658.88378906 C-320.75900538 680.81251382 -307.92750479 697.03486008 -288.7578125 708.79296875 C-272.85096635 718.03735607 -255.75644053 721.95864065 -237.7578125 724.79296875 C-236.75754028 724.95091919 -236.75754028 724.95091919 -235.73706055 725.11206055 C-215.5574504 727.80867311 -192.27346713 727.72607775 -172.7578125 721.79296875 C-170.97141357 721.26050537 -170.97141357 721.26050537 -169.14892578 720.71728516 C-143.74841847 713.05980387 -119.0797554 703.33747681 -96.7578125 688.79296875 C-96.14550781 688.39400391 -95.53320312 687.99503906 -94.90234375 687.58398438 C-48.80902324 657.06804404 -18.16229405 594.52984149 -6.7578125 541.79296875 C-5.52347372 535.40778856 -4.47800564 528.99449299 -3.51953125 522.5625 C-3.36734131 521.60053711 -3.21515137 520.63857422 -3.05834961 519.64746094 C-2.6718331 516.80445473 -2.6718331 516.80445473 -2.97485352 513.99316406 C-3.1412385 510.76820642 -2.99699481 508.79461572 -1.7578125 505.79296875 C2.90561828 501.39681048 8.21839024 498.22818823 13.6796875 494.91796875 C15.20829621 493.95283103 16.73425721 492.98348731 18.25756836 492.01000977 C21.24273223 490.10461282 24.236076 488.21347588 27.23730469 486.33349609 C32.05002654 483.30173734 36.71457726 480.08927967 41.3046875 476.73046875 C41.98716553 476.23281006 42.66964355 475.73515137 43.37280273 475.22241211 C50.28693504 470.11431705 56.92698924 464.66793098 63.54541016 459.18554688 C65.80939755 457.32744844 68.11968277 455.53085891 70.4296875 453.73046875 C75.54345892 449.65664076 80.29242871 445.2150127 85.0625 440.75 C87.86745931 438.12657779 90.7338187 435.58015802 93.6171875 433.04296875 C97.86945214 429.22139973 101.58832248 425.18072974 105.2421875 420.79296875 C105.98984375 419.94476563 106.7375 419.0965625 107.5078125 418.22265625 C146.76478915 372.91664861 186.3559894 283.1990885 184.73046875 221.34375 C183.86847962 216.84071877 181.30091655 214.05514537 178.2421875 210.79296875 C177.61957031 209.98472656 176.99695313 209.17648438 176.35546875 208.34375 C167.67601771 197.86744403 152.61936588 187.19033311 138.9296875 184.85546875 C129.15678568 184.1744303 119.94052406 188.00253883 112.2421875 193.79296875 C108.06414948 197.43279509 106.15796929 200.73397423 104.62109375 205.9609375 C104.16355415 207.40898064 103.70586511 208.85697657 103.24804688 210.30493164 C103.0136792 211.06597198 102.77931152 211.82701233 102.5378418 212.6111145 C96.58744173 231.84118073 89.2199386 250.32900437 81.2421875 268.79296875 C80.97108154 269.42285706 80.69997559 270.05274536 80.4206543 270.70172119 C67.23601824 301.33032215 52.71709796 330.32107412 32.2421875 356.79296875 C31.59121094 357.65148437 30.94023438 358.51 30.26953125 359.39453125 C25.460984 365.52797687 20.16450836 371.0762052 14.6796875 376.60546875 C13.97134766 377.32307373 13.26300781 378.04067871 12.53320312 378.7800293 C11.4900293 379.81703979 11.4900293 379.81703979 10.42578125 380.875 C9.81275146 381.48577393 9.19972168 382.09654785 8.56811523 382.72583008 C6.47471158 384.58631594 4.34114059 386.25066505 2.09681702 387.92216492 C1.37530488 388.46038722 0.65379274 388.99860952 -0.0895834 389.55314159 C-0.640099 389.96228456 -1.1906146 390.37142752 -1.7578125 390.79296875 C-1.86430717 373.45712257 -1.55112588 356.13653374 -1.16601157 338.80601668 C-1.07836202 334.83726339 -0.99352476 330.86844978 -0.90834045 326.89964294 C-0.76084165 320.04377807 -0.61169406 313.18795073 -0.46144104 306.33214569 C-0.24364229 296.39193862 -0.02904624 286.45166423 0.18470985 276.5113695 C0.53249072 260.34006403 0.88195968 244.16879558 1.23291016 227.99755859 C1.25384446 227.03290744 1.27477876 226.06825628 1.29634744 225.07437328 C1.5085744 215.29599395 1.72098586 205.51761864 1.93353429 195.73924629 C2.03953106 190.86278572 2.14550548 185.98632467 2.25146484 181.10986328 C2.27237381 180.14762214 2.29328278 179.18538099 2.31482536 178.19398102 C2.66487595 162.08148527 3.01272002 145.96894264 3.35895681 129.85636449 C3.57180705 119.95573584 3.7865539 110.05515198 4.00385559 100.15462002 C4.15289671 93.3580708 4.29989779 86.56147932 4.44537604 79.76485291 C4.5290094 75.86078231 4.61350697 71.95673607 4.70055962 68.0527401 C4.8820126 59.88657546 5.03790397 51.72081601 5.1670742 43.55362988 C5.24248765 39.77794136 5.36453066 36.00575496 5.49232483 32.23151398 C5.54831594 29.88111147 5.60337366 27.53068648 5.65734863 25.18023682 C5.7052087 24.12446623 5.75306876 23.06869564 5.80237913 21.980932 C5.88511889 16.89683658 5.71034544 13.68842504 2.36321259 9.7087059 C-10.59914317 -3.19034427 -29.23892299 -9.10663664 -47.23828125 -9.3359375 C-53.66265735 -9.31497944 -59.80762656 -8.52753811 -66.1328125 -7.45703125 Z " fill="#000000" transform="translate(527.7578125,15.20703125)"/>
<path d="M0 0 C16.30545332 15.29766777 24.87638436 37.82664003 26.03173828 59.86474609 C26.21215206 67.50453196 25.24721573 74.11879747 23.125 81.4375 C22.81989502 82.52828857 22.51479004 83.61907715 22.20043945 84.74291992 C18.29793226 98.36723067 13.73599113 111.78975567 9.14753723 125.19526672 C7.45770022 130.13743912 5.81441555 135.09286013 4.1953125 140.05859375 C-2.08049409 159.19153556 -8.62981714 174.71839075 -23.125 188.875 C-23.85332031 189.62394531 -24.58164062 190.37289062 -25.33203125 191.14453125 C-36.47876607 201.96037969 -50.28618718 206.29337524 -65.49169922 206.24072266 C-79.13438545 205.96861784 -90.31210546 200.61602998 -100.25 191.375 C-118.65685676 171.98721357 -122.18185941 144.47391674 -122.125 118.875 C-121.20980507 83.98753754 -111.47623548 50.04186358 -101.375 16.875 C-101.02276367 15.70718994 -100.67052734 14.53937988 -100.30761719 13.33618164 C-97.00719933 2.76912213 -93.67666446 -6.78664964 -84.125 -13.125 C-76.93265297 -16.7818969 -69.24329861 -17.28130461 -61.3125 -17.6875 C-60.55646484 -17.73068359 -59.80042969 -17.77386719 -59.02148438 -17.81835938 C-36.47423008 -19.02933723 -17.63181259 -14.83354341 0 0 Z M-66.6875 -11.3125 C-67.79411987 -11.20772339 -67.79411987 -11.20772339 -68.9230957 -11.10083008 C-75.79701167 -10.31391978 -82.24809366 -8.25858562 -87.125 -3.125 C-92.59782656 6.50581625 -95.34884889 17.57991014 -98.5 28.125 C-98.92753571 29.54646332 -98.92753571 29.54646332 -99.3637085 30.99664307 C-111.99041894 73.11018087 -123.82028967 119.59992112 -110.125 162.875 C-109.85042969 163.76445312 -109.57585937 164.65390625 -109.29296875 165.5703125 C-104.43830723 179.35843791 -94.7819889 190.46152621 -81.71484375 196.83203125 C-70.35047217 201.40863338 -56.49390962 201.83771877 -45 197.3359375 C-16.366873 182.78595177 -6.78577661 154.8962559 2.8125 126.25 C3.20830261 125.07501953 3.60410522 123.90003906 4.01190186 122.68945312 C8.5650684 109.1552446 13.09865488 95.61382508 17 81.875 C17.31187256 80.80685059 17.62374512 79.73870117 17.94506836 78.63818359 C23.17697794 59.24129924 18.15839427 37.92634515 8.625 20.625 C5.01171183 14.7387106 0.74072656 9.75773959 -4.125 4.875 C-4.73859375 4.23820312 -5.3521875 3.60140625 -5.984375 2.9453125 C-17.65896764 -8.28025735 -33.1428575 -12.15573234 -48.9375 -12.4375 C-54.87973425 -12.30933416 -60.77370331 -11.90296752 -66.6875 -11.3125 Z " fill="#000000" transform="translate(340.125,168.125)"/>
<path d="M0 0 C6.517904 4.68956663 12.55343845 10.81246164 14 19 C14.7992898 30.25557271 13.99078008 38.31915226 6.75 47.25 C1.33164802 53.0878373 -4.3711544 56.67129269 -12.35546875 57.23828125 C-23.57071698 57.45549809 -30.8402179 55.69919895 -39.20703125 47.93359375 C-46.38318634 40.19460297 -47.48473506 33.10670258 -47.2734375 22.765625 C-46.64352117 14.09077723 -42.28194806 7.82507911 -36 2 C-25.82502277 -5.66451556 -10.93235165 -7.28107507 0 0 Z " fill="#000000" transform="translate(488,180)"/>
<path d="M0 0 C1.32 0.33 2.64 0.66 4 1 C2.71125972 4.65037272 1.22451516 7.15606936 -1.3125 10.0625 C-37.96072217 54.86213506 -60.26498631 114.96009902 -67 172 C-67.13277344 173.09699219 -67.26554687 174.19398438 -67.40234375 175.32421875 C-72.36782535 226.27142034 -59.7595318 279.17113317 -30 321 C-29.24074219 322.07121094 -28.48148438 323.14242188 -27.69921875 324.24609375 C-25.52499736 327.21585618 -23.28810188 330.11722792 -21 333 C-20.24074219 333.96421875 -19.48148438 334.9284375 -18.69921875 335.921875 C-8.71890042 348.15280943 2.540889 360.28781198 15 370 C15 367.03 15 364.06 15 361 C16.32 361 17.64 361 19 361 C20.22517308 366.66642551 20.09228867 372.23708518 20 378 C14.29309366 378.99250545 8.78591511 379.10477512 3 379 C3.33 377.68 3.66 376.36 4 375 C6.64 374.67 9.28 374.34 12 374 C11.36723145 373.4126709 11.36723145 373.4126709 10.72167969 372.81347656 C-36.06651601 329.32558767 -69.64500566 277.01458149 -72.91015625 211.47265625 C-72.93980469 210.32667969 -72.96945313 209.18070313 -73 208 C-73.02046387 207.2972998 -73.04092773 206.59459961 -73.06201172 205.87060547 C-74.88593978 134.49623049 -47.73142791 62.34795027 -4.3984375 6.125 C-2.86806169 4.13102501 -1.3942725 2.09140875 0 0 Z " fill="#000000" transform="translate(112,77)"/>
<path d="M0 0 C0.65134925 1.56020867 1.29582964 3.12328579 1.9375 4.6875 C2.29714844 5.55761719 2.65679687 6.42773438 3.02734375 7.32421875 C3.9570312 9.88179265 4.54162625 12.3221323 5 15 C3.68 15.33 2.36 15.66 1 16 C-0.25664978 13.09399739 -1 11.20395416 -1 8 C-1.66 8 -2.32 8 -3 8 C-3.26611084 8.82334839 -3.26611084 8.82334839 -3.53759766 9.66333008 C-4.81714584 13.56890357 -6.14035689 17.4379759 -7.6484375 21.26171875 C-19.37187622 51.13530054 -24.34464143 83.70347788 -11.78125 114.12109375 C-1.31596381 137.77994738 18.8444104 153.72016426 42 164 C42.61842773 164.27682617 43.23685547 164.55365234 43.87402344 164.83886719 C90.89241744 185.56095577 147.50952039 184.78510947 195.24707031 167.09082031 C200.62721496 164.95899287 205.76521144 162.4083874 210.85546875 159.6640625 C213.53524281 158.24594604 216.16318501 157.05779542 219 156 C219.33 157.32 219.66 158.64 220 160 C195.32110878 176.19552236 163.71040437 183.97275295 134.375 184.23828125 C133.47833115 184.24802979 132.58166229 184.25777832 131.65782166 184.26782227 C112.41780935 184.43403639 93.83386829 184.40443616 75 180 C74.13745605 179.80744629 73.27491211 179.61489258 72.38623047 179.41650391 C61.50732428 176.94973923 51.16611017 173.60327013 41 169 C40.02401855 168.56131592 40.02401855 168.56131592 39.02832031 168.11376953 C12.15190424 155.84466611 -8.6308942 136.41561005 -19.30859375 108.58984375 C-29.64771094 77.42100329 -22.65444344 44.59633572 -10.296875 15.1640625 C-9.05849864 12.1427226 -7.9955464 9.10873451 -7 6 C-9.64 6.66 -12.28 7.32 -15 8 C-15.33 6.68 -15.66 5.36 -16 4 C-14.274773 3.32320342 -12.54461061 2.65898 -10.8125 2 C-9.84957031 1.62875 -8.88664063 1.2575 -7.89453125 0.875 C-5.07817642 0.02363228 -2.91835561 -0.17072647 0 0 Z " fill="#000000" transform="translate(188,586)"/>
<path d="M0 0 C-0.02320313 0.57105469 -0.04640625 1.14210938 -0.0703125 1.73046875 C-0.18236469 6.76481356 0.15602864 11.4687672 1 16.4375 C3.59266217 32.32921346 0.41650053 42.46041218 -8 56 C-8.57105469 57.01191406 -9.14210938 58.02382813 -9.73046875 59.06640625 C-10.29378906 60.03449219 -10.85710937 61.00257813 -11.4375 62 C-11.93121094 62.86625 -12.42492187 63.7325 -12.93359375 64.625 C-17.76039683 70.17263001 -25.72342487 72.16139902 -32.5 74.5 C-33.36641113 74.80043213 -34.23282227 75.10086426 -35.12548828 75.41040039 C-56.38070316 82.64029062 -56.38070316 82.64029062 -65 82 C-67.875 80.3125 -67.875 80.3125 -70 77 C-72.86324423 63.09281376 -65.58535087 44.04500073 -59 32 C-50.5494564 20.64681621 -14.65791857 0 0 0 Z M-14.77734375 12.6328125 C-15.93169922 13.19226563 -17.08605469 13.75171875 -18.27539062 14.328125 C-19.49613502 14.92699921 -20.71683799 15.52595788 -21.9375 16.125 C-23.11119141 16.69476562 -24.28488281 17.26453125 -25.49414062 17.8515625 C-29.00114987 19.55757031 -32.50049611 21.27866114 -36 23 C-37.12825195 23.54519287 -38.25650391 24.09038574 -39.41894531 24.65209961 C-40.48081055 25.1703833 -41.54267578 25.68866699 -42.63671875 26.22265625 C-43.57862061 26.67906494 -44.52052246 27.13547363 -45.4909668 27.60571289 C-55.48724748 33.16071522 -57.85837292 43.77358199 -61 54 C-61.34289062 55.04285156 -61.68578125 56.08570313 -62.0390625 57.16015625 C-63.99711346 63.51924699 -64.34629862 69.36902263 -64 76 C-52.48481886 75.20584958 -41.74937095 71.37930813 -30.9375 67.5625 C-30.12812988 67.28647949 -29.31875977 67.01045898 -28.48486328 66.72607422 C-16.55918731 62.39468468 -11.32837886 51.01101314 -5.9453125 40.19140625 C-1.84567532 30.68770188 -4.25231886 19.81510213 -6 10 C-9.63678505 10 -11.51135989 11.04097141 -14.77734375 12.6328125 Z " fill="#000000" transform="translate(376,564)"/>
<path d="M0 0 C0.99 0.33 1.98 0.66 3 1 C4.7446193 34.23128574 5.20142887 67.40816285 5.18847656 100.679245 C5.18750051 103.81086393 5.18847337 106.94247791 5.18969727 110.07409668 C5.19065066 115.0725654 5.18498935 120.07098492 5.17376137 125.06944084 C5.16994373 126.93132226 5.16751858 128.79320714 5.16658592 130.65509224 C5.1644358 133.23340047 5.15577293 135.81160655 5.14526367 138.38989258 C5.14572189 139.13307362 5.14618011 139.87625465 5.14665222 140.64195633 C5.11541831 145.82316743 4.63722977 150.85737965 4 156 C6.31 155.67 8.62 155.34 11 155 C10.67 155.99 10.34 156.98 10 158 C5.95637513 159.8380113 3.26550147 160.25455926 -1 159 C-2.31626692 155.38026598 -3 152.90432869 -3 149 C-2.01 149.33 -1.02 149.66 0 150 C1.24147345 147.51705309 1.20721135 145.70317143 1.31640625 142.92578125 C1.35830078 141.86294922 1.40019531 140.80011719 1.44335938 139.70507812 C1.48267578 138.58552734 1.52199219 137.46597656 1.5625 136.3125 C1.60568359 135.27416016 1.64886719 134.23582031 1.69335938 133.16601562 C2.41069121 113.91191824 1.98874689 94.63112489 1.5625 75.375 C1.51765023 73.26188171 1.47280984 71.14876322 1.42797852 69.03564453 C1.15611153 56.5131441 0.78820866 43.99933599 0.30712891 31.4831543 C-0.0789017 20.98706086 -0.09733733 10.50161644 0 0 Z " fill="#000000" transform="translate(555,145)"/>
<path d="M0 0 C1.4540625 0.0309375 1.4540625 0.0309375 2.9375 0.0625 C5.0625 4.6875 5.0625 4.6875 3.9375 8.0625 C4.26300502 9.73071323 4.59596063 11.39749557 4.9375 13.0625 C4.6075 13.7225 4.2775 14.3825 3.9375 15.0625 C1.125 15.9375 1.125 15.9375 -2.0625 16.0625 C-4.4375 14.125 -4.4375 14.125 -6.0625 12.0625 C-2.43923261 10.8547442 -1.42103631 11.51938872 1.9375 13.0625 C1.9375 11.7425 1.9375 10.4225 1.9375 9.0625 C0.6175 9.0625 -0.7025 9.0625 -2.0625 9.0625 C-2.0625 8.0725 -2.0625 7.0825 -2.0625 6.0625 C-0.7425 6.0625 0.5775 6.0625 1.9375 6.0625 C1.6075 5.0725 1.2775 4.0825 0.9375 3.0625 C-1.0425 3.7225 -3.0225 4.3825 -5.0625 5.0625 C-3.9375 0.08035714 -3.9375 0.08035714 0 0 Z " fill="#000000" transform="translate(199.0625,757.9375)"/>
<path d="M0 0 C3.0625 0.1875 3.0625 0.1875 5.0625 2.1875 C4.90004442 5.92397845 4.47466356 7.71288742 2 10.5625 C1.360625 11.09875 0.72125 11.635 0.0625 12.1875 C1.7125 12.5175 3.3625 12.8475 5.0625 13.1875 C5.0625 13.8475 5.0625 14.5075 5.0625 15.1875 C1.7625 15.1875 -1.5375 15.1875 -4.9375 15.1875 C-2.9375 11.1875 -2.9375 11.1875 -0.8125 8.625 C1.36735538 6.30372611 1.36735538 6.30372611 1.0625 3.1875 C0.4025 3.1875 -0.2575 3.1875 -0.9375 3.1875 C-1.2675 3.8475 -1.5975 4.5075 -1.9375 5.1875 C-2.9275 5.1875 -3.9175 5.1875 -4.9375 5.1875 C-3.82120474 0.24390669 -3.82120474 0.24390669 0 0 Z " fill="#000000" transform="translate(579.9375,197.8125)"/>
<path d="M0 0 C0.99 0 1.98 0 3 0 C3 3.3 3 6.6 3 10 C3.66 10 4.32 10 5 10 C5 10.66 5 11.32 5 12 C4.34 12 3.68 12 3 12 C3 12.99 3 13.98 3 15 C2.34 15 1.68 15 1 15 C1 14.01 1 13.02 1 12 C-1.31 12 -3.62 12 -6 12 C-5.56629155 7.2292071 -3.35665609 3.36635741 0 0 Z M0 4 C-0.99 5.98 -1.98 7.96 -3 10 C-1.68 10 -0.36 10 1 10 C1 8.02 1 6.04 1 4 C0.67 4 0.34 4 0 4 Z " fill="#000000" transform="translate(586,265)"/>
<path d="M0 0 C0 0.99 0 1.98 0 3 C0.66 3 1.32 3 2 3 C1.67 6.63 1.34 10.26 1 14 C0.01 14 -0.98 14 -2 14 C-1.67 10.37 -1.34 6.74 -1 3 C-5.455 4.485 -5.455 4.485 -10 6 C-10.33 5.01 -10.66 4.02 -11 3 C-9.73160474 2.49384702 -8.46016898 1.99530901 -7.1875 1.5 C-6.12595703 1.08234375 -6.12595703 1.08234375 -5.04296875 0.65625 C-3 0 -3 0 0 0 Z " fill="#000000" transform="translate(476,478)"/>
<path d="M0 0 C0 4.95 0 9.9 0 15 C-0.99 15 -1.98 15 -3 15 C-3 11.37 -3 7.74 -3 4 C-3.99 4.33 -4.98 4.66 -6 5 C-5.625 3.0625 -5.625 3.0625 -5 1 C-3 0 -3 0 0 0 Z " fill="#000000" transform="translate(186,758)"/>
<path d="M0 0 C0 4.95 0 9.9 0 15 C-0.99 15 -1.98 15 -3 15 C-3 11.37 -3 7.74 -3 4 C-3.99 4.33 -4.98 4.66 -6 5 C-5.625 3.0625 -5.625 3.0625 -5 1 C-3 0 -3 0 0 0 Z " fill="#000000" transform="translate(572,265)"/>
<path d="M0 0 C0 4.95 0 9.9 0 15 C-0.99 15 -1.98 15 -3 15 C-3 11.37 -3 7.74 -3 4 C-3.99 4.33 -4.98 4.66 -6 5 C-5.625 3.0625 -5.625 3.0625 -5 1 C-3 0 -3 0 0 0 Z " fill="#000000" transform="translate(7,236)"/>
<path d="M0 0 C0 4.95 0 9.9 0 15 C-0.99 15 -1.98 15 -3 15 C-3 11.37 -3 7.74 -3 4 C-3.99 4.33 -4.98 4.66 -6 5 C-5.625 3.0625 -5.625 3.0625 -5 1 C-3 0 -3 0 0 0 Z " fill="#000000" transform="translate(567,198)"/>
<path d="M0 0 C0 4.95 0 9.9 0 15 C-0.66 15 -1.32 15 -2 15 C-2.33 11.37 -2.66 7.74 -3 4 C-3.99 4.33 -4.98 4.66 -6 5 C-6 4.01 -6 3.02 -6 2 C-3 0 -3 0 0 0 Z " fill="#000000" transform="translate(19,236)"/>
<path d="M0 0 C1.17825358 0.90172468 2.34231577 1.82201502 3.5 2.75 C4.1496875 3.26046875 4.799375 3.7709375 5.46875 4.296875 C7 6 7 6 7 10 C2.7257442 8.4169423 0.73468206 5.49431596 -2 2 C-1.34 1.34 -0.68 0.68 0 0 Z " fill="#000000" transform="translate(193,415)"/>
<path d="M0 0 C4.2742558 1.5830577 6.26531794 4.50568404 9 8 C8.01 8.33 7.02 8.66 6 9 C4.17578125 7.78515625 4.17578125 7.78515625 2.3125 6.0625 C1.68988281 5.49660156 1.06726563 4.93070313 0.42578125 4.34765625 C-0.04472656 3.90292969 -0.51523438 3.45820312 -1 3 C-0.67 2.01 -0.34 1.02 0 0 Z " fill="#000000" transform="translate(247,683)"/>
<path d="M0 0 C0.99 0.33 1.98 0.66 3 1 C1.35 4.3 -0.3 7.6 -2 11 C-2.99 11 -3.98 11 -5 11 C-3.77472971 6.94718288 -2.30119506 3.55639236 0 0 Z " fill="#000000" transform="translate(365,360)"/>
<path d="M0 0 C0.66 0.33 1.32 0.66 2 1 C1 4 1 4 -1.06640625 5.16796875 C-1.89011719 5.50441406 -2.71382813 5.84085938 -3.5625 6.1875 C-4.38878906 6.53167969 -5.21507812 6.87585938 -6.06640625 7.23046875 C-6.70449219 7.48441406 -7.34257812 7.73835937 -8 8 C-8.33 7.01 -8.66 6.02 -9 5 C-7.54735962 4.1361871 -6.0876837 3.28419546 -4.625 2.4375 C-3.40683594 1.72400391 -3.40683594 1.72400391 -2.1640625 0.99609375 C-1.44992187 0.66738281 -0.73578125 0.33867188 0 0 Z " fill="#000000" transform="translate(366,687)"/>
<path d="M0 0 C0 0.99 0 1.98 0 3 C-1.28913487 3.67154933 -2.58140204 4.33708859 -3.875 5 C-4.59429687 5.37125 -5.31359375 5.7425 -6.0546875 6.125 C-8 7 -8 7 -10 7 C-10.33 6.01 -10.66 5.02 -11 4 C-9.73308493 3.32591692 -8.46129251 2.66099503 -7.1875 2 C-6.47980469 1.62875 -5.77210938 1.2575 -5.04296875 0.875 C-3 0 -3 0 0 0 Z " fill="#000000" transform="translate(401,509)"/>
<path d="M0 0 C3.63 0.33 7.26 0.66 11 1 C11 1.99 11 2.98 11 4 C6.83861737 4.08159574 3.0527516 3.98248524 -1 3 C-0.67 2.01 -0.34 1.02 0 0 Z " fill="#000000" transform="translate(262,458)"/>
<path d="M0 0 C0.66 0.33 1.32 0.66 2 1 C1.43768609 4.93619738 0.38314183 7.79192446 -2 11 C-2.99 11 -3.98 11 -5 11 C-4.32902328 6.80639551 -2.1441606 3.59665648 0 0 Z " fill="#000000" transform="translate(337,418)"/>
<path d="M0 0 C0.66 0.33 1.32 0.66 2 1 C0.6062718 5.43458973 -1.60582235 7.87378374 -5 11 C-5.66 10.34 -6.32 9.68 -7 9 C-4.69 6.03 -2.38 3.06 0 0 Z " fill="#000000" transform="translate(407,285)"/>
<path d="M0 0 C0.99 0.99 1.98 1.98 3 3 C1.02 5.64 -0.96 8.28 -3 11 C-3.99 10.67 -4.98 10.34 -6 10 C-4.34832443 6.4213696 -2.21713508 3.25179812 0 0 Z " fill="#000000" transform="translate(419,268)"/>
<path d="M0 0 C0.99 0.33 1.98 0.66 3 1 C2.09827532 2.17825358 1.17798498 3.34231577 0.25 4.5 C-0.51570313 5.47453125 -0.51570313 5.47453125 -1.296875 6.46875 C-3 8 -3 8 -7 8 C-5.64458676 3.93376028 -3.42990531 2.46953182 0 0 Z " fill="#000000" transform="translate(397,663)"/>
<path d="M0 0 C0.99 0 1.98 0 3 0 C2.38545304 3.99455527 0.29353263 6.74466336 -2 10 C-2.99 9.67 -3.98 9.34 -5 9 C-3.49901406 5.88256767 -1.97568178 2.84498177 0 0 Z " fill="#000000" transform="translate(422,632)"/>
<path d="M0 0 C0.99 0.33 1.98 0.66 3 1 C1.66511872 4.59391114 0.03977277 7.75490696 -2 11 C-2.99 10.67 -3.98 10.34 -5 10 C-3.35 6.7 -1.7 3.4 0 0 Z " fill="#000000" transform="translate(433,614)"/>
<path d="M0 0 C0 0.99 0 1.98 0 3 C-2.97 4.65 -5.94 6.3 -9 8 C-9 6.68 -9 5.36 -9 4 C-4 0 -4 0 0 0 Z " fill="#000000" transform="translate(311,557)"/>
<path d="M0 0 C0 0.66 0 1.32 0 2 C-4.95 4.475 -4.95 4.475 -10 7 C-10.33 6.01 -10.66 5.02 -11 4 C-9.73760288 3.13341385 -8.46472499 2.28207941 -7.1875 1.4375 C-6.47980469 0.96183594 -5.77210938 0.48617187 -5.04296875 -0.00390625 C-3 -1 -3 -1 0 0 Z " fill="#000000" transform="translate(329,547)"/>
<path d="M0 0 C-0.24609375 1.859375 -0.24609375 1.859375 -1 4 C-2.84765625 5.265625 -2.84765625 5.265625 -5.0625 6.25 C-6.16271484 6.75273438 -6.16271484 6.75273438 -7.28515625 7.265625 C-8.13400391 7.62914062 -8.13400391 7.62914062 -9 8 C-9 6.68 -9 5.36 -9 4 C-2.25 0 -2.25 0 0 0 Z " fill="#000000" transform="translate(346,536)"/>
<path d="M0 0 C0.53625 0.226875 1.0725 0.45375 1.625 0.6875 C-1.09978774 4.05341427 -4.44356792 5.12976276 -8.375 6.6875 C-8.375 5.3675 -8.375 4.0475 -8.375 2.6875 C-2.95961538 -0.38942308 -2.95961538 -0.38942308 0 0 Z " fill="#000000" transform="translate(381.375,518.3125)"/>
<path d="M0 0 C0.66 0.33 1.32 0.66 2 1 C0.89184175 4.21365891 0.01470446 4.9914224 -3 6.75 C-6 8 -6 8 -8 8 C-7.9375 6.25 -7.9375 6.25 -7 4 C-4.74876994 2.27481113 -2.59865097 1.23093993 0 0 Z " fill="#000000" transform="translate(310,449)"/>
<path d="M0 0 C0.99 0.33 1.98 0.66 3 1 C1.35 4.3 -0.3 7.6 -2 11 C-2.66 11 -3.32 11 -4 11 C-3.48964169 6.6109185 -2.47785723 3.66291938 0 0 Z " fill="#000000" transform="translate(346,399)"/>
<path d="M0 0 C0.66 0.33 1.32 0.66 2 1 C1.60404157 2.48484412 1.18249294 3.9628831 0.75 5.4375 C0.51796875 6.26121094 0.2859375 7.08492188 0.046875 7.93359375 C-1 10 -1 10 -3.109375 10.78515625 C-3.73328125 10.85605469 -4.3571875 10.92695313 -5 11 C-3.77472971 6.94718288 -2.30119506 3.55639236 0 0 Z " fill="#000000" transform="translate(384,321)"/>
<path d="M0 0 C0.66 0.33 1.32 0.66 2 1 C0.66749209 4.5875213 -0.830717 7.8364623 -3 11 C-3.66 11 -4.32 11 -5 11 C-4.54663921 6.12637153 -3.2910841 3.60957611 0 0 Z " fill="#000000" transform="translate(394,302)"/>
<path d="M0 0 C0.99 0 1.98 0 3 0 C2.34 3.63 1.68 7.26 1 11 C0.01 11 -0.98 11 -2 11 C-1.125 3.375 -1.125 3.375 0 0 Z " fill="#000000" transform="translate(656,262)"/>
<path d="M0 0 C0.99 0.33 1.98 0.66 3 1 C-1 8.71428571 -1 8.71428571 -5 10 C-5 6.60406522 -4.47834052 5.93380119 -2.5 3.3125 C-2.0359375 2.68988281 -1.571875 2.06726563 -1.09375 1.42578125 C-0.7328125 0.95527344 -0.371875 0.48476562 0 0 Z " fill="#000000" transform="translate(444,235)"/>
<path d="M0 0 C0.99 0 1.98 0 3 0 C4.42258812 3.82320557 5.24042276 6.91281305 5 11 C4.01 11 3.02 11 2 11 C1.34 7.37 0.68 3.74 0 0 Z " fill="#000000" transform="translate(459,160)"/>
<path d="M0 0 C0.99 0 1.98 0 3 0 C3.99 3.63 4.98 7.26 6 11 C4.68 10.67 3.36 10.34 2 10 C1.34 6.7 0.68 3.4 0 0 Z " fill="#000000" transform="translate(449,121)"/>
<path d="M0 0 C1.32 0.33 2.64 0.66 4 1 C4.66 3.97 5.32 6.94 6 10 C5.01 10.33 4.02 10.66 3 11 C2.01 7.37 1.02 3.74 0 0 Z " fill="#000000" transform="translate(443,102)"/>
<path d="M0 0 C0 0.99 0 1.98 0 3 C-3.63 3.33 -7.26 3.66 -11 4 C-11 3.01 -11 2.02 -11 1 C-7.32589215 -0.17571451 -3.83070817 -0.07366746 0 0 Z " fill="#000000" transform="translate(311,707)"/>
<path d="M0 0 C2.97 1.65 5.94 3.3 9 5 C9 5.99 9 6.98 9 8 C5.00544473 7.38545304 2.25533664 5.29353263 -1 3 C-0.67 2.01 -0.34 1.02 0 0 Z " fill="#000000" transform="translate(263,696)"/>
<path d="M0 0 C-2.33333333 2.33333333 -4.66666667 4.66666667 -7 7 C-7.99 7 -8.98 7 -10 7 C-10 6.01 -10 5.02 -10 4 C-8.57421875 2.578125 -8.57421875 2.578125 -6.6875 1.25 C-6.07261719 0.80140625 -5.45773437 0.3528125 -4.82421875 -0.109375 C-3 -1 -3 -1 0 0 Z " fill="#000000" transform="translate(385,677)"/>
<path d="M0 0 C0.99 0 1.98 0 3 0 C7 6.625 7 6.625 7 10 C6.01 10 5.02 10 4 10 C0 3.375 0 3.375 0 0 Z " fill="#000000" transform="translate(235,667)"/>
<path d="M0 0 C0.99 0 1.98 0 3 0 C2.42636089 3.87206399 0.65894107 6.18465063 -2 9 C-2.99 9 -3.98 9 -5 9 C-4.42636089 5.12793601 -2.65894107 2.81534937 0 0 Z " fill="#000000" transform="translate(410,648)"/>
<path d="M0 0 C0.99 0 1.98 0 3 0 C1.6062718 4.43458973 -0.60582235 6.87378374 -4 10 C-5 7 -5 7 -4.109375 5.17578125 C-3.66078125 4.56089844 -3.2121875 3.94601562 -2.75 3.3125 C-2.31171875 2.68988281 -1.8734375 2.06726563 -1.421875 1.42578125 C-0.95265625 0.95527344 -0.4834375 0.48476563 0 0 Z " fill="#000000" transform="translate(247,610)"/>
<path d="M0 0 C0.99 0.33 1.98 0.66 3 1 C1.8905928 4.48670834 0.73662334 7.77484237 -1 11 C-1.99 11 -2.98 11 -4 11 C-3.52269162 9.5410574 -3.04308958 8.08286504 -2.5625 6.625 C-2.29566406 5.81289063 -2.02882813 5.00078125 -1.75390625 4.1640625 C-1 2 -1 2 0 0 Z " fill="#000000" transform="translate(442,596)"/>
<path d="M0 0 C0.66 0.33 1.32 0.66 2 1 C0.47291037 4.43595166 -1.59927045 7.11912454 -4 10 C-4.99 9.67 -5.98 9.34 -7 9 C-5.44499019 5.18315774 -2.96404505 2.80804268 0 0 Z " fill="#000000" transform="translate(261,594)"/>
<path d="M0 0 C0.99 0.33 1.98 0.66 3 1 C1.68 4.3 0.36 7.6 -1 11 C-1.99 10.67 -2.98 10.34 -4 10 C-2.68 6.7 -1.36 3.4 0 0 Z " fill="#000000" transform="translate(450,578)"/>
<path d="M0 0 C0.99 0.33 1.98 0.66 3 1 C2.01 4.3 1.02 7.6 0 11 C-0.99 11 -1.98 11 -3 11 C-2.44894091 7.0507432 -1.61064629 3.65079826 0 0 Z " fill="#000000" transform="translate(457,559)"/>
<path d="M0 0 C0 0.99 0 1.98 0 3 C-2.97 4.32 -5.94 5.64 -9 7 C-9 5.68 -9 4.36 -9 3 C-3.375 0 -3.375 0 0 0 Z " fill="#000000" transform="translate(364,527)"/>
<path d="M0 0 C-2.1290142 2.34191563 -4.04408729 3.83554954 -7 5 C-8.32 5 -9.64 5 -11 5 C-10 2 -10 2 -7.1875 0.25 C-4.03596914 -0.98589446 -3.03070628 -1.28222189 0 0 Z " fill="#000000" transform="translate(420,502)"/>
<path d="M0 0 C-2.35735884 2.72957339 -4.58133526 3.88893396 -8 5 C-8.99 5 -9.98 5 -11 5 C-11 4.01 -11 3.02 -11 2 C-3.57142857 -1.57142857 -3.57142857 -1.57142857 0 0 Z " fill="#000000" transform="translate(439,494)"/>
<path d="M0 0 C0 0.99 0 1.98 0 3 C-3.3 4.32 -6.6 5.64 -10 7 C-10.33 6.01 -10.66 5.02 -11 4 C-9.5437455 3.32880451 -8.08492133 2.66318193 -6.625 2 C-5.81289063 1.62875 -5.00078125 1.2575 -4.1640625 0.875 C-2 0 -2 0 0 0 Z " fill="#000000" transform="translate(457,485)"/>
<path d="M0 0 C0.515625 0.2475 1.03125 0.495 1.5625 0.75 C-1.16228774 4.11591427 -4.50606792 5.19226276 -8.4375 6.75 C-8.7675 5.76 -9.0975 4.77 -9.4375 3.75 C-3.0375 -0.31153846 -3.0375 -0.31153846 0 0 Z " fill="#000000" transform="translate(512.4375,464.25)"/>
<path d="M0 0 C0.99 0 1.98 0 3 0 C2.67 3.63 2.34 7.26 2 11 C1.01 11 0.02 11 -1 11 C-1.14285714 3.57142857 -1.14285714 3.57142857 0 0 Z " fill="#000000" transform="translate(478,461)"/>
<path d="M0 0 C0 0.99 0 1.98 0 3 C-3.67410785 4.17571451 -7.16929183 4.07366746 -11 4 C-11 3.01 -11 2.02 -11 1 C-7.26513121 0.4254048 -3.78706732 0 0 0 Z " fill="#000000" transform="translate(293,458)"/>
<path d="M0 0 C3.63 1.32 7.26 2.64 11 4 C10.67 4.99 10.34 5.98 10 7 C8.51515588 6.60404157 7.0371169 6.18249294 5.5625 5.75 C4.73878906 5.51796875 3.91507813 5.2859375 3.06640625 5.046875 C2.38449219 4.70140625 1.70257813 4.3559375 1 4 C0.67 2.68 0.34 1.36 0 0 Z " fill="#000000" transform="translate(242,451)"/>
<path d="M0 0 C3.98264458 0.44251606 6.7971409 2.74344018 10 5 C9.67 5.66 9.34 6.32 9 7 C4.56909529 5.79157144 2.01887244 4.48331435 -1 1 C-0.67 0.67 -0.34 0.34 0 0 Z " fill="#000000" transform="translate(224,442)"/>
<path d="M0 0 C1.34173403 0.92543709 2.67320159 1.86577405 4 2.8125 C5.11375 3.59560547 5.11375 3.59560547 6.25 4.39453125 C7.11625 5.18923828 7.11625 5.18923828 8 6 C8 6.99 8 7.98 8 9 C4.06326356 7.68775452 1.77280706 6.08089673 -1 3 C-0.67 2.01 -0.34 1.02 0 0 Z " fill="#000000" transform="translate(208,429)"/>
<path d="M0 0 C0.66 0 1.32 0 2 0 C3.65 2.97 5.3 5.94 7 9 C5.68 9 4.36 9 3 9 C0.6875 6.1875 0.6875 6.1875 -1 3 C-0.67 2.01 -0.34 1.02 0 0 Z " fill="#000000" transform="translate(169,383)"/>
<path d="M0 0 C0.99 0 1.98 0 3 0 C3 3.63 3 7.26 3 11 C2.01 11 1.02 11 0 11 C0 7.37 0 3.74 0 0 Z " fill="#000000" transform="translate(483,380)"/>
<path d="M0 0 C0.99 0 1.98 0 3 0 C2.52269162 1.4589426 2.04308958 2.91713496 1.5625 4.375 C1.29566406 5.18710937 1.02882813 5.99921875 0.75390625 6.8359375 C0 9 0 9 -1 11 C-1.99 10.67 -2.98 10.34 -4 10 C-2.8905928 6.51329166 -1.73662334 3.22515763 0 0 Z " fill="#000000" transform="translate(355,380)"/>
<path d="M0 0 C0.66 0 1.32 0 2 0 C2.67154933 1.28913487 3.33708859 2.58140204 4 3.875 C4.37125 4.59429687 4.7425 5.31359375 5.125 6.0546875 C6 8 6 8 6 10 C4.1875 9.875 4.1875 9.875 2 9 C0.1875 6.125 0.1875 6.125 -1 3 C-0.67 2.01 -0.34 1.02 0 0 Z " fill="#000000" transform="translate(160,366)"/>
<path d="M0 0 C0.99 0 1.98 0 3 0 C3 3.63 3 7.26 3 11 C2.01 11 1.02 11 0 11 C0 7.37 0 3.74 0 0 Z " fill="#000000" transform="translate(483,360)"/>
<path d="M0 0 C0.99 0 1.98 0 3 0 C3 3.63 3 7.26 3 11 C2.01 11 1.02 11 0 11 C0 7.37 0 3.74 0 0 Z " fill="#000000" transform="translate(483,340)"/>
<path d="M0 0 C0.99 0.33 1.98 0.66 3 1 C1.68 3.97 0.36 6.94 -1 10 C-1.99 10 -2.98 10 -4 10 C-3.43454163 6.04179141 -2.19097652 3.3340947 0 0 Z " fill="#000000" transform="translate(630,336)"/>
<path d="M0 0 C0.99 0 1.98 0 3 0 C3 3.63 3 7.26 3 11 C2.01 11 1.02 11 0 11 C0 7.37 0 3.74 0 0 Z " fill="#000000" transform="translate(482,320)"/>
<path d="M0 0 C0.99 0 1.98 0 3 0 C2.125 7.625 2.125 7.625 1 11 C0.01 10.67 -0.98 10.34 -2 10 C-1.34 6.7 -0.68 3.4 0 0 Z " fill="#000000" transform="translate(651,281)"/>
<path d="M0 0 C0.99 0 1.98 0 3 0 C2.49477778 4.37859255 -0.17827222 6.81651224 -3 10 C-3.66 9.67 -4.32 9.34 -5 9 C-3.76067171 5.56801397 -2.49698489 2.69674368 0 0 Z " fill="#000000" transform="translate(431,252)"/>
<path d="M0 0 C0.66 0 1.32 0 2 0 C2.33 3.63 2.66 7.26 3 11 C2.01 11 1.02 11 0 11 C-0.19406478 9.35492782 -0.38007935 7.70890406 -0.5625 6.0625 C-0.66691406 5.14597656 -0.77132813 4.22945312 -0.87890625 3.28515625 C-0.91886719 2.53105469 -0.95882813 1.77695313 -1 1 C-0.67 0.67 -0.34 0.34 0 0 Z " fill="#000000" transform="translate(475,239)"/>
<path d="M0 0 C0.99 0 1.98 0 3 0 C3 3.63 3 7.26 3 11 C2.01 11 1.02 11 0 11 C0 7.37 0 3.74 0 0 Z " fill="#000000" transform="translate(134,235)"/>
<path d="M0 0 C3.43595166 1.52708963 6.11912454 3.59927045 9 6 C8.67 6.99 8.34 7.98 8 9 C2.09815951 5.65030675 2.09815951 5.65030675 0 3 C0 2.01 0 1.02 0 0 Z " fill="#000000" transform="translate(436,174)"/>
<path d="M0 0 C0.66 0.33 1.32 0.66 2 1 C2.6328125 3.28515625 2.6328125 3.28515625 3.125 6.0625 C3.29257812 6.98160156 3.46015625 7.90070313 3.6328125 8.84765625 C3.75398438 9.55792969 3.87515625 10.26820313 4 11 C2.68 10.67 1.36 10.34 0 10 C-0.19412181 8.52168779 -0.38012131 7.04230684 -0.5625 5.5625 C-0.66691406 4.73878906 -0.77132813 3.91507813 -0.87890625 3.06640625 C-0.91886719 2.38449219 -0.95882813 1.70257813 -1 1 C-0.67 0.67 -0.34 0.34 0 0 Z " fill="#000000" transform="translate(456,140)"/>
<path d="M0 0 C0.33 0.99 0.66 1.98 1 3 C-0.09758507 3.84198307 -1.20335317 4.67330671 -2.3125 5.5 C-2.92738281 5.9640625 -3.54226562 6.428125 -4.17578125 6.90625 C-6 8 -6 8 -9 8 C-7.47364599 4.11473526 -4.49771687 0 0 0 Z " fill="#000000" transform="translate(194,116)"/>
<path d="M0 0 C0.515625 0.2475 1.03125 0.495 1.5625 0.75 C-1.16228774 4.11591427 -4.50606792 5.19226276 -8.4375 6.75 C-8.7675 5.76 -9.0975 4.77 -9.4375 3.75 C-3.0375 -0.31153846 -3.0375 -0.31153846 0 0 Z " fill="#000000" transform="translate(210.4375,107.25)"/>
<path d="M0 0 C0 0.66 0 1.32 0 2 C-3.63 2.66 -7.26 3.32 -11 4 C-11 3.01 -11 2.02 -11 1 C-3.57142857 -1.42857143 -3.57142857 -1.42857143 0 0 Z " fill="#000000" transform="translate(331,704)"/>
<path d="M0 0 C0 0.66 0 1.32 0 2 C-6.5 5 -6.5 5 -11 5 C-10 2 -10 2 -8.22265625 1.015625 C-7.15337891 0.63664063 -7.15337891 0.63664063 -6.0625 0.25 C-5.35222656 -0.01296875 -4.64195312 -0.2759375 -3.91015625 -0.546875 C-2 -1 -2 -1 0 0 Z " fill="#000000" transform="translate(350,697)"/>
<path d="M0 0 C0.66 0.33 1.32 0.66 2 1 C1.39009109 4.55780196 0.4216319 7.6828589 -1 11 C-1.99 11 -2.98 11 -4 11 C-3.5247412 9.35303396 -3.04468109 7.70745272 -2.5625 6.0625 C-2.29566406 5.14597656 -2.02882812 4.22945312 -1.75390625 3.28515625 C-1 1 -1 1 0 0 Z " fill="#000000" transform="translate(237,627)"/>
<path d="M0 0 C0 0.99 0 1.98 0 3 C-5.23255814 8 -5.23255814 8 -9 8 C-9 7.01 -9 6.02 -9 5 C-3.76744186 0 -3.76744186 0 0 0 Z " fill="#000000" transform="translate(278,581)"/>
<path d="M0 0 C-0.33589994 3.13506611 -1.02665172 4.025249 -3.375 6.25 C-6 8 -6 8 -9 8 C-9 7.01 -9 6.02 -9 5 C-7.5390625 3.61328125 -7.5390625 3.61328125 -5.625 2.3125 C-4.68527344 1.65701172 -4.68527344 1.65701172 -3.7265625 0.98828125 C-2 0 -2 0 0 0 Z " fill="#000000" transform="translate(294,568)"/>
<path d="M0 0 C0.99 0.33 1.98 0.66 3 1 C2.01 4.3 1.02 7.6 0 11 C-0.99 10.67 -1.98 10.34 -3 10 C-2.69201674 8.51988629 -2.378482 7.04092675 -2.0625 5.5625 C-1.88847656 4.73878906 -1.71445312 3.91507813 -1.53515625 3.06640625 C-1 1 -1 1 0 0 Z " fill="#000000" transform="translate(463,540)"/>
<path d="M0 0 C0.99 0 1.98 0 3 0 C2.34 3.63 1.68 7.26 1 11 C0.01 10.67 -0.98 10.34 -2 10 C-1.34 6.7 -0.68 3.4 0 0 Z " fill="#000000" transform="translate(472,501)"/>
<path d="M0 0 C0.33 0.99 0.66 1.98 1 3 C-3.455 4.485 -3.455 4.485 -8 6 C-8.66 5.01 -9.32 4.02 -10 3 C-6.73454239 1.11608215 -3.71888239 0.50712033 0 0 Z " fill="#000000" transform="translate(494,471)"/>
<path d="M0 0 C0.66 0.33 1.32 0.66 2 1 C0.55527654 4.80881639 -1.32603071 6.29742886 -5 8 C-5.99 7.67 -6.98 7.34 -8 7 C-5.42215154 4.35247996 -3.08351902 2.05567935 0 0 Z " fill="#000000" transform="translate(528,453)"/>
<path d="M0 0 C0.99 0 1.98 0 3 0 C2.67 3.63 2.34 7.26 2 11 C1.01 11 0.02 11 -1 11 C-0.67 7.37 -0.34 3.74 0 0 Z " fill="#000000" transform="translate(480,441)"/>
<path d="M0 0 C0.99 0 1.98 0 3 0 C2.67 3.63 2.34 7.26 2 11 C1.01 11 0.02 11 -1 11 C-1.125 3.375 -1.125 3.375 0 0 Z " fill="#000000" transform="translate(482,421)"/>
<path d="M0 0 C0.99 0 1.98 0 3 0 C4.38671875 1.4609375 4.38671875 1.4609375 5.6875 3.375 C6.12449219 4.00148438 6.56148437 4.62796875 7.01171875 5.2734375 C8 7 8 7 8 9 C4.86493389 8.66410006 3.974751 7.97334828 1.75 5.625 C0 3 0 3 0 0 Z " fill="#000000" transform="translate(179,400)"/>
<path d="M0 0 C0.99 0.33 1.98 0.66 3 1 C1.7580393 4.43927579 0.44259716 7.25207819 -2 10 C-2.66 10 -3.32 10 -4 10 C-3.43454163 6.04179141 -2.19097652 3.3340947 0 0 Z " fill="#000000" transform="translate(620,353)"/>
<path d="M0 0 C1.32 0.33 2.64 0.66 4 1 C5.046875 2.84765625 5.046875 2.84765625 5.75 5.0625 C5.99234375 5.79597656 6.2346875 6.52945312 6.484375 7.28515625 C6.65453125 7.85105469 6.8246875 8.41695313 7 9 C5.68 9 4.36 9 3 9 C2.01 6.03 1.02 3.06 0 0 Z " fill="#000000" transform="translate(151,349)"/>
<path d="M0 0 C0.99 0 1.98 0 3 0 C1.77472971 4.05281712 0.30119506 7.44360764 -2 11 C-2.66 10.67 -3.32 10.34 -4 10 C-3.52449439 8.51965236 -3.04448784 7.04074979 -2.5625 5.5625 C-2.29566406 4.73878906 -2.02882813 3.91507812 -1.75390625 3.06640625 C-1 1 -1 1 0 0 Z " fill="#000000" transform="translate(374,341)"/>
<path d="M0 0 C0.99 0.33 1.98 0.66 3 1 C3 4.3 3 7.6 3 11 C2.01 11 1.02 11 0 11 C0 7.37 0 3.74 0 0 Z " fill="#000000" transform="translate(481,300)"/>
<path d="M0 0 C0.99 0 1.98 0 3 0 C3.66 3.3 4.32 6.6 5 10 C4.01 10.33 3.02 10.66 2 11 C0 3.375 0 3.375 0 0 Z " fill="#000000" transform="translate(136,293)"/>
<path d="M0 0 C3.45925163 1.2491742 6.14693203 2.67527795 9 5 C8.67 5.99 8.34 6.98 8 8 C4.18315774 6.44499019 1.80804268 3.96404505 -1 1 C-0.67 0.67 -0.34 0.34 0 0 Z " fill="#000000" transform="translate(421,162)"/>
<path d="M0 0 C0.99 0.33 1.98 0.66 3 1 C1.68 3.97 0.36 6.94 -1 10 C-1.99 10 -2.98 10 -4 10 C-3.43454163 6.04179141 -2.19097652 3.3340947 0 0 Z " fill="#000000" transform="translate(153,160)"/>
<path d="M0 0 C3.45925163 1.2491742 6.14693203 2.67527795 9 5 C8.67 5.99 8.34 6.98 8 8 C1.25 4.375 1.25 4.375 -1 1 C-0.67 0.67 -0.34 0.34 0 0 Z " fill="#000000" transform="translate(405,150)"/>
<path d="M0 0 C2.97 1.65 5.94 3.3 9 5 C8.67 5.99 8.34 6.98 8 8 C5.36 6.68 2.72 5.36 0 4 C0 2.68 0 1.36 0 0 Z " fill="#000000" transform="translate(389,139)"/>
<path d="M0 0 C4.95 1.98 4.95 1.98 10 4 C9.01 5.485 9.01 5.485 8 7 C3.545 5.02 3.545 5.02 -1 3 C-0.67 2.01 -0.34 1.02 0 0 Z " fill="#000000" transform="translate(336,112)"/>
<path d="M0 0 C0 0.99 0 1.98 0 3 C-4.95 4.485 -4.95 4.485 -10 6 C-9.67 4.68 -9.34 3.36 -9 2 C-2.25 0 -2.25 0 0 0 Z " fill="#000000" transform="translate(230,100)"/>
<path d="M0 0 C1.258125 -0.020625 2.51625 -0.04125 3.8125 -0.0625 C4.52019531 -0.07410156 5.22789062 -0.08570312 5.95703125 -0.09765625 C8 0 8 0 11 1 C11 1.99 11 2.98 11 4 C7.7 3.67 4.4 3.34 1 3 C0.67 2.01 0.34 1.02 0 0 Z " fill="#000000" transform="translate(278,98)"/>
<path d="M0 0 C0.33 0.99 0.66 1.98 1 3 C-2.63 3.33 -6.26 3.66 -10 4 C-10 3.01 -10 2.02 -10 1 C-6.59437148 0.22157062 -3.49234244 -0.09978121 0 0 Z " fill="#000000" transform="translate(249,97)"/>
<path d="M0 0 C0.66 0 1.32 0 2 0 C2.33 3.63 2.66 7.26 3 11 C2.01 11 1.02 11 0 11 C-0.19406478 9.35492782 -0.38007935 7.70890406 -0.5625 6.0625 C-0.66691406 5.14597656 -0.77132812 4.22945312 -0.87890625 3.28515625 C-0.91886719 2.53105469 -0.95882812 1.77695312 -1 1 C-0.67 0.67 -0.34 0.34 0 0 Z " fill="#000000" transform="translate(232,647)"/>
<path d="M0 0 C0.66 0.33 1.32 0.66 2 1 C1.67 3.97 1.34 6.94 1 10 C-0.32 10.33 -1.64 10.66 -3 11 C-2.69217504 9.35328588 -2.37860766 7.70764424 -2.0625 6.0625 C-1.88847656 5.14597656 -1.71445312 4.22945312 -1.53515625 3.28515625 C-1 1 -1 1 0 0 Z " fill="#000000" transform="translate(468,520)"/>
<path d="M0 0 C-1.49041773 3.79379058 -3.69062512 5.68343758 -7 8 C-7.66 8 -8.32 8 -9 8 C-8.66410006 4.86493389 -7.97334828 3.974751 -5.625 1.75 C-3 0 -3 0 0 0 Z " fill="#000000" transform="translate(546,442)"/>
<path d="M0 0 C0.99 0.33 1.98 0.66 3 1 C2.07038578 2.15224028 1.1309875 3.29659176 0.1875 4.4375 C-0.59560547 5.39462891 -0.59560547 5.39462891 -1.39453125 6.37109375 C-3 8 -3 8 -6 9 C-5.52797514 4.75177626 -3.03344482 2.80010291 0 0 Z " fill="#000000" transform="translate(325,436)"/>
<path d="M0 0 C-1.44126786 3.36295835 -3.20592655 5.62927102 -6 8 C-6.99 8 -7.98 8 -9 8 C-9 7.01 -9 6.02 -9 5 C-3.76744186 0 -3.76744186 0 0 0 Z " fill="#000000" transform="translate(561,429)"/>
<path d="M0 0 C0.66 0.33 1.32 0.66 2 1 C0.64978174 5.41889613 -1.26115668 7.34345343 -5 10 C-5 4.69520066 -3.4637943 3.81017373 0 0 Z " fill="#000000" transform="translate(599,385)"/>
<path d="M0 0 C0.99 0.33 1.98 0.66 3 1 C2.24266726 2.3410477 1.46867264 3.67269781 0.6875 5 C0.25824219 5.7425 -0.17101562 6.485 -0.61328125 7.25 C-1.07089844 7.8275 -1.52851562 8.405 -2 9 C-2.99 9 -3.98 9 -5 9 C-4.42647107 5.12867972 -2.51295648 2.91827204 0 0 Z " fill="#000000" transform="translate(610,370)"/>
<path d="M0 0 C0.99 0.33 1.98 0.66 3 1 C2.01 3.97 1.02 6.94 0 10 C-0.99 10 -1.98 10 -3 10 C-2.39009109 6.44219804 -1.4216319 3.3171411 0 0 Z " fill="#000000" transform="translate(638,318)"/>
<path d="M0 0 C0.99 0 1.98 0 3 0 C3.66 3.3 4.32 6.6 5 10 C4.01 10.33 3.02 10.66 2 11 C0.80712589 7.12315913 0 4.08378077 0 0 Z " fill="#000000" transform="translate(140,312)"/>
<path d="M0 0 C0.99 0 1.98 0 3 0 C3.33 3.3 3.66 6.6 4 10 C3.01 10.33 2.02 10.66 1 11 C-0.28317892 7.15046324 -0.06643637 4.05261865 0 0 Z " fill="#000000" transform="translate(479,280)"/>
<path d="M0 0 C0.66 0.33 1.32 0.66 2 1 C2.4140625 3.28515625 2.4140625 3.28515625 2.625 6.0625 C2.69976562 6.98160156 2.77453125 7.90070313 2.8515625 8.84765625 C2.92503906 9.91306641 2.92503906 9.91306641 3 11 C2.01 11.33 1.02 11.66 0 12 C-1.29449495 8.11651516 -1.13203312 5.09302664 -1 1 C-0.67 0.67 -0.34 0.34 0 0 Z " fill="#000000" transform="translate(478,259)"/>
<path d="M0 0 C0.99 0 1.98 0 3 0 C2.88590407 1.45922693 2.75834456 2.91740598 2.625 4.375 C2.55539063 5.18710938 2.48578125 5.99921875 2.4140625 6.8359375 C2 9 2 9 0 11 C-0.66 10.34 -1.32 9.68 -2 9 C-1.7578125 6.8359375 -1.7578125 6.8359375 -1.125 4.375 C-0.92132813 3.55773437 -0.71765625 2.74046875 -0.5078125 1.8984375 C-0.34023437 1.27195313 -0.17265625 0.64546875 0 0 Z " fill="#000000" transform="translate(140,197)"/>
<path d="M0 0 C0.66 0.33 1.32 0.66 2 1 C1.34 4.3 0.68 7.6 0 11 C-0.99 10.67 -1.98 10.34 -3 10 C-2.69201674 8.51988629 -2.378482 7.04092675 -2.0625 5.5625 C-1.88847656 4.73878906 -1.71445313 3.91507813 -1.53515625 3.06640625 C-1 1 -1 1 0 0 Z " fill="#000000" transform="translate(146,178)"/>
<path d="M0 0 C2.97 1.65 5.94 3.3 9 5 C8.67 5.99 8.34 6.98 8 8 C5.03 6.35 2.06 4.7 -1 3 C-0.67 2.01 -0.34 1.02 0 0 Z " fill="#000000" transform="translate(372,129)"/>
<path d="M0 0 C0.66 0 1.32 0 2 0 C1.52797514 4.24822374 -0.96655518 6.19989709 -4 9 C-4.99 8.67 -5.98 8.34 -7 8 C-6.02133662 6.85373678 -5.04205413 5.70800212 -4.0625 4.5625 C-3.51722656 3.92441406 -2.97195312 3.28632813 -2.41015625 2.62890625 C-1.63204305 1.73008851 -0.84063472 0.84063472 0 0 Z " fill="#000000" transform="translate(177,129)"/>
<path d="M0 0 C4.455 0.99 4.455 0.99 9 2 C9.33 3.32 9.66 4.64 10 6 C6.7 5.01 3.4 4.02 0 3 C0 2.01 0 1.02 0 0 Z " fill="#000000" transform="translate(317,106)"/>
<path d="M0 0 C0.66 0.33 1.32 0.66 2 1 C0.55746343 4.36591866 -1.33264727 6.51047079 -4 9 C-4.99 8.67 -5.98 8.34 -7 8 C-6.02133662 6.85373678 -5.04205413 5.70800212 -4.0625 4.5625 C-3.51722656 3.92441406 -2.97195313 3.28632813 -2.41015625 2.62890625 C-1.63204305 1.73008851 -0.84063472 0.84063472 0 0 Z " fill="#000000" transform="translate(573,415)"/>
<path d="M0 0 C0.99 0.33 1.98 0.66 3 1 C2.07347299 2.17539996 1.13336613 3.34010577 0.1875 4.5 C-0.33457031 5.1496875 -0.85664062 5.799375 -1.39453125 6.46875 C-3 8 -3 8 -6 8 C-4.55746343 4.63408134 -2.66735273 2.48952921 0 0 Z " fill="#000000" transform="translate(586,401)"/>
<path d="M0 0 C0.66 0 1.32 0 2 0 C1.49287967 3.71888239 0.88391785 6.73454239 -1 10 C-1.99 9.67 -2.98 9.34 -4 9 C-2.68 6.03 -1.36 3.06 0 0 Z " fill="#000000" transform="translate(646,300)"/>
<path d="M0 0 C0.99 0 1.98 0 3 0 C2.67 3.63 2.34 7.26 2 11 C1.01 10.67 0.02 10.34 -1 10 C-0.67 6.7 -0.34 3.4 0 0 Z " fill="#000000" transform="translate(659,243)"/>
<path d="M0 0 C0.99 0.33 1.98 0.66 3 1 C2.34 4.3 1.68 7.6 1 11 C0.01 10.67 -0.98 10.34 -2 10 C-1.34 6.7 -0.68 3.4 0 0 Z " fill="#000000" transform="translate(137,216)"/>
<path d="M0 0 C0.99 0 1.98 0 3 0 C2.42647107 3.87132028 0.51295648 6.08172796 -2 9 C-2.99 8.67 -3.98 8.34 -5 8 C-4.24266726 6.6589523 -3.46867264 5.32730219 -2.6875 4 C-2.25824219 3.2575 -1.82898438 2.515 -1.38671875 1.75 C-0.70029297 0.88375 -0.70029297 0.88375 0 0 Z " fill="#000000" transform="translate(163,144)"/>
<path d="M0 0 C3.3 1.65 6.6 3.3 10 5 C9.67 5.66 9.34 6.32 9 7 C5.51329166 5.8905928 2.22515763 4.73662334 -1 3 C-0.67 2.01 -0.34 1.02 0 0 Z " fill="#000000" transform="translate(354,120)"/>
<path d="M0 0 C7.75 0.875 7.75 0.875 10 2 C10 2.99 10 3.98 10 5 C6.7 4.34 3.4 3.68 0 3 C0 2.01 0 1.02 0 0 Z " fill="#000000" transform="translate(298,101)"/>
<path d="M0 0 C0.99 0.33 1.98 0.66 3 1 C2.67 4.63 2.34 8.26 2 12 C1.01 11.67 0.02 11.34 -1 11 C-0.67 7.37 -0.34 3.74 0 0 Z " fill="#000000" transform="translate(483,400)"/>
<path d="M0 0 C0.99 0 1.98 0 3 0 C4.31626692 3.61973402 5 6.09567131 5 10 C4.01 9.67 3.02 9.34 2 9 C1.26953125 6.93359375 1.26953125 6.93359375 0.8125 4.4375 C0.65394531 3.61121094 0.49539062 2.78492188 0.33203125 1.93359375 C0.16767578 0.97646484 0.16767578 0.97646484 0 0 Z " fill="#000000" transform="translate(145,331)"/>
<path d="M0 0 C0.99 0 1.98 0 3 0 C3.33 3.3 3.66 6.6 4 10 C3.01 10 2.02 10 1 10 C0.67 6.7 0.34 3.4 0 0 Z " fill="#000000" transform="translate(134,274)"/>
<path d="M0 0 C0.70125 0.309375 1.4025 0.61875 2.125 0.9375 C5.08936657 2.03302678 7.87698108 2.56422992 11 3 C11 3.66 11 4.32 11 5 C9.741875 5.04125 8.48375 5.0825 7.1875 5.125 C6.47980469 5.14820313 5.77210938 5.17140625 5.04296875 5.1953125 C3 5 3 5 0 3 C0 2.01 0 1.02 0 0 Z " fill="#000000" transform="translate(280,706)"/>
<path d="M0 0 C3.3 0 6.6 0 10 0 C10 0.99 10 1.98 10 3 C6.7 2.67 3.4 2.34 0 2 C0 1.34 0 0.68 0 0 Z " fill="#000000" transform="translate(259,97)"/>
<path d="M0 0 C0.66 0 1.32 0 2 0 C2.33 3.3 2.66 6.6 3 10 C2.01 10 1.02 10 0 10 C0 6.7 0 3.4 0 0 Z " fill="#000000" transform="translate(134,255)"/>
<path d="M0 0 C0.66 0 1.32 0 2 0 C2 1.98 2 3.96 2 6 C1.01 6 0.02 6 -1 6 C-1.042721 4.33388095 -1.04063832 2.66617115 -1 1 C-0.67 0.67 -0.34 0.34 0 0 Z " fill="#000000" transform="translate(661,228)"/>
<path d="M0 0 C0.66 0.33 1.32 0.66 2 1 C2.625 3.5625 2.625 3.5625 3 6 C2.01 6 1.02 6 0 6 C-0.38218767 4.34385343 -0.71395102 2.67542976 -1 1 C-0.67 0.67 -0.34 0.34 0 0 Z " fill="#000000" transform="translate(440,87)"/>
<path d="M0 0 C0.99 0.33 1.98 0.66 3 1 C2.67 1.99 2.34 2.98 2 4 C1.01 3.01 0.02 2.02 -1 1 C-0.67 0.67 -0.34 0.34 0 0 Z " fill="#000000" transform="translate(189,770)"/>
<path d="M0 0 C0.99 0.33 1.98 0.66 3 1 C2.67 1.99 2.34 2.98 2 4 C1.01 3.01 0.02 2.02 -1 1 C-0.67 0.67 -0.34 0.34 0 0 Z " fill="#000000" transform="translate(575,277)"/>
<path d="M0 0 C0.99 0.33 1.98 0.66 3 1 C2.67 1.99 2.34 2.98 2 4 C1.01 3.01 0.02 2.02 -1 1 C-0.67 0.67 -0.34 0.34 0 0 Z " fill="#000000" transform="translate(10,248)"/>
<path d="M0 0 C0.99 0.33 1.98 0.66 3 1 C2.67 1.99 2.34 2.98 2 4 C1.01 3.01 0.02 2.02 -1 1 C-0.67 0.67 -0.34 0.34 0 0 Z " fill="#000000" transform="translate(570,210)"/>
</svg>
