<?xml version="1.0" encoding="UTF-8"?>
<svg version="1.1" xmlns="http://www.w3.org/2000/svg" width="647" height="621">
<path d="M0 0 C24.18653778 21.16322056 36.30665711 51.77359186 38.55957031 83.46337891 C39.21011538 96.12560682 37.93197589 107.71589992 34.375 119.8671875 C34.14425781 120.65996094 33.91351563 121.45273438 33.67578125 122.26953125 C21.10329899 164.37736866 0.16054506 208.98386331 -30.625 240.8671875 C-31.54732422 241.84945312 -31.54732422 241.84945312 -32.48828125 242.8515625 C-36.96539389 247.5103241 -41.94672433 251.50799103 -46.98388672 255.54248047 C-48.74166938 256.96136305 -50.48299663 258.39880649 -52.22265625 259.83984375 C-63.8858324 269.47031613 -76.00484894 278.42134342 -88.3046875 287.21875 C-89.82835183 288.30957906 -91.35179192 289.40072143 -92.875 290.4921875 C-93.61903076 291.02497314 -94.36306152 291.55775879 -95.12963867 292.10668945 C-99.98508774 295.60998815 -104.67512965 299.26893019 -109.3125 303.0546875 C-128.25110137 318.41232514 -149.9809474 330.00074463 -171.43139648 341.42895508 C-176.9475107 344.37410874 -182.32944722 347.45138043 -187.63330078 350.765625 C-189.625 351.8671875 -189.625 351.8671875 -191.625 351.8671875 C-186.19714359 372.20640072 -186.19714359 372.20640072 -174.92578125 389.53515625 C-173.625 390.8671875 -173.625 390.8671875 -173.625 392.8671875 C-173.03847656 393.14691406 -172.45195312 393.42664063 -171.84765625 393.71484375 C-169.78228354 394.78564331 -167.97118986 395.98138416 -166.0625 397.3046875 C-157.90325924 402.40186552 -148.62278087 403.3911468 -139.1875 403.6796875 C-138.14762939 403.71465332 -137.10775879 403.74961914 -136.03637695 403.78564453 C-113.18807943 404.33990181 -92.14315173 399.91582078 -71.625 389.8671875 C-71.00173828 389.56973633 -70.37847656 389.27228516 -69.73632812 388.96582031 C-34.12440741 371.82688865 -7.43548067 339.5786156 14.90820312 307.94384766 C16.65431445 305.47173998 18.41301212 303.00883308 20.17407227 300.54736328 C20.97570346 299.42582925 21.77566846 298.30310244 22.57397461 297.17919922 C24.82795188 294.00927565 27.1106213 290.86385533 29.42578125 287.73828125 C47.0612027 263.84624895 62.11702158 238.22944534 72.40039062 210.3059082 C75.79575922 201.1564354 79.56567072 192.20336848 83.5022583 183.27462769 C84.19951309 181.69140453 84.89278794 180.10642157 85.58172607 178.51956177 C96.9306283 152.42139047 96.9306283 152.42139047 109.42871094 146.97167969 C116.52692689 144.61384827 123.32990532 144.43900122 130.76977539 144.53100586 C132.80590599 144.55461105 134.84071987 144.55154337 136.87695312 144.54492188 C151.0614808 144.62122007 163.3466681 145.98045806 174.125 155.9296875 C183.4733008 165.92212917 187.74891613 179.30272312 187.57128906 192.86328125 C187.1490348 199.32524208 185.94351908 205.68636099 184.8125 212.0546875 C184.61284134 213.19777374 184.61284134 213.19777374 184.40914917 214.36395264 C181.61267364 230.32952709 178.26394926 246.12970429 174.375 261.8671875 C174.10075195 262.97771484 173.82650391 264.08824219 173.54394531 265.23242188 C159.50592789 320.94842411 127.11717165 380.26881512 87.74658203 422.32397461 C86.20661043 423.97539361 84.67961394 425.63904372 83.16821289 427.31665039 C75.30481979 436.03255871 67.0684354 444.35990628 58.76855469 452.65893555 C56.37406079 455.05562757 53.98771124 457.46023731 51.6015625 459.86523438 C43.83671312 467.65856631 36.11047024 475.15810602 27.375 481.8671875 C26.25398821 482.78076798 25.13511153 483.69698244 24.01953125 484.6171875 C-6.78295587 509.08923244 -49.50934829 525.36523373 -88.625 527.8671875 C-89.69733887 527.9504126 -90.76967773 528.0336377 -91.87451172 528.11938477 C-105.49053714 529.07620983 -119.12422026 529.12418251 -132.76806641 529.16235352 C-135.57167653 529.17115821 -138.37478215 529.19194131 -141.17822266 529.22387695 C-164.83534882 529.48677381 -188.17718221 528.17233049 -210.9375 521.1171875 C-212.08645752 520.77357178 -213.23541504 520.42995605 -214.41918945 520.07592773 C-264.37406582 504.88851084 -287.55684198 482.03213696 -311.97436523 436.85888672 C-313.04873403 434.91164294 -314.16903958 432.98882495 -315.34008789 431.09814453 C-316.625 428.8671875 -316.625 428.8671875 -316.625 426.8671875 C-323.13588786 429.95669861 -329.22990943 433.57470147 -335.36602783 437.34832764 C-338.44505134 439.24121287 -341.53100124 441.12272886 -344.6171875 443.00390625 C-345.26456879 443.3986615 -345.91195007 443.79341675 -346.57894897 444.20013428 C-354.77806049 449.19067918 -363.04288047 454.07040798 -371.30404663 458.95724487 C-380.11556198 464.1708626 -388.90350203 469.41529287 -397.59033203 474.83544922 C-404.37931818 479.04355528 -409.93236339 479.85074517 -417.71875 478.21875 C-432.92250746 473.98341756 -444.40099031 464.9763921 -452.65332031 451.60449219 C-460.34717552 437.84834302 -460.95646414 417.69245683 -457.90625 402.51171875 C-455.33732732 393.51013079 -450.91096591 389.34568242 -442.88964844 384.82275391 C-442.01856445 384.34241699 -441.14748047 383.86208008 -440.25 383.3671875 C-439.32735352 382.84946777 -438.40470703 382.33174805 -437.45410156 381.79833984 C-435.49950904 380.7018852 -433.54308462 379.60869063 -431.58496094 378.51855469 C-427.7802059 376.39587545 -423.99141119 374.24563149 -420.20214844 372.09545898 C-411.15394472 366.96423672 -402.07953899 361.88018886 -393 356.8046875 C-387.02935621 353.46620368 -381.06174643 350.12304908 -375.1171875 346.73828125 C-374.24312256 346.24150879 -373.36905762 345.74473633 -372.46850586 345.23291016 C-370.75026084 344.24527916 -369.03991919 343.24375894 -367.33813477 342.22802734 C-362.89115687 339.59529282 -358.53522605 337.36827882 -353.72265625 335.47265625 C-348.01620065 333.07501377 -342.60960038 330.75880733 -338.625 325.8671875 C-335.9861753 318.61516565 -336.54967788 310.72607991 -336.67332458 303.11647034 C-336.75256383 295.01409193 -335.58161756 287.11260393 -334.375 279.1171875 C-334.2653894 278.37197845 -334.15577881 277.62676941 -334.04284668 276.85897827 C-332.03891182 263.30927023 -329.25350003 250.08082365 -325.625 236.8671875 C-325.1616626 235.14628906 -325.1616626 235.14628906 -324.68896484 233.390625 C-317.02359168 205.1342519 -308.64622235 175.68519175 -294.625 149.8671875 C-294.15658691 148.99594238 -293.68817383 148.12469727 -293.20556641 147.22705078 C-285.33482887 132.69394621 -276.70468006 118.67220061 -267.625 104.8671875 C-267.12726074 104.10760742 -266.62952148 103.34802734 -266.11669922 102.56542969 C-260.31853933 93.76645041 -254.12758004 85.59821512 -247.17016602 77.68310547 C-246.00431834 76.31297196 -244.86926913 74.91654674 -243.74975586 73.50830078 C-237.9760599 66.25472824 -231.74253433 59.64419129 -225.17944336 53.10595703 C-223.44817185 51.3778399 -221.73067958 49.6368071 -220.01367188 47.89453125 C-208.69076444 36.50693818 -196.59178684 26.85294225 -182.625 18.8671875 C-181.56925781 18.24585938 -180.51351563 17.62453125 -179.42578125 16.984375 C-132.97175562 -9.18243077 -47.01380795 -38.19871896 0 0 Z M-116.625 -1.1328125 C-117.49286133 -0.90368164 -118.36072266 -0.67455078 -119.25488281 -0.43847656 C-151.99893868 8.36396374 -183.73118578 22.53437153 -208.625 45.8671875 C-210.33102468 47.39061015 -212.03936977 48.91143818 -213.75 50.4296875 C-220.15778876 56.20572244 -226.17310425 62.21187552 -231.79296875 68.7578125 C-233.77811587 71.04348296 -235.8253983 73.26420128 -237.875 75.4921875 C-247.5237497 86.22212138 -255.83482494 97.74241263 -263.625 109.8671875 C-264.09019043 110.58503418 -264.55538086 111.30288086 -265.03466797 112.04248047 C-273.02368768 124.38769135 -280.63168319 136.92932242 -287.625 149.8671875 C-288.10936523 150.75954102 -288.59373047 151.65189453 -289.09277344 152.57128906 C-312.21756336 195.9322011 -325.5437308 248.29062584 -330.625 296.8671875 C-330.76965698 298.19278687 -330.76965698 298.19278687 -330.91723633 299.54516602 C-331.59587545 306.23205524 -331.74630921 312.8368664 -331.6875 319.5546875 C-331.68298828 320.55435547 -331.67847656 321.55402344 -331.67382812 322.58398438 C-331.66221185 325.01178547 -331.64588168 327.4394515 -331.625 329.8671875 C-332.33479004 330.13490967 -333.04458008 330.40263184 -333.77587891 330.6784668 C-336.7196882 331.90669366 -339.42624774 333.33194533 -342.2109375 334.88671875 C-343.83660645 335.79188232 -343.83660645 335.79188232 -345.49511719 336.71533203 C-346.66347525 337.37000335 -347.83176791 338.02479142 -349 338.6796875 C-350.21506509 339.35809679 -351.43023579 340.03631694 -352.64550781 340.71435547 C-363.05717015 346.52863363 -373.44080197 352.39263349 -383.81445312 358.27441406 C-387.62224923 360.4323416 -391.43260198 362.58573098 -395.24316406 364.73876953 C-397.15679327 365.82009 -399.07020654 366.9017927 -400.98339844 367.98388672 C-405.87090745 370.7480242 -410.76117376 373.50709546 -415.65625 376.2578125 C-428.56108107 383.51435687 -428.56108107 383.51435687 -441.375 390.9296875 C-441.97699219 391.27547852 -442.57898438 391.62126953 -443.19921875 391.97753906 C-447.79276653 394.70934895 -450.00658054 397.08064241 -451.75 402.1171875 C-455.42541004 418.87456547 -454.27668889 437.70483714 -444.98828125 452.46875 C-443.30510485 454.73063649 -441.54969078 456.80831348 -439.625 458.8671875 C-439.12613281 459.40730469 -438.62726563 459.94742187 -438.11328125 460.50390625 C-430.72449597 467.59490673 -418.63735259 473.51744153 -408.29296875 473.36767578 C-402.42526118 472.26694367 -397.56405259 468.50153772 -392.625 465.3046875 C-391.38353445 464.522556 -390.14066982 463.74264127 -388.89648438 462.96484375 C-386.35572133 461.37472052 -383.82060633 459.77614203 -381.2890625 458.17138672 C-375.95996446 454.80528246 -370.54208489 451.58904242 -365.125 448.3671875 C-358.45409869 444.37809611 -351.79534424 440.36989362 -345.15625 436.328125 C-344.52722778 435.94533386 -343.89820557 435.56254272 -343.25012207 435.16815186 C-340.19842176 433.31055672 -337.14804099 431.45084484 -334.09960938 429.58789062 C-328.01131691 425.87811475 -321.89786999 422.2568876 -315.625 418.8671875 C-301.85038498 442.23815637 -301.85038498 442.23815637 -297.25 451.1171875 C-279.28153068 485.33374077 -254.03387699 501.34805911 -218.24267578 512.70751953 C-182.45203055 523.72858161 -147.14936748 524.87021855 -109.99047852 523.12255859 C-107.16388619 522.99108918 -104.33693914 522.87214103 -101.50976562 522.75390625 C-88.11820884 522.16276804 -74.74115645 521.36260931 -61.75 517.8046875 C-60.97229248 517.59408691 -60.19458496 517.38348633 -59.39331055 517.16650391 C-23.84400122 507.18421617 8.49559847 491.9037434 35.4609375 466.5703125 C37.64175459 464.54735617 39.84272124 462.59663437 42.09765625 460.66015625 C47.09796406 456.30440089 51.76077326 451.62755995 56.4375 446.9296875 C57.29666016 446.07439453 58.15582031 445.21910156 59.04101562 444.33789062 C63.47269393 439.89944123 67.73169427 435.38822955 71.81713867 430.63012695 C74.07669299 428.07312308 76.52310945 425.77750065 79 423.4296875 C86.3348163 416.24588896 92.36277059 408.16399454 98.375 399.8671875 C98.94508789 399.08279297 99.51517578 398.29839844 100.10253906 397.49023438 C109.13994479 384.98621908 117.45420903 372.10331313 125.375 358.8671875 C126.0880127 357.67875244 126.0880127 357.67875244 126.81542969 356.46630859 C137.87700379 337.93875253 148.19695121 318.85598508 156.375 298.8671875 C156.82069336 297.77954102 156.82069336 297.77954102 157.27539062 296.66992188 C165.44296271 276.402243 170.24465886 255.21213717 174.625 233.8671875 C174.79176239 233.05560181 174.95852478 232.24401611 175.13034058 231.40783691 C176.92048692 222.64447316 178.59482046 213.86631714 180.0859375 205.046875 C180.2114801 204.31090088 180.33702271 203.57492676 180.46636963 202.81665039 C182.90855367 188.01860176 180.62676347 175.33256044 172.03515625 162.93359375 C166.28445683 155.52618314 158.54415164 152.16038577 149.375 150.8671875 C144.93254049 150.58295803 140.50513856 150.4955201 136.05566406 150.49658203 C134.01021925 150.49220935 131.9669401 150.45578576 129.921875 150.41796875 C120.32586541 150.33546054 111.33002041 151.32434456 103.6875 157.6171875 C98.53610487 163.48203876 95.55693108 170.82435566 92.375 177.8671875 C91.83327148 179.06375977 91.29154297 180.26033203 90.73339844 181.49316406 C88.86683151 185.63076513 87.02484978 189.77904685 85.1875 193.9296875 C84.7375618 194.94009598 84.7375618 194.94009598 84.27853394 195.97091675 C80.54704768 204.37585625 77.31778595 212.78340339 74.49047852 221.53344727 C73.07225834 225.77196696 71.38646063 229.78677952 69.4375 233.8046875 C69.06254395 234.58352295 68.68758789 235.3623584 68.30126953 236.16479492 C56.29346651 260.54593894 40.7874964 282.80073844 24.5859375 304.53515625 C21.72612449 308.37554897 18.94617502 312.26635969 16.1875 316.1796875 C11.15866414 323.27056075 5.85463393 330.11964941 0.375 336.8671875 C-0.07004883 337.41810059 -0.51509766 337.96901367 -0.97363281 338.53662109 C-24.21682091 367.09759443 -52.4141921 390.93662677 -87.5 403.1171875 C-88.15790527 403.35147461 -88.81581055 403.58576172 -89.49365234 403.82714844 C-102.70836827 408.19135455 -116.23270218 409.36933447 -130.05639648 409.25830078 C-132.45418086 409.24207462 -134.85030972 409.25833923 -137.24804688 409.27734375 C-152.04119498 409.29864623 -166.08352031 407.16642922 -177.375 396.6796875 C-188.2503185 384.69094353 -196.99403094 365.35296954 -196.625 348.8671875 C-186.73003399 343.14041345 -176.81438991 337.47070939 -166.72949219 332.08374023 C-149.35138122 322.80088991 -132.04444848 313.20677225 -116.625 300.8671875 C-113.73520656 298.58861345 -110.83730413 296.32050287 -107.9375 294.0546875 C-106.78556152 293.15278687 -106.78556152 293.15278687 -105.61035156 292.23266602 C-99.85119334 287.75084721 -93.9543548 283.51330605 -87.96582031 279.34545898 C-76.50697672 271.33786551 -65.43549019 262.72795965 -54.625 253.8671875 C-53.66980469 253.09761719 -52.71460938 252.32804687 -51.73046875 251.53515625 C-37.97699315 240.30659816 -24.91411916 228.10118038 -15.625 212.8671875 C-14.72153189 211.43348174 -13.81787303 209.99989617 -12.9140625 208.56640625 C5.04763399 179.69244803 19.77930928 148.53822972 29.375 115.8671875 C29.73335938 114.65933594 30.09171875 113.45148438 30.4609375 112.20703125 C37.38497102 85.05084475 30.04407162 52.57340914 16.40722656 28.59667969 C13.718141 24.09112573 10.67532594 19.93910241 7.375 15.8671875 C6.74980469 15.07828125 6.12460937 14.289375 5.48046875 13.4765625 C-5.75284964 0.02403457 -22.23386321 -8.947004 -39.625 -11.1328125 C-65.82715306 -13.23367336 -91.43992027 -7.83798674 -116.625 -1.1328125 Z " fill="#000000" transform="translate(459.625,53.1328125)"/>
<path d="M0 0 C6.02559021 5.28310042 8.88074775 11.67127688 9.875 19.5625 C11.78974083 51.51473761 -14.88051836 79.74189092 -34.35424805 102.20605469 C-37.32113803 105.4401012 -40.60139831 108.23183033 -44 111 C-44.87785156 111.71542969 -45.75570312 112.43085938 -46.66015625 113.16796875 C-112.19004894 165 -112.19004894 165 -137 165 C-135.82805005 157.03301087 -134.18740583 149.39877176 -131.875 141.6875 C-131.41540894 140.14171265 -131.41540894 140.14171265 -130.9465332 138.56469727 C-120.06353648 102.45581075 -105.75710949 65.99700816 -81 37 C-80.30390625 36.18144531 -79.6078125 35.36289063 -78.890625 34.51953125 C-62.08286198 15.29788737 -27.74012903 -12.76045935 0 0 Z M-77 41 C-84.74919878 50.25757603 -91.0703565 60.51361244 -97 71 C-97.53657227 71.9295752 -97.53657227 71.9295752 -98.08398438 72.87792969 C-108.2896996 90.66006007 -115.4826583 109.98834837 -122 129.375 C-122.36158203 130.44862793 -122.72316406 131.52225586 -123.09570312 132.62841797 C-125.50772477 139.99835698 -127.37142173 147.42001686 -129 155 C-122.73637407 153.03451342 -117.17716964 150.16073804 -111.375 147.125 C-110.26777588 146.54637207 -109.16055176 145.96774414 -108.01977539 145.37158203 C-63.31389774 121.78064911 -16.69206572 88.37262728 1.4375 38.875 C4.38022627 29.10094488 5.30415896 19.47267771 1 10 C-1.2137317 6.35502096 -1.2137317 6.35502096 -4.796875 4.3984375 C-33.43907753 -0.7815353 -59.34017502 21.19944035 -77 41 Z " fill="#000000" transform="translate(372,146)"/>
<path d="M0 0 C5.88220048 3.50190325 10.57472749 8.96233861 12.625 15.5 C13.46137039 23.0954102 13.50029273 30.30742762 8.625 36.5 C3.91601925 41.45475219 -0.4524655 45.06806918 -7.42578125 45.8359375 C-15.63922584 45.93430211 -21.27724282 45.39449541 -27.34375 39.62890625 C-33.48257453 32.97431982 -34.86275483 27.74380727 -34.6796875 18.72265625 C-33.95198414 11.02579378 -30.20041501 6.84180607 -24.47265625 1.9453125 C-17.57992067 -2.80387217 -7.66644301 -3.3906382 0 0 Z " fill="#000000" transform="translate(72.375,455.5)"/>
<path d="M0 0 C2.64590014 -0.02684679 5.29153096 -0.04676357 7.9375 -0.0625 C8.69224609 -0.07087891 9.44699219 -0.07925781 10.22460938 -0.08789062 C12.14994313 -0.09652441 14.07535581 -0.05224333 16 0 C17 1 17 1 17.09765625 4.37890625 C17.09098369 5.77347077 17.07902532 7.16801743 17.0625 8.5625 C17.05798828 9.27341797 17.05347656 9.98433594 17.04882812 10.71679688 C17.03700864 12.47790013 17.01907263 14.23896036 17 16 C15.02 16.495 15.02 16.495 13 17 C12.67 14.03 12.34 11.06 12 8 C11.18917969 8.76183594 10.37835937 9.52367187 9.54296875 10.30859375 C2.57178682 16.82464905 -4.51627927 23.07183086 -12 29 C-13.24616029 30.01163679 -14.49224899 31.02336177 -15.73828125 32.03515625 C-34.51913483 47.12043678 -54.86523002 60.45576051 -76 72 C-76.81033691 72.44891602 -77.62067383 72.89783203 -78.45556641 73.36035156 C-142.19817885 108.531232 -220.80803941 124.93462792 -292.02246094 104.91064453 C-299.88141771 102.50707707 -307.59777889 99.57237628 -315 96 C-315.33 95.34 -315.66 94.68 -316 94 C-315.505 93.01 -315.505 93.01 -315 92 C-311.04527547 92.59634735 -307.57325244 93.87304286 -303.87451172 95.32324219 C-241.27645711 119.75489089 -167.75509588 108.55529893 -107.6171875 82.24609375 C-64.58498201 62.97470593 -26.93336139 36.42154199 8 5 C5.69 4.67 3.38 4.34 1 4 C0.67 2.68 0.34 1.36 0 0 Z " fill="#000000" transform="translate(544,492)"/>
<path d="M0 0 C0.94939453 0.84498047 0.94939453 0.84498047 1.91796875 1.70703125 C22.11554001 20.74536001 29.26560726 50.28228794 30.28515625 77.05078125 C30.60557566 91.8713399 30.73356038 108.79931885 26 123 C24.68 122.67 23.36 122.34 22 122 C22.09087891 121.38406982 22.18175781 120.76813965 22.27539062 120.13354492 C27.31288031 85.0422626 28.48581664 45.34400421 7 15 C-7.85464561 -3.99493427 -27.0834763 -13.8304887 -50.6328125 -17.578125 C-92.92753 -22.42827288 -136.13112643 -9.78535009 -175 6 C-172.68143083 7.54571278 -170.49361571 8.79618552 -168 10 C-168.33 11.32 -168.66 12.64 -169 14 C-174.23272633 12.36041242 -179.15196636 10.61047965 -184 8 C-183.49228528 2.03435204 -181.61407872 -2.63809899 -179 -8 C-177.68 -7.67 -176.36 -7.34 -175 -7 C-175.99 -4.03 -176.98 -1.06 -178 2 C-177.32348389 1.73896484 -176.64696777 1.47792969 -175.94995117 1.20898438 C-151.1607809 -8.30112983 -126.21476721 -16.40910145 -100 -21 C-99.2570166 -21.13132324 -98.5140332 -21.26264648 -97.74853516 -21.39794922 C-63.98934542 -27.06822066 -26.31067279 -23.71327547 0 0 Z " fill="#000000" transform="translate(488,38)"/>
<path d="M0 0 C1.64671412 0.30782496 3.29235576 0.62139234 4.9375 0.9375 C5.85402344 1.11152344 6.77054688 1.28554688 7.71484375 1.46484375 C10 2 10 2 11 3 C10.62206515 6.90532683 10.23947487 10.2815754 9 14 C8.01 14 7.02 14 6 14 C6.33 12.02 6.66 10.04 7 8 C3.4185062 9.98412122 -0.16222003 11.96962079 -3.74243164 13.95605469 C-5.61616809 14.99510242 -7.49068442 16.0327333 -9.36523438 17.0703125 C-17.12566098 21.36974541 -17.12566098 21.36974541 -24.8046875 25.8125 C-25.44970215 26.19277344 -26.0947168 26.57304688 -26.75927734 26.96484375 C-28.37595177 27.92623219 -29.98518132 28.90010989 -31.59375 29.875 C-34 31 -34 31 -37 30 C-33.99300973 26.70628622 -30.9639968 24.66555823 -27.0546875 22.5390625 C-26.48477081 22.22601166 -25.91485413 21.91296082 -25.32766724 21.59042358 C-23.51359761 20.59540752 -21.69463754 19.60979055 -19.875 18.625 C-17.4957525 17.32851611 -15.11862609 16.02818681 -12.7421875 14.7265625 C-11.03434082 13.79118652 -11.03434082 13.79118652 -9.29199219 12.83691406 C-4.79704321 10.32875654 -0.3852123 7.69461911 4 5 C2.68 4.34 1.36 3.68 0 3 C0 2.01 0 1.02 0 0 Z " fill="#000000" transform="translate(121,518)"/>
<path d="M0 0 C1.4540625 0.0309375 1.4540625 0.0309375 2.9375 0.0625 C5.0625 4.6875 5.0625 4.6875 3.9375 8.0625 C4.26300502 9.73071323 4.59596063 11.39749557 4.9375 13.0625 C4.6075 13.7225 4.2775 14.3825 3.9375 15.0625 C1.125 15.9375 1.125 15.9375 -2.0625 16.0625 C-4.4375 14.125 -4.4375 14.125 -6.0625 12.0625 C-2.43923261 10.8547442 -1.42103631 11.51938872 1.9375 13.0625 C1.9375 11.7425 1.9375 10.4225 1.9375 9.0625 C0.6175 9.0625 -0.7025 9.0625 -2.0625 9.0625 C-2.0625 8.0725 -2.0625 7.0825 -2.0625 6.0625 C-0.7425 6.0625 0.5775 6.0625 1.9375 6.0625 C1.6075 5.0725 1.2775 4.0825 0.9375 3.0625 C-1.0425 3.7225 -3.0225 4.3825 -5.0625 5.0625 C-3.9375 0.08035714 -3.9375 0.08035714 0 0 Z " fill="#000000" transform="translate(422.0625,600.9375)"/>
<path d="M0 0 C3.0625 0.1875 3.0625 0.1875 5.0625 2.1875 C4.90004442 5.92397845 4.47466356 7.71288742 2 10.5625 C1.360625 11.09875 0.72125 11.635 0.0625 12.1875 C1.7125 12.5175 3.3625 12.8475 5.0625 13.1875 C5.0625 13.8475 5.0625 14.5075 5.0625 15.1875 C1.7625 15.1875 -1.5375 15.1875 -4.9375 15.1875 C-2.9375 11.1875 -2.9375 11.1875 -0.8125 8.625 C1.36735538 6.30372611 1.36735538 6.30372611 1.0625 3.1875 C0.4025 3.1875 -0.2575 3.1875 -0.9375 3.1875 C-1.2675 3.8475 -1.5975 4.5075 -1.9375 5.1875 C-2.9275 5.1875 -3.9175 5.1875 -4.9375 5.1875 C-3.82120474 0.24390669 -3.82120474 0.24390669 0 0 Z " fill="#000000" transform="translate(501.9375,3.8125)"/>
<path d="M0 0 C0.66 0 1.32 0 2 0 C2.66 1.65 3.32 3.3 4 5 C5.11375 4.34 6.2275 3.68 7.375 3 C10.75 1 10.75 1 13 1 C12.9375 2.75 12.9375 2.75 12 5 C9.76067964 6.52956035 7.39572437 7.71657623 5 9 C4.67 9.66 4.34 10.32 4 11 C3.01 11 2.02 11 1 11 C0.63890458 9.35567294 0.28629924 7.7094792 -0.0625 6.0625 C-0.25972656 5.14597656 -0.45695313 4.22945313 -0.66015625 3.28515625 C-0.77230469 2.53105469 -0.88445312 1.77695312 -1 1 C-0.67 0.67 -0.34 0.34 0 0 Z " fill="#000000" transform="translate(185,386)"/>
<path d="M0 0 C0 4.95 0 9.9 0 15 C-0.99 15 -1.98 15 -3 15 C-3 11.37 -3 7.74 -3 4 C-3.99 4.33 -4.98 4.66 -6 5 C-5.625 3.0625 -5.625 3.0625 -5 1 C-3 0 -3 0 0 0 Z " fill="#000000" transform="translate(409,601)"/>
<path d="M0 0 C0 4.95 0 9.9 0 15 C-0.99 15 -1.98 15 -3 15 C-3 11.37 -3 7.74 -3 4 C-3.99 4.33 -4.98 4.66 -6 5 C-5.625 3.0625 -5.625 3.0625 -5 1 C-3 0 -3 0 0 0 Z " fill="#000000" transform="translate(111,541)"/>
<path d="M0 0 C0 4.95 0 9.9 0 15 C-0.99 15 -1.98 15 -3 15 C-3 11.37 -3 7.74 -3 4 C-3.99 4.33 -4.98 4.66 -6 5 C-5.625 3.0625 -5.625 3.0625 -5 1 C-3 0 -3 0 0 0 Z " fill="#000000" transform="translate(489,4)"/>
<path d="M0 0 C0 4.95 0 9.9 0 15 C-0.66 15 -1.32 15 -2 15 C-2.33 11.37 -2.66 7.74 -3 4 C-3.99 4.33 -4.98 4.66 -6 5 C-6 4.01 -6 3.02 -6 2 C-3 0 -3 0 0 0 Z " fill="#000000" transform="translate(123,541)"/>
<path d="M0 0 C0.66 0.33 1.32 0.66 2 1 C0.51218185 4.78717347 -1.61988409 6.77407001 -5 9 C-5.99 8.67 -6.98 8.34 -8 8 C-6.88333826 4.65001479 -6.25305075 4.20659778 -3.4375 2.3125 C-2.79683594 1.87550781 -2.15617187 1.43851562 -1.49609375 0.98828125 C-1.00238281 0.66214844 -0.50867188 0.33601563 0 0 Z " fill="#000000" transform="translate(331,294)"/>
<path d="M0 0 C0.66 0.99 1.32 1.98 2 3 C0.73760288 3.86658615 -0.53527501 4.71792059 -1.8125 5.5625 C-2.87404297 6.27599609 -2.87404297 6.27599609 -3.95703125 7.00390625 C-6 8 -6 8 -9 7 C-9 6.34 -9 5.68 -9 5 C-6.03 3.35 -3.06 1.7 0 0 Z " fill="#000000" transform="translate(127,430)"/>
<path d="M0 0 C0.66 0.33 1.32 0.66 2 1 C0.64978174 5.41889613 -1.26115668 7.34345343 -5 10 C-5.68359375 8.203125 -5.68359375 8.203125 -6 6 C-4.78515625 4.296875 -4.78515625 4.296875 -3.0625 2.75 C-2.21365234 1.96882813 -2.21365234 1.96882813 -1.34765625 1.171875 C-0.90292969 0.78515625 -0.45820313 0.3984375 0 0 Z " fill="#000000" transform="translate(500,428)"/>
<path d="M0 0 C-3.12621626 3.39417765 -5.56541027 5.6062718 -10 7 C-10 5.68 -10 4.36 -10 3 C-3.375 -1.125 -3.375 -1.125 0 0 Z " fill="#000000" transform="translate(164,410)"/>
<path d="M0 0 C-3.12621626 3.39417765 -5.56541027 5.6062718 -10 7 C-10.33 6.01 -10.66 5.02 -11 4 C-9.73760288 3.13341385 -8.46472499 2.28207941 -7.1875 1.4375 C-6.47980469 0.96183594 -5.77210938 0.48617188 -5.04296875 -0.00390625 C-3 -1 -3 -1 0 0 Z " fill="#000000" transform="translate(233,366)"/>
<path d="M0 0 C0.99 0.33 1.98 0.66 3 1 C3 1.66 3 2.32 3 3 C1.35546875 4.32421875 1.35546875 4.32421875 -0.8125 5.6875 C-1.52019531 6.14511719 -2.22789062 6.60273438 -2.95703125 7.07421875 C-5 8 -5 8 -8 7 C-5.42215154 4.35247996 -3.08351902 2.05567935 0 0 Z " fill="#000000" transform="translate(264,342)"/>
<path d="M0 0 C0.66 0.99 1.32 1.98 2 3 C-2.455 5.97 -2.455 5.97 -7 9 C-7.66 8.01 -8.32 7.02 -9 6 C-6.03 4.02 -3.06 2.04 0 0 Z " fill="#000000" transform="translate(282,330)"/>
<path d="M0 0 C0.66 0.33 1.32 0.66 2 1 C1 4 1 4 -1.06640625 5.16796875 C-1.89011719 5.50441406 -2.71382813 5.84085937 -3.5625 6.1875 C-4.38878906 6.53167969 -5.21507812 6.87585938 -6.06640625 7.23046875 C-6.70449219 7.48441406 -7.34257812 7.73835938 -8 8 C-8.33 7.01 -8.66 6.02 -9 5 C-7.54735962 4.1361871 -6.0876837 3.28419546 -4.625 2.4375 C-3.40683594 1.72400391 -3.40683594 1.72400391 -2.1640625 0.99609375 C-1.44992187 0.66738281 -0.73578125 0.33867188 0 0 Z " fill="#000000" transform="translate(304,113)"/>
<path d="M0 0 C0.515625 0.2475 1.03125 0.495 1.5625 0.75 C-0.80694013 3.36885488 -3.27483102 5.16866551 -6.4375 6.75 C-7.4275 6.42 -8.4175 6.09 -9.4375 5.75 C-9.4375 5.09 -9.4375 4.43 -9.4375 3.75 C-3.0375 -0.31153846 -3.0375 -0.31153846 0 0 Z " fill="#000000" transform="translate(92.4375,452.25)"/>
<path d="M0 0 C0.99 0.99 1.98 1.98 3 3 C1.8803014 4.00593243 0.7540588 5.0045849 -0.375 6 C-1.00148438 6.556875 -1.62796875 7.11375 -2.2734375 7.6875 C-4 9 -4 9 -6 9 C-5.52797514 4.75177626 -3.03344482 2.80010291 0 0 Z " fill="#000000" transform="translate(486,442)"/>
<path d="M0 0 C0.66 0.33 1.32 0.66 2 1 C0.52440331 5.42679007 -1.90057368 5.91432696 -6 8 C-6.66 8 -7.32 8 -8 8 C-7.9375 6.25 -7.9375 6.25 -7 4 C-4.74876994 2.27481113 -2.59865097 1.23093993 0 0 Z " fill="#000000" transform="translate(109,441)"/>
<path d="M0 0 C0 0.99 0 1.98 0 3 C-2.97 4.65 -5.94 6.3 -9 8 C-9 6.68 -9 5.36 -9 4 C-4 0 -4 0 0 0 Z " fill="#000000" transform="translate(146,420)"/>
<path d="M0 0 C0.99 0.33 1.98 0.66 3 1 C3 1.66 3 2.32 3 3 C1.3203125 4.2890625 1.3203125 4.2890625 -0.875 5.625 C-1.95394531 6.29402344 -1.95394531 6.29402344 -3.0546875 6.9765625 C-5 8 -5 8 -7 8 C-6.875 6.25 -6.875 6.25 -6 4 C-3.125 1.6875 -3.125 1.6875 0 0 Z " fill="#000000" transform="translate(178,398)"/>
<path d="M0 0 C-0.125 1.75 -0.125 1.75 -1 4 C-3.875 6.3125 -3.875 6.3125 -7 8 C-7.99 7.67 -8.98 7.34 -10 7 C-10 6.34 -10 5.68 -10 5 C-8.3203125 3.7109375 -8.3203125 3.7109375 -6.125 2.375 C-5.40570313 1.92898438 -4.68640625 1.48296875 -3.9453125 1.0234375 C-2 0 -2 0 0 0 Z " fill="#000000" transform="translate(215,376)"/>
<path d="M0 0 C0.66 0.99 1.32 1.98 2 3 C0.92892883 3.86949317 -0.15745944 4.72014205 -1.25 5.5625 C-1.85328125 6.03816406 -2.4565625 6.51382812 -3.078125 7.00390625 C-5 8 -5 8 -7.234375 7.65234375 C-7.81703125 7.43707031 -8.3996875 7.22179687 -9 7 C-6.24479785 4.04070881 -3.53372712 1.96318174 0 0 Z " fill="#000000" transform="translate(248,353)"/>
<path d="M0 0 C0 0.99 0 1.98 0 3 C-1.42578125 4.421875 -1.42578125 4.421875 -3.3125 5.75 C-3.92738281 6.19859375 -4.54226563 6.6471875 -5.17578125 7.109375 C-7 8 -7 8 -10 7 C-10 6.34 -10 5.68 -10 5 C-8.57421875 3.7109375 -8.57421875 3.7109375 -6.6875 2.375 C-6.07261719 1.92898438 -5.45773437 1.48296875 -4.82421875 1.0234375 C-3 0 -3 0 0 0 Z " fill="#000000" transform="translate(300,319)"/>
<path d="M0 0 C0.66 0.33 1.32 0.66 2 1 C0.51218185 4.78717347 -1.61988409 6.77407001 -5 9 C-5.99 8.67 -6.98 8.34 -8 8 C-5.33333333 5.33333333 -2.66666667 2.66666667 0 0 Z " fill="#000000" transform="translate(363,268)"/>
<path d="M0 0 C0.99 0 1.98 0 3 0 C2.125 7.625 2.125 7.625 1 11 C0.01 10.67 -0.98 10.34 -2 10 C-1.34 6.7 -0.68 3.4 0 0 Z " fill="#000000" transform="translate(595,238)"/>
<path d="M0 0 C0.99 0 1.98 0 3 0 C2.38545304 3.99455527 0.29353263 6.74466336 -2 10 C-2.99 9.67 -3.98 9.34 -5 9 C-3.35 6.03 -1.7 3.06 0 0 Z " fill="#000000" transform="translate(418,212)"/>
<path d="M0 0 C0 0.99 0 1.98 0 3 C-4.95 4.485 -4.95 4.485 -10 6 C-10.33 5.01 -10.66 4.02 -11 3 C-9.73160474 2.49384702 -8.46016898 1.99530901 -7.1875 1.5 C-6.12595703 1.08234375 -6.12595703 1.08234375 -5.04296875 0.65625 C-3 0 -3 0 0 0 Z " fill="#000000" transform="translate(390,505)"/>
<path d="M0 0 C3.13506611 0.33589994 4.025249 1.02665172 6.25 3.375 C8 6 8 6 8 9 C6.25 8.875 6.25 8.875 4 8 C0 2.77777778 0 2.77777778 0 0 Z " fill="#000000" transform="translate(220,476)"/>
<path d="M0 0 C0.99 0.33 1.98 0.66 3 1 C0.19195732 3.96404505 -2.18315774 6.44499019 -6 8 C-6 6.68 -6 5.36 -6 4 C-3.1875 1.6875 -3.1875 1.6875 0 0 Z " fill="#000000" transform="translate(456,468)"/>
<path d="M0 0 C2.61724095 2.36797991 4.32861729 4.89600354 6 8 C6 8.66 6 9.32 6 10 C4.140625 9.75390625 4.140625 9.75390625 2 9 C0.734375 7.15234375 0.734375 7.15234375 -0.25 4.9375 C-0.58515625 4.20402344 -0.9203125 3.47054688 -1.265625 2.71484375 C-1.50796875 2.14894531 -1.7503125 1.58304687 -2 1 C-1.34 0.67 -0.68 0.34 0 0 Z " fill="#000000" transform="translate(211,459)"/>
<path d="M0 0 C0.99 0 1.98 0 3 0 C3 3.63 3 7.26 3 11 C2.01 11 1.02 11 0 11 C0 7.37 0 3.74 0 0 Z " fill="#000000" transform="translate(178,328)"/>
<path d="M0 0 C-1.49835228 4.66154042 -4.88463591 5.86610751 -9 8 C-9 6.68 -9 5.36 -9 4 C-4 0 -4 0 0 0 Z " fill="#000000" transform="translate(317,307)"/>
<path d="M0 0 C0.99 0 1.98 0 3 0 C2.71758359 1.46015291 2.42373386 2.91809793 2.125 4.375 C1.96257812 5.18710937 1.80015625 5.99921875 1.6328125 6.8359375 C1 9 1 9 -1 11 C-1.66 10.67 -2.32 10.34 -3 10 C-2.01 6.7 -1.02 3.4 0 0 Z " fill="#000000" transform="translate(194,251)"/>
<path d="M0 0 C0.556875 0.268125 1.11375 0.53625 1.6875 0.8125 C-1.12054268 3.77654505 -3.49565774 6.25749019 -7.3125 7.8125 C-7.3125 4.8125 -7.3125 4.8125 -5.0625 2.0625 C-2.3125 -0.1875 -2.3125 -0.1875 0 0 Z " fill="#000000" transform="translate(393.3125,241.1875)"/>
<path d="M0 0 C0.99 0.33 1.98 0.66 3 1 C-1 8.71428571 -1 8.71428571 -5 10 C-4.49701212 5.59885603 -2.91227269 3.28804981 0 0 Z " fill="#000000" transform="translate(232,181)"/>
<path d="M0 0 C0.99 0.33 1.98 0.66 3 1 C1.47291037 4.43595166 -0.59927045 7.11912454 -3 10 C-3.99 9.67 -4.98 9.34 -6 9 C-4 6 -2 3 0 0 Z " fill="#000000" transform="translate(244,165)"/>
<path d="M0 0 C0.99 0 1.98 0 3 0 C2.67 3.63 2.34 7.26 2 11 C1.01 11 0.02 11 -1 11 C-0.67 7.37 -0.34 3.74 0 0 Z " fill="#000000" transform="translate(438,157)"/>
<path d="M0 0 C0.99 0 1.98 0 3 0 C3 3.63 3 7.26 3 11 C2.01 11 1.02 11 0 11 C0 7.37 0 3.74 0 0 Z " fill="#000000" transform="translate(439,137)"/>
<path d="M0 0 C0.99 0.33 1.98 0.66 3 1 C3 1.66 3 2.32 3 3 C1.57421875 4.32421875 1.57421875 4.32421875 -0.3125 5.6875 C-0.92738281 6.14511719 -1.54226563 6.60273438 -2.17578125 7.07421875 C-2.77777344 7.37972656 -3.37976563 7.68523437 -4 8 C-4.99 7.67 -5.98 7.34 -7 7 C-4.66666667 4.66666667 -2.33333333 2.33333333 0 0 Z " fill="#000000" transform="translate(286,124)"/>
<path d="M0 0 C0.99 0.33 1.98 0.66 3 1 C3.73046875 3.06640625 3.73046875 3.06640625 4.1875 5.5625 C4.34605469 6.38878906 4.50460937 7.21507813 4.66796875 8.06640625 C4.77753906 8.70449219 4.88710938 9.34257813 5 10 C4.01 10.33 3.02 10.66 2 11 C1.01 7.7 0.02 4.4 -1 1 C-0.67 0.67 -0.34 0.34 0 0 Z " fill="#000000" transform="translate(435,118)"/>
<path d="M0 0 C-2.1290142 2.34191563 -4.04408729 3.83554954 -7 5 C-8.32 5 -9.64 5 -11 5 C-10 2 -10 2 -7.1875 0.25 C-4.03596914 -0.98589446 -3.03070628 -1.28222189 0 0 Z " fill="#000000" transform="translate(324,106)"/>
<path d="M0 0 C1.15224028 0.92961422 2.29659176 1.8690125 3.4375 2.8125 C4.07558594 3.33457031 4.71367187 3.85664062 5.37109375 4.39453125 C7 6 7 6 8 9 C7.01 9.33 6.02 9.66 5 10 C3.96704564 8.90716423 2.94892165 7.80029421 1.9375 6.6875 C1.36902344 6.07261719 0.80054688 5.45773438 0.21484375 4.82421875 C-0.38650391 3.92123047 -0.38650391 3.92123047 -1 3 C-0.67 2.01 -0.34 1.02 0 0 Z " fill="#000000" transform="translate(425,101)"/>
<path d="M0 0 C0 0.66 0 1.32 0 2 C-6.5 5 -6.5 5 -11 5 C-10 2 -10 2 -6.625 0.25 C-3 -1 -3 -1 0 0 Z " fill="#000000" transform="translate(342,98)"/>
<path d="M0 0 C0 0.99 0 1.98 0 3 C-3.63 3.33 -7.26 3.66 -11 4 C-11 3.01 -11 2.02 -11 1 C-7.26562152 0.12132271 -3.83225427 -0.08912219 0 0 Z " fill="#000000" transform="translate(380,88)"/>
<path d="M0 0 C0 0.99 0 1.98 0 3 C-3.63 3.33 -7.26 3.66 -11 4 C-11 3.01 -11 2.02 -11 1 C-7.27569643 0.30710631 -3.78916254 -0.11144596 0 0 Z " fill="#000000" transform="translate(333,519)"/>
<path d="M0 0 C3.3 0.99 6.6 1.98 10 3 C10 3.99 10 4.98 10 6 C6.28111761 5.49287967 3.26545761 4.88391785 0 3 C0 2.01 0 1.02 0 0 Z " fill="#000000" transform="translate(265,512)"/>
<path d="M0 0 C-1 3 -1 3 -3.875 4.6875 C-7 6 -7 6 -10 6 C-10 5.01 -10 4.02 -10 3 C-6.27034861 0.96564469 -4.33094958 0 0 0 Z " fill="#000000" transform="translate(408,498)"/>
<path d="M0 0 C1.17539996 0.92652701 2.34010577 1.86663387 3.5 2.8125 C4.1496875 3.33457031 4.799375 3.85664063 5.46875 4.39453125 C7 6 7 6 7 9 C3.18315774 7.44499019 0.80804268 4.96404505 -2 2 C-1.34 1.34 -0.68 0.68 0 0 Z " fill="#000000" transform="translate(234,490)"/>
<path d="M0 0 C-3.01887244 3.48331435 -5.56909529 4.79157144 -10 6 C-10.33 5.01 -10.66 4.02 -11 3 C-9.73581754 2.30034557 -8.46334598 1.61565237 -7.1875 0.9375 C-6.47980469 0.55464844 -5.77210938 0.17179687 -5.04296875 -0.22265625 C-3 -1 -3 -1 0 0 Z " fill="#000000" transform="translate(426,490)"/>
<path d="M0 0 C-2.25740623 2.33524782 -4.2805761 4.18705073 -7 6 C-7.99 6 -8.98 6 -10 6 C-10 5.01 -10 4.02 -10 3 C-3.375 -1.125 -3.375 -1.125 0 0 Z " fill="#000000" transform="translate(443,480)"/>
<path d="M0 0 C0.99 0 1.98 0 3 0 C5.03435531 3.72965139 6 5.66905042 6 10 C3 9 3 9 1.3125 6.125 C0 3 0 3 0 0 Z " fill="#000000" transform="translate(201,442)"/>
<path d="M0 0 C0.99 0.33 1.98 0.66 3 1 C3.73046875 3.06640625 3.73046875 3.06640625 4.1875 5.5625 C4.34605469 6.38878906 4.50460938 7.21507812 4.66796875 8.06640625 C4.77753906 8.70449219 4.88710937 9.34257812 5 10 C4.01 10.33 3.02 10.66 2 11 C0.57741188 7.17679443 -0.24042276 4.08718695 0 0 Z " fill="#000000" transform="translate(189,405)"/>
<path d="M0 0 C0.66 0.33 1.32 0.66 2 1 C0.7508258 4.45925163 -0.67527795 7.14693203 -3 10 C-3.99 9.67 -4.98 9.34 -6 9 C-4.47291037 5.56404834 -2.40072955 2.88087546 0 0 Z " fill="#000000" transform="translate(525,398)"/>
<path d="M0 0 C0.99 0 1.98 0 3 0 C4.28317892 3.84953676 4.06643637 6.94738135 4 11 C3.01 10.67 2.02 10.34 1 10 C0.67 6.7 0.34 3.4 0 0 Z " fill="#000000" transform="translate(181,367)"/>
<path d="M0 0 C0.99 0 1.98 0 3 0 C2.39009109 3.55780196 1.4216319 6.6828589 0 10 C-0.99 10 -1.98 10 -3 10 C-2.39009109 6.44219804 -1.4216319 3.3171411 0 0 Z " fill="#000000" transform="translate(571,313)"/>
<path d="M0 0 C0.99 0 1.98 0 3 0 C2.67 3.3 2.34 6.6 2 10 C1.01 10.33 0.02 10.66 -1 11 C-1.14285714 3.57142857 -1.14285714 3.57142857 0 0 Z " fill="#000000" transform="translate(183,289)"/>
<path d="M0 0 C0 0.99 0 1.98 0 3 C-1.4609375 4.38671875 -1.4609375 4.38671875 -3.375 5.6875 C-4.00148438 6.12449219 -4.62796875 6.56148438 -5.2734375 7.01171875 C-7 8 -7 8 -9 8 C-8.66410006 4.86493389 -7.97334828 3.974751 -5.625 1.75 C-3 0 -3 0 0 0 Z " fill="#000000" transform="translate(349,282)"/>
<path d="M0 0 C-1.24762828 3.84685385 -2.3870391 6.02929405 -6 8 C-6.99 7.67 -7.98 7.34 -9 7 C-8.07347299 5.82460004 -7.13336613 4.65989423 -6.1875 3.5 C-5.66542969 2.8503125 -5.14335937 2.200625 -4.60546875 1.53125 C-3 0 -3 0 0 0 Z " fill="#000000" transform="translate(409,228)"/>
<path d="M0 0 C0.99 0 1.98 0 3 0 C2.53199289 4.05606165 2.12046792 7.46588679 0 11 C-0.66 11 -1.32 11 -2 11 C-1 3.57142857 -1 3.57142857 0 0 Z " fill="#000000" transform="translate(434,176)"/>
<path d="M0 0 C3.3 0.66 6.6 1.32 10 2 C9.67 2.99 9.34 3.98 9 5 C5.7 4.34 2.4 3.68 -1 3 C-0.67 2.01 -0.34 1.02 0 0 Z " fill="#000000" transform="translate(284,518)"/>
<path d="M0 0 C3.59391114 1.33488128 6.75490696 2.96022723 10 5 C9.67 5.66 9.34 6.32 9 7 C5.51375944 6.3543999 2.87501211 5.07639763 0 3 C0 2.01 0 1.02 0 0 Z " fill="#000000" transform="translate(248,503)"/>
<path d="M0 0 C-1.49041773 3.79379058 -3.69062512 5.68343758 -7 8 C-7.66 8 -8.32 8 -9 8 C-8.66410006 4.86493389 -7.97334828 3.974751 -5.625 1.75 C-3 0 -3 0 0 0 Z " fill="#000000" transform="translate(474,456)"/>
<path d="M0 0 C0.99 0 1.98 0 3 0 C2.82374165 2.37948772 2.30280227 3.70225849 0.59765625 5.37890625 C-0.90649092 6.62115486 -2.45129851 7.81376056 -4 9 C-4 4.32165993 -3.1782099 3.2690159 0 0 Z " fill="#000000" transform="translate(512,414)"/>
<path d="M0 0 C0.66 0.33 1.32 0.66 2 1 C0.7580393 4.43927579 -0.55740284 7.25207819 -3 10 C-3.66 10 -4.32 10 -5 10 C-4.49701212 5.59885603 -2.91227269 3.28804981 0 0 Z " fill="#000000" transform="translate(536,382)"/>
<path d="M0 0 C0.66 0.33 1.32 0.66 2 1 C1.3543999 4.48624056 0.07639763 7.12498789 -2 10 C-2.99 10 -3.98 10 -5 10 C-3.66511872 6.40608886 -2.03977277 3.24509304 0 0 Z " fill="#000000" transform="translate(546,365)"/>
<path d="M0 0 C0.66 0.33 1.32 0.66 2 1 C1.39009109 4.55780196 0.4216319 7.6828589 -1 11 C-1.99 10.67 -2.98 10.34 -4 10 C-3.52449439 8.51965236 -3.04448784 7.04074979 -2.5625 5.5625 C-2.29566406 4.73878906 -2.02882813 3.91507812 -1.75390625 3.06640625 C-1 1 -1 1 0 0 Z " fill="#000000" transform="translate(579,294)"/>
<path d="M0 0 C0.99 0 1.98 0 3 0 C2.34 3.3 1.68 6.6 1 10 C0.01 10 -0.98 10 -2 10 C-1.34 6.7 -0.68 3.4 0 0 Z " fill="#000000" transform="translate(590,257)"/>
<path d="M0 0 C-1.5830577 4.2742558 -4.50568404 6.26531794 -8 9 C-8 5 -8 5 -5.6875 2.25 C-3 0 -3 0 0 0 Z " fill="#000000" transform="translate(380,255)"/>
<path d="M0 0 C0.99 0 1.98 0 3 0 C1.8905928 3.48670834 0.73662334 6.77484237 -1 10 C-1.99 9.67 -2.98 9.34 -4 9 C-2.68 6.03 -1.36 3.06 0 0 Z " fill="#000000" transform="translate(202,233)"/>
<path d="M0 0 C0.66 0 1.32 0 2 0 C1.43454163 3.95820859 0.19097652 6.6659053 -2 10 C-2.99 9.67 -3.98 9.34 -5 9 C-3.7580393 5.56072421 -2.44259716 2.74792181 0 0 Z " fill="#000000" transform="translate(221,198)"/>
<path d="M0 0 C0.99 0.33 1.98 0.66 3 1 C0.03 4.96 0.03 4.96 -3 9 C-3.99 8.67 -4.98 8.34 -6 8 C-4.55746343 4.63408134 -2.66735273 2.48952921 0 0 Z " fill="#000000" transform="translate(257,151)"/>
<path d="M0 0 C0.33 0.99 0.66 1.98 1 3 C-0.29009643 3.50403768 -1.58213789 4.00309926 -2.875 4.5 C-3.95394531 4.91765625 -3.95394531 4.91765625 -5.0546875 5.34375 C-7 6 -7 6 -9 6 C-8.67 4.68 -8.34 3.36 -8 2 C-5.36 1.34 -2.72 0.68 0 0 Z " fill="#000000" transform="translate(359,91)"/>
<path d="M0 0 C3.95820859 0.56545837 6.6659053 1.80902348 10 4 C9.67 4.99 9.34 5.98 9 7 C4.545 5.02 4.545 5.02 0 3 C0 2.01 0 1.02 0 0 Z " fill="#000000" transform="translate(408,91)"/>
<path d="M0 0 C0 0.99 0 1.98 0 3 C-3.50776784 4.60355101 -6.14354879 5.22036864 -10 5 C-9.67 4.01 -9.34 3.02 -9 2 C-3.21052632 0 -3.21052632 0 0 0 Z " fill="#000000" transform="translate(371,511)"/>
<path d="M0 0 C0.99 0 1.98 0 3 0 C3.99 3.3 4.98 6.6 6 10 C5.01 10 4.02 10 3 10 C2.01 6.7 1.02 3.4 0 0 Z " fill="#000000" transform="translate(194,424)"/>
<path d="M0 0 C0.99 0.33 1.98 0.66 3 1 C1.68 3.97 0.36 6.94 -1 10 C-1.99 10 -2.98 10 -4 10 C-3.29445932 6.33118845 -1.72264494 3.29549466 0 0 Z " fill="#000000" transform="translate(555,348)"/>
<path d="M0 0 C0.99 0.33 1.98 0.66 3 1 C2.01 3.97 1.02 6.94 0 10 C-0.99 10 -1.98 10 -3 10 C-2.69201674 8.51988629 -2.378482 7.04092675 -2.0625 5.5625 C-1.88847656 4.73878906 -1.71445312 3.91507812 -1.53515625 3.06640625 C-1 1 -1 1 0 0 Z " fill="#000000" transform="translate(585,276)"/>
<path d="M0 0 C0.99 0 1.98 0 3 0 C2.34 3.3 1.68 6.6 1 10 C0.01 10 -0.98 10 -2 10 C-1.125 2.25 -1.125 2.25 0 0 Z " fill="#000000" transform="translate(188,270)"/>
<path d="M0 0 C0.99 0.33 1.98 0.66 3 1 C2.07347299 2.17539996 1.13336613 3.34010577 0.1875 4.5 C-0.33457031 5.1496875 -0.85664063 5.799375 -1.39453125 6.46875 C-3 8 -3 8 -6 8 C-6 7.01 -6 6.02 -6 5 C-3.1875 2.25 -3.1875 2.25 0 0 Z " fill="#000000" transform="translate(271,137)"/>
<path d="M0 0 C0 0.99 0 1.98 0 3 C-3.3 3.33 -6.6 3.66 -10 4 C-9.67 3.01 -9.34 2.02 -9 1 C-5.846632 0.29925156 -3.27275026 0 0 0 Z " fill="#000000" transform="translate(352,516)"/>
<path d="M0 0 C0.99 0 1.98 0 3 0 C3.33 3.3 3.66 6.6 4 10 C3.01 10 2.02 10 1 10 C0.67 6.7 0.34 3.4 0 0 Z " fill="#000000" transform="translate(179,348)"/>
<path d="M0 0 C0.99 0 1.98 0 3 0 C2.67 3.3 2.34 6.6 2 10 C1.01 10 0.02 10 -1 10 C-0.67 6.7 -0.34 3.4 0 0 Z " fill="#000000" transform="translate(180,309)"/>
<path d="M0 0 C0.99 0.33 1.98 0.66 3 1 C0.525 5.455 0.525 5.455 -2 10 C-2.66 10 -3.32 10 -4 10 C-3.43454163 6.04179141 -2.19097652 3.3340947 0 0 Z " fill="#000000" transform="translate(211,215)"/>
<path d="M0 0 C0.99 0.66 1.98 1.32 3 2 C1.35 4.97 -0.3 7.94 -2 11 C-2.66 10.67 -3.32 10.34 -4 10 C-2.8905928 6.51329166 -1.73662334 3.22515763 0 0 Z " fill="#000000" transform="translate(428,194)"/>
<path d="M0 0 C0.99 0 1.98 0 3 0 C2.43454163 3.95820859 1.19097652 6.6659053 -1 10 C-1.66 9.67 -2.32 9.34 -3 9 C-2.01 6.03 -1.02 3.06 0 0 Z " fill="#000000" transform="translate(563,331)"/>
<path d="M0 0 C3.3 0 6.6 0 10 0 C10 0.99 10 1.98 10 3 C2.25 3.125 2.25 3.125 0 2 C0 1.34 0 0.68 0 0 Z " fill="#000000" transform="translate(389,88)"/>
<path d="M0 0 C3.3 0 6.6 0 10 0 C10 0.99 10 1.98 10 3 C6.7 3 3.4 3 0 3 C0 2.01 0 1.02 0 0 Z " fill="#000000" transform="translate(303,520)"/>
<path d="M0 0 C0.99 0 1.98 0 3 0 C3 1.65 3 3.3 3 5 C2.01 5.33 1.02 5.66 0 6 C0 4.02 0 2.04 0 0 Z " fill="#000000" transform="translate(598,224)"/>
<path d="M0 0 C0.99 0.33 1.98 0.66 3 1 C2.67 1.99 2.34 2.98 2 4 C1.01 3.01 0.02 2.02 -1 1 C-0.67 0.67 -0.34 0.34 0 0 Z " fill="#000000" transform="translate(412,613)"/>
<path d="M0 0 C0.99 0.33 1.98 0.66 3 1 C2.67 1.99 2.34 2.98 2 4 C1.01 3.01 0.02 2.02 -1 1 C-0.67 0.67 -0.34 0.34 0 0 Z " fill="#000000" transform="translate(114,553)"/>
<path d="M0 0 C0.99 0.33 1.98 0.66 3 1 C2.67 1.99 2.34 2.98 2 4 C1.01 3.01 0.02 2.02 -1 1 C-0.67 0.67 -0.34 0.34 0 0 Z " fill="#000000" transform="translate(492,16)"/>
</svg>
