<?xml version="1.0" encoding="UTF-8"?>
<svg version="1.1" xmlns="http://www.w3.org/2000/svg" width="520" height="545">
<path d="M0 0 C24.32506168 22.83343054 37.24196713 54.4082226 38.484375 87.33203125 C38.83521702 109.30030378 35.80627659 128.59371771 28.484375 149.33203125 C27.93470495 150.94524747 27.38520744 152.5585225 26.8359375 154.171875 C23.11680648 164.83653164 19.70807321 174.56295274 9.31640625 180.09375 C4.16950395 182.34418866 -1.09879168 183.8776309 -6.515625 185.33203125 C-7.95035156 185.78255859 -7.95035156 185.78255859 -9.4140625 186.2421875 C-23.12481765 190.28028662 -36.61330025 189.66813127 -49.515625 183.33203125 C-57.11888294 179.05120535 -67.60836187 173.05382065 -70.515625 164.33203125 C-69.4765625 161.9765625 -69.4765625 161.9765625 -67.890625 159.14453125 C-55.61039148 135.49794205 -54.36077095 107.59892546 -61.39453125 82.15234375 C-64.58487158 72.51457923 -69.52943281 64.4318593 -78.515625 59.33203125 C-94.83398865 52.15757827 -114.21883802 55.61392056 -130.515625 61.33203125 C-154.74209076 71.52574312 -170.06132289 94.26803244 -182.515625 116.33203125 C-182.86802246 116.94643066 -183.22041992 117.56083008 -183.58349609 118.19384766 C-205.30108299 156.32115987 -213.73950068 194.58960782 -213.765625 238.20703125 C-213.76629974 239.22203705 -213.76697449 240.23704285 -213.76766968 241.2828064 C-213.7200395 286.59691304 -208.78115642 341.49465325 -177.515625 377.33203125 C-176.75765625 378.30269531 -176.75765625 378.30269531 -175.984375 379.29296875 C-166.21294669 391.41145582 -151.65078733 399.38043516 -138.515625 407.33203125 C-137.79906738 407.76999023 -137.08250977 408.20794922 -136.34423828 408.65917969 C-108.99813702 425.25090693 -78.51714232 427.5123866 -47.75170898 420.06420898 C-21.79043377 413.34281419 0.61393942 397.60853713 21.484375 381.33203125 C22.81082031 380.31302734 22.81082031 380.31302734 24.1640625 379.2734375 C36.46833146 369.55484825 47.09834498 359.26182471 54.484375 345.33203125 C55.1134375 344.2028125 55.7425 343.07359375 56.390625 341.91015625 C64.52076555 326.8788263 70.16320204 310.4143376 74.98046875 294.0625 C75.18214157 293.3783905 75.38381439 292.69428101 75.59159851 291.98944092 C76.56689629 288.65958994 77.51905893 285.32494845 78.44116211 281.97998047 C78.9536853 280.1761792 78.9536853 280.1761792 79.4765625 278.3359375 C79.76901855 277.27189697 80.06147461 276.20785645 80.36279297 275.11157227 C82.53061546 269.73920416 86.32739321 267.58821079 91.484375 265.33203125 C100.25972923 262.78434776 108.27658717 264.66631351 116.484375 268.33203125 C120.01018522 270.44262043 123.26257761 272.78586208 126.484375 275.33203125 C127.31710937 275.95078125 128.14984375 276.56953125 129.0078125 277.20703125 C131.71427618 279.52929661 133.609345 281.92773368 135.671875 284.83203125 C136.34605469 285.77046875 137.02023437 286.70890625 137.71484375 287.67578125 C142.03322567 294.15812055 142.15623276 299.61687304 142.484375 307.33203125 C142.51837402 308.05438965 142.55237305 308.77674805 142.58740234 309.52099609 C144.11559145 345.92602887 123.97283772 378.17037429 106.78759766 408.99023438 C105.61721772 411.09332249 104.46082814 413.20334571 103.30859375 415.31640625 C91.29340599 437.13828146 75.14437516 455.99572704 55.26660156 470.98535156 C53.61818398 472.23092298 51.98418764 473.4955182 50.3515625 474.76171875 C33.75111478 487.20185771 14.93609772 497.17171604 -4.515625 504.33203125 C-5.35544922 504.64221191 -6.19527344 504.95239258 -7.06054688 505.27197266 C-65.37595895 526.46279619 -142.08105653 518.18541406 -197.95166016 492.51513672 C-200.14933 491.47283588 -202.33418247 490.4078572 -204.515625 489.33203125 C-205.28326172 488.9570752 -206.05089844 488.58211914 -206.84179688 488.19580078 C-229.84384609 476.85070625 -250.0338704 462.02719847 -268.515625 444.33203125 C-269.40121094 443.49929688 -270.28679687 442.6665625 -271.19921875 441.80859375 C-282.33652145 431.07091346 -290.70023179 418.59281739 -298.515625 405.33203125 C-299.17498047 404.22093994 -299.17498047 404.22093994 -299.84765625 403.08740234 C-314.87101226 377.52713202 -325.20214125 349.80049675 -331.390625 320.83203125 C-331.58188965 319.9385498 -331.7731543 319.04506836 -331.97021484 318.12451172 C-335.37742656 301.02037078 -335.88813539 284.03165838 -335.828125 266.64453125 C-335.82489227 264.9576973 -335.82489227 264.9576973 -335.82159424 263.23678589 C-335.76592899 245.09071983 -335.11227304 227.315713 -332.515625 209.33203125 C-332.4138092 208.6221405 -332.31199341 207.91224976 -332.20709229 207.18084717 C-328.02548819 178.22615741 -322.11131181 151.92850141 -309.515625 125.33203125 C-308.67097173 123.52160275 -307.82632233 121.71117243 -306.98190308 119.90063477 C-295.54648139 95.44442885 -283.14739298 70.98341304 -265.515625 50.33203125 C-264.47148437 49.10419922 -264.47148437 49.10419922 -263.40625 47.8515625 C-254.44033738 37.59799221 -244.16960188 29.01570278 -233.38671875 20.76611328 C-231.4954912 19.31659989 -229.61507173 17.85376457 -227.734375 16.390625 C-168.40662952 -29.36409358 -63.75441754 -55.36071464 0 0 Z M-261.515625 54.33203125 C-282.23924672 79.29947156 -296.38246719 109.91317664 -309.515625 139.33203125 C-309.86238281 140.09306152 -310.20914063 140.8540918 -310.56640625 141.63818359 C-320.00320527 162.45006689 -323.34364639 185.89129369 -326.515625 208.33203125 C-326.68223633 209.48832031 -326.84884766 210.64460937 -327.02050781 211.8359375 C-329.5118527 229.97169035 -329.82239486 248.05319313 -329.890625 266.33203125 C-329.89857086 267.44925568 -329.90651672 268.5664801 -329.91470337 269.71755981 C-330.02133366 289.22409322 -328.70128085 308.53033984 -323.953125 327.51953125 C-323.70119385 328.53740723 -323.4492627 329.5552832 -323.18969727 330.60400391 C-312.41644827 372.33490138 -291.61053385 418.2741689 -257.6796875 446.52734375 C-256.08085046 447.86066995 -254.51806858 449.23750554 -252.9765625 450.63671875 C-209.29988154 489.47323981 -153.57303654 504.46564268 -96.515625 509.33203125 C-95.26910156 509.44417969 -94.02257812 509.55632813 -92.73828125 509.671875 C-40.80880014 513.64968415 5.10427754 499.45153271 47.484375 469.33203125 C48.1040918 468.89165527 48.72380859 468.4512793 49.36230469 467.99755859 C78.62736987 446.85988466 95.3971763 418.39631246 111.6015625 386.8984375 C113.42199741 383.36289719 115.27545198 379.85047345 117.1796875 376.359375 C128.78060195 355.02901438 137.62275342 334.0592414 136.56542969 309.46337891 C136.49384152 307.58095514 136.48800597 305.69627987 136.4921875 303.8125 C136.25271329 293.4485884 130.92806777 287.45526125 123.671875 280.51953125 C116.3951551 274.242666 108.41583861 269.92409461 98.64453125 270.125 C94.99413435 270.47485721 91.4359082 271.08729536 88.484375 273.33203125 C85.72610907 278.54289776 84.2554184 284.20211209 82.58007812 289.83691406 C70.7505564 329.59549377 56.40149131 362.88289735 22.484375 388.33203125 C21.88608887 388.78578125 21.28780273 389.23953125 20.67138672 389.70703125 C-15.73972812 417.27726502 -52.88962338 433.86969562 -99.55761719 429.015625 C-104.69723824 428.22224775 -109.56971745 426.92647016 -114.515625 425.33203125 C-115.63839844 424.98140625 -116.76117188 424.63078125 -117.91796875 424.26953125 C-127.03405801 421.08718736 -135.27482264 416.29179025 -143.515625 411.33203125 C-144.30372559 410.85781738 -145.09182617 410.38360352 -145.90380859 409.89501953 C-155.64538756 403.98606653 -165.06225051 398.01691715 -173.515625 390.33203125 C-174.3509375 389.58953125 -175.18625 388.84703125 -176.046875 388.08203125 C-203.17941712 362.62433741 -213.24376584 320.93986995 -217.515625 285.33203125 C-217.67224609 284.08583008 -217.67224609 284.08583008 -217.83203125 282.81445312 C-221.25049443 254.44986304 -221.54123905 223.64259964 -217.515625 195.33203125 C-217.38671875 194.41808594 -217.2578125 193.50414062 -217.125 192.5625 C-210.66613625 148.84556112 -186.53187879 93.02571344 -150.046875 65.671875 C-132.98013291 53.43665005 -110.19013465 47.00987045 -89.203125 50.01953125 C-78.44103373 52.18930771 -69.4365026 56.07302005 -62.828125 65.01953125 C-49.57000634 85.15882112 -48.89877232 113.84840187 -53.4609375 136.92578125 C-55.66088171 146.76185917 -59.50033098 156.11836551 -63.515625 165.33203125 C-54.9377365 174.29115924 -42.44375602 181.96126676 -29.8984375 183.4140625 C-17.00502469 183.10140468 3.6706458 179.76657186 13.0546875 170.3125 C32.74548014 143.03591019 35.69733535 99.87250847 30.87353516 67.57666016 C27.01239925 45.30609332 14.13149253 23.29472089 -1.515625 7.33203125 C-2.25167969 6.55988281 -2.98773438 5.78773437 -3.74609375 4.9921875 C-20.72268011 -11.64316094 -46.00517722 -15.79877172 -68.515625 -19.66796875 C-69.49080078 -19.83603027 -70.46597656 -20.0040918 -71.47070312 -20.17724609 C-85.28894293 -22.44349378 -99.04249325 -22.96981813 -113.015625 -23.04296875 C-114.20700577 -23.05488754 -114.20700577 -23.05488754 -115.42245483 -23.06704712 C-169.95041106 -23.4870196 -226.18968783 14.27256378 -261.515625 54.33203125 Z " fill="#000000" transform="translate(377.515625,28.66796875)"/>
<path d="M0 0 C6.34124803 3.22473023 11.03135277 8.39093332 13.2890625 15.1640625 C13.97637004 22.80299484 14.22091848 29.67413448 9.921875 36.2578125 C5.68190011 41.20783103 0.85423161 44.84328893 -5.75 45.4375 C-13.60360845 45.65993335 -19.58195764 45.41388541 -25.7109375 40.1640625 C-31.9687719 33.3493869 -33.14170625 27.94863085 -33.046875 18.75 C-32.46841067 12.57522963 -30.24478861 8.49086741 -25.703125 4.3203125 C-18.19801857 -1.55084087 -9.24553435 -2.85092846 0 0 Z " fill="#000000" transform="translate(367.7109375,139.8359375)"/>
<path d="M0 0 C1.32 0.33 2.64 0.66 4 1 C2.5697326 5.66391544 0.71123666 10.06641595 -1.22363281 14.53515625 C-32.73453008 87.73108899 -45.86086717 176.08923355 -16 252 C-5.11396556 277.90642805 9.97199673 300.30140467 30 320 C30 317.36 30 314.72 30 312 C31.32 311.67 32.64 311.34 34 311 C35.11582647 316.30017571 35.34568689 321.60118412 35 327 C33.00383446 328.99616554 29.18298037 328.40983427 26.4375 328.5625 C25.72658203 328.60568359 25.01566406 328.64886719 24.28320312 328.69335938 C22.52238088 328.79971777 20.7612168 328.90038846 19 329 C18.67 327.68 18.34 326.36 18 325 C20.64 324.34 23.28 323.68 26 323 C25.52691406 322.55011719 25.05382812 322.10023438 24.56640625 321.63671875 C18.89065458 316.11586089 13.91432886 310.20024491 9 304 C8.2059375 303.03449219 7.411875 302.06898438 6.59375 301.07421875 C-24.94884929 261.79569716 -37.20837902 210.59146816 -37.25 161.0625 C-37.25067474 160.3290033 -37.25134949 159.59550659 -37.25204468 158.83978271 C-37.17268333 103.76597656 -23.22970596 49.70518784 0 0 Z " fill="#000000" transform="translate(57,144)"/>
<path d="M0 0 C0 4.95 0 9.9 0 15 C-0.99 15 -1.98 15 -3 15 C-3 11.37 -3 7.74 -3 4 C-3.99 4.33 -4.98 4.66 -6 5 C-5.625 3.0625 -5.625 3.0625 -5 1 C-3 0 -3 0 0 0 Z " fill="#000000" transform="translate(7,311)"/>
<path d="M0 0 C3.78717347 1.48781815 5.77407001 3.61988409 8 7 C7.67 7.99 7.34 8.98 7 10 C2.93376028 8.64458676 1.46953182 6.42990531 -1 3 C-0.67 2.01 -0.34 1.02 0 0 Z " fill="#000000" transform="translate(343,69)"/>
<path d="M0 0 C0.66 0.33 1.32 0.66 2 1 C0.50958227 4.79379058 -1.69062512 6.68343758 -5 9 C-5.66 9 -6.32 9 -7 9 C-6.82374165 6.62051228 -6.30280227 5.29774151 -4.59765625 3.62109375 C-3.09350908 2.37884514 -1.54870149 1.18623944 0 0 Z " fill="#000000" transform="translate(167,92)"/>
<path d="M0 0 C0 0.66 0 1.32 0 2 C-3.3 3.32 -6.6 4.64 -10 6 C-10 4.68 -10 3.36 -10 2 C-3.375 -1.125 -3.375 -1.125 0 0 Z " fill="#000000" transform="translate(357,489)"/>
<path d="M0 0 C-2.21928194 2.90802461 -3.92969143 4.95312762 -7 7 C-7.99 7 -8.98 7 -10 7 C-10 6.01 -10 5.02 -10 4 C-8.57421875 2.578125 -8.57421875 2.578125 -6.6875 1.25 C-6.07261719 0.80140625 -5.45773437 0.3528125 -4.82421875 -0.109375 C-3 -1 -3 -1 0 0 Z " fill="#000000" transform="translate(391,468)"/>
<path d="M0 0 C0.99 0.33 1.98 0.66 3 1 C3.94921875 3.06640625 3.94921875 3.06640625 4.6875 5.5625 C4.93886719 6.38878906 5.19023437 7.21507812 5.44921875 8.06640625 C5.63097656 8.70449219 5.81273437 9.34257812 6 10 C5.01 10.33 4.02 10.66 3 11 C1.68 7.7 0.36 4.4 -1 1 C-0.67 0.67 -0.34 0.34 0 0 Z " fill="#000000" transform="translate(125,409)"/>
<path d="M0 0 C0.99 0.33 1.98 0.66 3 1 C1.84414715 4.91211733 0.64465038 7.8745041 -2 11 C-2.66 10.67 -3.32 10.34 -4 10 C-2.8905928 6.51329166 -1.73662334 3.22515763 0 0 Z " fill="#000000" transform="translate(449,389)"/>
<path d="M0 0 C0.66 0 1.32 0 2 0 C2.99 3.63 3.98 7.26 5 11 C3.68 10.67 2.36 10.34 1 10 C0.63883954 8.5225254 0.28624952 7.04295325 -0.0625 5.5625 C-0.25972656 4.73878906 -0.45695312 3.91507812 -0.66015625 3.06640625 C-0.82837891 2.04353516 -0.82837891 2.04353516 -1 1 C-0.67 0.67 -0.34 0.34 0 0 Z " fill="#000000" transform="translate(112,371)"/>
<path d="M0 0 C0.99 0.33 1.98 0.66 3 1 C3.66 4.3 4.32 7.6 5 11 C4.01 11 3.02 11 2 11 C0.57741188 7.17679443 -0.24042276 4.08718695 0 0 Z " fill="#000000" transform="translate(106,352)"/>
<path d="M0 0 C0.99 0.33 1.98 0.66 3 1 C1.66511872 4.59391114 0.03977277 7.75490696 -2 11 C-2.99 10.67 -3.98 10.34 -5 10 C-3.35 6.7 -1.7 3.4 0 0 Z " fill="#000000" transform="translate(128,138)"/>
<path d="M0 0 C0.99 0.33 1.98 0.66 3 1 C1.50163895 4.11198065 -0.19933758 7.0534615 -2 10 C-2.99 9.67 -3.98 9.34 -5 9 C-3.7508258 5.54074837 -2.32472205 2.85306797 0 0 Z " fill="#000000" transform="translate(139,122)"/>
<path d="M0 0 C0.99 0.33 1.98 0.66 3 1 C1.47291037 4.43595166 -0.59927045 7.11912454 -3 10 C-3.99 9.67 -4.98 9.34 -6 9 C-4.47291037 5.56404834 -2.40072955 2.88087546 0 0 Z " fill="#000000" transform="translate(152,106)"/>
<path d="M0 0 C0 0.99 0 1.98 0 3 C-6.625 7 -6.625 7 -10 7 C-10 6.01 -10 5.02 -10 4 C-3.375 0 -3.375 0 0 0 Z " fill="#000000" transform="translate(201,69)"/>
<path d="M0 0 C1.29640378 0.59393382 2.58698839 1.20057989 3.875 1.8125 C4.59429687 2.14894531 5.31359375 2.48539063 6.0546875 2.83203125 C8 4 8 4 10 7 C7 8 7 8 4.95703125 7.00390625 C4.24933594 6.52824219 3.54164063 6.05257812 2.8125 5.5625 C2.09707031 5.08941406 1.38164062 4.61632813 0.64453125 4.12890625 C0.10183594 3.75636719 -0.44085938 3.38382813 -1 3 C-0.67 2.01 -0.34 1.02 0 0 Z " fill="#000000" transform="translate(327,56)"/>
<path d="M0 0 C0 0.99 0 1.98 0 3 C-4.95 4.485 -4.95 4.485 -10 6 C-10.33 5.01 -10.66 4.02 -11 3 C-9.54293274 2.49632243 -8.08429904 1.99717444 -6.625 1.5 C-5.81289062 1.2215625 -5.00078125 0.943125 -4.1640625 0.65625 C-2 0 -2 0 0 0 Z " fill="#000000" transform="translate(238,53)"/>
<path d="M0 0 C0 0.99 0 1.98 0 3 C-4.95 4.485 -4.95 4.485 -10 6 C-10.33 5.01 -10.66 4.02 -11 3 C-9.54293274 2.49632243 -8.08429904 1.99717444 -6.625 1.5 C-5.81289063 1.2215625 -5.00078125 0.943125 -4.1640625 0.65625 C-2 0 -2 0 0 0 Z " fill="#000000" transform="translate(338,495)"/>
<path d="M0 0 C3.48670834 1.1094072 6.77484237 2.26337666 10 4 C10 4.99 10 5.98 10 7 C6.06380262 6.43768609 3.20807554 5.38314183 0 3 C0 2.01 0 1.02 0 0 Z " fill="#000000" transform="translate(192,480)"/>
<path d="M0 0 C3.99455527 0.61454696 6.74466336 2.70646737 10 5 C9.01 6.485 9.01 6.485 8 8 C5.03 6.02 2.06 4.04 -1 2 C-0.67 1.34 -0.34 0.68 0 0 Z " fill="#000000" transform="translate(175,470)"/>
<path d="M0 0 C0.66 0.33 1.32 0.66 2 1 C0.64978174 5.41889613 -1.26115668 7.34345343 -5 10 C-5.33 9.01 -5.66 8.02 -6 7 C-4.78515625 5.17578125 -4.78515625 5.17578125 -3.0625 3.3125 C-2.49660156 2.68988281 -1.93070312 2.06726563 -1.34765625 1.42578125 C-0.90292969 0.95527344 -0.45820313 0.48476563 0 0 Z " fill="#000000" transform="translate(417,439)"/>
<path d="M0 0 C0.66 0 1.32 0 2 0 C3.65 2.97 5.3 5.94 7 9 C5.68 9 4.36 9 3 9 C0.6875 6.1875 0.6875 6.1875 -1 3 C-0.67 2.01 -0.34 1.02 0 0 Z " fill="#000000" transform="translate(134,427)"/>
<path d="M0 0 C0.99 0 1.98 0 3 0 C3.33 3.63 3.66 7.26 4 11 C3.01 11 2.02 11 1 11 C0.67 7.37 0.34 3.74 0 0 Z " fill="#000000" transform="translate(98,313)"/>
<path d="M0 0 C0.99 0 1.98 0 3 0 C2.67 3.63 2.34 7.26 2 11 C1.01 11 0.02 11 -1 11 C-0.67 7.37 -0.34 3.74 0 0 Z " fill="#000000" transform="translate(99,213)"/>
<path d="M0 0 C0.66 0 1.32 0 2 0 C5 6.5 5 6.5 5 11 C4.01 10.67 3.02 10.34 2 10 C1.05078125 7.93359375 1.05078125 7.93359375 0.3125 5.4375 C0.06113281 4.61121094 -0.19023437 3.78492187 -0.44921875 2.93359375 C-0.63097656 2.29550781 -0.81273437 1.65742187 -1 1 C-0.67 0.67 -0.34 0.34 0 0 Z " fill="#000000" transform="translate(355,86)"/>
<path d="M0 0 C0 0.99 0 1.98 0 3 C-3.3 4.32 -6.6 5.64 -10 7 C-10 5.68 -10 4.36 -10 3 C-3.375 0 -3.375 0 0 0 Z " fill="#000000" transform="translate(219,60)"/>
<path d="M0 0 C0 0.99 0 1.98 0 3 C-3.63 3.33 -7.26 3.66 -11 4 C-11 3.01 -11 2.02 -11 1 C-7.26562152 0.12132271 -3.83225427 -0.08912219 0 0 Z " fill="#000000" transform="translate(278,46)"/>
<path d="M0 0 C0 0.66 0 1.32 0 2 C-7.625 4 -7.625 4 -11 4 C-11 3.01 -11 2.02 -11 1 C-9.5437328 0.63743142 -8.08488815 0.28520207 -6.625 -0.0625 C-5.40683594 -0.35833984 -5.40683594 -0.35833984 -4.1640625 -0.66015625 C-2 -1 -2 -1 0 0 Z " fill="#000000" transform="translate(319,501)"/>
<path d="M0 0 C3.63 0.66 7.26 1.32 11 2 C11 2.99 11 3.98 11 5 C9.54119891 4.85892253 8.08296449 4.71197585 6.625 4.5625 C5.40683594 4.44068359 5.40683594 4.44068359 4.1640625 4.31640625 C2 4 2 4 0 3 C0 2.01 0 1.02 0 0 Z " fill="#000000" transform="translate(248,500)"/>
<path d="M0 0 C3.55780196 0.60990891 6.6828589 1.5783681 10 3 C10 3.99 10 4.98 10 6 C6.44219804 5.39009109 3.3171411 4.4216319 0 3 C0 2.01 0 1.02 0 0 Z " fill="#000000" transform="translate(210,489)"/>
<path d="M0 0 C0.66 0.33 1.32 0.66 2 1 C1.25675659 3.39489543 0.52942646 4.70777616 -1.69140625 5.93359375 C-3.44073501 6.67219923 -5.21934149 7.34049685 -7 8 C-7.33 7.01 -7.66 6.02 -8 5 C-6.71475739 4.13619741 -5.42157581 3.28419631 -4.125 2.4375 C-3.04605469 1.72400391 -3.04605469 1.72400391 -1.9453125 0.99609375 C-1.30335938 0.66738281 -0.66140625 0.33867187 0 0 Z " fill="#000000" transform="translate(372,478)"/>
<path d="M0 0 C1.34173403 0.92543709 2.67320159 1.86577405 4 2.8125 C5.11375 3.59560547 5.11375 3.59560547 6.25 4.39453125 C7.11625 5.18923828 7.11625 5.18923828 8 6 C8 6.99 8 7.98 8 9 C4.06326356 7.68775452 1.77280706 6.08089673 -1 3 C-0.67 2.01 -0.34 1.02 0 0 Z " fill="#000000" transform="translate(160,457)"/>
<path d="M0 0 C0.99 0.33 1.98 0.66 3 1 C2.07038578 2.15224028 1.1309875 3.29659176 0.1875 4.4375 C-0.59560547 5.39462891 -0.59560547 5.39462891 -1.39453125 6.37109375 C-3 8 -3 8 -6 9 C-6.33 8.01 -6.66 7.02 -7 6 C-5.90716423 4.96704564 -4.80029421 3.94892165 -3.6875 2.9375 C-3.07261719 2.36902344 -2.45773437 1.80054688 -1.82421875 1.21484375 C-0.92123047 0.61349609 -0.92123047 0.61349609 0 0 Z " fill="#000000" transform="translate(403,454)"/>
<path d="M0 0 C1.17539996 0.92652701 2.34010577 1.86663387 3.5 2.8125 C4.1496875 3.33457031 4.799375 3.85664063 5.46875 4.39453125 C7 6 7 6 7 9 C3.85972637 8.66354211 2.94901705 7.94763914 0.6875 5.625 C0.130625 4.75875 -0.42625 3.8925 -1 3 C-0.67 2.01 -0.34 1.02 0 0 Z " fill="#000000" transform="translate(146,443)"/>
<path d="M0 0 C0.66 0.33 1.32 0.66 2 1 C1.42647107 4.87132028 -0.48704352 7.08172796 -3 10 C-3.99 9.67 -4.98 9.34 -6 9 C-4.02 6.03 -2.04 3.06 0 0 Z " fill="#000000" transform="translate(429,423)"/>
<path d="M0 0 C0.66 0 1.32 0 2 0 C1.43454163 3.95820859 0.19097652 6.6659053 -2 10 C-2.99 9.67 -3.98 9.34 -5 9 C-3.7580393 5.56072421 -2.44259716 2.74792181 0 0 Z " fill="#000000" transform="translate(440,407)"/>
<path d="M0 0 C3.36338044 3.36338044 4 6.28835716 4 11 C3.01 11 2.02 11 1 11 C0.01 7.7 -0.98 4.4 -2 1 C-1.34 0.67 -0.68 0.34 0 0 Z " fill="#000000" transform="translate(119,390)"/>
<path d="M0 0 C0.99 0.66 1.98 1.32 3 2 C1.68 4.97 0.36 7.94 -1 11 C-1.99 10.67 -2.98 10.34 -4 10 C-3.52449439 8.51965236 -3.04448784 7.04074979 -2.5625 5.5625 C-2.29566406 4.73878906 -2.02882813 3.91507812 -1.75390625 3.06640625 C-1 1 -1 1 0 0 Z " fill="#000000" transform="translate(458,371)"/>
<path d="M0 0 C0.99 0 1.98 0 3 0 C3.66 3.3 4.32 6.6 5 10 C4.01 10.33 3.02 10.66 2 11 C1.34 7.37 0.68 3.74 0 0 Z " fill="#000000" transform="translate(101,333)"/>
<path d="M0 0 C0.99 0 1.98 0 3 0 C4.28317892 3.84953676 4.06643637 6.94738135 4 11 C3.01 11 2.02 11 1 11 C0.67 7.37 0.34 3.74 0 0 Z " fill="#000000" transform="translate(95,293)"/>
<path d="M0 0 C0.99 0 1.98 0 3 0 C2.67 3.63 2.34 7.26 2 11 C1.01 11 0.02 11 -1 11 C-0.67 7.37 -0.34 3.74 0 0 Z " fill="#000000" transform="translate(96,233)"/>
<path d="M0 0 C0.99 0 1.98 0 3 0 C2.34 3.3 1.68 6.6 1 10 C0.01 10 -0.98 10 -2 10 C-1.125 2.25 -1.125 2.25 0 0 Z " fill="#000000" transform="translate(104,194)"/>
<path d="M0 0 C0.99 0 1.98 0 3 0 C2.34 2.97 1.68 5.94 1 9 C-0.32 9.33 -1.64 9.66 -3 10 C-2.01 6.7 -1.02 3.4 0 0 Z " fill="#000000" transform="translate(110,175)"/>
<path d="M0 0 C0.66 0.33 1.32 0.66 2 1 C2.4140625 3.28515625 2.4140625 3.28515625 2.625 6.0625 C2.69976562 6.98160156 2.77453125 7.90070313 2.8515625 8.84765625 C2.92503906 9.91306641 2.92503906 9.91306641 3 11 C2.01 11 1.02 11 0 11 C-0.19406478 9.35492782 -0.38007935 7.70890406 -0.5625 6.0625 C-0.66691406 5.14597656 -0.77132813 4.22945313 -0.87890625 3.28515625 C-0.91886719 2.53105469 -0.95882813 1.77695313 -1 1 C-0.67 0.67 -0.34 0.34 0 0 Z " fill="#000000" transform="translate(362,105)"/>
<path d="M0 0 C0 0.99 0 1.98 0 3 C-1.4609375 4.38671875 -1.4609375 4.38671875 -3.375 5.6875 C-4.00148437 6.12449219 -4.62796875 6.56148438 -5.2734375 7.01171875 C-7 8 -7 8 -9 8 C-8.66410006 4.86493389 -7.97334828 3.974751 -5.625 1.75 C-3 0 -3 0 0 0 Z " fill="#000000" transform="translate(184,80)"/>
<path d="M0 0 C1.46015291 0.28241641 2.91809793 0.57626614 4.375 0.875 C5.18710937 1.03742187 5.99921875 1.19984375 6.8359375 1.3671875 C9 2 9 2 11 4 C10.34 4.66 9.68 5.32 9 6 C5.7 5.01 2.4 4.02 -1 3 C-0.67 2.01 -0.34 1.02 0 0 Z " fill="#000000" transform="translate(308,49)"/>
<path d="M0 0 C-0.33 0.99 -0.66 1.98 -1 3 C-4.3 3.33 -7.6 3.66 -11 4 C-11 3.01 -11 2.02 -11 1 C-7.26562152 0.12132271 -3.83225427 -0.08912219 0 0 Z " fill="#000000" transform="translate(258,49)"/>
<path d="M0 0 C7.42857143 -0.14285714 7.42857143 -0.14285714 11 1 C10.67 1.99 10.34 2.98 10 4 C6.7 3.67 3.4 3.34 0 3 C0 2.01 0 1.02 0 0 Z " fill="#000000" transform="translate(288,46)"/>
<path d="M0 0 C0 0.99 0 1.98 0 3 C-3.63 3.33 -7.26 3.66 -11 4 C-11 3.01 -11 2.02 -11 1 C-7.26562152 0.12132271 -3.83225427 -0.08912219 0 0 Z " fill="#000000" transform="translate(299,503)"/>
<path d="M0 0 C3.46941546 0.45822468 6.67395049 0.89131683 10 2 C10 2.99 10 3.98 10 5 C6.7 4.34 3.4 3.68 0 3 C0 2.01 0 1.02 0 0 Z " fill="#000000" transform="translate(229,496)"/>
<path d="M0 0 C0.99 0 1.98 0 3 0 C2.01 3.3 1.02 6.6 0 10 C-0.99 10 -1.98 10 -3 10 C-2.49287967 6.28111761 -1.88391785 3.26545761 0 0 Z " fill="#000000" transform="translate(465,353)"/>
<path d="M0 0 C0.99 0 1.98 0 3 0 C3.33 3.63 3.66 7.26 4 11 C3.01 11 2.02 11 1 11 C-0.17571451 7.32589215 -0.07366746 3.83070817 0 0 Z " fill="#000000" transform="translate(94,273)"/>
<path d="M0 0 C0.66 0 1.32 0 2 0 C2 3.63 2 7.26 2 11 C1.01 11 0.02 11 -1 11 C-1.0270043 9.54176788 -1.04639787 8.08339325 -1.0625 6.625 C-1.07410156 5.81289063 -1.08570312 5.00078125 -1.09765625 4.1640625 C-1 2 -1 2 0 0 Z " fill="#000000" transform="translate(95,253)"/>
<path d="M0 0 C3.63 0.33 7.26 0.66 11 1 C11 1.99 11 2.98 11 4 C7.37 3.67 3.74 3.34 0 3 C0 2.01 0 1.02 0 0 Z " fill="#000000" transform="translate(268,503)"/>
<path d="M0 0 C0.66 0.33 1.32 0.66 2 1 C1.01 3.97 0.02 6.94 -1 10 C-1.99 10 -2.98 10 -4 10 C-3.43454163 6.04179141 -2.19097652 3.3340947 0 0 Z " fill="#000000" transform="translate(119,156)"/>
<path d="M0 0 C0.99 0 1.98 0 3 0 C3 3.63 3 7.26 3 11 C2.34 11 1.68 11 1 11 C0.67 7.37 0.34 3.74 0 0 Z " fill="#000000" transform="translate(363,126)"/>
<path d="M0 0 C0.99 0.33 1.98 0.66 3 1 C2.34 2.98 1.68 4.96 1 7 C0.34 6.67 -0.32 6.34 -1 6 C-0.67 4.02 -0.34 2.04 0 0 Z " fill="#000000" transform="translate(470,338)"/>
</svg>
