<?xml version="1.0" encoding="UTF-8"?>
<svg version="1.1" xmlns="http://www.w3.org/2000/svg" width="606" height="729">
<path d="M0 0 C0.9890332 0.48122314 0.9890332 0.48122314 1.99804688 0.97216797 C15.79616165 7.75750463 27.88231942 16.36738401 39 27 C40.06154297 27.96679688 40.06154297 27.96679688 41.14453125 28.953125 C46.51028242 34.00082974 50.27506734 39.66761448 54 46 C59.44305294 41.45934794 64.50260354 36.64921611 69.5 31.625 C70.58087891 30.54992188 70.58087891 30.54992188 71.68359375 29.453125 C75.04238814 26.08825684 78.31020752 22.69496594 81.40625 19.0859375 C86.47313682 13.2069011 92.09194833 7.86464792 97.6171875 2.421875 C102.1314073 -2.05118171 106.50131486 -6.56885012 110.625 -11.40625 C113.69763809 -14.96771688 113.69763809 -14.96771688 116.25259399 -15.24050903 C117.65824112 -15.2338472 117.65824112 -15.2338472 119.09228516 -15.22705078 C120.15323395 -15.22689972 121.21418274 -15.22674866 122.30728149 -15.22659302 C123.45626923 -15.21627045 124.60525696 -15.20594788 125.7890625 -15.1953125 C126.96262299 -15.1924826 128.13618347 -15.18965271 129.3453064 -15.18673706 C133.10530662 -15.17551355 136.86507139 -15.15040492 140.625 -15.125 C143.1692674 -15.11497301 145.71353852 -15.10584668 148.2578125 -15.09765625 C154.5052891 -15.07556714 160.75262773 -15.04206824 167 -15 C164.72766129 -6.28658071 162.06148153 2.28491608 159.30859375 10.85546875 C158.84650495 12.29996609 158.38461642 13.74452751 157.9229126 15.18914795 C156.68720601 19.05347624 155.44857621 22.91686169 154.20937729 26.78007126 C152.90645734 30.84378318 151.60640381 34.90841212 150.3059082 38.97290039 C143.75603833 59.43790933 137.17754041 79.89367176 130.58944702 100.34640503 C124.70132876 118.6310611 118.90781171 136.94437706 113.14315796 155.26828003 C106.63559544 175.94136549 99.98331312 196.56533524 93.29255676 217.17964172 C86.40609821 238.39807335 79.61065719 259.64204968 72.92407227 280.92453003 C65.89746931 303.27877568 58.70085745 325.57629956 51.45217896 347.85936165 C50.35245267 351.24052499 49.25391184 354.62207216 48.15625 358.00390625 C47.94427979 358.65695866 47.73230957 359.31001106 47.51391602 359.98285294 C42.55244095 375.28315358 37.76427708 390.63733505 33 406 C35.33143249 403.09006301 37.65232933 400.17633856 39.91796875 397.21484375 C40.44551758 396.52535645 40.97306641 395.83586914 41.51660156 395.12548828 C42.34369629 394.04243408 42.34369629 394.04243408 43.1875 392.9375 C43.76338867 392.18452637 44.33927734 391.43155273 44.93261719 390.65576172 C48.23418153 386.33316145 51.50574517 381.99072563 54.75 377.625 C61.95397292 367.99787255 69.75643822 358.85528769 77.54980469 349.70458984 C79.01803039 347.97880671 80.48173533 346.24925728 81.9453125 344.51953125 C88.29684989 337.03557339 94.83230594 329.75857699 101.52978516 322.58349609 C103.48359593 320.47914261 105.414509 318.35440628 107.34643555 316.22998047 C111.47686276 311.69074945 115.68773973 307.26647488 120.06713867 302.96533203 C121.78807043 301.21548984 123.3756735 299.42566129 124.95703125 297.55078125 C129.64538249 292.15799496 134.71019405 287.14006946 139.76977539 282.09985352 C141.43426277 280.4407268 143.09333447 278.77631949 144.75195312 277.11132812 C149.80033728 272.06011421 154.88243226 267.10550407 160.31665039 262.46508789 C162.84519496 260.26439232 165.15793086 257.89850454 167.5 255.5 C171.16817647 251.78192926 174.90829352 248.2173993 178.88671875 244.83203125 C182.53919074 241.66565534 186.04910026 238.33779355 189.58203125 235.0390625 C192 233 192 233 195 232 C198.26196567 244.57992778 201.0610366 257.23912789 203.765625 269.94921875 C204.2082144 272.02189707 204.65090426 274.09455394 205.09368896 276.16719055 C206.01332672 280.4755443 206.93072224 284.78436825 207.84667969 289.09350586 C209.02037738 294.61355284 210.20138596 300.13200817 211.38422012 305.65010357 C212.2970527 309.91382606 213.20524721 314.17852652 214.11211395 318.4435215 C214.54587912 320.48002432 214.98127442 322.51618066 215.41834259 324.55197716 C216.02625151 327.38610424 216.62770444 330.22152773 217.22753906 333.05737305 C217.49863495 334.31115753 217.49863495 334.31115753 217.77520752 335.590271 C219.35052055 343.10009946 219.35052055 343.10009946 219 347 C217.82592773 348.72583008 217.82592773 348.72583008 216.18359375 350.26953125 C215.58756348 350.84429199 214.9915332 351.41905273 214.37744141 352.01123047 C213.73726074 352.60564941 213.09708008 353.20006836 212.4375 353.8125 C211.14013253 355.05933331 209.84453926 356.30801553 208.55078125 357.55859375 C207.93025879 358.15397949 207.30973633 358.74936523 206.67041016 359.36279297 C204.13849081 361.84438478 201.85903925 364.50816972 199.5703125 367.2109375 C197.79534619 369.2331628 195.91700977 371.11214627 194 373 C190.85079119 376.10713922 187.92023033 379.32490304 185.0390625 382.6796875 C182.96435626 385.04056012 180.83488822 387.33969449 178.68994141 389.63647461 C173.64369246 395.04092064 168.84277642 400.55141566 164.2109375 406.3203125 C161.8906505 409.13253315 159.46928866 411.81797263 157 414.5 C152.94461057 418.91156385 149.1152626 423.45187882 145.3515625 428.11328125 C142.75551878 431.30011897 140.10241735 434.43332407 137.4375 437.5625 C133.59585573 442.0839414 129.82544512 446.64981927 126.140625 451.30078125 C124.53434491 453.32621837 122.91994304 455.34356418 121.296875 457.35546875 C115.42464072 464.64321747 109.66140088 472.00288013 103.99731445 479.45361328 C100.62097007 483.89229655 97.20771615 488.29898545 93.76489258 492.6862793 C87.44777194 500.74412539 81.34622135 508.92602524 75.39672852 517.25854492 C73.27306329 520.22970125 71.13722776 523.19100506 68.98242188 526.13964844 C61.05911295 536.99441619 53.48579872 548.04861141 46.0625 559.25 C45.49695404 560.10128479 44.93140808 560.95256958 44.34872437 561.82965088 C23.67208301 592.95440716 4.41651775 624.80931592 -14.01696777 657.31474304 C-15.02401547 659.08881772 -16.03398613 660.86119507 -17.04492188 662.63305664 C-18.30740237 664.84760003 -19.56432261 667.06532678 -20.81445312 669.28686523 C-23.50647518 674.0005357 -26.2802096 678.65943759 -29.375 683.12109375 C-30.09816406 684.17768188 -30.09816406 684.17768188 -30.8359375 685.25561523 C-36.92816887 690.1663771 -47.67132071 689.90545223 -55.26045609 690.97457504 C-57.52976783 691.29430355 -59.79842885 691.61835334 -62.06698608 691.94338989 C-65.3294673 692.41040351 -68.59218977 692.87567281 -71.85513306 693.33944702 C-80.42816471 694.55835211 -88.9996006 695.78833386 -97.5703125 697.0234375 C-98.43222261 697.14759474 -99.29413273 697.27175198 -100.18216133 697.39967155 C-112.02540278 699.10814426 -123.85783187 700.87587222 -135.6796875 702.7265625 C-136.69763869 702.88577714 -136.69763869 702.88577714 -137.73615456 703.04820824 C-144.69788608 704.13817051 -151.65730725 705.24214273 -158.61499023 706.35766602 C-160.31662827 706.62750809 -160.31662827 706.62750809 -162.05264282 706.90280151 C-164.13743127 707.23345697 -166.22154814 707.56839139 -168.30477905 707.90872192 C-173.27379133 708.69391666 -177.96916811 709.17569086 -183 709 C-177.8694864 693.43282279 -172.56470861 677.93942454 -167.0625 662.5 C-166.31957566 660.40951214 -165.57690651 658.31893358 -164.83447266 656.22827148 C-163.305184 651.92250075 -161.77483702 647.61710856 -160.24365234 643.31201172 C-157.12028845 634.5281065 -154.00894705 625.73994909 -150.89785767 616.95169067 C-149.86077344 614.02231529 -148.823376 611.093051 -147.78588867 608.16381836 C-140.83308612 588.53288286 -133.88602778 568.89991429 -126.93994141 549.26660156 C-125.9521526 546.4746079 -124.96435873 543.68261603 -123.9765625 540.890625 C-123.73058949 540.19537971 -123.48461647 539.50013443 -123.23118973 538.78382111 C-119.76265818 528.98011105 -116.29262785 519.17693269 -112.82148361 509.37414742 C-103.2782637 482.42292418 -93.74463465 455.46838392 -84.25 428.5 C-83.84704712 427.35616852 -83.44409424 426.21233704 -83.02893066 425.03384399 C-81.89867436 421.82493425 -80.76946475 418.6156583 -79.640625 415.40625 C-79.31360596 414.47809982 -78.98658691 413.54994965 -78.6496582 412.59367371 C-76.71215553 407.07991065 -74.82928214 401.55061902 -73 396 C-74.17755859 397.28583984 -74.17755859 397.28583984 -75.37890625 398.59765625 C-78.0912184 401.55390781 -80.8156995 404.4986026 -83.54785156 407.43652344 C-84.66909769 408.64372926 -85.78491575 409.85597808 -86.8984375 411.0703125 C-106.758776 431.93879001 -135.03719488 444.46428888 -162 453 C-161.34 453.33 -160.68 453.66 -160 454 C-160.60636233 459.76044212 -162.75658279 464.72014369 -165 470 C-166.32 469.67 -167.64 469.34 -169 469 C-167.515 464.545 -167.515 464.545 -166 460 C-166.64622314 460.26103516 -167.29244629 460.52207031 -167.95825195 460.79101562 C-195.73364319 471.93336982 -225.54656977 483.01191851 -255.875 483.203125 C-256.60259521 483.20882507 -257.33019043 483.21452515 -258.07983398 483.22039795 C-259.61261576 483.22978015 -261.14541708 483.23635467 -262.67822266 483.24023438 C-264.96685264 483.24986058 -267.2545516 483.2809152 -269.54296875 483.3125 C-283.1154754 483.41173511 -296.01699365 481.69803014 -308.75 476.75 C-309.54656006 476.44698975 -310.34312012 476.14397949 -311.16381836 475.83178711 C-322.07825997 471.5524593 -331.06201442 465.52079147 -340 458 C-341.010625 457.236875 -342.02125 456.47375 -343.0625 455.6875 C-374.50490511 426.92104426 -384.71881766 379.68640244 -387 339 C-387.1904643 333.20983206 -387.19367358 327.41772033 -387.1875 321.625 C-387.18789276 320.83985016 -387.18828552 320.05470032 -387.18869019 319.24575806 C-387.17941823 303.71364844 -386.30268177 288.37195669 -384 273 C-382.68 272.67 -381.36 272.34 -380 272 C-380.14386542 274.58345563 -380.29007414 277.16674691 -380.4375 279.75 C-380.47681641 280.46027344 -380.51613281 281.17054688 -380.55664062 281.90234375 C-380.79726992 286.08559142 -381.11939021 290.24687826 -381.51953125 294.41796875 C-382.22567143 302.7895424 -382.24403104 311.16629256 -382.25 319.5625 C-382.25067474 320.42004883 -382.25134949 321.27759766 -382.25204468 322.16113281 C-382.20045298 363.68136064 -375.50082157 410.03117882 -348 443 C-347.26652344 443.90621094 -346.53304687 444.81242187 -345.77734375 445.74609375 C-328.67700161 465.79381193 -303.60198845 476.27187061 -277.734375 478.6015625 C-240.13150941 481.25452541 -203.48108129 469.9042839 -169 456 C-177.0154044 456.54437173 -184.92483773 457.66242442 -192.8581543 458.89575195 C-205.78587763 460.83669282 -218.73544923 461.20990736 -231.78491211 461.24023438 C-234.2990012 461.24994785 -236.81227267 461.28110385 -239.32617188 461.3125 C-273.6390113 461.53792614 -301.29906871 448.39043172 -326 425 C-326.82242188 424.23042969 -327.64484375 423.46085937 -328.4921875 422.66796875 C-347.8944505 403.9608024 -359.08252455 381.09716258 -365 355 C-365.15597656 354.31631348 -365.31195313 353.63262695 -365.47265625 352.92822266 C-369.58791682 334.21954368 -370.85607738 314.11269186 -370 295 C-369.93039062 293.43354736 -369.93039062 293.43354736 -369.859375 291.83544922 C-366.08267539 213.65132966 -335.17342716 151.5085727 -284 93 C-283.36964844 92.27039063 -282.73929687 91.54078125 -282.08984375 90.7890625 C-280.40571867 88.84790694 -278.70464492 86.92315416 -277 85 C-276.37351562 84.2894043 -275.74703125 83.57880859 -275.1015625 82.84667969 C-269.61700989 76.68165517 -263.9319488 70.74567836 -258.09863281 64.91333008 C-256.6279359 63.44044028 -255.16546466 61.95969735 -253.703125 60.47851562 C-248.20223687 54.94552148 -242.51034683 49.79704419 -236.40722656 44.92358398 C-234.48904208 43.39078728 -232.62263245 41.83407884 -230.78515625 40.20703125 C-216.54433595 27.68246476 -200.72901494 17.34573931 -184.15185547 8.19335938 C-182.18394973 7.10201342 -180.23338792 5.9853251 -178.28515625 4.859375 C-162.46344425 -4.12404716 -144.70347754 -10.82191831 -127 -15 C-126.19240234 -15.19464844 -125.38480469 -15.38929687 -124.55273438 -15.58984375 C-82.86247477 -25.17453153 -38.12616509 -18.78086881 0 0 Z M-264 79 C-265.12272916 80.23335447 -266.23165089 81.47978379 -267.3125 82.75 C-270.05798122 85.94185122 -272.88589615 89.03918827 -275.75 92.125 C-280.97786243 97.86462607 -285.74578503 103.89408432 -290.47998047 110.04296875 C-292.07419144 112.09552177 -293.69269801 114.12696636 -295.31640625 116.15625 C-310.30367877 134.97541154 -322.92716744 155.2163426 -335 176 C-335.43070801 176.73976074 -335.86141602 177.47952148 -336.30517578 178.24169922 C-353.27319682 207.70786726 -360.0698922 241.43549534 -363 275 C-363.11214844 276.27359375 -363.22429687 277.5471875 -363.33984375 278.859375 C-365.84730772 312.52122012 -364.31653229 348.55910553 -351 380 C-350.24976563 381.77503906 -350.24976563 381.77503906 -349.484375 383.5859375 C-335.63523209 413.50277534 -307.60084474 438.29198449 -277 450 C-266.77620773 453.41785195 -256.63476011 455.15188773 -245.8671875 455.16796875 C-245.0015065 455.17224884 -244.1358255 455.17652893 -243.24391174 455.18093872 C-240.45422143 455.19089917 -237.66470467 455.19099793 -234.875 455.1875 C-233.44790207 455.18609512 -233.44790207 455.18609512 -231.99197388 455.18466187 C-211.92596991 455.15007275 -211.92596991 455.15007275 -192 453 C-191.05060547 452.84934082 -190.10121094 452.69868164 -189.12304688 452.54345703 C-160.80356198 447.86399929 -133.58572641 438.5952581 -110 422 C-108.97132813 421.2884375 -107.94265625 420.576875 -106.8828125 419.84375 C-89.19374443 406.96293236 -73.59216421 390.18906028 -63 371 C-61.35 371.33 -59.7 371.66 -58 372 C-68.17541539 401.3721622 -78.46594941 430.70139318 -88.86767578 459.99414062 C-92.37429694 469.86961217 -95.87520662 479.74710702 -99.375 489.625 C-99.72164703 490.60315674 -100.06829407 491.58131348 -100.42544556 492.58911133 C-106.59332468 509.99564569 -112.72030547 527.4164307 -118.84222412 544.83917236 C-124.31418421 560.40850675 -129.82775484 575.96206548 -135.39501953 591.49755859 C-141.28021505 607.92426257 -147.06757014 624.3848019 -152.84414673 640.84997559 C-158.57921474 657.19315887 -164.38253251 673.50898913 -170.34423828 689.77099609 C-170.72206703 690.8068132 -170.72206703 690.8068132 -171.10752869 691.86355591 C-171.7719989 693.68498153 -172.43992956 695.50514375 -173.1081543 697.32519531 C-174.10543523 699.84629095 -174.10543523 699.84629095 -174 702 C-161.86044202 700.65536991 -149.79480669 698.98598468 -137.72265625 697.13671875 C-135.90030454 696.85982171 -134.07791071 696.5832018 -132.25547791 696.30683899 C-127.48600525 695.58293493 -122.71702929 694.85581308 -117.94818115 694.12780762 C-112.27057397 693.26149788 -106.59265944 692.39719475 -100.91425133 691.53614998 C-96.27892678 690.833031 -91.64454558 690.12465584 -87.01187134 689.40426636 C-78.3245324 688.06023338 -69.64480788 686.80752134 -60.91357422 685.78369141 C-58.57442364 685.49460556 -56.23569043 685.2023763 -53.89709282 684.90885353 C-51.75399149 684.65293771 -49.60952555 684.44011826 -47.46168518 684.22843933 C-41.12836385 683.42914985 -36.91838077 682.8587344 -32.81079102 677.71533203 C-31.83005092 676.17051122 -30.88796512 674.59995013 -30 673 C-29.33162109 671.95078369 -28.66324219 670.90156738 -27.97460938 669.82055664 C-27.43642578 668.86012451 -26.89824219 667.89969238 -26.34375 666.91015625 C-25.41091187 665.25983398 -25.41091187 665.25983398 -24.45922852 663.57617188 C-24.14043732 663.00439209 -23.82164612 662.4326123 -23.49319458 661.84350586 C-22.46832317 660.00569681 -21.43442451 658.17322261 -20.39819336 656.34179688 C-18.96049551 653.79986219 -17.52566424 651.25634805 -16.09326172 648.71142578 C7.5265654 606.78660636 33.02584657 566.1675029 61 527 C61.50176758 526.29488281 62.00353516 525.58976563 62.52050781 524.86328125 C70.80705068 513.22974784 79.38382024 501.8352145 88.08056641 490.50585938 C89.87724553 488.16025844 91.66518924 485.80835467 93.44921875 483.453125 C99.25667351 475.79587553 105.1721239 468.24892711 111.26196289 460.81396484 C114.77448932 456.52365331 118.21989198 452.1884053 121.625 447.8125 C126.07246027 442.10814878 130.69362504 436.57386 135.390625 431.07421875 C137.76269035 428.29266912 140.07492712 425.46651339 142.375 422.625 C150.53239748 412.61431186 159.07989909 402.9354121 167.80078125 393.4140625 C169.74801271 391.27660417 171.66409889 389.11827198 173.5625 386.9375 C179.25767144 380.39859945 185.06807894 373.96586967 190.96923828 367.61230469 C192.16303097 366.32194802 193.34755826 365.02296124 194.52294922 363.71582031 C197.99486023 359.9102353 201.4343198 356.73120655 205.74194336 353.890625 C208.79911401 351.21440183 211.3411154 348.7694482 213 345 C213.14244001 341.17811605 212.25364878 337.69464932 211.3515625 333.99609375 C211.1085994 332.8821524 210.86563629 331.76821106 210.61531067 330.62051392 C210.06855091 328.1212721 209.50803009 325.62501448 208.93624878 323.13137817 C207.92614851 318.71574291 206.99281842 314.28520636 206.06665039 309.85131836 C204.68465614 303.24897219 203.2887044 296.64990264 201.87304688 290.0546875 C201.69427789 289.22184203 201.5155089 288.38899656 201.33132267 287.53091335 C200.96750715 285.83645216 200.60362765 284.1420047 200.23968506 282.4475708 C199.30558146 278.0956826 198.37462421 273.74312138 197.44335938 269.390625 C195.63189102 260.92644183 193.81708522 252.46297912 192 244 C188.43785001 244 188.13056249 244.4783581 185.6640625 246.859375 C185.01050781 247.48199219 184.35695313 248.10460937 183.68359375 248.74609375 C183.00425781 249.40738281 182.32492187 250.06867188 181.625 250.75 C180.3054647 252.01643529 178.98512253 253.28203029 177.6640625 254.546875 C176.9304248 255.25295898 176.19678711 255.95904297 175.44091797 256.68652344 C173.26832093 258.74568822 171.06420883 260.7647094 168.84741211 262.77600098 C158.93170223 271.80256005 149.51375883 281.3363968 140.04577637 290.82727051 C138.14289331 292.73276944 136.23629473 294.6345295 134.32972145 296.53633499 C132.02205663 298.83948842 129.71823561 301.14647913 127.4140625 303.453125 C126.15138046 304.71277069 126.15138046 304.71277069 124.8631897 305.99786377 C120.56705829 310.31095708 116.42572149 314.69598235 112.45535278 319.31106567 C110.80642981 321.22463787 109.09807917 323.06982413 107.3515625 324.89453125 C106.7433667 325.53430908 106.1351709 326.17408691 105.50854492 326.83325195 C104.8869751 327.48640381 104.26540527 328.13955566 103.625 328.8125 C98.53936381 334.1924857 93.70921464 339.64503788 89.09765625 345.4375 C86.86782139 348.16146959 84.52045882 350.73335185 82.125 353.3125 C77.40321046 358.44963214 73.10802983 363.82951804 68.84375 369.34375 C66.47788765 372.40237867 64.05582387 375.4105152 61.61645508 378.41064453 C47.2000569 396.18984635 34.25404431 415.06536178 23 435 C21.35 434.67 19.7 434.34 18 434 C25.04886366 411.50322883 32.15785237 389.02656305 39.33993912 366.57197952 C40.08015179 364.25730209 40.81996766 361.94249819 41.55966187 359.62765503 C48.48385621 337.95875392 55.43769935 316.29959023 62.41275024 294.64700317 C68.30011805 276.36453966 74.09288366 258.05341259 79.85684204 239.73171997 C86.36440456 219.05863451 93.01668688 198.43466476 99.70744324 177.82035828 C106.59357345 156.60293832 113.38898165 135.36006112 120.07492065 114.07849121 C124.55651991 99.81995377 129.08802547 85.57899388 133.69140625 71.359375 C133.93515362 70.60644165 134.17890099 69.8535083 134.43003464 69.07775879 C136.82506259 61.6817695 139.22448134 54.28721575 141.62983131 46.89457703 C145.99807305 33.46724367 150.3415843 20.03315108 154.54594231 6.55342865 C155.13962019 4.65016529 155.73550416 2.74759051 156.33143616 0.84503174 C156.68346603 -0.2900885 157.03549591 -1.42520874 157.39819336 -2.59472656 C157.86412148 -4.09353363 157.86412148 -4.09353363 158.33946228 -5.62261963 C159.08923397 -7.90992769 159.08923397 -7.90992769 159 -10 C134.09874512 -13.28648129 134.09874512 -13.28648129 111.29296875 -6.05078125 C107.20423274 -2.23232469 103.81853355 1.99328545 100.65722656 6.59960938 C94.55450885 15.43902018 86.34981855 22.7187786 78.73828125 30.22265625 C74.17889905 34.74256328 69.77116161 39.30147355 65.59521484 44.17773438 C63.04996139 47.0852599 60.31607283 49.79134115 57.5625 52.5 C56.75135742 53.304375 56.75135742 53.304375 55.92382812 54.125 C54.61823383 55.41904036 53.30947004 56.70988174 52 58 C51.5978125 56.89205078 51.5978125 56.89205078 51.1875 55.76171875 C41.36781091 30.34035258 16.84840112 14.01908322 -7.08544922 2.90673828 C-96.38906052 -36.61648281 -182.70061253 2.30574262 -264 79 Z " fill="#000000" transform="translate(387,20)"/>
<path d="M0 0 C2.54426602 1.29863578 5.05400598 1.66769853 7.875 1.95703125 C8.0296875 3.05337891 8.0296875 3.05337891 8.1875 4.171875 C8.93944769 7.21811762 10.04549067 8.99076235 11.875 11.51953125 C17.02611492 18.66422671 16.49410309 26.43109721 15.875 34.95703125 C13.87129744 43.30981543 7.93230817 50.15451304 0.875 54.83203125 C-1.95373532 56.51828706 -3.57510294 57.03819735 -6.9375 57.64453125 C-10.27884915 58.60134466 -10.27884915 58.60134466 -11.2265625 61.296875 C-11.98973809 63.83960488 -12.62025244 66.35157243 -13.125 68.95703125 C-14.115 68.95703125 -15.105 68.95703125 -16.125 68.95703125 C-15.81578116 67.49799867 -15.50251201 66.03982403 -15.1875 64.58203125 C-15.01347656 63.76992187 -14.83945312 62.9578125 -14.66015625 62.12109375 C-14.125 59.95703125 -14.125 59.95703125 -13.125 57.95703125 C-14.424375 58.03953125 -15.72375 58.12203125 -17.0625 58.20703125 C-25.29047722 58.1683417 -31.41999151 54.37784751 -37.33203125 48.890625 C-44.50818634 41.15163422 -45.60973506 34.06373383 -45.3984375 23.72265625 C-44.76852117 15.04780848 -40.40694806 8.78211036 -34.125 2.95703125 C-24.27988261 -4.45901045 -11.04058664 -5.91758716 0 0 Z " fill="#000000" transform="translate(449.125,129.04296875)"/>
<path d="M0 0 C9.37019988 7.20473252 12.45249111 17.39348561 14.05859375 28.703125 C16.17200684 46.22684188 8.19639674 66.8721314 -2.125 80.609375 C-3.36386415 82.17926365 -4.60293661 83.74900357 -5.84863281 85.31347656 C-9.52279019 89.99633249 -12.72964915 94.90537237 -15.87890625 99.953125 C-16.38156006 100.75878906 -16.88421387 101.56445312 -17.40209961 102.39453125 C-18.41702794 104.02596227 -19.43078371 105.65812334 -20.44335938 107.29101562 C-27.03820197 117.90982997 -33.56277652 128.3707108 -41.94140625 137.703125 C-42.70839844 138.56421875 -43.47539062 139.4253125 -44.265625 140.3125 C-54.81096127 151.52010377 -67.99384699 159.54139187 -83.58691406 160.17163086 C-97.86176582 160.36257402 -109.78262637 156.13865378 -120.453125 146.4140625 C-127.53011858 139.04463116 -132.89336673 130.13964206 -132.9609375 119.6796875 C-131.84437866 101.60407461 -125.95038177 85.88576237 -116.37890625 70.640625 C-115.76611816 69.6496582 -115.15333008 68.65869141 -114.52197266 67.63769531 C-112.67196316 64.65300695 -110.80908044 61.67678492 -108.94140625 58.703125 C-108.40499512 57.8467041 -107.86858398 56.9902832 -107.31591797 56.10791016 C-104.84972321 52.1743962 -102.37121472 48.24904925 -99.87890625 44.33203125 C-97.86241937 41.16239963 -95.86434318 37.98213981 -93.87890625 34.79296875 C-68.63066994 -5.69009589 -68.63066994 -5.69009589 -49.94140625 -11.296875 C-33.59429254 -14.62018933 -13.71280197 -9.16026208 0 0 Z M-65.375 5.01171875 C-72.25869877 12.23906551 -77.64228873 20.28812637 -82.94140625 28.703125 C-83.48925781 29.57130859 -84.03710938 30.43949219 -84.6015625 31.33398438 C-87.74744509 36.32936936 -90.87433436 41.33621365 -93.98828125 46.3515625 C-96.6255605 50.59818446 -99.28226579 54.83157924 -101.95703125 59.0546875 C-122.66458985 89.75894741 -122.66458985 89.75894741 -126.359375 125.29296875 C-122.97763974 136.30291049 -114.99613085 144.3584209 -104.94140625 149.703125 C-95.27393347 154.70893615 -83.99735427 155.58524507 -73.5 152.78515625 C-50.60694851 143.75073363 -37.84431091 124.11915226 -25.43066406 104.09765625 C-23.1087376 100.36430301 -20.75476781 96.65235888 -18.37890625 92.953125 C-17.93200439 92.25550049 -17.48510254 91.55787598 -17.0246582 90.83911133 C-14.3766884 86.75748163 -11.57889654 82.85310774 -8.61352539 78.99707031 C2.52999341 64.45023479 10.09425293 46.41445799 8.05859375 27.703125 C6.37818418 18.23290981 2.82781119 10.17087883 -4.8046875 4.078125 C-23.63536142 -8.03960301 -48.41535796 -11.07680203 -65.375 5.01171875 Z " fill="#000000" transform="translate(313.94140625,177.296875)"/>
<path d="M0 0 C1.64671412 0.30782496 3.29235576 0.62139234 4.9375 0.9375 C5.85402344 1.11152344 6.77054688 1.28554688 7.71484375 1.46484375 C10 2 10 2 11 3 C10.62206515 6.90532683 10.23947487 10.2815754 9 14 C8.01 14 7.02 14 6 14 C6.33 12.02 6.66 10.04 7 8 C-6.34035846 16.02682585 -18.60875236 25.39865639 -30 36 C-31.24668915 37.06638287 -32.49662796 38.12897991 -33.75 39.1875 C-37.67867452 42.61208797 -41.37078854 46.2618099 -45.0625 49.9375 C-45.64032227 50.51072998 -46.21814453 51.08395996 -46.81347656 51.67456055 C-80.93518191 85.91723054 -115.65894551 134.44073924 -127 182 C-127.99 182 -128.98 182 -130 182 C-125.94646527 141.33101972 -91.43674809 98.29837912 -66 68 C-65.20335937 67.01773438 -64.40671875 66.03546875 -63.5859375 65.0234375 C-56.9789796 56.98311399 -49.77233483 49.55803392 -42.4375 42.1875 C-41.95480652 41.69963013 -41.47211304 41.21176025 -40.97479248 40.70910645 C-31.89579265 31.55343043 -22.13353947 23.46196452 -11.8125 15.75 C-11.16603516 15.26015625 -10.51957031 14.7703125 -9.85351562 14.265625 C-5.38522499 10.91552076 -0.77907222 7.88816346 4 5 C2.02 4.01 2.02 4.01 0 3 C0 2.01 0 1.02 0 0 Z " fill="#000000" transform="translate(560,432)"/>
<path d="M0 0 C0.66 0.33 1.32 0.66 2 1 C1.38306075 5.94726877 0.40026643 10.58210867 -0.93920898 15.39819336 C-1.13511659 16.10717427 -1.33102419 16.81615519 -1.53286839 17.54662037 C-2.18309384 19.8955446 -2.83954942 22.24267857 -3.49609375 24.58984375 C-3.96202712 26.26766208 -4.42759478 27.945582 -4.89282227 29.62359619 C-6.14344302 34.12990575 -7.39960084 38.63465435 -8.65693283 43.13909531 C-9.69786215 46.87092214 -10.73554008 50.60364959 -11.77317905 54.3363924 C-21.10705031 87.91194385 -30.52643355 121.46361305 -40 155 C-37.03 154.01 -37.03 154.01 -34 153 C-34.125 154.8125 -34.125 154.8125 -35 157 C-37.73501643 158.76256614 -39.84708148 159.93218126 -43.125 160.125 C-46.31461148 158.21123311 -47.37864903 155.30060733 -49 152 C-49 151.34 -49 150.68 -49 150 C-47.0625 150.375 -47.0625 150.375 -45 151 C-44.67 151.66 -44.34 152.32 -44 153 C-40.97362573 145.50577935 -38.90575008 137.76909074 -36.78125 129.984375 C-36.36662531 128.47614489 -35.95163787 126.96801445 -35.53631592 125.4599762 C-34.64937726 122.23717599 -33.76458096 119.01379858 -32.88146973 115.78994751 C-31.49128766 110.71581381 -30.09548371 105.64323867 -28.69824219 100.57104492 C-28.46335461 99.71834487 -28.22846703 98.86564482 -27.98646164 97.98710537 C-27.50807079 96.25052481 -27.0296555 94.51395099 -26.55121613 92.7773838 C-25.82402352 90.13745413 -25.09724328 87.49741121 -24.37054443 84.85734558 C-19.77660197 68.17078815 -15.15430607 51.49220154 -10.50610352 34.82067871 C-9.66827357 31.81521606 -8.83224499 28.80926139 -7.99780273 25.80285645 C-7.02116381 22.2842241 -6.04140538 18.76647662 -5.05905914 15.24943352 C-4.52847791 13.34686938 -4.0011068 11.44341093 -3.47381592 9.53993225 C-3.003862 7.8617466 -3.003862 7.8617466 -2.52441406 6.1496582 C-2.25244202 5.17309769 -1.98046997 4.19653717 -1.70025635 3.19038391 C-1 1 -1 1 0 0 Z " fill="#000000" transform="translate(533,148)"/>
<path d="M0 0 C1.4540625 0.0309375 1.4540625 0.0309375 2.9375 0.0625 C5.0625 4.6875 5.0625 4.6875 3.9375 8.0625 C4.26300502 9.73071323 4.59596063 11.39749557 4.9375 13.0625 C4.6075 13.7225 4.2775 14.3825 3.9375 15.0625 C1.125 15.9375 1.125 15.9375 -2.0625 16.0625 C-4.4375 14.125 -4.4375 14.125 -6.0625 12.0625 C-2.43923261 10.8547442 -1.42103631 11.51938872 1.9375 13.0625 C1.9375 11.7425 1.9375 10.4225 1.9375 9.0625 C0.6175 9.0625 -0.7025 9.0625 -2.0625 9.0625 C-2.0625 8.0725 -2.0625 7.0825 -2.0625 6.0625 C-0.7425 6.0625 0.5775 6.0625 1.9375 6.0625 C1.6075 5.0725 1.2775 4.0825 0.9375 3.0625 C-1.0425 3.7225 -3.0225 4.3825 -5.0625 5.0625 C-3.9375 0.08035714 -3.9375 0.08035714 0 0 Z " fill="#000000" transform="translate(510.0625,538.9375)"/>
<path d="M0 0 C3.0625 0.1875 3.0625 0.1875 5.0625 2.1875 C4.90004442 5.92397845 4.47466356 7.71288742 2 10.5625 C1.360625 11.09875 0.72125 11.635 0.0625 12.1875 C1.7125 12.5175 3.3625 12.8475 5.0625 13.1875 C5.0625 13.8475 5.0625 14.5075 5.0625 15.1875 C1.7625 15.1875 -1.5375 15.1875 -4.9375 15.1875 C-2.9375 11.1875 -2.9375 11.1875 -0.8125 8.625 C1.36735538 6.30372611 1.36735538 6.30372611 1.0625 3.1875 C0.4025 3.1875 -0.2575 3.1875 -0.9375 3.1875 C-1.2675 3.8475 -1.5975 4.5075 -1.9375 5.1875 C-2.9275 5.1875 -3.9175 5.1875 -4.9375 5.1875 C-3.82120474 0.24390669 -3.82120474 0.24390669 0 0 Z " fill="#000000" transform="translate(540.9375,222.8125)"/>
<path d="M0 0 C0 4.95 0 9.9 0 15 C-0.99 15 -1.98 15 -3 15 C-3 11.37 -3 7.74 -3 4 C-3.99 4.33 -4.98 4.66 -6 5 C-5.625 3.0625 -5.625 3.0625 -5 1 C-3 0 -3 0 0 0 Z " fill="#000000" transform="translate(497,539)"/>
<path d="M0 0 C0 4.95 0 9.9 0 15 C-0.99 15 -1.98 15 -3 15 C-3 11.37 -3 7.74 -3 4 C-3.99 4.33 -4.98 4.66 -6 5 C-5.625 3.0625 -5.625 3.0625 -5 1 C-3 0 -3 0 0 0 Z " fill="#000000" transform="translate(25,472)"/>
<path d="M0 0 C0 4.95 0 9.9 0 15 C-0.99 15 -1.98 15 -3 15 C-3 11.37 -3 7.74 -3 4 C-3.99 4.33 -4.98 4.66 -6 5 C-5.625 3.0625 -5.625 3.0625 -5 1 C-3 0 -3 0 0 0 Z " fill="#000000" transform="translate(528,223)"/>
<path d="M0 0 C0.99 0.33 1.98 0.66 3 1 C1.55873214 4.36295835 -0.20592655 6.62927102 -3 9 C-3.99 9 -4.98 9 -6 9 C-5.52797514 4.75177626 -3.03344482 2.80010291 0 0 Z " fill="#000000" transform="translate(203,114)"/>
<path d="M0 0 C0.99 0.33 1.98 0.66 3 1 C1.47291037 4.43595166 -0.59927045 7.11912454 -3 10 C-3.99 9.67 -4.98 9.34 -6 9 C-4.47291037 5.56404834 -2.40072955 2.88087546 0 0 Z " fill="#000000" transform="translate(311,627)"/>
<path d="M0 0 C0.99 0.33 1.98 0.66 3 1 C1.47291037 4.43595166 -0.59927045 7.11912454 -3 10 C-3.99 9.67 -4.98 9.34 -6 9 C-4.47291037 5.56404834 -2.40072955 2.88087546 0 0 Z " fill="#000000" transform="translate(350,581)"/>
<path d="M0 0 C0.99 0.33 1.98 0.66 3 1 C1.47291037 4.43595166 -0.59927045 7.11912454 -3 10 C-3.99 9.67 -4.98 9.34 -6 9 C-4.47291037 5.56404834 -2.40072955 2.88087546 0 0 Z " fill="#000000" transform="translate(363,566)"/>
<path d="M0 0 C0.99 0.33 1.98 0.66 3 1 C1.47291037 4.43595166 -0.59927045 7.11912454 -3 10 C-3.99 9.67 -4.98 9.34 -6 9 C-4.47291037 5.56404834 -2.40072955 2.88087546 0 0 Z " fill="#000000" transform="translate(402,520)"/>
<path d="M0 0 C0.99 0.33 1.98 0.66 3 1 C1.47291037 4.43595166 -0.59927045 7.11912454 -3 10 C-3.99 9.67 -4.98 9.34 -6 9 C-4.47291037 5.56404834 -2.40072955 2.88087546 0 0 Z " fill="#000000" transform="translate(454,459)"/>
<path d="M0 0 C0.99 0.33 1.98 0.66 3 1 C1.47291037 4.43595166 -0.59927045 7.11912454 -3 10 C-3.99 9.67 -4.98 9.34 -6 9 C-4.47291037 5.56404834 -2.40072955 2.88087546 0 0 Z " fill="#000000" transform="translate(493,413)"/>
<path d="M0 0 C0.99 0 1.98 0 3 0 C2.01 3.63 1.02 7.26 0 11 C-0.99 10.67 -1.98 10.34 -3 10 C-2.69201674 8.51988629 -2.378482 7.04092675 -2.0625 5.5625 C-1.88847656 4.73878906 -1.71445312 3.91507812 -1.53515625 3.06640625 C-1 1 -1 1 0 0 Z " fill="#000000" transform="translate(363,413)"/>
<path d="M0 0 C0.33 0.99 0.66 1.98 1 3 C-0.26239712 3.86658615 -1.53527501 4.71792059 -2.8125 5.5625 C-3.87404297 6.27599609 -3.87404297 6.27599609 -4.95703125 7.00390625 C-7 8 -7 8 -10 7 C-10 6.34 -10 5.68 -10 5 C-8.3203125 3.7109375 -8.3203125 3.7109375 -6.125 2.375 C-5.40570313 1.92898438 -4.68640625 1.48296875 -3.9453125 1.0234375 C-2 0 -2 0 0 0 Z " fill="#000000" transform="translate(235,400)"/>
<path d="M0 0 C0.99 0.33 1.98 0.66 3 1 C1.47291037 4.43595166 -0.59927045 7.11912454 -3 10 C-3.99 9.67 -4.98 9.34 -6 9 C-4.47291037 5.56404834 -2.40072955 2.88087546 0 0 Z " fill="#000000" transform="translate(506,398)"/>
<path d="M0 0 C0.66 0.33 1.32 0.66 2 1 C2 1.99 2 2.98 2 4 C0.57421875 5.421875 0.57421875 5.421875 -1.3125 6.75 C-1.92738281 7.19859375 -2.54226562 7.6471875 -3.17578125 8.109375 C-5 9 -5 9 -8 8 C-8 7.34 -8 6.68 -8 6 C-6.25 4.4921875 -6.25 4.4921875 -4 2.875 C-3.2575 2.33617187 -2.515 1.79734375 -1.75 1.2421875 C-1.1725 0.83226562 -0.595 0.42234375 0 0 Z " fill="#000000" transform="translate(250,388)"/>
<path d="M0 0 C0.99 0.33 1.98 0.66 3 1 C2.01 4.3 1.02 7.6 0 11 C-0.99 11 -1.98 11 -3 11 C-2.69078116 9.54096742 -2.37751201 8.08279278 -2.0625 6.625 C-1.88847656 5.81289063 -1.71445312 5.00078125 -1.53515625 4.1640625 C-1 2 -1 2 0 0 Z " fill="#000000" transform="translate(375,375)"/>
<path d="M0 0 C0.99 0.33 1.98 0.66 3 1 C1.51218185 4.78717347 -0.61988409 6.77407001 -4 9 C-4.99 8.67 -5.98 8.34 -7 8 C-6.02133662 6.85373678 -5.04205413 5.70800212 -4.0625 4.5625 C-3.51722656 3.92441406 -2.97195313 3.28632813 -2.41015625 2.62890625 C-1.63204305 1.73008851 -0.84063472 0.84063472 0 0 Z " fill="#000000" transform="translate(281,362)"/>
<path d="M0 0 C0.99 0.33 1.98 0.66 3 1 C1.47291037 4.43595166 -0.59927045 7.11912454 -3 10 C-3.99 9.67 -4.98 9.34 -6 9 C-4.47291037 5.56404834 -2.40072955 2.88087546 0 0 Z " fill="#000000" transform="translate(545,352)"/>
<path d="M0 0 C0.99 0 1.98 0 3 0 C2.53199289 4.05606165 2.12046792 7.46588679 0 11 C-0.99 10.67 -1.98 10.34 -3 10 C-2.01 6.7 -1.02 3.4 0 0 Z " fill="#000000" transform="translate(399,300)"/>
<path d="M0 0 C0.66 0.33 1.32 0.66 2 1 C0.68775452 4.93673644 -0.91910327 7.22719294 -4 10 C-4.99 9.67 -5.98 9.34 -7 9 C-2.85714286 2.57142857 -2.85714286 2.57142857 0 0 Z " fill="#000000" transform="translate(190,128)"/>
<path d="M0 0 C0.99 0.33 1.98 0.66 3 1 C1.35 4.3 -0.3 7.6 -2 11 C-2.99 10.67 -3.98 10.34 -5 10 C-3.66511872 6.40608886 -2.03977277 3.24509304 0 0 Z " fill="#000000" transform="translate(463,92)"/>
<path d="M0 0 C0.99 0 1.98 0 3 0 C2.01 3.63 1.02 7.26 0 11 C-0.99 10.67 -1.98 10.34 -3 10 C-2.69201674 8.51988629 -2.378482 7.04092675 -2.0625 5.5625 C-1.88847656 4.73878906 -1.71445312 3.91507813 -1.53515625 3.06640625 C-1 1 -1 1 0 0 Z " fill="#000000" transform="translate(302,601)"/>
<path d="M0 0 C0.99 0.33 1.98 0.66 3 1 C2.01 4.3 1.02 7.6 0 11 C-0.99 10.67 -1.98 10.34 -3 10 C-2.01 6.7 -1.02 3.4 0 0 Z " fill="#000000" transform="translate(314,563)"/>
<path d="M0 0 C0.99 0 1.98 0 3 0 C2.53199289 4.05606165 2.12046792 7.46588679 0 11 C-0.99 10.34 -1.98 9.68 -3 9 C-2.01 6.03 -1.02 3.06 0 0 Z " fill="#000000" transform="translate(338,488)"/>
<path d="M0 0 C-1 3 -1 3 -3.8125 4.6875 C-7 6 -7 6 -11 6 C-10 3 -10 3 -7.1875 1.3125 C-4 0 -4 0 0 0 Z " fill="#000000" transform="translate(218,411)"/>
<path d="M0 0 C-0.38520564 2.53910197 -0.70097943 3.72751123 -2.62890625 5.484375 C-3.26699219 5.90203125 -3.90507812 6.3196875 -4.5625 6.75 C-5.20316406 7.17796875 -5.84382813 7.6059375 -6.50390625 8.046875 C-7.24447266 8.51867187 -7.24447266 8.51867187 -8 9 C-8.33 7.68 -8.66 6.36 -9 5 C-7.87926138 4.16094435 -6.75325453 3.32892169 -5.625 2.5 C-4.99851562 2.0359375 -4.37203125 1.571875 -3.7265625 1.09375 C-2 0 -2 0 0 0 Z " fill="#000000" transform="translate(268,376)"/>
<path d="M0 0 C0.99 0 1.98 0 3 0 C3.99 3.3 4.98 6.6 6 10 C5.01 10.33 4.02 10.66 3 11 C0 4.5 0 4.5 0 0 Z " fill="#000000" transform="translate(96,376)"/>
<path d="M0 0 C0.66 0.33 1.32 0.66 2 1 C0.47291037 4.43595166 -1.59927045 7.11912454 -4 10 C-4.99 9.67 -5.98 9.34 -7 9 C-2.85714286 2.57142857 -2.85714286 2.57142857 0 0 Z " fill="#000000" transform="translate(324,317)"/>
<path d="M0 0 C0.99 0.66 1.98 1.32 3 2 C1.35 4.97 -0.3 7.94 -2 11 C-2.99 10.67 -3.98 10.34 -5 10 C-3.66511872 6.40608886 -2.03977277 3.24509304 0 0 Z " fill="#000000" transform="translate(357,266)"/>
<path d="M0 0 C0.99 0.33 1.98 0.66 3 1 C2.01 4.3 1.02 7.6 0 11 C-0.99 10.67 -1.98 10.34 -3 10 C-2.69201674 8.51988629 -2.378482 7.04092675 -2.0625 5.5625 C-1.88847656 4.73878906 -1.71445312 3.91507813 -1.53515625 3.06640625 C-1 1 -1 1 0 0 Z " fill="#000000" transform="translate(424,225)"/>
<path d="M0 0 C0.99 0.66 1.98 1.32 3 2 C1.35 4.97 -0.3 7.94 -2 11 C-2.99 10.67 -3.98 10.34 -5 10 C-3.66511872 6.40608886 -2.03977277 3.24509304 0 0 Z " fill="#000000" transform="translate(410,179)"/>
<path d="M0 0 C0.99 0.33 1.98 0.66 3 1 C2.34 3.97 1.68 6.94 1 10 C-0.32 10 -1.64 10 -3 10 C-2.01 6.7 -1.02 3.4 0 0 Z " fill="#000000" transform="translate(460,112)"/>
<path d="M0 0 C4.37859255 0.50522222 6.81651224 3.17827222 10 6 C9.67 6.66 9.34 7.32 9 8 C5.56801397 6.76067171 2.69674368 5.49698489 0 3 C0 2.01 0 1.02 0 0 Z " fill="#000000" transform="translate(370,72)"/>
<path d="M0 0 C-1.52708963 3.43595166 -3.59927045 6.11912454 -6 9 C-6.99 8.67 -7.98 8.34 -9 8 C-4.45945946 0 -4.45945946 0 0 0 Z " fill="#000000" transform="translate(301,643)"/>
<path d="M0 0 C0.66 0.33 1.32 0.66 2 1 C1.54177532 4.46941546 1.10868317 7.67395049 0 11 C-0.99 11 -1.98 11 -3 11 C-2.53199289 6.94393835 -2.12046792 3.53411321 0 0 Z " fill="#000000" transform="translate(290,638)"/>
<path d="M0 0 C0.99 0.33 1.98 0.66 3 1 C-0.34969325 6.90184049 -0.34969325 6.90184049 -3 9 C-3.99 9 -4.98 9 -6 9 C-4.47291037 5.56404834 -2.40072955 2.88087546 0 0 Z " fill="#000000" transform="translate(324,612)"/>
<path d="M0 0 C0.99 0 1.98 0 3 0 C2.34 2.97 1.68 5.94 1 9 C-0.32 9.33 -1.64 9.66 -3 10 C-2.01 6.7 -1.02 3.4 0 0 Z " fill="#000000" transform="translate(326,526)"/>
<path d="M0 0 C0.99 0.33 1.98 0.66 3 1 C-0.34969325 6.90184049 -0.34969325 6.90184049 -3 9 C-3.99 9 -4.98 9 -6 9 C-4.47291037 5.56404834 -2.40072955 2.88087546 0 0 Z " fill="#000000" transform="translate(415,505)"/>
<path d="M0 0 C-1.52708963 3.43595166 -3.59927045 6.11912454 -6 9 C-6.99 8.67 -7.98 8.34 -9 8 C-4.45945946 0 -4.45945946 0 0 0 Z " fill="#000000" transform="translate(444,475)"/>
<path d="M0 0 C0.66 0.33 1.32 0.66 2 1 C1.54177532 4.46941546 1.10868317 7.67395049 0 11 C-0.99 11 -1.98 11 -3 11 C-2.53199289 6.94393835 -2.12046792 3.53411321 0 0 Z " fill="#000000" transform="translate(351,450)"/>
<path d="M0 0 C0.99 0.33 1.98 0.66 3 1 C-0.34969325 6.90184049 -0.34969325 6.90184049 -3 9 C-3.99 9 -4.98 9 -6 9 C-4.47291037 5.56404834 -2.40072955 2.88087546 0 0 Z " fill="#000000" transform="translate(467,444)"/>
<path d="M0 0 C3.3 0.33 6.6 0.66 10 1 C10.33 1.99 10.66 2.98 11 4 C9.741875 4.020625 8.48375 4.04125 7.1875 4.0625 C6.47980469 4.07410156 5.77210938 4.08570313 5.04296875 4.09765625 C3 4 3 4 0 3 C0 2.01 0 1.02 0 0 Z " fill="#000000" transform="translate(149,428)"/>
<path d="M0 0 C3.86463725 0.41406828 6.12722 2.52621722 9 5 C8.67 5.99 8.34 6.98 8 8 C4.18315774 6.44499019 1.80804268 3.96404505 -1 1 C-0.67 0.67 -0.34 0.34 0 0 Z " fill="#000000" transform="translate(116,409)"/>
<path d="M0 0 C0.99 0 1.98 0 3 0 C2.34 2.97 1.68 5.94 1 9 C-0.32 9.33 -1.64 9.66 -3 10 C-2.01 6.7 -1.02 3.4 0 0 Z " fill="#000000" transform="translate(387,338)"/>
<path d="M0 0 C0.99 0.33 1.98 0.66 3 1 C-0.34969325 6.90184049 -0.34969325 6.90184049 -3 9 C-3.99 9 -4.98 9 -6 9 C-4.47291037 5.56404834 -2.40072955 2.88087546 0 0 Z " fill="#000000" transform="translate(558,337)"/>
<path d="M0 0 C-0.50522222 4.37859255 -3.17827222 6.81651224 -6 10 C-6.99 9.01 -7.98 8.02 -9 7 C-7.88121617 5.82737096 -6.75476949 4.66204862 -5.625 3.5 C-4.68527344 2.52546875 -4.68527344 2.52546875 -3.7265625 1.53125 C-2 0 -2 0 0 0 Z " fill="#000000" transform="translate(312,333)"/>
<path d="M0 0 C0.99 0.33 1.98 0.66 3 1 C1.80100302 4.0831351 0.52299523 7.06279492 -1 10 C-1.99 10 -2.98 10 -4 10 C-3.43454163 6.04179141 -2.19097652 3.3340947 0 0 Z " fill="#000000" transform="translate(367,249)"/>
<path d="M0 0 C0.99 0 1.98 0 3 0 C2.43454163 3.95820859 1.19097652 6.6659053 -1 10 C-1.99 9.67 -2.98 9.34 -4 9 C-2.68 6.03 -1.36 3.06 0 0 Z " fill="#000000" transform="translate(114,244)"/>
<path d="M0 0 C0.99 0 1.98 0 3 0 C1.66511872 3.59391114 0.03977277 6.75490696 -2 10 C-2.99 9.67 -3.98 9.34 -5 9 C-4.3566152 7.686298 -3.71021785 6.37407102 -3.0625 5.0625 C-2.70285156 4.33160156 -2.34320313 3.60070312 -1.97265625 2.84765625 C-1 1 -1 1 0 0 Z " fill="#000000" transform="translate(378,232)"/>
<path d="M0 0 C2.34191563 2.1290142 3.83554954 4.04408729 5 7 C5 8.32 5 9.64 5 11 C2 10 2 10 0.25 7.1875 C-0.98589446 4.03596914 -1.28222189 3.03070628 0 0 Z " fill="#000000" transform="translate(408,117)"/>
<path d="M0 0 C3.79379058 1.49041773 5.68343758 3.69062512 8 7 C8 7.66 8 8.32 8 9 C5.46089803 8.61479436 4.27248877 8.29902057 2.515625 6.37109375 C2.09796875 5.73300781 1.6803125 5.09492187 1.25 4.4375 C0.82203125 3.79683594 0.3940625 3.15617187 -0.046875 2.49609375 C-0.51867187 1.75552734 -0.51867187 1.75552734 -1 1 C-0.67 0.67 -0.34 0.34 0 0 Z " fill="#000000" transform="translate(385,85)"/>
<path d="M0 0 C0.33 0.99 0.66 1.98 1 3 C-0.28813342 3.83878455 -1.58063256 4.67086783 -2.875 5.5 C-3.59429687 5.9640625 -4.31359375 6.428125 -5.0546875 6.90625 C-7 8 -7 8 -9 8 C-8.875 6.25 -8.875 6.25 -8 4 C-2.77777778 0 -2.77777778 0 0 0 Z " fill="#000000" transform="translate(251,77)"/>
<path d="M0 0 C3.40312738 1.05875074 6.01353231 2.00902154 9 4 C9 4.99 9 5.98 9 7 C5.51329166 5.8905928 2.22515763 4.73662334 -1 3 C-0.67 2.01 -0.34 1.02 0 0 Z " fill="#000000" transform="translate(354,62)"/>
<path d="M0 0 C0 0.99 0 1.98 0 3 C-3.3 3.66 -6.6 4.32 -10 5 C-10 3.68 -10 2.36 -10 1 C-6.56484998 0.37542727 -3.50935186 0 0 0 Z " fill="#000000" transform="translate(306,56)"/>
<path d="M0 0 C0.99 0.33 1.98 0.66 3 1 C0.03 4.96 0.03 4.96 -3 9 C-3.99 8.67 -4.98 8.34 -6 8 C-2.25 2.25 -2.25 2.25 0 0 Z " fill="#000000" transform="translate(337,597)"/>
<path d="M0 0 C0.99 0.33 1.98 0.66 3 1 C-1 7.57142857 -1 7.57142857 -5 9 C-5 4.61031544 -2.87194899 3.23094261 0 0 Z " fill="#000000" transform="translate(376,551)"/>
<path d="M0 0 C0.99 0 1.98 0 3 0 C1.47291037 3.43595166 -0.59927045 6.11912454 -3 9 C-3.99 8.67 -4.98 8.34 -6 8 C-2.25 2.25 -2.25 2.25 0 0 Z " fill="#000000" transform="translate(389,536)"/>
<path d="M0 0 C0.99 0.33 1.98 0.66 3 1 C-1 7.57142857 -1 7.57142857 -5 9 C-5 4.61031544 -2.87194899 3.23094261 0 0 Z " fill="#000000" transform="translate(428,490)"/>
<path d="M0 0 C0.99 0.33 1.98 0.66 3 1 C0.03 4.96 0.03 4.96 -3 9 C-3.99 8.67 -4.98 8.34 -6 8 C-2.25 2.25 -2.25 2.25 0 0 Z " fill="#000000" transform="translate(480,429)"/>
<path d="M0 0 C-0.33 0.99 -0.66 1.98 -1 3 C-4.3 3.66 -7.6 4.32 -11 5 C-10.67 3.68 -10.34 2.36 -10 1 C-6.59437148 0.22157062 -3.49234244 -0.09978121 0 0 Z " fill="#000000" transform="translate(180,426)"/>
<path d="M0 0 C0 0.99 0 1.98 0 3 C-6.4 6.07692308 -6.4 6.07692308 -9.4375 5.6875 C-9.953125 5.460625 -10.46875 5.23375 -11 5 C-9.70976282 2.41952564 -8.72910609 2.32977036 -6.0625 1.375 C-5.35222656 1.11460937 -4.64195312 0.85421875 -3.91015625 0.5859375 C-2 0 -2 0 0 0 Z " fill="#000000" transform="translate(199,419)"/>
<path d="M0 0 C1.75 0.125 1.75 0.125 4 1 C8 6.22222222 8 6.22222222 8 9 C6.25 8.875 6.25 8.875 4 8 C0 2.77777778 0 2.77777778 0 0 Z " fill="#000000" transform="translate(103,394)"/>
<path d="M0 0 C0.99 0.33 1.98 0.66 3 1 C-1 7.57142857 -1 7.57142857 -5 9 C-5 4.61031544 -2.87194899 3.23094261 0 0 Z " fill="#000000" transform="translate(519,383)"/>
<path d="M0 0 C0.99 0 1.98 0 3 0 C1.47291037 3.43595166 -0.59927045 6.11912454 -3 9 C-3.99 8.67 -4.98 8.34 -6 8 C-2.25 2.25 -2.25 2.25 0 0 Z " fill="#000000" transform="translate(532,368)"/>
<path d="M0 0 C0.99 0 1.98 0 3 0 C3.33 3.63 3.66 7.26 4 11 C3.01 11 2.02 11 1 11 C-0.17571451 7.32589215 -0.07366746 3.83070817 0 0 Z " fill="#000000" transform="translate(93,357)"/>
<path d="M0 0 C0.99 0 1.98 0 3 0 C3 3.63 3 7.26 3 11 C2.01 10.67 1.02 10.34 0 10 C0 6.7 0 3.4 0 0 Z " fill="#000000" transform="translate(93,338)"/>
<path d="M0 0 C0.66 0.33 1.32 0.66 2 1 C0.03030303 7.81818182 0.03030303 7.81818182 -3 10 C-3.99 10 -4.98 10 -6 10 C-4.34832443 6.4213696 -2.21713508 3.25179812 0 0 Z " fill="#000000" transform="translate(336,301)"/>
<path d="M0 0 C0.99 0 1.98 0 3 0 C2.54177532 3.46941546 2.10868317 6.67395049 1 10 C0.01 10 -0.98 10 -2 10 C-1.54177532 6.53058454 -1.10868317 3.32604951 0 0 Z " fill="#000000" transform="translate(411,263)"/>
<path d="M0 0 C0.99 0 1.98 0 3 0 C1.84414715 3.91211733 0.64465038 6.8745041 -2 10 C-2.99 9.67 -3.98 9.34 -5 9 C-3.35 6.03 -1.7 3.06 0 0 Z " fill="#000000" transform="translate(399,197)"/>
<path d="M0 0 C0.99 0.33 1.98 0.66 3 1 C1.7508258 4.45925163 0.32472205 7.14693203 -2 10 C-2.99 9.67 -3.98 9.34 -5 9 C-3.35 6.03 -1.7 3.06 0 0 Z " fill="#000000" transform="translate(153,175)"/>
<path d="M0 0 C0.66 0.33 1.32 0.66 2 1 C0.7508258 4.45925163 -0.67527795 7.14693203 -3 10 C-3.99 9.67 -4.98 9.34 -6 9 C-2.25 2.25 -2.25 2.25 0 0 Z " fill="#000000" transform="translate(165,159)"/>
<path d="M0 0 C0.99 0 1.98 0 3 0 C2.42647107 3.87132028 0.51295648 6.08172796 -2 9 C-2.99 8.67 -3.98 8.34 -5 8 C-1.125 1.125 -1.125 1.125 0 0 Z " fill="#000000" transform="translate(176,144)"/>
<path d="M0 0 C0.99 0 1.98 0 3 0 C1.84414715 3.91211733 0.64465038 6.8745041 -2 10 C-2.99 9.67 -3.98 9.34 -5 9 C-3.35 6.03 -1.7 3.06 0 0 Z " fill="#000000" transform="translate(452,110)"/>
<path d="M0 0 C0.99 0 1.98 0 3 0 C5.25 2.75 5.25 2.75 7 6 C6.75 8.375 6.75 8.375 6 10 C3.66475218 7.74259377 1.81294927 5.7194239 0 3 C0 2.01 0 1.02 0 0 Z " fill="#000000" transform="translate(397,101)"/>
<path d="M0 0 C-0.33 0.99 -0.66 1.98 -1 3 C-3.06640625 3.73046875 -3.06640625 3.73046875 -5.5625 4.1875 C-6.38878906 4.34605469 -7.21507812 4.50460938 -8.06640625 4.66796875 C-9.02353516 4.83232422 -9.02353516 4.83232422 -10 5 C-10 4.01 -10 3.02 -10 2 C-8.71211992 1.46987262 -7.41953322 0.9511671 -6.125 0.4375 C-5.40570313 0.14746094 -4.68640625 -0.14257812 -3.9453125 -0.44140625 C-2 -1 -2 -1 0 0 Z " fill="#000000" transform="translate(287,61)"/>
<path d="M0 0 C3.3 0.66 6.6 1.32 10 2 C10 2.99 10 3.98 10 5 C2.375 4.125 2.375 4.125 -1 3 C-0.67 2.01 -0.34 1.02 0 0 Z " fill="#000000" transform="translate(335,56)"/>
<path d="M0 0 C3.63 0 7.26 0 11 0 C10.67 0.99 10.34 1.98 10 3 C6.7 3 3.4 3 0 3 C0 2.01 0 1.02 0 0 Z " fill="#000000" transform="translate(315,55)"/>
<path d="M0 0 C0.99 0.66 1.98 1.32 3 2 C2.01 4.97 1.02 7.94 0 11 C-0.99 11 -1.98 11 -3 11 C-2.69078116 9.54096742 -2.37751201 8.08279278 -2.0625 6.625 C-1.88847656 5.81289063 -1.71445312 5.00078125 -1.53515625 4.1640625 C-1 2 -1 2 0 0 Z " fill="#000000" transform="translate(296,619)"/>
<path d="M0 0 C0.99 0.33 1.98 0.66 3 1 C2.01 4.3 1.02 7.6 0 11 C-0.99 10.67 -1.98 10.34 -3 10 C-2.01 6.7 -1.02 3.4 0 0 Z " fill="#000000" transform="translate(308,582)"/>
<path d="M0 0 C0.99 0.33 1.98 0.66 3 1 C2.01 4.3 1.02 7.6 0 11 C-0.99 11 -1.98 11 -3 11 C-2.01 7.37 -1.02 3.74 0 0 Z " fill="#000000" transform="translate(320,544)"/>
<path d="M0 0 C0.99 0 1.98 0 3 0 C2.71758359 1.46015291 2.42373386 2.91809793 2.125 4.375 C1.96257812 5.18710937 1.80015625 5.99921875 1.6328125 6.8359375 C1 9 1 9 -1 11 C-1.66 10.34 -2.32 9.68 -3 9 C-2.01 6.03 -1.02 3.06 0 0 Z " fill="#000000" transform="translate(332,507)"/>
<path d="M0 0 C0.99 0.33 1.98 0.66 3 1 C2.01 4.3 1.02 7.6 0 11 C-0.99 10.67 -1.98 10.34 -3 10 C-2.01 6.7 -1.02 3.4 0 0 Z " fill="#000000" transform="translate(369,394)"/>
<path d="M0 0 C0.99 0.33 1.98 0.66 3 1 C2.01 4.3 1.02 7.6 0 11 C-0.99 11 -1.98 11 -3 11 C-2.01 7.37 -1.02 3.74 0 0 Z " fill="#000000" transform="translate(381,356)"/>
<path d="M0 0 C0.66 0 1.32 0 2 0 C1.52797514 4.24822374 -0.96655518 6.19989709 -4 9 C-4.99 8.67 -5.98 8.34 -7 8 C-6.02133662 6.85373678 -5.04205413 5.70800212 -4.0625 4.5625 C-3.51722656 3.92441406 -2.97195313 3.28632813 -2.41015625 2.62890625 C-1.63204305 1.73008851 -0.84063472 0.84063472 0 0 Z " fill="#000000" transform="translate(296,348)"/>
<path d="M0 0 C0.99 0 1.98 0 3 0 C2.71758359 1.46015291 2.42373386 2.91809793 2.125 4.375 C1.96257812 5.18710937 1.80015625 5.99921875 1.6328125 6.8359375 C1 9 1 9 -1 11 C-1.66 10.34 -2.32 9.68 -3 9 C-2.01 6.03 -1.02 3.06 0 0 Z " fill="#000000" transform="translate(393,319)"/>
<path d="M0 0 C0.99 0.33 1.98 0.66 3 1 C1.68 3.64 0.36 6.28 -1 9 C-2.32 9 -3.64 9 -5 9 C-3.35 6.03 -1.7 3.06 0 0 Z " fill="#000000" transform="translate(346,284)"/>
<path d="M0 0 C0.99 0 1.98 0 3 0 C2.01 3.3 1.02 6.6 0 10 C-0.99 10 -1.98 10 -3 10 C-2.69201674 8.51988629 -2.378482 7.04092675 -2.0625 5.5625 C-1.88847656 4.73878906 -1.71445313 3.91507812 -1.53515625 3.06640625 C-1 1 -1 1 0 0 Z " fill="#000000" transform="translate(106,262)"/>
<path d="M0 0 C0.99 0.33 1.98 0.66 3 1 C1.80100302 4.0831351 0.52299523 7.06279492 -1 10 C-1.99 10 -2.98 10 -4 10 C-2.8905928 6.51329166 -1.73662334 3.22515763 0 0 Z " fill="#000000" transform="translate(123,226)"/>
<path d="M0 0 C0.66 0.33 1.32 0.66 2 1 C0.79157144 5.43090471 -0.51668565 7.98112756 -4 11 C-5 8 -5 8 -4.00390625 5.95703125 C-3.52824219 5.24933594 -3.05257813 4.54164063 -2.5625 3.8125 C-2.08941406 3.09707031 -1.61632812 2.38164062 -1.12890625 1.64453125 C-0.75636719 1.10183594 -0.38382812 0.55914062 0 0 Z " fill="#000000" transform="translate(389,214)"/>
<path d="M0 0 C0.66 0 1.32 0 2 0 C1.43454163 3.95820859 0.19097652 6.6659053 -2 10 C-2.99 9.67 -3.98 9.34 -5 9 C-4.3566152 7.686298 -3.71021785 6.37407102 -3.0625 5.0625 C-2.70285156 4.33160156 -2.34320313 3.60070312 -1.97265625 2.84765625 C-1 1 -1 1 0 0 Z " fill="#000000" transform="translate(133,209)"/>
<path d="M0 0 C0.99 0.33 1.98 0.66 3 1 C2.01 4.3 1.02 7.6 0 11 C-0.99 10.67 -1.98 10.34 -3 10 C-2.01 6.7 -1.02 3.4 0 0 Z " fill="#000000" transform="translate(430,206)"/>
<path d="M0 0 C0.66 0 1.32 0 2 0 C1.43454163 3.95820859 0.19097652 6.6659053 -2 10 C-2.99 9.67 -3.98 9.34 -5 9 C-3.7580393 5.56072421 -2.44259716 2.74792181 0 0 Z " fill="#000000" transform="translate(143,192)"/>
<path d="M0 0 C0.66 0.33 1.32 0.66 2 1 C0.49776416 5.20626034 -2.28550034 6.73900021 -6 9 C-6 5 -6 5 -4.6875 3.515625 C-3.125 2.34375 -1.5625 1.171875 0 0 Z " fill="#000000" transform="translate(233,88)"/>
<path d="M0 0 C0 0.66 0 1.32 0 2 C-1.28913487 2.67154933 -2.58140204 3.33708859 -3.875 4 C-4.59429687 4.37125 -5.31359375 4.7425 -6.0546875 5.125 C-8 6 -8 6 -10 6 C-10.33 5.01 -10.66 4.02 -11 3 C-9.73581754 2.30034557 -8.46334598 1.61565237 -7.1875 0.9375 C-6.47980469 0.55464844 -5.77210938 0.17179687 -5.04296875 -0.22265625 C-3 -1 -3 -1 0 0 Z " fill="#000000" transform="translate(269,69)"/>
<path d="M0 0 C0.66 0.33 1.32 0.66 2 1 C1.745504 2.48206495 1.47088238 3.96068615 1.1875 5.4375 C1.03667969 6.26121094 0.88585937 7.08492188 0.73046875 7.93359375 C0.48941406 8.61550781 0.24835938 9.29742187 0 10 C-0.99 10.33 -1.98 10.66 -3 11 C-2.53199289 6.94393835 -2.12046792 3.53411321 0 0 Z " fill="#000000" transform="translate(345,469)"/>
<path d="M0 0 C0.99 0.33 1.98 0.66 3 1 C2.01 3.97 1.02 6.94 0 10 C-0.99 10 -1.98 10 -3 10 C-2.69201674 8.51988629 -2.378482 7.04092675 -2.0625 5.5625 C-1.88847656 4.73878906 -1.71445312 3.91507812 -1.53515625 3.06640625 C-1 1 -1 1 0 0 Z " fill="#000000" transform="translate(357,432)"/>
<path d="M0 0 C0.66 0.33 1.32 0.66 2 1 C1.745504 2.48206495 1.47088238 3.96068615 1.1875 5.4375 C1.03667969 6.26121094 0.88585937 7.08492188 0.73046875 7.93359375 C0.48941406 8.61550781 0.24835938 9.29742187 0 10 C-0.99 10.33 -1.98 10.66 -3 11 C-2.53199289 6.94393835 -2.12046792 3.53411321 0 0 Z " fill="#000000" transform="translate(406,281)"/>
<path d="M0 0 C0.99 0 1.98 0 3 0 C2.67 3.3 2.34 6.6 2 10 C1.01 10 0.02 10 -1 10 C-0.67 6.7 -0.34 3.4 0 0 Z " fill="#000000" transform="translate(101,281)"/>
<path d="M0 0 C0.99 0.33 1.98 0.66 3 1 C2.01 3.97 1.02 6.94 0 10 C-0.99 10 -1.98 10 -3 10 C-2.69201674 8.51988629 -2.378482 7.04092675 -2.0625 5.5625 C-1.88847656 4.73878906 -1.71445312 3.91507813 -1.53515625 3.06640625 C-1 1 -1 1 0 0 Z " fill="#000000" transform="translate(418,244)"/>
<path d="M0 0 C0.99 0.33 1.98 0.66 3 1 C3 1.66 3 2.32 3 3 C-2.35714286 8 -2.35714286 8 -6 8 C-4.55746343 4.63408134 -2.66735273 2.48952921 0 0 Z " fill="#000000" transform="translate(217,101)"/>
<path d="M0 0 C0.66 0.33 1.32 0.66 2 1 C1.745504 2.48206495 1.47088238 3.96068615 1.1875 5.4375 C1.03667969 6.26121094 0.88585937 7.08492188 0.73046875 7.93359375 C0.48941406 8.61550781 0.24835938 9.29742187 0 10 C-0.99 10.33 -1.98 10.66 -3 11 C-2.53199289 6.94393835 -2.12046792 3.53411321 0 0 Z " fill="#000000" transform="translate(467,93)"/>
<path d="M0 0 C0.99 0 1.98 0 3 0 C2.67 3.3 2.34 6.6 2 10 C1.01 10 0.02 10 -1 10 C-0.67 6.7 -0.34 3.4 0 0 Z " fill="#000000" transform="translate(95,319)"/>
<path d="M0 0 C0.99 0 1.98 0 3 0 C2.67 2.97 2.34 5.94 2 9 C1.01 9.33 0.02 9.66 -1 10 C-1.125 3.375 -1.125 3.375 0 0 Z " fill="#000000" transform="translate(98,300)"/>
<path d="M0 0 C3.40312738 1.05875074 6.01353231 2.00902154 9 4 C9 4.66 9 5.32 9 6 C5.04179141 5.43454163 2.3340947 4.19097652 -1 2 C-0.67 1.34 -0.34 0.68 0 0 Z " fill="#000000" transform="translate(132,420)"/>
<path d="M0 0 C1.32 0.66 2.64 1.32 4 2 C2.515 4.475 2.515 4.475 1 7 C0.01 6.67 -0.98 6.34 -2 6 C-1.34 4.02 -0.68 2.04 0 0 Z " fill="#000000" transform="translate(284,657)"/>
<path d="M0 0 C0.99 0.33 1.98 0.66 3 1 C2.67 2.65 2.34 4.3 2 6 C0.68 6 -0.64 6 -2 6 C-1.125 1.125 -1.125 1.125 0 0 Z " fill="#000000" transform="translate(471,79)"/>
<path d="M0 0 C0.99 0.99 1.98 1.98 3 3 C2.01 3.99 1.02 4.98 0 6 C-0.99 5.67 -1.98 5.34 -3 5 C-2.01 3.35 -1.02 1.7 0 0 Z " fill="#000000" transform="translate(568,325)"/>
<path d="M0 0 C0.99 0.33 1.98 0.66 3 1 C2.67 1.99 2.34 2.98 2 4 C1.01 3.01 0.02 2.02 -1 1 C-0.67 0.67 -0.34 0.34 0 0 Z " fill="#000000" transform="translate(500,551)"/>
<path d="M0 0 C0.99 0.33 1.98 0.66 3 1 C2.67 1.99 2.34 2.98 2 4 C1.01 3.01 0.02 2.02 -1 1 C-0.67 0.67 -0.34 0.34 0 0 Z " fill="#000000" transform="translate(531,235)"/>
</svg>
