<svg width="405" height="707" viewBox="0 0 405 707" fill="none" xmlns="http://www.w3.org/2000/svg">
<path d="M179.474 28.865C169.868 49.3302 165.726 219.073 164.856 301.386C187.305 298.776 224.372 325.924 236.902 336.365C246.925 344.718 265.79 372.214 273.969 384.918C302.787 361.947 320.781 329.752 326.176 316.527C336.2 301.909 346.711 262.753 350.713 245.003C371.179 226.208 386.388 247.961 391.435 261.187C388.477 281.722 376.19 332.189 350.713 369.778C325.236 407.367 299.724 422.333 290.153 425.117C291.023 425.814 295.165 436.29 304.771 472.626C316.779 518.046 316.779 572.342 290.153 636.557C268.852 687.928 208.188 686.849 180.518 679.888C108.994 652.741 104.818 606.276 86.023 563.989C67.2284 521.701 54.6986 408.933 53.1324 385.962C51.8795 367.585 50.5221 304.519 50 275.283L52.0883 190.707L56.7869 131.191C58.5272 117.269 63.1562 82.534 67.7504 54.9686C72.3447 27.4032 85.3269 15.2912 91.2437 12.6808C147.627 -10.708 173.557 13.7249 179.474 28.865Z" stroke="black" stroke-width="5"/>
<path d="M123.001 42C117.942 110.413 93.1861 211 102 302.5M102 302.5C267.5 329.5 280.254 456.5 283.501 506.5C293.501 660.5 224 677 179.5 654C142.13 630.091 108.713 519.777 102 393.495M102 302.5C100.32 333.104 100.419 363.743 102 393.495M102 393.495C149 436 327.4 462.1 367 268.5" stroke="black" stroke-width="2" stroke-dasharray="10 10"/>
<path d="M6.61932 432.455V447H4.85795V434.301H4.77273L1.22159 436.659V434.869L4.85795 432.455H6.61932ZM11.1932 447.114C10.8428 447.114 10.5421 446.988 10.2912 446.737C10.0402 446.486 9.91477 446.186 9.91477 445.835C9.91477 445.485 10.0402 445.184 10.2912 444.933C10.5421 444.682 10.8428 444.557 11.1932 444.557C11.5436 444.557 11.8442 444.682 12.0952 444.933C12.3461 445.184 12.4716 445.485 12.4716 445.835C12.4716 446.067 12.4124 446.28 12.294 446.474C12.1804 446.669 12.0265 446.825 11.8324 446.943C11.643 447.057 11.4299 447.114 11.1932 447.114ZM18.8263 432.455V447H17.065V434.301H16.9798L13.4286 436.659V434.869L17.065 432.455H18.8263Z" fill="black"/>
<path d="M206.619 479.455V494H204.858V481.301H204.773L201.222 483.659V481.869L204.858 479.455H206.619ZM211.193 494.114C210.843 494.114 210.542 493.988 210.291 493.737C210.04 493.486 209.915 493.186 209.915 492.835C209.915 492.485 210.04 492.184 210.291 491.933C210.542 491.682 210.843 491.557 211.193 491.557C211.544 491.557 211.844 491.682 212.095 491.933C212.346 492.184 212.472 492.485 212.472 492.835C212.472 493.067 212.412 493.28 212.294 493.474C212.18 493.669 212.027 493.825 211.832 493.943C211.643 494.057 211.43 494.114 211.193 494.114ZM219.819 494.199C218.881 494.199 218.046 494.038 217.312 493.716C216.583 493.394 216.003 492.946 215.572 492.374C215.146 491.796 214.914 491.126 214.876 490.364H216.665C216.703 490.832 216.864 491.237 217.148 491.578C217.433 491.914 217.804 492.175 218.263 492.359C218.723 492.544 219.232 492.636 219.79 492.636C220.415 492.636 220.969 492.527 221.452 492.31C221.935 492.092 222.314 491.789 222.589 491.401C222.863 491.012 223.001 490.562 223.001 490.051C223.001 489.516 222.868 489.045 222.603 488.638C222.338 488.226 221.95 487.904 221.438 487.672C220.927 487.44 220.302 487.324 219.563 487.324H218.398V485.761H219.563C220.141 485.761 220.647 485.657 221.083 485.449C221.523 485.241 221.867 484.947 222.113 484.568C222.364 484.189 222.489 483.744 222.489 483.233C222.489 482.741 222.38 482.312 222.163 481.947C221.945 481.583 221.637 481.299 221.239 481.095C220.846 480.892 220.382 480.79 219.847 480.79C219.345 480.79 218.872 480.882 218.427 481.067C217.987 481.247 217.627 481.509 217.347 481.855C217.068 482.196 216.916 482.608 216.893 483.091H215.188C215.217 482.329 215.446 481.661 215.877 481.088C216.308 480.51 216.871 480.061 217.567 479.739C218.268 479.417 219.038 479.256 219.876 479.256C220.775 479.256 221.547 479.438 222.191 479.803C222.835 480.162 223.33 480.638 223.675 481.23C224.021 481.822 224.194 482.461 224.194 483.148C224.194 483.967 223.978 484.665 223.548 485.243C223.121 485.821 222.541 486.221 221.808 486.443V486.557C222.726 486.708 223.443 487.099 223.96 487.729C224.476 488.354 224.734 489.128 224.734 490.051C224.734 490.842 224.518 491.552 224.087 492.182C223.661 492.807 223.079 493.299 222.34 493.659C221.602 494.019 220.761 494.199 219.819 494.199Z" fill="black"/>
<path d="M384.619 371.455V386H382.858V373.301H382.773L379.222 375.659V373.869L382.858 371.455H384.619ZM389.193 386.114C388.843 386.114 388.542 385.988 388.291 385.737C388.04 385.486 387.915 385.186 387.915 384.835C387.915 384.485 388.04 384.184 388.291 383.933C388.542 383.682 388.843 383.557 389.193 383.557C389.544 383.557 389.844 383.682 390.095 383.933C390.346 384.184 390.472 384.485 390.472 384.835C390.472 385.067 390.412 385.28 390.294 385.474C390.18 385.669 390.027 385.825 389.832 385.943C389.643 386.057 389.43 386.114 389.193 386.114ZM393.11 383.017V381.568L399.502 371.455H400.553V373.699H399.843L395.013 381.341V381.455H403.621V383.017H393.11ZM399.957 386V382.577V381.902V371.455H401.633V386H399.957Z" fill="black"/>
<path d="M246.619 275.455V290H244.858V277.301H244.773L241.222 279.659V277.869L244.858 275.455H246.619ZM251.193 290.114C250.843 290.114 250.542 289.988 250.291 289.737C250.04 289.486 249.915 289.186 249.915 288.835C249.915 288.485 250.04 288.184 250.291 287.933C250.542 287.682 250.843 287.557 251.193 287.557C251.544 287.557 251.844 287.682 252.095 287.933C252.346 288.184 252.472 288.485 252.472 288.835C252.472 289.067 252.412 289.28 252.294 289.474C252.18 289.669 252.027 289.825 251.832 289.943C251.643 290.057 251.43 290.114 251.193 290.114ZM255.451 290V288.722L260.252 283.466C260.816 282.85 261.28 282.315 261.644 281.861C262.009 281.402 262.279 280.971 262.454 280.568C262.634 280.161 262.724 279.735 262.724 279.29C262.724 278.778 262.601 278.336 262.354 277.962C262.113 277.588 261.781 277.299 261.36 277.095C260.939 276.892 260.465 276.79 259.94 276.79C259.381 276.79 258.893 276.906 258.477 277.138C258.065 277.365 257.745 277.685 257.518 278.097C257.295 278.509 257.184 278.991 257.184 279.545H255.508C255.508 278.693 255.704 277.945 256.097 277.301C256.49 276.657 257.025 276.155 257.702 275.795C258.384 275.436 259.149 275.256 259.996 275.256C260.849 275.256 261.604 275.436 262.262 275.795C262.92 276.155 263.436 276.641 263.81 277.251C264.184 277.862 264.371 278.542 264.371 279.29C264.371 279.825 264.274 280.348 264.08 280.859C263.891 281.366 263.559 281.932 263.086 282.557C262.617 283.177 261.966 283.935 261.133 284.83L257.866 288.324V288.438H264.627V290H255.451Z" fill="black"/>
<path d="M212.478 289.147C212.007 289.436 211.859 290.051 212.147 290.522L216.847 298.198C217.135 298.669 217.751 298.817 218.222 298.528C218.693 298.24 218.841 297.624 218.552 297.153L214.375 290.331L221.198 286.153C221.669 285.865 221.817 285.249 221.528 284.778C221.24 284.307 220.624 284.159 220.153 284.448L212.478 289.147ZM280.681 335.268C273.444 328.531 261.407 318.145 248.796 308.868C236.229 299.624 222.939 291.362 213.234 289.028L212.766 290.972C222.032 293.2 235.027 301.222 247.611 310.479C260.149 319.703 272.127 330.037 279.319 336.732L280.681 335.268Z" fill="black"/>
<path d="M227.983 466.62C228.085 466.077 227.727 465.554 227.184 465.453L218.338 463.795C217.795 463.693 217.273 464.051 217.171 464.593C217.069 465.136 217.427 465.659 217.97 465.76L225.833 467.234L224.359 475.097C224.258 475.64 224.615 476.163 225.158 476.264C225.701 476.366 226.223 476.008 226.325 475.466L227.983 466.62ZM190.534 464.885C194.341 466.889 200.717 469.406 207.547 470.478C214.356 471.546 221.8 471.206 227.565 467.261L226.435 465.61C221.286 469.134 214.457 469.538 207.857 468.502C201.279 467.47 195.112 465.035 191.466 463.115L190.534 464.885Z" fill="black"/>
<path d="M396.862 301.993C396.582 301.517 395.969 301.358 395.493 301.638L387.737 306.204C387.261 306.484 387.102 307.097 387.382 307.573C387.663 308.049 388.276 308.208 388.752 307.928L395.646 303.869L399.704 310.763C399.984 311.239 400.597 311.398 401.073 311.118C401.549 310.837 401.708 310.224 401.428 309.748L396.862 301.993ZM332.628 413.778C343.436 405.049 354.459 397.034 365.298 381.305C376.131 365.586 386.752 342.213 396.968 302.751L395.032 302.249C384.848 341.587 374.303 364.714 363.652 380.17C353.007 395.616 342.231 403.451 331.372 412.222L332.628 413.778Z" fill="black"/>
<path d="M156.374 698.719C157.048 698.236 157.202 697.299 156.719 696.626L148.849 685.657C148.366 684.984 147.429 684.829 146.756 685.312C146.083 685.795 145.929 686.732 146.412 687.405L153.407 697.156L143.657 704.151C142.984 704.634 142.829 705.571 143.312 706.244C143.795 706.917 144.732 707.071 145.405 706.588L156.374 698.719ZM29.5029 182.907C24.4155 264.472 24.5372 388.116 41.4563 493.962C49.9144 546.875 62.5854 595.442 80.9638 632.097C99.3279 668.724 123.555 693.765 155.257 698.98L155.743 696.02C125.445 691.035 101.839 667.039 83.6456 630.753C65.4667 594.495 52.8565 546.275 44.4187 493.488C27.5462 387.934 27.4179 264.528 32.4971 183.093L29.5029 182.907Z" fill="black"/>
<circle cx="122.5" cy="67.5" r="30.5" fill="black"/>
</svg>
