<?xml version="1.0" encoding="UTF-8"?>
<svg version="1.1" xmlns="http://www.w3.org/2000/svg" width="412" height="714">
<path d="M0 0 C14.06708957 11.99839993 18.84403347 37.63959885 20.3984375 55.1328125 C26.54827938 136.98405165 -11.89585277 211.65240681 -56.36132812 277.53100586 C-57.09673828 278.62292236 -57.83214844 279.71483887 -58.58984375 280.83984375 C-59.24847412 281.81300537 -59.90710449 282.78616699 -60.58569336 283.78881836 C-62.08980401 285.70293599 -62.08980401 285.70293599 -62 287 C-60.38158203 285.87464844 -60.38158203 285.87464844 -58.73046875 284.7265625 C-36.02404244 269.13910147 -10.53877134 254.21530039 18.13671875 258.46484375 C32.50850983 261.63978845 44.57546584 268.99245321 52.8125 281.3125 C67.17727695 305.64812212 66.18136864 332.89160843 63 360 C62.89768066 360.93585938 62.79536133 361.87171875 62.68994141 362.8359375 C57.63467396 407.44923942 40.87433436 451.97508613 26.5625 494.3125 C9.79769704 535.33625736 9.79769704 535.33625736 10.0234375 577.40234375 C10.50683594 578.19318359 10.50683594 578.19318359 11 579 C32.15927813 575.27968736 50.02041298 559.61204761 65 545 C65.87084229 544.15187744 65.87084229 544.15187744 66.75927734 543.28662109 C72.84652363 537.33139125 78.85781725 531.35940481 84.36328125 524.85546875 C87.03172865 521.83037922 89.94197275 519.05048634 92.8125 516.21875 C94.79720342 514.20569368 96.66096916 512.14553597 98.5 510 C101.74218252 506.21745373 105.23368283 502.74467072 108.78515625 499.25390625 C111.54815452 496.44217785 114.08295154 493.47386728 116.58984375 490.43359375 C117.05519531 489.96050781 117.52054687 489.48742187 118 489 C118.66 489 119.32 489 120 489 C120.18617991 498.1973824 120.32791604 507.39410651 120.41449738 516.59296894 C120.45607412 520.86547688 120.51237159 525.13668646 120.60351562 529.40844727 C120.69108181 533.53884121 120.73840552 537.66799462 120.75901794 541.79924583 C120.77368696 543.36731667 120.80233195 544.93532718 120.84584045 546.50286293 C121.09519824 555.86778954 120.36526262 562.3311739 114.07043457 569.82511902 C113.38719116 570.54282974 112.70394775 571.26054047 112 572 C111.04377747 573.00541588 111.04377747 573.00541588 110.0682373 574.03114319 C108.95474398 575.16212992 107.82146711 576.27388972 106.671875 577.36816406 C105.06016968 578.9412713 103.63271329 580.57097176 102.1875 582.296875 C96.92928896 588.35121629 91.19772225 593.95116917 85.52124023 599.60913086 C83.56704376 601.5579687 81.61824853 603.51209272 79.66992188 605.46679688 C74.14776723 610.99190523 68.65140077 616.49101832 62.69360352 621.55151367 C59.76402918 624.05708734 56.99143267 626.73084133 54.1875 629.375 C48.3215763 634.85188915 42.29905578 640.02286996 36 645 C34.62605673 646.11558331 33.25237987 647.23149477 31.87890625 648.34765625 C11.79607857 664.51875534 -17.10285579 682.73915119 -43.6875 682.5 C-44.46005127 682.49355469 -45.23260254 682.48710938 -46.02856445 682.48046875 C-64.20455274 681.91311066 -81.35170686 671.35005767 -95 660 C-95.73863281 659.38769531 -96.47726563 658.77539062 -97.23828125 658.14453125 C-111.01461743 645.59870277 -117.18399539 625.2251399 -118.22119141 607.14404297 C-118.36564764 602.84600306 -118.38546328 598.55011732 -118.375 594.25 C-118.37518127 593.10097702 -118.37518127 593.10097702 -118.37536621 591.92874146 C-118.34488857 578.29300867 -116.92701232 565.33615203 -114 552 C-113.67236014 550.42464885 -113.34550318 548.84913462 -113.01953125 547.2734375 C-112.23883457 543.57864727 -111.38905026 539.90356119 -110.51660156 536.22949219 C-109.98905973 533.95278517 -109.50339166 531.66998967 -109.0234375 529.3828125 C-106.67915558 518.51098643 -103.54868608 507.92765935 -100.0625 497.375 C-99.82979401 496.67037628 -99.59708801 495.96575256 -99.35733032 495.23977661 C-96.73649893 487.3726129 -93.93470874 479.63794442 -90.62890625 472.03125 C-80.36527305 448.26867257 -74.44365025 424.01372953 -68.96452332 398.73806763 C-67.69119237 392.89400275 -66.25862634 387.13791625 -64.59188843 381.39274597 C-63.73407634 377.92498699 -63.70642345 374.88374399 -63.8125 371.3125 C-63.83957031 370.11238281 -63.86664063 368.91226562 -63.89453125 367.67578125 C-63.92933594 366.79277344 -63.96414062 365.90976562 -64 365 C-77.26370977 363.72464329 -88.13021474 372.1192172 -98 380 C-101.43930115 382.89441187 -104.72604405 385.92104456 -108 389 C-109.48532096 390.346691 -110.97069106 391.69332943 -112.45776367 393.03808594 C-120.38648861 400.23255346 -128.09418363 407.61864529 -135.046875 415.7734375 C-137.0112324 418.01280494 -139.05079802 420.16922263 -141.10400391 422.3269043 C-146.31797037 427.84801774 -151.27120753 433.55774856 -156 439.5 C-156.53963379 440.150896 -157.07926758 440.80179199 -157.63525391 441.47241211 C-165.06560494 451.02855876 -166.65134096 462.96925409 -168.0625 474.6875 C-168.14304626 475.33594879 -168.22359253 475.98439758 -168.30657959 476.65249634 C-170.65690527 495.69777675 -171.88180441 514.84930412 -173 534 C-173.0485614 534.82943115 -173.0971228 535.6588623 -173.14715576 536.51342773 C-175.38635037 575.29778596 -176.04914129 614.16761766 -177 653 C-189.67416531 656.5878474 -202.39484583 659.93193385 -215.17578125 663.1171875 C-216.54831086 663.45970739 -216.54831086 663.45970739 -217.94856834 663.80914688 C-222.76469138 665.01053905 -227.58160567 666.20869777 -232.39916992 667.40429688 C-237.35976385 668.63617804 -242.3171959 669.88034355 -247.27409077 671.12701225 C-251.11133511 672.08963397 -254.95084568 673.04295613 -258.79103661 673.99374771 C-260.62154378 674.44872376 -262.45117156 674.90725358 -264.27987099 675.36944199 C-266.8226665 676.01125369 -269.36840129 676.63976966 -271.9152832 677.26513672 C-273.03811958 677.55329506 -273.03811958 677.55329506 -274.18363953 677.84727478 C-278.11491415 678.79666307 -281.09776075 679.19026879 -285 678 C-287.01969918 664.72202135 -289.02808919 651.44767348 -290.1875 638.0625 C-290.25888184 637.25159912 -290.33026367 636.44069824 -290.40380859 635.60522461 C-291.92455316 616.69533661 -292.20463447 597.77465053 -292.1875 578.8125 C-292.18689575 577.56678223 -292.1862915 576.32106445 -292.18566895 575.03759766 C-292.11609689 521.78951961 -287.88834529 468.68195095 -281.35101318 415.85040283 C-280.99580088 412.96590108 -280.64928353 410.08043671 -280.30322266 407.19482422 C-276.57582804 376.48988023 -270.1523849 346.99126618 -261.88720703 317.20019531 C-260.99735021 313.99044209 -260.11518378 310.77865299 -259.234375 307.56640625 C-248.29878846 267.79094609 -235.61285934 229.18000482 -220 191 C-219.53113373 189.85084106 -219.53113373 189.85084106 -219.05279541 188.6784668 C-204.38036869 152.73068823 -189.01607781 117.26435578 -170.67553711 83.00976562 C-168.40045188 78.74403874 -166.23374746 74.44407338 -164.1484375 70.08203125 C-163.6652002 69.08075195 -163.18196289 68.07947266 -162.68408203 67.04785156 C-161.75185418 65.1072179 -160.83277883 63.16019175 -159.92919922 61.20605469 C-155.11663814 51.23079546 -147.28544645 48.56597243 -137.5625 44.125 C-136.32222928 43.5551064 -135.08207887 42.98495089 -133.84204102 42.41455078 C-130.56259384 40.90816511 -127.27972644 39.4093684 -123.99621582 37.91186523 C-122.02711216 37.01238475 -120.05966595 36.10938234 -118.09277344 35.20507812 C-17.56089111 -11.00003774 -17.56089111 -11.00003774 0 0 Z M-23.6015625 3.87890625 C-24.2231424 4.08195877 -24.84472229 4.28501129 -25.48513794 4.49421692 C-27.53638563 5.17057264 -29.58089477 5.86487475 -31.625 6.5625 C-32.33885864 6.80309143 -33.05271729 7.04368286 -33.78820801 7.29156494 C-60.52222983 16.32851086 -86.55208709 27.42121523 -112.16162109 39.24316406 C-115.69675827 40.86920435 -119.25073835 42.45106736 -122.80708313 44.03007507 C-125.94597775 45.42925755 -129.07518316 46.84925764 -132.20278931 48.27346802 C-133.71624559 48.95800666 -135.23327246 49.63471337 -136.7539978 50.302948 C-138.87805421 51.23848061 -140.98637973 52.20335406 -143.09375 53.17578125 C-143.71949417 53.44317108 -144.34523834 53.71056091 -144.98994446 53.98605347 C-150.31848475 56.50831896 -152.37605141 59.97786952 -155 65 C-155.46632843 65.88653763 -155.93265686 66.77307526 -156.41311646 67.68647766 C-158.00974539 70.78719117 -159.56541808 73.90591787 -161.11328125 77.03125 C-161.68652634 78.18057007 -162.25977142 79.32989014 -162.85038757 80.51403809 C-164.36821707 83.55727823 -165.88124181 86.60288164 -167.39318848 89.64904785 C-168.90707848 92.697131 -170.42533315 95.74303776 -171.94335938 98.7890625 C-173.71037395 102.33481184 -175.47589109 105.8812883 -177.23727417 109.42984009 C-181.93911802 118.9022168 -181.93911802 118.9022168 -184.29541016 123.48974609 C-190.00601978 134.62925154 -194.88794623 146.09405987 -199.75 157.625 C-200.18853302 158.66112427 -200.62706604 159.69724854 -201.07888794 160.76477051 C-208.27127701 177.75851568 -215.36476784 194.77972249 -222 212 C-222.25827576 212.66890259 -222.51655151 213.33780518 -222.78265381 214.02697754 C-236.74126021 250.2189084 -247.42917035 287.0397955 -257.44015503 324.49620056 C-259.07268236 330.59399135 -260.74590349 336.67609807 -262.4921875 342.7421875 C-269.00494137 365.75553791 -272.02044901 389.31564157 -275 413 C-275.13577454 414.07926758 -275.27154907 415.15853516 -275.41143799 416.27050781 C-278.73667392 442.9160244 -281.37184964 469.59301177 -283.3125 496.375 C-283.39390228 497.49665558 -283.47530457 498.61831116 -283.55917358 499.7739563 C-285.30603993 524.19784845 -286.18903792 548.53613165 -286.18530273 573.02416992 C-286.18522181 575.70392658 -286.19213516 578.383511 -286.20581055 581.06323242 C-286.32711585 606.80673797 -285.38310766 632.40627202 -281.875 657.9375 C-281.69047486 659.3377682 -281.50688713 660.73816024 -281.32421875 662.13867188 C-280.89183018 665.42710075 -280.4507241 668.7140442 -280 672 C-269.64696076 670.36882234 -259.53018382 667.76556262 -249.3671875 665.24609375 C-247.47963123 664.78033016 -245.59202665 664.31476231 -243.70437622 663.84938049 C-239.7720953 662.87908653 -235.84042677 661.90635871 -231.90917969 660.93188477 C-226.8606526 659.68068486 -221.81059441 658.43579229 -216.76006889 657.19268703 C-212.87341647 656.23530411 -208.98759651 655.27457816 -205.10202408 654.31282234 C-203.23866881 653.85204972 -201.37504914 653.39234499 -199.51116562 652.93371391 C-196.92048382 652.29572933 -194.33095888 651.65324969 -191.74169922 651.00952148 C-190.58079521 650.72507927 -190.58079521 650.72507927 -189.3964386 650.43489075 C-185.91077116 649.79262839 -185.91077116 649.79262839 -183 648 C-182.83053844 645.41026679 -182.72463833 642.84360485 -182.65869141 640.25048828 C-182.63403274 639.43393202 -182.60937407 638.61737576 -182.58396816 637.77607536 C-182.53051198 635.98711109 -182.4792797 634.19807936 -182.42994881 632.40899658 C-182.35071913 629.53977057 -182.26570487 626.67076898 -182.17906189 623.80175781 C-182.05569613 619.7067781 -181.93436574 615.61174575 -181.81448364 611.5166626 C-179.29487066 525.96608425 -179.29487066 525.96608425 -175.0625 483.9375 C-174.98895294 483.18752747 -174.91540588 482.43755493 -174.83963013 481.66485596 C-174.01619143 473.44888786 -172.8033816 465.38864625 -171.0703125 457.3125 C-170.91438126 456.56898788 -170.75845001 455.82547577 -170.59779358 455.05943298 C-169.09300385 448.41394643 -166.22239735 443.34670434 -162 438 C-161.29488281 437.08992188 -160.58976562 436.17984375 -159.86328125 435.2421875 C-155.55494564 429.8436099 -150.99536365 424.67883648 -146.3359375 419.58203125 C-145.09577076 418.21121149 -143.86043049 416.83525385 -142.66552734 415.42480469 C-137.03831595 408.81764277 -130.91951987 402.69802172 -124.79589844 396.55566406 C-122.89307096 394.64316283 -121.00122712 392.72022518 -119.109375 390.796875 C-105.53485549 377.10332535 -88.34073778 360.63407378 -68.25 358.625 C-64.6774054 359.03722245 -62.83203087 359.81529047 -60 362 C-56.04473024 367.93290464 -57.27641353 376.03162883 -58.51342773 382.8157959 C-60.18217696 390.56257322 -62.22359671 398.21573595 -64.25 405.875 C-64.84414331 408.16753003 -65.43660235 410.46049726 -66.02734375 412.75390625 C-66.8903133 416.10399886 -67.75546227 419.45336312 -68.63150024 422.80006409 C-70.056238 428.25313588 -71.41207154 433.70774955 -72.63082886 439.21043396 C-74.38351528 447.1097945 -76.88869404 454.3906793 -80.125 461.8125 C-92.22720283 490.61541631 -101.51127259 519.76320019 -107.48876953 550.42919922 C-107.93229334 552.6595267 -108.40510732 554.87882957 -108.90234375 557.09765625 C-110.47919758 564.30725163 -111.47105632 571.47521717 -112.1875 578.8125 C-112.27153076 579.67254639 -112.35556152 580.53259277 -112.44213867 581.41870117 C-114.52098157 604.78489532 -111.68565917 629.88889324 -97.375 649.1875 C-85.84724183 662.80330493 -65.97168794 674.52031004 -48.1640625 676.40625 C-38.35888875 676.94998602 -30.0782685 674.71344616 -21 671 C-20.23719727 670.69465332 -19.47439453 670.38930664 -18.68847656 670.07470703 C-13.07873209 667.81976555 -7.53100967 665.4408254 -2 663 C-0.906875 662.52949219 0.18625 662.05898438 1.3125 661.57421875 C14.54284933 655.48034861 25.93763576 645.32063029 37 636 C37.5170752 635.5678418 38.03415039 635.13568359 38.56689453 634.69042969 C54.32403153 621.5029467 68.99931374 607.1874652 83.52075195 592.66455078 C85.95439627 590.23311909 88.39598862 587.80985377 90.83789062 585.38671875 C98.68312851 577.56867527 106.24169642 569.79282615 113 561 C113.33 560.67 113.66 560.34 114 560 C114.09370624 558.22008076 114.11744271 556.43643261 114.11352539 554.65405273 C114.11341209 552.94239174 114.11341209 552.94239174 114.11329651 551.19615173 C114.10813522 549.9545076 114.10297394 548.71286346 114.09765625 547.43359375 C114.0962413 546.16983414 114.09482635 544.90607452 114.09336853 543.60401917 C114.08870582 540.23875111 114.0797148 536.8735501 114.06866455 533.50830078 C114.05844846 530.0765033 114.05387049 526.64469891 114.04882812 523.21289062 C114.0377738 516.47524176 114.0210171 509.73762475 114 503 C112.87150635 504.1295813 112.87150635 504.1295813 111.72021484 505.28198242 C109.64426011 507.35626029 107.56353591 509.42512623 105.4765625 511.48828125 C96.77563433 520.0866729 96.77563433 520.0866729 88.6015625 529.1796875 C85.94381947 532.20043933 83.03726759 534.97084551 80.171875 537.79296875 C78.25947708 539.73632275 76.49795836 541.7227379 74.75 543.8125 C59.60473326 561.36565476 34.82916015 583.14709966 11 585 C8.0625 584.625 8.0625 584.625 6 583 C-3.50004245 565.96544112 6.75405746 538.78447064 11.53564453 521.58789062 C14.37508983 511.71617427 17.69714417 502.03501093 21.11096191 492.34945679 C26.41753755 477.23483138 31.07180938 461.92786457 35.66339874 446.58452225 C36.23756 444.66655542 36.81319127 442.74902886 37.38885498 440.83151245 C39.9666781 432.23273271 42.50288273 423.62256031 45 415 C45.55024338 413.10273666 45.55024338 413.10273666 46.11160278 411.16714478 C50.19994778 397.01531264 54.02609711 383.05714913 55.9375 368.4375 C56.13182542 367.0811445 56.32780274 365.7250247 56.52539062 364.36914062 C60.40395212 337.2536808 62.86296716 305.43554097 46 282 C37.53538533 271.98252437 27.93531412 266.1783763 15 264 C-17.14900704 261.40596636 -45.09342312 280.86128917 -68.53417969 300.62060547 C-73.91978722 305.20480031 -79.11229273 309.87954476 -84 315 C-85.32 314.34 -86.64 313.68 -88 313 C-85.26324227 307.98687369 -82.24252087 303.50942781 -78.75 299 C-66.4890952 282.8706711 -55.15003872 266.15451766 -44.69335938 248.80419922 C-42.85453695 245.75911352 -40.99786201 242.72529217 -39.140625 239.69140625 C-32.63994664 229.0271829 -26.22965879 218.39799059 -20.95996094 207.06445312 C-20.28568828 205.61438965 -19.60331905 204.16807685 -18.91503906 202.72460938 C-6.84245971 177.39766231 3.72754421 151.39624175 10 124 C10.17708496 123.25621094 10.35416992 122.51242188 10.53662109 121.74609375 C18.44015867 88.02000122 18.08556424 49.3116601 4.5 17.1875 C4.22776611 16.53555664 3.95553223 15.88361328 3.67504883 15.21191406 C1.25867356 9.81569745 -1.89837011 6.32494058 -6.875 3.1875 C-12.72109186 0.96598509 -17.79698621 1.96889656 -23.6015625 3.87890625 Z " fill="#000000" transform="translate(292,32)"/>
<path d="M0 0 C3.82196376 2.68570426 4.73741743 5.61748198 6 10 C14.70927108 64.35109021 -18.79365518 125.34848962 -44.13574219 171.11547852 C-47.24225583 176.73437755 -50.26424217 182.390161 -53.2265625 188.0859375 C-61.64332373 204.2469594 -70.31127129 219.98533301 -80.24267578 235.28222656 C-81.96336847 237.94334784 -83.65611693 240.62005382 -85.33984375 243.3046875 C-95.24838167 259.07551152 -105.62250232 274.53580149 -116 290 C-117.98 289.67 -119.96 289.34 -122 289 C-120.80837057 281.81455259 -119.26687658 274.86085138 -117.2265625 267.87109375 C-116.81308311 266.43247734 -116.81308311 266.43247734 -116.39125061 264.96479797 C-115.47537422 261.78719962 -114.55068898 258.61225264 -113.625 255.4375 C-113.30375153 254.3295105 -112.98250305 253.221521 -112.65151978 252.07995605 C-106.80734875 231.92670731 -100.77362287 211.83125848 -94.6875 191.75 C-94.48139351 191.06966076 -94.27528702 190.38932152 -94.06293488 189.68836594 C-91.26786021 180.46393367 -88.45458217 171.2452088 -85.62369919 162.03170395 C-84.97883447 159.93105316 -84.33564792 157.82989339 -83.69265747 155.72866821 C-82.59195111 152.13395197 -81.48491393 148.54123406 -80.37377357 144.94972992 C-79.95708124 143.60018618 -79.54211752 142.25010711 -79.12914085 140.89942169 C-75.59688279 129.35692006 -71.38443002 118.18500055 -66.55078125 107.125 C-66.28550125 106.51648193 -66.02022125 105.90796387 -65.74690247 105.28100586 C-65.15819676 103.93150247 -64.56838769 102.58247999 -63.9776001 101.23388672 C-62.89457818 98.75910353 -61.81699339 96.28198958 -60.73974609 93.8046875 C-58.25430817 88.09405198 -55.75506013 82.38955206 -53.25 76.6875 C-52.85007843 75.77584076 -52.45015686 74.86418152 -52.03811646 73.92489624 C-46.99486138 62.45080124 -41.71295596 51.1555955 -36 40 C-35.20018776 38.40381268 -34.40064337 36.80749108 -33.6015625 35.2109375 C-14.6619169 -1.86606215 -14.6619169 -1.86606215 0 0 Z M-7.5703125 7.00390625 C-27.66652879 27.15061554 -39.05236463 58.3647051 -50.16021729 84.06005859 C-51.02979454 86.06882693 -51.9039194 88.07557123 -52.77880859 90.08203125 C-54.31636257 93.61181821 -55.84291026 97.1462017 -57.36203003 100.68395996 C-57.93353453 102.01367969 -58.50689387 103.34260455 -59.08255005 104.67053223 C-69.6160707 129.02486034 -77.33861334 154.28599161 -84.96974564 179.65781021 C-85.75785543 182.27609761 -86.54821979 184.89369407 -87.33932495 187.51107788 C-93.65904478 208.42126654 -99.94567703 229.34194556 -106.0625 250.3125 C-106.33598267 251.24251831 -106.60946533 252.17253662 -106.89123535 253.1307373 C-107.63453338 255.66440112 -108.36803489 258.20065068 -109.09765625 260.73828125 C-109.3109407 261.46136978 -109.52422516 262.18445831 -109.74397278 262.92945862 C-110.94082938 266.51449178 -110.94082938 266.51449178 -110 270 C-102.37962793 258.72746804 -95.01909091 247.29893688 -87.76269531 235.7890625 C-86.09829333 233.15552674 -84.42117597 230.53049978 -82.7421875 227.90625 C-74.812836 215.4170046 -67.75506614 202.51703842 -60.86834717 189.43409729 C-58.05068793 184.08310625 -55.18766088 178.75749179 -52.3190918 173.43359375 C-49.19623956 167.63117465 -46.09705426 161.81621862 -43 156 C-42.39768555 154.87207031 -41.79537109 153.74414062 -41.17480469 152.58203125 C-4.25506331 83.73073618 -4.25506331 83.73073618 -1 8 C-1.495 7.01 -1.495 7.01 -2 6 C-5.74893966 5.64090846 -5.74893966 5.64090846 -7.5703125 7.00390625 Z " fill="#000000" transform="translate(222,101)"/>
<path d="M0 0 C0.99 0 1.98 0 3 0 C3 0.99 3 1.98 3 3 C3.556875 3.02578125 4.11375 3.0515625 4.6875 3.078125 C13.57224821 3.73847791 19.47268225 6.78448078 25.58984375 13.25 C27.2890744 15.35874053 28.28769539 17.38821641 29 20 C32.465 18.02 32.465 18.02 36 16 C36 17.32 36 18.64 36 20 C35.34 20.39960938 34.68 20.79921875 34 21.2109375 C31.54131398 22.98948299 31.54131398 22.98948299 31.75 26.9140625 C31.82073702 28.48499282 31.90473139 30.05536639 32 31.625 C32.29977457 42.11192352 30.16008417 48.42107061 22.93359375 56.20703125 C17.32793781 61.40500312 11.92410565 64.17535449 4.25 64.0625 C3.45078125 64.05347656 2.6515625 64.04445313 1.828125 64.03515625 C1.22484375 64.02355469 0.6215625 64.01195312 0 64 C0 65.98 0 67.96 0 70 C-0.99 70 -1.98 70 -3 70 C-3 68.02 -3 66.04 -3 64 C-3.556875 63.92523438 -4.11375 63.85046875 -4.6875 63.7734375 C-13.36028627 62.27913987 -19.32342802 57.64666554 -24.74609375 50.8203125 C-29.97425276 43.23052403 -29.84730713 34.93523882 -29 26 C-26.96910059 17.68298338 -21.08419691 10.92501964 -14.1875 6.0625 C-9.69544143 3.4325718 -5.123239 3.11548285 0 3 C0 2.01 0 1.02 0 0 Z " fill="#000000" transform="translate(64,427)"/>
<path d="M0 0 C0.99 0 1.98 0 3 0 C2.43945339 3.36327963 1.58158962 5.99112219 0 9 C0.57741943 8.90912109 1.15483887 8.81824219 1.74975586 8.72460938 C26.02470644 4.97409705 49.74091293 2.74340253 70.8515625 18.0703125 C85.63370788 30.53018731 91.93484542 49.43002127 93.7890625 68.17236328 C96.41347113 103.35280392 91.89632071 149.43275021 75 181 C73.68 180.67 72.36 180.34 71 180 C71.24121582 179.23260498 71.48243164 178.46520996 71.73095703 177.67456055 C85.32683194 134.14254739 101.57314553 79.35703994 79.47265625 36.00390625 C72.45773004 24.10329026 62.92260822 17.01461775 49.82421875 13.03515625 C34.25631574 9.13869148 18.51612926 10.56186803 3 14 C2.67 14.33 2.34 14.66 2 15 C2.99 15.598125 3.98 16.19625 5 16.8125 C6.485 17.8953125 6.485 17.8953125 8 19 C8 19.99 8 20.98 8 22 C3.93774452 21.42176904 1.15237654 20.10882263 -2.3125 17.9375 C-3.19550781 17.38964844 -4.07851562 16.84179688 -4.98828125 16.27734375 C-5.65214844 15.85582031 -6.31601563 15.43429687 -7 15 C-6.41190166 11.01957832 -5.17968323 8.13752781 -3.125 4.6875 C-2.61195313 3.80449219 -2.09890625 2.92148437 -1.5703125 2.01171875 C-0.79300781 1.01591797 -0.79300781 1.01591797 0 0 Z " fill="#000000" transform="translate(246,0)"/>
<path d="M0 0 C20.00409932 0.72086844 37.21780201 8.9221913 51.1796875 23.234375 C68.76128865 43.62082303 72.52451748 71.34772888 70.72265625 97.31640625 C69.30805259 114.46985347 66.05133732 131.86310048 60 148 C64.455 146.02 64.455 146.02 69 144 C69.33 145.32 69.66 146.64 70 148 C68.28133783 149.0384211 66.54955402 150.05514635 64.8125 151.0625 C63.36810547 151.91521484 63.36810547 151.91521484 61.89453125 152.78515625 C59 154 59 154 56.34375 154.09375 C52.78097654 152.43112239 52.17222648 149.99393785 50.6875 146.4375 C50.17574219 145.23996094 49.66398437 144.04242188 49.13671875 142.80859375 C48.76160156 141.88175781 48.38648438 140.95492187 48 140 C49.32 139.67 50.64 139.34 52 139 C55 143.75 55 143.75 55 146 C55.66 146 56.32 146 57 146 C57.11537109 145.33427979 57.23074219 144.66855957 57.34960938 143.98266602 C58.37228283 138.2058747 59.5380938 132.48716297 60.8527832 126.77026367 C67.78304671 96.43761659 70.44888925 62.89212744 53.6875 35.125 C42.25967545 18.52981131 27.992859 9.28501969 8.38671875 5.2578125 C5.59469415 4.77880475 2.81067199 4.35067975 0 4 C0 2.68 0 1.36 0 0 Z " fill="#000000" transform="translate(309,271)"/>
<path d="M0 0 C3.0625 0.1875 3.0625 0.1875 5.0625 2.1875 C4.90004442 5.92397845 4.47466356 7.71288742 2 10.5625 C1.360625 11.09875 0.72125 11.635 0.0625 12.1875 C1.7125 12.5175 3.3625 12.8475 5.0625 13.1875 C5.0625 13.8475 5.0625 14.5075 5.0625 15.1875 C1.7625 15.1875 -1.5375 15.1875 -4.9375 15.1875 C-2.9375 11.1875 -2.9375 11.1875 -0.8125 8.625 C1.36735538 6.30372611 1.36735538 6.30372611 1.0625 3.1875 C0.4025 3.1875 -0.2575 3.1875 -0.9375 3.1875 C-1.2675 3.8475 -1.5975 4.5075 -1.9375 5.1875 C-2.9275 5.1875 -3.9175 5.1875 -4.9375 5.1875 C-3.82120474 0.24390669 -3.82120474 0.24390669 0 0 Z " fill="#000000" transform="translate(402.9375,419.8125)"/>
<path d="M0 0 C0 4.95 0 9.9 0 15 C-0.99 15 -1.98 15 -3 15 C-3 11.37 -3 7.74 -3 4 C-3.99 4.33 -4.98 4.66 -6 5 C-5.625 3.0625 -5.625 3.0625 -5 1 C-3 0 -3 0 0 0 Z " fill="#000000" transform="translate(390,420)"/>
<path d="M0 0 C0 4.95 0 9.9 0 15 C-0.99 15 -1.98 15 -3 15 C-3 11.37 -3 7.74 -3 4 C-3.99 4.33 -4.98 4.66 -6 5 C-5.625 3.0625 -5.625 3.0625 -5 1 C-3 0 -3 0 0 0 Z " fill="#000000" transform="translate(362,72)"/>
<path d="M0 0 C0 4.95 0 9.9 0 15 C-0.66 15 -1.32 15 -2 15 C-2.33 11.37 -2.66 7.74 -3 4 C-3.99 4.33 -4.98 4.66 -6 5 C-6 4.01 -6 3.02 -6 2 C-3 0 -3 0 0 0 Z " fill="#000000" transform="translate(374,72)"/>
<path d="M0 0 C0.99 0.33 1.98 0.66 3 1 C1.65289578 5.04131267 -0.38428334 5.90288434 -4 8 C-4.99 8 -5.98 8 -7 8 C-5.51218185 4.21282653 -3.38011591 2.22592999 0 0 Z " fill="#000000" transform="translate(114,431)"/>
<path d="M0 0 C-3.12621626 3.39417765 -5.56541027 5.6062718 -10 7 C-10 6.01 -10 5.02 -10 4 C-8.57421875 2.578125 -8.57421875 2.578125 -6.6875 1.25 C-6.07261719 0.80140625 -5.45773438 0.3528125 -4.82421875 -0.109375 C-3 -1 -3 -1 0 0 Z " fill="#000000" transform="translate(150,408)"/>
<path d="M0 0 C0.66 0 1.32 0 2 0 C3.3271261 3.9813783 3.06915913 7.85045227 3 12 C2.01 12 1.02 12 0 12 C-0.19401633 10.18818595 -0.38004375 8.37551468 -0.5625 6.5625 C-0.66691406 5.55316406 -0.77132813 4.54382813 -0.87890625 3.50390625 C-0.91886719 2.67761719 -0.95882813 1.85132813 -1 1 C-0.67 0.67 -0.34 0.34 0 0 Z " fill="#000000" transform="translate(306,358)"/>
<path d="M0 0 C0.66 0.33 1.32 0.66 2 1 C1 4 1 4 -1.06640625 5.16796875 C-1.89011719 5.50441406 -2.71382812 5.84085937 -3.5625 6.1875 C-4.38878906 6.53167969 -5.21507812 6.87585938 -6.06640625 7.23046875 C-6.70449219 7.48441406 -7.34257812 7.73835938 -8 8 C-8.33 7.01 -8.66 6.02 -9 5 C-7.54735962 4.1361871 -6.0876837 3.28419546 -4.625 2.4375 C-3.40683594 1.72400391 -3.40683594 1.72400391 -2.1640625 0.99609375 C-1.44992188 0.66738281 -0.73578125 0.33867187 0 0 Z " fill="#000000" transform="translate(233,352)"/>
<path d="M0 0 C0 0.66 0 1.32 0 2 C-1.26839526 2.50615298 -2.53983102 3.00469099 -3.8125 3.5 C-4.87404297 3.91765625 -4.87404297 3.91765625 -5.95703125 4.34375 C-8 5 -8 5 -11 5 C-11 4.01 -11 3.02 -11 2 C-9.73392393 1.46770674 -8.46189588 0.94955456 -7.1875 0.4375 C-6.47980469 0.14746094 -5.77210938 -0.14257812 -5.04296875 -0.44140625 C-3 -1 -3 -1 0 0 Z " fill="#000000" transform="translate(272,337)"/>
<path d="M0 0 C-0.1875 1.875 -0.1875 1.875 -1 4 C-3.5 5.125 -3.5 5.125 -6 6 C-6.33 6.66 -6.66 7.32 -7 8 C-7.99 7.67 -8.98 7.34 -10 7 C-8.84826645 4.53199953 -7.95216435 2.95216435 -6 1 C-3.90200436 0.34437636 -2.19959601 0 0 0 Z " fill="#000000" transform="translate(202,76)"/>
<path d="M0 0 C0.99 0.33 1.98 0.66 3 1 C2.34 4.63 1.68 8.26 1 12 C0.01 11.67 -0.98 11.34 -2 11 C-1.34 7.37 -0.68 3.74 0 0 Z " fill="#000000" transform="translate(249,639)"/>
<path d="M0 0 C0.99 0.33 1.98 0.66 3 1 C2.34 4.63 1.68 8.26 1 12 C0.01 11.67 -0.98 11.34 -2 11 C-1.125 3.375 -1.125 3.375 0 0 Z " fill="#000000" transform="translate(282,478)"/>
<path d="M0 0 C0.99 0 1.98 0 3 0 C2.01 3.63 1.02 7.26 0 11 C-0.99 11 -1.98 11 -3 11 C-2.44894091 7.0507432 -1.61064629 3.65079826 0 0 Z " fill="#000000" transform="translate(298,419)"/>
<path d="M0 0 C0.99 0 1.98 0 3 0 C2.875 1.75 2.875 1.75 2 4 C-0.875 6.3125 -0.875 6.3125 -4 8 C-4.99 7.67 -5.98 7.34 -7 7 C-4.66666667 4.66666667 -2.33333333 2.33333333 0 0 Z " fill="#000000" transform="translate(130,419)"/>
<path d="M0 0 C0.66 0.33 1.32 0.66 2 1 C0.65289578 5.04131267 -1.38428334 5.90288434 -5 8 C-5.99 8 -6.98 8 -8 8 C-6.49776416 3.79373966 -3.71449966 2.26099979 0 0 Z " fill="#000000" transform="translate(164,395)"/>
<path d="M0 0 C0.99 0.33 1.98 0.66 3 1 C0.19195732 3.96404505 -2.18315774 6.44499019 -6 8 C-6 6.68 -6 5.36 -6 4 C-3.1875 1.6875 -3.1875 1.6875 0 0 Z " fill="#000000" transform="translate(180,384)"/>
<path d="M0 0 C0.99 0.33 1.98 0.66 3 1 C0.525 5.455 0.525 5.455 -2 10 C-2.99 10 -3.98 10 -5 10 C-4.38545304 6.00544473 -2.29353263 3.25533664 0 0 Z " fill="#000000" transform="translate(161,122)"/>
<path d="M0 0 C0.99 0.33 1.98 0.66 3 1 C1.6581656 5.02550319 -0.4227573 5.88285636 -4 8 C-4.66 8 -5.32 8 -6 8 C-5.66354211 4.85972637 -4.94763914 3.94901705 -2.625 1.6875 C-1.75875 1.130625 -0.8925 0.57375 0 0 Z " fill="#000000" transform="translate(335,628)"/>
<path d="M0 0 C0.99 0 1.98 0 3 0 C3 3.63 3 7.26 3 11 C2.01 11 1.02 11 0 11 C0 7.37 0 3.74 0 0 Z " fill="#000000" transform="translate(52,621)"/>
<path d="M0 0 C-1.49041773 3.79379058 -3.69062512 5.68343758 -7 8 C-7.66 8 -8.32 8 -9 8 C-8.66410006 4.86493389 -7.97334828 3.974751 -5.625 1.75 C-3 0 -3 0 0 0 Z " fill="#000000" transform="translate(353,616)"/>
<path d="M0 0 C0.99 0.33 1.98 0.66 3 1 C-1 7.57142857 -1 7.57142857 -5 9 C-5 4.61031544 -2.87194899 3.23094261 0 0 Z " fill="#000000" transform="translate(377,588)"/>
<path d="M0 0 C0.99 0.33 1.98 0.66 3 1 C1.76067171 4.43198603 0.49698489 7.30325632 -2 10 C-2.99 10 -3.98 10 -5 10 C-4.38545304 6.00544473 -2.29353263 3.25533664 0 0 Z " fill="#000000" transform="translate(115,422)"/>
<path d="M0 0 C0.66 0.33 1.32 0.66 2 1 C1.38545304 4.99455527 -0.70646737 7.74466336 -3 11 C-3.99 10.01 -4.98 9.02 -6 8 C-4.02 5.36 -2.04 2.72 0 0 Z " fill="#000000" transform="translate(127,406)"/>
<path d="M0 0 C0.99 0 1.98 0 3 0 C3 3.63 3 7.26 3 11 C2.01 11 1.02 11 0 11 C0 7.37 0 3.74 0 0 Z " fill="#000000" transform="translate(65,407)"/>
<path d="M0 0 C0.99 0 1.98 0 3 0 C2.85892253 1.45880109 2.71197585 2.91703551 2.5625 4.375 C2.48128906 5.18710937 2.40007812 5.99921875 2.31640625 6.8359375 C2 9 2 9 1 11 C0.01 11 -0.98 11 -2 11 C-1.34 7.37 -0.68 3.74 0 0 Z " fill="#000000" transform="translate(303,399)"/>
<path d="M0 0 C0.66 0.33 1.32 0.66 2 1 C1.67 1.99 1.34 2.98 1 4 C-1.06640625 4.94921875 -1.06640625 4.94921875 -3.5625 5.6875 C-4.38878906 5.93886719 -5.21507812 6.19023437 -6.06640625 6.44921875 C-6.70449219 6.63097656 -7.34257812 6.81273437 -8 7 C-8 6.01 -8 5.02 -8 4 C-6.71349294 3.30289269 -5.42059335 2.61757124 -4.125 1.9375 C-3.40570313 1.55464844 -2.68640625 1.17179687 -1.9453125 0.77734375 C-1.30335938 0.52082031 -0.66140625 0.26429688 0 0 Z " fill="#000000" transform="translate(251,343)"/>
<path d="M0 0 C3 1 3 1 4.75 3.8125 C5.98589446 6.96403086 6.28222189 7.96929372 5 11 C2.29391583 9.64695791 2.03816953 8.19033456 0.875 5.4375 C0.52179688 4.61121094 0.16859375 3.78492188 -0.1953125 2.93359375 C-0.46085937 2.29550781 -0.72640625 1.65742188 -1 1 C-0.67 0.67 -0.34 0.34 0 0 Z " fill="#000000" transform="translate(299,339)"/>
<path d="M0 0 C-0.33 0.99 -0.66 1.98 -1 3 C-4.3 3 -7.6 3 -11 3 C-11 2.01 -11 1.02 -11 0 C-7.01803543 -1.05404945 -4.01804691 -0.84098656 0 0 Z " fill="#000000" transform="translate(292,333)"/>
<path d="M0 0 C0.99 0 1.98 0 3 0 C1.79157144 4.43090471 0.48331435 6.98112756 -3 10 C-3.66 9.34 -4.32 8.68 -5 8 C-4.24266726 6.6589523 -3.46867264 5.32730219 -2.6875 4 C-2.25824219 3.2575 -1.82898438 2.515 -1.38671875 1.75 C-0.70029297 0.88375 -0.70029297 0.88375 0 0 Z " fill="#000000" transform="translate(180,325)"/>
<path d="M0 0 C0.99 0 1.98 0 3 0 C2.34 3.63 1.68 7.26 1 11 C0.01 11 -0.98 11 -2 11 C-1.34 7.37 -0.68 3.74 0 0 Z " fill="#000000" transform="translate(81,307)"/>
<path d="M0 0 C0.99 0.33 1.98 0.66 3 1 C2.01 4.3 1.02 7.6 0 11 C-0.99 10.67 -1.98 10.34 -3 10 C-2.69201674 8.51988629 -2.378482 7.04092675 -2.0625 5.5625 C-1.88847656 4.73878906 -1.71445313 3.91507812 -1.53515625 3.06640625 C-1 1 -1 1 0 0 Z " fill="#000000" transform="translate(92,268)"/>
<path d="M0 0 C0.99 0.33 1.98 0.66 3 1 C1.68 3.97 0.36 6.94 -1 10 C-1.99 10 -2.98 10 -4 10 C-3.43454163 6.04179141 -2.19097652 3.3340947 0 0 Z " fill="#000000" transform="translate(228,239)"/>
<path d="M0 0 C0.99 0.66 1.98 1.32 3 2 C1.68 4.97 0.36 7.94 -1 11 C-1.99 11 -2.98 11 -4 11 C-3.39301257 6.87248551 -1.96189209 3.6678852 0 0 Z " fill="#000000" transform="translate(121,192)"/>
<path d="M0 0 C0.66 0.33 1.32 0.66 2 1 C1.29445932 4.66881155 -0.27735506 7.70450534 -2 11 C-2.99 10.67 -3.98 10.34 -5 10 C-3.66511872 6.40608886 -2.03977277 3.24509304 0 0 Z " fill="#000000" transform="translate(140,156)"/>
<path d="M0 0 C0.99 0.33 1.98 0.66 3 1 C0.525 5.455 0.525 5.455 -2 10 C-2.99 10 -3.98 10 -5 10 C-3.66511872 6.40608886 -2.03977277 3.24509304 0 0 Z " fill="#000000" transform="translate(150,139)"/>
<path d="M0 0 C0.99 0 1.98 0 3 0 C2.38545304 3.99455527 0.29353263 6.74466336 -2 10 C-2.99 9.67 -3.98 9.34 -5 9 C-3.49901406 5.88256767 -1.97568178 2.84498177 0 0 Z " fill="#000000" transform="translate(172,106)"/>
<path d="M0 0 C0.99 0.33 1.98 0.66 3 1 C-1.14285714 7.42857143 -1.14285714 7.42857143 -4 10 C-4.66 9.01 -5.32 8.02 -6 7 C-4.02 4.69 -2.04 2.38 0 0 Z " fill="#000000" transform="translate(185,90)"/>
<path d="M0 0 C0.66 0 1.32 0 2 0 C2 3.63 2 7.26 2 11 C1.01 11 0.02 11 -1 11 C-1.02688151 9.35425434 -1.04634123 7.70838587 -1.0625 6.0625 C-1.07410156 5.14597656 -1.08570313 4.22945312 -1.09765625 3.28515625 C-1 1 -1 1 0 0 Z " fill="#000000" transform="translate(53,640)"/>
<path d="M0 0 C0.66 0.33 1.32 0.66 2 1 C1.88590407 2.45922693 1.75834456 3.91740598 1.625 5.375 C1.55539063 6.18710937 1.48578125 6.99921875 1.4140625 7.8359375 C1 10 1 10 -1 12 C-1.66 11.34 -2.32 10.68 -3 10 C-2.79296875 7.87109375 -2.79296875 7.87109375 -2.1875 5.4375 C-1.99542969 4.63183594 -1.80335938 3.82617188 -1.60546875 2.99609375 C-1 1 -1 1 0 0 Z " fill="#000000" transform="translate(254,619)"/>
<path d="M0 0 C0.99 0 1.98 0 3 0 C3 3.3 3 6.6 3 10 C2.01 10.33 1.02 10.66 0 11 C0 7.37 0 3.74 0 0 Z " fill="#000000" transform="translate(53,602)"/>
<path d="M0 0 C0.66 0 1.32 0 2 0 C1.67 3.63 1.34 7.26 1 11 C0.01 11 -0.98 11 -2 11 C-1.85957123 9.35369672 -1.71250671 7.70795821 -1.5625 6.0625 C-1.48128906 5.14597656 -1.40007812 4.22945312 -1.31640625 3.28515625 C-1 1 -1 1 0 0 Z " fill="#000000" transform="translate(262,579)"/>
<path d="M0 0 C0.99 0 1.98 0 3 0 C2.67 3.3 2.34 6.6 2 10 C1.01 10.33 0.02 10.66 -1 11 C-0.67 7.37 -0.34 3.74 0 0 Z " fill="#000000" transform="translate(265,559)"/>
<path d="M0 0 C0.66 0 1.32 0 2 0 C2 3.63 2 7.26 2 11 C1.01 11 0.02 11 -1 11 C-1.02688151 9.35425434 -1.04634123 7.70838587 -1.0625 6.0625 C-1.07410156 5.14597656 -1.08570313 4.22945312 -1.09765625 3.28515625 C-1 1 -1 1 0 0 Z " fill="#000000" transform="translate(57,544)"/>
<path d="M0 0 C0.99 0 1.98 0 3 0 C2.67 3.3 2.34 6.6 2 10 C1.01 10.33 0.02 10.66 -1 11 C-0.67 7.37 -0.34 3.74 0 0 Z " fill="#000000" transform="translate(269,539)"/>
<path d="M0 0 C0.99 0 1.98 0 3 0 C2.67 3.3 2.34 6.6 2 10 C1.01 10.33 0.02 10.66 -1 11 C-0.67 7.37 -0.34 3.74 0 0 Z " fill="#000000" transform="translate(273,519)"/>
<path d="M0 0 C0.66 0.33 1.32 0.66 2 1 C1.67 4.3 1.34 7.6 1 11 C0.01 11 -0.98 11 -2 11 C-1.85957123 9.35369672 -1.71250671 7.70795821 -1.5625 6.0625 C-1.48128906 5.14597656 -1.40007812 4.22945313 -1.31640625 3.28515625 C-1 1 -1 1 0 0 Z " fill="#000000" transform="translate(278,498)"/>
<path d="M0 0 C0.66 0.33 1.32 0.66 2 1 C1.25 8.625 1.25 8.625 -1 12 C-1.66 11.67 -2.32 11.34 -3 11 C-2.69217504 9.35328588 -2.37860766 7.70764424 -2.0625 6.0625 C-1.88847656 5.14597656 -1.71445312 4.22945313 -1.53515625 3.28515625 C-1 1 -1 1 0 0 Z " fill="#000000" transform="translate(287,458)"/>
<path d="M0 0 C0.66 0.33 1.32 0.66 2 1 C1.25 8.625 1.25 8.625 -1 12 C-1.66 11.67 -2.32 11.34 -3 11 C-2.69217504 9.35328588 -2.37860766 7.70764424 -2.0625 6.0625 C-1.88847656 5.14597656 -1.71445312 4.22945313 -1.53515625 3.28515625 C-1 1 -1 1 0 0 Z " fill="#000000" transform="translate(292,438)"/>
<path d="M0 0 C0.99 0 1.98 0 3 0 C2.67 3.63 2.34 7.26 2 11 C1.01 11 0.02 11 -1 11 C-0.67 7.37 -0.34 3.74 0 0 Z " fill="#000000" transform="translate(306,379)"/>
<path d="M0 0 C0.99 0.33 1.98 0.66 3 1 C0.19195732 3.96404505 -2.18315774 6.44499019 -6 8 C-6 6.68 -6 5.36 -6 4 C-3.1875 1.6875 -3.1875 1.6875 0 0 Z " fill="#000000" transform="translate(197,373)"/>
<path d="M0 0 C0.99 0 1.98 0 3 0 C2.67 3.3 2.34 6.6 2 10 C1.01 10.33 0.02 10.66 -1 11 C-1.125 3.375 -1.125 3.375 0 0 Z " fill="#000000" transform="translate(70,367)"/>
<path d="M0 0 C0.66 0.33 1.32 0.66 2 1 C1 4 1 4 -0.84765625 5.16796875 C-1.57855469 5.50441406 -2.30945313 5.84085937 -3.0625 6.1875 C-3.79597656 6.53167969 -4.52945313 6.87585938 -5.28515625 7.23046875 C-6.13400391 7.61138672 -6.13400391 7.61138672 -7 8 C-7 6.68 -7 5.36 -7 4 C-1.7265625 0.77734375 -1.7265625 0.77734375 0 0 Z " fill="#000000" transform="translate(215,362)"/>
<path d="M0 0 C0.99 0 1.98 0 3 0 C2.38545304 3.99455527 0.29353263 6.74466336 -2 10 C-2.66 9.67 -3.32 9.34 -4 9 C-3.3543999 5.51375944 -2.07639763 2.87501211 0 0 Z " fill="#000000" transform="translate(159,358)"/>
<path d="M0 0 C0.99 0 1.98 0 3 0 C2.34 3.63 1.68 7.26 1 11 C0.01 10.67 -0.98 10.34 -2 10 C-1.34 6.7 -0.68 3.4 0 0 Z " fill="#000000" transform="translate(77,327)"/>
<path d="M0 0 C0.99 0 1.98 0 3 0 C2.38545304 3.99455527 0.29353263 6.74466336 -2 10 C-2.66 9.67 -3.32 9.34 -4 9 C-2.94124926 5.59687262 -1.99097846 2.98646769 0 0 Z " fill="#000000" transform="translate(190,308)"/>
<path d="M0 0 C0.99 0.33 1.98 0.66 3 1 C2.34 4.3 1.68 7.6 1 11 C0.01 11 -0.98 11 -2 11 C-1.125 3.375 -1.125 3.375 0 0 Z " fill="#000000" transform="translate(86,287)"/>
<path d="M0 0 C0.66 0 1.32 0 2 0 C1.43454163 3.95820859 0.19097652 6.6659053 -2 10 C-2.99 9.67 -3.98 9.34 -5 9 C-4.3566152 7.686298 -3.71021785 6.37407102 -3.0625 5.0625 C-2.70285156 4.33160156 -2.34320313 3.60070312 -1.97265625 2.84765625 C-1 1 -1 1 0 0 Z " fill="#000000" transform="translate(210,274)"/>
<path d="M0 0 C0.66 0 1.32 0 2 0 C1.44894091 3.9492568 0.61064629 7.34920174 -1 11 C-1.99 10.67 -2.98 10.34 -4 10 C-3.52449439 8.51965236 -3.04448784 7.04074979 -2.5625 5.5625 C-2.29566406 4.73878906 -2.02882813 3.91507813 -1.75390625 3.06640625 C-1 1 -1 1 0 0 Z " fill="#000000" transform="translate(113,211)"/>
<path d="M0 0 C0.99 0.66 1.98 1.32 3 2 C1.35 4.97 -0.3 7.94 -2 11 C-2.66 10.67 -3.32 10.34 -4 10 C-3.43454163 6.04179141 -2.19097652 3.3340947 0 0 Z " fill="#000000" transform="translate(130,174)"/>
<path d="M0 0 C0.99 0 1.98 0 3 0 C2.125 7.625 2.125 7.625 1 11 C0.01 10.67 -0.98 10.34 -2 10 C-1.34 6.7 -0.68 3.4 0 0 Z " fill="#000000" transform="translate(263,148)"/>
<path d="M0 0 C0.99 0.33 1.98 0.66 3 1 C3.94921875 3.06640625 3.94921875 3.06640625 4.6875 5.5625 C4.93886719 6.38878906 5.19023437 7.21507813 5.44921875 8.06640625 C5.63097656 8.70449219 5.81273437 9.34257813 6 10 C5.01 10.33 4.02 10.66 3 11 C0 4.5 0 4.5 0 0 Z " fill="#000000" transform="translate(263,90)"/>
<path d="M0 0 C4.83256305 0.41421969 6.82679218 2.46413986 10 6 C7 7 7 7 5.17578125 6.22265625 C3.45052083 5.1484375 1.72526042 4.07421875 0 3 C0 2.01 0 1.02 0 0 Z " fill="#000000" transform="translate(249,77)"/>
<path d="M0 0 C0 0.99 0 1.98 0 3 C-3.3 3.33 -6.6 3.66 -10 4 C-10.33 3.01 -10.66 2.02 -11 1 C-7.27569643 0.30710631 -3.78916254 -0.11144596 0 0 Z " fill="#000000" transform="translate(221,73)"/>
<path d="M0 0 C3.3 0 6.6 0 10 0 C10.33 0.99 10.66 1.98 11 3 C7.37 3 3.74 3 0 3 C0 2.01 0 1.02 0 0 Z " fill="#000000" transform="translate(230,73)"/>
<path d="M0 0 C0.53625 0.226875 1.0725 0.45375 1.625 0.6875 C-0.50169835 3.02686818 -2.43724856 4.49403848 -5.375 5.6875 C-6.365 5.6875 -7.355 5.6875 -8.375 5.6875 C-8.375 4.6975 -8.375 3.7075 -8.375 2.6875 C-2.95961538 -0.38942308 -2.95961538 -0.38942308 0 0 Z " fill="#000000" transform="translate(304.375,649.3125)"/>
<path d="M0 0 C-0.0625 1.75 -0.0625 1.75 -1 4 C-3.24164322 5.59501537 -5.53566643 6.74543018 -8 8 C-8 6.68 -8 5.36 -8 4 C-2.88888889 0 -2.88888889 0 0 0 Z " fill="#000000" transform="translate(322,639)"/>
<path d="M0 0 C0.66 0 1.32 0 2 0 C1.67 3.3 1.34 6.6 1 10 C0.01 10.33 -0.98 10.66 -2 11 C-1.85957123 9.35369672 -1.71250671 7.70795821 -1.5625 6.0625 C-1.48128906 5.14597656 -1.40007812 4.22945312 -1.31640625 3.28515625 C-1 1 -1 1 0 0 Z " fill="#000000" transform="translate(258,599)"/>
<path d="M0 0 C0.99 0 1.98 0 3 0 C3.14285714 7.42857143 3.14285714 7.42857143 2 11 C1.01 10.67 0.02 10.34 -1 10 C-0.67 6.7 -0.34 3.4 0 0 Z " fill="#000000" transform="translate(58,525)"/>
<path d="M0 0 C0.99 0 1.98 0 3 0 C2.67 3.63 2.34 7.26 2 11 C1.01 10.67 0.02 10.34 -1 10 C-0.67 6.7 -0.34 3.4 0 0 Z " fill="#000000" transform="translate(60,506)"/>
<path d="M0 0 C0.99 0 1.98 0 3 0 C2.3543999 3.48624056 1.07639763 6.12498789 -1 9 C-1.99 9 -2.98 9 -4 9 C-3.3543999 5.51375944 -2.07639763 2.87501211 0 0 Z " fill="#000000" transform="translate(137,391)"/>
<path d="M0 0 C0.99 0 1.98 0 3 0 C3.125 7.625 3.125 7.625 2 11 C1.01 10.67 0.02 10.34 -1 10 C-0.67 6.7 -0.34 3.4 0 0 Z " fill="#000000" transform="translate(67,387)"/>
<path d="M0 0 C0.99 0.66 1.98 1.32 3 2 C1.35 4.64 -0.3 7.28 -2 10 C-2.99 9.67 -3.98 9.34 -5 9 C-3.35 6.03 -1.7 3.06 0 0 Z " fill="#000000" transform="translate(170,341)"/>
<path d="M0 0 C0.99 0.33 1.98 0.66 3 1 C2.40844669 2.31823302 1.80128537 3.62947051 1.1875 4.9375 C0.68283203 6.03384766 0.68283203 6.03384766 0.16796875 7.15234375 C-1 9 -1 9 -4 10 C-3.43454163 6.04179141 -2.19097652 3.3340947 0 0 Z " fill="#000000" transform="translate(200,291)"/>
<path d="M0 0 C0.99 0 1.98 0 3 0 C2.01 3.63 1.02 7.26 0 11 C-0.99 10.67 -1.98 10.34 -3 10 C-2.01 6.7 -1.02 3.4 0 0 Z " fill="#000000" transform="translate(98,249)"/>
<path d="M0 0 C0.99 0 1.98 0 3 0 C2.01 3.3 1.02 6.6 0 10 C-0.99 10 -1.98 10 -3 10 C-2.69201674 8.51988629 -2.378482 7.04092675 -2.0625 5.5625 C-1.88847656 4.73878906 -1.71445313 3.91507813 -1.53515625 3.06640625 C-1 1 -1 1 0 0 Z " fill="#000000" transform="translate(105,230)"/>
<path d="M0 0 C0.99 0.33 1.98 0.66 3 1 C2.01 3.97 1.02 6.94 0 10 C-0.99 10 -1.98 10 -3 10 C-2.39009109 6.44219804 -1.4216319 3.3171411 0 0 Z " fill="#000000" transform="translate(244,203)"/>
<path d="M0 0 C0.66 0.33 1.32 0.66 2 1 C1.49287967 4.71888239 0.88391785 7.73454239 -1 11 C-1.99 10.67 -2.98 10.34 -4 10 C-2.68 6.7 -1.36 3.4 0 0 Z " fill="#000000" transform="translate(252,185)"/>
<path d="M0 0 C0.66 0 1.32 0 2 0 C3.20272819 2.40545638 3.10071472 3.94996953 3.0625 6.625 C3.05347656 7.44226563 3.04445313 8.25953125 3.03515625 9.1015625 C3.02355469 9.72804688 3.01195312 10.35453125 3 11 C2.01 11 1.02 11 0 11 C0 7.37 0 3.74 0 0 Z " fill="#000000" transform="translate(268,109)"/>
<path d="M0 0 C0 0.99 0 1.98 0 3 C-4.95 4.485 -4.95 4.485 -10 6 C-10 5.01 -10 4.02 -10 3 C-8.70990357 2.49596232 -7.41786211 1.99690074 -6.125 1.5 C-5.04605469 1.08234375 -5.04605469 1.08234375 -3.9453125 0.65625 C-2 0 -2 0 0 0 Z " fill="#000000" transform="translate(288,656)"/>
<path d="M0 0 C0.99 0.33 1.98 0.66 3 1 C2.07347299 2.17539996 1.13336613 3.34010577 0.1875 4.5 C-0.33457031 5.1496875 -0.85664063 5.799375 -1.39453125 6.46875 C-3 8 -3 8 -6 8 C-4.55746343 4.63408134 -2.66735273 2.48952921 0 0 Z " fill="#000000" transform="translate(364,602)"/>
<path d="M0 0 C0.99 0.33 1.98 0.66 3 1 C1.84414715 4.91211733 0.64465038 7.8745041 -2 11 C-2.66 10.34 -3.32 9.68 -4 9 C-2.68 6.03 -1.36 3.06 0 0 Z " fill="#000000" transform="translate(236,221)"/>
<path d="M0 0 C0.99 0 1.98 0 3 0 C2.01 3.3 1.02 6.6 0 10 C-0.99 10 -1.98 10 -3 10 C-2.01 6.7 -1.02 3.4 0 0 Z " fill="#000000" transform="translate(258,167)"/>
<path d="M0 0 C0 0.99 0 1.98 0 3 C-3.3 3.66 -6.6 4.32 -10 5 C-10 4.01 -10 3.02 -10 2 C-8.7090864 1.66376204 -7.41723903 1.33110751 -6.125 1 C-5.40570313 0.814375 -4.68640625 0.62875 -3.9453125 0.4375 C-2 0 -2 0 0 0 Z " fill="#000000" transform="translate(269,661)"/>
<path d="M0 0 C0.99 0 1.98 0 3 0 C3.125 6.625 3.125 6.625 2 10 C1.01 10 0.02 10 -1 10 C-0.67 6.7 -0.34 3.4 0 0 Z " fill="#000000" transform="translate(55,564)"/>
<path d="M0 0 C0.66 0.33 1.32 0.66 2 1 C0.7580393 4.43927579 -0.55740284 7.25207819 -3 10 C-3.66 10 -4.32 10 -5 10 C-4.38545304 6.00544473 -2.29353263 3.25533664 0 0 Z " fill="#000000" transform="translate(149,374)"/>
<path d="M0 0 C0.99 0 1.98 0 3 0 C2.88590407 1.45922693 2.75834456 2.91740598 2.625 4.375 C2.55539063 5.18710937 2.48578125 5.99921875 2.4140625 6.8359375 C2 9 2 9 0 11 C-0.33 10.67 -0.66 10.34 -1 10 C-0.91036938 8.30858344 -0.75422324 6.62040398 -0.5625 4.9375 C-0.46066406 4.01839844 -0.35882813 3.09929687 -0.25390625 2.15234375 C-0.17011719 1.44207031 -0.08632812 0.73179687 0 0 Z " fill="#000000" transform="translate(73,347)"/>
<path d="M0 0 C0.99 0.66 1.98 1.32 3 2 C1.35 4.97 -0.3 7.94 -2 11 C-2.66 10.67 -3.32 10.34 -4 10 C-2.8905928 6.51329166 -1.73662334 3.22515763 0 0 Z " fill="#000000" transform="translate(219,256)"/>
<path d="M0 0 C0.99 0 1.98 0 3 0 C2.67 3.3 2.34 6.6 2 10 C1.01 10 0.02 10 -1 10 C-0.67 6.7 -0.34 3.4 0 0 Z " fill="#000000" transform="translate(267,129)"/>
<path d="M0 0 C0.99 0.66 1.98 1.32 3 2 C2.67 2.99 2.34 3.98 2 5 C2.99 4.67 3.98 4.34 5 4 C5 4.99 5 5.98 5 7 C2.69 7 0.38 7 -2 7 C-1.34 4.69 -0.68 2.38 0 0 Z " fill="#000000" transform="translate(245,659)"/>
<path d="M0 0 C0.99 0 1.98 0 3 0 C2.67 3.3 2.34 6.6 2 10 C1.01 10 0.02 10 -1 10 C-0.67 6.7 -0.34 3.4 0 0 Z " fill="#000000" transform="translate(54,583)"/>
<path d="M0 0 C0.99 0.33 1.98 0.66 3 1 C2.34 2.32 1.68 3.64 1 5 C0.01 5 -0.98 5 -2 5 C-1.34 3.35 -0.68 1.7 0 0 Z " fill="#000000" transform="translate(386,577)"/>
<path d="M0 0 C0.66 0.33 1.32 0.66 2 1 C1.34 2.32 0.68 3.64 0 5 C-0.99 5 -1.98 5 -3 5 C-1.125 1.125 -1.125 1.125 0 0 Z " fill="#000000" transform="translate(104,438)"/>
<path d="M0 0 C0.99 0 1.98 0 3 0 C3 1.65 3 3.3 3 5 C2.34 5 1.68 5 1 5 C0.67 3.35 0.34 1.7 0 0 Z " fill="#000000" transform="translate(52,660)"/>
<path d="M0 0 C0.99 0.33 1.98 0.66 3 1 C2.67 1.99 2.34 2.98 2 4 C1.01 3.01 0.02 2.02 -1 1 C-0.67 0.67 -0.34 0.34 0 0 Z " fill="#000000" transform="translate(393,432)"/>
<path d="M0 0 C0.99 0.33 1.98 0.66 3 1 C2.67 1.99 2.34 2.98 2 4 C1.01 3.01 0.02 2.02 -1 1 C-0.67 0.67 -0.34 0.34 0 0 Z " fill="#000000" transform="translate(365,84)"/>
</svg>
