<svg width="661" height="714" viewBox="0 0 661 714" fill="none" xmlns="http://www.w3.org/2000/svg">
<circle cx="442.5" cy="155.5" r="30.5" fill="black"/>
<path d="M260.752 12.9128C311.12 13.9004 348.814 54.0633 361.365 74.0214C374.327 5.50559 382.969 12.9128 430.498 4.27132C468.521 -2.64187 491.195 20.32 497.779 32.6651V371.54C546.666 333.023 579.051 264.549 589.133 235.126C597.528 219.324 605.388 181.63 608.268 164.758C609.297 161.672 615.799 155.623 633.576 156.117C651.353 156.611 657.443 179.778 658.266 191.301C653.945 240.681 627.403 296.234 592.22 347.467C564.073 388.453 511.77 426.27 489.137 440.056C486.175 506.719 440.58 584.7 418.153 615.357C388.031 664.738 324.535 680.786 296.553 682.638C283.179 684.49 249.024 683.749 219.396 665.972C182.36 643.751 173.719 622.764 175.57 571.532C177.052 530.546 230.095 497.666 256.431 486.35L363.834 440.056C367.784 421.785 369.184 318.044 369.389 268.458C368.155 295.617 355.192 361.17 313.219 406.106C271.245 451.043 199.026 433.883 168.163 419.686C150.468 409.193 109.03 375.614 84.8333 325.246C60.6368 274.877 62.4063 211.259 66.3156 185.745C67.5501 172.989 74.4634 138.71 92.2404 103.65C110.017 68.5896 144.09 41.7182 158.904 32.6651C171.867 25.6695 210.384 11.9252 260.752 12.9128Z" stroke="black" stroke-width="5"/>
<path d="M541.619 226.455V241H539.858V228.301H539.773L536.222 230.659V228.869L539.858 226.455H541.619ZM546.193 241.114C545.843 241.114 545.542 240.988 545.291 240.737C545.04 240.486 544.915 240.186 544.915 239.835C544.915 239.485 545.04 239.184 545.291 238.933C545.542 238.682 545.843 238.557 546.193 238.557C546.544 238.557 546.844 238.682 547.095 238.933C547.346 239.184 547.472 239.485 547.472 239.835C547.472 240.067 547.412 240.28 547.294 240.474C547.18 240.669 547.027 240.825 546.832 240.943C546.643 241.057 546.43 241.114 546.193 241.114ZM550.11 238.017V236.568L556.502 226.455H557.553V228.699H556.843L552.013 236.341V236.455H560.621V238.017H550.11ZM556.957 241V237.577V236.902V226.455H558.633V241H556.957Z" fill="black"/>
<path d="M533.619 168.455V183H531.858V170.301H531.773L528.222 172.659V170.869L531.858 168.455H533.619ZM538.193 183.114C537.843 183.114 537.542 182.988 537.291 182.737C537.04 182.486 536.915 182.186 536.915 181.835C536.915 181.485 537.04 181.184 537.291 180.933C537.542 180.682 537.843 180.557 538.193 180.557C538.544 180.557 538.844 180.682 539.095 180.933C539.346 181.184 539.472 181.485 539.472 181.835C539.472 182.067 539.412 182.28 539.294 182.474C539.18 182.669 539.027 182.825 538.832 182.943C538.643 183.057 538.43 183.114 538.193 183.114ZM542.451 183V181.722L547.252 176.466C547.816 175.85 548.28 175.315 548.644 174.861C549.009 174.402 549.279 173.971 549.454 173.568C549.634 173.161 549.724 172.735 549.724 172.29C549.724 171.778 549.601 171.336 549.354 170.962C549.113 170.588 548.781 170.299 548.36 170.095C547.939 169.892 547.465 169.79 546.94 169.79C546.381 169.79 545.893 169.906 545.477 170.138C545.065 170.365 544.745 170.685 544.518 171.097C544.295 171.509 544.184 171.991 544.184 172.545H542.508C542.508 171.693 542.704 170.945 543.097 170.301C543.49 169.657 544.025 169.155 544.702 168.795C545.384 168.436 546.149 168.256 546.996 168.256C547.849 168.256 548.604 168.436 549.262 168.795C549.92 169.155 550.436 169.641 550.81 170.251C551.184 170.862 551.371 171.542 551.371 172.29C551.371 172.825 551.274 173.348 551.08 173.859C550.891 174.366 550.559 174.932 550.086 175.557C549.617 176.177 548.966 176.935 548.133 177.83L544.866 181.324V181.438H551.627V183H542.451Z" fill="black"/>
<path d="M6.61932 199.455V214H4.85795V201.301H4.77273L1.22159 203.659V201.869L4.85795 199.455H6.61932ZM11.1932 214.114C10.8428 214.114 10.5421 213.988 10.2912 213.737C10.0402 213.486 9.91477 213.186 9.91477 212.835C9.91477 212.485 10.0402 212.184 10.2912 211.933C10.5421 211.682 10.8428 211.557 11.1932 211.557C11.5436 211.557 11.8442 211.682 12.0952 211.933C12.3461 212.184 12.4716 212.485 12.4716 212.835C12.4716 213.067 12.4124 213.28 12.294 213.474C12.1804 213.669 12.0265 213.825 11.8324 213.943C11.643 214.057 11.4299 214.114 11.1932 214.114ZM18.8263 199.455V214H17.065V201.301H16.9798L13.4286 203.659V201.869L17.065 199.455H18.8263Z" fill="black"/>
<path d="M166.619 694.455V709H164.858V696.301H164.773L161.222 698.659V696.869L164.858 694.455H166.619ZM171.193 709.114C170.843 709.114 170.542 708.988 170.291 708.737C170.04 708.486 169.915 708.186 169.915 707.835C169.915 707.485 170.04 707.184 170.291 706.933C170.542 706.682 170.843 706.557 171.193 706.557C171.544 706.557 171.844 706.682 172.095 706.933C172.346 707.184 172.472 707.485 172.472 707.835C172.472 708.067 172.412 708.28 172.294 708.474C172.18 708.669 172.027 708.825 171.832 708.943C171.643 709.057 171.43 709.114 171.193 709.114ZM179.819 709.199C178.881 709.199 178.046 709.038 177.312 708.716C176.583 708.394 176.003 707.946 175.572 707.374C175.146 706.796 174.914 706.126 174.876 705.364H176.665C176.703 705.832 176.864 706.237 177.148 706.578C177.433 706.914 177.804 707.175 178.263 707.359C178.723 707.544 179.232 707.636 179.79 707.636C180.415 707.636 180.969 707.527 181.452 707.31C181.935 707.092 182.314 706.789 182.589 706.401C182.863 706.012 183.001 705.562 183.001 705.051C183.001 704.516 182.868 704.045 182.603 703.638C182.338 703.226 181.95 702.904 181.438 702.672C180.927 702.44 180.302 702.324 179.563 702.324H178.398V700.761H179.563C180.141 700.761 180.647 700.657 181.083 700.449C181.523 700.241 181.867 699.947 182.113 699.568C182.364 699.189 182.489 698.744 182.489 698.233C182.489 697.741 182.38 697.312 182.163 696.947C181.945 696.583 181.637 696.299 181.239 696.095C180.846 695.892 180.382 695.79 179.847 695.79C179.345 695.79 178.872 695.882 178.427 696.067C177.987 696.247 177.627 696.509 177.347 696.855C177.068 697.196 176.916 697.608 176.893 698.091H175.188C175.217 697.329 175.446 696.661 175.877 696.088C176.308 695.51 176.871 695.061 177.567 694.739C178.268 694.417 179.038 694.256 179.876 694.256C180.775 694.256 181.547 694.438 182.191 694.803C182.835 695.162 183.33 695.638 183.675 696.23C184.021 696.822 184.194 697.461 184.194 698.148C184.194 698.967 183.978 699.665 183.548 700.243C183.121 700.821 182.541 701.221 181.808 701.443V701.557C182.726 701.708 183.443 702.099 183.96 702.729C184.476 703.354 184.734 704.128 184.734 705.051C184.734 705.842 184.518 706.552 184.087 707.182C183.661 707.807 183.079 708.299 182.34 708.659C181.602 709.019 180.761 709.199 179.819 709.199Z" fill="black"/>
<path d="M517.051 253.316C517.226 253.84 517.792 254.123 518.316 253.949L526.855 251.107C527.379 250.933 527.663 250.367 527.488 249.843C527.314 249.319 526.748 249.035 526.224 249.21L518.633 251.735L516.107 244.145C515.933 243.621 515.367 243.337 514.843 243.512C514.319 243.686 514.035 244.252 514.21 244.776L517.051 253.316ZM517.001 94.0466C518.133 118.279 519.491 155.303 519.887 187.622C520.085 203.783 520.042 218.755 519.611 230.358C519.396 236.161 519.084 241.106 518.659 244.93C518.446 246.842 518.207 248.46 517.941 249.757C517.671 251.071 517.386 251.993 517.106 252.552L518.894 253.448C519.293 252.65 519.62 251.522 519.9 250.16C520.183 248.781 520.43 247.097 520.647 245.151C521.079 241.257 521.394 236.257 521.61 230.432C522.042 218.78 522.085 203.77 521.886 187.597C521.49 155.249 520.131 118.2 518.999 93.9534L517.001 94.0466Z" fill="black"/>
<path d="M586.75 185.338C586.384 184.924 585.752 184.885 585.338 185.25L578.592 191.208C578.178 191.574 578.139 192.206 578.505 192.62C578.87 193.034 579.502 193.073 579.916 192.707L585.912 187.412L591.208 193.408C591.574 193.822 592.206 193.861 592.62 193.495C593.034 193.13 593.073 192.498 592.707 192.084L586.75 185.338ZM527.852 307.524C528.058 307.188 529.064 305.825 530.758 303.493C532.425 301.197 534.709 298.028 537.407 294.16C542.801 286.424 549.852 275.889 556.94 263.937C571.086 240.083 585.488 210.409 586.998 186.062L585.002 185.938C583.524 209.763 569.36 239.072 555.22 262.917C548.164 274.814 541.142 285.307 535.766 293.016C533.078 296.87 530.802 300.028 529.14 302.318C527.503 304.571 526.408 306.053 526.148 306.476L527.852 307.524Z" fill="black"/>
<path d="M411 37C488.5 263 482 659 256 659C161.5 615 176.5 529 461 422.5C486.501 422.5 622.501 330 633.001 177.5" stroke="black" stroke-width="2" stroke-dasharray="10 10"/>
<path d="M122.902 114.279C197.987 -23.8109 376.267 81.7551 439 155.304L363.136 256.37L306.725 372.947C257.122 452.998 174.45 382.787 153.539 353.434C89.7357 263.876 101.828 167.147 122.902 114.279Z" stroke="black" stroke-width="2" stroke-dasharray="10 10"/>
<path d="M130.654 417.492C131.479 417.407 132.077 416.67 131.992 415.846L130.603 402.417C130.518 401.593 129.781 400.994 128.957 401.08C128.133 401.165 127.534 401.902 127.619 402.726L128.854 414.662L116.917 415.897C116.093 415.982 115.494 416.719 115.58 417.543C115.665 418.368 116.402 418.966 117.226 418.881L130.654 417.492ZM113.331 40.0604C83.8692 76.7201 49.3164 139.529 41.4098 208.905C33.4925 278.374 52.3094 354.403 129.554 417.164L131.446 414.836C55.0908 352.797 36.5744 277.826 44.3905 209.245C52.2171 140.571 86.4644 78.2799 115.669 41.9396L113.331 40.0604Z" fill="black"/>
<path d="M168.922 523.024C168.66 522.238 167.81 521.815 167.024 522.078L154.222 526.361C153.436 526.624 153.012 527.474 153.275 528.26C153.538 529.045 154.388 529.469 155.174 529.206L166.553 525.398L170.361 536.778C170.624 537.564 171.474 537.988 172.26 537.725C173.045 537.462 173.469 536.612 173.206 535.826L168.922 523.024ZM387.193 678.736C365.342 692.685 335.268 700.95 303.753 702.705C272.246 704.461 239.442 699.702 212.165 687.751C184.894 675.803 163.254 656.72 153.798 629.861C144.342 603.004 146.958 568.062 168.842 524.169L166.158 522.831C144.042 567.188 141.158 602.996 150.968 630.858C160.777 658.718 183.169 678.322 210.961 690.499C238.746 702.673 272.035 707.477 303.919 705.701C335.794 703.925 366.408 695.565 388.807 681.264L387.193 678.736Z" fill="black"/>
</svg>
