<?xml version="1.0" encoding="UTF-8"?>
<svg version="1.1" xmlns="http://www.w3.org/2000/svg" width="508" height="782">
<path d="M0 0 C28.4067856 -2.08815484 69.82326941 6.54445273 92.12011719 25.52441406 C93.04050781 26.33652344 93.04050781 26.33652344 93.97949219 27.16503906 C94.79160156 27.7825 95.60371094 28.39996094 96.44042969 29.03613281 C113.61954406 43.44015948 119.04973228 67.96352906 120.97949219 89.16503906 C121.42161271 95.7218101 121.51645315 102.28267779 121.54199219 108.85253906 C121.54661469 109.7571286 121.55123718 110.66171814 121.55599976 111.59371948 C121.56723194 124.91960826 120.45846867 137.66970643 117.79199219 150.72753906 C117.6460965 151.4429184 117.50020081 152.15829773 117.34988403 152.89535522 C114.49488698 166.54842469 111.1118938 180.60674196 105.22949219 193.29003906 C104.89296631 194.02810791 104.55644043 194.76617676 104.2097168 195.52661133 C86.40803972 233.65435866 52.57827746 259.20426958 13.97949219 274.16503906 C14.75292969 274.38417969 15.52636719 274.60332031 16.32324219 274.82910156 C27.48422722 278.22712423 34.42156132 282.74599254 39.97949219 293.16503906 C47.21092636 308.16720081 47.48538639 325.84250977 47.97949219 342.16503906 C48.69451904 341.89989502 49.4095459 341.63475098 50.14624023 341.36157227 C65.30416788 335.75013782 80.49254963 330.23037403 95.73648071 324.85653687 C97.39942922 324.2702066 99.06200678 323.68282317 100.72421265 323.09439087 C103.0633536 322.26694223 105.40396431 321.44380656 107.74511719 320.62207031 C108.80092735 320.2478595 108.80092735 320.2478595 109.87806702 319.86608887 C114.74986727 318.16503906 114.74986727 318.16503906 116.97949219 318.16503906 C116.97949219 336.97503906 116.97949219 355.78503906 116.97949219 375.16503906 C107.98022203 379.66467414 107.98022203 379.66467414 104.68505859 380.88500977 C103.94293121 381.16242508 103.20080383 381.43984039 102.43618774 381.72566223 C101.65899384 382.0111644 100.88179993 382.29666656 100.08105469 382.59082031 C99.2472226 382.90149948 98.4133905 383.21217865 97.55429077 383.53227234 C94.90589918 384.51823698 92.25533815 385.49819471 89.60449219 386.47753906 C86.13760479 387.76330855 82.6717849 389.0519357 79.20605469 390.34082031 C78.35746887 390.65528107 77.50888306 390.96974182 76.63458252 391.29373169 C72.33482345 392.89226545 68.04979695 394.52033535 63.78320312 396.20556641 C62.95726654 396.53147263 62.13132996 396.85737885 61.28036499 397.19316101 C59.71634266 397.81315343 58.15408137 398.437613 56.59390259 399.06721497 C53.5749585 400.26509043 51.2591779 401.16503906 47.97949219 401.16503906 C48.02589844 402.02742188 48.07230469 402.88980469 48.12011719 403.77832031 C49.18605192 439.8297557 29.81229784 475.05763288 11.97949219 505.16503906 C11.49448242 505.98762207 11.00947266 506.81020508 10.50976562 507.65771484 C-3.39649992 531.14075552 -19.50636486 553.24855403 -37.02050781 574.16503906 C-37.5282373 574.77186523 -38.0359668 575.37869141 -38.55908203 576.00390625 C-40.06104381 577.79197897 -41.56990941 579.57388362 -43.08300781 581.35253906 C-43.50469238 581.84987549 -43.92637695 582.34721191 -44.36083984 582.85961914 C-53.45173938 593.4387625 -63.14512439 603.45606351 -73.02197266 613.296875 C-74.78699325 615.05647386 -76.54651914 616.82144303 -78.30566406 618.58691406 C-84.03959223 624.32486625 -89.79438588 629.95580541 -96.02050781 635.16503906 C-96.65150391 635.70273926 -97.2825 636.24043945 -97.93261719 636.79443359 C-108.56636607 645.8214347 -119.57946614 654.19097971 -131.02050781 662.16503906 C-131.65134277 662.60799316 -132.28217773 663.05094727 -132.93212891 663.50732422 C-157.35970478 680.57711751 -183.73033694 693.51640242 -212.27050781 702.04003906 C-212.94919922 702.24330811 -213.62789063 702.44657715 -214.32714844 702.65600586 C-241.68129169 710.52748103 -272.8906845 702.93055339 -297.25952148 689.56835938 C-303.18383935 686.19198969 -308.74027423 682.49025282 -314.02050781 678.16503906 C-315.01695312 677.35550781 -316.01339844 676.54597656 -317.04003906 675.71191406 C-328.95421491 665.64581169 -337.30667359 653.09997737 -339.39160156 637.36425781 C-340.61676302 611.71011937 -317.98505329 589.29636431 -302.08300781 571.60253906 C-296.79765875 565.88947389 -291.32548365 560.36606463 -285.83300781 554.85253906 C-284.98939697 554.00425537 -284.14578613 553.15597168 -283.27661133 552.28198242 C-278.92639513 547.94287134 -274.50968857 543.75398636 -269.84985352 539.74926758 C-267.06536008 537.33787323 -264.39417881 534.80964881 -261.70800781 532.29003906 C-256.93639886 527.85038613 -252.03882791 523.64844765 -246.95410156 519.56738281 C-243.47147512 516.71543173 -240.09270138 513.75682658 -236.70800781 510.79003906 C-231.40546391 506.15700827 -226.00068885 501.71239044 -220.43359375 497.40209961 C-215.69756282 493.7268389 -211.07123019 489.93043361 -206.45800781 486.10253906 C-199.43346046 480.28437795 -192.28609689 474.67877291 -185.02050781 469.16503906 C-183.01954836 467.6246179 -181.01957802 466.0829112 -179.02050781 464.54003906 C-176.68877336 462.74628608 -174.35490744 460.95532184 -172.02050781 459.16503906 C-170.87533691 458.2867041 -170.87533691 458.2867041 -169.70703125 457.390625 C-159.60676356 449.65115225 -149.46398705 441.9809646 -139.19702148 434.46386719 C-133.14358244 430.02102241 -127.16849344 425.48160911 -121.20800781 420.91503906 C-115.53992436 416.57387688 -109.86169239 412.27091384 -104.02050781 408.16503906 C-95.33513541 402.03847099 -86.91501202 395.55649107 -78.49829102 389.06762695 C-76.82514219 387.78288473 -75.14372508 386.50884949 -73.45483398 385.24487305 C-72.24597534 384.33137085 -72.24597534 384.33137085 -71.01269531 383.39941406 C-70.2932373 382.86155273 -69.5737793 382.32369141 -68.83251953 381.76953125 C-65.88665138 379.16103684 -65.05419413 376.95522221 -64.02050781 373.16503906 C-63.76781364 369.87218806 -63.76781364 369.87218806 -64.02050781 367.16503906 C-83.10594108 360.50106236 -109.46494986 375.89547446 -126.24658203 383.85595703 C-128.67433176 385.00167029 -131.11036039 386.12385685 -133.55566406 387.23144531 C-144.30033759 392.12366862 -154.61907308 397.72158439 -164.93554688 403.45410156 C-168.21641708 405.27369149 -171.50472907 407.07933379 -174.79394531 408.88378906 C-186.47189579 415.30788936 -198.04283973 421.83429173 -209.34863281 428.89550781 C-223.30907592 437.55520856 -237.45118428 442.8229478 -254.05175781 439.57128906 C-263.22089841 436.78963967 -271.39225337 429.89843496 -276.05566406 421.50097656 C-282.0695295 406.94109182 -280.80128809 391.58536694 -274.91601562 377.22070312 C-264.64207972 353.63658635 -248.63905971 333.31653732 -231.20800781 314.60253906 C-230.61012451 313.95986084 -230.01224121 313.31718262 -229.39624023 312.6550293 C-225.17334402 308.19684828 -220.68643436 304.15215455 -216.02050781 300.16503906 C-214.99856322 299.26525796 -213.97763744 298.36431763 -212.95800781 297.46191406 C-193.70743954 280.77126179 -172.04276184 268.82020013 -149.02050781 258.16503906 C-127.26518657 248.08065813 -106.72876717 236.85225214 -87.02050781 223.16503906 C-86.39063965 222.72949707 -85.76077148 222.29395508 -85.11181641 221.84521484 C-56.97288707 202.31242722 -29.22230999 179.18614587 -8.02050781 152.16503906 C-6.54170726 150.41472967 -5.06253179 148.66473699 -3.58300781 146.91503906 C5.41859849 135.86761314 15.63507822 122.54762364 17.97949219 108.16503906 C1.45633269 107.58235837 -14.70481424 117.98063846 -29.02050781 125.16503906 C-30.07157715 125.69194336 -31.12264648 126.21884766 -32.20556641 126.76171875 C-46.7352931 134.08873289 -60.83291468 142.0183352 -74.83837891 150.29541016 C-80.58249938 153.6703123 -86.36159068 156.98397583 -92.14550781 160.29003906 C-92.7384967 160.62909271 -93.3314856 160.96814636 -93.94244385 161.31747437 C-101.65416086 165.72227224 -109.40208369 170.05422761 -117.20800781 174.29003906 C-137.7442641 185.43512694 -157.92511962 197.01553576 -177.84228516 209.22412109 C-182.25917532 211.9214845 -186.70082542 214.576325 -191.14550781 217.22753906 C-202.04870783 223.7472557 -212.85450599 230.4243598 -223.66503906 237.09619141 C-226.97927702 239.13961781 -230.29623317 241.17854924 -233.61425781 243.21582031 C-244.27510936 249.76294777 -254.91768141 256.33678578 -265.52050781 262.97753906 C-280.18591784 272.15364809 -280.18591784 272.15364809 -287.39550781 276.60253906 C-288.14509766 277.06958252 -288.8946875 277.53662598 -289.66699219 278.01782227 C-294.78977664 281.16503906 -294.78977664 281.16503906 -297.02050781 281.16503906 C-297.34468872 257.31197418 -297.55740746 233.81805543 -294.02050781 210.16503906 C-293.88128906 209.1830957 -293.74207031 208.20115234 -293.59863281 207.18945312 C-290.35910205 184.74520411 -284.86093615 162.65931823 -275.02050781 142.16503906 C-274.72144531 141.53791016 -274.42238281 140.91078125 -274.11425781 140.26464844 C-252.91394091 96.58631697 -199.16387192 72.81146451 -158.02050781 52.16503906 C-156.97314453 51.63668457 -155.92578125 51.10833008 -154.84667969 50.56396484 C-107.34846384 26.73064022 -53.28333086 4.35228754 0 0 Z M-143.234375 51.85791016 C-145.95274234 53.13324653 -148.67742231 54.39417702 -151.40332031 55.65332031 C-176.16856632 67.17187927 -200.62433121 80.48771544 -223.02050781 96.16503906 C-224.13246649 96.92678773 -225.2444468 97.68850481 -226.35644531 98.45019531 C-261.930957 123.07109885 -277.82485133 154.44911825 -285.77050781 196.47753906 C-290.19839086 221.13880672 -292.39381849 246.11174442 -292.02050781 271.16503906 C-288.29899744 269.78755607 -285.05883397 268.08657855 -281.68847656 265.99707031 C-280.13894287 265.04006226 -280.13894287 265.04006226 -278.55810547 264.0637207 C-277.45257324 263.37528076 -276.34704102 262.68684082 -275.20800781 261.97753906 C-274.03941665 261.25384125 -272.87063093 260.53045753 -271.70166016 259.80737305 C-263.18087901 254.53115748 -254.69132583 249.20499637 -246.20043945 243.88085938 C-237.38247889 238.36432828 -228.49577137 232.96438295 -219.59667969 227.58032227 C-211.58709927 222.73298782 -203.60977037 217.83662099 -195.64550781 212.91503906 C-185.0966934 206.40634773 -174.47369842 200.03820019 -163.77441406 193.78027344 C-160.94479882 192.12063386 -158.12290733 190.44839791 -155.30175781 188.77441406 C-144.08583767 182.14419391 -132.74236018 175.81678847 -121.23114014 169.71682739 C-110.01995907 163.7701119 -99.06779794 157.43740436 -88.13671875 150.99365234 C1.86239331 98.18157546 1.86239331 98.18157546 19.97949219 102.16503906 C22.97949219 104.16503906 22.97949219 104.16503906 23.78027344 106.89160156 C24.78076726 123.33108825 8.7899395 141.1386025 -1.02050781 153.16503906 C-1.43880859 153.68098633 -1.85710937 154.19693359 -2.28808594 154.72851562 C-13.52495978 168.51298606 -25.71537346 181.36970719 -39.02050781 193.16503906 C-39.83648437 193.91914063 -40.65246094 194.67324219 -41.49316406 195.45019531 C-48.35244324 201.77411611 -55.62004265 207.49659766 -63.02050781 213.16503906 C-63.6632666 213.65939453 -64.30602539 214.15375 -64.96826172 214.66308594 C-91.31187944 234.87438287 -119.85952767 252.43630802 -150.39550781 265.54003906 C-185.96805411 280.88850362 -218.27495628 305.40175018 -242.02050781 336.16503906 C-242.81714844 337.15632813 -243.61378906 338.14761719 -244.43457031 339.16894531 C-254.76067319 352.1102176 -263.11033641 366.13209406 -270.02050781 381.16503906 C-270.39175781 381.97070312 -270.76300781 382.77636719 -271.14550781 383.60644531 C-274.71742253 392.65644077 -275.72413019 406.06812327 -272.02050781 415.16503906 C-267.983956 423.80723031 -262.92185851 428.58069051 -254.58300781 432.97753906 C-246.72138415 435.59808028 -240.17777793 435.33112762 -232.27050781 433.04003906 C-231.36075195 432.77707031 -230.45099609 432.51410156 -229.51367188 432.24316406 C-219.59058295 429.10056791 -211.45234888 423.62594606 -202.82177734 417.95019531 C-197.90155181 414.81469861 -192.80912052 411.99333975 -187.70800781 409.16503906 C-186.6597583 408.58318848 -185.61150879 408.00133789 -184.53149414 407.40185547 C-181.36439361 405.65031794 -178.19297098 403.90684146 -175.02050781 402.16503906 C-174.01052734 401.6078418 -173.00054687 401.05064453 -171.95996094 400.4765625 C-144.99701233 385.61640021 -117.61020857 371.09262994 -88.02050781 362.16503906 C-87.32054687 361.92140625 -86.62058594 361.67777344 -85.89941406 361.42675781 C-81.28758326 359.9688242 -76.57005106 359.9647282 -71.77050781 359.91503906 C-71.0719165 359.90561279 -70.3733252 359.89618652 -69.65356445 359.88647461 C-65.96161781 359.91008098 -63.1165433 360.05548547 -60.02050781 362.16503906 C-57.75059101 365.11593091 -57.60162029 368.28429153 -57.70410156 371.94628906 C-59.33416222 383.37683786 -68.05933532 389.13987895 -76.64550781 395.60253906 C-77.57411621 396.30556152 -78.50272461 397.00858398 -79.45947266 397.73291016 C-89.35534762 405.20736456 -99.34880919 412.54768651 -109.35449219 419.87402344 C-119.4413788 427.26433217 -129.45228631 434.74275226 -139.38623047 442.33764648 C-144.6607831 446.37017758 -149.95203793 450.37812999 -155.27050781 454.35253906 C-171.77838675 466.70055781 -188.0880757 479.28674687 -204.05541992 492.3269043 C-208.37667763 495.85003777 -212.74334107 499.30631686 -217.14550781 502.72753906 C-223.69459452 507.83290035 -229.99246327 513.20137532 -236.26171875 518.64453125 C-238.03042019 520.17360851 -239.80873958 521.69064687 -241.59082031 523.20410156 C-248.22180687 528.83980446 -254.73175347 534.57246478 -261.10644531 540.49707031 C-263.29498986 542.50079139 -265.50382911 544.45224699 -267.74975586 546.3894043 C-271.73322114 549.87086581 -275.52320067 553.50660838 -279.26660156 557.24316406 C-279.92201431 557.89524841 -280.57742706 558.54733276 -281.25270081 559.21917725 C-282.62785828 560.58931145 -284.00170037 561.96076704 -285.37426758 563.33349609 C-287.44429997 565.40134567 -289.52220454 567.46105431 -291.60058594 569.52050781 C-298.86918706 576.7582934 -305.74517954 584.03533678 -312.02050781 592.16503906 C-312.87590895 593.23410358 -313.73136456 594.30312452 -314.58691406 595.37207031 C-323.70137309 607.26902564 -334.10718483 621.71397841 -333.39550781 637.34863281 C-331.28330629 653.21214634 -320.80482668 665.31820908 -308.65332031 675.06347656 C-306.16309955 676.86786603 -303.62640801 678.53215739 -301.02050781 680.16503906 C-300.00601563 680.81214844 -298.99152344 681.45925781 -297.94628906 682.12597656 C-274.7366379 696.19733301 -245.29035843 703.88757533 -218.39550781 697.60253906 C-215.57937766 696.86313051 -212.80082217 696.02839984 -210.02050781 695.16503906 C-209.2931543 694.95024902 -208.56580078 694.73545898 -207.81640625 694.51416016 C-169.79195452 683.11662896 -136.16165285 660.41099813 -106.02050781 635.16503906 C-105.42818359 634.67181152 -104.83585938 634.17858398 -104.22558594 633.67041016 C-88.26504477 620.34771763 -72.32903261 606.13433216 -58.84472656 590.26660156 C-57.00446317 588.14655508 -55.09848129 586.09698891 -53.17919922 584.04858398 C-47.20011801 577.64568229 -41.7849159 570.91534283 -36.43847656 563.98144531 C-35.0081481 562.14920637 -33.55152422 560.34178083 -32.08300781 558.54003906 C-24.61668759 549.37632904 -17.69869085 539.9167955 -11.02050781 530.16503906 C-10.35124268 529.19002441 -10.35124268 529.19002441 -9.66845703 528.1953125 C-3.4238718 519.06269401 2.43400123 509.73758454 7.97949219 500.16503906 C8.36572754 499.5022998 8.75196289 498.83956055 9.14990234 498.15673828 C21.72872148 476.45402741 31.8872229 454.25960886 38.97949219 430.16503906 C39.19992187 429.42688965 39.42035156 428.68874023 39.64746094 427.92822266 C42.57617825 417.78416368 42.28037812 407.61803933 41.97949219 397.16503906 C42.58113693 396.99297943 43.18278168 396.8209198 43.80265808 396.64364624 C50.09691972 394.80483733 56.21879842 392.66825113 62.34277344 390.32910156 C63.77353462 389.78725723 63.77353462 389.78725723 65.23320007 389.23446655 C68.25402856 388.08953822 71.27301842 386.93984778 74.29199219 385.79003906 C76.30424482 385.02670932 78.31661376 384.26368608 80.32910156 383.50097656 C85.05507138 381.70885469 89.77861781 379.910462 94.5010376 378.10900879 C96.75220561 377.25160577 99.00490609 376.39840434 101.25830078 375.546875 C102.43859863 375.09860352 103.61889648 374.65033203 104.83496094 374.18847656 C106.32032349 373.62652588 106.32032349 373.62652588 107.83569336 373.05322266 C109.92377161 372.34829711 109.92377161 372.34829711 110.97949219 371.16503906 C111.07236479 369.75278861 111.09695991 368.33594972 111.09301758 366.9206543 C111.09290428 365.56936684 111.09290428 365.56936684 111.0927887 364.19078064 C111.08762741 363.21162186 111.08246613 362.23246307 111.07714844 361.22363281 C111.07573349 360.22622574 111.07431854 359.22881866 111.07286072 358.20118713 C111.06724333 355.00160783 111.0546879 351.80209738 111.04199219 348.60253906 C111.03697943 346.43912861 111.03241613 344.27571707 111.02832031 342.11230469 C111.01726826 336.79652581 111.00051322 331.48078735 110.97949219 326.16503906 C87.94620935 334.07024813 64.95904057 342.10516553 41.97949219 350.16503906 C41.98819336 349.12025391 41.99689453 348.07546875 42.00585938 346.99902344 C42.04992583 339.52025323 42.06964756 332.10726042 41.22949219 324.66503906 C41.14296387 323.8802417 41.05643555 323.09544434 40.96728516 322.28686523 C39.37059117 309.06149426 36.98808916 295.09938536 26.90136719 285.63769531 C19.64802666 280.07974942 10.31687851 279.9981717 1.54199219 280.10253906 C0.81044922 280.10705078 0.07890625 280.1115625 -0.67480469 280.11621094 C-2.456742 280.12785759 -4.23863644 280.14578715 -6.02050781 280.16503906 C-6.02050781 278.18503906 -6.02050781 276.20503906 -6.02050781 274.16503906 C-5.0034375 273.91089233 -5.0034375 273.91089233 -3.96582031 273.65161133 C2.60332539 271.94506647 8.7653403 269.82156762 14.97949219 267.10253906 C15.87740479 266.71187256 16.77531738 266.32120605 17.70043945 265.91870117 C32.4081642 259.41705848 46.3232318 252.1381269 58.97949219 242.16503906 C59.53330566 241.73078613 60.08711914 241.2965332 60.65771484 240.84912109 C92.24672291 215.79576987 104.85414688 183.23524544 112.296875 144.56323242 C112.66408864 142.73517568 113.04348983 140.90842109 113.49467468 139.09925842 C114.88555192 133.43189825 115.28645004 128.11896242 115.28027344 122.29394531 C115.28455856 121.37274399 115.28884369 120.45154266 115.29325867 119.50242615 C115.29896999 117.56030086 115.299526 115.61815419 115.29516602 113.67602539 C115.29203399 110.76637287 115.31540853 107.85776739 115.34082031 104.94824219 C115.39238603 89.99497921 114.29443443 75.1582462 109.35449219 60.91503906 C109.1036084 60.1810791 108.85272461 59.44711914 108.59423828 58.69091797 C102.07041565 40.72411571 89.62231964 28.56482015 72.44042969 20.50488281 C-1.14886662 -10.30177121 -75.40811095 19.99236346 -143.234375 51.85791016 Z " fill="#000000" transform="translate(339.0205078125,40.8349609375)"/>
<path d="M0 0 C6.517904 4.68956663 12.55343845 10.81246164 14 19 C14.7992898 30.25557271 13.99078008 38.31915226 6.75 47.25 C1.33164802 53.0878373 -4.3711544 56.67129269 -12.35546875 57.23828125 C-23.57071698 57.45549809 -30.8402179 55.69919895 -39.20703125 47.93359375 C-46.38318634 40.19460297 -47.48473506 33.10670258 -47.2734375 22.765625 C-46.64352117 14.09077723 -42.28194806 7.82507911 -36 2 C-25.82502277 -5.66451556 -10.93235165 -7.28107507 0 0 Z " fill="#000000" transform="translate(130,185)"/>
<path d="M0 0 C0.495 0.99 0.495 0.99 1 2 C0.12646484 3.95751953 0.12646484 3.95751953 -1.2890625 6.3828125 C-2.07373901 7.7455127 -2.07373901 7.7455127 -2.87426758 9.13574219 C-3.45200928 10.12219727 -4.02975098 11.10865234 -4.625 12.125 C-10.05984601 21.53814434 -15.30601788 31.02652046 -20.33251953 40.66455078 C-24.0021632 47.56529719 -28.27799263 53.77892229 -33 60 C-33.49129395 60.66797607 -33.98258789 61.33595215 -34.48876953 62.02416992 C-51.27732245 84.44423947 -91.11058831 92.84519886 -117 98 C-113.15966165 89.40400949 -105.46541361 82.33117722 -99.09472656 75.49121094 C-96.02811868 72.17996113 -93.13885228 68.77199493 -90.3125 65.25 C-87.04944154 61.19589707 -83.62222183 57.50479934 -79.88671875 53.88671875 C-78.04077244 52.04077244 -76.36634263 50.12286261 -74.6875 48.125 C-54.93477378 25.41157432 -26.82848376 12.36450381 0 0 Z M-15 14 C-34.8311146 23.81170883 -52.20877958 34.44892994 -68 50 C-68.91652344 50.88945313 -69.83304688 51.77890625 -70.77734375 52.6953125 C-75.76787278 57.60329143 -80.46465949 62.6731981 -85 68 C-85.99656244 69.14525697 -86.99404124 70.28971689 -87.9921875 71.43359375 C-89.07833923 72.68470988 -90.16427527 73.9360133 -91.25 75.1875 C-92.02996338 76.07937012 -92.02996338 76.07937012 -92.82568359 76.98925781 C-95.57536502 80.17592143 -97.96092657 83.29195893 -100 87 C-79.70459015 82.66866253 -57.37115172 75.48007046 -42 61 C-41.3296875 60.3709375 -40.659375 59.741875 -39.96875 59.09375 C-33.18359325 52.09319145 -28.67029332 43.47508274 -24 35 C-23.5261084 34.1426123 -23.0522168 33.28522461 -22.56396484 32.40185547 C-21.13287623 29.79599977 -19.71870307 27.18185875 -18.3125 24.5625 C-17.86600098 23.73959473 -17.41950195 22.91668945 -16.95947266 22.06884766 C-16.55647949 21.30491699 -16.15348633 20.54098633 -15.73828125 19.75390625 C-15.37774658 19.07658447 -15.01721191 18.3992627 -14.64575195 17.70141602 C-14.43265381 17.13994873 -14.21955566 16.57848145 -14 16 C-14.495 15.01 -14.495 15.01 -15 14 Z " fill="#000000" transform="translate(263,526)"/>
<path d="M0 0 C1.98 0.99 1.98 0.99 4 2 C-3.99956915 14.51855654 -12.89994612 26.26578228 -22 38 C-23.0170239 39.32023792 -24.03396094 40.64054277 -25.05078125 41.9609375 C-30.076783 48.45385842 -35.28605419 54.75757221 -40.66333008 60.96264648 C-43.66019513 64.42146542 -46.5760849 67.92715445 -49.4375 71.5 C-54.0316764 77.16531407 -58.99454031 82.45172725 -63.984375 87.765625 C-66.3383037 90.27628878 -68.62994214 92.82837871 -70.875 95.4375 C-73.50448469 98.4879613 -76.29267132 101.31618497 -79.16723633 104.13476562 C-80.89739543 105.89557761 -82.49941821 107.70949079 -84.09765625 109.58984375 C-88.48825187 114.63769331 -93.19800361 119.34433667 -97.9375 124.0625 C-99.22043945 125.35124023 -99.22043945 125.35124023 -100.52929688 126.66601562 C-104.94214923 131.07213594 -109.41775916 135.33025529 -114.14819336 139.39331055 C-117.11631033 141.96854823 -119.95426155 144.67928803 -122.8125 147.375 C-128.67455065 152.85391009 -134.71971207 158.00296441 -141 163 C-142.14032315 163.93106797 -143.27958739 164.86343387 -144.41796875 165.796875 C-158.53018296 177.31493219 -173.37058846 187.64791158 -189 197 C-189.64259766 197.38784668 -190.28519531 197.77569336 -190.94726562 198.17529297 C-210.68148745 210.00095102 -233.49836336 220.32003922 -256.875 220.0625 C-257.65875 220.05798828 -258.4425 220.05347656 -259.25 220.04882812 C-261.16670014 220.03714093 -263.08336048 220.01920908 -265 220 C-264.62746094 220.45890625 -264.25492187 220.9178125 -263.87109375 221.390625 C-263.16146484 222.31101562 -263.16146484 222.31101562 -262.4375 223.25 C-261.96183594 223.85328125 -261.48617187 224.4565625 -260.99609375 225.078125 C-260 227 -260 227 -260.34765625 229.234375 C-260.56292969 229.81703125 -260.77820313 230.3996875 -261 231 C-264.93677426 229.68774191 -265.8271782 227.8038606 -268.1875 224.4375 C-268.90292969 223.42558594 -269.61835938 222.41367187 -270.35546875 221.37109375 C-270.89816406 220.58863281 -271.44085938 219.80617188 -272 219 C-270.5328827 215.44263493 -268.6293581 213.55804833 -265.625 211.1875 C-264.85414063 210.56230469 -264.08328125 209.93710937 -263.2890625 209.29296875 C-261 208 -261 208 -258.7109375 208.30078125 C-258.14632812 208.53152344 -257.58171875 208.76226563 -257 209 C-258.13719419 212.41158256 -259.04342944 213.11854601 -262 215 C-262.66 215 -263.32 215 -264 215 C-264 215.66 -264 216.32 -264 217 C-217.75008835 212.10435531 -179.93595503 188.65446862 -144.73535156 159.43115234 C-143.19839635 158.16361837 -141.64341834 156.91800793 -140.0859375 155.67578125 C-133.9416916 150.77307176 -128.17861944 145.53858639 -122.47631836 140.13500977 C-119.51385023 137.32920097 -116.53022286 134.58509352 -113.421875 131.94140625 C-107.61622427 126.89631192 -102.24469314 121.39350992 -96.81811523 115.94848633 C-94.94170525 114.06671726 -93.06001031 112.19035262 -91.17773438 110.31445312 C-85.77602405 104.91573958 -80.41719127 99.53252997 -75.46606445 93.71118164 C-72.95259851 90.77747926 -70.27540484 87.99696159 -67.625 85.1875 C-62.89803624 80.14089056 -58.42490857 74.96665852 -54.1015625 69.56640625 C-52.01998573 67.02440637 -49.8496162 64.60470665 -47.625 62.1875 C-43.10466427 57.22061464 -38.99059507 51.9950021 -34.87890625 46.69140625 C-32.97612989 44.23886691 -31.04798518 41.81090354 -29.08984375 39.40234375 C-18.78009025 26.71630117 -9.29046262 13.44583318 0 0 Z " fill="#000000" transform="translate(384,551)"/>
<path d="M0 0 C1.16720581 0.00182281 2.33441162 0.00364563 3.5369873 0.00552368 C20.48812932 0.05008916 37.13580866 0.3902775 53.875 3.3125 C55.44773682 3.57788574 55.44773682 3.57788574 57.05224609 3.84863281 C94.65905698 10.34746687 136.20899944 23.3268683 159.515625 55.8671875 C169.37420215 70.40565765 175.66294836 86.79534514 176.19140625 104.4609375 C176.21218735 105.11832916 176.23296844 105.77572083 176.25437927 106.45303345 C176.31920753 108.53109362 176.37844564 110.60926856 176.4375 112.6875 C176.48074888 114.10548011 176.52436509 115.52344907 176.56835938 116.94140625 C176.67481918 120.3983188 176.77626984 123.85535706 176.875 127.3125 C177.65230469 126.64734375 178.42960938 125.9821875 179.23046875 125.296875 C181.875 123.3125 181.875 123.3125 184.1875 123.5625 C184.744375 123.81 185.30125 124.0575 185.875 124.3125 C184.37753294 128.20247191 182.17077922 129.78198052 178.75 132.0625 C177.83992187 132.67609375 176.92984375 133.2896875 175.9921875 133.921875 C175.29351562 134.38078125 174.59484375 134.8396875 173.875 135.3125 C170.31763493 133.8453827 168.43304833 131.9418581 166.0625 128.9375 C165.43730469 128.16664063 164.81210937 127.39578125 164.16796875 126.6015625 C162.875 124.3125 162.875 124.3125 163.17578125 122.0234375 C163.40652344 121.45882812 163.63726562 120.89421875 163.875 120.3125 C167.24220387 121.70582574 168.8609524 123.2914286 170.875 126.3125 C174.27928299 103.33358984 169.44962785 79.00516058 156.15234375 59.828125 C154.45942571 57.5914679 152.69079071 55.45012669 150.875 53.3125 C150.03775391 52.24128906 150.03775391 52.24128906 149.18359375 51.1484375 C123.79399566 20.11061348 76.49107252 10.37080602 38.875 6.3125 C37.66486488 6.18028297 37.66486488 6.18028297 36.43028259 6.0453949 C29.32468671 5.33092625 22.29430826 5.16669111 15.15625 5.1796875 C13.97712036 5.17873077 12.79799072 5.17777405 11.58312988 5.17678833 C9.10571234 5.17611193 6.62829298 5.17792826 4.15087891 5.18212891 C0.38570121 5.18748478 -3.37935721 5.1821654 -7.14453125 5.17578125 C-9.56510443 5.17644213 -11.98567753 5.17772349 -14.40625 5.1796875 C-15.51802612 5.17766327 -16.62980225 5.17563904 -17.77526855 5.17355347 C-23.78439374 5.19134237 -29.68321129 5.45027224 -35.65930176 6.09231567 C-39.49037835 6.43442689 -43.2811298 6.37551427 -47.125 6.3125 C-47.455 5.3225 -47.785 4.3325 -48.125 3.3125 C-40.71118995 -4.10131005 -9.98950981 -0.03242655 0 0 Z " fill="#000000" transform="translate(322.125,18.6875)"/>
<path d="M0 0 C4.51478398 0.53115106 7.34666857 2.36620292 11 5 C9.35 8.3 7.7 11.6 6 15 C5.34 15 4.68 15 4 15 C4.33 13.02 4.66 11.04 5 9 C1.68652652 9.93408136 -1.62558678 10.87290289 -4.9375 11.8125 C-5.86369141 12.07353516 -6.78988281 12.33457031 -7.74414062 12.60351562 C-12.91973195 14.07447316 -17.99672532 15.6451982 -23.02954102 17.5534668 C-25.34518248 18.07822312 -26.76883013 17.73769282 -29 17 C-29 16.34 -29 15.68 -29 15 C-18.44 11.7 -7.88 8.4 3 5 C2.01 4.01 1.02 3.02 0 2 C0 1.34 0 0.68 0 0 Z " fill="#000000" transform="translate(435,347)"/>
<path d="M0 0 C1.4540625 0.0309375 1.4540625 0.0309375 2.9375 0.0625 C5.0625 4.6875 5.0625 4.6875 3.9375 8.0625 C4.26300502 9.73071323 4.59596063 11.39749557 4.9375 13.0625 C4.6075 13.7225 4.2775 14.3825 3.9375 15.0625 C1.125 15.9375 1.125 15.9375 -2.0625 16.0625 C-4.4375 14.125 -4.4375 14.125 -6.0625 12.0625 C-2.43923261 10.8547442 -1.42103631 11.51938872 1.9375 13.0625 C1.9375 11.7425 1.9375 10.4225 1.9375 9.0625 C0.6175 9.0625 -0.7025 9.0625 -2.0625 9.0625 C-2.0625 8.0725 -2.0625 7.0825 -2.0625 6.0625 C-0.7425 6.0625 0.5775 6.0625 1.9375 6.0625 C1.6075 5.0725 1.2775 4.0825 0.9375 3.0625 C-1.0425 3.7225 -3.0225 4.3825 -5.0625 5.0625 C-3.9375 0.08035714 -3.9375 0.08035714 0 0 Z " fill="#000000" transform="translate(420.0625,332.9375)"/>
<path d="M0 0 C3.0625 0.1875 3.0625 0.1875 5.0625 2.1875 C4.90004442 5.92397845 4.47466356 7.71288742 2 10.5625 C1.360625 11.09875 0.72125 11.635 0.0625 12.1875 C1.7125 12.5175 3.3625 12.8475 5.0625 13.1875 C5.0625 13.8475 5.0625 14.5075 5.0625 15.1875 C1.7625 15.1875 -1.5375 15.1875 -4.9375 15.1875 C-2.9375 11.1875 -2.9375 11.1875 -0.8125 8.625 C1.36735538 6.30372611 1.36735538 6.30372611 1.0625 3.1875 C0.4025 3.1875 -0.2575 3.1875 -0.9375 3.1875 C-1.2675 3.8475 -1.5975 4.5075 -1.9375 5.1875 C-2.9275 5.1875 -3.9175 5.1875 -4.9375 5.1875 C-3.82120474 0.24390669 -3.82120474 0.24390669 0 0 Z " fill="#000000" transform="translate(318.9375,693.8125)"/>
<path d="M0 0 C0.66 0.33 1.32 0.66 2 1 C2 1.66 2 2.32 2 3 C2.99 3.33 3.98 3.66 5 4 C5 4.66 5 5.32 5 6 C3.71086513 6.67154933 2.41859796 7.33708859 1.125 8 C0.40570313 8.37125 -0.31359375 8.7425 -1.0546875 9.125 C-3 10 -3 10 -5 10 C-5 9.34 -5 8.68 -5 8 C-5.66 8 -6.32 8 -7 8 C-6.875 6.25 -6.875 6.25 -6 4 C-2.9375 1.75 -2.9375 1.75 0 0 Z " fill="#000000" transform="translate(124,410)"/>
<path d="M0 0 C0 4.95 0 9.9 0 15 C-0.99 15 -1.98 15 -3 15 C-3 11.37 -3 7.74 -3 4 C-3.99 4.33 -4.98 4.66 -6 5 C-5.625 3.0625 -5.625 3.0625 -5 1 C-3 0 -3 0 0 0 Z " fill="#000000" transform="translate(306,694)"/>
<path d="M0 0 C0 4.95 0 9.9 0 15 C-0.99 15 -1.98 15 -3 15 C-3 11.37 -3 7.74 -3 4 C-3.99 4.33 -4.98 4.66 -6 5 C-5.625 3.0625 -5.625 3.0625 -5 1 C-3 0 -3 0 0 0 Z " fill="#000000" transform="translate(407,333)"/>
<path d="M0 0 C0 4.95 0 9.9 0 15 C-0.99 15 -1.98 15 -3 15 C-3 11.37 -3 7.74 -3 4 C-3.99 4.33 -4.98 4.66 -6 5 C-5.625 3.0625 -5.625 3.0625 -5 1 C-3 0 -3 0 0 0 Z " fill="#000000" transform="translate(442,4)"/>
<path d="M0 0 C0.66 0 1.32 0 2 0 C2 0.66 2 1.32 2 2 C2.66 2 3.32 2 4 2 C4 2.99 4 3.98 4 5 C3.34 5 2.68 5 2 5 C2 6.98 2 8.96 2 11 C1.01 10.67 0.02 10.34 -1 10 C-1.33 9.34 -1.66 8.68 -2 8 C-2.99 8 -3.98 8 -5 8 C-5 7.01 -5 6.02 -5 5 C-3.68 4.67 -2.36 4.34 -1 4 C-0.67 2.68 -0.34 1.36 0 0 Z " fill="#000000" transform="translate(347,430)"/>
<path d="M0 0 C0 4.95 0 9.9 0 15 C-0.66 15 -1.32 15 -2 15 C-2.33 11.37 -2.66 7.74 -3 4 C-3.99 4.33 -4.98 4.66 -6 5 C-6 4.01 -6 3.02 -6 2 C-3 0 -3 0 0 0 Z " fill="#000000" transform="translate(454,4)"/>
<path d="M0 0 C0.99 0.33 1.98 0.66 3 1 C1.56036361 4.35915158 -0.12416589 6.71624938 -3 9 C-5.1328125 8.60546875 -5.1328125 8.60546875 -7 8 C-6.02133662 6.85373678 -5.04205413 5.70800212 -4.0625 4.5625 C-3.51722656 3.92441406 -2.97195313 3.28632812 -2.41015625 2.62890625 C-1.63204305 1.73008851 -0.84063472 0.84063472 0 0 Z " fill="#000000" transform="translate(282,567)"/>
<path d="M0 0 C3 0 3 0 4.60546875 1.42578125 C5.12753906 2.04839844 5.64960937 2.67101562 6.1875 3.3125 C6.71730469 3.92738281 7.24710937 4.54226563 7.79296875 5.17578125 C9 7 9 7 9 10 C5.54537888 9.74410214 4.72618453 8.71373837 2.25 6.125 C0 3 0 3 0 0 Z " fill="#000000" transform="translate(70,686)"/>
<path d="M0 0 C0.99 0.33 1.98 0.66 3 1 C1.55873214 4.36295835 -0.20592655 6.62927102 -3 9 C-3.99 9 -4.98 9 -6 9 C-5.52797514 4.75177626 -3.03344482 2.80010291 0 0 Z " fill="#000000" transform="translate(120,588)"/>
<path d="M0 0 C0.66 0.33 1.32 0.66 2 1 C0.44396229 4.81936528 -1.95604931 7.26044438 -5 10 C-5.66 10 -6.32 10 -7 10 C-7.33 9.01 -7.66 8.02 -8 7 C-5.36 4.69 -2.72 2.38 0 0 Z " fill="#000000" transform="translate(268,581)"/>
<path d="M0 0 C-1.31224548 3.93673644 -2.91910327 6.22719294 -6 9 C-6.99 8.67 -7.98 8.34 -9 8 C-7.13554727 3.64961029 -5.02378599 0 0 0 Z " fill="#000000" transform="translate(299,553)"/>
<path d="M0 0 C0.33 0.99 0.66 1.98 1 3 C-0.26239712 3.86658615 -1.53527501 4.71792059 -2.8125 5.5625 C-3.87404297 6.27599609 -3.87404297 6.27599609 -4.95703125 7.00390625 C-7 8 -7 8 -10 7 C-10 6.34 -10 5.68 -10 5 C-8.3203125 3.7109375 -8.3203125 3.7109375 -6.125 2.375 C-5.40570313 1.92898438 -4.68640625 1.48296875 -3.9453125 1.0234375 C-2 0 -2 0 0 0 Z " fill="#000000" transform="translate(266,483)"/>
<path d="M0 0 C0 0.66 0 1.32 0 2 C-1.6796875 3.2890625 -1.6796875 3.2890625 -3.875 4.625 C-4.95394531 5.29402344 -4.95394531 5.29402344 -6.0546875 5.9765625 C-8 7 -8 7 -10 7 C-10.33 6.01 -10.66 5.02 -11 4 C-9.73760288 3.13341385 -8.46472499 2.28207941 -7.1875 1.4375 C-6.47980469 0.96183594 -5.77210938 0.48617188 -5.04296875 -0.00390625 C-3 -1 -3 -1 0 0 Z " fill="#000000" transform="translate(284,473)"/>
<path d="M0 0 C0.66 0 1.32 0 2 0 C2.67119549 1.4562545 3.33681807 2.91507867 4 4.375 C4.556875 5.59316406 4.556875 5.59316406 5.125 6.8359375 C6 9 6 9 6 11 C4.109375 10.78515625 4.109375 10.78515625 2 10 C0.953125 7.93359375 0.953125 7.93359375 0.25 5.4375 C0.00765625 4.61121094 -0.2346875 3.78492188 -0.484375 2.93359375 C-0.65453125 2.29550781 -0.8246875 1.65742188 -1 1 C-0.67 0.67 -0.34 0.34 0 0 Z " fill="#000000" transform="translate(421,129)"/>
<path d="M0 0 C3.96 0 7.92 0 12 0 C12 0.99 12 1.98 12 3 C7.6835078 3.76173392 4.25566547 4.16063604 0 3 C0 2.01 0 1.02 0 0 Z " fill="#000000" transform="translate(88,700)"/>
<path d="M0 0 C0.66 0.33 1.32 0.66 2 1 C1 4 1 4 -1.06640625 5.16796875 C-1.89011719 5.50441406 -2.71382813 5.84085938 -3.5625 6.1875 C-4.38878906 6.53167969 -5.21507813 6.87585938 -6.06640625 7.23046875 C-6.70449219 7.48441406 -7.34257813 7.73835937 -8 8 C-8 6.68 -8 5.36 -8 4 C-6.71349294 3.30289269 -5.42059335 2.61757124 -4.125 1.9375 C-3.40570313 1.55464844 -2.68640625 1.17179688 -1.9453125 0.77734375 C-1.30335937 0.52082031 -0.66140625 0.26429688 0 0 Z " fill="#000000" transform="translate(119,692)"/>
<path d="M0 0 C0.33 0.99 0.66 1.98 1 3 C-0.26691507 3.67408308 -1.53870749 4.33900497 -2.8125 5 C-3.52019531 5.37125 -4.22789062 5.7425 -4.95703125 6.125 C-7 7 -7 7 -10 7 C-10 6.01 -10 5.02 -10 4 C-8.71086513 3.32845067 -7.41859796 2.66291141 -6.125 2 C-5.40570313 1.62875 -4.68640625 1.2575 -3.9453125 0.875 C-2 0 -2 0 0 0 Z " fill="#000000" transform="translate(139,683)"/>
<path d="M0 0 C-0.125 1.75 -0.125 1.75 -1 4 C-3.875 6.3125 -3.875 6.3125 -7 8 C-7.99 7.67 -8.98 7.34 -10 7 C-10 6.34 -10 5.68 -10 5 C-8.57421875 3.7109375 -8.57421875 3.7109375 -6.6875 2.375 C-6.07261719 1.92898438 -5.45773438 1.48296875 -4.82421875 1.0234375 C-3 0 -3 0 0 0 Z " fill="#000000" transform="translate(174,661)"/>
<path d="M0 0 C0.99 0.33 1.98 0.66 3 1 C0.14723863 3.93200474 -2.65079784 6.64315404 -6 9 C-6.33 7.68 -6.66 6.36 -7 5 C-5.90554162 4.13342884 -4.79902219 3.28207276 -3.6875 2.4375 C-3.07261719 1.96183594 -2.45773438 1.48617187 -1.82421875 0.99609375 C-1.22222656 0.66738281 -0.62023437 0.33867188 0 0 Z " fill="#000000" transform="translate(221,623)"/>
<path d="M0 0 C0.99 0.33 1.98 0.66 3 1 C0.35039045 4.63094642 -2.01824456 6.89851796 -6 9 C-6 5 -6 5 -3.1875 2.1875 C-2.135625 1.465625 -1.08375 0.74375 0 0 Z " fill="#000000" transform="translate(252,596)"/>
<path d="M0 0 C-0.33 0.99 -0.66 1.98 -1 3 C-4.6037898 4.52160014 -7.05220686 5 -11 5 C-11 4.01 -11 3.02 -11 2 C-9.54494642 1.47007308 -8.08581873 0.9513211 -6.625 0.4375 C-5.81289062 0.14746094 -5.00078125 -0.14257812 -4.1640625 -0.44140625 C-2 -1 -2 -1 0 0 Z " fill="#000000" transform="translate(239,366)"/>
<path d="M0 0 C0 0.66 0 1.32 0 2 C-1.26418246 2.69965443 -2.53665402 3.38434763 -3.8125 4.0625 C-4.52019531 4.44535156 -5.22789062 4.82820312 -5.95703125 5.22265625 C-8 6 -8 6 -11 5 C-11 4.34 -11 3.68 -11 3 C-9.73581754 2.30034557 -8.46334598 1.61565237 -7.1875 0.9375 C-6.47980469 0.55464844 -5.77210938 0.17179688 -5.04296875 -0.22265625 C-3 -1 -3 -1 0 0 Z " fill="#000000" transform="translate(213,138)"/>
<path d="M0 0 C4.87685861 1.35468295 6.48592381 3.71675909 9 8 C5 8 5 8 3.296875 6.46875 C2.78640625 5.8190625 2.2759375 5.169375 1.75 4.5 C1.22921875 3.8503125 0.7084375 3.200625 0.171875 2.53125 C-0.21484375 2.0259375 -0.6015625 1.520625 -1 1 C-0.67 0.67 -0.34 0.34 0 0 Z " fill="#000000" transform="translate(407,113)"/>
<path d="M0 0 C4.51478398 0.53115106 7.34666857 2.36620292 11 5 C10.67 5.66 10.34 6.32 10 7 C6.33118845 6.29445932 3.29549466 4.72264494 0 3 C0 2.01 0 1.02 0 0 Z " fill="#000000" transform="translate(389,101)"/>
<path d="M0 0 C0.66 0.33 1.32 0.66 2 1 C0.54875366 4.82601307 -1.35774704 6.22329124 -5 8 C-5.99 8 -6.98 8 -8 8 C-8 7.01 -8 6.02 -8 5 C-6.3203125 3.578125 -6.3203125 3.578125 -4.125 2.25 C-3.40570313 1.80140625 -2.68640625 1.3528125 -1.9453125 0.890625 C-1.30335938 0.59671875 -0.66140625 0.3028125 0 0 Z " fill="#000000" transform="translate(155,672)"/>
<path d="M0 0 C0.66 0 1.32 0 2 0 C2.66 3.63 3.32 7.26 4 11 C3.01 11.33 2.02 11.66 1 12 C-1.32488647 8.36736489 -1.23961213 5.23314767 -1 1 C-0.67 0.67 -0.34 0.34 0 0 Z " fill="#000000" transform="translate(63,666)"/>
<path d="M0 0 C-0.33214151 3.09998746 -1.0545012 4.0545012 -3.3125 6.3125 C-6 8 -6 8 -8.3125 7.75 C-8.869375 7.5025 -9.42625 7.255 -10 7 C-3.18421053 0 -3.18421053 0 0 0 Z " fill="#000000" transform="translate(207,636)"/>
<path d="M0 0 C0.66 0.33 1.32 0.66 2 1 C0.50958227 4.79379058 -1.69062512 6.68343758 -5 9 C-5.66 9 -6.32 9 -7 9 C-6.82374165 6.62051228 -6.30280227 5.29774151 -4.59765625 3.62109375 C-3.09350908 2.37884514 -1.54870149 1.18623944 0 0 Z " fill="#000000" transform="translate(237,609)"/>
<path d="M0 0 C-0.125 1.75 -0.125 1.75 -1 4 C-3.875 6.3125 -3.875 6.3125 -7 8 C-7.99 7.67 -8.98 7.34 -10 7 C-10 6.34 -10 5.68 -10 5 C-8.3203125 3.7109375 -8.3203125 3.7109375 -6.125 2.375 C-5.40570313 1.92898438 -4.68640625 1.48296875 -3.9453125 1.0234375 C-2 0 -2 0 0 0 Z " fill="#000000" transform="translate(249,494)"/>
<path d="M0 0 C0.99 0.33 1.98 0.66 3 1 C3 1.66 3 2.32 3 3 C1.3203125 4.2890625 1.3203125 4.2890625 -0.875 5.625 C-1.95394531 6.29402344 -1.95394531 6.29402344 -3.0546875 6.9765625 C-5 8 -5 8 -7 8 C-6.875 6.25 -6.875 6.25 -6 4 C-3.125 1.6875 -3.125 1.6875 0 0 Z " fill="#000000" transform="translate(298,461)"/>
<path d="M0 0 C0 0.99 0 1.98 0 3 C-6.4 6.07692308 -6.4 6.07692308 -9.4375 5.6875 C-9.953125 5.460625 -10.46875 5.23375 -11 5 C-7.92351092 1.43774949 -4.70156256 0 0 0 Z " fill="#000000" transform="translate(220,372)"/>
<path d="M0 0 C0 0.99 0 1.98 0 3 C-3.87684087 4.19287411 -6.91621923 5 -11 5 C-11 4.01 -11 3.02 -11 2 C-7.12315913 0.80712589 -4.08378077 0 0 0 Z " fill="#000000" transform="translate(258,360)"/>
<path d="M0 0 C-1.48781815 3.78717347 -3.61988409 5.77407001 -7 8 C-7.99 7.67 -8.98 7.34 -10 7 C-10 6.34 -10 5.68 -10 5 C-8.57421875 3.7109375 -8.57421875 3.7109375 -6.6875 2.375 C-6.07261719 1.92898438 -5.45773438 1.48296875 -4.82421875 1.0234375 C-3 0 -3 0 0 0 Z " fill="#000000" transform="translate(191,649)"/>
<path d="M0 0 C0.99 0.33 1.98 0.66 3 1 C1.49776416 5.20626034 -1.28550034 6.73900021 -5 9 C-5 5 -5 5 -2.5 2.25 C-1.675 1.5075 -0.85 0.765 0 0 Z " fill="#000000" transform="translate(134,575)"/>
<path d="M0 0 C0.66 0.33 1.32 0.66 2 1 C0.50958227 4.79379058 -1.69062512 6.68343758 -5 9 C-5.66 9 -6.32 9 -7 9 C-6.82374165 6.62051228 -6.30280227 5.29774151 -4.59765625 3.62109375 C-3.09350908 2.37884514 -1.54870149 1.18623944 0 0 Z " fill="#000000" transform="translate(150,562)"/>
<path d="M0 0 C0.8353125 0.37125 0.8353125 0.37125 1.6875 0.75 C-1.12054268 3.71404505 -3.49565774 6.19499019 -7.3125 7.75 C-7.3125 3.75 -7.3125 3.75 -5.0625 1.4375 C-2.3125 -0.25 -2.3125 -0.25 0 0 Z " fill="#000000" transform="translate(181.3125,539.25)"/>
<path d="M0 0 C0.66 0.33 1.32 0.66 2 1 C0.7508258 4.45925163 -0.67527795 7.14693203 -3 10 C-3.99 9.67 -4.98 9.34 -6 9 C-4.47291037 5.56404834 -2.40072955 2.88087546 0 0 Z " fill="#000000" transform="translate(309,537)"/>
<path d="M0 0 C0.66 0.99 1.32 1.98 2 3 C0.90241493 3.84198307 -0.20335317 4.67330671 -1.3125 5.5 C-1.92738281 5.9640625 -2.54226562 6.428125 -3.17578125 6.90625 C-5 8 -5 8 -8 8 C-8 7.01 -8 6.02 -8 5 C-6.25 3.61328125 -6.25 3.61328125 -4 2.3125 C-3.2575 1.87550781 -2.515 1.43851563 -1.75 0.98828125 C-1.1725 0.66214844 -0.595 0.33601562 0 0 Z " fill="#000000" transform="translate(197,527)"/>
<path d="M0 0 C0.66 0.33 1.32 0.66 2 1 C0.54875366 4.82601307 -1.35774704 6.22329124 -5 8 C-5.99 8 -6.98 8 -8 8 C-6.49776416 3.79373966 -3.71449966 2.26099979 0 0 Z " fill="#000000" transform="translate(230,505)"/>
<path d="M0 0 C-1.49835228 4.66154042 -4.88463591 5.86610751 -9 8 C-9 6.68 -9 5.36 -9 4 C-4 0 -4 0 0 0 Z " fill="#000000" transform="translate(318,450)"/>
<path d="M0 0 C-1 3 -1 3 -3.8125 4.75 C-6.96403086 5.98589446 -7.96929372 6.28222189 -11 5 C-7.56138316 1.21752148 -5.17193751 0 0 0 Z " fill="#000000" transform="translate(165,396)"/>
<path d="M0 0 C0.33 1.32 0.66 2.64 1 4 C-3.95 5.485 -3.95 5.485 -9 7 C-9 6.01 -9 5.02 -9 4 C-6.03 2.68 -3.06 1.36 0 0 Z " fill="#000000" transform="translate(200,379)"/>
<path d="M0 0 C4.38462134 0.50109958 6.8000997 1.98295115 10 5 C10 5.66 10 6.32 10 7 C9.01 7.33 8.02 7.66 7 8 C5.17578125 6.85546875 5.17578125 6.85546875 3.3125 5.1875 C2.37857422 4.37345703 2.37857422 4.37345703 1.42578125 3.54296875 C0 2 0 2 0 0 Z " fill="#000000" transform="translate(325,359)"/>
<path d="M0 0 C0.99 0.33 1.98 0.66 3 1 C0.19195732 3.96404505 -2.18315774 6.44499019 -6 8 C-6.33 7.01 -6.66 6.02 -7 5 C-5.90554162 4.13342884 -4.79902219 3.28207276 -3.6875 2.4375 C-3.07261719 1.96183594 -2.45773438 1.48617188 -1.82421875 0.99609375 C-1.22222656 0.66738281 -0.62023437 0.33867187 0 0 Z " fill="#000000" transform="translate(200,354)"/>
<path d="M0 0 C0 0.99 0 1.98 0 3 C-3.63 3.33 -7.26 3.66 -11 4 C-11 3.01 -11 2.02 -11 1 C-7.32589215 -0.17571451 -3.83070817 -0.07366746 0 0 Z " fill="#000000" transform="translate(297,353)"/>
<path d="M0 0 C-0.0625 1.75 -0.0625 1.75 -1 4 C-3.24164322 5.59501537 -5.53566643 6.74543018 -8 8 C-8 6.68 -8 5.36 -8 4 C-3.88888889 0 -3.88888889 0 0 0 Z " fill="#000000" transform="translate(326,263)"/>
<path d="M0 0 C0.99 0.33 1.98 0.66 3 1 C3 1.66 3 2.32 3 3 C1.57421875 4.32421875 1.57421875 4.32421875 -0.3125 5.6875 C-0.92738281 6.14511719 -1.54226563 6.60273438 -2.17578125 7.07421875 C-2.77777344 7.37972656 -3.37976563 7.68523437 -4 8 C-4.99 7.67 -5.98 7.34 -7 7 C-4.78071806 4.09197539 -3.07030857 2.04687238 0 0 Z " fill="#000000" transform="translate(370,228)"/>
<path d="M0 0 C-0.125 1.75 -0.125 1.75 -1 4 C-6.22222222 8 -6.22222222 8 -9 8 C-9.33 7.01 -9.66 6.02 -10 5 C-8.71186658 4.16121545 -7.41936744 3.32913217 -6.125 2.5 C-5.40570313 2.0359375 -4.68640625 1.571875 -3.9453125 1.09375 C-2 0 -2 0 0 0 Z " fill="#000000" transform="translate(145,176)"/>
<path d="M0 0 C0.99 0 1.98 0 3 0 C2.49357808 4.35522853 1.61588503 7.44239635 -1 11 C-1.66 11 -2.32 11 -3 11 C-2.44894091 7.0507432 -1.61064629 3.65079826 0 0 Z " fill="#000000" transform="translate(423,171)"/>
<path d="M0 0 C0.66 0.99 1.32 1.98 2 3 C0.90241493 3.84198307 -0.20335317 4.67330671 -1.3125 5.5 C-1.92738281 5.9640625 -2.54226562 6.428125 -3.17578125 6.90625 C-5 8 -5 8 -8 8 C-8 7.01 -8 6.02 -8 5 C-6.25 3.61328125 -6.25 3.61328125 -4 2.3125 C-3.2575 1.87550781 -2.515 1.43851563 -1.75 0.98828125 C-1.1725 0.66214844 -0.595 0.33601562 0 0 Z " fill="#000000" transform="translate(160,165)"/>
<path d="M0 0 C0 0.99 0 1.98 0 3 C-5.17578125 6.22265625 -5.17578125 6.22265625 -7 7 C-7.99 6.67 -8.98 6.34 -10 6 C-10 5.34 -10 4.68 -10 4 C-3.375 0 -3.375 0 0 0 Z " fill="#000000" transform="translate(178,156)"/>
<path d="M0 0 C0.99 0 1.98 0 3 0 C3 3.63 3 7.26 3 11 C2.01 11 1.02 11 0 11 C0 7.37 0 3.74 0 0 Z " fill="#000000" transform="translate(426,150)"/>
<path d="M0 0 C1.45880109 0.14107747 2.91703551 0.28802415 4.375 0.4375 C5.59316406 0.55931641 5.59316406 0.55931641 6.8359375 0.68359375 C9 1 9 1 11 2 C11 2.99 11 3.98 11 5 C7.37 4.34 3.74 3.68 0 3 C0 2.01 0 1.02 0 0 Z " fill="#000000" transform="translate(369,94)"/>
<path d="M0 0 C0.99 0.33 1.98 0.66 3 1 C1.7508258 4.45925163 0.32472205 7.14693203 -2 10 C-2.99 9.67 -3.98 9.34 -5 9 C-3.35 6.03 -1.7 3.06 0 0 Z " fill="#000000" transform="translate(81,632)"/>
<path d="M0 0 C0.99 0 1.98 0 3 0 C1.76067171 3.43198603 0.49698489 6.30325632 -2 9 C-2.99 9 -3.98 9 -5 9 C-4.42636089 5.12793601 -2.65894107 2.81534937 0 0 Z " fill="#000000" transform="translate(93,617)"/>
<path d="M0 0 C0.66 0.33 1.32 0.66 2 1 C0.61198929 4.35435922 -0.88629 6.11290303 -4 8 C-4.99 8 -5.98 8 -7 8 C-7 7.01 -7 6.02 -7 5 C-5.46875 3.61328125 -5.46875 3.61328125 -3.5 2.3125 C-2.8503125 1.87550781 -2.200625 1.43851563 -1.53125 0.98828125 C-1.0259375 0.66214844 -0.520625 0.33601562 0 0 Z " fill="#000000" transform="translate(165,550)"/>
<path d="M0 0 C-1.45124634 3.82601307 -3.35774704 5.22329124 -7 7 C-7.99 7 -8.98 7 -10 7 C-8.2054392 2.26888516 -5.07937287 0 0 0 Z " fill="#000000" transform="translate(215,517)"/>
<path d="M0 0 C0.99 0.66 1.98 1.32 3 2 C1.68 4.64 0.36 7.28 -1 10 C-1.99 10 -2.98 10 -4 10 C-3.43454163 6.04179141 -2.19097652 3.3340947 0 0 Z " fill="#000000" transform="translate(328,504)"/>
<path d="M0 0 C0.99 0.33 1.98 0.66 3 1 C0.19195732 3.96404505 -2.18315774 6.44499019 -6 8 C-6 6.68 -6 5.36 -6 4 C-3.1875 1.6875 -3.1875 1.6875 0 0 Z " fill="#000000" transform="translate(139,399)"/>
<path d="M0 0 C0.66 0 1.32 0 2 0 C3.17571451 3.67410785 3.07366746 7.16929183 3 11 C2.01 11 1.02 11 0 11 C-0.19406478 9.35492782 -0.38007935 7.70890406 -0.5625 6.0625 C-0.66691406 5.14597656 -0.77132813 4.22945313 -0.87890625 3.28515625 C-0.91886719 2.53105469 -0.95882813 1.77695312 -1 1 C-0.67 0.67 -0.34 0.34 0 0 Z " fill="#000000" transform="translate(345,391)"/>
<path d="M0 0 C0.66 0.33 1.32 0.66 2 1 C1.67 1.99 1.34 2.98 1 4 C-1.06640625 4.94921875 -1.06640625 4.94921875 -3.5625 5.6875 C-4.38878906 5.93886719 -5.21507812 6.19023437 -6.06640625 6.44921875 C-6.70449219 6.63097656 -7.34257812 6.81273437 -8 7 C-7.71484375 5.11328125 -7.71484375 5.11328125 -7 3 C-3.5625 1.1875 -3.5625 1.1875 0 0 Z " fill="#000000" transform="translate(181,387)"/>
<path d="M0 0 C0.99 0 1.98 0 3 0 C6 6.625 6 6.625 6 10 C5.01 10 4.02 10 3 10 C0 3.375 0 3.375 0 0 Z " fill="#000000" transform="translate(338,373)"/>
<path d="M0 0 C-0.33645789 3.14027363 -1.05236086 4.05098295 -3.375 6.3125 C-4.674375 7.1478125 -4.674375 7.1478125 -6 8 C-6.99 7.67 -7.98 7.34 -9 7 C-7.68534669 3.05604006 -4.38536841 0 0 0 Z " fill="#000000" transform="translate(187,365)"/>
<path d="M0 0 C-0.33 1.32 -0.66 2.64 -1 4 C-5.455 4.495 -5.455 4.495 -10 5 C-10 4.01 -10 3.02 -10 2 C-8.7090864 1.66376204 -7.41723903 1.33110751 -6.125 1 C-5.40570313 0.814375 -4.68640625 0.62875 -3.9453125 0.4375 C-2 0 -2 0 0 0 Z " fill="#000000" transform="translate(277,355)"/>
<path d="M0 0 C1.45880109 0.14107747 2.91703551 0.28802415 4.375 0.4375 C5.59316406 0.55931641 5.59316406 0.55931641 6.8359375 0.68359375 C9 1 9 1 11 2 C11 2.99 11 3.98 11 5 C7.37 4.34 3.74 3.68 0 3 C0 2.01 0 1.02 0 0 Z " fill="#000000" transform="translate(306,353)"/>
<path d="M0 0 C0.66 0.33 1.32 0.66 2 1 C0.61198929 4.35435922 -0.88629 6.11290303 -4 8 C-4.99 8 -5.98 8 -7 8 C-7 7.01 -7 6.02 -7 5 C-5.46875 3.61328125 -5.46875 3.61328125 -3.5 2.3125 C-2.8503125 1.87550781 -2.200625 1.43851562 -1.53125 0.98828125 C-1.0259375 0.66214844 -0.520625 0.33601563 0 0 Z " fill="#000000" transform="translate(216,342)"/>
<path d="M0 0 C0.33 0.99 0.66 1.98 1 3 C-0.09445838 3.86657116 -1.20097781 4.71792724 -2.3125 5.5625 C-2.92738281 6.03816406 -3.54226562 6.51382812 -4.17578125 7.00390625 C-4.77777344 7.33261719 -5.37976563 7.66132813 -6 8 C-6.99 7.67 -7.98 7.34 -9 7 C-9 6.34 -9 5.68 -9 5 C-7.5390625 3.7109375 -7.5390625 3.7109375 -5.625 2.375 C-4.99851563 1.92898438 -4.37203125 1.48296875 -3.7265625 1.0234375 C-2 0 -2 0 0 0 Z " fill="#000000" transform="translate(233,331)"/>
<path d="M0 0 C0.99 0.33 1.98 0.66 3 1 C3 1.66 3 2.32 3 3 C1.5390625 4.2890625 1.5390625 4.2890625 -0.375 5.625 C-1.00148437 6.07101562 -1.62796875 6.51703125 -2.2734375 6.9765625 C-4 8 -4 8 -6 8 C-6.33 7.01 -6.66 6.02 -7 5 C-5.90554162 4.13342884 -4.79902219 3.28207276 -3.6875 2.4375 C-3.07261719 1.96183594 -2.45773438 1.48617188 -1.82421875 0.99609375 C-1.22222656 0.66738281 -0.62023437 0.33867187 0 0 Z " fill="#000000" transform="translate(246,320)"/>
<path d="M0 0 C0.99 0.33 1.98 0.66 3 1 C3 1.66 3 2.32 3 3 C1.57421875 4.32421875 1.57421875 4.32421875 -0.3125 5.6875 C-0.92738281 6.14511719 -1.54226563 6.60273438 -2.17578125 7.07421875 C-2.77777344 7.37972656 -3.37976563 7.68523437 -4 8 C-4.99 7.67 -5.98 7.34 -7 7 C-4.66666667 4.66666667 -2.33333333 2.33333333 0 0 Z " fill="#000000" transform="translate(277,297)"/>
<path d="M0 0 C0.66 0.33 1.32 0.66 2 1 C0.65117186 5.04648443 -1.34826069 5.95502599 -5 8 C-5.99 7.67 -6.98 7.34 -8 7 C-5.42215154 4.35247996 -3.08351902 2.05567935 0 0 Z " fill="#000000" transform="translate(309,274)"/>
<path d="M0 0 C0.66 0.33 1.32 0.66 2 1 C0.65117186 5.04648443 -1.34826069 5.95502599 -5 8 C-5.99 7.67 -6.98 7.34 -8 7 C-5.42215154 4.35247996 -3.08351902 2.05567935 0 0 Z " fill="#000000" transform="translate(340,251)"/>
<path d="M0 0 C0.66 0.33 1.32 0.66 2 1 C0.61198929 4.35435922 -0.88629 6.11290303 -4 8 C-4.99 8 -5.98 8 -7 8 C-7 7.01 -7 6.02 -7 5 C-5.46875 3.61328125 -5.46875 3.61328125 -3.5 2.3125 C-2.8503125 1.87550781 -2.200625 1.43851563 -1.53125 0.98828125 C-1.0259375 0.66214844 -0.520625 0.33601562 0 0 Z " fill="#000000" transform="translate(386,216)"/>
<path d="M0 0 C0.66 0.33 1.32 0.66 2 1 C0.61198929 4.35435922 -0.88629 6.11290303 -4 8 C-4.99 8 -5.98 8 -7 8 C-7 7.01 -7 6.02 -7 5 C-5.46875 3.61328125 -5.46875 3.61328125 -3.5 2.3125 C-2.8503125 1.87550781 -2.200625 1.43851563 -1.53125 0.98828125 C-1.0259375 0.66214844 -0.520625 0.33601562 0 0 Z " fill="#000000" transform="translate(401,204)"/>
<path d="M0 0 C0.99 0.33 1.98 0.66 3 1 C1.02 3.97 -0.96 6.94 -3 10 C-3.66 9.67 -4.32 9.34 -5 9 C-3.7508258 5.54074837 -2.32472205 2.85306797 0 0 Z " fill="#000000" transform="translate(414,190)"/>
<path d="M0 0 C-0.125 1.8125 -0.125 1.8125 -1 4 C-3.875 5.8125 -3.875 5.8125 -7 7 C-7.99 6.67 -8.98 6.34 -10 6 C-4.4 0 -4.4 0 0 0 Z " fill="#000000" transform="translate(195,146)"/>
<path d="M0 0 C-1 3 -1 3 -3.875 4.6875 C-7 6 -7 6 -10 6 C-10 5.01 -10 4.02 -10 3 C-6.27034861 0.96564469 -4.33094958 0 0 0 Z " fill="#000000" transform="translate(230,129)"/>
<path d="M0 0 C-0.33 0.99 -0.66 1.98 -1 3 C-3.06640625 3.94921875 -3.06640625 3.94921875 -5.5625 4.6875 C-6.38878906 4.93886719 -7.21507812 5.19023438 -8.06640625 5.44921875 C-8.70449219 5.63097656 -9.34257812 5.81273438 -10 6 C-10 5.01 -10 4.02 -10 3 C-6.27034861 0.96564469 -4.33094958 0 0 0 Z " fill="#000000" transform="translate(248,121)"/>
<path d="M0 0 C0.66 0.33 1.32 0.66 2 1 C1.67 1.99 1.34 2.98 1 4 C-1.06640625 4.94921875 -1.06640625 4.94921875 -3.5625 5.6875 C-4.38878906 5.93886719 -5.21507812 6.19023438 -6.06640625 6.44921875 C-6.70449219 6.63097656 -7.34257812 6.81273438 -8 7 C-8.33 6.01 -8.66 5.02 -9 4 C-7.54618103 3.30300448 -6.08677047 2.61766134 -4.625 1.9375 C-3.40683594 1.36322266 -3.40683594 1.36322266 -2.1640625 0.77734375 C-1.44992187 0.52082031 -0.73578125 0.26429687 0 0 Z " fill="#000000" transform="translate(264,113)"/>
<path d="M0 0 C0 0.99 0 1.98 0 3 C-3.3 3.66 -6.6 4.32 -10 5 C-10.33 4.01 -10.66 3.02 -11 2 C-7.12315913 0.80712589 -4.08378077 0 0 0 Z " fill="#000000" transform="translate(303,102)"/>
<path d="M0 0 C0 0.66 0 1.32 0 2 C-3.87684087 3.19287411 -6.91621923 4 -11 4 C-11 3.01 -11 2.02 -11 1 C-9.5437328 0.63743142 -8.08488815 0.28520207 -6.625 -0.0625 C-5.40683594 -0.35833984 -5.40683594 -0.35833984 -4.1640625 -0.66015625 C-2 -1 -2 -1 0 0 Z " fill="#000000" transform="translate(322,98)"/>
<path d="M0 0 C1.22589844 0.01353516 1.22589844 0.01353516 2.4765625 0.02734375 C3.41628906 0.04474609 3.41628906 0.04474609 4.375 0.0625 C4.375 1.0525 4.375 2.0425 4.375 3.0625 C1.075 3.3925 -2.225 3.7225 -5.625 4.0625 C-5.955 3.0725 -6.285 2.0825 -6.625 1.0625 C-4.21954362 -0.14022819 -2.67503047 -0.03821472 0 0 Z " fill="#000000" transform="translate(336.625,94.9375)"/>
<path d="M0 0 C0.99 0.66 1.98 1.32 3 2 C1.35 4.64 -0.3 7.28 -2 10 C-2.99 9.67 -3.98 9.34 -5 9 C-3.35 6.03 -1.7 3.06 0 0 Z " fill="#000000" transform="translate(319,521)"/>
<path d="M0 0 C0.99 0.33 1.98 0.66 3 1 C2.01 3.97 1.02 6.94 0 10 C-0.99 10 -1.98 10 -3 10 C-2.39009109 6.44219804 -1.4216319 3.3171411 0 0 Z " fill="#000000" transform="translate(335,486)"/>
<path d="M0 0 C0.66 0 1.32 0 2 0 C1.67 3.63 1.34 7.26 1 11 C0.01 10.67 -0.98 10.34 -2 10 C-1.85950482 8.52031676 -1.71245174 7.04125484 -1.5625 5.5625 C-1.48128906 4.73878906 -1.40007812 3.91507812 -1.31640625 3.06640625 C-1 1 -1 1 0 0 Z " fill="#000000" transform="translate(345,449)"/>
<path d="M0 0 C0.66 0.33 1.32 0.66 2 1 C1 4 1 4 -1.875 5.6875 C-5 7 -5 7 -8 7 C-6.89300099 3.78970286 -5.98396175 2.99031023 -3 1.1875 C-1.515 0.5996875 -1.515 0.5996875 0 0 Z " fill="#000000" transform="translate(333,439)"/>
<path d="M0 0 C0.66 0.33 1.32 0.66 2 1 C2 1.66 2 2.32 2 3 C0.73581754 3.69965443 -0.53665402 4.38434763 -1.8125 5.0625 C-2.52019531 5.44535156 -3.22789062 5.82820313 -3.95703125 6.22265625 C-6 7 -6 7 -9 6 C-9 5.34 -9 4.68 -9 4 C-7.54618103 3.30300448 -6.08677047 2.61766134 -4.625 1.9375 C-3.40683594 1.36322266 -3.40683594 1.36322266 -2.1640625 0.77734375 C-1.44992188 0.52082031 -0.73578125 0.26429688 0 0 Z " fill="#000000" transform="translate(145,404)"/>
<path d="M0 0 C0.99 0.33 1.98 0.66 3 1 C0.19195732 3.96404505 -2.18315774 6.44499019 -6 8 C-6.33 7.01 -6.66 6.02 -7 5 C-5.90554162 4.13342884 -4.79902219 3.28207276 -3.6875 2.4375 C-3.07261719 1.96183594 -2.45773438 1.48617188 -1.82421875 0.99609375 C-1.22222656 0.66738281 -0.62023437 0.33867187 0 0 Z " fill="#000000" transform="translate(154,388)"/>
<path d="M0 0 C0.66 0.33 1.32 0.66 2 1 C0.61198929 4.35435922 -0.88629 6.11290303 -4 8 C-4.99 8 -5.98 8 -7 8 C-7 7.01 -7 6.02 -7 5 C-5.46875 3.61328125 -5.46875 3.61328125 -3.5 2.3125 C-2.8503125 1.87550781 -2.200625 1.43851562 -1.53125 0.98828125 C-1.0259375 0.66214844 -0.520625 0.33601563 0 0 Z " fill="#000000" transform="translate(170,376)"/>
<path d="M0 0 C0 0.99 0 1.98 0 3 C-1.75 4.38671875 -1.75 4.38671875 -4 5.6875 C-4.7425 6.12449219 -5.485 6.56148438 -6.25 7.01171875 C-6.8275 7.33785156 -7.405 7.66398437 -8 8 C-8 6.68 -8 5.36 -8 4 C-3.88888889 0 -3.88888889 0 0 0 Z " fill="#000000" transform="translate(295,286)"/>
<path d="M0 0 C0 0.99 0 1.98 0 3 C-1.75 4.38671875 -1.75 4.38671875 -4 5.6875 C-4.7425 6.12449219 -5.485 6.56148437 -6.25 7.01171875 C-6.8275 7.33785156 -7.405 7.66398438 -8 8 C-8 6.68 -8 5.36 -8 4 C-3.88888889 0 -3.88888889 0 0 0 Z " fill="#000000" transform="translate(357,240)"/>
<path d="M0 0 C0.66 0.33 1.32 0.66 2 1 C0.55746343 4.36591866 -1.33264727 6.51047079 -4 9 C-4.99 8.67 -5.98 8.34 -7 8 C-6.02133662 6.85373678 -5.04205413 5.70800212 -4.0625 4.5625 C-3.51722656 3.92441406 -2.97195312 3.28632812 -2.41015625 2.62890625 C-1.63204305 1.73008851 -0.84063472 0.84063472 0 0 Z " fill="#000000" transform="translate(107,602)"/>
<path d="M0 0 C0.66 0.33 1.32 0.66 2 1 C1 4 1 4 -0.84765625 4.94921875 C-1.57855469 5.19285156 -2.30945313 5.43648438 -3.0625 5.6875 C-4.16271484 6.06455078 -4.16271484 6.06455078 -5.28515625 6.44921875 C-5.85105469 6.63097656 -6.41695313 6.81273437 -7 7 C-7 5.68 -7 4.36 -7 3 C-4.69631264 1.93347808 -2.35981813 0.93578995 0 0 Z " fill="#000000" transform="translate(366,424)"/>
<path d="M0 0 C0 0.99 0 1.98 0 3 C-5.625 6 -5.625 6 -9 6 C-9 5.01 -9 4.02 -9 3 C-3.375 0 -3.375 0 0 0 Z " fill="#000000" transform="translate(384,417)"/>
<path d="M0 0 C0.66 0.33 1.32 0.66 2 1 C1 4 1 4 -0.84765625 4.94921875 C-1.57855469 5.19285156 -2.30945313 5.43648438 -3.0625 5.6875 C-4.16271484 6.06455078 -4.16271484 6.06455078 -5.28515625 6.44921875 C-5.85105469 6.63097656 -6.41695313 6.81273437 -7 7 C-7 5.68 -7 4.36 -7 3 C-4.69631264 1.93347808 -2.35981813 0.93578995 0 0 Z " fill="#000000" transform="translate(399,409)"/>
<path d="M0 0 C0.66 0.33 1.32 0.66 2 1 C0.61198929 4.35435922 -0.88629 6.11290303 -4 8 C-4.99 8 -5.98 8 -7 8 C-5.50902342 4.2047869 -3.24299151 2.38957269 0 0 Z " fill="#000000" transform="translate(262,308)"/>
<path d="M0 0 C0 0.99 0 1.98 0 3 C-4.95 4.485 -4.95 4.485 -10 6 C-10 5.01 -10 4.02 -10 3 C-8.70990357 2.49596232 -7.41786211 1.99690074 -6.125 1.5 C-5.04605469 1.08234375 -5.04605469 1.08234375 -3.9453125 0.65625 C-2 0 -2 0 0 0 Z " fill="#000000" transform="translate(284,107)"/>
<path d="M0 0 C3.3 0 6.6 0 10 0 C10 0.99 10 1.98 10 3 C6.7 3 3.4 3 0 3 C0 2.01 0 1.02 0 0 Z " fill="#000000" transform="translate(350,94)"/>
<path d="M0 0 C0.66 0.33 1.32 0.66 2 1 C1.35455571 4.48539917 -0.10134397 7.02819057 -2 10 C-2.99 9.67 -3.98 9.34 -5 9 C-3.35 6.03 -1.7 3.06 0 0 Z " fill="#000000" transform="translate(71,648)"/>
<path d="M0 0 C0.66 0 1.32 0 2 0 C1.125 7.75 1.125 7.75 0 10 C-0.99 10 -1.98 10 -3 10 C-2.69201674 8.51988629 -2.378482 7.04092675 -2.0625 5.5625 C-1.88847656 4.73878906 -1.71445312 3.91507812 -1.53515625 3.06640625 C-1 1 -1 1 0 0 Z " fill="#000000" transform="translate(341,468)"/>
<path d="M0 0 C0.99 0 1.98 0 3 0 C4.60725635 3.21451269 4.05748185 6.43612536 4 10 C3.01 10 2.02 10 1 10 C0.67 6.7 0.34 3.4 0 0 Z " fill="#000000" transform="translate(346,411)"/>
<path d="M0 0 C1.32 0 2.64 0 4 0 C4 0.99 4 1.98 4 3 C2.35 3.66 0.7 4.32 -1 5 C-1 1 -1 1 0 0 Z " fill="#000000" transform="translate(107,422)"/>
<path d="M0 0 C0 0.99 0 1.98 0 3 C-1.65 3.33 -3.3 3.66 -5 4 C-5 3.01 -5 2.02 -5 1 C-3 0 -3 0 0 0 Z " fill="#000000" transform="translate(413,404)"/>
<path d="M0 0 C0.99 0.33 1.98 0.66 3 1 C2.67 1.99 2.34 2.98 2 4 C1.01 3.01 0.02 2.02 -1 1 C-0.67 0.67 -0.34 0.34 0 0 Z " fill="#000000" transform="translate(309,706)"/>
<path d="M0 0 C0.99 0.33 1.98 0.66 3 1 C2.67 1.99 2.34 2.98 2 4 C1.01 3.01 0.02 2.02 -1 1 C-0.67 0.67 -0.34 0.34 0 0 Z " fill="#000000" transform="translate(410,345)"/>
<path d="M0 0 C0.99 0.33 1.98 0.66 3 1 C2.67 1.99 2.34 2.98 2 4 C1.01 3.01 0.02 2.02 -1 1 C-0.67 0.67 -0.34 0.34 0 0 Z " fill="#000000" transform="translate(445,16)"/>
</svg>
