<svg width="197" height="200" viewBox="0 0 197 200" fill="none" xmlns="http://www.w3.org/2000/svg">
<path d="M50.5 3H3V195.5H50.5V3Z" stroke="black" stroke-width="5"/>
<path d="M26.2929 174.707C26.6834 175.098 27.3166 175.098 27.7071 174.707L34.0711 168.343C34.4616 167.953 34.4616 167.319 34.0711 166.929C33.6805 166.538 33.0474 166.538 32.6569 166.929L27 172.586L21.3431 166.929C20.9526 166.538 20.3195 166.538 19.9289 166.929C19.5384 167.319 19.5384 167.953 19.9289 168.343L26.2929 174.707ZM26 20.5V25.2969H28V20.5H26ZM26 34.8906V44.4844H28V34.8906H26ZM26 54.0781V63.6719H28V54.0781H26ZM26 73.2656V82.8594H28V73.2656H26ZM26 92.4531V102.047H28V92.4531H26ZM26 111.641V121.234H28V111.641H26ZM26 130.828V140.422H28V130.828H26ZM26 150.016V159.609H28V150.016H26ZM26 169.203V174H28V169.203H26Z" fill="black"/>
<circle cx="27.0957" cy="20.0957" r="8.09575" fill="black"/>
<path d="M192.555 79.8975H147.891C141.881 56.7259 125.154 59.2085 120.342 64.1738C103.979 81.056 122.707 92.4487 134.117 96.0348C163.503 101.662 182.815 118.517 188.798 126.241C210.504 178.791 161.249 205.272 114.915 195.342C114.644 195.302 114.374 195.261 114.106 195.217C85.0145 190.496 75.2494 161.143 74.0086 146.93H114.915C114.915 164.822 130.777 167.205 140.795 165.55C159.997 158.102 152.9 138.654 140.795 134.93L99.471 118.379C78.1827 109.276 73.8694 90.2419 74.0086 79.8975C73.3407 38.5196 111.854 30.1061 131.195 31.0716C176.944 31.4026 191.164 63.7601 192.555 79.8975Z" stroke="black" stroke-width="5"/>
<ellipse cx="170.513" cy="65.009" rx="6.75861" ry="6.6997" fill="black"/>
<path d="M168.763 66.1712C158.049 51.1373 128.524 30.0897 96.1319 66.1712C89.5924 79.1363 88.2845 107.301 135.369 116.238C155.266 121.893 175.859 127.824 173.354 159.685C169.041 171.271 152.066 185.753 128.691 184.512C117.281 182.029 100.139 171.436 96.1319 162.168" stroke="black" stroke-width="2" stroke-dasharray="10 10"/>
</svg>
