<?xml version="1.0" encoding="UTF-8"?>
<svg version="1.1" xmlns="http://www.w3.org/2000/svg" width="810" height="303">
<path d="M0 0 C21.12 0 42.24 0 64 0 C73.1875 26.6875 73.1875 26.6875 77.66424561 39.69168091 C81.4448021 50.67351043 85.22551321 61.65528662 89.00695801 72.6368103 C91.15057264 78.86200555 93.29404259 85.08725062 95.4375 91.3125 C95.86611328 92.55727112 96.29472656 93.80204224 96.73632812 95.08453369 C101.68828589 109.4662036 106.63654516 123.84913568 111.578125 138.234375 C112.04702877 139.59929537 112.51593645 140.96421439 112.98484802 142.32913208 C113.21684182 143.004429 113.44883562 143.67972591 113.68785954 144.37548637 C114.15606572 145.73835742 114.6242734 147.10122795 115.09248257 148.46409798 C116.25007914 151.83367661 117.40760163 155.20328065 118.56497192 158.57293701 C123.4882621 172.90619885 128.42198615 187.23572146 133.38671875 201.5546875 C133.81262802 202.7833403 134.23853729 204.0119931 134.67735291 205.27787781 C136.68892462 211.07942439 138.70262994 216.88021878 140.71948242 222.67993164 C141.42499555 224.71239259 142.13048223 226.74486272 142.8359375 228.77734375 C143.15974899 229.70622406 143.48356049 230.63510437 143.81718445 231.59213257 C144.1074501 232.42918732 144.39771576 233.26624207 144.69677734 234.12866211 C145.07689468 235.22143715 145.07689468 235.22143715 145.46469116 236.33628845 C146 238 146 238 146 239 C124.55 239 103.1 239 81 239 C75.36522754 225.47654609 75.36522754 225.47654609 73.54296875 220.02734375 C73.15302734 218.86138672 72.76308594 217.69542969 72.36132812 216.49414062 C71.97396484 215.32044922 71.58660156 214.14675781 71.1875 212.9375 C70.78080078 211.72900391 70.37410156 210.52050781 69.95507812 209.27539062 C69.57158203 208.12103516 69.18808594 206.96667969 68.79296875 205.77734375 C68.4477417 204.73827881 68.10251465 203.69921387 67.74682617 202.62866211 C67 200 67 200 67 197 C42.91 197 18.82 197 -6 197 C-6.33 198.65 -6.66 200.3 -7 202 C-7.4070933 203.3304386 -7.84264441 204.65251965 -8.30688477 205.96411133 C-8.57069946 206.71470825 -8.83451416 207.46530518 -9.10632324 208.23864746 C-9.51968933 209.39862244 -9.51968933 209.39862244 -9.94140625 210.58203125 C-10.32323059 211.66550842 -10.32323059 211.66550842 -10.71276855 212.77087402 C-11.65898085 215.45272368 -12.61108603 218.13249128 -13.5625 220.8125 C-15.686875 226.814375 -17.81125 232.81625 -20 239 C-40.13 239 -60.26 239 -81 239 C-79.25330882 232.59546568 -77.5708905 226.47104469 -75.41796875 220.2421875 C-75.17171249 219.52571045 -74.92545624 218.8092334 -74.67173767 218.07104492 C-74.13248493 216.50289734 -73.59172768 214.93526649 -73.04962158 213.36810303 C-71.4952429 208.873115 -69.9535425 204.37377165 -68.41015625 199.875 C-68.06845398 198.87983368 -67.72675171 197.88466736 -67.37469482 196.85934448 C-62.82069537 183.58370462 -58.33396177 170.28523457 -53.83972931 156.98927689 C-51.69235968 150.63703428 -49.54354891 144.28527897 -47.39453125 137.93359375 C-47.04463764 136.89940717 -47.04463764 136.89940717 -46.68767548 135.84432793 C-41.78635863 121.35863086 -36.8623538 106.88070627 -31.92651367 92.40673828 C-28.49904035 82.35369899 -25.08301931 72.29690358 -21.68226814 62.23478889 C-21.0395488 60.33346985 -20.39648321 58.43226829 -19.75328064 56.53111267 C-19.54128808 55.90451154 -19.32929552 55.2779104 -19.11087894 54.63232136 C-18.89921809 54.00672416 -18.68755724 53.38112696 -18.46948242 52.73657227 C-17.22177266 49.04875237 -15.97482376 45.36068747 -14.73086548 41.67160034 C-13.58200781 38.26465442 -12.42993847 34.85880816 -11.27734375 31.453125 C-10.94872345 30.47563797 -10.62010315 29.49815094 -10.28152466 28.49104309 C-7.03553585 18.91772683 -3.49925467 9.49797697 0 0 Z M4 6 C-4.62284152 31.20292424 -13.20284588 56.42019404 -21.75708008 81.64648438 C-26.65295145 96.08403613 -31.55417627 110.51974554 -36.46350098 124.95272827 C-42.58819015 142.95910526 -48.70950883 160.96662829 -54.82373047 178.9765625 C-55.63225148 181.35782737 -56.44099768 183.73901579 -57.25 186.12011719 C-62.55311347 201.72936587 -67.7992172 217.3563287 -73 233 C-57.16 233 -41.32 233 -25 233 C-22.5213876 227.4231221 -20.22997433 222.11837277 -18.203125 216.41015625 C-17.84537994 215.40425697 -17.84537994 215.40425697 -17.48040771 214.3780365 C-16.98470459 212.98140243 -16.490753 211.58414549 -15.99853516 210.1862793 C-15.24240848 208.04096098 -14.47898576 205.89833411 -13.71484375 203.75585938 C-13.23133925 202.39077779 -12.74825072 201.02554878 -12.265625 199.66015625 C-11.83024414 198.42918213 -11.39486328 197.19820801 -10.94628906 195.92993164 C-9.897553 193.19595931 -9.897553 193.19595931 -10 191 C16.73 191 43.46 191 71 191 C71.99 194.63 72.98 198.26 74 202 C74.78748973 204.45823661 75.59968894 206.9088065 76.4453125 209.34765625 C76.66065643 209.97103378 76.87600037 210.59441132 77.09786987 211.23667908 C77.54484479 212.52840592 77.99349879 213.819553 78.44384766 215.11010742 C79.13446864 217.08964004 79.81958266 219.0710169 80.50390625 221.05273438 C82.49637395 227.13159104 82.49637395 227.13159104 85 233 C102.16 233 119.32 233 137 233 C136.17957635 227.92297031 136.17957635 227.92297031 134.77929688 223.16503906 C134.53324707 222.46397034 134.28719727 221.76290161 134.03369141 221.04058838 C133.76476074 220.28985046 133.49583008 219.53911255 133.21875 218.765625 C132.93370605 217.95639587 132.64866211 217.14716675 132.35498047 216.31341553 C131.73435641 214.55230749 131.11163371 212.79193793 130.48706055 211.03222656 C128.77176494 206.19732456 127.07361908 201.35640617 125.375 196.515625 C125.01724487 195.49690308 124.65948975 194.47818115 124.29089355 193.42858887 C120.27837807 181.98028981 116.38883849 170.49076133 112.5 159 C106.9458838 142.60102563 101.31486247 126.23206044 95.58602905 109.89334106 C90.40328962 95.1053846 85.34002717 80.27888018 80.3125 65.4375 C75.27725649 50.57969553 70.20996383 35.73506035 65 20.9375 C64.74602448 20.2132785 64.49204895 19.48905701 64.2303772 18.7428894 C63.53185277 16.75320111 62.82930287 14.76499278 62.125 12.77734375 C61.73570312 11.67640381 61.34640625 10.57546387 60.9453125 9.44116211 C60.22339668 7.08871304 60.22339668 7.08871304 59 6 C57.28134591 5.9064081 55.55884256 5.88255389 53.83764648 5.88647461 C52.18604774 5.88658791 52.18604774 5.88658791 50.50108337 5.88670349 C49.3031868 5.89186478 48.10529022 5.89702606 46.87109375 5.90234375 C45.65172623 5.9037587 44.4323587 5.90517365 43.17604065 5.90663147 C39.2631693 5.91225033 35.35035419 5.92480604 31.4375 5.9375 C28.79231853 5.94251257 26.14713617 5.9470759 23.50195312 5.95117188 C17.00128274 5.96222589 10.50064539 5.97898236 4 6 Z " fill="#000000" transform="translate(81,0)"/>
<path d="M0 0 C15.11491157 13.75665915 21.45924239 34.80229889 23.2265625 54.48828125 C23.56131174 64.27969651 21.08954183 73.63129473 14.9453125 81.35546875 C10.17534364 86.45822614 5.62503472 87.4709996 -1.0546875 88.35546875 C-0.58160156 88.649375 -0.10851562 88.94328125 0.37890625 89.24609375 C9.18120727 95.21724532 16.06200773 104.47069298 19.9453125 114.35546875 C19.64619263 118.4815634 16.91173293 121.40863581 14.4453125 124.54296875 C13.99607422 125.11740723 13.54683594 125.6918457 13.08398438 126.28369141 C0.52701669 142.08586698 -16.58228131 154.61035311 -37.0546875 157.35546875 C-57.13432743 159.11981816 -76.89587903 156.38082891 -95.0546875 147.35546875 C-95.9828125 146.90429688 -96.9109375 146.453125 -97.8671875 145.98828125 C-117.743198 135.7742203 -131.95577502 119.00892641 -140.0546875 98.35546875 C-148.2214988 71.94838628 -143.96474013 45.12276105 -131.33886719 20.94506836 C-127.00851076 13.02530343 -121.45478 6.67097853 -115.0546875 0.35546875 C-114.35214844 -0.34578125 -113.64960937 -1.04703125 -112.92578125 -1.76953125 C-84.00102269 -28.88284029 -28.70209585 -22.97259002 0 0 Z M-107.0546875 1.35546875 C-108.0446875 2.10570312 -108.0446875 2.10570312 -109.0546875 2.87109375 C-123.16993163 14.22945426 -131.75855209 32.08048215 -136.0546875 49.35546875 C-136.39113281 50.61617187 -136.39113281 50.61617187 -136.734375 51.90234375 C-141.53257655 73.0670136 -137.4042412 95.06254045 -126.0546875 113.35546875 C-115.17633173 129.05558222 -99.9756111 139.97799721 -82.0546875 146.35546875 C-81.0234375 146.72542969 -79.9921875 147.09539062 -78.9296875 147.4765625 C-57.82152557 154.2719967 -36.35795803 154.03232744 -16.375 144.01171875 C-9.81012241 140.33047898 -4.45734102 135.55508137 0.9453125 130.35546875 C2.06679688 129.29392578 2.06679688 129.29392578 3.2109375 128.2109375 C8.82269696 122.83952107 8.82269696 122.83952107 12.9453125 116.35546875 C12.2540252 110.27214055 7.64340101 105.04266676 3.9453125 100.35546875 C3.11580078 99.26685547 3.11580078 99.26685547 2.26953125 98.15625 C-1.33708766 94.21375971 -4.49858681 92.93279339 -9.86791992 92.52807617 C-16.89737348 92.37053756 -21.51477117 93.43459638 -26.72265625 98.34375 C-37.25978103 107.43356451 -51.65391427 111.18284609 -65.26953125 110.7109375 C-70.25041594 110.2431764 -73.83237158 108.95801692 -78.0546875 106.35546875 C-79.0859375 105.81921875 -80.1171875 105.28296875 -81.1796875 104.73046875 C-86.92438721 99.98484725 -90.4570381 94.03992568 -93.16162109 87.16650391 C-93.69533829 85.81523911 -93.69533829 85.81523911 -94.23983765 84.43667603 C-94.5087381 83.74987762 -94.77763855 83.06307922 -95.0546875 82.35546875 C-93.19546158 82.35000031 -93.19546158 82.35000031 -91.29867554 82.34442139 C-79.61576812 82.30747475 -67.93312437 82.24970541 -56.25041771 82.17156601 C-50.24424524 82.13206269 -44.23822002 82.09988805 -38.23193359 82.08447266 C-32.43514467 82.06932514 -26.63876047 82.03491278 -20.84215164 81.98715973 C-18.63102359 81.97232639 -16.41983777 81.96442662 -14.20866013 81.9635849 C-11.11051062 81.96121945 -8.01348342 81.93417253 -4.91552734 81.90136719 C-3.54527405 81.90891273 -3.54527405 81.90891273 -2.14733887 81.91661072 C3.36307391 81.82638048 6.5908863 81.06114279 10.9453125 77.35546875 C12.64959707 75.00994206 12.64959707 75.00994206 13.7578125 72.41796875 C14.15613281 71.58394531 14.55445313 70.74992187 14.96484375 69.890625 C19.91453554 57.09241795 16.57268514 41.48212739 11.6953125 29.16796875 C3.51941165 11.12293316 -7.90241981 -1.88499525 -26.58984375 -8.98828125 C-50.38871037 -16.63889279 -86.84121231 -15.10873282 -107.0546875 1.35546875 Z M-87.0546875 87.35546875 C-83.15845491 95.14793392 -78.86816241 101.80258148 -70.27734375 104.9140625 C-54.28802302 108.08944605 -41.16425801 101.93841626 -28.0546875 93.35546875 C-25.89707255 91.77672611 -24.00226171 90.19484439 -22.0546875 88.35546875 C-22.0546875 88.02546875 -22.0546875 87.69546875 -22.0546875 87.35546875 C-43.5046875 87.35546875 -64.9546875 87.35546875 -87.0546875 87.35546875 Z " fill="#000000" transform="translate(787.0546875,80.64453125)"/>
<path d="M0 0 C1.01126953 -0.01611328 2.02253906 -0.03222656 3.06445312 -0.04882812 C10.46953997 -0.05359637 17.25418673 0.97084336 23.9375 4.3125 C23.9375 5.6325 23.9375 6.9525 23.9375 8.3125 C25.071875 8.03535156 26.20625 7.75820312 27.375 7.47265625 C28.89577848 7.10654291 30.41661495 6.74067037 31.9375 6.375 C33.05318359 6.10139648 33.05318359 6.10139648 34.19140625 5.82226562 C56.48131532 0.49206998 78.8687166 2.67383803 98.6875 14.625 C116.92957478 26.78638319 125.9206691 46.8507325 130.69140625 67.58984375 C134.93464732 91.12054421 131.55885057 117.81971746 117.83203125 137.796875 C103.87525 156.32917835 84.66956138 166.17330842 62.015625 169.77734375 C59.65085916 170.04539951 57.31490731 170.21554899 54.9375 170.3125 C54.25171875 170.35246094 53.5659375 170.39242187 52.859375 170.43359375 C43.10776519 170.74058887 33.25323901 169.04702599 23.9375 166.3125 C23.96081642 167.18787415 23.96081642 167.18787415 23.98460388 168.08093262 C24.14003142 174.18060154 24.24527463 180.27970406 24.32202148 186.38085938 C24.35712297 188.65452948 24.40481746 190.92804271 24.46557617 193.20117188 C24.55094687 196.47825893 24.59029243 199.75325 24.62109375 203.03125 C24.65722275 204.03990112 24.69335175 205.04855225 24.73057556 206.08776855 C24.73420703 212.68417541 23.39232642 216.04423214 18.7559967 220.76989746 C13.39889677 225.31424222 7.52641889 226.68455814 0.625 226.59375 C-8.95113296 225.59159655 -18.6587047 221.53290453 -26.66641712 216.25544262 C-28.91298162 213.12887615 -28.46335143 209.68766906 -28.42326355 205.97932434 C-28.42582682 205.11921507 -28.4283901 204.2591058 -28.43103105 203.37293261 C-28.43598734 200.47996 -28.41944566 197.58750491 -28.40307617 194.69458008 C-28.4022303 192.62519849 -28.40270426 190.555816 -28.40440369 188.48643494 C-28.40526661 182.85861451 -28.3875927 177.23098478 -28.36668181 171.60320878 C-28.34796455 165.72552846 -28.34616849 159.84784407 -28.34260559 153.97013855 C-28.33327055 142.83541604 -28.30863703 131.70078159 -28.27855712 120.56609792 C-28.24505848 107.89155394 -28.22853852 95.21700582 -28.21347082 82.54242861 C-28.18208876 56.46573687 -28.12929992 30.38912336 -28.0625 4.3125 C-18.94842183 0.57789855 -9.77188353 -0.03126002 0 0 Z M-22.0625 8.3125 C-22.249276 34.69391675 -22.39040365 61.07523462 -22.47699738 87.45717907 C-22.51827085 99.70645927 -22.5745533 111.95532897 -22.66601562 124.2043457 C-22.74568458 134.87902241 -22.79734949 145.55340189 -22.81520796 156.22836763 C-22.8256494 161.88231176 -22.85023347 167.53540548 -22.90834045 173.18907738 C-22.96257369 178.50885837 -22.97940651 183.82743739 -22.96736145 189.14746857 C-22.96956544 191.10146679 -22.98552105 193.0555045 -23.0161438 195.00926399 C-23.05589495 197.67584597 -23.04641218 200.33787753 -23.02453613 203.00456238 C-23.04783886 203.77986067 -23.0711416 204.55515897 -23.09515047 205.35395116 C-23.12357246 207.82808996 -23.12357246 207.82808996 -22.0625 211.3125 C-15.88692227 216.91522056 -6.07293464 220.39226464 2.1875 220.75 C7.5956091 220.11905394 11.84559835 219.10165211 16.02929688 215.5234375 C19.02208618 210.4874645 18.42889924 205.53943525 18.328125 199.79296875 C18.31963531 197.97240715 18.31963531 197.97240715 18.31097412 196.11506653 C18.28860442 192.24297456 18.23840382 188.37181176 18.1875 184.5 C18.16743591 181.87306025 18.14918499 179.24610598 18.1328125 176.61914062 C18.08873746 170.18327734 18.02181792 163.74795506 17.9375 157.3125 C18.79980225 157.65821045 19.66210449 158.0039209 20.55053711 158.36010742 C21.6978833 158.81232666 22.84522949 159.2645459 24.02734375 159.73046875 C25.157771 160.1793042 26.28819824 160.62813965 27.45288086 161.09057617 C46.99987078 167.9449645 69.84185832 164.56202373 88.19921875 155.74609375 C104.78444743 146.59342594 116.69449864 132.57912716 122.16015625 114.39453125 C129.08740053 89.84003148 127.35935468 63.85469821 114.9375 41.3125 C104.9314668 24.99653974 91.59292221 14.81887472 72.9375 10.3125 C54.73750605 6.59261098 35.19335472 10.14746789 17.9375 16.3125 C17.9375 13.6725 17.9375 11.0325 17.9375 8.3125 C5.8601165 3.28025687 -9.6619309 5.03303915 -22.0625 8.3125 Z " fill="#000000" transform="translate(263.0625,76.6875)"/>
<path d="M0 0 C0.625 2.0625 0.625 2.0625 1 4 C2.05832031 3.71125 3.11664063 3.4225 4.20703125 3.125 C14.12180455 0.62685068 23.64525685 -0.40909391 33.875 -0.4375 C35.5297937 -0.45200195 35.5297937 -0.45200195 37.21801758 -0.46679688 C47.98899406 -0.35756917 58.43775123 1.51842312 68.0625 6.5 C68.73095947 6.84329346 69.39941895 7.18658691 70.08813477 7.5402832 C87.67113441 17.03615274 98.78817688 34.41277332 104.66845703 53.12744141 C111.6622486 77.42020751 110.28086142 104.16107576 98.75 126.875 C88.39656589 144.77037534 72.74629098 157.26214822 52.87597656 162.92456055 C37.29826831 167.04657126 15.08164485 169.54082243 0 162 C0.02331642 162.91628929 0.02331642 162.91628929 0.04710388 163.85108948 C0.20233286 170.22636159 0.30769391 176.60109455 0.38452148 182.9777832 C0.41965856 185.35528376 0.46737953 187.73263377 0.52807617 190.10961914 C0.61328709 193.533093 0.65275737 196.95456307 0.68359375 200.37890625 C0.71972275 201.43646622 0.75585175 202.49402618 0.79307556 203.58363342 C0.7959188 208.96399204 0.50287746 212.16170468 -3.35131836 216.10522461 C-10.0314387 221.8443754 -15.6955818 222.5592541 -24.37109375 222.34765625 C-33.52923441 221.47028863 -44.33852827 217.66147173 -51 211 C-51.09785825 208.28146243 -51.12993566 205.58833853 -51.12025452 202.86936951 C-51.12110894 202.00688553 -51.12196337 201.14440156 -51.12284368 200.25578171 C-51.12450114 197.34294519 -51.1189728 194.43016527 -51.11352539 191.51733398 C-51.11324355 189.4383952 -51.11340119 187.35945631 -51.1139679 185.28051758 C-51.11425599 179.61752561 -51.10835731 173.95455463 -51.10139394 168.29156756 C-51.09516241 162.38050107 -51.09455676 156.46943414 -51.09336853 150.55836487 C-51.09025462 139.35632305 -51.08204043 128.15429094 -51.07201904 116.9522534 C-51.06085975 104.20277637 -51.05534792 91.45329889 -51.05032361 78.7038182 C-51.03985786 52.46920674 -51.02225727 26.23460391 -51 0 C-49.07760961 -0.48750271 -47.15474837 -0.97314896 -45.23168945 -1.45800781 C-44.16094681 -1.72865051 -43.09020416 -1.99929321 -41.98701477 -2.27813721 C-29.00380236 -5.41575074 -12.21046241 -6.10523121 0 0 Z M-45 5 C-45.09780042 7.61762734 -45.12994511 10.20885307 -45.12025452 12.82691956 C-45.12110894 13.65673511 -45.12196337 14.48655066 -45.12284368 15.34151214 C-45.12450103 18.14379319 -45.11897297 20.94601541 -45.11352539 23.74829102 C-45.11324355 25.74841307 -45.1134012 27.74853523 -45.1139679 29.74865723 C-45.11425598 35.19678035 -45.10835745 40.64488166 -45.10139394 46.0929997 C-45.09516226 51.77984842 -45.09455675 57.46669758 -45.09336853 63.15354919 C-45.09025466 73.93059959 -45.08204053 84.7076399 -45.07201904 95.48468584 C-45.06085962 107.75049607 -45.05534789 120.01630678 -45.05032361 132.28212082 C-45.03985796 157.52141949 -45.02225745 182.76070918 -45 208 C-43.59145474 208.79842167 -42.18089912 209.59329727 -40.76953125 210.38671875 C-39.98425049 210.82975342 -39.19896973 211.27278809 -38.38989258 211.72924805 C-30.86243224 215.73174381 -23.5112664 217.07722565 -15 216 C-10.58275797 214.48084269 -7.43247709 211.99609147 -5 208 C-4.56851472 205.4198109 -4.56851472 205.4198109 -4.65942383 202.58886719 C-4.65965042 201.50804871 -4.65987701 200.42723022 -4.66011047 199.31365967 C-4.67559433 198.15312073 -4.69107819 196.99258179 -4.70703125 195.796875 C-4.71339851 194.00748505 -4.71339851 194.00748505 -4.71989441 192.1819458 C-4.73668977 188.37106781 -4.77434482 184.56071822 -4.8125 180.75 C-4.82754567 178.1666743 -4.84123428 175.58334032 -4.85351562 173 C-4.88659619 166.66648632 -4.93680476 160.33328091 -5 154 C-3.98679687 154.34933594 -2.97359375 154.69867188 -1.9296875 155.05859375 C-0.57820771 155.51847229 0.77335947 155.97809409 2.125 156.4375 C2.79015625 156.66759766 3.4553125 156.89769531 4.140625 157.13476562 C22.21748404 163.24899736 44.01160829 161.13917404 61.23046875 153.37109375 C78.31319361 144.91406071 91.14686331 131.96359175 98 114 C100.76988529 105.28494636 102.62112847 96.14233481 103 87 C103.03996094 86.31550781 103.07992187 85.63101563 103.12109375 84.92578125 C103.78842458 63.68895911 96.48489428 40.62064528 82.5078125 24.53515625 C68.68655178 10.56319642 52.37467893 5.40291341 33.14697266 4.99316406 C20.01693408 5.03496996 7.53300256 8.39555799 -5 12 C-5 9.36 -5 6.72 -5 4 C-13.68249773 1.42740808 -37.96444232 -2.03555768 -45 5 Z " fill="#000000" transform="translate(457,81)"/>
<path d="M0 0 C1.77734375 1.3671875 1.77734375 1.3671875 3.77734375 3.3671875 C3.99261107 6.14167484 4.08174314 8.81836717 4.08514404 11.59547424 C4.09390855 12.4565461 4.10267306 13.31761796 4.11170316 14.2047829 C4.13853904 17.10731504 4.15085009 20.00972566 4.16308594 22.91235352 C4.17888351 24.98669488 4.19542113 27.06103072 4.21264648 29.13536072 C4.26514954 35.96388477 4.2957128 42.7924337 4.32421875 49.62109375 C4.33493648 51.97042291 4.34569149 54.31975191 4.35648346 56.66908073 C4.39975454 66.44244669 4.43722689 76.21580595 4.45972824 85.98924351 C4.4921971 100.00083785 4.55850956 114.01132197 4.67252994 128.02249771 C4.74994026 137.8705804 4.78899509 147.71836627 4.79956937 157.56674522 C4.80687655 163.45007158 4.83091384 169.33221472 4.89577484 175.21521187 C4.95595823 180.75358789 4.9685555 186.2900658 4.94500732 191.82869911 C4.94456596 193.85842721 4.96116898 195.88824355 4.996315 197.91766739 C5.24586835 213.16082657 5.24586835 213.16082657 1.67935944 218.51926994 C-7.27428928 226.89209914 -18.13153001 230.73521224 -30.19140625 230.57421875 C-38.25139606 230.02372976 -43.80705419 226.25110105 -49.22265625 220.3671875 C-52.53517941 216.0126657 -52.66102082 212.04485697 -52.64398193 206.76467896 C-52.6528953 205.89963269 -52.66180867 205.03458643 -52.67099214 204.14332664 C-52.69700244 201.24536508 -52.70157323 198.34777603 -52.70605469 195.44970703 C-52.71994265 193.3716757 -52.7350171 191.29365201 -52.75119019 189.21563721 C-52.79053001 183.57101809 -52.80988981 177.92650595 -52.82322216 172.28177118 C-52.83201771 168.75542798 -52.8443326 165.22911399 -52.85773468 161.70278549 C-52.89874693 150.67007049 -52.92775477 139.63742226 -52.93934035 128.60463631 C-52.95278946 115.86738273 -53.00546984 103.13109388 -53.09234214 90.39413369 C-53.15716441 80.54854955 -53.1874515 70.70323707 -53.19146371 60.85744178 C-53.19460938 54.97658629 -53.21236116 49.09663815 -53.26592255 43.21600723 C-53.3153207 37.68504862 -53.3218568 32.15568083 -53.29550552 26.62458038 C-53.29319198 24.59565091 -53.30625613 22.56663642 -53.33588028 20.53792191 C-53.5460589 5.24703048 -53.5460589 5.24703048 -50.31439972 0.65658188 C-48.00098031 -1.20650796 -45.93383504 -2.43983571 -43.22265625 -3.6328125 C-42.384855 -4.05539778 -41.54705376 -4.47798306 -40.68386459 -4.91337395 C-26.44702009 -11.95990647 -12.61166206 -8.80307695 0 0 Z M-46.22265625 6.3671875 C-46.82969476 9.431607 -47.04079468 11.7119949 -46.99128723 14.77314758 C-47.00135274 15.61707052 -47.01141825 16.46099346 -47.02178878 17.33048981 C-47.04805696 20.15754834 -47.03145001 22.98270635 -47.01489258 25.80981445 C-47.02466036 27.83696819 -47.0369658 29.86411105 -47.05162048 31.89123535 C-47.08327099 37.397702 -47.07674634 42.90351349 -47.06154084 48.41002679 C-47.05239614 53.00742345 -47.0620893 57.60469974 -47.07187957 62.20208901 C-47.09480014 73.04979576 -47.08719563 83.89718476 -47.05981445 94.74487305 C-47.0320246 105.93260089 -47.05134918 117.11952791 -47.09469014 128.30718833 C-47.13047608 137.91419197 -47.13901298 147.52094884 -47.12529773 157.1280095 C-47.117254 162.86504448 -47.11903666 168.60163111 -47.14615822 174.33861732 C-47.17031363 179.7357064 -47.1602964 185.13168242 -47.1241703 190.52869415 C-47.11652564 192.50716148 -47.12075096 194.48571643 -47.13784409 196.46412468 C-47.68561184 208.2397606 -47.68561184 208.2397606 -42.83500671 218.48161316 C-41.05157273 220.11964502 -41.05157273 220.11964502 -39.22265625 221.3671875 C-38.33578125 222.0271875 -37.44890625 222.6871875 -36.53515625 223.3671875 C-28.94735515 225.65784444 -21.46800222 225.25820948 -14.3984375 221.65234375 C-7.95208872 217.99692593 -7.95208872 217.99692593 -2.22265625 213.3671875 C-2.1070837 210.71298212 -2.05702989 208.08415712 -2.04856873 205.42878723 C-2.04206977 204.58687086 -2.03557082 203.74495449 -2.02887493 202.87752551 C-2.00836693 200.03400125 -1.99522705 197.19049144 -1.98217773 194.34692383 C-1.96937337 192.31712643 -1.95623806 190.2873311 -1.9427948 188.25753784 C-1.82680733 169.71449921 -1.77025742 151.17091737 -1.72602749 132.6275835 C-1.69276877 118.91236922 -1.63319025 105.19781445 -1.53851646 91.48288327 C-1.47425263 81.84888751 -1.44050074 72.21507179 -1.42927796 62.58086985 C-1.42170599 56.82242284 -1.40042809 51.06477159 -1.34625053 45.30655861 C-1.29587455 39.88824486 -1.28319015 34.47114978 -1.29950142 29.05263901 C-1.29889682 27.06359628 -1.2845763 25.07450346 -1.2555542 23.08567238 C-0.69250238 13.02126861 -0.69250238 13.02126861 -3.93165779 3.89334679 C-6.00276345 2.28572916 -7.78525838 1.30511401 -10.22265625 0.3671875 C-11.23371005 -0.13510266 -11.23371005 -0.13510266 -12.26518917 -0.64754009 C-22.8386909 -5.78667058 -38.69307244 -2.82005287 -46.22265625 6.3671875 Z " fill="#000000" transform="translate(627.22265625,8.6328125)"/>
<path d="M0 0 C1.65100371 2.47650556 2.50097021 4.1250506 3.41738892 6.86448669 C3.68097702 7.64534637 3.94456512 8.42620605 4.21614075 9.23072815 C4.49882309 10.08327682 4.78150543 10.9358255 5.07275391 11.81420898 C5.52673302 13.16585144 5.52673302 13.16585144 5.98988342 14.5447998 C6.9900688 17.52703852 7.98357499 20.51145132 8.9765625 23.49609375 C9.66851106 25.56738024 10.36068325 27.63859203 11.05307007 29.70973206 C12.50357673 34.05231132 13.9506624 38.39601254 15.39550781 42.74047852 C17.2490825 48.31269652 19.11215206 53.88168623 20.97793007 59.44982815 C22.4096286 63.72659499 23.83574813 68.00520623 25.26023483 72.28437996 C25.94496724 74.33873077 26.63156885 76.39245953 27.32005692 78.44555473 C28.28113934 81.3139572 29.23456273 84.18479443 30.18603516 87.05639648 C30.47276596 87.90692093 30.75949677 88.75744537 31.05491638 89.63374329 C31.31286484 90.41742279 31.57081329 91.20110229 31.83657837 92.00852966 C32.06258539 92.68676002 32.28859241 93.36499037 32.52144814 94.06377316 C33 96 33 96 33 100 C11.22 100 -10.56 100 -33 100 C-34 98 -34 98 -33.26968384 95.23901367 C-32.86825165 94.06056885 -32.46681946 92.88212402 -32.05322266 91.66796875 C-31.83373962 91.0169368 -31.61425659 90.36590485 -31.38812256 89.69514465 C-30.65393004 87.52342797 -29.90904204 85.35553774 -29.1640625 83.1875 C-28.64547494 81.66102221 -28.12753128 80.13432554 -27.61019897 78.60742188 C-26.23607171 74.55773956 -24.85280776 70.51123372 -23.46777344 66.465271 C-22.09650338 62.45404787 -20.73427028 58.4397604 -19.37109375 54.42578125 C-16.50455571 45.9911459 -13.62140419 37.5622646 -10.73182678 29.13549805 C-10.01522529 27.04442798 -9.29983249 24.95294845 -8.58483887 22.86132812 C-7.31809974 19.15626859 -6.04629796 15.45296146 -4.7734375 11.75 C-4.40119049 10.66074219 -4.02894348 9.57148437 -3.64541626 8.44921875 C-3.30787323 7.47082031 -2.9703302 6.49242187 -2.62255859 5.484375 C-2.18537003 4.21158691 -2.18537003 4.21158691 -1.73934937 2.91308594 C-1 1 -1 1 0 0 Z M-1 19 C-1.18046371 19.54139114 -1.36092743 20.08278229 -1.54685974 20.64057922 C-9.69790649 45.09371948 -17.84895325 69.54685974 -26 94 C-9.17 94 7.66 94 25 94 C23.74963553 88.37335988 22.5598959 83.30796537 20.75341797 77.91967773 C20.53854736 77.27462784 20.32367676 76.62957794 20.10229492 75.96498108 C19.4031911 73.86973084 18.69776945 71.77667033 17.9921875 69.68359375 C17.50140536 68.21685275 17.01102499 66.74997726 16.52102661 65.28297424 C15.2394474 61.44961071 13.95247012 57.61808141 12.66430664 53.78692627 C11.34711692 49.86621919 10.03511442 45.94377732 8.72265625 42.02148438 C6.15347134 34.34596242 3.57857313 26.67237308 1 19 C0.34 19 -0.32 19 -1 19 Z " fill="#000000" transform="translate(113,53)"/>
<path d="M0 0 C8.22268007 4.76569746 13.68086748 11.70804673 16.875 20.625 C20.04075934 32.85203457 18.58582251 45.80454492 12.421875 56.8203125 C6.78714415 65.32317211 0.15144964 71.64719006 -10 74 C-20.75113484 75.07951969 -30.5493788 74.44125739 -39.68359375 68.15234375 C-48.30254853 61.09581465 -53.29245977 51.87596916 -54.8125 40.83984375 C-55.65587494 28.06622749 -53.10289477 16.3042649 -44.625 6.4375 C-32.38355793 -6.08815465 -15.65015468 -6.94193213 0 0 Z M-41 11 C-46.64715242 18.85091922 -50.2672273 29.28459071 -49 39 C-47.36979343 48.88991983 -44.13410737 56.79347025 -36.375 63.375 C-29.52813135 68.03503608 -21.90901931 69.57138637 -13.75 68.5 C-4.57333597 66.51391626 1.63059649 61.63163951 7 54 C12.17377906 44.46770403 13.6097881 34.65134221 11.3515625 23.91796875 C8.51398954 15.24760694 3.95228608 9.27025392 -4.1875 5.0625 C-16.80960919 -0.8013145 -31.47308263 0.35500919 -41 11 Z " fill="#000000" transform="translate(333,128)"/>
<path d="M0 0 C8.53599609 6.86070714 11.77898187 15.88658108 13.65234375 26.4296875 C14.72405499 37.68265553 11.19471686 49.27891726 4.65234375 58.4296875 C-1.78452297 65.63025027 -10.01059216 70.82021892 -19.79296875 71.6328125 C-31.55371756 71.83853988 -40.6177869 68.61425123 -49.32421875 60.61328125 C-57.75886288 51.72998584 -59.73708945 41.09315488 -59.625 29.19921875 C-58.75952547 17.43607908 -54.01029533 7.53934273 -45.41015625 -0.4453125 C-32.31215174 -11.22309907 -13.51802354 -9.04200576 0 0 Z M-45.34765625 7.4296875 C-52.82856551 17.33235452 -54.42576532 27.23357864 -53.34765625 39.4296875 C-51.3489707 48.34427931 -47.1136221 56.17897715 -39.41015625 61.3046875 C-31.37950122 65.81339174 -22.75581232 66.82152866 -13.84765625 64.4921875 C-6.22037047 61.59814644 -0.13224711 55.56475439 3.65234375 48.4296875 C8.57641676 37.18957738 8.74983119 26.95941406 4.65234375 15.4296875 C1.22522796 8.82931635 -4.55018727 3.26152803 -11.53515625 0.5546875 C-24.0797789 -3.14700443 -35.73582229 -2.22261734 -45.34765625 7.4296875 Z " fill="#000000" transform="translate(508.34765625,131.5703125)"/>
<path d="M0 0 C7.71506677 6.47292722 13.57017644 14.5191911 17.3125 23.875 C17.3125 24.535 17.3125 25.195 17.3125 25.875 C-8.7575 25.875 -34.8275 25.875 -61.6875 25.875 C-60.02792842 15.91757053 -54.98714042 5.98259829 -46.6875 -0.125 C-32.15320205 -9.28258975 -14.19461285 -10.29900727 0 0 Z M-46.6875 7.875 C-49.72629284 11.60965086 -52.16189548 15.29818644 -53.6875 19.875 C-33.2275 19.875 -12.7675 19.875 8.3125 19.875 C-0.30968212 6.8366671 -0.30968212 6.8366671 -13.54296875 -0.7109375 C-25.47958489 -3.01563934 -37.56132512 -0.22360939 -46.6875 7.875 Z " fill="#000000" transform="translate(753.6875,111.125)"/>
<path d="M0 0 C2.25726011 1.89121793 3.68646424 3.37292849 5 6 C5.5811138 13.08958838 5.5811138 13.08958838 3.125 16.9375 C0.64918169 19.34050013 -0.34388577 19.91052988 -3.75 20.375 C-8.23696374 19.85727342 -9.97763301 18.30351741 -13 15 C-14.26372224 10.91148688 -14.2741007 8.79184647 -12.875 4.75 C-9.34706442 -0.42430552 -6.05641972 -1.93289991 0 0 Z " fill="#000000" transform="translate(118,8)"/>
<path d="M0 0 C2.96177577 2.06036575 4.69613631 3.54145428 5.44921875 7.15625 C5.63816556 11.0654943 5.26147267 13.49797248 3.4375 17 C0.21917807 19.64067441 -1.85931078 20 -6 20 C-9.57387602 18.41161066 -10.81089572 17.28365642 -13 14 C-13.73446576 9.43948005 -13.59262059 5.98088926 -11.1875 2 C-7.46042864 -1.4076081 -4.70403083 -1.31712863 0 0 Z " fill="#000000" transform="translate(58,162)"/>
<path d="M0 0 C2.375 1.5625 2.375 1.5625 4 4 C4.56783945 7.97487617 4.62340519 10.06489221 2.375 13.4375 C-0.75683492 15.49791771 -2.31544773 15.6767545 -6 15 C-8.9375 12.9375 -8.9375 12.9375 -11 10 C-11.06641554 6.14789873 -10.87229157 4.00151995 -8.3125 1.0625 C-5.26397123 -0.33817538 -3.32073048 -0.4842732 0 0 Z " fill="#000000" transform="translate(606,18)"/>
<path d="M0 0 C2.375 1.5 2.375 1.5 4 4 C4.60891847 6.70401084 4.81444126 9.21661895 5 12 C4.0409375 12.2165625 4.0409375 12.2165625 3.0625 12.4375 C1.02454854 12.81007181 1.02454854 12.81007181 0 14 C-4.66478085 14.42407099 -7.18464006 13.69319525 -11 11 C-10.40298507 3.71641791 -10.40298507 3.71641791 -8.875 1 C-5.79968313 -0.640169 -3.40757541 -0.41847417 0 0 Z " fill="#000000" transform="translate(260,90)"/>
<path d="M0 0 C3.41632385 0.56938731 4.71839856 0.89245549 7 3.5 C7.92376995 6.16108729 8.45338538 8.72137568 9 11.5 C4.89610799 14.48464873 2.03483202 14.957712 -3 14.5 C-5.4375 13.5 -5.4375 13.5 -7 12.5 C-7.31390173 8.497753 -7.34116018 6.11671263 -5.375 2.5625 C-3 0.5 -3 0.5 0 0 Z " fill="#000000" transform="translate(427,89.5)"/>
<path d="M0 0 C2.4375 1.625 2.4375 1.625 4 4 C4.60605429 7.63632575 4.47161336 9.28314769 2.4375 12.375 C-0.8994213 14.5996142 -3.06905293 14.50030235 -7 14 C-8.9375 13 -8.9375 13 -10 11 C-10.52960415 7.41957756 -10.65886567 4.24021772 -8.9375 1 C-5.82090489 -0.60856522 -3.43737531 -0.42213381 0 0 Z " fill="#000000" transform="translate(675,142)"/>
<path d="M0 0 C0.556875 0.309375 1.11375 0.61875 1.6875 0.9375 C4.24535838 2.11273223 6.18366852 2.79392696 9 3 C11.78307606 1.66457328 11.78307606 1.66457328 14 0 C14 4 14 4 12.46875 5.703125 C11.49421875 6.46882813 11.49421875 6.46882813 10.5 7.25 C9.8503125 7.77078125 9.200625 8.2915625 8.53125 8.828125 C7.77328125 9.40820312 7.77328125 9.40820312 7 10 C5.84775972 9.07038578 4.70340824 8.1309875 3.5625 7.1875 C2.60537109 6.40439453 2.60537109 6.40439453 1.62890625 5.60546875 C0 4 0 4 -1 1 C-0.67 0.67 -0.34 0.34 0 0 Z " fill="#000000" transform="translate(250,275)"/>
<path d="M0 0 C3.41021743 0.78697325 6.68885166 1.87119943 10 3 C10.99 2.01 11.98 1.02 13 0 C13.99 0.33 14.98 0.66 16 1 C15.09515208 2.15518918 14.1755794 3.29885406 13.25 4.4375 C12.73953125 5.07558594 12.2290625 5.71367187 11.703125 6.37109375 C9.75047378 8.23865237 8.6982409 8.85770995 6 9 C4.296875 7.890625 4.296875 7.890625 2.75 6.25 C1.96882812 5.45335937 1.96882812 5.45335937 1.171875 4.640625 C0 3 0 3 0 0 Z " fill="#000000" transform="translate(595,204)"/>
<path d="M0 0 C1.6254308 0.14095064 3.25034051 0.28792087 4.875 0.4375 C5.77992188 0.51871094 6.68484375 0.59992188 7.6171875 0.68359375 C10 1 10 1 12 2 C11.34 5.63 10.68 9.26 10 13 C9.01 13 8.02 13 7 13 C7.33 11.02 7.66 9.04 8 7 C7.01 6.67 6.02 6.34 5 6 C5 5.01 5 4.02 5 3 C3.35 3 1.7 3 0 3 C0 2.01 0 1.02 0 0 Z " fill="#000000" transform="translate(772,188)"/>
<path d="M0 0 C0.99 0.33 1.98 0.66 3 1 C1.68 4.3 0.36 7.6 -1 11 C-5.34862851 10.1302743 -8.16270693 9.0525056 -12 7 C-11.67 6.01 -11.34 5.02 -11 4 C-8.525 4.99 -8.525 4.99 -6 6 C-6 5.34 -6 4.68 -6 4 C-4.68 4 -3.36 4 -2 4 C-1.34 2.68 -0.68 1.36 0 0 Z " fill="#000000" transform="translate(187,203)"/>
<path d="M0 0 C3.41021743 0.78697325 6.68885166 1.87119943 10 3 C10.6496875 2.2575 10.6496875 2.2575 11.3125 1.5 C13 0 13 0 16 0 C14.44499019 3.81684226 11.96404505 6.19195732 9 9 C5.18063472 7.44396229 2.73955562 5.04395069 0 2 C0 1.34 0 0.68 0 0 Z " fill="#000000" transform="translate(420,276)"/>
<path d="M0 0 C8.57142857 -0.14285714 8.57142857 -0.14285714 12 1 C11.67 1.99 11.34 2.98 11 4 C9.35 4 7.7 4 6 4 C5.67 4.66 5.34 5.32 5 6 C4.34 6 3.68 6 3 6 C2.34 7.98 1.68 9.96 1 12 C0.34 11.67 -0.32 11.34 -1 11 C-0.67 7.37 -0.34 3.74 0 0 Z " fill="#000000" transform="translate(438,201)"/>
<path d="M0 0 C3.63 0 7.26 0 11 0 C11.33 0.99 11.66 1.98 12 3 C10.02 3 8.04 3 6 3 C5.67 3.99 5.34 4.98 5 6 C4.34 6.66 3.68 7.32 3 8 C2.67 8.99 2.34 9.98 2 11 C1.01 10.67 0.02 10.34 -1 10 C-0.67 6.7 -0.34 3.4 0 0 Z " fill="#000000" transform="translate(267,201)"/>
<path d="M0 0 C0.66 0 1.32 0 2 0 C2.5345256 1.24420647 3.05208611 2.49570936 3.5625 3.75 C3.85253906 4.44609375 4.14257812 5.1421875 4.44140625 5.859375 C5.07831803 8.30012784 4.80248831 9.6403655 4 12 C3.34 12 2.68 12 2 12 C1.67 10.35 1.34 8.7 1 7 C-0.32 7 -1.64 7 -3 7 C-3 6.01 -3 5.02 -3 4 C-2.34 4 -1.68 4 -1 4 C-0.67 2.68 -0.34 1.36 0 0 Z " fill="#000000" transform="translate(167,165)"/>
<path d="M0 0 C0.99 0 1.98 0 3 0 C1.66666667 4 0.33333333 8 -1 12 C-1.99 11.67 -2.98 11.34 -4 11 C-3.5247412 9.35303396 -3.04468109 7.70745272 -2.5625 6.0625 C-2.29566406 5.14597656 -2.02882812 4.22945312 -1.75390625 3.28515625 C-1 1 -1 1 0 0 Z " fill="#000000" transform="translate(46,186)"/>
<path d="M0 0 C0.99 0 1.98 0 3 0 C3 3.96 3 7.92 3 12 C2.01 12 1.02 12 0 12 C0 8.04 0 4.08 0 0 Z " fill="#000000" transform="translate(256,214)"/>
<path d="M0 0 C3.72433382 1.2125738 7.37802806 2.50859979 11 4 C10.67 4.99 10.34 5.98 10 7 C5.87248551 6.39301257 2.6678852 4.96189209 -1 3 C-0.67 2.01 -0.34 1.02 0 0 Z " fill="#000000" transform="translate(451,211)"/>
<path d="M0 0 C0.99 0 1.98 0 3 0 C3 3.96 3 7.92 3 12 C2.01 12 1.02 12 0 12 C0 8.04 0 4.08 0 0 Z " fill="#000000" transform="translate(256,193)"/>
<path d="M0 0 C0.99 0.33 1.98 0.66 3 1 C3.94921875 3.28515625 3.94921875 3.28515625 4.6875 6.0625 C4.93886719 6.98160156 5.19023437 7.90070313 5.44921875 8.84765625 C5.63097656 9.55792969 5.81273437 10.26820313 6 11 C5.01 11.33 4.02 11.66 3 12 C2.49166409 10.75336669 1.99368855 9.50250613 1.5 8.25 C1.2215625 7.55390625 0.943125 6.8578125 0.65625 6.140625 C0 4 0 4 0 0 Z " fill="#000000" transform="translate(174,186)"/>
<path d="M0 0 C0.99 0 1.98 0 3 0 C3 3.96 3 7.92 3 12 C2.01 12 1.02 12 0 12 C0 8.04 0 4.08 0 0 Z " fill="#000000" transform="translate(256,172)"/>
<path d="M0 0 C0.99 0 1.98 0 3 0 C3 3.96 3 7.92 3 12 C2.01 12 1.02 12 0 12 C0 8.04 0 4.08 0 0 Z " fill="#000000" transform="translate(256,151)"/>
<path d="M0 0 C0.99 0 1.98 0 3 0 C3 3.96 3 7.92 3 12 C2.01 12 1.02 12 0 12 C0 8.04 0 4.08 0 0 Z " fill="#000000" transform="translate(256,130)"/>
<path d="M0 0 C3.1744176 1.09462676 3.98914157 1.98177335 5.75 4.9375 C7 8 7 8 7 11 C6.01 11 5.02 11 4 11 C3.32591692 9.73308493 2.66099503 8.46129251 2 7.1875 C1.62875 6.47980469 1.2575 5.77210937 0.875 5.04296875 C0 3 0 3 0 0 Z " fill="#000000" transform="translate(781,122)"/>
<path d="M0 0 C0.99 0 1.98 0 3 0 C3 3.96 3 7.92 3 12 C2.01 12 1.02 12 0 12 C0 8.04 0 4.08 0 0 Z " fill="#000000" transform="translate(256,109)"/>
<path d="M0 0 C1.12894876 0.93274109 2.25300876 1.87140122 3.375 2.8125 C4.00148438 3.33457031 4.62796875 3.85664062 5.2734375 4.39453125 C7 6 7 6 9 9 C8.01 9.66 7.02 10.32 6 11 C4.80040625 9.74057614 3.61560557 8.46704714 2.4375 7.1875 C1.44556641 6.12595703 1.44556641 6.12595703 0.43359375 5.04296875 C-0.03949219 4.36878906 -0.51257813 3.69460937 -1 3 C-0.67 2.01 -0.34 1.02 0 0 Z " fill="#000000" transform="translate(768,104)"/>
<path d="M0 0 C4.10958767 1.45044271 7.43258745 3.51110752 11 6 C10.67 6.66 10.34 7.32 10 8 C6.2089881 6.55049545 2.6125362 4.84827434 -1 3 C-0.67 2.01 -0.34 1.02 0 0 Z " fill="#000000" transform="translate(750,91)"/>
<path d="M0 0 C0.99 0.33 1.98 0.66 3 1 C3 4.63 3 8.26 3 12 C2.01 12 1.02 12 0 12 C0 8.04 0 4.08 0 0 Z " fill="#000000" transform="translate(256,256)"/>
<path d="M0 0 C0.99 0.33 1.98 0.66 3 1 C3 4.63 3 8.26 3 12 C2.01 12 1.02 12 0 12 C0 8.04 0 4.08 0 0 Z " fill="#000000" transform="translate(256,235)"/>
<path d="M0 0 C-2.47585238 2.65269897 -4.59026101 4.68010103 -8 6 C-8.99 6 -9.98 6 -11 6 C-11 5.01 -11 4.02 -11 3 C-9.73581754 2.30034557 -8.46334598 1.61565237 -7.1875 0.9375 C-6.47980469 0.55464844 -5.77210938 0.17179688 -5.04296875 -0.22265625 C-3 -1 -3 -1 0 0 Z " fill="#000000" transform="translate(522,209)"/>
<path d="M0 0 C0.66 0.33 1.32 0.66 2 1 C0.52440331 5.42679007 -1.90057368 5.91432696 -6 8 C-6.66 8 -7.32 8 -8 8 C-8.33 7.01 -8.66 6.02 -9 5 C-7.54735962 4.1361871 -6.0876837 3.28419546 -4.625 2.4375 C-3.40683594 1.72400391 -3.40683594 1.72400391 -2.1640625 0.99609375 C-1.44992187 0.66738281 -0.73578125 0.33867187 0 0 Z " fill="#000000" transform="translate(349,207)"/>
<path d="M0 0 C0.99 0 1.98 0 3 0 C3 3.96 3 7.92 3 12 C2.01 11.67 1.02 11.34 0 11 C0 7.37 0 3.74 0 0 Z " fill="#000000" transform="translate(601,185)"/>
<path d="M0 0 C0.99 0 1.98 0 3 0 C3 3.96 3 7.92 3 12 C2.01 11.67 1.02 11.34 0 11 C0 7.37 0 3.74 0 0 Z " fill="#000000" transform="translate(601,102)"/>
<path d="M0 0 C3.63 0.33 7.26 0.66 11 1 C11 1.99 11 2.98 11 4 C7.04 3.67 3.08 3.34 -1 3 C-0.67 2.01 -0.34 1.02 0 0 Z " fill="#000000" transform="translate(471,218)"/>
<path d="M0 0 C0.33 0.99 0.66 1.98 1 3 C-3.1196377 4.29243536 -6.66831683 5.26252625 -11 5 C-11 4.01 -11 3.02 -11 2 C-9.5422647 1.664061 -8.08378894 1.33133376 -6.625 1 C-5.40683594 0.7215625 -5.40683594 0.7215625 -4.1640625 0.4375 C-2 0 -2 0 0 0 Z " fill="#000000" transform="translate(502,216)"/>
<path d="M0 0 C4.12751449 0.60698743 7.3321148 2.03810791 11 4 C10.67 4.99 10.34 5.98 10 7 C5.05 5.02 5.05 5.02 0 3 C0 2.01 0 1.02 0 0 Z " fill="#000000" transform="translate(280,211)"/>
<path d="M0 0 C0.99 0.33 1.98 0.66 3 1 C1.4705003 4.44137432 -0.45369552 7.2222133 -3 10 C-3.99 10 -4.98 10 -6 10 C-4.34832443 6.4213696 -2.21713508 3.25179812 0 0 Z " fill="#000000" transform="translate(534,193)"/>
<path d="M0 0 C0.66 0.33 1.32 0.66 2 1 C0.68775452 4.93673644 -0.91910327 7.22719294 -4 10 C-4.99 9.67 -5.98 9.34 -7 9 C-6.02180976 7.68677212 -5.0424189 6.37443848 -4.0625 5.0625 C-3.51722656 4.33160156 -2.97195313 3.60070312 -2.41015625 2.84765625 C-1 1 -1 1 0 0 Z " fill="#000000" transform="translate(364,193)"/>
<path d="M0 0 C0.99 0.33 1.98 0.66 3 1 C2.01 4.3 1.02 7.6 0 11 C-0.99 11 -1.98 11 -3 11 C-2.69078116 9.54096742 -2.37751201 8.08279278 -2.0625 6.625 C-1.88847656 5.81289062 -1.71445312 5.00078125 -1.53515625 4.1640625 C-1 2 -1 2 0 0 Z " fill="#000000" transform="translate(372,174)"/>
<path d="M0 0 C0.66 0 1.32 0 2 0 C2.67154933 1.28913487 3.33708859 2.58140204 4 3.875 C4.37125 4.59429687 4.7425 5.31359375 5.125 6.0546875 C6 8 6 8 6 10 C5.01 10.33 4.02 10.66 3 11 C2.30034557 9.73581754 1.61565237 8.46334598 0.9375 7.1875 C0.55464844 6.47980469 0.17179687 5.77210938 -0.22265625 5.04296875 C-1 3 -1 3 0 0 Z " fill="#000000" transform="translate(367,135)"/>
<path d="M0 0 C0.99 0 1.98 0 3 0 C3 3.63 3 7.26 3 11 C2.01 11 1.02 11 0 11 C0 7.37 0 3.74 0 0 Z " fill="#000000" transform="translate(426,257)"/>
<path d="M0 0 C0.99 0 1.98 0 3 0 C3 3.63 3 7.26 3 11 C2.01 11 1.02 11 0 11 C0 7.37 0 3.74 0 0 Z " fill="#000000" transform="translate(426,236)"/>
<path d="M0 0 C0 0.99 0 1.98 0 3 C-3.63 3.66 -7.26 4.32 -11 5 C-11 4.01 -11 3.02 -11 2 C-7.12315913 0.80712589 -4.08378077 0 0 0 Z " fill="#000000" transform="translate(332,216)"/>
<path d="M0 0 C0.99 0 1.98 0 3 0 C3 3.63 3 7.26 3 11 C2.01 11 1.02 11 0 11 C0 7.37 0 3.74 0 0 Z " fill="#000000" transform="translate(426,215)"/>
<path d="M0 0 C0.99 0 1.98 0 3 0 C3 3.63 3 7.26 3 11 C2.01 11 1.02 11 0 11 C0 7.37 0 3.74 0 0 Z " fill="#000000" transform="translate(426,194)"/>
<path d="M0 0 C0.99 0 1.98 0 3 0 C4.32 2.97 5.64 5.94 7 9 C5.68 9 4.36 9 3 9 C0 3.375 0 3.375 0 0 Z " fill="#000000" transform="translate(677,181)"/>
<path d="M0 0 C0.99 0 1.98 0 3 0 C2.34 3.3 1.68 6.6 1 10 C-0.32 10 -1.64 10 -3 10 C-2.01 6.7 -1.02 3.4 0 0 Z " fill="#000000" transform="translate(542,175)"/>
<path d="M0 0 C0.99 0 1.98 0 3 0 C3 3.63 3 7.26 3 11 C2.01 11 1.02 11 0 11 C0 7.37 0 3.74 0 0 Z " fill="#000000" transform="translate(426,173)"/>
<path d="M0 0 C3.63 0 7.26 0 11 0 C11 0.99 11 1.98 11 3 C7.37 3 3.74 3 0 3 C0 2.01 0 1.02 0 0 Z " fill="#000000" transform="translate(125,169)"/>
<path d="M0 0 C0.99 0 1.98 0 3 0 C3 3.63 3 7.26 3 11 C2.01 11 1.02 11 0 11 C0 7.37 0 3.74 0 0 Z " fill="#000000" transform="translate(601,165)"/>
<path d="M0 0 C0.99 0 1.98 0 3 0 C3 3.63 3 7.26 3 11 C2.01 11 1.02 11 0 11 C0 7.37 0 3.74 0 0 Z " fill="#000000" transform="translate(543,154)"/>
<path d="M0 0 C0.99 0 1.98 0 3 0 C4.20272819 2.40545638 4.10071472 3.94996953 4.0625 6.625 C4.05347656 7.44226563 4.04445313 8.25953125 4.03515625 9.1015625 C4.02355469 9.72804687 4.01195312 10.35453125 4 11 C3.01 11 2.02 11 1 11 C0.67 7.37 0.34 3.74 0 0 Z " fill="#000000" transform="translate(372,154)"/>
<path d="M0 0 C0.99 0 1.98 0 3 0 C3 3.63 3 7.26 3 11 C2.01 11 1.02 11 0 11 C0 7.37 0 3.74 0 0 Z " fill="#000000" transform="translate(426,152)"/>
<path d="M0 0 C0.66 0 1.32 0 2 0 C2.99 3.63 3.98 7.26 5 11 C4.01 11 3.02 11 2 11 C-1.07692308 4.6 -1.07692308 4.6 -0.6875 1.5625 C-0.460625 1.046875 -0.23375 0.53125 0 0 Z " fill="#000000" transform="translate(160,146)"/>
<path d="M0 0 C0.99 0 1.98 0 3 0 C3 3.63 3 7.26 3 11 C2.01 11 1.02 11 0 11 C0 7.37 0 3.74 0 0 Z " fill="#000000" transform="translate(601,144)"/>
<path d="M0 0 C0.99 0 1.98 0 3 0 C5.03435531 3.72965139 6 5.66905042 6 10 C5.01 10 4.02 10 3 10 C0 3.375 0 3.375 0 0 Z " fill="#000000" transform="translate(537,136)"/>
<path d="M0 0 C0.99 0 1.98 0 3 0 C3 3.63 3 7.26 3 11 C2.01 11 1.02 11 0 11 C0 7.37 0 3.74 0 0 Z " fill="#000000" transform="translate(426,131)"/>
<path d="M0 0 C0.99 0 1.98 0 3 0 C3 3.63 3 7.26 3 11 C2.01 11 1.02 11 0 11 C0 7.37 0 3.74 0 0 Z " fill="#000000" transform="translate(601,123)"/>
<path d="M0 0 C0.99 0 1.98 0 3 0 C3 3.63 3 7.26 3 11 C2.01 11 1.02 11 0 11 C0 7.37 0 3.74 0 0 Z " fill="#000000" transform="translate(426,110)"/>
<path d="M0 0 C0.99 0 1.98 0 3 0 C3.99 3.3 4.98 6.6 6 10 C5.01 10.33 4.02 10.66 3 11 C2.49384702 9.73160474 1.99530901 8.46016898 1.5 7.1875 C1.2215625 6.47980469 0.943125 5.77210937 0.65625 5.04296875 C0 3 0 3 0 0 Z " fill="#000000" transform="translate(145,109)"/>
<path d="M0 0 C0.99 0.33 1.98 0.66 3 1 C0.19195732 3.96404505 -2.18315774 6.44499019 -6 8 C-6 6.68 -6 5.36 -6 4 C-3.1875 1.6875 -3.1875 1.6875 0 0 Z " fill="#000000" transform="translate(699,93)"/>
<path d="M0 0 C0.99 0 1.98 0 3 0 C3.99 3.3 4.98 6.6 6 10 C5.01 10.33 4.02 10.66 3 11 C2.49384702 9.73160474 1.99530901 8.46016898 1.5 7.1875 C1.2215625 6.47980469 0.943125 5.77210937 0.65625 5.04296875 C0 3 0 3 0 0 Z " fill="#000000" transform="translate(138,90)"/>
<path d="M0 0 C0 0.99 0 1.98 0 3 C-3.3 3.66 -6.6 4.32 -10 5 C-10.33 4.01 -10.66 3.02 -11 2 C-7.17679443 0.57741188 -4.08718695 -0.24042276 0 0 Z " fill="#000000" transform="translate(720,87)"/>
<path d="M0 0 C3.63 0.33 7.26 0.66 11 1 C11 1.99 11 2.98 11 4 C7.37 3.67 3.74 3.34 0 3 C0 2.01 0 1.02 0 0 Z " fill="#000000" transform="translate(729,86)"/>
<path d="M0 0 C0.99 0 1.98 0 3 0 C3 3.63 3 7.26 3 11 C2.01 11 1.02 11 0 11 C0 7.37 0 3.74 0 0 Z " fill="#000000" transform="translate(601,82)"/>
<path d="M0 0 C0.99 0 1.98 0 3 0 C3.99 3.3 4.98 6.6 6 10 C5.01 10.33 4.02 10.66 3 11 C0 4.5 0 4.5 0 0 Z " fill="#000000" transform="translate(131,71)"/>
<path d="M0 0 C0.99 0 1.98 0 3 0 C3 3.63 3 7.26 3 11 C2.01 11 1.02 11 0 11 C0 7.37 0 3.74 0 0 Z " fill="#000000" transform="translate(601,61)"/>
<path d="M0 0 C0.99 0 1.98 0 3 0 C3.99 3.3 4.98 6.6 6 10 C5.01 10.33 4.02 10.66 3 11 C0 4.5 0 4.5 0 0 Z " fill="#000000" transform="translate(124,52)"/>
<path d="M0 0 C0.99 0 1.98 0 3 0 C3 3.63 3 7.26 3 11 C2.01 11 1.02 11 0 11 C0 7.37 0 3.74 0 0 Z " fill="#000000" transform="translate(601,40)"/>
<path d="M0 0 C0.99 0.33 1.98 0.66 3 1 C3.94921875 3.06640625 3.94921875 3.06640625 4.6875 5.5625 C4.93886719 6.38878906 5.19023438 7.21507812 5.44921875 8.06640625 C5.63097656 8.70449219 5.81273438 9.34257813 6 10 C5.01 10.33 4.02 10.66 3 11 C0 4.5 0 4.5 0 0 Z " fill="#000000" transform="translate(117,33)"/>
<path d="M0 0 C0.99 0 1.98 0 3 0 C2.44894091 3.9492568 1.61064629 7.34920174 0 11 C-0.99 10.67 -1.98 10.34 -3 10 C-2.01 6.7 -1.02 3.4 0 0 Z " fill="#000000" transform="translate(105,33)"/>
<path d="M0 0 C3.63 0 7.26 0 11 0 C11 0.99 11 1.98 11 3 C7.7 3 4.4 3 1 3 C0.67 2.01 0.34 1.02 0 0 Z " fill="#000000" transform="translate(300,218)"/>
<path d="M0 0 C3.63 0 7.26 0 11 0 C10.67 0.99 10.34 1.98 10 3 C6.7 3 3.4 3 0 3 C0 2.01 0 1.02 0 0 Z " fill="#000000" transform="translate(723,212)"/>
<path d="M0 0 C-0.33 0.99 -0.66 1.98 -1 3 C-3.06640625 3.73046875 -3.06640625 3.73046875 -5.5625 4.1875 C-6.38878906 4.34605469 -7.21507812 4.50460938 -8.06640625 4.66796875 C-9.02353516 4.83232422 -9.02353516 4.83232422 -10 5 C-10.33 4.01 -10.66 3.02 -11 2 C-9.54494642 1.47007308 -8.08581873 0.9513211 -6.625 0.4375 C-5.81289063 0.14746094 -5.00078125 -0.14257812 -4.1640625 -0.44140625 C-2 -1 -2 -1 0 0 Z " fill="#000000" transform="translate(753,207)"/>
<path d="M0 0 C-3.01887244 3.48331435 -5.56909529 4.79157144 -10 6 C-9.875 4.1875 -9.875 4.1875 -9 2 C-3.81203008 -1.27067669 -3.81203008 -1.27067669 0 0 Z " fill="#000000" transform="translate(771,199)"/>
<path d="M0 0 C2.64 1.98 5.28 3.96 8 6 C7.67 6.99 7.34 7.98 7 9 C3.63408134 7.55746343 1.48952921 5.66735273 -1 3 C-0.67 2.01 -0.34 1.02 0 0 Z " fill="#000000" transform="translate(689,197)"/>
<path d="M0 0 C3.3 0 6.6 0 10 0 C10 0.99 10 1.98 10 3 C6.37 3 2.74 3 -1 3 C-0.67 2.01 -0.34 1.02 0 0 Z " fill="#000000" transform="translate(145,169)"/>
<path d="M0 0 C0.66 0 1.32 0 2 0 C3.19287411 3.87684087 4 6.91621923 4 11 C3.01 11 2.02 11 1 11 C0.63890458 9.35567294 0.28629924 7.7094792 -0.0625 6.0625 C-0.25972656 5.14597656 -0.45695313 4.22945312 -0.66015625 3.28515625 C-0.77230469 2.53105469 -0.88445313 1.77695313 -1 1 C-0.67 0.67 -0.34 0.34 0 0 Z " fill="#000000" transform="translate(672,162)"/>
<path d="M0 0 C0.99 0.33 1.98 0.66 3 1 C2.01 4.3 1.02 7.6 0 11 C-0.99 11 -1.98 11 -3 11 C-2.44894091 7.0507432 -1.61064629 3.65079826 0 0 Z " fill="#000000" transform="translate(61,146)"/>
<path d="M0 0 C0.99 0 1.98 0 3 0 C3.99 3.3 4.98 6.6 6 10 C5.01 10 4.02 10 3 10 C0 3.375 0 3.375 0 0 Z " fill="#000000" transform="translate(152,128)"/>
<path d="M0 0 C0.66 0.33 1.32 0.66 2 1 C1.49287967 4.71888239 0.88391785 7.73454239 -1 11 C-1.99 11 -2.98 11 -4 11 C-3.5247412 9.35303396 -3.04468109 7.70745272 -2.5625 6.0625 C-2.29566406 5.14597656 -2.02882813 4.22945312 -1.75390625 3.28515625 C-1 1 -1 1 0 0 Z " fill="#000000" transform="translate(69,127)"/>
<path d="M0 0 C0 0.99 0 1.98 0 3 C-6.625 6 -6.625 6 -10 6 C-10 5.01 -10 4.02 -10 3 C-8.70990357 2.49596232 -7.41786211 1.99690074 -6.125 1.5 C-5.04605469 1.08234375 -5.04605469 1.08234375 -3.9453125 0.65625 C-2 0 -2 0 0 0 Z " fill="#000000" transform="translate(291,112)"/>
<path d="M0 0 C0.66 0.33 1.32 0.66 2 1 C1.67 1.99 1.34 2.98 1 4 C-1.06640625 4.94921875 -1.06640625 4.94921875 -3.5625 5.6875 C-4.38878906 5.93886719 -5.21507812 6.19023438 -6.06640625 6.44921875 C-6.70449219 6.63097656 -7.34257812 6.81273438 -8 7 C-8.33 6.01 -8.66 5.02 -9 4 C-7.54618103 3.30300448 -6.08677047 2.61766134 -4.625 1.9375 C-3.40683594 1.36322266 -3.40683594 1.36322266 -2.1640625 0.77734375 C-1.44992187 0.52082031 -0.73578125 0.26429687 0 0 Z " fill="#000000" transform="translate(460,112)"/>
<path d="M0 0 C2.97 0.99 5.94 1.98 9 3 C9 3.99 9 4.98 9 6 C5.44219804 5.39009109 2.3171411 4.4216319 -1 3 C-0.67 2.01 -0.34 1.02 0 0 Z " fill="#000000" transform="translate(338,111)"/>
<path d="M0 0 C0.33 0.99 0.66 1.98 1 3 C-2.63 3.66 -6.26 4.32 -10 5 C-9.67 3.68 -9.34 2.36 -9 1 C-5.94152152 0.45627049 -3.11227195 0 0 0 Z " fill="#000000" transform="translate(480,108)"/>
<path d="M0 0 C0.99 0 1.98 0 3 0 C2.54917531 1.46067199 2.08906463 2.91848032 1.625 4.375 C1.36976562 5.18710938 1.11453125 5.99921875 0.8515625 6.8359375 C0 9 0 9 -2 11 C-3.14947895 7.44706507 -3.0868937 6.20023331 -1.5625 2.6875 C-1.046875 1.800625 -0.53125 0.91375 0 0 Z " fill="#000000" transform="translate(76,109)"/>
<path d="M0 0 C1.45823212 -0.0270043 2.91660675 -0.04639787 4.375 -0.0625 C5.18710937 -0.07410156 5.99921875 -0.08570312 6.8359375 -0.09765625 C9 0 9 0 11 1 C10.67 1.99 10.34 2.98 10 4 C6.7 3.67 3.4 3.34 0 3 C0 2.01 0 1.02 0 0 Z " fill="#000000" transform="translate(489,108)"/>
<path d="M0 0 C0 0.99 0 1.98 0 3 C-3.3 3.33 -6.6 3.66 -10 4 C-10.33 3.01 -10.66 2.02 -11 1 C-7.26562152 0.12132271 -3.83225427 -0.08912219 0 0 Z " fill="#000000" transform="translate(310,108)"/>
<path d="M0 0 C0.99 0 1.98 0 3 0 C2.39009109 3.55780196 1.4216319 6.6828589 0 10 C-0.99 10 -1.98 10 -3 10 C-2.39009109 6.44219804 -1.4216319 3.3171411 0 0 Z " fill="#000000" transform="translate(83,90)"/>
<path d="M0 0 C0.99 0.33 1.98 0.66 3 1 C1.68 4.3 0.36 7.6 -1 11 C-1.99 10.34 -2.98 9.68 -4 9 C-2.68 6.03 -1.36 3.06 0 0 Z " fill="#000000" transform="translate(91,71)"/>
<path d="M0 0 C0.99 0 1.98 0 3 0 C2.01 3.3 1.02 6.6 0 10 C-0.99 10 -1.98 10 -3 10 C-2.49287967 6.28111761 -1.88391785 3.26545761 0 0 Z " fill="#000000" transform="translate(98,52)"/>
<path d="M0 0 C3.3 0.99 6.6 1.98 10 3 C10 3.99 10 4.98 10 6 C5.545 5.01 5.545 5.01 1 4 C0.67 2.68 0.34 1.36 0 0 Z " fill="#000000" transform="translate(704,208)"/>
<path d="M0 0 C0.99 0.66 1.98 1.32 3 2 C2.01 4.97 1.02 7.94 0 11 C-0.99 11 -1.98 11 -3 11 C-2.69078116 9.54096742 -2.37751201 8.08279278 -2.0625 6.625 C-1.88847656 5.81289062 -1.71445312 5.00078125 -1.53515625 4.1640625 C-1 2 -1 2 0 0 Z " fill="#000000" transform="translate(676,123)"/>
<path d="M0 0 C3.36591866 1.44253657 5.51047079 3.33264727 8 6 C7.67 6.99 7.34 7.98 7 9 C5.82460004 8.07347299 4.65989423 7.13336613 3.5 6.1875 C2.52546875 5.40439453 2.52546875 5.40439453 1.53125 4.60546875 C0 3 0 3 0 0 Z " fill="#000000" transform="translate(525,121)"/>
<path d="M0 0 C4.455 1.98 4.455 1.98 9 4 C8.67 4.99 8.34 5.98 8 7 C3.545 5.02 3.545 5.02 -1 3 C-0.67 2.01 -0.34 1.02 0 0 Z " fill="#000000" transform="translate(509,111)"/>
<path d="M0 0 C0.99 0 1.98 0 3 0 C2.38545304 3.99455527 0.29353263 6.74466336 -2 10 C-2.66 9.67 -3.32 9.34 -4 9 C-2.94124926 5.59687262 -1.99097846 2.98646769 0 0 Z " fill="#000000" transform="translate(684,106)"/>
<path d="M0 0 C3.3 0 6.6 0 10 0 C10 0.99 10 1.98 10 3 C6.7 3 3.4 3 0 3 C0 2.01 0 1.02 0 0 Z " fill="#000000" transform="translate(106,169)"/>
<path d="M0 0 C3.3 0 6.6 0 10 0 C10 0.99 10 1.98 10 3 C6.7 3 3.4 3 0 3 C0 2.01 0 1.02 0 0 Z " fill="#000000" transform="translate(87,169)"/>
<path d="M0 0 C3.3 0 6.6 0 10 0 C10 0.99 10 1.98 10 3 C6.7 3 3.4 3 0 3 C0 2.01 0 1.02 0 0 Z " fill="#000000" transform="translate(68,169)"/>
<path d="M0 0 C0.99 0 1.98 0 3 0 C3.33 2.31 3.66 4.62 4 7 C1.69 7 -0.62 7 -3 7 C-3 6.34 -3 5.68 -3 5 C-2.01 4.67 -1.02 4.34 0 4 C0 2.68 0 1.36 0 0 Z " fill="#000000" transform="translate(790,142)"/>
<path d="M0 0 C2.37948772 0.17625835 3.70225849 0.69719773 5.37890625 2.40234375 C6.62115486 3.90649092 7.81376056 5.45129851 9 7 C5 7 5 7 2.25 4.625 C0 2 0 2 0 0 Z " fill="#000000" transform="translate(354,121)"/>
<path d="M0 0 C3.3 0.33 6.6 0.66 10 1 C10 1.99 10 2.98 10 4 C6.7 3.67 3.4 3.34 0 3 C0 2.01 0 1.02 0 0 Z " fill="#000000" transform="translate(319,107)"/>
<path d="M0 0 C3.63 0 7.26 0 11 0 C11 0.66 11 1.32 11 2 C7.37 2 3.74 2 0 2 C0 1.34 0 0.68 0 0 Z " fill="#000000" transform="translate(767,147)"/>
<path d="M0 0 C3.63 0 7.26 0 11 0 C11 0.66 11 1.32 11 2 C7.37 2 3.74 2 0 2 C0 1.34 0 0.68 0 0 Z " fill="#000000" transform="translate(747,147)"/>
<path d="M0 0 C3.63 0 7.26 0 11 0 C11 0.66 11 1.32 11 2 C7.37 2 3.74 2 0 2 C0 1.34 0 0.68 0 0 Z " fill="#000000" transform="translate(727,147)"/>
<path d="M0 0 C3.63 0 7.26 0 11 0 C11 0.66 11 1.32 11 2 C7.37 2 3.74 2 0 2 C0 1.34 0 0.68 0 0 Z " fill="#000000" transform="translate(707,147)"/>
<path d="M0 0 C3.63 0 7.26 0 11 0 C11 0.66 11 1.32 11 2 C7.37 2 3.74 2 0 2 C0 1.34 0 0.68 0 0 Z " fill="#000000" transform="translate(687,147)"/>
<path d="M0 0 C0.99 0.33 1.98 0.66 3 1 C2.34 2.65 1.68 4.3 1 6 C0.01 6 -0.98 6 -2 6 C-1.125 1.125 -1.125 1.125 0 0 Z " fill="#000000" transform="translate(38,207)"/>
<path d="M0 0 C-0.33 1.32 -0.66 2.64 -1 4 C-2.32 4.33 -3.64 4.66 -5 5 C-5 4.01 -5 3.02 -5 2 C-2 0 -2 0 0 0 Z " fill="#000000" transform="translate(444,120)"/>
<path d="M0 0 C0.99 0.33 1.98 0.66 3 1 C3 1.66 3 2.32 3 3 C1.35 3.66 -0.3 4.32 -2 5 C-2 3.68 -2 2.36 -2 1 C-1.34 0.67 -0.68 0.34 0 0 Z " fill="#000000" transform="translate(271,120)"/>
</svg>
