<?xml version="1.0" encoding="UTF-8"?>
<svg version="1.1" xmlns="http://www.w3.org/2000/svg" width="633" height="216">
<path d="M0 0 C3.67049938 2.34338071 6.92304032 4.92304032 10 8 C10.24050903 11.04983521 10.24050903 11.04983521 10.22705078 15.02001953 C10.22734283 15.74207581 10.22763489 16.46413208 10.22793579 17.20806885 C10.22654008 19.59977142 10.21096783 21.99116421 10.1953125 24.3828125 C10.19158322 26.0390506 10.18873585 27.69529089 10.18673706 29.35153198 C10.17909389 33.7147224 10.1594396 38.07778007 10.1373291 42.44091797 C10.11688535 46.89158329 10.1077385 51.34227003 10.09765625 55.79296875 C10.07619429 64.52870681 10.04205018 73.2643369 10 82 C12.07728434 80.40619714 14.1540273 78.81169722 16.23046875 77.21679688 C16.81437378 76.76890808 17.39827881 76.32101929 17.99987793 75.85955811 C22.39646486 72.48131535 26.72077196 69.02581867 31 65.5 C36.95891198 60.6217647 42.99710288 55.87232716 49.1328125 51.21875 C50.62896595 50.06096368 52.120063 48.89053761 53.51806641 47.6159668 C55.82516062 45.52513964 57.46869785 44.09931636 60.5703125 43.51953125 C69.44969674 44.53780926 78.1862091 47.5874415 84.5 54.1875 C90.26699802 62.00195294 91.44542667 70.33100402 91.53125 79.8359375 C90.55387621 85.65706078 86.65227437 88.50327942 82.0625 91.8125 C81.01707031 92.57820313 79.97164062 93.34390625 78.89453125 94.1328125 C78.29334473 94.57270508 77.6921582 95.01259766 77.07275391 95.46582031 C72.76133575 98.6569807 68.5116156 101.93032564 64.25 105.1875 C58.18607696 109.81794182 52.11305316 114.43454164 46 119 C53.64107154 125.47081734 61.41149595 131.70783678 69.38085938 137.76757812 C71.98959536 139.75323844 74.58842633 141.75171723 77.1875 143.75 C77.70715332 144.14928711 78.22680664 144.54857422 78.76220703 144.95996094 C84.38037013 149.28214073 89.97052029 153.64038452 95.55737305 158.00292969 C96.27707275 158.56399414 96.99677246 159.12505859 97.73828125 159.703125 C98.44001465 160.25444092 99.14174805 160.80575684 99.86474609 161.3737793 C101.31403184 162.47756301 102.79280614 163.54346262 104.29541016 164.57348633 C109.77711028 168.37005321 109.77711028 168.37005321 110.921875 171.60546875 C110.11055471 183.79371221 105.88914612 193.78815374 97.046875 202.328125 C93.4024725 205.3048507 89.40230664 207.37200018 85 209 C84.32259766 209.25797363 83.64519531 209.51594727 82.94726562 209.78173828 C79.65782142 210.81092068 77.22234292 211.54713409 73.98681641 210.09887695 C71.93514079 208.5985662 70.10354686 206.98901762 68.25 205.25 C66.84766316 204.02324163 65.44400186 202.79799573 64.0390625 201.57421875 C63.01087402 200.65648682 63.01087402 200.65648682 61.96191406 199.72021484 C59.27403083 197.36346705 56.47742074 195.21806352 53.625 193.0625 C52.58472656 192.2684375 51.54445313 191.474375 50.47265625 190.65625 C49.64918701 190.02783203 49.64918701 190.02783203 48.80908203 189.38671875 C45.21286121 186.63010144 41.63862862 183.84510008 38.0625 181.0625 C36.91974609 180.17353027 36.91974609 180.17353027 35.75390625 179.26660156 C30.29406843 175.01566128 24.84717752 170.74848903 19.41430664 166.46313477 C16.63492688 164.27292051 13.83509771 162.1174043 11 160 C11.01160156 161.0737085 11.02320313 162.14741699 11.03515625 163.25366211 C11.06792563 167.27425455 11.04768333 171.29319943 11.01220703 175.3137207 C11.00414401 177.0467859 11.01006279 178.77997911 11.03076172 180.51293945 C11.20849151 196.75650693 11.20849151 196.75650693 6.20703125 202.50390625 C-1.45748228 209.55222289 -8.15698644 212.43645062 -18.57421875 212.34375 C-26.6681967 211.53158346 -33.44577858 206.76047898 -39 201 C-39.51668369 200.46529713 -40.03336739 199.93059425 -40.56570816 199.37968826 C-42.53811506 196.10719279 -42.43475594 193.10870027 -42.42132568 189.39764404 C-42.43023905 188.62807947 -42.43915242 187.8585149 -42.44833589 187.0656302 C-42.47436846 184.48473519 -42.47891882 181.90425809 -42.48339844 179.32324219 C-42.49728513 177.47357798 -42.51235941 175.62392235 -42.52853394 173.77427673 C-42.5678927 168.74728054 -42.58723807 163.72040451 -42.60056591 158.69327831 C-42.60936055 155.55203574 -42.62167543 152.41082597 -42.63507843 149.26959991 C-42.67610039 139.43983734 -42.70510146 129.61014978 -42.7166841 119.78030753 C-42.73012508 108.43589435 -42.78276279 97.09256582 -42.86968589 85.74848247 C-42.93455392 76.97805079 -42.96479779 68.20792414 -42.96880746 59.43725514 C-42.9719506 54.19961557 -42.98964623 48.96299567 -43.0432663 43.72560883 C-43.09274291 38.79705124 -43.09916365 33.87027832 -43.07284927 28.94156075 C-43.07053966 27.13557971 -43.08354858 25.32950234 -43.11322403 23.52376366 C-43.32285761 9.96971428 -43.32285761 9.96971428 -40.11371613 5.19135284 C-28.67127293 -5.40990343 -13.71584352 -6.79576537 0 0 Z M-32 7 C-33.0425455 7.55841394 -33.0425455 7.55841394 -34.10615253 8.12810898 C-36.42841883 10.42345193 -36.48825329 12.00297604 -36.54895991 15.19663548 C-36.54208338 15.90294756 -36.53520686 16.60925963 -36.52812195 17.3369751 C-36.53647861 18.0900566 -36.54483527 18.8431381 -36.55344516 19.61904025 C-36.57648074 22.15026263 -36.57080171 24.68060478 -36.56518555 27.21191406 C-36.5755139 29.02364582 -36.58750153 30.83536877 -36.60102844 32.64707947 C-36.63214504 37.57496916 -36.63735094 42.5025668 -36.63609672 47.43054295 C-36.63692595 51.54327969 -36.64916029 55.65595266 -36.66104633 59.76866984 C-36.68844919 69.47326176 -36.69374144 79.17770179 -36.6862793 88.88232422 C-36.67904204 98.8930536 -36.71242728 108.90307809 -36.76533669 118.91365457 C-36.80911395 127.50657394 -36.8258335 136.09926562 -36.8213008 144.69229484 C-36.81897779 149.82520185 -36.82731407 154.95753993 -36.86237144 160.09033966 C-36.89432493 164.92022966 -36.89252001 169.74895385 -36.86492729 174.57885933 C-36.86047121 176.34974611 -36.86792377 178.12070972 -36.88827133 179.89148521 C-37.39913546 190.47619492 -37.39913546 190.47619492 -32.70027161 199.45965576 C-30.93257299 200.89061783 -30.93257299 200.89061783 -29 202 C-27.94313759 202.63848814 -27.94313759 202.63848814 -26.86492443 203.28987503 C-21.45360963 206.33640319 -16.7243058 207.67861236 -10.625 206 C-4.56650935 203.79598056 -0.47266219 199.47266219 4 195 C4.33016506 192.90019956 4.33016506 192.90019956 4.31884766 190.45849609 C4.33871735 189.51767181 4.35858704 188.57684753 4.37905884 187.60751343 C4.39061005 186.58976837 4.40216125 185.57202332 4.4140625 184.5234375 C4.43342865 183.48305328 4.4527948 182.44266907 4.4727478 181.37075806 C4.53265727 178.0389228 4.57897452 174.70705321 4.625 171.375 C4.6631693 169.11977637 4.7022204 166.86456748 4.7421875 164.609375 C4.83836799 159.07304725 4.92338196 153.53663115 5 148 C12.24342709 153.56511452 19.48202076 159.13577346 26.6875 164.75 C28.22784677 165.94924164 29.7682119 167.14845968 31.30859375 168.34765625 C32.08187012 168.94980957 32.85514648 169.55196289 33.65185547 170.17236328 C35.98697983 171.98986598 38.3233471 173.80575788 40.66015625 175.62109375 C53.57469608 185.65495018 53.57469608 185.65495018 59.77807617 190.53540039 C60.94684933 191.45375642 62.11751941 192.3697046 63.2902832 193.28295898 C65.78275313 195.22759292 68.22844506 197.19809937 70.6171875 199.26953125 C74.96596076 203.03637159 74.96596076 203.03637159 80.4375 204.3125 C89.41665219 201.0043913 96.74961512 196.20620363 101.25 187.61328125 C103.44796141 182.62970902 105.46916503 177.4751945 104 172 C101.76606803 169.2512924 99.02234245 167.38215049 96.125 165.375 C94.46692175 164.15957164 92.80938486 162.94340446 91.15234375 161.7265625 C90.29753418 161.11200195 89.44272461 160.49744141 88.56201172 159.86425781 C84.52496008 156.92668145 80.61213424 153.83514932 76.6875 150.75 C75.18182094 149.57705703 73.67532922 148.4051564 72.16796875 147.234375 C71.45688965 146.68201172 70.74581055 146.12964844 70.01318359 145.56054688 C66.17098817 142.58221639 62.31320814 139.62425991 58.45703125 136.6640625 C51.27909223 131.14257094 44.14406049 125.56520262 37 120 C38.13039126 116.60882622 38.80393667 116.14360332 41.62109375 114.13671875 C42.38301025 113.58636963 43.14492676 113.03602051 43.92993164 112.46899414 C44.7574292 111.88110107 45.58492676 111.29320801 46.4375 110.6875 C54.0294105 105.20417328 61.49698499 99.60176194 68.81958008 93.76269531 C72.78422675 90.62299756 76.72367927 87.95077175 81.125 85.4375 C84.10678517 83.40680148 84.86292609 82.55777417 85.734375 79.01171875 C86.06622156 71.01974739 84.54772436 64.10030446 79.26953125 58 C74.88686962 53.80104275 70.08162915 50.87348354 64 50 C59.33728132 50.31484596 57.01171383 52.34198812 53.5625 55.375 C52.50027534 56.29219461 51.4364076 57.20748902 50.37109375 58.12109375 C49.81921387 58.59659668 49.26733398 59.07209961 48.69873047 59.56201172 C45.90083402 61.93045238 43.01583992 64.18417295 40.125 66.4375 C39.54049072 66.89431152 38.95598145 67.35112305 38.35375977 67.82177734 C37.16367657 68.75136184 35.97316445 69.68039746 34.78222656 70.60888672 C32.4640343 72.41834693 30.15173746 74.23523938 27.84011841 76.05308533 C26.14256704 77.38789724 24.44466918 78.72226628 22.74658203 80.05639648 C22.13855743 80.53410995 21.53053284 81.01182343 20.90408325 81.50401306 C20.27573578 81.99768875 19.64738831 82.49136444 19 83 C17.75129926 83.9811162 16.50260134 84.96223598 15.25390625 85.94335938 C11.8359375 88.62890625 8.41796875 91.31445313 5 94 C5.00745743 92.96096527 5.01491486 91.92193054 5.02259827 90.85140991 C5.08705915 81.05208377 5.10418805 71.25366125 5.07515812 61.45415306 C5.06174983 56.41611059 5.06492856 51.37922339 5.10620117 46.34130859 C5.14543174 41.47778747 5.14084719 36.6160874 5.10607719 31.75255203 C5.10048481 29.89862752 5.11059393 28.04458606 5.13676643 26.19083786 C5.667072 16.29194392 5.667072 16.29194392 2.04391479 7.54473877 C-0.28303019 5.94937152 -2.34018698 4.91583043 -5 4 C-6.134375 3.54625 -7.26875 3.0925 -8.4375 2.625 C-17.72726008 0.99521753 -23.91780313 1.96635107 -32 7 Z " fill="#000000" transform="translate(523,4)"/>
<path d="M0 0 C17.985 -0.0825 35.97 -0.165 54.5 -0.25 C60.14931641 -0.28641602 65.79863281 -0.32283203 71.61914062 -0.36035156 C78.59277344 -0.37841797 78.59277344 -0.37841797 81.87194824 -0.3817749 C84.13044399 -0.38786079 86.38892789 -0.40181 88.64733887 -0.42230225 C122.67904545 -0.71528264 122.67904545 -0.71528264 136 9 C136.83015625 9.60328125 137.6603125 10.2065625 138.515625 10.828125 C146.72864546 17.46739304 152.77385182 27.33054446 154.7890625 37.83203125 C156.34325333 53.80565921 153.69610943 69.21405273 143.59765625 82.0546875 C139.38984225 86.82565255 135.36569517 90.63084256 130 94 C132.16020484 95.6480436 134.33988214 97.23155112 136.5859375 98.76171875 C148.6998448 107.12608331 155.49636905 117.81639627 158.49609375 132.30078125 C160.71176849 148.56623848 158.97251662 161.60257868 149 175 C139.29088056 186.97102418 122.12359734 195.98740887 107 199 C103.45876996 199.27167185 99.93317721 199.25319354 96.38305664 199.22705078 C95.32160903 199.22729185 94.26016142 199.22753292 93.16654873 199.2277813 C89.74766449 199.22629446 86.32900123 199.21109045 82.91015625 199.1953125 C80.79260361 199.19237012 78.67504951 199.19033088 76.55749512 199.18920898 C68.72580782 199.1787443 60.89415172 199.15082177 53.0625 199.125 C35.551875 199.08375 18.04125 199.0425 0 199 C0 133.33 0 67.66 0 0 Z M6 6 C6 67.71 6 129.42 6 193 C22.21125 193.103125 38.4225 193.20625 55.125 193.3125 C60.21824707 193.35802002 65.31149414 193.40354004 70.55908203 193.45043945 C75.17856522 193.46717546 75.17856522 193.46717546 79.79806519 193.47721863 C81.83417242 193.48482897 83.87025904 193.50227215 85.90621948 193.52787781 C98.32965806 193.67612958 108.58644489 193.40296885 120 188 C120.94884064 187.57975052 121.89768127 187.15950104 122.87527466 186.72651672 C134.70775533 181.37876528 146.78846614 171.36147296 151.875 159.125 C155.54680756 146.5140895 153.6908589 130.87062459 147.8125 119.3125 C142.75596381 110.99563003 136.87325708 105.05342646 128 101 C127.0925 100.566875 126.185 100.13375 125.25 99.6875 C122.73196108 98.91809922 120.6184619 98.85037361 118 99 C118 97.02 118 95.04 118 93 C118.75023438 92.68289062 119.50046875 92.36578125 120.2734375 92.0390625 C134.01704919 85.77308336 141.44522472 76.71689405 147 63 C150.74299639 52.67738664 150.11929065 40.8347392 146.25390625 30.6796875 C144.33513693 26.57913999 142.08031606 23.30823182 139 20 C138.36320313 19.31035156 137.72640625 18.62070312 137.0703125 17.91015625 C129.2277045 10.19682201 118.40789259 5.8666573 107.3745575 5.87974548 C106.47763782 5.87836799 105.58071814 5.87699049 104.65661907 5.87557125 C103.6815632 5.87916936 102.70650732 5.88276747 101.7019043 5.88647461 C100.65060994 5.88635407 99.59931559 5.88623354 98.51616383 5.88610935 C95.11882715 5.88685474 91.72154559 5.89446597 88.32421875 5.90234375 C86.22448757 5.90381433 84.12475603 5.90483433 82.02502441 5.90539551 C74.24584401 5.91063497 66.46667146 5.92459619 58.6875 5.9375 C41.300625 5.958125 23.91375 5.97875 6 6 Z " fill="#000000" transform="translate(0,12)"/>
<path d="M0 0 C4.4773761 3.34776286 8.56726646 6.99595997 12.5546875 10.91015625 C13.25464844 11.585625 13.95460938 12.26109375 14.67578125 12.95703125 C28.42708097 27.21763836 34.66245796 47.8060021 34.58984375 67.30078125 C33.98611375 91.61272569 25.14244994 112.80579514 8.23828125 130.30859375 C-6.25488195 143.84245992 -24.710469 150.50504608 -44.3828125 151.28515625 C-67.2199219 150.35461189 -88.4114959 142.58425837 -104.4453125 125.91015625 C-119.89411488 107.59740476 -125.04758881 85.45532285 -123.4453125 61.91015625 C-120.60011503 37.36743662 -110.20417423 15.66524219 -91.49609375 -0.6640625 C-64.86393761 -21.72609448 -27.24915954 -18.39520414 0 0 Z M-97.95703125 13.73046875 C-113.65825188 33.72353406 -119.56780581 57.93280558 -117.25488281 82.97167969 C-115.44403643 97.5841013 -109.45373251 111.14381706 -99.4453125 121.91015625 C-98.55779297 122.95042969 -98.55779297 122.95042969 -97.65234375 124.01171875 C-85.27307418 137.68434484 -65.421528 143.77374965 -47.5625 145.12890625 C-26.88746729 145.7905073 -8.75117261 137.68452343 6.1796875 123.78515625 C17.16557586 112.30794909 25.22254605 96.68997047 27.5546875 80.91015625 C27.66425781 80.18699219 27.77382813 79.46382813 27.88671875 78.71875 C30.56241331 58.20509171 26.1386969 37.51301097 13.5546875 20.91015625 C-0.11217378 3.31744612 -20.61560651 -6.08968782 -42.4453125 -9.08984375 C-64.43596224 -10.6587673 -83.25701437 -2.77561552 -97.95703125 13.73046875 Z " fill="#000000" transform="translate(284.4453125,65.08984375)"/>
<path d="M0 0 C4.4773761 3.34776286 8.56726646 6.99595997 12.5546875 10.91015625 C13.25464844 11.585625 13.95460938 12.26109375 14.67578125 12.95703125 C28.42708097 27.21763836 34.66245796 47.8060021 34.58984375 67.30078125 C33.98611375 91.61272569 25.14244994 112.80579514 8.23828125 130.30859375 C-6.25488195 143.84245992 -24.710469 150.50504608 -44.3828125 151.28515625 C-67.2199219 150.35461189 -88.4114959 142.58425837 -104.4453125 125.91015625 C-119.89411488 107.59740476 -125.04758881 85.45532285 -123.4453125 61.91015625 C-120.60011503 37.36743662 -110.20417423 15.66524219 -91.49609375 -0.6640625 C-64.86393761 -21.72609448 -27.24915954 -18.39520414 0 0 Z M-97.95703125 13.73046875 C-113.65825188 33.72353406 -119.56780581 57.93280558 -117.25488281 82.97167969 C-115.44403643 97.5841013 -109.45373251 111.14381706 -99.4453125 121.91015625 C-98.55779297 122.95042969 -98.55779297 122.95042969 -97.65234375 124.01171875 C-85.27307418 137.68434484 -65.421528 143.77374965 -47.5625 145.12890625 C-26.88746729 145.7905073 -8.75117261 137.68452343 6.1796875 123.78515625 C17.16557586 112.30794909 25.22254605 96.68997047 27.5546875 80.91015625 C27.66425781 80.18699219 27.77382813 79.46382813 27.88671875 78.71875 C30.56241331 58.20509171 26.1386969 37.51301097 13.5546875 20.91015625 C-0.11217378 3.31744612 -20.61560651 -6.08968782 -42.4453125 -9.08984375 C-64.43596224 -10.6587673 -83.25701437 -2.77561552 -97.95703125 13.73046875 Z " fill="#000000" transform="translate(443.4453125,60.08984375)"/>
<path d="M0 0 C7.47253518 6.47907674 13.16292829 13.8660527 15.02734375 23.7578125 C15.95489607 38.11206473 14.41355522 49.57259112 5.29296875 61.27734375 C-1.67733534 68.90862495 -9.80327005 73.02624248 -20.03515625 74.0703125 C-30.60043923 74.47666954 -41.0216034 72.31169689 -49.265625 65.38671875 C-57.55071965 57.48080463 -61.99099509 49.29610672 -62.97265625 37.7578125 C-63.12411572 24.09280209 -59.40828859 11.49195563 -49.83203125 1.53125 C-35.83023724 -11.56566617 -15.45395493 -11.4537692 0 0 Z M-48.5625 8.76171875 C-55.41885033 18.40084207 -58.0641077 29.12157045 -56.5703125 40.94140625 C-54.66269952 49.80221211 -51.13945364 56.80723949 -43.66015625 62.1328125 C-34.5788116 67.58161929 -25.56214868 69.38632707 -15.078125 67.13671875 C-5.62044557 64.16052592 0.69666443 58.60206146 5.52734375 50.0078125 C9.95464807 41.39916521 10.4979944 31.19506049 8.34375 21.765625 C7.41044851 19.27940278 6.35139055 17.05834381 5.02734375 14.7578125 C4.61484375 14.04109375 4.20234375 13.324375 3.77734375 12.5859375 C-1.38979818 4.77650709 -9.56601482 0.5545455 -18.47265625 -1.76953125 C-30.1344599 -3.974341 -41.01233327 -0.75483047 -48.5625 8.76171875 Z " fill="#000000" transform="translate(262.97265625,101.2421875)"/>
<path d="M0 0 C7.47253518 6.47907674 13.16292829 13.8660527 15.02734375 23.7578125 C15.95489607 38.11206473 14.41355522 49.57259112 5.29296875 61.27734375 C-1.67733534 68.90862495 -9.80327005 73.02624248 -20.03515625 74.0703125 C-30.60043923 74.47666954 -41.0216034 72.31169689 -49.265625 65.38671875 C-57.55071965 57.48080463 -61.99099509 49.29610672 -62.97265625 37.7578125 C-63.12411572 24.09280209 -59.40828859 11.49195563 -49.83203125 1.53125 C-35.83023724 -11.56566617 -15.45395493 -11.4537692 0 0 Z M-48.5625 8.76171875 C-55.41885033 18.40084207 -58.0641077 29.12157045 -56.5703125 40.94140625 C-54.66269952 49.80221211 -51.13945364 56.80723949 -43.66015625 62.1328125 C-34.5788116 67.58161929 -25.56214868 69.38632707 -15.078125 67.13671875 C-5.62044557 64.16052592 0.69666443 58.60206146 5.52734375 50.0078125 C9.95464807 41.39916521 10.4979944 31.19506049 8.34375 21.765625 C7.41044851 19.27940278 6.35139055 17.05834381 5.02734375 14.7578125 C4.61484375 14.04109375 4.20234375 13.324375 3.77734375 12.5859375 C-1.38979818 4.77650709 -9.56601482 0.5545455 -18.47265625 -1.76953125 C-30.1344599 -3.974341 -41.01233327 -0.75483047 -48.5625 8.76171875 Z " fill="#000000" transform="translate(421.97265625,96.2421875)"/>
<path d="M0 0 C7.899375 -0.144375 15.79875 -0.28875 23.9375 -0.4375 C26.4137085 -0.50122803 28.88991699 -0.56495605 31.44116211 -0.63061523 C33.42819574 -0.65108057 35.41525896 -0.66891313 37.40234375 -0.68359375 C38.92027527 -0.7373114 38.92027527 -0.7373114 40.46887207 -0.79211426 C47.25938187 -0.79789482 50.9547857 0.65108331 56.10328674 5.09605408 C61.76478165 10.77913775 65.54330347 16.15901682 66.3125 24.3125 C65.44032068 34.60421603 60.70211078 41.80675694 53.08081055 48.60327148 C48.21153932 52.01472222 43.35575072 51.63237544 37.59765625 51.48828125 C36.64145386 51.48324585 35.68525146 51.47821045 34.70007324 51.47302246 C31.1539072 51.44701078 27.60817111 51.37720412 24.0625 51.3125 C16.121875 51.209375 8.18125 51.10625 0 51 C0 34.17 0 17.34 0 0 Z M5 6 C5 19.2 5 32.4 5 46 C11.579375 46.165 18.15875 46.33 24.9375 46.5 C26.99605225 46.57283203 29.05460449 46.64566406 31.17553711 46.72070312 C42.16587042 47.19058415 42.16587042 47.19058415 51.625 42.28515625 C56.30625544 37.07008429 59.5712805 31.21539628 60.5 24.25 C59.38326626 16.99123069 55.32991379 12.70001489 50 8 C46.90944045 5.93962697 46.29073838 5.75200758 42.80395508 5.77294922 C41.54298759 5.77317581 41.54298759 5.77317581 40.25654602 5.77340698 C38.90172371 5.78889084 38.90172371 5.78889084 37.51953125 5.8046875 C36.59154221 5.8075174 35.66355316 5.81034729 34.70744324 5.81326294 C31.74233121 5.82446164 28.77752079 5.84956565 25.8125 5.875 C23.80273874 5.8850302 21.79297274 5.89415598 19.78320312 5.90234375 C14.85525895 5.92269874 9.92796725 5.961848 5 6 Z " fill="#000000" transform="translate(45,121)"/>
<path d="M0 0 C7.05375 -0.165 14.1075 -0.33 21.375 -0.5 C23.58106934 -0.57283203 25.78713867 -0.64566406 28.06005859 -0.72070312 C44.08701982 -1.03040588 44.08701982 -1.03040588 50.19140625 3.73046875 C56.25798692 9.79275348 61.07815583 16.4427621 61.3125 25.1875 C61.26124801 30.73003712 60.02261762 34.40814885 57 39 C56.443125 39.86625 55.88625 40.7325 55.3125 41.625 C50.66091911 46.40229929 45.78112864 50.26883604 38.93920898 50.68115234 C37.12456027 50.67967762 35.30969784 50.64751971 33.49609375 50.5859375 C32.64019653 50.57989502 31.78429932 50.57385254 30.90246582 50.56762695 C27.74697686 50.5365577 24.59218293 50.45279142 21.4375 50.375 C10.8259375 50.189375 10.8259375 50.189375 0 50 C0 33.5 0 17 0 0 Z M5 6 C5 18.54 5 31.08 5 44 C11.084375 44.165 17.16875 44.33 23.4375 44.5 C26.29039673 44.60924805 26.29039673 44.60924805 29.20092773 44.72070312 C39.67055996 45.09704146 39.67055996 45.09704146 48.59375 40.15234375 C53.22648043 35.01577449 55.73590555 30.36944998 55.4765625 23.3671875 C54.13296598 16.69325725 49.07763349 11.56305199 44.03160095 7.29698181 C40.53965173 5.06770808 37.25925794 5.2516864 33.22265625 5.4140625 C32.50235229 5.42010498 31.78204834 5.42614746 31.03991699 5.43237305 C28.38018481 5.46348103 25.72127751 5.54724925 23.0625 5.625 C14.1215625 5.810625 14.1215625 5.810625 5 6 Z " fill="#000000" transform="translate(45,46)"/>
<path d="M0 0 C3.4939071 2.50844613 3.93432573 3.73730292 5 8 C8.3 8 11.6 8 15 8 C15 8.99 15 9.98 15 11 C14.24074219 11.02578125 13.48148438 11.0515625 12.69921875 11.078125 C11.70535156 11.13484375 10.71148437 11.1915625 9.6875 11.25 C8.70136719 11.29640625 7.71523438 11.3428125 6.69921875 11.390625 C3.35575833 12.14544385 2.8610922 13.23786028 1 16 C-2.97344161 17.10373378 -5.08999772 17.41543583 -8.875 15.6875 C-11 14 -11 14 -12 12 C-12.56872038 4.9478673 -12.56872038 4.9478673 -10.5 1.5 C-6.98210132 -0.61073921 -4.00324076 -0.82202069 0 0 Z " fill="#000000" transform="translate(28,26)"/>
<path d="M0 0 C3.5625 0.5 3.5625 0.5 6.0625 2.0625 C7.5625 4.5 7.5625 4.5 7.625 8.0625 C6.5625 11.5 6.5625 11.5 4.375 13.5625 C0.70222891 14.78675703 -0.97995549 14.11352077 -4.4375 12.5 C-6.4375 10.5 -6.4375 10.5 -6.75 7.625 C-6.23969201 2.52192015 -5.19516182 0.7556599 0 0 Z " fill="#000000" transform="translate(238.4375,65.5)"/>
<path d="M0 0 C3.5625 0.5 3.5625 0.5 6.0625 2.0625 C7.5625 4.5 7.5625 4.5 7.625 8.0625 C6.5625 11.5 6.5625 11.5 4.375 13.5625 C0.70222891 14.78675703 -0.97995549 14.11352077 -4.4375 12.5 C-6.4375 10.5 -6.4375 10.5 -6.75 7.625 C-6.23969201 2.52192015 -5.19516182 0.7556599 0 0 Z " fill="#000000" transform="translate(397.4375,60.5)"/>
<path d="M0 0 C1.9375 1.0625 1.9375 1.0625 3 3 C3.5 6.4375 3.5 6.4375 3 10 C0.875 12.5625 0.875 12.5625 -2 14 C-5.57195286 13.29961709 -7.42284442 12.57715558 -10 10 C-10.54587156 3.99541284 -10.54587156 3.99541284 -8.9375 1.0625 C-5.88023824 -0.6140629 -3.4093712 -0.36528977 0 0 Z " fill="#000000" transform="translate(511,16)"/>
<path d="M0 0 C0.556875 0.144375 1.11375 0.28875 1.6875 0.4375 C2.8321875 0.7159375 2.8321875 0.7159375 4 1 C5.2684375 1.3403125 5.2684375 1.3403125 6.5625 1.6875 C9.25525964 2.30360761 9.25525964 2.30360761 12 0 C12.99 0 13.98 0 15 0 C14.52753358 4.25219775 12.22727623 6.37314725 9 9 C5.7701086 9.20186821 4.70944319 7.74906457 2.25 5.625 C0 3 0 3 0 0 Z " fill="#000000" transform="translate(17,186)"/>
<path d="M0 0 C0.556875 0.309375 1.11375 0.61875 1.6875 0.9375 C4.20907102 2.09605966 6.22716229 2.78670479 9 3 C10.8354799 1.66621425 10.8354799 1.66621425 12 0 C12.99 0.33 13.98 0.66 15 1 C13.55754029 4.36573933 11.916532 6.75010389 9 9 C5.19119238 9.09766173 4.02402164 8.02188638 1.1875 5.4375 C0.465625 4.633125 -0.25625 3.82875 -1 3 C-0.67 2.01 -0.34 1.02 0 0 Z " fill="#000000" transform="translate(501,190)"/>
<path d="M0 0 C0.99 0 1.98 0 3 0 C2.67 1.98 2.34 3.96 2 6 C2.99 6.33 3.98 6.66 5 7 C5.99 7.66 6.98 8.32 8 9 C8.66 9.33 9.32 9.66 10 10 C10 10.99 10 11.98 10 13 C8.35369672 12.85957123 6.70795821 12.71250671 5.0625 12.5625 C3.68771484 12.44068359 3.68771484 12.44068359 2.28515625 12.31640625 C0 12 0 12 -1 11 C-1.09823996 9.52351124 -1.12973519 8.04224583 -1.125 6.5625 C-1.12757813 5.75941406 -1.13015625 4.95632812 -1.1328125 4.12890625 C-1 2 -1 2 0 0 Z " fill="#000000" transform="translate(513,124)"/>
<path d="M0 0 C-0.309375 0.556875 -0.61875 1.11375 -0.9375 1.6875 C-2.1040584 4.22648005 -2.79048458 6.20646106 -3 9 C-1.62831762 11.19038423 -1.62831762 11.19038423 0 13 C0 13.66 0 14.32 0 15 C-4.25219775 14.52753358 -6.37314725 12.22727623 -9 9 C-9.20186821 5.7701086 -7.74906457 4.70944319 -5.625 2.25 C-3 0 -3 0 0 0 Z " fill="#000000" transform="translate(47,186)"/>
<path d="M0 0 C0.66 0 1.32 0 2 0 C3.1898306 2.3796612 3.13349966 3.91485735 3.125 6.5625 C3.12757813 7.36816406 3.13015625 8.17382812 3.1328125 9.00390625 C3 11 3 11 2 12 C0.48530552 12.23192865 -1.03754562 12.41215238 -2.5625 12.5625 C-3.38878906 12.64628906 -4.21507812 12.73007813 -5.06640625 12.81640625 C-5.70449219 12.87699219 -6.34257813 12.93757812 -7 13 C-7.33 12.01 -7.66 11.02 -8 10 C-7.195625 9.71125 -6.39125 9.4225 -5.5625 9.125 C-2.8673532 8.26737432 -2.8673532 8.26737432 -2 6 C-1.34 6 -0.68 6 0 6 C-0.2784375 4.7934375 -0.2784375 4.7934375 -0.5625 3.5625 C-0.706875 2.716875 -0.85125 1.87125 -1 1 C-0.67 0.67 -0.34 0.34 0 0 Z " fill="#000000" transform="translate(604,176)"/>
<path d="M0 0 C-0.309375 0.556875 -0.61875 1.11375 -0.9375 1.6875 C-2.1040584 4.22648005 -2.79048458 6.20646106 -3 9 C-1.62831762 11.19038423 -1.62831762 11.19038423 0 13 C0 13.66 0 14.32 0 15 C-4.25219775 14.52753358 -6.37314725 12.22727623 -9 9 C-9.20186821 5.7701086 -7.74906457 4.70944319 -5.625 2.25 C-3 0 -3 0 0 0 Z " fill="#000000" transform="translate(47,101)"/>
<path d="M0 0 C0.33 1.65 0.66 3.3 1 5 C-2.98196457 6.05404945 -5.98195309 5.84098656 -10 5 C-10 4.01 -10 3.02 -10 2 C-3.375 0 -3.375 0 0 0 Z " fill="#000000" transform="translate(101,105)"/>
<path d="M0 0 C0.66 0.99 1.32 1.98 2 3 C-0.31 5.31 -2.62 7.62 -5 10 C-5.99 9.67 -6.98 9.34 -8 9 C-5.89851796 5.01824456 -3.63094642 2.64960955 0 0 Z " fill="#000000" transform="translate(203,82)"/>
<path d="M0 0 C0.66 0.99 1.32 1.98 2 3 C-0.31 5.31 -2.62 7.62 -5 10 C-5.99 9.67 -6.98 9.34 -8 9 C-5.89851796 5.01824456 -3.63094642 2.64960955 0 0 Z " fill="#000000" transform="translate(362,77)"/>
<path d="M0 0 C3.93673644 1.31224548 6.22719294 2.91910327 9 6 C8.67 6.99 8.34 7.98 8 9 C3.7257442 7.4169423 1.73468206 4.49431596 -1 1 C-0.67 0.67 -0.34 0.34 0 0 Z " fill="#000000" transform="translate(109,114)"/>
<path d="M0 0 C0.99 0 1.98 0 3 0 C3.33 3.96 3.66 7.92 4 12 C3.01 12 2.02 12 1 12 C0.01751476 7.9472484 -0.08159574 4.16138263 0 0 Z " fill="#000000" transform="translate(179,139)"/>
<path d="M0 0 C0.99 0 1.98 0 3 0 C3.33 3.96 3.66 7.92 4 12 C3.01 12 2.02 12 1 12 C0.01751476 7.9472484 -0.08159574 4.16138263 0 0 Z " fill="#000000" transform="translate(338,134)"/>
<path d="M0 0 C-3.12621626 3.39417765 -5.56541027 5.6062718 -10 7 C-10.33 6.01 -10.66 5.02 -11 4 C-9.73760288 3.13341385 -8.46472499 2.28207941 -7.1875 1.4375 C-6.47980469 0.96183594 -5.77210937 0.48617187 -5.04296875 -0.00390625 C-3 -1 -3 -1 0 0 Z " fill="#000000" transform="translate(120,183)"/>
<path d="M0 0 C3.44137432 1.5294997 6.2222133 3.45369552 9 6 C9 6.99 9 7.98 9 9 C5.40094092 8.44449305 4.00090201 7.25112752 1.75 4.4375 C1.22921875 3.79683594 0.7084375 3.15617188 0.171875 2.49609375 C-0.21484375 2.00238281 -0.6015625 1.50867188 -1 1 C-0.67 0.67 -0.34 0.34 0 0 Z " fill="#000000" transform="translate(195,177)"/>
<path d="M0 0 C3.44137432 1.5294997 6.2222133 3.45369552 9 6 C9 6.99 9 7.98 9 9 C5.40094092 8.44449305 4.00090201 7.25112752 1.75 4.4375 C1.22921875 3.79683594 0.7084375 3.15617188 0.171875 2.49609375 C-0.21484375 2.00238281 -0.6015625 1.50867188 -1 1 C-0.67 0.67 -0.34 0.34 0 0 Z " fill="#000000" transform="translate(354,172)"/>
<path d="M0 0 C0.99 0.33 1.98 0.66 3 1 C2.34 4.63 1.68 8.26 1 12 C0.01 12 -0.98 12 -2 12 C-1.34 8.04 -0.68 4.08 0 0 Z " fill="#000000" transform="translate(181,118)"/>
<path d="M0 0 C0.99 0.33 1.98 0.66 3 1 C2.34 4.63 1.68 8.26 1 12 C0.01 12 -0.98 12 -2 12 C-1.34 8.04 -0.68 4.08 0 0 Z " fill="#000000" transform="translate(340,113)"/>
<path d="M0 0 C0.99 0.33 1.98 0.66 3 1 C3 1.66 3 2.32 3 3 C1.03125 4.5078125 1.03125 4.5078125 -1.5 6.125 C-2.3353125 6.66382812 -3.170625 7.20265625 -4.03125 7.7578125 C-4.6809375 8.16773437 -5.330625 8.57765625 -6 9 C-6 5 -6 5 -3.1875 2.1875 C-2.135625 1.465625 -1.08375 0.74375 0 0 Z " fill="#000000" transform="translate(547,105)"/>
<path d="M0 0 C0.99 0.33 1.98 0.66 3 1 C1.49776416 5.20626034 -1.28550034 6.73900021 -5 9 C-5 5 -5 5 -2.5 2.25 C-1.675 1.5075 -0.85 0.765 0 0 Z " fill="#000000" transform="translate(114,93)"/>
<path d="M0 0 C-0.33 0.99 -0.66 1.98 -1 3 C-3.28515625 3.94921875 -3.28515625 3.94921875 -6.0625 4.6875 C-7.44115234 5.06455078 -7.44115234 5.06455078 -8.84765625 5.44921875 C-9.55792969 5.63097656 -10.26820313 5.81273438 -11 6 C-10.74609375 4.11328125 -10.74609375 4.11328125 -10 2 C-8.22265625 0.91796875 -8.22265625 0.91796875 -6.0625 0.1875 C-5.35222656 -0.06644531 -4.64195312 -0.32039063 -3.91015625 -0.58203125 C-2 -1 -2 -1 0 0 Z " fill="#000000" transform="translate(223,73)"/>
<path d="M0 0 C-0.33 0.99 -0.66 1.98 -1 3 C-3.28515625 3.94921875 -3.28515625 3.94921875 -6.0625 4.6875 C-7.44115234 5.06455078 -7.44115234 5.06455078 -8.84765625 5.44921875 C-9.55792969 5.63097656 -10.26820313 5.81273438 -11 6 C-10.74609375 4.11328125 -10.74609375 4.11328125 -10 2 C-8.22265625 0.91796875 -8.22265625 0.91796875 -6.0625 0.1875 C-5.35222656 -0.06644531 -4.64195312 -0.32039063 -3.91015625 -0.58203125 C-2 -1 -2 -1 0 0 Z " fill="#000000" transform="translate(382,68)"/>
<path d="M0 0 C1.8125 0.125 1.8125 0.125 4 1 C7.146948 5.88319518 7.146948 5.88319518 6.6875 9.375 C6.460625 9.91125 6.23375 10.4475 6 11 C3.02753198 8.45217026 1.58464712 5.54659117 0 2 C0 1.34 0 0.68 0 0 Z " fill="#000000" transform="translate(183,160)"/>
<path d="M0 0 C1.8125 0.125 1.8125 0.125 4 1 C7.146948 5.88319518 7.146948 5.88319518 6.6875 9.375 C6.460625 9.91125 6.23375 10.4475 6 11 C3.02753198 8.45217026 1.58464712 5.54659117 0 2 C0 1.34 0 0.68 0 0 Z " fill="#000000" transform="translate(342,155)"/>
<path d="M0 0 C0.66 0.99 1.32 1.98 2 3 C0.90716423 4.03295436 -0.19970579 5.05107835 -1.3125 6.0625 C-1.92738281 6.63097656 -2.54226563 7.19945313 -3.17578125 7.78515625 C-3.77777344 8.18605469 -4.37976563 8.58695313 -5 9 C-5.99 8.67 -6.98 8.34 -8 8 C-6.88333826 4.65001479 -6.25305075 4.20659778 -3.4375 2.3125 C-2.79683594 1.87550781 -2.15617188 1.43851562 -1.49609375 0.98828125 C-1.00238281 0.66214844 -0.50867188 0.33601563 0 0 Z " fill="#000000" transform="translate(532,117)"/>
<path d="M0 0 C-2.33333333 2.33333333 -4.66666667 4.66666667 -7 7 C-7.99 7 -8.98 7 -10 7 C-10 6.01 -10 5.02 -10 4 C-8.57421875 2.578125 -8.57421875 2.578125 -6.6875 1.25 C-6.07261719 0.80140625 -5.45773437 0.3528125 -4.82421875 -0.109375 C-3 -1 -3 -1 0 0 Z " fill="#000000" transform="translate(566,94)"/>
<path d="M0 0 C5.445 1.485 5.445 1.485 11 3 C11 3.99 11 4.98 11 6 C9.54096742 5.69078116 8.08279278 5.37751201 6.625 5.0625 C5.81289062 4.88847656 5.00078125 4.71445313 4.1640625 4.53515625 C2 4 2 4 0 3 C0 2.01 0 1.02 0 0 Z " fill="#000000" transform="translate(212,189)"/>
<path d="M0 0 C5.445 1.485 5.445 1.485 11 3 C11 3.99 11 4.98 11 6 C9.54096742 5.69078116 8.08279278 5.37751201 6.625 5.0625 C5.81289063 4.88847656 5.00078125 4.71445313 4.1640625 4.53515625 C2 4 2 4 0 3 C0 2.01 0 1.02 0 0 Z " fill="#000000" transform="translate(371,184)"/>
<path d="M0 0 C0.99 0 1.98 0 3 0 C3 3.63 3 7.26 3 11 C2.01 11 1.02 11 0 11 C0 7.37 0 3.74 0 0 Z " fill="#000000" transform="translate(23,168)"/>
<path d="M0 0 C0.99 0 1.98 0 3 0 C3 3.63 3 7.26 3 11 C2.01 11 1.02 11 0 11 C0 7.37 0 3.74 0 0 Z " fill="#000000" transform="translate(23,147)"/>
<path d="M0 0 C0.99 0 1.98 0 3 0 C3 3.63 3 7.26 3 11 C2.01 11 1.02 11 0 11 C0 7.37 0 3.74 0 0 Z " fill="#000000" transform="translate(23,127)"/>
<path d="M0 0 C0.99 0 1.98 0 3 0 C3 3.63 3 7.26 3 11 C2.01 11 1.02 11 0 11 C0 7.37 0 3.74 0 0 Z " fill="#000000" transform="translate(23,106)"/>
<path d="M0 0 C0.99 0 1.98 0 3 0 C3 3.63 3 7.26 3 11 C2.01 11 1.02 11 0 11 C0 7.37 0 3.74 0 0 Z " fill="#000000" transform="translate(23,86)"/>
<path d="M0 0 C0.66 0.33 1.32 0.66 2 1 C0.50958227 4.79379058 -1.69062512 6.68343758 -5 9 C-5.66 9 -6.32 9 -7 9 C-6.82374165 6.62051228 -6.30280227 5.29774151 -4.59765625 3.62109375 C-3.09350908 2.37884514 -1.54870149 1.18623944 0 0 Z " fill="#000000" transform="translate(579,80)"/>
<path d="M0 0 C0.99 0 1.98 0 3 0 C3 3.63 3 7.26 3 11 C2.01 11 1.02 11 0 11 C0 7.37 0 3.74 0 0 Z " fill="#000000" transform="translate(23,65)"/>
<path d="M0 0 C0.99 0 1.98 0 3 0 C3 3.63 3 7.26 3 11 C2.01 11 1.02 11 0 11 C0 7.37 0 3.74 0 0 Z " fill="#000000" transform="translate(23,45)"/>
<path d="M0 0 C3.63 0 7.26 0 11 0 C11 0.99 11 1.98 11 3 C7.37 3 3.74 3 0 3 C0 2.01 0 1.02 0 0 Z " fill="#000000" transform="translate(71,34)"/>
<path d="M0 0 C0.66 0.33 1.32 0.66 2 1 C0.61198929 4.35435922 -0.88629 6.11290303 -4 8 C-4.99 8 -5.98 8 -7 8 C-7 7.01 -7 6.02 -7 5 C-5.46875 3.61328125 -5.46875 3.61328125 -3.5 2.3125 C-2.8503125 1.87550781 -2.200625 1.43851563 -1.53125 0.98828125 C-1.0259375 0.66214844 -0.520625 0.33601562 0 0 Z " fill="#000000" transform="translate(276,180)"/>
<path d="M0 0 C0.66 0.33 1.32 0.66 2 1 C0.61198929 4.35435922 -0.88629 6.11290303 -4 8 C-4.99 8 -5.98 8 -7 8 C-7 7.01 -7 6.02 -7 5 C-5.46875 3.61328125 -5.46875 3.61328125 -3.5 2.3125 C-2.8503125 1.87550781 -2.200625 1.43851563 -1.53125 0.98828125 C-1.0259375 0.66214844 -0.520625 0.33601562 0 0 Z " fill="#000000" transform="translate(435,175)"/>
<path d="M0 0 C0.99 0 1.98 0 3 0 C1.85569823 3.87302138 0.76679902 7.00263439 -2 10 C-2.66 10 -3.32 10 -4 10 C-3.43768609 6.06380262 -2.38314183 3.20807554 0 0 Z " fill="#000000" transform="translate(129,167)"/>
<path d="M0 0 C3.87132028 0.57352893 6.08172796 2.48704352 9 5 C8.67 5.99 8.34 6.98 8 8 C1.23076923 4.55384615 1.23076923 4.55384615 0.0625 1.75 C0.041875 1.1725 0.02125 0.595 0 0 Z " fill="#000000" transform="translate(572,159)"/>
<path d="M0 0 C2.71224618 1.61268692 5.37352812 3.24901874 8 5 C8 5.99 8 6.98 8 8 C4.12867972 7.42647107 1.91827204 5.51295648 -1 3 C-0.67 2.01 -0.34 1.02 0 0 Z " fill="#000000" transform="translate(558,147)"/>
<path d="M0 0 C0.99 0 1.98 0 3 0 C3.33 3.63 3.66 7.26 4 11 C3.01 11 2.02 11 1 11 C0.67 7.37 0.34 3.74 0 0 Z " fill="#000000" transform="translate(130,147)"/>
<path d="M0 0 C1.8125 0.1875 1.8125 0.1875 4 1 C6.53370588 4.34811134 7 5.70124217 7 10 C2.57320993 8.52440331 2.08567304 6.09942632 0 2 C0 1.34 0 0.68 0 0 Z " fill="#000000" transform="translate(122,129)"/>
<path d="M0 0 C0.66 0 1.32 0 2 0 C3.42258812 3.82320557 4.24042276 6.91281305 4 11 C3.01 10.67 2.02 10.34 1 10 C0.234375 7.96875 0.234375 7.96875 -0.25 5.5 C-0.42015625 4.6853125 -0.5903125 3.870625 -0.765625 3.03125 C-0.84296875 2.3609375 -0.9203125 1.690625 -1 1 C-0.67 0.67 -0.34 0.34 0 0 Z " fill="#000000" transform="translate(121,56)"/>
<path d="M0 0 C-0.33 0.66 -0.66 1.32 -1 2 C-4.47325181 3.1577506 -7.36067448 3.06866652 -11 3 C-11 2.01 -11 1.02 -11 0 C-3.57142857 -1.28571429 -3.57142857 -1.28571429 0 0 Z " fill="#000000" transform="translate(102,192)"/>
<path d="M0 0 C0.99 0 1.98 0 3 0 C1.7508258 3.45925163 0.32472205 6.14693203 -2 9 C-2.99 8.67 -3.98 8.34 -5 8 C-4.24266726 6.6589523 -3.46867264 5.32730219 -2.6875 4 C-2.25824219 3.2575 -1.82898438 2.515 -1.38671875 1.75 C-0.70029297 0.88375 -0.70029297 0.88375 0 0 Z " fill="#000000" transform="translate(287,166)"/>
<path d="M0 0 C0.99 0 1.98 0 3 0 C1.7508258 3.45925163 0.32472205 6.14693203 -2 9 C-2.99 8.67 -3.98 8.34 -5 8 C-4.24266726 6.6589523 -3.46867264 5.32730219 -2.6875 4 C-2.25824219 3.2575 -1.82898438 2.515 -1.38671875 1.75 C-0.70029297 0.88375 -0.70029297 0.88375 0 0 Z " fill="#000000" transform="translate(446,161)"/>
<path d="M0 0 C0.99 0 1.98 0 3 0 C3 3.3 3 6.6 3 10 C2.01 10 1.02 10 0 10 C0 6.7 0 3.4 0 0 Z " fill="#000000" transform="translate(296,129)"/>
<path d="M0 0 C0.99 0 1.98 0 3 0 C3 3.3 3 6.6 3 10 C2.01 10 1.02 10 0 10 C0 6.7 0 3.4 0 0 Z " fill="#000000" transform="translate(455,124)"/>
<path d="M0 0 C0.66 0 1.32 0 2 0 C3.62950412 4.12168689 4.26264601 6.70700357 3 11 C2.34 10.67 1.68 10.34 1 10 C0.33203125 7.96875 0.33203125 7.96875 -0.1875 5.5 C-0.36667969 4.6853125 -0.54585938 3.870625 -0.73046875 3.03125 C-0.81941406 2.3609375 -0.90835937 1.690625 -1 1 C-0.67 0.67 -0.34 0.34 0 0 Z " fill="#000000" transform="translate(293,110)"/>
<path d="M0 0 C0.66 0 1.32 0 2 0 C3.62950412 4.12168689 4.26264601 6.70700357 3 11 C2.34 10.67 1.68 10.34 1 10 C0.33203125 7.96875 0.33203125 7.96875 -0.1875 5.5 C-0.36667969 4.6853125 -0.54585938 3.870625 -0.73046875 3.03125 C-0.81941406 2.3609375 -0.90835937 1.690625 -1 1 C-0.67 0.67 -0.34 0.34 0 0 Z " fill="#000000" transform="translate(452,105)"/>
<path d="M0 0 C0.99 0.33 1.98 0.66 3 1 C1.35 4.3 -0.3 7.6 -2 11 C-2.66 10.67 -3.32 10.34 -4 10 C-3.43454163 6.04179141 -2.19097652 3.3340947 0 0 Z " fill="#000000" transform="translate(189,99)"/>
<path d="M0 0 C0.99 0.33 1.98 0.66 3 1 C1.35 4.3 -0.3 7.6 -2 11 C-2.66 10.67 -3.32 10.34 -4 10 C-3.43454163 6.04179141 -2.19097652 3.3340947 0 0 Z " fill="#000000" transform="translate(348,94)"/>
<path d="M0 0 C1.75 0.0625 1.75 0.0625 4 1 C5.59501537 3.24164322 6.74543018 5.53566643 8 8 C6.68 8 5.36 8 4 8 C0 2.88888889 0 2.88888889 0 0 Z " fill="#000000" transform="translate(283,94)"/>
<path d="M0 0 C1.75 0.0625 1.75 0.0625 4 1 C5.59501537 3.24164322 6.74543018 5.53566643 8 8 C6.68 8 5.36 8 4 8 C0 2.88888889 0 2.88888889 0 0 Z " fill="#000000" transform="translate(442,89)"/>
<path d="M0 0 C3.45925163 1.2491742 6.14693203 2.67527795 9 5 C8.67 5.99 8.34 6.98 8 8 C6.6589523 7.24266726 5.32730219 6.46867264 4 5.6875 C2.88625 5.04361328 2.88625 5.04361328 1.75 4.38671875 C1.1725 3.92910156 0.595 3.47148438 0 3 C0 2.01 0 1.02 0 0 Z " fill="#000000" transform="translate(269,81)"/>
<path d="M0 0 C3.45925163 1.2491742 6.14693203 2.67527795 9 5 C8.67 5.99 8.34 6.98 8 8 C6.6589523 7.24266726 5.32730219 6.46867264 4 5.6875 C2.88625 5.04361328 2.88625 5.04361328 1.75 4.38671875 C1.1725 3.92910156 0.595 3.47148438 0 3 C0 2.01 0 1.02 0 0 Z " fill="#000000" transform="translate(428,76)"/>
<path d="M0 0 C3.36295835 1.44126786 5.62927102 3.20592655 8 6 C8 6.99 8 7.98 8 9 C7.01 9 6.02 9 5 9 C0 3.76744186 0 3.76744186 0 0 Z " fill="#000000" transform="translate(109,40)"/>
<path d="M0 0 C3.3 0 6.6 0 10 0 C10 0.99 10 1.98 10 3 C6.7 3 3.4 3 0 3 C0 2.01 0 1.02 0 0 Z " fill="#000000" transform="translate(72,192)"/>
<path d="M0 0 C3.3 0 6.6 0 10 0 C10 0.99 10 1.98 10 3 C6.7 3 3.4 3 0 3 C0 2.01 0 1.02 0 0 Z " fill="#000000" transform="translate(53,192)"/>
<path d="M0 0 C0 0.66 0 1.32 0 2 C-4.95 3.485 -4.95 3.485 -10 5 C-10.33 4.01 -10.66 3.02 -11 2 C-9.54494642 1.47007308 -8.08581873 0.9513211 -6.625 0.4375 C-5.81289063 0.14746094 -5.00078125 -0.14257812 -4.1640625 -0.44140625 C-2 -1 -2 -1 0 0 Z " fill="#000000" transform="translate(262,191)"/>
<path d="M0 0 C0 0.66 0 1.32 0 2 C-4.95 3.485 -4.95 3.485 -10 5 C-10.33 4.01 -10.66 3.02 -11 2 C-9.54494642 1.47007308 -8.08581873 0.9513211 -6.625 0.4375 C-5.81289063 0.14746094 -5.00078125 -0.14257812 -4.1640625 -0.44140625 C-2 -1 -2 -1 0 0 Z " fill="#000000" transform="translate(421,186)"/>
<path d="M0 0 C0.99 0 1.98 0 3 0 C2.745504 1.48206495 2.47088238 2.96068615 2.1875 4.4375 C2.03667969 5.26121094 1.88585937 6.08492187 1.73046875 6.93359375 C1.48941406 7.61550781 1.24835938 8.29742187 1 9 C0.01 9.33 -0.98 9.66 -2 10 C-1.54177532 6.53058454 -1.10868317 3.32604951 0 0 Z " fill="#000000" transform="translate(294,148)"/>
<path d="M0 0 C0.99 0 1.98 0 3 0 C2.745504 1.48206495 2.47088238 2.96068615 2.1875 4.4375 C2.03667969 5.26121094 1.88585937 6.08492187 1.73046875 6.93359375 C1.48941406 7.61550781 1.24835938 8.29742187 1 9 C0.01 9.33 -0.98 9.66 -2 10 C-1.54177532 6.53058454 -1.10868317 3.32604951 0 0 Z " fill="#000000" transform="translate(453,143)"/>
<path d="M0 0 C3.3 0 6.6 0 10 0 C10 0.99 10 1.98 10 3 C6.7 3 3.4 3 0 3 C0 2.01 0 1.02 0 0 Z " fill="#000000" transform="translate(72,107)"/>
<path d="M0 0 C3.3 0 6.6 0 10 0 C10 0.99 10 1.98 10 3 C6.7 3 3.4 3 0 3 C0 2.01 0 1.02 0 0 Z " fill="#000000" transform="translate(53,107)"/>
<path d="M0 0 C0.66 0 1.32 0 2 0 C1.25 7.625 1.25 7.625 -1 11 C-1.66 10.67 -2.32 10.34 -3 10 C-2.69201674 8.51988629 -2.378482 7.04092675 -2.0625 5.5625 C-1.88847656 4.73878906 -1.71445313 3.91507812 -1.53515625 3.06640625 C-1 1 -1 1 0 0 Z " fill="#000000" transform="translate(123,76)"/>
<path d="M0 0 C3.3 0.99 6.6 1.98 10 3 C9.67 3.99 9.34 4.98 9 6 C5.7 5.01 2.4 4.02 -1 3 C-0.67 2.01 -0.34 1.02 0 0 Z " fill="#000000" transform="translate(252,73)"/>
<path d="M0 0 C3.3 0.99 6.6 1.98 10 3 C9.67 3.99 9.34 4.98 9 6 C5.7 5.01 2.4 4.02 -1 3 C-0.67 2.01 -0.34 1.02 0 0 Z " fill="#000000" transform="translate(411,68)"/>
<path d="M0 0 C2.97 0 5.94 0 9 0 C9.33 1.32 9.66 2.64 10 4 C6.7 3.67 3.4 3.34 0 3 C0 2.01 0 1.02 0 0 Z " fill="#000000" transform="translate(91,34)"/>
<path d="M0 0 C3.3 0 6.6 0 10 0 C10 0.99 10 1.98 10 3 C6.7 3 3.4 3 0 3 C0 2.01 0 1.02 0 0 Z " fill="#000000" transform="translate(52,34)"/>
<path d="M0 0 C3.63 0 7.26 0 11 0 C11 0.99 11 1.98 11 3 C6.98195309 3.84098656 3.98196457 4.05404945 0 3 C0 2.01 0 1.02 0 0 Z " fill="#000000" transform="translate(232,194)"/>
<path d="M0 0 C3.63 0 7.26 0 11 0 C11 0.99 11 1.98 11 3 C6.98195309 3.84098656 3.98196457 4.05404945 0 3 C0 2.01 0 1.02 0 0 Z " fill="#000000" transform="translate(391,189)"/>
<path d="M0 0 C2.64 1.98 5.28 3.96 8 6 C7.67 6.66 7.34 7.32 7 8 C3.62496331 6.8141763 1.35277269 5.72426311 -1 3 C-0.67 2.01 -0.34 1.02 0 0 Z " fill="#000000" transform="translate(588,170)"/>
<path d="M0 0 C3.37503669 1.1858237 5.64722731 2.27573689 8 5 C7.67 5.99 7.34 6.98 7 8 C4.36 6.02 1.72 4.04 -1 2 C-0.67 1.34 -0.34 0.68 0 0 Z " fill="#000000" transform="translate(543,136)"/>
<path d="M0 0 C0.66 0 1.32 0 2 0 C2 3.63 2 7.26 2 11 C1.34 11 0.68 11 0 11 C0 7.37 0 3.74 0 0 Z " fill="#000000" transform="translate(507,173)"/>
<path d="M0 0 C0.66 0 1.32 0 2 0 C2 3.63 2 7.26 2 11 C1.34 11 0.68 11 0 11 C0 7.37 0 3.74 0 0 Z " fill="#000000" transform="translate(507,154)"/>
<path d="M0 0 C0.66 0 1.32 0 2 0 C2 3.63 2 7.26 2 11 C1.34 11 0.68 11 0 11 C0 7.37 0 3.74 0 0 Z " fill="#000000" transform="translate(507,96)"/>
<path d="M0 0 C0.66 0 1.32 0 2 0 C2 3.63 2 7.26 2 11 C1.34 11 0.68 11 0 11 C0 7.37 0 3.74 0 0 Z " fill="#000000" transform="translate(507,77)"/>
<path d="M0 0 C0.66 0 1.32 0 2 0 C2 3.3 2 6.6 2 10 C1.34 10 0.68 10 0 10 C0 6.7 0 3.4 0 0 Z " fill="#000000" transform="translate(507,135)"/>
<path d="M0 0 C0.66 0 1.32 0 2 0 C2 3.3 2 6.6 2 10 C1.34 10 0.68 10 0 10 C0 6.7 0 3.4 0 0 Z " fill="#000000" transform="translate(507,116)"/>
<path d="M0 0 C0.66 0 1.32 0 2 0 C2 3.3 2 6.6 2 10 C1.34 10 0.68 10 0 10 C0 6.7 0 3.4 0 0 Z " fill="#000000" transform="translate(507,58)"/>
<path d="M0 0 C0.66 0 1.32 0 2 0 C2 3.3 2 6.6 2 10 C1.34 10 0.68 10 0 10 C0 6.7 0 3.4 0 0 Z " fill="#000000" transform="translate(507,39)"/>
<path d="M0 0 C0.99 0.33 1.98 0.66 3 1 C2.67 1.99 2.34 2.98 2 4 C-0.0625 4.6875 -0.0625 4.6875 -2 5 C-2 2 -2 2 0 0 Z " fill="#000000" transform="translate(590,71)"/>
<path d="M0 0 C1.32 0.66 2.64 1.32 4 2 C4 2.99 4 3.98 4 5 C1.525 4.01 1.525 4.01 -1 3 C-0.67 2.01 -0.34 1.02 0 0 Z " fill="#000000" transform="translate(532,127)"/>
</svg>
