<svg width="341" height="244" viewBox="0 0 341 244" fill="none" xmlns="http://www.w3.org/2000/svg">
<path d="M3 131.5V3H53.5V131.5C77.5 173.5 106.167 149 117.5 131.5V3H165V131.5C163 174.5 121 201 89 199C25 199 10.8333 161.833 3 131.5Z" stroke="black" stroke-width="5"/>
<circle cx="32.0957" cy="23.0093" r="8.09575" fill="black"/>
<path d="M31.5 23.9136V145.414C52 168.58 101.3 201.014 134.5 145.414V23.9136" stroke="black" stroke-width="2" stroke-dasharray="10 10"/>
<path d="M261.825 144.745C303.022 147.27 311.523 75.2862 261.931 75.2932C224.93 75.2932 219.522 140.77 261.825 144.745Z" stroke="black" stroke-width="5"/>
<circle cx="208.5" cy="46.5005" r="6.5" transform="rotate(-180 208.5 46.5005)" fill="black"/>
<path d="M338 108.313C338 186.31 265.833 195.48 234.5 181.813L234.5 231.313C223.7 248.513 201 238.48 191 231.313L191 33.313C214.2 27.313 229.667 30.813 234.5 33.313L234.5 39.313C315.7 14.1131 337.333 74.8129 338 108.313Z" stroke="black" stroke-width="5"/>
<path d="M209.707 225.517C209.317 225.908 208.683 225.908 208.293 225.517L201.929 219.153C201.538 218.763 201.538 218.13 201.929 217.739C202.319 217.348 202.953 217.348 203.343 217.739L209 223.396L214.657 217.739C215.047 217.348 215.681 217.348 216.071 217.739C216.462 218.13 216.462 218.763 216.071 219.153L209.707 225.517ZM208.293 43.103C208.683 42.7124 209.317 42.7124 209.707 43.103L216.071 49.4669C216.462 49.8574 216.462 50.4906 216.071 50.8811C215.681 51.2717 215.047 51.2717 214.657 50.8811L209 45.2243L203.343 50.8811C202.953 51.2717 202.319 51.2717 201.929 50.8811C201.538 50.4906 201.538 49.8574 201.929 49.4669L208.293 43.103ZM208 224.81L208 219.782L210 219.782L210 224.81L208 224.81ZM208 209.727L208 199.671L210 199.671L210 209.727L208 209.727ZM208 189.616L208 179.56L210 179.56L210 189.616L208 189.616ZM208 169.505L208 159.449L210 159.449L210 169.505L208 169.505ZM208 149.393L208 139.338L210 139.338L210 149.393L208 149.393ZM208 129.282L208 119.227L210 119.227L210 129.282L208 129.282ZM208 109.171L208 99.1156L210 99.1156L210 109.171L208 109.171ZM208 89.06L208 79.0045L210 79.0045L210 89.06L208 89.06ZM208 68.9489L208 58.8934L210 58.8934L210 68.9489L208 68.9489ZM208 48.8378L208 43.8101L210 43.8101L210 48.8378L208 48.8378Z" fill="black"/>
<path d="M219.004 147.038C219.054 146.488 219.541 146.082 220.091 146.132L229.054 146.947C229.604 146.997 230.009 147.484 229.959 148.034C229.909 148.584 229.423 148.989 228.873 148.939L220.905 148.215L220.181 156.182C220.131 156.732 219.645 157.137 219.095 157.087C218.545 157.037 218.139 156.551 218.189 156.001L219.004 147.038ZM321 106.128L321.999 106.075L321 106.128ZM219.493 71.2665C221.088 70.3278 222.672 69.4398 224.246 68.6013L225.187 70.3663C223.638 71.1913 222.078 72.0655 220.507 72.9902L219.493 71.2665ZM234.083 63.9299C237.572 62.4768 240.996 61.2685 244.349 60.29L244.909 62.2099C241.63 63.167 238.275 64.3503 234.852 65.7761L234.083 63.9299ZM254.993 57.8982C258.742 57.3126 262.381 57.0219 265.898 57.0016L265.909 59.0015C262.495 59.0213 258.955 59.3035 255.301 59.8742L254.993 57.8982ZM276.803 57.8428C280.526 58.4548 284.069 59.3886 287.412 60.6057L286.728 62.4851C283.503 61.3109 280.081 60.4084 276.479 59.8163L276.803 57.8428ZM297.304 65.3593C300.487 67.3046 303.405 69.5416 306.033 72.0184L304.661 73.4737C302.134 71.0917 299.326 68.939 296.261 67.0659L297.304 65.3593ZM313.185 80.3547C315.276 83.3956 317.024 86.6392 318.401 90.0264L316.548 90.7794C315.226 87.5267 313.547 84.4106 311.537 81.4882L313.185 80.3547ZM321.397 100.601C321.698 102.407 321.9 104.234 321.999 106.075L320.001 106.182C319.907 104.416 319.713 102.663 319.424 100.93L321.397 100.601ZM321.999 106.075C322.092 107.807 322.116 109.504 322.076 111.164L320.076 111.115C320.116 109.508 320.092 107.864 320.001 106.182L321.999 106.075ZM320.957 121.275C320.26 124.718 319.254 127.965 317.98 131.015L316.135 130.243C317.358 127.315 318.325 124.193 318.997 120.878L320.957 121.275ZM313.109 139.976C311.171 142.811 308.968 145.41 306.55 147.772L305.153 146.341C307.48 144.068 309.597 141.569 311.458 138.847L313.109 139.976ZM298.647 154.182C295.837 156.071 292.861 157.719 289.768 159.126L288.94 157.306C291.937 155.942 294.816 154.347 297.531 152.522L298.647 154.182ZM280.233 162.609C276.973 163.53 273.644 164.211 270.295 164.651L270.034 162.668C273.29 162.24 276.524 161.579 279.689 160.685L280.233 162.609ZM260.167 165.246C256.753 165.199 253.364 164.899 250.052 164.343L250.383 162.37C253.592 162.909 256.879 163.2 260.195 163.246L260.167 165.246ZM240.201 161.837C236.955 160.706 233.848 159.292 230.941 157.59L231.951 155.864C234.74 157.496 237.727 158.858 240.859 159.949L240.201 161.837ZM222.748 151.497C221.505 150.329 220.33 149.087 219.232 147.769L220.768 146.488C221.814 147.743 222.932 148.926 224.117 150.039L222.748 151.497Z" fill="black"/>
</svg>
