<?xml version="1.0" encoding="UTF-8"?>
<svg version="1.1" xmlns="http://www.w3.org/2000/svg" width="1031" height="288">
<path d="M0 0 C0.16368615 31.33708426 -0.08105862 62.66883498 -0.40571976 94.00404358 C-0.43739434 97.11462345 -0.46743893 100.22521519 -0.49703979 103.33581543 C-0.54480785 108.32491592 -0.5971571 113.31394925 -0.65287781 118.30296707 C-0.67301453 120.15815414 -0.69180047 122.01335646 -0.70909119 123.86857224 C-0.96180066 150.55788818 -2.01624947 176.98130924 -21.25 197.6875 C-40.23570762 215.66063655 -65.03938609 218.72706866 -89.92431641 218.13623047 C-96.78418278 217.83238816 -103.35489768 216.68785599 -110 215 C-110.66257812 214.83371094 -111.32515625 214.66742188 -112.0078125 214.49609375 C-123.9594846 211.38127573 -142.30687629 205.85258442 -149.8125 195.5 C-153.11861956 188.53974829 -153.27006155 179.61960212 -151.24609375 172.2578125 C-148.01414757 164.72927905 -143.54710124 159.40820351 -135.89453125 156.0859375 C-131.10109582 154.3203692 -126.07521997 152.65991383 -121 154 C-118.40276752 155.55052173 -116.04429221 157.29589122 -113.6328125 159.12109375 C-102.41845999 167.12421475 -88.60012517 170.38934309 -75 169 C-68.45103157 167.49430392 -63.13578145 165.41929983 -59 160 C-59 159.34 -59 158.68 -59 158 C-60.11181641 158.2165625 -60.11181641 158.2165625 -61.24609375 158.4375 C-83.8369736 162.41924627 -105.13647555 159.69577707 -124.5390625 146.7421875 C-142.70268265 133.88349768 -152.79761419 113.1057967 -156.609375 91.5546875 C-159.4111005 66.05898549 -154.78212235 39.73764122 -138.8359375 19.21484375 C-126.73300064 5.03772867 -109.76260811 -2.26904192 -91.5 -4.75 C-90.00179166 -4.8609784 -88.50115918 -4.94113101 -87 -5 C-85.96359375 -5.0515625 -84.9271875 -5.103125 -83.859375 -5.15625 C-76.97876637 -5.33496711 -70.72078565 -4.85334811 -63.95800781 -3.66992188 C-54.27614545 -1.69715588 -54.27614545 -1.69715588 -45 -4.25 C-44.319375 -4.72953125 -43.63875 -5.2090625 -42.9375 -5.703125 C-30.9011851 -13.75969062 -11.23741349 -5.8887899 0 0 Z M-49 4 C-53.03538335 3.73965269 -56.90597006 3.19716258 -60.8828125 2.48046875 C-81.7849453 -1.16037894 -104.94662175 0.29656881 -122.8125 12.8125 C-124.56375933 14.18051272 -126.29457906 15.57525179 -128 17 C-128.71929688 17.59425781 -129.43859375 18.18851563 -130.1796875 18.80078125 C-144.44959244 31.76585052 -149.90655788 51.92269431 -151.17285156 70.54150391 C-152.21371338 93.5760383 -146.39978433 115.87443123 -130.6875 133.3125 C-118.6394849 146.16783509 -103.34318773 153.34492989 -85.703125 154.28515625 C-75.18729869 154.60131835 -65.26350152 153.16486972 -55 151 C-53.33350156 150.66582666 -51.66691422 150.33209316 -50 150 C-53.97069539 165.5324261 -53.97069539 165.5324261 -60 170 C-71.8941346 176.20480537 -85.41860779 176.88930032 -98.125 172.9375 C-106.1956628 170.27379822 -114.48292668 166.69119051 -121.09375 161.2890625 C-124.05245462 159.28829913 -126.21271676 159.84278409 -129.62109375 160.359375 C-136.64095779 162.24978174 -141.31704251 166.67638505 -145.0859375 172.75 C-146.2968489 175.73070499 -146.26484268 178.22777144 -146.25 181.4375 C-146.25515625 182.54996094 -146.2603125 183.66242188 -146.265625 184.80859375 C-145.94080998 188.7111507 -145.25243726 191.59189257 -142.6171875 194.5546875 C-121.15643278 210.81866754 -90.41106595 214.46339332 -64.41064453 211.72753906 C-45.66321468 208.93343193 -29.33719157 199.18892974 -18 184 C-7.72374151 167.03222435 -6.71787701 147.82612937 -6.5859375 128.5703125 C-6.56706783 126.7904329 -6.54744137 125.01056119 -6.52711487 123.23069763 C-6.47561083 118.50250138 -6.43587188 113.77427754 -6.39890671 109.04594803 C-6.36691191 105.13678802 -6.32798178 101.22770908 -6.28913784 97.3186121 C-5.9817649 66.21245602 -5.86871059 35.10751103 -6 4 C-7.25635053 3.35651261 -8.51452421 2.71658409 -9.7734375 2.078125 C-10.47388184 1.72137695 -11.17432617 1.36462891 -11.89599609 0.99707031 C-23.99825571 -4.73809194 -38.01592959 -3.32271361 -49 4 Z " fill="#000000" transform="translate(857,70)"/>
<path d="M0 0 C2.72650801 2.0079698 5.20717281 4.07436031 7.6015625 6.46875 C7.6015625 7.45875 7.6015625 8.44875 7.6015625 9.46875 C8.41496094 9.15421875 9.22835937 8.8396875 10.06640625 8.515625 C26.88027868 2.23642855 46.7916158 -4.35397236 64.25 3.21484375 C79.53033021 11.36266102 87.74862431 25.94280785 92.8371582 41.97070312 C93.04816162 42.67130859 93.25916504 43.37191406 93.4765625 44.09375 C93.66758545 44.72474609 93.8586084 45.35574219 94.05541992 46.00585938 C97.88972514 59.81979164 98.00779596 73.93373089 98.1484375 88.15234375 C98.15908485 89.16782854 98.16973221 90.18331333 98.18070221 91.22957039 C98.23372697 96.58685383 98.2726428 101.94405036 98.30175781 107.30151367 C98.32858855 111.71803225 98.38462126 116.13273564 98.46582031 120.54858398 C98.56441208 125.91420067 98.61398142 131.27815639 98.62821198 136.64463997 C98.64161583 138.67932469 98.67200721 140.71397358 98.71999359 142.74813652 C99.07248927 158.56931602 99.07248927 158.56931602 95.45812988 163.23660278 C92.87791899 165.09553312 90.56210115 166.33086984 87.6015625 167.46875 C86.42602814 168.00072243 86.42602814 168.00072243 85.22674561 168.54344177 C78.01980981 171.6522589 69.40610883 171.48231917 61.9140625 169.46875 C56.39347563 167.10874729 51.96764578 164.57382461 48.6015625 159.46875 C46.92474259 153.1969703 47.48833705 146.43632196 47.609375 140.0078125 C47.61134217 138.09264074 47.60889939 136.17745986 47.6022644 134.26229858 C47.59465251 129.23161508 47.63801217 124.20274406 47.69488525 119.17242432 C47.77763098 111.13046443 47.78421731 103.08816344 47.78792953 95.04584885 C47.79670177 92.25051443 47.82807783 89.4561554 47.86306763 86.66104126 C47.93143421 78.10884224 47.89825881 70.51299569 44.6015625 62.46875 C44.3128125 61.458125 44.0240625 60.4475 43.7265625 59.40625 C42.76956696 57.23512518 42.76956696 57.23512518 40.3828125 56.8671875 C31.10032413 55.53739282 23.06879804 56.29947292 14.6015625 60.46875 C13.05604706 61.22082733 13.05604706 61.22082733 11.47930908 61.98809814 C8.31076562 64.69300295 8.31076562 64.69300295 7.90936279 68.46453857 C7.90470546 70.11815816 7.93312375 71.7720664 7.98730469 73.42480469 C7.99273788 74.32937408 7.99817108 75.23394348 8.00376892 76.16592407 C8.01878659 78.12927929 8.0472821 80.09256703 8.08763885 82.05556488 C8.14895863 85.16706813 8.16960408 88.27642154 8.17877197 91.38848877 C8.21199391 100.23440529 8.31728247 109.0789431 8.45361328 117.92382812 C8.53421165 123.33629383 8.56599224 128.74734151 8.5688858 134.1603775 C8.58019223 136.21936588 8.61058003 138.27834373 8.66066742 140.33675385 C9.04959489 156.42764979 9.04959489 156.42764979 5.47351074 161.46838379 C2.92155165 163.56495191 0.57379657 165.0470836 -2.3984375 166.46875 C-3.22869446 166.92159363 -4.05895142 167.37443726 -4.91436768 167.84100342 C-12.46957536 171.76459802 -21.93367089 171.81502632 -30.078125 169.80859375 C-36.16060991 167.37770445 -40.81736768 163.04981982 -45.3984375 158.46875 C-45.51261282 156.52334726 -45.55591526 154.57377109 -45.57252502 152.62509155 C-45.58546097 151.35488159 -45.59839691 150.08467163 -45.61172485 148.77597046 C-45.62094582 147.35504252 -45.63000402 145.93411351 -45.63891602 144.51318359 C-45.65172167 143.026873 -45.66485701 141.54056522 -45.67829895 140.05426025 C-45.79434769 126.46798405 -45.85085643 112.88096634 -45.89506626 99.29428673 C-45.92829919 89.24894103 -45.98782584 79.20449793 -46.08257729 69.15953958 C-46.14692213 62.09960789 -46.18060543 55.039922 -46.19181579 47.97970831 C-46.19937593 43.76202737 -46.22054959 39.54543539 -46.27484322 35.32807541 C-46.32536397 31.35666275 -46.33786307 27.386913 -46.32159233 23.4152298 C-46.32219506 21.9603438 -46.33642603 20.50538749 -46.36553955 19.05079269 C-46.57253029 8.13493939 -46.57253029 8.13493939 -43.72239494 4.09022903 C-31.42899999 -7.076628 -14.06842612 -8.98179648 0 0 Z M-33.3984375 4.46875 C-34.93336349 5.31633629 -34.93336349 5.31633629 -36.4992981 6.18104553 C-38.79326727 8.14723703 -39.35547177 9.25747897 -39.96526718 12.25596428 C-40.19730791 15.98851764 -40.23315992 19.69810863 -40.20654297 23.43530273 C-40.21795301 24.87458414 -40.23188259 26.31384744 -40.24813843 27.75308228 C-40.28400625 31.6562184 -40.28166483 35.55845548 -40.27025366 39.46170688 C-40.26407013 42.72220866 -40.27625438 45.98253768 -40.28833115 49.24301487 C-40.31641982 56.93600066 -40.31330138 64.62854226 -40.29052734 72.3215332 C-40.26756439 80.25353223 -40.29571387 88.18417885 -40.34932029 96.11599964 C-40.39364913 102.93067198 -40.40690612 109.74492003 -40.39516747 116.5597263 C-40.38842883 120.62794541 -40.39325071 124.69529767 -40.42766953 128.76339531 C-40.45863098 132.58980973 -40.45068187 136.41422304 -40.41305923 140.24055862 C-40.40569241 141.64257617 -40.41189181 143.04474232 -40.43283081 144.44662285 C-40.74398136 152.00427033 -40.74398136 152.00427033 -37.69113541 158.59828377 C-35.64926955 160.17565669 -33.72019172 161.35245029 -31.3984375 162.46875 C-30.72812941 162.82956382 -30.05782131 163.19037764 -29.36720085 163.56212521 C-23.21420288 166.39560975 -16.59035815 165.7360707 -10.3984375 163.46875 C-6.06615545 161.23734504 -1.85902795 158.92934045 1.6015625 155.46875 C1.77224561 152.51680831 1.818583 149.65913865 1.77758789 146.70800781 C1.77317688 145.80051788 1.76876587 144.89302795 1.76422119 143.95803833 C1.7543576 141.9827576 1.74048602 140.00749383 1.72313118 138.03226471 C1.69085467 133.83392391 1.69316155 129.63583323 1.69341946 125.43738937 C1.69327554 117.61549987 1.67811673 109.79423589 1.60522461 101.97265625 C1.55588731 96.53641608 1.55026812 91.10164028 1.57336235 85.66524506 C1.57393129 83.59357529 1.55823229 81.5218345 1.52592659 79.45041656 C1.28334288 63.23431432 1.28334288 63.23431432 4.50704956 58.91662598 C6.86219069 57.30050003 8.9007636 56.36729094 11.6015625 55.46875 C13.19063612 54.70982082 14.77487807 53.94059346 16.3515625 53.15625 C24.18154502 49.71975767 33.82614697 48.98618302 42.0390625 51.53125 C46.3900107 53.49910624 48.51390835 56.25571129 50.6015625 60.46875 C54.10049167 69.93264877 53.95640261 79.37114174 53.82886124 89.29577255 C53.7962185 92.07942156 53.78790448 94.86219539 53.78659058 97.64602661 C53.78101775 105.55088447 53.75147963 113.45500771 53.66015625 121.359375 C53.60575295 126.2171077 53.59504503 131.07329493 53.61230087 135.93127823 C53.6103611 137.77411148 53.59194197 139.61700609 53.55649185 141.45949936 C52.97362207 151.26496002 52.97362207 151.26496002 56.56634521 159.92388916 C63.31792178 164.56009372 70.58427466 165.49421705 78.6015625 164.46875 C85.60445262 161.82389973 85.60445262 161.82389973 91.6015625 157.46875 C91.71812937 154.71372306 91.76958414 151.98344373 91.77856445 149.22729492 C91.78842125 147.92927193 91.78842125 147.92927193 91.79847717 146.60502625 C91.81829604 143.71975622 91.82990416 140.83453897 91.83984375 137.94921875 C91.84391928 136.96010309 91.8479948 135.97098743 91.85219383 134.95189857 C91.87311091 129.69636873 91.88737678 124.44086528 91.89672852 119.18530273 C91.90768396 113.80517583 91.94193882 108.42547515 91.98190022 103.04549694 C92.00833933 98.873025 92.01644521 94.70064926 92.02000999 90.52810097 C92.02482186 88.54897562 92.03627716 86.56985295 92.05504799 84.59081078 C92.26918311 60.4753875 88.67452165 35.44229283 72.6015625 16.46875 C69.79748124 13.71712605 66.96298314 11.49656354 63.6015625 9.46875 C62.71984375 8.93314453 62.71984375 8.93314453 61.8203125 8.38671875 C49.01563827 2.23710547 31.3090181 7.46288043 18.6015625 11.46875 C12.81602063 13.53018978 7.1903364 15.92706645 1.6015625 18.46875 C1.63636719 17.85821777 1.67117188 17.24768555 1.70703125 16.61865234 C1.99454522 11.78211668 1.99454522 11.78211668 0.3515625 7.3828125 C-10.33883383 -0.4918098 -21.43534204 -2.26531502 -33.3984375 4.46875 Z " fill="#000000" transform="translate(594.3984375,63.53125)"/>
<path d="M0 0 C15.11491157 13.75665915 21.45924239 34.80229889 23.2265625 54.48828125 C23.56131174 64.27969651 21.08954183 73.63129473 14.9453125 81.35546875 C10.17534364 86.45822614 5.62503472 87.4709996 -1.0546875 88.35546875 C-0.58160156 88.649375 -0.10851562 88.94328125 0.37890625 89.24609375 C9.18120727 95.21724532 16.06200773 104.47069298 19.9453125 114.35546875 C19.64619263 118.4815634 16.91173293 121.40863581 14.4453125 124.54296875 C13.99607422 125.11740723 13.54683594 125.6918457 13.08398438 126.28369141 C0.52701669 142.08586698 -16.58228131 154.61035311 -37.0546875 157.35546875 C-57.13432743 159.11981816 -76.89587903 156.38082891 -95.0546875 147.35546875 C-95.9828125 146.90429688 -96.9109375 146.453125 -97.8671875 145.98828125 C-117.743198 135.7742203 -131.95577502 119.00892641 -140.0546875 98.35546875 C-148.2214988 71.94838628 -143.96474013 45.12276105 -131.33886719 20.94506836 C-127.00851076 13.02530343 -121.45478 6.67097853 -115.0546875 0.35546875 C-114.35214844 -0.34578125 -113.64960937 -1.04703125 -112.92578125 -1.76953125 C-84.00102269 -28.88284029 -28.70209585 -22.97259002 0 0 Z M-107.0546875 1.35546875 C-108.0446875 2.10570312 -108.0446875 2.10570312 -109.0546875 2.87109375 C-123.16993163 14.22945426 -131.75855209 32.08048215 -136.0546875 49.35546875 C-136.39113281 50.61617187 -136.39113281 50.61617187 -136.734375 51.90234375 C-141.53257655 73.0670136 -137.4042412 95.06254045 -126.0546875 113.35546875 C-115.17633173 129.05558222 -99.9756111 139.97799721 -82.0546875 146.35546875 C-81.0234375 146.72542969 -79.9921875 147.09539062 -78.9296875 147.4765625 C-57.82152557 154.2719967 -36.35795803 154.03232744 -16.375 144.01171875 C-9.81012241 140.33047898 -4.45734102 135.55508137 0.9453125 130.35546875 C2.06679688 129.29392578 2.06679688 129.29392578 3.2109375 128.2109375 C8.82269696 122.83952107 8.82269696 122.83952107 12.9453125 116.35546875 C12.2540252 110.27214055 7.64340101 105.04266676 3.9453125 100.35546875 C3.11580078 99.26685547 3.11580078 99.26685547 2.26953125 98.15625 C-1.33708766 94.21375971 -4.49858681 92.93279339 -9.86791992 92.52807617 C-16.89737348 92.37053756 -21.51477117 93.43459638 -26.72265625 98.34375 C-37.25978103 107.43356451 -51.65391427 111.18284609 -65.26953125 110.7109375 C-70.25041594 110.2431764 -73.83237158 108.95801692 -78.0546875 106.35546875 C-79.0859375 105.81921875 -80.1171875 105.28296875 -81.1796875 104.73046875 C-86.92438721 99.98484725 -90.4570381 94.03992568 -93.16162109 87.16650391 C-93.69533829 85.81523911 -93.69533829 85.81523911 -94.23983765 84.43667603 C-94.5087381 83.74987762 -94.77763855 83.06307922 -95.0546875 82.35546875 C-93.19546158 82.35000031 -93.19546158 82.35000031 -91.29867554 82.34442139 C-79.61576812 82.30747475 -67.93312437 82.24970541 -56.25041771 82.17156601 C-50.24424524 82.13206269 -44.23822002 82.09988805 -38.23193359 82.08447266 C-32.43514467 82.06932514 -26.63876047 82.03491278 -20.84215164 81.98715973 C-18.63102359 81.97232639 -16.41983777 81.96442662 -14.20866013 81.9635849 C-11.11051062 81.96121945 -8.01348342 81.93417253 -4.91552734 81.90136719 C-3.54527405 81.90891273 -3.54527405 81.90891273 -2.14733887 81.91661072 C3.36307391 81.82638048 6.5908863 81.06114279 10.9453125 77.35546875 C12.64959707 75.00994206 12.64959707 75.00994206 13.7578125 72.41796875 C14.15613281 71.58394531 14.55445313 70.74992187 14.96484375 69.890625 C19.91453554 57.09241795 16.57268514 41.48212739 11.6953125 29.16796875 C3.51941165 11.12293316 -7.90241981 -1.88499525 -26.58984375 -8.98828125 C-50.38871037 -16.63889279 -86.84121231 -15.10873282 -107.0546875 1.35546875 Z M-87.0546875 87.35546875 C-83.15845491 95.14793392 -78.86816241 101.80258148 -70.27734375 104.9140625 C-54.28802302 108.08944605 -41.16425801 101.93841626 -28.0546875 93.35546875 C-25.89707255 91.77672611 -24.00226171 90.19484439 -22.0546875 88.35546875 C-22.0546875 88.02546875 -22.0546875 87.69546875 -22.0546875 87.35546875 C-43.5046875 87.35546875 -64.9546875 87.35546875 -87.0546875 87.35546875 Z " fill="#000000" transform="translate(1008.0546875,81.64453125)"/>
<path d="M0 0 C22.9915289 19.38886768 36.71687073 46.88547738 39.5 76.8125 C41.61986318 111.89803219 32.33912971 144.77405564 9.5 171.8125 C8.82324219 172.63621094 8.14648438 173.45992187 7.44921875 174.30859375 C-10.58879184 195.44637216 -37.15060147 207.18610489 -64.5 209.8125 C-97.07059361 211.85161321 -128.74043794 201.72023314 -153.625 180.625 C-174.634128 160.90978912 -186.15885076 132.97010841 -187.62597656 104.35546875 C-188.72697392 68.23160612 -179.26995146 33.6197142 -155.5 5.8125 C-154.82453125 4.99136719 -154.1490625 4.17023437 -153.453125 3.32421875 C-113.73112574 -43.28389353 -44.50593377 -34.90169136 0 0 Z M-142.5 0.8125 C-143.74716797 1.91851563 -143.74716797 1.91851563 -145.01953125 3.046875 C-167.1931626 23.85866128 -180.21553176 56.40140112 -181.6262207 86.50610352 C-181.97991995 99.55704429 -181.69840246 112.11647922 -178.5 124.8125 C-178.33371094 125.47652832 -178.16742188 126.14055664 -177.99609375 126.82470703 C-171.31761715 152.4440853 -156.36548174 174.04040668 -133.5 187.8125 C-106.73533717 203.27760378 -75.54826192 208.03630991 -45.54345703 200.30859375 C-18.70517425 192.91625878 3.50481739 174.67988963 17.5 150.8125 C23.04591658 140.65791627 27.82074069 130.09786496 30.5 118.8125 C30.94472656 116.98332031 30.94472656 116.98332031 31.3984375 115.1171875 C37.85403534 85.7860058 32.83098552 54.57919758 17.5 28.8125 C9.33654268 16.16175207 -1.68956555 4.71320847 -14.5 -3.1875 C-15.51191406 -3.83203125 -16.52382812 -4.4765625 -17.56640625 -5.140625 C-56.69876215 -28.90117481 -107.20002083 -31.0577353 -142.5 0.8125 Z " fill="#000000" transform="translate(187.5,29.1875)"/>
<path d="M0 0 C0 1.65 0 3.3 0 5 C0.95519531 4.67515625 0.95519531 4.67515625 1.9296875 4.34375 C28.26341351 -3.20012907 54.60520721 3.34422139 77.9375 16.16015625 C83.06151275 19.23848534 87.77119959 22.77119959 92 27 C93.2655618 38.30787688 91.14190899 47.86862709 84.5390625 57.08984375 C80.37500381 62.25792674 76.05662346 64.46252938 69.5234375 65.328125 C62.82379803 65.74331392 58.99862295 64.3151595 53.48828125 60.59765625 C42.4867904 53.53390467 29.11495741 52.14883867 16.4609375 54.71875 C10.83010611 56.4864034 5.10052017 58.58727306 1 63 C0.01858233 66.06583843 0.14497259 68.98219146 0.25634766 72.17724609 C0.26186897 73.55135902 0.26186897 73.55135902 0.26750183 74.95323181 C0.27961651 76.93840908 0.30764827 78.92353904 0.34978104 80.90830612 C0.41467994 84.05335911 0.43420897 87.19577986 0.4414978 90.34146118 C0.46790234 98.15244287 0.56197484 105.96220788 0.67352295 113.7723999 C0.76740471 120.37303697 0.82608605 126.97193648 0.83350754 133.57326126 C0.851312 136.6674049 0.92139452 139.7576156 0.99258423 142.85092163 C1.11980277 156.39562324 1.11980277 156.39562324 -1.95916748 160.80696106 C-4.25460925 162.62674839 -6.31917257 163.84646496 -9 165 C-9.9590625 165.58652344 -10.918125 166.17304688 -11.90625 166.77734375 C-22.02030568 171.30125119 -33.41686197 171.85141549 -44 168.4375 C-49.67183435 166.02653677 -54.64599673 162.35400327 -59 158 C-59.11422229 156.02925884 -59.15748257 154.05439247 -59.17408752 152.08041382 C-59.18702347 150.79337555 -59.19995941 149.50633728 -59.21328735 148.18029785 C-59.22250833 146.74047951 -59.23156652 145.30066013 -59.24047852 143.86083984 C-59.25328411 142.35482511 -59.26641945 140.84881314 -59.27986145 139.34280396 C-59.39590844 125.57665724 -59.45241828 111.80977871 -59.49662876 98.04323387 C-59.52986255 87.86476757 -59.58939094 77.68719199 -59.68413979 67.50910795 C-59.7484818 60.35575861 -59.7821675 53.20265186 -59.79337829 46.04902422 C-59.80093884 41.77545812 -59.82211623 37.50296665 -59.87640572 33.22971725 C-59.92692133 29.20578098 -59.93942695 25.18348591 -59.92315483 21.15928268 C-59.92375762 19.68504697 -59.93799171 18.21074192 -59.96710205 16.73679352 C-60.17494026 5.62933168 -60.17494026 5.62933168 -57.25048637 1.57388687 C-42.27036049 -11.87034976 -17.1692027 -6.43845101 0 0 Z M-53 6 C-53.31678808 8.67821305 -53.31678808 8.67821305 -53.28088379 11.86347961 C-53.29230408 13.1127121 -53.30372437 14.36194458 -53.31549072 15.64903259 C-53.31798156 17.04116782 -53.32023173 18.43330349 -53.32226562 19.82543945 C-53.33152015 21.28558862 -53.34156922 22.74573293 -53.35235596 24.20587158 C-53.37862746 28.17910076 -53.39149852 32.15226232 -53.40037727 36.12556481 C-53.40623544 38.6071128 -53.41444444 41.08864223 -53.42338562 43.57018089 C-53.45074274 51.33201079 -53.47007205 59.09379836 -53.4777894 66.85567313 C-53.48675079 75.81995869 -53.52184297 84.7836343 -53.57979059 93.74773437 C-53.62300935 100.67349829 -53.64319715 107.59909052 -53.64587164 114.52498788 C-53.64796903 118.66299279 -53.65980887 122.80042464 -53.69551086 126.93828773 C-53.7284481 130.83157453 -53.73279749 134.72385689 -53.71523285 138.61723328 C-53.71369062 140.04550045 -53.72239808 141.47382131 -53.74214935 142.90195274 C-54.12541113 150.25779901 -54.12541113 150.25779901 -51.69519043 156.9370327 C-49.95612916 158.519128 -49.95612916 158.519128 -47 160 C-46.26136719 160.43828125 -45.52273437 160.8765625 -44.76171875 161.328125 C-36.07100186 165.19066584 -28.13391662 166.02205253 -19 163 C-12.00114198 159.7431399 -12.00114198 159.7431399 -6 155 C-5.824029 152.01803143 -5.77250552 149.12902163 -5.80810547 146.14746094 C-5.81091019 145.23021744 -5.8137149 144.31297394 -5.81660461 143.36793518 C-5.8231145 141.3713798 -5.83371354 139.37483462 -5.84786606 137.37831879 C-5.86729113 134.21751296 -5.86953872 131.05716013 -5.86599731 127.89630127 C-5.85629062 118.90770817 -5.8559228 109.91955632 -5.92089844 100.93115234 C-5.9593626 95.43662271 -5.9590097 89.94326565 -5.93332291 84.44867706 C-5.93090764 82.35470476 -5.94300206 80.26066335 -5.96990585 78.16686249 C-6.00605242 75.23328516 -5.99273098 72.30372791 -5.96826172 69.37011719 C-5.99081528 68.50651077 -6.01336884 67.64290436 -6.03660583 66.75312805 C-5.96136972 63.08857184 -5.83134248 60.88972377 -3.26787186 58.1462326 C0.59960106 55.18339362 4.65004809 52.9797036 9.1875 51.1875 C10.17105469 50.78917969 11.15460938 50.39085937 12.16796875 49.98046875 C25.89885401 45.22674158 40.53617477 47.68260078 53.43359375 53.56640625 C61.51828917 57.51828917 61.51828917 57.51828917 63 59 C68.59360255 59.37922729 72.21428417 59.22515632 77 56 C83.60077828 50.04477461 85.94291657 43.07083434 86.8125 34.375 C86.69274967 31.06344269 86.47493053 29.54757972 84.2890625 27.02734375 C81.62791735 25.08674123 78.90727564 23.54886996 76 22 C74.86433594 21.33097656 73.72867188 20.66195312 72.55859375 19.97265625 C52.97278736 8.63267218 30.30972511 4.20039427 8 9 C3.2031981 10.33389802 -1.53696502 11.76848251 -6 14 C-6 10.7 -6 7.4 -6 4 C-30.60377937 -2.65826876 -30.60377937 -2.65826876 -53 6 Z " fill="#000000" transform="translate(293,63)"/>
<path d="M0 0 C0 53.46 0 106.92 0 162 C-9.18608798 165.93689485 -16.04078231 167.34631781 -25.875 167.3125 C-26.80441406 167.32861328 -27.73382813 167.34472656 -28.69140625 167.36132812 C-36.76821132 167.36696049 -43.83175324 165.75960565 -51 162 C-51 160.35 -51 158.7 -51 157 C-51.81339844 157.20496094 -52.62679687 157.40992188 -53.46484375 157.62109375 C-75.74731885 162.85960589 -98.88610468 162.54258156 -119.203125 150.88671875 C-137.08541636 138.82366466 -146.79703021 120.74321904 -151.6875 100.09765625 C-156.25097773 75.98094408 -153.1173978 49.14650956 -140.859375 27.7265625 C-137.14942929 22.28634799 -132.63462542 17.65468873 -128 13 C-127.36449219 12.3296875 -126.72898437 11.659375 -126.07421875 10.96875 C-113.93495763 -0.87443158 -95.30029714 -6.26826609 -78.6875 -6.4375 C-70.16268327 -6.20186834 -62.46202354 -4.72469044 -54.8125 -0.9375 C-51.199921 0.3791454 -51.199921 0.3791454 -48.828125 -1.04296875 C-47.28918119 -2.11757607 -45.7724786 -3.22460599 -44.27734375 -4.359375 C-30.22762456 -14.48095658 -13.39365426 -7.44091903 0 0 Z M-45 3 C-45.6950739 5.49407252 -45.6950739 5.49407252 -45.75 8.1875 C-45.83507812 9.53908203 -45.83507812 9.53908203 -45.921875 10.91796875 C-45.94765625 11.60503906 -45.9734375 12.29210937 -46 13 C-46.52207031 12.46890625 -47.04414063 11.9378125 -47.58203125 11.390625 C-57.66121509 1.7174328 -68.95149803 -0.5387424 -82.609375 -0.26953125 C-99.17934879 0.47399321 -114.6833059 7.72798836 -126.50390625 19.25 C-144.12810243 38.66695479 -148.16287802 61.68373572 -147.16845703 87.20166016 C-146.08804365 105.14904881 -139.45947519 125.45496898 -126 138 C-111.01099417 150.8445281 -94.47348682 155.67005546 -75 155 C-71.45863995 154.68451135 -67.95414423 154.20685745 -64.4375 153.6875 C-63.11588867 153.51057617 -63.11588867 153.51057617 -61.76757812 153.33007812 C-55.88838968 152.48399566 -50.58504497 151.02422442 -45 149 C-45 151.97 -45 154.94 -45 158 C-33.60044852 163.04210931 -20.03181046 163.4905113 -8.30444336 158.95825195 C-7.54397705 158.64202881 -6.78351074 158.32580566 -6 158 C-5.85990911 137.99007263 -5.75406794 117.98024461 -5.68912697 97.96992874 C-5.65817375 88.67900461 -5.61596546 79.38838496 -5.54736328 70.09765625 C-5.48760585 62.00091183 -5.44886151 53.90438788 -5.43546903 45.80742908 C-5.42763893 41.51903924 -5.40920699 37.23128021 -5.36561966 32.94309235 C-5.32493577 28.90791064 -5.31232197 24.87362034 -5.32135391 20.83825302 C-5.31970133 19.3563312 -5.30774002 17.87438001 -5.28476715 16.39263535 C-5.25495951 14.37112676 -5.26565869 12.34914134 -5.2784729 10.32745361 C-5.27294214 9.19549183 -5.26741138 8.06353004 -5.26171303 6.89726639 C-5.76472737 3.71207453 -5.76472737 3.71207453 -8.89592552 1.66996384 C-19.95305332 -4.27867035 -35.07421065 -6.35192144 -45 3 Z " fill="#000000" transform="translate(539,66)"/>
<path d="M0 0 C3.5784655 2.781559 6.82253877 5.77138108 10 9 C10.58652344 9.5878125 11.17304688 10.175625 11.77734375 10.78125 C22.68881753 22.55342528 24.76375477 37.41484088 24.34765625 52.82421875 C23.4758822 69.9566099 15.18350172 83.53598481 2.84375 95.00390625 C-7.91186821 104.02537587 -21.08408639 107.48866173 -34.9375 106.875 C-51.49434816 105.28860596 -65.23744307 98.72970267 -76 86 C-85.74876426 73.06454291 -88.07549151 57.29495001 -86.375 41.5 C-84.47136057 29.3469642 -80.22805797 18.93452811 -73 9 C-72.52820313 8.34386719 -72.05640625 7.68773438 -71.5703125 7.01171875 C-54.08038885 -15.27064161 -22.21097709 -14.08045111 0 0 Z M-68.92578125 13.23046875 C-78.68675797 26.26348663 -82.33627921 42.66212108 -80.59765625 58.71484375 C-78.13229653 71.916918 -72.32865599 84.09861806 -61.171875 92.00390625 C-48.63513319 99.70275154 -35.21183219 102.797055 -20.6875 99.875 C-7.94543759 96.70789778 2.48395946 89.6102929 9.8125 78.6875 C18.16064958 64.78037379 20.16472138 49.23197983 17.3515625 33.3359375 C13.44483805 20.68082155 5.42879056 9.78504011 -6.14453125 3.21484375 C-29.12554366 -7.88037814 -51.6763998 -6.84865416 -68.92578125 13.23046875 Z " fill="#000000" transform="translate(144,73)"/>
<path d="M0 0 C9.16057738 5.71962594 14.38922995 12.90767991 17.3125 23.2734375 C20.20527102 36.45374518 17.85700901 49.07035306 10.83984375 60.5234375 C5.88990531 67.49325007 -1.19471261 72.38850268 -9.61328125 74.1796875 C-20.37776396 75.70754956 -31.3371317 73.80104987 -40.41015625 67.7109375 C-48.19902867 61.67730393 -52.92799571 53.47837547 -54.41015625 43.7109375 C-55.5093194 29.43983565 -52.4604858 16.98675792 -43.41015625 5.7109375 C-31.94941835 -5.94405019 -14.121907 -7.55304588 0 0 Z M-41.41015625 12.7109375 C-47.95491256 23.43864676 -50.47017772 34.32901114 -47.7265625 46.82421875 C-44.76725595 55.70213839 -40.19959301 61.46332155 -31.82421875 65.70703125 C-23.53198123 69.15542129 -14.85200674 69.61708221 -6.21875 67.0625 C1.45520137 63.78868122 6.86535532 57.09166251 10.02734375 49.5234375 C13.54290691 39.47233401 13.68303145 29.32693748 9.66015625 19.421875 C5.95932423 11.99468798 0.11815154 5.75618771 -7.72265625 2.7109375 C-20.67766258 -0.74825267 -32.68146847 2.4052179 -41.41015625 12.7109375 Z " fill="#000000" transform="translate(797.41015625,110.2890625)"/>
<path d="M0 0 C8.05002439 6.26438262 12.60789422 15.70194397 14.1484375 25.671875 C14.67876175 35.07493189 14.52112248 43.75105021 11.1484375 52.671875 C10.88160156 53.38730469 10.61476563 54.10273438 10.33984375 54.83984375 C7.34325192 61.72534586 2.21247494 66.94487208 -4.2890625 70.609375 C-13.76620811 73.43589211 -20.64094436 72.56179625 -29.8515625 68.671875 C-38.07822801 64.19693058 -44.2068069 58.30571382 -47.7265625 49.546875 C-51.21434073 37.52649647 -48.65099644 25.98837863 -43.2265625 15.109375 C-39.10087905 7.89964105 -33.07902109 0.63763711 -25.2734375 -2.734375 C-16.7416084 -4.82604923 -7.64246687 -4.51946546 0 0 Z M-32 9.58984375 C-40.18563884 18.79437013 -43.57299161 29.04744959 -43.2578125 41.234375 C-42.29638401 49.36953915 -38.35109558 55.15365085 -32.02734375 60.203125 C-26.51685784 63.92295032 -20.56630023 66.55196897 -13.8515625 66.671875 C-8.07323033 65.52433276 -2.59184229 63.39371993 1.1484375 58.671875 C7.7682046 47.46799689 9.84350684 36.65543301 7.65234375 23.75 C5.36336091 15.42172347 1.33780264 8.5606433 -5.8515625 3.671875 C-15.9636904 0.01058731 -24.31580661 2.31894363 -32 9.58984375 Z " fill="#000000" transform="translate(476.8515625,110.328125)"/>
<path d="M0 0 C7.71506677 6.47292722 13.57017644 14.5191911 17.3125 23.875 C17.3125 24.535 17.3125 25.195 17.3125 25.875 C-8.7575 25.875 -34.8275 25.875 -61.6875 25.875 C-60.02792842 15.91757053 -54.98714042 5.98259829 -46.6875 -0.125 C-32.15320205 -9.28258975 -14.19461285 -10.29900727 0 0 Z M-46.6875 7.875 C-49.72629284 11.60965086 -52.16189548 15.29818644 -53.6875 19.875 C-33.2275 19.875 -12.7675 19.875 8.3125 19.875 C-0.30968212 6.8366671 -0.30968212 6.8366671 -13.54296875 -0.7109375 C-25.47958489 -3.01563934 -37.56132512 -0.22360939 -46.6875 7.875 Z " fill="#000000" transform="translate(974.6875,112.125)"/>
<path d="M0 0 C2.8100346 1.79363911 4.50940468 3.01880935 6 6 C6.50761671 10.39934481 6.25800237 12.54225386 4.0625 16.4375 C0.46521985 19.4474691 -1.28762973 19.79461505 -5.84375 19.4453125 C-9.2596485 18.7398552 -10.82048981 17.72438773 -13 15 C-13.98360694 12.26452507 -14.29992854 9.89375495 -14 7 C-10.55894767 0.47386627 -7.2947632 -1.04809816 0 0 Z " fill="#000000" transform="translate(116,22)"/>
<path d="M0 0 C2.375 1.0625 2.375 1.0625 4 3 C5 6.375 5 6.375 5 10 C3.13326675 13.43478919 1.84387533 14.68120265 -1.8125 16.0625 C-6.21579583 15.97616087 -8.34878206 14.40980384 -12 12 C-11.74476126 10.37247769 -11.47025506 8.74796804 -11.1875 7.125 C-11.03667969 6.22007813 -10.88585937 5.31515625 -10.73046875 4.3828125 C-9.10286335 -0.92648853 -4.72757768 -0.4146998 0 0 Z " fill="#000000" transform="translate(518,74)"/>
<path d="M0 0 C2.4375 1.625 2.4375 1.625 4 4 C4.5625 6.9375 4.5625 6.9375 4 10 C1.875 12.9375 1.875 12.9375 -1 15 C-4.66441916 15.07478406 -6.39914885 14.42692056 -9.375 12.3125 C-11.51417751 9.26828585 -11.60817046 7.64902278 -11 4 C-8.05899778 -0.47032338 -5.13105401 -0.73300772 0 0 Z " fill="#000000" transform="translate(265,71)"/>
<path d="M0 0 C2.375 1.5625 2.375 1.5625 4 4 C4.5625 7.5 4.5625 7.5 4 11 C2 13.5 2 13.5 -1 15 C-3.83060738 15.02092871 -6.19727195 14.57004638 -9 14 C-11.02104587 9.95790826 -11.32367554 7.34921964 -10 3 C-7.02991864 -0.3000904 -4.31091137 -0.62867458 0 0 Z " fill="#000000" transform="translate(489,91)"/>
<path d="M0 0 C1.9375 1.625 1.9375 1.625 3 4 C2.93439072 7.739729 2.76345433 10.0603639 0.375 13 C-3.14974145 14.48410166 -5.36810976 14.05654989 -9 13 C-11.36604164 10.33820316 -12.04466185 8.93789883 -11.875 5.375 C-9.66456654 -0.62474796 -5.87190046 -1.55785114 0 0 Z " fill="#000000" transform="translate(579,77)"/>
<path d="M0 0 C2.375 1.5625 2.375 1.5625 4 4 C4.5625 7.5 4.5625 7.5 4 11 C1.875 13.5 1.875 13.5 -1 15 C-4.18409977 14.936318 -6.14932332 14.51040601 -8.875 12.875 C-10.70099685 9.83167192 -10.42460581 7.45750445 -10 4 C-7.26646839 -0.10029741 -4.80388991 -0.80064832 0 0 Z " fill="#000000" transform="translate(832,99)"/>
<path d="M0 0 C2.4375 1.625 2.4375 1.625 4 4 C4.60605429 7.63632575 4.47161336 9.28314769 2.4375 12.375 C-0.8994213 14.5996142 -3.06905293 14.50030235 -7 14 C-8.9375 13 -8.9375 13 -10 11 C-10.52960415 7.41957756 -10.65886567 4.24021772 -8.9375 1 C-5.82090489 -0.60856522 -3.43737531 -0.42213381 0 0 Z " fill="#000000" transform="translate(896,143)"/>
<path d="M0 0 C0 0.99 0 1.98 0 3 C-1.32 3.33 -2.64 3.66 -4 4 C-4 4.66 -4 5.32 -4 6 C-1.03 6.495 -1.03 6.495 2 7 C2.33 8.32 2.66 9.64 3 11 C0.36 10.34 -2.28 9.68 -5 9 C-4.67 10.98 -4.34 12.96 -4 15 C-7 14 -7 14 -8.16796875 11.93359375 C-8.50441406 11.10988281 -8.84085938 10.28617188 -9.1875 9.4375 C-9.70376953 8.19806641 -9.70376953 8.19806641 -10.23046875 6.93359375 C-10.48441406 6.29550781 -10.73835938 5.65742187 -11 5 C-9.73461631 4.15841464 -8.46246221 3.32700252 -7.1875 2.5 C-6.47980469 2.0359375 -5.77210938 1.571875 -5.04296875 1.09375 C-3 0 -3 0 0 0 Z " fill="#000000" transform="translate(137,28)"/>
<path d="M0 0 C0.721875 0.515625 1.44375 1.03125 2.1875 1.5625 C4.8562818 3.23330642 4.8562818 3.23330642 7.5625 2.8125 C9.8495712 2.05014293 11.89451994 1.16971114 14 0 C14 4 14 4 12.6875 5.703125 C12.130625 6.21359375 11.57375 6.7240625 11 7.25 C10.443125 7.77078125 9.88625 8.2915625 9.3125 8.828125 C8.6628125 9.40820312 8.6628125 9.40820312 8 10 C4.18315774 8.44499019 1.80804268 5.96404505 -1 3 C-0.67 2.01 -0.34 1.02 0 0 Z " fill="#000000" transform="translate(657,206)"/>
<path d="M0 0 C0.886875 0.515625 1.77375 1.03125 2.6875 1.5625 C6.24935639 3.10821126 7.41936144 3.2580622 11 2 C11.99 1.34 12.98 0.68 14 0 C14 4 14 4 12.46875 5.703125 C10.64583333 7.13541667 8.82291667 8.56770833 7 10 C4.36 7.69 1.72 5.38 -1 3 C-0.67 2.01 -0.34 1.02 0 0 Z " fill="#000000" transform="translate(568,203)"/>
<path d="M0 0 C1.6254308 0.14095064 3.25034051 0.28792087 4.875 0.4375 C5.77992188 0.51871094 6.68484375 0.59992188 7.6171875 0.68359375 C10 1 10 1 12 2 C11.34 5.63 10.68 9.26 10 13 C9.01 13 8.02 13 7 13 C7.33 11.02 7.66 9.04 8 7 C7.01 6.67 6.02 6.34 5 6 C5 5.01 5 4.02 5 3 C3.35 3 1.7 3 0 3 C0 2.01 0 1.02 0 0 Z " fill="#000000" transform="translate(993,189)"/>
<path d="M0 0 C0 0.99 0 1.98 0 3 C-1.65 3.33 -3.3 3.66 -5 4 C-5 4.99 -5 5.98 -5 7 C-5.66 7 -6.32 7 -7 7 C-6.67 8.98 -6.34 10.96 -6 13 C-6.99 13.33 -7.98 13.66 -9 14 C-10.29243536 9.8803623 -11.26252625 6.33168317 -11 2 C-3.375 0 -3.375 0 0 0 Z " fill="#000000" transform="translate(739,247)"/>
<path d="M0 0 C1.6498275 0.42218816 3.29483665 0.86324425 4.9375 1.3125 C6.31228516 1.67794922 6.31228516 1.67794922 7.71484375 2.05078125 C8.46894531 2.36402344 9.22304688 2.67726562 10 3 C11.21386936 6.64160808 10.6674695 7.33165469 9.0625 10.6875 C8.49208984 11.89986328 8.49208984 11.89986328 7.91015625 13.13671875 C7.60980469 13.75160156 7.30945313 14.36648437 7 15 C6.34 14.67 5.68 14.34 5 14 C5.20625 13.21625 5.4125 12.4325 5.625 11.625 C5.810625 10.325625 5.810625 10.325625 6 9 C5.34 8.34 4.68 7.68 4 7 C4 6.01 4 5.02 4 4 C2.68 3.67 1.36 3.34 0 3 C0 2.01 0 1.02 0 0 Z " fill="#000000" transform="translate(487,179)"/>
<path d="M0 0 C2.86724686 0.57344937 3.8614515 0.8614515 6 3 C6.9075 2.690625 7.815 2.38125 8.75 2.0625 C11.16563338 1.2727737 13.52780285 0.57050703 16 0 C14.44499019 3.81684226 11.96404505 6.19195732 9 9 C5.18063472 7.44396229 2.73955562 5.04395069 0 2 C0 1.34 0 0.68 0 0 Z " fill="#000000" transform="translate(506,202)"/>
<path d="M0 0 C0.99 0 1.98 0 3 0 C3 3.3 3 6.6 3 10 C1.02 10 -0.96 10 -3 10 C-3 8.68 -3 7.36 -3 6 C-2.34 5.67 -1.68 5.34 -1 5 C-0.34444881 2.47266765 -0.34444881 2.47266765 0 0 Z " fill="#000000" transform="translate(828,186)"/>
<path d="M0 0 C2.475 0.495 2.475 0.495 5 1 C4.34 4.3 3.68 7.6 3 11 C2.01 11.33 1.02 11.66 0 12 C0 8.04 0 4.08 0 0 Z " fill="#000000" transform="translate(261,118)"/>
<path d="M0 0 C3.25597758 0.24118352 4.7276304 1.52224212 6.8125 3.875 C7.534375 4.90625 8.25625 5.9375 9 7 C8.67 7.99 8.34 8.98 8 10 C6 10 6 10 4.4921875 8.57421875 C3.95851563 7.95160156 3.42484375 7.32898438 2.875 6.6875 C2.33617187 6.07261719 1.79734375 5.45773438 1.2421875 4.82421875 C0 3 0 3 0 0 Z " fill="#000000" transform="translate(651,101)"/>
<path d="M0 0 C2.67901932 2.31881505 3.66204403 4.31814468 4.6875 7.6875 C4.93886719 8.49574219 5.19023437 9.30398437 5.44921875 10.13671875 C5.63097656 10.75160156 5.81273437 11.36648437 6 12 C5.01 12.33 4.02 12.66 3 13 C2.29819469 11.5903653 1.61406042 10.17192359 0.9375 8.75 C0.55464844 7.96109375 0.17179688 7.1721875 -0.22265625 6.359375 C-1.08564091 3.74006478 -0.93045933 2.55144824 0 0 Z " fill="#000000" transform="translate(189,80)"/>
<path d="M0 0 C0.99 0.33 1.98 0.66 3 1 C1.35 4.63 -0.3 8.26 -2 12 C-2.99 12 -3.98 12 -5 12 C-4.54738642 10.56068883 -4.08767021 9.12361001 -3.625 7.6875 C-3.24214844 6.48673828 -3.24214844 6.48673828 -2.8515625 5.26171875 C-2 3 -2 3 0 0 Z " fill="#000000" transform="translate(38,74)"/>
<path d="M0 0 C0 3 0 3 -1.75 4.82421875 C-2.4925 5.43910156 -3.235 6.05398437 -4 6.6875 C-4.7425 7.31011719 -5.485 7.93273438 -6.25 8.57421875 C-6.8275 9.04472656 -7.405 9.51523437 -8 10 C-8.99 9.01 -9.98 8.02 -11 7 C-9.73742767 5.82439821 -8.46462916 4.65977135 -7.1875 3.5 C-6.12595703 2.52546875 -6.12595703 2.52546875 -5.04296875 1.53125 C-3 0 -3 0 0 0 Z " fill="#000000" transform="translate(65,44)"/>
<path d="M0 0 C0 0.99 0 1.98 0 3 C-3.96 3.66 -7.92 4.32 -12 5 C-12.33 4.01 -12.66 3.02 -13 2 C-4.57142857 -0.28571429 -4.57142857 -0.28571429 0 0 Z " fill="#000000" transform="translate(133,208)"/>
<path d="M0 0 C1.60463449 0.31008884 3.20869231 0.62316287 4.8125 0.9375 C5.70582031 1.11152344 6.59914063 1.28554687 7.51953125 1.46484375 C10 2 10 2 13 3 C12.67 3.99 12.34 4.98 12 6 C6.06 4.515 6.06 4.515 0 3 C0 2.01 0 1.02 0 0 Z " fill="#000000" transform="translate(81,205)"/>
<path d="M0 0 C-1.59231949 4.29926263 -4.39313359 6.35005733 -8 9 C-8.99 9 -9.98 9 -11 9 C-11 8.01 -11 7.02 -11 6 C-9.35546875 4.39453125 -9.35546875 4.39453125 -7.1875 2.8125 C-6.47980469 2.28269531 -5.77210938 1.75289062 -5.04296875 1.20703125 C-3 0 -3 0 0 0 Z " fill="#000000" transform="translate(168,190)"/>
<path d="M0 0 C0.99 0 1.98 0 3 0 C2.54738642 1.43931117 2.08767021 2.87638999 1.625 4.3125 C1.36976563 5.11300781 1.11453125 5.91351563 0.8515625 6.73828125 C0 9 0 9 -2 12 C-2.99 11.67 -3.98 11.34 -5 11 C-3.35 7.37 -1.7 3.74 0 0 Z " fill="#000000" transform="translate(188,158)"/>
<path d="M0 0 C0.99 0 1.98 0 3 0 C3.02708567 1.60407328 3.04643483 3.2082785 3.0625 4.8125 C3.07410156 5.70582031 3.08570313 6.59914063 3.09765625 7.51953125 C3 10 3 10 2 13 C1.01 13 0.02 13 -1 13 C-0.67 8.71 -0.34 4.42 0 0 Z " fill="#000000" transform="translate(196,119)"/>
<path d="M0 0 C0.99 0 1.98 0 3 0 C3.50833591 1.24663331 4.00631145 2.49749387 4.5 3.75 C4.7784375 4.44609375 5.056875 5.1421875 5.34375 5.859375 C6 8 6 8 6 12 C5.01 12 4.02 12 3 12 C2.49440092 10.56445975 1.9957251 9.1264798 1.5 7.6875 C1.2215625 6.88699219 0.943125 6.08648437 0.65625 5.26171875 C0 3 0 3 0 0 Z " fill="#000000" transform="translate(29,151)"/>
<path d="M0 0 C-0.33 0.99 -0.66 1.98 -1 3 C-3.28515625 3.94921875 -3.28515625 3.94921875 -6.0625 4.6875 C-7.44115234 5.06455078 -7.44115234 5.06455078 -8.84765625 5.44921875 C-9.55792969 5.63097656 -10.26820313 5.81273438 -11 6 C-11.33 5.01 -11.66 4.02 -12 3 C-10.3789897 2.30314502 -8.75303934 1.61777139 -7.125 0.9375 C-6.22007812 0.55464844 -5.31515625 0.17179687 -4.3828125 -0.22265625 C-2 -1 -2 -1 0 0 Z " fill="#000000" transform="translate(621,99)"/>
<path d="M0 0 C3.98021881 2.16069021 6.97250324 4.62650361 10 8 C10 8.66 10 9.32 10 10 C6.60807637 9.40716379 4.7892243 8.23256811 2.25 5.9375 C1.63640625 5.38964844 1.0228125 4.84179688 0.390625 4.27734375 C-0.06828125 3.85582031 -0.5271875 3.43429688 -1 3 C-0.67 2.01 -0.34 1.02 0 0 Z " fill="#000000" transform="translate(164,49)"/>
<path d="M0 0 C0.48210938 0.42152344 0.96421875 0.84304687 1.4609375 1.27734375 C2.09257813 1.82519531 2.72421875 2.37304688 3.375 2.9375 C4.00148438 3.48277344 4.62796875 4.02804688 5.2734375 4.58984375 C6.95632334 6.06958624 6.95632334 6.06958624 9 7 C9 7.99 9 8.98 9 10 C5.64749299 9.42424336 4.06181371 8.40693737 1.75 5.9375 C1.22921875 5.38964844 0.7084375 4.84179688 0.171875 4.27734375 C-0.21484375 3.85582031 -0.6015625 3.43429688 -1 3 C-0.67 2.01 -0.34 1.02 0 0 Z " fill="#000000" transform="translate(49,184)"/>
<path d="M0 0 C0.99 0 1.98 0 3 0 C3 3.96 3 7.92 3 12 C2.01 12 1.02 12 0 12 C0 8.04 0 4.08 0 0 Z " fill="#000000" transform="translate(261,182)"/>
<path d="M0 0 C0.99 0 1.98 0 3 0 C3 3.96 3 7.92 3 12 C2.01 12 1.02 12 0 12 C0 8.04 0 4.08 0 0 Z " fill="#000000" transform="translate(828,144)"/>
<path d="M0 0 C3.1744176 1.09462676 3.98914157 1.98177335 5.75 4.9375 C7 8 7 8 7 11 C6.01 11 5.02 11 4 11 C3.32591692 9.73308493 2.66099503 8.46129251 2 7.1875 C1.62875 6.47980469 1.2575 5.77210938 0.875 5.04296875 C0 3 0 3 0 0 Z " fill="#000000" transform="translate(1002,123)"/>
<path d="M0 0 C1.12894876 0.93274109 2.25300876 1.87140122 3.375 2.8125 C4.00148438 3.33457031 4.62796875 3.85664062 5.2734375 4.39453125 C7 6 7 6 9 9 C8.01 9.66 7.02 10.32 6 11 C4.80040625 9.74057614 3.61560557 8.46704714 2.4375 7.1875 C1.44556641 6.12595703 1.44556641 6.12595703 0.43359375 5.04296875 C-0.03949219 4.36878906 -0.51257813 3.69460937 -1 3 C-0.67 2.01 -0.34 1.02 0 0 Z " fill="#000000" transform="translate(989,105)"/>
<path d="M0 0 C0 0.66 0 1.32 0 2 C-4.95 4.475 -4.95 4.475 -10 7 C-10 5.68 -10 4.36 -10 3 C-3.375 -1.125 -3.375 -1.125 0 0 Z " fill="#000000" transform="translate(756,95)"/>
<path d="M0 0 C0.66 0.33 1.32 0.66 2 1 C1 4 1 4 -2.3125 5.75 C-6.97563098 7.33072237 -6.97563098 7.33072237 -10 6 C-7.31100548 2.67830089 -3.94687492 1.43522725 0 0 Z " fill="#000000" transform="translate(299,93)"/>
<path d="M0 0 C4.10958767 1.45044271 7.43258745 3.51110752 11 6 C10.67 6.66 10.34 7.32 10 8 C6.2089881 6.55049545 2.6125362 4.84827434 -1 3 C-0.67 2.01 -0.34 1.02 0 0 Z " fill="#000000" transform="translate(971,92)"/>
<path d="M0 0 C0 0.99 0 1.98 0 3 C-5.94 3.495 -5.94 3.495 -12 4 C-12 3.01 -12 2.02 -12 1 C-7.9472484 0.01751476 -4.16138263 -0.08159574 0 0 Z " fill="#000000" transform="translate(101,30)"/>
<path d="M0 0 C0 0.99 0 1.98 0 3 C-5.94 3.495 -5.94 3.495 -12 4 C-12 3.01 -12 2.02 -12 1 C-7.95858806 0.36605303 -4.0934693 -0.12404452 0 0 Z " fill="#000000" transform="translate(794,202)"/>
<path d="M0 0 C0.99 0.33 1.98 0.66 3 1 C3 4.63 3 8.26 3 12 C2.01 12 1.02 12 0 12 C0 8.04 0 4.08 0 0 Z " fill="#000000" transform="translate(261,139)"/>
<path d="M0 0 C0 0.99 0 1.98 0 3 C-1.6796875 4.38671875 -1.6796875 4.38671875 -3.875 5.6875 C-4.59429688 6.12449219 -5.31359375 6.56148438 -6.0546875 7.01171875 C-8 8 -8 8 -10 8 C-9.875 6.25 -9.875 6.25 -9 4 C-3.88888889 0 -3.88888889 0 0 0 Z " fill="#000000" transform="translate(601,108)"/>
<path d="M0 0 C0.99 0.33 1.98 0.66 3 1 C3 4.63 3 8.26 3 12 C2.01 12 1.02 12 0 12 C0 8.04 0 4.08 0 0 Z " fill="#000000" transform="translate(261,96)"/>
<path d="M0 0 C3.63 0 7.26 0 11 0 C11 0.99 11 1.98 11 3 C7.04 3 3.08 3 -1 3 C-0.67 2.01 -0.34 1.02 0 0 Z " fill="#000000" transform="translate(311,90)"/>
<path d="M0 0 C0 0.99 0 1.98 0 3 C-3.63 3.66 -7.26 4.32 -11 5 C-11.33 4.01 -11.66 3.02 -12 2 C-10.7625 1.67 -9.525 1.34 -8.25 1 C-7.55390625 0.814375 -6.8578125 0.62875 -6.140625 0.4375 C-4 0 -4 0 0 0 Z " fill="#000000" transform="translate(776,88)"/>
<path d="M0 0 C0.99 0.33 1.98 0.66 3 1 C1.34832443 4.5786304 -0.78286492 7.74820188 -3 11 C-3.99 10.01 -4.98 9.02 -6 8 C-4.02 5.36 -2.04 2.72 0 0 Z " fill="#000000" transform="translate(821,234)"/>
<path d="M0 0 C0.66 0 1.32 0 2 0 C2.66 3.63 3.32 7.26 4 11 C3.01 11 2.02 11 1 11 C-0.62950412 6.87831311 -1.26264601 4.29299643 0 0 Z " fill="#000000" transform="translate(723,163)"/>
<path d="M0 0 C0.99 0 1.98 0 3 0 C3.08159574 4.16138263 2.98248524 7.9472484 2 12 C1.01 12 0.02 12 -1 12 C-0.67 8.04 -0.34 4.08 0 0 Z " fill="#000000" transform="translate(26,112)"/>
<path d="M0 0 C0.99 0.33 1.98 0.66 3 1 C0.35039045 4.63094642 -2.01824456 6.89851796 -6 9 C-6 5 -6 5 -3.1875 2.1875 C-2.135625 1.465625 -1.08375 0.74375 0 0 Z " fill="#000000" transform="translate(279,104)"/>
<path d="M0 0 C4.3890815 0.51035831 7.33708062 1.52214277 11 4 C10.67 4.99 10.34 5.98 10 7 C6.7 5.35 3.4 3.7 0 2 C0 1.34 0 0.68 0 0 Z " fill="#000000" transform="translate(806,94)"/>
<path d="M0 0 C1.45880109 0.14107747 2.91703551 0.28802415 4.375 0.4375 C5.59316406 0.55931641 5.59316406 0.55931641 6.8359375 0.68359375 C9 1 9 1 11 2 C11 2.99 11 3.98 11 5 C7.37 4.34 3.74 3.68 0 3 C0 2.01 0 1.02 0 0 Z " fill="#000000" transform="translate(332,91)"/>
<path d="M0 0 C0 0.66 0 1.32 0 2 C-3.82320557 3.42258812 -6.91281305 4.24042276 -11 4 C-11 3.01 -11 2.02 -11 1 C-3.375 -1.125 -3.375 -1.125 0 0 Z " fill="#000000" transform="translate(793,261)"/>
<path d="M0 0 C-1.48781815 3.78717347 -3.61988409 5.77407001 -7 8 C-7.99 7.67 -8.98 7.34 -10 7 C-10 6.34 -10 5.68 -10 5 C-8.57421875 3.7109375 -8.57421875 3.7109375 -6.6875 2.375 C-6.07261719 1.92898437 -5.45773437 1.48296875 -4.82421875 1.0234375 C-3 0 -3 0 0 0 Z " fill="#000000" transform="translate(810,250)"/>
<path d="M0 0 C3.63 0.33 7.26 0.66 11 1 C11 1.99 11 2.98 11 4 C9.54176788 4.0270043 8.08339325 4.04639787 6.625 4.0625 C5.81289063 4.07410156 5.00078125 4.08570313 4.1640625 4.09765625 C2 4 2 4 0 3 C0 2.01 0 1.02 0 0 Z " fill="#000000" transform="translate(761,203)"/>
<path d="M0 0 C0 0.99 0 1.98 0 3 C-5.445 4.485 -5.445 4.485 -11 6 C-10.67 4.68 -10.34 3.36 -10 2 C-8.7090864 1.66376204 -7.41723903 1.33110751 -6.125 1 C-5.40570312 0.814375 -4.68640625 0.62875 -3.9453125 0.4375 C-2 0 -2 0 0 0 Z " fill="#000000" transform="translate(815,197)"/>
<path d="M0 0 C3.91211733 1.15585285 6.8745041 2.35534962 10 5 C9.67 5.66 9.34 6.32 9 7 C4.56909529 5.79157144 2.01887244 4.48331435 -1 1 C-0.67 0.67 -0.34 0.34 0 0 Z " fill="#000000" transform="translate(743,196)"/>
<path d="M0 0 C0.99 0 1.98 0 3 0 C4.32 2.97 5.64 5.94 7 9 C5.68 9 4.36 9 3 9 C0 3.375 0 3.375 0 0 Z " fill="#000000" transform="translate(898,182)"/>
<path d="M0 0 C0.99 0 1.98 0 3 0 C3 3.63 3 7.26 3 11 C2.01 11 1.02 11 0 11 C0 7.37 0 3.74 0 0 Z " fill="#000000" transform="translate(828,165)"/>
<path d="M0 0 C0.99 0 1.98 0 3 0 C3 3.63 3 7.26 3 11 C2.01 11 1.02 11 0 11 C0 7.37 0 3.74 0 0 Z " fill="#000000" transform="translate(261,161)"/>
<path d="M0 0 C0.99 0 1.98 0 3 0 C3 3.63 3 7.26 3 11 C2.01 11 1.02 11 0 11 C0 7.37 0 3.74 0 0 Z " fill="#000000" transform="translate(828,124)"/>
<path d="M0 0 C0.99 0.33 1.98 0.66 3 1 C2.01 4.3 1.02 7.6 0 11 C-0.99 10.67 -1.98 10.34 -3 10 C-2.01 6.7 -1.02 3.4 0 0 Z " fill="#000000" transform="translate(726,124)"/>
<path d="M0 0 C0.99 0 1.98 0 3 0 C1.50163895 3.11198065 -0.19933758 6.0534615 -2 9 C-3.32 8.67 -4.64 8.34 -6 8 C-5.07456291 6.65826597 -4.13422595 5.32679841 -3.1875 4 C-2.66542969 3.2575 -2.14335938 2.515 -1.60546875 1.75 C-0.81076172 0.88375 -0.81076172 0.88375 0 0 Z " fill="#000000" transform="translate(736,107)"/>
<path d="M0 0 C0.99 0.33 1.98 0.66 3 1 C0.19195732 3.96404505 -2.18315774 6.44499019 -6 8 C-6 6.68 -6 5.36 -6 4 C-3.1875 1.6875 -3.1875 1.6875 0 0 Z " fill="#000000" transform="translate(920,94)"/>
<path d="M0 0 C0 0.99 0 1.98 0 3 C-3.3 3.66 -6.6 4.32 -10 5 C-10.33 4.01 -10.66 3.02 -11 2 C-7.17679443 0.57741188 -4.08718695 -0.24042276 0 0 Z " fill="#000000" transform="translate(941,88)"/>
<path d="M0 0 C3.63 0.33 7.26 0.66 11 1 C11 1.99 11 2.98 11 4 C7.37 3.67 3.74 3.34 0 3 C0 2.01 0 1.02 0 0 Z " fill="#000000" transform="translate(950,87)"/>
<path d="M0 0 C1.45903258 0.30921884 2.91720722 0.62248799 4.375 0.9375 C5.18710937 1.11152344 5.99921875 1.28554688 6.8359375 1.46484375 C9 2 9 2 11 3 C10.67 3.99 10.34 4.98 10 6 C8.5164999 5.57742724 7.03823576 5.13643678 5.5625 4.6875 C4.73878906 4.44386719 3.91507813 4.20023437 3.06640625 3.94921875 C2.04353516 3.47935547 2.04353516 3.47935547 1 3 C0.67 2.01 0.34 1.02 0 0 Z " fill="#000000" transform="translate(742,257)"/>
<path d="M0 0 C3.63 0 7.26 0 11 0 C10.67 0.99 10.34 1.98 10 3 C6.7 3 3.4 3 0 3 C0 2.01 0 1.02 0 0 Z " fill="#000000" transform="translate(944,213)"/>
<path d="M0 0 C-0.33 0.99 -0.66 1.98 -1 3 C-3.06640625 3.73046875 -3.06640625 3.73046875 -5.5625 4.1875 C-6.38878906 4.34605469 -7.21507812 4.50460938 -8.06640625 4.66796875 C-9.02353516 4.83232422 -9.02353516 4.83232422 -10 5 C-10.33 4.01 -10.66 3.02 -11 2 C-9.54494642 1.47007308 -8.08581873 0.9513211 -6.625 0.4375 C-5.81289063 0.14746094 -5.00078125 -0.14257812 -4.1640625 -0.44140625 C-2 -1 -2 -1 0 0 Z " fill="#000000" transform="translate(974,208)"/>
<path d="M0 0 C-3.01887244 3.48331435 -5.56909529 4.79157144 -10 6 C-9.875 4.1875 -9.875 4.1875 -9 2 C-3.81203008 -1.27067669 -3.81203008 -1.27067669 0 0 Z " fill="#000000" transform="translate(992,200)"/>
<path d="M0 0 C2.64 1.98 5.28 3.96 8 6 C7.67 6.99 7.34 7.98 7 9 C3.63408134 7.55746343 1.48952921 5.66735273 -1 3 C-0.67 2.01 -0.34 1.02 0 0 Z " fill="#000000" transform="translate(910,198)"/>
<path d="M0 0 C4.20626034 1.50223584 5.73900021 4.28550034 8 8 C6.68 8.33 5.36 8.66 4 9 C1.525 5.04 1.525 5.04 -1 1 C-0.67 0.67 -0.34 0.34 0 0 Z " fill="#000000" transform="translate(729,182)"/>
<path d="M0 0 C0.66 0 1.32 0 2 0 C3.19287411 3.87684087 4 6.91621923 4 11 C3.01 11 2.02 11 1 11 C0.63890458 9.35567294 0.28629924 7.7094792 -0.0625 6.0625 C-0.25972656 5.14597656 -0.45695313 4.22945312 -0.66015625 3.28515625 C-0.77230469 2.53105469 -0.88445313 1.77695313 -1 1 C-0.67 0.67 -0.34 0.34 0 0 Z " fill="#000000" transform="translate(893,163)"/>
<path d="M0 0 C3.3 0 6.6 0 10 0 C10 0.99 10 1.98 10 3 C6.7 3 3.4 3 0 3 C0 2.01 0 1.02 0 0 Z " fill="#000000" transform="translate(762,263)"/>
<path d="M0 0 C3.3 0.99 6.6 1.98 10 3 C10 3.99 10 4.98 10 6 C5.545 5.01 5.545 5.01 1 4 C0.67 2.68 0.34 1.36 0 0 Z " fill="#000000" transform="translate(925,209)"/>
<path d="M0 0 C0 0.99 0 1.98 0 3 C-3.50776784 4.60355101 -6.14354879 5.22036864 -10 5 C-9.67 4.01 -9.34 3.02 -9 2 C-5.82757352 0.68964993 -3.44118336 0 0 0 Z " fill="#000000" transform="translate(484,188)"/>
<path d="M0 0 C0.99 0.66 1.98 1.32 3 2 C2.01 4.97 1.02 7.94 0 11 C-0.99 11 -1.98 11 -3 11 C-2.69078116 9.54096742 -2.37751201 8.08279278 -2.0625 6.625 C-1.88847656 5.81289062 -1.71445312 5.00078125 -1.53515625 4.1640625 C-1 2 -1 2 0 0 Z " fill="#000000" transform="translate(897,124)"/>
<path d="M0 0 C0.99 0 1.98 0 3 0 C2.38545304 3.99455527 0.29353263 6.74466336 -2 10 C-2.66 9.67 -3.32 9.34 -4 9 C-2.94124926 5.59687262 -1.99097846 2.98646769 0 0 Z " fill="#000000" transform="translate(905,107)"/>
<path d="M0 0 C3.96 0 7.92 0 12 0 C12 0.99 12 1.98 12 3 C8.37 3 4.74 3 1 3 C0.67 2.01 0.34 1.02 0 0 Z " fill="#000000" transform="translate(630,96)"/>
<path d="M0 0 C-1.38801071 3.35435922 -2.88629 5.11290303 -6 7 C-6.99 7 -7.98 7 -9 7 C-8.8125 5.1875 -8.8125 5.1875 -8 3 C-5.09303401 0.85802506 -3.64478912 0 0 0 Z " fill="#000000" transform="translate(442,96)"/>
<path d="M0 0 C3.63 0.66 7.26 1.32 11 2 C11 2.99 11 3.98 11 5 C9.54119891 4.85892253 8.08296449 4.71197585 6.625 4.5625 C5.40683594 4.44068359 5.40683594 4.44068359 4.1640625 4.31640625 C2 4 2 4 0 3 C0 2.01 0 1.02 0 0 Z " fill="#000000" transform="translate(786,88)"/>
<path d="M0 0 C3.3 0 6.6 0 10 0 C10 0.99 10 1.98 10 3 C6.7 3 3.4 3 0 3 C0 2.01 0 1.02 0 0 Z " fill="#000000" transform="translate(456,193)"/>
<path d="M0 0 C3.3 0.66 6.6 1.32 10 2 C9.67 2.99 9.34 3.98 9 5 C4.545 4.01 4.545 4.01 0 3 C0 2.01 0 1.02 0 0 Z " fill="#000000" transform="translate(438,190)"/>
<path d="M0 0 C0.99 0 1.98 0 3 0 C3 3.3 3 6.6 3 10 C2.01 10 1.02 10 0 10 C0 6.7 0 3.4 0 0 Z " fill="#000000" transform="translate(574,188)"/>
<path d="M0 0 C0.99 0 1.98 0 3 0 C3 3.3 3 6.6 3 10 C2.01 10 1.02 10 0 10 C0 6.7 0 3.4 0 0 Z " fill="#000000" transform="translate(513,186)"/>
<path d="M0 0 C0.66 0 1.32 0 2 0 C7 5.35714286 7 5.35714286 7 9 C3.63408134 7.55746343 1.48952921 5.66735273 -1 3 C-0.67 2.01 -0.34 1.02 0 0 Z " fill="#000000" transform="translate(424,178)"/>
<path d="M0 0 C0.99 0 1.98 0 3 0 C3 3.3 3 6.6 3 10 C2.01 10 1.02 10 0 10 C0 6.7 0 3.4 0 0 Z " fill="#000000" transform="translate(513,167)"/>
<path d="M0 0 C0.99 0 1.98 0 3 0 C3.99 2.97 4.98 5.94 6 9 C5.01 9.33 4.02 9.66 3 10 C2.01 6.7 1.02 3.4 0 0 Z " fill="#000000" transform="translate(415,162)"/>
<path d="M0 0 C0.99 0 1.98 0 3 0 C3 3.3 3 6.6 3 10 C2.01 10 1.02 10 0 10 C0 6.7 0 3.4 0 0 Z " fill="#000000" transform="translate(513,148)"/>
<path d="M0 0 C0.99 0 1.98 0 3 0 C3.33 2.31 3.66 4.62 4 7 C1.69 7 -0.62 7 -3 7 C-3 6.34 -3 5.68 -3 5 C-2.01 4.67 -1.02 4.34 0 4 C0 2.68 0 1.36 0 0 Z " fill="#000000" transform="translate(1011,143)"/>
<path d="M0 0 C0.99 0 1.98 0 3 0 C3 3.3 3 6.6 3 10 C2.01 10 1.02 10 0 10 C0 6.7 0 3.4 0 0 Z " fill="#000000" transform="translate(574,133)"/>
<path d="M0 0 C0.99 0 1.98 0 3 0 C3 3.3 3 6.6 3 10 C2.01 10 1.02 10 0 10 C0 6.7 0 3.4 0 0 Z " fill="#000000" transform="translate(513,130)"/>
<path d="M0 0 C0.99 0 1.98 0 3 0 C2.34 3.3 1.68 6.6 1 10 C0.01 10 -0.98 10 -2 10 C-1.54177532 6.53058454 -1.10868317 3.32604951 0 0 Z " fill="#000000" transform="translate(417,125)"/>
<path d="M0 0 C0.99 0 1.98 0 3 0 C3 3.3 3 6.6 3 10 C2.01 10 1.02 10 0 10 C0 6.7 0 3.4 0 0 Z " fill="#000000" transform="translate(574,115)"/>
<path d="M0 0 C0.99 0 1.98 0 3 0 C3 3.3 3 6.6 3 10 C2.01 10 1.02 10 0 10 C0 6.7 0 3.4 0 0 Z " fill="#000000" transform="translate(513,111)"/>
<path d="M0 0 C0.66 0 1.32 0 2 0 C1.49701212 4.40114397 -0.08772731 6.71195019 -3 10 C-3.66 9.67 -4.32 9.34 -5 9 C-3.7580393 5.56072421 -2.44259716 2.74792181 0 0 Z " fill="#000000" transform="translate(426,108)"/>
<path d="M0 0 C0.99 0 1.98 0 3 0 C3 3.3 3 6.6 3 10 C2.01 10 1.02 10 0 10 C0 6.7 0 3.4 0 0 Z " fill="#000000" transform="translate(574,96)"/>
<path d="M0 0 C0.99 0 1.98 0 3 0 C3 3.3 3 6.6 3 10 C2.01 10 1.02 10 0 10 C0 6.7 0 3.4 0 0 Z " fill="#000000" transform="translate(513,92)"/>
<path d="M0 0 C0.99 0 1.98 0 3 0 C3 2.97 3 5.94 3 9 C2.01 9.33 1.02 9.66 0 10 C0 6.7 0 3.4 0 0 Z " fill="#000000" transform="translate(574,170)"/>
<path d="M0 0 C0.99 0.33 1.98 0.66 3 1 C3 3.97 3 6.94 3 10 C2.01 10 1.02 10 0 10 C0 6.7 0 3.4 0 0 Z " fill="#000000" transform="translate(574,151)"/>
<path d="M0 0 C0.66 0 1.32 0 2 0 C2 3.3 2 6.6 2 10 C1.01 10 0.02 10 -1 10 C-1.02689216 8.52093108 -1.04634621 7.04172517 -1.0625 5.5625 C-1.07410156 4.73878906 -1.08570313 3.91507813 -1.09765625 3.06640625 C-1 1 -1 1 0 0 Z " fill="#000000" transform="translate(722,144)"/>
<path d="M0 0 C0.66 0 1.32 0 2 0 C3.26237731 2.52475462 3.09856404 4.31200466 3.0625 7.125 C3.05347656 8.03507812 3.04445313 8.94515625 3.03515625 9.8828125 C3.02355469 10.58148438 3.01195312 11.28015625 3 12 C2.34 12 1.68 12 1 12 C0.63896464 10.18885568 0.28634496 8.37603177 -0.0625 6.5625 C-0.25972656 5.55316406 -0.45695313 4.54382813 -0.66015625 3.50390625 C-0.77230469 2.67761719 -0.88445313 1.85132812 -1 1 C-0.67 0.67 -0.34 0.34 0 0 Z " fill="#000000" transform="translate(662,119)"/>
<path d="M0 0 C1.48206495 0.254496 2.96068615 0.52911762 4.4375 0.8125 C5.67306641 1.03873047 5.67306641 1.03873047 6.93359375 1.26953125 C7.95646484 1.63111328 7.95646484 1.63111328 9 2 C9.33 2.99 9.66 3.98 10 5 C2.25 4.125 2.25 4.125 0 3 C0 2.01 0 1.02 0 0 Z " fill="#000000" transform="translate(468,91)"/>
<path d="M0 0 C0.99 0 1.98 0 3 0 C2.67 2.64 2.34 5.28 2 8 C0.68 8.33 -0.64 8.66 -2 9 C-1.34 6.03 -0.68 3.06 0 0 Z " fill="#000000" transform="translate(828,218)"/>
<path d="M0 0 C0.33 0.99 0.66 1.98 1 3 C-1.97 3.66 -4.94 4.32 -8 5 C-8.33 4.01 -8.66 3.02 -9 2 C-6.03 1.34 -3.06 0.68 0 0 Z " fill="#000000" transform="translate(458,90)"/>
<path d="M0 0 C0.99 0 1.98 0 3 0 C3 2.97 3 5.94 3 9 C2.01 9 1.02 9 0 9 C0 6.03 0 3.06 0 0 Z " fill="#000000" transform="translate(828,202)"/>
<path d="M0 0 C0.99 0 1.98 0 3 0 C3 3.3 3 6.6 3 10 C2.01 10.33 1.02 10.66 0 11 C0 7.37 0 3.74 0 0 Z " fill="#000000" transform="translate(414,143)"/>
<path d="M0 0 C0.66 0 1.32 0 2 0 C2 3.96 2 7.92 2 12 C1.34 12 0.68 12 0 12 C0 8.04 0 4.08 0 0 Z " fill="#000000" transform="translate(663,186)"/>
<path d="M0 0 C0.66 0 1.32 0 2 0 C2 3.96 2 7.92 2 12 C1.34 12 0.68 12 0 12 C0 8.04 0 4.08 0 0 Z " fill="#000000" transform="translate(663,164)"/>
<path d="M0 0 C0.66 0 1.32 0 2 0 C2 3.96 2 7.92 2 12 C1.34 12 0.68 12 0 12 C0 8.04 0 4.08 0 0 Z " fill="#000000" transform="translate(663,141)"/>
<path d="M0 0 C3.63 0 7.26 0 11 0 C11 0.66 11 1.32 11 2 C7.37 2 3.74 2 0 2 C0 1.34 0 0.68 0 0 Z " fill="#000000" transform="translate(988,148)"/>
<path d="M0 0 C3.63 0 7.26 0 11 0 C11 0.66 11 1.32 11 2 C7.37 2 3.74 2 0 2 C0 1.34 0 0.68 0 0 Z " fill="#000000" transform="translate(968,148)"/>
<path d="M0 0 C3.63 0 7.26 0 11 0 C11 0.66 11 1.32 11 2 C7.37 2 3.74 2 0 2 C0 1.34 0 0.68 0 0 Z " fill="#000000" transform="translate(948,148)"/>
<path d="M0 0 C3.63 0 7.26 0 11 0 C11 0.66 11 1.32 11 2 C7.37 2 3.74 2 0 2 C0 1.34 0 0.68 0 0 Z " fill="#000000" transform="translate(928,148)"/>
<path d="M0 0 C3.63 0 7.26 0 11 0 C11 0.66 11 1.32 11 2 C7.37 2 3.74 2 0 2 C0 1.34 0 0.68 0 0 Z " fill="#000000" transform="translate(908,148)"/>
<path d="M0 0 C0.99 0 1.98 0 3 0 C3 2.31 3 4.62 3 7 C2.01 7 1.02 7 0 7 C0 4.69 0 2.38 0 0 Z " fill="#000000" transform="translate(828,83)"/>
<path d="M0 0 C0.66 0.33 1.32 0.66 2 1 C1.25 2.9375 1.25 2.9375 0 5 C-2.125 5.75 -2.125 5.75 -4 6 C-2.84826645 3.53199953 -1.95216435 1.95216435 0 0 Z " fill="#000000" transform="translate(582,120)"/>
<path d="M0 0 C0.99 0 1.98 0 3 0 C3 1.98 3 3.96 3 6 C2.01 6 1.02 6 0 6 C0 4.02 0 2.04 0 0 Z " fill="#000000" transform="translate(261,204)"/>
<path d="M0 0 C2.475 0.495 2.475 0.495 5 1 C5.33 1.99 5.66 2.98 6 4 C4.35 3.67 2.7 3.34 1 3 C0.67 2.01 0.34 1.02 0 0 Z " fill="#000000" transform="translate(352,98)"/>
<path d="M0 0 C1.5 1.375 1.5 1.375 3 3 C3 3.66 3 4.32 3 5 C1.0625 4.6875 1.0625 4.6875 -1 4 C-1.33 3.01 -1.66 2.02 -2 1 C-1.34 0.67 -0.68 0.34 0 0 Z " fill="#000000" transform="translate(179,63)"/>
<path d="M0 0 C-0.3125 1.9375 -0.3125 1.9375 -1 4 C-1.99 4.33 -2.98 4.66 -4 5 C-4 3.68 -4 2.36 -4 1 C-2 0 -2 0 0 0 Z " fill="#000000" transform="translate(75,37)"/>
<path d="M0 0 C1.65 0 3.3 0 5 0 C5 0.99 5 1.98 5 3 C3.35 3 1.7 3 0 3 C0 2.01 0 1.02 0 0 Z " fill="#000000" transform="translate(108,210)"/>
<path d="M0 0 C1.32 0.66 2.64 1.32 4 2 C3.67 2.99 3.34 3.98 3 5 C1.68 4.34 0.36 3.68 -1 3 C-0.67 2.01 -0.34 1.02 0 0 Z " fill="#000000" transform="translate(71,200)"/>
<path d="M0 0 C0.99 0.33 1.98 0.66 3 1 C3.33 1.99 3.66 2.98 4 4 C2.68 4 1.36 4 0 4 C-0.33 3.01 -0.66 2.02 -1 1 C-0.67 0.67 -0.34 0.34 0 0 Z " fill="#000000" transform="translate(41,175)"/>
<path d="M0 0 C0.99 0.33 1.98 0.66 3 1 C2.34 2.32 1.68 3.64 1 5 C0.01 4.67 -0.98 4.34 -2 4 C-1.34 2.68 -0.68 1.36 0 0 Z " fill="#000000" transform="translate(44,64)"/>
<path d="M0 0 C2.475 0.99 2.475 0.99 5 2 C4.67 2.66 4.34 3.32 4 4 C2.35 3.67 0.7 3.34 -1 3 C-0.67 2.01 -0.34 1.02 0 0 Z " fill="#000000" transform="translate(147,39)"/>
<path d="M0 0 C1.98 0.495 1.98 0.495 4 1 C2.625 2.5 2.625 2.5 1 4 C0.34 4 -0.32 4 -1 4 C-0.67 2.68 -0.34 1.36 0 0 Z " fill="#000000" transform="translate(148,201)"/>
<path d="M0 0 C0.99 0 1.98 0 3 0 C2.67 1.65 2.34 3.3 2 5 C1.01 4.67 0.02 4.34 -1 4 C-0.67 2.68 -0.34 1.36 0 0 Z " fill="#000000" transform="translate(194,139)"/>
<path d="M0 0 C0.66 0 1.32 0 2 0 C2.33 1.65 2.66 3.3 3 5 C2.01 5 1.02 5 0 5 C-0.5625 3.0625 -0.5625 3.0625 -1 1 C-0.67 0.67 -0.34 0.34 0 0 Z " fill="#000000" transform="translate(27,139)"/>
<path d="M0 0 C0.99 0 1.98 0 3 0 C2.67 1.65 2.34 3.3 2 5 C1.34 5 0.68 5 0 5 C0 3.35 0 1.7 0 0 Z " fill="#000000" transform="translate(28,100)"/>
<path d="M0 0 C0.66 0 1.32 0 2 0 C1.67 1.32 1.34 2.64 1 4 C0.01 4 -0.98 4 -2 4 C-1.34 2.68 -0.68 1.36 0 0 Z " fill="#000000" transform="translate(179,175)"/>
<path d="M0 0 C0.66 0 1.32 0 2 0 C2 1.65 2 3.3 2 5 C1.01 4.67 0.02 4.34 -1 4 C-0.67 2.68 -0.34 1.36 0 0 Z " fill="#000000" transform="translate(195,99)"/>
</svg>
