<svg width="816" height="203" viewBox="0 0 816 203" fill="none" xmlns="http://www.w3.org/2000/svg">
<path d="M3 196.5V3H50.5V160H112.5V196.5H3Z" stroke="black" stroke-width="5"/>
<path d="M23 23V177.5H97" stroke="black" stroke-width="2" stroke-dasharray="10 10"/>
<circle cx="23.0957" cy="23.0957" r="8.09575" fill="black"/>
<path d="M22.2929 178.707C22.6834 179.098 23.3166 179.098 23.7071 178.707L30.0711 172.343C30.4616 171.953 30.4616 171.319 30.0711 170.929C29.6805 170.538 29.0474 170.538 28.6569 170.929L23 176.586L17.3431 170.929C16.9526 170.538 16.3195 170.538 15.9289 170.929C15.5384 171.319 15.5384 171.953 15.9289 172.343L22.2929 178.707ZM22 172V178H24V172H22Z" fill="black"/>
<path d="M100.707 178.707C101.098 178.317 101.098 177.683 100.707 177.293L94.3431 170.929C93.9526 170.538 93.3195 170.538 92.9289 170.929C92.5384 171.319 92.5384 171.953 92.9289 172.343L98.5858 178L92.9289 183.657C92.5384 184.047 92.5384 184.681 92.9289 185.071C93.3195 185.462 93.9526 185.462 94.3431 185.071L100.707 178.707ZM92 179H100V177H92V179Z" fill="black"/>
<circle cx="151.5" cy="114.5" r="6.5" fill="black"/>
<path d="M262.743 129.465H173.743C188.543 168.665 225.243 149.465 241.742 134.965H252.742C262.742 134.565 272.576 151.132 276.242 159.465C252.742 193.558 220.909 206.558 173.743 187.465C94.9089 148.558 130.408 52.503 173.743 40.4652C255.909 17.6403 279.243 71.5581 279.243 105.465C277.243 125.865 267.409 129.965 262.743 129.465Z" stroke="black" stroke-width="5"/>
<path d="M241.408 100.558H173.908C181.108 79.3574 195.408 75.0581 206.908 75.0581C224.508 72.6581 236.908 90.3909 241.408 100.558Z" stroke="black" stroke-width="5"/>
<path d="M152.144 113.591L151.148 113.505H151.148L152.144 113.591ZM265.908 113.591V114.591H267.21L266.874 113.334L265.908 113.591ZM210.523 56.6768L210.634 55.683L210.604 55.6796L210.573 55.6781L210.523 56.6768ZM256.915 154.341C257.007 153.797 256.641 153.28 256.096 153.188L247.224 151.68C246.679 151.587 246.163 151.953 246.07 152.498C245.978 153.042 246.344 153.559 246.889 153.651L254.775 154.992L253.435 162.879C253.342 163.423 253.709 163.94 254.253 164.032C254.798 164.125 255.314 163.758 255.407 163.214L256.915 154.341ZM153.14 113.677C153.276 112.108 153.435 110.579 153.618 109.09L151.633 108.846C151.447 110.36 151.285 111.913 151.148 113.505L153.14 113.677ZM155.118 100.008C155.788 96.8518 156.582 93.9102 157.491 91.1714L155.593 90.5414C154.659 93.356 153.846 96.3697 153.162 99.5931L155.118 100.008ZM160.959 82.7269C162.396 79.8639 163.995 77.2938 165.738 74.9932L164.143 73.7857C162.323 76.1888 160.661 78.8636 159.172 81.8298L160.959 82.7269ZM171.93 68.3955C174.263 66.4001 176.764 64.7198 179.412 63.3229L178.479 61.5541C175.704 63.0178 173.079 64.7808 170.63 66.8758L171.93 68.3955ZM187.822 59.9349C190.684 59.0925 193.666 58.4919 196.747 58.1052L196.498 56.1208C193.322 56.5195 190.233 57.1404 187.257 58.0163L187.822 59.9349ZM205.881 57.5581C207.396 57.5575 208.928 57.5976 210.473 57.6756L210.573 55.6781C208.997 55.5986 207.431 55.5575 205.88 55.5581L205.881 57.5581ZM210.412 57.6706C212.136 57.8637 213.823 58.1521 215.472 58.528L215.916 56.5781C214.195 56.1857 212.434 55.8846 210.634 55.683L210.412 57.6706ZM225.159 61.8861C228.27 63.3497 231.219 65.1247 234 67.1422L235.175 65.5231C232.301 63.4389 229.245 61.5979 226.011 60.0764L225.159 61.8861ZM241.844 73.8542C244.299 76.2971 246.579 78.9123 248.682 81.6277L250.263 80.4034C248.113 77.6263 245.776 74.9456 243.255 72.4366L241.844 73.8542ZM254.557 90.1774C256.415 93.2245 258.061 96.2984 259.492 99.309L261.298 98.4506C259.839 95.38 258.16 92.2449 256.265 89.1362L254.557 90.1774ZM263.43 108.913C264.02 110.631 264.525 112.284 264.942 113.849L266.874 113.334C266.444 111.72 265.926 110.022 265.321 108.262L263.43 108.913ZM265.908 112.591H261.168V114.591H265.908V112.591ZM251.688 112.591H242.207V114.591H251.688V112.591ZM232.727 112.591H223.247V114.591H232.727V112.591ZM213.766 112.591H204.286V114.591H213.766V112.591ZM194.806 112.591H185.325V114.591H194.806V112.591ZM175.845 112.591H166.365V114.591H175.845V112.591ZM156.884 112.591H152.144V114.591H156.884V112.591ZM151.148 113.505C150.994 115.285 150.915 117.084 150.909 118.893L152.909 118.9C152.915 117.145 152.992 115.401 153.14 113.677L151.148 113.505ZM151.727 129.644C152.28 133.19 153.112 136.709 154.223 140.131L156.125 139.514C155.048 136.195 154.24 132.78 153.704 129.336L151.727 129.644ZM158.408 150.078C160.099 153.282 162.077 156.318 164.34 159.114L165.895 157.855C163.718 155.166 161.811 152.24 160.177 149.144L158.408 150.078ZM172.03 166.742C174.837 168.957 177.922 170.865 181.282 172.393L182.11 170.573C178.902 169.113 175.955 167.291 173.27 165.172L172.03 166.742ZM191.614 175.665C195.004 176.315 198.597 176.623 202.392 176.547L202.351 174.547C198.692 174.621 195.238 174.323 191.99 173.701L191.614 175.665ZM213.119 175.371C216.452 174.725 219.912 173.805 223.498 172.59L222.856 170.695C219.35 171.884 215.977 172.78 212.738 173.408L213.119 175.371ZM233.447 168.592C236.546 167.159 239.729 165.516 242.995 163.653L242.004 161.916C238.784 163.753 235.652 165.369 232.607 166.777L233.447 168.592ZM252.056 158.049C253.525 157.072 255.008 156.053 256.508 154.989L255.35 153.358C253.867 154.41 252.4 155.419 250.949 156.384L252.056 158.049Z" fill="black"/>
<path d="M595.512 39.0748C508.868 35.0747 484.219 192.749 595.512 198.775C688.368 198.775 707.807 50.6255 595.512 39.0748Z" stroke="black" stroke-width="5"/>
<circle cx="595.867" cy="58.5747" r="6.5" fill="black"/>
<path d="M595.752 82.1103C554.606 80.2076 542.901 155.208 595.752 158.075C639.848 158.075 649.079 87.6046 595.752 82.1103Z" stroke="black" stroke-width="5"/>
<path d="M594.867 58.1328C528.005 55.0283 508.984 177.398 594.867 182.075C666.523 182.075 681.524 67.0971 594.867 58.1328Z" stroke="black" stroke-width="2" stroke-dasharray="10 10"/>
<circle cx="704.5" cy="56.5" r="6.5" fill="black"/>
<path d="M683 186.16V45.1596C702.2 26.7596 720.667 37.4929 727.5 45.1596V51.1598C739.1 45.5598 752.667 42.493 758 41.6596C799.6 31.6596 812 80.8263 813 106.66V187.66C794.2 203.66 778.167 194.326 772.5 187.66V120.16C772.9 96.9596 766 89.493 762.5 88.6596C747.7 83.4596 733 92.493 727.5 97.6596V186.16C706.3 205.36 689 194.16 683 186.16Z" stroke="black" stroke-width="5"/>
<path d="M704.293 178.207C704.683 178.598 705.317 178.598 705.707 178.207L712.071 171.843C712.462 171.453 712.462 170.819 712.071 170.429C711.681 170.038 711.047 170.038 710.657 170.429L705 176.086L699.343 170.429C698.953 170.038 698.319 170.038 697.929 170.429C697.538 170.819 697.538 171.453 697.929 171.843L704.293 178.207ZM704 55V59.5H706V55H704ZM704 68.5V77.5H706V68.5H704ZM704 86.5V91H706V86.5H704ZM704 91V96.4062H706V91H704ZM704 107.219V118.031H706V107.219H704ZM704 128.844V139.656H706V128.844H704ZM704 150.469V161.281H706V150.469H704ZM704 172.094V177.5H706V172.094H704Z" fill="black"/>
<path d="M793 91.2564H794V91.1638L793.983 91.0727L793 91.2564ZM792.293 180.828C792.683 181.219 793.317 181.219 793.707 180.828L800.071 174.464C800.462 174.074 800.462 173.441 800.071 173.05C799.681 172.66 799.047 172.66 798.657 173.05L793 178.707L787.343 173.05C786.953 172.66 786.319 172.66 785.929 173.05C785.538 173.441 785.538 174.074 785.929 174.464L792.293 180.828ZM708.707 91.9636C709.854 90.8169 711.169 89.5916 712.631 88.3175L711.316 86.81C709.825 88.1101 708.476 89.3665 707.293 90.5494L708.707 91.9636ZM721.08 81.6524C723.884 79.6375 726.917 77.6311 730.097 75.7322L729.072 74.0149C725.84 75.9445 722.76 77.9823 719.913 80.0282L721.08 81.6524ZM739.594 70.6496C742.879 69.0983 746.225 67.7397 749.56 66.6618L748.945 64.7587C745.517 65.867 742.09 67.259 738.74 68.8411L739.594 70.6496ZM759.95 64.2955C763.621 63.8512 767.159 63.8911 770.466 64.5304L770.846 62.5667C767.294 61.8803 763.543 61.846 759.71 62.3099L759.95 64.2955ZM779.958 68.617C782.529 70.5152 784.839 73.0716 786.794 76.4142L788.52 75.4044C786.44 71.848 783.953 69.0809 781.146 67.0081L779.958 68.617ZM790.811 86.2101C791.267 87.8447 791.671 89.5864 792.017 91.4402L793.983 91.0727C793.627 89.166 793.21 87.3675 792.738 85.6729L790.811 86.2101ZM792 91.2564V96.8105H794V91.2564H792ZM792 107.919V119.027H794V107.919H792ZM792 130.135V141.243H794V130.135H792ZM792 152.351V163.459H794V152.351H792ZM792 174.567V180.121H794V174.567H792Z" fill="black"/>
<path d="M288 188.745V48.7451C301.6 28.745 323.333 38.7451 332.5 46.2452V51.2451C374.5 30.8451 400 52.7451 407.5 66.2451C423.9 47.8451 448.333 43.9117 458.5 44.2451C501.3 50.6451 509.667 93.2451 508.5 113.745V188.745C488.9 205.945 472.667 195.245 467 187.745V119.245C466.2 98.4451 458 89.5784 454 87.7451C433.2 78.9451 423.333 111.745 421 129.245L419.5 188.745C402.3 209.145 384.333 197.245 377.5 188.745L375.5 110.745C375.9 95.1451 367.333 89.9117 363 89.2451C347.4 85.2451 336.167 93.9117 332.5 98.7451V188.745C311.3 208.745 294 197.078 288 188.745Z" stroke="black" stroke-width="5"/>
<circle cx="308.5" cy="52.5" r="6.5" fill="black"/>
<path d="M397 96V178M397 96C417 74 463.1 43.2 487.5 96V178M397 96C374.2 42.4 338.667 66.6667 318.5 89" stroke="black" stroke-width="2" stroke-dasharray="10 10"/>
<path d="M308.293 186.707C308.683 187.098 309.317 187.098 309.707 186.707L316.071 180.343C316.462 179.953 316.462 179.319 316.071 178.929C315.681 178.538 315.047 178.538 314.657 178.929L309 184.586L303.343 178.929C302.953 178.538 302.319 178.538 301.929 178.929C301.538 179.319 301.538 179.953 301.929 180.343L308.293 186.707ZM308 52V56.7857H310V52H308ZM308 66.3571V75.9286H310V66.3571H308ZM308 85.5V95.0714H310V85.5H308ZM308 104.643V114.214H310V104.643H308ZM308 123.786V133.357H310V123.786H308ZM308 142.929V152.5H310V142.929H308ZM308 162.071V171.643H310V162.071H308ZM308 181.214V186H310V181.214H308Z" fill="black"/>
</svg>
